<svg xmlns="http://www.w3.org/2000/svg" viewBox="0 0 456 320"><path fill="#9AD1BD" id="MOB" d="M153 143v2c0 19.054 8.216 30.932 16 46.5 4.66 9.32.3 22.6 5 32 5.338 10.675 29.837 19.327 37 5 3.402-6.803 4.659-14.318 8-21 2.239-4.479-.299-11.402 2-16l1-30c1.182-2.364 5.107-26.787 4-29l-3-11-4-5.5c0-1.481-2-.785-2-3l-5-3-1-1c-3.964 0-11.388-3.056-15.5-1-3.236 1.618-17.415 7-20.5 7l-1 1h-1l-1 1h-1l-12 12.5c-.907 1.814-4.395 13.5-6 13.5ZM283 116l2 1 8 6.5c2.702 5.404 14.36 22.279 11 29-1.94 3.88-1.078 9.157-3 13-5.163 10.326-9.901 20.801-15 31-3.312 6.624.617 17.766-5 29-2.292 4.584-7.91 5.705-11.5 7.5-13.657 6.829-22.454-.407-28.5-12.5-4.994-9.987-1.05-24.101-6-34-2.876-5.753 1.933-15.134-1-21l-1-15c-1.884-3.768-4.344-17.312-2-22 1.392-2.784 6-9.594 6-12.5 1.577 0 2-1.762 2-3h1l1-2 4-2 15.5-1c3.318 1.659 7.54 3 11.5 3l1 1 8 3 1 1h1Z"/><path fill="#99D2BD" id="OLF" d="M212 109v1l-1-1h1Z"/><path fill="#C7CBCA" id="onl" d="M217 112v1l-5-3v-1l4 2 1 1ZM245 109c-1.465 0-4-.109-4 2l4-2Z"/><path fill="#99D2BD" id="OLF" d="m216 111 1 1-1-1Z"/><path fill="#C7CBCA" id="onl" d="M240 112v1l1-2-1 1Z"/><path fill="#99D2BD" id="OLF" d="m272 111 1 1-1-1ZM239 113h1v-1l-1 1ZM219 116l3 1c0-1.429-3.939-4-5-4 0 2.215 2 1.519 2 3ZM235 116h2c1.577 0 2-1.762 2-3l-4 3ZM175 115l-1 1 1-1ZM281 115l1 1-1-1ZM173 116l-1 1 1-1Z"/><path fill="#C7CBCA" id="onl" fill-rule="evenodd" d="m228 180 .5 13c.553 0 1.416-13-.5-13m-71 41 1 1c0 2.561 12.347 17.424 15.5 19l9 2c3.213 1.606 21.922 8.539 25 7 12.384-6.192 19.5-16.865 19.5-32l1-1 .5-7 .5 14.5c4.195 8.39 6.481 19.491 16.5 24.5 4.918 2.459 10.744.128 15-2h5c10.311-5.155 21.458-5.415 27.5-17.5 1.922-3.843 6-4.764 6-9.5l1-1c0-9.353.684-25.869 5-34.5.662-1.324.353-8.5 2-8.5v-19c-1.579 0-1-2.855-1-4v-1c-1.473 0-1-1.952-1-3v-2c-1.643 0-1-3.765-1-5v-1c-1.473 0-1-1.952-1-3v-2l-1-2v-1l-1-1v-1l-1-1-1-2-2-2c0-3.513-9.271-9-12-9l8 6.5c2.702 5.404 14.36 22.279 11 29-1.94 3.88-1.078 9.157-3 13-5.163 10.326-9.901 20.801-15 31-3.312 6.624.617 17.766-5 29-2.292 4.584-7.91 5.705-11.5 7.5-13.657 6.829-22.454-.407-28.5-12.5-4.994-9.987-1.05-24.101-6-34-2.876-5.753 1.933-15.134-1-21l-1-15c-1.884-3.768-4.344-17.312-2-22 1.392-2.784 6-9.594 6-12.5h-2l-6 8.5-.5 15.5-.5-6.5c0-3.255-1.759-16.5-6-16.5l-3-1 4 5.5 3 11c1.107 2.213-2.818 26.636-4 29l-1 30c-2.299 4.598.239 11.521-2 16-3.341 6.682-4.598 14.197-8 21-7.163 14.327-31.662 5.675-37-5-4.7-9.4-.34-22.68-5-32-7.784-15.568-16-27.446-16-46.5l-2 3v3c0 1.145.579 4-1 4v1c0 1.235.643 5-1 5v12c1.799 0 1.248 8.997 2 10.5 4.329 8.657 6 25.996 6 36.5v1Z"/><path fill="#99D2BD" id="OLF" d="m283 116 2 1-2-1Z"/><path fill="#C7CBCA" id="onl" d="M153 140v3c1.605 0 5.093-11.686 6-13.5l12-12.5c-2.448 0-10 5.205-10 7l-1 1-1 1-1 2-1 1-1 1-1 3-1 2-1 2v3Z"/><path fill="#99D2BD" id="OLF" d="m161 124-1 1 1-1ZM160 125l-1 1 1-1ZM297 126l2 2-2-2ZM158 128l-1 1 1-1ZM157 129l-1 1 1-1ZM300 130l1 1-1-1ZM301 132l1 1-1-1ZM155 133l-1 2 1-2ZM302 134l1 2-1-2ZM154 135l-1 2 1-2ZM303 138c1.473 0 1 1.952 1 3-1.473 0-1-1.952-1-3ZM153 145l-2 3c0-1.552.566-8 2-8v5ZM304 142c1.643 0 1 3.765 1 5-1.643 0-1-3.765-1-5ZM305 149c1.473 0 1 1.952 1 3-1.473 0-1-1.952-1-3ZM151 151c-1.579 0-1 2.855-1 4 1.579 0 1-2.855 1-4ZM306 153c1.579 0 1 2.855 1 4-1.579 0-1-2.855-1-4ZM150 156c-1.643 0-1 3.765-1 5 1.643 0 1-3.765 1-5ZM307 162c1.644 0 1.644 14 0 14v-14ZM149 173c1.799 0 1.248 8.997 2 10.5 4.329 8.657 6 25.996 6 36.5-1.996 0-4.222-6.945-5-8.5l-3-3c-2.493-4.986 0-27.981 0-35.5ZM307 176c-1.647 0-1.338 7.176-2 8.5-4.316 8.631-5 25.147-5 34.5 1.816 0 2.392-4.284 3-5.5l4-4c4.364-8.729 0-24.074 0-33.5ZM228 217l-1 1 1-1ZM300 219l-1 1 1-1ZM157 221l1 1-1-1Z"/></svg>