<svg xmlns="http://www.w3.org/2000/svg" viewBox="0 0 456 320"><path fill="#1E9C59" id="MOs1" d="M117 103c0 2.486 1 3.725 1 6l12.5-15c9.433-9.433 21.888-13.444 33-19 7.89-3.945 30.272-8.364 39-4 2.342 1.17 12.5 4.379 12.5 8h1l3-3c0-5.995-21.626-17.937-27.5-15-7.99 3.995-21.284 3.642-30 8l-21 10-7 6c-4.607 2.303-16.5 13.653-16.5 18ZM338 109h1v-6c0-6.595-9.758-10.016-12-14.5-6.265-12.53-38.091-19.296-50.5-25.5-3.424-1.712-8.482-.241-12-2-4.8-2.4-27.5 8.758-27.5 15 .808 0 4 2.832 4 3h1l4.5-4c10.712-5.356 11.559-6 25.5-6l3.5 2 17 4c11.023 5.511 23.084 9.084 32.5 18.5 3.254 3.254 13 11.096 13 15.5Z"/><path fill="#1E9D58" id="MOs2/3" d="M123 152h2v-1c0-6.533-3.163-16.173 0-22.5 12.453-24.906 26.324-33.412 50.5-45.5 3.949-1.974 8.974-1.987 13-4 7.462-3.731 17.899 5 21.5 5l5-5c0-3.621-10.158-6.83-12.5-8-8.728-4.364-31.11.055-39 4-11.112 5.556-23.567 9.567-33 19L118 109v1c0 3.695-.625 21.249 1 24.5 2.075 4.149 4 12.833 4 17.5ZM331 152h2c0-4.758 2.514-10.528 4-13.5l-1-3c1.373-2.747 3-21.957 3-24.5v-1l-1-1c0-4.404-9.746-12.246-13-15.5-9.416-9.416-21.477-12.989-32.5-18.5l-17-4-3.5-2c-13.941 0-14.788.644-25.5 6l-4.5 4 4 6h1c0-3.403 5.113-3.806 7.5-5 9.991-4.996 26.803 2.901 35 7 19.106 9.553 31.733 20.967 41.5 40.5 1.323 2.645.643 6.286 2 9 2.231 4.461-2 10.59-2 14.5v1Z"/><path fill="#3EA665" id="ACAd1" d="M221 93h1l5-2c0-2.577-5.307-15-8-15l-3 3c0 4.563 5 8.641 5 14ZM229 91l6 2c0-5.166 6-9.707 6-14 0-.168-3.192-3-4-3 0 4.79-8 9.393-8 15Z"/><path fill="#1F9D58" id="MOs5" d="M148 136c-5.554 0-16.065 15-23 15 0-6.533-3.163-16.173 0-22.5 12.453-24.906 26.324-33.412 50.5-45.5 3.949-1.974 8.974-1.987 13-4 7.462-3.731 17.899 5 21.5 5v1l-13 15-4 3h-1c-15.043 0-44 15.021-44 32v1Z"/><path fill="#40A565" id="ACAd2/3" d="m221 93-6 2c0-2.115-2.443-10-5-10v-1l5-5h1c0 4.563 5 8.641 5 14ZM235 93l6 2c0-1.732 3.196-10 5-10l-4-6h-1c0 4.293-6 8.834-6 14Z"/><path fill="#1F9D58" id="MOs5" d="M308 135c3.082 0 17.502 16 23 16 0-3.91 4.231-10.039 2-14.5-1.357-2.714-.677-6.355-2-9-9.767-19.533-22.394-30.947-41.5-40.5-8.197-4.099-25.009-11.996-35-7-2.387 1.194-7.5 1.597-7.5 5l13 15 3 3h1c15.273 0 44 14.537 44 32Z"/><path fill="#3EA566" id="ACAd5" d="M215 95c-2.502 0-18 8.24-18 5l13-15c2.557 0 5 7.885 5 10ZM241 95c4.696 0 8.997 5 14 5 1.424 0 5 1.762 5 0l-13-15h-1c-1.804 0-5 8.268-5 10Z"/><path fill="#2FA750" id="PL1" d="M223 129h10l2-36-6-2c0 3.746-.8 0-2 0l-5 2 1 36Z"/><path fill="#2FA74F" id="PL2/3" d="M219 129h4l-1-36h-1l-6 2c0 10.181 4 20.939 4 33v1ZM233 129h4v-1c0-11.798 4-21.825 4-33l-6-2-2 36Z"/><path fill="#2EA84F" id="PL5" d="M202 122c5.249 0 11.068 6 17 6 0-12.061-4-22.819-4-33-2.502 0-18 8.24-18 5l-4 3 6 4.5c1.817 3.634 3 9.187 3 13.5v1ZM254 122c-5.292 0-10.927 6-17 6 0-11.798 4-21.825 4-33 4.696 0 8.997 5 14 5 1.424 0 5 1.762 5 0l3 3c0 .979-5.079 3.658-6 5.5-1.464 2.929-3 9.157-3 12.5v1Z"/><path fill="#1E9D5A" id="MOp1" d="m114 158-5 3c-2.816 0-3.046-9.591-4-11.5-6.108-12.217.839-26.679 6-37 .918-1.836 3.317-9.5 6-9.5 0 2.486 1 3.725 1 6v1c-1.996 0-4.222 6.945-5 8.5-3.317 6.634-6.937 20.127-3 28 .932 1.863 1.175 10.5 4 10.5v1Z"/><path fill="#1D9C5A" id="MOs6a" d="M160 133c-1.708 0-4.229-1-5.5-1l-6.5 3c0-16.979 28.957-32 44-32l-5 7c-10.36 0-22 4.321-22 15 0 1.451-3.778 8-5 8Z"/><path fill="#2FA850" id="PL6a" d="M192 115c3.428 0 6.206 6 10 6 0-4.313-1.183-9.866-3-13.5l-6-4.5h-1l-5 7 5 5ZM265 115c-4.712 0-6.683 6-11 6 0-3.343 1.536-9.571 3-12.5.921-1.842 6-4.521 6-5.5h1l5 7-4 5Z"/><path fill="#1D9C5A" id="MOs6a" d="m297 133 5.5-1 5.5 3c0-17.463-28.727-32-44-32l5 7c8.54 0 13.517 3.509 20.5 7 1.346.673 5.604 8 1.5 8l6 8Z"/><path fill="#1E9D5A" id="MOp1" d="m343 158 4 3c3.743 0 3.803-12.106 5-14.5 5.664-11.329-2.524-26.049-7-35-.85-1.7-3.471-8.5-6-8.5v8c1.761 0 3.325 6.15 4 7.5 2.931 5.862 7.404 21.191 4 28l-4 10.5v1Z"/><path fill="#1F9C58" id="MOp2/3" d="M339 109v1l-1-1h1ZM123 152c0 1.012-7.673 5-9 5-2.825 0-3.068-8.637-4-10.5-3.937-7.873-.317-21.366 3-28 .778-1.555 3.004-8.5 5-8.5 0 3.695-.625 21.249 1 24.5 2.075 4.149 4 12.833 4 17.5Z"/><path fill="#268E44" id="FRP6a" d="M183 117c-7.011 0-11.473 8-18 8 0-10.679 11.64-15 22-15l5 5c0 1.238 1.514 3 0 3-1.105 0-9-3.877-9-1ZM273 117c7.042 0 11.74 8 18 8 4.104 0-.154-7.327-1.5-8-6.983-3.491-11.96-7-20.5-7l-4 5c0 .716-2.373 3 0 3 0-.961 8-3.32 8-1Z"/><path fill="#1F9C58" id="MOp2/3" d="M333 152c0 1.535 8.221 5 10 5l4-10.5c3.404-6.809-1.069-22.138-4-28-.675-1.35-2.239-7.5-4-7.5 0 2.543-1.627 21.753-3 24.5l1 3c-1.486 2.972-4 8.742-4 13.5Z"/><path fill="#22885E" id="ORBm6a" d="M198 131h1c3.913 0 3-6.556 3-9v-1c-3.794 0-6.572-6-10-6 0 1.238 1.514 3 0 3l6 13ZM257 131h1l7-13c-2.373 0 0-2.284 0-3-4.712 0-6.683 6-11 6v1c0 3.855 3 8.587 3 9Z"/><path fill="#238A5C" id="ORBvl6a" d="M198 131c-6.228 0-11.946 1-18 1l3-15c0-2.877 7.895 1 9 1l6 13ZM258 131c6.124 0 12.102 1 18 1 0-5.59-3-11.697-3-15 0-2.32-8 .039-8 1l-7 13Z"/><path fill="#24895D" id="ORBl6a" d="M160 133c0 4.458-5 8.078-5 13 6.765 0 14.791-14 25-14l3-15c-7.011 0-11.473 8-18 8 0 1.451-3.778 8-5 8ZM297 133c0 4.817 4 7.813 4 13-6.193 0-14.311-14-24-14h-1c0-5.59-3-11.697-3-15 7.042 0 11.74 8 18 8l6 8Z"/><path fill="#23885E" id="ORBm5" d="m199 131 15 31c7.7 0 5-27.747 5-33v-1c-5.932 0-11.751-6-17-6 0 2.444.913 9-3 9ZM242 162h1c0-11.024 14-20.217 14-31 0-.413-3-5.145-3-9-5.292 0-10.927 6-17 6v1c0 5.574-1.366 33 5 33Z"/><path fill="#24885D" id="ORBm2/3" d="m214 162 5 11c4.357 0 2.907-7.314 4-9.5 4.778-9.556 0-23.825 0-34.5h-4c0 5.253 2.7 33-5 33Z"/><path fill="#23895D" id="ORBm1" d="M229 179c1.714 0 3.482 2 6 2 0-3.303 2-5.115 2-8l-4-6.5c-.867-1.734-.08-4.161-1-6l1-31.5h-10c0 10.675 4.778 24.944 0 34.5-1.093 2.186.357 9.5-4 9.5l3 8c2.25 0 3.376-2 5-2 0-2.726 2-3.644 2 0Z"/><path fill="#24885D" id="ORBm2/3" d="M237 173h1l4-11c-6.366 0-5-27.426-5-33h-4l-1 31.5c.92 1.839.133 4.266 1 6l4 6.5Z"/><path fill="#23885C" id="ORBvl5" d="M182 149c12.981 0 21.27 13 32 13l-15-31h-1c-6.228 0-11.946 1-18 1 0 4.616 2 11.585 2 17ZM274 149h1c0-5.806 2-10.668 2-17h-1c-5.898 0-11.876-1-18-1h-1c0 10.783-14 19.976-14 31 10.023 0 18.687-13 31-13Z"/><path fill="#209666" id="AId6a" d="m155 146-1 1c-4.857 0-6-7.454-6-11v-1l6.5-3c1.271 0 3.792 1 5.5 1 0 4.458-5 8.078-5 13Z"/><path fill="#228A5D" id="ORBl5" d="M149 161c0 4.923-3 9.124-3 14 8.644 0 28.611-26 36-26 0-5.415-2-12.384-2-17-10.209 0-18.235 14-25 14l-1 1-3 11-1 1-1 2ZM307 161c0 4.958 3 8.809 3 14-7.78 0-28.182-26-35-26 0-5.806 2-10.668 2-17 9.689 0 17.807 14 24 14l1 1 4 11 1 2v1Z"/><path fill="#209666" id="AId6a" d="m301 146 1 1c5.999 0 6-7.268 6-12l-5.5-3-5.5 1c0 4.817 4 7.813 4 13Z"/><path fill="#209665" id="AId5" d="m307 161 2.5 3 7.5 12c3.146 0 14-20.961 14-24v-1c-5.498 0-19.918-16-23-16 0 4.732-.001 12-6 12l4 11 1 2v1ZM139 176h1c0-4.388 5.198-7.896 7-11.5.579-1.158-.341-3.5 2-3.5l1-2 1-1 3-11c-4.857 0-6-7.454-6-11-5.554 0-16.065 15-23 15v1c1.306 0 4.215 9.931 5 11.5l5 9 4 3.5Z"/><path fill="#238A5E" id="ORBl2/3" d="M146 176c0 1.147-2.472 7 1 7l10.5-9c12.321-6.16 13.835-13 28.5-13 0-4.737-4-7.84-4-12-7.389 0-27.356 26-36 26v1Z"/><path fill="#248A5D" id="ORBvl2/3" d="m214 162 5 11c-11.49 0-22.553-12-33-12 0-4.737-4-7.84-4-12 12.981 0 21.27 13 32 13ZM242 162h1c10.023 0 18.687-13 31-13 0 4.082-4 7.63-4 12-8.4 0-20.739 12-32 12l4-11Z"/><path fill="#238A5E" id="ORBl2/3" d="M311 176c0 1.406.714 7-1 7l-12.5-10c-12.741-6.371-11.884-12-27.5-12 0-4.37 4-7.918 4-12h1c6.818 0 27.22 26 35 26l1 1Z"/><path fill="#209765" id="AId2/3" d="M131 184h1l7-8-4-3.5-5-9c-.785-1.569-3.694-11.5-5-11.5h-2c0 1.012-7.673 5-9 5v1l17 26ZM324 184h1c0-1.607 12.402-17.304 14-20.5.621-1.243 2.356-5.5 4-5.5v-1c-1.779 0-10-3.465-10-5h-2c0 3.039-10.854 24-14 24l7 8Z"/><path fill="#209764" id="AId1" d="m131 184-4 4c-2.05 0-18-24.061-18-27l5-3 17 26Z"/><path fill="#1F9865" id="AIv5" d="m151 158-1 1 1-1ZM306 158l1 2-1-2Z"/><path fill="#209764" id="AId1" d="M325 184c0 1.077 3.762 3 5 3 2.126 0 17-23.149 17-26l-4-3c-1.644 0-3.379 4.257-4 5.5-1.598 3.196-14 18.893-14 20.5Z"/><path fill="#1F9865" id="AIv5" d="m150 159-1 2 1-2Z"/><path fill="#238A5D" id="ORBl1" d="m153 185-4 2c-1.577 0-2-1.762-2-3v-1l10.5-9c12.321-6.16 13.835-13 28.5-13l1 5c-11.114 0-16.395 6.447-25.5 11l-6.5 6c-1.747 0-2 .253-2 2ZM310 184l-2 3c-4.026 0-6.881-6.691-9.5-8-9.743-4.872-16.691-13-28.5-13v-5c15.616 0 14.759 5.629 27.5 12l12.5 10v1Z"/><path fill="#1F9865" id="AIv5" d="M140 176h6v-1c0-4.876 3-9.077 3-14-2.341 0-1.421 2.342-2 3.5-1.802 3.604-7 7.112-7 11.5Z"/><path fill="#248A5B" id="ORBvl1" d="m219 173 3 8c-12.789 0-22.34-15-35-15l-1-5c10.447 0 21.51 12 33 12ZM235 181h3c0-2.109 2.535-2 4-2h1l2-1 2-1c0-1.758 19.446-11 23-11v-5c-8.4 0-20.739 12-32 12h-1c0 2.885-2 4.697-2 8Z"/><path fill="#1F9865" id="AIv5" d="M311 176h6l-7.5-12-2.5-3c0 4.958 3 8.809 3 14l1 1Z"/><path fill="#99D2BD" id="OLF" d="M214 199c0 10.245 2.227 15.863 10.5 20l3.5 3-1-43c-1.624 0-2.75 2-5 2-12.789 0-22.34-15-35-15-11.114 0-16.395 6.447-25.5 11l-6.5 6c3.504 0 5.551-4.525 8.5-6 6.596-3.298 13.554-5.777 20-9 4.366-2.183 18.174 12 21.5 12 0-4.967 11.274-.113 13.5 1 3.628 1.814 9 16.501 6.5 21.5-1.846 3.691-7.416 1.584-9.5-.5l-1.5-3ZM313 212l1 1 2.5-2c9.028-4.514 1.5-10.861 1.5-17 0-2.064-3.353-.426-4.5-1l-5.5-6c-4.026 0-6.881-6.691-9.5-8-9.743-4.872-16.691-13-28.5-13-3.554 0-23 9.242-23 11l5 2 12.5-8c8.058-4.029 14.279-1.861 22 2 6.49 3.245 23.193 15.887 26.5 22.5.788 1.576 2.256 16.5 0 16.5Z"/><path fill="#54BF94" id="AON" fill-rule="evenodd" d="M181 193c0 1.384-3.189 1.123-2 3.5l8 15c.538 1.076 1.057 9.222 4.5 7.5 5.015-2.507-.5-14.431-.5-17.5 0-1.617 2.287-5.427 2-6-1.946-3.892-8.372-2.5-12-2.5m-4 51c0 1.175 13.872 9 16 9 0-11.017 15.641-30.43 28.5-24l5.5 4 1-11-3.5-3c-8.273-4.137-10.5-9.755-10.5-20 0-7.387-9-11.351-9-19-3.326 0-17.134-14.183-21.5-12-6.446 3.223-13.404 5.702-20 9-2.949 1.475-4.996 6-8.5 6 0 1.747-.253 2-2 2l-10 11.5c-2.383 4.767 0 10.811 0 15.5 10.594 0 21.685 12.869 26 21.5 1.873 3.746 7 4.933 7 9.5l1 1ZM265 193l-2 3.5 2 1c2.007 4.013-5.069 19.216-.5 21.5 1.769.885 3.821-2.142 4.5-3.5.934-1.868 8.187-20.626 8-21-1.319-2.638-9.297-1.5-12-1.5m15 51c-3.548 0-10.768 9-16 9 0-10.694-9.652-19.576-18.5-24-5.297-2.649-12.578 3-15.5 3-1.773 0-1-9.259-1-11l2.5-2c8.453-4.226 10.5-9.089 10.5-19 0-7.935 10-13.065 10-21l12.5-8c8.058-4.029 14.279-1.861 22 2 6.49 3.245 23.193 15.887 26.5 22.5.788 1.576 2.256 16.5 0 16.5-2.774 0-5.217-.141-7.5 1-4.221 2.111-25.5 28.105-25.5 30v1Z"/><path fill="#219764" id="AIv2/3" d="M132 184c0 2.862 8.214 4.143 10.5 3 1.978-.989 2.023-3 4.5-3v-1c-3.472 0-1-5.853-1-7h-7l-7 8ZM310 184c1.304 0 14 7.666 14 0l-7-8h-6c0 1.406.714 7-1 7v1Z"/><path fill="#61D09F" id="TTd" d="M205 180c0 7.649 9 11.613 9 19l1.5 3c2.084 2.084 7.654 4.191 9.5.5 2.5-4.999-2.872-19.686-6.5-21.5-2.226-1.113-13.5-5.967-13.5-1Z"/><path fill="#99D2BD" id="OLF" d="m247 177-2 1 2-1Z"/><path fill="#61D09F" id="TTd" d="m238 181-4 4.5-2 7c-2.073 4.145.049 14.725 6.5 11.5l3.5-4c0-7.935 10-13.065 10-21l-5-2-2 1-2 1h-1l-4 2Z"/><path fill="#99D2BD" id="OLF" d="m245 178-2 1 2-1ZM242 200c0 9.911-2.047 14.774-10.5 19l-2.5 2v-42c1.714 0 3.482 2 6 2h3l-4 4.5-2 7c-2.073 4.145.049 14.725 6.5 11.5l3.5-4ZM242 179c-1.465 0-4-.109-4 2l4-2ZM155 183c-1.747 0-2 .253-2 2 1.747 0 2-.253 2-2Z"/><path fill="#209864" id="AIv1" d="M127 188c0 5.839 7.978 6 11 6 2.306 0 11-4.404 11-7-1.577 0-2-1.762-2-3-2.477 0-2.522 2.011-4.5 3-2.286 1.143-10.5-.138-10.5-3h-1l-4 4ZM330 187c0 6.494-8.579 7-12 7 0-2.064-3.353-.426-4.5-1l-5.5-6 2-3c1.304 0 14 7.666 14 0h1c0 1.077 3.762 3 5 3Z"/><path fill="#99D2BD" id="OLF" d="m143 212-1 1-3.5-3c-7.52-3.76-.5-10.586-.5-16 2.306 0 11-4.404 11-7l4-2-10 11.5c-2.383 4.767 0 10.811 0 15.5Z"/><path fill="#CBCBC7" id="aco" d="M181 193c0 1.384-3.189 1.123-2 3.5l8 15c.538 1.076 1.057 9.222 4.5 7.5 5.015-2.507-.5-14.431-.5-17.5 0-1.617 2.287-5.427 2-6-1.946-3.892-8.372-2.5-12-2.5ZM265 193l-2 3.5 2 1c2.007 4.013-5.069 19.216-.5 21.5 1.769.885 3.821-2.142 4.5-3.5.934-1.868 8.187-20.626 8-21-1.319-2.638-9.297-1.5-12-1.5Z"/><path fill="#CAC8C7" id="lot" d="M175 243h1c0-4.567-5.127-5.754-7-9.5-4.315-8.631-15.406-21.5-26-21.5l-1 1c0 5.317 5.12 5.62 8 8.5 5.573 5.573 18.315 21.5 25 21.5ZM280 243h1c9.832 0 16.339-16.42 23.5-20l9.5-6.5V213l-1-1c-2.774 0-5.217-.141-7.5 1-4.221 2.111-25.5 28.105-25.5 30Z"/><path fill="#62CF9E" id="TTv" d="m227 233-5.5-4c-12.859-6.43-28.5 12.983-28.5 24 0 2.458 13.922 8.289 16.5 7 7.722-3.861 17.5-17.575 17.5-27ZM230 232c2.922 0 10.203-5.649 15.5-3 8.848 4.424 18.5 13.306 18.5 24 0 1.336-14.935 8.283-17.5 7-8.929-4.464-16.5-18.608-16.5-28Z"/><path fill="#99D2BD" id="OLF" d="m176 243 1 1-2-1h1ZM281 243l-1 1v-1h1Z"/></svg>