<svg xmlns="http://www.w3.org/2000/svg" viewBox="0 0 456 320"><path fill="#1E9C59" id="MOs1" d="m225 60-4 2c0-2.676-6.408-7.954-8.5-9-9.724-4.862-21.432-7.284-32-2h-4l-9.5 3v-6c0-1.742 13.483-2.992 15.5-4 10.172-5.086 32.547-.406 37.5 9.5 1.169 2.338 5 3.723 5 6.5ZM235 63h1c0-3.44 3.692-7.596 6.5-9l7-5c4.863-2.431 26.516-.242 31 2 2.547 1.273 5.497 3 8.5 3 0-1.32-.684-6 1-6 0-2.132-10.712-2.106-12.5-3-9.654-4.827-33.84-3.82-38.5 5.5-.908 1.816-7 5.648-7 8.5 0 2.35 3 1.383 3 4Z"/><path fill="#1E9D5A" id="MOp1" d="M107 84h1c0-2.906 12.202-7.851 14.5-9 10.186-5.093 33.608-20 44.5-20v-7c-5.513 0-11.752 4.626-16.5 7-8.377 4.189-24.446 8.446-31 15-1.936 1.936-12.5 5.186-12.5 8v6Z"/><path fill="#1E9D58" id="MOs2/3" d="M215 66c-1.211 0-13.249-11.125-21.5-7-4.758 2.38-23.395 12-27.5 12 0-4.734 1-10.644 1-16v-1l9.5-3h4c10.568-5.284 22.276-2.862 32 2 2.092 1.046 8.5 6.324 8.5 9v1l-6 3ZM242 67c0-5.015 6.521-5.51 9.5-7 13.685-6.842 27.081 11 38.5 11l-1-16v-1c-3.003 0-5.953-1.727-8.5-3-4.484-2.242-26.137-4.431-31-2l-7 5c-2.808 1.404-6.5 5.56-6.5 9 1.247 0 5 2.467 5 4h1Z"/><path fill="#1E9D5A" id="MOp1" d="M349 80v3c-4.258 0-9.738-6.119-13.5-8-9.823-4.912-36.384-20-46.5-20v-1c0-1.32-.684-6 1-6 3.69 0 8.294 3.397 11.5 5 10.142 5.07 27.345 9.345 35.5 17.5 2.092 2.092 12 3.552 12 7.5v2Z"/><path fill="#1F9C58" id="MOp2/3" d="m108 101 1 8c2.46 0 12.664-13.082 14.5-14 7.622-3.81 36.3-23 42.5-23v-1c0-4.734 1-10.644 1-16-10.892 0-34.314 14.907-44.5 20-2.298 1.149-14.5 6.094-14.5 9l-1 1c0 5.356 1 11.266 1 16ZM349 102c-.675 0-2 5.294-2 6l-14.5-13c-8.156-4.078-35.381-23-42.5-23v-1l-1-16c10.116 0 36.677 15.088 46.5 20 3.762 1.881 9.242 8 13.5 8v19Z"/><path fill="#1F9D58" id="MOs5" d="m199 81-7.5-2L165 92c0-7.615 1-11.804 1-20v-1c4.105 0 22.742-9.62 27.5-12 8.251-4.125 20.289 7 21.5 7v1c-5.08 0-13.568 14-16 14Z"/><path fill="#3EA665" id="ACAd1" d="M223 93h11c0-9.97 1-20.677 1-30 0-2.617-3-1.65-3-4-1.612 0-2.983 6-3.5 6-1.189 0-1.227-5-3.5-5l-4 2v1c0 2.128 1.054 5.608 2 7.5V93Z"/><path fill="#1F9D58" id="MOs5" d="M258 82c0-1.132 6.219-3.64 7.5-3L291 92l-1-20v-1c-11.419 0-24.815-17.842-38.5-11-2.979 1.49-9.5 1.985-9.5 7 1.35 0 15 12.682 15 15h1Z"/><path fill="#40A565" id="ACAd2/3" d="m223 93-6 1V71.5l-2-4.5v-1l6-3c0 2.128 1.054 5.608 2 7.5V93ZM234 93l5 1c0-8.49 2-18.607 2-27 0-1.533-3.753-4-5-4h-1c0 9.323-1 20.03-1 30Z"/><path fill="#3EA566" id="ACAd5" d="M217 95c-6.073 0-11.18 7-15 7V88.5c-.579-1.157-3-5.49-3-6.5v-1c2.432 0 10.92-14 16-14l2 4.5V95ZM239 95c6.017 0 12.071 7 15 7l1-16.5 2-3.5c0-2.318-13.65-15-15-15h-1c0 8.393-2 18.51-2 27v1Z"/><path fill="#1E9C5A" id="MOp5" d="M109 110c0 4.746 3 9.633 3 15l5-6.5c.837-1.674 9.403-8.451 11.5-9.5 8.728-4.364 27.058-16 36.5-16v-1c0-7.615 1-11.804 1-20-6.2 0-34.878 19.19-42.5 23-1.836.918-12.04 14-14.5 14v1ZM347 109c0 6.637-3 9.856-3 16l-3-4.5-8.5-7.5c-8.657-4.329-32.987-21-41.5-21l-1-20c7.119 0 34.344 18.922 42.5 23l14.5 13v1Z"/><path fill="#197E64" id="SSp-ul1" d="m106 79 1 1v-2l-1 1ZM351 79l-2 1v-2l2 1Z"/><path fill="#187E61" id="SSp-m1" d="m71 166-4 1c0-1.999-2.829-9.842-2-11.5 1.461-2.922-.406-7.188 1-10 4.931-9.863 5-21.999 10-32 3.146-6.291 5.538-17.02 12.5-20.5 5.225-2.612 9.91-14 17.5-14l1 1v5c-4.888 0-14.906 11.312-17 15.5-2.386 4.773-6.641 8.282-9 13-8.339 16.678-10 33.337-10 52.5Z"/><path fill="#1D9C5A" id="MOs6a" d="M177 109c-4.887 0-8.1 4-12 4V92l26.5-13 7.5 2v1c-2.529 0-13 21.775-13 25-1.759 0-9 .326-9 2ZM271 107c7.363 0 15.178 5 20 5V92l-25.5-13c-1.281-.64-7.5 1.868-7.5 3 0 3.982 12 16.57 12 25h1Z"/><path fill="#187E61" id="SSp-m1" d="m385 166 5 1c0-4.483 3.354-13.792 1-18.5-1.637-3.274-.431-7.861-2-11-3.884-7.768-4.134-17.268-8-25-2.803-5.605-7.15-10.299-10-16-1.958-3.916-16.053-17.5-20-17.5l-2 1v4c2.485 0 17.613 15.726 19 18.5l7 10c9.45 18.899 10 32.032 10 53.5Z"/><path fill="#3FA664" id="ACAd6a" d="M192 111h1c0-1.592 7.674-8 9-8V88.5c-.579-1.157-3-5.49-3-6.5-2.529 0-13 21.775-13 25 1.984 0 6 1.444 6 4ZM264 111h1c0-1.747.253-2 2-2 0-1.577 1.762-2 3-2 0-8.43-12-21.018-12-25h-1l-2 3.5-1 16.5 10 9Z"/><path fill="#1A7E64" id="SSp-m2/3" d="m108 84-1 1v-1h1ZM375 164l10 2c0-21.468-.55-34.601-10-53.5l-7-10c-1.387-2.774-16.515-18.5-19-18.5v18c7.268 0 11.625 10.75 14 15.5 8.382 16.765 12 27.244 12 46.5ZM81 164l-10 2c0-19.163 1.661-35.822 10-52.5 2.359-4.718 6.614-8.227 9-13 2.094-4.188 12.112-15.5 17-15.5 0 5.356 1 11.266 1 16-7.329 0-12.246 11.992-15 17.5-7.491 14.982-12 27.176-12 45.5Z"/><path fill="#1F9B5A" id="MOp6a" d="M335 167c2.885 0 4.697 2 8 2 0-1.917.484-12 2-12 0-4.195-3-11.502-3-15.5 0-5.169 2-10.313 2-15.5v-1l-3-4.5-8.5-7.5c-8.657-4.329-32.987-21-41.5-21v21c5.237 0 10.917 7.708 15.5 10 18.842 9.421 27.5 22.798 27.5 43l1 1ZM122 167l-8 2c-1.779 0-.175-12-2-12 0-8.799 4.05-18.399 1-24.5-.662-1.324 1.207-6.5-1-6.5v-1l5-6.5c.837-1.674 9.403-8.451 11.5-9.5 8.728-4.364 27.058-16 36.5-16v20l-2 2c-1.664 0-6 1.823-6 4-5.626 0-7.858 5.679-12.5 8-15.86 7.93-22.5 22.127-22.5 40Z"/><path fill="#3FA566" id="ACAv2/3" d="M219 140h3c0-15.317 1-31.544 1-47l-6 1v1c0 15.543 2 30.308 2 45Z"/><path fill="#40A664" id="ACAv1" d="M234 140v1c-3.33 0-1.858-11-5-11 0-6.54-2-4.123-2 1-1.259 0-4 8.632-4 10l-1-1c0-15.317 1-31.544 1-47h11v47Z"/><path fill="#3FA566" id="ACAv2/3" d="M234 140h4c0-14.776 1-29.744 1-45v-1l-5-1v47Z"/><path fill="#3EA666" id="ACAv5" d="M212 138c0 2.273 5.226 2 7 2 0-14.692-2-29.457-2-45-6.073 0-11.18 7-15 7v1c0 8.509 1.42 19.34 5 26.5 1.169 2.338 5 5.905 5 8.5ZM244 139c-1.564 0-3.876 1-6 1 0-14.776 1-29.744 1-45 6.017 0 12.071 7 15 7 0 7.529.13 16.24-3 22.5-1.246 2.491-6 10.067-6 12.5v1l-1 1Z"/><path fill="#1B7F62" id="SSp-m4" d="m87 163-6 1c0-18.324 4.509-30.518 12-45.5 2.754-5.508 7.671-17.5 15-17.5l1 8v1c-2.74 0-6.842 8.184-8 10.5-6.587 13.174-14 26.754-14 42.5Z"/><path fill="#40A564" id="ACAv6a" d="M253 131c-3.05 0-4.483 6-8 6 0-2.433 4.754-10.009 6-12.5 3.13-6.26 3-14.971 3-22.5l10 9v1l-2.5 4c-2.092 2.092-8.5 11.058-8.5 14v1Z"/><path fill="#1B7F62" id="SSp-m4" d="M369 163c2.124 0 4.436 1 6 1 0-19.256-3.618-29.735-12-46.5-2.375-4.75-6.732-15.5-14-15.5-.675 0-2 5.294-2 6v1c1.987 0 7.093 8.686 8 10.5 6.872 13.743 14 26.969 14 43.5Z"/><path fill="#40A564" id="ACAv6a" d="M203 131c3.218 0 5.402 7 9 7 0-2.595-3.831-6.162-5-8.5-3.58-7.16-5-17.991-5-26.5-1.326 0-9 6.408-9 8 0 7.271 10 12.819 10 19v1Z"/><path fill="#1E9C58" id="MOs6b" d="m186 108-9 1c0-1.674 7.241-2 9-2v1Z"/><path fill="#3FA466" id="ACAd6b" d="m192 111-1 1c0-2.095-3.133-4-5-4v-1c1.984 0 6 1.444 6 4ZM271 108l-4 1c0-1.577 1.762-2 3-2h1v1Z"/><path fill="#1E9C58" id="MOs6b" d="M291 113v1c-4.257 0-12.967-6-20-6v-1c7.363 0 15.178 5 20 5v1Z"/><path fill="#CACCC7" id="cing" d="M203 130v1c-8.252 0-8.385-13.943-14.5-17-9.649-4.825-11.672 2-19.5 2l-1 1h-2l-3-1v-1l2-1c1.378 0 12-4.59 12-5l9-1c1.867 0 5 1.905 5 4 0 1.522 11.067 18 12 18ZM253 130v1c8.783 0 9.338-14.419 16.5-18 6.834-3.417 11.488 3 17.5 3l2 1h1c1.048 0 3 .473 3-1l-2-2c-4.257 0-12.967-6-20-6l-4 1-2 2v1c0 1.946-9.934 18-12 18Z"/><path fill="#1E9C58" id="MOs6b" d="M165 113v1c1.378 0 12-4.59 12-5-4.887 0-8.1 4-12 4Z"/><path fill="#3FA466" id="ACAd6b" d="M267 109c-1.747 0-2 .253-2 2l2-2Z"/><path fill="#1B7E63" id="SSp-m5" d="M353 159c5.093 0 11.148 4 16 4 0-16.531-7.128-29.757-14-43.5-.907-1.814-6.013-10.5-8-10.5 0 6.637-3 9.856-3 16v1c1.615 0 3.36 5.22 4 6.5 4.206 8.412 5 16.222 5 26.5ZM103 159c-4.67 0-10.754 4-16 4 0-15.746 7.413-29.326 14-42.5 1.158-2.316 5.26-10.5 8-10.5 0 4.746 3 9.633 3 15v1l-7 13.5c-2.51 5.021-2 13.522-2 19.5Z"/><path fill="#40A465" id="ACAv6b" d="M191 112c0 1.522 11.067 18 12 18 0-6.181-10-11.729-10-19h-1l-1 1Z"/><path fill="#3FA466" id="ACAd6b" d="M264 112h1v-1h-1v1Z"/><path fill="#CCC7C9" id="ccg" d="M223 141c0 4.499 2 7.354 2 12-26.942 0-23.2-17.85-39.5-26-1.936-.968-18.327-5.836-20-5-3.38 1.69-8.529 3-12.5 3l13-8h2l1-1c7.828 0 9.851-6.825 19.5-2 6.115 3.057 6.248 17 14.5 17 3.218 0 5.402 7 9 7 0 2.273 5.226 2 7 2h3l1 1Z"/><path fill="#40A465" id="ACAv6b" d="M265 112c0 1.946-9.934 18-12 18 0-2.942 6.408-11.908 8.5-14l2.5-4h1Z"/><path fill="#CCC7C9" id="ccg" d="M234 141c0 3.956-2 7.497-2 12 9.145 0 21.261-3.023 26-12.5 1.229-2.457 4.419-6.46 6.5-7.5l3-4c6.508-3.254 15.327-7 23-7l14.5 4c0-1.367-15-8.306-15-9h-1l-2-1c-6.012 0-10.666-6.417-17.5-3-7.162 3.581-7.717 18-16.5 18-3.05 0-4.483 6-8 6v1l-1 1c-1.564 0-3.876 1-6 1h-4v1Z"/><path fill="#1D9D5A" id="MOp6b" d="m165 114-2 1 2-2v1ZM332 166h2c0-20.202-8.658-33.579-27.5-43-4.583-2.292-10.263-10-15.5-10v1l2 2c4.843 0 9.297 6.898 13.5 9 15.845 7.922 25.5 20.758 25.5 39v2ZM163 116l-6 3c0-2.177 4.336-4 6-4v1Z"/><path fill="#C9C9CA" id="scwm" d="m150 127-5 2c0-4.899 12-5.863 12-10l6-3 3 1-13 8-2 1-1 1ZM169 116l-1 1 1-1ZM287 116l2 1-2-1ZM307 127c5.15 0 19.758 18.016 22 22.5.738 1.476 2.198 14.5 3 14.5 0-18.242-9.655-31.078-25.5-39-4.203-2.102-8.657-9-13.5-9 0 1.473-1.952 1-3 1 0 .694 15 7.633 15 9h1l1 1Z"/><path fill="#1D9D5A" id="MOp6b" d="m124 166-2 1c0-17.873 6.64-32.07 22.5-40 4.642-2.321 6.874-8 12.5-8 0 4.137-12 5.101-12 10-9.491 0-20 20.367-20 29v1c-1.714 0-1 5.594-1 7Z"/><path fill="#CAC7CC" id="fa" d="m127 171-2 1v-14c1.951 0 .477-2.454 1-3.5 1.79-3.58 3.192-7.384 5-11l14-14.5 5-2 1-1 2-1c3.971 0 9.12-1.31 12.5-3 1.673-.836 18.064 4.032 20 5 16.3 8.15 12.558 26 39.5 26l-2 4c-.922 0-3-3.276-3-1l-5 1-3 2-1 1-5 1-1-1c0-5.046-5.29-16-11-16 0-8.114-26.359-17.571-33.5-14l-11 3c-16.171 8.085-22.5 19.898-22.5 38ZM329 171l2 1c1.684 0 1-4.679 1-6v-2c-.802 0-2.262-13.024-3-14.5-2.242-4.484-16.85-22.5-22-22.5l-1-1h-1l-14.5-4c-7.673 0-16.492 3.746-23 7l-3 4c-2.081 1.04-5.271 5.043-6.5 7.5-4.739 9.477-16.855 12.5-26 12.5l2 4 1-1c0-1.399 2-1.399 2 0l4 1 4 3 6 1 1-2c0-4.452 4.304-15 10-15l4.5-6c3.179-3.179 8.141-5.071 12-7 2.739-1.369 15.241-1.38 18 0 3.098 1.549 7.824.412 11 2 16.226 8.113 21.5 19.908 21.5 38Z"/><path fill="#CCC7C9" id="ccg" d="m153 125-2 1 2-1Z"/><path fill="#187D61" id="SSp-m6a" d="m112 157-9 2c0-5.978-.51-14.479 2-19.5l7-13.5c2.207 0 .338 5.176 1 6.5 3.05 6.101-1 15.701-1 24.5Z"/><path fill="#CCC7C9" id="ccg" d="m151 126-1 1 1-1ZM306 126l1 1-1-1Z"/><path fill="#187D61" id="SSp-m6a" d="M345 157c2.885 0 4.697 2 8 2 0-10.278-.794-18.088-5-26.5-.64-1.28-2.385-6.5-4-6.5 0 5.187-2 10.331-2 15.5 0 3.998 3 11.305 3 15.5Z"/><path fill="#C9C9CA" id="scwm" d="M145 129c-9.491 0-20 20.367-20 29 1.951 0 .477-2.454 1-3.5 1.79-3.58 3.192-7.384 5-11l14-14.5Z"/><path fill="#98D5F9" id="CP" d="M140 223c2.031 0 4.583 8 9 8h6.5c2.208-1.104 14.01-20.521 15.5-23.5 3.082-6.163 13.398-7.949 18.5-10.5l4.5-4 1-2c0-13.01 2-25.319 2-39l-3-8c0-8.114-26.359-17.571-33.5-14l-11 3c-16.171 8.085-22.5 19.898-22.5 38 0 6.628 8 21.258 8 32 0 4.499 2 7.354 2 12v1l1 2 2 5Z"/><path fill="#7ED04B" id="IG" d="m229 168 1 1c5.915 0 .967-5 4-5v-7l-2-4c0-4.503 2-8.044 2-12-3.33 0-1.858-11-5-11 0 2.456-2 3.913-2 1-1.259 0-4 8.632-4 10 0 4.499 2 7.354 2 12l-2 4v8c0 3.65 1.823 4 4 4 0-4.201 2-6.44 2-1Z"/><path fill="#98D5F9" id="CP" d="M316 224c-1.949 0-4.646 7-8 7-11.17 0-10.981-5.462-15-13.5l-6-8c-3.016-6.032-12.06-8.78-17.5-11.5l-7.5-5-1-2c0-13.732-2-25.831-2-40 1.429 0 3-5.655 3-7l4.5-6c3.179-3.179 8.141-5.071 12-7 2.739-1.369 15.241-1.38 18 0 3.098 1.549 7.824.412 11 2 16.226 8.113 21.5 19.908 21.5 38 0 7.855-7 19.979-7 32 0 1.564-1 3.876-1 6-1.931 0-2 6.225-2 8l-1 2-1 3-1 1v1Z"/><path fill="#40A564" id="ACAv6a" d="m245 138-1 1 1-1Z"/><path fill="#AAA8A9" id="SEZ" d="m201 177-2 1c0-6.066 8.223-26-2-26l-3-8c5.71 0 11 10.954 11 16v1l-1 2c0 4.876-3 9.077-3 14ZM258 190h1c0-10.662-4-18.51-4-29 0-3.586-1.155-10 4-10 1.429 0 3-5.655 3-7-5.696 0-10 10.548-10 15v3c0 5.403 5 11.096 5 16l1 8v4Z"/><path fill="#A8AAAA" id="VL" d="m197 190-2 1c0-13.01 2-25.319 2-39 10.223 0 2 19.934 2 26v1c-1.735 0-1 6.51-1 8v2l-1 1ZM259 190l2 1c0-13.732-2-25.831-2-40-5.155 0-4 6.414-4 10 0 10.49 4 18.338 4 29Z"/><path fill="#99D2BD" id="OLF" d="M223 157v7c-2.747 0 1.095-8-3-8 0-2.276 2.078 1 3 1ZM235 156h2c0-1.399-2-1.399-2 0Z"/><path fill="#8FCAED" id="SH" d="M223 164v1l-2.5 4c-4.196 2.098-5.5-9.539-5.5-12l5-1c4.095 0 .253 8 3 8Z"/><path fill="#99D2BD" id="OLF" d="m235 156-1 1 1-1Z"/><path fill="#8FCAED" id="SH" d="M241 157c0 7.732-7 20.338-7 7v-7l1-1h2l4 1Z"/><path fill="#009B74" id="GU6a" d="m114 169-10 5c0-5.172-1-10.365-1-15l9-2c1.825 0 .221 12 2 12Z"/><path fill="#99D2BD" id="OLF" d="M227 169v3c0 8.406-16-5.314-16-12l1-1 3-2c0 2.461 1.304 14.098 5.5 12l2.5-4c0 3.65 1.823 4 4 4ZM229 170v2c0 9.351 16-5.689 16-12l-4-3c0 7.732-7 20.338-7 7-3.033 0 1.915 5-4 5l-1 1Z"/><path fill="#009B74" id="GU6a" d="M343 169c0 2.467 6.903 4 9 4 0-4.121 1-9.275 1-14-3.303 0-5.115-2-8-2-1.516 0-2 10.083-2 12Z"/><path fill="#019C75" id="GU5" d="M104 174c-5.27 0-10.89 6-17 6v-17c5.246 0 11.33-4 16-4 0 4.635 1 9.828 1 15Z"/><path fill="#C9C9CA" id="scwm" d="M124 166c0 1.145-.579 4 1 4v-11c-1.714 0-1 5.594-1 7Z"/><path fill="#97D6F9" id="STR" d="m212 159-1 1 1-1Z"/><path fill="#99D2BD" id="OLF" d="m251 161 1 1v-3l-1 2Z"/><path fill="#019C75" id="GU5" d="M352 174c5.474 0 12.249 7 18 7 0-6.216-1-12.292-1-18-4.852 0-10.907-4-16-4 0 4.725-1 9.879-1 14v1Z"/><path fill="#99D2BD" id="OLF" d="M205 161h1l-1-1v1Z"/><path fill="#97D6F9" id="STR" d="M237 256c1.918 0 .621 7 4 7v-18c0-1.321-.684-6 1-6v-19l-4.5 1c-9.24-4.62-4.431-42.784 4-47 3.682-1.841 11.548 4 15.5 4 0-4.904-5-10.597-5-16l-1-1-6-1c0 6.311-16 21.351-16 12h-2c0 8.406-16-5.314-16-12l-5 1h-1l-1 2c0 4.876-3 9.077-3 14 3.597 0 10.773-4.363 13.5-3 9.589 4.795 9.5 30.636 9.5 41 1.918 0 .621-7 4-7l1 1c2.236 0 4 9.096 4 11 0 12.319 4 23.596 4 36Z"/><path fill="#99D2BD" id="OLF" d="m205 161-1 2 1-2Z"/><path fill="#009C74" id="GU4" d="M84 181h3v-18l-6 1 3 17ZM370 181h2c0-5.635 3-10.668 3-17-1.564 0-3.876-1-6-1 0 5.708 1 11.784 1 18Z"/><path fill="#009B75" id="GU2/3" d="M84 181c0 1.289-7.597 4-9 4 0-6.146-4-12.382-4-19l10-2 3 17ZM381 185h1c0-6.732 3-12.06 3-19l-10-2c0 6.332-3 11.365-3 17 2.759 0 5.795 4 9 4Z"/><path fill="#009C75" id="GU1" d="m75 185-4 2c0-6.666-4-12.906-4-20l4-1c0 6.618 4 12.854 4 19Z"/><path fill="#1F9766" id="AId6b" d="M126 181h1c0-3.489-2-5.32-2-9v-2c-1.579 0-1-2.855-1-4l-2 1c0 4.608 3 9.001 3 13l1 1ZM329 181h2l1-1 3-13-1-1h-2c0 1.321.684 6-1 6 0 3.638-2 5.929-2 9Z"/><path fill="#009C75" id="GU1" d="m382 185 3 2c0-6.205 5-13.479 5-20l-5-1c0 6.94-3 12.268-3 19Z"/><path fill="#209666" id="AId6a" d="m117 194-5 1c-5.589 0-8-16.461-8-21l10-5 8-2c0 4.608 3 9.001 3 13-13.746 0-8 4.429-8 14ZM344 196h1c0-3.501 4.509-6.519 6-9.5 1.67-3.339 1-8.503 1-12.5v-1c-2.097 0-9-1.533-9-4-3.303 0-5.115-2-8-2l-3 13c14.848 0 7 5.392 7 14 1.041 0 5 .986 5 2Z"/><path fill="#97D6F9" id="STR" d="m230 169-1 1v-2l1 1Z"/><path fill="#C8CBCC" id="ec" d="M134 203h1c0-10.742-8-25.372-8-32l-2 1c0 3.68 2 5.511 2 9 1.353 0 2 4.643 2 6 2.017 0 5 13.771 5 16ZM322 203h1c0-2.494 1.453-15 4-15l2-7c0-3.071 2-5.362 2-9l-2-1c0 7.855-7 19.979-7 32Z"/><path fill="#209665" id="AId5" d="M93 201h1l4-2 14-3v-1c-5.589 0-8-16.461-8-21-5.27 0-10.89 6-17 6v1c0 7.886 6 18.704 6 20Z"/><path fill="#90CAED" id="LSr" d="M214 218v1c1.317 0 1.788 3.356 4.5 2l4.5-4 1-2c0-10.364.089-36.205-9.5-41-2.727-1.363-9.903 3-13.5 3l-2 1v8c2.03 0 9.315 8 2 8l4 6v1l1 1 2 4 1 1 1 3 1 1v1l1 1v1l1 1v2l1 1ZM243 218l-1 2-4.5 1c-9.24-4.62-4.431-42.784 4-47 3.682-1.841 11.548 4 15.5 4l1 8c-3.836 0-8.366 9-4 9v2l-1 1-1 1v1l-1 1v1l-1 1-1 1v1l-1 1-1 3-1 1-1 3-1 1-1 4Z"/><path fill="#209665" id="AId5" d="M363 201h1c0-1.431 6-14.136 6-20-5.751 0-12.526-7-18-7 0 3.997.67 9.161-1 12.5-1.491 2.981-6 5.999-6 9.5 1.845 0 12.879 2.19 14.5 3l3.5 2Z"/><path fill="#8ADA86" id="CLA" d="M129 187c0 5.077 3.526 8.448 1 13.5-3.821 7.641-13-1.648-13-6.5 0-9.571-5.746-14 8-14l1 1 3 6Z"/><path fill="#AAA8A9" id="SEZ" d="m199 186-1 1c0-1.49-.735-8 1-8v7Z"/><path fill="#8ADA86" id="CLA" d="m327 188-2 10.5c4.565 9.13 14 2.88 14-4.5 0-8.608 7.848-14-7-14l-1 1-4 7Z"/><path fill="#209765" id="AId2/3" d="M81 204h1c3.285 0 7.387-3 11-3 0-1.296-6-12.114-6-20h-3c0 1.289-7.597 4-9 4 0 6.835 6 12.501 6 19Z"/><path fill="#209666" id="AId6a" d="M127 181c1.353 0 2 4.643 2 6l-3-6h1ZM331 181l-4 7 2-7h2Z"/><path fill="#209765" id="AId2/3" d="m364 201 11 3c0-6.098 6-12.111 6-19-3.205 0-6.241-4-9-4h-2c0 5.864-6 18.569-6 20Z"/><path fill="#209764" id="AId1" d="M81 204c0 1.473-1.952 1-3 1-1.251 0-7-15.531-7-18l4-2c0 6.835 6 12.501 6 19ZM375 204l4 1c0-6.065 6-11.276 6-18l-3-2h-1c0 6.889-6 12.902-6 19Z"/><path fill="#8FCBED" id="LSv" d="m198 190 3 4c7.315 0 .03-8-2-8l-1 1v3ZM255 194h1l1-1 1-3v-4c-3.836 0-8.366 9-4 9l1-1Z"/><path fill="#1F9866" id="AIv6a" d="M119 209h2l1-1c.9 0 6.671-4 11-4l1-1c0-2.229-2.983-16-5-16 0 5.077 3.526 8.448 1 13.5-3.821 7.641-13-1.648-13-6.5l-5 1v1l7 13ZM335 209h3l6-13c0-1.014-3.959-2-5-2 0 7.38-9.435 13.63-14 4.5l2-10.5c-2.547 0-4 12.506-4 15l1 1c2.64 0 11 1.256 11 5Z"/><path fill="#AAA8A9" id="SEZ" d="M197 190h1v-1l-1 1Z"/><path fill="#97D6F9" id="STR" d="m201 194 4 6c-1.865 0-4.48-7-11-7l1-2 2-1h1l3 4ZM257 193h5l-1-2-2-1h-1l-1 3Z"/><path fill="#80CDF8" id="ACB" fill-rule="evenodd" d="m177 210-6 5.5c-.594 1.187-.358 2.716-1 4-1.582 3.164 6.025 5.738 8.5 4.5 6.081-3.041 5.694-14-1.5-14m37 27c0 23.395-36.417 33.041-54.5 24-2.556-1.278-6.979-3.457-8.5-6.5-.736-1.471.357-7.5-2-7.5v-16h6.5c2.208-1.104 14.01-20.521 15.5-23.5 3.082-6.163 13.398-7.949 18.5-10.5l4.5-4c6.52 0 9.135 7 11 7v1l1 1 2 4 1 1 1 3 1 1v1l1 1v1l1 1v2l1 1v19Z"/><path fill="#97D6F9" id="STR" d="m257 193-1 1 1-1Z"/><path fill="#80CDF8" id="ACB" fill-rule="evenodd" d="M277 210c0 1.349-3 3.085-3 6 0 10.212 16.641 12.783 9-2.5-1.267-2.534-2.892-3.5-6-3.5m-35 29c1.149 0 1.508 4.516 2 5.5l5 7c4.203 8.406 13.946 9.223 20.5 12.5 7.628 3.814 27.254-3.127 33-6 2.4-1.2 3.395-10 4.5-10 0-5.564 1-12.07 1-17-11.17 0-10.981-5.462-15-13.5l-6-8c-3.016-6.032-12.06-8.78-17.5-11.5l-7.5-5h-5l-1 1-1 1-1 2-1 1-1 1v1l-1 1v1l-1 1-1 1v1l-1 1-1 3-1 1-1 3-1 1-1 4-1 2v19Z"/><path fill="#90CAED" id="LSr" d="M254 195h1v-1l-1 1Z"/><path fill="#97D6F9" id="STR" d="m256 194-1 1v-1h1ZM255 195l-1 2v-2h1Z"/><path fill="#1F9865" id="AIv5" d="m110 212-5 1c0-5.617-11-7.995-11-12l4-2 14-3 7 13c-1.439 0-9 2.037-9 3ZM347 212l4 1c0-5.251 12-8.64 12-12l-3.5-2c-1.621-.81-12.655-3-14.5-3h-1l-6 13c.987 0 9 2.58 9 3Z"/><path fill="#97D6F9" id="STR" d="m254 197-1 1 1-1ZM253 198l-1 1 1-1ZM252 200l-1 1 1-1Z"/><path fill="#219764" id="AIv2/3" d="m105 213-16 3c0-4.764-7-6.962-7-12 3.285 0 7.387-3 11-3h1c0 4.005 11 6.383 11 12Z"/><path fill="#97D6F9" id="STR" d="m205 201 1 1-1-1Z"/><path fill="#219764" id="AIv2/3" d="m351 213 16 3 8-12-11-3h-1c0 3.36-12 6.749-12 12Z"/><path fill="#97D6F9" id="STR" d="m251 202-1 1 1-1Z"/><path fill="#8AD987" id="CTXsp" d="M133 204c0 1.087 3.008 11 4 11 0-4.646-2-7.501-2-12h-1l-1 1Z"/><path fill="#97D6F9" id="STR" d="m250 203-1 1 1-1Z"/><path fill="#8AD987" id="CTXsp" d="m324 204-3 5c0-2.124 1-4.436 1-6h1l1 1Z"/><path fill="#209864" id="AIv1" d="M89 216c0 1.643-3.766 1-5 1l-6-12c1.048 0 3 .473 3-1h1c0 5.038 7 7.236 7 12Z"/><path fill="#A0EE9C" id="EPd" d="M140 223c0 9.096-10.794 1-14 1l-2-1-2-2-1-1-2-2.5c-1.619-3.237 2-6.105 2-8.5l1-1c.9 0 6.671-4 11-4 0 1.087 3.008 11 4 11v1l1 2 2 5ZM328 226l-2 1c-2.554 0-10 1.11-10-3v-1l1-1 1-3 1-2c1.931 0 2-6.225 2-8l3-5c2.64 0 11 1.256 11 5 0 1.477 2 5.699 2 9v1l-1 1-1 1-1 1-2 1-1 1-1 1h-1l-1 1Z"/><path fill="#209864" id="AIv1" d="M367 216c1.564 0 3.876 1 6 1l6-12-4-1-8 12Z"/><path fill="#97D6F9" id="STR" d="m249 205-1 1 1-1ZM208 206l1 1-1-1Z"/><path fill="#99D2BD" id="OLF" d="m122 208-1 1 1-1Z"/><path fill="#96A6D3" id="NDB" d="m224 257 3.5-4 4.5 4c.893 0 5 1.802 5-1 0-12.404-4-23.681-4-36 0-1.904-1.764-11-4-11l-1-1c-3.379 0-2.082 7-4 7l-1 2c0 14.301-4 26.313-4 40l4 1 1-1Z"/><path fill="#96A7D3" id="MS" d="m228 208 1 1-1-1Z"/><path fill="#99D2BD" id="OLF" d="M110 212c7.524 0 7.93 8 11 8l-2-2.5c-1.619-3.237 2-6.105 2-8.5h-2c-1.439 0-9 2.037-9 3Z"/><path fill="#97D6F9" id="STR" d="m247 209-1 1 1-1Z"/><path fill="#8AD987" id="CTXsp" d="M321 209c-1.931 0-2 6.225-2 8 1.931 0 2-6.225 2-8Z"/><path fill="#99D2BD" id="OLF" d="M347 212c-6.734 0-8.404 6-10 6 0-3.301-2-7.523-2-9h3c.987 0 9 2.58 9 3Z"/><path fill="#CBCBC7" id="aco" d="m177 210-6 5.5c-.594 1.187-.358 2.716-1 4-1.582 3.164 6.025 5.738 8.5 4.5 6.081-3.041 5.694-14-1.5-14Z"/><path fill="#97D6F9" id="STR" d="m210 210 1 1-1-1Z"/><path fill="#CBCBC7" id="aco" d="M277 210c0 1.349-3 3.085-3 6 0 10.212 16.641 12.783 9-2.5-1.267-2.534-2.892-3.5-6-3.5Z"/><path fill="#6ACAB9" id="PIR" d="M128 258h2l9-4c0-5.492 9.977-5.546 4-17.5-2.173-4.346-17-10.983-17-12.5l-2-1-2-2-1-1c-3.07 0-3.476-8-11-8l-5 1-16 3c0 1.643-3.766 1-5 1 0 5.956 16.098 29 22 29 0-2.628 7.395 2.448 8.5 3 2.749 1.374 13.5 4.226 13.5 9Z"/><path fill="#97D6F9" id="STR" d="m211 212 1 1-1-1Z"/><path fill="#6ACAB9" id="PIR" d="M327 258h1l1-1c0-4.336 19.395-11 22-11l9-7.5c3.926-3.926 13-16.146 13-21.5-2.124 0-4.436-1-6-1l-16-3-4-1c-6.734 0-8.404 6-10 6v1l-1 1-1 1-1 1-2 1-1 1-1 1h-1l-1 1-2 1-4 2.5c-3.755 3.755-7.478 4.956-10 10-3.031 6.063 5 11.395 5 14.5h1l1 1 8 3Z"/><path fill="#97D6F9" id="STR" d="m245 213-1 1 1-1ZM212 214l1 1-1-1ZM224 215l-1 2 1-2Z"/><path fill="#8AD987" id="CTXsp" d="m137 216 1 2-1-2Z"/><path fill="#97D6F9" id="STR" d="m213 217 1 1-1-1ZM219 257c0 1.422-2.033 6-4 6v-20c0-1.321.684-6-1-6v-18c1.317 0 1.788 3.356 4.5 2l4.5-4c0 14.301-4 26.313-4 40Z"/><path fill="#8AD987" id="CTXsp" d="m319 217-1 2 1-2Z"/><path fill="#97D6F9" id="STR" d="m243 218-1 2 1-2Z"/><path fill="#99D2BD" id="OLF" d="m337 219-1 1 1-1ZM336 220l-1 1 1-1ZM122 221l2 2-2-2ZM335 221l-1 1 1-1Z"/><path fill="#8AD987" id="CTXsp" d="m317 222-1 1 1-1Z"/><path fill="#99D2BD" id="OLF" d="M139 254h2c2.233 0 8-5.192 8-7v-16c-4.417 0-6.969-8-9-8 0 9.096-10.794 1-14 1 0 1.517 14.827 8.154 17 12.5 5.977 11.954-4 12.008-4 17.5ZM332 223l-1 1 1-1ZM315 254h2c0-3.105-8.031-8.437-5-14.5 2.522-5.044 6.245-6.245 10-10l4-2.5c-2.554 0-10 1.11-10-3-1.949 0-4.646 7-8 7 0 4.93-1 11.436-1 17l8 6ZM331 224l-1 1 1-1ZM329 225l-1 1 1-1ZM328 226l-2 1 2-1Z"/><path fill="#A2B1D7" id="SI" d="M141 254c0 4.508 10.712 9.606 13.5 11 21.016 10.508 34.473 5.764 54-4 2.856-1.428 4.553 2 6.5 2v-20c0-1.321.684-6-1-6 0 23.395-36.417 33.041-54.5 24-2.556-1.278-6.979-3.457-8.5-6.5-.736-1.471.357-7.5-2-7.5 0 1.808-5.767 7-8 7ZM241 263h1c0-1.963 3.983-2.759 5.5-2 7.504 3.752 15.583 6.292 23 10 9.376 4.688 28.168-4.584 35-8 2.698-1.349 9.5-5.335 9.5-9l-8-6c-1.105 0-2.1 8.8-4.5 10-5.746 2.873-25.372 9.814-33 6-6.554-3.277-16.297-4.094-20.5-12.5l-5-7c-.492-.984-.851-5.5-2-5.5-1.684 0-1 4.679-1 6v18Z"/><path fill="#CAC8C7" id="lot" d="m128 261-1 2c-5.909 0-11.815-9.658-16.5-12-1.631-.815-4.5-3.194-4.5-5 0-2.628 7.395 2.448 8.5 3 2.749 1.374 13.5 4.226 13.5 9v3ZM328 261l2 2c1.133 0 16.483-12.465 17-13.5l4-3.5c-2.605 0-22 6.664-22 11l-1 1v3Z"/><path fill="#7FCCF7" id="OT" d="m213 273-1 1-2.5 5c-4.293 4.293-6.827 7.414-12 10-4.45 2.225-11.635-1.183-16 1-2.112 1.056-4.995-.003-7 1-13.911 6.956-32.956-2.412-39.5-15.5-1.461-2.921-6-6.129-6-9.5l-1-3v-2l2-3 9-4h2c0 4.508 10.712 9.606 13.5 11 21.016 10.508 34.473 5.764 54-4 2.856-1.428 4.553 2 6.5 2 0 4.058-2 6.292-2 10ZM327 267c0 4.487-6.084 7.668-8 11.5-4.019 8.038-24.062 19.219-33.5 14.5-2.863-1.431-7.716-3-11-3-10.067 0-29.5-2.355-29.5-16 0-2.243-3-6.611-3-11 0-1.963 3.983-2.759 5.5-2 7.504 3.752 15.583 6.292 23 10 9.376 4.688 28.168-4.584 35-8 2.698-1.349 9.5-5.335 9.5-9h3l1 1 8 3 1 2v5l-1 2Z"/><path fill="#99D2BD" id="OLF" d="m318 254 1 1-1-1Z"/><path fill="#8599CC" id="PAL" d="M242 263c0 4.389 3 8.757 3 11-3.114 0-13-14.463-13-17 .893 0 5 1.802 5-1 1.918 0 .621 7 4 7h1ZM215 263c0 4.058-2 6.292-2 10 3.708 0 10-12.163 10-15l-4-1c0 1.422-2.033 6-4 6ZM224 257l-1 1 1-1Z"/><path fill="#99D2BD" id="OLF" d="m329 257-1 1 1-1ZM130 258l-2 3v-3h2ZM328 258v2l-1-2h1ZM127 263h1v-2l-1 2ZM330 263l-1 1-1-1v-2l2 2Z"/><path fill="#97D6F9" id="STR" d="m128 263 1 3c-1.577 0-2-1.762-2-3h1ZM329 264l-1 1v-2l1 1ZM328 265l-1 2 1-2Z"/><path fill="#8599CC" id="PAL" d="m213 273-1 1 1-1Z"/></svg>