<svg xmlns="http://www.w3.org/2000/svg" viewBox="0 0 456 320"><path fill="#1E9C59" id="MOs1" d="M116 105c0 2.275 1 3.514 1 6 2.192 0 8.949-11.399 10-13.5 1.935-3.87 20.265-15.383 24.5-17.5 8.318-4.16 39.703-14.649 49-10l10 5 4.5 4 4-2c0-7.49-21.92-18.29-28.5-15-2.653 1.327-6.456-.272-9 1l-21 7-19 9-9 7c-3.301 1.65-16.5 15.775-16.5 19ZM340 105c0 1.235.643 5-1 5-3.455 0-5.947-9.723-8.5-11l-6-6c-7.065-3.532-12.998-9.499-20-13-5.515-2.758-38.164-13.918-44-11l-12 4c-3.095 1.547-4.425 6-7.5 6l-4-2c0-7.478 22.769-18.365 29.5-15 4.692 2.346 11.304.652 16 3 14.689 7.344 31.452 10.452 44 23 3.791 3.79 13.5 11.804 13.5 17Z"/><path fill="#1E9D58" id="MOs2/3" d="m126 151-3 1c0-3.21-3-5.577-3-8.5 0-10.439-3-20.003-3-30.5v-2c2.192 0 8.949-11.399 10-13.5 1.935-3.87 20.265-15.383 24.5-17.5 8.318-4.16 39.703-14.649 49-10l10 5 4.5 4v1l-5 5h-1c0-4.088-7.365-3.932-9.5-5-8.297-4.148-24.868 3.434-32 7-21.996 10.998-31.701 21.902-42.5 43.5-2.561 5.122 1 15.565 1 20.5ZM330 151l3 1c0-2.123 3-3.03 3-4.5 0-1.438-1-3.562-1-5h2c0-11.527 2-16.92 2-30.5v-2c-3.455 0-5.947-9.723-8.5-11l-6-6c-7.065-3.532-12.998-9.499-20-13-5.515-2.758-38.164-13.918-44-11l-12 4c-3.095 1.547-4.425 6-7.5 6v1l5 5h1c0-3.608 7.48-3.99 9.5-5 8.727-4.364 24.621 3.31 32 7 21.784 10.892 31.728 20.956 42.5 42.5 3.369 6.738-1 15.168-1 21.5Z"/><path fill="#3EA665" id="ACAd1" d="M221 93h1l5-2c0-2.495-5.119-14-8-14l-4 2v1c2.918 0 6 10.527 6 13ZM229 91c1.974 0 3.517 2 6 2 0-2.037 3.724-13 6-13v-1l-4-2c-.509 0-8 12.437-8 14Z"/><path fill="#1F9D58" id="MOs5" d="M126 151h1c0-2.225 3.873-2.373 5-3.5l17-12.5v-1c0-15.583 28.823-31 43-31h1c0-1.712 2.571-3 4-3l12-15c0-4.088-7.365-3.932-9.5-5-8.297-4.148-24.868 3.434-32 7-21.996 10.998-31.701 21.902-42.5 43.5-2.561 5.122 1 15.565 1 20.5ZM307 135c5.81 0 17.257 16 23 16 0-6.332 4.369-14.762 1-21.5-10.772-21.544-20.716-31.608-42.5-42.5-7.379-3.69-23.273-11.364-32-7-2.02 1.01-9.5 1.392-9.5 5l12 15c2.364 0 3.053 3 5 3 14.003 0 43 14.891 43 31v1Z"/><path fill="#40A565" id="ACAd2/3" d="m221 93-6 2c0-1.732-3.196-10-5-10l5-5c2.918 0 6 10.527 6 13ZM235 93l6 2 5-10-5-5c-2.276 0-6 10.963-6 13Z"/><path fill="#3EA566" id="ACAd5" d="M215 95c-5.791 0-11.338 5-18 5l12-15h1c1.804 0 5 8.268 5 10ZM241 95c5.822 0 11.417 5 18 5l-12-15h-1l-5 10Z"/><path fill="#2FA750" id="PL1" d="M233 128v1c-3.325 0-7.31-1-10-1l-1-35 5-2c1.2 0 2 3.746 2 0 1.974 0 3.517 2 6 2l-2 35Z"/><path fill="#2FA74F" id="PL2/3" d="M219 128h4l-1-35h-1l-6 2c0 4.932 1.811 14.122 4 18.5V128ZM233 128h4c0-11.915 4-21.821 4-33l-6-2-2 35Z"/><path fill="#2EA84F" id="PL5" d="M202 121c5.306 0 11.282 7 17 7v-14.5c-2.189-4.378-4-13.568-4-18.5-5.791 0-11.338 5-18 5-1.429 0-4 1.288-4 3 0 .979 5.079 3.658 6 5.5 1.704 3.408 3 8.491 3 12.5ZM255 121c-5.74 0-11.751 7-18 7 0-11.915 4-21.821 4-33 5.822 0 11.417 5 18 5 2.364 0 3.053 3 5 3v1c-7.209 0-9 10.332-9 16v1Z"/><path fill="#1D9C5A" id="MOs6a" d="m160 133-5.5-1-5.5 2c0-15.583 28.823-31 43-31l-5 7c-8.994 0-13.194 3.347-20.5 7-1.646.823-4.881 8-1.5 8l-5 8Z"/><path fill="#2FA850" id="PL6a" d="M192 115c3.794 0 6.572 6 10 6 0-4.009-1.296-9.092-3-12.5-.921-1.842-6-4.521-6-5.5h-1l-5 7c1.925 0 5 3.075 5 5Z"/><path fill="#1D9C5A" id="MOs6a" d="M297 133c2.302 0 3.585-1 5.5-1l4.5 2c0-16.109-28.997-31-43-31v1c1.726 0 5 4.558 5 6 7.407 0 12.443 1.971 18.5 5 1.955.978 8.923 10 3.5 10l6 8Z"/><path fill="#2FA850" id="PL6a" d="M264 115c-3.347 0-5.288 5-9 5 0-5.668 1.791-16 9-16 1.726 0 5 4.558 5 6l-5 5Z"/><path fill="#1E9D5A" id="MOp1" d="m115 157-6 3-4-9.5c-4.433-8.865 1.315-27.629 5-35 .902-1.804 3.705-10.5 6-10.5 0 2.275 1 3.514 1 6v2c-2.295 0-3.263 6.025-4 7.5-3.563 7.125-5.903 21.193-2 29l4 7.5ZM342 157l5 3c3.621 0 2.866-11.232 4-13.5 5.207-10.413-.467-22.934-5-32-.97-1.94-2.878-9.5-6-9.5 0 1.235.643 5-1 5v2c2.295 0 3.263 6.025 4 7.5 4.01 8.019 6.415 22.17 2 31l-3 6.5Z"/><path fill="#268E44" id="FRP6a" d="M183 117c-7.267 0-11.515 8-18 8-3.381 0-.146-7.177 1.5-8 7.306-3.653 11.506-7 20.5-7 1.925 0 5 3.075 5 5 0 .716 2.373 3 0 3 0-1.633-9-3.308-9-1ZM273 116l18 9c5.423 0-1.545-9.022-3.5-10-6.057-3.029-11.093-5-18.5-5l-5 5 1 2 8-1Z"/><path fill="#1F9C58" id="MOp2/3" d="M341 157h1l3-6.5c4.415-8.83 2.01-22.981-2-31-.737-1.475-1.705-7.5-4-7.5 0 13.58-2 18.973-2 30.5h-2c0 1.438 1 3.562 1 5 0 1.47-3 2.377-3 4.5l8 5ZM123 152l-8 5-4-7.5c-3.903-7.807-1.563-21.875 2-29 .737-1.475 1.705-7.5 4-7.5 0 10.497 3 20.061 3 30.5 0 2.923 3 5.29 3 8.5Z"/><path fill="#22885E" id="ORBm6a" d="M198 130h1c0-.413 3-5.145 3-9-3.428 0-6.206-6-10-6 0 .716 2.373 3 0 3l6 12ZM255 121c0 1.932-1.396 8 3 8l6-11 1-1-1-2c-3.347 0-5.288 5-9 5v1Z"/><path fill="#238A5C" id="ORBvl6a" d="M198 130c-5.361 0-12.004 1-18 1l3-14c0-2.308 9-.633 9 1l6 12ZM258 130c5.521 0 11.898 1 18 1 0-5.77-3-9.846-3-15l-8 1-1 1-6 11v1Z"/><path fill="#24895D" id="ORBl6a" d="m297 133 4 12c-6.743 0-13.884-13-24-13l-1-1c0-5.77-3-9.846-3-15l18 9 6 8ZM160 133l-5 12c7.608 0 14.037-13 25-13v-1l3-14c-7.267 0-11.515 8-18 8l-5 8Z"/><path fill="#23885E" id="ORBm5" d="M214 161h1l4-6.5c2.492-4.984 0-21.029 0-26.5-5.718 0-11.694-7-17-7 0 3.855-3 8.587-3 9l15 31ZM242 161h1c0-6.574 8.946-18.391 12-24.5l3-6.5v-1c-4.396 0-3-6.068-3-8-5.74 0-11.751 7-18 7 0 5.59-1.216 33 5 33Z"/><path fill="#24885D" id="ORBm2/3" d="M215 161c0 4.101 4 7.386 4 11 4.357 0 2.907-7.314 4-9.5 4.525-9.051 0-24.07 0-34.5h-4c0 5.471 2.492 21.516 0 26.5l-4 6.5Z"/><path fill="#23895D" id="ORBm1" d="M229 179c2.523 0 1.959 2 5 2 0-3.188 3-5.636 3-9l-3-3.5c-1.38-2.76-.614-6.227-2-9l1-30.5c-3.325 0-7.31-1-10-1 0 10.43 4.525 25.449 0 34.5-1.093 2.186.357 9.5-4 9.5v1c0 2.384 3 4.881 3 8 2.25 0 3.376-2 5-2 0-4.013 2-4.556 2 0Z"/><path fill="#24885D" id="ORBm2/3" d="M237 172h1l4-11c-6.216 0-5-27.41-5-33h-4v1l-1 30.5c1.386 2.773.62 6.24 2 9l3 3.5Z"/><path fill="#23885C" id="ORBvl5" d="M182 148c12.563 0 21.435 13 32 13l-15-31h-1c-5.361 0-12.004 1-18 1v1c0 2.375-.17 16 2 16ZM274 148h1c0-5.268 2-10.078 2-16l-1-1c-6.102 0-12.479-1-18-1l-3 6.5c-3.054 6.109-12 17.926-12 24.5 9.646 0 19.165-13 31-13Z"/><path fill="#209666" id="AId6a" d="M149 135c0 5.073.418 10 6 10l5-12-5.5-1-5.5 2v1Z"/><path fill="#228A5D" id="ORBl5" d="M149 161c0 4.757-2 7.969-2 13 10.684 0 24.201-25 35-25v-1c-2.17 0-2-13.625-2-16-10.963 0-17.392 13-25 13 0 3.195-2.597 7.694-4 10.5-.523 1.046.951 3.5-1 3.5l-1 2ZM307 161l3 14c-3.311 0-23.674-17.174-27-20.5l-8-6.5c0-5.268 2-10.078 2-16 10.116 0 17.257 13 24 13l5 14 1 1v1Z"/><path fill="#209666" id="AId6a" d="M307 135c0 5.389.421 10-6 10l-4-12c2.302 0 3.585-1 5.5-1l4.5 2v1Z"/><path fill="#209665" id="AId5" d="M140 175h1c0-1.605 7.062-14 8-14l1-2c1.951 0 .477-2.454 1-3.5 1.403-2.806 4-7.305 4-10.5-5.582 0-6-4.927-6-10l-17 12.5c-1.127 1.127-5 1.275-5 3.5 0 3.919 8.733 24 13 24ZM316 175h1c2.739 0 13-20.711 13-24-5.743 0-17.19-16-23-16 0 5.389.421 10-6 10l5 14 1 1v1c2.021 0 6.096 9.691 7 11.5l2 2.5Z"/><path fill="#248A5D" id="ORBvl2/3" d="M219 172v1c-10.523 0-24.063-13-33-13 0-4.101-4-7.386-4-11v-1c12.563 0 21.435 13 32 13h1c0 4.101 4 7.386 4 11ZM270 161c-8.081 0-16.611 6.555-23.5 10-1.249.625-8.5 2.65-8.5 1l4-11h1c9.646 0 19.165-13 31-13 0 4.972-4 8.302-4 12v1Z"/><path fill="#238A5E" id="ORBl2/3" d="M310 175v8c-3.223 0-7.381-6.94-9.5-8-11.522-5.761-15.812-15-30.5-15 0-3.698 4-7.028 4-12h1l8 6.5c3.326 3.326 23.689 20.5 27 20.5ZM146 183h1l11.5-10c10.877-5.438 14.074-13 27.5-13 0-4.101-4-7.386-4-11-10.799 0-24.316 25-35 25l-1 1v8Z"/><path fill="#209765" id="AId2/3" d="M132 183h1l7-8c-4.267 0-13-20.081-13-24h-1l-3 1-8 5c0 5.189 17 22.448 17 26ZM323 183h1c1.108 0 17-23.119 17-26l-8-5-3-1c0 3.289-10.261 24-13 24 0 3.517 6 4.95 6 8Z"/><path fill="#209764" id="AId1" d="m132 183-4 4c-1.603 0-19-24.301-19-27l6-3c0 5.189 17 22.448 17 26ZM324 183l5 4c2.76 0 3.193-4.693 4.5-6 4.082-4.082 13.5-14.804 13.5-21l-5-3h-1c0 2.881-15.892 26-17 26Z"/><path fill="#1F9865" id="AIv5" d="m150 159-1 2 1-2ZM306 159l1 1-1-1Z"/><path fill="#238A5D" id="ORBl1" d="m153 185-4 2-2-4 11.5-10c10.877-5.438 14.074-13 27.5-13l1 6c-5.654 0-30 8.598-30 15l-2 2c-1.747 0-2 .253-2 2Z"/><path fill="#248A5B" id="ORBvl1" d="M219 173c0 2.384 3 4.881 3 8-12.513 0-22.009-15-35-15l-1-6c8.937 0 22.477 13 33 13Z"/><path fill="#238A5D" id="ORBl1" d="m310 184-3 3-8.5-8c-10.05-5.025-16.248-13-28.5-13v-6c14.688 0 18.978 9.239 30.5 15 2.119 1.06 6.277 8 9.5 8v1Z"/><path fill="#1F9865" id="AIv5" d="M141 175c0 1.762 3.576 0 5 0l1-1c0-5.031 2-8.243 2-13-.938 0-8 12.395-8 14Z"/><path fill="#248A5B" id="ORBvl1" d="M237 172h1c0 1.65 7.251-.375 8.5-1 6.889-3.445 15.419-10 23.5-10v5c-13.021 0-24.025 15-36 15 0-3.188 3-5.636 3-9Z"/><path fill="#1F9865" id="AIv5" d="M310 175h6l-2-2.5c-.904-1.809-4.979-11.5-7-11.5l3 14Z"/><path fill="#99D2BD" id="OLF" d="M213 195c0 9.81 1.002 27 14 27v-43c-1.624 0-2.75 2-5 2-12.513 0-22.009-15-35-15-5.654 0-30 8.598-30 15 .102 0 21.98-11.74 24.5-13 7.712-3.856 18.325 11 23.5 11l4.5-2c6.556 3.278 10.208 5.916 13.5 12.5v4c1.344 2.689 2.14 7.68-1.5 9.5-5.299 2.649-6.314-8-8.5-8ZM312 212l1 1 3.5-3c9.032-9.032.5-8.128.5-17-2.193 0-10-3.496-10-6l-8.5-8c-10.05-5.025-16.248-13-28.5-13-13.021 0-24.025 15-36 15-3.041 0-2.477-2-5-2v44l2.5-2c12.032-6.016 11.5-11.262 11.5-25-.688 0-6.605 12.29-10 5.5-4.131-8.263 3.383-19.442 9.5-22.5 1.473-.737 8.5-3.292 8.5 0 .814 0 16.58-9.54 19.5-11 3.056-1.528 8.675 1.838 11 3 10.578 5.289 25.736 13.971 31.5 25.5 2.008 4.016-1 11.887-1 15.5Z"/><path fill="#54BF94" id="AON" fill-rule="evenodd" d="M181 193c0 1.384-3.189 1.123-2 3.5 3.169 6.339 5.892 12.785 9 19 .671 1.341 2.284 4.608 4.5 3.5 3.125-1.562-.667-14.833-1.5-16.5-1.617-3.234 3.236-5.528 2-8-1.421-2.843-9.212-1.5-12-1.5m-4 51 3.5 2c3.963 1.982 7.835 7 12.5 7 0-11.113 8.491-19.495 17.5-24 5.194-2.597 12.413 3 15.5 3 1.763 0 1-8.343 1-10-12.998 0-14-17.19-14-27 0-5.449-8-9.682-8-16-5.175 0-15.788-14.856-23.5-11-2.52 1.26-24.398 13-24.5 13 0 1.747-.253 2-2 2 0 1.747-.253 2-2 2l-10 12.5c-1.303 2.606-.465 13.5 2 13.5 11.123 0 16.605 14.105 23.5 21 2.299 2.299 8.5 7.835 8.5 11v1ZM265 193l-2 2.5c-.378.755 2 3.882 2 5.5 0 3.254-5.39 15.555-.5 18l4.5-4.5c2.364-4.727 3.605-10.211 6-15 .774-1.547 3.143-2.715 2-5-1.421-2.843-9.212-1.5-12-1.5m15 50c0 1.131-14.277 10-16 10 0-10.22-15.132-30.684-28.5-24-1.143.571-5.224 4-5.5 4l-1-10 2.5-2c12.032-6.016 11.5-11.262 11.5-25 0-5.027 8-10.547 8-17 .814 0 16.58-9.54 19.5-11 3.056-1.528 8.675 1.838 11 3 10.578 5.289 25.736 13.971 31.5 25.5 2.008 4.016-1 11.887-1 15.5l-4.5-1c-7.145 3.572-17.745 15.991-21.5 23.5-1.701 3.402-6 4.338-6 8.5Z"/><path fill="#219764" id="AIv2/3" d="M133 183c0 5.614 13 4.822 13 0v-8c-1.424 0-5 1.762-5 0h-1l-7 8ZM323 183c0 8.242-10.51 1-13 1v-9h7c0 3.517 6 4.95 6 8Z"/><path fill="#61D09F" id="TTd" d="m205 179 4.5-2c6.556 3.278 10.208 5.916 13.5 12.5v4c1.344 2.689 2.14 7.68-1.5 9.5-5.299 2.649-6.314-8-8.5-8 0-5.449-8-9.682-8-16ZM251 179c0 6.453-8 11.973-8 17-.688 0-6.605 12.29-10 5.5-4.131-8.263 3.383-19.442 9.5-22.5 1.473-.737 8.5-3.292 8.5 0Z"/><path fill="#99D2BD" id="OLF" d="m157 181-2 2c1.747 0 2-.253 2-2Z"/><path fill="#209864" id="AIv1" d="M149 187c0 2.823-7.462 6-10 6-3.501 0-11 .614-11-6l4-4h1c0 5.614 13 4.822 13 0h1l2 4Z"/><path fill="#99D2BD" id="OLF" d="M155 183c-1.747 0-2 .253-2 2 1.747 0 2-.253 2-2Z"/><path fill="#209864" id="AIv1" d="M329 187c0 6.43-8.315 6-12 6-2.193 0-10-3.496-10-6l3-3c2.49 0 13 7.242 13-1h1l5 4Z"/><path fill="#99D2BD" id="OLF" d="m145 211-2 2-3.5-3c-6.952-6.952-.5-9.767-.5-17 2.538 0 10-3.177 10-6l4-2-10 12.5c-1.303 2.606-.465 13.5 2 13.5Z"/><path fill="#CBCBC7" id="aco" d="M181 193c0 1.384-3.189 1.123-2 3.5 3.169 6.339 5.892 12.785 9 19 .671 1.341 2.284 4.608 4.5 3.5 3.125-1.562-.667-14.833-1.5-16.5-1.617-3.234 3.236-5.528 2-8-1.421-2.843-9.212-1.5-12-1.5ZM265 193l-2 2.5c-.378.755 2 3.882 2 5.5 0 3.254-5.39 15.555-.5 18l4.5-4.5c2.364-4.727 3.605-10.211 6-15 .774-1.547 3.143-2.715 2-5-1.421-2.843-9.212-1.5-12-1.5Z"/><path fill="#CAC8C7" id="lot" d="M176 243h1c0-3.165-6.201-8.701-8.5-11-6.895-6.895-12.377-21-23.5-21l-2 2c0 4.536 5.844 6.344 9 9.5 4.883 4.883 16.518 20.5 24 20.5ZM313 213c0 5.173-4.517 3.533-6 6.5-2.641 5.282-21.164 23.5-27 23.5 0-4.162 4.299-5.098 6-8.5 3.755-7.509 14.355-19.928 21.5-23.5l4.5 1 1 1Z"/><path fill="#62CF9E" id="TTv" d="M226 232c-3.087 0-10.306-5.597-15.5-3-9.009 4.505-17.5 12.887-17.5 24 0 2.435 15.52 7.49 18.5 6 7.98-3.99 14.5-19.133 14.5-27ZM230 233c.276 0 4.357-3.429 5.5-4 13.368-6.684 28.5 13.78 28.5 24-4.791 0-10.185 7-15.5 7-8.767 0-18.5-19.788-18.5-27Z"/><path fill="#99D2BD" id="OLF" d="M177 243v1l-1-1h1Z"/></svg>