<svg xmlns="http://www.w3.org/2000/svg" viewBox="0 0 456 320"><path fill="#1E9C59" id="MOs1" d="M125 88v6l14.5-11 14-8c7.455-3.727 16.485-4.242 24-8 6.738-3.369 22.288-3.356 29 0l9.5 8 4-2c0-6.46-10.698-11.599-15.5-14h-4c-13.644-6.822-45.564 9.282-57 15-2.771 1.386-18.5 10.353-18.5 14ZM332 88l-1 5c-3.62 0-16.172-11.836-20.5-14-12.374-6.187-26.745-7.872-39-14-4.655-2.327-18.291.145-22 2l-9.5 8-4-2c0-5.983 10.867-11.683 15.5-14h4c13.435-6.718 47.575 10.287 59 16 2.332 1.166 17.5 10.693 17.5 13Z"/><path fill="#1E9D58" id="MOs2/3" d="M125 95c1.951 0 .477 2.454 1 3.5 1.781 3.562 2 11.591 2 14.5l11.5-12 14-10 24-12c10.019-5.01 20.204-4.898 30 0l2.5 2h1l5-5v-1l-9.5-8c-6.712-3.356-22.262-3.369-29 0-7.515 3.758-16.545 4.273-24 8l-14 8L125 94v1ZM331 94c-1.206 0-.236 2.972-1 4.5-1.912 3.825-1 10.434-1 15.5l-6.5-7c-5.547-5.547-11.385-11.693-18-15-8.738-4.37-38.457-22.272-49-17-1.932.966-8.531 6-9.5 6h-1l-5-5v-1l9.5-8c3.709-1.855 17.345-4.327 22-2 12.255 6.128 26.626 7.813 39 14 4.328 2.164 16.88 14 20.5 14v1Z"/><path fill="#3EA665" id="ACAd1" d="M222 93h13c0-3.4 2.269-17 5-17v-1l-4-2c-2.228 0-6.023 9.547-7 11.5l-.5 2.5c-.119 0-6.386-14-8.5-14l-4 2v1c2.845 0 6 13.902 6 17Z"/><path fill="#1F9D58" id="MOs5" d="M141 143c-4.177 0-7.449 7-12 7 0-5.08-3-15.55-3-21.5 0-4.778 2-9.378 2-14.5v-1l11.5-12 14-10 24-12c10.019-5.01 20.204-4.898 30 0l2.5 2-3.5 5c-2.875 1.437-11.5 10.608-11.5 15h-1c-1.804 0-5.136-2.182-7.5-1-3.354 1.677-7.722 1.361-11 3-17.018 8.509-34.5 18.684-34.5 40ZM315 143c4.391 0 7.132 6 12 6 0-2.92 3-8.17 3-11.5 0-7.063-1-13.627-1-22.5v-1l-6.5-7c-5.547-5.547-11.385-11.693-18-15-8.738-4.37-38.457-22.272-49-17-1.932.966-8.531 6-9.5 6 0 2.994 16 14.545 16 20h1c3.32 0 7.866-1.817 11.5 0 8.115 4.058 32.525 14.551 36.5 22.5 2.744 5.487 4 11.863 4 18.5v1Z"/><path fill="#40A565" id="ACAd2/3" d="M222 93c-2.483 0-4.026 2-6 2 0-4.481-5-11.43-5-14l5-5c2.845 0 6 13.902 6 17ZM235 93l6 2c0-5.618 4-9.391 4-14l-5-5c-2.731 0-5 13.6-5 17Z"/><path fill="#3EA566" id="ACAd5" d="M197 104h1c0-1.633 15.464-9 18-9 0-4.481-5-11.43-5-14h-1l-3.5 5c-2.875 1.437-11.5 10.608-11.5 15l2 3ZM262 101c0 1.577-1.762 2-3 2-6.559 0-11.304-8-18-8 0-5.618 4-9.391 4-14h1c0 2.994 16 14.545 16 20Z"/><path fill="#1E9D5A" id="MOp1" d="m107 164-5 2c0-5.362-9.009-27.482-5-35.5l6-15 8-11c1.257-2.513 10.792-16.5 14-16.5v7c-3.092 0-6.991 7.481-8 9.5l-6 7c-5.568 11.135-9 18.8-9 32.5 0 3.098 2.968 19 5 19v1ZM350 164l4 2c1.59 0 1.443-4.386 2-5.5 2.435-4.87 3-11.135 3-17 0-19.794-4.131-21.262-12-37-1.287-2.573-3.157-6.329-5.5-7.5-2.931-1.466-5.032-11-9.5-11l-1 5v1l8 8.5 12 19c3.787 7.574 6.146 25.709 2 34l-3 7.5v1Z"/><path fill="#2FA74F" id="PL2/3" d="M219 131h4c0-12.959-1-25.491-1-38-2.483 0-4.026 2-6 2 0 12.053 3 24.237 3 36Z"/><path fill="#2FA750" id="PL1" d="M223 131h10c0-12.016 2-25.963 2-38h-13c0 12.509 1 25.041 1 38Z"/><path fill="#2FA74F" id="PL2/3" d="M233 131h4c0-11.405 4-24.381 4-36l-6-2c0 12.037-2 25.984-2 38Z"/><path fill="#1F9C58" id="MOp2/3" d="M339 157c4.044 0 6.811 6 11 6l3-7.5c4.146-8.291 1.787-26.426-2-34l-12-19-8-8.5c-1.206 0-.236 2.972-1 4.5-1.912 3.825-1 10.434-1 15.5v1c2.683 0 5.082 7.664 6 9.5 5.48 10.96 4 20.114 4 32.5ZM118 157c-4.14 0-7.316 6-11 6-2.032 0-5-15.902-5-19 0-13.7 3.432-21.365 9-32.5l6-7c1.009-2.019 4.908-9.5 8-9.5 1.951 0 .477 2.454 1 3.5 1.781 3.562 2 11.591 2 14.5v1c-4.632 0-13.283 26.934-11 31.5.822 1.644-1.39 10.5 1 10.5v1Z"/><path fill="#2EA84F" id="PL5" d="m208 130 11 1c0-11.763-3-23.947-3-36-2.536 0-18 7.367-18 9l3 5.5c1.096 2.193 2 14.559 2 17.5v1l5 2ZM249 130l-12 1c0-11.405 4-24.381 4-36 6.696 0 11.441 8 18 8v1c-2.9 0-6 20.618-6 24l-4 2Z"/><path fill="#1D9C5A" id="MOs6a" d="M141 143h1c0-3.781 12.224-9.362 15.5-11l4.5 1 5-7c-3.143 0 1.803-6.652 2.5-7 4.504-2.252 9.072-5 14.5-5 0-1.994 5.067-7 7-7l3-6c-1.804 0-5.136-2.182-7.5-1-3.354 1.677-7.722 1.361-11 3-17.018 8.509-34.5 18.684-34.5 40ZM294 132c9.738 0 17.044 10 21 10 0-6.637-1.256-13.013-4-18.5-3.975-7.949-28.385-18.442-36.5-22.5-3.634-1.817-8.18 0-11.5 0l3 6c1.871 0 6 5.4 6 7 5.805 0 9.723 2.611 14.5 5 1.347.673 5.907 7 2.5 7l5 6Z"/><path fill="#3FA664" id="ACAd6a" d="m197 104-6 3 3-6h1l2 3ZM259 104c0 1.429 5.655 3 7 3l-3-6h-1c0 1.577-1.762 2-3 2v1Z"/><path fill="#2FA850" id="PL6a" d="M188 118c3.421 0 9.614 9 15 9 0-2.941-.904-15.307-2-17.5l-3-5.5h-1l-6 3c-1.933 0-7 5.006-7 7l4 4ZM268 119c-5.561 0-9.749 9-15 9 0-3.382 3.1-24 6-24 0 1.429 5.655 3 7 3 1.871 0 6 5.4 6 7l-3 4-1 1Z"/><path fill="#1E9C5A" id="MOp5" d="M129 150c0 1.187-9.415 6-11 6-2.39 0-.178-8.856-1-10.5-2.283-4.566 6.368-31.5 11-31.5 0 5.122-2 9.722-2 14.5 0 5.95 3 16.42 3 21.5Z"/><path fill="#268E44" id="FRP6a" d="M181 119c1.321 0 6-.684 6 1l1-2-4-4c-5.428 0-9.996 2.748-14.5 5-.697.348-5.643 7-2.5 7l14-7ZM275 119l14 7c3.407 0-1.153-6.327-2.5-7-4.777-2.389-8.695-5-14.5-5l-3 4-1 1v2c1.835 0 4.235-2 7-2Z"/><path fill="#1E9C5A" id="MOp5" d="M338 157h1c0-12.386 1.48-21.54-4-32.5-.918-1.836-3.317-9.5-6-9.5 0 8.873 1 15.437 1 22.5 0 3.33-3 8.58-3 11.5 0 3.811 11 3.588 11 8Z"/><path fill="#22885E" id="ORBm6a" d="M199 143h1c7.18 0 3-10.907 3-15v-1c-5.386 0-11.579-9-15-9l-1 2c0 4.564 12 16.8 12 23ZM269 118l-1 1 1-1Z"/><path fill="#24895D" id="ORBl6a" d="M179 138c-11.794 0-17.906 17-28 17l11-22 5-7 14-7c0 6.192-2 12.044-2 19Z"/><path fill="#238A5C" id="ORBvl6a" d="M179 138c7.583 0 13.076 5 20 5 0-6.2-12-18.436-12-23 0-1.684-4.679-1-6-1 0 6.192-2 12.044-2 19Z"/><path fill="#22885E" id="ORBm6a" d="M253 128c0 5.01-3.384 15 4 15l11-22v-2c-5.561 0-9.749 9-15 9Z"/><path fill="#238A5C" id="ORBvl6a" d="M278 138c-7.799 0-13.775 5-21 5l11-22c1.835 0 4.235-2 7-2 0 5.931 3 13.886 3 19Z"/><path fill="#24895D" id="ORBl6a" d="M278 138c10.475 0 18.365 17 27 17 0-5.667-11-18.532-11-23l-5-6-14-7c0 5.931 3 13.886 3 19Z"/><path fill="#23885E" id="ORBm5" d="M220 147c0 8.051 1.055 23-9 23 0-9.653-11-17.887-11-27 7.18 0 3-10.907 3-15l5 2c0 1.753 7.99 15 12 15v2ZM237 147c0 7.81-2.794 23 8 23 0-6.805 12-22.321 12-27-7.384 0-4-9.99-4-15l-4 2c0 1.145-9.792 15-12 15v2Z"/><path fill="#59B262" id="ILA5" d="m219 131 1 14c-4.01 0-12-13.247-12-15l11 1ZM237 131v14c2.208 0 12-13.855 12-15l-12 1Z"/><path fill="#59B362" id="ILA2/3" d="M220 147c2.518 0 2.334 3 5 3 0-6.136-2-12.397-2-19h-4l1 14v2Z"/><path fill="#59B263" id="ILA1" d="M225 150h7v-1c0-5.708 1-11.784 1-18h-10c0 6.603 2 12.864 2 19Z"/><path fill="#59B362" id="ILA2/3" d="m237 147-5 2c0-5.708 1-11.784 1-18h4v16Z"/><path fill="#209666" id="AId6a" d="M150 155h1l11-22-4.5-1c-3.276 1.638-15.5 7.219-15.5 11 0 4.928 1.835 12 8 12ZM305 155h1c5.721 0 9-6.9 9-12v-1c-3.956 0-11.262-10-21-10 0 4.468 11 17.333 11 23Z"/><path fill="#228A5D" id="ORBl5" d="M144 180h1l9.5-7c11.487-5.744 18.792-17 31.5-17 0-7.029-7-11.301-7-18-11.794 0-17.906 17-28 17l-1 2c0 5.703-6 13.326-6 23Z"/><path fill="#23885C" id="ORBvl5" d="M186 156c9.13 0 15.311 14 25 14 0-9.653-11-17.887-11-27h-1c-6.924 0-12.417-5-20-5 0 6.699 7 10.971 7 18ZM269 157c-9.05 0-14.386 13-24 13 0-6.805 12-22.321 12-27 7.225 0 13.201-5 21-5 0 6.392-8 11.951-8 18l-1 1Z"/><path fill="#228A5D" id="ORBl5" d="M270 156c11.812 0 19.759 9.63 30.5 15 3.012 1.506 7.836 9 11.5 9 0-2.338 1-4.827 1-6.5l-8-18.5c-8.635 0-16.525-17-27-17 0 6.392-8 11.951-8 18Z"/><path fill="#209665" id="AId5" d="M130 183h1c0-.563 12.75-18.25 14.5-20l4.5-6v-2c-6.165 0-8-7.072-8-12h-1c-4.177 0-7.449 7-12 7 0 1.187-9.415 6-11 6v1c0 7.896 12 24.775 12 26ZM326 183h1c0-3.889 11-16.311 11-26 0-4.412-11-4.189-11-8-4.868 0-7.609-6-12-6 0 5.1-3.279 12-9 12 0 5.511 20 25.099 20 28Z"/><path fill="#24885D" id="ORBm2/3" d="M214 181h4c0-3.37 3.563-6.626 5-9.5 2.73-5.459 2-15.021 2-21.5-2.666 0-2.482-3-5-3 0 8.051 1.055 23-9 23l3 11ZM238 181h5l2-11c-10.794 0-8-15.19-8-23l-5 2v1c0 5.918-1.506 15.488 1 20.5l5 10.5Z"/><path fill="#23895D" id="ORBm1" d="M229 178c0 4.32 5.873 3 9 3l-5-10.5c-2.506-5.012-1-14.582-1-20.5h-7c0 6.479.73 16.041-2 21.5-1.437 2.874-5 6.13-5 9.5h8.5c1.498-.749-.705-4 1.5-4 0-2.029 1-.058 1 1Z"/><path fill="#1F9865" id="AIv5" d="m151 155-1 2v-2h1Z"/><path fill="#238A5E" id="ORBl2/3" d="M145 180c0 2.424 2 2.76 2 4 4.336 0 21.016-17 29-17 4.464 0 13-.447 13 6l1 1c0-7.492-4-14.139-4-18-12.708 0-20.013 11.256-31.5 17l-9.5 7ZM312 181c-1.916 0-.07 3-3 3l-6.5-5c-4.492-2.246-34.5-23.122-34.5-6h-1c0-5.922 2-10.732 2-16l1-1c11.812 0 19.759 9.63 30.5 15 3.012 1.506 7.836 9 11.5 9v1Z"/><path fill="#1F9865" id="AIv5" d="m312 181 8.5 4 5.5-2c0-2.901-20-22.489-20-28h-1l8 18.5c0 1.673-1 4.162-1 6.5v1Z"/><path fill="#248A5D" id="ORBvl2/3" d="M190 174c3.423 0 17.221 7 24 7l-3-11c-9.689 0-15.87-14-25-14 0 3.861 4 10.508 4 18ZM270 156l-1 1 1-1Z"/><path fill="#209765" id="AId2/3" d="M130 183c0 1.377-7.483 7-9 7 0-3.701-14-19.292-14-26v-1c3.684 0 6.86-6 11-6 0 7.896 12 24.775 12 26Z"/><path fill="#1F9865" id="AIv5" d="M144 180c0 1.699-7.879 5.811-9.5 5-1.619-.809-1.471-2-3.5-2 0-.563 12.75-18.25 14.5-20l4.5-6c0 5.703-6 13.326-6 23Z"/><path fill="#248A5D" id="ORBvl2/3" d="M267 173c0 2.371-20.716 8-24 8l2-11c9.614 0 14.95-13 24-13 0 5.268-2 10.078-2 16Z"/><path fill="#209765" id="AId2/3" d="M327 183c0 1.782 6.482 7 8 7 1.379 0 10.801-17.101 12-19.5l3-6.5v-1c-4.189 0-6.956-6-11-6h-1c0 9.689-11 22.111-11 26Z"/><path fill="#209764" id="AId1" d="m121 191-5 2c-2.055 0-2.675-4.175-4-5.5-2.259-2.259-10-18.475-10-21.5l5-2c0 6.708 14 22.299 14 26v1ZM335 191l5 2c2.525 0 14-23.707 14-27l-4-2-3 6.5c-1.199 2.399-10.621 19.5-12 19.5v1Z"/><path fill="#238A5D" id="ORBl1" d="m151 186-2 1-2-2v-1c4.336 0 21.016-17 29-17 4.464 0 13-.447 13 6l-6.5-3c-4.567-2.283-16.23 6.115-20 8-2.174 1.087-6.5 2.14-6.5 5h-1l-1 1-1 1h-1l-1 1ZM307 187h1l1-2v-1l-6.5-5c-4.492-2.246-34.5-23.122-34.5-6 3.083 0 5.545-3 9-3 3.644 0 24 10.487 24 13h1l1 1 2 2 1 1h1Z"/><path fill="#99D2BD" id="OLF" d="M209 190c-4.042 0-11.421-8.54-18.5-5-9.089 4.544-29.5 18.123-29.5 30-2.339 0-3-9.67-3-12 0-8.936 19.883-17.733 16-25.5-1.908-3.816-15.105 5.5-18 5.5 0-2.86 4.326-3.913 6.5-5 3.77-1.885 15.433-10.283 20-8l6.5 3 1 1c3.423 0 17.221 7 24 7h12.5c1.498-.749-.705-4 1.5-4l1 1c0 4.32 5.873 3 9 3h5c3.284 0 24-5.629 24-8h1c3.083 0 5.545-3 9-3 3.644 0 24 10.487 24 13-3.851 0-15.937-10.625-19-4.5-2.894 5.788 12.715 14.43 15 19 .999 1.997 2.557 16.5-1 16.5l-6-10.5c-2.702-5.404-14.433-13.967-19.5-16.5-12.566-6.283-15.794 2-22.5 2l-2.5-3c-3.445-1.723-13.91.319-15.5 3.5l-1.5 15.5-2.5-16.5c-2.152-4.305-17-4.073-17 1.5Z"/><path fill="#6ACAB9" id="PIR" d="M162 234h2l-3-19c-2.339 0-3-9.67-3-12 0-8.936 19.883-17.733 16-25.5-1.908-3.816-15.105 5.5-18 5.5h-1l-1 1-1 1h-1l-1 1-2 1-2 2-1 1-1 1h-1l-1 1c0 1.933-9.237 6.368-10.5 7l-2.5 2c0 5.726-8.206 7.294 1 16.5l5 3.5c7.416 0 10.578 2.539 17.5 6l8.5 7ZM293 234v1l8.5-7c8.735-4.367 9.657-7 19.5-7 0-2.167 6.767-5.033 8-7.5 2.662-5.325-2-7.918-2-12.5-5.592 0-7.792-8-13-8l-2-2-1-1c-1.429 0-4-1.288-4-3h-1l-1-1-2-2-1-1h-1c-3.851 0-15.937-10.625-19-4.5-2.894 5.788 12.715 14.43 15 19 .999 1.997 2.557 16.5-1 16.5 0 7.049-3 13.88-3 20Z"/><path fill="#219764" id="AIv2/3" d="M121 190v1c1.614 0 6.087 6.706 11.5 4l14.5-10v-1c0-1.24-2-1.576-2-4h-1c0 1.699-7.879 5.811-9.5 5-1.619-.809-1.471-2-3.5-2h-1c0 1.377-7.483 7-9 7ZM335 190v1c0 3.492-5.08 4-7.5 4-7.777 0-13.217-10-18.5-10v-1c2.93 0 1.084-3 3-3l8.5 4 5.5-2h1c0 1.782 6.482 7 8 7Z"/><path fill="#99D2BD" id="OLF" d="m155 183-1 1 1-1ZM302 183l1 1-1-1ZM154 184l-1 1 1-1Z"/><path fill="#209864" id="AIv1" d="m116 193 2 2.5c3.253 6.505 6.394 5.5 12 5.5l2.5-2c1.263-.632 10.5-5.067 10.5-7l1-1h1l1-1 1-1 2-2-2-2-14.5 10c-5.413 2.706-9.886-4-11.5-4l-5 2Z"/><path fill="#99D2BD" id="OLF" d="m152 185-1 1 1-1Z"/><path fill="#54BF94" id="AON" fill-rule="evenodd" d="M267 195v17l.5 6c2.604 1.302 5.706-3.912 6.5-5.5 4.195-8.391 4.507-17.5-7-17.5m-84 0c0 .781-3 4.65-3 9 0 3.026 4.764 15.868 8.5 14 3.758-1.879.5-13.968.5-17.5l1-5-7-.5m8 62c0-15.174 15.414-22.457 26.5-28 3.489-1.744 7.608 2 11 2 2.945 0 6.92-3.54 10-2 11.812 5.906 26.5 11.53 26.5 28 2.232 0 20-10.035 20-11v-1c0-3.517 6-4.95 6-8 0-1.238.423-3 2-3 0-6.12 3-12.951 3-20l-6-10.5c-2.702-5.404-14.433-13.967-19.5-16.5-12.566-6.283-15.794 2-22.5 2 0 3.117-8.865 26.683-11.5 28h-7l-1-2c-2.005 0-4.771 3.615-8 2-3.879-1.94-11.5-22.912-11.5-27-4.042 0-11.421-8.54-18.5-5-9.089 4.544-29.5 18.123-29.5 30l3 19c1.473 0 1 1.952 1 3 3.528 0 6 6.283 6 9 4.524 0 14.505 11 20 11Z"/><path fill="#209864" id="AIv1" d="M340 193c0 7.072-9.065 8-13 8-5.592 0-7.792-8-13-8l-2-2-1-1-3-3 1-2c5.283 0 10.723 10 18.5 10 2.42 0 7.5-.508 7.5-4l5 2Z"/><path fill="#61D09F" id="TTd" d="m248 189-2.5-3c-3.445-1.723-13.91.319-15.5 3.5l-1.5 15.5-2.5-16.5c-2.152-4.305-17-4.073-17 1.5 0 4.088 7.621 25.06 11.5 27 3.229 1.615 5.995-2 8-2l1 2h7c2.635-1.317 11.5-24.883 11.5-28Z"/><path fill="#99D2BD" id="OLF" d="m305 186 1 1-1-1ZM308 187l3 3c-1.429 0-4-1.288-4-3h1ZM147 189l-1 1 1-1ZM146 190l-1 1 1-1ZM144 191l-1 1 1-1ZM312 191l2 2-2-2Z"/><path fill="#CBCBC7" id="aco" d="M183 195c0 .781-3 4.65-3 9 0 3.026 4.764 15.868 8.5 14 3.758-1.879.5-13.968.5-17.5l1-5-7-.5ZM267 195v17l.5 6c2.604 1.302 5.706-3.912 6.5-5.5 4.195-8.391 4.507-17.5-7-17.5Z"/><path fill="#CAC8C7" id="lot" d="M165 237c3.528 0 6 6.283 6 9-6.868 0-22.402-14.451-29.5-18-2.859-1.429-5.5-3.493-5.5-7 7.416 0 10.578 2.539 17.5 6l8.5 7 3 3ZM285 245l1 1c3.596 0 5.515-3.507 8.5-5 4.708-2.354 26.5-15.815 26.5-20-9.843 0-10.765 2.633-19.5 7l-8.5 7-2 2c0 3.05-6 4.483-6 8Z"/><path fill="#62CF9E" id="TTv" d="M191 257c5.156 0 11.826 8.837 21.5 4 5.039-2.519 10.086-9.671 12.5-14.5l3.5-7.5 2.5 7.5c2.046 4.091 7.919 12.21 12.5 14.5 3.79 1.895 21.5-.138 21.5-4 0-16.47-14.688-22.094-26.5-28-3.08-1.54-7.055 2-10 2-3.392 0-7.511-3.744-11-2-11.086 5.543-26.5 12.826-26.5 28Z"/><path fill="#99D2BD" id="OLF" d="M164 234c1.473 0 1 1.952 1 3l-3-3h2ZM293 235l-2 2c0-1.238.423-3 2-3v1ZM285 246h1l-1-1v1Z"/></svg>