<svg xmlns="http://www.w3.org/2000/svg" viewBox="0 0 456 320"><path fill="#1E9C59" id="MOs1" d="M219 66h1c0-1.916 3-.07 3-3 0-4.421-8.165-10.333-11.5-12-10.952-5.476-30.93-5.535-42 0L153 58v6c4.585 0 9.593-3.047 13.5-5 9.727-4.863 29.033-9.484 40-4 3.165 1.583 12.5 6.35 12.5 11ZM303 64c-4.399 0-8.762-3.131-12.5-5-12.356-6.178-31.102-8.45-44-2-2.565 1.283-9.5 5.52-9.5 9l-4-2c0-2.837 5.875-8.375 8-10.5 11.543-11.543 36.035-6.733 48.5-.5 1.648.824 13.5 4.042 13.5 5v6Z"/><path fill="#1E9D58" id="MOs2/3" d="M213 71h1l5-5c0-4.65-9.335-9.417-12.5-11-10.967-5.484-30.273-.863-40 4-3.907 1.953-8.915 5-13.5 5v1c0 4.832 1 9.854 1 16 9.252 0 33.34-23.08 45.5-17 2.931 1.465 13.5 1.244 13.5 7ZM302 82h1V64c-4.399 0-8.762-3.131-12.5-5-12.356-6.178-31.102-8.45-44-2-2.565 1.283-9.5 5.52-9.5 9v1l6 4c0-5.756 10.569-5.535 13.5-7 10.56-5.28 26.34 7.67 35 12 1.804.902 10.5 3.705 10.5 6Z"/><path fill="#1E9D5A" id="MOp1" d="M93 109h1l11.5-14 11-10c8.263-4.131 28.444-20 36.5-20v-7l-11.5 6c-12.152 6.076-25.844 13.844-36 24-3.426 3.426-12.5 8.876-12.5 13v8ZM364 102c0 2.607-1 4.913-1 7l-14.5-16-10-9c-7.85-3.925-15.229-9.115-23-13-3.522-1.761-8.517-7-12.5-7v-6c4.315 0 9.708 5.104 13.5 7 8.188 4.094 30.711 15.923 34.5 23.5 2.043 4.086 13 7.786 13 13.5Z"/><path fill="#1F9D58" id="MOs5" d="M196 88h1c0-4.26 16-15.204 16-17 0-5.756-10.569-5.535-13.5-7-12.16-6.08-36.248 17-45.5 17v22c6.669 0 30.259-17 37.5-17l4.5 2Z"/><path fill="#3EA665" id="ACAd1" d="M222 99h12c0-4.475-3.176-32 3-32v-1l-4-2c-2.37 0-3.725 7-4.5 7l-5.5-8c0 2.93-3 1.084-3 3l3 7.5c3.081 6.162-1 19.407-1 25.5Z"/><path fill="#1F9D58" id="MOs5" d="m260 88 4.5-2c2.336 0 22.73 9.365 26 11 3.629 1.814 8.311 6 12.5 6 0-6.715-1-15.058-1-21 0-2.295-8.696-5.098-10.5-6-8.66-4.33-24.44-17.28-35-12-2.931 1.465-13.5 1.244-13.5 7v1c2.86 0 16 12.79 16 16h1Z"/><path fill="#1F9C58" id="MOp2/3" d="M360 130c-.632 0-2 5.82-2 6.5l2 1c.403.806 0 13.311 0 15.5-1.598 0-2.092-13.685-3-15.5-4.222-8.444-9.719-16.438-14-25-3.592-7.185-19.75-19.625-27.5-23.5L303 82V64c3.983 0 8.978 5.239 12.5 7 7.771 3.885 15.15 9.075 23 13l10 9 14.5 16v2l-2 4.5c0 7.447-1 8.181-1 14.5ZM97 131c1.111 0-1 11.569-1 13.5 0 1.19-.615 4.5 1 4.5 0-17.691 22.316-47.408 37.5-55 5.923-2.961 12.674-12 19.5-12v-1c0-6.146-1-11.168-1-16-8.056 0-28.237 15.869-36.5 20l-11 10L94 109c0 8.476 3 14.263 3 22Z"/><path fill="#40A565" id="ACAd2/3" d="M217 99h5c0-6.093 4.081-19.338 1-25.5l-3-7.5h-1l-5 5 3 7.5V99ZM234 99h6c0-4.344-1.139-27 3-27v-1l-6-4c-6.176 0-3 27.525-3 32Z"/><path fill="#3EA566" id="ACAd5" d="m217 99-16 4c0-6.293-4-13.772-4-15 0-4.26 16-15.204 16-17h1l3 7.5V99ZM240 99c5.378 0 9.925 4 15 4 0-4.817 4-12.833 4-15 0-3.21-13.14-16-16-16-4.139 0-3 22.656-3 27Z"/><path fill="#1E9C5A" id="MOp5" d="M118 164c-5.851 0-11.569 7-18 7 0-4.938-3-9.431-3-14v-8c0-17.691 22.316-47.408 37.5-55 5.923-2.961 12.674-12 19.5-12v21c-5.618 0-11.457 7.978-15.5 10-21.69 10.845-20.5 30.772-20.5 51ZM339 165c6.178 0 11.516 6 18 6 0-2.147-1-4.993-1-6.5 0-2.29 3-4.85 3-7.5 0-1.048-.473-3 1-3v-1c-1.598 0-2.092-13.685-3-15.5-4.222-8.444-9.719-16.438-14-25-3.592-7.185-19.75-19.625-27.5-23.5L303 82h-1c0 5.942 1 14.285 1 21 3.905 0 12.63 9.065 16.5 11 6.018 3.009 8.665 6.829 11.5 12.5 1.261 2.522 4.402 5.804 6 9 3.755 7.509 2 19.562 2 28.5v1Z"/><path fill="#1D9C5A" id="MOs6a" d="M183 114c-10.515 0-16.777 8.639-25.5 13l-6.5 7 3-7.5c2.287-4.574 0-17.924 0-23.5 6.669 0 30.259-17 37.5-17l4.5 2c0 2.815-7.431 12.362-9 15.5l-1 5-3 5.5ZM274 115c0-2.359 10.149 2.324 11.5 3 6.062 3.031 11.534 10.267 17 13l4.5 5-5-9.5c-1.187-2.373 1-20.689 1-23.5-4.189 0-8.871-4.186-12.5-6-3.27-1.635-23.664-11-26-11l-4.5 2c0 4.403 13 19.193 13 27h1Z"/><path fill="#3FA664" id="ACAd6a" d="m183 115 3 1c2.32 0 10.062-12 15-12v-1c0-6.293-4-13.772-4-15h-1c0 2.815-7.431 12.362-9 15.5l-1 5-3 5.5v1ZM270 117h1c0-1.747.253-2 2-2 0-7.807-13-22.597-13-27h-1c0 2.167-4 10.183-4 15v1c3.681 0 15 8.784 15 13Z"/><path fill="#2EA84F" id="PL5" d="m218 132-13 3c0-10.219-4-19.963-4-31v-1l16-4c0 10.912 1 22.76 1 33Z"/><path fill="#2FA74F" id="PL2/3" d="M218 132h5c0-10.24-1-22.088-1-33h-5c0 10.912 1 22.76 1 33Z"/><path fill="#2FA750" id="PL1" d="M223 132h11V99h-12c0 10.912 1 22.76 1 33Z"/><path fill="#2FA74F" id="PL2/3" d="M238 132h1l1-33h-6v33h4Z"/><path fill="#2EA84F" id="PL5" d="m239 132 12 3c0-4.021 2.165-12.83 4-16.5V103c-5.075 0-9.622-4-15-4l-1 33Z"/><path fill="#187E61" id="SSp-m1" d="m80 161-4 1c0-20.934-1.379-28.742 8-47.5 1.123-2.246 6.144-13.5 9-13.5v8l-10 19.5c-4.62 9.239-3 22.443-3 32.5ZM377 161l4 1c0-20.109-.662-30.824-9-47.5-1.136-2.271-4.665-12.5-8-12.5 0 2.607-1 4.913-1 7v2c2.956 0 5.728 7.957 7 10.5 5.995 11.989 7 24.956 7 39.5Z"/><path fill="#1F9B5A" id="MOp6a" d="M143 151c-9.176 0-16.007 13-25 13 0-20.228-1.19-40.155 20.5-51 4.043-2.022 9.882-10 15.5-10 0 5.576 2.287 18.926 0 23.5l-3 7.5-3 5-1 1v1l-1 1c-1.473 0-1 1.952-1 3-1.579 0-1 2.855-1 4l-1 1v1ZM313 150c5.889 0 18.784 14 26 14 0-8.938 1.755-20.991-2-28.5-1.598-3.196-4.739-6.478-6-9-2.835-5.671-5.482-9.491-11.5-12.5-3.87-1.935-12.595-11-16.5-11 0 2.811-2.187 21.127-1 23.5l5 9.5 1 2 1 1v1l2 2v2c1.638 0 2 3.576 2 5v1Z"/><path fill="#2FA850" id="PL6a" d="M205 135c-3.091 0-5.478 2-8 2 0-2.73-8.21-20-11-20v-1c2.32 0 10.062-12 15-12 0 11.037 4 20.781 4 31ZM259 137h1c0-2.084 2.574-12 5-12 0-2.244 1.725-6 4-6l1-2c0-4.216-11.319-13-15-13v14.5c-1.835 3.67-4 12.479-4 16.5 1.775 0 8 .069 8 2Z"/><path fill="#1A7E64" id="SSp-m2/3" d="m92 158-12 3c0-10.057-1.62-23.261 3-32.5L93 109h1c0 8.476 3 14.263 3 22-2.334 0-1.34 4.181-2 5.5-2.817 5.634-3 13.786-3 20.5v1ZM376 161h1c0-14.544-1.005-27.511-7-39.5-1.272-2.543-4.044-10.5-7-10.5l-2 4.5c0 7.447-1 8.181-1 14.5l3 9.5 1 17.5c1.219 0 12 3.474 12 4Z"/><path fill="#1E9C58" id="MOs6b" d="M145 149h2c0-7.037 14.534-28 22-28 0-2.13 11.823-6 14-6v-1c-10.515 0-16.777 8.639-25.5 13l-6.5 7-3 5-1 1v1l-1 1c0 1.048.473 3-1 3v4ZM310 149h1v-7l-2-2v-1l-1-1-1-2-4.5-5c-5.466-2.733-10.938-9.969-17-13-1.351-.676-11.5-5.359-11.5-3l13 5c6.258 0 23 22.659 23 29Z"/><path fill="#CACCC7" id="cing" d="M199 151v8c-2.412 0-2.906-15.313-4-17.5-6.461-12.921-4.349-19.5-22-19.5l-4-1c0-2.13 11.823-6 14-6l2 2c0 2.014 5.933 8.367 7 10.5.736 1.472 2.483 9.5 4 9.5 0 1.698 1.069 10 3 10v4Z"/><path fill="#3FA466" id="ACAd6b" d="M185 117h1v-1l-3-1 2 2ZM273 116l-2 1c0-1.747.253-2 2-2v1Z"/><path fill="#1E9C58" id="MOs6b" d="m274 115-1 1v-1h1Z"/><path fill="#CACCC7" id="cing" d="M257 152c0 2.124 1 4.436 1 6 1.598 0 2.092-13.685 3-15.5 6.671-13.342 4.238-20.5 23-20.5l3-2-13-5-1 1-2 1-2 2c0 1.417-2.383 6-4 6l-4 12c0 1.346-3.063 13-4 13v2Z"/><path fill="#2FA84F" id="PL6b" d="M196 137h1c0-2.73-8.21-20-11-20h-1c0 2.014 5.933 8.367 7 10.5.736 1.472 2.483 9.5 4 9.5ZM271 117l-2 2 1-2h1ZM269 119c-2.275 0-4 3.756-4 6 1.617 0 4-4.583 4-6Z"/><path fill="#C9C9CA" id="scwm" d="M304 169v1l3-2 1-1 2-4v-14c0-6.341-16.742-29-23-29l-3 2 19 17.5c2.136 4.271 6.866 15.268 4 21l-3 8.5ZM153 169v2l-4-3v-1l-2-3v-15c0-7.037 14.534-28 22-28l4 1-5.5 4-14.5 14.5c-1.823 3.645-6.236 28.5 0 28.5Z"/><path fill="#CAC7CC" id="fa" d="M158 167c-1.624 0-2.75 2-5 2-6.236 0-1.823-24.855 0-28.5l14.5-14.5 5.5-4c17.651 0 15.539 6.579 22 19.5 1.094 2.187 1.588 17.5 4 17.5v1l-7 7c0-13.074-29.447-32.606-37-17.5-4.25 8.5 3 12.803 3 17.5ZM299 167c0 2.461 3.378 2 5 2l3-8.5c2.866-5.732-1.864-16.729-4-21L284 122c-18.762 0-16.329 7.158-23 20.5-.908 1.815-1.402 15.5-3 15.5v1c0 1.597 5.928 9 7 9 0-14.484 28.447-34.607 37-17.5 3.362 6.723-3 10.658-3 16.5Z"/><path fill="#2FA84F" id="PL6b" d="M260 137h1l4-12c-2.426 0-5 9.916-5 12Z"/><path fill="#1B7F62" id="SSp-m4" d="M360 157h4l-1-17.5-3-9.5c-.632 0-2 5.82-2 6.5l2 1c.403.806 0 13.311 0 15.5v4ZM96 157h1v-4c-1.4 0-1.4-2 0-2v-2c-1.615 0-1-3.31-1-4.5 0-1.931 2.111-13.5 1-13.5-2.334 0-1.34 4.181-2 5.5-2.817 5.634-3 13.786-3 20.5h4Z"/><path fill="#59B262" id="ILA5" d="M212 153h7c0-6.967-1-14.681-1-21l-13 3c0 6.219 7 13.965 7 18Z"/><path fill="#59B362" id="ILA2/3" d="M219 153h4v-21h-5c0 6.319 1 14.033 1 21Z"/><path fill="#59B263" id="ILA1" d="M229 153h4c0-6.967 1-14.681 1-21h-11v21h5v-7c0-3.246 1-3.246 1 0v7Z"/><path fill="#59B362" id="ILA2/3" d="M233 153h4l1-21h-4c0 6.319-1 14.033-1 21Z"/><path fill="#59B262" id="ILA5" fill-rule="evenodd" d="M239 148c0 1.93 1.93 0 0 0m-2 5h8c0-5.944 6-11.238 6-18l-12-3h-1l-1 21Z"/><path fill="#58B362" id="ILA6a" d="M199 151c3.686 0 9.257 2 13 2 0-4.035-7-11.781-7-18-3.091 0-5.478 2-8 2 0 3.255 2 6.058 2 10v4ZM257 152c-3.962 0-8.688 1-12 1 0-5.944 6-11.238 6-18 1.775 0 8 .069 8 2 0 4.449-2 8.01-2 13v2Z"/><path fill="#58B263" id="ILA6b" d="M197 137c0 3.255 2 6.058 2 10-1.931 0-3-8.302-3-10h1ZM261 137c0 1.346-3.063 13-4 13 0-4.99 2-8.551 2-13h2Z"/><path fill="#1D9D5A" id="MOp6b" d="m308 138 1 1-1-1ZM148 139l-1 1 1-1ZM309 140l2 2-2-2ZM147 141l-1 1 1-1ZM146 142c-1.473 0-1 1.952-1 3 1.473 0 1-1.952 1-3ZM311 149h2c0-1.424-.362-5-2-5v5ZM144 149h1v-4c-1.579 0-1 2.855-1 4Z"/><path fill="#98D5F9" id="CP" d="M182 189h1l6-4.5 2-12.5 1-5c0-13.074-29.447-32.606-37-17.5-4.25 8.5 3 12.803 3 17.5 2.775 0 5 7.502 5 10v2l-1 1v9c0 4.451 15.763 1 18 1l2-1ZM276 190h1c3.964 0 11.388 3.056 15.5 1l2.5-2c0-2.409-1-5.181-1-7v-6c0-2.453 1.762-9 5-9 0-5.842 6.362-9.777 3-16.5-8.553-17.107-37 3.016-37 17.5v5c1.921 0 1.26 8.021 2 9.5.815 1.63 6 6.066 6 6.5h1l2 1Z"/><path fill="#99D2BD" id="OLF" d="M228 153c0 9.17 1 9.17 1 0v-7h-1v7Z"/><path fill="#3EA666" id="ACAv5" d="M239 148c0 1.93 1.93 0 0 0Z"/><path fill="#1D9D5A" id="MOp6b" d="m144 149-1 1 1-1Z"/><path fill="#1F9766" id="AId6b" d="m147 164-3 2c0-4.425-1-9.961-1-15v-1l1-1h3v15ZM310 163l2 3c1.801 0 1-13.842 1-16v-1h-3v14Z"/><path fill="#209666" id="AId6a" d="M324 181h1c5.536 0 9.839-6.178 12-10.5.557-1.114.41-5.5 2-5.5v-1c-7.216 0-20.111-14-26-14 0 2.158.801 16-1 16v1l2 1 5.5-3c2.627 0 11.112 6.275 9.5 9.5-.834 1.667-5 5.289-5 6.5Z"/><path fill="#1F9C58" id="MOp2/3" d="M97 151c-1.4 0-1.4 2 0 2v-2Z"/><path fill="#209666" id="AId6a" d="M131 181h1v-1c-8.131 0-2.29-12.105 1.5-14 4.571-2.285 5.65 3 9.5 3l1-2v-1c0-4.425-1-9.961-1-15-9.176 0-16.007 13-25 13 0 6.237 5.89 17 13 17Z"/><path fill="#A3DAA3" id="DP" d="M205 174c0-1.777 9.717-1 11.5-1 4.708 0 31.187-1.406 34 0l1.5 2c0-1.211 4.166-4.833 5-6.5.783-1.566-1.35-9.5 1-9.5v-1c0-1.564-1-3.876-1-6-3.962 0-8.688 1-12 1h-16c0 9.17-1 9.17-1 0h-16c-3.743 0-9.314-2-13-2v9c0 4.327.106 14 6 14Z"/><path fill="#1B7E63" id="SSp-m5" d="M359 157h1v-3c-1.473 0-1 1.952-1 3Z"/><path fill="#009C74" id="GU4" d="M95 173h1v-16h-4v1c2.222 0 .043 15 3 15Z"/><path fill="#019C75" id="GU5" d="M100 171c0 2.109-2.534 2-4 2v-16h1c0 4.569 3 9.062 3 14ZM357 171c0 2.109 2.535 2 4 2l-1-16h-1c0 2.65-3 5.21-3 7.5 0 1.507 1 4.353 1 6.5Z"/><path fill="#009C74" id="GU4" d="M361 174h1l2-17h-4l1 16v1Z"/><path fill="#009B75" id="GU2/3" d="m362 174 11 5c0-5.558 3-11.715 3-18 0-.526-10.781-4-12-4l-2 17ZM95 173c0 1.628-10.38 6-12 6 0-5.944-3-11.778-3-18l12-3c2.222 0 .043 15 3 15Z"/><path fill="#99D2BD" id="OLF" d="m255 196-3.5 3c-2.073 1.036-20.5 10.754-20.5 3 17.351 0 21-10.996 21-27 0-1.211 4.166-4.833 5-6.5.783-1.566-1.35-9.5 1-9.5 0 1.597 5.928 9 7 9v5c-1.496 0-4 11.357-4 13l-5 9-1 1ZM201 196c3.432 0 11.978 9 17 9 2.176 0 7 .348 7-3-18.795 0-20-13.189-20-28-5.894 0-6-9.673-6-14l-7 7-1 5c1.313 0 5 13.279 5 15l5 9Z"/><path fill="#009C75" id="GU1" d="m83 180-4 1-3-19 4-1c0 6.222 3 12.056 3 18v1ZM373 180l4 1c0-6.026 4-12.756 4-19l-4-1h-1c0 6.285-3 12.442-3 18v1Z"/><path fill="#219665" id="AIv6b" d="m312 167-4 1v-1l2-4 2 3v1Z"/><path fill="#209665" id="AId5" d="M102 197h1c4.687 0 28-10.649 28-16-7.11 0-13-10.763-13-17-5.851 0-11.569 7-18 7 0 2.109-2.534 2-4 2 0 4.129 2.304 24 6 24Z"/><path fill="#219665" id="AIv6b" d="m149 167-1 1-4-1v-1l3-2 2 3Z"/><path fill="#8ADA86" id="CLA" d="M134 182c4.136 0 7.278 2 13 2 2.359 0 3.698-4 5-4 0-4.561-3-5.284-3-7-2.773 0-3.67-4-6-4-3.85 0-4.929-5.285-9.5-3-3.79 1.895-9.631 14-1.5 14l2 2ZM322 182l-7.5 3-4.5-1c-2.364 0-3.053-3-5-3l-1-4.5 3-2.5 7-6 5.5-3c2.627 0 11.112 6.275 9.5 9.5-.834 1.667-5 5.289-5 6.5l-2 1Z"/><path fill="#209665" id="AId5" d="M354 197h1c0-2.572 6-15.926 6-23v-1c-1.465 0-4 .109-4-2-6.484 0-11.822-6-18-6-1.59 0-1.443 4.386-2 5.5-2.161 4.322-6.464 10.5-12 10.5 0 5.378 24.193 16 29 16Z"/><path fill="#1F9866" id="AIv6a" d="M143 169c2.33 0 3.227 4 6 4l-1-5-4-1-1 2Z"/><path fill="#248A5C" id="ORBl6b" d="M148 168h1v-1l-1 1Z"/><path fill="#C8CBCC" id="ec" d="M153 171c0 1.839 8.481 6 10 6 0-2.498-2.225-10-5-10-1.624 0-2.75 2-5 2v2ZM304 170c0 2.915-7.775 6-10 6 0-2.453 1.762-9 5-9 0 2.461 3.378 2 5 2v1Z"/><path fill="#248A5C" id="ORBl6b" d="M307 168h1v-1l-1 1Z"/><path fill="#1F9866" id="AIv6a" d="m314 168-7 6c0-2.488 1-3.99 1-6l4-1 2 1Z"/><path fill="#24895D" id="ORBl6a" d="m162 182-5 5c-3.778 0-5-3.981-5-7 0-4.561-3-5.284-3-7l-1-5h1l4 3c0 1.839 8.481 6 10 6v2l-1 1v2ZM295 182l5 5c4.042 0 2.371-6 5-6l-1-4.5 3-2.5c0-2.488 1-3.99 1-6h-1l-3 2c0 2.915-7.775 6-10 6v4l1 2Z"/><path fill="#97D6F9" id="STR" d="M196 187c-6.291 0-7.9 2-13 2l6-4.5 2-12.5c1.313 0 5 13.279 5 15Z"/><path fill="#209765" id="AId2/3" d="M91 201h1c1.01 0 10-3.433 10-4-3.696 0-6-19.871-6-24h-1c0 1.628-10.38 6-12 6v1c0 6.895 8 14.192 8 21Z"/><path fill="#61D09F" id="TTd" d="m226 201-1 1c-18.795 0-20-13.189-20-28 0-1.777 9.717-1 11.5-1 4.708 0 31.187-1.406 34 0l1.5 2c0 16.004-3.649 27-21 27l-2-4c0-4.427-2-1.868-2 1l-1 2Z"/><path fill="#97D6F9" id="STR" d="M261 186c4.922 0 7.494 3 12 3 0-.434-5.185-4.87-6-6.5-.74-1.479-.079-9.5-2-9.5-1.496 0-4 11.357-4 13Z"/><path fill="#209765" id="AId2/3" d="M355 197c0 1.018 8.863 4 10 4 0-5.448 8-14.363 8-21v-1l-11-5h-1c0 7.074-6 20.428-6 23Z"/><path fill="#C8CBCC" id="ec" d="m163 179-1 1 1-1Z"/><path fill="#209764" id="AId1" d="M91 201c0 1.579-2.855 1-4 1 0-5.291-8-14.831-8-21l4-1c0 6.895 8 14.192 8 21Z"/><path fill="#1F9866" id="AIv6a" d="m132 181 2 1-2-2v1ZM157 187c0 2.262-8.581 8-10 8 0-2.029 1.191-1.881 2-3.5 1.558-3.117-2-5.401-2-7.5 2.359 0 3.698-4 5-4 0 3.019 1.222 7 5 7Z"/><path fill="#C8CBCC" id="ec" d="M294 182h1l-1-2v2Z"/><path fill="#209764" id="AId1" d="m365 201 4 1c0-5.256 8-14.221 8-21l-4-1c0 6.637-8 15.552-8 21Z"/><path fill="#1F9865" id="AIv5" d="M127 207h4c0-.46 10.755-7 12-7l3-3 1-1v-1c0-2.029 1.191-1.881 2-3.5 1.558-3.117-2-5.401-2-7.5-5.722 0-8.864-2-13-2l-2-1h-1c0 5.351-23.313 16-28 16 0 8.605 13.482 4.491 18.5 7l5.5 3Z"/><path fill="#1F9866" id="AIv6a" d="M300 187c0 1.875 8.374 9 10 9l-3-5.5c-1.811-3.622 3-4.894 3-6.5-2.364 0-3.053-3-5-3-2.629 0-.958 6-5 6ZM324 181l-2 1 2-1Z"/><path fill="#1F9865" id="AIv5" d="M326 207h4l1.5-2c4.014-2.007 22.5-.204 22.5-8-4.807 0-29-10.622-29-16h-1l-2 1-7.5 3-4.5-1c0 1.606-4.811 2.878-3 6.5l3 5.5c0 2.299 9.527 8.013 11.5 9 .93.465 4.5.817 4.5 2Z"/><path fill="#99D2BD" id="OLF" d="m152 249 3 1 10-5c0-2.267-1.43-7.639 0-10.5 1.671-3.342 4-7.576 4-11.5 0-2.447-2-3.28-2-6-4.143 0-7-4.134-7-8-3.568 0 1-13.904 1-15 0-1.235-.643-5 1-5v-7l-5 5c0 2.262-8.581 8-10 8v1l-1 1-3 3c3.253 0 7.725-3.888 11.5-2l2.5 2.5v7c2.467 4.934 4.509 10.018 7 15 .686 1.372-.22 3.86-1.5 4.5-6.017 3.008-8.48-4-13.5-4 0 .139 9.811 10.122 11 12.5 2.995 5.99-8 9.144-8 13.5ZM302 250h4l-9-9.5c-3.933-7.866 8-10.173 8-15.5-4.485 0-6.807 4.347-11.5 2-4.375-2.187 2.313-10.127 3.5-12.5l3-10 .5-5.5c9.033-4.517 16.224 3.947 19.5 10.5l-1 4.5c2.631 0 1.197-7 7-7 0-1.183-3.57-1.535-4.5-2-1.973-.987-11.5-6.701-11.5-9-1.626 0-10-7.125-10-9l-5-5h-1c0 1.819 1 4.591 1 7 0 5.752 2 9.904 2 16 0 1.235.643 5-1 5 0 5.272-3.45 6-7 6 0 2.805-2 4.541-2 7 0 6.711 5 13.482 5 22l10 5Z"/><path fill="#80CDF8" id="ACB" d="M213 233c0 3.047 1.717 8.065 0 11.5-3.346 6.692-16.636 16.932-23.5 13.5h-7c-5.109-2.555-17.5-4.93-17.5-13 0-2.267-1.43-7.639 0-10.5 1.671-3.342 4-7.576 4-11.5h1l2 2c3.795 0 7 .39 7-5.5 0-14.852-12-9.925-12-2.5-4.143 0-7-4.134-7-8 1.951 0 .477-2.454 1-3.5 1.83-3.66 3.262-6.262 6.5-9.5l12.5-6 2-1h1c5.1 0 6.709-2 13-2l5 9 4 5.5c1.855 3.71 8 27.053 8 31.5ZM243 233v10.5c5.613 11.226 22.205 19.647 34.5 13.5l11-6 3.5-6c0-8.518-5-15.289-5-22h-1l-1 1c0 7.96-11.593-4.314-8-11.5 2.74-5.479 12-1.636 12 3.5 3.55 0 7-.728 7-6 0-5.898-3.51-12.505-8.5-15l-10.5-5h-1l-2-1h-1c-4.506 0-7.078-3-12-3l-5 9-1 1c0 2.827-2.831 4.163-4 6.5-1.317 2.635-8 27.511-8 30.5Z"/><path fill="#97D6F9" id="STR" d="m180 190-12.5 6c-3.238 3.238-4.67 5.84-6.5 9.5-.523 1.046.951 3.5-1 3.5-3.568 0 1-13.904 1-15 0-1.235-.643-5 1-5 0 4.451 15.763 1 18 1ZM182 189l-2 1 2-1ZM274 189l2 1-2-1ZM277 190l10.5 5c4.99 2.495 8.5 9.102 8.5 15 1.643 0 1-3.765 1-5 0-6.096-2-10.248-2-16l-2.5 2c-4.112 2.056-11.536-1-15.5-1Z"/><path fill="#99D2BD" id="OLF" d="m229 198-2 1c0-2.868 2-5.427 2-1Z"/><path fill="#97D6F9" id="STR" d="m256 195-1 1 1-1Z"/><path fill="#1F9866" id="AIv6a" d="m147 196-1 1 1-1Z"/><path fill="#97D6F9" id="STR" d="M222 255c1.665 0 1-4.222 1-5.5l3-14 2.5-2.5c3.289 1.644 4.5 13.419 4.5 17 0 1.357.647 6 2 6 0-3.618 2-6.154 2-9-1.156 0-1.472-2.555-1-3.5 1.276-2.551 4.186-10.5 7-10.5 0-2.989 6.683-27.865 8-30.5 1.169-2.337 4-3.673 4-6.5l-3.5 3c-2.073 1.036-20.5 10.754-20.5 3l-2-4-2 1-1 2-1 1c0 3.348-4.824 3-7 3-5.022 0-13.568-9-17-9l4 5.5c1.855 3.71 8 27.053 8 31.5 5.487 0 7 11.928 7 15 0 2.16 2 4.167 2 7Z"/><path fill="#219764" id="AIv2/3" d="M127 207c0 2.334-4.181 1.341-5.5 2-4.46 2.23-13.543 6-18.5 6 0-4.803-11-8.489-11-14 1.01 0 10-3.433 10-4h1c0 8.605 13.482 4.491 18.5 7l5.5 3ZM330 207c0 2.02 19.509 7 23 7 3.205 0 12-10.045 12-13-1.137 0-10-2.982-10-4h-1c0 7.796-18.486 5.993-22.5 8l-1.5 2Z"/><path fill="#A0EE9C" id="EPd" d="M148 223h1c5.02 0 7.483 7.008 13.5 4 1.28-.64 2.186-3.128 1.5-4.5-2.491-4.982-4.533-10.066-7-15v-7l-2.5-2.5c-3.775-1.888-8.247 2-11.5 2 0 1.566-6 5.882-6 13v1l11 9ZM308 223c-1.238 0-3 .423-3 2-4.485 0-6.807 4.347-11.5 2-4.375-2.187 2.313-10.127 3.5-12.5l3-10 .5-5.5c9.033-4.517 16.224 3.947 19.5 10.5l-1 4.5c-1.577 0-2 1.762-2 3-1.747 0-2 .253-2 2h-1l-1 1-2 1c-1.238 0-3 .423-3 2Z"/><path fill="#99D2BD" id="OLF" d="M131 207c3.795 0 3.903 6 6 6 0-7.118 6-11.434 6-13-1.245 0-12 6.54-12 7Z"/><path fill="#209864" id="AIv1" d="M103 215c-2.124 0-4.436 1-6 1l-10-14c1.145 0 4 .579 4-1h1c0 5.511 11 9.197 11 14Z"/><path fill="#99D2BD" id="OLF" d="m226 201-1 1 1-1Z"/><path fill="#209864" id="AIv1" d="M353 214c0 .675 5.294 2 6 2 1.785 0 10-12.155 10-14l-4-1c0 2.955-8.795 13-12 13Z"/><path fill="#6ACAB9" id="PIR" d="M139 254h2c2.799 0 5.826-4 9-4l1-1h1c0-4.356 10.995-7.51 8-13.5-1.189-2.378-11-12.361-11-12.5h-1c-2.75 0-11-6.325-11-9v-1c-2.097 0-2.205-6-6-6h-4c0 2.334-4.181 1.341-5.5 2-4.46 2.23-13.543 6-18.5 6-2.124 0-4.436 1-6 1 0 5.705 12.888 25 19 25 8.727 0 20.487 13 23 13ZM315 254h3c0-3.708 18.384-13 22-13 7.318 0 19-18.694 19-25-.706 0-6-1.325-6-2-3.491 0-23-4.98-23-7h-4c-5.803 0-4.369 7-7 7 0 1.238-.423 3-2 3l-2 2h-1l-1 1-2 1c0 1.577-1.762 2-3 2 0 1.577-1.762 2-3 2 0 5.327-11.933 7.634-8 15.5l9 9.5h1l1 1c2.971 0 4.768 3 7 3Z"/><path fill="#CBCBC7" id="aco" d="m170 223 2 2c3.795 0 7 .39 7-5.5 0-14.852-12-9.925-12-2.5 0 2.72 2 3.553 2 6h1ZM286 223h1c0-2.459 2-4.195 2-7 0-5.136-9.26-8.979-12-3.5-3.593 7.186 8 19.46 8 11.5l1-1Z"/><path fill="#99D2BD" id="OLF" d="m137 214 11 9c-2.75 0-11-6.325-11-9ZM319 214c-1.577 0-2 1.762-2 3 1.577 0 2-1.762 2-3ZM317 217c-1.747 0-2 .253-2 2l2-2ZM314 219l-1 1 1-1ZM313 220l-2 1 2-1ZM311 221c-1.238 0-3 .423-3 2 1.238 0 3-.423 3-2ZM170 223l2 2-2-2ZM286 223l-1 1 1-1ZM308 223c-1.238 0-3 .423-3 2 1.238 0 3-.423 3-2Z"/><path fill="#A2B1D7" id="SI" d="m220 248-2.5-2-4.5 8.5c-2.081 4.163-12.063 8.282-16.5 10.5-7.993 3.996-25.944-4.972-32-8-1.621-.811-9.5-5.116-9.5-7l10-5c0 8.07 12.391 10.445 17.5 13h7c6.864 3.432 20.154-6.808 23.5-13.5 1.717-3.435 0-8.453 0-11.5 5.487 0 7 11.928 7 15ZM237 247c3.796 0 3.987 4.487 7.5 8 4.565 4.565 9.643 7.322 15 10 9.856 4.928 27.734-6.367 35-10l7.5-5-10-5-3.5 6-11 6c-12.295 6.147-28.887-2.274-34.5-13.5V233c-2.814 0-5.724 7.949-7 10.5-.472.945-.156 3.5 1 3.5Z"/><path fill="#CAC8C7" id="lot" d="M138 259h1v-5c-2.513 0-14.273-13-23-13 0 3.556 17.654 18 22 18ZM317 259h2c3.808 0 21-14.369 21-18-3.616 0-22 9.292-22 13l-1 1v4Z"/><path fill="#7FCCF7" id="OT" d="m218 266-1 1c0 6.358-10.061 10.781-14.5 13l-6 3c-1.927.964-5.545-.272-7-1h-24c-4.132-2.066-7.806-4.903-12-7-3.644-1.822-12.5-8.215-12.5-13l-2-3v-3l2-2c2.799 0 5.826-4 9-4l1-1h1l3 1c0 1.884 7.879 6.189 9.5 7 6.056 3.028 24.007 11.996 32 8 4.437-2.218 14.419-6.337 16.5-10.5l4.5-8.5 2.5 2c0 2.16 2 4.167 2 7-1.473 0-1 1.952-1 3v2l-1 1v1l-1 1-1 3ZM239 268l1 1c0 4.456 7.523 7.511 10.5 9l9 5c1.927.964 5.545-.272 7-1h24l7-3c4.66-2.33 8.52-5.52 12.5-9.5l4-4.5 1-1v-1l1-1 1-2v-5l-2-1c-2.232 0-4.029-3-7-3l-1-1h-5l-7.5 5c-7.266 3.633-25.144 14.928-35 10-5.357-2.678-10.435-5.435-15-10-3.513-3.513-3.704-8-7.5-8 0 2.846-2 5.382-2 9v3l1 1v1l1 1v2l2 2v2Z"/><path fill="#99D2BD" id="OLF" d="m151 249-1 1 1-1ZM307 250l1 1-1-1ZM141 254l-2 2v-2h2ZM318 254l-1 1-2-1h3Z"/><path fill="#97D6F9" id="STR" d="M222 255c-1.473 0-1 1.952-1 3 1.473 0 1-1.952 1-3Z"/><path fill="#99D2BD" id="OLF" d="M139 259v1l-1-1h1Z"/><path fill="#97D6F9" id="STR" d="m139 260 2 2-2-3v1ZM235 259l1 1-1-1Z"/><path fill="#99D2BD" id="OLF" d="M317 260v1l2-2h-2v1Z"/><path fill="#97D6F9" id="STR" d="m221 260-1 1 1-1ZM317 261l-1 1 1-2v1ZM236 261l1 1-1-1ZM220 262l-1 1 1-1ZM316 262l-1 1 1-1ZM237 264l2 2-2-2ZM315 264l-1 1 1-1ZM218 266l-1 1 1-1ZM239 268l1 1-1-1Z"/></svg>