<svg xmlns="http://www.w3.org/2000/svg" viewBox="0 0 456 320"><path fill="#1E9C59" id="MOs1" d="M116 114h1c0-5.409 9.046-13.546 13-17.5 15.203-15.203 26.427-14.964 43.5-23.5 3.56-1.78 8.385-1.193 12-3 5.603-2.802 29.5 4.65 29.5 10l4-3c0-11.938-23.93-14-32.5-14-14.422 0-47.017 16.017-57.5 26.5-2.588 2.588-14 14.898-14 17.5 1.186 0 1.186 1 0 1l1 6ZM342 109c-1.684 0-1 4.679-1 6l-8-11.5c-4.782-9.565-18.824-18.162-27.5-22.5-9.128-4.564-40.379-15.31-51-10l-9 5-4.5 4c0-.966-2.886-3-4-3l2-2.5c5.723-11.446 19.79-11.5 31.5-11.5 14.363 0 46.523 16.523 56.5 26.5 2.92 2.92 14 14.245 14 17.5l1 1v1Z"/><path fill="#1E9D58" id="MOs2/3" d="m127 151-4 1c-2.535 0-2.229-5.958-3-7.5-3.422-6.844-4-19.805-4-28.5l1-2c0-5.409 9.046-13.546 13-17.5 15.203-15.203 26.427-14.964 43.5-23.5 3.56-1.78 8.385-1.193 12-3 5.603-2.802 29.5 4.65 29.5 10v1l-5 4c-4.496 0-13.009-8.745-20.5-5l-16 5c-22.148 11.074-34.899 19.297-46.5 42.5-3.175 6.35 0 15.872 0 22.5v1ZM329 150l5 3c0-4.404 5-14.9 5-19.5v-14l2-2c0-.538-2.043-1.5 0-1.5v-1l-8-11.5c-4.782-9.565-18.824-18.162-27.5-22.5-9.128-4.564-40.379-15.31-51-10l-9 5-4.5 4v1c3.086 0 2.914 4 6 4 1.998 0 12.818-8.341 19.5-5 3.602 1.801 8.428 1.214 12 3 23.207 11.604 38.144 18.787 50.5 43.5 3.958 7.916 0 15.697 0 23.5Z"/><path fill="#3EA665" id="ACAd1" d="M227 91c-2.447 0-3.28 2-6 2 0-2.833-3.072-12-6-12v-1l4-3c2.377 0 8 11.748 8 14ZM230 91l5 2c0-1.994 3.618-12 6-12v-1c0-.966-2.886-3-4-3 0 4.44-7 8.554-7 14Z"/><path fill="#1F9D58" id="MOs5" d="m150 134-23 16c0-6.628-3.175-16.15 0-22.5 11.601-23.203 24.352-31.426 46.5-42.5l16-5c7.491-3.745 16.004 5 20.5 5v1c-2.293 0-11 10.967-11 13-2.151 0-7 2.323-7 5h-1c-13.112 0-40 14.545-40 29l-1 1ZM306 134c6.392 0 16.721 16 23 16 0-7.803 3.958-15.584 0-23.5-12.356-24.713-27.293-31.896-50.5-43.5-3.572-1.786-8.398-1.199-12-3-6.682-3.341-17.502 5-19.5 5v1l11 13c1.668 0 6 3.099 6 5h1c12.754 0 41 14.463 41 29v1Z"/><path fill="#40A565" id="ACAd2/3" d="m221 93-6 2c0-1.736-2.935-9-5-9v-1l5-4c2.928 0 6 9.167 6 12ZM241 95h1c0-2.381 1.584-9 5-9v-1c-3.086 0-2.914-4-6-4-2.382 0-6 10.006-6 12 .986 0 6 1.087 6 2Z"/><path fill="#3EA566" id="ACAd5" d="M215 95c-5.691 0-10.687 4-16 4 0-2.033 8.707-13 11-13 2.065 0 5 7.264 5 9ZM242 95c4.293 0 10.856 4 16 4l-11-13c-3.416 0-5 6.619-5 9Z"/><path fill="#2FA750" id="PL1" d="M223 127h10l2-34-5-2c-.476 0-3 3.803-3 0-2.447 0-3.28 2-6 2 0 10.753 2 22.339 2 34Z"/><path fill="#2FA74F" id="PL2/3" d="M219 127h4c0-11.661-2-23.247-2-34l-6 2c0 4.844 1.862 13.225 4 17.5V127ZM233 127h4c0-11.556 4-21.155 4-32 0-.913-5.014-2-6-2l-2 34Z"/><path fill="#2EA84F" id="PL5" d="M201 120c5.654 0 11.815 7 18 7v-14.5c-2.138-4.275-4-12.656-4-17.5-5.691 0-10.687 4-16 4-2.151 0-7 2.323-7 5 6.764 0 9 9.52 9 15v1ZM255 120c-5.635 0-11.634 7-18 7 0-11.556 4-21.155 4-32h1c4.293 0 10.856 4 16 4 1.668 0 6 3.099 6 5-6.574 0-9 10.65-9 16Z"/><path fill="#1D9C5A" id="MOs6a" d="M151 133h9l5-8c-5.423 0 1.545-9.022 3.5-10 6.34-3.17 11.791-6 19.5-6l3-5c-13.112 0-40 14.545-40 29Z"/><path fill="#2FA850" id="PL6a" d="m193 115 8 4c0-5.48-2.236-15-9-15h-1l-3 5 5 6ZM263 115c-3.23 0-5.26 5-8 5 0-5.35 2.426-16 9-16h1l3 5-4 5-1 1Z"/><path fill="#1D9C5A" id="MOs6a" d="M297 133h9c0-14.537-28.246-29-41-29l3 5c8.125 0 13.844 2.672 20.5 6 .909.454 7.411 10 3.5 10 0 1.28 3.755 8 5 8Z"/><path fill="#1E9D5A" id="MOp1" d="M115 107c1.186 0 1.186 1 0 1v-1ZM341 107l1 1-1-1ZM116 156l-6 3-3-6.5c-4.65-9.301-2.227-25.547 2-34 .939-1.879 3.37-10.5 6-10.5l1 6v1l-1 1c0 7.417-8.514 19.473-4 28.5l5 11.5Z"/><path fill="#268E44" id="FRP6a" d="m184 116 8 1c2.787 0 1 1.212 1-2l-5-6c-7.709 0-13.16 2.83-19.5 6-1.955.978-8.923 10-3.5 10 6.329 0 11.979-9 19-9ZM273 116l19 9c3.911 0-2.591-9.546-3.5-10-6.656-3.328-12.375-6-20.5-6l-4 5-1 1 1 2c2.723 0 5.778-1 9-1Z"/><path fill="#1E9D5A" id="MOp1" d="m340 156 6 3c2.711 0 3.016-10.533 4-12.5 3.978-7.956.339-21.322-3-28-.829-1.658-2.705-9.5-5-9.5-1.684 0-1 4.679-1 6v1l3 6.5c2.864 5.728 2.786 18.428 0 24-.767 1.535-1.845 8.5-4 8.5v1Z"/><path fill="#1F9C58" id="MOp2/3" d="M116 115v1l1-2h-1v1Z"/><path fill="#22885E" id="ORBm6a" d="m264 114-1 1 1-1Z"/><path fill="#1E9C59" id="MOs1" d="M115 116h1v-1l-1 1Z"/><path fill="#22885E" id="ORBm6a" d="M198 128h1c0-1.996 2-4.985 2-8v-1l-8-4c0 3.212 1.787 2-1 2 0 3.79 6 6.935 6 11ZM255 120c0 2.185-.119 8 3 8l6-11-1-2c-3.23 0-5.26 5-8 5Z"/><path fill="#1F9C58" id="MOp2/3" d="M116 156h1l6-4c-2.535 0-2.229-5.958-3-7.5-3.422-6.844-4-19.805-4-28.5h-1c0 7.417-8.514 19.473-4 28.5l5 11.5Z"/><path fill="#24895D" id="ORBl6a" d="M160 133c0 3.102-4 6.299-4 10 6.927 0 13.911-12 24-12l1-1c0-5.296 3-9.447 3-14-7.021 0-12.671 9-19 9l-5 8Z"/><path fill="#238A5C" id="ORBvl6a" d="M198 128c-5.368 0-11.041 2-17 2 0-5.296 3-9.447 3-14l8 1c0 3.79 6 6.935 6 11ZM258 128c5.571 0 12.429 3 18 3 0-5.31-3-9.221-3-15-3.222 0-6.277 1-9 1l-6 11Z"/><path fill="#24895D" id="ORBl6a" d="m297 133 4 10c-7.658 0-14.077-12-25-12 0-5.31-3-9.221-3-15l19 9c0 1.28 3.755 8 5 8Z"/><path fill="#1F9C58" id="MOp2/3" d="M334 153c2.447 0 3.28 2 6 2 2.155 0 3.233-6.965 4-8.5 2.786-5.572 2.864-18.272 0-24l-3-6.5c-2.043 0 0 .962 0 1.5l-2 2v14c0 4.6-5 15.096-5 19.5Z"/><path fill="#23885E" id="ORBm5" d="M199 128c0 7.758 15 24.102 15 31 7.404 0 5-27.646 5-32-6.185 0-12.346-7-18-7 0 3.015-2 6.004-2 8ZM242 159h1c0-7.918 15-24.067 15-31-3.119 0-3-5.815-3-8-5.635 0-11.634 7-18 7 0 5.451-1.162 32 5 32Z"/><path fill="#24885D" id="ORBm2/3" d="m214 159 5 12c4.357 0 2.907-7.314 4-9.5 4.469-8.938 0-24.962 0-34.5h-4c0 4.354 2.404 32-5 32Z"/><path fill="#23895D" id="ORBm1" d="M227 178c-1.947 0-2.636 3-5 3 0-3.606-3-6.972-3-10 4.357 0 2.907-7.314 4-9.5 4.469-8.938 0-24.962 0-34.5h10l-1 31.5c1.369 2.737.65 6.3 2 9l3 3.5c0 3.071-2 5.362-2 9 0 4.428-5.056-3-6-3 0-5.611-2-2.724-2 1Z"/><path fill="#24885D" id="ORBm2/3" d="M237 171h1c0-4.677 4-7.569 4-12-6.162 0-5-26.549-5-32h-4l-1 31.5c1.369 2.737.65 6.3 2 9l3 3.5Z"/><path fill="#23885C" id="ORBvl5" d="M182 147c12.425 0 20.545 12 32 12 0-6.898-15-23.242-15-31h-1c-5.368 0-11.041 2-17 2v17h1ZM275 147c-13.062 0-22.597 12-32 12 0-7.918 15-24.067 15-31 5.571 0 12.429 3 18 3 0 4.939-1 10.198-1 16Z"/><path fill="#238A5C" id="ORBvl6a" d="M180 131h1v-1l-1 1Z"/><path fill="#228A5D" id="ORBl5" d="m149 162-2 11c6.208 0 21.371-14.871 26-19.5l8-6.5v-16h-1c-10.089 0-17.073 12-24 12h-1c0 6.174-5 11.24-5 17l-1 2ZM307 162c0 3.982 2 6.704 2 11-11.204 0-24.24-25-34-25v-1c0-5.802 1-11.061 1-16 10.923 0 17.342 12 25 12 0 5.511 5 10.792 5 16l1 1v2Z"/><path fill="#209666" id="AId6a" d="M155 143h1c0-3.701 4-6.898 4-10h-9l-1 1c0 2.921 1.109 9 5 9ZM306 134c0 4.135-.059 9-5 9l-4-10h9v1Z"/><path fill="#209665" id="AId5" d="M141 174h1c0-1.633 5.535-12 7-12l1-2c0-5.76 5-10.826 5-17-3.891 0-5-6.079-5-9l-23 16v1c.342 0 9.936 23 14 23ZM307 162c2.683 0 5.074 8.649 6 10.5l2 1.5c4.019 0 14-20.022 14-24-6.279 0-16.608-16-23-16 0 4.135-.059 9-5 9 0 5.511 5 10.792 5 16l1 1v2Z"/><path fill="#238A5E" id="ORBl2/3" d="M147 174c0 .981-2.681 8 0 8 4.595 0 8.498-7.999 12.5-10 10.059-5.029 14.071-13 26.5-13 0-4.16-4-7.263-4-12h-1l-8 6.5c-4.629 4.629-19.792 19.5-26 19.5v1Z"/><path fill="#248A5D" id="ORBvl2/3" d="m214 159 5 12c-11.561 0-22.624-12-33-12 0-4.16-4-7.263-4-12 12.425 0 20.545 12 32 12ZM271 159c-11.642 0-20.959 12-33 12 0-4.677 4-7.569 4-12h1c9.403 0 18.938-12 32-12v1c0 4.82-4 7.014-4 11Z"/><path fill="#238A5E" id="ORBl2/3" d="M310 174v9l-9.5-8c-11.416-5.708-15.244-16-29.5-16 0-3.986 4-6.18 4-11 9.76 0 22.796 25 34 25l1 1Z"/><path fill="#209765" id="AId2/3" d="M315 175c2.498 0 4.529 7 8 7 0-3.266 17-20.227 17-26v-1c-2.72 0-3.553-2-6-2l-5-3c0 3.978-9.981 24-14 24v1ZM141 174c0 1.852-4.927 8-7 8-1.783 0-17-23.031-17-26l6-4 4-1c.342 0 9.936 23 14 23Z"/><path fill="#209764" id="AId1" d="m134 183-5 3c0-3.119-19-20.062-19-27l6-3h1c0 2.969 15.217 26 17 26v1ZM323 183l4 3c1.801 0 19-24.173 19-27l-6-3c0 5.773-17 22.734-17 26v1Z"/><path fill="#238A5D" id="ORBl1" d="M155 183c-2.773 0-3.67 4-6 4l-2-4v-1c4.595 0 8.498-7.999 12.5-10 10.059-5.029 14.071-13 26.5-13v6c-4.875 0-29 10.306-29 16-1.747 0-2 .253-2 2Z"/><path fill="#248A5B" id="ORBvl1" d="M219 171c0 3.028 3 6.394 3 10-7.913 0-24.214-16-36-16v-6c10.376 0 21.439 12 33 12ZM237 171h1c12.041 0 21.358-12 33-12l-1 6c-12.25 0-24.048 15-35 15 0-3.638 2-5.929 2-9Z"/><path fill="#238A5D" id="ORBl1" d="m310 183-3 4c-3.368 0-8.188-8.844-10.5-10-8.573-4.286-15.695-12-26.5-12l1-6c14.256 0 18.084 10.292 29.5 16l9.5 8Z"/><path fill="#1F9865" id="AIv5" d="m306 159 1 1-1-1ZM150 160l-1 2 1-2ZM142 174c0 2.36 3.959 0 5 0v-1l2-11c-1.465 0-7 10.367-7 12ZM315 174v1l-5-1-1-1c0-4.296-2-7.018-2-11 2.683 0 5.074 8.649 6 10.5l2 1.5Z"/><path fill="#99D2BD" id="OLF" d="M213 193c0 8.238-1.451 18.598 2 25.5 3.012 6.023 11 3.315 11 10.5 2.427 0 .139-9.778 1-11.5 1.943-3.886 0-33.333 0-39.5-1.947 0-2.636 3-5 3-7.913 0-24.214-16-36-16-4.875 0-29 10.306-29 16 3.504 0 5.551-4.525 8.5-6 6.157-3.079 12.921-4.961 19-8 5.684-2.842 17.916 12 21.5 12 3.707 0 6.605.053 10.5 2 3.851 1.925 3.851 12.075 0 14l-3.5-2ZM311 210l1 3 2.5-3c9.094-9.094 1.5-8.074 1.5-17 0-1.465-9-3.398-9-6-3.368 0-8.188-8.844-10.5-10-8.573-4.286-15.695-12-26.5-12-12.25 0-24.048 15-35 15 0 4.428-5.056-3-6-3v37.5c0 1.783-.777 11.5 1 11.5l4.5-3c11.182-5.591 9.5-19.131 9.5-31l-4.5 3c-3.179-1.59-4.147-11.927 0-14 4.106-2.053 7.491-2 11.5-2 0-3.227 13.136-8.818 15.5-10 10.047-5.023 36.978 11.457 42.5 22.5 2.469 4.937 3 7.934 3 14 0 1.19.614 4.5-1 4.5Z"/><path fill="#54BF94" id="AON" fill-rule="evenodd" d="M179 193c0 3.214 6.942 17.384 9 21.5l4.5 4.5c2.436-1.218.472-12.556-.5-14.5-2.314-4.627 2.138-7.725 1-10-1.505-3.011-10.981-1.5-14-1.5m-2 50 3.5 3 12.5 7c0-10.124 7.899-19.7 16.5-24H220l2 1h1l2 1h1v-2c0-7.185-7.988-4.477-11-10.5-3.451-6.902-2-17.262-2-25.5 0-4.825-7-8.127-7-14-3.584 0-15.816-14.842-21.5-12-6.079 3.039-12.843 4.921-19 8-2.949 1.475-4.996 6-8.5 6l-2 2-10 11.5c-.939 1.879-2.748 15.5 1 15.5 6.988 0 31 27.455 31 33ZM264 193c0 1.648 1.293 8.915 1 9.5-1.593 3.186-2 5.586-2 9.5 0 2.151-.815 5.843 1.5 7l4.5-4.5c2.148-4.295 2.806-9.613 5-14l4-6c0-2.565-12.107-1.5-14-1.5m15 50c0 2.771-12.471 9-15 9 0-8.507-9.301-19.4-16.5-23H237c-1.048 0-3-.473-3 1h-1l-1 1h-1l-1-1v-4l4.5-3c11.182-5.591 9.5-19.131 9.5-31l1-1c0-4.369 6-7.222 6-12 0-3.227 13.136-8.818 15.5-10 10.047-5.023 36.978 11.457 42.5 22.5 2.469 4.937 3 7.934 3 14 0 1.19.614 4.5-1 4.5-9.954 0-22.315 17.131-26 24.5-1.341 2.682-6 4.321-6 7.5v1Z"/><path fill="#219764" id="AIv2/3" d="m134 183 3.5 3c4.028 2.014 6.698-3 9.5-3v-1c-2.681 0 0-7.019 0-8-1.041 0-5 2.36-5 0h-1c0 1.852-4.927 8-7 8v1ZM310 183c1.718 0 4.838 4.831 8.5 3 2.029-1.014 2.271-3 4.5-3v-1c-3.471 0-5.502-7-8-7l-5-1v9Z"/><path fill="#61D09F" id="TTd" d="M206 179c3.707 0 6.605.053 10.5 2 3.851 1.925 3.851 12.075 0 14l-3.5-2c0-4.825-7-8.127-7-14ZM245 191l-1 1-4.5 3c-3.179-1.59-4.147-11.927 0-14 4.106-2.053 7.491-2 11.5-2 0 4.778-6 7.631-6 12Z"/><path fill="#99D2BD" id="OLF" d="M157 181c-1.747 0-2 .253-2 2l2-2Z"/><path fill="#209864" id="AIv1" d="M149 187c0 1.703-7.441 6-9 6-3.759 0-11-2.176-11-7l5-3 3.5 3c4.028 2.014 6.698-3 9.5-3l2 4Z"/><path fill="#99D2BD" id="OLF" d="m146 210-1 3-3.5-3c-9.167-9.167-1.5-8.347-1.5-17 1.559 0 9-4.297 9-6 2.33 0 3.227-4 6-4l-10 11.5c-.939 1.879-2.748 15.5 1 15.5Z"/><path fill="#209864" id="AIv1" d="M307 187c0 2.602 9 4.535 9 6 3.924 0 11-1.997 11-7l-4-3c-2.229 0-2.471 1.986-4.5 3-3.662 1.831-6.782-3-8.5-3l-3 4Z"/><path fill="#99D2BD" id="OLF" d="m245 191-1 1 1-1Z"/><path fill="#CBCBC7" id="aco" d="M179 193c0 3.214 6.942 17.384 9 21.5l4.5 4.5c2.436-1.218.472-12.556-.5-14.5-2.314-4.627 2.138-7.725 1-10-1.505-3.011-10.981-1.5-14-1.5ZM264 193c0 1.648 1.293 8.915 1 9.5-1.593 3.186-2 5.586-2 9.5 0 2.151-.815 5.843 1.5 7l4.5-4.5c2.148-4.295 2.806-9.613 5-14l4-6c0-2.565-12.107-1.5-14-1.5Z"/><path fill="#CAC8C7" id="lot" d="M145 213c0 3.611 5.635 6.135 8 8.5 6.04 6.04 14.428 21.5 24 21.5 0-5.545-24.012-33-31-33l-1 3ZM279 242l1 1c8.957 0 18.193-19.346 23.5-22 2.293-1.146 8.5-5.382 8.5-8l-1-3c-9.954 0-22.315 17.131-26 24.5-1.341 2.682-6 4.321-6 7.5Z"/><path fill="#62CF9E" id="TTv" d="M225 233c0 5.978-10.362 30.569-19.5 26l-12.5-6c0-10.124 7.899-19.7 16.5-24H220l2 1h1l2 1h1v1l-1 1Z"/><path fill="#99D2BD" id="OLF" d="m220 229 2 1-2-1ZM237 229c-1.048 0-3-.473-3 1 1.048 0 3 .473 3-1Z"/><path fill="#62CF9E" id="TTv" d="M231 232c0 9.056 6.906 22.703 15.5 27 2.913 1.457 17.5-5.701 17.5-7 0-8.507-9.301-19.4-16.5-23H237c0 1.473-1.952 1-3 1h-1l-1 1h-1v1Z"/><path fill="#99D2BD" id="OLF" d="m223 230 2 1-2-1ZM231 231v1l-1-2 1 1ZM233 230l-1 1 1-1ZM226 232l-1 1 1-1ZM279 243h1l-1-1v1Z"/></svg>