<svg xmlns="http://www.w3.org/2000/svg" viewBox="0 0 456 320"><path fill="#9AD1BD" id="MOB" d="M145 165c1.353 0 2 4.643 2 6 1.811 0 8.803 17.105 10 19.5 8.86 17.719.407 37.453 22.5 48.5l4 4 11 1c24.949 0 26.5-41.401 26.5-60.5v-21c1.617-3.234 4.882-29.235 3-33l-6-15-7-7.5-8.5-4h-7c-15.53 0-26.515 4.515-37.5 15.5-2.954 2.954-10 9.486-10 13.5l-1 1-1 4-1 1v3l-1 1v3c0 1.321.684 6-1 6v1c1.643 0 1 3.765 1 5v2c1.473 0 1 1.952 1 3v3ZM282 237l-1 1c-5.498 0-14.942 10.779-26.5 5-18.354-9.177-19.5-43.944-19.5-63.5v-22c-2.174-4.348-4.149-26.702-2-31l6-13 6-6.5 8.5-4h18l16 6 9 8c2.575 1.288 9.5 7.794 9.5 11l1 1v1l2 2v1l2 4v2l1 2v2c0 1.048-.473 3 1 3v9c-1.643 0-1 3.765-1 5v1c-1.579 0-1 2.855-1 4v1l-2 4c0 4.625-5.96 10.419-8 14.5l-6 20v9c-1.671 3.341-4 8.641-4 12.5-1.577 0-2 1.762-2 3l-2 2v1l-1 1-1 1-1 1-1 1-1 1Z"/><path fill="#C7CBCA" id="onl" d="M154 210c0 6.046 8.426 10.352 11 15.5 5.43 10.859 16.193 18.347 26.5 23.5 2.329 1.165 5.706.853 8 2 3.715 1.857 13.266 9.367 18 7 13.626-6.813 9.5-30.048 9.5-43v-57c0-16.568.928-27.643-6-41.5-1.762-3.524-5.276-9.5-10-9.5l7 7.5 6 15c1.882 3.765-1.383 29.766-3 33v21c0 19.099-1.551 60.5-26.5 60.5l-11-1-4-4c-22.093-11.047-13.64-30.781-22.5-48.5-1.197-2.395-8.189-19.5-10-19.5v9c1.643 0 1 3.765 1 5v1c1.473 0 1 1.952 1 3v4l1 2v1c1.473 0 1 1.952 1 3v3c1.014 0 2 3.959 2 5v2l1 1Z"/><path fill="#C7CBCA" id="onl" d="M245 107c-8.845 0-12.154 15.807-15 21.5v13c-3.53 7.06-1 21.264-1 29.5v43c0 5.566-1.361 13.777 1 18.5v13l5 9c4.267 8.534 29.934-6.217 36.5-9.5 1.883-.941 9.5-4.205 9.5-7-5.498 0-14.942 10.779-26.5 5-18.354-9.177-19.5-43.944-19.5-63.5v-22c-2.174-4.348-4.149-26.702-2-31l6-13 6-6.5Z"/><path fill="#99D2BD" id="OLF" d="m306 128 1 1-1-1ZM307 130l2 2-2-2ZM148 132l-1 1 1-1ZM309 133l2 4-2-4ZM146 137l-1 1 1-1ZM311 139l1 2-1-2ZM145 141l-1 1 1-1ZM312 143c1.473 0 1 1.952 1 3-1.473 0-1-1.952-1-3ZM144 145c-1.684 0-1 4.679-1 6 1.684 0 1-4.679 1-6ZM143 152c1.643 0 1 3.765 1 5-1.643 0-1-3.765-1-5ZM313 155c-1.643 0-1 3.765-1 5 1.643 0 1-3.765 1-5ZM227 158c1.769 0 1 8.801 1 10.5V203c0 1.824.781 12-1 12v-57ZM144 159c1.473 0 1 1.952 1 3-1.473 0-1-1.952-1-3ZM312 161c-1.579 0-1 2.855-1 4 1.579 0 1-2.855 1-4ZM147 171v2c-1.059 0-2-6.743-2-8 1.353 0 2 4.643 2 6ZM309 170h1c1.579 0 1-2.855 1-4l-2 4Z"/><path fill="#C7CBCA" id="onl" d="M303 209c0 1.643-10.961 17-12 17 0-3.859 2.329-9.159 4-12.5v-9l6-20c2.04-4.081 8-9.875 8-14.5h1v3l-1 2v9c-1.473 0-1 1.952-1 3-1.579 0-1 2.855-1 4v4l-1 2v1c-1.473 0-1 1.952-1 3v3l-1 2c-1.473 0-1 1.952-1 3Z"/><path fill="#99D2BD" id="OLF" d="m310 173-1 2 1-2ZM147 180c1.643 0 1 3.765 1 5-1.643 0-1-3.765-1-5ZM309 184c-1.473 0-1 1.952-1 3 1.473 0 1-1.952 1-3ZM148 186c1.473 0 1 1.952 1 3-1.473 0-1-1.952-1-3ZM308 187c-1.579 0-1 2.855-1 4 1.579 0 1-2.855 1-4ZM149 193l1 2-1-2ZM307 195l-1 2 1-2ZM150 196c1.473 0 1 1.952 1 3-1.473 0-1-1.952-1-3ZM306 198c-1.473 0-1 1.952-1 3 1.473 0 1-1.952 1-3ZM151 202c1.014 0 2 3.959 2 5-1.638 0-2-3.576-2-5ZM305 204l-1 2 1-2ZM304 206c-1.473 0-1 1.952-1 3 1.473 0 1-1.952 1-3ZM153 209l1 1-1-1Z"/><path fill="#C7CBCA" id="onl" d="M291 226c-1.577 0-2 1.762-2 3 1.577 0 2-1.762 2-3ZM289 229l-2 2c1.747 0 2-.253 2-2ZM287 232l-1 1 1-1ZM286 233l-1 1 1-1ZM285 234l-1 1 1-1ZM284 235l-1 1 1-1ZM283 236l-1 1 1-1ZM282 237l-1 1 1-1Z"/></svg>