<svg xmlns="http://www.w3.org/2000/svg" viewBox="0 0 456 320"><path fill="#1E9C59" id="MOs1" d="M136 80h1c0-1.134 14.49-7.995 16.5-9 9.547-4.774 37.637-15.681 49-10h4L217 71l4-2c0-5.967-7.47-9.985-11.5-12-17.483-8.742-39.259-.87-55 7-2.375 1.187-18.5 8.246-18.5 10v6ZM321 74l-1 6-19.5-11c-10.035-5.017-27.398-9-39.5-9l-11.5 1L239 71l-4-2c0-7.415 11.778-11.639 16.5-14 15.672-7.836 38.92 3.46 52 10 2.087 1.044 17.5 8.017 17.5 9Z"/><path fill="#1E9D58" id="MOs2/3" fill-rule="evenodd" d="M138 89c0 1.93 1.93 0 0 0m-1-9v11.5l2 2c0 .495-2.466 2.5 0 2.5 4.614 0 10.405-6.952 14.5-9 7.435-3.718 14.505-8.253 22-12l15-5c4.854-2.427 20.5 2.038 20.5 7h1l5-5v-1l-10.5-10h-4c-11.363-5.681-39.453 5.226-49 10-2.01 1.005-16.5 7.866-16.5 9Z"/><path fill="#1E9D58" id="MOs2/3" d="M320 81c0 5.363-2 11.324-2 16l-13.5-9-24-13-15-5c-3.747-1.873-20.5 2.702-20.5 7h-1c0-1.26-3.346-5-5-5v-1l10.5-10 11.5-1c12.102 0 29.465 3.983 39.5 9L320 80v1Z"/><path fill="#3EA665" id="ACAd1" d="M222 95h12c0-5.213-1.199-13.103 1-17.5l4-5.5v-1l-4-2-3 4.5-3.5 5.5-7.5-10-4 2v1c6.742 0 5 18.985 5 23Z"/><path fill="#1F9D58" id="MOs5" d="M138 98c0 8.117 1 15.472 1 24l10.5-9c15.628-7.814 26.603-17 44.5-17h1c0-4.686 16-17.074 16-19 0-4.962-15.646-9.427-20.5-7l-15 5c-7.495 3.747-14.565 8.282-22 12-4.095 2.048-9.886 9-14.5 9v1l-1 1ZM318 97v26c-.556 0-14.51-12.505-17.5-14-13.382-6.691-23.431-13-38.5-13l-3-3.5c-.701-1.402-11.6-15.5-14-15.5 0-4.298 16.753-8.873 20.5-7l15 5 24 13 13.5 9Z"/><path fill="#40A565" id="ACAd2/3" d="M216 95h6c0-4.015 1.742-23-5-23l-5 5 3 4.5 1 13.5ZM234 95h6l1-12.5 3-5.5c0-1.26-3.346-5-5-5l-4 5.5c-2.199 4.397-1 12.287-1 17.5Z"/><path fill="#1E9D5A" id="MOp1" d="m97 170-4 2c-2.162 0-2.213-7.926-3-9.5-3.353-6.706-2-17.514-2-25.5 0-11.915 19.342-44.421 30.5-50 5.741-2.87 10.823-13 17.5-13v6c0 1.852-10.6 8.05-12.5 9-6.428 3.214-16.244 15.987-19.5 22.5l-9 16c-1.18 2.36-.779 5.558-2 8-3.887 7.775 4 28.023 4 34.5ZM360 171l4 1c0-.905 4.408-20.316 5-21.5 2.167-4.335-.294-15.588-2-19l-1-6c-5.299-10.597-17.603-33.052-28.5-38.5-3.966-1.983-10.336-13-16.5-13l-1 6v1c3.987 0 19.091 12.683 21 16.5l6 6 14 23c1.58 3.16 3.919 27.162 2 31-1.513 3.027-3 9.085-3 12.5v1Z"/><path fill="#3EA566" id="ACAd5" d="M195 96c0 2.33 4 3.227 4 6l17-7-1-13.5-3-4.5h-1c0 1.926-16 14.314-16 19ZM262 97c-2.169 0-5 2.899-5 5-5.306 0-11.282-7-17-7l1-12.5 3-5.5h1c2.4 0 13.299 14.098 14 15.5l3 3.5v1Z"/><path fill="#1F9C58" id="MOp2/3" d="m109 165-12 5c0-6.477-7.887-26.725-4-34.5 1.221-2.442.82-5.64 2-8l9-16c3.256-6.513 13.072-19.286 19.5-22.5 1.9-.95 12.5-7.148 12.5-9h1v11.5l2 2c0 .495-2.466 2.5 0 2.5v1l-1 1c-4.478 0-10.13 8.63-13 11.5-17.708 17.708-16 30.413-16 54.5v1ZM347 165l13 5c0-3.415 1.487-9.473 3-12.5 1.919-3.838-.42-27.84-2-31l-14-23-6-6c-1.909-3.817-17.013-16.5-21-16.5 0 5.363-2 11.324-2 16l13.5 12c6.037 6.037 21.754 32.991 17.5 41.5-1.629 3.258-2 9.789-2 13.5v1Z"/><path fill="#1F9C58" id="MOp2/3" d="M138 89c0 1.93 1.93 0 0 0Z"/><path fill="#2FA750" id="PL1" d="M233 133h1V95h-12c0 12.799 1 25.765 1 38h10Z"/><path fill="#1D9C5A" id="MOs6a" d="M168 133c-12.862 0-25.44 16-33 16 0-7.403 2-15.584 2-23l1-1v-1l1-1v-1l10.5-9c15.628-7.814 26.603-17 44.5-17 0 6.375-9 12.168-9 19l-1 1-3 6c-3.548 0-10 2.54-10 7v2l-3 2Z"/><path fill="#2EA84F" id="PL5" d="M204 133h14c0-11.869-2-26.17-2-38l-17 7v1c1.043 0 2 5.353 2 6.5 0 8.149 3 14.814 3 22.5v1Z"/><path fill="#2FA74F" id="PL2/3" d="M219 133h4c0-12.235-1-25.201-1-38h-6c0 11.83 2 26.131 2 38h1ZM234 133h4c0-12.318 2-25.015 2-38h-6v38Z"/><path fill="#2EA84F" id="PL5" d="M252 132c-4.351 0-9.131 1-14 1 0-12.318 2-25.015 2-38 5.718 0 11.694 7 17 7v1c0 9.228-5 19.854-5 29Z"/><path fill="#1D9C5A" id="MOs6a" d="M289 133c12.616 0 25.884 16 32 16v-17.5c0-1.595-2-3.255-2-5.5v-1l-1-1v-1c-.556 0-14.51-12.505-17.5-14-13.382-6.691-23.431-13-38.5-13v1c.703 0 10 16.164 10 18l4 7c3.78 0 13.058 7 9 7v1l1 1c1.481 0 .785 2 3 2Z"/><path fill="#3FA664" id="ACAd6a" d="M199 103c-5.345 0-9.307 12-14 12 0-6.832 9-12.625 9-19h1c0 2.33 4 3.227 4 6v1Z"/><path fill="#1E9C5A" id="MOp5" d="m139 97-1 1 1-1Z"/><path fill="#3FA664" id="ACAd6a" d="M257 103c6.505 0 8.538 12 15 12 0-1.836-9.297-18-10-18-2.169 0-5 2.899-5 5v1Z"/><path fill="#1E9C5A" id="MOp5" d="M325 151c5.89 0 15.532 13 22 13 0-3.711.371-10.242 2-13.5 4.254-8.509-11.463-35.463-17.5-41.5L318 97v27l1 1v1c5.097 0 6 20.237 6 25ZM131 151l-5.5 3c-4.928 2.464-10.84 10-16.5 10 0-24.087-1.708-36.792 16-54.5 2.87-2.87 8.522-11.5 13-11.5 0 8.117 1 15.472 1 24l-1 1v2l-1 1c-3.739 0-6 20.485-6 25Z"/><path fill="#2FA850" id="PL6a" d="M194 132h10c0-7.686-3-14.351-3-22.5 0-1.147-.957-6.5-2-6.5-5.345 0-9.307 12-14 12l-1 1-3 6 2 3 11 7ZM252 132h11l11-7c0-1.238.423-3 2-3l-4-7c-6.462 0-8.495-12-15-12 0 9.228-5 19.854-5 29Z"/><path fill="#3FA664" id="ACAd6a" d="m185 115-1 1 1-1Z"/><path fill="#1F9D58" id="MOs5" d="M138 123h1v-1l-1 1Z"/><path fill="#268E44" id="FRP6a" d="m175 128-4 1c0-4.46 6.452-7 10-7l2 3-1 1c0-1.486-3-1.486-3 0l-1 1h-2l-1 1ZM280 127l5 2c4.058 0-5.22-7-9-7-1.577 0-2 1.762-2 3v1c.716 0 3-2.373 3 0l1 1h2Z"/><path fill="#1F9B5A" id="MOp6a" d="m139 123-1 1v-1h1ZM318 124l1 1-1-1ZM138 125l-1 1 1-1Z"/><path fill="#238A5C" id="ORBvl6a" d="M179 127h3v-1c0-1.486-3-1.486-3 0v1Z"/><path fill="#22885E" id="ORBm6a" d="M208 166c0 2.586-.119 9.191-4.5 7l-4.5-6v-2c0-9.05-3.248-19.748-9.5-26l-4.5-6v-1l-1-1v-1l-1-2-1-1v-1l1-1 11 7c0 4.859 14 24.44 14 34ZM248 167l1 2.5v3c2.037 4.075 7.048-4.5 8-4.5v-2c0-8.798 3.405-19.905 9.5-26l4.5-6 1-2v-1l1-2v-1l1-1v-2l-11 7c0 1.968-7.622 13.744-9 16.5-1.909 3.817-3.055 8.11-5 12-.574 1.147 1.064 4.5-1 4.5v2Z"/><path fill="#238A5C" id="ORBvl6a" d="M274 127h3v-1c0-2.373-2.284 0-3 0v1Z"/><path fill="#1F9B5A" id="MOp6a" d="M131 151h1l3-2c0-7.403 2-15.584 2-23-3.739 0-6 20.485-6 25Z"/><path fill="#24895D" id="ORBl6a" d="M178 127h1v-1l-1 1ZM277 127h1l-1-1v1Z"/><path fill="#1F9B5A" id="MOp6a" d="m321 149 4 2c0-4.763-.903-25-6-25 0 2.245 2 3.905 2 5.5V149Z"/><path fill="#258F44" id="FRP6b" d="m176 127-1 1 1-1Z"/><path fill="#248A5C" id="ORBl6b" d="M179 128c0 1.579-2.855 1-4 1v-1l1-1h3v1Z"/><path fill="#22895E" id="ORBvl6b" d="M179 128h4l-1-1h-3v1Z"/><path fill="#24875E" id="ORBm6b" d="M273 128h1v-1l-1 1Z"/><path fill="#22895E" id="ORBvl6b" d="M274 128h3v-1h-3v1Z"/><path fill="#248A5C" id="ORBl6b" d="M277 128c0 1.579 2.855 1 4 1l-1-2h-3v1Z"/><path fill="#258F44" id="FRP6b" d="M285 129v1l-2-1h-2l-1-2 5 2ZM171 130h2l2-1v-1l-4 1v1Z"/><path fill="#CAC7CC" id="fa" d="M183 130c0 4.673 1.4 8-4 8-7.833 0-6-2.146-6-8l2-1c1.145 0 4 .579 4-1h4v2Z"/><path fill="#24875E" id="ORBm6b" d="M183 130h1l-1-2v2Z"/><path fill="#22895E" id="ORBvl6b" d="m274 128-1 1v-1h1Z"/><path fill="#CAC7CC" id="fa" d="M273 131c0 3.836-.719 7 4 7 8.649 0 6-2.815 6-9h-2c-1.145 0-4 .579-4-1h-3l-1 1v2Z"/><path fill="#24875E" id="ORBm6b" d="M272 131h1v-2l-1 2Z"/><path fill="#248A5C" id="ORBl6b" d="M277 138v2c7.976 0 9 1.006 9-9l-1-1-2-1c0 6.185 2.649 9-6 9ZM179 138v2c-8.528 0-8 .511-8-9v-1h2c0 5.854-1.833 8 6 8Z"/><path fill="#22895E" id="ORBvl6b" d="M179 140h1c5.326 0 5-2.298 5-7v-1l-1-1v-1h-1c0 4.673 1.4 8-4 8v2Z"/><path fill="#24895D" id="ORBl6a" d="m151 155-2 6c6.994 0 13.544-7.022 19.5-10 5.726-2.863 11.494 1 16.5 1 0-4.561-5-7.344-5-12h-1c-8.528 0-8 .511-8-9l-3 2c0 .335-9.992 12.483-11 14.5l-3 3.5-1 1v1l-1 1-1 1Z"/><path fill="#24875E" id="ORBm6b" d="m184 131 1 1-1-1Z"/><path fill="#22895E" id="ORBvl6b" d="M277 138v2c-4.218 0-6-1.703-6-6l1-2v-1h1c0 3.836-.719 7 4 7Z"/><path fill="#24895D" id="ORBl6a" d="m303 152 5 9c-7.337 0-14.284-6.892-20.5-10-4.72-2.36-10.791 0-15.5 0 0-4.344 5-7.016 5-11 7.976 0 9 1.006 9-9 1.481 0 .785 2 3 2l14 19Z"/><path fill="#58B362" id="ILA6a" d="M208 166h1c0-11.692-5-22.21-5-33v-1h-10c0 4.859 14 24.44 14 34Z"/><path fill="#59B262" id="ILA5" d="M213 177h1c0-3.145 3.663-5.826 5-8.5.867-1.734.08-4.161 1-6l-1-29.5h-15c0 10.79 5 21.308 5 33 0 5.345 4 7.541 4 11ZM248 167c-1.866 0-1.474 9-5 9-2.947 0-4.111-6.722-5-8.5-4.421-8.843 0-25.212 0-34.5 4.869 0 9.649-1 14-1 0 11.106-4 21.152-4 33v2Z"/><path fill="#58B362" id="ILA6a" d="M263 132c0 1.968-7.622 13.744-9 16.5-1.909 3.817-3.055 8.11-5 12-.574 1.147 1.064 4.5-1 4.5 0-11.848 4-21.894 4-33h11Z"/><path fill="#238A5C" id="ORBvl6a" d="m272 132-1 2 1-2Z"/><path fill="#209666" id="AId6a" d="M145 162h1c0-1.294 3.609-7 5-7l1-1 1-1v-1l1-1 3-3.5c1.008-2.017 11-14.165 11-14.5-12.862 0-25.44 16-33 16l-3 2c0 8.329 5.418 11 13 11Z"/><path fill="#238A5C" id="ORBvl6a" d="M185 152c4.513 0 12.592 13 14 13 0-9.05-3.248-19.748-9.5-26l-4.5-6c0 4.702.326 7-5 7 0 4.656 5 7.439 5 12Z"/><path fill="#59B362" id="ILA2/3" d="M216 179h3l4-7.5c1.748-3.496.231-8.461 2-12 2.338-4.676-2-20.235-2-26.5h-4l1 29.5c-.92 1.839-.133 4.266-1 6-1.337 2.674-5 5.355-5 8.5 1.747 0 2 .253 2 2Z"/><path fill="#59B263" id="ILA1" d="M229 179h8c0-3.214-3.494-10.488-5-13.5l1-32.5h-10c0 6.265 4.338 21.824 2 26.5-1.769 3.539-.252 8.504-2 12l-4 7.5h8c0-1.321-.684-6 1-6 0-7.466 1-5.211 1 1v5Z"/><path fill="#59B362" id="ILA2/3" d="M242 179h1v-3c-2.947 0-4.111-6.722-5-8.5-4.421-8.843 0-25.212 0-34.5h-5l-1 32.5c1.506 3.012 5 10.286 5 13.5h4c0-2.212 1-2.212 1 0Z"/><path fill="#209666" id="AId6a" d="m303 152 8 10c7.323 0 14-2.761 14-11l-4-2c-6.116 0-19.384-16-32-16l14 19Z"/><path fill="#238A5C" id="ORBvl6a" d="M271 153c-5.449 0-12.312 13-14 13 0-8.798 3.405-19.905 9.5-26l4.5-6c0 4.297 1.782 6 6 6 0 3.984-5 6.656-5 11l-1 2Z"/><path fill="#228A5D" id="ORBl5" d="M186 173h1c0-2.409 1.277-1.055 2-2.5 1.042-2.083 0-8.865 0-10 0-2.152-4-6.079-4-8.5-5.006 0-10.774-3.863-16.5-1-5.956 2.978-12.506 10-19.5 10l-1 1c0 3.715-6.45 7.601-4 12.5.898 1.796 5 6.481 5 7.5 2.958 0 12.261-7.38 15.5-9l11-4c2.445-1.222 10.5 1.426 10.5 4ZM307 183h1l4-8.5c2.292-4.584-3-8.865-3-12.5l-1-1c-7.337 0-14.284-6.892-20.5-10-4.72-2.36-10.791 0-15.5 0l-1 2c0 2.057-3.003 7.506-4 9.5-1.722 3.444 2 7.47 2 10.5h1c1.626 0 4.295-4 7.5-4 4.231 0 29.5 10.904 29.5 14Z"/><path fill="#209665" id="AId5" d="M117 191h2l7-6.5c2.807-2.807 19-20.162 19-22.5-7.582 0-13-2.671-13-11h-1l-5.5 3c-4.928 2.464-10.84 10-16.5 10v1c0 8.63 8 18.401 8 26Z"/><path fill="#1F9866" id="AIv6a" d="m154 151-1 1 1-1Z"/><path fill="#209665" id="AId5" d="M338 191h1c0-5.112 8-17.503 8-26v-1c-6.468 0-16.11-13-22-13 0 8.239-6.677 11-14 11 0 2.694 16.808 19.308 20 22.5l7 6.5Z"/><path fill="#23885C" id="ORBvl5" d="M197 179h2c0-2.536-3-3.915-3-5.5l3-6.5v-2c-1.408 0-9.487-13-14-13 0 2.421 4 6.348 4 8.5 0 1.135 1.042 7.917 0 10-.723 1.445-2 .091-2 2.5l6 6h4Z"/><path fill="#1F9866" id="AIv6a" d="M309 162h2l-8-10 5 9 1 1ZM153 153l-1 1 1-1Z"/><path fill="#23885C" id="ORBvl5" d="M259 179h4l6-6c0-3.03-3.722-7.056-2-10.5.997-1.994 4-7.443 4-9.5-5.449 0-12.312 13-14 13v2c5.797 0 0 9.548 0 11h2Z"/><path fill="#1F9866" id="AIv6a" d="m152 154-1 1 1-1ZM146 162h2l1-1 2-6c-1.391 0-5 5.706-5 7Z"/><path fill="#24895D" id="ORBl6a" d="m149 161-1 1 1-1Z"/><path fill="#1F9865" id="AIv5" d="M148 183c-5.424 0-14.618 14.441-23.5 10-1.319-.659-5.5.334-5.5-2l7-6.5c2.807-2.807 19-20.162 19-22.5h3c0 3.715-6.45 7.601-4 12.5.898 1.796 5 6.481 5 7.5l-1 1ZM308 183c6.084 0 15.082 14.709 24.5 10 1.319-.659 5.5.334 5.5-2l-7-6.5c-3.192-3.192-20-19.806-20-22.5h-2c0 3.635 5.292 7.916 3 12.5l-4 8.5Z"/><path fill="#209765" id="AId2/3" d="M107 197h1c1.435 0 9-4.089 9-6 0-7.599-8-17.37-8-26l-12 5c0 8.947 10 19.234 10 27ZM339 191c0 2.422 8.189 6 10 6 0-1.46 6.886-18.272 8-20.5l3-5.5v-1l-13-5c0 8.497-8 20.888-8 26Z"/><path fill="#23885E" id="ORBm5" d="M199 179h13l1-2c0-3.459-4-5.655-4-11h-1c0 2.586-.119 9.191-4.5 7l-4.5-6-3 6.5c0 1.585 3 2.964 3 5.5ZM245 179h12c0-1.452 5.797-11 0-11-.952 0-5.963 8.575-8 4.5v-3l-1-2.5c-1.866 0-1.474 9-5 9v1l2 2Z"/><path fill="#238A5E" id="ORBl2/3" d="M149 183c0 2.202 2 2.546 2 4l8.5-4c5.002-2.501 15.794-4 21.5-4h5v-6c0-2.574-8.055-5.222-10.5-4l-11 4c-3.239 1.62-12.542 9-15.5 9v1ZM307 183c0 2.202-2 2.546-2 4l-8.5-4c-5.186-2.593-15.513-4-21.5-4h-5v-6c1.626 0 4.295-4 7.5-4 4.231 0 29.5 10.904 29.5 14Z"/><path fill="#209764" id="AId1" d="m107 197-4 1c0-3.954-10-17.557-10-26l4-2c0 8.947 10 19.234 10 27ZM349 197l4 1c2.295 0 3.263-6.025 4-7.5 2.516-5.032 7-12.696 7-18.5l-4-1-3 5.5c-1.114 2.228-8 19.04-8 20.5Z"/><path fill="#248A5D" id="ORBvl2/3" d="M186 179h7l-6-6h-1v6Z"/><path fill="#99D2BD" id="OLF" d="M227 179c0 1.399 2 1.399 2 0v-5l-1-1c-1.684 0-1 4.679-1 6Z"/><path fill="#248A5D" id="ORBvl2/3" d="M263 179h7v-6h-1l-6 6Z"/><path fill="#24885D" id="ORBm2/3" d="M212 179h4c0-1.747-.253-2-2-2h-1l-1 2ZM241 179h1c0-2.212-1-2.212-1 0ZM243 179h2l-2-2v2Z"/><path fill="#6ACAB9" id="PIR" d="M160 246h3l1-1h1c0-2.068 2.877-4.255 4-6.5 2.321-4.641-2-10.744-2-14.5v-1c-4.814 0-10.518-17.464-8-22.5 3.371-6.741 22-16.229 22-21.5-5.706 0-16.498 1.499-21.5 4l-8.5 4-18 12-1 1-1 1h-1l-1 1-2 1c0 2.647-10.263 8-13 8l-1 7.5c2.03 4.06 11.261 14.5 16 14.5 0-2.19 6.535-.483 7.5 0 6.878 3.439 15.508 13 23.5 13Z"/><path fill="#99D2BD" id="OLF" d="m211 262 1 1c1.803 0 6-6.495 6-8-2.613 0-4.36.93-6.5 2l-2-1c-6.177-3.088-6.5-5.959-6.5-13-1.427 0-8.396 14.052-16.5 10-7.658-3.829-20.092-10.317-14.5-21.5 1.597-3.193 11-7.933 11-10.5-5.147 0-12.897-14.301-5.5-18 6.19-3.095 7.711 13 8.5 13 0-9.83 2.34-29 13-29l-2-8h-16c0 5.271-18.629 14.759-22 21.5-2.518 5.036 3.186 22.5 8 22.5l-6-15.5c-2.397-4.793 5.758-8.371 9.5-6.5 3.374 1.687 3.486 22.757 1 24l-4.5-1c0 3.756 4.321 9.859 2 14.5-1.123 2.245-4 4.432-4 6.5 7.518 0 15.108 6.804 21.5 10 5.787 2.893 15.3-1.85 21 1 2.536 1.268 3.5 2.966 3.5 6Z"/><path fill="#A3DAA3" id="DP" d="M229 193c4.946 0 11.465-2.517 16.5 0 .919.459 2.5-.765 2.5 1 2.126 0 9-4.322 9-7l1-1 1-7h-30c0 1.399-2 1.399-2 0h-30l2 8 5.5 5 3.5 2 3.5-2c4.016-2.008 11.887 1 15.5 1 .839 0 2-1.93 2 0Z"/><path fill="#99D2BD" id="OLF" d="M292 245c-7.866 0-15.836 6.668-22.5 10-5.279 2.639-15.28 1-21.5 1l6-6.5c1.829-3.658-3-5.906-3-8.5 1.419 0 8.955 10.227 12.5 12 8.4 4.2 26.356-9.789 21.5-19.5l-3.5-6.5c-1.582-.791-8.5-3.942-8.5-6 2.117 0 3.037-1.537 4.5-3 9.316-9.316-.24-21.021-4.5-12.5l-1 5c-.971 1.941-1 3.122-1 5.5-1.583 0-2-8.666-2-10.5 0-6.451-3.356-19.5-11-19.5l1-7h16c0 4.082 20.498 17.496 23 22.5 2.026 4.052-3.139 19.5-7 19.5 0-4.442 2.143-8.786 4-12.5 2.743-5.487-5.007-9.746-9.5-7.5-2.441 1.22-4.146 21.927 0 24l3.5-1c0 3.993-4.311 9.877-2 14.5l5 6.5Z"/><path fill="#6ACAB9" id="PIR" d="m293 245 4 1c6.345 0 11.11-7.305 16.5-10l13-5 1.5 2 1.5-2c9.56-4.78 13.5-8.316 13.5-20-2.671 0-21-10.711-21-13l-13-8.5-4-2.5-8.5-4c-5.186-2.593-15.513-4-21.5-4 0 4.082 20.498 17.496 23 22.5 2.026 4.052-3.139 19.5-7 19.5l-1 2-1 1c0 3.993-4.311 9.877-2 14.5l5 6.5h1Z"/><path fill="#228A5D" id="ORBl5" d="M148 183h1v-1l-1 1Z"/><path fill="#219764" id="AIv2/3" d="m129 202-2 1c-5.467 0-12.531 5.438-16-1.5-.989-1.978-3-2.023-3-4.5 1.435 0 9-4.089 9-6h2c0 2.334 4.181 1.341 5.5 2 8.882 4.441 18.076-10 23.5-10h1c0 2.202 2 2.546 2 4l-18 12-1 1-1 1h-1l-1 1ZM349 197l-3.5 5c-9.481 9.481-16.877-4-23.5-4l-13-8.5-4-2.5c0-1.454 2-1.798 2-4h1c6.084 0 15.082 14.709 24.5 10 1.319-.659 5.5.334 5.5-2h1c0 2.422 8.189 6 10 6Z"/><path fill="#54BF94" id="AON" d="m204 242-1 1c-1.427 0-8.396 14.052-16.5 10-7.658-3.829-20.092-10.317-14.5-21.5 1.597-3.193 11-7.933 11-10.5 2.6 0 3-2.639 3-5 0-9.83 2.34-29 13-29l5.5 5 3.5 2c0 .795 6.315 21.129 7 22.5l3 3.5c0 3.222-1 6.277-1 9 0 2.192-9.058 10-11 10l-1 2-1 1Z"/><path fill="#99D2BD" id="OLF" d="m258 186-1 1 1-1Z"/><path fill="#54BF94" id="AON" d="M251 240v1c1.419 0 8.955 10.227 12.5 12 8.4 4.2 26.356-9.789 21.5-19.5l-3.5-6.5c-1.582-.791-8.5-3.942-8.5-6-2.868 0-2-2.688-2-5-1.583 0-2-8.666-2-10.5 0-6.451-3.356-19.5-11-19.5l-1 1c0 2.678-6.874 7-9 7 0 1.614-6.043 21.586-7 23.5l-2 2.5v8c0 2.144 6.84 9 9 9l1 1 1 1 1 1Z"/><path fill="#61D09F" id="TTd" d="M218 220h21l2-2.5c.957-1.914 7-21.886 7-23.5 0-1.765-1.581-.541-2.5-1-5.035-2.517-11.554 0-16.5 0 0 3.644-2 2.726-2 0-3.613 0-11.484-3.008-15.5-1l-3.5 2c0 .795 6.315 21.129 7 22.5l3 3.5Z"/><path fill="#99D2BD" id="OLF" d="M227 193c.839 0 2-1.93 2 0 0 3.644-2 2.726-2 0Z"/><path fill="#209864" id="AIv1" d="M127 203c0 2.647-10.263 8-13 8-3.837 0-11-9.247-11-13l4-1h1c0 2.477 2.011 2.522 3 4.5 3.469 6.938 10.533 1.5 16 1.5ZM353 198c0 3.215-6.162 13-10 13-2.671 0-21-10.711-21-13 6.623 0 14.019 13.481 23.5 4l3.5-5 4 1ZM133 199l-1 1 1-1ZM132 200l-1 1 1-1ZM130 201l-1 1 1-1Z"/><path fill="#A0EE9C" id="EPd" d="M167 223v1l4.5 1c2.486-1.243 2.374-22.313-1-24-3.742-1.871-11.897 1.707-9.5 6.5l6 15.5ZM290 223l-1 1-3.5 1c-4.146-2.073-2.441-22.78 0-24 4.493-2.246 12.243 2.013 9.5 7.5-1.857 3.714-4 8.058-4 12.5l-1 2Z"/><path fill="#209864" id="AIv1" d="m129 202-2 1 2-1Z"/><path fill="#CBCBC7" id="aco" d="M186 216c-.789 0-2.31-16.095-8.5-13-7.397 3.699.353 18 5.5 18 2.6 0 3-2.639 3-5ZM271 216c0 2.312-.868 5 2 5 2.117 0 3.037-1.537 4.5-3 9.316-9.316-.24-21.021-4.5-12.5l-1 5c-.971 1.941-1 3.122-1 5.5Z"/><path fill="#99D2BD" id="OLF" d="M239 228c-4.564 0-14.644-3.428-19.5-1l-2.5 2c0-2.723 1-5.778 1-9h21v8ZM291 221l-1 2 1-2ZM290 223l-1 1 1-1Z"/><path fill="#62CF9E" id="TTv" d="m248 256-1 1-8-2-3-3.5c-1.648-3.295-4.391-5.782-6-9l-1.5-4.5-3.5 6.5-2 4-4 5.5-1 1c-2.613 0-4.36.93-6.5 2l-2-1c-6.177-3.088-6.5-5.959-6.5-13l1-1 1-1 1-2c1.942 0 11-7.808 11-10l2.5-2c4.856-2.428 14.936 1 19.5 1 0 2.144 6.84 9 9 9l1 1 1 1 1 1v1c0 2.594 4.829 4.842 3 8.5l-6 6.5Z"/><path fill="#CAC8C7" id="lot" d="m296 250 1 2c4.245 0 31-16.183 31-19l-1.5-2-13 5c-5.39 2.695-10.155 10-16.5 10l-1 3v1ZM160 246c0 2.124-1 4.436-1 6-4.801 0-30-16.088-30-19 0-2.19 6.535-.483 7.5 0 6.878 3.439 15.508 13 23.5 13Z"/><path fill="#99D2BD" id="OLF" d="m248 237 1 1-1-1ZM206 239l-1 2 1-2ZM250 239l1 1-1-1ZM205 241l-1 1 1-1ZM204 242l-1 1 1-1ZM164 245l-1 1 1-1Z"/><path fill="#7FCCF7" id="OT" d="m211 264-1 1-10.5 3c-.551.275-18.691-4.345-20-5-3.237-1.618-6.845-2.422-10-4l-7.5-6c0-1.423-1.978-3.544-1-5.5l2-1.5 1-1h1c7.518 0 15.108 6.804 21.5 10 5.787 2.893 15.3-1.85 21 1 2.536 1.268 3.5 2.966 3.5 6v2ZM245 263l1 1c0 3.463 7.569 2.035 9.5 3 4.783 2.392 25.808-5.404 31-8l7.5-6 2-3v-1l-3-4h-1c-7.866 0-15.836 6.668-22.5 10-5.279 2.639-15.28 1-21.5 1l-1 1c0 1.714-2 3.482-2 6Z"/><path fill="#99D2BD" id="OLF" d="m297 246-1 3-3-4 4 1ZM159 252l3 1c0-1.423-1.978-3.544-1-5.5l2-1.5h-3c0 2.124-1 4.436-1 6ZM297 252c0 1.473-1.952 1-3 1l2-3 1 2ZM219 254l-1 1 1-1ZM247 257c0 1.714-2 3.482-2 6-2.423 0-6-5.418-6-8l8 2ZM248 256l-1 1 1-1Z"/><path fill="#97D6F9" id="STR" d="M211 263h1l-1-1v1Z"/><path fill="#99D2BD" id="OLF" d="m212 263-1 1v-1h1Z"/><path fill="#97D6F9" id="STR" d="m245 263 1 1-1-1ZM211 264l-1 1 1-1Z"/></svg>