<svg xmlns="http://www.w3.org/2000/svg" viewBox="0 0 456 320"><path fill="#99D2BD" id="OLF" d="M171 178c2.91 0 13.933 20.365 16 24.5 1.695 3.39 14 6.899 14 8.5 4.843 0 13.822-8.144 16-12.5 2.974-5.948 5.159-48.682 2-55-2.123-4.245-.699-9.6-6.5-12.5-10.322-5.161-17.29 1.645-26 6-5.754 2.877-8.607 10.714-11.5 16.5-3.763 7.526-4 15.335-4 24.5ZM285 179c-4.098 0-12.154 17.808-14 21.5-1.875 3.749-7.397 6.949-10.5 8.5-1.538.769-5.5-1.226-5.5 2-5.691 0-13.638-8.775-16-13.5-3.82-7.641-3.841-54.318 0-62 6.409-12.817 26.598-3.402 33.5 3.5 4.438 4.438 5.8 8.099 8.5 13.5 4.115 8.23 4 16.484 4 26.5Z"/><path fill="#C7CBCA" id="onl" d="M171 178c2.91 0 13.933 20.365 16 24.5 1.695 3.39 14 6.899 14 8.5 0 6.26-17.515 6.471-20 1.5-8.014-16.028-10-15.054-10-34.5ZM285 179c2.363 0 .674 11.151 0 12.5v4c-1.211 2.421-9.762 17.631-11.5 18.5-3.725 1.862-18.5 3.683-18.5-3 0-3.226 3.962-1.231 5.5-2 3.103-1.551 8.625-4.751 10.5-8.5 1.846-3.692 9.902-21.5 14-21.5Z"/></svg>