<svg xmlns="http://www.w3.org/2000/svg" viewBox="0 0 456 320"><path fill="#1E9C59" id="MOs1" d="m137 139-6 3c0-5.56-6.333-14.834-3-21.5l3-9c5.43-10.859 17.965-21.233 28.5-26.5 10.682-5.341 22.719-6 34.5-6 2.324 0 13 1.716 13 4 0 2.773-4 3.67-4 6h-1l-3.5-2H184c-20.196 0-38.358 11.215-47 28.5-3.229 6.459 0 16.827 0 23.5ZM319 139l6 3c2.357 0 1.264-6.029 2-7.5 2.572-5.143 1.348-15.304-1-20-8.417-16.834-30.627-35.5-50-35.5-3.8 0-27-.831-27 4l4 6 5.5-2h14c18.694 0 37.934 10.369 46.5 27.5 3.918 7.837 0 16.893 0 24.5Z"/><path fill="#2FA750" id="PL1" d="m236 114-1 1c-4.607 0-10.052-1-14-1 0-8.887-7.435-25-18-25 0-2.33 4-3.227 4-6 7.913 0 15.082 12.663 18 18.5l3.5 11.5.5-4.5 2-6c2.717-5.435 9.813-19.5 18-19.5l4 6c-10.849 0-17 16.259-17 25Z"/><path fill="#1E9D58" id="MOs2/3" d="m137 139 6.5-3c3.476-1.738 11.271 3 13.5 3 1.212 0 4-10.357 4-12l-2-2.5c-2.92-5.839.596-9.191 3-14 .642-1.285 3.123-4.5 5-4.5l1-1 2-1 1-1c0-2.109 2.535-2 4-2 0-4.04 17.998-5 22-5 1.514 0 5-5.537 5-7l-3.5-2H184c-20.196 0-38.358 11.215-47 28.5-3.229 6.459 0 16.827 0 23.5ZM299 139l11.5-3c.741.37 6.812 3 8.5 3 0-7.607 3.918-16.663 0-24.5-8.566-17.131-27.806-27.5-46.5-27.5h-14l-5.5 2 6 7c4.934 0 26 1.866 26 7h1l1 1 1 1c4.121 0 12.916 11.668 11 15.5-.654 1.308-4 5.314-4 6.5l4 12Z"/><path fill="#2FA74F" id="PL2/3" d="M221 114v1c-2.522 0-4.909-2-8-2v-1c0-9.817-6.448-15-16-15v-1c1.514 0 5-5.537 5-7h1c10.565 0 18 16.113 18 25ZM243 113l-7 1c0-8.741 6.151-25 17-25l6 7v1c-9.086 0-16 5.646-16 15v1Z"/><path fill="#1F9D58" id="MOs5" d="M195 99c-7.254 0-13.56 2-20 2 0-4.04 17.998-5 22-5v1l-2 2ZM261 99h12.5l11.5 4c0-5.134-21.066-7-26-7v1l2 2Z"/><path fill="#2EA84F" id="PL5" d="m209 111 4 1c0-9.817-6.448-15-16-15l-2 2c5.729 0 12.367 12 14 12ZM248 111l-5 1c0-9.354 6.914-15 16-15l2 2c-3.34 0-13 8.428-13 12Z"/><path fill="#258F45" id="FRP5" d="M169 123h2l1-1c0-2.062 14.427-8 17-8 5.957 0 11.674 3 17 3l2.5 2c2.491 1.245.5-6.855.5-8-1.633 0-8.271-12-14-12-7.254 0-13.56 2-20 2l-4 2-1 1-2 1-1 1c0 4.542-13.836 18 0 18l2-1ZM284 122l3 1 5.5 1c9.44-4.72-4.5-15.329-4.5-19l-1-1-1-1h-1l-11.5-4H261c-3.34 0-13 8.428-13 12 0 5.873-5.632 7 2 7l1-1c5.285 0 10.714-3 17-3 3.211 0 16 5.004 16 8Z"/><path fill="#1F9D58" id="MOs5" d="M175 101c-1.465 0-4-.109-4 2l4-2ZM171 103l-1 1 1-1ZM286 103l1 1-1-1Z"/><path fill="#268E45" id="FRP2/3" d="m168 105-1 1 1-1ZM287 123l8 4c0-1.186 3.346-5.192 4-6.5 1.916-3.832-6.879-15.5-11-15.5 0 3.671 13.94 14.28 4.5 19l-5.5-1ZM167 124l-6 3-2-2.5c-2.92-5.839.596-9.191 3-14 .642-1.285 3.123-4.5 5-4.5 0 4.542-13.836 18 0 18Z"/><path fill="#23885E" id="ORBm5" d="M207 121h1c3.474 0 5-4.977 5-8v-1l-4-1c0 1.145 1.991 9.245-.5 8l-2.5-2 1 4ZM250 118l-1 3c-3.229 0-6-5.238-6-8v-1l5-1c0 5.873-5.632 7 2 7Z"/><path fill="#24885D" id="ORBm2/3" d="m213 135 1 1c7.694 0 7-15.565 7-21-2.522 0-4.909-2-8-2 0 3.023-1.526 8-5 8 0 5.18 5 8.771 5 14ZM243 135l-1 1c-6.479 0-7-16.311-7-21l1-1 7-1c0 2.762 2.771 8 6 8l-6 14Z"/><path fill="#228A5D" id="ORBl5" d="M187 121c-5.039 0-10.575 1-15 1 0-2.062 14.427-8 17-8l-2 7Z"/><path fill="#23885C" id="ORBvl5" d="M187 121h20l-1-4c-5.326 0-11.043-3-17-3l-2 7Z"/><path fill="#23895D" id="ORBm1" d="M233 151h6c0-5.694 3-9.35 3-15-6.479 0-7-16.311-7-21-4.607 0-10.052-1-14-1v1c0 5.435.694 21-7 21 0 5.543 3 9.104 3 15h6l4-5.5c.552-1.103.046-9.5 1.5-9.5l.5 7.5 4 7.5Z"/><path fill="#2FA74F" id="PL2/3" d="m236 114-1 1 1-1Z"/><path fill="#23885C" id="ORBvl5" d="M249 121h20l-1-7c-6.286 0-11.715 3-17 3l-1 1-1 3Z"/><path fill="#228A5D" id="ORBl5" d="M270 121c4.725 0 9.879 1 14 1 0-2.996-12.789-8-16-8l1 7h1Z"/><path fill="#23885E" id="ORBm5" d="m251 117-1 1 1-1Z"/><path fill="#238A5E" id="ORBl2/3" d="M157 139c0 4.455-2 8.829-2 14l9-8.5c5.607-5.607 12.786-13.5 21-13.5l2-10c-5.039 0-10.575 1-15 1l-1 1h-2l-2 1-6 3c0 1.643-2.788 12-4 12Z"/><path fill="#248A5D" id="ORBvl2/3" d="M185 131c10.572 0 17.994 4 28 4 0-5.229-5-8.82-5-14h-21l-2 10ZM271 131c-10.482 0-18.022 4-28 4l6-14h21l1 10Z"/><path fill="#238A5E" id="ORBl2/3" d="M299 139c0 3.149 3 10.473 3 15l-8-8.5c-5.787-5.787-14.744-14.5-23-14.5l-1-10c4.725 0 9.879 1 14 1l3 1 8 4 4 12Z"/><path fill="#228A5D" id="ORBl5" d="m172 122-1 1 1-1Z"/><path fill="#268E45" id="FRP2/3" d="m169 123-2 1 2-1Z"/><path fill="#238A5D" id="ORBl1" d="m156 165-3 1c0-2.246 3.318-11 1-11v-1l1-1 9-8.5c5.607-5.607 12.786-13.5 21-13.5 0 3.09-1 5.753-1 9v1h-3l-1 1h-1l-1 1-1 1-1 1h-1c-5.222 0-18.095 20-19 20Z"/><path fill="#248A5B" id="ORBvl1" d="M184 140c8.3 0 14.713.607 21.5 4l11.5 7c0-5.896-3-9.457-3-15l-1-1c-10.006 0-17.428-4-28-4 0 3.09-1 5.753-1 9ZM272 140c-7.052 0-13.697.098-19.5 3l-13.5 8c0-5.694 3-9.35 3-15l1-1c9.978 0 17.518-4 28-4 0 2.389 1 5.987 1 9Z"/><path fill="#238A5D" id="ORBl1" d="M301 166h2c0-3.532-1-7.2-1-12l-8-8.5c-5.787-5.787-14.744-14.5-23-14.5 0 2.389 1 5.987 1 9l1 1h3l2 2h1c2.952 0 22 20.159 22 23Z"/><path fill="#209765" id="AId2/3" d="M154 154v1l-4.5 1c-4.875-2.438-12.5-11.647-12.5-17l6.5-3c3.476-1.738 11.271 3 13.5 3 0 4.455-2 8.829-2 14l-1 1ZM319 139c0 6.389-7.192 14.346-12.5 17l-4.5-2c0-4.527-3-11.851-3-15l11.5-3c.741.37 6.812 3 8.5 3Z"/><path fill="#209764" id="AId1" d="M154 155c2.318 0-1 8.754-1 11l-3.5 1c-5.566-2.783-18.5-18.328-18.5-25l6-3c0 5.353 7.625 14.562 12.5 17l4.5-1ZM302 154c0 4.8 1 8.468 1 12l3.5 1c7.237-3.619 18.5-16.586 18.5-25l-6-3c0 6.389-7.192 14.346-12.5 17l-4.5-2Z"/><path fill="#99D2BD" id="OLF" d="M223 151c0 4.393 2 7.089 2 11-1.845 0-1.441-3.381-2-4.5l-7.5-6.5c-4.856-2.428-20.5-9.239-20.5 0h-3c0-7.499 1.591-10-8-10v-1c8.3 0 14.713.607 21.5 4l11.5 7h6ZM261 152l-.5-6c-3.857-1.928-19.546 5.273-23 7l-4.5 5v-7h6l13.5-8c5.803-2.902 12.448-3 19.5-3l1 1c-3.778 0-13.247 1.006-10 7.5l2 2.5-4 1ZM181 141l-1 1 1-1Z"/><path fill="#9DF0D1" id="AOBgl" d="m192 151-9.5 4-7.5-1-2-2.5c-1.29-2.579 2-4.232 2-6.5h1l1-1 1-1 1-1h1l1-1h3c9.591 0 8 2.501 8 10ZM265 151l8.5 4 7.5-1c0-1.298 3.563-3.373 2-6.5l-4-4.5h-1l-2-2h-3c-3.778 0-13.247 1.006-10 7.5l2 2.5Z"/><path fill="#99D2BD" id="OLF" d="m276 141 2 2-2-2ZM179 142l-1 1 1-1ZM297 185c0 5.88-2 10.652-2 16 2.707 0 3.124-7.748 4-9.5 3.784-7.567 2-16.204 2-25.5 0-2.841-19.048-23-22-23l4 4.5c1.563 3.127-2 5.202-2 6.5 4.939 0 0 6.169 0 7h1c4.832 0 15 3.49 15 11 2.207 0 1.858 13 0 13ZM177 144l-1 1 1-1ZM159 184c0 6.006 2 10.219 2 16-3.113 0-3.078-7.656-4-9.5-3.811-7.623-1-16.756-1-25.5.905 0 13.778-20 19-20 0 2.268-3.29 3.921-2 6.5l2 2.5c-4.939 0 0 6.169 0 7l-4.5-1c-3.758 1.879-11.5 7.143-11.5 12 0 1.116-2.791 11 0 11v1Z"/><path fill="#9AD1BD" id="MOB" d="M187 242c0 4.216 18.144 10 22 10l6-5.5 10-20c2.562-5.124 1-14.954 1-21 0-1.363-.7-6.5 1-6.5v-27c-.981 0-2-7.758-2-9v-1c-1.845 0-1.441-3.381-2-4.5l-7.5-6.5c-4.856-2.428-20.5-9.239-20.5 0v9l1 1c3.382 0 1 1.342 1 3l2 7c0 5.605-1 10.861-1 16l-1 1v1l-1 14.5c0 1.19.614 4.5-1 4.5 0 4.511-2 8.351-2 12 0 2.172-4.018 13-6 13v9ZM270 241c0 5.163-18.672 11-23 11 0-1.749-6.599-6.697-8-9.5-4.998-9.996-9-19.392-9-31.5v-42c1.579 0 1-2.855 1-4v-2c1.638 0 2-3.576 2-5l4.5-5c3.454-1.727 19.143-8.928 23-7l.5 6v7l-1 2c-1.473 0-1 1.952-1 3l-1 7-1 9.5c1.307 2.614 2 5.334 2 8.5l2 13v12.5l2 4.5c0 2.12 4.162 14 6 14l1 8Z"/><path fill="#9DEFD2" id="AOBmi" d="m194 161-7 1-10-1h-2c0-.831-4.939-7 0-7l7.5 1 9.5-4h3v9l-1 1ZM269 162h8c0-1.473 1.952-1 3-1h1c0-.831 4.939-7 0-7l-7.5 1-8.5-4-4 1v7l2 2 6 1Z"/><path fill="#238A5E" id="ORBl2/3" d="m155 153-1 1 1-1Z"/><path fill="#99D2BD" id="OLF" d="M233 158c-1.638 0-2 3.576-2 5 1.638 0 2-3.576 2-5ZM260 161h3l-2-2-1 2Z"/><path fill="#CACAC9" id="lotd" d="m159 172 2 1c0-3.702 5.417-8.458 8.5-10 .984-.492 5.5-.851 5.5-2l-4.5-1c-3.758 1.879-11.5 7.143-11.5 12Z"/><path fill="#99D2BD" id="OLF" d="M194 161h2l-1-1-1 1Z"/><path fill="#CACAC9" id="lotd" d="m297 172-1 1-5.5-8-8.5-4c4.832 0 15 3.49 15 11Z"/><path fill="#54BF94" id="AON" d="m186 232 1 1c1.982 0 6-10.828 6-13l-2.5 3c-3.598 0 1.212-3.925 1.5-4.5l-1-15c-1.067-2.134-7.716-17.569-7-19 1.448-2.896 7 .512 7 2.5 1.714 0 3.482 2 6 2v-1l1-1c0-5.139 1-10.395 1-16-.861 0-10-5.863-10-7-1.235 0-5 .643-5-1-1.593 0-7-.337-7-2h-2c0 1.149-4.516 1.508-5.5 2-3.083 1.542-8.5 6.298-8.5 10 0 2.979-2 6.23-2 10v1c1.993 0 1.35 5.2 2 6.5l7 16 5 10c2.312 4.623 13 10.333 13 15.5Z"/><path fill="#99D2BD" id="OLF" d="M187 162c0 1.473-1.952 1-3 1-1.593 0-7-.337-7-2l10 1Z"/><path fill="#CACAC9" id="lotd" d="M189 164h8c0-1.658 2.382-3-1-3h-2l-7 1c0 1.473-1.952 1-3 1 0 1.643 3.765 1 5 1ZM259 164h8c1.321 0 6 .684 6-1-1.145 0-4 .579-4-1l-6-1h-3c-1.473 0-1 1.952-1 3Z"/><path fill="#99D2BD" id="OLF" d="M280 161c-1.048 0-3-.473-3 1 1.048 0 3 .473 3-1Z"/><path fill="#54BF94" id="AON" d="m271 232-2 1c-1.838 0-6-11.88-6-14l3.5 3c1.682-.841-2.016-4.532-2.5-5.5l1-12c2.551-5.102 3.477-10.954 6-16l2-4c-1.688-3.376-8 .771-8 3.5l-6 1c0-3.166-.693-5.886-2-8.5l1-9.5 9-7c1.321 0 6 .684 6-1 1.145 0 4 .579 4-1 1.048 0 3 .473 3-1h2l8.5 4 5.5 8c0 3.531 1 7.893 1 12-1.993 0-1.35 5.2-2 6.5-2.939 5.878-5.085 12.17-8 18-3.051 6.103-16 19.213-16 22.5Z"/><path fill="#99D2BD" id="OLF" d="M277 162c0 1.579-2.855 1-4 1s-4 .579-4-1h8ZM225 163c2.156 0 2 7.077 2 9-.981 0-2-7.758-2-9ZM197 164l2 7c-.861 0-10-5.863-10-7h8ZM267 164l-9 7 1-7h8ZM231 165c-1.579 0-1 2.855-1 4 1.579 0 1-2.855 1-4Z"/><path fill="#CAC8C7" id="lot" d="M161 173c0 2.979-2 6.23-2 10-2.791 0 0-9.884 0-11l2 1Z"/><path fill="#99D2BD" id="OLF" d="M229 211h1v-39c-1.751 0-1 7.426-1 9v30Z"/><path fill="#CAC8C7" id="lot" d="M296 173c0 3.531 1 7.893 1 12 1.858 0 2.207-13 0-13l-1 1Z"/><path fill="#CBCBC7" id="aco" d="M195 208c0 4.511-2 8.351-2 12l-2.5 3c-3.598 0 1.212-3.925 1.5-4.5l-1-15c-1.067-2.134-7.716-17.569-7-19 1.448-2.896 7 .512 7 2.5 0 7.117 4 13.165 4 21ZM261 202v12.5l2 4.5 3.5 3c1.682-.841-2.016-4.532-2.5-5.5l1-12c2.551-5.102 3.477-10.954 6-16l2-4c-1.688-3.376-8 .771-8 3.5 0 2.1-2.274 14-4 14Z"/><path fill="#CAC8C7" id="lot" d="m172 222 10.5 10c.717.717 3.5 2.075 3.5 0 0-5.167-10.688-10.877-13-15.5l-5-10-7-16c-.65-1.3-.007-6.5-2-6.5 0 6.006 2 10.219 2 16v1l1 1v1l1 1c0 5.589 9 15.7 9 18ZM283 223l-8.5 9c-.717.717-3.5 2.075-3.5 0 0-3.287 12.949-16.397 16-22.5 2.915-5.83 5.061-12.122 8-18 .65-1.3.007-6.5 2-6.5 0 5.88-2 10.652-2 16v1l-1 1c0 2.374-9.231 20-11 20Z"/><path fill="#99D2BD" id="OLF" d="m197 189-1 14.5c0 1.19.614 4.5-1 4.5 0-7.835-4-13.883-4-21 1.714 0 3.482 2 6 2ZM198 187l-1 1 1-1ZM259 189l2 13c1.726 0 4-11.9 4-14l-6 1Z"/><path fill="#C7CBCA" id="onl" d="M227 199c-1.7 0-1 5.137-1 6.5 0 6.046 1.562 15.876-1 21l-10 20-6 5.5c0 2.617 5.171.329 6-.5 4.691-4.691 5.745-4.49 9-11 4.103-8.206 3-30.799 3-41.5Z"/><path fill="#99D2BD" id="OLF" d="m161 201 1 1-1-1ZM295 202l-1 1 1-1ZM162 203l1 1-1-1Z"/><path fill="#C7CBCA" id="onl" d="M230 221c0 9.162 1.19 18.88 5 26.5.998 1.996 12 7.616 12 4.5 0-1.749-6.599-6.697-8-9.5-4.998-9.996-9-19.392-9-31.5h-1v9l1 1Z"/><path fill="#99D2BD" id="OLF" d="m229 220 1 1-1-1ZM187 233v9c-1.893 0-15-17.879-15-20l10.5 10c.717.717 3.5 2.075 3.5 0l1 1ZM269 233l1 8c2.728 0 13-15.093 13-18l-8.5 9c-.717.717-3.5 2.075-3.5 0l-2 1Z"/></svg>