<svg xmlns="http://www.w3.org/2000/svg" viewBox="0 0 456 320"><path fill="#1E9C59" id="MOs1" d="M221 60h1l4-3c0-3.303-4.023-4.547-5-6.5-5.42-10.84-16.255-11.5-28-11.5-4.076 0-7.795 2-11 2-1.235 0-5-.643-5 1v5c11.793 0 32.64-9.22 40 5.5 1.604 3.208 4 3.515 4 7.5ZM230 57l5 2c0-2.58 3.707-7.104 5.5-8 3.295-1.648 5.782-4.391 9-6 9.268-4.634 22.64 3 30.5 3v-6c0-1.643-3.765-1-5-1-3.446 0-6.77-2-11-2-13.985 0-24.773 2.046-31 14.5l-3 3.5Z"/><path fill="#1E9D5A" id="MOp1" d="M121 63v6c4.34 0 8.796-4.148 12.5-6 5.58-2.79 37.496-15 42.5-15l1-1v-5c-9.584 0-36.539 11.52-45.5 16L121 63ZM335 63v6c-5.307 0-11.885-5.692-16.5-8-6.01-3.005-32.489-13-38.5-13v-6c6.197 0 32.46 9.98 38.5 13 4.125 2.063 11.982 8 16.5 8Z"/><path fill="#1E9D58" id="MOs2/3" d="M215 63c0-5.478-6.426-5.463-9.5-7-12.01-6.005-24.066 9-30.5 9 0-4.858 1-10.696 1-17l1-1c11.793 0 32.64-9.22 40 5.5 1.604 3.208 4 3.515 4 7.5l-6 3ZM241 63c0-4.286 6.828-5.664 9.5-7 12.077-6.038 20.275 8 30.5 8 0-6.555-1-11.255-1-16-7.86 0-21.232-7.634-30.5-3-3.218 1.609-5.705 4.352-9 6-1.793.896-5.5 5.42-5.5 8v1l6 3Z"/><path fill="#1E9C59" id="MOs1" d="m177 47-1 1 1-1Z"/><path fill="#1F9C58" id="MOp2/3" d="M119 94h1l11.5-8c7.592-7.592 21.688-10.344 31-15l12.5-6c0-4.858 1-10.696 1-17-5.004 0-36.92 12.21-42.5 15-3.704 1.852-8.16 6-12.5 6v1c0 6.242-1 12.2-1 16l-1 8ZM337 86v8l-16.5-11c-5.977-2.988-34.878-18-39.5-18v-1c0-6.555-1-11.255-1-16 6.011 0 32.49 9.995 38.5 13 4.615 2.308 11.193 8 16.5 8v1c0 6.373 2 10.238 2 16Z"/><path fill="#1F9D58" id="MOs5" d="M200 77h1c0-3.083 10.457-13 14-13v-1c0-5.478-6.426-5.463-9.5-7-12.01-6.005-24.066 9-30.5 9 0 6.035-2 12.293-2 18l18.5-9c1.569-.785 8.5 1.174 8.5 3ZM256 76c2.588 0 6.498-3.5 9.5-2 4.65 2.325 12.284 9 17.5 9 0-6.406-2-12.21-2-18v-1c-10.225 0-18.423-14.038-30.5-8-2.672 1.336-9.5 2.714-9.5 7v1c5.028 0 11.521 12 15 12Z"/><path fill="#3EA665" id="ACAd1" d="M222 88h12c0-9.22 1-19.46 1-28v-1l-5-2-1.5 3-2.5-3-4 3v28Z"/><path fill="#40A565" id="ACAd2/3" d="m222 88-5 1V69.5c0-1.532-.173-5.5-2-5.5v-1l6-3h1v28ZM234 88l5 1V70.5l2-6.5v-1l-6-3c0 8.54-1 18.78-1 28Z"/><path fill="#197E64" id="SSp-ul1" d="m103 73 3 4 15-7v-7c-4.755 0-10.334 5.917-14.5 8l-3.5 2ZM353 73c0 1.624-2 2.75-2 5l-16-8v-7c2.006 0 18 9.18 18 10Z"/><path fill="#3EA566" id="ACAd5" d="m217 89-14 7c0-6.707-2-13.268-2-19 0-3.083 10.457-13 14-13 1.827 0 2 3.968 2 5.5V89ZM239 89l14 7c0-4.848-.049-11.401 2-15.5.523-1.046-.951-3.5 1-3.5v-1c-3.479 0-9.972-12-15-12l-2 6.5V89Z"/><path fill="#1E9C5A" id="MOp5" d="M119 97c0 1.042 1.294 11 2 11l10.5-7c9.802-4.9 21.243-7.122 31-12l10.5-5v-1c0-5.707 2-11.965 2-18l-12.5 6c-9.312 4.656-23.408 7.408-31 15L120 94l-1 1c0 .839 1.93 2 0 2ZM337 97l-1 11-11.5-7c-9.791-4.895-21.278-7.139-31-12L283 84v-1c0-6.406-2-12.21-2-18 4.622 0 33.523 15.012 39.5 18L337 94v3Z"/><path fill="#197F61" id="SSp-ul2/3" d="M113 89h1l6-3c0-3.8 1-9.758 1-16l-15 7v1c0 4.239 7 6.843 7 11ZM337 86l6 3c0-2.138 6.282-10 8-10v-1l-16-8c0 6.373 2 10.238 2 16Z"/><path fill="#187E61" id="SSp-m1" d="m61 142 4 1c.672 0 2-4.329 2-5 0-5.362 1.745-11.989 4-16.5 5.654-11.309 12.867-29.183 23.5-34.5l11.5-9v-1l-3-4c-3.42 0-14.06 10.56-17 13.5-12.468 12.468-25 38.086-25 55.5ZM396 142l-5 1c0-15.322-13.031-40.531-24-51.5-3.544-3.543-11.147-12.5-16-12.5v-1c0-2.25 2-3.376 2-5 5.358 0 13.118 9.618 17 13.5 11.449 11.45 26 40.007 26 55.5Z"/><path fill="#1D9C5A" id="MOs6a" d="m177 103-4 1c-1.643 0-1-3.765-1-5l1-15v-1l18.5-9c1.569-.785 8.5 1.174 8.5 3-1.514 0-12 20.202-12 23-1.048 0-3-.473-3 1-1.775 0-8 .069-8 2ZM268 100c5.722 0 10.789 4 16 4 0-7.133-1-14.464-1-20v-1c-5.216 0-12.85-6.675-17.5-9-3.002-1.5-6.912 2-9.5 2v1c2.25 0 12 19.227 12 23Z"/><path fill="#3FA664" id="ACAd6a" d="M193 105h1l9-8v-1c0-6.707-2-13.268-2-19h-1c-1.514 0-12 20.202-12 23 2.101 0 5 2.831 5 5ZM265 103l-2 2c-4.611 0-6.177-8-10-8v-1c0-4.848-.049-11.401 2-15.5.523-1.046-.951-3.5 1-3.5 2.25 0 12 19.227 12 23v1c-2.003 0-3-.293-3 2Z"/><path fill="#1A7E64" id="SSp-m2/3" d="m65 144 10 2c0-17.366 14.69-31.881 22-46.5 1.423-2.845 16-10.204 16-10.5 0-4.157-7-6.761-7-11l-11.5 9c-10.633 5.317-17.846 23.191-23.5 34.5-2.255 4.511-4 11.138-4 16.5 0 .671-1.328 5-2 5v1ZM391 144l-10 2c0-11.334-15.169-43.835-25.5-49-3.483-1.742-8.622-8-12.5-8 0-2.138 6.282-10 8-10 4.853 0 12.456 8.957 16 12.5 10.969 10.969 24 36.178 24 51.5v1Z"/><path fill="#1F9B5A" id="MOp6a" d="M124 133h1l7-7.5c4.621-4.621 21.58-14.5 28-14.5 0-2.109 2.535-2 4-2 0-1.817 7.169-4 9-4v-1c-1.643 0-1-3.765-1-5l1-15-10.5 5c-9.757 4.878-21.198 7.1-31 12l-10.5 7-1 1c0 7.994 4 16.581 4 24ZM336 109c0 6.199-3 9.984-3 16 0 1.745.698 6-2 6-3.678 0-5.795-6.147-9.5-8-8.031-4.016-29.451-18-37.5-18v-1c0-7.133-1-14.464-1-20l10.5 5c9.722 4.861 21.209 7.105 31 12l11.5 7v1Z"/><path fill="#1A7F63" id="SSp-ul4" d="M118 95h1v-1l1-8-6 3 3 6h1ZM338 95h1l4-6-6-3v9h1Z"/><path fill="#3FA566" id="ACAv2/3" d="M218 127h2l2-5V88l-5 1 1 38Z"/><path fill="#40A664" id="ACAv1" d="M229 118c2.813 0 3.461 4 5 4V88h-12v34l5-4c0-3.15 2-3.446 2 0Z"/><path fill="#3FA566" id="ACAv2/3" d="m236 126 2 1c0-11.939 1-25.399 1-38l-5-1v34l2 4Z"/><path fill="#1B7F62" id="SSp-m4" d="M75 147c5.663 0 1.69 8 6 8 0-4.022 2.268-9.037 4-12.5 1.738-3.476 1.235-8.47 3-12 3.607-7.214 9.734-14.468 13-21L117 95l-3-6h-1c0 .296-14.577 7.655-16 10.5-7.31 14.619-22 29.134-22 46.5v1Z"/><path fill="#3EA666" id="ACAv5" d="M209 124c0 1.733 9 5.528 9 3l-1-38-14 7v1c0 9.514 6 21.8 6 27ZM247 124c0 2.997-9 4.888-9 3 0-11.939 1-25.399 1-38l14 7v1c0 5.827.414 12.673-2 17.5l-4 9.5Z"/><path fill="#1B7F62" id="SSp-m4" d="M381 147c-6.238 0-4 12.729-4 18-.792 0-2-7.987-2-9 0-8.054-3.547-19.593-7-26.5-5-10-10.075-17.075-18.5-25.5L339 95l4-6c3.878 0 9.017 6.258 12.5 8 10.331 5.165 25.5 37.666 25.5 49v1Z"/><path fill="#187E62" id="SSp-ul5" d="m120 94-1 1v-1h1Z"/><path fill="#1B7E63" id="SSp-m5" d="M94 165c-4.257 0-8.954 1-14 1v-5c1.643 0 1-3.765 1-5v-1c0-4.022 2.268-9.037 4-12.5 1.738-3.476 1.235-8.47 3-12 3.607-7.214 9.734-14.468 13-21L117 95h1l1 2c0 1.042 1.294 11 2 11l-1 1c-4.259 0-11.206 7.912-13 11.5-1.138 2.277-4.508 5.016-6 8-5.515 11.031-7 22.09-7 35.5v1Z"/><path fill="#187E62" id="SSp-ul5" d="M119 95c0 .839 1.93 2 0 2l-1-2h1ZM338 95l-1 2v-2h1Z"/><path fill="#1B7E63" id="SSp-m5" d="M376 166h1v-1c-.792 0-2-7.987-2-9 0-8.054-3.547-19.593-7-26.5-5-10-10.075-17.075-18.5-25.5L339 95h-1l-1 2-1 11v1c4.164 0 10.208 5.917 12 9.5l7 9c5.439 10.877 8 23.407 8 36.5 3.982 0 8.748 2 13 2Z"/><path fill="#40A564" id="ACAv6a" d="m205 122 4 2c0-5.2-6-17.486-6-27l-9 8c0 6.39 11 10.857 11 16v1ZM251 122l-4 2 4-9.5c2.414-4.827 2-11.673 2-17.5 3.823 0 5.389 8 10 8v1c-1.772 0-6 7.346-6 9-1.911 0-5 3.805-5 6l-1 1Z"/><path fill="#1E9C58" id="MOs6b" d="M185 101h3v-1c-1.048 0-3-.473-3 1Z"/><path fill="#3FA466" id="ACAd6b" d="M193 105v1l-5-5v-1c2.101 0 5 2.831 5 5Z"/><path fill="#1E9C58" id="MOs6b" d="M284 105v1c-3.828 0-10.862-5-16-5v-1c5.722 0 10.789 4 16 4v1ZM185 101c-1.775 0-8 .069-8 2 1.899 0 8 .488 8-2Z"/><path fill="#CACCC7" id="cing" d="M205 121v1c-7.601 0-12.29-12.895-18.5-16-5.811-2.906-11.758 4-16.5 4l-1 1h-6l1-2c1.831 0 9-2.183 9-4 1.465 0 4 .109 4-2 1.899 0 8 .488 8-2h3l5 5c0 3.289 8.572 15 12 15Z"/><path fill="#3FA466" id="ACAd6b" d="M268 101c-2.003 0-3-.293-3 2l3-2Z"/><path fill="#CACCC7" id="cing" d="M257 115c0 2.773-4 3.67-4 6 7.543 0 10.609-12.054 16.5-15 5.984-2.992 12.539 4 17.5 4l1 1h1l7 1c0-1.387-10.545-6-12-6-3.828 0-10.862-5-16-5l-3 2-1 3c0 2.109-5.383 9-7 9Z"/><path fill="#1E9C58" id="MOs6b" d="M173 104v1c1.465 0 4 .109 4-2l-4 1Z"/><path fill="#3FA466" id="ACAd6b" d="M263 106h1l1-3-2 2v1Z"/><path fill="#1D9D5A" id="MOp6b" d="M173 105c-1.831 0-9 2.183-9 4 1.831 0 9-2.183 9-4Z"/><path fill="#40A465" id="ACAv6b" d="M193 106c0 3.289 8.572 15 12 15 0-5.143-11-9.61-11-16h-1v1Z"/><path fill="#1D9D5A" id="MOp6b" d="M332 133v2l-10.5-10c-7.311-3.655-17.039-13-25.5-13 0-1.387-10.545-6-12-6v-1c8.049 0 29.469 13.984 37.5 18 3.705 1.853 5.822 8 9.5 8v1l1 1Z"/><path fill="#CCC7C9" id="ccg" d="M113 173h2c0-21.701 9.352-36.426 28.5-46 3.989-1.995 8.95-1.975 13-4 5.75-2.875 34.5.045 34.5 8 2.89 0 19 9.149 19 12 .669 0 7.89 8 13 8h2c2.45 0 1.698-3 3.5-3l1 3 1.5 1 2-1c4.755 0 12.114-7 13-7l1-1c0-1.747.253-2 2-2 0-3.413 12.537-10 16-10l1-1 5.5-5c3.656-1.828 8.349-1.174 12-3 4.628-2.314 17.262 1.131 21 3 4.951 2.476 10.946 3.473 16 6 15.651 7.826 21.5 26.242 21.5 42l2-1v-7l-1-2v-5c-1.259 0-3.283-9.067-4-10.5-3.028-6.056-11.26-16.88-18.5-20.5l-24-12-7.5-4h-1l-1-1c-4.961 0-11.516-6.992-17.5-4-5.891 2.946-8.957 15-16.5 15l-2 1-4 2c0 2.997-9 4.888-9 3l-2-1c0 2.276-4.061 4.22-6.5 3l-1-2-2.5 2c-2.518 0-4.286-2-6-2h-2c0 2.528-9-1.267-9-3l-4-2c-7.601 0-12.29-12.895-18.5-16-5.811-2.906-11.758 4-16.5 4l-1 1h-2c0 1.998-5.174 2.337-6.5 3l-19 9c-3.551 1.775-18.783 18-20.5 18 0 1.238-.423 3-2 3l-4 8c0 1.145.579 4-1 4 0 1.145.579 4-1 4v13Z"/><path fill="#40A465" id="ACAv6b" d="M264 106c0 2.109-5.383 9-7 9 0-1.654 4.228-9 6-9h1Z"/><path fill="#187D61" id="SSp-m6a" d="M111 161c-5.516 0-10.99 3-17 3 0-13.41 1.485-24.469 7-35.5 1.492-2.984 4.862-5.723 6-8 1.794-3.588 8.741-11.5 13-11.5 0 7.994 4 16.581 4 24l-7 9.5c-2.895 5.79-6 11.537-6 18.5Z"/><path fill="#1D9D5A" id="MOp6b" d="M160 111h3l1-2c-1.465 0-4-.109-4 2Z"/><path fill="#187D61" id="SSp-m6a" d="M363 164v1c-5.501 0-12.152-4-18-4 0-5.748-8.024-28-13-28l-1-1v-1c2.698 0 2-4.255 2-6 0-6.016 3-9.801 3-16 4.164 0 10.208 5.917 12 9.5l7 9c5.439 10.877 8 23.407 8 36.5Z"/><path fill="#C9C9CA" id="scwm" d="m170 110-1 1 1-1ZM287 110l1 1-1-1Z"/><path fill="#1D9D5A" id="MOp6b" d="M125 133v1l8.5-8c7.508-3.754 17.845-14 26.5-14v-1c-6.42 0-23.379 9.879-28 14.5l-7 7.5Z"/><path fill="#CACCC7" id="cing" d="M163 111c0 1.473-1.952 1-3 1v-1h3Z"/><path fill="#C9C9CA" id="scwm" d="M125 134c0 2.46-4 4.17-4 7 1.717 0 16.949-16.225 20.5-18l19-9c1.326-.663 6.5-1.002 6.5-3h-4c0 1.473-1.952 1-3 1-8.655 0-18.992 10.246-26.5 14l-8.5 8ZM332 135c0 3.084 11 14.044 11 23-1.259 0-3.283-9.067-4-10.5-3.028-6.056-11.26-16.88-18.5-20.5l-24-12-7.5-4 7 1c8.461 0 18.189 9.345 25.5 13l10.5 10Z"/><path fill="#40A465" id="ACAv6b" d="M252 121h1c0-2.33 4-3.227 4-6-1.911 0-5 3.805-5 6Z"/><path fill="#7ED04B" id="IG" d="M236 126c0 2.276-4.061 4.22-6.5 3l-1-2-2.5 2c-2.518 0-4.286-2-6-2l2-5 5-4c.839 0 2 1.93 2 0 2.813 0 3.461 4 5 4l2 4Z"/><path fill="#CACCC7" id="cing" d="m253 121-2 1 1-1h1Z"/><path fill="#98D5F9" id="CP" d="m135 231 5 3c6.755 0 13.086 2.207 19.5-1 4.938-2.469 5.526-9.552 7.5-13.5 4.433-8.866 8.611-14.055 17.5-18.5l5.5-3 2-2c0-1.013 1.208-9 2-9v-8l1-2v-5l1-2v-1c0-1.048-.473-3 1-3v-23.5l-3-6.5-3-5c0-7.955-28.75-10.875-34.5-8-4.05 2.025-9.011 2.005-13 4-19.148 9.574-28.5 24.299-28.5 46 0 11.351 7 20.763 7 32l1 6v1c1.014 0 2 3.959 2 5v1l2 2v1l1 1 1 2 1 1 1 2 4 4ZM319 233c-1.048 0-3-.473-3 1-6.737 0-13.1 2.2-19.5-1-4.823-2.411-5.517-10.535-7.5-14.5-4.818-9.635-8.253-12.877-17.5-17.5l-5.5-3-1-1c0-3.88-2-7.955-2-12.5 0-1.098.534-3.5-1-3.5v-4c0-1.048.473-3-1-3v-4c0-6.361-5.577-19.346-2-26.5 1.167-2.333 3-4.728 3-7.5 1.077 0 3-3.762 3-5l1-1 5.5-5c3.656-1.828 8.349-1.174 12-3 4.628-2.314 17.262 1.131 21 3 4.951 2.476 10.946 3.473 16 6 15.651 7.826 21.5 26.242 21.5 42 0 11.018-7 20.319-7 32 0 2.885-2 4.697-2 8v1l-1 1-2 5-1 1v1l-1 1-1 1v1l-1 1-5 5-1 1-1 1Z"/><path fill="#AAA8A9" id="SEZ" d="m266 130-1 1 1-1ZM210 143v1c-3.731 0-9.533-8-16-8l-3-5c2.89 0 19 9.149 19 12ZM262 136c0-1.028-1.621-1.44-2.5-1-3.379 1.69-6.514 6-10.5 6 0-3.413 12.537-10 16-10 0 1.238-1.923 5-3 5Z"/><path fill="#1F9B5A" id="MOp6a" d="m331 132 1 1-1-1Z"/><path fill="#188064" id="SSp-m6b" d="M111 161h2v-1c0-1.145-.579-4 1-4 0-1.145-.579-4 1-4 0-1.937 1.553-8 4-8 0-1.238.423-3 2-3 0-2.83 4-4.54 4-7v-1h-1l-7 9.5c-2.895 5.79-6 11.537-6 18.5ZM343 161h2c0-5.748-8.024-28-13-28v2c0 3.084 11 14.044 11 23v3Z"/><path fill="#A8AAAA" id="VL" d="M197 165h1l1-1c0-7.352 11-11.703 11-20-3.731 0-9.533-8-16-8l3 6.5V165ZM259 166l2 4c0-6.361-5.577-19.346-2-26.5 1.167-2.333 3-4.728 3-7.5 0-1.028-1.621-1.44-2.5-1-3.379 1.69-6.514 6-10.5 6 0 1.747-.253 2-2 2l-1 2c0 7.159 13 15.345 13 21Z"/><path fill="#C9C9CA" id="scwm" d="M121 141c-1.577 0-2 1.762-2 3 1.577 0 2-1.762 2-3Z"/><path fill="#AAA8A9" id="SEZ" d="M249 141c-1.747 0-2 .253-2 2 1.747 0 2-.253 2-2Z"/><path fill="#1A7E62" id="SSs1" d="m65 171-4 1c0-7.411-4.886-17.728-1-25.5.574-1.147-1.064-4.5 1-4.5l4 1v28ZM391 171l4 1c0-2.685 1.715-9.931 3-12.5 2.125-4.25-2-13.168-2-17.5l-5 1v28Z"/><path fill="#97D6F9" id="STR" d="M221 160c-3.813 0-8.877-3.311-13.5-1-1.692.846-6.899 5-8.5 5 0-7.352 11-11.703 11-20v-1c.669 0 7.89 8 13 8 0 1.271-2 4.616-2 9Z"/><path fill="#AAA8A9" id="SEZ" d="M246 144v1l1-2-1 1Z"/><path fill="#1B8063" id="SSs2/3" d="M65 171h1l8-3c0-7.149 1-14.403 1-21v-1l-10-2v27Z"/><path fill="#C9C9CA" id="scwm" d="M119 144c-2.447 0-4 6.063-4 8l4-8Z"/><path fill="#97D6F9" id="STR" d="M235 161c2.165 0 8.318-4.591 13.5-2l8 4 2.5 3c0-5.655-13-13.841-13-21v-1c-.886 0-8.245 7-13 7 0 .402 2.465 3.43 3 4.5l-1 5.5Z"/><path fill="#1B8063" id="SSs2/3" d="M383 169c3.354 0 5.291 2 8 2v-27l-10 2v1c0 6.333 2 13.686 2 21v1Z"/><path fill="#187C63" id="SSs4" d="m80 167-6 1c0-7.149 1-14.403 1-21 5.663 0 1.69 8 6 8v1c-1.222 0-1.868 5-1 5v2c-1.4 0-1.4 2 0 2v2ZM377 167l6 1c0-7.314-2-14.667-2-21-6.238 0-4 12.729-4 18v2Z"/><path fill="#97D6F9" id="STR" d="m231 187-2.5-4-3.5 6 1-21.5c-.654-1.308-4-5.314-4-6.5l3.5 2c1.58 0 2.205-9.091 1.5-10.5l-2-1.5c2.45 0 1.698-3 3.5-3l1 3 1.5 1c-1.247 0-1.675 8.15-1 9.5 1.385 2.77 2.862-.5 5-.5l-4 4.5V187Z"/><path fill="#8FCAED" id="SH" d="m221 160 1 1 3.5 2c1.58 0 2.205-9.091 1.5-10.5l-2-1.5h-2c0 1.271-2 4.616-2 9ZM231 152c-1.247 0-1.675 8.15-1 9.5 1.385 2.77 2.862-.5 5-.5l1-5.5c-.535-1.07-3-4.098-3-4.5l-2 1Z"/><path fill="#C9C9CA" id="scwm" d="M115 152c-1.579 0-1 2.855-1 4 1.579 0 1-2.855 1-4Z"/><path fill="#1B7F62" id="SSp-m4" d="M81 156c-1.222 0-1.868 5-1 5 1.643 0 1-3.765 1-5Z"/><path fill="#C9C9CA" id="scwm" d="M114 156c-1.579 0-1 2.855-1 4 1.579 0 1-2.855 1-4Z"/><path fill="#90CAED" id="LSr" d="m211 214 5.5 5c3.469 1.734 2.939-4 4.5-4 0-8.973 4-16.665 4-26l1-21.5c-.654-1.308-4-5.314-4-6.5l-1-1c-3.813 0-8.877-3.311-13.5-1-1.692.846-6.899 5-8.5 5l-1 1-1 2-1 2v1l-1 2v5l2.5-1c5.18 2.59 12.06 17.62 14.5 22.5 1.34 2.679-.267 8.5-3 8.5l1 4v1l1 1v1ZM245 215l-1 1c-2.259 0-3.345 4.578-6.5 3l-2.5-5c0-7.281-3-12.796-3-20l-1-1v-27.5l4-4.5c2.165 0 8.318-4.591 13.5-2l8 4 2.5 3 2 4v6c-4.341 0-13.89 15.281-16 19.5-1.728 3.456-.508 11.5 3 11.5v1l-1 1v2l-1 1v1l-1 1v1Z"/><path fill="#009B74" id="GU6a" d="M111 175c-6.1 0-11.16 6-17 6v-17c6.01 0 11.484-3 17-3v14Z"/><path fill="#019C74" id="GU6b" d="M111 175h2v-14h-2v14ZM344 174l1 1v-14h-2v2l1 2v9Z"/><path fill="#009B74" id="GU6a" d="M345 175c5.517 0 11.481 6 17 6 0-4.734 1-10.644 1-16-5.501 0-12.152-4-18-4v14Z"/><path fill="#1B7F62" id="SSp-m4" d="M80 163c-1.4 0-1.4 2 0 2v-2Z"/><path fill="#C9C9CA" id="scwm" d="m343 163 1 2-1-2Z"/><path fill="#019C75" id="GU5" d="m94 181-14 5v-20c5.046 0 9.743-1 14-1v16Z"/><path fill="#97D6F9" id="STR" d="m199 164-1 1 1-1Z"/><path fill="#019C75" id="GU5" d="M362 181c4.901 0 8.573 4 14 4 1.579 0 1-2.855 1-4v-14l-1-1c-4.252 0-9.018-2-13-2v1c0 5.356-1 11.266-1 16Z"/><path fill="#97D6F9" id="STR" d="M197 166v1l1-2h-1v1Z"/><path fill="#A8AAAA" id="VL" d="m197 167-1 2c0-1.048-.473-3 1-3v1Z"/><path fill="#1C8063" id="SSs5" d="M377 166v1l-1-1h1Z"/><path fill="#009C74" id="GU4" d="m80 186-3 1-3-19 6-1v19ZM376 186l3 1 3-13c0-1.235-.643-5 1-5v-1l-6-1v14c0 1.145.579 4-1 4v1Z"/><path fill="#009B75" id="GU2/3" d="M77 187c-2.056 0-5.807 4-7 4 0-6.684-4-12.943-4-20l8-3 3 19ZM379 187l7 3c1.951 0 .477-2.454 1-3.5 1.903-3.807 4-11.197 4-15.5-2.709 0-4.646-2-8-2-1.643 0-1 3.765-1 5l-3 13Z"/><path fill="#A8AAAA" id="VL" d="m196 170-1 2 1-2Z"/><path fill="#009C75" id="GU1" d="m70 191-3 1c0-6.839-6-13.315-6-20l4-1h1c0 7.057 4 13.316 4 20ZM386 191l3 1c0-6.587 6-13.029 6-20l-4-1c0 4.303-2.097 11.693-4 15.5-.523 1.046.951 3.5-1 3.5v1Z"/><path fill="#C8CBCC" id="ec" d="M335 205h1c0-1.465 1.627-10 3-10v-1c0-1.048-.473-3 1-3l1-2v-2l1-1c0-1.712.768-12 2-12v-2l-2 1c0 11.018-7 20.319-7 32ZM120 205h2c0-11.237-7-20.649-7-32h-2v2c0 4.646 2 7.501 2 12v1c.886 0 3 5.824 3 7l2 10Z"/><path fill="#A8AAAA" id="VL" d="m261 176 1 1c0-1.048.473-3-1-3v2Z"/><path fill="#1F9766" id="AId6b" d="M342 186h1v-1c0-3.119 2-6.279 2-10l-1-1c-1.232 0-2 10.288-2 12Z"/><path fill="#209666" id="AId6a" d="M100 201h1l6-2c0-6.372-3.532-14 6-14l-2-10c-6.1 0-11.16 6-17 6 0 7.12 6 13.623 6 20Z"/><path fill="#1F9766" id="AId6b" d="m113 185 2 2c0-4.499-2-7.354-2-12h-2l2 10Z"/><path fill="#209666" id="AId6a" d="M355 201h1c0-4.625 6-12.117 6-20-5.519 0-11.483-6-17-6 0 3.721-2 6.881-2 10 9.906 0 6 7.642 6 14l6 2Z"/><path fill="#8FCBED" id="LSv" d="M207 207h2c2.733 0 4.34-5.821 3-8.5-2.44-4.88-9.32-19.91-14.5-22.5l-2.5 1-1 2v8c1.684 0 1 4.679 1 6l1 2c4.775 0 6.898 10 10 10l1 1v1ZM248 207h1l1-1 2-3 1-1 4-5 1-1h1l1-1 1-1 1-13v-4l-1-1c-4.341 0-13.89 15.281-16 19.5-1.728 3.456-.508 11.5 3 11.5Z"/><path fill="#A8AAAA" id="VL" d="m195 177-1 2 1-2Z"/><path fill="#209665" id="AId5" d="M86 203h1l13-2c0-6.377-6-12.88-6-20l-14 5c0 6.251 6 11.425 6 17Z"/><path fill="#A8AAAA" id="VL" d="M265 197v1c0 12.67-3 2.97-3-2l-1-2 1-13c1.534 0 1 2.402 1 3.5 0 4.545 2 8.62 2 12.5Z"/><path fill="#209665" id="AId5" d="M369 203h1c0-3.2 6-10.532 6-17v-1c-5.427 0-9.099-4-14-4 0 7.883-6 15.375-6 20l13 2Z"/><path fill="#96A7D3" id="MS" d="M221 227c5.713 0 9.909 1 15 1l-1-14c0-7.281-3-12.796-3-20l-1-1v-6l-2.5-4-3.5 6c0 9.335-4 17.027-4 26v12Z"/><path fill="#8ADA86" id="CLA" d="M117 195c0 3.519 1.819 5.861 0 9.5-2.954 5.908-10-1.63-10-5.5 0-6.372-3.532-14 6-14l2 2v1l2 7ZM339 195c0 3.573-1.501 6.499 0 9.5 3.17 6.339 10-.505 10-5.5 0-6.358 3.906-14-6-14v1l-1 1-1 2-1 2c0 1.048.473 3-1 3v1Z"/><path fill="#209765" id="AId2/3" d="M86 203c-3.68 0-6.731 3-10 3 0-4.732-6-9.86-6-15 1.193 0 4.944-4 7-4l3-1c0 6.251 6 11.425 6 17Z"/><path fill="#1F9766" id="AId6b" d="M341 187h1v-1l-1 1Z"/><path fill="#209666" id="AId6a" d="m343 186-1 1v-1h1Z"/><path fill="#209765" id="AId2/3" d="M380 206h1c0-5.094 5-9.633 5-15v-1l-7-3-3-1c0 6.468-6 13.8-6 17 3.606 0 6.972 3 10 3Z"/><path fill="#A8AAAA" id="VL" d="M195 196c-1.515 0-4 14.551-4 4l1-2v-2c0-1.013 1.208-9 2-9 1.684 0 1 4.679 1 6v3Z"/><path fill="#209666" id="AId6a" d="m342 187-1 2v-2h1ZM117 195h1c0-1.176-2.114-7-3-7l2 7ZM341 189l-1 2 1-2Z"/><path fill="#209764" id="AId1" d="m76 206-3 1-6-15 3-1c0 5.14 6 10.268 6 15Z"/><path fill="#209666" id="AId6a" d="M340 191c-1.473 0-1 1.952-1 3 1.473 0 1-1.952 1-3Z"/><path fill="#209764" id="AId1" d="m381 206 3 1 5-15-3-1c0 5.367-5 9.906-5 15Z"/><path fill="#97D6F9" id="STR" d="m196 195-1 1v-3l1 2ZM231 193l1 1-1-1ZM260 195l2 1-1-2-1 1Z"/><path fill="#1F9866" id="AIv6a" d="M112 209h1l1-1 4-1 2-2-2-10h-1c0 3.519 1.819 5.861 0 9.5-2.954 5.908-10-1.63-10-5.5l-6 2 4 10 7-2Z"/><path fill="#80CDF8" id="ACB" fill-rule="evenodd" d="m181 209-6 6.5c-1.884 3.768 2.043 10.729 6.5 8.5 5.641-2.82 9.164-15-.5-15m28 30-6.5 8c-7.15 7.15-12.394 13.697-21 18-8.378 4.189-40.5-1.578-40.5-12 0-6.518-3-11.377-3-18l2-1c6.755 0 13.086 2.207 19.5-1 4.938-2.469 5.526-9.552 7.5-13.5 4.433-8.866 8.611-14.055 17.5-18.5l5.5-3h2l-1 2c0 10.551 2.485-4 4-4l1-1c4.775 0 6.898 10 10 10l1 1v1l3 4v1l1 1v1c0 2.947 3.986 7.527 2 11.5l-4 13.5Z"/><path fill="#97D6F9" id="STR" d="m260 195-1 1 1-1Z"/><path fill="#80CDF8" id="ACB" fill-rule="evenodd" d="M273 209c0 1.431-4 3.1-4 6 0 5.16 9.271 12.958 12 7.5 2.49-4.98-1.765-13.5-8-13.5m-26 30c3.103 0 4.35 6.925 6.5 8 4.196 2.098 5.221 8.61 10 11l12 7c8.166 4.083 39.5-1.376 39.5-12 0-5.921 4-11.205 4-17l-3-2c-6.737 0-13.1 2.2-19.5-1-4.823-2.411-5.517-10.535-7.5-14.5-4.818-9.635-8.253-12.877-17.5-17.5l-5.5-3h-1c0 12.67-3 2.97-3-2l-2-1-1 1h-1l-1 1-4 5-1 1-2 3-1 1-1 1-1 1v2l-1 1v1l-1 1v1l-1 1v12.5l3 10.5Z"/><path fill="#1F9866" id="AIv6a" d="m344 209 7 2c0-3.115 4-6.196 4-10l-6-2c0 4.995-6.83 11.839-10 5.5-1.501-3.001 0-5.927 0-9.5-1.373 0-3 8.535-3 10l3 2h2l1 1 1 1h1Z"/><path fill="#97D6F9" id="STR" d="M190 198h2v-2l-2 2ZM258 196l-1 1 1-1ZM265 198h1l-1-1v1Z"/><path fill="#1F9865" id="AIv5" d="m101 213-6 1c0-4.632-8-7.498-8-11l13-2h1l4 10-4 2ZM355 213l7 1c0-5.73 7-6.031 7-11l-13-2h-1c0 3.804-4 6.885-4 10l4 2Z"/><path fill="#97D6F9" id="STR" d="m253 202-1 1 1-1Z"/><path fill="#219764" id="AIv2/3" d="m95 214-13 3-6-11c3.269 0 6.32-3 10-3h1c0 3.502 8 6.368 8 11ZM362 214c4.596 0 8.27 3 13 3l5-11c-3.028 0-6.394-3-10-3h-1c0 4.969-7 5.27-7 11Z"/><path fill="#8AD987" id="CTXsp" d="M118 207c2.741 0 2.75 4 5 4l-1-6h-2l-2 2Z"/><path fill="#97D6F9" id="STR" d="m206 205 1 1-1-1Z"/><path fill="#8AD987" id="CTXsp" d="M339 207c-3.795 0-3.903 6-6 6 0-3.303 2-5.115 2-8h1l3 2Z"/><path fill="#209864" id="AIv1" d="m82 217-4 2c-1.245 0-5-10.225-5-12l3-1 6 11Z"/><path fill="#97D6F9" id="STR" d="m250 206-1 1 1-1Z"/><path fill="#209864" id="AIv1" d="m375 217 4 2 5-12-3-1h-1l-5 11Z"/><path fill="#A0EE9C" id="EPd" d="M120 229h1c2.689 0 9 4.381 9-2v-2l-1-1-1-2-1-1v-1l-2-2v-1c-1.638 0-2-3.576-2-5v-1c-2.25 0-2.259-4-5-4l-4 1-1 1h-1c0 3.172-5.313 6.873-3 11.5l4 4.5h1l2 2h1l3 2Z"/><path fill="#97D6F9" id="STR" d="m209 207 1 4-3-4h2ZM249 207l-1 1v-1h1Z"/><path fill="#A0EE9C" id="EPd" d="M334 230c-1.048 0-3-.473-3 1-2.121 0-5-1.693-5-4l1-2v-1l1-1 1-1v-1l1-1 2-5 1-1v-1c2.097 0 2.205-6 6-6h2l1 1 1 1h1c0 1.186 3.346 5.192 4 6.5l-1 5.5v1l-1 1-2 1-1 1-1 1-3 1-1 1-1 1h-2l-1 1Z"/><path fill="#8AD987" id="CTXsp" d="m341 207 1 1-1-1Z"/><path fill="#99D2BD" id="OLF" d="m114 208-1 1 1-1Z"/><path fill="#97D6F9" id="STR" d="m248 208-1 1 1-1Z"/><path fill="#99D2BD" id="OLF" d="m342 208 1 1-1-1ZM101 213l4 2.5c1.009 2.019 4.908 9.5 8 9.5l-4-4.5c-2.313-4.627 3-8.328 3-11.5l-7 2-4 2Z"/><path fill="#CBCBC7" id="aco" d="m181 209-6 6.5c-1.884 3.768 2.043 10.729 6.5 8.5 5.641-2.82 9.164-15-.5-15ZM273 209c0 1.431-4 3.1-4 6 0 5.16 9.271 12.958 12 7.5 2.49-4.98-1.765-13.5-8-13.5Z"/><path fill="#99D2BD" id="OLF" d="m355 213-4 2.5c-.606 1.212-2.24 5.5-4 5.5l1-5.5c-.654-1.308-4-5.314-4-6.5l7 2 4 2Z"/><path fill="#97D6F9" id="STR" d="m247 211-1 1 1-1Z"/><path fill="#8AD987" id="CTXsp" d="M123 212c1.014 0 2 3.959 2 5-1.638 0-2-3.576-2-5Z"/><path fill="#97D6F9" id="STR" d="m210 212 1 1-1-1Z"/><path fill="#6ACAB9" id="PIR" d="m122 259 3 1 8-4 1-1c0-8.816 4.823-5.855-1-17.5l-12-8.5h-1c-1.238 0-3-.423-3-2h-1l-2-2h-1c-3.092 0-6.991-7.481-8-9.5l-4-2.5-6 1-13 3-4 2c0 6.626 17.95 30 24 30 0-3.157 12.637 4.568 15.5 6l4.5 4Z"/><path fill="#97D6F9" id="STR" d="m246 213-1 1 1-1Z"/><path fill="#6ACAB9" id="PIR" d="M332 260h2c0-3.032 21-15.247 21-11 2.431 0 5.064-5.282 6.5-6 5.591-2.795 17.5-16.647 17.5-24l-4-2c-4.73 0-8.404-3-13-3l-7-1-4 2.5c-.606 1.212-2.24 5.5-4 5.5v1l-1 1-2 1-1 1-1 1-3 1-1 1-1 1h-2l-1 1c0 1.473-1.952 1-3 1l-10 10.5c-2.93 5.861 2 9.387 2 14.5l9 4Z"/><path fill="#97D6F9" id="STR" d="M206 256h5c5.169 0 10-24.243 10-29v-12c-1.561 0-1.031 5.734-4.5 4l-5.5-5c0 2.947 3.986 7.527 2 11.5l-4 13.5c0 5.951-3 11.475-3 17ZM245 256h5c0-5.556-3-11.595-3-17l-3-10.5V216c-2.259 0-3.345 4.578-6.5 3l-2.5-5 1 14 2 16.5c.695 1.389 7 11.123 7 11.5Z"/><path fill="#8AD987" id="CTXsp" d="m333 214-1 1 1-1Z"/><path fill="#97D6F9" id="STR" d="m245 215-1 1 1-1Z"/><path fill="#8AD987" id="CTXsp" d="m125 218 2 2-2-2ZM330 220l-1 1 1-1ZM127 221l1 1-1-1ZM329 222l-1 1 1-1Z"/><path fill="#99D2BD" id="OLF" d="m347 222-1 1 1-1Z"/><path fill="#8AD987" id="CTXsp" d="m328 223-1 1 1-1ZM129 224l1 1-1-1Z"/><path fill="#99D2BD" id="OLF" d="m344 224-1 1 1-1ZM114 225l2 2-2-2Z"/><path fill="#97D6F9" id="STR" d="M130 227h1l-1-2v2Z"/><path fill="#8AD987" id="CTXsp" d="M326 226v1l1-2-1 1Z"/><path fill="#99D2BD" id="OLF" d="m343 225-1 1 1-1ZM322 256h1c0-5.113-4.93-8.639-2-14.5l10-10.5c-2.121 0-5-1.693-5-4v-1l-5 5-1 1-1 1v3c0 5.795-4 11.079-4 17 1.176 0 7 2.114 7 3ZM117 227l3 2c-1.238 0-3-.423-3-2ZM141 253l-7 2c0-8.816 4.823-5.855-1-17.5l-12-8.5c2.689 0 9 4.381 9-2h1l4 4 3 4c0 6.623 3 11.482 3 18Z"/><path fill="#96A6D3" id="NDB" d="M221 265c-1.747 0-2 .253-2 2-5.189 0-9.584 7.332-13 .5l-1-3 6-8.5c5.169 0 10-24.243 10-29 5.713 0 9.909 1 15 1l2 16.5c.695 1.389 7 11.123 7 11.5l6 7.5c2.089 4.177-3.788 8.356-7.5 6.5-1.953-.976-12.918-10-13.5-10-.716 0-3-2.373-3 0l-1 1-1 1-1 1c-1.238 0-3 .423-3 2Z"/><path fill="#99D2BD" id="OLF" d="m339 227-1 1 1-1ZM338 228l-1 1 1-1ZM335 229l-1 1 1-1ZM334 230c-1.048 0-3-.473-3 1 1.048 0 3 .473 3-1Z"/><path fill="#97D6F9" id="STR" d="m140 234-2 1-3-4 5 3ZM321 231l-1 1 1-1ZM320 232l-1 1 1-1ZM316 234l3 2v-3c-1.048 0-3-.473-3 1Z"/><path fill="#A2B1D7" id="SI" d="M206 256c0 5.634-3 10.559-3 17-2.72 0-5.79-4.855-9.5-3-5.654 2.827-33.722 6.139-40 3-5.741-2.871-9.916-5.916-15-11l-4.5-6v-1l7-2c0 10.422 32.122 16.189 40.5 12 8.606-4.303 13.85-10.85 21-18l6.5-8c0 5.951-3 11.475-3 17ZM322 256l-3.5 6c-4.538 4.538-9.644 8.322-15 11-6.412 3.206-34.242-.121-40-3-3.325-1.662-6.853 2-9.5 2 0-6.023-4-10.701-4-16 0-5.556-3-11.595-3-17 3.103 0 4.35 6.925 6.5 8 4.196 2.098 5.221 8.61 10 11l12 7c8.166 4.083 39.5-1.376 39.5-12 1.176 0 7 2.114 7 3Z"/><path fill="#CAC8C7" id="lot" d="m123 264-2 1c-1.899 0-19-14.473-19-16 0-3.157 12.637 4.568 15.5 6l4.5 4 1 2v3ZM334 265l1 1 4.5-4c2.445-1.222 14.5-8.914 14.5-12l1-1c0-4.247-21 7.968-21 11l-1 1 1 4Z"/><path fill="#6ACAB9" id="PIR" d="m355 249-1 1 1-1Z"/><path fill="#99D2BD" id="OLF" d="M133 256h1v-1l-1 1Z"/><path fill="#7FCCF7" id="OT" d="m203 273 2 4c0 9.977-8.313 12.406-15.5 16h-6c-4.064 2.032-10.056.028-14 2-12.045 6.022-30.333.834-36.5-11.5-2.659-5.319-10-9.182-10-15.5v-7l2-1 8-4h1l4.5 6c5.084 5.084 9.259 8.129 15 11 6.278 3.139 34.346-.173 40-3 3.71-1.855 6.78 3 9.5 3Z"/><path fill="#8599CC" id="PAL" d="m203 273 2 4c1.161 0 14-8.465 14-10-5.189 0-9.584 7.332-13 .5l-1-3 6-8.5h-5c0 5.634-3 10.559-3 17ZM254 272c0 1.974-2 3.517-2 6-2.631 0-22-16.323-22-18 .582 0 11.547 9.024 13.5 10 3.712 1.856 9.589-2.323 7.5-6.5l-6-7.5h5c0 5.299 4 9.977 4 16Z"/><path fill="#7FCCF7" id="OT" d="M254 272c0 1.974-2 3.517-2 6 0 17.496 18.577 12.039 26.5 16 2.383 1.192 5.725-.137 8 1 12.879 6.44 31.547.405 38.5-13.5 1.545-3.091 8-8.029 8-12.5l1-1v-3l-1-4-1-1-9-4h-1l-3.5 6c-4.538 4.538-9.644 8.322-15 11-6.412 3.206-34.242-.121-40-3-3.325-1.662-6.853 2-9.5 2Z"/><path fill="#99D2BD" id="OLF" d="m125 260-2 1-1-2 3 1Z"/><path fill="#8599CC" id="PAL" d="m227 260-1 1 1-1Z"/><path fill="#99D2BD" id="OLF" d="m334 260-1 1-1-1h2Z"/><path fill="#8599CC" id="PAL" d="m226 261-1 1 1-1ZM225 262l-1 1 1-1ZM224 263c-1.238 0-3 .423-3 2 1.238 0 3-.423 3-2Z"/><path fill="#97D6F9" id="STR" d="M121 265c0 1.238.423 3 2 3v-4l-2 1Z"/><path fill="#8599CC" id="PAL" d="M221 265c-1.747 0-2 .253-2 2 1.747 0 2-.253 2-2Z"/><path fill="#97D6F9" id="STR" d="m335 266-1 1v-2l1 1ZM334 268l-1 1 1-1Z"/></svg>