<svg xmlns="http://www.w3.org/2000/svg" viewBox="0 0 456 320"><path fill="#1E9C59" id="MOs1" d="M222 53h1l4-3-7-8.5c-10.792-10.792-17.091-7.5-32-7.5v5c10.124 0 34-2.774 34 14ZM229 50l5 2 1.5-3 8-8c8.09-4.045 15.772-2 24.5-2v-5c-11.894 0-26.345-3.81-33 9.5l-6 6.5Z"/><path fill="#1E9D5A" id="MOp1" d="M142 49v1c4.995 0 11.213-2.856 15.5-5 2.411-1.206 27.11-6 30.5-6v-5c-11.098 0-25.106 2.303-34.5 7-1.633.817-10.5.92-10.5 3l-1 5ZM315 49v1c-5.194 0-12.023-2.762-16.5-5-1.836-.918-27.6-6-30.5-6v-5c11.435 0 25.834 2.167 35.5 7 1.415.708 10.5 1.622 10.5 3 0 1.234-.643 5 1 5Z"/><path fill="#1E9D58" id="MOs2/3" d="m222 53-6 3c-.77 0-5.668-6.084-7.5-7-6.746-3.373-14.985 2-21.5 2l1-12c10.124 0 34-2.774 34 14ZM234 53l6 3 7.5-7c7.096-3.548 15.613 2 22.5 2l-2-12c-8.728 0-16.41-2.045-24.5 2l-8 8-1.5 3v1Z"/><path fill="#1F9C58" id="MOp2/3" d="M141 67v6c10.998 0 33.675-21 45-21l1-1 1-12c-3.39 0-28.089 4.794-30.5 6-4.287 2.144-10.505 5-15.5 5v1c0 4.734-1 10.644-1 16ZM316 67c-1.684 0-1 4.68-1 6-12.007 0-32.047-21-45-21v-1l-2-12c2.9 0 28.664 5.082 30.5 6 4.477 2.238 11.306 5 16.5 5v1c0 5.48 1 11.075 1 16Z"/><path fill="#187F60" id="SSp-ll1" d="m140 45 2 4 1-5c-1.048 0-3-.473-3 1ZM316 45l-1 4c-1.643 0-1-3.766-1-5l2 1Z"/><path fill="#197E64" id="SSp-ul1" d="M104 69h1c0-2.268 5.956-4.228 7.5-5 8.557-4.279 19.484-13 29.5-13v-2l-2-4c-7.629 0-18.834 6.667-25.5 10L102 63c0 2.33 2 3.227 2 6ZM354 63c0 1.041-.986 5-2 5-6.76 0-27.212-17-37-17v-2l1-4c8.207 0 19.417 6.459 26.5 10l11.5 8Z"/><path fill="#1F9D58" id="MOs5" d="m203 68-3.5-2c-6.938-3.47-10.467 3-16.5 3l3-17 1-1c6.515 0 14.754-5.373 21.5-2 1.832.916 6.73 7 7.5 7v1c-4.516 0-10.825 11-13 11ZM253 68c3.172 0 6.873-5.313 11.5-3l9.5 5-4-18v-1c-6.887 0-15.404-5.548-22.5-2l-7.5 7v1c2.285 0 13 8.252 13 11Z"/><path fill="#3EA665" id="ACAd1" d="M233 78c-3.325 0-7.31 1-10 1V53l4-3c0 1.919 2 2.488 2 0l5 2v1l-1 25Z"/><path fill="#197F61" id="SSp-ul2/3" d="M110 80h1c0-2.49 26.118-13 30-13 0-5.356 1-11.266 1-16-10.016 0-20.943 8.721-29.5 13-1.544.772-7.5 2.732-7.5 5l5 11ZM352 69l-6 11c-1.661 0-23.411-13-30-13 0-4.925-1-10.52-1-16 9.788 0 30.24 17 37 17v1Z"/><path fill="#1E9C5A" id="MOp5" d="M141 74v15c8.157 0 38.551-19 42-19v-1l3-17c-11.325 0-34.002 21-45 21v1ZM315 74v14c-10.716 0-34.853-17-41-17v-1l-4-18c12.953 0 32.993 21 45 21v1Z"/><path fill="#40A565" id="ACAd2/3" d="M223 79c-2.124 0-4.436 1-6 1V62.5c0-1.278.665-5.5-1-5.5v-1l6-3h1v26ZM233 79h6c0-7.293 1-15.359 1-22v-1l-6-3-1 25v1Z"/><path fill="#3EA566" id="ACAd5" d="m217 80-12 6c0-3.962-1-8.688-1-12 0-1.234.643-5-1-5v-1c2.175 0 8.484-11 13-11 1.665 0 1 4.222 1 5.5V80ZM239 80l12 5 2-16v-1c0-2.748-10.715-11-13-11 0 6.641-1 14.707-1 22v1Z"/><path fill="#1B8062" id="SSp-un1" d="m104 69-2 1c-2.666 0-2.482-3-5-3 0-1.533 3.753-4 5-4 0 2.33 2 3.227 2 6ZM354 71h1c0-2.732 4-2.259 4-5l-5-3c0 1.041-.986 5-2 5v1l2 2Z"/><path fill="#1D9C5A" id="MOs6a" d="M181 92h1c2.675 0 5.922-3 9-3 0-2.516 9.519-20 12-20v-1l-3.5-2c-6.938-3.47-10.467 3-16.5 3v1c0 7.014-2 15.43-2 22ZM265 89c3.679 0 6.731 3 10 3 0-7.052-1-14.555-1-21v-1l-9.5-5c-4.627-2.313-8.328 3-11.5 3v1c3 0 12 16.443 12 20Z"/><path fill="#187E61" id="SSp-m1" d="M398 133h1l4-2c0-14.068-16.892-47.196-30.5-54-3.15-1.575-10.366-11-13.5-11 0 2.741-4 2.268-4 5 2.904 0 14.278 10.778 17 13.5 10.063 10.063 26 33.361 26 48.5ZM53 131l5 2c0-12.778 13.47-30.442 19-41.5l6-5C85.087 82.326 98.427 71 102 71v-1c-2.666 0-2.482-3-5-3-5.197 0-12.735 9.235-16.5 13C69.201 91.299 53 115.789 53 131Z"/><path fill="#1A7F63" id="SSp-ul4" d="M114 88h1c0-1.816 4.284-2.392 5.5-3 5.83-2.915 13.817-11 20.5-11v-7c-3.882 0-30 10.51-30 13v3c1.803 0 3 3.592 3 5ZM345 84l-3 3c-9.649 0-17.25-13-27-13v-1c0-1.32-.684-6 1-6 6.589 0 28.339 13 30 13v1c-1.473 0-1 1.952-1 3Z"/><path fill="#1C7F63" id="SSp-un2/3" d="m110 80-1 1c0-1.228-5.897-10-7-10v-1l2-1h1l5 11Z"/><path fill="#3FA664" id="ACAd6a" d="M191 90c2.813 0 3.461 4 5 4 3.978 0 4.851-7 9-7v-1c0-3.962-1-8.688-1-12 0-1.234.643-5-1-5-2.481 0-12 17.484-12 20v1ZM260 95h1c0-2.313 1.452-5 4-5v-1c0-3.557-9-20-12-20l-2 16v1l9 9Z"/><path fill="#1C7F63" id="SSp-un2/3" d="M347 81h1c0-1.698 4.773-10 6-10l-2-2-6 11v1h1Z"/><path fill="#1F9B5A" id="MOp6a" d="M147 107c-2.483 0-4.026 2-6 2V89c8.157 0 38.551-19 42-19 0 7.014-2 15.43-2 22l-6 3c-1.85 0-9 1.784-9 4-1.424 0-5 .362-5 2-1.424 0-5 .362-5 2-1.424 0-5 .362-5 2l-4 2Z"/><path fill="#1A7E64" id="SSp-m2/3" d="M67 138h1c0-14.228 13.82-40.66 26.5-47 4.524-2.262 9.298-10 14.5-10 0-1.228-5.897-10-7-10-3.573 0-16.913 11.326-19 15.5l-6 5c-5.53 11.058-19 28.722-19 41.5.908 0 3.974 3.237 5.5 4 1.046.523 3.5-.951 3.5 1Z"/><path fill="#1F9B5A" id="MOp6a" d="M275 93c10.065 0 33.708 16 40 16V88c-10.716 0-34.853-17-41-17 0 6.445 1 13.948 1 21v1Z"/><path fill="#1A7E64" id="SSp-m2/3" d="M398 133c0 2.467-6.903 4-9 4 0-11.915-16.073-40.286-27.5-46-3.238-1.619-8.957-10-13.5-10 0-1.698 4.773-10 6-10h1c2.904 0 14.278 10.778 17 13.5 10.063 10.063 26 33.361 26 48.5Z"/><path fill="#187E62" id="SSp-ul5" d="M141 89c-7.166 0-13.341 9-20 9 0-2.263-6-5.58-6-10 0-1.816 4.284-2.392 5.5-3 5.83-2.915 13.817-11 20.5-11v15ZM335 98h1c0-1.597 5.423-10 6-10v-1c-9.649 0-17.25-13-27-13v15c6.471 0 15.382 9 20 9Z"/><path fill="#40A664" id="ACAv1" d="M229 105c2.832 0 2.953 5 5 5 0-9.935-1-20.513-1-31v-1c-3.325 0-7.31 1-10 1 0 10.742-1 21.854-1 32l5-6c0-2.564 2-2.564 2 0Z"/><path fill="#3FA566" id="ACAv2/3" d="m221 113-3 1c0-11.333-1-23.3-1-34 1.564 0 3.876-1 6-1 0 10.742-1 21.854-1 32l-1 2ZM235 112l3 2c0-10.627 1-22.717 1-34v-1h-6c0 10.487 1 21.065 1 31l1 2Z"/><path fill="#197E61" id="SSp-un4" d="m109 81 2 2v-3h-1l-1 1Z"/><path fill="#3EA666" id="ACAv5" d="M209 110c0 1.653 7.372 4 9 4 0-11.333-1-23.3-1-34l-12 6v1c0 8.373 4 15.4 4 23ZM247 110c0 1.817-7.169 4-9 4 0-10.627 1-22.717 1-34l12 5v1l-1 15.5-3 8.5Z"/><path fill="#1B7F62" id="SSp-m4" d="m68 138 5 2c0-9.689 20.748-40.124 30.5-45l10.5-7c0-1.408-1.197-5-3-5l-2-2c-5.202 0-9.976 7.738-14.5 10C81.82 97.34 68 123.772 68 138Z"/><path fill="#197E61" id="SSp-un4" d="M347 81c0 1.238-.423 3-2 3 0-1.048-.473-3 1-3h1Z"/><path fill="#1B7F62" id="SSp-m4" d="M383 140h1l5-2v-1c0-11.915-16.073-40.286-27.5-46-3.238-1.619-8.957-10-13.5-10h-1c0 1.238-.423 3-2 3l-3 3v1c3.261 0 6.673 4.587 9.5 6 10.973 5.487 31.5 34.193 31.5 46Z"/><path fill="#40A564" id="ACAv6a" d="M247 110h1l2-2 1-1c0-1.158 6.162-8 8-8l1-4-9-9-1 15.5-3 8.5ZM208 110h1c0-7.6-4-14.627-4-23-4.149 0-5.022 7-9 7v1l3 5.5c1.64 3.28 7 3.933 7 7.5l2 2Z"/><path fill="#1B7E63" id="SSp-m5" d="m73 141 11 5c0-12.563 10.8-33.15 22.5-39 4.996-2.498 8.567-9 14.5-9 0-2.263-6-5.58-6-10h-1l-10.5 7C93.748 99.876 73 130.311 73 140v1ZM383 140c0 1.881-8.212 5-10 5-2.005 0-3.102-11.704-4-13.5l-8-15c-2.875-5.751-13.36-12.93-18.5-15.5l-6.5-3c0-1.597 5.423-10 6-10 3.261 0 6.673 4.587 9.5 6 10.973 5.487 31.5 34.193 31.5 46Z"/><path fill="#197D61" id="SSp-ul6a" d="M131 113h2c0-2.109 2.535-2 4-2l4-2V89c-7.166 0-13.341 9-20 9 0 2.469 5.134 9.634 7 11.5l3 3.5Z"/><path fill="#1E9C58" id="MOs6b" d="M182 92v1c3.071 0 5.362-2 9-2v-2c-3.078 0-6.325 3-9 3ZM275 92v1c-3.578 0-5.887-2-10-2v-2c3.679 0 6.731 3 10 3Z"/><path fill="#197D61" id="SSp-ul6a" d="m315 109 11 4 2-3.5c1.681-3.362 7-7.635 7-11.5-4.618 0-13.529-9-20-9v20Z"/><path fill="#3FA466" id="ACAd6b" d="M195 95h1v-1c-1.539 0-2.187-4-5-4v1c2.879 0 1.993 4 4 4ZM265 91l-4 4c0-2.313 1.452-5 4-5v1Z"/><path fill="#CACCC7" id="cing" d="m206 108 2 2c-9.521 0-14.004-11.252-21.5-15-3.338-1.669-14.028 6-17.5 6l-2 1h-6v-1c1.622 0 5 .461 5-2 1.85 0 9-1.784 9-4 1.774 0 7 .273 7-2 3.071 0 5.362-2 9-2 2.879 0 1.993 4 4 4 0 3.57 6.914 13 11 13ZM250 108l-2 2c9.543 0 14.205-11.353 21.5-15 4.944-2.472 13.606 6 18.5 6l7 1c0-.684-20-8.46-20-9-3.578 0-5.887-2-10-2l-4 4c0 1.466.109 4-2 4 0 2.664-5.336 8-8 8l-1 1Z"/><path fill="#1D9D5A" id="MOp6b" d="M182 93c0 2.273-5.226 2-7 2l6-3h1v1ZM315 109l1 2c-4.142 0-14.951-9-21-9 0-.684-20-8.46-20-9 10.065 0 33.708 16 40 16ZM175 95c-1.85 0-9 1.784-9 4 1.85 0 9-1.784 9-4Z"/><path fill="#C9C7C9" id="ccb" d="M359 162v3c-2.031 0-4.117-9.733-5-11.5-3.599-7.198-13.738-24.619-21.5-28.5-25.221-12.61-29.43-14-58.5-14 0-2.402-11 .705-11 4l-2 1-2 1-1 1-1 1-3 1-1 1-2 2c-2.907 0-16 1.892-16 5h-5c0-2.711-4-1.509-4 0h-4c-2.52 0-10.205-5-16-5l-4-3-1-1h-1c0-2.781-11.212-7.856-13.5-9-.945-.472-3.5-.156-3.5 1-4.483 0-13.792-3.354-18.5-1-4.407 2.203-10.639.82-15 3-8.523 4.262-17.362 7.681-26 12-5.705 2.853-14.58 16.66-17.5 22.5l-5 8.5v-3l2-4v-1c1.577 0 2-1.762 2-3v-1c1.577 0 2-1.762 2-3l2-4c1.811 0 4-3.438 4-5 1.811 0 4-3.438 4-5 1.747 0 2-.253 2-2 1.747 0 2-.253 2-2 .161 0 24.853-12.677 27.5-14 2.412-1.206 18.5-5.436 18.5-7l2-1c3.472 0 14.162-7.669 17.5-6 7.496 3.748 11.979 15 21.5 15h1c0 1.653 7.372 4 9 4l3-1c0 4.03 6.985 0 7.5 0l1 2c1.904.952 5.5-1.357 5.5-3l3 2c1.831 0 9-2.183 9-4h1c9.543 0 14.205-11.353 21.5-15 4.944-2.472 13.606 6 18.5 6 0 2.192 7.001 3.251 8.5 4 8.278 4.139 17.732 5.866 26 10 7.243 3.621 18.55 11.601 22.5 19.5.791 1.582 3.942 8.5 6 8.5v1c0 1.238.423 3 2 3v1l2 4v1l2 4 1 4 1 1Z"/><path fill="#40A465" id="ACAv6b" d="m196 95 3 5.5c1.64 3.28 7 3.933 7 7.5-4.086 0-11-9.43-11-13h1ZM261 95c0 1.466.109 4-2 4l1-4h1Z"/><path fill="#187D61" id="SSp-m6a" d="M84 146c5.181 0 9.678 6 15 6 0-3.767 14.415-27 18-27 0-1.747.253-2 2-2 0-1.747.253-2 2-2 0-2.568 3.478-4 6-4 0-1.712 2.571-3 4-3v-1l-3-3.5c-1.866-1.866-7-9.031-7-11.5-5.933 0-9.504 6.502-14.5 9-11.7 5.85-22.5 26.437-22.5 39ZM373 146c-5.685 0-10.126 6-16 6 0-7.779-22.321-38-31-38v-1l2-3.5c1.681-3.362 7-7.635 7-11.5h1l6.5 3c5.14 2.57 15.625 9.749 18.5 15.5l8 15c.898 1.796 1.995 13.5 4 13.5v1Z"/><path fill="#1D9D5A" id="MOp6b" d="M166 99c-1.424 0-5 .362-5 2 1.622 0 5 .461 5-2Z"/><path fill="#40A465" id="ACAv6b" d="M259 99c-1.838 0-8 6.842-8 8 2.664 0 8-5.336 8-8Z"/><path fill="#1D9D5A" id="MOp6b" d="m161 102-5 1c0-1.638 3.576-2 5-2v1Z"/><path fill="#C9C9CA" id="scwm" d="m169 101-2 1 2-1ZM325 114c0 3.726 6.892 3.283 8 5.5 3.005 6.01 18 15.762 18 23.5-2.058 0-5.209-6.918-6-8.5-3.95-7.899-15.257-15.879-22.5-19.5-8.268-4.134-17.722-5.861-26-10-1.499-.749-8.5-1.808-8.5-4l7 1c6.049 0 16.858 9 21 9 3.647 0 5.609 3 9 3ZM121 121v2c.161 0 24.853-12.677 27.5-14 2.412-1.206 18.5-5.436 18.5-7h-6l-5 1c0 2.461-3.378 2-5 2 0 2.109-2.535 2-4 2 0 1.89-4.598 3-6 3 0 1.579-2.855 1-4 1 0 2.109-2.535 2-4 2l-2 2-4 2c0 1.617-4.583 4-6 4Z"/><path fill="#1D9D5A" id="MOp6b" d="M156 103c-1.424 0-5 .362-5 2 1.622 0 5 .461 5-2ZM151 105l-4 2c1.465 0 4 .109 4-2Z"/><path fill="#7ED04B" id="IG" d="M235 112c0 1.643-3.596 3.952-5.5 3l-1-2c-.515 0-7.5 4.03-7.5 0l1-2 5-6c0 1.399 2 1.399 2 0 2.832 0 2.953 5 5 5l1 2Z"/><path fill="#1D9D5A" id="MOp6b" d="M141 109v1c1.402 0 6-1.11 6-3-2.483 0-4.026 2-6 2Z"/><path fill="#40A465" id="ACAv6b" d="m251 107-1 1 1-1Z"/><path fill="#1C8064" id="SSp-ul6b" d="M141 110c0 1.579-2.855 1-4 1l4-2v1ZM325 114h1v-1l-11-4 1 2c3.647 0 5.609 3 9 3Z"/><path fill="#98D5F9" id="CP" d="M131 236h2c0-1.473 1.952-1 3-1 9.202 0 41-.098 41-13 0-6.814 6.022-36 13-36 0-4.425 1-9.961 1-15 0-5.763 2-10.837 2-16v-7c0-6.471.703-15.094-2-20.5l-6-13.5c-1.577 0-2-1.762-2-3-4.483 0-13.792-3.354-18.5-1-4.407 2.203-10.639.82-15 3-8.523 4.262-17.362 7.681-26 12-5.705 2.853-14.58 16.66-17.5 22.5l-5 8.5c0 1.424-.362 5-2 5 0 1.424-.362 5-2 5v2l-1 13.5c2.694 5.387 5 14.198 5 20.5v1c.913 0 2 5.014 2 6v1l1 1 5 11 10 9h1l7.5 4c1.046.523 3.5-.951 3.5 1Z"/><path fill="#AAA8A9" id="SEZ" d="M185 114c7.197 0 11.399 5 15 5 0-2.781-11.212-7.856-13.5-9-.945-.472-3.5-.156-3.5 1 0 1.238.423 3 2 3ZM271 114c0-2.955-6.93 1-8 1 0-3.295 11-6.402 11-4l-3 3Z"/><path fill="#98D5F9" id="CP" d="M324 236h2c0-.092 8.167-4 9-4l1-1h1c0-1.617 4.583-4 6-4 0-1.747.253-2 2-2l1-2c2.35 0 7-11.767 7-14 0-4.836 3.818-16.136 6-20.5 3.263-6.527 0-16.685 0-23.5-2.031 0-4.117-9.733-5-11.5-3.599-7.198-13.738-24.619-21.5-28.5-25.221-12.61-29.43-14-58.5-14l-3 3-4 9.5c-3.175 6.35-4 15.931-4 23.5l1 9c0 5.421 1 11.091 1 17v7c1.643 0 1 3.765 1 5 7.447 0 13 30.331 13 37l3 3.5c5.556 11.112 26.474 9.5 38 9.5 1.145 0 4-.579 4 1Z"/><path fill="#1C8064" id="SSp-ul6b" d="M137 111c-1.465 0-4-.109-4 2 1.465 0 4 .109 4-2ZM131 114v1l2-2h-2v1Z"/><path fill="#A8AAAA" id="VL" d="m194 147-1 1c0-6.471.703-15.094-2-20.5l-6-13.5c7.197 0 11.399 5 15 5h1l1 1 4 3c0 2.786-12 15.527-12 24ZM262 147h1c0-7.569.825-17.15 4-23.5l4-9.5c0-2.955-6.93 1-8 1l-2 1-2 1-1 1-1 1-3 1-1 1-2 2c0 4.585 11 14.1 11 24Z"/><path fill="#188064" id="SSp-m6b" d="m131 115-4 2c0-1.712 2.571-3 4-3v1ZM355 153h1l1-1c0-7.779-22.321-38-31-38h-1c0 3.726 6.892 3.283 8 5.5 3.005 6.01 18 15.762 18 23.5v1c1.577 0 2 1.762 2 3v1c2.109 0 2 2.535 2 4v1Z"/><path fill="#AAA8A9" id="SEZ" d="m263 115-2 1 2-1ZM261 116l-2 1 2-1Z"/><path fill="#188064" id="SSp-m6b" d="M127 117c-2.522 0-6 1.432-6 4 1.417 0 6-2.383 6-4Z"/><path fill="#AAA8A9" id="SEZ" d="m259 117-1 1 1-1ZM258 118l-1 1 1-1ZM201 119l1 1-1-1ZM254 120l-1 1 1-1Z"/><path fill="#188064" id="SSp-m6b" d="M119 123h2v-2c-1.747 0-2 .253-2 2ZM117 125h2v-2c-1.747 0-2 .253-2 2Z"/><path fill="#C9C9CA" id="scwm" d="M121 123c0 1.747-.253 2-2 2v-2h2Z"/><path fill="#90CBEC" id="LSc" d="M197 149h1l1-1c0-4.74 23-11.785 23-19v-1c-2.52 0-10.205-5-16-5 0 2.786-12 15.527-12 24 1.481 0 .785 2 3 2ZM262 147c0 1.577-1.762 2-3 2l-4.5-4c-2.648-1.324-19.5-11.5-19.5-15v-2c0-3.108 13.093-5 16-5 0 4.585 11 14.1 11 24Z"/><path fill="#188064" id="SSp-m6b" d="M100 153h1c0-1.465-.109-4 2-4v-1c0-1.238.423-3 2-3v-1c0-1.238.423-3 2-3 0-1.465-.109-4 2-4 0-1.562 2.189-5 4-5 0-1.562 2.189-5 4-5v-2c-3.585 0-18 23.233-18 27v1h1Z"/><path fill="#C9C9CA" id="scwm" d="M119 125c0 1.747-.253 2-2 2v-2h2Z"/><path fill="#97D6F9" id="STR" d="M226 128c.666 0 4 2.56 4 0 0-2.711-4-1.509-4 0Z"/><path fill="#C9C9CA" id="scwm" d="M117 127c-1.811 0-4 3.438-4 5 1.811 0 4-3.438 4-5Z"/><path fill="#97D6F9" id="STR" d="M225 128c0 1.473-1.952 1-3 1v-1h3Z"/><path fill="#90CAED" id="LSr" d="M237 192h1l7.5-8c4.756-4.756 11.387-11 18.5-11h1c0-5.909-1-11.579-1-17l-5-7-4.5-4c-2.648-1.324-19.5-11.5-19.5-15l-3-2h-2c0 2.56-3.334 0-4 0h-1c0 1.473-1.952 1-3 1 0 7.215-23 14.26-23 19l-1 1h-1c0 .781-3.19 6-4 6 0 5.163-2 10.237-2 16 1.473 0 1 1.952 1 3 11.263 0 11.093 6.296 20.5 11l6.5 8v-3c0-1.235-.643-5 1-5v-2l1-2v-5c0-1.048-.473-3 1-3v-2l1-2v-5l1-2v-2l1-2v-2c0-1.145-.579-4 1-4l2-8c0-1.186 1-1.186 1 0l1 7c1.579 0 1 2.855 1 4v1c1.473 0 1 1.952 1 3v1l1 2v4l1 2v3l1 2v5l1 2v3c1.473 0 1 1.952 1 3v6Z"/><path fill="#97D6F9" id="STR" d="M235 128v2l-3-2h3Z"/><path fill="#1A7E62" id="SSs1" d="M52 176c0 1.579-2.855 1-4 1 0-6.967-4.633-22.233-1-29.5l6-16.5 5 2-7 23.5c-2.481 4.962 1 14.573 1 19.5ZM404 176l5 1c0-11.58 3.261-24.978-2-35.5-.806-1.611-1.968-10.5-4-10.5l-4 2c0 6.357 3.239 15.978 6 21.5 2.65 5.3-1 16.408-1 21.5Z"/><path fill="#C9C9CA" id="scwm" d="M113 132c-1.811 0-4 3.438-4 5 1.811 0 4-3.438 4-5Z"/><path fill="#1B8063" id="SSs2/3" d="M52 176h1c2.723 0 5.778-1 9-1l1-19.5c2.417-4.833 4-11.772 4-17.5 0-1.951-2.454-.477-3.5-1-1.526-.763-4.592-4-5.5-4l-7 23.5c-2.481 4.962 1 14.573 1 19.5ZM395 175l9 1c0-5.092 3.65-16.2 1-21.5-2.761-5.522-6-15.143-6-21.5h-1c0 2.467-6.903 4-9 4v1c0 10.813 6 22.941 6 37Z"/><path fill="#C9C9CA" id="scwm" d="M109 137c-2.109 0-2 2.535-2 4l2-4Z"/><path fill="#187C63" id="SSs4" d="M62 175h3l2-1c0-8.255.508-19.517 4-26.5.746-1.493-.729-6.5 2-6.5v-1l-5-2h-1c0 5.728-1.583 12.667-4 17.5L62 175ZM394 175h1c0-14.059-6-26.187-6-37l-5 2c0 3.278 1.585 7.67 3 10.5 1.568 3.136 2 18.896 2 23.5l5 1Z"/><path fill="#1C8063" id="SSs5" d="M387 174h2c0-4.604-.432-20.364-2-23.5-1.415-2.83-3-7.222-3-10.5h-1c0 1.881-8.212 5-10 5v1c0 8.925 4 17.591 4 27 3.51 0 7.022 1 10 1ZM67 174h3c2.69 0 6.674-1 10-1l1-17.5 3-9.5-11-5c-2.729 0-1.254 5.007-2 6.5-3.492 6.983-4 18.245-4 26.5Z"/><path fill="#C9C9CA" id="scwm" d="M107 141c-1.577 0-2 1.762-2 3 1.577 0 2-1.762 2-3Z"/><path fill="#97D6F9" id="STR" d="M228 144h1c0-1.186-1-1.186-1 0Z"/><path fill="#8FCBEC" id="SF" d="m227 152 3 1v-2l-1-7h-1l-2 8h1Z"/><path fill="#C9C9CA" id="scwm" d="M351 144c1.577 0 2 1.762 2 3-1.577 0-2-1.762-2-3ZM105 145c-1.577 0-2 1.762-2 3 1.577 0 2-1.762 2-3Z"/><path fill="#197D63" id="SSs6a" d="M94 171c-5.053 0-10.024 2-14 2l1-17.5 3-9.5c5.181 0 9.678 6 15 6v1c0 5.748-5 11.922-5 18ZM362 171c4.984 0 10.339 2 15 2 0-9.409-4-18.075-4-27-5.685 0-10.126 6-16 6 0 6.069 5 12.378 5 19Z"/><path fill="#97D6F9" id="STR" d="M197 149c0 .781-3.19 6-4 6v-7l1-1c1.481 0 .785 2 3 2ZM259 149l5 7-1-9h-1c0 1.577-1.762 2-3 2ZM199 148l-1 1 1-1Z"/><path fill="#C9C9CA" id="scwm" d="M353 148c2.109 0 2 2.535 2 4l-2-4ZM103 149c-2.109 0-2 2.535-2 4l2-4Z"/><path fill="#97D6F9" id="STR" d="m230 153 1 2c0-1.145.579-4-1-4v2ZM227 152l-2 4c0-1.145-.579-4 1-4h1Z"/><path fill="#96A7D3" id="MS" d="m226 229 2.5-4c.876 0 .193 4 2.5 4l4-8c0-2.409 1-5.181 1-7 0-4.077 1-8.431 1-13v-15c-1.473 0-1-1.952-1-3v-3l-1-2v-5l-1-2v-3l-1-2v-4l-1-2v-1c-1.473 0-1-1.952-1-3v-1l-1-2-3-1-2 4v2l-1 2v2l-1 2v5l-1 2v2c0 1.048.473 3-1 3v5l-1 2v2c0 1.235.643 5-1 5v13c0 3.776 2 7.581 2 11v5l5 10Z"/><path fill="#1A8061" id="SSs6b" d="M361 171h1c0-6.622-5-12.931-5-19l-1 1 1 4 1 4 1 1v3c.675 0 2 5.294 2 6ZM94 171h2c0-1.048-.473-3 1-3v-2l1-5 1-2v-2l1-1v-3h-1c0 5.748-5 11.922-5 18Z"/><path fill="#C9C9CA" id="scwm" d="M100 156h1v-3h-1v3ZM356 153l1 4-2-4h1ZM100 156l-1 1 1-1Z"/><path fill="#C9C7C9" id="ccb" d="M99 159v2c1.638 0 2-3.576 2-5h-1l-1 1v2Z"/><path fill="#97D6F9" id="STR" d="M231 156c1.473 0 1 1.952 1 3-1.473 0-1-1.952-1-3ZM225 158l-1 2 1-2Z"/><path fill="#C9C9CA" id="scwm" d="M98 161h1v-2l-1 2Z"/><path fill="#97D6F9" id="STR" d="m232 160 1 2-1-2Z"/><path fill="#C9C7C9" id="ccb" d="M99 161c0 1.424-.362 5-2 5l1-5h1Z"/><path fill="#C9C9CA" id="scwm" d="m358 161 1 1-1-1Z"/><path fill="#97D6F9" id="STR" d="m224 162-1 2 1-2Z"/><path fill="#C8CBCC" id="ec" d="M353 209h2c0-1.048-.473-3 1-3v-2c0-1.048-.473-3 1-3v-1c0-1.048-.473-3 1-3l1-2v-2l1-2 1-4v-16c0-.706-1.325-6-2-6 0 6.815 3.263 16.973 0 23.5-2.182 4.364-6 15.664-6 20.5Z"/><path fill="#97D6F9" id="STR" d="m233 166 1 2-1-2Z"/><path fill="#C8CBCC" id="ec" d="m99 201 2 1c0-6.302-2.306-15.113-5-20.5l1-13.5c-1.473 0-1 1.952-1 3 0 4.734-1 10.644-1 16l2 4v3c2.46 0 2 3.378 2 5v2Z"/><path fill="#97D6F9" id="STR" d="m223 169-1 2 1-2Z"/><path fill="#009B74" id="GU6a" d="M82 192h4c0-2.005 6.537-5 8-5v-16c-5.053 0-10.024 2-14 2l1 19h1Z"/><path fill="#019C74" id="GU6b" d="M94 187h1c0-5.356 1-11.266 1-16h-2v16Z"/><path fill="#A8AAAA" id="VL" d="M190 186c0 1.985 2 7.125 2 3v-15c0-1.048.473-3-1-3 0 5.039-1 10.575-1 15Z"/><path fill="#97D6F9" id="STR" d="m234 171 1 2-1-2Z"/><path fill="#019C74" id="GU6b" d="M361 187h1v-16h-1v16Z"/><path fill="#009B74" id="GU6a" d="M370 192h5c0-6.626 2-12.097 2-19-4.661 0-10.016-2-15-2v16c2.35 0 8 2.277 8 5Z"/><path fill="#019C75" id="GU5" d="M81 192c0 .983-10.42 3-12 3l-2-3.5V175c1.048 0 3 .473 3-1 2.69 0 6.674-1 10-1l1 19Z"/><path fill="#8FCBED" id="LSv" d="M204 201c3.011 0 6.856 3.678 9.5 5 3.269 1.634 3.957-3 5.5-3v-10l-6.5-8c-9.407-4.704-9.237-11-20.5-11v15l2 4 8 6 1 1 1 1Z"/><path fill="#97D6F9" id="STR" d="M222 173c-1.473 0-1 1.952-1 3 1.473 0 1-1.952 1-3Z"/><path fill="#8FCBED" id="LSv" d="M237 201c1.468 0 1.806 6.847 5.5 5l10.5-5 1-1 1-1 1-1 1-1 3-2 1-1 1-1 2-3c0-3.51 1-7.022 1-10v-5l-1-2c-7.113 0-13.744 6.244-18.5 11l-7.5 8-1 2v7Z"/><path fill="#A8AAAA" id="VL" d="M265 173v2l-1-2h1Z"/><path fill="#019C75" id="GU5" d="M387 195h1c0-5.998 1-13.358 1-20l-2-1c-2.978 0-6.49-1-10-1 0 6.903-2 12.374-2 19l12 3Z"/><path fill="#11AC82" id="VISC4" d="M65 175h2v-1l-2 1Z"/><path fill="#12AD82" id="VISC5" d="M70 174c0 1.473-1.952 1-3 1v-1h3ZM389 174v1l-2-1h2Z"/><path fill="#11AC82" id="VISC4" d="M394 175v1l-5-1v-1l5 1Z"/><path fill="#12AC83" id="VISC2/3" d="M62 177c-3.455 0-5.917 3-9 3v-4c2.723 0 5.778-1 9-1v2Z"/><path fill="#11AC82" id="VISC4" d="m65 175-3 2v-2h3Z"/><path fill="#009C74" id="GU4" d="m69 195-2 1c0-6.056-5-12.683-5-19l3-2h2v16.5l2 3.5ZM388 195h1c1.567 0 5-15.248 5-18v-1l-5-1c0 6.642-1 14.002-1 20Z"/><path fill="#12AC83" id="VISC2/3" d="M394 177c3.736 0 5.264 2 9 2l1-3-9-1h-1v2Z"/><path fill="#12AD83" id="VISC1" d="m53 180-4 1-1-4c1.145 0 4 .579 4-1h1v4ZM403 180l4 1 2-4-5-1-1 3v1Z"/><path fill="#009B75" id="GU2/3" d="M67 196c-2.722 0-4.53 1-8 1l-6-17c3.083 0 5.545-3 9-3 0 6.317 5 12.944 5 19ZM389 195c0 2.049 5.822 2 8 2 2.334 0 1.341-4.181 2-5.5 1.663-3.326 4-7.592 4-11.5v-1c-3.736 0-5.264-2-9-2 0 2.752-3.433 18-5 18Z"/><path fill="#97D6F9" id="STR" d="m235 178 1 2-1-2Z"/><path fill="#009C75" id="GU1" d="m59 198-4 1-6-18 4-1 6 17v1Z"/><path fill="#A8AAAA" id="VL" d="M266 185c0 3.838.867 5-2 5 0-3.51 1-7.022 1-10 1.643 0 1 3.765 1 5Z"/><path fill="#009C75" id="GU1" d="m397 198 4 1c0-5.794 6-11.451 6-18l-4-1c0 3.908-2.337 8.174-4 11.5-.659 1.319.334 5.5-2 5.5v1Z"/><path fill="#97D6F9" id="STR" d="m221 181-1 2 1-2ZM236 183c1.473 0 1 1.952 1 3-1.473 0-1-1.952-1-3ZM220 185c-1.643 0-1 3.765-1 5 1.643 0 1-3.765 1-5ZM274 222h5c0-6.669-5.553-37-13-37 0 3.838.867 5-2 5l-2 3c5.93 0 9-.302 9 7l1 1-1 11v4l3 6ZM177 222h5l3-5v-4c0-9.32-3.85-20 9-20l-2-4c0 4.125-2-1.015-2-3-6.978 0-13 29.186-13 36Z"/><path fill="#209666" id="AId6a" d="m86 192 3 6c0-3.666 2.032-8 6-8l-1-3c-1.463 0-8 2.995-8 5Z"/><path fill="#1F9766" id="AId6b" d="M96 191h1l-2-4h-1l1 3 1 1ZM361 190l-1 1 1-4h1l-1 3Z"/><path fill="#209666" id="AId6a" d="M370 192c0 1.84-.985 6-3 6 0-3.855-1.833-8-6-8l1-3c2.35 0 8 2.277 8 5Z"/><path fill="#8ADA86" id="CLA" d="M95 209h2l1-1h1v-1l1-1-1-2v-5c-1.014 0-2-3.959-2-5v-2l-1-1-1-1c-3.968 0-6 4.334-6 8v1c1.014 0 2 3.959 2 5v2l4 3ZM358 208l3 1 4-2v-1c0-1.041.986-5 2-5v-3c0-3.855-1.833-8-6-8l-1 1-1 2v2l-1 2c0 1.048.473 3-1 3v7l1 1Z"/><path fill="#209666" id="AId6a" d="M97 191v1l-1-1h1ZM360 191l-1 2 1-2Z"/><path fill="#219864" id="AIp5" d="M81 215h4l4-3c0-7.054-7-12.383-7-20h-1c0 .983-10.42 3-12 3 0 3.459 10.696 20 12 20Z"/><path fill="#209766" id="AIp6a" d="M92 211c0 1.473-1.952 1-3 1 0-7.054-7-12.383-7-20h4l3 6v1c0 1.622-.46 5 2 5v2l1 5Z"/><path fill="#97D6F9" id="STR" d="m238 192-1 2v-2h1Z"/><path fill="#B3C0DE" id="BST" d="M261 231h11c0-3.423 2-6.474 2-9l-3-6c0 17.706-28.483-8-5-8 2.741 0 2.75 4 5 4l1-11-1-1c0-7.302-3.07-7-9-7l-1 1-1 1-3 2-1 1-1 1-1 1-1 1c0 3.185-5 7.179-5 11 0 1.048.473 3-1 3v1c.672 0 2 4.329 2 5 5.545 0 5.648 10 12 10Z"/><path fill="#209766" id="AIp6a" d="m365 211 2 1c0-6.648 8-12.88 8-20h-5c0 1.84-.985 6-3 6v1c1.186 0 1.186 1 0 1v1c0 1.622.461 5-2 5v5Z"/><path fill="#219864" id="AIp5" d="M371 215h5c0-4.854 11-12.256 11-20l-12-3c0 7.12-8 13.352-8 20l4 3Z"/><path fill="#B3C0DE" id="BST" d="M184 231h11c6.976 0 6.24-10 13-10l1-2v-6l-1-1c0-3.915-4-7.622-4-11l-1-1-1-1-8-6c-12.85 0-9 10.68-9 20l4.5-5c1.794-.897 4.676.338 6 1 13.236 6.618-10.5 19.894-10.5 8l-3 5c0 1.477 2 5.699 2 9Z"/><path fill="#97D6F9" id="STR" d="m262 193-1 1 1-1Z"/><path fill="#209666" id="AId6a" d="M97 194c2.46 0 2 3.378 2 5-1.014 0-2-3.959-2-5Z"/><path fill="#97D6F9" id="STR" d="m261 194-1 1 1-1Z"/><path fill="#209865" id="AIp2/3" d="M81 215c0 .885-9.683 4-11 4 0-5.501-11-15.242-11-21v-1c3.47 0 5.278-1 8-1l2-1c0 3.459 10.696 20 12 20Z"/><path fill="#209666" id="AId6a" d="m359 195-1 2 1-2Z"/><path fill="#209865" id="AIp2/3" d="M376 215c0 1.259 8.632 4 10 4 0-4.841 11-14.768 11-21v-1c-2.178 0-8 .049-8-2h-2c0 7.744-11 15.146-11 20Z"/><path fill="#97D6F9" id="STR" d="m257 197-1 1 1-1Z"/><path fill="#209666" id="AId6a" d="M358 197c-1.473 0-1 1.952-1 3 1.473 0 1-1.952 1-3Z"/><path fill="#219765" id="AIp1" d="m70 219-5 2c0-5.244-10-15.977-10-22l4-1c0 5.758 11 15.499 11 21Z"/><path fill="#97D6F9" id="STR" d="m256 198-1 1 1-1Z"/><path fill="#219765" id="AIp1" d="m386 219 5 2 3-5.5c2.229-4.458 7-11.405 7-16.5l-4-1c0 6.232-11 16.159-11 21Z"/><path fill="#209666" id="AId6a" d="M89 199c1.014 0 2 3.959 2 5-2.46 0-2-3.378-2-5Z"/><path fill="#97D6F9" id="STR" d="m202 199 1 1-1-1ZM255 199l-1 1 1-1Z"/><path fill="#209666" id="AId6a" d="M367 199c1.186 0 1.186 1 0 1v-1Z"/><path fill="#97D6F9" id="STR" d="m254 200-1 1 1-1Z"/><path fill="#8599CC" id="PAL" d="m271 200 1 1-1-1Z"/><path fill="#209666" id="AId6a" d="M99 204h2v-2l-2-1v3Z"/><path fill="#97D6F9" id="STR" d="m209 213 8.5-1 3.5 2c0-3.419-2-7.224-2-11-1.543 0-2.231 4.634-5.5 3-2.644-1.322-6.489-5-9.5-5 0 3.378 4 7.085 4 11l1 1ZM247 213l-8.5-1-2.5 2c0-4.077 1-8.431 1-13 1.468 0 1.806 6.847 5.5 5l10.5-5c0 3.185-5 7.179-5 11l-1 1Z"/><path fill="#209666" id="AId6a" d="M356 204h1v-3c-1.473 0-1 1.952-1 3ZM367 201c-1.014 0-2 3.959-2 5 2.461 0 2-3.378 2-5Z"/><path fill="#C8CBCC" id="ec" d="M102 209h1c0-.986-1.087-6-2-6v3l1 3Z"/><path fill="#1F9866" id="AIv6a" d="M100 206h1v-2h-2l1 2ZM356 206l1 1v-3h-1v2ZM92 211h2l1-1v-1l-4-3 1 5ZM100 206l-1 1 1-1Z"/><path fill="#8AD987" id="CTXsp" d="m99 208 3 1-1-3h-1l-1 1v1ZM358 208l-3 1c0-1.048-.473-3 1-3l1 1 1 1Z"/><path fill="#1F9866" id="AIv6a" d="M363 211h2v-4l-4 2 2 2ZM98 208l-1 1 1-1Z"/><path fill="#A0EE9C" id="EPd" d="m101 227 5 1c2.361 0 5-.4 5-3l-2-3-5-11-1-1v-1h-1l-3-1h-1l-1 1h-2v1l-1 1c0 1.804-2.182 5.136-1 7.5l2 3.5v1l2 2h1l2 2h1Z"/><path fill="#CBCBC7" id="aco" d="m185 213 4.5-5c1.794-.897 4.676.338 6 1 13.236 6.618-10.5 19.894-10.5 8v-4ZM271 212c-2.25 0-2.259-4-5-4-23.483 0 5 25.706 5 8v-4Z"/><path fill="#A0EE9C" id="EPd" d="M350 228h4l1-1 3-1 1-1 1-1 1-1 1-1 1-2v-9l-2-2-3-1-3 1h-2c0 2.233-4.65 14-7 14l-1 2v1c1.624 0 2.75 2 5 2Z"/><path fill="#99D2BD" id="OLF" d="m95 210-1 1 1-1Z"/><path fill="#C8CBCC" id="ec" d="m103 210 1 1-1-1Z"/><path fill="#99D2BD" id="OLF" d="M85 215c6.19 0 7.407 7 10 7l-2-3.5c-1.182-2.364 1-5.696 1-7.5h-2c0 1.473-1.952 1-3 1l-4 3ZM371 215c-4.615 0-4.919 5-8 5v-9h2l2 1 4 3Z"/><path fill="#E64438" id="HY" d="m208 212 1 1-1-1Z"/><path fill="#FF5547" id="ADP" d="M209 224v3l4.5 4c5.403 2.701 7.5-8.735 7.5-12v-5l-3.5-2-8.5 1v11ZM247 216c0 4.07.703 9.093-1 12.5-3.73 7.461-11-3.178-11-7.5 0-2.409 1-5.181 1-7l2.5-2 8.5 1v3Z"/><path fill="#E64438" id="HY" d="M247 213v2c1.473 0 1-1.952 1-3l-1 1Z"/><path fill="#6ACAB9" id="PIR" d="M117 267h2l7-5c0-6.691 4.343-19.079-5.5-24l-14-8c-1.311-.656-5.5-.797-5.5-3h-1l-2-2h-1l-2-2v-1c-2.593 0-3.81-7-10-7h-4c0 .885-9.683 4-11 4l-5 2c0 6.082 18.503 29.502 23.5 32 1.916.958 3.302 6 6.5 6 2.978 0 22 5.217 22 8ZM337 267h2l5.5-4c3.992-1.996 12.98-4 17.5-4l9-9.5 4-3c4.069-8.139 16-15.927 16-25.5l-5-2c-1.368 0-10-2.741-10-4h-5c-4.615 0-4.919 5-8 5l-1 2-1 1-1 1-1 1-1 1-3 1-1 1-3 1.5c-2.192 2.192-8.912 5.5-12 5.5l-9 10.5c-3.253 6.505 1 11.81 1 16.5l6 5Z"/><path fill="#E64438" id="HY" d="M251 242h5v-1c-8.606 0-7-15.86-7-20 0-.671-1.328-5-2-5 0 4.07.703 9.093-1 12.5-3.73 7.461-11-3.178-11-7.5l-4 8-1 4 3.5-4c3.129-1.564 17.5 8.858 17.5 13ZM208 221c0 1.048-.473 3 1 3v-5l-1 2ZM201 241l4 1c0-4.05 14.749-14.375 17.5-13l4.5 6-1-6-5-10c0 3.265-2.097 14.701-7.5 12l-4.5-4c0 4.849-8 13.457-8 14Z"/><path fill="#99D2BD" id="OLF" d="m363 220-1 2 1-2Z"/><path fill="#FD5446" id="PS" d="M200 241h1c0-.543 8-9.151 8-14v-3c-1.473 0-1-1.952-1-3-6.76 0-6.024 10-13 10l-2 4c0 2.38 4.801 6 7 6ZM263 235c0 2.445-4.13 6-7 6-8.606 0-7-15.86-7-20 5.545 0 5.648 10 12 10l2 4Z"/><path fill="#C8CBCC" id="ec" d="M111 225c1.843 0 4.584 6 8 6l-10-9 2 3Z"/><path fill="#80CDF8" id="ACB" d="M134 257h1l2.5 2c6.152 3.076 15.725.637 21-2 5.614-2.807 17.034-19 22.5-19l3-7c0-3.301-2-7.523-2-9h-5c0 12.902-31.798 13-41 13 0 1.473-1.952 1-3 1h-2l-4 3c0 5.209 6 10.293 6 16l1 1v1ZM323 256l-2 2c-6.042 0-13.021 4.24-19.5 1-5.531-2.766-20.18-20-24.5-20l-4-4.5c-.523-1.046.951-3.5-1-3.5 0-3.423 2-6.474 2-9h5l3 3.5c5.556 11.112 26.474 9.5 38 9.5 0 1.579 2.855 1 4 1h2c2.409 0 3 1.957 3 4 0 4.931-6 10.432-6 16Z"/><path fill="#99D2BD" id="OLF" d="m362 222-1 1 1-1ZM95 223l2 2-2-2Z"/><path fill="#C8CBCC" id="ec" d="m346 223-1 2 1-2Z"/><path fill="#99D2BD" id="OLF" d="m361 223-1 1 1-1ZM360 224l-1 1 1-1ZM98 225l2 2-2-2Z"/><path fill="#8AD987" id="CTXsp" d="m120 231 2 4c-6.007 0-6.696-3.598-11.5-6-1.147-.574-4.5 1.064-4.5-1 2.361 0 5-.4 5-3 1.843 0 4.584 6 8 6h1Z"/><path fill="#C8CBCC" id="ec" d="m345 226-2 1c0-1.747.253-2 2-2v1Z"/><path fill="#99D2BD" id="OLF" d="m359 225-1 1 1-1Z"/><path fill="#8AD987" id="CTXsp" d="M335 235h4c0-3.48 11-5.388 11-7-2.25 0-3.376-2-5-2l-2 1c0 2.177-4.336 4-6 4h-1l-1 1v3Z"/><path fill="#99D2BD" id="OLF" d="M126 262h1l6-3 1-1v-2l-1-1c0-5.707-6-10.791-6-16-1.562 0-5-2.189-5-4-6.007 0-6.696-3.598-11.5-6-1.147-.574-4.5 1.064-4.5-1l-5-1c0 2.203 4.189 2.344 5.5 3l14 8c9.843 4.921 5.5 17.309 5.5 24Z"/><path fill="#C8CBCC" id="ec" d="M343 227c-1.417 0-6 2.383-6 4 1.664 0 6-1.823 6-4Z"/><path fill="#99D2BD" id="OLF" d="m355 227-1 1 1-1ZM354 228l-3 1.5c-2.192 2.192-8.912 5.5-12 5.5 0-3.48 11-5.388 11-7h4Z"/><path fill="#FF5346" id="MPO" d="M213 265c-2.993 0-5.53 4-9 4 0-3.342-5-4.781-5-7v-1c0-3.16 6-10.956 6-19 0-4.05 14.749-14.375 17.5-13l4.5 6v2l-1 4-1 3c-3.694 0-4.108 5-6 5 0-2.141-4.913-2.793-6.5-2-6.001 3-15.934 16-3.5 16l6-2-2 4ZM243 265l9 4 5-7v-1c0-6.236-6-11.551-6-19 0-4.142-14.371-14.564-17.5-13l-3.5 4v7l1 4c2.116 0 6 2.575 6 5 1.947 0 3.644-3.428 6.5-2 3.088 1.544 15.187 12.906 9 16-4.627 2.313-8.328-3-11.5-3l2 5Z"/><path fill="#97D6F9" id="STR" d="m131 236-4 3c-1.562 0-5-2.189-5-4l-2-4 7.5 4c1.046.523 3.5-.951 3.5 1Z"/><path fill="#E64438" id="HY" d="m193 235-12 3 3-7h11l-2 4ZM263 235c4.592 0 9.746 4 14 4l-4-4.5c-.523-1.046.951-3.5-1-3.5h-11l2 4Z"/><path fill="#97D6F9" id="STR" d="m336 231-1 1 1-1ZM326 236c2.409 0 3 1.957 3 4l6-5v-3c-.833 0-9 3.908-9 4Z"/><path fill="#E64438" id="HY" d="M229 240h1v-7c-1.714 0-1 5.594-1 7Z"/><path fill="#97D6F9" id="STR" d="M136 235c-1.048 0-3-.473-3 1 1.048 0 3 .473 3-1Z"/><path fill="#A2B1D7" id="SI" d="M184 264c-12.649 0-5 11.394-5 13-19.719 0-20.603 5.448-39.5-4-2.892-1.446-5.265-3.029-6.5-5.5l-6-5.5 6-3 1-1 1-1 2.5 2c6.152 3.076 15.725.637 21-2 5.614-2.807 17.034-19 22.5-19l12-3c0 2.38 4.801 6 7 6v1c0 5.93-13 16.448-13 20l-3 2ZM273 264l4 2.5c7.42 7.42 0 4.739 0 10.5 10.947 0 23.523 4.988 33.5 0 3.218-1.609 5.705-4.352 9-6l9.5-9-6-4h-2c-6.042 0-13.021 4.24-19.5 1-5.531-2.766-20.18-20-24.5-20-4.254 0-9.408-4-14-4 0 2.445-4.13 6-7 6v1c1.838 0 4.235 7.971 5 9.5l8 9.5 4 3Z"/><path fill="#97D6F9" id="STR" d="M320 235c1.145 0 4-.579 4 1-1.145 0-4 .579-4-1Z"/><path fill="#99D2BD" id="OLF" d="M329 262h2c0-4.69-4.253-9.995-1-16.5l9-10.5h-4l-6 5c0 4.931-6 10.432-6 16v2l6 4Z"/><path fill="#E64438" id="HY" d="m228 240-2 1 1-4c1.473 0 1 1.952 1 3Z"/><path fill="#FF5445" id="MEPO" d="M225 255h6v-11l-1-4h-2l-2 1-1 3v11Z"/><path fill="#E64438" id="HY" d="m201 241-1 1v-1h1Z"/><path fill="#F2473B" id="LPO" d="M188 262h10l1-1c0-3.16 6-10.956 6-19l-4-1-1 1c0 5.93-13 16.448-13 20h1ZM259 262c3.325 0 7.31 1 10 1v-2l-8-9.5c-.765-1.529-3.162-9.5-5-9.5h-5c0 7.449 6 12.764 6 19l2 1Z"/><path fill="#FE5446" id="AVPV" d="m217 273-5 1c0-2.86 1-5.58 1-9l2-4c0-3.262 4-6.767 4-12 1.892 0 2.306-5 6-5v26l-1 1h-4l-1 1-2 1ZM236 271c2.86 0 5.58 3 9 3 0-3.638-2-5.929-2-9l-2-5c0-3.299-4-6.485-4-11 0-2.425-3.884-5-6-5v26l5 1Z"/><path fill="#FE5447" id="AVP" d="M219 249c0 5.233-4 8.738-4 12l-6 2c-12.434 0-2.501-13 3.5-16 1.587-.793 6.5-.141 6.5 2ZM237 249c1.947 0 3.644-3.428 6.5-2 3.088 1.544 15.187 12.906 9 16-4.627 2.313-8.328-3-11.5-3 0-3.299-4-6.485-4-11Z"/><path fill="#97D6F9" id="STR" d="m133 255 1 1-1-1Z"/><path fill="#FD5447" id="OV" d="M229 269h2v-14h-6v14h2c0-1.399 2-1.399 2 0Z"/><path fill="#97D6F9" id="STR" d="M321 258h2v-2l-2 2ZM135 257l-1 1v-1h1ZM134 258l-1 1 1-1Z"/><path fill="#CAC8C7" id="lot" d="m117 273-1 1c-2.78 0-21-11.714-21-15 2.978 0 22 5.217 22 8v6ZM339 273l1 1c3.026 0 22-12.066 22-15-4.52 0-13.508 2.004-17.5 4l-5.5 4v6Z"/><path fill="#CBCCCB" id="mfb" d="M198 262h1v-1l-1 1ZM257 262h2l-2-1v1Z"/><path fill="#E64438" id="HY" d="m273 264-2 1-2-2v-2l4 3Z"/><path fill="#7FCCF7" id="OT" d="M120 278c0 3.834 6.296 9.398 9.5 11l4 4c12.164 6.082 24.633 9.684 38 3 5.267-2.633 17.5-1.791 17.5-11 0-4.46-3.532-8-8-8h-2c-19.719 0-20.603 5.448-39.5-4-2.892-1.446-5.265-3.029-6.5-5.5l-6-5.5h-1l-7 5v10l1 1Z"/><path fill="#E64438" id="HY" d="m184 264 1 1 3-3h-1l-3 2Z"/><path fill="#96A6D3" id="NDB" d="M199 277h1c0-2.584 4-4.518 4-8 0-3.342-5-4.781-5-7h-11l-3 3c0 3.222-1 6.277-1 9 .656 0 4.138 3.319 5.5 4 2.948 1.474 5.517 0 8.5 0l1-1ZM256 277h2c1.17 0 14 3.564 14-3l-1-9-2-2c-2.69 0-6.675-1-10-1h-2l-5 7 4 8Z"/><path fill="#7FCCF7" id="OT" d="M337 277c0 4.506-8.706 12.103-12.5 14-11.785 5.893-20.229 12.886-34 6-1.734-.867-4.161-.08-6-1-5.116-2.558-17.5-2.334-17.5-11 0-4.971 4.238-8 9-8h1c10.947 0 23.523 4.988 33.5 0 3.218-1.609 5.705-4.352 9-6l9.5-9h2l6 5 1 3v5l-1 2Z"/><path fill="#A2B1D8" id="MA" d="M179 277h2l3-3c0-2.723 1-5.778 1-9l-1-1c-12.649 0-5 11.394-5 13ZM276 277h1c0-5.761 7.42-3.08 0-10.5l-4-2.5-2 1 1 9 4 3Z"/><path fill="#E64438" id="HY" d="m212 274-12 3c0-2.584 4-4.518 4-8 3.47 0 6.007-4 9-4 0 3.42-1 6.14-1 9ZM245 274l11 3-4-8-9-4c0 3.071 2 5.362 2 9Z"/><path fill="#99D2BD" id="OLF" d="m119 269-2 2v-4h2v2ZM338 270h1v-3h-2l1 3Z"/><path fill="#A8A9AA" id="V3" d="M227 269c0 1.399 2 1.399 2 0s-2-1.399-2 0Z"/><path fill="#97D6F9" id="STR" d="m117 274 2 2v-7l-2 2v3Z"/><path fill="#E64438" id="HY" d="M225 270h1v-1h-1v1Z"/><path fill="#CAC7CB" id="fiber tracts" d="m209 283-2 3.5 5.5.5c4.598 2.299 20.62 3.19 25 1 1.609-.805 12.5.171 12.5-2.5l-3-1.5c-4.174 0-11.637-10-8-10l-3-3-5-1c0 2.061-5 2.061-5 0h-1l-1 1h-4l-1 1-2 1v1c5.212 0-1.998 9-8 9Z"/><path fill="#97D6F9" id="STR" d="m339 274-1 1v-5h1v4Z"/><path fill="#99D2BD" id="OLF" d="M116 274h1v-1l-1 1ZM339 274h1l-1-1v1Z"/><path fill="#8599CC" id="PAL" d="M198 278c0 1.592-7.61 7-9 7 0-4.46-3.532-8-8-8l3-3c.656 0 4.138 3.319 5.5 4 2.948 1.474 5.517 0 8.5 0Z"/><path fill="#CBCCC7" id="IIn" d="M217 274c5.212 0-1.998 9-8 9 0-6.251 8-8.327 8-9ZM239 274c6.145 0 8 5.958 8 10-4.174 0-11.637-10-8-10Z"/><path fill="#8599CC" id="PAL" d="M276 277c-4.762 0-9 3.029-9 8-1.675 0-9-6.062-9-8 1.17 0 14 3.564 14-3l4 3Z"/><path fill="#97D6F9" id="STR" d="m338 275-1 2 1-2ZM119 277l1 1-1-1Z"/><path fill="#8599CC" id="PAL" d="m199 277-1 1 1-1Z"/></svg>