<svg xmlns="http://www.w3.org/2000/svg" viewBox="0 0 456 320"><path fill="#9AD1BD" id="MOB" d="M149 145v7c0 12.63 12.421 30.341 18 41.5 4.444 8.888-.539 21.922 4 31 7.138 14.275 34.089 18.822 42 3 5.591-11.182 8-27.783 8-41l1-28c1.671-3.342 5.055-26.891 3-31l-7-14-6-6.5c-2.592 0-3.416-.958-5.5-2-4.701-2.351-19.231.115-23 2-3.237 1.618-6.845 2.422-10 4l-11.5 8-1 1-1 2-1 1-1 1-1 1-1 2-1 2-1 2v1l-1 1-1 2-1 2v1c0 1.357-.647 6-2 6v1ZM307 143v8c0 15.111-11.612 30.725-18 43.5-3.683 7.365 1.117 19.766-5 32-5.363 10.727-33.04 15.92-39 4l-6-14c-1.586-3.173-.375-7.75-2-11-1.406-2.812.461-7.078-1-10-2.876-5.753 1.933-15.134-1-21l-1-18c-1.393-2.785-4.627-23.746-3-27 2.258-4.516 3.725-9.449 6-14l6-7.5 2-1 4.5-2c5.113-2.557 25.061 2.03 29 4 2.185 1.093 14.644 10 15.5 10l3 3v1l3 4 3 5c0 1.717 2.709 10 4 10v1Z"/><path fill="#C7CBCA" id="onl" d="M155 216c0 10.518 18.602 23.051 26.5 27l13 9h9.5c19.533 0 23-18.623 23-35 0-1.574-.751-9 1-9v-57l-1-2c0-12.633 2.945-31.778-9.5-38-1.789-.895-2.387-4-5.5-4l6 6.5 7 14c2.055 4.109-1.329 27.658-3 31l-1 28c0 13.217-2.409 29.818-8 41-7.911 15.822-34.862 11.275-42-3-4.539-9.078.444-22.112-4-31-5.579-11.159-18-28.87-18-41.5-2.592 0 .592 6-2 6v5c1.714 0 1 5.594 1 7v2c1.512 0 1.297 9.094 2 10.5 3.83 7.66 4 21.555 4 30.5v2l1 1ZM245 107l-2 1 2-1ZM308 175c-1.647 0-1.338 7.176-2 8.5-3.058 6.116-4 24.032-4 31.5 0 6.661-8.834 14.334-13 18.5-5.495 5.495-10.668 8.084-17.5 11.5l-7 6c-8.694 4.347-19.958-.479-27-4-6.631-3.316-8.5-21.595-8.5-29v-83c0-7.244 4.615-27 14-27l-6 7.5c-2.275 4.551-3.742 9.484-6 14-1.627 3.254 1.607 24.215 3 27l1 18c2.933 5.866-1.876 15.247 1 21 1.461 2.922-.406 7.188 1 10 1.625 3.25.414 7.827 2 11l6 14c5.96 11.92 33.637 6.727 39-4 6.117-12.234 1.317-24.635 5-32 6.388-12.775 18-28.389 18-43.5l2 2v16c-1.643 0-1 3.765-1 5v1Z"/><path fill="#99D2BD" id="OLF" d="m162 119-1 1 1-1ZM294 119l3 3-3-3ZM160 122l-1 1 1-1ZM159 123l-1 1 1-1ZM300 127h1l-4-4 3 4ZM158 124l-1 1 1-1ZM155 127h1l1-2-2 2Z"/><path fill="#C7CBCA" id="onl" d="M155 128v1l1-2h-1v1ZM303 131v1l-3-5h1l1 2 1 1v1Z"/><path fill="#99D2BD" id="OLF" d="M154 129h1v-1l-1 1Z"/><path fill="#C7CBCA" id="onl" d="M154 130v1l1-2h-1v1Z"/><path fill="#99D2BD" id="OLF" d="m302 129 1 1-1-1ZM153 131h1v-1l-1 1Z"/><path fill="#C7CBCA" id="onl" d="M153 132h1v-1h-1v1Z"/><path fill="#99D2BD" id="OLF" d="M303 132c0 1.717 2.709 10 4 10 0-1.674-2.758-11-4-11v1ZM154 132l-1 1v-1h1ZM153 133l-1 2 1-2ZM152 135l-1 2 1-2ZM151 138c-1.995 0-2 4.377-2 6 1.353 0 2-4.643 2-6ZM307 151l2 2c0-1.928-.112-10-2-10v8ZM149 152c-2.592 0 .592 6-2 6 0-2.088.318-13 2-13v7ZM227 149l1 2-1-2ZM147 163c1.714 0 1 5.594 1 7-1.714 0-1-5.594-1-7ZM309 169c-1.643 0-1 3.765-1 5 1.643 0 1-3.765 1-5ZM148 172c1.512 0 1.297 9.094 2 10.5 3.83 7.66 4 21.555 4 30.5-2.61 0-3.198-5.896-4-7.5-2.588-5.176-2-26.916-2-33.5ZM308 175c-1.647 0-1.338 7.176-2 8.5-3.058 6.116-4 24.032-4 31.5.512 0 3.484-6.468 4-7.5 4.17-8.34 2-22.618 2-32.5ZM228 208c-1.751 0-1 7.426-1 9 1.751 0 1-7.426 1-9ZM154 215l1 1-1-1Z"/></svg>