<svg xmlns="http://www.w3.org/2000/svg" viewBox="0 0 456 320"><path fill="#1E9D5A" id="MOp1" d="M199 27c-7.723 0-14.647 2-22 2l1-6c6.597 0 13.851-1 21-1v5Z"/><path fill="#1E9C59" id="MOs1" d="M222 40h1l3-3c0-9.57-19.902-15-27-15v5c7.556 0 23 2.916 23 13ZM230 37l4 3c0-8.605 16.465-13 23-13v-5c-1.663 0-9.757.128-11.5 1-2.425 1.212-15.5 11.116-15.5 14Z"/><path fill="#1E9D5A" id="MOp1" d="M258 27c7.34 0 13.966 2 21 2 0-2.124-1-4.436-1-6-6.445 0-13.948-1-21-1v5h1Z"/><path fill="#187F60" id="SSp-ll1" d="m131 34 2 5c4.739 0 11.358-3.93 15.5-6 6.039-3.02 20.78-4 28.5-4l1-6c-7.696 0-23.628 1.064-29.5 4-4.218 2.11-12.862 7-17.5 7ZM326 35l-3 4-12.5-5c-8.386-4.193-20.45-5-30.5-5h-1c0-2.124-1-4.436-1-6 14.168 0 26.806 2.153 38.5 8 1.708.854 9.5 1.328 9.5 4Z"/><path fill="#1F9C58" id="MOp2/3" d="m174 42-1 4c5.057 0 14.448-9 23-9h1c0-3.894 2-6.605 2-10-7.723 0-14.647 2-22 2 0 3.888-3 8.76-3 13Z"/><path fill="#1E9D58" id="MOs2/3" d="M216 44h1l5-4c0-10.084-15.444-13-23-13 0 3.395-2 6.106-2 10 5.512 0 19-1.076 19 7ZM234 40l6 4c0-7.678 14.522-7 20-7 0-3.119-2-6.279-2-10h-1c-6.535 0-23 4.395-23 13Z"/><path fill="#1F9C58" id="MOp2/3" d="M283 47h1l-1-5c0-4.107-3-8.273-3-13h-1c-7.034 0-13.66-2-21-2 0 3.721 2 6.881 2 10 3.705 0 23 6.773 23 10Z"/><path fill="#187F64" id="SSp-ll2/3" d="M139 52h1c0-1.325 5.361-2.43 6.5-3 7.596-3.798 18.519-7 27.5-7 0-4.24 3-9.112 3-13-7.72 0-22.461.98-28.5 4-4.142 2.07-10.761 6-15.5 6v1c0 1.931 6 7.975 6 12ZM316 52h1l6-12v-1l-12.5-5c-8.386-4.193-20.45-5-30.5-5 0 4.727 3 8.893 3 13 8.657 0 19.168 3.334 26.5 7 1.326.663 6.5 1.002 6.5 3Z"/><path fill="#197E64" id="SSp-ul1" d="M112 43c0 .67 1.328 5 2 5 6.928 0 11.989-8 19-8v-1l-2-5c-5.536 0-14.106 9-19 9ZM342 49h1l1-6c0-1.845-3.381-1.44-4.5-2-4.493-2.246-8.069-6-13.5-6l-3 4v1c2.712 0 19 8.155 19 9Z"/><path fill="#1E9C5A" id="MOp5" d="m192 53-22 10 3-16v-1c5.057 0 14.448-9 23-9 0 5.877-4 10.596-4 16Z"/><path fill="#1F9D58" id="MOs5" d="M205 54h1c0-2.742 6.096-6.298 7.5-7l2.5-3c0-8.076-13.488-7-19-7h-1c0 5.877-4 10.596-4 16 1.711 0 13-4.934 13 1Z"/><path fill="#3EA665" id="ACAd1" d="M223 62h10c0-7.464 1-15.1 1-22l-4-3-1.5 3-2.5-3-3 3v22Z"/><path fill="#1F9D58" id="MOs5" d="M264 53c-1.561 0-13-4.868-13 1-3.92 0-6.062-10-11-10 0-7.678 14.522-7 20-7l4 16Z"/><path fill="#1E9C5A" id="MOp5" d="M265 53c7.398 0 14.178 10 22 10l-4-16c0-3.227-19.295-10-23-10l4 16h1Z"/><path fill="#197F61" id="SSp-ul2/3" d="M139 52c-7.263 0-14.082 10-21 10 0-4.818-4-8.007-4-13v-1c6.928 0 11.989-8 19-8 0 1.931 6 7.975 6 12Z"/><path fill="#40A565" id="ACAd2/3" d="M218 63h5V40h-1l-5 4 1 19ZM233 63h6c0-6.244 1-13.428 1-19l-6-4c0 6.9-1 14.536-1 22v1Z"/><path fill="#197F61" id="SSp-ul2/3" d="M338 62h1c0-4.61 3-7.725 3-13 0-.845-16.288-9-19-9l-6 12c4.874 0 10.286 4.893 14.5 7 1.139.57 6.5 1.675 6.5 3Z"/><path fill="#1C7F64" id="SSp-ll4" d="M144 58h1c0-1.454 5.366-1.433 6.5-2l21.5-9v-1l1-4c-8.981 0-19.904 3.202-27.5 7-1.139.57-6.5 1.675-6.5 3l4 6ZM312 58h1l3-6c0-1.998-5.174-2.337-6.5-3-7.332-3.666-17.843-7-26.5-7l1 5 18.5 8c1.233.617 9.5 1.993 9.5 3Z"/><path fill="#1B8062" id="SSp-un1" d="m114 49-11 5-1-5c0-1.727 8.413-6 10-6 0 .67 1.328 5 2 5v1ZM355 49c-.825 0-1 4-1 6-3.569 0-7.109-6-11-6l1-6c1.637 0 11 4.656 11 6Z"/><path fill="#3EA566" id="ACAd5" d="M218 64c-4.114 0-7.172 5-11 5 0-5.172-1-10.365-1-15 0-2.742 6.096-6.298 7.5-7l2.5-3h1l1 19v1ZM239 64l10 5c0-2.24.165-14 2-14v-1c-3.92 0-6.062-10-11-10 0 5.572-1 12.756-1 19v1Z"/><path fill="#197C63" id="SSp-ll5" d="M169 64c-5.976 0-11.735 6-18 6l-6-12c0-1.454 5.366-1.433 6.5-2l21.5-9-3 16-1 1ZM287 64l18 6 7-12c0-1.007-8.267-2.383-9.5-3L284 47h-1l4 16v1Z"/><path fill="#188060" id="SSp-bfd1" d="m79 65 1.5 2c1.47 0 2.377-1 4.5-1 5.657 0 11.276-11 17-11l1-1-1-5c-2.661 0-23 13.359-23 16Z"/><path fill="#1C7F63" id="SSp-un2/3" d="m118 62-14 7-1-14v-1l11-5c0 4.993 4 8.182 4 13ZM339 62c0 1.375 11.081 6 13 6l2-13c-3.569 0-7.109-6-11-6h-1c0 5.275-3 8.39-3 13Z"/><path fill="#188060" id="SSp-bfd1" d="M372 67h1c0-1.16 4.866-1 6-1 0-1.5-21.104-17-24-17-.825 0-1 4-1 6 6.197 0 11.191 11 17 11l1 1Z"/><path fill="#1D9C5A" id="MOs6a" d="M194 73h1c0-6.62 10-14.38 10-19 0-5.934-11.289-1-13-1l-3 9.5c-1.606 3.213 0 8.782 0 11.5l5-1ZM267 75h1c0-8.11-3-14.753-3-22h-1c-1.561 0-13-4.868-13 1v1c2.912 0 8.803 12.105 10 14.5.523 1.046-.951 3.5 1 3.5 1.424 0 5 .362 5 2Z"/><path fill="#1A7F63" id="SSp-ul4" d="M120 70h1l5-3.5 18-8.5-4-6h-1c-7.263 0-14.082 10-21 10l2 8ZM338 62c0 1.593-.337 7-2 7l-23-11 3-6h1c4.874 0 10.286 4.893 14.5 7 1.139.57 6.5 1.675 6.5 3Z"/><path fill="#1F9B5A" id="MOp6a" d="m189 75-20 6V64l1-1 22-10-3 9.5c-1.606 3.213 0 8.782 0 11.5v1ZM268 75c6.502 0 13.219 6 20 6 0-5.51-1-10.46-1-17v-1c-7.822 0-14.602-10-22-10 0 7.247 3 13.89 3 22Z"/><path fill="#1B8062" id="SSp-un1" d="M102 55h1v-1l-1 1Z"/><path fill="#3FA664" id="ACAd6a" d="m195 73 4 4c3.05 0 4.483-6 8-6v-2c0-5.172-1-10.365-1-15h-1c0 4.62-10 12.38-10 19Z"/><path fill="#187F63" id="SSp-bfd2/3" d="m104 69-7 3-3.5-2c-1.81.905-5.054-3-8.5-3v-1c5.657 0 11.276-11 17-11h1l1 14Z"/><path fill="#3FA664" id="ACAd6a" d="M262 74c-2.364 0-3.053 3-5 3l-8-7v-1c0-2.24.165-14 2-14 2.912 0 8.803 12.105 10 14.5.523 1.046-.951 3.5 1 3.5v1Z"/><path fill="#187F63" id="SSp-bfd2/3" d="m353 69 6 3c5.127 0 6.716-5 12-5v-1c-5.809 0-10.803-11-17-11l-2 13 1 1Z"/><path fill="#187E62" id="SSp-ul5" d="M124 82h1c0-1.932 22.187-11 26-11v-1l-6-12h-1l-18 8.5-5 3.5c0 4.569 3 7.814 3 12ZM336 70c0 1.725-2.551 11-4 11-7.594 0-18.722-11-27-11l7-12h1l23 11v1Z"/><path fill="#197E61" id="SSp-un4" d="m100 74 4 5c5.589 0 10.429-9 16-9l-2-8-14 7c0 1.867-1.905 5-4 5Z"/><path fill="#40A664" id="ACAv1" d="M222 93h1c0-1.334 2.972-6 4-6 0-4.252 2-4.466 2 0l5 6c0-9.624-1-19.833-1-30v-1h-10v1c0 9.97-1 20.677-1 30Z"/><path fill="#197E61" id="SSp-un4" d="M356 74c0 1.562-2.189 5-4 5-5.673 0-10.261-9-16-9v-1c1.663 0 2-5.407 2-7h1c0 1.375 11.081 6 13 6l1 1c0 2.062.852 5 3 5Z"/><path fill="#3FA566" id="ACAv2/3" d="M222 93c0 1.577-1.762 2-3 2 0-9.648-1-20.702-1-31v-1h5c0 9.97-1 20.677-1 30ZM234 93c1.481 0 .785 2 3 2 0-9.944 2-20.351 2-31v-1h-6c0 10.167 1 20.376 1 30Z"/><path fill="#1A7F64" id="SSp-ll6a" d="M157 85h1l11-4V64c-5.976 0-11.735 6-18 6v1c2.455 0 6 11.459 6 14Z"/><path fill="#3EA666" id="ACAv5" d="M211 94c.922 0 8 4.056 8 1 0-9.648-1-20.702-1-31-4.114 0-7.172 5-11 5v2c0 7.954 4 15.443 4 23ZM246 93c0 3.757-7.682 2-9 2 0-9.944 2-20.351 2-31l10 5v1c0 8.31-3 15.36-3 23Z"/><path fill="#1A7F64" id="SSp-ll6a" d="M298 85h1c0-6.168 6-9.985 6-15l-18-6c0 6.54 1 11.49 1 17l10 4Z"/><path fill="#197E63" id="SSp-n1" d="M53 108h1c0-8.309 14.573-26.073 21-32.5 2.236-2.236 7.238-8.5 10-8.5v-1c-2.123 0-3.03 1-4.5 1L79 65c-3.293 0-7.175 5.675-9.5 8C63.584 78.915 49 97.366 49 105c1.429 0 4 1.288 4 3ZM407 105l-4 2-12-20.5c-2.312-4.624-18-16.75-18-19.5 0-1.16 4.866-1 6-1l9 8.5c5.775 5.775 19 22.112 19 30.5ZM371 67h1l-1-1v1Z"/><path fill="#1B7F64" id="SSp-n2/3" d="M54 108c3.309 0 4.111 5 8 5l7-14.5C72.528 91.444 88.118 73 97 73v-1l-3.5-2c-1.81.905-5.054-3-8.5-3-2.762 0-7.764 6.264-10 8.5-6.427 6.427-21 24.191-21 32.5ZM394 114h1c0-1.803 6.495-6 8-6v-1l-12-20.5c-2.312-4.624-18-16.75-18-19.5h-2c-5.284 0-6.873 5-12 5v1c11.979 0 35 30.12 35 41Z"/><path fill="#197C64" id="SSp-bfd4" d="m97 73 3 1c2.095 0 4-3.133 4-5l-7 3v1ZM359 73l-3 1c-2.148 0-3-2.938-3-5l6 3v1Z"/><path fill="#197D62" id="SSp-un5" d="M111 89h1l12-7c0-4.186-3-7.431-3-12h-1c-5.571 0-10.411 9-16 9v1c1.821 0 7 7.338 7 9Z"/><path fill="#40A564" id="ACAv6a" d="M246 93h1l1-2 1-1c0-1.605 6.532-11 8-11v-2l-8-7c0 8.31-3 15.36-3 23Z"/><path fill="#197D61" id="SSp-ul6a" d="M299 85c5.502 0 19.164 12 28 12 0-3.195 2.597-7.695 4-10.5.574-1.147-1.064-4.5 1-4.5v-1c-7.594 0-18.722-11-27-11 0 5.015-6 8.832-6 15Z"/><path fill="#197D62" id="SSp-un5" d="M344 89h1c0-3.598 7-5.782 7-9v-1c-5.673 0-10.261-9-16-9 0 1.725-2.551 11-4 11v1c1.839 0 12 5.09 12 7Z"/><path fill="#197D61" id="SSp-ul6a" d="M130 97h3l3.5-2 14.5-6c0-3.004 6-1.483 6-4 0-2.541-3.545-14-6-14-3.813 0-26 9.068-26 11 0 2.17 2.916 15 5 15Z"/><path fill="#40A564" id="ACAv6a" d="m209 93 2 1c0-7.557-4-15.046-4-23-3.517 0-4.95 6-8 6v1c1.264 0 9 11.424 9 13l1 2Z"/><path fill="#1A8062" id="SSp-n4" d="m62 114 6 4c1.957 0 6.097-9.694 7-11.5 2.884-5.769 23.086-26.5 29-26.5v-1l-4-5-3-1c-8.882 0-24.472 18.444-28 25.5L62 113v1Z"/><path fill="#1E9C58" id="MOs6b" d="M189 75h5v-2l-5 1v1Z"/><path fill="#3FA466" id="ACAd6b" d="M198 78h1v-1l-4-4h-1v2c1.429 0 4 1.288 4 3Z"/><path fill="#1E9C58" id="MOs6b" d="M262 75h5c0-1.638-3.576-2-5-2v2Z"/><path fill="#1A8062" id="SSp-n4" d="M388 119h1c0-2.832 5-2.953 5-5 0-10.88-23.021-41-35-41l-3 1c0 1.562-2.189 5-4 5v1c8.942 0 27.303 23.105 31 30.5 1.395 2.79 5 5.212 5 8.5Z"/><path fill="#3FA466" id="ACAd6b" d="M257 78h1l4-3v-1c-2.364 0-3.053 3-5 3v1Z"/><path fill="#1D9D5A" id="MOp6b" d="M169 81v2c.705 0 15.536-5.036 16-5.5 1.053-1.053 4-.046 4-2.5l-20 6Z"/><path fill="#CACCC7" id="cing" d="m208 91 1 2c-7.339 0-11.375-8.938-17.5-12-6.601-3.3-15.537 4-21.5 4l-2 1c-1.145 0-4 .58-4-1 0-1.638 3.576-2 5-2 .705 0 15.536-5.036 16-5.5 1.053-1.053 4-.046 4-2.5h5c1.429 0 4 1.288 4 3 0 2.085 7.352 13 10 13ZM248 91l-1 2c8.684 0 12.047-8.774 18.5-12 6.432-3.216 14.695 4 20.5 4 .969 0 7 2.614 7 0 0-1.638-3.576-2-5-2-4.428 0-12.498-3.999-16.5-6-1.119-.56-4.5-.155-4.5-2h-5l-4 3-1 1c0 2.543-4.672 11-8 11l-1 1Z"/><path fill="#1D9D5A" id="MOp6b" d="M288 81v2c-4.428 0-12.498-3.999-16.5-6-1.119-.56-4.5-.155-4.5-2h1c6.502 0 13.219 6 20 6Z"/><path fill="#40A465" id="ACAv6b" d="M199 78c1.264 0 9 11.424 9 13-2.648 0-10-10.915-10-13h1ZM258 78l-1 1v-1h1ZM257 79c-1.468 0-8 9.395-8 11 3.328 0 8-8.457 8-11Z"/><path fill="#197E62" id="SSp-n5" d="M68 119c4.323 0 6.115 5 10 5 0-8.82 16.82-25.16 24.5-29l8.5-6c0-1.662-5.179-9-7-9-5.914 0-26.116 20.731-29 26.5-.903 1.806-5.043 11.5-7 11.5v1ZM388 119c-3.963 0-5.331 6-9 6 0-9.239-17.575-26.037-25.5-30l-8.5-6c0-3.598 7-5.782 7-9 8.942 0 27.303 23.105 31 30.5 1.395 2.79 5 5.212 5 8.5Z"/><path fill="#197F62" id="SSp-ll6b" d="M164 85c-2.518 0-4.286 2-6 2v-2l11-4v2c-1.424 0-5 .362-5 2Z"/><path fill="#C9C7C9" id="ccb" d="m373 157 2 10c-2.076 0-3.216-7.932-4-9.5l-12-22c-5.459-10.918-27.899-27.2-38.5-32.5-5.992-2.996-14.104-1-20.5-1 0-5.606-9.693-9-14-9h-1c0-2.273-5.226-2-7-2-7.837 0-12.141 1.82-18.5 5l-6.5 5h-1l-7 1c0-1.684-4.679-1-6-1h-19.5c-1.448 0-7.5-.725-7.5 1l-7-1h-1c-3.09 0-13.302-10-25-10-1.235 0-5-.643-5 1-1.048 0-3-.473-3 1h-1c-1.424 0-5 .362-5 2-1.465 0-4-.109-4 2-2.832 0-2.953 5-5 5-5.969 0-13.794-1.853-19.5 1-12.39 6.195-32.666 19.833-39.5 33.5l-12 22c-.784 1.568-1.924 9.5-4 9.5l3-12 1-1v-2l1-1v-1l1-2v-1l1-1 1-2v-1c1.823 0 6-9.17 6-11 1.617 0 4-4.583 4-6 1.881 0 6-4.73 6-7l1-1 1-1 10.5-9c6.211-3.105 11.836-6.918 18-10l10-2 15-7 7.5-4 2-1c5.963 0 14.899-7.3 21.5-4 6.125 3.062 10.161 12 17.5 12l2 1c.922 0 8 4.056 8 1 1.238 0 3-.423 3-2h1c0 5.027 4.155 0 5.5 0l1 2c1.43.715 4.5-.29 4.5-2 1.481 0 .785 2 3 2 1.318 0 9 1.757 9-2h1c8.684 0 12.047-8.774 18.5-12 6.432-3.216 14.695 4 20.5 4 0 1.65 10.799 5.15 12.5 6 11.307 5.654 23.71 8.355 35 14 8.777 4.388 22.106 17.711 26.5 26.5.948 1.896 4.619 11.5 7 11.5v1c0 1.238.423 3 2 3v2l2 3v2l1 1v1l1 1Z"/><path fill="#197F62" id="SSp-ll6b" d="M298 85v1l-5-1c0-1.638-3.576-2-5-2v-2l10 4Z"/><path fill="#1A7F61" id="SSp-un6a" d="m125 101-4 1c0-2.54-7.16-13-9-13l12-7h1c0 2.17 2.916 15 5 15v1l-1 1-4 2ZM327 98l8 4 9-13c0-1.91-10.161-7-12-7-2.064 0-.426 3.353-1 4.5-1.403 2.805-4 7.305-4 10.5v1Z"/><path fill="#1C8064" id="SSp-ul6b" d="m158 87-7 2c0-3.004 6-1.483 6-4h1v2Z"/><path fill="#C9C9CA" id="scwm" d="M107 116v2l10.5-9c6.211-3.105 11.836-6.918 18-10l10-2 15-7 7.5-4c-1.145 0-4 .58-4-1-2.518 0-4.286 2-6 2l-7 2c0 2.144-15.421 8-18 8l-3 2h-1c0 2.109-2.535 2-4 2l-4 2c0 2.073-6.148 7-8 7l-6 6ZM170 85l-2 1 2-1ZM365 137l2 6c-2.381 0-6.052-9.604-7-11.5-4.394-8.789-17.723-22.112-26.5-26.5-11.29-5.645-23.693-8.346-35-14-1.701-.85-12.5-4.35-12.5-6 .969 0 7 2.614 7 0l5 1 6.5 3c5.135 2.567 17.009 10 22.5 10l8 4 18.5 18c3.621 1.811 9.509 16 11.5 16Z"/><path fill="#1C8064" id="SSp-ul6b" d="M327 98v1c-5.491 0-17.365-7.433-22.5-10l-6.5-3v-1h1c5.502 0 19.164 12 28 12v1Z"/><path fill="#7ED04B" id="IG" d="M223 93c0 5.027 4.155 0 5.5 0l1 2c1.43.715 4.5-.29 4.5-2l-5-6h-2c-1.028 0-4 4.666-4 6Z"/><path fill="#187D62" id="SSp-n6a" d="m93 134-2 1-13-10v-1c0-8.82 16.82-25.16 24.5-29l8.5-6h1c1.84 0 9 10.46 9 13v1c-1.852 0-8 4.927-8 7-2.473 0-6 3.527-6 6l-6 6c-1.577 0-2 1.762-2 3-1.747 0-2 .253-2 2-2.109 0-2 2.535-2 4-1.577 0-2 1.762-2 3Z"/><path fill="#1C8064" id="SSp-ul6b" d="m151 89-14.5 6-3.5 2c2.579 0 18-5.856 18-8Z"/><path fill="#187D62" id="SSp-n6a" d="M379 125c-5.245 0-9.543 10-14 10l-4-5.5c-2.116-4.232-19.692-26.5-26-26.5v-1l9-13h1l8.5 6c7.925 3.963 25.5 20.761 25.5 30Z"/><path fill="#40A465" id="ACAv6b" d="m249 90-1 1 1-1Z"/><path fill="#AAA8A9" id="SEZ" d="M179 91c-1.235 0-5-.643-5 1 1.235 0 5 .643 5-1Z"/><path fill="#A8AAAA" id="VL" fill-rule="evenodd" d="m191 98-4 4.5-2 7c-2.03 4.061-17.871 15.815-8.5 20.5 2.459 1.229 5.02-4.01 7-5 8.619-4.31 29.375-27 7.5-27m8 20-3.5 3c-1.837.919-15.98 9.461-16.5 10.5l-6 7.5c0-5.613.398-14.705-2-19.5L160 104c0-3.545 1-4.451 1-7l4-2c1.424 0 5-.362 5-2h1c1.048 0 3 .473 3-1 1.235 0 5 .643 5-1 11.698 0 21.91 10 25 10v1c0 4.896-5 10.612-5 16ZM261 98c0 2.256-7.344 3.812-5 8.5 4.643 9.286 9.329 14.915 18.5 19.5 2.014 1.007 5.188 7.123 7.5 2.5l1-4c-2.899-5.797-9.085-10.169-12-16-1.498-2.996-.52-7.51-4.5-9.5l-5.5-1m-4 19 3.5 4c5.657 2.829 12.873 6.873 17.5 11.5l6 7.5c0-5.661-1.394-14.712 1-19.5l12-17.5c0-7.535-11-8.838-11-10h-1c-1.296 0-7-.825-7-2-7.837 0-12.141 1.82-18.5 5l-6.5 5v1l4 15Z"/><path fill="#AAA8A9" id="SEZ" d="M278 91c1.774 0 7-.273 7 2-1.296 0-7-.825-7-2ZM174 92c-1.048 0-3-.473-3 1 1.048 0 3 .473 3-1ZM170 93c-1.424 0-5 .362-5 2 1.424 0 5-.362 5-2ZM300 102c0 1.473-1.952 1-3 1 0-7.535-11-8.838-11-10 4.307 0 14 3.394 14 9ZM165 95c-1.465 0-4-.109-4 2l4-2Z"/><path fill="#1C8064" id="SSp-ul6b" d="M130 98v1l3-2h-3v1Z"/><path fill="#AAA8A9" id="SEZ" d="m156 102 4 2c0-3.545 1-4.451 1-7-2.832 0-2.953 5-5 5Z"/><path fill="#1A7D63" id="SSp-un6b" d="M129 99h1v-1l-1 1Z"/><path fill="#A9AAA8" id="chpl" d="m191 98-4 4.5-2 7c-2.03 4.061-17.871 15.815-8.5 20.5 2.459 1.229 5.02-4.01 7-5 8.619-4.31 29.375-27 7.5-27ZM261 98c0 2.256-7.344 3.812-5 8.5 4.643 9.286 9.329 14.915 18.5 19.5 2.014 1.007 5.188 7.123 7.5 2.5l1-4c-2.899-5.797-9.085-10.169-12-16-1.498-2.996-.52-7.51-4.5-9.5l-5.5-1Z"/><path fill="#1A7D63" id="SSp-un6b" d="M335 102v1l-8-4v-1l8 4ZM129 99l-4 2c1.465 0 4 .109 4-2ZM121 102v1l4-2-4 1Z"/><path fill="#98D5F9" id="CP" d="M109 234h1c5.763 0 10.837-2 16-2l1-1 11-8v-11c0-10.103-1.951-36.775 6.5-41l4.5-6c0-1.343 3.331-14 4-14l1-2 2-1c0-2.176 9.275 2 11 2h1l3-2.5c.652-1.303.219-7.5 2-7.5v-1c0-5.613.398-14.705-2-19.5L160 104l-4-2c-5.969 0-13.794-1.853-19.5 1-12.39 6.195-32.666 19.833-39.5 33.5l-12 22c-.784 1.568-1.924 9.5-4 9.5v1l-1 2v2l1 15.5 4 10.5v1l2 4v1c2.825 0 3.181 5.863 4 7.5 2.826 5.652 9.981 20.5 17 20.5l1 1Z"/><path fill="#90CBEC" id="LSc" d="M199 118c2.69 0 6.675 1 10 1 0-4.414 7-8.812 7-14l-1-2h-2l-1-1-7-1-1 1c0 4.896-5 10.612-5 16Z"/><path fill="#CBC8CC" id="df" d="M237 104h3l2-1h2l1-1c0-1.684-4.679-1-6-1h-19.5c-1.448 0-7.5-.725-7.5 1l1 1h2l2 1c5.826 0 12.583 1 19 1l1-1Z"/><path fill="#90CBEC" id="LSc" d="M257 117c0 3.337-7.194 2-10 2l-7-14 2-2h2l1-1 7-1 1 1 4 15Z"/><path fill="#98D5F9" id="CP" d="M329 231c5.166 0 10.796 3 17 3 4.395 0 7.388-7 11-7 0-1.562 2.189-5 4-5 0-1.465-.109-4 2-4 0-1.424.362-5 2-5l2-4 2-4 1-2 1-2v-1l1-2 1-2v-1l2-4 1-18v-3l-1-2v-1c-2.076 0-3.216-7.932-4-9.5l-12-22c-5.459-10.918-27.899-27.2-38.5-32.5-5.992-2.996-14.104-1-20.5-1 0 1.473-1.952 1-3 1l-12 17.5c-2.394 4.788-1 13.839-1 19.5v2c2.064 0 .426 3.353 1 4.5l3 3.5h1c2.119 0 13-5.63 13-1l1 1 1 1v2c.385 0 3 10.783 3 12 2.115 0 5.248 5.996 6 7.5 5.693 11.387 6 22.855 6 36.5 0 1.145.579 4-1 4v3l1 8 10 7Z"/><path fill="#97D6F9" id="STR" d="m212 102 1 1-1-1ZM245 102l-1 1 1-1Z"/><path fill="#1B7E64" id="SSp-n6b" d="M121 103c-1.852 0-8 4.927-8 7 1.852 0 8-4.927 8-7Z"/><path fill="#97D6F9" id="STR" d="m217 104-1 1-1-2 2 1ZM240 104v1l2-2-2 1Z"/><path fill="#1B7E64" id="SSp-n6b" d="M365 136v1c-1.991 0-7.879-14.189-11.5-16L335 103c6.308 0 23.884 22.268 26 26.5l4 5.5v1Z"/><path fill="#8FCBEC" id="SF" fill-rule="evenodd" d="M219 107c0 2.767-5.56 9.379-3 14.5 1.221 2.442 21.951 1.775 24.5.5 2.508-1.254-.405-13.203-2-14-4.304-2.152-7.912 3.044-12 1-2.527-1.263-4.392-2-7.5-2m-11 26c1.009 0 5.343-2.421 6.5-3h28l5.5 3c0-4.938-1-9.431-1-14l-7-14v-1h-3l-1 1c-6.417 0-13.174-1-19-1l-1 1c0 5.188-7 9.586-7 14 3.763 0-1 11.833-1 14Z"/><path fill="#97D6F9" id="STR" d="m237 104-1 1 1-1Z"/><path fill="#1A7E62" id="SSs1" d="M34 174h5c0-11.052-.592-23.316 4-32.5v-5c2.736-5.472 10-22.813 10-28.5 0-1.712-2.571-3-4-3-1.503 0-4.942 14.383-6 16.5-7.575 15.15-9 34.293-9 52.5ZM418 174h5c0-17.773-2.529-38.558-10-53.5-1.099-2.198-3.161-15.5-6-15.5l-4 2v1c0 5.711 5.444 15.388 8 20.5 4.653 9.307 7 33.776 7 45.5Z"/><path fill="#96A7D2" id="TRS" d="M219 107c0 2.767-5.56 9.379-3 14.5 1.221 2.442 21.951 1.775 24.5.5 2.508-1.254-.405-13.203-2-14-4.304-2.152-7.912 3.044-12 1-2.527-1.263-4.392-2-7.5-2Z"/><path fill="#1B8063" id="SSs2/3" d="M39 174h7c0-8.871 5.462-35.424 9-42.5 2.143-4.287 7-12.757 7-17.5v-1c-3.889 0-4.691-5-8-5h-1c0 5.687-7.264 23.028-10 28.5v5c-4.592 9.184-4 21.448-4 32.5ZM418 174c-3.238 0-5.3 1-8 1 0-12.11-4.09-34.681-9-44.5-2.261-4.523-6-11.267-6-16.5 0-1.803 6.495-6 8-6 0 5.711 5.444 15.388 8 20.5 4.653 9.307 7 33.776 7 45.5Z"/><path fill="#1B7E64" id="SSp-n6b" d="M113 110c-2.473 0-6 3.527-6 6l6-6Z"/><path fill="#187C63" id="SSs4" d="M46 175h6c0-11.343 4.215-32.93 9-42.5 1.246-2.492 7-11.346 7-13.5v-1l-6-4c0 4.743-4.857 13.213-7 17.5-3.538 7.076-9 33.629-9 42.5v1ZM405 175h5c0-12.11-4.09-34.681-9-44.5-2.261-4.523-6-11.267-6-16.5h-1c0 2.047-5 2.168-5 5 0 5.191 5.703 12.905 8 17.5 4.219 8.439 7 28.33 7 38.5h1Z"/><path fill="#1B7E64" id="SSp-n6b" d="m105 120-4 2 6-6v2l-1 1-1 1Z"/><path fill="#CBC8CB" id="fi" d="m264 145 9.5 3c3.89 1.945 7.013-3 9.5-3l1-3v-2l-6-7.5c-4.627-4.627-11.843-8.671-17.5-11.5l-3.5-4c0 3.337-7.194 2-10 2 0 4.569 1 9.062 1 14 1.473 0 1 1.952 1 3 1.577 0 2 1.762 2 3 4.628 0 8.878 6 13 6Z"/><path fill="#C9C9CA" id="scwm" d="m107 118-1 1 1-1Z"/><path fill="#CBC8CB" id="fi" d="m194 144-1 1c-3.898 0-10.078 5.211-14.5 3l-5.5-4v-5l6-7.5c.52-1.039 14.663-9.581 16.5-10.5l3.5-3c2.69 0 6.675 1 10 1 3.763 0-1 11.833-1 14v2l-2 3-1 1-11 5Z"/><path fill="#1C8063" id="SSs5" d="M52 175h13c0-14.016 2.217-26.933 8-38.5.98-1.96 2.129-11.5 5-11.5v-1c-3.885 0-5.677-5-10-5 0 2.154-5.754 11.008-7 13.5-4.785 9.57-9 31.157-9 42.5Z"/><path fill="#C9C9CA" id="scwm" d="m106 119-1 1 1-1Z"/><path fill="#1C8063" id="SSs5" d="M392 175h12c0-10.17-2.781-30.061-7-38.5-2.297-4.595-8-12.309-8-17.5h-1c-3.963 0-5.331 6-9 6l6 13.5c3.949 7.899 7 26.708 7 36.5Z"/><path fill="#C9C9CA" id="scwm" d="M99 125v2c1.881 0 6-4.73 6-7l-4 2c0 1.238-.423 3-2 3Z"/><path fill="#1B7E64" id="SSp-n6b" d="M101 122c-1.577 0-2 1.762-2 3 1.577 0 2-1.762 2-3Z"/><path fill="#197D63" id="SSs6a" d="M65 175h13c0-9.616 4.896-21.292 9-29.5.821-1.642 1.379-8.5 4-8.5v-2l-13-10c-2.871 0-4.02 9.54-5 11.5-5.783 11.567-8 24.484-8 38.5Z"/><path fill="#1B7E64" id="SSp-n6b" d="M97 127h2v-2c-1.747 0-2 .253-2 2Z"/><path fill="#197D63" id="SSs6a" d="M379 175h13c0-9.792-3.051-28.601-7-36.5l-6-13.5c-5.245 0-9.543 10-14 10v1c2.621 0 3.179 6.858 4 8.5 3.624 7.247 10 22.314 10 30.5Z"/><path fill="#1B7E64" id="SSp-n6b" d="M97 127c-2.109 0-2 2.535-2 4l2-4Z"/><path fill="#C9C9CA" id="scwm" d="M95 131v2c1.617 0 4-4.583 4-6h-2l-2 4Z"/><path fill="#C8C9C9" id="vhc" d="M208 135c0 1.156 2.555 1.472 3.5 1 3.609-1.805 8.391-.195 12-2l25.5 2c0-1.048.473-3-1-3l-5.5-3h-28c-1.157.579-5.491 3-6.5 3v2Z"/><path fill="#1B7E64" id="SSp-n6b" d="m95 133-2 1c0-1.238.423-3 2-3v2Z"/><path fill="#C9C9CA" id="scwm" d="m91 137-2 7c1.823 0 6-9.17 6-11l-2 1-1 2-1 1Z"/><path fill="#1B7E64" id="SSp-n6b" d="M91 136h1l1-2-2 1v1Z"/><path fill="#1A8061" id="SSs6b" d="m92 136-1 1v-1h1Z"/><path fill="#A8A9AA" id="V3" d="M241 160h3l13-7 7-4v-4c-4.122 0-8.372-6-13-6-3.204 0-15-7.462-15 0 0 8.891-15 10.642-15 1-2.205 0-.002-3.251-1.5-4-3.969-1.985-9.708 2-13.5 2l-1 1-11 5-1 1v4l7 5 12 6h3c3.03 0 11.581 2.959 13.5 2 3.518-1.759 8.289-2 12.5-2Z"/><path fill="#1A8061" id="SSs6b" d="M377 175h2c0-8.186-6.376-23.253-10-30.5-.821-1.642-1.379-8.5-4-8.5v1l2 6v1l2 3v2c1.577 0 2 1.762 2 3v2l1 1v1l1 1 2 10v1l1 2v1l1 2v2ZM78 175h1l1-2v-2l1-2v-1l3-12 1-1v-2l1-1v-1l1-2v-1l1-1 1-2v-1l2-7c-2.621 0-3.179 6.858-4 8.5-4.104 8.208-9 19.884-9 29.5Z"/><path fill="#FF5347" id="SFO" d="M236 139c-4.313 0-7.617 1.942-11.5 0-.945-.472-3.5-.156-3.5 1 0 9.642 15 7.891 15-1Z"/><path fill="#97D6F9" id="STR" d="m173 150-2 1-3-1 3-2.5c.652-1.303.219-7.5 2-7.5v10ZM288 150l-3 1-1-1-1-5 1-3c2.064 0 .426 3.353 1 4.5l3 3.5Z"/><path fill="#C9C9CA" id="scwm" d="m367 144 2 3c-1.577 0-2-1.762-2-3ZM89 145l-1 2 1-2ZM88 147l-1 1 1-1Z"/><path fill="#97D6F9" id="STR" d="m166 153-5 1-5-6c0-2.176 9.275 2 11 2 0 1.048.473 3-1 3ZM296 153l-1 1-5-1-1-3c2.119 0 13-5.63 13-1-4.629 0-4.723 4-6 4ZM156 148l-2 1 2-1Z"/><path fill="#CCC" d="M167 189v1c1.921 0 3.03 12.559 4 14.5l.5 2.5.5-3.5c1.455-2.911 1-6.504 1-10 0-8.822-2.369-16.739-6-24v-6l-6-9.5-5-6-2 1-1 2v14c0 1.374 12 13.918 12 20l1 1v1l1 2ZM290 188c-1.473 0-1 1.952-1 3-2.91 0-1.145 12.822-3.5 14-2.253 1.127-1.139-2.777-1.5-3.5-1.562-3.124-1-7.259-1-11 0-6.022 3.444-12.889 6-18v-8c1.453-2.905 6-7.248 6-10.5l1-1c1.277 0 1.371-4 6-4l1 1 1 1v14c-3.619 0-13 17.74-13 21l-1 2Z"/><path fill="#C9C9CA" id="scwm" d="m87 149-1 2 1-2Z"/><path fill="#FD909E" id="AV" d="M189 174h6c1.811 0 4-3.438 4-5 0-6.084-3.049-9.598-6-15.5l-5-4.5c-2.072 0-11-.076-11 2 0 6.256 7 11.418 7 17l1 1v2l1 1 3 2Z"/><path fill="#FF6F80" id="TH" d="M215 209c2.25 0 3.376 2 5 2 0-2.467-3-5.49-3-10-13.988 0-10-10.369-10-20l-1.5 2-.5-7.5 2 .5v-3c-8.519 0-7-12.187-7-19l-7-5h-5l5 4.5c2.951 5.902 6 9.416 6 15.5 2.973 0 6.771 15.865 4.5 17l-4.5-1c-3.788 0-2.047 2.727-7.5 0-2.3-1.15-2.349-7-3.5-7h-1c0 4.945-3 9.115-3 12 1.041 0 5 .986 5 2l2.5-2c6.881-3.441 8.5 8.363 8.5 11 3.986 0 7.121 4.31 10.5 6 1.119.559 4.5.155 4.5 2ZM257 153v11c1.881 0 5.15-8.8 6-10.5l5-4.5h-4l-7 4Z"/><path fill="#FD909E" id="AV" d="M261 174h6c0-1.473 1.952-1 3-1v-1l1-2 1-1v-1l1-1c0-1.238.423-3 2-3v-1c0-1.238.423-3 2-3v-1c0-2.885 2-4.697 2-8 0-2.497-8.839-2-11-2l-5 4.5c-.85 1.7-4.119 10.5-6 10.5v6l4 4Z"/><path fill="#C9C9CA" id="scwm" d="M369 149c1.577 0 2 1.762 2 3l-2-3Z"/><path fill="#C8CBC7" id="st" d="m172 167 1 1c0-4.284 1-9.371 1-13l-1-1-2-3-3-1h-1c0 1.048.473 3-1 3 0 4.115 3 6.359 3 10 1.712 0 3 2.571 3 4Z"/><path fill="#CAC7CB" id="fiber tracts" d="M173 154h1l1-1-2-3-2 1 2 3ZM282 155h1l2-4-1-1-3 2 1 3Z"/><path fill="#C8CBC7" id="st" d="m285 165-2 4v-14l2-4 3-1h1l1 3c0 3.138-2 5.662-2 8l-1 1v1l-2 2Z"/><path fill="#97D6F9" id="STR" d="m303 150 1 1-1-1ZM149 165h4v-14c-.669 0-4 12.657-4 14Z"/><path fill="#FF6F80" id="TH" d="M185 169v2c-2.336 0-5.609-16-11-16v-1l1-1 2-2c0 6.256 7 11.418 7 17l1 1ZM282 155l-5 4c0-2.885 2-4.697 2-8l2 1 1 3Z"/><path fill="#C9C9CA" id="scwm" d="m86 152-1 1 1-1Z"/><path fill="#8599CC" id="PAL" d="M162 216c4.837 0 7 5.85 7 10 1.59 0 1.443-4.386 2-5.5l10-17.5c0-3.529 6-13.144 6-7l2-4c0-1.014-3.959-2-5-2-1.602 0-2.384 3.058-4.5 2-5.749-2.875-6.5-18.196-6.5-24l-1-1-3-4c0-3.641-3-5.885-3-10l-5 1 6 9.5v6c3.631 7.261 6 15.178 6 24 0 3.496.455 7.089-1 10l-.5 3.5-.5-2.5c-.97-1.941-2.079-14.5-4-14.5 0 6.233 2.89 14.719 0 20.5l-5 5.5Z"/><path fill="#CCC9C8" id="sm" d="M255 171c-1.03 0-2.671 1-6 1 0-2.115-2.443-10-5-10v-2l13-7v11c-1.175 0-2 5.704-2 7Z"/><path fill="#8599CC" id="PAL" d="M296 217c-4.458 0-9 1.634-9 8-1.59 0-1.443-4.386-2-5.5l-8-13c-.465-.93-.817-4.5-2-4.5 0-1.703-2.767-9-4.5-9l-1.5 3-2-5 5-1 4.5 2c6.086-3.043 6.5-16.968 6.5-23l2-4c1.747 0 2-.253 2-2v-1l1-1c0-2.338 2-4.862 2-8l5 1c0 3.252-4.547 7.595-6 10.5v8c-2.556 5.111-6 11.978-6 18 0 3.741-.562 7.876 1 11 .361.723-.753 4.627 1.5 3.5 2.355-1.178.59-14 3.5-14v17.5c.976 1.953 7 7.278 7 8.5ZM296 153l-1 1 1-1Z"/><path fill="#97D6F9" id="STR" d="M304 165h3c0-1.217-2.615-12-3-12v12Z"/><path fill="#B3C0DE" id="BST" d="M174 154v1l-1-1h1Z"/><path fill="#CCC9C8" id="sm" d="M207 171v2c-8.519 0-7-12.187-7-19l12 6v2c0 2.409-4 4.863-4 8l-1 1Z"/><path fill="#C9C9CA" id="scwm" d="m371 154 1 1-1-1ZM85 155l-1 1 1-1Z"/><path fill="#FD8F9F" id="RT" d="M187 178c0 4.945-3 9.115-3 12-1.602 0-2.384 3.058-4.5 2-5.749-2.875-6.5-18.196-6.5-24 0-4.284 1-9.371 1-13 5.391 0 8.664 16 11 16v1c0 1.424.362 5 2 5v1ZM271 173c0 2.984-3.528 6.443-2 9.5l3 7.5 4.5 2c6.086-3.043 6.5-16.968 6.5-23v-14h-1l-5 4v1c0 1.238-.423 3-2 3v1c0 1.238-.423 3-2 3v1c0 1.424-.362 5-2 5Z"/><path fill="#C9C9CA" id="scwm" d="m372 156 1 1-1-1Z"/><path fill="#FF6F80" id="TH" d="M212 162c2.05 0 1.468 1 3 1v-3h-3v2Z"/><path fill="#FE8F9E" id="PVT" d="M236 199h1c0-4.94-4.863-13.773-2-19.5 1.437-2.873 7-14.964 7-17.5l-1-2c-4.211 0-8.982.241-12.5 2-1.919.959-10.47-2-13.5-2v3l6 15.5c2.949 5.898-2 15.534-2 20.5h17Z"/><path fill="#FF6F80" id="TH" d="M242 162h2v-2h-3l1 2ZM277 160c-1.577 0-2 1.762-2 3 1.577 0 2-1.762 2-3Z"/><path fill="#FF909F" id="PT" d="m219 199-2 2c-13.988 0-10-10.369-10-20v-10l1-1c0-3.137 4-5.591 4-8 2.05 0 1.468 1 3 1l6 15.5c2.949 5.898-2 15.534-2 20.5Z"/><path fill="#B3C0DE" id="BST" d="m288 161-1 1 1-1Z"/><path fill="#FF909F" id="PT" d="M250 183c0 6.47.536 23.518-10.5 18l-2.5-2c0-4.94-4.863-13.773-2-19.5 1.437-2.873 7-14.964 7-17.5h2c2.557 0 5 7.885 5 10 0 1.406-.714 7 1 7v4Z"/><path fill="#B3C0DE" id="BST" d="M169 163c1.712 0 3 2.571 3 4l-3-4ZM287 163l-2 2c1.747 0 2-.253 2-2Z"/><path fill="#FF6F80" id="TH" d="m257 170-2 1c0-1.296.825-7 2-7v6ZM275 164c-1.577 0-2 1.762-2 3 1.577 0 2-1.762 2-3Z"/><path fill="#8598CC" id="GPe" d="M139 219c1.996 0 4.985 2 8 2 4.661 0 8.553-4 13-4l1-1h1l5-5.5c2.89-5.781 0-14.267 0-20.5v-1l-1-2v-1l-1-1c0-6.082-12-18.626-12-20h-4l-4.5 6c-8.451 4.225-6.5 30.897-6.5 41 1.714 0 1 5.594 1 7ZM317 220c-1.819 0-4.591 1-7 1l-14-4c0-1.222-6.024-6.547-7-8.5V191c1.473 0 1-1.952 1-3l1-2c0-3.26 9.381-21 13-21h3c2.115 0 5.248 5.996 6 7.5 5.693 11.387 6 22.855 6 36.5-1.579 0-1 2.855-1 4v3c-1.579 0-1 2.855-1 4Z"/><path fill="#B3C0DE" id="BST" d="M272 168h1v-1l-1 1ZM184 168l1 1-1-1Z"/><path fill="#FF6F80" id="TH" d="m270 172 1 1c1.638 0 2-3.576 2-5h-1v1l-1 1-1 2Z"/><path fill="#C9C7C9" id="ccb" d="m375 168 1 2-1-2ZM81 169l-1 2 1-2Z"/><path fill="#FD8D9F" id="AMd" d="M195 174c0 4.349 4 6.918 4 11l4.5 1c2.271-1.135-1.527-17-4.5-17 0 1.562-2.189 5-4 5Z"/><path fill="#B3C0DE" id="BST" d="m272 169-1 1 1-1Z"/><path fill="#FF6F80" id="TH" d="m208 170-1 1 1-1Z"/><path fill="#FD8D9F" id="AMd" d="M252 183c0 4.273 2.687 2 5 2 0-3.408 4-6.686 4-11l-4-4-2 1c0 .987-2.58 9-3 9v3Z"/><path fill="#B3C0DE" id="BST" d="M185 172h1l-1-1v1Z"/><path fill="#FF6F80" id="TH" d="M250 179c0-5.44 2-3.201 2 1 .42 0 3-8.013 3-9-1.03 0-2.671 1-6 1 0 1.406-.714 7 1 7Z"/><path fill="#C9C7C9" id="ccb" d="M376 173h1l-1-2v2Z"/><path fill="#FF6F80" id="TH" fill-rule="evenodd" d="M186 173c0 1.93 1.93 0 0 0m2 3-1 1c-1.638 0-2-3.576-2-5h1l3 2-1 2Z"/><path fill="#B3C0DE" id="BST" d="M270 173h1l-1-1v1Z"/><path fill="#C8CBCC" id="ec" d="M84 199h1l-4-10.5-1-15.5-1 2v10c.675 0 2 5.294 2 6l2 6 1 1v1Z"/><path fill="#B3C0DE" id="BST" d="M186 173c0 1.93 1.93 0 0 0Z"/><path fill="#FF6F80" id="TH" fill-rule="evenodd" d="M269 174c0 1.93 1.93 0 0 0m-27 35-5 1c0-2.048 4.314-4.872 3-7.5l-4-3.5h1l2.5 2c11.036 5.518 10.5-11.53 10.5-18h2c0 4.273 2.687 2 5 2l2.5 2 3.5-1.5c6.241-6.241 4-2.656 4-11.5 0-1.473 1.952-1 3-1h1c0 2.984-3.528 6.443-2 9.5l3 7.5-5 1c-7.507 0-11-.052-11 10-1.85 0-14 6.376-14 8Z"/><path fill="#C8CBCC" id="ec" d="M375 191h1l1-5v-13h-1l-1 18Z"/><path fill="#12AD83" id="VISC1" d="M43 199c-1.145 0-4-.579-4 1-3.57 0-5-21.489-5-26h5v11.5c1.516 3.032 4 9.117 4 12.5v1Z"/><path fill="#12AC83" id="VISC2/3" d="m55 196-12 2c0-3.383-2.484-9.468-4-12.5V174h7v1c0 5.285 2.466 20 8 20h1v1Z"/><path fill="#FC909D" id="AMv" d="M188 178c1.151 0 1.2 5.85 3.5 7 5.453 2.727 3.712 0 7.5 0 0-4.082-4-6.651-4-11h-6l-1 2v2ZM267 174c0 8.844 2.241 5.259-4 11.5l-3.5 1.5-2.5-2c0-3.408 4-6.686 4-11h6Z"/><path fill="#B3C0DE" id="BST" d="M269 174c0 1.93 1.93 0 0 0Z"/><path fill="#12AC83" id="VISC2/3" d="M405 196c0 1.891 5.271 1 5.5 1l2.5 2c0-6.115 5-15.475 5-25-3.238 0-5.3 1-8 1 0 8.013-5 13.871-5 21Z"/><path fill="#12AD83" id="VISC1" d="m413 199 5 1 3-7.5 2-18.5h-5c0 9.525-5 18.885-5 25Z"/><path fill="#11AC82" id="VISC4" d="M52 175c0 7.089 2 14.55 2 20-5.534 0-8-14.715-8-20h6Z"/><path fill="#12AD82" id="VISC5" d="M55 195h3l8-5c0-4.635-1-9.828-1-15H52c0 7.089 2 14.55 2 20h1Z"/><path fill="#11AC83" id="VISC6a" d="m78 186-12 4c0-4.635-1-9.828-1-15h13v11Z"/><path fill="#11AD82" id="VISC6b" d="M78 185h1v-10h-1v10Z"/><path fill="#FC8E9F" id="IAD" d="m207 176-2-.5.5 7.5 1.5-2v-5ZM250 183h2v-3c0-4.201-2-6.44-2-1v4Z"/><path fill="#11AD82" id="VISC6b" d="M377 186h1l1-11h-2v11Z"/><path fill="#11AC83" id="VISC6a" d="M378 186c4.236 0 8.12 4 12 4 0-4.664 2-9.63 2-15h-13l-1 11Z"/><path fill="#12AD82" id="VISC5" d="M401 196h1v-1l3-8.5V175h-13c0 5.37-2 10.336-2 15 1.472 0 9 3.803 9 5l2 1Z"/><path fill="#11AC82" id="VISC4" d="M404 196h1c0-7.129 5-12.987 5-21h-5v11.5l-3 8.5 2 1Z"/><path fill="#B3C0DE" id="BST" d="M187 178h1v-2l-1 1v1Z"/><path fill="#019C74" id="GU6b" d="M79 191h2c0-.706-1.325-6-2-6h-1v1l1 5Z"/><path fill="#8599CC" id="PAL" d="m165 185 1 1-1-1Z"/><path fill="#009B74" id="GU6a" d="M77 193c-3.013 0-6.612 1-9 1l-2-4 12-4 1 5-1 1-1 1Z"/><path fill="#8599CC" id="PAL" d="m291 186-1 2 1-2Z"/><path fill="#019C74" id="GU6b" d="M376 191h1l1-5h-1l-1 5Z"/><path fill="#009B74" id="GU6a" d="M388 194h1l1-4c-3.88 0-7.764-4-12-4l-1 5 1 1 10 2Z"/><path fill="#8599CC" id="PAL" d="m166 187 1 2-1-2ZM290 188c-1.473 0-1 1.952-1 3 1.473 0 1-1.952 1-3Z"/><path fill="#019C75" id="GU5" d="m68 194-10 1 8-5 2 4Z"/><path fill="#CCC9C8" id="sm" d="M194 203h2c1.465 0 4 .109 4-2 0-2.637-1.619-14.441-8.5-11l-2.5 2-2 4v1l5 5h1l1 1ZM261 203h1l2-1 1-1h1l1-1 1-1 1-1v-2l-2-5c-7.507 0-11-.052-11 10 0 2.461 3.378 2 5 2Z"/><path fill="#019C75" id="GU5" d="m389 194 10 1c0-1.197-7.528-5-9-5l-1 4Z"/><path fill="#8ADA86" id="CLA" d="M83 206h1l1-4v-2l-1-1v-1l-1-1-2-6h-2l-1 1-1 1c0 5.045-.41 13 6 13Z"/><path fill="#C8CBCC" id="ec" d="M373 195h1l1-3v-1l-2 4Z"/><path fill="#219666" id="AIp6b" d="m376 191-1 1v-1h1Z"/><path fill="#8ADA86" id="CLA" d="M371 201v2c0 4.73 6.344 2.813 8-.5 1.489-2.977-1-8.046-1-10.5l-1-1h-1l-1 1-1 3-1 1v2l-1 1v1l-1 1Z"/><path fill="#209766" id="AIp6a" d="m78 192-1 1 1-1ZM379 213h1c0-6.691 8-12.07 8-19l-10-2c0 2.454 2.489 7.523 1 10.5-1.656 3.313-8 5.23-8 .5h-1l-1 2v2c5.043 0 9 .446 9 6h1ZM77 213h1c0-3.602 5-5.209 5-7-6.41 0-6-7.955-6-13-3.013 0-6.612 1-9 1 0 6.629 9 12.804 9 19Z"/><path fill="#B3C0DE" id="BST" d="M185 225v2l4.5 6c1.187.594 2.716.358 4 1 3.685 1.842 12.589-7.323 10.5-11.5l-5-8v-4c-1.82-3.64-10-5.142-10-10.5l-2-3v-1c0-6.144-6 3.471-6 7l-1 12.5 3 6.5v1l2 2ZM271 226v1c-1.725 0-4.376 7-8.5 7-4.699 0-12.402-6.695-9.5-12.5l4-6v-5c1.843-3.686 9-3.416 9-9.5l1-1 1-1 1-1v-2l1.5-3c1.733 0 4.5 7.297 4.5 9 0 3.824 3.045 11.409 1 15.5l-2 4.5-1 1v1l-1 1-1 1Z"/><path fill="#219864" id="AIp5" d="m77 213-7 3c0-1.116-15-14.074-15-20v-1h3l10-1c0 6.629 9 12.804 9 19ZM380 213l6 3c3.236 0 15-15.968 15-20l-2-1-10-1h-1c0 6.93-8 12.309-8 19Z"/><path fill="#209766" id="AIp6a" d="m374 195-1 1v-1h1Z"/><path fill="#12AC83" id="VISC2/3" d="M402 196h2l-2-1v1Z"/><path fill="#209865" id="AIp2/3" d="M70 216c0 1.449-9.275 4-11 4 0-3.668-6.255-5.01-8-8.5L43 199v-1l12-2c0 5.926 15 18.884 15 20Z"/><path fill="#C8CBCC" id="ec" d="M372 198h1v-2l-1 2Z"/><path fill="#209865" id="AIp2/3" d="M386 216c0 1.14 9.467 4 11 4 0-3.015 16-14.954 16-21l-2.5-2c-.229 0-5.5.891-5.5-1h-4c0 4.032-11.764 20-15 20Z"/><path fill="#209766" id="AIp6a" d="m83 197 1 1-1-1Z"/><path fill="#8599CC" id="PAL" d="m189 200 3 2-5-5 2 3ZM269 198l-1 1 1-1Z"/><path fill="#C8CBCC" id="ec" d="M371 200h1v-2l-1 2Z"/><path fill="#209766" id="AIp6a" d="m373 198-1 1v-1h1Z"/><path fill="#219765" id="AIp1" d="m59 220-4 2c-2.636 0-16-18.527-16-22 0-1.579 2.855-1 4-1l8 12.5c1.745 3.49 8 4.832 8 8.5Z"/><path fill="#209766" id="AIp6a" d="M85 199v1l-1-1h1Z"/><path fill="#FF6F80" id="TH" d="M220 199c0 1.577-1.762 2-3 2l2-2h1Z"/><path fill="#FD909F" id="RE" d="M230 211h6l1-1c0-2.048 4.314-4.872 3-7.5l-4-3.5h-7c0 2.488-2 1.919-2 0h-7c0 1.577-1.762 2-3 2 0 4.51 3 7.533 3 10h7l1-2c0-3.246 1-3.246 1 0l1 2Z"/><path fill="#FF6F80" id="TH" d="M227 199h2c0 2.488-2 1.919-2 0Z"/><path fill="#E64438" id="HY" d="m268 199-1 1 1-1Z"/><path fill="#219765" id="AIp1" d="m397 220 4 2c3.013 0 17-19.294 17-22l-5-1c0 6.046-16 17.985-16 21Z"/><path fill="#C8CBCC" id="ec" d="m85 202 2 2-2-4v2Z"/><path fill="#E64438" id="HY" d="m225 232-1 4c-.73 0-3.551-6.026-5.5-7-2.366-1.183-11.5-1.498-11.5 3-4.103 0-3.973 3.736-6.5 5l-10 1-.5 5c-2.144 0-.381-4.262-1-5.5l-4-10.5 4.5 6c1.187.594 2.716.358 4 1 3.685 1.842 12.589-7.323 10.5-11.5l-5-8v-4c-1.82-3.64-10-5.142-10-10.5l3 2h1l1 1h2c0 2.264 8-.507 8 4 0 2.348-4.602 4.296-3 7.5 1.767 3.534 8.034 6.932 11 1l-1-6.5h4c2.25 0 3.376 2 5 2h7l1 4h-1c0-2.42-10.981-3.538-12-1.5-1.7 3.399 7.648 18.5 10 18.5Z"/><path fill="#8599CC" id="PAL" d="m267 200-1 1 1-1Z"/><path fill="#209766" id="AIp6a" d="m372 200-1 1v-1h1Z"/><path fill="#CAC7CB" id="fiber tracts" d="M211 209h4c0-1.845-3.381-1.441-4.5-2-3.379-1.69-6.514-6-10.5-6 0 2.109-2.535 2-4 2 0 2.264 8-.507 8 4l7 2ZM242 209h4l7-2c0-4.527 8-1.651 8-4-1.622 0-5 .461-5-2-1.85 0-14 6.376-14 8Z"/><path fill="#8599CC" id="PAL" d="m265 201-1 1 1-1Z"/><path fill="#E64438" id="HY" d="M241 251c0 2.583-2 3.934-2 7-2.716 0-2.364-9-7-9 0-5.587-1-12.081-1-17 3.622 0 11.675-15.15 10-18.5l-12-.5 1-2h6l1-1 5-1h4c0 1.984-3.278 3.945-2 6.5 2.277 4.555 9.259 3.482 11 0 1.646-3.292-2-5.883-2-8.5 0-4.527 8-1.651 8-4h1l2-1 1-1h1c0 6.084-7.157 5.814-9 9.5v5l-4 6c-2.902 5.805 4.801 12.5 9.5 12.5 4.124 0 6.775-7 8.5-7 0 1.588-3.136 12-4 12-6.963 0-14.869-7-18-7 0-4.703-9-4.25-11.5-3-8.375 4.187-6.503 22 3.5 22Z"/><path fill="#C8CBCC" id="ec" d="M370 203h1v-2l-1 2Z"/><path fill="#209766" id="AIp6a" d="M84 206h3v-2l-2-2-1 4Z"/><path fill="#8599CC" id="PAL" d="m193 202 1 1-1-1ZM264 202l-2 1 2-1Z"/><path fill="#E64438" id="HY" d="M287 225v2l-6.5-6c-3.739-1.87-3.444 1-6.5 1l2-4.5c2.045-4.091-1-11.676-1-15.5 1.183 0 1.535 3.57 2 4.5l8 13c.557 1.114.41 5.5 2 5.5ZM169 226v2l6.5-7c3.789-1.894 4.226 1 7.5 1l-3-6.5 1-12.5-10 17.5c-.557 1.114-.41 5.5-2 5.5Z"/><path fill="#C8CBCC" id="ec" d="m370 203-1 2 1-2ZM114 237h1c0-3.232-5-.827-5-3h-1l-1-1c-7.019 0-14.174-14.848-17-20.5-.819-1.637-1.175-7.5-4-7.5v1l10 20 8 9h1l2 2h6ZM369 207l-2 2 2-4v2Z"/><path fill="#A0EE9C" id="EPd" fill-rule="evenodd" d="M86 224c0 1.93 1.93 0 0 0m12 6-2 2c-4.182 0-6.8-6-10-6h-1l-1-1-1-1-1-2v-1l2.5 3c2.287 0-3.353-5.206-3.5-5.5l-3-5.5c0-3.602 5-5.209 5-7h4l10 20 1 4Z"/><path fill="#FF6F80" id="TH" d="M228 209h1c0-3.246-1-3.246-1 0Z"/><path fill="#A0EE9C" id="EPd" d="m365 231-4 1-2-1v-4l2-5 2-4c1.638 0 2-3.576 2-5 2.109 0 2-2.535 2-4l2-2c5.043 0 9 .446 9 6 0 .716-2.373 3 0 3l-1 1c0-2.605-3.889 2-1 2v1l-1 1c0-4.451-3.402 1-1 1v1h-1v1h-1v1h-1v1l-1 1-1 1-1 1h-1l-1 1-1 1Z"/><path fill="#C7C8CA" id="fx" d="m204 207 7 2 1 6.5c-2.966 5.932-9.233 2.534-11-1-1.602-3.204 3-5.152 3-7.5ZM253 207l-7 2c0 1.984-3.278 3.945-2 6.5 2.277 4.555 9.259 3.482 11 0 1.646-3.292-2-5.883-2-8.5Z"/><path fill="#97D6F9" id="STR" d="M319 209c-1.579 0-1 2.855-1 4 1.579 0 1-2.855 1-4Z"/><path fill="#C8CBCC" id="ec" d="m367 209-2 4c2.109 0 2-2.535 2-4Z"/><path fill="#FF6F80" id="TH" d="m237 210-1 1 1-1Z"/><path fill="#97D6F9" id="STR" d="M145 245v1l-4.5-3c-3.349-1.675-6.241 2-8.5 2 0-2.735 3.796-6.092 5-8.5l1-13.5v-11c1.714 0 1 5.594 1 7 0 .969 1.147 7 2 7 0 3.814-1.722 19 4 19Z"/><path fill="#6ACAB9" id="PIR" d="M105 296h1c4.56 0 13-19.858 13-24 0-2.833-2-4.84-2-7v-1l-1-1-1-1-1-1c-1.146 0-14.415-16.329-16-19.5l-4-5.5-9-10-1-1-1-1-1-2-1-1-1-1-2-5-1-2-7 3c0 1.449-9.275 4-11 4l-4 2c0 4.852 11.79 16.08 14 20.5 4.709 9.417 17.148 42.324 25.5 46.5 3.052 1.526 5.883 7 10.5 7Z"/><path fill="#C9C8CA" id="ee" d="M81 221h1l2.5 3c2.287 0-3.353-5.206-3.5-5.5l-3-5.5h-1l1 2 3 5v1Z"/><path fill="#FF5D4F" id="PVH" d="M225 232h2v-17c0-2.42-10.981-3.538-12-1.5-1.7 3.399 7.648 18.5 10 18.5ZM229 232h2c3.622 0 11.675-15.15 10-18.5l-12-.5v19Z"/><path fill="#C8CBCC" id="ec" d="M365 213c-1.638 0-2 3.576-2 5 1.638 0 2-3.576 2-5Z"/><path fill="#C9C8CA" id="ee" d="m379 213-1 3c-2.373 0 0-2.284 0-3h1Z"/><path fill="#6ACAB9" id="PIR" d="M350 296h2c5.67 0 12.636-8.772 15-13.5 6.906-13.813 14.141-27.282 21-41 3.081-6.161 13-13.211 13-19.5l-4-2c-1.533 0-11-2.86-11-4l-6-3h-1l-1 3-1 1v2l-1 1-1 1v1l-1 1-1 1-1 1-1 1-1 1-1 1v1c0 1.702-4.802 6-6 6v1l-16 20.5-5 4.5-1 2-1 1-1 1c0 2.882-1 5.469-1 8 0 4.048 7.926 23 12 23Z"/><path fill="#A0EE9C" id="EPd" d="M80 220h1l-3-5 2 5Z"/><path fill="#A8A9AA" id="V3" d="M227 232c0 5.554 2 6.953 2 0v-17h-2v17Z"/><path fill="#8599CC" id="PAL" d="m161 216-1 1 1-1Z"/><path fill="#A2B1D7" id="SI" d="M152 246c2.967 0 4.861 1 7 1 3.715 0 5.378-4 8-4v-4c0-1.145-.579-4 1-4v-2c0-1.048-.473-3 1-3v-4c0-4.15-2.163-10-7-10h-1l-1 1c-4.447 0-8.339 4-13 4l-6 5c0 3.814-1.722 19 4 19 1.819 0 4.591 1 7 1ZM305 246c-3.079 0-4.921 1-8 1-2.971 0-4.768-3-7-3 0-1.048.473-3-1-3v-5c0-1.145.579-4-1-4v-2l-1-1v-4c0-6.366 4.542-8 9-8l14 4c0 1.692 5 2.921 5 6 0 2.421 2.411 6.678 1 9.5l-3 7.5-1 1-7 1Z"/><path fill="#97D6F9" id="STR" d="M329 257h1l1-1 6-7c-14.734 0-18-12.386-18-25l-1-8c-1.579 0-1 2.855-1 4 0 1.296-.825 7-2 7 0 2.421 2.411 6.678 1 9.5l-3 7.5v1l3.5-2c8.217-4.108 12.5 8.56 12.5 14Z"/><path fill="#C9C8CA" id="ee" d="m377 218-1 1c-2.889 0 1-4.605 1-2v1Z"/><path fill="#C8CBCC" id="ec" d="M363 218c-2.109 0-2 2.535-2 4l2-4Z"/><path fill="#A0EE9C" id="EPd" d="M376 219h1v-1l-1 1Z"/><path fill="#8599CC" id="PAL" d="m147 221-6 5c-.853 0-2-6.031-2-7 1.996 0 4.985 2 8 2Z"/><path fill="#C9C8CA" id="ee" d="m375 221-1 1c-2.402 0 1-5.451 1-1Z"/><path fill="#99D2BD" id="OLF" d="m377 219-1 1v-1h1ZM81 220v1l-1-1h1Z"/><path fill="#F2473B" id="LPO" d="m177 263 1 1c11.499 0 13-.529 13-14v-2c-1.579 0-1-2.855-1-4v-1c-2.144 0-.381-4.262-1-5.5l-4-10.5v-2l-2-2v-1c-3.274 0-3.711-2.894-7.5-1l-6.5 7v2c0 1.048.473 3-1 3v2c0 1.145.579 4-1 4v8c2.357 0 1.264 6.029 2 7.5l6 7.5 1 1h1ZM281 263l-4 2c-9.096 0-12-5.416-12-14v-1c1.473 0 1-1.952 1-3v-2l1-2v-4c.864 0 4-10.412 4-12v-1l1-1 1-1v-1l1-1c3.056 0 2.761-2.87 6.5-1l6.5 6v2l1 1v2c0 1.145-.579 4 1 4v5c0 9.232-6 17.713-6 20l-2 2Z"/><path fill="#8599CC" id="PAL" d="M310 221c0 1.692 5 2.921 5 6 1.175 0 2-5.704 2-7-1.819 0-4.591 1-7 1Z"/><path fill="#8AD987" id="CTXsp" d="M82 221v1l-1-1h1Z"/><path fill="#A0EE9C" id="EPd" d="M374 222h1v-1l-1 1Z"/><path fill="#E64438" id="HY" d="m274 222-1 1 1-1Z"/><path fill="#C8CBCC" id="ec" d="M357 227h2l2-5c-1.811 0-4 3.438-4 5Z"/><path fill="#99D2BD" id="OLF" d="m375 222-1 1v-1h1Z"/><path fill="#7ECDF8" id="FS" d="M131 246c-3.054 0-6.974 3-12 3-1.562 0-5-2.189-5-4 0-2.483-2-4.026-2-6l2-2h1c0 3.658 10 8.284 10 5 2.747 0 5.406-3.689 4-6.5l-4-2 1-1.5 1-1 11-8-1 13.5c-1.204 2.408-5 5.765-5 8.5l-1 1Z"/><path fill="#E64438" id="HY" d="m183 223 2 2-2-2Z"/><path fill="#99D2BD" id="OLF" d="m374 223-1 1v-1h1ZM83 224l1 1-1-1Z"/><path fill="#C9C8CA" id="ee" d="M86 224c0 1.93 1.93 0 0 0Z"/><path fill="#E64438" id="HY" d="m273 224-1 1 1-1Z"/><path fill="#7ECDF8" id="FS" d="m341 248-4 1c-14.734 0-18-12.386-18-25l10 7 2 2.5c0 2.564-5.509 1.983-3 7 1.096 2.191 10 4.51 10 .5l1-1 3-3h1l2 2v1c-2.109 0-2 2.535-2 4l-1 1v2l-1 1Z"/><path fill="#99D2BD" id="OLF" d="m373 224-1 1v-1h1Z"/><path fill="#E64438" id="HY" d="m272 225-1 1 1-1Z"/><path fill="#99D2BD" id="OLF" d="m372 225-1 1v-1h1ZM94 235v1l-9-10h1l8 9Z"/><path fill="#8AD987" id="CTXsp" d="m96 232-2 3-8-9c3.2 0 5.818 6 10 6ZM105 235v1c-2.676 0-3.219-6-7-6l-1-4 8 9ZM371 226l-1 1 1-1Z"/><path fill="#C8CBCC" id="ec" d="M346 237h2l1-1 1-1h1l4-4 1-1 1-3c-3.612 0-6.605 7-11 7l-4 3h4Z"/><path fill="#8AD987" id="CTXsp" d="m356 230 3 1v-4h-2l-1 3Z"/><path fill="#99D2BD" id="OLF" d="m370 227-1 1 1-1Z"/><path fill="#FD4C3E" id="MPN" d="M223 249c-2.709 0-4.646 2-8 2l-6-3c0-1.947-3-2.636-3-5l1-11c0-4.498 9.134-4.183 11.5-3 1.949.974 4.77 7 5.5 7v8c-1.643 0-1 3.765-1 5ZM249 247l-8 4c-10.003 0-11.875-17.813-3.5-22 2.5-1.25 11.5-1.703 11.5 3l2 11-2 4Z"/><path fill="#8AD987" id="CTXsp" d="M368 229h1v-1l-1 1Z"/><path fill="#E64438" id="HY" d="m287 229 1 1-1-1Z"/><path fill="#8AD987" id="CTXsp" d="m367 229-1 1 1-1Z"/><path fill="#99D2BD" id="OLF" d="m365 231-2 4c1.198 0 6-4.298 6-6h-2l-1 1-1 1Z"/><path fill="#A0ED9D" id="EPv" d="M114 261h1c0-3.764 3.214-6.073 1-10.5l-7-9.5c-2.47 0-4-2.997-4-5-2.676 0-3.219-6-7-6l-2 2-2 3v1l4 5.5c1.585 3.171 14.854 19.5 16 19.5Z"/><path fill="#E64438" id="HY" d="M169 230c-1.473 0-1 1.952-1 3 1.473 0 1-1.952 1-3Z"/><path fill="#8AD987" id="CTXsp" d="m356 230-1 1 1-1Z"/><path fill="#A0ED9D" id="EPv" d="m341 248-1 10.5 2 2.5 5-4.5 16-20.5-1-1-1-3-2-1-3-1-1 1c0 1.238-1.923 5-3 5 0 2.101-2.831 5-5 5 0 1.747-.253 2-2 2 0 1.747-.253 2-2 2l-1 2-1 1Z"/><path fill="#8AD987" id="CTXsp" d="m366 230-1 1 1-1Z"/><path fill="#97D6F9" id="STR" d="m127 231-1 1 1-1ZM339 240c0-11.033-15.658-2.079-7.5 2l6.5-1c0 4.01-8.904 1.691-10-.5-2.509-5.017 3-4.436 3-7l-2-2.5c5.166 0 10.796 3 17 3l-4 3-3 3Z"/><path fill="#8AD987" id="CTXsp" d="m351 235 1 1c1.077 0 3-3.762 3-5l-4 4ZM362 235h1l2-4-4 1 1 3Z"/><path fill="#97D6F9" id="STR" fill-rule="evenodd" d="M125 242c0-1.791 3.27-2.959 2-5.5-2.471-4.943-15.795.853-6.5 5.5h4.5m-10-5c0 3.658 10 8.284 10 5 2.747 0 5.406-3.689 4-6.5l-4-2 1-1.5c-5.163 0-10.237 2-16 2 0 2.173 5-.232 5 3Z"/><path fill="#FF5346" id="MPO" d="M191 248v2c4.198 0 6.073-3 10-3l5-4 1-11c-4.103 0-3.973 3.736-6.5 5l-10 1-.5 5v1c1.579 0 1 2.855 1 4Z"/><path fill="#FE5547" id="PVpo" d="M229 274v1c2.461 0 2-3.378 2-5 0-6.597 1-13.851 1-21 0-5.587-1-12.081-1-17h-2c0 6.953-2 5.554-2 0h-2l-1 4v13c0 7.022 1 13.705 1 21 0 1.465-.109 4 2 4l1-2 .5-27 .5 27v2Z"/><path fill="#FF5346" id="MPO" d="M265 250v1c-2.86 0-14-5.506-14-8l-2-11c3.131 0 11.037 7 18 7v4l-1 2v2c-1.473 0-1 1.952-1 3Z"/><path fill="#E64438" id="HY" d="M288 232c1.579 0 1 2.855 1 4-1.579 0-1-2.855-1-4Z"/><path fill="#97D6F9" id="STR" d="m108 233 1 1-1-1Z"/><path fill="#80BEE2" id="IA" d="M109 237v4c-2.47 0-4-2.997-4-5v-1h1l2 2h1Z"/><path fill="#8AD987" id="CTXsp" d="m106 235 2 2-2-2Z"/><path fill="#C9C9C9" id="act" d="M125 242c0-1.791 3.27-2.959 2-5.5-2.471-4.943-15.795.853-6.5 5.5h4.5Z"/><path fill="#E64438" id="HY" d="M168 235c-1.579 0-1 2.855-1 4 1.579 0 1-2.855 1-4Z"/><path fill="#C9C9C9" id="act" d="m339 240-1 1-6.5 1c-8.158-4.079 7.5-13.033 7.5-2Z"/><path fill="#8AD987" id="CTXsp" d="m350 235-1 1 1-1Z"/><path fill="#80BEE2" id="IA" d="m348 237-1 4c2.169 0 5-2.899 5-5l-1-1h-1l-1 1-1 1Z"/><path fill="#99D2BD" id="OLF" d="M363 235v1l-1-1h1Z"/><path fill="#8AD987" id="CTXsp" d="m349 236-1 1 1-1ZM117 265c2.518 0 2.334 3 5 3 0-3.147-3.819-12 3-12 0-3.156-6-4.655-6-7-1.562 0-5-2.189-5-4-1.664 0-4-6.48-4-8h-1v4l7 9.5c2.214 4.427-1 6.736-1 10.5v1l1 1 1 1v1Z"/><path fill="#97D6F9" id="STR" d="m114 237-2 2c0 1.974 2 3.517 2 6-1.664 0-4-6.48-4-8h4ZM346 237l-1 2-2-2h3Z"/><path fill="#8AD987" id="CTXsp" d="M347 241c0 1.747-.253 2-2 2v-4l1-2h2l-1 4Z"/><path fill="#97D6F9" id="STR" d="m339 240-1 1 1-1ZM345 243l-2 1c0-1.465-.109-4 2-4v3Z"/><path fill="#E64438" id="HY" d="m287 259-4 2c0-2.287 6-10.768 6-20 1.473 0 1 1.952 1 3l-1 9-2 5v1Z"/><path fill="#80C0E2" id="AAA" d="m151 273 5 1c3.982 0 8.05-2 11-2v-3l-2-4c-1.238 0-3-.423-3-2h-1l-1-1c-1.663 0-11-9.902-11-12l-4-4-4.5-3c-3.349-1.675-6.241 2-8.5 2l-1 1c0 3.299-4 6.485-4 11l9 8 2 2h2l1 1 8 4 2 1Z"/><path fill="#8599CC" id="PAL" d="M167 247v6c-1.528 0-8-4.54-8-6 3.715 0 5.378-4 8-4v4Z"/><path fill="#E64438" id="HY" d="M201 247c2.707 0 5.903 1 8 1 0-1.947-3-2.636-3-5l-5 4ZM258 277h1c0-1.473 1.952-1 3-1h2l-2-1.5c0-3.373 11.434-5.5 14-5.5l1-4c-9.096 0-12-5.416-12-14-2.86 0-14-5.506-14-8l-2 4c12.057 0 19.64 17.93 11.5 22-4.064 2.032-11.25 6.875-17 4l-2.5-2-1 1c2.478 0 1 5.215 1 6 5.22 0 11.211-1 17-1ZM267 243l-1 2 1-2Z"/><path fill="#80C0E2" id="AAA" d="M306 273h1l1-1 1-1 9-4c0-1.577 1.762-2 3-2 0-3.753 8-3.91 8-8 0-5.44-4.283-18.108-12.5-14l-3.5 2h-1l-5 5c0 1.256-7.75 11-9 11l-1 1-1 1h-2c0 1.577-1.762 2-3 2l-2 4v2l3.5 3h8.5l5-1Z"/><path fill="#8AD987" id="CTXsp" d="M343 244v1c1.747 0 2-.253 2-2l-2 1Z"/><path fill="#E64438" id="HY" d="M190 244c1.579 0 1 2.855 1 4-1.579 0-1-2.855-1-4ZM223 249h1v-5c-1.643 0-1 3.765-1 5Z"/><path fill="#8599CC" id="PAL" d="M297 247c0 1.89-6.374 6-8 6l1-9c2.232 0 4.029 3 7 3ZM312 245h1v-1l-1 1Z"/><path fill="#97D6F9" id="STR" d="M342 245h1v-1l-1 1Z"/><path fill="#8599CC" id="PAL" d="m152 246-3 4-4-4v-1c1.819 0 4.591 1 7 1Z"/><path fill="#A2B1D8" id="MA" d="M162 263h3l1-1 1-1 1-1 1-1c0-3.334-2-3.561-2-6-1.528 0-8-4.54-8-6-2.139 0-4.033-1-7-1l-3 4c0 2.098 9.337 12 11 12l1 1h1Z"/><path fill="#A8A9AA" id="V3" d="M228 272h1l-.5-27-.5 27Z"/><path fill="#A2B1D8" id="MA" d="M294 263h2l1-1 1-1c1.25 0 9-9.744 9-11l-2-4c-3.079 0-4.921 1-8 1 0 1.89-6.374 6-8 6l-2 5c2.588 0 2.992 5 7 5Z"/><path fill="#8599CC" id="PAL" d="m305 246 2 4 5-5-7 1Z"/><path fill="#8AD987" id="CTXsp" d="m343 245-1 2v-2h1Z"/><path fill="#97D6F9" id="STR" d="m125 256 2 1c0-4.515 4-7.701 4-11-3.054 0-6.974 3-12 3 0 2.345 6 3.844 6 7Z"/><path fill="#E64438" id="HY" d="M198 277c5.675 0 11.954 1 17 1 0-2.124 1-4.436 1-6v-2l-3.5 3c-8.041 4.021-24.27-5.96-19.5-15.5l4-7 4-3.5c-3.927 0-5.802 3-10 3 0 13.471-1.501 14-13 14l-1-1h-1l-1-1-6-7.5c-.736-1.471.357-7.5-2-7.5v6c0 2.439 2 2.666 2 6 2.56 0 12 7.511 12 10 2.26 0 13 2.28 13 5.5l-2 1.5h2c1.048 0 3-.473 3 1h1Z"/><path fill="#FF4B3E" id="AHN" d="m217 260-1 10-3.5 3c-8.041 4.021-24.27-5.96-19.5-15.5l4-7 4-3.5c2.707 0 5.903 1 8 1l6 3c0 1.477 2 5.699 2 9ZM239 258l2 13 2.5 2c5.75 2.875 12.936-1.968 17-4 8.14-4.07.557-22-11.5-22l-8 4c0 2.583-2 3.934-2 7Z"/><path fill="#E64438" id="HY" d="M266 247c-1.473 0-1 1.952-1 3 1.473 0 1-1.952 1-3Z"/><path fill="#8AD987" id="CTXsp" d="m342 247-1 1 1-1ZM339 265l-4 2c0-4.006 3.111-11-4-11l6-7 4-1-1 10.5 2 2.5-1 2-1 1-1 1Z"/><path fill="#E64438" id="HY" d="M215 251c0 1.477 2 5.699 2 9 1.59 0 1.443-4.386 2-5.5l4-5.5c-2.709 0-4.646 2-8 2Z"/><path fill="#FD5547" id="SBPV" d="M225 270c-1.602 0-2.384-3.058-4.5-2l-4.5 4v-2l1-10c1.59 0 1.443-4.386 2-5.5l4-5.5h1c0 7.022 1 13.705 1 21ZM241 271l-1 1-3.5-4c-2.541-1.27-3.709 2-5.5 2 0-6.597 1-13.851 1-21 4.636 0 4.284 9 7 9l2 13Z"/><path fill="#84EA80" id="BMAa" d="m135 269-6 1c-2.765 0-5.165-2-7-2 0-3.147-3.819-12 3-12l2 1 9 8v2l-1 2Z"/><path fill="#8AD987" id="CTXsp" d="m331 256-1 1 1-1Z"/><path fill="#84EA80" id="BMAa" d="m322 269 6 1c1.623 0 6-.005 6-2l1-1c0-4.006 3.111-11-4-11l-1 1h-1c0 4.09-8 4.247-8 8v2l1 2Z"/><path fill="#8599CC" id="PAL" d="M294 263c0 1.577-1.762 2-3 2 0-2.773-4-3.67-4-6v-1c2.588 0 2.992 5 7 5ZM169 259l-1 1 1-1Z"/><path fill="#96A6D3" id="NDB" d="m179 270-2 1-10-2-2-4v-2l1-1 1-1 1-1 1-1c2.56 0 12 7.511 12 10h-1l-1 1ZM277 270l2 1 10-2 2-4c0-2.773-4-3.67-4-6l-4 2c0 1.747-.253 2-2 2 0 2.109-2.535 2-4 2l-1 4 1 1Z"/><path fill="#8599CC" id="PAL" d="m168 260-1 1 1-1Z"/><path fill="#99D2BD" id="OLF" d="M115 261v1l-1-1h1Z"/><path fill="#8599CC" id="PAL" d="m167 261-1 1 1-1Z"/><path fill="#E64438" id="HY" d="m283 261-2 2c1.747 0 2-.253 2-2Z"/><path fill="#8599CC" id="PAL" d="m298 261-1 1 1-1ZM160 262l1 1-1-1ZM166 262l-1 1 1-1Z"/><path fill="#CBCCCB" id="mfb" d="m175 262 1 1-1-1Z"/><path fill="#8599CC" id="PAL" d="m297 262-1 1 1-1Z"/><path fill="#99D2BD" id="OLF" d="m116 263 1 1-1-1Z"/><path fill="#8599CC" id="PAL" d="M165 263v2c-1.238 0-3-.423-3-2h3Z"/><path fill="#CBCCCB" id="mfb" d="m177 263 1 1-1-1Z"/><path fill="#E64438" id="HY" d="m281 263-4 2c1.465 0 4 .109 4-2Z"/><path fill="#99D2BD" id="OLF" d="m341 263-1 1 1-1ZM340 264l-1 1 1-1ZM119 272l4.5-1 2.5 2 3-3c-2.765 0-5.165-2-7-2-2.666 0-2.482-3-5-3 0 2.16 2 4.167 2 7Z"/><path fill="#97D6F9" id="STR" d="M136 267h2l-2-2v2ZM318 267h3v-2c-1.238 0-3 .423-3 2Z"/><path fill="#99D2BD" id="OLF" d="M331 273c0-4.38 6.234 0 7 0 0-2.531 1-5.118 1-8l-4 2-1 1c0 1.995-4.377 2-6 2l3 3ZM132 291v4c9.011 0 13.194-2.347 20.5-6 1.829-.915 7.5.669 7.5-3l-4-3-5.5 1c-2.307-1.153-5.159-9-1.5-9v-3l-8-4-1-1h-4l-1 2 6 5.5c5.535 11.07 4.311 16.5-9 16.5Z"/><path fill="#97D6F9" id="STR" d="m140 267 1 1-1-1Z"/><path fill="#99D2BD" id="OLF" d="M324 291c0 2.25 2 3.376 2 5-8.38 0-15.505-3.502-22.5-7-1.493-.746-6.5.729-6.5-2 0-3.244 4-2.352 4-4 2.904 0 11.426.351 8-6.5l-2-2.5v-1l1-1 1-1 9-4h3l1 2-5 3.5c-2.042 4.083-10.607 18.5 1.5 18.5h5.5Z"/><path fill="#8AD987" id="CTXsp" d="m335 267-1 1 1-1Z"/><path fill="#FF5545" id="SCH" d="M220 280h5l1-1 1-2v-3c-2.109 0-2-2.535-2-4-1.602 0-2.384-3.058-4.5-2l-4.5 4c0 1.564-1 3.876-1 6l4 2h1ZM239 279l-2 1c-3.863 0-6.505-3-8-3v-2c2.461 0 2-3.378 2-5 1.791 0 2.959-3.27 5.5-2l3.5 4c2.478 0 1 5.215 1 6h-1l-1 1Z"/><path fill="#60E5B7" id="COAa" d="M131 291h1c13.311 0 14.535-5.43 9-16.5l-6-5.5-6 1-3 3c0 5.649 2 12.129 2 18h3Z"/><path fill="#8599CC" id="PAL" d="M178 275c-2.375 0-5.897 4-11 4v-10l10 2 2 2-1 2Z"/><path fill="#E64438" id="HY" d="m180 269-1 1 1-1Z"/><path fill="#FE5B50" id="SO" d="M191 276h1l2-1.5c0-3.22-10.74-5.5-13-5.5h-1l-1 1v3l2 1c1.06 0 10 1.223 10 2ZM264 276h1c0-1.735 6.51-1 8-1 0-1.473 1.952-1 3-1l1-1 1-1-1-2-1-1c-2.566 0-14 2.127-14 5.5l2 1.5Z"/><path fill="#8599CC" id="PAL" d="M277 273c0 4.497 8.851 6 12 6v-10l-10 2-1 1-1 1Z"/><path fill="#60E5B7" id="COAa" d="M324 291h2l3-1c0-5.865 2-10.835 2-17l-3-3-6-1-5 3.5c-2.042 4.083-10.607 18.5 1.5 18.5h5.5Z"/><path fill="#E64438" id="HY" d="m177 271 2 2v-3l-2 1ZM279 271l-1 1-1-2 2 1Z"/><path fill="#59D9AA" id="PAA" d="M106 297h2c5.003 0 10.49-2 14-2h1l2-1 1-1h1l1-2c0-5.871-2-12.351-2-18l-2.5-2-4.5 1c0 4.142-8.44 24-13 24v1Z"/><path fill="#97D6F9" id="STR" d="M301 283c0 1.648-4 .756-4 4-2.365 0-8-5.573-8-8v-8l3.5 3h8.5c0 1.298-3.563 3.373-2 6.5l2 2.5ZM309 271l-1 1 1-1Z"/><path fill="#59D9AA" id="PAA" d="M348 297h2v-1c-4.074 0-12-18.952-12-23-.766 0-7-4.38-7 0 0 6.165-2 11.135-2 17v3h1l1 1h1l1 1h1c3.718 0 8.855 2 14 2Z"/><path fill="#97D6F9" id="STR" d="m151 273-2 2v-3l2 1ZM156 283l4 3c3.081 0 7-3.918 7-7v-7c-2.95 0-7.018 2-11 2l2 4.5-2 4.5Z"/><path fill="#E64438" id="HY" d="m229 274-2 1v-1l1-2h1v2Z"/><path fill="#97D6F9" id="STR" d="m308 272-1 1 1-1Z"/><path fill="#80BFE1" id="MEA" d="M149 275c-3.659 0-.807 7.847 1.5 9l5.5-1 2-4.5-2-4.5-5-1-2 2ZM307 274l2 2.5c3.426 6.851-5.096 6.5-8 6.5l-2-2.5c-1.563-3.127 2-5.202 2-6.5l5-1 1 1Z"/><path fill="#97D6F9" id="STR" d="M307 273v1l-1-1h1Z"/><path fill="#CAC7CB" id="fiber tracts" d="m228 284-18.5 1c-1.353.676-10.5 3.962-10.5 2-4.063 0-22.47-5.56-20-10.5 1.12-2.239 9.085-.5 12-.5 0-.777-8.94-2-10-2l-3 1c0 13.798 25.828 17.336 36.5 12 2.22-1.11 13.5.574 13.5-3ZM273 275c2.313 0 5 1.452 5 4 2.663 0-.18-5-2-5-1.048 0-3-.473-3 1Z"/><path fill="#CACCCB" id="opt" d="M199 278v9c-4.063 0-22.47-5.56-20-10.5 1.12-2.239 9.085-.5 12-.5h3c0 1.473 1.952 1 3 1h1l1 1Z"/><path fill="#CAC7CB" id="fiber tracts" d="M273 275c-1.49 0-8-.735-8 1 1.49 0 8 .735 8-1Z"/><path fill="#CACCCB" id="opt" d="M258 287h7c0-2.143 11.047-8 13-8 0-2.548-2.687-4-5-4 0 1.735-6.51 1-8 1h-3c0 1.473-1.952 1-3 1h-1v10Z"/><path fill="#CAC7CB" id="fiber tracts" d="M194 276c1.048 0 3-.473 3 1-1.048 0-3 .473-3-1ZM262 276c-1.048 0-3-.473-3 1 1.048 0 3 .473 3-1ZM215 278l4 2c-6.151 0-13.75-2-20-2l-1-1c5.675 0 11.954 1 17 1ZM226 279c1.483 0 11 3.937 11 1-3.863 0-6.505-3-8-3h-2l-1 2ZM258 278c-5.708 0-11.784 1-18 1v-1h1c5.22 0 11.211-1 17-1v1Z"/><path fill="#CBCACC" id="och" d="m228 284-18.5 1c-1.353.676-10.5 3.962-10.5 2v-9c6.25 0 13.849 2 20 2h1c0 1.566 5 1.566 5 0l1-1c1.483 0 11 3.937 11 1l2-1h1c6.216 0 12.292-1 18-1v9c0 1.574-5.398.551-6.5 0-4.735-2.367-11.925-3-17.5-3-1.745 0-6-.632-6 0Z"/><path fill="#E64438" id="HY" d="M239 279h1v-1l-1 1Z"/><path fill="#CAC7CB" id="fiber tracts" d="m226 279-1 1 1-1ZM239 279l-2 1 2-1ZM278 279c-1.953 0-13 5.857-13 8 3.289 0 13-3.973 13-8ZM220 280h5c0 1.566-5 1.566-5 0ZM258 287h7c0 2.253-7.512 2-9.5 2-4.207 0-22.128-1.564-25-3l-2.5-2c0-.632 4.255 0 6 0 5.575 0 12.765.633 17.5 3 1.102.551 6.5 1.574 6.5 0Z"/><path fill="#99D2BD" id="OLF" d="m326 291 3 2v-3l-3 1ZM131 291l-4 2 1-2h3Z"/><path fill="#CAC8C7" id="lot" d="M132 295c-2.73 0-6.298 2-10 2v-2h1l2-1 1-1h1l4-2h1v4ZM326 296l8 1v-2h-1l-1-1h-1l-1-1h-1l-3-2h-2c0 2.25 2 3.376 2 5Z"/><path fill="#99D2BD" id="OLF" d="m126 293-1 1 1-1ZM330 293l1 1-1-1ZM125 294l-2 1 2-1ZM332 294l1 1-1-1ZM108 297c0 2.309 14 1.703 14 0v-2c-3.51 0-8.997 2-14 2ZM334 297c0 1.703 14 2.309 14 0-5.145 0-10.282-2-14-2v2ZM106 296v1l-1-1h1ZM352 296l-2 1v-1h2Z"/></svg>