<svg xmlns="http://www.w3.org/2000/svg" viewBox="0 0 456 320"><path fill="#1E9C59" id="MOs1" d="m225 60-4 2c-1.76 0-3.394-4.288-4-5.5L206.5 49c-10.361-5.18-32.594 6-40.5 6v-6c0-2.732 11.502-3 13.5-4 11.434-5.717 34.437-2.627 39.5 7.5l6 7.5ZM235 63h1c0-3.611 5.182-8.34 8.5-10l6-4c4.739-2.37 27.43.715 32 3l7.5 3v-7c-6.419 0-31.033-9.233-39.5-5-3.775 1.888-11.744 4.989-13.5 8.5-.716 1.431-3.243 7.5-5 7.5l3 4Z"/><path fill="#1E9D58" id="MOs2/3" d="M214 67h1l6-4v-1c-1.76 0-3.394-4.288-4-5.5L206.5 49c-10.361-5.18-32.594 6-40.5 6 0 5.517-1 11.302-1 17 10.558 0 25.262-18.12 37.5-12 3.45 1.725 11.5.609 11.5 7ZM242 67c0-5.577 8.766-5.633 11.5-7 12.698-6.349 26.751 12 37.5 12l-1-17-7.5-3c-4.57-2.285-27.261-5.37-32-3l-6 4c-3.318 1.66-8.5 6.389-8.5 10l5 4h1Z"/><path fill="#1E9D5A" id="MOp1" d="M350 85h1v-6l-12.5-8c-10.904-5.452-22.186-10.593-33-16-4.061-2.03-10.954-7-15.5-7v7l8.5 4h4c4.581 2.29 9.525 3.763 14 6 7.515 3.757 14.56 8.28 22 12l11.5 8ZM106 79v6c3.75 0 8.923-6.711 11.5-8 7.883-3.941 41.906-22 48.5-22v-6c-9.391 0-35.139 15.32-44.5 20L106 79Z"/><path fill="#1F9C58" id="MOp2/3" d="M107 103c0 .986 1.087 6 2 6l15.5-14c8.879-4.44 31.861-22 40.5-22v-1c0-5.698 1-11.483 1-17-6.594 0-40.617 18.059-48.5 22-2.577 1.289-7.75 8-11.5 8v1l-1 1c0 5.186 2 11.532 2 16ZM347 110h1l1-7c0-3.056 2-6.123 2-9.5 0-2.853-1-5.579-1-8.5l-11.5-8c-7.44-3.72-14.485-8.243-22-12-4.475-2.237-9.419-3.71-14-6h-4l-8.5-4 1 17v1c4.578 0 8.606 4.053 12.5 6 7.681 3.84 28.111 12.723 31.5 19.5l12 11.5Z"/><path fill="#1F9D58" id="MOs5" d="M199 82c-2.647 0-6.175-3.662-9.5-2L165 92c0-4.732 1-10.444 1-14.5 0-1.537.537-4.5-1-4.5v-1c10.558 0 25.262-18.12 37.5-12 3.45 1.725 11.5.609 11.5 7 0 2.17-15 11.46-15 15Z"/><path fill="#3EA665" id="ACAd1" d="M223 93c3.642 0 8.002 1 11 1 0-10.355 1-21.268 1-31l-3-4c-4.909 0-.065 8.435-5 3.5l-2-2.5-4 2v1c0 2.128 1.054 5.608 2 7.5V93Z"/><path fill="#1F9D58" id="MOs5" d="M258 81c11.198 0 13.266.883 23.5 6 3.032 1.516 7.052 6 10.5 6l-1-20v-1c-10.749 0-24.802-18.349-37.5-12-2.734 1.367-11.5 1.423-11.5 7l3.5 3c2.125 2.125 10.122 11 12.5 11Z"/><path fill="#40A565" id="ACAd2/3" d="M223 94c-2.124 0-4.436 1-6 1V71.5l-2-4.5 6-4c0 2.128 1.054 5.608 2 7.5V94ZM234 94h5c0-8.33 2-18.67 2-27l-5-4h-1c0 9.732-1 20.645-1 31Z"/><path fill="#3EA566" id="ACAd5" d="M217 95c-5.58 0-10.125 7-15 7 0-3.378.392-19-3-19v-1c0-3.54 15-12.83 15-15h1l2 4.5V95ZM239 95c6.065 0 11.692 7 15 7 0-2.965.77-20 4-20v-1c-2.378 0-10.375-8.875-12.5-11l-3.5-3h-1c0 8.33-2 18.67-2 27v1Z"/><path fill="#1E9C5A" id="MOp5" d="M109 111c0 5.884 3 9.718 3 15 .048 0 9.053-10.776 11.5-12 9.384-4.692 30.758-21 40.5-21l1-1c0-4.732 1-10.444 1-14.5 0-1.537.537-4.5-1-4.5-8.639 0-31.621 17.56-40.5 22L109 109v2ZM347 110c0 7.896-2 9.724-2 17l-4-5.5-12.5-11.5c-7.144-3.572-29.814-17-36.5-17l-1-20c4.578 0 8.606 4.053 12.5 6 7.681 3.84 28.111 12.723 31.5 19.5l12 11.5Z"/><path fill="#187E61" id="SSp-m1" d="m71 166-4 1-1-17.5c2.801-5.602 1.208-13.417 4-19l6-18c2.609-5.217 6.354-9.707 9-15 1.96-3.92 17.168-18.5 21-18.5v7l-1 1c-4.258 0-14.227 11.954-16 15.5l-8 12c-7.966 15.933-10 32.102-10 51.5ZM385 166l4 1 2-11.5c-2.163-4.325.13-10.741-2-15-4.208-8.417-4.749-18.499-9-27-3.641-7.281-7.085-18.792-14.5-22.5-3.675-1.838-9.426-12-14.5-12v6l8.5 8c5.523 5.523 11.836 13.171 15.5 20.5 8.191 16.382 10 32.526 10 52.5Z"/><path fill="#1D9C5A" id="MOs6a" d="M165 113h2l4-2c0-1.995 4.377-2 6-2 0-1.274 7.483-2 9-2 0-3.301 9.476-24 13-24v-1c-2.647 0-6.175-3.662-9.5-2L165 92l-1 1c0 7.385 1 12.857 1 20ZM291 114h1V93c-3.448 0-7.468-4.484-10.5-6-10.234-5.117-12.302-6-23.5-6v1c0 4.145 12 16.574 12 25h1c3.126 0 20 4.365 20 7Z"/><path fill="#3FA664" id="ACAd6a" d="m270 107-6 4-10-8v-1c0-2.965.77-20 4-20 0 4.145 12 16.574 12 25ZM192 112h1l9-9v-1c0-3.378.392-19-3-19-3.524 0-13 20.699-13 24 1.991 0 6 2.904 6 5Z"/><path fill="#1A7E64" id="SSp-m2/3" d="m375 164 10 2c0-19.974-1.809-36.118-10-52.5-3.664-7.329-9.977-14.977-15.5-20.5l-8.5-8h-1c0 2.921 1 5.647 1 8.5 0 3.377-2 6.444-2 9.5 7.617 0 11.496 10.492 14 15.5 7.179 14.359 12 27.016 12 44.5v1ZM106 86l-1 1 1-1ZM71 166h1l10-3c0-18.475 3.914-30.328 12-46.5 2.146-4.293 6.916-13.5 13-13.5 0-4.468-2-10.814-2-16-4.258 0-14.227 11.954-16 15.5l-8 12c-7.966 15.933-10 32.102-10 51.5Z"/><path fill="#1F9B5A" id="MOp6a" d="M123 166c-3.372 0-6.053 3-10 3 0-2.599-1.288-12-2-12v-10.5l2-2c0-4.865-1-11.803-1-17.5v-1c.048 0 9.053-10.776 11.5-12 9.384-4.692 30.758-21 40.5-21 0 7.385 1 12.857 1 20v1c-5.638 0-10.642 7.571-15.5 10-17.394 8.697-26.5 21.821-26.5 42Z"/><path fill="#40A664" id="ACAv1" d="M222 141v1c4.693 0 1.603-9 5-9 0-6.192 2-8.601 2-1 3.545 0 .26 9 5 9V94c-2.998 0-7.358-1-11-1v1c0 15.373-1 31.775-1 47Z"/><path fill="#1F9B5A" id="MOp6a" d="M333 166c3.641 0 5.885 3 10 3 0-3.255 2-7.224 2-12 0-6.619.745-12.01-2-17.5-1.367-2.733 2-6.719 2-10.5v-2l-4-5.5-12.5-11.5c-7.144-3.572-29.814-17-36.5-17v21l13.5 9c18.56 9.28 27.5 21.217 27.5 43Z"/><path fill="#3FA566" id="ACAv2/3" d="M219 141h3c0-15.225 1-31.627 1-47-2.124 0-4.436 1-6 1 0 15.861 2 31.01 2 46ZM234 141h4c0-15.166 1-30.379 1-46v-1h-5v47Z"/><path fill="#3EA666" id="ACAv5" d="M212 140c1.819 0 4.591 1 7 1 0-14.99-2-30.139-2-46-5.58 0-10.125 7-15 7v1c0 8.86 1.279 20.057 5 27.5 1.488 2.976 5 6.004 5 9.5ZM244 140c0 1.684-4.679 1-6 1 0-15.166 1-30.379 1-46 6.065 0 11.692 7 15 7v1c0 7.529.13 16.24-3 22.5l-6 13.5-1 1Z"/><path fill="#1B7F62" id="SSp-m4" d="M82 163h5l1-1c0-14.61 5.913-27.327 12-39.5 1.195-2.389 5.138-11.5 9-11.5v-2c-.913 0-2-5.014-2-6-6.084 0-10.854 9.207-13 13.5-8.086 16.172-12 28.025-12 46.5Z"/><path fill="#40A564" id="ACAv6a" d="m203 132 9 8c0-3.496-3.512-6.524-5-9.5-3.721-7.443-5-18.64-5-27.5l-9 9c0 7.319 10 12.005 10 19v1ZM253 132l-8 7 6-13.5c3.13-6.26 3-14.971 3-22.5l10 8v1c0 6.726-11 12.436-11 19v1Z"/><path fill="#1B7F62" id="SSp-m4" d="M369 163h6c0-17.484-4.821-30.141-12-44.5-2.504-5.008-6.383-15.5-14-15.5l-1 7 11 15.5c4.901 9.801 10 25.027 10 36.5v1Z"/><path fill="#1E9C58" id="MOs6b" d="M177 109h9v-2c-1.517 0-9 .726-9 2Z"/><path fill="#3FA466" id="ACAd6b" d="M191 112h1c0-2.096-4.009-5-6-5v2c1.766 0 5 .607 5 3ZM264 112h1c2.079 0 3.187-3 6-3v-2h-1l-6 4v1Z"/><path fill="#1E9C58" id="MOs6b" d="M291 114v1c-2.13 0-11.284-6-20-6v-2c3.126 0 20 4.365 20 7ZM177 109c-1.623 0-6 .005-6 2 1.623 0 6-.005 6-2Z"/><path fill="#CACCC7" id="cing" d="M203 131v1c-8.093 0-9.353-15.427-16.5-19-5.561-2.78-11.914 3-16.5 3l-1 1h-6l2-2 2-2c1.465 0 4 .109 4-2 1.623 0 6-.005 6-2h9c1.766 0 5 .607 5 3 0 1.831 10.814 19 12 19ZM253 131v1c8.443 0 10.632-15.566 17.5-19 6.282-3.141 13.239 4 18.5 4h5l-3-2c-2.13 0-11.284-6-20-6-2.813 0-3.921 3-6 3 0 2.411-9.533 19-12 19Z"/><path fill="#1B7E63" id="SSp-m5" d="m352 159 17 3c0-11.473-5.099-26.699-10-36.5L348 110h-1c0 7.896-2 9.724-2 17v2c5.228 0 7 24.496 7 30ZM104 159l-16 3c0-14.61 5.913-27.327 12-39.5 1.195-2.389 5.138-11.5 9-11.5 0 5.884 3 9.718 3 15l-1 1c0 3.63-2.51 5.52-4 8.5-3.121 6.243-3 16.045-3 23.5Z"/><path fill="#1E9C58" id="MOs6b" d="m171 111-4 2c1.465 0 4 .109 4-2Z"/><path fill="#40A465" id="ACAv6b" d="M193 112c0 7.319 10 12.005 10 19-1.186 0-12-17.169-12-19h2ZM265 112c0 2.411-9.533 19-12 19 0-6.564 11-12.274 11-19h1Z"/><path fill="#1E9C58" id="MOs6b" d="M165 114v1l2-2h-2v1Z"/><path fill="#CCC7C9" id="ccg" d="M222 142c0 3.249 1 7.194 1 11-10.761 0-25.076-9.652-30-19.5l-4.5-5.5c-8.872-4.436-16.641-7-27.5-7l6-4h2l1-1c4.586 0 10.939-5.78 16.5-3 7.147 3.573 8.407 19 16.5 19l9 8c1.819 0 4.591 1 7 1h3v1ZM234 141h4c1.321 0 6 .684 6-1l1-1 8-7c8.443 0 10.632-15.566 17.5-19 6.282-3.141 13.239 4 18.5 4l10 6-4.5-2c-6.798-3.399-19.891 3.446-25 6-14.312 7.156-14.033 26-36.5 26l1-12Z"/><path fill="#1D9D5A" id="MOp6b" d="m125 165-2 1c0-20.179 9.106-33.303 26.5-42 4.858-2.429 9.862-10 15.5-10v1l-2 2c-1.658 0-17 10.203-17 12-1.562 0-5 2.189-5 4-2.394 0-3.848 2.348-5.5 4-8.496 8.496-10.5 16.015-10.5 28ZM331 165l2 1c0-21.783-8.94-33.72-27.5-43l-13.5-9h-1v1l3 2c3.794 0 8.128 6.314 11.5 8 14.796 7.398 25.5 20.189 25.5 37v3Z"/><path fill="#C9C9CA" id="scwm" d="m170 116-1 1 1-1ZM158 123l-12 6c0-1.797 15.342-12 17-12h4l-6 4-2 1-1 1ZM299 123c6.46 0 24.889 18.277 28 24.5.794 1.589 3.247 14.5 4 14.5 0-16.811-10.704-29.602-25.5-37-3.372-1.686-7.706-8-11.5-8h-5l10 6Z"/><path fill="#CCC7C9" id="ccg" d="m161 121-2 1 2-1Z"/><path fill="#CAC7CC" id="fa" d="m129 171-4 1v-5c1.643 0 1-3.765 1-5 0-4.032 1.276-10.052 3-13.5 2.122-4.245 12-13.491 12-15.5 1.562 0 5-2.189 5-4l12-6 1-1 2-1c10.859 0 18.628 2.564 27.5 7l4.5 5.5c4.924 9.848 19.239 19.5 30 19.5v2c-8.988 0-13.029 7-16.5 7l-2.5-3c0-3.718-5.411-14-10-14 0-9.215-27.779-18.36-36.5-14-23.062 11.531-28.5 12.63-28.5 40ZM328 171l3 1v-10c-.753 0-3.206-12.911-4-14.5-3.111-6.223-21.54-24.5-28-24.5l-4.5-2c-6.798-3.399-19.891 3.446-25 6-14.312 7.156-14.033 26-36.5 26l1 2c7.03 0 12.735 7 15.5 7l3.5-3c0-4.088 4.157-14 9-14l6.5-8 13-6c3.412-1.706 16.054-.473 19 1 20.851 10.425 27.5 12.291 27.5 39Z"/><path fill="#CCC7C9" id="ccg" d="m159 122-1 1 1-1Z"/><path fill="#1E9C5A" id="MOp5" d="M111 127h1v-1l-1 1Z"/><path fill="#187D61" id="SSp-m6a" d="m111 157-7 2c0-7.455-.121-17.257 3-23.5 1.49-2.98 4-4.87 4-8.5h1c0 5.697 1 12.635 1 17.5l-2 2V157Z"/><path fill="#C9C9CA" id="scwm" d="M146 129c-1.562 0-5 2.189-5 4 1.562 0 5-2.189 5-4Z"/><path fill="#187D61" id="SSp-m6a" d="m345 157 7 2c0-5.504-1.772-30-7-30 0 3.781-3.367 7.767-2 10.5 2.745 5.49 2 10.881 2 17.5Z"/><path fill="#98D5F9" id="CP" d="M141 224c2.421 0 4.563 6 8 6 1.423 0 3.544 1.978 5.5 1 5.941-2.97 11.57-15.64 14.5-21.5 2.697-5.393 12.34-8.92 17.5-11.5l7.5-5 1-1v-1c0-12.283 2-24.016 2-37 0-3.42-3-6.14-3-9 0-9.215-27.779-18.36-36.5-14-23.062 11.531-28.5 12.63-28.5 40 0 9.521 7 20.546 7 32 0 5.054 3 9.261 3 14v2l1 1 1 4ZM315 225l-8 6c-12.174 0-15.251-16.751-23-24.5-5-5-10.295-6.398-16.5-9.5l-4.5-4-2-2c0-12.986-2-24.563-2-38 .616 0 3-6.93 3-8l6.5-8 13-6c3.412-1.706 16.054-.473 19 1 20.851 10.425 27.5 12.291 27.5 39 0 7.909-7 19.017-7 32v2c-1.931 0-2 6.225-2 8-1.579 0-1 2.855-1 4l-1 1-2 7Z"/><path fill="#7ED04B" id="IG" d="M229 167c0-5.44-2-3.201-2 1-6.677 0-4-7.603-4-13v-2c0-3.806-1-7.751-1-11 4.693 0 1.603-9 5-9 0 3.795 2 2.577 2-1 3.545 0 .26 9 5 9l-1 12 1 2c0 3.502.922 12.289-2.5 14l-2.5-2Z"/><path fill="#C9C9CA" id="scwm" d="M125 165v2c1.643 0 1-3.765 1-5 0-4.032 1.276-10.052 3-13.5 2.122-4.245 12-13.491 12-15.5-2.394 0-3.848 2.348-5.5 4-8.496 8.496-10.5 16.015-10.5 28Z"/><path fill="#40A564" id="ACAv6a" d="m245 139-1 1 1-1Z"/><path fill="#AAA8A9" id="SEZ" d="m200 179-1 1c0-5.664 6.531-26-2-26 0-3.42-3-6.14-3-9 4.589 0 10 10.282 10 14l-1 7c0 4.646-2 7.501-2 12l-1 1ZM256 179h1c0-4.194-5.684-26 2-26 .616 0 3-6.93 3-8-4.843 0-9 9.912-9 14v6c0 5.019 3 9.163 3 14Z"/><path fill="#A8AAAA" id="VL" d="M198 189c0 1.577-1.762 2-3 2 0-12.283 2-24.016 2-37 8.531 0 2 20.336 2 26v2c-1.714 0-1 5.594-1 7ZM259 189c0 1.747.253 2 2 2 0-12.986-2-24.563-2-38-7.684 0-2 21.806-2 26v1c1.473 0 1 1.952 1 3v2c1.579 0 1 2.855 1 4Z"/><path fill="#99D2BD" id="OLF" fill-rule="evenodd" d="m237 160-1 2.5c0 9.168 6.528-2.5 1-2.5m-19 0-1 2.5c3.932 7.864 3.945-2.5 1-2.5m11 7c0 3.391-2 5.161-2 1-6.677 0-4-7.603-4-13-8.988 0-13.029 7-16.5 7l-2.5-3-1 7c1.947 0 3.644-3.428 6.5-2 9.222 4.611 2.479 11 19 11 1.184 0 3.175 1.913 5 1 5.394-2.697 9.163-9.582 14-12l5.5 1v-6l-3.5 3c-2.765 0-8.47-7-15.5-7 0 3.502.922 12.289-2.5 14l-2.5-2Z"/><path fill="#009B74" id="GU6a" d="m113 169-8 4c0-4.869-1-9.649-1-14l7-2c.712 0 2 9.401 2 12ZM343 169c0 1.778 6.332 4 8 4 0-3.948 1-9.393 1-14l-7-2c0 4.776-2 8.745-2 12Z"/><path fill="#019C75" id="GU5" d="M105 173c-4.492 0-11.587 7-18 7v-17l1-1 16-3c0 4.351 1 9.131 1 14ZM351 173c4.521 0 11.872 7 18 7v-18l-17-3c0 4.607-1 10.052-1 14Z"/><path fill="#8FCAED" id="SH" d="m218 160-1 2.5c3.932 7.864 3.945-2.5 1-2.5ZM237 160l-1 2.5c0 9.168 6.528-2.5 1-2.5Z"/><path fill="#009C74" id="GU4" d="m88 162-1 1 1-1Z"/><path fill="#009B75" id="GU2/3" d="m85 181-10 4c0-6.532-3-12.063-3-19l10-3c0 6.435 3 12.165 3 18Z"/><path fill="#009C74" id="GU4" d="M85 181h2v-18h-5c0 6.435 3 12.165 3 18ZM369 180l2 1c0-5.052 4-11.658 4-17v-1h-6v17Z"/><path fill="#97D6F9" id="STR" d="m241 261-1 4c-4.891 0-1.522-9-4-9 0-11.518-3-23.45-3-36 0-1.185-2.547-11-3.5-11-5.335 0-4.232 9-6.5 9 0-10.501 1.659-37.421-9.5-43-1.828-.914-9.228 3-12.5 3 0-4.499 2-7.354 2-12 1.947 0 3.644-3.428 6.5-2 9.222 4.611 2.479 11 19 11 1.184 0 3.175 1.913 5 1 5.394-2.697 9.163-9.582 14-12l5.5 1c0 5.019 3 9.163 3 14l-13.5-4c-8.072 4.036-15.001 40.999-5 46l4.5-1v17c-1.665 0-1 4.222-1 5.5V261Z"/><path fill="#009B75" id="GU2/3" d="M371 181c3.8 0 6.579 4 10 4 0-6.05 4-12.635 4-19l-10-2c0 5.342-4 11.948-4 17Z"/><path fill="#1F9766" id="AId6b" d="M127 181h1l-3-9v-7l-2 1c0 5.336 3 9.658 3 14l1 1ZM329 181h1l1-1v-1c0-3.786 2-8.833 2-13l-2-1v3c1.186 0 1.186 1 0 1v3c0 3.489-2 5.32-2 9Z"/><path fill="#009C75" id="GU1" d="m75 185-4 1-4-19 4-1h1c0 6.937 3 12.468 3 19Z"/><path fill="#209666" id="AId6a" d="m118 193-5 2-6-7.5c-2.239-4.479-2-9.057-2-14.5l8-4c3.947 0 6.628-3 10-3 0 5.336 3 9.658 3 14-15.834 0-8 3.319-8 13ZM343 195h1c0-4.223 5.102-6.705 7-10.5V173c-1.668 0-8-2.222-8-4-4.115 0-6.359-3-10-3 0 4.167-2 9.214-2 13 11.03 0 8 6.231 8 14l4 2Z"/><path fill="#009C75" id="GU1" d="m381 185 4 1c0-6.156 4-12.47 4-19l-4-1c0 6.365-4 12.95-4 19Z"/><path fill="#C9C9CA" id="scwm" d="M331 168c1.186 0 1.186 1 0 1v-1Z"/><path fill="#C8CBCC" id="ec" d="M134 203h2c0-11.454-7-22.479-7-32l-4 1 3 9c1.579 0 1 2.855 1 4v1l1 1c2.878 0 4 14.719 4 16ZM321 203h1c0-1.931 1.15-12 3-12 0-1.465-.109-4 2-4v-1c0-1.424.362-5 2-5 0-3.68 2-5.511 2-9l-3-1c0 7.909-7 19.017-7 32Z"/><path fill="#209665" id="AId5" d="M113 195c-6.48 0-13.075 5-20 5 0-.492-6-13.233-6-19v-1c6.413 0 13.508-7 18-7 0 5.443-.239 10.021 2 14.5l6 7.5ZM344 195c5.069 0 12.935 5 19 5 3.824 0 6-16.355 6-20-6.128 0-13.479-7-18-7v11.5c-1.898 3.795-7 6.277-7 10.5Z"/><path fill="#90CAED" id="LSr" d="m223 218-4.5 3c-2.712 1.356-3.183-2-4.5-2v-1l-1-1v-2l-1-1v-1l-1-1v-1l-1-1-1-3-1-1-1-3-2-2v-1c0-1.247-2.467-5-4-5v-1l-1-2c4.13 0 2.083-4-1-4v-8l1-1 1-1c3.272 0 10.672-3.914 12.5-3 11.159 5.579 9.5 32.499 9.5 43ZM243 218l-1 2-4.5 1c-10.001-5.001-3.072-41.964 5-46l13.5 4h1v1c0 1.048-.473 3 1 3v2l-1 2c-1.82 0-4.85 5-1 5v2l-1 1-1 1-1 1v1l-1 1v1l-1 1v1l-1 1-1 1v1l-1 1-1 3-1 1-1 3-1 1-1 4Z"/><path fill="#97D6F9" id="STR" d="m201 178-1 1 1-1Z"/><path fill="#8ADA86" id="CLA" d="M129 187c0 3.103 4.898 7.705 3 11.5-4.608 9.216-14 1.444-14-5.5 0-9.681-7.834-13 8-13l1 1 2 4v2ZM325 191c0 5.803.572 14.964 8.5 11 2.459-1.229 4.131-9 5.5-9 0-7.769 3.03-14-8-14v1l-1 1h-1c0 1.424-.362 5-2 5v1l-2 4Z"/><path fill="#AAA8A9" id="SEZ" d="M257 180c1.473 0 1 1.952 1 3-1.473 0-1-1.952-1-3Z"/><path fill="#209666" id="AId6a" d="m331 180-1 1 1-1Z"/><path fill="#209765" id="AId2/3" d="M363 201c3.982 0 6.704 2 11 2 1.137 0 7-15.602 7-18-3.421 0-6.2-4-10-4l-2-1c0 3.645-2.176 20-6 20v1ZM82 204h1c0-1.098 8.47-3 10-3v-1c0-.492-6-13.233-6-19h-2l-10 4c0 6.48 7 12.769 7 19Z"/><path fill="#209666" id="AId6a" d="M128 181c1.579 0 1 2.855 1 4l-2-4h1ZM329 181c-1.638 0-2 3.576-2 5 1.638 0 2-3.576 2-5Z"/><path fill="#AAA8A9" id="SEZ" d="M198 189h1v-7c-1.714 0-1 5.594-1 7Z"/><path fill="#209764" id="AId1" d="m82 204-4 1-7-19 4-1c0 6.48 7 12.769 7 19Z"/><path fill="#AAA8A9" id="SEZ" d="m257 187 2 2c0-1.145.579-4-1-4l-1 2Z"/><path fill="#209764" id="AId1" d="m374 204 4 1c1.183 0 1.535-3.57 2-4.5 2.076-4.152 5-9.604 5-14.5l-4-1c0 2.398-5.863 18-7 18v1Z"/><path fill="#209666" id="AId6a" d="M129 187h1l-1-1v1Z"/><path fill="#1F9866" id="AIv6a" d="M120 209h2l1-1c0-2.691 7.721-4 10-4l1-1c0-1.281-1.122-16-4-16h-1c0 3.103 4.898 7.705 3 11.5-4.608 9.216-14 1.444-14-5.5l-5 2 7 14Z"/><path fill="#8FCBED" id="LSv" d="M257 187c-1.82 0-4.85 5-1 5 1.643 0 1-3.765 1-5Z"/><path fill="#97D6F9" id="STR" d="M263 193c-3.051 0-5.183 1-7 1v-2c1.643 0 1-3.765 1-5l2 2c0 1.747.253 2 2 2l2 2Z"/><path fill="#1F9866" id="AIv6a" d="M327 187c-2.109 0-2 2.535-2 4l2-4Z"/><path fill="#8FCBED" id="LSv" d="m199 189 1 3c4.13 0 2.083-4-1-4v1Z"/><path fill="#97D6F9" id="STR" d="m200 192 1 2c-1.974 0-3.517-2-6-2v-1c1.238 0 3-.423 3-2h1l1 3Z"/><path fill="#1F9866" id="AIv6a" d="m334 208 3 1 6-14-4-2c-1.369 0-3.041 7.771-5.5 9-7.928 3.964-8.5-5.197-8.5-11-1.85 0-3 10.069-3 12l1 1c4.179 0 9.801 4 11 4Z"/><path fill="#97D6F9" id="STR" d="m195 192-1 1 1-1Z"/><path fill="#80CDF8" id="ACB" fill-rule="evenodd" d="M177 210c0 .555-6.173 6.846-7 8.5-1.842 3.684 4.61 6.945 7.5 5.5 5.346-2.673 7.566-14-.5-14m37 26c0 23.468-32.93 34.785-52.5 25-3.249-1.625-7.897-3.295-9.5-6.5-.565-1.13-.836-7.5-2-7.5 0-5.553-1-11.883-1-17 1.423 0 3.544 1.978 5.5 1 5.941-2.97 11.57-15.64 14.5-21.5 2.697-5.393 12.34-8.92 17.5-11.5l7.5-5 1-1c2.483 0 4.026 2 6 2v1l4 5v1l2 2 1 3 1 1 1 3 1 1v1l1 1v1l1 1v2l1 1v18ZM277 210c0 2.322-3 4.33-3 7.5 0 8.449 16.709 10.418 10-3-1.477-2.954-3.479-4.5-7-4.5m-35 27c0 23.19 36.019 32.741 53.5 24 3.422-1.711 7.71-3.919 9.5-7.5.746-1.493-.729-6.5 2-6.5v-16c-12.174 0-15.251-16.751-23-24.5-5-5-10.295-6.398-16.5-9.5l-4.5-4c-3.051 0-5.183 1-7 1l-1 1-1 1-1 1v1l-1 1v1l-1 1v1l-1 1-1 1v1l-1 1-1 3-1 1-1 3-1 1-1 4-1 2v17Z"/><path fill="#97D6F9" id="STR" d="m256 194-1 1 1-1Z"/><path fill="#1F9865" id="AIv5" d="m110 212-4 1c0-3.399-8.968-12-13-12v-1c6.925 0 13.52-5 20-5l7 14c-1.346 0-10 2.282-10 3Z"/><path fill="#97D6F9" id="STR" d="M201 195c1.533 0 4 3.753 4 5l-4-5ZM255 195l-1 1 1-1Z"/><path fill="#1F9865" id="AIv5" d="m346 212 4 1c0-3.781 10.974-12 13-12v-1c-6.065 0-13.931-5-19-5h-1l-6 14c1.221 0 9 2.205 9 3Z"/><path fill="#97D6F9" id="STR" d="m254 196-1 1 1-1ZM253 198l-1 1 1-1ZM252 200l-1 1 1-1Z"/><path fill="#219764" id="AIv2/3" d="m106 213-16 3c0-4.307-7-7.259-7-12 0-1.098 8.47-3 10-3 4.032 0 13 8.601 13 12Z"/><path fill="#97D6F9" id="STR" d="m205 201 2 2-2-2Z"/><path fill="#219764" id="AIv2/3" d="m350 213 16 3 8-12v-1c-4.296 0-7.018-2-11-2-2.026 0-13 8.219-13 12Z"/><path fill="#97D6F9" id="STR" d="m251 202-1 1 1-1Z"/><path fill="#8AD987" id="CTXsp" d="M133 204c4.772 0 1.79 13 6 13 0-4.739-3-8.946-3-14h-2l-1 1Z"/><path fill="#97D6F9" id="STR" d="m250 203-1 1 1-1Z"/><path fill="#8AD987" id="CTXsp" d="m323 204-2 1v-2h1l1 1Z"/><path fill="#A0EE9C" id="EPd" d="m327 226-2 1c-3.526 0-8.954-2-10-2l2-7 1-1c1.579 0 1-2.855 1-4 1.931 0 2-6.225 2-8l2-1c4.179 0 9.801 4 11 4 0 2.933 3 5.321 3 9l-1 2-1 1-1 1-2 1-1 1-1 1-1 1h-1l-1 1Z"/><path fill="#209864" id="AIv1" d="M90 216c-1.564 0-3.876 1-6 1l-6-12 4-1h1c0 4.741 7 7.693 7 12Z"/><path fill="#A0EE9C" id="EPd" d="m140 220 1 4c0 7.452-13.217.141-15.5-1-9.283-4.641-3.5-8.844-3.5-14l1-1c0-2.691 7.721-4 10-4 4.772 0 1.79 13 6 13v2l1 1Z"/><path fill="#209864" id="AIv1" d="M366 216c1.564 0 3.876 1 6 1l6-12-4-1-8 12Z"/><path fill="#97D6F9" id="STR" d="m249 205-1 1 1-1Z"/><path fill="#8AD987" id="CTXsp" d="M321 205c-1.931 0-2 6.225-2 8 1.931 0 2-6.225 2-8Z"/><path fill="#97D6F9" id="STR" d="m208 206 1 1-1-1Z"/><path fill="#99D2BD" id="OLF" d="m123 208-1 1 1-1ZM346 212c-5.412 0-8.941 5-9 5 0-3.679-3-6.067-3-9l3 1c1.221 0 9 2.205 9 3ZM139 254h3l8-7c0-5.553-1-11.883-1-17-3.437 0-5.579-6-8-6 0 7.452-13.217.141-15.5-1-9.283-4.641-3.5-8.844-3.5-14h-2c-1.346 0-10 2.282-10 3 9.66 0 7.691 8.096 15.5 12 6.534 3.267 15.828 7.155 19.5 14.5 3.553 7.106-6 13.68-6 15.5Z"/><path fill="#96A6D3" id="NDB" d="m236 256-3 1c-.706 0-8-9.365-8-1l-1 1-4-1c0-13.152 3-24.424 3-38 2.268 0 1.165-9 6.5-9 .953 0 3.5 9.815 3.5 11 0 12.55 3 24.482 3 36Z"/><path fill="#97D6F9" id="STR" d="m247 209-1 1 1-1Z"/><path fill="#CBCBC7" id="aco" d="M177 210c0 .555-6.173 6.846-7 8.5-1.842 3.684 4.61 6.945 7.5 5.5 5.346-2.673 7.566-14-.5-14Z"/><path fill="#97D6F9" id="STR" d="m210 210 1 1-1-1Z"/><path fill="#CBCBC7" id="aco" d="M277 210c0 2.322-3 4.33-3 7.5 0 8.449 16.709 10.418 10-3-1.477-2.954-3.479-4.5-7-4.5Z"/><path fill="#6ACAB9" id="PIR" d="m128 257 2 1 9-4c0-1.82 9.553-8.394 6-15.5-3.672-7.345-12.966-11.233-19.5-14.5-7.809-3.904-5.84-12-15.5-12l-4 1-16 3c-1.564 0-3.876 1-6 1 0 5.575 17.27 29 23 29 0-2.558 5.556 1.528 6.5 2 3.529 1.765 7.447 3.224 11 5l3.5 4Z"/><path fill="#97D6F9" id="STR" d="m211 212 1 1-1-1Z"/><path fill="#6ACAB9" id="PIR" d="M326 258h2c0-5.248 19.139-12 22-12l7-5.5c3.639-7.277 15-13.906 15-23.5-2.124 0-4.436-1-6-1l-16-3-4-1c-5.412 0-8.941 5-9 5l-1 2-1 1-1 1-2 1-1 1-1 1-1 1h-1l-1 1-2 1-5.5 3c-3.934 1.967-6.735 5.97-8.5 9.5-3.395 6.789 6 9.921 6 14.5 3.47 0 6.007 4 9 4Z"/><path fill="#97D6F9" id="STR" d="m245 213-1 1 1-1Z"/><path fill="#8AD987" id="CTXsp" d="M319 213c-1.579 0-1 2.855-1 4 1.579 0 1-2.855 1-4Z"/><path fill="#97D6F9" id="STR" d="m212 214 1 1-1-1ZM213 217l1 1-1-1Z"/><path fill="#8AD987" id="CTXsp" d="m318 217-1 1 1-1Z"/><path fill="#99D2BD" id="OLF" d="m337 217-1 2 1-2Z"/><path fill="#97D6F9" id="STR" d="M216 262v3c3.094 0 4-6.901 4-9 0-13.152 3-24.424 3-38l-4.5 3c-2.712 1.356-3.183-2-4.5-2v17c2.144 0 .381 4.262 1 5.5 1.441 2.881 1 16.151 1 20.5ZM243 218l-1 2 1-2Z"/><path fill="#8AD987" id="CTXsp" d="m139 219 1 1-1-1Z"/><path fill="#99D2BD" id="OLF" d="m335 220-1 1 1-1ZM332 222l-1 1 1-1ZM331 223l-1 1 1-1ZM330 224l-1 1 1-1ZM314 254h3c0-4.579-9.395-7.711-6-14.5 1.765-3.53 4.566-7.533 8.5-9.5l5.5-3c-3.526 0-8.954-2-10-2l-8 6v16c0 2.95 7 4.738 7 7ZM328 225l-1 1 1-1ZM327 226l-2 1 2-1Z"/><path fill="#A2B1D7" id="SI" d="M142 254c0 4.266 10.762 9.631 13.5 11 12.369 6.184 28.795 8.602 42 2 4.743-2.371 8.222-6.611 13-9 3.256-1.628 3.152 4 5.5 4 0-4.349.441-17.619-1-20.5-.619-1.238 1.144-5.5-1-5.5 0 23.468-32.93 34.785-52.5 25-3.249-1.625-7.897-3.295-9.5-6.5-.565-1.13-.836-7.5-2-7.5l-8 7ZM314 254c0 4.176-8.062 8.281-11.5 10-9.681 4.84-22.673 10.664-34 5h-5l-18-11-4.5 3v-18.5c0-1.278-.665-5.5 1-5.5 0 23.19 36.019 32.741 53.5 24 3.422-1.711 7.71-3.919 9.5-7.5.746-1.493-.729-6.5 2-6.5 0 2.95 7 4.738 7 7Z"/><path fill="#CAC8C7" id="lot" d="m129 261-2 2c-2.394 0-3.848-2.348-5.5-4-3.127-3.127-14.5-9.213-14.5-13 0-2.558 5.556 1.528 6.5 2 3.529 1.765 7.447 3.224 11 5l3.5 4 1 2v2ZM328 258c0 2.25 2 3.376 2 5 .78 0 14.792-11.292 16-12.5l4-4.5c-2.861 0-22 6.752-22 12Z"/><path fill="#7FCCF7" id="OT" d="m213 273-1 1c0 11.242-19.398 16-28 16-11.678 0-21.197 5.651-32.5 0-4.841-2.42-9.633-9.316-13-11-1.983-.992-8.5-9.215-8.5-12l-1-1v-7l1-1 9-4h3c0 4.266 10.762 9.631 13.5 11 12.369 6.184 28.795 8.602 42 2 4.743-2.371 8.222-6.611 13-9 3.256-1.628 3.152 4 5.5 4v3l-3 8ZM327 265c0 5.253-5.806 8.112-8 12.5-3.588 7.176-23.216 19.642-31.5 15.5-3.724-1.862-9.1-3-13.5-3-9.966 0-30-4.063-30-17l-4-8 1-4 4.5-3 18 11h5c11.327 5.664 24.319-.16 34-5 3.438-1.719 11.5-5.824 11.5-10h3c3.47 0 6.007 4 9 4l1 4v3Z"/><path fill="#8599CC" id="PAL" d="m216 265-3 8c3.398 0 11-13.387 11-16l-4-1c0 2.099-.906 9-4 9ZM225 256l-1 1 1-1ZM240 265l4 8c-4.59 0-11-12.205-11-16l3-1c2.478 0-.891 9 4 9Z"/><path fill="#99D2BD" id="OLF" d="m130 258-1 1-1-2 2 1ZM330 263l-2 1-1-2-1-4h2c0 2.25 2 3.376 2 5ZM129 263l-1 1-1-1 2-2v2Z"/><path fill="#97D6F9" id="STR" d="m328 264-1 1v-3l1 2ZM128 264l1 1v-2l-1 1ZM129 266l1 1-1-1Z"/><path fill="#8599CC" id="PAL" d="m213 273-1 1 1-1Z"/></svg>