<svg xmlns="http://www.w3.org/2000/svg" viewBox="0 0 456 320"><path fill="#99D2BD" id="OLF" d="M201 109c-1.048 0-3-.473-3 1 1.048 0 3 .473 3-1Z"/><path fill="#9AD1BD" id="MOB" d="M179 115c0 2.08-7.853 5.177-9.5 6-5.828 2.914-18.189 25.123-15.5 30.5 2.086 4.171.906 9.812 3 14 5.41 10.82 9.65 22.299 15 33l1 19 4 8c1.706 3.411 6.706 5.103 9.5 6.5 12.71 6.355 22.339.822 28.5-11.5 4.319-8.638 1.721-20.443 6-29 2.876-5.753-1.933-15.134 1-21l1-15c1.279-2.557 4.437-21.125 3-24-.608-1.216-6-13.221-6-13.5l-4.5-5c-.906-.453-7.5-2.584-7.5-3l-7-1c0 1.473-1.952 1-3 1h-3l-2 1h-2c0 1.353-4.643 2-6 2h-1l-2 1c0 1.473-1.952 1-3 1ZM277 115l10 6.5c5.726 5.726 19.856 23.288 15 33-1.813 3.627-1.192 8.383-3 12-4.83 9.661-9.204 19.408-14 29-2.635 5.269-.418 19.836-5 29-1.638 3.275-5.862 5.181-8.5 6.5-12.658 6.329-23.521 3.458-30.5-10.5-4.838-9.676-1.19-23.381-6-33-2.876-5.753 1.933-15.134-1-21l-1-15c-1.968-3.937-4.442-18.117-2-23l5-10.5 5-5 3-2c1.145 0 4 .579 4-1l7-1c0 1.473 1.952 1 3 1h3l2 1h3c0 1.069 6.717 3 8 3l3 1Z"/><path fill="#99D2BD" id="OLF" d="M255 109c1.048 0 3-.473 3 1-1.048 0-3 .473-3-1ZM195 110l-2 1 2-1ZM221 117l-1 1-4.5-5c-.906-.453-7.5-2.584-7.5-3 3.299 0 13 2.999 13 7ZM248 110c-1.145 0-4-.579-4 1 1.145 0 4 .579 4-1ZM261 110l2 1-2-1Z"/><path fill="#C7CBCA" id="onl" d="M185 112v1c1.357 0 6-.647 6-2-2.124 0-4.436 1-6 1Z"/><path fill="#99D2BD" id="OLF" d="M244 111c-2.003 0-3-.293-3 2l3-2Z"/><path fill="#C7CBCA" id="onl" d="M274 113v1c-1.283 0-8-1.931-8-3 3.303 0 5.115 2 8 2Z"/><path fill="#99D2BD" id="OLF" d="M184 113h1v-1l-1 1ZM182 114c0 1.473-1.952 1-3 1l3-2v1Z"/><path fill="#C7CBCA" id="onl" d="m184 113-2 1v-1h2Z"/><path fill="#99D2BD" id="OLF" d="m235 117 1 1 5-5c-1.417 0-6 2.383-6 4ZM274 114l3 1-3-2v1Z"/><path fill="#C7CBCA" id="onl" d="M299 221c0 3.515-4.514 5.528-6 8.5-5.285 10.569-13.517 11.008-22.5 15.5h-7c-3.354 1.677-11.534 6.233-16 4-9.297-4.648-13.058-14.616-17.5-23.5l-1.5-14.5-2.5 15.5c-4.202 8.404-8.168 17.834-17.5 22.5-4.466 2.233-12.646-2.323-16-4h-6c-11.224-5.612-17.777-4.054-24.5-17.5l-4-5.5-1-1v-1c0-11.591-1.248-29.997-6-39.5-2.106-4.211 0-16.427 0-21.5v-4c1.684 0 1-4.679 1-6v-1c1.473 0 1-1.952 1-3v-4l1-2v-1l1-2v-2l1-1v-1l1-1 1-2 1-1 1-1 1-1c0-3.361 15.063-11 18-11 0 2.08-7.853 5.177-9.5 6-5.828 2.914-18.189 25.123-15.5 30.5 2.086 4.171.906 9.812 3 14 5.41 10.82 9.65 22.299 15 33l1 19 4 8c1.706 3.411 6.706 5.103 9.5 6.5 12.71 6.355 22.339.822 28.5-11.5 4.319-8.638 1.721-20.443 6-29 2.876-5.753-1.933-15.134 1-21l1-15c1.279-2.557 4.437-21.125 3-24-.608-1.216-6-13.221-6-13.5l1-1c3.896 0 5.848 8.195 7 10.5l.5 2.5.5-5c0-1.278 4.421-8 6-8l1 1-5 10.5c-2.442 4.883.032 19.063 2 23l1 15c2.933 5.866-1.876 15.247 1 21 4.81 9.619 1.162 23.324 6 33 6.979 13.958 17.842 16.829 30.5 10.5 2.638-1.319 6.862-3.225 8.5-6.5 4.582-9.164 2.365-23.731 5-29 4.796-9.592 9.17-19.339 14-29 1.808-3.617 1.187-8.373 3-12 4.856-9.712-9.274-27.274-15-33l-10-6.5c6.732 0 14.635 10 18 10l2 2v1l2 2 1 2 1 1v2l2 4v3c0 1.048-.473 3 1 3v2c0 1.145-.579 4 1 4v5c0 1.235-.643 5 1 5v1c0 21.172-7 38.091-7 59Z"/><path fill="#99D2BD" id="OLF" d="m295 125 2 2-2-2ZM161 126l-1 1 1-1ZM159 128l-1 1 1-1ZM297 128l2 2-2-2ZM158 129l-1 2 1-2ZM157 131l-1 1 1-1ZM300 132l1 1-1-1ZM156 133l-1 1 1-1ZM301 135l2 4-2-4ZM155 136l-1 2 1-2ZM154 139l-1 2 1-2ZM303 142c1.473 0 1 1.952 1 3-1.473 0-1-1.952-1-3ZM153 145c-1.473 0-1 1.952-1 3 1.473 0 1-1.952 1-3ZM304 147c1.579 0 1 2.855 1 4-1.579 0-1-2.855-1-4ZM152 149c-1.684 0-1 4.679-1 6 1.684 0 1-4.679 1-6ZM305 156c1.643 0 1 3.765 1 5-1.643 0-1-3.765-1-5ZM151 159c-1.907 0-2 12.19-2 14.5 0 10.247-4.534 26.932 0 36l3 3c.772 1.544 2.732 7.5 5 7.5 0-11.591-1.248-29.997-6-39.5-2.106-4.211 0-16.427 0-21.5ZM306 162c1.799 0 1 13.384 1 15.5 0 12.422 3.573 22.855-2 34-.898 1.796-4.096 9.5-6 9.5 0-20.909 7-37.828 7-59ZM157 221l1 1-1-1Z"/></svg>