<svg xmlns="http://www.w3.org/2000/svg" viewBox="0 0 456 320"><path fill="#1E9C59" id="MOs1" d="M125 149c0 1.366-2.366 4-4 4l-7-15.5c-2.488-4.976 1.108-15.217 3-19 9.334-18.668 13.918-28.209 34.5-38.5 13.829-6.915 36.305-16.847 52-9 3.608 1.804 13.5 3.993 13.5 10 0 2.35-3 1.382-3 4h-1c0-3.66-7.45-4.975-9.5-6-10.218-5.11-30.218-2.89-40 2-14.213 7.106-30.517 14.535-38.5 30.5-2.908 5.816-2.615 13.229-5 18-2.156 4.313 5 15.528 5 19.5ZM331 150l4 3c2.155 0 3.233-6.965 4-8.5 4.153-8.306 4.201-20.599 0-29-9.974-19.948-25.383-30.942-44.5-40.5l-19-6c-8.253-4.127-36.5 3.72-36.5 12l4 3 7.5-5 10-3c5.377-2.688 18.797.899 23 3l9 2c5.887 2.943 12.131 5.066 18 8 11.678 5.84 19.472 20.444 24.5 30.5 2.06 4.12 2.057 16.887 0 21l-4 8.5v1Z"/><path fill="#1E9D58" id="MOs2/3" d="M125 149h1c3.953 0 5.466-6 9-6l-1-12.5c2.048-4.096 2.962-8.923 5-13 5.83-11.66 19.396-20.948 30.5-26.5 6.152-3.076 21.074-8.463 28-5 1.8.9 9.5-.005 9.5 3h2l4-4c0-3.66-7.45-4.975-9.5-6-10.218-5.11-30.218-2.89-40 2-14.213 7.106-30.517 14.535-38.5 30.5-2.908 5.816-2.615 13.229-5 18-2.156 4.313 5 15.528 5 19.5ZM321 143c3.524 0 5.962 6 10 6l4-8.5c2.057-4.113 2.06-16.88 0-21-5.028-10.056-12.822-24.66-24.5-30.5-5.869-2.934-12.113-5.057-18-8l-9-2c-4.203-2.101-17.623-5.688-23-3l-10 3-7.5 5v1l4 4h3c0-3.084 6.767-2.133 8.5-3 7.328-3.664 21.647 1.823 28 5 19.033 9.517 26.563 19.626 35.5 37.5 1.82 3.641-1 10.246-1 13.5v1Z"/><path fill="#3EA665" id="ACAd1" d="m222 87-5 1-3-3c0-2.618 3-1.65 3-4 1.462 0 5 4.277 5 6ZM239 89h1c0-1.429 1.288-4 3-4v-1l-4-3c-1.617 0-4 4.583-4 6l4 2Z"/><path fill="#1F9D58" id="MOs5" d="M135 143h1c0-2.809 12.198-10 14.5-10 2.082 0 5.221 2 7.5 2l5-10c-5.742 0 1.363-12.431 4.5-14 7.758-3.879 13.985-6 23.5-6 0-3.183 16-15.09 16-16 0-3.005-7.7-2.1-9.5-3-6.926-3.463-21.848 1.924-28 5-11.104 5.552-24.67 14.84-30.5 26.5-2.038 4.077-2.952 8.904-5 13l1 12.5Z"/><path fill="#40A565" id="ACAd2/3" d="M209 89c0 1.613 6.225 0 8 0v-1l-3-3h-1l-4 4ZM247 89v1l-7-1c0-1.429 1.288-4 3-4l4 4Z"/><path fill="#1F9D58" id="MOs5" d="M299 135c4.572 0 6.865-2.318 11.5 0 3.214 1.607 6.8 7 10.5 7 0-3.254 2.82-9.859 1-13.5-8.937-17.874-16.467-27.983-35.5-37.5-6.353-3.177-20.672-8.664-28-5-1.733.867-8.5-.084-8.5 3 0 2.811 15 11.972 15 16 9.604 0 15.67 2.085 23.5 6 3.035 1.517 11.296 14 4.5 14l6 10Z"/><path fill="#2FA750" id="PL1" d="M223 122h10l2-24.5 4-8.5-4-2c-2.45 0-5.089 7.678-6 9.5l-.5 2.5-6.5-12-5 1v1c0 2.215 3.875 9.25 5 11.5l1 21.5Z"/><path fill="#2EA84F" id="PL5" d="M199 113c6.898 0 12.806 8 20 8 0-7.677-.811-16.121-4-22.5-1.033-2.065-7-7.512-7-9.5h-1c0 .91-16 12.817-16 16 2.55 0 8 5.402 8 8Z"/><path fill="#2FA74F" id="PL2/3" d="m219 121 4 1-1-21.5c-1.125-2.25-5-9.285-5-11.5-1.775 0-8 1.613-8 0h-1c0 1.988 5.967 7.435 7 9.5 3.189 6.379 4 14.823 4 22.5ZM238 121l-5 1 2-24.5 4-8.5h1l7 1c0 .377-6.305 10.111-7 11.5-2.623 5.247-2 13.196-2 19.5ZM248 89l-1 1v-1h1Z"/><path fill="#2EA84F" id="PL5" d="M257 113c-6.495 0-12.243 8-19 8 0-6.304-.623-14.253 2-19.5.695-1.389 7-11.123 7-11.5l1-1h2c0 2.811 15 11.972 15 16-1.977 0-8 6.023-8 8Z"/><path fill="#258F45" id="FRP5" d="M186 114c4.873 0 9.123 3 13 3 3.746 0 0-2.104 0-4 0-2.598-5.45-8-8-8-9.515 0-15.742 2.121-23.5 6-3.137 1.569-10.242 14-4.5 14 7.97 0 14.512-11 23-11ZM270 114c8.375 0 15.216 11 23 11 6.796 0-1.465-12.483-4.5-14-7.83-3.915-13.896-6-23.5-6-1.977 0-8 6.023-8 8 0 2.061-2.431 4 1 4 0-2.97 9.641-3 12-3Z"/><path fill="#23885E" id="ORBm5" d="M212 144h1c5.227 0 6-19.14 6-23-7.194 0-13.102-8-20-8 0 1.896 3.746 4 0 4 0 7.208 13 19.165 13 27ZM238 121c0 5.593-2.039 23 6 23 0-5.535 14-22.466 14-27-3.431 0-1-1.939-1-4-6.495 0-12.243 8-19 8Z"/><path fill="#228A5D" id="ORBl5" d="M181 138c-10.781 0-16.058 25-30 25 0-7.55 7-22.233 7-28l5-10c7.97 0 14.512-11 23-11 0 7.99-4 16.1-4 23l-1 1Z"/><path fill="#23885C" id="ORBvl5" d="M182 137c6.762 0 17.706 1.103 23.5 4l6.5 3c0-7.835-13-19.792-13-27-3.877 0-8.127-3-13-3 0 7.99-4 16.1-4 23ZM275 137c-5.907 0-19.694 1.597-24.5 4l-6.5 3c0-5.535 14-22.466 14-27 0-2.97 9.641-3 12-3 0 7.544 5 14.333 5 23Z"/><path fill="#228A5D" id="ORBl5" d="M275 137c10.417 0 15.992 26 30 26 0-10.038-6-18.937-6-28l-6-10c-7.784 0-14.625-11-23-11 0 7.544 5 14.333 5 23Z"/><path fill="#24885D" id="ORBm2/3" d="M213 144c0 2.171 3.774 13 6 13 7.684 0 4-29.287 4-35l-4-1c0 3.86-.773 23-6 23ZM244 144l-6 13c-7.136 0-5-28.599-5-35l5-1c0 5.593-2.039 23 6 23Z"/><path fill="#23895D" id="ORBm1" d="m231 169 4 1c0-4.639 3-7.96 3-12v-1c-7.136 0-5-28.599-5-35h-10c0 5.713 3.684 35-4 35v1c0 4.11 2 7.296 2 12l4-1 2-2.5c2.04-4.079.027-4.945 2-1 .809 1.619 2 1.471 2 3.5Z"/><path fill="#209665" id="AId5" d="M136 143c0 7.366 8.207 20 15 20 0-7.55 7-22.233 7-28-2.279 0-5.418-2-7.5-2-2.302 0-14.5 7.191-14.5 10ZM321 143c0 6.342-8.659 20-16 20 0-10.038-6-18.937-6-28 4.572 0 6.865-2.318 11.5 0 3.214 1.607 6.8 7 10.5 7v1Z"/><path fill="#248A5D" id="ORBvl2/3" d="M219 157v1c-13.914 0-23.647-9-37-9 0-4.24-1-7.952-1-11l1-1c6.762 0 17.706 1.103 23.5 4l6.5 3h1c0 2.171 3.774 13 6 13ZM238 157v1c13.378 0 23.18-9 36-9 0-3.531 1-7.893 1-12-5.907 0-19.694 1.597-24.5 4l-6.5 3-6 13Z"/><path fill="#238A5E" id="ORBl2/3" d="m306 167 1 9c-5.611 0-27.213-27-33-27 0-3.531 1-7.893 1-12 10.417 0 15.992 26 30 26l1 4ZM151 167c0 2.723-1 5.778-1 9 4.862 0 25.08-26 32-26v-1c0-4.24-1-7.952-1-11-10.781 0-16.058 25-30 25v4Z"/><path fill="#209765" id="AId2/3" d="M143 177h1c0-2.278 5.334-10 7-10v-4c-6.793 0-15-12.634-15-20h-1c-3.534 0-5.047 6-9 6 0 8.282 17 21.914 17 28ZM306 167l7 9c4.273 0 15.862-26 18-26v-1c-4.038 0-6.476-6-10-6 0 6.342-8.659 20-16 20l1 4Z"/><path fill="#209764" id="AId1" d="m143 177-4 3-4.5-6-13.5-21c1.634 0 4-2.634 4-4h1c0 8.282 17 21.914 17 28Z"/><path fill="#248A5B" id="ORBvl1" d="M184 161c5.929 0 13.572-.464 18.5 2 5.223 2.612 12.416 7 18.5 7 0-4.704-2-7.89-2-12-13.914 0-23.647-9-37-9v1l2 11ZM273 161c-7.321 0-15.447-.027-21.5 3-4.657 2.329-11.074 6-16.5 6 0-4.639 3-7.96 3-12 13.378 0 23.18-9 36-9l-1 12Z"/><path fill="#238A5D" id="ORBl1" d="M305 182h1l1-5v-1c-5.611 0-27.213-27-33-27l-1 12c6.852 0 16.613 6.113 21.5 11 2.529 2.529 7.299 10 10.5 10ZM150 183h1l6-5.5c4.082-8.163 18.358-16.5 27-16.5l-2-11c-6.92 0-27.138 26-32 26v7Z"/><path fill="#209764" id="AId1" d="m313 177 4 3 5-5.5c2.256-4.512 13-17.525 13-21.5l-4-3c-2.138 0-13.727 26-18 26v1Z"/><path fill="#99D2BD" id="OLF" d="m154 201-1 4-2-2.5c-7.452-7.452 0-11.815 0-19.5l6-5.5c4.082-8.163 18.358-16.5 27-16.5 5.929 0 13.572-.464 18.5 2 5.223 2.612 12.416 7 18.5 7l4-1 1 10-4.5-6c-4.38-2.19-7.198-1-11.5-1 0-2.045-8.848-4.174-10.5-5-11.288-5.644-19.328-3.336-30 2-1.875.937-8.5 5.467-8.5 7l-1 1-1 1-1 1-1 1-1 1-1 1-1 1c0 3.69-4.087 9.326-2 13.5l2 4.5ZM302 200l1 5 2.5-3c7.575-7.575-.5-12.395-.5-20-3.201 0-7.971-7.471-10.5-10-4.887-4.887-14.648-11-21.5-11-7.321 0-15.447-.027-21.5 3-4.657 2.329-11.074 6-16.5 6l-4-1v8l3.5-4c3.55-1.775 7.167-2 11.5-2 4.917 0 9.358-3.929 13.5-6 9.588-4.794 18.774-.113 27 4 2.181 1.091 10.5 5.708 10.5 9l1 1 1 1 1 1 1 1 2 2c0 2.019 3.275 16-1 16Z"/><path fill="#54BF94" id="AON" d="M181 241c4.255 0 8.304 8 13 8 0-6.777 9-10.607 9-17 0-6.892-3-12.216-3-19h-1c-1.298 0-3.373 3.563-6.5 2l-9.5-19.5-3-5c1.535-3.07 8.474-.513 10.5.5 3.718 1.859 3.78 13.061 5.5 16.5l3 3.5h1l5-10.5c3.561-7.123 5-20.188 5-28.5 0-2.045-8.848-4.174-10.5-5-11.288-5.644-19.328-3.336-30 2-1.875.937-8.5 5.467-8.5 7l-1 1-1 1-1 1-1 1-1 1-1 1-1 1c0 3.69-4.087 9.326-2 13.5l2 4.5c4.277 0 3.08 4.79 5.5 6 .723.362 21.5 31.309 21.5 33v1ZM275 241c-3.754 0-7.21 7-12 7 0-2.347-5.269-9.769-7-11.5l-3-3.5c0-7.189 4-13.344 4-20h1c0 2.963 5.956 2.589 7 .5 3.184-6.368 6.731-12.462 10-19 .806-1.613 1.961-4.27-.5-5.5-1.495-.748-2.953.477-4 1l-5.5 1.5c-1.582 3.164-3.863 19.5-8 19.5-1.728 0-3.305-7.11-4-8.5l-5-14v-13l-2-4.5c4.917 0 9.358-3.929 13.5-6 9.588-4.794 18.774-.113 27 4 2.181 1.091 10.5 5.708 10.5 9l1 1 1 1 1 1 1 1 2 2c0 2.019 3.275 16-1 16-1.895 0-6.187 6.874-7 8.5-2.771 5.542-20 28.332-20 31.5v1Z"/><path fill="#219764" id="AIv2/3" d="M144 177h6v-1c0-3.222 1-6.277 1-9-1.666 0-7 7.722-7 10ZM307 177h6v-1l-7-9 1 9v1Z"/><path fill="#9AD1BD" id="MOB" d="m220 239-3 2c-3.059 0-6.945-.722-9.5-2l-4.5-7c0-6.892-3-12.216-3-19v-2l5-10.5c3.561-7.123 5-20.188 5-28.5 4.302 0 7.12-1.19 11.5 1l4.5 6v2c0 1.048-.473 3 1 3v38l-1 2v2l-1 2v2l-1 2-1 3-1 1-1 1v1l-1 1ZM233 234c3.246 0 2.559 7 7 7l8.5-2 4.5-6c0-7.189 4-13.344 4-20v-2c-1.728 0-3.305-7.11-4-8.5l-5-14v-13l-2-4.5c-4.333 0-7.95.225-11.5 2l-3.5 4c0 1.235.643 5-1 5v3c0 1.048.473 3-1 3 0 12.04 1 24.575 1 36 1.473 0 1 1.952 1 3v2l2 4v1Z"/><path fill="#CACAC9" id="lotd" d="m161 176-1 1 1-1Z"/><path fill="#209864" id="AIv1" d="M139 180c0 5.605 8.54 3 11 3v-6h-7l-4 3Z"/><path fill="#CACAC9" id="lotd" d="m160 177-1 1 1-1Z"/><path fill="#99D2BD" id="OLF" d="M231 177c-1.643 0-1 3.765-1 5 1.643 0 1-3.765 1-5Z"/><path fill="#209864" id="AIv1" d="M317 180c0 5.509-11 4.154-11 2l1-5h6l4 3Z"/><path fill="#CACAC9" id="lotd" d="m159 178-1 1 1-1ZM297 178l1 1-1-1ZM158 179l-1 1 1-1ZM157 180l-1 1 1-1ZM299 180l1 1-1-1ZM156 181l-1 1 1-1Z"/><path fill="#99D2BD" id="OLF" d="M226 181c1.473 0 1 1.952 1 3-1.473 0-1-1.952-1-3Z"/><path fill="#CACAC9" id="lotd" d="m155 182-1 1 1-1ZM301 182l2 2-2-2Z"/><path fill="#99D2BD" id="OLF" d="M230 185c-1.473 0-1 1.952-1 3 1.473 0 1-1.952 1-3Z"/><path fill="#CBCBC7" id="aco" d="M199 211v2c-1.298 0-3.373 3.563-6.5 2l-9.5-19.5-3-5c1.535-3.07 8.474-.513 10.5.5 3.718 1.859 3.78 13.061 5.5 16.5l3 3.5ZM257 212l1 1c0 2.963 5.956 2.589 7 .5 3.184-6.368 6.731-12.462 10-19 .806-1.613 1.961-4.27-.5-5.5-1.495-.748-2.953.477-4 1l-5.5 1.5c-1.582 3.164-3.863 19.5-8 19.5v1Z"/><path fill="#CAC8C7" id="lot" d="M275 240h1c6.344 0 25-24.749 25-31l1-1 1-3-1-5c-1.895 0-6.187 6.874-7 8.5-2.771 5.542-20 28.332-20 31.5ZM180 240h1c0-1.691-20.777-32.638-21.5-33-2.42-1.21-1.223-6-5.5-6l-1 4v1l2 2c0 5.505 18.49 32 25 32Z"/><path fill="#99D2BD" id="OLF" d="m153 206 2 2-2-2ZM302 208l-1 1 1-1ZM199 213h1v-2h-1v2ZM257 213h1l-1-1v1ZM227 222l-1 2 1-2ZM230 224c1.473 0 1 1.952 1 3-1.473 0-1-1.952-1-3ZM226 226l-1 2 1-2ZM231 229l2 4-2-4ZM225 230l-1 2 1-2Z"/><path fill="#62CF9E" id="TTv" d="M215 246c0 8.561-18.141 3-21 3 0-6.777 9-10.607 9-17l4.5 7c2.555 1.278 6.441 2 9.5 2v2l-1 2-1 1ZM243 248c0 4.882 20 2.566 20 0 0-2.347-5.269-9.769-7-11.5l-3-3.5-4.5 6-8.5 2 1 4 1 2 1 1Z"/><path fill="#99D2BD" id="OLF" d="m240 241 1 4c-2.551 0-8-8.984-8-11 3.246 0 2.559 7 7 7ZM223 235l-1 1 1-1ZM222 236l-1 1 1-1ZM221 238l-1 1 1-1ZM217 241v2c1.712 0 3-2.571 3-4l-3 2ZM181 240v1l-1-1h1ZM276 240l-1 1v-1h1ZM217 243l-1 2 1-2ZM216 245l-1 1 1-1ZM242 247l1 1-1-1Z"/></svg>