<svg xmlns="http://www.w3.org/2000/svg" viewBox="0 0 456 320"><path fill="#1E9C59" id="MOs1" d="M159 139c0 1.577-1.762 2-3 2-3.489 0-5.32-2-9-2-2.704 0-4.202-4.904-5-6.5-4.493-8.985 4.328-20.655 8-28l6.5-5.5 6-5c5.03-2.515 24.685-10.157 31-7l6.5 2-3 6c-5.08 0-12.203-1.148-16.5 1-1.046.523-3.5-.951-3.5 1l-2 1c-.922 0-3-1.68-3 1-1.238 0-3 .423-3 2-6.621 0-16.279 13.941-13 20.5.762 1.524 5 6.116 5 7.5l-2 10ZM309 139h1l1-1c0-.734 6.99-9.52 4-15.5-3.204-6.408-6.057-13.114-9-19-1.527-3.055-5.971-5.236-8.5-6.5-6.761-3.38-25.029-14.486-34-10l-6.5 2c0 2.72 2 3.553 2 6h13.5c1.21 0 5.5.814 5.5 2h1c1.424 0 5 .362 5 2h1c4.993 0 18.664 15.171 16 20.5-.931 1.861-6 8.644-6 9.5 0 4.597 2 5.717 2 10l4 2c2.885 0 4.697-2 8-2Z"/><path fill="#2FA750" id="PL1" d="M215 110c2.097 0 5.293 1 8 1 0-10.966-12.33-22-23-22l-3 6c3.143 0 9 2.264 9 6l1 1 1 1h1l1 2 1 1 4 4ZM242 110c-2.723 0-5.778 1-9 1 0-11.243 12.818-22 24-22 0 2.72 2 3.553 2 6-2.955 0-8 2.617-8 6h-1l-1 1-1 1-1 1-1 1-1 1v1c-1.539 0-3 1.342-3 3Z"/><path fill="#268F45" id="FRP1" d="M278 97c-5.807 0-14.005-2.747-19.5 0l-7.5 4c0-3.383 5.045-6 8-6h13.5c1.21 0 5.5.814 5.5 2ZM177 97c5.744 0 16.419-2.54 21.5 0l7.5 4c0-3.736-5.857-6-9-6-5.08 0-12.203-1.148-16.5 1-1.046.523-3.5-.951-3.5 1Z"/><path fill="#268E45" id="FRP2/3" d="M204 118h2c8.215 0 5-6.933 5-12l-1-1-1-2h-1l-1-1-1-1-7.5-4c-5.081-2.54-15.756 0-21.5 0l-2 1c0 1.473-1.952 1-3 1 0 1.577-1.762 2-3 2l-8 8.5c-6.626 13.253 13.08 9.5 18 9.5l2-1h2l6-3c1.918 0 15 1.386 15 3ZM277 119h1c10.588 0 23.546 3.591 15-13.5l-8-6.5h-1c-1.041 0-5-.986-5-2h-1c-5.807 0-14.005-2.747-19.5 0l-7.5 4h-1l-1 1-1 1-1 1-1 1-1 1v1c0 4.625-1.108 11 5 11h3c0-1.776 12.211-3 14-3 .698 0 7 2.714 7 3h1l2 1Z"/><path fill="#268F45" id="FRP1" d="M175 98c-.922 0-3-1.68-3 1 1.048 0 3 .473 3-1ZM177 97l-2 1 2-1ZM279 97c1.424 0 5 .362 5 2-1.041 0-5-.986-5-2ZM172 99c-1.238 0-3 .423-3 2 1.238 0 3-.423 3-2ZM278 119c0 1.729 14.114 10 17 10 0-.856 5.069-7.639 6-9.5 2.664-5.329-11.007-20.5-16-20.5l8 6.5c8.546 17.091-4.412 13.5-15 13.5ZM179 119c0 1.226-13.822 10-18 10 0-1.384-4.238-5.976-5-7.5-3.279-6.559 6.379-20.5 13-20.5l-8 8.5c-6.626 13.253 13.08 9.5 18 9.5ZM250 101l-1 1 1-1ZM207 102l1 1-1-1ZM249 102l-1 1 1-1ZM209 103l1 2-1-2ZM248 103l-1 1 1-1ZM247 104l-1 1 1-1ZM246 105l-1 1 1-1ZM206 118l2 1c1.428 0 6.015 3.47 7 1.5 1.019-2.038-1.054-10.5 0-10.5l-4-4c0 5.067 3.215 12-5 12ZM250 118l-2 1-4.5 2c-4.231 2.116-1.5-9.258-1.5-11 0-1.658 1.461-3 3-3 0 4.625-1.108 11 5 11Z"/><path fill="#23895D" id="ORBm1" d="M212 133c2.268 0 4.221 4.36 5.5 5 1.898.949 1.158-4 3.5-4 0-3.608 1.478-7.456 3-10.5 1.695-3.391-1-9.589-1-12.5-2.707 0-5.903-1-8-1-1.054 0 1.019 8.462 0 10.5-.985 1.97-5.572-1.5-7-1.5l4 14ZM245 133c-3.048 0-3.704 4.102-5.5 5-2.58 1.29-2.044-4-3.5-4l-3-8.5V111c3.222 0 6.277-1 9-1 0 1.742-2.731 13.116 1.5 11l4.5-2c0 4.932-3 8.768-3 14Z"/><path fill="#238A5E" id="ORBl2/3" d="M183 118h6v-3l-6 3Z"/><path fill="#248A5D" id="ORBvl2/3" d="M189 118h15c0-1.614-13.082-3-15-3v3ZM253 118h14v-3c-1.789 0-14 1.224-14 3Z"/><path fill="#238A5E" id="ORBl2/3" d="M267 118h7c0-.286-6.302-3-7-3v3Z"/><path fill="#268F45" id="FRP1" d="m181 118-2 1 2-1Z"/><path fill="#238A5D" id="ORBl1" d="M173 131c-2.898 0-10.136 8-14 8l2-10c4.178 0 18-8.774 18-10l2-1h8l-2 9-14 4Z"/><path fill="#248A5B" id="ORBvl1" d="M189 127c8.012 0 17.611 6 23 6l-4-14-2-1h-17l-2 9h2ZM267 127h2c0-3.324-2-6.16-2-9h-17l-2 1c0 4.932-3 8.768-3 14 4.066 0 14.494-6 22-6Z"/><path fill="#238A5D" id="ORBl1" d="M283 131c4.593 0 9.298 8 14 8 0-4.283-2-5.403-2-10-2.886 0-17-8.271-17-10h-1l-2-1h-8c0 2.84 2 5.676 2 9l14 4Z"/><path fill="#268F45" id="FRP1" d="m275 118 2 1-2-1Z"/><path fill="#9DF0D1" id="AOBgl" d="m173 141 6.5 4c4.892 2.446 9.527-3 13.5-3l1-8c0-2.923-5-5.576-5-7h-2l-14 4v10Z"/><path fill="#99D2BD" id="OLF" d="m218 144-1-1.5c-.706-1.411 1.598-1.951 2.5-1.5l3.5 4c0-3.038-2-6.399-2-11-2.342 0-1.602 4.949-3.5 4-1.279-.64-3.232-5-5.5-5-5.389 0-14.988-6-23-6 0 1.424 5 4.077 5 7 7.841 0 16.574-1.353 21 7.5l2 2.5h1ZM235 143c2.47 0 4-4.311 4 1l5.5-7c6.825-3.412 11.206-3 18.5-3 0-3.313 4-4.49 4-7-7.506 0-17.934 6-22 6-3.048 0-3.704 4.102-5.5 5-2.58 1.29-2.044-4-3.5-4l-1 9Z"/><path fill="#9DF0D1" id="AOBgl" d="m284 140-2.5 2c-7.334 7.334-11.193 0-17.5 0l-2-3.5 1-4.5c0-3.313 4-4.49 4-7h2l14 4c0 2.723 1 5.778 1 9Z"/><path fill="#99D2BD" id="OLF" d="M176 222c-3.236 0-3-1.057-3 3-1.6 0-6.753-17.007-8-19.5-6.004-12.007-12-28.806-12-43 0-3.014-2.677-8.646-1-12 .661-1.323 3-7.409 3-8.5l1-1c1.238 0 3-.423 3-2 3.864 0 11.102-8 14-8v10c-7.082 0-4 6.346-4 12-1.17 0-6-5.613-6 0-3.882 0-4 14.46-4 18 0 8.333 4.548 26.596 8 33.5l9 17.5ZM281 222c1.712 0 3-1.212 3 2 1.183 0 1.535-3.57 2-4.5 2.073-4.146 2.957-8.914 5-13 5.521-11.042 6.509-24.018 12-35 1.003-2.005-.056-4.888 1-7 3.151-6.302-2-17.057-2-22.5l-1-1-4-2c-4.702 0-9.407-8-14-8 0 2.723 1 5.778 1 9 5.974 0 4 8.738 4 12 2.101 0 5-3.911 5 1 5.348 0 4 14.317 4 18 0 12.833-5.621 30.742-11 41.5l-5 9.5Z"/><path fill="#9AD1BD" id="MOB" d="M173 225c0 9.984 19.465 26 29 26 8.943 0 13.799-10.098 17-16.5 7.431-14.862 7-36.212 7-54l-1-20c-1.384-2.767-8-14.294-8-16.5l-2-2.5c-4.426-8.853-13.159-7.5-21-7.5l-1 8 2 2.5c1.386 2.772-1 7.269-1 9.5 6.261 0 0 2.485 0 5 2.726 0 0 5.294 0 6 1.156 0 1.472 2.555 1 3.5-2.145 4.289-3 11.476-3 16.5 0 1.321.684 6-1 6v3l1 1c0 5.648 3.673 22-5 22l-6 3c0 2.203 3.465 4.569 2 7.5-1.119 2.237-7-4.026-7-5.5-3.236 0-3-1.057-3 3ZM284 224c0 9.621-19.604 27-29 27-10.843 0-13.274-10.048-17-17.5-7.352-14.704-7-31.697-7-49.5v-21.5c1.554-3.109 8-15.826 8-18.5l5.5-7c6.825-3.412 11.206-3 18.5-3l-1 4.5 2 3.5c-5.215 0-2 9.913-2 12-4.729 0 0 3.431 0 5v6c0 9.436 3 16.639 3 26 0 5.534-5.035 26 5 26l6 3-3 3.5c-.463.927-.317 5.408 1.5 4.5l6.5-6c1.712 0 3-1.212 3 2Z"/><path fill="#209764" id="AId1" d="m311 138-1 1 1-1ZM156 141l-1 1c-1.846 0-8 1.513-8-3 3.68 0 5.511 2 9 2ZM301 141l1 1c1.45 0 7 1.107 7-3-3.303 0-5.115 2-8 2Z"/><path fill="#9DEFD2" id="AOBmi" d="M169 153c0 6.195 25 8.709 25 1 0-2.231 2.386-6.728 1-9.5l-2-2.5c-3.973 0-8.608 5.446-13.5 3l-6.5-4c-7.082 0-4 6.346-4 12ZM287 153c0 4.468-14.487 8.006-18.5 6l-6.5-5c0-2.087-3.215-12 2-12 6.307 0 10.166 7.334 17.5 0l2.5-2c5.974 0 4 8.738 4 12l-1 1Z"/><path fill="#CAC8C9" id="von" d="M223 145c0 3.235 2 4.55 2 8-1.941 0-7-6.754-7-9l-1-1.5c-.706-1.411 1.598-1.951 2.5-1.5l3.5 4ZM231 153h1l7-9c0-5.311-1.53-1-4-1l-1 1c0 3.083-3 5.545-3 9Z"/><path fill="#99D2BD" id="OLF" d="m235 143-1 1 1-1Z"/><path fill="#C7CBCA" id="onl" d="M227 211c0 9.217.34 35.821-3 42.5-2.602 5.203-22 1.758-22-2.5 8.943 0 13.799-10.098 17-16.5 7.431-14.862 7-36.212 7-54l-1-20c-1.384-2.767-8-14.294-8-16.5h1c0 2.246 5.059 9 7 9 0 2.592.958 3.416 2 5.5l1 41.5c-1.773 0-1 9.259-1 11ZM231 154c0 2.654-.888 5.275-2 7.5V204c0 5.809-1.468 14.565 1 19.5l1 26 2.5 5.5c3.936 1.968 21.5.506 21.5-4-10.843 0-13.274-10.048-17-17.5-7.352-14.704-7-31.697-7-49.5v-21.5c1.554-3.109 8-15.826 8-18.5l-7 9-1 1Z"/><path fill="#CACAC9" id="lotd" d="M165 160h1c0-3.416 12.32 1.41 13.5 2 5.003 2.501 10.358-3 14.5-3 0-2.515 6.261-5 0-5 0 7.709-25 5.195-25-1-1.17 0-6-5.613-6 0l2 7ZM262 159l8.5 3c3.671 1.836 11.189-1.594 14-3 2.161-1.081 4.894 1 6.5 1 0-2.16 2-4.167 2-7 0-4.911-2.899-1-5-1l-1 1c0 4.468-14.487 8.006-18.5 6l-6.5-5c-4.729 0 0 3.431 0 5Z"/><path fill="#99D2BD" id="OLF" d="m288 152-1 1 1-1Z"/><path fill="#CAC8C7" id="lot" d="M181 220c0 2.203 3.465 4.569 2 7.5-1.119 2.237-7-4.026-7-5.5l-9-17.5c-3.452-6.904-8-25.167-8-33.5 0-3.54.118-18 4-18l2 7v2l-2 3.5c-4.586 9.171 6.412 33.824 10 41 1.198 2.395 4.438 13.5 8 13.5Z"/><path fill="#99D2BD" id="OLF" d="m232 153-1 1v-1h1Z"/><path fill="#CAC8C7" id="lot" d="m276 220-3 3.5c-.463.927-.317 5.408 1.5 4.5l6.5-6 5-9.5c5.379-10.758 11-28.667 11-41.5 0-3.683 1.348-18-4-18 0 2.833-2 4.84-2 7v1l1 2c0 13.323.914 24.672-5 36.5-2.272 4.545-3.761 9.522-6 14l-5 6.5Z"/><path fill="#95E4C8" id="AOBgr" d="M194 165c0 5.384-7.289 4-11 4-5.385 0-10.112-7-15-7l-2-2c0-3.416 12.32 1.41 13.5 2 5.003 2.501 10.358-3 14.5-3 2.726 0 0 5.294 0 6ZM262 165l2.5 4h8.5c5.646 0 10.776-7 16-7l2-1v-1c-1.606 0-4.339-2.081-6.5-1-2.811 1.406-10.329 4.836-14 3l-8.5-3v6Z"/><path fill="#99D2BD" id="OLF" d="M165 162h3l-2-2h-1v2ZM289 162l3 1-1-2-2 1Z"/><path fill="#54BF94" id="AON" d="m187 217-6 3c-3.562 0-6.802-11.105-8-13.5-3.588-7.176-14.586-31.829-10-41l2-3.5h3c4.888 0 9.615 7 15 7 0 1.714 2 3.482 2 6-5.164 0 1.248 11.995 2 13.5 4.507 9.015 0 20.831 0 28.5ZM270 217l6 3 5-6.5c2.239-4.478 3.728-9.455 6-14 5.914-11.828 5-23.177 5-36.5l-3-1c-5.224 0-10.354 7-16 7 0 1.714-2 3.482-2 6 5.521 0-1.243 12.985-2 14.5-.866 1.732-3.075 17.851-2 20 1.449 2.897 3 5.028 3 7.5Z"/><path fill="#99D2BD" id="OLF" d="M185 175c3.023 0 6 13.776 6 16 1.684 0 1-4.679 1-6 0-5.024.855-12.211 3-16.5.472-.945.156-3.5-1-3.5 0 5.384-7.289 4-11 4 0 1.714 2 3.482 2 6ZM271 175c-4.971 0-2.127 16-6 16 0-9.361-3-16.564-3-26l2.5 4h8.5c0 1.714-2 3.482-2 6Z"/><path fill="#CBCBC7" id="aco" d="M192 195c0 5.648 3.673 22-5 22 0-7.669 4.507-19.485 0-28.5-.752-1.505-7.164-13.5-2-13.5 3.023 0 6 13.776 6 16v3l1 1ZM265 191c0 5.534-5.035 26 5 26 0-2.472-1.551-4.603-3-7.5-1.075-2.149 1.134-18.268 2-20 .757-1.515 7.521-14.5 2-14.5-4.971 0-2.127 16-6 16Z"/><path fill="#99D2BD" id="OLF" d="m191 194 1 1-1-1ZM228 200c-1.773 0-1 9.259-1 11 1.773 0 1-9.259 1-11Z"/></svg>