<svg xmlns="http://www.w3.org/2000/svg" viewBox="0 0 456 320"><path fill="#1E9D5A" id="MOp1" d="M197 30c-10.349 0-19.622 3-30 3l1-6c10.297 0 19.336-2 30-2l-1 5Z"/><path fill="#1E9C59" id="MOs1" d="M222 43h1l4-2-6-6.5c-3.563-7.126-13.922-9.5-23-9.5l-1 5c7.28 0 25 3.747 25 13ZM234 43h1c0-10.343 16.369-13 24-13v-5c-7.828 0-29 5.803-29 16 1.24 0 1.576 2 4 2Z"/><path fill="#1E9D5A" id="MOp1" d="M259 30c10.349 0 19.622 3 30 3l-1-6c-9.869 0-18.694-2-29-2v5Z"/><path fill="#187F60" id="SSp-ll1" d="M139 41h1c0-1.722 5.235-2.368 6.5-3 4.874-2.437 14.991-5 20.5-5l1-6c-7.043 0-16.451 2.976-22.5 6-1.437.719-9.5 1.343-9.5 3 0 1.947 3 2.636 3 5ZM317 41h1l2-6c-9.685 0-21.085-8-32-8l1 6h1c6.21 0 16.056 3.278 21.5 6 1.114.557 5.5.41 5.5 2Z"/><path fill="#1F9C58" id="MOp2/3" d="M165 48c0 1.714-2 3.482-2 6 9.48 0 20.029-13 31-13h1l2-11c-10.349 0-19.622 3-30 3 0 4.906-2 9.387-2 15Z"/><path fill="#1E9D58" id="MOs2/3" d="M216 48h1c0-3.495 5-1.85 5-5 0-9.253-17.72-13-25-13l-2 11c5.112 0 21-2.655 21 7ZM235 43c0 1.977 2.876 4 5 4l6.5-6c4.681-2.34 10.917 0 15.5 0 0-3.379-3-7.874-3-11-7.631 0-24 2.657-24 13Z"/><path fill="#1F9C58" id="MOp2/3" d="m292 48 1 6c-8.024 0-20.466-13-31-13 0-3.379-3-7.874-3-11 10.349 0 19.622 3 30 3h1l2 15Z"/><path fill="#187F64" id="SSp-ll2/3" d="M165 48c-6.852 0-12.879 5-20 5l-5-12c0-1.722 5.235-2.368 6.5-3 4.874-2.437 14.991-5 20.5-5 0 4.906-2 9.387-2 15ZM292 48l19 5 6-12c0-1.59-4.386-1.443-5.5-2-5.444-2.722-15.29-6-21.5-6l2 15Z"/><path fill="#197E64" id="SSp-ul1" d="m349 49-2 5c-10.106 0-18.69-13-29-13l2-6c5.014 0 25.328 14 29 14ZM108 49l1 6c4.831 0 22.068-14 30-14 0-2.364-3-3.053-3-5-7.759 0-23.027 13-28 13Z"/><path fill="#1F9D58" id="MOs5" d="M190 57c3.03 0 7.056-3.722 10.5-2l4.5 2c4.992 0 6.218-9 11-9 0-9.655-15.888-7-21-7h-1l-4 16ZM266 57c-2.776 0-6.446-3.527-9.5-2l-5.5 3c0-2.456-9.407-10-11-10v-1l6.5-6c4.681-2.34 10.917 0 15.5 0 0 5.377 4 11.366 4 16Z"/><path fill="#197F61" id="SSp-ul2/3" d="M114 68h1l6-3.5c3.01-3.01 19.806-10.5 24-10.5v-1l-5-12h-1c-7.932 0-25.169 14-30 14 0 4.227 5 9.274 5 13Z"/><path fill="#1E9C5A" id="MOp5" d="m189 58-27 13 1-16v-1c9.48 0 20.029-13 31-13l-4 16-1 1Z"/><path fill="#3EA665" id="ACAd1" d="M223 67h10c0-8.017 1-16.609 1-24-2.424 0-2.76-2-4-2-.476 0-3 3.803-3 0l-4 2v24Z"/><path fill="#1E9C5A" id="MOp5" d="M267 58c9.83 0 17.956 13 28 13l-2-17c-8.024 0-20.466-13-31-13 0 5.377 4 11.366 4 16l1 1Z"/><path fill="#197F61" id="SSp-ul2/3" d="M347 55c0 1.426-4.256 12-5 12-8.767 0-20.823-13-31-13v-1l6-12h1c10.31 0 18.894 13 29 13v1Z"/><path fill="#40A565" id="ACAd2/3" d="m223 67-5 1-1-20c0-3.495 5-1.85 5-5h1v24ZM233 67l6 1c0-6.573 1-14.1 1-20v-1c-2.124 0-5-2.023-5-4h-1c0 7.391-1 15.983-1 24Z"/><path fill="#1C7F64" id="SSp-ll4" d="M163 55c-5.461 0-9.393 6-14 6 0-1.443-2.591-7-4-7v-1c7.121 0 13.148-5 20-5 0 1.714-2 3.482-2 6v1Z"/><path fill="#3EA566" id="ACAd5" d="M218 68c-3.923 0-7.462 6-11 6l-2-15v-2c4.992 0 6.218-9 11-9h1l1 20ZM239 69c4.469 0 7.077 5 11 5l1-15v-1c0-2.456-9.407-10-11-10 0 5.9-1 13.427-1 20v1Z"/><path fill="#1C7F64" id="SSp-ll4" d="m311 54-4 6-14-6-1-6 19 5v1Z"/><path fill="#1B8062" id="SSp-un1" d="m90 60 4 4 15-9-1-6c-4.546 0-9.532 6.016-13.5 8L90 60ZM366 60l-3 4c-5.738 0-10.262-9-16-9v-1l2-5c4.049 0 8.915 6.208 12.5 8l4.5 3Z"/><path fill="#1A7F63" id="SSp-ul4" d="m115 68 2 7c9.943 0 21.897-14 32-14 0-1.443-2.591-7-4-7-4.194 0-20.99 7.49-24 10.5l-6 3.5Z"/><path fill="#197C63" id="SSp-ll5" d="M295 71c2.709 0 4.646 2 8 2 1.616 0 4-9.991 4-12v-1l-14-6 2 17Z"/><path fill="#1A7F63" id="SSp-ul4" d="M342 68c0 1.345-1.571 7-3 7-9.699 0-21.357-14-32-14v-1l4-6c10.177 0 22.233 13 31 13v1Z"/><path fill="#1C7F63" id="SSp-un2/3" d="M101 75h1c0-1.773 10.318-7 12-7 0-3.726-5-8.773-5-13l-15 9v1c2.155 0 7 7.83 7 10Z"/><path fill="#197C63" id="SSp-ll5" d="M161 71h1l1-16c-5.461 0-9.393 6-14 6l4 13 8-3Z"/><path fill="#1D9C5A" id="MOs6a" d="M187 79h2c0-1.643 3.765-1 5-1 0-3.051 7.596-19 11-19v-2l-4.5-2c-3.444-1.722-7.47 2-10.5 2l-1 1c0 6.921-2 13.402-2 21ZM263 78l6 1c0-3.225 1.824-10.852 0-14.5-1.07-2.14-2-3.887-2-6.5l-1-1c-2.776 0-6.446-3.527-9.5-2l-5.5 3v1c3.837 0 12 15.222 12 19Z"/><path fill="#1C7F63" id="SSp-un2/3" d="m342 68 13 6c0-1.986 6.511-9 8-9v-1c-5.738 0-10.262-9-16-9 0 1.426-4.256 12-5 12v1Z"/><path fill="#1F9B5A" id="MOp6a" d="m190 57-1 1 1-1ZM173 85c-4.38 0-8.2 4-12 4V71h1l27-13c0 6.921-2 13.402-2 21l-8 4c-1.623 0-6 .005-6 2ZM269 79l26 10V71c-10.044 0-18.17-13-28-13 0 2.613.93 4.36 2 6.5 1.824 3.648 0 11.275 0 14.5Z"/><path fill="#3FA664" id="ACAd6a" d="M198 82h1c0-2.073 6.148-7 8-7v-1l-2-15c-3.404 0-11 15.949-11 19 1.923 0 4 2.104 4 4ZM261 79c-2.215 0-1.519 2-3 2l-8-6v-1l1-15c3.837 0 12 15.222 12 19l-2 1Z"/><path fill="#197E63" id="SSp-n1" d="M49 112c2.72 0 3.553 2 6 2 0-9.541 19.844-37.172 27.5-41 3.736-1.868 7.121-8 11.5-8v-1l-4-4c-4.375 0-7.725 7.113-11.5 9-8.593 4.297-29.5 34.472-29.5 43ZM401 114h1l5-2c0-10.172-21.298-39.899-31.5-45-2.402-1.201-5.811-7-9.5-7l-3 4v1c4.131 0 6.972 6.236 10.5 8 9.152 4.576 27.5 31.194 27.5 41Z"/><path fill="#187E62" id="SSp-ul5" d="M121 87h1c6.158 0 22.816-13 31-13l-4-13c-10.103 0-22.057 14-32 14v1c0 3.843 4 6.746 4 11ZM339 76l-4 11c-5.801 0-23.88-13-32-13v-1c1.616 0 4-9.991 4-12 10.643 0 22.301 14 32 14v1Z"/><path fill="#1B7F64" id="SSp-n2/3" d="m55 115 8 5 4-8.5C72.927 99.647 85.06 75 101 75c0-2.17-4.845-10-7-10-4.379 0-7.764 6.132-11.5 8-7.656 3.828-27.5 31.459-27.5 41v1ZM401 114c0 2.291-6.136 6-8 6 0-12.607-23.801-45-38-45v-1c0-1.986 6.511-9 8-9 4.131 0 6.972 6.236 10.5 8 9.152 4.576 27.5 31.194 27.5 41Z"/><path fill="#3FA566" id="ACAv2/3" d="m222 99-3 2c0-10.198-1-22.119-1-33l5-1c0 10.355-1 21.268-1 31v1Z"/><path fill="#40A664" id="ACAv1" d="m229 91 5 6c0-9.624-1-19.833-1-30h-10c0 10.355-1 21.268-1 31l5-7c0-4.252 2-4.466 2 0Z"/><path fill="#3FA566" id="ACAv2/3" d="m234 99 4 2 1-32v-1l-6-1c0 10.167 1 20.376 1 30v2Z"/><path fill="#197E61" id="SSp-un4" d="M106 82h1c0-1.544 8.285-6 10-6v-1l-2-7h-1c-1.682 0-12 5.227-12 7 1.283 0 4 5.666 4 7Z"/><path fill="#3EA666" id="ACAv5" d="M211 99c2.885 0 4.697 2 8 2 0-10.198-1-22.119-1-33-3.923 0-7.462 6-11 6v1c0 8.332 3 15.455 3 23l1 1Z"/><path fill="#197E61" id="SSp-un4" d="M349 82h1c0-1.867 3.514-7 5-7v-1l-13-6c0 1.345-1.571 7-3 7v1c1.969 0 10 3.732 10 6Z"/><path fill="#3EA666" id="ACAv5" d="m245 99-7 2 1-32c4.469 0 7.077 5 11 5v1c0 7.215-3 14.797-3 22l-1 1-1 1Z"/><path fill="#1A7F64" id="SSp-ll6a" d="M158 91h1l2-2V71l-8 3 5 17ZM295 89l3 1c1.951 0 .477-2.454 1-3.5 1.933-3.867 4-7.89 4-12.5v-1c-3.354 0-5.291-2-8-2v18Z"/><path fill="#197D61" id="SSp-ul6a" d="M128 103h1l4-2c0-1.353 4.643-2 6-2l4-2c0-.819 13.394-6 15-6l-5-17c-8.184 0-24.842 13-31 13l6 16ZM298 91c6.136 0 25.383 12 30 12 0-1.985 5.05-15 7-15v-1c-5.801 0-23.88-13-32-13 0 4.61-2.067 8.633-4 12.5-.523 1.046.951 3.5-1 3.5v1Z"/><path fill="#1A8062" id="SSp-n4" d="m63 121 6 4c0-5.04 17.275-30.388 22.5-33l11-8 3.5-2c0-1.334-2.717-7-4-7h-1c-15.94 0-28.073 24.647-34 36.5l-4 8.5v1Z"/><path fill="#40A564" id="ACAv6a" d="m208 97 2 1c0-7.545-3-14.668-3-23-1.852 0-8 4.927-8 7 0 6.156 9 9.538 9 15ZM249 96l-2 1c0-7.203 3-14.785 3-22l8 6v1l-3 7c-1.274 0-6 5.715-6 7Z"/><path fill="#1A8062" id="SSp-n4" d="M387 125h1l5-4v-1c0-12.607-23.801-45-38-45-1.486 0-5 5.133-5 7l10.5 7c8.115 4.058 26.5 27.86 26.5 36Z"/><path fill="#197D62" id="SSp-un5" d="M121 87c0 1.197-7.528 5-9 5l-5-10c0-1.544 8.285-6 10-6 0 3.843 4 6.746 4 11ZM344 92h1c0-4.046 4-6.085 4-10 0-2.268-8.031-6-10-6l-4 11v1l9 4Z"/><path fill="#1E9C58" id="MOs6b" d="M189 79h5v-1c-1.235 0-5-.643-5 1Z"/><path fill="#3FA466" id="ACAd6b" d="M197 82h1c0-1.896-2.077-4-4-4v1l3 3ZM261 79h2v-1l-2 1Z"/><path fill="#1E9C58" id="MOs6b" d="M269 79v1l-6-1v-1l6 1Z"/><path fill="#1D9D5A" id="MOp6b" d="m187 81-8 2 8-4v2Z"/><path fill="#1E9C58" id="MOs6b" d="m189 79-2 2v-2h2Z"/><path fill="#CACCC7" id="cing" d="m210 98 1 1c-9.816 0-12.904-10.202-20.5-14-5.97-2.985-13.128 4-18.5 4l-1 1h-1l-1 1h-1c-1.235 0-5 .643-5-1 0-2.695 10-1.77 10-5 1.623 0 6-.005 6-2l8-2 2-2h5l3 3c0 3.294 7.866 15 11 15l2 1Z"/><path fill="#3FA466" id="ACAd6b" d="M258 82h1l2-3c-2.215 0-1.519 2-3 2v1Z"/><path fill="#CACCC7" id="cing" d="m246 98-1 1c10.101 0 12.259-9.88 20.5-14 7.071-3.535 14.662 5 20.5 5l2 1h1c1.235 0 5 .643 5-1-2.342 0-16.822-5.661-19.5-7-.752-.376-5.5-2.841-5.5-3l-6-1h-2l-2 3c0 1.572-2.052 7-4 7 0 2.42-3.312 7-6 7l-2 1-1 1Z"/><path fill="#1D9D5A" id="MOp6b" d="M294 90h1v-1l-26-10v1c0 .159 4.748 2.624 5.5 3 2.678 1.339 17.158 7 19.5 7Z"/><path fill="#197E62" id="SSp-n5" d="M76 130h2l1-1c0-9.436 23.225-36 33-36v-1l-5-10h-1l-3.5 2-11 8C86.275 94.612 69 119.96 69 125c2.696 0 3.847 5 7 5Z"/><path fill="#40A465" id="ACAv6b" d="M199 82c0 6.156 9 9.538 9 15-3.134 0-11-11.706-11-15h2ZM259 82c0 1.572-2.052 7-4 7l3-7h1Z"/><path fill="#197E62" id="SSp-n5" d="m378 129 2 1c1.622 0 7-2.996 7-5 0-8.14-18.385-31.942-26.5-36L350 82h-1c0 3.915-4 5.954-4 10 0 2.197 19.419 11.338 22 16.5l11 20.5Z"/><path fill="#1D9D5A" id="MOp6b" d="M179 83c-1.623 0-6 .005-6 2 1.623 0 6-.005 6-2ZM161 90h2c0-2.695 10-1.77 10-5-4.38 0-8.2 4-12 4v1Z"/><path fill="#C9C7C9" id="ccb" d="m368 156 1 5-5-8.5-7-14c-2.427-4.855-7.606-8.211-10-13l-6-5c-15.204-15.204-29.799-17.5-50-17.5 0-8.499-26-11.268-26-6l-2 1-1 1h-1c-1.238 0-3 .423-3 2l-2 1-1 1h-1l-1 1c-6.9 0-14.072 5-19 5h-2c0-2.475-7-1.445-7 0h-2c-6.592 0-12.664-5-20-5l-1-1h-1l-2-2h-1c0-1.428-4.822-4-6-4h-1c0-2.275-6.303-3-8-3-5.415 0-17 2.416-17 9-26.167 0-37.423 3.923-57 23.5-6.419 6.419-12.12 15.239-16 23-.728 1.456-1.87 7.5-4 7.5v-3l1-1v-1l1-2v-1l1-2 1-2 1-2 1-2 2-4c1.568 0 10-12.227 10-14 3.121 0 5.239-6.369 8.5-8 7.011-3.505 13.085-8.542 20-12 8.092-4.046 17.765-4.882 26-9 1.265-.632 6.5-1.278 6.5-3h1l1-1h1l1-1c5.372 0 12.53-6.985 18.5-4 7.596 3.798 10.684 14 20.5 14 2.885 0 4.697 2 8 2l3-2c0 3.664 6.104 0 6.5 0 .25 0 5.5 3.2 5.5 0l4 2 7-2c10.101 0 12.259-9.88 20.5-14 7.071-3.535 14.662 5 20.5 5l2 1h1c0 2.734 7.862 3.362 9.5 5 1.007 1.007 30.993 11.496 36 14 7.479 3.74 18.876 16.252 22.5 23.5.85 1.7 4.119 10.5 6 10.5v1c0 1.238.423 3 2 3v1l2 4v2l1 1Z"/><path fill="#1A7F61" id="SSp-un6a" d="M126 105c-2.72 0-3.553 2-6 2-1.324 0-5.272-14-8-14v-1c1.472 0 9-3.803 9-5h1l6 16-2 2ZM328 103l8 4 1.5-3c2.143-2.143 6.5-9.098 6.5-12l-9-4c-1.95 0-7 13.015-7 15Z"/><path fill="#197F62" id="SSp-ll6b" d="m161 90-2 1 2-2v1Z"/><path fill="#C9C9CA" id="scwm" d="m172 89-1 1 1-1Z"/><path fill="#40A465" id="ACAv6b" d="M255 89c-1.274 0-6 5.715-6 7 2.688 0 6-4.58 6-7Z"/><path fill="#197F62" id="SSp-ll6b" d="M298 91v1l-3-2v-1l3 1v1Z"/><path fill="#C9C9CA" id="scwm" d="M107 122v1c3.121 0 5.239-6.369 8.5-8 7.011-3.505 13.085-8.542 20-12 8.092-4.046 17.765-4.882 26-9 1.265-.632 6.5-1.278 6.5-3-1.235 0-5 .643-5-1h-2l-2 1c0 3.45-13.074 6-16 6 0 2.109-2.535 2-4 2 0 1.995-4.377 2-6 2l-4 3c0 1.473-1.952 1-3 1 0 1.803-3.592 3-5 3l-2 1c0 1.747-.253 2-2 2 0 1.747-.253 2-2 2l-2 2-6 6v1ZM170 90l-1 1 1-1ZM286 90l2 1-2-1ZM363 143v1c-1.881 0-5.15-8.8-6-10.5-3.624-7.248-15.021-19.76-22.5-23.5-5.007-2.504-34.993-12.993-36-14-1.638-1.638-9.5-2.266-9.5-5 1.235 0 5 .643 5-1h1l3 2c0 2.033 7.021 2.26 8.5 3 2.938 1.469 19.342 9 21.5 9l8 5 13 12c0 4.264 14 15.14 14 22Z"/><path fill="#1C8064" id="SSp-ul6b" d="M159 91c0 3.45-13.074 6-16 6 0-.819 13.394-6 15-6h1Z"/><path fill="#7ED04B" id="IG" d="M222 99c0 3.664 6.104 0 6.5 0 .25 0 5.5 3.2 5.5 0v-2l-5-6c0 1.93-1.161 0-2 0l-5 7v1Z"/><path fill="#1C8064" id="SSp-ul6b" d="M328 103v1c-2.158 0-18.562-7.531-21.5-9-1.479-.74-8.5-.967-8.5-3v-1c6.136 0 25.383 12 30 12Z"/><path fill="#187D62" id="SSp-n6a" d="M378 129v1c-9.874 0-15.128-8-27-8 0-1.339-13.606-14-15-14v-1l1.5-3c2.143-2.143 6.5-9.098 6.5-12h1c0 2.197 19.419 11.338 22 16.5l11 20.5ZM104 123c-9.59 0-15.127 6-25 6 0-9.436 23.225-36 33-36 2.728 0 6.676 14 8 14v1l-1 1-2 2c-1.747 0-2 .253-2 2-1.747 0-2 .253-2 2-2.473 0-6 3.527-6 6l-2 1-1 1Z"/><path fill="#AAA8A9" id="SEZ" d="m166 103 3 1c0-11.007 15.148-7 22-7 0-2.275-6.303-3-8-3-5.415 0-17 2.416-17 9ZM291 103l-4 2c0-12.53-13.21-8-22-8 0-5.268 26-2.499 26 6Z"/><path fill="#A8AAAA" id="VL" d="M193 166v1c-2.924 0-5.119-5.738-6-7.5-6.468-12.936 8.781-24.438 4-34-1.568-3.135-5.055 1.111-6 3-1.987 3.974-2 10.234-2 15V157c-1.274 0-2-7.483-2-9 0-7.762 1.723-19.055-2-26.5-1.825-3.65-10-14.097-10-17.5 0-11.007 15.148-7 22-7h1c0 1.428 4.822 4 6 4h1l2 2h1l1 1c0 10.034-10 17.897-10 29l-2 7c0 4.622-3.441 14.618-1 19.5l3 6.5ZM264 165v2c1.885 0 5.213-6.927 6-8.5 5.693-11.387-9.201-24.599-5-33 1.125-2.249 5.35.7 6 2 2.414 4.827 2 11.673 2 17.5v14c2.238 0 2-9.802 2-12 0-7.893-1.297-17.905 2-24.5l10-17.5c0-12.53-13.21-8-22-8l-2 1-1 1h-1c0 1.577-1.762 2-3 2l-2 1-1 1h-1l-1 1c0 7.289 10 16.892 10 27 1.059 0 2 6.743 2 8 0 5.156 4.946 14.608 2 20.5-.895 1.79-3 3.403-3 5.5Z"/><path fill="#1C8064" id="SSp-ul6b" d="m143 97-4 2c1.465 0 4 .109 4-2Z"/><path fill="#AAA8A9" id="SEZ" d="M192 97c1.178 0 6 2.572 6 4-1.178 0-6-2.572-6-4Z"/><path fill="#40A564" id="ACAv6a" d="m247 97-1 1 1-1Z"/><path fill="#AAA8A9" id="SEZ" d="m265 97-2 1 2-1ZM263 98l-1 1 1-1Z"/><path fill="#1C8064" id="SSp-ul6b" d="M139 99c-1.357 0-6 .647-6 2 1.623 0 6-.005 6-2Z"/><path fill="#AAA8A9" id="SEZ" d="M261 99c-1.238 0-3 .423-3 2 1.238 0 3-.423 3-2Z"/><path fill="#1C8064" id="SSp-ul6b" d="M129 103v1l4-3-4 2Z"/><path fill="#AAA8A9" id="SEZ" d="m199 101 2 2-2-2ZM258 101l-2 1 2-1Z"/><path fill="#98D5F9" id="CP" d="M133 229c-6.145 0-11.213 6-18 6-9.737 0-17.988-16-20-16v-2l-2-3v-1c0-1.403-2.71-9-4-9v-1c0-1.424-.362-5-2-5v-1c0-1.221-2.205-9-3-9v-1c0-1.321.684-6-1-6v-7l1-1v-3l1-1v-2l1-2 1-2v-1c1.638 0 2-3.576 2-5 2.13 0 3.272-6.044 4-7.5 3.88-7.761 9.581-16.581 16-23 19.577-19.577 30.833-23.5 57-23.5l3 1c0 3.403 8.175 13.85 10 17.5 3.723 7.445 2 18.738 2 26.5l-5.5 7-8 2c-4.904 2.452-2.5 17.123-2.5 22l-6 8.5-1 10.5c-.835 0-2 11.646-2 13l-1 2-1 2-1 1c-2.587 0-20 11.109-20 13Z"/><path fill="#AAA8A9" id="SEZ" d="m256 102-1 1 1-1Z"/><path fill="#98D5F9" id="CP" d="M351 232c-3.391 0-5.353 3-9 3-14.273 0-30.12-19-39-19v-1l-2-2v-1c0-4.514-2-8.092-2-13 0-1.145.579-4-1-4 0-6.678-6-14.778-6-15 0-4.641 1.144-20.678-3.5-23l-8-2-5.5-8c0-7.893-1.297-17.905 2-24.5l10-17.5 4-2c20.201 0 34.796 2.296 50 17.5l6 5c2.394 4.789 7.573 8.145 10 13l7 14 5 8.5v1l2 4v2l1 1 1 6v11c-1.663 0-2 5.407-2 7-1.473 0-1 1.952-1 3l-1 1v2l-1 2c-1.473 0-1 1.952-1 3v1l-2 4v1l-1 2-1 2v1l-1 2-1 2-1 2-1 2-1 1-1 1-5 6-1 1Z"/><path fill="#1A7D63" id="SSp-un6b" d="M129 104c0 1.473-1.952 1-3 1l2-2h1v1Z"/><path fill="#AAA8A9" id="SEZ" d="m202 103 1 1-1-1ZM254 103l-1 1 1-1Z"/><path fill="#1A7D63" id="SSp-un6b" d="M336 108v1l-8-5v-1l8 4v1Z"/><path fill="#90CBEC" id="LSc" d="m193 133 4 1 8.5-4c2.773-1.387 17.5-17.386 17.5-19v-2c-6.592 0-12.664-5-20-5 0 10.034-10 17.897-10 29ZM263 131c0 2.747-.253 3-3 3-9.674 0-15.842-13.671-22.5-17l-4.5-6 1-2c4.928 0 12.1-5 19-5 0 7.289 10 16.892 10 27Z"/><path fill="#1A7D63" id="SSp-un6b" d="M120 108h1c1.408 0 5-1.197 5-3-2.72 0-3.553 2-6 2v1Z"/><path fill="#CBC8CC" id="df" d="M230 111h1l1-2c0-2.475-7-1.445-7 0l2 2h3Z"/><path fill="#1B7E64" id="SSp-n6b" d="m121 108-2 1 1-1h1ZM349 121l2 1c0-1.339-13.606-14-15-14v1l13 12ZM119 109l-2 2c1.747 0 2-.253 2-2Z"/><path fill="#97D6F9" id="STR" d="M227 111v1l-4-1v-2h2l2 2ZM231 111h2l1-2h-2l-1 2Z"/><path fill="#1B7E64" id="SSp-n6b" d="M117 111c-1.747 0-2 .253-2 2 1.747 0 2-.253 2-2Z"/><path fill="#90CAED" id="LSr" d="M195 138h1l1-1 14-6c4.906 0 16-14.84 16-19l-4-1c0 1.614-14.727 17.613-17.5 19l-8.5 4c0 1.457-3 1.46-3 4h1Z"/><path fill="#8FCBEC" id="SF" d="m263 167-5 2c0-13.965-14.859-33.18-28.5-40-5.086-2.543-13.543 10-16.5 10 0-3.015-2-6.004-2-8 4.906 0 16-14.84 16-19v-1h2l1 2c0 2.605 11.924 18 15 18 0 2.268-3.29 3.921-2 6.5 3.483 6.966 14.373 1.747 18 9 1.138 2.275-1.658 6.685-1 8 2.842 5.684 5-4.41 5-6.5 0-3.804-4-6.885-4-10h1l3 1c0 5.156 4.946 14.608 2 20.5-.895 1.79-3 3.403-3 5.5l-1 2Z"/><path fill="#97D6F9" id="STR" d="M230 111v2l-1-2h1Z"/><path fill="#90CAED" id="LSr" d="M261 138h1l-2-4c-9.674 0-15.842-13.671-22.5-17l-4.5-6h-3v2c0 2.605 11.924 18 15 18l16 7Z"/><path fill="#1A7E62" id="SSs1" d="M37 176h4c0-15.438 1.52-33.541 8-46.5.974-1.949 4.227-14.5 6-14.5v-1c-2.447 0-3.28-2-6-2l-10 28.5c-2.382 4.764-2 28.325-2 35.5ZM415 176h5c0-11.182-.657-35.814-5-44.5-1.669-3.337-8-16.463-8-19.5l-5 2c0 4.841 6.638 18.776 9 23.5 3.53 7.061 4 29.225 4 38.5Z"/><path fill="#1B7E64" id="SSp-n6b" d="M115 113c-1.747 0-2 .253-2 2l2-2Z"/><path fill="#1B8063" id="SSs2/3" d="M407 176h8c0-9.275-.47-31.439-4-38.5-2.362-4.724-9-18.659-9-23.5h-1c0 2.291-6.136 6-8 6v1c3.02 0 3.978 9.456 5 11.5 6.184 12.368 9 28.707 9 43.5ZM41 176h8c0-14.874 3.74-31.98 10-44.5.883-1.765 1.45-10.5 4-10.5v-1l-8-5c-1.773 0-5.026 12.551-6 14.5-6.48 12.959-8 31.062-8 46.5Z"/><path fill="#1B7E64" id="SSp-n6b" d="M113 115c-2.473 0-6 3.527-6 6l6-6Z"/><path fill="#187C63" id="SSs4" d="m55 175-6 1c0-14.874 3.74-31.98 10-44.5.883-1.765 1.45-10.5 4-10.5l6 4c0 2.639-6.522 13.544-8 16.5-3.845 7.691-6 24.149-6 33.5Z"/><path fill="#1B7E64" id="SSp-n6b" d="M105 122h2v-1l-2 1Z"/><path fill="#188064" id="SSp-m6b" d="M363 143h1v-1c0-6.106-13-17.45-13-20l-2-1c0 4.264 14 15.14 14 22Z"/><path fill="#187C63" id="SSs4" d="M401 175c2.124 0 4.436 1 6 1 0-14.793-2.816-31.132-9-43.5-1.022-2.044-1.98-11.5-5-11.5l-5 4c0 4.709 4.916 11.332 7 15.5 4.258 8.516 6 24.105 6 34.5Z"/><path fill="#187D61" id="SSp-m6a" d="M104 123h1v-1l-1 1Z"/><path fill="#188064" id="SSp-m6b" d="M105 123h2v-1h-2v1Z"/><path fill="#187D61" id="SSp-m6a" d="M379 132c-3.404 0-10.521 10-15 10 0-6.106-13-17.45-13-20 11.872 0 17.126 8 27 8l1 1v1ZM78 132c4.886 0 8.496 10 14 10 2.141 0 3.277-11 7-11 0-1.238.423-3 2-3 0-2.364 3-3.053 3-5-9.59 0-15.127 6-25 6l-1 1v2Z"/><path fill="#188064" id="SSp-m6b" d="M105 123c0 1.562-2.189 5-4 5 0-2.364 3-3.053 3-5h1Z"/><path fill="#C9C9CA" id="scwm" d="m99 131-2 6c1.568 0 10-12.227 10-14h-2c0 1.562-2.189 5-4 5 0 1.238-.423 3-2 3Z"/><path fill="#A9AAA8" id="chpl" d="M193 167v2c-5.645 0-9.01-11-10-11v-14.5c0-4.766.013-11.026 2-15 .945-1.889 4.432-6.135 6-3 4.781 9.562-10.468 21.064-4 34 .881 1.762 3.076 7.5 6 7.5Z"/><path fill="#1C8063" id="SSs5" d="M55 175h13c0-7.538 2.187-27.874 5-33.5 1.574-3.148 4-5.683 4-9.5l-1-2c-3.153 0-4.304-5-7-5 0 2.639-6.522 13.544-8 16.5-3.845 7.691-6 24.149-6 33.5Z"/><path fill="#A9AAA8" id="chpl" d="M263 167h1c1.885 0 5.213-6.927 6-8.5 5.693-11.387-9.201-24.599-5-33 1.125-2.249 5.35.7 6 2 2.414 4.827 2 11.673 2 17.5v14c-2.671 0-3.803 10-9 10l-1-2Z"/><path fill="#1C8063" id="SSs5" d="M389 175h12c0-10.395-1.742-25.984-6-34.5-2.084-4.168-7-10.791-7-15.5h-1c0 2.004-5.378 5-7 5l-1 1v1l4 8.5c2.983 5.967 6 26.905 6 34.5Z"/><path fill="#188064" id="SSp-m6b" d="M101 128c-1.577 0-2 1.762-2 3 1.577 0 2-1.762 2-3Z"/><path fill="#96A7D2" id="TRS" d="M198 169c3.336 0 7.061 5.22 11.5 3 5.411-2.705 10.604-6.302 16-9 6.375-3.187 16.276 6.638 21 9 4.443 2.221 8.314-3 11.5-3 0-13.965-14.859-33.18-28.5-40-5.086-2.543-13.543 10-16.5 10 0 4.655-15 18.976-15 30Z"/><path fill="#1B7E63" id="SSp-m5" d="m380 130-1 1-1-1v-1l2 1ZM77 132h1v-2h-2l1 2Z"/><path fill="#188064" id="SSp-m6b" d="M93 143h1l1-2c0-1.465-.109-4 2-4l2-6c-3.723 0-4.859 11-7 11v1h1Z"/><path fill="#CBC8CB" id="fi" d="M194 139c0 2.772-1.833 5.167-3 7.5-.6 1.201 1.807 10.346 3.5 9.5 3.644-1.822.09-7.68 1.5-10.5.801-1.603 15.235-6.5 17-6.5 0-3.015-2-6.004-2-8l-14 6-1 1h-1l-1 1ZM245 131l16 7c0 3.115 4 6.196 4 10 0 2.09-2.158 12.184-5 6.5-.658-1.315 2.138-5.725 1-8-3.627-7.253-14.517-2.034-18-9-1.29-2.579 2-4.232 2-6.5Z"/><path fill="#97D6F9" id="STR" d="m262 138 3 1c0-1.257-.941-8-2-8 0 2.747-.253 3-3 3l2 4Z"/><path fill="#197D63" id="SSs6a" d="M68 175h14c0-2.538 3.294-16 5-16 0-2.626 3.737-16 5-16v-1c-5.504 0-9.114-10-14-10h-1c0 3.817-2.426 6.352-4 9.5-2.813 5.626-5 25.962-5 33.5ZM375 175h14c0-7.595-3.017-28.533-6-34.5l-4-8.5c-3.404 0-10.521 10-15 10v1c2.535 0 2.229 5.958 3 7.5 3.188 6.375 8 17.188 8 24.5Z"/><path fill="#97D6F9" id="STR" d="m194 139-3 1 2-7 4 1c0 1.457-3 1.46-3 4v1Z"/><path fill="#C9C9CA" id="scwm" d="M97 137c-2.109 0-2 2.535-2 4l2-4Z"/><path fill="#8FCBEC" id="SF" d="m197 137-1 1 1-1ZM195 138l-1 1v-1h1ZM193 166c1.947 0 2.636 3 5 3 0-11.024 15-25.345 15-30-1.765 0-16.199 4.897-17 6.5-1.41 2.82 2.144 8.678-1.5 10.5-1.693.846-4.1-8.299-3.5-9.5 1.167-2.333 3-4.728 3-7.5l-3 1c0 4.622-3.441 14.618-1 19.5l3 6.5Z"/><path fill="#C9C9CA" id="scwm" d="m95 141-1 2 1-2Z"/><path fill="#1A8061" id="SSs6b" d="m89 157-2 2c0-2.626 3.737-16 5-16h1v2l-1 2-1 2v1l-1 2v1l-1 1v3Z"/><path fill="#C9C9CA" id="scwm" d="m94 143-1 2v-2h1Z"/><path fill="#1A8061" id="SSs6b" d="M375 175v1l-2-1-1-6-1-1v-2l-2-4v-1l-1-5-1-1v-2l-2-4v-1c0-1.238-.423-3-2-3v-2h1c2.535 0 2.229 5.958 3 7.5 3.188 6.375 8 17.188 8 24.5Z"/><path fill="#C9C9CA" id="scwm" d="m93 145-1 2 1-2ZM363 145c1.577 0 2 1.762 2 3-1.577 0-2-1.762-2-3ZM92 147l-1 2 1-2Z"/><path fill="#97D6F9" id="STR" d="m287 179 5 1c0-4.641 1.144-20.678-3.5-23l-8-2-5.5-8c0 2.198.238 12-2 12 0 2.833-2 4.84-2 7h2l1-1c2.511 0 5-4.795 5 1h4c0-3.182 5.181-10.137 8-4.5 2.621 5.241-4 13.732-4 17.5ZM165 179h4c0-4.97-6.01-12.48-3-18.5 2.243-4.486 7 2.651 7 5.5h4c0-3.97 2.104-2 4-2l1 1h1l3 2c0-2.86-3-5.58-3-9v-1c-1.274 0-2-7.483-2-9l-5.5 7-8 2c-4.904 2.452-2.5 17.123-2.5 22Z"/><path fill="#C9C9CA" id="scwm" d="m365 149 2 4-2-4ZM91 150l-1 2 1-2ZM90 153l-1 1 1-1ZM367 155l1 1-1-1Z"/><path fill="#C9C7C9" id="ccb" d="M87 159v3c1.638 0 2-3.576 2-5l-2 2Z"/><path fill="#A8AAAA" id="VL" d="M192 173h1v-4c-5.645 0-9.01-11-10-11 0 3.42 3 6.14 3 9l2 3 2 2 2 1Z"/><path fill="#1A8061" id="SSs6b" d="M82 176h1v-2l1-1v-3l1-1v-2l1-2 1-2v-4c-1.706 0-5 13.462-5 16v1Z"/><path fill="#CCC" d="m169 179 4 9.5c1.518 3.036 0 6.886 0 9.5 1.748 0 1.417 8 2.5 8 1.484 0 1.013-6.525 1.5-7.5 2.881-5.762 1.663-20.674-1-26l-3-6.5c0-2.849-4.757-9.986-7-5.5-3.01 6.02 3 13.53 3 18.5Z"/><path fill="#A8AAAA" id="VL" d="M264 173h1l1-1 1-1 1-1 1-1 1-1 1-2c0-2.16 2-4.167 2-7-2.671 0-3.803 10-9 10v4Z"/><path fill="#CCC" d="M287 179c0 4.4-4 12.284-4 21-2.029 0 .042 6.271-2.5 5-2.645-1.322-.403-7.307-1.5-9.5-4.688-9.375 4-23.111 4-29.5 0-3.182 5.181-10.137 8-4.5 2.621 5.241-4 13.732-4 17.5Z"/><path fill="#C9C7C9" id="ccb" d="m369 162 2 4-2-4ZM87 163l-1 2 1-2Z"/><path fill="#C8CBC7" id="st" d="M179 177v4l4.5 4c6.564-3.282-.5-16.645-.5-20h-1l-1-1c-1.896 0-4-1.97-4 2 0 3.222 1 6.277 1 9l1 2Z"/><path fill="#A8A9AA" id="V3" d="m226 223 1 1.5v3c2.156 4.311 1.895-4.5 4-4.5v-5l1-1v-5c0-3.629 1-8.716 1-13v-12.5c.912-1.824 4-6.619 4-8.5 0-1.614 3.31-1 4.5-1 5.634 0 11.428-1 16.5-1l4-1 1-1 1-1v-4l-1-2-5 2c-3.186 0-7.057 5.221-11.5 3-4.724-2.362-14.625-12.187-21-9-5.396 2.698-10.589 6.295-16 9-4.439 2.22-8.164-3-11.5-3-2.364 0-3.053-3-5-3v7l6 3c2.914 0 22 .772 22 4 0 4.912 3 11.739 3 17v18l1 2 1 6Z"/><path fill="#C8CBC7" id="st" d="M277 179v3c-2.24 0-1.703 4.399-4.5 3-1.365-.682-3.154-12.192-2.5-13.5l3-5.5 1-1c2.511 0 5-4.795 5 1v8l-1 1v3l-1 1Z"/><path fill="#B3C0DE" id="BST" d="m181 164 1 1-1-1Z"/><path fill="#C9C7C9" id="ccb" d="m86 165-1 2 1-2Z"/><path fill="#B3C0DE" id="BST" d="M195 235h4l2-1 1-1h1l1-1c0-3.814.68-7 5-7l1-9.5c-1.132-2.263-4-4.862-4-7.5 0-1.564-1-3.876-1-6v-1c-.918 0-1.548-3.595-2-4.5v-5c-1.403-2.806-4-7.305-4-10.5l-2.5-4-4.5-4-2-1-2-2-2-3-3-2c0 3.355 7.064 16.718.5 20l-4.5-4v21.5c-1.225 2.451-2 6.684-2 9.5l-1 1v1c0 4.797 3 10.336 3 12l10 7 6 2Z"/><path fill="#A8A9AA" id="V3" d="M263 167h1v-2l-1 2Z"/><path fill="#B3C0DE" id="BST" d="m274 165-1 1 1-1Z"/><path fill="#8599CC" id="PAL" d="M172 219c0-20.635-17.517 2-21 2l2-5 1-1 1-2 1-2 2-3 1.5 2c8.54 4.27 13.5-5.685 13.5-12 1.748 0 1.417 8 2.5 8 1.484 0 1.013-6.525 1.5-7.5 2.881-5.762 1.663-20.674-1-26l-3-6.5h4c0 3.222 1 6.277 1 9l1 2v25.5c-1.225 2.451-2 6.684-2 9.5l-1 1v1c-1.927 0-.106 5-4 5Z"/><path fill="#B3C0DE" id="BST" d="M257 235h4c2.72 0 3.553-2 6-2 4.109 0 5.974-7 10-7l3-3.5c1.569-3.138 0-6.102 0-9.5 0-3.721-1.36-10.22-3-13.5V182c-2.24 0-1.703 4.399-4.5 3-1.365-.682-3.154-12.192-2.5-13.5l3-5.5h-2l-1 2-1 1-1 1-1 1-1 1-1 1h-1l-1 1-1 1-4 5c0 6.093-5 11.54-5 18.5 0 .854-1.157 4.5-2 4.5v1c0 1.145.579 4-1 4 0 2.854-1.822 4.145-3 6.5-1.489 2.977 1 8.046 1 10.5 4.112 0 4 3.894 4 7l1 1h1l1 1h1l1 1Z"/><path fill="#8599CC" id="PAL" d="M285 219c0-19.688 14.754 1 20 1l-2-4v-1l-2-2v-1l-3-4c0 3.704-8.941 1.779-10.5 1-2.657-1.328-2.689-9-4.5-9-2.029 0 .042 6.271-2.5 5-2.645-1.322-.403-7.307-1.5-9.5-4.688-9.375 4-23.111 4-29.5h-4v2c1.399 0 1.399 2 0 2v4l-1 1v3l-1 1v20.5c1.64 3.28 3 9.779 3 13.5 1.608 0 .926 6 5 6Z"/><path fill="#97D6F9" id="STR" d="m270 168-1 1 1-1Z"/><path fill="#B3C0DE" id="BST" d="M279 168c1.399 0 1.399 2 0 2v-2Z"/><path fill="#C9C7C9" id="ccb" d="m371 168 1 1-1-1ZM85 169l-1 1 1-1Z"/><path fill="#97D6F9" id="STR" d="m269 169-1 1 1-1ZM188 170l2 2-2-2ZM268 170l-1 1 1-1ZM267 171l-1 1 1-1ZM266 172l-1 1 1-1Z"/><path fill="#C8CBCC" id="ec" d="m84 173-1 1 1-1Z"/><path fill="#B3C0DE" id="BST" d="m279 174-1 1 1-1Z"/><path fill="#11AC82" id="VISC4" d="M52 189h3v-14l-6 1 3 13Z"/><path fill="#12AD82" id="VISC5" d="M68 184c-4.76 0-8.787 4-13 4v-13h13v9Z"/><path fill="#11AC83" id="VISC6a" d="M82 181c-5.783 0-8.754 3-14 3v-9h14v6Z"/><path fill="#B3C0DE" id="BST" d="m178 175 1 2-1-2Z"/><path fill="#11AD82" id="VISC6b" d="M373 181h2v-5l-2-1v6Z"/><path fill="#11AC83" id="VISC6a" d="M375 181c4.67 0 8.668 3 13 3 0-2.389 1-5.987 1-9h-14v6Z"/><path fill="#12AD82" id="VISC5" d="M388 184c5.016 0 8.778 4 13 4v-13h-12c0 3.013-1 6.611-1 9Z"/><path fill="#11AC82" id="VISC4" d="M404 189h1c0-4.757 2-7.969 2-13-1.564 0-3.876-1-6-1v13l3 1Z"/><path fill="#12AD83" id="VISC1" d="M44 193c0 1.577-1.762 2-3 2-2.672 0-4-15.598-4-19h4l3 17Z"/><path fill="#12AC83" id="VISC2/3" d="M44 193h1l7-4-3-13h-8l3 17Z"/><path fill="#11AD82" id="VISC6b" d="M82 181h1v-5h-1v5Z"/><path fill="#CAC7CB" id="fiber tracts" d="M205 194v7c-.918 0-1.548-3.595-2-4.5v-5c-1.403-2.806-4-7.305-4-10.5v-5c2.914 0 22 .772 22 4l-3-2c-.671 0-5 1.328-5 2l-1 1c-1.547 0-2.024 6 1 6h1l1 4-4-1c0-3.037-5.562-8.376-8-3.5-1.271 2.542 2 5.368 2 7.5ZM251 195v8c.843 0 2-3.646 2-4.5 0-6.96 5-12.407 5-18.5v-4c-5.072 0-10.866 1-16.5 1-1.19 0-4.5-.614-4.5 1l2 1c4.868 0 10.391 8 4 8h-1l-1 4 4-1 1.5-3 1-2c7.478-3.739 6.117 10 3.5 10Z"/><path fill="#12AC83" id="VISC2/3" d="m405 189 7 4c0-5.509 3-10.754 3-17h-8c0 5.031-2 8.243-2 13Z"/><path fill="#12AD83" id="VISC1" d="m412 193 3 3c2.103 0 5-17.012 5-20h-5c0 6.246-3 11.491-3 17Z"/><path fill="#FF6F80" id="TH" d="M217 185h2c0-1.819-1-4.591-1-7-.671 0-5 1.328-5 2 3.564 0 4 1.868 4 5Z"/><path fill="#FE8F9E" id="PVT" d="M224 197c-1.481 0-.785 2-3 2 0-5.171-2-9.545-2-14 0-1.819-1-4.591-1-7l3 2c0 4.912 3 11.739 3 17ZM233 199l2 1c0-2.546 1.657-15 3-15l1-2v-4l-2-1c0 1.881-3.088 6.676-4 8.5V199Z"/><path fill="#B3C0DE" id="BST" d="m278 178-1 1 1-1Z"/><path fill="#8598CC" id="GPe" d="M173 198c0 6.315-4.96 16.27-13.5 12l-1.5-2v-10l1-10.5 6-8.5h4l4 9.5c1.518 3.036 0 6.886 0 9.5Z"/><path fill="#FF6F80" id="TH" d="m239 183 2.5-3c4.212-2.106 1.5 6.814 1.5 7 6.391 0 .868-8-4-8v4Z"/><path fill="#8598CC" id="GPe" d="M283 200c1.811 0 1.843 7.672 4.5 9 1.559.779 10.5 2.704 10.5-1v-13c0-6.678-6-14.778-6-15l-5-1c0 4.4-4 12.284-4 21Z"/><path fill="#FF6F80" id="TH" d="m213 180-1 1 1-1Z"/><path fill="#FF909F" id="PT" d="M213 187h1c1.481 0 .785-2 3-2 0-3.132-.436-5-4-5l-1 1 1 6ZM242 187h1c0-.186 2.712-9.106-1.5-7l-2.5 3 1 2 2 2Z"/><path fill="#009B74" id="GU6a" d="M71 195h1l8-2c1.481 0 .785-2 3-2l-1-10c-5.783 0-8.754 3-14 3l3 11Z"/><path fill="#019C74" id="GU6b" d="M83 191h1v-4c-1.684 0-1-4.679-1-6h-1l1 10Z"/><path fill="#C8CBCC" id="ec" d="M83 181c1.684 0 1 4.679 1 6-1.684 0-1-4.679-1-6Z"/><path fill="#FF6F80" id="TH" d="M212 181c-1.547 0-2.024 6 1 6l-1-6Z"/><path fill="#019C74" id="GU6b" d="M373 186v4c.792 0 2-7.987 2-9h-2v5Z"/><path fill="#009B74" id="GU6a" d="m377 193 8 2c0-3.697 3-6.94 3-11-4.332 0-8.33-3-13-3 0 1.013-1.208 9-2 9v1l4 2Z"/><path fill="#FF6F80" id="TH" d="M238 185h2l-1-2-1 2Z"/><path fill="#019C75" id="GU5" d="M58 197h1c0-2.238 9.802-2 12-2l-3-11c-4.76 0-8.787 4-13 4v1l3 7v1ZM398 196h1l2-8c-4.222 0-7.984-4-13-4 0 4.06-3 7.303-3 11l13 1Z"/><path fill="#CCC9C8" id="sm" d="M211 190c-2.33 0-3.227 4-6 4 0-2.132-3.271-4.958-2-7.5 2.438-4.876 8 .463 8 3.5Z"/><path fill="#CCC8CC" id="mct" d="m221 199-.5 5c-3.194 3.194-.532 0-3.5 0 0-4.559-2-11.089-2-13l-1-4c1.481 0 .785-2 3-2h2c0 4.455 2 8.829 2 14ZM235 200c0 4.462 4 9.798 4 2 0-4.135 2-7.305 2-11l1-4-2-2h-2c-1.343 0-3 12.454-3 15Z"/><path fill="#CCC9C8" id="sm" d="M245 190c1.442 0 6 3.274 6 5 2.617 0 3.978-13.739-3.5-10l-1 2-1.5 3Z"/><path fill="#C8CBCC" id="ec" d="m373 191-2 2c0-1.593.337-7 2-7v5ZM84 191l3 6c0-1.221-2.205-9-3-9v3Z"/><path fill="#009C74" id="GU4" d="M401 197h1l2-8-3-1-2 8 2 1Z"/><path fill="#009B75" id="GU2/3" d="M58 197c-4.296 0-7.018 2-11 2l-2-6 7-4c0 4.174 1.845 7 6 7v1Z"/><path fill="#009C74" id="GU4" d="m55 189 3 7c-4.155 0-6-2.826-6-7h3Z"/><path fill="#009B75" id="GU2/3" d="m402 197 7 2 3-6-7-4h-1l-2 8Z"/><path fill="#C7C8CA" id="fx" d="M210 209h3l4-5c0-4.559-2-11.089-2-13l-4-1c-2.33 0-3.227 4-6 4v8c1.951 0 .477 2.454 1 3.5l4 3.5ZM243 209h3l5-5v-9c0-1.726-4.558-5-6-5l-4 1c0 3.695-2 6.865-2 11 1.951 0 .477 2.454 1 3.5l3 3.5Z"/><path fill="#8ADA86" id="CLA" d="M85 207h2l2-2v-1l-1-1v-2l-1-1v-3l-3-6h-1c-2.215 0-1.519 2-3 2 0 3.943-3.048 14 5 14ZM370 207h2c6.306 0 5-9.653 5-14l-4-2-2 2c0 1.048.473 3-1 3v1l-1 2v2l-1 1v2l2 3Z"/><path fill="#009C75" id="GU1" d="m47 200-4 1c0-1.974-2-3.517-2-6 1.238 0 3-.423 3-2h1l2 6v1Z"/><path fill="#209766" id="AIp6a" d="M79 213h1c0-3.079 5-4.308 5-6-8.048 0-5-10.057-5-14l-8 2c0 6.921 7 11.517 7 18Z"/><path fill="#C8CBCC" id="ec" d="M371 193c-1.473 0-1 1.952-1 3 1.473 0 1-1.952 1-3Z"/><path fill="#209766" id="AIp6a" d="M376 213h1c0-6.352 8-11.466 8-18l-8-2c0 4.347 1.306 14-5 14 0 2.317 4 2.674 4 6Z"/><path fill="#009C75" id="GU1" d="m409 199 4 2c1.638 0 2-3.576 2-5l-3-3-3 6Z"/><path fill="#219864" id="AIp5" d="m77 215-4 1c0-1.911-14-12.144-14-19 0-2.238 9.802-2 12-2h1c0 6.921 7 11.517 7 18l-2 2Z"/><path fill="#97D6F9" id="STR" d="m298 208 3 4c0-4.514-2-8.092-2-13 0-1.145.579-4-1-4v13Z"/><path fill="#219864" id="AIp5" d="m379 215 5 1 10.5-12 3.5-7v-1l-13-1c0 6.534-8 11.648-8 18l2 2Z"/><path fill="#C8CBCC" id="ec" d="M369 197h1v-1l-1 1Z"/><path fill="#009B75" id="GU2/3" d="M398 197h3l-2-1h-1v1Z"/><path fill="#209865" id="AIp2/3" d="M73 216c0 .865-8.68 4-10 4-4.156 0-14.659-20-16-20v-1c3.982 0 6.704-2 11-2h1c0 6.856 14 17.089 14 19Z"/><path fill="#CAC7CB" id="fiber tracts" d="M224 215v1l-4.5-7H213l4-5c2.968 0 .306 3.194 3.5 0l.5-5c2.215 0 1.519-2 3-2v18Z"/><path fill="#209766" id="AIp6a" d="m370 197-1 2v-2h1Z"/><path fill="#209865" id="AIp2/3" d="M384 216c0 1.291 8.283 4 10 4 1.904 0 15-18.591 15-21l-7-2h-4l-3.5 7-10.5 12Z"/><path fill="#C8CBCC" id="ec" d="M88 203h1c0-1.424-.362-5-2-5v2l1 1v2Z"/><path fill="#97D6F9" id="STR" d="m158 208-2 3c0-1.354 1.165-13 2-13v10Z"/><path fill="#CAC7CB" id="fiber tracts" d="m232 212 1 2c1.139 0 1.452-5 10-5l-3-3.5c-.523-1.046.951-3.5-1-3.5 0 7.798-4 2.462-4-2l-2-1c0 4.284-1 9.371-1 13Z"/><path fill="#C8CBCC" id="ec" d="M368 201h1v-2l-1 2Z"/><path fill="#219765" id="AIp1" d="m394 220 4 3c2.272 0 15-18.782 15-22l-4-2c0 2.409-13.096 21-15 21ZM63 220l-5 3c-1.084 0-15-19.077-15-22l4-1c1.341 0 11.844 20 16 20Z"/><path fill="#209766" id="AIp6a" d="m87 200 1 1-1-1Z"/><path fill="#C8CBCC" id="ec" d="M367 204h1v-3c-1.473 0-1 1.952-1 3Z"/><path fill="#209766" id="AIp6a" d="m369 201-1 1v-1h1Z"/><path fill="#CAC7CB" id="fiber tracts" d="m206 208 4 1-4-3.5c-.523-1.046.951-3.5-1-3.5 0 2.124 1 4.436 1 6Z"/><path fill="#209766" id="AIp6a" d="M89 203v1l-1-1h1Z"/><path fill="#C8CBCC" id="ec" d="m90 208 3 5c0-1.403-2.71-9-4-9v1l1 3Z"/><path fill="#CAC7CB" id="fiber tracts" d="m250 208-4 1 5-5c0 1.145.579 4-1 4Z"/><path fill="#209766" id="AIp6a" d="M367 207h3l-2-3h-1v3ZM87 207l3 1-1-3-2 2Z"/><path fill="#C8CBCC" id="ec" d="m367 207-2 2 2-4v2Z"/><path fill="#A0EE9C" id="EPd" d="M97 231h3v-3l-5-9v-2c-1.577 0-2-1.762-2-3v-1l-3-5-3-1h-2c0 1.692-5 2.921-5 6 0 3.138 5.854 14 10 14l1 1 6 3ZM360 231h1l1-1 3-1 2-2 1-1 1-1h1l1-1v-1l1-1 1-1 1-1 1-1v-1l1-1v-4c0-3.326-4-3.683-4-6h-5l-2 2v1l-1 2-1 2v1l-1 2-1 2-1 2-1 2-1 1-1 1v2l-1 1v1c0 2.109 2.535 2 4 2Z"/><path fill="#E64438" id="HY" d="M212 230c3.382 0 12-1.661 12 5 2.836 0-.836-12 2-12l-1-6-1-1-4.5-7H210l-4-1c0 2.638 2.868 5.237 4 7.5l-1 9.5c2.6 0 3 2.639 3 5ZM245 230c-3.122 0-5.228-1.636-8.5 0l-4.5 4c0-1.741.773-11-1-11v-5l1-1c1.473 0 1-1.952 1-3 1.139 0 1.452-5 10-5h3l4-1c0 2.854-1.822 4.145-3 6.5-1.489 2.977 1 8.046 1 10.5-3.236 0-3 2.435-3 5Z"/><path fill="#C8CBCC" id="ec" d="m365 210-1 2 1-2Z"/><path fill="#97D6F9" id="STR" d="m156 211-1 2 1-2Z"/><path fill="#A2B1D7" id="SI" d="M141 251c3.812 0 8.866 2 12.5 2 3.028 0 8.452-2 11.5-2l5-1 5-5.5V231c-1.693 0-3-9.925-3-12 0-20.635-17.517 2-21 2l-4 8-1 1-6 14v5l1 2ZM292 251c2.74 0 7.783 2 10.5 2 3.473 0 8.947-2 12.5-2l2-2c0-2.833-2-4.84-2-7l-5-13-5-9c-5.246 0-20-20.688-20-1 0 1.35-2.04 10-3 10l-1 15.5 6 5.5 5 1Z"/><path fill="#E64438" id="HY" d="m177 212-1 1 1-1Z"/><path fill="#C8CBCC" id="ec" d="m364 212-1 2 1-2Z"/><path fill="#99D2BD" id="OLF" d="M99 233v3c-6.442 0-17.887-21-22-21l2-2h1c0 3.138 5.854 14 10 14l1 1 6 3 2 2Z"/><path fill="#97D6F9" id="STR" d="m155 213-1 2 1-2Z"/><path fill="#E64438" id="HY" d="M277 226c2.554 0 3.688 3 5 3 .96 0 3-8.65 3-10-4.074 0-3.392-6-5-6 0 3.398 1.569 6.362 0 9.5l-3 3.5Z"/><path fill="#97D6F9" id="STR" d="m301 213 2 2-2-2Z"/><path fill="#99D2BD" id="OLF" d="M379 215c-2.215 0-1.519 2-3 2v-4h1l2 2Z"/><path fill="#C8CBCC" id="ec" d="m93 214 2 3c-1.577 0-2-1.762-2-3Z"/><path fill="#E64438" id="HY" d="M179 226c-2.96 0-4 2.399-4 5-1.693 0-3-9.925-3-12 3.894 0 2.073-5 4-5 0 4.797 3 10.336 3 12Z"/><path fill="#6ACAB9" id="PIR" d="M117 290c-2.565 0-5-.236-5 3-2.636 0-13.085-8.585-15.5-11-7.985-7.985-21.317-32.134-26.5-42.5-2.469-4.937-12-10.349-12-16.5l5-3c1.32 0 10-3.135 10-4l4-1c4.113 0 15.558 21 22 21l18 18c0 3.572 7 9.486 7 16 0 6.942-5 12.735-5 19h-1l-1 1Z"/><path fill="#97D6F9" id="STR" d="m154 215-1 1 1-1Z"/><path fill="#C8CBCC" id="ec" d="m363 215-1 2 1-2Z"/><path fill="#6ACAB9" id="PIR" d="M339 290c3.256 0 5-.714 5 3 4.638 0 9.436-6.968 13.5-9 6.576-3.288 23.617-34.733 27.5-42.5 3.081-6.163 13-11.284 13-18.5l-4-3c-1.717 0-10-2.709-10-4l-5-1c-2.215 0-1.519 2-3 2l-1 1v1l-1 1-1 1-1 1-1 1v1l-1 1h-1v1l-2 1c0 1.747-.253 2-2 2 0 1.158-6.162 8-8 8l-17 17c0 3.068-8 9.792-8 16 0 5.604 6 15.404 6 19l1 1Z"/><path fill="#97D6F9" id="STR" d="M146 230c-3.204 0-4.669 5-8 5l4-4.5c5.002-10.004-6.831-1.5-9-1.5 0-1.891 17.413-13 20-13l-2 5-4 8-1 1Z"/><path fill="#97D6F9" id="STR" fill-rule="evenodd" d="m343 240-6 5c0-3.203 3.696-3.892 5-6.5.684-1.369-5.096-3.202-6.5-2.5-1.978.989-2.023 3-4.5 3 0 2.901-4.406 1-5.5 1-5.913 0-11.572-11-15.5-11l-5-9-2-4c8.88 0 24.727 19 39 19 0 1.473 1.952 1 3 1v1c-1.577 0-2 1.762-2 3m-12-1 1-3.5-12.5-8.5-4-2c-6.426 3.213 6.49 12.745 9 14h6.5Z"/><path fill="#C8CBCC" id="ec" d="m362 217-1 2 1-2Z"/><path fill="#99D2BD" id="OLF" d="m376 217-1 1 1-1Z"/><path fill="#C8CBCC" id="ec" d="M110 236h1c1.145 0 4 .579 4-1-9.737 0-17.988-16-20-16l5 9 3 3 5 4 2 1ZM361 219l-1 2 1-2Z"/><path fill="#99D2BD" id="OLF" d="m375 219-1 1 1-1ZM374 220l-1 1 1-1Z"/><path fill="#C8CBCC" id="ec" d="m360 221-1 2 1-2Z"/><path fill="#99D2BD" id="OLF" d="m373 221-1 1 1-1ZM372 222l-1 1 1-1Z"/><path fill="#FE5547" id="PVpo" d="M236 275h1c0-2.345-2-5.468-2-8l-2-5c0-8.886-1-18.544-1-28 0-1.741.773-11-1-11-2.105 0-1.844 8.811-4 4.5v-3l-1-1.5c-2.836 0 .836 12-2 12 0 8.932-1 18.732-1 27l-2 5c0 2.885-2 4.697-2 8h2l1-1h1l2-1v-2l3.5-12c.017 0 2.5 10.916 2.5 12v2h1l1 1h2l1 1Z"/><path fill="#C8CBCC" id="ec" d="m359 223-1 1 1-1ZM358 224l-1 1 1-1Z"/><path fill="#99D2BD" id="OLF" d="m371 224-1 1 1-1Z"/><path fill="#C9C9C9" id="act" d="m137 236-1 1-4.5 2c-2.713 1.357-8.347-.806-6.5-4.5.851-1.701 8-3.09 8-5.5 2.169 0 14.002-8.504 9 1.5l-4 4.5-1 1Z"/><path fill="#FE5346" id="PD" d="m205 233 3 1 4-4c0-2.361-.4-5-3-5-4.32 0-5 3.186-5 7l1 1ZM252 233l-3 1c-2.226 0-4-1.774-4-4 0-2.565-.236-5 3-5 4.112 0 4 3.894 4 7v1Z"/><path fill="#C9C9C9" id="act" d="m331 239 1-3.5-12.5-8.5-4-2c-6.426 3.213 6.49 12.745 9 14h6.5Z"/><path fill="#C8CBCC" id="ec" d="M353 231h1l2-2v-1l1-1v-2l-5 6h1Z"/><path fill="#8AD987" id="CTXsp" d="M368 226h1v-1l-1 1Z"/><path fill="#F2473B" id="LPO" d="m193 268-4 1c0-1.771-13.884-12-15-12l-2-2-2-5 5-5.5V231c0-2.601 1.04-5 4-5l10 7c0 1.238.423 3 2 3 0 3.24.641 6.781 2 9.5V268ZM263 268l4 1c2.577 0 10.606-12 16-12l1-1 3-6-6-5.5 1-15.5c-1.312 0-2.446-3-5-3-4.026 0-5.891 7-10 7l-2 4c0 10.084-2 20.09-2 31Z"/><path fill="#99D2BD" id="OLF" d="m369 226-2 1 1-1h1Z"/><path fill="#8AD987" id="CTXsp" d="m90 227 1 1-1-1ZM357 227l-1 1 1-1Z"/><path fill="#99D2BD" id="OLF" d="m367 227-2 2c1.747 0 2-.253 2-2Z"/><path fill="#8AD987" id="CTXsp" d="M100 231h3l-3-3v3Z"/><path fill="#97D6F9" id="STR" d="M122 256c4.039 0 3.884 9 7 9l-2-4.5c-3.849-7.698 8.33-5.5 11-5.5l1-2c0-1.145-.579-4 1-4v-5c-2.624 0-7.545 8.477-14.5 5l-9.5-8.5c-.645-.645-3.276-2.612-1.5-3.5 5.891-2.945 8.47 1.735 13 4 1.251.625 8.5-2.196 8.5-4l-4.5 2c-2.713 1.357-8.347-.806-6.5-4.5.851-1.701 8-3.09 8-5.5-6.145 0-11.213 6-18 6 0 1.579-2.855 1-4 1 0 1.481 2 .785 2 3l10 10.5c1.081 2.161-1 4.894-1 6.5Z"/><path fill="#7ECDF8" id="FS" d="m147 229-1 1 1-1Z"/><path fill="#FD4C3E" id="MPN" d="M223 262c-1.186 0-5.192 3.346-6.5 4l-7.5-2-1-2-1-1c0-5.311-4.942-14.617-2-20.5l3-6.5 4-4c3.382 0 12-1.661 12 5 0 8.932-1 18.732-1 27ZM248 263l-1 1c-2.132 0-4.958 3.271-7.5 2-1.308-.654-5.314-4-6.5-4 0-8.886-1-18.544-1-28l4.5-4c3.272-1.636 5.378 0 8.5 0 0 2.226 1.774 4 4 4 0 3.1 1.676 6.853 3 9.5 2.581 5.161-3 13.682-3 18.5l-1 1Z"/><path fill="#7ECDF8" id="FS" d="M337 245c-1.747 0-2 .253-2 2-4.582 0-8.547 4.477-13.5 2l-6.5-7-5-13c3.928 0 9.587 11 15.5 11 1.094 0 5.5 1.901 5.5-1 2.477 0 2.522-2.011 4.5-3 1.404-.702 7.184 1.131 6.5 2.5-1.304 2.608-5 3.297-5 6.5Z"/><path fill="#8AD987" id="CTXsp" d="m360 231-3 4c0-2.343-.285-4-3-4l2-2c0 2.109 2.535 2 4 2Z"/><path fill="#99D2BD" id="OLF" d="M357 235v2c1.838 0 8-6.842 8-8l-3 1-1 1h-1l-3 4Z"/><path fill="#7ECDF8" id="FS" d="M136 237c0 1.804-7.249 4.625-8.5 4-4.53-2.265-7.109-6.945-13-4-1.776.888.855 2.855 1.5 3.5l9.5 8.5c6.955 3.477 11.876-5 14.5-5l6-14c-3.204 0-4.669 5-8 5l-1 1-1 1Z"/><path fill="#8AD987" id="CTXsp" d="m362 230-1 1 1-1ZM100 231l-1 2-2-2h3Z"/><path fill="#A0ED9D" id="EPv" d="m113 240 6 7.5c1.563 3.127-2 5.202-2 6.5l-18-18v-3l1-2h3l5 4 1 1c0 2.708 1.119 4 4 4Z"/><path fill="#C8CBCC" id="ec" d="M351 232h1v-1l-1 1Z"/><path fill="#8AD987" id="CTXsp" d="m353 231-1 1v-1h1Z"/><path fill="#A0ED9D" id="EPv" d="M339 254h1l17-17v-2c0-2.343-.285-4-3-4h-1l-1 1-1 1-1 1-1 1-1 1c0 2.226-1.774 4-4 4l-7 8.5c-1.47 2.939 2 4.216 2 5.5Z"/><path fill="#E64438" id="HY" d="M203 233h2l-1-1-1 1ZM252 233h1l-1-1v1Z"/><path fill="#C8CBCC" id="ec" d="M345 236h1c0-1.473 1.952-1 3-1l1-1 1-1v-1c-3.391 0-5.353 3-9 3 0 1.473 1.952 1 3 1Z"/><path fill="#8AD987" id="CTXsp" d="m352 232-1 1v-1h1Z"/><path fill="#E64438" id="HY" d="M195 235c0 1.579-2.855 1-4 1-1.577 0-2-1.762-2-3l6 2ZM202 233l-1 1 1-1Z"/><path fill="#FF5346" id="MPO" d="M209 264c0 4.546-6.263 2.881-10.5 5-1.073.536-5.5.251-5.5-1v-22.5c-1.359-2.719-2-6.26-2-9.5 1.145 0 4 .579 4-1h4l2-1 1-1h3l3 1-3 6.5c-2.942 5.883 2 15.189 2 20.5l1 1 1 2ZM247 264c0 4.253 8.576 3.538 11.5 5 1.008.504 4.5.22 4.5-1 0-10.91 2-20.916 2-31l-4-2h-4l-1-1h-1l-1-1h-2l-3 1c0 3.1 1.676 6.853 3 9.5 2.581 5.161-3 13.682-3 18.5l-1 1-1 1Z"/><path fill="#E64438" id="HY" d="m254 233 1 1-1-1ZM261 235l4 2 2-4c-2.447 0-3.28 2-6 2Z"/><path fill="#8AD987" id="CTXsp" d="m351 233-1 1 1-1Z"/><path fill="#E64438" id="HY" d="m201 234-2 1 2-1ZM256 234l1 1-1-1Z"/><path fill="#8AD987" id="CTXsp" d="m350 234-1 1 1-1ZM109 236h1l-2-1 1 1Z"/><path fill="#97D6F9" id="STR" d="m138 235-1 1 1-1Z"/><path fill="#8AD987" id="CTXsp" d="M346 236h2l1-1c-1.048 0-3-.473-3 1Z"/><path fill="#80BEE2" id="IA" d="M113 239v1c-2.881 0-4-1.292-4-4h2c0 1.481 2 .785 2 3Z"/><path fill="#97D6F9" id="STR" d="m137 236-1 1 1-1Z"/><path fill="#8AD987" id="CTXsp" d="m346 236-1 1v-1h1Z"/><path fill="#80BEE2" id="IA" d="M343 240h1c2.226 0 4-1.774 4-4h-2l-1 1c-1.577 0-2 1.762-2 3Z"/><path fill="#8AD987" id="CTXsp" d="m117 254 5 2c0-1.606 2.081-4.339 1-6.5L113 239v1l6 7.5c1.563 3.127-2 5.202-2 6.5ZM339 254l-5 2c0-4.095 1-6.154 1-9l2-2 6-5h1l-7 8.5c-1.47 2.939 2 4.216 2 5.5Z"/><path fill="#97D6F9" id="STR" d="m334 256-5 6c0-9.119-3.363-7-10-7l-2-3v-3c0-2.833-2-4.84-2-7l6.5 7c4.953 2.477 8.918-2 13.5-2 0 2.846-1 4.905-1 9ZM337 245c-1.747 0-2 .253-2 2l2-2Z"/><path fill="#8599CC" id="PAL" d="m141 251-2 2c0-1.145-.579-4 1-4l1 2ZM315 251l2 1v-3l-2 2ZM171 257h1v-2l-2-5-5 1 6 6ZM284 257l2 1c0-4.406 6-3.939 6-7l-5-1-3 6v1Z"/><path fill="#A2B1D8" id="MA" d="m167 273-2 1c0-5.041-27-17.279-27-19l1-2 2-2c3.812 0 8.866 2 12.5 2 3.028 0 8.452-2 11.5-2l6 6c0 5.906-4 11.072-4 16ZM289 272l2 1c2.724 0 23.459-18 28-18l-2-3-2-1c-3.553 0-9.027 2-12.5 2-2.717 0-7.76-2-10.5-2 0 3.061-6 2.594-6 7 0 5.145 3 10.428 3 14Z"/><path fill="#99D2BD" id="OLF" d="M137 290c-2.707 0-5.903 1-8 1 0-3.236-2.435-3-5-3l5-2.5c2.571-5.143.532-15.5-5-15.5 0-6.514-7-12.428-7-16l5 2c4.039 0 3.884 9 7 9v1l2 2 3 4 1 2c-11.358 0 1 20.439 1 5.5l-1-4.5c3.711 0 6.227 15 2 15Z"/><path fill="#80C0E2" id="AAA" d="M165 274v2c0 6.901-15.941 7.279-20.5 5l-5-4c-1.279-.64-3.232-5-5.5-5l-3-4-2-2v-1l-2-4.5c-3.849-7.698 8.33-5.5 11-5.5 0 1.721 27 13.959 27 19ZM321 273c-2.736 0-9.124 7.812-11.5 9-6.525 3.263-18.137-5-18.5-5v-4c2.724 0 23.459-18 28-18 6.637 0 10-2.119 10 7v1l-1 2-1 1-4 5-1 1-1 1Z"/><path fill="#99D2BD" id="OLF" d="M319 291h9c0-5.041 4.545-2 7-2 0-2.153-6.686-1.873-8-4.5-2.526-5.052-.368-14.5 5-14.5 0-6.208 8-12.932 8-16h-1l-5 2-5 6v1l-1 2-1 1-4 5-1 1-1 1v2l3.5-2 .5 3.5c3.704 7.409-5 11.764-5 3l1-4.5c-4.965 0-2 14.176-2 16Z"/><path fill="#E64438" id="HY" d="M172 257h2l-2-2v2ZM283 257h1v-1l-1 1Z"/><path fill="#96A6D3" id="NDB" d="M186 277h1c0-1.996 2-4.985 2-8 0-1.771-13.884-12-15-12h-3c0 5.906-4 11.072-4 16 .427 0 11.357 4.428 12.5 5l6.5-1ZM269 277h1c3.15 0 19 .565 19-5 0-3.572-3-8.855-3-14l-2-1h-1c-5.394 0-13.423 12-16 12 0 3.015 2 6.004 2 8Z"/><path fill="#A8A9AA" id="V3" d="M226 271h5c0-1.084-2.483-12-2.5-12l-3.5 12h1Z"/><path fill="#E64438" id="HY" d="m207 261 1 1-1-1ZM203 279h2v-1c-2.985 0-1.162-4.169.5-5 5.986-2.993 9.311-6 15.5-6l2-5c-1.186 0-5.192 3.346-6.5 4l-7.5-2c0 4.546-6.263 2.881-10.5 5-1.073.536-5.5.251-5.5-1l-4 1c0 3.015-2 6.004-2 8 0 1.353 4.643 2 6 2l-2-2.5 5-.5c3.095 0 3 1.523 3 3h4ZM257 279c0-1.69 7-6.575 7 0 1.041 0 5-.986 5-2 0-1.996-2-4.985-2-8l-4-1c0 1.22-3.492 1.504-4.5 1-2.924-1.462-11.5-.747-11.5-5-2.132 0-4.958 3.271-7.5 2-1.308-.654-5.314-4-6.5-4l2 5c7.072 0 17 3.229 17 11v1h5ZM249 262l-1 1 1-1ZM248 263l-1 1 1-1Z"/><path fill="#97D6F9" id="STR" d="m329 263-1 2 1-2ZM328 265l-1 1 1-1ZM129 266l2 2-2-2Z"/><path fill="#FD5545" id="VMPO" d="M205 278h4l1-1h4c0-1.473 1.952-1 3-1l2-1c0-3.303 2-5.115 2-8-6.189 0-9.514 3.007-15.5 6-1.662.831-3.485 5-.5 5ZM242 277l10 1c0-7.771-9.928-11-17-11 0 2.532 2 5.655 2 8 1.041 0 5 .986 5 2Z"/><path fill="#59D9AA" id="PAA" d="M121 289h1l1-1h1l5-2.5c2.571-5.143.532-15.5-5-15.5 0 6.942-5 12.735-5 19h2ZM336 289h2c0-3.596-6-13.396-6-19-5.368 0-7.526 9.448-5 14.5 1.314 2.627 8 2.347 8 4.5h1Z"/><path fill="#E64438" id="HY" d="m226 271-1 1v-1h1Z"/><path fill="#97D6F9" id="STR" d="m323 271-1 1 1-1ZM169 285c0 7.718-19.071 10.714-24.5 8-1.272-.636-7.5-1.45-7.5-3 4.227 0 1.711-15-2-15v-1l-1-2c2.268 0 4.221 4.36 5.5 5l5 4c4.559 2.279 20.5 1.901 20.5-5 2.216 0 4 7.15 4 9Z"/><path fill="#8599CC" id="PAL" d="M291 277c-3.444 0-3 7.75-3 9-3.274 0-18-5.38-18-9 3.15 0 19 .565 19-5l2 1v4Z"/><path fill="#97D6F9" id="STR" d="m322 272-1 1 1-1Z"/><path fill="#60E5B7" id="COAa" d="M135 274c-11.358 0 1 20.439 1 5.5l-1-4.5v-1Z"/><path fill="#8599CC" id="PAL" d="M186 277c0 5.614-13.023 8-17 8 0-1.85-1.784-9-4-9v-2l2-1c.427 0 11.357 4.428 12.5 5l6.5-1Z"/><path fill="#E64438" id="HY" d="m225 273-2 1 2-1Z"/><path fill="#CAC7CB" id="fiber tracts" d="M217 276v1c3.982 0 6.704-2 11-2 0-1.577-1.762-2-3-2l-2 1h-1l-1 1h-2l-2 1ZM237 275l2 2c-3.708 0-5.942-2-10-2 0-1.747.253-2 2-2h1l1 1h2l1 1h1Z"/><path fill="#E64438" id="HY" d="m232 273 1 1-1-1Z"/><path fill="#97D6F9" id="STR" d="M288 286c0 2.916 4.873 4.186 6.5 5 6.179 3.089 13.081 5.46 20 2 2.1-1.05 1.894-2 4.5-2 0-1.824-2.965-16 2-16v-2c-2.736 0-9.124 7.812-11.5 9-6.525 3.263-18.137-5-18.5-5-3.444 0-3 7.75-3 9Z"/><path fill="#60E5B7" id="COAa" d="m321 275-1 4.5c0 8.764 8.704 4.409 5-3l-.5-3.5-3.5 2Z"/><path fill="#E64438" id="HY" d="m222 274-1 1 1-1ZM235 274l1 1-1-1ZM219 275l-2 1 2-1Z"/><path fill="#CBCACC" id="och" d="m258 288-1 1c-5.279 0-12.003-1.752-16.5-4-3.964-1.982-16.682 0-21.5 0-4.717 0-12.377 1.939-16.5 4-.945.472-3.5.156-3.5-1v-8c1.145 0 4 .579 4-1h2c2.161 0 11 .497 11-2h1c3.982 0 6.704-2 11-2h1c4.058 0 6.292 2 10 2h1c0 2.627 9.736 2 12 2h2c0 1.579 2.855 1 4 1v8Z"/><path fill="#E64438" id="HY" d="M240 277h2c0-1.014-3.959-2-5-2l2 2h1Z"/><path fill="#FE5B50" id="SO" d="M196 280h2l1-1c0-1.477.095-3-3-3l-5 .5 2 2.5 2 1h1Z"/><path fill="#E64438" id="HY" d="M216 277h1v-1c-1.048 0-3-.473-3 1h2Z"/><path fill="#FE5B50" id="SO" d="M260 280h1l3-1c0-6.575-7-1.69-7 0l2 1h1Z"/><path fill="#E64438" id="HY" d="m210 277-1 1 1-1Z"/><path fill="#CAC7CB" id="fiber tracts" d="M205 278h4l1-1h6c0 2.497-8.839 2-11 2v-1ZM252 278v1c-2.264 0-12 .627-12-2h2l10 1ZM198 280h1c1.145 0 4 .579 4-1h-4l-1 1ZM258 280h1l-2-1h-3c0 1.579 2.855 1 4 1ZM196 280l-1 1v-1h1Z"/><path fill="#CACCCB" id="opt" d="M194 285c1.312 0 2.446 3 5 3v-8h-3l-1 1-1 1v3ZM261 287l-3 1v-8h2l1 1 1 1 1 1v1l-1 2-1 1Z"/><path fill="#CAC7CB" id="fiber tracts" d="M261 280v1l-1-1h1ZM195 281l-1 1 1-1ZM262 282l1 1-1-1ZM199 288c0 1.156 2.555 1.472 3.5 1 4.123-2.061 11.783-4 16.5-4 4.818 0 17.536-1.982 21.5 0 4.497 2.248 11.221 4 16.5 4 0 1.265-6.292 1.604-7.5 1-4.589-2.294-11.49.255-16-2-1.284-.642-2.813-.406-4-1l-1-2-1 2c-4.516 2.258-33.5 5.543-33.5-2 1.312 0 2.446 3 5 3ZM263 284l-1 2 1-2ZM262 286l-1 1 1-1ZM258 288l-1 1c2.177 0 4 .641 4-2l-3 1Z"/><path fill="#99D2BD" id="OLF" d="m123 288-1 1 1-1Z"/><path fill="#CAC8C7" id="lot" d="m129 291-5.5 4c-3.973 1.986-8.553-2-11.5-2 0-3.236 2.435-3 5-3h1c1.048 0 3 .473 3-1h1l1-1h1c2.565 0 5-.236 5 3ZM328 291c.656 0 4.138 3.319 5.5 4 3.777 1.889 7.892-2 10.5-2 0-3.714-1.744-3-5-3-1.048 0-3 .473-3-1h-1c-2.455 0-7-3.041-7 2Z"/><path fill="#59D9AA" id="PAA" d="M117 290h1v-1l-1 1Z"/><path fill="#99D2BD" id="OLF" d="M121 289c0 1.473-1.952 1-3 1v-1h3ZM338 289l1 1c-1.048 0-3 .473-3-1h2Z"/></svg>