<svg xmlns="http://www.w3.org/2000/svg" viewBox="0 0 456 320"><path fill="#268F45" id="FRP1" d="M182 105c0 2.357 6.029 1.264 7.5 2 8.03 4.015 17.979 10 27.5 10 0-11.309-7.574-17-18.5-17-3.176 0-16.5 1.859-16.5 5ZM275 105c0 2.099-7.032 1.266-8.5 2-7.037 3.518-13.936 6.468-21 10-3.127 1.563-5.202-2-6.5-2 0-11.53 16.475-19.013 26.5-14 1.752.876 9.5 1.293 9.5 4Z"/><path fill="#99D2BD" id="OLF" d="m220 126-2 1-7.5-8-12-4-23 2c-4.041 2.021-7.691 6-12.5 6 0-3.622 16.539-11.519 19.5-13 1.471-.736-3.196-1.892-3.5-2.5-.567-1.133 2.24-2.5 3-2.5 0 2.357 6.029 1.264 7.5 2 8.03 4.015 17.979 10 27.5 10 0 3.679 3 6.067 3 9ZM239 126c1.835 0 7.928-7.714 10.5-9 3.48-1.74 24.123-2.939 28-1l18 9 5.5 5c0-4.47-19.848-16.174-23.5-18-6.028-3.014 2.974-7-2.5-7 0 2.099-7.032 1.266-8.5 2-7.037 3.518-13.936 6.468-21 10-3.127 1.563-5.202-2-6.5-2 0 3.876-2 6.996-2 10l2 1Z"/><path fill="#9AD1BD" id="MOB" fill-rule="evenodd" d="M187 196c0 2.632.079 4.341-1 6.5-1.011 2.022.73 7.885 3.5 6.5 3.868-1.934 2.253-13-2.5-13m-18-5c0 8.834 2.293 19.086 6 26.5.54 1.081 4.855 6.289 6 4 1.178-2.356-7.705-30.5-12-30.5m-6 18 4 8.5c5.62 11.24 12.596 31.5 29 31.5 12.971 0 18.202-11.904 23-21.5l1-7c4.722-9.444 7.063-53.875 2-64l-1-17c-1.594-3.188-3-8.833-3-12.5l-7.5-8-12-4-23 2c-4.041 2.021-7.691 6-12.5 6 0 1.577-1.762 2-3 2l-1 1-1 1-1 1-1 2-1 1-1 1v1l-1 1v1l-1 1-1 2v1l-1 2v1l-1 2v4l-1 2v8c1.643 0 1 3.765 1 5v5l1 2v2l1 1v4l1 2v1l1 1v3l1 1v2l1 1v2l1 1v1l1 1v2l1 2v1l1 1v2l1 1v1l1 1v2l1 1v1l1 1m12-46c0 1.398 7.326 12.847 10 7.5l-2-4.5c9.065 0 10-7.705 10-14 0-.641 7.783-8 1.5-8l-1.5 1c0-4.235 1.969-16-6-16 0-3.08-10-4.278-10-1-3.967 0-7 6.79-7 10-2.904 0-5-2.055-5 3-4.999 0 0 9.996 0 4l1 1c0 5.431 9 16.61 9 17ZM267 196l-2 5.5c-.754 1.508 1.425 8.538 3.5 7.5 3.349-1.674 2.111-13-1.5-13m18-5c0 3.842-12.958 28.771-8.5 31 2.56 1.28 4.016-4.531 4.5-5.5 1.346-2.691 10.541-25.5 4-25.5m8 19-4 8.5c-5.303 10.607-13.234 30.5-28 30.5-10.288 0-17.527-7.553-22-16.5-1.422-2.844-.592-7.185-2-10-5.717-11.434-7.937-57.126-2-69l1-17 3-10.5c1.835 0 7.928-7.714 10.5-9 3.48-1.74 24.123-2.939 28-1l18 9 5.5 5v1l2 2v1l2 3v1l1 1v2l1 1v3c0 1.048-.473 3 1 3v14c-1.473 0-1 1.952-1 3v5l-1 2v2l-1 1v4l-1 1v1l-1 2v2l-1 2v1l-1 1v2l-1 1v1l-1 2v2l-1 1v1l-1 1v2l-1 1v1l-1 1v2l-1 1v1l-1 1m-14-45c0 2.096-5.173 10.154-7 6.5l1-5.5c-8.108 0-10-6.508-10-14 0-.11-6.369-8-1.5-8l1.5 1c0-5.709-.629-16 7-16l1-1c0-2.184 8-3.43 8 0 4.954 0 7 7.151 7 11 1.615 0 5-5.125 5 1 1.88 0 4.043 6 0 6h-1c0 3.601-3.987 17-9 17l-1 1-1 1Z"/><path fill="#99D2BD" id="OLF" d="M163 123c-1.238 0-3 .423-3 2 1.238 0 3-.423 3-2ZM160 125l-1 1 1-1Z"/><path fill="#C7CBCA" id="onl" d="m239 126-3 10.5-1 17c-5.937 11.874-3.717 57.566 2 69 1.408 2.815.578 7.156 2 10 4.473 8.947 11.712 16.5 22 16.5 0 2.13-6.044 3.272-7.5 4-4.73 2.365-17.68 14.139-22.5 4.5-4.094-8.188 2.722-26.556-1-34-3.052-6.104-1-17.855-1-25v-41c3.788-7.576 2.191-17.383 6-25v-5l2-2.5 2 1Z"/><path fill="#99D2BD" id="OLF" d="m159 126-1 1 1-1Z"/><path fill="#9DF0D1" id="AOBgl" d="M177 128c3.325 0 7.31 1 10 1 0-3.08-10-4.278-10-1Z"/><path fill="#C7CBCA" id="onl" d="M227 209c0 10.068 1.482 42.536-2 49.5-4.182 8.363-18.066-3.783-21.5-5.5-1.637-.819-7.5-1.175-7.5-4 12.971 0 18.202-11.904 23-21.5l1-7c4.722-9.444 7.063-53.875 2-64l-1-17c-1.594-3.188-3-8.833-3-12.5l2-1 4 12.5c3.117 6.233 3 26.134 3 34.5 0 1.321-.684 6 1 6v23c-1.714 0-1 5.594-1 7Z"/><path fill="#9DF0D1" id="AOBgl" d="M271 128h8c0-3.43-8-2.184-8 0Z"/><path fill="#99D2BD" id="OLF" d="m158 127-1 1 1-1Z"/><path fill="#9DEFD2" id="AOBmi" d="M170 138c0 12.667 23 20.83 23 7 0-4.235 1.969-16-6-16-2.69 0-6.675-1-10-1-3.967 0-7 6.79-7 10Z"/><path fill="#9DF0D1" id="AOBgl" d="m271 128-1 1 1-1Z"/><path fill="#9DEFD2" id="AOBmi" d="M286 139c0 11.913-23 19.499-23 6 0-5.709-.629-16 7-16l1-1h8c4.954 0 7 7.151 7 11Z"/><path fill="#99D2BD" id="OLF" d="m156 130-1 1 1-1ZM155 131l-1 1 1-1ZM301 131l2 2-2-2ZM154 133l-1 1 1-1ZM303 134c1.577 0 2 1.762 2 3l-2-3ZM153 135l-1 1 1-1ZM152 136l-1 2 1-2Z"/><path fill="#CACAC9" id="lotd" d="m166 146 2.5-1c1.756.878 6.071 8.536 11 11 5.53 2.765 9.605-4 13.5-4 0-.641 7.783-8 1.5-8l-1.5 1c0 13.83-23 5.667-23-7-2.904 0-5-2.055-5 3v4l1 1ZM290 146h1v-6c0-6.125-3.385-1-5-1 0 11.913-23 19.499-23 6l-1.5-1c-4.869 0 1.5 7.89 1.5 8 4.029 0 7.95 6.775 13.5 4 4.582-2.291 10.011-10 13.5-10Z"/><path fill="#99D2BD" id="OLF" d="m305 138 1 1-1-1ZM151 139l-1 2 1-2Z"/><path fill="#CAC8C7" id="lot" d="M291 140c1.88 0 4.043 6 0 6v-6ZM165 141c-4.999 0 0 9.996 0 4v-4Z"/><path fill="#99D2BD" id="OLF" d="m306 141 1 1-1-1ZM150 142l-1 2 1-2Z"/><path fill="#95E4C8" id="AOBgr" d="m175 163 8 3c9.065 0 10-7.705 10-14-3.895 0-7.97 6.765-13.5 4-4.929-2.464-9.244-10.122-11-11l-2.5 1c0 5.431 9 16.61 9 17ZM279 165l-6 1c-8.108 0-10-6.508-10-14 4.029 0 7.95 6.775 13.5 4 4.582-2.291 10.011-10 13.5-10 0 3.601-3.987 17-9 17l-1 1-1 1Z"/><path fill="#99D2BD" id="OLF" d="M307 145c1.473 0 1 1.952 1 3-1.473 0-1-1.952-1-3ZM149 148l-1 2 1-2ZM308 151c1.602 0 1.602 7 0 7v-7ZM148 158c1.643 0 1 3.765 1 5-1.643 0-1-3.765-1-5ZM308 162c-1.473 0-1 1.952-1 3 1.473 0 1-1.952 1-3Z"/><path fill="#CBCBC7" id="aco" d="m175 163 8 3 2 4.5c-2.674 5.347-10-6.102-10-7.5ZM281 163l-1 1 1-1ZM280 164l-1 1 1-1ZM279 165l-6 1-1 5.5c1.827 3.654 7-4.404 7-6.5Z"/><path fill="#99D2BD" id="OLF" d="m149 168 1 2-1-2ZM307 170l-1 2 1-2ZM150 172l1 1-1-1ZM227 173c1.684 0 1 4.679 1 6-1.684 0-1-4.679-1-6ZM306 174l-1 1 1-1ZM151 177l1 2-1-2ZM305 179l-1 1 1-1ZM152 180l1 1-1-1ZM304 181l-1 2 1-2ZM153 184l1 1-1-1ZM303 185l-1 2 1-2ZM154 187l1 1-1-1ZM302 188l-1 1 1-1ZM155 190l1 1-1-1Z"/><path fill="#CAC8C7" id="lot" d="M169 191c0 8.834 2.293 19.086 6 26.5.54 1.081 4.855 6.289 6 4 1.178-2.356-7.705-30.5-12-30.5ZM285 191c0 3.842-12.958 28.771-8.5 31 2.56 1.28 4.016-4.531 4.5-5.5 1.346-2.691 10.541-25.5 4-25.5Z"/><path fill="#99D2BD" id="OLF" d="m301 191-1 1 1-1ZM156 192l1 1-1-1ZM300 193l-1 2 1-2ZM157 195l1 2-1-2Z"/><path fill="#CBCBC7" id="aco" d="M187 196c0 2.632.079 4.341-1 6.5-1.011 2.022.73 7.885 3.5 6.5 3.868-1.934 2.253-13-2.5-13ZM267 196l-2 5.5c-.754 1.508 1.425 8.538 3.5 7.5 3.349-1.674 2.111-13-1.5-13Z"/><path fill="#99D2BD" id="OLF" d="m299 197-1 1 1-1ZM158 198l1 1-1-1ZM298 199l-1 1 1-1ZM159 201l1 1-1-1ZM228 202c-1.714 0-1 5.594-1 7 1.714 0 1-5.594 1-7ZM297 202l-1 1 1-1ZM160 203l1 1-1-1ZM296 204l-1 1 1-1ZM161 206l1 1-1-1ZM295 207l-1 1 1-1ZM162 208l1 1-1-1ZM294 209l-1 1 1-1Z"/></svg>