<svg xmlns="http://www.w3.org/2000/svg" viewBox="0 0 456 320"><path fill="#9AD1BD" id="MOB" d="M151 142c0 2.707-1 5.903-1 8 0 10.348 13.987 36.474 19 46.5l1 23 4 7c5.438 10.875 31.423 15.154 38 2 3.169-6.339 3.873-13.746 7-20 2.372-4.743-.436-12.128 2-17 3.143-6.287-2.2-16.6 1-23l1-17c2.033-4.066 4.508-18.985 2-24-2.499-4.998-5.462-9.924-8-15l-5-4.5-2-1c-10.433 0-20.059-1.721-29.5 3l-13.5 7-2 2-2 1-1 1c0 1.238-.423 3-2 3l-1 1-5 11-3 6ZM303 135c0 5.474 3 9.236 3 15 0 15.069-10.677 28.854-17 41.5-4.821 9.642-.122 23.244-5 33-6.456 12.911-32.774 18.452-41 2-3.232-6.464-2.796-14.591-6-21-1.54-3.08.595-7.809-1-11-2.609-5.219 1.666-13.668-1-19l-1-18c-1.455-2.91-4.722-24.556-3-28 2.242-4.483 3.733-9.465 6-14l7-7.5h1l1-1c9.219 0 19.027-2.236 27.5 2l16.5 8 3 3 3 4 7 11Z"/><path fill="#99D2BD" id="OLF" d="M212 107v1l-2-1h2Z"/><path fill="#C7CBCA" id="onl" d="M156 218c0 5.316 14.369 20.934 18.5 23l7 2 12 7h5c19.174 9.587 28.5-17.931 28.5-32 0-1.406-.714-7 1-7v-48c0-6.052 1.574-15.352-1-20.5v-19l-5-8-3-2.5-1-1c0-1.726-4.558-5-6-5v1l5 4.5c2.538 5.076 5.501 10.002 8 15 2.508 5.015.033 19.934-2 24l-1 17c-3.2 6.4 2.143 16.713-1 23-2.436 4.872.372 12.257-2 17-3.127 6.254-3.831 13.661-7 20-6.577 13.154-32.562 8.875-38-2l-4-7-1-23c-5.013-10.026-19-36.152-19-46.5h-1v3c0 1.321.684 6-1 6v9c1.735 0 1 6.51 1 8v1c1.647 0 1.338 7.176 2 8.5 4.019 8.038 4 20.997 4 30.5v1l1 1ZM244 108h1v-1l-1 1Z"/><path fill="#99D2BD" id="OLF" d="m246 107-1 1v-1h1Z"/><path fill="#C7CBCA" id="onl" d="M308 173c-1.564 0-1.321 8.141-2 9.5-4.444 8.888-5 24.056-5 34.5 0 7.305-9.357 11.213-12 16.5-2.914 5.827-8.46 6.98-13.5 9.5-14.393 7.197-32.511 15.478-42.5-4.5-8.223-16.447-4-63.573-4-85v-28l4-8 5-5.5 1-1c0-1.803 3.592-3 5-3l-7 7.5c-2.267 4.535-3.758 9.517-6 14-1.722 3.444 1.545 25.09 3 28l1 18c2.666 5.332-1.609 13.781 1 19 1.595 3.191-.54 7.92 1 11 3.204 6.409 2.768 14.536 6 21 8.226 16.452 34.544 10.911 41-2 4.878-9.756.179-23.358 5-33 6.323-12.646 17-26.431 17-41.5l2 4v19Z"/><path fill="#99D2BD" id="OLF" d="m239 111-1 1 1-1ZM218 112l1 1-1-1Z"/><path fill="#C7CBCA" id="onl" d="M167 117c-1.747 0-2 .253-2 2l2-2ZM290 117l3 3-3-3ZM165 119l-2 1 2-1Z"/><path fill="#99D2BD" id="OLF" d="m296 124 3 2-6-6 3 4ZM159 124h1c1.577 0 2-1.762 2-3l-3 3Z"/><path fill="#C7CBCA" id="onl" d="m160 124-1 1v-1h1ZM303 134v1l-7-11 3 2 1 1 1 1v1l1 1v1l1 1v2Z"/><path fill="#99D2BD" id="OLF" d="m158 125-1 1 1-1Z"/><path fill="#C7CBCA" id="onl" d="m153 135 1 1 5-11h-1l-1 1-1 2-1 1v1l-1 1v1l-1 1v2Z"/><path fill="#99D2BD" id="OLF" d="m300 127 1 1-1-1ZM156 128l-1 1 1-1ZM301 129l1 1-1-1ZM155 130l-1 1 1-1ZM302 131l1 1-1-1ZM154 132l-1 1 1-1ZM306 150l2 4c0-4.835-3-9.782-3-14 0-1.357-.647-6-2-6v1c0 5.474 3 9.236 3 15ZM154 136l-3 6c0-1.593.337-7 2-7l1 1ZM149 150h1c0-2.097 1-5.293 1-8-1.931 0-2 6.225-2 8ZM149 153c-1.684 0-1 4.679-1 6 1.684 0 1-4.679 1-6ZM308 157c1.647 0 1.647 15 0 15v-15ZM148 168c1.735 0 1 6.51 1 8-1.735 0-1-6.51-1-8ZM308 173c-1.564 0-1.321 8.141-2 9.5-4.444 8.888-5 24.056-5 34.5l4-6.5c5.153-5.153 3-29.075 3-37.5ZM149 177c1.647 0 1.338 7.176 2 8.5 4.019 8.038 4 20.997 4 30.5l-2.5-5c-5.84-2.92-3.5-26.283-3.5-34ZM228 211c-1.714 0-1 5.594-1 7 1.714 0 1-5.594 1-7ZM155 217l1 1-1-1Z"/></svg>