<svg xmlns="http://www.w3.org/2000/svg" viewBox="0 0 456 320"><path fill="#1E9D5A" id="MOp1" d="M149 39v6l9.5-3c3.728-1.864 27.713-6 32.5-6l1-5c-5.536 0-27.46 1.98-31.5 4-2.83 1.415-7.222 3-10.5 3l-1 1Z"/><path fill="#1E9C59" id="MOs1" d="M222 50h1l4-2c0-2.997-3.643-6.072-5.5-7l-8-8c-5.936-2.968-14.372-2-21.5-2l-1 5c9.342 0 31 .257 31 14ZM230 47l4 3c0-13.896 22.719-14 31-14v-5c-14.203 0-21.583 1.083-30.5 10l-4.5 6Z"/><path fill="#1E9D5A" id="MOp1" d="M307 39v6l-8.5-3c-3.953-1.976-28.395-6-33.5-6v-5c9.136 0 23.644 1.072 31.5 5 1.631.816 10.5.887 10.5 3Z"/><path fill="#1E9D58" id="MOs2/3" d="m222 50-6 4c0-12.251-22.36-6-27-6 0-4.246 2-7.473 2-12 9.342 0 31 .257 31 14ZM240 54h1c0-12.566 19.816-6 26-6 0-4.371-2-8.019-2-12-8.281 0-31 .104-31 14l6 4Z"/><path fill="#1F9C58" id="MOp2/3" d="M147 62v6c7.967 0 31.878-20 42-20 0-4.246 2-7.473 2-12-4.787 0-28.772 4.136-32.5 6l-9.5 3-2 16v1ZM309 63v5c-8.089 0-28.98-19-41-19l-1-1c0-4.371-2-8.019-2-12 5.105 0 29.547 4.024 33.5 6l8.5 3h1l1 16v2Z"/><path fill="#187F60" id="SSp-ll1" d="m150 38-1 1 1-1ZM142 47h1c1.974 0 3.517-2 6-2v-6c-3.303 0-5.115 2-8 2l1 6ZM314 47h1v-6c-2.885 0-4.697-2-8-2v6h1l6 2Z"/><path fill="#197E64" id="SSp-ul1" d="M105 65h1c0-2.73 6.041-3.54 7.5-5 3.115-3.114 24.146-13 28.5-13l-1-6c-6.91 0-23.895 9.697-30.5 13l-7.5 5 2 6ZM353 59l-2 5c-6.855 0-26.856-17-36-17v-6c3.692 0 27.453 9.953 30 12.5l8 5.5Z"/><path fill="#187F64" id="SSp-ll2/3" d="M146 61h1l2-16c-2.483 0-4.026 2-6 2 0 5.32 3 9.295 3 14ZM309 61h2c0-5.019 3-9.163 3-14l-6-2 1 16Z"/><path fill="#1F9D58" id="MOs5" d="M203 65h1c0-1.078 11.513-11 12-11 0-12.251-22.36-6-27-6 0 5.319-4 11.9-4 17 2.069 0 18-6.297 18 0ZM253 65c0-6.199 16.207 0 18 0 0-5.24-3-10.524-3-16l-1-1c-6.184 0-26-6.566-26 6l12 11Z"/><path fill="#197F61" id="SSp-ul2/3" d="M106 65c0 4.355 5 8.703 5 12l7.5-5c6.117-3.058 20.766-10 27.5-10v-1c0-4.705-3-8.68-3-14h-1c-4.354 0-25.385 9.886-28.5 13-1.459 1.46-7.5 2.27-7.5 5Z"/><path fill="#3EA665" id="ACAd1" d="M223 75h10c0-8.274 1-17.385 1-25l-4-3c-1.532 0-.95 1-3 1l-4 2v25Z"/><path fill="#197F61" id="SSp-ul2/3" d="M351 65c0 1.34-4.467 11-6 11-4.1 0-25.625-14-34-14v-1c0-5.019 3-9.163 3-14h1c9.144 0 29.145 17 36 17v1Z"/><path fill="#1E9C5A" id="MOp5" d="M147 69v15c8.966 0 32.996-18 38-18v-1c0-5.1 4-11.681 4-17-10.122 0-34.033 20-42 20v1ZM309 69v14c-11.488 0-31.965-17-38-17v-1c0-5.24-3-10.524-3-16 12.02 0 32.911 19 41 19v1Z"/><path fill="#40A565" id="ACAd2/3" d="m223 75-5 1c0-6.53-2-15.493-2-22l6-4h1v25ZM233 75c2.483 0 4.026 2 6 2 0-7.62 1-16.035 1-23l-6-4c0 7.615-1 16.726-1 25Z"/><path fill="#3EA566" id="ACAd5" d="M218 77c-4.999 0-8.955 6-13 6 0-6.216-1-12.292-1-18 0-1.078 11.513-11 12-11 0 6.507 2 15.47 2 22v1ZM239 77c4.647 0 8.128 6 12 6 0-6.023 2-11.684 2-17v-1l-12-11h-1c0 6.965-1 15.38-1 23Z"/><path fill="#1B8062" id="SSp-un1" d="m92 67 2 6 11-8-2-6c-1.601 0-11 6.416-11 8ZM365 67c-.649 0-.977 5-3 5-4.182 0-7.548-7-11-7v-1l2-5c1.72 0 12 6.514 12 8Z"/><path fill="#1C7F64" id="SSp-ll4" d="M146 62h1v-1h-1v1ZM311 62l-2 1v-2h2v1Z"/><path fill="#1A7F63" id="SSp-ul4" d="M111 77c0 .831 2.963 7 4 7 11.041 0 20.806-15 32-15v-7h-1c-6.734 0-21.383 6.942-27.5 10l-7.5 5Z"/><path fill="#1D9C5A" id="MOs6a" d="M183 88h1c0-1.643 3.765-1 5-1 0-1.473 1.952-1 3-1 0-7.545 11-15.709 11-21 0-6.297-15.931 0-18 0v1c0 7.27-2 14.093-2 22ZM265 86l8 2V71.5c0-1.595-2-3.255-2-5.5v-1c-1.793 0-18-6.199-18 0v1c1.499 0 12 17.704 12 20Z"/><path fill="#1A7F63" id="SSp-ul4" d="M341 85h1l3-8v-1c-4.1 0-25.625-14-34-14l-2 1v6c6.73 0 18.307 8.904 24.5 12 1.475.737 7.5 1.705 7.5 4Z"/><path fill="#1C7F63" id="SSp-un2/3" d="M97 79h9c2.25 0 3.376-2 5-2 0-3.297-5-7.645-5-12h-1l-11 8c0 1.146 1.34 6 3 6Z"/><path fill="#3FA664" id="ACAd6a" d="M196 91h1l8-7v-1c0-6.216-1-12.292-1-18h-1c0 5.291-11 13.455-11 21 1.811 0 4 3.438 4 5Z"/><path fill="#1C7F63" id="SSp-un2/3" d="M350 79c2.954 0 9-3.123 9 1 2.334 0 1.341-4.181 2-5.5l2-1.5-1-1c-4.182 0-7.548-7-11-7 0 1.34-4.467 11-6 11v1l5 2Z"/><path fill="#1F9B5A" id="MOp6a" d="M154 101c-2.833 0-4.84 2-7 2V84c8.966 0 32.996-18 38-18 0 7.27-2 14.093-2 22l-1 1c-1.937 0-8 1.553-8 4-2.091 0-11 1.912-11 4-1.465 0-4-.109-4 2-1.424 0-5 .362-5 2Z"/><path fill="#3FA664" id="ACAd6a" d="M265 86c-2.169 0-5 2.899-5 5l-9-8c0-6.023 2-11.684 2-17 1.499 0 12 17.704 12 20Z"/><path fill="#1F9B5A" id="MOp6a" d="M273 88c7.873 0 25.935 14 36 14V83c-11.488 0-31.965-17-38-17 0 2.245 2 3.905 2 5.5V88Z"/><path fill="#197E63" id="SSp-n1" d="M69 98c-3.45 0-4.946 3-8 3 0-5.54 25.926-34 31-34l2 6c-3.417 0-23 20.039-23 23l-1 1-1 1ZM387 98c2.371 0 5.423 3 8 3 0-5.497-16.689-25.095-22.5-28-3.062-1.531-4.509-6-7.5-6-.649 0-.977 5-3 5l1 1c3.232 0 22 20.639 22 23l2 2Z"/><path fill="#187E62" id="SSp-ul5" d="M119 95h1c7.722 0 18.285-11 27-11V69c-11.194 0-20.959 15-32 15v1c0 3.685 4 6.026 4 10ZM341 85c0 4.046-4 6.085-4 10-8.482 0-18.492-11-28-11V69c6.73 0 18.307 8.904 24.5 12 1.475.737 7.5 1.705 7.5 4Z"/><path fill="#1B7F64" id="SSp-n2/3" d="M90 89c-6.96 0-11.204 7-19 7 0-2.961 19.583-23 23-23 0 1.146 1.34 6 3 6v2c0 2.741-2 2.268-2 5l-1 1h-1l-2 1-1 1ZM367 89c3.211 0 13.703 7 18 7 0-2.361-18.768-23-22-23l-2 1.5c-.659 1.319.334 5.5-2 5.5 0 2.676 4 4.324 4 7l2 1c0-2.216 1-.348 1 1h1Z"/><path fill="#3FA566" id="ACAv2/3" d="m221 109-3 1V76l5-1c0 10.742-1 21.854-1 32l-1 2Z"/><path fill="#40A664" id="ACAv1" d="M229 102c3.424 0 3.518 5 5 5 0-10.355-1-21.128-1-32h-10c0 10.742-1 21.854-1 32l5-5c0-3.654 2-3.654 2 0Z"/><path fill="#3FA566" id="ACAv2/3" d="m235 109 3 1c0-10.465 1-21.934 1-33-1.974 0-3.517-2-6-2 0 10.872 1 21.645 1 32l1 2Z"/><path fill="#197E61" id="SSp-un4" d="M113 85h2v-1c-1.037 0-4-6.169-4-7-1.624 0-2.75 2-5 2v1l7 5Z"/><path fill="#3EA666" id="ACAv5" d="M209 106c0 1.653 7.372 4 9 4V77c-4.999 0-8.955 6-13 6v1c0 7.152 4 15.026 4 22ZM247 106c0 2.078-7.211 4-9 4 0-10.465 1-21.934 1-33 4.647 0 8.128 6 12 6 0 8.084-4 15.719-4 23Z"/><path fill="#197E61" id="SSp-un4" d="M343 86h1c0-1.901 4.099-6 6-6v-1l-5-2-3 8 1 1Z"/><path fill="#1A7E64" id="SSp-m2/3" d="M359 80c0 2.676 4 4.324 4 7-4.676 0-8.041-7-13-7v-1c2.954 0 9-3.123 9 1ZM97 81c0 2.741-2 2.268-2 5l11-6v-1h-9v1c1.186 0 1.186 1 0 1Z"/><path fill="#1C7F63" id="SSp-un2/3" d="M97 80c1.186 0 1.186 1 0 1v-1Z"/><path fill="#1B7F62" id="SSp-m4" d="m66 135 5 2c0-4.428 4.108-8.715 6-12.5 6.296-12.592 13.624-26.562 27.5-33.5 2.985-1.493 4.904-5 8.5-5v-1l-7-5-11 6-1 1h-1l-2 1-1 1-11 12.5c-4.952 9.904-13 21.811-13 33.5ZM385 137h1l5-2v-1c0-5.254-9.3-25.1-12-30.5-2.461-4.921-12-10.285-12-14.5h-1l-1-1-2-1c-4.676 0-8.041-7-13-7-1.901 0-6 4.099-6 6l7.5 5c11.666 5.833 33.5 33.116 33.5 46Z"/><path fill="#40A564" id="ACAv6a" d="M247 106h2v-1c0-4.709 11-8.62 11-14l-9-8c0 8.084-4 15.719-4 23Z"/><path fill="#197D61" id="SSp-ul6a" d="M139 107c-3.823 0-6.314 3-10 3l-9-14v-1c7.722 0 18.285-11 27-11v19c-1.698 0-8 1.768-8 4Z"/><path fill="#40A564" id="ACAv6a" d="M208 106h1c0-6.974-4-14.848-4-22l-8 7c0 6.051 10 9.638 10 14l1 1Z"/><path fill="#197D61" id="SSp-ul6a" d="M327 111h1c0-.867 7.985-15 9-15v-1c-8.482 0-18.492-11-28-11v19c4.92 0 9.347 3.924 13.5 6 1.119.559 4.5.155 4.5 2Z"/><path fill="#197D62" id="SSp-un5" d="M113 86c0 1.429 4.933 9 6 9 0-3.974-4-6.315-4-10h-2v1ZM343 86c0 1.654-4.228 9-6 9 0-3.915 4-5.954 4-10h1l1 1Z"/><path fill="#1A7E64" id="SSp-m2/3" d="m95 86-1 1 1-1Z"/><path fill="#1B7E63" id="SSp-m5" d="M71 137c2.295 0 6.484 5 10 5l2-3.5c8.823-17.646 5.296-26.398 27.5-37.5 3.377-1.688 5.419-5 9.5-5v-1h-1c-1.067 0-6-7.571-6-9-3.596 0-5.515 3.507-8.5 5-13.876 6.938-21.204 20.908-27.5 33.5-1.892 3.785-6 8.072-6 12.5Z"/><path fill="#1E9C58" id="MOs6b" d="M189 87h3v-1c-1.048 0-3-.473-3 1Z"/><path fill="#3FA466" id="ACAd6b" d="M195 91h1c0-1.562-2.189-5-4-5v1c.966 0 3 2.886 3 4ZM260 91h1l4-4v-1c-2.169 0-5 2.899-5 5Z"/><path fill="#1E9C58" id="MOs6b" d="M273 88v1l-8-2v-1l8 2Z"/><path fill="#1B7E63" id="SSp-m5" d="M385 137c-2.192 0-6.428 5-10 5 0-3.195-2.597-7.694-4-10.5-1.165-2.329-.853-5.706-2-8-4.843-9.686-11.668-16.584-21.5-21.5-3.687-1.844-6.081-6-10.5-6v-1c1.772 0 6-7.346 6-9h1l7.5 5c11.666 5.833 33.5 33.116 33.5 46Z"/><path fill="#1A7E64" id="SSp-m2/3" d="m93 87-2 1 2-1Z"/><path fill="#1E9C58" id="MOs6b" d="M184 88v1c1.041 0 5-.986 5-2-1.235 0-5-.643-5 1Z"/><path fill="#CACCC7" id="cing" d="m207 105 1 1c-9.076 0-11.7-9.6-18.5-13-6.485-3.243-13.169 4-18.5 4l-1 1h-2l-2 1c-1.048 0-3 .473-3-1v-1c2.091 0 11-1.912 11-4 1.7 0 8-2.46 8-4h2c1.041 0 5-.986 5-2h3c.966 0 3 2.886 3 4 0 3.42 8.089 14 12 14ZM290 99h1c1.048 0 3 .473 3-1-7.256 0-14.275-9-21-9l-8-2-4 4c0 5.835-10 9.289-10 14 7.936 0 9.211-8.855 15.5-12 6.59-3.295 13.778 4 19.5 4l1 1h1l2 1Z"/><path fill="#1A7E64" id="SSp-m2/3" d="m365 88 1 1c0-1.348-1-3.216-1-1ZM91 88l-1 1 1-1Z"/><path fill="#1D9D5A" id="MOp6b" d="M182 89h2v-1h-1l-1 1ZM309 103v1c-5.14 0-10.268-6-15-6-7.256 0-14.275-9-21-9v-1c7.873 0 25.935 14 36 14v1Z"/><path fill="#1A7E64" id="SSp-m2/3" d="M65 135h1c0-11.689 8.048-23.596 13-33.5L90 89c-6.96 0-11.204 7-19 7l-1 1-1 1c0 6.312-12 21.001-12 31 1.345 0 8 5.43 8 6Z"/><path fill="#1D9D5A" id="MOp6b" d="M182 89c-1.937 0-8 1.553-8 4 1.7 0 8-2.46 8-4Z"/><path fill="#1A7E64" id="SSp-m2/3" d="M400 129c-3.055 0-5.429 5-9 5 0-5.254-9.3-25.1-12-30.5-2.461-4.921-12-10.285-12-14.5 3.211 0 13.703 7 18 7l2 2 8 14.5c.965 1.93 3.681 15.5 5 15.5v1Z"/><path fill="#40A465" id="ACAv6b" d="M197 91c0 6.051 10 9.638 10 14-3.911 0-12-10.58-12-14h2ZM249 105h2c0-4.711 10-8.165 10-14h-1c0 5.38-11 9.291-11 14Z"/><path fill="#1D9D5A" id="MOp6b" d="M174 93c-2.091 0-11 1.912-11 4 2.091 0 11-1.912 11-4Z"/><path fill="#C9C7C9" id="ccb" d="M363 167h1c0-4.916-5-9.695-5-15l-6-11.5c-3.382-6.763-13.566-20.033-20.5-23.5-10.068-5.034-21.061-8.03-31-13-1.848-.924-10.5-2.397-10.5-5h-1l-2-1h-1l-1-1c-5.722 0-12.91-7.295-19.5-4-6.289 3.145-7.564 12-15.5 12l-2 1h-2c0 2.078-7.211 4-9 4l-3-1c0 2.307-12.499 0-14 0l-3 1c-1.628 0-9-2.347-9-4h-1c-9.076 0-11.7-9.6-18.5-13-6.485-3.243-13.169 4-18.5 4l-1 1h-2l-2 1c0 2.91-23.216 8.358-26.5 10l-18 10c-3.716 1.858-6.988 10-10.5 10 0 1.429-1.288 4-3 4 0 1.408-1.197 5-3 5 0 1.238-.423 3-2 3l-2 4-2 4-1 2-1 2v4l6-11.5c2.812-5.624 14.336-21.418 20.5-24.5 6.985-3.492 14.066-6.533 21-10 4.745-2.373 11.18-1.59 16-4 4.466-2.233 13.342 1 17.5 1 0-9.745 24 4.048 24 7h1l1 1h1c5.932 0 11.671 5 17 5l2 1h2c0-1.535 4-1.535 4 0h3l2-1c3.907 0 10.964-4 17-4l2-2c0-2.892 25-16.885 25-7 3.928 0 12.241-3.129 16.5-1l22 6c15.259 7.63 27.558 17.615 35.5 33.5 2.863 5.726 10 13.976 10 20.5Z"/><path fill="#187E61" id="SSp-m1" d="m71 96-1 1 1-1Z"/><path fill="#187D61" id="SSp-m6a" d="M96 150h1c0-2.732 4.803-15 8-15 0-3.449 14.336-20 18-20 0-2.275 3.756-4 6-4v-1l-9-14c-4.081 0-6.123 3.312-9.5 5-22.204 11.102-18.677 19.854-27.5 37.5l-2 3.5v1l15 7ZM375 143l-15 7c0-7.253-17.104-29.802-23.5-33-2.972-1.486-4.985-6-8.5-6 0-.867 7.985-15 9-15 4.419 0 6.813 4.156 10.5 6 9.832 4.916 16.657 11.814 21.5 21.5 1.147 2.294.835 5.671 2 8 1.403 2.806 4 7.305 4 10.5v1Z"/><path fill="#1D9D5A" id="MOp6b" d="m163 98-4 1c0-2.109 2.535-2 4-2v1Z"/><path fill="#C9C9CA" id="scwm" d="m171 97-1 1 1-1ZM286 97l1 1-1-1Z"/><path fill="#187E61" id="SSp-m1" d="M405 125c-1.312 0-2.446 3-5 3-1.319 0-4.035-13.57-5-15.5L387 98c2.371 0 5.423 3 8 3l3 5.5 7 18.5ZM56 129h1c0-9.999 12-24.688 12-31-3.45 0-4.946 3-8 3 0 5.057-9 16.376-9 24 0 3.234 4 .959 4 4Z"/><path fill="#C9C9CA" id="scwm" d="M123 115c0 4.689-12 8.264-12 14 3.512 0 6.784-8.142 10.5-10l18-10c3.284-1.642 26.5-7.09 26.5-10-1.048 0-3 .473-3-1l-4 1c0 2.461-3.378 2-5 2 0 1.429-5.655 3-7 3 0 .616-6.93 3-8 3 0 2.623-7.828 4-10 4 0 1.617-4.583 4-6 4ZM168 98l-2 1 2-1ZM288 98l2 1-2-1ZM359 150v2l-6-11.5c-3.382-6.763-13.566-20.033-20.5-23.5-10.068-5.034-21.061-8.03-31-13-1.848-.924-10.5-2.397-10.5-5 1.048 0 3 .473 3-1 4.732 0 9.86 6 15 6 0 2.064 3.353.426 4.5 1 4.443 2.222 8.175 6 13.5 6 0 1.76 4.288 3.394 5.5 4l14.5 14.5 10 16c.559 1.119.155 4.5 2 4.5Z"/><path fill="#1D9D5A" id="MOp6b" d="M159 99c-1.424 0-5 .362-5 2 1.622 0 5 .461 5-2ZM147 103v1c1.345 0 7-1.571 7-3-2.833 0-4.84 2-7 2Z"/><path fill="#7ED04B" id="IG" d="M221 109c1.501 0 14 2.307 14 0l-1-2c-1.482 0-1.576-5-5-5 0 1.93-1.161 0-2 0l-5 5-1 2Z"/><path fill="#1C8064" id="SSp-ul6b" d="M147 104c0 .616-6.93 3-8 3 0-2.232 6.302-4 8-4v1ZM309 104c0 2.064 3.353.426 4.5 1 4.443 2.222 8.175 6 13.5 6 0-1.845-3.381-1.441-4.5-2-4.153-2.076-8.58-6-13.5-6v1Z"/><path fill="#AAA8A9" id="SEZ" d="M181 109c0-7.719 18.909 6 21 6 0-2.952-24-16.745-24-7l3 1Z"/><path fill="#CACCC7" id="cing" d="m251 105-2 1v-1h2Z"/><path fill="#AAA8A9" id="SEZ" d="M275 109c0-7.485-18.477 6-21 6 0-2.892 25-16.885 25-7l-4 1Z"/><path fill="#1C8064" id="SSp-ul6b" d="M129 110v1c2.172 0 10-1.377 10-4-3.823 0-6.314 3-10 3Z"/><path fill="#98D5F9" id="CP" d="M135 235h1c0-1.835 11.76-2 14-2 0-1.473 1.952-1 3-1l2-1h2l1-1 14-7 4-10.5c2.684-5.367-.29-24.421 3-31 2.072-4.145 7 .549 7 2.5h2l2-4v-15.5c0-1.19-.614-4.5 1-4.5v-17c0-5.351.269-13.962-2-18.5-2.182-4.365-8-10.487-8-15.5l-3-1c-4.158 0-13.034-3.233-17.5-1-4.82 2.41-11.255 1.627-16 4-6.934 3.467-14.015 6.508-21 10-6.164 3.082-17.688 18.876-20.5 24.5L97 157c0 1.622.46 5-2 5 0 1.424-.362 5-2 5 0 1.145.58 4-1 4 0 1.321.684 6-1 6 0 12.904 10 29.587 10 39v1l1 1v1l1 1v1l1 1 1 2 12 9 10.5 3 7.5-1Z"/><path fill="#A8AAAA" id="VL" d="M205 116c0 4.731-7.887 11.273-10 15.5-.844 1.687-2.059 11.5-4 11.5 0-5.351.269-13.962-2-18.5-2.182-4.365-8-10.487-8-15.5 0-7.719 18.909 6 21 6h1l1 1h1ZM252 117l9 13.5c.788 1.576 2.368 11.5 4 11.5l2-16.5c2.335-4.671 8-11.108 8-16.5 0-7.485-18.477 6-21 6l-2 2Z"/><path fill="#98D5F9" id="CP" d="M320 235h1l8.5 1 10.5-3c0-1.577 1.762-2 3-2 0-1.617 4.583-4 6-4 0-1.747.253-2 2-2v-1l1-1 1-3 1-1 1-1v-1l1-2 1-2v-1c0-1.858 2.188-12 4-12 0-8.421 4-15.959 4-25v-2c-1.353 0-2-4.643-2-6 0-6.524-7.137-14.774-10-20.5-7.942-15.885-20.241-25.87-35.5-33.5l-22-6c-4.259-2.129-12.572 1-16.5 1l-4 1c0 5.392-5.665 11.829-8 16.5l-2 16.5v11l1 2v12l1 14c0 2.215 2 1.519 2 3h2c0-1.925 4.138-7.223 6-3.5 3.075 6.149 1.85 30.699 4 35l5 8.5c4.888 0 9.615 7 15 7l14 3c1.235 0 5-.643 5 1Z"/><path fill="#188064" id="SSp-m6b" d="M129 111c-2.244 0-6 1.725-6 4 1.417 0 6-2.383 6-4ZM359 150h1c0-7.253-17.104-29.802-23.5-33-2.972-1.486-4.985-6-8.5-6h-1c0 1.76 4.288 3.394 5.5 4l14.5 14.5 10 16c.559 1.119.155 4.5 2 4.5ZM108 133l-3 2c0-3.449 14.336-20 18-20 0 4.689-12 8.264-12 14-1.712 0-3 2.571-3 4Z"/><path fill="#AAA8A9" id="SEZ" d="m203 115 1 1-1-1Z"/><path fill="#90CBEC" id="LSc" d="m191 146 2 2c2.864 0 5.503-4.003 7.5-6 3.938-3.938 21.5-14.536 21.5-19v-2c-5.329 0-11.068-5-17-5 0 4.731-7.887 11.273-10 15.5-.844 1.687-2.059 11.5-4 11.5v3ZM265 147l-2 1-6-5.5c-5.125-5.125-11.698-7.698-16.5-12.5l-6.5-7 1-2c3.907 0 10.964-4 17-4l9 13.5c.788 1.576 2.368 11.5 4 11.5v5Z"/><path fill="#97D6F9" id="STR" d="m224 122-2 1v-2l2 1ZM226 122h4c0-1.535-4-1.535-4 0ZM233 122l1 1 1-2-2 1Z"/><path fill="#90CAED" id="LSr" d="M242 180v4l8.5-9c2.756-1.378 9.297-5.851 13-4l1.5 2c0-1.321-.684-6 1-6v-12l-1-2v-2l-2-3-6-5.5c-5.125-5.125-11.698-7.698-16.5-12.5l-6.5-7-1-1h-9l-2 1c0 4.464-17.562 15.062-21.5 19-1.997 1.997-4.636 6-7.5 6l-2 4v8c0 3.962 1 8.688 1 12 8.314 0 8.882 1.191 16.5 5l5.5 6v-4c0-15.076 3.847-24.194 10-36.5l4.5-10.5.5 3.5c1.474 2.949 2.557 6.114 4 9 7.13 14.259 9 18.118 9 35.5Z"/><path fill="#1A7E62" id="SSs1" d="M44 177h5v-1c0-6.377-2.971-21.557 0-27.5l7-19.5c0-3.041-4-.766-4-4-2.489 0-4.032 10.564-5 12.5-5.908 11.816-3 26.355-3 39.5ZM408 177h4c1.784 0 1-10.634 1-12.5 0-7.767 1.25-18.499-2-25l-6-14.5c-1.312 0-2.446 3-5 3v1l7 18.5c2.657 5.315 1 21.654 1 28.5v1Z"/><path fill="#1B8063" id="SSs2/3" d="m57 175-8 1c0-6.377-2.971-21.557 0-27.5l7-19.5h1c1.345 0 8 5.43 8 6 0 3.908-2.337 8.174-4 11.5-3.77 7.54-4 19.523-4 28.5Z"/><path fill="#C9C9CA" id="scwm" d="M111 129c-1.712 0-3 2.571-3 4 1.712 0 3-2.571 3-4Z"/><path fill="#1B8063" id="SSs2/3" d="M399 175c2.723 0 5.778 1 9 1 0-6.846 1.657-23.185-1-28.5l-7-18.5c-3.055 0-5.429 5-9 5v1c0 4.735 3.901 12.303 6 16.5 3.025 6.049 2 16.281 2 23.5Z"/><path fill="#8FCBEC" id="SF" d="M220 189c0-8.549-1.385-32.558 7.5-37 2.702-1.351 4.954 6.409 5.5 7.5 4.834 9.669 3 18.806 3 29.5 4.476 0 3.352-9 6-9 0-17.382-1.87-21.241-9-35.5-1.443-2.886-2.526-6.051-4-9l-.5-3.5-4.5 10.5c-6.153 12.306-10 21.424-10 36.5 2.768 0 1.87 10 6 10Z"/><path fill="#C9C9CA" id="scwm" d="M105 135v3c1.803 0 3-3.592 3-5l-3 2Z"/><path fill="#187C63" id="SSs4" d="M57 175h6c0-6.618 1.336-22.172 4-27.5l4-10.5-5-2h-1c0 3.908-2.337 8.174-4 11.5-3.77 7.54-4 19.523-4 28.5Z"/><path fill="#188064" id="SSp-m6b" d="M97 151h1l1-2c0-1.465-.109-4 2-4 0-1.465-.109-4 2-4 0-1.238.423-3 2-3v-3c-3.197 0-8 12.268-8 15v1Z"/><path fill="#187C63" id="SSs4" d="M393 175h6c0-7.219 1.025-17.451-2-23.5-2.099-4.197-6-11.765-6-16.5l-5 2 3 9.5c3.761 7.522 4 19.531 4 28.5Z"/><path fill="#1C8063" id="SSs5" d="M76 174c-4.356 0-7.641 1-13 1 0-6.618 1.336-22.172 4-27.5l4-10.5c2.295 0 6.484 5 10 5v1l-4 12.5-1 18.5ZM381 174c3.531 0 7.893 1 12 1 0-8.969-.239-20.978-4-28.5l-3-9.5h-1c-2.192 0-6.428 5-10 5v1l4 11.5c2.421 4.843 2 13.77 2 19.5Z"/><path fill="#C9C9CA" id="scwm" d="M105 138c-1.577 0-2 1.762-2 3 1.577 0 2-1.762 2-3ZM103 141c-2.109 0-2 2.535-2 4l2-4Z"/><path fill="#197D63" id="SSs6a" d="M79 175h1l2-1h7c0-8.274 7-15.582 7-24l-15-7-4 12.5-1 18.5c1.048 0 3-.473 3 1ZM374 174h7c0-5.73.421-14.657-2-19.5l-4-11.5-15 7c0 8.199 7 15.398 7 24h7Z"/><path fill="#C9C9CA" id="scwm" d="M101 145c-2.109 0-2 2.535-2 4l2-4Z"/><path fill="#97D6F9" id="STR" d="m193 148-2 4v-6l2 2ZM263 148l2 3v-4l-2 1Z"/><path fill="#C9C9CA" id="scwm" d="m99 149-1 2 1-2Z"/><path fill="#1A8061" id="SSs6b" d="m91 173-2 1c0-8.274 7-15.582 7-24h1v6l-1 1-1 5c-1.638 0-2 3.576-2 5-1.58 0-1 2.855-1 4l-1 2ZM365 174h2c0-8.602-7-15.801-7-24h-1v2c0 5.305 5 10.084 5 15l1 6v1Z"/><path fill="#C9C9CA" id="scwm" d="m98 151-1 2v-2h1Z"/><path fill="#96A7D3" id="MS" d="m227 202-1 1c-4.289 0-6-10.952-6-14 0-8.549-1.385-32.558 7.5-37 2.702-1.351 4.954 6.409 5.5 7.5 4.834 9.669 3 18.806 3 29.5 0 4.076-.872 14-6 14 0-3.624-3-6.775-3-1Z"/><path fill="#97D6F9" id="STR" d="m265 153 1 2-1-2Z"/><path fill="#C9C9CA" id="scwm" d="M96 157h1v-1l-1 1Z"/><path fill="#C9C7C9" id="ccb" d="M97 157c0 1.622.46 5-2 5l1-5h1Z"/><path fill="#A8AAAA" id="VL" d="M191 185h1v-13c0-3.312-1-8.038-1-12-1.614 0-1 3.31-1 4.5V185h1Z"/><path fill="#C9C7C9" id="ccb" d="M95 162c-1.638 0-2 3.576-2 5 1.638 0 2-3.576 2-5Z"/><path fill="#C8CBCC" id="ec" d="M93 167c-1.58 0-1 2.855-1 4 1.58 0 1-2.855 1-4Z"/><path fill="#A8AAAA" id="VL" d="M265 185h1c0-1.145-.579-4 1-4l-1-14c-1.684 0-1 4.679-1 6 0 3.642-1 8.002-1 11l1 1Z"/><path fill="#C8CBCC" id="ec" d="m364 167 1 6c-1.353 0-2-4.643-2-6h1ZM91 173v4c1.684 0 1-4.679 1-6l-1 2Z"/><path fill="#8FCBED" id="LSv" d="m198 192 2 2c1.186 0 5.192 3.346 6.5 4 1.794.897 4.676-.338 6-1h3c4.676-2.338-.5-9.614-.5-12l-1-1v-1l-5.5-6c-7.618-3.809-8.186-5-16.5-5v13l6 7ZM255 195h1l1-1 1-1 1-1 3-3 1-1v-1l1-3c0-2.998 1-7.358 1-11l-1.5-2c-3.703-1.851-10.244 2.622-13 4l-8.5 9-3 5.5c-2.988 5.977 6.896 10.802 11.5 8.5l4.5-3Z"/><path fill="#009B74" id="GU6a" d="M78 194h1c1.819 0 4.59-1 7-1l1-1 4-1v-1c-3.215 0-2-13.361-2-16h-7l-2 1h-1l-3 1c0 6.429 2 12.024 2 18Z"/><path fill="#019C74" id="GU6b" d="M91 177c-2.752 0 0 11.646 0 13-3.215 0-2-13.361-2-16l2-1v4Z"/><path fill="#12AD82" id="VISC5" d="M76 176c-4.824 0-8.915 3-13 3v-4c5.359 0 8.644-1 13-1v2Z"/><path fill="#11AC83" id="VISC6a" d="m79 175-3 1v-2c1.048 0 3-.473 3 1ZM82 174l-2 1 2-1Z"/><path fill="#019C74" id="GU6b" d="M365 191h1c0-5.266 1-12.124 1-17h-2v1c2.813 0 0 14.469 0 16Z"/><path fill="#009B74" id="GU6a" d="m369 192 9 2c0-5.674 3-11.962 3-18-.969 0-7-1.147-7-2h-7c0 4.876-1 11.734-1 17 1.048 0 3-.473 3 1Z"/><path fill="#11AC83" id="VISC6a" d="M381 174v2c-.969 0-7-1.147-7-2h7Z"/><path fill="#12AD82" id="VISC5" d="M381 176c4.126 0 8.346 3 12 3v-4c-4.107 0-8.469-1-12-1v2Z"/><path fill="#12AC83" id="VISC2/3" d="M58 181c-2.885 0-4.697 2-8 2l-1-6v-1l8-1 1 5v1Z"/><path fill="#11AC82" id="VISC4" d="m63 179-5 1-1-5h6v4Z"/><path fill="#C8CBCC" id="ec" d="M361 200h1l1-2v-3l1-1v-1l1-1v-1c0-1.531 2.813-16 0-16 0 9.041-4 16.579-4 25Z"/><path fill="#11AC82" id="VISC4" d="M393 179c2.518 0 4.286 2 6 2v-6h-6v4Z"/><path fill="#12AC83" id="VISC2/3" d="M406 183h1c0-1.321-.684-6 1-6v-1c-3.222 0-6.277-1-9-1v6l7 2Z"/><path fill="#019C75" id="GU5" d="m78 194-12 1c-1.707 0-3-13.069-3-16 4.085 0 8.176-3 13-3 0 6.429 2 12.024 2 18ZM378 194c4.477 0 8.932 2 13 2 0-5.71 2-10.649 2-17-3.654 0-7.874-3-12-3 0 6.038-3 12.326-3 18Z"/><path fill="#12AD83" id="VISC1" d="m50 184-4 1-2-8h5l1 6v1Z"/><path fill="#C8CBCC" id="ec" d="m97 209 4 7c0-9.413-10-26.096-10-39-2.752 0 0 11.646 0 13v1l1 2 1 1v2l1 2v1l1 2v2c1.58 0 1 2.855 1 4l1 2Z"/><path fill="#12AD83" id="VISC1" d="M407 183c0 1.577 1.762 2 3 2 1.434 0 2-6.448 2-8h-4c-1.684 0-1 4.679-1 6Z"/><path fill="#009C74" id="GU4" d="M63 196h3v-1c-1.707 0-3-13.069-3-16l-5 1v1c0 5.683 5 9.772 5 15Z"/><path fill="#97D6F9" id="STR" d="m176 233-11 6c0-2.237 4.872-9.243 6-11.5.385-.77 3.562-4.5 1-4.5l4-10.5c2.684-5.367-.29-24.421 3-31 2.072-4.145 7 .549 7 2.5l-1 1-1 2c-3.751 0-7 23.238-7 28 0 2.008-.656 9 2 9v1c-.504 0-3 7.078-3 8ZM217 213h4l4-2c0-1.048-.473-3 1-3v-5c-4.289 0-6-10.952-6-14-4.13 0-3.232-10-6-10v5l1 1c0 2.386 5.176 9.662.5 12h-3c-1.324.662-4.206 1.897-6 1-1.308-.654-5.314-4-6.5-4 0 2.503 7 9.635 7 15l1 2c2.84 0 5.676 2 9 2ZM280 233c4.764 0 8.592 7 13 7l-4-4.5-4-8-1.5-4.5 2.5 1-5-8.5c-2.15-4.301-.925-28.851-4-35-1.862-3.723-6 1.575-6 3.5v1c2.825 0 3.181 5.863 4 7.5 1.694 3.388 6.875 23.249 5 27l-2 4.5v2l2 7Z"/><path fill="#009C74" id="GU4" d="M391 196h2c0-4.842 6-9.799 6-15-1.714 0-3.482-2-6-2 0 6.351-2 11.29-2 17Z"/><path fill="#97D6F9" id="STR" d="m188 184 2 1v-5l-2 4ZM235 213h4c3.894 0 6.605-2 10-2l1-2c0-5.373 5-10.695 5-14l-4.5 3c-4.604 2.302-14.488-2.523-11.5-8.5l3-5.5v-4c-2.648 0-1.524 9-6 9 0 4.076-.872 14-6 14l1 7 4 3Z"/><path fill="#009B75" id="GU2/3" d="M63 196c0 .853-6.031 2-7 2-1.586 0-6-11.995-6-14v-1c3.303 0 5.115-2 8-2 0 5.683 5 9.772 5 15Z"/><path fill="#97D6F9" id="STR" d="m269 184-3 1c0-1.145-.579-4 1-4 0 2.215 2 1.519 2 3Z"/><path fill="#009B75" id="GU2/3" d="M400 199h1c0-5.573 5-10.118 5-16l-7-2c0 5.201-6 10.158-6 15 0 2.102 7 .058 7 3Z"/><path fill="#009C75" id="GU1" d="m401 199 4 1c0-5.11 5-9.433 5-15-1.238 0-3-.423-3-2h-1c0 5.882-5 10.427-5 16ZM56 199l-4 1c-1.555 0-6-12.898-6-15l4-1c0 2.005 4.414 14 6 14v1Z"/><path fill="#B3C0DE" id="BST" d="M179 225c0 6.539 9.804 7 15 7 6.452 0 8.66-9 15-9h1v-2l-1-4-1-4-3.5 5a18.88 18.88 0 0 1-8.5 2c-1.543 0-11-.175-11-1.5 0-1.559 4.908-9.5 7-9.5l1-1 1-1 6.5-1 6.5 3c0-5.365-7-12.497-7-15l-2-2-7-7h-1l-2-1h-2l-1 1-1 2c0 11.651-5 24.311-5 37v1Z"/><path fill="#90CAED" id="LSr" d="m214 184 1 1-1-1Z"/><path fill="#97D6F9" id="STR" d="M265 185c0 1.747-.253 2-2 2l1-3 1 1Z"/><path fill="#B3C0DE" id="BST" d="m278 226-3.5 4c-3.357 1.679-7.435 2-11.5 2-5.614 0-7.836-6.668-12.5-9l-3.5 1v-7l2-3c0 5.026 8.158 6 12 6 2.014 0 9.16.18 10-1.5 1.202-2.403-6.439-11.5-9-11.5l-6.5-1-5.5 3c0-5.373 5-10.695 5-14h1l1-1 1-1 1-1 3-3 1-1v-1c1.747 0 2-.253 2-2h1l3-1h2v1c0 2.742 4.64 19.781 6 22.5 1.053 2.105-1.594 16.5 1 16.5v2Z"/><path fill="#8599CC" id="PAL" d="m185 185-1 2 1-2Z"/><path fill="#97D6F9" id="STR" d="m192 185 6 7-7-7h1Z"/><path fill="#8599CC" id="PAL" d="M271 185c2.825 0 3.181 5.863 4 7.5 1.694 3.388 6.875 23.249 5 27l-2 4.5c-2.594 0 .053-14.395-1-16.5-1.36-2.719-6-19.758-6-22.5ZM184 187c-3.751 0-7 23.238-7 28 0 2.008-.656 9 2 9 0-12.689 5-25.349 5-37Z"/><path fill="#97D6F9" id="STR" d="m263 188-1 1 1-1Z"/><path fill="#8ADA86" id="CLA" d="M92 209h2v-1l1-1v-6l-1-2v-1l-1-2v-2l-1-1-1-2-4 1-1 1c0 4.072-1.763 16 6 16ZM363 209h2c4.23 0 7.987-10.526 6-14.5l-2-2.5c0-1.473-1.952-1-3-1h-1v1l-1 1v1l-1 1v3l-1 2c0 1.145.579 4-1 4v3l1 1 1 1Z"/><path fill="#209766" id="AIp6a" d="m87 192-1 1 1-1Z"/><path fill="#97D6F9" id="STR" d="m259 192-1 1 1-1Z"/><path fill="#209766" id="AIp6a" d="m365 192-1 1 1-1ZM365 210l6 3c0-6.586 7-12.368 7-19l-9-2 2 2.5c1.987 3.974-1.77 14.5-6 14.5v1ZM90 211l-4 2c0-6.407-7-11.973-7-19 1.819 0 4.59-1 7-1 0 4.072-1.763 16 6 16l-2 2ZM92 193l1 1-1-1Z"/><path fill="#219864" id="AIp5" d="m83 215-5 1c0-4.812-12-12.887-12-20v-1l12-1h1c0 7.027 7 12.593 7 19l-3 2Z"/><path fill="#97D6F9" id="STR" d="m257 194-1 1 1-1Z"/><path fill="#209766" id="AIp6a" d="m364 194-1 1 1-1Z"/><path fill="#219864" id="AIp5" d="m374 215 4 1c0-3.914 13-13.976 13-20-4.068 0-8.523-2-13-2 0 6.632-7 12.414-7 19l3 2Z"/><path fill="#209865" id="AIp2/3" d="m78 216-9 3c-2.182 0-13-18.219-13-20v-1c.969 0 7-1.147 7-2h3c0 7.113 12 15.188 12 20Z"/><path fill="#209766" id="AIp6a" d="m93 196 1 2-1-2Z"/><path fill="#209865" id="AIp2/3" d="m378 216 9 3c3.031 0 13-16.828 13-20 0-2.942-7-.898-7-3h-2c0 6.024-13 16.086-13 20Z"/><path fill="#209766" id="AIp6a" d="m363 198-1 2 1-2Z"/><path fill="#219765" id="AIp1" d="m69 219-6 3c0-2.767-11-16.628-11-22l4-1c0 1.781 10.818 20 13 20Z"/><path fill="#209766" id="AIp6a" d="m94 199 1 2-1-2Z"/><path fill="#219765" id="AIp1" d="m387 219 6 3c2.226 0 1.829-3.329 3-4.5 1.797-1.797 9-15.391 9-17.5l-4-1h-1c0 3.172-9.969 20-13 20Z"/><path fill="#C8CBCC" id="ec" d="m358 211-1 1c0-1.858 2.188-12 4-12v7l-1 2-1 1-1 1Z"/><path fill="#209766" id="AIp6a" d="M362 200c0 1.145.579 4-1 4v-4h1Z"/><path fill="#97D6F9" id="STR" d="M226 203h1v-1l-1 1Z"/><path fill="#209766" id="AIp6a" d="M95 207h1c0-1.145.58-4-1-4v4Z"/><path fill="#FF5445" id="MEPO" d="M227 243h2l1-1 1-1v-31l-1-7h-3l-1 2v37l1 1Z"/><path fill="#CBCBC7" id="aco" d="m208 213-3.5 5a18.88 18.88 0 0 1-8.5 2l-5-3.5c-.208-.416 1-6.086 1-7.5l1-1 1-1 6.5-1 6.5 3 1 2v2ZM249 214c0 5.026 8.158 6 12 6l4-2.5c1.877-3.754-3-7.663-3-10.5l-6.5-1-5.5 3-1 2v3Z"/><path fill="#209766" id="AIp6a" d="m95 207-1 1 1-1Z"/><path fill="#8AD987" id="CTXsp" d="M94 209h3l-1-2h-1l-1 1v1Z"/><path fill="#C9C9C9" id="act" d="m194 207-1 1 1-1ZM262 207c2.561 0 10.202 9.097 9 11.5-.84 1.68-7.986 1.5-10 1.5l4-2.5c1.877-3.754-3-7.663-3-10.5Z"/><path fill="#8AD987" id="CTXsp" d="M360 209h3l-1-1-1-1-1 2Z"/><path fill="#209766" id="AIp6a" d="m361 207 1 1-1-1Z"/><path fill="#C9C9C9" id="act" d="m193 208-1 1 1-1Z"/><path fill="#A0EE9C" id="EPd" d="m99 229 5 1c0-1.481 2-.785 2-3l-1-3-1-2-1-1v-1l-1-1v-1l-1-1v-1l-4-7h-5l-2 2-1 8v1l1 1v1l1 1 4 4 2 2h2Z"/><path fill="#C9C9C9" id="act" d="M192 209c-2.092 0-7 7.941-7 9.5 0 1.325 9.457 1.5 11 1.5l-5-3.5c-.208-.416 1-6.086 1-7.5Z"/><path fill="#A0EE9C" id="EPd" d="M356 230h1l1-1h1l1-1 1-1h1l1-1 1-1 1-1 1-2 1-1v-1c0-3.526-2-8.954-2-10v-1h-5l-1 1-1 1-1 1v1l-1 2-1 2v1l-1 1-1 1-1 3-1 1v1l-1 2 2 3h4Z"/><path fill="#CAC7CB" id="fiber tracts" d="M231 214h3l1-1-4-3v4Z"/><path fill="#8AD987" id="CTXsp" d="m359 210-1 1 1-1Z"/><path fill="#99D2BD" id="OLF" d="M374 215c-3.976 0-4.015 5-7 5 0-3.526-2-8.954-2-10l6 3 3 2ZM83 215c2.773 0 3.67 4 6 4l1-8-4 2-3 2Z"/><path fill="#CAC7CB" id="fiber tracts" d="M209 217h2l6-4c-3.324 0-6.16-2-9-2v2l1 4ZM225 213c0 1.473-1.952 1-3 1l-1-1 4-2v2ZM244 216l3 1 2-3v-3c-3.395 0-6.106 2-10 2l5 3Z"/><path fill="#FF5547" id="ADP" d="m223 231-6.5 5c-2.016 1.008-4.589-3-5.5-3 0-1.048.473-3-1-3v-9c1.579 0 1-2.855 1-4l6-4h4l1 1 2 3.5-1 13.5Z"/><path fill="#E64438" id="HY" d="m223 231 3 1v-19h-1c0 1.473-1.952 1-3 1l2 3.5-1 13.5Z"/><path fill="#FF5547" id="ADP" d="m234 231 5.5 5c2.552 1.276 5.368-4 6.5-4 0-1.048-.473-3 1-3v-2c-1.714 0-1-5.594-1-7l-2-4-5-3h-4l-1 1v17Z"/><path fill="#C8CBCC" id="ec" d="m357 213-1 2 1-2Z"/><path fill="#E64438" id="HY" d="M231 231h3v-17h-3v17Z"/><path fill="#6ACAB9" id="PIR" d="M116 272h3c0-1.852 4.927-8 7-8 0-8.495.486-20.007-9.5-25-4.86-2.43-9.162-5.581-14-8-1.158-.579-3.5.341-3.5-2h-2l-2-2-4-4-1-1v-1l-1-1v-1c-2.33 0-3.227-4-6-4l-5 1-9 3-6 3c0 4.965 21.2 32.85 25.5 35 2.466 1.233 3.246 6 6.5 6 6.854 0 13.565 9 21 9Z"/><path fill="#C8CBCC" id="ec" d="m356 215-1 2 1-2Z"/><path fill="#6ACAB9" id="PIR" d="m337 271 3 1c7.691 0 15.285-8 22-8 0-3.112 7.963-7.426 9-9.5 4.493-8.985 22-22.588 22-32.5l-6-3-9-3-4-1c-3.976 0-4.015 5-7 5v1l-1 1-1 2-1 1-1 1-1 1h-1l-1 1-1 1h-1l-1 1h-1l-16.5 9-2.5 3.5-4 4c-3.235 6.47-2 10.629-2 17.5 0 2.519 6 3.78 6 7Z"/><path fill="#E64438" id="HY" d="M247 224v3c-1.714 0-1-5.594-1-7l-2-4 3 1v7Z"/><path fill="#C8CBCC" id="ec" d="m101 217 1 1-1-1Z"/><path fill="#E64438" id="HY" d="M211 217c0 1.145.579 4-1 4l-1-4h2Z"/><path fill="#C8CBCC" id="ec" d="m355 218-1 1 1-1ZM102 219l1 1-1-1ZM354 219l-1 1 1-1Z"/><path fill="#99D2BD" id="OLF" d="m89 220 1 1-1-1Z"/><path fill="#C8CBCC" id="ec" d="m103 221 1 1-1-1Z"/><path fill="#99D2BD" id="OLF" d="m367 221-1 1 1-1ZM90 222l1 1-1-1Z"/><path fill="#7ECDF8" id="FS" d="M129 249c2.621 0 3.615 8 8 8 8.089 0 11.738-2.238 17.5-8l9.5-9 1-1c0-2.237 4.872-9.243 6-11.5.385-.77 3.562-4.5 1-4.5l-14 7-1 1h-2l-2 1c0 1.473-1.952 1-3 1 0 2.827-11.546 2-14 2h-1c0 3.08-9.6.7-11 3.5l3 5.5v1c1.577 0 2 1.762 2 3v1Z"/><path fill="#FD5446" id="PS" d="m205 239-1 1c-2.552 0-16.313 3.127-12-5.5l2-2.5c6.452 0 8.66-9 15-9l1 2v5l-1 3-4 6Z"/><path fill="#E64438" id="HY" d="M210 223v2l-1-2h1Z"/><path fill="#FD5446" id="PS" d="m265 239-2.5 2c-2.977 1.489-8.046-1-10.5-1l-5-7v-9l3.5-1c4.664 2.332 6.886 9 12.5 9 0 2.16 2 4.167 2 7Z"/><path fill="#7ECDF8" id="FS" d="M327 249c-2.372 0-2.914 8-7 8-10.052 0-20.248-5.997-25-15.5l-2-1.5-4-4.5-4-8-1.5-4.5 2.5 1c4.888 0 9.615 7 15 7 0 3.14 15.483 4 19 4h1c0 3.17 10.645.789 12 3.5.771 1.543-4 4.406-4 6.5l-1 2-1 2Z"/><path fill="#C8CBCC" id="ec" d="m352 223-1 1 1-1ZM106 227c3.782 0 6.509 6 11 6l-12-9 1 3Z"/><path fill="#99D2BD" id="OLF" d="m365 224-1 1 1-1Z"/><path fill="#E64438" id="HY" d="M191 243c1.692 0 10-2.45 10 2 1.803 0 3-3.592 3-5-2.552 0-16.313 3.127-12-5.5l2-2.5c-5.196 0-15-.461-15-7-.504 0-3 7.078-3 8l15 6.5v3.5Z"/><path fill="#C8CBCC" id="ec" d="M349 227h1l1-2c-1.747 0-2 .253-2 2Z"/><path fill="#99D2BD" id="OLF" d="m364 225-1 1 1-1Z"/><path fill="#E64438" id="HY" d="M280 233c-4.907 0-9.565 6-15 6 0-2.833-2-4.84-2-7 4.065 0 8.143-.321 11.5-2l3.5-4 2 7Z"/><path fill="#99D2BD" id="OLF" d="m363 226-1 1 1-1ZM95 227l2 2-2-2Z"/><path fill="#8AD987" id="CTXsp" d="M117 233c0 1.947 3 2.636 3 5-6.918 0-9.743-8-16-8 0-1.481 2-.785 2-3 3.782 0 6.509 6 11 6Z"/><path fill="#C8CBCC" id="ec" d="M349 227c-1.417 0-6 2.383-6 4 1.664 0 6-1.823 6-4Z"/><path fill="#8AD987" id="CTXsp" d="M340 233c0 2.25-4 2.259-4 5 6.702 0 9.808-8 16-8l-2-3h-1c0 2.177-4.336 4-6 4 0 1.577-1.762 2-3 2Z"/><path fill="#99D2BD" id="OLF" d="m361 227-1 1 1-1ZM360 228l-1 1 1-1ZM126 264h1l5-3-3-12v-1c-1.577 0-2-1.762-2-3v-1l-7-6c-6.918 0-9.743-8-16-8l-5-1c0 2.341 2.342 1.421 3.5 2 4.838 2.419 9.14 5.57 14 8 9.986 4.993 9.5 16.505 9.5 25Z"/><path fill="#E64438" id="HY" d="m246 232 1 1v-4c-1.473 0-1 1.952-1 3Z"/><path fill="#99D2BD" id="OLF" d="m358 229-1 1 1-1Z"/><path fill="#97D6F9" id="STR" d="m158 230-1 1 1-1Z"/><path fill="#E64438" id="HY" d="M209 233h2c0-1.048.473-3-1-3l-1 3Z"/><path fill="#99D2BD" id="OLF" d="M329 264h2c0-6.871-1.235-11.03 2-17.5l4-4 2.5-3.5 16.5-9h-4c-6.192 0-9.298 8-16 8l-7 7-1 2-1 2c0 4.646-2 7.501-2 12l4 3Z"/><path fill="#97D6F9" id="STR" d="m155 231-2 1 2-1Z"/><path fill="#FF5346" id="MPO" d="M199 269c.893 0 5-1.802 5 1 3.541 0 6.151-5 9-5l3-4 1-2c0-1.874 1.261-10 3-10l1-1c0-3.047 1.384-7 5-7v-9l-3-1-6.5 5c-2.016 1.008-4.589-3-5.5-3h-2l-4 6-1 1c0 1.408-1.197 5-3 5 0 5.557-4 9.354-4 15 1.183 0 1.535-3.57 2-4.5 1.743-3.487 14.13-11.741 17-6 2.363 4.727-19 27.382-19 10.5l-2 4c0 1.247 2.467 5 4 5ZM258 269c-3.329 0-4.97 1-6 1-3.281 0-6.134-5-9-5l-3-5c0-2.04-1.72-11-4-11 0-3.41-1.154-7-5-7v-11h3l5.5 5c2.552 1.276 5.368-4 6.5-4l1 1 5 7 3 5c0 4.447 4 8.339 4 13-2.225 0-2.373-3.873-3.5-5-2.463-2.463-5.276-2.638-8-4-.948-.474-5.586-2.327-6.5-.5-4.008 8.015 18 27.292 18 10.5l2 4v1c0 2.364-3 3.053-3 5Z"/><path fill="#97D6F9" id="STR" d="m301 231 14 3c1.235 0 5-.643 5 1-3.517 0-19-.86-19-4Z"/><path fill="#C8CBCC" id="ec" d="M343 231c-1.238 0-3 .423-3 2 1.238 0 3-.423 3-2Z"/><path fill="#97D6F9" id="STR" d="M153 232c-1.048 0-3-.473-3 1 1.048 0 3 .473 3-1ZM120 238l7 6-3-5.5c1.4-2.8 11-.42 11-3.5l-7.5 1-10.5-3c0 1.947 3 2.636 3 5ZM150 233c-2.24 0-14 .165-14 2 2.454 0 14 .827 14-2Z"/><path fill="#A2B1D7" id="SI" d="M127 264c.647 0 11.428 11.464 14.5 13 9.368 4.684 19.871 0 29.5 0l-7-5.5c-1.339-2.678 12.064-9.5 14-9.5 0-1.077 3.762-3 5-3 0-1.825 8-7.641 8-16v-3.5l-15-6.5-11 6-1 1-9.5 9c-5.762 5.762-9.411 8-17.5 8l-5 4-5 3ZM329 264l-3.5 4c-3.612 3.612-6.831 6.915-11 9-9.39 4.695-19.798 0-29.5 0 0-1.77 6.938-4.375 8-6.5l-3.5-3.5c-2.905-1.453-8.174-5-11.5-5 0-1.077-3.762-3-5-3 0-2.776-8-8.856-8-16v-4c5.435 0 10.093-6 15-6 4.764 0 8.592 7 13 7l2 1.5c4.752 9.503 14.948 15.5 25 15.5 0 1.429 3.939 4 5 4l4 3Z"/><path fill="#97D6F9" id="STR" d="m336 238-7 7c0-2.094 4.771-4.957 4-6.5-1.355-2.711-12-.33-12-3.5l8.5 1 10.5-3c0 2.25-4 2.259-4 5ZM165 239l-1 1 1-1Z"/><path fill="#E64438" id="HY" d="m205 239-1 1 1-1ZM265 243c-1.517 0-10-2.03-10 2l-3-5c2.454 0 7.523 2.489 10.5 1l2.5-2v4Z"/><path fill="#FE5446" id="AVPV" d="M212 275h3l2-1 2-1c0-1.638 3.576-2 5-2h1l1-2c0-7.878 1-17.443 1-26l-1-1v-1c-3.616 0-5 3.953-5 7l-1 1c0 1.926-.84 10-3 10l-1 2-3 4c0 2.228-6.123 10-1 10Z"/><path fill="#E64438" id="HY" d="M230 242h1v-1l-1 1Z"/><path fill="#F2473B" id="LPO" d="m197 260-2 4c-3.88 0-7.764-4-12-4v-1c0-1.825 8-7.641 8-16 1.692 0 10-2.45 10 2 0 5.557-4 9.354-4 15Z"/><path fill="#E64438" id="HY" d="m226 242 1 1-1-1ZM230 242l-1 1 1-1Z"/><path fill="#FE5446" id="AVPV" d="M242 275h2c5.989 0-1-7.222-1-10l-3-5c-2.169 0-4-9.102-4-11 0-3.41-1.154-7-5-7h-1l-1 1c0 8.603 1 18.059 1 26l2 2c1.831 0 9 2.183 9 4h1Z"/><path fill="#F2473B" id="LPO" d="m261 263 1 1c3.378 0 7.085-4 11-4v-1c0-2.776-8-8.856-8-16-1.517 0-10-2.03-10 2 0 4.447 4 8.339 4 13v1l2 4Z"/><path fill="#A8A9AA" id="V3" d="M226 269c.666 0 4 2.56 4 0 0-7.941-1-17.397-1-26h-2c0 8.557-1 18.122-1 26Z"/><path fill="#97D6F9" id="STR" d="M127 245c1.577 0 2 1.762 2 3-1.577 0-2-1.762-2-3ZM329 245l-1 2 1-2ZM328 247l-1 2 1-2Z"/><path fill="#FE5447" id="AVP" d="M197 260c0 16.882 21.363-5.773 19-10.5-2.87-5.741-15.257 2.513-17 6-.465.93-.817 4.5-2 4.5Z"/><path fill="#FD4C3E" id="MPN" d="m221 248-1 1 1-1Z"/><path fill="#FE5447" id="AVP" d="M259 258c-2.225 0-2.373-3.873-3.5-5-2.463-2.463-5.276-2.638-8-4-.948-.474-5.586-2.327-6.5-.5-4.008 8.015 18 27.292 18 10.5v-1Z"/><path fill="#97D6F9" id="STR" d="m137 257-5 4-3-12c2.621 0 3.615 8 8 8Z"/><path fill="#FD4C3E" id="MPN" d="M220 249c-1.739 0-3 8.126-3 10 2.16 0 3-8.074 3-10ZM236 249c2.28 0 4 8.96 4 11-2.169 0-4-9.102-4-11Z"/><path fill="#97D6F9" id="STR" d="M320 257c0 1.429 3.939 4 5 4 0-4.499 2-7.354 2-12-2.372 0-2.914 8-7 8Z"/><path fill="#E64438" id="HY" d="m178 262 2 1 3-3v-1c-1.238 0-5 1.923-5 3Z"/><path fill="#FD4C3E" id="MPN" d="m217 259-1 2 1-2Z"/><path fill="#E64438" id="HY" d="m278 262-2 1c0-2.93-3-1.084-3-3v-1c1.238 0 5 1.923 5 3Z"/><path fill="#96A6D3" id="NDB" d="M195 278v1h-9.5c-1.362-.681-4.844-4-5.5-4v-12l3-3c4.236 0 8.12 4 12 4 0 1.247 2.467 5 4 5 0 2.902-4 6.443-4 9ZM261 279h10.5l5.5-4-2-5.5 1-6.5c0-2.93-3-1.084-3-3-3.915 0-7.622 4-11 4h-1c0 2.364-3 3.053-3 5l3 10Z"/><path fill="#A2B1D8" id="MA" d="M171 277h4c0-1.014 3.959-2 5-2v-12l-2-1c-1.936 0-15.339 6.822-14 9.5l7 5.5ZM281 277h4c0-1.77 6.938-4.375 8-6.5l-3.5-3.5c-2.905-1.453-8.174-5-11.5-5l-2 1-1 6.5 2 5.5 4 2Z"/><path fill="#CAC8C7" id="lot" d="M117 274v3l-4.5 1c-5.611-2.805-17.5-7.437-17.5-15 6.854 0 13.565 9 21 9l1 2Z"/><path fill="#CBCCCB" id="mfb" d="M261 264h1l-1-1v1Z"/><path fill="#CAC8C7" id="lot" d="m339 274 1 3 4.5 1c4.013-2.007 17.5-8.35 17.5-14-6.715 0-14.309 8-22 8l-1 2Z"/><path fill="#7FCCF7" id="OT" d="M122 282c0 3.158 6.021 7.761 8.5 9 13.122 6.561 23.215 12.393 38 5 3.635-1.818 14.5-1.956 14.5-8 0-5.01-.471-11-8-11h-4c-9.629 0-20.132 4.684-29.5 0-3.072-1.536-13.853-13-14.5-13h-1c-2.073 0-7 6.148-7 8v1l2 7v1l1 1ZM335 281c0 4.525-6.122 8.311-9.5 10-13.804 6.902-21.141 12.929-37 5-4.063-2.032-15.5-1.745-15.5-9 0-4.651 2.755-10 8-10h4c9.702 0 20.11 4.695 29.5 0 4.169-2.085 7.388-5.388 11-9l3.5-4h2c0 2.519 6 3.78 6 7l1 3c-1.014 0-2 3.959-2 5l-1 2Z"/><path fill="#E64438" id="HY" d="M205 278h2l1-1 4-2c-5.123 0 1-7.772 1-10-2.849 0-5.459 5-9 5 0 2.097 1 5.293 1 8ZM248 277l3 1c0-2.707 1-5.903 1-8-3.281 0-6.134-5-9-5 0 2.778 6.989 10 1 10l4 2Z"/><path fill="#FE5546" id="VLPO" d="M196 279h9v-1c0-2.707-1-5.903-1-8 0-2.802-4.107-1-5-1 0 2.902-4 6.443-4 9l1 1ZM251 278c0 1.763 8.343 1 10 1l-3-10c-3.329 0-4.97 1-6 1 0 2.097-1 5.293-1 8Z"/><path fill="#CAC7CB" id="fiber tracts" d="M224 271c-1.424 0-5 .362-5 2 1.424 0 5-.362 5-2Z"/><path fill="#CBCACC" id="och" d="M242 275c0 3.06 7.862 4.224 9 6.5 2.074 4.149-2 3.998-2 6.5h-32c-3.489 0-10.187 1.126-12-2.5-2.87-5.74 10-7.345 10-10.5l2-1 2-1c1.424 0 5-.362 5-2h2l1 1h2l1-1h2c0 .855 7.665 4 9 4h1Z"/><path fill="#CAC7CB" id="fiber tracts" d="m226 271 1 1-1-1ZM230 271l-1 1 1-1ZM232 271c1.831 0 9 2.183 9 4-1.335 0-9-3.145-9-4Z"/><path fill="#99D2BD" id="OLF" d="M338 274h1l1-2-3-1 1 3ZM119 273l-2 1-1-2h3v1Z"/><path fill="#97D6F9" id="STR" d="m117 277 4 3-2-7-2 1v3Z"/><path fill="#CAC7CB" id="fiber tracts" d="m219 273-2 1 2-1ZM217 274l-2 1 2-1Z"/><path fill="#97D6F9" id="STR" d="m340 277-4 2c0-1.041.986-5 2-5h1l1 3Z"/><path fill="#8599CC" id="PAL" d="M195 279c0 1.729-10.205 9-12 9 0-5.01-.471-11-8-11 0-1.014 3.959-2 5-2 .656 0 4.138 3.319 5.5 4h9.5Z"/><path fill="#CAC7CB" id="fiber tracts" d="M205 279c0 1.676-4.407 6.685-4 7.5l5.5 1.5c4.301 2.151 23.555 2.722 25 2l13-1c1.19 0 4.5.614 4.5-1h-32c-3.489 0-10.187 1.126-12-2.5-2.87-5.74 10-7.345 10-10.5h-3l-4 2-1 1-2 1ZM248 277c0 .944 12.641 11 4 11h-3c0-2.502 4.074-2.351 2-6.5-1.138-2.276-9-3.44-9-6.5h2l4 2Z"/><path fill="#8599CC" id="PAL" d="M262 279c0 2.591 8.929 8 11 8 0-4.651 2.755-10 8-10l-4-2-5.5 4H262Z"/><path fill="#E64438" id="HY" d="M195 279h1l-1-1v1Z"/><path fill="#97D6F9" id="STR" d="m336 279-1 2 1-2ZM121 281l1 1-1-1Z"/></svg>