<svg xmlns="http://www.w3.org/2000/svg" viewBox="0 0 456 320"><path fill="#187F60" id="SSp-ll1" d="M132 38h1c0-1.544 8.963-3.231 10.5-4 11.043-5.521 23.108-7 36.5-7h1v-6c-14.386 0-27.604 2.052-39.5 8-1.765.883-10.5 1.45-10.5 4l1 5Z"/><path fill="#1E9D5A" id="MOp1" d="M199 25c-5.819 0-11.674 2-18 2v-6h18v4Z"/><path fill="#1E9C59" id="MOs1" d="M226 35c0 1.54-1.342 3-3 3l-8.5-9c-4.996-2.498-9.41-4-15.5-4v-4c11.335 0 15.48 1.98 23 9.5l4 4.5ZM230 36l4 2c0-7.529 16.939-13 23-13v-4c-7.738 0-13.506.006-19 5.5l-3.5 4.5c-1.319.66-4.5 2.871-4.5 5Z"/><path fill="#1E9D5A" id="MOp1" d="M257 25c6.136 0 12.397 2 19 2l-1-6h-18v4Z"/><path fill="#187F60" id="SSp-ll1" d="m325 33-1 5c-4.463 0-13.397-4.948-17.5-7-8.364-4.182-20.457-4-30.5-4l-1-6c14.536 0 28.462 1.98 40.5 8 1.615.807 9.5 1.736 9.5 4Z"/><path fill="#1F9C58" id="MOp2/3" d="M178 39v2c6.615 0 11.813-6 19-6 0-3.708 2-5.942 2-10-5.819 0-11.674 2-18 2h-1c0 .25-.835 12-2 12Z"/><path fill="#1E9D58" id="MOs2/3" d="M216 42h1c2.079 0 3.187-3 6-3v-1l-8.5-9c-4.996-2.498-9.41-4-15.5-4 0 4.058-2 6.292-2 10 5.512 0 19-1.076 19 7ZM234 39c3.3 0 3.1 3 6 3 0-7.51 14.216-7 19-7 0-4.058-2-6.292-2-10-6.061 0-23 5.471-23 13v1Z"/><path fill="#1F9C58" id="MOp2/3" d="m278 39 1 3c-5.179 0-12.436-7-20-7 0-4.058-2-6.292-2-10 6.136 0 12.397 2 19 2 0 3.735 2 8.438 2 12Z"/><path fill="#187F64" id="SSp-ll2/3" d="M137 51h1l7.5-4c7.067-3.533 24.218-8 32.5-8 1.165 0 2-11.75 2-12-13.392 0-25.457 1.479-36.5 7-1.537.769-10.5 2.456-10.5 4 0 4.574 4 8.47 4 13ZM318 51h1c0-4.717 5-8.49 5-13-4.463 0-13.397-4.948-17.5-7-8.364-4.182-20.457-4-30.5-4 0 3.735 2 8.438 2 12 9.971 0 23.009 3.755 31.5 8 1.391.696 8.5 2.391 8.5 4Z"/><path fill="#197E64" id="SSp-ul1" d="m115 40 1 6 16-8-1-5c-3.235 0-10.712 3.212-13 5.5l-3 1.5ZM340 46h1c0-1.728 1-3.991 1-6-5.672 0-10.755-7-17-7l-1 5 16 8Z"/><path fill="#1E9C5A" id="MOp5" d="M192 51h1c0-5.965 4-10.226 4-16-7.187 0-12.385 6-19 6l-1 2-3 16c6.499 0 11.995-8 18-8Z"/><path fill="#1F9D58" id="MOs5" d="M193 51c2.132 0 4.958-3.271 7.5-2l5.5 3 10-10c0-8.076-13.488-7-19-7 0 5.774-4 10.035-4 16Z"/><path fill="#3EA665" id="ACAd1" d="M223 60h10c0-6.967 1-14.681 1-21v-1l-4-2-1.5 2-2.5-3c0 1.54-1.342 3-3 3v22Z"/><path fill="#1F9D58" id="MOs5" d="M264 51c-1.8 0-13-4.385-13 1l-11-9v-1c0-7.51 14.216-7 19-7l5 16Z"/><path fill="#1E9C5A" id="MOp5" d="M264 51c6.036 0 11.637 8 18 8 0-6.85-3-10.862-3-17-5.179 0-12.436-7-20-7l5 16Z"/><path fill="#197F61" id="SSp-ul2/3" d="M119 59h1l17-8c0-4.53-4-8.426-4-13h-1l-16 8c0 4.277 3 8.115 3 13ZM319 51l18 8c0-5.627 3-8.682 3-13l-16-8c0 4.51-5 8.283-5 13Z"/><path fill="#1C7F64" id="SSp-ll4" d="m138 51 3 6c10.382 0 27.574-14 36-14l1-2v-2c-8.282 0-25.433 4.467-32.5 8l-7.5 4Z"/><path fill="#40A565" id="ACAd2/3" d="m223 60-5 1-1-19c2.079 0 3.187-3 6-3v21ZM233 60l6 1V47c0-1.145-.579-4 1-4v-1c-2.9 0-2.7-3-6-3 0 6.319-1 14.033-1 21Z"/><path fill="#1C7F64" id="SSp-ll4" d="M315 57h1l2-6c0-1.609-7.109-3.304-8.5-4-8.491-4.245-21.529-8-31.5-8l1 3c3.098 0 28.285 15 36 15Z"/><path fill="#1B8062" id="SSp-un1" d="m116 46-9 4-2-5 10-5 1 6ZM341 46l8 4c1.638 0 2-3.576 2-5l-9-5c0 2.009-1 4.272-1 6Z"/><path fill="#3EA566" id="ACAd5" d="M218 62c-4.614 0-6.854 5-11 5 0-4.725-1-9.879-1-14v-1l10-10h1l1 19v1Z"/><path fill="#197C63" id="SSp-ll5" d="M307 69h1c0-6.296 7-5.788 7-12-7.715 0-32.902-15-36-15 0 6.138 3 10.15 3 17 1.772 0 17.003 6.751 19.5 8 1.114.557 5.5.41 5.5 2ZM174 60l-25 9c0-4.254-8-8.33-8-12 10.382 0 27.574-14 36-14l-3 16v1Z"/><path fill="#3EA566" id="ACAd5" d="m239 62 10 5c0-2.418-.5-14 2-14v-1l-11-9c-1.579 0-1 2.855-1 4v15Z"/><path fill="#188060" id="SSp-bfd1" d="m74 74-1 1-2.5-2v2L69 73c0-4.388 6.587-5.674 8-8.5 1.669-3.337 24.037-19.5 28-19.5l2 5v1c-6.723 0-17.137 11.319-22.5 14L74 74ZM389 74c-1.643 0-6-.026-6 1l-2-1-7.5-7c-7.9-3.95-15.253-16-24.5-16v-1c1.638 0 2-3.576 2-5 6.167 0 25.491 15.99 30 20.5l8 8.5Z"/><path fill="#1C7F63" id="SSp-un2/3" d="M109 64h1l9-5c0-4.885-3-8.723-3-13l-9 4v1c0 4.098 2 7.666 2 13ZM337 59l10 5c0-5.105 2-8.035 2-13v-1l-8-4h-1c0 4.318-3 7.373-3 13Z"/><path fill="#1D9C5A" id="MOs6a" d="m195 71-6 1c0-7.532 3-13.96 3-21h1c2.132 0 4.958-3.271 7.5-2l5.5 3v1c-2.194 0-11 15.633-11 18ZM261 71c2.124 0 4.436 1 6 1 0-7.65-3-14.14-3-21-1.8 0-13-4.385-13 1v1c0 2.564 10 12.25 10 18Z"/><path fill="#187F63" id="SSp-bfd2/3" d="M86 76h1c0-1.36 22-10.979 22-12 0-5.334-2-8.902-2-13-6.723 0-17.137 11.319-22.5 14L74 74v1c4.527 0 7.537 2 11 2l1-1Z"/><path fill="#1A7F63" id="SSp-ul4" d="M120 59c0 2.025 1.716 7 2 7l19-9-3-6h-1l-17 8Z"/><path fill="#1F9B5A" id="MOp6a" d="M172 78h1c5.647 0 10.071-5 16-5v-1c0-7.532 3-13.96 3-21-6.005 0-11.501 8-18 8v1c0 6.57-2 11.346-2 18ZM267 73c6.311 0 10.868 5 17 5 0-7.595-2-12.427-2-19-6.363 0-11.964-8-18-8 0 6.86 3 13.35 3 21v1Z"/><path fill="#1A7F63" id="SSp-ul4" d="M337 59c0 .978-2.267 7-3 7l-18-9 2-6h1l18 8Z"/><path fill="#187F63" id="SSp-bfd2/3" d="M369 76h1c3.952 0 .87-.185 2.5-1 1.487-.743 8.5 1.308 8.5-1l-7.5-7c-7.9-3.95-15.253-16-24.5-16 0 4.965-2 7.895-2 13v1c5.868 0 11.518 5.509 16.5 8 1.216.608 5.5 1.184 5.5 3Z"/><path fill="#3FA664" id="ACAd6a" d="M199 75h1c0-2.024 5.829-6 7-6v-2c0-4.725-1-9.879-1-14-2.194 0-11 15.633-11 18 1.634 0 4 2.635 4 4ZM256 75h1l2-2 2-2c0-5.75-10-15.436-10-18-2.5 0-2 11.582-2 14v1l7 7Z"/><path fill="#187E62" id="SSp-ul5" d="M125 79h1l5.5-3c4.75-2.375 12.012-7 17.5-7 0-4.254-8-8.33-8-12l-19 9v1c.496 0 3 9.395 3 12ZM308 69c6.093 0 18.334 10 23 10 0-4.597 3-7.09 3-12v-1l-18-9h-1c0 6.212-7 5.704-7 12Z"/><path fill="#197E61" id="SSp-un4" d="M122 67c-3.988 0-6.942 6-11 6 0-2.723-1-5.778-1-9l9-5h1c0 2.025 1.716 7 2 7v1Z"/><path fill="#1A7F64" id="SSp-ll6a" d="m284 78 16 5 7-14c0-1.59-4.386-1.443-5.5-2-2.497-1.249-17.728-8-19.5-8 0 6.573 2 11.405 2 19Z"/><path fill="#197E61" id="SSp-un4" d="M345 73h1c0-2.32-.074-8 1-8v-1l-10-5c0 .978-2.267 7-3 7v1c3.914 0 7.264 6 11 6Z"/><path fill="#1A7F64" id="SSp-ll6a" d="M156 83h1l15-5c0-6.654 2-11.43 2-18l-25 9c0 4.772 7 8.738 7 14Z"/><path fill="#3FA566" id="ACAv2/3" d="m222 91-3 2c0-9.83-1-20.58-1-31v-1l5-1v29l-1 2Z"/><path fill="#40A664" id="ACAv1" d="M233 91h1c0-9.83-1-20.58-1-31h-10v29l4-4c0-3.15 2-3.446 2 0 2.556 0 4 4.016 4 6Z"/><path fill="#3FA566" id="ACAv2/3" d="m234 91 3 1c0-9.712 2-19.765 2-30v-1l-6-1c0 10.42 1 21.17 1 31Z"/><path fill="#3EA666" id="ACAv5" d="M211 91c2.885 0 4.697 2 8 2 0-9.83-1-20.58-1-31-4.614 0-6.854 5-11 5v2c0 7.001 4 14.162 4 21v1ZM245 91c-.641 0-8 4.397-8 1 0-9.712 2-19.765 2-30l10 5v1c0 7.396-3 13.928-3 21l-1 1v1Z"/><path fill="#197C64" id="SSp-bfd4" d="M100 80h1c0-.751 8.739-6 10-6v-1c0-2.723-1-5.778-1-9h-1c0 1.021-22 10.64-22 12 4.605 0 8.497 4 13 4ZM369 76c0 .618-3.883 2.309-4.5 2-4.018-2.009-2.861 2-8.5 2-1.546 0-10-5.45-10-7 0-2.32-.074-8 1-8 5.868 0 11.518 5.509 16.5 8 1.216.608 5.5 1.184 5.5 3Z"/><path fill="#197D62" id="SSp-un5" d="M110 88h1c0-2.656 9.504-6.002 11.5-7l2.5-2c0-2.605-2.504-12-3-12-3.988 0-6.942 6-11 6v1c0 4.147 1.234 10-3 10l2 4ZM348 85l-2 2-15-8c0-4.597 3-7.09 3-12 3.914 0 7.264 6 11 6 0 2.714-1.046 12 3 12Z"/><path fill="#40A564" id="ACAv6a" d="m248 88-2 1c0-7.072 3-13.604 3-21l7 7-1 4c-1.821 0-7 7.338-7 9Z"/><path fill="#197D61" id="SSp-ul6a" d="M153 85c-7.643 0-14.733 10-22 10 0-5.184-5-10.287-5-16l5.5-3c4.75-2.375 12.012-7 17.5-7 0 4.772 7 8.738 7 14l-3 2Z"/><path fill="#40A564" id="ACAv6a" d="m208 87 3 3c0-6.838-4-13.999-4-21-1.171 0-7 3.976-7 6 0 4.591 8 7.482 8 12Z"/><path fill="#197D61" id="SSp-ul6a" d="M325 95h1c0-5.476 5-10.713 5-16-4.666 0-16.907-10-23-10h-1l-7 14c6.057 0 20.007 12 25 12Z"/><path fill="#1E9C58" id="MOs6b" d="m195 72-6 1v-1l6-1v1Z"/><path fill="#3FA466" id="ACAd6b" d="m195 72 4 3c0-1.365-2.366-4-4-4v1ZM262 72c0 1.473-1.952 1-3 1l2-2 1 1Z"/><path fill="#1E9C58" id="MOs6b" d="M267 72v1l-5-1-1-1c2.124 0 4.436 1 6 1Z"/><path fill="#CACCC7" id="cing" d="M211 90v1c-7.869 0-11.955-8.728-18.5-12-7.261-3.63-16.906 4-23.5 4h-6c0-.956 8.939-4 10-4 2.284 0 16-4.641 16-6l6-1 4 3c0 2.583 5.621 12 9 12l3 3ZM245 90v1c8.732 0 11.326-8.413 18.5-12 6.274-3.137 14.781 3 20.5 3l1 1h9c0-.956-8.939-4-10-4-4.513 0-7.781-2.14-11.5-4-1.319-.66-5.5.334-5.5-2l-5-1c0 1.473-1.952 1-3 1 0 1.238-.423 3-2 3 0 1.238-.423 3-2 3 0 2.008-4.493 9-7 9l-2 1-1 1Z"/><path fill="#188060" id="SSp-bfd1" d="m68 73-1 1c2.68 0 1 1.68 1-1Z"/><path fill="#197E63" id="SSp-n1" d="M53 105h1c0-7.834 9.61-16.72 13-23.5.718-1.436 6-4.07 6-6.5l-2.5-2v2L69 73h-1c0 2.68 1.68 1-1 1 0 2.268-18 20.697-18 27 .811 0 4 2.876 4 4Z"/><path fill="#1D9D5A" id="MOp6b" d="M173 78v1c2.284 0 16-4.641 16-6-5.929 0-10.353 5-16 5Z"/><path fill="#3FA466" id="ACAd6b" d="M257 75v1c1.577 0 2-1.762 2-3l-2 2Z"/><path fill="#1D9D5A" id="MOp6b" d="M284 78v1c-4.513 0-7.781-2.14-11.5-4-1.319-.66-5.5.334-5.5-2 6.311 0 10.868 5 17 5Z"/><path fill="#1A7D62" id="SSp-bfd5" d="M356 81c-3.482 0-5.416 4-8 4-4.046 0-3-9.286-3-12h1c0 1.55 8.454 7 10 7v1Z"/><path fill="#197E63" id="SSp-n1" d="M73 75h1v-1l-1 1Z"/><path fill="#1B7F64" id="SSp-n2/3" d="m54 105 8 5 7-14.5L85 77c-3.463 0-6.473-2-11-2h-1c0 2.43-5.282 5.064-6 6.5-3.39 6.78-13 15.666-13 23.5Z"/><path fill="#1A7D62" id="SSp-bfd5" d="M101 80c0 .994 5.757 4 7 4 4.234 0 3-5.853 3-10-1.261 0-10 5.249-10 6Z"/><path fill="#1B7F64" id="SSp-n2/3" d="M394 111h1c0-2.289 6.178-6 8-6v-1l-8-14.5L383 75l-2-1c0 2.308-7.013.257-8.5 1-1.63.815 1.452 1-2.5 1l10 10.5c5.303 5.302 14 17.075 14 24.5Z"/><path fill="#197E63" id="SSp-n1" d="m407 101-4 3-8-14.5L383 75c0-1.026 4.357-1 6-1 2.239 0 18 23.214 18 27Z"/><path fill="#40A465" id="ACAv6b" d="M200 75c0 4.591 8 7.482 8 12-3.379 0-9-9.417-9-12h1ZM257 76c0 1.238-.423 3-2 3l1-4h1v1Z"/><path fill="#1B7F64" id="SSp-n2/3" d="M85 77h1v-1l-1 1Z"/><path fill="#197C64" id="SSp-bfd4" d="m87 76-1 1v-1h1Z"/><path fill="#1A8062" id="SSp-n4" d="M68 115h1c0-7.516 16.55-22.05 22-27.5l9-7.5c-4.503 0-8.395-4-13-4l-1 1h-1L69 95.5 62 110v1c2.363 0 4.713 4 6 4ZM387 115h1l6-4c0-7.425-8.697-19.198-14-24.5L370 76h-1c0 .618-3.883 2.309-4.5 2-4.018-2.009-2.861 2-8.5 2v1c6.98 0 31 27.101 31 34Z"/><path fill="#197F62" id="SSp-ll6b" d="m163 83-6 1v-1l15-5h1v1c-1.061 0-10 3.044-10 4ZM300 83l-1 1-5-1c0-.956-8.939-4-10-4v-1l16 5Z"/><path fill="#1A7F61" id="SSp-un6a" d="M120 101h1l4-2c0-1.617 4.583-4 6-4 0-5.184-5-10.287-5-16h-1l-2.5 2c-1.996.998-11.5 4.344-11.5 7 0 5.698 9 7.543 9 13Z"/><path fill="#C9C7C9" id="ccb" d="m379 173-2 1c0-6.959-3.135-11.771-6-17.5l-4-11c-8.441-16.882-27.512-34.506-43.5-42.5-4.62-2.31-13.033-1-18.5-1 0-4.147-8.58-9-12-9h-1l-2-1-9.5-3c-4.209-2.105-14.605 3.303-18 5-1.69.845-7.5 2.175-7.5 5l-8 1c0-2.577-6.545-2-8.5-2-3.591 0-8.151 2-10 2-3.127 0-7.366-2-11.5-2-1.851 0-7-.867-7 2l-8-1c0-2.441-6.845-4.173-8.5-5-2.926-1.463-14.509-6.746-18-5l-9.5 3-1 1h-2l-4 2c-4.724 0-5.351 7-8 7-5.213 0-13.103-1.199-17.5 1-13.703 6.852-34.217 23.934-41.5 38.5l-10 21c-.621 1.242-1.64 7.5-3 7.5 0-4.646 2-7.501 2-12l1-1v-1l1-2v-1l1-2 1-2 2-4 1-2 1-2c1.54 0 4-6.3 4-8l2-2v-1c1.577 0 2-1.762 2-3l9.5-10c7.629-7.629 16.054-13.527 25-18 8.842-4.42 19.036-6.518 28-11 1.637-.819 9.5-2.844 9.5-5 6.594 0 16.239-7.63 23.5-4 6.545 3.272 10.631 12 18.5 12 2.885 0 4.697 2 8 2l3-2h1c0 1.206 10 1.206 10 0h1l3 1c0 3.397 7.359-1 8-1 8.732 0 11.326-8.413 18.5-12 6.274-3.137 14.781 3 20.5 3l1 1h2c0 2.155 6.965 3.233 8.5 4 10.097 5.048 21.011 8.005 31 13 9.491 4.746 17.314 11.314 25.5 19.5 2.383 2.383 6.209 9.5 9 9.5v1l7 13.5 3 3.5v1l2 4v1l2 4c0 5.474 4 10.905 4 16Z"/><path fill="#40A465" id="ACAv6b" d="M255 79c-1.821 0-7 7.338-7 9 2.507 0 7-6.992 7-9Z"/><path fill="#1A7F61" id="SSp-un6a" d="M335 101h1c0-3.519 5.885-6.27 7-8.5l3-4.5v-1l-15-8c0 5.287-5 10.524-5 16 1.559 0 9 4.297 9 6Z"/><path fill="#197E62" id="SSp-n5" d="m69 115 8 7c1.881 0 5.15-8.8 6-10.5 2.427-4.854 22.048-23.5 27-23.5l-2-4c-1.243 0-7-3.006-7-4h-1l-9 7.5c-5.45 5.45-22 19.984-22 27.5ZM387 115c0 1.634-5.962 7-8 7 0-7.246-25.635-34-33-34v-1l2-2c2.584 0 4.518-4 8-4 6.98 0 31 27.101 31 34Z"/><path fill="#C9C9CA" id="scwm" d="m284 82 1 1-1-1Z"/><path fill="#1C8064" id="SSp-ul6b" d="M157 84c0 1.58-2.855 1-4 1l3-2h1v1Z"/><path fill="#C9C9CA" id="scwm" d="m101 119-4 8 9.5-10c7.629-7.629 16.054-13.527 25-18 8.842-4.42 19.036-6.518 28-11 1.637-.819 9.5-2.844 9.5-5h-6l-6 1c0 1.58-2.855 1-4 1 0 1.988-3.315 2.408-4.5 3-4.688 2.344-12.174 8-17.5 8l-6 3-4 3-4.5 4c-4.541 2.27-10.379 13-15.5 13ZM335 102l9.5 7c2.086 1.043 16.5 17.44 16.5 20-2.791 0-6.617-7.117-9-9.5-8.186-8.186-16.009-14.754-25.5-19.5-9.989-4.995-20.903-7.952-31-13-1.535-.767-8.5-1.845-8.5-4h7l5 1 26 12 10 6Z"/><path fill="#1C8064" id="SSp-ul6b" d="M325 95v1l-26-12 1-1c6.057 0 20.007 12 25 12ZM131 95v1c5.326 0 12.812-5.656 17.5-8 1.185-.592 4.5-1.012 4.5-3-7.643 0-14.733 10-22 10Z"/><path fill="#7ED04B" id="IG" d="M223 91c0 1.206 10 1.206 10 0 0-1.984-1.444-6-4-6h-2l-4 4v2Z"/><path fill="#187D62" id="SSp-n6a" d="m93 131-2 1c-4.983 0-8.65-9-14-9v-1c1.881 0 5.15-8.8 6-10.5 2.427-4.854 22.048-23.5 27-23.5h1c0 5.698 9 7.543 9 13 0 1.112-19 14.408-19 18-3.168 0-8 9.558-8 12ZM365 133h1c0-3.665 9.16-8 10.5-8 .63 0 .688-2 2.5-2v-1c0-7.246-25.635-34-33-34l-3 4.5c-1.115 2.23-7 4.981-7 8.5l7.5 6c4.109 2.055 21.5 20.775 21.5 26Z"/><path fill="#A8AAAA" id="VL" fill-rule="evenodd" d="m185 93-2 1.5c-2.918 5.837-5.04 12.081-8 18l-6 4c-1.097 2.193-1.41 6.045 1.5 7.5 3.274 1.637 6.628-3.814 9-5 4.781-2.391 13.047-6.595 15.5-11.5 3.327-6.654-2.965-14.5-10-14.5m16 13c0 8.027-19.516 13.016-24.5 18l-9.5 10c0-9.69-2.072-14.644-6-22.5-.768-1.536-6-5.842-6-7.5 0-7.556 4-7.377 4-9 1.465 0 4 .109 4-2h2l1-1 9.5-3c3.491-1.746 15.074 3.537 18 5 1.655.827 8.5 2.559 8.5 5-.71 0-1 6.022-1 7Z"/><path fill="#40A664" id="ACAv1" d="M222 91h1v-2l-1 2Z"/><path fill="#40A564" id="ACAv6a" d="m246 89-1 1 1-1Z"/><path fill="#A8AAAA" id="VL" fill-rule="evenodd" d="M268 93c0 3.94-10.666 6.168-7 13.5 1.964 3.928 5.833 6.667 9.5 8.5l13 9c3.036 1.518 5.675-4.151 4.5-6.5l-8-7c-2.765-5.53-4.327-17.5-12-17.5m-13 12c0 8.469 20.225 14.725 26 20.5l9 9.5c0-7.65-.484-12.532 3-19.5l9-12.5c0-6.159-9-8.674-9-10h-1l-2-1-9.5-3c-4.209-2.105-14.605 3.303-18 5-1.69.845-7.5 2.175-7.5 5v6Z"/><path fill="#AAA8A9" id="SEZ" d="m166 92-1 1 1-1ZM290 92l2 1-2-1ZM163 93l-4 2c1.465 0 4 .109 4-2Z"/><path fill="#A9AAA8" id="chpl" d="m185 93-2 1.5c-2.918 5.837-5.04 12.081-8 18l-6 4c-1.097 2.193-1.41 6.045 1.5 7.5 3.274 1.637 6.628-3.814 9-5 4.781-2.391 13.047-6.595 15.5-11.5 3.327-6.654-2.965-14.5-10-14.5ZM268 93c0 3.94-10.666 6.168-7 13.5 1.964 3.928 5.833 6.667 9.5 8.5l13 9c3.036 1.518 5.675-4.151 4.5-6.5l-8-7c-2.765-5.53-4.327-17.5-12-17.5Z"/><path fill="#AAA8A9" id="SEZ" d="M305 102c0 1.473-1.952 1-3 1 0-6.159-9-8.674-9-10 3.42 0 12 4.853 12 9Z"/><path fill="#1A7D63" id="SSp-un6b" d="m131 96-6 3c0-1.617 4.583-4 6-4v1Z"/><path fill="#AAA8A9" id="SEZ" d="m151 102 4 2c0-7.556 4-7.377 4-9-4.724 0-5.351 7-8 7Z"/><path fill="#1A7D63" id="SSp-un6b" d="M335 101v1l-10-6v-1h1c1.559 0 9 4.297 9 6Z"/><path fill="#CBC8CC" id="df" d="M239 101h2c0-1.684 4.679-1 6-1 0-2.577-6.545-2-8.5-2-3.591 0-8.151 2-10 2-3.127 0-7.366-2-11.5-2-1.851 0-7-.867-7 2 1.235 0 5-.643 5 1h2c4.565 0 9.484 2 12 2 0-2.789 7.892-2 10-2Z"/><path fill="#1A7D63" id="SSp-un6b" d="M121 101v1l4-3-4 2Z"/><path fill="#1A7E62" id="SSs1" d="M33 173h4c0-11.738 3.272-37.045 8-46.5 2.725-5.449 8-15.333 8-21.5 0-1.124-3.189-4-4-4 0 1.029-8.844 23.189-10 25.5-4.77 9.539-6 34.361-6 46.5Z"/><path fill="#1B7E64" id="SSp-n6b" d="m121 102-4.5 4c-4.541 2.27-10.379 13-15.5 13 0-3.592 19-16.888 19-18h1v1Z"/><path fill="#96A7D2" id="TRS" d="M216 110h25c5.663 0 7.114-9 0-9h-2c0 1.888-8.072 2-10 2 0 1.022-12-.303-12-2h-2c-7.1 0-4.774 9 1 9Z"/><path fill="#1B7E64" id="SSp-n6b" d="M364 133h1c0-5.225-17.391-23.945-21.5-26l-7.5-6h-1v1l9.5 7c2.086 1.043 16.5 17.44 16.5 20v1l3 3Z"/><path fill="#1A7E62" id="SSs1" d="m424 172-5 1c0-12.061-2.185-34.871-7-44.5l-9-23.5v-1l4-3c3.039 0 4.873 12.245 6 14.5 7.72 15.44 11 38.235 11 56.5Z"/><path fill="#98D5F9" id="CP" d="m107 233 9 1c7.28 0 16.552-9 18-9v-11c0-15.056-4.191-28.118 3-42.5 1.211-2.422 4.231-10.5 7-10.5l1-2v-1c0-22.204.57-13 15-13l4-1 1-1v-1l1-2v-4l1-2c0-9.69-2.072-14.644-6-22.5-.768-1.536-6-5.842-6-7.5l-4-2c-5.213 0-13.103-1.199-17.5 1-13.703 6.852-34.217 23.934-41.5 38.5l-10 21c-.621 1.242-1.64 7.5-3 7.5v17.5c2.072 4.144 6 9.663 6 14.5v1c2.47 0 3.265 5.03 4 6.5 1.673 3.346 11.763 22.5 16 22.5l1 1h1ZM349 233h1l1-1h1l1-1c4.899 0 5.863-12 10-12 0-1.465-.109-4 2-4l2-4c0-1.7 2.46-8 4-8 0-1.465-.109-4 2-4 0-1.622-.461-5 2-5 0-1.424.362-5 2-5v-15c0-6.959-3.135-11.771-6-17.5l-4-11c-8.441-16.882-27.512-34.506-43.5-42.5-4.62-2.31-13.033-1-18.5-1 0 1.473-1.952 1-3 1l-9 12.5c-3.484 6.968-3 11.85-3 19.5v3c1.473 0 1 1.952 1 3v1l2 2 3 1c11.152 0 15-9.074 15 9v3l2 4 4 5.5c2.299 4.598 3.744 9.488 6 14 3.61 7.22-1 27.236-1 34.5 0 3.325 1 7.31 1 10 0 4.374 14.181 9 18 9l8-1Z"/><path fill="#1B8063" id="SSs2/3" d="M37 173h8c0-9.955 5.976-36.451 10-44.5l7-17.5v-1l-8-5h-1c0 6.167-5.275 16.051-8 21.5-4.728 9.455-8 34.762-8 46.5Z"/><path fill="#CBC8CB" id="fi" d="M290 138v2c-1.979 0-4.21 4-6.5 4L255 133l-6-4-6-13c0-5.867 2.025-4.762 6.5-7l5.5-4c0 8.469 20.225 14.725 26 20.5l9 9.5v3Z"/><path fill="#1B8063" id="SSs2/3" d="M412 173h7c0-12.061-2.185-34.871-7-44.5l-9-23.5c-1.822 0-8 3.711-8 6 0 5.101 3.783 12.066 6 16.5 3.578 7.156 11 36.967 11 45.5Z"/><path fill="#CBC8CB" id="fi" d="M192 137c-5.139 0-11.099 3.8-15.5 6-5.204 2.602-9.506-4-10.5-4v-3l1-2 9.5-10c4.984-4.984 24.5-9.973 24.5-18 3.909 0 11.507 7 13 7v1l-1 2-6 13-5 4c-1.761 0-10 2.307-10 4Z"/><path fill="#8FCBEC" id="SF" d="M214 116c0 3.044 18.685 2 22 2 1.745 0 6 .698 6-2l-1-6h-25l-2 3v3Z"/><path fill="#187C63" id="SSs4" d="M45 173h6c0-10.476 4.553-32.606 9-41.5l8-16.5c-1.287 0-3.637-4-6-4l-7 17.5c-4.024 8.049-10 34.545-10 44.5ZM406 173h6c0-8.533-7.422-38.344-11-45.5-2.217-4.434-6-11.399-6-16.5h-1l-6 4c0 1.71 7.697 15.894 9 18.5 2.549 5.098 9 33.544 9 39.5Z"/><path fill="#1C8063" id="SSs5" d="M51 174h12c0-10.347 3.676-28.853 8-37.5l6-13.5v-1l-8-7h-1l-8 16.5c-4.447 8.894-9 31.024-9 41.5v1ZM406 173c-3.629 0-8.716 1-13 1 0-10.909-3.543-29.586-8-38.5-1.211-2.422-6-10.156-6-12.5v-1c2.038 0 8-5.366 8-7h1c0 1.71 7.697 15.894 9 18.5 2.549 5.098 9 33.544 9 39.5Z"/><path fill="#C8C9C9" id="vhc" d="M247 129h2l-6-13h-1c0 2.698-4.255 2-6 2-3.315 0-22 1.044-22-2h-1l-6 13h2l2-1c0-1.952 5.703-3 7.5-3 4.773 0 28.5-1.315 28.5 4Z"/><path fill="#1B7E64" id="SSp-n6b" d="M93 131h2v-1c0-1.238.423-3 2-3l4-8c-3.168 0-8 9.558-8 12Z"/><path fill="#197D63" id="SSs6a" d="m63 174 13 1c0-10.644 5.457-23.415 10-32.5l5-9.5v-1c-4.983 0-8.65-9-14-9l-6 13.5c-4.324 8.647-8 27.153-8 37.5ZM393 174l-13 1c0-8.592-3.31-21.121-7-28.5-1.868-3.735-7-9.238-7-13.5 0-3.665 9.16-8 10.5-8 .63 0 .688-2 2.5-2 0 2.344 4.789 10.078 6 12.5 4.457 8.914 8 27.591 8 38.5Z"/><path fill="#C9C9CA" id="scwm" d="M97 127c-1.577 0-2 1.762-2 3 1.577 0 2-1.762 2-3Z"/><path fill="#A8A9AA" id="V3" fill-rule="evenodd" d="M241 138c0 5.413 8.664 0 0 0m-30 0c0 5.604 7.677 0 0 0m30 13h3l3-2.5 8-7.5v-8l-6-4h-2c-5.523 0-11-5.59-11 4 0 10.97-15 10.962-15-2l-2.5-4-7.5 1-2 1h-2l-5 4-1 5 1 4 11 9h2c2.838 0 9.831 1.665 12.5 3 2.718 1.359 10.696-3 13.5-3Z"/><path fill="#C9C9CA" id="scwm" d="m364 133 7 14-3-3.5-7-13.5 3 3Z"/><path fill="#1B7E64" id="SSp-n6b" d="M92 133h1v-2l-2 1v1h1Z"/><path fill="#C9C9CA" id="scwm" d="m95 131-2 2v-2h2Z"/><path fill="#FF5347" id="SFO" d="m221 131 10 1 3.5-1 1.5 2c0 10.97-15 10.962-15-2Z"/><path fill="#1A8061" id="SSs6b" d="M76 175h2v-2c0-1.048-.473-3 1-3 0-4.646 2-7.501 2-12l1-1v-1l1-2v-1l1-2 1-2c0-1.465-.109-4 2-4l1-2 1-2c0-3.238 3-5.3 3-8h-1l-5 9.5c-4.543 9.085-10 21.856-10 32.5Z"/><path fill="#C9C9CA" id="scwm" d="M93 133c0 1.7-2.46 8-4 8 0-3.238 3-5.3 3-8h1Z"/><path fill="#1A8061" id="SSs6b" d="M379 175h1c0-8.592-3.31-21.121-7-28.5-1.868-3.735-7-9.238-7-13.5h-2l7 14v1c2.109 0 2 2.535 2 4v1l2 4c0 5.474 4 10.905 4 16v2Z"/><path fill="#A8AAAA" id="VL" d="m167 134-1 2 1-2Z"/><path fill="#FF8F9E" id="AD" d="M202 164h1v-6l-1-2c0-1.318-2.84-14 0-14l-1-4c-2.389 0-5.987-1-9-1l-2 3v2l9 17.5 3 4.5ZM253 164h2l11-22v-3l-2.5-2c-2.568-1.284-6.486 1-8.5 1v17l-1 1v1c0 1.048.473 3-1 3v4Z"/><path fill="#A9AAA8" id="chpl" d="M211 138c0 5.604 7.677 0 0 0ZM241 138c0 5.413 8.664 0 0 0Z"/><path fill="#97D6F9" id="STR" d="m290 140 1 1c0-1.048.473-3-1-3v2Z"/><path fill="#FF6F80" id="TH" d="m268 141-2 1v-3l2 2Z"/><path fill="#97D6F9" id="STR" d="m166 140-1 2 1-2Z"/><path fill="#FF6F80" id="TH" d="m189 141 1 1v-2l-1 1Z"/><path fill="#C9C9CA" id="scwm" d="m89 141-1 2 1-2Z"/><path fill="#FD909E" id="AV" d="m183 174 2 3c3.445 0 3.716-7 8-7 0-3.029 9-1.962 9-6l-3-4.5-9-17.5-1-1c-5.775 0-9.945 4-15 4l-1 1v4l1 1v1l1 1v1l1 1 1 3 1 1v1l1 1v2l1 1v1l1 2v2l2 4v1Z"/><path fill="#CCC9C8" id="sm" d="m253 160-4 1c0-2.909-5-4.795-5-8v-2l3-2.5 8-7.5v14l-1 1v1c-1.473 0-1 1.952-1 3Z"/><path fill="#FD909E" id="AV" d="M271 177h1l1-2v-1l1-2 1-2v-1l1-2v-1l1-2v-2l1-1v-1l1-1 3-7 1-1v-2l-1-4c-4.769 0-8.687-4-14-4l-2 1-11 22c0 3.877 9 3.658 9 6l7 7Z"/><path fill="#97D6F9" id="STR" d="m155 149-4.5-5c-5.479 0-2.626 14-5.5 14 0-22.204.57-13 15-13l-1 3-4 1Z"/><path fill="#CCC9C8" id="sm" d="M203 159c.292 0 1.402 1 5 1l4-6 1-1v-2l-11-9c-2.84 0 0 12.682 0 14l1 2v1Z"/><path fill="#97D6F9" id="STR" d="M292 144h1l-2-2v1l1 1ZM301 149h1l1-1c0-1.641 3.725-5.05 5-2.5.694 1.389 1.384 8.5 3 8.5 0-18.074-3.848-9-15-9l1 2 4 2Z"/><path fill="#C9C9CA" id="scwm" d="m88 143-1 2 1-2Z"/><path fill="#97D6F9" id="STR" d="M164 144h1v-1l-1 1Z"/><path fill="#CAC7CB" id="fiber tracts" d="m170 148-1 1c-1.811 0-4-3.438-4-5v-1c2.813 0 3.461 4 5 4v1ZM287 148l1 1c.828 0 4-3.748 4-5l-1-1c-2.96 0-4 2.399-4 5Z"/><path fill="#CCC" d="M163 193v1c2.695 0 1.823 9 5.5 9 2.742 0 3.369-7.761 2.5-9.5-4.501-9.001-7.453-18.906-12-28-1.161-2.321 1-8.571 1-10.5l-5-6-4.5-5c-5.479 0-2.626 14-5.5 14v3c6.233 0 17 24.641 17 30l1 2Z"/><path fill="#C8CBC7" id="st" d="m163 157 5 2c0-3.51 1-7.022 1-10-1.811 0-4-3.438-4-5h-1l-4 1-1 3c0 2.518 2 4.286 2 6l2 3ZM294 157l-6 2v-10c.828 0 4-3.748 4-5h1l3 1 1 2c0 2.409-1 5.181-1 7l-2 3Z"/><path fill="#C9C9CA" id="scwm" d="M87 145c-2.109 0-2 2.535-2 4l2-4Z"/><path fill="#FF6F80" id="TH" d="m174 145-1 1 1-1ZM286 148l-3 1-1-4 4 3Z"/><path fill="#CCC" d="M294 191v1c-1.701 0-3.683 12.408-6.5 11-5.509-2.754-.5-10.192-.5-14 0-6.677 7.06-16.62 10-22.5 1.204-2.408 0-9.595 0-11.5 0-2.33 4-3.227 4-6h1l1-1c0-1.641 3.725-5.05 5-2.5.694 1.389 1.384 8.5 3 8.5v7c-5.556 0-16 23.711-16 29l-1 1Z"/><path fill="#FF6F80" id="TH" d="m170 148 3 1v-3l-3 1v1Z"/><path fill="#CAC7CB" id="fiber tracts" d="m296 154 1 1c0-2.33 4-3.227 4-6l-4-2c0 2.409-1 5.181-1 7ZM161 154l-1 1-5-6 4-1c0 2.518 2 4.286 2 6Z"/><path fill="#FD8F9F" id="RT" d="m199 193 6 4.5c.391.783 1.484 5.5-.5 5.5-5.047 0-4.735-7.633-16-2-1.147.574-4.5-1.064-4.5 1l-6.5 1c-4.042-2.021-12.5-32.393-12.5-38l3-6c0-3.51 1-7.022 1-10l1-1 3 1v1l1 1v1l1 1v1l1 1 1 3 1 1v1l1 1v2l1 1v1l1 2v2l2 4v1c0 1.465-.109 4 2 4v2l1 1c0 4.608 8.712 12 13 12ZM256 201c0-4.552 10.069-.715 11.5 0 1.147.574 4.5-1.064 4.5 1l6.5 1c3.956-1.978 13.5-32.815 13.5-38l-4-6v-10l-1-1h-1l-3 1v2l-1 1-3 7-1 1v1l-1 1v2l-1 2v1l-1 2v1l-1 2-1 2v1l-1 2-1 2v2l-1 1c0 4.625-8.81 11-13 11l-6 5.5c-.463.927-.317 5.408 1.5 4.5l2.5-2h1Z"/><path fill="#CAC7CB" id="fiber tracts" d="m303 148-1 1 1-1Z"/><path fill="#C9C9CA" id="scwm" d="M371 148c2.109 0 2 2.535 2 4l-2-4ZM85 149l-1 2 1-2Z"/><path fill="#FF6F80" id="TH" d="m173 150 1 1-1-1Z"/><path fill="#C9C9CA" id="scwm" d="m84 151-1 2 1-2Z"/><path fill="#FF6F80" id="TH" d="M213 153h2v-2h-2v2Z"/><path fill="#FE8F9E" id="PVT" d="M221 195h14v-2c0-4.483-3.354-13.792-1-18.5 1.871-3.742 4-10.189 4-14.5 0-2.757 4-4.081 4-7l-1-2c-2.804 0-10.782 4.359-13.5 3-2.669-1.335-9.662-3-12.5-3v2c0 3.53 3 3.378 3 7 1.381 0 1.413 6.327 2 7.5 5.668 11.336 1 16.378 1 26.5v1Z"/><path fill="#FF6F80" id="TH" d="M242 153h2v-2h-3l1 2ZM283 151l-1 1 1-1ZM174 152l1 1-1-1ZM213 153l-1 1 1-1Z"/><path fill="#FD909D" id="MD" d="m218 160-10 2v-2l4-6 1-1h2c0 3.53 3 3.378 3 7ZM249 161v1c-4.135 0-7.305-2-11-2 0-2.757 4-4.081 4-7h2c0 3.205 5 5.091 5 8Z"/><path fill="#C9C9CA" id="scwm" d="m373 153 2 4-2-4ZM83 154l-1 2 1-2Z"/><path fill="#8599CC" id="PAL" d="M168 227h1v-3c0-1.572 2.052-7 4-7 0-3.842 9.369-14 13-14l-2-1-6.5 1c-4.042-2.021-12.5-32.393-12.5-38-1.434 0-2-6.448-2-8l-2-3-1 1c0 1.929-2.161 8.179-1 10.5 4.547 9.094 7.499 18.999 12 28 .869 1.739.242 9.5-2.5 9.5-3.677 0-2.805-9-5.5-9 0 10.349 1.263 26-12.5 26h-7c-1.506-.753-7.18-4-8.5-4 0 1.515 4.327 10 6 10 0-3.681 6.568-3.034 8.5-4 6.539-3.269 18.5-6.096 18.5 5Z"/><path fill="#FF6F80" id="TH" d="m175 154 1 1-1-1Z"/><path fill="#8599CC" id="PAL" d="m288 226 3.5-7c3.267-1.633 23.5 3.373 23.5 8l6-10c-1.908 0-6.651 2.076-8.5 3-2.308 1.154-8.163-.082-10-1-11.665-5.833-8.5-15.198-8.5-27-1.701 0-3.683 12.408-6.5 11-5.509-2.754-.5-10.192-.5-14 0-6.677 7.06-16.62 10-22.5 1.204-2.408 0-9.595 0-11.5l-1-1-2 3-2 8c0 5.185-9.544 36.022-13.5 38l-6.5-1-2 1c4.529 0 17 15.362 17 20v2l1 1Z"/><path fill="#FF6F80" id="TH" d="m255 155-1 1 1-1ZM202 156l1 2-1-2Z"/><path fill="#C9C9CA" id="scwm" d="m82 157-1 1 1-1Z"/><path fill="#CAC7CB" id="fiber tracts" d="m168 159-3 6c-1.434 0-2-6.448-2-8l5 2Z"/><path fill="#FF6F80" id="TH" d="M254 157c-1.473 0-1 1.952-1 3 1.473 0 1-1.952 1-3Z"/><path fill="#CAC7CB" id="fiber tracts" d="m288 159 4 6 2-8-6 2Z"/><path fill="#97D6F9" id="STR" d="M311 161h2l-2-4v4Z"/><path fill="#FF6F80" id="TH" d="m177 158 1 1-1-1Z"/><path fill="#97D6F9" id="STR" d="M144 161h1v-2l-1 2Z"/><path fill="#FF6F80" id="TH" d="m208 162-1 1-4-1v-3c.292 0 1.402 1 5 1v2ZM279 159l-1 1 1-1ZM178 160l1 1-1-1Z"/><path fill="#FF909F" id="PT" d="M211 195h9l1-1c0-10.122 4.668-15.164-1-26.5-.587-1.173-.619-7.5-2-7.5l-10 2-1 1c0 6.156 4 12.47 4 19 0 1.593-.337 7-2 7v2l2 4ZM237 195h8c2.109 0 2-2.535 2-4l-2-9.5c2.251-4.502 4-13.364 4-18.5v-1c-4.135 0-7.305-2-11-2 0 4.311-2.129 10.758-4 14.5-2.354 4.708 1 14.017 1 18.5l2 2Z"/><path fill="#FF6F80" id="TH" d="m253 162-4 1v-2l4-1v2Z"/><path fill="#8598CC" id="GPe" d="m134 214 1 2c1.32 0 6.994 3.247 8.5 4h7c13.763 0 12.5-15.651 12.5-26v-1l-1-2c0-5.359-10.767-30-17-30h-1c-2.769 0-5.789 8.078-7 10.5-7.191 14.382-3 27.444-3 42.5Z"/><path fill="#FF6F80" id="TH" d="m278 161-1 1 1-1Z"/><path fill="#8598CC" id="GPe" d="m322 215-1 2c-1.908 0-6.651 2.076-8.5 3-2.308 1.154-8.163-.082-10-1-11.665-5.833-8.5-15.198-8.5-27v-1l1-1c0-5.289 10.444-29 16-29h2l4 5.5c2.299 4.598 3.744 9.488 6 14 3.61 7.22-1 27.236-1 34.5Z"/><path fill="#FC8E9F" id="IAD" d="M203 164c0 4.592 6 14.942 6 25 1.663 0 2-5.407 2-7 0-6.53-4-12.844-4-19l-4-1v2ZM247 191h2c0-2.203-3.465-4.569-2-7.5 1.334-2.668 6-17.027 6-19.5v-2l-4 1c0 5.136-1.749 13.998-4 18.5l2 9.5Z"/><path fill="#FF6F80" id="TH" d="m179 163 1 1-1-1Z"/><path fill="#FD8D9F" id="AMd" d="M208 191c-2.932 0-4.186 1-7 1 0-7.205-8-14.208-8-22 0-3.029 9-1.962 9-6h1c0 4.592 6 14.942 6 25l-1 2ZM249 191c1.564 0 3.876 1 6 1l6-12.5c.69-1.38 1.55-9.5 3-9.5 0-2.342-9-2.123-9-6h-2c0 2.473-4.666 16.832-6 19.5-1.465 2.931 2 5.297 2 7.5Z"/><path fill="#FF6F80" id="TH" d="m277 164-1 2 1-2ZM180 165l1 2-1-2ZM276 167l-1 2 1-2ZM181 169l2 4-2-4Z"/><path fill="#C9C7C9" id="ccb" d="M78 173h1v-3c-1.473 0-1 1.952-1 3Z"/><path fill="#FC909D" id="AMv" d="m201 192-2 1c-4.288 0-13-7.392-13-12l-1-1v-3c3.445 0 3.716-7 8-7 0 7.792 8 14.795 8 22ZM255 192l2 1c4.19 0 13-6.375 13-11l1-1v-4l-7-7c-1.45 0-2.31 8.12-3 9.5l-6 12.5Z"/><path fill="#FF6F80" id="TH" d="m275 170-1 2 1-2ZM274 172l-1 2 1-2Z"/><path fill="#12AD83" id="VISC1" d="m415 198 4 2c3.322 0 5-23.399 5-28l-5 1v11.5c-1.688 3.376-4 9.669-4 13.5ZM42 198l-5 2c0-2.461-2.81-9.121-4-11.5V173h4c0 5.662-.354 12.791 2 17.5l3 7.5Z"/><path fill="#12AC83" id="VISC2/3" d="M51 195c0 1.592-7.662 3-9 3l-3-7.5c-2.354-4.709-2-11.838-2-17.5h8c0 6.765 1.207 13.914 4 19.5l2 2.5Z"/><path fill="#11AC82" id="VISC4" d="M51 195h2l-3-10.5c-1.489-2.977 1-8.046 1-10.5v-1h-6c0 6.765 1.207 13.914 4 19.5l2 2.5Z"/><path fill="#C8CBCC" id="ec" d="M84 202h1c0-4.837-3.928-10.356-6-14.5V173h-1v2l-1 4v3c1.684 0 1 4.679 1 6 1.473 0 1 1.952 1 3l1 1v1l1 1 2 6 1 1v1ZM377 189h1c0-1.048-.473-3 1-3v-13l-2 1v15Z"/><path fill="#12AD82" id="VISC5" d="m404 194-1 1-12-2c0-6.309 2-12.029 2-19 4.284 0 9.371-1 13-1 0 7.375-2 14.579-2 21Z"/><path fill="#11AC82" id="VISC4" d="M404 195h1c2.464 0 7-18.561 7-22h-6c0 7.375-2 14.579-2 21v1Z"/><path fill="#12AC83" id="VISC2/3" d="M414 198h1c0-3.831 2.312-10.124 4-13.5V173h-7c0 3.439-4.536 22-7 22 0 1.139 7.742 3 9 3Z"/><path fill="#12AD82" id="VISC5" d="m66 193-13 2-3-10.5c-1.489-2.977 1-8.046 1-10.5h12c0 7.057 3 12.837 3 19Z"/><path fill="#11AC83" id="VISC6a" d="m74 192-8 1c0-6.163-3-11.943-3-19l13 1c0 1.145-.58 4 1 4v10l-3 3Z"/><path fill="#FF6F80" id="TH" d="M185 177v1c-2.109 0-2-2.535-2-4l2 3Z"/><path fill="#11AC83" id="VISC6a" d="M390 193h1c0-6.309 2-12.029 2-19l-13 1c0 1.657.763 10-1 10v4l4 3 7 1Z"/><path fill="#11AD82" id="VISC6b" d="m78 175-1 4c-1.58 0-1-2.855-1-4h2Z"/><path fill="#FF6F80" id="TH" d="m273 175-1 2 1-2Z"/><path fill="#11AD82" id="VISC6b" d="M380 175c0 1.657.763 10-1 10v-10h1Z"/><path fill="#FF6F80" id="TH" d="m272 177-1 2v-2h1ZM185 180l1 1-1-1ZM271 181l-1 1 1-1Z"/><path fill="#11AD82" id="VISC6b" d="M77 189h1v-1c0-1.321.684-6-1-6v7ZM378 189h1v-3c-1.473 0-1 1.952-1 3Z"/><path fill="#019C74" id="GU6b" d="M78 191h1c0-1.048.473-3-1-3v3Z"/><path fill="#009B74" id="GU6a" d="m78 191-4 1 3-3h1v2Z"/><path fill="#FC8E9F" id="IAD" d="M208 191h1v-2l-1 2Z"/><path fill="#C8CBCC" id="ec" d="m376 193-1 1c0-1.424.362-5 2-5v3l-1 1Z"/><path fill="#019C74" id="GU6b" d="M378 191h1v-2h-2v2h1Z"/><path fill="#009B74" id="GU6a" d="m379 191 4 1-4-3v2Z"/><path fill="#8599CC" id="PAL" d="m295 190-1 1 1-1Z"/><path fill="#209766" id="AIp6a" d="M76 213h1c0-3.602 5-5.209 5-7-6.443 0-8.406-14-3-14v-1h-1l-4 1-8 1 10 20Z"/><path fill="#219666" id="AIp6b" d="M79 192h1l-1-1v1Z"/><path fill="#8599CC" id="PAL" d="m162 191 1 2-1-2Z"/><path fill="#FF6F80" id="TH" d="M207 209c5.583 0 10.054 6 16 6l-3.5-2-9.5-9.5c-2.124-4.247 1-5.069 1-8.5l-2-4h-1c-2.932 0-4.186 1-7 1l-2 1 6 4.5c.391.783 1.484 5.5-.5 5.5-5.047 0-4.735-7.633-16-2-1.147.574-4.5-1.064-4.5 1l2 1h3c2.819 0 14-6.169 14 2l4 4ZM249 209c-3.843 0-6.746 4-11 4l9-10.5c1.558-3.117-2-5.401-2-7.5 2.109 0 2-2.535 2-4h2c1.564 0 3.876 1 6 1l2 1-6 5.5c-.463.927-.317 5.408 1.5 4.5l2.5-2-2 4-4 4Z"/><path fill="#219666" id="AIp6b" d="M377 192h1v-1h-1v1Z"/><path fill="#209766" id="AIp6a" d="M379 213h2l9-20-7-1-4-1h-1v1c3.483 0 2.175 12.162.5 13-1.741.87-6.5 1.705-6.5-2h-1v3c5.253 0 8 3.393 8 7Z"/><path fill="#8ADA86" id="CLA" d="M84 202c0 2.424-2 2.76-2 4-6.443 0-8.406-14-3-14h1v1l1 1 2 6 1 1v1Z"/><path fill="#219666" id="AIp6b" d="m377 192-1 1 1-1Z"/><path fill="#8ADA86" id="CLA" d="m373 201-1 2c0 3.705 4.759 2.87 6.5 2 1.675-.838 2.983-13-.5-13h-1l-1 1-1 1c0 1.424-.362 5-2 5v2Z"/><path fill="#219864" id="AIp5" d="m76 213-7 3c-2.872 0-16-18.682-16-21l13-2 10 20Z"/><path fill="#209766" id="AIp6a" d="m80 193 1 1-1-1Z"/><path fill="#FF6F80" id="TH" d="M235 195h2l-2-2v2Z"/><path fill="#219864" id="AIp5" d="M381 214c2.483 0 4.026 2 6 2 3.461 0 16-17.407 16-21l-12-2h-1l-9 20v1Z"/><path fill="#FF6F80" id="TH" d="M220 195h1v-1l-1 1Z"/><path fill="#C8CBCC" id="ec" d="M375 194c-2.461 0-2 3.378-2 5 1.638 0 2-3.576 2-5Z"/><path fill="#12AC83" id="VISC2/3" d="M403 195h1v-1l-1 1Z"/><path fill="#209865" id="AIp2/3" d="M69 216c0 .767-9.54 4-11 4 0-3.903-16-14.979-16-22 1.338 0 9-1.408 9-3h2c0 2.318 13.128 21 16 21Z"/><path fill="#FD909F" id="RE" d="M231 215h3l2-1 2-1 9-10.5c1.558-3.117-2-5.401-2-7.5h-34c0 3.431-3.124 4.253-1 8.5l9.5 9.5 3.5 2h3l1-1c.839 0 2-1.93 2 0l2 1Z"/><path fill="#209865" id="AIp2/3" d="M387 216c0 .767 9.54 4 11 4 0-4.308 16-13.824 16-22-1.258 0-9-1.861-9-3h-2c0 3.593-12.539 21-16 21Z"/><path fill="#219765" id="AIp1" d="m58 220-4 2c-2.046 0-17-19.168-17-22l5-2c0 7.021 16 18.097 16 22ZM398 220l5 2c0-4.071 16-14.317 16-22l-4-2h-1c0 8.176-16 17.692-16 22Z"/><path fill="#FF6F80" id="TH" d="M267 203h3l2-1c0-2.064-3.353-.426-4.5-1-1.431-.715-11.5-4.552-11.5 0 3.982 0 8.05 2 11 2Z"/><path fill="#C8CBCC" id="ec" d="M371 203h1l1-2v-2c-2.109 0-2 2.535-2 4Z"/><path fill="#209766" id="AIp6a" d="m83 200 1 1-1-1Z"/><path fill="#F0483B" id="ZI" d="M203 205v2c0 6.381-14-.03-14-4 2.819 0 14-6.169 14 2ZM253 205v2c0 5.73 14 .858 14-4-2.95 0-7.018-2-11-2h-1l-2 4Z"/><path fill="#209766" id="AIp6a" d="m373 201-1 2 1-2ZM82 206l4 1-1-4v-1h-1c0 2.424-2 2.76-2 4Z"/><path fill="#C8CBCC" id="ec" d="m114 238-3 1-4-1-2-2-1-1h-1c0-1.747-.253-2-2-2v-1l-1-1-1-1-2-3v-1l-1-1c-1.633 0-8.173-18-10-18l-1-4c2.47 0 3.265 5.03 4 6.5 1.673 3.346 11.763 22.5 16 22.5l1 1h1c0 2.826 7 1.142 7 5Z"/><path fill="#E64438" id="HY" fill-rule="evenodd" d="M191 222c0 6.295 6.295 0 0 0m12-9c0 .565-5.23 5.959-6 7.5-.774 1.548 3.827 5.336 5.5 4.5 6.254-3.127 12.333-12 .5-12m-21-6c0 11.238 12.742 3.121 6.5 0H182m13 68 7 2c0-2.218-5.504-4 1-4 0-.704-8.803-5.106-10-7.5-6.517-13.034 2.841-26.5 16-26.5 0-13.11 10-9.208 10 2 2.297 0 1.849-3 5-3v-1l-3-2.5c-.821-1.643-7.114-16.771-7-17 1.979-3.957 15-.527 15-1.5l-2-1h-4c-5.946 0-10.417-6-16-6l-4-2c0 6.381-14-.03-14-4h-3c-3.631 0-13 10.158-13 14 2.206 0 4.047-3.726 7.5-2 3.388 1.694 3.192 5.885 4.5 8.5 3.669 7.338 11.488 36.006.5 41.5-4.204 2.102-16.111-7-20.5-7 0 2.29 4.971 12 8 12 0-7.706 17-3.371 17 2l4 3h1ZM263 222l-1 1.5c0 3.82 6.626-1.5 1-1.5m-12-9c0 1.539-4 2.187-4 5 0 13.002 20.608 3.054 8.5-3l-4.5-2m16-6-1 4.5c3.1 6.2 15.075-4.5 5-4.5h-4m-8 69h1l1-1h1l2-1 2-2c0-3.439 17-11.43 17-1 2.425 0 8-9.782 8-12-5.834 0-14.619 8.941-20.5 6-10.506-5.253-3.105-33.29.5-40.5 1.159-2.318 1.8-8.15 4.5-9.5 7.401-3.7 6.691 8 11.5 8 0-4.638-12.471-20-17-20h-3c0 4.858-14 9.73-14 4l-4 2c-3.843 0-6.746 4-11 4l-2 1-2 1h-5v1c4.15 0 11.855-2.79 14 1.5.953 1.905-1.358 2.717-2 4-1.259 2.517-5.632 15.5-9 15.5v2c6.279 0 6 5.485 6 12 .144 0 3-7.359 3-8-9.592 0 .584-21.332 7-8.5v4.5c14.301 0 20.991 15.518 15 27.5-.876 1.752-10 5.447-10 6.5 5.962 0 2 .827 2 4l4-1Z"/><path fill="#C8CBCC" id="ec" d="m370 207-3 4c0-1.7 2.46-8 4-8v3l-1 1Z"/><path fill="#CAC7CB" id="fiber tracts" d="m203 207 4 2-4-4v2ZM253 207l-4 2 4-4v2Z"/><path fill="#A0EE9C" id="EPd" d="M97 231c0 1.747-.253 2-2 2-2.475 0-11-4.926-11-8 .975 0-7-9.361-7-12 0-3.602 5-5.209 5-7l4 1c1.827 0 8.367 18 10 18l1 1v5Z"/><path fill="#209766" id="AIp6a" d="m371 206-1 1 1-1Z"/><path fill="#A0EE9C" id="EPd" d="m367 231-5 2c-2.041 0-3-.959-3-3v-3l1-1c0-2.538 3-3.953 3-7 2.109 0 2-2.535 2-4 2.109 0 2-2.535 2-4l3-4 1-1c5.253 0 8 3.393 8 7v2c-1.442 0-6 7.56-6 9l-1 1v1l-1 1-1 1-1 1-1 1-1 1Z"/><path fill="#CCC9C8" id="sm" d="M182 207c0 11.238 12.742 3.121 6.5 0H182ZM267 207l-1 4.5c3.1 6.2 15.075-4.5 5-4.5h-4Z"/><path fill="#C8CBCC" id="ec" d="m367 211-2 4c2.109 0 2-2.535 2-4Z"/><path fill="#6ACAB9" id="PIR" d="M115 273c0 6.632-12 23.017-12 24-6.144 0-12.59-8.68-15-13.5-6.95-13.898-14.11-27.22-21-41-2.602-5.204-13-15.704-13-20.5l4-2c1.46 0 11-3.233 11-4l7-3 2 5 1 1v1l1 1 1 1v1l2 2 2 3c0 1.805 6.778 9 8 9 0 2.868 11.94 19.44 14.5 22l5.5 6c0 2.709 2 4.646 2 8Z"/><path fill="#C9C8CA" id="ee" d="M83 225h1c.975 0-7-9.361-7-12h-1l2 5 1 1v1l1 1 1 1v1l2 2Z"/><path fill="#C7C8CA" id="fx" d="M203 213c0 .565-5.23 5.959-6 7.5-.774 1.548 3.827 5.336 5.5 4.5 6.254-3.127 12.333-12 .5-12Z"/><path fill="#FF6F80" id="TH" d="m238 213-2 1 2-1Z"/><path fill="#C7C8CA" id="fx" d="M251 213c0 1.539-4 2.187-4 5 0 13.002 20.608 3.054 8.5-3l-4.5-2Z"/><path fill="#C9C8CA" id="ee" d="m381 214-2 1v-2h2v1Z"/><path fill="#97D6F9" id="STR" d="m123 253 5 1c0-7.618 6.075-16.713 15.5-12l5.5 3-2-3c0-1.238-.423-3-2-3 0 2.334-5.3 3.1-7.5 2-6.627-3.313-.946-12 4.5-12l-1-3c-1.673 0-6-8.485-6-10l-1-2v11c2.663 0-.427 10.354-1 11.5-3.137 6.275-9.43 13.5-17 13.5 0 1.267 5.853 3 7 3Z"/><path fill="#FF6F80" id="TH" d="M226 215h1v-1l-1 1ZM229 215h2l-2-1v1ZM236 214l-2 1 2-1Z"/><path fill="#F2483A" id="LHA" d="M291 258v1c-5.834 0-14.619 8.941-20.5 6-10.506-5.253-3.105-33.29.5-40.5 1.159-2.318 1.8-8.15 4.5-9.5 7.401-3.7 6.691 8 11.5 8v2l1 1v1l1 2c0 4.527 2 7.754 2 12 0 4.703 2 9.513 2 15l-1 1-1 1Z"/><path fill="#6ACAB9" id="PIR" d="M341 273c0 6.278 13 23.394 13 24 4.929 0 11.009-7.517 13-11.5 7.689-15.378 16.353-29.705 24-45l12-18.5-5-2c-1.46 0-11-3.233-11-4-1.974 0-3.517-2-6-2l-2 1v2l-1 1-2 4-1 1-1 1-1 1v1l-1 1-1 1-1 1-1 1c0 1.238-.423 3-2 3l-2 2-1 2c0 2.299-13.052 19.552-15.5 22l-5.5 6v1l-1 1-1 6Z"/><path fill="#F2483A" id="LHA" d="M165 242c0 3.521-3.792 8.915-2 12.5l2 3.5c4.389 0 16.296 9.102 20.5 7 10.988-5.494 3.169-34.162-.5-41.5-1.308-2.615-1.112-6.806-4.5-8.5-3.453-1.726-5.294 2-7.5 2 0 1.572-2.052 7-4 7v3l-1 1v1l-1 2c0 4.135-2 7.305-2 11Z"/><path fill="#FF5D4F" id="PVH" d="M229 237h3c3.368 0 7.741-12.983 9-15.5.642-1.283 2.953-2.095 2-4-2.145-4.29-9.85-1.5-14-1.5 0 .973-13.021-2.457-15 1.5-.114.229 6.179 15.357 7 17l3 2.5h3v-14c0-1.145-.579-4 1-4 0-1.186 1-1.186 1 0v18Z"/><path fill="#97D6F9" id="STR" d="m333 253-5 1c0-16.332-8.176-11-19-11v-1l2-3c0 2.268 5.85 2.825 7.5 2 6.044-3.022 2.791-12-3.5-12v-2l6-10 1-2c0 3.325 1 7.31 1 10-3.131 0-1.145 8.209 0 10.5 3.198 6.395 8.915 14.5 17 14.5 0 1.429-5.655 3-7 3Z"/><path fill="#C8CBCC" id="ec" d="M365 215c-2.109 0-2 2.535-2 4 2.109 0 2-2.535 2-4Z"/><path fill="#C9C8CA" id="ee" d="M373 224h1l1-1 1-1 2-4 1-1v-2c-1.442 0-6 7.56-6 9Z"/><path fill="#E64438" id="HY" d="M173 217c-1.948 0-4 5.428-4 7 1.948 0 4-5.428 4-7Z"/><path fill="#A0EE9C" id="EPd" d="m379 217-1 1 1-1ZM78 218l1 1-1-1Z"/><path fill="#E64438" id="HY" d="M228 219h1c0-1.186-1-1.186-1 0Z"/><path fill="#A2B1D7" id="SI" d="M147 242c1.32 0 6.994 3.247 8.5 4 3.896 1.948 6.695-4 9.5-4 0-3.695 2-6.865 2-11l1-2v-2c0-11.096-11.961-8.269-18.5-5-1.932.966-8.5.319-8.5 4l1 3c4.4 0 3 8.411 3 10 1.577 0 2 1.762 2 3Z"/><path fill="#A8A9AA" id="V3" d="M227 237v27c0 1.257-.662 9.081 1.5 8l.5-35v-18h-1c-1.579 0-1 2.855-1 4v14Z"/><path fill="#A2B1D7" id="SI" d="m309 242-1 1c-2.837 0-6.746 4.877-10.5 3-1.287-.643-6.201-5-6.5-5 0-4.246-2-7.473-2-12l-1-2v-1l3.5-7c3.267-1.633 23.5 3.373 23.5 8v2c-4.745 0-4 6.503-4 10l-2 3Z"/><path fill="#C8CBCC" id="ec" d="m349 238-3 1-4-1v-1l7-4h1l1-1h1l1-1c4.899 0 5.863-12 10-12 0 3.047-3 4.462-3 7l-1 1v1l-2 2-1 1-1 2-2 2-3 2-1 1Z"/><path fill="#99D2BD" id="OLF" d="m79 220 1 1-1-1Z"/><path fill="#8AD987" id="CTXsp" d="m80 221 1 1-1-1Z"/><path fill="#B3C0DE" id="BST" d="M191 222c0 6.295 6.295 0 0 0ZM263 222l-1 1.5c0 3.82 6.626-1.5 1-1.5Z"/><path fill="#99D2BD" id="OLF" d="m376 222-1 1 1-1ZM81 223l2 2-2-2Z"/><path fill="#8AD987" id="CTXsp" d="m375 223-1 1 1-1Z"/><path fill="#C9C8CA" id="ee" d="M372 225h1v-1l-1 1Z"/><path fill="#8AD987" id="CTXsp" d="m374 224-1 1v-1h1ZM95 233l-2 3-8-8-2-3h1c0 3.074 8.525 8 11 8ZM96 225l1 1-1-1Z"/><path fill="#7ECDF8" id="FS" d="m113 248 3 2c7.57 0 13.863-7.225 17-13.5.573-1.146 3.663-11.5 1-11.5-1.448 0-10.72 9-18 9 0 4.066 7 .235 7 5v1c0 3.517-7 5.589-7 3h-1l-2 2v3Z"/><path fill="#E64438" id="HY" d="m287 225 1 1-1-1Z"/><path fill="#7ECDF8" id="FS" d="m342 249-2 1c-8.085 0-13.802-8.105-17-14.5-1.145-2.291-3.131-10.5 0-10.5 0 4.374 14.181 9 18 9 0 3.232-5 .827-5 3-10.009 0 4 11.093 4 6h1c2.293 0 2 .997 2 3v1l-1 2Z"/><path fill="#8AD987" id="CTXsp" d="M372 226h1v-1h-1v1ZM360 226l-1 1 1-1ZM371 227h1v-1l-1 1Z"/><path fill="#99D2BD" id="OLF" d="m373 226-1 1v-1h1Z"/><path fill="#8AD987" id="CTXsp" d="m99 230-2 1v-4l2 3Z"/><path fill="#E64438" id="HY" d="m169 227-1 1v-1h1Z"/><path fill="#8599CC" id="PAL" d="m288 227 1 2-1-2Z"/><path fill="#8AD987" id="CTXsp" d="M370 228h1v-1l-1 1Z"/><path fill="#99D2BD" id="OLF" d="m372 227-1 1v-1h1ZM93 236v1c-1.222 0-8-7.195-8-9l8 8Z"/><path fill="#8AD987" id="CTXsp" d="M357 230h2v-2l-2 2ZM369 229h1v-1l-1 1Z"/><path fill="#99D2BD" id="OLF" d="m371 228-1 1v-1h1Z"/><path fill="#7FC0E0" id="CEAm" d="M142 229c4.4 0 3 8.411 3 10 0 2.334-5.3 3.1-7.5 2-6.627-3.313-.946-12 4.5-12Z"/><path fill="#8599CC" id="PAL" d="m168 229-1 2 1-2Z"/><path fill="#7FC0E0" id="CEAm" d="M315 229c6.291 0 9.544 8.978 3.5 12-1.65.825-7.5.268-7.5-2 0-3.497-.745-10 4-10Z"/><path fill="#8AD987" id="CTXsp" d="M368 230h1v-1l-1 1Z"/><path fill="#99D2BD" id="OLF" d="m370 229-1 1v-1h1Z"/><path fill="#A0ED9D" id="EPv" d="M113 265h1c3.231 0 1.954-12.592 1-14.5l-2-2.5v-1l-6-6c-2.455 0-4-2.564-4-5l-2-3v-1l-1-1-1-1-2 1c0 1.747-.253 2-2 2l-2 3v1c0 2.868 11.94 19.44 14.5 22l5.5 6ZM342 249c0 1.968-4.782 16 1 16l5.5-6c2.448-2.448 15.5-19.701 15.5-22v-1l-2-3c-2.041 0-3-.959-3-3h-2l-1 1-1 2-1 3c0 2.101-2.831 5-5 5l-4 4-1 1-1 1-1 2Z"/><path fill="#8AD987" id="CTXsp" d="m368 230-1 1 1-1Z"/><path fill="#99D2BD" id="OLF" d="M367 231v2c1.577 0 2-1.762 2-3h-1l-1 1Z"/><path fill="#8AD987" id="CTXsp" d="m100 231 1 1-1-1Z"/><path fill="#FD4C3E" id="MPN" d="M219 241c-1.49 0-2.587 1-5 1l-5-3c0-13.11 10-9.208 10 2ZM248 239l-7 4c-9.592 0 .584-21.332 7-8.5v4.5Z"/><path fill="#97D6F9" id="STR" d="m353 231-1 1 1-1Z"/><path fill="#8AD987" id="CTXsp" d="m356 231-1 2 1-2ZM365 235l-1 1-2-3 5-2v2c-1.747 0-2 .253-2 2Z"/><path fill="#97D6F9" id="STR" d="m105 232 1 1-1-1ZM351 232l-1 1 1-1Z"/><path fill="#8AD987" id="CTXsp" d="M103 235v1l-2-3c1.747 0 2 .253 2 2Z"/><path fill="#97D6F9" id="STR" d="M114 238c1.606 0 4.339-2.081 6.5-1l2.5 2c0-4.765-7-.934-7-5l-9-1c0 2.826 7 1.142 7 5ZM336 237h6l7-4-8 1c0 3.232-5 .827-5 3Z"/><path fill="#8AD987" id="CTXsp" d="m353 235 1 1 1-3-2 2Z"/><path fill="#99D2BD" id="OLF" d="M367 233c-1.747 0-2 .253-2 2l2-2Z"/><path fill="#80BEE2" id="IA" d="M107 238c0 .716 2.373 3 0 3-2.455 0-4-2.564-4-5v-1h1l1 1 2 2Z"/><path fill="#8AD987" id="CTXsp" d="m104 235 1 1-1-1Z"/><path fill="#80BEE2" id="IA" d="M349 238c0 .716-2.373 3 0 3 2.169 0 5-2.899 5-5l-1-1-3 2-1 1Z"/><path fill="#99D2BD" id="OLF" d="M364 236v1l1-2-1 1Z"/><path fill="#C9C9C9" id="act" d="M115 243h1c3.145 0 4.833-3 7-3v-1l-2.5-2c-2.161-1.081-4.894 1-6.5 1l1 5Z"/><path fill="#FF5D50" id="PVa" d="M227 277h2c0-3.395 2-6.106 2-10 0-8.774 1-18.617 1-28v-2h-3l-.5 35c-2.162 1.081-1.5-6.743-1.5-8v-27h-3v1c0 9.776 1 19.801 1 29l2 10Z"/><path fill="#97D6F9" id="STR" d="M336 237c-10.009 0 4 11.093 4 6-9.108 0-4-2.707-4-6Z"/><path fill="#C9C9C9" id="act" d="M340 243h1l1-5v-1h-6c0 3.293-5.108 6 4 6Z"/><path fill="#8AD987" id="CTXsp" d="m350 237-1 1 1-1ZM113 245v2l-6-6c2.373 0 0-2.284 0-3l4 1c0 1.623.005 6 2 6Z"/><path fill="#97D6F9" id="STR" d="m115 243-2 2c-1.995 0-2-4.377-2-6l3-1 1 5Z"/><path fill="#FD5547" id="SBPV" d="m216 270 1 1 4.5-6 3.5 2c0-9.199-1-19.224-1-29-3.151 0-2.703 3-5 3l-1 7c0 7.741-2 14.986-2 22ZM240 269v2l-4.5-6-4.5 2c0-8.774 1-18.617 1-28 6.279 0 6 5.485 6 12 0 5.444 2 12.506 2 18Z"/><path fill="#97D6F9" id="STR" d="M343 246h1l1-1 1-6-4-1-1 5c2.293 0 2 .997 2 3Z"/><path fill="#8AD987" id="CTXsp" d="m349 241-4 4 1-6 3-1c0 .716-2.373 3 0 3Z"/><path fill="#FF4B3E" id="AHN" d="M203 273h5c3.119 0 5.616-3 8-3 0-7.014 2-14.259 2-22l-4-6-5-3c-13.159 0-22.517 13.466-16 26.5 1.197 2.394 10 6.796 10 7.5ZM248 273h5c0-1.053 9.124-4.748 10-6.5 5.991-11.982-.699-27.5-15-27.5l-7 4c0 .641-2.856 8-3 8 0 5.444 2 12.506 2 18 1.718 0 4.558 4 8 4Z"/><path fill="#97D6F9" id="STR" d="M123 240c-2.167 0-3.855 3-7 3 0 2.589 7 .517 7-3Z"/><path fill="#E64438" id="HY" d="m214 242 4 6 1-7c-1.49 0-2.587 1-5 1Z"/><path fill="#8599CC" id="PAL" d="M283 273c0 1.131 3.489 3.505 4.5 3l2.5-3 1-2v-2c0-1.465-.109-4 2-4l1-2 1-1 2-1 6-8v-1l1-1c0-2.572 4-4.883 4-7v-1c-2.837 0-6.746 4.877-10.5 3-1.287-.643-6.201-5-6.5-5 0 4.703 2 9.513 2 15l-1 1-1 1v1c0 2.218-5.575 12-8 12v2Z"/><path fill="#80C0E2" id="AAA" d="M146 262h5l1-1h1v-8l-4-8-5.5-3c-9.425-4.713-15.5 4.382-15.5 12l8 7c1.406 0 7-.714 7 1h3Z"/><path fill="#8599CC" id="PAL" d="m166 272 3.5 4c.931 0 4.5-1.732 4.5-3l-1-3c-3.029 0-8-9.71-8-12l-2-3.5c-1.792-3.585 2-8.979 2-12.5-2.805 0-5.604 5.948-9.5 4-1.506-.753-7.18-4-8.5-4l2 3 4 8c.121 0 12 12.329 12 15v1c1.473 0 1 1.952 1 3ZM308 243h1v-1l-1 1Z"/><path fill="#80C0E2" id="AAA" d="M311 262h2c0-1.714 5.594-1 7-1l8-7c0-16.332-8.176-11-19-11l-1 1c0 2.117-4 4.428-4 7l-1 1v1c0 6.882.774 9 8 9Z"/><path fill="#97D6F9" id="STR" d="m309 243-1 1v-1h1Z"/><path fill="#8AD987" id="CTXsp" d="m345 245-1 1 1-1ZM344 246l-1 1v-1h1ZM114 265c0 1.726 4.558 5 6 5 0-2.947-3.986-7.527-2-11.5l5-5.5c-1.147 0-7-1.733-7-3l-3-2 2 2.5c.954 1.908 2.231 14.5-1 14.5ZM342 267l-5 2c0-2.647 3.662-6.175 2-9.5l-6-6.5c1.345 0 7-1.571 7-3l2-1c0 1.968-4.782 16 1 16v1l-1 1Z"/><path fill="#97D6F9" id="STR" d="m304 251-1 1 1-1Z"/><path fill="#84EA80" id="BMAa" d="m132 270-7 2c-1.424 0-5-.362-5-2 0-2.947-3.986-7.527-2-11.5l5-5.5 5 1 8 7 1 3-2 5-3 1Z"/><path fill="#97D6F9" id="STR" d="m153 261 4.5-1c2.042 1.021 6.743 8 7.5 8 0-2.671-11.879-15-12-15v8ZM311 262l-3 1.5-3 3.5c0-7.484-2.617-6-8-6l6-8c0 6.882.774 9 8 9Z"/><path fill="#84EA80" id="BMAa" d="M325 271h5c1.56 0 7 2.664 7-2 0-2.647 3.662-6.175 2-9.5l-6-6.5-5 1-8 7v4l1 3 4 3Z"/><path fill="#E64438" id="HY" d="m293 256-1 1 1-1ZM292 257l-1 1 1-1Z"/><path fill="#80BFE1" id="MEA" d="M160 282c-1.974 0-3.517 2-6 2l-1-7c0-1.406.714-7-1-7l-1-4v-4l1-1h1l4.5-1c2.042 1.021 6.743 8 7.5 8v1c0 7.066-5 12.414-5 13ZM297 283h6v-7l1-6 1-1v-2c0-7.484-2.617-6-8-6l-2 1-1 1-1 2-2 4v2c0 5.984 6 9.305 6 12Z"/><path fill="#97D6F9" id="STR" d="m143 262-6 2-1-3c1.406 0 7-.714 7 1ZM152 261l-1 1 1-1ZM297 261l-2 1 2-1ZM318 263l2 1v-3c-1.406 0-7-.714-7 1h2l1 1h2Z"/><path fill="#94E4C7" id="NLOT3" d="M152 270c-2.231 0-6.728-2.386-9.5-1l-7.5 3v-3l2-5 6-2h2l1 1c2.364 0 3.053 3 5 3l1 4Z"/><path fill="#99D2BD" id="OLF" d="M146 262v1l-1-1h1Z"/><path fill="#97D6F9" id="STR" d="M146 263c2.364 0 3.053 3 5 3v-4h-5v1ZM295 262l-1 1 1-1Z"/><path fill="#94E4C7" id="NLOT3" d="M322 272v2l-1.5-3c-4.465-2.232-10.09-2-15.5-2v-2l3-3.5 3-1.5h4l1 1h2l2 2 1 3 1 4Z"/><path fill="#99D2BD" id="OLF" d="m315 262 1 1-1-1Z"/><path fill="#97D6F9" id="STR" d="m294 263-1 2 1-2Z"/><path fill="#99D2BD" id="OLF" d="M320 264v1l-2-2 2 1ZM115 273c3.015 0 6.004 2 8 2l2-3c-1.424 0-5-.362-5-2-1.442 0-6-3.274-6-5h-1c0 2.709 2 4.646 2 8Z"/><path fill="#FF5545" id="SCH" d="m217 280 8 1 2-2v-2l-2-10-3.5-2-4.5 6c0 1.984-3.278 3.945-2 6.5l2 2.5ZM231 281h6l2-1 2-2.5-1-6.5-4.5-6-4.5 2c0 3.894-2 6.605-2 10l2 4Z"/><path fill="#97D6F9" id="STR" d="M293 265c-2.109 0-2 2.535-2 4l2-4Z"/><path fill="#FE5B50" id="SO" d="M177 273h1c0-2.714 10.239-1 12-1 0-5.371-17-9.706-17-2l1 3h3ZM281 273h2v-2c0-10.43-17-2.439-17 1 1.87 0 12-2.113 12 1h3Z"/><path fill="#99D2BD" id="OLF" d="m343 266-1 1 1-1ZM341 273c-3.015 0-6.004 2-8 2l-3-4c1.56 0 7 2.664 7-2l5-2-1 6ZM325 271l-3 1-1-4 4 3ZM132 270l3 2v-3l-3 1Z"/><path fill="#95E3C8" id="NLOT2" d="M138 282h1c3.459 0 7.627.437 10.5-1l3.5-4c0-1.406.714-7-1-7-2.231 0-6.728-2.386-9.5-1l-7.5 3c0 4.713 3 9.865 3 10Z"/><path fill="#97D6F9" id="STR" d="m160 282 1 1c5.041 0 5-7.738 5-11 0-1.048.473-3-1-3 0 7.066-5 12.414-5 13Z"/><path fill="#E64438" id="HY" d="M247 279h1v-1c-8.746 0 0-3.56 0-5-3.442 0-6.282-4-8-4v2l1 6.5-2 2.5 8-1Z"/><path fill="#94E4C7" id="NLOT3" d="m305 269-1 1 1-1Z"/><path fill="#95E3C8" id="NLOT2" d="M317 282h1l1-1c1.969 0 3-5.584 3-7l-1.5-3c-4.465-2.232-10.09-2-15.5-2l-1 1-1 6 3.5 5c2.873 1.437 7.041 1 10.5 1Z"/><path fill="#60E5B7" id="COAa" d="m133 293-4 1-4-1c0-5.949-2-11.345-2-18l2-3 7-2 3 2c0 4.713 3 9.865 3 10l1 1c0 3.68-2 5.511-2 9l-4 1Z"/><path fill="#E64438" id="HY" d="M210 279c2.409 0 5.181 1 7 1l-2-2.5c-1.278-2.555 2-4.516 2-6.5l-1-1c-2.384 0-4.881 3-8 3 0 .984 9.499 5 1 5v1h1Z"/><path fill="#CAC7CB" id="fiber tracts" d="M178 273c5.74 0 11.217 2 16 2l-4-3c-1.761 0-12-1.714-12 1ZM278 273c-4.869 0-9.649 1-14 1l2-2c1.87 0 12-2.113 12 1Z"/><path fill="#97D6F9" id="STR" d="M295 283h2c0-2.695-6-6.016-6-12l-1 2c0 2.675 1.086 10 5 10Z"/><path fill="#60E5B7" id="COAa" d="m331 293-4 1-3-1c-2.25 0-3.376-2-5-2l-1-6v-3l1-1c1.969 0 3-5.584 3-7v-2l3-1h5l3 4 1 6.5c-1.285 2.569-3 8.723-3 11.5Z"/><path fill="#59D9AA" id="PAA" d="M106 299h4c4.326 0 15-.254 15-6 0-5.949-2-11.345-2-18-1.996 0-4.985-2-8-2 0 6.632-12 23.017-12 24l1 1h1l1 1Z"/><path fill="#CAC7CB" id="fiber tracts" d="m177 273-2 2v-2h2Z"/><path fill="#CACCCB" id="opt" d="M199 278v9c-10.477 0-20.456-10-24-10v-2l2-2h1c5.74 0 11.217 2 16 2h1l4 3Z"/><path fill="#F2483B" id="RCH" d="m202 277 7 1c8.499 0-1-4.016-1-5h-5c-6.504 0-1 1.782-1 4ZM248 278h3l1-1h3c0-3.173 3.962-4-2-4h-5c0 1.44-8.746 5 0 5Z"/><path fill="#CACCCB" id="opt" d="M257 287h7c0-1.638 3.576-2 5-2 0-4.134 9.638-3.775 11-6.5 1.888-3.776-1-3.262-1-5.5h-1c-4.869 0-9.649 1-14 1l-2 1h-1l-1 1h-1l-2 2v9Z"/><path fill="#CAC7CB" id="fiber tracts" d="m281 273 1 4.5c-1.937 3.873-8.706 7.5-13 7.5 0-4.134 9.638-3.775 11-6.5 1.888-3.776-1-3.262-1-5.5h2Z"/><path fill="#59D9AA" id="PAA" d="M352 298c-1.564 0-3.876 1-6 1-4.326 0-15-.254-15-6 0-2.777 1.715-8.931 3-11.5l-1-6.5c1.996 0 4.985-2 8-2 0 6.278 13 23.394 13 24h-1l-1 1Z"/><path fill="#CAC7CB" id="fiber tracts" d="m264 274-2 1 2-1ZM209 278v1l-10-1-4-3 7 2 7 1ZM261 275l-1 1 1-1ZM257 278l-9 1v-1h3l1-1h3l4-1-2 2Z"/><path fill="#95E4C7" id="NLOT1" d="m318 285 1 6c0 10.155-16 .384-16-8v-7l3.5 5c2.873 1.437 7.041 1 10.5 1 0 1.048-.473 3 1 3ZM154 284c-.296 0-4.246 7.873-6.5 9-2.363 1.182-10.5 4.654-10.5-1 0-3.489 2-5.32 2-9v-1c3.459 0 7.627.437 10.5-1l3.5-4 1 7Z"/><path fill="#CAC7CB" id="fiber tracts" d="M227 285h-19.5c-2.614 1.307-5.334 2-8.5 2-10.477 0-20.456-10-24-10 0 5.542 5.054 4.277 8.5 6 9.007 4.503 19.488 9.256 30 4 2.027-1.014 13.5.86 13.5-2Z"/><path fill="#E64438" id="HY" d="M230 281h1l-2-4h-2v2h1c0-1.186 1-1.186 1 0l1 2ZM252 277l-1 1 1-1Z"/><path fill="#CBCACC" id="och" d="M229 285h20.5c2.527 1.263 4.392 2 7.5 2v-9l-9 1h-1c0 1.888-8.072 2-10 2 0 1.587-6 1.587-6 0h-6c0 2.168-15-.118-15-2h-1l-10-1v9c3.166 0 5.886-.693 8.5-2H227l1-1 1 1Z"/><path fill="#CAC7CB" id="fiber tracts" d="m217 280 8 1c0 2.168-15-.118-15-2 2.409 0 5.181 1 7 1Z"/><path fill="#E64438" id="HY" d="M225 281h2v-2l-2 2Z"/><path fill="#CAC7CB" id="fiber tracts" d="M227 281h3l-1-2h-2v2ZM239 280l-2 1c1.928 0 10-.112 10-2l-8 1ZM231 281h6c0 1.587-6 1.587-6 0Z"/><path fill="#99D2BD" id="OLF" d="m319 281-1 1 1-1ZM139 282v1l-1-1h1ZM133 293v3c8.045 0 28-3.624 28-13l-1-1c-1.974 0-3.517 2-6 2-.296 0-4.246 7.873-6.5 9-2.363 1.182-10.5 4.654-10.5-1l-4 1ZM318 282v3c-1.473 0-1-1.952-1-3h1ZM324 293v4c-7.503 0-29-5.492-29-14h8c0 8.384 16 18.155 16 8 1.624 0 2.75 2 5 2Z"/><path fill="#CAC7CB" id="fiber tracts" d="m228 284-1 1 1-1ZM257 287h7c0 2.388-5.661 2-7.5 2-6.744 0-16.293-.147-22-3-1.238-.619-5.5 1.144-5.5-1h20.5c2.527 1.263 4.392 2 7.5 2ZM269 285c-1.424 0-5 .362-5 2 1.424 0 5-.362 5-2Z"/><path fill="#99D2BD" id="OLF" d="M128 297c0 1.861-11.588 3-13.5 3-1.19 0-4.5.614-4.5-1 4.326 0 15-.254 15-6l4 1c0 .264-3.999 3-1 3Z"/><path fill="#CAC8C7" id="lot" d="M128 297h4l1-1v-3l-4 1c0 .264-3.999 3-1 3ZM324 297h5c0-4.888-2 .027-2-3l-3-1v4Z"/><path fill="#99D2BD" id="OLF" d="M329 297c0 2.211 11.013 3 13 3 1.145 0 4 .579 4-1-4.326 0-15-.254-15-6l-4 1c0 3.027 2-1.888 2 3ZM133 296l-1 1 1-1ZM103 297l1 1-1-1ZM353 297l-1 1 1-1ZM105 298l1 1-1-1Z"/></svg>