<svg xmlns="http://www.w3.org/2000/svg" viewBox="0 0 456 320"><path fill="#1E9D5A" id="MOp1" d="M194 33h1v-5l-21.5 1c-3.631 1.815-10.335 3-14.5 3v6c11.785 0 22.699-5 35-5Z"/><path fill="#1E9C59" id="MOs1" d="M222 47h1l4-2c0-2.506-2.72-5.22-4.5-7-8.657-8.657-15.429-10-27.5-10v5c9.662 0 27 2.307 27 14ZM229 44l5 3c0-12.128 19.165-14 28-14v-5c-11.87 0-18.453.953-27 9.5l-6 6.5Z"/><path fill="#1E9D5A" id="MOp1" d="M262 33c12.73 0 23.781 5 36 5 0-1.564-1-3.876-1-6-3.882 0-10.101-1.3-13.5-3L262 28v5Z"/><path fill="#187F60" id="SSp-ll1" d="M158 39c-5.567 0-10.292 4-15 4l-2-6c5.772 0 12.094-5 18-5v6l-1 1ZM313 43h1c0-2.483 2-4.026 2-6-6.259 0-12.494-5-19-5 0 2.124 1 4.436 1 6 1.721 0 15 3.687 15 5Z"/><path fill="#1F9C58" id="MOp2/3" d="M156 55c0 1.622-.828 5 0 5 6.406 0 24.194-15 35-15l1-1h1l1-11c-12.301 0-23.215 5-35 5l-1 1c0 6.288-2 10.996-2 16Z"/><path fill="#1E9D58" id="MOs2/3" d="m222 47-6 3-6.5-6c-5.034-2.517-11.509 0-16.5 0l1-11h1c9.662 0 27 2.307 27 14ZM234 47l6 3 6.5-6c5.243-2.622 12.276 0 17.5 0l-2-11c-8.835 0-28 1.872-28 14Z"/><path fill="#1F9C58" id="MOp2/3" d="m300 55 1 5c-7.205 0-26.707-16-37-16l-2-11c12.73 0 23.781 5 36 5 0 4.722 2 11.724 2 17Z"/><path fill="#197E64" id="SSp-ul1" d="m105 54 2 5c6.911 0 24.905-16 36-16l-2-6c-6.54 0-21.289 8.895-27.5 12l-8.5 5ZM349 59h1l1-6c-3.823 0-28.416-16-35-16 0 1.974-2 3.517-2 6 9.954 0 28.711 16 35 16Z"/><path fill="#187F64" id="SSp-ll2/3" d="m159 38-1 1 1-1ZM300 55c3.447 0 6.245 2 9 2 0-2.881 4-8.92 4-14 0-1.313-13.279-5-15-5 0 4.722 2 11.724 2 17ZM156 55c-3.638 0-5.929 2-9 2l-4-14c4.708 0 9.433-4 15-4 0 6.288-2 10.996-2 16Z"/><path fill="#197F61" id="SSp-ul2/3" d="M112 72h1l7.5-4c6.751-3.376 18.901-11 26.5-11l-4-14c-11.095 0-29.089 16-36 16v1c0 3.67 5 7.972 5 12Z"/><path fill="#1F9D58" id="MOs5" d="M188 61c1.911 0 8.441-2 13-2l3 2 12-10v-1l-6.5-6c-5.034-2.517-11.509 0-16.5 0h-1l-1 1c0 5.95-3 10.518-3 16ZM252 61c2.995 0 8.312-4.094 12.5-2l4.5 2-5-17c-5.224 0-12.257-2.622-17.5 0l-6.5 6v1c4.931 0 8.099 10 12 10Z"/><path fill="#197F61" id="SSp-ul2/3" d="M349 59c0 4.806-5 8.764-5 13-5.142 0-25.315-15-35-15 0-2.881 4-8.92 4-14h1c9.954 0 28.711 16 35 16Z"/><path fill="#1E9C5A" id="MOp5" d="m192 44-1 1 1-1Z"/><path fill="#3EA665" id="ACAd1" d="M223 71h10c0-7.895 1-16.783 1-24l-5-3c0 2.73-.423 1-2 1l-4 2v24Z"/><path fill="#1E9C5A" id="MOp5" d="M301 61c0 5.833 1 11.674 1 16-9.064 0-28.216-16-33-16l-5-17c10.293 0 29.795 16 37 16v1ZM187 62c-7.508 0-22.726 15-32 15 0-5.635 1-12.047 1-16v-1c6.406 0 24.194-15 35-15 0 5.95-3 10.518-3 16l-1 1Z"/><path fill="#40A565" id="ACAd2/3" d="m223 71-5 1-1-16c0-1.234.643-5-1-5v-1l6-3h1v24ZM233 71c2.124 0 4.436 1 6 1 0-6.967 1-14.681 1-21v-1l-6-3c0 7.217-1 16.105-1 24Z"/><path fill="#3EA566" id="ACAd5" d="m218 72-12 6c0-1.944-.861-16-2-16v-1l12-10c1.643 0 1 3.766 1 5l1 16ZM239 73c4.717 0 7.108 5 11 5 0-4.599 2-11.361 2-16v-1c-3.901 0-7.069-10-12-10 0 6.319-1 14.033-1 21v1Z"/><path fill="#1B8062" id="SSp-un1" d="M360 67h1c0-1.238 1.923-5 3-5l-13-9-1 6 10 8ZM95 67h1c0-2.151 8.996-7 11-7v-1l-2-5c-4.372 0-8.042 7-12 7l2 6Z"/><path fill="#1C7F64" id="SSp-ll4" d="M156 61c-3.425 0-4.761 3-8 3l-1-7c3.071 0 5.362-2 9-2 0 1.622-.828 5 0 5v1ZM301 61l7 3 1-7c-2.755 0-5.553-2-9-2l1 5v1Z"/><path fill="#1A7F63" id="SSp-ul4" d="M113 72c0 3.238 3 5.3 3 8 5.732 0 24.113-15 32-15v-1l-1-7c-7.599 0-19.749 7.624-26.5 11l-7.5 4ZM344 72l-3 8c-7.701 0-23.96-15-33-15v-1l1-7c9.685 0 29.858 15 35 15Z"/><path fill="#1D9C5A" id="MOs6a" d="M185 83h1l7-2c0-2.317 9.034-19 11-19v-1l-3-2c-4.559 0-11.089 2-13 2l-1 1c0 7.153-2 13.33-2 21ZM263 81c3.303 0 5.115 2 8 2 0-7.894-2-14.92-2-22l-4.5-2c-4.188-2.094-9.505 2-12.5 2v1c2.879 0 11 15.956 11 19Z"/><path fill="#1C7F63" id="SSp-un2/3" d="M344 72c3.79 0 6.935 6 11 6 0-1.806 5-6.701 5-11l-10-8h-1c0 4.806-5 8.764-5 13ZM112 72c0 1.826-9.165 6-11 6 0-3.764-5-6.8-5-11 0-2.151 8.996-7 11-7 0 3.67 5 7.972 5 12Z"/><path fill="#197E63" id="SSp-n1" d="M50 118c2.666 0 2.482 3 5 3 0-9.088 16.282-32.782 23.5-40L91 69.5l4-2.5-2-6c-4.379 0-8.641 8.07-12.5 10-9.578 4.79-30.5 37.571-30.5 47Z"/><path fill="#197C63" id="SSp-ll5" d="M153 77h2c0-5.635 1-12.047 1-16-3.425 0-4.761 3-8 3v1c3.414 0 1.586 12 5 12Z"/><path fill="#1F9B5A" id="MOp6a" d="m188 61-1 1 1-1ZM301 96h1V83c-1.531 0 0-5.248 0-6-9.064 0-28.216-16-33-16 0 7.08 2 14.106 2 22 6.822 0 15.528 7.014 21.5 10 1.617.809 8.5.405 8.5 3Z"/><path fill="#197C63" id="SSp-ll5" d="m302 77 2 1c0-1.631 3.004-13 4-13v-1l-7-3c0 5.833 1 11.674 1 16Z"/><path fill="#1F9B5A" id="MOp6a" d="M155 95h3c0-2.273 5.226-2 7-2 0-2.218 5.144-4 7-4 0-1.638 3.576-2 5-2 0-1.638 3.576-2 5-2l3-2c0-7.67 2-13.847 2-21-7.508 0-22.726 15-32 15v18Z"/><path fill="#3FA664" id="ACAd6a" d="M193 82c2.226 0 4 1.774 4 4 3.218 0 5.402-7 9-7v-1c0-1.944-.861-16-2-16-1.966 0-11 16.683-11 19v1ZM263 82c-2.54 0-2.543 3-4 3-3.726 0-5.376-6-9-6v-1c0-4.599 2-11.361 2-16 2.879 0 11 15.956 11 19v1Z"/><path fill="#197E63" id="SSp-n1" d="M406 118c-1.947 0-2.636 3-5 3 0-10.922-19.445-39.973-27.5-44-3.992-1.996-7.918-10-12.5-10 0-1.238 1.923-5 3-5 4.899 0 12.024 8.524 15.5 12 9.038 9.038 26.5 31.533 26.5 44Z"/><path fill="#187E62" id="SSp-ul5" d="M120 91h1c3.392 0 24.524-13 32-13v-1c-3.414 0-1.586-12-5-12-7.887 0-26.268 15-32 15 0 4.258 4 6.626 4 11ZM335 91h1l5-10v-1c-7.701 0-23.96-15-33-15-.996 0-4 11.369-4 13 7.576 0 26.875 13 31 13Z"/><path fill="#1B7F64" id="SSp-n2/3" d="M55 122h2c4.27 0 5.73-3 10-3v-1c0-10.593 22.091-39 34-39v-1c0-3.764-5-6.8-5-11h-1l-4 2.5L78.5 81C71.282 88.218 55 111.912 55 121v1ZM399 122h2v-1c0-10.922-19.445-39.973-27.5-44-3.992-1.996-7.918-10-12.5-10h-1c0 4.299-5 9.194-5 11v1c12.858 0 34 27.568 34 40h1c4.444 0 4.615 3 9 3Z"/><path fill="#3FA566" id="ACAv2/3" d="m221 104-3 1V72l5-1c0 10.42-1 21.17-1 31l-1 2Z"/><path fill="#40A664" id="ACAv1" d="M229 97c2.618 0 3.093 4 5 4 0-9.624-1-19.833-1-30h-10c0 10.42-1 21.17-1 31l5-5c0-4.252 2-4.466 2 0Z"/><path fill="#3FA566" id="ACAv2/3" d="m235 103 3 2c0-10.464 1-21.065 1-32v-1c-1.564 0-3.876-1-6-1 0 10.167 1 20.376 1 30l1 2Z"/><path fill="#197E61" id="SSp-un4" d="m116 80-10 5-5-6v-1c1.835 0 11-4.174 11-6h1c0 3.238 3 5.3 3 8Z"/><path fill="#3EA666" id="ACAv5" d="M210 102c0 2.638 5.848 3 8 3V72l-12 6v1c0 7.618 4 16.135 4 23Z"/><path fill="#197E61" id="SSp-un4" d="M341 81c4.046 0 6.085 4 10 4l4-6v-1c-4.065 0-7.21-6-11-6l-3 8v1Z"/><path fill="#3EA666" id="ACAv5" d="M247 102c0 2.54-6.843 3-9 3 0-10.464 1-21.065 1-32 4.717 0 7.108 5 11 5v1c0 7.82-3 14.921-3 22v1Z"/><path fill="#1A7F64" id="SSp-ll6a" d="M153 78c0 1.424.362 5 2 5v-6h-2v1ZM304 78c0 .67-1.328 5-2 5-1.531 0 0-5.248 0-6l2 1Z"/><path fill="#197D61" id="SSp-ul6a" d="M127 107h1c0-2.461 3.378-2 5-2 0-1.638 3.576-2 5-2 0-1.638 3.576-2 5-2 0-1.693 8.239-4 10-4l2-1V83c-1.638 0-2-3.576-2-5-7.476 0-28.608 13-32 13 0 5.392 6 10.165 6 16ZM302 96c8.11 0 18.342 10 27 10 0-4.952 6-9.535 6-15-4.125 0-23.424-13-31-13 0 .67-1.328 5-2 5v13Z"/><path fill="#1A8062" id="SSp-n4" d="M77 114h1l1-1c0-5.625 21.293-27 27-27v-1l-5-6c-11.909 0-34 28.407-34 39 3.85 0 7.014-4 10-4Z"/><path fill="#40A564" id="ACAv6a" d="M209 102h1c0-6.865-4-15.382-4-23-3.598 0-5.782 7-9 7v1l10 12c0 2.215 2 1.519 2 3ZM249 100l-2 1c0-7.079 3-14.18 3-22 3.624 0 5.274 6 9 6v2l-3 5.5c-1.64 3.28-7 3.933-7 7.5Z"/><path fill="#1A8062" id="SSp-n4" d="m379 114 10 5c0-12.432-21.142-40-34-40l-4 6v1c4.923 0 27 22.975 27 27l1 1Z"/><path fill="#197D62" id="SSp-un5" d="M110 97h1l1-1 2-1 6-4c0-4.374-4-6.742-4-11l-10 5v1l4 11Z"/><path fill="#1E9C58" id="MOs6b" d="m193 83-7 1v-1l7-2v2ZM271 83v1l-7-1-1-1v-1c3.303 0 5.115 2 8 2Z"/><path fill="#197D62" id="SSp-un5" d="M345 97h1c0-3.4 5-7.793 5-11v-1c-3.915 0-5.954-4-10-4l-5 10 7 4 1 1 1 1Z"/><path fill="#3FA466" id="ACAd6b" d="M197 86v1c-2.007 0-1.121-4-4-4v-1c2.226 0 4 1.774 4 4ZM259 86h1c1.457 0 1.46-3 4-3l-1-1c-2.54 0-2.543 3-4 3v1Z"/><path fill="#1D9D5A" id="MOp6b" d="M186 84c0 1.58-2.855 1-4 1l3-2h1v1Z"/><path fill="#CACCC7" id="cing" d="M207 99c0 2.215 2 1.519 2 3-8.715 0-14.715-10.607-21.5-14-4.13-2.065-12.292 5-16.5 5l-1 1h-5v-1c1.572 0 7-2.052 7-4 1.622 0 5 .46 5-2 1.622 0 5 .46 5-2 1.145 0 4 .58 4-1l7-1c2.879 0 1.993 4 4 4 0 3.572 5.845 12 10 12ZM247 101v1c9.867 0 13.661-10.08 21.5-14 4.362-2.181 12.267 5 16.5 5l1 1h5c0-2.508-20-9.314-20-10l-7-1c-2.54 0-2.543 3-4 3l-1 1c0 3.936-5.296 13-10 13l-2 1Z"/><path fill="#1D9D5A" id="MOp6b" d="M301 96v1c-3.028 0-6.394-3-10-3 0-2.508-20-9.314-20-10v-1c6.822 0 15.528 7.014 21.5 10 1.617.809 8.5.405 8.5 3ZM182 85c-1.424 0-5 .362-5 2 1.622 0 5 .46 5-2Z"/><path fill="#197E62" id="SSp-n5" d="M92 109c-5.415 0-9.887 4-13 4 0-5.625 21.293-27 27-27l4 11c-1.556 0-13 7.294-13 9l-1 1h-1l-2 1-1 1Z"/><path fill="#40A465" id="ACAv6b" d="m260 86-1 1v-1h1Z"/><path fill="#197E62" id="SSp-n5" d="M363 108c0-1.249 12.866 5 15 5 0-4.025-22.077-27-27-27 0 3.207-5 7.6-5 11 1.516 0 16 9.786 16 11h1Z"/><path fill="#1D9D5A" id="MOp6b" d="M177 87c-1.424 0-5 .362-5 2 1.622 0 5 .46 5-2Z"/><path fill="#40A465" id="ACAv6b" d="m197 87 10 12c-4.155 0-10-8.428-10-12ZM259 87l-3 5.5c-1.64 3.28-7 3.933-7 7.5 4.704 0 10-9.064 10-13Z"/><path fill="#C9C7C9" id="ccb" d="m366 159 1 5c-2.155 0-3.233-6.965-4-8.5-4.898-9.795-13.05-18.101-18-28l-7.5-6.5c-4.292-2.146-8.998-7.499-14-10l-23-7c-4.052-2.026-11.799 1-15.5 1 0-9.18-22-6.749-22-2-1.856 0-7 1.782-7 4l-2 1-1 1h-1c-6.431 0-12.174 5-18 5l-2 1h-3c0-1.93-1.161 0-2 0h-2c0-1.473-1.952-1-3-1-5.096 0-11.61-5-18-5h-1c0-5.614-32-17.667-32-4-25.509 0-24.55 1.025-46.5 12-3.637 1.819-9.954 5.407-11.5 8.5-4.909 9.818-12.982 16.964-18 27-.826 1.652-2.955 10.5-5 10.5l1-6 1-1v-1l1-2c1.473 0 1-1.952 1-3l1-1v-1l1-2 1-2 1-2 1-2c1.577 0 2-1.762 2-3 1.36 0 10-12.223 10-14 1.797 0 4-2.203 4-4 1.747 0 2-.253 2-2 3.559 0 8.335-5.417 11.5-7 9.267-4.634 19.762-6.381 29-11 1.72-.86 11.5-3.175 11.5-5h1l1-1c4.208 0 12.37-7.065 16.5-5 6.785 3.393 12.785 14 21.5 14h1c0 2.638 5.848 3 8 3l3-1c1.423 0 3.544 1.978 5.5 1l2-2 1 2c1.517.759 5.5-.037 5.5-2l3 2c2.157 0 9-.46 9-3 9.867 0 13.661-10.08 21.5-14 4.362-2.181 12.267 5 16.5 5l1 1h2c0 2.029 6.967 3.233 8.5 4 9.522 4.761 20.518 6.259 30 11 9.713 4.856 15.441 12.441 23.5 20.5 1.672 1.672 4.502 9.5 7 9.5v1l4 7v1l2 3v1c0 1.424.362 5 2 5v1l1 1Z"/><path fill="#1D9D5A" id="MOp6b" d="M172 89c-1.856 0-7 1.782-7 4 1.572 0 7-2.052 7-4Z"/><path fill="#1A7F61" id="SSp-un6a" d="M126 107h1c0-5.835-6-10.608-6-16h-1l-6 4c0 2.466 2.005 0 2.5 0 .82 0 9.5 9.844 9.5 12ZM329 107h1c0-2.499 6.628-11 9.5-11 3.249 0-1.035.017 1-1 1.091-.546 2.5 2.151 2.5 0l-7-4h-1c0 5.465-6 10.048-6 15v1Z"/><path fill="#1D9D5A" id="MOp6b" d="m165 94-7 1c0-2.273 5.226-2 7-2v1Z"/><path fill="#C9C9CA" id="scwm" d="m171 93-1 1 1-1ZM285 93l1 1-1-1ZM117 115v2c3.559 0 8.335-5.417 11.5-7 9.267-4.634 19.762-6.381 29-11 1.72-.86 11.5-3.175 11.5-5h-4l-7 1c0 1.577-1.762 2-3 2h-2c0 2.271-7.839 4-10 4 0 2.461-3.378 2-5 2 0 2.461-3.378 2-5 2l-5 3h-1c0 2.314-4.262 3-6 3l-4 4ZM329 108c0 1.272 7.481 4.981 9 6.5 5.021 5.021 19 17.504 19 24.5-2.498 0-5.328-7.828-7-9.5-8.059-8.059-13.787-15.644-23.5-20.5-9.482-4.741-20.478-6.239-30-11-1.533-.767-8.5-1.971-8.5-4h3c3.606 0 6.972 3 10 3l28 11Z"/><path fill="#187D61" id="SSp-m6a" d="M93 147h1c0-3.298 14.01-27 17-27l1-1c0-1.577 1.762-2 3-2 0-1.747.253-2 2-2 0-2.226 1.774-4 4-4l5-4c0-2.156-8.68-12-9.5-12-.495 0-2.5 2.466-2.5 0l-2 1-1 1c0 6.214-7.58 9-14 9l-1 1c0 1.186-1 1.186-1 0l-2 1-1 1c0 4.761-13 20.713-13 28v1c0 3.476 14 4.41 14 9Z"/><path fill="#1D9D5A" id="MOp6b" d="M155 96v1c1.238 0 3-.423 3-2h-3v1Z"/><path fill="#187D61" id="SSp-m6a" d="m378 138-15 8-6-11.5c-2.552-5.105-20.854-27.5-27-27.5 0-2.499 6.628-11 9.5-11 3.249 0-1.035.017 1-1 1.091-.546 2.5 2.151 2.5 0l1 1 1 1c0 4.934 12.63 11 17 11h1l4 4.5c2.118 4.236 3.865 8.731 6 13 .805 1.611 3.557 11.5 5 11.5v1Z"/><path fill="#1A7F61" id="SSp-un6a" d="m112 96-1 1 1-1Z"/><path fill="#1C8064" id="SSp-ul6b" d="M153 97h2v-1l-2 1ZM329 107v1l-28-11v-1h1c8.11 0 18.342 10 27 10v1Z"/><path fill="#1A7F61" id="SSp-un6a" d="m344 96 1 1-1-1Z"/><path fill="#187D62" id="SSp-n6a" d="M111 97c0 6.214-7.58 9-14 9 0-1.706 11.444-9 13-9h1Z"/><path fill="#1C8064" id="SSp-ul6b" d="M153 97c-1.761 0-10 2.307-10 4 2.161 0 10-1.729 10-4Z"/><path fill="#7ED04B" id="IG" d="M235 103c0 1.963-3.983 2.759-5.5 2l-1-2-2 2c-1.956.978-4.077-1-5.5-1l1-2 5-5c.839 0 2 1.93 2 0 2.618 0 3.093 4 5 4l1 2Z"/><path fill="#187D62" id="SSp-n6a" d="M346 97c1.516 0 16 9.786 16 11-4.37 0-17-6.066-17-11h1Z"/><path fill="#AAA8A9" id="SEZ" d="M175 106c0-14.648 26.127 3 28 3 0-5.614-32-17.667-32-4l4 1ZM285 105l-4 1c0-9.814-12.969-3-18-3 0-4.749 22-7.18 22 2Z"/><path fill="#1C8064" id="SSp-ul6b" d="M143 101c-1.424 0-5 .362-5 2 1.622 0 5 .461 5-2Z"/><path fill="#A8AAAA" id="VL" d="M191 177h2v-4c-.777 0-2-8.94-2-10v-22c0-13.42 13-25.822 13-32h-1c-1.873 0-28-17.648-28-3l10 19.5c3.168 6.336 2 15.915 2 23.5 0 9.195 3 17.715 3 26l1 2ZM264 176l1 1c2.109 0 2-2.535 2-4 0-3.166.693-5.886 2-8.5V147c0-6.595-.763-15.974 2-21.5 2.173-4.346 10-15.091 10-19.5 0-9.814-12.969-3-18-3 0 2.218-5.144 4-7 4l-2 1-1 1h-1c0 5.016 13 17.56 13 31 1.473 0 1 1.952 1 3l-1 22c0 1.49.735 8-1 8v3Z"/><path fill="#1C8064" id="SSp-ul6b" d="M138 103c-1.424 0-5 .362-5 2 1.622 0 5 .461 5-2Z"/><path fill="#AAA8A9" id="SEZ" d="M263 103c-1.856 0-7 1.782-7 4 1.856 0 7-1.782 7-4Z"/><path fill="#98D5F9" id="CP" d="m140 229-12.5 6H115c-3.963 0-11.181-9-14-9v-1l-1-1-2-4-1-1-2-7-1-1v-1l-1-1v-1c0-1.424-.362-5-2-5v-2c0-4.357-2.109-10.718-4-14.5V171l1-1v-2l1-1v-2l1-2c2.045 0 4.174-8.848 5-10.5 5.018-10.036 13.091-17.182 18-27 1.546-3.093 7.863-6.681 11.5-8.5 21.95-10.975 20.991-12 46.5-12l4 1 10 19.5c3.168 6.336 2 15.915 2 23.5l-4.5 8c-15.757 7.879-7.5 15.553-7.5 29l-2 24-4 3h-4l-1 1-1 1h-1l-1 1-2 1c-2.287 0-8 3.22-8 6-1.238 0-3 .423-3 2l-4 2-4 2ZM347 233c-1.424 0-5 .362-5 2-15.263 0-22.119-4.809-34.5-11-4.036-2.018-7.811-9-12.5-9h-1l-1-1c-1.564 0-3.876-1-6-1 0-.276-3.429-4.357-4-5.5-2.075-4.15 1.131-10.737-1-15-6.376-12.751 13.102-24.699-8.5-35.5l-4.5-10c0-6.595-.763-15.974 2-21.5 2.173-4.346 10-15.091 10-19.5l4-1c3.701 0 11.448-3.026 15.5-1l23 7c5.002 2.501 9.708 7.854 14 10l7.5 6.5c4.95 9.899 13.102 18.205 18 28 .767 1.535 1.845 8.5 4 8.5v1l1 2v1l1 1v4c0 1.048-.473 3 1 3v3l-3 17v1c-1.995 0-2 4.377-2 6v1c-1.638 0-2 3.576-2 5v1l-1 1v1l-1 1v2l-1 2-1 2c0 2.83-4 4.54-4 7l-4 4c-1.429 0-4 1.288-4 3Z"/><path fill="#1C8064" id="SSp-ul6b" d="M128 107v1l5-3c-1.622 0-5-.461-5 2Z"/><path fill="#187D62" id="SSp-n6a" d="M95 107h1c0 1.186-1 1.186-1 0Z"/><path fill="#188064" id="SSp-m6b" d="M127 108c0 2.314-4.262 3-6 3l5-4h1v1Z"/><path fill="#1A7D63" id="SSp-un6b" d="M127 108h1v-1h-1v1Z"/><path fill="#AAA8A9" id="SEZ" d="m256 107-2 1 2-1Z"/><path fill="#1A7D63" id="SSp-un6b" d="m330 107-1 1v-1h1Z"/><path fill="#188064" id="SSp-m6b" d="M361 147h2v-1l-6-11.5c-2.552-5.105-20.854-27.5-27-27.5l-1 1c0 1.272 7.481 4.981 9 6.5 5.021 5.021 19 17.504 19 24.5v1c1.948 0 4 5.428 4 7Z"/><path fill="#1B7E63" id="SSp-m5" d="M387 132c-3.39 0-5.621 5-9 5-1.443 0-4.195-9.889-5-11.5-2.135-4.269-3.882-8.764-6-13l-4-4.5c0-1.249 12.866 5 15 5l1 1 8 17v1ZM93 108l-1 1 1-1Z"/><path fill="#AAA8A9" id="SEZ" d="m254 108-1 1 1-1Z"/><path fill="#1B7E63" id="SSp-m5" d="m69 132 10 5c0-7.287 13-23.239 13-28-5.415 0-9.887 4-13 4l-1 1h-1c0 6.135-8 11.013-8 17v1Z"/><path fill="#90CBEC" id="LSc" d="m223 115-6.5 8c-3.206 3.206-22.07 18-25.5 18 0-13.42 13-25.822 13-32 6.39 0 12.904 5 18 5l1 1ZM265 140v1c-3.817 0-5.333-4.417-8.5-6-5.73-2.865-22.5-14.992-22.5-20v-1c5.826 0 11.569-5 18-5 0 5.016 13 17.56 13 31Z"/><path fill="#188064" id="SSp-m6b" d="M121 111c-2.226 0-4 1.774-4 4l4-4Z"/><path fill="#197E62" id="SSp-n5" d="m79 113-1 1 1-1Z"/><path fill="#1B7F62" id="SSp-m4" d="m63 128 6 3c0-5.987 8-10.865 8-17-2.986 0-6.15 4-10 4v1l-4 8v1Z"/><path fill="#97D6F9" id="STR" d="M223 115h2c0-1.473-1.952-1-3-1l1 1ZM227 115c.839 0 2-1.93 2 0 0 2.488-2 1.919-2 0ZM232 115h2v-1l-2 1Z"/><path fill="#1B7F62" id="SSp-m4" d="m393 128-6 3-8-17 10 5h1c0 1.654 1.198 8 3 8v1Z"/><path fill="#188064" id="SSp-m6b" d="M115 117h2v-2c-1.747 0-2 .253-2 2Z"/><path fill="#90CAED" id="LSr" d="M194 169h1l4-4.5c1.399-2.798 5.702-18.5 10-18.5v-1l1-1 1-1 1-1 1-1 8-8.5 6-9 .5-2.5c.939-.469 5.851 8.203 6.5 9.5 2.094 4.187 9 6.546 9 10.5l3 3c5.876 0 9.994 21.247 13.5 23 4.419 2.21 2.148-2 5.5-2l1-22-1-2c-3.817 0-5.333-4.417-8.5-6-5.73-2.865-22.5-14.992-22.5-20h-5c0 2.488-2 1.919-2 0h-4l-6.5 8c-3.206 3.206-22.07 18-25.5 18v22l3 6Z"/><path fill="#188064" id="SSp-m6b" d="M112 119h3v-2c-1.238 0-3 .423-3 2Z"/><path fill="#C9C9CA" id="scwm" d="M117 117c0 1.747-.253 2-2 2v-2h2Z"/><path fill="#1A7E62" id="SSs1" d="M40 177h4c0-8.948-.406-28.688 3-35.5 1.52-3.042 8-16.893 8-19.5v-1c-2.518 0-2.334-3-5-3l-6 14.5c-3.68 7.362-5 20.941-5 29.5 0 2.075-.797 15 1 15ZM412 177h5c0-16.237.727-33.045-6-46.5-.888-1.775-3.093-12.5-5-12.5-1.947 0-2.636 3-5 3v1c2.031 0 4.117 9.733 5 11.5 6.439 12.879 6 29.185 6 43.5Z"/><path fill="#1A7E64" id="SSp-m2/3" d="m57 122 6 5 4-8c-4.27 0-5.73 3-10 3Z"/><path fill="#188064" id="SSp-m6b" d="m112 119-1 1 1-1Z"/><path fill="#C9C9CA" id="scwm" d="M111 120v3c1.797 0 4-2.203 4-4h-3l-1 1Z"/><path fill="#1A7E64" id="SSp-m2/3" d="m399 122-6 5c-1.802 0-3-6.346-3-8 4.444 0 4.615 3 9 3Z"/><path fill="#188064" id="SSp-m6b" d="M94 147h1l1-1 1-2 1-2 1-2c0-1.238.423-3 2-3 0-2.85 6.414-14 10-14v-3c-2.99 0-17 23.702-17 27Z"/><path fill="#8FCBEC" id="SF" d="M243 174c0 1.72.659 11 2 11 0-6.467 19-23.074 19-12 1.735 0 1-6.51 1-8-3.352 0-1.081 4.21-5.5 2-3.506-1.753-7.624-23-13.5-23 0 1.423 1.978 3.544 1 5.5-3.76 7.519-14.303-9.5-5.5-9.5l1.5 1c0-3.954-6.906-6.313-9-10.5-.649-1.297-5.561-9.969-6.5-9.5l-.5 2.5-6 9-8 8.5c14.063 0-4 18.738-4 5-4.298 0-8.601 15.702-10 18.5l-4 4.5c5.495 0 10.611 7.111 14.5 11l2.5 5c0-3.531 1-7.893 1-12-3.307 0-5.311-6.878-4-9.5 2.213-4.426 15.281-17.61 21.5-14.5 6.768 3.384 13.254 8.007 16.5 14.5 1.521 3.041-.947 10.5-4 10.5Z"/><path fill="#1B8063" id="SSs2/3" d="M53 176c-3.222 0-6.277 1-9 1 0-8.948-.406-28.688 3-35.5 1.52-3.042 8-16.893 8-19.5h2l6 5v1l-6 16.5c-4.24 8.48-4 21.346-4 31.5ZM403 176c3.013 0 6.611 1 9 1 0-14.315.439-30.621-6-43.5-.883-1.767-2.969-11.5-5-11.5h-2l-6 5v1l6 14.5c3.601 7.201 4 24.205 4 33.5Z"/><path fill="#C9C9CA" id="scwm" d="M111 123c-3.586 0-10 11.15-10 14 1.36 0 10-12.223 10-14Z"/><path fill="#187C63" id="SSs4" d="M58 175h1c0-9.378.092-20.684 4-28.5l6-14.5v-1l-6-3-6 16.5c-4.24 8.48-4 21.346-4 31.5l5-1ZM398 175l5 1c0-9.295-.399-26.299-4-33.5l-6-14.5-6 3v1c2.076 0 3.216 7.932 4 9.5 4.713 9.427 7 22.283 7 33.5Z"/><path fill="#1C8063" id="SSs5" d="M59 175h12c0-10.206.752-21.005 5-29.5.636-1.272 1.45-7.5 3-7.5v-1l-10-5-6 14.5c-3.908 7.816-4 19.122-4 28.5ZM385 175h13c0-11.217-2.287-24.073-7-33.5-.784-1.568-1.924-9.5-4-9.5-3.39 0-5.621 5-9 5v1c0 3.935 3.287 9.075 5 12.5 2.119 4.238 2 18.725 2 24.5Z"/><path fill="#C9C9CA" id="scwm" d="M101 137c-1.577 0-2 1.762-2 3 1.577 0 2-1.762 2-3Z"/><path fill="#197D63" id="SSs6a" d="M71 175h14c0-9.819 8-18.722 8-28 0-4.59-14-5.524-14-9-1.55 0-2.364 6.228-3 7.5-4.248 8.495-5 19.294-5 29.5ZM372 175h13c0-5.775.119-20.262-2-24.5-1.713-3.425-5-8.565-5-12.5l-15 8v1c0 5.993 8 19.068 8 28h1Z"/><path fill="#C9C9CA" id="scwm" d="m99 140-1 2 1-2Z"/><path fill="#CBC8CB" id="fi" d="M209 145v1c0 13.738 18.063-5 4-5l-1 1-1 1-1 1-1 1ZM243 141l3 3c0 1.423 1.978 3.544 1 5.5-3.76 7.519-14.303-9.5-5.5-9.5l1.5 1Z"/><path fill="#97D6F9" id="STR" d="m265 141 1 2c0-1.048.473-3-1-3v1Z"/><path fill="#C9C9CA" id="scwm" d="M357 140c1.948 0 4 5.428 4 7l-4-7Z"/><path fill="#8FCBEC" id="SF" d="m213 141-1 1 1-1Z"/><path fill="#C9C9CA" id="scwm" d="m98 142-1 2 1-2Z"/><path fill="#8FCBEC" id="SF" d="m212 142-1 1 1-1ZM211 143l-1 1 1-1Z"/><path fill="#C9C9CA" id="scwm" d="m97 144-1 2 1-2Z"/><path fill="#8FCBEC" id="SF" d="m210 144-1 1 1-1Z"/><path fill="#C9C9CA" id="scwm" d="M95 147v1l1-2-1 1Z"/><path fill="#1A8061" id="SSs6b" d="M85 175h1l1-1v-4l1-1v-1l1-1v-2l1-2 1-6 1-1v-1l1-2c0-1.048-.473-3 1-3l1-1v-2h-2c0 9.278-8 18.181-8 28Z"/><path fill="#97D6F9" id="STR" d="M285 213h2c0-.276-3.429-4.357-4-5.5-2.075-4.15 1.131-10.737-1-15-6.376-12.751 13.102-24.699-8.5-35.5l-4.5-10v17.5c-1.307 2.614-2 5.334-2 8.5h7l1 1v1h2c0-.677 2.296-4.907 3-3.5.335.671 1 27.348 1 31.5 2.064 0 .426 3.353 1 4.5l3 5.5Z"/><path fill="#1A8061" id="SSs6b" d="M370 175h1c0-8.932-8-22.007-8-28h-2v1c1.577 0 2 1.762 2 3v1c1.014 0 2 3.959 2 5v1l1 1 1 5v1l1 2v1l1 1v4l1 2Z"/><path fill="#C9C9CA" id="scwm" d="M361 148c1.577 0 2 1.762 2 3l-2-3ZM95 149l-1 1 1-1Z"/><path fill="#97D6F9" id="STR" d="M176 200c-2.036 0-.536 10-3 10l2-24c0-13.447-8.257-21.121 7.5-29l4.5-8c0 9.195 3 17.715 3 26l-2.5-3c-1.43-.715-5.5.722-5.5 2l-3 2c0-.989.189-4-1.5-4l-.5 7.5c0 6.95-1 13.427-1 20.5Z"/><path fill="#96A7D2" id="TRS" d="m229 175 2 2c3.08 0 12-12.989 12-3 3.053 0 5.521-7.459 4-10.5-3.246-6.493-9.732-11.116-16.5-14.5-6.219-3.11-19.287 10.074-21.5 14.5-1.311 2.622.693 9.5 4 9.5 0-8.168 10.596 4 12 4l2-2c0-1.919 2-2.488 2 0Z"/><path fill="#C9C9CA" id="scwm" d="M94 150c-1.473 0-1 1.952-1 3 1.473 0 1-1.952 1-3ZM363 152c1.014 0 2 3.959 2 5-1.638 0-2-3.576-2-5ZM93 153l-1 2 1-2ZM92 156l-1 1 1-1ZM365 158l1 1-1-1Z"/><path fill="#C9C7C9" id="ccb" d="m90 163-1 2 1-2Z"/><path fill="#8FCBEC" id="SF" d="m194 169-1 4c-.777 0-2-8.94-2-10l3 6Z"/><path fill="#C9C7C9" id="ccb" d="m367 165 1 2-1-2ZM89 167l-1 1 1-1ZM368 168l1 1-1-1ZM87 170h1v-1l-1 1Z"/><path fill="#8FCBED" id="LSv" d="m212 187-1 2c-2.259 0-5.151 3.675-8.5 2l-4.5-5-1-2c0-2.46-4-4.17-4-7v-4l1-4h1c5.495 0 10.611 7.111 14.5 11l2.5 5v2ZM245 189c2.259 0 5.151 3.675 8.5 2l2.5-2 1-1 1-1v-1l1-1 2-3 1-1c0-1.041.986-5 2-5v-3c0-11.074-19 5.533-19 12v4Z"/><path fill="#C8CBCC" id="ec" d="m88 170-1 1v-1h1Z"/><path fill="#C7C8CA" id="fx" d="m223 194-4.5 4-5.5-1c0-2.885-2-4.697-2-8l1-2v-2c0-3.531 1-7.893 1-12 0-8.168 10.596 4 12 4v10c-1.579 0-1 2.855-1 4-1.473 0-1 1.952-1 3ZM245 189c0 3.354-2 5.291-2 8l-4.5 1c-6.732-3.366-7.5-13.992-7.5-21 3.08 0 12-12.989 12-3 0 1.72.659 11 2 11v4Z"/><path fill="#CCC" d="M277 193c2.319 0 .982 10 4 10 0-4.152-.665-30.829-1-31.5-.704-1.407-3 2.823-3 3.5v18ZM180 187c-.313 0-4 21.492-4 13 0-7.073 1-13.55 1-20.5l.5-7.5c1.689 0 1.5 3.011 1.5 4l1 9v2Z"/><path fill="#B3C0DE" id="BST" d="m178 218-1 5.5c4.164 8.327 13.332 9.5 22 9.5 0-1.22 8.626-4.751 10-7.5 1.807-3.613 0-5.805 0-9.5-2.007 0-12.971-.442-14-2.5-1.649-3.298 8.224-10.5 11-10.5l-1-4c0-4.982-7-8.476-7-13l-1-2c-2.024 0-6-5.829-6-7l-1-2-2.5-3c-1.43-.715-5.5.722-5.5 2 0 1.116-1.234 11-2 11v2c0 10.699-2 19.939-2 31ZM247 216c0 10.069.729 12.114 10.5 17 7.937 3.969 21.5-5.214 21.5-13 0-9.792-2-17.7-2-27v-4c-1.835 0-2-11.76-2-14v-1l-1-1h-7c0 1.465.109 4-2 4 0 1.429-1.288 4-3 4l-1 1-2 3-1 1v1l-1 1-1 1c0 3.294-4 5.341-4 9l-1 1v4c3.168 0 12.128 7.245 10 11.5-.357.714-13.001 1.5-14 1.5Z"/><path fill="#FF5445" id="MEPO" d="M224 191c0 1.048.473 3-1 3 0 3.156 8.62 5.26 10 2.5.961-1.921-4-18.104-4-21.5 0-2.488-2-1.919-2 0 0 1.495-.84 10-2 10v2c0 1.145.579 4-1 4Z"/><path fill="#8599CC" id="PAL" d="m274 173 1 1-1-1Z"/><path fill="#C8CBCC" id="ec" d="M370 175v1c-1.473 0-1-1.952-1-3l1 2ZM90 201h1c0-4.357-2.109-10.718-4-14.5V174l-1 1v2c0 4.725 1 9.879 1 14l3 10Z"/><path fill="#8599CC" id="PAL" d="m179 176 1 9c.766 0 2-9.884 2-11l-3 2Z"/><path fill="#11AC82" id="VISC4" d="m58 183-4 2-1-9 5-1v8Z"/><path fill="#12AD82" id="VISC5" d="M58 183h1c3.956 0 7.497-2 12-2v-6H58v8Z"/><path fill="#11AC83" id="VISC6a" d="M85 178c-5.28 0-8.97 2-14 2v-5h14v3Z"/><path fill="#11AD82" id="VISC6b" d="M85 177h1v-2h-1v2Z"/><path fill="#CAC7CB" id="fiber tracts" d="M225 177v8c1.16 0 2-8.505 2-10l-2 2Z"/><path fill="#CAC7CB" id="fiber tracts" d="m206 203 7.5-3c1.797-.898 22.837-2.081 25-1l12.5 4v-4c-1.551 0-8 2.386-8-2l-4.5 1c-6.732-3.366-7.5-13.992-7.5-21l-2-2c0 3.396 4.961 19.579 4 21.5-1.38 2.76-10 .656-10-2.5l-4.5 4-5.5-1c0 4.386-6.449 2-8 2l1 4Z"/><path fill="#8599CC" id="PAL" d="M277 175v14c-1.835 0-2-11.76-2-14h2Z"/><path fill="#11AD82" id="VISC6b" d="m370 177 2 1v-3h-2v2Z"/><path fill="#11AC83" id="VISC6a" d="M372 178c5.334 0 8.902 2 13 2v-5h-13v3Z"/><path fill="#12AD82" id="VISC5" d="m385 180 13 3v-8h-13v5Z"/><path fill="#11AC82" id="VISC4" d="m398 184 4 1c0-2.389 1-5.987 1-9l-5-1v9Z"/><path fill="#12AC83" id="VISC2/3" d="M46 188h1c0-.286 6.302-3 7-3l-1-9c-3.222 0-6.277 1-9 1l2 11Z"/><path fill="#97D6F9" id="STR" d="M265 177c0 1.429-1.288 4-3 4 0-1.041.986-5 2-5l1 1Z"/><path fill="#12AC83" id="VISC2/3" d="m402 185 8 3c0-3.378 2-6.922 2-11-2.389 0-5.987-1-9-1 0 3.013-1 6.611-1 9Z"/><path fill="#12AD83" id="VISC1" d="m46 188-3 2c-2.315 0-3-10.657-3-13h4l2 11Z"/><path fill="#019C74" id="GU6b" d="M86 191h1c0-4.121-1-9.275-1-14h-1v1c0 4.284 1 9.371 1 13Z"/><path fill="#97D6F9" id="STR" d="M193 177c0 2.83 4 4.54 4 7-2.024 0-6-5.829-6-7h2Z"/><path fill="#019C74" id="GU6b" d="M369 191h2l1-13-2-1v2c2.407 0-1 10.494-1 12Z"/><path fill="#12AD83" id="VISC1" d="m410 188 4 1c1.485 0 3-10.13 3-12h-5c0 4.078-2 7.622-2 11Z"/><path fill="#009B74" id="GU6a" d="M74 195h1c0-.853 6.031-2 7-2 1.24 0 1.576-2 4-2 0-3.629-1-8.716-1-13-5.28 0-8.97 2-14 2v1l3 14ZM374 193l8 2c0-4.805 3-9.457 3-15-4.098 0-7.666-2-13-2l-1 13c1.238 0 3 .423 3 2Z"/><path fill="#C8CBCC" id="ec" d="M369 191c0 1.424-.362 5-2 5l3-17c2.407 0-1 10.494-1 12Z"/><path fill="#019C75" id="GU5" d="m382 195 13 1c0-3.408 3-7.988 3-12v-1l-13-3c0 5.543-3 10.195-3 15ZM74 195l-13 1c0-3.864-2-8.209-2-13 3.956 0 7.497-2 12-2l3 14Z"/><path fill="#97D6F9" id="STR" d="m262 181-1 1 1-1Z"/><path fill="#009C74" id="GU4" d="m61 196-2 1c0-3.354-5-7.855-5-12l4-2h1c0 4.791 2 9.136 2 13ZM395 196l3 1c0-3.896 4-7.44 4-12l-4-1c0 4.012-3 8.592-3 12Z"/><path fill="#009B75" id="GU2/3" d="m59 197-8 2c0-3.895-4-6.401-4-11 0-.286 6.302-3 7-3 0 4.145 5 8.646 5 12Z"/><path fill="#97D6F9" id="STR" d="m259 185-1 1 1-1Z"/><path fill="#009B75" id="GU2/3" d="M405 199h1l4-11-8-3c0 4.56-4 8.104-4 12l7 2Z"/><path fill="#97D6F9" id="STR" d="M213 197c0 4.386-6.449 2-8 2 0-4.982-7-8.476-7-13l4.5 5c3.349 1.675 6.241-2 8.5-2 0 3.303 2 5.115 2 8Z"/><path fill="#8599CC" id="PAL" d="m169 222 4 1c3.448 0 2.91-5 5-5 0-11.061 2-20.301 2-31-.313 0-4 21.492-4 13-2.036 0-.536 10-3 10l-1 3c0 1.284 3.47 2.561 2 5.5l-5 3.5Z"/><path fill="#97D6F9" id="STR" d="m212 187-1 2 1-2Z"/><path fill="#CAC7CB" id="fiber tracts" d="M225 187c-1.579 0-1 2.855-1 4 1.579 0 1-2.855 1-4Z"/><path fill="#97D6F9" id="STR" d="m258 187-1 1 1-1Z"/><path fill="#009C75" id="GU1" d="m51 200-4 1c0-3.614-4-6.899-4-11l3-2h1c0 4.599 4 7.105 4 11v1Z"/><path fill="#97D6F9" id="STR" d="m257 188-1 1 1-1Z"/><path fill="#009C75" id="GU1" d="m406 199 3 2c1.977 0 5-9.992 5-12l-4-1-4 11Z"/><path fill="#97D6F9" id="STR" d="m252 198-1 1c-1.551 0-8 2.386-8-2 0-2.709 2-4.646 2-8 2.259 0 5.151 3.675 8.5 2l2.5-2c0 3.294-4 5.341-4 9Z"/><path fill="#8ADA86" id="CLA" d="m91 207-3 1c-7.604 0-6-10.514-6-15 1.24 0 1.576-2 4-2h1l3 10 1 1v5Z"/><path fill="#CAC7CB" id="fiber tracts" d="M224 191c-1.473 0-1 1.952-1 3 1.473 0 1-1.952 1-3Z"/><path fill="#8ADA86" id="CLA" d="m365 207 4 1c7.288 0 5-10.606 5-15 0-1.577-1.762-2-3-2h-2c0 1.424-.362 5-2 5v1c0 1.357-.647 6-2 6v4Z"/><path fill="#209766" id="AIp6a" d="M82 213h2c0-2.813 4-3.461 4-5-7.604 0-6-10.514-6-15-.969 0-7 1.147-7 2 0 6.641 7 11.665 7 18Z"/><path fill="#8599CC" id="PAL" d="m288 222-5 1c-2.618 0-1.651-3-4-3 0-9.792-2-17.7-2-27 2.319 0 .982 10 4 10 2.064 0 .426 3.353 1 4.5l3 5.5c-1.873 0-4.066 2.369-3 4.5l6 4.5Z"/><path fill="#209766" id="AIp6a" d="m372 212 2 1 8-18-8-2c0 4.394 2.288 15-5 15l3 4Z"/><path fill="#219864" id="AIp5" d="m80 215-5 1c0-3.408-14-14.195-14-20l13-1h1c0 6.641 7 11.665 7 18l-2 2ZM377 215l4 1c0-2.146 14-13.614 14-20l-13-1-8 18 3 2Z"/><path fill="#209865" id="AIp2/3" d="M75 216c0 .473-8.784 4-10 4 0-2.43-14-15.235-14-20v-1l8-2 2-1c0 5.805 14 16.592 14 20ZM381 216l10 4c2.238 0 14-18.389 14-21l-7-2-3-1c0 6.386-14 17.854-14 20Z"/><path fill="#C8CBCC" id="ec" d="M367 197c-1.995 0-2 4.377-2 6 1.353 0 2-4.643 2-6Z"/><path fill="#CAC7CB" id="fiber tracts" d="m252 198-1 1 1-1Z"/><path fill="#C9C9C9" id="act" fill-rule="evenodd" d="M225 200c0 .148-11.749 4-13 4l-5 .5 5 4c4.322 8.644 22.023 8.738 30.5 4.5l2.5-5.5 4-3-11.5-2.5c-3.518-1.759-8.289-2-12.5-2m7 17h2c3.629 0 8.716-1 13-1 .999 0 13.643-.786 14-1.5 2.128-4.255-6.832-11.5-10-11.5l-12.5-4c-2.163-1.081-23.203.102-25 1l-7.5 3c-2.776 0-12.649 7.202-11 10.5 1.029 2.058 11.993 2.5 14 2.5 4.725 0 9.879 1 14 1h5c0-1.186 1-1.186 1 0h3Z"/><path fill="#219765" id="AIp1" d="m391 220 5 3c1.128 0 13-19.466 13-22l-3-2h-1c0 2.611-11.762 21-14 21ZM65 220l-4 3c-1.368 0-14-19.221-14-22l4-1c0 4.765 14 17.57 14 20Z"/><path fill="#CBCBC7" id="aco" d="M225 200c0 .148-11.749 4-13 4l-5 .5 5 4c4.322 8.644 22.023 8.738 30.5 4.5l2.5-5.5 4-3-11.5-2.5c-3.518-1.759-8.289-2-12.5-2Z"/><path fill="#209766" id="AIp6a" d="M91 201v1l-1-1h1Z"/><path fill="#C8CBCC" id="ec" d="M92 208h1c0-1.424-.362-5-2-5v3l1 2ZM365 207l-2 2c0-1.424.362-5 2-5v3Z"/><path fill="#209766" id="AIp6a" d="m91 207 1 1-1-2v1Z"/><path fill="#A0EE9C" id="EPd" d="M94 229c1.974 0 3.517 2 6 2 1.577 0 2-1.762 2-3l-1-2v-1l-1-1-2-4-1-1-2-7-1-1v-1l-1-1v-1h-1l-1-1-3 1c0 1.539-4 2.187-4 5 0 2.409 1 5.181 1 7l1 2 7 7h1ZM363 229l-7 2-2-2 1-3c0-2.46 4-4.17 4-7l1-2 1-2v-2l1-1v-1l1-1v-1l2-2 4 1 3 4v7l-1 1v1l-1 1-1 1-2 2v1l-1 1h-1l-1 1-1 1Z"/><path fill="#C8CBCC" id="ec" d="m93 209 1 1-1-1Z"/><path fill="#97D6F9" id="STR" d="M169 213h3l1-3-4 3Z"/><path fill="#C8CBCC" id="ec" d="m363 210-1 1 1-1ZM94 211l1 1-1-1ZM362 212l-1 1 1-1Z"/><path fill="#99D2BD" id="OLF" d="m377 215-5 4v-7l2 1 3 2ZM80 215l5 5c0-1.819-1-4.591-1-7h-2l-2 2Z"/><path fill="#97D6F9" id="STR" d="m165 213-1 1 1-1Z"/><path fill="#C9C9C9" id="act" d="M140 235h1c0-1.353 4.643-2 6-2 0-1.813 11.003-6 13-6 0-1.577 1.762-2 3-2l2-1 2-1 1-1h1l5-3.5c1.47-2.939-2-4.216-2-5.5h-7l-1 1-1 1h-1l-1 1-2 1c0 2.158-5.64 6-8 6 0 1.577-1.762 2-3 2 0 2.109-2.535 2-4 2 0 2.109-2.535 2-4 2 0 2.027-8.309 6 0 6ZM315 235h1c14.27 0-21-15.536-21-20h-1l-1-1c-1.564 0-3.876-1-6-1h-2c-1.873 0-4.066 2.369-3 4.5l6 4.5h1l1 1h1l24 12Z"/><path fill="#97D6F9" id="STR" d="m164 214-1 1 1-1ZM293 214l1 1-1-1Z"/><path fill="#6ACAB9" id="PIR" d="m122 281-1 1c-4.998 0-9.392.054-13.5-2-.977-.488-7.5-5.789-7.5-3-4.05 0-7.574-9.074-10.5-12L67 233.5c-1.87-3.739-6-5.962-6-10.5l4-3c1.216 0 10-3.527 10-4l5-1 5 5 1 2 7 7h1l8 6 18 15 5 8.5V269c0 3.255-2 6.058-2 10l-1 1v1Z"/><path fill="#97D6F9" id="STR" d="m162 215-1 1 1-1ZM318 273l1 1c1.238 0 3-.423 3-2l1-1 2-2c0-1.747.253-2 2-2l2-1c0-3.021.724-19 6-19l4-7 1-1 1-1 1-1 1-1-1-1c-15.263 0-22.119-4.809-34.5-11-4.036-2.018-7.811-9-12.5-9 0 4.464 35.27 20 21 20 0 .733 15.009 2 16.5 2 1.163 0 5.5-.549 5.5 1.5L324.5 251c-2.822 1.411-7.079-1-9.5-1v1c3.871 0 11.24 22 3 22Z"/><path fill="#C8CBCC" id="ec" d="m361 215-1 2 1-2Z"/><path fill="#6ACAB9" id="PIR" d="m334 280 2 2c3.732 0 8.391.555 11.5-1l8-5 .5 2c3.992 0 7.29-9.79 9.5-12 6.982-6.982 17.528-21.557 21.5-29.5 2.213-4.427 9-8.327 9-13.5l-5-3-10-4-4-1-5 4-1 1v1l-1 1-1 1c0 1.747-.253 2-2 2v1l-1 1h-1l-1 1-1 1-8 6-19 15c0 2.537-5 9.196-5 17 0 4.943 3 7.723 3 13Z"/><path fill="#97D6F9" id="STR" d="m161 216-2 1 2-1Z"/><path fill="#E64438" id="HY" d="m236 237-4 3v-17.5c-1.364-2.728-3 3.409-3 4.5h-1c0-.612-2.197-6.105-3-4.5-1.325 2.651-1 13.842-1 16.5l-4-2c0-14.202-13.106-4-21-4 0-1.22 8.626-4.751 10-7.5 1.807-3.613 0-5.805 0-9.5 4.725 0 9.879 1 14 1l1 1c0 2.39 8 3.853 8 0l2-1c3.629 0 8.716-1 13-1 0 10.069.729 12.114 10.5 17 7.937 3.969 21.5-5.214 21.5-13 2.349 0 1.382 3 4 3l-8 16c0-10.474-9.417-3-11-3-6.841 0-28-15.396-28 1Z"/><path fill="#CAC7CB" id="fiber tracts" d="M228 217h1c0-1.186-1-1.186-1 0Z"/><path fill="#97D6F9" id="STR" d="M159 217c-2.287 0-8 3.22-8 6 2.36 0 8-3.842 8-6Z"/><path fill="#CAC7CB" id="fiber tracts" d="M224 217v1l-1-1h1ZM234 217l-2 1v-1h2Z"/><path fill="#C8CBCC" id="ec" d="m360 217-1 2 1-2Z"/><path fill="#E64438" id="HY" d="M192 236c-5.801 0 1.104-5.302-7.5-1-1.959.98-2.5 2.401-2.5 5-2.467 0-4.076-9.651-5-11.5l-4-5.5c3.448 0 2.91-5 5-5l-1 5.5c4.164 8.327 13.332 9.5 22 9.5 0 1.267-5.853 3-7 3Z"/><path fill="#C8CBCC" id="ec" d="m97 219 1 1-1-1Z"/><path fill="#99D2BD" id="OLF" d="m372 219-1 1 1-1ZM371 221l-1 1 1-1ZM86 222l7 7-7-7Z"/><path fill="#8599CC" id="PAL" d="m168 222-1 1 1-1Z"/><path fill="#A2B1D7" id="SI" d="M169 257c-10.143 0-19.858 4-30 4l2-10v-1c0-1.932 16-16.132 16-20l1-1 2-2c1.238 0 3-.423 3-2l2-1 2-1 1-1h1l4 1 4 5.5c.924 1.849 2.533 11.5 5 11.5 0 3.519 1.819 5.861 0 9.5l-7 5.5-4 1-2 1Z"/><path fill="#FE5547" id="PVpo" d="M218 274h3l2-1 1-1 1-1 3-6.5.5-3.5.5 5.5 2 4.5 1 1 7 2c0-3.047-3-4.462-3-7-4.681 0-4-22.359-4-27v-17.5c-1.364-2.728-3 3.409-3 4.5 0 3.246-1 3.246-1 0 0-.612-2.197-6.105-3-4.5-1.325 2.651-1 13.842-1 16.5v20.5l-2 5.5-1 1-1 1c0 1.522-4.153 7-2 7Z"/><path fill="#A2B1D7" id="SI" d="M287 257c10.243 0 19.792 4 30 4 0-3.721-2-6.881-2-10v-1c0-3.655-16-16.5-16-21-1.505 0-8-4.197-8-6h-1l-1-1h-1l-5 1-8 16c0 5.147-2.719 6.062 0 11.5l6 4.5 4 1 2 1Z"/><path fill="#8599CC" id="PAL" d="m289 222 1 1-1-1Z"/><path fill="#99D2BD" id="OLF" d="m370 222-1 1 1-1Z"/><path fill="#97D6F9" id="STR" d="M151 223c-1.238 0-3 .423-3 2 1.238 0 3-.423 3-2ZM299 229c4.036 0 10.153 6 16 6l-24-12c0 1.803 6.495 6 8 6Z"/><path fill="#99D2BD" id="OLF" d="m369 223-2 2c1.747 0 2-.253 2-2Z"/><path fill="#C8CBCC" id="ec" d="m100 224 1 1-1-1Z"/><path fill="#97D6F9" id="STR" d="m165 224-2 1 2-1ZM148 225l-4 2c1.465 0 4 .109 4-2ZM163 225c-1.238 0-3 .423-3 2 1.238 0 3-.423 3-2Z"/><path fill="#C8CBCC" id="ec" d="M113 235c.839 0 2 1.93 2 0-3.963 0-11.181-9-14-9l1 2 3 3h1l1 1 5 3h1ZM354 229l-3 1 4-4-1 3Z"/><path fill="#99D2BD" id="OLF" d="m367 226-1 1 1-1Z"/><path fill="#97D6F9" id="STR" d="m144 227-4 2c1.465 0 4 .109 4-2ZM157 230c-3.686 0-6.177 3-10 3 0-1.813 11.003-6 13-6l-2 2-1 1Z"/><path fill="#A8A9AA" id="V3" d="M228 227h1c0 3.246-1 3.246-1 0Z"/><path fill="#99D2BD" id="OLF" d="m365 227-1 1 1-1Z"/><path fill="#8AD987" id="CTXsp" d="M105 231c-1.238 0-3 .423-3 2l-2-2c1.577 0 2-1.762 2-3l3 3Z"/><path fill="#99D2BD" id="OLF" d="m364 228-1 1 1-1ZM102 233v2l-8-6c1.974 0 3.517 2 6 2l2 2Z"/><path fill="#97D6F9" id="STR" d="M137 274h1c0-1.874-5.105-4.29-4-6.5 1.813-3.627 1.192-8.383 3-12 .989-1.978 3-2.023 3-4.5h-8.5L118 238.5c0-1.955 3.889-1.5 5-1.5 4.213 0 8.782-1 13.5-1 1.098 0 3.5.534 3.5-1-8.309 0 0-3.973 0-6l-12.5 6H115c0 1.93-1.161 0-2 0v1l1 1 4 4 3 6c6.817 0 6 16.414 6 20h2c2.169 0 5 2.899 5 5l3 2Z"/><path fill="#7ECDF8" id="FS" d="m158 229-1 1 1-1Z"/><path fill="#FF5346" id="MPO" d="m193 269 5.5-1 3.5 3c2.317 0 8-.709 8-4-4.448 0-4-10.458-4-13.5 0-9.265 4.451-16.5 14-16.5 0-14.202-13.106-4-21-4 0 1.267-5.853 3-7 3l2 5.5c3.061 6.121-1 19.495-1 25.5v2ZM263 269c-1.423 0-3.544-1.978-5.5-1l-3.5 3c-2.926 0-7-.373-7-4 0-.402 2.465-3.43 3-4.5 5.324-10.647-2.384-25.5-14-25.5 0-16.396 21.159-1 28-1 0 2.582-.821 8.141-2 10.5l1 20.5v2Z"/><path fill="#7ECDF8" id="FS" d="M316 235c0 .733 15.009 2 16.5 2 1.163 0 5.5-.549 5.5 1.5L324.5 251c-2.822 1.411-7.079-1-9.5-1 0-3.655-16-16.5-16-21 4.036 0 10.153 6 16 6h1Z"/><path fill="#8AD987" id="CTXsp" d="m356 231-1 2-4-2v-1l3-1 2 2Z"/><path fill="#99D2BD" id="OLF" d="M355 233v2l8-6-7 2-1 2Z"/><path fill="#7ECDF8" id="FS" d="m141 250-1 1h-8.5L118 238.5c0-1.955 3.889-1.5 5-1.5 4.213 0 8.782-1 13.5-1 1.098 0 3.5.534 3.5-1h1c1.623 0 6-.005 6-2 3.823 0 6.314-3 10-3 0 3.868-16 18.068-16 20Z"/><path fill="#C8CBCC" id="ec" d="m351 231-4 2c0-1.712 2.571-3 4-3v1Z"/><path fill="#A0ED9D" id="EPv" d="M121 247c0 .922 1.681 3-1 3l-18-15v-2c0-1.577 1.762-2 3-2h1l1 1 5 3 1 1 1 1 4 4 3 6Z"/><path fill="#8AD987" id="CTXsp" d="m106 231 1 1-1-1Z"/><path fill="#A0ED9D" id="EPv" d="M335 247c0 1.048-.473 3 1 3l19-15v-2l-4-2-4 2-1 1-1 1h-1l-1 1-1 1-1 1-1 1-1 1-4 7Z"/><path fill="#97D6F9" id="STR" d="M147 233c-1.357 0-6 .647-6 2 1.623 0 6-.005 6-2Z"/><path fill="#F2473B" id="LPO" d="M192 267h1c0-6.005 4.061-19.379 1-25.5l-2-5.5c-5.801 0 1.104-5.302-7.5-1-1.959.98-2.5 2.401-2.5 5 0 3.519 1.819 5.861 0 9.5l-7 5.5 3 3c4.301 0 13.028 9 14 9ZM263 267h2c0-3.485 11.33-9 14-9l2-3-6-4.5c-2.719-5.438 0-6.353 0-11.5 0-10.474-9.417-3-11-3 0 2.582-.821 8.141-2 10.5l1 20.5Z"/><path fill="#C8CBCC" id="ec" d="M344 235h1l1-1 1-1c-1.424 0-5 .362-5 2l1 1 1-1Z"/><path fill="#8AD987" id="CTXsp" d="m346 234-1 1 1-1ZM113 235v1l-1-1h1Z"/><path fill="#97D6F9" id="STR" d="m344 235-1 1 1-1Z"/><path fill="#8AD987" id="CTXsp" d="m114 237 4 4-4-4Z"/><path fill="#FD4C3E" id="MPN" d="M215 267h5l1-1 1-1 2-5.5V239l-4-2c-9.549 0-14 7.235-14 16.5 0 3.042-.448 13.5 4 13.5h5ZM242 267h5c0-.402 2.465-3.43 3-4.5 5.324-10.647-2.384-25.5-14-25.5l-4 3c0 4.641-.681 27 4 27h6Z"/><path fill="#8AD987" id="CTXsp" d="m342 237-1 1 1-1ZM341 238l-1 1 1-1ZM340 239l-1 1 1-1Z"/><path fill="#99D2BD" id="OLF" d="m127 267-2 2v-10.5l-5-8.5c2.681 0 1-2.078 1-3 6.817 0 6 16.414 6 20ZM329 266l2 1c0-7.804 5-14.463 5-17-1.473 0-1-1.952-1-3-5.276 0-6 15.979-6 19Z"/><path fill="#97D6F9" id="STR" d="M140 251h1v-1l-1 1Z"/><path fill="#8599CC" id="PAL" d="m143 272-5 2c0-1.874-5.105-4.29-4-6.5 1.813-3.627 1.192-8.383 3-12 .989-1.978 3-2.023 3-4.5h1l-2 10c-3.54 0 4 10.245 4 11ZM314 271c0 2.109 2.535 2 4 2 8.24 0 .871-22-3-22 0 3.119 2 6.279 2 10 2.724 0-1.006 10-3 10Z"/><path fill="#E64438" id="HY" d="m172 259 1 1c0-1.638 3.576-2 5-2l-3-3-4 1 1 3ZM285 259l-2 2c0-2.715-1.657-3-4-3l2-3 4 1v3Z"/><path fill="#8599CC" id="PAL" d="m169 257 3 2-1-3-2 1ZM287 257l-2 2v-3l2 1Z"/><path fill="#A2B1D8" id="MA" d="M160 278h6c0-.886 5.824-3 7-3v-15l-1-1-3-2c-10.143 0-19.858 4-30 4-3.54 0 4 10.245 4 11l9.5 4c1.173.587 7.5.619 7.5 2ZM290 278h6c0-1.647 7.176-1.338 8.5-2 1.947-.973 8.431-5 9.5-5 1.994 0 5.724-10 3-10-10.208 0-19.757-4-30-4l-2 2-2 2v13l7 4Z"/><path fill="#96A6D3" id="NDB" d="m173 275 6.5 4H190c0-3.641 3-5.885 3-10l-1-2c-.972 0-9.699-9-14-9-1.424 0-5 .362-5 2v15ZM266 278l1 1c4.395 0 16 .692 16-5v-13c0-2.715-1.657-3-4-3-2.67 0-14 5.515-14 9l-1 4 2 7Z"/><path fill="#A8A9AA" id="V3" d="M226 271h5l-2-4.5-.5-5.5-.5 3.5-3 6.5h1Z"/><path fill="#E64438" id="HY" d="m222 265-1 1 1-1Z"/><path fill="#7FCCF7" id="OT" d="m325 291-1 1-9.5 5c-7.339 3.67-18.838.081-25-3-2.026-1.013-8.5-2.25-8.5-6 0-7 .054-10 9-10h6c3.644 0 23 2.841 23-4 1.238 0 3-.423 3-2l1-1c1.747 0 2-.253 2-2 1.747 0 2-.253 2-2l2-1 2 1c0 4.943 3 7.723 3 13v1c-1.901 0-5 4.332-5 6l-1 1-1 1-1 1-1 1ZM175 289c0 4.331-9.133 4.817-11.5 6-5.374 2.687-15.766 5.117-22 2l-10.5-6c0-4.174-8-6.657-8-11v-1c0-3.942 2-6.745 2-10l2-2h2l5 5 3 2c0 4.851 13.311 5 17 5 1.321 0 6 .684 6-1h6c9.374 0 10 2.329 10 10l-1 1Z"/><path fill="#A2B1D7" id="SI" d="M129 267c2.169 0 5 2.899 5 5l-5-5Z"/><path fill="#E64438" id="HY" d="M193 267v2l-1-2h1ZM202 271l2 4 5.5-5 5.5-3h-5c0 3.291-5.683 4-8 4Z"/><path fill="#FD5545" id="VMPO" d="M204 279h6l8-5c-2.153 0 2-5.478 2-7h-5l-5.5 3-5.5 5v4ZM253 278l-1 1c-2.722 0-13-1.859-13-5 0-3.047-3-4.462-3-7h6c0 1.674 7.058 5.279 8.5 6l2.5 3v2Z"/><path fill="#E64438" id="HY" d="m254 271-1 5-2.5-3c-1.442-.721-8.5-4.326-8.5-6h5c0 3.627 4.074 4 7 4ZM263 269l1 2 1-4h-2v2Z"/><path fill="#A2B1D7" id="SI" d="M327 267c-1.747 0-2 .253-2 2 1.747 0 2-.253 2-2Z"/><path fill="#FE5546" id="VLPO" d="M199 281h2l2-1 1-1v-4l-2-4-3.5-3-5.5 1c0 4.115-3 6.359-3 10l9 2ZM266 279l-8 2c-1.424 0-5-.362-5-2v-3l1-5 3.5-3c1.956-.978 4.077 1 5.5 1l1 2 2 7v1Z"/><path fill="#A2B1D7" id="SI" d="m325 269-2 2c1.747 0 2-.253 2-2Z"/><path fill="#CAC7CB" id="fiber tracts" d="M223 273h4l-1-2h-1l-1 1-1 1Z"/><path fill="#A2B1D7" id="SI" d="M319 274c0 6.841-19.356 4-23 4 0-1.647 7.176-1.338 8.5-2 1.947-.973 8.431-5 9.5-5 0 2.109 2.535 2 4 2l1 1ZM323 271l-1 1 1-1ZM137 274h1l5-2 9.5 4c1.173.587 7.5.619 7.5 2 0 1.684-4.679 1-6 1-3.689 0-17-.149-17-5Z"/><path fill="#CAC7CB" id="fiber tracts" d="M199 281h2l-2 3.5c4.471 8.941 27.806-2.347 35.5 1.5 2.886 1.443 25.743 3.987 22.5-2.5-2.127-4.253-11.816-3.658-15.5-5.5-4.174-2.087-7.416-5-12.5-5 0-1.473 1.952-1 3-1l7 2c0 3.141 10.278 5 13 5h1c0 1.638 3.576 2 5 2l1 6.5c-1.418 2.836-26.146 3.177-29.5 1.5l-1-2-1 2-10 1c-3.817 0-19.124.252-20.5-2.5l2-6.5ZM223 273l-2 1 2-1Z"/><path fill="#CBCACC" id="och" d="M210 279c0 2.156-7.077 2-9 2l-2 3.5c4.471 8.941 27.806-2.347 35.5 1.5 2.886 1.443 25.743 3.987 22.5-2.5-2.127-4.253-11.816-3.658-15.5-5.5-4.174-2.087-7.416-5-12.5-5h-6l-2 1c0 2.268-8.914 5-11 5Z"/><path fill="#CAC7CB" id="fiber tracts" d="M221 274c0 2.268-8.914 5-11 5l8-5h3Z"/><path fill="#8599CC" id="PAL" d="M267 279c0 2.023 11.86 9 14 9 0-7 .054-10 9-10l-7-4c0 5.692-11.605 5-16 5ZM190 279c0 1.833-12.661 9-14 9 0-7.671-.626-10-10-10 0-.886 5.824-3 7-3l6.5 4H190Z"/><path fill="#CAC8C7" id="lot" d="m122 286-1 1c0 .982-3.298 2.601-4.5 2-4.104-2.052-16.5-5.432-16.5-12 0-2.789 6.523 2.512 7.5 3 4.108 2.054 8.502 2 13.5 2v1l1 3ZM335 283v4c0 1.278 4.07 2.715 5.5 2 2.967-1.484 14.5-5.097 14.5-10l1-1-.5-2-8 5c-3.109 1.555-7.768 1-11.5 1l-1 1Z"/><path fill="#E64438" id="HY" d="M252 279h1v-1l-1 1ZM266 279h1l-1-1v1Z"/><path fill="#6ACAB9" id="PIR" d="m356 278-1 1 1-1Z"/><path fill="#99D2BD" id="OLF" d="M122 280h1v-1l-1 1Z"/><path fill="#E64438" id="HY" d="m204 279-1 1 1-1Z"/><path fill="#CAC7CB" id="fiber tracts" d="m203 280-2 1c1.923 0 9 .156 9-2h-6l-1 1Z"/><path fill="#97D6F9" id="STR" d="M122 286c3.984 0 6.027 5 9 5 0-4.174-8-6.657-8-11h-1v1l-1 2 1 3Z"/><path fill="#99D2BD" id="OLF" d="m336 282-1 1-1-2v-1l2 2ZM121 282v1l1-2-1 1Z"/><path fill="#97D6F9" id="STR" d="M329 287h6v-4l-1-2c-1.901 0-5 4.332-5 6ZM122 286l-1 1 1-1ZM329 287l-1 1 1-1Z"/><path fill="#8599CC" id="PAL" d="m176 288-1 1 1-1Z"/><path fill="#97D6F9" id="STR" d="m328 288-1 1 1-1ZM327 289l-1 1 1-1ZM326 290l-1 1 1-1ZM325 291l-1 1 1-1Z"/></svg>