<svg xmlns="http://www.w3.org/2000/svg" viewBox="0 0 456 320"><path fill="#1E9D5A" id="MOp1" d="M137 48v7l9.5-4c5.572-2.786 32.251-10 38.5-10h1v-6c-4.782 0-30.315 5.907-34.5 8L137 48Z"/><path fill="#1E9C59" id="MOs1" d="M222 55h1l4-2c0-3.316-3.162-5.663-5.5-8-12.177-12.176-16.737-10-35.5-10v6l5.5-2c8.416-4.208 30.5 6.612 30.5 16ZM229 52l5 3c0-2.097 2.105-3.71 3-5.5 2.93-5.86 20.503-13.998 27.5-10.5l6.5 2v-6c-15.439 0-24.278-2.222-35 8.5l-7 8.5Z"/><path fill="#1E9D5A" id="MOp1" d="m319 48 1 7c-4.576 0-11.443-3.972-15.5-6-4.131-2.066-28.761-8-33.5-8v-6l4.5 2c4.148 2.074 10.832-.084 15 2l28.5 9Z"/><path fill="#1E9D58" id="MOs2/3" d="m222 55-6 3-2.5-4c-2.303-2.303-5.314-2.657-8-4-6.661-3.33-15.636 4-21.5 4 0-3.11 1-9.347 1-13h1l5.5-2c8.416-4.208 30.5 6.612 30.5 16ZM234 55l7 3c0-14.897 25.621-4 31-4 0-4.673-1-7.604-1-13l-6.5-2c-6.997-3.498-24.57 4.64-27.5 10.5-.895 1.79-3 3.403-3 5.5Z"/><path fill="#1F9C58" id="MOp2/3" d="M136 71v7c8.017 0 38.816-23 48-23v-1c0-3.11 1-9.347 1-13-6.249 0-32.928 7.214-38.5 10l-9.5 4h-1v16ZM320 78h1c0-2.696-1-3.847-1-7V55c-4.576 0-11.443-3.972-15.5-6-4.131-2.066-28.761-8-33.5-8 0 5.396 1 8.327 1 13l1 1c8.685 0 39.316 23 47 23Z"/><path fill="#197E64" id="SSp-ul1" d="m101 67 3 4 32-16h1v-7c-7.214 0-20.832 9.666-27.5 13-1.582.791-8.5 3.942-8.5 6ZM355 66l-2 5c-4.911 0-26.329-16-33-16l-1-7c7.27 0 20.782 9.64 27.5 13l8.5 5Z"/><path fill="#1F9D58" id="MOs5" d="M203 70c-3.336 0-7.061-5.22-11.5-3-2.826 1.413-7.361 6-10.5 6 0-6.275 3-11.926 3-18v-1c5.864 0 14.839-7.33 21.5-4 2.686 1.343 5.697 1.697 8 4l2.5 4v1c-2.691 0-13 8.96-13 11ZM254 70c2.991 0 6.155-5.173 10.5-3l10.5 6c0-6.714-2-11.49-2-18l-1-1c-5.379 0-31-10.897-31 4v1c4.896 0 8.47 11 13 11Z"/><path fill="#3EA665" id="ACAd1" d="M223 81h11V55l-5-3c0 2.73-.423 1-2 1l-4 2v26Z"/><path fill="#197F61" id="SSp-ul2/3" d="m105 74 6 8c1.833 0 19.925-11 25-11V55l-32 16v1l1 2Z"/><path fill="#1E9C5A" id="MOp5" d="M136 78v15c2.785 0 27.793-10.146 31.5-12l13.5-8c0-6.275 3-11.926 3-18-9.184 0-39.983 23-48 23Z"/><path fill="#40A565" id="ACAd2/3" d="m223 81-6 1V64.5c0-1.278.665-5.5-1-5.5v-1l6-3h1v26ZM234 81l5 1V64c0-1.424.362-5 2-5v-1l-7-3v26Z"/><path fill="#1E9C5A" id="MOp5" d="M320 78v15c-7.67 0-38.844-19-44-19l-1-1c0-6.714-2-11.49-2-18 8.685 0 39.316 23 47 23Z"/><path fill="#197F61" id="SSp-ul2/3" d="m352 73-6 9c-4.221 0-19.234-11-26-11V55c6.671 0 28.089 16 33 16v1l-1 1Z"/><path fill="#3EA566" id="ACAd5" d="M217 83c-4.77 0-7.724 5-12 5l-2-17v-1c0-2.04 10.309-11 13-11 1.665 0 1 4.222 1 5.5V83ZM239 82c4.476 0 9.043 7 13 7 0-3.195-.129-18 2-18v-1c-4.53 0-8.104-11-13-11-1.638 0-2 3.576-2 5v18Z"/><path fill="#1B8062" id="SSp-un1" d="M353 71v1c1.803 0 3-3.592 3-5l-1-1-2 5Z"/><path fill="#187E61" id="SSp-m1" d="M55 135h4c1.353 0 2-4.643 2-6 0-2.848 2.668-10.835 4-13.5 4.835-9.671 17.041-30.27 27.5-35.5 3.522-1.761 6.346-7 10.5-7v-1c0-1.312-3-2.446-3-5-2.74 0-14.86 11.36-17.5 14C68.403 95.097 55 115.2 55 135Z"/><path fill="#1B8062" id="SSp-un1" d="M103 72h1v-1l-3-4h-1c0 2.554 3 3.688 3 5Z"/><path fill="#1D9C5A" id="MOs6a" d="m187 93-7 2c0-2.681-2.592-8.317-1-11.5 1.418-2.837 2-7.17 2-10.5 3.139 0 7.674-4.587 10.5-6 4.439-2.22 8.164 3 11.5 3v1c-3.592 0-12 16.838-12 21h-1c-1.048 0-3-.473-3 1ZM276 95h1l-1-21-1-1-10.5-6c-4.345-2.173-7.509 3-10.5 3v1c2.359 0 12 17.484 12 21 3.606 0 6.972 3 10 3Z"/><path fill="#187E61" id="SSp-m1" d="m401 135-4 1c0-12.267-19.118-47.809-29.5-53-4.852-2.426-8.79-10-14.5-10v-1c1.803 0 3-3.592 3-5 5.971 0 11.182 9.841 15.5 12 13.277 6.639 29.5 39.276 29.5 56Z"/><path fill="#1A7F63" id="SSp-ul4" d="M111 83c0 2.784 4 4.47 4 6 7.694 0 13.704-11 21-11v-7c-5.075 0-23.167 11-25 11v1Z"/><path fill="#3FA664" id="ACAd6a" d="M191 92c0 1.539 4 2.187 4 5 4.18 0 5.37-8 10-8v-1l-2-17c-3.592 0-12 16.838-12 21ZM263 95l-2 2c-3.398 0-5.13-7-9-7v-1c0-3.195-.129-18 2-18 2.359 0 12 17.484 12 21v1c-2.003 0-3-.293-3 2Z"/><path fill="#1A7F63" id="SSp-ul4" d="m346 83-5 6c-4.685 0-11.384-5.942-15.5-8l-4.5-3c0-2.696-1-3.847-1-7 6.766 0 21.779 11 26 11v1Z"/><path fill="#1C7F63" id="SSp-un2/3" d="m103 73 2 1-1-2h-1v1ZM352 73c0 1.186 1 1.186 1 0v-1l-1 1Z"/><path fill="#1A7E64" id="SSp-m2/3" d="m59 136 10 4c0-11.113 14.01-39.755 24.5-45 6.301-3.15 9.962-12 17.5-12v-1l-6-8-2-1c-4.154 0-6.978 5.239-10.5 7-10.459 5.23-22.665 25.829-27.5 35.5-1.332 2.665-4 10.652-4 13.5 0 1.357-.647 6-2 6v1Z"/><path fill="#1F9B5A" id="MOp6a" d="m144 111-8 2V93c2.785 0 27.793-10.146 31.5-12l13.5-8c0 3.33-.582 7.663-2 10.5-1.592 3.183 1 8.819 1 11.5l-4 2c-1.424 0-5 .362-5 2-1.465 0-4-.109-4 2-2.252 0-14 3.596-14 6-1.465 0-4-.109-4 2-1.622 0-5-.461-5 2Z"/><path fill="#1A7E64" id="SSp-m2/3" d="M397 136c-3.657 0-5.884 4-10 4 0-14.159-15.432-42.466-28.5-49-4.167-2.083-7.598-8-12.5-8v-1l6-9c0 1.186 1 1.186 1 0 5.71 0 9.648 7.574 14.5 10 10.382 5.191 29.5 40.733 29.5 53Z"/><path fill="#1F9B5A" id="MOp6a" d="m277 95 44 19c0-6.393-1-14.534-1-21-7.67 0-38.844-19-44-19l1 21Z"/><path fill="#187E62" id="SSp-ul5" d="M121 100h1l14-7V78c-7.296 0-13.306 11-21 11v1c0 3.676 6 5.589 6 10ZM334 100h1c0-3.23 6-6.261 6-10v-1c-4.685 0-11.384-5.942-15.5-8l-4.5-3h-1v15c2.11 0 14 5.203 14 7Z"/><path fill="#3FA566" id="ACAv2/3" d="m221 116-3 1-1-34v-1l6-1c0 10.68-1 21.946-1 32l-1 3Z"/><path fill="#40A664" id="ACAv1" d="M229 108c2.832 0 2.953 5 5 5V81h-11c0 10.68-1 21.946-1 32l5-5c0-3.15 2-3.446 2 0Z"/><path fill="#3FA566" id="ACAv2/3" d="M235 115c1.481 0 .785 2 3 2 0-10.9 1-23.427 1-35l-5-1v32l1 2Z"/><path fill="#3EA666" id="ACAv5" d="M247 114c0 3.01-6.675 3-9 3 0-10.9 1-23.427 1-35 4.476 0 9.043 7 13 7v1c-1.777 0-1 9.717-1 11.5l-4 12.5Z"/><path fill="#1B7F62" id="SSp-m4" d="M74 143h1c0-11.359 18.917-40.708 29.5-46l10.5-7v-1c0-1.53-4-3.216-4-6-7.538 0-11.199 8.85-17.5 12-10.49 5.245-24.5 33.887-24.5 45v1c1.041 0 5 .986 5 2Z"/><path fill="#3EA666" id="ACAv5" d="M209 113c0 3.745 6.446 4 9 4l-1-34c-4.77 0-7.724 5-12 5v1c0 9.321 4 17.216 4 24Z"/><path fill="#1B7F62" id="SSp-m4" d="M381 143h1l5-2v-1c0-14.159-15.432-42.466-28.5-49-4.167-2.083-7.598-8-12.5-8l-5 6v1c3.945 0 7.111 5.306 10.5 7 11.761 5.881 29.5 33.485 29.5 46Z"/><path fill="#40A564" id="ACAv6a" d="M207 113h2c0-6.784-4-14.679-4-24-4.63 0-5.82 8-10 8v1l2 1.5c1.164 2.329 9 9.225 9 11.5l1 2Z"/><path fill="#1B7E63" id="SSp-m5" d="M75 143c3.832 0 6.727 5 11 5 0-7.945 10.194-33.347 17.5-37 3.584-1.792 10.854-5.854 13.5-8.5l4-2.5c0-4.411-6-6.324-6-10l-10.5 7C93.917 102.292 75 131.641 75 143Z"/><path fill="#40A564" id="ACAv6a" d="m249 113-2 1 4-12.5c0-1.783-.777-11.5 1-11.5 3.87 0 5.602 7 9 7v2c-1.617 0-4 4.583-4 6-1.747 0-2 .253-2 2-1.747 0-2 .253-2 2-1.747 0-2 .253-2 2l-2 2Z"/><path fill="#1B7E63" id="SSp-m5" d="M370 148h1l10-5c0-12.515-17.739-40.119-29.5-46-3.389-1.694-6.555-7-10.5-7 0 3.739-6 6.77-6 10 0 1.183 3.57 1.535 4.5 2l13.5 9.5c8.674 8.674 17 23.324 17 36.5Z"/><path fill="#1E9C58" id="MOs6b" d="M187 93h3v-1c-1.048 0-3-.473-3 1Z"/><path fill="#3FA466" id="ACAd6b" d="M195 97v1l-5-5v-1h1c0 1.539 4 2.187 4 5Z"/><path fill="#1E9C58" id="MOs6b" d="M276 95v1c-3.414 0-6.353-3-10-3v-1c3.606 0 6.972 3 10 3Z"/><path fill="#197D61" id="SSp-ul6a" d="M132 116h1l2-1v-1l1-1V93l-14 7 10 16Z"/><path fill="#1E9C58" id="MOs6b" d="M180 95v1c1.345 0 7-1.57 7-3l-7 2Z"/><path fill="#CACCC7" id="cing" d="m206 111 1 2c-8.928 0-12.516-11.508-19.5-15-5.741-2.87-13.262 5-18.5 5l-1 1h-1l-2 1h-4l6-4c1.465 0 4 .109 4-2 1.622 0 5 .46 5-2 1.145 0 4 .58 4-1 1.345 0 7-1.57 7-3h3l5 5c0 3.806 6.653 13 11 13Z"/><path fill="#3FA466" id="ACAd6b" d="M266 93c-2.003 0-3-.293-3 2l3-2Z"/><path fill="#CACCC7" id="cing" d="m251 111-2 2c9.581 0 10.73-10.615 17.5-14 7.714-3.857 13.546 4 20.5 4l8 2-4-2.5-15-6.5c-3.414 0-6.353-3-10-3l-3 2-1 3-1 1c0 2.244-1.725 6-4 6 0 1.747-.253 2-2 2 0 1.747-.253 2-2 2l-2 2Z"/><path fill="#197D61" id="SSp-ul6a" d="m321 114 3 2c0-2.49 10-11.974 10-16 0-1.797-11.89-7-14-7 0 6.466 1 14.607 1 21Z"/><path fill="#1D9D5A" id="MOp6b" d="M180 96c0 1.58-2.855 1-4 1l4-2v1Z"/><path fill="#3FA466" id="ACAd6b" d="M261 98h1l1-3-2 2v1Z"/><path fill="#1D9D5A" id="MOp6b" d="M321 114v1c-9.125 0-16.715-10-26-10l-4-2.5-15-6.5v-1h1l44 19ZM176 97c-1.424 0-5 .362-5 2 1.622 0 5 .46 5-2Z"/><path fill="#C9C7C9" id="ccb" d="M355 165h1v-1l-1-1v-2l-1-2v-1l-1-1v-2l-2-4v-2c-1.577 0-2-1.762-2-3v-1c-1.811 0-7.115-9.729-8-11.5-3.56-7.12-14.328-13.414-20.5-16.5l-24-10c-1.706-.853-9.5-1.49-9.5-4-6.954 0-12.786-7.857-20.5-4-6.77 3.385-7.919 14-17.5 14l-2 1c0 3.01-6.675 3-9 3-2.215 0-1.519-2-3-2 0 5.825-5.844 1-6.5 1-.515 0-7.5 4.03-7.5 0l-3 1c-2.554 0-9-.255-9-4h-2c-8.928 0-12.516-11.508-19.5-15-5.741-2.87-13.262 5-18.5 5l-1 1h-1l-2 1c0 1.722-5.235 2.368-6.5 3-4.36 2.18-19.161 9-23.5 9 0 1.743-10.281 8-12 8 0 1.747-.253 2-2 2 0 1.747-.253 2-2 2 0 1.747-.253 2-2 2 0 1.429-1.288 4-3 4l-1 1c0 1.238-.423 3-2 3l-1 2-1 2c0 1.238-.423 3-2 3v1l-2 4-1 2v1l-1 2v1l-1 2v1l-1 2v4c1.177 0 3.326-8.152 4-9.5 3.703-7.407 7.567-21.034 16.5-25.5 5.555-2.777 12.174-8.587 19-12l22-6c6.31-3.155 17.103 2 22.5 2 1.937 0 8 1.553 8 4h1l2 2c2.768 0 10 4.983 10 8 2.597 0 5.518-1.491 8.5 0l7.5 4 2 1h1c0-2.062 6-4.066 6 0h2l2-1c0-4.256 12.878-4 15-4l4-4 1-1 5-3 1-1 2-1c0-2.109 2.535-2 4-2 0-2.109 2.535-2 4-2 5.617 0 16.984-5.258 23.5-2 4.839 2.419 11.221 1.61 16 4l20 10c10.447 5.224 16.206 19.912 20.5 28.5.674 1.348 2.823 9.5 4 9.5Z"/><path fill="#40A465" id="ACAv6b" d="m195 98 2 1.5c1.164 2.329 9 9.225 9 11.5-4.347 0-11-9.194-11-13ZM262 98l-1 1v-1h1Z"/><path fill="#1D9D5A" id="MOp6b" d="M171 99c-1.465 0-4-.109-4 2 1.465 0 4 .109 4-2Z"/><path fill="#40A465" id="ACAv6b" d="M261 99c-1.617 0-4 4.583-4 6 2.275 0 4-3.756 4-6Z"/><path fill="#187D61" id="SSp-m6a" d="M86 148c3.002 0 15 3.971 15 7 .316 0 6.707-18 10-18 0-2.582 3.577-8 6-8 0-5.09 15-12.755 15-13l-10-16h-1l-4 2.5c-2.646 2.646-9.916 6.708-13.5 8.5-7.306 3.653-17.5 29.055-17.5 37ZM370 148c-4.469 0-11.603 6-15 6 0-7.72-22.046-38-31-38 0-2.49 10-11.974 10-16h1c0 1.183 3.57 1.535 4.5 2l13.5 9.5c8.674 8.674 17 23.324 17 36.5Z"/><path fill="#1D9D5A" id="MOp6b" d="m161 105-8 2c0-2.404 11.748-6 14-6l-6 4Z"/><path fill="#C9C9CA" id="scwm" d="m169 103-1 1 1-1ZM324 117c0 1.806 6.538 4.038 8 5.5 4.268 4.268 17 17.155 17 22.5-1.811 0-7.115-9.729-8-11.5-3.56-7.12-14.328-13.414-20.5-16.5l-24-10c-1.706-.853-9.5-1.49-9.5-4l8 2c9.285 0 16.875 10 26 10 0 1.577 1.762 2 3 2ZM167 104l-2 1 2-1ZM135 116v1c4.339 0 19.14-6.82 23.5-9 1.265-.632 6.5-1.278 6.5-3h-4l-8 2c0 2.109-2.535 2-4 2 0 1.638-3.576 2-5 2 0 1.327-7.75 5-9 5Z"/><path fill="#40A465" id="ACAv6b" d="M257 105c-1.747 0-2 .253-2 2 1.747 0 2-.253 2-2Z"/><path fill="#1D9D5A" id="MOp6b" d="M153 107c-1.465 0-4-.109-4 2 1.465 0 4 .109 4-2Z"/><path fill="#40A465" id="ACAv6b" d="M255 107c-1.747 0-2 .253-2 2 1.747 0 2-.253 2-2Z"/><path fill="#7ED04B" id="IG" d="M235 115c0 5.825-5.844 1-6.5 1-.515 0-7.5 4.03-7.5 0l1-3 5-5c0 1.399 2 1.399 2 0 2.832 0 2.953 5 5 5l1 2Z"/><path fill="#1D9D5A" id="MOp6b" d="M149 109c-1.622 0-5-.461-5 2 1.424 0 5-.362 5-2Z"/><path fill="#40A465" id="ACAv6b" d="M253 109c-1.747 0-2 .253-2 2l2-2Z"/><path fill="#1D9D5A" id="MOp6b" d="M135 115v1c1.25 0 9-3.673 9-5l-8 2-1 1v1Z"/><path fill="#1F9B5A" id="MOp6a" d="m136 113-1 1 1-1Z"/><path fill="#98D5F9" id="CP" d="m123 231 9 4c13.743 0 35.781 2.937 43-11.5 1.336-2.673.708-6.416 2-9l3-4.5 8-9v-1l1-1 2-4c0-6.903 1-14.772 1-21l1-14 1-1v-2c0-7.837 2.675-18.15-1-25.5l-6-13.5c0-1.481-2-.785-2-3-5.397 0-16.19-5.155-22.5-2l-22 6c-6.826 3.413-13.445 9.223-19 12-8.933 4.466-12.797 18.093-16.5 25.5-.674 1.348-2.823 9.5-4 9.5v18.5c1.479 2.958 8 24.774 8 27.5l2 6 2 2v1l6 6 4 4ZM333 231l-8 4c-15.114 0-36.421 2.658-44-12.5l-1-5c-.579-1.157-3-5.491-3-6.5 0-1.432-6.261-9-8-9v-1l-1-1-1-1-1-5c0-6.887-1-15.436-1-23 0-3.765-2-7.772-2-12v-2l-1-1v-1c0-6.426-1.728-17.044 1-22.5l6-14.5c1.577 0 2-1.762 2-3 5.617 0 16.984-5.258 23.5-2 4.839 2.419 11.221 1.61 16 4l20 10c10.447 5.224 16.206 19.912 20.5 28.5.674 1.348 2.823 9.5 4 9.5 0 6.48 2.698 16.104 0 21.5-3.016 6.032-6 15.478-6 22.5v1l-1 1v1l-1 1-3 6-1 2-1 1-1 1-1 2-1 1-1 1-4 3-1 1Z"/><path fill="#1C8064" id="SSp-ul6b" d="M324 116v1c-1.238 0-3-.423-3-2v-1l3 2ZM133 117h2v-2l-2 1v1Z"/><path fill="#AAA8A9" id="SEZ" d="M187 118c2.724 0 3.276 1 6 1 0-2.447-6.063-4-8-4 0 2.215 2 1.519 2 3ZM267 117l2 1c1.577 0 2-1.762 2-3-1.465 0-4-.109-4 2Z"/><path fill="#188064" id="SSp-m6b" d="M117 129h2c0-1.747.253-2 2-2 0-1.747.253-2 2-2 0-4.162 10-5.338 10-8v-1h-1c0 .245-15 7.91-15 13ZM354 159h1v-5c0-7.72-22.046-38-31-38v1c0 1.806 6.538 4.038 8 5.5 4.268 4.268 17 17.155 17 22.5v1c1.577 0 2 1.762 2 3v2l2 4v2l1 1v1Z"/><path fill="#C9C9CA" id="scwm" d="M135 117c0 1.743-10.281 8-12 8 0-4.162 10-5.338 10-8h2Z"/><path fill="#A8AAAA" id="VL" d="m195 155-1 2c0-7.837 2.675-18.15-1-25.5l-6-13.5c2.724 0 3.276 1 6 1h1l2 2c2.768 0 10 4.983 10 8 0 6.143-9 11.619-9 20-.913 0-2 5.014-2 6Z"/><path fill="#AAA8A9" id="SEZ" d="M267 117c-1.465 0-4-.109-4 2l4-2Z"/><path fill="#A8AAAA" id="VL" d="M260 148c0 1.296.825 7 2 7 0-6.426-1.728-17.044 1-22.5l6-14.5-2-1-4 2-2 1-1 1-5 3-1 1-4 4c0 4.618 10 12.8 10 19Z"/><path fill="#AAA8A9" id="SEZ" d="m194 119 2 2-2-2ZM263 119l-2 1 2-1ZM261 120l-1 1 1-1ZM255 124l-1 1 1-1Z"/><path fill="#C9C9CA" id="scwm" d="M123 125c-1.747 0-2 .253-2 2 1.747 0 2-.253 2-2ZM121 127c-1.747 0-2 .253-2 2 1.747 0 2-.253 2-2Z"/><path fill="#90CBEC" id="LSc" d="M197 149h4c2.477 0 2.522-2.011 4.5-3 2.638-1.319 15.5-6.295 15.5-10l1-1v-2l-7.5-4c-2.982-1.491-5.903 0-8.5 0 0 6.143-9 11.619-9 20ZM254 149h1c2.688 0 3.418-1 5-1 0-6.2-10-14.382-10-19-2.122 0-15-.256-15 4v3c0 3.74 18 9.144 18 12l1 1Z"/><path fill="#188064" id="SSp-m6b" d="m113 136-2 1c0-2.582 3.577-8 6-8v2c-1.712 0-3 2.571-3 4l-1 1Z"/><path fill="#C9C9CA" id="scwm" d="M119 129c0 1.747-.253 2-2 2v-2h2ZM117 131c-1.712 0-3 2.571-3 4 1.712 0 3-2.571 3-4Z"/><path fill="#97D6F9" id="STR" d="M225 134h6c0-4.066-6-2.062-6 0ZM224 134l-2 1v-2l2 1ZM233 134l2 2v-3l-2 1Z"/><path fill="#90CAED" id="LSr" d="M220 197h1c0-11.826 4-22.411 4-34l1-2c0-1.404 1.022-12 2.5-12l.5 6.5 2 5.5c0 12.796 5 25.073 5 38 .277 0 5.65-8.15 7-9.5l16.5-15.5 4.5 1c0-1.145-.579-4 1-4 0-3.765-2-7.772-2-12l-8-10h-1l-1-1c0-2.856-18-8.26-18-12l-2-2h-9l-2 1-1 1c0 3.705-12.862 8.681-15.5 10-1.978.989-2.023 3-4.5 3 0 1.935-4.065 6-6 6l-1 2v2l-1 1-1 14 1 1 3.5-1 16 15 7.5 8Z"/><path fill="#1A7E62" id="SSs1" d="m55 176-4 1c0-5.937-5.243-17.013-2-23.5l6-18.5h4v1c0 4.948-1.889 11.277-4 15.5-2.675 5.349 0 18.172 0 24.5Z"/><path fill="#C9C9CA" id="scwm" d="m114 135-1 1 1-1Z"/><path fill="#97D6F9" id="STR" d="m222 135-1 1 1-1Z"/><path fill="#1A7E62" id="SSs1" d="m401 176 4 1 2-4.5c2.559-5.117-.969-25.938-3-30-.7-1.401-1.039-7.5-3-7.5l-4 1c0 3.744 2.336 10.173 4 13.5 2.98 5.96 0 19.127 0 25.5v1Z"/><path fill="#1B8063" id="SSs2/3" d="M56 176c0-2.373 2.284 0 3 0l2-1 4-1c0-11.68 4-22.121 4-33v-1l-10-4c0 4.948-1.889 11.277-4 15.5-2.675 5.349 0 18.172 0 24.5h1Z"/><path fill="#C9C9CA" id="scwm" d="M111 137v2c1.577 0 2-1.762 2-3l-2 1Z"/><path fill="#1B8063" id="SSs2/3" d="M395 175h6c0-6.373 2.98-19.54 0-25.5-1.664-3.327-4-9.756-4-13.5-3.657 0-5.884 4-10 4v1c2.144 0 .381 4.262 1 5.5 3.599 7.197 3 17.874 3 26.5v1l4 1Z"/><path fill="#188064" id="SSp-m6b" d="M102 157h1v-1l1-2v-1l1-2c0-1.465-.109-4 2-4v-1c0-1.238.423-3 2-3l1-2 1-2v-2c-3.293 0-9.684 18-10 18v2h1Z"/><path fill="#C9C9CA" id="scwm" d="m111 139-1 2 1-2Z"/><path fill="#187C63" id="SSs4" d="m70 173-5 1c0-11.68 4-22.121 4-33 1.041 0 5 .986 5 2 0 9.33-4 19.59-4 30Z"/><path fill="#C9C9CA" id="scwm" d="m110 141-1 2 1-2Z"/><path fill="#187C63" id="SSs4" d="M387 173h4c0-8.626.599-19.303-3-26.5-.619-1.238 1.144-5.5-1-5.5l-5 2c0 7.627 5 20.933 5 30Z"/><path fill="#1C8063" id="SSs5" d="m83 171-13 2c0-10.41 4-20.67 4-30h1c3.832 0 6.727 5 11 5 0 7.474-3 15.122-3 23Z"/><path fill="#C9C9CA" id="scwm" d="M109 143c-1.577 0-2 1.762-2 3 1.577 0 2-1.762 2-3Z"/><path fill="#1C8063" id="SSs5" d="M373 171c5.018 0 9.423 2 14 2 0-9.067-5-22.373-5-30h-1l-10 5c0 8.079 2 14.598 2 23Z"/><path fill="#C9C9CA" id="scwm" d="M349 146c1.577 0 2 1.762 2 3-1.577 0-2-1.762-2-3ZM107 147c-2.109 0-2 2.535-2 4l2-4Z"/><path fill="#197D63" id="SSs6a" d="m98 168-15 3c0-7.878 3-15.526 3-23 3.002 0 15 3.971 15 7v3c-1.3 0-3 8.63-3 10Z"/><path fill="#97D6F9" id="STR" d="m253 148 1 1-1-1ZM263 157v2l-8-10c2.688 0 3.418-1 5-1 0 1.296.825 7 2 7v1l1 1Z"/><path fill="#197D63" id="SSs6a" d="m358 168 15 3c0-8.402-2-14.921-2-23h-1c-4.469 0-11.603 6-15 6v3c1.988 0 3 9.265 3 11Z"/><path fill="#97D6F9" id="STR" d="M201 149c0 1.935-4.065 6-6 6 0-.986 1.087-6 2-6h4ZM226 161l2.5-2 2.5 2-2-5.5-.5-6.5c-1.478 0-2.5 10.596-2.5 12Z"/><path fill="#C9C9CA" id="scwm" d="m105 151-1 2 1-2ZM351 151l2 4-2-4ZM104 154l-1 2 1-2Z"/><path fill="#A8AAAA" id="VL" d="m262 156 1 1-1-1Z"/><path fill="#1A8061" id="SSs6b" d="M101 158h1v-1h-1v1Z"/><path fill="#C9C9CA" id="scwm" d="M102 158v1l1-2h-1v1ZM353 157l1 1-1-1Z"/><path fill="#1A8061" id="SSs6b" d="M357 168h1c0-1.735-1.012-11-3-11v6l1 1v1l1 3ZM98 168h2c0-1.048-.473-3 1-3v-7c-1.3 0-3 8.63-3 10Z"/><path fill="#188064" id="SSp-m6b" d="M101 160h1v-2h-1v2Z"/><path fill="#A8AAAA" id="VL" d="m194 159-1 1 1-1Z"/><path fill="#96A7D3" id="MS" d="M227 242c0-1.919 2-2.488 2 0l4-1 1-2 1-2v-1c0-8.774 1-18.617 1-28v-9c0-12.927-5-25.204-5-38l-2.5-2-2.5 2-1 2c0 11.589-4 22.174-4 34v8l-1 2v21.5c1.016 2.031 2 6.247 2 8.5 0 2.101 2.831 5 5 5Z"/><path fill="#C9C9CA" id="scwm" d="M355 159v2l-1-2h1ZM102 160l-1 2v-2h1Z"/><path fill="#97D6F9" id="STR" d="m226 161-1 2 1-2Z"/><path fill="#188064" id="SSp-m6b" d="m355 163 1 1-1-1Z"/><path fill="#C8CBCC" id="ec" d="m107 210 2 2c0-2.726-6.521-24.542-8-27.5V165c-1.473 0-1 1.952-1 3v15c0 2.409 1 5.181 1 7l2 7v1l2 4v5l2 3ZM349 209h1l1-2 1-4c0-1.145-.579-4 1-4 0-1.623.005-6 2-6v-3l2-2v-2c-1.186 0-1.186-1 0-1v-17l-1-3h-1c0 6.48 2.698 16.104 0 21.5-3.016 6.032-6 15.478-6 22.5Z"/><path fill="#009B74" id="GU6a" d="M99 184c-4.81 0-8.833 5-14 5 0-5.674-2-11.674-2-18l15-3c0 1.564-1.25 8.001-1 8.5l2 6.5v1Z"/><path fill="#019C74" id="GU6b" d="M99 183h1v-15h-2c0 1.564-1.25 8.001-1 8.5l2 6.5ZM357 184h1v-16h-1v16Z"/><path fill="#009B74" id="GU6a" d="M358 184c4.704 0 8.621 5 14 5 0-5.708 1-11.784 1-18l-15-3v16Z"/><path fill="#019C75" id="GU5" d="M71 194h1c1.564 0 3.876-1 6-1 0-2.528 4.652-4 7-4 0-5.674-2-11.674-2-18l-13 2c0 7.247 1 14.239 1 21Z"/><path fill="#A8AAAA" id="VL" d="M263 194h3c0-6.887-1-15.436-1-23-1.579 0-1 2.855-1 4 0 6.628-1 12.818-1 19Z"/><path fill="#019C75" id="GU5" d="M379 193c2.124 0 4.436 1 6 1 0-6.671 2-13.505 2-21-4.577 0-8.982-2-14-2 0 6.216-1 12.292-1 18 1.385 0 7 2.199 7 4Z"/><path fill="#009C74" id="GU4" d="M70 194h1c0-6.761-1-13.753-1-21l-5 1c0 6.709 5 13.903 5 20ZM385 194h1c2.073 0 5-16.651 5-20v-1h-4c0 7.495-2 14.329-2 21Z"/><path fill="#009B75" id="GU2/3" d="M61 197h1l8-3c0-6.097-5-13.291-5-20l-4 1-2 1c0 1.473-1.952 1-3 1 0 7.244 5 12.87 5 20Z"/><path fill="#A8AAAA" id="VL" d="M193 194c0 .896-2 3.026-2 1 0-6.903 1-14.772 1-21l1 1v19Z"/><path fill="#8FCBED" id="LSv" d="M220 207v2c-1.298 0-3.373 3.563-6.5 2-2.566-1.283-11.525-11-13.5-11l-4-2-3-4v-19l3.5-1 16 15 7.5 8c0 1.235-.643 5 1 5v3l-1 2ZM253 203c-3.647 0-7.288 6.394-10.5 8-3.622 1.811-4.894-3-6.5-3v-9c.277 0 5.65-8.15 7-9.5l16.5-15.5 4.5 1c0 6.628-1 12.818-1 19l-3 4-1 1c-2.773 0-3.67 4-6 4Z"/><path fill="#009B75" id="GU2/3" d="M386 194c0 .335 8.123 3 9 3 0-1.517 3.228-13.956 4-15.5l2-3.5v-1c-1.623 0-6-.005-6-2l-4-1c0 3.349-2.927 20-5 20Z"/><path fill="#12AC83" id="VISC2/3" d="M59 176c0 1.473-1.952 1-3 1v-1c0-2.373 2.284 0 3 0ZM61 175l-2 1 2-1ZM401 176v1c-1.623 0-6-.005-6-2h6v1Z"/><path fill="#12AD83" id="VISC1" d="m56 177-4 2-1-2 4-1h1v1ZM401 178l4 1v-2l-4-1v2Z"/><path fill="#009C75" id="GU1" d="m61 197-3 1c0-6.117-6-12.418-6-19l4-2c0 7.244 5 12.87 5 20ZM395 197l4 1c0-6.54 6-12.695 6-19l-4-1-2 3.5c-.772 1.544-4 13.983-4 15.5Z"/><path fill="#1F9766" id="AId6b" d="M99 184c0 1.745-.698 6 2 6 0-1.819-1-4.591-1-7h-1v1Z"/><path fill="#209666" id="AId6a" d="M90 205h5c0-4.688-4.504-8.996 0-13.5l3.5-2.5c2.627 1.314 2.347 8 4.5 8l-2-7c-2.698 0-2-4.255-2-6-4.81 0-8.833 5-14 5 0 6.191 5 10.602 5 16Z"/><path fill="#1F9766" id="AId6b" d="m358 184-1 1v-1h1Z"/><path fill="#209666" id="AId6a" d="M366 205h1c0-5.724 5-10.235 5-16-5.379 0-9.296-5-14-5l-1 1v4c10.177 0 4 11.639 4 16h5Z"/><path fill="#1F9766" id="AId6b" d="M357 185c-1.186 0-1.186 1 0 1v-1ZM355 190h1l1-1v-1l-2 2Z"/><path fill="#209665" id="AId5" d="M83 205h7c0-5.398-5-9.809-5-16-2.348 0-7 1.472-7 4 0 .722 2.582 10.664 3 11.5.669 1.337 2-1.814 2 .5Z"/><path fill="#8ADA86" id="CLA" d="M99 209h1l2-1 1-1v-10c-2.153 0-1.873-6.686-4.5-8l-3.5 2.5c-4.504 4.504 0 8.812 0 13.5l4 4ZM353 203c0 5.783 8 7.332 8 2 0-4.361 6.177-16-4-16l-1 1c0 1.048.473 3-1 3 0 1.357-.647 6-2 6v4Z"/><path fill="#209665" id="AId5" d="M367 205c2.124 0 4.436 1 6 1 3.794 0 2.666-13 6-13 0-1.801-5.615-4-7-4 0 5.765-5 10.276-5 16Z"/><path fill="#209666" id="AId6a" d="M356 190c0 1.048.473 3-1 3v-3h1Z"/><path fill="#219864" id="AIp5" d="M84 215h2c0-3.372-3-6.053-3-10 0-2.314-1.331.837-2-.5-.418-.836-3-10.778-3-11.5-2.124 0-4.436 1-6 1 0 7.378 12 16.753 12 21Z"/><path fill="#209666" id="AId6a" d="M355 193c-1.995 0-2 4.377-2 6 1.353 0 2-4.643 2-6Z"/><path fill="#219864" id="AIp5" d="M371 215h2c0-4.668 12-14.855 12-21-1.564 0-3.876-1-6-1-3.334 0-2.206 13-6 13 0 3.489-2 5.32-2 9Z"/><path fill="#209865" id="AIp2/3" d="M84 215c-3.795 0-8.393 4-12 4 0-7.428-10-14.141-10-22l8-3h2c0 7.378 12 16.753 12 21Z"/><path fill="#97D6F9" id="STR" d="m196 198-7 1 2-4c0 2.026 2-.104 2-1l3 4ZM260 198l7 1-1-5h-3l-3 4Z"/><path fill="#209865" id="AIp2/3" d="m373 215 12 4c0-7.701 10-14.391 10-22-.877 0-9-2.665-9-3h-1c0 6.145-12 16.332-12 21Z"/><path fill="#219765" id="AIp1" d="m72 219-5 1c0-4.143-9-15.623-9-22l3-1h1c0 7.859 10 14.572 10 22Z"/><path fill="#97D6F9" id="STR" d="M221 197v5c-1.643 0-1-3.765-1-5h1Z"/><path fill="#219765" id="AIp1" d="m385 219 4 1 3-4.5 7-17.5-4-1c0 7.609-10 14.299-10 22Z"/><path fill="#209666" id="AId6a" d="M103 202h2l-2-4v4Z"/><path fill="#B3C0DE" id="BST" d="M185 226v3c6.876 0 20 2.011 20-9 0-3.93 1.838-8.824 0-12.5l-5-7.5-4-2-7 1-1 1v1l1 7c10.455 0 6.794 15-4 15v3Z"/><path fill="#97D6F9" id="STR" d="m260 198-1 1 1-1Z"/><path fill="#B3C0DE" id="BST" d="M272 225v3c-3.421 0-7.176 4.162-13.5 1-2.125-1.062-6.653-8-7.5-8 0-6.482 2-13.958 2-18 2.33 0 3.227-4 6-4l1-1 7 1 1 1 1 1v1l-1 6c-11.507 0-6.901 15 3 15l1 2Z"/><path fill="#97D6F9" id="STR" d="m189 199-1 1 1-1Z"/><path fill="#209666" id="AId6a" d="M352 203h1v-4c-1.579 0-1 2.855-1 4Z"/><path fill="#97D6F9" id="STR" d="M205 220c.997 0 12.043 17 17 17 0-2.253-.984-6.469-2-8.5V209c-1.298 0-3.373 3.563-6.5 2-2.566-1.283-11.525-11-13.5-11l5 7.5c1.838 3.676 0 8.57 0 12.5ZM268 200l1 1-1-1ZM180 210c1.238 0 3 .423 3 2 2.33 0 3.227-4 6-4l-1-7-8 9Z"/><path fill="#1F9866" id="AIv6a" d="M103 207h2v-5h-2v5Z"/><path fill="#97D6F9" id="STR" d="M273 211h4c0-1.432-6.261-9-8-9l-1 6 5 3ZM251 221c-1.612 0-10.735 15-16 15 0-8.774 1-18.617 1-28 1.606 0 2.878 4.811 6.5 3 3.212-1.606 6.853-8 10.5-8 0 4.042-2 11.518-2 18Z"/><path fill="#1F9866" id="AIv6a" d="M356 209c2.7 0 4.762 3 8 3l2-7h-5c0 5.332-8 3.783-8-2h-1l-1 4 4 2h1Z"/><path fill="#1F9865" id="AIv5" d="m89 214-3 1c0-3.372-3-6.053-3-10h7l3 7-4 2Z"/><path fill="#1F9866" id="AIv6a" d="m98 211-5 1-3-7h5l4 4v1l-1 1Z"/><path fill="#97D6F9" id="STR" d="m221 205-1 2 1-2Z"/><path fill="#1F9865" id="AIv5" d="m367 214 4 1c0-3.68 2-5.511 2-9-1.564 0-3.876-1-6-1h-1l-2 7 3 2Z"/><path fill="#1F9866" id="AIv6a" d="m103 207-1 1 1-1Z"/><path fill="#8AD987" id="CTXsp" d="m102 209 5 1-2-3h-2l-1 1v1ZM350 209h5l-4-2-1 2Z"/><path fill="#1F9866" id="AIv6a" d="M100 209h2v-1l-2 1Z"/><path fill="#CBCBC7" id="aco" d="M184 223h1c10.794 0 14.455-15 4-15-2.773 0-3.67 4-6 4l-1 8.5 2 2.5ZM271 223h1l3-4.5c1.252-2.504-2-4.909-2-7.5l-5-3c-11.507 0-6.901 15 3 15Z"/><path fill="#99D2BD" id="OLF" d="m100 209-1 1v-1h1Z"/><path fill="#A0EE9C" id="EPd" d="m109 229 5 1c2.041 0 3-.959 3-3 0-2.773-4-3.67-4-6v-1l-2-2-2-6-2-2-5-1h-2l-1 1-1 1-1 8.5 5 6.5 3 1 3 2h1Z"/><path fill="#8AD987" id="CTXsp" d="m350 209-1 1v-1h1Z"/><path fill="#A0EE9C" id="EPd" d="M347 229h1l2-1h1l1-1h1l1-1 1-1h1l1-1 1-1 1-2v-8.5l-3-3.5h-6l-1 1-1 1v1l-1 1-3 6-1 2-1 1-1 1-1 2-1 1v1c0 2.715 1.657 3 4 3l4-1Z"/><path fill="#99D2BD" id="OLF" d="M367 214c-3.747 0-5.366 7-8 7v-8.5l-3-3.5c2.7 0 4.762 3 8 3l3 2ZM99 210l-1 1 1-1Z"/><path fill="#80CDF8" id="ACB" d="M135 255h1l4.5 4c2.61 1.305 5.43 1.715 8 3 6.013 3.007 24.397-9.397 28.5-13.5l7-7.5 1-1v-14c-1.473 0-1-1.952-1-3l-2-2.5 1-8.5c0-1.577-1.762-2-3-2l-3 4.5c-1.292 2.584-.664 6.327-2 9-7.219 14.437-29.257 11.5-43 11.5l-3 3c0 5.903 6 10.858 6 17ZM321 255l-1 1-3.5 3-9 3c-5.826 2.913-35.5-15.744-35.5-22v-17l3-4.5c1.252-2.504-2-4.909-2-7.5h4c0 1.009 2.421 5.343 3 6.5l1 5c7.579 15.158 28.886 12.5 44 12.5l2 3c0 6.04-6 10.992-6 17Z"/><path fill="#C8CBCC" id="ec" d="m349 210-1 1 1-1Z"/><path fill="#99D2BD" id="OLF" d="M89 214c6.492 0 7.031 12 13 12l-5-6.5 1-8.5-5 1-4 2Z"/><path fill="#C8CBCC" id="ec" d="m348 212-1 1 1-1Z"/><path fill="#6ACAB9" id="PIR" d="M118 265h2c1.53 0 3.216-4 6-4l1-1 2-4.5c2.864-5.729-2.353-12.706-4-16-1.771-3.542-16-9.633-16-10.5h-1c-1.238 0-3-.423-3-2l-3-1c-5.969 0-6.508-12-13-12l-3 1h-2c-3.795 0-8.393 4-12 4l-5 1c0 6.177 22.009 35 28 35 5.128 0 23 3.216 23 10ZM337 265h1l1-1c0-6.151 19.727-8 23-8l10-9.5c6.431-6.431 17-17.485 17-26.5l-4-1-12-4h-2l-4-1c-3.747 0-5.366 7-8 7l-1 2-1 1-1 1h-1l-1 1-1 1h-1l-1 1h-1l-2 1h-1c0 2.109-2.535 2-4 2 0 2.109-2.535 2-4 2 0 1.76-4.288 3.394-5.5 4l-6.5 9.5c-2.925 5.849 4 10.406 4 14.5l6 4Z"/><path fill="#C8CBCC" id="ec" d="m111 218 2 2-2-2ZM344 219l-1 2 1-2Z"/><path fill="#E64438" id="HY" d="M201 246c2.371 0 5 .017 5 3l3-5.5 8.5-7.5c3.676-1.838 5.1 7 7.5 7h2v-1c-2.169 0-5-2.899-5-5-4.957 0-16.003-17-17-17 0 11.011-13.124 9-20 9v11c6.132 0 9.329-8.414 14.5-11 4.047-2.023 4.537 8.425 3.5 10.5l-2 6.5Z"/><path fill="#C8CBCC" id="ec" d="M117 227h2l-6-6c0 2.33 4 3.227 4 6Z"/><path fill="#E64438" id="HY" d="M250 249h1c0-2.715 1.657-3 4-3 0-2.654-.888-5.275-2-7.5-1.393-2.785.148-11.676 4.5-9.5 4.916 2.458 7.619 11 14.5 11v-12c-3.421 0-7.176 4.162-13.5 1-2.125-1.062-6.653-8-7.5-8-1.612 0-10.735 15-16 15v1l3.5-1c3.47 1.735 11.5 8.922 11.5 13Z"/><path fill="#C8CBCC" id="ec" d="m343 221-1 1 1-1Z"/><path fill="#99D2BD" id="OLF" d="m359 221-1 2 1-2Z"/><path fill="#C8CBCC" id="ec" d="m342 222-1 1 1-1Z"/><path fill="#E64438" id="HY" d="M185 223v3c-1.473 0-1-1.952-1-3h1ZM272 223v2l-1-2h1Z"/><path fill="#C8CBCC" id="ec" d="m341 223-1 2 1-2Z"/><path fill="#99D2BD" id="OLF" d="m357 224-1 1 1-1Z"/><path fill="#C8CBCC" id="ec" d="m340 225-1 1 1-1Z"/><path fill="#99D2BD" id="OLF" d="m355 225-1 1 1-1Z"/><path fill="#C8CBCC" id="ec" d="M338 227h1v-1l-1 1Z"/><path fill="#99D2BD" id="OLF" d="m354 226-1 1 1-1ZM105 227l3 2c-1.238 0-3-.423-3-2Z"/><path fill="#8AD987" id="CTXsp" d="M123 231c0 .839 1.93 2 0 2-1.024 0-9-.099-9-3 2.041 0 3-.959 3-3h2l4 4ZM333 233h6c0-2.109 2.535-2 4-2v-1c-2.343 0-4-.285-4-3h-1l-4 3-1 1v2Z"/><path fill="#99D2BD" id="OLF" d="m352 227-1 1 1-1ZM350 228l-2 1 2-1ZM135 256c0 1.778-6.332 4-8 4l2-4.5c2.864-5.729-2.353-12.706-4-16-1.771-3.542-16-9.633-16-10.5l5 1c0 2.901 7.976 3 9 3l6 5c0 5.903 6 10.858 6 17v1Z"/><path fill="#A2B1D7" id="SI" d="M183 274v2c-9.978 0-24.956 5.772-34.5 1-5.414-2.707-10.349-5.349-15-10l-6.5-6v-1c1.668 0 8-2.222 8-4l1-1 4.5 4c2.61 1.305 5.43 1.715 8 3 6.013 3.007 24.397-9.397 28.5-13.5l7-7.5 1-1c6.132 0 9.329-8.414 14.5-11 4.047-2.023 4.537 8.425 3.5 10.5l-2 6.5c0 6.92-15 19.44-15 21l-3 2c0 1.041-2.36 5 0 5ZM274 274l-1 2c17.228 0 33.938 6.562 47.5-7 2.333-2.333 8.5-5.159 8.5-9l-8-4h-1l-3.5 3-9 3c-5.826 2.913-35.5-15.744-35.5-22-6.881 0-9.584-8.542-14.5-11-4.352-2.176-5.893 6.715-4.5 9.5 1.112 2.225 2 4.846 2 7.5 0 3.587 11.65 20 15 20l3 3 1 5Z"/><path fill="#99D2BD" id="OLF" d="M343 230v1c1.465 0 4 .109 4-2l-4 1Z"/><path fill="#97D6F9" id="STR" d="m334 230-1 1 1-1ZM132 235l-3 3-6-5c1.93 0 0-1.161 0-2l9 4ZM325 235l2 3 6-5v-2l-8 4Z"/><path fill="#99D2BD" id="OLF" d="M343 231c-1.465 0-4-.109-4 2 1.465 0 4 .109 4-2ZM329 260l2 1c0-4.094-6.925-8.651-4-14.5l6.5-9.5c1.212-.606 5.5-2.24 5.5-4h-6l-6 5c0 6.04-6 10.992-6 17v1l8 4Z"/><path fill="#FF5346" id="MPO" d="M211 265h3l1-1c0-7.053 10-15.408 10-21-2.4 0-3.824-8.838-7.5-7l-8.5 7.5-3 5.5c0 3.324-2 6.16-2 9l1 1c5.302 0 6-.818 6 6Z"/><path fill="#FF5346" id="MPO" fill-rule="evenodd" d="M242 254c0 1.93 1.93 0 0 0m0 10 3 1c0-7.236 1.444-6 7-6v-2l-1-7-1-1c0-4.078-8.03-11.265-11.5-13l-3.5 1-1 2-1 2-2 2c0 4.449 11 15.161 11 21Z"/><path fill="#E64438" id="HY" d="m235 237-1 2 1-2ZM234 239l-1 2 1-2ZM185 240l-1 1 1-1ZM229 243h2l2-2-4 1v1Z"/><path fill="#FE5446" id="AVPV" d="m230 267 4.5 4h7.5v-7c0-5.839-11-16.551-11-21h-6c0 5.592-10 13.947-10 21l-1 1c0 2.124 1 4.436 1 6 2.916 0 11 .467 11-4 0-13.172 4-15.271 4 0Z"/><path fill="#F2473B" id="LPO" d="m186 267 3 1c2.117 0 14-6.798 14-9l1-1c0-2.84 2-5.676 2-9 0-2.983-2.629-3-5-3 0 6.92-15 19.44-15 21ZM270 266l-2 2c-5.047 0-9.333-8-14-8l-1-2-1-1-1-7v-1c0-2.715 1.657-3 4-3 0 3.587 11.65 20 15 20Z"/><path fill="#CBCCCB" id="mfb" d="M251 249v1l-1-1h1Z"/><path fill="#FE5447" id="AVP" d="M242 254c0 1.93 1.93 0 0 0Z"/><path fill="#CAC8C7" id="lot" d="m118 270-1 1c-1.805 0-22-13.532-22-16 5.128 0 23 3.216 23 10l1 1v3l-1 1Z"/><path fill="#97D6F9" id="STR" d="m136 255-1 1v-1h1Z"/><path fill="#E64438" id="HY" d="m226 267 2.5-2 1.5 2c0-15.271-4-13.172-4 0Z"/><path fill="#97D6F9" id="STR" d="M320 256h1v-1l-1 1Z"/><path fill="#CAC8C7" id="lot" d="m338 270 1 1c4.08 0 2.65-2.575 5.5-4l12.5-6.5 5-4.5c-3.273 0-23 1.849-23 8l-1 1v5Z"/><path fill="#CBCCCB" id="mfb" d="M252 258h1l-1-1v1Z"/><path fill="#E64438" id="HY" d="M203 259h2l-1-1-1 1Z"/><path fill="#96A6D3" id="NDB" d="m202 276-1 1c-5.641 0-10.214-3-14-3 0-2.518 2-4.286 2-6 2.117 0 14-6.798 14-9h2c5.302 0 6-.818 6 6 0 2.971-3 4.768-3 7l-1 1-4 2-1 1ZM254 276h1c2.014 0 5.932 2.284 8.5 1l5.5-3c0-2.124-1-4.436-1-6-5.047 0-9.333-8-14-8l-2-1c-5.556 0-7-1.236-7 6l4 8 2 1 1 1h1l1 1Z"/><path fill="#E64438" id="HY" d="m252 259 2 1-1-2h-1v1Z"/><path fill="#99D2BD" id="OLF" d="M126 261h1v-1l-1 1Z"/><path fill="#7FCCF7" id="OT" d="M272 276h1c17.228 0 33.938 6.562 47.5-7 2.333-2.333 8.5-5.159 8.5-9l2 1 6 4c0 1.048-.473 3 1 3v5l-1 1c0 4.668-6.026 7.552-8 11.5-7.178 14.356-30.72 17.39-44.5 10.5-7.361-3.681-21.5-.516-21.5-14 0-4.126 5.14-6 9-6ZM184 276c4.904 0 9 1.989 9 7 0 12.829-14.025 9.263-21.5 13-15.103 7.552-38.14 3.219-46.5-13.5-1.61-3.219-6-5.688-6-9.5v-7l1-1c1.53 0 3.216-4 6-4h1l6.5 6c4.651 4.651 9.586 7.293 15 10 9.544 4.772 24.522-1 34.5-1h1Z"/><path fill="#E64438" id="HY" d="m215 264-1 1 1-1ZM242 271l7 2-4-8-3-1v7Z"/><path fill="#99D2BD" id="OLF" d="m339 264-1 1 1-1ZM120 265l-1 1-1-1h2Z"/><path fill="#E64438" id="HY" d="m215 271-7 1c0-2.232 3-4.029 3-7h3c0 2.124 1 4.436 1 6Z"/><path fill="#99D2BD" id="OLF" d="M338 265v3c-1.473 0-1-1.952-1-3h1Z"/><path fill="#E64438" id="HY" d="M272 276h1l1-2c-2.202 0-2.979-5-1-5l-3-3-2 2c0 1.564 1 3.876 1 6l3 2ZM183 276h1l3-2c0-2.518 2-4.286 2-6l-3-1-3 2c3.615 0 1.565 5 0 5v2Z"/><path fill="#97D6F9" id="STR" d="m117 271 2 2v-4l-1 1-1 1Z"/><path fill="#A2B1D8" id="MA" d="M183 269c3.615 0 1.565 5 0 5-2.36 0 0-3.959 0-5ZM273 269c-1.979 0-1.202 5 1 5l-1-5Z"/><path fill="#99D2BD" id="OLF" d="m118 270-1 1 1-1Z"/><path fill="#97D6F9" id="STR" d="m339 271-1 2v-3l1 1Z"/><path fill="#E64438" id="HY" d="m208 272-1 1 1-1Z"/><path fill="#97D6F9" id="STR" d="m338 273-1 1 1-1Z"/><path fill="#8599CC" id="PAL" d="m201 277-8 6c0-5.011-4.096-7-9-7l3-2c3.786 0 8.359 3 14 3ZM251 274l1 1-1-1ZM272 276c-3.86 0-9 1.874-9 6-2.07 0-8-3.396-8-6 2.014 0 5.932 2.284 8.5 1l5.5-3 3 2ZM203 275l-1 1 1-1Z"/><path fill="#CBCCC7" id="IIn" d="m215 275-8 6.5c-1.411 2.823 2.677 6.911 5.5 5.5 6.581-3.29 14.196-12 2.5-12ZM235 275c0 2.573 5.548 14.976 11.5 12 10.104-5.052-5.694-12-11.5-12Z"/><path fill="#8599CC" id="PAL" d="m253 275 1 1-1-1ZM202 276l-1 1 1-1Z"/></svg>