<svg xmlns="http://www.w3.org/2000/svg" viewBox="0 0 456 320"><path fill="#1E9D5A" id="MOp1" d="M197 30c-10.081 0-19.296 3-29 3l1-6c3.24 0 6.781-.64 9.5-2H198l-1 5Z"/><path fill="#1E9C59" id="MOs1" d="M222 43h1l4-2c0-2.183-3.405-3.31-4-4.5-4.067-8.135-14.331-11.5-25-11.5l-1 5c8.088 0 25 3.469 25 13ZM230 40l4 3c0-9.732 17.89-13 25-13l-1-5c-11.784 0-17.29 3.79-24.5 11l-3.5 4Z"/><path fill="#1E9D5A" id="MOp1" d="M259 30c10.192 0 19.24 3 29 3l-1-6c-2.816 0-7.049-.775-9.5-2H258l1 5Z"/><path fill="#187F60" id="SSp-ll1" d="M136 35c0 1.717 1.379 5 3 5 3.026 0 4.972-1.736 7.5-3 3.798-1.899 16.893-4 21.5-4l1-6c-11.99 0-23.434 8-33 8ZM317 41h1c0-1.076 1.523-5 3-5 0-1.976-7.956-2.228-9.5-3-7.215-3.607-15.853-6-24.5-6l1 6h1c6.68 0 15.795 2.147 21.5 5 1.265.632 6.5 1.278 6.5 3Z"/><path fill="#1F9C58" id="MOp2/3" d="m165 48-1 5c9.755 0 18.646-12 30-12l1-1 2-10c-10.081 0-19.296 3-29 3l-3 15Z"/><path fill="#1E9D58" id="MOs2/3" d="M222 43c0 1.617-4.583 4-6 4 0-8.119-15.958-7-21-7l2-10c8.088 0 25 3.469 25 13ZM240 47h1c0-7.99 14.425-7 20-7l-2-10c-7.11 0-25 3.268-25 13 1.208 0 3.947 4 6 4Z"/><path fill="#1F9C58" id="MOp2/3" d="M291 48c0 2.72 2 3.553 2 6-7.676 0-21.799-14-32-14l-2-10c10.192 0 19.24 3 29 3h1c0 5.296 2 9.35 2 15Z"/><path fill="#187F64" id="SSp-ll2/3" d="M165 48c-7.137 0-13.202 5-20 5l-6-12v-1c3.026 0 4.972-1.736 7.5-3 3.798-1.899 16.893-4 21.5-4l-3 15ZM311 53h1c0-4.88 5-7.49 5-12 0-1.722-5.235-2.368-6.5-3-5.705-2.853-14.82-5-21.5-5 0 5.296 2 9.35 2 15 7.166 0 13.265 5 20 5Z"/><path fill="#197E64" id="SSp-ul1" d="M109 54h1c6.753 0 19.749-13 29-13v-1c-1.621 0-3-3.283-3-5l-21.5 10c-1.426.713-6.5 1.764-6.5 4l1 5ZM348 49l-1 5c-10.085 0-18.437-13-29-13 0-1.076 1.523-5 3-5 6.787 0 14.662 6.081 20.5 9 1.426.713 6.5 1.764 6.5 4Z"/><path fill="#1F9D58" id="MOs5" d="M190 57c3.062 0 7.606-3.947 11.5-2l3.5 2c3.946 0 6.638-9 11-9v-1c0-8.119-15.958-7-21-7l-1 1c0 5.74-4 10.55-4 16Z"/><path fill="#3EA665" id="ACAd1" d="M233 66c-3.325 0-7.31 1-10 1V43l4-2c0 4.575 2.782-1 3-1l4 3c0 7.074-1 15.306-1 23Z"/><path fill="#1F9D58" id="MOs5" d="M251 58h1c0-6.77 13.1-1 15-1 0-5.513-6-11.662-6-17-5.575 0-20-.99-20 7 0 4.274 10 6.395 10 11Z"/><path fill="#1E9C5A" id="MOp5" d="M267 57c5.326 0 19.323 13 27 13 0-4.925-1-10.52-1-16-7.676 0-21.799-14-32-14 0 5.338 6 11.487 6 17Z"/><path fill="#197F61" id="SSp-ul2/3" d="M114 67h1c4.092 0 23.851-14 30-14l-6-12c-9.251 0-22.247 13-29 13 0 4.883 4 8.206 4 13Z"/><path fill="#1E9C5A" id="MOp5" d="M189 58c-9.487 0-17.171 12-27 12l2-16v-1c9.755 0 18.646-12 30-12 0 5.74-4 10.55-4 16l-1 1Z"/><path fill="#197F61" id="SSp-ul2/3" d="M341 67h2c0-2.21 2.194-12 4-12v-1c-10.085 0-18.437-13-29-13h-1c0 4.51-5 7.12-5 12 0 1.722 5.235 2.368 6.5 3 3.037 1.518 20.657 11 22.5 11Z"/><path fill="#40A565" id="ACAd2/3" d="m223 67-5 1-1-15c0-1.234.643-5-1-5v-1c1.417 0 6-2.383 6-4h1v24ZM233 67l6 1c0-6.967 1-14.681 1-21-2.053 0-4.792-4-6-4 0 7.074-1 15.306-1 23v1Z"/><path fill="#3EA566" id="ACAd5" d="M239 68c3.923 0 7.462 6 11 6 0-5.605 1-10.86 1-16 0-4.605-10-6.726-10-11h-1c0 6.319-1 14.033-1 21Z"/><path fill="#1C7F64" id="SSp-ll4" d="M164 54c-5.527 0-9.686 6-15 6l-4-7c6.798 0 12.863-5 20-5l-1 5v1Z"/><path fill="#3EA566" id="ACAd5" d="m218 68-11 5c0-4.504-2-9.733-2-14v-2c3.946 0 6.638-9 11-9 1.643 0 1 3.766 1 5l1 15Z"/><path fill="#1C7F64" id="SSp-ll4" d="M307 60h1l3-7c-6.735 0-12.834-5-20-5 0 2.72 2 3.553 2 6l14 6Z"/><path fill="#1B8062" id="SSp-un1" d="m90 60 3 4c3.347 0 9.434-5.467 12.5-7l3.5-3-1-5c-2.164 0-18 9.988-18 11ZM367 60l-4 4c-5.569 0-9.945-9-16-9v-1l1-5c2.131 0 19 10.311 19 11Z"/><path fill="#1A7F63" id="SSp-ul4" d="m115 67 2 8c9.668 0 21.242-14 32-14v-1l-4-7c-6.149 0-25.908 14-30 14ZM341 67c0 3.138-2 5.662-2 8l-31-15 3-7h1c0 1.722 5.235 2.368 6.5 3 3.037 1.518 20.657 11 22.5 11Z"/><path fill="#1C7F63" id="SSp-un2/3" d="M101 74h1l12-7c0-4.794-4-8.117-4-13h-1l-3.5 3c-3.066 1.533-9.153 7-12.5 7v1c2.565 0 8 6.456 8 9Z"/><path fill="#197C63" id="SSp-ll5" d="M162 71c-3.489 0-5.32 2-9 2l-4-12v-1c5.314 0 9.473-6 15-6l-2 16v1ZM295 71c2.885 0 4.697 2 8 2 1.817 0 4-10.87 4-13l-14-6c0 5.48 1 11.075 1 16l1 1Z"/><path fill="#1D9C5A" id="MOs6a" d="M187 79h2c0-1.638 3.576-2 5-2 0-3.718 7.255-18 11-18v-2l-3.5-2c-3.894-1.947-8.438 2-11.5 2l-1 1c0 6.98-2 13.316-2 21ZM263 77l6 2c0-7.894-2-14.92-2-22-1.9 0-15-5.77-15 1 0 4.056 10 11.87 10 19h1Z"/><path fill="#1C7F63" id="SSp-un2/3" d="M354 74h1c0-1.954 7.24-9 8-9v-1c-5.569 0-9.945-9-16-9-1.806 0-4 9.79-4 12 0 3.43 11 4.476 11 7Z"/><path fill="#1F9B5A" id="MOp6a" d="m190 57-1 1 1-1ZM269 79c8.942 0 16.958 9 26 9V71l-1-1c-7.677 0-21.674-13-27-13 0 7.08 2 14.106 2 22ZM167 87l-5 1V70c9.829 0 17.513-12 27-12 0 6.98-2 13.316-2 21-1.465 0-4-.109-4 2-1.424 0-5 .362-5 2-2.091 0-11 1.912-11 4Z"/><path fill="#3FA664" id="ACAd6a" d="M258 81h1c0-1.429 1.288-4 3-4 0-7.13-10-14.944-10-19h-1c0 5.14-1 10.395-1 16l8 7ZM194 77l4 4 9-7v-1c0-4.504-2-9.733-2-14-3.745 0-11 14.282-11 18Z"/><path fill="#197E63" id="SSp-n1" d="M49 111c1.714 0 3.482 2 6 2 0-9.475 20.046-36.273 27.5-40 2.698-1.35 6.457-8 10.5-8v-1l-3-4c-3.689 0-7.098 5.799-9.5 7-8.681 4.34-31.5 35.792-31.5 44Z"/><path fill="#187E62" id="SSp-ul5" d="M334 87h1c0-4.551 4-7.549 4-12l-31-15h-1c0 2.13-2.183 13-4 13v1c7.264 0 19.128 5.814 25.5 9l5.5 4Z"/><path fill="#197E63" id="SSp-n1" d="M407 111c-1.624 0-2.75 2-5 2-1.183 0-1.535-3.57-2-4.5-1.793-3.587-3.232-7.463-5-11-3.169-6.338-24.468-32.5-32-32.5v-1l4-4c4.789 0 7.366 6.933 11.5 9 6.777 3.389 28.5 32.167 28.5 42Z"/><path fill="#187E62" id="SSp-ul5" d="M117 76c1.534 0 5 9.467 5 11 3.604 0 23.216-13 31-13v-1l-4-12c-10.758 0-22.332 14-32 14v1Z"/><path fill="#1B7F64" id="SSp-n2/3" d="m55 114 8 6c0-10.407 15.156-29.656 22.5-37 3.302-3.302 7.156-5.078 11-7 .93-.465 4.5-.817 4.5-2 0-2.544-5.435-9-8-9-4.043 0-7.802 6.65-10.5 8-7.454 3.727-27.5 30.525-27.5 40v1ZM393 120h1l8-6v-1c-1.183 0-1.535-3.57-2-4.5-1.793-3.587-3.232-7.463-5-11-3.169-6.338-24.468-32.5-32-32.5-.76 0-8 7.046-8 9 0 1.15 4.516 1.508 5.5 2 3.775 1.887 6.679 3.679 10 7 7.692 7.692 22.5 26.327 22.5 37Z"/><path fill="#40A664" id="ACAv1" d="m229 91 5 6c0-9.624-1-19.833-1-30v-1c-3.325 0-7.31 1-10 1 0 10.42-1 21.17-1 31l5-7c0-4.252 2-4.466 2 0Z"/><path fill="#197E61" id="SSp-un4" d="m117 76-10 5c-1.001 0-5-6.033-5-7l12-7h1l2 8v1Z"/><path fill="#3FA566" id="ACAv2/3" d="m222 99-3 1c0-9.866-1-21.451-1-32l5-1c0 10.42-1 21.17-1 31v1ZM234 99l4 1 1-32-6-1c0 10.167 1 20.376 1 30v2Z"/><path fill="#197E61" id="SSp-un4" d="M339 75c3.736 0 7.086 6 11 6l4-7c0-2.524-11-3.57-11-7h-2c0 3.138-2 5.662-2 8Z"/><path fill="#3EA666" id="ACAv5" d="M210 98c3.157 0 5.481 2 9 2 0-9.866-1-21.451-1-32l-11 5v1c0 8.332 3 15.455 3 23v1ZM246 98c-2.522 0-4.909 2-8 2l1-32c3.923 0 7.462 6 11 6 0 7.611-3 15.3-3 23l-1 1Z"/><path fill="#1A7F64" id="SSp-ll6a" d="m162 88-4 2-5-16v-1c3.68 0 5.511-2 9-2v17ZM298 90h1c0-5.66 4-10.584 4-16v-1c-3.303 0-5.115-2-8-2v18l3 1Z"/><path fill="#1A8062" id="SSp-n4" d="m63 120 6 4 5-9.5c4.005-8.011 22.473-32.5 33-32.5v-1c-1.001 0-5-6.033-5-7h-1c0 1.183-3.57 1.535-4.5 2-3.844 1.922-7.698 3.698-11 7-7.344 7.344-22.5 26.593-22.5 37Z"/><path fill="#197D61" id="SSp-ul6a" d="M143 97c-5.394 0-9.833 5-15 5 0-5.276-6-9.778-6-15 3.604 0 23.216-13 31-13l5 16v1c-1.238 0-3 .423-3 2-2.383 0-12 1.535-12 4Z"/><path fill="#40A564" id="ACAv6a" d="m208 96 2 1c0-7.545-3-14.668-3-23l-9 7v1l2 2.5c1.412 2.823 8 9.142 8 11.5ZM249 95l-2 2c0-7.7 3-15.389 3-23l8 7-1 4c-2.109 0-2 2.534-2 4l-6 6Z"/><path fill="#197D61" id="SSp-ul6a" d="M299 90c0 3.18 4.87 2.185 6.5 3l22.5 9c.978 0 6-13.199 6-15l-5.5-4c-6.372-3.186-18.236-9-25.5-9 0 5.416-4 10.34-4 16Z"/><path fill="#1A8062" id="SSp-n4" d="M393 120c0 1.028-4.666 4-6 4 0-7.807-19.631-32.066-27.5-36-3.055-1.528-5.942-6-9.5-6v-1l4-7h1c0 1.15 4.516 1.508 5.5 2 3.775 1.887 6.679 3.679 10 7 7.692 7.692 22.5 26.327 22.5 37Z"/><path fill="#197D62" id="SSp-un5" d="m335 87 9 5c0-1.301 4.946-10 6-10v-1c-3.914 0-7.264-6-11-6 0 4.451-4 7.449-4 12ZM122 87l-9 4c-1.848 0-6-6.98-6-9v-1l10-5c1.534 0 5 9.467 5 11Z"/><path fill="#1E9C58" id="MOs6b" d="M189 79h5v-2c-1.424 0-5 .362-5 2Z"/><path fill="#3FA466" id="ACAd6b" d="M197 82h1v-1l-4-4v2c1.539 0 3 1.341 3 3ZM263 79l-4 2c0-1.429 1.288-4 3-4h1v2Z"/><path fill="#1E9C58" id="MOs6b" d="M269 79v1l-6-1v-2l6 2Z"/><path fill="#1D9D5A" id="MOp6b" d="M187 80c0 1.58-2.855 1-4 1 0-2.109 2.535-2 4-2v1Z"/><path fill="#1E9C58" id="MOs6b" d="m189 79-2 1v-1h2Z"/><path fill="#CACCC7" id="cing" d="M210 97v1c-9.055 0-11.099-9.3-18.5-13-6.937-3.469-14.555 4-20.5 4l-1 1h-8v-1c1.424 0 5-.362 5-2 2.091 0 11-1.912 11-4 1.424 0 5-.362 5-2 1.145 0 4 .58 4-1l2-1h5c1.539 0 3 1.341 3 3 0 3.308 7.25 14 11 14l2 1ZM247 97l-1 1c9.467 0 12.177-9.339 19.5-13 6.637-3.319 14.002 4 19.5 4l1 1h8c0-1.183-3.57-1.535-4.5-2l-15-6c-.984-.492-5.5-.85-5.5-2l-6-1-4 2-2 4c0 1.466.109 4-2 4 0 2.473-3.527 6-6 6l-2 2Z"/><path fill="#1D9D5A" id="MOp6b" d="M294 90h1v-2c-9.042 0-17.058-9-26-9v1c0 1.15 4.516 1.508 5.5 2l15 6c.93.465 4.5.817 4.5 2ZM183 81c-1.424 0-5 .362-5 2 1.424 0 5-.362 5-2Z"/><path fill="#40A465" id="ACAv6b" d="m259 81-2 4 1-4h1Z"/><path fill="#197E62" id="SSp-n5" d="M77 131h1l4-8.5c7.121-14.243 11.823-20.162 26.5-27.5 1.978-.99 2.023-3 4.5-3v-1c-1.848 0-6-6.98-6-9-10.527 0-28.995 24.489-33 32.5l-5 9.5v1l8 6Z"/><path fill="#40A465" id="ACAv6b" d="m198 82 2 2.5c1.412 2.823 8 9.142 8 11.5-3.75 0-11-10.692-11-14h1Z"/><path fill="#197E62" id="SSp-n5" d="M378 131h1l8-6v-1c0-7.807-19.631-32.066-27.5-36-3.055-1.528-5.942-6-9.5-6-1.054 0-6 8.699-6 10l7.5 5c10.587 5.294 26.5 21.504 26.5 34Z"/><path fill="#1D9D5A" id="MOp6b" d="M178 83c-2.091 0-11 1.912-11 4 2.091 0 11-1.912 11-4Z"/><path fill="#C9C7C9" id="ccb" d="m88 156-1 5 5-8.5 7-14c2.427-4.855 7.606-8.211 10-13l6-5c15.519-15.519 29.408-17.5 50-17.5 0-9.84 27-11.127 27-6h1l2 2h1c1.178 0 6 2.572 6 4h2l18 5h13l17-5h2l1-1 2-1h1l1-1 2-1 1-1 2-1c0-1.638 3.576-2 5-2 0-1.735 6.51-1 8-1 4.639 0 14 3.493 14 9 13.295 0 23.761.13 35.5 6 5.483 2.742 10.214 9.607 15 12l7.5 6.5c4.411 8.822 11.64 16.28 16 25l4 7.5-1-5-1-1v-2l-2-4v-1c-1.577 0-2-1.762-2-3v-1c-2.021 0-6.096-9.691-7-11.5-4.428-8.856-16.937-20.219-25.5-24.5-10.199-5.1-21.771-6.885-32-12-1.849-.924-11.5-2.533-11.5-5h-1l-1-1c-5.498 0-12.863-7.319-19.5-4-7.323 3.661-10.033 13-19.5 13-2.522 0-4.909 2-8 2l-4-1h-12l-3 1c-3.519 0-5.843-2-9-2-9.055 0-11.099-9.3-18.5-13-6.937-3.469-14.555 4-20.5 4l-1 1h-1l-7.5 4c-8.202 4.1-17.875 4.938-26 9-7.303 3.651-14.754 6.754-21 13l-9.5 9c0 1.626-4.11 8-6 8 0 1.572-2.052 7-4 7l-1 2-1 2v1c0 1.238-.423 3-2 3v1l-1 2v1l-1 1v2l-1 1Z"/><path fill="#40A465" id="ACAv6b" d="M257 85c-2.109 0-2 2.534-2 4 2.109 0 2-2.534 2-4Z"/><path fill="#1A7F61" id="SSp-un6a" d="M120 107h1l4-2 3-2v-1c0-5.276-6-9.778-6-15l-9 4v1l7 15Z"/><path fill="#1D9D5A" id="MOp6b" d="M162 88v1c1.424 0 5-.362 5-2l-5 1Z"/><path fill="#1A7F61" id="SSp-un6a" d="M335 107h1c0-5.968 8-9.301 8-15l-9-5h-1c0 1.801-5.022 15-6 15v1c1.301 0 7 2.496 7 4Z"/><path fill="#197F62" id="SSp-ll6b" d="M158 91h1l3-1v-2l-4 2v1Z"/><path fill="#C9C9CA" id="scwm" d="m171 89-1 1 1-1Z"/><path fill="#40A465" id="ACAv6b" d="m255 89-6 6c2.473 0 6-3.527 6-6Z"/><path fill="#C9C9CA" id="scwm" d="m285 89 1 1-1-1Z"/><path fill="#197F62" id="SSp-ll6b" d="M298 90v1l-3-1v-1l3 1Z"/><path fill="#C9C9CA" id="scwm" d="M105 124v1l9.5-9c6.246-6.246 13.697-9.349 21-13 8.125-4.063 17.798-4.9 26-9l7.5-4h-7l-3 1-4 2c0 1.616-9.991 4-12 4 0 1.981-11.978 6-14 6 0 2.109-2.535 2-4 2l-4 3-2 1c0 2.627-8.035 8.535-10.5 11l-3.5 3v1ZM352 124c0 3.815 11 12.563 11 19-2.021 0-6.096-9.691-7-11.5-4.428-8.856-16.937-20.219-25.5-24.5-10.199-5.1-21.771-6.885-32-12-1.849-.924-11.5-2.533-11.5-5h8l3 1c0 2.821 4.742 2.242 6 3.5.445.445 22.093 8.5 23 8.5l8 5 4 3.5 13 12.5Z"/><path fill="#1C8064" id="SSp-ul6b" d="M327 103h1v-1l-22.5-9c-1.63-.815-6.5.18-6.5-3h-1v1c0 2.821 4.742 2.242 6 3.5.445.445 22.093 8.5 23 8.5ZM159 91l-4 2c0-1.577 1.762-2 3-2h1Z"/><path fill="#7ED04B" id="IG" d="M222 99h12v-2l-5-6c0 1.93-1.161 0-2 0l-5 7v1Z"/><path fill="#187D62" id="SSp-n6a" d="M78 131h1c0-2.569 7.673-.587 10.5-2 1.505-.752 12.5-6.118 12.5-4h1v-1l2-1c0-3.176 10.824-14 14-14l1-2-7-15c-2.477 0-2.522 2.01-4.5 3-14.677 7.338-19.379 13.257-26.5 27.5l-4 8.5ZM355 125c6.189 0 14.245 6 23 6 0-12.496-15.913-28.706-26.5-34l-7.5-5c0 5.699-8 9.032-8 15l17 17 2 1Z"/><path fill="#1C8064" id="SSp-ul6b" d="M155 93c-2.383 0-12 1.535-12 4 2.009 0 12-2.384 12-4Z"/><path fill="#AAA8A9" id="SEZ" d="m165 103 4 2c0-2.385-1.351-2.798 0-5.5 1.317-2.635 14.154-6.173 17.5-4.5l5.5 2c0-5.127-27-3.84-27 6ZM291 103l-3 2 1-3.5c-3.094-6.188-13.9-6.5-20-6.5 0-1.735 6.51-1 8-1 4.639 0 14 3.493 14 9Z"/><path fill="#A8AAAA" id="VL" fill-rule="evenodd" d="m188 123-1 1.5c-1.827 1.827-6.791 20.855-3.5 22.5.725.363 3.042-3.585 3.5-4.5 1.932-3.864 8.727-19.5 1-19.5m4 50h1v-4c-4.156 0-7.557-6.614-9-9.5l.5-3.5.5 2.5 8 8.5v-2c0-3.541-3-6.145-3-10l-1-8.5 3-8.5 1-7c0-9.881 10-17.75 10-27v-1h-1c-1.178 0-6-2.572-6-4h-1l-2-2h-1l-5.5-2c-3.346-1.673-16.183 1.865-17.5 4.5-1.351 2.702 0 3.115 0 5.5l10 17.5c3.271 6.541 2 16.672 2 24.5v9.5l4 9.5 6 6 1 1Z"/><path fill="#AAA8A9" id="SEZ" d="M269 95c-1.424 0-5 .362-5 2 1.424 0 5-.362 5-2Z"/><path fill="#A8AAAA" id="VL" fill-rule="evenodd" d="M265 123c0 4.367 4.252 24 7.5 24l.5-8c0-5.859-.188-16-8-16m-1 49h1l6-6 1-1 1-1c0-5.365 3-10.319 3-16 0-15.331.151-20.803 7-34.5.729-1.459 3.297-8.5 5-8.5l1-3.5c-3.094-6.188-13.9-6.5-20-6.5 0 1.638-3.576 2-5 2l-2 1-1 1-2 1-1 1h-1l-2 1-1 1-1 1c0 7.281 10 17.19 10 28 .675 0 2 5.294 2 6 0 2.613.93 4.36 2 6.5l-1 11.5-2 8v2l7-7.5 1.5-3.5.5 3.5c-1.494 2.988-4.67 10.5-9 10.5v3Z"/><path fill="#1C8064" id="SSp-ul6b" d="M128 103h1c2.022 0 14-4.019 14-6-5.394 0-9.833 5-15 5v1Z"/><path fill="#AAA8A9" id="SEZ" d="m193 97 2 2-2-2ZM264 97l-2 1 2-1ZM262 98l-1 1 1-1ZM196 99c1.178 0 6 2.572 6 4-1.178 0-6-2.572-6-4ZM261 99l-2 1 2-1ZM259 100l-1 1 1-1ZM257 101l-2 1 2-1Z"/><path fill="#98D5F9" id="CP" d="M97 223c3.659 0 9.192 12 18 12 0-1.579 2.855-1 4-1l10.5-4c6.275-3.138 14.287-13 21.5-13l1-1 1-1v-1l1-1 1-2c0-6.243 2-12.031 2-17.5 0-1.363-.7-6.5 1-6.5 0-1.048-.473-3 1-3v-1l1-2 3-3c0-2.389 1-5.987 1-9v-1c-1.587 0-1.587-6 0-6 0-1.048-.473-3 1-3l1-1c0-2.439 7.862-2.181 9.5-3l5.5-8c0-7.828 1.271-17.959-2-24.5L169 105l-4-2c-20.592 0-34.481 1.981-50 17.5l-6 5c-2.394 4.789-7.573 8.145-10 13l-7 14-5 8.5v1l-1 2-1 2v2l-1 1v2l-1 1v13c1.175 0 2 5.704 2 7v1l2 4v2l1 1v1l1 2v1c1.014 0 2 3.959 2 5v1c1.577 0 2 1.762 2 3v1l2 4v1c1.577 0 2 1.762 2 3v1ZM351 232c-3.391 0-5.353 3-9 3-13.987 0-29.223-19-38-19l-1-3c0-4.511-3-11.509-3-16.5 0-1.278.665-5.5-1-5.5v-1c0-1.774.273-7-2-7v-1l-2-2-2-2v-15l-2-5c0-1.946-7.983-2.241-9.5-3-1.949-.974-4.77-7-5.5-7 0-15.331.151-20.803 7-34.5.729-1.459 3.297-8.5 5-8.5l3-2c13.295 0 23.761.13 35.5 6 5.483 2.742 10.214 9.607 15 12l7.5 6.5c4.411 8.822 11.64 16.28 16 25l4 7.5v1l2 4v2l1 1v1l1 1v17c-1.579 0-1 2.855-1 4l-1 2v1l-2 4v2l-1 2-1 2v1c-1.638 0-2 3.576-2 5v1l-1 1-1 2v1l-1 2-1 2v1l-1 1-1 2-8 9Z"/><path fill="#1A7D63" id="SSp-un6b" d="M129 103c0 2.109-2.535 2-4 2l3-2h1Z"/><path fill="#AAA8A9" id="SEZ" d="m204 103-1 1v-1h1Z"/><path fill="#90CBEC" id="LSc" d="M193 131c1.087 0 2.433 2 5 2 4.918 0 25-17.187 25-22l-1-3-18-5-1 1c0 9.25-10 17.119-10 27ZM263 132l-4 1c-5.637 0-26-18.137-26-23v-1h1l1-1 17-5 1 1c0 7.281 10 17.19 10 28Z"/><path fill="#AAA8A9" id="SEZ" d="m254 103-1 1-1-1h2Z"/><path fill="#1A7D63" id="SSp-un6b" d="M335 107v1l-8-5h1c1.301 0 7 2.496 7 4ZM121 107v1l4-3-4 2Z"/><path fill="#1B7E64" id="SSp-n6b" d="m121 108-2 1 1-2h1v1Z"/><path fill="#CBC8CC" id="df" d="M227 111c.839 0 2-1.93 2 0l4-2h1v-1h-11l4 3Z"/><path fill="#1B7E64" id="SSp-n6b" d="M352 124h1l-17-17h-1v1l4 3.5 13 12.5Z"/><path fill="#97D6F9" id="STR" d="m227 111-1 1c0-1.473-1.952-1-3-1l-1-3h1l4 3ZM235 108l-1 1v-1h1Z"/><path fill="#1B7E64" id="SSp-n6b" d="M119 109c-3.176 0-14 10.824-14 14l3.5-3c2.465-2.465 10.5-8.373 10.5-11Z"/><path fill="#97D6F9" id="STR" d="m229 111 1 1 3-2v-1l-4 2Z"/><path fill="#8FCBEC" id="SF" d="M200 166c0-8.227 11.248-29.374 18.5-33 2.717-1.358 6.931-7.534 12-5 12.606 6.303 25.5 23.382 25.5 39 3.863 0 6.505-3 8-3l2-8c-1.602 0-2.384 3.058-4.5 2-8.254-4.127-.918-9.918-4-13-2.737-2.737-11.154-3.808-12.5-6.5-.685-1.369-2.514-7.5 1-7.5l-5.5-4c-2.928-2.928-10.5-11.05-10.5-15l-1-1c0-1.93-1.161 0-2 0l-1 1c0 2.374-7.36 13.93-9.5 15l-6.5 4c1.943 0 3.906 3.688 3 5.5-2.33 4.66-8.776 4.638-12.5 6.5-6.026 3.013 2.384 11.308-5 15-3.269 1.634-3.957-3-5.5-3 0 3.855 3 6.459 3 10 .698 0 7 4.237 7 1Z"/><path fill="#90CAED" id="LSr" d="M259 133v2c-4.585 0-7.957-4-13-4l-5.5-4c-2.928-2.928-10.5-11.05-10.5-15l3-2c0 4.863 20.363 23 26 23Z"/><path fill="#1A7E62" id="SSs1" d="M36 176h5c0-16.104 1.277-34.054 8-47.5 1.04-2.081 3.579-14.5 6-14.5v-1c-2.518 0-4.286-2-6-2l-8 21.5c-4.16 8.319-5 32.791-5 43.5Z"/><path fill="#90CAED" id="LSr" d="m198 133-1 2c4.585 0 7.957-4 13-4l6.5-4c2.14-1.07 9.5-12.626 9.5-15 0-1.473-1.952-1-3-1 0 4.813-20.082 22-25 22Z"/><path fill="#1A7E62" id="SSs1" d="M415 176h5c0-7.526-.484-33.468-3-38.5-1.488-2.976-10-24.427-10-26.5-1.624 0-2.75 2-5 2v1c0 4.095 6.899 18.297 9 22.5 3.9 7.801 4 29.363 4 39.5Z"/><path fill="#1B8063" id="SSs2/3" d="M41 176h8c0-8.979 2.453-29.407 6-36.5.827-1.655 8-19.018 8-19.5l-8-6c-2.421 0-4.96 12.419-6 14.5-6.723 13.446-8 31.396-8 47.5ZM407 176h8c0-10.137-.1-31.699-4-39.5-2.101-4.203-9-18.405-9-22.5l-8 6 7 18.5c4.536 9.072 6 26.376 6 37.5Z"/><path fill="#187C63" id="SSs4" d="m55 175-6 1c0-8.979 2.453-29.407 6-36.5.827-1.655 8-19.018 8-19.5l6 4v1c-2.253 0-4.115 8.73-5 10.5-5.82 11.639-9 25.509-9 39.5ZM402 175l5 1c0-11.124-1.464-28.428-6-37.5l-7-18.5h-1c0 1.028-4.666 4-6 4v1c3.085 0 4.938 10.375 6 12.5 5.309 10.618 9 24.922 9 37.5Z"/><path fill="#1B7E64" id="SSp-n6b" d="M103 124h2v-1l-2 1Z"/><path fill="#A9AAA8" id="chpl" d="m188 123-1 1.5c-1.827 1.827-6.791 20.855-3.5 22.5.725.363 3.042-3.585 3.5-4.5 1.932-3.864 8.727-19.5 1-19.5ZM265 123c0 4.367 4.252 24 7.5 24l.5-8c0-5.859-.188-16-8-16Z"/><path fill="#187D61" id="SSp-m6a" d="M95 137c-1.477 0-3 3.924-3 5-.715 0-13-9.31-13-11 0-2.569 7.673-.587 10.5-2 1.505-.752 12.5-6.118 12.5-4 0 4-7 7.136-7 12Z"/><path fill="#188064" id="SSp-m6b" d="M103 125h2v-1h-2v1ZM363 143h2v-1c-1.845 0-1.441-3.381-2-4.5-1.914-3.828-8-8.076-8-12.5l-2-1h-1c0 3.815 11 12.563 11 19Z"/><path fill="#187D61" id="SSp-m6a" d="M378 131c0 4.756-13 7.18-13 11-1.845 0-1.441-3.381-2-4.5-1.914-3.828-8-8.076-8-12.5 6.189 0 14.245 6 23 6Z"/><path fill="#1C8063" id="SSs5" d="M55 175h12c0-6.842 3.343-29.185 6-34.5 1.574-3.148 4-5.683 4-9.5l-8-6c-2.253 0-4.115 8.73-5 10.5-5.82 11.639-9 25.509-9 39.5Z"/><path fill="#188064" id="SSp-m6b" d="m99 133-4 4c0-4.864 7-8 7-12h1l-4 8Z"/><path fill="#C9C9CA" id="scwm" d="M105 125c0 1.626-4.11 8-6 8l4-8h2Z"/><path fill="#1C8063" id="SSs5" d="M389 175h13c0-12.578-3.691-26.882-9-37.5-1.062-2.125-2.915-12.5-6-12.5l-8 6 4 8.5c3.344 6.689 6 27.001 6 35.5Z"/><path fill="#96A7D2" id="TRS" d="m200 166 4.5 2c2.474 1.237 14.586-3.793 17-5l7-3c9.068 4.534 17.574 7 27.5 7 0-15.618-12.894-32.697-25.5-39-5.069-2.534-9.283 3.642-12 5-7.252 3.626-18.5 24.773-18.5 33Z"/><path fill="#197D63" id="SSs6a" d="M67 175c4.607 0 10.052 1 14 1 0-7.73 4.647-18.795 8-25.5.77-1.542.465-7.5 3-7.5v-1c-.715 0-13-9.31-13-11h-2c0 3.817-2.426 6.352-4 9.5-2.657 5.315-6 27.658-6 34.5Z"/><path fill="#97D6F9" id="STR" d="m197 135-5 3 1-7c1.087 0 2.433 2 5 2l-1 2Z"/><path fill="#CBC8CB" id="fi" d="m192 138-3 8.5 1 8.5c1.543 0 2.231 4.634 5.5 3 7.384-3.692-1.026-11.987 5-15 3.724-1.862 10.17-1.84 12.5-6.5.906-1.812-1.057-5.5-3-5.5-5.043 0-8.415 4-13 4l-5 3ZM265 138c0 2.613.93 4.36 2 6.5l-1 11.5c-1.602 0-2.384 3.058-4.5 2-8.254-4.127-.918-9.918-4-13-2.737-2.737-11.154-3.808-12.5-6.5-.685-1.369-2.514-7.5 1-7.5 5.043 0 8.415 4 13 4l6 3Z"/><path fill="#197D63" id="SSs6a" d="M375 175h14c0-8.499-2.656-28.811-6-35.5l-4-8.5h-1c0 4.756-13 7.18-13 11v1c0 6.147 10 23.082 10 32Z"/><path fill="#97D6F9" id="STR" d="m259 135 6 3c0-.706-1.325-6-2-6l-4 1v2Z"/><path fill="#C9C9CA" id="scwm" d="M95 137v3c1.948 0 4-5.428 4-7l-4 4Z"/><path fill="#188064" id="SSp-m6b" d="M92 143h1l1-1 1-2v-3c-1.477 0-3 3.924-3 5v1Z"/><path fill="#C9C9CA" id="scwm" d="m95 140-1 2 1-2ZM93 143v1l1-2-1 1Z"/><path fill="#1A8061" id="SSs6b" d="M81 176h2v-4l1-1v-2l1-1v-2l1-2 1-2v-1l1-5 1-1v-2l1-1v-1l1-2v-1c0-1.238.423-3 2-3v-2h-1c-2.535 0-2.23 5.958-3 7.5-3.353 6.705-8 17.77-8 25.5ZM375 175v1l-2-1v-5l-1-1v-1l-1-1v-2l-2-4v-1l-1-5-1-1v-2l-2-4v-1c0-1.238-.423-3-2-3v-1h2c0 6.147 10 23.082 10 32Z"/><path fill="#C9C9CA" id="scwm" d="M363 144c1.577 0 2 1.762 2 3-1.577 0-2-1.762-2-3ZM93 145c-1.577 0-2 1.762-2 3 1.577 0 2-1.762 2-3Z"/><path fill="#97D6F9" id="STR" d="m176 165-3 1c0-2.573-4.107-8-7-8 0-2.439 7.862-2.181 9.5-3l5.5-8v9.5l4 9.5-3-2-4.5-2-1.5 3ZM284 165l-1 1-3-1c0-3.736-5-3.297-5-1h-2c0-5.365 3-10.319 3-16 .73 0 3.551 6.026 5.5 7 1.517.759 9.5 1.054 9.5 3-3.335 0-7 3.736-7 7Z"/><path fill="#C9C9CA" id="scwm" d="m365 148 2 4-2-4ZM91 149l-1 2 1-2ZM90 152l-1 1 1-1ZM367 154l1 1-1-1ZM89 155l-1 1 1-1Z"/><path fill="#A9AAA8" id="chpl" d="m264 166 7-7.5 1.5-3.5.5 3.5c-1.494 2.988-4.67 10.5-9 10.5-2.373 0 0-2.284 0-3ZM193 167l-8-8.5-.5-2.5-.5 3.5c1.443 2.886 4.844 9.5 9 9.5v-2Z"/><path fill="#97D6F9" id="STR" d="m166 158-1 1 1-1Z"/><path fill="#CCC" d="m168 178 5 11.5V200l2.5 5c1.936 0 .99-5.481 1.5-6.5 5.563-11.127-4-24.084-4-32.5 0-2.573-4.107-8-7-8l-1 1c-1.473 0-1 1.952-1 3v7c.092 0 4 8.167 4 9ZM289 178c-4.313 0-6 17.906-6 22l-1 1.5v3c-1.09 2.18-3.655-8.311-4-9l1-18.5c1.605 0 4-9.295 4-11l1-1c0-3.264 3.665-7 7-7l2 5c-.156 0-4 13.741-4 15Z"/><path fill="#A8A9AA" id="V3" d="m230 225-1 1c0 4.347-2 2.153-2-1l-1-1v-1l-1-6-1-1v-14c1.643 0 1-3.765 1-5 0-5.175-.398-21-7-21h-9l-9-1h-1c-2.483 0-4.026-2-6-2v-8c.698 0 7 4.237 7 1l4.5 2c2.474 1.237 14.586-3.793 17-5l7-3c9.068 4.534 17.574 7 27.5 7 3.863 0 6.505-3 8-3v2c0 .716-2.373 3 0 3v4c-1.238 0-3 .423-3 2h-5l-8 1h-9c-6.44 0-8 16.197-8 21 0 1.296.825 7 2 7v9c-1.473 0-1 1.952-1 3l-2 8v1Z"/><path fill="#C9C7C9" id="ccb" d="m369 161 2 4-2-4ZM87 162l-1 2 1-2Z"/><path fill="#97D6F9" id="STR" d="M164 162c-1.587 0-1.587 6 0 6v-6Z"/><path fill="#C8CBC7" id="st" d="M179 179v3l3.5 3c7.265-3.632-.5-17.73-.5-21l-4.5-2-1.5 3v4l1 2 1 7 1 1ZM277 180v3l-3.5 2c-7.915-3.957 1.5-20.067 1.5-21 0-2.297 5-2.736 5 1v6l-1 2v3l-1 1v2l-1 1Z"/><path fill="#97D6F9" id="STR" d="M289 178h4v-15c-.156 0-4 13.741-4 15Z"/><path fill="#C9C7C9" id="ccb" d="m86 164-1 2 1-2Z"/><path fill="#B3C0DE" id="BST" d="M196 235h3l2-1 1-1h1l2-2c0-2.883.409-6 4-6l1-8.5-4-8.5-1-4v-1c-2.064 0-.426-3.353-1-4.5l-5-17.5c-.743 0-6-7.186-6-8h-1l-1-1-6-6-3-2c0 3.27 7.765 17.368.5 21l-3.5-3c0 2.128 1.457 10.586 1 11.5-2.078 4.156-3 13.864-3 18.5l-1 2c0 4.076 2 7.795 2 11h1l1 1c3.398 0 5.13 7 9 7 2.583 0 3.934 2 7 2Z"/><path fill="#97D6F9" id="STR" d="m273 164-1 1 1-1Z"/><path fill="#B3C0DE" id="BST" d="M257 235h3c2.833 0 4.84-2 7-2 4.481 0 6.587-8 11-8 0-2.147 2-7.689 2-12v-1l-1-1c0-9.044-2-18.119-2-28l-3.5 2c-7.915-3.957 1.5-20.067 1.5-21h-2l-1 1-1 1-6 6-1 1c0 1.577-1.762 2-3 2 0 1.238-1.923 5-3 5 0 6.478-5 12.236-5 19.5 0 .822-1.213 5.5-2 5.5v3l-4 6.5c-1.514 3.028 1 7.882 1 10.5 3.121 0 4 3.347 4 6l1 2h1l3 2Z"/><path fill="#8599CC" id="PAL" d="M151 219c6.205 0 20-18.583 20 0 3.989 0 3.123-5 5-5l1-2c0-4.636.922-14.344 3-18.5.457-.914-1-9.372-1-11.5v-3l-1-1-1-7-1-2v-4l-3 1c0 8.416 9.563 21.373 4 32.5-.51 1.019.436 6.5-1.5 6.5l-2.5-5c0 9.168-15 18.064-15 3-1.987 0-.499 8-3 8l-1 2-1 1v1l-1 1-1 1v2Z"/><path fill="#97D6F9" id="STR" d="m272 165-1 1 1-1Z"/><path fill="#8599CC" id="PAL" d="M279 176v1c1.605 0 4-9.295 4-11l-3-1v2c1.399 0 1.399 2 0 2v2l-1 2v3ZM284 165l-1 1 1-1Z"/><path fill="#B3C0DE" id="BST" d="M280 167c1.399 0 1.399 2 0 2v-2Z"/><path fill="#C9C7C9" id="ccb" d="m371 167 1 1-1-1ZM85 168l-1 1 1-1Z"/><path fill="#97D6F9" id="STR" d="M163 178h5c0-.833-3.908-9-4-9 0 3.013-1 6.611-1 9Z"/><path fill="#B3C0DE" id="BST" d="m176 169 1 2-1-2Z"/><path fill="#C9C7C9" id="ccb" d="m372 169 1 1-1-1ZM84 171l-1 1 1-1Z"/><path fill="#B3C0DE" id="BST" d="m280 171-1 2 1-2Z"/><path fill="#11AC82" id="VISC4" d="m55 189-3 1c0-4.512-3-8.873-3-14l6-1v14Z"/><path fill="#12AD82" id="VISC5" d="M68 184c-4.607 0-8.242 4-13 4v-13h12l1 9Z"/><path fill="#11AC83" id="VISC6a" d="m81 181-13 3-1-9c4.607 0 10.052 1 14 1v5Z"/><path fill="#CAC7CB" id="fiber tracts" d="M205 195v8c-2.064 0-.426-3.353-1-4.5l-5-17.5v-6h1c0 6.857 5 13.486 5 20Z"/><path fill="#CCC9C8" id="sm" d="m211 191-6 4c0-6.514-5-13.143-5-20l9 1c0 5.335 2 9.984 2 14v1ZM245 191c2.734 0 4.039 5 7 5 0-7.41 4-13.477 4-21l-8 1c0 4.858-3 10.501-3 14v1Z"/><path fill="#CAC7CB" id="fiber tracts" d="m252 196-1 9c.787 0 2-4.678 2-5.5 0-7.264 5-13.022 5-19.5v-5h-2c0 7.523-4 13.59-4 21Z"/><path fill="#11AD82" id="VISC6b" d="M374 181h1v-5l-2-1v2c1.579 0 1 2.855 1 4Z"/><path fill="#11AC83" id="VISC6a" d="M375 181c4.451 0 9.205 3 14 3v-9h-14v6Z"/><path fill="#12AD82" id="VISC5" d="M389 184c4.075 0 7.708 4 12 4 0-3.629 1-8.716 1-13h-13v9Z"/><path fill="#11AC82" id="VISC4" d="M404 190h1c0-5.002 2-8.614 2-14l-5-1c0 4.284-1 9.371-1 13v1c1.048 0 3-.473 3 1Z"/><path fill="#12AD83" id="VISC1" d="m45 194-4 2c-2.087 0-5-17.096-5-20h5c0 2.977 1.72 17 4 17v1Z"/><path fill="#12AC83" id="VISC2/3" d="m52 190-7 3c-2.28 0-4-14.023-4-17h8c0 5.127 3 9.488 3 14Z"/><path fill="#11AD82" id="VISC6b" d="M81 181h2v-5h-2v5Z"/><path fill="#FF6F80" id="TH" d="M215 190v1l-4-1c0-4.016-2-8.665-2-14h9l-1 4c-2.24 0-1.703-4.399-4.5-3-3.414 1.707-1.966 13 2.5 13Z"/><path fill="#FE8F9E" id="PVT" d="M221 200h2l1-1 1-2c0-5.175-.398-21-7-21l-1 4v1l1 2v2l1 2v2l1 1 1 10ZM234 200h1l1-1 1-11c0-1.041.986-5 2-5v-7c-6.44 0-8 16.197-8 21l2 3h1Z"/><path fill="#FF6F80" id="TH" d="M243 190h2c0-3.499 3-9.142 3-14h-9v5l3.5-4c1.902-.951 2.5 3.784 2.5 5 0 3.015-2 6.004-2 8Z"/><path fill="#B3C0DE" id="BST" d="M278 177h1v-1l-1 1Z"/><path fill="#12AC83" id="VISC2/3" d="m405 190 7 4c0-5.605 3-11.36 3-18h-8c0 5.386-2 8.998-2 14Z"/><path fill="#12AD83" id="VISC1" d="m412 194 4 2c0-4.005 4-13.374 4-20h-5c0 6.64-3 12.395-3 18Z"/><path fill="#FF909F" id="PT" d="M217 187c-1.577 0-2 1.762-2 3-4.466 0-5.914-11.293-2.5-13 2.797-1.399 2.26 3 4.5 3v1l1 2v2l-1 2ZM241 189l2 1c0-1.996 2-4.985 2-8 0-1.216-.598-5.951-2.5-5l-3.5 4v6c1.747 0 2 .253 2 2Z"/><path fill="#8599CC" id="PAL" d="M285 219c0-19.781 15.731 1 21 1l-2-4-1-3c-3.403 0-1.851-8-4-8 0 7.453-6.062 6.719-11.5 4-2.657-1.328-2.689-9-4.5-9l-1 1.5v3c-1.09 2.18-3.655-8.311-4-9l1-18.5h-1v2l-1 1v3c0 9.881 2 18.956 2 28l1 1v1c1.93 0 1.151 6 5 6Z"/><path fill="#C8CBCC" id="ec" d="M374 181c0 1.048.473 3-1 3v-7c1.579 0 1 2.855 1 4Z"/><path fill="#8598CC" id="GPe" d="M173 200c0 9.168-15 18.064-15 3v-16c1.473 0 1-1.952 1-3v-1l1-2 3-3h5l5 11.5V200Z"/><path fill="#B3C0DE" id="BST" d="m178 178 1 1-1-1Z"/><path fill="#8598CC" id="GPe" d="M283 200c1.811 0 1.843 7.672 4.5 9 5.438 2.719 11.5 3.453 11.5-4v-15c-.853 0-2-6.031-2-7v-1l-2-2-2-2h-4c-4.313 0-6 17.906-6 22Z"/><path fill="#B3C0DE" id="BST" d="m278 179-1 1 1-1Z"/><path fill="#97D6F9" id="STR" d="m295 180 2 2-2-2Z"/><path fill="#009B74" id="GU6a" d="m79 193-8 2c0-3.697-3-6.94-3-11l13-3 2 10-4 2Z"/><path fill="#019C74" id="GU6b" d="M83 191h1c0-1.564-1-3.876-1-6v-4h-2l2 10Z"/><path fill="#97D6F9" id="STR" d="m160 181-1 2 1-2Z"/><path fill="#FF6F80" id="TH" d="m217 181 1 2-1-2Z"/><path fill="#019C74" id="GU6b" d="M373 191h1l1-10h-1c0 1.048.473 3-1 3v7Z"/><path fill="#009B74" id="GU6a" d="m377 193 8 2 4-11c-4.795 0-9.549-3-14-3l-1 10 3 2Z"/><path fill="#FF6F80" id="TH" d="m239 187-2 1c0-1.041.986-5 2-5v4Z"/><path fill="#97D6F9" id="STR" d="M297 183c2.273 0 2 5.226 2 7-.853 0-2-6.031-2-7Z"/><path fill="#019C75" id="GU5" d="m57 196 2 1c3.437 0 7.626-2 12-2 0-3.697-3-6.94-3-11-4.607 0-8.242 4-13 4v1l2 7Z"/><path fill="#97D6F9" id="STR" d="M159 184c-1.473 0-1 1.952-1 3 1.473 0 1-1.952 1-3Z"/><path fill="#019C75" id="GU5" d="m399 196-1 1c-3.879 0-8.27-2-13-2l4-11c4.075 0 7.708 4 12 4v1l-2 7Z"/><path fill="#C8CBCC" id="ec" d="m84 191 1 1c0-1.296-.825-7-2-7 0 2.124 1 4.436 1 6Z"/><path fill="#FF6F80" id="TH" d="M217 187h2l-1-2-1 2Z"/><path fill="#97D6F9" id="STR" d="M158 203c-1.987 0-.499 8-3 8 0-6.243 2-12.031 2-17.5 0-1.363-.7-6.5 1-6.5v16Z"/><path fill="#CCC8CC" id="mct" d="M221 201c0 3.15-4 9.152-4 4v-10l-2-4v-1c0-1.238.423-3 2-3h2v2l1 1 1 10v1ZM236 200c0 6.743 3 9.041 3 1v-5l1-1 1-2v-4c0-1.747-.253-2-2-2l-2 1-1 11v1Z"/><path fill="#C8CBCC" id="ec" d="M372 191h1v-4c-1.579 0-1 2.855-1 4Z"/><path fill="#009C74" id="GU4" d="M52 190c0 3.088 1.616 6 5 6l-2-7-3 1Z"/><path fill="#FF6F80" id="TH" d="m219 189 1 1-1-1ZM241 191h2v-1l-2-1v2Z"/><path fill="#009C74" id="GU4" d="M401 197h1l2-7c0-1.473-1.952-1-3-1l-2 7 2 1Z"/><path fill="#009B75" id="GU2/3" d="M57 196c0 .586-8.833 3-10 3l-2-5v-1l7-3c0 3.088 1.616 6 5 6Z"/><path fill="#CAC7CB" id="fiber tracts" d="m215 191 2 4c-2.33 0-3.227-4-6-4v-1l4 1ZM243 191h2v-1h-2v1Z"/><path fill="#009B75" id="GU2/3" d="M409 199h1l2-5-7-4h-1l-2 7 7 2Z"/><path fill="#8ADA86" id="CLA" d="M84 207h2l2-4v-1l-1-2v-2l-1-1-1-4v-1l-1-1h-1l-4 2c0 3.634-.759 14 5 14Z"/><path fill="#C7C8CA" id="fx" d="M208 209h6l3-4v-10c-2.33 0-3.227-4-6-4l-6 4v9l3 5Z"/><path fill="#CAC7CB" id="fiber tracts" d="M243 191c0 1.747-.253 2-2 2v-2h2Z"/><path fill="#C7C8CA" id="fx" d="M242 209h6l1-1 2-3 1-9c-2.961 0-4.266-5-7-5h-2c0 1.747-.253 2-2 2l-1 2-1 1v5c.144 0 3 7.359 3 8Z"/><path fill="#97D6F9" id="STR" d="M299 205c2.149 0 .597 8 4 8 0-4.511-3-11.509-3-16.5 0-1.278.665-5.5-1-5.5v14Z"/><path fill="#C8CBCC" id="ec" d="m372 192-1 1 1-2v1Z"/><path fill="#219666" id="AIp6b" d="m373 191-1 1v-1h1Z"/><path fill="#8ADA86" id="CLA" d="M370 207h2c6.306 0 5-9.653 5-14l-3-2h-1l-1 1-1 1v1l-1 4-1 1v3l-1 1v1l2 3Z"/><path fill="#209766" id="AIp6a" d="M79 213h1c0-3.326 4-3.683 4-6-5.759 0-5-10.366-5-14l-8 2 8 18Z"/><path fill="#C8CBCC" id="ec" d="M86 197h1l-2-4 1 4Z"/><path fill="#CAC7CB" id="fiber tracts" d="m241 193-1 2 1-2Z"/><path fill="#209766" id="AIp6a" d="m372 207 5 5c0-3.737 8-11.731 8-17l-8-2c0 4.347 1.306 14-5 14Z"/><path fill="#009C75" id="GU1" d="m47 199-4 2c-1.638 0-2-3.576-2-5l4-2 2 5Z"/><path fill="#C8CBCC" id="ec" d="M369 198h1l1-4-2 4Z"/><path fill="#009C75" id="GU1" d="m410 199 4 2 2-5-4-2-2 5Z"/><path fill="#219864" id="AIp5" d="m77 215-4 1c0-1.991-14-11.742-14-19 3.437 0 7.626-2 12-2l8 18-2 2Z"/><path fill="#CAC7CB" id="fiber tracts" d="m240 195-1 1 1-1Z"/><path fill="#219864" id="AIp5" d="m379 215 5 1c0-2.003 14-12.978 14-19-3.879 0-8.27-2-13-2 0 5.269-8 13.263-8 17v2l2 1Z"/><path fill="#209865" id="AIp2/3" d="M73 216c0 1.242-9.326 4-11 4 0-3.116-15-14.802-15-21 1.167 0 10-2.414 10-3l2 1c0 7.258 14 17.009 14 19Z"/><path fill="#219864" id="AIp5" d="M398 197h1v-1l-1 1Z"/><path fill="#009B75" id="GU2/3" d="M399 197h2l-2-1v1Z"/><path fill="#209766" id="AIp6a" d="M87 197v1l-1-1h1Z"/><path fill="#209865" id="AIp2/3" d="M384 216c0 1.165 8.453 4 10 4 2.319 0 15-18.255 15-21l-7-2h-4c0 6.022-14 16.997-14 19Z"/><path fill="#209766" id="AIp6a" d="m370 198-1 1v-1h1Z"/><path fill="#219765" id="AIp1" d="m62 220-4 3c-2.45 0-15-19.266-15-22l4-2c0 6.198 15 17.884 15 21Z"/><path fill="#C8CBCC" id="ec" d="M87 200h1l-1-1v1Z"/><path fill="#CAC7CB" id="fiber tracts" d="M214 209c2.924 0 3.859-1.32 6.5 0l3.5 6v-16l-1 1-2 1c0 3.15-4 9.152-4 4l-3 4Z"/><path fill="#FF6F80" id="TH" d="M235 200h1v-1l-1 1Z"/><path fill="#219765" id="AIp1" d="m394 220 5 3c.591 0 15-20.048 15-22l-4-2h-1c0 2.745-12.681 21-15 21Z"/><path fill="#209766" id="AIp6a" d="M88 201v1l-1-2h1v1Z"/><path fill="#FF6F80" id="TH" d="m223 200-2 1v-1h2Z"/><path fill="#CAC7CB" id="fiber tracts" d="m242 209-4.5-1c-1.563.781-3.526 5-4.5 5v-13h1c0 1.186 1 1.186 1 0h1c0 6.743 3 9.041 3 1 .144 0 3 7.359 3 8Z"/><path fill="#FF6F80" id="TH" d="M234 200h1c0 1.186-1 1.186-1 0Z"/><path fill="#C8CBCC" id="ec" d="M368 202h1v-2l-1 2ZM88 203h1l-1-2v2ZM367 204h1v-2l-1 2Z"/><path fill="#209766" id="AIp6a" d="m369 202-1 1v-1h1ZM86 207l4 1-1-4v-1h-1l-2 4Z"/><path fill="#C8CBCC" id="ec" d="m90 208 1 1c0-1.041-.986-5-2-5l1 4Z"/><path fill="#CAC7CB" id="fiber tracts" d="m206 208 2 1-3-5 1 4Z"/><path fill="#209766" id="AIp6a" d="M367 207h3l-2-3h-1v3Z"/><path fill="#CAC7CB" id="fiber tracts" d="M249 208h2v-3l-2 3Z"/><path fill="#C8CBCC" id="ec" d="M367 207c0 1.238-.423 3-2 3 0-1.424.362-5 2-5v2Z"/><path fill="#A0EE9C" id="EPd" d="M95 231h2c2.04 0 3-.959 3-3l-3-5v-1c-1.577 0-2-1.762-2-3v-1l-2-4v-1l-2-3v-1l-1-1-4-1h-2c0 2.317-4 2.674-4 6l1 5v1c4.654 0 7.909 11 13 11l1 1ZM356 229c1.24 0 1.576 2 4 2 2.83 0 4.54-4 7-4l1-1h1l1-1 1-1 1-1 1-1v-1l1-1 1-1 1-2 1-2v-3l-5-5h-5c0 1.238-.423 3-2 3v1l-1 1-1 2v1l-1 2-1 2v1l-1 1-1 2-3 6Z"/><path fill="#E64438" id="HY" d="M212 229c4.803 0 12 .064 12 6 2.836 0-.836-12 2-12l-1-6-1-1v-1l-3.5-6c-2.641-1.32-3.576 0-6.5 0h-6l-2-1 4 8.5-1 8.5c2.098 0 3 1.939 3 4ZM245 229h-7.5l-5.5 4c0-2.716 1.286-9-2-9l2-8c1.473 0 1-1.952 1-3 .974 0 2.937-4.219 4.5-5l4.5 1h6l1-1h2l-4 6.5c-1.514 3.028 1 7.882 1 10.5-2.715 0-3 1.657-3 4Z"/><path fill="#CAC7CB" id="fiber tracts" d="m249 208-1 1 1-1Z"/><path fill="#C8CBCC" id="ec" d="M91 210c1.577 0 2 1.762 2 3l-2-3Z"/><path fill="#97D6F9" id="STR" d="m155 211-1 2 1-2Z"/><path fill="#A2B1D7" id="SI" d="M141 251h24l4-1c0-1.171 4.964-5.428 6-7.5l-1-13.5c-.96 0-3-8.65-3-10 0-18.583-13.795 0-20 0l-5 10-1 1c0 4.503-4 7.736-4 12l-1 1v6l1 2Z"/><path fill="#E64438" id="HY" d="m279 211 1 1-1-1Z"/><path fill="#A2B1D7" id="SI" d="M291 251h24l2-2v-5l-1-1v-1l-1-1-5-13-4-8c-5.269 0-21-20.781-21-1 0 1.9-1.205 11-3 11 0 4.492-1.485 19 5 19l4 2Z"/><path fill="#C8CBCC" id="ec" d="m365 211-1 1 1-1Z"/><path fill="#E64438" id="HY" d="m177 212-1 2 1-2Z"/><path fill="#C8CBCC" id="ec" d="m364 212-1 2 1-2Z"/><path fill="#99D2BD" id="OLF" d="M77 215c2.618 0 1.65 3 4 3l-1-5h-1l-2 2Z"/><path fill="#97D6F9" id="STR" d="m154 213-1 1 1-1Z"/><path fill="#E64438" id="HY" d="M278 225c2.307 0 4 2.879 4 5 1.795 0 3-9.1 3-11-3.849 0-3.07-6-5-6 0 4.311-2 9.853-2 12Z"/><path fill="#C8CBCC" id="ec" d="m93 214 2 4-2-4Z"/><path fill="#E64438" id="HY" d="m178 225-4 4c-.96 0-3-8.65-3-10 3.989 0 3.123-5 5-5 0 4.076 2 7.795 2 11Z"/><path fill="#99D2BD" id="OLF" d="M377 215h2l-2-1v1Z"/><path fill="#6ACAB9" id="PIR" d="M117 291c-2.177 0-4-.641-4 2-15.545 0-35.928-39.356-42-51.5-2.285-4.57-13-13.907-13-18.5l4-3c1.674 0 11-2.758 11-4l4-1c2.618 0 1.65 3 4 3v1c0 1.752 11.753 12.253 13 13.5l5 4.5 17 17c0 3.154 8 9.824 8 16 0 5.116-7 19.487-7 20v1Z"/><path fill="#97D6F9" id="STR" d="m153 215-1 1 1-1Z"/><path fill="#C8CBCC" id="ec" d="m363 215-1 2 1-2Z"/><path fill="#99D2BD" id="OLF" d="m377 215-1 2 1-2Z"/><path fill="#6ACAB9" id="PIR" d="M340 291c1.465 0 4-.109 4 2 5.041 0 9.191-5.846 13.5-8 6.096-3.048 26.275-39.05 30.5-47.5 2.204-4.408 11-9.504 11-14.5l-5-3c-1.547 0-10-2.835-10-4l-5-1h-2l-1 2-1 2-1 1-1 1v1l-1 1-1 1-1 1-1 1-1 1c0 1.628-8.5 9-10 9l-1 1c0 1.53-15.985 17-17 17l-1 1c0 4.205-6 8.348-6 15 0 7.524 6 17.043 6 20l1 1Z"/><path fill="#97D6F9" id="STR" d="m152 216-1 1 1-1Z"/><path fill="#97D6F9" id="STR" fill-rule="evenodd" d="M315 226c0 4.539 9.228 16.136 13.5 14 4.657-2.328 6.024-4.988 0-8-2.193-1.097-4.84-1.92-7-3-2.69-1.345-3.155-3-6.5-3m31 10-3 2c0-.801-4.441-2.53-5.5-2-2.871 1.436-6.931 7.035-11 5-3.015-1.508-15.259-13-16.5-13l-4-8-2-4c8.777 0 24.013 19 38 19 0 1.579 2.855 1 4 1ZM123 257l6 8c0-6.376-5.34-5.16 1-11.5l5.5-.5 3.5 2v-2l1-4v-6c-1.689 0-3.982 6-7 6-9.988 0-8.588-2.544-15.5-6-.652-.326-4.335-5.332-3-6 7.092-3.546 12.188 9.812 21.5.5 1.463-1.463 3-2.383 3-4.5l6-3 1-1 5-10v-2c-7.213 0-15.225 9.862-21.5 13l-10.5 4c-1.145 0-4-.579-4 1s-2.855 1-4 1l2 4c5.956 0 10 12.349 10 17m16-24 3-5.5c-1.786-3.572-16.625 5.249-18 8-1.24 2.48 2.676 5.412 4.5 4.5 1.94-.97 8.831-7 10.5-7Z"/><path fill="#C8CBCC" id="ec" d="m362 217-1 2 1-2Z"/><path fill="#99D2BD" id="OLF" d="m376 217-1 2 1-2ZM99 234v3l-5-4.5c-1.247-1.247-13-11.748-13-13.5 4.654 0 7.909 11 13 11l1 1h2c0 1.238.423 3 2 3Z"/><path fill="#C8CBCC" id="ec" d="M95 219c1.577 0 2 1.762 2 3-1.577 0-2-1.762-2-3Z"/><path fill="#99D2BD" id="OLF" d="m375 219-1 1 1-1Z"/><path fill="#C8CBCC" id="ec" d="m361 220-1 1 1-1Z"/><path fill="#99D2BD" id="OLF" d="m374 220-1 1 1-1Z"/><path fill="#C8CBCC" id="ec" d="m360 221-1 2 1-2Z"/><path fill="#99D2BD" id="OLF" d="m373 222-1 1 1-1Z"/><path fill="#C8CBCC" id="ec" d="M110 236h1c1.145 0 4 .579 4-1-8.808 0-14.341-12-18-12l3 5 3 3 2 2 5 3Z"/><path fill="#FE5547" id="PVpo" d="M236 275h1c0-3.138-2-5.662-2-8l-2-6c0-8.774-1-18.617-1-28 0-2.716 1.286-9-2-9v1l-1 1c0 4.347-2 2.153-2-1l-1-1v-1c-2.836 0 .836 12-2 12v24l-1 1v1l-2 6-2 7 1 1h1l2-1h1l1-1v-2l3.5-12c.367 0 2.5 10.755 2.5 12v2l2 1h1l1 1h1Z"/><path fill="#C8CBCC" id="ec" d="M351 232h1l2-1 2-2 3-6-8 9Z"/><path fill="#E64438" id="HY" d="m226 224 1 1-1-1Z"/><path fill="#99D2BD" id="OLF" d="m371 224-1 1 1-1Z"/><path fill="#F2473B" id="LPO" d="m193 268-4 1c-2.28 0-11.049-12-16-12l-1-2-3-5c0-1.171 4.964-5.428 6-7.5l-1-13.5 4-4h1l1 1c3.398 0 5.13 7 9 7l2 4c0 3.24.641 6.781 2 9.5V268Z"/><path fill="#E64438" id="HY" d="m179 225 1 1-1-1Z"/><path fill="#FE5346" id="PD" d="M206 233h2l3-3 1-1c0-2.061-.902-4-3-4-3.591 0-4 3.117-4 6l1 2Z"/><path fill="#E64438" id="HY" d="m230 225-1 1 1-1Z"/><path fill="#FE5346" id="PD" d="M249 233h2l1-2c0-2.653-.879-6-4-6-2.715 0-3 1.657-3 4 0 2.226 1.774 4 4 4Z"/><path fill="#F2473B" id="LPO" d="M263 267c1.24 0 1.576 2 4 2 3.254 0 10.936-12 16-12l1-1 1-1 2-6c-6.485 0-5-14.508-5-19 0-2.121-1.693-5-4-5-4.413 0-6.519 8-11 8l-1 4c0 2.993-1.62 9.74-3 12.5V267Z"/><path fill="#C9C9C9" id="act" d="m139 233 3-5.5c-1.786-3.572-16.625 5.249-18 8-1.24 2.48 2.676 5.412 4.5 4.5 1.94-.97 8.831-7 10.5-7ZM315 226c0 4.539 9.228 16.136 13.5 14 4.657-2.328 6.024-4.988 0-8-2.193-1.097-4.84-1.92-7-3-2.69-1.345-3.155-3-6.5-3Z"/><path fill="#8AD987" id="CTXsp" d="M367 227h1v-1l-1 1Z"/><path fill="#99D2BD" id="OLF" d="m369 226-1 1v-1h1ZM358 235v1c1.5 0 10-7.372 10-9h-1c-2.46 0-4.17 4-7 4l-2 4Z"/><path fill="#8AD987" id="CTXsp" d="M103 231c-2.343 0-4 .285-4 3-1.577 0-2-1.762-2-3 2.04 0 3-.959 3-3l3 3Z"/><path fill="#7ECDF8" id="FS" d="m337 245-2 2c-3.138 0-8.309 4.096-12.5 2-2.426-1.213-3.031-4-5.5-4v-1l-1-1v-1l-1-1-5-13c1.241 0 13.485 11.492 16.5 13 4.069 2.035 8.129-3.564 11-5 1.059-.53 5.5 1.199 5.5 2v1c-1.747 0-2 .253-2 2-1.747 0-2 .253-2 2l-2 2ZM146 229l-1 1 1-1Z"/><path fill="#E64438" id="HY" d="m212 229-1 1 1-1Z"/><path fill="#FD4C3E" id="MPN" d="M209 263h1c2.259 0 5.151 3.675 8.5 2l4.5-4v-1l1-1v-24c0-5.936-7.197-6-12-6l-1 1-3 3-3 7.5c-2.826 5.651 2 14.394 2 19.5 1.577 0 2 1.762 2 3ZM249 261l-2 2c-2.617 0-5.208 3.646-8.5 2l-5.5-4c0-8.774-1-18.617-1-28l5.5-4h7.5c0 2.226 1.774 4 4 4 0 3.444 1.539 7.579 3 10.5 2.331 4.662-3 13.008-3 17.5Z"/><path fill="#8AD987" id="CTXsp" d="m360 231-2 4c-1.648 0-.756-4-4-4l2-2c1.24 0 1.576 2 4 2ZM94 230l1 1-1-1Z"/><path fill="#7ECDF8" id="FS" d="m141 242-1 1c-1.689 0-3.982 6-7 6-9.988 0-8.588-2.544-15.5-6-.652-.326-4.335-5.332-3-6 7.092-3.546 12.188 9.812 21.5.5 1.463-1.463 3-2.383 3-4.5l6-3c0 4.503-4 7.736-4 12Z"/><path fill="#A0ED9D" id="EPv" d="M116 254h1c6.424 0-1.848-10.348-3-11.5l-2-2.5c-2.226 0-4-1.774-4-4l-3-3-2-2c-2.343 0-4 .285-4 3v3l17 17Z"/><path fill="#E64438" id="HY" d="M203 233h3l-1-2-2 2ZM251 233h2l-1-2-1 2Z"/><path fill="#A0ED9D" id="EPv" d="M339 254h1c1.015 0 17-15.47 17-17l1-1v-1c-1.648 0-.756-4-4-4l-2 1-1 1-1 1-1 1-1 1c0 2.226-1.774 4-4 4l-1 1-2 2-2 2-2 6.5 2 2.5Z"/><path fill="#C8CBCC" id="ec" d="M346 236h1l2-1 1-1 1-1v-1c-3.391 0-5.353 3-9 3 0 1.579 2.855 1 4 1Z"/><path fill="#8AD987" id="CTXsp" d="m352 232-1 1v-1h1ZM108 236h2l-5-3 3 3Z"/><path fill="#E64438" id="HY" d="M196 235c0 2.496-5-.496-5 2l-2-4c2.583 0 3.934 2 7 2ZM202 233l-1 1 1-1Z"/><path fill="#FF5346" id="MPO" d="M203 265c-3.713 0-6.823 3-10 3v-21.5c-1.359-2.719-2-6.26-2-9.5 0-2.496 5 .496 5-2h3l2-1 1-1h6l-3 7.5c-2.826 5.651 2 14.394 2 19.5l-1 3-2 1-1 1ZM253 265c2.723 0 10 6.331 10 2v-17.5c1.38-2.76 3-9.507 3-12.5-.706 0-6-1.325-6-2h-3c-1.238 0-3-.423-3-2h-5c0 3.444 1.539 7.579 3 10.5 2.331 4.662-3 13.008-3 17.5l2 2 2 2Z"/><path fill="#E64438" id="HY" d="m254 233 3 2c-1.238 0-3-.423-3-2ZM260 235c0 .675 5.294 2 6 2l1-4c-2.16 0-4.167 2-7 2Z"/><path fill="#8AD987" id="CTXsp" d="m351 233-1 1 1-1Z"/><path fill="#E64438" id="HY" d="m201 234-2 1 2-1Z"/><path fill="#8AD987" id="CTXsp" d="m350 234-1 1 1-1ZM347 236h1l1-1-2 1Z"/><path fill="#80BEE2" id="IA" d="M112 240h1l-2-4h-3c0 2.226 1.774 4 4 4ZM343 239l1 1c2.226 0 4-1.774 4-4h-2l-3 2v1Z"/><path fill="#99D2BD" id="OLF" d="m358 236-1 1 1-1Z"/><path fill="#97D6F9" id="STR" d="M341 241h2v-2c-1.747 0-2 .253-2 2Z"/><path fill="#8AD987" id="CTXsp" d="m344 240-1 1v-2l1 1ZM117 254c0 1.662 4.357 3 6 3 0-4.651-4.044-17-10-17h-1l2 2.5c1.152 1.152 9.424 11.5 3 11.5Z"/><path fill="#97D6F9" id="STR" d="m315 241 1 1-1-1ZM339 243h2v-2c-1.747 0-2 .253-2 2Z"/><path fill="#8AD987" id="CTXsp" d="m343 241-2 2v-2h2Z"/><path fill="#97D6F9" id="STR" d="m141 242-1 1 1-1ZM316 243l1 1-1-1ZM337 245h2v-2l-2 2Z"/><path fill="#8AD987" id="CTXsp" d="m341 243-2 2v-2h2Z"/><path fill="#97D6F9" id="STR" d="M334 257c-3.354 0-2.568 6-5 6 0-10.568-2.591-9-11-9l-1-1v-8c2.469 0 3.074 2.787 5.5 4 4.191 2.096 9.362-2 12.5-2l-2 4.5c-.978 1.956 1 4.077 1 5.5ZM337 245l-2 2c1.747 0 2-.253 2-2Z"/><path fill="#8AD987" id="CTXsp" d="m339 255-5 2c0-1.423-1.978-3.544-1-5.5l2-4.5c1.747 0 2-.253 2-2h2l-2 6.5 2 2.5v1Z"/><path fill="#8599CC" id="PAL" d="m141 251-2 2 1-4 1 2ZM284 257h1l6-6-4-2-2 6-1 1v1ZM315 251l2 2v-4l-2 2ZM171 257h1v-2l-3-5-4 1 6 6Z"/><path fill="#A2B1D8" id="MA" d="m167 272-1 1c-1.461 0-21.733-18-27-18v-2l2-2h24l6 6c0 5.583-4 10.398-4 15ZM290 272h1l27-18-1-1-2-2h-24l-6 6 2 11.5 3 3.5Z"/><path fill="#80C0E2" id="AAA" d="m136 274 10.5 9c3.826 1.913 13.084-.542 16-2l3.5-4v-4c-1.461 0-21.733-18-27-18l-3.5-2-5.5.5c-6.34 6.34-1 5.124-1 11.5v1l1 1 6 7ZM319 275l-7.5 7c-4.905 2.453-20.5 1.624-20.5-6v-4l27-18c8.409 0 11-1.568 11 9-1.577 0-2 1.762-2 3l-1 1-1 1-2 3-1 1-1 1-1 1-1 1Z"/><path fill="#99D2BD" id="OLF" d="M136 274c-1.871 0-6-5.321-6 1-.937 0 .043-5-6-5 0-6.176-8-12.846-8-16h1c0 1.662 4.357 3 6 3l6 8v1l1 1 6 7ZM340 254l-1 1v-1h1Z"/><path fill="#E64438" id="HY" d="M172 257h1l-1-2v2ZM285 255l-1 1 1-1Z"/><path fill="#99D2BD" id="OLF" d="M323 271c4.145 0 1.82 7 4 7 0-7.227-.872-8 6-8 0-6.652 6-10.795 6-15l-5 2c-3.354 0-2.568 6-5 6 0 1.238-.423 3-2 3l-1 1-1 1-2 3Z"/><path fill="#E64438" id="HY" d="M283 257h1v-1l-1 1Z"/><path fill="#96A6D3" id="NDB" d="M185 277h2c0-2.343 2-4.27 2-8-2.28 0-11.049-12-16-12h-2c0 5.583-4 10.398-4 15 0 4.741 14.211 5 18 5ZM270 277h10.5c1.729-.865 8.778-5 9.5-5l-3-3.5-2-11.5h-2c-5.064 0-12.746 12-16 12 0 3.863 3 6.505 3 8Z"/><path fill="#E64438" id="HY" d="m224 259-1 1 1-1Z"/><path fill="#A8A9AA" id="V3" d="M226 271h5c0-1.245-2.133-12-2.5-12l-3.5 12h1Z"/><path fill="#E64438" id="HY" d="M206 263h3c0-1.238-.423-3-2-3l-1 3ZM221 267c-3.24 0-6.512 2-10 2 0-2.124-1-4.436-1-6 2.259 0 5.151 3.675 8.5 2l4.5-4-2 6ZM235 267c4.674 0 9.183 4 12 4l-2-2.5c-1.27-2.541 2-3.709 2-5.5-2.617 0-5.208 3.646-8.5 2l-5.5-4 2 6ZM247 263h4l-2-2-2 2Z"/><path fill="#FF4B3E" id="AHN" d="m210 270-1 1c-5.054 0-6-1.114-6-6l1-1 2-1h4c0 1.564 1 3.876 1 6l-1 1ZM247 271h1c5.419 0 5-2.042 5-6l-2-2h-4c0 1.791-3.27 2.959-2 5.5l2 2.5Z"/><path fill="#97D6F9" id="STR" d="M329 263c-1.577 0-2 1.762-2 3 1.577 0 2-1.762 2-3Z"/><path fill="#E64438" id="HY" d="m204 264-1 1 1-1ZM200 279h2c0-1.473 1.952-1 3-1 0-5.114 4-6.069 4-7-5.054 0-6-1.114-6-6-3.713 0-6.823 3-10 3l-4 1c0 3.73-2 5.657-2 8l5 2-1-3.5c.285-.57 8 .196 8 3.5h1ZM257 279c0-3.103 9-4.858 9-2.5l-2 2.5 6-2c0-1.495-3-4.137-3-8-2.424 0-2.76-2-4-2 0 4.331-7.277-2-10-2 0 3.958.419 6-5 6 0 1.683 3 2.588 3 7 1.145 0 4-.579 4 1h2Z"/><path fill="#97D6F9" id="STR" d="m129 266 1 1-1-1Z"/><path fill="#FD5545" id="VMPO" d="m214 277-9 1c0-5.114 4-6.069 4-7l1-1 1-1c3.488 0 6.76-2 10-2l-2 7-5 3ZM248 278h3c0-4.412-3-5.317-3-7h-1c-2.817 0-7.326-4-12-4 0 2.338 2 4.862 2 8 1.357 0 6 .647 6 2h4l1 1Z"/><path fill="#97D6F9" id="STR" d="m326 267-1 1 1-1Z"/><path fill="#59D9AA" id="PAA" d="M120 290h1l1-1h2l1-1h1l3-1.5c.523-1.046-.951-3.5 1-3.5v-8c-.937 0 .043-5-6-5 0 5.116-7 19.487-7 20h3Z"/><path fill="#E64438" id="HY" d="m211 269-1 1 1-1Z"/><path fill="#59D9AA" id="PAA" d="M337 290h2c0-2.957-6-12.476-6-20-6.872 0-6 .773-6 8v4c0 3.067 3 4.726 3 6h1l2 1h1l2 1h1Z"/><path fill="#E64438" id="HY" d="m210 270-1 1 1-1Z"/><path fill="#60E5B7" id="COAa" d="M138 278c0 7.518-8 11.423-8 5v-8c0-6.321 4.129-1 6-1l1 2 1 1v1Z"/><path fill="#E64438" id="HY" d="m226 271-1 2v-2h1Z"/><path fill="#99D2BD" id="OLF" d="m323 271-1 1 1-1Z"/><path fill="#60E5B7" id="COAa" d="M318 279c0 3.133 1.905 9.297 6.5 7l2.5-4v-4c-2.18 0 .145-7-4-7l-1 1-1 1-1 1v1l-1 1v1l-1 1v1Z"/><path fill="#8599CC" id="PAL" d="M185 277c0 5.508-13.143 8-17 8 0-.684.241-8-2-8v-4l1-1c0 4.741 14.211 5 18 5ZM271 277c0 4.093 13.313 8 17 8 0-1.925.847-9 3-9v-4h-1c-.722 0-7.771 4.135-9.5 5H271Z"/><path fill="#99D2BD" id="OLF" d="m322 272-1 1 1-1Z"/><path fill="#E64438" id="HY" d="M224 274h1v-1l-1 1ZM231 274h2l-2-1v1Z"/><path fill="#97D6F9" id="STR" d="m321 273-1 1 1-1ZM168 285c0 2.464-1.709 3.104-3.5 4-5.519 2.759-13.353 7.323-20 4l-5.5-2c0-.415 3.287-13-1-13v-1l-1-1-1-2 10.5 9c3.826 1.913 13.084-.542 16-2l3.5-4c2.241 0 2 7.316 2 8Z"/><path fill="#E64438" id="HY" d="M217 277h1l2-2-1-1-5 3h3ZM223 274l-2 1 2-1Z"/><path fill="#CAC7CB" id="fiber tracts" d="m228 275-10 2 2-2h1l2-1h2c1.048 0 3-.473 3 1ZM251 278c1.145 0 4-.579 4 1-10.354 0-18.536-4-26-4l2-1h3l1 1h1c0 1.663 5.407 2 7 2h4l1 1h3Z"/><path fill="#E64438" id="HY" d="m234 274 1 1-1-1Z"/><path fill="#97D6F9" id="STR" d="M319 275h1v-1l-1 1Z"/><path fill="#FE5B50" id="SO" d="M195 280h2l2-1c0-3.304-7.715-4.07-8-3.5l1 3.5 3 1Z"/><path fill="#CBCACC" id="och" d="M199 288c0 1.156 2.555 1.472 3.5 1 5.789-2.895 13.237-2.119 19-5 5.426-2.713 27.6 2.8 32 5l4.5-1v-8l-2-1h-1c-10.354 0-18.536-4-26-4h-1l-10 2h-1c0 2.09-12.324 2-15 2h-2l-1 1v8Z"/><path fill="#E64438" id="HY" d="M237 275c1.357 0 6 .647 6 2-1.593 0-7-.337-7-2h1Z"/><path fill="#FE5B50" id="SO" d="M261 280h1l2-1 2-2.5c0-2.358-9-.603-9 2.5l2 1h2Z"/><path fill="#97D6F9" id="STR" d="m288 285 4.5 5 7 3c6.042 3.021 11.921-2 17.5-2 0-1.506-2.403-12 1-12v-1l1-1v-2l-7.5 7c-4.905 2.453-20.5 1.624-20.5-6-2.153 0-3 7.075-3 9Z"/><path fill="#99D2BD" id="OLF" d="m320 275-1 1v-1h1ZM137 276l1 1-1-1Z"/><path fill="#CAC7CB" id="fiber tracts" d="M205 278c-1.048 0-3-.473-3 1 2.676 0 15 .09 15-2h-3l-9 1Z"/><path fill="#E64438" id="HY" d="m247 277 1 1-1-1Z"/><path fill="#99D2BD" id="OLF" d="m319 277-1 1 1-1ZM129 291h10c0-.415 3.287-13-1-13 0 7.518-8 11.423-8 5-1.951 0-.477 2.454-1 3.5l-3 1.5c2.041 0 3 .959 3 3Z"/><path fill="#CAC7CB" id="fiber tracts" d="M197 280h2l1-1h-1l-2 1ZM258 280h1l-2-1h-1l2 1Z"/><path fill="#99D2BD" id="OLF" d="m317 291 7.5-1 3.5 2c0-1.896-1.97-4 2-4 0-1.274-3-2.933-3-6l-2.5 4c-4.595 2.297-6.5-3.867-6.5-7-3.403 0-1 10.494-1 12Z"/><path fill="#CACCCB" id="opt" d="m193 285 6 3v-8h-4l-1 1-1 1v3ZM263 285l-5 3v-8h3l1 1c1.579 0 1 2.855 1 4Z"/><path fill="#CAC7CB" id="fiber tracts" d="M262 280v1l-1-1h1ZM194 281l-1 1 1-1ZM199 288c0 1.156 2.555 1.472 3.5 1 5.789-2.895 13.237-2.119 19-5 5.426-2.713 27.6 2.8 32 5l4.5-1 5-3c0 3.508-6.731 6-9.5 6-.729 0-23.539-3.77-24-4l-1-2-2 2c-6.658 3.329-16.235.617-23 4-2.35 1.175-10.5-3.171-10.5-6l6 3Z"/><path fill="#99D2BD" id="OLF" d="m125 288-1 1 1-1Z"/><path fill="#CAC8C7" id="lot" d="M129 291c0 5.092-16 5.639-16 2 0-2.641 1.823-2 4-2 1.048 0 3 .473 3-1h1l1-1h2l1-1h1c2.041 0 3 .959 3 3ZM328 292c0 3.118 11.877 4.312 14.5 3l1.5-2c0-2.109-2.535-2-4-2-1.048 0-3 .473-3-1h-1l-2-1h-1l-2-1h-1c-3.97 0-2 2.104-2 4Z"/><path fill="#99D2BD" id="OLF" d="m331 288 2 1-2-1ZM122 289l-1 1 1-1ZM334 289l2 1-2-1ZM120 290c0 1.473-1.952 1-3 1v-1h3ZM339 290l1 1c-1.048 0-3 .473-3-1h2Z"/></svg>