<svg xmlns="http://www.w3.org/2000/svg" viewBox="0 0 456 320"><path fill="#99D2BD" id="OLF" d="M218 125h2l-4-7.5c-1.498-2.995-1.445-6.89-3-10-2.237-4.474-14.581-4.46-18.5-2.5l-7 6c-2.857 1.429-19.5 3.509-19.5 8l8.5-4 21-2c4.013 2.007 8.928 1.964 13 4l7.5 8ZM237 124l2 1c0-11.157 32.084-14.208 40.5-10l12.5 6c0-5.31-20.134-8.317-23.5-10l-7-6c-5.256-2.628-16.522-1.456-19.5 4.5l-2 9-3 5.5Z"/><path fill="#9AD1BD" id="MOB" fill-rule="evenodd" d="m188 196-2 4.5v4c0 12.591 11.09-8.5 2-8.5m-17-2c0 8.262.603 15.706 4 22.5.476.952 4.464 7.072 6 4 .2-.4-3.885-18.769-5-21l-5-5.5m23 55h2c9.13 0 17.325-9.15 21-16.5l3-13c3.952-7.903 6.185-54.629 2-63l-1-21c-1.415-2.83-3-7.222-3-10.5l-7.5-8c-4.072-2.036-8.987-1.993-13-4l-21 2-8.5 4c0 1.577-1.762 2-3 2h-1l-1 1-1 1-7 7-1 1-1 1v1l-1 1-1 1v2l-1 1v1l-1 2v3l-1 2v17c1.473 0 1 1.952 1 3v5l1 1v2l1 2v3l1 1v1l1 2v2l1 2v1l1 1v2l2 4v2l1 1v1l1 2v1l1 1v1l1 1v2l1 1v1l1 1c0 9.345 18.807 38 30 38l1 1m-17-86c0 .921 5.533 10.434 7 7.5l-1-5.5c8.928 0 10-7.79 10-14 0-1.193 5.604-6.448 2.5-8l-2.5 1c0-7.092.341-13.579-6.5-17-6.53-3.265-15.5 2.493-15.5 9-2.327 0-6-1.943-6 3-5.259 0 1 9.574 1 4h1c0 4.445 4.03 20 10 20ZM267 196l-1 4.5v3.5c0 11.377 9.485-8 1-8m17-2-3 3.5c-2.39 4.78-1.579 11.157-4 16-.526 1.052-4.009 6.246-1.5 7.5 5.983 2.992 13.874-27 8.5-27m9 17-4 8.5c-5.442 10.883-12.721 29.5-28 29.5-13.862 0-18.942-13.383-24-23.5v-5c-4.972-9.944-7.334-56.333-2-67v-15l4-13.5c0-11.157 32.084-14.208 40.5-10l12.5 6 2 1 2 2 4 4 2 2 2 4 1 1v1l1 1v1l1 1v3l1 2v2l1 2v11c-1.579 0-1 2.855-1 4v3l-1 2v4l-1 2v2l-1 1v3l-1 1v2l-1 1v3l-1 1v1l-1 1v3l-1 1v1l-1 1v2l-1 1v1l-1 1v2l-1 2-1 1v2l-1 1v1l-1 1m-13-48c0 .318-4.494 7.497-5.5 8l-2.5-1.5 2-4.5c-8.435 0-11-6.192-11-14 0-1.72-6.357-8 0-8 0-5.897.353-12.927 6.5-16 8.083-4.041 15.5 2.894 15.5 10 1.756 0 6-4.47 6 2 4.999 0 0 9.996 0 4l-2 1c0 8.76-9 18.185-9 19Z"/><path fill="#99D2BD" id="OLF" d="M168 119c-1.238 0-3 .423-3 2 1.238 0 3-.423 3-2ZM164 121l-1 1 1-1ZM163 122l-1 1 1-1ZM294 122l2 2-2-2Z"/><path fill="#C7CBCA" id="onl" d="m239 125-4 13.5v15c-5.334 10.667-2.972 57.056 2 67v5c5.058 10.117 10.138 23.5 24 23.5 0 2.295-6.025 3.263-7.5 4-4.578 2.289-17.529 15.443-22.5 5.5-4.208-8.416 2.833-27.334-1-35-3.052-6.104-1-17.855-1-25v-41c3.378-6.757.666-16.333 4-23l4-10.5 2 1ZM227 209c0 10.377 1.644 42.212-2 49.5-1.751 3.503-9.935 3.783-12.5 2.5l-5-6c-2.076-1.038-11.5-2.804-11.5-6 9.13 0 17.325-9.15 21-16.5l3-13c3.952-7.903 6.185-54.629 2-63l-1-21c-1.415-2.83-3-7.222-3-10.5h2l4 11.5c3.046 6.091 3 27.213 3 35.5 0 1.49-.735 8 1 8v23c-1.684 0-1 4.679-1 6Z"/><path fill="#9DEFD2" id="AOBmi" d="M171 136c0 6.622 5.412 12.456 10.5 15 3.817 1.908 11.5-3.334 11.5-7 0-7.092.341-13.579-6.5-17-6.53-3.265-15.5 2.493-15.5 9ZM263 144l1 1c0 11.5 21 4.611 21-8 0-7.106-7.417-14.041-15.5-10-6.147 3.073-6.5 10.103-6.5 16v1Z"/><path fill="#99D2BD" id="OLF" d="m300 128 2 2-2-2ZM155 130l-1 1 1-1ZM154 131l-1 1 1-1ZM153 133l-1 1 1-1ZM152 134l-1 1 1-1ZM304 134l1 1-1-1Z"/><path fill="#CACAC9" id="lotd" d="m193 144 2.5-1c3.104 1.552-2.5 6.807-2.5 8-3.895 0-7.97 6.765-13.5 4-3.545-1.773-11.081-12-12.5-12h-1c0-1.145.579-4-1-4 0-4.943 3.673-3 6-3 0 6.622 5.412 12.456 10.5 15 3.817 1.908 11.5-3.334 11.5-7ZM289 144c0-1.544-6.873 8.187-8.5 9-9.967 4.984-10.105-2-17.5-2 0-1.72-6.357-8 0-8v1l1 1c0 11.5 21 4.611 21-8 1.756 0 6-4.47 6 2v4l-2 1Z"/><path fill="#99D2BD" id="OLF" d="m305 136 1 1-1-1ZM151 137l-1 1 1-1ZM306 138l1 1-1-1ZM150 139l-1 2 1-2Z"/><path fill="#CAC8C7" id="lot" d="M165 139c1.579 0 1 2.855 1 4 0 5.574-6.259-4-1-4ZM291 139c4.999 0 0 9.996 0 4v-4Z"/><path fill="#99D2BD" id="OLF" d="m307 142 1 2-1-2Z"/><path fill="#95E4C8" id="AOBgr" d="m177 163 6 2c8.928 0 10-7.79 10-14-3.895 0-7.97 6.765-13.5 4-3.545-1.773-11.081-12-12.5-12 0 4.445 4.03 20 10 20ZM280 163l-6 2c-8.435 0-11-6.192-11-14 7.395 0 7.533 6.984 17.5 2 1.627-.813 8.5-10.544 8.5-9 0 8.76-9 18.185-9 19Z"/><path fill="#99D2BD" id="OLF" d="m149 144-1 2 1-2Z"/><path fill="#9AD1BD" id="MOB" d="m263 144 1 1-1-1Z"/><path fill="#99D2BD" id="OLF" d="m308 146 1 2-1-2ZM148 149c-1.628 0-1.628 10 0 10v-10ZM309 159c-1.579 0-1 2.855-1 4 1.579 0 1-2.855 1-4ZM148 163c1.473 0 1 1.952 1 3-1.473 0-1-1.952-1-3Z"/><path fill="#CBCBC7" id="aco" d="m177 163 6 2 1 5.5c-1.467 2.934-7-6.579-7-7.5ZM280 163l-6 2-2 4.5 2.5 1.5c1.006-.503 5.5-7.682 5.5-8Z"/><path fill="#99D2BD" id="OLF" d="m308 166-1 2 1-2ZM149 171l1 1-1-1ZM227 172c1.735 0 1 6.51 1 8-1.735 0-1-6.51-1-8ZM307 172l-1 2 1-2ZM150 174l1 2-1-2ZM306 176l-1 1 1-1ZM151 179l1 1-1-1ZM305 180l-1 1 1-1ZM152 181l1 2-1-2ZM304 183l-1 1 1-1ZM153 185l1 2-1-2ZM303 187l-1 1 1-1ZM154 188l1 1-1-1ZM302 189l-1 1 1-1ZM155 191l2 4-2-4ZM301 193l-1 1 1-1Z"/><path fill="#CAC8C7" id="lot" d="M171 194c0 8.262.603 15.706 4 22.5.476.952 4.464 7.072 6 4 .2-.4-3.885-18.769-5-21l-5-5.5ZM284 194l-3 3.5c-2.39 4.78-1.579 11.157-4 16-.526 1.052-4.009 6.246-1.5 7.5 5.983 2.992 13.874-27 8.5-27Z"/><path fill="#99D2BD" id="OLF" d="m300 195-1 1 1-1Z"/><path fill="#CBCBC7" id="aco" d="m188 196-2 4.5v4c0 12.591 11.09-8.5 2-8.5ZM267 196l-1 4.5v3.5c0 11.377 9.485-8 1-8Z"/><path fill="#99D2BD" id="OLF" d="m157 197 1 1-1-1ZM299 198l-1 1 1-1ZM158 199l1 2-1-2ZM298 200l-1 1 1-1ZM159 202l1 1-1-1ZM228 203c-1.684 0-1 4.679-1 6 1.684 0 1-4.679 1-6ZM297 203l-1 2 1-2ZM160 204l1 1-1-1ZM296 205l-1 1 1-1ZM161 207l1 1-1-1ZM295 208l-1 1 1-1ZM162 209l1 1-1-1ZM294 210l-1 1 1-1Z"/><path fill="#C7CBCA" id="onl" d="m193 248 1 1-1-1Z"/></svg>