<svg xmlns="http://www.w3.org/2000/svg" viewBox="0 0 456 320"><path fill="#1E9C59" id="MOs1" d="M135 141c-2.518 0-2.334 3-5 3 0-3.937-7.336-15.828-4-22.5l5-14c5.38-10.76 19.979-19.74 29.5-24.5 7.11-3.555 28.57-9.215 37-5 1.909.954 11.5 1.184 11.5 4l-4 6h-1c0-1.516-8.357-3-10-3-10.588 0-22.711-.395-31.5 4-15.911 7.955-22.025 16.55-29.5 31.5-2.865 5.731 2 15.017 2 20.5ZM321 141c2.364 0 3.053 3 5 3 5.804 0 4.196-24.107 2-28.5-9.506-19.012-18.048-24.774-37.5-34.5-4.225-2.112-9.723-1.862-14-4-4.688-2.344-18.232.116-22 2-1.272.636-7.5 1.45-7.5 3 0 1.53 4 3.216 4 6h1c0-1.78 6.197-1.348 7.5-2 6.896-3.448 28.022.011 34 3 15.369 7.684 22.104 15.708 29.5 30.5 2.946 5.892-2 15.344-2 20.5v1Z"/><path fill="#2FA750" id="PL1" d="M222 115h13c0-7.931 6.079-27 16-27 0-2.784-4-4.47-4-6-6.127 0-13.864 14.227-16 18.5l-2.5 7.5c-1.869 0-2.926-7.352-3.5-8.5-1.967-3.934-11.193-17.5-16-17.5l-4 6c9.687 0 17 19.389 17 27Z"/><path fill="#1E9D58" id="MOs2/3" d="M135 141h1c0-2.658.873-1.187 2.5-2 7.606-3.803 10.731-1 18.5-1 1.353 0 2-4.643 2-6-8.044 0-.692-19.117 1-22.5 7.181-14.361 25.5-14.5 38-14.5h1c0-2.734 5-4.04 5-7 0-1.516-8.357-3-10-3-10.588 0-22.711-.395-31.5 4-15.911 7.955-22.025 16.55-29.5 31.5-2.865 5.731 2 15.017 2 20.5ZM299 138l12.5-2c1.798.899 7.829 4 9.5 4 0-5.156 4.946-14.608 2-20.5-7.396-14.792-14.131-22.816-29.5-30.5-5.978-2.989-27.104-6.448-34-3-1.303.652-7.5.22-7.5 2 1.02 0 5 5.576 5 7h1c10.027 0 27.677-1.146 33 9.5l4 3c1.494 2.988 12.063 24.5 2 24.5l2 6Z"/><path fill="#2FA74F" id="PL2/3" d="M215 114c1.819 0 4.591 1 7 1 0-7.611-7.313-27-17-27h-1c0 2.96-5 4.266-5 7 9.907 0 16 8.644 16 18v1ZM241 114c-1.564 0-3.876 1-6 1 0-7.931 6.079-27 16-27h1c1.02 0 5 5.576 5 7-9.864 0-16 10.053-16 19Z"/><path fill="#1F9D58" id="MOs5" d="M159 132h1l1-5c0-4.381-4.578-7.345-2-12.5 5.967-11.934 22.148-14.5 36-14.5 0-1.947 3-2.636 3-5-12.5 0-30.819.139-38 14.5-1.692 3.383-9.044 22.5-1 22.5ZM295 127l2 5c10.063 0-.506-21.512-2-24.5l-4-3c-5.323-10.646-22.973-9.5-33-9.5l4 5c16.934 0 28.623 2.747 36 17.5 1.855 3.71-3 6.78-3 9.5Z"/><path fill="#2EA84F" id="PL5" d="M207 111c2.338 0 4.862 2 8 2 0-9.356-6.093-18-16-18h-1c0 2.364-3 3.053-3 5 0 1.951 2.454.477 3.5 1 1.882.941 8.5 7.846 8.5 10ZM249 111l-8 3c0-8.947 6.136-19 16-19h1l4 5c-3.413 0-13 7.78-13 11Z"/><path fill="#258F45" id="FRP5" d="M188 114c6.286 0 11.715 3 17 3l2.5 2c2.919 1.459-.5-7.307-.5-8 0-2.154-6.618-9.059-8.5-10-1.046-.523-3.5.951-3.5-1-13.852 0-30.033 2.566-36 14.5-2.578 5.155 2 8.119 2 12.5 8.089 0 17.084-13 27-13ZM268 114c9.884 0 19.126 13 27 13 0-2.72 4.855-5.79 3-9.5-7.377-14.753-19.066-17.5-36-17.5-3.413 0-13 7.78-13 11 0 6.46-4.641 7 2 7 0-3.779 13.832-4 17-4Z"/><path fill="#23885E" id="ORBm5" d="M208 124h1c4.956 0 6-6.218 6-10v-1c-3.138 0-5.662-2-8-2 0 .693 3.419 9.459.5 8l-2.5-2 3 7ZM248 124h1c0-2.483 2-4.026 2-6-6.641 0-2-.54-2-7l-8 3c0 4.15 2.163 10 7 10Z"/><path fill="#228A5D" id="ORBl5" d="m161 127-1 5c4.198 0 8.866-5.183 12.5-7 4.722-2.361 8.818-1 13.5-1l2-10c-9.916 0-18.911 13-27 13Z"/><path fill="#23885C" id="ORBvl5" d="M186 124h22l-3-7c-5.285 0-10.714-3-17-3l-2 10Z"/><path fill="#24885D" id="ORBm2/3" d="M214 139h1c8.127 0 7-17.79 7-24-2.409 0-5.181-1-7-1 0 3.782-1.044 10-6 10 0 5.661 5 9.288 5 15ZM241 139h1c0-5.183 6-9.914 6-15-4.837 0-7-5.85-7-10-1.564 0-3.876 1-6 1 0 6.375-2.194 24 6 24Z"/><path fill="#23885C" id="ORBvl5" d="M249 124h21l-2-10c-3.168 0-17 .221-17 4 0 1.974-2 3.517-2 6Z"/><path fill="#228A5D" id="ORBl5" d="m295 127 2 5c-3.099 0-14.955-7.228-18.5-9-1.208-.604-7.5-.265-7.5 1h-1l-2-10c9.884 0 19.126 13 27 13Z"/><path fill="#23895D" id="ORBm1" d="m238 153-1 2c-2.25 0-3.376-2-5-2-2.246 0-3.1-10-3.5-10l-4.5 11c-1.033 0-6 2.19-6-1 0-4.178-3-8.833-3-14 8.127 0 7-17.79 7-24h13c0 6.375-2.194 24 6 24 0 5.291-3 9.193-3 14Z"/><path fill="#238A5E" id="ORBl2/3" d="M157 138c0 6.84-3 13.458-3 21 2.751 0 7.76-7.021 9-9.5 1.834-3.668 16.409-15.5 22-15.5 0-2.84 1-6.715 1-10-4.682 0-8.778-1.361-13.5 1-3.634 1.817-8.302 7-12.5 7h-1c0 1.357-.647 6-2 6ZM299 138c0 2.029 1.191 1.881 2 3.5l2 18.5-8.5-9c-8.652-4.326-11.294-17-22.5-17l-1-10c0-1.265 6.292-1.604 7.5-1 3.545 1.772 15.401 9 18.5 9l2 6Z"/><path fill="#248A5D" id="ORBvl2/3" d="M185 134c12.366 0 19.911 5 29 5 0-5.712-5-9.339-5-15h-23c0 3.285-1 7.16-1 10ZM272 134c-12.119 0-19.898 5-30 5 0-5.183 6-9.914 6-15h23l1 10Z"/><path fill="#238A5D" id="ORBl1" d="M153 169h3c1.37 0 13.772-20 19-20v-1l1-1 1-1 1-1 4-1 1-1 2-9c-5.591 0-20.166 11.832-22 15.5-1.24 2.479-6.249 9.5-9 9.5v1l-1 9Z"/><path fill="#248A5B" id="ORBvl1" d="M183 143c7.157 0 14.591.046 20.5 3 4.155 2.078 9.684 7 14.5 7 0-4.178-3-8.833-3-14h-1c-9.089 0-16.634-5-29-5l-2 9ZM238 153h3l2-1c0-4.593 24.531-9 30-9 0-3.222-1-6.277-1-9-12.119 0-19.898 5-30 5h-1c0 5.291-3 9.193-3 14Z"/><path fill="#238A5D" id="ORBl1" d="M301 169h3c0-2.097-1-5.293-1-8v-1l-8.5-9c-8.652-4.326-11.294-17-22.5-17 0 2.723 1 5.778 1 9l2 1 4 2 1 1 1 1c5.146 0 17.088 21 20 21Z"/><path fill="#209765" id="AId2/3" d="M154 159v1l-4.5 1c-5.651-2.826-13.5-13.767-13.5-20 0-2.658.873-1.187 2.5-2 7.606-3.803 10.731-1 18.5-1 0 6.84-3 13.458-3 21ZM303 160v1c7.213 0 18-13.614 18-20v-1c-1.671 0-7.702-3.101-9.5-4l-12.5 2c0 2.029 1.191 1.881 2 3.5l2 18.5Z"/><path fill="#209764" id="AId1" d="m154 160-1 9-3.5 1c-5.898-2.949-19.5-19.437-19.5-26 2.666 0 2.482-3 5-3h1c0 6.233 7.849 17.174 13.5 20l4.5-1ZM303 161c0 2.707 1 5.903 1 8 1.867 0 3.227 1.137 5.5 0 5.034-2.517 16.5-20.221 16.5-25-1.947 0-2.636-3-5-3 0 6.386-10.787 20-18 20Z"/><path fill="#99D2BD" id="OLF" d="m224 154 1 9-6.5-8c-4.887-2.444-23.5-11.185-23.5-1l-4-1c0-7.322-1.678-9-9-9l1-1c7.157 0 14.591.046 20.5 3 4.155 2.078 9.684 7 14.5 7 0 3.19 4.967 1 6 1ZM266 153c-2.25 0-3.376 2-5 2 0-11.006-11.257-3-18-3 0-4.593 24.531-9 30-9l2 1c-9.773 0-9 1.124-9 9Z"/><path fill="#9DF0D1" id="AOBgl" d="M191 153c-3.629 0-8.405 3-14 3-4.664 0-2-5.44-2-7v-1l1-1 1-1 1-1 4-1c7.322 0 9 1.678 9 9ZM266 153c3.823 0 8.037 3 13 3 6.258 0 2-5.702 2-8l-1-1-1-1-4-2c-9.773 0-9 1.124-9 9Z"/><path fill="#99D2BD" id="OLF" d="m178 145-1 1 1-1ZM279 146l1 1-1-1ZM176 147l-1 1 1-1ZM297 173c4.471 0 0 22.722 0 26 2.341 0 1.421-2.342 2-3.5 4.761-9.521 2-15.702 2-26.5-2.912 0-14.854-21-20-21 0 2.298 4.258 8-2 8l2 2.5-2 2.5h4c4.68 0 14 6.798 14 12ZM159 174c-2.273 0-2 5.226-2 7 0 6.377 4 15.626 4 21-3.395 0-3.072-6.643-4-8.5-4.478-8.957-1-14.849-1-24.5 1.37 0 13.772-20 19-20 0 1.56-2.664 7 2 7l-2 2.5 2 2.5h-4c-5.189 0-14 7.764-14 13Z"/><path fill="#9AD1BD" id="MOB" d="M191 245c1.539 0 10.94 6 20 6l4-3.5 5-8c.788-1.576 5.136-13.5 6-13.5v-8c0-1.406-.714-7 1-7v-38c-1.274 0-2-7.483-2-9v-1l-6.5-8c-4.887-2.444-23.5-11.185-23.5-1l1 5 1 3c2.109 0 2 2.535 2 4v3c0 3.824 3.045 11.409 1 15.5-.901 1.802-2 6.594-2 8.5 0 1.308-1.144 12-2 12 0 5.345-2 10.613-2 15 0 5.558-5 9.781-5 15l-1 5.5 3 4.5ZM246 251h1c10.004 0 18.484-8 21-8 0-2.707-1-5.903-1-8 0-5.724-5-10.235-5-16 0-4.017-2-8.279-2-13l-2-14c0-2.582-.821-8.141-2-10.5l1-12.5 1-3c-2.654 0 .733-4 2-4 0-1.048-.473-3 1-3v-4c0-11.006-11.257-3-18-3l-2 1-4 2c0 .515-5.559 9-6 9v2c0 1.145.579 4-1 4v53c1.219 0 2.311 9.122 3 10.5 1.012 2.024 12 17.365 12 17.5h1Z"/><path fill="#99D2BD" id="OLF" d="m243 152-2 1 2-1Z"/><path fill="#9DEFD2" id="AOBmi" d="M191 162h1l4-3-1-5-4-1c-3.629 0-8.405 3-14 3l-2 2.5 2 2.5 9 1h5Z"/><path fill="#99D2BD" id="OLF" d="M237 155c0 .515-5.559 9-6 9l1-11c1.624 0 2.75 2 5 2ZM241 153l-4 2 1-2h3Z"/><path fill="#9DEFD2" id="AOBmi" d="M265 162h6l8-1 2-2.5-2-2.5c-4.963 0-9.177-3-13-3-2.25 0-3.376 2-5 2v4l3 3h1Z"/><path fill="#99D2BD" id="OLF" d="M192 162h5l-1-3-4 3ZM260 162h4l-3-3c-1.473 0-1 1.952-1 3Z"/><path fill="#CACAC9" id="lotd" d="M159 174h1l5.5-7c1.446-.723 7.5-4.253 7.5-6-5.189 0-14 7.764-14 13Z"/><path fill="#54BF94" id="AON" fill-rule="evenodd" d="M192 220c0 5.512.634 0 0 0m-7 14 4 1c0-5.219 5-9.442 5-15-1.579 0-1-2.855-1-4 0-4.009-.333-9.167-2-12.5-.959-1.918-8.373-17.255-8-18 1.681-3.361 9 1.777 9 4.5 2.079 0 3.187 3 6 3 0-1.906 1.099-6.698 2-8.5 2.045-4.091-1-11.676-1-15.5-.781 0-6-3.19-6-4h-1l-1-1h-1l-4-2-9-1h-4c0 1.747-6.054 5.277-7.5 6l-5.5 7c0 3.378-2.904 10.693-1 14.5l13 28c2.935 5.869 13 11.46 13 17.5Z"/><path fill="#54BF94" id="AON" d="m271 234-4 1c0-5.724-5-10.235-5-16l2.5 4c1.361 0-1.5-4.891-1.5-5.5 0-3.795.396-9.792 2-13 1.194-2.389 8.842-17.316 8-19-1.733-3.466-8 1.546-8 4.5l-1 1c-2.011 0-3.989 1-6 1 0-2.582-.821-8.141-2-10.5l1-12.5c1.417 0 6-2.383 6-4l3-1c.671 0 5-1.328 5-2l8-1h4c0 4.014 13 7.028 13 13 0 2.762 3.873 6.755 2 10.5-4.945 9.889-8.006 21.013-13 31-2.908 5.816-14 12.5-14 18.5Z"/><path fill="#CACAC9" id="lotd" d="m297 173-1 1c0-5.972-13-8.986-13-13 4.68 0 14 6.798 14 12Z"/><path fill="#99D2BD" id="OLF" d="m191 162-1 2-4-2h5Z"/><path fill="#CACAC9" id="lotd" d="M193 165c2.124 0 4.436 1 6 1 0-1.465.109-4-2-4h-6l-1 2h1l1 1h1ZM263 165c-1.235 0-5-.643-5 1-2.654 0 .733-4 2-4h5l1 2-3 1Z"/><path fill="#99D2BD" id="OLF" d="M271 162c0 .672-4.329 2-5 2l-1-2h6ZM191 164l1 1-1-1ZM225 164c2.156 0 2 7.077 2 9-1.274 0-2-7.483-2-9ZM199 166v3c-.781 0-6-3.19-6-4 2.124 0 4.436 1 6 1ZM258 166l-1 3c1.417 0 6-2.383 6-4-1.235 0-5-.643-5 1ZM231 166c-1.579 0-1 2.855-1 4 1.579 0 1-2.855 1-4Z"/><path fill="#CAC8C7" id="lot" d="M280 229c-4.266 0-4.799 5-9 5 0-6 11.092-12.684 14-18.5 4.994-9.987 8.055-21.111 13-31 1.873-3.745-2-7.738-2-10.5l1-1c4.471 0 0 22.722 0 26v1l-1 1c0 5.852-5.443 14.385-8 19.5l-7 7.5-1 1ZM175 228c3.721 0 6.197 6 10 6 0-6.04-10.065-11.631-13-17.5l-13-28c-1.904-3.807 1-11.122 1-14.5h-1c-2.273 0-2 5.226-2 7 0 6.377 4 15.626 4 21 0 6.148 5.339 14.178 8 19.5l6 6.5Z"/><path fill="#99D2BD" id="OLF" d="M230 174c-1.763 0-1 8.343-1 10v28.5c0 1.532-.743 8.5 1 8.5v-47Z"/><path fill="#CBCBC7" id="aco" d="M196 205c0 5.345-2 10.613-2 15-1.579 0-1-2.855-1-4 0-4.009-.333-9.167-2-12.5-.959-1.918-8.373-17.255-8-18 1.681-3.361 9 1.777 9 4.5 0 5.277 4 10.073 4 15ZM260 206c0 4.721 2 8.983 2 13l2.5 4c1.361 0-1.5-4.891-1.5-5.5 0-3.795.396-9.792 2-13 1.194-2.389 8.842-17.316 8-19-1.733-3.466-8 1.546-8 4.5l-1 1c0 4.148-1.293 7.086-3 10.5-.574 1.147 1.064 4.5-1 4.5Z"/><path fill="#99D2BD" id="OLF" d="M198 193c0 1.308-1.144 12-2 12 0-4.927-4-9.723-4-15 2.079 0 3.187 3 6 3ZM265 190l-1 1 1-1ZM258 192l2 14c2.064 0 .426-3.353 1-4.5 1.707-3.414 3-6.352 3-10.5-2.011 0-3.989 1-6 1ZM297 200l-1 1 1-1Z"/><path fill="#C7CBCA" id="onl" d="M226 218h1v-7c-1.714 0-1 5.594-1 7Z"/><path fill="#99D2BD" id="OLF" d="M227 218c0 1.235.643 5-1 5v-5h1Z"/><path fill="#CBCBC7" id="aco" d="M192 220c0 5.512.634 0 0 0Z"/><path fill="#C7CBCA" id="onl" d="M230 223c1.219 0 2.311 9.122 3 10.5 1.012 2.024 12 17.365 12 17.5-12.578 0-15-18.335-15-28ZM226 226c-.864 0-5.212 11.924-6 13.5l-5 8-4 3.5c11.871 0 15-14.695 15-25Z"/><path fill="#99D2BD" id="OLF" d="m189 235-1 5.5 3 4.5c-1.061 0-16-14.534-16-17 3.721 0 6.197 6 10 6l4 1ZM281 228l-1 1 1-1ZM267 235c0 2.097 1 5.293 1 8 3.022 0 12-11.66 12-14-4.266 0-4.799 5-9 5l-4 1Z"/><path fill="#C7CBCA" id="onl" d="M246 251h1c0 1.186-1 1.186-1 0Z"/></svg>