<svg xmlns="http://www.w3.org/2000/svg" viewBox="0 0 456 320"><path fill="#1E9D5A" id="MOp1" d="M153 36v6l40-8v-5c-13.002 0-26.291 6-39 6l-1 1Z"/><path fill="#1E9C59" id="MOs1" d="M222 49h1l4-2c0-4.832-10.338-13.919-14.5-16-3.401-1.7-15.099-2-19.5-2v5c9.535 0 29 1.979 29 15ZM229 46l5 3c0-12.068 20.912-15 30-15l-1-5c-9.738 0-23.254 1.009-28 10.5l-6 6.5Z"/><path fill="#1E9D5A" id="MOp1" d="m302 35 1 7c-11.266 0-27.025-8-39-8l-1-5c13.103 0 26.279 6 39 6Z"/><path fill="#1F9C58" id="MOp2/3" d="M151 59v6c5.548 0 28.161-18 39-18l1-1c0-4.371 2-8.019 2-12l-40 8-2 17Z"/><path fill="#1E9D58" id="MOs2/3" d="m222 49-6 3-7.5-7c-4.502-2.251-13.24 1-17.5 1 0-4.371 2-8.019 2-12 9.535 0 29 1.979 29 15ZM234 49l6 3c.669 0 6.785-6.143 8.5-7 4.502-2.251 13.24 1 17.5 1 0-3.765-2-7.772-2-12-9.088 0-30 2.932-30 15Z"/><path fill="#1F9C58" id="MOp2/3" d="M305 58v7l-9.5-6c-6.856-3.428-20.968-12-28.5-12l-1-1c0-3.765-2-7.772-2-12 11.975 0 27.734 8 39 8 0 5.988 2 9.781 2 16Z"/><path fill="#187F60" id="SSp-ll1" d="m154 35-1 1 1-1ZM313 45h1l1-6-13-4 1 7c3.285 0 7.16 3 10 3ZM142 45h1l10-3v-6l-12 3 1 6Z"/><path fill="#197E64" id="SSp-ul1" d="M104 57c0 1.041.986 5 2 5 7.903 0 26.023-17 36-17l-1-6c-3.879 0-26.692 10.192-29.5 13-1.474 1.474-7.5 2.569-7.5 5ZM350 63h1c0-2.483 2-4.026 2-6l-12.5-8c-4.665-2.333-20.895-10-25.5-10l-1 6c4.786 0 25.065 9.565 28.5 13 1.459 1.46 7.5 2.27 7.5 5Z"/><path fill="#187F64" id="SSp-ll2/3" d="M146 59h5l2-17-10 3c0 5.054 3 9.261 3 14ZM310 59h1c0-5.002 2-8.614 2-14-2.84 0-6.715-3-10-3 0 5.988 2 9.781 2 16l5 1Z"/><path fill="#197F61" id="SSp-ul2/3" d="M111 75h1c0-2.441 6.845-4.173 8.5-5 6.421-3.21 18.258-10 25.5-10v-1c0-4.739-3-8.946-3-14h-1c-9.977 0-28.097 17-36 17v1c1.041 0 5 10.421 5 12Z"/><path fill="#1F9D58" id="MOs5" d="M187 63c3.57 0 9.08-4.21 13.5-2l3.5 2c3.031 0 7.344-10 12-10v-1l-7.5-7c-4.502-2.251-13.24 1-17.5 1l-1 1c0 5.75-3 9.965-3 16ZM253 63c1.835 0 4.235-2 7-2 4.113 0 6.422 2 10 2 0-5.568-3-10.08-3-16l-1-1c-4.26 0-12.998-3.251-17.5-1-1.715.857-7.831 7-8.5 7v1c5.954 0 8.205 10 13 10Z"/><path fill="#197F61" id="SSp-ul2/3" d="M344 75h1l5-12c0-2.73-6.041-3.54-7.5-5-3.435-3.435-23.714-13-28.5-13h-1c0 5.386-2 8.998-2 14 0 1.722 5.235 2.368 6.5 3 3.395 1.698 26.5 10.181 26.5 13Z"/><path fill="#3EA665" id="ACAd1" d="M223 73h10c0-7.895 1-16.783 1-24l-5-3c0 2.73-.423 1-2 1l-4 2v24Z"/><path fill="#1E9C5A" id="MOp5" d="m151 74-1 7c9.336 0 30.69-17 36-17l1-1c0-6.035 3-10.25 3-16-10.839 0-33.452 18-39 18v9ZM306 72v9c-8.998 0-30.245-17-36-17v-1c0-5.568-3-10.08-3-16 7.532 0 21.644 8.572 28.5 12l9.5 6 1 1v6Z"/><path fill="#40A565" id="ACAd2/3" d="m223 73-5 1-1-16c0-1.234.643-5-1-5v-1l6-3h1v24ZM233 73c2.483 0 4.026 2 6 2 0-7.293 1-15.359 1-22v-1l-6-3c0 7.217-1 16.105-1 24Z"/><path fill="#3EA566" id="ACAd5" d="M205 81h1c1.422 0 7.632-6 12-6v-1l-1-16c0-1.234.643-5-1-5-4.656 0-8.969 10-12 10v1c0 5.046 1 11.325 1 17ZM239 75c4.647 0 8.128 6 12 6 0-2.992.075-17 2-17v-1c-4.795 0-7.046-10-13-10 0 6.641-1 14.707-1 22Z"/><path fill="#1B8062" id="SSp-un1" d="m92 65 3 5c3.645 0 6.841-7 11-7v-1c-1.014 0-2-3.959-2-5-2.044 0-12 5.8-12 8ZM364 64c0 2.073-2 3.674-2 6l-11-7c0-2.483 2-4.026 2-6 3.988 0 7.383 7 11 7Z"/><path fill="#1C7F64" id="SSp-ll4" d="M306 66h2c1.175 0 2-5.704 2-7l-5-1v7l1 1ZM151 65l-3 1c0-.986-1.087-6-2-6v-1h5v6Z"/><path fill="#1A7F63" id="SSp-ul4" d="M344 75c0 1.416-1.031 7-3 7-9.895 0-22.522-15-33-15v-1c1.175 0 2-5.704 2-7h1c0 1.722 5.235 2.368 6.5 3 3.395 1.698 26.5 10.181 26.5 13ZM112 75c0 2.18 3 5.188 3 7 9.766 0 22.891-15 33-15v-1c0-.986-1.087-6-2-6-7.242 0-19.079 6.79-25.5 10-1.655.827-8.5 2.559-8.5 5Z"/><path fill="#1D9C5A" id="MOs6a" d="m192 84-7 1c-1.665 0-1-4.222-1-5.5l2-15.5 1-1c3.57 0 9.08-4.21 13.5-2l3.5 2v1c-2.037 0-12 17.537-12 20ZM264 84l8 2c0-7.67-2-15.257-2-22v-1c-3.578 0-5.887-2-10-2-2.765 0-5.165 2-7 2v1c0 1.735 11 13.848 11 20Z"/><path fill="#1C7F63" id="SSp-un2/3" d="m111 75-11 6-5-10v-1c3.645 0 6.841-7 11-7 1.041 0 5 10.421 5 12ZM356 81h1c0-1.898 2.74-10 5-10v-1l-11-7h-1l-5 12 11 6Z"/><path fill="#1F9B5A" id="MOp6a" d="m155 99-5 1V81c9.336 0 30.69-17 36-17l-2 15.5c0 1.278-.665 5.5 1 5.5v1l-6 3c-1.85 0-9 1.784-9 4-1.896 0-11 2.08-11 4l-4 2Z"/><path fill="#3FA664" id="ACAd6a" d="M192 85c2.364 0 3.053 3 5 3 1.518 0 8-5.218 8-7 0-5.675-1-11.954-1-17-2.037 0-12 17.537-12 20v1ZM259 89h1c0-2.226 1.774-4 4-4v-1c0-6.152-11-18.265-11-20-1.925 0-2 14.008-2 17l8 8Z"/><path fill="#1F9B5A" id="MOp6a" d="m272 86 34 14V81c-8.998 0-30.245-17-36-17 0 6.743 2 14.33 2 22Z"/><path fill="#197E63" id="SSp-n1" d="m395 111 8 3c0-9.301-20.938-37.72-27.5-41-3.771-1.885-7.847-9-11.5-9 0 2.073-2 3.674-2 6v1c4.011 0 7.724 5.224 11 8.5 5.925 5.925 22 22.129 22 30.5v1ZM61 111c-2.191 0-7 4.17-7 3 0-9.255 18.355-36.428 27.5-41 3.886-1.943 5.838-8 10.5-8l3 5v1c-8.38 0-33 30.762-33 39l-1 1Z"/><path fill="#197C63" id="SSp-ll5" d="M148 67c2.102 0 .058 7 3 7v-9l-3 1v1ZM308 67c0 1.041-.986 5-2 5v-6h2v1Z"/><path fill="#187E62" id="SSp-ul5" d="M120 94h1l5.5-3c6.378-3.19 16.238-10 23.5-10l1-7c-2.942 0-.898-7-3-7-10.109 0-23.234 15-33 15v1c1.221 0 5 9.474 5 11ZM341 83l-5 10c-8.373 0-20.639-12-30-12v-9c1.014 0 2-3.959 2-5 10.478 0 23.105 15 33 15v1Z"/><path fill="#1B7F64" id="SSp-n2/3" d="M75 104c-4.892 0-8.767 6-13 6 0-8.238 24.62-39 33-39l5 10c-4.5 0-23 17.24-23 21l-1 1-1 1ZM381 103l14 7c0-8.371-16.075-24.575-22-30.5-3.276-3.276-6.989-8.5-11-8.5-2.26 0-5 8.102-5 10l7.5 4c3.06 1.53 15.5 15.923 15.5 18h1Z"/><path fill="#3FA566" id="ACAv2/3" d="m221 107-3 1V74l5-1c0 10.742-1 21.854-1 32l-1 2Z"/><path fill="#40A664" id="ACAv1" d="M227 100c-2.832 0-2.953 5-5 5 0-10.146 1-21.258 1-32h10c0 10.487 1 21.065 1 31l-5-5c0-4.347-2-2.153-2 1Z"/><path fill="#3FA566" id="ACAv2/3" d="m235 106 3 2c0-10.562 1-21.872 1-33-1.974 0-3.517-2-6-2 0 10.487 1 21.065 1 31l1 2Z"/><path fill="#197E61" id="SSp-un4" d="M108 86h1l6-3v-1c0-1.812-3-4.82-3-7h-1l-11 6 3 7c1.624 0 2.75-2 5-2Z"/><path fill="#3EA666" id="ACAv5" d="m210 105 8 3V75c-4.368 0-10.578 6-12 6l1 15.5 3 8.5ZM247 105c-2.99 0-5.717 3-9 3 0-10.562 1-21.872 1-33 4.647 0 8.128 6 12 6 0 7.674-4 15.776-4 23v1Z"/><path fill="#197E61" id="SSp-un4" d="M348 86c2.688 0 3.418 1 5 1 1.89 0 3-4.598 3-6l-11-6h-1c0 1.416-1.031 7-3 7v1l6 3h1Z"/><path fill="#1A8062" id="SSp-n4" d="M93 97c-5.39 0-10.29 5-16 5 0-3.76 18.5-21 23-21l3 7c-1.186 0-1.186 1 0 1l-1 1-1 1-5 4-3 2Z"/><path fill="#197D61" id="SSp-ul6a" d="M129 109h2c0-2.109 2.535-2 4-2 0-2.109 2.535-2 4-2 0-1.638 3.576-2 5-2l6-3V81c-7.262 0-17.122 6.81-23.5 10l-5.5 3c0 3.47 4 6.007 4 9l3 6h1Z"/><path fill="#40A564" id="ACAv6a" d="M209 105h1l-3-8.5-1-15.5h-1c0 1.782-6.482 7-8 7v1c0 5.747 10 8.563 10 14v1h1l1 1ZM248 104h1v-1c0-1.747.253-2 2-2 0-1.747.253-2 2-2 0-1.747.253-2 2-2 0-1.747.253-2 2-2l2-4v-2l-8-8c0 7.674-4 15.776-4 23h1Z"/><path fill="#197D61" id="SSp-ul6a" d="m332 103-4 6c-7.473 0-14.274-9-22-9V81c9.361 0 21.627 12 30 12v1l-3 7-1 2Z"/><path fill="#1A8062" id="SSp-n4" fill-rule="evenodd" d="M354 88c0 1.93 1.93 0 0 0m10 9c4.981 0 12.297 6 16 6 0-2.077-12.44-16.47-15.5-18l-7.5-4h-1c0 1.402-1.11 6-3 6l1 3c1.247 0 5 2.467 5 4l2 1 2 2h1Z"/><path fill="#197D62" id="SSp-un5" d="M119 94h1c0-1.526-3.779-11-5-11l-6 3c4.274 0 6.888 8 10 8ZM336 94h2c0-3.388 9-6.575 9-8l-6-3-5 10v1Z"/><path fill="#1E9C58" id="MOs6b" d="M185 86v1l7-2v-1l-7 1v1ZM272 86v1l-7-2h-1v-1l8 2Z"/><path fill="#CACCC7" id="cing" d="M207 103v1c-8.491 0-11.057-10.278-16.5-13-7.358-3.679-15.195 5-21.5 5l-1 1h-5c0-2.985 7-.62 7-4 1.831 0 9-2.183 9-4 2.483 0 4.026-2 6-2l7-2 4 4c0 3.05 7.19 14 11 14Z"/><path fill="#3FA466" id="ACAd6b" d="M196 89h1v-1c-1.947 0-2.636-3-5-3l4 4ZM260 89h1l4-4h-1c-2.226 0-4 1.774-4 4Z"/><path fill="#CACCC7" id="cing" d="M249 103v1c8.155 0 11.35-9.925 17.5-13 6.891-3.445 14.613 5 20.5 5l1 1h5c0-2.871-3.13-1.315-4.5-2L272 87l-7-2-4 4-2 2c0 1.466.109 4-2 4 0 1.747-.253 2-2 2 0 1.747-.253 2-2 2 0 1.747-.253 2-2 2l-2 2Z"/><path fill="#1B7F62" id="SSp-m4" d="m353 87 1 3-6-4c2.688 0 3.418 1 5 1ZM103 88c-1.186 0-1.186 1 0 1 1.238 0 5-1.923 5-3-2.25 0-3.376 2-5 2Z"/><path fill="#1B7E63" id="SSp-m5" d="m70 135 10 5 3-6.5c7.688-15.376 7.335-23.918 24.5-32.5 3.805-1.902 6.952-6 11.5-6v-1c-3.112 0-5.726-8-10-8h-1c0 1.077-3.762 3-5 3l-1 1-1 1c0 2.385-5 5.195-5 4l-3 2-9 10.5c-3.349 6.697-14 20.388-14 27.5Z"/><path fill="#1D9D5A" id="MOp6b" d="M185 87c-1.974 0-3.517 2-6 2l6-3v1ZM306 100v1c-5.006 0-7.752-4-13-4 0-2.871-3.13-1.315-4.5-2L272 87v-1l34 14Z"/><path fill="#1B7E63" id="SSp-m5" d="M376 141h1c0-1.67 8.328-6 10-6 0-5.536-13.014-23.529-16-29.5-1.013-2.026-7-5.31-7-8.5h-1l-2-2-2-1c-1.726 0-5-.582-5-4l-6-4h-1c0 1.425-9 4.612-9 8v1c5.187 0 9.111 5.806 13.5 8 11.467 5.733 24.5 25.462 24.5 38Z"/><path fill="#1B7F62" id="SSp-m4" d="M354 88c0 1.93 1.93 0 0 0Z"/><path fill="#1D9D5A" id="MOp6b" d="M179 89c-1.85 0-9 1.784-9 4 1.831 0 9-2.183 9-4Z"/><path fill="#40A465" id="ACAv6b" d="M197 89c0 5.747 10 8.563 10 14-3.81 0-11-10.95-11-14h1ZM261 89l-2 2v-2h2Z"/><path fill="#197E62" id="SSp-n5" d="m102 90-1 1 1-1ZM354 90c1.247 0 5 2.467 5 4-1.726 0-5-.582-5-4ZM101 91l-5 4c0 1.195 5-1.615 5-4Z"/><path fill="#C9C7C9" id="ccb" d="M365 168h1l-1-6-2-2-1-5-1-1v-2c-2.268 0-5.1-9.7-6-11.5-3.991-7.983-13.93-21.215-22.5-25.5-10.349-5.175-21.789-7.895-32-13-1.648-.824-10.5-3.156-10.5-5h-2l-1-1c-5.887 0-13.609-8.445-20.5-5-6.15 3.075-9.345 13-17.5 13h-1l-1 1c-2.99 0-5.717 3-9 3l-3-2c0 3.954-12.073 1-14 1l-3 1-8-3h-1l-1-1h-1c-8.491 0-11.057-10.278-16.5-13-7.358-3.679-15.195 5-21.5 5l-1 1h-1l-9.5 5c-3.533 1.767-8.474 1.237-12 3L123 115c0 1.911-3.805 5-6 5l-1 1-1 1-1 1c0 1.668-3.099 6-5 6 0 1.429-1.288 4-3 4 0 1.738-3.015 8-5 8l-2 4-2 4-1 2-1 2v2l-1 1v2l-1 1c0 2.885-2 4.697-2 8 2.264 0 3.193-7.885 4-9.5 2.07-4.14 11.04-22.77 14.5-24.5 6.48-3.24 11.944-13.972 20-18 9.925-4.962 22.154-5.077 32-10l13.5 1c0-11.697 28 3.306 28 6l2 1c4.73 0 8.404 3 13 3l4 2c1.048 0 3-.473 3 1h2c0-2.202 3-2.202 3 0h1c0-1.473 1.952-1 3-1 5.801 0 11.423-5 18-5h1l1-1 1-1h1c0-1.577 1.762-2 3-2 0-4.626 22-11.688 22-3l13.5-1c6.915 3.457 16.109 2.554 23 6 15.98 7.99 29.206 18.911 37.5 35.5 3.06 6.12 10 14.462 10 21.5Z"/><path fill="#40A465" id="ACAv6b" d="m259 91-2 4c2.109 0 2-2.534 2-4Z"/><path fill="#1D9D5A" id="MOp6b" d="M159 97h4c0-2.985 7-.62 7-4-1.896 0-11 2.08-11 4Z"/><path fill="#1A7F61" id="SSp-un6a" d="M119 95c0 1.855 4.45 8 6 8 0-2.993-4-5.53-4-9h-2v1ZM338 95c-2.619 0-2.001 6-5 6l3-7h2v1Z"/><path fill="#187D61" id="SSp-m6a" d="m80 141 15 7c0-1.85 10.288-19 12-19 0-3.611 10.284-14 14-14 0-2.177 4.336-4 6-4l1-2-3-6c-1.55 0-6-6.145-6-8-4.548 0-7.695 4.098-11.5 6-17.165 8.582-16.812 17.124-24.5 32.5l-3 6.5v1Z"/><path fill="#40A465" id="ACAv6b" d="M257 95c-1.747 0-2 .253-2 2 1.747 0 2-.253 2-2Z"/><path fill="#187D61" id="SSp-m6a" d="m376 141-15 7c0-8.065-24.067-38-33-38v-1l4-6 1-2c2.999 0 2.381-6 5-6 5.187 0 9.111 5.806 13.5 8 11.467 5.733 24.5 25.462 24.5 38Z"/><path fill="#197E62" id="SSp-n5" d="m361 95 2 2-2-2Z"/><path fill="#C9C9CA" id="scwm" d="m169 96-1 1 1-1ZM287 96l1 1-1-1Z"/><path fill="#1B7F62" id="SSp-m4" d="M69 135h1c0-7.112 10.651-20.803 14-27.5L93 97c-5.39 0-10.29 5-16 5l-1 1-1 1c0 9.026-10 17.601-10 27v1l4 3Z"/><path fill="#1D9D5A" id="MOp6b" d="m159 97-4 2c1.465 0 4 .109 4-2Z"/><path fill="#C9C9CA" id="scwm" d="m127 111-4 4 22.5-10c3.526-1.763 8.467-1.233 12-3l9.5-5h-8c0 2.109-2.535 2-4 2 0 1.638-3.576 2-5 2 0 1.353-4.643 2-6 2 0 2.461-3.378 2-5 2l-4 2c0 2.109-2.535 2-4 2l-2 1-2 1Z"/><path fill="#40A465" id="ACAv6b" d="M255 97c-1.747 0-2 .253-2 2 1.747 0 2-.253 2-2Z"/><path fill="#C9C9CA" id="scwm" d="M361 149v3c-2.268 0-5.1-9.7-6-11.5-3.991-7.983-13.93-21.215-22.5-25.5-10.349-5.175-21.789-7.895-32-13-1.648-.824-10.5-3.156-10.5-5h3c5.248 0 7.994 4 13 4 7.486 0 14.865 10 22 10 6.623 0 23.833 21.166 27 27.5.865 1.73 3.947 10.5 6 10.5Z"/><path fill="#1B7F62" id="SSp-m4" d="M392 132c-2.364 0-3.053 3-5 3 0-5.536-13.014-23.529-16-29.5-1.013-2.026-7-5.31-7-8.5 4.981 0 12.297 6 16 6h1c0 .784 8.082 21.582 8.5 22 1.034 1.034.854 6 2.5 6v1Z"/><path fill="#1D9D5A" id="MOp6b" d="M150 100v1c1.424 0 5-.362 5-2l-5 1Z"/><path fill="#7ED04B" id="IG" d="M235 106c0 3.954-12.073 1-14 1l1-2c2.047 0 2.168-5 5-5 1.577 0 2 1.729 2-1l5 5 1 2Z"/><path fill="#40A465" id="ACAv6b" d="M253 99c-1.747 0-2 .253-2 2 1.747 0 2-.253 2-2Z"/><path fill="#1C8064" id="SSp-ul6b" d="M150 101c0 1.353-4.643 2-6 2l6-3v1ZM328 110v1c-7.135 0-14.514-10-22-10v-1c7.726 0 14.527 9 22 9v1Z"/><path fill="#40A465" id="ACAv6b" d="M251 101c-1.747 0-2 .253-2 2l2-2Z"/><path fill="#1A7F61" id="SSp-un6a" d="m333 101-1 2 1-2Z"/><path fill="#1A8062" id="SSp-n4" d="m77 102-1 1 1-1Z"/><path fill="#AAA8A9" id="SEZ" d="M179 108c0-11.606 20.182 4 24 4 0-2.694-28-17.697-28-6l4 2ZM259 109c5.779 0 18-12.693 18 0l4-3c0-8.688-22-1.626-22 3Z"/><path fill="#1C8064" id="SSp-ul6b" d="M144 103c-1.424 0-5 .362-5 2 1.622 0 5 .461 5-2Z"/><path fill="#1A7E64" id="SSp-m2/3" fill-rule="evenodd" d="M393 110c0 1.93 1.93 0 0 0m7 15c0 2.345-5.549 6-8 6-1.646 0-1.466-4.966-2.5-6-.418-.418-8.5-21.216-8.5-22l14 7v1c0 4.443 5 9.051 5 14Z"/><path fill="#1A7E64" id="SSp-m2/3" d="M56 126c3.246 0 5.018 5 9 5 0-9.399 10-17.974 10-27-4.892 0-8.767 6-13 6l-1 1-5 15Z"/><path fill="#A8AAAA" id="VL" d="M191 147c0 1.145.579 4-1 4 0-7.345 1.128-19.243-2-25.5-2.386-4.772-9-12.074-9-17.5 0-11.606 20.182 4 24 4l2 1-8 11.5c-3.12 6.241-6 12.969-6 20.5v2Z"/><path fill="#CACCC7" id="cing" d="m208 104 1 1-1-1ZM248 104l-1 1v-1h1Z"/><path fill="#A8AAAA" id="VL" d="M264 181h2l1-2v-48.5c1.516-3.032 10-19.556 10-21.5 0-12.693-12.221 0-18 0 0 1.577-1.762 2-3 2h-1l-1 1-1 1h-1c0 4.154 5.239 6.978 7 10.5 3.433 6.865 6 13.126 6 21.5v27c0 3.013-1 6.611-1 9Z"/><path fill="#1C8064" id="SSp-ul6b" d="M139 105c-1.465 0-4-.109-4 2l4-2Z"/><path fill="#98D5F9" id="CP" d="m103 225 7.5 6 5.5 3 11.5 2c15.325-7.662 25.158-2.158 40.5-17.5l6-6c3.793-7.585-.982-37.759 6.5-41.5 2.675-1.337 3.98 4.01 6 3 1.553-.777.665-7 2.5-7 0-1.824-.781-12 1-12v-4c0-7.345 1.128-19.243-2-25.5-2.386-4.772-9-12.074-9-17.5l-4-2-13.5-1c-9.846 4.923-22.075 5.038-32 10-8.056 4.028-13.52 14.76-20 18-3.46 1.73-12.43 20.36-14.5 24.5-.807 1.615-1.736 9.5-4 9.5v1l-1 1v1c0 1.048.473 3-1 3v2c0 8.955 4 16.677 4 25v1c1.605 0 4 9.295 4 11v1l6 11v1ZM353 225c-4.044 0-8.366 9-13 9-2.895 0-8.441 3.529-11.5 2-13.966-6.983-36.539-4.579-45.5-22.5-4.866-9.732.857-24.287-4-34-1.508-3.017 1.786-6.357-2.5-8.5-3.14-1.57-4.013 3-6 3-2.717 0-1.259-9-3.5-9v-34.5c1.516-3.032 10-19.556 10-21.5l4-3 13.5-1c6.915 3.457 16.109 2.554 23 6 15.98 7.99 29.206 18.911 37.5 35.5 3.06 6.12 10 14.462 10 21.5l2 3v3c0 7.353-2 13.389-2 20v1c-1.473 0-1 1.952-1 3-1.473 0-1 1.952-1 3-1.212 0-4 10.357-4 12v1l-1 2-1 1v1l-1 2-1 1v1l-1 1-1 2Z"/><path fill="#1C8064" id="SSp-ul6b" d="M135 107c-1.465 0-4-.109-4 2 1.465 0 4 .109 4-2Z"/><path fill="#188064" id="SSp-m6b" d="m129 110-2 1 1-2h1v1Z"/><path fill="#1C8064" id="SSp-ul6b" d="m131 109-2 1v-1h2Z"/><path fill="#AAA8A9" id="SEZ" d="M259 109c-1.238 0-3 .423-3 2 1.238 0 3-.423 3-2Z"/><path fill="#188064" id="SSp-m6b" d="M361 148v1c-2.053 0-5.135-8.77-6-10.5-3.167-6.334-20.377-27.5-27-27.5v-1c8.933 0 33 29.935 33 38Z"/><path fill="#1B7F64" id="SSp-n2/3" d="M393 110c0 1.93 1.93 0 0 0Z"/><path fill="#187E61" id="SSp-m1" d="M55 126h1l5-15c-2.191 0-7 4.17-7 3-1.069 0-3 6.717-3 8l4 4Z"/><path fill="#188064" id="SSp-m6b" d="M121 115h2l4-4c-1.664 0-6 1.823-6 4Z"/><path fill="#AAA8A9" id="SEZ" d="m255 111-1 1 1-1Z"/><path fill="#187E61" id="SSp-m1" d="M400 125h1c2.364 0 3.053-3 5-3l-3-8-8-3c0 4.443 5 9.051 5 14Z"/><path fill="#AAA8A9" id="SEZ" d="m254 112-1 1 1-1Z"/><path fill="#90CBEC" id="LSc" d="M191 145h2c3.197 0 4.584-5.042 6.5-6 3.992-1.996 22.5-15.928 22.5-20v-1l-4-2c-4.596 0-8.27-3-13-3l-8 11.5c-3.12 6.241-6 12.969-6 20.5ZM264 145h1c0-8.374-2.567-14.635-6-21.5-1.761-3.522-7-6.346-7-10.5-6.577 0-12.199 5-18 5v1c0 5.163 17.988 15.488 22 19.5 2.08 2.08 5.026 6.5 8 6.5Z"/><path fill="#188064" id="SSp-m6b" d="M107 129h2c0-2.319 2.595-6 5-6l1-1 1-1 1-1 4-5c-3.716 0-14 10.389-14 14Z"/><path fill="#C9C9CA" id="scwm" d="M123 115c0 1.911-3.805 5-6 5l4-5h2Z"/><path fill="#97D6F9" id="STR" d="M227 119c0 3.803 2.524 0 3 0 0-2.202-3-2.202-3 0ZM222 119h3c0-1.473-1.952-1-3-1v1ZM231 119h3v-1c-1.048 0-3-.473-3 1Z"/><path fill="#90CAED" id="LSr" d="M264 171h1v-25l-1-1c-2.974 0-5.92-4.42-8-6.5-4.012-4.012-22-14.337-22-19.5h-4c-.476 0-3 3.803-3 0h-5c0 4.072-18.508 18.004-22.5 20-1.916.958-3.303 6-6.5 6l-2 2c0 1.145.579 4-1 4v4c0 2.267.443 16 2 16l3.5-2c3.759 0 8.29 5 11.5 5 0-.969 1.147-7 2-7v-2c0-1.874 1.261-10 3-10l1-2c0-3.047 3-4.462 3-7 0-3.576 7.76-9.019 9-11.5l3.5-7.5 4.5 9.5 8 10.5 2 4 1 1v1c1.951 0 .477 2.454 1 3.5 1.482 2.964 3 7.042 3 10.5v3c1.579 0 1 2.855 1 4 .665 0 10.19-4.345 11.5-5l3.5 2Z"/><path fill="#C9C9CA" id="scwm" d="m117 120-1 1 1-1ZM116 121l-1 1 1-1Z"/><path fill="#1A7E62" id="SSs1" d="M42 177h5c0-6.171-2.874-21.752 0-27.5 1.536-3.072 8-20.808 8-23.5l-4-4c-1.907 0-4.112 10.725-5 12.5-6.359 12.718-4 28.252-4 42.5Z"/><path fill="#C9C9CA" id="scwm" d="m115 122-1 1 1-1Z"/><path fill="#1A7E62" id="SSs1" d="M410 177h5c0-8.612 1.182-30.137-2-36.5l-7-18.5c-1.947 0-2.636 3-5 3 0 6.35 5.189 16.877 8 22.5 2 4 1 23.604 1 29.5Z"/><path fill="#C9C9CA" id="scwm" d="M114 123c-2.405 0-5 3.681-5 6 1.901 0 5-4.332 5-6Z"/><path fill="#1B8063" id="SSs2/3" d="m401 175 9 2c0-5.896 1-25.5-1-29.5-2.811-5.623-8-16.15-8-22.5h-1c0 2.345-5.549 6-8 6v1l5 12.5c4.134 8.268 4 20.583 4 30.5ZM55 175l-8 2c0-6.171-2.874-21.752 0-27.5 1.536-3.072 8-20.808 8-23.5h1c3.246 0 5.018 5 9 5v1c-2.55 0-3.117 8.735-4 10.5-4.672 9.343-6 21.294-6 32.5Z"/><path fill="#8FCBEC" id="SF" d="M215 190c5.416 0 1.142 5.179 9.5 1 1.862-.931 2.009-9 4-9l.5 3.5 4.5 6.5c4.315 2.157 4.273-1 7.5-1 0-6.141 8-15.009 8-17 0-1.145.579-4-1-4-2.328 0-2.299 5.1-8.5 2-2.734-1.367-1.767-8.617 1-10 4.1-2.05 5.467 5 7.5 5 0-3.458-1.518-7.536-3-10.5-.523-1.046.951-3.5-1-3.5 0 19.306-15.176-6-3-6l-8-10.5-4.5-9.5-3.5 7.5c-1.24 2.481-9 7.924-9 11.5 11.447 0-4 24.846-4 9-1.739 0-3 8.126-3 10 2.456 0 3.911-4.795 7.5-3 8.96 4.48-7.5 19.297-7.5 5-.853 0-2 6.031-2 7 0 2.112 8 9.687 8 16Z"/><path fill="#188064" id="SSp-m6b" d="M96 149h1c0-1.465-.109-4 2-4 0-1.465-.109-4 2-4 0-1.846 2.551-8 5-8l1-4c-1.712 0-12 17.15-12 19v1h1Z"/><path fill="#C9C9CA" id="scwm" d="M109 129c0 1.429-1.288 4-3 4l1-4h2Z"/><path fill="#187C63" id="SSs4" d="M55 175h6c0-6.092 1.671-22.842 4-27.5 1.903-3.806 4-7.941 4-12.5l-4-3c-2.55 0-3.117 8.735-4 10.5-4.672 9.343-6 21.294-6 32.5ZM395 175h6c0-9.917.134-22.232-4-30.5l-5-12.5c-2.364 0-3.053 3-5 3 0 3.771 2.388 8.277 4 11.5 2.894 5.787 4 20.961 4 28.5Z"/><path fill="#C9C9CA" id="scwm" d="M106 133c-2.449 0-5 6.154-5 8 1.985 0 5-6.262 5-8Z"/><path fill="#1C8063" id="SSs5" d="M74 174c-3.629 0-8.716 1-13 1 0-6.092 1.671-22.842 4-27.5 1.903-3.806 4-7.941 4-12.5h1l10 5v1l-5 14.5c-2.281 4.562-1 13.099-1 18.5ZM383 175h12c0-7.539-1.106-22.713-4-28.5-1.612-3.223-4-7.729-4-11.5-1.672 0-10 4.33-10 6 0 4.154 2.234 8.969 4 12.5 2.68 5.361 2 14.077 2 20.5v1Z"/><path fill="#197D63" id="SSs6a" d="M85 175h2c0-7.953 8-19.828 8-26v-1l-15-7-5 14.5c-2.281 4.562-1 13.099-1 18.5 2.998 0 7.358 1 11 1Z"/><path fill="#C9C9CA" id="scwm" d="M101 141c-2.109 0-2 2.535-2 4l2-4Z"/><path fill="#197D63" id="SSs6a" d="M370 175h1c4.43 0 9.168-1 12-1 0-6.423.68-15.139-2-20.5-1.766-3.531-4-8.346-4-12.5h-1l-15 7v1c2.729 0 1.254 5.007 2 6.5 2.975 5.949 6 12.358 6 19.5h1Z"/><path fill="#C9C9CA" id="scwm" d="M99 145c-2.109 0-2 2.535-2 4l2-4Z"/><path fill="#97D6F9" id="STR" d="m193 145-2 2v-2h2ZM265 145v1l-1-1h1Z"/><path fill="#CBC8CB" id="fi" d="m213 153-1 2c0 15.846 15.447-9 4-9 0 2.538-3 3.953-3 7ZM244 152v1c0 19.306-15.176-6-3-6l2 4 1 1Z"/><path fill="#1A8061" id="SSs6b" d="M88 175h1v-2c0-1.048-.473-3 1-3v-2l1-1c0-3.303 2-5.115 2-8l1-1v-2l1-1v-2l1-2v-2h-1c0 6.172-8 18.047-8 26h1Z"/><path fill="#C9C9CA" id="scwm" d="m97 149-1 2v-2h1Z"/><path fill="#1A8061" id="SSs6b" d="M368 175h1c0-7.142-3.025-13.551-6-19.5-.746-1.493.729-6.5-2-6.5v5l1 1 1 5 2 2 1 6 1 3v3l1 1Z"/><path fill="#C9C9CA" id="scwm" d="m96 151-1 2 1-2Z"/><path fill="#8FCBEC" id="SF" d="m243 151 1 1-1-1ZM213 153l-1 2 1-2Z"/><path fill="#C9C9CA" id="scwm" d="m361 154 1 1-1-1ZM95 155l-1 1 1-1Z"/><path fill="#A8AAAA" id="VL" d="M191 181h1v-10c-1.557 0-2-13.733-2-16-1.781 0-1 10.176-1 12l1 13 1 1Z"/><path fill="#C9C9CA" id="scwm" d="m94 158-1 1 1-1ZM363 160l2 2-2-2Z"/><path fill="#C7C8CA" id="fx" d="M209 165c2.456 0 3.911-4.795 7.5-3 8.96 4.48-7.5 19.297-7.5 5v-2ZM248 167c-2.033 0-3.4-7.05-7.5-5-2.767 1.383-3.734 8.633-1 10 6.201 3.1 6.172-2 8.5-2v-3Z"/><path fill="#97D6F9" id="STR" d="M328 265h1c0-3.607-3.995-6.51-1-12.5l7-11 3-2.5 2-4v-1c-2.895 0-8.441 3.529-11.5 2-13.966-6.983-36.539-4.579-45.5-22.5-4.866-9.732.857-24.287-4-34-1.508-3.017 1.786-6.357-2.5-8.5-3.14-1.57-4.013 3-6 3-2.717 0-1.259-9-3.5-9v14c.116 0 5-4.772 5 0l1 1v1l4 5c0-.344 2 8.132 2 12 0 5.666 2 10.844 2 17 1.484 0 10.852 6.324 7.5 8l-7.5-1-2 1 2 5c3.898 0 10.77 7 13 7 0-1.468-8.147-8.677-5.5-10 1.733-.867 3.744 1.372 5 2 5.895 2.948 12.202 5.101 18 8 3.53 1.765 21.732-.036 23.5 3.5l-5 6c-5.575 5.575-5.992 9.5-14 9.5l5 6 3 3 4 2Z"/><path fill="#C9C7C9" id="ccb" d="M90 168h1v-1l-1 1Z"/><path fill="#97D6F9" id="STR" d="M127 265h1c1.45 0 7-3.126 7-5l1-1 1-1 2-3c-4.218 0-18-13.369-18-16.5 0-1.399 4.872-1.5 6-1.5 1.486 0 16.406-1.453 17.5-2 4.785-2.392 10.134-3.567 15-6 .365-.183 9.5-6.519 9.5-3.5l-5 7.5 11-5 2-4-2-2c-1.804 0-5.136 2.182-7.5 1-2.152-1.076 5.819-8 7.5-8l2-16 1-10.5c0-.915 2-5.797 2-3.5l3-4 1-1c0-6.663 5.275 0 6 0l-1-13c-1.835 0-.947 6.223-2.5 7-2.02 1.01-3.325-4.337-6-3-7.482 3.741-2.707 33.915-6.5 41.5l-6 6c-15.342 15.342-25.175 9.838-40.5 17.5l-11.5-2v1l3 4 6 6.5 4 8c1.992 3.984-2 8.702-2 11.5Z"/><path fill="#C8CBCC" id="ec" d="m91 168-1 1v-1h1ZM366 168l1 3-2-3h1Z"/><path fill="#8FCBED" id="LSv" d="m197 189 6.5 6c3.73 1.865 11.5-.586 11.5-5 0-6.313-8-13.888-8-16-3.21 0-7.741-5-11.5-5l-3.5 2v10l3 5 1 1 1 1v1ZM255 193h1l1-2 1-1 1-1 1-1 2-2 1-1v-1l1-1v-2c0-2.389 1-5.987 1-9l-1-1-3.5-2c-1.31.655-10.835 5-11.5 5 0 1.991-8 10.859-8 17l4.5 4c3.567 1.784 7.072-2 9.5-2Z"/><path fill="#C8CBCC" id="ec" d="M90 170c-1.473 0-1 1.952-1 3 1.473 0 1-1.952 1-3Z"/><path fill="#97D6F9" id="STR" d="M265 171v1l-1-1h1Z"/><path fill="#12AD82" id="VISC5" d="M74 178c-4.15 0-8.086 3-13 3v-6c4.284 0 9.371-1 13-1v4Z"/><path fill="#11AC83" id="VISC6a" d="M85 175c0 1.341-9.28 2-11 2v-3c2.998 0 7.358 1 11 1Z"/><path fill="#C8CBCC" id="ec" d="M365 194h1l1-3c0-4.925 1-10.521 1-16l-1-1c0 7.353-2 13.389-2 20Z"/><path fill="#11AC83" id="VISC6a" d="M383 175v2c-1.712 0-12-.768-12-2 4.43 0 9.168-1 12-1v1Z"/><path fill="#12AC83" id="VISC2/3" d="M48 185h1c2.16 0 4.167-2 7-2v-1l-1-7-8 2 1 8Z"/><path fill="#11AC82" id="VISC4" d="m61 181-5 1-1-7h6v6Z"/><path fill="#009B74" id="GU6a" d="M76 194h1l7-1 4-2c0-4.734-1-10.644-1-16h-2c0 1.341-9.28 2-11 2v1c0 5.789 2 10.623 2 16Z"/><path fill="#019C74" id="GU6b" d="M88 191h1c0-5.139-1-10.395-1-16h-1c0 5.356 1 11.266 1 16Z"/><path fill="#C8CBCC" id="ec" d="M92 200h1c0-8.323-4-16.045-4-25h-1c0 5.605 1 10.861 1 16l1 1v1l1 1v3l1 1v2Z"/><path fill="#019C74" id="GU6b" d="M367 191h1c0-4.188 2-10.812 2-15l-1-1h-1c0 5.479-1 11.075-1 16Z"/><path fill="#11AD82" id="VISC6b" d="M370 175v1l-1-1h1Z"/><path fill="#009B74" id="GU6a" d="m372 193 8 1c0-5.391 3-11.077 3-17-1.712 0-12-.768-12-2h-1v1c0 4.188-2 10.812-2 15 2.424 0 2.76 2 4 2Z"/><path fill="#12AD82" id="VISC5" d="M395 181h1l-1-6h-12v2c4.083 0 8.816 4 12 4Z"/><path fill="#11AC82" id="VISC4" d="m396 181 5 1v-7h-6l1 6Z"/><path fill="#12AC83" id="VISC2/3" d="M401 183c3.066 0 4.417 2 7 2l2-8-9-2v8Z"/><path fill="#12AD83" id="VISC1" d="m48 185-4 2-2-10h5l1 8Z"/><path fill="#019C75" id="GU5" d="M76 194c0 .365-9.755 2-12 2 0-4.812-3-9.327-3-15 4.914 0 8.85-3 13-3 0 5.789 2 10.623 2 16Z"/><path fill="#B3C0DE" id="BST" d="M198 206c-6.249 0-12.4 8-19 8 0-12.098 4-21.469 4-33l1-1c0-6.663 5.275 0 6 0l1 1c0 1.562 2.189 5 4 5l1 1 1 1v1c0 3.389 8 7.038 8 14l-6 2-1 1ZM259 206c4.324 0 12.757 8 18 8 0-12.034-4-21.922-4-33v-1l-1-1c0-4.772-4.884 0-5 0l-1 2-2 2-1 1v1l-1 1-2 2-1 1-1 1-1 1-1 2h-1c0 3.764-4 5.626-4 10l8 3Z"/><path fill="#019C75" id="GU5" d="M392 196h1c0-4.906 2-9.387 2-15-3.184 0-7.917-4-12-4 0 5.923-3 11.609-3 17 3.031 0 7.851 2 12 2Z"/><path fill="#12AD83" id="VISC1" d="m408 185 4 2 3-10h-5l-2 8Z"/><path fill="#8599CC" id="PAL" d="m272 179 1 1-1-1ZM184 180l-1 1 1-1Z"/><path fill="#009C74" id="GU4" d="m64 196-2 1c0-4.203-6-8.875-6-14v-1l5-1c0 5.673 3 10.188 3 15Z"/><path fill="#8599CC" id="PAL" d="M179 214c0 1.579-2.855 1-4 1l2-16c3.121 0 3-11.316 3-14l3-4c0 11.531-4 20.902-4 33Z"/><path fill="#97D6F9" id="STR" d="m192 181 3 5c-1.811 0-4-3.438-4-5h1ZM266 181l-2 2v-2h2Z"/><path fill="#8599CC" id="PAL" d="m277 214 4 1c0-6.156-2-11.334-2-17-2.983 0-2-9.707-2-12l-4-5c0 11.078 4 20.966 4 33Z"/><path fill="#009C74" id="GU4" d="m393 196 2 1 4-7.5c.567-1.134.546-6.5 2-6.5v-1l-5-1h-1c0 5.613-2 10.094-2 15Z"/><path fill="#97D6F9" id="STR" d="M251 203c-3.437 0-7.626 2-12 2l-4.5-3-3.5-5c0-8.867-6-6.253-6 1l-3.5 5c-1.119.559-4.5.155-4.5 2-4.374 0-8.563-2-12-2 0-6.962-8-10.611-8-14l6.5 6c3.73 1.865 11.5-.586 11.5-5 5.416 0 1.142 5.179 9.5 1 1.862-.931 2.009-9 4-9l.5 3.5 4.5 6.5c4.315 2.157 4.273-1 7.5-1l4.5 4c3.567 1.784 7.072-2 9.5-2 0 3.764-4 5.626-4 10Z"/><path fill="#009B75" id="GU2/3" d="M53 199h1c2.522 0 4.909-2 8-2 0-4.203-6-8.875-6-14-2.833 0-4.84 2-7 2 0 5.214 4 9.201 4 14Z"/><path fill="#97D6F9" id="STR" d="m264 183-1 1 1-1Z"/><path fill="#009B75" id="GU2/3" d="M395 197c3.091 0 5.478 2 8 2l5-14c-2.583 0-3.934-2-7-2-1.454 0-1.433 5.366-2 6.5l-4 7.5Z"/><path fill="#CCC" d="M180 185c0 2.684.121 14-3 14l1-10.5c0-.915 2-5.797 2-3.5Z"/><path fill="#009C75" id="GU1" d="m53 199-4 1-5-13 4-2h1c0 5.214 4 9.201 4 14Z"/><path fill="#97D6F9" id="STR" d="m263 185-1 1 1-1Z"/><path fill="#CCC" d="M277 186c0 2.293-.983 12 2 12 0-3.868-2-12.344-2-12Z"/><path fill="#009C75" id="GU1" d="m403 199 4 1 5-13-4-2-5 14Z"/><path fill="#97D6F9" id="STR" d="m196 187 1 1-1-1ZM260 188l-1 1 1-1ZM259 189l-1 1 1-1Z"/><path fill="#FF5445" id="MEPO" d="M231 197c0 6.23-6 7.592-6 1 0-7.253 6-9.867 6-1Z"/><path fill="#97D6F9" id="STR" d="m258 190-1 1 1-1Z"/><path fill="#8ADA86" id="CLA" d="m93 208-4 1c-7.162 0-5-11.512-5-16l4-2h1l1 1v1l1 1v3l1 1v2l1 2v6Z"/><path fill="#209766" id="AIp6a" d="m89 191 1 1-1-1Z"/><path fill="#97D6F9" id="STR" d="m257 191-1 2 1-2Z"/><path fill="#8ADA86" id="CLA" d="m363 208 4 1c8.079 0 5-11.276 5-16-1.24 0-1.576-2-4-2h-1l-1 3-1 1v3l-1 2v1c0 1.048.473 3-1 3v4Z"/><path fill="#209766" id="AIp6a" d="m87 212-3 1c0-6.411-7-12.23-7-19l7-1c0 4.488-2.162 16 5 16l-2 3ZM90 193l1 1-1-1ZM369 212l4 1c0-6.861 7-12.431 7-19l-8-1c0 4.724 3.079 16-5 16l2 3Z"/><path fill="#219864" id="AIp5" d="m81 215-4 1c0-3.302-13-13.479-13-20 2.245 0 12-1.635 12-2h1c0 6.77 7 12.589 7 19l-3 2Z"/><path fill="#209766" id="AIp6a" d="m366 194-1 1v-1h1Z"/><path fill="#219864" id="AIp5" d="M375 215h4c4.714 0 13-14.587 13-19-4.149 0-8.969-2-12-2 0 6.569-7 12.139-7 19l2 2Z"/><path fill="#C8CBCC" id="ec" d="M364 198h1v-3c-1.473 0-1 1.952-1 3Z"/><path fill="#209865" id="AIp2/3" d="M77 216c-3.385 0-6.951 4-10 4 0-1.938-13-16.148-13-21 2.522 0 4.909-2 8-2l2-1c0 6.521 13 16.698 13 20ZM379 215l10 5c0-.15 14-17.431 14-21-2.522 0-4.909-2-8-2l-2-1h-1c0 4.413-8.286 19-13 19Z"/><path fill="#209766" id="AIp6a" d="m91 197 1 1-1-1Z"/><path fill="#CAC7CB" id="fiber tracts" d="M217 205h22l-4.5-3-3.5-5c0 6.23-6 7.592-6 1l-3.5 5c-1.119.559-4.5.155-4.5 2Z"/><path fill="#C8CBCC" id="ec" d="M363 201h1v-3c-1.473 0-1 1.952-1 3Z"/><path fill="#209766" id="AIp6a" d="m365 198-1 2v-2h1Z"/><path fill="#219765" id="AIp1" d="m67 220-5 2c-1.048 0-13-19.85-13-22l4-1h1c0 4.852 13 19.062 13 21ZM389 220l6 2c0-4.618 12-15.429 12-22l-4-1c0 3.569-14 20.85-14 21Z"/><path fill="#209766" id="AIp6a" d="M93 201v1l-1-2h1v1Z"/><path fill="#C8CBCC" id="ec" d="m93 208 4 4c0-1.705-2.395-11-4-11v2c1.535 0 1.535 4 0 4v1ZM363 208l-4 5c0-1.643 2.788-12 4-12v7Z"/><path fill="#209766" id="AIp6a" d="M364 201c0 1.048.473 3-1 3v-3h1ZM93 203c1.535 0 1.535 4 0 4v-4Z"/><path fill="#CBCBC7" id="aco" d="M247 218h3l3-1.5 6-10.5-8-3c-3.437 0-7.626 2-12 2h-22c-4.374 0-8.563-2-12-2l-6 2-1 1c0 4.662 8 11.347 8 12h7c0-1.59 4.386-1.443 5.5-2 4.024-2.012 24.5-2.483 24.5 2h4Z"/><path fill="#C9C9C9" id="act" d="m199 205-1 1 1-1ZM179 221l-4 1c-1.804 0-5.136 2.182-7.5 1-2.152-1.076 5.819-8 7.5-8 1.145 0 4 .579 4-1 6.6 0 12.751-8 19-8 0 4.662 8 11.347 8 12-9.439 0-18.175 3-27 3ZM277 221l4 1 7.5 1c3.352-1.676-6.016-8-7.5-8l-4-1c-5.243 0-13.676-8-18-8l-6 10.5-3 1.5c9.334 0 18.369 3 27 3Z"/><path fill="#A0EE9C" id="EPd" d="M96 229c2.16 0 4.167 2 7 2l1-4-1-2v-1c-2.168 0-6-9.098-6-11v-1l-4-4-4 1-2 3v7l1 3 2 2 1 2 1 1 2 1 1 1h1ZM357 231h1l1-1 2-1h1l1-1 1-1 1-1 1-1 1-1 1-2 1-1v-1l1-1-1-7-2-3-4-1-4 5v1l-1 2-1 1v1l-1 2-1 1v1l-1 1-1 2-1 3 2 3h3Z"/><path fill="#99D2BD" id="OLF" d="M81 215c2.773 0 3.67 4 6 4v-7l-3 1-3 2ZM375 215c-2.359 0-3.698 4-5 4l-1-7 4 1 2 2Z"/><path fill="#C8CBCC" id="ec" d="m97 213 6 11c-2.168 0-6-9.098-6-11Z"/><path fill="#CAC7CB" id="fiber tracts" d="M226 219h4c0-1.788 11.092-1 13-1 0-4.483-20.476-4.012-24.5-2-1.114.557-5.5.41-5.5 2 1.908 0 13-.788 13 1Z"/><path fill="#C8CBCC" id="ec" d="m359 214-1 2 1-2Z"/><path fill="#6ACAB9" id="PIR" d="m120 275-3 2c-8.115 0-14.345-10-22-10l-8-8.5c-4.527-9.054-25-27.771-25-36.5l5-2c3.049 0 6.615-4 10-4l4-1c2.773 0 3.67 4 6 4l1 3 2 2 1 2 1 1 2 1 1 1h1c0 .809 14.444 8.972 16.5 10 10.554 5.277 13.5 15.191 13.5 26-2.915 0-6 7.775-6 10ZM336 275l3 2c6.445 0 11.073-5.287 16.5-8 .702-.351 5.5-3.785 5.5-1l9-10.5c4.451-4.451 25-30.208 25-35.5l-6-2-10-5h-4c-2.359 0-3.698 4-5 4l-1 1v1l-1 1-1 2-1 1-1 1-1 1-1 1-1 1h-1l-2 1-1 1h-1l-13.5 8c-10.655 5.327-12.5 15.14-12.5 26 0 1.904 5 5.57 5 10Z"/><path fill="#C8CBCC" id="ec" d="m358 216-1 1 1-1Z"/><path fill="#B3C0DE" id="BST" d="M209 225c-5.618 0-8.682 7-14 7-6.792 0-16-.378-16-9v-2c8.825 0 17.561-3 27-3h3v7Z"/><path fill="#E64438" id="HY" d="m225 241 2 1v-8c0-2.128-1.054-5.608-2-7.5-.208-.416 1-6.086 1-7.5 0-1.788-11.092-1-13-1h-4v7c0 1.819 1 4.591 1 7 1.481 0 .785-2 3-2 0-4.397 5.895-17.71 10-9.5l-1 11.5c0 .413 3 5.145 3 9ZM233 243h1c0-.126-6.644-11 1-11l-2-10.5c4.881-9.762 10 3.411 10 8.5l4 2v-14h-4c-1.908 0-13-.788-13 1 0 2.27 3.306 15-2 15 0 2.097 1 5.293 1 8l2-1 1 1 1 1Z"/><path fill="#B3C0DE" id="BST" d="M247 225c6.232 0 9.277 7 15 7 9.297 0 15-.769 15-10v-1c-8.631 0-17.666-3-27-3h-3v7Z"/><path fill="#C8CBCC" id="ec" d="m357 218-1 2 1-2Z"/><path fill="#FF5547" id="ADP" d="M213 230c0 3.707 3.449 6.526 6.5 5l2.5-3 1-11.5c-4.105-8.21-10 5.103-10 9.5Z"/><path fill="#FF5445" id="MEPO" d="M227 234h1c5.306 0 2-12.73 2-15h-4c0 1.414-1.208 7.084-1 7.5.946 1.892 2 5.372 2 7.5Z"/><path fill="#FF5547" id="ADP" d="M243 230c0 5.059-8 7.506-8 2l-2-10.5c4.881-9.762 10 3.411 10 8.5Z"/><path fill="#99D2BD" id="OLF" d="m370 219-1 1 1-1Z"/><path fill="#C8CBCC" id="ec" d="m356 220-1 1 1-1Z"/><path fill="#8599CC" id="PAL" d="m179 223-2 1-2-2 4-1v2ZM281 222l-2 1-2-1v-1l4 1Z"/><path fill="#99D2BD" id="OLF" d="m369 221-1 1 1-1ZM88 222l2 2-2-2Z"/><path fill="#E64438" id="HY" d="M269 241c0-7.834-9.007 4-10 4l-6-5c2.075 0 14.823 2.145 11-5.5l-2-2.5c9.297 0 15-.769 15-10l2 1 2 5c0 .726-10.809 13-12 13Z"/><path fill="#C8CBCC" id="ec" d="m355 222-1 1 1-1Z"/><path fill="#E64438" id="HY" d="M203 240c0 1.198-4.298 6-6 6 0-6.388-6.259-6-10-6-6.462 0-6.968-12-12-12l2-4 2-1c0 8.622 9.208 9 16 9l-3 3.5 1 2c2.562 5.123 5.808 2.5 10 2.5Z"/><path fill="#C8CBCC" id="ec" d="m354 223-1 2 1-2Z"/><path fill="#99D2BD" id="OLF" d="m367 224-1 1 1-1Z"/><path fill="#C8CBCC" id="ec" d="M116 234v1c-4.676 0-9.368-8-12-8l-1-2 7.5 6 5.5 3Z"/><path fill="#7ECDF8" id="FS" d="m141 254-2 1c-4.218 0-18-13.369-18-16.5 0-1.399 4.872-1.5 6-1.5 1.486 0 16.406-1.453 17.5-2 4.785-2.392 10.134-3.567 15-6 .365-.183 9.5-6.519 9.5-3.5l-5 7.5-1 1-1 1-1 1c0 2.172-16.425 18-20 18Z"/><path fill="#FD5446" id="PS" d="m204 239-1 1c-4.192 0-7.438 2.623-10-2.5l-1-2 3-3.5c5.318 0 8.382-7 14-7 0 1.819 1 4.591 1 7 0 1.6-4.129 7-6 7ZM262 232l2 2.5c3.823 7.645-8.925 5.5-11 5.5 0-1.843-6-4.584-6-8v-7c6.232 0 9.277 7 15 7Z"/><path fill="#7ECDF8" id="FS" d="M294 235c4.612 0 13.096 19 22 19 8.008 0 8.425-3.925 14-9.5l5-6c-1.768-3.536-19.97-1.735-23.5-3.5-5.798-2.899-12.105-5.052-18-8-1.256-.628-3.267-2.867-5-2-2.647 1.323 5.5 8.532 5.5 10Z"/><path fill="#C8CBCC" id="ec" d="M340 234v1c4.626 0 8.153-7 12-7l1-3c-4.044 0-8.366 9-13 9Z"/><path fill="#99D2BD" id="OLF" d="m366 225-1 1 1-1ZM91 226l1 1-1-1ZM365 226l-1 1 1-1Z"/><path fill="#8AD987" id="CTXsp" d="m116 235 3 4c-6.747 0-10.031-8-16-8l1-4c2.632 0 7.324 8 12 8Z"/><path fill="#99D2BD" id="OLF" d="m94 228 1 1-1-1Z"/><path fill="#A2B1D7" id="SI" d="m128 265 6 6.5c11.52 11.52 18.826 5.5 32 5.5 0-2.139-9.49-3.48-11-6.5-2.856-5.712 16.676-10.5 20-10.5l4-2 6-5.5c2.053-4.106 2-7.49 2-12.5-6.462 0-6.968-12-12-12l-11 5-1 1-1 1-1 1c0 2.172-16.425 18-20 18l-2 1-2 3-1 1-1 1c0 1.874-5.55 5-7 5ZM328 265c0 2.976-5.188 6.844-7.5 8-5.373 2.687-14.46 9.77-22 6-2.329-1.164-5.779-2-8.5-2 0-.59 10.358-4.215 12-7.5 2.165-4.33-17.208-9.5-20-9.5l-5-3c-5.98 0-8-10.58-8-16 1.191 0 12-12.274 12-13 3.898 0 10.77 7 13 7 4.612 0 13.096 19 22 19l5 6 3 3 4 2Z"/><path fill="#8AD987" id="CTXsp" d="m340 235-2 4c7.081 0 9.088-8 16-8l-2-3c-3.847 0-7.374 7-12 7Z"/><path fill="#99D2BD" id="OLF" d="m363 228-1 1 1-1ZM126 265h1c0-2.798 3.992-7.516 2-11.5l-4-8-6-6.5c-6.747 0-10.031-8-16-8-2.833 0-4.84-2-7-2 0 .809 14.444 8.972 16.5 10 10.554 5.277 13.5 15.191 13.5 26ZM361 229l-2 1 2-1Z"/><path fill="#FF5346" id="MPO" d="M196 269c1.147 0 7-2.472 7 1 3.969 0 5.334-3 8-3 0-10.635-2.844-24 12-24l1-1 1-1c0-3.855-3-8.587-3-9l-2.5 3c-3.051 1.526-6.5-1.293-6.5-5-2.215 0-1.519 2-3 2 0 1.6-4.129 7-6 7l-1 1c0 1.198-4.298 6-6 6 0 5.28-2 8.97-2 14 2.165 0 2.949-10.276 9.5-7 4.198 2.099.052 10.974-2 12-4.528 2.264-4.81-2-7.5-2l-1 2v1c0 1.238.423 3 2 3ZM261 269l-5.5-1-2.5 2c-3.482 0-5.416-4-8-4 0-9.507 3.306-23-11-23 0-.126-6.644-11 1-11 0 5.506 8 3.059 8-2l4 2c0 3.416 6 6.157 6 8l6 5 2 13-4.5-5c-9.309-4.654-7.444 16.722 2 12 2.148-1.074 2.5-1.352 2.5-4l2 4-2 4Z"/><path fill="#99D2BD" id="OLF" d="m359 230-1 1 1-1ZM329 265h2c0-10.86 1.845-20.673 12.5-26l13.5-8h-3c-6.912 0-8.919 8-16 8l-3 2.5-7 11c-2.995 5.99 1 8.893 1 12.5Z"/><path fill="#97D6F9" id="STR" d="m164 233-1 1 1-1ZM163 234l-1 1 1-1Z"/><path fill="#A8A9AA" id="V3" d="M230 269c0 1.579-2.855 1-4 1 0-8.596 1-18.739 1-28v-8h1c0 2.097 1 5.293 1 8 0 8.932 1 18.732 1 27Z"/><path fill="#97D6F9" id="STR" d="m162 235-1 1 1-1Z"/><path fill="#F2473B" id="LPO" d="M193 265h1l1-2v-3c0-5.03 2-8.72 2-14 0-6.388-6.259-6-10-6 0 5.01.053 8.394-2 12.5l-6 5.5 1 1c4.983 0 8.841 6 13 6Z"/><path fill="#E64438" id="HY" d="m204 239-1 1 1-1Z"/><path fill="#F2473B" id="LPO" d="m261 261 2 4c4.396 0 7.998-6 13-6l1-2c-5.98 0-8-10.58-8-16 0-7.834-9.007 4-10 4l2 13v3Z"/><path fill="#E64438" id="HY" d="m225 241-1 1 1-1Z"/><path fill="#FE5446" id="AVPV" d="M216 274h1l1-1h3l2-1 2-1 1-1c0-8.596 1-18.739 1-28l-2-1-1 1-1 2c0 5.231.166 11.167-2 15.5l-6 7.5c0 2.581-5.394 7 1 7ZM232 271l9 3c5.545 0 1-4.659 1-7-5.985 0-9-18.005-9-24l-1-1-1-1-2 1c0 8.932 1 18.732 1 27l2 2Z"/><path fill="#FE5547" id="PVpo" d="m231 241 1 1-1-1Z"/><path fill="#E64438" id="HY" d="M223 243v1l1-2-1 1Z"/><path fill="#FD4C3E" id="MPN" d="M211 267h4l6-7.5c2.166-4.333 2-10.269 2-15.5v-1c-14.844 0-12 13.365-12 24ZM245 266c0 1.473-1.952 1-3 1-5.985 0-9-18.005-9-24h1c14.306 0 11 13.493 11 23Z"/><path fill="#FE5447" id="AVP" d="M195 260c2.165 0 2.949-10.276 9.5-7 4.198 2.099.052 10.974-2 12-4.528 2.264-4.81-2-7.5-2v-3ZM261 258l-4.5-5c-9.309-4.654-7.444 16.722 2 12 2.148-1.074 2.5-1.352 2.5-4v-3Z"/><path fill="#97D6F9" id="STR" d="m141 254-2 1 2-1Z"/><path fill="#E64438" id="HY" d="m282 260-2 2c0-1.712-2.571-3-4-3l1-2 5 3Z"/><path fill="#8599CC" id="PAL" d="m137 258-1 1 1-1Z"/><path fill="#E64438" id="HY" d="m175 260 2 3c0-2.343.285-4 3-4l-1-1-4 2Z"/><path fill="#8599CC" id="PAL" d="m136 259-1 1 1-1Z"/><path fill="#96A6D3" id="NDB" d="M177 275c0 6.701 12.967 4 16 4l3-10c-1.577 0-2-1.762-2-3l-1-1c-4.159 0-8.017-6-13-6-2.715 0-3 1.657-3 4v12ZM263 279h1c2.014 0 5.932 2.284 8.5 1 1.691-.846 6.621-5 7.5-5v-13c0-1.712-2.571-3-4-3-5.002 0-8.604 6-13 6l-2 4 2 10Z"/><path fill="#A2B1D8" id="MA" d="M166 277h7l4-2v-12l-2-3c-3.324 0-22.856 4.788-20 10.5 1.51 3.02 11 4.361 11 6.5ZM284 277h6c0-.59 10.358-4.215 12-7.5 2.165-4.33-17.208-9.5-20-9.5l-2 2v13l4 2Z"/><path fill="#8599CC" id="PAL" d="m321 260 3 3-3-3Z"/><path fill="#7FCCF7" id="OT" d="M123 283c0 4.112 7.563 8.531 10.5 10 11.58 5.79 21.711 8.145 34 2 2.82-1.41 12.5-1.38 12.5-7 0-4.314.097-11-7-11h-7c-13.174 0-20.48 6.02-32-5.5l-6-6.5h-2c-2.915 0-6 7.775-6 10v2l3 6Z"/><path fill="#CBCCCB" id="mfb" d="M194 265v1l-1-1h1Z"/><path fill="#7FCCF7" id="OT" d="M333 283c0 3.954-4.579 6.54-7.5 8-14.398 7.199-20.611 12.194-37 4-2.47-1.235-11.5-1.264-11.5-6 0-5.341-1.272-12 7-12h6c2.721 0 6.171.836 8.5 2 7.54 3.77 16.627-3.313 22-6 2.312-1.156 7.5-5.024 7.5-8h3c0 1.904 5 5.57 5 10v1l-1 5-1 1-1 1Z"/><path fill="#E64438" id="HY" d="m241 274 10 5c0-3.638 2-5.929 2-9-3.482 0-5.416-4-8-4 0 1.473-1.952 1-3 1 0 2.341 4.545 7-1 7Z"/><path fill="#CAC8C7" id="lot" d="M118 279v2c-1.317 0-1.788 3.356-4.5 2-4.921-2.46-18.5-9.15-18.5-16 7.655 0 13.885 10 22 10l1 2Z"/><path fill="#E64438" id="HY" d="M216 275c-4.178 0-6.934 4-11 4 0-3.423-2-6.474-2-9 3.969 0 5.334-3 8-3h4c0 2.581-5.394 7 1 7v1Z"/><path fill="#CAC8C7" id="lot" d="M338 279v2c1.317 0 1.788 3.356 4.5 2 4.305-2.152 18.5-8.693 18.5-15 0-2.785-4.798.649-5.5 1-5.427 2.713-10.055 8-16.5 8l-1 2Z"/><path fill="#FE5546" id="VLPO" d="M201 281h3l1-2c0-3.423-2-6.474-2-9 0-3.472-5.853-1-7-1l-3 10c.822 0 8 1.311 8 2ZM263 279c-.822 0-8 1.311-8 2-1.465 0-4 .109-4-2 0-3.638 2-5.929 2-9l2.5-2 5.5 1 2 10Z"/><path fill="#CAC7CB" id="fiber tracts" d="m223 272 5 1c0-1.577-1.762-2-3-2l-2 1Z"/><path fill="#CAC7CB" id="fiber tracts" d="M201 281h3c0 1.602-3.058 2.384-2 4.5 2.104 4.207 27.211 1.5 33 1.5 4.815 0 10.629 2.435 15.5 0 .874-.437 5.74-1.02 4.5-3.5-1.559-3.119-10.567-5.034-13.5-6.5-4.54-2.27-6.93-5-12.5-5 0-1.473 1.952-1 3-1l9 3 10 5c0 2.109 2.535 2 4 2 0 2.229 3 3.933 3 5.5l-4.5 1.5c-4.054 2.027-10.043.021-14 2-1.837.918-7.692 2.154-10 1l-1-3-2 3c-2.574 1.287-26.763-3.026-27.5-4.5-.378-.755 2-3.882 2-5.5ZM223 272l-2 1 2-1Z"/><path fill="#CBCACC" id="och" d="M216 275c0 2.977-9.604 6-12 6 0 1.602-3.058 2.384-2 4.5 2.104 4.207 27.211 1.5 33 1.5 4.815 0 10.629 2.435 15.5 0 .874-.437 5.74-1.02 4.5-3.5-1.559-3.119-10.567-5.034-13.5-6.5-4.54-2.27-6.93-5-12.5-5l-1 1-5-1-2 1h-1c0 2.109-2.535 2-4 2Z"/><path fill="#E64438" id="HY" d="m218 273-1 1 1-1Z"/><path fill="#CAC7CB" id="fiber tracts" d="M216 274h1l1-1h2c0 2.109-2.535 2-4 2v-1Z"/><path fill="#99D2BD" id="OLF" d="m120 277-2 2-1-2 3-2v2Z"/><path fill="#8599CC" id="PAL" d="M193 279c0 2.454-10.934 9-13 9 0-4.314.097-11-7-11l4-2c0 6.701 12.967 4 16 4Z"/><path fill="#CAC7CB" id="fiber tracts" d="m205 279-1 2c2.396 0 12-3.023 12-6-4.178 0-6.934 4-11 4Z"/><path fill="#8599CC" id="PAL" d="M264 279c0 3.757 9.176 6.838 11.5 8l1.5 2c0-5.341-1.272-12 7-12l-4-2c-.879 0-5.809 4.154-7.5 5-2.568 1.284-6.486-1-8.5-1Z"/><path fill="#99D2BD" id="OLF" d="m339 277-1 2-2-3v-1l3 2Z"/><path fill="#97D6F9" id="STR" d="M335 281h3v-2l-2-3-1 5ZM118 281c2.25 0 3.376 2 5 2l-3-6-2 2v2ZM335 281l-1 1 1-1ZM334 282l-1 1 1-1Z"/></svg>