<svg xmlns="http://www.w3.org/2000/svg" viewBox="0 0 456 320"><path fill="#9AD1BD" id="MOB" d="M145 163c1.995 0 2 4.377 2 6 1.183 0 7.062 12.625 8 14.5 2.323 4.645 3.693 9.386 6 14v7c4.774 9.548.704 25.102 15.5 32.5 4.22 2.11 8.784 3.892 13 6 9.951 4.975 20.163-6.827 23.5-13.5 5.844-11.688 8-27.089 8-41v-25c.921-1.842 4.564-29.873 4-31-2.653-5.306-3.301-11.603-6-17l-7-8.5-7.5-4h-12l-3-1c-3.627 1.813-8.383 1.192-12 3-5.216 2.608-10.444 7.722-15 10-3.273 1.637-11.5 9.113-11.5 13l-1 1-1 1v1l-1 1v1l-1 1v1l-1 2v1l-1 1v4l-1 2v11c1.643 0 1 3.765 1 5v2ZM311 164l-2 4c0 5.522-7.532 13.564-10 18.5-4.625 9.251-2.093 25.186-6 33-2.8 5.6-7.769 10.538-10 15l-8.5 4.5c-12.328 6.164-24.481 5.539-31.5-8.5-6.279-12.559-8-31.65-8-46.5v-25.5c-1.58-3.16-4.846-25.308-3-29l5-14 7-8.5c2.807 0 5.113-2.807 7.5-4h8.5c15.192 0 26.371 3.871 38 15.5 2.954 2.954 10 9.486 10 13.5l1 1v2l1 1v1l1 1v3l1 1v17c-1.643 0-1 3.765-1 5Z"/><path fill="#C7CBCA" id="onl" d="M153 209c0 6.375 6.364 9.227 9 14.5 5.596 11.191 17.797 20.149 28.5 25.5 2.956 1.478 7.033 1.517 10 3 2.866 1.433 15.021 4.99 17 4 12.378-6.189 9.5-28.806 9.5-41v-59c0-12.652 1.919-39.291-9.5-45-1.789-.895-2.387-4-5.5-4l7 8.5c2.699 5.397 3.347 11.694 6 17 .564 1.127-3.079 29.158-4 31v25c0 13.911-2.156 29.312-8 41-3.337 6.673-13.549 18.475-23.5 13.5-4.216-2.108-8.78-3.89-13-6-14.796-7.398-10.726-22.952-15.5-32.5v-7c-2.307-4.614-3.677-9.355-6-14-.938-1.875-6.817-14.5-8-14.5v11c1.684 0 1 4.679 1 6v1c1.473 0 1 1.952 1 3v4c1.473 0 1 1.952 1 3v1l1 2v4c1.014 0 2 3.959 2 5Z"/><path fill="#C7CBCA" id="onl" d="m304 209-1 1c0 6.582-7.264 10.028-10 15.5-7.261 14.523-21.067 18.783-34.5 25.5-5.263 2.631-20.103 8.294-23.5 1.5l-4-6c-3.396-6.792-2-24.403-2-33v-74c0-8.134 5.258-32.5 15-32.5l-7 8.5-5 14c-1.846 3.692 1.42 25.84 3 29V184c0 14.85 1.721 33.941 8 46.5 7.019 14.039 19.172 14.664 31.5 8.5l8.5-4.5c2.231-4.462 7.2-9.4 10-15 3.907-7.814 1.375-23.749 6-33 2.468-4.936 10-12.978 10-18.5l1 1v2c-1.579 0-1 2.855-1 4v10c-1.473 0-1 1.952-1 3v1c-1.579 0-1 2.855-1 4v4l-1 2c-1.473 0-1 1.952-1 3v4l-1 2v1Z"/><path fill="#99D2BD" id="OLF" d="m151 128-1 1 1-1ZM150 129l-1 1 1-1ZM149 131l-1 1 1-1ZM308 132l1 1-1-1ZM148 133l-1 1 1-1ZM147 135l-1 2 1-2ZM309 135l1 1-1-1ZM310 137l1 1-1-1ZM146 138l-1 1 1-1ZM311 141l1 1-1-1ZM145 143l-1 2 1-2ZM312 145c1.644 0 1.644 14 0 14v-14ZM144 148c-1.587 0-1.587 6 0 6v-6ZM144 156c1.643 0 1 3.765 1 5-1.643 0-1-3.765-1-5ZM227 156c1.784 0 1 10.634 1 12.5V204c0 1.741.773 11-1 11v-59ZM312 159c-1.643 0-1 3.765-1 5 1.643 0 1-3.765 1-5ZM147 169v2c-1.931 0-2-6.225-2-8 1.995 0 2 4.377 2 6ZM309 168l1 1c1.643 0 1-3.765 1-5l-2 4ZM310 171c-1.579 0-1 2.855-1 4 1.579 0 1-2.855 1-4ZM147 180c1.684 0 1 4.679 1 6-1.684 0-1-4.679-1-6ZM309 185c-1.473 0-1 1.952-1 3 1.473 0 1-1.952 1-3ZM148 187c1.473 0 1 1.952 1 3-1.473 0-1-1.952-1-3ZM308 189c-1.579 0-1 2.855-1 4 1.579 0 1-2.855 1-4ZM149 194c1.473 0 1 1.952 1 3-1.473 0-1-1.952-1-3ZM307 197l-1 2 1-2ZM150 198l1 2-1-2ZM306 199c-1.473 0-1 1.952-1 3 1.473 0 1-1.952 1-3ZM151 204c1.014 0 2 3.959 2 5-1.638 0-2-3.576-2-5ZM305 206l-1 2 1-2ZM304 209l-1 1 1-1Z"/></svg>