<svg xmlns="http://www.w3.org/2000/svg" viewBox="0 0 456 320"><path fill="#1E9C59" id="MOs1" d="M138 78h1c0-1.606 15.33-7.915 17.5-9 9.26-4.63 35.876-14.562 47-9 3.66 1.83 13.5 5.245 13.5 11h1l3-3c0-6.086-9.28-10.89-13.5-13-15.688-7.844-38.178 1.089-52 8-2.348 1.174-17.5 6.612-17.5 9v6ZM319 72l-1 6-15.5-9c-7.938-3.969-40.796-13.602-50-9-3.698 1.85-13.5 5.971-13.5 11h-1c0-1.577-1.762-2-3-2 0-7.295 9.565-11.533 14.5-14 15.709-7.855 37.204 1.102 51 8 2.323 1.162 18.5 6.786 18.5 9Z"/><path fill="#1E9D58" id="MOs2/3" d="M139 78c0 5.097 1 10.822 1 17l12.5-8c8.771-4.386 17.203-9.602 26-14l12-4c4.747-2.373 20.5 2.193 20.5 7h1l5-5c0-5.755-9.84-9.17-13.5-11-11.124-5.562-37.74 4.37-47 9-2.17 1.085-17.5 7.394-17.5 9Z"/><path fill="#1E9D58" id="MOs2/3" fill-rule="evenodd" d="M315 92c0 1.93 1.93 0 0 0m3-14c0 6.758-2 11.23-2 17l-15.5-10c-6.112-3.056-11.818-6.909-18-10l-17-6c-3.953-1.976-20.5 3.106-20.5 7h-1c0-3.537-5-2.187-5-5 0-5.029 9.802-9.15 13.5-11 9.204-4.602 42.062 5.031 50 9l15.5 9Z"/><path fill="#3EA665" id="ACAd1" d="M222 95h12V79.5l4-8.5c0-1.577-1.762-2-3-2-2.321 0-5.172 5.844-6 7.5l-.5 2.5c-2.024 0-4.249-11-7.5-11l-3 3c0 2.272 3.881 8.262 5 10.5L222 95Z"/><path fill="#1F9D58" id="MOs5" d="M194 95h1c0-5.03 16-15.501 16-19 0-4.807-15.753-9.373-20.5-7l-12 4c-8.797 4.398-17.229 9.614-26 14L140 95c0 7.217 1 16.105 1 24l13.5-10c12.625-6.312 25.482-14 39.5-14ZM315 119h1V95l-15.5-10c-6.112-3.056-11.818-6.909-18-10l-17-6c-3.953-1.976-20.5 3.106-20.5 7 0 2.3 16 13.149 16 19h1c1.606 0 4.339-2.08 6.5-1 9.683 4.842 20.266 8.133 30 13 2.163 1.081 16.015 12 16.5 12Z"/><path fill="#40A565" id="ACAd2/3" d="M217 95h5l1-13.5c-1.119-2.238-5-8.228-5-10.5h-1l-5 5 3 4.5c1.423 2.845 2 11.4 2 14.5ZM234 95h6l1-13.5 3-5.5c0-3.537-5-2.187-5-5h-1l-4 8.5V95Z"/><path fill="#1E9D5A" id="MOp1" d="m95 171-4 2c-2.729 0-1.254-5.007-2-6.5-1.521-3.043-4.788-23.425-3-27 2.085-4.171.906-9.812 3-14 5.475-10.95 18.489-34.494 30.5-40.5 6.16-3.08 11.263-13 18.5-13v6l-10.5 7c-8.369 4.185-19.258 16.016-23.5 24.5l-11 19v4c-6.22 12.442 2 26.458 2 38.5ZM361 171l5 2c0-1.147 4.333-22.167 5-23.5 1.683-3.365-.617-13.234-2-16-1.408-2.815-.578-7.156-2-10-6.054-12.108-14.788-23.787-25-34-3.865-3.865-18.605-17.5-23-17.5l-1 6c2.405 0 21.148 14.796 23 18.5l4 3c4.935 9.869 13.112 18.223 18 28 2.795 5.59 2.756 33.488 0 39l-2 4.5Z"/><path fill="#3EA566" id="ACAd5" d="M199 102h1c5.306 0 11.282-7 17-7 0-3.1-.577-11.655-2-14.5l-3-4.5h-1c0 3.499-16 13.97-16 19 0 2.51 4 3.688 4 7ZM240 96c6.151 0 11.489 6 17 6 0-3.313 4-4.49 4-7 0-5.851-16-16.7-16-19h-1l-3 5.5-1 13.5v1Z"/><path fill="#1F9C58" id="MOp2/3" d="M108 166c-4.801 0-7.927 5-13 5 0-12.042-8.22-26.058-2-38.5v-4l11-19c4.242-8.484 15.131-20.315 23.5-24.5l10.5-7h1c0 5.097 1 10.822 1 17-4.344 0-8.898 8.699-11.5 10-10.389 5.194-16.032 21.563-21.5 32.5-1.003 2.005.056 4.888-1 7l1 16c0 1.19-.614 4.5 1 4.5v1ZM349 166l12 5 2-4.5c2.756-5.512 2.795-33.41 0-39-4.888-9.777-13.065-18.131-18-28l-4-3c-1.852-3.704-20.595-18.5-23-18.5 0 6.758-2 11.23-2 17 4.421 0 11.657 9.157 15 12.5 19.793 19.793 18 31.586 18 57.5v1ZM315 92c0 1.93 1.93 0 0 0Z"/><path fill="#1D9C5A" id="MOs6a" d="M169 134c-9.983 0-15.387 4.943-23.5 9-2.506 1.253-5.672 6-8.5 6 0-3.766-1.998-11.505 0-15.5 1.86-3.721 3-8.01 3-12.5l1-1v-1l13.5-10c12.625-6.312 25.482-14 39.5-14 0 6.131-10 14.49-10 22l-1 1-2 5-3 2h-2l-1 1c-4.322 0-6 3.043-6 7v1Z"/><path fill="#2FA750" id="PL1" d="M233 133h1V95h-12c0 12.692 1 25.93 1 38h10Z"/><path fill="#1D9C5A" id="MOs6a" d="M288 134c12.817 0 26.29 15 32 15 0-5.814-1-12.834-1-18.5 0-1.688-4-9.209-4-11.5-.485 0-14.337-10.919-16.5-12-9.734-4.867-20.317-8.158-30-13-2.161-1.08-4.894 1-6.5 1l11 22 3 6 3 2 3 1c3.372 0 6 3.738 6 7v1Z"/><path fill="#1E9C5A" id="MOp5" d="M130 153c-8.064 0-13.751 12-22 12-1.614 0-1-3.31-1-4.5l-1-16c1.056-2.112-.003-4.995 1-7 5.468-10.937 11.111-27.306 21.5-32.5 2.602-1.301 7.156-10 11.5-10 0 7.217 1 16.105 1 24v1l-1 1c-5.122 0-9.266 17.033-11 20.5-1.489 2.977 1 8.046 1 10.5v1Z"/><path fill="#3FA664" id="ACAd6a" d="m199 102-15 15c0-7.51 10-15.869 10-22h1c0 2.51 4 3.688 4 7Z"/><path fill="#2EA84F" id="PL5" d="M204 133h14c0-11.939-1-25.399-1-38-5.718 0-11.694 7-17 7 0 10.68 4 20.659 4 31Z"/><path fill="#2FA74F" id="PL2/3" d="M219 133h4c0-12.07-1-25.308-1-38h-5c0 12.601 1 26.061 1 38h1ZM234 133h4c0-11.999 2-24.362 2-37v-1h-6v38Z"/><path fill="#3FA664" id="ACAd6a" d="M257 103c7.261 0 9.636 14 16 14l-11-22h-1c0 2.51-4 3.688-4 7v1Z"/><path fill="#1E9C5A" id="MOp5" d="M327 153c6.814 0 13.854 12 22 12 0-25.914 1.793-37.707-18-57.5-3.343-3.343-10.579-12.5-15-12.5v24l7 9.5c3.654 7.309 4 15.614 4 24.5Z"/><path fill="#2EA84F" id="PL5" d="M238 133h14c0-9.542 5-20.473 5-30v-1c-5.511 0-10.849-6-17-6 0 12.638-2 25.001-2 37Z"/><path fill="#2FA850" id="PL6a" d="M191 132c4.077 0 8.431 1 13 1 0-10.341-4-20.32-4-31h-1l-15 15-1 1-2 5v2c1.366 0 4 2.366 4 4l6 3ZM265 132c-4.438 0-7.742 1-13 1 0-9.542 5-20.473 5-30 7.261 0 9.636 14 16 14l3 6-1 2-2 2-1 2h-1l-6 3Z"/><path fill="#3FA664" id="ACAd6a" d="m184 117-1 1 1-1Z"/><path fill="#1F9B5A" id="MOp6a" d="M326 153h1c0-8.886-.346-17.191-4-24.5l-7-9.5h-1c0 2.291 4 9.812 4 11.5 0 5.666 1 12.686 1 18.5 1.178 0 6 2.572 6 4ZM141 120l-1 1 1-1ZM137 149l-7 3c0-2.454-2.489-7.523-1-10.5 1.734-3.467 5.878-20.5 11-20.5 0 4.49-1.14 8.779-3 12.5-1.998 3.995 0 11.734 0 15.5Z"/><path fill="#268E44" id="FRP6a" d="M178 125h3v-2l-3 2ZM275 125h4l-3-2-1 2Z"/><path fill="#1E9C58" id="MOs6b" d="m176 125-1 1 1-1Z"/><path fill="#258F44" id="FRP6b" d="M175 127h7l-1-2h-5l-1 1v1Z"/><path fill="#2FA84F" id="PL6b" d="M184 129h1c0-1.634-2.634-4-4-4l1 2 2 2ZM273 127h2v-2l-2 2Z"/><path fill="#258F44" id="FRP6b" d="M275 127h7v-1l-3-1h-4v2Z"/><path fill="#1E9C58" id="MOs6b" d="M169 133h1c0-2.538 2.152-6 5-6v-1c-4.322 0-6 3.043-6 7ZM287 133h1c0-3.262-2.628-7-6-7v1c4.042 0 2.371 6 5 6Z"/><path fill="#CAC7CC" id="fa" d="M186 137c0 6.516 1.843 5-5 5-7.014 0-11 1.569-11-8v-1c0-2.538 2.152-6 5-6h7l2 2c0 3.091 2 5.478 2 8Z"/><path fill="#2FA84F" id="PL6b" d="M272 129h1v-2l-1 2Z"/><path fill="#CAC7CC" id="fa" d="M271 137c0 5.868-2.436 5 4 5 6.189 0 12 1.111 12-8v-1c-2.629 0-.958-6-5-6h-9v2l-2 4v4Z"/><path fill="#24875E" id="ORBm6b" d="M186 137h1l-2-8h-1c0 3.091 2 5.478 2 8Z"/><path fill="#22885E" id="ORBm6a" d="M199 177h8c0-7.291-4.869-25.239-8-31.5l-8-13.5-6-3 2 8 1 3 3 4.5c5.277 10.554 6 12.68 6 24.5l2 8ZM250 177h7l3-8c0-2.681-2.592-8.316-1-11.5 1.441-2.881 4.717-16.5 9-16.5v-1l1-1v-1c0-1.424.362-5 2-5v-4l-6 3c0 4.242-6.097 10.694-8 14.5-4.593 9.186-7 21.396-7 30.5Z"/><path fill="#24875E" id="ORBm6b" d="m273 129-2 4v-4h2Z"/><path fill="#58B362" id="ILA6a" d="M207 177h2v-21.5c-2.698-5.396-5-16.383-5-22.5-4.569 0-8.923-1-13-1l8 13.5c3.131 6.261 8 24.209 8 31.5ZM248 177h2c0-9.104 2.407-21.314 7-30.5 1.903-3.806 8-10.258 8-14.5-4.438 0-7.742 1-13 1 0 5.834-2.526 21.551-5 26.5l1 17.5Z"/><path fill="#1F9766" id="AId6b" d="M169 134h1v-1h-1v1Z"/><path fill="#59B262" id="ILA5" d="M209 177h6c0-1.657 4.004-13.508 5-15.5l-1-28.5h-15c0 6.117 2.302 17.104 5 22.5V177Z"/><path fill="#59B362" id="ILA2/3" d="m215 177 4 1 5-11.5c3.261-6.523-1-25.367-1-33.5h-4l1 28.5c-.996 1.992-5 13.843-5 15.5Z"/><path fill="#59B263" id="ILA1" d="M229 178h8l-5-13.5 1-31.5h-10c0 8.133 4.261 26.977 1 33.5l-5 11.5h8c0-1.321-.684-6 1-6 0-9.17 1-9.17 1 0v6Z"/><path fill="#59B362" id="ILA2/3" d="m242 177-5 1-5-13.5 1-31.5h5c0 6.228-3.77 26.96-1 32.5l5 11.5Z"/><path fill="#59B262" id="ILA5" d="M242 177h6l-1-17.5c2.474-4.949 5-20.666 5-26.5h-14c0 6.228-3.77 26.96-1 32.5l5 11.5Z"/><path fill="#24875E" id="ORBm6b" d="m271 137-2 1c0-1.424.362-5 2-5v4Z"/><path fill="#1F9766" id="AId6b" d="M287 134h1v-1h-1v1Z"/><path fill="#209666" id="AId6a" d="M312 164h1c7.141 0 13-3.629 13-11 0-1.428-4.822-4-6-4-5.71 0-19.183-15-32-15v1c1.62 0 13 13.855 13 15l2 2v1c2.014 0 9 8.557 9 11ZM143 164h1c0-1.27 4.396-7 6-7l1-2 1-1 1-1v-1l1-1c2.781 0 9.51-16 15-16v-1c-9.983 0-15.387 4.943-23.5 9-2.506 1.253-5.672 6-8.5 6l-7 3v1c0 6.618 6.937 11 13 11Z"/><path fill="#248A5C" id="ORBl6b" d="m181 142 1 3c-7.489 0-13-1.551-13-10v-1h1c0 9.569 3.986 8 11 8ZM275 142v3c7.154 0 13-1.846 13-10v-1h-1c0 9.111-5.811 8-12 8Z"/><path fill="#24895D" id="ORBl6a" d="m150 157-2 6c6.144 0 15.068-7.284 20.5-10h14l4.5 3-4-11h-1c-7.489 0-13-1.551-13-10-5.49 0-12.219 16-15 16l-1 1v1l-1 1-1 1-1 2ZM270 155c4.547 0 13.015-4.742 18.5-2 5.769 2.885 13.848 10 20.5 10l-6-10v-1l-2-2c0-1.145-11.38-15-13-15 0 8.154-5.846 10-13 10h-2c0 3.679-3 6.731-3 10Z"/><path fill="#22895E" id="ORBvl6b" d="M182 145h1c5.954 0 5 1.284 5-5l-1-3h-1c0 6.516 1.843 5-5 5l1 3ZM273 145h2v-3c-6.436 0-4 .868-4-5l-2 1v1l-1 1v1c0 8.199 1.008 4 5 4Z"/><path fill="#238A5C" id="ORBvl6a" d="m269 139-1 1 1-1ZM196 169h1c0-11.82-.723-13.946-6-24.5l-3-4.5c0 6.284.954 5-5 5l4 11v1c3.114 0 9 8.772 9 12ZM260 169h1c0-2.963 4.001-12 8-12v-1l1-1c0-3.269 3-6.321 3-10-3.992 0-5 4.199-5-4-4.283 0-7.559 13.619-9 16.5-1.592 3.184 1 8.819 1 11.5Z"/><path fill="#1F9866" id="AIv6a" d="m301 150 2 2-2-2ZM154 151l-1 1 1-1Z"/><path fill="#209665" id="AId5" d="M108 166c0 6.743 2.138 15.775 5 21.5l3 4.5c3.685 0 19.118-16.736 21-20.5 1.45-2.9 6-3.974 6-7.5-6.063 0-13-4.382-13-11-8.064 0-13.751 12-22 12v1Z"/><path fill="#1F9866" id="AIv6a" d="m153 153-1 1 1-1Z"/><path fill="#228A5D" id="ORBl5" d="M177 180c0-12.447-25.238 3-28 3 0-3.303-5-7.932-5-11.5l3-8.5h1c6.144 0 15.068-7.284 20.5-10h14l4.5 3v1c0 2.63 3.513 5.475 2 8.5-2.111 4.222-3 7.3-3 12.5l-9 2ZM279 180c0-2.65 1.996-2.248 3.5-3 10.127-5.064 15.127 6 24.5 6l2-3.5c6.024-12.049 0-8.401 0-16.5-6.652 0-14.731-7.115-20.5-10-5.485-2.742-13.953 2-18.5 2l-1 1v1l-2 7.5c2.409 4.819 4 7.618 4 13.5 0 1.059 6.743 2 8 2Z"/><path fill="#1F9866" id="AIv6a" d="m309 163 3 1c0-2.443-6.986-11-9-11l6 10Z"/><path fill="#209665" id="AId5" d="M349 166c0 3.536-6.493 26-9 26-2.763 0-19.872-18.244-21-20.5l-6-7.5c7.141 0 13-3.629 13-11h1c6.814 0 13.854 12 22 12v1Z"/><path fill="#1F9866" id="AIv6a" d="m152 154-1 1 1-1ZM151 155l-1 2 1-2Z"/><path fill="#24895D" id="ORBl6a" d="m270 155-1 1 1-1Z"/><path fill="#1F9866" id="AIv6a" d="M147 163h1l2-6c-1.604 0-6 5.73-6 7l3-1Z"/><path fill="#23885C" id="ORBvl5" d="M186 178h11v-1c0-2.029-1.191-1.881-2-3.5l1-4.5c0-3.228-5.886-12-9-12 0 2.63 3.513 5.475 2 8.5-2.111 4.222-3 7.3-3 12.5ZM259 178h12c0-5.882-1.591-8.681-4-13.5l2-7.5c-3.999 0-8 9.037-8 12 0 5.127-2 5.624-2 8v1Z"/><path fill="#1F9865" id="AIv5" d="M116 192v1c3.334 0 9.096 4.202 13.5 2l19.5-11v-1c0-3.303-5-7.932-5-11.5l3-8.5-3 1h-1c0 3.526-4.55 4.6-6 7.5-1.882 3.764-17.315 20.5-21 20.5ZM340 192v1c-2.995 0-8.312 4.094-12.5 2-4.193-2.096-16.719-11-20.5-11v-1l2-3.5c6.024-12.049 0-8.401 0-16.5l3 1h1l6 7.5c1.128 2.256 18.237 20.5 21 20.5Z"/><path fill="#209765" id="AId2/3" d="M116 193c-3.843 0-6.746 4-11 4 0-5.547-10-18.624-10-26 5.073 0 8.199-5 13-5 0 6.743 2.138 15.775 5 21.5l3 4.5v1ZM351 197h1c0-7.63 9-17.13 9-26l-12-5c0 3.536-6.493 26-9 26v1c4.066 0 6.822 4 11 4Z"/><path fill="#23885E" id="ORBm5" d="M197 177h2l-2-8h-1l-1 4.5c.809 1.619 2 1.471 2 3.5ZM257 177h2c0-2.376 2-2.873 2-8h-1l-3 8Z"/><path fill="#209764" id="AId1" d="m105 198-4 1c0-6.302-10-17.024-10-26l4-2c0 7.376 10 20.453 10 26v1ZM352 197c0 1.577 1.762 2 3 2l3-5.5c2.789-5.578 8-14.046 8-20.5l-5-2c0 8.87-9 18.37-9 26Z"/><path fill="#99D2BD" id="OLF" d="M227 178c.839 0 2 1.93 2 0v-6h-1c-1.684 0-1 4.679-1 6Z"/><path fill="#238A5E" id="ORBl2/3" d="M149 184c1.621 0 3 3.283 3 5 3.745 0 15.104-8 23-8l1-1h1c0-12.447-25.238 3-28 3v1ZM307 184c-.221 0-3 3.851-3 5-3.527 0-17.297-9-24-9h-1c0-2.65 1.996-2.248 3.5-3 10.127-5.064 15.127 6 24.5 6v1Z"/><path fill="#A3DAA3" id="DP" d="M229 193h19c3.142 0 10-4.234 10-8 0-1.819 1-4.591 1-7v-1h-17l-5 1h-8c0 1.93-1.161 0-2 0h-8l-4-1h-18v1c0 3.138 2 5.662 2 8 0 2.875 6.597 7 9 7h20c0-1.186 1-1.186 1 0Z"/><path fill="#99D2BD" id="OLF" fill-rule="evenodd" d="M161 201c0 5.088-2.722 5.055 0 10.5 1.952 3.904 2.919 13.209 7.5 15.5 7.258 3.629 3.33-22.84 2.5-24.5-1.196-2.391-7.569-1.5-10-1.5m59 50c0 1.989-4.756 12-7 12 0-2.939.687-6.407-2.5-8l-21 1c-5.697-2.849-19.579-11-25.5-11 0-4.101 8.109-7.281 5-13.5-2.941-5.883-15.606-21.789-12-29 3.349-6.699 18-13.844 18-21.5l1-1h1l9-2h11c0 3.138 2 5.662 2 8-13.04 0-7.798 14.096-12 22.5-1.059 2.118 1.508 12.5-2 12.5 0-2.681-1-5.344-1-7.5 0-2.317-1.067-3.133-2-5-8.329-16.658-14.744 13.5 2 13.5 0 2.441-6.845 4.173-8.5 5l-3.5 6.5c-4.379 8.759 14.364 21.568 20.5 18.5 1.284-.642 2.813-.406 4-1 4.756-2.378 7.197-13 12.5-13l-4 7.5 1 2c3.331 6.663 8.451 3.5 14 3.5ZM277 203l-5 9.5c-1.194 2.388-.779 11.639 3.5 9.5 7.043-3.522 12.019-19 1.5-19m-42 47 8 13c0-3.243.073-6.286 3.5-8l20 1c7.539-3.77 15.36-7.18 23-11l4.5 1c0-.329-6.207-7.915-7-9.5-1.589-3.179 3-8.332 3-11.5l-3.5 2c-5.513-2.756-3.408-9.684-1.5-13.5 1.931-3.863-2.738-9.881 2.5-12.5 5.166-2.583 12.341 2.819 9.5 8.5l-6 13.5c2.892 0 5.115-6.729 6-8.5 9.732-19.464-17-25.974-17-34.5h-1c-1.257 0-8-.941-8-2h-12c0 2.409-1 5.181-1 7 13.088 0 8.798 28.095 13 36.5 2.441 4.882 10.269 4.537 13 10 2.193 4.386.378 13.061-4.5 15.5-12.836 6.418-12.593 5.704-24 0-3.569-1.785-4.719-11-10.5-11l6 8.5c.996 1.991-.302 3.901-1.5 4.5-3.032 1.516-7.703 5.149-12 3l-2.5-2Z"/><path fill="#6ACAB9" id="PIR" d="m176 180-1 1 1-1ZM297 247h2c9.158 0 15.993-13 31-13l9-5.5c3.485-6.971 6-6.597 6-16.5-2.058 0-17-7.176-17-9h-1l-2-2c-5.582 0-14.784-12-21-12-3.527 0-17.297-9-24-9 0 8.526 26.732 15.036 17 34.5-.885 1.771-3.108 8.5-6 8.5v1l-1 1c0 3.168-4.589 8.321-3 11.5.793 1.585 7 9.171 7 9.5l3 1ZM157 247h2l4-1 1-1c0-4.101 8.109-7.281 5-13.5-2.941-5.883-15.606-21.789-12-29 3.349-6.699 18-13.844 18-21.5-7.896 0-19.255 8-23 8-4.764 0-14.658 11-18 11l-1 1h-2l-1 1-1 1c0 1.441-15.979 9-18 9 0 9.338 3.199 14.85 11.5 19l4.5 3c0-2.238 8.357.429 9.5 1 6.395 3.197 13.169 12 20.5 12Z"/><path fill="#219764" id="AIv2/3" d="m130 202-1 1c-4.622 0-9.091 4-13.5 4-4.989 0-9.204-9-10.5-9v-1c4.254 0 7.157-4 11-4 3.334 0 9.096 4.202 13.5 2l19.5-11c1.621 0 3 3.283 3 5-4.764 0-14.658 11-18 11l-1 1h-2l-1 1ZM327 203h1c7.627 0 15.682 8.136 21-2.5.809-1.619 2-1.471 2-3.5-4.178 0-6.934-4-11-4-2.995 0-8.312 4.094-12.5 2-4.193-2.096-16.719-11-20.5-11-.221 0-3 3.851-3 5 6.216 0 15.418 12 21 12l2 2Z"/><path fill="#54BF94" id="AON" d="m210 237-1 1c-5.303 0-7.744 10.622-12.5 13-1.187.594-2.716.358-4 1-6.136 3.068-24.879-9.741-20.5-18.5l3.5-6.5c1.655-.827 8.5-2.559 8.5-5l1-1c3.508 0 .941-10.382 2-12.5 4.202-8.404-1.04-22.5 12-22.5 0 2.875 6.597 7 9 7 0 3.643 5.305 20.109 7 23.5l2 2.5v8c0 2.83-4 4.54-4 7l-1 1-1 1-1 1ZM245 235v1c5.781 0 6.931 9.215 10.5 11 11.407 5.704 11.164 6.418 24 0 4.878-2.439 6.693-11.114 4.5-15.5-2.731-5.463-10.559-5.118-13-10-4.202-8.405.088-36.5-13-36.5 0 3.766-6.858 8-10 8 0 7.75-9 22.046-9 26v8l1 1c0 1.076 1.523 5 3 5l2 2Z"/><path fill="#61D09F" id="TTd" d="M217 219c2.421 0 6.678 2.411 9.5 1l2-3 2 3 8.5-1c0-3.954 9-18.25 9-26h-19c0 1.186-1 1.186-1 0h-20c0 3.643 5.305 20.109 7 23.5l2 2.5Z"/><path fill="#99D2BD" id="OLF" d="M228 193c0 1.186 1 1.186 1 0s-1-1.186-1 0Z"/><path fill="#209864" id="AIv1" d="M328 203c0 1.824 14.942 9 17 9l4.5-3c1.627-1.627 5.5-7.742 5.5-10-1.238 0-3-.423-3-2h-1c0 2.029-1.191 1.881-2 3.5-5.318 10.636-13.373 2.5-21 2.5ZM129 203c0 1.441-15.979 9-18 9 0-.407-10-9.559-10-13l4-1c1.296 0 5.511 9 10.5 9 4.409 0 8.878-4 13.5-4ZM134 200l-1 1 1-1ZM131 201l-1 1 1-1Z"/><path fill="#A0EE9C" id="EPd" d="M161 201c0 5.088-2.722 5.055 0 10.5 1.952 3.904 2.919 13.209 7.5 15.5 7.258 3.629 3.33-22.84 2.5-24.5-1.196-2.391-7.569-1.5-10-1.5ZM291 224l-1 1-3.5 2c-5.513-2.756-3.408-9.684-1.5-13.5 1.931-3.863-2.738-9.881 2.5-12.5 5.166-2.583 12.341 2.819 9.5 8.5l-6 13.5v1Z"/><path fill="#209864" id="AIv1" d="m325 201 2 2-2-2ZM130 202l-1 1 1-1Z"/><path fill="#CBCBC7" id="aco" d="m185 221-1 1c-16.744 0-10.329-30.158-2-13.5.933 1.867 2 2.683 2 5 0 2.156 1 4.819 1 7.5ZM277 203l-5 9.5c-1.194 2.388-.779 11.639 3.5 9.5 7.043-3.522 12.019-19 1.5-19Z"/><path fill="#99D2BD" id="OLF" d="m239 226-2.5-2-11 1c-1.324-.662-4.206-1.897-6-1l-2.5 3v-8c2.421 0 6.678 2.411 9.5 1l2-3 2 3 8.5-1v7ZM185 221l-1 1 1-1Z"/><path fill="#62CF9E" id="TTv" d="m221 250-1 1c-5.549 0-10.669 3.163-14-3.5l-1-2 4-7.5 1-1 1-1 1-1 1-1c0-2.46 4-4.17 4-7l2.5-3c1.794-.897 4.676.338 6 1l11-1 2.5 2v1l1 1c0 1.076 1.523 5 3 5 0 1.747.253 2 2 2v1l6 8.5c.996 1.991-.302 3.901-1.5 4.5-3.032 1.516-7.703 5.149-12 3l-2.5-2-6.5-13-5.5 10.5-2 2.5Z"/><path fill="#99D2BD" id="OLF" d="m291 224-1 1 1-1ZM239 227l1 1-1-1Z"/><path fill="#CAC8C7" id="lot" d="m158 252-1 1c-5.13 0-30-15.361-30-19 0-2.238 8.357.429 9.5 1 6.395 3.197 13.169 12 20.5 12l1 2v3Z"/><path fill="#99D2BD" id="OLF" d="m243 233 2 2c-1.747 0-2-.253-2-2Z"/><path fill="#CAC8C7" id="lot" d="m299 252 1 1h4.5c3.172-1.586 25.5-17.651 25.5-19-15.007 0-21.842 13-31 13v5Z"/><path fill="#99D2BD" id="OLF" d="m213 234-1 1 1-1ZM212 235l-1 1 1-1ZM211 236l-1 1 1-1ZM210 237l-1 1 1-1ZM164 245l-1 1 1-1Z"/><path fill="#7FCCF7" id="OT" d="M159 254c0 2.24 5.59 4.045 7.5 5 5.857 2.928 27.466 12.767 33 10 2.892-1.446 13.5-.181 13.5-6 0-2.939.687-6.407-2.5-8l-21 1c-5.697-2.849-19.579-11-25.5-11l-1 1-4 1-1 2v3l1 2ZM243 263l1 1c0 4.652 9.998 3.749 12.5 5 4.522 2.261 27.776-6.388 33-9l7.5-5 1-1 1-2v-3l-2-2-3-1-4.5-1c-7.64 3.82-15.461 7.23-23 11l-20-1c-3.427 1.714-3.5 4.757-3.5 8Z"/><path fill="#99D2BD" id="OLF" d="m159 247-1 2-1-2h2ZM299 247v2l-2-2h2ZM221 250l-1 1 1-1ZM157 253l2 1-1-2-1 1ZM300 253l-2 1 1-2 1 1ZM298 254l-1 1 1-1Z"/><path fill="#97D6F9" id="STR" d="m243 263 1 1-1-1Z"/></svg>