<svg xmlns="http://www.w3.org/2000/svg" viewBox="0 0 456 320"><path fill="#1E9C59" id="MOs1" d="M114 110c0 2.167 1 3.855 1 7l8-12.5c3.815-7.63 16.635-17.567 24.5-21.5 7.583-3.792 43.849-16.575 53-12 3.73 1.865 7.203 4.101 11 6l3.5 3 4-3c0-6.706-24.455-18.023-32.5-14-4.839 2.42-11.221 1.61-16 4-13.045 6.523-36.867 12.234-43.5 25.5-2.272 4.544-12 10.276-12 16.5l-1 1ZM343 111c-.092 0-2 3.65-2 5-1.968 0-8.006-11.513-9-13.5-3.349-6.698-19.364-17.432-25.5-20.5-7.008-3.504-41.526-15.237-50-11-2.079 1.04-14.857 9-15.5 9l-4-3c0-6.61 24.968-17.766 32.5-14 2.981 1.49 7.108.554 10 2 15.534 7.767 44.344 13.188 53.5 31.5 1.862 3.723 9 8.288 9 12.5-2.029 0-.058 1 1 1v1Z"/><path fill="#1E9D58" id="MOs2/3" d="m128 150-7 3c0-4.006-3-7.021-3-10.5 0-6.525-3-15.674-3-22.5v-3l8-12.5c3.815-7.63 16.635-17.567 24.5-21.5 7.583-3.792 43.849-16.575 53-12 3.73 1.865 7.203 4.101 11 6l3.5 3v1c-2.99 0-3.409 5-5 5h-1c0-4.2-8.535-5-11.5-5-9.606 0-19.121 1.56-28 6-22.766 11.383-31.211 19.921-42.5 42.5-2.441 4.882 1 14.878 1 19.5v1ZM328 150l7 3c0-3.1 1.676-6.853 3-9.5 2.588-5.176 3-17.72 3-24.5v-3c-1.968 0-8.006-11.513-9-13.5-3.349-6.698-19.364-17.432-25.5-20.5-7.008-3.504-41.526-15.237-50-11-2.079 1.04-14.857 9-15.5 9v1c1.661 0 5 3.007 5 5h1c0-6.23 22.027-6.237 26.5-4 22.701 11.35 39.636 14.771 52.5 40.5 2.734 5.468 6.199 14.602 3 21-.619 1.238 1.144 5.5-1 5.5v1Z"/><path fill="#3EA665" id="ACAd1" d="M227 91c-2.33 0-3.227 2-6 2 0-1.994-3.618-12-6-12v-1l4-3 2 3.5c1.605 3.21 6 6.783 6 10.5ZM230 91l5 2 6-12v-1l-4-3c0 4.724-7 8.724-7 14Z"/><path fill="#1F9D58" id="MOs5" d="M151 133h1c0-6.354 7.699-18 15-18 0-6.484 19.966-11 25-11 0-1.988 5.237-6 7-6 0-3.797 10-8.135 10-12 0-4.2-8.535-5-11.5-5-9.606 0-19.121 1.56-28 6-22.766 11.383-31.211 19.921-42.5 42.5-2.441 4.882 1 14.878 1 19.5 5.821 0 17.734-16 23-16ZM305 133l23 16c2.144 0 .381-4.262 1-5.5 3.199-6.398-.266-15.532-3-21-12.864-25.729-29.799-29.15-52.5-40.5-4.473-2.237-26.5-2.23-26.5 4l10 12c1.763 0 7 4.012 7 6h1c12.213 0 40 15.168 40 29Z"/><path fill="#40A565" id="ACAd2/3" d="M221 93c-2.483 0-4.026 2-6 2 0-3.014-5-6.414-5-9 1.591 0 2.01-5 5-5 2.382 0 6 10.006 6 12ZM241 95h1c0-3.47 4-6.007 4-9 0-1.993-3.339-5-5-5l-6 12c1.623 0 6 .005 6 2Z"/><path fill="#3EA566" id="ACAd5" d="M215 95c-1.865 0-16 4.745-16 3 0-3.797 10-8.135 10-12h1c0 2.586 5 5.986 5 9ZM242 95c3.206 0 7.814 2 10.5 2 .702 0 4.5 3.848 4.5 1l-10-12h-1c0 2.993-4 5.53-4 9Z"/><path fill="#2FA750" id="PL1" d="M223 127h10l2-34-5-2c-.684 0-3 5.73-3 0-2.33 0-3.227 2-6 2 0 10.753 2 22.339 2 34Z"/><path fill="#2FA74F" id="PL2/3" d="M219 127h4c0-11.661-2-23.247-2-34-2.483 0-4.026 2-6 2 0 4.696 1.94 12.38 4 16.5V127ZM233 127h4c0-11.569 4-21.202 4-32 0-1.995-4.377-2-6-2l-2 34Z"/><path fill="#2EA84F" id="PL5" d="M201 119c3.28 0 13.747 8 18 8v-15.5c-2.06-4.12-4-11.804-4-16.5-1.865 0-16 4.745-16 3-1.763 0-7 4.012-7 6v1c6.515 0 9 8.828 9 14ZM255 120l-18 7c0-11.569 4-21.202 4-32h1c3.206 0 7.814 2 10.5 2 .702 0 4.5 3.848 4.5 1 1.763 0 7 4.012 7 6l-5 3.5c-1.649 3.298-4 7.616-4 11.5v1Z"/><path fill="#1D9C5A" id="MOs6a" d="M188 109c-9.198 0-17.121 6-21 6 0-6.484 19.966-11 25-11v1l-4 4Z"/><path fill="#2FA850" id="PL6a" d="m263 115-8 4c0-3.884 2.351-8.202 4-11.5l5-3.5h1l4 5c-2.473 0-6 3.527-6 6Z"/><path fill="#1D9C5A" id="MOs6a" d="M297 133h8c0-13.832-27.787-29-40-29l4 5c8.245 0 12.798 2.649 19.5 6 1.809.905 7.232 10 3.5 10l5 8Z"/><path fill="#2FA850" id="PL6a" d="m193 114 8 5c0-5.172-2.485-14-9-14l-4 4 5 5Z"/><path fill="#1E9D5A" id="MOp1" d="m115 109-1 1 1-1Z"/><path fill="#268E44" id="FRP6a" d="M184 116c-7.497 0-13.008 9-20 9l-1-4.5c1.213-2.426 4-3.031 4-5.5 3.879 0 11.802-6 21-6l5 5c0 3.195 3.772 3 0 3-1.488 0-9-2.337-9-1ZM272 115l20 10c3.732 0-1.691-9.095-3.5-10-6.702-3.351-11.255-6-19.5-6-2.473 0-6 3.527-6 6 0 .716-2.373 3 0 3 0-1.869 7.329-3 9-3Z"/><path fill="#1E9D5A" id="MOp1" d="m342 109 1 1c-1.058 0-3.029-1-1-1ZM117 156c-1.238 0-5 1.923-5 3-2.707 0-3.124-7.748-4-9.5-4.675-9.35-2.445-22.109 2-31 .767-1.535 1.845-8.5 4-8.5 0 2.167 1 3.855 1 7v3c-2.016 0-3 7.698-3 9.5 0 4.516-2.293 10.414 0 15 1.114 2.229 5 8.213 5 10.5v1ZM340 155l5 4 4-7.5c1.072-2.144 3.401-18.197 2-21l-4-13-4-6.5c-.092 0-2 3.65-2 5v3c2.595 0 2.191 6.883 3 8.5 5.338 10.675-4 19.965-4 27.5Z"/><path fill="#22885E" id="ORBm6a" d="M201 119c0 2.176.348 7-3 7-.595 0-5-7.728-5-9 3.772 0 0 .195 0-3l8 5Z"/><path fill="#1D9C5A" id="MOs6a" d="M152 133h7c1.985 0 5-6.262 5-8l-1-4.5c1.213-2.426 4-3.031 4-5.5-7.301 0-15 11.646-15 18Z"/><path fill="#238A5C" id="ORBvl6a" d="M198 127c-5.517 0-10.764 2-17 2 0-4.798 3-8.617 3-13 0-1.337 7.512 1 9 1 0 1.272 4.405 9 5 9v1Z"/><path fill="#22885E" id="ORBm6a" d="M255 120c0 1.738.686 6 3 6l5-8c-2.373 0 0-2.284 0-3l-8 4v1Z"/><path fill="#238A5C" id="ORBvl6a" d="M258 127c5.642 0 12.228 3 18 3 0-5.011-4-10.35-4-15-1.671 0-9 1.131-9 3l-5 8v1Z"/><path fill="#24895D" id="ORBl6a" d="m297 133 3 9c-6.236 0-14.386-12-24-12 0-5.011-4-10.35-4-15l20 10 5 8ZM159 133c0 3.559-3 5.504-3 9 5.612 0 14.332-12 25-12v-1c0-4.798 3-8.617 3-13-7.497 0-13.008 9-20 9 0 1.738-3.015 8-5 8Z"/><path fill="#23885E" id="ORBm5" d="M213 158h1c6.889 0 5-26.858 5-31-4.253 0-14.72-8-18-8 0 2.176.348 7-3 7v1l4 7.5c3.289 6.578 11 15.911 11 23.5Z"/><path fill="#1F9C58" id="MOp2/3" d="M339 155h1c0-7.535 9.338-16.825 4-27.5-.809-1.617-.405-8.5-3-8.5 0 6.78-.412 19.324-3 24.5-1.324 2.647-3 6.4-3 9.5l4 2ZM121 153l-4 2c0-2.287-3.886-8.271-5-10.5-2.293-4.586 0-10.484 0-15 0-1.802.984-9.5 3-9.5 0 6.826 3 15.975 3 22.5 0 3.479 3 6.494 3 10.5Z"/><path fill="#23885E" id="ORBm5" d="M242 158h1c0-7.143 15-25.67 15-31v-1c-2.314 0-3-4.262-3-6l-18 7c0 7.178-2.057 19.386 1 25.5.571 1.143 4 5.224 4 5.5Z"/><path fill="#23885C" id="ORBvl5" d="M182 147c0-1.818 6.404-.548 7.5 0l23.5 11c0-7.589-7.711-16.922-11-23.5l-4-7.5c-5.517 0-10.764 2-17 2v18h1Z"/><path fill="#24885D" id="ORBm2/3" d="M214 158c0 1.285 4.129 11 5 11 4.882 0 2.625-5.75 4-8.5 4.365-8.729 0-24.19 0-33.5h-4c0 4.142 1.889 31-5 31Z"/><path fill="#23895D" id="ORBm1" d="m226 179-4 1-3-10v-1c4.882 0 2.625-5.75 4-8.5 4.365-8.729 0-24.19 0-33.5h10c0 8.096-2.944 26.613 0 32.5 1.42 2.841-.905 9.5 4 9.5v1c0 3.708-2 5.942-2 10-2.25 0-3.376-2-5-2 0-3.714-3-6.582-3-1l-1 2Z"/><path fill="#24885D" id="ORBm2/3" d="M242 158c0 1.869-3.198 11-5 11-4.905 0-2.58-6.659-4-9.5-2.944-5.887 0-24.404 0-32.5h4c0 7.178-2.057 19.386 1 25.5.571 1.143 4 5.224 4 5.5Z"/><path fill="#23885C" id="ORBvl5" d="M275 146c-12.362 0-23.074 12-32 12 0-7.143 15-25.67 15-31 5.642 0 12.228 3 18 3 0 4.64 1 6.576 1 10.5l-2 5.5Z"/><path fill="#228A5D" id="ORBl5" d="M149 162c0 4.135-2 7.305-2 11 9.867 0 27.131-26 34-26v-17c-10.668 0-19.388 12-25 12l-6 19-1 1ZM306 160c0 4.062 3 8.575 3 13-9.711 0-26.424-26-34-26v-1l2-5.5c0-3.924-1-5.86-1-10.5 9.614 0 17.764 12 24 12h1l5 18Z"/><path fill="#209666" id="AId6a" d="M159 133c0 3.559-3 5.504-3 9-3.851 0-5-5.811-5-9h8ZM300 142h1c3.745 0 4-6.446 4-9h-8l3 9Z"/><path fill="#209665" id="AId5" d="m149 162-7 11c-3.86 0-14-19.413-14-23v-1c5.821 0 17.734-16 23-16 0 3.189 1.149 9 5 9l-6 19-1 1ZM306 160c3.813 0 4.566 13 8 13 4.753 0 14-18.866 14-23v-1l-23-16c0 2.554-.255 9-4 9l5 18Z"/><path fill="#248A5D" id="ORBvl2/3" d="M219 169v1c-10.836 0-21.25-11-33-11h-1c0-4.698-3-7.153-3-12 0-1.818 6.404-.548 7.5 0l23.5 11h1c0 1.285 4.129 11 5 11ZM237 169v1c11.031 0 21.196-11 33-11h1l4-12v-1c-12.362 0-23.074 12-32 12h-1c0 1.869-3.198 11-5 11Z"/><path fill="#238A5E" id="ORBl2/3" d="M147 174v8c3.519 0 6.269-5.885 8.5-7 11.478-5.739 15.144-16 29.5-16 0-4.698-3-7.153-3-12h-1c-6.869 0-24.133 26-34 26v1ZM309 183h1l-1-10c-9.711 0-26.424-26-34-26l-4 12c17.061 0 17.083 10.292 28.5 16 2.019 1.009 9.5 4.908 9.5 8Z"/><path fill="#209765" id="AId2/3" d="M134 182h1l7-8v-1c-3.86 0-14-19.413-14-23l-7 3-4 2v1c0 5.038 17 21.524 17 26ZM314 174c3.929 0 3.398 7 8 7 1.503 0 17-23.189 17-26l-4-2-7-3c0 4.134-9.247 23-14 23v1Z"/><path fill="#209764" id="AId1" d="M322 182c1.947 0 2.636 3 5 3l4.5-6c1.921-.961 13.5-17.255 13.5-20l-5-4h-1c0 2.811-15.497 26-17 26v1ZM134 182l-4 4c-.948 0-18-23.765-18-27 0-1.077 3.762-3 5-3 0 5.038 17 21.524 17 26Z"/><path fill="#238A5D" id="ORBl1" d="m147 183 2 4c3.05 0 4.483-6 8-6 0-1.747.253-2 2-2 0-5.168 21.685-14 27-14v-6h-1c-14.356 0-18.022 10.261-29.5 16-2.231 1.115-4.981 7-8.5 7v1Z"/><path fill="#248A5B" id="ORBvl1" d="m219 170 3 10c-10.21 0-22.441-15-36-15v-6c11.75 0 22.164 11 33 11ZM237 170c0 3.708-2 5.942-2 10 10.631 0 21.912-15 35-15v-6c-11.804 0-21.969 11-33 11Z"/><path fill="#238A5D" id="ORBl1" d="M309 183c0 1.465.109 4-2 4l-10.5-10c-9.122-4.561-15.443-12-26.5-12v-6h1c17.061 0 17.083 10.292 28.5 16 2.019 1.009 9.5 4.908 9.5 8Z"/><path fill="#1F9865" id="AIv5" d="M314 173v1l-5-1c0-4.425-3-8.938-3-13 3.813 0 4.566 13 8 13ZM150 161l-1 1 1-1ZM142 174h5v-1c0-3.695 2-6.865 2-11l-7 11v1Z"/><path fill="#99D2BD" id="OLF" d="M217 229c2.522 0 4.909 2 8 2 2.238 0 2-9.802 2-12 0-13.499-1-27.045-1-40l-4 1c-10.21 0-22.441-15-36-15-5.315 0-27 8.832-27 14 6.782 0 20.571-16.465 29.5-12 5.469 2.734 11.147 7.574 16 10l4.5 6c0-3.491 10.182-.865 7 5.5l-1.5 2.5-3.5-3c0 5.077.045 25.591 2 29.5 1.114 2.228 2.857 6.179 5.5 7.5l3.5 2.5c0 1.53-5-.779-5 1.5ZM239 229c-2.522 0-4.909 2-8 2 0-1.906-1.099-6.698-2-8.5-2.36-4.719 1-38.438 1-44.5 1.624 0 2.75 2 5 2 10.631 0 21.912-15 35-15 11.057 0 17.378 7.439 26.5 12l10.5 10c0 2.462 8 3.851 8 5 0 7.901 6.913 9.587-.5 17l-3.5 3c0-2.215-2-1.519-2-3 3.139 0 3.216-12.067 2-14.5-4.568-9.135-18.089-19.295-26.5-23.5-10.176-5.088-17.286-3.857-27 1L247 184c0-5.995-7-1.398-7 3l1.5 4c1.045 0 1.861-2 3.5-2 0 5.331.089 25.321-2 29.5-1.966 3.932-7.04 6.079-8 8-1.201 2.401 4 .591 4 2.5Z"/><path fill="#54BF94" id="AON" fill-rule="evenodd" d="M179 193c0 .832 7.963 19.427 9 21.5l4.5 4.5c3.112-1.556.622-13.256-.5-15.5-2.112-4.224 2.573-5.854 1-9-1.505-3.011-10.981-1.5-14-1.5m-2 50c5.243 0 10.016 9 16 9 0-8.476 7.943-19.221 15.5-23h8.5c0-2.279 5 .03 5-1.5l-3.5-2.5c-2.643-1.321-4.386-5.272-5.5-7.5-1.955-3.909-2-24.423-2-29.5v-1l-1-1v-1l-1-1v-1l-4.5-6c-4.853-2.426-10.531-7.266-16-10-8.929-4.465-22.718 12-29.5 12 0 1.747-.253 2-2 2 0 .943-10.851 12.203-12 14.5v13l2 1.5 3.5-1c5.462 2.731 26.5 29.602 26.5 34ZM264 193c0 1.501 1.223 9.053 1 9.5-1.512 3.024-5.669 13.916-.5 16.5 2.323 1.162 4.804-9.109 5.5-10.5.718-1.436 8-13.979 8-14 0-2.565-12.107-1.5-14-1.5m15 50c-2.52 0-10.642 9-15 9 0-7.492-8.75-19.625-15.5-23H239c0-1.909-5.201-.099-4-2.5.96-1.921 6.034-4.068 8-8 2.089-4.179 2-24.169 2-29.5l2-5 10.5-12c9.714-4.857 16.824-6.088 27-1 8.411 4.205 21.932 14.365 26.5 23.5 1.216 2.433 1.139 14.5-2 14.5-6.897 0-19.351 17.201-22 22.5-2.303 4.606-8 5.855-8 11.5Z"/><path fill="#219764" id="AIv2/3" d="M322 182c-1.979 0-4.21 4-6.5 4l-5.5-3-1-10 5 1c3.929 0 3.398 7 8 7v1ZM147 182v1c-1.764 0-12 6.159-12-1l7-8h5v8Z"/><path fill="#99D2BD" id="OLF" d="m227 177-1 2 1-2ZM159 179c-1.747 0-2 .253-2 2 1.747 0 2-.253 2-2ZM147 210l-2 1c-2.409 0-1.055-1.277-2.5-2-8.448-4.224-1.5-10.185-1.5-17 1.6 0 8-3.116 8-5 3.05 0 4.483-6 8-6 0 .943-10.851 12.203-12 14.5v13l2 1.5Z"/><path fill="#61D09F" id="TTd" d="M211 187v1l3.5 3 1.5-2.5c3.182-6.365-7-8.991-7-5.5v1l1 1v1l1 1ZM247 184l-2 5c-1.639 0-2.455 2-3.5 2l-1.5-4c0-4.398 7-8.995 7-3Z"/><path fill="#209864" id="AIv1" d="M149 187c0 1.884-6.4 5-8 5-3.173 0-11-1.452-11-6l4-4h1c0 7.159 10.236 1 12 1l2 4ZM307 187c0 2.462 8 3.851 8 5 4.367 0 12-1.695 12-7-2.364 0-3.053-3-5-3-1.979 0-4.21 4-6.5 4l-5.5-3h-1c0 1.465.109 4-2 4Z"/><path fill="#99D2BD" id="OLF" d="m209 184 1 1-1-1ZM210 186l1 1-1-1Z"/><path fill="#CBCBC7" id="aco" d="M179 193c0 .832 7.963 19.427 9 21.5l4.5 4.5c3.112-1.556.622-13.256-.5-15.5-2.112-4.224 2.573-5.854 1-9-1.505-3.011-10.981-1.5-14-1.5ZM264 193c0 1.501 1.223 9.053 1 9.5-1.512 3.024-5.669 13.916-.5 16.5 2.323 1.162 4.804-9.109 5.5-10.5.718-1.436 8-13.979 8-14 0-2.565-12.107-1.5-14-1.5Z"/><path fill="#CAC8C7" id="lot" d="M145 211c0 4.404 5.403 6.903 8.5 10 5.163 5.163 15.88 22 23.5 22 0-4.398-21.038-31.269-26.5-34l-3.5 1-2 1ZM311 212c0 4.561-6.435 5.37-8 8.5-3.14 6.281-16.38 22.5-24 22.5 0-5.645 5.697-6.894 8-11.5 2.649-5.299 15.103-22.5 22-22.5 0 1.481 2 .785 2 3Z"/><path fill="#62CF9E" id="TTv" d="M225 231c0 10.232-7.177 23.839-15.5 28-3.174 1.587-10.438-3.719-13-5l-3.5-2c0-8.476 7.943-19.221 15.5-23h8.5c2.522 0 4.909 2 8 2ZM231 231c0 5.056 11.129 31.685 18.5 28l14.5-7c0-7.492-8.75-19.625-15.5-23H239c-2.522 0-4.909 2-8 2Z"/></svg>