<svg xmlns="http://www.w3.org/2000/svg" viewBox="0 0 456 320"><path fill="#1E9C59" id="MOs1" d="M218 70c0-3.017-8.352-9.426-11.5-11l-9-1c-7.233-3.616-38.794 7.397-46 11-3.032 1.516-7.049 6-10.5 6v-6c0-1.499 14.448-6.974 16.5-8 15.133-7.567 35.309-14.345 52-6 4.119 2.06 11.5 5.897 11.5 12 0 1.54-1.342 3-3 3ZM239 70c0-9.325 16.226-10.363 19.5-12 6.949-3.474 37.1 6.55 44 10l12.5 7 1-6-15.5-8c-15.174-7.587-37.382-14.31-54-6-4.065 2.032-11.5 6.496-11.5 12 0 2.93 3 1.084 3 3h1Z"/><path fill="#1E9D58" id="MOs2/3" d="m141 76 2 16c4.51 0 10.472-6.986 14.5-9 8.638-4.319 24.949-15 34.5-15 4.832 0 20 1.585 20 7h1l5-5c0-3.017-8.352-9.426-11.5-11l-9-1c-7.233-3.616-38.794 7.397-46 11-3.032 1.516-7.049 6-10.5 6v1ZM315 75c0 2.835-.419 16-2 16-9.173 0-33.93-23-48-23-5.152 0-20 .49-20 7h-1l-5-5c0-9.325 16.226-10.363 19.5-12 6.949-3.474 37.1 6.55 44 10l12.5 7Z"/><path fill="#3EA665" id="ACAd1" d="M222 95h12l-1-14.5c1.119-2.238 5-8.228 5-10.5 0-1.916-3-.07-3-3l-6 7.5-.5 2.5c-3.226 0-3.58-10-7.5-10 0 1.54-1.342 3-3 3l3 3.5 2 6c2.045 4.09-1 11.676-1 15.5Z"/><path fill="#1F9D58" id="MOs5" d="M143 115h1l15.5-10c10.021-5.01 21.037-8.019 31-13l4.5 2c0-1.294 15.023-19 17-19 0-5.415-15.168-7-20-7-9.551 0-25.862 10.681-34.5 15-4.028 2.014-9.99 9-14.5 9v23ZM312 115h1V91c-9.173 0-33.93-23-48-23-5.152 0-20 .49-20 7 0 3.448 16 13.03 16 19h1c0-3.702 10.778.139 12.5 1 9.15 4.575 18.832 8.416 28 13 2.463 1.231 7.756 7 9.5 7Z"/><path fill="#1E9D5A" id="MOp1" d="m93 173-5 1-1-2v-3c0-1.048.473-3-1-3 0-6.087-5.104-23.292-2-29.5 1.369-2.737.65-6.3 2-9 6.795-13.59 19.827-37.163 34.5-44.5 4.851-2.425 14.164-14 20.5-14v7c-6.673 0-12.742 9.12-18.5 12-12.009 6.004-23.766 25.032-29.5 36.5l-4 13c-4.403 8.806 4 27.053 4 34.5v1ZM369 173l-1 1-4-1v-1c0-6.667 6.618-29.264 3-36.5l-4-12c-5.732-11.464-19.426-30.963-30.5-36.5-4.027-2.014-13.629-12-17.5-12l1-6c6.748 0 16.743 13.121 22.5 16 14.206 7.103 26.091 31.682 32.5 44.5 1.586 3.173.375 7.75 2 11 3.661 7.323-3 20.301-3 27.5l-1 2v3Z"/><path fill="#40A565" id="ACAd2/3" d="m222 95-5 1-1-13.5-3-7.5 5-5 3 3.5 2 6c2.045 4.09-1 11.676-1 15.5ZM234 95l6 1c0-4.956-1.087-12.327 1-16.5l3-4.5-5-5h-1c0 2.272-3.881 8.262-5 10.5l1 14.5Z"/><path fill="#3EA566" id="ACAd5" d="M217 96c-6.037 0-11.576 6-17 6 0-2.683-1.741-7-5-7v-1c0-1.294 15.023-19 17-19h1l3 7.5 1 13.5ZM256 102h1c0-3.698 4-6.214 4-8 0-5.97-16-15.552-16-19h-1l-3 4.5c-2.087 4.173-1 11.544-1 16.5 5.732 0 11.004 6 16 6Z"/><path fill="#1F9C58" id="MOp2/3" d="M351 168c4.794 0 8.117 4 13 4 0-6.667 6.618-29.264 3-36.5l-4-12c-5.732-11.464-19.426-30.963-30.5-36.5-4.027-2.014-13.629-12-17.5-12 0 2.835-.419 16-2 16v1c5.998 0 11.709 10.604 16.5 13 3.267 1.633 7.54 6.58 9.5 10.5l6 8c2.257 4.513 3.719 9.437 6 14 3.197 6.394 0 21.757 0 29.5v1ZM105 168l-12 4c0-7.447-8.403-25.694-4-34.5l4-13c5.734-11.468 17.491-30.496 29.5-36.5 5.758-2.88 11.827-12 18.5-12l2 16v1c-7.577 0-12.079 10.789-18.5 14-2.885 1.443-5.955 6.411-7.5 9.5l-4 4c-8.428 16.855-8 26.48-8 46.5v1Z"/><path fill="#1D9C5A" id="MOs6a" d="M166 135c-9.55 0-20.553 13-27 13 0-2.598-1-6.098-1-8.5 0-7.586 5-13.913 5-22.5v-1l1-1 15.5-10c10.021-5.01 21.037-8.019 31-13l4.5 2v1c-2.5 0-12 20.236-12 24l-1 2-1 2c-7.952 0-14 2.199-14 11l-1 1ZM290 135c10.916 0 19.245 13 28 13 0-5.119-1-11.718-1-16.5l-2-1c-1.098-2.196-3-13.553-3-15.5-1.744 0-7.037-5.769-9.5-7-9.168-4.584-18.85-8.425-28-13-1.722-.861-12.5-4.702-12.5-1 0 6.748 12 17.425 12 26l1 3c8.123 0 14 1.997 14 11l1 1Z"/><path fill="#1E9C5A" id="MOp5" d="M329 155c5.809 0 14.727 12 22 12 0-7.743 3.197-23.106 0-29.5-2.281-4.563-3.743-9.487-6-14l-6-8c-1.96-3.92-6.233-8.867-9.5-10.5-4.791-2.396-10.502-13-16.5-13v23l10 10.5c5.201 10.401 6 17.827 6 29.5ZM127 155c-4.978 0-15.17 12-22 12 0-20.02-.428-29.645 8-46.5l4-4c1.545-3.089 4.615-8.057 7.5-9.5 6.421-3.211 10.923-14 18.5-14v24c-7.543 0-13.558 18.616-16 23.5V155Z"/><path fill="#3FA664" id="ACAd6a" d="m257 102 4.5 4c3.759 3.759 7.33 7.161 9.5 11.5l3 2.5c0-8.575-12-19.252-12-26h-1c0 1.786-4 4.302-4 8ZM200 103c-7.135 0-13.667 16-17 16 0-3.764 9.5-24 12-24 3.259 0 5 4.317 5 7v1Z"/><path fill="#2FA74F" id="PL2/3" d="M218 133h5c0-11.999-1-25.357-1-38l-5 1c0 12.236 1 25.439 1 37Z"/><path fill="#2FA750" id="PL1" d="M223 133h11V95h-12c0 12.643 1 26.001 1 38Z"/><path fill="#2FA74F" id="PL2/3" d="M234 133h4c0-11.938 2-24.358 2-37l-6-1v38Z"/><path fill="#2EA84F" id="PL5" d="M204 133h14c0-11.561-1-24.764-1-37-6.037 0-11.576 6-17 6v1c0 10.181 4 20.046 4 30ZM252 133h1c0-10.692 3-20.186 3-31-4.996 0-10.268-6-16-6 0 12.642-2 25.062-2 37h14Z"/><path fill="#2FA850" id="PL6a" d="M268 133h1c0-3.063 2.483-10 6-10l-1-3-3-2.5c-2.17-4.339-5.741-7.741-9.5-11.5l-4.5-4h-1c0 10.814-3 20.308-3 31 0 .732 11.589 0 15 0ZM188 133h16c0-9.954-4-19.819-4-30-7.135 0-13.667 16-17 16l-1 2-1 2c3.444 0 7 7.131 7 10Z"/><path fill="#1F9B5A" id="MOp6a" d="m144 115-1 1v-1h1ZM318 148l11 7c0-11.673-.799-19.099-6-29.5L313 115h-1c0 1.947 1.902 13.304 3 15.5l2 1c0 4.782 1 11.381 1 16.5ZM139 148l-12 7v-14.5c2.442-4.884 8.457-23.5 16-23.5 0 8.587-5 14.914-5 22.5 0 2.402 1 5.902 1 8.5Z"/><path fill="#3FA664" id="ACAd6a" d="m183 119-1 2 1-2Z"/><path fill="#1E9C58" id="MOs6b" d="M168 134h1v-2c0-1.622-.461-5 2-5l1-1 3-1 6-1v-1c-7.952 0-14 2.199-14 11h1Z"/><path fill="#2FA84F" id="PL6b" d="M187 133h1c0-2.869-3.556-10-7-10v1c1.539 0 3 1.342 3 3l3 6ZM269 133h1l3-6c0-1.238.423-3 2-3v-1c-3.517 0-6 6.937-6 10Z"/><path fill="#1E9C58" id="MOs6b" d="M288 134h1c0-9.003-5.877-11-14-11v1l6 1c1.465 0 4-.109 4 2 3.377 0 3 4.226 3 7Z"/><path fill="#CACCC7" id="cing" d="M175 125c0 .981 7.758 2 9 2 0-1.658-1.461-3-3-3l-6 1ZM281 125c0 .816-7.019 2-8 2 0-1.238.423-3 2-3l6 1Z"/><path fill="#CAC7CC" id="fa" d="M190 146c0 2.461-3.378 2-5 2 0-.537-12.594-3-14-3 0-3.62-2-6.768-2-11v-2c1.014 0 2-3.959 2-5l1-1 3-1c0 .981 7.758 2 9 2l3 6 3 13ZM267 146c0 2.868 2.688 2 5 2 0-2.114 13-.714 13-3l2-4.5c2.188-4.377-2-10.041-2-13.5 0-2.109-2.535-2-4-2 0 .816-7.019 2-8 2l-3 6c0 .922-2.496 8-3 8v5Z"/><path fill="#C9C9CA" id="scwm" d="m172 126-1 1 1-1ZM171 127c-2.461 0-2 3.378-2 5 1.014 0 2-3.959 2-5ZM289 138c0 2.591-1.238 7-4 7l2-4.5c2.188-4.377-2-10.041-2-13.5 3.377 0 3 4.226 3 7l1 4Z"/><path fill="#24875E" id="ORBm6b" d="M190 146h1l-2-10-1-3h-1l3 13Z"/><path fill="#58B362" id="ILA6a" d="M210 173c-3.222 0-6.277 1-9 1 0-11.139-1.425-20.35-6-29.5-.791-1.582-3.942-8.5-6-8.5l-1-3h16c0 13.186 6 26.192 6 40Z"/><path fill="#59B262" id="ILA5" d="m210 173 5 2c0-.139 4.504-14.507 5-15.5.513-1.026-2-23.658-2-26.5h-14c0 13.186 6 26.192 6 40Z"/><path fill="#59B362" id="ILA2/3" d="M215 175h5l4-11.5-1-30.5h-5c0 2.842 2.513 25.474 2 26.5-.496.993-5 15.361-5 15.5Z"/><path fill="#59B263" id="ILA1" d="M229 175h8c0-.813-4.29-13.081-5-14.5-2.584-5.167 2-21.759 2-27.5h-11l1 30.5-4 11.5h7l1-7c0-9.17 1-9.17 1 0v7Z"/><path fill="#59B362" id="ILA2/3" d="M237 175h4l-4-10.5c-2.712-5.425 1-25.345 1-31.5h-4c0 5.741-4.584 22.333-2 27.5.71 1.419 5 13.687 5 14.5Z"/><path fill="#59B262" id="ILA5" d="m247 173-6 2-4-10.5c-2.712-5.425 1-25.345 1-31.5h14c0 13.736-5 25.375-5 40Z"/><path fill="#58B362" id="ILA6a" d="M247 173c2.707 0 5.903 1 8 1 0-8.881 1.814-19.128 6-27.5.908-1.816 3.245-9.5 6-9.5l1-4c-3.411 0-15 .732-15 0h-1c0 13.736-5 25.375-5 40Z"/><path fill="#24875E" id="ORBm6b" d="M267 137v4c.504 0 3-7.078 3-8h-2l-1 4Z"/><path fill="#209666" id="AId6a" d="m167 134-1 1 1-1Z"/><path fill="#1F9766" id="AId6b" d="m168 137-2 1v-3l1-1h1v3Z"/><path fill="#C9C9CA" id="scwm" d="M168 137c0 1.968.361 8 3 8 0-3.62-2-6.768-2-11h-1v3Z"/><path fill="#1F9766" id="AId6b" d="M289 138h1v-3l-1-1h-1l1 4Z"/><path fill="#209666" id="AId6a" d="M141 167h1l1-1c0-1.602 6.064-10 8-10l1-1 1-2 1-1 1-1c0-1.702 8.631-12 11-12v-4c-9.55 0-20.553 13-27 13l-12 7c0 6.194 8.416 12 14 12ZM314 167h1c5.961 0 14-5.502 14-12l-11-7c-8.755 0-17.084-13-28-13v4l12 12 3 3.5c2.43 2.43 9 9.107 9 12.5Z"/><path fill="#22885E" id="ORBm6a" d="M196 174h5c0-11.139-1.425-20.35-6-29.5-.791-1.582-3.942-8.5-6-8.5l2 10v2c2.744 0 6.374 13.752 5 16.5l-3 3c-1.278 2.555 2 4.516 2 6.5h1Z"/><path fill="#248A5C" id="ORBl6b" d="M185 148v2c-7.599 0-19-1.683-19-11v-1l2-1c0 1.968.361 8 3 8 1.406 0 14 2.463 14 3Z"/><path fill="#22885E" id="ORBm6a" d="M255 174h6c0-1.583 2-2.407 2-4.5 0-2.531-1.935-4.87-3-7-.892-1.783 2.857-13.5 5-13.5v-2c0-1.357.647-6 2-6v-4c-2.755 0-5.092 7.684-6 9.5-4.186 8.372-6 18.619-6 27.5Z"/><path fill="#248A5C" id="ORBl6b" d="m272 148-1 2c7.621 0 19-1.626 19-11v-1h-1c0 2.591-1.238 7-4 7 0 2.286-13 .886-13 3Z"/><path fill="#24895D" id="ORBl6a" d="M188 164c0-4.476-5.778-5.639-8.5-7-11.439-5.72-22.134 8-32.5 8l4-9 1-1 1-2 1-1 1-1c0-1.702 8.631-12 11-12 0 9.317 11.401 11 19 11 0 1.321 6.252 14 3 14ZM269 164c0-2.826 1.451-3.975 3.5-5 17.684-8.842 23.326 6 36.5 6 0-5.399-7-8.984-7-14l-12-12c0 9.374-11.379 11-19 11 0 4.928-3 8.591-3 14h1Z"/><path fill="#24875E" id="ORBm6b" d="m267 146-2 1c0-1.357.647-6 2-6v5Z"/><path fill="#22895E" id="ORBvl6b" d="M191 148c0 5.196-3.139 2-6 2v-2c1.622 0 5 .461 5-2h1v2ZM265 149c0 3.893 4.854 1 6 1l1-2c-2.312 0-5 .868-5-2l-2 1v2Z"/><path fill="#238A5C" id="ORBvl6a" d="m195 174-4 1c0-2.155-.525-10-3-10v-1c3.252 0-3-12.679-3-14 2.861 0 6 3.196 6-2 2.744 0 6.374 13.752 5 16.5l-3 3c-1.278 2.555 2 4.516 2 6.5ZM261 174l4 1c0-4.334 3-7.01 3-11 0-5.409 3-9.072 3-14-1.146 0-6 2.893-6-1-2.143 0-5.892 11.717-5 13.5 1.065 2.13 3 4.469 3 7 0 2.093-2 2.917-2 4.5Z"/><path fill="#1F9866" id="AIv6a" d="m155 151-1 1 1-1ZM310 166l4 1c0-3.393-6.57-10.07-9-12.5l-3-3.5c0 5.016 7 8.601 7 14l1 1ZM154 152l-1 1 1-1ZM153 153l-1 2 1-2Z"/><path fill="#209665" id="AId5" d="m105 168 4 18.5 4 6.5c6.568 0 18.492-12.485 21-17.5l7-8.5c-5.584 0-14-5.806-14-12-4.978 0-15.17 12-22 12v1Z"/><path fill="#1F9866" id="AIv6a" d="m152 155-1 1 1-1Z"/><path fill="#209665" id="AId5" d="M351 168c0 4.026-4.59 25-8 25-4.58 0-28-23.593-28-26 5.961 0 14-5.502 14-12 5.809 0 14.727 12 22 12v1Z"/><path fill="#1F9866" id="AIv6a" d="M143 166h3l1-1 4-9c-1.936 0-8 8.398-8 10Z"/><path fill="#228A5D" id="ORBl5" d="M151 185c3.334 0 9.096-4.202 13.5-2l1.5 2 15-6.5 4-2.5c0-2.468.237-11 3-11v-1c0-4.476-5.778-5.639-8.5-7-11.439-5.72-22.134 8-32.5 8l-1 1c0 1.804-2.182 5.136-1 7.5 1.561 3.123 6 8.837 6 11.5ZM305 185c-2.382 0-14-5.983-14 1l-20-10c0-4.672-2-8.079-2-12 0-2.826 1.451-3.975 3.5-5 17.684-8.842 23.326 6 36.5 6l1 1c0 1.804 2.182 5.136 1 7.5-.845 1.689-6 10.772-6 11.5Z"/><path fill="#23885C" id="ORBvl5" d="m265 175 6 1c0-4.672-2-8.079-2-12h-1c0 3.99-3 6.666-3 11Z"/><path fill="#24895D" id="ORBl6a" d="m147 165-1 1 1-1Z"/><path fill="#23885C" id="ORBvl5" d="m191 175-6 1c0-2.468.237-11 3-11 2.475 0 3 7.845 3 10Z"/><path fill="#009C75" id="GU1" d="M86 166c1.473 0 1 1.952 1 3-1.473 0-1-1.952-1-3Z"/><path fill="#1F9866" id="AIv6a" d="m143 166-1 1 1-1Z"/><path fill="#1F9865" id="AIv5" d="M113 193v1c3.363 0 6.64 6.43 11.5 4l26.5-13c0-2.663-4.439-8.377-6-11.5-1.182-2.364 1-5.696 1-7.5h-3l-1 1h-1l-7 8.5c-2.508 5.015-14.432 17.5-21 17.5ZM343 193v2c-3.908 0-7.824 5.338-14.5 2-4.845-2.422-17.795-12-22.5-12h-1c0-.728 5.155-9.811 6-11.5 1.182-2.364-1-5.696-1-7.5l4 1h1c0 2.407 23.42 26 28 26Z"/><path fill="#209765" id="AId2/3" d="M113 194c0 .473-8.784 4-10 4-1.186 0-3.454-4.408-4-5.5-2.22-4.439-6-14.536-6-19.5v-1l12-4 4 18.5 4 6.5v1Z"/><path fill="#99D2BD" id="OLF" d="M227 175h2v-7h-1l-1 7Z"/><path fill="#209765" id="AId2/3" d="M343 195c4.486 0 6.897 3 11 3l7-15.5c.719-1.437 1.342-9.5 3-9.5v-1c-4.883 0-8.206-4-13-4 0 4.026-4.59 25-8 25v2Z"/><path fill="#009C75" id="GU1" d="m370 168-1 2 1-2ZM87 172l1 2-1-2Z"/><path fill="#209764" id="AId1" d="m103 199-5 1c0-5.595-10-17.421-10-26l5-1c0 4.964 3.78 15.061 6 19.5.546 1.092 2.814 5.5 4 5.5v1Z"/><path fill="#A3DAA3" id="DP" d="m207 193 4.5-2c1.459-.73 23.767 0 27 0 2.003 0 10.5.015 10.5 2 4.466 0 5.127-8 9-8l3-11h-6c-2.097 0-5.293-1-8-1l-6 2h-26l-5-2c-3.222 0-6.277 1-9 1h-5c0 3.802 3 7.791 3 11l8 8Z"/><path fill="#209764" id="AId1" d="m354 199 4 1c1.325 0 2.43-5.361 3-6.5 2.697-5.393 8-13.301 8-19.5h-1l-4-1c-1.658 0-2.281 8.063-3 9.5l-7 15.5v1Z"/><path fill="#009C75" id="GU1" d="M368 174h1v-1l-1 1Z"/><path fill="#99D2BD" id="OLF" fill-rule="evenodd" d="M190 254c0 4.885 10.951 0 2.5 0H190m20-3c0 1.93 1.93 0 0 0m-36-1c0 1.505 7.092 3.296 8.5 4 3.318 1.659 11.541 5.229 16 3 6.296-3.148 17.5-8.317 17.5 4 1.149 0 1.508-4.516 2-5.5 2.629-5.258 8-12.386 8-18.5l-3.5 4c-9.274 4.637-7.5-3.825-7.5-10-6.201 0-14.827 26.337-27.5 20-4.398-2.199-11.761-3.022-14.5-8.5-4.733-9.467 4.077-17.5 13-17.5l-3-4c-1.317 0-1.788 3.356-4.5 2-5.8-2.9-10.382-16.309-3-20l4.5 4c0-4.113 2.046-13.227 8.5-10l1.5 2c0-9.129-.271-14 9-14 0-3.209-3-7.198-3-11h-1l-4 1-6 1-4 2.5-15 6.5-3 3c0 6.011-8 10.255-8 17 1.759 0 3.909-6.796 7.5-5 2.08 1.04 5.205 1.91 6.5 4.5 1.129 2.257 3.116 21.692 1.5 22.5-5.02 2.51-15.5-16.824-15.5-22-2.082 0-.47 5.561 0 6.5 3.438 6.876 8.66 11.32 12 18 5.002 10.004-6 13.022-6 16.5 4.208 0 8.137 3 10 3 0-5.094 5.683 1 3 1ZM261 254c0 4.284 9.852 0 0 0m-16-3c0 1.93 1.93 0 0 0m-5 7v1c-1.183 0-1.535-3.57-2-4.5-2.344-4.688-8-12.174-8-17.5l3.5 4c11.626 5.813 7.5-4.705 7.5-11 4.048 0 15.839 26.83 27.5 21 3.156-1.578 11.78-3.059 13.5-6.5 4.844-9.688.206-19.5-12-19.5l3-4c1.791 0 2.959 3.27 5.5 2 5.134-2.567 9.533-16.733 3-20-2.795-1.398-3.665 4-5.5 4 0-8.406-2.083-9-9-9 0-4.016-1.261-11.88-5.5-14l-3.5 1 3-11 4 1 6 1 20 10 2 2 9 15.5c2.585 5.17-3.147 11.294-5 15-.724 1.448-2.768 6.5-5 6.5 0-4.902 6.811-12.121 9-16.5 3.161-6.323-6.489-9.505-10.5-7.5-5.777 2.888-1.424 8.349-3.5 12.5-3.74 7.479-5.673 13.5 4 13.5 0 4.631-4.563 8.373-2 13.5l6 5.5c-4.208 0-8.137 3-10 3 0-4.978-4.809 1-3 1 0 2.109-6.009 3.254-7.5 4-8.669 4.334-15.785 3.108-24-1-3.615-1.808-10.5.985-10.5 5Z"/><path fill="#238A5E" id="ORBl2/3" d="m163 188-7 3c0-4.592-5-2.018-5-6 3.334 0 9.096-4.202 13.5-2l1.5 2-3 3ZM293 188l8 3c0-4.115 5-2.91 5-6h-1c-2.382 0-14-5.983-14 1l2 2Z"/><path fill="#54BF94" id="AON" d="M215 230v1c-6.201 0-14.827 26.337-27.5 20-4.398-2.199-11.761-3.022-14.5-8.5-4.733-9.467 4.077-17.5 13-17.5 10.218 0 10.783-10.934 7-18.5-.771-1.542-.465-7.5-3-7.5 0-9.129-.271-14 9-14l8 8c0 8.477 9 15.863 9 24v10c-1.473 0-1 1.952-1 3ZM241 226v4c4.048 0 15.839 26.83 27.5 21 3.156-1.578 11.78-3.059 13.5-6.5 4.844-9.688.206-19.5-12-19.5h-5.5c-3.667-1.834-3.216-17.067-1.5-20.5l3-5.5 1-1c0-4.016-1.261-11.88-5.5-14l-3.5 1c-3.873 0-4.534 8-9 8 0 8.396-8 15.074-8 23v10Z"/><path fill="#219764" id="AIv2/3" d="M103 199c0 4.829 8.761 11 13 11 7.298 0 23.621-9.561 30.5-13l9.5-6c0-4.592-5-2.018-5-6l-26.5 13c-4.86 2.43-8.137-4-11.5-4 0 .473-8.784 4-10 4v1ZM354 199c-.65 0-7.537 11-14 11-7.687 0-21.433-9.467-28.5-13-1.851-.926-10.5-3.317-10.5-6 0-4.115 5-2.91 5-6 4.705 0 17.655 9.578 22.5 12 6.676 3.338 10.592-2 14.5-2 4.486 0 6.897 3 11 3v1Z"/><path fill="#6ACAB9" id="PIR" d="M153 249h1l7-3c0-3.478 11.002-6.496 6-16.5-3.34-6.68-8.562-11.124-12-18-.47-.939-2.082-6.5 0-6.5 0-6.745 8-10.989 8-17l-7 3-9.5 6c-6.879 3.439-23.202 13-30.5 13 0 1.291-6.457 3-8 3 0 5.444 6.751 22 15 22 13.455 0 22.898 14 30 14ZM302 249h1c7.466 0 17.788-14 30-14l2.5-2c8.371-4.186 12.5-10.536 12.5-20-1.543 0-8-1.709-8-3-7.687 0-21.433-9.467-28.5-13-1.851-.926-10.5-3.317-10.5-6l-8-3 9 15.5c2.585 5.17-3.147 11.294-5 15-.724 1.448-2.768 6.5-5 6.5l-1 2c0 4.631-4.563 8.373-2 13.5l6 5.5 7 3Z"/><path fill="#61D09F" id="TTd" d="M233 219h4l4-3c0-7.926 8-14.604 8-23 0-1.985-8.497-2-10.5-2-3.233 0-25.541-.73-27 0l-4.5 2c0 8.477 9 15.863 9 24l3 2h4c3.639 0 3.653-1.807 5-4.5l.5-2.5.5 5.5c.85 1.7 2.422 1.5 4 1.5Z"/><path fill="#80CDF8" id="ACB" d="m183 221 3 4c10.218 0 10.783-10.934 7-18.5-.771-1.542-.465-7.5-3-7.5l-1.5-2c-6.454-3.227-8.5 5.887-8.5 10 0 1.416 3 8.055 3 14ZM273 221l-3 4h-5.5c-3.667-1.834-3.216-17.067-1.5-20.5l3-5.5 1-1c6.917 0 9 .594 9 9 0 4.505-3 8.557-3 14Z"/><path fill="#99D2BD" id="OLF" d="m267 198-1 1 1-1Z"/><path fill="#209864" id="AIv1" d="M116 210c0 1.291-6.457 3-8 3-2.721 0-10-10.828-10-13l5-1c0 4.829 8.761 11 13 11ZM340 210c0 1.291 6.457 3 8 3 3.125 0 10-10.096 10-13l-4-1c-.65 0-7.537 11-14 11Z"/><path fill="#A0EE9C" id="EPd" d="M155 205c0 5.176 10.48 24.51 15.5 22 1.616-.808-.371-20.243-1.5-22.5-1.295-2.59-4.42-3.46-6.5-4.5-3.591-1.796-5.741 5-7.5 5ZM292 225l-1 2c-9.673 0-7.74-6.021-4-13.5 2.076-4.151-2.277-9.612 3.5-12.5 4.011-2.005 13.661 1.177 10.5 7.5-2.189 4.379-9 11.598-9 16.5Z"/><path fill="#CBCBC7" id="aco" d="m180 207-4.5-4c-7.382 3.691-2.8 17.1 3 20 2.712 1.356 3.183-2 4.5-2 0-5.945-3-12.584-3-14ZM276 207c1.835 0 2.705-5.398 5.5-4 6.533 3.267 2.134 17.433-3 20-2.541 1.27-3.709-2-5.5-2 0-5.443 3-9.495 3-14Z"/><path fill="#99D2BD" id="OLF" d="M223 219c3.639 0 3.653-1.807 5-4.5l.5-2.5.5 5.5c.85 1.7 2.422 1.5 4 1.5 0 2.123-10 2.123-10 0ZM237 219c4.145 0 1.82 7 4 7v-10l-4 3ZM219 219c-3.454 0-.734 4-3 4v-6l3 2Z"/><path fill="#62CF9E" id="TTv" d="M230 236v1l3.5 4c11.626 5.813 7.5-4.705 7.5-11v-4c-2.18 0 .145-7-4-7h-4c0 2.123-10 2.123-10 0h-4c-3.454 0-.734 4-3 4v4c0 1.048.473 3-1 3v1c0 6.175-1.774 14.637 7.5 10l3.5-4 1-1v-2l1-1c0-2.212 1-2.212 1 0v2l1 1Z"/><path fill="#99D2BD" id="OLF" d="m292 225-1 2 1-2ZM216 227c-1.473 0-1 1.952-1 3 1.473 0 1-1.952 1-3ZM228 233h1c0-2.212-1-2.212-1 0ZM228 233l-1 1 1-1Z"/><path fill="#CAC8C7" id="lot" d="m303 253 3 2c1.133 0 27-17.809 27-20-12.212 0-22.534 14-30 14v4ZM153 253l-2 2c-2.465 0-28-18.33-28-20 13.455 0 22.898 14 30 14v4Z"/><path fill="#99D2BD" id="OLF" d="m229 235 1 1-1-1ZM227 236l-1 1 1-1Z"/><path fill="#7FCCF7" id="OT" d="m215 264-1 1c-1.638 0-12.941 10.28-17.5 8-8.863-4.431-20.123-3.562-29-8l-11.5-8-3-4v-2l1-2 7-3c4.208 0 8.137 3 10 3l3 1c0 1.505 7.092 3.296 8.5 4 3.318 1.659 11.541 5.229 16 3 6.296-3.148 17.5-8.317 17.5 4l-1 2v1ZM241 263l1 1c0 4.785 8.448 5.474 11.5 7 7.657 3.828 28.241-3.12 36-7 2.036-1.018 11.5-5.19 11.5-8l2-3v-3l-1-1-7-3c-4.208 0-8.137 3-10 3l-3 1c0 2.109-6.009 3.254-7.5 4-8.669 4.334-15.785 3.108-24-1-3.615-1.808-10.5.985-10.5 5 1.579 0 1 2.855 1 4v1Z"/><path fill="#A2B1D7" id="SI" d="m171 249 3 1c2.683 0-3-6.094-3-1ZM285 249l-3 1c-1.809 0 3-5.978 3-1Z"/><path fill="#99D2BD" id="OLF" d="m154 249-1 2v-2h1ZM303 249v1l-1-1h1Z"/><path fill="#A2B1D7" id="SI" d="M210 251c0 1.93 1.93 0 0 0ZM245 251c0 1.93 1.93 0 0 0Z"/><path fill="#99D2BD" id="OLF" d="M151 255c2.25 0 3.376 2 5 2l-3-4-2 2ZM306 255l-5 1 2-3 3 2Z"/><path fill="#A2B1D7" id="SI" d="M190 254c0 4.885 10.951 0 2.5 0H190ZM261 254c0 4.284 9.852 0 0 0Z"/><path fill="#97D6F9" id="STR" d="M240 259c0 1.048-.473 3 1 3 0-1.145.579-4-1-4v1ZM216 261l-1 2 1-2ZM241 263l1 1-1-1ZM215 264l-1 1 1-1Z"/></svg>