<svg xmlns="http://www.w3.org/2000/svg" viewBox="0 0 456 320"><path fill="#1E9C59" id="MOs1" d="m224 63-4 2c-1.597 0-6.75-8.625-9.5-10-4.112-2.056-8.965-1.983-13-4-6.582-3.29-33.683 10-40.5 10v-6l14.5-6c6.263-3.132 30.431-5.285 37-2 2.069 1.034 3.577 3.288 5 4 2.844 1.422 10.5 8.541 10.5 12ZM233 63l3 2 7.5-8 6-4c2.7-1.35 6.263-.631 9-2 6.855-3.428 33.661 10 40.5 10v-6c-2.182 0-11.097-4.799-13.5-6h-5c-7.237-3.618-24.219-5.89-32-2-3.66 1.83-6.959 6.48-10 8-1.793.896-5.5 5.42-5.5 8Z"/><path fill="#1E9D58" id="MOs2/3" d="M214 70c0-6.408-10.416-5.458-13.5-7-12.889-6.445-33.274 15-42.5 15 0-4.815-1-9.924-1-16v-1c6.817 0 33.918-13.29 40.5-10 4.035 2.017 8.888 1.944 13 4 2.75 1.375 7.903 10 9.5 10v1l-6 4ZM243 69c3.005 0 10.917-10.791 20.5-6h5L299 78V61c-6.839 0-33.645-13.428-40.5-10-2.737 1.369-6.3.65-9 2l-6 4-7.5 8v1c2.363 0 4.713 4 6 4l1-1Z"/><path fill="#1E9D5A" id="MOp1" d="M97 93v8l14.5-14c10.581-5.29 33.245-25 45.5-25v-7l-12.5 6c-11.103 5.552-25.877 11.877-35 21-2.371 2.371-12.5 7.453-12.5 11ZM360 93c0 2.97-1 4.768-1 7l-16.5-15c-9.33-4.665-34.621-24-43.5-24v-6c4.189 0 8.871 4.185 12.5 6 7.789 3.894 34.275 17.05 37.5 23.5 1.277 2.553 11 5.045 11 8.5Z"/><path fill="#1F9C58" id="MOp2/3" d="M354 127h1c0-.928.348-9 2-9 0-6.473 2-9.638 2-16v-2l-16.5-15c-9.33-4.665-34.621-24-43.5-24v18c4.397 0 10.565 6.032 14.5 8 11.315 5.658 24.491 14.482 29.5 24.5 2.368 4.736 11 10.096 11 15.5ZM102 127h1c0-11.938 31.152-35.826 41.5-41 3.896-1.948 9.002-7 13.5-7v-1c0-4.815-1-9.924-1-16-12.255 0-34.919 19.71-45.5 25L97 101v1c0 6.045 2 10.033 2 17 2.055 0 .945 8 3 8Z"/><path fill="#1F9D58" id="MOs5" d="m197 86-5.5-2c-6.507 3.254-28.391 15-34.5 15 0-7.91 1-14.362 1-20v-1c9.226 0 29.611-21.445 42.5-15 3.084 1.542 13.5.592 13.5 7-4.107 0-15.139 16-17 16ZM259 86l5.5-2c8.502 0 24.91 15 34.5 15V78l-30.5-15h-5c-9.583-4.791-17.495 6-20.5 6v1c0 1.56 16 12.119 16 16Z"/><path fill="#3EA665" id="ACAd1" d="M223 97c3.642 0 8.002 1 11 1l-1-23.5 3-8.5v-1l-3-2c-3.063 0-2.848 6-4.5 6l-4.5-6-4 2v1c1.59 0 1.443 4.386 2 5.5 3.105 6.21 1 18.234 1 25.5Z"/><path fill="#40A565" id="ACAd2/3" d="m222 98-5 1V76.5l-3-6.5 6-4c1.59 0 1.443 4.386 2 5.5 3.105 6.21 1 18.234 1 25.5l-1 1ZM234 98l6 1V75.5l2-5.5c-1.287 0-3.637-4-6-4l-3 8.5 1 23.5ZM242 70h1v-1l-1 1Z"/><path fill="#3EA566" id="ACAd5" d="m207 103-6 2c0-4.366 1.663-18-4-18v-1c1.861 0 12.893-16 17-16l3 6.5V99c-3.814 0-6.518 4-10 4ZM249 103l6 2c0-3.554-.835-18 4-18v-1c0-3.881-16-14.44-16-16h-1l-2 5.5V99c2.902 0 6.443 4 9 4Z"/><path fill="#1E9C5A" id="MOp5" d="M114 167c-3.071 0-7.229 4-10 4 0-5.113-1-8.098-1-12.5l-2-1.5c0-11.975 1-19.035 1-29l1-1c0-11.938 31.152-35.826 41.5-41 3.896-1.948 9.002-7 13.5-7 0 5.638-1 12.09-1 20v1c-5.885 0-11.448 6.474-16.5 9-26.579 13.29-26.5 31.56-26.5 58ZM342 167c3.071 0 7.229 4 10 4l3-14c0-4.366 2.488-12.524 0-17.5l-2-2c0-2.789 2-4.627 2-7.5v-2l-1-1c0-5.404-8.632-10.764-11-15.5-5.009-10.018-18.185-18.842-29.5-24.5-3.935-1.968-10.103-8-14.5-8v21c5.983 0 11.386 6.443 16.5 9 28.057 14.029 26.5 31.096 26.5 58Z"/><path fill="#1D9C5A" id="MOs6a" d="m163 121-5 2c0-5.834-1-14.606-1-23v-1c6.109 0 27.993-11.746 34.5-15l5.5 2v1l-4 4.5-5 10c-.714 1.427-2.891 10.5-4 10.5-2.075 0-12 1.307-12 3-1.238 0-3 .423-3 2-2.244 0-6 1.725-6 4ZM298 124h1V99c-9.59 0-25.998-15-34.5-15l-5.5 2v1c3.004 0 13 22.445 13 26h1c0-1.818 6.404-.548 7.5 0 2.477 1.239 17.5 8.245 17.5 11Z"/><path fill="#3FA664" id="ACAd6a" d="M187 115h1c0-2.838 10.448-10 13-10 0-4.366 1.663-18-4-18l-4 4.5-5 10c-.714 1.427-2.891 10.5-4 10.5v1c1.238 0 3 .423 3 2ZM268 115h1c0-1.577 1.762-2 3-2 0-3.555-9.996-26-13-26-4.835 0-4 14.446-4 18 2.974 0 13 7.034 13 10Z"/><path fill="#187E61" id="SSp-m1" d="M73 163h4v-1c0-22.145 2.92-31.34 12-49.5.922-1.845 5.869-10.5 8-10.5v-9c-4.76 0-9.976 11.452-12 15.5-11.459 22.918-12 28.291-12 54.5ZM379 162l4 1 2-13.5c-2.032-4.064-.028-10.056-2-14-4.531-9.062-7.391-18.782-12-28-1.369-2.738-6.915-14.5-11-14.5 0 2.97-1 4.768-1 7v2c1.619 0 9.031 10.561 10 12.5 8.634 17.268 10 27.764 10 47.5Z"/><path fill="#3EA665" id="ACAd1" d="m223 97-1 1 1-1Z"/><path fill="#40A664" id="ACAv1" d="M229 147h4c0-16.181 1-32.371 1-49-2.998 0-7.358-1-11-1l-1 1 1 49h4l1-1c0-6.408 1-4.174 1 1Z"/><path fill="#3FA566" id="ACAv2/3" d="M219 147h4l-1-49-5 1c0 16.743 2 31.938 2 48ZM233 147h4c0-15.588 3-32.02 3-48l-6-1c0 16.629-1 32.819-1 49Z"/><path fill="#3EA666" id="ACAv5" d="M213 147h6c0-16.062-2-31.257-2-48-3.814 0-6.518 4-10 4 0 9.784 3 19.762 3 30l-1 8v1l4 5ZM237 147h7l3-6-1-8 3-30c-2.557 0-6.098-4-9-4 0 15.98-3 32.412-3 48Z"/><path fill="#1F9B5A" id="MOp6a" d="M136 156c-7.366 0-14.162 11-22 11 0-26.44-.079-44.71 26.5-58 5.052-2.526 10.615-9 16.5-9 0 8.394 1 17.166 1 23v1c-3.317 0-5.563 6.032-7.5 7-6.634 3.317-14.5 14.623-14.5 24v1ZM321 156c5.008 0 14.518 11 21 11 0-26.904 1.557-43.971-26.5-58-5.114-2.557-10.517-9-16.5-9v24l9.5 9c5.738 5.738 12.5 13.469 12.5 22v1Z"/><path fill="#1A7E64" id="SSp-m2/3" d="M89 159c-4.618 0-6.757 3-12 3 0-22.145 2.92-31.34 12-49.5.922-1.845 5.869-10.5 8-10.5 0 6.045 2 10.033 2 17l-8 16.5c-3.286 6.572-2 16.746-2 23.5ZM368 160l11 2c0-19.736-1.366-30.232-10-47.5-.969-1.939-8.381-12.5-10-12.5 0 6.362-2 9.527-2 16l8 16.5c3.227 6.455 3 16.823 3 24.5v1Z"/><path fill="#2EA84F" id="PL5" d="m210 133-4 1-3-9.5c-1.143-2.287-2-16.585-2-19.5l6-2c0 9.784 3 19.762 3 30ZM246 133l5 1c0-9.57 4-18.489 4-29l-6-2-3 30Z"/><path fill="#2FA850" id="PL6a" d="m206 135-7 2c0-2.309-9.556-22-11-22 0-2.838 10.448-10 13-10 0 2.915.857 17.213 2 19.5l3 9.5v1ZM259 135l-2 2c-1.974 0-3.517-2-6-2v-1c0-9.57 4-18.489 4-29 2.974 0 13 7.034 13 10 0 2.103-9 13.77-9 20Z"/><path fill="#1E9C58" id="MOs6b" d="M184 114c-3.854 0-7.403 1-12 1 0-1.693 9.925-3 12-3v2ZM298 124l1 2c-3.864 0-6.751-7-11-7 0-3.619-12.243-6-15-6 0-1.818 6.404-.548 7.5 0 2.477 1.239 17.5 8.245 17.5 11Z"/><path fill="#CACCC7" id="cing" d="M202 147c0 1.35 1.977 10-1 10 0-8.793-8.735-34.117-16.5-38l-12.5 1-4-1 1-2c1.238 0 3-.423 3-2 4.597 0 8.146-1 12-1l3 1 4 5.5 4 12 3 4.5c0 1.402 1.11 6 3 6l1 4Z"/><path fill="#3FA466" id="ACAd6b" d="m184 114 3 1c0-1.577-1.762-2-3-2v1ZM269 115v1l4-3h-1c-1.238 0-3 .423-3 2Z"/><path fill="#CACCC7" id="cing" d="M254 147c0 1.574-.751 9 1 9 2.064 0 .426-3.353 1-4.5l5-16c8.837-17.673 5.307-15.5 24-15.5l3-1c0-3.619-12.243-6-15-6l-4 3-3 3.5c-1.069 2.137-5.423 15.5-7 15.5l-1 2c0 1.357-.647 6-2 6l-2 4Z"/><path fill="#1E9C58" id="MOs6b" d="M172 115c-1.238 0-3 .423-3 2 1.238 0 3-.423 3-2Z"/><path fill="#2FA84F" id="PL6b" d="M198 137h1c0-2.309-9.556-22-11-22h-1l4 5.5 4 12 3 4.5ZM269 116l-3 3.5c-1.069 2.137-5.423 15.5-7 15.5 0-6.23 9-17.897 9-20h1v1Z"/><path fill="#1E9C58" id="MOs6b" d="m168 119-5 2c0-2.275 3.756-4 6-4l-1 2Z"/><path fill="#1B7F62" id="SSp-m4" d="m363 158 5 1c0-7.677.227-18.045-3-24.5l-8-16.5c-1.652 0-2 8.072-2 9v3c2.162 0 2.284 6.067 3 7.5 2.601 5.203 5 14.504 5 20.5ZM93 158l-4 1c0-6.754-1.286-16.928 2-23.5l8-16.5c2.055 0 .945 8 3 8v1c-2.033 0-2.26 7.021-3 8.5-2.722 5.444-6 15.29-6 21.5Z"/><path fill="#C9C9CA" id="scwm" d="M139 154c0 4.284 1 9.371 1 13 1.784 0 1-10.634 1-12.5 0-5.53 3.687-10.373 6-15 2.876-5.752 13.38-12.94 18.5-15.5 1.28-.64 6.5-2.385 6.5-4l-4-1-5 2c0 1.976-2.876 4-5 4l-9 9.5c-5.567 5.567-10 11.575-10 19.5Z"/><path fill="#CAC7CC" id="fa" d="M141 171h1l3-1c0-6.993-5.671-21.414 5.5-27 11.784-5.892 32.444-6.612 39.5 7.5 1.578 3.156 5 5.742 5 9.5h6v-3c0-8.793-8.735-34.117-16.5-38l-12.5 1c0 1.615-5.22 3.36-6.5 4-5.12 2.56-15.624 9.748-18.5 15.5-2.313 4.627-6 9.47-6 15 0 1.866.784 12.5-1 12.5l1 4ZM311 170l4 1 1-4c0-13.569-1.907-23.407-11.5-33L285 120c-18.693 0-15.163-2.173-24 15.5l-5 16c-.574 1.147 1.064 4.5-1 4.5v4c1.564 0 3.876 1 6 1 0-16.8 27.626-26.937 41.5-20 6.861 3.43 14.718 16.063 10.5 24.5l-2 4.5Z"/><path fill="#C9C9CA" id="scwm" d="M318 154c0 2.312.379 13-2 13 0-13.569-1.907-23.407-11.5-33L285 120l3-1c4.249 0 7.136 7 11 7l6 5.5c3.391 6.782 13 11.974 13 22.5Z"/><path fill="#1E9C58" id="MOs6b" d="M158 124v1c2.124 0 5-2.024 5-4l-5 2v1Z"/><path fill="#1D9D5A" id="MOp6b" d="m139 154-3 1c0-9.377 7.866-20.683 14.5-24 1.937-.968 4.183-7 7.5-7v1l-9 9.5c-5.567 5.567-10 11.575-10 19.5ZM318 154l3 1c0-8.531-6.762-16.262-12.5-22l-9.5-9h-1l1 2 6 5.5c3.391 6.782 13 11.974 13 22.5Z"/><path fill="#1B7E63" id="SSp-m5" d="m103 127-1 1v-1h1ZM355 127v1l-1-1h1ZM101 157l-8 1c0-6.21 3.278-16.056 6-21.5.74-1.479.967-8.5 3-8.5 0 9.965-1 17.025-1 29ZM355 157l8 1c0-5.996-2.399-15.297-5-20.5-.716-1.433-.838-7.5-3-7.5 0 2.873-2 4.711-2 7.5l2 2c2.488 4.976 0 13.134 0 17.5Z"/><path fill="#59B262" id="ILA5" d="m206 135 3 6 1-8-4 1v1ZM247 141h1l3-6v-1l-5-1 1 8Z"/><path fill="#58B362" id="ILA6a" d="M202 147h3c0-.992 3.159-5 4-5v-1l-3-6-7 2c0 1.714 2 3.482 2 6l1 4ZM251 147h3l2-4c0-2.01 1-3.512 1-6-1.974 0-3.517-2-6-2l-3 6 3 6Z"/><path fill="#2FA84F" id="PL6b" d="M257 137h1l1-2-2 2Z"/><path fill="#58B263" id="ILA6b" d="M199 137c0 1.714 2 3.482 2 6-1.89 0-3-4.598-3-6h1ZM258 137c0 1.357-.647 6-2 6 0-2.01 1-3.512 1-6h1Z"/><path fill="#98D5F9" id="CP" d="M153 212c1.353 0 2.158 3 5 3 0-6.966 25.263-19.382 30.5-22l5.5-6 2-4c0-7.619-1-16.035-1-23 0-3.758-3.422-6.344-5-9.5-7.056-14.112-27.716-13.392-39.5-7.5-11.171 5.586-5.5 20.007-5.5 27l6 11.5c1.751 3.502 0 6.79 0 10.5l1 12 1 7v1ZM303 213l-4 2c0-1.339-18.408-16.954-20.5-18l-9-3-7.5-7c0-1.041-.986-5-2-5l1-21c0-16.8 27.626-26.937 41.5-20 6.861 3.43 14.718 16.063 10.5 24.5l-2 4.5c0 3.179-6 11.261-6 21v12c-1.484 0-2 8.263-2 10Z"/><path fill="#40A564" id="ACAv6a" d="M244 147h7l-3-6h-1l-3 6ZM205 147h8l-4-5c-.841 0-4 4.008-4 5Z"/><path fill="#99D2BD" id="OLF" d="M227 147c0 1.048-.473 3 1 3v-4l-1 1Z"/><path fill="#A3DAA3" id="DP" d="M226 166c-6.903 0-14.772 1-21 1-1.801 0-4-5.615-4-7v-3c2.977 0 1-8.65 1-10h25c0 1.048-.473 3 1 3v4c-.759 0-2 10.821-2 12ZM231 166c6.573 0 14.1 1 20 1 2.767 0 4-4.975 4-7v-4c-1.751 0-1-7.426-1-9h-25v12c0 2.833 2 4.84 2 7Z"/><path fill="#1F9766" id="AId6b" d="M141 171c0 1.747-.253 2-2 2 0-3.069-3-10.532-3-17v-1l3-1c0 4.284 1 9.371 1 13l1 4Z"/><path fill="#99D2BD" id="OLF" d="M226 166c2.834 0 1.382 5 2.5 5 1.459 0-.974-5 2.5-5 0-2.16-2-4.167-2-7-1.643 0-1-3.765-1-5-.759 0-2 10.821-2 12Z"/><path fill="#1F9766" id="AId6b" d="M317 173h1c0-5.635 3-10.668 3-17v-1l-3-1c0 2.312.379 13-2 13l-1 4v1l2 1Z"/><path fill="#209666" id="AId6a" d="m129 185-4 3c0-5.074-11-11.67-11-21 7.838 0 14.634-11 22-11 0 6.468 3 13.931 3 17-2.229 0-2.471-1.986-4.5-3-4.842-2.421-11.998 5.503-9.5 10.5l4 4.5ZM331 188h1c0-5.055 10-10.89 10-21-6.482 0-15.992-11-21-11 0 6.332-3 11.365-3 17l3.5-3c3.579-1.789 12.653 4.193 10.5 8.5l-5 6.5 4 3Z"/><path fill="#019C75" id="GU5" d="M104 171c-3.614 0-6.9 4-11 4v-17l8-1 2 1.5c0 4.402 1 7.387 1 12.5ZM352 171l12 5-1-18-8-1-3 14Z"/><path fill="#009C74" id="GU4" d="M92 176h1v-18l-4 1c0 3.087 1.172 17 3 17ZM364 176h1c0-4.838 3-10.964 3-16v-1l-5-1 1 18Z"/><path fill="#009B75" id="GU2/3" d="M92 176c0 1.208-9.363 5-11 5 0-5.681-4-12.131-4-18v-1c5.243 0 7.382-3 12-3 0 3.087 1.172 17 3 17Z"/><path fill="#99D2BD" id="OLF" d="M211 188c-2.021 0-3.894-4.303-6.5-3-2.788 1.394-2.067 5-5.5 5l-1-2c0-.671-1.328-5-2-5 0-7.619-1-16.035-1-23h6c0 1.385 2.199 7 4 7 0 8.599 6 15.039 6 21ZM245 189c2.319 0 3.583-5.458 6.5-4l5.5 5 2-3 1-5 1-21c-2.124 0-4.436-1-6-1 0 2.025-1.233 7-4 7l1 5.5-7 16.5Z"/><path fill="#009B75" id="GU2/3" d="M375 181h1c0-6.566 3-12.163 3-19l-11-2c0 5.036-3 11.162-3 16 0 1.742 8.352 5 10 5Z"/><path fill="#009C75" id="GU1" d="m376 181 3 1c.843 0 2-3.646 2-4.5 0-5.257 2-8.931 2-14.5l-4-1c0 6.837-3 12.434-3 19ZM81 181l-4 1c0-6.045-4-12.453-4-19h4c0 5.869 4 12.319 4 18Z"/><path fill="#61D09F" id="TTd" d="m241 192-2 1h-8.5c-1.289-.644-1.595-5-2-5l-2 5c-4.191 2.096-9.362-2-12.5-2l-3-3c0-5.961-6-12.401-6-21 6.228 0 14.097-1 21-1 2.834 0 1.382 5 2.5 5 1.459 0-.974-5 2.5-5 6.573 0 14.1 1 20 1l1 5.5-7 16.5-4 3Z"/><path fill="#209665" id="AId5" d="M125 189c-7.292 0-16.681 9-26 9 0-2.641-6-12.504-6-22v-1c4.1 0 7.386-4 11-4 2.771 0 6.929-4 10-4 0 9.33 11 15.926 11 21v1ZM357 198h1c0-5.063 6-14.324 6-22l-12-5c-2.771 0-6.929-4-10-4 0 10.11-10 15.945-10 21 0 2.659 21.291 10 25 10Z"/><path fill="#8ADA86" id="CLA" d="m141 176 5 7.5c3.615 7.231-5.51 9.995-10.5 7.5l-6.5-6-4-4.5c-2.498-4.997 4.658-12.921 9.5-10.5 2.029 1.014 2.271 3 4.5 3 0 2.215 2 1.519 2 3Z"/><path fill="#C8CBCC" id="ec" d="m151 192-5 2c0-3.188 1.726-2.952 3-5.5 1.01-2.02-4.3-13.5-6-13.5l-1-4 3-1 6 11.5c1.751 3.502 0 6.79 0 10.5ZM305 191l6 3c0-2.747-4-4.106-4-6.5 0-1.463 5.041-12.5 6-12.5 0-1.238.423-3 2-3v-1l-4-1c0 3.179-6 11.261-6 21Z"/><path fill="#8ADA86" id="CLA" d="m315 176-5 8.5c-3.842 7.685 7.689 8.405 11.5 6.5l5.5-6 5-6.5c2.153-4.307-6.921-10.289-10.5-8.5l-3.5 3-1 1-2 2Z"/><path fill="#219665" id="AIv6b" d="m143 175-2 1c0-1.481-2-.785-2-3 1.747 0 2-.253 2-2h1l1 4ZM313 175l2 1 2-2v-1l-2-1c-1.577 0-2 1.762-2 3Z"/><path fill="#209666" id="AId6a" d="m318 173-1 1v-1h1Z"/><path fill="#1F9866" id="AIv6a" d="m142 199-7 5-10-15v-1l4-3 6.5 6c4.99 2.495 14.115-.269 10.5-7.5l-5-7.5 2-1c1.7 0 7.01 11.48 6 13.5-1.274 2.548-3 2.312-3 5.5-.828 0-4 3.748-4 5ZM314 199c1.865 0 7 3.657 7 5 1.131 0 10-14.277 10-16l-4-3-5.5 6c-3.811 1.905-15.342 1.185-11.5-6.5l5-8.5-2-1c-.959 0-6 11.037-6 12.5 0 2.394 4 3.753 4 6.5 0 1.947 3 2.636 3 5Z"/><path fill="#209765" id="AId2/3" d="M88 202h1c0-1.739 8.126-3 10-3v-1c0-2.641-6-12.504-6-22h-1c0 1.208-9.363 5-11 5 0 7.552 7 14.058 7 21ZM358 198c0 .567 8.99 4 10 4 0-4.631 7-13.396 7-21-1.648 0-10-3.258-10-5h-1c0 7.676-6 16.937-6 22Z"/><path fill="#209764" id="AId1" d="m88 202-3 1c-1.758 0-8-17.998-8-21l4-1c0 7.552 7 14.058 7 21ZM368 202l3 1c2.597 0 8-17.661 8-21l-3-1h-1c0 7.604-7 16.369-7 21Z"/><path fill="#97D6F9" id="STR" d="M259 187h3c0-1.041-.986-5-2-5l-1 5ZM194 187l4 1c0-.671-1.328-5-2-5l-2 4Z"/><path fill="#97D6F9" id="STR" fill-rule="evenodd" d="M246 195c0 2.71-11.155 18.673-4.5 22 1.209.604 3.03-3.561 3.5-4.5 1.52-3.04 6.302-17.5 1-17.5m-38 0c0 6.205 1.42 12.34 4 17.5.431.862 1.451 5.525 3.5 4.5 4.505-2.253-2.648-22-7.5-22m14 62c.341 0 3.317-11.134 4-12.5.383-.765.905-4.298 2.5-3.5 2.971 1.485 4.5 9.109 4.5 12 0 1.041.986 5 2 5 0-4.565 2-9.484 2-12 0-2.245.874-13 5-13 0-11.51 4.195-23.89 9-33.5 1.539-3.077 6-5.884 6-9.5l-5.5-5c-2.917-1.458-4.181 4-6.5 4l-4 3-2 1c0 1.573-5.162 3.669-6.5 3-1.491-.745-2.333-3-4-3l-4 3c-2.054 1.027-10.5-2.982-10.5-5l-3-3c-2.021 0-3.894-4.303-6.5-3-2.788 1.394-2.067 5-5.5 5l7 11.5c4.432 8.865 9 20.975 9 31.5 2.776 0 5.79 13 4 13 0 3.322 3 6.616 3 11Z"/><path fill="#80CDF8" id="ACB" fill-rule="evenodd" d="M174 210c0 .403-5.269 6.038-6 7.5-2.127 4.254 4.656 9.422 8.5 7.5 5.803-2.902 4.802-15-2.5-15m41 23c0 24.998-25.768 33.866-45.5 24-2.652-1.326-6.304-4.107-7.5-6.5-.465-.93-.817-4.5-2-4.5 0-3.741 3.495-27-2-27v-4c0-6.966 25.263-19.382 30.5-22l5.5-6 4 1 1 2 7 11.5c4.432 8.865 9 20.975 9 31.5ZM280 210c0 .276-3.429 4.357-4 5.5l1 3c.877 1.755.279 5.389 2.5 6.5 3.619 1.809 11.549-3.401 9.5-7.5-1.034-2.069-3.288-3.577-4-5-.98-1.959-2.401-2.5-5-2.5m-38 23c0 13.426 7.178 22.339 18.5 28 8.723 4.361 35.5-5.325 35.5-15 0-2.231 2.386-6.728 1-9.5-1.32-2.64-3.76-9.48-2-13l4-5.5v-3c0-1.339-18.408-16.954-20.5-18l-9-3-7.5-7h-3l-2 3c0 3.616-4.461 6.423-6 9.5-4.805 9.61-9 21.99-9 33.5Z"/><path fill="#99D2BD" id="OLF" d="M214 191c3.138 0 8.309 4.096 12.5 2l2-5c.405 0 .711 4.356 2 5h8.5c0 1.573-5.162 3.669-6.5 3-1.491-.745-2.333-3-4-3l-4 3c-2.054 1.027-10.5-2.982-10.5-5Z"/><path fill="#1F9865" id="AIv5" d="m329 208 8 2 4.5-4c2.938-1.469 15.5-3.01 15.5-8-3.709 0-25-7.341-25-10h-1c0 1.723-8.869 16-10 16l1 1c.978 0 7 2.267 7 3ZM127 208l-8 2-2.5-3-12-4c-2.426-1.213-3.031-4-5.5-4v-1c9.319 0 18.708-9 26-9l10 15-1 1-5 2h-1l-1 1Z"/><path fill="#8AD987" id="CTXsp" d="M305 209v1c2.261 0 .297-6.094 1-7.5 1.89-3.78 3.907-3.5 8-3.5 0-2.364-3-3.053-3-5l-6-3v18ZM151 207v1c-1.187 0-1.395-7.29-2-8.5l-7-.5c0-1.252 3.172-5 4-5l5-2 1 12c-1.473 0-1 1.952-1 3Z"/><path fill="#99D2BD" id="OLF" d="m241 192-2 1 2-1Z"/><path fill="#90CAED" id="LSr" d="M208 195c0 6.205 1.42 12.34 4 17.5.431.862 1.451 5.525 3.5 4.5 4.505-2.253-2.648-22-7.5-22ZM246 195c0 2.71-11.155 18.673-4.5 22 1.209.604 3.03-3.561 3.5-4.5 1.52-3.04 6.302-17.5 1-17.5Z"/><path fill="#219764" id="AIv2/3" d="M337 210c0 2.064 3.353.426 4.5 1 4.428 2.214 11.308 4 16.5 4 0-4.381 10-8.226 10-13-1.01 0-10-3.433-10-4h-1c0 4.99-12.562 6.531-15.5 8l-4.5 4ZM119 210c0 2.064-3.353.426-4.5 1-4.428 2.214-11.308 4-16.5 4 0-4.439-9-7.534-9-13 0-1.739 8.126-3 10-3 2.469 0 3.074 2.787 5.5 4l12 4 2.5 3Z"/><path fill="#A0EE9C" id="EPd" d="M143 225h1l7.5 3c1.771.886 10.063-.374 8.5-3.5-3.196-6.391-9-8.612-9-16.5-1.187 0-1.395-7.29-2-8.5l-7-.5-7 5-1 1c0 1.429-1.288 4-3 4v7l5 5h1l2 2h1l3 2ZM311 226l-2 1c-1.964 0-15.372 3.244-12-3.5 1.701-3.402 6-4.338 6-8.5l1-2c1.473 0 1-1.952 1-3 2.261 0 .297-6.094 1-7.5 1.89-3.78 3.907-3.5 8-3.5 1.865 0 7 3.657 7 5l1 1c0 1.863 3 5.792 3 10v1l-1 1-1 2h-1l-1 1-1 1h-1l-1 1-1 1h-1l-1 1-2 1-2 1Z"/><path fill="#209864" id="AIv1" d="m98 215-4 2c-1.905 0-9-11.889-9-14l3-1h1c0 5.466 9 8.561 9 13ZM358 215l5 1c2.486 0 8-10.709 8-13l-3-1c0 4.774-10 8.619-10 13Z"/><path fill="#97D6F9" id="STR" d="M303 213h1c0-1.145-.579-4 1-4v-6c-1.484 0-2 8.263-2 10ZM151 207l2 4-1-7c-1.473 0-1 1.952-1 3Z"/><path fill="#99D2BD" id="OLF" d="m129 207 2 2c1.712 0 3-2.571 3-4l-5 2ZM329 208c-5.367 0-1.273 7-4 7 0-4.208-3-8.137-3-10 .978 0 7 2.267 7 3ZM128 207l-1 1 1-1Z"/><path fill="#6ACAB9" id="PIR" d="M135 256h2c0-1.817 7.169-4 9-4l1-1h1c0-4.867 10.442-8.616 7-15.5-1.543-3.086-11-8.289-11-10.5h-1c-1.238 0-3-.423-3-2h-1l-2-2h-1l-5-5v-2c-1.486 0-1.486-3 0-3v-2l-2-2h-1l-1 1-8 2c0 2.064-3.353.426-4.5 1-4.428 2.214-11.308 4-16.5 4l-4 2c0 5.393 12.829 26 19 26 4.202 0 22 7.726 22 13Z"/><path fill="#99D2BD" id="OLF" d="M148 251h1l11-5c0-3.741 3.495-27-2-27-2.425 0-5-5.116-5-7v-1l-2-4v1c0 7.888 5.804 10.109 9 16.5 1.563 3.126-6.729 4.386-8.5 3.5l-7.5-3c0 2.211 9.457 7.414 11 10.5 3.442 6.884-7 10.633-7 15.5Z"/><path fill="#6ACAB9" id="PIR" d="M320 256h1c0-5.656 19.71-13 23-13l8-7.5c5.006-5.006 11-12.551 11-19.5l-5-1c-5.192 0-12.072-1.786-16.5-4-1.147-.574-4.5 1.064-4.5-1l-8-2c-5.367 0-1.273 7-4 7v1l-1 1-1 2h-1l-1 1-1 1h-1l-1 1-1 1h-1l-1 1-2 1-2 1-2 1c0 4.356-10.995 7.51-8 13.5 1.62 3.24 3.676 5.676 6.5 8.5l3.5 3c3.47 0 6.007 4 9 4Z"/><path fill="#99D2BD" id="OLF" d="M305 210c0 1.048.473 3-1 3 0-1.145-.579-4 1-4v1Z"/><path fill="#CBCBC7" id="aco" d="M174 210c0 .403-5.269 6.038-6 7.5-2.127 4.254 4.656 9.422 8.5 7.5 5.803-2.902 4.802-15-2.5-15ZM280 210c0 .276-3.429 4.357-4 5.5l1 3c.877 1.755.279 5.389 2.5 6.5 3.619 1.809 11.549-3.401 9.5-7.5-1.034-2.069-3.288-3.577-4-5-.98-1.959-2.401-2.5-5-2.5Z"/><path fill="#99D2BD" id="OLF" d="M131 211c-1.486 0-1.486 3 0 3v-3Z"/><path fill="#97D6F9" id="STR" d="M158 215v4c-2.425 0-5-5.116-5-7 1.353 0 2.158 3 5 3ZM303 215l-4 3v-3l4-2v2Z"/><path fill="#99D2BD" id="OLF" d="m304 213-1 2v-2h1ZM307 251l4 1-3.5-3c-2.824-2.824-4.88-5.26-6.5-8.5-2.995-5.99 8-9.144 8-13.5-1.964 0-15.372 3.244-12-3.5 1.701-3.402 6-4.338 6-8.5l-4 3-4 5.5c-1.76 3.52.68 10.36 2 13 1.386 2.772-1 7.269-1 9.5 3.648 0 7.682 5 11 5ZM131 216l5 5-5-5ZM325 216l-1 1 1-1ZM324 217l-1 2 1-2ZM322 219l-1 1 1-1ZM321 220l-1 1 1-1ZM137 221l2 2-2-2ZM319 221l-1 1 1-1ZM318 222l-1 1 1-1ZM140 223l3 2c-1.238 0-3-.423-3-2ZM316 223l-1 1 1-1ZM315 224l-2 1 2-1ZM313 225l-2 1 2-1ZM311 226l-2 1 2-1Z"/><path fill="#A2B1D7" id="SI" d="M219 246c-5.525 0-3.148 7.324-6.5 9-3.676 1.838-6.228 6.114-10 8l-10 4c-4.561 2.28-23.397-2.199-27-4l-8-6-8.5-6 11-5c1.183 0 1.535 3.57 2 4.5 1.196 2.393 4.848 5.174 7.5 6.5 19.732 9.866 45.5.998 45.5-24 2.776 0 5.79 13 4 13ZM296 246c3.648 0 7.682 5 11 5 0 3.221-7.5 6-9.5 7-6.911 3.455-24.694 13.653-34 9-6.443-3.221-12.949-5.949-18.5-11.5-3.233-3.233-2.923-9.5-8-9.5 0-2.245.874-13 5-13 0 13.426 7.178 22.339 18.5 28 8.723 4.361 35.5-5.325 35.5-15Z"/><path fill="#CAC8C7" id="lot" d="M321 261h1c1.28 0 22-15.415 22-18-3.29 0-23 7.344-23 13v5ZM135 256c0 1.235.643 5-1 5-2.043 0-21-15.589-21-18 4.202 0 22 7.726 22 13Z"/><path fill="#7FCCF7" id="OT" d="m217 269-1 1c0 5.396-12.648 12.074-16.5 14-3.744 1.872-34.468 2.766-38 1-4.456-2.228-9.222-6.111-13-8-3.721-1.86-11.5-9.004-11.5-13l-1-2c0-2.124 1-4.436 1-6 0-1.817 7.169-4 9-4l1-1h2l8.5 6 8 6c3.603 1.801 22.439 6.28 27 4l10-4c3.772-1.886 6.324-6.162 10-8 3.352-1.676.975-9 6.5-9 0 3.322 3 6.616 3 11l-1 2v1l-1 2v1l-1 1v1l-1 1v1l-1 1v1ZM238 266l1 1c0 5.016 6.887 10.194 10.5 12l8 6c5.646 2.823 15.65-3.175 22 0 2.163 1.081 6.401 1.799 8 1h5c4.4-2.2 8.513-4.756 13-7 4.283-2.142 13.5-9.782 13.5-15l1-1 1-2v-4l-1-1c-2.993 0-5.53-4-9-4l-4-1c0 3.221-7.5 6-9.5 7-6.911 3.455-24.694 13.653-34 9-6.443-3.221-12.949-5.949-18.5-11.5-3.233-3.233-2.923-9.5-8-9.5 0 2.516-2 7.435-2 12v1l2 4 1 3Z"/><path fill="#99D2BD" id="OLF" d="m147 251-1 1 1-1ZM135 262h1c0-2.124 1-4.436 1-6h-2c0 1.235.643 5-1 5l1 1ZM321 256v1l-1-1h1Z"/><path fill="#97D6F9" id="STR" d="m222 257-1 2 1-2ZM235 259l2 4-2-4ZM221 260l-1 2 1-2ZM321 262l-1 1 1-2v1Z"/><path fill="#99D2BD" id="OLF" d="m322 261-1 1v-1h1Z"/><path fill="#97D6F9" id="STR" d="m136 262 1 2-2-2h1ZM220 263l-1 1 1-1ZM320 263l-1 1 1-1ZM219 265l-1 1 1-1ZM238 266l1 1-1-1ZM218 267l-1 1 1-1Z"/><path fill="#8599CC" id="PAL" d="m217 269-1 1 1-1Z"/></svg>