<svg xmlns="http://www.w3.org/2000/svg" viewBox="0 0 456 320"><path fill="#1E9C59" id="MOs1" d="M140 76h1c0-2.488 11.428-5.964 13.5-7 9.922-4.96 39.056-15.972 51-10l9.5 7.5 3 3.5c1.539 0 3-1.341 3-3 0-5.504-7.435-9.968-11.5-12-16.062-8.031-36.301-1.35-51 6-2.387 1.193-18.5 6.826-18.5 9v6ZM317 70c0 2.079-1 3.187-1 6l-11.5-7c-7.843-3.921-40.302-14.349-49-10h-5c-2.915 1.458-11.5 7.592-11.5 11l-4-2c0-6.01 8.152-10.826 12.5-13 15.961-7.98 35.384-1.308 50 6 2.327 1.164 19.5 7.287 19.5 9Z"/><path fill="#1E9D58" id="MOs2/3" d="M141 76v12.5l2 1c0 .495-2.466 2.5 0 2.5 5.9 0 13.28-8.39 18.5-11l20-10c3.284-1.642 7.667-1.334 11-3 4.004-2.002 18.5 2.995 18.5 7h1c2.33 0 3.227-4 6-4v-1l-3-3.5-9.5-7.5c-11.944-5.972-41.078 5.04-51 10-2.072 1.036-13.5 4.512-13.5 7ZM316 76c0 5.415-2 10.441-2 17l-15.5-10c-6.355-3.178-12.567-6.783-19-10-4.923-2.462-11.107-2.553-16-5-3.463-1.731-18.5 2.947-18.5 7h-1l-5-4v-1c0-3.408 8.585-9.542 11.5-11h5c8.698-4.349 41.157 6.079 49 10l11.5 7Z"/><path fill="#3EA665" id="ACAd1" d="M222 95h12c0-4.633-1.576-24 5-24v-1l-4-2c-2.863 0-4.487 9-6.5 9L221 67c0 1.659-1.461 3-3 3v1c6.675 0 4 20.21 4 24Z"/><path fill="#1F9D58" id="MOs5" d="M195 94c-1.804 0-5.136-2.182-7.5-1-10.107 5.053-20.88 8.94-31 14l-13.5 9c0-7.871-1-15.646-1-23l1-1c5.9 0 13.28-8.39 18.5-11l20-10c3.284-1.642 7.667-1.334 11-3 4.004-2.002 18.5 2.995 18.5 7 0 4.08-16 13.68-16 19ZM262 94c1.606 0 4.339-2.08 6.5-1 9.038 4.519 18.962 7.481 28 12l16.5 11c0-7.769 1-15.959 1-23l-15.5-10c-6.355-3.178-12.567-6.783-19-10-4.923-2.462-11.107-2.553-16-5-3.463-1.731-18.5 2.947-18.5 7 0 3.096 16 13.12 16 19h1Z"/><path fill="#1E9D5A" id="MOp1" d="M89 173h4v-1c0-11.194-7.84-28.819-2-40.5 4.72-9.441 11.206-18.412 16-28 2.742-5.485 18.433-19.466 24.5-22.5l8.5-5v-6c-5.845 0-10.506 7.503-15.5 10-17.148 8.574-29.863 31.226-37.5 46.5-1.206 2.413-.77 5.542-2 8-2.217 4.434-.155 26.69 2 31 .652 1.303.22 7.5 2 7.5ZM363 172l5 2c0-7.397 7.828-26.844 4-34.5-2.086-4.171-.906-9.812-3-14-6.162-12.323-19.712-35.606-33.5-42.5-4.038-2.019-13.474-13-18.5-13 0 2.079-1 3.187-1 6 4.678 0 13.927 10.714 18.5 13 9.875 4.938 23.576 25.651 28.5 35.5 2.285 4.569 1.717 10.435 4 15 3.933 7.865-4 25.255-4 32.5Z"/><path fill="#40A565" id="ACAd2/3" d="m222 95-5 1-1-13.5-4-7.5c2.33 0 3.227-4 6-4 6.675 0 4 20.21 4 24ZM234 95c2.124 0 4.436 1 6 1 0-4.695-.973-11.553 1-15.5l3-5.5-5-4c-6.576 0-5 19.367-5 24Z"/><path fill="#3EA566" id="ACAd5" d="M217 96c-6.176 0-11.534 6-17 6 0-2.72-2.34-7-5-7v-1c0-5.32 16-14.92 16-19h1l4 7.5 1 13.5ZM240 96c6.311 0 11.268 6 17 6 0-3.715 4-5.378 4-8 0-5.88-16-15.904-16-19h-1l-3 5.5c-1.973 3.947-1 10.805-1 15.5Z"/><path fill="#1F9C58" id="MOp2/3" d="M106 167c-5.002 0-7.915 5-13 5 0-11.194-7.84-28.819-2-40.5 4.72-9.441 11.206-18.412 16-28 2.742-5.485 18.433-19.466 24.5-22.5l8.5-5h1v12.5l2 1c0 .495-2.466 2.5 0 2.5l-1 1c-4.127 0-7.89 7.195-11.5 9-15.424 7.712-19.11 26.721-25.5 39.5l1 25.5ZM350 167l13 5c0-7.245 7.933-24.635 4-32.5-2.283-4.565-1.715-10.431-4-15-4.924-9.849-18.625-30.563-28.5-35.5-4.573-2.286-13.822-13-18.5-13 0 5.415-2 10.441-2 17 3.664 0 11.248 7.748 14 10.5 13.059 13.059 15.578 21.156 23 36V160c0 1.321.684 6-1 6v1Z"/><path fill="#1E9C5A" id="MOp5" d="M128 154c-5.782 0-14.804 13-22 13l-1-25.5c6.39-12.779 10.076-31.788 25.5-39.5 3.61-1.805 7.373-9 11.5-9 0 7.354 1 15.129 1 23v1c-7.452 0-13.079 19.658-16 25.5-1.616 3.232 1 8.676 1 11.5Z"/><path fill="#1D9C5A" id="MOs6a" d="M167 134c-9.668 0-23.399 15-29 15 0-2.603-.531-11.438 0-12.5l2-3-1-2c2.119-4.237 4-9.514 4-14.5v-1l13.5-9c10.12-5.06 20.893-8.947 31-14 2.364-1.182 5.696 1 7.5 1v1c-2.104 0-12 21.066-12 24l-2 4c-6.71 0-14 3.521-14 11ZM289 134c10.504 0 20.983 14 29 14 2.969 0-.321-6.858 0-7.5 2.013-4.026-5-17.108-5-23.5v-1l-16.5-11c-9.038-4.519-18.962-7.481-28-12-2.161-1.08-4.894 1-6.5 1 0 6.921 11 16.085 11 25 2.109 0 2 2.535 2 4h1c7.072 0 13 3.403 13 11Z"/><path fill="#1E9C5A" id="MOp5" d="M329 154c0 1.316 18.26 12 21 12 1.684 0 1-4.679 1-6v-20.5c-7.422-14.844-9.941-22.941-23-36-2.752-2.752-10.336-10.5-14-10.5 0 7.041-1 15.231-1 23v1c11.618 0 16 28.126 16 37Z"/><path fill="#3FA664" id="ACAd6a" d="M257 103c4.594 0 14.425 16 16 16 0-8.915-11-18.079-11-25h-1c0 2.622-4 4.285-4 8v1ZM200 103c-6.763 0-14.415 16-17 16 0-2.934 9.896-24 12-24 2.66 0 5 4.28 5 7v1Z"/><path fill="#2FA74F" id="PL2/3" d="M219 133h4c0-11.999-1-25.357-1-38l-5 1c0 12.271 1 25.389 1 37h1Z"/><path fill="#2FA750" id="PL1" d="M223 133h11V95h-12c0 12.643 1 26.001 1 38Z"/><path fill="#2FA74F" id="PL2/3" d="M234 133h4c0-11.938 2-24.358 2-37-1.564 0-3.876-1-6-1v38Z"/><path fill="#2EA84F" id="PL5" d="M204 133h14c0-11.611-1-24.729-1-37-6.176 0-11.534 6-17 6v1c0 10.267 4 19.987 4 30ZM238 133h14c0-2.322 3.095-22.689 4-24.5.619-1.238-1.144-5.5 1-5.5v-1c-5.732 0-10.689-6-17-6 0 12.642-2 25.062-2 37Z"/><path fill="#2FA850" id="PL6a" d="M189 133h15c0-10.013-4-19.733-4-30-6.763 0-14.415 16-17 16l-2 4c2.409 0 6 6.558 6 9l1 1h1ZM267 133h2v-1l4-7 2-2c0-1.465.109-4-2-4-1.575 0-11.406-16-16-16-2.144 0-.381 4.262-1 5.5-.905 1.811-4 22.178-4 24.5h15Z"/><path fill="#1F9B5A" id="MOp6a" d="m138 149-10 5c0-2.824-2.616-8.268-1-11.5 2.921-5.842 8.548-25.5 16-25.5 0 4.986-1.881 10.263-4 14.5l1 2-2 3c-.531 1.062 0 9.897 0 12.5ZM328 154h1c0-8.874-4.382-37-16-37 0 6.392 7.013 19.474 5 23.5-.321.642 2.969 7.5 0 7.5l10 6Z"/><path fill="#1E9C58" id="MOs6b" d="M167 134h2v-2c0-1.048-.473-3 1-3l1-1c0-2.109 2.535-2 4-2 0-1.684 4.679-1 6-1v-2c-6.71 0-14 3.521-14 11Z"/><path fill="#2FA84F" id="PL6b" d="M186 132h1c0-2.442-3.591-9-6-9v2c1.747 0 2 .253 2 2l3 5ZM273 125h3v-2h-1l-2 2Z"/><path fill="#1E9C58" id="MOs6b" d="M288 134h1c0-7.597-5.928-11-13-11v2h5l4 2c1.577 0 2 1.762 2 3v4h1Z"/><path fill="#CACCC7" id="cing" d="m175 126 8 1c0-1.747-.253-2-2-2-1.321 0-6-.684-6 1Z"/><path fill="#2FA84F" id="PL6b" d="M269 132h2l2-5v-2l-4 7Z"/><path fill="#CACCC7" id="cing" d="M281 125c0 .816-7.019 2-8 2v-2h8Z"/><path fill="#CAC7CC" id="fa" d="M267 145c0 2.461 3.378 2 5 2 0-2.526 14-.469 14-4l1-2v-11l-2-3-4-2c0 .816-7.019 2-8 2l-2 5c0 .972-3.725 11-4 11v2ZM189 145c0 3.985-3.223 1-5 1-2.65 0-14-.156-14-4l-1-2v-8c1.473 0 1-1.952 1-3l1-1c0-2.109 2.535-2 4-2l8 1 3 5c0 4.25 3 8.447 3 13Z"/><path fill="#C9C9CA" id="scwm" d="M285 127c1.577 0 2 1.762 2 3l-2-3ZM171 128l-1 1 1-1ZM170 129c-1.473 0-1 1.952-1 3 1.473 0 1-1.952 1-3Z"/><path fill="#24875E" id="ORBm6b" d="M189 145h1l-2-12-1-1h-1c0 4.25 3 8.447 3 13ZM269 133c0 2.979-2 6.23-2 10 .275 0 4-10.028 4-11h-2v1Z"/><path fill="#22885E" id="ORBm6a" d="M196 175h6c0-7.976.322-17.855-3-24.5-1.625-3.25-10-14.923-10-17.5h-1l2 12 2 3.5c1.35 2.699 6.611 11.778 5 15l-4 6.5v1l3 4Z"/><path fill="#58B362" id="ILA6a" d="M202 175h7v-18.5c-2.899-5.798-5-16.835-5-23.5h-15c0 2.577 8.375 14.25 10 17.5 3.322 6.645 3 16.524 3 24.5Z"/><path fill="#59B262" id="ILA5" d="M209 175h6c0-2.477 2.011-2.522 3-4.5 1.492-2.984.493-6.985 2-10 1.149-2.297-1-22.771-1-27.5h-15c0 6.665 2.101 17.702 5 23.5V175Z"/><path fill="#59B362" id="ILA2/3" d="m215 175 5 1 4-11.5c3.176-6.352-1-23.545-1-31.5h-4c0 4.729 2.149 25.203 1 27.5-1.507 3.015-.508 7.016-2 10-.989 1.978-3 2.023-3 4.5Z"/><path fill="#59B263" id="ILA1" d="M229 176h8c0-.813-4.29-13.081-5-14.5-2.703-5.406 2-22.534 2-28.5h-11c0 7.955 4.176 25.148 1 31.5l-4 11.5h7c0-2.124 1-4.436 1-6 0-10.298 1-10.298 1 0v6Z"/><path fill="#59B362" id="ILA2/3" d="m241 175-4 1c0-.813-4.29-13.081-5-14.5-2.703-5.406 2-22.534 2-28.5h4c0 6.275-3.775 26.95-1 32.5l4 9.5Z"/><path fill="#59B262" id="ILA5" d="M241 175h6v-16.5c3.295-6.591 5-17.802 5-25.5h-14c0 6.275-3.775 26.95-1 32.5l4 9.5Z"/><path fill="#58B362" id="ILA6a" d="M247 175h7c0-7.838.847-19.193 5-27.5 1.816-3.633 8-10.537 8-14.5h-15c0 7.698-1.705 18.909-5 25.5V175Z"/><path fill="#22885E" id="ORBm6a" d="M260 175h1c0-1.238.423-3 2-3v-1l-3-6.5c-1.562-3.123 4.076-18.5 6-18.5v-1l1-2c0-3.77 2-7.021 2-10h-2c0 3.963-6.184 10.867-8 14.5-4.153 8.307-5 19.662-5 27.5h6Z"/><path fill="#209666" id="AId6a" d="M142 166h1c0-1.208 5.675-10 8-10 0-1.238.423-3 2-3l1-1 1-1c0-2.168 9.594-13 12-13v-4c-9.668 0-23.399 15-29 15l-10 5c0 6.571 7.941 12 14 12Z"/><path fill="#1F9766" id="AId6b" d="M167 137h2v-3h-2v3Z"/><path fill="#C9C9CA" id="scwm" d="M288 137c0 1.145.579 4-1 4v-7h1v3Z"/><path fill="#1F9766" id="AId6b" d="M288 137h1v-3h-1v3Z"/><path fill="#209666" id="AId6a" d="M314 166h1c6.378 0 13-5.306 13-12l-10-6c-8.017 0-18.496-14-29-14v3c5.35 0 9.061 14 13 14l1 1v1c2.474 0 7.377 8.255 8 9.5l3 3.5Z"/><path fill="#248A5C" id="ORBl6b" d="M184 146v3c-7.056 0-17-2.382-17-11v-1h2v3l1 2c0 3.844 11.35 4 14 4ZM272 147v2c8.623 0 17-2.266 17-12h-1c0 1.145.579 4-1 4l-1 2c0 3.531-14 1.474-14 4Z"/><path fill="#24895D" id="ORBl6a" d="M269 160c3.494 0 10.441-8.53 17.5-5 4.533 2.267 19.11 10 23.5 10l-7-12v-1l-1-1c-3.939 0-7.65-14-13-14 0 9.734-8.377 12-17 12 0 3.282-3 7.065-3 11ZM189 162c-1.105 0-10.719-11.39-19.5-7L147 165l4-9c1.577 0 2-1.762 2-3l1-1 1-1c0-2.168 9.594-13 12-13 0 8.618 9.944 11 17 11h1c0 4.78 4 8.6 4 13Z"/><path fill="#C9C9CA" id="scwm" d="m169 140 1 2-1-2ZM287 141l-1 2 1-2Z"/><path fill="#24875E" id="ORBm6b" d="M266 145h1v-2l-1 2Z"/><path fill="#22895E" id="ORBvl6b" d="M184 149h1c4.062 0 5 .306 5-4h-1c0 3.985-3.223 1-5 1v3Z"/><path fill="#238A5C" id="ORBvl6a" d="m189 164 4 6 4-6.5c1.611-3.222-3.65-12.301-5-15l-2-3.5c0 4.306-.938 4-5 4 0 4.78 4 8.6 4 13v2Z"/><path fill="#22895E" id="ORBvl6b" d="M272 147v2c-2.74 0-6 .626-6-3v-1h1c0 2.461 3.378 2 5 2Z"/><path fill="#238A5C" id="ORBvl6a" d="m268 163-5 8-3-6.5c-1.562-3.123 4.076-18.5 6-18.5 0 3.626 3.26 3 6 3 0 3.282-3 7.065-3 11l-1 1v2Z"/><path fill="#1F9866" id="AIv6a" d="m155 151-1 1 1-1ZM302 151l1 1-1-1ZM154 152l-1 1 1-1ZM153 153c-1.577 0-2 1.762-2 3 1.577 0 2-1.762 2-3ZM310 165l4 1-3-3.5c-.623-1.245-5.526-9.5-8-9.5l7 12Z"/><path fill="#209665" id="AId5" d="M114 193h1c2.506 0 27-24.613 27-27-6.059 0-14-5.429-14-12-5.782 0-14.804 13-22 13 0 4.104 5.282 26 8 26ZM342 193h1c0-4.484 7-16.05 7-26v-1c-2.74 0-21-10.684-21-12h-1c0 6.694-6.622 12-13 12 0 3.172 23.366 27 27 27Z"/><path fill="#228A5D" id="ORBl5" d="M151 184c3.758 0 16-8.815 16 0l18-7c0-2.795 1.214-13 4-13v-2c-1.105 0-10.719-11.39-19.5-7L147 165h-1c0 8.835-1.18 7.14 3 15.5.579 1.158-.341 3.5 2 3.5ZM289 184c0-8.533 13.567 0 17 0 0-1.612 4.482-8.465 6-11.5l-2-7.5c-4.39 0-18.967-7.733-23.5-10-7.059-3.53-14.006 5-17.5 5l-1 1v2c0 4.351 3 8.07 3 14l18 7Z"/><path fill="#1F9866" id="AIv6a" d="M146 165h1l4-9c-2.325 0-8 8.792-8 10l3-1Z"/><path fill="#24895D" id="ORBl6a" d="m269 160-1 1 1-1Z"/><path fill="#23885C" id="ORBvl5" d="M263 175c0 1.059 6.743 2 8 2 0-5.93-3-9.649-3-14l-5 8v4ZM193 175c0 1.059-6.743 2-8 2 0-2.795 1.214-13 4-13l4 6v5Z"/><path fill="#1F9865" id="AIv5" d="m150 185-24 12c-3.711 0-11 1.384-11-4 2.506 0 27-24.613 27-27h1l3-1c0 8.835-1.18 7.14 3 15.5.579 1.158-.341 3.5 2 3.5l-1 1ZM306 185l25 12c3.019 0 11 .874 11-4-3.634 0-27-23.828-27-27h-1l-4-1 2 7.5c-1.518 3.035-6 9.888-6 11.5v1Z"/><path fill="#209765" id="AId2/3" d="M114 193c0 1.509-9.403 5-11 5 0-3.119-6.302-16.105-8-19.5-.557-1.114-.41-5.5-2-5.5v-1c5.085 0 7.998-5 13-5 0 4.104 5.282 26 8 26ZM343 193c0 1.707 8.452 5 10 5 0-5.492 10-18.151 10-26l-13-5c0 9.95-7 21.516-7 26Z"/><path fill="#99D2BD" id="OLF" d="M227 176c.839 0 2 1.93 2 0v-6h-1c0 1.564-1 3.876-1 6Z"/><path fill="#238A5C" id="ORBvl6a" d="M193 175h3l-3-4v4ZM261 175h2v-3c-1.577 0-2 1.762-2 3Z"/><path fill="#209764" id="AId1" d="m353 198 4 2c1.186 0 3.454-4.408 4-5.5 1.795-3.589 7-16.767 7-20.5l-5-2c0 7.849-10 20.508-10 26ZM103 199l-4 1c0-2.757-10-18.785-10-27h4c1.59 0 1.443 4.386 2 5.5 1.698 3.395 8 16.381 8 19.5v1Z"/><path fill="#99D2BD" id="OLF" fill-rule="evenodd" d="M159 201c0 3.716-3.737 5.025-1 10.5l4 7 4.5 8.5c2.105 1.052 5.549-.599 6.5-2.5 1.085-2.171-1.232-4.463-2-6-4.671-9.341 5.425-17.5-12-17.5m3 45c7.506 0 21.687 7.593 28.5 11 7.027 3.514 14.059-6.97 20-4 4.275 2.138 4.5 4.378 4.5 9 1.845 0 1.441-3.381 2-4.5l6-12.5-4 2c-13.277 0-4-9.711-4-16-5.029 0-15.527 26.487-28.5 20-5.318-2.659-11.454-4.407-14.5-10.5-4.973-9.945 7.42-12.96 12.5-15.5l2.5-2-3-6c0 16.348-20.407-8.046-8.5-14 3.09-1.545 3.915 4 5.5 4 0-6.566 1.434-8 8-8 0-6.23 2.074-14 9-14l-2-10h-3c0 1.059-6.743 2-8 2l-18 7v1c0 4.394-9.625 14.75-12 19.5-2.869 5.739 10.477 21.954 13 27 3.438 6.876-6 12.533-6 14.5Z"/><path fill="#A3DAA3" id="DP" d="M208 193h41c4.46 0 6.17-8 9-8l2-10h-19l-4 1h-8c0 1.93-1.161 0-2 0h-7l-5-1h-19l2 10c3.998 0 4.917 8 10 8Z"/><path fill="#99D2BD" id="OLF" d="M295 246c-8.202 0-22.211 7.355-29.5 11-6.826 3.413-13.795-7.102-20-4-3.47 1.735-4.5 4.18-4.5 8l-9-18 5.5 4c2.208 1.104 4.635-.635 6-2 4.681-4.681-2.5-10.113-2.5-15 1.041 0 15.548 19.024 19.5 21 9.104 4.552 28.584-8.333 23.5-18.5-2.094-4.189-5.716-5.608-9.5-7.5-1.119-.559-4.5-.155-4.5-2 0-1.283 1.931-8 3-8 0 21.542 18.086-7.207 8.5-12-3.331-1.666-4.771 5-6.5 5 0-8.221-1.323-8-8-8 0-7.095-.641-15-9-15l2-10h3c0 1.059 6.743 2 8 2l18 7v1c0 5.263 6.874 8.249 9 12.5 4.055 8.11 2.874 12.251-1 20-.832 1.665-3.685 8.5-6 8.5-1.423 0-3.544 1.978-5.5 1-3.933-1.967.227-13.955 1.5-16.5 1.629-3.258-2.073-7.213 2.5-9.5 5.808-2.904 12.404 3.692 9.5 9.5-2.138 4.276-8 10.626-8 15.5 0 3.24-4.923 7.655-3 11.5.827 1.654 7 7.945 7 8.5Z"/><path fill="#238A5E" id="ORBl2/3" d="m167 185-12 6c0-3.079-5-4.308-5-6l1-1c3.758 0 16-8.815 16 0v1ZM306 185c0 3.151-5 1.505-5 5l-12-5v-1c0-8.533 13.567 0 17 0v1Z"/><path fill="#219764" id="AIv2/3" d="M128 205c-1.424 0-5 .362-5 2-4.648 0-9.017 2.242-13.5 0l-6.5-8v-1c1.597 0 11-3.491 11-5h1c0 5.384 7.289 4 11 4l24-12c0 1.692 5 2.921 5 6-5.156 0-15.209 11-21 11l-2 1h-1l-2 1-1 1Z"/><path fill="#6ACAB9" id="PIR" d="m162 246-7 3c-7.528 0-16.787-14-31-14l-3.5-3c-7.016-3.508-11.5-9.619-11.5-19 1.826 0 14-4.558 14-6 1.424 0 5-.362 5-2l1-1 2-1h1l2-1c5.791 0 15.844-11 21-11l12-6c0 4.394-9.625 14.75-12 19.5-2.869 5.739 10.477 21.954 13 27 3.438 6.876-6 12.533-6 14.5Z"/><path fill="#54BF94" id="AON" d="M215 230v1c-5.029 0-15.527 26.487-28.5 20-5.318-2.659-11.454-4.407-14.5-10.5-4.973-9.945 7.42-12.96 12.5-15.5l2.5-2c12.949 0 2-18.926 2-24 0-6.23 2.074-14 9-14 3.998 0 4.917 8 10 8 0 7.788 8 16.602 8 24v12l-1 1ZM240 224l1 6c1.041 0 15.548 19.024 19.5 21 9.104 4.552 28.584-8.333 23.5-18.5-2.094-4.189-5.716-5.608-9.5-7.5-1.119-.559-4.5-.155-4.5-2-13.229 0-3-16.832-3-23 0-7.095-.641-15-9-15-2.83 0-4.54 8-9 8 0 6.291-4.306 14.111-7 19.5-.465.93-.817 4.5-2 4.5v7Z"/><path fill="#6ACAB9" id="PIR" d="m303 248-1 1-2-1-5-2c0-.555-6.173-6.846-7-8.5-1.923-3.845 3-8.26 3-11.5 2.315 0 5.168-6.835 6-8.5 3.874-7.749 5.055-11.89 1-20-2.126-4.251-9-7.237-9-12.5l12 5 4.5 3c4.947 2.473 11.837 9 17.5 9l1 1h2c0 1.681 18.624 10 21 10 0 9.675-3.896 15.698-12.5 20l-2.5 2c0-1.574-5.398-.551-6.5 0-4.72 2.36-18.393 13-22.5 13Z"/><path fill="#219764" id="AIv2/3" d="M324 203h2c7.888 0 13.533 10.967 23 1.5l4-6.5c-1.548 0-10-3.293-10-5h-1c0 4.874-7.981 4-11 4l-25-12c0 3.151-5 1.505-5 5l4.5 3c4.947 2.473 11.837 9 17.5 9l1 1Z"/><path fill="#61D09F" id="TTd" d="M216 217c2.608 0 6.723 3.889 10.5 2l2-6 1 6c3.777 1.889 7.892-2 10.5-2 1.183 0 1.535-3.57 2-4.5 2.694-5.389 7-13.209 7-19.5h-41c0 7.788 8 16.602 8 24Z"/><path fill="#209864" id="AIv1" d="M326 203c0 1.681 18.624 10 21 10 3.147 0 10-10.059 10-13l-4-2-4 6.5c-9.467 9.467-15.112-1.5-23-1.5ZM123 207c0 1.442-12.174 6-14 6 0-1.013-10-9.481-10-13l4-1 6.5 8c4.483 2.242 8.852 0 13.5 0Z"/><path fill="#80CDF8" id="ACB" d="m184 217 3 6c12.949 0 2-18.926 2-24-6.566 0-8 1.434-8 8l2 6c1.473 0 1 1.952 1 3v1ZM273 215c-1.069 0-3 6.717-3 8-13.229 0-3-16.832-3-23 6.677 0 8-.221 8 8v1l-1 1v1l-1 1v3Z"/><path fill="#A0EE9C" id="EPd" d="M159 201c0 3.716-3.737 5.025-1 10.5l4 7 4.5 8.5c2.105 1.052 5.549-.599 6.5-2.5 1.085-2.171-1.232-4.463-2-6-4.671-9.341 5.425-17.5-12-17.5ZM291 226c0-4.874 5.862-11.224 8-15.5 2.904-5.808-3.692-12.404-9.5-9.5-4.573 2.287-.871 6.242-2.5 9.5-1.273 2.545-5.433 14.533-1.5 16.5 1.956.978 4.077-1 5.5-1Z"/><path fill="#209864" id="AIv1" d="m134 202-2 1 2-1ZM323 202l1 1-1-1ZM131 203l-2 1 2-1Z"/><path fill="#CBCBC7" id="aco" d="M184 216v1c0 16.348-20.407-8.046-8.5-14 3.09-1.545 3.915 4 5.5 4l2 6c0 1.048-.473 3 1 3ZM273 212v3c0 21.542 18.086-7.207 8.5-12-3.331-1.666-4.771 5-6.5 5v1l-1 1v1l-1 1Z"/><path fill="#209864" id="AIv1" d="m129 204-1 1 1-1ZM128 205c-1.424 0-5 .362-5 2 1.424 0 5-.362 5-2Z"/><path fill="#99D2BD" id="OLF" d="m275 209-1 1 1-1ZM274 211l-1 1 1-1ZM183 213c1.473 0 1 1.952 1 3-1.473 0-1-1.952-1-3ZM240 224l-2.5-4-8 1-1 2c-2.414 0-6.75-4.625-10-3l-2.5 5v-8c2.608 0 6.723 3.889 10.5 2l2-6 1 6c3.777 1.889 7.892-2 10.5-2v7Z"/><path fill="#62CF9E" id="TTv" d="m224 243-1 2-4 2c-13.277 0-4-9.711-4-16v-1l1-1v-4l2.5-5c3.25-1.625 7.586 3 10 3l1-2 8-1 2.5 4 1 6c0 4.887 7.181 10.319 2.5 15-1.365 1.365-3.792 3.104-6 2l-5.5-4v-1l-1-1c0-6.112-5-8.538-5-1l-1 1v1l-1 1Z"/><path fill="#99D2BD" id="OLF" d="m216 229-1 1 1-1Z"/><path fill="#CAC8C7" id="lot" d="m155 253-2 1c-3.373 0-29-16.351-29-19 14.213 0 23.472 14 31 14v4ZM302 253l2 1c3.362 0 28-16.478 28-19 0-1.574-5.398-.551-6.5 0-4.72 2.36-18.393 13-22.5 13l-1 1v4Z"/><path fill="#99D2BD" id="OLF" d="m226 240-1 1 1-1ZM231 241l1 1-1-1ZM225 242l-1 1 1-1ZM224 243l-1 2 1-2Z"/><path fill="#7FCCF7" id="OT" d="m214 264-1 1c0 4.673-10.902 4.701-13.5 6-6.227 3.114-28.689-6.844-35-10-1.431-.716-7.5-3.243-7.5-5l-2-3v-4l7-3c7.506 0 21.687 7.593 28.5 11 7.027 3.514 14.059-6.97 20-4 4.275 2.138 4.5 4.378 4.5 9v1l-1 1ZM241 262c1.577 0 2 1.762 2 3 0 4.673 10.902 4.701 13.5 6 2.853 1.426 26.103-4.052 30-6l12.5-8 1-1 1-1 1-2v-3l-2-2-5-2c-8.202 0-22.211 7.355-29.5 11-6.826 3.413-13.795-7.102-20-4-3.47 1.735-4.5 4.18-4.5 8v1Z"/><path fill="#99D2BD" id="OLF" d="M302 249v1l-2-2 2 1ZM303 248l-1 1 1-1ZM153 254l4 2-2-3-2 1ZM304 254l-3 1 1-2 2 1ZM301 255l-1 1 1-1ZM300 256l-1 1 1-1Z"/><path fill="#97D6F9" id="STR" d="M241 262c1.577 0 2 1.762 2 3l-2-3ZM215 263l-1 1 1-1ZM214 264l-1 1 1-1Z"/></svg>