<svg xmlns="http://www.w3.org/2000/svg" viewBox="0 0 456 320"><path fill="#1E9C59" id="MOs1" d="M122 92c0 1.424.362 5 2 5l14.5-12c6.15-3.075 11.866-6.933 18-10 5.325-2.663 16.82-3.41 22-6 3.828-1.914 9.901-4.05 14-2h10c3.209 1.605 5.683 4.341 9 6 1.425.712 3.5 2.014 3.5 4h2l3-3c0-7.36-12.339-10.92-16.5-13-16.984-8.492-48.586 8.793-63 16-2.58 1.29-18.5 11.996-18.5 15ZM334 92c0 2.413-1 3.51-1 5l-16.5-13-17-9c-4.716-2.358-11.335-1.668-16-4-4.75-2.375-13.801-6.6-19-4-7.199 3.6-11.038-2.962-20.5 6.5l-3 3.5h-1l-3-3c0-4.9 8.583-11.042 12.5-13h4c16.887-8.443 47.676 8.838 62 16 2.662 1.331 18.5 11.738 18.5 15Z"/><path fill="#1E9D58" id="MOs2/3" d="M123 99c0 5.013-.129 7.241 2 11.5.846 1.691-2.199 9.5 0 9.5l13-15.5c14.059-14.06 31.552-19.026 48.5-27.5 3.327-1.664 23.5.596 23.5 5h1c1.811 0 4-3.438 4-5 0-1.986-2.075-3.288-3.5-4-3.317-1.659-5.791-4.395-9-6h-10c-4.099-2.05-10.172.086-14 2-5.18 2.59-16.675 3.337-22 6-6.134 3.067-11.85 6.925-18 10L124 97l-1 2ZM334 100c-1.665 0-1 4.222-1 5.5 0 4.627-1 11.54-1 15.5l-7-9.5c-3.436-6.873-13.984-15.242-20.5-18.5-10.131-5.066-20.997-8.999-31-14-1.936-.968-9.81-4.095-12-3-3.668 1.834-8.277 1.138-12 3l-3.5 3c-1.654 0-5-3.74-5-5l3-3.5c9.462-9.462 13.301-2.9 20.5-6.5 5.199-2.6 14.25 1.625 19 4 4.665 2.332 11.284 1.642 16 4l17 9L333 97l1 3Z"/><path fill="#3EA665" id="ACAd1" d="M222 93h13c0-6.556 5-11.644 5-16l-3-3c-2.553 0-6.029 8.558-7 10.5l-1.5 4.5-1.5-3.5-7-11.5-3 3c0 5.425 5 10.099 5 16Z"/><path fill="#1F9D58" id="MOs5" d="M144 140c-5.88 0-10.703 11-17 11 0-2.061-2-4.212-2-4.5 0-7.531-1-15.43-1-23.5l1-2v-1l13-15.5c14.059-14.06 31.552-19.026 48.5-27.5 3.327-1.664 23.5.596 23.5 5l-16 20c-2.014 0-5.932-2.284-8.5-1-2.457 1.229-5.664.832-8 2-9.984 4.992-26.913 13.325-32.5 24.5l-1 12.5ZM313 141c5.632 0 11.024 10 16 10 0-1.634 2.788-16.076 3-16.5 1.052-2.103-.68-10.5 1-10.5v-1l-1-1v-1l-7-9.5c-3.436-6.873-13.984-15.242-20.5-18.5-10.131-5.066-20.997-8.999-31-14-1.936-.968-9.81-4.095-12-3-3.668 1.834-8.277 1.138-12 3l-3.5 3v1c1.495 0 16 17.747 16 19h1c0-1.665 4.222-1 5.5-1l15 4c14.521 7.26 29.5 17.689 29.5 35v1Z"/><path fill="#40A565" id="ACAd2/3" d="M215 95h1c1.974 0 3.517-2 6-2 0-5.901-5-10.575-5-16h-2c0 1.562-2.189 5-4 5 0 4.28 4 7.618 4 13ZM235 93l6 2c0-2.605 1.386-12 5-12v-1c-1.654 0-5-3.74-5-5h-1c0 4.356-5 9.444-5 16Z"/><path fill="#3EA566" id="ACAd5" d="m194 102 3 1c6.54 0 11.504-8 18-8 0-5.382-4-8.72-4-13h-1l-16 20ZM262 102l-2 1c-7.31 0-11.933-8-19-8 0-2.605 1.386-12 5-12 1.495 0 16 17.747 16 19Z"/><path fill="#1E9D5A" id="MOp1" d="m109 162-4 2c-2.926 0-3.854-15.208-5-17.5-7.895-15.791 8.004-32.007 14-44l8-10.5c0 1.424.362 5 2 5l-1 2c-2.376 0-6.106 7.712-7 9.5-4.611 9.222-16.985 25.031-11 37 1.261 2.522-.011 15.5 4 15.5v1Z"/><path fill="#2FA750" id="PL1" d="M223 131h10l2-38h-13c0 12.509 1 25.041 1 38Z"/><path fill="#1E9D5A" id="MOp1" d="m348 162 4 2c0-3.41 3.401-11.303 5-14.5V142c0-18.257-5.695-22.889-13-37.5-1.087-2.173-7.319-12.5-10-12.5 0 2.413-1 3.51-1 5l1 3c3.255 0 7.862 10.225 9 12.5 3.519 7.038 13.863 25.274 9 35-1.369 2.738-4 10.681-4 13.5v1Z"/><path fill="#2FA74F" id="PL2/3" d="M219 131h4c0-12.959-1-25.491-1-38-2.483 0-4.026 2-6 2 0 12.271 3 23.686 3 36ZM233 131h4c0-12.036 4-24.133 4-36l-6-2-2 38Z"/><path fill="#2EA84F" id="PL5" d="m214 130 5 1c0-12.314-3-23.729-3-36h-1c-6.496 0-11.46 8-18 8v1c0 .718 3.262 5.025 4 6.5.725 1.45 2 12.609 2 14.5v1c3.546 0 6.807 4 11 4ZM243 130l-6 1c0-12.036 4-24.133 4-36 7.067 0 11.69 8 19 8v1c-3.526 0-7 18.814-7 22v1c-3.823 0-6.314 3-10 3Z"/><path fill="#1F9C58" id="MOp2/3" d="M120 155c-3.988 0-6.942 6-11 6-4.011 0-2.739-12.978-4-15.5-5.985-11.969 6.389-27.778 11-37 .894-1.788 4.624-9.5 7-9.5 0 5.013-.129 7.241 2 11.5.846 1.691-2.199 9.5 0 9.5v1l-1 2c-1.59 0-1.443 4.386-2 5.5-4.305 8.611-2 17.082-2 26.5ZM336 155l12 6c0-2.819 2.631-10.762 4-13.5 4.863-9.726-5.481-27.962-9-35-1.138-2.275-5.745-12.5-9-12.5-1.665 0-1 4.222-1 5.5 0 4.627-1 11.54-1 15.5v1l1 1v1l4 10.5c2.428 4.856-1 14.936-1 19.5v1Z"/><path fill="#1D9C5A" id="MOs6a" d="m161 133-4.5-1c-3.208 1.604-6.381 3.69-9 5l-3.5 3 1-12.5c5.587-11.175 22.516-19.508 32.5-24.5 2.336-1.168 5.543-.771 8-2 2.568-1.284 6.486 1 8.5 1l-2 3c-1.782 0-7 6.482-7 8-7.224 0-16.686 2.871-20 9.5l1 3.5-4 6-1 1ZM295 133c1.423 0 3.544-1.978 5.5-1 2.953 1.476 9.405 8 12.5 8 0-17.311-14.979-27.74-29.5-35l-15-4c-1.278 0-5.5-.665-5.5 1l1 2c2.185 0 7 7.198 7 9 7.929 0 11.079 2.789 17.5 6 .876.438 4.692 7 1.5 7l5 7Z"/><path fill="#3FA664" id="ACAd6a" d="m197 104-5 1 2-3 3 1v1ZM260 104c1.465 0 4 1.115 4 0l-1-2h-1l-2 1v1Z"/><path fill="#2FA850" id="PL6a" d="M189 117c4.669 0 8.682 8 14 8 0-1.891-1.275-13.05-2-14.5-.738-1.475-4-5.782-4-6.5l-5 1c-1.782 0-7 6.482-7 8 1.366 0 4 2.366 4 4ZM267 117l-14 9c0-3.186 3.474-22 7-22 1.465 0 4 1.115 4 0 2.185 0 7 7.198 7 9l-4 4Z"/><path fill="#268E44" id="FRP6a" d="M182 118c1.774 0 7-.273 7 2 1.514 0 0-1.762 0-3 0-1.634-2.634-4-4-4-7.224 0-16.686 2.871-20 9.5l1 3.5 16-8ZM274 118l16 8c3.192 0-.624-6.562-1.5-7-6.421-3.211-9.571-6-17.5-6l-4 4v2l7-1Z"/><path fill="#22885E" id="ORBm6a" d="M203 126c0 4.486 2.861 12-4 12l-10-18c1.514 0 0-1.762 0-3 4.669 0 8.682 8 14 8v1ZM257 138h1c0-6.623 9-12.106 9-19v-2l-14 9v1c0 4.396-1.744 11 4 11Z"/><path fill="#24895D" id="ORBl6a" d="M179 136c-10.271 0-19.638 17-26 17 0-7.213 8-13.379 8-20l1-1 4-6 16-8c0 6.026-3 11.375-3 18Z"/><path fill="#238A5C" id="ORBvl6a" d="M179 136c6.282 0 12.588 2 20 2l-10-18c0-2.273-5.226-2-7-2 0 6.026-3 11.375-3 18ZM277 135c-6.706 0-11.897 3-19 3 0-6.623 9-12.106 9-19l7-1c0 5.303 3 10.638 3 17Z"/><path fill="#24895D" id="ORBl6a" d="M277 136c11.121 0 21.027 17 27 17 0-5.615-9-15.598-9-20l-5-7-16-8c0 5.303 3 10.638 3 17v1Z"/><path fill="#1E9C5A" id="MOp5" d="m125 121-1 2 1-2ZM332 122l1 1-1-1ZM120 155h1c0-1.008 5.147-4 6-4 0-2.061-2-4.212-2-4.5 0-7.531-1-15.43-1-23.5-1.59 0-1.443 4.386-2 5.5-4.305 8.611-2 17.082-2 26.5ZM329 151l7 3c0-4.564 3.428-14.644 1-19.5l-4-10.5c-1.68 0 .052 8.397-1 10.5-.212.424-3 14.866-3 16.5Z"/><path fill="#23885E" id="ORBm5" d="M213 169h1l5-6.5 1-23.5c-.908 0-6-8.062-6-9-4.193 0-7.454-4-11-4 0 4.486 2.861 12-4 12 0 6.887 14 21.968 14 31ZM237 139c0 6.238-2.075 29 6 29l14-30c-5.744 0-4-6.604-4-11-3.823 0-6.314 3-10 3 0 1.662-4.775 7-6 7v2Z"/><path fill="#59B262" id="ILA5" d="m219 131 1 8c-.908 0-6-8.062-6-9l5 1ZM237 131v6c1.225 0 6-5.338 6-7l-6 1Z"/><path fill="#59B362" id="ILA2/3" d="m220 139 4 1c0-2.723-1-5.778-1-9h-4l1 8Z"/><path fill="#59B263" id="ILA1" d="M233 140c-2.389 0-5.987 1-9 1v-1c0-2.723-1-5.778-1-9h10v9Z"/><path fill="#59B362" id="ILA2/3" d="m237 139-4 1v-9h4v8Z"/><path fill="#209666" id="AId6a" d="M152 153h1c0-7.213 8-13.379 8-20l-4.5-1c-3.208 1.604-6.381 3.69-9 5l-3.5 3c0 5.212 1.306 13 8 13ZM162 132l-1 1 1-1ZM304 153h1c5.391 0 8-7.646 8-12v-1c-3.095 0-9.547-6.524-12.5-8-1.956-.978-4.077 1-5.5 1 0 4.402 9 14.385 9 20Z"/><path fill="#23885C" id="ORBvl5" d="M185 153c10.049 0 17.939 16 28 16 0-9.032-14-24.113-14-31-7.412 0-13.718-2-20-2 0 6.277 5 11.39 5 17h1ZM243 168v1c9.169 0 19.082-16 28-16h1c0-4.886 5-9.636 5-17v-1c-6.706 0-11.897 3-19 3h-1l-14 30Z"/><path fill="#228A5D" id="ORBl5" d="M149 159c0 7.031-5 12.516-5 20l9.5-7c8.177-4.089 20.836-19 30.5-19 0-5.61-5-10.723-5-17-10.271 0-19.638 17-26 17h-1l-1 3-1 1-1 2ZM306 157c0 7.353 6 13.532 6 22l-7.5-6c-9.146-4.573-22.409-20-32.5-20 0-4.886 5-9.636 5-17 11.121 0 21.027 17 27 17h1v2l1 1v1Z"/><path fill="#24885D" id="ORBm2/3" d="M214 169c0 3.647 3 6.586 3 10 2.825 0 4.155-5.81 5-7.5 4.637-9.275 2-20.234 2-30.5v-1l-4-1-1 23.5-5 6.5ZM243 169c0 1.216-3.527 10-4 10-1.841 0-3.338-5.176-4-6.5-4.971-9.943-2-21.541-2-32.5l4-1c0 6.238-2.075 29 6 29v1Z"/><path fill="#209665" id="AId5" d="M133 180h1c0-2.224 2.386-2.272 3-3.5l8.5-12.5c1.127-1.127 1.275-5 3.5-5l1-2 1-1 1-3c-6.694 0-8-7.788-8-13-5.88 0-10.703 11-17 11-.853 0-6 2.992-6 4 0 6.437 3.328 12.156 6 17.5l6 7.5Z"/><path fill="#23895D" id="ORBm1" d="M218 181h7.5l3-4 2 4h8.5v-2c-1.841 0-3.338-5.176-4-6.5-4.971-9.943-2-21.541-2-32.5-2.389 0-5.987 1-9 1 0 10.266 2.637 21.225-2 30.5-.845 1.69-2.175 7.5-5 7.5v1l1 1Z"/><path fill="#209665" id="AId5" d="M306 157c2.335 0 13.408 23 17 23l6-6.5c2.547-5.095 7-12.562 7-18.5v-1l-7-3c-4.976 0-10.368-10-16-10 0 4.354-2.609 12-8 12v2l1 1v1Z"/><path fill="#238A5E" id="ORBl2/3" d="M146 185h1c0-2.797 7.584-7.042 9.5-8l7-6 14-7c3.973-1.986 8.553 2 11.5 2l-4-13h-1c-9.664 0-22.323 14.911-30.5 19l-9.5 7 2 6Z"/><path fill="#248A5D" id="ORBvl2/3" d="M214 181h3v-2c0-3.414-3-6.353-3-10h-1c-10.061 0-17.951-16-28-16l4 13v1c1.477 0 3 3.924 3 5l9.5 5c1.242.621 8.5 1.767 8.5 3h2l2 1ZM240 181h2c0-1.473 1.952-1 3-1h1c0-1.951 2.454-.477 3.5-1 2.073-1.036 15.5-6.589 15.5-8 0-1.766.607-5 3-5v-1c0-4.569 3-7.814 3-12-8.918 0-18.831 16-28 16 0 1.216-3.527 10-4 10v1l1 1Z"/><path fill="#238A5E" id="ORBl2/3" d="M312 179c0 1.041-.986 5-2 5-4.677 0-10.319-8.909-14.5-11-14.567-7.284-10.795-8-27.5-8 0-4.569 3-7.814 3-12h1c10.091 0 23.354 15.427 32.5 20l7.5 6Z"/><path fill="#209765" id="AId2/3" d="M133 180c0 1.517-6.113 8-8 8 0-2.85-16-20.397-16-26v-1c4.058 0 7.012-6 11-6h1c0 6.437 3.328 12.156 6 17.5l6 7.5Z"/><path fill="#1F9865" id="AIv5" d="m305 155 1 1-1-1Z"/><path fill="#209765" id="AId2/3" d="M323 181c1.306 0 8 6.272 8 7 2.346 0 16.953-26 17-26v-1l-12-6c0 5.938-4.453 13.405-7 18.5l-6 6.5v1Z"/><path fill="#1F9865" id="AIv5" d="m151 156-1 1 1-1ZM150 157l-1 2 1-2ZM323 180v1c-3.964 0-7.973-2-11-2 0-8.468-6-14.647-6-22 2.335 0 13.408 23 17 23ZM144 179c-1.148 0-10 5.875-10 1 0-2.224 2.386-2.272 3-3.5l8.5-12.5c1.127-1.127 1.275-5 3.5-5 0 7.031-5 12.516-5 20Z"/><path fill="#209764" id="AId1" d="m125 189-5 2c-2.653 0-15-23.43-15-27l4-2c0 5.603 16 23.15 16 26v1ZM331 189l6 2c1.596 0 15-23.816 15-27l-4-2c-.047 0-14.654 26-17 26v1Z"/><path fill="#238A5D" id="ORBl1" d="M147 185c0 1.747.253 2 2 2 4.553 0 7.988-7.744 12.5-10 9.475-4.737 15.817-8 27.5-8v-3c-2.947 0-7.527-3.986-11.5-2l-14 7-7 6c-1.916.958-9.5 5.203-9.5 8ZM310 185l-2 2c-5.212 0-8.644-7.572-13.5-10-9.261-4.631-15.079-8-26.5-8v-4c16.705 0 12.933.716 27.5 8 4.181 2.091 9.823 11 14.5 11v1Z"/><path fill="#248A5B" id="ORBvl1" d="M268 169c0 1.577-1.762 2-3 2 0-1.766.607-5 3-5v3ZM189 169c0 1.539 1.342 3 3 3 0-1.076-1.523-5-3-5v2Z"/><path fill="#99D2BD" id="OLF" d="M137 217c4.198 0 8.609 2 10 2 0-1.639-2-2.455-2-3.5l10.5-11.5c9.788-9.788 14.938-17.469 28-24 8.005-4.003 19.645 6 23.5 6 0-2.74-.626-6 3-6 0-1.233-7.258-2.379-8.5-3l-9.5-5c-1.658 0-3-1.461-3-3-11.683 0-18.025 3.263-27.5 8-4.512 2.256-7.947 10-12.5 10l-9 8c3.087 0 2 6.96 2 9 0 2.596-1.899 9.7-4.5 11l-3.5-1 3 3ZM319 217c0-3.02-8.99 2-10 2 0-2.106 3.119-2.262 2-4.5l-17-18-5.5-7.5c-5.501-2.75-10.593-6.296-16-9-8.118-4.059-16.336 5-22.5 5 0-3.132-.436-5-4-5 0-1.951 2.454-.477 3.5-1 2.073-1.036 15.5-6.589 15.5-8 1.238 0 3-.423 3-2 11.421 0 17.239 3.369 26.5 8 4.856 2.428 8.288 10 13.5 10l9 8c-5.663 0-2.593 20 4 20l-2 2ZM227 211c.714 0 2 3.336 2 1 0-7.519-1.151-18.198 2-24.5 1.087-2.175 8-5.346 8-6.5h-8.5l-2-4-3 4H217c0 1.554 6.757 3.014 8 5.5 3.253 6.506 2 16.726 2 24.5Z"/><path fill="#219764" id="AIv2/3" d="M125 188v1c2.377 0 4.396 5.552 7.5 4l10-5 3.5-3-2-6c-1.148 0-10 5.875-10 1h-1c0 1.517-6.113 8-8 8ZM331 188v1c-1.874 0-4.29 5.105-6.5 4l-8-3-6.5-5v-1c1.014 0 2-3.959 2-5 3.027 0 7.036 2 11 2 1.306 0 8 6.272 8 7Z"/><path fill="#54BF94" id="AON" fill-rule="evenodd" d="M266 194c0 1.758 1.961 7.577 1 9.5-1.265 2.529-2 6.01-2 9 0 1.198-.034 6.5 1.5 6.5 3.714 0 12.114-19.272 10.5-22.5-1.107-2.215-8.76-2.5-11-2.5m-79 0c0 2.602-7-.886-7 3 0 3.695.465 7.429 2 10.5l2 5c.505 1.01 4.981 9.038 7 5 1.896-3.792-1-10.415-1-14 0-1.485 1.226-7.548 1-8-.85-1.7-2.422-1.5-4-1.5m4 61c1.993 0 1.35-5.2 2-6.5 2.284-4.568 7.129-12.814 12.5-15.5 3.435-1.718 12.45-6.275 17-4l5.5 3c3.725 0 8.464-5.518 13.5-3 9.946 4.973 23.5 12.728 23.5 26 2.156 0 18-8.665 18-10 0-3.794 22.542-26 26-26 0-2.106 3.119-2.262 2-4.5l-17-18-5.5-7.5c-5.501-2.75-10.593-6.296-16-9-8.118-4.059-16.336 5-22.5 5l-1 1c0 3.276-9.4 25.45-12.5 27-2.364 1.182-5.696-1-7.5-1 0 2.336-1.286-1-2-1 0 3.983-8.802 1.896-10-.5-1.676-3.351-10-21.956-10-24.5-3.855 0-15.495-10.003-23.5-6-13.062 6.531-18.212 14.212-28 24L145 215.5c0 1.045 2 1.861 2 3.5 3.956 0 21.046 17.592 22 19.5.977 1.953 5 3.197 5 6.5 0 1.252 15.052 10 17 10Z"/><path fill="#61D09F" id="TTd" d="M207 186c0 2.544 8.324 21.149 10 24.5 1.198 2.396 10 4.483 10 .5 0-7.774 1.253-17.994-2-24.5-1.243-2.486-8-3.946-8-5.5h-3l-2-1h-2c-3.626 0-3 3.26-3 6Z"/><path fill="#99D2BD" id="OLF" d="m212 180 2 1-2-1Z"/><path fill="#248A5B" id="ORBvl1" d="M217 181h1l-1-1v1ZM239 181h1l-1-1v1Z"/><path fill="#99D2BD" id="OLF" d="M245 180c-1.048 0-3-.473-3 1 1.048 0 3 .473 3-1Z"/><path fill="#61D09F" id="TTd" d="M249 186c0 3.276-9.4 25.45-12.5 27-2.364 1.182-5.696-1-7.5-1 0-7.519-1.151-18.198 2-24.5 1.087-2.175 8-5.346 8-6.5h3c1.048 0 3 .473 3-1h1c3.564 0 4 1.868 4 5l-1 1Z"/><path fill="#209864" id="AIv1" d="M132 199h1l1-1 6-3 9-8c-1.747 0-2-.253-2-2h-1l-3.5 3-10 5c-3.104 1.552-5.123-4-7.5-4l-5 2c0 5.573 7.586 8 12 8Z"/><path fill="#99D2BD" id="OLF" d="m250 185-1 1 1-1Z"/><path fill="#209864" id="AIv1" d="m323 198 2 1c4.283 0 12-2.866 12-8l-6-2c-1.874 0-4.29 5.105-6.5 4l-8-3-6.5-5-2 2 9 8 4 2 1 1h1Z"/><path fill="#CBCBC7" id="aco" d="M187 194c0 2.602-7-.886-7 3 0 3.695.465 7.429 2 10.5l2 5c.505 1.01 4.981 9.038 7 5 1.896-3.792-1-10.415-1-14 0-1.485 1.226-7.548 1-8-.85-1.7-2.422-1.5-4-1.5ZM266 194c0 1.758 1.961 7.577 1 9.5-1.265 2.529-2 6.01-2 9 0 1.198-.034 6.5 1.5 6.5 3.714 0 12.114-19.272 10.5-22.5-1.107-2.215-8.76-2.5-11-2.5Z"/><path fill="#6ACAB9" id="PIR" d="M132 199h1l1-1 6-3c3.087 0 2 6.96 2 9 0 2.596-1.899 9.7-4.5 11l-3.5-1-3-3.5c-1.616-3.232 1-8.676 1-11.5ZM325 200c0 2.848 2.404 15-4 15-6.593 0-9.663-20-4-20l4 2 1 1h1l2 2Z"/><path fill="#99D2BD" id="OLF" d="m321 197 1 1-1-1ZM134 198l-1 1 1-1ZM325 199v1l-2-2 2 1Z"/><path fill="#CAC8C7" id="lot" d="M147 219c3.956 0 21.046 17.592 22 19.5.977 1.953 5 3.197 5 6.5-10.686 0-18.203-13.851-26.5-18-4.537-2.268-10.5-3.897-10.5-10 4.198 0 8.609 2 10 2ZM309 219c-3.458 0-26 22.206-26 26 9.411 0 16.477-12.989 24.5-17 3.037-1.519 9.743-3.986 11.5-7.5V217c0-3.02-8.99 2-10 2Z"/><path fill="#62CF9E" id="TTv" d="M191 255c1.993 0 1.35-5.2 2-6.5 2.284-4.568 7.129-12.814 12.5-15.5 3.435-1.718 12.45-6.275 17-4l5.5 3c3.725 0 8.464-5.518 13.5-3 9.946 4.973 23.5 12.728 23.5 26 0 2.703-14.879 8.31-17.5 7l-6-3c-3.859-1.93-9.13-11.76-11.5-16.5l-1.5-6.5c-1.589 0-2.046 5.593-2.5 6.5-2.279 4.558-6.227 13.863-11.5 16.5l-6 3c-2.429 1.215-17.5-5.72-17.5-7Z"/></svg>