<svg xmlns="http://www.w3.org/2000/svg" viewBox="0 0 456 320"><path fill="#1E9C59" id="MOs1" d="M221 59h1l4-3c0-2.777-3.831-4.162-5-6.5-5.964-11.929-18.411-10.5-29-10.5h-8.5l-5.5 2v6c5.982 0 12.371-4 19-4h1c8.403 0 23 6.028 23 16ZM230 56c2.666 0 2.482 3 5 3 0-3.437 2.973-4.447 4-6.5 4.623-9.246 25.624-11.938 34.5-7.5l4.5 2v-6l-4.5-2c-1.55-.775-24.634-.683-26 0-3.847 1.923-8.497 4.493-10.5 8.5-1.617 3.235-7 5.181-7 8.5Z"/><path fill="#1E9D5A" id="MOp1" d="M123 61v7c2.599 0 14.378-7.439 17.5-9 5.491-2.745 31.946-12 37.5-12v-6c-9.452 0-37.648 11.574-46.5 16l-8.5 4ZM333 61v6l-12.5-6c-6.611-3.306-34.839-14-41.5-14h-1v-6c7.602 0 35.335 10.417 42.5 14 2.305 1.152 10.419 6 12.5 6Z"/><path fill="#1E9D58" id="MOs2/3" d="M215 63h1l5-4c0-9.972-14.597-16-23-16 0 1.186-1 1.186-1 0-6.629 0-13.018 4-19 4 0 4.61-1 10.038-1 16l6.5-4c5.969-2.985 31.5-9.806 31.5 4Z"/><path fill="#1F9C58" id="MOp2/3" d="M197 43h1c0 1.186-1 1.186-1 0Z"/><path fill="#1E9D58" id="MOs2/3" d="m241 62 2.5-3c7.486-7.486 21.168-3.916 29 0l7.5 4c0-4.925-1-10.52-1-16h-1l-4.5-2c-8.876-4.438-29.877-1.746-34.5 7.5-1.027 2.053-4 3.063-4 6.5v1l6 2Z"/><path fill="#1F9C58" id="MOp2/3" d="M123 83c0 1.122-.937 7 0 7 4.729 0 11.267-6.884 15.5-9 5.492-2.746 33.401-17 37.5-17l1-1c0-5.962 1-11.39 1-16-5.554 0-32.009 9.255-37.5 12-3.122 1.561-14.901 9-17.5 9v15ZM334 83v8l-15.5-10c-9.019-4.51-18.969-7.484-28-12-2.349-1.174-8.139-6-10.5-6 0-4.925-1-10.52-1-16 6.661 0 34.889 10.694 41.5 14l12.5 6v1c0 2.969-.449 15 1 15Z"/><path fill="#1F9D58" id="MOs5" d="M201 75c-3.027 0-6.821-3.84-10.5-2-4.486 2.243-10.345 8-15.5 8 0-4.883 1-12.086 1-17l1-1 6.5-4c5.969-2.985 31.5-9.806 31.5 4-5.002 0-8.845 12-14 12ZM256 75c2.647 0 6.175-3.662 9.5-2 4.334 2.167 11.695 9 16.5 9l-2-19-7.5-4c-7.832-3.916-21.514-7.486-29 0l-2.5 3v1c5.466 0 10.391 12 15 12Z"/><path fill="#3EA665" id="ACAd1" d="M222 87h12V66.5c0-1.363-.7-6.5 1-6.5v-1c-2.518 0-2.334-3-5-3l-1.5 3-2.5-3-4 3v28Z"/><path fill="#40A565" id="ACAd2/3" d="m222 87-5 1c0-8.274-1-17.385-1-25l5-4h1v28ZM234 87l5 1V68.5l2-5.5v-1l-6-2c-1.7 0-1 5.137-1 6.5V87Z"/><path fill="#197E64" id="SSp-ul1" d="M105 77h2c0-2.535 12.95-9 16-9v-7c-2.252 0-20 10.018-20 11l2 5ZM350 77h1c0-1.429 1.288-4 3-4 0-1.629-18.664-12-21-12v7c1.936 0 17 7.927 17 9Z"/><path fill="#1E9C5A" id="MOp5" d="m177 63-1 1 1-1Z"/><path fill="#3EA566" id="ACAd5" d="m217 88-14 7V81.5l-2-5.5v-1c5.155 0 8.998-12 14-12h1c0 7.615 1 16.726 1 25ZM239 88l14 7 1-14.5c0-.854 1.157-4.5 2-4.5v-1c-4.609 0-9.534-12-15-12l-2 5.5V88Z"/><path fill="#1E9C5A" id="MOp5" d="M334 101v5c-.483 0-10.054-6.277-11.5-7-8.456-4.228-18.596-5.798-27-10L282 82l-2-19c2.361 0 8.151 4.826 10.5 6 9.031 4.516 18.981 7.49 28 12L334 91v10ZM122 101l1 4 11.5-6c9.846-4.923 21.206-7.103 31-12l8.5-5 1-1c0-4.883 1-12.086 1-17-4.099 0-32.008 14.254-37.5 17-4.233 2.116-10.771 9-15.5 9l-1 2v9Z"/><path fill="#197F61" id="SSp-ul2/3" d="m123 83-10 5c0-3.604-6-6.409-6-11 0-2.535 12.95-9 16-9v15ZM334 83l9 4c2.537 0 7-7.3 7-10 0-1.073-15.064-9-17-9 0 2.969-.449 15 1 15Z"/><path fill="#187E61" id="SSp-m1" d="M64 143h1c0-20.718 12.56-32.619 21-49.5 2.034-4.068 19-15.462 19-16.5l-2-5c-5.145 0-13.234 9.734-17 13.5-12.94 12.94-26 37.452-26 55.5l4 2Z"/><path fill="#1D9C5A" id="MOs6a" d="M173 103h2c0-1.995 4.377-2 6-2 0-1.663 5.407-2 7-2h1c0-3.615 8.732-23 12-23v-1c-3.027 0-6.821-3.84-10.5-2-4.486 2.243-10.345 8-15.5 8l-1 1-1 21ZM268 99c5.505 0 9.992 4 15 4 0-7.15-1-14.403-1-21-4.805 0-12.166-6.833-16.5-9-3.325-1.662-6.853 2-9.5 2v1c0 2.764 12 16.316 12 23Z"/><path fill="#187E61" id="SSp-m1" d="m397 141-5 2c0-13.504-15.056-48.278-26.5-54L351 77c0-1.429 1.288-4 3-4 5.475 0 9.661 8.08 13.5 10 12.325 6.162 29.5 42.426 29.5 58Z"/><path fill="#3FA664" id="ACAd6a" d="m189 99 5 5c3.398 0 5.13-7 9-7V81.5l-2-5.5c-3.268 0-12 19.385-12 23ZM268 99c-2.684 0-4.535 5-6 5 0-1.133-7.85-8-9-8v-1l1-14.5c0-.854 1.157-4.5 2-4.5 0 2.764 12 16.316 12 23Z"/><path fill="#1A7E64" id="SSp-m2/3" d="m65 143 9 3c0-11.449 16.075-44.788 26.5-50 3.782-1.891 8.168-8 12.5-8 0-3.604-6-6.409-6-11h-2c0 1.038-16.966 12.432-19 16.5-8.44 16.881-21 28.782-21 49.5ZM392 143l-9 3c0-11.686-14.567-38.067-23-46.5-4.066-4.066-11.452-11.5-17-11.5v-1c2.537 0 7-7.3 7-10h1l14.5 12c11.444 5.722 26.5 40.496 26.5 54Z"/><path fill="#1F9D58" id="MOs5" d="m175 81-1 1 1-1Z"/><path fill="#1F9B5A" id="MOp6a" d="M151 113c-4.774 0-23.703 16-25 16-1.684 0-1-4.679-1-6 0-4.708-3-11.052-3-16l1-1v-1l11.5-6c9.846-4.923 21.206-7.103 31-12l8.5-5-1 21-16.5 8c-1.319.659-5.5-.334-5.5 2ZM334 106c0 8.674-3 13.933-3 23-3.174 0-6.797-6.148-10.5-8-5.616-2.808-33.21-18-37.5-18 0-7.15-1-14.403-1-21l13.5 7c8.404 4.202 18.544 5.772 27 10 1.446.723 11.017 7 11.5 7Z"/><path fill="#1A7F63" id="SSp-ul4" d="m122 92-5 2-4-6 10-5c0 1.122-.937 7 0 7l-1 2ZM334 91l5 3c1.617 0 4-4.583 4-6v-1l-9-4v8Z"/><path fill="#3FA566" id="ACAv2/3" d="m220 125-2 1-1-38 5-1 1 32-1 2-2 4Z"/><path fill="#40A664" id="ACAv1" d="m229 116 5 5V87h-12l1 32 4-3c0-1.919 2-2.488 2 0Z"/><path fill="#3FA566" id="ACAv2/3" d="m236 125 2 1c0-11.939 1-25.399 1-38l-5-1v34l2 4Z"/><path fill="#1B7F62" id="SSp-m4" d="m74 146 7 2c0-8.912 15.282-38.891 23.5-43 3.992-1.996 7.918-10 12.5-10v-1l-4-6c-4.332 0-8.718 6.109-12.5 8-10.425 5.212-26.5 38.551-26.5 50Z"/><path fill="#3EA666" id="ACAv5" d="M215 126h3l-1-38-14 7v2c2.35 0 .217 7.934 1 9.5 1.79 3.58 5 12.652 5 16.5l2 2h1l2 1h1ZM241 126h2l1-1h1l2-1v-1l1-1c0-6.292 5-16.215 5-26v-1l-14-7c0 12.601-1 26.061-1 38h3Z"/><path fill="#1B7F62" id="SSp-m4" d="m383 146-8 2c0-11.684-15.939-40.22-25.5-45-2.852-1.426-6.215-8-10.5-8v-1c1.617 0 4-4.583 4-6 5.548 0 12.934 7.434 17 11.5 8.433 8.433 23 34.814 23 46.5Z"/><path fill="#187E62" id="SSp-ul5" d="m339 95-5 6V91l5 3v1ZM117 95l5 6v-9l-5 2v1Z"/><path fill="#1B7E63" id="SSp-m5" d="m92 165-9 1c0-1.174.494-14-2-14v-1c1.186 0 1.186-1 0-1v-2c0-8.912 15.282-38.891 23.5-43 3.992-1.996 7.918-10 12.5-10l5 6 1 4-1 1v1c-5.037 0-12.762 7.024-15 11.5-1.005 2.01-4.646 4.293-6 7-6.018 12.036-9 24.966-9 39.5ZM364 165l9 1c1.177 0 1-8.935 1-10.5 0-1.19-.614-4.5 1-4.5v-3c0-11.684-15.939-40.22-25.5-45-2.852-1.426-6.215-8-10.5-8l-5 6v5c4.419 0 10.764 7.264 14 10.5 12.983 12.983 16 30.079 16 48.5Z"/><path fill="#40A564" id="ACAv6a" d="m251 121-3 1c0-6.292 5-16.215 5-26 1.15 0 9 6.867 9 8v1l-3 6c-1.876 0-7 5.652-7 8l-1 2ZM206 121l3 2c0-3.848-3.21-12.92-5-16.5-.783-1.566 1.35-9.5-1-9.5-3.87 0-5.602 7-9 7v1l11 14 1 2Z"/><path fill="#1E9C58" id="MOs6b" d="m188 100-7 1c0-1.663 5.407-2 7-2v1Z"/><path fill="#3FA466" id="ACAd6b" d="M193 105h1v-1l-5-5h-1v1c0 1.194 5 2.235 5 5ZM262 105h1l5-5v-1c-2.684 0-4.535 5-6 5v1Z"/><path fill="#1E9C58" id="MOs6b" d="M283 103v1c-5.238 0-9.572-4-15-4v-1c5.505 0 9.992 4 15 4Z"/><path fill="#CACCC7" id="cing" d="M204 121h2l-1-2c-3.434 0-12-10.91-12-14 0-2.765-5-3.806-5-5l-7 1c0 1.995-4.377 2-6 2l-1 1-13 7h4c0-1.473 1.952-1 3-1 4.542 0 10.374-5 17-5 2.752 0 9 3.763 9 7l7 7 2 2h1ZM252 121h1l1-1 2-1 1-1 7-7 1-2c0-2.556 4.016-4 6-4 6.198 0 10.682 4 16 4l1 1h1l6 1c0-3.187-12-4.195-12-7-5.238 0-9.572-4-15-4l-5 5c0 1.417-2.383 6-4 6 0 1.852-4.927 8-7 8l-1 2h1Z"/><path fill="#1E9C58" id="MOs6b" d="M181 101c-1.623 0-6 .005-6 2 1.623 0 6-.005 6-2Z"/><path fill="#1D9D5A" id="MOp6b" d="m161 111-10 2c0-2.334 4.181-1.341 5.5-2l16.5-8 1 1-13 7Z"/><path fill="#1E9C58" id="MOs6b" d="m175 103-1 1-1-1h2Z"/><path fill="#1D9D5A" id="MOp6b" d="M331 131v1l-7.5-7c-9.047-4.523-17.704-14-28.5-14 0-3.187-12-4.195-12-7v-1c4.29 0 31.884 15.192 37.5 18 3.703 1.852 7.326 8 10.5 8v2Z"/><path fill="#1E9C5A" id="MOp5" d="M122 106h1v-1l-1 1Z"/><path fill="#CCC7C9" id="ccg" d="M344 171h2v-6c-1.473 0-1-1.952-1-3v-3c-1.632 0-3.212-9.924-4-11.5-2.919-5.837-15.154-19.827-20.5-22.5l-24-12c-1.542-.771-7.5-.465-7.5-3h-1l-1-1c-5.318 0-9.802-4-16-4 0 1.617-4.583 4-6 4l-1 2-7 7-1 1-2 1-1 1h-1c0 1.803-3.592 3-5 3l-2 1h-1l-1 1h-2c0 1.684-4.679 1-6 1-1.549 0-3.551 1-4.5 1l-2-3-2 3-5.5-1c-1.321 0-6 .684-6-1h-1l-2-1h-1c-1.243 0-7-3.006-7-4h-1l-2-2-7-7-9-7c-6.626 0-12.458 5-17 5 0 1.473-1.952 1-3 1 0 1.722-5.235 2.368-6.5 3-6.229 3.114-12.731 5.865-19 9-6.582 3.291-11.735 9.735-17.5 15.5l-5 6.5c0 1.238-.423 3-2 3 0 1.424-.362 5-2 5v1c0 1.593-.337 7-2 7v10h2c0-16.441 8.005-34.252 23.5-42 5.502-2.751 14.706-3.853 19-6 3.676-1.838 16.386-4.307 21-2 2.442 1.221 5.64.82 8 2l5.5 5c2.186 0 20 10.791 20 13 1.807 0 9.933 7 15 7h1c0-5.875 4.899 1.3 7.5 0 2.719-1.36 9.679-6 12.5-6l1-1c0-1.747.253-2 2-2 0-1.817 13.817-10 16-10l2-1c0-7.199 27.387-8.557 32.5-6l17 5c16.443 8.222 27.5 26.108 27.5 44Z"/><path fill="#C9C7C9" id="ccb" d="M185 105c2.752 0 9 3.763 9 7l-9-7Z"/><path fill="#40A465" id="ACAv6b" d="m194 105 11 14c-3.434 0-12-10.91-12-14h1ZM263 105c0 1.417-2.383 6-4 6l3-6h1Z"/><path fill="#C9C7C9" id="ccb" d="M271 105c-1.984 0-6 1.444-6 4 1.417 0 6-2.383 6-4Z"/><path fill="#187D61" id="SSp-m6a" d="m123 106-1 1v-1h1ZM348 162c5.043 0 10.535 3 16 3 0-18.421-3.017-35.517-16-48.5-3.236-3.236-9.581-10.5-14-10.5 0 8.674-3 13.933-3 23v2c6.716 0 16 23.87 16 31h1ZM109 162c-5.652 0-10.961 3-17 3 0-14.534 2.982-27.464 9-39.5 1.354-2.707 4.995-4.99 6-7 2.238-4.476 9.963-11.5 15-11.5 0 4.948 3 11.292 3 16 0 1.321-.684 6 1 6v1c-6.697 0-17 26.43-17 32Z"/><path fill="#C9C7C9" id="ccb" d="m265 109-1 2 1-2Z"/><path fill="#C9C9CA" id="scwm" d="m287 109 1 1-1-1ZM168 110c-1.048 0-3-.473-3 1 1.048 0 3 .473 3-1ZM331 132l5 5.5c3.436 6.872 9 13.242 9 21.5-1.632 0-3.212-9.924-4-11.5-2.919-5.837-15.154-19.827-20.5-22.5l-24-12c-1.542-.771-7.5-.465-7.5-3l6 1c10.796 0 19.453 9.477 28.5 14l7.5 7ZM126 131c0 2.877-9 8.59-9 14l5-6.5c5.765-5.765 10.918-12.209 17.5-15.5 6.269-3.135 12.771-5.886 19-9 1.265-.632 6.5-1.278 6.5-3h-4l-10 2c0 1.415-17.167 11.833-19.5 13l-5.5 5Z"/><path fill="#40A465" id="ACAv6b" d="M259 111c-1.876 0-7 5.652-7 8 2.073 0 7-6.148 7-8Z"/><path fill="#1D9D5A" id="MOp6b" d="M126 130v1l5.5-5c2.333-1.167 19.5-11.585 19.5-13-4.774 0-23.703 16-25 16v1Z"/><path fill="#7ED04B" id="IG" d="m221 127 5.5 1 2-3 2 3c.949 0 2.951-1 4.5-1l1-2-2-4-5-5c0 2.488-2 1.919-2 0l-4 3-1 2-2 4 1 2Z"/><path fill="#C9C7C9" id="ccb" d="m257 118-1 1 1-1ZM201 119l2 2-2-2Z"/><path fill="#40A664" id="ACAv1" d="m223 119-1 2 1-2Z"/><path fill="#C9C7C9" id="ccb" d="m254 120-1 1 1-1Z"/><path fill="#98D5F9" id="CP" d="m129 227 9 7c8.665 0 22.203 4.095 27-5.5 7.054-14.107 6.083-19.792 21.5-27.5 1.619-.809 1.471-2 3.5-2l1-1v-1l1-1c0-1.517 1.036-13 2-13v-6c0-1.048-.473-3 1-3v-5l1-1v-1c0-1.048-.473-3 1-3v-21.5l-4-9.5-3-5-5.5-5c-2.36-1.18-5.558-.779-8-2-4.614-2.307-17.324.162-21 2-4.294 2.147-13.498 3.249-19 6-15.495 7.748-23.5 25.559-23.5 42 0 13.186 7 23.196 7 36l1 4v2l2 3v2l1 1 1 2 1 1 1 2 2 2v1Z"/><path fill="#C9C7C9" id="ccb" d="m209 123 2 2c-1.243 0-7-3.006-7-4h2l3 2ZM247 123v1c1.408 0 5-1.197 5-3h-1l-3 1-1 1Z"/><path fill="#98D5F9" id="CP" d="M321 233c-1.048 0-3-.473-3 1-11.02 0-14.146 2.177-24.5-3-7.047-3.523-5.842-21.421-19-28-2.139-1.07-5.078-4-7.5-4l-2-2-2-10v-8l-1-2v-3l-1-2v-4l-1-2v-1c0-4.935-3.561-15.378-1-20.5 1.504-3.009 4-8.065 4-11.5 2.109 0 2-2.535 2-4l2-1c0-7.199 27.387-8.557 32.5-6l17 5c16.443 8.222 27.5 26.108 27.5 44 0 12.351-7 22.428-7 35l-2 7v1l-1 1-2 5-1 1v1l-1 1-1 1-1 2-1 1-2 2-1 1-1 1-1 1-1 1Z"/><path fill="#40A564" id="ACAv6a" d="m248 122-1 1 1-1Z"/><path fill="#C9C7C9" id="ccb" d="m247 124-2 1 2-1ZM212 125l2 1-2-1ZM215 126h3l2-1 1 2c-1.321 0-6 .684-6-1ZM241 126c0 1.684-4.679 1-6 1l1-2 2 1h3ZM244 125l-1 1 1-1Z"/><path fill="#AAA8A9" id="SEZ" d="M210 141v1l-3.5-3c-1.597-.799-13.5-8.14-13.5-6l-3-5c2.186 0 20 10.791 20 13ZM267 128l-2 1 2-1ZM263 133c0-.882-2.468-.516-3.5 0-3.379 1.69-6.514 6-10.5 6 0-1.817 13.817-10 16-10 0 1.465.109 4-2 4Z"/><path fill="#188064" id="SSp-m6b" d="M109 162h2v-1c0-1.593.337-7 2-7v-1c0-1.424.362-5 2-5 0-1.238.423-3 2-3 0-5.41 9-11.123 9-14v-1c-6.697 0-17 26.43-17 32ZM346 162h1c0-7.13-9.284-31-16-31v1l5 5.5c3.436 6.872 9 13.242 9 21.5v3h1Z"/><path fill="#A8AAAA" id="VL" d="M197 164h1v-1l1-1c0-7.277 11-11.698 11-20l-3.5-3c-1.597-.799-13.5-8.14-13.5-6l4 9.5V164ZM259 165h1c0-4.935-3.561-15.378-1-20.5 1.504-3.009 4-8.065 4-11.5 0-.882-2.468-.516-3.5 0-3.379 1.69-6.514 6-10.5 6l-2 2-1 1c0 8.318 13 15.933 13 22v1Z"/><path fill="#AAA8A9" id="SEZ" d="M249 139c-1.747 0-2 .253-2 2l2-2Z"/><path fill="#1A7E62" id="SSs1" d="m65 172-4 1-3-10.5c-3.043-6.085 2-16.185 2-21.5l4 2c0 6.685-3.202 16.096 0 22.5.62 1.238-1.144 5.5 1 5.5v1Z"/><path fill="#97D6F9" id="STR" d="m231 184-2.5-5-3.5 7c0-5.797 3.899-17.702 1-23.5-1.161-2.322-4.162-4.324-5-6-.72-1.441-5.25-2.625-7.5-1.5l-11 4-3.5 3c0-7.277 11-11.698 11-20v-1c1.807 0 9.933 7 15 7 0 1.448-3.736 5.027-2 8.5 4.439 8.878 3-7.662 3-8.5 0-5.875 4.899 1.3 7.5 0 2.719-1.36 9.679-6 12.5-6 0 8.318 13 15.933 13 22l-2.5-3c-4.331-2.166-8.744-3.872-13-6-5.324-2.662-8.043 4-11.5 4-1.85 0-4.743-8.878-2.5-10 2.444-1.222 5.649 2.203 4.5 4.5l-2 5.5-2 5.5 1 19.5Z"/><path fill="#AAA8A9" id="SEZ" d="m247 141-1 1 1-1Z"/><path fill="#1A7E62" id="SSs1" d="m392 172 4 1c0-3.415 1.487-9.473 3-12.5 2.64-5.281-2-14.276-2-19.5l-5 2v29Z"/><path fill="#1B8063" id="SSs2/3" d="M73 169c-2.522 0-4.909 2-8 2-2.144 0-.38-4.262-1-5.5-3.202-6.404 0-15.815 0-22.5h1l9 3c0 6.965-1 15.381-1 23ZM384 169c2.338 0 4.862 2 8 2v-28l-9 3 1 23Z"/><path fill="#C9C9CA" id="scwm" d="M117 145c-1.577 0-2 1.762-2 3 1.577 0 2-1.762 2-3Z"/><path fill="#187C63" id="SSs4" d="m79 167-6 2c0-7.619 1-16.035 1-23l7 2v4c-1.975 0-2 12.624-2 15ZM378 167l6 2-1-23-8 2v3c1.951 0 .477 2.454 1 3.5 1.307 2.614 2 9.695 2 12.5Z"/><path fill="#C9C9CA" id="scwm" d="M115 148c-1.638 0-2 3.576-2 5 1.638 0 2-3.576 2-5Z"/><path fill="#8FCAED" id="SH" d="M225 148h1c0 .838 1.439 17.378-3 8.5-1.736-3.473 2-7.052 2-8.5ZM232 159l2-5.5c1.149-2.297-2.056-5.722-4.5-4.5-2.243 1.122.65 10 2.5 10Z"/><path fill="#1C8063" id="SSs5" d="M81 150c1.186 0 1.186 1 0 1v-1ZM373 166c0 1.643 3.765 1 5 1 0-2.805-.693-9.886-2-12.5-.523-1.046.951-3.5-1-3.5-1.614 0-1 3.31-1 4.5 0 1.565.177 10.5-1 10.5ZM83 166c0 1.579-2.855 1-4 1 0-2.376.025-15 2-15 2.494 0 2 12.826 2 14Z"/><path fill="#C9C9CA" id="scwm" d="M113 154c-1.663 0-2 5.407-2 7 1.663 0 2-5.407 2-7Z"/><path fill="#90CAED" id="LSr" d="M209 208c0 3.743 5.409 11.546 10.5 9l1.5-3c0-9.807 4-18.032 4-28 0-5.797 3.899-17.702 1-23.5-1.161-2.322-4.162-4.324-5-6-.72-1.441-5.25-2.625-7.5-1.5l-11 4-3.5 3-1 1v1l-1 1-1 2v1l-1 1v7c6.903 0 14.141 14.781 17 20.5 1.461 2.922.156 11.5-3 11.5ZM235 213l2.5 4c4.196 2.098 5.583-4 8.5-4 0-1.048-.473-3 1-3v-2c-2.862 0-4.143-8.214-3-10.5 2.144-4.287 10.158-19.329 14.5-21.5l3.5 1v-3l-1-2v-4l-1-2-1-1v-1l-2.5-3c-4.331-2.166-8.744-3.872-13-6-5.324-2.662-8.043 4-11.5 4l-2 5.5 1 19.5c0 10.183 4 18.706 4 29Z"/><path fill="#009B74" id="GU6a" d="M109 177c-5.678 0-10.729 5-16 5 0-5.22-1-11.211-1-17 6.039 0 11.348-3 17-3v15Z"/><path fill="#019C74" id="GU6b" d="M109 176h2v-14h-2v14Z"/><path fill="#97D6F9" id="STR" d="m199 162-1 1 1-1Z"/><path fill="#C9C9CA" id="scwm" d="M346 162v3c-1.473 0-1-1.952-1-3h1Z"/><path fill="#019C74" id="GU6b" d="m345 175 2 1c0-4.121 1-9.275 1-14h-2v9l-1 4Z"/><path fill="#009B74" id="GU6a" d="M347 177c6.748 0 11.055 5 17 5v-17c-5.465 0-10.957-3-16-3 0 4.725-1 9.879-1 14v1Z"/><path fill="#A8AAAA" id="VL" d="m197 165-1 2c0-1.048-.473-3 1-3v1Z"/><path fill="#97D6F9" id="STR" d="m198 164-1 1v-1h1Z"/><path fill="#019C75" id="GU5" d="M93 182c-5.103 0-9.626 5-14 5v-20c1.145 0 4 .579 4-1l9-1c0 5.789 1 11.78 1 17Z"/><path fill="#97D6F9" id="STR" d="M260 165v1l-1-1h1Z"/><path fill="#019C75" id="GU5" d="m364 182 13 5c0-5.998 1-13.358 1-20-1.235 0-5 .643-5-1l-9-1v17Z"/><path fill="#A8AAAA" id="VL" d="m260 166 1 2-1-2Z"/><path fill="#009C74" id="GU4" d="M77 188h2v-21l-6 2c0 7.022 4 12.994 4 19ZM377 187l2 1c1.59 0 1.443-4.386 2-5.5 1.65-3.3 3-9.753 3-13.5l-6-2c0 6.642-1 14.002-1 20Z"/><path fill="#A8AAAA" id="VL" d="m196 168-1 1 1-1Z"/><path fill="#009B75" id="GU2/3" d="M77 188c0 1.629-6.17 3-8 3 0-6.546-4-12.039-4-19v-1c3.091 0 5.478-2 8-2 0 7.022 4 12.994 4 19ZM387 191v1l-8-4c1.59 0 1.443-4.386 2-5.5 1.65-3.3 3-9.753 3-13.5 2.338 0 4.862 2 8 2v1c0 6.266-5 13.121-5 19Z"/><path fill="#C8CBCC" id="ec" d="m118 205 2 2c0-12.804-7-22.814-7-36h-2v5l2 11v2l1 2v1l1 2v2c1.686 0 3 7.542 3 9ZM338 205l-1 1c0-12.572 7-22.649 7-35h2l-1 4c0 4.99-2 8.551-2 13v3l-1 2v1l-1 1v2c-.951 0-3 6.869-3 8Z"/><path fill="#009C75" id="GU1" d="m69 191-3 2-5-20 4-1c0 6.961 4 12.454 4 19Z"/><path fill="#A8AAAA" id="VL" d="m261 172 1 2-1-2Z"/><path fill="#009C75" id="GU1" d="m387 191 3 2c1.951 0 .477-2.454 1-3.5 1.999-3.997 5-12.022 5-16.5l-4-1c0 6.266-5 13.121-5 19Z"/><path fill="#A8AAAA" id="VL" d="m195 176-1 1c0-1.048-.473-3 1-3v2Z"/><path fill="#1F9766" id="AId6b" d="M343 188h1l1-2 2-9v-1l-2-1c0 4.99-2 8.551-2 13ZM112 187h1l-2-11h-2v1c0 2.84 2 5.676 2 9l1 1Z"/><path fill="#8FCBED" id="LSv" d="m206 206 3 2c3.156 0 4.461-8.578 3-11.5-2.859-5.719-10.097-20.5-17-20.5l-1 1v6l1 12 2 1 7 7 1 1 1 2ZM249 207l-2 1c-2.862 0-4.143-8.214-3-10.5 2.144-4.287 10.158-19.329 14.5-21.5l3.5 1 1 2v8c-.853 0-2 6.031-2 7l-1 2c-2.382 0-9 6.81-9 9l-1 1-1 1Z"/><path fill="#209666" id="AId6a" d="M98 201h1c1.321 0 6 .684 6-1 0-7.346-2.777-14 6-14 0-3.324-2-6.16-2-9-5.678 0-10.729 5-16 5 0 7.348 5 13.421 5 19Z"/><path fill="#A8AAAA" id="VL" d="m262 177 1 2-1-2Z"/><path fill="#209666" id="AId6a" d="M357 201h1c0-3.898 6-12.733 6-19-5.945 0-10.252-5-17-5l-2 9c10.719 0 6 7.366 6 15h6Z"/><path fill="#96A7D3" id="MS" d="M221 228c5.582 0 9.696 1 15 1l-1-16c0-10.294-4-18.817-4-29l-2.5-5-3.5 7c0 9.968-4 18.193-4 28v14Z"/><path fill="#209665" id="AId5" d="M85 203h1c3.395 0 7.94-2 12-2 0-5.579-5-11.652-5-19-5.103 0-9.626 5-14 5v1c0 5.435 6 10.093 6 15ZM358 201c4.794 0 8.521 2 13 2 0-3.499 6-10.039 6-16l-13-5c0 6.267-6 15.102-6 19Z"/><path fill="#A8AAAA" id="VL" d="M191 198v1c0 10.5 3 4.78 3-2l1-1v-1l-1-12c-.964 0-2 11.483-2 13l-1 1v1Z"/><path fill="#8ADA86" id="CLA" d="M115 196c0 5.643 2.212 7.144-3.5 10l-2 1c-2.114-1.057-3.346-7-4.5-7 0-7.346-2.777-14 6-14l1 1 1 1v1l1 2v1l1 2v2ZM341 197c0 14.514 10 10.102 10 4 0-7.634 4.719-15-6-15l-1 2-1 1v2l-1 2v1l-1 1v2Z"/><path fill="#209666" id="AId6a" d="M113 187v1l-1-1h1Z"/><path fill="#A8AAAA" id="VL" d="M265 197v2c0 14.041-3 4.119-3-2 0-1.048.473-3-1-3 0-.969 1.147-7 2-7l2 10Z"/><path fill="#209765" id="AId2/3" d="m371 203 10 3 6-13v-1l-8-4-2-1c0 5.961-6 12.501-6 16ZM85 203l-10 3-6-15c1.83 0 8-1.371 8-3h2c0 5.435 6 10.093 6 15Z"/><path fill="#209666" id="AId6a" d="m344 188-1 1v-1h1ZM113 189l1 2-1-2Z"/><path fill="#209764" id="AId1" d="m75 206-5 1c-1.903 0-4-11.889-4-14l3-2 6 15Z"/><path fill="#209666" id="AId6a" d="m343 191-1 2 1-2Z"/><path fill="#209764" id="AId1" d="m381 206 6 1c0-4.483 3-8.837 3-14l-3-2v1c1.186 0 1.186 1 0 1l-6 13Z"/><path fill="#209666" id="AId6a" d="m114 192 1 2-1-2Z"/><path fill="#009C75" id="GU1" d="M387 192c1.186 0 1.186 1 0 1v-1Z"/><path fill="#97D6F9" id="STR" d="m260 196 2 1c0-1.048.473-3-1-3l-1 2Z"/><path fill="#209666" id="AId6a" d="m342 194-1 1 1-1Z"/><path fill="#97D6F9" id="STR" d="M195 196h2l-2-1v1Z"/><path fill="#1F9866" id="AIv6a" d="m109 210-6 1-4-10c1.321 0 6 .684 6-1 1.154 0 2.386 5.943 4.5 7l2-1c5.712-2.856 3.5-4.357 3.5-10 1.686 0 3 7.542 3 9l-2 2h-1l-2 1h-1l-1 1-2 1Z"/><path fill="#97D6F9" id="STR" d="m192 196-1 1 1-1ZM195 196l-1 1 1-1Z"/><path fill="#80CDF8" id="ACB" fill-rule="evenodd" d="M182 209c0 .669-6.143 6.785-7 8.5-1.31 2.621 3.879 7.81 6.5 6.5 5.544-2.772 11.715-15 .5-15m26 28-7.5 10c-6.064 3.032-11.563 13.281-21 18-3.532 1.766-29.166-.583-32-2-2.97-1.485-7.5-7.291-7.5-10 0-5.511-4-11.313-4-17l2-2c8.665 0 22.203 4.095 27-5.5 7.054-14.107 6.083-19.792 21.5-27.5 1.619-.809 1.471-2 3.5-2h1c0 10.5 3 4.78 3-2l1-1h2l7 7 1 1 1 2 6 11.5c2.806 5.612-4 14.585-4 19.5ZM271 209c0 1.639-3 4.58-3 6.5 0 12.639 22.407 9.407 8.5-4.5-1.977-1.977-2.787-2-5.5-2m-23 28 7.5 9c7.95 7.95 12.4 14.2 22 19 3.572 1.786 28.144-.572 31-2 2.446-1.223 7.604-10 8.5-10 0-6.518 3-11.377 3-18l-2-1c-11.02 0-14.146 2.177-24.5-3-7.047-3.523-5.842-21.421-19-28-2.139-1.07-5.078-4-7.5-4h-2c0 14.041-3 4.119-3-2l-2-1c-2.382 0-9 6.81-9 9l-1 1-1 1c0 1.238-.423 3-2 3 0 1.048.473 3-1 3 0 3.476-2.923 10.654-1 14.5l3 9.5Z"/><path fill="#97D6F9" id="STR" d="M265 199h2l-2-2v2Z"/><path fill="#1F9866" id="AIv6a" d="m346 209 7 2c0-3.396 4-6.052 4-10h-6c0 6.102-10 10.514-10-4-.951 0-3 6.869-3 8l2 2h2l1 1h1l1 1h1Z"/><path fill="#97D6F9" id="STR" d="M190 199h1v-1l-1 1Z"/><path fill="#1F9865" id="AIv5" d="m99 213-6 1c0-5.629-7-6.211-7-11 3.395 0 7.94-2 12-2h1l4 10-4 2ZM357 213l6 1c0-4.72 8-7.101 8-11-4.479 0-8.206-2-13-2h-1c0 3.948-4 6.604-4 10l4 2Z"/><path fill="#219764" id="AIv2/3" d="M93 214c-4.091 0-7.606 3-12 3l-6-11 10-3h1c0 4.789 7 5.371 7 11Z"/><path fill="#97D6F9" id="STR" d="m204 203 1 1-1-1Z"/><path fill="#219764" id="AIv2/3" d="M363 214c4.522 0 8.202 3 13 3l5-11-10-3c0 3.899-8 6.28-8 11Z"/><path fill="#8AD987" id="CTXsp" d="m120 207 1 4c-2.25 0-2.259-4-5-4l2-2 2 2Z"/><path fill="#97D6F9" id="STR" d="m251 205-1 1 1-1Z"/><path fill="#8AD987" id="CTXsp" d="m340 207-5 6 2-7 1-1 2 2Z"/><path fill="#209864" id="AIv1" d="m81 217-6 2c0-3.831-5-7.365-5-12l5-1 6 11Z"/><path fill="#97D6F9" id="STR" d="M205 256h5c6.085 0 10-20.949 10-26l1-1v-15l-1.5 3c-5.091 2.546-10.5-5.257-10.5-9l-3-2 6 11.5c2.806 5.612-4 14.585-4 19.5 0 6.664-3 12.72-3 19Z"/><path fill="#209864" id="AIv1" d="m376 217 6 2 5-12-6-1-5 11Z"/><path fill="#8AD987" id="CTXsp" d="m115 207-2 1 2-1Z"/><path fill="#A0EE9C" id="EPd" d="M121 231h2c2.518 0 4.286-2 6-2v-3l-2-2-1-2-1-1-1-2-1-1v-2c-1.577 0-2-1.762-2-3v-2c-2.25 0-2.259-4-5-4h-1l-2 1h-1l-1 1-2 1c0 2.926-3.9 6.701-2 10.5l7 6.5h1l2 2h1l1 1h1l1 1Z"/><path fill="#97D6F9" id="STR" d="M247 208v2c1.577 0 2-1.762 2-3l-2 1Z"/><path fill="#A0EE9C" id="EPd" d="M333 231h2l1-1h1l1-1h1l2-1 1-1h1l1-1 1-1h1l1-1 1-1 1-1v-1l1-5.5-4-6.5h-1l-1-1h-1l-1-1h-2l-5 6v1l-1 1-2 5-1 1v1l-1 1-1 1-1 2v3c0 2.461 3.378 2 5 2Z"/><path fill="#8AD987" id="CTXsp" d="m342 207 1 1-1-1ZM112 208l-1 1 1-1ZM344 208l1 1-1-1Z"/><path fill="#99D2BD" id="OLF" d="m111 209-2 1 2-1Z"/><path fill="#CBCBC7" id="aco" d="M182 209c0 .669-6.143 6.785-7 8.5-1.31 2.621 3.879 7.81 6.5 6.5 5.544-2.772 11.715-15 .5-15ZM271 209c0 1.639-3 4.58-3 6.5 0 12.639 22.407 9.407 8.5-4.5-1.977-1.977-2.787-2-5.5-2Z"/><path fill="#99D2BD" id="OLF" d="m357 213-4 2.5c-.606 1.212-2.24 5.5-4 5.5l1-5.5-4-6.5 7 2 4 2ZM99 213l4.5 3c2.74 2.74 5.469 11 10.5 11l-7-6.5c-1.9-3.799 2-7.574 2-10.5l-6 1-4 2Z"/><path fill="#97D6F9" id="STR" d="M247 210c-1.473 0-1 1.952-1 3 1.473 0 1-1.952 1-3Z"/><path fill="#6ACAB9" id="PIR" d="M122 261h1l8-4 1-1c0-3.535 5.376-7.747 3-12.5-1.278-2.556-3.457-6.979-6.5-8.5l-5.5-4h-2l-1-1h-1l-1-1h-1l-2-2h-1c-5.031 0-7.76-8.26-10.5-11l-4.5-3-6 1c-4.091 0-7.606 3-12 3l-6 2c0 11.427 12.27 21.385 21.5 26 1.925.962 1.665 4 4.5 4l.5-2c2.026 0 20.5 11.851 20.5 14Z"/><path fill="#8AD987" id="CTXsp" d="m121 213 2 3c-1.577 0-2-1.762-2-3Z"/><path fill="#97D6F9" id="STR" d="M246 256h5l-3-19-3-9.5c-1.923-3.846 1-11.024 1-14.5-2.917 0-4.304 6.098-8.5 4l-2.5-4 1 16c0 4.833 4.522 27 10 27Z"/><path fill="#6ACAB9" id="PIR" d="m335 260-2 1-9-5c0-3.267-5.082-7.336-3-11.5l6.5-9.5c1.212-.606 5.5-2.24 5.5-4h2l1-1h1l1-1h1l2-1 1-1h1l1-1 1-1h1l1-1 1-1 1-1v-1c1.76 0 3.394-4.288 4-5.5l4-2.5 6 1c4.522 0 8.202 3 13 3l6 2c0 9.749-12.406 20.953-20.5 25l-5.5 5c0-4.586-21 9.258-21 11Z"/><path fill="#8AD987" id="CTXsp" d="m335 214-1 1 1-1ZM123 218l1 1-1-1ZM332 220l-1 1 1-1ZM125 221l1 1-1-1ZM331 222l-1 1 1-1Z"/><path fill="#99D2BD" id="OLF" d="m349 222-1 1 1-1Z"/><path fill="#8AD987" id="CTXsp" d="m330 223-1 1 1-1ZM127 224l2 2-2-2Z"/><path fill="#99D2BD" id="OLF" d="m347 224-1 1 1-1ZM345 225l-1 1 1-1Z"/><path fill="#97D6F9" id="STR" d="M327 227h1v-1l-1 1Z"/><path fill="#99D2BD" id="OLF" d="m344 226-1 1 1-1ZM115 227l2 2-2-2Z"/><path fill="#97D6F9" id="STR" d="m138 234-2 2c0-2.571-4.429-7-7-7v-2l9 7ZM325 229h2v-2l-2 2Z"/><path fill="#8AD987" id="CTXsp" d="M327 229h1v-2h-1v2Z"/><path fill="#99D2BD" id="OLF" d="m342 227-1 1 1-1Z"/><path fill="#96A6D3" id="NDB" d="M225 263c-1.901 0-12 6.067-12 8l-5 1c-12.385 0 2-14.006 2-16 6.085 0 10-20.949 10-26l1-1v-1c5.582 0 9.696 1 15 1 0 4.833 4.522 27 10 27l7 8.5c1.759 3.519-2.465 9.518-6.5 7.5-2.33-1.165-16.923-12-17.5-12 0-2.092-2-.652-2 1-1.747 0-2 .253-2 2Z"/><path fill="#99D2BD" id="OLF" d="m341 228-2 1 2-1ZM118 229l1 1-1-1ZM132 256h2l6-3c0-5.511-4-11.313-4-17 0-2.571-4.429-7-7-7-1.714 0-3.482 2-6 2l5.5 4c3.043 1.521 5.222 5.944 6.5 8.5 2.376 4.753-3 8.965-3 12.5Z"/><path fill="#96A7D3" id="MS" d="m221 229-1 1 1-1Z"/><path fill="#97D6F9" id="STR" d="m325 229-1 1 1-1Z"/><path fill="#99D2BD" id="OLF" d="M323 256h1c0-3.267-5.082-7.336-3-11.5l6.5-9.5c1.212-.606 5.5-2.24 5.5-4-1.622 0-5 .461-5-2h-3l-1 1-1 1-1 1-1 1-1 2c0 6.623-3 11.482-3 18l6 3ZM338 229l-1 1 1-1ZM120 230l1 1-1-1Z"/><path fill="#97D6F9" id="STR" d="m324 230-1 1 1-1Z"/><path fill="#99D2BD" id="OLF" d="m336 230-1 1 1-1Z"/><path fill="#97D6F9" id="STR" d="m323 231-1 1 1-1ZM322 232l-1 1 1-1ZM318 234l2 1 1-2c-1.048 0-3-.473-3 1Z"/><path fill="#A2B1D7" id="SI" d="m201 264-1 8-7.5-2c-8.7 4.35-44.585 7.33-49.5-2.5-1.925-3.851-9-5.893-9-11.5l6-3c0 2.709 4.53 8.515 7.5 10 2.834 1.417 28.468 3.766 32 2 9.437-4.719 14.936-14.968 21-18l7.5-10c0 6.664-3 12.72-3 19-1.638 0-2 3.576-2 5v1l-1 1-1 1ZM255 264c0 2.097 1 5.293 1 8l7.5-2c10.47 5.235 41.158 6.842 50-2 2.967-2.967 9.5-7.868 9.5-12l-6-3c-.896 0-6.054 8.777-8.5 10-2.856 1.428-27.428 3.786-31 2-9.6-4.8-14.05-11.05-22-19l-7.5-9 3 19 1 1c.286 0 3 6.302 3 7Z"/><path fill="#CAC8C7" id="lot" d="m122 264-2 1c-2.668 0-19-13.219-19-16l.5-2c2.026 0 20.5 11.851 20.5 14v3ZM334 263l2 2c1.987 0 19-12.753 19-15l1-1c0-4.586-21 9.258-21 11l-1 2v1Z"/><path fill="#6ACAB9" id="PIR" d="m356 249-1 1 1-1Z"/><path fill="#99D2BD" id="OLF" d="m132 256-1 1 1-1Z"/><path fill="#7FCCF7" id="OT" d="M200 272c0 2.079 3 3.187 3 6 0 16.76-14.296 11.898-22.5 16-2.653 1.326-6.456-.272-9 1-14.484 7.242-34.185 1.13-41.5-13.5-2.187-4.374-8-8.363-8-13.5v-5l1-2 8-4 1-1h2c0 5.607 7.075 7.649 9 11.5 4.915 9.83 40.8 6.85 49.5 2.5l7.5 2Z"/><path fill="#E64438" id="HY" d="M205 256c-1.638 0-2 3.576-2 5 1.638 0 2-3.576 2-5Z"/><path fill="#8599CC" id="PAL" d="M200 272c0 2.079 3 3.187 3 6 1.59 0 10-5.099 10-7l-5 1c-12.385 0 2-14.006 2-16h-5c0 1.424-.362 5-2 5v1l-1 1-1 1-1 8ZM256 272l-3 6c-2.359 0-24-15.617-24-18 .577 0 15.17 10.835 17.5 12 4.035 2.018 8.259-3.981 6.5-7.5l-7-8.5h5l1 1c0 1.989.247 7 3 7 0 2.097 1 5.293 1 8Z"/><path fill="#7FCCF7" id="OT" d="m256 272-3 6 2 4.5c5.828 11.656 6.388 6.444 16.5 11.5h5c2.653 1.326 6.456-.272 9 1 13.517 6.758 33.05 1.401 39.5-11.5 2.3-4.601 9-9.129 9-14.5l1-1v-1l-1-4v-1l-1-1-9-5h-1c0 4.132-6.533 9.033-9.5 12-8.842 8.842-39.53 7.235-50 2l-7.5 2Z"/><path fill="#E64438" id="HY" d="M252 257c.286 0 3 6.302 3 7-2.753 0-3-5.011-3-7Z"/><path fill="#99D2BD" id="OLF" d="m333 261 1 1 1-2-2 1ZM123 261l-1 2v-2h1Z"/><path fill="#8599CC" id="PAL" d="M227 261c-1.747 0-2 .253-2 2l2-2Z"/><path fill="#E64438" id="HY" d="m203 262-1 1 1-1ZM202 263l-1 1 1-1Z"/><path fill="#8599CC" id="PAL" d="M225 263c-1.901 0-12 6.067-12 8 2.485 0 12-5.075 12-8Z"/><path fill="#97D6F9" id="STR" d="m336 265-1 2-1-4 2 2ZM120 265l2 3v-4l-2 1ZM335 268l-1 1 1-1Z"/></svg>