<svg xmlns="http://www.w3.org/2000/svg" viewBox="0 0 456 320"><path fill="#99D2BD" id="OLF" d="m222 120-1 1c-2.397 0-6.719-4.609-9.5-6-5.666-2.833-14.802 2-19.5 2v-2l5.5-2c5.212-2.606 16.006 2.003 20 4l4.5 3ZM240 117c5.064 0 14.595-4.953 20.5-2l4.5 2-1-2c0-2.064-3.353-.426-4.5-1-3.077-1.539-19.5-.468-19.5 3Z"/><path fill="#C7CBCA" id="onl" d="m298 221-1 1c0 3.113-3.105 3.711-4 5.5-4.757 9.515-7.253 9.876-16.5 14.5l-14-1c-4.024 2.012-12.132 4.434-17 2L231 222.5l-2.5-15.5c-1.765 0-1.814 11.127-2.5 12.5-2.272 4.543-10.961 21.23-15.5 23.5-4.808 2.404-13.025-.012-17-2l-13 1c-7.969-3.985-13.173-5.847-17.5-14.5-1.15-2.299-4-2.655-4-6.5 0-19.982-5-38.227-5-60v-4c1.684 0 1-4.679 1-6v-4c1.579 0 1-2.855 1-4 1.473 0 1-1.952 1-3v-1l1-2 1-2v-1l1-1 1-2c0-6.467 25.61-16 31-16v2c-5.087 0-8.277 3.888-12.5 6-28.53 14.265-21.886 36.729-10.5 59.5l6 16c3.132 6.264 1.605 17.21 6 26 3.695 7.39 23.15 11.699 28 2 2.06-4.12 5.63-9.26 8-14 1.985-3.97.057-10.115 2-14 2.165-4.331 4-27.838 4-33.5 0-6.62 6.765-25.971 4-31.5-1.434-2.867-6-9.467-6-12.5l1-1c2.865 0 4.667 8 6.5 8 .732 0 3.198-8 5.5-8l2 1-6 10.5c-3.216 6.432 3 26.423 3 34 0 2.6 3.122 28.244 4 30 2.213 4.425-.268 11.463 2 16 2.868 5.736 7.446 11.893 10 17l3.5 1.5c8.786 4.393 19.884.731 24.5-8.5 3.181-6.362 1.168-16.336 4-22 2.551-5.102 3.477-10.954 6-16 9.685-19.37 19.367-45.566-6.5-58.5-4.615-2.308-10.146-8-15.5-8l-1-2c5.972 0 31 9.546 31 16l2 2v1l2 4v1c0 1.041.986 5 2 5v3c0 1.321-.684 6 1 6v30.5c-4.021 8.042-4 28.335-4 37.5Z"/><path fill="#9AD1BD" id="MOB" d="M192 117c4.698 0 13.834-4.833 19.5-2 2.781 1.391 7.103 6 9.5 6 0 3.033 4.566 9.633 6 12.5 2.765 5.529-4 24.88-4 31.5 0 5.662-1.835 29.169-4 33.5-1.943 3.885-.015 10.03-2 14-2.37 4.74-5.94 9.88-8 14-4.85 9.699-24.305 5.39-28-2-4.395-8.79-2.868-19.736-6-26l-6-16c-11.386-22.771-18.03-45.235 10.5-59.5 4.223-2.112 7.413-6 12.5-6ZM265 117c5.354 0 10.885 5.692 15.5 8 25.867 12.934 16.185 39.13 6.5 58.5-2.523 5.046-3.449 10.898-6 16-2.832 5.664-.819 15.638-4 22-4.616 9.231-15.714 12.893-24.5 8.5l-3.5-1.5c-2.554-5.107-7.132-11.264-10-17-2.268-4.537.213-11.575-2-16-.878-1.756-4-27.4-4-30 0-7.577-6.216-27.568-3-34l6-10.5 4-4c5.064 0 14.595-4.953 20.5-2l4.5 2Z"/><path fill="#99D2BD" id="OLF" d="m234 120 2 1 4-4c-1.643 0-6 1.338-6 3ZM161 131l-1 2 1-2ZM295 131l2 2-2-2ZM160 133l-1 1 1-1ZM297 134l2 4-2-4ZM159 135l-1 2 1-2ZM158 137l-1 2 1-2ZM299 139c1.638 0 2 3.576 2 5-1.014 0-2-3.959-2-5ZM157 140c-1.473 0-1 1.952-1 3 1.473 0 1-1.952 1-3ZM156 143c-1.579 0-1 2.855-1 4 1.579 0 1-2.855 1-4ZM301 147c1.684 0 1 4.679 1 6-1.684 0-1-4.679-1-6ZM155 151c-1.684 0-1 4.679-1 6 1.684 0 1-4.679 1-6ZM302 155c1.643 0 1 3.765 1 5l1 15.5c1.484 2.967 6.404 28.192 5 31-.988 1.976-3.287 3.574-4 5-1.094 2.189-3.035 9.5-7 9.5 0-9.165-.021-29.458 4-37.5V155ZM154 161c-1.495 0-1.096 14.691-2 16.5-2.2 4.4-6.758 25.485-4 31 1.598 3.195 5.52 6.041 7 9 .712 1.425 2.014 3.5 4 3.5 0-19.982-5-38.227-5-60ZM298 221l-1 1 1-1Z"/></svg>