<svg xmlns="http://www.w3.org/2000/svg" viewBox="0 0 456 320"><path fill="#99D2BD" id="OLF" d="M209 211h6l4-5.5 5-12c2.143-4.285 1-11.916 1-17 0-13.659 1.559-33.883-4-45-11.191-22.383-55 2.332-55 20.5 4.857 0 2.281 14.063 4 17.5 6.159 12.317 9.17 40.5 27 40.5l4.5-5c5.775-2.888 7.5.573 7.5 6ZM248 211c0-13.275 11-5.341 11 0l2.5-2c2.039-1.019 4.885-.942 7-2 8.715-4.358 14.363-30.226 18.5-38.5 1.375-2.751-1.483-17.5 3-17.5 0-17.113-33.563-33.968-49.5-26-10.28 5.14-9.5 41.502-9.5 54 0 5.831 4.771 32 11 32h6Z"/><path fill="#C7CBCA" id="onl" d="m248 211 1.5 2c2.332 1.166 9.5.421 9.5-2l2.5-2c2.039-1.019 4.885-.942 7-2 8.715-4.358 14.363-30.226 18.5-38.5 1.375-2.751-1.483-17.5 3-17.5l1 6v28c-2.342 0-2 7.951-2 10v2l-1 2c0 4.934-4.805 13.11-7 17.5-3.208 6.417 3.401 15.049-5.5 19.5-6.82 3.41-33.5-21.143-33.5-25h6ZM209 211h6c0 2.714-5.391 6.946-7.5 8-6.15 3.075-17.647 21.176-26 17-9.253-4.627-2.873-13.246-6.5-20.5-2.516-5.032-7-12.696-7-18.5 0-1.048.473-3-1-3v-1c0-1.913-.612-13-2-13v-10c0-5.996 1-12.639 1-18 4.857 0 2.281 14.063 4 17.5 6.159 12.317 9.17 40.5 27 40.5 0 7.035 9.155 1 12 1Z"/><path fill="#99D2BD" id="OLF" d="M291 157c1.643 0 1 3.765 1 5v14.5c0 1.19.614 4.5-1 4.5v-24ZM165 170c-1.587 0-1.587 6 0 6v-6ZM165 180c1.388 0 2 11.087 2 13-1.682 0-2-10.912-2-13ZM291 185c-2.342 0-2 7.951-2 10 1.16 0 2-8.505 2-10ZM167 194c1.473 0 1 1.952 1 3-1.473 0-1-1.952-1-3ZM289 197l-1 2 1-2Z"/><path fill="#9AD1BD" id="MOB" d="m197 210 4.5-5c5.775-2.888 7.5.573 7.5 6-2.845 0-12 6.035-12-1ZM248 211l1.5 2c2.332 1.166 9.5.421 9.5-2 0-5.341-11-13.275-11 0Z"/></svg>