<svg xmlns="http://www.w3.org/2000/svg" viewBox="0 0 456 320"><path fill="#1E9D5A" id="MOp1" d="M195 32c-11.549 0-21.709 4-33 4l1-6c10.858 0 21.316-3 33-3l-1 5Z"/><path fill="#1E9C59" id="MOs1" d="M222 45h1l4-2c0-2.183-3.405-3.31-4-4.5-4.571-9.142-15.322-11.5-27-11.5l-1 5c8.62 0 27 2.547 27 13ZM234 45h1c0-11.511 17.709-13 26-13v-5c-11.485 0-23.272 2.044-28 11.5l-4 4.5c1.624 0 2.75 2 5 2Z"/><path fill="#1E9D5A" id="MOp1" d="M261 32c11.871 0 22.432 4 34 4l-1-5c0-2.048-6.648-2-8.5-2-8.062 0-15.748-2-24.5-2v5Z"/><path fill="#187F60" id="SSp-ll1" d="M141 42h1c5.324 0 12.179-5 19-5l1-1 1-6c-7.134 0-18.506 7-24 7 0 1.624 2 2.75 2 5ZM317 37l-2 5c-6.034 0-12.355-5-19-5l-1-1-1-5c4.492 0 17.001 2.25 20.5 4l2.5 2Z"/><path fill="#1F9C58" id="MOp2/3" d="M159 53c0 1.465-1.115 4 0 4 8.632 0 23.645-14 34-14l2-11c-11.549 0-21.709 4-33 4l-1 1c0 6.667-2 9.766-2 16Z"/><path fill="#1E9D58" id="MOs2/3" d="M216 50h1l5-5c0-10.453-18.38-13-27-13l-2 11c5.585 0 23-3.757 23 7ZM235 45c0 1.77 3.15 4 5 4l6.5-6c4.984-2.492 11.569 0 16.5 0 0-4.296-2-7.018-2-11-8.291 0-26 1.489-26 13Z"/><path fill="#1F9C58" id="MOp2/3" d="m297 53 1 5c-6.265 0-24.622-15-35-15 0-4.296-2-7.018-2-11 11.871 0 22.432 4 34 4l1 1c0 5.231 1 9.357 1 16Z"/><path fill="#197E64" id="SSp-ul1" d="M106 52c0 .67 1.328 5 2 5 7.629 0 23.606-15 33-15 0-2.25-2-3.376-2-5-8.348 0-18.308 7.404-25.5 11l-7.5 4Z"/><path fill="#187F64" id="SSp-ll2/3" d="M159 53c-4.646 0-7.501 2-12 2l-5-13c5.324 0 12.179-5 19-5 0 6.667-2 9.766-2 16ZM297 53c5.031 0 8.243 2 13 2 0-4.535 5-9.304 5-13-6.034 0-12.355-5-19-5 0 5.231 1 9.357 1 16Z"/><path fill="#197E64" id="SSp-ul1" d="M351 53c-1.638 0-2 3.576-2 5-5.248 0-25.186-16-34-16l2-5c9.281 0 19.541 8.02 27.5 12 1.47.735 6.5 1.53 6.5 4Z"/><path fill="#197F61" id="SSp-ul2/3" d="M108 58c0 1.737 3.473 12 5 12 7.419 0 25.009-15 34-15l-5-13h-1c-9.394 0-25.371 15-33 15v1Z"/><path fill="#1F9D58" id="MOs5" d="M189 59c3.101 0 7.402-3.549 10.5-2l5.5 3c0-2.03 9.222-10 11-10 0-10.757-17.415-7-23-7l-4 16ZM267 59l-9.5-2-5.5 3c-4.302 0-7.27-10-12-10v-1l6.5-6c4.984-2.492 11.569 0 16.5 0 0 5.263 4 9.93 4 16Z"/><path fill="#197F61" id="SSp-ul2/3" d="M343 71h1c0-4.464 5-8.935 5-13-5.248 0-25.186-16-34-16 0 3.696-5 8.465-5 13v1c7.444 0 19.84 7.67 26.5 11 1.256.628 6.5 2.273 6.5 4Z"/><path fill="#1E9C5A" id="MOp5" d="M188 60c-6.748 0-22.074 15-31 15 0-6.43 1-9.55 1-16l1-1v-1c8.632 0 23.645-14 34-14l-4 16-1 1Z"/><path fill="#3EA665" id="ACAd1" d="M223 69h10c0-7.947 1-16.71 1-24-2.25 0-3.376-2-5-2 0 2.488-2 1.919-2 0l-4 2v24Z"/><path fill="#1E9C5A" id="MOp5" d="M299 75h1c0-5.144-2-11.688-2-17-6.265 0-24.622-15-35-15 0 5.263 4 9.93 4 16l1 1c6.936 0 22.592 15 31 15Z"/><path fill="#40A565" id="ACAd2/3" d="m223 70-5 1-1-21 5-5h1v25ZM233 69l6 2c0-6.903 1-14.772 1-21v-1c-1.85 0-5-2.23-5-4h-1c0 7.29-1 16.053-1 24Z"/><path fill="#3EA566" id="ACAd5" d="M218 71c-4.554 0-8.124 6-12 6l-1-16v-1c0-2.03 9.222-10 11-10h1l1 21ZM239 71c3.918 0 7.759 6 11 6 0-1.944.861-16 2-16v-1c-4.302 0-7.27-10-12-10 0 6.228-1 14.097-1 21Z"/><path fill="#1B8062" id="SSp-un1" d="M95 65h1l12-7v-1c-.672 0-2-4.33-2-5-1.969 0-14 7.002-14 9l3 4Z"/><path fill="#1C7F64" id="SSp-ll4" d="M158 59c-3.681 0-5.758 4-9 4l-2-8c4.499 0 7.354-2 12-2 0 1.465-1.115 4 0 4v1l-1 1ZM298 58l9 5c0-.698 2.714-7 3-7v-1c-4.757 0-7.969-2-13-2l1 5Z"/><path fill="#1B8062" id="SSp-un1" d="m364 61-3 4c-4.338 0-7.94-7-12-7 0-1.424.362-5 2-5 2.291 0 13 5.514 13 8Z"/><path fill="#1A7F63" id="SSp-ul4" d="m113 71 3 7c9.771 0 23.321-15 33-15l-2-8c-8.991 0-26.581 15-34 15v1ZM343 71c0 1.345-1.571 7-3 7-8.229 0-24.055-15-33-15 0-.698 2.714-7 3-7 7.444 0 19.84 7.67 26.5 11 1.256.628 6.5 2.273 6.5 4Z"/><path fill="#1D9C5A" id="MOs6a" d="M186 82h1c0-1.995 4.377-2 6-2 0-2.995 9.328-19 12-19v-1l-5.5-3c-3.098-1.549-7.399 2-10.5 2l-1 1c0 7.187-2 14.086-2 22ZM263 80l7 1c0-1.804 2.182-5.135 1-7.5-1.57-3.14-3-10-3-13.5l-1-1-9.5-2-5.5 3v1c2.751 0 11 16.11 11 19Z"/><path fill="#1C7F63" id="SSp-un2/3" d="M101 77h1c0-1.063 9.548-6 11-6v-1c-1.527 0-5-10.263-5-12l-12 7c0 4.51 5 7.12 5 12Z"/><path fill="#197C63" id="SSp-ll5" d="m159 58-1 1 1-1ZM303 77h1c0-4.957 3-8.809 3-14l-9-5c0 5.313 2 11.856 2 17l3 2Z"/><path fill="#1C7F63" id="SSp-un2/3" d="m344 71 11 6c0-4.226 6-7.381 6-11v-1c-4.338 0-7.94-7-12-7 0 4.065-5 8.536-5 13Z"/><path fill="#197C63" id="SSp-ll5" d="m157 75-4 1c-1.427 0-4-11.185-4-13 3.242 0 5.319-4 9-4 0 6.45-1 9.57-1 16Z"/><path fill="#1F9B5A" id="MOp6a" d="M165 91c-2.885 0-4.697 2-8 2V75c8.926 0 24.252-15 31-15 0 7.187-2 14.086-2 22-1.345 0-7 1.57-7 3-1.761 0-10 2.307-10 4l-4 2ZM299 94h1l-1-5V75c-8.408 0-24.064-15-31-15 0 3.5 1.43 10.36 3 13.5 1.182 2.365-1 5.696-1 7.5v1c7.065 0 15.389 5.944 21.5 9 1.069.534 7.5 2.17 7.5 3Z"/><path fill="#197E63" id="SSp-n1" d="m50 115 5 4c0-9.62 16.526-33.026 24-40.5 2.687-2.687 16-12.64 16-13.5l-3-4c-4.081 0-11.486 7.986-14.5 11-8.305 8.305-27.5 32.689-27.5 43Z"/><path fill="#3FA664" id="ACAd6a" d="M193 80c2.813 0 3.461 4 5 4l8-7-1-16c-2.672 0-12 16.005-12 19ZM258 85h1c0-1.238.423-3 2-3l1-1 1-1c0-2.89-8.249-19-11-19-1.139 0-2 14.056-2 16 1.838 0 8 6.841 8 8Z"/><path fill="#197E63" id="SSp-n1" d="M401 119h1l4-4c0-12.243-22.209-41.854-30.5-46-3.826-1.913-7.003-8-11.5-8l-3 4v1c4.176 0 6.935 6.218 10.5 8 10.867 5.433 29.5 34.003 29.5 45Z"/><path fill="#187E62" id="SSp-ul5" d="M116 79c1.018 0 5 9.56 5 11 2.888 0 23.949-13 32-13v-1c-1.427 0-4-11.185-4-13-9.679 0-23.229 15-33 15v1ZM335 90h1l4-11v-1c-8.229 0-24.055-15-33-15 0 5.191-3 9.043-3 14 7.379 0 17.1 5.8 23.5 9l7.5 4Z"/><path fill="#1B7F64" id="SSp-n2/3" d="M55 120c3.23 0 5.26 5 8 5l4-7.5c1.147-2.294.835-5.671 2-8C75.57 96.362 84.213 85.644 97.5 79l3.5-2c0-4.88-5-7.49-5-12h-1c0 .86-13.313 10.813-16 13.5-7.474 7.474-24 30.88-24 40.5v1ZM401 119c0 1.142-7.066 6-8 6l-4-8.5c-1.147-2.294-.835-5.671-2-8-4.788-9.575-19.702-31.5-32-31.5 0-4.226 6-7.381 6-11 4.176 0 6.935 6.218 10.5 8 10.867 5.433 29.5 34.003 29.5 45Z"/><path fill="#40A664" id="ACAv1" d="M229 95c2.832 0 2.953 5 5 5 0-10.047-1-20.446-1-31h-10v1c0 10.42-1 21.17-1 31l5-6c0-4.252 2-4.466 2 0Z"/><path fill="#3FA566" id="ACAv2/3" d="m235 102 3 1c0-10.464 1-21.065 1-32l-6-2c0 10.554 1 20.953 1 31l1 2ZM221 102l-3 1V71l5-1c0 10.42-1 21.17-1 31l-1 1Z"/><path fill="#197E61" id="SSp-un4" d="m116 79-10 5-4-7c0-1.063 9.548-6 11-6l3 7v1Z"/><path fill="#3EA666" id="ACAv5" d="M210 101c2.338 0 4.862 2 8 2V71c-4.554 0-8.124 6-12 6 0 7.193 3 14.907 3 22l1 2ZM247 101c-3.071 0-5.362 2-9 2 0-10.464 1-21.065 1-32 3.918 0 7.759 6 11 6 0 8.1-3 15.451-3 23v1Z"/><path fill="#197E61" id="SSp-un4" d="m340 79 11 5 4-7-11-6h-1c0 1.345-1.571 7-3 7v1Z"/><path fill="#1A7F64" id="SSp-ll6a" d="M153 77c0 1.815 2.657 12 4 12V75l-4 1v1ZM303 77c0 2.034-1.767 12-4 12V75h1l3 2Z"/><path fill="#1A8062" id="SSp-n4" d="M63 125h2c0-1.995 4.377-2 6-2l1-1 1-1c0-7.27 25.107-36 33-36v-1l-4-7h-1l-3.5 2C84.213 85.644 75.57 96.362 69 109.5c-1.165 2.329-.853 5.706-2 8l-4 7.5Z"/><path fill="#197D61" id="SSp-ul6a" d="M127 105h1l7-2c0-2.414 8.046-4 10-4 0-1.638 3.576-2 5-2 0-1.638 3.576-2 5-2l2-1v-5c-1.343 0-4-10.185-4-12-8.051 0-29.112 13-32 13 0 3.981 6 9.856 6 15Z"/><path fill="#40A564" id="ACAv6a" d="m207 98 2 1c0-7.093-3-14.807-3-22l-8 7v1c0 5.17 9 9.204 9 13ZM249 98l-2 2c0-7.549 3-14.9 3-23 1.838 0 8 6.841 8 8l-3 8c-1.668 0-6 3.099-6 5Z"/><path fill="#197D61" id="SSp-ul6a" d="m300 94 29 11 6-15-7.5-4c-6.4-3.2-16.121-9-23.5-9h-1c0 2.034-1.767 12-4 12l1 5Z"/><path fill="#1A8062" id="SSp-n4" d="M392 125h1l-4-8.5c-1.147-2.294-.835-5.671-2-8-4.788-9.575-19.702-31.5-32-31.5l-4 7v1c8.386 0 24.583 21.667 28 28.5 1.27 2.54 5 5.589 5 8.5l1 1c3.193 0 3.422 2 7 2Z"/><path fill="#197D62" id="SSp-un5" d="m121 90-10 5c0-1.636-3.606-10-5-10v-1l10-5c1.018 0 5 9.56 5 11ZM336 90l9 5c0-1.587 4.273-10 6-10v-1l-11-5-4 11Z"/><path fill="#1E9C58" id="MOs6b" d="M187 82v1c1.974 0 3.517-2 6-2v-1c-1.623 0-6 .005-6 2Z"/><path fill="#3FA466" id="ACAd6b" d="M197 85h1v-1c-1.539 0-2.187-4-5-4v1l4 4ZM262 81h1v-1l-1 1Z"/><path fill="#1E9C58" id="MOs6b" d="M270 82v1c-2.583 0-3.934-2-7-2v-1l7 1v1Z"/><path fill="#CACCC7" id="cing" d="m209 99 1 2c-10.104 0-12.862-10.18-20.5-14-5.285-2.642-11.675 4-16.5 4l-1 1h-1l-1 1h-5v-2c1.465 0 4 .109 4-2 2.172 0 10-1.377 10-4 3.303 0 5.115-2 8-2 1.974 0 3.517-2 6-2l4 4c0 3.645 5.577 13 10 13l2 1Z"/><path fill="#3FA466" id="ACAd6b" d="m262 81-1 1 1-1Z"/><path fill="#CACCC7" id="cing" d="M247 100v1c9.513 0 12.705-10.603 19.5-14 6.16-3.08 13.247 5 18.5 5l1 1h6c0-1.988-3.315-2.408-4.5-3L270 83c-2.583 0-3.934-2-7-2h-1l-1 1c0 1.238-.423 3-2 3 0 1.937-1.553 8-4 8 0 1.911-3.805 5-6 5l-2 2Z"/><path fill="#1D9D5A" id="MOp6b" d="M187 83c-2.885 0-4.697 2-8 2 0-1.43 5.655-3 7-3h1v1Z"/><path fill="#3FA466" id="ACAd6b" d="M261 82c-1.577 0-2 1.762-2 3 1.577 0 2-1.762 2-3Z"/><path fill="#1D9D5A" id="MOp6b" d="M299 94v1l-7-2c0-1.988-3.315-2.408-4.5-3L270 83v-1c7.065 0 15.389 5.944 21.5 9 1.069.534 7.5 2.17 7.5 3Z"/><path fill="#197E62" id="SSp-n5" d="M87 116c-4.935 0-9.395 5-14 5 0-7.27 25.107-36 33-36 1.394 0 5 8.364 5 10-3.795 0-23 15.469-23 20l-1 1Z"/><path fill="#1D9D5A" id="MOp6b" d="M179 85c-1.761 0-10 2.307-10 4 2.172 0 10-1.377 10-4Z"/><path fill="#40A465" id="ACAv6b" d="M198 85c0 5.17 9 9.204 9 13-4.423 0-10-9.355-10-13h1ZM259 85c0 1.937-1.553 8-4 8l3-8h1Z"/><path fill="#197E62" id="SSp-n5" d="M369 115c4.071 0 9.04 7 15 7 0-2.911-3.73-5.96-5-8.5-3.417-6.833-19.614-28.5-28-28.5-1.727 0-6 8.413-6 10 3.69 0 24 16.012 24 20Z"/><path fill="#C9C7C9" id="ccb" d="M367 158v3l-5-9.5c-4.561-9.122-12.405-16.81-17-26l-9.5-7.5-6-5c-15.798-7.899-24.685-9-42.5-9 0-9.995-24-7.33-24-3-1.238 0-3 .423-3 2-1.238 0-3 .423-3 2h-1l-1 1-1 1h-1c-4.49 0-8.779 1.14-12.5 3-1.114.557-5.5.41-5.5 2-1.048 0-3-.473-3 1h-3c0-1.93-1.161 0-2 0h-2c0-1.473-1.952-1-3-1-5.93 0-11.389-5-18-5l-5.5-4c-6.459-3.23-22.352-11.796-27.5-1.5l-2 2.5c-3.254 0-9.859-2.82-13.5-1-4.839 2.419-11.221 1.61-16 4-7.501 3.75-25.186 11.872-29.5 20.5l-9 12-7.5 14.5-4.5 8 1-5 1-1v-2c2.109 0 2-2.535 2-4v-1l1-2 1-1v-1c1.577 0 2-1.762 2-3v-1c1.577 0 2-1.762 2-3 1.641 0 8-10.194 8-12l9.5-9c5.616-5.616 13.325-8.662 20-12 7.186-3.593 15.717-4.358 23-8 1.39-.695 8.5-2.272 8.5-4h2l1-1h1l1-1c4.825 0 11.215-6.642 16.5-4 7.638 3.82 10.396 14 20.5 14 2.338 0 4.862 2 8 2l3-1c1.67 0 14 2.593 14 0l3 1c3.638 0 5.929-2 9-2 9.513 0 12.705-10.603 19.5-14 6.16-3.08 13.247 5 18.5 5l1 1h2c0 1.707 9.845 4.173 11.5 5 11.601 5.8 24.253 9.126 36 15 8.047 4.023 19.171 19.843 23.5 28.5l6 11.5v2l1 1v1l1 1Z"/><path fill="#1D9D5A" id="MOp6b" d="m169 89-4 2c1.465 0 4 .109 4-2Z"/><path fill="#1A7F61" id="SSp-un6a" d="m127 105-2 1c0-5.856-7.71-4-10-4l-4-7 10-5c0 3.981 6 9.856 6 15ZM329 105l2 1c0-4.794 7.341-4 10-4 1.504 0 4-5.699 4-7l-9-5h-1l-6 15Z"/><path fill="#1D9D5A" id="MOp6b" d="M157 94v1l8-2v-2c-2.885 0-4.697 2-8 2v1Z"/><path fill="#C9C9CA" id="scwm" d="m173 91-1 1 1-1ZM171 92l-1 1 1-1ZM285 92l1 1-1-1ZM113 117c0 3.345-6 5.413-6 9l9.5-9c5.616-5.616 13.325-8.662 20-12 7.186-3.593 15.717-4.358 23-8 1.39-.695 8.5-2.272 8.5-4h-3l-8 2h-2c0 2.46-3.378 2-5 2 0 1.638-3.576 2-5 2 0 2.048-8.226 4-10 4 0 1.429-5.655 3-7 3 0 1.473-1.952 1-3 1 0 2.177-4.336 4-6 4 0 1.747-.253 2-2 2 0 2.226-1.774 4-4 4Z"/><path fill="#40A465" id="ACAv6b" d="M255 93c-1.668 0-6 3.099-6 5 2.195 0 6-3.089 6-5Z"/><path fill="#C9C9CA" id="scwm" d="m363 146 2 7-6-11.5c-4.329-8.657-15.453-24.477-23.5-28.5-11.747-5.874-24.399-9.2-36-15-1.655-.827-11.5-3.293-11.5-5h4l7 2c6.432 0 25.423 12 30 12h2l7 5.5c4.876 4.876 9.011 10.011 15 16 2.297 2.297 8.592 17.5 10 17.5Z"/><path fill="#1C8064" id="SSp-ul6b" d="M155 95h2v-1l-2 1ZM329 105v2c-4.577 0-23.568-12-30-12v-1h1l29 11Z"/><path fill="#187D62" id="SSp-n6a" d="M115 102c0 7.216-9.54 10-16 10-2.061 0-11 4.169-11 3 0-4.531 19.205-20 23-20l4 7Z"/><path fill="#1C8064" id="SSp-ul6b" d="M155 95c-1.424 0-5 .362-5 2 1.622 0 5 .46 5-2Z"/><path fill="#7ED04B" id="IG" d="M221 102c1.67 0 14 2.593 14 0l-1-2c-2.047 0-2.168-5-5-5 0 1.93-1.161 0-2 0l-5 6-1 1Z"/><path fill="#187D62" id="SSp-n6a" d="M369 115v1l-6.5-3c-2.435-1.218-5.102 0-7 0l-1-2c-5.569-2.785-13.5-.004-13.5-9 1.504 0 4-5.699 4-7 3.69 0 24 16.012 24 20Z"/><path fill="#1C8064" id="SSp-ul6b" d="M150 97c-1.424 0-5 .362-5 2 1.424 0 5-.362 5-2Z"/><path fill="#AAA8A9" id="SEZ" d="m204 107-1 1c0-3.493-30-16.889-30-3l-4-1 2-2.5c5.148-10.296 21.041-1.73 27.5 1.5l5.5 4ZM287 104l-4 1c0-10.736-14.388-4-20-4 0-4.33 24-6.995 24 3Z"/><path fill="#1C8064" id="SSp-ul6b" d="M145 99c-1.954 0-10 1.586-10 4 1.774 0 10-1.952 10-4Z"/><path fill="#A8AAAA" id="VL" d="M193 172c0 2.003.293 3-2 3l-2-3c0-7.059-4-16.297-4-25 0-9.985.11-19.279-4-27.5-1.933-3.867-8-10.209-8-14.5 0-13.889 30-.493 30 3 0 7.139-12 18.832-12 30v10c-1.579 0-1 2.855-1 4 0 7.576 3 14.677 3 20ZM267 173l-2 2c-1.579 0-1-2.855-1-4 0-3.231 1.622-6.744 3-9.5 1.514-3.028-1-7.882-1-10.5v-5l-1-7c0-13.72-12-24.52-12-32h1l1-1 1-1h1c1.238 0 3-.423 3-2 1.238 0 3-.423 3-2 5.612 0 20-6.736 20 4 0 5.155-5.757 11.014-8 15.5-3.686 7.372-4 16.601-4 25.5 0 5.56.162 18.176-2 22.5l-2 4.5Z"/><path fill="#187D61" id="SSp-m6a" d="M78 137c5.813 0 10.21 8 15 8 0-4.311 16.025-28 20-28l4-4c0-1.747.253-2 2-2 0-1.617 4.583-4 6-4v-1c0-5.856-7.71-4-10-4 0 7.216-9.54 10-16 10-2.061 0-11 4.169-11 3l-1 1c0 2.907-4.58 11.66-6 14.5l-3 4.5v2Z"/><path fill="#AAA8A9" id="SEZ" d="M263 101c-1.238 0-3 .423-3 2 1.238 0 3-.423 3-2Z"/><path fill="#187D61" id="SSp-m6a" d="M363 145h1l14-9c0-3.456-4.12-13.62-6.5-16l-2.5-4-6.5-3c-2.435-1.218-5.102 0-7 0l-1-2c-5.569-2.785-13.5-.004-13.5-9-2.659 0-10-.794-10 4 3.923 0 5.969 5.734 8.5 7 6.643 3.322 23.5 23.706 23.5 32Z"/><path fill="#1C8064" id="SSp-ul6b" d="M128 105v1c1.345 0 7-1.571 7-3l-7 2Z"/><path fill="#98D5F9" id="CP" d="M139 227c-4.304 0-10.648 6.074-14.5 8H114c-4.926 0-9.113-8-13-8v-1l-2-2-1-2-1-1-2-6-1-1v-1l-1-2v-1c0-1.041-.986-5-2-5v-1c0-1.041-.986-5-2-5v-1c0-4.168-3-7.42-3-11 0-1.235.643-5-1-5v-7l1-2v-2l1-1v-3l1-2 1-2v-1l4.5-8 7.5-14.5 9-12c4.314-8.628 21.999-16.75 29.5-20.5 4.779-2.39 11.161-1.581 16-4 3.641-1.82 10.246 1 13.5 1l4 1c0 4.291 6.067 10.633 8 14.5 4.11 8.221 4 17.515 4 27.5-1.99 0-3.08 5.58-4.5 7-5.858 5.858-14.637 10.227-9.5 20.5.645 1.291 1.796 9.5 3 9.5v5c-1.797 0-1 12.925-1 15v2c-1.473 0-1 1.952-1 3l-1 1-3 2c-1.048 0-3-.473-3 1h-1c-1.048 0-3-.473-3 1l-2 1h-2l-1 1-2 1-1 1-1 1-2 1-1 1h-1l-1 1-1 1h-1l-1 1-1 1h-1c-1.238 0-3 .423-3 2Z"/><path fill="#AAA8A9" id="SEZ" d="M260 103c-1.238 0-3 .423-3 2 1.238 0 3-.423 3-2Z"/><path fill="#98D5F9" id="CP" d="m351 231-9 4c-3.997 0-9.161.67-12.5-1-5.055-2.527-16.458-13-21.5-13l-6-4-1-1-4-1c0-2.109-2.535-2-4-2h-1c0-1.473-1.952-1-3-1-2.061 0-4-.902-4-3l-2-4v-24c2.684 0 3-9.647 3-12 0-13.928-7.105-7.709-11-15.5-.728-1.456-1.87-7.5-4-7.5 0-8.899.314-18.128 4-25.5 2.243-4.486 8-10.345 8-15.5l4-1c17.815 0 26.702 1.101 42.5 9l6 5 9.5 7.5c4.595 9.19 12.439 16.878 17 26l5 9.5v1l2 4v3l1 1v1l1 1v14c-1.663 0-2 5.407-2 7-1.353 0-2 4.643-2 6v1c-1.473 0-1 1.952-1 3-1.473 0-1 1.952-1 3v1l-1 2-1 2-1 4-1 1v2l-1 1-1 1-1 3-1 1-1 1-1 2-2 2-2 2Z"/><path fill="#1A7D63" id="SSp-un6b" d="M128 106c0 1.473-1.952 1-3 1v-1l2-1h1v1Z"/><path fill="#AAA8A9" id="SEZ" d="m256 105-1 1 1-1Z"/><path fill="#1A7D63" id="SSp-un6b" d="M329 107h2v-1l-2-1v2Z"/><path fill="#AAA8A9" id="SEZ" d="m255 106-1 1 1-1Z"/><path fill="#188064" id="SSp-m6b" d="M363 145v1c-1.408 0-7.703-15.203-10-17.5-5.989-5.989-10.124-11.124-15-16l-7-5.5v-1c3.923 0 5.969 5.734 8.5 7 6.643 3.322 23.5 23.706 23.5 32ZM125 107c-1.417 0-6 2.383-6 4 1.664 0 6-1.823 6-4Z"/><path fill="#90CBEC" id="LSc" d="m191 138 1 1c2.555 0 30-20.457 30-25v-2c-5.93 0-11.389-5-18-5l-1 1c0 7.139-12 18.832-12 30ZM234 113c0 5.695 26.317 26 31 26 0-13.72-12-24.52-12-32-4.49 0-8.779 1.14-12.5 3-1.114.557-5.5.41-5.5 2l-1 1Z"/><path fill="#188064" id="SSp-m6b" d="M119 111c-1.747 0-2 .253-2 2 1.747 0 2-.253 2-2Z"/><path fill="#97D6F9" id="STR" d="m225 113-3 1v-2c1.048 0 3-.473 3 1ZM227 113c.839 0 2-1.93 2 0 0 2.488-2 1.919-2 0ZM232 113h2l1-1c-1.048 0-3-.473-3 1Z"/><path fill="#188064" id="SSp-m6b" d="m117 113-4 4c2.226 0 4-1.774 4-4Z"/><path fill="#90CAED" id="LSr" d="M191 148v1l3.5 2c3.883-1.942 8.021-9 12.5-9 0-1.901 4.332-5 6-5l7-6.5 8.5-13.5.5 2.5 6 9 8 8.5c2.364 0 3.053 3 5 3l14.5 11 2.5-2c0-1.048-.473-3 1-3l-1-7c-4.683 0-31-20.305-31-26h-5c0 2.488-2 1.919-2 0h-2l-3 1c0 4.543-27.445 25-30 25h-1v9Z"/><path fill="#1A7E62" id="SSs1" d="m43 176-4 1c-1.15 0-1.857-12.786-1-14.5 3.062-6.125-.114-17.771 3-24l9-23.5 5 4v1c-2.03 0-4.117 9.733-5 11.5-6.576 13.151-7 28.575-7 44.5Z"/><path fill="#1B7E63" id="SSp-m5" d="M378 136h1l8-7-2-6-1-1c-5.96 0-10.929-7-15-7v1l2.5 4c2.38 2.38 6.5 12.544 6.5 16Z"/><path fill="#1A7E62" id="SSs1" d="m413 176 5 1c0-17.37.198-35.104-7-49.5-.888-1.775-3.093-12.5-5-12.5l-4 4 9 24.5c3.059 6.119 2 24.397 2 32.5Z"/><path fill="#1B7E63" id="SSp-m5" d="M69 130c3.636 0 5.108 5 9 5l3-4.5c1.42-2.84 6-11.593 6-14.5-4.935 0-9.395 5-14 5l-1 1-1 1c0 2.483-2 4.026-2 6v1Z"/><path fill="#188064" id="SSp-m6b" d="M94 146h1v-1c0-1.238.423-3 2-3v-1c0-1.238.423-3 2-3 0-3.415 3.764-12 8-12 0-3.587 6-5.655 6-9-3.975 0-20 23.689-20 28v1h1Z"/><path fill="#8FCBEC" id="SF" d="M200 175c0-12.251 8.874-19.374 17-27.5 1.97-1.97 8.59-8.955 11.5-7.5 13.636 6.818 27.5 20.74 27.5 35l6-3 2-1c0-3.231 1.622-6.744 3-9.5 1.514-3.028-1-7.882-1-10.5l-1-2-2.5 2-14.5-11c0 1.423 1.978 3.544 1 5.5-4.125 8.249-14.29-8.5-6-8.5l-8-8.5-6-9-.5-2.5-8.5 13.5-7 6.5c11.426 0-6 20.127-6 5-4.479 0-8.617 7.058-12.5 9l-3.5-2c0 1.048.473 3-1 3 0 7.576 3 14.677 3 20h1c2.813 0 3.921 3 6 3Z"/><path fill="#1B8063" id="SSs2/3" d="M405 176h8c0-8.103 1.059-26.381-2-32.5l-9-24.5h-1c0 1.142-7.066 6-8 6l6 14.5c4.501 9.001 6 25.494 6 36.5ZM43 176h8c0-8.403 1.566-25.632 5-32.5 1.51-3.02 7-15.734 7-18.5-2.74 0-4.77-5-8-5-2.03 0-4.117 9.733-5 11.5-6.576 13.151-7 28.575-7 44.5Z"/><path fill="#197E62" id="SSp-n5" d="m73 121-1 1 1-1Z"/><path fill="#1B7F62" id="SSp-m4" d="m72 122-1 1 1-1ZM387 129h1l4-4c-3.578 0-3.807-2-7-2l2 6ZM65 125c0 1.366 2.366 4 4 4 0-1.974 2-3.517 2-6-1.623 0-6 .005-6 2Z"/><path fill="#187C63" id="SSs4" d="M51 176h6v-1c0-12.356 2.838-25.175 8-35.5.784-1.568 1.924-9.5 4-9.5v-1c-1.634 0-4-2.634-4-4h-2c0 2.766-5.49 15.48-7 18.5-3.434 6.868-5 24.097-5 32.5ZM400 175l5 1c0-11.006-1.499-27.499-6-36.5l-6-14.5h-1l-4 4c0 4.099 3.235 8.97 5 12.5 4.623 9.246 6 22.437 6 33.5h1Z"/><path fill="#C9C9CA" id="scwm" d="M107 126c-4.236 0-8 8.585-8 12 1.641 0 8-10.194 8-12Z"/><path fill="#1C8063" id="SSs5" d="M386 175h13c0-11.063-1.377-24.254-6-33.5-1.765-3.53-5-8.401-5-12.5h-1l-8 7c0 3.856 2.384 7.268 4 10.5 3.149 6.298 3 20.596 3 28.5ZM57 175h13c0-10.507.635-21.77 5-30.5.636-1.272 1.45-7.5 3-7.5v-2c-3.892 0-5.364-5-9-5-2.076 0-3.216 7.932-4 9.5-5.162 10.325-8 23.144-8 35.5Z"/><path fill="#197D63" id="SSs6a" d="M373 175h13c0-7.904.149-22.202-3-28.5-1.616-3.232-4-6.644-4-10.5h-1l-14 9c0 8.24 9 21.227 9 30ZM70 175h14c0-6.63 3.133-16.765 6-22.5.632-1.265 1.278-6.5 3-6.5v-1c-4.79 0-9.187-8-15-8-1.55 0-2.364 6.228-3 7.5-4.365 8.73-5 19.993-5 30.5Z"/><path fill="#CBC8CB" id="fi" d="M213 137c11.426 0-6 20.127-6 5 0-1.901 4.332-5 6-5ZM243 137c2.364 0 3.053 3 5 3 0 1.423 1.978 3.544 1 5.5-4.125 8.249-14.29-8.5-6-8.5Z"/><path fill="#C9C9CA" id="scwm" d="M99 138c-1.577 0-2 1.762-2 3 1.577 0 2-1.762 2-3Z"/><path fill="#97D6F9" id="STR" d="M191 139h1l-1-1v1Z"/><path fill="#96A7D2" id="TRS" d="M234 183h1c0-5.047 8-12.431 8-3h4l1-1 3-1 1-1 3-1 1-1c0-14.26-13.864-28.182-27.5-35-2.91-1.455-9.53 5.53-11.5 7.5-8.126 8.126-17 15.249-17 27.5l8 4 5 1c0-12.583 8.258 3 9 3l1-1c0-9.897 11-7.379 11 1Z"/><path fill="#C9C9CA" id="scwm" d="M97 142c-1.577 0-2 1.762-2 3 1.577 0 2-1.762 2-3Z"/><path fill="#1A8061" id="SSs6b" d="m373 175-2 1v-4l-1-1v-1l-1-1v-3l-2-4v-4l-1-1v-1l-1-1v-2l-2-7v-1h1c0 8.24 9 21.227 9 30ZM84 175h1l1-2v-2l1-1v-3l1-2 1-2v-1l1-5 1-1v-2l2-4v-1l1-2v-1h-1c-1.722 0-2.368 5.235-3 6.5-2.867 5.735-6 15.87-6 22.5Z"/><path fill="#C9C9CA" id="scwm" d="m95 146-1 1v-1h1Z"/><path fill="#97D6F9" id="STR" d="m265 149 1 2v-5c-1.473 0-1 1.952-1 3ZM279 173c0-1.696 2.502-11.496 4-8.5V181c2.684 0 3-9.647 3-12 0-13.928-7.105-7.709-11-15.5-.728-1.456-1.87-7.5-4-7.5 0 5.56.162 18.176-2 22.5l-2 4.5c.205 0 8-6.153 8-2l4 2Z"/><path fill="#C9C9CA" id="scwm" d="m94 147-1 2 1-2Z"/><path fill="#97D6F9" id="STR" d="M178 172c0-1.632-2.917-10.667-5-6.5l1 18.5c-1.204 0-2.355-8.209-3-9.5-5.137-10.273 3.642-14.642 9.5-20.5 1.42-1.42 2.51-7 4.5-7 0 8.703 4 17.941 4 25l-2.5-2c-1.956-.978-4.077 1-5.5 1l-3 1ZM191 149c0 1.048.473 3-1 3 0-1.145-.579-4 1-4v1Z"/><path fill="#C9C9CA" id="scwm" d="m93 150-2 4c2.109 0 2-2.535 2-4ZM365 155l1 1-1-1ZM91 156l-1 1 1-1ZM366 157l1 1-1-1Z"/><path fill="#C9C7C9" id="ccb" d="m367 162 2 4-2-4ZM89 163l-1 2 1-2Z"/><path fill="#CCC" d="M179 193c-1.579 0-1 2.855-1 4 0 3.639-3 17.523-3 7v-4l-1-11v-5l-1-18.5c2.083-4.167 5 4.868 5 6.5l1 14v7ZM283 183c-1.579 0-1 2.855-1 4v14c-2.358 0 .091 6-1.5 6l-1.5-8.5V173c0-1.696 2.502-11.496 4-8.5V183Z"/><path fill="#C9C7C9" id="ccb" d="m88 165-1 2 1-2ZM369 169l1 1-1-1ZM87 170l-1 1 1-1Z"/><path fill="#B3C0DE" id="BST" d="M199 233h2l5-4 1-1 3-5.5-1-8.5c0-3.569-3 3.197-3-5-8.442 0-1.868-8-1-8 0-2.124-1-4.436-1-6l-5-10v-1c-1.527 0-8-7.965-8-9l-2-3-2.5-2c-1.956-.978-4.077 1-5.5 1 0 1.392-1.252 15-2 15v7c0 9.202-3 17.264-3 26 2.144 0 .381 4.262 1 5.5l7 6.5 4 1c2.998 0 7.358 1 11 1ZM257 233h10l1-1 4-1c0-1.351 8-3.613 8-14l-3-22v-15.5c-.901-1.802-2-6.594-2-8.5 0-4.153-7.795 2-8 2l-2 2c0 1.645-4.588 7-6 7l-1 1-1 2v1l-1 1-3 7-1 1-1 5c0 .131 7.849 10 2.5 10l-2.5-1c0 5.773-4 3.279-4 5l-1 8.5 3 5.5 2 2 4 3h2Z"/><path fill="#8599CC" id="PAL" d="m178 172 1 14c.748 0 2-13.608 2-15l-3 1Z"/><path fill="#97D6F9" id="STR" d="M265 175c0 1.645-4.588 7-6 7 0-3.945 3-5.722 3-10l2-1c0 1.145-.579 4 1 4Z"/><path fill="#8599CC" id="PAL" d="M297 224h1l-6-7.5 2-2.5-1-1h-1c-1.048 0-3 .473-3-1-2.061 0-4-.902-4-3-2.109 0-2-2.535-2-4v-4h-1c-2.358 0 .091 6-1.5 6l-1.5-8.5V173l-4-2c0 1.906 1.099 6.698 2 8.5V195l3 22c1.887 0 .057 4 4 4 0-9.324 11.64 3 13 3Z"/><path fill="#C8CBCC" id="ec" d="m370 171 1 1-1-1Z"/><path fill="#97D6F9" id="STR" d="M191 175c0 1.035 6.473 9 8 9 0-4.08-5-7.362-5-12h-1c0 2.003.293 3-2 3Z"/><path fill="#8FCBED" id="LSv" d="M199 184v1l3.5 4c10.045 5.022 5.5-8.96 5.5-10l-8-4c-2.079 0-3.187-3-6-3 0 4.638 5 7.92 5 12ZM257 186l-1 1c-4.94 0-9 8.196-9-7l1-1 3-1 1-1 3-1 1-1 6-3c0 4.278-3 6.055-3 10l-1 1-1 2v1Z"/><path fill="#C8CBCC" id="ec" d="m86 173-1 2 1-2Z"/><path fill="#11AC82" id="VISC4" d="m57 185-4 1-2-10h6v9Z"/><path fill="#12AD82" id="VISC5" d="M70 181c-3.748 0-8.308 4-13 4v-10h13v6Z"/><path fill="#11AC83" id="VISC6a" d="M84 179c-5.028 0-8.37 2-14 2v-6h14v4Z"/><path fill="#11AD82" id="VISC6b" d="M84 179h1v-4h-1v4Z"/><path fill="#C7C8CA" id="fx" d="M222 183c0 6.849-.202 10.905-3 16.5-2.587 5.174-12 1.007-12-3.5 0-6.317 6-10.115 6-16 0-12.583 8.258 3 9 3Z"/><path fill="#A8A9AA" id="V3" d="M225 196c1.723 0 6-4.176 6 1 2.342 0-.262-14 3-14 0-8.379-11-10.897-11-1 0 1.407 1.182 14 2 14Z"/><path fill="#C7C8CA" id="fx" d="m247 200-1 1-5.5 1c-8.39-4.195-5.5-12.351-5.5-19 0-5.047 8-12.431 8-3 0 5.361 6 9.582 6 16 0 2.424-2 2.76-2 4Z"/><path fill="#8FCBEC" id="SF" d="m256 175-1 1 1-1Z"/><path fill="#11AD82" id="VISC6b" d="M372 179h1v-4l-2 1v3h1Z"/><path fill="#11AC83" id="VISC6a" d="M373 179c3.874 0 7.466 2 13 2v-6h-13v4Z"/><path fill="#12AD82" id="VISC5" d="M386 181c4.119 0 9.07 4 13 4l1-10h-14v6Z"/><path fill="#11AC82" id="VISC4" d="m399 185 4 1c0-3.119 2-6.279 2-10l-5-1-1 10Z"/><path fill="#12AD83" id="VISC1" d="m45 190-3 2c-1.765 0-3-12.146-3-15l4-1c0 5.28 2 8.97 2 14Z"/><path fill="#12AC83" id="VISC2/3" d="M45 190h1c0-1.368 5.878-4 7-4l-2-10h-8c0 5.28 2 8.97 2 14ZM403 186l8 4c0-4.299 2-8.849 2-14h-8c0 3.721-2 6.881-2 10Z"/><path fill="#12AD83" id="VISC1" d="m411 190 4 2c0-4.864 3-9.827 3-15l-5-1c0 5.151-2 9.701-2 14Z"/><path fill="#97D6F9" id="STR" d="m252 177-1 1 1-1Z"/><path fill="#009B74" id="GU6a" d="M81 193c-2.097 0-5.293 1-8 1 0-3.707-3-8.883-3-13 5.63 0 8.972-2 14-2 0 2.293-.984 12 2 12v1c-2.413 0-3.51 1-5 1Z"/><path fill="#019C74" id="GU6b" d="M85 182c0 3.222 1 6.277 1 9-2.984 0-2-9.707-2-12h1v3Z"/><path fill="#97D6F9" id="STR" d="m204 195 3 1c0-6.317 6-10.115 6-16l-5-1c0 1.04 4.545 15.022-5.5 10l-3.5-4 5 10ZM248 179l-1 1 1-1Z"/><path fill="#C8CBCC" id="ec" d="M372 179c0 1.145.579 4-1 4v-4h1Z"/><path fill="#019C74" id="GU6b" d="M371 186v4c2.076 0 2-8.928 2-11h-1c0 1.145.579 4-1 4v3Z"/><path fill="#009B74" id="GU6a" d="M383 194h1l2-13c-5.534 0-9.126-2-13-2 0 2.072.076 11-2 11v1c1.465 0 4-.109 4 2 2.097 0 5.293 1 8 1Z"/><path fill="#97D6F9" id="STR" d="m252 195-3 1c0-6.418-6-10.639-6-16h4c0 15.196 4.06 7 9 7l-3 7-1 1Z"/><path fill="#019C75" id="GU5" d="M60 197h1c0-.846 10.603-3 12-3 0-3.707-3-8.883-3-13-3.748 0-8.308 4-13 4l3 12ZM396 197h1c0-4.499 2-7.354 2-12-3.93 0-8.881-4-13-4l-2 13c0 2.075 12 .559 12 3Z"/><path fill="#C8CBCC" id="ec" d="M88 198h1c0-4.168-3-7.42-3-11 0-1.235.643-5-1-5 0 3.222 1 6.277 1 9v1l1 1v2l1 1v2Z"/><path fill="#CAC7CB" id="fiber tracts" d="M211 207c3.479 0 8.202-4.851 10.5-6 2.232-1.116 5.397 1 7 1 1.388 0 3.972-2.014 6-1 3.326 1.663 7.695 6 11.5 6v-6l-5.5 1c-8.39-4.195-5.5-12.351-5.5-19h-1c-3.262 0-.658 14-3 14 0 3.254-6 2.579-6-1-.818 0-2-12.593-2-14l-1 1c0 6.849-.202 10.905-3 16.5-2.587 5.174-12 1.007-12-3.5l-3-1c0 1.564 1 3.876 1 6 5.202 0 6-.57 6 6Z"/><path fill="#97D6F9" id="STR" d="m259 182-1 1 1-1ZM258 183l-1 2 1-2ZM282 201h1v-18c-1.579 0-1 2.855-1 4v14Z"/><path fill="#009C74" id="GU4" d="M57 197h3l-3-12-4 1 4 11ZM397 197h2c0-3.278 4-6.954 4-11l-4-1c0 4.646-2 7.501-2 12Z"/><path fill="#009B75" id="GU2/3" d="M49 199h1c1.296 0 7-.825 7-2l-4-11c-1.122 0-7 2.632-7 4l3 9Z"/><path fill="#97D6F9" id="STR" d="m257 186-1 1 1-1Z"/><path fill="#C8CBCC" id="ec" d="M369 193h1v-1l1-1v-5c-1.663 0-2 5.407-2 7Z"/><path fill="#009B75" id="GU2/3" d="M399 197c2.522 0 4.909 2 8 2l4-9-8-4c0 4.046-4 7.722-4 11Z"/><path fill="#97D6F9" id="STR" d="m175 200-2 4c0-2.075-.797-15 1-15l1 11Z"/><path fill="#009C75" id="GU1" d="m49 199-3 2c-1.653 0-4-7.372-4-9l3-2h1l3 9ZM407 200l4 1 4-9-4-2-4 9v1Z"/><path fill="#8ADA86" id="CLA" d="m90 207-4 1c-5.984 0-5-10.624-5-15 1.49 0 2.587-1 5-1l1 1v2l1 1v2l1 1 1 5v3Z"/><path fill="#009B74" id="GU6a" d="M370 192h1v-1l-1 1Z"/><path fill="#8ADA86" id="CLA" d="m367 207 3 1c7.037 0 5-11.257 5-15 0-2.109-2.535-2-4-2v1l-1 1-1 1-1 5-1 1c0 1.048.473 3-1 3v3l1 1Z"/><path fill="#209766" id="AIp6a" d="m86 192 1 1-1-1ZM371 192l-1 1v-1h1ZM81 213h2c0-2.364 3-3.053 3-5-5.984 0-5-10.624-5-15-2.097 0-5.293 1-8 1l8 19Z"/><path fill="#8599CC" id="PAL" d="M173 221c-1.606 0-2.878-4.811-6.5-3-2.682 1.341-4.321 6-7.5 6 0-3.226 4-4.642 4-10l1-1h1c1.048 0 3 .473 3-1l3-2 1-1c1.473 0 1-1.952 1-3v-2l2-4v4c0 10.523 3-3.361 3-7 0-1.145-.579-4 1-4 0 9.202-3 17.264-3 26-1.481 0-.785 2-3 2Z"/><path fill="#C8CBCC" id="ec" d="M367 199h1l1-5v-1c-1.353 0-2 4.643-2 6Z"/><path fill="#209766" id="AIp6a" d="m370 193-1 1v-1h1ZM374 213h1c0-6.55 8-11.937 8-19-2.707 0-5.903-1-8-1 0 3.743 2.037 15-5 15 0 1.302 4 2.641 4 5Z"/><path fill="#219864" id="AIp5" d="m79 215-5 1c0-3.465-13-12.333-13-19 0-.846 10.603-3 12-3l8 19-2 2Z"/><path fill="#FF5445" id="MEPO" d="M225 196c1.723 0 6-4.176 6 1 0 3.254-6 2.579-6-1Z"/><path fill="#CAC7CB" id="fiber tracts" d="m253 194-1 1 1-1Z"/><path fill="#219864" id="AIp5" d="m377 215 5 1c0-1.976 14-13.409 14-19 0-2.441-12-.925-12-3h-1c0 7.063-8 12.45-8 19l2 2Z"/><path fill="#209766" id="AIp6a" d="m87 195 1 1-1-1Z"/><path fill="#CAC7CB" id="fiber tracts" d="M247 200h4l1-5-3 1c0 2.424-2 2.76-2 4Z"/><path fill="#209865" id="AIp2/3" d="M74 216c0 1.291-8.283 4-10 4-1.7 0-14-18.296-14-21 1.296 0 7-.825 7-2h4c0 6.667 13 15.535 13 19ZM382 216l10 4c3.756 0 13.765-20 15-20v-1c-3.091 0-5.478-2-8-2h-3c0 5.591-14 17.024-14 19Z"/><path fill="#209766" id="AIp6a" d="M89 198v1l-1-1h1Z"/><path fill="#219765" id="AIp1" d="m64 220-4 3c-2.374 0-14-19.251-14-22l3-2h1c0 2.704 12.3 21 14 21Z"/><path fill="#C8CBCC" id="ec" d="M90 204h1c0-1.041-.986-5-2-5l1 5Z"/><path fill="#209766" id="AIp6a" d="m368 199-1 1v-1h1Z"/><path fill="#B3C0DF" id="BAC" d="m211 207-5 2c-8.442 0-1.868-8-1-8 5.202 0 6-.57 6 6Z"/><path fill="#CAC7CB" id="fiber tracts" d="m247 200-1 1 1-1Z"/><path fill="#B3C0DF" id="BAC" d="m246 207 5 2 2.5 1c5.349 0-2.5-9.869-2.5-10h-4l-1 1v6Z"/><path fill="#C8CBCC" id="ec" d="M367 200c-1.473 0-1 1.952-1 3 1.473 0 1-1.952 1-3Z"/><path fill="#219765" id="AIp1" d="m392 220 5 3c0-3.812 14-15.847 14-22l-4-1c-1.235 0-11.244 20-15 20Z"/><path fill="#C9C9C9" id="act" d="M232 215h3l12-1c0-1.721 4 .773 4-5l-5-2c-3.805 0-8.174-4.337-11.5-6-2.028-1.014-4.612 1-6 1-1.603 0-4.768-2.116-7-1-2.298 1.149-7.021 6-10.5 6l-5 2c0 8.197 3 1.431 3 5 4.569 0 8.923 1 13 1h6c0-1.186 1-1.186 1 0h3Z"/><path fill="#C8CBCC" id="ec" d="M365 206h1v-3c-1.473 0-1 1.952-1 3Z"/><path fill="#209766" id="AIp6a" d="M90 207h1v-3h-1v3Z"/><path fill="#C8CBCC" id="ec" d="M91 207c0 1.238.423 3 2 3 0-1.041-.986-5-2-5v2Z"/><path fill="#97D6F9" id="STR" d="m283 205 2 4c-2.109 0-2-2.535-2-4ZM173 206c-1.473 0-1 1.952-1 3 1.473 0 1-1.952 1-3Z"/><path fill="#209766" id="AIp6a" d="m367 207-2 1v-2h1l1 1Z"/><path fill="#A0EE9C" id="EPd" d="M99 231h2v-5l-2-2-1-2-1-1-2-6-1-1v-1l-1-2v-1c-1.577 0-2-1.762-2-3h-1l-4 1c0 1.947-3 2.636-3 5 0 3.015 2 6.004 2 8v1l1 1 1 1 3 3 1 1c3.239 0 4.575 3 8 3Z"/><path fill="#C8CBCC" id="ec" d="m365 208-1 1 1-2v1Z"/><path fill="#A0EE9C" id="EPd" d="m361 230-4 1-2-2v-2l1-2 1-1 1-1 1-3 1-1 1-1v-2l1-1 1-4 1-2 1-1 2-1 3 1c0 1.302 4 2.641 4 5l-1 6v1l-1 1-1 1-1 1-1 1-1 1-1 1-1 1-1 1-1 1h-2l-1 1Z"/><path fill="#97D6F9" id="STR" d="m172 209-1 1 1-1Z"/><path fill="#C8CBCC" id="ec" d="m364 209-1 2 1-2ZM93 211l1 2-1-2Z"/><path fill="#97D6F9" id="STR" d="M168 212c-1.048 0-3-.473-3 1 1.048 0 3 .473 3-1ZM289 212c1.048 0 3-.473 3 1-1.048 0-3 .473-3-1Z"/><path fill="#99D2BD" id="OLF" d="m79 215 6 6c0-1.996-2-4.985-2-8h-2l-2 2Z"/><path fill="#97D6F9" id="STR" d="M161 214h2l1-1c-1.048 0-3-.473-3 1ZM294 214l3 1c0-2.109-2.535-2-4-2l1 1Z"/><path fill="#99D2BD" id="OLF" d="m377 215-4 4 1-6h1l2 2Z"/><path fill="#C8CBCC" id="ec" d="m94 214 1 1-1-1Z"/><path fill="#97D6F9" id="STR" d="m161 214-2 1 2-1Z"/><path fill="#C9C9C9" id="act" d="M157 226c-5.965 0-14.234 7.367-19.5 10-.986.493-6.432.363-5.5-1.5 1.524-3.048 7-4.539 7-7.5 1.238 0 3-.423 3-2h1l1-1 1-1h1l1-1 1-1h1l1-1 2-1 1-1 1-1 2-1 1-1h2l2-1h2c0 5.358-4 6.774-4 10l-1 1-1 1Z"/><path fill="#E64438" id="HY" d="M239 234c-2.981 0-5.638 4-7 4l-.5-16-2.5 1h-2l-1.5-2-.5 3.5c0 1.866.784 12.5-1 12.5-2.087 0-4.393-3-7-3 0-5.499-3.869-3-7-3 0-2.041-.959-3-3-3l3-5.5-1-8.5c4.569 0 8.923 1 13 1l2 2c0 5.981 9 4.258 9 0l2-2 12-1-1 8.5 3 5.5c-2.293 0-2 .997-2 3-2.809 0-8-2.77-8 3Z"/><path fill="#CAC7CB" id="fiber tracts" d="M228 215h1c0-1.186-1-1.186-1 0Z"/><path fill="#C9C9C9" id="act" d="M308 221c0 1.096 14.122 9.745 16 13.5 1.326 2.651-6.804.848-7.5.5-2.873-1.436-16.64-11-18.5-11l-6-7.5 2-2.5 3 1 4 1 1 1 6 4Z"/><path fill="#6ACAB9" id="PIR" d="m105 285 .5-3c1.919 0 8.344 3 14.5 3l4-5.5c.523-1.046-.951-3.5 1-3.5v-13.5l-6-11.5-4.5-4c-2.867-1.434-13.5-9.215-13.5-12-1.819 0-10-5.459-10-7l-1-1-3-3-1-1-1-1v-1l-6-6-5 1c0 1.291-8.283 4-10 4l-4 3c0 5.543 6.667 8.834 9 13.5 2.288 4.576 22.58 35.04 25.5 36.5l10.5 12Z"/><path fill="#97D6F9" id="STR" d="m157 215-1 1 1-1Z"/><path fill="#CAC7CB" id="fiber tracts" d="m225 215-1 2-2-2h3ZM235 215l-2 2-1-2h3Z"/><path fill="#C8CBCC" id="ec" d="m362 215-1 1 1-1Z"/><path fill="#6ACAB9" id="PIR" d="M352 284c0-1.156-2.555-1.472-3.5-1-4.124 2.062-7.467 2-12.5 2l-4-7v-2l-1-2v-2c0-9.569 6-16.996 6-21 2.831 0 14.591-10.683 16-13.5l3-2.5 8-6 1-1 1-1 1-1 1-1 1-1 1-1 1-1 1-1 1-1v-1l4-4 5 1 10 4 5 3c0 5.058-7.79 10.081-10 14.5l-24 35-11 11.5Z"/><path fill="#97D6F9" id="STR" d="m301 216 1 1-1-1ZM154 217l-1 1 1-1Z"/><path fill="#E64438" id="HY" d="M272 231c2.229 0 5 3.812 5 6l2-1.5c.576-1.153 5-13.966 5-14.5-3.943 0-2.113-4-4-4 0 10.387-8 12.649-8 14Z"/><path fill="#97D6F9" id="STR" d="m153 218-1 1 1-1Z"/><path fill="#A2B1D7" id="SI" d="M142 255h26l3-1 2-1c9.549 0 6-10.685 6-16l-2-2.5c-1.311-2.622-4-10.742-4-13.5-1.606 0-2.878-4.811-6.5-3-2.682 1.341-4.321 6-7.5 6l-1 1-1 1-5 5-10 15-1 1v2c0 2.124 1 4.436 1 6ZM289 255h25l2-5-1-3-12-17-6-6c-1.36 0-13-12.324-13-3 0 .534-4.424 13.347-5 14.5l-2 1.5c0 6.063-3.243 10.628 3.5 14l2.5 2 2 1 4 1Z"/><path fill="#C8CBCC" id="ec" d="m361 218-1 1 1-1Z"/><path fill="#E64438" id="HY" d="m184 231-5 6-2-2.5c-1.311-2.622-4-10.742-4-13.5 2.215 0 1.519-2 3-2 2.144 0 .381 4.262 1 5.5l7 6.5Z"/><path fill="#C8CBCC" id="ec" d="m360 219-1 1 1-1Z"/><path fill="#97D6F9" id="STR" d="m150 220-1 1 1-1Z"/><path fill="#99D2BD" id="OLF" d="m373 220-1 1 1-1Z"/><path fill="#C8CBCC" id="ec" d="m97 221 1 1-1-1Z"/><path fill="#97D6F9" id="STR" d="m148 221-1 1 1-1Z"/><path fill="#FE5547" id="PVpo" d="m223 273-5 2c0-2.695 3-5.13 3-8v-1l1-1c1.043 0 2-5.353 2-6.5V237c1.784 0 1-10.634 1-12.5l.5-3.5 1.5 2c0 7.995 2 8.385 2 0l2.5-1 .5 16v19.5c.952 1.904 3 7.602 3 9.5 0 1.992 3 3.512 3 8l-6-3-1-1-2-5.5-.5-5.5-.5 3.5-3 7.5v1h-1l-1 1Z"/><path fill="#97D6F9" id="STR" d="M293 278c-1.048 0-3-.473-3 1h22.5c3.218-1.609 5.705-4.352 9-6 1.448-.724 6.5-2.768 6.5-5 0-3.654 3.052-18 7-18v-3c0-1.238.423-3 2-3l1-1 1-1 1-1 1-1 1-1c0-1.747.253-2 2-2v-1l-2-1c-3.997 0-9.161.67-12.5-1-5.055-2.527-16.458-13-21.5-13 0 1.096 14.122 9.745 16 13.5 1.326 2.651-6.804.848-7.5.5-2.873-1.436-16.64-11-18.5-11h-1l6 6 18.5 8c2.575 1.288 15.599-4.302 17.5-.5 1.045 2.09-2.701 3.701-4 5-3.629 3.629-9.392 10.554-15.5 7.5l-4.5-3 1 3c1.077 0 3 3.762 3 5 0 1.835 2 4.235 2 7l3.5-1c5.148 2.574-3.301 10.651-6 12-5.634 2.817-9.689 2-15.5 2 0 3.229-7.645 3-10 3Z"/><path fill="#99D2BD" id="OLF" d="m372 221-1 1 1-1ZM85 222l1 1-1-1Z"/><path fill="#97D6F9" id="STR" d="m147 222-1 1 1-1Z"/><path fill="#99D2BD" id="OLF" d="m371 222-1 1 1-1Z"/><path fill="#97D6F9" id="STR" d="m145 223-1 1 1-1Z"/><path fill="#A8A9AA" id="V3" d="M227 223h2c0 8.385-2 7.995-2 0Z"/><path fill="#C8CBCC" id="ec" d="m358 223-1 1 1-1Z"/><path fill="#99D2BD" id="OLF" d="m370 223-1 1 1-1ZM87 224l3 3-3-3Z"/><path fill="#C8CBCC" id="ec" d="m99 224 2 2-2-2Z"/><path fill="#97D6F9" id="STR" d="m144 224-1 1 1-1ZM159 224l-1 1 1-1Z"/><path fill="#99D2BD" id="OLF" d="m369 224-1 1 1-1Z"/><path fill="#97D6F9" id="STR" d="M142 225c-1.238 0-3 .423-3 2 1.238 0 3-.423 3-2ZM158 225l-1 1 1-1Z"/><path fill="#C8CBCC" id="ec" d="m356 225-1 2 1-2Z"/><path fill="#99D2BD" id="OLF" d="m368 225-1 1 1-1Z"/><path fill="#97D6F9" id="STR" d="m164 278 2 1c-11.959 0-23.438 2.062-32-6.5l-6-4.5c0-8.06-6-17.51-6-18 0-1.738-.686-6-3-6v-1l-4-4c0-1.577-1.762-2-3-2l-1-2c.716 0 3 2.373 3 0h10.5c3.852-1.926 10.196-8 14.5-8 0 2.961-5.476 4.452-7 7.5-.932 1.863 4.514 1.993 5.5 1.5 5.266-2.633 13.535-10 19.5-10l-5 5-17 7c-2.373 0-18-3.658-18 .5l4.5 4.5c3.32 3.32 9.258 9.871 15 7l4.5-3v2l-4 6-2 2.5 1 4.5-3.5-1c-4.352 2.176.273 8.636 3 10 6.988 3.494 9.972 4 17.5 4 0 2.763 8.651 3 11 3Z"/><path fill="#C8CBCC" id="ec" d="M111 235c.716 0 3 2.373 3 0-4.926 0-9.113-8-13-8v1l3 3c2.46 0 4.17 4 7 4ZM353 229h2v-2l-2 2Z"/><path fill="#99D2BD" id="OLF" d="m366 227-1 1 1-1ZM101 233v2c-1.819 0-10-5.459-10-7 3.239 0 4.575 3 8 3l2 2Z"/><path fill="#8AD987" id="CTXsp" d="M101 231h3l-3-3v3Z"/><path fill="#FE5346" id="PD" d="m210 231-3 1-1-3 1-1c2.041 0 3 .959 3 3ZM247 231c0 1.473 1.952 1 3 1l1-2-2-2c-2.293 0-2 .997-2 3Z"/><path fill="#99D2BD" id="OLF" d="m365 228-1 1 1-1Z"/><path fill="#E64438" id="HY" d="m207 232-6 1 5-4 1 3Z"/><path fill="#C8CBCC" id="ec" d="M351 231h2v-2l-2 2Z"/><path fill="#8AD987" id="CTXsp" d="m357 231-1 2c-1.481 0-.785-2-3-2v-2h2l2 2ZM362 229l-1 1 1-1Z"/><path fill="#99D2BD" id="OLF" d="M356 233v2l8-6h-2l-1 1-4 1-1 2Z"/><path fill="#FF5346" id="MPO" d="M201 271h6l2-1 1-1v-2c-5.901 0-6.187-21.126-4-25.5 1.533-3.067 4.311-4.906 7.5-6.5 1.046-.523 3.5.951 3.5-1 0-5.499-3.869-3-7-3l-3 1-6 1h-2c0 2.942-7 .898-7 3 0 3.8.285 12.071 2 15.5 2.056 4.112-1 11.536-1 15.5v1c3.863 0 6.505 3 8 3ZM248 270c1.819 0 4.591 1 7 1 2.404 0 4.649-3 8-3v-27.5l2-4.5c-1.246 0-8-1.554-8-3h-2l-5-1c-1.048 0-3 .473-3-1-2.809 0-8-2.77-8 3 0 2.064 3.353.426 4.5 1 3.575 1.788 5.846 5.193 7.5 8.5 2.035 4.069.186 23.5-5 23.5l1 3h1Z"/><path fill="#E64438" id="HY" d="m250 232 5 1-4-3-1 2Z"/><path fill="#7ECDF8" id="FS" d="m303 230 18.5 8c2.575 1.288 15.599-4.302 17.5-.5 1.045 2.09-2.701 3.701-4 5-3.629 3.629-9.392 10.554-15.5 7.5l-4.5-3-12-17Z"/><path fill="#8AD987" id="CTXsp" d="M101 231v2l-2-2h2Z"/><path fill="#A0ED9D" id="EPv" d="m121 250-2 1-4.5-4c-2.867-1.434-13.5-9.215-13.5-12v-4h3c2.46 0 4.17 4 7 4l1 2c0 2.293.997 2 3 2 0 1.366 2.366 4 4 4v1c0 1.974 2 3.517 2 6Z"/><path fill="#7ECDF8" id="FS" d="m142 246-1 1-4.5 3c-5.742 2.871-11.68-3.68-15-7l-4.5-4.5c0-4.158 15.627-.5 18-.5l17-7-10 15Z"/><path fill="#F2473B" id="LPO" d="m193 267-2 1c0-3.806-13.047-11-16-11l-2-4c9.549 0 6-10.685 6-16l5-6 4 1 4 4c0 3.8.285 12.071 2 15.5 2.056 4.112-1 11.536-1 15.5ZM263 267h3c1.835 0 10.064-10 15-10l2-4-2.5-2c-6.743-3.372-3.5-7.937-3.5-14 0-2.188-2.771-6-5-6l-4 1-1 1-2 3-2 4.5V267Z"/><path fill="#C8CBCC" id="ec" d="m345 235-1 1-2-1 9-4c0 2.177-4.336 4-6 4Z"/><path fill="#A0ED9D" id="EPv" d="m335 250 2 1c2.831 0 14.591-10.683 16-13.5l3-2.5v-2c-1.481 0-.785-2-3-2h-2c0 2.177-4.336 4-6 4v2c0 1.577-1.762 2-3 2l-1 1-1 1-1 1-1 1-1 1c0 1.238-.423 3-2 3v3Z"/><path fill="#E64438" id="HY" d="M199 233c0 2.942-7 .898-7 3l-4-4c2.998 0 7.358 1 11 1ZM268 232l-1 1 1-1ZM267 233l-2 3c-1.246 0-8-1.554-8-3h10Z"/><path fill="#FD4C3E" id="MPN" d="M215 267h6v-1l1-1c1.043 0 2-5.353 2-6.5V237c-2.087 0-4.393-3-7-3 0 1.951-2.454.477-3.5 1-3.189 1.594-5.967 3.433-7.5 6.5-2.187 4.374-1.901 25.5 4 25.5h5ZM242 267h4c5.186 0 7.035-19.431 5-23.5-1.654-3.307-3.925-6.712-7.5-8.5-1.147-.574-4.5 1.064-4.5-1-2.981 0-5.638 4-7 4v19.5c.952 1.904 3 7.602 3 9.5h7Z"/><path fill="#97D6F9" id="STR" d="M344 236h1v-1l-1 1Z"/><path fill="#8AD987" id="CTXsp" d="M344 237h1v-1h-1v1Z"/><path fill="#80BEE2" id="IA" d="M112 237c1.238 0 3 .423 3 2-2.003 0-3 .293-3-2ZM345 237c0 1.577-1.762 2-3 2 0-1.747.253-2 2-2h1Z"/><path fill="#8AD987" id="CTXsp" d="m115 239 4 4c-1.634 0-4-2.634-4-4ZM342 239l-1 1 1-1ZM341 240l-1 1 1-1ZM339 242l-1 1 1-1ZM338 243l-1 1 1-1ZM121 250h1c0-1.738-.686-6-3-6 0 1.974 2 3.517 2 6ZM337 244c-1.577 0-2 1.762-2 3 1.577 0 2-1.762 2-3Z"/><path fill="#97D6F9" id="STR" d="m142 246-1 1 1-1Z"/><path fill="#8599CC" id="PAL" d="M137 255h5c0-1.564-1-3.876-1-6l-4 6Z"/><path fill="#99D2BD" id="OLF" d="m128 268-3 5v-10.5l-6-11.5 2-1h1c0 .49 6 9.94 6 18Z"/><path fill="#8599CC" id="PAL" d="M314 255h5c0-1.238-1.923-5-3-5l-2 5Z"/><path fill="#99D2BD" id="OLF" d="m328 268 3 4c0-9.569 6-16.996 6-21l-2-1c-3.948 0-7 14.346-7 18Z"/><path fill="#E64438" id="HY" d="M173 257h2l-2-4-2 1 2 3ZM281 257l3 1 1-4-2-1-2 4Z"/><path fill="#8599CC" id="PAL" d="m173 257-1 2-4-4 3-1 2 3ZM284 258l1 1 4-4-4-1-1 4Z"/><path fill="#A2B1D8" id="MA" d="M153 275c0 2.763 8.651 3 11 3l7-4c0-4.425 1-9.961 1-15l-4-4h-31l-2 2.5 1 4.5c0 2.654 11.355 5.928 13.5 7 1.088.544 6.624 6 3.5 6ZM303 275c0 3.229-7.645 3-10 3l-8-4v-15l4-4h30c0 1.835 2 4.235 2 7l-1 1c-5.105 0-17 8.009-17 12Z"/><path fill="#96A6D3" id="NDB" d="m189 278-1 1c-7.439 0-15.39-5-17-5 0-4.425 1-9.961 1-15l1-2h2c2.953 0 16 7.194 16 11v2c0 3.138-2 5.662-2 8ZM267 278l1 1c3.579 0 17-1.162 17-5v-15l-1-1-3-1c-4.936 0-13.165 10-15 10l-1 3 2 8Z"/><path fill="#A8A9AA" id="V3" d="M225 271h6l-2-5.5-.5-5.5-.5 3.5-3 7.5Z"/><path fill="#80C0E2" id="AAA" d="m136 262-3.5-1c-4.352 2.176.273 8.636 3 10 6.988 3.494 9.972 4 17.5 4 3.124 0-2.412-5.456-3.5-6-2.145-1.072-13.5-4.346-13.5-7ZM320 263c-5.105 0-17 8.009-17 12 5.811 0 9.866.817 15.5-2 2.699-1.349 11.148-9.426 6-12l-3.5 1-1 1Z"/><path fill="#97D6F9" id="STR" d="m321 262-1 1 1-1Z"/><path fill="#E64438" id="HY" d="m222 265-1 1 1-1ZM193 268l-2 2v-2l2-1v1ZM215 267c0 1.638-3.576 2-5 2v-2h5Z"/><path fill="#FD5545" id="VMPO" d="M203 279h6c0-.92 7.952-4 9-4 0-2.695 3-5.13 3-8h-6c0 1.638-3.576 2-5 2l-1 1-2 1-4 4v4ZM238 275c4.914 0 9.16 4 15 4 0-5.953-5-6.635-5-9h-1l-5-3h-7c0 1.992 3 3.512 3 8Z"/><path fill="#E64438" id="HY" d="m246 267 1 3-5-3h4ZM263 268l2 2 1-3h-3v1Z"/><path fill="#7FCCF7" id="OT" d="M170 291c-4.527 0-15.248 10.626-26.5 5-1.535-.767-8.5-1.845-8.5-4l-1-1h-1c0-2.274-3.656-6-6-6 0-1.477-2-5.699-2-9v-3l3-5 6 4.5c8.562 8.562 20.041 6.5 32 6.5 5.825 0 8 2.175 8 8l-1 1-1 1-1 1-1 1Z"/><path fill="#FE5546" id="VLPO" d="m202 279-4 1c-3.222 0-6.277-1-9-1v-1c0-2.338 2-4.862 2-8l2-2c3.863 0 6.505 3 8 3l2 4v2l-1 2ZM267 279c-2.389 0-5.987 1-9 1l-3-1v-8c2.404 0 4.649-3 8-3l2 2 2 8v1Z"/><path fill="#7FCCF7" id="OT" d="m322 292-1 1-8.5 4c-6.438 3.219-18.218-1.609-23-4l-6.5-6c0-4.963.144-8 7-8h22.5c3.218-1.609 5.705-4.352 9-6 1.448-.724 6.5-2.768 6.5-5l3 4v2l1 2v2c0 2.971-3 4.768-3 7-2.226 0-4 1.774-4 4l-1 1-1 1-1 1Z"/><path fill="#E64438" id="HY" d="m210 269-1 1 1-1ZM209 270l-2 1 2-1ZM253 279h2v-8c-2.409 0-5.181-1-7-1 0 2.365 5 3.047 5 9ZM207 271l-4 4-2-4h6Z"/><path fill="#CAC7CB" id="fiber tracts" fill-rule="evenodd" d="M198 280c0 2.154-3.059 7.22.5 9 1.09.545 26.104.948 28 0l2-2 1 2c2.014 1.007 27.698.651 29 0 4.287-2.144-.5-6.795-.5-9l-3-1h-2c-5.84 0-10.086-4-15-4l-6-3h-8l-1 1-5 2c-1.048 0-9 3.08-9 4h-7l-4 1m11-1c0 3.573-14.266-1.032-10 7.5 1.866 3.733 11.114.5 14 .5 11.252 0 24.554-4.473 35.5 1 2.53 1.265 8.276-.052 9.5-2.5 2.671-5.342-13.607-6.054-16.5-7.5-4.829-2.414-8.047-4-14-4-7.325 0-11.359 5-18.5 5Z"/><path fill="#8599CC" id="PAL" d="M188 279c0 3.668-11.365 8-14 8 0-5.825-2.175-8-8-8l-2-1 7-4c1.61 0 9.561 5 17 5Z"/><path fill="#CBCACC" id="och" d="M209 279c0 3.573-14.266-1.032-10 7.5 1.866 3.733 11.114.5 14 .5 11.252 0 24.554-4.473 35.5 1 2.53 1.265 8.276-.052 9.5-2.5 2.671-5.342-13.607-6.054-16.5-7.5-4.829-2.414-8.047-4-14-4-7.325 0-11.359 5-18.5 5Z"/><path fill="#8599CC" id="PAL" d="M290 279c-6.856 0-7 3.037-7 8-2.768 0-15-4.221-15-8 3.579 0 17-1.162 17-5l8 4c-1.048 0-3-.473-3 1Z"/><path fill="#99D2BD" id="OLF" d="m331 274 1 2-1-2ZM125 288l3 1-1-4c0-1.477-2-5.699-2-9-1.951 0-.477 2.454-1 3.5l-4 5.5c2.565 0 5-.236 5 3Z"/><path fill="#E64438" id="HY" d="M202 279h1v-2l-1 2ZM188 279h1v-1l-1 1ZM267 279h1l-1-1v1Z"/><path fill="#99D2BD" id="OLF" d="m329 288 3 1c0-4.386.827-4 4-4l-4-7c0 2.971-3 4.768-3 7v3Z"/><path fill="#CAC8C7" id="lot" d="m125 288-1 1-4.5 2c-3.939 1.969-9.152-2.576-12-4l-2.5-2 .5-3c1.919 0 8.344 3 14.5 3 2.565 0 5-.236 5 3ZM336 285c-3.173 0-4-.386-4 4l4.5 2c4.018 2.009 9.088-2.544 12-4l3.5-3c0-1.156-2.555-1.472-3.5-1-4.124 2.062-7.467 2-12.5 2Z"/><path fill="#97D6F9" id="STR" d="M128 289c2.25 0 3.376 2 5 2 0-2.274-3.656-6-6-6l1 4ZM325 289h3l1-1v-3c-2.226 0-4 1.774-4 4Z"/><path fill="#8599CC" id="PAL" d="m174 287-1 1 1-1Z"/><path fill="#99D2BD" id="OLF" d="m125 288-1 1 1-1Z"/><path fill="#8599CC" id="PAL" d="m173 288-1 1 1-1Z"/><path fill="#99D2BD" id="OLF" d="m329 288-1 1 1-1Z"/><path fill="#97D6F9" id="STR" d="m325 289-1 1 1-1ZM171 290l-1 1 1-1ZM324 290l-1 1 1-1ZM134 291l1 1-1-1ZM323 291l-1 1 1-1ZM322 292l-1 1 1-1Z"/></svg>