<svg xmlns="http://www.w3.org/2000/svg" viewBox="0 0 456 320"><path fill="#1E9C59" id="MOs1" d="m225 59-4 2-4.5-6c-3.494-1.747-7.897-4.948-12-7-9.597-4.798-26.78 5-36.5 5v-6c3.976 0 9.069-2.285 12.5-4h9c8.512-4.256 25.492.484 29.5 8.5l6 7.5ZM235 62h1c0-3.476 4.663-7.582 7.5-9 7.952-3.976 16.761-8.62 26-4h5c3.902 1.951 8.884 4 13.5 4v-6l-12.5-4h-8c-9.211-4.606-26.098.696-30.5 9.5-.864 1.728-5 3.581-5 6.5l3 3Z"/><path fill="#1E9D5A" id="MOp1" d="M108 83h1c0-3.135 11.195-7.847 13.5-9 9.334-4.667 36.079-20 45.5-20v-7c-7.263 0-37.349 16.925-45.5 21-2.045 1.022-13.5 5.729-13.5 8l-1 5v2Z"/><path fill="#1E9D58" id="MOs2/3" d="m215 66-4.5-5c-3.295-1.647-13.753-4.124-18-2L167 71c0-5.022 1-10.64 1-17v-1c9.72 0 26.903-9.798 36.5-5 4.103 2.052 8.506 5.253 12 7l4.5 6v1l-6 4ZM242 66c0-2.072 1.965-2.465 3-3.5 9.176-9.176 25.974-.763 34.5 3.5 2.644 1.322 6.489 5 9.5 5 0-6.9-1-10.784-1-17v-1c-4.616 0-9.598-2.049-13.5-4h-5c-9.239-4.62-18.048.024-26 4-2.837 1.418-7.5 5.524-7.5 9 0 1.028 4.666 4 6 4Z"/><path fill="#1E9D5A" id="MOp1" d="m349 81-1 1c-3.613 0-14.54-9.02-18.5-11-7.665-3.832-33.977-17-41.5-17v-7c8.915 0 38.141 17.32 47.5 22 1.938.969 12.5 4.782 12.5 7 0 2.343-1.765 4 1 4v1Z"/><path fill="#1F9C58" id="MOp2/3" d="M109 99c0 1.296.825 7 2 7l12.5-11c10.933-5.466 21.194-12.597 32-18 3.038-1.519 8.137-6 11.5-6 0-5.022 1-10.64 1-17-9.421 0-36.166 15.333-45.5 20-2.305 1.153-13.5 5.865-13.5 9v16ZM348 99c-.816 0-2 7.019-2 8l-11.5-11c-8.778-4.389-37.73-25-45.5-25 0-6.9-1-10.784-1-17 7.523 0 33.835 13.168 41.5 17 3.96 1.98 14.887 11 18.5 11v17Z"/><path fill="#1F9D58" id="MOs5" d="M199 81c-2.579 0-5.997-3.752-9.5-2-4.698 2.35-19.168 12-23.5 12 0-5.537 1-12.89 1-20l25.5-12c4.247-2.124 14.705.353 18 2l4.5 5v1c-4.582 0-14.524 14-16 14Z"/><path fill="#3EA665" id="ACAd1" d="M223 92c3.642 0 8.002 1 11 1 0-10.355 1-21.268 1-31l-3-3-3.5 5-2-3-1.5-2-4 2v1c0 2.722.836 6.171 2 8.5V92Z"/><path fill="#1F9D58" id="MOs5" d="m258 81 2.5-2c2.802-1.401 8.909.954 11 2L290 91c0-6.736-1-12.313-1-20-3.011 0-6.856-3.678-9.5-5-8.526-4.263-25.324-12.676-34.5-3.5-1.035 1.035-3 1.428-3 3.5v1c1.768 0 15 12.517 15 14h1Z"/><path fill="#40A565" id="ACAd2/3" d="M223 93c-2.124 0-4.436 1-6 1V70.5l-2-3.5v-1l6-4c0 2.722.836 6.171 2 8.5V93ZM234 93h5l1-20.5c0-1.532.173-5.5 2-5.5v-1c-1.334 0-6-2.972-6-4h-1c0 9.732-1 20.645-1 31Z"/><path fill="#3EA566" id="ACAd5" d="M217 94c-5.095 0-12.139 8-15 8 0-3.505.706-20-3-20v-1c1.476 0 11.418-14 16-14l2 3.5V94ZM239 94c5.712 0 10.066 7 15 7l1-16.5 2-3.5c0-1.483-13.232-14-15-14-1.827 0-2 3.968-2 5.5L239 93v1Z"/><path fill="#1E9C5A" id="MOp5" d="M110 108c.324 0 3 12.729 3 14 1.233 0 11.28-11.39 14.5-13 6.716-3.358 32.702-18 38.5-18 0-5.537 1-12.89 1-20-3.363 0-8.462 4.481-11.5 6-10.806 5.403-21.067 12.534-32 18L111 106l-1 2ZM346 107c0 1.978-1.363 14-3 14l-14.5-12c-7.941-3.971-29.562-17-37.5-17l-1-1c0-6.736-1-12.313-1-20 7.77 0 36.722 20.611 45.5 25l11.5 11Z"/><path fill="#197E64" id="SSp-ul1" d="m105 78 3 3 1-5-4 2ZM351 78c0 1.747-.253 2-2 2-2.765 0-1-1.657-1-4l3 2Z"/><path fill="#187E61" id="SSp-m1" d="M66 167h5v-1c-1.684 0-1-4.679-1-6l1-20.5c2.138-4.277 1.888-9.775 4-14 5.589-11.178 9.834-21.834 19.5-31.5 3.01-3.01 9.384-11 13.5-11v-2l-3-3c-2.86 0-16.52 12.54-18 15.5-2.922 5.844-8.135 10.27-11 16-5.478 10.956-6.027 28.055-11 38-2.441 4.882 1 14.878 1 19.5ZM386 166l5 1c0-19.393-1.524-39.547-10-56.5-2.493-4.986-6.479-8.957-9-14-2.015-4.03-16.992-18.5-21-18.5 0 1.747-.253 2-2 2v1l-1 1v1c3.537 0 17.248 13.996 19 17.5 1.009 2.019 4.628 4.256 6 7 11.037 22.075 13 33.2 13 58.5Z"/><path fill="#1D9C5A" id="MOs6a" d="M166 111h3c0-1.682 14.44-5 17-5h1c0-3.796 8.756-24 12-24v-1c-2.579 0-5.997-3.752-9.5-2-4.698 2.35-19.168 12-23.5 12v20ZM270 106c7.076 0 13.513 5 20 5 0-7.247 1-12.037 1-19l-1-1-18.5-10c-2.091-1.046-8.198-3.401-11-2l-2.5 2c0 4.86 12 17.378 12 25Z"/><path fill="#3FA664" id="ACAd6a" d="M263 111h1l1-1 1-1 1-1 2-1 1-1c0-7.622-12-20.14-12-25h-1l-2 3.5-1 16.5v1c2.41 0 9 7.03 9 9Z"/><path fill="#197E64" id="SSp-ul1" d="m349 81-1 1 1-1Z"/><path fill="#3FA664" id="ACAd6a" d="m187 106 6 4 9-8c0-3.505.706-20-3-20-3.244 0-12 20.204-12 24Z"/><path fill="#1A7E64" id="SSp-m2/3" d="M80 165c-3.222 0-6.277 1-9 1-1.684 0-1-4.679-1-6l1-20.5c2.138-4.277 1.888-9.775 4-14 5.589-11.178 9.834-21.834 19.5-31.5 3.01-3.01 9.384-11 13.5-11h1v16c-6.066 0-12.846 11.191-15 15.5-8.108 16.215-14 29.709-14 49.5v1ZM376 165l10 1c0-25.3-1.963-36.425-13-58.5-1.372-2.744-4.991-4.981-6-7-1.752-3.504-15.463-17.5-19-17.5v16c0 1.988 3.315 2.408 4.5 3 3.816 1.908 7.825 7.15 9.5 10.5 8.345 16.69 14 31.113 14 51.5v1Z"/><path fill="#1F9B5A" id="MOp6a" d="m121 168-6 1c0-1.712-.768-12-2-12 0-9.46 2-14.388 2-24l-2-10v-1c1.233 0 11.28-11.39 14.5-13 6.716-3.358 32.702-18 38.5-18v21l-1 1c-1.664 0-6 1.823-6 4-6.789 0-10.813 7.157-16.5 10-16.731 8.365-21.5 22.569-21.5 40v1Z"/><path fill="#40A664" id="ACAv1" d="M222 139h1c0-2.289.965-10 4-10 0-5.123 2-7.54 2-1 3.526 0 3.134 9 5 9V93c-2.998 0-7.358-1-11-1v1c0 15.179-1 30.916-1 46Z"/><path fill="#1F9B5A" id="MOp6a" d="m336 168 5 1c1.085 0 2-8.28 2-11 0-8.552-3-15.889-3-23.5 0-.487 3-7.715 3-11.5v-2l-14.5-12c-7.941-3.971-29.562-17-37.5-17 0 6.963-1 11.753-1 19v1c5.149 0 10.998 6.749 15.5 9 18.94 9.47 30.5 23.9 30.5 46v1Z"/><path fill="#3FA566" id="ACAv2/3" d="M219 139h3c0-15.084 1-30.821 1-46-2.124 0-4.436 1-6 1 0 15.497 2 30.379 2 45ZM234 139h4c0-14.698 1-29.789 1-45v-1h-5v46Z"/><path fill="#3EA666" id="ACAv5" d="M211 136c0 2.16 6.07 3 8 3 0-14.621-2-29.503-2-45-5.095 0-12.139 8-15 8 0 8.238 1.508 19.517 5 26.5 1.07 2.139 4 5.078 4 7.5ZM245 136c0 1.732-5.353 3-7 3 0-14.698 1-29.789 1-45 5.712 0 10.066 7 15 7v1l-1 16.5c-2.2 4.401-6 10.361-6 15.5l-1 1-1 1Z"/><path fill="#1B7F62" id="SSp-m4" d="m87 163-7 1c0-19.791 5.892-33.285 14-49.5 2.154-4.309 8.934-15.5 15-15.5 0 1.296.825 7 2 7l-1 2c-3.547 0-8.81 10.12-10 12.5-6.77 13.538-13 26.153-13 42.5ZM370 163l6 1c0-20.387-5.655-34.81-14-51.5-1.675-3.35-5.684-8.592-9.5-10.5-1.185-.592-4.5-1.012-4.5-3-.816 0-2 7.019-2 8 2.144 0 8.018 9.536 9 11.5 6.975 13.95 15 27.793 15 44.5Z"/><path fill="#40A564" id="ACAv6a" d="m203 129 8 7c0-2.422-2.93-5.361-4-7.5-3.492-6.983-5-18.262-5-26.5l-9 8v1c0 6.627 10 11.164 10 18ZM253 129c0 1.901-4.332 5-6 5 0-5.139 3.8-11.099 6-15.5l1-16.5c2.41 0 9 7.03 9 9 0 6.796-10 11.517-10 18Z"/><path fill="#1E9C58" id="MOs6b" d="m186 107-17 4c0-1.682 14.44-5 17-5v1Z"/><path fill="#3FA466" id="ACAd6b" d="M192 111h1v-1l-6-4h-1v1l6 4ZM269 107h1v-1l-1 1Z"/><path fill="#1E9C58" id="MOs6b" d="M290 112v1c-3.11 0-14.257-6-20-6v-1c7.076 0 13.513 5 20 5v1Z"/><path fill="#CACCC7" id="cing" d="M169 115c7.613 0 11.452-6.024 19.5-2 5.116 2.558 6.432 16 13.5 16 0-6.097-10-11.22-10-18l-6-4-17 4c0 1.577-1.762 2-3 2h-1l-2 2c0 1.643 3.765 1 5 1l1-1Z"/><path fill="#3FA466" id="ACAd6b" d="m269 107-2 1 2-1Z"/><path fill="#CACCC7" id="cing" d="M288 116h1c1.145 0 4 .579 4-1l-3-2c-3.11 0-14.257-6-20-6h-1l-2 1-1 1-1 1v1c0 5.056-11 14.56-11 18 7.65 0 8.395-13.447 15.5-17 6.648-3.324 11.373 3 17.5 3l1 1Z"/><path fill="#1B7E63" id="SSp-m5" d="M354 160c5.681 0 10.635 3 16 3 0-16.707-8.025-30.55-15-44.5-.982-1.964-6.856-11.5-9-11.5 0 1.978-1.363 14-3 14v2c2.268 0 4.228 5.956 5 7.5 4.754 9.508 6 17.889 6 29.5ZM102 160c-5.1 0-9.504 3-15 3 0-16.347 6.23-28.962 13-42.5 1.19-2.38 6.453-12.5 10-12.5.324 0 3 12.729 3 14v1l-5 8.5c-4.383 8.766-6 17.924-6 28.5Z"/><path fill="#3FA466" id="ACAd6b" d="m267 108-1 1 1-1ZM266 109l-1 1 1-1ZM264 111h1v-1l-1 1Z"/><path fill="#1E9C58" id="MOs6b" d="M166 112v1c1.238 0 3-.423 3-2h-3v1Z"/><path fill="#CCC7C9" id="ccg" d="M223 139c0 5.154 3 9.23 3 15-24.883 0-25.353-17.927-43.5-27-5.703-2.852-24.297-2.851-30 0l-9.5 4c0-.834 15.426-10.963 17.5-12 1.272-.636 7.5-1.45 7.5-3l1-1c7.613 0 11.452-6.024 19.5-2 5.116 2.558 6.432 16 13.5 16h1l8 7c0 2.16 6.07 3 8 3h4Z"/><path fill="#40A465" id="ACAv6b" d="M202 129h1c0-6.836-10-11.373-10-18h-1c0 6.78 10 11.903 10 18ZM253 129h1c0-3.44 11-12.944 11-18h-2c0 6.796-10 11.517-10 18Z"/><path fill="#CCC7C9" id="ccg" d="M234 139h4c1.647 0 7-1.268 7-3l1-1 1-1c1.668 0 6-3.099 6-5h1c7.65 0 8.395-13.447 15.5-17 6.648-3.324 11.373 3 17.5 3l1 1h1l6.5 3c3.028 1.514 22.5 13.086 22.5 16l-8.5-6c-8.31-4.155-26.042-6.479-35-2-17.443 8.721-20.483 27-43.5 27 0-6.925 3-11.647 3-15Z"/><path fill="#1D9D5A" id="MOp6b" d="M165 113h1v-1l-1 1ZM334 167h2c0-22.1-11.56-36.53-30.5-46-4.502-2.251-10.351-9-15.5-9v1l3 2c3.507 0 12.868 9.184 16.5 11 16.597 8.298 24.5 22.995 24.5 41ZM163 115l-4 2c0-2.177 4.336-4 6-4l-2 2Z"/><path fill="#C9C9CA" id="scwm" d="M123 163h1v-1c0-1.235-.643-5 1-5v-2c0-1.048-.473-3 1-3v-1l1-1c0-3.44 4-5.253 4-8l1-1 2-2 1-1 1-1 1-1 1-1 1-1 2-1c0-1.747.253-2 2-2 0-.834 15.426-10.963 17.5-12 1.272-.636 7.5-1.45 7.5-3-1.235 0-5 .643-5-1l-4 2c0 .653-15.392 10.946-17.5 12-12.29 6.145-18.5 21.236-18.5 34ZM169 115l-1 1 1-1ZM287 115l1 1-1-1ZM334 167c0 1.048.473 3-1 3v-7c0-1.257-.941-8-2-8v-2l-1-2-3-7-2-2-5-5-1-1-1-1c0-2.914-19.472-14.486-22.5-16l-6.5-3c1.145 0 4 .579 4-1 3.507 0 12.868 9.184 16.5 11 16.597 8.298 24.5 22.995 24.5 41Z"/><path fill="#1D9D5A" id="MOp6b" d="M121 167h2v-4c0-12.764 6.21-27.855 18.5-34 2.108-1.054 17.5-11.347 17.5-12-6.789 0-10.813 7.157-16.5 10-16.731 8.365-21.5 22.569-21.5 40Z"/><path fill="#187D61" id="SSp-m6a" d="M102 160h1c0-.586 8.833-3 10-3 0-9.46 2-14.388 2-24l-2-10-5 8.5c-4.383 8.766-6 17.924-6 28.5ZM343 158c3.978 0 7.549 2 11 2 0-11.611-1.246-19.992-6-29.5-.772-1.544-2.732-7.5-5-7.5 0 3.785-3 11.013-3 11.5 0 7.611 3 14.948 3 23.5Z"/><path fill="#CAC7CC" id="fa" d="m126 171-3 1v-8l1-1v-1c1.643 0 1-3.765 1-5v-2c1.473 0 1-1.952 1-3v-1l1-1c0-3.44 4-5.253 4-8l1-1 2-2 1-1 1-1 1-1 1-1 1-1 2-1 2-2 9.5-4c5.703-2.851 24.297-2.852 30 0 18.147 9.073 18.617 27 43.5 27l-2 3h-1l-4.5-1-3.5 2-6.5 3-3.5-4c0-4.611-5.312-15-11-15l-6.5-7c-4.895-2.448-10.204-3.602-15-6-4.04-2.02-13.86.43-17 2h-4c-19.232 9.616-25.5 18.195-25.5 40ZM331 171l2 1v-9c-1.931 0-2-6.225-2-8v-2l-1-2-3-7-2-2-5-5-1-1-1-1-8.5-6c-8.31-4.155-26.042-6.479-35-2-17.443 8.721-20.483 27-43.5 27 0 1.048-.473 3 1 3h1c1.283 0 8-1.985 8 1l7.5 3 2.5-2c0-5.809 3.733-16 11-16l1-1c0-7.844 26.471-16.514 33.5-13l13 4c15.725 7.862 21.5 20.973 21.5 38Z"/><path fill="#7ED04B" id="IG" d="M224 164v1c0 1.818 1.26 5.981 3 2.5 1.858-3.717 1-10.069 1-14.5 0-1.211-2.736-12 .5-12l.5 12c0 3.246-1.669 14.416 1.5 16 2.156 1.078.79-3 2.5-3v-8l-1-1c-1.473 0-1-1.952-1-3 0-6.925 3-11.647 3-15v-2c-1.866 0-1.474-9-5-9 0 2.729-.423 1-2 1-3.035 0-4 7.711-4 10 0 5.154 3 9.23 3 15l-2 3v7Z"/><path fill="#98D5F9" id="CP" d="m147 231 2 1c11.031 0 14.563-11.625 19-20.5 3.856-7.712 13.377-10.439 19.5-13.5l6.5-5 1-1c0-14.312 2-27.18 2-42l-3-8-6.5-7c-4.895-2.448-10.204-3.602-15-6-4.04-2.02-13.86.43-17 2h-4c-19.232 9.616-25.5 18.195-25.5 40 0 10.059 7 20.398 7 33l4 15v1l1 1 1 4c2.552 0 4.167 6 8 6ZM318 223c-.06 0-6.029 9-10 9-10.163 0-11.294-6.088-15-13.5l-6-9c-3.307-6.614-13.944-9.222-20.5-12.5l-4.5-4v-1c0-5.441-.625-14.751-3-19.5V150c.886 0 3-5.824 3-7l1-1c0-7.844 26.471-16.514 33.5-13l13 4c15.725 7.862 21.5 20.973 21.5 38-1.781 0-1.348 6.197-2 7.5-3.479 6.958-6 16.241-6 24.5v5c-2.273 0-2 5.226-2 7-1.473 0-1 1.952-1 3l-1 1-1 4Z"/><path fill="#CCC7C9" id="ccg" d="M143 131c-1.747 0-2 .253-2 2l2-2ZM141 133l-2 1 2-1ZM139 134l-1 1 1-1Z"/><path fill="#40A564" id="ACAv6a" d="m247 134-1 1 1-1Z"/><path fill="#CCC7C9" id="ccg" d="m138 135-1 1 1-1Z"/><path fill="#40A564" id="ACAv6a" d="m246 135-1 1 1-1Z"/><path fill="#CCC7C9" id="ccg" d="m137 136-1 1 1-1ZM319 136l1 1-1-1ZM135 138l-1 1 1-1ZM132 141l-1 1 1-1ZM228 153h1l-.5-12c-3.236 0-.5 10.789-.5 12Z"/><path fill="#AAA8A9" id="SEZ" d="m200 175-1 1c0-7.244 10.129-26-2-26l-3-8c5.688 0 11 10.389 11 15 0 6.858-5 12.103-5 18ZM263 142l-1 1 1-1Z"/><path fill="#CCC7C9" id="ccg" d="m325 142 2 2-2-2Z"/><path fill="#AAA8A9" id="SEZ" d="M256 175c2.942 0 .898 7 3 7 0-7.206-2.913-17.325-6-23.5-1.755-3.509 6-10.62 6-8.5.886 0 3-5.824 3-7-7.267 0-11 10.191-11 16l5 16Z"/><path fill="#A8AAAA" id="VL" d="m197 190-2 2c0-14.312 2-27.18 2-42 12.129 0 2 18.756 2 26-2.789 0-2 7.892-2 10v4ZM259 191l3 1c0-5.441-.625-14.751-3-19.5V150c0-2.12-7.755 4.991-6 8.5 3.087 6.175 6 16.294 6 23.5v9Z"/><path fill="#CCC7C9" id="ccg" d="m127 150-1 1 1-1ZM330 151l1 2-1-2ZM126 152c-1.473 0-1 1.952-1 3 1.473 0 1-1.952 1-3Z"/><path fill="#97D6F9" id="STR" d="m225 213 .5-4 2-4c3.524-1.762 3.517 10 5.5 10 0-7.658-2.684-37.408 6.5-42 4.75-2.375 11.9 2 16.5 2l-5-16-2.5 2-7.5-3c0 4.223-.278 7.055-2 10.5-1.255 2.511-6-.233-6-2.5-1.71 0-.344 4.078-2.5 3-3.169-1.584-1.5-12.754-1.5-16h-1c0 4.431.858 10.783-1 14.5-1.74 3.481-3-.682-3-2.5-2.205 0-.002 3.251-1.5 4-6.066 3.033-7.5-7.499-7.5-11l-6.5 3-3.5-4c0 6.858-5 12.103-5 18 4.657 0 11.984-4.258 16.5-2 8.551 4.275 7.5 30.49 7.5 40h1Z"/><path fill="#CCC7C9" id="ccg" d="M331 155c1.059 0 2 6.743 2 8-1.931 0-2-6.225-2-8Z"/><path fill="#8FCAED" id="SH" d="M224 164v1c-2.205 0-.002 3.251-1.5 4-6.066 3.033-7.5-7.499-7.5-11l3.5-2 4.5 1c0 1.406-.714 7 1 7ZM241 158c0 4.223-.278 7.055-2 10.5-1.255 2.511-6-.233-6-2.5v-9c1.283 0 8-1.985 8 1Z"/><path fill="#009B74" id="GU6a" d="m115 169-12 6v-15c0-.586 8.833-3 10-3 1.232 0 2 10.288 2 12Z"/><path fill="#CCC7C9" id="ccg" d="M125 157c-1.643 0-1 3.765-1 5 1.643 0 1-3.765 1-5Z"/><path fill="#97D6F9" id="STR" d="M224 157v7c-1.714 0-1-5.594-1-7h1ZM233 157v1l-1-1h1Z"/><path fill="#009B74" id="GU6a" d="m341 169 12 6 1-15c-3.451 0-7.022-2-11-2 0 2.72-.915 11-2 11Z"/><path fill="#019C75" id="GU5" d="M103 175c-3.486 0-12.661 6-17 6 0-5.915 1-12.755 1-18 5.496 0 9.9-3 15-3h1v15ZM353 175c5.982 0 11.546 6 18 6l-1-18c-5.365 0-10.319-3-16-3l-1 15Z"/><path fill="#009C74" id="GU4" d="M84 181h2c0-5.915 1-12.755 1-18l-7 1v1c0 3.611 1.418 9.337 3 12.5.523 1.046-.951 3.5 1 3.5Z"/><path fill="#CCC7C9" id="ccg" d="m124 163-1 1v-1h1Z"/><path fill="#009C74" id="GU4" d="M371 181h1c2.834 0 4-13.486 4-16v-1l-6-1 1 18Z"/><path fill="#009B75" id="GU2/3" d="M84 181c0 1.693-8.24 4-10 4 0-6.026-3-11.375-3-18v-1c2.723 0 5.778-1 9-1 0 3.611 1.418 9.337 3 12.5.523 1.046-.951 3.5 1 3.5ZM372 181c0 1.693 8.239 4 10 4 2.064 0 .426-3.353 1-4.5 1.881-3.762 3-10.133 3-14.5l-10-1c0 2.514-1.166 16-4 16Z"/><path fill="#009C75" id="GU1" d="m74 186-4 1-4-20h5c0 6.625 3 11.974 3 18v1ZM382 186l4 1 5-20-5-1c0 4.367-1.119 10.738-3 14.5-.574 1.147 1.064 4.5-1 4.5v1Z"/><path fill="#1F9766" id="AId6b" d="M125 181h1l-3-9v-5h-2v1c0 4.549 2 8.157 2 12l2 1ZM331 181h1l1-1c0-3.408 3-7.988 3-12v-1h-2c0 1.048.473 3-1 3v2c0 3.489-2 5.32-2 9Z"/><path fill="#209666" id="AId6a" d="m116 195-6 1c0-2.725-3.755-4.011-5-6.5-2.022-4.045-2-9.617-2-14.5l12-6 6-1c0 4.549 2 8.157 2 12-12.632 0-7 6.517-7 15ZM346 196h1c0-3.352 4.527-7.554 6-10.5V175l-12-6-5-1c0 4.012-3 8.592-3 12 13.913 0 7 6.764 7 15 2.124 0 4.436 1 6 1Z"/><path fill="#C8CBCC" id="ec" d="M130 205h2l1-1c0-12.602-7-22.941-7-33l-3 1 3 9 1 4v1c1.473 0 1 1.952 1 3 1.473 0 1 1.952 1 3v1c3.403 0 1 10.494 1 12ZM325 205h1c0-1.574-.751-9 1-9v-2c0-1.048-.473-3 1-3v-2l1-1v-1c0-1.424.362-5 2-5v-1c0-3.68 2-5.511 2-9l-2-1c-1.781 0-1.348 6.197-2 7.5-3.479 6.958-6 16.241-6 24.5l2 2Z"/><path fill="#90CAED" id="LSr" d="M214 218v1c1.317 0 1.788 3.356 4.5 2l4.5-4v-1l1-2v-1c0-9.51 1.051-35.725-7.5-40-4.516-2.258-11.843 2-16.5 2l-1 1-1 8c5.052 0 11.457 16.022 9.5 17l-2.5-1v1l1 1 2 4 1 1 1 3 1 1 1 3 1 1v2l1 1ZM243 218l-1 2-2.5 2-6.5-6v-1c0-7.658-2.684-37.408 6.5-42 4.75-2.375 11.9 2 16.5 2 2.942 0 .898 7 3 7v3l-2.5-1c-3.981 1.991-11.546 17-5.5 17v1l-1 1-1 1v1l-1 1-1 3-1 1-1 3-1 1-1 4Z"/><path fill="#209665" id="AId5" d="M91 201h2l17-5c0-2.725-3.755-4.011-5-6.5-2.022-4.045-2-9.617-2-14.5-3.486 0-12.661 6-17 6 0 7.379 5 13.545 5 20ZM364 201h1c0-4.953 6-13.501 6-20-6.454 0-12.018-6-18-6v10.5c-1.473 2.946-6 7.148-6 10.5l17 5Z"/><path fill="#AAA8A9" id="SEZ" d="m198 184-1 2c0-2.108-.789-10 2-10l-1 8Z"/><path fill="#8ADA86" id="CLA" d="M129 193c0 6.265-1.883 13.808-9.5 10-1.784-.892-2.048-8-3.5-8 0-8.483-5.632-15 7-15l2 1c0 1.465-.109 4 2 4v1c0 1.048-.473 3 1 3 0 1.048-.473 3 1 3v1ZM340 195c0 10.251-13 11.803-13 1v-2c1.473 0 1-1.952 1-3v-1l1-1v-2c1.638 0 2-3.576 2-5l1-1 1-1c13.913 0 7 6.764 7 15Z"/><path fill="#209765" id="AId2/3" d="M91 201c0 1.373-8.535 3-10 3 0-2.361-3.832-9.163-5-11.5-.567-1.134-.546-6.5-2-6.5v-1c1.76 0 10-2.307 10-4h2c0 7.379 5 13.545 5 20Z"/><path fill="#209666" id="AId6a" d="m126 181 1 4c-2.109 0-2-2.535-2-4h1ZM332 181l-1 1v-1h1Z"/><path fill="#209765" id="AId2/3" d="M375 204h1l6-18v-1c-1.761 0-10-2.307-10-4h-1c0 6.499-6 15.047-6 20 0 .96 8.65 3 10 3Z"/><path fill="#209666" id="AId6a" d="M331 182c-1.638 0-2 3.576-2 5 1.638 0 2-3.576 2-5Z"/><path fill="#8FCBED" id="LSv" d="m204 198 1 2 2.5 1c1.957-.978-4.448-17-9.5-17l-1 2v4l6 7 1 1ZM251 200v1c-6.046 0 1.519-15.009 5.5-17l2.5 1v6l-1 2-3 3-1 1-1 1-1 1-1 1Z"/><path fill="#209764" id="AId1" d="m81 204-4 1c-1.183 0-1.535-3.57-2-4.5-1.782-3.565-5-9.418-5-13.5l4-1c1.454 0 1.433 5.366 2 6.5 1.168 2.337 5 9.139 5 11.5Z"/><path fill="#209666" id="AId6a" d="M127 186c1.473 0 1 1.952 1 3-1.473 0-1-1.952-1-3Z"/><path fill="#209764" id="AId1" d="m376 204 4 1c0-5.865 6-11.561 6-18l-4-1-6 18Z"/><path fill="#209666" id="AId6a" d="M328 189h1v-1l-1 1Z"/><path fill="#1F9866" id="AIv6a" d="M128 189c1.473 0 1 1.952 1 3-1.473 0-1-1.952-1-3ZM329 189l-1 1v-1h1Z"/><path fill="#97D6F9" id="STR" d="M194 193c4.691 0 7.12 4 9 4l-6-7-2 2-1 1ZM258 193h4v-1l-3-1-1 2Z"/><path fill="#1F9866" id="AIv6a" d="M328 191c-1.473 0-1 1.952-1 3 1.473 0 1-1.952 1-3ZM117 209h3l1-1c0-3.01 6.675-3 9-3 0-1.506 2.403-12-1-12 0 6.265-1.883 13.808-9.5 10-1.784-.892-2.048-8-3.5-8l-6 1 7 13Z"/><path fill="#80CDF8" id="ACB" fill-rule="evenodd" d="m177 210-6 6.5c-2.327 4.653 2.848 9.826 7.5 7.5 5.371-2.685 7.168-14-1.5-14m37 30-3 5.5c-1.753 3.506-6.576 10.538-10.5 12.5-5.551 2.775-11.52 4.26-17 7-8.373 4.186-34.5-4.458-34.5-16l-2-6.5c-1.411-2.822 1-7.079 1-9.5l1-1c11.031 0 14.563-11.625 19-20.5 3.856-7.712 13.377-10.439 19.5-13.5l6.5-5c4.691 0 7.12 4 9 4v1l2 2v1l1 1 2 4 1 1 1 3 1 1 1 3 1 1v2l1 1v22ZM277 210c0 1.423-4 3.034-4 5.5 0 13.601 19.858 7.858 10-2-2.103-2.103-2.996-3.5-6-3.5m-35 28c1.149 0 1.508 4.516 2 5.5l9 12c3.206 6.412 15.105 6.803 20.5 9.5 5.969 2.985 24.31-3.655 29-6 2.71-1.355 4.694-11 5.5-11 0-3.267 2-8.325 2-11.5 0-1.125-2-2.557-2-4.5-10.163 0-11.294-6.088-15-13.5l-6-9c-3.307-6.614-13.944-9.222-20.5-12.5l-4.5-4h-4l-3 3-1 1-1 1v1l-1 1-1 1v1l-1 1-1 1v1l-1 1-1 3-1 1-1 3-1 1-1 4-1 2v18Z"/><path fill="#1F9866" id="AIv6a" d="M337 209h3l6-13c-1.564 0-3.876-1-6-1 0 10.251-13 11.803-13 1-1.751 0-1 7.426-1 9 5.103 0 8.625 4 11 4Z"/><path fill="#1F9865" id="AIv5" d="m109 212-6 1c0-5.942-10-7.512-10-12l17-5 7 13c-.641 0-8 2.856-8 3Z"/><path fill="#97D6F9" id="STR" d="m255 196-1 1 1-1Z"/><path fill="#1F9865" id="AIv5" d="m347 212 6 1c0-5.118 11-8.335 11-12l-17-5h-1l-6 13c.698 0 7 2.714 7 3Z"/><path fill="#90CAED" id="LSr" d="M203 198h1l-1-1v1Z"/><path fill="#97D6F9" id="STR" d="m254 197-1 1 1-1ZM204 198l1 2-2-2h1Z"/><path fill="#90CAED" id="LSr" d="M252 199h1v-1l-1 1ZM251 200h1v-1l-1 1Z"/><path fill="#97D6F9" id="STR" d="m253 199-1 1v-1h1ZM252 200l-1 1v-1h1Z"/><path fill="#219764" id="AIv2/3" d="m103 213-15 3-7-12c1.465 0 10-1.627 10-3h2c0 4.488 10 6.058 10 12Z"/><path fill="#97D6F9" id="STR" d="m205 201 1 1-1-1Z"/><path fill="#219764" id="AIv2/3" d="m353 213 15 3c0-4.192 7-7.487 7-12-1.35 0-10-2.04-10-3h-1c0 3.665-11 6.882-11 12Z"/><path fill="#97D6F9" id="STR" d="m251 202-1 1 1-1ZM250 203l-1 1 1-1Z"/><path fill="#8AD987" id="CTXsp" d="m325 205-2 2v-4l2 2Z"/><path fill="#209864" id="AIv1" d="M88 216c0 1.643-3.766 1-5 1-1.788 0-6-10.062-6-12l4-1 7 12Z"/><path fill="#8AD987" id="CTXsp" d="M132 205c0 2.024 3.064 14 5 14l-4-15-1 1Z"/><path fill="#209864" id="AIv1" d="M368 216c1.564 0 3.876 1 6 1l6-12-4-1h-1c0 4.513-7 7.808-7 12Z"/><path fill="#A0EE9C" id="EPd" d="M126 225c2.762 0 6.755 3.873 10.5 2l2.5-2-1-4-1-1v-1c-1.936 0-5-11.976-5-14h-2c-2.325 0-9-.01-9 3l-1 1c0 2.579-3.752 5.997-2 9.5l4 4.5h1l2 2h1Z"/><path fill="#96A7D3" id="MS" d="M233 216v1c-2.286 0-2.237-8-3.5-8l-1 7-2-5-1.5 2 .5-4 2-4c3.524-1.762 3.517 10 5.5 10v1Z"/><path fill="#97D6F9" id="STR" d="m249 205-1 1 1-1Z"/><path fill="#A0EE9C" id="EPd" d="m329 226-2 1c-4.146 0-9 1.333-9-4l1-4 1-1c1.473 0 1-1.952 1-3 2.273 0 2-5.226 2-7v-1l2-2h1c5.103 0 8.625 4 11 4 0 2.885 2 4.697 2 8v1l-1 1-1 1-1 1-1 1-1 1h-1l-1 1-1 1-2 1Z"/><path fill="#97D6F9" id="STR" d="m208 206 1 1-1-1Z"/><path fill="#99D2BD" id="OLF" d="m121 208-1 1 1-1Z"/><path fill="#8AD987" id="CTXsp" d="M323 208c-2.273 0-2 5.226-2 7 2.273 0 2-5.226 2-7Z"/><path fill="#99D2BD" id="OLF" d="M109 212c8.432 0 7.914 11 13 11l-4-4.5c-1.752-3.503 2-6.921 2-9.5h-3c-.641 0-8 2.856-8 3Z"/><path fill="#96A6D3" id="NDB" d="m224 258-1 1c-2.565 0-5 .236-5-3 0-4.4 1.138-9.776 3-13.5l2-25.5 1-1c1.473 0 1-1.952 1-3l1.5-2 2 5 1-7c1.263 0 1.214 8 3.5 8 0 2.652 1.057 21.613 2 23.5 2.077 4.154 4 11.734 4 16.5 0 4.045-5.781 1-7 1 0-3.362-7-5.697-7-1l-1 1Z"/><path fill="#97D6F9" id="STR" d="m247 209-1 1 1-1Z"/><path fill="#99D2BD" id="OLF" d="M347 212c-3.84 0-5.675 5-8 5 0-3.303-2-5.115-2-8h3c.698 0 7 2.714 7 3Z"/><path fill="#CBCBC7" id="aco" d="m177 210-6 6.5c-2.327 4.653 2.848 9.826 7.5 7.5 5.371-2.685 7.168-14-1.5-14Z"/><path fill="#97D6F9" id="STR" d="m210 210 1 1-1-1Z"/><path fill="#CBCBC7" id="aco" d="M277 210c0 1.423-4 3.034-4 5.5 0 13.601 19.858 7.858 10-2-2.103-2.103-2.996-3.5-6-3.5Z"/><path fill="#6ACAB9" id="PIR" d="M127 258h2l8-3c0-2.974 9.808-7.883 6-15.5a23.36 23.36 0 0 0-10.5-10.5c-1.47-.735-6.5-1.53-6.5-4h-1l-2-2h-1c-5.086 0-4.568-11-13-11l-6 1-15 3c0 1.643-3.766 1-5 1 0 5.461 15.622 29 22 29 3.551 0 22 7.937 22 12ZM327 258h2c0-3.155 10.908-7.704 13.5-9 1.394-.697 8.5-4.458 8.5-3 5.676 0 23-22.841 23-29-2.124 0-4.436-1-6-1l-15-3-6-1c-3.84 0-5.675 5-8 5v1l-1 1-1 1-1 1-1 1-1 1h-1l-1 1-1 1-2 1-2 1c0 1.988-3.315 2.408-4.5 3l-9.5 9.5c-3.534 7.068 6 12.118 6 15.5l8 3Z"/><path fill="#96A7D3" id="MS" d="M224 214v2c1.473 0 1-1.952 1-3h-1v1Z"/><path fill="#97D6F9" id="STR" d="m245 213-1 1 1-1ZM212 214l1 1-1-1ZM223 216h1v-2l-1 2Z"/><path fill="#8AD987" id="CTXsp" d="M321 215c-1.473 0-1 1.952-1 3 1.473 0 1-1.952 1-3Z"/><path fill="#96A7D3" id="MS" d="m224 216-1 1v-1h1Z"/><path fill="#97D6F9" id="STR" d="m243 256-4 1c0-4.766-1.923-12.346-4-16.5-.943-1.887-2-20.848-2-23.5v-1l6.5 6 2.5-2v18l1 18ZM213 217l1 1-1-1ZM218 256l-4 1c0-4.185 1-8.938 1-12.5 0-1.19.614-4.5-1-4.5v-21c1.317 0 1.788 3.356 4.5 2l4.5-4-2 25.5c-1.862 3.724-3 9.1-3 13.5ZM243 218l-1 2 1-2Z"/><path fill="#8AD987" id="CTXsp" d="m320 218-1 1 1-1Z"/><path fill="#99D2BD" id="OLF" d="m339 218-1 1 1-1ZM338 219l-1 1 1-1Z"/><path fill="#8AD987" id="CTXsp" d="m137 220 1 1-1-1Z"/><path fill="#99D2BD" id="OLF" d="m336 221-1 1 1-1ZM335 222l-1 1 1-1ZM123 223l2 2-2-2ZM316 255h3c0-3.382-9.534-8.432-6-15.5l9.5-9.5c1.185-.592 4.5-1.012 4.5-3-4.146 0-9 1.333-9-4-.06 0-6.029 9-10 9 0 1.943 2 3.375 2 4.5 0 3.175-2 8.233-2 11.5l8 7ZM333 223l-1 1 1-1ZM332 224l-1 1 1-1ZM137 255h3c0-1.398 7.356-6 9-6l-2-6.5c-1.411-2.822 1-7.079 1-9.5l-1-2c-3.833 0-5.448-6-8-6l-2.5 2c-3.745 1.873-7.738-2-10.5-2 0 2.47 5.03 3.265 6.5 4a23.36 23.36 0 0 1 10.5 10.5c3.808 7.617-6 12.526-6 15.5ZM331 225l-2 1 2-1ZM329 226l-2 1 2-1Z"/><path fill="#97D6F9" id="STR" d="m149 232-1 1-1-2 2 1Z"/><path fill="#A2B1D7" id="SI" d="M243 256v9c2.454 0 7.523-2.489 10.5-1 18.604 9.302 30.972 10.514 50 1 2.475-1.238 12.5-6.152 12.5-10l-8-7c-.806 0-2.79 9.645-5.5 11-4.69 2.345-23.031 8.985-29 6-5.395-2.697-17.294-3.088-20.5-9.5l-9-12c-.492-.984-.851-5.5-2-5.5l1 18ZM214 257c0 1.574.751 9-1 9 0-2.476-8.665-2.918-10.5-2-8.547 4.273-13.984 7-24.5 7-9.108 0-16.049-.274-23.5-4l-11-8-3.5-4c0-1.398 7.356-6 9-6 0 11.542 26.127 20.186 34.5 16 5.48-2.74 11.449-4.225 17-7 3.924-1.962 8.747-8.994 10.5-12.5l3-5.5c1.614 0 1 3.31 1 4.5 0 3.562-1 8.315-1 12.5Z"/><path fill="#CAC8C7" id="lot" d="m329 263 2 1 5-4.5c3.402-3.402 15-8.611 15-13.5 0-1.458-7.106 2.303-8.5 3-2.592 1.296-13.5 5.845-13.5 9v5ZM127 263l-1 1-5-3.5c-2.086-4.173-16-9.341-16-14.5 3.551 0 22 7.937 22 12v5Z"/><path fill="#7FCCF7" id="OT" d="M328 267c0 4.482-7.44 9.38-9 12.5-6.603 13.206-26.651 17.924-39.5 11.5-3.883-1.942-10.005.998-14-1l-7-1c-4.35-2.175-13.5-9.506-13.5-15 0-2.846-2-5.382-2-9 2.454 0 7.523-2.489 10.5-1 18.604 9.302 30.972 10.514 50 1 2.475-1.238 12.5-6.152 12.5-10h3l8 3 2 2v6l-1 1ZM212 273l-1 1c0 13.547-20.347 17-31 17-3.72 0-10.219 1.359-13.5 3-1.927.964-5.545-.272-7-1-2.815-1.408-7.156-.578-10-2-7.262-3.631-13.157-10.815-16.5-17.5-.951-1.902-5-4.391-5-7.5l-1-1v-4l2-3 8-3h3l3.5 4 11 8c7.451 3.726 14.392 4 23.5 4 10.516 0 15.953-2.727 24.5-7 1.835-.918 10.5-.476 10.5 2 0 2.409-1 5.181-1 7Z"/><path fill="#8599CC" id="PAL" d="M213 266c0 2.409-1 5.181-1 7 4.186 0 11-10.443 11-14-2.565 0-5 .236-5-3l-4 1c0 1.574.751 9-1 9ZM243 265c0 3.618 2 6.154 2 9-2.72 0-13-13.768-13-16 1.219 0 7 3.045 7-1l4-1v9ZM225 257l-1 1 1-1Z"/><path fill="#99D2BD" id="OLF" d="m129 258-2 3v-3h2Z"/><path fill="#8599CC" id="PAL" d="m224 258-1 1 1-1Z"/><path fill="#99D2BD" id="OLF" d="M329 258v2l-2-2h2ZM126 264l1 1v-2l-1 1ZM330 264h1l-2-1v1h1Z"/><path fill="#97D6F9" id="STR" d="m330 264-1 1v-1h1ZM127 265l1 1-1-1ZM329 266l-1 1 1-1Z"/><path fill="#8599CC" id="PAL" d="m212 273-1 1 1-1Z"/></svg>