<svg xmlns="http://www.w3.org/2000/svg" viewBox="0 0 456 320"><path fill="#1E9C59" id="MOs1" d="m160 136-5 2c0-1.183-3.57-1.535-4.5-2-3.3-1.65-4.174-5.847-5.5-8.5-3.366-6.732 3.549-16.098 6-21 1.568-3.135 5.637-6.569 9.5-8.5 3.292-1.646 5.756-4.378 9-6 8.937-4.468 19.778-2 29.5-2l-2 4c-13.863 0-26.655 2.155-35 10.5-7.564 7.564-7.164 13.671-3 22 .499.999 1.394 2.5 3 2.5l-2 7ZM296 135l5 3c2.056 0 4.476-1.976 6-3.5 8.797-8.797 2.221-20.558-2-29l-7.5-6.5-11-7c-8.937-4.468-19.778-2-29.5-2l2 4c16.166 0 17.535 1.017 31.5 8l7.5 5.5c1.276 2.552 1.689 5.379 3 8 2.896 5.791-6 11.607-6 13.5l1 6Z"/><path fill="#2FA750" id="PL1" d="m215 110 8 1c0-10.685-14.067-21-24-21l-2 4c4.006 0 18 12.178 18 16ZM241 110l-7 1c0-10.595 13.022-21 23-21l2 4c-3.615 0-18 12.678-18 16Z"/><path fill="#268F45" id="FRP1" d="m248 120-1 1c-7.887 0-6-3.999-6-11 0-3.322 14.385-16 18-16 16.166 0 17.535 1.017 31.5 8l7.5 5.5c1.276 2.552 1.689 5.379 3 8 2.896 5.791-6 11.607-6 13.5-8.333 0-12.681-7.09-18.5-10-1.372-.686-6.5-1.137-6.5-3 4.927 0 14.538 3.481 19.5 1 1.7-.85 1.5-2.422 1.5-4 0-8.504-7.087-10.793-13.5-14-7.025-3.512-19.8 1.4-25 4-5.422 2.711-4.373 9.814 0 12H265c0 2.207-5.176.338-6.5 1l-9.5 3-1 1ZM187 116l-6.5 4c-4.655 0-11.295 9-18.5 9-1.606 0-2.501-1.501-3-2.5-4.164-8.329-4.564-14.436 3-22 8.345-8.345 21.137-10.5 35-10.5 4.006 0 18 12.178 18 16 0 2.13 1.437 12-.5 12l-7.5-3c-3.589 0-8.188-2-11.5-2-.551 0-4.5-1.429-4.5-2h13.5c1.886-.943 4.518-8.741 2-10-5.803-2.902-18.829-10.085-27-6-3.057 1.529-23.986 12.007-12 18l19.5-1Z"/><path fill="#268E45" id="FRP2/3" d="M187 116h2l1-1h14.5c1.886-.943 4.518-8.741 2-10-5.803-2.902-18.829-10.085-27-6-3.057 1.529-23.986 12.007-12 18l19.5-1ZM268 116h2c4.927 0 14.538 3.481 19.5 1 1.7-.85 1.5-2.422 1.5-4 0-8.504-7.087-10.793-13.5-14-7.025-3.512-19.8 1.4-25 4-5.422 2.711-4.373 9.814 0 12H267l1 1Z"/><path fill="#23895D" id="ORBm1" d="m211 130 6.5 4 3.5-3c0-6.611 2-12.647 2-20l-8-1c0 2.13 1.437 12-.5 12l-7.5-3c0 .974 4 7.325 4 11ZM245 130c0 1.314-5.816 3.842-7.5 3l-1.5-2c0-5.059-3-9.486-3-15 0-1.235-.643-5 1-5l7-1c0 7.001-1.887 11 6 11 0 3.681-2 5.758-2 9Z"/><path fill="#248A5D" id="ORBvl2/3" d="m190 115-1 1 1-1Z"/><path fill="#248A5B" id="ORBvl1" d="M188 125c5.319 0 12.075-.212 16.5 2l6.5 3c0-3.675-4-10.026-4-11-3.589 0-8.188-2-11.5-2-.551 0-4.5-1.429-4.5-2h-1l-1 1-1 9ZM269 125c-10.099 0-18.822 5-24 5 0-3.242 2-5.319 2-9l1-1 1-1 9.5-3c1.324-.662 6.5 1.207 6.5-1h1l1 1 2 9Z"/><path fill="#248A5D" id="ORBvl2/3" d="M267 115v1l-1-1h1Z"/><path fill="#238A5E" id="ORBl2/3" d="M267 116h1l-1-1v1Z"/><path fill="#238A5D" id="ORBl1" d="M173 129c-5.073 0-8.669 7-13 7l2-7c7.205 0 13.845-9 18.5-9l6.5-4h2l-1 9h-1c-4.982 0-8.896 3-13 3l-1 1ZM295 129l1 6-15-8c-4.22 0-7.344-2-12-2l-2-9h3c0 1.863 5.128 2.314 6.5 3 5.819 2.91 10.167 10 18.5 10Z"/><path fill="#23895D" id="ORBm1" d="m249 119-1 1 1-1ZM248 120l-1 1 1-1Z"/><path fill="#9DF0D1" id="AOBgl" d="m173 139 8.5 5c3.328 1.664 7.598-3 10.5-3l2-3.5-1-6.5-6-6c-4.982 0-8.896 3-13 3l-1 1v10Z"/><path fill="#99D2BD" id="OLF" d="M218 141c2.25 0 3.376 2 5 2l-3-5.5 1-6.5-3.5 3-6.5-4-6.5-3c-4.425-2.212-11.181-2-16.5-2h-1l6 6c7.384 0 12.483.991 18.5 4 1.842.921 4.521 6 5.5 6h1ZM238 141l1 1 5.5-7c6.017-3.009 11.116-4 18.5-4l6-6c-10.099 0-18.822 5-24 5 0 1.314-5.816 3.842-7.5 3l-1.5-2c0 3.51-1 7.022-1 10h3Z"/><path fill="#9DF0D1" id="AOBgl" d="m284 138-2.5 2c-14.796 7.398-6.612 1-17.5 1 0-2.69-1-6.675-1-10l6-6c4.656 0 7.78 2 12 2 0 1.391 3 5.616 3 11Z"/><path fill="#99D2BD" id="OLF" fill-rule="evenodd" d="M291 136v7.5c1.471 2.942 9.704 20.592 12 16 2.679-5.359-7.745-23.5-12-23.5m-9 83c2.041 0 3 .959 3 3 1.6 0 6.753-17.007 8-19.5 4.423-8.846 5.567-19.134 10-28l1-11c1.167-2.333 2.401-11.199 1-14-.401-.802-4-11.354-4-11.5l-5-3-15-8c0 1.391 3 5.616 3 11 6.922 0 4 9.411 4 13 1.24 0 1.576-2 4-2 6.192 0 5 13.946 5 18 0 10.74-3.621 28.741-8 37.5l-7 14.5Z"/><path fill="#99D2BD" id="OLF" d="m174 128-1 1 1-1Z"/><path fill="#99D2BD" id="OLF" fill-rule="evenodd" d="m164 136-2.5 5h-3c-2.544 1.272-7.437 17.782-3 20 2.512 1.256 2.968-6.436 3.5-7.5l6-9.5c0-1.49.735-8-1-8m10 83c-2.215 0-1.519 2-3 2-1.6 0-6.753-17.007-8-19.5-3.854-7.707-15.742-45.516-11-55 .823-1.647 3-6.902 3-8.5l5-2c4.331 0 7.927-7 13-7v10c-8.401 0-4 6.334-4 12-1.624 0-2.75-2-5-2-3.626 0-5 15.043-5 18.5 0 11.908 3.942 27.884 9 38l6 13.5Z"/><path fill="#9AD1BD" id="MOB" d="M171 221c0 10.713 19.287 30 30 30 8.518 0 12.61-7.72 16-14.5 7.994-15.989 8-33.592 8-53v-22c-2.589-5.179-8-14.655-8-20.5-.979 0-3.658-5.079-5.5-6-6.017-3.009-11.116-4-18.5-4l1 6.5-2 3.5c5.56 0 2 9.875 2 12 4.729 0 0 3.431 0 5v7l-1 1v1c0 8.307-2 15.223-2 24 0 4.924 4.538 25-4 25l-7 2 3 5.5c.629 1.258-.946 4.277-2.5 3.5l-6.5-8c-2.215 0-1.519 2-3 2ZM285 222c0 10.926-19.178 29-30 29-11.841 0-14.239-13.979-18-21.5-7.051-14.101-6-31.995-6-49v-17c1.995-3.989 8-17.509 8-21.5l5.5-7c6.017-3.009 11.116-4 18.5-4 0 3.325 1 7.31 1 10-5.129 0-2 9.793-2 12-4.307 0 0 3.15 0 5l1 9c0 7.996 2 16.153 2 25 0 5.406-4.329 24 5 24l7 2-4 5.5c-.629 1.258.946 4.277 2.5 3.5l6.5-8c2.041 0 3 .959 3 3ZM164 136l-2.5 5h-3c-2.544 1.272-7.437 17.782-3 20 2.512 1.256 2.968-6.436 3.5-7.5l6-9.5c0-1.49.735-8-1-8ZM291 136v7.5c1.471 2.942 9.704 20.592 12 16 2.679-5.359-7.745-23.5-12-23.5Z"/><path fill="#9DEFD2" id="AOBmi" d="m169 151 4.5 4c4.409 2.204 8.811 5.595 14 3l6.5-5c0-2.125 3.56-12-2-12-2.902 0-7.172 4.664-10.5 3l-8.5-5c-8.401 0-4 6.334-4 12ZM288 151l-1.5 2-11 6c-5.718 2.859-9.477-6-13.5-6 0-2.207-3.129-12 2-12 10.888 0 2.704 6.398 17.5-1l2.5-2c6.922 0 4 9.411 4 13Z"/><path fill="#C7CBCA" id="onl" d="M227 211c0 7.911.606 38.289-2 43.5-3.339 6.678-24-1.347-24-3.5 8.518 0 12.61-7.72 16-14.5 7.994-15.989 8-33.592 8-53v-22c-2.589-5.179-8-14.655-8-20.5h1c0 2.984 3.947 12 7 12l2 4.5V176l1 1v23c-1.773 0-1 9.259-1 11Z"/><path fill="#CAC8C9" id="von" d="M223 143c0 3.708 2 5.942 2 10-3.053 0-7-9.016-7-12 2.25 0 3.376 2 5 2Z"/><path fill="#99D2BD" id="OLF" d="m235 141-1 2 1-2Z"/><path fill="#CAC8C9" id="von" d="M234 143c0 3.269-3 6.321-3 10 3.652 0 7-8.76 7-12h-3l-1 2Z"/><path fill="#C7CBCA" id="onl" d="M231 153c0 2.654-.888 5.275-2 7.5v43c0 5.931-1.521 14.958 1 20l1 30c3.793 7.586 24 .352 24-2.5-11.841 0-14.239-13.979-18-21.5-7.051-14.101-6-31.995-6-49v-17c1.995-3.989 8-17.509 8-21.5l-1-1c0 3.24-3.348 12-7 12Z"/><path fill="#CAC8C7" id="lot" d="m180 218 3 5.5c.629 1.258-.946 4.277-2.5 3.5l-6.5-8-6-13.5c-5.058-10.116-9-26.092-9-38 0-3.457 1.374-18.5 5-18.5l1 10-1 5c0 14.907 2.386 28.272 9 41.5 1.098 2.197 3.908 12.5 7 12.5Z"/><path fill="#CACAC9" id="lotd" d="M165 159h1c0-5.194 10.102 1.301 11.5 2 5.789 2.894 12.101-3 16.5-3 0-1.569 4.729-5 0-5l-6.5 5c-5.189 2.595-9.591-.796-14-3l-4.5-4c-1.624 0-2.75-2-5-2l1 10ZM262 158c4.538 0 10.76 5.87 16.5 3 5.05-2.525 7.264-3 12.5-3 1.973 0 1-8.289 1-9-2.424 0-2.76 2-4 2l-1.5 2-11 6c-5.718 2.859-9.477-6-13.5-6-4.307 0 0 3.15 0 5Z"/><path fill="#CAC8C7" id="lot" d="m277 218-4 5.5c-.629 1.258.946 4.277 2.5 3.5l6.5-8 7-14.5c4.379-8.759 8-26.76 8-37.5 0-4.054 1.192-18-5-18 0 .711.973 9-1 9v1c.913 0 2 5.014 2 6 0 13.526-2.402 27.304-8 38.5-1.045 2.09-8 13.253-8 14.5Z"/><path fill="#95E4C8" id="AOBgr" d="M193 167c-1.046 0-6.474 2-10 2-5.055 0-9.164-6-14-6l-3-4c0-5.194 10.102 1.301 11.5 2 5.789 2.894 12.101-3 16.5-3v7l-1 1v1ZM263 167c3.186 0 6.865 2 11 2 4.588 0 8.778-6 13-6l4-4v-1c-5.236 0-7.45.475-12.5 3-5.74 2.87-11.962-3-16.5-3l1 9Z"/><path fill="#99D2BD" id="OLF" d="m169 163-5 1 1-5h1l3 4ZM287 163c2.711 0 4.969 2 6 2 0-.986-1.087-6-2-6l-4 4Z"/><path fill="#54BF94" id="AON" d="m187 216-7 2c-3.092 0-5.902-10.303-7-12.5-6.614-13.228-9-26.593-9-41.5l5-1c4.836 0 8.945 6 14 6l1 4c-1.614 0-1 3.31-1 4.5 0 3.734 2.417 7.834 4 11 4.343 8.686 0 20.083 0 27.5ZM270 216l7 2c0-1.247 6.955-12.41 8-14.5 5.598-11.196 8-24.974 8-38.5-1.031 0-3.289-2-6-2-4.222 0-8.412 6-13 6l-1 3c0 8.009-1.671 16.841-5 23.5-2.546 5.092 2 17.841 2 20.5Z"/><path fill="#99D2BD" id="OLF" d="m194 165-1 1 1-1ZM184 173c3.979 0 5 10.674 5 13.5 0 .854 1.157 4.5 2 4.5 0-8.777 2-15.693 2-24-1.046 0-6.474 2-10 2l1 4ZM273 172c-3.37 0-6 11.982-6 14.5 0 1.21-.814 5.5-2 5.5 0-8.847-2-17.004-2-25 3.186 0 6.865 2 11 2l-1 3Z"/><path fill="#CBCBC7" id="aco" d="M265 192c0 5.406-4.329 24 5 24 0-2.659-4.546-15.408-2-20.5 3.329-6.659 5-15.491 5-23.5-3.37 0-6 11.982-6 14.5 0 1.21-.814 5.5-2 5.5ZM191 191c0 4.924 4.538 25-4 25 0-7.417 4.343-18.814 0-27.5-1.583-3.166-4-7.266-4-11 0-1.19-.614-4.5 1-4.5 3.979 0 5 10.674 5 13.5 0 .854 1.157 4.5 2 4.5Z"/><path fill="#99D2BD" id="OLF" d="m227 176 1 1-1-1ZM228 200c-1.773 0-1 9.259-1 11 1.773 0 1-9.259 1-11Z"/></svg>