<svg xmlns="http://www.w3.org/2000/svg" viewBox="0 0 456 320"><path fill="#1E9C59" id="MOs1" d="m138 139-6 3c0-5.537-6.381-14.738-3-21.5 8.703-17.406 13.853-26.176 32.5-35.5 6.44-3.22 14.606-2.803 21-6 7.832-3.916 17.913 4 24.5 4 0 3.086-4 2.914-4 6h-1c-4.118 0-19.431-3.534-22.5-2-4.553 2.277-10.462 1.73-15 4-9.872 4.936-20.402 12.305-25.5 22.5-3.688 7.376-1 16.726-1 24.5v1ZM319 138l5 4c3.263 0 3-11.652 3-14.5 0-11.119-5.214-26.857-16.5-32.5l-8-6c-7.043-3.522-32.025-14.487-41-10-2.484 1.242-8.87 4-11.5 4 0 1.799 2.534 6 4 6 10.148 0 22.936-4.782 32.5 0l13 6 4 4c5.32 2.66 10.797 8.094 13.5 13.5 3.879 7.757 2 16.897 2 25.5Z"/><path fill="#2FA750" id="PL1" d="m221 114 7 1c0-8.844-11.656-32-21-32 0 3.086-4 2.914-4 6l8 4.5c3.355 6.711 10 11.404 10 20.5ZM236 114l-7 1c0-9.238 9.783-32 21-32 0 1.799 2.534 6 4 6v1c-10.965 0-18 14.428-18 24Z"/><path fill="#1E9D58" id="MOs2/3" d="m138 138 8.5-2 10.5 3c1.212 0 4-10.357 4-12l-4-7.5c0-5.46 8.935-16.5 14-16.5h1l1-1 4-1 1-1c0-1.473 1.952-1 3-1h1c0-2.828 11.546-2 14-2h1c0-2.91 5-4.795 5-8-4.118 0-19.431-3.534-22.5-2-4.553 2.277-10.462 1.73-15 4-9.872 4.936-20.402 12.305-25.5 22.5-3.688 7.376-1 16.726-1 24.5ZM318 138h1c0-8.603 1.879-17.743-2-25.5-2.703-5.406-8.18-10.84-13.5-13.5l-4-4-13-6c-9.564-4.782-22.352 0-32.5 0v1c1.514 0 5 5.537 5 7h1c2.676 0 15-.09 15 2h1l2 1h1l1 1 3 1c5.864 0 19.212 14.076 16 20.5l-4 4.5 4 12 10.5-3 8.5 2Z"/><path fill="#2FA74F" id="PL2/3" d="m213 112 8 2c0-9.096-6.645-13.789-10-20.5l-8-4.5h-1c0 3.205-5 5.09-5 8 8.096 0 16 6.671 16 15ZM244 112l-8 2c0-9.572 7.035-24 18-24 1.514 0 5 5.537 5 7-8.192 0-15 6.746-15 15Z"/><path fill="#1F9D58" id="MOs5" d="M182 99h13l1-2c-2.454 0-14-.828-14 2Z"/><path fill="#2EA84F" id="PL5" d="M212 112h1c0-8.329-7.904-15-16-15h-1l-1 2c3.706 0 14 7.727 14 12l3 1ZM247 111l-3 1c0-8.254 6.808-15 15-15h1l1 2c-3.61 0-14 8.396-14 12Z"/><path fill="#1F9D58" id="MOs5" d="M261 99h14c0-2.09-12.324-2-15-2l1 2ZM181 99c-1.048 0-3-.473-3 1 1.048 0 3 .473 3-1Z"/><path fill="#258F45" id="FRP5" d="M209 119h1l1-1v-1c-1.353 0-2-4.643-2-6 0-4.273-10.294-12-14-12h-14c0 1.473-1.952 1-3 1l-1 1-4 1-1 1h-1c0 3.321-11.319 14.59-4.5 18l6.5-1 4-1c0-2.152 9.919-5 12-5 5.943 0 11.651 3 17 3l3 2ZM279 119l5 1c1.423 0 3.544 1.978 5.5 1 8.339-4.17-6.5-17.151-6.5-19l-3-1-1-1h-1l-2-1h-15c-3.61 0-14 8.396-14 12l-1 6v1l1 1h2l1-1 1-1c5.286 0 10.824-3 17-3 1.804 0 11 2.94 11 5Z"/><path fill="#1F9D58" id="MOs5" d="m276 99 2 1-2-1ZM178 100l-1 1 1-1ZM279 100l1 1-1-1Z"/><path fill="#268E45" id="FRP2/3" d="m173 102-1 1 1-1ZM284 120c0 3.148 8.14 7 11 7l4-4.5c3.212-6.424-10.136-20.5-16-20.5 0 1.849 14.839 14.83 6.5 19-1.956.978-4.077-1-5.5-1ZM173 120c0 2.589-9.25 7-12 7l-4-7.5c0-5.46 8.935-16.5 14-16.5 0 3.321-11.319 14.59-4.5 18l6.5-1Z"/><path fill="#23885E" id="ORBm5" d="m212 112-1 5c-1.353 0-2-4.643-2-6l3 1ZM244 112c0 1.424.362 5 2 5l1-6-3 1Z"/><path fill="#24885D" id="ORBm2/3" d="M207 120c0 4.67 6 8.877 6 14 7.836 0 8-14.287 8-20l-8-2h-1l-1 5v1l-1 1h-3v1ZM249 120l-6 14c-8.122 0-7-13.853-7-20l8-2c0 1.424.362 5 2 5v1l1 1h2v1Z"/><path fill="#228A5D" id="ORBl5" d="M187 120h1c0-1.728 1-3.991 1-6-2.081 0-12 2.848-12 5 3.51 0 7.022 1 10 1Z"/><path fill="#23885C" id="ORBvl5" d="M188 120h19v-1l-1-2c-5.349 0-11.057-3-17-3 0 2.009-1 4.272-1 6Z"/><path fill="#23895D" id="ORBm1" d="M233 149c.608 0 7 3.702 7 0-1.862 0 3-13.224 3-15-8.122 0-7-13.853-7-20l-7 1h-1l-7-1c0 5.713-.164 20-8 20 0 4.497 4 10.286 4 15 0 2.962 4.707 1 6 1l4-8 1.5-11 .5 9.5c.845 1.689 4 6.846 4 8.5Z"/><path fill="#23885C" id="ORBvl5" d="M249 120h20l-1-6c-6.176 0-11.714 3-17 3l-1 1-1 1v1Z"/><path fill="#228A5D" id="ORBl5" d="M279 119c-3.51 0-7.022 1-10 1l-1-6c1.804 0 11 2.94 11 5Z"/><path fill="#23885E" id="ORBm5" d="M207 119h2l-3-2 1 2ZM251 117l-1 1 1-1Z"/><path fill="#268E45" id="FRP2/3" d="m211 118-1 1 1-1ZM246 118l1 1-1-1Z"/><path fill="#23885E" id="ORBm5" d="m250 118-1 1 1-1Z"/><path fill="#238A5E" id="ORBl2/3" d="m157 139-2 11 7.5-7c8.523-4.261 11.87-12 22.5-12 0-3.695 2-6.865 2-11-2.978 0-6.49-1-10-1l-4 1c0 2.589-9.25 7-12 7 0 1.643-2.788 12-4 12ZM299 139c0 1.18 2 6.42 2 11l-10.5-10c-7.085-3.542-10.774-9-19.5-9l-2-11c2.978 0 6.49-1 10-1l5 1c0 3.148 8.14 7 11 7l4 12Z"/><path fill="#248A5D" id="ORBvl2/3" d="m185 131 9.5-1c4.825 2.413 12.849 4 18.5 4 0-5.123-6-9.33-6-14h-20c0 4.135-2 7.305-2 11ZM271 131c-4.513 0-11.011-2.245-15.5 0-3.846 1.923-7.843 3-12.5 3l6-14h20l2 11Z"/><path fill="#248A5B" id="ORBvl1" d="M188 139c12.793 0 22.249 10 29 10 0-4.714-4-10.503-4-15-5.651 0-13.675-1.587-18.5-4l-9.5 1c0 3.423-1 5.746-1 8h4ZM270 139h2c0-2.707-1-5.903-1-8-4.513 0-11.011-2.245-15.5 0-3.846 1.923-7.843 3-12.5 3 0 1.776-4.862 15-3 15 4.379 0 16.191-10 28-10h2Z"/><path fill="#238A5D" id="ORBl1" d="m156 164-2 1 1-14v-1l7.5-7c8.523-4.261 11.87-12 22.5-12 0 3.423-1 5.746-1 8l-2 1h-1l-1 1h-1l-2 1-1 1-1 1-1 1c-3.213 0-18 15.505-18 19ZM301 165h2c0-3.985-2-9.965-2-14v-1l-10.5-10c-7.085-3.542-10.774-9-19.5-9 0 2.097 1 5.293 1 8 1.465 0 4-.109 4 2h2c3.397 0 23 20.255 23 24Z"/><path fill="#209765" id="AId2/3" d="M155 150v1c-3.461 0-3.359 4.071-7.5 2-3.124-1.562-6.145-6.791-7.5-9.5-.465-.93-.817-4.5-2-4.5v-1l8.5-2 10.5 3-2 11ZM301 150v1l5.5 3c5.284-2.642 11.5-9.572 11.5-16l-8.5-2-10.5 3c0 1.18 2 6.42 2 11Z"/><path fill="#209764" id="AId1" d="M301 151c0 4.035 2 10.015 2 14h5.5c5.202-2.601 15.5-18.048 15.5-23l-5-4h-1c0 6.428-6.216 13.358-11.5 16l-5.5-3ZM155 151l-1 14c-8.819 0-22-14.643-22-23l6-3c1.183 0 1.535 3.57 2 4.5 1.355 2.709 4.376 7.938 7.5 9.5 4.141 2.071 4.039-2 7.5-2Z"/><path fill="#99D2BD" id="OLF" d="M186 139c0 1.579-2.855 1-4 1l2-1h2Z"/><path fill="#9DF0D1" id="AOBgl" d="m192 150-8.5 4-8.5-1-2-2.5 1-5.5 1-1 1-1 1-1 2-1h1l1-1h1c1.145 0 4 .579 4-1h2c0 .676 5.151 2.802 6 4.5 1.428 2.856-2 4.553-2 6.5Z"/><path fill="#99D2BD" id="OLF" d="M195 151c0-14.137 17.762-1.369 24.5 2l5.5 8c0-3.446-2-6.77-2-11-1.293 0-6 1.962-6-1-6.751 0-16.207-10-29-10 0 .676 5.151 2.802 6 4.5 1.428 2.856-2 4.553-2 6.5l3 1ZM261 151c0-2.151.815-5.843-1.5-7-1.878-.939-17.627 5.814-20 7l-6.5 6v-8c.608 0 7 3.702 7 0 4.379 0 16.191-10 28-10l-5 2.5c-1.284 2.568 1 6.486 1 8.5l-3 1Z"/><path fill="#9DF0D1" id="AOBgl" d="m264 150 9.5 4 8.5-1c0-1.606 2.081-4.339 1-6.5l-5-5.5h-2c-.706 0-6-1.325-6-2h-2l-5 2.5c-1.284 2.568 1 6.486 1 8.5Z"/><path fill="#99D2BD" id="OLF" d="M272 139c1.465 0 4-.109 4 2-.706 0-6-1.325-6-2h2ZM181 140l-1 1 1-1ZM179 141l-2 1 2-1ZM297 184c0 6.006-2 10.219-2 16 2.707 0 3.124-7.748 4-9.5 3.644-7.287 2-17.537 2-25.5 0-3.745-19.603-24-23-24l5 5.5c1.081 2.161-1 4.894-1 6.5 4.045 0 1 5.781 1 7 5.248 0 14 4.895 14 11 0 1.12 2.857 12 0 12v1ZM176 143l-1 1 1-1ZM175 144l-1 1 1-1Z"/><path fill="#9AD1BD" id="MOB" d="M185 240c0 5.086 18.863 12 23 12 3.048 0 5.788-5.076 7-7.5 5.853-11.707 11-19.153 11-33.5 0-2.241-.804-17 1-17v-22l-1-1-1-9v-1l-5.5-8c-6.738-3.369-24.5-16.137-24.5-2v9c1.741 0 4.517 3 2 3l1 8c0 6.199-1 10.729-1 16 0 5.018-2 9.423-2 14v13.5l-2 4.5-1 2c0 1.738-3.544 11-5 11 0 2.885-2 4.697-2 8ZM270 242c0 3.401-17.539 10-21 10-4.646 0-8.421-8.342-10-11.5-7.45-14.9-9-21.542-9-39.5v-33c1.579 0 1-2.855 1-4v-1c1.473 0 1-1.952 1-3l1-2v-1l6.5-6c2.373-1.186 18.122-7.939 20-7 2.315 1.157 1.5 4.849 1.5 7v9c-2.167 0-2.934 3-1 3l-2 9 1 15c0 5.348 2 10.12 2 16 0 6.9 3 13.883 3 17 0 4.391 5 8.074 5 12 0 2.526 2 5.577 2 9l-1 1Z"/><path fill="#99D2BD" id="OLF" d="m159 171-1 9.5c2.336 4.673 4 15.266 4 20.5l-4-7.5c-4.468-8.936-2-18.977-2-29.5 0-3.495 14.787-19 18-19l-1 5.5 2 2.5c-6.255 0 0 7.26 0 8l-5.5-1c-3.298 1.649-10.5 6.881-10.5 11Z"/><path fill="#9DEFD2" id="AOBmi" d="M182 162h3l8-1 1-1 1-1v-8l-3-1-8.5 4-8.5-1c-6.255 0 0 7.26 0 8h2l2 1h3ZM275 162h3l2-1h2l1-1c0-1.219 3.045-7-1-7l-8.5 1-9.5-4-3 1v8l2 2 9 1h3Z"/><path fill="#99D2BD" id="OLF" d="m233 158-1 2 1-2ZM194 160h1v-1l-1 1ZM261 160l2 1-2-2v1Z"/><path fill="#CACAC9" id="lotd" d="M159 171h2c1.701 0 6.975-7.737 9.5-9 4.108-2.054 12.601 2 17.5 2h5c0-1.579 2.855-1 4-1 2.517 0-.259-3-2-3h-1l-1 1-8 1c0 1.486-3 1.486-3 0h-3l-2-1h-2l-5.5-1c-3.298 1.649-10.5 6.881-10.5 11Z"/><path fill="#99D2BD" id="OLF" d="m194 160-1 1 1-1ZM232 160c-1.473 0-1 1.952-1 3 1.473 0 1-1.952 1-3Z"/><path fill="#CACAC9" id="lotd" d="M265 164h3c2.198 0 12 .238 12-2h-5c0 1.486-3 1.486-3 0l-9-1-2-1c-2.167 0-2.934 3-1 3 1.048 0 3-.473 3 1h2Z"/><path fill="#99D2BD" id="OLF" d="m283 160-1 1 1-1Z"/><path fill="#CACAC9" id="lotd" d="m297 171-2 1c0-6.794-9.397-10-15-10v-1h2l1-1c5.248 0 14 4.895 14 11Z"/><path fill="#99D2BD" id="OLF" d="m177 161 2 1-2-1ZM278 162h2v-1l-2 1Z"/><path fill="#54BF94" id="AON" d="m186 231 1 1c1.456 0 5-9.262 5-11-.847 0-2.198 2.103-3 .5l3-5-1-13c-1.203-2.406-7.947-18.106-7-20 .935-1.87 7 1.534 7 2.5 1.564 0 3.876 1 6 1 0-5.271 1-9.801 1-16l-4-3c-1.238 0-3-.423-3-2l-3-2c-4.899 0-13.392-4.054-17.5-2-2.525 1.263-7.799 9-9.5 9l-1 13.5c4.418 8.837 6.555 19.109 11 28 1.896 3.791 15 16.756 15 18.5Z"/><path fill="#99D2BD" id="OLF" d="M182 162h3c0 1.486-3 1.486-3 0ZM226 171h1c0-1.923.156-9-2-9l1 9ZM272 162h3c0 1.486-3 1.486-3 0Z"/><path fill="#54BF94" id="AON" d="M269 232h1c0-5.242 10.661-10.821 13-15.5l5-10 7-16c.65-1.3.007-6.5 2-6.5v-1c0-4.232-2-7.38-2-11 0-6.794-9.397-10-15-10 0 2.238-9.802 2-12 2l-2 1c0 2.098-1.939 3-4 3l-4 4 1 15h6c0-2.754 6.401-5.697 8-2.5l-2 3c-2.638 5.277-3.332 11.664-6 17v14c.568 1.135 2.769 3.5 1.5 3.5l-2.5-2c0 4.391 5 8.074 5 12Z"/><path fill="#99D2BD" id="OLF" d="m194 168 4 3-1-8c-1.145 0-4-.579-4 1 2.547 0 2.775 4 1 4ZM262 168l-4 4 2-9c1.048 0 3-.473 3 1-3.754 0-1 2.283-1 4ZM191 164v2l-3-2h3Z"/><path fill="#95E4C8" id="AOBgr" d="M191 166c0 1.577 1.762 2 3 2 1.775 0 1.547-4-1-4h-2v2Z"/><path fill="#99D2BD" id="OLF" d="M231 164c-1.579 0-1 2.855-1 4 1.579 0 1-2.855 1-4Z"/><path fill="#95E4C8" id="AOBgr" d="M266 165c0 2.098-1.939 3-4 3 0-1.717-2.754-4 1-4h2l1 1Z"/><path fill="#99D2BD" id="OLF" d="m268 164-2 1-1-1h3Z"/><path fill="#CAC8C7" id="lot" d="m170 218 11 12.5c1.515 1.515 5 4.615 5 .5 0-1.744-13.104-14.709-15-18.5-4.445-8.891-6.582-19.163-11-28l1-13.5h-2l-1 9.5c2.336 4.673 4 15.266 4 20.5v1l1 1v2l1 1v1l1 1v1l1 1 4 8Z"/><path fill="#C7CBCA" id="onl" d="M227 171v1l-1-1h1ZM229 172h1v-1l-1 1Z"/><path fill="#CAC8C7" id="lot" d="M295 172c0 3.62 2 6.768 2 11 2.857 0 0-10.88 0-12l-2 1Z"/><path fill="#99D2BD" id="OLF" d="M229 201h1v-29h-1v29Z"/><path fill="#CBCBC7" id="aco" d="m193 219-1 2c-.847 0-2.198 2.103-3 .5l3-5-1-13c-1.203-2.406-7.947-18.106-7-20 .935-1.87 7 1.534 7 2.5 0 2.077 2.345 15 4 15v13.5l-2 4.5ZM261 203c0 6.9 3 13.883 3 17l2.5 2c1.269 0-.932-2.365-1.5-3.5v-14c2.668-5.336 3.362-11.723 6-17l2-3c-1.599-3.197-8-.254-8 2.5 0 4.49-1.14 8.779-3 12.5-.523 1.046.951 3.5-1 3.5Z"/><path fill="#CAC8C7" id="lot" d="M283 223c-4.116 0-5.67 9-13 9 0-5.242 10.661-10.821 13-15.5l5-10 7-16c.65-1.3.007-6.5 2-6.5 0 6.006-2 10.219-2 16l-1 2v1l-1 1v2l-1 1v1l-1 1v1l-1 1-5 9c-1.577 0-2 1.762-2 3Z"/><path fill="#99D2BD" id="OLF" d="M197 187c0 5.018-2 9.423-2 14-1.655 0-4-12.923-4-15 1.564 0 3.876 1 6 1ZM265 187c0 4.49-1.14 8.779-3 12.5-.523 1.046.951 3.5-1 3.5 0-5.88-2-10.652-2-16h6Z"/><path fill="#C7CBCA" id="onl" d="M227 194c-1.804 0-1 14.759-1 17 0 14.347-5.147 21.793-11 33.5-1.212 2.424-3.952 7.5-7 7.5 0 1.263 5.36 1.57 6.5 1 6.248-3.124 7.598-7.695 10.5-13.5 2.452-4.904 2-37.303 2-45.5Z"/><path fill="#99D2BD" id="OLF" d="m295 200-1 2 1-2Z"/><path fill="#C7CBCA" id="onl" d="M230 222c0 8.904 1.278 19.055 5 26.5 1.22 2.439 7.254 4.5 10 4.5 1.145 0 4 .579 4-1-4.646 0-8.421-8.342-10-11.5-7.45-14.9-9-21.542-9-39.5h-1v20l1 1Z"/><path fill="#99D2BD" id="OLF" d="m162 202 1 1-1-1ZM294 203l-1 1 1-1ZM163 205l1 1-1-1ZM293 206l-1 1 1-1ZM164 207l1 1-1-1ZM292 208l-1 1 1-1ZM165 209l1 1-1-1ZM291 210l-1 1 1-1ZM187 232c0 2.885-2 4.697-2 8-1.773 0-15-19.854-15-22l11 12.5c1.515 1.515 5 4.615 5 .5l1 1Z"/><path fill="#54BF94" id="AON" d="m193 219-1 2 1-2Z"/><path fill="#99D2BD" id="OLF" d="M285 220c-1.577 0-2 1.762-2 3 1.577 0 2-1.762 2-3ZM229 221l1 1-1-1ZM269 232h1c7.33 0 8.884-9 13-9 0 2.437-10.175 18-12 18 0-3.423-2-6.474-2-9ZM271 241l-1 1 1-1Z"/></svg>