<svg xmlns="http://www.w3.org/2000/svg" viewBox="0 0 456 320"><path fill="#1E9C59" id="MOs1" d="m225 59-4 2-4-5.5c-1.876-3.752-8.301-5.9-11.5-7.5-11.899-5.95-25.569 5-36.5 5v-6l10.5-4h7c9.972-4.986 28.741-.017 33.5 9.5l5 6.5ZM235 62h1c0-3.791 3.836-5.172 5-7.5 8.015-16.03 35.955-1.5 46-1.5h1l-1-6c-.731 0-9.355-3.428-10.5-4h-7c-10.104-5.052-24.668.668-31 7l-7.5 9 4 3Z"/><path fill="#1E9D5A" id="MOp1" d="M110 75c0 1.564-1 3.876-1 6 4.211 0 9.753-6.126 13.5-8 7.033-3.517 40.618-20 46.5-20v-6c-9.223 0-36.221 15.36-45.5 20-2.17 1.085-13.5 5.298-13.5 8Z"/><path fill="#1E9D58" id="MOs2/3" d="M215 65c-1.245 0-12.905-9.797-18.5-7l-15 5c-4.295 2.147-8.421 7-13.5 7 0-4.474 1-10.9 1-17 10.931 0 24.601-10.95 36.5-5 3.199 1.6 9.624 3.748 11.5 7.5l4 5.5v1l-6 3ZM242 66c0-7.093 9.362-4.93 13.5-7 10.873-5.437 22.386 11 32.5 11l-1-17c-10.045 0-37.985-14.53-46 1.5-1.164 2.328-5 3.709-5 7.5 1.252 0 5 3.172 5 4h1Z"/><path fill="#1E9D5A" id="MOp1" d="M347 75v6l-13.5-8c-6.783-3.391-39.987-20-45.5-20l-1-6c11.333 0 34.873 14.687 45.5 20 1.753.877 14.5 7.108 14.5 8Z"/><path fill="#1F9C58" id="MOp2/3" d="M109 99c1.353 0 2 4.643 2 6 4.384 0 9.451-9.476 14.5-12 9.122-4.56 33.647-22 42.5-22v-1c0-4.474 1-10.9 1-17-5.882 0-39.467 16.483-46.5 20-3.747 1.874-9.289 8-13.5 8v18ZM347 99l-2 4.5c0 .538 2.043 1.5 0 1.5l-12.5-11c-8.097-4.048-36.558-23-43.5-23l-1-1-1-17h1c5.513 0 38.717 16.609 45.5 20l13.5 8v18Z"/><path fill="#1F9D58" id="MOs5" d="M199 80c-5.369 0-10.236-1.632-15.5 1-5.012 2.506-10.667 9-16.5 9l1-19v-1c5.079 0 9.205-4.853 13.5-7l15-5c5.595-2.797 17.255 7 18.5 7v1c-3.944 0-13.413 14-16 14ZM258 81c0-2.427 7.727-2.886 9.5-2 4.516 2.258 17.227 11 21.5 11 .62 0-.528-19 0-19l-1-1c-10.114 0-21.627-16.437-32.5-11-4.138 2.07-13.5-.093-13.5 7 0 2.21 15 10.762 15 15h1Z"/><path fill="#3EA665" id="ACAd1" d="M223 92h11c0-9.97 1-20.677 1-30l-4-3-1.5 2-1 3-3.5-5-4 2v1c0 2.253.984 6.469 2 8.5V92Z"/><path fill="#40A565" id="ACAd2/3" d="M223 92c-1.564 0-3.876 1-6 1V70.5l-2-4.5v-1l6-3c0 2.253.984 6.469 2 8.5V92ZM234 93h5c0-8.931 2-18.305 2-27 0-.828-3.748-4-5-4h-1c0 9.323-1 20.03-1 30v1Z"/><path fill="#3EA566" id="ACAd5" d="M217 93c-5.074 0-10.17 8-15 8 0-3.503.538-20-3-20v-1c2.587 0 12.056-14 16-14l2 4.5V93ZM239 93c5.292 0 10.337 8 15 8l1-17.5 2-2.5c0-4.238-15-12.79-15-15h-1c0 8.695-2 18.069-2 27Z"/><path fill="#1E9C5A" id="MOp5" d="M113 121h1c0-3.03 9.318-8.909 11.5-10l4-4c6.379-3.19 31.825-16 37.5-16v-1l1-19c-8.853 0-33.378 17.44-42.5 22-5.049 2.524-10.116 12-14.5 12v1c0 6.521 2 9.458 2 15ZM345 106c0 5.402-2 9.922-2 15-.591 0-11.178-10.839-13.5-12-8.005-4.002-31.693-18-39.5-18l-1-1c.62 0-.528-19 0-19 6.942 0 35.403 18.952 43.5 23l12.5 11v1Z"/><path fill="#197E64" id="SSp-ul1" d="M108 82h1v-1c0-2.124 1-4.436 1-6-1.238 0-5 1.923-5 3l3 4ZM348 82h1l2-4c0-1.712-2.571-3-4-3v7h1Z"/><path fill="#187E61" id="SSp-m1" d="M66 167h4c0-19.459.47-35.438 9-52.5 3.08-6.16 8.873-10.746 12-17 1.852-3.704 12.513-14.5 17-14.5v-1l-3-4c-5.746 0-9.099 8.3-14.5 11C77.029 95.736 65 135.244 65 151c0 2.293.535 12 0 12v3l1 1ZM390 167h1v-3c0-1.908-.788-13 1-13 0-13.084-7.388-34.275-13-45.5-2.369-4.738-7.991-8.982-10-13-2.224-4.448-12.593-14.5-18-14.5l-2 4c0 1.607 4.892 4.196 6.5 5 5.618 2.809 13.938 13.376 16.5 18.5 10.695 21.39 15 35.455 15 61.5h3Z"/><path fill="#1D9C5A" id="MOs6a" d="M173 109c-2.518 0-4.286 2-6 2V90c5.833 0 11.488-6.494 16.5-9 5.264-2.632 10.131-1 15.5-1v1c0 3.172-12 16.45-12 24-3.965 0-7.226 1.363-10.5 3-1.046.523-3.5-.951-3.5 1ZM270 105l19 5c1.614 0 1-3.31 1-4.5V91l-1-1c-4.273 0-16.984-8.742-21.5-11-1.773-.886-9.5-.427-9.5 2 0 5.447 12 16.642 12 24Z"/><path fill="#3FA664" id="ACAd6a" d="M187 106c2.773 0 3.67 4 6 4 3.549 0 4.815-8 9-8v-1c0-3.503.538-20-3-20 0 3.172-12 16.45-12 24v1ZM263 110h1c0-1.712 2.571-3 4-3l2-2c0-7.358-12-18.553-12-24h-1l-2 2.5-1 17.5 9 9Z"/><path fill="#197F61" id="SSp-ul2/3" d="M108 83h1v-1h-1v1ZM348 82l-1 1v-1h1Z"/><path fill="#1A7E64" id="SSp-m2/3" d="M386 167h1c0-26.045-4.305-40.11-15-61.5-2.562-5.124-10.882-15.691-16.5-18.5-1.608-.804-6.5-3.393-6.5-5h-1l-1 1v16c7.21 0 13.351 10.202 16 15.5 8.238 16.476 14 30.389 14 50.5 1.923 0 9-.156 9 2ZM80 165c-3.702 0-7.27 2-10 2 0-19.459.47-35.438 9-52.5 3.08-6.16 8.873-10.746 12-17 1.852-3.704 12.513-14.5 17-14.5h1v16c-7.441 0-13.269 11.038-16 16.5-8.835 17.671-13 29.151-13 49.5Z"/><path fill="#1F9B5A" id="MOp6a" d="m119 168-3 1c-2.143 0 .472-11-2-11 0-6.781 3-14.954 3-18.5 0-5.54-3-12.761-3-18.5 0-3.03 9.318-8.909 11.5-10l4-4c6.379-3.19 31.825-16 37.5-16v20c-1.664 0-6 1.823-6 4-7.542 0-13.09 8.795-19.5 12-14.929 7.464-22.5 24.368-22.5 41ZM337 168l4 1c0-1.924.321-11 2-11 0-5.888-2-13.402-2-19.5l-2-3h2c1.778-3.556-1.182-13.5 2-13.5v-1c-.591 0-11.178-10.839-13.5-12-8.005-4.002-31.693-18-39.5-18v14.5c0 1.19.614 4.5-1 4.5v1c4.461 0 8.697 5.098 12.5 7 20.496 10.248 35.5 25.985 35.5 50Z"/><path fill="#3FA566" id="ACAv2/3" d="M219 138h3v-5c0-13.005 1-27.622 1-41-1.564 0-3.876 1-6 1v29.5c1.966 3.931 2 10.914 2 15.5Z"/><path fill="#40A664" id="ACAv1" d="m229 127 5 6V92h-11c0 13.378-1 27.995-1 41l5-6c0-4.252 2-4.466 2 0Z"/><path fill="#3EA666" id="ACAv5" d="M211 135c0 1.569 6.6 3 8 3 0-4.586-.034-11.569-2-15.5V93c-5.074 0-10.17 8-15 8v1c2.497 0 .062 11.624 1 13.5 1.4 2.801 8 17.25 8 19.5Z"/><path fill="#3FA566" id="ACAv2/3" d="M234 138h4c0-14.621 1-29.835 1-45h-5v45Z"/><path fill="#3EA666" id="ACAv5" d="M246 134c0 2.232-6.302 4-8 4 0-14.621 1-29.835 1-45 5.292 0 10.337 8 15 8l-1 16.5c-2.071 4.142-6 10.761-6 15.5l-1 1Z"/><path fill="#1B7F62" id="SSp-m4" d="M86 164c-2.486 0-3.725 1-6 1 0-20.349 4.165-31.829 13-49.5 2.731-5.462 8.559-16.5 16-16.5 1.353 0 2 4.643 2 6v1c-1.565 0-8.937 10.374-10 12.5-7.02 14.04-15 27.671-15 44.5v1ZM370 163l7 2c0-20.111-5.762-34.024-14-50.5-2.649-5.298-8.79-15.5-16-15.5l-2 4.5c0 .538 2.043 1.5 0 1.5v1c1.752 0 9.206 9.911 10 11.5 7.308 14.616 15 27.877 15 45.5Z"/><path fill="#40A564" id="ACAv6a" d="M253 129c-2.789 0-3.42 4-6 4 0-4.739 3.929-11.358 6-15.5l1-16.5 9 9c0 6.893-10 11.598-10 18v1ZM203 129c2.956 0 4.815 6 8 6 0-2.25-6.6-16.699-8-19.5-.938-1.876 1.497-13.5-1-13.5-4.185 0-5.451 8-9 8v1l2 3.5c1.693 3.386 8 8.723 8 12.5v2Z"/><path fill="#1E9C58" id="MOs6b" d="M186 107c-4.965 0-7.895 2-13 2 0-1.951 2.454-.477 3.5-1 3.274-1.637 6.535-3 10.5-3v1l-1 1Z"/><path fill="#3FA466" id="ACAd6b" d="M268 107h2v-2l-2 2Z"/><path fill="#1E9C58" id="MOs6b" d="M289 111v1c-5.279 0-12.393-5-19-5v-2l19 5v1Z"/><path fill="#1B7E63" id="SSp-m5" d="M102 160c-5.007 0-9.957 3-16 3 0-16.829 7.98-30.46 15-44.5 1.063-2.126 8.435-12.5 10-12.5 0 6.521 2 9.458 2 15 0 4.05-6.175 9.851-8 13.5-3.608 7.217-3 16.801-3 25.5Z"/><path fill="#3FA466" id="ACAd6b" d="M192 111h1v-1c-2.33 0-3.227-4-6-4l-1 1c2.784 0 4.47 4 6 4Z"/><path fill="#1B7E63" id="SSp-m5" d="M355 160c4.293 0 9.435 3 15 3 0-17.623-7.692-30.884-15-45.5-.794-1.589-8.248-11.5-10-11.5 0 5.402-2 9.922-2 15v1c2.47 0 3.265 5.03 4 6.5 6.096 12.193 8 16.642 8 31.5Z"/><path fill="#CACCC7" id="cing" d="M203 127v2c-7.974 0-10.164-14.832-16.5-18-5.283-2.642-11.234 3-15.5 3l-1 1h-7l4-3 6-3c5.105 0 8.035-2 13-2 2.784 0 4.47 4 6 4 0 3.257 7.8 16 11 16Z"/><path fill="#3FA466" id="ACAd6b" d="M264 110v1l4-4c-1.429 0-4 1.288-4 3Z"/><path fill="#CACCC7" id="cing" d="M253 128v1c8.16 0 10.889-14.695 17.5-18 5.157-2.579 10.435 3 14.5 3l1 1h7l-4-3c-5.279 0-12.393-5-19-5h-2l-4 4c0 2.386-8.477 17-11 17Z"/><path fill="#1E9C58" id="MOs6b" d="M167 111v1l6-3c-2.518 0-4.286 2-6 2Z"/><path fill="#40A465" id="ACAv6b" d="M264 111c0 2.386-8.477 17-11 17 0-6.402 10-11.107 10-18h1v1Z"/><path fill="#1D9D5A" id="MOp6b" d="M161 115h2l4-3v-1c-1.664 0-6 1.823-6 4Z"/><path fill="#CCC7C9" id="ccg" d="M332 164c2.496 0-.496 5 2 5 0-16.081-7.629-34.064-23.5-42-5.399-2.7-10.563-6.281-16-9-1.428-.714-6.5-.622-6.5-3h-2l-1-1c-4.065 0-9.343-5.579-14.5-3-6.611 3.305-9.34 18-17.5 18-2.789 0-3.42 4-6 4l-1 1c0 2.232-6.302 4-8 4h-4l-3.5 7c-2.671 0-.634-6-2-6l-2 6c-3.145 0-2.05-7-4.5-7h-3c-1.4 0-8-1.431-8-3-3.185 0-5.044-6-8-6-7.974 0-10.164-14.832-16.5-18-5.283-2.642-11.234 3-15.5 3l-1 1h-1c0 2.076-7.932 3.216-9.5 4-4.697 2.348-28.5 17.561-28.5 23l14.5-11c12.711-6.356 40.742-8.016 47.5 5.5.923 1.845 8 5.633 8 8.5v1l1 1 1 1c2.477 0 2.522 2.011 4.5 3 4.562 2.281 14.313 4 19.5 4 0-2.373 2.284 0 3 0 2.359 0 11.188-.844 13.5-2l9.5-5 1-1 1-1 1-1 1-1 1-1 1-1c0-8.997 18.052-15 25-15 14.957 0 34.838 2.176 43 18.5 1.519 3.039 4 5.892 4 9.5v6l1 2v1Z"/><path fill="#40A465" id="ACAv6b" d="m193 111 2 3.5c1.693 3.386 8 8.723 8 12.5-3.2 0-11-12.743-11-16h1Z"/><path fill="#1D9D5A" id="MOp6b" d="m335 167 2 1c0-24.015-15.004-39.752-35.5-50-3.803-1.902-8.039-7-12.5-7v1l4 3c4.476 0 9.575 6.038 13.5 8 17.467 8.734 28.5 23.829 28.5 44Z"/><path fill="#C9C9CA" id="scwm" d="m171 114-1 1 1-1ZM285 114l1 1-1-1Z"/><path fill="#1D9D5A" id="MOp6b" d="m122 167-3 1c0-16.632 7.571-33.536 22.5-41 6.41-3.205 11.958-12 19.5-12 0 3.35-4.254 2.877-6.5 4l-14 10c-12.036 6.018-18.5 21.774-18.5 36v2Z"/><path fill="#C9C9CA" id="scwm" d="M122 165h1c0-3.153 1.244-17 4-17 0-1.664 1.823-6 4-6 0-5.439 23.803-20.652 28.5-23 1.568-.784 9.5-1.924 9.5-4h-8c0 3.35-4.254 2.877-6.5 4l-14 10c-12.036 6.018-18.5 21.774-18.5 36ZM334 170h1v-3c0-20.171-11.033-35.266-28.5-44-3.925-1.962-9.024-8-13.5-8h-5c0 2.378 5.072 2.286 6.5 3 5.437 2.719 10.601 6.3 16 9 15.871 7.936 23.5 25.919 23.5 42v1Z"/><path fill="#187D61" id="SSp-m6a" d="m114 158-12 2c0-8.699-.608-18.283 3-25.5 1.825-3.649 8-9.45 8-13.5h1c0 5.739 3 12.96 3 18.5 0 3.546-3 11.719-3 18.5ZM343 158l12 2c0-14.858-1.904-19.307-8-31.5-.735-1.47-1.53-6.5-4-6.5-3.182 0-.222 9.944-2 13.5h-2l2 3c0 6.098 2 13.612 2 19.5Z"/><path fill="#CAC7CC" id="fa" d="m131 142 14.5-11c12.711-6.356 40.742-8.016 47.5 5.5.923 1.845 8 5.633 8 8.5-2.46 0-4.17-4-7-4l-8.5-8c-4.631-2.316-21.913-7.044-28-4-5.822 2.911-12.057 5.028-18 8L129 147l2-5ZM259 142c0-8.997 18.052-15 25-15 14.957 0 34.838 2.176 43 18.5 1.519 3.039 4 5.892 4 9.5l-5-9.5c-3.326-6.651-13.858-11.679-19.5-14.5-9.296-4.648-43.5-1.517-43.5 10l-4 1Z"/><path fill="#7ED04B" id="IG" d="M222 138c2.45 0 1.355 7 4.5 7l2-6c1.366 0-.671 6 2 6l3.5-7v-5l-5-6c0 2.488-2 1.919-2 0l-5 6v5Z"/><path fill="#98D5F9" id="CP" d="m147 232 1 1c11.577 0 16.569-13.639 21-22.5 4.325-8.651 14.726-10.113 21.5-13.5l3.5-4 1-1c0-14.789 2-27.799 2-43l-3-8-8.5-8c-4.631-2.316-21.913-7.044-28-4-5.822 2.911-12.057 5.028-18 8L129 147l-2 4c0 1.048.473 3-1 3v2l-1 1v14c0 10.932 7 21.303 7 34 1.579 0 1 2.855 1 4v1c.885 0 4 9.683 4 11v1l1 1v1c2.341 0 4.799 8 9 8ZM309 232l-1 1c-11.102 0-14.806-12.111-19-20.5-4.093-8.187-13.54-11.02-20.5-14.5l-6.5-5c0-6.387-.254-16.008-3-21.5V149l4-8c0-11.517 34.204-14.648 43.5-10 5.642 2.821 16.174 7.849 19.5 14.5l5 9.5v6l1 2v8c-1.781 0-1.348 6.197-2 7.5-3.514 7.028-6 17.21-6 25.5v3c-1.434 0-2 6.448-2 8-1.473 0-1 1.952-1 3v1l-1 1-1 3c-.356 0-5.51 9-10 9Z"/><path fill="#40A564" id="ACAv6a" d="m247 133-1 1 1-1Z"/><path fill="#AAA8A9" id="SEZ" d="m201 173-2 1c0-2.382 9.508-27-.5-27l-1.5 2-3-8c2.83 0 4.54 4 7 4v1l1 1 1 1c0 2.86 3 5.58 3 9 0 5.765-5 10.276-5 16ZM255 173c2.96 0 2.124 6 4 6 0-7.18-6-13.229-6-20 0-3.047-.259-5.982 1-8.5.565-1.129 5-4.338 5-1.5l4-8-4 1-1 1-1 1-1 1-1 1-1 1-1 1c0 2.583-2 3.934-2 7 0 7.157 4 11.399 4 18Z"/><path fill="#CCC7C9" id="ccg" d="m129 147-2 1c0-1.664 1.823-6 4-6l-2 5Z"/><path fill="#CAC7CC" id="fa" d="m259 142-1 1 1-1ZM257 144l-1 1 1-1ZM201 146l1 1-1-1ZM255 146l-1 1 1-1ZM127 148v3l2-4-2 1Z"/><path fill="#A8AAAA" id="VL" d="M195 193h1l1-2v-9c0-1.235-.643-5 1-5 0-1.048-.473-3 1-3 0-2.382 9.508-27-.5-27l-1.5 2c0 15.201-2 28.211-2 43v1Z"/><path fill="#CAC7CC" id="fa" d="m254 147-1 1 1-1Z"/><path fill="#CCC7C9" id="ccg" d="m125 162-2 3c0-3.153 1.244-17 4-17v3c-1.473 0-1 1.952-1 3v2l-1 1v5Z"/><path fill="#CAC7CC" id="fa" d="M224 157c-2.04 0-9-1.087-9 2l-6.5 1-2.5-3c0-3.42-3-6.14-3-9 2.477 0 2.522 2.011 4.5 3 4.562 2.281 14.313 4 19.5 4 0 1.577-1.762 2-3 2ZM233 157c1.949 0 8-.991 8 2l7.5 1 2.5-5c0-3.066 2-4.417 2-7l-9.5 5c-2.312 1.156-11.141 2-13.5 2 0 2.293.997 2 3 2Z"/><path fill="#A8AAAA" id="VL" d="M261 193h1c0-6.387-.254-16.008-3-21.5V149c0-2.838-4.435.371-5 1.5-1.259 2.518-1 5.453-1 8.5 0 6.771 6 12.82 6 20v12l2 2Z"/><path fill="#1A7E62" id="SSs1" d="M65 151c-2.857 0 0 10.88 0 12 .535 0 0-9.707 0-12Z"/><path fill="#CAC7CC" id="fa" d="M127 151c-1.473 0-1 1.952-1 3 1.473 0 1-1.952 1-3Z"/><path fill="#1A7E62" id="SSs1" d="M392 151c-1.788 0-1 11.092-1 13 1.788 0 1-11.092 1-13Z"/><path fill="#97D6F9" id="STR" fill-rule="evenodd" d="M229 157c0 5.567 2.112 0 0 0m-5 55c2.076 0 .88-9 4.5-9 2.4 0 2.682 11 4.5 11 0-9.674-3.74-36.88 6.5-42l15.5 1c0-6.601-4-10.843-4-18l-2.5 5-7.5-1c0 3.865-.427 6.355-2 9.5h-6c-1.99-3.981 0-7.656 0-11.5-2.003 0-3 .293-3-2-.716 0-3-2.373-3 0 0 1.577-1.762 2-3 2 0 3.456 1.652 7.197 0 10.5-3.883 7.766-9-5.497-9-8.5l-6.5 1-2.5-3c0 5.765-5 10.276-5 16 5.764 0 12.414-2.543 17.5 0 6.73 3.365 5.5 30.857 5.5 39Z"/><path fill="#CAC7CC" id="fa" d="m126 156-1 1 1-1Z"/><path fill="#8FCAED" id="SH" d="M224 157c-2.04 0-9-1.087-9 2 0 3.003 5.117 16.266 9 8.5 1.652-3.303 0-7.044 0-10.5Z"/><path fill="#7ED04B" id="IG" d="M229 157c0 5.567 2.112 0 0 0Z"/><path fill="#8FCAED" id="SH" d="M233 157c1.949 0 8-.991 8 2 0 3.865-.427 6.355-2 9.5h-6c-1.99-3.981 0-7.656 0-11.5Z"/><path fill="#009B74" id="GU6a" d="M102 176h1l13-7c-2.143 0 .472-11-2-11l-12 2v16ZM341 169c0 2.058 11.004 6 13 6l1-15-12-2c-1.679 0-2 9.076-2 11Z"/><path fill="#019C75" id="GU5" d="M102 176c-5.683 0-10.87 5-17 5 0-5.909 1-11.579 1-17v-1c6.043 0 10.993-3 16-3v16ZM354 176c5.541 0 11.168 5 17 5 0-5.915-1-12.755-1-18-5.565 0-10.707-3-15-3l-1 15v1Z"/><path fill="#CAC7CC" id="fa" d="m331 161 1 2-1-2ZM125 171l-2 1-1-2c1.643 0 1-3.765 1-5l2-3v9Z"/><path fill="#009C74" id="GU4" d="M84 182h1v-1c0-5.909 1-11.579 1-17-2.486 0-3.725 1-6 1 0 2.886 1.887 17 4 17ZM371 182h2c0-5.129 4-11.435 4-17l-7-2c0 5.245 1 12.085 1 18v1Z"/><path fill="#CAC7CC" id="fa" d="M334 171v1l-2-1v-7c2.496 0-.496 5 2 5v2Z"/><path fill="#009B75" id="GU2/3" d="M84 182c0 .411-8.864 4-10 4 0-6.007-4-12.678-4-19 2.73 0 6.298-2 10-2 0 2.886 1.887 17 4 17Z"/><path fill="#CCC7C9" id="ccg" d="M122 167v3c1.643 0 1-3.765 1-5h-1v2Z"/><path fill="#009B75" id="GU2/3" d="M373 182c0 1.165 8.453 4 10 4l3-19c0-2.156-7.077-2-9-2 0 5.565-4 11.871-4 17Z"/><path fill="#1A7E62" id="SSs1" d="m66 167-1 1v-2l1 1Z"/><path fill="#009C75" id="GU1" d="m74 186-4 1c-2.064 0-.426-3.353-1-4.5L65 168l1-1h4c0 6.322 4 12.993 4 19Z"/><path fill="#1F9766" id="AId6b" d="M123 181h2c0-2.755-2-5.553-2-9l-1-2v-3l-3 1 2 12 2 1ZM332 181h1l2-1c0-3.981 2-7.629 2-12l-2-1v3l-1 1v1l-2 9Z"/><path fill="#009C75" id="GU1" d="M383 187h4l4-19-1-1h-4l-3 19v1Z"/><path fill="#1A7E62" id="SSs1" d="M391 167v1l-1-1h1Z"/><path fill="#209666" id="AId6a" d="m115 195-6 1-6-9.5V176l13-7 3-1 2 12c-10.612 0-6 8.79-6 15ZM341 195l6 1c4.698 0 7-16.045 7-20v-1c-1.996 0-13-3.942-13-6l-4-1c0 4.371-2 8.019-2 12 11.247 0 6 8.526 6 15Z"/><path fill="#CCC7C9" id="ccg" d="m335 170-1 1v-1h1Z"/><path fill="#C8CBCC" id="ec" d="M131 205h1c0-12.697-7-23.068-7-34l-2 1c0 3.447 2 6.245 2 9v4l1 1v1l1 2v2c4.009 0 2 12.144 2 14h2ZM326 205h1c0-.605-1.007-10 1-10l1-2v-4l1-1v-1l1-1v-2l1-2v-1l2-9-2-1c-1.781 0-1.348 6.197-2 7.5-3.514 7.028-6 17.21-6 25.5l2 1Z"/><path fill="#90CAED" id="LSr" d="M214 218v1l3.5 3 5.5-5v-2l1-2v-1c0-8.143 1.23-35.635-5.5-39-5.086-2.543-11.736 0-17.5 0l-2 1c0 1.048.473 3-1 3 0 1.235.643 5-1 5v2l3.5-1c3.001 1.501 6.959 11.419 8.5 14.5l-.5 5.5-2.5-1 4 8 1 1 1 3 1 1v2l1 1ZM243 218l-1 2-2.5 2-6.5-6v-2c0-9.674-3.74-36.88 6.5-42l15.5 1c2.96 0 2.124 6 4 6v4c-5.906 0-15.268 20-10 20v1l-2 5-1 1-1 3-1 1-1 4Z"/><path fill="#AAA8A9" id="SEZ" d="M199 174c-1.473 0-1 1.952-1 3 1.473 0 1-1.952 1-3Z"/><path fill="#209665" id="AId5" d="M91 201h1c6.097 0 10.935-4 17-4v-1l-6-9.5V176h-1c-5.683 0-10.87 5-17 5v1c0 5.603 6 15.835 6 19ZM365 201h1c0-5.437 5-11.924 5-19v-1c-5.832 0-11.459-5-17-5 0 3.955-2.302 20-7 20v1c6.527 0 11.473 4 18 4Z"/><path fill="#AAA8A9" id="SEZ" d="M198 177c-1.643 0-1 3.765-1 5 1.643 0 1-3.765 1-5Z"/><path fill="#8ADA86" id="CLA" d="M127 191c0 4.489 2.797 18.148-7.5 13-2.516-1.258-3.226-9-4.5-9 0-6.21-4.612-15 6-15l2 1 2 2v2l1 1v1l1 2v2ZM328 195c0 12.2 13 11.496 13 0 0-6.474 5.247-15-6-15l-2 1-1 1-1 2v2l-1 1v2l-1 1v3l-1 2Z"/><path fill="#209666" id="AId6a" d="M125 181v2l-2-2h2ZM333 181l-1 1v-1h1Z"/><path fill="#209765" id="AId2/3" d="M80 204h1c1.35 0 10-2.04 10-3 0-3.165-6-13.397-6-19h-1c0 .411-8.864 4-10 4 0 6.298 6 12.185 6 18Z"/><path fill="#8FCBED" id="LSv" d="m250 202-1 1c-5.268 0 4.094-20 10-20v8l-1 2-1 1-1 1-1 1-1 1-1 1v1l-1 1-1 1-1 1Z"/><path fill="#209666" id="AId6a" d="m332 182-1 2 1-2Z"/><path fill="#209765" id="AId2/3" d="M376 204h1c0-3.771 2.388-8.277 4-11.5.659-1.319-.334-5.5 2-5.5v-1c-1.547 0-10-2.835-10-4h-2c0 7.076-5 13.563-5 19 0 1.373 8.535 3 10 3Z"/><path fill="#8FCBED" id="LSv" d="m203 198 3 4 2.5 1 .5-5.5c-1.541-3.081-5.499-12.999-8.5-14.5l-3.5 1v7l1 2 3 3 1 1 1 1Z"/><path fill="#209666" id="AId6a" d="m125 185 1 1-1-1Z"/><path fill="#209764" id="AId1" d="M80 204c0 1.579-2.855 1-4 1 0-5.964-6-11.415-6-18l4-1c0 6.298 6 12.185 6 18Z"/><path fill="#209666" id="AId6a" d="m331 186-1 1 1-1ZM126 187l1 2-1-2Z"/><path fill="#209764" id="AId1" d="M377 204c0 1.473 1.952 1 3 1 1.183 0 1.535-3.57 2-4.5 1.782-3.565 5-9.418 5-13.5h-4c-2.334 0-1.341 4.181-2 5.5-1.612 3.223-4 7.729-4 11.5Z"/><path fill="#209666" id="AId6a" d="M329 189h1v-1l-1 1Z"/><path fill="#1F9866" id="AIv6a" d="m330 189-1 1v-1h1ZM115 209h4l1-1c2.561 0 5.324-3 9-3 0-1.856 2.009-14-2-14 0 4.489 2.797 18.148-7.5 13-2.516-1.258-3.226-9-4.5-9l-6 1v1l6 12Z"/><path fill="#97D6F9" id="STR" d="M196 193h2l-1-2-1 2ZM258 193h3l-2-2-1 2ZM194 193h1v-1l-1 1Z"/><path fill="#80CDF8" id="ACB" fill-rule="evenodd" d="M177 210c0 1.171-4.964 5.428-6 7.5-2.018 4.035 3.981 8.259 7.5 6.5 5.859-2.93 6.864-14-1.5-14m37 29-4 7.5-7 9c-2.677 5.353-13.805 7.152-18.5 9.5-6.091 3.045-25.304-2.652-30-5l-5.5-5.5c-.619-1.238 1.144-5.5-1-5.5 0-2.772-.731-8.961-2-11.5-1.058-2.116 2-2.898 2-4.5 11.577 0 16.569-13.639 21-22.5 4.325-8.651 14.726-10.113 21.5-13.5l3.5-4h4l3 3 1 1 1 1 3 4 4 8 1 1 1 3 1 1v2l1 1v21ZM276 210c0 2.623-4.969 4.563-3 8.5 8.942 17.884 20.106-8.5 3-8.5m-33 29c0 3.224 2.666 4.832 4 7.5 7.333 14.666 29.96 24.27 45.5 16.5 6.931-3.466 15.5-3.562 15.5-14 0-3.815 3-8.818 3-12.5 0-1.045-2-1.861-2-3.5h-1c-11.102 0-14.806-12.111-19-20.5-4.093-8.187-13.54-11.02-20.5-14.5l-6.5-5h-4l-1 1-1 1-1 1-1 1-1 1v1l-1 1-1 1v1l-1 1-1 1-2 5-1 1-1 3-1 1-1 4-1 2c0 6.318 1 13.322 1 19Z"/><path fill="#1F9866" id="AIv6a" d="m329 193-1 2 1-2Z"/><path fill="#97D6F9" id="STR" d="m257 194-1 1 1-1Z"/><path fill="#1F9866" id="AIv6a" d="m336 208 5 1 6-12v-1l-6-1c0 11.496-13 12.2-13 0-2.007 0-1 9.395-1 10 4.35 0 8.219 3 9 3Z"/><path fill="#97D6F9" id="STR" d="m201 196 1 1-1-1ZM255 196l-1 1 1-1Z"/><path fill="#1F9865" id="AIv5" d="m109 212-7 1c0-4.99-10-8.927-10-12 6.097 0 10.935-4 17-4l6 12-6 3Z"/><path fill="#97D6F9" id="STR" d="m254 197-1 1 1-1Z"/><path fill="#1F9865" id="AIv5" d="m347 212 7 1c0-4.966 11-8.437 11-12-6.527 0-11.473-4-18-4l-6 12 6 3Z"/><path fill="#97D6F9" id="STR" d="m203 198 3 4-3-4ZM253 199l-1 1 1-1ZM252 200l-1 1 1-1Z"/><path fill="#219764" id="AIv2/3" d="M102 213c-4.416 0-9.087 3-14 3 0-3.863-7-7.493-7-12 1.35 0 10-2.04 10-3h1c0 3.073 10 7.01 10 12Z"/><path fill="#90CAED" id="LSr" d="M250 202h1v-1l-1 1Z"/><path fill="#219764" id="AIv2/3" d="m354 213 15 3c0-4.477 7-7.709 7-12-1.465 0-10-1.627-10-3h-1c0 3.563-11 7.034-11 12Z"/><path fill="#90CAED" id="LSr" d="M249 203h1v-1l-1 1Z"/><path fill="#97D6F9" id="STR" d="m251 202-1 1v-1h1Z"/><path fill="#96A7D3" id="MS" d="m223 218 3.5-2 2 3c1.171 0-.373-4.187 2-3l3.5 3-1-3v-2c-1.818 0-2.1-11-4.5-11-3.62 0-2.424 9-4.5 9v1l-1 2v3Z"/><path fill="#97D6F9" id="STR" d="m250 203-1 1v-1h1Z"/><path fill="#209864" id="AIv1" d="M88 216c-1.564 0-3.876 1-6 1l-6-12c1.145 0 4 .579 4-1h1c0 4.507 7 8.137 7 12Z"/><path fill="#8AD987" id="CTXsp" d="m326 205-2 2v-3l2 1Z"/><path fill="#209864" id="AIv1" d="M369 216c0 1.643 3.765 1 5 1l6-12c-1.048 0-3 .473-3-1h-1c0 4.291-7 7.523-7 12Z"/><path fill="#A0EE9C" id="EPd" d="M124 225h1c2.06 0 13 6.183 13-1v-1l-1-1v-1c-2.696 0-4-8.557-4-11v-1l-2-4h-2c-3.676 0-6.439 3-9 3l-1 1c0 3.071-2 5.362-2 9v1l4 4h1l2 2Z"/><path fill="#8AD987" id="CTXsp" d="M132 205c1.579 0 1 2.855 1 4l-2-4h1Z"/><path fill="#A0EE9C" id="EPd" d="M332 225c-1.238 0-3 .423-3 2-3.956 0-10 1.991-10-4l1-3 1-1v-1c1.473 0 1-1.952 1-3 1.931 0 2-6.225 2-8l2-2h1c4.35 0 8.219 3 9 3l3 3.5v7.5l-1 2-2 1-1 1-2 1-1 1Z"/><path fill="#8AD987" id="CTXsp" d="M324 207c-1.434 0-2 6.448-2 8 1.931 0 2-6.225 2-8Z"/><path fill="#99D2BD" id="OLF" d="m120 208-1 1 1-1ZM347 212c-4.443 0-5.528 7-8 7v-7.5l-3-3.5 5 1 6 3ZM109 212c3.742 0 5.586 6 8 6 0-3.638 2-5.929 2-9h-4l-6 3Z"/><path fill="#97D6F9" id="STR" d="m247 209-1 1 1-1Z"/><path fill="#8AD987" id="CTXsp" d="M133 210c.885 0 4 9.683 4 11-2.696 0-4-8.557-4-11Z"/><path fill="#CBCBC7" id="aco" d="M177 210c0 1.171-4.964 5.428-6 7.5-2.018 4.035 3.981 8.259 7.5 6.5 5.859-2.93 6.864-14-1.5-14Z"/><path fill="#97D6F9" id="STR" d="m210 210 1 1-1-1Z"/><path fill="#CBCBC7" id="aco" d="M276 210c0 2.623-4.969 4.563-3 8.5 8.942 17.884 20.106-8.5 3-8.5Z"/><path fill="#6ACAB9" id="PIR" d="m127 258 1 1 9-4c0-4.212 9.025-7.45 6-13.5-2.461-4.923-5.442-8.971-10.5-11.5-1.544-.772-7.5-2.732-7.5-5h-1l-2-2h-1l-4-4v-1c-2.414 0-4.258-6-8-6l-7 1c-4.416 0-9.087 3-14 3-1.564 0-3.876 1-6 1 0 5.755 10.963 21.232 16.5 24l6.5 6c0-2.229 4.562.531 5.5 1 3.55 1.775 7.405 3.203 11 5l5.5 5ZM330 258l-1 1c-3.482 0-6.186-4-10-4 0-4.893-9.296-6.909-4-17.5 1.851-3.703 7.363-6.931 10.5-8.5l3.5-2c1.238 0 3-.423 3-2l1-1 2-1 1-1 2-1 1-2c2.472 0 3.557-7 8-7l7 1 15 3c0 1.643 3.765 1 5 1 0 5.613-15.505 29-22 29-4.134 0-22 8.039-22 12Z"/><path fill="#97D6F9" id="STR" d="m224 213-1 2 1-2ZM245 213l-1 1 1-1ZM212 214l1 1-1-1Z"/><path fill="#8AD987" id="CTXsp" d="M322 215c-1.473 0-1 1.952-1 3 1.473 0 1-1.952 1-3Z"/><path fill="#96A6D3" id="NDB" d="M223 259h1l1-1c0-7.036 6.903 1 8 1 2.592 0 7 2.113 7-3-1.454 0-1.433-5.366-2-6.5-3.857-7.714-4-21.483-4-30.5l-3.5-3c-2.373-1.187-.829 3-2 3l-2-3-3.5 2c0 4.776-1.098 23.697-3 27.5l-3 10.5c0 5.456 2.714 3 6 3Z"/><path fill="#97D6F9" id="STR" d="M240 256h3c0-4.341-1-8.695-1-12.5 0-1.19-.614-4.5 1-4.5 0-5.678-1-12.682-1-19l-2.5 2-6.5-6 1 3c0 9.017.143 22.786 4 30.5.567 1.134.546 6.5 2 6.5ZM213 217l1 1-1-1ZM213 256h4l3-10.5c1.902-3.803 3-22.724 3-27.5v-1l-5.5 5-3.5-3v20l-1 17ZM243 218l-1 2 1-2Z"/><path fill="#99D2BD" id="OLF" d="m117 219 4 4-4-4Z"/><path fill="#8AD987" id="CTXsp" d="m321 219-1 1 1-1Z"/><path fill="#99D2BD" id="OLF" d="m339 219-1 2 1-2ZM137 222l1 1-1-1ZM336 222l-1 1 1-1ZM122 223l2 2-2-2ZM317 255h2c0-4.893-9.296-6.909-4-17.5 1.851-3.703 7.363-6.931 10.5-8.5l3.5-2c-3.956 0-10 1.991-10-4-.356 0-5.51 9-10 9v1c0 1.639 2 2.455 2 3.5 0 3.682-3 8.685-3 12.5 1.292 0 9 5.313 9 6ZM335 223l-2 1 2-1ZM137 255h3l8-6c0-2.772-.731-8.961-2-11.5-1.058-2.116 2-2.898 2-4.5l-1-1c-4.201 0-6.659-8-9-8 0 7.183-10.94 1-13 1 0 2.268 5.956 4.228 7.5 5 5.058 2.529 8.039 6.577 10.5 11.5 3.025 6.05-6 9.288-6 13.5ZM333 224l-1 1 1-1ZM332 225c-1.238 0-3 .423-3 2 1.238 0 3-.423 3-2Z"/><path fill="#97D6F9" id="STR" d="m147 232 1 1-1-1ZM308 233h1v-1l-1 1Z"/><path fill="#A2B1D7" id="SI" d="M213 256v11c-2.259 0-5.151-3.675-8.5-2-13.85 6.925-35.384 9.308-50 2-2.827-1.414-14.5-7.652-14.5-12l8-6c2.144 0 .381 4.262 1 5.5l5.5 5.5c4.696 2.348 23.909 8.045 30 5 4.695-2.348 15.823-4.147 18.5-9.5l7-9 4-7.5-1 17ZM243 256c0 1.657-.763 10 1 10 2.014 0 5.932-2.284 8.5-1 6.343 3.172 33.821 10.09 42 6l9-5c2.655-1.327 13.5-6.889 13.5-11 0-.687-7.708-6-9-6 0 10.438-8.569 10.534-15.5 14-15.54 7.77-38.167-1.834-45.5-16.5-1.334-2.668-4-4.276-4-7.5-1.614 0-1 3.31-1 4.5 0 3.805 1 8.159 1 12.5Z"/><path fill="#CAC8C7" id="lot" d="M125 264h1l1-1v-5l-5.5-5c-3.595-1.797-7.45-3.225-11-5-.938-.469-5.5-3.229-5.5-1 0 3.481 11.982 9.482 15 12.5l5 4.5ZM330 264h1c3.234 0 3.231-3.865 5.5-5 3.368-1.684 15.5-8.977 15.5-13-4.134 0-22 8.039-22 12l-1 1v2l1 1v2Z"/><path fill="#7FCCF7" id="OT" d="m212 273-1 1-2 3.5c-6.126 12.252-16.426 13.5-30 13.5-2.235 0-9.273 1.886-11.5 3-9.544 4.772-28.541-8.583-32.5-16.5-2.028-4.057-8-7.75-8-12.5v-5l1-1 9-4h3c0 4.348 11.673 10.586 14.5 12 14.616 7.308 36.15 4.925 50-2 3.349-1.675 6.241 2 8.5 2l-1 6ZM329 266c0 3.371-4.539 6.579-6 9.5-3.996 7.992-9.877 12.689-17.5 16.5l-7 1c-1.837.918-7.692 2.154-10 1-2.451-1.225-8.905-3-11.5-3-10.341 0-22.393-.287-27-9.5-1.266-2.532-5-4.524-5-7.5l-1-8c2.014 0 5.932-2.284 8.5-1 6.343 3.172 33.821 10.09 42 6l9-5c2.655-1.327 13.5-6.889 13.5-11h2c3.814 0 6.518 4 10 4v2l1 1v2l-1 2Z"/><path fill="#8599CC" id="PAL" d="m213 267-1 6c4.268 0 11-10.34 11-14-3.286 0-6 2.456-6-3h-4v11ZM244 266l1 8c-3.919 0-12-11.586-12-15 2.592 0 7 2.113 7-3h3c0 1.657-.763 10 1 10Z"/><path fill="#99D2BD" id="OLF" d="m128 259-1 1v-2l1 1Z"/><path fill="#8599CC" id="PAL" d="m225 258-1 1 1-1Z"/><path fill="#99D2BD" id="OLF" d="m330 258-1 1 1-1ZM329 261l1 1-1-1ZM126 264h1v-1l-1 1ZM126 264v1l-1-1h1Z"/><path fill="#97D6F9" id="STR" d="M126 265h1v-1h-1v1ZM330 265l-1 1 1-2v1Z"/><path fill="#99D2BD" id="OLF" d="m331 264-1 1v-1h1Z"/><path fill="#8599CC" id="PAL" d="m212 273-1 1 1-1Z"/></svg>