<svg xmlns="http://www.w3.org/2000/svg" viewBox="0 0 456 320"><path fill="#1E9C59" id="MOs1" d="M219 67h1c0-1.577 1.762-2 3-2 0-3.817-4.796-6.092-6-8.5-6.946-13.891-37.453-9.024-48.5-3.5-2.122 1.06-17.5 5.812-17.5 7v5c13.762 0 36.44-18.03 52.5-10 3.923 1.961 15.5 5.428 15.5 12ZM305 65c-14.142 0-35.912-18.294-52.5-10-3.768 1.884-15.5 6.013-15.5 12l-4-2c0-2.47 2.787-3.074 4-5.5 8.457-16.913 36.357-13.572 50.5-6.5 2.204 1.102 17.5 4.813 17.5 7v5Z"/><path fill="#1E9D58" id="MOs2/3" d="m213 71-6.5-5c-4.463-2.231-15.151-3.424-20-1-5.444 2.722-30.798 18-34.5 18 0-6.1-1-12.526-1-17v-1c13.762 0 36.44-18.03 52.5-10 3.923 1.961 15.5 5.428 15.5 12 0 .81-5.219 4-6 4ZM243 71c2.183 0 3.31-3.405 4.5-4 5.076-2.538 16.245-4.877 22-2l28 14 7.5 5V65c-14.142 0-35.912-18.294-52.5-10-3.768 1.884-15.5 6.013-15.5 12v1l6 3Z"/><path fill="#1E9D5A" id="MOp1" d="M91 107c0 2.488 1 3.99 1 6l14-16.5c10.784-10.784 21.517-18.009 34.5-24.5 3.161-1.58 6.824-6 10.5-6v-6c-5.983 0-11.386 6.443-16.5 9-9.411 4.706-29.289 17.079-33.5 25.5-1.933 3.867-10 6.099-10 12.5ZM365 106c0 1.489 1.333 7-1 7l-13-16.5c-3.746-7.493-26.474-19.987-33.5-23.5-4.094-2.047-7.647-7-12.5-7v-6c4.823 0 9.371 4.936 13.5 7 12.123 6.061 24.028 14.028 34 24 3.598 3.598 12.5 9.961 12.5 15Z"/><path fill="#1F9D58" id="MOs5" d="M196 89h1c0-4.995 16-15.162 16-17v-1l-6.5-5c-4.463-2.231-15.151-3.424-20-1-5.444 2.722-30.798 18-34.5 18v22l11.5-6c8.784-4.392 18.161-7.58 27-12l5.5 2ZM260 89l5.5-2c7.529 3.764 15.506 6.253 23 10l15.5 8c0-6.937 1-12.868 1-21l-7.5-5-28-14c-5.755-2.877-16.924-.538-22 2-1.19.595-2.317 4-4.5 4v1c1.694 0 17 14.69 17 17Z"/><path fill="#3EA665" id="ACAd1" d="M222 98h12c0-4.188-3.26-30 3-30v-1l-4-2c-2.37 0-3.725 7-4.5 7-2.418 0-2.179-7-5.5-7-1.238 0-3 .423-3 2l3 6.5c2.964 5.929-1 18.698-1 24.5Z"/><path fill="#1F9C58" id="MOp2/3" d="M95 158c2.592 0-.592 6 2 6 0-25.573 13.279-57.39 36.5-69 5.456-2.728 12.225-11 18.5-11v-1c0-6.1-1-12.526-1-17-3.676 0-7.339 4.42-10.5 6-12.983 6.491-23.716 13.716-34.5 24.5L92 113v2c2.308 0 .257 7.013 1 8.5l2 1c0 7.995-1 18.277-1 28.5l1 2v3ZM361 163l-2 2c0-25.967-12.007-57.754-36.5-70-5.146-2.573-11.618-11-17.5-11V66c4.853 0 8.406 4.953 12.5 7 7.026 3.513 29.754 16.007 33.5 23.5l13 16.5v1c0 1.685.527 6.445 0 7.5l-1.5 3.5-1.5-.5 2 2-2 5c0 2.479.361 6.722 2 10l-1 15.5c-1.643 0-1 3.765-1 5v1Z"/><path fill="#40A565" id="ACAd2/3" d="M217 98h5c0-5.802 3.964-18.571 1-24.5l-3-6.5h-1c0 .81-5.219 4-6 4v1c4.522 0 4 21.455 4 26ZM234 98h6V78.5l3-6.5v-1l-6-3c-6.26 0-3 25.812-3 30Z"/><path fill="#3EA566" id="ACAd5" d="M217 98c-5.615 0-10.885 5-16 5 0-5.477-4-12.079-4-14 0-4.995 16-15.162 16-17 4.522 0 4 21.455 4 26ZM240 98c5.235 0 10.321 5 15 5 0-2.987 1.835-14 5-14 0-2.31-15.306-17-17-17l-3 6.5V98Z"/><path fill="#1E9C5A" id="MOp5" d="m97 167 2 4c7.301 0 14.143-8 21-8 0-4.804-3.533-15.434-1-20.5 5.527-11.055 8.21-23.355 20.5-29.5 3.735-1.868 8.222-8 12.5-8V84c-6.275 0-13.044 8.272-18.5 11-23.221 11.61-36.5 43.427-36.5 69v3ZM358 171h1v-6c0-25.967-12.007-57.754-36.5-70-5.146-2.573-11.618-11-17.5-11 0 8.132-1 14.063-1 21 3.558 0 6.445 4.473 9.5 6 22.614 11.307 23.5 29.466 23.5 52 5.408 0 13.947 8 21 8Z"/><path fill="#1D9C5A" id="MOs6a" d="m148 147-4 2c0-9.972 9-18.209 9-24.5 0-7.157-1-12.317-1-19.5l11.5-6c8.784-4.392 18.161-7.58 27-12l5.5 2c0 4.372-13 19.692-13 27-2.119 0-11 .949-11 3-7.653 0-24 20.962-24 28ZM309 147l3 2c0-8.096-7-17.591-7-19.5 0-7.214-1-15.554-1-24.5l-15.5-8c-7.494-3.747-15.471-6.236-23-10l-5.5 2c0 1.361 13 19.727 13 27 12.353 0 36 17.936 36 31Z"/><path fill="#3FA664" id="ACAd6a" d="M183 117h2c1.754 0 11.686-14 16-14 0-5.477-4-12.079-4-14h-1c0 4.372-13 19.692-13 27v1ZM271 117h2v-1c0-7.273-13-25.639-13-27-3.165 0-5 11.013-5 14 2.006 0 16 12.101 16 14Z"/><path fill="#2FA750" id="PL1" d="M223 133h11V98h-12c0 11.612 1 24.045 1 35Z"/><path fill="#2EA84F" id="PL5" d="M218 133c-4.846 0-8.793 2-13 2 0-10.348-4-20.518-4-32 5.115 0 10.385-5 16-5 0 11.612 1 24.045 1 35Z"/><path fill="#2FA74F" id="PL2/3" d="M218 133h5c0-10.955-1-23.388-1-35h-5c0 11.612 1 24.045 1 35ZM234 133h4c0-11.321 2-23.148 2-35h-6v35Z"/><path fill="#2EA84F" id="PL5" d="M251 135h1c0-10.592 3-20.504 3-32-4.679 0-9.765-5-15-5 0 11.852-2 23.679-2 35 4.721 0 8.983 2 13 2Z"/><path fill="#2FA850" id="PL6a" d="M195 137h1c0-1.674 7.241-2 9-2 0-10.348-4-20.518-4-32-4.314 0-14.246 14-16 14v1c4.072 0 10 15.533 10 19ZM252 135c3.324 0 6.16 2 9 2 0-2.946 6.676-19 10-19v-1c0-1.899-13.994-14-16-14 0 11.496-3 21.408-3 32Z"/><path fill="#1F9B5A" id="MOp6a" d="M144 149c-6.306 0-18.552 14-24 14 0-4.804-3.533-15.434-1-20.5 5.527-11.055 8.21-23.355 20.5-29.5 3.735-1.868 8.222-8 12.5-8 0 7.183 1 12.343 1 19.5 0 6.291-9 14.528-9 24.5ZM312 149c7.385 0 18.474 14 25 14 0-22.534-.886-40.693-23.5-52-3.055-1.527-5.942-6-9.5-6 0 8.946 1 17.286 1 24.5 0 1.909 7 11.404 7 19.5Z"/><path fill="#187E61" id="SSp-m1" d="m375 160 4 1c0-15.845.931-27.638-6-41.5-1.198-2.395-4.438-13.5-8-13.5 0 1.489 1.333 7-1 7v1c2.104 0 4.226 6.951 5 8.5 5.801 11.602 6 23.388 6 37.5ZM81 160l-4 1c0-19.175-.44-27.621 8-44.5.97-1.94 2.878-9.5 6-9.5 0 2.488 1 3.99 1 6-1.186 0-1.186 1 0 1v1c-3.122 0-5.03 7.56-6 9.5-5.063 10.125-5 23.301-5 35.5Z"/><path fill="#1E9D5A" id="MOp1" d="M92 113c-1.186 0-1.186 1 0 1v-1Z"/><path fill="#1A7E64" id="SSp-m2/3" d="M362 157c4.67 0 8.668 3 13 3 0-14.112-.199-25.898-6-37.5-.774-1.549-2.896-8.5-5-8.5 0 1.685.527 6.445 0 7.5l-1.5 3.5-1.5-.5 2 2-2 5c0 2.479.361 6.722 2 10l-1 15.5ZM81 160h1c0-1.225 11.162-3 13-3v-2l-1-2c0-10.223 1-20.505 1-28.5l-2-1c-.743-1.487 1.308-8.5-1-8.5-3.122 0-5.03 7.56-6 9.5-5.063 10.125-5 23.301-5 35.5Z"/><path fill="#1E9C58" id="MOs6b" d="M183 117c-4.242 0-6.596 2-11 2 0-2.051 8.881-3 11-3v1ZM305 145l4 2c0-13.064-23.647-31-36-31v1c5.09 0 9.606 4 14 4 4.017 0 18 19.971 18 24Z"/><path fill="#CACCC7" id="cing" d="M198 156v2c-2.355 0-2.066-12.633-3-14.5-6.402-12.803-5.531-20.5-22-20.5-1.238 0-3-.423-3-2l2-2c4.404 0 6.758-2 11-2l2 1c0 4.114 9 12.261 9 19 0 5.595 4 11.784 4 18v1Z"/><path fill="#3FA466" id="ACAd6b" d="M185 117v1l-2-1h2ZM271 118h1l1-1h-2v1Z"/><path fill="#CACCC7" id="cing" d="m262 137-1 8c1.229 0 3.262-10.024 4-11.5 4.193-8.386 9.853-10.5 18-10.5l4-2c-4.394 0-8.91-4-14-4l-1 1c0 3.371-10 13.068-10 19Z"/><path fill="#2FA84F" id="PL6b" d="M194 137h1c0-3.467-5.928-19-10-19 0 4.114 9 12.261 9 19ZM261 137h1c0-5.932 10-15.629 10-19h-1c-3.324 0-10 16.054-10 19Z"/><path fill="#1E9C58" id="MOs6b" d="m151 145-3 2c0-7.038 16.347-28 24-28l-2 2c-3.713 0-19 20.111-19 24Z"/><path fill="#C9C9CA" id="scwm" d="m152 158 3 1c0-8.749.428-14.357 4-21.5l14-14.5c-1.238 0-3-.423-3-2-3.713 0-19 20.111-19 24 0 4.536 1 7.696 1 12v1ZM304 158l-2 1c0-9.152-1.261-15.021-5-22.5L283 123l4-2c4.017 0 18 19.971 18 24v12l-1 1Z"/><path fill="#CAC7CC" id="fa" d="m186 178 1 1.5v3c1.378 2.755 2.233-3.5 3-3.5 0-2.955 5.462-19 8-19v-2c-2.355 0-2.066-12.633-3-14.5-6.402-12.803-5.531-20.5-22-20.5l-14 14.5c-3.572 7.143-4 12.751-4 21.5 0 4.892 24 1.117 24 8 1.864 0 7 8.996 7 11ZM270 178c0 4.264-3 6.426-3 1 0-6.924-8-13.619-8-20 0-4.77 2-8.737 2-14 1.229 0 3.262-10.024 4-11.5 4.193-8.386 9.853-10.5 18-10.5l14 13.5c3.739 7.479 5 13.348 5 22.5l-1 1c-2.595 0-9.049 1.775-11.5 3h-9c-2.384 1.192-3.5 2.493-3.5 5-2.214 0-7 7.679-7 10Z"/><path fill="#59B262" id="ILA5" d="M211 157h8c0-7.895-1-16.783-1-24-4.846 0-8.793 2-13 2 0 8.304 6 14.721 6 22Z"/><path fill="#59B362" id="ILA2/3" d="M219 157h4v-24h-5c0 7.217 1 16.105 1 24Z"/><path fill="#59B263" id="ILA1" d="M229 157h4c0-7.895 1-16.783 1-24h-11v24h5v-10c0-2.212 1-2.212 1 0v10Z"/><path fill="#59B362" id="ILA2/3" d="M233 157h4l1-24h-4c0 7.217-1 16.105-1 24Z"/><path fill="#59B262" id="ILA5" d="M237 157h8c0-5.453 6-12.989 6-22-4.017 0-8.279-2-13-2l-1 24Z"/><path fill="#58B362" id="ILA6a" d="M198 156c3.629 0 8.716 1 13 1 0-7.279-6-13.696-6-22-1.759 0-9 .326-9 2l3 13c0 1.235.643 5-1 5v1ZM258 156c-3.629 0-8.716 1-13 1 0-5.453 6-12.989 6-22h1c3.324 0 6.16 2 9 2l-2 3.5c-1.889 3.778-1 10.141-1 13.5v2Z"/><path fill="#58B263" id="ILA6b" d="m196 137 3 13c0 1.235.643 5-1 5 0-6.216-4-12.405-4-18h2ZM261 145c-3.52 0-.576 9-3 9 0-3.359-.889-9.722 1-13.5l2-3.5h1l-1 8Z"/><path fill="#1F9766" id="AId6b" d="M148 161h1c0-1.429 1.288-4 3-4 0-4.304-1-7.464-1-12l-3 2v14Z"/><path fill="#CACCC7" id="cing" d="M258 159h1c0-4.77 2-8.737 2-14-3.52 0-.576 9-3 9v5Z"/><path fill="#1F9766" id="AId6b" d="M308 161h1v-14l-4-2v12l3 4Z"/><path fill="#209666" id="AId6a" d="M134 177v1c-7.918 0-14-7.401-14-15 5.448 0 17.694-14 24-14l4-2v14l-4 4c-3.699 0-5.106-2.697-8.5-1-3.096 1.548-8.003 13-1.5 13Z"/><path fill="#99D2BD" id="OLF" d="M228 156h1v-9h-1v9Z"/><path fill="#209666" id="AId6a" d="M322 178h1c7.163 0 14-8.031 14-15-6.526 0-17.615-14-25-14l-3-2v14c0 2.364 3 3.053 3 5 4.959 0 4.924-3.788 10.5-1 3.123 1.562 5.077 12-.5 12v1Z"/><path fill="#1B7F62" id="SSp-m4" d="m94 153 1 2-1-2Z"/><path fill="#A3DAA3" id="DP" d="M205 178c0-1.773 9.259-1 11-1h34.5l1.5 2 5-5.5c1.894-3.789 1-9.987 1-14.5v-3c-3.629 0-8.716 1-13 1h-16c0 5.322-1 5.322-1 0h-17c-4.284 0-9.371-1-13-1v4c0 5.16-.362 18 7 18Z"/><path fill="#009B75" id="GU2/3" d="M84 178h1c0-.99 9.73-5 11-5l-1-15v-1c-1.838 0-13 1.775-13 3 0 6.429 2 12.024 2 18Z"/><path fill="#219665" id="AIv6b" d="M149 162h1l2-4v-1c-1.712 0-3 2.571-3 4v1Z"/><path fill="#99D2BD" id="OLF" d="M228 157h1c0 5.322-1 5.322-1 0Z"/><path fill="#219665" id="AIv6b" d="M307 161h1l-3-4-1 1 3 3Z"/><path fill="#009C74" id="GU4" d="M362 157c-1.643 0-1 3.765-1 5 1.643 0 1-3.765 1-5Z"/><path fill="#009B75" id="GU2/3" d="M361 173c0 .99 9.73 5 11 5l3-18c-4.332 0-8.33-3-13-3 0 1.235.643 5-1 5v11Z"/><path fill="#009C74" id="GU4" d="M96 173h1v-9c-2.592 0 .592-6-2-6l1 15Z"/><path fill="#248A5C" id="ORBl6b" d="M179 167c0 2.944-8.2 10-10 10-5.394 0-3.412-7.956-7.5-10-2.305-1.152-5.593-.796-8-2l-3.5-3 2-4 3 1c0 4.892 24 1.117 24 8ZM277 168c3.859 0 6.232 10 11 10l2-1.5c5.443-10.886 2.234-5.867 11.5-10.5l5.5-4v-1l-3-3-2 1-1 1c-2.595 0-9.049 1.775-11.5 3h-9c-2.384 1.192-3.5 2.493-3.5 5Z"/><path fill="#99D2BD" id="OLF" fill-rule="evenodd" d="M230 205c0 10.383 19.868 1 21 1l1-2 1-1c0-3.54 4-5.131 4-9 2.735 0 2.373-7 5-7l1-1c0-1.243 3.006-7 4-7 0-6.924-8-13.619-8-20h-1c0 4.513.894 10.711-1 14.5l-5 5.5c0 7.887-1.45 21.975-9.5 26H230m27-11c0-5.531-4.957 0 0 0Z"/><path fill="#C9C9CA" id="scwm" d="m302 159-1 1 1-1Z"/><path fill="#009C75" id="GU1" d="m84 178-3 2c0-5.879-4-12.545-4-19l4-1h1c0 6.429 2 12.024 2 18Z"/><path fill="#99D2BD" id="OLF" fill-rule="evenodd" d="M199 191c0 7.998 5.978 0 0 0m5 13 3.5 4c3.405 1.702 18.5 4.02 18.5-3h-12.5c-8.793-4.396-8.5-19.574-8.5-27-7.362 0-7-12.84-7-18-2.538 0-8 16.045-8 19l4 8 3 2.5c1.596 3.193 7 11.086 7 14.5Z"/><path fill="#009C75" id="GU1" d="m372 179 3 1c1.014 0 2-3.959 2-5 0-4.77 2-8.737 2-14l-4-1-3 18v1Z"/><path fill="#1F9866" id="AIv6a" d="m144 165 4 3 1-6v-1h-1l-4 4ZM312 166l-3 1-2-5v-1h2c0 2.364 3 3.053 3 5Z"/><path fill="#24895D" id="ORBl6a" d="M157 188h1c2.609 0 11-9.417 11-11-5.394 0-3.412-7.956-7.5-10-2.305-1.152-5.593-.796-8-2l-3.5-3h-1l-1 6c1.053 0 7.644 5.212 7 6.5l-2 2.5c7.254 0 4 7.049 4 11ZM288 178c0 2.29 8.941 10 11 10l-1-7.5 5-3.5-1-4.5 7-5.5-2-5-5.5 4c-9.266 4.633-6.057-.386-11.5 10.5l-2 1.5Z"/><path fill="#209665" id="AId5" d="M103 197h2c4.172 0 29-14.144 29-19-7.918 0-14-7.401-14-15-6.857 0-13.699 8-21 8l-2 1v1l2 15.5 4 8.5Z"/><path fill="#8ADA86" id="CLA" d="m135 178 6.5 2c2.772 1.386 7.269-1 9.5-1l2-2 2-2.5c.644-1.288-5.947-6.5-7-6.5l-4-3c-3.699 0-5.106-2.697-8.5-1-3.096 1.548-8.003 13-1.5 13l1 1ZM321 178l-5.5 2c-2.772 1.386-7.269-1-9.5-1l-3-2-1-4.5 7-5.5 3-1c4.959 0 4.924-3.788 10.5-1 3.123 1.562 5.077 12-.5 12l-1 1Z"/><path fill="#209665" id="AId5" d="M352 197h1c0-2.807 2.807-5.113 4-7.5 2.107-4.214 2-11.473 2-16.5v-1l-1-1c-7.053 0-15.592-8-21-8 0 6.969-6.837 15-14 15 0 5.655 24.513 19 29 19Z"/><path fill="#009C74" id="GU4" d="M359 173h2v-10l-2 2v8Z"/><path fill="#019C75" id="GU5" d="m99 171-2 1v-5l2 4Z"/><path fill="#99D2BD" id="OLF" d="M153 249h4l10-5c0-5.464.603-17 7-17 0-2.784-7-7.021-7-14-4.511 0-5-3.17-5-7l1-2v-2l1-2c0-9.14 13.404-22 22-22 0-2.004-5.136-11-7-11 0 2.944-8.2 10-10 10 0 1.583-8.391 11-11 11 0 1.577-1.762 2-3 2 0 3.324-22 14.874-22 16 2.684 0 4.535 5 6 5 0-5.838 11.803-16.848 17.5-14 4.246 2.123 3.602 13.704 5.5 17.5 1.144 2.288 5.851 10.324 1.5 12.5-6.261 3.13-11.511-8-16.5-8 0 2.115 5.996 5.248 7.5 6 2.344 1.172 6.029 6.557 7.5 9.5 3.649 7.298-9 9.497-9 14.5ZM304 249l-5 1c0-2.641-7.983-6-10-6 0-5.621-.013-17-7-17 0-2.015 7-5.254 7-14 6.243 0 5-4.799 5-9l-1-2v-1c0-9.22-13.717-23-23-23 0-2.321 4.786-10 7-10 3.859 0 6.232 10 11 10 0 2.29 8.941 10 11 10l2 2c0 2.458 23 15.785 23 16-3.342 0-4.781 5-7 5 0-5.777-11.103-16.699-16.5-14-5.496 2.748-4.196 13.892-6.5 18.5-1.11 2.22-5.632 9.434-1.5 11.5 4.046 2.023 7.099-3 10.5-3 0 4.241-11.758 7.985-9 13.5 1.642 3.284 3.582 5.582 6.5 8.5l3.5 3Z"/><path fill="#019C75" id="GU5" d="M359 171v1l-1-1h1Z"/><path fill="#209765" id="AId2/3" d="m103 197-10 3c-2.055 0-8-18.703-8-22 0-.99 9.73-5 11-5h1l2 15.5 4 8.5ZM353 197l10 3c2.173 0 6.753-15.007 8-17.5.523-1.046-.951-3.5 1-3.5v-1c-1.27 0-11-4.01-11-5h-2c0 5.027.107 12.286-2 16.5-1.193 2.387-4 4.693-4 7.5Z"/><path fill="#1F9866" id="AIv6a" d="M134 178h1l-1-1v1Z"/><path fill="#228A5D" id="ORBl5" d="M156 188h1c0-3.951 3.254-11-4-11l-2 2c0 2.585 2.135 9 5 9Z"/><path fill="#61D09F" id="TTd" d="M230 204v1h12.5c8.05-4.025 9.5-18.113 9.5-26l-1.5-2H216c-1.741 0-11-.773-11 1 0 7.426-.293 22.604 8.5 27H226l1-1v-1l1-4c0-1.186 1-1.186 1 0v4l1 1Z"/><path fill="#228A5D" id="ORBl5" d="M299 188h1c2.584 0 6-6.674 6-9l-3-2-5 3.5 1 7.5Z"/><path fill="#1F9866" id="AIv6a" d="M321 178h1v-1l-1 1Z"/><path fill="#209764" id="AId1" d="m93 201-4 1c0-5.595-8-14.211-8-22l3-2h1c0 3.297 5.945 22 8 22v1Z"/><path fill="#1F9865" id="AIv5" d="M130 206h3c0-1.126 22-12.676 22-16l1-2c-2.865 0-5-6.415-5-9-2.231 0-6.728 2.386-9.5 1l-6.5-2h-1c0 4.856-24.828 19-29 19 0 10.112 16.82 3.16 22.5 6l2.5 3Z"/><path fill="#97D6F9" id="STR" d="M194 187c-6.524 0-14.103 1.801-20.5 5-2.517 1.258-7.581 8-9.5 8 0-9.14 13.404-22 22-22l1 1.5v3c1.378 2.755 2.233-3.5 3-3.5l4 8ZM263 186c6.897 0 15.593 4.046 21.5 7l8.5 8c0-9.22-13.717-23-23-23 0 4.264-3 6.426-3 1-.994 0-4 5.757-4 7Z"/><path fill="#1F9865" id="AIv5" d="m324 206 3 1c0-8.246 25 .187 25-10-4.487 0-29-13.345-29-19h-2l-5.5 2c-2.772 1.386-7.269-1-9.5-1 0 2.326-3.416 9-6 9l1 2c0 2.458 23 15.785 23 16Z"/><path fill="#209764" id="AId1" d="m363 201 4 1c0-3.123 8-14.165 8-22l-3-1c-1.951 0-.477 2.454-1 3.5-1.247 2.493-5.827 17.5-8 17.5v1Z"/><path fill="#80CDF8" id="ACB" d="M211 233c0 17.214-.849 16.175-16.5 24-5.651 2.826-27.5-6.285-27.5-13 0-5.464.603-17 7-17 6.983 0 7.328-15.586 2.5-18-4.152-2.076-6.434 4-9.5 4-4.511 0-5-3.17-5-7l1-2v-2l1-2c1.919 0 6.983-6.742 9.5-8 6.397-3.199 13.976-5 20.5-5l3 2.5c1.596 3.193 7 11.086 7 14.5 0 9.259 7 18.211 7 29Z"/><path fill="#97D6F9" id="STR" d="m263 186-1 1 1-1Z"/><path fill="#80CDF8" id="ACB" d="M245 232c0 16.878 1.155 17.327 16.5 25 6.084 3.042 27.5-6.375 27.5-13 0-5.621-.013-17-7-17-5.389 0-7.278-15.111-1.5-18 3.786-1.893 5.759 4 8.5 4 6.243 0 5-4.799 5-9l-1-2v-1l-8.5-8c-5.907-2.954-14.603-7-21.5-7l-1 1c-2.627 0-2.265 7-5 7 0 3.869-4 5.46-4 9l-1 1-1 2c0 9.578-6 16.444-6 26Z"/><path fill="#1F9866" id="AIv6a" d="M158 188c0 1.577-1.762 2-3 2l1-2h2ZM300 188l1 2-2-2h1Z"/><path fill="#54BF94" id="AON" d="M199 191c0 7.998 5.978 0 0 0ZM257 194c0-5.531-4.957 0 0 0Z"/><path fill="#219764" id="AIv2/3" d="M130 206c0 1.149-4.516 1.508-5.5 2-5.374 2.687-13.212 6-19.5 6 0-3.345-12-8.152-12-13v-1l10-3h2c0 10.112 16.82 3.16 22.5 6l2.5 3Z"/><path fill="#A0EE9C" id="EPd" d="M146 219h1c4.989 0 10.239 11.13 16.5 8 4.351-2.176-.356-10.212-1.5-12.5-1.898-3.796-1.254-15.377-5.5-17.5-5.697-2.848-17.5 8.162-17.5 14v1l2 2v1c1.747 0 2 .253 2 2h1l2 2ZM304 223h1l1-1 1-1 2-1 1-1h1c0-1.747.253-2 2-2l1-1 1-1 1-1 1-1v-2c0-5.777-11.103-16.699-16.5-14-5.496 2.748-4.196 13.892-6.5 18.5-1.11 2.22-5.632 9.434-1.5 11.5 4.046 2.023 7.099-3 10.5-3l1-1Z"/><path fill="#219764" id="AIv2/3" d="M327 207c8.543 0 16.098 7 25 7 0-1.728 11-9.337 11-13v-1l-10-3h-1c0 10.187-25 1.754-25 10Z"/><path fill="#99D2BD" id="OLF" d="m229 202-2 1 1-4h1v3Z"/><path fill="#97D6F9" id="STR" d="m164 200-1 2 1-2Z"/><path fill="#209864" id="AIv1" d="M105 214c-1.564 0-3.876 1-6 1-2.525 0-10-10.986-10-13l4-1c0 4.848 12 9.655 12 13ZM352 214c0 2.496 5-.496 5 2 2.132 0 10-11.708 10-14l-4-1c0 3.663-11 11.272-11 13Z"/><path fill="#97D6F9" id="STR" d="M235 255c-2.144 0-.381-4.262-1-5.5-2.42-4.84-1.571-11.141-4-16l-1.5-6.5c-2.23 0-1.029 3.558-1.5 4.5-2.482 4.965-4 12.659-4 18.5 0 1.357-.647 6-2 6 0-3.015-2-6.004-2-8 1.22 0 1.504-3.492 1-4.5-2.148-4.296-4.744-10.5-9-10.5 0-10.789-7-19.741-7-29l3.5 4c3.405 1.702 18.5 4.02 18.5-3l1-1v-1l2-1v1l1 1v1c0 10.383 19.868 1 21 1 0 9.578-6 16.444-6 26-3.749 0-7.506 9.513-9 12.5-.472.945-.156 3.5 1 3.5 0 1.835-2 4.235-2 7ZM293 202l1 2-1-2Z"/><path fill="#99D2BD" id="OLF" d="m229 203 1 1-1-1Z"/><path fill="#97D6F9" id="STR" d="m253 203-1 1 1-1ZM163 204l-1 2 1-2Z"/><path fill="#99D2BD" id="OLF" d="m227 204-1 1 1-1Z"/><path fill="#97D6F9" id="STR" d="m252 204-1 2 1-2Z"/><path fill="#6ACAB9" id="PIR" d="m143 253-2 1c0-5.077-18.847-13-23-13 0-2.984-6.029-2.557-7-4.5-3.241-6.482-12-11.888-12-21.5 2.124 0 4.436-1 6-1 6.288 0 14.126-3.313 19.5-6 .984-.492 5.5-.851 5.5-2h3c2.684 0 4.535 5 6 5v1l2 2v1l2 2h1l2 2h1c0 2.115 5.996 5.248 7.5 6 2.344 1.172 6.029 6.557 7.5 9.5 3.649 7.298-9 9.497-9 14.5-3.974 0-6.315 4-10 4ZM313 253h3l6.5-6c6.152-3.076 10.109-6 16.5-6 0-2.747 5.805-4.305 8-6.5 5.008-5.008 10-11.418 10-18.5 0-2.496-5 .496-5-2-8.902 0-16.457-7-25-7l-3-1c-3.342 0-4.781 5-7 5v2l-1 1-1 1-1 1-1 1-2 2h-1l-1 1-2 1-1 1-1 1h-1l-1 1c0 4.241-11.758 7.985-9 13.5 1.642 3.284 3.582 5.582 6.5 8.5l3.5 3c3.205 0 6.241 4 9 4Z"/><path fill="#CBCBC7" id="aco" d="M167 213c3.066 0 5.348-6.076 9.5-4 4.828 2.414 4.483 18-2.5 18 0-2.784-7-7.021-7-14ZM289 213c-2.741 0-4.714-5.893-8.5-4-5.778 2.889-3.889 18 1.5 18 0-2.015 7-5.254 7-14Z"/><path fill="#99D2BD" id="OLF" d="m139 212 2 2-2-2ZM317 213l-1 1 1-1ZM316 214l-1 1 1-1ZM141 215c1.747 0 2 .253 2 2l-2-2ZM315 215l-1 1 1-1ZM314 216l-1 1 1-1ZM144 217l2 2-2-2ZM313 217c-1.747 0-2 .253-2 2l2-2ZM310 219l-1 1 1-1ZM309 220l-2 1 2-1ZM307 221l-1 1 1-1ZM306 222l-1 1 1-1ZM304 223l-1 1 1-1Z"/><path fill="#A2B1D7" id="SI" d="M219 248c0-2.855-5.457 3.957-6.5 5-4.168 4.168-8.131 7.566-13 10-10.977 5.488-24.306-3.653-33-8-1.836-.918-9.5-3.317-9.5-6l10-5c0 6.715 21.849 15.826 27.5 13 15.651-7.825 16.5-6.786 16.5-24 4.256 0 6.852 6.204 9 10.5.504 1.008.22 4.5-1 4.5ZM237 248l1.5-1 5.5 6.5c4.621 4.621 10.049 7.774 15.5 10.5 2.183 1.091 7.289-.145 9-1h6l14-6 10.5-7c0-2.641-7.983-6-10-6 0 6.625-21.416 16.042-27.5 13-15.345-7.673-16.5-8.122-16.5-25-3.749 0-7.506 9.513-9 12.5-.472.945-.156 3.5 1 3.5Z"/><path fill="#CAC8C7" id="lot" d="M141 257v2c-3.139 0-23-14.467-23-18 4.153 0 23 7.923 23 13v3ZM315 258l1 1c3.058 0 23-16.059 23-18-6.391 0-10.348 2.924-16.5 6l-6.5 6-1 2v3Z"/><path fill="#7FCCF7" id="OT" d="m217 268-1 1c0 3.883-8.196 6.848-10.5 8l-6 4-32-1c-3.559-1.78-7.427-3.213-11-5L144 263l-1-1v-1l-1-2-1-2v-1c1.577 0 2-1.762 2-3 3.685 0 6.026-4 10-4h4c0 2.683 7.664 5.082 9.5 6 8.694 4.347 22.023 13.488 33 8 4.869-2.434 8.832-5.832 13-10 1.043-1.043 6.5-7.855 6.5-5 0 1.996 2 4.985 2 8v3l-1 1v1l-1 1v2l-1 1v1l-1 1v1ZM239 267l1 1c0 4.949 9.21 8.355 12.5 10l4 3c2.081 1.041 33.836-.918 36-2l9-6c2.708-1.354 11.5-7.21 11.5-11l1-1 1-2v-4l-2-2c-2.759 0-5.795-4-9-4l-5 1-10.5 7-14 6h-6c-1.711.855-6.817 2.091-9 1-5.451-2.726-10.879-5.879-15.5-10.5l-5.5-6.5-1.5 1c0 1.835-2 4.235-2 7v2l1 2v1l1 1v2l1 1 1 3Z"/><path fill="#99D2BD" id="OLF" d="M141 254v2c1.577 0 2-1.762 2-3l-2 1ZM316 253l-1 2-2-2h3ZM142 259l-1 1v-3l1 2Z"/><path fill="#97D6F9" id="STR" d="m235 257 1 2-1-2Z"/><path fill="#99D2BD" id="OLF" d="m316 259-1 1v-2l1 1Z"/><path fill="#97D6F9" id="STR" d="m141 260 2 1-1-2-1 1ZM221 259l-1 1 1-1ZM315 260l-1 1 1-2v1ZM236 260l1 1-1-1ZM220 261l-1 1 1-1ZM314 261l-1 1 1-1ZM143 262l1 1-1-1ZM237 263l1 1-1-1ZM219 264l-1 1 1-1ZM218 266l-1 1 1-1ZM239 267l1 1-1-1ZM217 268l-1 1 1-1Z"/></svg>