<svg xmlns="http://www.w3.org/2000/svg" viewBox="0 0 456 320"><path fill="#99D2BD" id="OLF" d="M221 120v2l-3.5-3c-3.26-1.63-6.783-2.392-10-4-5.153-2.576-12.012 3-16.5 3l-1-2c0-.954 6.385-2 7.5-2 4.681 0 23.5.658 23.5 6ZM241 117c4.037 0 10.191-4.155 14.5-2 2.719 1.359 6.26 2 9.5 2l2-1c0-2.144-4.262-.381-5.5-1-3.027-1.514-20.5-1.565-20.5 2Z"/><path fill="#9AD1BD" id="MOB" d="M191 118c4.488 0 11.347-5.576 16.5-3 3.217 1.608 6.74 2.37 10 4l3.5 3c0 2.089 4.894 9.288 6 11.5 3.178 6.357-4 24.825-4 31.5 0 5.968-1.721 28.941-4 33.5v7c-2.925 5.849-5.02 12.04-8 18-4.77 9.541-23.977 11.046-29 1-4.71-9.421-3.752-20.504-7-27l-6-16c-9.772-19.543-16.292-44.104 8.5-56.5 3.955-1.978 8.934-7 13.5-7ZM265 117l11.5 6c8.841 4.421 26.434 22.633 20.5 34.5l-3 11c-4.906 9.813-8.135 20.269-13 30-4.976 9.951.816 24.842-12.5 31.5-16.735 8.367-23.406-8.312-28.5-18.5-6.232-12.463-1.138-31.276-7-43l-1-13c-1.977-3.955-4.412-19.175-2-24l6-10.5 5-4c4.037 0 10.191-4.155 14.5-2 2.719 1.359 6.26 2 9.5 2Z"/><path fill="#99D2BD" id="OLF" d="m189 116-2 1 2-1Z"/><path fill="#C7CBCA" id="onl" d="M159 221c0 4.56 12.235 17.867 16.5 20 1.734.867 4.161.08 6 1 3.524 1.762 8.496-4.252 13-2 4.924 2.462 11.492 3.754 17 1 4.06-2.03 12.353-19.206 14.5-23.5l2.5-12.5 2.5 15.5c1.679 3.358 11.477 18.988 14.5 20.5 5.446 2.723 12.109 1.446 17-1 4.019-2.009 8.996 3.502 12 2 1.839-.92 4.266-.133 6-1 5.39-2.695 16.5-14.542 16.5-20l-1-11.5c5.589-11.178 6-34.151 6-46.5v-1c-1.763 0-1-8.343-1-10v-5c-1.473 0-1-1.952-1-3v-1l-1-2v-2l-4-7c0-3.796-15.752-13-19-13l-1-1h-2l-1-1h-3l-1-1h-1l-2 1 11.5 6c8.841 4.421 26.434 22.633 20.5 34.5l-3 11c-4.906 9.813-8.135 20.269-13 30-4.976 9.951.816 24.842-12.5 31.5-16.735 8.367-23.406-8.312-28.5-18.5-6.232-12.463-1.138-31.276-7-43l-1-13c-1.977-3.955-4.412-19.175-2-24l6-10.5-1-1c-2.722 0-6.046 8-6.5 8l-7.5-8v2c0 2.089 4.894 9.288 6 11.5 3.178 6.357-4 24.825-4 31.5 0 5.968-1.721 28.941-4 33.5v7c-2.925 5.849-5.02 12.04-8 18-4.77 9.541-23.977 11.046-29 1-4.71-9.421-3.752-20.504-7-27l-6-16c-9.772-19.543-16.292-44.104 8.5-56.5 3.955-1.978 8.934-7 13.5-7l-1-2h-1l-2 1h-3l-1 1c-4.574 0-22 9.441-22 15l-1 1-1 1v1l-1 2c0 1.048.473 3-1 3v1c0 1.048.473 3-1 3v1c0 1.235.643 5-1 5v6c0 18.114-1.547 39.406 6 54.5l-2 9.5Z"/><path fill="#99D2BD" id="OLF" d="m268 116 1 1-1-1ZM184 117l-1 1 1-1ZM235 120l1 1 5-4c-1.643 0-6 1.338-6 3ZM272 117l1 1-1-1ZM275 118l1 1-1-1ZM295 132c1.948 0 4 5.428 4 7l-4-7ZM161 133l-1 1 1-1ZM160 134l-1 1 1-1ZM159 136l-1 2 1-2ZM158 138c-1.473 0-1 1.952-1 3 1.473 0 1-1.952 1-3ZM299 141l1 2-1-2ZM157 142c-1.473 0-1 1.952-1 3 1.473 0 1-1.952 1-3ZM300 144c1.473 0 1 1.952 1 3-1.473 0-1-1.952-1-3ZM156 146c-1.643 0-1 3.765-1 5 1.643 0 1-3.765 1-5ZM301 152c1.763 0 1 8.343 1 10-1.763 0-1-8.343-1-10ZM155 157c-1.614 0-1 3.31-1 4.5l-1 14c-2.416 4.833-8.053 26.893-5 33l3 3c1.032 2.064 4.726 9.5 8 9.5l2-9.5c-7.547-15.094-6-36.386-6-54.5ZM302 163c1.397 0 1.167 12.834 2 14.5 1.52 3.04 6.497 26.006 5 29-.988 1.976-3.287 3.574-4 5-1.595 3.191-4.132 9.5-8 9.5l-1-11.5c5.589-11.178 6-34.151 6-46.5Z"/></svg>