<svg xmlns="http://www.w3.org/2000/svg" viewBox="0 0 456 320"><path fill="#1E9C59" id="MOs1" d="m225 61-4 2-4.5-6-8-6c-2.645-1.323-6.286-.643-9-2-6.789-3.395-29.905 8-36.5 8v-6c0-2.853 10.523-3.011 12.5-4 11.258-5.629 36.838-6.824 43.5 6.5l6 7.5ZM235 64h1c0-4.48 7.132-9.316 10.5-11 9.273-4.636 26.315-4.843 36 0 2.806 1.403 7.305 4 10.5 4v-6c0-3.083-10.448-2.974-12.5-4-11.983-5.992-36.41-6.68-43.5 7.5-.864 1.728-5 3.581-5 6.5l3 3Z"/><path fill="#1E9D58" id="MOs2/3" d="M214 68h1c0-1.028 4.666-4 6-4v-1l-4.5-6-8-6c-2.645-1.323-6.286-.643-9-2-6.789-3.395-29.905 8-36.5 8v17c8.985 0 26.466-18.517 37.5-13 3.697 1.849 13.5.156 13.5 7ZM242 68c0-6.408 10.416-5.458 13.5-7 11.348-5.674 28.988 13 37.5 13V57c-3.195 0-7.694-2.597-10.5-4-9.685-4.843-26.727-4.636-36 0-3.368 1.684-10.5 6.52-10.5 11l6 4Z"/><path fill="#1E9D5A" id="MOp1" d="M103 83v6c5.547 0 12.548-9.524 17.5-12 10.001-5 31.859-19 42.5-19v-7c-9.682 0-35.727 17.113-45.5 22L103 83ZM354 91h1c0-1.819-1-4.59-1-7 0-2.99-12.128-8.814-14.5-10-10.966-5.483-35.04-23-46.5-23v6c9.542 0 37.82 19.16 47.5 24 2.312 1.156 13.5 8.232 13.5 10Z"/><path fill="#1F9C58" id="MOp2/3" d="M352 107c0 .822-1.311 8-2 8l-10.5-12-9-8c-9.136-4.568-17.943-10.471-27-15-3.243-1.622-6.73-6-10.5-6V57c9.542 0 37.82 19.16 47.5 24 2.312 1.156 13.5 8.232 13.5 10l-2 16ZM105 107l1 8 16.5-17c5.495-5.495 33.489-23 40.5-23V58c-10.641 0-32.499 14-42.5 19-4.952 2.476-11.953 12-17.5 12v2c0 5.859 2 11.032 2 16Z"/><path fill="#1F9D58" id="MOs5" d="M198 83h1c0-3.8 15-13.385 15-15 0-6.844-9.803-5.151-13.5-7-11.034-5.517-28.515 13-37.5 13v1c0 7.932-1 12.906-1 20 4.384 0 23.393-11.446 28.5-14l7.5 2ZM258 83l7.5-2L294 95c0-7.755-1-14.645-1-21-8.512 0-26.152-18.674-37.5-13-3.084 1.542-13.5.592-13.5 7v1c4.908 0 13.897 14 16 14Z"/><path fill="#3EA665" id="ACAd1" d="M223 95h11l-1-17.5c1.629-3.258 2-9.79 2-13.5l-3-3c-4.458 0-1.248 10.004-5 2.5l-2-2.5-4 2v1c0 2.654.888 5.275 2 7.5V95Z"/><path fill="#40A565" id="ACAd2/3" d="m223 95-6 1V73.5c-1.042-2.084-2-2.908-2-5.5 0-1.028 4.666-4 6-4 0 2.654.888 5.275 2 7.5V95ZM234 95l6 1V75c0-1.623.005-6 2-6v-1l-6-4h-1c0 3.71-.371 10.242-2 13.5l1 17.5Z"/><path fill="#3EA566" id="ACAd5" d="M217 96c-4.621 0-12.162 8-15 8l-1-16.5-2-4.5c0-3.8 15-13.385 15-15h1c0 2.592.958 3.416 2 5.5V96ZM240 96c5.164 0 10.155 8 15 8 0-3.497-.956-20 3-20v-1c-2.103 0-11.092-14-16-14-1.995 0-2 4.377-2 6v21Z"/><path fill="#1E9C5A" id="MOp5" d="M350 116c-1.88 0 .711 2.079 0 3.5-2.767 5.533-3 11.558-3 17.5-1.845 0-1.441-3.381-2-4.5-2.26-4.52-5.203-9.203-9-13-7.202-7.202-32.688-24.5-42-24.5 0-7.755-1-14.645-1-21 3.77 0 7.257 4.378 10.5 6 9.057 4.529 17.864 10.432 27 15l9 8 10.5 12v1ZM106 117c0 4.361 4 11.626 4 13.5h-2c0 .611 1.394 5.5 2 5.5l8.5-15 11-10c6.001-3.001 27.27-16 32.5-16 0-7.094 1-12.068 1-20-7.011 0-35.005 17.505-40.5 23L106 115v2Z"/><path fill="#1D9C5A" id="MOs6a" d="M176 111c-5.462 0-8.53 5-13 5 0-6.197-1-15.46-1-21 4.384 0 23.393-11.446 28.5-14l7.5 2c0 4.013-13 18.764-13 26-2.008 0-9-.656-9 2ZM271 109c10.037 0 21.782 8 23 8V95l-28.5-14-7.5 2v1c2.828 0 13 21.661 13 25Z"/><path fill="#187E61" id="SSp-m1" d="m73 165-4 1-1-17.5c2.347-4.693.661-11.323 3-16l7-20c2.079-4.157 4.909-7.818 7-12C86.627 97.246 99.594 83 103 83v6l-1 2c-.342 0-11.73 11.96-13 14.5-12.413 24.827-16 29.117-16 59.5Z"/><path fill="#3FA664" id="ACAd6a" d="m195 111-4 1-6-3c0-7.236 13-21.987 13-26h1l2 4.5 1 16.5-7 7ZM265 113h1l1-1 1-1c0-1.577 1.762-2 3-2 0-3.339-10.172-25-13-25-3.956 0-3 16.503-3 20v1c1.63 0 6 4.37 6 6l4 2Z"/><path fill="#187E61" id="SSp-m1" d="M383 165h4l2-12.5c-3.096-6.191-.912-14.824-4-21l-7-20c-1.946-3.893-5.013-7.025-7-11-1.891-3.783-12.514-16.5-17-16.5 0 2.41 1 5.181 1 7l7 7.5c3.79 3.79 8.149 9.299 11 15 8.962 17.923 10 30.881 10 51.5Z"/><path fill="#1E9D5A" id="MOp1" d="M102 91h1v-2l-1 2Z"/><path fill="#1A7E64" id="SSp-m2/3" d="M73 165h1l10-3c0-16.952 4.035-29.571 11-43.5 1.648-3.297 6.604-11.5 10-11.5 0-4.968-2-10.141-2-16h-1c-.342 0-11.73 11.96-13 14.5-12.413 24.827-16 29.117-16 59.5ZM372 162l11 3c0-20.619-1.038-33.577-10-51.5-2.851-5.701-7.21-11.21-11-15l-7-7.5h-1l-2 16c2.457 0 7.951 9.403 9 11.5 7.3 14.6 11 26.848 11 43.5Z"/><path fill="#1F9B5A" id="MOp6a" d="m126 164-16 6c0-4.252-2-9.018-2-13l-1-2v-2c1.399 0 1.399-2 0-2l1-7 1-1v-3c1.186 0 1.186-1 0-1v-1l1-1v-1l8.5-15 11-10c6.001-3.001 27.27-16 32.5-16 0 5.54 1 14.803 1 21v1c-2.178 0-14 7.305-14 10-2.477 0-2.522 2.011-4.5 3-11.76 5.88-18.5 21.012-18.5 33v1Z"/><path fill="#3FA566" id="ACAv2/3" d="M219 143h3c0-15.315 1-32.445 1-48l-6 1c0 16.353 2 31.72 2 47Z"/><path fill="#40A664" id="ACAv1" d="M233 143h1V95h-11c0 15.555-1 32.685-1 48h2c3.499 0 3.022-6.545 4-8.5l.5-3.5c.94 0-.101 12 3.5 12h1Z"/><path fill="#3FA566" id="ACAv2/3" d="M234 143h3c0-2.974.637-9.775 2-12.5 1.572-3.143 1-29.938 1-34.5l-6-1v48Z"/><path fill="#1F9B5A" id="MOp6a" d="M330 163c1.622 0 12.349 7 16 7 0-1.529 2.011-13 3-13v-11l-1-1v-1c-1.186 0-1.186-1 0-1l-1-6c-1.845 0-1.441-3.381-2-4.5-2.26-4.52-5.203-9.203-9-13-7.202-7.202-32.688-24.5-42-24.5v22c3.537 0 8.297 6.399 11.5 8 14.329 7.165 24.5 22.614 24.5 38Z"/><path fill="#3EA666" id="ACAv5" d="M213 143h6c0-15.28-2-30.647-2-47-4.621 0-12.162 8-15 8 0 9.925.892 20.284 5 28.5l6 10.5ZM237 143h7c0-3.37 3.563-6.626 5-9.5 3.777-7.554 6-19.621 6-28.5v-1c-4.845 0-9.836-8-15-8 0 4.562.572 31.357-1 34.5-1.363 2.725-2 9.526-2 12.5Z"/><path fill="#40A564" id="ACAv6a" d="M209 143h4l-6-10.5c-4.108-8.216-5-18.575-5-28.5l-7 7v8l2 6 1 1v1l1 1v1l2 2v1c1.577 0 2 1.762 2 3v2l6 6ZM244 143h3l6-6v-1l2-4 1-1 1-1v-1l1-1v-1l1-1v-1l1-1 1-4v-9c0-1.63-4.37-6-6-6 0 8.879-2.223 20.946-6 28.5-1.437 2.874-5 6.13-5 9.5Z"/><path fill="#1B7F62" id="SSp-m4" d="m89 161-5 1c0-16.952 4.035-29.571 11-43.5 1.648-3.297 6.604-11.5 10-11.5l1 8v2c-2.796 0-5.109 6.718-6 8.5-4.59 9.18-11 24.835-11 35.5ZM367 161l5 1c0-16.652-3.7-28.9-11-43.5-1.049-2.097-6.543-11.5-9-11.5 0 .822-1.311 8-2 8v1c2.718 0 6.016 8.533 7 10.5 4.878 9.757 10 22.973 10 34.5Z"/><path fill="#1E9C58" id="MOs6b" d="m185 110-9 1c0-2.656 6.992-2 9-2v1Z"/><path fill="#3FA466" id="ACAd6b" d="M190 113h1v-1l-6-3v1l5 3ZM271 110c0 1.473-1.952 1-3 1 0-1.577 1.762-2 3-2v1Z"/><path fill="#1E9C58" id="MOs6b" d="M292 118h2v-1c-1.218 0-12.963-8-23-8v1c3.656 0 21 4.085 21 8Z"/><path fill="#CACCC7" id="cing" d="M203 135v2c-5.091 0-12.016-15.532-14-19.5-1.462-2.924-15-3.861-15-.5h-3l-1 1h-1c-1.145 0-4 .579-4-1l11-6 9-1 5 3c0 3.716 5.273 12.046 7 15.5l4 4.5 2 2ZM255 133l-1 3c6.073 0 9.692-14.192 13.5-18 1.693-1.693 14.5-6.082 14.5-1l5 1h5c0-3.915-17.344-8-21-8 0 1.473-1.952 1-3 1l-1 1v1l-2 2-5 10-1 2-1 2-1 2c0 1.747-.253 2-2 2Z"/><path fill="#1E9C58" id="MOs6b" d="m165 117-2 1v-2c4.47 0 7.538-5 13-5l-11 6Z"/><path fill="#2FA850" id="PL6a" d="M191 113c0 .853 2.992 6 4 6v-8l-4 1v1ZM265 115l-4 5v-9l4 2v2Z"/><path fill="#3FA466" id="ACAd6b" d="m268 111-1 1 1-1ZM266 113h1v-1l-1 1Z"/><path fill="#2FA84F" id="PL6b" d="M201 132v1l-4-4.5c-1.727-3.454-7-11.784-7-15.5h1c0 .853 2.992 6 4 6l2 6 1 1v1l1 1v1l2 2v1ZM267 113l-2 2v-2h2Z"/><path fill="#CCC7C9" id="ccg" d="m209 143 1 5c-2.769 0-15.988-17.488-19-20.5-4.019-4.019-7.851-6.176-12.5-8.5-1.119-.559-4.5-.155-4.5-2 0-3.361 13.538-2.424 15 .5 1.984 3.968 8.909 19.5 14 19.5l6 6Z"/><path fill="#2FA84F" id="PL6b" d="M260 124v1l5-10-4 5-1 4Z"/><path fill="#CCC7C9" id="ccg" d="M247 143v4c3.743 0 15.418-16.918 18.5-20 3.723-3.723 8.584-5.792 13-8 1.158-.579 3.5.341 3.5-2 0-5.082-12.807-.693-14.5 1-3.808 3.808-7.427 18-13.5 18l-1 1-6 6Z"/><path fill="#1B7E63" id="SSp-m5" d="M349 157c6.301 0 11.952 4 18 4 0-11.527-5.122-24.743-10-34.5-.984-1.967-4.282-10.5-7-10.5-1.88 0 .711 2.079 0 3.5-2.767 5.533-3 11.558-3 17.5l1 6v2l1 1v11ZM107 157c-6.292 0-12.642 4-18 4 0-10.665 6.41-26.32 11-35.5.891-1.782 3.204-8.5 6-8.5 0 4.361 4 11.626 4 13.5h-2c0 .611 1.394 5.5 2 5.5v1l-1 1v5l-1 1-1 7v6Z"/><path fill="#1D9D5A" id="MOp6b" d="M163 118c0 1.411-12.209 9-14 9 0-2.695 11.822-10 14-10v1Z"/><path fill="#C9C9CA" id="scwm" d="M129 163c0 1.321-.684 6 1 6 0-13.642 5.009-31.755 17.5-38l21.5-13c-1.145 0-4 .579-4-1l-2 1c0 1.411-12.209 9-14 9 0 4.213-11.621 9.743-14 14.5-3.736 7.472-6 12.291-6 21.5Z"/><path fill="#CAC7CC" id="fa" d="M130 171h3c0-24.815 5.131-27.816 25.5-38 9.919-4.96 36.5 7.29 36.5 18 2.832 0 6 7.298 6 10h6v-1l1-1 1-5c0-1.564 1-3.876 1-6-2.769 0-15.988-17.488-19-20.5-4.019-4.019-7.851-6.176-12.5-8.5-1.119-.559-4.5-.155-4.5-2h-3l-1 1h-1l-21.5 13c-12.491 6.245-17.5 24.358-17.5 38v2ZM323 171c1.048 0 3-.473 3 1 1.714 0 1-5.594 1-7 0-13.652-9.231-30.366-22.5-37L287 118l-5-1c0 2.341-2.342 1.421-3.5 2-4.416 2.208-9.277 4.277-13 8-3.082 3.082-14.757 20-18.5 20v8l2 4v2h6c0-1.57 3.795-10 6-10 0-9.631 25.97-23.265 36.5-18 22.311 11.155 25.5 11.157 25.5 38Z"/><path fill="#1D9D5A" id="MOp6b" d="M328 163h2c0-15.386-10.171-30.835-24.5-38-3.203-1.601-7.963-8-11.5-8v1l4 3.5c2.895 2.895 9.669 7.584 13.5 9.5 11.087 5.543 16.5 21.257 16.5 32Z"/><path fill="#C9C9CA" id="scwm" d="m328 163-1 2c0-13.652-9.231-30.366-22.5-37L287 118h7l4 3.5c2.895 2.895 9.669 7.584 13.5 9.5 11.087 5.543 16.5 21.257 16.5 32Z"/><path fill="#40A465" id="ACAv6b" d="M259 125h1v-1l-1 1ZM197 125l1 1-1-1Z"/><path fill="#2FA84F" id="PL6b" d="M259 126v1l1-2h-1v1Z"/><path fill="#40A465" id="ACAv6b" d="M258 127h1v-1l-1 1Z"/><path fill="#1D9D5A" id="MOp6b" d="M126 163h3c0-9.209 2.264-14.028 6-21.5 2.379-4.757 14-10.287 14-14.5-2.477 0-2.522 2.011-4.5 3-11.76 5.88-18.5 21.012-18.5 33Z"/><path fill="#40A465" id="ACAv6b" d="m198 127 1 1-1-1Z"/><path fill="#2FA84F" id="PL6b" d="M258 128v1l1-2h-1v1Z"/><path fill="#40A465" id="ACAv6b" d="M257 129h1v-1l-1 1ZM199 129l2 2-2-2Z"/><path fill="#2FA84F" id="PL6b" d="M257 130v1l1-2h-1v1Z"/><path fill="#40A465" id="ACAv6b" d="M256 131h1v-1l-1 1ZM256 131l-1 1 1-1Z"/><path fill="#2FA84F" id="PL6b" d="M255 132v1c1.747 0 2-.253 2-2h-1l-1 1Z"/><path fill="#40A465" id="ACAv6b" d="m201 133 2 2c0-1.238-.423-3-2-3v1ZM253 136h1l1-3v-1l-2 4Z"/><path fill="#98D5F9" id="CP" d="m147 225 4 2c1.606 0 4.339 2.081 6.5 1 4.837-2.418 7.103-11.707 9.5-16.5 3.775-7.551 14.986-12.243 21.5-15.5l6.5-5 1-2v-1l1-28c0-3.447-2-6.245-2-9 0-10.71-26.581-22.96-36.5-18-20.369 10.184-25.5 13.185-25.5 38 1.149 0 1.508 4.516 2 5.5 3.282 6.565 5 14.668 5 22.5 0 6.578 3 11.87 3 18v1l1 1 3 6ZM309 225l-4 3c-10.267 0-8.477-4.455-12-11.5l-5-7c-3.435-6.871-14.898-10.699-20.5-13.5l-6.5-5-1-2v-1c0-9.221-1-19.461-1-28 .792 0 2-7.987 2-9 0-9.631 25.97-23.265 36.5-18 22.311 11.155 25.5 11.157 25.5 38 0 3.466-2.538 6.575-4 9.5-2.672 5.343-2 13.065-2 19.5 0 4.246-2 7.473-2 12-1.473 0-1 1.952-1 3v1l-1 1-4 8Z"/><path fill="#CACCC7" id="cing" d="m254 136-1 1v-1h1Z"/><path fill="#1E9C5A" id="MOp5" d="m110 137-1 1 1-1Z"/><path fill="#187D61" id="SSp-m6a" d="M109 139c1.186 0 1.186 1 0 1v-1ZM109 143l-1 1 1-1Z"/><path fill="#A3DAA3" id="DP" d="M211 156h13l1-7v-3l-1-2v-1h-15l1 5c0 2.124-1 4.436-1 6l2 2Z"/><path fill="#99D2BD" id="OLF" d="m233 143-1 1v-1h1Z"/><path fill="#A3DAA3" id="DP" d="M233 156c0 2.811 10.821 0 12 0l2-1v-12h-14l-1 1v1c0 3.642 1 8.002 1 11Z"/><path fill="#187D61" id="SSp-m6a" d="M348 143c-1.186 0-1.186 1 0 1v-1Z"/><path fill="#99D2BD" id="OLF" d="m224 144 1 2-1-2ZM233 156c-4.145 0-1.82 7-4 7 0-4.99 2-8.551 2-13 0-1.235-.643-5 1-5 0 3.642 1 8.002 1 11Z"/><path fill="#187D61" id="SSp-m6a" d="m348 145 1 1-1-1Z"/><path fill="#99D2BD" id="OLF" d="M215 177c0 7.532 24 10.76 24 2-9.809 0-10-1.457-10-11-.537 0-3-12.594-3-14 0-1.235.643-5-1-5l-1 7c2.565 0 4.435 19.63 3 22.5-1.639 3.278-10.649-1.5-12-1.5Z"/><path fill="#187D61" id="SSp-m6a" d="M107 151c1.399 0 1.399 2 0 2v-2Z"/><path fill="#AAA8A9" id="SEZ" d="m202 174-1 1c0-3-.672-15-4-15 0-3.447-2-6.245-2-9 2.832 0 6 7.298 6 10 0 3.629 1 8.716 1 13ZM255 175c0 1.145-.579 4 1 4 0-3.395-.646-19 3-19 .792 0 2-7.987 2-9-2.205 0-6 8.43-6 10v14Z"/><path fill="#99D2BD" id="OLF" d="m211 156-3 3 1-5 2 2Z"/><path fill="#187D61" id="SSp-m6a" d="M107 157h1l-1-2v2Z"/><path fill="#99D2BD" id="OLF" d="m245 156 4 3-2-4-2 1Z"/><path fill="#61D09F" id="TTd" d="m212 174 3 3c1.351 0 10.361 4.778 12 1.5 1.435-2.87-.435-22.5-3-22.5h-13l-3 3-1 1v1c0 3.942 2 6.745 2 10l2 2 1 1ZM240 178l-1 1c-9.809 0-10-1.457-10-11v-5c2.18 0-.145-7 4-7 0 2.811 10.821 0 12 0l4 3v2c0 3.702-2 7.27-2 10l-1 1-6 6Z"/><path fill="#019C75" id="GU5" d="m108 171-19 8v-18c5.358 0 11.708-4 18-4 0 4.351 1 9.131 1 14Z"/><path fill="#009B74" id="GU6a" d="m110 170-2 1c0-4.869-1-9.649-1-14h1c0 3.982 2 8.748 2 13ZM346 170l3 1v-14c-.989 0-3 11.471-3 13Z"/><path fill="#019C75" id="GU5" d="M349 172c6.727 0 11.621 7 18 7v-18c-6.048 0-11.699-4-18-4v15Z"/><path fill="#99D2BD" id="OLF" d="m208 159-1 1 1-1Z"/><path fill="#A8AAAA" id="VL" d="M196 188h2l1-1v-2c0-1.048-.473-3 1-3v-1c0-1.145-.579-4 1-4v-2c0-3-.672-15-4-15l-1 28ZM259 188h1c0-9.221-1-19.461-1-28-3.646 0-3 15.605-3 19v1c1.579 0 1 2.855 1 4v2l1 1 1 1Z"/><path fill="#009C74" id="GU4" d="m89 179-2 1c0-5.83-3-11.957-3-18l5-1v18Z"/><path fill="#99D2BD" id="OLF" d="M209 171c-3.205 0-5.611 3-7 3 0-4.284-1-9.371-1-13h6c0 3.942 2 6.745 2 10ZM247 171c4.427 0 7.6 4 8 4v-14h-6c0 3.702-2 7.27-2 10Z"/><path fill="#009C74" id="GU4" d="m367 179 2 1c0-5.558 3-11.715 3-18l-5-1v18Z"/><path fill="#009B75" id="GU2/3" d="m87 180-10 3c0-5.835-3-11.565-3-18l10-3c0 6.043 3 12.17 3 18ZM369 180l10 3c1.951 0 .477-2.454 1-3.5 1.765-3.53 3-10.481 3-14.5l-11-3c0 6.285-3 12.442-3 18Z"/><path fill="#1F9766" id="AId6b" d="M131 181h2l-3-10v-2c-1.684 0-1-4.679-1-6h-3v1c.2 0 3 11.916 3 13v1l2 2v1ZM323 181h2l1-1 1-2c0-4.794 3-9.738 3-15h-2l-1 2c0 1.406.714 7-1 7 0 2.918-3 6.657-3 9Z"/><path fill="#209666" id="AId6a" d="m335 192 4 1 8-10.5c.68-1.359.67-10.5 2-10.5v-1l-3-1c-3.651 0-14.378-7-16-7 0 5.262-3 10.206-3 15 1.991 0 2.931-4.284 5.5-3 8.308 4.154 2.5 11.357 2.5 17ZM117 193h1c1.238 0 3-.423 3-2 0-5.866-5.064-11.218 2.5-15l3-1c1.445.723.091 2 2.5 2 0-1.084-2.8-13-3-13l-16 6-2 1c0 12.003 9 19.408 9 22Z"/><path fill="#009C75" id="GU1" d="m77 184-4 1-4-19 4-1h1c0 6.435 3 12.165 3 18v1ZM379 184l4 1c0-6.505 4-12.886 4-20h-4c0 4.019-1.235 10.97-3 14.5-.523 1.046.951 3.5-1 3.5v1Z"/><path fill="#209665" id="AId5" d="M117 193c0 1.186-4.29 2-5.5 2L96 199c-4.563 0-7-16.127-7-20l19-8c0 12.003 9 19.408 9 22Z"/><path fill="#C8CBCC" id="ec" d="m140 199-2 2c0-3.401-2.451-18-5-18v-2l-3-10h3c1.149 0 1.508 4.516 2 5.5 3.282 6.565 5 14.668 5 22.5Z"/><path fill="#97D6F9" id="STR" d="m237 265 2 1v-13l1-1v-2c0-2.285-2.64-16 2-16v-14c-16.948 0-4.284-35.608 2.5-39l3 2c2.493 1.246 6.622 3 9.5 3v-2c-1.579 0-1-2.855-1-4v-1c-1.579 0-1-2.855-1-4-.4 0-3.573-4-8-4l-1 1-6 6-1 1c0 8.76-24 5.532-24-2l-3-3-1-1-2-2c-3.205 0-5.611 3-7 3l-1 1v2c0 1.145.579 4-1 4v4c4.386 0 9.581-4 11.5-4 3.404 0 4.642 7.784 5.5 9.5 3.067 6.133 11.952 24.274 1.5 29.5-5.005 2.502-2.402-3-5.5-3 0 4.715 2 10.914 2 17 4.052 0 1 13.165 1 15v1l1 1c0 3.067.765 4.029 2 6.5l-1 7.5h1l1-1 2-5 1-1v-2l1-2v-1c-1.758 0-1-7.884-1-9.5 0-8.12-.497-22.007 3-29 2.703-5.406 4.935 2.869 6 5 2.249 4.498 1 28.139 1 33.5v4l1 1v1l1 1 2 5Z"/><path fill="#99D2BD" id="OLF" d="m247 171-1 1 1-1Z"/><path fill="#C8CBCC" id="ec" d="M317 200h1c0-2.154.567-11 3-11 0-1.424.362-5 2-5v-3c0-2.343 3-6.082 3-9 0-1.473-1.952-1-3-1 0 3.466-2.538 6.575-4 9.5-2.672 5.343-2 13.065-2 19.5Z"/><path fill="#209665" id="AId5" d="M339 194c7.826 0 14.127 5 22 5 4.075 0 6-16.125 6-20-6.379 0-11.273-7-18-7-1.33 0-1.32 9.141-2 10.5l-8 10.5v1Z"/><path fill="#99D2BD" id="OLF" d="m211 173 1 1-1-1Z"/><path fill="#8ADA86" id="CLA" d="M133 183c0 6.423 7.184 12.658-1.5 17-2.117 1.059-2.786 1.107-5 0l-5.5-9c0-5.866-5.064-11.218 2.5-15l3-1c1.445.723.091 2 2.5 2v1l2 2v1l2 2ZM321 189c0 5.777.769 14.865 8.5 11 2.714-1.357 2.993-8 5.5-8 0-5.643 5.808-12.846-2.5-17-2.569-1.284-3.509 3-5.5 3l-1 2-1 1-1 2-1 1c0 1.424-.362 5-2 5Z"/><path fill="#AAA8A9" id="SEZ" d="M201 177c-1.579 0-1 2.855-1 4 1.579 0 1-2.855 1-4Z"/><path fill="#209666" id="AId6a" d="m129 178 2 2-2-2Z"/><path fill="#99D2BD" id="OLF" d="m240 178-1 1 1-1Z"/><path fill="#209765" id="AId2/3" d="M96 200c-4.722 0-7.555 3-12 3 0-4.775-7-12.952-7-19v-1l10-3 2-1c0 3.873 2.438 20 7 20v1ZM372 203h1c0-6.326 6-12.201 6-19v-1l-10-3-2-1c0 3.875-1.925 20-6 20v1l11 3Z"/><path fill="#AAA8A9" id="SEZ" d="M256 180c1.579 0 1 2.855 1 4-1.579 0-1-2.855-1-4Z"/><path fill="#209666" id="AId6a" d="m326 180-1 1 1-1ZM133 181v2l-2-2h2Z"/><path fill="#90CAED" id="LSr" d="M213 215v2c3.098 0 .495 5.502 5.5 3 10.452-5.226 1.567-23.367-1.5-29.5-.858-1.716-2.096-9.5-5.5-9.5-1.919 0-7.114 4-11.5 4 0 4.384 3 7.678 3 11v1l2 2v1c1.577 0 2 1.762 2 3v1l1 1v1l1 1 1 3 1 1v2l2 2ZM243 219l-1 1c-16.948 0-4.284-35.608 2.5-39l3 2c2.493 1.246 6.622 3 9.5 3v1l-2 7c-1.577 0-2 1.762-2 3l-1 2-1 1v1l-1 1-1 1v2l-1 1-1 3-1 1v1l-1 1v1l-1 2-1 1v3Z"/><path fill="#209666" id="AId6a" d="M323 183h1l1-2h-2v2Z"/><path fill="#AAA8A9" id="SEZ" d="M199 185h1v-3c-1.473 0-1 1.952-1 3Z"/><path fill="#1F9866" id="AIv6a" d="M125 208h1l1-1c1.904 0 5.57-5 10-5l1-1c0-3.401-2.451-18-5-18 0 6.423 7.184 12.658-1.5 17-2.117 1.059-2.786 1.107-5 0l-5.5-9c0 1.577-1.762 2-3 2l7 15ZM324 183l-1 1v-1h1Z"/><path fill="#209764" id="AId1" d="m84 203-3 2-2.5-4-5.5-16 4-1c0 6.048 7 14.225 7 19Z"/><path fill="#1F9866" id="AIv6a" d="M323 184c-1.638 0-2 3.576-2 5 1.638 0 2-3.576 2-5Z"/><path fill="#209764" id="AId1" d="m373 203 2 2c1.333 0 8-17.216 8-20l-4-1c0 6.799-6 12.674-6 19Z"/><path fill="#97D6F9" id="STR" d="M195 191c4.615 0 4.919 5 8 5 0-3.322-3-6.616-3-11h-1v2l-1 1-2 1-1 2Z"/><path fill="#AAA8A9" id="SEZ" d="M257 187h1l-1-1v1ZM199 187l-1 1 1-1Z"/><path fill="#97D6F9" id="STR" d="M261 191c-2.813 0-3.921 3-6 3l2-7h1l1 1 1 1 1 2Z"/><path fill="#AAA8A9" id="SEZ" d="m198 188-2 1v-1h2ZM260 188v1l-1-1h1Z"/><path fill="#1F9866" id="AIv6a" d="M319 202c5.452 0 9.306 6 12 6l2-2.5c.917-1.834 3.77-11.5 6-11.5v-1l-4-1c-2.507 0-2.786 6.643-5.5 8-7.731 3.865-8.5-5.223-8.5-11-2.433 0-3 8.846-3 11l1 2Z"/><path fill="#80CDF8" id="ACB" fill-rule="evenodd" d="M176 210c0 .669-6.143 6.785-7 8.5-1.721 3.442 4.58 7.96 7.5 6.5 5.779-2.89 6.86-15-.5-15m39 24c0 25.948-32.198 35.151-52.5 25-2.97-1.485-5.895-3.289-7.5-6.5-.659-1.319.334-5.5-2-5.5v-16.5l-2-3.5c1.606 0 4.339 2.081 6.5 1 4.837-2.418 7.103-11.707 9.5-16.5 3.775-7.551 14.986-12.243 21.5-15.5l6.5-5c4.615 0 4.919 5 8 5v1l2 2v1l2 3v1l1 1v1l1 1 1 3 1 1v2l2 2v2c0 4.715 2 10.914 2 17ZM279 210c0 1.549-4 2.459-4 5.5 0 19.117 21.181 3.84 8.5-2.5-1.696-.848-1.526-3-4.5-3m-37 24c0 16.568 20.839 36.331 37.5 28 6.11-3.055 23.5-.471 23.5-15v-14.5l2-4.5c-10.267 0-8.477-4.455-12-11.5l-5-7c-3.435-6.871-14.898-10.699-20.5-13.5l-6.5-5c-2.813 0-3.921 3-6 3 0 1.238-.423 3-2 3l-1 2-1 1v1l-1 1-1 1v2l-1 1-1 3-1 1v1l-1 1v1l-1 2-1 1v3l-1 1v14Z"/><path fill="#1F9865" id="AIv5" d="M117 211c-2.124 0-4.436 1-6 1 0-4.385-9.872-7.686-12.5-9l-2.5-3v-1l15.5-4c1.21 0 5.5-.814 5.5-2h1l7 15c-1.246 0-8 1.554-8 3Z"/><path fill="#97D6F9" id="STR" d="M255 194c-1.577 0-2 1.762-2 3 1.577 0 2-1.762 2-3Z"/><path fill="#1F9865" id="AIv5" d="M340 211c2.124 0 4.436 1 6 1 0-2.151 13.604-12 15-12v-1c-7.873 0-14.174-5-22-5-2.23 0-5.083 9.666-6 11.5l-2 2.5c1.458 0 9 1.314 9 3Z"/><path fill="#97D6F9" id="STR" d="m203 197 2 2-2-2ZM253 197l-1 2 1-2Z"/><path fill="#8AD987" id="CTXsp" d="m137 202 2 1.5c1.037 2.074 1.156 13.5 4 13.5 0-6.13-3-11.422-3-18l-2 2-1 1Z"/><path fill="#97D6F9" id="STR" d="m252 199-1 1 1-1Z"/><path fill="#219764" id="AIv2/3" d="m111 212-18 4-9-13c4.445 0 7.278-3 12-3l2.5 3c2.628 1.314 12.5 4.615 12.5 9Z"/><path fill="#97D6F9" id="STR" d="M205 200c1.577 0 2 1.762 2 3l-2-3Z"/><path fill="#8AD987" id="CTXsp" d="M319 202c0 .825-3.605 10-4 10 0-4.527 2-7.754 2-12h1l1 2Z"/><path fill="#219764" id="AIv2/3" d="m346 212 18 4 8-13-11-3c-1.396 0-15 9.849-15 12Z"/><path fill="#97D6F9" id="STR" d="m251 201-1 1 1-1Z"/><path fill="#A0EE9C" id="EPd" d="M133 225c1.39 0 14 5.298 14 0l-3-6-1-1v-1c-2.844 0-2.963-11.426-4-13.5l-2-1.5c-4.43 0-8.096 5-10 5l-1 1c0 2.259-3.675 5.151-2 8.5l5 6.5h1l2 2h1Z"/><path fill="#97D6F9" id="STR" d="m250 202-1 1 1-1Z"/><path fill="#A0EE9C" id="EPd" d="M323 225h1l1-1h1l1-1 1-1 2-1 1-2 1-1 1-2c0-3.354-2-5.291-2-8-2.694 0-6.548-6-12-6 0 .825-3.605 10-4 10 0 1.048.473 3-1 3v1l-1 1-4 8c0 3.224 8.784 2 11 2 0-1.577 1.762-2 3-2Z"/><path fill="#209864" id="AIv1" d="m93 216-6 1-6-12 3-2 9 13ZM364 216l5 1c0-3.872 6-7.353 6-12l-2-2h-1l-8 13Z"/><path fill="#97D6F9" id="STR" d="m207 204 1 1-1-1ZM249 205l-1 1 1-1ZM208 206l1 1-1-1Z"/><path fill="#99D2BD" id="OLF" d="m127 207-1 1 1-1ZM117 211c6.321 0 6.35 12 12 12l-5-6.5c-1.675-3.349 2-6.241 2-8.5h-1c-1.246 0-8 1.554-8 3ZM340 211c-3.267 0-5.364 5-7 5 0-3.354-2-5.291-2-8 1.458 0 9 1.314 9 3Z"/><path fill="#97D6F9" id="STR" d="m247 209-1 1 1-1Z"/><path fill="#CBCBC7" id="aco" d="M176 210c0 .669-6.143 6.785-7 8.5-1.721 3.442 4.58 7.96 7.5 6.5 5.779-2.89 6.86-15-.5-15Z"/><path fill="#97D6F9" id="STR" d="m210 210 1 1-1-1Z"/><path fill="#CBCBC7" id="aco" d="M279 210c0 1.549-4 2.459-4 5.5 0 19.117 21.181 3.84 8.5-2.5-1.696-.848-1.526-3-4.5-3Z"/><path fill="#6ACAB9" id="PIR" d="M131 257h1l10-4c0-3.662 10.048-7.405 6-15.5-2.478-4.956-7.421-6.421-11-10l-4-2.5h-1l-2-2h-1c-5.65 0-5.679-12-12-12-2.124 0-4.436 1-6 1l-18 4-6 1c0 4.58 16.464 28 22 28 5.496 0 10.896 3.698 15.5 6l6.5 6Z"/><path fill="#97D6F9" id="STR" d="m246 211-1 1 1-1Z"/><path fill="#6ACAB9" id="PIR" d="M324 257h2c0-3.622 10.123-7.811 12.5-9 1.259-.63 8.5-4.929 8.5-3 6.041 0 22-21.781 22-28l-5-1-18-4c-1.564 0-3.876-1-6-1-3.267 0-5.364 5-7 5l-1 2-1 1-1 2-2 1-1 1-1 1h-1l-1 1h-1c0 1.577-1.762 2-3 2l-4 2.5c-3.205 3.205-5.958 4.916-8 9-3.274 6.548 6 10.021 6 14.5 3.645 0 6.777 4 10 4Z"/><path fill="#8AD987" id="CTXsp" d="M315 212c-1.473 0-1 1.952-1 3 1.473 0 1-1.952 1-3Z"/><path fill="#97D6F9" id="STR" d="m211 213 2 2-2-2Z"/><path fill="#96A6D3" id="NDB" d="M232 253h1c0-5.361 1.249-29.002-1-33.5-1.065-2.131-3.297-10.406-6-5-3.497 6.993-3 20.88-3 29 0 1.616-.758 9.5 1 9.5h1l1.5-2c4.07-4.07 1.737 2 5.5 2Z"/><path fill="#97D6F9" id="STR" d="m245 213-1 2 1-2ZM244 215l-1 1 1-1Z"/><path fill="#8AD987" id="CTXsp" d="m314 216-1 1 1-1Z"/><path fill="#99D2BD" id="OLF" d="m333 216-1 2 1-2Z"/><path fill="#8AD987" id="CTXsp" d="m143 218 1 1-1-1Z"/><path fill="#99D2BD" id="OLF" d="m332 218-1 1 1-1Z"/><path fill="#97D6F9" id="STR" d="m243 219-1 1 1-1Z"/><path fill="#99D2BD" id="OLF" d="m331 219-1 2 1-2ZM328 222l-1 1 1-1ZM130 223l2 2-2-2ZM327 223l-1 1 1-1ZM325 224l-1 1 1-1ZM142 253h3l8-6v-16.5l-2-3.5-4-2c0 5.298-12.61 0-14 0l4 2.5c3.579 3.579 8.522 5.044 11 10 4.048 8.095-6 11.838-6 15.5ZM312 253h2c0-4.479-9.274-7.952-6-14.5 2.042-4.084 4.795-5.795 8-9l4-2.5c-2.216 0-11 1.224-11-2l-4 3-2 4.5V247l9 6ZM323 225c-1.238 0-3 .423-3 2 1.238 0 3-.423 3-2Z"/><path fill="#A2B1D7" id="SI" d="M216 249c-3.754 0-2.996 4.748-5.5 6l-11 10-9 4c-10.517 5.259-45.5-7.441-45.5-16l8-6c2.334 0 1.341 4.181 2 5.5 1.605 3.211 4.53 5.015 7.5 6.5 20.302 10.151 52.5.948 52.5-25 4.052 0 1 13.165 1 15ZM240 250c5.582 0 12.858 13.679 19.5 17 9.851 4.926 40.896 1.709 45.5-7.5l7-6.5-9-6c0 14.529-17.39 11.945-23.5 15-16.661 8.331-37.5-11.432-37.5-28-4.64 0-2 13.715-2 16Z"/><path fill="#CAC8C7" id="lot" d="M326 257c0 1.235-.643 5 1 5 1.922 0 20-14.7 20-17 0-1.929-7.241 2.37-8.5 3-2.377 1.189-12.5 5.378-12.5 9ZM131 261l-2 1c-2.291 0-20-15.711-20-17 5.496 0 10.896 3.698 15.5 6l6.5 6v4Z"/><path fill="#7FCCF7" id="OT" d="m215 271-1 1c0 5.185-10.34 12.92-14.5 15l-6 1c-5.065 2.532-13.048-1.476-18 1-11.488 5.744-30.697-1.895-36.5-13.5-1.291-2.581-7-5.531-7-9.5l-1-1v-6l1-2 10-4h3c0 8.559 34.983 21.259 45.5 16l9-4 11-10c2.504-1.252 1.746-6 5.5-6v1l1 1c0 3.067.765 4.029 2 6.5l-1 7.5-1 2v1c-1.577 0-2 1.762-2 3ZM239 266l4 7c0 7.455 15.163 12.831 19.5 15 5.065 2.532 13.048-1.476 18 1 9.976 4.988 29.45-.4 34.5-10.5 2.151-4.301 10-8.542 10-13.5 0-2.707-1-5.903-1-8-3.223 0-6.355-4-10-4h-2l-7 6.5c-4.604 9.209-35.649 12.426-45.5 7.5-6.642-3.321-13.918-17-19.5-17v2l-1 1v13Z"/><path fill="#A2B1D7" id="SI" d="m216 250 1 1-1-1ZM240 252l-1 1 1-1Z"/><path fill="#8599CC" id="PAL" d="m225 253-1 1v-1h1ZM233 253v2l-1-2h1ZM224 254l-1 2 1-2Z"/><path fill="#99D2BD" id="OLF" d="m132 257-1 2v-2h1Z"/><path fill="#8599CC" id="PAL" d="m233 257 1 1-1-1Z"/><path fill="#99D2BD" id="OLF" d="m327 262-2 3c0-2.707-1-5.903-1-8h2c0 1.235-.643 5 1 5Z"/><path fill="#8599CC" id="PAL" d="m223 258-1 1 1-1ZM234 259l1 1-1-1Z"/><path fill="#99D2BD" id="OLF" d="m129 262 2 2v-3l-2 1Z"/><path fill="#8599CC" id="PAL" d="m220 264-1 1 1-1Z"/><path fill="#97D6F9" id="STR" d="m131 265 1 1-1-1ZM217 267h1v-2l-1 2Z"/><path fill="#8599CC" id="PAL" d="m219 265-1 2v-2h1ZM239 266l4 7c-1.803 0-6-6.495-6-8l2 1ZM218 267l-1 1v-1h1ZM217 268c-1.577 0-2 1.762-2 3 1.577 0 2-1.762 2-3ZM215 271l-1 1 1-1Z"/></svg>