<svg xmlns="http://www.w3.org/2000/svg" viewBox="0 0 456 320"><path fill="#9AD1BD" id="MOB" fill-rule="evenodd" d="m183 130-6 6.5c-2.333 4.666 3.128 13.186 8.5 10.5 6.834-3.417 5.629-17-2.5-17m0-7-5 3.5 10 .5c1.462 0 7.082 3.337 8 1.5 1.586-3.171-6.437-3.969-7.5-4.5-1.941-.971-3.122-1-5.5-1m2 122h1c4.76 0 10.675 2.413 15.5 0 20.093-10.047 19.5-39.836 19.5-60.5v-21c1.561-3.123 3.862-31.275 2-35l-8-16-6-5.5h-2l-1-1c-6.487 0-18.584-4.458-25.5-1l-14 6-4 4c-2.249 1.124-12.5 10.71-12.5 13l-1 1v1l-1 1-1 3-1 1v1l-1 2v2l-1 2v2c0 1.235.643 5-1 5v4c1.579 0 1 2.855 1 4v2c1.473 0 1 1.952 1 3v3l1 2v2l1 2v1l1 1c0 4.252 5.135 9.769 7 13.5 3.371 6.742 2.653 15.306 6 22v6l2 3.5v2l1 1c0 2.85 11.219 19 14 19l2 2 2 1 3 2ZM271 130c0 1.548-4 2.767-4 6v6.5c8.084 16.168 20.758-12.5 4-12.5m-2-7c0 1.266-9.777 1.946-8 5.5.914 1.827 5.939-1.5 7.5-1.5l9.5.5c1.531-3.063-3.192-2.846-4.5-3.5-1.718-.859-2.387-1-4.5-1m2 122h1l1-1 2-1 1-1 1-1h1l1-1 2-2 1-1c3.034 0 11-14.503 11-18l1-1v-1l1-1c0-11.806 4.051-23.601 9-33.5l5-9.5c0-1.048-.473-3 1-3v-1l1-2v-4l1-1v-3c0-1.048-.473-3 1-3v-11c-1.473 0-1-1.952-1-3v-2l-1-1v-2l-1-2v-1l-1-1-1-3-1-1c0-3.158-7.952-10.726-10.5-12l-10-8c-3.829-1.914-23.31-7.345-28-5-2.031 1.016-6.247 2-8.5 2l-1 1h-1l-9 8.5c-2.419 4.838-3.598 10.196-6 15-3.137 6.274 2 25.076 2 32 0 23.887-3.553 70.973 19.5 82.5 5.075 2.538 11.389 0 16.5 0Z"/><path fill="#99D2BD" id="OLF" d="m206 106 1 1-1-1ZM250 106l-1 1 1-1Z"/><path fill="#C7CBCA" id="onl" d="M227 211c0 11.57 3.042 44.729-7.5 50-9.076 4.538-11.093-5.547-18-9-2.552-1.276-5.379-1.689-8-3-1.727-.863-7.5-.844-7.5-4 4.76 0 10.675 2.413 15.5 0 20.093-10.047 19.5-39.836 19.5-60.5v-21c1.561-3.123 3.862-31.275 2-35l-8-16-6-5.5c5.823 0 9.812 7.124 12 11.5 6.661 13.322 6 27.328 6 43.5v49Z"/><path fill="#C7CBCA" id="onl" d="M248 107c-11.928 0-18 20.666-18 30.5 0 20.508-1 41.469-1 62.5 0 7.266-2.105 19.29 1 25.5 3.068 6.137-1.711 21.578 3 31 7.258 14.515 18.23-2.365 24.5-5.5 2.267-1.134 13.5-2.629 13.5-6-5.111 0-11.425 2.538-16.5 0-23.053-11.527-19.5-58.613-19.5-82.5 0-6.924-5.137-25.726-2-32 2.402-4.804 3.581-10.162 6-15l9-8.5Z"/><path fill="#CACAC9" id="lotd" d="m183 123-5 3.5 10 .5c1.462 0 7.082 3.337 8 1.5 1.586-3.171-6.437-3.969-7.5-4.5-1.941-.971-3.122-1-5.5-1ZM269 123c0 1.266-9.777 1.946-8 5.5.914 1.827 5.939-1.5 7.5-1.5l9.5.5c1.531-3.063-3.192-2.846-4.5-3.5-1.718-.859-2.387-1-4.5-1Z"/><path fill="#99D2BD" id="OLF" d="m150 128-1 1 1-1ZM307 129l1 1-1-1ZM149 130l-1 1 1-1Z"/><path fill="#95E4C8" id="AOBgr" d="m183 130-6 6.5c-2.333 4.666 3.128 13.186 8.5 10.5 6.834-3.417 5.629-17-2.5-17ZM271 130c0 1.548-4 2.767-4 6v6.5c8.084 16.168 20.758-12.5 4-12.5Z"/><path fill="#99D2BD" id="OLF" d="m309 133 1 1-1-1ZM147 134l-1 1 1-1ZM310 135l1 2-1-2ZM146 136l-1 2 1-2ZM311 139l1 1-1-1ZM145 140l-1 2 1-2ZM312 142c1.473 0 1 1.952 1 3-1.473 0-1-1.952-1-3ZM144 144c-1.643 0-1 3.765-1 5 1.643 0 1-3.765 1-5ZM143 153c1.579 0 1 2.855 1 4-1.579 0-1-2.855-1-4ZM313 156c-1.473 0-1 1.952-1 3 1.473 0 1-1.952 1-3ZM144 159c1.473 0 1 1.952 1 3-1.473 0-1-1.952-1-3ZM227 162c1.751 0 1 7.426 1 9v29.5c0 1.699.769 10.5-1 10.5v-49ZM312 162l-1 1 1-1ZM145 165l1 2-1-2ZM311 167l-1 2 1-2ZM146 169l1 2-1-2ZM310 170c-1.473 0-1 1.952-1 3 1.473 0 1-1.952 1-3ZM147 173h1l-1-1v1Z"/><path fill="#C7CBCA" id="onl" d="m156 210 7 8-2-3.5v-6c-3.347-6.694-2.629-15.258-6-22-1.865-3.731-7-9.248-7-13.5h-1v4c1.579 0 1 2.855 1 4v1l1 2v3c1.473 0 1 1.952 1 3v1l1 2v3c1.014 0 2 3.959 2 5v2l1 2v1l1 2v1l1 1ZM301 209c0 1.338-4.41 7-6 7 0-11.806 4.051-23.601 9-33.5l5-9.5v8l-1 2c-1.473 0-1 1.952-1 3v4l-1 2v1l-1 2v3l-1 2v1l-1 2v2l-1 2-1 2Z"/><path fill="#99D2BD" id="OLF" d="M147 177c1.579 0 1 2.855 1 4-1.579 0-1-2.855-1-4ZM309 181l-1 2 1-2ZM148 182l1 2-1-2ZM308 183c-1.473 0-1 1.952-1 3 1.473 0 1-1.952 1-3ZM149 187c1.473 0 1 1.952 1 3-1.473 0-1-1.952-1-3ZM307 190l-1 2 1-2ZM150 191l1 2-1-2ZM306 193l-1 2 1-2ZM151 196c1.014 0 2 3.959 2 5-1.638 0-2-3.576-2-5ZM305 198l-1 2 1-2ZM304 201l-1 2 1-2ZM153 203l1 2-1-2ZM303 205l-1 2 1-2ZM154 206l1 2-1-2ZM302 207l-1 2 1-2ZM155 209l1 1-1-1Z"/><path fill="#C7CBCA" id="onl" d="m295 216-1 1 1-1ZM294 218l-1 1 1-1ZM163 220l1 1-1-1ZM282 237l-1 1 1-1ZM178 240l2 2-2-2ZM279 240l-1 1 1-1ZM277 241l-1 1 1-1ZM276 242l-1 1 1-1ZM182 243l3 2c-1.238 0-3-.423-3-2ZM275 243l-2 1 2-1ZM273 244l-1 1 1-1Z"/></svg>