<svg xmlns="http://www.w3.org/2000/svg" viewBox="0 0 456 320"><path fill="#1E9D5A" id="MOp1" d="M196 31h1v-5c-10.473 0-21.969 3-32 3 0 2.079-1 3.187-1 6 10.854 0 20.882-4 32-4Z"/><path fill="#1E9C59" id="MOs1" d="M222 45h1l4-2c0-2.859-2.849-3.197-4-5.5-4.594-9.188-16.566-11.5-26-11.5v5c8.072 0 25 3.026 25 14ZM229 43l5 1 7.5-9c6.116-3.058 10.993-4 18.5-4v-5c-10.248 0-21.939 2.377-27 12.5-.595 1.19-4 2.317-4 4.5Z"/><path fill="#1E9D5A" id="MOp1" d="M260 31c11.605 0 21.721 4 33 4l-1-6c-10.058 0-21.557-3-32-3v5Z"/><path fill="#187F60" id="SSp-ll1" d="m138 36 3 5c6.985 0 14.795-6 22-6h1c0-2.813 1-3.921 1-6-9.556 0-18.091 7-27 7ZM315 41h1l2-5c-7.783 0-17.221-7-26-7l1 6c7.407 0 14.96 6 22 6Z"/><path fill="#1F9C58" id="MOp2/3" d="M161 51v5c9.607 0 20.195-13 32-13v-1c0-3.027 3-7.493 3-11-11.118 0-21.146 4-32 4h-1c0 7.087-2 9.503-2 16Z"/><path fill="#1E9D58" id="MOs2/3" d="M216 49h1l5-4c0-10.974-16.928-14-25-14h-1c0 3.507-3 7.973-3 11 5.546 0 23-3.362 23 7ZM240 49h1c0-10.34 16.587-7 22-7l-3-11c-7.507 0-12.384.942-18.5 4l-7.5 9v1l6 4Z"/><path fill="#1F9C58" id="MOp2/3" d="M296 51v5c-9.694 0-22.26-14-33-14l-3-11c11.605 0 21.721 4 33 4 0 4.592 2 7.296 2 11.5 0 1.19-.614 4.5 1 4.5Z"/><path fill="#187F64" id="SSp-ll2/3" d="m161 51-14 3c0-4.535-6-8.1-6-13 6.985 0 14.795-6 22-6 0 7.087-2 9.503-2 16ZM309 55h1c0-4.909 5-8.78 5-14-7.04 0-14.593-6-22-6 0 4.592 2 7.296 2 11.5 0 1.19-.614 4.5 1 4.5 1.732 0 13 2.342 13 4Z"/><path fill="#197E64" id="SSp-ul1" d="M107 51c0 1.424.362 5 2 5 5.204 0 24.763-15 32-15l-3-5c-5.848 0-17.975 8.237-23.5 11-1.35.675-7.5 2.239-7.5 4ZM349 51l-1 5-24.5-12c-1.242-.621-7.5-1.64-7.5-3l2-5c5.964 0 18.845 8.173 24.5 11 1.47.735 6.5 1.53 6.5 4Z"/><path fill="#197F61" id="SSp-ul2/3" d="m109 57 4 12c8.321 0 23.389-14 34-14v-1c0-4.535-6-8.1-6-13-7.237 0-26.796 15-32 15v1Z"/><path fill="#1F9D58" id="MOs5" d="M189 59c3.334 0 9.096-4.202 13.5-2l2.5 2c2.596 0 7.074-10 11-10 0-10.362-17.454-7-23-7v1l-4 16ZM267 58c-3.036 0-9.064-2.718-12.5-1l-2.5 2-11-10c0-10.34 16.587-7 22-7l4 16Z"/><path fill="#197F61" id="SSp-ul2/3" d="M348 57c-2.309 0-2.17 12-5 12-6.36 0-23.637-14-33-14 0-4.909 5-8.78 5-14h1c0 1.36 6.258 2.379 7.5 3L348 56v1Z"/><path fill="#1E9C5A" id="MOp5" d="M268 59c7.866 0 19.59 14 29 14 0-5.356-1-11.266-1-16v-1c-9.694 0-22.26-14-33-14l4 16 1 1ZM189 59c-8.685 0-19.803 14-30 14l1-16 1-1c9.607 0 20.195-13 32-13l-4 16Z"/><path fill="#3EA665" id="ACAd1" d="M233 68c-3.325 0-7.31 1-10 1V45l4-2c.839 0 2 1.93 2 0l5 1v1c0 6.965-1 15.38-1 23Z"/><path fill="#40A565" id="ACAd2/3" d="m223 69-5 1-1-21 5-4h1v24ZM233 69c2.124 0 4.436 1 6 1 0-6.967 1-14.681 1-21l-6-4c0 6.965-1 15.38-1 23v1Z"/><path fill="#3EA566" id="ACAd5" d="M218 70c-4.344 0-7.016 5-11 5-1.03 0-2-13.251-2-15v-1c2.596 0 7.074-10 11-10h1l1 21ZM239 70c3.918 0 7.759 6 11 6 0-2.267.443-16 2-16v-1l-11-10h-1c0 6.319-1 14.033-1 21Z"/><path fill="#1B8062" id="SSp-un1" d="M95 65h1c0-2.486 10.709-8 13-8v-1c-1.638 0-2-3.576-2-5-1.873 0-16 8.788-16 10 1.797 0 4 2.203 4 4Z"/><path fill="#1C7F64" id="SSp-ll4" d="m160 57-11 5-2-7v-1l14-3v5l-1 1ZM296 57c4.287 0 7.258 5 11 5 0-2.16 2-4.167 2-7 0-1.658-11.268-4-13-4v6Z"/><path fill="#1B8062" id="SSp-un1" d="m365 60-4 4c-4.961 0-8.078-7-13-7v-1l1-5c3.546 0 10.024 4.524 12.5 7l3.5 2Z"/><path fill="#1A7F63" id="SSp-ul4" d="M116 77h1l32-15-2-7c-10.611 0-25.679 14-34 14v1c0 2.087 3 4.393 3 7ZM343 70l-3 7c-9.658 0-23.102-15-33-15 0-2.16 2-4.167 2-7h1c9.363 0 26.64 14 33 14v1Z"/><path fill="#1C7F63" id="SSp-un2/3" d="M113 70c-3.893 0-6.712 5-11 5-1.417 0-6-8.552-6-10 0-2.486 10.709-8 13-8l4 12v1Z"/><path fill="#197C63" id="SSp-ll5" d="m158 74-5 1c-.872 0-4-11.415-4-13l11-5-1 16-1 1Z"/><path fill="#1D9C5A" id="MOs6a" d="M186 81h1c0-1.995 4.377-2 6-2h1c0-3.189 7.511-19 11-19v-1l-2.5-2c-4.404-2.202-10.166 2-13.5 2 0 6.935-3 15.49-3 22ZM269 81h1c0-7.873-2-14.675-2-22l-1-1c-3.036 0-9.064-2.718-12.5-1l-2.5 2v1c1.297 0 11 16.207 11 19 1.623 0 6 .005 6 2Z"/><path fill="#197C63" id="SSp-ll5" d="M297 73c2.16 0 4.167 2 7 2 0-4.273 3-8.795 3-13-3.742 0-6.713-5-11-5 0 4.734 1 10.644 1 16Z"/><path fill="#1C7F63" id="SSp-un2/3" d="M354 76h1c0-4.283 6-7.064 6-11v-1c-4.961 0-8.078-7-13-7-2.309 0-2.17 12-5 12v1c1.645 0 11 4.768 11 6Z"/><path fill="#1F9B5A" id="MOp6a" d="m163 91-4 1c0-5.915-1-12.755-1-18l1-1c10.197 0 21.315-14 30-14 0 6.935-3 15.49-3 22-1.294 0-9 2.793-9 4-1.954 0-10 1.585-10 4-1.465 0-4-.109-4 2ZM270 81c5.97 0 25.396 12 28 12 0-6.642-1-14.002-1-20-9.41 0-21.134-14-29-14 0 7.325 2 14.127 2 22Z"/><path fill="#3FA664" id="ACAd6a" d="M197 83h1l9-7v-1c-1.03 0-2-13.251-2-15-3.489 0-11 15.811-11 19 1.712 0 3 2.571 3 4ZM258 83h1c0-1.747.253-2 2-2 0-1.747.253-2 2-2 0-2.793-9.703-19-11-19-1.557 0-2 13.733-2 16l8 7Z"/><path fill="#197E63" id="SSp-n1" d="M401 117h1c0-1.803 3.592-3 5-3 0-9.223-22.13-39.815-28.5-43-3.15-1.575-10.366-11-13.5-11l-4 4v1c4.451 0 6.748 6.124 10.5 8 10.737 5.369 29.5 33.161 29.5 44ZM50 114l5 3c0-11.025 20.69-39.595 29.5-44 3.212-1.606 6.853-8 10.5-8 0-1.797-2.203-4-4-4-4.52 0-11.232 7.732-14.5 11-8.76 8.76-26.5 30.666-26.5 42Z"/><path fill="#187E62" id="SSp-ul5" d="M121 89h1c1.897 0 23.402-13 31-13v-1c-.872 0-4-11.415-4-13l-32 15c0 4.551 4 7.549 4 12ZM340 78l-5 11c-3.364 0-23.608-13-31-13v-1c0-4.273 3-8.795 3-13 9.898 0 23.342 15 33 15v1Z"/><path fill="#1B7F64" id="SSp-n2/3" d="m55 117 8 6 4-8.5C72.99 102.52 84.636 76 102 76v-1c-1.417 0-6-8.552-6-10h-1c-3.647 0-7.288 6.394-10.5 8-8.81 4.405-29.5 32.975-29.5 44ZM401 117l-8 6-3-6.5-3-10c-4.597-9.195-20.619-30.5-32-30.5 0-4.283 6-7.064 6-11 4.451 0 6.748 6.124 10.5 8 10.737 5.369 29.5 33.161 29.5 44Z"/><path fill="#40A664" id="ACAv1" d="m229 93 5 6c0-9.624-1-19.833-1-30v-1c-3.325 0-7.31 1-10 1 0 10.42-1 21.17-1 31l5-7c0-3.15 2-3.446 2 0Z"/><path fill="#3FA566" id="ACAv2/3" d="m222 101-4 1V70l5-1c0 10.42-1 21.17-1 31v1ZM235 101l3 1 1-32c-1.564 0-3.876-1-6-1 0 10.167 1 20.376 1 30l1 2Z"/><path fill="#197E61" id="SSp-un4" d="M106 83h1c1.022 0 9-5.166 9-6 0-2.607-3-4.913-3-7-3.893 0-6.712 5-11 5v1l4 7Z"/><path fill="#3EA666" id="ACAv5" d="M210 100c1.048 0 8 4.651 8 2V70c-4.344 0-7.016 5-11 5v13.5l3 10.5v1ZM246 100c-.946 0-8 5.175-8 2l1-32c3.918 0 7.759 6 11 6 0 7.95-3 15.34-3 23l-1 1Z"/><path fill="#197E61" id="SSp-un4" d="M350 83h1l3-7c0-1.232-9.355-6-11-6l-3 7v1l10 5Z"/><path fill="#1A7F64" id="SSp-ll6a" d="M298 93h1c0-4.515 2.089-9.678 4-13.5.523-1.046-.951-3.5 1-3.5v-1c-2.833 0-4.84-2-7-2 0 5.998 1 13.358 1 20ZM158 93h1v-1c0-5.915-1-12.755-1-18l-5 1v1l5 17Z"/><path fill="#1A8062" id="SSp-n4" d="m70 126-1 1-6-3v-1l4-8.5C72.99 102.52 84.636 76 102 76l4 7c0 .103-10.867 7.367-12.5 9-7.222 7.222-23.5 24.638-23.5 34Z"/><path fill="#197D61" id="SSp-ul6a" d="M137 101c-3.647 0-5.609 3-9 3-1.59 0-1.443-4.386-2-5.5-1.679-3.357-4-5.395-4-9.5 1.897 0 23.402-13 31-13l5 17c-1.424 0-5 .362-5 2-2.602 0-16 5.062-16 6Z"/><path fill="#40A564" id="ACAv6a" d="m208 98 2 1-3-10.5V76l-9 7c0 6.27 10 10.417 10 15ZM249 97l-2 2c0-7.66 3-15.05 3-23l8 7-1 5-8 9Z"/><path fill="#197D61" id="SSp-ul6a" d="M299 93c8.608 0 21.87 11 30 11 0-5.478 6-9.902 6-15-3.364 0-23.608-13-31-13-1.951 0-.477 2.454-1 3.5-1.911 3.822-4 8.985-4 13.5Z"/><path fill="#1A8062" id="SSp-n4" d="M393 124c-2.079 0-3.187 3-6 3 0-12.38-19.459-26.417-24-35.5-1.443-2.885-12-4.821-12-8.5l3-7h1c11.381 0 27.403 21.305 32 30.5l3 10 3 6.5v1Z"/><path fill="#197D62" id="SSp-un5" d="M111 94h1l9-5c0-4.451-4-7.449-4-12h-1c0 .834-7.978 6-9 6 0 4.258 4 6.626 4 11ZM344 94h1c0-4.103 5-6.289 5-11l-10-5-5 11c1.48 0 9 3.594 9 5Z"/><path fill="#1E9C58" id="MOs6b" d="M187 81v1c1.974 0 3.517-2 6-2v-1c-1.623 0-6 .005-6 2Z"/><path fill="#3FA466" id="ACAd6b" d="m193 80 4 3c0-1.429-1.288-4-3-4h-1v1ZM263 80l-2 1c0-1.747.253-2 2-2v1Z"/><path fill="#1E9C58" id="MOs6b" d="m263 80 6 1c0-1.995-4.377-2-6-2v1Z"/><path fill="#CACCC7" id="cing" d="M210 99v1c-8.768 0-14.21-10.355-21.5-14-4.852-2.426-12.842 5-17.5 5l-2 1h-6v-1c1.465 0 4 .109 4-2 1.774 0 10-1.952 10-4 3.947 0 6.628-3 10-3 1.974 0 3.517-2 6-2l4 3c0 4.373 6.526 15 11 15l2 1ZM247 99l-1 1c9.721 0 13.895-10.197 21.5-14 5.272-2.636 12.66 5 17.5 5l8 1c0-2.285-24-9.23-24-11l-6-1-2 1c0 1.238-.423 3-2 3 0 1.466.109 4-2 4 0 3.208-4.536 9-8 9l-2 2Z"/><path fill="#1D9D5A" id="MOp6b" d="M187 82c-3.372 0-6.053 3-10 3 0-1.207 7.706-4 9-4h1v1Z"/><path fill="#3FA466" id="ACAd6b" d="M259 83v1c1.577 0 2-1.762 2-3-1.747 0-2 .253-2 2Z"/><path fill="#1D9D5A" id="MOp6b" d="M298 93v1l-5-2c0-2.285-24-9.23-24-11h1c5.97 0 25.396 12 28 12Z"/><path fill="#197E62" id="SSp-n5" d="M83 122c-4.059 0-9.528 4-13 4 0-9.362 16.278-26.778 23.5-34 1.633-1.633 12.5-8.897 12.5-9h1c0 4.258 4 6.626 4 11 0 2.364-9.568 6.034-11.5 7-4.86 2.43-16.5 16.067-16.5 21Z"/><path fill="#40A465" id="ACAv6b" d="M198 83c0 6.27 10 10.417 10 15-4.474 0-11-10.627-11-15h1ZM259 84c0 1.466.109 4-2 4l1-5h1v1Z"/><path fill="#197E62" id="SSp-n5" d="M374 123c3.606 0 10.695 4 13 4 0-12.38-19.459-26.417-24-35.5-1.443-2.885-12-4.821-12-8.5h-1c0 4.711-5 6.897-5 11l11.5 7c5.171 2.585 16.5 14.802 16.5 21l1 1Z"/><path fill="#1D9D5A" id="MOp6b" d="M177 85c-1.954 0-10 1.585-10 4 1.774 0 10-1.952 10-4Z"/><path fill="#C9C7C9" id="ccb" d="m367 156 2 8c-1.609 0-3.304-7.109-4-8.5-4.7-9.4-11.484-16.969-16-26L337.5 119c-2.978-1.489-6.295-6.147-10-8-11.91-5.955-24.004-8-38.5-8l-4.5-5c-3.901-1.95-23.5-3.775-23.5 3-1.238 0-3 .423-3 2l-2 1-1 1h-1l-1 1c-5.793 0-14.392 5-19 5h-7l-1 1-3-1h-1l-2.5-2c-3.569-1.784-13.309-3-16.5-3 0-2.825-5.81-4.155-7.5-5-7.217-3.609-13.467-8.267-22-4-1.842.921-4.521 6-5.5 6-12.763 0-24.977.738-35.5 6-5.75 2.875-10.94 9.47-16 12l-7.5 6.5c-4.404 8.808-11.637 16.275-16 25l-4 7.5 1-5 1-2v-1c2.109 0 2-2.535 2-4l2-4v-1c1.577 0 2-1.762 2-3l2-4c1.468 0 8-9.395 8-11l11.5-11c5.531-5.531 14.329-7.665 21-11 7.149-3.574 15.726-4.363 23-8 1.265-.632 6.5-1.278 6.5-3l2-1c4.658 0 12.648-7.426 17.5-5 7.29 3.645 12.732 14 21.5 14 1.048 0 8 4.651 8 2l4-1c0 2.229 11.443 0 13 0l3 1c0 3.175 7.054-2 8-2 9.721 0 13.895-10.197 21.5-14 5.272-2.636 12.66 5 17.5 5 0 2.03 9.733 4.117 11.5 5 11.942 5.971 24.964 8.982 37 15 10.177 5.088 20.656 18.812 25.5 28.5l6 11.5v1l1 2v1l1 1Z"/><path fill="#40A465" id="ACAv6b" d="m257 88-8 9c3.464 0 8-5.792 8-9Z"/><path fill="#1A7F61" id="SSp-un6a" d="M123 106h1l4-1v-1c-1.59 0-1.443-4.386-2-5.5-1.679-3.357-4-5.395-4-9.5h-1l-9 5 6 13c.292 0 1.402-1 5-1Z"/><path fill="#1D9D5A" id="MOp6b" d="M167 89c-1.465 0-4-.109-4 2 1.465 0 4 .109 4-2Z"/><path fill="#1A7F61" id="SSp-un6a" d="M333 106c0-2.662 4.329 0 5 0 1.829 0 6-10.157 6-12 0-1.406-7.52-5-9-5 0 5.098-6 9.522-6 15v1l4 1Z"/><path fill="#1D9D5A" id="MOp6b" d="M159 93v1l4-2v-1l-4 1v1Z"/><path fill="#C9C9CA" id="scwm" d="m171 91-2 1 2-1ZM363 144l2 7-6-11.5c-4.844-9.688-15.323-23.412-25.5-28.5-12.036-6.018-25.058-9.029-37-15-1.767-.883-11.5-2.97-11.5-5l8 1 5 2c10.365 0 19.712 11 30 11 0 1.638 3.576 2 5 2 0 1.733 14.452 12.403 16 15.5.553 1.105 10.229 16.229 10.5 16.5 1.226 1.226 1.531 5 3.5 5ZM119 111c0 5.367-12 7.802-12 14l11.5-11c5.531-5.531 14.329-7.665 21-11 7.149-3.574 15.726-4.363 23-8 1.265-.632 6.5-1.278 6.5-3h-6l-4 2-6 1c0 1.195-13.707 6-16 6 0 2.216-7.15 4-9 4l-4 2c0 1.577-1.762 2-3 2l-2 2Z"/><path fill="#1C8064" id="SSp-ul6b" d="m159 94-6 1c0-1.638 3.576-2 5-2h1v1Z"/><path fill="#7ED04B" id="IG" d="M222 101c0 2.229 11.443 0 13 0l-1-2-5-6c0 1.93-1.161 0-2 0l-5 7v1Z"/><path fill="#1C8064" id="SSp-ul6b" d="M328 105h1v-1c-8.13 0-21.392-11-30-11h-1v1c10.365 0 19.712 11 30 11Z"/><path fill="#187D62" id="SSp-n6a" d="M114 114c-4.05 0-18.328 1.914-22.5 4-3.233 1.617-4.831 4-8.5 4 0-4.933 11.64-18.57 16.5-21 1.932-.966 11.5-4.636 11.5-7h1l6 13c-1.514 0 0 1.762 0 3l-1 1-2 2c0-2.029-1-.058-1 1ZM341 113c0-1.706 3.102 2 4.5 2 5.183 0 15.239.62 22 4 1.93.965 3.659 3 5.5 3 0-6.198-11.329-18.415-16.5-21L345 94h-1c0 1.843-4.171 12-6 12v4l1 1 1 1 1 1Z"/><path fill="#1C8064" id="SSp-ul6b" d="M153 95c-2.602 0-16 5.062-16 6 2.293 0 16-4.805 16-6Z"/><path fill="#AAA8A9" id="SEZ" d="M172 105c0-4.178.359-3.93 4.5-6 13.514-6.757 18.721 7 26.5 7 0-2.825-5.81-4.155-7.5-5-7.217-3.609-13.467-8.267-22-4-1.842.921-4.521 6-5.5 6l4 2ZM289 103l-4 2c0-4.778-1.914-4.207-5.5-6-8.248-4.124-11.033 2-18.5 2 0-6.775 19.599-4.95 23.5-3l4.5 5Z"/><path fill="#A8AAAA" id="VL" fill-rule="evenodd" d="M188 129c0 5.358-2 11.296-2 17.5l.5 5.5.5-9.5c1.178-2.355 5.018-13.5 1-13.5m2 17v15.5l3 8.5c0 6.776-4.149 2.203-6-1.5-3.116-6.232-3-14.998-3-22.5 0-7.88.295-17.911-3-24.5-2.249-4.498-9-11.452-9-16.5 0-4.178.359-3.93 4.5-6 13.514-6.757 18.721 7 26.5 7 0 8.276-11 18.153-11 30-1.473 0-1 1.952-1 3v6l-1 1ZM267 128c0 6.793 2 11.518 2 18l1.5 6 .5-6c0-2.728-1.424-18-4-18m-3 45 1 1 2-2 1-1c0-5.263 5-15.358 5-24 0-7.243-1.497-17.506 2-24.5 2.249-4.498 9-11.452 9-16.5l1-1c0-4.778-1.914-4.207-5.5-6-8.248-4.124-11.033 2-18.5 2 0 1.577-1.762 2-3 2l-2 1-1 1h-1l-1 1c0 6.963 12 19.113 12 30v5c1.579 0 1 2.855 1 4 0 3.613 3.008 11.484 1 15.5l-3 8.5v4Z"/><path fill="#1C8064" id="SSp-ul6b" d="M128 104v1c1.85 0 9-1.784 9-4-3.647 0-5.609 3-9 3Z"/><path fill="#AAA8A9" id="SEZ" d="M261 101c-1.238 0-3 .423-3 2 1.238 0 3-.423 3-2Z"/><path fill="#98D5F9" id="CP" d="M137 227c-5.08 0-11.701 8-22 8-6.21 0-13.131-10-16-10v-1l-2-2v-2l-2-2v-2l-1-1v-1l-1-1v-2l-2-4v-1c0-1.041-.986-5-2-5v-1c0-1.837-2.52-12-4-12v-17l1-1v-2l1-2v-1l1-2c1.473 0 1-1.952 1-3l4-7.5c4.363-8.725 11.596-16.192 16-25l7.5-6.5c5.06-2.53 10.25-9.125 16-12 10.523-5.262 22.737-6 35.5-6l4 2c0 5.048 6.751 12.002 9 16.5 3.295 6.589 3 16.62 3 24.5l-5 7.5c-5.4 5.4-15.02 7.96-10 18 .965 1.931-.463 9.5 3 9.5 0 3.823 1 8.586 1 13v9l-1 1v2l-1 1c0 2.757-5.394 5-8 5l-1 1h-2l-1 1-6 3-1 1-4 2-1 1h-1l-1 1-2 1-2 1-1 1c-1.238 0-3 .423-3 2Z"/><path fill="#AAA8A9" id="SEZ" d="m258 103-2 1 2-1Z"/><path fill="#98D5F9" id="CP" d="m349 233-7 2c-14.605 0-23.09-12-28-12h-1c0-1.577-1.762-2-3-2h-1l-2-2h-1l-2-2h-1c0-1.368-5.878-4-7-4h-1l-2-1c-2.18 0-5.188-3-7-3l-1-1-1-7v-19l1-1v-2c3.301 0 3-9.479 3-12 0-12.804-7.446-6.393-11-13.5l-4-6.5c0-7.243-1.497-17.506 2-24.5 2.249-4.498 9-11.452 9-16.5l1-1 4-2c14.496 0 26.59 2.045 38.5 8 3.705 1.853 7.022 6.511 10 8l11.5 10.5c4.516 9.031 11.3 16.6 16 26 .696 1.391 2.391 8.5 4 8.5v1l1 2v1l1 1c0 2.124 1 4.436 1 6v6c-1.714 0-1 5.594-1 7v1c-1.353 0-2 4.643-2 6-1.353 0-2 4.643-2 6v2l-1 2c-1.473 0-1 1.952-1 3v1l-1 1v1l-1 1v2l-1 1v1l-1 1-1 3-1 1-1 3-1 1-1 1-7 7Z"/><path fill="#AAA8A9" id="SEZ" d="m256 104-1 1 1-1Z"/><path fill="#187D61" id="SSp-m6a" d="M118 110h1l2-1 2-3c-3.598 0-4.708 1-5 1-1.514 0 0 1.762 0 3Z"/><path fill="#1A7D63" id="SSp-un6b" d="M124 106v1l4-2-4 1Z"/><path fill="#90CBEC" id="LSc" d="m192 136 1 1c5.419 0 29-19.749 29-24v-2l-2.5-2c-3.569-1.784-13.309-3-16.5-3 0 8.276-11 18.153-11 30ZM265 136l-1 1c-5.329 0-30-18.723-30-25v-1c4.608 0 13.207-5 19-5 0 6.963 12 19.113 12 30Z"/><path fill="#AAA8A9" id="SEZ" d="m254 105-1 1 1-1ZM285 105l-1 1 1-1Z"/><path fill="#1A7D63" id="SSp-un6b" d="M333 106v1c-1.424 0-5-.362-5-2h1l4 1Z"/><path fill="#187D61" id="SSp-m6a" d="M333 107c2.364 0 3.053 3 5 3v-4c-.671 0-5-2.662-5 0v1Z"/><path fill="#188064" id="SSp-m6b" d="M124 107c0 1.577-1.762 2-3 2l2-3h1v1ZM363 144h1c0-7.002-11.835-17.17-15-23.5l-8-7.5-1-1-1-1-1-1c-1.947 0-2.636-3-5-3 0 1.733 14.452 12.403 16 15.5.553 1.105 10.229 16.229 10.5 16.5 1.226 1.226 1.531 5 3.5 5ZM119 110v1l2-2-2 1Z"/><path fill="#187D61" id="SSp-m6a" d="M117 111h1v-1l-1 1Z"/><path fill="#1B7E64" id="SSp-n6b" d="M118 111h1v-1h-1v1Z"/><path fill="#188064" id="SSp-m6b" d="M105 125h2c0-6.198 12-8.633 12-14h-2l-2 2-1 1c0 3.253-9 6.469-9 11Z"/><path fill="#97D6F9" id="STR" d="m223 111-1 2v-2h1Z"/><path fill="#90CAED" id="LSr" d="m191 143 1 1c5.201 0 8.837-5 13-5 0-1.69 5.187-4 7-4 0-1.976 15-13.051 15-20v-3h-1l-3-1-1 2c0 4.251-23.581 24-29 24l-2 2v4Z"/><path fill="#CBC8CC" id="df" d="M226 112h1v-1l-1 1Z"/><path fill="#97D6F9" id="STR" d="m229 114-2 1v-4h2l1 1-1 2Z"/><path fill="#CBC8CC" id="df" d="M230 112h1v-1h-2l1 1Z"/><path fill="#97D6F9" id="STR" d="m232 111-1 1v-1h1Z"/><path fill="#90CAED" id="LSr" d="M265 141v3c-5.001 0-9.746-5-13-5-2.46 0-4.17-4-7-4l-6.5-5c-3.676-3.676-9.5-10.695-9.5-16l1-2h1l1-1h1l1 1c0 6.277 24.671 25 30 25l1 1v3Z"/><path fill="#97D6F9" id="STR" d="M234 111v1l-1-1h1Z"/><path fill="#1B7E64" id="SSp-n6b" d="m339 111 1 1-1-1Z"/><path fill="#187D61" id="SSp-m6a" d="m115 113-1 1c0-1.058 1-3.029 1-1ZM378 134c0 3.316-8.437 5.968-10.5 7-1.228.614-1.276 3-3.5 3 0-7.002-11.835-17.17-15-23.5l-8-7.5c0-1.706 3.102 2 4.5 2 5.183 0 15.239.62 22 4 1.93.965 3.659 3 5.5 3l1 1 4 11ZM92 144h1c0-1.902 3.832-11 6-11 0-2.244 1.725-6 4-6 0-1.747.253-2 2-2 0-4.531 9-7.747 9-11-4.05 0-18.328 1.914-22.5 4-3.233 1.617-4.831 4-8.5 4 0 1.637-3.792 11-5 11v2l14 9Z"/><path fill="#1A7E62" id="SSs1" d="m43 176-5 1c-1.173 0-1.82-11.86-1-13.5 2.566-5.132-.507-12.987 2-18 2.938-5.875 3.028-13.055 6-19 .888-1.775 3.093-12.5 5-12.5l5 3-8 18.5c-5.1 10.202-4 27.965-4 40.5Z"/><path fill="#8FCBEC" id="SF" d="M261 171h2l1-2 3-8.5c2.008-4.016-1-11.887-1-15.5l-1-1c-5.001 0-9.746-5-13-5l-1 2.5c-5.349 10.698-14.658-6.5-6-6.5l-6.5-5c-3.676-3.676-9.5-10.695-9.5-16l-2 1c0 6.949-15 18.024-15 20 4.406 0 4.883 13.192-5.5 8-1.885-.942-1.5-1.632-1.5-4-4.163 0-7.799 5-13 5l-1 1-1 1v15.5l3 8.5 2 1c0-8.516 16.295-25.397 21.5-28 3.967-1.984 7.322-7 12-7 6.416 0 23.878 17.257 26.5 22.5l7 9-1 3.5Z"/><path fill="#1A7E62" id="SSs1" d="m414 176 5 1c0-8.633.145-32.21-3-38.5l-9-24.5c-1.408 0-5 1.197-5 3 0 5.356 4.667 12.834 7 17.5 4.997 9.994 5 29.235 5 41.5Z"/><path fill="#1B8063" id="SSs2/3" d="M43 176h8c0-10.528 1.886-30.271 6-38.5l6-13.5v-1l-8-6-8 18.5c-5.1 10.202-4 27.965-4 40.5ZM406 176h8c0-12.265-.003-31.506-5-41.5-2.333-4.666-7-12.144-7-17.5h-1l-8 6v1c3.02 0 3.978 9.456 5 11.5 5.603 11.205 8 27.174 8 40.5Z"/><path fill="#1B7E63" id="SSp-m5" d="M69 128c3.512 0 4.978 5 9 5 1.208 0 5-9.363 5-11-4.059 0-9.528 4-13 4l-1 1v1Z"/><path fill="#1B7E63" id="SSp-m5" fill-rule="evenodd" d="M384 126c0 1.93 1.93 0 0 0m-6 8h1l8-6v-1c-2.305 0-9.394-4-13-4l4 11Z"/><path fill="#187C63" id="SSs4" d="M51 176h5v-1c0-7.708 1.832-23.163 5-29.5 1.4-2.8 8-15.197 8-17.5v-1l-6-3-6 13.5c-4.114 8.229-6 27.972-6 38.5ZM401 175l5 1c0-13.326-2.397-29.295-8-40.5-1.022-2.044-1.98-11.5-5-11.5-2.079 0-3.187 3-6 3v1c2.603 0 4.076 8.652 5 10.5 4.954 9.908 9 24.872 9 36.5Z"/><path fill="#188064" id="SSp-m6b" d="M105 125c-1.747 0-2 .253-2 2 1.747 0 2-.253 2-2Z"/><path fill="#C9C9CA" id="scwm" d="M99 133v3c1.468 0 8-9.395 8-11h-2c0 1.747-.253 2-2 2 0 1.178-2.572 6-4 6Z"/><path fill="#197E62" id="SSp-n5" d="m70 126-1 1 1-1ZM384 126c0 1.93 1.93 0 0 0Z"/><path fill="#188064" id="SSp-m6b" d="M103 127c-2.275 0-4 3.756-4 6 1.428 0 4-4.822 4-6Z"/><path fill="#1C8063" id="SSs5" d="M56 175h13c0-11.171 1.35-23.201 6-32.5.636-1.272 1.45-7.5 3-7.5v-2c-4.022 0-5.488-5-9-5 0 2.303-6.6 14.7-8 17.5-3.168 6.337-5 21.792-5 29.5Z"/><path fill="#A9AAA8" id="chpl" d="M267 128c0 6.793 2 11.518 2 18l1.5 6 .5-6c0-2.728-1.424-18-4-18Z"/><path fill="#1C8063" id="SSs5" d="M387 175h14c0-11.628-4.046-26.592-9-36.5-.924-1.848-2.397-10.5-5-10.5l-8 6c0 3.96 2.369 6.238 4 9.5 3.164 6.327 4 23.283 4 31.5Z"/><path fill="#A9AAA8" id="chpl" d="M188 129c0 5.358-2 11.296-2 17.5l.5 5.5.5-9.5c1.178-2.355 5.018-13.5 1-13.5Z"/><path fill="#188064" id="SSp-m6b" d="m95 144-2 1v-1c0-1.902 3.832-11 6-11v3c-2.109 0-2 2.535-2 4-1.577 0-2 1.762-2 3v1Z"/><path fill="#197D63" id="SSs6a" d="M373 175h14c0-8.217-.836-25.173-4-31.5-1.631-3.262-4-5.54-4-9.5h-1c0 3.316-8.437 5.968-10.5 7-1.228.614-1.276 3-3.5 3l3 6.5c2.391 4.782 6 18.913 6 24.5ZM69 175h14c0-9.189 9-23.047 9-31l-14-9c-1.55 0-2.364 6.228-3 7.5-4.65 9.299-6 21.329-6 32.5Z"/><path fill="#CBC8CB" id="fi" d="M212 135c4.406 0 4.883 13.192-5.5 8-1.885-.942-1.5-1.632-1.5-4 0-1.69 5.187-4 7-4ZM245 135c2.83 0 4.54 4 7 4l-1 2.5c-5.349 10.698-14.658-6.5-6-6.5Z"/><path fill="#C9C9CA" id="scwm" d="M99 136c-2.109 0-2 2.535-2 4l2-4Z"/><path fill="#97D6F9" id="STR" d="m193 137-2 2c0-1.048-.473-3 1-3l1 1Z"/><path fill="#96A7D2" id="TRS" d="m222 185-1-11.5c2.827-5.653 10.977-7.046 14-1 1.718 3.436-1 9.464-1 12.5l2-1c0-4.915 3.415-4 6-4l9-1h2c0-.825 8-4.926 8-8l1-3.5-7-9c-2.622-5.243-20.084-22.5-26.5-22.5-4.678 0-8.033 5.016-12 7-5.205 2.603-21.5 19.484-21.5 28l8 8h2l10 1c0-3.475 6 2.959 6 5h1Z"/><path fill="#97D6F9" id="STR" d="m264 137 1 1v-2l-1 1Z"/><path fill="#C9C9CA" id="scwm" d="M97 140c-1.577 0-2 1.762-2 3 1.577 0 2-1.762 2-3Z"/><path fill="#97D6F9" id="STR" d="m265 144 1 1c0-1.145.579-4-1-4v3ZM192 144l-1 1v-2l1 1Z"/><path fill="#1A8061" id="SSs6b" d="M84 175h1v-4l1-1v-2l1-2v-1l1-2c0-1.048-.473-3 1-3l1-5 1-2v-1l2-4v-4h-1c0 7.953-9 21.811-9 31h1Z"/><path fill="#C9C9CA" id="scwm" d="M93 145v3l2-4-2 1Z"/><path fill="#1A8061" id="SSs6b" d="M372 175h1c0-5.587-3.609-19.718-6-24.5l-3-6.5h-1l2 7v1l1 2v1l1 1 2 8v1l1 2v1l1 1c0 2.124 1 4.436 1 6Z"/><path fill="#97D6F9" id="STR" d="m191 145-1 1 1-1ZM205 191l-2 1c0-9.152-12.329-15.158-16-22.5-.599-1.198-7-2.729-7-.5h-4c0-1.73-4.355-9.791-5-8.5-2.386 4.772 1 14.968 1 20.5-3.463 0-2.035-7.569-3-9.5-5.02-10.04 4.6-12.6 10-18l5-7.5c0 7.502-.116 16.268 3 22.5 1.851 3.703 6 8.276 6 1.5l2 1 8 8c-4.759 0-2.809 8 2 8v4ZM280 169c0-1.551 4.453-9.595 5-8.5 2.753 5.507 0 12.621 0 18.5 3.301 0 3-9.479 3-12 0-12.804-7.446-6.393-11-13.5l-4-6.5c0 8.642-5 18.737-5 24l3.5-3c1.956-.978 4.077 1 5.5 1h3Z"/><path fill="#C9C9CA" id="scwm" d="m93 148-2 4c2.109 0 2-2.535 2-4ZM365 152l1 2-1-2ZM91 153l-1 2 1-2ZM366 155l1 1-1-1Z"/><path fill="#C9C7C9" id="ccb" d="M89 160c-1.473 0-1 1.952-1 3 1.473 0 1-1.952 1-3Z"/><path fill="#CCC" d="M173 194c1.643 0 1 3.765 1 5l1.5 8c1.785 0 .938-7.377 1.5-8.5 4.297-8.594-1-21.314-1-29.5 0-1.73-4.355-9.791-5-8.5-2.386 4.772 1 14.968 1 20.5 0 3.823 1 8.586 1 13ZM283 186v13c-1.992 0-.285 7-2.5 7-1.546 0-1.5-8.04-1.5-9.5 0-4.001-3.173-12.655-1-17 1.179-2.359 2-7.918 2-10.5 0-1.551 4.453-9.595 5-8.5 2.753 5.507 0 12.621 0 18.5v2l-1 1v3l-1 1Z"/><path fill="#C9C7C9" id="ccb" d="m88 163-1 2 1-2ZM369 165l1 2-1-2ZM87 166l-1 2 1-2Z"/><path fill="#B3C0DE" id="BST" d="M201 233h2l1-1c0-3.667.854-7 5-7l1-8.5-2-6.5-3.5 1c-4.233 0 .5-8.486.5-9v-4c-.675 0-2-5.294-2-6 0-9.152-12.329-15.158-16-22.5-.599-1.198-7-2.729-7-.5 0 3.847.747 29.006-1 32.5-1.698 3.395-2 7.396-2 11.5l-1 1v2l1 8.5 5 4.5h1l1 1 5 3 10 1 2-1Z"/><path fill="#A8A9AA" id="V3" d="M222 185c2.615 0-.734 14.383 2.5 16 10.806 5.403 9.5-9.743 9.5-16 0-3.036 2.718-9.064 1-12.5-3.023-6.046-11.173-4.653-14 1l1 11.5Z"/><path fill="#B3C0DE" id="BST" d="M257 234h1l9-1 7-4c0-2.563 4.219-1.938 5-3.5.565-1.13.836-7.5 2-7.5v-2l-1-1c0-4.729-.947-12.395-3-16.5V169c-1.423 0-3.544-1.978-5.5-1l-3.5 3-1 1-2 2c0 2.197-12 13.251-12 18 0 .981-1.184 8-2 8v2c0 .272 4.94 9 .5 9l-3.5-1c0 2.654-.888 5.275-2 7.5l1 7.5c3.169 0 6 2.831 6 6l1 2h1l2 1Z"/><path fill="#C9C7C9" id="ccb" d="m370 168 1 1-1-1Z"/><path fill="#8599CC" id="PAL" d="m172 219-1-3.5c-3.812-7.623-8.639 5.5-13 5.5v-5l1-2 1-1h2l1-1c2.606 0 8-2.243 8-5l1-1v-2l1-1v-4h1l1.5 8c1.785 0 .938-7.377 1.5-8.5 4.297-8.594-1-21.314-1-29.5h4c0 3.847.747 29.006-1 32.5-1.698 3.395-2 7.396-2 11.5l-1 1v2c-2.082 0 .769 3-4 3Z"/><path fill="#A8A9AA" id="V3" d="m263 171 1 2v-4l-1 2Z"/><path fill="#8599CC" id="PAL" d="m284 220 1-2.5c6.176-12.352 9.417 5.5 15 5.5 0-2.278-1-4.847-1-7l-3-3h-1l-2-1c-2.18 0-5.188-3-7-3l-1-1-1-7-1-2c-1.992 0-.285 7-2.5 7-1.546 0-1.5-8.04-1.5-9.5 0-4.001-3.173-12.655-1-17 1.179-2.359 2-7.918 2-10.5h-3v29.5c2.053 4.105 3 11.771 3 16.5l1 1v2c0 1.577 1.762 2 3 2Z"/><path fill="#C9C7C9" id="ccb" d="m86 170-1 1 1-1Z"/><path fill="#97D6F9" id="STR" d="m252 191 1 1c0-4.749 12-15.803 12-18l-1-1-1-2h-2c0 3.074-8 7.175-8 8 5.168 0 3.003 8-1 8v4ZM268 171l-1 1 1-1Z"/><path fill="#12AD82" id="VISC5" d="M69 183c-4.67 0-8.668 3-13 3v-11h13v8Z"/><path fill="#11AC83" id="VISC6a" d="m83 180-14 2v-7h14v5Z"/><path fill="#11AD82" id="VISC6b" d="M83 179h1v-4h-1v4Z"/><path fill="#C8CBCC" id="ec" d="M84 179c0 1.406-.714 7 1 7v-11h-1v4Z"/><path fill="#11AD82" id="VISC6b" d="M372 179h1v-4h-1v4Z"/><path fill="#11AC83" id="VISC6a" d="m373 180 14 2v-7h-14v5Z"/><path fill="#12AD82" id="VISC5" d="M387 183c4.965 0 7.895 2 13 2 1.763 0 1-8.343 1-10h-14v8Z"/><path fill="#11AC82" id="VISC4" d="m400 186 4 1 2-11-5-1c0 1.657.763 10-1 10v1Z"/><path fill="#12AD83" id="VISC1" d="m45 191-4 2c0-5.217-3-9.978-3-16l5-1c0 5.446 2 10.463 2 15Z"/><path fill="#12AC83" id="VISC2/3" d="M52 187c-1.554 0-4.235 4-7 4 0-4.537-2-9.554-2-15h8l1 11Z"/><path fill="#11AC82" id="VISC4" d="M52 187h1l3-1v-10h-5l1 11Z"/><path fill="#12AC83" id="VISC2/3" d="m404 187 7 4c0-3.152 3-10.091 3-15h-8l-2 11Z"/><path fill="#12AD83" id="VISC1" d="m411 191 4 2c0-4.769 4-10.618 4-16l-5-1c0 4.909-3 11.848-3 15Z"/><path fill="#019C74" id="GU6b" d="M84 191h1v-5c-1.714 0-1-5.594-1-7h-1v1c0 3.806 1 7.751 1 11Z"/><path fill="#8FCBED" id="LSv" d="M205 187h1l1-1 2-2.5-4-4.5h-2c-4.759 0-2.809 8 2 8Z"/><path fill="#97D6F9" id="STR" d="m207 186 3 1c1.874 0 5-5.55 5-7l-10-1 4 4.5-2 2.5Z"/><path fill="#C7C8CA" id="fx" d="m206 202 4 1 5.5 2c6.004-3.002 5.5-13.986 5.5-20 0-2.041-6-8.475-6-5 0 1.45-3.126 7-5 7l-4 6c0 1.235.643 5-1 5v3l1 1ZM247 203l-1 1-5.5 1-1.5-3.5c-4.271-8.542-3-8.43-3-17.5 0-4.915 3.415-4 6-4 0 2.592 1.909 7 5 7 0 1.334 2.972 6 4 6v9l-4 1Z"/><path fill="#97D6F9" id="STR" d="M247 187c0-2.373 2.284 0 3 0 0-1.602-3.058-2.384-2-4.5l3-3.5-9 1c0 2.592 1.909 7 5 7Z"/><path fill="#8FCBED" id="LSv" d="M250 187h2c4.003 0 6.168-8 1-8h-2l-3 3.5c-1.058 2.116 2 2.898 2 4.5Z"/><path fill="#019C74" id="GU6b" d="M371 191h1c0-2.998 1-7.358 1-11v-1h-1v2c0 1.406.714 7-1 7v3Z"/><path fill="#009B74" id="GU6a" d="m81 193-9 1-3-11v-1l14-2c0 3.806 1 7.751 1 11-1.238 0-3 .423-3 2ZM384 194h1c0-4.296 2-7.018 2-11v-1l-14-2c0 3.642-1 8.002-1 11l4 2 8 1Z"/><path fill="#97D6F9" id="STR" d="m285 181-1 1 1-1Z"/><path fill="#C8CBCC" id="ec" d="M372 181c-1.714 0-1 5.594-1 7 1.714 0 1-5.594 1-7Z"/><path fill="#019C75" id="GU5" d="M59 197h1l12-3-3-11c-4.67 0-8.668 3-13 3l3 10v1ZM385 194c0 .573 10.704 3 12 3 0-3.697 3-6.94 3-11v-1c-5.105 0-8.035-2-13-2 0 3.982-2 6.704-2 11Z"/><path fill="#CAC7CB" id="fiber tracts" fill-rule="evenodd" d="m233 205-1 2.5c0 10.292 5.911-2.5 1-2.5m-11 0v3c0 9.691 6.39-3 0-3m11 11c0-2.92-9-3.637-9 1l-5.5-5c-1.479-.739-8.5-.967-8.5-3v-6l5.5 2c6.004-3.002 5.5-13.986 5.5-20h1c2.615 0-.734 14.383 2.5 16 10.806 5.403 9.5-9.743 9.5-16l2-1c0 9.07-1.271 8.958 3 17.5l1.5 3.5 5.5-1c0 1.238-1.459 5 1 5 0 1.758-7.103 2.301-8.5 3-1.38.69-4.489 4-5.5 4Z"/><path fill="#97D6F9" id="STR" d="M283 186h1v-1l-1 1Z"/><path fill="#009C74" id="GU4" d="M56 197h1l2-1-3-10-3 1c0 4.115 3 6.359 3 10Z"/><path fill="#97D6F9" id="STR" d="m207 186-1 1 1-1Z"/><path fill="#CCC9C8" id="sm" d="m205 191 1 2 4-6-3-1-1 1h-1v4ZM252 191l-1 2c-1.028 0-4-4.666-4-6 0-2.373 2.284 0 3 0h2v4Z"/><path fill="#8598CC" id="GPe" d="m283 199 1 2v-15h-1v13Z"/><path fill="#009C74" id="GU4" d="M399 197h1c0-3.049 4-6.615 4-10l-4-1c0 4.06-3 7.303-3 11h1c0-1.186 1-1.186 1 0Z"/><path fill="#009B75" id="GU2/3" d="M48 199h1l7-2c0-3.641-3-5.885-3-10h-1c-1.554 0-4.235 4-7 4l3 8ZM407 199h1l3-8-7-4c0 3.385-4 6.951-4 10l7 2Z"/><path fill="#C8CBCC" id="ec" d="M88 200h1c0-1.837-2.52-12-4-12v4l1 1v1l1 1v2l1 1v2ZM369 195h1v-1l1-1v-4c-1.353 0-2 4.643-2 6Z"/><path fill="#009C75" id="GU1" d="m48 199-3 2-4-8 4-2 3 8Z"/><path fill="#8ADA86" id="CLA" d="M86 207h3v-6l-1-1v-2l-1-1v-2l-1-1v-1l-1-1v-1h-1c-1.238 0-3 .423-3 2 0 2.875-2.733 15 4 15l1-1Z"/><path fill="#CAC7CB" id="fiber tracts" d="M206 193c0 1.235.643 5-1 5-.675 0-2-5.294-2-6l2-1 1 2ZM251 193v7c.816 0 2-7.019 2-8l-1-1-1 2Z"/><path fill="#8ADA86" id="CLA" d="M368 207h2c7.379 0 6-7.928 6-14l-4-2h-1v2l-1 1v1l-1 1-1 5-1 1v3l1 2Z"/><path fill="#009C75" id="GU1" d="m408 199 4 2 3-8-4-2-3 8Z"/><path fill="#209766" id="AIp6a" d="m85 192 1 1-1-1ZM85 208l-4 5c0-4.604-9-13.369-9-19l9-1c0 2.875-2.733 15 4 15ZM371 193l-1 1 1-1ZM375 213h1c0-6.691 8-12.07 8-19l-8-1c0 6.072 1.379 14-6 14 0 2.572 5 2.494 5 6Z"/><path fill="#219864" id="AIp5" d="m78 215-5 1c0-3.522-13-12.719-13-19l12-3c0 5.631 9 14.396 9 19l-3 2Z"/><path fill="#209766" id="AIp6a" d="m86 194 1 1-1-1Z"/><path fill="#97D6F9" id="STR" d="M173 199h1c0-1.235.643-5-1-5v5Z"/><path fill="#219864" id="AIp5" d="m378 215 5 1c0-2.726 14-13.493 14-19-1.296 0-12-2.427-12-3h-1c0 6.93-8 12.309-8 19l2 2Z"/><path fill="#C8CBCC" id="ec" d="M367 201h1l1-5v-1c-1.353 0-2 4.643-2 6Z"/><path fill="#209766" id="AIp6a" d="m370 195-1 1v-1h1Z"/><path fill="#009B75" id="GU2/3" d="M57 197h2v-1l-2 1ZM398 197h1c0-1.186-1-1.186-1 0Z"/><path fill="#209865" id="AIp2/3" d="M73 216c0 .855-7.665 4-9 4-2.692 0-15-18.394-15-21l7-2h4c0 6.281 13 15.478 13 19Z"/><path fill="#209766" id="AIp6a" d="m87 197 1 1-1-1Z"/><path fill="#209865" id="AIp2/3" d="M383 216c0 1.165 8.453 4 10 4 2.159 0 14-18.171 14-21l-7-2h-3c0 5.507-14 16.274-14 19Z"/><path fill="#219765" id="AIp1" d="m64 220-5 3c-1.749 0-14-19.216-14-22l3-2h1c0 2.606 12.308 21 15 21ZM393 220l4 3c1.98 0 15-19.465 15-22l-4-2h-1c0 2.829-11.841 21-14 21Z"/><path fill="#209766" id="AIp6a" d="M89 200v1l-1-1h1Z"/><path fill="#C8CBCC" id="ec" d="m89 204 2 2c0-1.041-.986-5-2-5v3Z"/><path fill="#CAC7CB" id="fiber tracts" d="M205 202h1l-1-1v1Z"/><path fill="#209766" id="AIp6a" d="m368 201-1 1v-1h1Z"/><path fill="#B3C0DF" id="BAC" d="m210 209-2 1-3.5 1c-4.233 0 .5-8.486.5-9h1l4 1v6ZM247 209l1 1 3.5 1c4.44 0-.5-8.728-.5-9l-4 1-1 1c0 1.238-1.459 5 1 5Z"/><path fill="#8598CC" id="GPe" d="m173 203-1 1 1-1Z"/><path fill="#CAC7CB" id="fiber tracts" d="m247 203-1 1 1-1Z"/><path fill="#C8CBCC" id="ec" d="M366 205h1v-2l-1 2Z"/><path fill="#209766" id="AIp6a" d="M91 207v1l-2-1v-3l2 2v1Z"/><path fill="#C9C9C9" id="act" d="M222 205v3c0 9.691 6.39-3 0-3ZM233 205l-1 2.5c0 10.292 5.911-2.5 1-2.5Z"/><path fill="#C8CBCC" id="ec" d="m366 207-1 1c0-1.048-.473-3 1-3v2Z"/><path fill="#209766" id="AIp6a" d="M366 207h2l-1-2h-1v2Z"/><path fill="#97D6F9" id="STR" d="m172 206-1 1 1-1Z"/><path fill="#209766" id="AIp6a" d="m86 207-1 1 1-1Z"/><path fill="#A0EE9C" id="EPd" d="M101 229c0 1.577-1.762 2-3 2l-8-4-1-1-1-1-1-1-1-1-1-1-2-2v-1l-2-6 4-5 1-1h3l2 1 2 3v2l1 1v1l1 1v2l2 2v2l2 2v1l2 4Z"/><path fill="#C8CBCC" id="ec" d="m91 208 2 3-2-4v1Z"/><path fill="#A0EE9C" id="EPd" d="m364 229-5 2c-1.465 0-4 .109-4-2l1-3 1-1 1-1 1-3 1-1 1-3 1-1v-1l1-1v-2l1-1v-1l1-1v-1l1-1h4c0 2.572 5 2.494 5 6v4l-1 2-1 1-2 3-1 1-1 1-1 1-1 1c-1.238 0-3 .423-3 2Z"/><path fill="#8598CC" id="GPe" d="m285 208 1 1-1-1Z"/><path fill="#E64438" id="HY" d="M211 233c2.463 0 13-2.864 13 3 1.614 0 1-3.31 1-4.5 0-4.266-1.195-8.5 2-8.5v-3l-3-3-5.5-5c-1.479-.739-8.5-.967-8.5-3l-2 1 2 6.5-1 8.5 3 3.5-1 4.5ZM245 233l-7.5-1-5.5 4c0-3.15 1.464-14-2-14l-1-2c2.226 0 4-1.774 4-4 1.011 0 4.12-3.31 5.5-4 1.397-.699 8.5-1.242 8.5-3l1 1c0 2.654-.888 5.275-2 7.5l1 7.5c0 1.162-2 3.355-2 8Z"/><path fill="#C8CBCC" id="ec" d="m365 209-1 1 1-1ZM364 211l-1 1 1-1Z"/><path fill="#97D6F9" id="STR" d="m163 212-1 1 1-1ZM293 212l2 1-2-1Z"/><path fill="#99D2BD" id="OLF" d="m78 215 5 4-2-6-3 2Z"/><path fill="#C8CBCC" id="ec" d="m93 213 1 1-1-1Z"/><path fill="#97D6F9" id="STR" d="m160 213-1 1 1-1Z"/><path fill="#A2B1D7" id="SI" d="M142 253c2.613 0 4.36.93 6.5 2l17.5-1c0-.672 4.329-2 5-2h1c0-.77 6.084-5.668 7-7.5l-2-9.5c-1.951 0-.477-2.454-1-3.5l-4-12.5-1-3.5c-3.812-7.623-8.639 5.5-13 5.5l-1 2-8 8-8 15v1c0 2.124 1 4.436 1 6Z"/><path fill="#E64438" id="HY" d="m177 213-1 1 1-1Z"/><path fill="#A2B1D7" id="SI" d="M315 253c-3.108 0-4.973.737-7.5 2l-17.5-1c0-.672-4.329-2-5-2l-6-3.5c-2.14-4.28 0-8.196 0-12.5l2-3.5c.71-1.419 3-10.943 3-12.5l1-2.5c6.176-12.352 9.417 5.5 15 5.5l7 8 8 14 1 4-1 4Z"/><path fill="#97D6F9" id="STR" d="m299 216 4 1c0-1.368-5.878-4-7-4l3 3Z"/><path fill="#99D2BD" id="OLF" d="m378 215-3 2v-4h1l2 2Z"/><path fill="#97D6F9" id="STR" d="m158 216-5 1 6-3-1 2Z"/><path fill="#C8CBCC" id="ec" d="m363 214-1 1 1-1Z"/><path fill="#6ACAB9" id="PIR" d="M120 287c-2.893 0-11-1.378-11 2-4.249 0-11.884-10.384-15-13.5l-25-38c-2.358-4.716-10-9.001-10-14.5l5-3c1.335 0 9-3.145 9-4l5-1 5 4v1l2 2 1 1 1 1 1 1 1 1 1 1c0 1.628 8.5 9 10 9l18 16c0 2.822 5.612 9.725 7 12.5 2.522 5.044-2 12.25-2 16.5l-1 3-1 2-1 1Z"/><path fill="#C8CBCC" id="ec" d="m94 215 1 1-1-1Z"/><path fill="#E64438" id="HY" d="m280 215 1 1-1-1Z"/><path fill="#6ACAB9" id="PIR" d="M337 287c2.806 0 10-1.337 10 2 3.964 0 10.578-8.078 13.5-11 6.721-6.721 22.088-31.676 26.5-40.5 2.544-5.089 10-8.447 10-14.5l-4-3c-1.547 0-10-2.835-10-4l-5-1-3 2-1 2-1 1-2 3-1 1-1 1-1 1-1 1c0 1.577-1.762 2-3 2 0 2.024-5.829 6-7 6l-18 17-2 1-6 13.5c-2.087 4.174 2 9.81 2 13.5l2 4 2 3Z"/><path fill="#C9C9C9" id="act" d="M140 225c0 1.577-1.762 2-3 2l-9 8.5c-1.225 2.449 8.837 1.163 10 0l15.5-10.5 3.5-3 1-1v-5l-5 1-1 1-4 2-1 1h-1l-1 1-2 1-2 1-1 1Z"/><path fill="#E64438" id="HY" d="M182 229c-2.229 0-5 3.812-5 6-1.951 0-.477-2.454-1-3.5l-4-12.5c4.769 0 1.918-3 4-3l1 8.5 5 4.5Z"/><path fill="#C9C9C9" id="act" d="M313 223h1l12 10.5 3 2c0 1.889-7.293 2.104-8.5 1.5L300 223c0-2.278-1-4.847-1-7l4 1h1l2 2h1l2 2h1l3 2Z"/><path fill="#C8CBCC" id="ec" d="m362 216-1 1 1-1Z"/><path fill="#97D6F9" id="STR" d="m153 217-1 1 1-1ZM304 217l2 2-2-2Z"/><path fill="#99D2BD" id="OLF" d="m375 217-1 2 1-2Z"/><path fill="#C8CBCC" id="ec" d="m95 218 2 2-2-2Z"/><path fill="#E64438" id="HY" d="M274 229c3.821 0 5 3.858 5 7l2-3.5c.71-1.419 3-10.943 3-12.5-1.238 0-3-.423-3-2-1.164 0-1.435 6.37-2 7.5-.781 1.562-5 .937-5 3.5Z"/><path fill="#97D6F9" id="STR" d="m307 219 2 2-2-2Z"/><path fill="#99D2BD" id="OLF" d="m374 219-1 1 1-1ZM83 220l2 2-2-2Z"/><path fill="#97D6F9" id="STR" d="m148 220-1 1 1-1Z"/><path fill="#A8A9AA" id="V3" d="M230 222c0 6.337-3 11.739-3 1v-3h2l1 2Z"/><path fill="#C8CBCC" id="ec" d="m360 220-1 1 1-1Z"/><path fill="#97D6F9" id="STR" d="m146 221-1 1 1-1Z"/><path fill="#8599CC" id="PAL" d="M157 222v1l1-2-1 1Z"/><path fill="#97D6F9" id="STR" d="M310 221c1.238 0 3 .423 3 2l-3-2Z"/><path fill="#C8CBCC" id="ec" d="m97 222 2 2-2-2Z"/><path fill="#97D6F9" id="STR" d="m145 222-2 1 2-1ZM135 259c-4.653 0-6-1.489-6 5-1.728 0-3.305-7.11-4-8.5l-3-3.5c0-2.89-.455-9-5-9v-1l-3-3c0-2.293-.997-2-3-2v-2c.666 0 4 2.56 4 0 10.299 0 16.92-8 22-8l-9 8.5c-1.225 2.449 8.837 1.163 10 0l15.5-10.5 3.5-3v1l-8 8-14.5 8c-4.234 2.117-16.143-6.214-18.5-1.5l4.5 5.5c4.435 4.435 9.807 9.097 16 6l3.5-2-2 6-3 6Z"/><path fill="#FE5547" id="PVpo" d="M237 275h1c0-2.547-3-5.453-3-8v-1c0-1.091-2.339-7.177-3-8.5V236c0-3.15 1.464-14-2-14 0 6.337-3 11.739-3 1-3.195 0-2 4.234-2 8.5 0 1.19.614 4.5-1 4.5 0 9.316-1 19.325-1 28l-1 1-1 1c0 3.717-3 5.188-3 9h1l1-1 4-1 1-2 3.5-11 .5 5.5 2 5.5 1 2 4 1 1 1Z"/><path fill="#99D2BD" id="OLF" d="m86 223 1 1-1-1Z"/><path fill="#97D6F9" id="STR" d="m143 223-2 1 2-1ZM341 239h1c0-1.577 1.762-2 3-2v-1c-1.048 0-3 .473-3-1-14.605 0-23.09-12-28-12l12 10.5 3 2c0 1.889-7.293 2.104-8.5 1.5L300 223l7 8c5.231 0 10.285 8 15 8 3.703 0 19-5.076 19 0Z"/><path fill="#99D2BD" id="OLF" d="m371 223-1 1 1-1Z"/><path fill="#97D6F9" id="STR" d="m141 224-1 1 1-1Z"/><path fill="#C8CBCC" id="ec" d="m358 224-1 1 1-1Z"/><path fill="#99D2BD" id="OLF" d="m370 224-1 1 1-1ZM88 225l1 1-1-1Z"/><path fill="#C8CBCC" id="ec" d="M111 235c.666 0 4 2.56 4 0-6.21 0-13.131-10-16-10l2 4c1.747 0 2 .253 2 2 2.364 0 3.053 3 5 3l1 1h2Z"/><path fill="#97D6F9" id="STR" d="M140 225c-1.238 0-3 .423-3 2 1.238 0 3-.423 3-2Z"/><path fill="#FE5346" id="PD" d="m210 234-1 1-5-2v-1c0-3.667.854-7 5-7l3 3.5-1 4.5-1 1ZM245 233l4.5 2 2.5-2 1-2c0-3.169-2.831-6-6-6 0 1.162-2 3.355-2 8Z"/><path fill="#C8CBCC" id="ec" d="m357 225-1 1 1-1Z"/><path fill="#99D2BD" id="OLF" d="m369 225-1 1 1-1Z"/><path fill="#C8CBCC" id="ec" d="m353 231-4 2 7-7-1 3-2 2Z"/><path fill="#99D2BD" id="OLF" d="m368 226-1 1 1-1ZM100 234v2c-1.5 0-10-7.372-10-9l8 4 2 3ZM367 227c-1.238 0-3 .423-3 2 1.238 0 3-.423 3-2Z"/><path fill="#8AD987" id="CTXsp" d="M103 231c-1.539 0-3 1.342-3 3l-2-3c1.238 0 3-.423 3-2 1.747 0 2 .253 2 2Z"/><path fill="#F2473B" id="LPO" d="M190 268h3v-26.5l-2-5.5-2-3-5-3-1-1h-1c-2.229 0-5 3.812-5 6l2 9.5c-.916 1.832-7 6.73-7 7.5 0 2.364 3 3.053 3 5 4.593 0 13.79 11 15 11Z"/><path fill="#E64438" id="HY" d="m183 229 1 1-1-1Z"/><path fill="#F2473B" id="LPO" d="m263 267 3 1c2.006 0 10.636-11 16-11l2-2 1-2v-1l-6-3.5c-2.14-4.28 0-8.196 0-12.5 0-3.142-1.179-7-5-7l-7 4-2 3c0 2.654-.888 5.275-2 7.5V267Z"/><path fill="#8AD987" id="CTXsp" d="M359 231c0 1.481-2 .785-2 3-1.457 0-1.46-3-4-3l2-2c0 2.109 2.535 2 4 2Z"/><path fill="#99D2BD" id="OLF" d="M357 234v1c1.171 0 7-3.976 7-6l-5 2c0 1.481-2 .785-2 3Z"/><path fill="#A0ED9D" id="EPv" d="M118 252h1c5.302 0-2-7.844-2-9v-1l-3-3c-2.003 0-3 .293-3-2v-1l-1-1h-1l-1-1c-1.947 0-2.636-3-5-3-1.539 0-3 1.342-3 3v2l18 16Z"/><path fill="#7ECDF8" id="FS" d="m141 246-1 1-3.5 2c-6.193 3.097-11.565-1.565-16-6l-4.5-5.5c2.357-4.714 14.266 3.617 18.5 1.5l14.5-8-8 15Z"/><path fill="#E64438" id="HY" d="M252 233h2l-1-2-1 2Z"/><path fill="#7ECDF8" id="FS" d="M341 239c-1.802 0-10.552 9.026-14.5 11-5.078 2.539-7.975-5-11.5-5l-8-14c5.231 0 10.285 8 15 8 3.703 0 19-5.076 19 0Z"/><path fill="#A0ED9D" id="EPv" d="M337 252h2l18-17v-1c-1.457 0-1.46-3-4-3l-4 2v1l-1 1h-1l-1 1v1c0 1.577-1.762 2-3 2l-2 2-1 1-1 1-1 1-1 1c0 .969-2.614 7 0 7Z"/><path fill="#E64438" id="HY" d="M203 233h1v-1l-1 1Z"/><path fill="#FD4C3E" id="MPN" d="M210 267h5l6-1 1-1 1-1c0-8.675 1-18.684 1-28 0-5.864-10.537-3-13-3l-1 1-1 1c0 2.477-2.011 2.522-3 4.5-2.066 4.131-2.074 15.852 0 20 .943 1.886.214 7.5 4 7.5ZM242 267h4c7.069 0 6.12-23.261 4-27.5l-5-6.5-7.5-1-5.5 4v21.5c.661 1.323 3 7.409 3 8.5h1c1.564 0 3.876 1 6 1Z"/><path fill="#E64438" id="HY" d="M199 234c0 .689-7.178 2-8 2l-2-3 10 1ZM201 233l-2 1 2-1Z"/><path fill="#FF5346" id="MPO" d="M201 271h6l1-1h1l1-1v-2c-3.786 0-3.057-5.614-4-7.5-2.074-4.148-2.066-15.869 0-20 .989-1.978 3-2.023 3-4.5l-5-2h-3l-2 1c0 .689-7.178 2-8 2l2 5.5V268c3.969 0 5.334 3 8 3ZM211 233l-1 1 1-1ZM250 271h6c2.232 0 4.029-3 7-3v-24.5c1.112-2.225 2-4.846 2-7.5-.759 0-7-1.318-7-2h-1l-2-1h-3l-2.5 2-4.5-2 5 6.5c2.12 4.239 3.069 27.5-4 27.5v2l2 1 1 1h1Z"/><path fill="#E64438" id="HY" d="m255 233 2 1-2-1ZM258 234c0 .682 6.241 2 7 2l2-3-9 1Z"/><path fill="#C8CBCC" id="ec" d="M347 235h1l1-1v-1l-7 2c0 1.473 1.952 1 3 1l1-1h1Z"/><path fill="#8AD987" id="CTXsp" d="m108 234 1 1-1-1Z"/><path fill="#FF5346" id="MPO" d="m210 234-1 1 1-1Z"/><path fill="#8AD987" id="CTXsp" d="m349 234-1 1 1-1ZM111 235v1l-1-1h1Z"/><path fill="#97D6F9" id="STR" d="M345 236h1v-1l-1 1Z"/><path fill="#8AD987" id="CTXsp" d="m347 235-1 1v-1h1ZM345 237h1v-1h-1v1Z"/><path fill="#80BEE2" id="IA" d="M111 237c2.003 0 3-.293 3 2-2.003 0-3 .293-3-2ZM342 239h1c1.238 0 3-.423 3-2h-1c-1.238 0-3 .423-3 2Z"/><path fill="#8AD987" id="CTXsp" d="m114 239 3 3-3-3Z"/><path fill="#97D6F9" id="STR" d="M321 259c5.453 0 6-.757 6 6l7-13c0-1.989.247-7 3-7l1-1 1-1 1-1 1-1v-2c-1.802 0-10.552 9.026-14.5 11-5.078 2.539-7.975-5-11.5-5l1 4 2 4c2.933 0 3 4.001 3 6Z"/><path fill="#8AD987" id="CTXsp" d="m343 239-2 2v-2h2ZM341 241l-1 1 1-1ZM340 242l-1 1 1-1ZM119 252c0 2.373 2.284 0 3 0 0-2.89-.455-9-5-9 0 1.156 7.302 9 2 9ZM339 243l-1 1 1-1ZM338 244l-1 1 1-1ZM337 252v1l-3-1c0-1.989.247-7 3-7 0 .969-2.614 7 0 7Z"/><path fill="#97D6F9" id="STR" d="M140 247h1v-1l-1 1Z"/><path fill="#8599CC" id="PAL" d="M138 253h4c0-1.564-1-3.876-1-6h-1l-2 6ZM315 253h3l-2-4-1 4Z"/><path fill="#99D2BD" id="OLF" d="m131 289-5 1c0-5.325-1.125-4-5-4l1-2c2.754 0 7.113-5 3.5-5l-2.5 2c0-4.25 4.522-11.456 2-16.5-1.388-2.775-7-9.678-7-12.5h1c0 2.373 2.284 0 3 0l3 3.5c.695 1.39 2.272 8.5 4 8.5v2c0 4.081 4 7.889 4 13v6l-2 4Z"/><path fill="#8599CC" id="PAL" d="m173 257-2 1c-1.302 0-2.641-4-5-4 0-.672 4.329-2 5-2l2 5Z"/><path fill="#E64438" id="HY" d="M173 257h2c0-1.947-3-2.636-3-5h-1l2 5Z"/><path fill="#8599CC" id="PAL" d="m284 257 1 2 2-3.5 3-1.5c0-.672-4.329-2-5-2v1l-1 2v2Z"/><path fill="#99D2BD" id="OLF" d="m325 289 6 1-1-1.5c-2.599-5.198 6.123-1.5 7-1.5l-2-3c-4.63 0-7.086-4-2-4 0-3.69-4.087-9.326-2-13.5l6-13.5-3-1-7 13v2l-1 1c0 3.99-3 6.666-3 11v5c1.638 0 2 3.576 2 5ZM339 252l-2 1v-1h2Z"/><path fill="#A2B1D8" id="MA" d="M159 277c0 1.457 4.377 0 6 0l4-4c0-2.962 2-9.675 2-15-1.302 0-2.641-4-5-4l-17.5 1c-2.14-1.07-3.887-2-6.5-2h-4l-3 6c2.163 0 23.897 12.294 25 14.5l-1 3.5Z"/><path fill="#E64438" id="HY" d="m285 253-1 2 1-2Z"/><path fill="#A2B1D8" id="MA" d="M291 277c1.593 0 7 1.854 7 0-2.127 0-.985-5.257.5-6l22.5-12c0-1.999-.067-6-3-6h-3c-3.108 0-4.973.737-7.5 2l-17.5-1-3 1.5-2 3.5c0 5.018 2 9.423 2 14l4 4Z"/><path fill="#E64438" id="HY" d="M282 257h2v-2l-2 2Z"/><path fill="#96A6D3" id="NDB" d="m188 278-1 1c-7.212 0-15.108-6-18-6 0-2.962 2-9.675 2-15l2-1h2c4.593 0 13.79 11 15 11l1 1-2 8-1 1ZM287 273l-1.5 2-10 4c-2.364 1.182-5.696-1-7.5-1l-2-7v-3c2.006 0 10.636-11 16-11h2l1 2c0 5.018 2 9.423 2 14Z"/><path fill="#80C0E2" id="AAA" d="m129 266 9.5 9c7.183 3.591 12.804 2 20.5 2l1-3.5c-1.103-2.206-22.837-14.5-25-14.5-4.653 0-6-1.489-6 5v2ZM326 268l-11.5 9c-5.034 2.517-11.509 0-16.5 0-2.127 0-.985-5.257.5-6l22.5-12c5.453 0 6-.757 6 6v2l-1 1Z"/><path fill="#A8A9AA" id="V3" d="M225 271h6l-2-5.5-.5-5.5-3.5 11Z"/><path fill="#E64438" id="HY" d="m223 264-1 1 1-1ZM222 265l-1 1 1-1Z"/><path fill="#97D6F9" id="STR" d="M133 279c8.647 0 14.975 2 23.5 2l5-1c1.533.766 8.245 4 9.5 4 0-3.781-6-4.324-6-7-1.623 0-6 1.457-6 0-7.696 0-13.317 1.591-20.5-2l-9.5-9c0 4.081 4 7.889 4 13Z"/><path fill="#FD5545" id="VMPO" d="M204 279h4l1-1 6-1 1-1 2-1c0-3.812 3-5.283 3-9l-6 1c0 1.014-3.959 2-5 2l-1 1h-1l-1 1c0 1.356-3 1.403-3 8Z"/><path fill="#E64438" id="HY" d="m236 266-1 1v-1h1Z"/><path fill="#FD5545" id="VMPO" d="M241 277c4.499 0 7.354 2 12 2 0-3.863-3-6.505-3-8h-1l-1-1-2-1-4-2c-2.124 0-4.436-1-6-1l-1 1c0 2.547 3 5.453 3 8l2 1 1 1Z"/><path fill="#E64438" id="HY" d="M215 267c0 1.014-3.959 2-5 2v-2h5ZM246 267v2l-4-2h4ZM266 268v3l-3-3v-1l3 1Z"/><path fill="#97D6F9" id="STR" d="m327 267-1 1 1-1Z"/><path fill="#E64438" id="HY" d="m193 268-2 1-1-1h3Z"/><path fill="#FE5546" id="VLPO" d="m201 279-4 1-8-1v-2l2-8 2-1c3.969 0 5.334 3 8 3v8ZM268 279l-9 1-4-1c0-2.707 1-5.903 1-8 2.232 0 4.029-3 7-3l3 3 2 7v1Z"/><path fill="#97D6F9" id="STR" d="m286 288 5 5c0-2.578-6.575-5.351-5-8.5 2.199-4.399 30.544-5.5 37-5.5 0-4.334 3-7.01 3-11l-11.5 9c-5.034 2.517-11.509 0-16.5 0 0 1.854-5.407 0-7 0l-6 6.5 1 4.5Z"/><path fill="#E64438" id="HY" d="m210 269-1 1 1-1ZM208 270l-1 1 1-1ZM248 270l1 1-1-1ZM201 279h3c0-6.597 3-6.644 3-8h-6v8ZM253 279h2c0-2.707 1-5.903 1-8h-6c0 1.495 3 4.137 3 8Z"/><path fill="#8599CC" id="PAL" d="M171 286v1c3.492 0 16-4.302 16-8-7.212 0-15.108-6-18-6l-4 4c0 2.676 6 3.219 6 7v2Z"/><path fill="#CAC7CB" id="fiber tracts" d="M216 276v1c3.155 0 5.876-1.688 8.5-3 1.583-.792 4.5 1.615 4.5 0l-5-1-4 1-1 1h-1l-2 1ZM240 276v1c-3.989 0-6.768-3-11-3 0-1.473 1.952-1 3-1l4 1 1 1h1l2 1Z"/><path fill="#8599CC" id="PAL" d="M268 279c1.291 0 14.24 9 18 9l-1-4.5 6-6.5-4-4-1.5 2-10 4c-2.364 1.182-5.696-1-7.5-1v1Z"/><path fill="#E64438" id="HY" d="m220 274-1 1 1-1Z"/><path fill="#CBCACC" id="och" d="M199 286c0 4.153 24.099-1 29.5-1 7.772 0 14.587 3 21.5 3 1.949 0 8 .991 8-2v-4c0-3.62-17-.854-17-5h-1c-3.989 0-6.768-3-11-3 0 1.615-2.917-.792-4.5 0-2.624 1.312-5.345 3-8.5 3 0 1.663-5.407 2-7 2h-1c0 2.424-9-.52-9 3v4Z"/><path fill="#E64438" id="HY" d="m236 274 1 1-1-1ZM215 277h1v-1l-1 1ZM240 277h1l-1-1v1ZM188 279h1v-2l-1 1v1Z"/><path fill="#CAC7CB" id="fiber tracts" d="M209 278v1c1.593 0 7-.337 7-2h-1l-6 1Z"/><path fill="#CAC7CB" id="fiber tracts" d="M199 286c0 4.153 24.099-1 29.5-1 7.772 0 14.587 3 21.5 3 1.949 0 8 .991 8-2 1.535 0 1.535-4 0-4 0-3.62-17-.854-17-5 4.499 0 7.354 2 12 2h2l4 1c0 2.625 4.586 6.457-.5 9-1.398.699-22.996 1.002-25 0-1.284-.642-2.813-.406-4-1l-1-2-1 2c-3.534 1.767-30.109 2.282-31.5-.5-1.611-3.222 1-4.901 1-7.5l4-1h7c0 2.424-9-.52-9 3-2.515 0-2.515 4 0 4Z"/><path fill="#8599CC" id="PAL" d="M187 279h1v-1l-1 1Z"/><path fill="#E64438" id="HY" d="M208 279h1v-1l-1 1Z"/><path fill="#59D9AA" id="PAA" d="m123 281 2.5-2c3.613 0-.746 5-3.5 5l1-3Z"/><path fill="#7FCCF7" id="OT" d="m147 296 2 1c5.785 0 10.785-4 16-4l1-1 1-1 1-1 1-1c0-1.238.423-3 2-3v-2c-1.255 0-7.967-3.234-9.5-4l-5 1c-8.525 0-14.853-2-23.5-2v6c0 5.444 9 6.733 9 10l5 1ZM309 296l-2 1c-5.785 0-10.785-4-16-4 0-2.578-6.575-5.351-5-8.5 2.199-4.399 30.544-5.5 37-5.5v5c0 2.765-2 5.165-2 7-1.238 0-3 .423-3 2l-2 1-1 1-6 1Z"/><path fill="#59D9AA" id="PAA" d="M333 280c-5.086 0-2.63 4 2 4l-2-4Z"/><path fill="#CACCCB" id="opt" d="M199 282c-2.515 0-2.515 4 0 4v-4ZM258 282c1.535 0 1.535 4 0 4v-4Z"/><path fill="#97D6F9" id="STR" d="m325 289-4 2c0-1.835 2-4.235 2-7 1.638 0 2 3.576 2 5Z"/><path fill="#CAC8C7" id="lot" d="m109 289 4.5 3c4.191 2.096 9.362-2 12.5-2 0-5.325-1.125-4-5-4l-1 1c-2.893 0-11-1.378-11 2Z"/><path fill="#97D6F9" id="STR" d="M131 289c3.827 0 6.958 6 11 6 0-3.267-9-4.556-9-10l-2 4Z"/><path fill="#CAC8C7" id="lot" d="M347 289c0 4.263-16 3.888-16 1l-1-1.5c-2.599-5.198 6.123-1.5 7-1.5 2.806 0 10-1.337 10 2Z"/><path fill="#99D2BD" id="OLF" d="m121 286-1 1 1-1Z"/><path fill="#97D6F9" id="STR" d="m171 287-2 2c0-1.238.423-3 2-3v1ZM169 289l-1 1 1-1ZM168 290l-1 1 1-1ZM321 291c-1.238 0-3 .423-3 2 1.238 0 3-.423 3-2ZM166 292l-1 1 1-1ZM318 293l-2 1 2-1ZM316 294l-1 1 1-1ZM147 296l2 1-2-1ZM309 296l-2 1 2-1Z"/></svg>