<svg xmlns="http://www.w3.org/2000/svg" viewBox="0 0 456 320"><path fill="#1E9C59" id="MOs1" d="M119 154h2v-1c0-.184-5.409-13.317-6-14.5-1.942-3.884.499-12.999 2-16 1.671-3.342 2.285-7.57 4-11 5.942-11.885 19.453-22.976 30.5-28.5 8.648-4.324 37.886-14.057 48-9 3.116 1.558 14.5 3.12 14.5 9h1c0-1.365 2.366-4 4-4 0-8.535-26.89-17.305-35.5-13-3.88 1.94-9.157 1.078-13 3-20.178 10.09-41.192 16.885-52.5 39.5-2.764 5.527-7 9.823-7 16.5 1.748 0 .793 10.087 2 12.5.802 1.603 6 15.953 6 16.5ZM346 124c-1.86 0-2.525 18-5 18v-16.5c-9.714-19.428-15.186-31.843-36.5-42.5l-16-6c-6.756-3.378-27.487-5.757-35-2-2.583 1.291-11.5 3.594-11.5 8h-1c0-1.429-1.288-4-3-4 0-9.537 26.956-16.772 34.5-13 4.794 2.397 11.182 1.591 16 4 20.522 10.261 38.906 16.311 50.5 39.5 2.107 4.215 7 9.643 7 14.5Z"/><path fill="#1E9D58" id="MOs2/3" d="M131 147c-3.428 0-6.206 6-10 6 0-.184-5.409-13.317-6-14.5-1.942-3.884.499-12.999 2-16 1.671-3.342 2.285-7.57 4-11 5.942-11.885 19.453-22.976 30.5-28.5 8.648-4.324 37.886-14.057 48-9 3.116 1.558 14.5 3.12 14.5 9l-5 4c-2.296 0-12.501-7-16.5-5-4.794 2.397-11.182 1.591-16 4-16.617 8.308-34.242 15.984-43.5 34.5-4.181 8.362-2 17.395-2 26.5ZM325 147c3.638 0 6.408 6 10 6 3.298 0 3.499-11 6-11v-16.5c-9.714-19.428-15.186-31.843-36.5-42.5l-16-6c-6.756-3.378-27.487-5.757-35-2-2.583 1.291-11.5 3.594-11.5 8l5 4c3 0 13.411-7.045 17.5-5 6.541 3.27 16.089 3.544 23 7 13.582 6.791 28.18 15.861 35.5 30.5l3 9c3.11 6.22-1 12.712-1 18.5Z"/><path fill="#3EA665" id="ACAd1" d="M225 90c0 .672-4.329 2-5 2 0-1.472-3.803-9-5-9 0-1.365 2.366-4 4-4 0 3.51 6 7.015 6 11ZM236 92h1c0-3.65 4-6.136 4-9 0-1.429-1.288-4-3-4-1.992 0-7 9.836-7 12l5 1Z"/><path fill="#1F9D58" id="MOs5" d="M159 133c-5.867 0-9.741 1.121-15.5 4L131 147c0-9.105-2.181-18.138 2-26.5 9.258-18.516 26.883-26.192 43.5-34.5 4.818-2.409 11.206-1.603 16-4 3.999-2 14.204 5 16.5 5v1c0 2.519-6 3.78-6 7-3.813 0-13 7.938-13 12h-3c-8.914 0-14.185 4.343-21.5 8-1.839.919-5.66 10-1.5 10l-5 8ZM298 134c0-2.389 9.357-.571 10.5 0l16.5 13c0-5.788 4.11-12.28 1-18.5l-3-9c-7.32-14.639-21.918-23.709-35.5-30.5-6.911-3.456-16.459-3.73-23-7-4.089-2.045-14.5 5-17.5 5v1l6 6c2.01 0 14 11.028 14 13h2c8.786 0 20.802 4.105 25 12.5.978 1.956-1 4.077-1 5.5 0 1.327 3.988 9 5 9Z"/><path fill="#40A565" id="ACAd2/3" d="m220 92-7 1c0-1.562-2.189-5-4-5v-1l5-4h1c1.197 0 5 7.528 5 9ZM237 92l6 1 4-5v-1l-5-4h-1c0 2.864-4 5.35-4 9Z"/><path fill="#3EA566" id="ACAd5" d="m213 93-10 2c0-3.22 6-4.481 6-7 1.811 0 4 3.438 4 5ZM243 93c1.35 0 10 3.64 10 1l-6-6-4 5Z"/><path fill="#2FA750" id="PL1" d="M223 125h10c0-10.924 3-22.591 3-33l-5-1-2.5 4-3.5-5c0 .672-4.329 2-5 2l2 5.5 1 27.5Z"/><path fill="#2FA74F" id="PL2/3" d="m219 124 4 1-1-27.5-2-5.5-7 1c0 .965 5.185 14.871 6 16.5V124ZM237 124l-4 1c0-10.924 3-22.591 3-33h1l6 1-3 7.5c-2.063 4.127-3 18.46-3 23.5Z"/><path fill="#2EA84F" id="PL5" d="M197 114c3.908 0 15.038 10 22 10v-14.5c-.815-1.629-6-15.535-6-16.5l-10 2c-3.813 0-13 7.938-13 12 2.864 0 7 2.928 7 6v1ZM259 114c-3.696 0-14.594 10-22 10 0-5.04.937-19.373 3-23.5l3-7.5c1.35 0 10 3.64 10 1 2.01 0 14 11.028 14 13h-1c-3.386 0-6 2.639-6 6l-1 1Z"/><path fill="#258F45" id="FRP5" d="M175 119c-4.058 0-7.012 6-11 6-4.16 0-.339-9.081 1.5-10 7.315-3.657 12.586-8 21.5-8 0 .83-6.431 2.466-7.5 3-3.303 1.652-4.5 5.118-4.5 9Z"/><path fill="#268E44" id="FRP6a" d="M195 117h2v-2l-1-2-6-6h-3c0 .83-6.431 2.466-7.5 3-3.303 1.652-4.5 5.118-4.5 9 2.949 0 6.667-4 10-4 2.108 0 10-.789 10 2Z"/><path fill="#2FA850" id="PL6a" d="M196 113h1c0-3.072-4.136-6-7-6l6 6ZM260 113h1l5-6c-3.386 0-6 2.639-6 6Z"/><path fill="#268E44" id="FRP6a" d="M260 117h1c2.95 0 7.018-2 11-2 3.645 0 6.777 4 10 4 0-4.068-2.905-8.203-6.5-10-1.053-.527-6.5-.851-6.5-2h-3l-5 6-1 1-1 2 1 1Z"/><path fill="#258F45" id="FRP5" d="M282 119c3.619 0 6.774 6 11 6 0-1.423 1.978-3.544 1-5.5-4.198-8.395-16.214-12.5-25-12.5 0 1.149 5.447 1.473 6.5 2 3.595 1.797 6.5 5.932 6.5 10Z"/><path fill="#22885E" id="ORBm6a" d="M197 114v1l-1-2h1v1Z"/><path fill="#2FA850" id="PL6a" d="M259 114h1v-1l-1 1Z"/><path fill="#22885E" id="ORBm6a" d="m261 113-1 1v-1h1Z"/><path fill="#23885E" id="ORBm5" d="M219 124c0 6.005 1.288 28-6 28l-16-33v-5c3.908 0 15.038 10 22 10ZM237 124c0 4.811.012 28 6 28l17-33v-2l-1-1v-2c-3.696 0-14.594 10-22 10Z"/><path fill="#22885E" id="ORBm6a" d="m260 114-1 2v-2h1Z"/><path fill="#24895D" id="ORBl6a" d="M175 119c0 4.534 4.71 4 8 4 0-3.303 2-5.115 2-8-3.333 0-7.051 4-10 4Z"/><path fill="#238A5C" id="ORBvl6a" d="M183 123v1c2.681 0 13-1.482 13-5l-1-2c0-2.789-7.892-2-10-2 0 2.885-2 4.697-2 8ZM260 119c.656 0 4.138 3.319 5.5 4 2.692 1.346 6.303 0 8.5 0l-2-8c-3.982 0-8.05 2-11 2l-1 1v1Z"/><path fill="#24895D" id="ORBl6a" d="M282 119c0 3.752-5.469 4-8 4l-2-8c3.645 0 6.777 4 10 4Z"/><path fill="#22885E" id="ORBm6a" d="M196 119h1v-2h-2l1 2ZM261 117l-1 1v-1h1Z"/><path fill="#228A5D" id="ORBl5" d="M149 165v5c11.469 0 23.586-27 32-27 0-3.811-1.912-10.675 0-14.5l2-4.5v-1c-3.29 0-8 .534-8-4-4.058 0-7.012 6-11 6l-5 8c0 5.059-9 23.17-9 30l-1 2Z"/><path fill="#23885C" id="ORBvl5" d="M181 143c1.423 0 3.544-1.978 5.5-1 3.137 1.569 24.201 10 26.5 10l-16-33h-1c0 3.518-10.319 5-13 5l-2 4.5c-1.912 3.825 0 10.689 0 14.5ZM275 143c-6.377 0-14.256.878-20.5 4-3.648 1.824-7.127 5-11.5 5l17-33c.656 0 4.138 3.319 5.5 4 2.692 1.346 6.303 0 8.5 0 0 2.993 2 7.615 2 10.5 0 2.185-1 6.646-1 9.5Z"/><path fill="#228A5D" id="ORBl5" d="M306 163c0 1.564 1 3.876 1 6-13.196 0-22.052-26-32-26 0-2.854 1-7.315 1-9.5 0-2.885-2-7.507-2-10.5 2.531 0 8-.248 8-4 3.619 0 6.774 6 11 6 0 1.327 3.988 9 5 9 0 7.718 8 20.154 8 29Z"/><path fill="#24885D" id="ORBm2/3" d="M213 152c0 4.054 6 8.681 6 13 3.927 0 2.965-7.431 4-9.5 4.051-8.102 0-21.869 0-30.5l-4-1c0 6.005 1.288 28-6 28ZM243 152l-6 12c-2.684 0-4-6.4-4-8.5V125l4-1c0 4.811.012 28 6 28Z"/><path fill="#1E9D5A" id="MOp1" d="m337 154 4 2c0-2.976 4.588-9.675 6-12.5 2.457-4.915-1-14.792-1-19.5-1.86 0-2.525 18-5 18 0 2.383-1.535 12-4 12ZM119 154l-4 2c0-3.196-6-14.023-6-23 0-1.552.566-8 2-8 1.748 0 .793 10.087 2 12.5.802 1.603 6 15.953 6 16.5Z"/><path fill="#23895D" id="ORBm1" d="m231 175 4 2c0-4.656 2-7.78 2-12v-1c-2.684 0-4-6.4-4-8.5V125h-10c0 8.631 4.051 22.398 0 30.5-1.035 2.069-.073 9.5-4 9.5 0 3.696 3 7.998 3 12l3-2c0-6.635 6-8.474 6 0Z"/><path fill="#209665" id="AId5" d="M145 170h1c0-1.076 1.523-5 3-5l1-2c0-6.83 9-24.941 9-30-5.867 0-9.741 1.121-15.5 4L131 147l8 17.5 6 5.5ZM306 163l5 6c5.78 0 14-16.706 14-22l-16.5-13c-1.143-.571-10.5-2.389-10.5 0 0 7.718 8 20.154 8 29Z"/><path fill="#248A5D" id="ORBvl2/3" d="M183 155c13.249 0 22.462 10 36 10 0-4.319-6-8.946-6-13-2.299 0-23.363-8.431-26.5-10-1.956-.978-4.077 1-5.5 1 0 5.375 2 6.897 2 12ZM237 164v1c13.701 0 22.775-10 36-10 0-4.22 2-7.344 2-12-6.377 0-14.256.878-20.5 4-3.648 1.824-7.127 5-11.5 5l-6 12Z"/><path fill="#1E9C59" id="MOs1" d="M335 154h2c2.465 0 4-9.617 4-12-2.501 0-2.702 11-6 11v1Z"/><path fill="#238A5E" id="ORBl2/3" d="M148 181h1l8.5-8c9.701-4.851 13.717-17 25.5-17v-1c0-5.103-2-6.625-2-12-8.414 0-20.531 27-32 27l-1 11ZM308 170v10c-3.092 0-8.331-6.831-11-9.5-6.018-6.018-15.332-14.5-24-14.5v-1c0-4.22 2-7.344 2-12 9.948 0 18.804 26 32 26l1 1Z"/><path fill="#209765" id="AId2/3" d="M138 180h1c0-3.484 6-5.736 6-10l-6-5.5-8-17.5c-3.428 0-6.206 6-10 6v1l17 26ZM317 180h1c0-3.552 17-20.811 17-26v-1c-3.592 0-6.362-6-10-6 0 5.294-8.22 22-14 22v1c0 4.09 6 6.642 6 10Z"/><path fill="#209764" id="AId1" d="m138 180-3 3c-2.168 0-14.395-18.289-16-21.5l-4-5.5 4-2h2l17 26ZM318 180l4 3 5-5.5c2.305-4.609 14-17.547 14-21.5l-4-2h-2c0 5.189-17 22.448-17 26Z"/><path fill="#248A5B" id="ORBvl1" d="M219 165c0 3.696 3 7.998 3 12-10.649 0-22.793-13-37-13 0-1.775-.069-8-2-8v-1c13.249 0 22.462 10 36 10ZM237 165c0 4.22-2 7.344-2 12 9.451 0 21.888-13 36-13 0-3.555 2-4.955 2-8v-1c-13.225 0-22.299 10-36 10Z"/><path fill="#238A5D" id="ORBl1" d="m154 183-5 4v-6l8.5-8c9.701-4.851 13.717-17 25.5-17 1.931 0 2 6.225 2 8-6.878 0-29 10.078-29 17l-1 1-1 1ZM308 181l-1 5c-4.204 0-9.053-10.777-13.5-13-7.637-3.819-13.26-9-22.5-9 0-3.555 2-4.955 2-8 8.668 0 17.982 8.482 24 14.5 2.669 2.669 7.908 9.5 11 9.5v1Z"/><path fill="#1F9865" id="AIv5" d="m150 163-1 2 1-2ZM308 170h3v-1l-5-6c0 1.564 1 3.876 1 6l1 1Z"/><path fill="#99D2BD" id="OLF" d="M210 229c0 2.596 12 3.386 12 8 3.174 0 2.857-13.215 4-15.5 5.263-10.526-1-35.206-1-46.5l-3 2c-10.649 0-22.793-13-37-13-6.878 0-29 10.078-29 17l13.5-10c13.201-6.601 26.16-6.84 37.5 4.5 3.012 3.012 6 6.315 6 10.5 2.421 0 6.678-2.411 9.5-1 2.769 1.384 2.5 7.6 2.5 10.5 0 5.783 3.493 28.503-2.5 31.5-4.852 2.426-6.975-3-11.5-3 0 1.777 2.985 5-1 5Z"/><path fill="#99D2BD" id="OLF" d="m246 229-12 7-3-7.5c-1.867-3.735-.103-9.206-2-13-2.841-5.682 2-32.952 2-40.5l4 2c9.451 0 21.888-13 36-13 9.24 0 14.863 5.181 22.5 9 4.447 2.223 9.296 13 13.5 13l3 2c0 3.832 6.118 8.264 4 12.5l-4 5c-.592 1.185-1.012 4.5-3 4.5 0-2.364-3-3.053-3-5 9.177 0 .391-17.719-1-20.5l-8.5-7.5c-4.118-2.059-6.948-5.974-11-8-10.233-5.116-28.77-3.959-34.5 7.5-2.089 4.178-5 3.757-5 10.5-2.428 0-5.933-3.784-9.5-2-4.247 2.124-5.198 39.901-1 42 4.789 2.394 7.134-3 11.5-3 0 1.235-.643 5 1 5Z"/><path fill="#1F9865" id="AIv5" d="M146 170h3v-5c-1.477 0-3 3.924-3 5Z"/><path fill="#54BF94" id="AON" fill-rule="evenodd" d="m180 191-1 3.5c1.005 2.01 4.646 4.293 6 7l4 12 4.5 4.5c4.942-2.471.881-10.738-.5-13.5v-11c-1.14-2.28-10.344-2.5-13-2.5m0 52c2.627 0 8.386 7 13 7 0-6.401 10.125-21 17-21 3.985 0 1-3.223 1-5l-4-4.5v-17l6-16.5c0-4.185-2.988-7.488-6-10.5-11.34-11.34-24.299-11.101-37.5-4.5L156 181l-1 1-1 1c0 2.477-2.011 2.522-3 4.5-1.107 2.213-4.959 17.5 1 17.5 2.271 0 17.365 21.23 19 24.5.891 1.782 10.879 12.5 9 12.5v1ZM271 191c0 1.32-6.864 1.229-8 3.5l1 7c-1.689 3.377-6.365 13.567-.5 16.5 2.918 1.459 4.849-10.197 5.5-11.5 2.937-5.874 14.686-15.5 2-15.5m5 52c-2.954 0-8.589 8-13 8 0-7.684-8.997-22-17-22-1.643 0-1-3.765-1-5l4-3.5 1-13c-2.075-4.149-.936-9.872-3-14l-3-6.5c0-6.743 2.911-6.322 5-10.5 5.73-11.459 24.267-12.616 34.5-7.5 4.052 2.026 6.882 5.941 11 8l8.5 7.5c1.391 2.781 10.177 20.5 1 20.5l-7 7.5c-2.955 5.91-21 25.032-21 29.5v1Z"/><path fill="#219764" id="AIv2/3" d="M139 180c0 5.196 7.619 1 9 1l1-11h-4c0 4.264-6 6.516-6 10ZM317 180c0 5.553-7.603 1-9 1v-11h3c0 4.09 6 6.642 6 10Z"/><path fill="#209864" id="AIv1" d="m149 187-2 1c-4.15 0-12 1.102-12-5l3-3h1c0 5.196 7.619 1 9 1h1v6ZM307 186l3 2c4.032 0 12 .658 12-5l-4-3h-1c0 5.553-7.603 1-9 1l-1 5Z"/><path fill="#99D2BD" id="OLF" d="m156 181-1 1 1-1ZM155 182l-1 1 1-1ZM152 205l-3 4-2.5-3c-7.795-7.795.5-10.611.5-18l2-1 5-4c0 2.477-2.011 2.522-3 4.5-1.107 2.213-4.959 17.5 1 17.5Z"/><path fill="#9AD1BD" id="MOB" d="M213 186c2.421 0 6.678-2.411 9.5-1 2.769 1.384 2.5 7.6 2.5 10.5 0 5.783 3.493 28.503-2.5 31.5-4.852 2.426-6.975-3-11.5-3l-4-4.5v-17l6-16.5ZM244 187c-2.428 0-5.933-3.784-9.5-2-4.247 2.124-5.198 39.901-1 42 4.789 2.394 7.134-3 11.5-3l4-3.5 1-13c-2.075-4.149-.936-9.872-3-14l-3-6.5Z"/><path fill="#CBCBC7" id="aco" d="m180 191-1 3.5c1.005 2.01 4.646 4.293 6 7l4 12 4.5 4.5c4.942-2.471.881-10.738-.5-13.5v-11c-1.14-2.28-10.344-2.5-13-2.5ZM271 191c0 1.32-6.864 1.229-8 3.5l1 7c-1.689 3.377-6.365 13.567-.5 16.5 2.918 1.459 4.849-10.197 5.5-11.5 2.937-5.874 14.686-15.5 2-15.5Z"/><path fill="#CAC8C7" id="lot" d="M179 242h1c1.879 0-8.109-10.718-9-12.5-1.635-3.27-16.729-24.5-19-24.5l-3 4c0 4.131 6.236 6.972 8 10.5 3.053 6.105 13.321 22.5 22 22.5ZM276 242h2c6.485 0 20.403-19.306 23-24.5 1.45-2.9 6-3.974 6-7.5 0-2.364-3-3.053-3-5l-7 7.5c-2.955 5.91-21 25.032-21 29.5Z"/><path fill="#62CF9E" id="TTv" d="M222 237c0 6.656-7.348 15.924-13.5 19-2.168 1.084-15.5-4.341-15.5-6 0-6.401 10.125-21 17-21 0 2.596 12 3.386 12 8ZM235 238c0 5.025 9.166 21.667 16.5 18l11.5-5c0-7.684-8.997-22-17-22l-12 7v1l1 1Z"/><path fill="#99D2BD" id="OLF" d="m234 237 1 1-1-1ZM180 242v1l-1-1h1ZM278 242l-2 1v-1h2Z"/></svg>