<svg xmlns="http://www.w3.org/2000/svg" viewBox="0 0 456 320"><path fill="#99D2BD" id="OLF" d="m219 121-1 2-7.5-9c-6.635-3.317-14.461-3-22.5-3 0-1.763 8.343-1 10-1 6.362 0 21 3.699 21 11ZM238 121h1l8.5-8c5.626-2.813 13.74-2 20.5-2 0-1.763-8.343-1-10-1-6.813 0-20 2.526-20 11Z"/><path fill="#9AD1BD" id="MOB" fill-rule="evenodd" d="M174 199c0 5.524-.75 11.999 2 17.5.891 1.782 4.247 5.505 6 2 1.18-2.361-3.951-9.902-5-12v-4l-3-3.5m14-1-1 3c0 11.559 7.935-3 1-3m6 51h1c13.472 0 19.079-14.658 24-24.5v-5c5.978-11.956 4-30.216 4-44.5 0-5.08 1.149-12.203-1-16.5v-22c-1.369-2.738-4-10.681-4-13.5l-7.5-9c-6.635-3.317-14.461-3-22.5-3-13.038 0-39 11.347-39 27l-1 1v1l-1 2v6c0 1.235.643 5-1 5v2c1.643 0 1 3.765 1 5v5l1 2v2l1 2v3l1 2v1l1 2v2l1 2v1l1 2v2l1 1v2l1 1v2l1 1v1l1 1v3l1 1v1l1 1v2l1 1v1l1 1v2l1 1c1.544 0 5.1 11.7 6 13.5 4.363 8.726 13.436 23.5 25 23.5l1 1m-2-108 1.5-2c1.863-.932 1.993 4.514 1.5 5.5l-2 2.5c0 15.594-14.215 21.071-20 9.5-3.246-6.493-5-11.559-5-18.5-4.525 0-2.359-3-1-3 0-4.269 4.578-2 6-2 0-6.652 9.63-8.435 14.5-6 4.852 2.426 4.5 9.301 4.5 14ZM281 199c0 4.203-8.777 18.861-4.5 21l3.5-2.5c1.192-2.384 6.011-18.5 1-18.5m-14-1-1 3c0 11.915 8.165-3 1-3m-6 51h2l1-1h1l1-1c10.076 0 29-29.626 29-38l1-1v-1l1-1v-2l1-1v-1l1-1v-2l1-2v-1l1-1v-2l1-1v-1l1-2v-2l1-2v-1l1-1v-3l1-1v-2l1-1v-3l1-2v-2l1-2v-4l1-2v-14c-1.473 0-1-1.952-1-3v-4l-1-1c0-15.347-25.66-28-40-28-6.76 0-14.874-.813-20.5 2l-8.5 8-4 11.5-1 24c0 16.771-4.153 46.694 3 61 1.678 3.356.298 8.595 2 12 4.072 8.144 11.753 19.5 22 19.5m17-88-1 1c-10.377 0-14-4.606-14-15 0-.684-4.478-8-.5-8l2.5 2c0-4.717-1.87-10.815 4.5-14 4.875-2.437 13.5-.657 13.5 6 2.024 0 6-2.246 6 2 4.772 0 0 6.331 0 3h-1c0 5.503-2.163 23-10 23Z"/><path fill="#C7CBCA" id="onl" d="M227 209c0 13.219 2.085 41.33-3 51.5l-4.5 1.5c-14.359 0-5.65-3.325-15-8-1.637-.819-9.5-2.844-9.5-5 13.472 0 19.079-14.658 24-24.5v-5c5.978-11.956 4-30.216 4-44.5 0-5.08 1.149-12.203-1-16.5v-22c-1.369-2.738-4-10.681-4-13.5l1-2c0 .427 4.428 11.357 5 12.5 3.077 6.154 3 28.094 3 36.5 0 1.741-.773 11 1 11v22c-1.684 0-1 4.679-1 6ZM239 121l-4 11.5-1 24c0 16.771-4.153 46.694 3 61 1.678 3.356.298 8.595 2 12 4.072 8.144 11.753 19.5 22 19.5 0 2.93-7.629 4.065-9.5 5-8.728 4.364-.524 8-13.5 8-3.47 0-5.525-1.551-7-4.5-3.397-6.794-1-20.552-1-28.5 0-17.836-1-37.021-1-55.5 0-7.935-1.326-18.348 2-25 1.905-3.81 1.156-27.5 7-27.5h1Z"/><path fill="#9DEFD2" id="AOBmi" d="M173 133c0 4.199 3.124 12.312 6.5 14 3.731 1.866 12.5-.742 12.5-6 0-4.699.352-11.574-4.5-14-4.87-2.435-14.5-.652-14.5 6ZM283 133c0 4.451-2.101 11.8-6.5 14-3.577 1.789-11.5-.754-11.5-6 0-4.717-1.87-10.815 4.5-14 4.875-2.437 13.5-.657 13.5 6Z"/><path fill="#CACAC9" id="lotd" d="m192 141 1.5-2c1.863-.932 1.993 4.514 1.5 5.5l-2 2.5c-3.905 0-6.657 7.921-12.5 5-3.433-1.717-12.34-14-12.5-14l-1-3c0-4.269 4.578-2 6-2 0 4.199 3.124 12.312 6.5 14 3.731 1.866 12.5-.742 12.5-6ZM265 141l-2.5-2c-3.978 0 .5 7.316.5 8 2.786 0 7.723 7.888 13.5 5 3.675-1.837 6.576-5.652 8.5-9.5.592-1.185 1.012-4.5 3-4.5h1v-3c0-4.246-3.976-2-6-2 0 4.451-2.101 11.8-6.5 14-3.577 1.789-11.5-.754-11.5-6Z"/><path fill="#CAC8C7" id="lot" d="M167 135c-1.359 0-3.525 3 1 3l-1-3ZM289 135c4.772 0 0 6.331 0 3v-3Z"/><path fill="#99D2BD" id="OLF" d="m149 138-1 1 1-1Z"/><path fill="#95E4C8" id="AOBgr" d="M168 138c.16 0 9.067 12.283 12.5 14 5.843 2.921 8.595-5 12.5-5 0 15.594-14.215 21.071-20 9.5-3.246-6.493-5-11.559-5-18.5ZM278 161l-1 1c-10.377 0-14-4.606-14-15 2.786 0 7.723 7.888 13.5 5 3.675-1.837 6.576-5.652 8.5-9.5.592-1.185 1.012-4.5 3-4.5 0 5.503-2.163 23-10 23Z"/><path fill="#99D2BD" id="OLF" d="m308 139 1 1-1-1ZM148 140l-1 2 1-2ZM309 144c1.473 0 1 1.952 1 3-1.473 0-1-1.952-1-3ZM147 148c-1.643 0-1 3.765-1 5 1.643 0 1-3.765 1-5ZM310 153c1.399 0 1.399 2 0 2v-2ZM146 155c1.643 0 1 3.765 1 5-1.643 0-1-3.765-1-5Z"/><path fill="#CBCBC7" id="aco" d="m278 161-1 1 1-1Z"/><path fill="#99D2BD" id="OLF" d="m310 161-1 2 1-2ZM147 165l1 2-1-2ZM309 167l-1 2 1-2ZM148 169l1 2-1-2ZM227 170c1.773 0 1 9.259 1 11-1.773 0-1-9.259-1-11ZM308 171l-1 2 1-2ZM149 174l1 2-1-2ZM307 176l-1 1 1-1ZM150 177l1 2-1-2ZM306 179l-1 1 1-1ZM151 181l1 2-1-2ZM305 183l-1 1 1-1ZM152 184l1 2-1-2ZM304 185l-1 2 1-2ZM153 188l1 1-1-1ZM303 189l-1 2 1-2ZM154 191l1 1-1-1ZM302 192l-1 1 1-1ZM155 194l1 1-1-1ZM301 195l-1 1 1-1ZM156 196l1 1-1-1ZM300 197l-1 2 1-2Z"/><path fill="#CBCBC7" id="aco" d="m188 198-1 3c0 11.559 7.935-3 1-3ZM267 198l-1 3c0 11.915 8.165-3 1-3Z"/><path fill="#CAC8C7" id="lot" d="M174 199c0 5.524-.75 11.999 2 17.5.891 1.782 4.247 5.505 6 2 1.18-2.361-3.951-9.902-5-12v-4l-3-3.5ZM281 199c0 4.203-8.777 18.861-4.5 21l3.5-2.5c1.192-2.384 6.011-18.5 1-18.5Z"/><path fill="#99D2BD" id="OLF" d="m157 200 1 1-1-1ZM299 201l-1 1 1-1ZM158 202l1 1-1-1ZM228 203c-1.684 0-1 4.679-1 6 1.684 0 1-4.679 1-6ZM298 203l-1 1 1-1ZM159 205l1 1-1-1ZM297 206l-1 1 1-1ZM160 207l1 1-1-1ZM296 208l-1 1 1-1ZM161 210l1 1-1-1Z"/><path fill="#C7CBCA" id="onl" d="m266 247-1 1 1-1ZM193 248l1 1-1-1ZM264 248l-1 1 1-1Z"/></svg>