<svg xmlns="http://www.w3.org/2000/svg" viewBox="0 0 456 320"><path fill="#1E9D5A" id="MOp1" d="M196 31h1v-6c-9.938 0-20.264 3-30 3l-2 6c10.442 0 20.054-3 31-3Z"/><path fill="#1E9C59" id="MOs1" d="M222 44h1l4-2c0-10.25-22.371-17-30-17v6c8.242 0 25 1.659 25 13ZM229 42l5 2c0-10.342 17.993-13 26-13 0-1.564-1-3.876-1-6-11.583 0-18.232 4.732-26 12.5l-4 4.5Z"/><path fill="#1E9D5A" id="MOp1" d="M260 31c10.978 0 20.671 3 31 3 0-3.334-2-3.56-2-6 0-1.725-6.052-1-7.5-1L259 25c0 2.124 1 4.436 1 6Z"/><path fill="#187F60" id="SSp-ll1" d="M137 36c0 2.364 3 3.053 3 5 5.523 0 17.343-7 25-7l2-6c-7.734 0-17.908 2.704-24.5 6-.984.492-5.5.85-5.5 2ZM316 41h1c0-2.25 2-3.376 2-5 0-1.15-4.516-1.508-5.5-2-6.592-3.296-16.766-6-24.5-6 0 2.44 2 2.666 2 6 7.657 0 19.477 7 25 7Z"/><path fill="#1F9C58" id="MOp2/3" d="m163 49-1 6c7.733 0 22.346-14 32-14h1l1-10c-10.946 0-20.558 3-31 3 0 5.528-2 9.922-2 15Z"/><path fill="#1E9D58" id="MOs2/3" d="m222 44-6 4c0-8.234-14.684-7-21-7l1-10h1c8.242 0 25 1.659 25 13ZM240 48h1c0-9.058 15.118-7 21-7l-2-10c-8.007 0-26 2.658-26 13v1l6 3Z"/><path fill="#1F9C58" id="MOp2/3" d="M293 49c0 2.079 1 3.187 1 6-6.945 0-22.217-14-31-14h-1l-2-10c10.978 0 20.671 3 31 3l2 15Z"/><path fill="#187F64" id="SSp-ll2/3" d="M146 54h1c0-1.952 2.454-.477 3.5-1l12.5-4c0-5.078 2-9.472 2-15-7.657 0-19.477 7-25 7 0 3.935 6 8.98 6 13ZM293 49c5.771 0 10.816 4 17 4l6-12c-5.523 0-17.343-7-25-7l2 15Z"/><path fill="#197E64" id="SSp-ul1" d="m107 50 2 5c7.702 0 21.711-14 31-14 0-1.947-3-2.636-3-5-7.364 0-16.146 6.823-22.5 10l-7.5 4ZM347 55h1l1-5c0-2.02-4.938-2.438-6-3.5-2.84-2.84-19.978-10.5-24-10.5 0 1.624-2 2.75-2 5 9.363 0 21.719 14 30 14Z"/><path fill="#197F61" id="SSp-ul2/3" d="m109 56 2 1.5c0 .953.487 10.5 3 10.5 6.882 0 22.757-14 32-14 0-4.02-6-9.065-6-13-9.289 0-23.298 14-31 14v1Z"/><path fill="#1E9C5A" id="MOp5" d="M189 58c-6.571 0-18.638 13-28 13l1-16c7.733 0 22.346-14 32-14l-4 16-1 1Z"/><path fill="#1F9D58" id="MOs5" d="m190 57 11.5-1 3.5 2c4.081 0 6.44-9 11-9v-1c0-8.234-14.684-7-21-7h-1l-4 16ZM251 59h1c0-5.44 12.473-2 15-2 0-5.084-4-10.306-4-16h-1c-5.882 0-21-2.058-21 7 0 4.255 10 6.29 10 11Z"/><path fill="#1E9C5A" id="MOp5" d="M267 58c8.265 0 19.785 14 29 14 0-4.59-1-12.161-1-17h-1c-6.945 0-22.217-14-31-14 0 5.694 4 10.916 4 16v1Z"/><path fill="#197F61" id="SSp-ul2/3" d="M347 55c0 4.574-4 8.47-4 13-9.44 0-22.407-14-33-14v-1l6-12h1c9.363 0 21.719 14 30 14Z"/><path fill="#3EA665" id="ACAd1" d="M223 67h10c0-7.233 1-15.443 1-22v-1l-5-2c0 1.93-1.161 0-2 0l-4 2v23Z"/><path fill="#40A565" id="ACAd2/3" d="m223 68-5 1-1-15c0-1.234.643-5-1-5v-1l6-4h1v24ZM233 67l6 2c0-6.903 1-14.772 1-21l-6-3c0 6.557-1 14.767-1 22Z"/><path fill="#3EA566" id="ACAd5" d="M239 69c3.918 0 7.759 6 11 6l1-16c0-4.71-10-6.745-10-11h-1c0 6.228-1 14.097-1 21Z"/><path fill="#1C7F64" id="SSp-ll4" d="m162 55-13 6-2-7c0-1.952 2.454-.477 3.5-1l12.5-4-1 6Z"/><path fill="#3EA566" id="ACAd5" d="m218 69-11 5c0-4.422-2-10.463-2-15v-1c4.081 0 6.44-9 11-9 1.643 0 1 3.766 1 5l1 15Z"/><path fill="#1C7F64" id="SSp-ll4" d="M307 61h1l2-7v-1c-6.184 0-11.229-4-17-4 0 2.079 1 3.187 1 6h1l12 6Z"/><path fill="#1B8062" id="SSp-un1" d="M94 65h1c0-2.317 11.742-9 14-9v-1l-2-5c-1.626 0-16 9.322-16 10 0 1.947 3 2.636 3 5ZM366 60l-4 4c-1.792 0-14-7.49-14-9l1-5c3.926 0 10.014 5.257 13.5 7l3.5 3Z"/><path fill="#1A7F63" id="SSp-ul4" d="m114 69 3 7 32-15-2-7h-1c-9.243 0-25.118 14-32 14v1ZM343 69c-2.985 0-.619 7-4 7l-31-15 2-7c10.593 0 23.56 14 33 14v1Z"/><path fill="#197C63" id="SSp-ll5" d="m161 72-8 2c0-4.205-4-8.173-4-13l13-6-1 16v1ZM296 72l7 2c1.54 0 4-11.036 4-13l-12-6c0 4.839 1 12.41 1 17Z"/><path fill="#1C7F63" id="SSp-un2/3" d="M354 75h1c0-2.266 5.365-10 7-10v-1c-1.792 0-14-7.49-14-9h-1c0 4.574-4 8.47-4 13v1c1.452 0 11 4.937 11 6ZM102 75h1c0-1.823 9.17-6 11-6v-1c-2.513 0-3-9.547-3-10.5l-2-1.5c-2.258 0-14 6.683-14 9 0 3.455 7 6.777 7 10Z"/><path fill="#1D9C5A" id="MOs6a" d="M187 79h3c0-1.58 2.855-1 4-1 0-2.873 8.04-19 11-19v-1l-3.5-2-11.5 1-1 1c0 6.544-2 13.542-2 21ZM263 78l6 1c0-3.599 1.98-10.54 0-14.5l-2-6.5v-1c-2.527 0-15-3.44-15 2 0 3.168 11 13.496 11 19Z"/><path fill="#1F9D58" id="MOs5" d="m190 57-1 1 1-1Z"/><path fill="#1F9B5A" id="MOp6a" d="M169 87c-3.455 0-5.917 3-9 3 0-6.568 1-12.805 1-18v-1c9.362 0 21.429-13 28-13 0 6.544-2 13.542-2 21v1l-2 1c-1.761 0-10 2.307-10 4-1.623 0-6 .005-6 2ZM269 80c7.368 0 20.536 10 27 10V72c-9.215 0-20.735-14-29-14l2 6.5c1.98 3.96 0 10.901 0 14.5v1Z"/><path fill="#3FA664" id="ACAd6a" d="m194 78 4 4c3.978 0 4.851-7 9-7v-1c0-4.422-2-10.463-2-15-2.96 0-11 16.127-11 19ZM263 78c-2.813 0-3.461 4-5 4l-8-7 1-16h1c0 3.168 11 13.496 11 19Z"/><path fill="#197E63" id="SSp-n1" d="M49 113c2.72 0 3.553 2 6 2 0-9.332 19.2-37.35 28.5-42 3.4-1.7 6.568-8 10.5-8 0-2.364-3-3.053-3-5-3.954 0-6.168 5.334-9.5 7-9.847 4.923-32.5 36.353-32.5 46ZM401 115h1c1.624 0 2.75-2 5-2 0-10.647-22.179-40.34-29.5-44-3.865-1.933-7.716-9-11.5-9l-4 4v1c4.253 0 5.964 5.232 9.5 7 10.608 5.304 29.5 32.442 29.5 43Z"/><path fill="#187E62" id="SSp-ul5" d="M117 77c0 1.437 3.489 10 5 10 5.957 0 22.446-12 31-12v-1c0-4.205-4-8.173-4-13l-32 15v1ZM334 88h1l4-11v-1l-31-15h-1c0 1.964-2.46 13-4 13v1c7.523 0 17.974 5.737 24.5 9 1.28.64 6.5 2.385 6.5 4Z"/><path fill="#1B7F64" id="SSp-n2/3" d="m55 116 8 5 6-12.5C74.665 97.17 86.189 75 102 75c0-3.223-7-6.545-7-10h-1c-3.932 0-7.1 6.3-10.5 8-9.3 4.65-28.5 32.668-28.5 42v1ZM393 121h1l7-6c0-10.558-18.892-37.696-29.5-43-3.536-1.768-5.247-7-9.5-7-1.635 0-7 7.734-7 10 13.469 0 38 33.693 38 46Z"/><path fill="#40A664" id="ACAv1" d="m229 92 5 6c0-9.935-1-20.513-1-31h-10v1c0 10.42-1 21.17-1 31l5-7c0-4.252 2-4.466 2 0Z"/><path fill="#3FA566" id="ACAv2/3" d="M235 100c0 1.473 1.952 1 3 1l1-32-6-2c0 10.487 1 21.065 1 31l1 2ZM222 100l-4 1V69l5-1c0 10.42-1 21.17-1 31v1Z"/><path fill="#197E61" id="SSp-un4" d="m117 77-10 5c-1.429 0-4-5.478-4-7 0-1.823 9.17-6 11-6l3 7v1Z"/><path fill="#3EA666" id="ACAv5" d="M210 99c2.709 0 4.646 2 8 2V69l-11 5v1c0 8.304 3 15.666 3 23v1ZM246 99c-2.709 0-4.646 2-8 2l1-32c3.918 0 7.759 6 11 6 0 7.707-3 15.406-3 23l-1 1Z"/><path fill="#197E61" id="SSp-un4" d="M339 77c4.462 0 7.233 5 11 5 0-2.46 4-4.17 4-7 0-1.063-9.548-6-11-6-2.985 0-.619 7-4 7v1Z"/><path fill="#1A7F64" id="SSp-ll6a" d="M158 91h2v-1c0-6.568 1-12.805 1-18l-8 2v1c0 2.691 4.868 16 5 16ZM298 91h1c0-5.578 4-10.281 4-16v-1l-7-2v18l2 1Z"/><path fill="#1A8062" id="SSp-n4" d="m63 122 6 3c0-2.945 4.648-7.797 6-10.5 4.348-8.696 21.614-31.5 32-31.5v-1c-1.429 0-4-5.478-4-7h-1c-15.811 0-27.335 22.17-33 33.5L63 121v1Z"/><path fill="#197D61" id="SSp-ul6a" d="m135 101-7 2c0-5.027-6-9.607-6-15v-1c5.957 0 22.446-12 31-12 0 2.691 4.868 16 5 16v1l-1 1c-1.623 0-6 .005-6 2-1.357 0-6 .647-6 2-1.761 0-10 2.307-10 4Z"/><path fill="#40A564" id="ACAv6a" d="m208 97 2 1c0-7.334-3-14.696-3-23-4.149 0-5.022 7-9 7v1l2 2.5c1.444 2.888 8 9.055 8 11.5ZM249 96l-2 2c0-7.594 3-15.293 3-23l8 7v1l-3 7-6 6Z"/><path fill="#197D61" id="SSp-ul6a" d="M299 91c0 2.378 5.072 2.286 6.5 3l22.5 9c1.6 0 6-12.834 6-15 0-1.615-5.22-3.36-6.5-4-6.526-3.263-16.977-9-24.5-9 0 5.719-4 10.422-4 16Z"/><path fill="#1A8062" id="SSp-n4" d="M387 126h1l5-5c0-12.307-24.531-46-38-46h-1c0 2.83-4 4.54-4 7v1c3.812 0 6.281 4.39 9.5 6 8.545 4.272 27.5 28.231 27.5 37Z"/><path fill="#197D62" id="SSp-un5" d="M112 93h1c0-1.197 7.528-5 9-5v-1c-1.511 0-5-8.563-5-10l-10 5v1l5 10ZM344 93h1l5-10v-1c-3.767 0-6.538-5-11-5l-4 11 9 5Z"/><path fill="#1E9C58" id="MOs6b" d="M190 79h4v-1c-1.145 0-4-.58-4 1Z"/><path fill="#3FA466" id="ACAd6b" d="M197 83h1v-1l-4-4v1l3 4ZM258 83h1l4-4v-1c-2.813 0-3.461 4-5 4v1Z"/><path fill="#1E9C58" id="MOs6b" d="M269 80v1c-1.974 0-3.517-2-6-2v-1l6 1v1ZM187 80v1c1.238 0 3-.423 3-2h-3v1Z"/><path fill="#CACCC7" id="cing" d="M210 98v1c-8.735 0-14.233-10.367-21.5-14-4.744-2.372-12.844 5-17.5 5l-1 1h-7c0-2.517 6-.996 6-4 1.623 0 6-.005 6-2 2.161 0 10-1.729 10-4h2c1.238 0 3-.423 3-2h4l3 4c0 3.326 7.086 14 11 14l2 1ZM247 98v1c9.415 0 12.993-10.247 20.5-14 4.829-2.415 12.899 5 17.5 5l1 1h7c0-2.203-4.189-2.344-5.5-3-3.192-1.596-15.454-7-18.5-7-1.974 0-3.517-2-6-2l-4 4c0 1.572-2.052 7-4 7 0 2.473-3.527 6-6 6l-2 2Z"/><path fill="#1D9D5A" id="MOp6b" d="M185 81h2v-1l-2 1ZM293 91l4 1-1-2c-6.464 0-19.632-10-27-10v1c3.046 0 15.308 5.404 18.5 7 1.311.656 5.5.797 5.5 3ZM185 81c-1.761 0-10 2.307-10 4 2.161 0 10-1.729 10-4Z"/><path fill="#197E62" id="SSp-n5" d="M80 127h1c0-12.583 15.451-24.976 25.5-30l5.5-4-5-10c-10.386 0-27.652 22.804-32 31.5-1.352 2.703-6 7.555-6 10.5v2c1.624 0 2.75 2 5 2 4.092 0 1.167-2 6-2Z"/><path fill="#40A465" id="ACAv6b" d="m198 83 2 2.5c1.444 2.888 8 9.055 8 11.5-3.914 0-11-10.674-11-14h1ZM259 83c0 1.572-2.052 7-4 7l3-7h1Z"/><path fill="#197E62" id="SSp-n5" d="M376 127c3.769 0 3.631 2 7 2 1.429 0 4-1.288 4-3 0-8.769-18.955-32.728-27.5-37-3.219-1.61-5.688-6-9.5-6l-5 10 8.5 6c8.024 4.012 22.5 18.641 22.5 28Z"/><path fill="#1D9D5A" id="MOp6b" d="M175 85c-1.623 0-6 .005-6 2 1.623 0 6-.005 6-2Z"/><path fill="#C9C7C9" id="ccb" d="M89 155v3c2.295 0 3.263-6.025 4-7.5 4.32-8.639 11.97-15.94 16-24l6.5-5.5c4.608-2.304 7.469-7.734 12-10 12.667-6.334 24.017-8 39.5-8 0-6.586 15.072-10.714 20.5-8l10 6c1.408.704 5.5 1.583 5.5 4 7.182 0 12.448 4 19 4l3 1c0-1.473 1.952-1 3-1h1l2 1 4-1c6.065 0 11.262-4 18-4l1-1 1-1h1l1-1 2-1 2-1 1-1h1c0-1.577 1.762-2 3-2 0-2.388 5.661-2 7.5-2 5.474 0 15.5 1.273 15.5 8 22.152 0 27.372 2.936 45.5 12l18 18c2.396 1.198 10.909 17.317 12.5 20.5.695 1.39 2.272 8.5 4 8.5l-2-8-1-1v-1l-1-2v-1c-.731 0-7.07-12.64-8-14.5-3.875-7.75-17.038-21.769-24.5-25.5-11.583-5.791-24.428-8.214-36-14-1.568-.784-9.5-1.924-9.5-4h-1l-1-1c-4.601 0-12.671-7.415-17.5-5-7.507 3.753-11.085 14-20.5 14h-1c-2.709 0-4.646 2-8 2-1.048 0-3 .473-3-1-1.557 0-13 2.229-13 0l-4 1c-3.354 0-5.291-2-8-2-8.735 0-14.233-10.367-21.5-14-4.744-2.372-12.844 5-17.5 5l-1 1h-1c0 2.155-6.965 3.233-8.5 4-10.469 5.235-22.585 6.793-33 12-9.505 4.753-16.416 14.416-24 22-1.502 1.502-4.359 9-6.5 9 0 1.465.109 4-2 4l-2 4c0 1.465.109 4-2 4v1l-1 2v1l-1 1Z"/><path fill="#1D9D5A" id="MOp6b" d="m163 91-3 1v-2c3.083 0 5.545-3 9-3 0 3.004-6 1.483-6 4Z"/><path fill="#1A7F61" id="SSp-un6a" d="M119 108h1l3-1c0-1.803 3.592-3 5-3v-1c0-5.027-6-9.607-6-15-1.472 0-9 3.803-9 5 0 5.645 6 9.355 6 15ZM328 104l9 4c0-5.268 7-10.046 7-15l-9-5h-1c0 2.166-4.4 15-6 15v1Z"/><path fill="#C9C9CA" id="scwm" d="m171 90-1 1 1-1Z"/><path fill="#40A465" id="ACAv6b" d="m255 90-6 6c2.473 0 6-3.527 6-6Z"/><path fill="#C9C9CA" id="scwm" d="m285 90 1 1-1-1Z"/><path fill="#197F62" id="SSp-ll6b" d="m297 92 1 1v-2l-2-1 1 2ZM159 92h1v-1h-2v1h1Z"/><path fill="#C9C9CA" id="scwm" d="M97 135v3c2.141 0 4.998-7.498 6.5-9 7.584-7.584 14.495-17.247 24-22 10.415-5.207 22.531-6.765 33-12 1.535-.767 8.5-1.845 8.5-4h-6l-3 1h-1l-2 1c0 1.995-4.377 2-6 2 0 2.698-4.255 2-6 2 0 2.271-7.839 4-10 4l-7 4-5 2c0 1.577-1.762 2-3 2 0 2.158-7.062 8-9 8l-1 2-13 16ZM363 143l2 6c-.731 0-7.07-12.64-8-14.5-3.875-7.75-17.038-21.769-24.5-25.5-11.583-5.791-24.428-8.214-36-14-1.568-.784-9.5-1.924-9.5-4h6l4 1 1 1c6.872 0 24.848 12 30 12l8 4 3 2.5c.794 1.588 5.801 7.5 8 7.5 0 3.804 7.984 8.468 10 12.5l6 11.5Z"/><path fill="#1C8064" id="SSp-ul6b" d="M328 104v1c-5.152 0-23.128-12-30-12v-2h1c0 2.378 5.072 2.286 6.5 3l22.5 9v1ZM159 92l-2 1 1-1h1Z"/><path fill="#7ED04B" id="IG" d="M222 100c0 2.229 11.443 0 13 0l-1-2-5-6c0 1.93-1.161 0-2 0l-5 7v1Z"/><path fill="#187D62" id="SSp-n6a" d="M108 119h1l2-2 8-9c0-5.645-6-9.355-6-15h-1l-5.5 4C96.451 102.024 81 114.417 81 127c6.602 0 16.962-8 27-8Z"/><path fill="#1C8064" id="SSp-ul6b" d="M157 93c-1.623 0-6 .005-6 2 1.623 0 6-.005 6-2Z"/><path fill="#187D62" id="SSp-n6a" d="M349 119c8.961 0 19.338 8 27 8 0-9.359-14.476-23.988-22.5-28l-8.5-6h-1c0 4.954-7 9.732-7 15v1c2.653 0 10 8.147 10 10h2Z"/><path fill="#1C8064" id="SSp-ul6b" d="M151 95c-1.357 0-6 .647-6 2 1.745 0 6 .698 6-2Z"/><path fill="#AAA8A9" id="SEZ" d="M170 105c0-8.294 13.229-11.135 19.5-8l13.5 8c0-2.417-4.092-3.296-5.5-4l-10-6c-5.428-2.714-20.5 1.414-20.5 8l3 2ZM289 103l-2 1c0-9.227-14.542-7-21-7 0-2.388 5.661-2 7.5-2 5.474 0 15.5 1.273 15.5 8Z"/><path fill="#A8AAAA" id="VL" d="M193 167v6c-5.35 0-9-9.881-9-14 2.431 0 3.543 10 7.5 10 1.269 0-4.981-9.461-5.5-10.5-3.573-7.147 8.977-29.761 3.5-32.5l-3 3c-1.668 1.668-1.914 14-3.5 14 0-12.507-2.88-18.261-8-28.5l-5-9.5c0-8.294 13.229-11.135 19.5-8l13.5 8c0 8.43-10 16.488-10 27-1.274 0-2 7.483-2 9 0 4.622-3.441 14.618-1 19.5l3 6.5ZM273 153v-11.5c0-1.684-3.751-22.497-8-14-2.535 5.07 9.105 21.79 5 30-1.01 2.021-2.497 9.5-6 9.5 0-2.854 1.822-4.145 3-6.5 2.354-4.708-1-14.017-1-18.5l-2-8c0-11.066-11-22.446-11-29l1-1 1-1h1l1-1 2-1 2-1 1-1h1c1.238 0 3-.423 3-2 6.458 0 21-2.227 21 7l-1 1c0 3.394-7.28 12.06-9 15.5-3.81 7.619-3 17.302-3 26.5 0 1.321.684 6-1 6Z"/><path fill="#1C8064" id="SSp-ul6b" d="M145 97c-1.761 0-10 2.307-10 4 2.161 0 10-1.729 10-4Z"/><path fill="#AAA8A9" id="SEZ" d="M266 97c-1.238 0-3 .423-3 2 1.238 0 3-.423 3-2Z"/><path fill="#40A564" id="ACAv6a" d="M246 99h1v-1l-1 1Z"/><path fill="#AAA8A9" id="SEZ" d="m262 99-1 1 1-1ZM261 100l-2 1 2-1Z"/><path fill="#1C8064" id="SSp-ul6b" d="M128 104v1l7-4-7 2v1Z"/><path fill="#AAA8A9" id="SEZ" d="m259 101-2 1 2-1ZM257 102l-1 1 1-1Z"/><path fill="#98D5F9" id="CP" d="M136 227c-6.011 0-12.524 8-21 8-8.144 0-15.707-13-18-13v-1l-2-3v-1l-1-1v-1l-1-1v-2l-1-1v-1l-1-1v-1c0-1.424-.362-5-2-5v-2l-2-4v-1c0-6.149-3-12.017-3-19v-5l1-1v-3l1-1v-1l1-2v-1l1-2c1.473 0 1-1.952 1-3 2.295 0 3.263-6.025 4-7.5 4.32-8.639 11.97-15.94 16-24l6.5-5.5c4.608-2.304 7.469-7.734 12-10 12.667-6.334 24.017-8 39.5-8l3 2 5 9.5c5.12 10.239 8 15.993 8 28.5v2l-1 2-5.5 8c-4.136 2.068-8.124 1.748-10.5 6.5-1.339 2.679-.105 10.79 1 13 .523 1.046-.951 3.5 1 3.5l2 12.5c-1.145 2.29-2.882 1.691-4.5 2.5-3.5 1.75-5.5 12.724-5.5 16l-1 1v1l-1 1-1 1-1 1-1 1c-2.243 0-12.757 6.257-15 8.5l-4 3.5Z"/><path fill="#AAA8A9" id="SEZ" d="m255 103-1 1 1-1Z"/><path fill="#98D5F9" id="CP" d="M352 231c-3.657 0-5.884 4-10 4-13.392 0-23.395-10.447-34.5-16-2.211-1.105-10.319-9-10.5-9 0-3.08-3.281-15.391-6.5-17-1.318-.659-2.54.419-3.5-1.5l1-12.5c2.652 0 1.119-8.737 2-10.5 4.328-8.656-5.093-10.796-10.5-13.5l-5.5-8c0-9.198-.81-18.881 3-26.5 1.72-3.44 9-12.106 9-15.5l1-1 2-1c22.152 0 27.372 2.936 45.5 12l18 18c2.396 1.198 10.909 17.317 12.5 20.5.695 1.39 2.272 8.5 4 8.5v1l2 4 1 6 1 2v6c-1.341 0-2 9.28-2 11-1.638 0-2 3.576-2 5v1l-1 2c-1.473 0-1 1.952-1 3v1c-1.473 0-1 1.952-1 3l-1 2v1l-1 1-1 2v2l-1 1v1l-1 1v1c-1.577 0-2 1.762-2 3v1l-1 1-1 1c-1.577 0-2 1.762-2 3l-1 1-1 1-1 1Z"/><path fill="#1A7D63" id="SSp-un6b" d="m128 105-5 2c0-1.803 3.592-3 5-3v1Z"/><path fill="#AAA8A9" id="SEZ" d="m254 104-1 1 1-1ZM287 104l-1 1 1-1Z"/><path fill="#1A7D63" id="SSp-un6b" d="M336 109h1v-1l-9-4v1l8 4Z"/><path fill="#90CBEC" id="LSc" d="M193 132c0 1.048-.473 3 1 3 5.695 0 29-17.855 29-24l-1-2c-6.552 0-11.818-4-19-4 0 8.43-10 16.488-10 27ZM264 134l-2 1c-5.83 0-28-17.559-28-24l1-2c6.065 0 11.262-4 18-4 0 6.554 11 17.934 11 29Z"/><path fill="#1A7D63" id="SSp-un6b" d="M120 108v1c1.238 0 3-.423 3-2l-3 1Z"/><path fill="#1B7E64" id="SSp-n6b" d="M120 109c0 2.158-7.062 8-9 8l8-9h1v1Z"/><path fill="#97D6F9" id="STR" d="M223 111h2v-1l-3-1 1 2Z"/><path fill="#CBC8CC" id="df" d="M225 111h1c1.747 0 2-.253 2-2-1.048 0-3-.473-3 1v1Z"/><path fill="#97D6F9" id="STR" d="m229 112-2 1-1-2c1.747 0 2-.253 2-2h1l1 2-1 1Z"/><path fill="#CBC8CC" id="df" d="M230 111h1v-1l-2-1 1 2Z"/><path fill="#97D6F9" id="STR" d="M231 111h3l1-2-4 1v1Z"/><path fill="#1B7E64" id="SSp-n6b" d="M337 109c2.653 0 10 8.147 10 10-2.199 0-7.206-5.912-8-7.5l-3-2.5h1Z"/><path fill="#90CAED" id="LSr" d="m201 138-8 3c0-2.486 1-3.725 1-6 5.695 0 29-17.855 29-24h3l1 2c0 6.62-16 19.746-16 20-3.681 0-5.758 4-9 4l-1 1ZM255 138l8 3c0-3.329-1-4.97-1-6-5.83 0-28-17.559-28-24h-4l-1 1c0 5.981 7.823 12.146 10 16.5l6 4.5c2.108 0 10 2.78 10 5Z"/><path fill="#8FCBEC" id="SF" d="M195 168c0-5.456 8.031-11.562 10-15.5 3.878-7.756 17.938-24.281 27.5-19.5 4.165 2.082 5.72 6.36 9 8 3.197 1.598 7.448 6.396 9.5 10.5 2.918 5.836 10 10.529 10 17.5l3-2c0-2.854 1.822-4.145 3-6.5 2.354-4.708-1-14.017-1-18.5l-3-1-8-3 1 2.5c-1.813 3.625-11.306 2.388-13-1-.793-1.587-.141-6.5 2-6.5l-6-4.5c-2.177-4.354-10-10.519-10-16.5l-2 1c0 6.62-16 19.746-16 20 4.025 0 2.913 5.675 2 7.5-1.35 2.7-11.538 2.923-13 0l1-2.5-8 3h-2c0 4.622-3.441 14.618-1 19.5l3 6.5 2 1Z"/><path fill="#1A7E62" id="SSs1" d="M37 176h5c0-15.643.486-32.473 7-45.5 1.04-2.081 3.579-14.5 6-14.5v-1c-2.447 0-3.28-2-6-2l-8 21.5c-4.73 9.461-4 29.754-4 41.5ZM415 176h4c0-7.405.465-31.57-2-36.5-1.383-2.766-10-24.75-10-26.5-2.25 0-3.376 2-5 2 0 5.356 4.667 12.834 7 17.5 4.953 9.906 6 31.43 6 43.5Z"/><path fill="#1B8063" id="SSs2/3" d="M407 176h8c0-12.07-1.047-33.594-6-43.5-2.333-4.666-7-12.144-7-17.5h-1l-7 6c0 5.532 4.553 14.605 7 19.5 3.697 7.393 6 26.542 6 35.5ZM42 176h8c0-9.479 1.154-26.807 5-34.5.827-1.655 8-19.018 8-19.5v-1l-8-5c-2.421 0-4.96 12.419-6 14.5-6.514 13.027-7 29.857-7 45.5Z"/><path fill="#1B7E64" id="SSp-n6b" d="M109 119h1l1-2-2 2Z"/><path fill="#187D61" id="SSp-m6a" d="M92 143h1c0-1.937 1.553-8 4-8 0-5.78 11-12.635 11-16-10.038 0-20.398 8-27 8h-1l-2 6c3.374 0 10.705 10 14 10Z"/><path fill="#188064" id="SSp-m6b" d="m110 119-13 16c0-5.78 11-12.635 11-16h2ZM363 143h1c0-7.848-15-19.026-15-24h-2c0 3.804 7.984 8.468 10 12.5l6 11.5Z"/><path fill="#187D61" id="SSp-m6a" d="M364 143h1l14-10v-1c-1.477 0-3-3.924-3-5-7.662 0-18.039-8-27-8 0 4.974 15 16.152 15 24Z"/><path fill="#187C63" id="SSs4" d="m401 175 6 1c0-8.958-2.303-28.107-6-35.5-2.447-4.895-7-13.968-7-19.5h-1l-5 5c0 4.889 4.859 11.217 7 15.5 3.845 7.691 6 24.149 6 33.5ZM55 175l-5 1c0-9.479 1.154-26.807 5-34.5.827-1.655 8-19.018 8-19.5l6 3v2c-2.253 0-4.115 8.73-5 10.5-5.275 10.549-9 24.994-9 37.5Z"/><path fill="#A9AAA8" id="chpl" d="M184 158v1c2.431 0 3.543 10 7.5 10 1.269 0-4.981-9.461-5.5-10.5-3.573-7.147 8.977-29.761 3.5-32.5l-3 3c-1.668 1.668-1.914 14-3.5 14v13l1 2ZM264 167v1c4.592 0 4.935-8 8-8l1-2v-16.5c0-1.684-3.751-22.497-8-14-2.535 5.07 9.105 21.79 5 30-1.01 2.021-2.497 9.5-6 9.5Z"/><path fill="#1C8063" id="SSs5" d="M401 175v1c-3.629 0-8.716-1-13-1 0-7.797-2.069-27.637-5-33.5l-4-8.5v-1l4-3c1.429 0 4-1.288 4-3h1c0 4.889 4.859 11.217 7 15.5 3.845 7.691 6 24.149 6 33.5ZM68 175c-4.414 0-9.177 1-13 1v-1c0-12.506 3.725-26.951 9-37.5.885-1.77 2.747-10.5 5-10.5 1.624 0 2.75 2 5 2l3 4c0 3.856-2.384 7.268-4 10.5-2.837 5.674-5 24.236-5 31.5Z"/><path fill="#1B7E63" id="SSp-m5" d="M77 133h1l2-6c-4.833 0-1.908 2-6 2l3 4ZM383 129l-4 3c-1.477 0-3-3.924-3-5 3.769 0 3.631 2 7 2Z"/><path fill="#97D6F9" id="STR" d="M191 141h2c0-2.486 1-3.725 1-6-1.473 0-1-1.952-1-3-1.274 0-2 7.483-2 9Z"/><path fill="#96A7D2" id="TRS" d="M242 178c1.564 0 3.876 1 6 1 2.72 0 3.553-2 6-2l7-8c0-6.971-7.082-11.664-10-17.5-2.052-4.104-6.303-8.902-9.5-10.5-3.28-1.64-4.835-5.918-9-8-9.562-4.781-23.622 11.744-27.5 19.5-1.969 3.938-10 10.044-10 15.5l8 9c1.974 0 3.517 2 6 2 2.124 0 4.436-1 6-1 0-16.636 27-16.017 27 0Z"/><path fill="#197D63" id="SSs6a" d="M82 175h1c0-6.513 3.271-20.042 6-25.5l3-6.5c-3.295 0-10.626-10-14-10h-1c0 3.856-2.384 7.268-4 10.5-2.837 5.674-5 24.236-5 31.5h14Z"/><path fill="#CBC8CB" id="fi" d="m202 137-1 1-1 2.5c1.462 2.923 11.65 2.7 13 0 .913-1.825 2.025-7.5-2-7.5-3.681 0-5.758 4-9 4ZM245 133c2.108 0 10 2.78 10 5l1 2.5c-1.813 3.625-11.306 2.388-13-1-.793-1.587-.141-6.5 2-6.5Z"/><path fill="#197D63" id="SSs6a" d="M374 175h14c0-7.797-2.069-27.637-5-33.5l-4-8.5-14 10c0 10.997 9 20.709 9 32Z"/><path fill="#97D6F9" id="STR" d="m263 141 3 1-2-8-2 1c0 1.03 1 2.671 1 6Z"/><path fill="#188064" id="SSp-m6b" d="m95 142-2 1c0-1.937 1.553-8 4-8v3c-2.109 0-2 2.535-2 4Z"/><path fill="#8FCBEC" id="SF" d="m202 137-1 1 1-1Z"/><path fill="#C9C9CA" id="scwm" d="M97 138c-2.109 0-2 2.535-2 4 2.109 0 2-2.535 2-4ZM93 143v3l2-4-2 1Z"/><path fill="#1A8061" id="SSs6b" d="m83 175 1 1v-4l1-1v-3l1-1v-1l1-2v-1l1-2c0-1.048-.473-3 1-3v-3l1-1v-1l1-2v-1l2-4v-3h-1l-3 6.5c-2.729 5.458-6 18.987-6 25.5ZM373 175h1c0-11.291-9-21.003-9-32h-2l2 6v1l1 2v1l1 1 2 8v1l2 4 1 6 1 2Z"/><path fill="#A8AAAA" id="VL" d="M182 147c0 1.145-.579 4 1 4v-6l-1 2Z"/><path fill="#C9C9CA" id="scwm" d="m93 146-2 4c2.109 0 2-2.535 2-4Z"/><path fill="#97D6F9" id="STR" d="m204 187-2 2c-.83 0-2.466-6.431-3-7.5-2.358-4.717-13.126-15.5-18-15.5h-1c0-1.186-1-1.186-1 0l-1 1h-3c-1.829 0-2.185-5.842-4.5-7-1.527-.764-2.5 2.964-2.5 4 0 5.385 2 10.45 2 15l-2-1c-1.951 0-.477-2.454-1-3.5-1.105-2.21-2.339-10.321-1-13 2.376-4.752 6.364-4.432 10.5-6.5l5.5-8c0 1.145-.579 4 1 4v5l1 2v1c0 4.119 3.65 14 9 14 0 3.333 7.493 4 10 4 1.974 0 3.517 2 6 2 0 1.714-2 3.482-2 6-2.215 0-1.519 2-3 2ZM287 179h1c2.652 0 1.119-8.737 2-10.5 4.328-8.656-5.093-10.796-10.5-13.5l-5.5-8c0 1.321.684 6-1 6v5l-1 2-2 8c.909 0 5-4.396 5-2h3l3 2 4.5-8c1.491-.745 3.5 3.089 3.5 4 0 5.65-2 9.704-2 15Z"/><path fill="#C9C9CA" id="scwm" d="m365 150 1 2-1-2ZM91 151l-1 2 1-2ZM366 153l1 1-1-1ZM90 154l-1 1 1-1Z"/><path fill="#A8AAAA" id="VL" d="m183 156 1 2-1-2Z"/><path fill="#C9C7C9" id="ccb" d="M89 158c-1.473 0-1 1.952-1 3 1.473 0 1-1.952 1-3Z"/><path fill="#A8AAAA" id="VL" d="m273 158-1 2 1-2Z"/><path fill="#CCC" d="m170 179 3 8.5c1.558 3.115 0 7.844 0 10.5 1.906 0 1.522 9 2.5 9 1.785 0 .938-7.377 1.5-8.5 4.872-9.743-2-22.38-2-31.5-1.829 0-2.185-5.842-4.5-7-1.527-.764-2.5 2.964-2.5 4 0 5.385 2 10.45 2 15Z"/><path fill="#A8AAAA" id="VL" d="M265 173h1l1-1 1-1 1-1v-1l1-1 2-8c-3.065 0-3.408 8-8 8v5h1Z"/><path fill="#CCC" d="M286 180c0 5.323-3 12.424-3 20-2.029 0 .042 6.271-2.5 5-3.126-1.563-.273-7.045-1.5-9.5-4.282-8.563 2-19.212 2-27.5l4.5-8c1.491-.745 3.5 3.089 3.5 4 0 5.65-2 9.704-2 15l-1 1Z"/><path fill="#C9C7C9" id="ccb" d="m88 161-1 2 1-2ZM369 163l2 4-2-4ZM87 164l-1 2 1-2Z"/><path fill="#B3C0DE" id="BST" d="m180 166-1 1v-1c0-1.186 1-1.186 1 0Z"/><path fill="#A8A9AA" id="V3" d="M225 207h6c3.736 0 .444-10 3-10v-1c0-1.49-.735-8 1-8 0-6.259-.055-10 7-10 0-16.017-27-16.636-27 0 11.867 0 4.557 17.614 8 24.5l2 4.5Z"/><path fill="#B3C0DE" id="BST" d="M259 235h3c0-1.014 3.959-2 5-2 3.95 0 5.894-6 10-6 0-2.985 4-6.151 4-10v-2l-1-1c0-4.212-1.173-10.845-3-14.5V177l-3.5 7c-3.148 1.574-2.5-6.198-2.5-7.5 0-3.776 4-7.391 4-10.5 0-2.396-4.091 2-5 2l-1 1v1l-1 1-1 1-1 1h-1l-1 1-1 1-6 6.5c-.716 1.433-.838 7.5-3 7.5 0 1.577-1.973 13-3 13v1l-1 5-1 1-3 7.5c-1.487 2.974 2 6.088 2 8.5 3.882 0 5 3.291 5 7v1l4 1 2 1Z"/><path fill="#8599CC" id="PAL" d="M178 167h1v-1l-1 1Z"/><path fill="#C8CBC7" id="st" d="M181 166c0 1.512 6.754 10.992 4 16.5-3.872 7.743-6-14.338-6-15.5l1-1h1Z"/><path fill="#B3C0DE" id="BST" d="M195 235h2c0-1.473 1.952-1 3-1h1l1-1h1l1-1c0-3.023-.226-7 5-7l1-9.5-3-6.5c0-5.971-5-13.775-5-20-.83 0-2.466-6.431-3-7.5-2.358-4.717-13.126-15.5-18-15.5 0 1.512 6.754 10.992 4 16.5-3.872 7.743-6-14.338-6-15.5h-1c0 6.817 3.913 28.673 1 34.5-1.57 3.14-3 10.001-3 13.5l1 9.5 3 2.5h1l1 1 7 5c.986 0 6 1.087 6 2Z"/><path fill="#C8CBC7" id="st" d="M277 176v1l-3.5 7c-3.148 1.574-2.5-6.198-2.5-7.5 0-3.776 4-7.391 4-10.5h2v10Z"/><path fill="#B3C0DE" id="BST" d="M278 166c0 1.529 1.833 10-1 10v-10h1Z"/><path fill="#8599CC" id="PAL" d="m285 218-1 1c-2.215 0-1.519-2-3-2v-2l-1-1c0-4.212-1.173-10.845-3-14.5V176c2.833 0 1-8.471 1-10l3 2c0 8.288-6.282 18.937-2 27.5 1.227 2.455-1.626 7.937 1.5 9.5 2.542 1.271.471-5 2.5-5 1.93 0 1.201 7.851 3.5 9l10.5 1c0 3.873 6 6.631 6 11-2.815 0-18-20.715-18-3Z"/><path fill="#C9C7C9" id="ccb" d="m86 167-1 1 1-1Z"/><path fill="#8599CC" id="PAL" d="M172 219c0-10.151-6.543-6.978-12.5-4-2.846 1.423-3.665 6-6.5 6 0-1.974 2-3.517 2-6l1-1 1-1 1-1 1-1v-1h1c8.719 0 13-2.908 13-12 1.906 0 1.522 9 2.5 9 1.785 0 .938-7.377 1.5-8.5 4.872-9.743-2-22.38-2-31.5h3c0 6.817 3.913 28.673 1 34.5-1.57 3.14-3 10.001-3 13.5-1.648 0-.756 4-4 4Z"/><path fill="#A8A9AA" id="V3" d="M193 173c0 3.333 7.493 4 10 4l-8-9-2-1v6ZM263 175c-3.489 0-5.32 2-9 2l7-8 3-2v7l-1 1Z"/><path fill="#97D6F9" id="STR" d="m270 168-1 1 1-1ZM269 170l-1 1 1-1Z"/><path fill="#C9C7C9" id="ccb" d="m85 171-1 1 1-1Z"/><path fill="#97D6F9" id="STR" d="m267 172-1 1 1-1ZM265 173l-1 1v-1h1Z"/><path fill="#C8CBCC" id="ec" d="m372 173 1 2-1-2Z"/><path fill="#97D6F9" id="STR" d="m264 174-1 1 1-1Z"/><path fill="#11AC82" id="VISC4" d="M52 189h1l2-2v-12l-5 1 2 13Z"/><path fill="#12AD82" id="VISC5" d="M55 187h1l12-4v-8c-4.414 0-9.177 1-13 1v11Z"/><path fill="#11AC83" id="VISC6a" d="M68 183h1c4.45 0 8.01-2 13-2v-6H68v8Z"/><path fill="#11AD82" id="VISC6b" d="M82 181h1c0-1.145-.58-4 1-4v-1l-1-1h-1v6Z"/><path fill="#97D6F9" id="STR" d="m253 188 1 1c2.162 0 2.284-6.067 3-7.5l6-6.5c-3.489 0-5.32 2-9 2-2.447 0-3.28 2-6 2l1 6c1.429 0 4 1.288 4 3Z"/><path fill="#11AD82" id="VISC6b" d="M373 181h1v-6h-1v6Z"/><path fill="#11AC83" id="VISC6a" d="M374 181c5.307 0 9.324 2 14 2v-8h-14v6Z"/><path fill="#12AD82" id="VISC5" d="m388 183 13 4v-11c-3.629 0-8.716-1-13-1v8Z"/><path fill="#11AC82" id="VISC4" d="m401 187 3 2 3-13-6-1v12Z"/><path fill="#12AD83" id="VISC1" d="m45 192-4 3c0-6.006-4-11.978-4-19h5c0 5.74 3 12.922 3 16Z"/><path fill="#12AC83" id="VISC2/3" d="m52 189-7 3c0-3.078-3-10.26-3-16h8l2 13ZM404 189c3.425 0 4.761 3 8 3l3-16h-8l-3 13Z"/><path fill="#12AD83" id="VISC1" d="m412 193 3 2c2.414 0 4-15.612 4-19h-4l-3 16v1Z"/><path fill="#C8CBCC" id="ec" d="M86 196h1c0-6.149-3-12.017-3-19-1.58 0-1 2.855-1 4v4c1.684 0 1 4.679 1 6 1.014 0 2 3.959 2 5Z"/><path fill="#8598CC" id="GPe" d="M160 209v1c8.719 0 13-2.908 13-12 0-2.656 1.558-7.385 0-10.5l-3-8.5-2-1 2 12.5c-1.145 2.29-2.882 1.691-4.5 2.5-3.5 1.75-5.5 12.724-5.5 16Z"/><path fill="#CAC7CB" id="fiber tracts" d="M207 209c3.819 0 8.312-.594 11.5 1 1.949.974 4.77 7 5.5 7l1-10-2-4.5c-3.443-6.886 3.867-24.5-8-24.5-1.564 0-3.876 1-6 1 0 1.714-2 3.482-2 6l4 3 3-1c0-6.597 4.835-4.829 7-.5v7.5c0 1.622.461 5-2 5l-2 2.5v3c-4.801 9.602-12-2.902-12-9.5l-1-8-2 2c0 6.225 5 14.029 5 20ZM242 187l3 1 4-3-1-6c-2.124 0-4.436-1-6-1-7.055 0-7 3.741-7 10l3.5-6c1.693-.847 3.5.989 3.5 2.5v2.5Z"/><path fill="#97D6F9" id="STR" d="m287 179-1 1 1-1Z"/><path fill="#8598CC" id="GPe" d="M283 200c1.93 0 1.201 7.851 3.5 9l10.5 1c0-3.08-3.281-15.391-6.5-17-1.318-.659-2.54.419-3.5-1.5l1-12.5h-1l-1 1c0 5.323-3 12.424-3 20Z"/><path fill="#009B74" id="GU6a" d="M71 195h1c0-1.434 6.448-2 8-2l3-2v-8l-1-2c-4.99 0-8.55 2-13 2 0 4.646 2 7.501 2 12Z"/><path fill="#019C74" id="GU6b" d="M83 181v2l-1-2h1Z"/><path fill="#C8CBCC" id="ec" d="m372 191-1 1c0-1.72.659-11 2-11l-1 10Z"/><path fill="#019C74" id="GU6b" d="M372 191h1c0-2.978 1-6.49 1-10h-1l-1 10Z"/><path fill="#009B74" id="GU6a" d="m376 193 9 1 3-11c-4.676 0-8.693-2-14-2 0 3.51-1 7.022-1 10 2.215 0 1.519 2 3 2Z"/><path fill="#CCC8CC" id="mct" d="M214 187c2.194 0 5 10.096 5 12 2.461 0 2-3.378 2-5v-7.5c-2.165-4.329-7-6.097-7 .5ZM235 188c0 3.229-.861 11 3 11 0-4.032 4-9.88 4-12v-2.5c0-1.511-1.807-3.347-3.5-2.5l-3.5 6Z"/><path fill="#019C75" id="GU5" d="M58 196h1l12-1c0-4.499-2-7.354-2-12h-1l-12 4c0 3.519 2 5.843 2 9ZM397 197h1v-1l3-9-13-4-3 11v1c2.083 0 12 .142 12 2Z"/><path fill="#019C74" id="GU6b" d="M83 191h1c0-1.321.684-6-1-6v6Z"/><path fill="#CCC9C8" id="sm" d="M211 188c0 .009-5.906 7-6 7l-1-8c1.481 0 .785-2 3-2l4 3ZM253 188c0 .986-1.087 6-2 6l-6-6 4-3c1.429 0 4 1.288 4 3Z"/><path fill="#009C74" id="GU4" d="M55 197h1l2-1c0-3.157-2-5.481-2-9h-1l-2 2c0 3.303 2 5.115 2 8Z"/><path fill="#C7C8CA" id="fx" d="M205 195c0 6.598 7.199 19.102 12 9.5v-3l2-2.5c0-1.904-2.806-12-5-12l-3 1c0 .009-5.906 7-6 7ZM251 202v1c-2.777 0-6.291 9.917-11 .5l-2-4.5c0-4.032 4-9.88 4-12l3 1 6 6v8Z"/><path fill="#009C74" id="GU4" d="M400 197h1l3-8-3-2-3 9 2 1Z"/><path fill="#CAC7CB" id="fiber tracts" d="M249 209c-3.819 0-8.312-.594-11.5 1l-4.5 5c0-2.709-2-4.646-2-8 3.736 0 .444-10 3-10 1.186 0 1.186-1 0-1 0-1.49-.735-8 1-8 0 3.229-.861 11 3 11l2 4.5c4.709 9.417 8.223-.5 11-.5l-1 5-1 1ZM251 194v8c1.027 0 3-11.423 3-13l-1-1c0 .986-1.087 6-2 6Z"/><path fill="#009B75" id="GU2/3" d="M47 199h1c.969 0 7-1.147 7-2 0-2.885-2-4.697-2-8h-1l-7 3 2 7ZM401 197c0 1.059 6.743 2 8 2l3-6v-1c-3.239 0-4.575-3-8-3l-3 8Z"/><path fill="#8ADA86" id="CLA" d="M85 207h2l2-2v-2l-1-2v-1l-1-1v-2l-1-1c0-1.041-.986-5-2-5h-1l-3 2c0 3.835-2.428 14 5 14ZM369 207h2c8.029 0 5-9.452 5-14-1.481 0-.785-2-3-2h-1l-1 1c0 1.424-.362 5-2 5v3l-1 1v2l-1 1v1l2 2Z"/><path fill="#009C75" id="GU1" d="m47 199-3 2-3-6 4-3 2 7Z"/><path fill="#C8CBCC" id="ec" d="M371 192c-1.638 0-2 3.576-2 5 1.638 0 2-3.576 2-5Z"/><path fill="#209766" id="AIp6a" d="M80 213h1c0-3.531 4-3.074 4-6-7.428 0-5-10.165-5-14-1.552 0-8 .566-8 2 0 6.626 8 11.836 8 18ZM376 213h1c0-6.367 8-11.766 8-18v-1l-9-1c0 4.548 3.029 14-5 14 0 2.338 5 2.89 5 6Z"/><path fill="#009C75" id="GU1" d="m409 200 4 1c0-1.974 2-3.517 2-6l-3-2-3 6v1Z"/><path fill="#219864" id="AIp5" d="m78 215-5 1c0-2.21-14-12.419-14-19v-1l12-1h1c0 6.626 8 11.836 8 18l-2 2ZM379 215l4 1c0-1.924 14-12.24 14-19 0-1.858-9.917-2-12-2 0 6.234-8 11.633-8 18l2 2Z"/><path fill="#009B75" id="GU2/3" d="M56 197h3v-1h-1l-2 1Z"/><path fill="#209766" id="AIp6a" d="M87 196v1l-1-1h1Z"/><path fill="#FE8F9E" id="PVT" d="M234 196c1.186 0 1.186 1 0 1v-1Z"/><path fill="#009B75" id="GU2/3" d="M398 197h2l-2-1v1Z"/><path fill="#209865" id="AIp2/3" d="M73 216c0 .865-8.68 4-10 4-1.66 0-15-18.07-15-21 .969 0 7-1.147 7-2h4c0 6.581 14 16.79 14 19Z"/><path fill="#C8CBCC" id="ec" d="M88 201h1l-2-4v2l1 1v1Z"/><path fill="#209865" id="AIp2/3" d="M383 216c0 .865 8.68 4 10 4 4.773 0 14.327-20 16-20v-1c-1.257 0-8-.941-8-2h-4c0 6.76-14 17.076-14 19Z"/><path fill="#C8CBCC" id="ec" d="M368 200h1v-2l-1 2Z"/><path fill="#219765" id="AIp1" d="m63 220-4 3c-2.739 0-15-18.57-15-22l3-2h1c0 2.93 13.34 21 15 21Z"/><path fill="#209766" id="AIp6a" d="m87 199 1 1-1-1Z"/><path fill="#C8CBCC" id="ec" d="M367 203h1v-3c-1.473 0-1 1.952-1 3Z"/><path fill="#209766" id="AIp6a" d="m369 200-1 1v-1h1Z"/><path fill="#219765" id="AIp1" d="m393 220 5 3c1.085 0 15-19.077 15-22l-4-1c-1.673 0-11.227 20-16 20Z"/><path fill="#209766" id="AIp6a" d="M89 201v2l-1-2h1Z"/><path fill="#C8CBCC" id="ec" d="M90 208h1c0-1.424-.362-5-2-5v2l1 3Z"/><path fill="#209766" id="AIp6a" d="m368 203-1 1v-1h1Z"/><path fill="#C8CBCC" id="ec" d="M366 207h1v-3c-1.473 0-1 1.952-1 3Z"/><path fill="#209766" id="AIp6a" d="m87 207 3 1-1-3-2 2ZM367 207h2l-2-2v2Z"/><path fill="#A0EE9C" id="EPd" d="m94 230 3 1c1.466 0 4 .109 4-2l-4-7v-1c-1.577 0-2-1.762-2-3v-1l-1-1v-1l-1-1v-2l-1-1v-1l-1-1v-1h-1l-3-1h-2c0 2.926-4 2.469-4 6v5l2 2 1 2 9 7 1 1Z"/><path fill="#C8CBCC" id="ec" d="m366 208-1 1 1-2v1Z"/><path fill="#209766" id="AIp6a" d="m367 207-1 1v-1h1Z"/><path fill="#A0EE9C" id="EPd" d="m365 229-6 2c-2.747 0-3-.253-3-3l1-3 1-1 1-1v-1c1.577 0 2-1.762 2-3v-1l1-1v-1l1-1v-2l1-2 1-1v-1l1-1 1-1h4c0 2.338 5 2.89 5 6l-1 5-1 2-1 1-1 1-1 1-1 1-1 1-1 1-1 1-1 1-1 1Z"/><path fill="#E64438" id="HY" d="m250 208-1 1 1-1Z"/><path fill="#C8CBCC" id="ec" d="m91 209 1 1-1-1Z"/><path fill="#97D6F9" id="STR" d="M159 210h1v-1l-1 1Z"/><path fill="#E64438" id="HY" d="M212 231c3.311 0 12-1.765 12 5 2.87 0-.87-14 2-14l-1-4-1-1c-.73 0-3.551-6.026-5.5-7-3.188-1.594-7.681-1-11.5-1l3 6.5-1 9.5c3.026 0 3 3.41 3 6ZM244 231c-2.597 0-5.518-1.491-8.5 0l-3.5 4c0-1.908.788-13-1-13v-4c1.577 0 2-1.762 2-3l4.5-5c3.188-1.594 7.681-1 11.5-1l-3 7.5c-1.487 2.974 2 6.088 2 8.5-3.591 0-4 3.117-4 6Z"/><path fill="#97D6F9" id="STR" fill-rule="evenodd" d="m312 224-1 3.5c1.635 3.27 16.22 15.559 19 10 1.988-3.976-13.405-13.5-18-13.5m8 32c5.609 0 9-1.909 9 6 2.382 0 1.982-7 5-7 0-2.337-1.513-10 4-10l1-1 1-1 1-1 1-1 1-2c0-2.215 2-1.519 2-3-1.048 0-3 .473-3-1-13.392 0-23.395-10.447-34.5-16-2.211-1.105-10.319-9-10.5-9 0 3.873 6 6.631 6 11 0 2.979 6 5.551 6 9 4.147 0 11.668 8.084 15.5 10 6.112 3.056 10.108-6.446 17-3l-1.5 3.5-9.5 8.5c-6.91 3.455-10.399-4-14.5-4l1 4 1 4c1.577 0 2 1.762 2 3Z"/><path fill="#C8CBCC" id="ec" d="m365 210-1 1 1-1ZM92 211l1 1-1-1Z"/><path fill="#97D6F9" id="STR" d="m159 211-1 1 1-1Z"/><path fill="#A2B1D7" id="SI" d="M142 252h23l6-2c8.959 0 4-14.688 4-19l-3-12c0-10.151-6.543-6.978-12.5-4-2.846 1.423-3.665 6-6.5 6 0 1.251-4.19 8-5 8l-1 1c0 5.258-6 9.031-6 14l-1 1v4l2 3ZM291 252h24l2-3-1-4v-1l-1-1-6-13c0-3.449-6-6.021-6-9-2.815 0-18-20.715-18-3l-1 1c0 2.075-1.307 12-3 12l-1 13.5 6 6.5 5 1Z"/><path fill="#C8CBCC" id="ec" d="m364 211-1 2 1-2Z"/><path fill="#97D6F9" id="STR" d="m158 212-1 1 1-1Z"/><path fill="#99D2BD" id="OLF" d="m78 215 3 2v-4h-1l-2 2Z"/><path fill="#97D6F9" id="STR" d="m157 213-1 1 1-1Z"/><path fill="#A8A9AA" id="V3" d="M226 222c0 8.808 5 6.467 5 0v-4c0-2.056-2.745-9.011-5-4.5-.574 1.147 1.064 4.5-1 4.5l1 4Z"/><path fill="#99D2BD" id="OLF" d="M379 215c-2.618 0-1.651 3-4 3l1-5h1l2 2Z"/><path fill="#C8CBCC" id="ec" d="m93 214 1 1-1-1Z"/><path fill="#97D6F9" id="STR" d="m156 214-1 1 1-1Z"/><path fill="#E64438" id="HY" d="m280 214 1 1-1-1Z"/><path fill="#6ACAB9" id="PIR" d="M119 289c-2.625 0-8-1.221-8 2-4.559 0-11.676-7.176-15-10.5-7.179-7.179-20.527-31.053-25-40-2.912-5.823-12-10.618-12-17.5l4-3c1.32 0 10-3.135 10-4l5-1 3 2v1l2 2 1 2c0 .948 14.44 14 15 14l12.5 12 5.5 5c0 3.969 8 10.742 8 18 0 4.931-6 13.509-6 17v1Z"/><path fill="#97D6F9" id="STR" d="M147 230c-2.74 0-4.77 5-8 5 0-3.372 4.773-4.047 6-6.5.653-1.307-.506-5.497-2.5-4.5l-6.5 3 4-3.5c2.243-2.243 12.757-8.5 15-8.5 0 2.483-2 4.026-2 6 0 1.251-4.19 8-5 8l-1 1Z"/><path fill="#E64438" id="HY" d="M180 227c-2.359 0-3.698 4-5 4l-3-12c3.244 0 2.352-4 4-4l1 9.5 3 2.5Z"/><path fill="#C8CBCC" id="ec" d="m363 215-1 1 1-1Z"/><path fill="#6ACAB9" id="PIR" d="M338 289c2.529 0 7-1.136 7 2 4.529 0 8.59-6.045 12.5-8 5.039-2.519 26.04-37.58 29.5-44.5 2.179-4.357 11-9.935 11-15.5l-5-3c-1.32 0-10-3.135-10-4l-4-1c-2.618 0-1.651 3-4 3l-1 2-1 1-1 1-1 1-1 1-1 1-1 1-1 1-1 1-1 1c0 1.782-6.482 7-8 7l-4 4.5c-3.128 3.128-10.282 12.5-14 12.5 0 4.849-7 9.965-7 18 0 6.011 5 11.801 5 17l1 1Z"/><path fill="#C8CBCC" id="ec" d="m94 216 1 1-1-1Z"/><path fill="#E64438" id="HY" d="m277 227 4 4c1.693 0 3-9.925 3-12-2.215 0-1.519-2-3-2 0 3.849-4 7.015-4 10Z"/><path fill="#C8CBCC" id="ec" d="m362 217-1 1 1-1Z"/><path fill="#99D2BD" id="OLF" d="m81 218 2 2-2-2Z"/><path fill="#C8CBCC" id="ec" d="m95 218 2 3c-1.577 0-2-1.762-2-3Z"/><path fill="#E64438" id="HY" d="m285 218-1 1 1-1Z"/><path fill="#C8CBCC" id="ec" d="M361 219c-1.577 0-2 1.762-2 3 1.577 0 2-1.762 2-3Z"/><path fill="#99D2BD" id="OLF" d="m374 220-1 1 1-1ZM373 221l-1 1 1-1ZM99 233v3c-.56 0-15-13.052-15-14l9 7 1 1 3 1 2 2Z"/><path fill="#C8CBCC" id="ec" d="M115 235c0 1.579-2.855 1-4 1l-2-1h-1l-2-2-3-2-2-2-4-7c2.293 0 9.856 13 18 13Z"/><path fill="#FE5547" id="PVpo" d="M236 275h2c0-3.119-3-5.616-3-8l-1-3c0-1.698-1.195-5.89-2-7.5V235c0-1.908.788-13-1-13 0 6.467-5 8.808-5 0-2.87 0 .87 14-2 14 0 8.932-1 18.732-1 27l-1 1-1 2c0 3.548-2 6.048-2 9h1l1-1h2l1-1h1v-2l3.5-11 2.5 11v2l4 1 1 1Z"/><path fill="#99D2BD" id="OLF" d="m372 222-1 1 1-1Z"/><path fill="#C8CBCC" id="ec" d="m359 223-1 1 1-1Z"/><path fill="#99D2BD" id="OLF" d="m371 223-1 1 1-1Z"/><path fill="#C9C9C9" id="act" d="m139 235-1 1-4.5 2c-1.427.713-9.303 1.106-7.5-2.5 1.606-3.211 10-4.516 10-8.5l6.5-3c1.994-.997 3.153 3.193 2.5 4.5-1.227 2.453-6 3.128-6 6.5ZM312 224l-1 3.5c1.635 3.27 16.22 15.559 19 10 1.988-3.976-13.405-13.5-18-13.5Z"/><path fill="#C8CBCC" id="ec" d="m358 224-1 1 1-1Z"/><path fill="#99D2BD" id="OLF" d="m370 224-1 1 1-1Z"/><path fill="#FE5346" id="PD" d="m204 233 4 2 4-4c0-2.59.026-6-3-6-5.226 0-5 3.977-5 7v1ZM252 233l-3 2c-2.359 0-3.698-4-5-4 0-2.883.409-6 4-6 3.882 0 5 3.291 5 7l-1 1Z"/><path fill="#C8CBCC" id="ec" d="M355 228h1l1-3c-1.577 0-2 1.762-2 3Z"/><path fill="#99D2BD" id="OLF" d="m369 225-1 1 1-1ZM368 226l-1 1 1-1Z"/><path fill="#97D6F9" id="STR" d="m137 257-3.5-2c-7.165-3.582-4.5 8.102-4.5 10-2.949 0-2.83-10-7-10 0-1.423 1.978-3.544 1-5.5l-9-10.5-3-3c1.145 0 4 .579 4-1 8.476 0 14.989-8 21-8 0 3.984-8.394 5.289-10 8.5-1.803 3.606 6.073 3.213 7.5 2.5l4.5-2-2.5 2c-6.55 3.275-7.142.929-13-2l-7 1c-1.546.773 7.275 10.138 9 11 10.222 5.111 12.439-3 15.5-3v4c-1.473 0-1 1.952-1 3 0 1.295-2 2.89-2 5Z"/><path fill="#F2473B" id="LPO" d="m193 268-3 1c-1.854 0-11.158-12-16-12l-2-2-1-5c8.959 0 4-14.688 4-19 1.302 0 2.641-4 5-4h1l1 1 7 5 2 3c0 2.721.836 6.171 2 8.5V268Z"/><path fill="#E64438" id="HY" d="m181 227 1 1-1-1Z"/><path fill="#F2473B" id="LPO" d="m263 268 4 1c0-3.06 11.929-12 15-12l2-2 1-1 1-3-6-6.5 1-13.5-4-4c-4.106 0-6.05 6-10 6l-2 4c0 3.24-.641 6.781-2 9.5V268Z"/><path fill="#99D2BD" id="OLF" d="m367 227-1 1 1-1Z"/><path fill="#C8CBCC" id="ec" d="m355 228-1 1 1-1Z"/><path fill="#8AD987" id="CTXsp" d="m359 231-2 2c0-2.109-2.535-2-4-2v-1l1-1 1-1h1c0 2.747.253 3 3 3Z"/><path fill="#99D2BD" id="OLF" d="m366 228-1 1 1-1Z"/><path fill="#8AD987" id="CTXsp" d="m93 229 1 1-1-1ZM103 231l-4 2-2-2c1.466 0 4 .109 4-2l2 2Z"/><path fill="#7ECDF8" id="FS" d="m148 229-1 1 1-1Z"/><path fill="#C8CBCC" id="ec" d="m354 229-1 1 1-1Z"/><path fill="#99D2BD" id="OLF" d="M357 233v3c1.518 0 8-5.218 8-7l-6 2-2 2Z"/><path fill="#7ECDF8" id="FS" d="m141 244-1 1c-3.061 0-5.278 8.111-15.5 3-1.725-.862-10.546-10.227-9-11l7-1c5.858 2.929 6.45 5.275 13 2l2.5-2 1-1c3.23 0 5.26-5 8-5 0 5.258-6 9.031-6 14Z"/><path fill="#FD4C3E" id="MPN" d="m219 266-4 1-5-2c-4.665 0-6.41-21.68-5-24.5l3-5.5 4-4c3.311 0 12-1.765 12 5 0 8.932-1 18.732-1 27l-1 1-3 2ZM240 267h2l4-1 3-3.5 3-11c2.718-5.435-3-11.964-3-16.5-2.359 0-3.698-4-5-4-2.597 0-5.518-1.491-8.5 0l-3.5 4v21.5c.805 1.61 2 5.802 2 7.5l3 2h2l1 1Z"/><path fill="#7ECDF8" id="FS" d="M316 244v1c4.101 0 7.59 7.455 14.5 4l9.5-8.5 1.5-3.5c-6.892-3.446-10.888 6.056-17 3-3.832-1.916-11.353-10-15.5-10l6 13 1 1Z"/><path fill="#C8CBCC" id="ec" d="M352 231h1v-1l-1 1Z"/><path fill="#A0ED9D" id="EPv" d="M117 253h2c0-8.202-6-12.488-6-13-2.226 0-4-1.774-4-4v-1h-1l-2-2-3-2-4 2v3l12.5 12 5.5 5Z"/><path fill="#C8CBCC" id="ec" d="M345 236h1l2-1 4-4c-3.657 0-5.884 4-10 4 0 1.473 1.952 1 3 1Z"/><path fill="#A0ED9D" id="EPv" d="M338 253h1c3.718 0 10.872-9.372 14-12.5l4-4.5v-3c0-2.109-2.535-2-4-2h-1l-4 4-1 1c0 2.708-1.119 4-4 4l-1 1-1 1-1 1-1 1-1 1c0 .981-2.681 8 0 8Z"/><path fill="#E64438" id="HY" d="M203 233h1v-1l-1 1ZM252 233h1v-1l-1 1Z"/><path fill="#8AD987" id="CTXsp" d="m106 233 2 2-2-2Z"/><path fill="#E64438" id="HY" d="m195 235-4 1-2-3c.986 0 6 1.087 6 2ZM202 233l-1 1 1-1Z"/><path fill="#FF5346" id="MPO" d="M193 269h4c3.276 0 13 4.483 13-4-4.665 0-6.41-21.68-5-24.5l3-5.5-4-2h-2l-1 1h-1c0 1.473-1.952 1-3 1h-2l-4 1c0 2.721.836 6.171 2 8.5V269ZM260 269h3v-22.5c1.359-2.719 2-6.26 2-9.5l-3-2h-3l-2-1-4-1h-1l-3 2c0 4.536 5.718 11.065 3 16.5l-3 11-3 3.5c0 3.748 7.921 5 11 5 0-1.577 1.762-2 3-2Z"/><path fill="#E64438" id="HY" d="m262 235 3 2 2-4c-1.041 0-5 .986-5 2ZM200 234c-1.048 0-3-.473-3 1 1.048 0 3 .473 3-1ZM257 234l2 1-2-1Z"/><path fill="#8AD987" id="CTXsp" d="M109 236h2l-2-1v1Z"/><path fill="#97D6F9" id="STR" d="m139 235-1 1 1-1Z"/><path fill="#8AD987" id="CTXsp" d="M346 236h1l1-1-2 1Z"/><path fill="#80BEE2" id="IA" d="m114 239-1 1c-2.226 0-4-1.774-4-4h2l3 3ZM343 239v1c2.881 0 4-1.292 4-4h-2c0 1.481-2 .785-2 3Z"/><path fill="#8AD987" id="CTXsp" d="M119 253c0 1.577 1.762 2 3 2 0-1.423 1.978-3.544 1-5.5l-9-10.5-1 1c0 .512 6 4.798 6 13ZM343 240l-1 1 1-2v1ZM342 241l-1 1 1-1ZM341 242l-1 1 1-1Z"/><path fill="#97D6F9" id="STR" d="m315 243 1 1-1-1Z"/><path fill="#8AD987" id="CTXsp" d="m340 243-1 1 1-1Z"/><path fill="#97D6F9" id="STR" d="m141 244-1 1 1-1Z"/><path fill="#8AD987" id="CTXsp" d="m339 244-1 1 1-1ZM338 253l-4 2c0-2.337-1.513-10 4-10 0 .981-2.681 8 0 8Z"/><path fill="#8599CC" id="PAL" d="M139 252h3l-2-3c-1.473 0-1 1.952-1 3ZM315 252l3 1-1-4-2 3ZM171 257h2l-1-2-1-5-6 2 6 5ZM284 257l2 1c0-3.506 5-3.428 5-6l-5-1-1 3-1 1v2Z"/><path fill="#A2B1D8" id="MA" d="m168 273-4 2c0-2.883-24.037-18-27-18 0-2.11 2-3.705 2-5h26l6 5c0 5.61-3 11.016-3 16ZM292 275h1c0-5.811 15.66-12.58 20.5-15 1.28-.64 6.5-2.385 6.5-4 0-1.238-.423-3-2-3l-3-1h-24c0 2.572-5 2.494-5 6 0 5.014 2 9.622 2 14 1.457 0 1.46 3 4 3Z"/><path fill="#99D2BD" id="OLF" d="M134 290c-2.402 0-4.31 1-7 1 0-3.041.303-4-3-4l5-2.5c2.011-4.022.516-13.5-4-13.5 0-7.258-8-14.031-8-18h2c0 1.577 1.762 2 3 2 4.17 0 4.051 10 7 10v1l2 2 2 3 4 10.5c1.616 3.233-3 6.074-3 8.5ZM322 290c2.153 0 4.722 1 7 1 0-2.343.285-4 3-4l-4-2.5c-2.38-4.76-2.072-13.5 4-13.5 0-8.035 7-13.151 7-18h-1l-4 2c-3.018 0-2.618 7-5 7l-1 2-3 5-1 1-1 2-3 7.5c-1.873 3.745 2 7.738 2 10.5Z"/><path fill="#E64438" id="HY" d="m285 254-1 1 1-1Z"/><path fill="#80C0E2" id="AAA" d="M164 275v1c-.951 0-10.554 7.973-16.5 5-1.9-.95-14.188-10-14.5-10l-2-3-2-2v-1c0-1.898-2.665-13.582 4.5-10l3.5 2c2.963 0 27 15.117 27 18Z"/><path fill="#E64438" id="HY" d="M173 257h1l-2-2 1 2ZM282 257h2v-2l-2 2Z"/><path fill="#80C0E2" id="AAA" d="M323 272c-1.283 0-5.502 2.503-6 3.5-3.1 6.2-24 8.367-24-.5 0-5.811 15.66-12.58 20.5-15 1.28-.64 6.5-2.385 6.5-4 5.609 0 9-1.909 9 6l-1 2-3 5-1 1-1 2Z"/><path fill="#96A6D3" id="NDB" d="m189 276-2 2c-8.028 0-17.698-5-19-5 0-4.984 3-10.39 3-16h3c4.842 0 14.146 12 16 12v4l-1 2v1ZM267 275l3 3c4.565 0 18-.394 18-6 0-4.378-2-8.986-2-14l-2-1h-2c-3.071 0-15 8.94-15 12v6Z"/><path fill="#A8A9AA" id="V3" d="M225 271h6l-2.5-11-3.5 11Z"/><path fill="#97D6F9" id="STR" d="m329 262-1 2 1-2Z"/><path fill="#E64438" id="HY" d="m223 263-1 1 1-1ZM219 266h2l1-2-3 2ZM237 266l-2 1-1-3 3 2ZM205 279h2v-1c-9.646 0 1.317-7.409 4.5-9l3.5-2-5-2c0 8.483-9.724 4-13 4l3 4.5c.978 1.956-1 4.077-1 5.5h6Z"/><path fill="#97D6F9" id="STR" d="m129 266 2 2-2-2Z"/><path fill="#FD5545" id="VMPO" d="M207 278h3l1-1h4l2-1 2-1c0-2.952 2-5.452 2-9h-2l-4 1-3.5 2c-3.183 1.591-14.146 9-4.5 9ZM242 277l7 1c10.119 0-1.507-7.504-4.5-9l-2.5-2h-2l-1-1h-2l-2 1c0 2.384 3 4.881 3 8l4 2Z"/><path fill="#E64438" id="HY" d="m239 266 1 1-1-1ZM251 279h6v-8c-3.079 0-11-1.252-11-5l-4 1 2.5 2c2.993 1.496 14.619 9 4.5 9v1h2ZM193 269l-3 3v-3l3-1v1ZM267 269v4l-4-4v-1l4 1Z"/><path fill="#FE5546" id="VLPO" d="M198 279h1c0-1.423 1.978-3.544 1-5.5l-3-4.5h-4l-3 3v1l-1 2v1c0 2.215 2 1.519 2 3h7Z"/><path fill="#E64438" id="HY" d="M260 269c-1.238 0-3 .423-3 2 1.238 0 3-.423 3-2Z"/><path fill="#FE5546" id="VLPO" d="M262 279h4l1-1v-5l-4-4h-3c0 1.577-1.762 2-3 2v7l1 1h4Z"/><path fill="#97D6F9" id="STR" d="m325 269-1 1 1-1Z"/><path fill="#59D9AA" id="PAA" d="M119 288h2l2-1h1l5-2.5c2.011-4.022.516-13.5-4-13.5 0 4.931-6 13.509-6 17Z"/><path fill="#97D6F9" id="STR" d="M165 291c0-11.1-5.202-9-15.5-9-2.502 0-9.271-.958-10.5 1.5-2.136 4.272 2.079 10.5 7 10.5 1.406 0 7-.714 7 1 0 2.469-3.646 0-4.5 0-5.513 0-9.699-5-14.5-5 0-2.426 4.616-5.267 3-8.5l-4-10.5c.312 0 12.6 9.05 14.5 10 5.946 2.973 15.549-5 16.5-5 4.902 0 5 8.791 5 11l-4 4Z"/><path fill="#59D9AA" id="PAA" d="m333 287 4 1c0-5.199-5-10.989-5-17-6.072 0-6.38 8.74-4 13.5l4 2.5h1Z"/><path fill="#8599CC" id="PAL" d="M270 278c0 5.191 13.328 8 17 8 0-5.007 5-7.111 5-11-2.54 0-2.543-3-4-3 0 5.606-13.435 6-18 6Z"/><path fill="#97D6F9" id="STR" d="M293 292c0-1.947-3.428-3.644-2-6.5 2.035-4.07 24.436-5.128 26-2 2.799 5.598-3 5.178-3 9.5 3.219 0 5.108-3 8-3 0-2.762-3.873-6.755-2-10.5l3-7.5c-1.283 0-5.502 2.503-6 3.5-3.1 6.2-24 8.367-24-.5h-1c0 3.889-5 5.993-5 11 0 1.7 4.503 6 6 6Z"/><path fill="#8599CC" id="PAL" d="M187 278c0 3.531-14.459 9-18 9 0-2.209-.098-11-5-11v-1l4-2c1.302 0 10.972 5 19 5Z"/><path fill="#E64438" id="HY" d="m190 273-1 2 1-2ZM224 273l-1 1 1-1Z"/><path fill="#CAC7CB" id="fiber tracts" d="m238 275 1 2-4.5-2H221v-1h2l1-1h7l4 1 1 1h2Z"/><path fill="#E64438" id="HY" d="M220 275h1v-1l-1 1ZM235 274l1 1-1-1ZM217 276h2v-1l-2 1Z"/><path fill="#CAC7CB" id="fiber tracts" d="m221 275-2 1v-1h2Z"/><path fill="#CBCACC" id="och" d="M258 287c0 .982-3.298 2.601-4.5 2-3.778-1.889-11.771-4-16-4-5.664 0-14.85-2.575-20 0-5.618 2.809-12.914 3-18.5 3v-7c0-2.592 6 .592 6-2h2c1.923 0 9 .156 9-2h1l2-1 2-1h13.5l4.5 2h1c0 2.156 7.077 2 9 2h2c0 .682 6.241 2 7 2v6Z"/><path fill="#E64438" id="HY" d="M240 277h2l-4-2 1 2h1ZM267 278h3l-3-3v3ZM187 278l4 1c0-1.481-2-.785-2-3l-2 2ZM216 277h1v-1l-2 1h1Z"/><path fill="#CAC7CB" id="fiber tracts" d="m219 276-2 1v-1h2Z"/><path fill="#E64438" id="HY" d="m211 277-1 1 1-1Z"/><path fill="#CAC7CB" id="fiber tracts" d="M207 278h3l1-1h5c0 2.156-7.077 2-9 2v-1ZM249 278v1c-1.923 0-9 .156-9-2h2l7 1Z"/><path fill="#FE5B50" id="SO" d="M257 279h1l-1-1v1Z"/><path fill="#E64438" id="HY" d="m267 278-1 1 1-1ZM195 279v1l-1-1h1Z"/><path fill="#FE5B50" id="SO" d="M195 280h1l2-1h-3v1Z"/><path fill="#CAC7CB" id="fiber tracts" d="M196 281h3c0-2.592 6 .592 6-2h-7l-2 1v1ZM258 281h2v-1l-1-1h-8c0 .682 6.241 2 7 2Z"/><path fill="#FE5B50" id="SO" d="m262 279-2 1-1-1h3Z"/><path fill="#CAC7CB" id="fiber tracts" d="m196 281-1 1 1-1Z"/><path fill="#CACCCB" id="opt" d="m195 286 4 2v-7h-3l-1 1v4ZM261 286l-3 1v-6h2l1 1v4Z"/><path fill="#7FCCF7" id="OT" d="M163 292c-3.136 0-6.122 3-10 3 0-1.714-5.594-1-7-1-4.921 0-9.136-6.228-7-10.5 1.229-2.458 7.998-1.5 10.5-1.5 10.298 0 15.5-2.1 15.5 9h-1l-1 1Z"/><path fill="#CAC7CB" id="fiber tracts" d="M261 282c1.535 0 1.535 4 0 4v-4Z"/><path fill="#7FCCF7" id="OT" d="M312 294c-1.574 0-9-.751-9 1-3.947 0-6.628-3-10-3 0-1.947-3.428-3.644-2-6.5 2.035-4.07 24.436-5.128 26-2 2.799 5.598-3 5.178-3 9.5l-2 1Z"/><path fill="#CAC7CB" id="fiber tracts" d="M258 287c0 .982-3.298 2.601-4.5 2-3.778-1.889-11.771-4-16-4-5.664 0-14.85-2.575-20 0-5.618 2.809-12.914 3-18.5 3l-4-2c0 3.38 9.277 5.611 12.5 4 5.391-2.696 13.685.658 19-2l2-3 1 3c5.571 2.785 14.343-.828 20 2 3.231 1.615 11.5-.503 11.5-4l-3 1Z"/><path fill="#99D2BD" id="OLF" d="m123 287-2 1 2-1Z"/><path fill="#CAC8C7" id="lot" d="M111 291c0 4.671 16 4.001 16 0 0-3.041.303-4-3-4h-1l-2 1-2 1c-2.625 0-8-1.221-8 2ZM329 291l2.5 2c2.248 1.124 13.5 2.547 13.5-2 0-3.136-4.471-2-7-2-1.424 0-5-.362-5-2h-1c-2.715 0-3 1.657-3 4Z"/><path fill="#99D2BD" id="OLF" d="m337 288 1 1c-1.424 0-5-.362-5-2l4 1ZM121 288l-2 1v-1h2Z"/><path fill="#97D6F9" id="STR" d="m164 291-1 1 1-1ZM314 293l-2 1 2-1ZM312 294c-1.574 0-9-.751-9 1 0 2.191 9-.124 9-1Z"/></svg>