<svg xmlns="http://www.w3.org/2000/svg" viewBox="0 0 456 320"><path fill="#1E9D5A" id="MOp1" d="M198 28c-8.022 0-17.297 3-25 3l2-7c7.801 0 15.731-1 24-1l-1 5Z"/><path fill="#1E9C59" id="MOs1" d="M222 41h1l4-2-6-6.5c-3.343-6.685-13.411-9.5-22-9.5l-1 5c7.541 0 24 4.327 24 13ZM230 39l4 2c0-8.676 17.402-13 24-13v-5c-7.702 0-28 6.206-28 16Z"/><path fill="#1E9D5A" id="MOp1" d="M258 28c8.088 0 16.642 2 25 2 0-2.124-1-4.436-1-6-7.801 0-15.731-1-24-1v5Z"/><path fill="#187F60" id="SSp-ll1" d="M134 40h1c0-1.233 7.258-2.379 8.5-3 8.872-4.436 18.762-6 29.5-6l2-7c-9.311 0-25.719 3.11-33.5 7l-9.5 4 2 5ZM321 40h1l2-5c-2.497 0-6.251-2.875-8.5-4h-4c-8.528-4.264-19.352-7-29.5-7 0 1.564 1 3.876 1 6v1c10.867 0 20.543 1.521 29.5 6 1.242.621 8.5 1.767 8.5 3Z"/><path fill="#1F9C58" id="MOp2/3" d="m170 44-1 6c4.994 0 15.904-11 27-11v-1l2-10c-8.022 0-17.297 3-25 3 0 2.443-1.371 7.241-2 8.5-.574 1.147 1.064 4.5-1 4.5Z"/><path fill="#1E9D58" id="MOs2/3" d="M222 41c0 1.617-4.583 4-6 4l-5.5-6-14.5-1 2-10c7.541 0 24 4.327 24 13ZM234 41c1.287 0 3.637 4 6 4l6.5-6 13.5-1-2-10c-6.598 0-24 4.324-24 13Z"/><path fill="#1F9C58" id="MOp2/3" d="m286 44 1 5c-8.119 0-16.998-11-27-11l-2-10c8.088 0 16.642 2 25 2v1c0 3.636 3 8.888 3 13Z"/><path fill="#187F64" id="SSp-ll2/3" d="M170 44c-9.336 0-17.765 7-27 7-1.773 0-8-9.896-8-11 0-1.233 7.258-2.379 8.5-3 8.872-4.436 18.762-6 29.5-6 0 2.443-1.371 7.241-2 8.5-.574 1.147 1.064 4.5-1 4.5ZM313 52h1l7-12c0-1.233-7.258-2.379-8.5-3-8.957-4.479-18.633-6-29.5-6 0 3.636 3 8.888 3 13 7.068 0 13.317 5 20 5 1.176 0 7 2.114 7 3Z"/><path fill="#197E64" id="SSp-ul1" d="M110 46c1.014 0 2 3.959 2 5l22-11-2-5c-5.03 0-12.046 5.773-16.5 8-1.216.608-5.5 1.184-5.5 3ZM344 51h1c0-2.813 1-3.921 1-6-7.265 0-14.322-10-22-10l-2 5 22 11Z"/><path fill="#1F9D58" id="MOs5" d="M191 54c1.891 0 14-3.163 14 1l11-9v-1l-5.5-6-14.5-1v1c0 4.964-5 10.275-5 15ZM265 54c-2.824 0-8.268-2.616-11.5-1l-2.5 2c-3.946 0-6.638-9-11-9v-1l6.5-6 13.5-1c0 5.393 5 10.395 5 16Z"/><path fill="#1E9C5A" id="MOp5" d="m266 55 24 12c0-2.56-2.251-16-2-16l-1-2c-8.119 0-16.998-11-27-11 0 5.393 5 10.395 5 16l1 1ZM191 55c-8.478 0-15.479 11-24 11 0-5.67 2-10.808 2-16 4.994 0 15.904-11 27-11 0 4.964-5 10.275-5 15v1Z"/><path fill="#3EA665" id="ACAd1" d="M223 64h10c0-7.781 1-15.793 1-23l-4-2c-.476 0-3 3.803-3 0l-4 2v23Z"/><path fill="#197F61" id="SSp-ul2/3" d="M143 52c-8.189 0-19.545 12-27 12l-4-13 22-11h1c0 1.104 6.227 11 8 11v1ZM314 52c7.437 0 19.38 12 26 12 1.301 0 4-11.157 4-13l-22-11h-1l-7 12Z"/><path fill="#40A565" id="ACAd2/3" d="m223 64-5 1c0-4.869-1-9.648-1-14 0-1.234.643-5-1-5v-1c1.417 0 6-2.383 6-4h1v23ZM233 64l6 1c0-6.244 1-13.428 1-19v-1c-2.363 0-4.713-4-6-4 0 7.207-1 15.219-1 23Z"/><path fill="#1C7F64" id="SSp-ll4" d="M143 52c0 2.83 4 4.54 4 7l22-9 1-6c-9.336 0-17.765 7-27 7v1ZM309 59h1l3-7c0-.886-5.824-3-7-3-6.683 0-12.932-5-20-5l1 5 1 2c5.023 0 11.167 3.833 15.5 6 1.114.557 5.5.41 5.5 2Z"/><path fill="#1B8062" id="SSp-un1" d="M359 53v6c-4.892 0-9.325-8-14-8 0-2.813 1-3.921 1-6 1.603 0 13 6.732 13 8ZM97 53l1 6 14-8c0-1.041-.986-5-2-5-2.033 0-13 5.271-13 7Z"/><path fill="#3EA566" id="ACAd5" d="M218 65c-3.97 0-7.109 6-11 6 0-2.688-.222-15-2-15v-1l11-9c1.643 0 1 3.766 1 5 0 4.352 1 9.131 1 14ZM239 66c3.879 0 6.823 5 10 5 0-1.549 1.073-14 2-14v-2c-3.946 0-6.638-9-11-9 0 5.572-1 12.756-1 19v1Z"/><path fill="#197C63" id="SSp-ll5" d="M152 71h1l14-4v-1c0-5.67 2-10.808 2-16l-22 9 5 12Z"/><path fill="#1C7F63" id="SSp-un2/3" d="M99 73h1l16-8v-1l-4-13-14 8-1 1c0 2.68 1.68 1-1 1l1 2.5-3 1.5c0 3.205 5 5.09 5 8Z"/><path fill="#197C63" id="SSp-ll5" d="M303 71h1l5-12c0-1.59-4.386-1.443-5.5-2-4.333-2.167-10.477-6-15.5-6-.251 0 2 13.44 2 16 4.728 0 8.359 4 13 4Z"/><path fill="#1C7F63" id="SSp-un2/3" d="M356 73h1c0-3.724 6-4.054 6-8-2.307 0-4-2.879-4-5v-1c-4.892 0-9.325-8-14-8h-1c0 1.843-2.699 13-4 13v1c2.068 0 16 6.965 16 8Z"/><path fill="#1A7F63" id="SSp-ul4" d="M116 65c2.102 0 .058 7 3 7 7.82 0 19.104-13 28-13 0-2.46-4-4.17-4-7-8.189 0-19.545 12-27 12v1ZM337 72h1l2-7v-1c-6.62 0-18.563-12-26-12h-1l-3 7c6.937 0 21.837 13 27 13Z"/><path fill="#188060" id="SSp-bfd1" d="m96 61-5 2-5-3c3.502 0 7.048-7 11-7l1 6-1 1-1 1Z"/><path fill="#1D9C5A" id="MOs6a" d="M188 77h1c0-1.638 3.576-2 5-2h1c0-7.553 10-15.029 10-19v-1c0-4.163-12.109-1-14-1v1c0 5.655-3 13.68-3 22ZM263 75l5 1c0-1.804 2.182-5.135 1-7.5-1.712-3.424-3-9.556-3-13.5l-1-1c-2.824 0-8.268-2.616-11.5-1l-2.5 2v2c4.131 0 11 14.057 11 18h1Z"/><path fill="#188060" id="SSp-bfd1" d="M364 63h1c2.871 0 2.556-2 6-2 0-1.933-10.099-8-12-8v7c2.364 0 3.053 3 5 3Z"/><path fill="#1F9B5A" id="MOp6a" d="m171 83-5 1c0-4.294 1-11.218 1-17v-1c8.521 0 15.522-11 24-11 0 5.655-3 13.68-3 22-1.424 0-5 .362-5 2-2.029 0-12 2.051-12 4ZM268 77c8.017 0 15.106 7 23 7l-1-17-24-12c0 3.944 1.288 10.076 3 13.5 1.182 2.365-1 5.696-1 7.5v1Z"/><path fill="#3FA664" id="ACAd6a" d="M198 79h1l8-7v-1c0-2.688-.222-15-2-15 0 3.971-10 11.447-10 19l3 4ZM257 79h1l4-4c0-3.943-6.869-18-11-18-.927 0-2 12.451-2 14v1c1.734 0 8 5.01 8 7Z"/><path fill="#187F63" id="SSp-bfd2/3" d="m98 59-1 1 1-1Z"/><path fill="#187E62" id="SSp-ul5" d="M119 73c.468 0 4 9.823 4 11 .31 0 22.502-10.002 23-10.5 1.159-1.16 6-.11 6-2.5l-5-12c-8.896 0-20.18 13-28 13v1ZM337 72c0 2.091-1.913 11-4 11l-21.5-9c-1.401-.7-7.5-1.04-7.5-3l5-12h1c6.937 0 21.837 13 27 13Z"/><path fill="#197E63" id="SSp-n1" d="M53 111h1c0-9.414 17.012-29.512 24.5-37 2.528-2.528 9.111-10 12.5-10v-1l-5-3-11.5 10C67.1 77.4 49 98.816 49 108l4 3Z"/><path fill="#187F63" id="SSp-bfd2/3" d="m97 60-1 1c2.68 0 1 1.68 1-1Z"/><path fill="#187F63" id="SSp-bfd2/3" fill-rule="evenodd" d="M360 61c0 1.93 1.93 0 0 0m4 2-1 2c-2.307 0-4-2.879-4-5 2.364 0 3.053 3 5 3Z"/><path fill="#187F63" id="SSp-bfd2/3" d="m91 64 3 1 3-1.5-1-2.5-5 2v1Z"/><path fill="#1C7F63" id="SSp-un2/3" d="M360 61c0 1.93 1.93 0 0 0Z"/><path fill="#197E63" id="SSp-n1" d="M402 111h1l4-4c0-7.95-19.377-34.439-26.5-38-2.785-1.392-6.061-8-9.5-8-3.444 0-3.129 2-6 2l14 11.5c7.573 7.573 23 26.374 23 36.5Z"/><path fill="#1B7F64" id="SSp-n2/3" d="M402 111c0 2.098-6.472 4-8 4-1.999 0-5.995-12.491-7-14.5-4.195-8.39-20.018-27.5-30-27.5 0-3.724 6-4.054 6-8l1-2h1l14 11.5c7.573 7.573 23 26.374 23 36.5ZM62 116h1c0-11.102 23.982-43 36-43 0-2.91-5-4.795-5-8l-3-1c-3.389 0-9.972 7.472-12.5 10-7.488 7.488-24.5 27.586-24.5 37l8 5Z"/><path fill="#3FA566" id="ACAv2/3" d="m222 96-3 1c0-9.91-1-21.42-1-32l5-1c0 10.355-1 21.268-1 31v1Z"/><path fill="#40A664" id="ACAv1" d="m227 89-5 6c0-9.732 1-20.645 1-31h10c0 10.487 1 21.065 1 31l-5-7c0-4.347-2-2.153-2 1Z"/><path fill="#3FA566" id="ACAv2/3" d="m234 96 4 1 1-31v-1l-6-1c0 10.487 1 21.065 1 31v1Z"/><path fill="#197E61" id="SSp-un4" d="M105 80h1c2.694 0 8.43-7 13-7v-1c-2.942 0-.898-7-3-7l-16 8c0 2.96 5 4.266 5 7Z"/><path fill="#3EA666" id="ACAv5" d="M210 95c1.523 0 5.626 2 9 2 0-9.91-1-21.42-1-32-3.97 0-7.109 6-11 6v1c0 8.429 3 15.035 3 23Z"/><path fill="#197E61" id="SSp-un4" d="M356 73c0 3.153-5 4.304-5 7-1.454 0-13-7.033-13-8l2-7c2.068 0 16 6.965 16 8Z"/><path fill="#3EA666" id="ACAv5" d="M246 95c0 3.013-6.952 2-8 2l1-31c3.879 0 6.823 5 10 5v1c0 8.406-3 15.465-3 23Z"/><path fill="#1A7F64" id="SSp-ll6a" d="m166 84-8 3-5-16 14-4c0 5.782-1 12.706-1 17ZM298 87h1c0-6.084 4-10.027 4-16-4.641 0-8.272-4-13-4l1 17v1c3.066 0 4.417 2 7 2Z"/><path fill="#197D61" id="SSp-ul6a" d="M137 97c-3.238 0-5.3 3-8 3 0-1.86-4.866-15-6-15v-1c.31 0 22.502-10.002 23-10.5 1.159-1.16 6-.11 6-2.5h1l5 16c-1.351 0-9 4.625-9 6-2.383 0-12 1.535-12 4ZM327 100h1c0-5.765 5-10.276 5-16v-1l-21.5-9c-1.401-.7-7.5-1.04-7.5-3h-1c0 5.973-4 9.916-4 16 0 3.032 28 11.379 28 13Z"/><path fill="#40A564" id="ACAv6a" d="M209 95h1c0-7.965-3-14.571-3-23l-8 7c0 5.752 9 9.406 9 15l1 1ZM246 95h2v-1l1-1c0-5 8-8.467 8-14 0-1.99-6.266-7-8-7 0 8.406-3 15.465-3 23Z"/><path fill="#197D62" id="SSp-un5" d="M333 84c3.893 0 6.712 5 11 5 0-2.49 5.103-8 7-8v-1c-1.454 0-13-7.033-13-8h-1c0 2.091-1.913 11-4 11v1Z"/><path fill="#1A8062" id="SSp-n4" d="M68 121h1c0-9.3 17.766-26.266 25-33.5l11-7.5c0-2.734-5-4.04-5-7h-1c-12.018 0-36 31.898-36 43 0 2.991 5 1.727 5 5Z"/><path fill="#197D62" id="SSp-un5" d="M123 85c-4.046 0-6.085 4-10 4l-7-9c2.694 0 8.43-7 13-7 .468 0 4 9.823 4 11v1Z"/><path fill="#1A8062" id="SSp-n4" d="M387 121h1l6-5v-1c-1.999 0-5.995-12.491-7-14.5-4.195-8.39-20.018-27.5-30-27.5h-1c0 3.153-5 4.304-5 7v1c4.904 0 8.358 5.93 12.5 8 5.119 2.56 23.5 23.869 23.5 32Z"/><path fill="#1E9C58" id="MOs6b" d="M189 77h5v-2c-1.424 0-5 .362-5 2Z"/><path fill="#3FA466" id="ACAd6b" d="m194 77 4 2-3-4h-1v2ZM258 79v1c1.947 0 2.636-3 5-3v-2h-1l-4 4Z"/><path fill="#1E9C58" id="MOs6b" d="M268 77v1l-5-1v-2l5 1v1Z"/><path fill="#1D9D5A" id="MOp6b" d="m188 78-5 1c0-1.638 3.576-2 5-2v1Z"/><path fill="#1E9C58" id="MOs6b" d="m189 77-1 1v-1h1Z"/><path fill="#CACCC7" id="cing" d="m208 94 1 1c-8.461 0-10.011-8.756-16.5-12-7.565-3.783-15.291 4-22.5 4h-6l2-2c1.622 0 5 .46 5-2 2.383 0 12-1.535 12-4l5-1 1-1h5l4 2c0 2.36 7.727 15 10 15ZM248 94v1c7.372 0 13.539-10.02 19.5-13 3.527-1.764 15.206 5 19.5 5h6l-2-2c-8.242 0-15.11-7-23-7l-5-1c-2.364 0-3.053 3-5 3 0 2.666-5.493 13-9 13l-1 1Z"/><path fill="#1D9D5A" id="MOp6b" d="M291 84v1c-8.242 0-15.11-7-23-7v-1c8.017 0 15.106 7 23 7ZM183 79c-2.029 0-12 2.051-12 4 2.383 0 12-1.535 12-4Z"/><path fill="#40A465" id="ACAv6b" d="M199 79c0 5.752 9 9.406 9 15-2.273 0-10-12.64-10-15h1ZM258 80c0 2.666-5.493 13-9 13 0-5 8-8.467 8-14h1v1Z"/><path fill="#197E62" id="SSp-n5" d="M77 127h1c0-12.848 20.186-28.843 30.5-34 1.978-.99 2.023-3 4.5-3v-1l-7-9h-1l-11 7.5c-7.234 7.234-25 24.2-25 33.5 3.374 0 5.875 6 8 6ZM378 127h1l8-6c0-8.131-18.381-29.44-23.5-32-4.142-2.07-7.596-8-12.5-8-1.897 0-7 5.51-7 8v1l10.5 7c8.766 4.383 23.5 19.878 23.5 30Z"/><path fill="#C9C7C9" id="ccb" d="M369 151c0 5.277 4 8.82 4 14-1.609 0-3.304-7.109-4-8.5-4.31-8.619-10.643-16.286-15-25l-8.5-8.5c-3.948-1.974-7.737-9.368-13-12-12.138-6.069-20.591-9-35.5-9l-4.5-5-12-5c-1.422-.71-10.5-.232-10.5 1-3.428 0-17 5.934-17 9-4.364 0-8.259 2-12 2 0-1.684-4.679-1-6-1h-15c-1.235 0-5-.643-5 1-3.378 0-6.922-2-11-2-3.728 0-7.605-7-12-7l-1-1h-1l-1-1h-2c0-1.58-2.855-1-4-1-2.531 0-13-.169-13 3-5.5 0-8.044 7-11 7-25.22 0-22 4.25-41.5 14-7.473 3.737-11.883 15.941-18 19-3.435 1.718-12.858 26-14.5 26 0-3.947 3-6.628 3-10l1-2v-2l1-1 1-2v-1c1.948 0 4-5.428 4-7 1.803 0 3-3.592 3-5 1.712 0 3-2.571 3-4 1.901 0 5-4.332 5-6l1-1 3-3 1-1 1-1 2-2c3.837 0 8.111-6.306 11.5-8 10.207-5.104 21.746-6.873 32-12 1.959-.98 12.5-3.523 12.5-6 7.209 0 14.935-7.783 22.5-4 6.489 3.244 8.039 12 16.5 12h1c1.523 0 5.626 2 9 2l3-1 4.5 1 2-2 1 2c1.008.504 4.5.22 4.5-1l4 1c1.048 0 8 1.013 8-2h2c7.372 0 13.539-10.02 19.5-13 3.527-1.764 15.206 5 19.5 5 0 2.563 9.555 5.028 11.5 6 11.534 5.767 24.422 8.211 36 14 8.457 4.229 22.093 19.687 26.5 28.5l6 11.5v1l1 1v1l1 1Z"/><path fill="#1D9D5A" id="MOp6b" d="M166 84v1c1.622 0 5 .46 5-2l-5 1Z"/><path fill="#197F62" id="SSp-ll6b" d="M164 87c-2.483 0-4.026 2-6 2v-2l8-3v1l-2 2Z"/><path fill="#1A7F61" id="SSp-un6a" d="m328 100 7 3c5.09 0 4.517-13 9-13v-1c-4.288 0-7.107-5-11-5 0 5.724-5 10.235-5 16ZM129 100l-8 4c0-5.253-8-9.124-8-14v-1c3.915 0 5.954-4 10-4 1.134 0 6 13.14 6 15Z"/><path fill="#197F62" id="SSp-ll6b" d="M298 87v2l-5-2-2-2c3.066 0 4.417 2 7 2Z"/><path fill="#1C8064" id="SSp-ul6b" d="m158 89-9 4c0-1.375 7.649-6 9-6v2Z"/><path fill="#C9C9CA" id="scwm" d="m121 105-7 8c3.837 0 8.111-6.306 11.5-8 10.207-5.104 21.746-6.873 32-12 1.959-.98 12.5-3.523 12.5-6h-6c-2.483 0-4.026 2-6 2l-9 4c0 1.616-9.991 4-12 4l-8 4-8 4ZM364 139l3 8-6-11.5c-4.407-8.813-18.043-24.271-26.5-28.5-11.578-5.789-24.466-8.233-36-14-1.945-.972-11.5-3.437-11.5-6h6l5 2c3.281 0 24.415 12 29 12l8 4 7.5 7c4.057 4.057 20.5 20.638 20.5 25l1 2Z"/><path fill="#1C8064" id="SSp-ul6b" d="M327 100v1c-4.585 0-25.719-12-29-12v-2h1c0 3.032 28 11.379 28 13Z"/><path fill="#7ED04B" id="IG" d="m222 96 4.5 1 2-2 1 2c1.008.504 4.5.22 4.5-1v-1l-5-7-2 1-5 6v1Z"/><path fill="#187D62" id="SSp-n6a" d="M91 137h1l1-1c0-2.127 11.363-18 14-18 0-1.26 3.346-5 5-5 0-2.158 7.062-8 9-8v-1c0-5.253-8-9.124-8-14-2.477 0-2.522 2.01-4.5 3C98.186 98.157 78 114.152 78 127c0 1.378 11.169 10 13 10ZM365 137h1c1.901 0 12-9.11 12-10 0-10.122-14.734-25.617-23.5-30L344 90c-4.483 0-3.91 13-9 13v1l8.5 7c4.667 4.667 20.5 20.52 20.5 26h1Z"/><path fill="#AAA8A9" id="SEZ" d="M187 93c-6.351 0-11.29 2-17 2 0-3.169 10.469-3 13-3 1.145 0 4-.58 4 1ZM297 102l-4 2c0-10.048-13.951-11-23-11 0-1.232 9.078-1.71 10.5-1l12 5 4.5 5Z"/><path fill="#1C8064" id="SSp-ul6b" d="M149 93c-2.383 0-12 1.535-12 4 2.009 0 12-2.384 12-4Z"/><path fill="#A8AAAA" id="VL" fill-rule="evenodd" d="M194 103c0 4.827-22.838 25.831-14.5 30 7.579 3.789 27.691-30 14.5-30m-17 41h2c0-3.643 10.402-11.902 13-14.5l4-4.5c0-7.399 8-17.611 8-23-3.728 0-7.605-7-12-7l-1-1h-1l-1-1h-2c-6.351 0-11.29 2-17 2 0 2.057-6 .233-6 9l10 15.5c3.509 7.018 3 16.023 3 24.5Z"/><path fill="#AAA8A9" id="SEZ" d="m189 93 1 1-1-1Z"/><path fill="#40A465" id="ACAv6b" d="m249 93-1 1 1-1Z"/><path fill="#A8AAAA" id="VL" fill-rule="evenodd" d="M259 103c0 8.652.648 17.148 7.5 24 2.004 2.004 8.959 9.581 11.5 4.5 1.769-3.538-13.63-27.565-15.5-28.5H259m19 41h1l2-21.5 6-9c.729-1.459 3.297-8.5 5-8.5l1-1c0-10.048-13.951-11-23-11-3.428 0-17 5.934-17 9 0 7.999 8 15.746 8 24 1.389 0 15.329 18 17 18Z"/><path fill="#AAA8A9" id="SEZ" d="m191 94 1 1-1-1ZM159 102c0 .672 4.329 2 5 2 0-8.767 6-6.943 6-9-5.5 0-8.044 7-11 7Z"/><path fill="#1C8064" id="SSp-ul6b" d="M129 100v1l8-4c-3.238 0-5.3 3-8 3Z"/><path fill="#1A7D63" id="SSp-un6b" d="M121 104v1l8-4v-1l-8 4ZM335 104v1l-8-4v-1h1l7 3v1Z"/><path fill="#98D5F9" id="CP" d="M130 230c-.244 0-13.037 2.769-13.5 3l-3.5 2c-6.825 0-15.094-9.689-18-15.5-.728-1.456-1.87-7.5-4-7.5v-1c0-5.699-5.479-14.457-8-19.5-.846-1.692-.401-14.5-2-14.5v-4l1-2v-2l1-1v-1c1.353 0 2-4.643 2-6 1.642 0 11.065-24.282 14.5-26 6.117-3.059 10.527-15.263 18-19 19.5-9.75 16.28-14 41.5-14 0 .672 4.329 2 5 2l10 15.5c3.509 7.018 3 16.023 3 24.5v3l-3.5 6c-3.75 1.875-6.491 0-10.5 0-1.622 0-5-.461-5 2l-1 2v3c-1.175 0-2 5.704-2 7 0 3.509-6.389 9.279-8 12.5-2.941 5.881-2 15.46-2 22.5-2.261 0-.297 6.094-1 7.5-1.507 3.015-.508 7.016-2 10l-3 4.5-2 1-7 5Z"/><path fill="#90CBEC" id="LSc" d="M196 125c0 4.343 8.574 1 11 1 0-1.316 14-12.509 14-18l-1-1c0-1.803-3.592-3-5-3-3.378 0-6.922-2-11-2 0 5.389-8 15.601-8 23ZM249 126c1.496 0 12 2.576 12 0 0-8.254-8-16.001-8-24-4.364 0-8.259 2-12 2l-4 2-1 1v2c0 5.566 13 15.726 13 17Z"/><path fill="#98D5F9" id="CP" d="m353 231-9 4c0-1.951-2.454-.477-3.5-1-1.301-.65-12.64-4-13.5-4 0-.81-6.749-5-8-5l-5-6.5-2-18.5c0-5.719-.51-16.52-3-21.5l-7-10.5c0-1.257-2.111-10-3-10l-1-4-1-1h-4c-3.695 0-5.887 1.807-9.5 0-2.298-1.149-3.526-8-4.5-8v-1l2-21.5 6-9c.729-1.459 3.297-8.5 5-8.5l1-1 4-2c14.909 0 23.362 2.931 35.5 9 5.263 2.632 9.052 10.026 13 12l8.5 8.5c4.357 8.714 10.69 16.381 15 25 .696 1.391 2.391 8.5 4 8.5v1l1 2v1l1 2v14c-1.175 0-2 5.704-2 7v1l-2 4v1c-1.638 0-2 3.576-2 5-1.817 0-4 7.169-4 9v1c-2.109 0-2 2.535-2 4l-1 2-1 2c-1.577 0-2 1.762-2 3-1.988 0-6 5.237-6 7Z"/><path fill="#A9AAA8" id="chpl" d="M194 103c0 4.827-22.838 25.831-14.5 30 7.579 3.789 27.691-30 14.5-30Z"/><path fill="#CBC8CC" id="df" d="M233 107h3l1-1 4-2c0-1.684-4.679-1-6-1h-15c-1.235 0-5-.643-5 1 1.408 0 5 1.197 5 3h13Z"/><path fill="#A9AAA8" id="chpl" d="M259 103c0 8.652.648 17.148 7.5 24 2.004 2.004 8.959 9.581 11.5 4.5 1.769-3.538-13.63-27.565-15.5-28.5H259Z"/><path fill="#AAA8A9" id="SEZ" d="m293 104-1 1 1-1Z"/><path fill="#1B7E64" id="SSp-n6b" d="M363 137h1c0-5.48-15.833-21.333-20.5-26l-8.5-7v1l7.5 7c4.057 4.057 20.5 20.638 20.5 25ZM112 113h2l7-8c-1.938 0-9 5.842-9 8Z"/><path fill="#97D6F9" id="STR" d="m237 106-1 1 1-1ZM223 107l-2 1-1-1h3Z"/><path fill="#8FCBEC" id="SF" fill-rule="evenodd" d="M225 116c0 .515-16.786 10.927-13 18.5 1.269 2.539 11.785-.5 13.5-.5l18 1c3.325-1.662-.309-8.309-2-10-5.369-5.369-7.314-9-16.5-9m-24 31-1 1c0 8.788 9.709-4 10-4v-1c0-3.181 4.87-2.185 6.5-3 3.855-1.928 29.5-2.014 29.5 3l1 1c0 4.16 9 10.765 9 3l-1-1-1-1c-2.406 0-8.379-12.741-7-15.5l2-3.5c0-1.274-13-11.434-13-17l-3-2h-10l-2 1c0 5.491-14 16.684-14 18l2 2.5c1.038 2.075-1.123 9.247-2 11l-6 7.5Z"/><path fill="#97D6F9" id="STR" d="M236 107v2l-3-2h3Z"/><path fill="#1A7E62" id="SSs1" d="M417 175h4c0-18.195-.464-36.428-8-51.5-1.035-2.069-4.169-16.5-6-16.5l-4 4c0 6.069 5.33 15.16 8 20.5 3.647 7.293 6 33.714 6 43.5ZM35 175h4c0-9.062 2.462-34.423 6-41.5 2.903-5.806 8-15.866 8-22.5l-4-3c-1.503 0-4.942 14.383-6 16.5-7.243 14.485-8 33.079-8 50.5Z"/><path fill="#1B8063" id="SSs2/3" d="M39 175h8c0-9.238 4.28-33.062 8-40.5 2.403-4.806 7-13.046 7-18.5l-8-5h-1c0 6.634-5.097 16.694-8 22.5-3.538 7.077-6 32.438-6 41.5ZM409 175h8c0-9.786-2.353-36.207-6-43.5-2.67-5.34-8-14.431-8-20.5h-1c0 2.098-6.472 4-8 4v1c0 4.638 4.891 13.282 7 17.5 3.833 7.666 8 31.754 8 41.5Z"/><path fill="#1B7E64" id="SSp-n6b" d="m110 117-3 1c0-1.26 3.346-5 5-5v2l-1 1-1 1Z"/><path fill="#C9C9CA" id="scwm" d="m114 113-2 2v-2h2ZM112 115l-1 1 1-1Z"/><path fill="#187C63" id="SSs4" d="M47 175h6c0-7.562 2.83-27.159 6-33.5l9-20.5c0-3.273-5-2.009-5-5h-1c0 5.454-4.597 13.694-7 18.5-3.72 7.438-8 31.262-8 40.5Z"/><path fill="#C9C9CA" id="scwm" d="m111 116-1 1 1-1Z"/><path fill="#96A7D2" id="TRS" d="M225 116c0 .515-16.786 10.927-13 18.5 1.269 2.539 11.785-.5 13.5-.5l18 1c3.325-1.662-.309-8.309-2-10-5.369-5.369-7.314-9-16.5-9Z"/><path fill="#187C63" id="SSs4" d="M403 175h6c0-9.746-4.167-33.834-8-41.5-2.109-4.218-7-12.862-7-17.5l-6 5 9 19.5c3.719 7.438 6 25.519 6 34.5Z"/><path fill="#C9C9CA" id="scwm" d="M107 118v2l3-3-3 1Z"/><path fill="#1B7E64" id="SSp-n6b" d="M94 136h1c0-1.408 1.197-5 3-5 0-1.429 1.288-4 3-4 0-1.668 3.099-6 5-6l1-1v-2c-2.637 0-14 15.873-14 18h1Z"/><path fill="#C9C9CA" id="scwm" d="m107 120-1 1 1-1Z"/><path fill="#1C8063" id="SSs5" d="M53 175h12c0-8.842 4.406-31.313 8-38.5 1.461-2.922 4-6.023 4-9.5-2.125 0-4.626-6-8-6h-1l-9 20.5c-3.17 6.341-6 25.938-6 33.5Z"/><path fill="#C9C9CA" id="scwm" d="M106 121c-1.901 0-5 4.332-5 6 1.901 0 5-4.332 5-6Z"/><path fill="#1C8063" id="SSs5" d="M391 175h12c0-8.981-2.281-27.062-6-34.5l-9-19.5h-1l-8 6 6 14.5c3.355 6.71 6 25.045 6 33.5Z"/><path fill="#CBC8CB" id="fi" d="M192 152h1l7-4 1-1 6-7.5c.877-1.753 3.038-8.925 2-11l-2-2.5c-2.426 0-11 3.343-11-1l-4 4.5c-2.598 2.598-13 10.857-13 14.5 0 8.928 5.773 8 13 8ZM256 147c2.46 0 4.17 4 7 4 4.844 0 15 6.457 15-7-1.671 0-15.611-18-17-18 0 2.576-10.504 0-12 0l-2 3.5c-1.379 2.759 4.594 15.5 7 15.5l1 1 1 1Z"/><path fill="#197D63" id="SSs6a" d="M65 175h14c0-1.551 2.542-12 4-12 0-9.025 8-16.591 8-25v-1c-1.831 0-13-8.622-13-10h-1c0 3.477-2.539 6.578-4 9.5-3.594 7.187-8 29.658-8 38.5Z"/><path fill="#C9C9CA" id="scwm" d="M101 127c-1.712 0-3 2.571-3 4 1.712 0 3-2.571 3-4Z"/><path fill="#197D63" id="SSs6a" d="M391 175c-4.607 0-10.052 1-14 1v-1c0-8.279-4.444-19.388-8-26.5-.784-1.568-1.924-9.5-4-9.5v-1l1-1c1.901 0 12-9.11 12-10h1l6 14.5c3.355 6.71 6 25.045 6 33.5Z"/><path fill="#C9C9CA" id="scwm" d="M98 131c-1.803 0-3 3.592-3 5 1.803 0 3-3.592 3-5Z"/><path fill="#1B7E64" id="SSp-n6b" d="M92 137h1v-1l-1 1Z"/><path fill="#188064" id="SSp-m6b" d="m94 136-1 1v-1h1Z"/><path fill="#C9C9CA" id="scwm" d="m92 139-1 4c1.948 0 4-5.428 4-7h-1l-1 1-1 2Z"/><path fill="#188064" id="SSp-m6b" d="m91 138 1 1 1-2h-2v1ZM364 139h1v-2h-2l1 2Z"/><path fill="#187D61" id="SSp-m6a" d="m366 137-1 1v-1h1Z"/><path fill="#1A8061" id="SSs6b" d="m85 161-2 2c0-9.025 8-16.591 8-25l1 1-1 4v1l-1 2-1 1v2l-1 2c0 3.372-3 6.053-3 10Z"/><path fill="#C8C9C9" id="vhc" d="M244 143h2c0-5.014-25.645-4.928-29.5-3-1.63.815-6.5-.181-6.5 3h34Z"/><path fill="#1A8061" id="SSs6b" d="M376 175h1c0-8.279-4.444-19.388-8-26.5-.784-1.568-1.924-9.5-4-9.5h-1l3 8v1l1 1v1l1 1c0 5.277 4 8.82 4 14v1l1 2v1l1 2v4h1Z"/><path fill="#A8A9AA" id="V3" d="m215 167 13.5 2c3.457-1.728 9.475-2 13.5-2l2-1c4.081 0 8.364-2 13-2 2.124 0 4.436-1 6-1l1-1v-9l-1-2c-2.83 0-4.54-4-7-4 0 7.765-9 1.16-9-3-1.048 0-3 .473-3-1h-8v1c0 4.426-16 4.426-16 0v-1h-7c0 1.473-1.952 1-3 1-.291 0-10 12.788-10 4l-7 4v11l6 1c4.721 0 8.983 2 13 2l3 1Z"/><path fill="#C9C9CA" id="scwm" d="m91 144-1 2 1-2Z"/><path fill="#FF5347" id="SFO" d="M220 144c2.56 0 7.627 2.936 9.5 2 2.471-1.235 3.433-2 6.5-2 0 4.426-16 4.426-16 0Z"/><path fill="#97D6F9" id="STR" d="M286 160h3c0-2.805 4-4.541 4-7-3.695 0-5.887 1.807-9.5 0-2.298-1.149-3.526-8-4.5-8v10h2c3.814 0 5 1.007 5 5Z"/><path fill="#C9C9CA" id="scwm" d="m90 146-1 1 1-1Z"/><path fill="#97D6F9" id="STR" d="M171 159c-1.108 0-.88 1-4 1l-4-7c4.009 0 6.75 1.875 10.5 0l3.5-6v8l-1 1c-3.569 0-5-2.552-5 3Z"/><path fill="#A8A9AA" id="V3" d="m201 147-1 1 1-1Z"/><path fill="#C9C9CA" id="scwm" d="m367 148 1 1-1-1ZM89 149l-1 2 1-2ZM368 150l1 1-1-1Z"/><path fill="#A8AAAA" id="VL" d="M193 152v9c-5.699 0-1-6.587-1-9h1Z"/><path fill="#CCC" d="M171 193v12c0 16.442 8.039-15.422 6-19.5-2.595-5.19-2.374-11.748-5-17l-5-8.5-4-7c-1.622 0-5-.461-5 2l-1 2v11c4.349 0 11 13.269 11 17l1 1 1 6 1 1Z"/><path fill="#A8AAAA" id="VL" d="M264 153c3.289 0 3.289 8 0 8v-8Z"/><path fill="#CCC" d="M285 195v6l-.5 10-4.5-13.5c-3.932-7.865 3-19.677 3-26.5l2-4 4-7c0-2.805 4-4.541 4-7h4l1 1 1 4v10c-4.822 0-13 21.802-13 26l-1 1Z"/><path fill="#97D6F9" id="STR" d="m297 153 1 1-1-1ZM158 155l-1 2 1-2Z"/><path fill="#C8CBC7" id="st" d="M179 181v1c1.684 0 1-4.679 1-6l1-11.5-2-4.5-3-4c-3.569 0-5-2.552-5 3v6l1 1 3 7c1.577 0 2 1.762 2 3v2l1 1v1l1 1Z"/><path fill="#CAC7CB" id="fiber tracts" d="M179 160h1c0-2.554-3-3.688-3-5l-1 1 3 4ZM277 159h1l3-4h-2l-2 4Z"/><path fill="#C8CBC7" id="st" d="m279 177-1 4c-4.058 0-1-18.756-1-21l1-1 3-4c3.814 0 5 1.007 5 5l-1 6-1 1-1 4c-1.577 0-2 1.762-2 3l-1 1-1 2Z"/><path fill="#FD909E" id="AV" d="m188 160 3 5.5c-.782 1.564-3.485.03-4-1l-2-2.5v-4.5l3 2.5ZM271 163l-1 1-2.5 2c-3.577 1.789-.5-3.253-.5-5 .013 0 7.608-5.716 5-.5l-1 2.5Z"/><path fill="#97D6F9" id="STR" d="M299 168h3c0-1.257-2.111-10-3-10v10Z"/><path fill="#8599CC" id="PAL" d="M165 213c5.346 0 2.904 12 6 12 0-5.439 3.726-9.953 6-14.5.465-.93.817-4.5 2-4.5v-25l-1-1v-1l-1-1v-2l-2-3-3-7-1-1v-6c-1.108 0-.88 1-4 1l5 8.5c2.626 5.252 2.405 11.81 5 17 2.039 4.078-6 35.942-6 19.5l-6 8Z"/><path fill="#CAC7CB" id="fiber tracts" d="M276 160h1v-1l-1 1Z"/><path fill="#B3C0DE" id="BST" d="m278 159-1 1v-1h1Z"/><path fill="#97D6F9" id="STR" d="m155 167 2 1v-8c-1.175 0-2 5.704-2 7Z"/><path fill="#B3C0DE" id="BST" d="m179 221 8 11c2.991 0 6.155 5.173 10.5 3 19.428-9.714 3.5-19.509 3.5-32v-1l-1-1-1-2-1-1-1-2c-2.074 0-6.5-7-4-7v-11c0-3.47-3-5.278-3-8l-10-10h-1l2 4.5-1 11.5c0 1.321.684 6-1 6v39Z"/><path fill="#FF6F80" id="TH" d="m195 177-2 1c0-3.47-3-5.278-3-8l-5-8 2 2.5c.515 1.03 3.218 2.564 4 1l-3-5.5 5 3 6 1-1 4-1 1v2l-1 2v1l-1 2v1Z"/><path fill="#B3C0DE" id="BST" d="m269 232-1 1-3.5 2c-7.931 3.966-12.325-6.15-14.5-10.5-.662-1.324-1.897-4.206-1-6 1.471-2.942 4-3.849 4-7.5.816 0 2-7.019 2-8l1-1 3-5 1-1c2.767 0 4-4.975 4-7v-4l-1-1v-7l3-6 1-1v-1l1-1 1-1 1-1 6-6h1c0 2.244-3.058 21 1 21v39l-9 12Z"/><path fill="#8599CC" id="PAL" d="M285 166v1l4-7h-3l-1 6Z"/><path fill="#C9C7C9" id="ccb" d="M83 163v4c1.353 0 2-4.643 2-6l-2 2Z"/><path fill="#FF6F80" id="TH" d="m261 176 2 1 3-6 1-1v-1l1-1 1-1 1-1v-2l-2.5 2c-3.577 1.789-.5-3.253-.5-5l-3 1-1 1c-1.564 0-3.876 1-6 1 0 1.974 2 3.517 2 6l1 1v2l1 1v2Z"/><path fill="#1A8061" id="SSs6b" d="m81 175-2 1v-1c0-1.551 2.542-12 4-12v5l-1 1v2l-1 2v2Z"/><path fill="#FF6F80" id="TH" d="m271 163-1 1 1-1Z"/><path fill="#CCC9C8" id="sm" d="M206 201h1c0-1.257.454-10 1-10 0-5.615-.332-11.836 2-16.5.65-1.3.007-6.5 2-6.5v-2c-4.017 0-8.279-2-13-2l-1 4-1 1v2l-1 2v1l-1 2v1c0 1.145.579 4-1 4l-1 2v6l2 2c5.822 0 5.782 10 11 10ZM249 201l2 1c3.458 0 6.028-11 10-11l3-2v-4l-1-1v-3c-1.638 0-2-3.576-2-5v-2l-1-1v-2l-1-1c0-2.483-2-4.026-2-6-4.636 0-8.919 2-13 2v2c2.409 0 5 18.598 5 22v11Z"/><path fill="#B3C0DE" id="BST" d="m171 165 1 1-1-1Z"/><path fill="#FF6F80" id="TH" d="m212 168 3 1v-2l-3-1v2ZM242 168h2v-2l-2 1v1Z"/><path fill="#B3C0DE" id="BST" d="M284 167h1v-1l-1 1Z"/><path fill="#C9C7C9" id="ccb" d="m373 166 1 2-1-2Z"/><path fill="#8598CC" id="GPe" d="m159 215-2 1c-7.87 0-11.161-9-12-9v-5c0-7.04-.941-16.619 2-22.5 1.611-3.221 8-8.991 8-12.5l2 1c4.349 0 11 13.269 11 17l1 1 1 6 1 1v12l-6 8h-2l-1 1-3 1Z"/><path fill="#FE8F9E" id="PVT" d="M237 199c0 4.447-14.969 1-18 1 0-3.521 3.792-8.915 2-12.5l-6-18.5v-2l13.5 2c3.457-1.728 9.475-2 13.5-2v1l-6 16.5 1 14.5Z"/><path fill="#8599CC" id="PAL" d="m285 167-2 4 1-4h1Z"/><path fill="#8598CC" id="GPe" d="M296 215h1l7.5 1 6.5-8c0-1.49-.735-8 1-8 0-5.719-.51-16.52-3-21.5l-7-10.5h-3c-4.822 0-13 21.802-13 26l-1 1v6c1.781 0 1.348 6.197 2 7.5l5 4.5h1l1 1h1l1 1Z"/><path fill="#C9C7C9" id="ccb" d="m83 168-1 1 1-1Z"/><path fill="#FF909F" id="PT" d="M208 191c0 7.057 6.132 9 11 9 0-3.521 3.792-8.915 2-12.5l-6-18.5-3-1c-1.993 0-1.35 5.2-2 6.5-2.332 4.664-2 10.885-2 16.5ZM249 190c-1.835 0-.947 6.223-2.5 7-1.231.616-4.693 5.154-7 4l-2.5-2-1-14.5 6-16.5h2c2.409 0 5 18.598 5 22Z"/><path fill="#C9C7C9" id="ccb" d="m374 169 1 2-1-2ZM82 171l-1 2 1-2Z"/><path fill="#8599CC" id="PAL" d="M285 227h1c0-3.795 1.159-14 6-14l-5-4.5c-.652-1.303-.219-7.5-2-7.5l-.5 10-4.5-13.5c-3.932-7.865 3-19.677 3-26.5-1.577 0-2 1.762-2 3l-1 1-1 2-1 4v26c1.951 0 .477 2.454 1 3.5 2.749 5.498 6 8.745 6 15.5v1Z"/><path fill="#B3C0DE" id="BST" d="M175 173c1.577 0 2 1.762 2 3l-2-3ZM281 174l-1 1 1-1Z"/><path fill="#12AD83" id="VISC1" d="m45 199-5 1-3-6.5c-2.405-4.81-2-12.741-2-18.5h4c0 3.16.537 12.574 2 15.5.912 1.824 4 6.619 4 8.5Z"/><path fill="#12AC83" id="VISC2/3" d="m46 198-1 1c0-1.881-3.088-6.676-4-8.5-1.463-2.926-2-12.34-2-15.5h8c0 3.261 3.348 18 5 18v1c-1.606 0-6 2.68-6 4Z"/><path fill="#11AC82" id="VISC4" d="m54 192-2 1c-1.652 0-5-14.739-5-18h6c0 5.675 1 11.954 1 17Z"/><path fill="#12AD82" id="VISC5" d="M54 192h1l12-5c0-3.741-2-7.636-2-12H53c0 5.675 1 11.954 1 17Z"/><path fill="#11AC83" id="VISC6a" d="m80 183-13 4c0-3.741-2-7.636-2-12h14v1l1 7Z"/><path fill="#11AD82" id="VISC6b" d="M80 183h1v-8l-2 1 1 7Z"/><path fill="#B3C0DE" id="BST" d="m280 175-1 2 1-2Z"/><path fill="#C8CBCC" id="ec" d="M375 183h1v-8h-1v8Z"/><path fill="#11AD82" id="VISC6b" d="M376 183h1v-8h-1v8Z"/><path fill="#11AC83" id="VISC6a" d="M389 187h1l1-12c-4.607 0-10.052 1-14 1v7l12 4Z"/><path fill="#12AD82" id="VISC5" d="M390 187c0 .41 10.622 5 12 5 0-5.776 1-11.033 1-17h-12l-1 12Z"/><path fill="#11AC82" id="VISC4" d="m402 192 3 1c0-5.88 4-11.167 4-18h-6c0 5.967-1 11.224-1 17Z"/><path fill="#12AC83" id="VISC2/3" d="M411 199h1c0-7.16 5-15.271 5-24h-8c0 6.833-4 12.12-4 18v1l5 4 1 1Z"/><path fill="#12AD83" id="VISC1" d="m412 199 4 1c3.462 0 5-20.421 5-25h-4c0 8.729-5 16.84-5 24Z"/><path fill="#C8CBCC" id="ec" d="m88 207 3 4c0-5.699-5.479-14.457-8-19.5-.846-1.692-.401-14.5-2-14.5v6l1 8 3 8 1 2v1l1 1v2l1 2Z"/><path fill="#B3C0DE" id="BST" d="m177 178 1 1-1-1ZM178 180l1 1-1-1Z"/><path fill="#8599CC" id="PAL" d="m194 181-1 2v-3l1 1Z"/><path fill="#009B74" id="GU6a" d="m78 193-9 1-2-7 13-4 1 8-3 2Z"/><path fill="#019C74" id="GU6b" d="M81 191h1l-1-8h-1l1 8ZM375 191h1v-8h-1v8Z"/><path fill="#009B74" id="GU6a" d="m378 193 9 1c0-2.16 2-4.167 2-7l-12-4h-1v8l2 2Z"/><path fill="#8599CC" id="PAL" d="m263 184 1 1-1-1ZM168 185l1 1-1-1Z"/><path fill="#C8CBCC" id="ec" d="M373 192h1l1-1v-6c-1.175 0-2 5.704-2 7Z"/><path fill="#019C75" id="GU5" d="m69 194-13 2-1-4 12-5 2 7ZM400 196h1l1-4c-1.378 0-12-4.59-12-5h-1c0 2.833-2 4.84-2 7l13 2Z"/><path fill="#8599CC" id="PAL" d="m195 191 2 5c-2.074 0-6.5-7-4-7l2 2ZM261 191l-1 5c2.767 0 4-4.975 4-7l-3 2Z"/><path fill="#FF6F80" id="TH" d="M223 207c2.543 0 3.639-4 5.5-4 .748 0 2.104 4 4.5 4 4.453 0 7.331-4 11-4l1-1c0-1.579 2.855-1 4-1v-11c-1.835 0-.947 6.223-2.5 7-1.231.616-4.693 5.154-7 4l-2.5-2c0 4.447-14.969 1-18 1-4.868 0-11-1.943-11-9-.546 0-1 8.743-1 10 1.622 0 5-.461 5 2 3.895 0 6.401 4 11 4Z"/><path fill="#8ADA86" id="CLA" d="m87 205-2 1c-7.548 0-7-6.954-7-13l3-2h1l3 8 1 2v1l1 1v2Z"/><path fill="#CAC7CB" id="fiber tracts" d="m201 203 3 2 2-4c-5.218 0-5.178-10-11-10l2 5 1 2 1 1 1 2 1 1v1ZM255 203l-2 2-2-3c3.458 0 6.028-11 10-11l-1 5-1 1-3 5-1 1Z"/><path fill="#019C74" id="GU6b" d="m375 191-1 1 1-1Z"/><path fill="#8ADA86" id="CLA" d="M370 202v1c0 3.496 5.638 4.224 7 1.5 2.082-4.164 1-7.39 1-11.5l-2-2h-1l-1 1-1 1-1 4-1 1v3l-1 1Z"/><path fill="#009C74" id="GU4" d="M55 196h1l-1-4h-1l-2 1v1c0 1.577 1.762 2 3 2Z"/><path fill="#8599CC" id="PAL" d="m170 192 1 1-1-1Z"/><path fill="#209766" id="AIp6a" d="m374 192-1 1v-1h1Z"/><path fill="#009C74" id="GU4" d="M405 194c-1.24 0-1.576 2-4 2l1-4 3 1v1Z"/><path fill="#209766" id="AIp6a" d="M78 213h1c0-4.337 6-4.917 6-7-7.548 0-7-6.954-7-13l-9 1c0 6.461 9 12.836 9 19Z"/><path fill="#C8CBCC" id="ec" d="M371 197h1l1-4-2 4Z"/><path fill="#209766" id="AIp6a" d="M378 213h1l8-19-9-1c0 4.11 1.082 7.336-1 11.5-1.362 2.724-7 1.996-7-1.5h-1v3c3.694 0 9 3.052 9 7Z"/><path fill="#009B75" id="GU2/3" d="M55 196c0 .981-7.758 2-9 2 0-1.32 4.394-4 6-4 0 1.577 1.762 2 3 2Z"/><path fill="#219864" id="AIp5" d="m78 213-7 3c0-1.7-15-14.056-15-20l13-2c0 6.461 9 12.836 9 19Z"/><path fill="#8599CC" id="PAL" d="m286 194-1 1 1-1Z"/><path fill="#219864" id="AIp5" d="m379 213 6 3c0-1.824 15-13.055 15-20l-13-2-8 19Z"/><path fill="#009B75" id="GU2/3" d="M401 196c0 .981 7.758 2 9 2l-5-4c-1.24 0-1.576 2-4 2Z"/><path fill="#209865" id="AIp2/3" d="M71 216c0 1.92-9.104 4-11 4 0-3.703-15-14.379-15-21l1-1c1.242 0 9-1.019 9-2h1c0 5.944 15 18.3 15 20Z"/><path fill="#8599CC" id="PAL" d="m260 196-1 1 1-1Z"/><path fill="#209865" id="AIp2/3" d="M385 216c0 1.242 9.326 4 11 4 0-3.628 15-13.962 15-21l-1-1c-1.242 0-9-1.019-9-2h-1c0 6.945-15 18.176-15 20Z"/><path fill="#209766" id="AIp6a" d="m372 197-1 1v-1h1Z"/><path fill="#8599CC" id="PAL" d="m198 198 1 1-1-1Z"/><path fill="#C8CBCC" id="ec" d="M369 203h1v-1l1-1v-3c-1.638 0-2 3.576-2 5Z"/><path fill="#219765" id="AIp1" d="m60 220-4 2c-2.509 0-16-18.99-16-22l5-1c0 6.621 15 17.297 15 21Z"/><path fill="#209766" id="AIp6a" d="m85 199 1 2-1-2Z"/><path fill="#219765" id="AIp1" d="M396 220c0 .672 4.329 2 5 2 0-3.803 15-14.565 15-22l-4-1h-1c0 7.038-15 17.372-15 21Z"/><path fill="#97D6F9" id="STR" d="M319 225c-3.591 0-4-3.445-4 2l-1-2c0-5.75-3-10.973-3-17 0-1.49-.735-8 1-8l2 18.5 5 6.5Z"/><path fill="#E64438" id="HY" d="m200 201 1 1-1-1Z"/><path fill="#C7C8CA" id="fx" d="M204 205c0 12.015 10 11.908 10 4l-2-6c0-2.461-3.378-2-5-2h-1l-2 4ZM243 209c0 12.28 7.481 2 10 2v-6l-2-3-2-1c-1.145 0-4-.579-4 1l-1 1-1 6Z"/><path fill="#209766" id="AIp6a" d="m371 201-1 1 1-1ZM86 202l1 1-1-1Z"/><path fill="#97D6F9" id="STR" d="M139 224c2.641 0 2 1.823 2 4 1.014 0 2-3.959 2-5 0-5.553 2-10.002 2-16v-5c-2.261 0-.297 6.094-1 7.5-1.507 3.015-.508 7.016-2 10l-3 4.5Z"/><path fill="#CAC7CB" id="fiber tracts" d="m245 202-1 1 1-1Z"/><path fill="#E64438" id="HY" d="m256 202-1 1 1-1ZM207 232c3.669 0 2.677-7.911 12.5-3 3.324 1.662 4.5 1.693 4.5 6 2.72 0-1.095-6 3-6v-1c-2.761 0-11.138-9.225-10-11.5l4.5-2.5c6.086-3.043 2.898 10 5.5 10v-11l-4-5-9 1c0 7.908-10 8.015-10-4l-3-2c0 12.491 15.928 22.286-3.5 32-4.345 2.173-7.509-3-10.5-3l3 6c6.251 0 11.597-6 17-6Z"/><path fill="#CAC7CB" id="fiber tracts" d="m223 208-9 1-2-6c3.895 0 6.401 4 11 4v1ZM233 208l10 1 1-6c-3.669 0-6.547 4-11 4v1Z"/><path fill="#E64438" id="HY" d="M253 205v6c.816 0 2-7.019 2-8l-2 2Z"/><path fill="#C8CBCC" id="ec" d="m368 207-3 5c0-1.831 2.183-9 4-9v3l-1 1Z"/><path fill="#209766" id="AIp6a" d="m85 206 3 1-1-2-2 1Z"/><path fill="#A0EE9C" id="EPd" d="M98 231h1v-4l-1-1-7-14v-1l-3-4-3-1c0 2.083-6 2.663-6 7v1c0 2.483 2 4.026 2 6l2 2 1 1 1 1v1h1l1 1 1 1 2 2h1l2 2h5Z"/><path fill="#E64438" id="HY" d="M171 225v2c2.062 0 4.042-6 8-6v-15c-1.183 0-1.535 3.57-2 4.5-2.274 4.547-6 9.061-6 14.5Z"/><path fill="#209766" id="AIp6a" d="m369 206-1 1 1-1Z"/><path fill="#A0EE9C" id="EPd" d="m365 230-2 1c-2.74 0-6 .626-6-3l1-1 1-3c1.577 0 2-1.762 2-3l1-2 1-2 2-4v-1l3-5 1-1c3.694 0 9 3.052 9 7l-1 5-1 1-1 1v1l-1 1-1 1-1 1-1 1-1 1-1 1h-1l-1 1-1 1-1 1Z"/><path fill="#8599CC" id="PAL" d="m157 216-14 7c0-5.553 2-10.002 2-16 .839 0 4.13 9 12 9Z"/><path fill="#E64438" id="HY" d="m278 220 3 1.5 4 4.5c0-6.755-3.251-10.002-6-15.5-.523-1.046.951-3.5-1-3.5v13Z"/><path fill="#E64438" id="HY" fill-rule="evenodd" d="M231 214c0 2.282-2.469 13.015-.5 14l4.5-3.5c3.093-6.187 6.081-10.5-4-10.5m37 19-1 5c-6.376 0-13.21-6-18-6l-3.5-3c-8.907-4.454-8.814 3-13.5 3 0-2.747-.253-3-3-3l1-17 3-4 10 1c0 12.28 7.481 2 10 2 0 3.651-2.529 4.558-4 7.5-.897 1.794.338 4.676 1 6 2.175 4.35 6.569 14.466 14.5 10.5l3.5-2Z"/><path fill="#8599CC" id="PAL" d="M297 215c0 2.308 6.963 2.232 8.5 3l8.5 7c0-5.75-3-10.973-3-17l-6.5 8-7.5-1Z"/><path fill="#A8A9AA" id="V3" d="M227 229c0 1.399 2 1.399 2 0l1-17c0-4.123-3-3.083-3 1v16Z"/><path fill="#C8CBCC" id="ec" d="M113 237h1l-1-2c-6.825 0-15.094-9.689-18-15.5-.728-1.456-1.87-7.5-4-7.5l7 14 1 1v1l7 7 3 1 2 1h2Z"/><path fill="#6ACAB9" id="PIR" d="M109 295h3c0-3.283 9-16.681 9-24 0-6.3-7-11.149-7-14-3.133 0-16.104-20-18-20l-11-12v-1l-1-1-1-1-2-2c0-1.974-2-3.517-2-6l-1-1-7 3c0 1.92-9.104 4-11 4l-4 2c0 6.498 10.445 13.39 13 18.5 4.418 8.836 17.226 37.226 23 43 4.768 4.768 10.275 11.5 17 11.5Z"/><path fill="#99D2BD" id="OLF" d="M79 213v1l-1-1h1Z"/><path fill="#8599CC" id="PAL" d="m163 213-1 1 1-1Z"/><path fill="#A2B1D7" id="SI" d="M143 249h3l2.5-2c1.082-.541 10.163 1 12.5 1 2.483 0 4.026-2 6-2l4-8.5c.951-1.902 0-8.758 0-10.5v-2c-3.096 0-.654-12-6-12h-2l-1 1-3 1-2 1-14 7c0 1.041-.986 5-2 5v6c0 3.833-1.89 8.72 0 12.5l2 2.5ZM311 249h2l1-1c0-1.911 2-8.441 2-13v-1c-1.473 0-1-1.952-1-3v-4l-1-2-8.5-7c-1.537-.768-8.5-.692-8.5-3h-1l-1-1h-1l-1-1h-1c-4.841 0-6 10.205-6 14v11.5l3 7.5c1.974 0 3.517 2 6 2 2.791 0 11.916-1.792 13.5-1l2.5 2Z"/><path fill="#8599CC" id="PAL" d="m293 213 1 1-1-1Z"/><path fill="#C8CBCC" id="ec" d="M365 213c-2.109 0-2 2.535-2 4l2-4Z"/><path fill="#6ACAB9" id="PIR" d="M344 295h3c17.074 0 34.479-42.457 41-55.5 1.905-3.81 13-13.465 13-17.5-.671 0-5-1.328-5-2-1.674 0-11-2.758-11-4l-6-3h-1l-1 5-1 1-1 1v1l-1 1-1 1-1 1-1 1-1 1-1 1-1 1-1 1c0 1.747-.253 2-2 2 0 1.797-2.203 4-4 4l-1 2c0 1.001-16.378 20-18 20l-2 2-1 2-2 2c0 2.885-2 4.697-2 8 0 7.112 9 18.865 9 24Z"/><path fill="#FF5D4F" id="PVH" d="M227 224c-2.602 0 .586-13.043-5.5-10l-4.5 2.5c-1.138 2.275 7.239 11.5 10 11.5v-4ZM231 214c0 2.282-2.469 13.015-.5 14l4.5-3.5c3.093-6.187 6.081-10.5-4-10.5Z"/><path fill="#8599CC" id="PAL" d="m295 214 1 1-1-1ZM159 215l-2 1 2-1Z"/><path fill="#C8CBCC" id="ec" d="m363 217-1 2 1-2Z"/><path fill="#99D2BD" id="OLF" d="m377 218-1 1 1-1Z"/><path fill="#C8CBCC" id="ec" d="m362 219-1 2 1-2Z"/><path fill="#99D2BD" id="OLF" d="m376 219-1 1 1-1ZM81 220l2 2-2-2Z"/><path fill="#F2473B" id="LPO" d="M264 260c0 5.285 3.081 7 8 7l11-8 1-1 1-1 1-1 1-3c0-2.16 2-4.167 2-7l-3-7.5V228l-1-1v-1l-4-4.5-3-1.5-9 12-1 1-1 5-2 4.5-1 17.5ZM193 260c0 4.855-3.46 7-8 7-5.541 0-8.314-9-13-9l-1-1v-1l-1-1-1-2-2-7 4-8.5c.951-1.902 0-8.758 0-10.5 2.062 0 4.042-6 8-6l8 11 3 6c0 7.229 3 14.149 3 22Z"/><path fill="#C8CBCC" id="ec" d="M361 221c-1.577 0-2 1.762-2 3 1.577 0 2-1.762 2-3Z"/><path fill="#99D2BD" id="OLF" d="m375 221-1 1 1-1ZM374 222l-1 1 1-1ZM84 223l1 1-1-1Z"/><path fill="#7ECDF8" id="FS" d="M341 244c0 .977-4.431 5-6 5-9.988 0-8.588-2.544-15.5-6-1.784-.892-2.048-8-3.5-8v-1c0-1.048.473-3-1-3v-4c0-5.445.409-2 4-2 1.251 0 8 4.19 8 5-8.235 0-2.181 12 4 12h1l2-1h1l1-1 1-1 5-2h2l-3 7Z"/><path fill="#99D2BD" id="OLF" d="m373 223-1 1 1-1Z"/><path fill="#97D6F9" id="STR" d="m139 224-2 1 2-1Z"/><path fill="#7ECDF8" id="FS" d="m116 245 5 4c6.075 0 12.822-.144 16-6.5l4-8.5v-6c0-2.177.641-4-2-4l-2 1-7 5c7.375 0 .525 10.488-2.5 12-5.426 2.713-8.856-5-13.5-5h-1c0 2.33 2 3.227 2 6v1l1 1Z"/><path fill="#C8CBCC" id="ec" d="M354 231h1c0-1.238.423-3 2-3l1-1 1-3c-1.988 0-6 5.237-6 7h1Z"/><path fill="#99D2BD" id="OLF" d="m372 224-1 1 1-1ZM96 234v3l-11-12h1l1 1 1 1 2 2h1l2 2h1l2 3Z"/><path fill="#8AD987" id="CTXsp" d="m86 225 1 1-1-1Z"/><path fill="#99D2BD" id="OLF" d="m371 225-1 1 1-1Z"/><path fill="#8AD987" id="CTXsp" d="m98 226 1 1-1-1Z"/><path fill="#99D2BD" id="OLF" d="m370 226-1 1 1-1Z"/><path fill="#8AD987" id="CTXsp" d="m88 227 2 2-2-2Z"/><path fill="#FD4C3E" id="MPN" d="M224 253c-.656 0-4.138 3.319-5.5 4l-4.5-1-6-3-1-2-2-5.5c-1.966-3.931 2-9.426 2-13.5 3.669 0 2.677-7.911 12.5-3 3.324 1.662 4.5 1.693 4.5 6v18ZM242 256l-1 1c-3.019 0-5.049-.774-7.5-2l-1.5-3v-20c4.686 0 4.593-7.454 13.5-3l3.5 3c0 2.613.93 4.36 2 6.5l-1 12.5-2 2-6 3Z"/><path fill="#E64438" id="HY" d="M286 227v1l-1-1h1Z"/><path fill="#8AD987" id="CTXsp" d="m358 227-1 1 1-1ZM367 228h1v-1l-1 1Z"/><path fill="#99D2BD" id="OLF" d="m369 227-1 1v-1h1Z"/><path fill="#8AD987" id="CTXsp" d="M106 235v1c-2.588 0-2.992-5-7-5v-3l7 7ZM360 235h1l2-4c-2.74 0-6 .626-6-3-1.577 0-2 1.762-2 3 2.601 0 5 1.04 5 4ZM366 229h1v-1l-1 1Z"/><path fill="#99D2BD" id="OLF" d="m368 228-1 1v-1h1Z"/><path fill="#8AD987" id="CTXsp" d="m91 229 2 2-2-2Z"/><path fill="#FE5547" id="PVpo" fill-rule="evenodd" d="M230 275h1l1-4 1-1v-11l-1-7v-20c0-2.747-.253-3-3-3 0 1.399-2 1.399-2 0-4.095 0-.28 6-3 6v18c0 1.49.735 8-1 8 0 3.51 1 7.022 1 10l2 4h1c.839 0 2-1.93 2 0h1m-2-3c-2.168 0-.985-13 .5-13 1.634 0 .5 12.271.5 13 0 1.186-1 1.186-1 0Z"/><path fill="#99D2BD" id="OLF" d="M365 230v1c1.747 0 2-.253 2-2h-1l-1 1Z"/><path fill="#97D6F9" id="STR" fill-rule="evenodd" d="m125 233-5 2.5c-1.693 3.386 3.522 6.989 6.5 5.5 6.551-3.275 6.502-8-1.5-8m-12 2 1 2c4.644 0 8.074 7.713 13.5 5 3.025-1.512 9.875-12 2.5-12-.244 0-13.037 2.769-13.5 3l-3.5 2Z"/><path fill="#97D6F9" id="STR" d="M337 239c0-5.394-10.708-8.084-12-5.5-2.393 4.786 6 6.41 6 8.5-6.181 0-12.235-12-4-12 .86 0 12.199 3.35 13.5 4 1.046.523 3.5-.951 3.5 1-1.747 0-2 .253-2 2l-5 2Z"/><path fill="#8AD987" id="CTXsp" d="M363 231h2v-1l-2 1ZM98 231l-2 3-2-3h4Z"/><path fill="#A0ED9D" id="EPv" d="M114 257h1c3.662 0 1.746-8.008 1-9.5l-7-7.5c-1.712 0-3-2.571-3-4-2.588 0-2.992-5-7-5h-1l-2 3v3c1.896 0 14.867 20 18 20Z"/><path fill="#97D6F9" id="STR" d="M315 231c1.473 0 1 1.952 1 3-1.473 0-1-1.952-1-3Z"/><path fill="#C8CBCC" id="ec" d="M344 237h2l1-1h1l1-1h1c0-1.577 1.762-2 3-2v-2l-9 4c-1.747 0-2 .253-2 2h2Z"/><path fill="#8AD987" id="CTXsp" d="m354 231-1 1v-1h1Z"/><path fill="#A0ED9D" id="EPv" d="m347 240-3 3.5c-2.103 2.103-9.544 13.5-2 13.5 1.622 0 18-18.999 18-20v-2c0-2.96-2.399-4-5-4h-1l-1 1v1l-2 3c0 1.621-2.379 4-4 4Z"/><path fill="#99D2BD" id="OLF" d="M365 231c0 1.797-2.203 4-4 4l2-4h2Z"/><path fill="#FF5346" id="MPO" d="m198 257-5 3c0-7.851-3-14.771-3-22 6.251 0 11.597-6 17-6 0 4.074-3.966 9.569-2 13.5l2 5.5-2 2-5 2-1 1-1 1ZM256 255c2.74 0 4.77 5 8 5l1-17.5 2-4.5c-6.376 0-13.21-6-18-6 0 2.613.93 4.36 2 6.5l-1 12.5 1 2h2l1 1 2 1Z"/><path fill="#E64438" id="HY" d="m269 232-1 1 1-1Z"/><path fill="#C9C9C9" id="act" d="m125 233-5 2.5c-1.693 3.386 3.522 6.989 6.5 5.5 6.551-3.275 6.502-8-1.5-8ZM331 242h1l2-1h1l1-1 1-1c0-5.394-10.708-8.084-12-5.5-2.393 4.786 6 6.41 6 8.5Z"/><path fill="#8AD987" id="CTXsp" d="m350 235 1 1 2-3c-1.238 0-3 .423-3 2Z"/><path fill="#97D6F9" id="STR" d="m144 251-6.5-4c-7.103-3.551-10.5 8.885-10.5 12-1.839 0-6-8.481-6-10 6.075 0 12.822-.144 16-6.5l4-8.5c0 3.833-1.89 8.72 0 12.5l2 2.5 1 2Z"/><path fill="#80BEE2" id="IA" d="M109 240h2v-2l-2-2-3-1v1c0 1.429 1.288 4 3 4Z"/><path fill="#97D6F9" id="STR" d="m335 249-5 10c0-4.594-5.023-15.238-11.5-12-2.1 1.05-1.894 2-4.5 2v-1c0-1.911 2-8.441 2-13 1.452 0 1.716 7.108 3.5 8 6.912 3.456 5.512 6 15.5 6Z"/><path fill="#8AD987" id="CTXsp" d="m349 235-1 1 1-1Z"/><path fill="#80BEE2" id="IA" d="M345 240h2c1.621 0 4-2.379 4-4l-1-1h-1l-1 1-1 1h-1l-1 3Z"/><path fill="#99D2BD" id="OLF" d="m361 235-1 2v-2h1Z"/><path fill="#8AD987" id="CTXsp" d="M111 237v1l-2-2 2 1Z"/><path fill="#97D6F9" id="STR" d="M346 237h1v-1l-1 1Z"/><path fill="#8AD987" id="CTXsp" d="m348 236-1 1v-1h1Z"/><path fill="#97D6F9" id="STR" d="M111 240c2.349 0 1.382 3 4 3 0-2.773-2-3.67-2-6h-2v3ZM345 240l-4 4 3-7h2l-1 3ZM337 239l-1 1 1-1Z"/><path fill="#8AD987" id="CTXsp" d="M128 262c-2.747 0-3 .253-3 3-2.507 0-10-5.034-10-8 3.662 0 1.746-8.008 1-9.5l-7-7.5h2c2.349 0 1.382 3 4 3v1l1 1 5 4c0 1.519 4.161 10 6 10l1 3Z"/><path fill="#97D6F9" id="STR" d="m336 240-1 1 1-1Z"/><path fill="#8AD987" id="CTXsp" d="m337 263-5 2c0-2.041-.959-3-3-3v-2l1-1 5-10c1.569 0 6-4.023 6-5l4-4h2l-3 3.5c-2.103 2.103-9.544 13.5-2 13.5l-2 2-1 2c-1.747 0-2 .253-2 2Z"/><path fill="#97D6F9" id="STR" d="m334 241-2 1 2-1ZM115 244l1 1-1-1Z"/><path fill="#8599CC" id="PAL" d="M161 248c0 .809 7.335 5 8 5l-2-7c-1.974 0-3.517 2-6 2ZM295 248c0 .81-6.749 5-8 5 0-2.16 2-4.167 2-7 1.974 0 3.517 2 6 2Z"/><path fill="#80C0E2" id="AAA" d="M151 284h1c6.116 0 13.954-7 15-7v-4c0-2.518-2-4.286-2-6l-15.5-12-4.5-4h-1l-6.5-4c-7.103-3.551-10.5 8.885-10.5 12l1 3 3 3 3 3 2 2c2.863 0 9 9.768 9 12l5 1 1 1Z"/><path fill="#A2B1D8" id="MA" d="M170 258c0 2.813-1.507 9-5 9l-15.5-12-4.5-4 1-2 2.5-2c1.082-.541 10.163 1 12.5 1 0 .809 7.335 5 8 5l1 2 1 1v1l-1 1ZM286 258c0 2.495 2.322 9 5 9 5.163 0 11.907-9.704 16.5-12l3.5-4v-2l-2.5-2c-1.584-.792-10.709 1-13.5 1 0 .81-6.749 5-8 5l-1 3v2Z"/><path fill="#80C0E2" id="AAA" d="M305 284h1l1-1 4-1c0-4.768 10-8.787 10-13l1-1 1-1 2-2 3-3 1-1v-1l1-1c0-4.594-5.023-15.238-11.5-12-2.1 1.05-1.894 2-4.5 2l-1 1-2 1-3.5 4c-4.593 2.296-11.337 12-16.5 12 0 1.714-2 3.482-2 6v3l4.5 5c3.422 1.711 7.38 3 11.5 3Z"/><path fill="#8599CC" id="PAL" d="M313 249h1v-1l-1 1ZM144 251h1l1-2h-3l1 2ZM313 250l-2 1v-2h2v1Z"/><path fill="#97D6F9" id="STR" d="m314 249-1 1v-1h1Z"/><path fill="#E64438" id="HY" d="M205 253h3l-1-2-2 2ZM248 253h3l-1-2-2 2ZM241 277h18c0-1.581 6.852-4 8.5-4l3.5.5-2 2.5 6-1v-1c-5.457 0-3-4.489-3-7-4.919 0-8-1.715-8-7-3.23 0-5.26-5-8-5 0 3.698 7.623 6.254 5 11.5-2.712 5.423-15.939 11.123-20 3-2.14-4.28 0-8.196 0-12.5-3.019 0-5.049-.774-7.5-2l-1.5-3 1 7c3.859 0 6 9.943 6 13 0 1.624 2 2.75 2 5Z"/><path fill="#FF4B3E" id="AHN" d="M214 256c0 4.44 4.634 7.232 2 12.5-4.361 8.721-17.365 4.269-21-3l3-8.5 1-1 1-1 5-2h3l6 3Z"/><path fill="#E64438" id="HY" d="M197 277h19l1-5c0-3.953 6-14.214 6-11 1.735 0 1-6.51 1-8-.656 0-4.138 3.319-5.5 4l-4.5-1c0 4.44 4.634 7.232 2 12.5-4.361 8.721-17.365 4.269-21-3l3-8.5-5 3c0 4.855-3.46 7-8 7v6c2.846 0 12 .596 12 4Z"/><path fill="#FF4B3E" id="AHN" d="m242 256-1 1c0 4.304-2.14 8.22 0 12.5 4.061 8.123 17.288 2.423 20-3 2.623-5.246-5-7.802-5-11.5l-2-1-1-1h-5l-6 3Z"/><path fill="#E64438" id="HY" d="m253 253 1 1-1-1ZM170 255l1 1-1-1ZM200 255l-1 1 1-1ZM242 256l-1 1 1-1ZM285 257h1v-1l-1 1Z"/><path fill="#99D2BD" id="OLF" d="m121 271 4.5-1 2.5 2c0-4.955 6.322-2 8-2l-2-2-3-1c0 2.273-6 .656-6-2-2.507 0-10-5.034-10-8h-1c0 2.851 7 7.7 7 14Z"/><path fill="#8599CC" id="PAL" d="M170 258h1v-1l-1 1Z"/><path fill="#E64438" id="HY" d="M171 258h1l-1-1v1ZM284 258h1v-1l-1 1Z"/><path fill="#8599CC" id="PAL" d="M285 258h1v-1h-1v1Z"/><path fill="#96A6D3" id="NDB" d="m185 273-4 2c-5.307 0-9.324-2-14-2 0-2.518-2-4.286-2-6 3.493 0 5-6.187 5-9h2c4.686 0 7.459 9 13 9v6Z"/><path fill="#E64438" id="HY" d="m284 258-1 1 1-1Z"/><path fill="#96A6D3" id="NDB" d="M289 273c-2.613 0-4.36.93-6.5 2-2.364 1.182-5.696-1-7.5-1-5.457 0-3-4.489-3-7l11-8 1-1h2c0 2.495 2.322 9 5 9 0 1.714-2 3.482-2 6Z"/><path fill="#FD5547" id="SBPV" d="M224 271c-3.051 0-5.183 1-7 1 0-3.953 6-14.214 6-11 0 3.51 1 7.022 1 10Z"/><path fill="#A8A9AA" id="V3" d="M228 272h1c0-.729 1.134-13-.5-13-1.485 0-2.668 13-.5 13Z"/><path fill="#FD5547" id="SBPV" d="M233 270c2.518 0 4.286 2 6 2 0-3.057-2.141-13-6-13v11Z"/><path fill="#97D6F9" id="STR" d="m330 259-1 1 1-1Z"/><path fill="#99D2BD" id="OLF" d="m340 259-1 2 1-2Z"/><path fill="#97D6F9" id="STR" d="M328 262h1v-1l-1 1Z"/><path fill="#99D2BD" id="OLF" d="M339 261c-1.747 0-2 .253-2 2l2-2Z"/><path fill="#84EA80" id="BMAa" d="M131 265v2c0 2.273-6 .656-6-2 0-2.747.253-3 3-3l3 3ZM331 266c0 3.893-4.854 1-6 1v-2l3-3h1c2.041 0 3 .959 3 3l-1 1Z"/><path fill="#99D2BD" id="OLF" d="M335 271c-2.024 0-6-2.246-6 2-.696 0-1.891-4-7-4v-1l1-1h2c1.146 0 6 2.893 6-1l1-1 5-2c0 2.885-2 4.697-2 8Z"/><path fill="#97D6F9" id="STR" d="m131 267 3 1-3-3v2ZM323 267h2v-2l-2 2Z"/><path fill="#8AD987" id="CTXsp" d="m332 265-1 1 1-1Z"/><path fill="#97D6F9" id="STR" d="m323 267-1 1 1-1ZM321 269h1v-1l-1 1Z"/><path fill="#60E5B7" id="COAa" d="M145 282c0 9.337-9.57 7-16 7l-1-17c0-4.955 6.322-2 8-2 2.863 0 9 9.768 9 12ZM325 290h1l1-2c0-4.721 2-9.704 2-15-.696 0-1.891-4-7-4h-1c0 4.213-10 8.232-10 13 0 6.883 8.136 8 14 8Z"/><path fill="#59D9AA" id="PAA" d="M116 295h1l2-1c0-1.473 1.952-1 3-1h1l2-1 1-1h1l2-2-1-17-2.5-2-4.5 1c0 7.319-9 20.717-9 24h4Z"/><path fill="#FF5545" id="SCH" d="M225 276c0 4.153-7.512 1-9 1l1-5c1.817 0 3.949-1 7-1l2 4-1 1Z"/><path fill="#FD5547" id="SBPV" d="m233 270-1 1 1-1Z"/><path fill="#FF5545" id="SCH" d="M231 276c0 3.891 8.479 1 10 1 0-2.25-2-3.376-2-5-1.714 0-3.482-2-6-2l-1 1-1 4v1Z"/><path fill="#59D9AA" id="PAA" d="M335 293c3.157 0 5.481 2 9 2 0-5.135-9-16.888-9-24-2.024 0-6-2.246-6 2 0 5.296-2 10.279-2 15 1.577 0 2 1.762 2 3h1l4 2h1Z"/><path fill="#8599CC" id="PAL" d="M167 277v4c3.866 0 14-.002 14-6-5.307 0-9.324-2-14-2v2c1.399 0 1.399 2 0 2Z"/><path fill="#E64438" id="HY" d="m181 275 6 1-2-3-4 2Z"/><path fill="#FE5B50" id="SO" d="M191 278h6v-1c0-3.404-9.154-4-12-4l2 3h1l1 1 2 1ZM260 278h6l2-1 1-1 2-2.5-3.5-.5c-1.648 0-8.5 2.419-8.5 4l1 1Z"/><path fill="#8599CC" id="PAL" d="M289 276v5c-3.756 0-14-.627-14-6v-1c1.804 0 5.136 2.182 7.5 1 2.14-1.07 3.887-2 6.5-2v3Z"/><path fill="#97D6F9" id="STR" d="M167 275c1.399 0 1.399 2 0 2v-2Z"/><path fill="#E64438" id="HY" d="m226 275-1 1 1-1Z"/><path fill="#CAC7CB" id="fiber tracts" d="M199 279h23c2.591 0 4.996-3.252 7.5-2 6.99 3.495 19.475 2 28.5 2l2-1-1-1h-18c-1.521 0-10 2.891-10-1l-1-1h-1c0 1.399-2 1.399-2 0h-1l-1 1c0 4.153-7.512 1-9 1h-19v1l2 1Z"/><path fill="#E64438" id="HY" d="M231 275v1l-1-1h1ZM188 277h1l-1-1v1Z"/><path fill="#97D6F9" id="STR" d="M305 284c0 1.353-3 2.158-3 5-4.056 0-13-2.686-13-8v-5l4.5 5c3.422 1.711 7.38 3 11.5 3ZM152 284c0 2.009 2 2.991 2 5 4.803 0 13-2.199 13-8v-4c-1.046 0-8.884 7-15 7Z"/><path fill="#CAC7CB" id="fiber tracts" d="M184 278h7l-2-1h-1c-1.145 0-4-.579-4 1Z"/><path fill="#CBCACC" id="och" d="M228 284c-10.592 0-19.214 4-29 4v-9h23c2.591 0 4.996-3.252 7.5-2 6.99 3.495 19.475 2 28.5 2v9c-7.768 0-14.336-4-22-4-1.949 0-8-.402-8 0Z"/><path fill="#CAC7CB" id="fiber tracts" d="M266 278h6c0-1.579-2.855-1-4-1l-2 1Z"/><path fill="#CACCCB" id="opt" d="M183 280c6.067 0 9.029 8 16 8v-9l-2-1h-13l-1 2ZM272 281c-5.301 0-7.565 7-14 7v-9l2-1h12l1 2-1 1Z"/><path fill="#CAC7CB" id="fiber tracts" d="M228 284c-10.592 0-19.214 4-29 4-6.971 0-9.933-8-16-8l5.5 5c9.18 4.59 17.9 7.05 28 2 1.923-.962 11.5.021 11.5-3ZM273 280l-1 1 1-1ZM228 284c0-.402 6.051 0 8 0 7.664 0 14.232 4 22 4 6.435 0 8.699-7 14-7 0 3.883-5.859 5.68-8.5 7-5.25 2.625-28.225.387-33-2l-2.5-2Z"/><path fill="#99D2BD" id="OLF" d="M127 291c2.313 0 5-2.273 5 2 6.981 0 16.737-4 22-4 0-2.009-2-2.991-2-5h-1l-1-1-5-1c0 9.337-9.57 7-16 7l-2 2ZM325 290v3c-8.011 0-15.73-4-23-4 0-2.842 3-3.647 3-5h1l1-1 4-1c0 6.883 8.136 8 14 8Z"/><path fill="#97D6F9" id="STR" d="m150 283 1 1-1-1ZM307 283l-1 1 1-1Z"/><path fill="#99D2BD" id="OLF" d="m326 290 3 1c0-1.238-.423-3-2-3l-1 2Z"/><path fill="#CAC8C7" id="lot" d="M116 295h1l2-1c1.048 0 3 .473 3-1h1l2-1 1-1h1c2.313 0 5-2.273 5 2l-1 1c-3.786 0-8.359 3-14 3l-1-2ZM335 293c0 2.544 5 .761 5 4-3.101 0-15-.046-15-4v-3h1l3 1h1l4 2h1Z"/><path fill="#99D2BD" id="OLF" d="m126 291-1 1 1-1ZM330 291l4 2-4-2ZM125 292l-2 1 2-1ZM122 293c-1.048 0-3-.473-3 1 1.048 0 3 .473 3-1ZM132 293l-1 1 1-1ZM347 295c0 1.663-5.407 2-7 2 0-3.239-5-1.456-5-4 3.157 0 5.481 2 9 2h3ZM119 294l-2 1 2-1ZM116 295l1 2c-1.552 0-8-.566-8-2h7Z"/></svg>