<svg xmlns="http://www.w3.org/2000/svg" viewBox="0 0 456 320"><path fill="#9AD1BD" id="MOB" d="m173 235 1 1c5.173 0 15.117 13.191 27.5 7 19.002-9.501 19.5-39.364 19.5-59v-21.5c1.617-3.234 4.882-29.235 3-33-2.9-5.799-5.027-12.055-8-18l-5-4.5-7.5-4c-3.348-1.674-8.541.73-12-1-1.767-.883-9.347 2.173-11 3-10.986 5.493-23.063 9.625-29.5 22.5l-3 4.5-1 1v2l-1 1v1l-1 1v3l-1 2v15c1.579 0 1 2.855 1 4v2c1.663 0 2 5.407 2 7 2.683 0 5.074 8.649 6 10.5 3.285 6.57 4.792 13.584 8 20 2.481 4.962-.514 12.973 2 18l4 9 6 6.5ZM286 233l-4 4c-6.32 0-15.778 11.861-27.5 6-19.058-9.529-19.5-42.704-19.5-62.5v-22c-1.297-2.595-4.39-24.221-3-27 2.844-5.687 4.098-12.196 7-18l6-6.5 8.5-4h7c13.801 0 25.438 3.438 35.5 13.5l10 11.5 1 1v1l2 2v2l2 3v2l1 2v2c0 1.048-.473 3 1 3v8c-1.643 0-1 3.765-1 5v1c-1.579 0-1 2.855-1 4v2l-2 4-10 18.5c-3.933 7.867-1.427 20.854-5 28l-5 12.5c-1.712 0-3 2.571-3 4Z"/><path fill="#C7CBCA" id="onl" d="m173 235 1 1c5.173 0 15.117 13.191 27.5 7 19.002-9.501 19.5-39.364 19.5-59v-21.5c1.617-3.234 4.882-29.235 3-33-2.9-5.799-5.027-12.055-8-18l-5-4.5c5.252 0 8 5.501 10 9.5 6.99 13.979 6 24.799 6 41.5v57c0 11.95 2.398 36.551-8.5 42-5.374 2.687-14.932-3.966-19-6-2.294-1.147-5.671-.835-8-2-11.168-5.584-22.507-13.513-28.5-25.5-2.378-4.757-9-7.559-9-12.5l-1-1v-2l-1-2v-1l-1-2v-4l-1-2v-1c0-1.048.473-3-1-3v-4c0-1.048.473-3-1-3v-1c0-1.235.643-5-1-5v-9c2.683 0 5.074 8.649 6 10.5 3.285 6.57 4.792 13.584 8 20 2.481 4.962-.514 12.973 2 18l4 9 6 6.5Z"/><path fill="#C7CBCA" id="onl" d="M245 107c-9.208 0-12.108 15.717-15 21.5v9c-3.53 7.06-1 21.264-1 29.5 0 24.404-4.923 65.653 5 85.5 5.335 10.671 30.671-4.086 37.5-7.5 2.09-1.045 10.5-4.798 10.5-8-6.32 0-15.778 11.861-27.5 6-19.058-9.529-19.5-42.704-19.5-62.5v-22c-1.297-2.595-4.39-24.221-3-27 2.844-5.687 4.098-12.196 7-18l6-6.5Z"/><path fill="#99D2BD" id="OLF" d="m306 128 1 1-1-1ZM307 130l2 2-2-2ZM148 132l-1 1 1-1ZM309 134c1.577 0 2 1.762 2 3l-2-3ZM147 135l-1 1 1-1ZM146 137l-1 1 1-1ZM311 139l1 2-1-2ZM145 141l-1 2 1-2ZM312 143c1.473 0 1 1.952 1 3-1.473 0-1-1.952-1-3ZM144 145c-1.638 0-1.638 12 0 12v-12ZM313 154c-1.643 0-1 3.765-1 5 1.643 0 1-3.765 1-5ZM144 158c1.579 0 1 2.855 1 4-1.579 0-1-2.855-1-4ZM227 158c1.769 0 1 8.801 1 10.5V203c0 1.824.781 12-1 12v-57ZM312 160c-1.579 0-1 2.855-1 4 1.579 0 1-2.855 1-4ZM147 171v1c-1.434 0-2-6.448-2-8 1.663 0 2 5.407 2 7ZM309 170h1c1.579 0 1-2.855 1-4l-2 4Z"/><path fill="#C7CBCA" id="onl" d="M303 209c0 2.439-12.437 20-14 20l5-12.5c3.573-7.146 1.067-20.133 5-28l10-18.5h1v3c-1.473 0-1 1.952-1 3v9l-1 2v1c-1.579 0-1 2.855-1 4v4l-1 2c-1.473 0-1 1.952-1 3v4l-1 2-1 2Z"/><path fill="#99D2BD" id="OLF" d="M310 173c-1.473 0-1 1.952-1 3 1.473 0 1-1.952 1-3ZM147 180c1.643 0 1 3.765 1 5-1.643 0-1-3.765-1-5ZM309 185l-1 2 1-2ZM148 186c1.473 0 1 1.952 1 3-1.473 0-1-1.952-1-3ZM308 188c-1.579 0-1 2.855-1 4 1.579 0 1-2.855 1-4ZM149 193c1.473 0 1 1.952 1 3-1.473 0-1-1.952-1-3ZM307 196l-1 2 1-2ZM150 197l1 2-1-2ZM306 198c-1.473 0-1 1.952-1 3 1.473 0 1-1.952 1-3ZM151 203l1 2-1-2ZM305 205l-1 2 1-2ZM152 206l1 2-1-2ZM304 207l-1 2 1-2ZM153 210l1 1-1-1Z"/><path fill="#C7CBCA" id="onl" d="M289 229c-1.712 0-3 2.571-3 4 1.712 0 3-2.571 3-4ZM286 233l-4 4c2.226 0 4-1.774 4-4Z"/><path fill="#99D2BD" id="OLF" d="m173 235 1 1-1-1Z"/></svg>