<svg xmlns="http://www.w3.org/2000/svg" viewBox="0 0 456 320"><path fill="#187F60" id="SSp-ll1" d="M133 40h1c0-2.076 7.932-3.216 9.5-4 9.282-4.64 21.413-7 32.5-7l1-6c-12.83 0-25.82 2.66-36.5 8-1.568.784-9.5 1.924-9.5 4 0 1.624 2 2.75 2 5Z"/><path fill="#1E9D5A" id="MOp1" d="M199 27c-7.649 0-14.836 2-23 2l1-6h22v4Z"/><path fill="#1E9C59" id="MOs1" d="M226 37c0 1.54-1.342 3-3 3l-8.5-9c-5.309-2.654-8.96-4-15.5-4v-4c11.204 0 15.571 2.071 23 9.5l4 4.5ZM230 38l4 2c0-7.392 16.154-13 23-13v-4c-9.909 0-19.172 1.843-24 11.5-.614 1.228-3 1.276-3 3.5Z"/><path fill="#1E9D5A" id="MOp1" d="M258 27c7.609 0 14.79 2 23 2l-2-6h-22v4h1Z"/><path fill="#187F60" id="SSp-ll1" d="m325 35-2 4c-3.541 0-7.469-2.485-10.5-4-8.355-4.177-21.61-6-31.5-6l-2-6c12.83 0 25.82 2.66 36.5 8 1.708.854 9.5 1.328 9.5 4Z"/><path fill="#1F9C58" id="MOp2/3" d="M172 43v4c6.212 0 15.815-10 24-10h1c0-3.721 2-6.881 2-10-7.649 0-14.836 2-23 2 0 1.595-3.306 14-4 14Z"/><path fill="#1E9D58" id="MOs2/3" d="M223 41c-3.265 0-4.067 3-7 3 0-7.3-14.315-7-19-7 0-3.721 2-6.881 2-10 6.54 0 10.191 1.346 15.5 4l8.5 9v1ZM240 44h1c0-7.908 13.561-7 19-7l-2-10h-1c-6.846 0-23 5.608-23 13v1c3.3 0 3.1 3 6 3Z"/><path fill="#1F9C58" id="MOp2/3" d="M284 43v4c-4.821 0-16.094-10-24-10l-2-10c7.609 0 14.79 2 23 2l3 14Z"/><path fill="#187F64" id="SSp-ll2/3" d="M172 43c-10.992 0-22.644 8-31 8-2.438 0-7-9.027-7-11 0-2.076 7.932-3.216 9.5-4 9.282-4.64 21.413-7 32.5-7 0 1.595-3.306 14-4 14ZM284 43c11.198 0 23.669 8 31 8 1.45 0 8-8.884 8-11v-1c-3.541 0-7.469-2.485-10.5-4-8.355-4.177-21.61-6-31.5-6l3 14Z"/><path fill="#197E64" id="SSp-ul1" d="M113 49h1l19-9c0-2.25-2-3.376-2-5-6.885 0-12.567 8-19 8l1 6ZM345 44c0 .67-1.328 5-2 5-7.164 0-12.693-9-20-9v-1l2-4c2.928 0 20 7.959 20 9Z"/><path fill="#1E9C5A" id="MOp5" d="m191 54-22 10 2-15 1-1v-1c6.212 0 15.815-10 24-10 0 5.74-4 10.55-4 16l-1 1Z"/><path fill="#1F9D58" id="MOs5" d="M205 55h1c0-2.15 7.547-10 10-10v-1c0-7.3-14.315-7-19-7h-1c0 5.74-4 10.55-4 16 2.96 0 13-3.552 13 2Z"/><path fill="#3EA665" id="ACAd1" d="M223 63h10c0-7.373 1-15.242 1-22v-1l-4-2-1.5 2-2.5-3c0 1.54-1.342 3-3 3v23Z"/><path fill="#1F9D58" id="MOs5" d="M264 53c-1.709 0-13-2.857-13 1-2.014 0-10-8.512-10-10 0-7.908 13.561-7 19-7l4 16Z"/><path fill="#1E9C5A" id="MOp5" d="m265 54 22 10c0-6.703-2-9.931-2-16l-1-1c-4.821 0-16.094-10-24-10l4 16 1 1Z"/><path fill="#197F61" id="SSp-ul2/3" d="M141 52c-7.041 0-19.219 11-24 11 0-4.811-4-8.818-4-13l1-1 19-9h1c0 1.973 4.562 11 7 11v1ZM315 52c8.599 0 15.784 10 24 10l4-12v-1c-7.164 0-12.693-9-20-9 0 2.116-6.55 11-8 11v1Z"/><path fill="#40A565" id="ACAd2/3" d="m223 63-5 1c0-4.725-1-9.879-1-14 0-1.234.643-5-1-5v-1c2.933 0 3.735-3 7-3v22ZM233 63l6 1c0-6.642 1-14.002 1-20-2.9 0-2.7-3-6-3 0 6.758-1 14.627-1 22Z"/><path fill="#1B8062" id="SSp-un1" d="m113 50-12 6v-7c4.058 0 7.012-6 11-6l1 6v1Z"/><path fill="#1C7F64" id="SSp-ll4" d="M144 58h1c9.102 0 17.028-9 26-9l1-1v-5c-10.992 0-22.644 8-31 8v1l3 6ZM315 52c0 2.773-4 3.67-4 6-7.481 0-19.914-10-26-10l-1-1v-4c11.198 0 23.669 8 31 8v1Z"/><path fill="#3EA566" id="ACAd5" d="M239 65c3.651 0 7.045 5 10 5 0-5.296 2-10.28 2-15v-1c-2.014 0-10-8.512-10-10h-1c0 5.998-1 13.358-1 20v1Z"/><path fill="#1B8062" id="SSp-un1" d="m356 50-1 5c-4.656 0-7.439-5-12-5v-1c.672 0 2-4.33 2-5 1.721 0 11 4.422 11 6Z"/><path fill="#3EA566" id="ACAd5" d="m218 64-11 6c0-5.172-1-10.365-1-15 0-2.15 7.547-10 10-10 1.643 0 1 3.766 1 5 0 4.121 1 9.275 1 14Z"/><path fill="#197C63" id="SSp-ll5" d="m172 48-1 1 1-1ZM287 65c6.378 0 11.579 5 18 5l6-12c-7.481 0-19.914-10-26-10 0 6.069 2 9.297 2 16v1Z"/><path fill="#188060" id="SSp-bfd1" d="M81 63c2.447 0 3.28 2 6 2 4.232 0 8.494-8 14-8v-8L85.5 59 81 63Z"/><path fill="#1C7F63" id="SSp-un2/3" d="m114 49-1 1v-1h1Z"/><path fill="#197C63" id="SSp-ll5" d="M151 71h1c0-2.334 4.181-1.34 5.5-2 3.326-1.663 7.592-4 11.5-4v-1l2-15c-8.972 0-16.898 9-26 9 0 4.509 6 7.654 6 13Z"/><path fill="#1C7F63" id="SSp-un2/3" d="m117 63-17 8c0-3.214 1.549-1.598 2-2.5 1.592-3.183-1-8.819-1-11.5v-1l12-6c0 4.182 4 8.189 4 13ZM339 63l16 7c2.037 0-1-2.996-1-4l1-10v-1c-4.656 0-7.439-5-12-5l-4 12v1Z"/><path fill="#188060" id="SSp-bfd1" d="M375 63c-1.974 0-3.517 2-6 2l-14-9v-1l1-5c1.952 0 19 11.634 19 13Z"/><path fill="#1A7F63" id="SSp-ul4" d="M117 63c0 .978 2.267 7 3 7l24-12-3-6c-7.041 0-19.219 11-24 11Z"/><path fill="#1D9C5A" id="MOs6a" d="M194 74h1c0-7.05 10-14.762 10-19 0-5.552-10.04-2-13-2l-1 1c0 3.996-1.272 10.044-3 13.5l1 7.5 5-1ZM262 74l6 1c0-7.795-3-14.648-3-21l-1-1c-1.709 0-13-2.857-13 1v1c1.834 0 11 16.583 11 19Z"/><path fill="#1A7F63" id="SSp-ul4" d="M339 63c0 2.885-2 4.697-2 8l-26-13c0-2.33 4-3.227 4-6 8.599 0 15.784 10 24 10v1Z"/><path fill="#1F9B5A" id="MOp6a" d="m173 81-5 1c0-5.91 1-11.58 1-17v-1l22-10c0 3.996-1.272 10.044-3 13.5l1 7.5c-.62 0-12.51 3.505-13.5 4l-2.5 2ZM288 82h1c0-5.34-2-11.022-2-17v-1l-22-10c0 6.352 3 13.205 3 21 6.272 0 13.443 7 20 7Z"/><path fill="#3FA664" id="ACAd6a" d="m195 74 4 3 8-6v-1c0-5.172-1-10.365-1-15h-1c0 4.238-10 11.95-10 19ZM257 78h1l1-1c0-1.747.253-2 2-2l1-1c0-2.417-9.166-19-11-19 0 4.72-2 9.704-2 15v1c1.852 0 8 4.927 8 7Z"/><path fill="#187F63" id="SSp-bfd2/3" d="M357 71h1c4.153 0 7.504-5 11-5v-1l-14-9-1 10c0 1.004 3.037 4 1 4l2 1ZM99 71h1c0-3.214 1.549-1.598 2-2.5 1.592-3.183-1-8.819-1-11.5-5.506 0-9.768 8-14 8v1c4.437 0 7.034 5 11 5h1Z"/><path fill="#187E62" id="SSp-ul5" d="M151 71c-8.003 0-21.002 11-27 11 0-3.378-4-7.085-4-11v-1l24-12h1c0 4.509 6 7.654 6 13ZM337 71c0 3.83-4 6.981-4 11-8.024 0-18.822-11-28-11v-1l6-12 26 13Z"/><path fill="#197E63" id="SSp-n1" d="M53 109h1c0-8.431 18.664-33.082 24.5-36l8.5-7v-1c-2.72 0-3.553-2-6-2-3.451 0-6.498 7-8.5 8C67.472 73.514 49 98.8 49 105l4 4Z"/><path fill="#197E61" id="SSp-un4" d="M104 80h1c0-2.038 12.745-9 15-9v-1c-.733 0-3-6.022-3-7l-17 8h-1v1c0 3.33 5 4.796 5 8Z"/><path fill="#3FA566" id="ACAv2/3" d="M222 94c0 1.577-1.762 2-3 2 0-9.974-1-21.374-1-32l5-1c0 10.355-1 21.268-1 31Z"/><path fill="#40A664" id="ACAv1" d="M222 94h1c0-2.83 4-4.54 4-7 0-3.15 2-3.446 2 0l5 6c0-9.513-1-19.903-1-30h-10c0 10.355-1 21.268-1 31Z"/><path fill="#3FA566" id="ACAv2/3" d="m234 94 3 2c0-9.944 2-20.351 2-31v-1l-6-1c0 10.097 1 20.487 1 30v1Z"/><path fill="#197E61" id="SSp-un4" d="M351 80h1l6-8-1-1-2-1-16-7c0 2.885-2 4.697-2 8 2.15 0 14 6.528 14 9Z"/><path fill="#197E63" id="SSp-n1" d="m407 105-4 3c-2.089 0-5.098-9.695-6-11.5-3.033-6.066-21.454-30.5-28-30.5v-1c2.483 0 4.026-2 6-2 2.889 0 8.139 6.639 10.5 9 5.91 5.91 21.5 24.681 21.5 33Z"/><path fill="#3EA666" id="ACAv5" d="M211 94c0 1.48 8 4.701 8 2 0-9.974-1-21.374-1-32l-11 6v1c0 8.01 4 15.73 4 23Z"/><path fill="#1A7F64" id="SSp-ll6a" d="m161 85-3 1c0-5.343-6-9.938-6-15 0-2.334 4.181-1.34 5.5-2 3.326-1.663 7.592-4 11.5-4 0 5.42-1 11.09-1 17l-1 1c-1.623 0-6 .005-6 2Z"/><path fill="#3EA666" id="ACAv5" d="M246 94c-2.187 0-4.169 2-9 2 0-9.944 2-20.351 2-31 3.651 0 7.045 5 10 5v1c0 8.339-3 15.252-3 23Z"/><path fill="#1A7F64" id="SSp-ll6a" d="M289 82c3.083 0 5.545 3 9 3l7-14v-1c-6.421 0-11.622-5-18-5 0 5.978 2 11.66 2 17Z"/><path fill="#1B7F64" id="SSp-n2/3" d="m54 109 8 5 3-6.5 9-16L90.5 75c1.272-.636 7.5-1.45 7.5-3v-1c-3.966 0-6.563-5-11-5l-8.5 7C72.664 75.918 54 100.569 54 109ZM394 115h1c0-1.579 6.722-6 8-6v-1c-2.089 0-5.098-9.695-6-11.5-3.033-6.066-21.454-30.5-28-30.5-3.496 0-6.847 5-11 5v1c11.602 0 36 32.394 36 43Z"/><path fill="#1C7F63" id="SSp-un2/3" d="M98 72h1v-1h-1v1Z"/><path fill="#197D62" id="SSp-un5" d="M112 89h1c0-1.52 9.173-6 11-6v-1c0-3.378-4-7.085-4-11-2.255 0-15 6.962-15 9l7 9Z"/><path fill="#197D61" id="SSp-ul6a" d="M129 99h1c0-2.109 2.535-2 4-2 0-1.014 3.959-2 5-2 0-1.382 8.466-4 10-4 0-2.407 7.045-5 9-5 0-5.343-6-9.938-6-15h-1c-8.003 0-21.002 11-27 11v1c0 5.921 5 9.666 5 16Z"/><path fill="#40A564" id="ACAv6a" d="M209 94h2c0-7.27-4-14.99-4-23l-8 6v1c0 4.793 9 8.987 9 14l1 2ZM246 94h1l1-2 1-1c0-1.528 4.54-8 6-8l2-5c0-2.073-6.148-7-8-7 0 8.339-3 15.252-3 23Z"/><path fill="#197D61" id="SSp-ul6a" d="M298 86c9.892 0 18.842 12 29 12 0-1.722 4.841-15 6-15v-1c-8.024 0-18.822-11-28-11l-7 14v1Z"/><path fill="#197D62" id="SSp-un5" d="M343 89h1l7-9c0-2.472-11.85-9-14-9 0 3.83-4 6.981-4 11v1c1.76 0 10 3.946 10 6Z"/><path fill="#1C7F63" id="SSp-un2/3" d="M358 71v1l-1-1h1Z"/><path fill="#1A8062" id="SSp-n4" d="M68 119h1c0-5.597 18.263-28.882 24.5-32l10.5-7c0-3.204-5-4.67-5-8h-1c0 1.55-6.228 2.364-7.5 3L74 91.5l-9 16-3 6.5v1c1.178 0 6 2.572 6 4ZM387 119h1c0-1.008 5.147-4 6-4 0-10.606-24.398-43-36-43l-6 8c4.567 0 8.538 7.019 12.5 9 6.511 3.255 22.5 23.347 22.5 30Z"/><path fill="#1E9C58" id="MOs6b" d="m194 75-5 1v-1l5-1v1Z"/><path fill="#3FA466" id="ACAd6b" d="M198 78h1v-1l-4-3h-1v1l4 3ZM261 75h1v-1l-1 1Z"/><path fill="#1E9C58" id="MOs6b" d="m268 75-1 1-5-1v-1l6 1Z"/><path fill="#1D9D5A" id="MOp6b" d="M189 76c0 1.263-13.374 5-16 5l2.5-2c.99-.495 12.88-4 13.5-4v1Z"/><path fill="#CACCC7" id="cing" d="m208 92 1 2c-7.354 0-12.984-9.742-19.5-13-3.991-1.995-15.93 5-20.5 5h-8v-1c1.623 0 6-.005 6-2h1c1.622 0 5 .46 5-2 2.626 0 16-3.737 16-5l5-1 4 3c0 2.438 6.992 14 10 14Z"/><path fill="#3FA466" id="ACAd6b" d="M261 75c-1.747 0-2 .253-2 2 1.747 0 2-.253 2-2Z"/><path fill="#CACCC7" id="cing" d="m248 92-1 2c7.444 0 13.211-9.855 19.5-13 4.4-2.2 16.086 5 20.5 5h8c0-.286-6.302-3-7-3-4.58 0-11.507-3.004-15.5-5-.984-.492-5.5-.85-5.5-2l-5-1h-1c0 1.747-.253 2-2 2l-1 2-3 4c0 2.07-3.396 8-6 8l-1 1Z"/><path fill="#1D9D5A" id="MOp6b" d="M288 82v1c-4.58 0-11.507-3.004-15.5-5-.984-.492-5.5-.85-5.5-2l1-1c6.272 0 13.443 7 20 7Z"/><path fill="#3FA466" id="ACAd6b" d="M258 78v1l1-2-1 1Z"/><path fill="#40A465" id="ACAv6b" d="M199 78c0 4.793 9 8.987 9 14-3.008 0-10-11.563-10-14h1ZM258 79l-3 4 2-5h1v1Z"/><path fill="#197E62" id="SSp-n5" d="M69 119c3.711 0 4.783 6 9 6 0-9.45 17.161-25.83 25.5-30l8.5-6-7-9h-1l-10.5 7C87.263 90.118 69 113.403 69 119ZM378 125h1l8-6c0-6.653-15.989-26.745-22.5-30-3.962-1.981-7.933-9-12.5-9h-1l-7 9 7.5 5c9.164 4.582 26.5 19.977 26.5 31Z"/><path fill="#1D9D5A" id="MOp6b" d="M168 82v1c1.622 0 5 .46 5-2l-5 1Z"/><path fill="#C9C7C9" id="ccb" d="m371 153 4 15c-2.076 0-3.216-7.932-4-9.5l-12-22c-5.251-10.503-24.496-26.498-34.5-31.5l-10-3c-4.516-2.258-10.61 0-15.5 0 0-6.351-15.319-11-20-11-1.574 0-9-.751-9 1-3.299 0-17 5.468-17 10h-41l-8-1c-4.081 0-11.695-9-18-9 0-1.932-14-1.51-14 1-4.482 0-7.811 2.156-11.5 4-1.562.781-.937 5-3.5 5-6.064 0-13.808-1.846-19.5 1-12.267 6.133-31.431 17.362-38.5 31.5-3.953 7.907-9.074 15.148-13 23-.632 1.265-1.278 6.5-3 6.5 0-4.569 3-7.814 3-12l1-1v-2l1-1 1-2v-1l1-2 1-2c2.109 0 2-2.535 2-4 1.577 0 2-1.762 2-3 1.577 0 2-1.762 2-3 1.617 0 4-4.583 4-6 1.366 0 4-2.366 4-4l2-2 8.5-8 8-6c4.513-2.257 9.437-3.719 14-6 6.877-3.438 16.135-5.067 24-9l7.5-4c4.57 0 16.509-6.995 20.5-5 6.516 3.258 12.146 13 19.5 13h2c0 1.48 8 4.701 8 2 1.238 0 3-.423 3-2h1c0 1.461 11 1.461 11 0l3 2c4.831 0 6.813-2 9-2h1c7.444 0 13.211-9.855 19.5-13 4.4-2.2 16.086 5 20.5 5 0 2.315 8.754 4.127 10.5 5 10.029 5.014 21.068 7.034 31 12 9.522 4.761 16.851 12.851 24.5 20.5l8 9.5v1c0 1.515 4.327 10 6 10v1l2 4v1l1 1v1l1 1Z"/><path fill="#197F62" id="SSp-ll6b" d="M167 83h1v-1l-1 1ZM298 86v1l-3-1c0-.286-6.302-3-7-3v-1h1c3.083 0 5.545 3 9 3v1Z"/><path fill="#1A7F61" id="SSp-un6a" d="m125 101-4 1c0-4.716-8-8.724-8-13 0-1.52 9.173-6 11-6 0 5.921 5 9.666 5 16l-4 2Z"/><path fill="#197F62" id="SSp-ll6b" d="M167 83c-1.623 0-6 .005-6 2 1.623 0 6-.005 6-2Z"/><path fill="#40A465" id="ACAv6b" d="M255 83c-1.46 0-6 6.472-6 8 2.604 0 6-5.93 6-8Z"/><path fill="#1A7F61" id="SSp-un6a" d="M335 103h1c0-3.657 7-8.97 7-14 0-2.054-8.24-6-10-6-1.159 0-6 13.278-6 15v1c1.49 0 8 2.206 8 4Z"/><path fill="#197F62" id="SSp-ll6b" d="m161 86-3 1v-1l3-1v1Z"/><path fill="#1C8064" id="SSp-ul6b" d="m158 87-9 4c0-2.407 7.045-5 9-5v1Z"/><path fill="#C9C9CA" id="scwm" d="M117 107c0 4.136-10 6.861-10 12l8.5-8 8-6c4.513-2.257 9.437-3.719 14-6 6.877-3.438 16.135-5.067 24-9l7.5-4h-8l-3 1-9 4c0 3.035-7.711 4-10 4 0 2.46-3.378 2-5 2l-4 3-5 1c0 1.577-1.762 2-3 2 0 1.577-1.762 2-3 2 0 1.747-.253 2-2 2ZM335 103c0 2.335 6.224 6.862 8.5 8 2.474 1.237 17.5 19.143 17.5 22l-8-9.5c-7.649-7.649-14.978-15.739-24.5-20.5-9.932-4.966-20.971-6.986-31-12-1.746-.873-10.5-2.685-10.5-5h8l3 1c4.574 0 11.418 5.96 15.5 8 2.566 1.283 6.466.733 9 2l4.5 3c0 .616 6.93 3 8 3Z"/><path fill="#1C8064" id="SSp-ul6b" d="M327 99v1l-4.5-3c-2.534-1.267-6.434-.717-9-2-4.082-2.04-10.926-8-15.5-8v-1c9.892 0 18.842 12 29 12v1Z"/><path fill="#7ED04B" id="IG" d="M223 94c0 1.461 11 1.461 11 0v-1l-5-6c0 1.93-1.161 0-2 0 0 2.46-4 4.17-4 7Z"/><path fill="#187D62" id="SSp-n6a" d="m93 135-2 1c-4.527 0-8.718-10-13-10v-1c0-9.45 17.161-25.83 25.5-30l8.5-6h1c0 4.276 8 8.284 8 13v1l-2 2c-1.747 0-2 .253-2 2-3.009 0-12 8.991-12 12-1.747 0-2 .253-2 2-3.833 0-10 10.58-10 14ZM378 125c0 2.041-11.037 11-13 11 0-5.453-16.772-21.272-21.5-26l-7.5-7c0-3.657 7-8.97 7-14h1l7.5 5c9.164 4.582 26.5 19.977 26.5 31Z"/><path fill="#1C8064" id="SSp-ul6b" d="M149 91c-1.534 0-10 2.618-10 4 2.289 0 10-.965 10-4Z"/><path fill="#AAA8A9" id="SEZ" d="m186 92-14 1c0-2.51 14-2.932 14-1Z"/><path fill="#40A465" id="ACAv6b" d="m249 91-1 1 1-1Z"/><path fill="#AAA8A9" id="SEZ" d="m299 102-4 2 1-3.5c-4.013-8.027-18.134-8.5-26-8.5 0-1.751 7.426-1 9-1 4.681 0 20 4.649 20 11Z"/><path fill="#A8AAAA" id="VL" fill-rule="evenodd" d="m192 99-3 2.5c-1.579 3.158-2.444 6.888-4 10-1.98 3.961-16.274 15.113-7.5 19.5 2.348 1.174 5.248-3.124 7-4 7.19-3.595 27.246-28 7.5-28m5 22c0 2.34-12.341 8.92-14.5 10-2.796 1.398-7.137 11-8.5 11 0-7.129.986-16.528-2-22.5-1.339-2.678-11-14.58-11-15.5 0-8.501 11-9.669 11-11l14-1c6.305 0 13.919 9 18 9 0 6.293-7 13.679-7 20ZM260 99c0 2.422-6.027 3.447-4 7.5 1.759 3.519 19.237 33.526 25 22 2.165-4.33-9.867-17.733-12-22-.915-1.83-1.203-5.351-3.5-6.5l-5.5-1m22 42h1c0-7.246-1.462-15.576 2-22.5l10-14.5 1-3.5c-4.013-8.027-18.134-8.5-26-8.5-3.299 0-17 5.468-17 10l6 19 12.5 10c1.334.667 4.717.935 5.5 2.5l5 7.5Z"/><path fill="#AAA8A9" id="SEZ" d="m157 102 4 2c0-8.501 11-9.669 11-11-4.482 0-7.811 2.156-11.5 4-1.562.781-.937 5-3.5 5Z"/><path fill="#1C8064" id="SSp-ul6b" d="M139 95c-1.041 0-5 .986-5 2 1.622 0 5 .46 5-2ZM130 99v1l4-3c-1.465 0-4-.109-4 2Z"/><path fill="#1A7D63" id="SSp-un6b" d="m130 100-5 1 4-2h1v1Z"/><path fill="#A9AAA8" id="chpl" d="m192 99-3 2.5c-1.579 3.158-2.444 6.888-4 10-1.98 3.961-16.274 15.113-7.5 19.5 2.348 1.174 5.248-3.124 7-4 7.19-3.595 27.246-28 7.5-28ZM260 99c0 2.422-6.027 3.447-4 7.5 1.759 3.519 19.237 33.526 25 22 2.165-4.33-9.867-17.733-12-22-.915-1.83-1.203-5.351-3.5-6.5l-5.5-1Z"/><path fill="#1A7D63" id="SSp-un6b" d="M327 100c0 .616 6.93 3 8 3 0-1.794-6.51-4-8-4v1ZM121 103h1c1.238 0 3-.423 3-2l-4 1v1Z"/><path fill="#98D5F9" id="CP" d="M127 231c-5.167 0-10.906 3-17 3-7.53 0-18.667-21-19-21v-1c0-1.937-1.553-8-4-8v-1l-2-4v-1c0-1.32-3.135-10-4-10v-19l1-2c1.473 0 1-1.952 1-3 1.722 0 2.368-5.235 3-6.5 3.926-7.852 9.047-15.093 13-23 7.069-14.138 26.233-25.367 38.5-31.5 5.692-2.846 13.436-1 19.5-1l4 2c0 .92 9.661 12.822 11 15.5 2.986 5.972 2 15.371 2 22.5v1c-1.142 0-1.617 7.058-3.5 8-3.888 1.944-8.718-2-12.5-2h-1l-1 1-1 1-1 2v1c-.661 0-3 10.581-3 12l-6 7.5c-4.669 9.337-6 20.332-6 31.5v18h-1l-1 1-10 7Z"/><path fill="#90CBEC" id="LSc" d="m197 121 2.5 2c.416.208 6.086-1 7.5-1 0-.723 11-11.247 11-16l-1-2c-1.041 0-5-.986-5-2l-8-1c0 6.293-7 13.679-7 20Z"/><path fill="#CBC8CC" id="df" d="M237 105h2l1-1 4-2h-32c0 1.014 3.959 2 5 2l2 1h18Z"/><path fill="#90CBEC" id="LSc" d="M259 121c0 3.211-7.645 1-10 1 0-1.734-10-9.75-10-16v-1l1-1 4-2h9l6 19Z"/><path fill="#98D5F9" id="CP" d="M329 231c5.286 0 10.824 3 17 3 6.35 0 10.41-11 14-11l1-2c0-1.238.423-3 2-3v-1l2-4c0-1.465-.109-4 2-4 0-1.465-.109-4 2-4 0-1.424.362-5 2-5v-1l1-2 1-2c0-1.357.647-6 2-6l1-16v-2l-1-1v-2c-2.076 0-3.216-7.932-4-9.5l-12-22c-5.251-10.503-24.496-26.498-34.5-31.5l-10-3c-4.516-2.258-10.61 0-15.5 0l-4 2-10 14.5c-3.462 6.924-2 15.254-2 22.5v2c0 12.031 9.169 6 16 6h1l1 1v1l1 1v1c.449 0 4 11.63 4 13l3 3.5c1.47 2.941 4.217 6.433 6 10 3.882 7.765 2 21.28 2 30.5 0 4.414 1 9.177 1 13l11 8Z"/><path fill="#1B7E64" id="SSp-n6b" d="M122 103c0 1.577-1.762 2-3 2l2-2h1ZM365 136v1l-4-3v-1c0-2.857-15.026-20.763-17.5-22-2.276-1.138-8.5-5.665-8.5-8h1l7.5 7c4.728 4.728 21.5 20.547 21.5 26Z"/><path fill="#97D6F9" id="STR" d="m219 105-1 1-1-2 2 1ZM240 104l-1 1 1-1Z"/><path fill="#1A7E62" id="SSs1" d="m34 174 5 1c0-7.833 1.327-32.153 4-37.5 2.757-5.514 10-22.775 10-28.5l-4-4-10 26.5c-3.718 7.437-5 32.768-5 42.5Z"/><path fill="#1B7E64" id="SSp-n6b" d="M119 105c-1.747 0-2 .253-2 2 1.747 0 2-.253 2-2Z"/><path fill="#8FCBEC" id="SF" fill-rule="evenodd" d="M220 110c0 .653-6 11.34-6 14.5 0 2.537 4.463 2.5 6 2.5 2.799 0 21.49-.479 22-1.5 1.678-3.357-4.039-18.73-10.5-15.5-3.883 1.942-7.187 0-11.5 0m-12 25 3.5-2h34l3.5 3v-14c0-1.734-10-9.75-10-16l-2-1h-18l-1 1c0 4.753-11 15.277-11 16 3.581 0 1 10.641 1 13Z"/><path fill="#97D6F9" id="STR" d="M239 105v1l-2-1h2Z"/><path fill="#1A7E62" id="SSs1" d="m422 174-4 1c0-10.98-2.651-36.801-7-45.5-2.556-5.112-8-14.789-8-20.5v-1l4-3c2.876 0 3.938 11.375 5 13.5 8.142 16.284 10 35.889 10 55.5Z"/><path fill="#1B7E64" id="SSp-n6b" d="M105 119h2c0-5.139 10-7.864 10-12-3.009 0-12 8.991-12 12Z"/><path fill="#1B8063" id="SSs2/3" d="M39 175h7c0-8.398 5.641-35.782 9-42.5 2.143-4.287 7-12.757 7-17.5v-1l-8-5h-1c0 5.725-7.243 22.986-10 28.5-2.673 5.347-4 29.667-4 37.5ZM410 175h8c0-10.98-2.651-36.801-7-45.5-2.556-5.112-8-14.789-8-20.5-1.278 0-8 4.421-8 6 0 5.101 3.783 12.066 6 16.5 4.493 8.986 9 32.47 9 43.5Z"/><path fill="#96A7D2" id="TRS" d="M220 110c0 .653-6 11.34-6 14.5 0 2.537 4.463 2.5 6 2.5 2.799 0 21.49-.479 22-1.5 1.678-3.357-4.039-18.73-10.5-15.5-3.883 1.942-7.187 0-11.5 0Z"/><path fill="#187C63" id="SSs4" d="M46 175h6c0-9.076 5.184-33.869 9-41.5 1.97-3.938 7-10.052 7-14.5 0-1.428-4.822-4-6-4 0 4.743-4.857 13.213-7 17.5-3.359 6.718-9 34.102-9 42.5ZM404 175h6c0-11.03-4.507-34.514-9-43.5-2.217-4.434-6-11.399-6-16.5h-1c-.853 0-6 2.992-6 4 0 2.761 7.394 15.288 9 18.5 3.833 7.666 7 28.334 7 37.5Z"/><path fill="#1C8063" id="SSs5" d="M52 175h13c0-13.372 2.458-26.416 8-37.5 1.031-2.063 1.717-11.5 5-11.5v-1c-4.217 0-5.289-6-9-6h-1c0 4.448-5.03 10.562-7 14.5-3.816 7.631-9 32.424-9 41.5Z"/><path fill="#1B7E64" id="SSp-n6b" d="M103 121h2v-2c-1.747 0-2 .253-2 2Z"/><path fill="#C9C9CA" id="scwm" d="m107 119-2 2v-2h2Z"/><path fill="#1C8063" id="SSs5" d="M392 175h12c0-9.166-3.167-29.834-7-37.5-1.606-3.212-9-15.739-9-18.5h-1l-8 6 6 14.5c3.478 6.956 7 26.902 7 35.5Z"/><path fill="#1B7E64" id="SSp-n6b" d="m95 134-2 1c0-3.42 6.167-14 10-14l-2 4c-2.177 0-4 4.336-4 6-1.577 0-2 1.762-2 3Z"/><path fill="#C9C9CA" id="scwm" d="M105 121c0 1.634-2.634 4-4 4l2-4h2Z"/><path fill="#CBC8CB" id="fi" d="m194 146-1 1c-3.661 0-9.166 4.167-13.5 2-1.842-.921-4.521-6-5.5-6v-1c1.363 0 5.704-9.602 8.5-11 2.159-1.08 14.5-7.66 14.5-10l2.5 2c.416.208 6.086-1 7.5-1 3.581 0 1 10.641 1 13l-1 2-3 4-10 5ZM282 144l-4.5 5c-4.42 2.21-9.93-2-13.5-2l-10-5-1-1h-1l-3-4v-15c2.355 0 10 2.211 10-1l12.5 10c1.334.667 4.717.935 5.5 2.5l5 7.5v3Z"/><path fill="#C9C9CA" id="scwm" d="M101 125c-2.177 0-4 4.336-4 6 1.617 0 4-4.583 4-6Z"/><path fill="#197D63" id="SSs6a" d="M378 175h14c0-8.598-3.522-28.544-7-35.5l-6-14.5h-1c0 2.041-11.037 11-13 11v1c2.621 0 3.179 6.858 4 8.5 4.073 8.146 9 19.969 9 29.5ZM78 175h1c0-9.741 3.9-20.301 8-28.5.784-1.568 1.924-9.5 4-9.5v-1c-4.527 0-8.718-10-13-10-3.283 0-3.969 9.437-5 11.5-5.542 11.084-8 24.128-8 37.5h13Z"/><path fill="#C9C9CA" id="scwm" d="M97 131c-1.577 0-2 1.762-2 3 1.577 0 2-1.762 2-3Z"/><path fill="#C8C9C9" id="vhc" d="M242 138h2c1.235 0 5 .643 5-1v-1l-3.5-3h-34l-3.5 2v2c0 1.643 3.765 1 5 1h1c0-1.684 4.679-1 6-1h17c1.235 0 5-.643 5 1Z"/><path fill="#C9C9CA" id="scwm" d="M93 135v2c1.577 0 2-1.762 2-3l-2 1ZM365 137l2 7c-1.673 0-6-8.485-6-10l4 3Z"/><path fill="#1B7E64" id="SSp-n6b" d="M92 137h1v-2l-2 1v1h1Z"/><path fill="#8FCBEC" id="SF" d="M207 137h1v-2l-1 2Z"/><path fill="#1A8061" id="SSs6b" d="m79 175 1 1v-3l1-2v-2l1-2c0-1.048-.473-3 1-3 0-4.569 3-7.814 3-12l1-1v-2l1-1 1-2v-1l1-2 1-2 1-4h-1c-2.076 0-3.216 7.932-4 9.5-4.1 8.199-8 18.759-8 28.5Z"/><path fill="#C9C9CA" id="scwm" d="M93 137c0 1.465.109 4-2 4l1-4h1Z"/><path fill="#1A8061" id="SSs6b" d="M377 175h1c0-9.531-4.927-21.354-9-29.5-.821-1.642-1.379-8.5-4-8.5l2 7v1l2 4v1l1 1v1l1 1 4 15v2l1 1v2l1 2Z"/><path fill="#A8A9AA" id="V3" d="M242 163h1l1-1 13-5 7-4v-6l-10-5-1-1h-1c-1.07 0-8-2.384-8-3h-2c-3.425 0-6-1.021-6 3 0 7.647-15 9.811-15 1-2.205 0-.002-3.251-1.5-4H213c0 .42-8.013 3-9 3l-10 5-1 1v6l6 4 13 5 1 1h29Z"/><path fill="#FF5347" id="SFO" d="M236 141c-1.499 0-7.81 1.845-9.5 1-1.256-.628-3.267-2.867-5-2l-.5 2c0 8.811 15 6.647 15-1Z"/><path fill="#C9C9CA" id="scwm" d="m91 141-1 2 1-2ZM90 143l-1 2 1-2Z"/><path fill="#97D6F9" id="STR" d="m163 155 4 1c0-4.772 3.462-3 6-3l1-1v-9c-1.142 0-1.617 7.058-3.5 8-3.888 1.944-8.718-2-12.5-2l5 6ZM294 155l-1 1-4-1c0-4.506-2.957-2-5-2l-2-2v-8h1c0 12.031 9.169 6 16 6l-5 6Z"/><path fill="#C9C9CA" id="scwm" d="m367 145 2 4-2-4ZM89 146l-1 2 1-2ZM88 148l-1 1 1-1Z"/><path fill="#97D6F9" id="STR" d="m157 149-1 1 1-1Z"/><path fill="#CCC" d="M169 193v1c1.771 0 2 9.494 2 11.5l.5 3.5c1.454 0 .948-8.397 1.5-9.5 3.488-6.975-.024-18.048-3-24l-1-10c-1.58-3.161-6-6.811-6-10.5l-5-6h-1l-1 1-1 1-1 2v13c3.959 0 13 18.533 13 22 1.638 0 2 3.576 2 5ZM289 189c-2.273 0-2 5.226-2 7-1.859 0-.752 11-2.5 11-1.931 0-.815-10.131-1.5-11.5-3.085-6.17 1.31-15.621 4-21v-9c1.539-3.077 6-5.884 6-9.5l1-1 5-6h1l1 1v1l1 1v1l1 13c-5.27 0-13 14.771-13 19l-1 2v2Z"/><path fill="#97D6F9" id="STR" d="m300 149 1 1-1-1Z"/><path fill="#C9C9CA" id="scwm" d="m369 150 1 1-1-1ZM87 151l-1 1 1-1Z"/><path fill="#97D6F9" id="STR" d="m155 151-1 2 1-2Z"/><path fill="#FD909E" id="AV" d="M181 160c0 4.548 8 9.95 8 13l7.5 1c8.11-4.055-2.122-16.122-5.5-19.5l-5-3.5c-2.774 0-7-.377-7 3v4l2 2Z"/><path fill="#FF6F80" id="TH" d="m217 209 4 1c0-1.024-5.907-9-1-9l-1-1c-2.014 0-5.932 2.284-8.5 1-6.518-3.259-3.5-17.298-3.5-23l-3.5 1c-3.01-1.505-4.5-18.116-4.5-22l-6-4-7-2 5 3.5c3.378 3.378 13.61 15.445 5.5 19.5l-7.5-1 1 3c5.827 0 7.824 3 1 3l-1 6c0 1.048-.473 3 1 3 0-3.708 7.102-2.297 8-.5 1.667 3.333 2 8.491 2 12.5l16 9ZM257 157v8c1.424 0 4.371-6.242 5-7.5l8-6.5c-2.483 0-4.026 2-6 2l-7 4Z"/><path fill="#FD909E" id="AV" d="m268 172-1 1c-4.072 0-10 2.685-10-4v-4c1.424 0 4.371-6.242 5-7.5l8-6.5c3.29 0 8-.534 8 4-1.579 0-1 2.855-1 4l-1 1-1 1c0 1.694-5.323 11-7 11Z"/><path fill="#CAC7CB" id="fiber tracts" d="M279 157h1l4-4-2-2c0 2.079-3 3.187-3 6Z"/><path fill="#97D6F9" id="STR" d="m301 151 1 1-1-1Z"/><path fill="#C8CBC7" id="st" d="m172 167 4 6 2-5.5-1-6.5-1-4-3-4c-2.538 0-6-1.772-6 3 0 2.72 2 3.553 2 6 1.803 0 3 3.592 3 5Z"/><path fill="#CAC7CB" id="fiber tracts" d="M176 157h1c0-2.371-.017-5-3-5l-1 1 3 4Z"/><path fill="#C8CBC7" id="st" d="M285 166c0 1.72-3.753 7-5 7l-1-11 1-5 4-4c2.043 0 5-2.506 5 2 0 3.303-2 5.115-2 8l-1 1-1 2Z"/><path fill="#C9C9CA" id="scwm" d="m370 152 1 1-1-1Z"/><path fill="#97D6F9" id="STR" d="M303 166h3c0-1.37-3.551-13-4-13l1 13ZM151 166h3v-12c-.661 0-3 10.581-3 12Z"/><path fill="#FF6F80" id="TH" d="M179 154c-1.486 0-1.486 3 0 3v-3Z"/><path fill="#8599CC" id="PAL" d="m171 225-1 1c-1.054 0-1.795-11-7-11l4-3.5c2.489-4.979 2-11.484 2-17.5 1.771 0 2 9.494 2 11.5l.5 3.5c1.454 0 .948-8.397 1.5-9.5 3.488-6.975-.024-18.048-3-24l-1-10c-1.58-3.161-6-6.811-6-10.5l4 1c0 2.72 2 3.553 2 6l3 5 4 6c1.656 0 2.398 16 5 16l-1 15c-1.183 0-1.535 3.57-2 4.5-2.728 5.456-7 9.881-7 16.5Z"/><path fill="#FF6F80" id="TH" d="m278 158-1 1c0-1.145-.579-4 1-4v3Z"/><path fill="#8599CC" id="PAL" d="M293 215c-5.325 0-4.272 11-7 11 0-3.203-6.772-19-9-19 0-6.615-2-12.007-2-19 2.476 0 5-12.215 5-15 1.247 0 5-5.28 5-7l1-2 1-1c0-2.885 2-4.697 2-8l4 1c0 3.616-4.461 6.423-6 9.5v9c-2.69 5.379-7.085 14.83-4 21 .685 1.369-.431 11.5 1.5 11.5 1.748 0 .641-11 2.5-11 0 5.167-.137 11.225 2 15.5l4 3.5ZM294 155l-1 1 1-1Z"/><path fill="#B3C0DE" id="BST" d="M187 230v1c2.802 0 5.472 5.014 9.5 3 11.853-5.926 9.067-9.366 4.5-18.5v-6c-1.747-3.494-9-4.126-9-8.5 0-6.442-7.52-4.46-3-13.5.459-.919-.765-2.5 1-2.5l1-6-1-3-1-3c0-3.05-8-8.452-8-13l-2-2-2-1h-1l1 4c2.38 0 10.02 18.46 8 22.5l-4 5.5-1 15v14c0 3.79 6 6.935 6 11l1 1Z"/><path fill="#CCC9C8" id="sm" d="M212 164c0 3.07-5 8.274-5 14l-3.5 1c-3.01-1.505-4.5-18.116-4.5-22l13 5v2ZM257 169c-2.069 0-1.361 8.931-3.5 10-2.712 1.356-3.183-2-4.5-2 0-5.604-5-10.786-5-14v-1l13-5v12Z"/><path fill="#B3C0DE" id="BST" d="M269 231v1c-2.579 0-5.997 3.752-9.5 2-3.188-1.594-10.931-7.638-8.5-12.5l4-5 2-9c1.21-2.42 6-1.223 6-5.5l1-1 1.5-2c5.449-5.449 1.5-7.348 1.5-13l-2-6 1-4 1-3 1-1c1.677 0 7-9.306 7-11l1-1 1-1 1-1 1-1h1l-1 5c-2.299 0-9.523 17.454-8 20.5.681 1.362 4 4.844 4 5.5 0 6.993 2 12.385 2 19v10c-1.216 0-7 11.295-7 13l-1 1Z"/><path fill="#FF6F80" id="TH" d="m179 158 2 2-2-2ZM277 159l-1 1 1-1ZM276 160l-1 1 1-1Z"/><path fill="#FD8F9F" id="RT" d="M176 173c1.656 0 2.398 16 5 16l4-5.5c2.02-4.04-5.62-22.5-8-22.5l1 6.5-2 5.5Z"/><path fill="#B3C0DE" id="BST" d="M169 162c1.803 0 3 3.592 3 5l-3-5Z"/><path fill="#FF6F80" id="TH" d="m213 163-1 1v-2l1 1Z"/><path fill="#FE8F9E" id="PVT" d="M230 201h6l1-2c0-4.551-4.651-12.199-2-17.5 1.542-3.084 7-14.618 7-17.5v-1h-27v2c0 4.214 4.104 11.708 6 15.5 2.863 5.727-2 14.56-2 19.5l1 1h6c0-1.509 4-2.711 4 0Z"/><path fill="#FF6F80" id="TH" d="M243 163h1v-1l-1 1Z"/><path fill="#FD8F9F" id="RT" d="M280 173c0 2.785-2.524 15-5 15 0-.656-3.319-4.138-4-5.5-1.523-3.046 5.701-20.5 8-20.5l1 11Z"/><path fill="#FF909F" id="PT" d="M207 178c0 5.702-3.018 19.741 3.5 23 2.568 1.284 6.486-1 8.5-1 0-4.94 4.863-13.773 2-19.5-1.896-3.792-6-11.286-6-15.5l-1-2h-1l-1 1c0 3.07-5 8.274-5 14Z"/><path fill="#FF6F80" id="TH" d="M215 163v2l-1-2h1ZM243 163l-1 1v-1h1Z"/><path fill="#FF909F" id="PT" d="M249 177c0 4.949 3.101 21.2-2.5 24-3.567 1.784-7.072-2-9.5-2 0-4.551-4.651-12.199-2-17.5 1.542-3.084 7-14.618 7-17.5l1-1h1c0 3.214 5 8.396 5 14Z"/><path fill="#B3C0DE" id="BST" d="m287 163-1 1 1-1Z"/><path fill="#C9C7C9" id="ccb" d="M83 164c-1.473 0-1 1.952-1 3 1.473 0 1-1.952 1-3Z"/><path fill="#B3C0DE" id="BST" d="m286 164-1 2 1-2Z"/><path fill="#8598CC" id="GPe" d="m150 219-1 1c-4.301 0-4.884-6-8-6 0-1.242-1.019-9-2-9 0-11.168 1.331-22.163 6-31.5l6-7.5h3c3.959 0 13 18.533 13 22 0 1.041.986 5 2 5v1c0 6.016.489 12.521-2 17.5l-4 3.5h-1l-1 1h-1l-1 1c-3.157 0-5.481 2-9 2ZM307 220h1c3.706 0 6.619-8 8-8l1-2c0-9.22 1.882-22.735-2-30.5-1.783-3.567-4.53-7.059-6-10l-3-3.5h-3c-5.27 0-13 14.771-13 19l-1 2v2c0 1.296-.825 7-2 7 0 5.167-.137 11.225 2 15.5l4 3.5h1l1 1c3.99 0 6.666 3 11 3l1 1Z"/><path fill="#C9C7C9" id="ccb" d="m82 167-1 2 1-2Z"/><path fill="#FF6F80" id="TH" d="M237 209h2c0-.719 14.679-8 17-8 0-5.168-.631-16 6.5-16l3.5 4c0-1.048-.473-3 1-3l-2-6c-5.379 0-6.322-4 1-4l1-3c-4.072 0-10 2.685-10-4-2.069 0-1.361 8.931-3.5 10-2.712 1.356-3.183-2-4.5-2 0 4.949 3.101 21.2-2.5 24-3.567 1.784-7.072-2-9.5-2l-1 2c4.044 0 1 6.554 1 8Z"/><path fill="#C9C7C9" id="ccb" d="m375 170 1 1-1-1ZM80 173h1v-2l-1 2Z"/><path fill="#FF6F80" id="TH" d="m268 172-1 1 1-1Z"/><path fill="#C8CBCC" id="ec" d="M80 184c0 1.048-.473 3 1 3v-14h-1v11ZM377 185l-2 4 1-16 1 2v10Z"/><path fill="#12AD83" id="VISC1" d="m43 199-4 1-3-6.5c-2.377-4.754-2-13.928-2-19.5l5 1c0 8.961 4 15.95 4 24ZM413 199c1.145 0 4-.579 4 1 3.57 0 5-21.489 5-26l-4 1c0 8.407-5 16.319-5 24Z"/><path fill="#12AC83" id="VISC2/3" d="M43 199h1c.64 0 8-2.856 8-3 0-6.866-6-13.465-6-21h-7c0 8.961 4 15.95 4 24Z"/><path fill="#11AC82" id="VISC4" d="M52 196h1l1-1h1l-3-7.5V175h-6c0 7.535 6 14.134 6 21Z"/><path fill="#12AD82" id="VISC5" d="M55 195h1c0-1.493 8.06-6 10-6 0-4.351-1-9.131-1-14H52v12.5l3 7.5Z"/><path fill="#11AC83" id="VISC6a" d="M66 189h1c4.027 0 7.606-4 12-4v-1l-1-9H65c0 4.869 1 9.649 1 14Z"/><path fill="#11AD82" id="VISC6b" d="M79 184h1v-8l-1-1h-1l1 9Z"/><path fill="#FC909D" id="AMv" d="M190 176c5.827 0 7.824 3 1 3l-1-3ZM266 176c-7.322 0-6.379 4-1 4l1-4Z"/><path fill="#11AD82" id="VISC6b" d="M378 175c0 1.574.751 9-1 9v-9h1Z"/><path fill="#11AC83" id="VISC6a" d="M377 185c5.164 0 8.827 4 13 4 0-3.985 2-9.965 2-14h-14c0 1.574.751 9-1 9v1Z"/><path fill="#12AD82" id="VISC5" d="M401 195h1l2-5.5c1.929-3.858 0-10.818 0-14.5h-12c0 4.035-2 10.015-2 14 1.476 0 11 4.64 11 6Z"/><path fill="#11AC82" id="VISC4" d="M402 195h1c3.829 0 7-14.259 7-20h-6c0 3.682 1.929 10.642 0 14.5l-2 5.5Z"/><path fill="#12AC83" id="VISC2/3" d="M412 199h1c0-7.681 5-15.593 5-24h-8c0 5.741-3.171 20-7 20v1c1.258 0 9 1.861 9 3Z"/><path fill="#019C74" id="GU6b" d="M80 191h1v-4c-1.473 0-1-1.952-1-3h-1v1c0 2.124 1 4.436 1 6Z"/><path fill="#009B74" id="GU6a" d="m78 192-10 2-1-5c4.027 0 7.606-4 12-4 0 2.124 1 4.436 1 6l-2 1Z"/><path fill="#8599CC" id="PAL" d="m192 201 4 2-1-3-4-4.5c-1.264-2.529 0-4.891 0-7.5-1.473 0-1-1.952-1-3-1.765 0-.541 1.581-1 2.5-4.52 9.04 3 7.058 3 13.5Z"/><path fill="#CCC9C8" id="sm" d="M195 200h6c0-4.009-.333-9.167-2-12.5-.898-1.797-8-3.208-8 .5 0 2.609-1.264 4.971 0 7.5l4 4.5ZM261 200l-5 1c0-5.168-.631-16 6.5-16l3.5 4c0 3.113-.325 11-5 11Z"/><path fill="#8599CC" id="PAL" d="m290 185-1 2 1-2Z"/><path fill="#019C74" id="GU6b" d="M375 191h2v-6l-2 4v2Z"/><path fill="#009B74" id="GU6a" d="m378 192 10 2 2-5c-4.173 0-7.836-4-13-4v6l1 1Z"/><path fill="#8599CC" id="PAL" d="m263 202-2 1v-3c4.675 0 5-7.887 5-11 0-1.048-.473-3 1-3 0 5.652 3.949 7.551-1.5 13l-1.5 2-1 1Z"/><path fill="#C8CBCC" id="ec" d="M84 198h1c0-1.32-3.135-10-4-10v3l2 5 1 1v1Z"/><path fill="#8599CC" id="PAL" d="M167 188c1.638 0 2 3.576 2 5-1.014 0-2-3.959-2-5Z"/><path fill="#019C75" id="GU5" d="m68 194-12 1c0-1.493 8.06-6 10-6h1l1 5Z"/><path fill="#8599CC" id="PAL" d="M289 189c-2.273 0-2 5.226-2 7 1.175 0 2-5.704 2-7Z"/><path fill="#C8CBCC" id="ec" d="m375 191-2 4c0-1.357.647-6 2-6v2Z"/><path fill="#019C75" id="GU5" d="m388 194 13 1c0-1.36-9.524-6-11-6l-2 5Z"/><path fill="#8ADA86" id="CLA" d="M85 201c0 2.688-1 3.418-1 5-8.607 0-6-8.567-6-14l2-1h1l2 5 1 1v1l1 1v2ZM372 206h1c8.314 0 5-9.369 5-14l-1-1h-2l-2 4v2l-1 1v1l-1 1v3l1 3Z"/><path fill="#209766" id="AIp6a" d="M78 213h1c0-4.754 5-5.511 5-7-8.607 0-6-8.567-6-14l-10 2 9 19h1ZM378 213h1c0-6.196 9-12.371 9-19l-10-2c0 4.631 3.314 14-5 14 0 1.791 5 3.398 5 7Z"/><path fill="#219864" id="AIp5" d="m77 214-6 2c-3.111 0-16-16.97-16-20v-1h1l12-1 9 19v1ZM379 213l7 3c0-1.193 15-13.975 15-20v-1l-13-1c0 6.629-9 12.804-9 19Z"/><path fill="#12AC83" id="VISC2/3" d="M53 196h1v-1l-1 1Z"/><path fill="#009C74" id="GU4" d="M54 196h1v-1h-1v1Z"/><path fill="#C8CBCC" id="ec" d="M372 197h1v-2l-1 2Z"/><path fill="#009C74" id="GU4" d="M401 196h2v-1h-2v1Z"/><path fill="#209865" id="AIp2/3" d="M71 216c0 1.14-9.467 4-11 4 0-2.984-16-14.467-16-21 .64 0 8-2.856 8-3h3c0 3.03 12.889 20 16 20Z"/><path fill="#209766" id="AIp6a" d="m83 196 1 1-1-1Z"/><path fill="#209865" id="AIp2/3" d="M386 216c0 1.555 9.133 4 11 4 0-3.733 15-14.035 15-21 0-1.139-7.742-3-9-3h-2c0 6.025-15 18.807-15 20Z"/><path fill="#C8CBCC" id="ec" d="M371 199h1v-2l-1 2Z"/><path fill="#209766" id="AIp6a" d="m373 197-1 1v-1h1ZM85 198v1l-1-1h1Z"/><path fill="#219765" id="AIp1" d="m60 220-5 2c0-3.136-16-15.061-16-22l4-1h1c0 6.533 16 18.016 16 21Z"/><path fill="#C8CBCC" id="ec" d="m85 201 2 2-2-4v2Z"/><path fill="#FF6F80" id="TH" d="m229 207-2 1c0-1.406.714-7-1-7 0-1.509 4-2.711 4 0l-1 6Z"/><path fill="#209766" id="AIp6a" d="m372 199-1 1v-1h1Z"/><path fill="#219765" id="AIp1" d="m397 220 4 2c2.645 0 16-18.212 16-22 0-1.579-2.855-1-4-1h-1c0 6.965-15 17.267-15 21Z"/><path fill="#CAC7CB" id="fiber tracts" d="M212 209h5l-16-9h-6l1 3c3.617 0 5.829 3 9 3 3.205 0 5.611 3 7 3Z"/><path fill="#FD909F" id="RE" d="M221 210h4l2-2c0-1.406.714-7-1-7h-6c-4.907 0 1 7.976 1 9ZM237 209c-2.275 0-3.514 1-6 1l-1-1-1-1v-1l1-6h6c4.044 0 1 6.554 1 8Z"/><path fill="#CAC7CB" id="fiber tracts" d="M239 209h5c1.532 0 4.655-3 8-3 2.626 0 5.457-3 9-3v-3l-5 1c-2.321 0-17 7.281-17 8Z"/><path fill="#C8CBCC" id="ec" d="m371 203-2 2c0-1.424.362-5 2-5v3Z"/><path fill="#209766" id="AIp6a" d="m84 206 4 1-1-3v-1l-2-2c0 2.688-1 3.418-1 5Z"/><path fill="#E64438" id="HY" d="M207 232c-3.826 0-4.332 3.416-7.5 5-2.004 1.002-9.5-1.918-9.5 2-.616 0-3-6.93-3-8 2.802 0 5.472 5.014 9.5 3 11.853-5.926 9.067-9.366 4.5-18.5v-6c-1.747-3.494-9-4.126-9-8.5l4 2c3.617 0 5.829 3 9 3 0 2.53-5.069 4.361-2 10.5.866 1.732 8.226.547 9-1 1.465-2.93 0-3.619 0-6.5h5l4 1h4c0 1.481 2 .785 2 3-3.066 0-9.68-3.14-12 1.5-1.329 2.658 8.327 16.5 10 16.5 0 1.048.473 3-1 3-.403 0-6.038-5.269-7.5-6-2.477-1.239-9.5 1.05-9.5 4ZM264 201l-1 1 1-1ZM269 232l-2 6c-7.075 0-15.128-6-18-6 0-5.046-9.926-4.287-12.5-3l-4.5 6-1-4c3.119 0 12.103-13.294 10-17.5-1.139-2.278-8.945-1.5-11-1.5l1-2c2.486 0 3.725-1 6-1h7c0 8.639 7.198 11.105 11 3.5l-3-6.5c2.626 0 5.457-3 9-3l2-1c0 4.277-4.79 3.08-6 5.5l-2 9-4 5c-2.431 4.862 5.312 10.906 8.5 12.5 3.503 1.752 6.921-2 9.5-2Z"/><path fill="#209766" id="AIp6a" d="m372 206-3 1v-2l2-2 1 3Z"/><path fill="#C8CBCC" id="ec" d="m88 207 3 5c0-1.937-1.553-8-4-8l1 3Z"/><path fill="#E64438" id="HY" d="m180 218-9 7c0-6.619 4.272-11.044 7-16.5.465-.93.817-4.5 2-4.5v14Z"/><path fill="#97D6F9" id="STR" d="M144 246v1l-5.5-3-5.5 1 6-11.5V205c.981 0 2 7.758 2 9v11c0 3.536-1.824 21 3 21Z"/><path fill="#C8CBCC" id="ec" d="m369 207-2 2c0-1.465-.109-4 2-4v2Z"/><path fill="#A0EE9C" id="EPd" d="M97 231h1l-1-5-6-13v-1l-3-5-4-1c0 1.489-5 2.246-5 7l6.5 11-4.5-4v1l4 4 4 4h1l6 3 1-1Z"/><path fill="#C7C8CA" id="fx" d="M205 206c3.205 0 5.611 3 7 3 0 2.881 1.465 3.57 0 6.5-.774 1.547-8.134 2.732-9 1-3.069-6.139 2-7.97 2-10.5ZM252 206c-3.345 0-6.468 3-8 3 0 8.639 7.198 11.105 11 3.5l-3-6.5Z"/><path fill="#A0EE9C" id="EPd" d="m366 230-2 1c-3.586 0-6 1.032-6-4l1-1 1-3 1-2c1.577 0 2-1.762 2-3v-1c2.109 0 2-2.535 2-4l2-4 2-2 3-1h1c0 1.791 5 3.398 5 7-1.399 0-1.399 2 0 2l-1 2-1 2v1h-1v1h-1v2h-1c0-4.451-3.402 1-1 1v1h-1l-1 1-1 1-1 1-1 1-1 1Z"/><path fill="#E64438" id="HY" d="M277 217c0 .551 8.088 9 9 9 0-3.203-6.772-19-9-19v10Z"/><path fill="#FF6F80" id="TH" d="m229 208 1 1-1-1Z"/><path fill="#C8CBCC" id="ec" d="M367 209c-2.109 0-2 2.535-2 4l2-4Z"/><path fill="#97D6F9" id="STR" d="M330 257h1c0-2.731 6-6.406 6-8-16.611 0-19-13.163-19-26 0-3.823-1-8.586-1-13l-1 2c0 1.908.788 13-1 13l1 14.5c-.579 1.157-3 5.491-3 6.5l4.5-2c6.491-3.245 12.5 8.55 12.5 13Z"/><path fill="#FF5D4F" id="PVH" d="M225 231h2v-18c-3.066 0-9.68-3.14-12 1.5-1.329 2.658 8.327 16.5 10 16.5Z"/><path fill="#E64438" id="HY" d="m230 212-1 1 1-1Z"/><path fill="#FF5D4F" id="PVH" d="M229 231h2c3.119 0 12.103-13.294 10-17.5-1.139-2.278-8.945-1.5-11-1.5l-1 1v18Z"/><path fill="#8599CC" id="PAL" d="m308 220 7 5c1.788 0 1-11.092 1-13-1.381 0-4.294 8-8 8Z"/><path fill="#99D2BD" id="OLF" d="M77 214h1v-1h-1v1Z"/><path fill="#C9C8CA" id="ee" d="M81 219v1l4.5 4-6.5-11h-1v1l3 5Z"/><path fill="#C8CBCC" id="ec" d="M113 237h2c0-3.232-5-.827-5-3-7.53 0-18.667-21-19-21l6 13c1.811 0 4 3.438 4 5h1c.966 0 3 2.886 3 4l3 1 3 1h2Z"/><path fill="#A8A9AA" id="V3" d="M227 231c0 1.919 2 2.488 2 0v-18h-2v18Z"/><path fill="#C8CBCC" id="ec" d="m365 213-2 4c2.109 0 2-2.535 2-4Z"/><path fill="#C9C8CA" id="ee" d="m379 213-1 2c-1.399 0-1.399-2 0-2h1Z"/><path fill="#6ACAB9" id="PIR" d="M348 296h2c3.985 0 12.972-6.444 15-10.5 7.759-15.517 16.243-30.485 24-46 2.614-5.227 12-11.55 12-17.5l-4-2c-1.867 0-11-2.445-11-4l-7-3-1 2-1 2-1 2v1l-1 1v1l-1 1h-1v1l-1 1h-1v1l-1 1-1 1-1 1-1 1-1 1c0 1.562-2.189 5-4 5 0 1.369-12.273 16.773-14.5 19l-5.5 5-1 2-1 1-1 1-1 1-1 7c0 6.65 5.127 15.754 8 21.5l3 2.5ZM106 296h3c0-2.071 10-16.105 10-24l1-1c0-4.105-6-7.713-6-11l-4.5-5L95 237l-8-9-1-1-1-1v-1l-4-4v-1l-2-2-1-4h-1l-6 2c0 1.14-9.467 4-11 4l-5 2c0 4.316 11.745 14.99 14 19.5 5.037 10.074 17.153 42.826 26.5 47.5 3.734 1.867 6.05 7 10.5 7Z"/><path fill="#A0EE9C" id="EPd" d="m79 218 2 1-3-5 1 4Z"/><path fill="#8599CC" id="PAL" d="m149 220-8 5v-11c3.116 0 3.699 6 8 6ZM162 215l-1 1 1-1Z"/><path fill="#A2B1D7" id="SI" d="M149 247c2.379 0 4.917-3.292 7.5-2l2.5 2c3.351 0 5.596-3 8-3l1-13 1-1 1-4c-1.054 0-1.795-11-7-11h-1l-1 1h-1l-1 1c-3.157 0-5.481 2-9 2l-1 1-8 5c0 3.536-1.824 21 3 21l5 1ZM297 247c1.984 0 3.945-3.278 6.5-2l3.5 2 6-1c0-1.009 2.421-5.343 3-6.5l-1-14.5-7-5h-1l-1-1c-4.334 0-7.01-3-11-3l-1-1h-1c-5.325 0-4.272 11-7 11 0 4.093 4 12.094 4 17v2c2.583 0 3.934 2 7 2Z"/><path fill="#8599CC" id="PAL" d="m294 215 1 1-1-1ZM160 216l-1 1 1-1Z"/><path fill="#F2473B" id="LPO" d="M285 258c0 2.87-7.631 8-10 8-9.085 0-10-5.971-10-14 0-5.263 2-9.23 2-14l2-6v-1l1-1c0-1.705 5.784-13 7-13 0 .551 8.088 9 9 9 0 4.093 4 12.094 4 17l-1 1v8l-1 2-1 1v1l-2 2Z"/><path fill="#99D2BD" id="OLF" d="M81 219v1l-2-2 2 1Z"/><path fill="#F2473B" id="LPO" d="M172 259c1.934 0 5.466 7 9 7 8.119 0 11-5.48 11-13l-2-14c-.616 0-3-6.93-3-8v-1l-1-1c0-4.065-6-7.21-6-11l-9 7-1 1-1 4-1 1-1 13v6l1 2v1l1 1v1l3 4Z"/><path fill="#C8CBCC" id="ec" d="M363 218c-1.577 0-2 1.762-2 3 1.577 0 2-1.762 2-3Z"/><path fill="#8599CC" id="PAL" d="m150 219-1 1 1-1ZM306 219l1 1-1-1Z"/><path fill="#99D2BD" id="OLF" d="m376 220-1 1v-1h1ZM81 221l4 4-4-4Z"/><path fill="#C8CBCC" id="ec" d="m361 221-1 2 1-2Z"/><path fill="#C9C8CA" id="ee" d="m373 223-1 1c-2.402 0 1-5.451 1-1Z"/><path fill="#8AD987" id="CTXsp" d="M374 222h1v-1h-1v1Z"/><path fill="#99D2BD" id="OLF" d="m375 222-1 1v-1h1Z"/><path fill="#97D6F9" id="STR" d="m138 223-1 1 1-1Z"/><path fill="#7ECDF8" id="FS" d="M131 247c-3.446 0-6.77 2-11 2-2.188 0-6-2.771-6-5 0-2.69-1-4.598-1-7h2c0 3.867 12 9.085 12 4 7.153 0 0-8.807 0-10l10-7 1-1h1v10.5l-6 11.5-2 1v1ZM342 245c-1.539 0-2.187 4-5 4-16.611 0-19-13.163-19-26l11 8c0 3.545-4.511 4.477-2 9.5.528 1.056 8 4.148 8 1.5l2-1 1-1 4-3h1l2 2c-2.109 0-2 2.535-2 4l-1 2Z"/><path fill="#C8CBCC" id="ec" d="M346 237h1l2-1 1-1h1l2-2 1-1 1-1 3-4 1-1 1-3c-3.59 0-7.65 11-14 11 0 2.266-4-.454-4 3h4Z"/><path fill="#A0EE9C" id="EPd" d="M372 224h1v-1l-1 1Z"/><path fill="#99D2BD" id="OLF" d="m373 224-1 1v-1h1Z"/><path fill="#8AD987" id="CTXsp" d="m87 228 2 1-4-4v1l1 1 1 1Z"/><path fill="#E64438" id="HY" d="m171 225-1 1 1-1Z"/><path fill="#8AD987" id="CTXsp" d="M370 226h1v-1l-1 1Z"/><path fill="#99D2BD" id="OLF" d="m85 226 1 1-1-1Z"/><path fill="#8AD987" id="CTXsp" d="M98 231h3c0-1.562-2.189-5-4-5l1 5ZM359 226l-1 1 1-1ZM369 227h1v-1l-1 1Z"/><path fill="#99D2BD" id="OLF" d="m371 226-1 1v-1h1Z"/><path fill="#8AD987" id="CTXsp" d="m364 231-2 4c-1.536 0-3.454-4-7-4l3-4c0 5.032 2.414 4 6 4ZM368 228h1v-1l-1 1Z"/><path fill="#99D2BD" id="OLF" d="m370 227-1 1v-1h1ZM95 235v2l-8-9 2 1h1l5 6Z"/><path fill="#FD4C3E" id="MPN" d="m224 249-4.5 4c-1.956.978-4.077-1-5.5-1l-6-3-2-3 1-14c0-2.95 7.023-5.239 9.5-4 1.462.731 7.097 6 7.5 6v15ZM249 249l-8 4h-4.5l-4.5-6v-12l4.5-6c2.574-1.287 12.5-2.046 12.5 3 0 4.514 2 8.092 2 13l-2 4Z"/><path fill="#8AD987" id="CTXsp" d="M367 229h1v-1l-1 1Z"/><path fill="#99D2BD" id="OLF" d="m369 228-1 1v-1h1Z"/><path fill="#8AD987" id="CTXsp" d="m96 232-1 3-5-6 6 3Z"/><path fill="#E64438" id="HY" d="m186 229 1 1-1-1Z"/><path fill="#8AD987" id="CTXsp" d="M366 230h1v-1l-1 1Z"/><path fill="#99D2BD" id="OLF" d="m368 229-1 1v-1h1Z"/><path fill="#E64438" id="HY" d="m169 230-1 1 1-1ZM270 230l-1 1 1-1Z"/><path fill="#8AD987" id="CTXsp" d="M364 231h2v-1l-2 1Z"/><path fill="#99D2BD" id="OLF" d="m367 230-1 1v-1h1Z"/><path fill="#8AD987" id="CTXsp" d="m97 231-1 1 1-1Z"/><path fill="#A0ED9D" id="EPv" d="m109 240 7 9.5c2.873 5.745-2 8.324-2 10.5l-4.5-5L95 237v-2l1-3 1-1h5c0 1.408 1.197 5 3 5 0 2.226 1.774 4 4 4Z"/><path fill="#8AD987" id="CTXsp" d="M105 235v1c-1.803 0-3-3.592-3-5 .966 0 3 2.886 3 4Z"/><path fill="#97D6F9" id="STR" fill-rule="evenodd" d="M127 241c0-1.423 1.978-3.544 1-5.5-1.68-3.359-17.764.368-5.5 6.5l4.5-1m-12-4c0 3.867 12 9.085 12 4 7.153 0 0-8.807 0-10-5.167 0-10.906 3-17 3 0 2.173 5-.232 5 3Z"/><path fill="#FE5547" id="PVpo" fill-rule="evenodd" d="M229 275h1c1.579 0 1-2.855 1-4 0-5.708 1-11.784 1-18v-18l-1-4h-2c0 2.488-2 1.919-2 0h-2c0 1.048.473 3-1 3v18c0 5.888 1 12.557 1 19 0 1.465-.109 4 2 4 .839 0 2-1.93 2 0m-1-3c0 1.186 1 1.186 1 0l-.5-15-.5 15Z"/><path fill="#97D6F9" id="STR" d="M338 240c0-15.06-21.565 2-3 2 0 2.648-7.472-.444-8-1.5-2.511-5.023 2-5.955 2-9.5 5.286 0 10.824 3 17 3 0 2.266-4-.454-4 3l-4 3Z"/><path fill="#8AD987" id="CTXsp" d="m355 231-1 1 1-1Z"/><path fill="#A0ED9D" id="EPv" d="m343 245-3 6.5c-1.675 3.349 2 6.241 2 8.5l5.5-5c2.227-2.227 14.5-17.631 14.5-19v-1c-1.536 0-3.454-4-7-4l-1 1-1 1c0 1.238-.423 3-2 3 0 2.043-.591 4-3 4l-5 5Z"/><path fill="#99D2BD" id="OLF" d="M362 235v1c1.811 0 4-3.438 4-5h-2l-2 4Z"/><path fill="#FF5346" id="MPO" d="M199 251c-3.313 0-4.49 2-7 2l-2-14c0-3.918 7.496-.998 9.5-2 3.168-1.584 3.674-5 7.5-5l-1 14-3 3h-2l-1 1-1 1ZM255 249c3.554 0 3.66 3 10 3 0-5.263 2-9.23 2-14-7.075 0-15.128-6-18-6 0 4.514 2 8.092 2 13 0 2.618 3 1.651 3 4h1Z"/><path fill="#8AD987" id="CTXsp" d="m354 232-1 1 1-1ZM351 235v1c1.577 0 2-1.762 2-3l-2 2Z"/><path fill="#C9C9C9" id="act" d="M127 241c0-1.423 1.978-3.544 1-5.5-1.68-3.359-17.764.368-5.5 6.5l4.5-1ZM337 241l-2 1c-18.565 0 3-17.06 3-2l-1 1Z"/><path fill="#80BEE2" id="IA" d="M108 236c0 .701 3.889 4 1 4-2.226 0-4-1.774-4-4v-1l3 1Z"/><path fill="#8AD987" id="CTXsp" d="m350 235-1 1 1-1Z"/><path fill="#80BEE2" id="IA" d="M347 237c0 1.048-.473 3 1 3 2.409 0 3-1.957 3-4v-1h-1l-1 1-2 1Z"/><path fill="#8AD987" id="CTXsp" d="m114 260 8 7c0-2.187-2.382-10 3-10 0-3.23-5-5.26-5-8-2.188 0-6-2.771-6-5-2.753 0-3-5.011-3-7l-3-1c0 .701 3.889 4 1 4l7 9.5c2.873 5.745-2 8.324-2 10.5ZM349 236l-2 1 2-1Z"/><path fill="#97D6F9" id="STR" d="M113 237c0 2.402 1 4.31 1 7-2.753 0-3-5.011-3-7h2ZM346 237l-1 2-2-2h3Z"/><path fill="#8AD987" id="CTXsp" d="M343 243v2l5-5c-1.473 0-1-1.952-1-3h-1l-1 2c0 1.465.109 4-2 4Z"/><path fill="#97D6F9" id="STR" d="M345 239c-2.109 0-2 2.535-2 4 2.109 0 2-2.535 2-4ZM338 240l-1 1 1-1ZM337 241l-2 1 2-1Z"/><path fill="#8599CC" id="PAL" d="M289 244h1v-1l-1 1Z"/><path fill="#97D6F9" id="STR" d="M342 245h1v-2l-1 2Z"/><path fill="#80C0E2" id="AAA" d="M152 277h1c3.627 0 6.168 1.666 9.5 0l4.5-4 1-2-3-6c-2.66 0-17-12.263-17-15l-4-3-5.5-3-5.5 1-2 1v1c0 3.115-4 5.701-4 10v1l8 8 1 1c1.767 0 12 6.391 12 8l2 1h1l1 1Z"/><path fill="#8599CC" id="PAL" d="M168 252v1c-1.59 0-9-5.009-9-6 3.351 0 5.596-3 8-3v6l1 2Z"/><path fill="#E64438" id="HY" d="m290 245-1 1v-2h1v1Z"/><path fill="#80C0E2" id="AAA" d="m306 276-2 1c-3.71 0-6.998 1.751-10.5 0l-4.5-4v-2c0-2.518 2-4.286 2-6 7.483 0 13.375-14 17-14l5-5 4.5-2c6.491-3.245 12.5 8.55 12.5 13l-1 1-8 8-1 1-1 1c-1.546 0-10 5.451-10 7-1.048 0-3-.473-3 1Z"/><path fill="#97D6F9" id="STR" d="m133 245-2 1 2-1Z"/><path fill="#A2B1D8" id="MA" d="M169 258c0 3.313-4 4.49-4 7-2.66 0-17-12.263-17-15l1-3c2.379 0 4.917-3.292 7.5-2l2.5 2c0 .991 7.41 6 9 6l1 1v4Z"/><path fill="#E64438" id="HY" d="M249 249h5c0-2.349-3-1.382-3-4l-2 4Z"/><path fill="#8599CC" id="PAL" d="M289 252v1l8-6c-3.066 0-4.417-2-7-2l-1 1v6Z"/><path fill="#A2B1D8" id="MA" d="m287 258 4 7c7.483 0 13.375-14 17-14l-1-4-3.5-2c-2.555-1.278-4.516 2-6.5 2l-8 6-1 1-1 1v3Z"/><path fill="#8AD987" id="CTXsp" d="m338 265-4 2c0-2.927 3.437-10-3-10 0-2.731 6-6.406 6-8 2.813 0 3.461-4 5-4h1l-3 6.5c-1.675 3.349 2 6.241 2 8.5l-1 2-1 1-1 1-1 1Z"/><path fill="#8599CC" id="PAL" d="m149 247-1 3-4-3v-1l5 1Z"/><path fill="#E64438" id="HY" d="M203 249h5l-2-3-3 3Z"/><path fill="#8599CC" id="PAL" d="m307 247 1 4 5-5-6 1Z"/><path fill="#97D6F9" id="STR" d="M126 257h1c0-4.299 4-6.885 4-10-3.446 0-6.77 2-11 2 0 2.74 5 4.77 5 8h1Z"/><path fill="#E64438" id="HY" d="M241 253c0 2.583-2 3.934-2 7-2.654 0-1.864-7-7-7v-6l4.5 6h4.5ZM201 249l-1 1 1-1Z"/><path fill="#FF4B3E" id="AHN" d="m217 261-1 9-3.5 3c-5.922 2.961-15.167-1.835-17.5-6.5-.792-1.584-2.028-5.944-1-8 .762-1.524 5-6.116 5-7.5l1-1 1-1h7l6 3c0 .781 3 4.65 3 9Z"/><path fill="#E64438" id="HY" d="M224 252c-3.645 0-4.515 9-7 9 0-4.35-3-8.219-3-9 1.423 0 3.544 1.978 5.5 1l4.5-4v3Z"/><path fill="#FF4B3E" id="AHN" d="M241 270v1l2.5 2c6.994 3.497 16.112-2.724 18.5-7.5.662-1.324 1.897-4.206 1-6l-4-7-4-3.5h-6l-8 4c0 2.583-2 3.934-2 7l1 9 1 1Z"/><path fill="#E64438" id="HY" d="M259 277h5l-2-2.5c1.689-3.377 9.584-4.5 13-4.5v-4c-9.085 0-10-5.971-10-14-6.34 0-6.446-3-10-3l4 3.5 4 7c.897 1.794-.338 4.676-1 6-2.388 4.776-11.506 10.997-18.5 7.5l-2.5-2-1 1c0 1.852 1 3.309 1 5h18ZM167 250l1 2-1-2ZM200 250l-1 1 1-1ZM198 277c5.915 0 12.755 1 18 1v-8l-3.5 3c-5.922 2.961-15.167-1.835-17.5-6.5-.792-1.584-2.028-5.944-1-8 .762-1.524 5-6.116 5-7.5-3.313 0-4.49 2-7 2 0 7.52-2.881 13-11 13l1 4c5.921 0 11 1.907 11 7h5Z"/><path fill="#FD5547" id="SBPV" d="M225 271c-1.791 0-2.959-3.27-5.5-2-1.228.614-1.276 3-3.5 3v-2l1-9c2.485 0 3.355-9 7-9 0 5.888 1 12.557 1 19ZM241 271l-1 1-3.5-3c-2.541-1.27-3.709 2-5.5 2 0-5.708 1-11.784 1-18 5.136 0 4.346 7 7 7l1 9 1 1v1Z"/><path fill="#E64438" id="HY" d="m289 253-1 1 1-2v1ZM168 253l1 1-1-1ZM288 254l-1 1 1-1ZM170 258l2 1-3-4v2l1 1ZM285 258h2v-2l-2 2Z"/><path fill="#84EA80" id="BMAa" d="m134 269-5 1c-2.971 0-4.768-3-7-3 0-2.187-2.382-10 3-10h1l1 1 8 8v1l-1 2Z"/><path fill="#8AD987" id="CTXsp" d="M127 257v1l-1-1h1Z"/><path fill="#8599CC" id="PAL" d="M169 258h1l-1-1v1Z"/><path fill="#A8A9AA" id="V3" d="M228 272h1l-.5-15-.5 15Z"/><path fill="#97D6F9" id="STR" d="M329 258h1v-1l-1 1Z"/><path fill="#8AD987" id="CTXsp" d="m331 257-1 1v-1h1Z"/><path fill="#84EA80" id="BMAa" d="m323 269 5 1c1.424 0 5-.362 5-2l1-1c0-2.927 3.437-10-3-10l-1 1h-1l-8 8 1 2 1 1Z"/><path fill="#96A6D3" id="NDB" d="m181 271-2 1c-3.806 0-7.751-1-11-1l-3-6c0-2.51 4-3.687 4-7h1l2 1c1.934 0 5.466 7 9 7l1 4-1 1ZM289 271l-12 1-1-1-1-1v-4c2.369 0 10-5.13 10-8h2l4 7c0 1.714-2 3.482-2 6Z"/><path fill="#99D2BD" id="OLF" d="M120 271c2.765 0 5.165 2 7 2 0-2.215 2-1.519 2-3-2.971 0-4.768-3-7-3l-8-7c0 3.287 6 6.895 6 11ZM341 262l-1 1 1-1ZM339 264l-1 1 1-1ZM337 272c-1.423 0-3.544-1.978-5.5-1l-1.5 2-2-3c1.424 0 5-.362 5-2l1-1 4-2-1 7Z"/><path fill="#97D6F9" id="STR" d="M135 267h1l-1-1v1ZM320 267l2 1-1-2-1 1Z"/><path fill="#99D2BD" id="OLF" d="m133 291-2 4c9.873 0 17.985-7 27-7l1-1-6-5c-3.717 0-5 .556-5-5v-2c0-1.609-10.233-8-12-8h-1l-1 2c9.244 0 20.257 22-1 22Z"/><path fill="#97D6F9" id="STR" d="m320 267-1 1 1-1Z"/><path fill="#99D2BD" id="OLF" d="m324 291 1 4c-9.197 0-16.425-6-25-6l-2-2.5 6-4.5c3.451 0 4-.134 4-5l1-2c0-1.549 8.454-7 10-7l1-1 2 1 1 1c-10.061 0-20.828 22 1 22Z"/><path fill="#8AD987" id="CTXsp" d="m334 267-1 1 1-1Z"/><path fill="#60E5B7" id="COAa" d="M129 291h4c21.257 0 10.244-22 1-22l-5 1c0 1.481-2 .785-2 3 0 4.997 1 11.531 1 17l1 1Z"/><path fill="#FF5545" id="SCH" d="M221 280h2l4-3v-2c-2.109 0-2-2.535-2-4-1.791 0-2.959-3.27-5.5-2-1.228.614-1.276 3-3.5 3v6l1 1h1c1.048 0 3-.473 3 1ZM233 280h3c0-1.473 1.952-1 3-1l2-2c0-1.691-1-3.148-1-5l-3.5-3c-2.541-1.27-3.709 2-5.5 2 0 1.145.579 4-1 4v2l3 3Z"/><path fill="#E64438" id="HY" d="m240 269 1 1-1-1Z"/><path fill="#60E5B7" id="COAa" d="M324 291h3l1-1c0-5.316 2-10.977 2-17l-2-3-5-1c-10.061 0-20.828 22 1 22Z"/><path fill="#E64438" id="HY" d="m182 270-1 1 1-1Z"/><path fill="#FE5B50" id="SO" d="M191 277h2c0-5.093-5.079-7-11-7l-1 1-1 2h1l1 1h1l1 1c1.296 0 7 .825 7 2ZM264 277h2c0-1.663 5.407-2 7-2l1-1 2-1v-2l-1-1c-3.416 0-11.311 1.123-13 4.5l2 2.5Z"/><path fill="#99D2BD" id="OLF" d="m120 271-1 1 1-1Z"/><path fill="#59D9AA" id="PAA" d="M109 297h2c3.894 0 6.605-2 10-2h1l1-1h1l1-1h1l1-1 1-2c0-5.469-1-12.003-1-17-1.835 0-4.235-2-7-2l-1 1c0 7.895-10 21.929-10 24v1Z"/><path fill="#8599CC" id="PAL" d="M179 275c-1.163 0-4.315 4-11 4 0-2.124-1-4.436-1-6l1-2c3.249 0 7.194 1 11 1l1 1-1 2Z"/><path fill="#E64438" id="HY" d="m179 272 1 1 1-2-2 1ZM277 272l-1 1v-2l1 1Z"/><path fill="#8599CC" id="PAL" d="M276 274c2.429 0 7.02 6 12 6l1-7v-2l-12 1-1 1v1Z"/><path fill="#59D9AA" id="PAA" d="M346 297h1l1-1-3-2.5c-2.873-5.746-8-14.85-8-21.5-1.423 0-3.544-1.978-5.5-1l-1.5 2c0 6.023-2 11.684-2 17l2 3h1c5.117 0 9.052 4 15 4Z"/><path fill="#E64438" id="HY" d="M228 272h1c0 1.186-1 1.186-1 0Z"/><path fill="#97D6F9" id="STR" d="m153 282 6 5c3.695 0 9-4.38 9-8 0-2.124-1-4.436-1-6l-4.5 4c-3.332 1.666-5.873 0-9.5 0v5Z"/><path fill="#E64438" id="HY" d="m181 273 1 1-1-1ZM274 274h2v-1l-2 1Z"/><path fill="#97D6F9" id="STR" d="m304 282-6 4.5 2 2.5c-3.492 0-11.52-9-12-9l1-7 4.5 4c3.502 1.751 6.79 0 10.5 0 0 .909-4.369 5 0 5Z"/><path fill="#E64438" id="HY" d="M183 275h1l-1-1v1ZM273 275h1v-1l-1 1Z"/><path fill="#97D6F9" id="STR" d="m150 276-2 1v-2l2 1Z"/><path fill="#CAC7CB" id="fiber tracts" d="M179 277h12c0-1.175-5.704-2-7-2h-5v2Z"/><path fill="#E64438" id="HY" d="M229 277h1v-2h-1v2Z"/><path fill="#CAC7CB" id="fiber tracts" d="M266 277c1.948 0 11-3.034 11 1 1.77 0-.739-3-3-3h-1c-1.593 0-7 .337-7 2Z"/><path fill="#97D6F9" id="STR" d="m306 276 2 1 1-2c-1.048 0-3-.473-3 1Z"/><path fill="#80BFE1" id="MEA" d="M153 277v5c-3.717 0-5 .556-5-5l2-1h1l1 1h1Z"/><path fill="#97D6F9" id="STR" d="m151 276 1 1-1-1Z"/><path fill="#CACCCB" id="opt" d="M179 279c4.285 0 12.613 9 20 9v-10l-1-1h-19v2ZM265 287l-7 1v-10l1-1h7c1.948 0 11-3.034 11 1v1c-1.573 0-12 6.382-12 8Z"/><path fill="#97D6F9" id="STR" d="m306 276-2 1 2-1Z"/><path fill="#80BFE1" id="MEA" d="M308 277c0 4.866-.549 5-4 5-4.369 0 0-4.091 0-5l2-1 2 1Z"/><path fill="#CAC7CB" id="fiber tracts" d="m216 278 1 1c-6.102 0-12.479-1-18-1l-1-1c5.915 0 12.755 1 18 1ZM223 280c1.943 0 3.375-2 4.5-2l5.5 2-3-3h-3l-4 3ZM258 278c-6 0-12.475 1-19 1l2-2h18l-1 1Z"/><path fill="#CBCACC" id="och" d="m228 284-18.5 1c-3.044 1.522-6.892 3-10.5 3v-10c5.521 0 11.898 1 18 1h1c0 1.473 1.952 1 3 1h2c1.943 0 3.375-2 4.5-2l5.5 2h3c1.048 0 3 .473 3-1 6.525 0 13-1 19-1v10c-7.648 0-14.586-4-22.5-4-1.901 0-7.5-.446-7.5 0Z"/><path fill="#CAC7CB" id="fiber tracts" d="m228 284-18.5 1c-3.044 1.522-6.892 3-10.5 3-7.387 0-15.715-9-20-9 0 6.216 14.799 8.65 19.5 11 .999.5 14.645-2.322 16-3 2.13-1.065 13.5.294 13.5-3ZM218 279c1.048 0 3-.473 3 1-1.048 0-3 .473-3-1ZM239 279c-1.048 0-3-.473-3 1 1.048 0 3 .473 3-1ZM277 279c-1.573 0-12 6.382-12 8 3.457 0 12-3.486 12-8ZM265 287l-7 1c-7.648 0-14.586-4-22.5-4-1.901 0-7.5-.446-7.5 0l2.5 2c5.652 2.826 19.896.948 26 4 1.197.598 8.5-2.205 8.5-3Z"/><path fill="#97D6F9" id="STR" d="m159 287-1 1 1-1Z"/><path fill="#99D2BD" id="OLF" d="m129 291-2 1 1-2 1 1ZM327 291l3 2-2-3-1 1Z"/><path fill="#CAC8C7" id="lot" d="m129 296-8 1v-2h1l1-1h1l1-1h1l1-1 2-1h4l-2 4h-1l-1 1ZM325 295c3.255 0 6.058 2 10 2 0-2.879-4-1.993-4-4h-1l-3-2h-3l1 4Z"/><path fill="#99D2BD" id="OLF" d="m127 292-1 1 1-1ZM125 293l-1 1 1-1ZM335 297c1.116 0 11 2.791 11 0-5.948 0-9.883-4-15-4 0 2.007 4 1.121 4 4ZM123 294l-1 1 1-1ZM111 297c0 2.765 8.94 0 10 0v-2c-3.395 0-6.106 2-10 2ZM130 295l-1 1 1-1ZM109 296v1c-1.048 0-3 .473-3-1h3ZM350 296c0 1.473-1.952 1-3 1l1-1h2Z"/></svg>