<svg xmlns="http://www.w3.org/2000/svg" viewBox="0 0 456 320"><path fill="#9AD1BD" id="MOB" fill-rule="evenodd" d="M178 130c0 2.442-6.3 7.901-4 12.5 12.356 24.712 29.448-12.5 4-12.5m1-5c0 .847-2.103 2.198-.5 3 4.431 2.216 10.51 1.755 15 4l4 2c1.262-.631-3.672-6.336-5-7-4.059-2.03-8.554-2-13.5-2m10 122h1c11.544 0 19.824-4.148 25-14.5 8.822-17.643 8-64.106 8-86.5 0-9.659-.026-18.552-4-26.5-1.354-2.707-4.995-4.99-6-7-.659-1.317-3.973-4.5-6-4.5l-1-1c-2.654 0-5.275-.888-7.5-2-4.086-2.043-23.687 2.344-27 4-3.914 1.957-7.764 6.382-11 8-3.839 1.919-12.5 10.595-12.5 15l-1 1v2l-1 1v1l-1 1v3l-1 2v15c1.473 0 1 1.952 1 3v4l1 2v1l1 2v3l1 1 7 13.5c3.064 6.129 6 18.479 6 25.5 0 4.2 13.84 28 18 28l1 1 3 2 1 1 4 1 1 1ZM267 247h1l1-1h1l1-1 3-1 1-1 3-2 1-1 7-7.5c2.532-5.064 9-12.676 9-18.5 0-9.632 4.867-22.234 9-30.5.819-1.637 2.844-9.5 5-9.5v-2l1-2v-2l1-1v-4l1-2v-2c0-1.145-.579-4 1-4v-9c-1.473 0-1-1.952-1-3v-2l-1-2v-2l-2-3v-2l-2-2v-1l-1-1c0-2.29-10.251-11.876-12.5-13-7.253-3.627-26.261-14.869-36-10-2.225 1.112-4.846 2-7.5 2l-1 1-3 1-6 6.5c-2.9 5.8-4.146 12.292-7 18-2.759 5.518 2 23.54 2 30 0 28.326-5.8 83.5 32 83.5m4-117c21.924 0 7.542 29.042-2.5 19l-3.5-7c0-4.599 4-7.105 4-11-2.06 0-8.887 3.307-9.5 3-2.06-1.03.899-4.449 2-5 2.656-1.328 14.713-8.074 17.5-2.5 1.058 2.117-8 .85-8 3.5Z"/><path fill="#99D2BD" id="OLF" d="M207 107v1l-1-1h1Z"/><path fill="#C7CBCA" id="onl" d="M227 211c0 15.627 2.536 34.429-4 47.5-6.828 13.656-16.856-3.678-22.5-6.5-2.557-1.279-10.5-1.798-10.5-5 11.544 0 19.824-4.148 25-14.5 8.822-17.643 8-64.106 8-86.5 0-9.659-.026-18.552-4-26.5-1.354-2.707-4.995-4.99-6-7-.659-1.317-3.973-4.5-6-4.5v-1c20.594 0 20 41.622 20 57v47ZM249 108l-3 1c0-1.577 1.762-2 3-2v1Z"/><path fill="#99D2BD" id="OLF" d="m250 107-1 1v-1h1Z"/><path fill="#C7CBCA" id="onl" d="M246 109c-10.039 0-16 20.822-16 29 0 20.215-1 40.778-1 61.5 0 7.145-2.052 18.896 1 25 3.338 6.676-2.726 22.547 1 30 2.117 4.234 8.126 11.687 14.5 8.5l8-10c2.159-1.08 13.5-3.16 13.5-6-37.8 0-32-55.174-32-83.5 0-6.46-4.759-24.482-2-30 2.854-5.708 4.1-12.2 7-18l6-6.5Z"/><path fill="#CACAC9" id="lotd" d="M179 125c0 .847-2.103 2.198-.5 3 4.431 2.216 10.51 1.755 15 4l4 2c1.262-.631-3.672-6.336-5-7-4.059-2.03-8.554-2-13.5-2ZM271 130l-2 1c-2.06 0-8.887 3.307-9.5 3-2.06-1.03.899-4.449 2-5 2.656-1.328 14.713-8.074 17.5-2.5 1.058 2.117-8 .85-8 3.5Z"/><path fill="#99D2BD" id="OLF" d="m306 128 1 1-1-1Z"/><path fill="#95E4C8" id="AOBgr" d="M178 130c0 2.442-6.3 7.901-4 12.5 12.356 24.712 29.448-12.5 4-12.5Z"/><path fill="#9AD1BD" id="MOB" d="m271 130-2 1 2-1Z"/><path fill="#95E4C8" id="AOBgr" d="M271 130c21.924 0 7.542 29.042-2.5 19l-3.5-7c0-4.599 4-7.105 4-11l2-1Z"/><path fill="#99D2BD" id="OLF" d="m307 130 2 2-2-2ZM148 132l-1 1 1-1ZM309 134c1.577 0 2 1.762 2 3l-2-3ZM147 135l-1 1 1-1ZM146 137l-1 1 1-1ZM311 139l1 2-1-2ZM145 141l-1 2 1-2ZM312 143c1.473 0 1 1.952 1 3-1.473 0-1-1.952-1-3ZM144 146c-1.622 0-1.622 9 0 9v-9ZM313 155c-1.579 0-1 2.855-1 4 1.579 0 1-2.855 1-4ZM144 158c1.473 0 1 1.952 1 3-1.473 0-1-1.952-1-3ZM312 161l-1 2 1-2ZM227 164c1.743 0 1 6.968 1 8.5V201c0 1.657.763 10-1 10v-47ZM145 165l1 2-1-2ZM311 167l-1 1 1-1ZM146 168l1 2-1-2ZM310 170l-1 2 1-2ZM147 174h1l-1-1v1Z"/><path fill="#C7CBCA" id="onl" d="m159 211 2 2c0-7.021-2.936-19.371-6-25.5l-7-13.5h-1v1l1 2v2l1 2v4l1 2v1l1 2v3l1 2v1l1 2v1l1 2v1l1 1v2l2 3v1l2 2ZM299 209l-4 5c0-9.632 4.867-22.234 9-30.5.819-1.637 2.844-9.5 5-9.5v4l-1 1v2l-1 2v4l-1 2-1 2v4l-1 2-1 2v2l-1 1v1l-1 1v2l-1 1v1l-1 1Z"/><path fill="#99D2BD" id="OLF" d="m147 175 1 2-1-2ZM309 178l-1 1 1-1ZM148 179l1 2-1-2ZM308 181l-1 2 1-2ZM149 185l1 2-1-2ZM307 187l-1 2 1-2ZM150 188l1 2-1-2ZM306 189l-1 2 1-2ZM151 193l1 2-1-2ZM305 195l-1 2 1-2ZM152 196l1 2-1-2ZM304 197l-1 2 1-2ZM153 199l1 2-1-2ZM303 201l-1 1 1-1ZM154 202l1 1-1-1ZM302 203l-1 1 1-1ZM155 205l2 3c-1.577 0-2-1.762-2-3ZM301 206l-1 1 1-1ZM300 208l-1 1 1-1ZM157 209l2 2-2-2Z"/><path fill="#C7CBCA" id="onl" d="m279 240-1 1 1-1ZM179 241l1 1-1-1ZM275 243l-1 1 1-1ZM183 244l1 1-1-1ZM271 245l-1 1 1-1ZM188 246l1 1-1-1ZM269 246l-1 1 1-1Z"/></svg>