<svg xmlns="http://www.w3.org/2000/svg" viewBox="0 0 456 320"><path fill="#1E9C59" id="MOs1" d="M131 80c0 1.422-2.033 6 0 6 5.841 0 12.388-8.444 17.5-11 10.97-5.485 24.07-6.535 35-12 2.233-1.117 21.071.035 23 1l10.5 9 4-2c0-4.852-11.263-12.382-14.5-14h-4c-13.488-6.744-41.112 6.056-53 12-2.424 1.212-18.5 8.724-18.5 11ZM327 81c0 1.424-.362 5-2 5l-17.5-11c-10.988-5.494-24.09-6.545-35-12-5.004-2.502-19.955-.022-24 2l-8.5 8h-1l-3-2c0-4.88 9.037-11.769 13.5-14h5c13.744-6.872 40.007 6.003 52 12 2.75 1.375 20.5 8.987 20.5 12Z"/><path fill="#1E9D58" id="MOs2/3" d="M131 87c0 5.531 2 10.277 2 17l14.5-11c9.876-4.938 19.129-11.065 29-16l12-4c4.129-2.065 22.5 1.854 22.5 6h1c0-3.003 3.714-4 5-4v-2l-10.5-9c-1.929-.965-20.767-2.117-23-1-10.93 5.465-24.03 6.515-35 12-5.112 2.556-11.659 11-17.5 11v1ZM325 87c0 4.043-1 7.967-1 11.5 0 1.19.614 4.5-1 4.5-4.405 0-9.201-7.35-12.5-9l-42-21c-4.022-2.011-22.5.995-22.5 6h-1c0-3.101-5-2.544-5-6l8.5-8c4.045-2.022 18.996-4.502 24-2 10.91 5.455 24.012 6.506 35 12L325 86v1Z"/><path fill="#3EA665" id="ACAd1" d="M222 93h12c0-8.898 5-15.748 5-20l-3-2c-2.95 0-5.575 12-7.5 12l-4-7-3.5-5-4 2v2c3.88 0 5 14.325 5 18Z"/><path fill="#1F9D58" id="MOs5" d="M137 147c-2.523 0-1.959 2-5 2 0-5.164-3.665-16.171-1-21.5 3.125-6.251 2-15.013 2-22.5v-1l14.5-11c9.876-4.938 19.129-11.065 29-16l12-4c4.129-2.065 22.5 1.854 22.5 6 0 3.816-16 13.257-16 20h-1l-4.5-2-18 6c-19.936 9.968-34.5 19.171-34.5 44Z"/><path fill="#40A565" id="ACAd2/3" d="m234 93 6 2c0-4.48 5-14.54 5-16 0-3.101-5-2.544-5-6h-1c0 4.252-5 11.102-5 20Z"/><path fill="#1F9D58" id="MOs5" d="m319 147 5 2c0-3.8 3.634-16.233 1-21.5-3.272-6.545-2-14.453-2-22.5v-2c-4.405 0-9.201-7.35-12.5-9l-42-21c-4.022-2.011-22.5.995-22.5 6 0 4.004 16 14.443 16 20h1l3.5-2 13 4c11.582 5.791 30.207 12.913 36.5 25.5 1.871 3.741 4 9.641 4 14 0 1.278.665 5.5-1 5.5v1Z"/><path fill="#40A565" id="ACAd2/3" d="m222 93-6 2c0-5.706-4-11.18-4-16 0-3.003 3.714-4 5-4 3.88 0 5 14.325 5 18Z"/><path fill="#3EA566" id="ACAd5" d="M198 103h1c0-1.096 14.783-8 17-8 0-5.706-4-11.18-4-16h-1c0 3.816-16 13.257-16 20l3 4ZM258 103h1c0-2.618 3-1.651 3-4 0-5.557-16-15.996-16-20h-1c0 1.46-5 11.52-5 16 5.583 0 15.532 8 18 8Z"/><path fill="#1E9D5A" id="MOp1" d="m102 167-4 2c-1.993 0-1.35-5.2-2-6.5-3.074-6.147-3-14.618-3-22 0-16.17 8.4-24.8 15-38l7-8c1.881-3.761 11.601-14.5 16-14.5 0 1.422-2.033 6 0 6v1c-3.736 0-16.352 15.204-18 18.5-2.573 5.145-7.472 8.944-10 14-2.821 5.642-3.221 12.442-6 18-2.839 5.678 5 23.265 5 29.5ZM354 167l5 2 2-4.5c2.256-4.511 4.382-30.236 2-35-2.773-5.546-5.205-11.41-8-17-2.887-5.775-9.493-10.986-12-16-1.958-3.916-12.274-15.5-16-15.5 0 1.424-.362 5-2 5v1c3.763 0 16.296 14.092 18 17.5l10 14c2.392 4.785 3.601 10.202 6 15 4.175 8.35-5 25.919-5 33.5Z"/><path fill="#1F9C58" id="MOp2/3" d="M102 167h1c4.106 0 6.984-6 11-6v-1c-1.614 0-1-3.31-1-4.5l-1-12c0-10.725 6.406-23.406 14-31l7-7.5v-1c0-6.723-2-11.469-2-17-3.736 0-16.352 15.204-18 18.5-2.573 5.145-7.472 8.944-10 14-2.821 5.642-3.221 12.442-6 18-2.839 5.678 5 23.265 5 29.5ZM343 161c4.058 0 7.012 6 11 6 0-7.581 9.175-25.15 5-33.5-2.399-4.798-3.608-10.215-6-15l-10-14c-1.704-3.408-14.237-17.5-18-17.5 0 4.043-1 7.967-1 11.5 0 1.19.614 4.5-1 4.5v2c2.698 0 8.496 7.492 10 10.5l8 13c4.74 9.481 2 21.121 2 31.5v1Z"/><path fill="#2FA74F" id="PL2/3" d="m219 131 4 1-1-39-6 2c0 3.712-.273 26.953 1 29.5l2 6.5Z"/><path fill="#2FA750" id="PL1" d="M223 132h10c0-12.222 1-26.101 1-39h-12l1 39Z"/><path fill="#2FA74F" id="PL2/3" d="m238 131-5 1c0-12.222 1-26.101 1-39l6 2c0 12.325-2 24.193-2 36Z"/><path fill="#2EA84F" id="PL5" d="M204 131h15l-2-6.5c-1.273-2.547-1-25.788-1-29.5-2.217 0-17 6.904-17 8 0 9.086 5 18.668 5 28ZM252 131h1c0-3.632.641-16.782 2-19.5l3-8.5c-2.468 0-12.417-8-18-8 0 12.325-2 24.193-2 36h14Z"/><path fill="#1D9C5A" id="MOs6a" d="M164 133c-12.481 0-21.437 14-27 14 0-24.829 14.564-34.032 34.5-44l18-6 4.5 2-7 12c-1.617 0-4 4.583-4 6-6.719 0-15 5.021-15 11 0 1.252-3.172 5-4 5ZM293 133c11.952 0 19.608 13 26 13 1.665 0 1-4.222 1-5.5 0-4.359-2.129-10.259-4-14-6.293-12.587-24.918-19.709-36.5-25.5l-13-4-3.5 2 6 12c2.275 0 4 3.756 4 6 6.83 0 15 4.787 15 11 0 1.654 3.74 5 5 5Z"/><path fill="#3FA664" id="ACAd6a" d="M198 103c-2.974 0-6.437 8-11 8l7-12h1l3 4ZM259 103c0 2.336 7.394 8 10 8l-6-12h-1c0 2.349-3 1.382-3 4Z"/><path fill="#2FA850" id="PL6a" d="M201 131h3c0-9.332-5-18.914-5-28h-1c-2.974 0-6.437 8-11 8-1.617 0-4 4.583-4 6l2 4c5.402 0 10.487 10 16 10ZM253 131h2c5.782 0 11.206-10 16-10l2-4c0-2.244-1.725-6-4-6-2.606 0-10-5.664-10-8h-1l-3 8.5c-1.359 2.718-2 15.868-2 19.5Z"/><path fill="#1E9C5A" id="MOp5" d="M132 149c0 2.453-2.947 1.447-4 2.5-.978.978-13.911 8.5-14 8.5-1.614 0-1-3.31-1-4.5l-1-12c0-10.725 6.406-23.406 14-31l7-7.5c0 7.487 1.125 16.249-2 22.5-2.665 5.329 1 16.336 1 21.5ZM324 149l19 11c0-10.379 2.74-22.019-2-31.5l-8-13c-1.504-3.008-7.302-10.5-10-10.5 0 8.047-1.272 15.955 2 22.5 2.634 5.267-1 17.7-1 21.5Z"/><path fill="#268E44" id="FRP6a" d="m180 122-12 6c0-5.979 8.281-11 15-11l2 4c0 .839 1.93 2 0 2l-4-2-1 1ZM276 122l12 6c0-6.213-8.17-11-15-11l-2 4v1c1.041 0 5-2.36 5 0Z"/><path fill="#24895D" id="ORBl6a" d="m181 121-1 1 1-1Z"/><path fill="#238A5C" id="ORBvl6a" d="M180 143c7.73 0 13.552 9 21 9l-16-29-4-2-1 1c0 3.812-2 8.866-2 12.5 0 2.336 2 6.007 2 8.5Z"/><path fill="#22885E" id="ORBm6a" d="M206 142c0 6.329 1.805 10-5 10l-16-29c1.93 0 0-1.161 0-2 5.402 0 10.487 10 16 10 0 1.645 1.148 7 4 7v2l1 1v1ZM255 152h1l1-1c0-10.449 14-18.706 14-29v-1c-4.794 0-10.218 10-16 10 0 2.137-.814 6-3 6l-1 2v2c0 5.827-3.455 11 4 11Z"/><path fill="#238A5C" id="ORBvl6a" d="M276 143c-7.071 0-12.079 8-19 8 0-10.449 14-18.706 14-29 1.041 0 5-2.36 5 0 0 4.051 4.27 10.961 2 15.5l-2 5.5Z"/><path fill="#24895D" id="ORBl6a" d="m151 155-1 3c10.22 0 17.078-15 30-15 0-2.493-2-6.164-2-8.5 0-3.634 2-8.688 2-12.5l-12 6c0 1.252-3.172 5-4 5l-11 19-1 1-1 1v1ZM304 153l3 5c-11.237 0-17.879-15-31-15l2-5.5c2.27-4.539-2-11.449-2-15.5l12 6c0 1.654 3.74 5 5 5 0 5.275 11 14.716 11 20Z"/><path fill="#58B362" id="ILA6a" d="m204 131 1 7c-2.852 0-4-5.355-4-7h3Z"/><path fill="#59B262" id="ILA5" d="M206 142c2.542 0 8.446 19 13 19v-30h-15l1 7v2l1 1v1Z"/><path fill="#59B362" id="ILA2/3" d="m219 162 5 1c0-3.613 3.008-11.484 1-15.5-2.262-4.524-2-10.031-2-15.5l-4-1v31ZM237 162l-5 1 1-31 5-1c0 9.252-1 20.08-1 30v1Z"/><path fill="#59B262" id="ILA5" d="M251 141c-1.999 0-9.008 20-14 20 0-9.92 1-20.748 1-30h14v6l-1 2v2Z"/><path fill="#58B362" id="ILA6a" d="M255 131c0 2.137-.814 6-3 6v-6h3Z"/><path fill="#59B263" id="ILA1" d="M224 165h8v-2l1-31h-10c0 5.469-.262 10.976 2 15.5 2.008 4.016-1 11.887-1 15.5v2Z"/><path fill="#209666" id="AId6a" d="M148 158h1c0-1.238.423-3 2-3v-1l1-1 1-1 11-19c-12.481 0-21.437 14-27 14 0 6.759 4.254 11 11 11ZM308 158h1c6.475 0 10-4.79 10-11v-1c-6.392 0-14.048-13-26-13 0 5.275 11 14.716 11 20 1.533 0 4 3.753 4 5Z"/><path fill="#58B362" id="ILA6a" d="m252 137-1 2 1-2Z"/><path fill="#23885E" id="ORBm5" d="m205 140 1 1-1-1ZM251 174v1c-8.065 0-14-4.861-14-13v-1c4.992 0 12.001-20 14-20 0 5.827-3.455 11 4 11 0 7.378-4 13.647-4 22ZM219 162c0 9.818-6.207 12-14 12v-10.5l-4-11.5c6.805 0 5-3.671 5-10 2.542 0 8.446 19 13 19v1Z"/><path fill="#228A5D" id="ORBl5" d="M146 181h1l8.5-6 14-10 13-5 5.5 2c0-7.358-8-14.21-8-19-12.922 0-19.78 15-30 15h-1c0 4.447-4.034 11.569-6 15.5l3 7.5Z"/><path fill="#23885C" id="ORBvl5" d="M189 163c5.84 0 10.43 11 16 11v-10.5l-4-11.5c-7.448 0-13.27-9-21-9 0 4.79 8 11.642 8 19l1 1ZM267 163l-16 11c0-8.353 4-14.622 4-22h1l1-1c6.921 0 11.929-8 19-8 0 6.542-8 11.691-8 19l-1 1Z"/><path fill="#228A5D" id="ORBl5" d="M268 162c1.984 0 3.945-3.278 6.5-2 6.209 3.104 12.708 5.854 19 9l16.5 12c0-2.78 5.116-5.268 3-9.5l-6-13.5c-11.237 0-17.879-15-31-15 0 6.542-8 11.691-8 19Z"/><path fill="#209665" id="AId5" d="M114 161c0 3.735 6.933 25 11 25l6-5.5c2.192-4.384 17-17.843 17-22.5-6.746 0-11-4.241-11-11-2.523 0-1.959 2-5 2 0 2.453-2.947 1.447-4 2.5-.978.978-13.911 8.5-14 8.5v1ZM343 161c0 3.001-8.601 25-11 25-2.543 0-23-24.708-23-28 6.475 0 10-4.79 10-11l5 2 19 11v1Z"/><path fill="#238A5C" id="ORBvl6a" d="m257 151-1 1 1-1Z"/><path fill="#1F9866" id="AIv6a" d="m153 152-1 1 1-1ZM152 153l-1 1 1-1ZM307 158h1c0-1.247-2.467-5-4-5l3 5ZM149 158h1l1-3c-1.577 0-2 1.762-2 3Z"/><path fill="#1F9865" id="AIv5" d="M125 186v1l3.5 2c4.539 2.269 11.734-2.734 14.5-5.5l3-2.5-3-7.5c1.966-3.931 6-11.053 6-15.5h-1c0 4.657-14.808 18.116-17 22.5l-6 5.5ZM332 186v1c-2.77 0-5.94 3.78-9.5 2l-8-4-4.5-4c0-2.78 5.116-5.268 3-9.5l-6-13.5h2c0 3.292 20.457 28 23 28Z"/><path fill="#238A5E" id="ORBl2/3" d="M148 185h1l8-4 11.5-5c3.436-1.718 9.464 1 12.5 1l7 1c0-3.392 3-7.918 3-11.5 0-1.045-2-1.861-2-3.5l-1-1-5.5-2-13 5-14 10-8.5 6 1 4ZM310 181l-2 4c-2.679 0-5.682-4-9-4l-10.5-5c-3.391-1.695-9.589 1-12.5 1l-8 1c0-2.654-.888-5.275-2-7.5l1-7.5 1-1c1.984 0 3.945-3.278 6.5-2 6.209 3.104 12.708 5.854 19 9l16.5 12Z"/><path fill="#209765" id="AId2/3" d="M114 194h1l10-7v-1c-4.067 0-11-21.265-11-25-4.016 0-6.894 6-11 6 0 8.591 11 20.882 11 27ZM332 187c3.26 0 6.165 7 10 7 0-4.15 12-20.323 12-27-3.988 0-6.942-6-11-6 0 3.001-8.601 25-11 25v1Z"/><path fill="#24885D" id="ORBm2/3" d="m207 181 11 1c0-5.604 6-10.362 6-17v-2l-5-1c0 9.818-6.207 12-14 12 0 2.51 2 3.687 2 7ZM250 181l-12 1c0-5.844-6-10.725-6-17v-2l5-1c0 8.139 5.935 13 14 13 1.877 0-1 4.357-1 6Z"/><path fill="#248A5D" id="ORBvl2/3" d="m199 180 8 1c0-3.313-2-4.49-2-7-5.57 0-10.16-11-16-11 0 1.639 2 2.455 2 3.5 0 3.582-3 8.108-3 11.5 3.419 0 7.224 2 11 2ZM257 180c-1.819 0-4.591 1-7 1 0-1.643 2.877-6 1-6v-1l16-11-1 7.5c1.112 2.225 2 4.846 2 7.5-3.419 0-7.224 2-11 2Z"/><path fill="#23895D" id="ORBm1" d="m229 180 9 2c0-5.844-6-10.725-6-17h-8c0 6.638-6 11.396-6 17l9-2c0-1.145-.579-4 1-4 0-3.177 1-1.079 1 1v3Z"/><path fill="#209764" id="AId1" d="m114 194-4 2c-1.998 0-2.337-5.174-3-6.5-2.908-5.815-9-13.75-9-20.5l4-2h1c0 8.591 11 20.882 11 27ZM342 195l5 1 12-27-5-2c0 6.677-12 22.85-12 27v1Z"/><path fill="#6ACAB9" id="PIR" d="M131 227c6.813 0 11.049.774 17.5 4 4.947 2.474 10.852 11 16.5 11l4-3.5 1-12.5c-.844 0-2.379-9.257-3-10.5l-6-7c-5.603-11.206 20-19.902 20-31.5-3.036 0-9.064-2.718-12.5-1l-11.5 5-8 6-27 20c0 4.34-3.4 6.701-1 11.5 1.445 2.89 10 6.622 10 8.5Z"/><path fill="#99D2BD" id="OLF" d="M227 191c0 1.407.358 10 1.5 10l.5-10v-14l-1-1c-1.579 0-1 2.855-1 4v11Z"/><path fill="#6ACAB9" id="PIR" d="M291 242h1l10.5-7c9.816-4.908 11.36-8 22.5-8 5.148 0 10.159-8.819 12-12.5.326-.652-2-6.561-2-8.5-7.931 0-22.963-19-28-19l-8-6-10.5-5c-3.391-1.695-9.589 1-12.5 1 0 11.65 15.523 17.545 20 26.5 1.139 2.277-9 16.553-9 22.5v11.5l4 4.5Z"/><path fill="#99D2BD" id="OLF" fill-rule="evenodd" d="m168 202-1 4.5 1 3c4.009 8.018 7.139-7.5 0-7.5m15 16c-2.122 0-13 5.716-13 8-.844 0-2.379-9.257-3-10.5l-6-7c-5.603-11.206 20-19.902 20-31.5l7 1c3.419 0 7.224 2 11 2 0 3.138 2 5.662 2 8-4.477 0-13 3.411-13 9-5.915 0-12.612 7.276-9 14.5l4 6.5ZM286 202l-2 4 1 3.5c3.896 7.792 7.568-7.5 1-7.5m-12 15c0 2.08 7.853 5.177 9.5 6l3.5 3c0-5.947 10.139-20.223 9-22.5-4.477-8.955-20-14.85-20-26.5l-8 1c-3.419 0-7.224 2-11 2 0 3.015-2 6.004-2 8 9.234 0 13.074 9 14 9 7.239 0 11.098 9.303 8 15.5l-3 4.5Z"/><path fill="#A3DAA3" id="DP" d="M227 191c-5.915 0-12.755 1-18 1-3.482 0-5.416-4-8-4 0-2.338-2-4.862-2-8l8 1 11 1 9-2v11ZM247 192h1c2.26 0 7-1.94 7-4 0-1.996 2-4.985 2-8-1.819 0-4.591 1-7 1l-12 1-9-2v11c5.915 0 12.755 1 18 1Z"/><path fill="#219764" id="AIv2/3" d="m125 187-10 7c0 2.237 2.023 4.261 3.5 5 9.192 4.596 13.101-4.05 21-8 1.582-.791 8.5-3.942 8.5-6l-1-4h-1l-3 2.5c-2.766 2.766-9.961 7.769-14.5 5.5l-3.5-2Z"/><path fill="#238A5D" id="ORBl1" d="M149 185v2l8-6-8 4ZM308 185l-1 2-8-6c3.318 0 6.321 4 9 4Z"/><path fill="#219764" id="AIv2/3" d="M342 194v1c-3.514 0-5.008 8.746-10.5 6-3.903-1.951-21.277-16-23.5-16l2-4 4.5 4 8 4c3.56 1.78 6.73-2 9.5-2 3.26 0 6.165 7 10 7Z"/><path fill="#209864" id="AIv1" d="M110 196c0 5.194 7.357 11 12 11l27-20v-2h-1c0 2.058-6.918 5.209-8.5 6-7.899 3.95-11.808 12.596-21 8-1.477-.739-3.5-2.763-3.5-5h-1l-4 2ZM347 196c0 5.023-7.541 10-12 10-7.931 0-22.963-19-28-19l1-2c2.223 0 19.597 14.049 23.5 16 5.492 2.746 6.986-6 10.5-6l5 1Z"/><path fill="#54BF94" id="AON" d="M263 255c1.539 0 2.187 4 5 4 7.208 0 15.666-10 21-10v-1c0-1.622-.461-5 2-5v-1l-4-4.5V226l-3.5-3c-1.647-.823-9.5-3.92-9.5-6-1.317 0-1.788 3.356-4.5 2l-.5-22c-.926 0-4.766-9-14-9 0 2.06-4.74 4-7 4v1c0 2.749-8.931 26.715-11.5 28h-17c-3.001-1.501-10.5-25.331-10.5-29-3.482 0-5.416-4-8-4-4.477 0-13 3.411-13 9v16.5l-.5 5.5-4.5-1c-2.122 0-13 5.716-13 8l-1 12.5-4 3.5c0 1.732 2 1.808 2 6l1 1c3.061 0 14.28 10 21 10 3.483 0 3.466-6 5-6l1-2c0-11.019 16.066-17.283 23.5-21l8.5 1c0-1.919 2-2.488 2 0 2.421 0 6.678-2.411 9.5-1 7.089 3.545 23.5 11.985 23.5 22l1 2v1Z"/><path fill="#61D09F" id="TTd" d="M228 221c0-1.186 1-1.186 1 0h7.5c2.569-1.285 11.5-25.251 11.5-28l-1-1c-5.245 0-12.085-1-18-1l-.5 10c-1.142 0-1.5-8.593-1.5-10-5.915 0-12.755 1-18 1 0 3.669 7.499 27.499 10.5 29h8.5Z"/><path fill="#99D2BD" id="OLF" d="M248 192v1l-1-1h1Z"/><path fill="#CBCBC7" id="aco" d="M188 197c-5.915 0-12.612 7.276-9 14.5l4 6.5 4.5 1 .5-5.5V197ZM269 197c7.239 0 11.098 9.303 8 15.5l-3 4.5c-1.317 0-1.788 3.356-4.5 2l-.5-22Z"/><path fill="#A0EE9C" id="EPd" d="m168 202-1 4.5 1 3c4.009 8.018 7.139-7.5 0-7.5ZM286 202l-2 4 1 3.5c3.896 7.792 7.568-7.5 1-7.5Z"/><path fill="#99D2BD" id="OLF" d="M228 221h1c0-1.186-1-1.186-1 0Z"/><path fill="#CAC8C7" id="lot" d="M166 248h1c0-4.192-2-4.268-2-6-5.648 0-11.553-8.526-16.5-11-6.451-3.226-10.687-4-17.5-4 0 2.924 5.738 5.119 7.5 6 7.172 3.586 19.786 15 27.5 15ZM289 248h1c8.863 0 19.828-10.164 27.5-14 2.413-1.206 7.5-3.854 7.5-7-11.14 0-12.684 3.092-22.5 8l-10.5 7-1 1c-2.461 0-2 3.378-2 5Z"/><path fill="#99D2BD" id="OLF" d="M227 231h2c0-2.488-2-1.919-2 0Z"/><path fill="#62CF9E" id="TTv" d="M206 263c6.604 0 14.013-6.527 17-12.5l5.5-9.5 4.5 9.5c2.864 5.728 10.757 12.5 17 12.5 4.94 0 13-2.707 13-8v-1l-1-2c0-10.015-16.411-18.455-23.5-22-2.822-1.411-7.079 1-9.5 1h-2l-8.5-1c-7.434 3.717-23.5 9.981-23.5 21l-1 2c0 6.822 5.382 10 12 10Z"/><path fill="#99D2BD" id="OLF" d="m292 242-1 1v-1h1ZM167 248l1 1-2-1h1ZM290 248l-1 1v-1h1ZM195 251l-1 2 1-2ZM262 252l1 2-1-2ZM189 259c0 3.4 10.236 3.868 12.5 5 1.008.504 4.5.22 4.5-1-6.618 0-12-3.178-12-10-1.534 0-1.517 6-5 6ZM268 259c0 2.845-11.306 3.903-13.5 5-1.008.504-4.5.22-4.5-1 4.94 0 13-2.707 13-8 1.539 0 2.187 4 5 4Z"/></svg>