<svg xmlns="http://www.w3.org/2000/svg" viewBox="0 0 456 320"><path fill="#C7CBCA" id="onl" d="M299 221c0 3.515-4.514 5.528-6 8.5-5.839 11.677-14.793 10.647-24.5 15.5h-7c-3.004 1.502-9.96 5.02-14 3-6.8-3.4-13.322-13.143-16.5-19.5l-2.5-17.5-2.5 14.5c-4.112 8.225-8.572 18.036-17.5 22.5-4.04 2.02-10.996-1.498-14-3h-6c-11.719-5.86-18.202-1.903-25.5-16.5-1.169-2.338-5-3.723-5-6.5 0-18.565-7-36.249-7-56v-5c1.714 0 1-5.594 1-7v-2c1.643 0 1-3.765 1-5v-3c1.473 0 1-1.952 1-3 1.473 0 1-1.952 1-3v-2l1-1v-1l1-1v-1l1-1 1-2 1-1 1-1c0-2.585 5.842-5.171 7.5-6 7.806-3.903 15.168-10 24.5-10v1c-4.782 0-10.371 3.935-14.5 6-37.441 18.72-19.956 50.587-6.5 77.5l2 21c2.052 4.103 5.253 8.506 7 12l6.5 3.5c11.314 5.657 22.12-.74 27.5-11.5 4.446-8.891 6-24.065 6-34.5l1-21.5c1.476-2.953 5.57-29.861 4-33-.762-1.524-6-12.771-6-13.5h2c4.194 0 4.194 10 6.5 10l.5-3.5 6-6.5 1 1c-3.776 0-7.197 23.106-5 27.5 2.042 4.084.029 10.058 2 14 5.75 11.501.56 44.121 8 59 3.253 6.506 13.284 19.608 23.5 14.5 7.833-3.916 13.362-7.225 17.5-15.5 3.531-7.062-.554-17.892 3-25 12.625-25.251 29.835-56.832-5.5-74.5-4.682-2.341-10.024-7-15.5-7v-1c7.672 0 16.016 4.758 22.5 8 2.885 1.442 7.641 8 9.5 8l1 1v1l2 2v1l1 1v1l1 1v2c0 1.041.986 5 2 5v3c0 1.145-.579 4 1 4v2c0 1.321-.684 6 1 6v5c0 21.254-6 38.041-6 59Z"/><path fill="#99D2BD" id="OLF" d="m195 111-2 1v-1h2Z"/><path fill="#9AD1BD" id="MOB" d="M193 112c-4.782 0-10.371 3.935-14.5 6-37.441 18.72-19.956 50.587-6.5 77.5l2 21c2.052 4.103 5.253 8.506 7 12l6.5 3.5c11.314 5.657 22.12-.74 27.5-11.5 4.446-8.891 6-24.065 6-34.5l1-21.5c1.476-2.953 5.57-29.861 4-33-.762-1.524-6-12.771-6-13.5l-5.5-5c-1.114-.557-5.5-.41-5.5-2h-14l-2 1Z"/><path fill="#99D2BD" id="OLF" d="M220 118h2c0-3.018-10.218-7-13-7 0 1.59 4.386 1.443 5.5 2l5.5 5ZM247 111c-1.622 0-5-.461-5 2 1.041 0 5-.986 5-2Z"/><path fill="#9AD1BD" id="MOB" d="M239 115c0 1.114-2.034 4-3 4-3.776 0-7.197 23.106-5 27.5 2.042 4.084.029 10.058 2 14 5.75 11.501.56 44.121 8 59 3.253 6.506 13.284 19.608 23.5 14.5 7.833-3.916 13.362-7.225 17.5-15.5 3.531-7.062-.554-17.892 3-25 12.625-25.251 29.835-56.832-5.5-74.5-4.682-2.341-10.024-7-15.5-7l-2-1h-15c0 1.014-3.959 2-5 2 0 1.577-1.762 2-3 2Z"/><path fill="#99D2BD" id="OLF" d="M264 111v1l-2-1h2ZM242 113c-1.238 0-3 .423-3 2 1.238 0 3-.423 3-2ZM235 118l1 1c.966 0 3-2.886 3-4-1.429 0-4 1.288-4 3ZM161 127l-1 1 1-1ZM296 127l1 1-1-1ZM160 128l-1 1 1-1ZM159 129l-1 2 1-2ZM297 129l2 2-2-2ZM158 131l-1 1 1-1ZM299 132l1 1-1-1ZM157 133l-1 1 1-1ZM300 134l1 1-1-1ZM156 135l-1 1 1-1ZM301 137c1.638 0 2 3.576 2 5-1.014 0-2-3.959-2-5ZM155 138c-1.473 0-1 1.952-1 3 1.473 0 1-1.952 1-3ZM154 141c-1.473 0-1 1.952-1 3 1.473 0 1-1.952 1-3ZM303 145c1.579 0 1 2.855 1 4-1.579 0-1-2.855-1-4ZM153 147c-1.643 0-1 3.765-1 5 1.643 0 1-3.765 1-5ZM304 151c1.684 0 1 4.679 1 6-1.684 0-1-4.679-1-6ZM152 154c-1.714 0-1 5.594-1 7 1.714 0 1-5.594 1-7ZM305 162c1.683 0 2 12.746 2 15 0 7.521 4.054 25.393 1 31.5l-3 3c-.877 1.754-3.694 9.5-6 9.5 0-20.959 6-37.746 6-59ZM151 166c-2.161 0-2 11.652-2 14 0 8.528-3.935 21.63 0 29.5l3 3c.813 1.626 4.09 9.5 6 9.5 0-18.565-7-36.249-7-56Z"/></svg>