<svg xmlns="http://www.w3.org/2000/svg" viewBox="0 0 456 320"><path fill="#1E9C59" id="MOs1" d="M146 70h1c0-2.767 10.496-3.998 12.5-5 8.632-4.316 33.884-14.058 44-9 3.862 1.931 7.759 5.38 11 7l4.5 5 4-2c0-4.092-6.798-7.095-8-9.5-7.035-14.071-44.23-4.635-54.5.5L146 64v6ZM238 69c0-4.036 7.549-10.025 11.5-12l7-1c7.768-3.884 36.768 5.384 44 9l9.5 5v-6c0-1.86-14.471-5.986-16.5-7-13.83-6.915-32.108-11.446-47-4-4.019 2.01-12.5 7.523-12.5 13 0 1.916 3 .07 3 3h1Z"/><path fill="#1E9D58" id="MOs2/3" d="M212 73h1c2.789 0 3.42-4 6-4v-1l-4.5-5c-3.241-1.62-7.138-5.069-11-7-10.116-5.058-35.368 4.684-44 9-2.004 1.002-12.5 2.233-12.5 5l-1 1c0 4.554 1 12.051 1 16 5.426 0 9.891-5.695 14.5-8 9.219-4.61 21.137-13 32-13 4.262 0 18.5.686 18.5 7ZM244 73l5.5-5c4.658-2.33 15.951-3.524 21-1l28 14c3.559 1.78 6.248 6 10.5 6 0-6.427 1-12.67 1-17l-9.5-5c-7.232-3.616-36.232-12.884-44-9l-7 1c-3.951 1.975-11.5 7.964-11.5 12 2.732 0 2.259 4 5 4h1Z"/><path fill="#1E9D5A" id="MOp1" d="M87 119c0 1.949.227 8 1 8 1.325 0 2.43-5.361 3-6.5l10-14c5.043-10.086 20.168-21.834 29.5-26.5 4.751-2.375 9.996-9 15.5-9v-7c-3.448 0-7.468 4.484-10.5 6-12.749 6.374-31.552 19.604-38.5 33.5-2.497 4.994-10 9.655-10 15.5ZM370 119c-1.723 0-.046 8-2 8 0-5.413-6.682-9.865-9-14.5-6.705-13.41-21.371-26.935-34.5-33.5-3.909-1.954-10.18-9-14.5-9v-6c5.524 0 10.747 6.624 15.5 9 11.971 5.985 29.521 20.542 35.5 32.5l9 13.5Z"/><path fill="#1F9D58" id="MOs5" d="M195 91h1c0-5.132 16-14.869 16-18 0-6.314-14.238-7-18.5-7-10.863 0-22.781 8.39-32 13-4.609 2.305-9.074 8-14.5 8v1c.192 0 1.424 2.653 1 3.5-2.551 5.103 1 13.493 1 17.5l12.5-7c10.608-5.304 21.91-11 33.5-11Z"/><path fill="#3EA665" id="ACAd1" d="M222 97h12l-1-19.5 4-8.5c0-2.93-3-1.084-3-3-2.045 0-4.645 9-5.5 9l-2-4-1.5-2.5-2-2.5-4 2v1l4 6.5c2.65 5.3-1 16.408-1 21.5Z"/><path fill="#1F9D58" id="MOs5" d="M261 91c13.683 0 28.082 7.79 40.5 14 2.177 1.089 2.822 3 5.5 3 2.626 0 0-2.993 0-3.5l2-4V87c-4.252 0-6.941-4.22-10.5-6l-28-14c-5.049-2.524-16.342-1.33-21 1l-5.5 5c0 2.443 17 13.737 17 18Z"/><path fill="#40A565" id="ACAd2/3" d="M217 97h5c0-5.092 3.65-16.2 1-21.5l-4-6.5c-2.58 0-3.211 4-6 4l4 10.5V97ZM234 97h6V80.5l3-7.5c-2.741 0-2.268-4-5-4h-1l-4 8.5 1 19.5Z"/><path fill="#1F9C58" id="MOp2/3" d="m147 70-1 1v-1h1ZM355 170c2.748 0 5.804 3 8 3 0-5.562 4-10.666 4-16 0-1.793 1.855-19.21 2-19.5 1.052-2.104-2-2.67-2-4l2-1c0-.538-2.043-1.5 0-1.5v-1l-1-2v-1c0-5.413-6.682-9.865-9-14.5-6.705-13.41-21.371-26.935-34.5-33.5-3.909-1.954-10.18-9-14.5-9 0 4.33-1 10.573-1 17v1c6.376 0 11.184 8.342 16.5 11 5.123 2.561 11.014 8.528 13.5 13.5 1.005 2.01 4.646 4.293 6 7l8 16c2.717 5.433 2 25.978 2 33.5v1ZM101 170l-8 3c0-4.632-1.104-7.708-3-11.5-.574-1.147 1.064-4.5-1-4.5 0-6.501-3.176-16.149 0-22.5.74-1.482-1.147-1.5-2-1.5v-1c1.473 0 1-1.952 1-3 1.186 0 1.186-1 0-1v-1c1.325 0 2.43-5.361 3-6.5l10-14c5.043-10.086 20.168-21.834 29.5-26.5 4.751-2.375 9.996-9 15.5-9 0 4.554 1 12.051 1 16v1c-4.513 0-14.85 11.175-18.5 13l-9.5 9.5-5 5-9 16c-4.91 9.82-4 26.922-4 38.5Z"/><path fill="#3EA566" id="ACAd5" d="M200 103h1c0-2.096 13.47-6 16-6V83.5L213 73h-1c0 3.131-16 12.868-16 18 0 1.095 4 6.757 4 12ZM240 97c5.248 0 12.349 6 16 6 0-3.345.759-11 5-11v-1c0-4.263-17-15.557-17-18h-1l-3 7.5V97Z"/><path fill="#1E9C5A" id="MOp5" d="M123 160c-7.477 0-14.253 10-22 10 0-11.578-.91-28.68 4-38.5l9-16 5-5 9.5-9.5c3.65-1.825 13.987-13 18.5-13 .192 0 1.424 2.653 1 3.5-2.551 5.103 1 13.493 1 17.5l-1 1c-3.905 0-6.965 5.733-9.5 7-14.751 7.376-15.5 26.998-15.5 42v1ZM333 160c6.557 0 14.237 9 22 9 0-7.522.717-28.067-2-33.5l-8-16c-1.354-2.707-4.995-4.99-6-7-2.486-4.972-8.377-10.939-13.5-13.5-5.316-2.658-10.124-11-16.5-11v12.5l-2 4c0 .507 2.626 3.5 0 3.5l1 1 7.5 6c13.009 6.504 13.248 19.995 18.5 30.5l-1 13.5v1Z"/><path fill="#1D9C5A" id="MOs6a" d="M160 139c-5.738 0-14.375 10-19 10 0-7.358 8.715-26.069 7-29.5-1.337-2.675 1.994-9.5 0-9.5l1-1 12.5-7c10.608-5.304 21.91-11 33.5-11 0 4.756-12 18.808-12 28h-1c-2.87 0-13 1.02-13 5-2.226 0-4 1.774-4 4-2.467 0-5 9.043-5 11ZM297 139c6.504 0 11.984 10 18 10 0-5.545.26-9.981-2-14.5-.919-1.839-4-4.985-4-7 0-5.009-1-10.991-1-18.5l-1-1c-2.678 0-3.323-1.911-5.5-3-12.418-6.21-26.817-14-40.5-14v1c1.759 0 13 23.622 13 27 11.078 0 22 8.366 22 20h1Z"/><path fill="#3FA664" id="ACAd6a" d="M183 120h1c0-3.428 12.839-17 16-17 0-5.243-4-10.905-4-12h-1c0 4.756-12 18.808-12 28v1ZM273 119h1c0-3.378-11.241-27-13-27-4.241 0-5 7.655-5 11 5.563 0 15.506 16 17 16Z"/><path fill="#2FA750" id="PL1" d="M223 133h11V97h-12c0 11.942 1 24.718 1 36Z"/><path fill="#2EA84F" id="PL5" d="M204 135h1c0-.835 11.646-2 13-2 0-11.23-1-24.095-1-36-2.53 0-16 3.904-16 6 0 11.602 3 21.116 3 32Z"/><path fill="#2FA74F" id="PL2/3" d="M218 133h5c0-11.282-1-24.058-1-36h-5c0 11.905 1 24.77 1 36ZM234 133h4c0-11.62 2-23.704 2-36h-6v36Z"/><path fill="#2EA84F" id="PL5" d="M238 133c4.26 0 9.871 2 14 2 0-10.211 4-21.295 4-32-3.651 0-10.752-6-16-6 0 12.296-2 24.38-2 36Z"/><path fill="#2FA850" id="PL6a" d="M193 135h11c0-10.884-3-20.398-3-32h-1c-3.161 0-16 13.572-16 17 0 3.039 8 9.277 8 15h1ZM252 135h12l3-6c0-1.465-.109-4 2-4 0-1.562 2.189-5 4-5v-1c-1.494 0-11.437-16-17-16 0 10.705-4 21.789-4 32Z"/><path fill="#1F9B5A" id="MOp6a" d="M315 149c5.214 0 14.005 10 18 10l1-13.5c-5.252-10.505-5.491-23.996-18.5-30.5l-7.5-6c0 7.509 1 13.491 1 18.5 0 2.015 3.081 5.161 4 7 2.26 4.519 2 8.955 2 14.5ZM141 149c-6.36 0-11.753 10-18 10 0-15.002.749-34.624 15.5-42 2.535-1.267 5.595-7 9.5-7 1.994 0-1.337 6.825 0 9.5 1.715 3.431-7 22.142-7 29.5Z"/><path fill="#187E61" id="SSp-m1" d="m85 158-5 1c0-10.332-1.3-21.899 3-30.5.853-1.706 1.49-9.5 4-9.5 0 1.949.227 8 1 8v2c-1.473 0-1 1.952-1 3v1l-2 6.5V158Z"/><path fill="#1E9C58" id="MOs6b" d="M169 124h2c0-2.591 8.952-4 11-4v-1c-2.87 0-13 1.02-13 5Z"/><path fill="#3FA466" id="ACAd6b" d="M182 120h1v-1h-1v1ZM274 120l-1 1v-2h1v1Z"/><path fill="#1E9C58" id="MOs6b" d="M295 139h1c0-11.634-10.922-20-22-20v1c2.131 0 12 1.529 12 4 4.603 0 9 11.882 9 15Z"/><path fill="#187E61" id="SSp-m1" d="m371 158 5 1c0-4.622 3.441-14.618 1-19.5-2.291-4.583-1.725-10.45-4-15-.895-1.79-3-3.403-3-5.5-1.723 0-.046 8-2 8v1l1 2v1l2 5.5V158Z"/><path fill="#CACCC7" id="cing" d="M172 125c3.863 0 9.223.362 12.5 2l6.5 8c0-5.356-8-10.315-8-15h-1c-2.048 0-11 1.409-11 4l1 1Z"/><path fill="#2FA84F" id="PL6b" d="M191 135h1c0-5.723-8-11.961-8-15h-1c0 4.685 8 9.644 8 15ZM273 121l-4 4c0-1.562 2.189-5 4-5v1Z"/><path fill="#CACCC7" id="cing" d="M267 129v4l6.5-7 10.5-1 2-1c0-2.471-9.869-4-12-4l-1 1-4 4c0 1.465.109 4-2 4Z"/><path fill="#1E9C58" id="MOs6b" d="M169 124c-2.226 0-4 1.774-4 4l4-4Z"/><path fill="#C9C9CA" id="scwm" d="M162 145c0 2.532 3.142 9 6 9l-1-13.5c1.001-2.001 5-13.804 5-15.5l-1-1h-2l-4 4-3 10v7ZM295 145c-2.724 0-2.082 9-7 9l1-16.5c-.624-1.247-5-11.929-5-12.5l2-1c4.603 0 9 11.882 9 15v6Z"/><path fill="#CAC7CC" id="fa" d="m190 164-1 3c0 2.407 3.05 2.399 4 .5.636-1.272 1.45-7.5 3-7.5v-3c-1.643 0-1-3.765-1-5l-3-14-1-1v-2l-6.5-8c-3.277-1.638-8.637-2-12.5-2 0 1.696-3.999 13.499-5 15.5l1 13.5c5.065 0 21 1.182 21 7 1.348 0 3.216 3 1 3Z"/><path fill="#2FA84F" id="PL6b" d="M269 125c-2.109 0-2 2.535-2 4 2.109 0 2-2.535 2-4Z"/><path fill="#CAC7CC" id="fa" d="M267 165v2c0 8.089-6-5.81-6-8v-2c0-7.483 4-13.968 4-21l1-1 1-2 6.5-7 10.5-1c0 .571 4.376 11.253 5 12.5l-1 16.5c-3.564 0-21 2.29-21 7-1.535 0-1.535 4 0 4Z"/><path fill="#1A7E64" id="SSp-m2/3" d="M88 128c1.186 0 1.186 1 0 1v-1Z"/><path fill="#1E9C58" id="MOs6b" d="m162 138-2 1c0-1.957 2.533-11 5-11l-3 10Z"/><path fill="#1A7E64" id="SSp-m2/3" d="m368 128 1 2-1-2ZM88 129c-1.473 0-1 1.952-1 3 1.473 0 1-1.952 1-3Z"/><path fill="#2FA84F" id="PL6b" d="M265 135h1l1-2v-4l-3 6h1Z"/><path fill="#1A7E64" id="SSp-m2/3" d="M367 157h4v-20.5l-2-5.5c-2.043 0 0 .962 0 1.5l-2 1c0 1.33 3.052 1.896 2 4-.145.29-2 17.707-2 19.5ZM85 157h4c0-6.501-3.176-16.149 0-22.5.74-1.482-1.147-1.5-2-1.5l-2 6.5V157Z"/><path fill="#59B262" id="ILA5" d="M211 167h6l2-3.5c2.627-5.255-1-24.708-1-30.5-1.354 0-13 1.165-13 2 0 11.682 6 23.095 6 32Z"/><path fill="#59B362" id="ILA2/3" d="M217 167h4l3-9.5-1-24.5h-5c0 5.792 3.627 25.245 1 30.5l-2 3.5Z"/><path fill="#59B263" id="ILA1" d="M229 167h6c0-2.613-.93-4.36-2-6.5-2.427-4.853 1-22.275 1-27.5h-11l1 24.5-3 9.5h7v-9c0-3.246 1-3.246 1 0v9Z"/><path fill="#59B362" id="ILA2/3" d="M235 167h4l-2-4.5c-2.574-5.148 1-23.543 1-29.5h-4c0 5.225-3.427 22.647-1 27.5 1.07 2.14 2 3.887 2 6.5Z"/><path fill="#59B262" id="ILA5" d="M239 167h7c0-10.747 6-20.885 6-32-4.129 0-9.74-2-14-2 0 5.957-3.574 24.352-1 29.5l2 4.5Z"/><path fill="#CACCC7" id="cing" d="m267 133-1 2 1-2Z"/><path fill="#58B263" id="ILA6b" d="m192 138 3 14c0 1.235-.643 5 1 5 0-6.907-3-14.629-3-22h-2v2l1 1Z"/><path fill="#58B362" id="ILA6a" d="M197 166c4.121 0 9.275 1 14 1 0-8.905-6-20.318-6-32h-12c0 7.371 3 15.093 3 22v3l1 6ZM260 165l-3.5 2H246c0-10.747 6-20.885 6-32h12c0 3.881-2.209 12.917-4 16.5-.536 1.073-.251 5.5 1 5.5v2c-1.684 0-1 4.679-1 6Z"/><path fill="#58B263" id="ILA6b" d="M265 136c0 7.032-4 13.517-4 21-1.251 0-1.536-4.427-1-5.5 1.791-3.583 4-12.619 4-16.5h1v1Z"/><path fill="#CACCC7" id="cing" d="m266 135-1 1v-1h1ZM191 137l1 1-1-1Z"/><path fill="#1F9766" id="AId6b" d="m162 145-2 1v-7l2-1v7Z"/><path fill="#209666" id="AId6a" d="M137 173h1c0-1.429 1.288-4 3-4l-3-4.5 1.5-3.5c6.295-6.295 2.28-4 11.5-4 0-1.747.253-2 2-2l1-2 1-1 1-1 1-1 3-3v-8c-5.738 0-14.375 10-19 10-6.36 0-11.753 10-18 10v1c0 5.82 8.376 13 14 13Z"/><path fill="#1F9766" id="AId6b" d="m295 145 1 1 1-7h-2v6Z"/><path fill="#209666" id="AId6a" d="M319 173h1c5.671 0 13-7.014 13-13v-1c-3.995 0-12.786-10-18-10-6.016 0-11.496-10-18-10l-1 7v1l5 5 5 5c6.196 0 7.816-1.868 11 4.5.523 1.047 1.748 2.505 1 4l-3 3.5 4 4Z"/><path fill="#248A5C" id="ORBl6b" d="M187 161h2c0-5.818-15.935-7-21-7-2.858 0-6-6.468-6-9l-2 1v1c1.721 0 3.856 7.678 6.5 9 3.159 1.579 7.942-.529 11 1 1.994.997 7.443 4 9.5 4ZM267 161h2c2.065 0 7.916-2.708 10.5-4 6.921-3.46 9.283 3.934 14.5-6.5l2-3.5v-1l-1-1c-2.724 0-2.082 9-7 9-3.564 0-21 2.29-21 7Z"/><path fill="#24895D" id="ORBl6a" d="M185 170c0 1.77-4.902 5-6 5 0-12.371-13.579-8-22-8 0-6.455-6-9.106-6-10l2-2 1-2 1-1 1-1 1-1 3-3c1.721 0 3.856 7.678 6.5 9 3.159 1.579 7.942-.529 11 1 1.994.997 7.443 4 9.5 4v2c-3.136 0-2 4.471-2 7ZM271 169c0 1.532 3.897 6 6 6 0-13.846 15.898-7 24-7 0-2.394-4.031-10 4-10l-4-6-5-5-2 3.5c-5.217 10.434-7.579 3.04-14.5 6.5-2.584 1.292-8.435 4-10.5 4v1c2.867 0 2 5.149 2 7Z"/><path fill="#1F9866" id="AIv6a" d="m157 150-1 1 1-1ZM156 151l-1 1 1-1ZM155 152l-1 1 1-1ZM306 157l-1 1-4-6 5 5ZM154 153l-1 2 1-2ZM153 155c-1.747 0-2 .253-2 2l2-2Z"/><path fill="#8ADA86" id="CLA" d="M141 169c1.235 0 5-.643 5 1 3.702 0 7.27-2 10-2l1-1c0-6.455-6-9.106-6-10-9.22 0-5.205-2.295-11.5 4l-1.5 3.5 3 4.5ZM315 169c-1.235 0-5-.643-5 1-2.008 0-9 .656-9-2 0-2.394-4.031-10 4-10l1-1c6.196 0 7.816-1.868 11 4.5.523 1.047 1.748 2.505 1 4l-3 3.5Z"/><path fill="#009B75" id="GU2/3" d="M93 173c-1.624 0-2.75 2-5 2l-3-17v-1h4c2.064 0 .426 3.353 1 4.5 1.896 3.792 3 6.868 3 11.5ZM363 173c2.523 0 1.959 2 5 2 0-5.468 3-10.901 3-17v-1h-4c0 5.334-4 10.438-4 16Z"/><path fill="#009C75" id="GU1" d="m88 176-4 1c0-5.585-4-12.093-4-18l5-1 3 17v1Z"/><path fill="#99D2BD" id="OLF" d="M228 167c0 1.186 1 1.186 1 0v-9h-1v9Z"/><path fill="#009C75" id="GU1" d="m368 175 5 2 3-18-5-1c0 6.099-3 11.532-3 17Z"/><path fill="#99D2BD" id="OLF" d="M299 247c-2.124 0-4.436 1-6 1 0-4.509-10.153-3-13-3l3-2.5c1.718-3.437 1.508-11.5-4-11.5v-5c6.19 0 13.914-19 4-19l1-7.5c-3.461-6.921-13.912-10.5-20-10.5 0-6.175-3.83-6-8-6l4-7.5V165c0-1.321-.684-6 1-6 0 2.19 6 16.089 6 8l4 2c0 1.532 3.897 6 6 6l4.5 4c2.599 2.599 11.965 11 15.5 11l10 6 10 6c-8.208 0-5.009 7-7 7 0-5.856-13.03-17.439-17-9.5l-3 17c-1.051 2.103-3.994 8.753-.5 10.5 3.545 1.772 5.378-4 8.5-4 0 5.512-10.72 9.059-7 16.5 1.106 2.213 8 5.894 8 7.5Z"/><path fill="#209665" id="AId5" d="M108 196h1c0-1.325 5.361-2.43 6.5-3 2.944-1.472 21.5-17.321 21.5-20-5.624 0-14-7.18-14-13-7.477 0-14.253 10-22 10l2 16.5 5 9.5Z"/><path fill="#99D2BD" id="OLF" d="M163 248c0-8.352 17.062.281 18.5 1h3.5l-4-4c-10.508 0-10.273-14-4-14v-5c-6.603 0-13.078-19-3-19 0-2.231-2.386-6.728-1-9.5 2.497-4.994 14.45-8.5 19-8.5 0-5.438 4.567-6 8-6l-4-8.5 1-8.5-1-6c-1.55 0-2.364 6.228-3 7.5-.95 1.899-4 1.907-4-.5l-4 3c0 1.77-4.902 5-6 5v1l-1 1-19 13c0 1.029-8.52 6-10 6l-10 6c7.911 0 6.532 8 8 8 0-8.816 12.501-17.498 16-10.5 2.222 4.444.81 10.621 3 15 1.51 3.02 4.467 10.517.5 12.5-3.796 1.898-14.454-13-17.5-13l16 17.5c4.462 8.924-7 12.118-7 15.5l5 1Z"/><path fill="#209665" id="AId5" d="M348 196h1l4-8.5c2.289-4.578 2-12.028 2-17.5v-1c-7.763 0-15.443-9-22-9 0 5.986-7.329 13-13 13 0 3.82 16.476 17.488 19.5 19l8.5 4Z"/><path fill="#22895E" id="ORBvl6b" d="m187 163 3 1c2.216 0 .348-3-1-3h-2v2ZM269 162l-2 3c-1.535 0-1.535-4 0-4h2v1Z"/><path fill="#238A5C" id="ORBvl6a" d="m267 167 4 2c0-1.851.867-7-2-7l-2 3v2ZM189 167l-4 3c0-2.529-1.136-7 2-7l3 1-1 3Z"/><path fill="#A3DAA3" id="DP" d="m253 186-1 1-2.5-2c-3.945-1.972-38.041 1-44.5 1l-2-1-3-2-4-8.5 1-8.5c4.121 0 9.275 1 14 1h17c0 1.186 1 1.186 1 0h27.5l3.5-2v10.5l-4 7.5-1 1-1 1-1 1Z"/><path fill="#228A5D" id="ORBl5" d="m178 177-19 13-7-3.5 1-3c-1.715-3.43-7-7.492-7-12.5v-1c3.702 0 7.27-2 10-2l1-1c8.421 0 22-4.371 22 8v1l-1 1ZM277 175l4.5 4c2.599 2.599 11.965 11 15.5 11 1.708 0 4.229-3 5.5-3l1.5.5v-4c2.328-4.656 6-6.717 6-13.5-2.008 0-9 .656-9-2-8.102 0-24-6.846-24 7Z"/><path fill="#24895D" id="ORBl6a" d="m157 167-1 1 1-1Z"/><path fill="#1F9866" id="AIv6a" d="m146 171-8 2c0-1.429 1.288-4 3-4 1.235 0 5-.643 5 1v1ZM310 170l9 3-4-4c-1.235 0-5-.643-5 1Z"/><path fill="#209765" id="AId2/3" d="m108 196-11 4-6-13.5c-.774-1.548-1.182-10.5-3-10.5v-1c2.25 0 3.376-2 5-2l8-3 2 16.5 5 9.5Z"/><path fill="#1F9865" id="AIv5" d="M307 196c0-2.402 8.601-1.95 10.5-1 3.132 1.566 30.5 11.989 30.5 1l-8.5-4c-3.024-1.512-19.5-15.18-19.5-19h-1l-9-3c0 6.783-3.672 8.844-6 13.5v4l-1.5-.5c-1.271 0-3.792 3-5.5 3l10 6Z"/><path fill="#209765" id="AId2/3" d="M349 196c3.372 0 6.053 3 10 3l3-5.5c2.459-4.918 6-12.821 6-18.5-3.041 0-2.477-2-5-2-2.196 0-5.252-3-8-3 0 5.472.289 12.922-2 17.5l-4 8.5Z"/><path fill="#1F9865" id="AIv5" d="M109 196c0 11.059 26.465.517 29.5-1 1.899-.95 10.5-1.402 10.5 1 1.48 0 10-4.971 10-6l-7-3.5 1-3c-1.715-3.43-7-7.492-7-12.5l-8 2h-1c0 2.679-18.556 18.528-21.5 20-1.139.57-6.5 1.675-6.5 3Z"/><path fill="#209764" id="AId1" d="m359 200 4 1 3-5.5c2.384-4.767 7-13.103 7-18.5l-5-2c0 5.679-3.541 13.582-6 18.5l-3 5.5v1ZM97 200l-4 1c0-4.883-9-17.005-9-24l4-1c1.818 0 2.226 8.952 3 10.5l6 13.5Z"/><path fill="#24895D" id="ORBl6a" d="m179 176-1 1 1-1Z"/><path fill="#54BF94" id="AON" d="M212 208c0 5.592 3.896 27-6 27 0-8.679-3.323-25.145-7-32.5l-7-13.5c0-5.438 4.567-6 8-6l3 2c0 1.238.423 3 2 3 0 7.725 7 13.093 7 20ZM244 209c0 4.172-3.161 12.178-1 16.5.97 1.94 7 8.831 7 10.5 1.643 0 1-3.765 1-5 0-2.743.963-12.427 2-14.5l6-18 5-9.5c0-6.175-3.83-6-8-6l-1 1-1 1-1 1-1 1c0 7.69-7 13.121-7 20l-1 1v1Z"/><path fill="#99D2BD" id="OLF" d="m255 184-1 1 1-1ZM205 186v2c-1.577 0-2-1.762-2-3l2 1Z"/><path fill="#61D09F" id="TTd" d="M244 208v1c-2.671 0-7.855 6.823-13.5 4-1.811-.906-1.306-8-2-8-1.936 0-.99 5.481-1.5 6.5-.917 1.833-7.659 2.421-9.5 1.5l-5.5-5c0-6.907-7-12.275-7-20v-2c6.459 0 40.555-2.972 44.5-1l2.5 2c0 7.69-7 13.121-7 20l-1 1Z"/><path fill="#99D2BD" id="OLF" d="m253 186-1 1 1-1Z"/><path fill="#80CDF8" id="ACB" d="M186 249c1.321 0 6-.684 6 1 4.082 0 14-3.118 14-8v-7c0-8.679-3.323-25.145-7-32.5l-7-13.5c-4.55 0-16.503 3.506-19 8.5-1.386 2.772 1 7.269 1 9.5 13.732 0 3 18.835 3 19v5c3.769 0 .945 9.391 2 11.5l2 2.5 4 4h1ZM271 249c-1.321 0-6-.684-6 1-3.365 0-14-2.16-14-7l-1-7c1.643 0 1-3.765 1-5 0-2.743.963-12.427 2-14.5l6-18 5-9.5c6.088 0 16.539 3.579 20 10.5l-1 7.5c-13.746 0-4 15.095-4 19v5c-3.947 0-.389 9.279-1 10.5l-2 3.5-5 4Z"/><path fill="#219764" id="AIv2/3" d="M139 202c-7.695 0-19.849 11-28 11 0-.079-14-8.86-14-13l11-4h1c0 11.059 26.465.517 29.5-1 1.899-.95 10.5-1.402 10.5 1l-10 6ZM319 203l26 10c0-.388 14-7.633 14-13v-1c-3.947 0-6.628-3-10-3h-1c0 10.989-27.368.566-30.5-1-1.899-.95-10.5-1.402-10.5 1l10 6h1l1 1Z"/><path fill="#A0EE9C" id="EPd" d="m148 212 1 2c3.046 0 13.704 14.898 17.5 13 3.967-1.983 1.01-9.48-.5-12.5-2.19-4.379-.778-10.556-3-15-3.499-6.998-16 1.684-16 10.5v1l1 1ZM299 222l-1 1c-3.122 0-4.955 5.772-8.5 4-3.494-1.747-.551-8.397.5-10.5l3-17c3.97-7.939 17 3.644 17 9.5v1l-1 1v1l-1 1-1 1-1 1-1 1-1 1-1 1-1 1-1 1-1 1-1 1Z"/><path fill="#209864" id="AIv1" d="m111 213-8 2c0-4.26-10-9.108-10-14l4-1c0 4.14 14 12.921 14 13ZM345 213c3.091 0 5.478 2 8 2 2.244 0 10-11.206 10-14l-4-1c0 5.367-14 12.612-14 13Z"/><path fill="#6ACAB9" id="PIR" d="M146 251h3c2.864 0 5.35-4 9-4 0-3.382 11.462-6.576 7-15.5L149 214l-1-2-1-1v-1c-1.468 0-.089-8-8-8-7.695 0-19.849 11-28 11l-8 2c0 6.522 10.948 23 18 23 0-1.092 6.176.338 7.5 1 4.457 2.228 14.307 12 17.5 12ZM308 251h2c3.474 0 14.435-9.967 18.5-12 1.303-.652 6.5-1.805 6.5-1 7.81 0 18-15.984 18-23-2.522 0-4.909-2-8-2l-26-10-1-1h-1c-8.208 0-5.009 7-7 7v1l-1 1v1l-1 1-1 1-1 1-1 1-1 1-1 1-1 1-1 1-1 1-1 1-1 1c0 5.512-10.72 9.059-7 16.5 1.106 2.213 8 5.894 8 7.5l9 4Z"/><path fill="#99D2BD" id="OLF" d="m318 202 1 1-1-1ZM246 239c2.813 0 3.461 4 5 4l-1-7c0-1.669-6.03-8.56-7-10.5-2.161-4.322 1-12.328 1-16.5-2.671 0-7.855 6.823-13.5 4-1.811-.906-1.306-8-2-8-1.936 0-.99 5.481-1.5 6.5-.917 1.833-7.659 2.421-9.5 1.5l-5.5-5c0 5.592 3.896 27-6 27v7l4-3 3-6.5c1.219-2.438.503-8.001 3.5-9.5 6.409-3.205 19.599-8.303 24.5 1.5 1.058 2.115.981 4.961 2 7l3 7.5Z"/><path fill="#CBCBC7" id="aco" d="M174 207c13.732 0 3 18.835 3 19-6.603 0-13.078-19-3-19Z"/><path fill="#99D2BD" id="OLF" d="m245 207-1 1 1-1Z"/><path fill="#CBCBC7" id="aco" d="M283 207c9.914 0 2.19 19-4 19 0-3.905-9.746-19 4-19Z"/><path fill="#99D2BD" id="OLF" d="m310 210-1 1 1-1ZM147 211l1 1-1-1ZM309 212l-1 1 1-1ZM308 213l-1 1 1-1ZM307 214l-1 1 1-1ZM306 215l-1 1 1-1ZM305 216l-1 1 1-1ZM304 217l-1 1 1-1Z"/><path fill="#97D6F9" id="STR" d="M236 253c-2.144 0-.381-4.262-1-5.5-2.024-4.048-5-11.423-5-16 0-1.315.25-7.5-1.5-7.5-1.1 0-2.5 5.406-2.5 6 0 6.385-2.295 14.091-5 19.5-.619 1.238 1.144 5.5-1 5.5 0-1.622.461-5-2-5 0-4.904-2.129-11-8-11l3-6.5c1.219-2.438.503-8.001 3.5-9.5 6.409-3.205 19.599-8.303 24.5 1.5 1.058 2.115.981 4.961 2 7l3 7.5c-6.276 0-7 7.217-7 11l-3 3Z"/><path fill="#99D2BD" id="OLF" d="m303 218-1 1 1-1ZM302 219l-1 1 1-1ZM301 220l-1 1 1-1ZM300 221l-1 1 1-1ZM299 222l-1 1 1-1Z"/><path fill="#54BF94" id="AON" d="M177 231c3.769 0 .945 9.391 2 11.5l2 2.5c-10.508 0-10.273-14-4-14ZM276 245h4l3-2.5c1.718-3.437 1.508-11.5-4-11.5-3.947 0-.389 9.279-1 10.5l-2 3.5Z"/><path fill="#CAC8C7" id="lot" d="m147 255-2 2c-2.77 0-24-15.915-24-19 0-1.092 6.176.338 7.5 1 4.457 2.228 14.307 12 17.5 12l1 2v2ZM310 251l1 6c3.834 0 24-15.492 24-19 0-.805-5.197.348-6.5 1-4.065 2.033-15.026 12-18.5 12Z"/><path fill="#A2B1D7" id="SI" d="M186 249c0 1.684 4.679 1 6 1 4.082 0 14-3.118 14-8l4-3c5.871 0 8 6.096 8 11h-6.5c-9.399 4.699-6.196 9-21 9h-6c-2.704-1.352-20.214-11-21.5-11 0-8.352 17.062.281 18.5 1h4.5ZM271 249c0 1.684-4.679 1-6 1-3.365 0-14-2.16-14-7-1.539 0-2.187-4-5-4-6.276 0-7 7.217-7 11 8.459 0 9.723 5.612 16.5 9h17c2.703-1.351 19.224-11 20.5-11 0-4.509-10.153-3-13-3 0 2.911-6.752 4-9 4Z"/><path fill="#99D2BD" id="OLF" d="M280 245c0 2.911-6.752 4-9 4l5-4h4Z"/><path fill="#7FCCF7" id="OT" d="m217 265-1 1c0 5.472-9.133 7.317-12.5 9-1.775.887-3.966 3-6 3-6.13 0-29.797-4.399-35-7L150 261l-1-1v-1l-2-2v-4l2-2c2.864 0 5.35-4 9-4l5 1c1.286 0 18.796 9.648 21.5 11h6c14.804 0 11.601-4.301 21-9h6.5c2.461 0 2 3.378 2 5v1l-1 2v2l-1 2-1 1v2ZM240 266l1 1c0 4.715 10.272 7.386 13.5 9 3.49 1.745 29.283-.142 33-2 3.083-1.541 5.869-3.434 9-5 2.448-1.224 10.5-6.714 10.5-9l1-1 1-2-1-6-9-4c-2.124 0-4.436 1-6 1-1.276 0-17.797 9.649-20.5 11h-17c-6.777-3.388-8.041-9-16.5-9l-3 3v1c1.473 0 1 1.952 1 3v2l2 4v1l1 1v1Z"/><path fill="#99D2BD" id="OLF" d="M186 249c1.321 0 6-.684 6 1-1.321 0-6 .684-6-1ZM271 249c-1.321 0-6-.684-6 1 1.321 0 6 .684 6-1ZM149 251l-2 2-1-2h3ZM311 257l-2 1v-1l-1-6h2l1 6Z"/><path fill="#97D6F9" id="STR" d="M236 254c1.473 0 1 1.952 1 3-1.473 0-1-1.952-1-3Z"/><path fill="#99D2BD" id="OLF" d="M147 257v1l-2-1 2-2v2Z"/><path fill="#97D6F9" id="STR" d="m220 256-1 2 1-2ZM147 258l2 1-2-2v1ZM309 258l-1 1 1-2v1ZM237 259l2 4-2-4ZM308 259l-1 1 1-1ZM149 260l1 1-1-1ZM219 260l-1 2 1-2ZM218 262l-1 1 1-1ZM239 264l1 1-1-1ZM217 265l-1 1 1-1ZM240 266l1 1-1-1Z"/></svg>