<svg xmlns="http://www.w3.org/2000/svg" viewBox="0 0 456 320"><path fill="#9AD1BD" id="MOB" fill-rule="evenodd" d="M177 210v3.5c0 8.937 9.514-3.5 0-3.5m-16 1c0 8.88 18.851 36 29 36 2.014 0 5.932 2.284 8.5 1 12.29-6.145 15.057-15.613 20.5-26.5 1.574-3.147.373-7.747 2-11l1-21c2.396-4.792 2.396-20.208 0-25-4.014-8.029 4.334-24.332 0-33-2.566-5.132-4.399-10.798-7-16l-5-4.5c-1.048 0-3 .473-3-1h-1l-1-1c-10.967 0-23.534-2.983-33.5 2-4.01 2.005-6.926 5.963-11 8-3.82 1.91-11.5 9.477-11.5 14l-1 1v1l-1 1v2l-1 2v1l-1 2v18l1 2v2l1 2v4l1 2v2l1 1v2l1 2v1c1.567 0 4 7.487 4 9v1c.913 0 2 5.014 2 6 1.473 0 1 1.952 1 3v1l1 2 1 3v1l1 1 1 3m28-75 2.5-2c7.832-3.916.5 7.402.5 8l1 6.5c-6.387 12.774-15.434 12.132-22-1-1.923-3.846 1-11.024 1-14.5 0-10.201 6.799 1 7 1 0-8.223 10-5.06 10 2ZM277 210l-2 2.5c-5.194 10.388 12.867-2.5 2-2.5m-11 37-1 1c-34.673 0-31-57.435-31-83.5v-30c2.323-4.646 2.634-10.267 5-15l6-7.5 2-1 2-1h1l2-1c10.706 0 22.763-2.868 32.5 2 4.654 2.327 8.263 6.632 13 9 2.141 1.07 8.5 7.648 8.5 10l1 1 2 6 2 4v22l-1 2v2l-1 2v4l-1 1v2l-1 1v2l-1 2c-1.473 0-1 1.952-1 3v1l-3 6v2c-1.473 0-1 1.952-1 3l-1 2v1l-1 2v2l-1 1v1l-1 2v1l-1 2c0 3.239-3.593 6.686-5 9.5-4.55 9.099-11.683 27.5-25 27.5m2-110-2.5-3c-8.904-4.452-.5 8.946-.5 9-1.684 0-1 4.679-1 6 0 3.661 5.919 11.29 10.5 9 5.172-2.586 15.568-11.363 11.5-19.5l-2-5.5c0-7.187-6-3.823-6 0l-3.5-4c-4.848-2.424-6.5 5.007-6.5 8Z"/><path fill="#99D2BD" id="OLF" d="m205 109 1 1-1-1ZM252 109l-2 1 2-1ZM207 110c1.048 0 3-.473 3 1-1.048 0-3 .473-3-1ZM249 110l-2 1 2-1Z"/><path fill="#C7CBCA" id="onl" d="M227 210c0 11.057 2.05 40.399-2 48.5l-4.5 3.5c-10.653 5.326-10.469-5.234-18-9-2.001-1.001-12.5-3.454-12.5-6 2.014 0 5.932 2.284 8.5 1 12.29-6.145 15.057-15.613 20.5-26.5 1.574-3.147.373-7.747 2-11l1-21c2.396-4.792 2.396-20.208 0-25-4.014-8.029 4.334-24.332 0-33-2.566-5.132-4.399-10.798-7-16l-5-4.5c5.634 0 9.061 7.621 11 11.5 6.403 12.806 6 29.055 6 44.5 0 2.158-.801 16 1 16v18c-1.751 0-1 7.426-1 9ZM247 111l-2 1 2-1ZM245 112c-2.477 0-2.522 2.011-4.5 3-10.294 5.147-5.767 20.034-9.5 27.5-3.302 6.604-2 18.191-2 26 0 19.24 1 39.434 1 58 0 8.316-2.558 22.883 1 30 2.032 4.064 3.644 4.572 7.5 6.5 8.549 4.275 8.911-6.955 15-10 1.802-.901 11.5-2.807 11.5-5-34.673 0-31-57.435-31-83.5v-30c2.323-4.646 2.634-10.267 5-15l6-7.5Z"/><path fill="#CACAC9" id="lotd" d="m189 136 2.5-2c7.832-3.916.5 7.402.5 8-4.457 0-5.512 6.994-11.5 4-3.86-1.93-5.528-13-8.5-13 0-10.201 6.799 1 7 1 0 7.668 9 7.448 9 3l1-1Z"/><path fill="#9DEFD2" id="AOBmi" d="m189 136-1 1c0 4.448-9 4.668-9-3 0-8.223 10-5.06 10 2ZM278 133l-3.5-4c-4.848-2.424-6.5 5.007-6.5 8 0 5.596 10 3.554 10-4Z"/><path fill="#CACAC9" id="lotd" d="m268 137-2.5-3c-8.904-4.452-.5 8.946-.5 9 4.542 0 5.289 5.605 10.5 3 3.661-1.831 6.581-13 8.5-13 0-7.187-6-3.823-6 0 0 7.554-10 9.596-10 4Z"/><path fill="#99D2BD" id="OLF" d="m306 130 1 1-1-1ZM149 133l-1 1 1-1Z"/><path fill="#95E4C8" id="AOBgr" d="M172 133c2.972 0 4.64 11.07 8.5 13 5.988 2.994 7.043-4 11.5-4l1 6.5c-6.387 12.774-15.434 12.132-22-1-1.923-3.846 1-11.024 1-14.5ZM284 133c-1.919 0-4.839 11.169-8.5 13-5.211 2.605-5.958-3-10.5-3-1.684 0-1 4.679-1 6 0 3.661 5.919 11.29 10.5 9 5.172-2.586 15.568-11.363 11.5-19.5l-2-5.5Z"/><path fill="#99D2BD" id="OLF" d="m148 135-1 1 1-1Z"/><path fill="#9AD1BD" id="MOB" d="m189 136-1 1 1-1Z"/><path fill="#99D2BD" id="OLF" d="m309 137 2 4-2-4ZM147 138l-1 2 1-2ZM146 141l-1 2 1-2ZM311 147c1.628 0 1.628 10 0 10v-10ZM145 161l1 2-1-2ZM311 163l-1 2 1-2ZM146 165l1 2-1-2ZM227 167c1.801 0 1 13.842 1 16-1.801 0-1-13.842-1-16ZM310 167l-1 2 1-2ZM147 171l1 2-1-2ZM309 173l-1 1 1-1ZM148 175l1 1-1-1ZM308 176l-1 1 1-1ZM149 178l1 2-1-2ZM307 179l-1 2 1-2ZM153 190h1c0-1.513-2.433-9-4-9 0 1.378 1.769 9 3 9ZM306 181c-1.473 0-1 1.952-1 3 1.473 0 1-1.952 1-3ZM302 191h1c1.995 0 2-4.377 2-6l-3 6Z"/><path fill="#C7CBCA" id="onl" d="m154 191-1 1v-2h1v1Z"/><path fill="#99D2BD" id="OLF" d="M156 197v2c-.886 0-3-5.824-3-7l1-1c.913 0 2 5.014 2 6Z"/><path fill="#C7CBCA" id="onl" d="M302 193h1v-2h-1v2Z"/><path fill="#99D2BD" id="OLF" d="M301 196v1l2-4h-1c-1.473 0-1 1.952-1 3Z"/><path fill="#C7CBCA" id="onl" d="M300 198h1v-2l-1 2ZM156 200h1c0-1.048.473-3-1-3v3Z"/><path fill="#99D2BD" id="OLF" d="M300 199v1l1-2h-1v1Z"/><path fill="#C7CBCA" id="onl" d="M299 201h1v-2l-1 2Z"/><path fill="#99D2BD" id="OLF" d="M157 200v1l-1-1h1Z"/><path fill="#C7CBCA" id="onl" d="M157 203h1l-1-2v2Z"/><path fill="#99D2BD" id="OLF" d="M228 201c-1.751 0-1 7.426-1 9 1.751 0 1-7.426 1-9ZM300 201l-1 2v-2h1ZM158 203l1 3c-1.577 0-2-1.762-2-3h1Z"/><path fill="#C7CBCA" id="onl" d="M298 204h1v-1l-1 1Z"/><path fill="#99D2BD" id="OLF" d="m299 204-1 1v-1h1ZM298 205l-1 2 1-2Z"/><path fill="#C7CBCA" id="onl" d="M159 208h1l-1-1v1Z"/><path fill="#99D2BD" id="OLF" d="m160 208 1 3-2-3h1ZM297 208l-1 2 1-2Z"/><path fill="#CAC8C7" id="lot" d="M177 210v3.5c0 8.937 9.514-3.5 0-3.5ZM277 210l-2 2.5c-5.194 10.388 12.867-2.5 2-2.5Z"/><path fill="#C7CBCA" id="onl" d="m266 247-1 1 1-1Z"/></svg>