<svg xmlns="http://www.w3.org/2000/svg" viewBox="0 0 456 320"><path fill="#1E9C59" id="MOs1" d="m127 149-4 2c-2.825 0-3.181-5.863-4-7.5-2.597-5.195-4.975-18.05-2-24l2-3.5c0-4.661 5.97-9.439 8-13.5 10.086-20.171 33.564-23.032 50.5-31.5 3.424-1.712 8.482-.241 12-2 3.926-1.963 27.5 7.755 27.5 12l-4 4h-1l-4.5-4-13-4c-5.681-2.84-19.534 1.767-24 4-6.82 3.41-15.078 4.54-22 8-12.978 6.489-19.826 20.152-25.5 31.5v18l4 9.5v1ZM329 149l5 2c0-.279 5.392-12.284 6-13.5 2.732-5.464-.927-16.853-3-21-9.573-19.145-16.953-27.727-36.5-37.5-13.885-6.942-34.142-13.43-49-6-2.728 1.364-12.5 4.07-12.5 9 2.364 0 3.053 3 5 3l3.5-3c4.457-2.228 9.587-2.793 14-5 5.819-2.91 19.452 1.726 24 4 3.947 1.974 14.186 3.593 19 6 13.801 6.9 22.013 18.526 28.5 31.5 2.093 4.185.939 20.122-1 24l-3 5.5v1Z"/><path fill="#1E9D58" id="MOs2/3" d="M137 142c-3.803 0-6.279 6-10 6l-4-9.5v-18c5.674-11.348 12.522-25.011 25.5-31.5 6.922-3.46 15.18-4.59 22-8 4.466-2.233 18.319-6.84 24-4l13 4 4.5 4v2c-1.622 0-5-.46-5 2h-2c-4.698 0-13.834-4.833-19.5-2l-18 6c-14.526 7.263-23.484 20.468-30.5 34.5-1.93 3.86 0 9.209 0 13.5v1ZM319 141l10 7 3-5.5c1.939-3.878 3.093-19.815 1-24-6.487-12.974-14.699-24.6-28.5-31.5-4.814-2.407-15.053-4.026-19-6-4.548-2.274-18.181-6.91-24-4-4.413 2.207-9.543 2.772-14 5l-3.5 3v2c2.518 0 4.286 2 6 2h1c4.966 0 14.602-4.949 20.5-2l13 4c22.339 11.17 25.338 19.176 35.5 39.5 1.386 2.772-1 7.269-1 9.5v1Z"/><path fill="#3EA665" id="ACAd1" d="m220 86-5 1c-1.747 0-2-.253-2-2l4-4 3 5ZM241 87h2l1-1v-1c-1.947 0-2.636-3-5-3l-3 4 5 1Z"/><path fill="#40A565" id="ACAd2/3" d="M215 87v1l-3-1v-2h1c0 1.747.253 2 2 2Z"/><path fill="#2FA750" id="PL1" d="M223 121h10c0-6.469-.753-16.993 2-22.5l6-11.5-5-1c-1.955 0-6.073 9.645-7 11.5l-.5 2.5c-.245 0-6.439-14-8.5-14l-5 1v1c6.414 0 8 26.953 8 33Z"/><path fill="#40A565" id="ACAd2/3" d="M243 87h1v-1l-1 1Z"/><path fill="#1F9D58" id="MOs5" d="M158 135c-4.615 0-8.796-2.352-13.5 0l-7.5 6c0-4.291-1.93-9.64 0-13.5 7.016-14.032 15.974-27.237 30.5-34.5l18-6c5.666-2.833 14.802 2 19.5 2 0 5.107-13 9.607-13 15-10.464 0-16.958 2.729-25.5 7-3.653 1.826-9.261 14-3.5 14l-5 10Z"/><path fill="#2FA74F" id="PL2/3" d="m218 120 5 1c0-6.047-1.586-33-8-33l-3-1c-1.622 0-5-.46-5 2l7 8.5c3.454 6.908 4 14.097 4 22.5ZM238 120l-5 1c0-6.469-.753-16.993 2-22.5l6-11.5h3c2.518 0 4.286 2 6 2 0 1.835-7.714 7.928-9 10.5-2.832 5.664-3 13.7-3 20.5Z"/><path fill="#1F9D58" id="MOs5" d="M299 135c4.372 0 8.3-2.1 12.5 0 2.55 1.275 4.466 5 7.5 5 0-2.231 2.386-6.728 1-9.5-10.162-20.324-13.161-28.33-35.5-39.5l-13-4c-5.898-2.949-15.534 2-20.5 2 0 3.034 14 13.057 14 15 11.875 0 17.822 4.161 27.5 9 2.962 1.481 5.693 12 .5 12l6 10Z"/><path fill="#2EA84F" id="PL5" d="M201 113c5.894 0 11.009 7 17 7 0-8.403-.546-15.592-4-22.5l-7-8.5h-2c0 5.107-13 9.607-13 15 0 1.765 1.581.541 2.5 1l6.5 8ZM255 113c-6.054 0-10.85 7-17 7 0-6.8.168-14.836 3-20.5 1.286-2.572 9-8.665 9-10.5h1c0 3.034 14 13.057 14 15 0 1.855-9 4.373-9 8l-1 1Z"/><path fill="#258F45" id="FRP5" d="M187 114c4.707 0 11.449 3 13 3 2.765 0 1-1.657 1-4l-6.5-8c-.919-.459-2.5.765-2.5-1-10.464 0-16.958 2.729-25.5 7-3.653 1.826-9.261 14-3.5 14 8.289 0 14.915-11 24-11ZM270 114c8.416 0 15.264 11 23 11 5.193 0 2.462-10.519-.5-12-9.678-4.839-15.625-9-27.5-9 0 1.855-9 4.373-9 8l-1 1c0 2.177-.641 4 2 4 0-2.914 10.472-3 13-3Z"/><path fill="#23885E" id="ORBm5" d="m256 112-1 1 1-1ZM218 120c0 5.407 1.746 21-6 21l-12-24c2.765 0 1-1.657 1-4 5.894 0 11.009 7 17 7Z"/><path fill="#23885E" id="ORBm5" fill-rule="evenodd" d="M254 117c0 1.93 1.93 0 0 0m-10 24h1c0-6.422 12-19.897 12-24-2.641 0-2-1.823-2-4-6.054 0-10.85 7-17 7 0 5.161-.969 21 6 21Z"/><path fill="#228A5D" id="ORBl5" d="M182 135c-12.589 0-15.45 25-30 25l3-18.5 3-6.5 5-10c8.289 0 14.915-11 24-11 0 6.351-5 13.944-5 21Z"/><path fill="#23885C" id="ORBvl5" d="M182 135c5.068 0 18.444.972 22.5 3l7.5 3-12-24c-1.551 0-8.293-3-13-3 0 6.351-5 13.944-5 21ZM274 135c-5.068 0-18.444.972-22.5 3-1.157.579-5.491 3-6.5 3 0-6.422 12-19.897 12-24 0-2.914 10.472-3 13-3 0 6.99 4 13.468 4 21Z"/><path fill="#228A5D" id="ORBl5" d="M299 135c0 8.152 5 16.183 5 25-14.963 0-15.962-25-30-25 0-7.532-4-14.01-4-21 8.416 0 15.264 11 23 11l6 10Z"/><path fill="#258F45" id="FRP5" d="M254 117c0 1.93 1.93 0 0 0Z"/><path fill="#24885D" id="ORBm2/3" d="M218 155h1l3-3.5c1.24-2.481.752-5.503 2-8l-1-22.5-5-1c0 5.407 1.746 21-6 21l6 14ZM238 155h1c0-5.22 5-9.091 5-14-6.969 0-6-15.839-6-21l-5 1c0 5.676-1.71 34 5 34Z"/><path fill="#23895D" id="ORBm1" d="m225 167-4 1c0-5.031-2-8.243-2-13l3-3.5c1.24-2.481.752-5.503 2-8l-1-22.5h10c0 5.676-1.71 34 5 34l-3 13-4-2c0-7.266-6-5.24-6 1Z"/><path fill="#209665" id="AId5" d="M137 142c1.845 0 1.441 3.381 2 4.5 1.729 3.459 8.375 13.5 13 13.5l3-18.5 3-6.5c-4.615 0-8.796-2.352-13.5 0l-7.5 6v1ZM319 141c0 5.306-8.86 19-15 19 0-8.817-5-16.848-5-25 4.372 0 8.3-2.1 12.5 0 2.55 1.275 4.466 5 7.5 5v1Z"/><path fill="#238A5E" id="ORBl2/3" d="m151 168-1 6c7.466 0 23.891-26 32-26v-13c-12.589 0-15.45 25-30 25l-1 8Z"/><path fill="#248A5D" id="ORBvl2/3" d="M182 147c13.217 0 22.732 8 36 8l-6-14-7.5-3c-4.056-2.028-17.432-3-22.5-3v12ZM274 147c-12.827 0-22.086 8-35 8 0-5.22 5-9.091 5-14h1c1.009 0 5.343-2.421 6.5-3 4.056-2.028 17.432-3 22.5-3 0 2.061 2.54 12 0 12Z"/><path fill="#238A5E" id="ORBl2/3" d="M306 169v5c-8.102 0-21.894-26-32-26v-1c2.54 0 0-9.939 0-12 14.038 0 15.037 25 30 25l2 9Z"/><path fill="#209765" id="AId2/3" d="m306 169 5 6c4.32 0 17.317-26 18-26v-1l-10-7c0 5.306-8.86 19-15 19l2 9ZM145 175h1c0-1.294 3.609-7 5-7l1-8c-4.625 0-11.271-10.041-13-13.5-.559-1.119-.155-4.5-2-4.5-3.803 0-6.279 6-10 6v1c1.186 0 3.454 4.408 4 5.5 2.357 4.713 5.618 9.236 8 14l6 6.5Z"/><path fill="#248A5B" id="ORBvl1" d="M183 158c0 1.397 12.834 1.167 14.5 2l23.5 8c0-5.031-2-8.243-2-13h-1c-13.268 0-22.783-8-36-8v1l1 10ZM273 159c-5.929 0-13.572-.464-18.5 2-5.292 2.646-13.391 7-19.5 7l3-13h1c12.914 0 22.173-8 35-8v1l-1 11Z"/><path fill="#238A5D" id="ORBl1" d="M151 181h1l5-4.5c2.706-5.413 19.384-18.5 26-18.5l-1-10c-8.109 0-24.534 26-32 26v1c.533 0 1 4.707 1 6ZM305 181h1v-7c-8.102 0-21.894-26-32-26l-1 11c8.444 0 23.356 10.212 28 19.5l4 2.5Z"/><path fill="#209764" id="AId1" d="M145 175c0 1.366-2.366 4-4 4-2.76 0-3.193-4.693-4.5-6-2.866-2.866-13.5-18.526-13.5-22l4-2c1.186 0 3.454 4.408 4 5.5 2.357 4.713 5.618 9.236 8 14l6 6.5ZM311 175l4 4 5-5.5 14-22.5-5-2c-.683 0-13.68 26-18 26Z"/><path fill="#99D2BD" id="OLF" d="M155 198c0 3.702 2 7.27 2 10-1.988 0-2.408-3.315-3-4.5-8.963-17.926-2-8.056-2-22.5l5-4.5c2.706-5.413 19.384-18.5 26-18.5 0 1.397 12.834 1.167 14.5 2l23.5 8 4-1c0 5.28 2 8.97 2 14-1.951 0-.477-2.454-1-3.5-1.41-2.82-1.861-6.681-5.5-8.5-5.486-2.743-8.362 0-13.5 0 0-2.076-7.932-3.216-9.5-4-8.887-4.443-18.699-2.151-27 2l-7.5 6-2 2-2 2-2 2c-1.577 0-2 1.762-2 3l-1 1-1 9.5 2 5.5ZM301 198v7l2-2.5c6.34-12.679 2-9.266 2-21.5l-4-2.5c-4.644-9.288-19.556-19.5-28-19.5-5.929 0-13.572-.464-18.5 2-5.292 2.646-13.391 7-19.5 7l-4-2v8l4.5-5c5.267-2.633 8.645 0 13.5 0 0-2.55 8.735-3.117 10.5-4 6.773-3.386 16.216-3.392 23 0l10.5 8c2.636 0 9 7.291 9 10 0 1.878 3.275 15-1 15Z"/><path fill="#54BF94" id="AON" d="M187 243c1.564 0 3.876 1 6 1l2-2.5c7.534-15.069 5-8.887 5-25.5l-1-1c-8.497 0-10.442-10.384-14-17.5-1.037-2.073-5.447-5.105-4-8 .935-1.87 6.479-.011 7.5.5 3.28 1.64 7.5 12.486 7.5 16l4 2c1.55 0 2.364-6.228 3-7.5 4.646-9.291 4-20.256 4-31.5 0-2.076-7.932-3.216-9.5-4-8.887-4.443-18.699-2.151-27 2l-7.5 6c0 1.747-.253 2-2 2 0 1.747-.253 2-2 2 0 1.747-.253 2-2 2 0 1.238-.423 3-2 3l-1 1-1 9.5 2 5.5c2.528 0 4.935 7.435 6.5 9 1.758 1.758 20.5 30.963 20.5 32v1c1.947 0 2.636 3 5 3ZM263 244h6l1-1 4-3 1-1c0-6.445 16.18-23.859 20-31.5.823-1.647 3.92-9.5 6-9.5 4.275 0 1-13.122 1-15l-9-10-10.5-8c-6.784-3.392-16.227-3.386-23 0-1.765.883-10.5 1.45-10.5 4 0 7.082-1.281 18.938 2 25.5l5 13.5 4-2 1-1c0-1.98 2.603-13.052 4.5-14 .803-.402 10.5-4.477 10.5-.5l-5 7c-2.395 4.789-3.636 10.273-6 15-1.244 2.487-5.552 2.5-7 2.5h-1c0 4.483-3.354 13.792-1 18.5 1.189 2.378 7 8.497 7 10.5Z"/><path fill="#9AD1BD" id="MOB" d="m213 247-4 2c-4.195 0-16 .437-16-5l2-2.5c7.534-15.069 5-8.887 5-25.5l-1-2v-3c1.473 0 1-1.952 1-3 1.55 0 2.364-6.228 3-7.5 4.646-9.291 4-20.256 4-31.5 5.138 0 8.014-2.743 13.5 0 3.639 1.819 4.09 5.68 5.5 8.5.523 1.046-.951 3.5 1 3.5v43l-1 1v2l-1 2v2l-1 2-1 1v2l-1 1-1 1v1l-1 1-1 1-6 6ZM235 238l3 3.5c3.151 3.151 5.881 5.691 9.5 7.5 3.645 1.822 15.5-1.056 15.5-5 0-2.003-5.811-8.122-7-10.5-2.354-4.708 1-14.017 1-18.5v-5l-1-2-5-13.5c-3.281-6.562-2-18.418-2-25.5-4.855 0-8.233-2.633-13.5 0l-4.5 5v1c0 1.145.579 4-1 4v5l-1 1c0 13.593 1 28.073 1 41l1 1v3l1 1 1 4 1 1 1 2Z"/><path fill="#219764" id="AIv2/3" d="M146 175h4v-1l1-6c-1.391 0-5 5.706-5 7ZM306 175h5l-5-6v6Z"/><path fill="#CACAC9" id="lotd" d="m163 173-2 2c1.747 0 2-.253 2-2ZM293 173c2.636 0 9 7.291 9 10l-9-10Z"/><path fill="#209864" id="AIv1" d="M141 179c0 4.71 7.925 2 10 2 0-1.293-.467-6-1-6h-5c0 1.366-2.366 4-4 4Z"/><path fill="#CACAC9" id="lotd" d="m161 175-2 2c1.747 0 2-.253 2-2Z"/><path fill="#99D2BD" id="OLF" d="M231 175c-1.579 0-1 2.855-1 4 1.579 0 1-2.855 1-4Z"/><path fill="#209864" id="AIv1" d="M315 179c0 4.417-6.992 2-9 2v-6h5l4 4Z"/><path fill="#CACAC9" id="lotd" d="m159 177-2 2c1.747 0 2-.253 2-2ZM157 179c-1.577 0-2 1.762-2 3 1.577 0 2-1.762 2-3ZM155 182l-1 1 1-1Z"/><path fill="#99D2BD" id="OLF" d="m230 184-1 1 1-1Z"/><path fill="#CBCBC7" id="aco" d="M199 214v1c-8.497 0-10.442-10.384-14-17.5-1.037-2.073-5.447-5.105-4-8 .935-1.87 6.479-.011 7.5.5 3.28 1.64 7.5 12.486 7.5 16l3 5v3ZM257 214l1 1c1.448 0 5.756-.013 7-2.5 2.364-4.727 3.605-10.211 6-15l5-7c0-3.977-9.697.098-10.5.5-1.897.948-4.5 12.02-4.5 14l-1 1c0 1.429-1.288 4-3 4v4Z"/><path fill="#CAC8C7" id="lot" d="M181 239h1c0-1.037-18.742-30.242-20.5-32-1.565-1.565-3.972-9-6.5-9 0 3.702 2 7.27 2 10 0 7.156 16.368 31 24 31ZM300 207c0 7.237-16.861 32-25 32 0-6.445 16.18-23.859 20-31.5.823-1.647 3.92-9.5 6-9.5v8l-1 1Z"/><path fill="#99D2BD" id="OLF" d="m261 205-1 1 1-1ZM200 208c0 1.048.473 3-1 3l-3-5 4 2ZM256 208l1 2c1.712 0 3-2.571 3-4l-4 2ZM301 206l-1 1 1-1ZM199 215l1 1-1-2v1ZM257 215h1l-1-1v1ZM227 224l-1 1 1-1ZM230 226l1 1-1-1ZM226 227l-1 2 1-2ZM231 230l1 1-1-1ZM225 231l-1 2 1-2ZM224 233l-1 1 1-1ZM233 235l1 1-1-1ZM223 236l-1 1 1-1ZM222 237l-1 1 1-1ZM263 244h6c0 2.871-9.54 4.02-11.5 5-7.217 3.609-22.5-3.222-22.5-11l3 3.5c3.151 3.151 5.881 5.691 9.5 7.5 3.645 1.822 15.5-1.056 15.5-5ZM182 239v1l-1-1h1ZM221 239l-1 1 1-1ZM275 239l-1 1 1-1ZM220 240l-1 1 1-1ZM219 241l-6 6c2.473 0 6-3.527 6-6ZM193 244c0 5.437 11.805 5 16 5 0 1.7-5.137 1-6.5 1-3.764 0-15.5-2.944-15.5-7 1.564 0 3.876 1 6 1ZM270 243l-1 1 1-1ZM213 247l-4 2c1.465 0 4 .109 4-2Z"/></svg>