<svg xmlns="http://www.w3.org/2000/svg" viewBox="0 0 456 320"><path fill="#187F60" id="SSp-ll1" d="m131 32 2 5 14.5-6c7.508-3.754 24.366-5 33.5-5v-6c-13.217 0-28.401 2.45-39.5 8-1.548.774-10.5 2.544-10.5 4Z"/><path fill="#1E9D5A" id="MOp1" d="m199 25-18 1v-6h18v5Z"/><path fill="#1E9C59" id="MOs1" d="m227 35-4 2-8.5-9c-4.905-2.453-9.493-3-15.5-3v-5c11.111 0 16.542 3.042 24 10.5l4 4.5ZM230 35c1.24 0 1.576 2 4 2l6.5-8c5.506-2.753 9.741-4 16.5-4v-5c-10.922 0-15.741 3.24-23 10.5l-4 4.5Z"/><path fill="#1E9D5A" id="MOp1" d="m257 25 18 1v-6h-18v5Z"/><path fill="#187F60" id="SSp-ll1" d="M323 37h1l1-5c0-2.163-11.615-4.058-13.5-5-10.165-5.083-24.414-7-36.5-7v6c10.373 0 24.727.613 33.5 5l14.5 6Z"/><path fill="#1F9C58" id="MOp2/3" d="m179 38 1 2c5.208 0 11.045-6 17-6 0-2.755 2-5.553 2-9l-18 1c0 4.31-2 9.853-2 12Z"/><path fill="#1E9D58" id="MOs2/3" d="m223 38-6 3-6.5-6-13.5-1c0-2.755 2-5.553 2-9 6.007 0 10.595.547 15.5 3l8.5 9v1ZM234 38l6 3 4.5-5c3.2-1.6 10.936-2 14.5-2l-2-9c-6.759 0-10.994 1.247-16.5 4l-6.5 8v1Z"/><path fill="#1F9C58" id="MOp2/3" d="M277 38v2c-5.725 0-11.633-6-18-6l-2-9 18 1c0 4.55 2 8.157 2 12Z"/><path fill="#187F64" id="SSp-ll2/3" d="M179 38c-5.121 0-26.385 4.942-30.5 7-3.326 1.663-7.622 5-11.5 5 0-5.053-4-8.642-4-13l14.5-6c7.508-3.754 24.366-5 33.5-5 0 4.31-2 9.853-2 12ZM277 38c5.03 0 27.518 5.009 31.5 7l10.5 5c0-4.402 4-8.678 4-13l-14.5-6c-8.773-4.387-23.127-5-33.5-5 0 4.55 2 8.157 2 12Z"/><path fill="#197E64" id="SSp-ul1" d="m116 39 1 6 16-8-2-5c-3.472 0-7.473 3.487-10.5 5-1.119.56-4.5.155-4.5 2ZM341 39l-2 6-15-8 1-5c4.965 0 11.982 7 16 7Z"/><path fill="#1E9C5A" id="MOp5" d="m193 50-17 8c0-6.146 3-10.57 3-17l1-1c5.208 0 11.045-6 17-6l-4 16Z"/><path fill="#1F9D58" id="MOs5" d="M193 50c2.454 0 7.523-2.489 10.5-1l2.5 2c3.63 0 6.373-9 11-9v-1l-6.5-6-13.5-1-4 16ZM263 50c-1.604 0-12-3.399-12 1-4.359 0-6.025-9-11-9v-1l4.5-5c3.2-1.6 10.936-2 14.5-2 0 5.432 4 10.21 4 16Z"/><path fill="#1E9C5A" id="MOp5" d="m264 50 17 8c0-5.545-4-10.55-4-17v-1c-5.725 0-11.633-6-18-6 0 5.432 4 10.21 4 16h1Z"/><path fill="#3EA665" id="ACAd1" d="M223 59h10c0-7.052 1-14.555 1-21v-1c-2.424 0-2.76-2-4-2-.476 0-3 3.803-3 0l-4 2v22Z"/><path fill="#197F61" id="SSp-ul2/3" d="M137 51c-5.901 0-10.008 6-16 6 0-3.607-4-8.205-4-12l16-8c0 4.358 4 7.947 4 13v1ZM319 51c6.245 0 11.328 7 17 7 0-5.275 3-8.39 3-13l-15-8h-1c0 4.322-4 8.598-4 13v1Z"/><path fill="#1C7F64" id="SSp-ll4" d="M140 57h1c0-2.04 6.952-3.226 8.5-4 3.865-1.932 9.135-2.068 13-4 4.576-2.288 11.282-8 16.5-8l1-1-1-2c-5.121 0-26.385 4.942-30.5 7-3.326 1.663-7.622 5-11.5 5v1l3 6Z"/><path fill="#40A565" id="ACAd2/3" d="m223 59-5 1-1-18v-1l6-3v21ZM233 59l6 1c0-5.915 1-12.755 1-18v-1l-6-3c0 6.445-1 13.948-1 21Z"/><path fill="#1C7F64" id="SSp-ll4" d="m319 51-3 5c-11.313 0-30.63-15-39-15v-3c5.03 0 27.518 5.009 31.5 7l10.5 5v1Z"/><path fill="#1B8062" id="SSp-un1" d="m117 45-9 4-1-6 9-4 1 6ZM348 49h1c0-2.124 1-4.436 1-6l-9-4-2 6 9 4Z"/><path fill="#197C63" id="SSp-ll5" d="M175 59c-9.486 0-18.278 9-28 9 0-2.451-6-6.991-6-11 0-2.04 6.952-3.226 8.5-4 3.865-1.932 9.135-2.068 13-4 4.576-2.288 11.282-8 16.5-8 0 6.43-3 10.854-3 17l-1 1ZM281 59c9.541 0 18.315 9 28 9 1.501 0 7-9.182 7-11v-1c-11.313 0-30.63-15-39-15 0 6.45 4 11.455 4 17v1Z"/><path fill="#3EA566" id="ACAd5" d="M218 61c-4.226 0-7.381 6-11 6 0-4.933-1-10.73-1-15v-1c3.63 0 6.373-9 11-9l1 18v1ZM239 61l10 5c0-2.418-.5-14 2-14v-1c-4.359 0-6.025-9-11-9 0 5.245-1 12.085-1 18v1Z"/><path fill="#188060" id="SSp-bfd1" d="m70 78-1 1c-2.342 0-3.658-1-6-1l9.5-10c5.705-5.705 28.186-25 34.5-25l1 6c-3.738 0-26.47 16.97-30 20.5L70 78Z"/><path fill="#188060" id="SSp-bfd1" fill-rule="evenodd" d="M387 77c0 1.93 1.93 0 0 0m1 2h6c0-3.013-7.019-8.519-9.5-11-4.535-4.535-29.891-25-34.5-25 0 1.564-1 3.876-1 6l9.5 6c3.453 1.727 27.5 19.299 27.5 23l2 1Z"/><path fill="#1C7F63" id="SSp-un2/3" d="m121 58-10 4c0-4.798-3-8.617-3-13l9-4c0 3.795 4 8.393 4 12v1ZM336 58l9 4c0-4.596 3-8.27 3-13l-9-4c0 4.61-3 7.725-3 13Z"/><path fill="#187F63" id="SSp-bfd2/3" d="m82 79-1 1c-.35 0-11-1.386-11-2l8-8.5c3.53-3.53 26.262-20.5 30-20.5 0 4.383 3 8.202 3 13v1c-5.983 0-16.145 7.322-21.5 10L82 79Z"/><path fill="#1D9C5A" id="MOs6a" d="m195 70-5 1c0-3.69-1.073-12.353 1-16.5l2-4.5c2.454 0 7.523-2.489 10.5-1l2.5 2v1c-1.261 0-11 15.466-11 18ZM266 71h1c0-7.662-3-13.914-3-21h-1c-1.604 0-12-3.399-12 1v1c0 3.818 10 12.039 10 18l5 1Z"/><path fill="#187F63" id="SSp-bfd2/3" d="M373 79h1c2.185 0 12 .03 12-1 0-3.701-24.047-21.273-27.5-23l-9.5-6h-1c0 4.73-3 8.404-3 13v1c3.543 0 28 13.354 28 16Z"/><path fill="#1F9B5A" id="MOp6a" d="m190 71-17 6c0-5.637 2-12.031 2-18l1-1 17-8-2 4.5c-2.073 4.147-1 12.81-1 16.5ZM267 71c5.063 0 10.604 6 16 6 0-7.2-2-11.56-2-18v-1l-17-8c0 7.086 3 13.338 3 21Z"/><path fill="#1A7F63" id="SSp-ul4" d="m121 58 2 7c4.219 0 11.659-8 17-8l-3-6c-5.901 0-10.008 6-16 6v1ZM333 65h1l2-7c-5.672 0-10.755-7-17-7l-3 5v1c5.869 0 12.895 8 17 8Z"/><path fill="#3FA664" id="ACAd6a" d="m195 70 5 3c3.112 0 4.649-6 7-6 0-4.933-1-10.73-1-15-1.261 0-11 15.466-11 18ZM256 74h1l1-1 1-1 2-2c0-5.961-10-14.182-10-18-2.5 0-2 11.582-2 14v1l7 7Z"/><path fill="#187E62" id="SSp-ul5" d="M147 69c-7.622 0-13.631 8-21 8l-3-12c4.219 0 11.659-8 17-8h1c0 4.009 6 8.549 6 11v1ZM309 69c7.525 0 13.859 8 21 8 1.329 0 3-10.03 3-12-4.105 0-11.131-8-17-8 0 1.818-5.499 11-7 11v1Z"/><path fill="#197E61" id="SSp-un4" d="M123 65c-3.428 0-6.206 6-10 6 0-.981-1.184-8-2-8v-1l10-4 2 7Z"/><path fill="#1A7F64" id="SSp-ll6a" d="m176 58-1 1 1-1Z"/><path fill="#197E61" id="SSp-un4" d="M343 71h1c0-1.108.291-8 1-8v-1l-9-4-2 7c0 1.442 7.56 6 9 6Z"/><path fill="#1A7F64" id="SSp-ll6a" d="m161 81-5 1c0-1.707-7.363-13-9-13v-1c9.722 0 18.514-9 28-9 0 5.969-2 12.363-2 18-1.528 0-12 2.872-12 4Z"/><path fill="#3FA566" id="ACAv2/3" d="M222 89c0 1.577-1.762 2-3 2 0-9.513-1-19.903-1-30v-1l5-1v29l-1 1Z"/><path fill="#40A664" id="ACAv1" d="M227 85c-2.618 0-1.651 3-4 3V59h10c0 10.03 1 20.589 1 30l-5-5c0-4.347-2-2.153-2 1Z"/><path fill="#3FA566" id="ACAv2/3" d="m234 90 3 1c0-9.705 2-19.837 2-30v-1l-6-1c0 10.03 1 20.589 1 30v1Z"/><path fill="#1A7F64" id="SSp-ll6a" d="m283 77 18 5c0-1.989 6.059-13 8-13v-1c-9.685 0-18.459-9-28-9 0 6.44 2 10.8 2 18Z"/><path fill="#3EA666" id="ACAv5" d="M211 89c1.996 0 4.985 2 8 2 0-9.513-1-19.903-1-30-4.226 0-7.381 6-11 6 0 6.838 4 14.434 4 21v1ZM244 90c-1.819 0-4.591 1-7 1 0-9.705 2-19.837 2-30l10 5v1c0 7.773-4 14.904-4 22l-1 1Z"/><path fill="#197C64" id="SSp-bfd4" d="M96 82h1l1-1c5.654 0 9.71-9 15-9v-1c0-.981-1.184-8-2-8-5.983 0-16.145 7.322-21.5 10L82 79v1c5.386 0 8.998 2 14 2ZM359 82l2 1c0-1.555 11.968-4 12-4 0-2.646-24.457-16-28-16-.709 0-1 6.892-1 8 0 4.452 15 6.987 15 11Z"/><path fill="#197D62" id="SSp-un5" d="m126 78-12 7c0-4.427-1-8.115-1-13v-1c3.794 0 6.572-6 10-6l3 12v1ZM330 78l12 6c0-4.349 1-9.472 1-13-1.44 0-9-4.558-9-6h-1c0 1.97-1.671 12-3 12v1Z"/><path fill="#40A564" id="ACAv6a" d="M208 86c0 1.577 1.762 2 3 2 0-6.566-4-14.162-4-21-2.351 0-3.888 6-7 6v1c0 4.065 8 7.13 8 12ZM245 89h1l2-3 1-1c0-1.528 4.54-8 6-8l1-3-7-7c0 7.773-4 14.904-4 22Z"/><path fill="#197D61" id="SSp-ul6a" d="M156 82c-8.865 0-16.112 11-25 11 0-1.639-2-2.455-2-3.5 0-.947-.544-11.5-3-11.5v-1c7.369 0 13.378-8 21-8 1.637 0 9 11.293 9 13ZM325 94h1c0-4.158 1.27-8.04 3-11.5.574-1.147-1.064-4.5 1-4.5v-1c-7.141 0-13.475-8-21-8-1.941 0-8 11.011-8 13v1c6.774 0 12.812 5.156 18.5 8l5.5 3Z"/><path fill="#1E9C58" id="MOs6b" d="m195 71-5 1v-1l5-1v1Z"/><path fill="#3FA466" id="ACAd6b" d="M199 74h1v-1l-5-3v1l4 3ZM261 71l-2 1 2-2v1Z"/><path fill="#1E9C58" id="MOs6b" d="M266 71v1l-5-1v-1l5 1Z"/><path fill="#1D9D5A" id="MOp6b" d="M173 77v1c4.41 0 8.797-2.149 12.5-4 .93-.465 4.5-.817 4.5-2v-1l-17 6Z"/><path fill="#CACCC7" id="cing" d="M211 88v1c-8.551 0-11.532-7.516-18.5-11-6.118-3.059-14.742 3-20.5 3l-1 1h-10v-1c2.075 0 12-1.307 12-3 4.41 0 8.797-2.149 12.5-4 .93-.465 4.5-.817 4.5-2l5-1 4 3c0 2.178 6.39 12 9 12 0 1.577 1.762 2 3 2ZM248 86l-2 3c8.004 0 12.256-7.878 18.5-11 5.813-2.906 14.067 3 19.5 3l1 1h10c0-1.88-12-1.79-12-4-5.981 0-11.526-6-17-6l-5-1-2 1-1 1-1 2c0 1.747-.253 2-2 2 0 2.582-3.577 8-6 8l-1 1Z"/><path fill="#1D9D5A" id="MOp6b" d="M283 77v1c-5.981 0-11.526-6-17-6v-1h1c5.063 0 10.604 6 16 6Z"/><path fill="#1A7D62" id="SSp-bfd5" d="m342 85 5 2 12-5c0-4.013-15-6.548-15-11h-1c0 3.528-1 8.651-1 13v1ZM113 86l-4 1-2.5-2-2 1c-1.667 0-2.509-2.255-4-3-1.046-.523-3.5.951-3.5-1l1-1c5.654 0 9.71-9 15-9 0 4.885 1 8.573 1 13l-1 1Z"/><path fill="#3FA466" id="ACAd6b" d="m259 72-1 1 1-1ZM257 74v1l1-2-1 1Z"/><path fill="#40A465" id="ACAv6b" d="M200 74c0 4.065 8 7.13 8 12-2.61 0-9-9.822-9-12h1ZM257 75c0 1.747-.253 2-2 2l1-3h1v1Z"/><path fill="#197F62" id="SSp-ll6b" d="M173 78c0 1.693-9.925 3-12 3 0-1.128 10.472-4 12-4v1Z"/><path fill="#40A465" id="ACAv6b" d="M255 77c-1.46 0-6 6.472-6 8 2.423 0 6-5.418 6-8Z"/><path fill="#197F62" id="SSp-ll6b" d="M301 82v1l-6-1c0-1.88-12-1.79-12-4v-1l18 5Z"/><path fill="#197E63" id="SSp-n1" d="M387 77c0 1.93 1.93 0 0 0ZM53 103h1c0-6.033 15-21.416 15-24-2.342 0-3.658-1-6-1 0 2.106-14 17.004-14 22l4 3Z"/><path fill="#1B7F64" id="SSp-n2/3" d="M62 109h1c0-7.314 6.923-13.347 10-19.5l8-9.5c-.35 0-11-1.386-11-2l-1 1c0 2.584-15 17.967-15 24l8 6Z"/><path fill="#1A7F61" id="SSp-un6a" d="m123 99-3 1-9-11c1.577 0 2-1.762 2-3l1-1 12-7c2.456 0 3 10.553 3 11.5 0 1.045 2 1.861 2 3.5v1l-4 3c-1.465 0-4-.109-4 2Z"/><path fill="#C9C7C9" id="ccb" d="M378 174h1c0-5.741-3-10.503-3-16l-1-1v-2l-2-4v-1c-1.183 0-7.062-12.625-8-14.5-4.122-8.243-18.11-25.305-26.5-29.5-13.592-6.796-27.494-12.247-41-19-1.655-.827-11.5-3.293-11.5-5h-1l-1-1c-5.433 0-13.687-5.906-19.5-3-6.244 3.122-10.496 11-18.5 11h-1l-1 1c-1.819 0-4.591 1-7 1l-3-1-4.5 1-1-2c-1.345 0-5.5 5.027-5.5 0h-1c0 1.577-1.762 2-3 2-3.015 0-6.004-2-8-2-8.551 0-11.532-7.516-18.5-11-6.118-3.059-14.742 3-20.5 3l-1 1h-1c0 2.098-9.733 4.117-11.5 5-9.798 4.9-20.269 8.135-30 13-11.095 5.547-20.547 17.774-27 21l-6.5 8c0 1.487-4.631 10-6 10 0 1.465.109 4-2 4l-2 4-1 2-1 2v1l-1 2-1 2v2l-1 1-3 15h2c0-23.223 31.466-60.483 52.5-71 4.397-2.199 12.287-1 17.5-1 0-3.034 5.156-7 8-7l2-1 2-1h1l1-1c5.25 0 13.108-6.196 19.5-3l13 4 6.5 4c1.07 0 8 3.955 8 1 0-1.714 5.594-1 7-1h8.5l3 2c3.421-1.71 4.793-2 9-2 1.532 0 8.5-.743 8.5 1 2.502 0 5.498-1 8-1l6.5-4 13-4c6.359-3.18 14.41 3 19.5 3l1 1h2c3.755 0 11 4.969 11 9 5.213 0 13.103-1.199 17.5 1 20.565 10.282 34.672 27.843 44.5 47.5 3.5 6.999 9 15.227 9 23.5Z"/><path fill="#1A7F61" id="SSp-un6a" d="m326 94 10 6c2.428 0 9-9.996 9-12-1.539 0-3-1.341-3-3v-1l-12-6c-2.064 0-.426 3.353-1 4.5-1.73 3.46-3 7.342-3 11.5Z"/><path fill="#1B7F64" id="SSp-n2/3" d="m402 103-8 6c0-7.39-8.817-15.134-12-21.5l-8-8.5c2.185 0 12 .03 12-1l2 1c0 3.678 14 16.98 14 24ZM81 80h1v-1l-1 1Z"/><path fill="#1A8062" id="SSp-n4" d="m394 109-6 5c0-4.404-24.22-31-27-31 0-1.555 11.968-4 12-4h1l8 8.5c3.183 6.366 12 14.11 12 21.5Z"/><path fill="#197E63" id="SSp-n1" d="M402 103h1l4-3c0-2.344-11.671-21-13-21h-6c0 3.678 14 16.98 14 24Z"/><path fill="#1A8062" id="SSp-n4" d="M68 114h1c0-3.167 13.467-21.483 16.5-23L96 82c-5.002 0-8.614-2-14-2h-1l-8 9.5c-3.077 6.153-10 12.186-10 19.5l5 5Z"/><path fill="#197E62" id="SSp-n5" d="m98 81-1 1 1-1Z"/><path fill="#197F62" id="SSp-ll6b" d="m161 82-5 1v-1l5-1v1Z"/><path fill="#C9C9CA" id="scwm" d="m172 81-1 1 1-1ZM284 81l1 1-1-1Z"/><path fill="#197E62" id="SSp-n5" d="M77 121h1c0-7.642 23.344-33 31-33v-1l-2.5-2-2 1c-1.667 0-2.509-2.255-4-3-1.046-.523-3.5.951-3.5-1h-1l-10.5 9C82.467 92.517 69 110.833 69 114l8 7Z"/><path fill="#1C8064" id="SSp-ul6b" d="M131 94v1l18.5-9c1.265-.632 6.5-1.278 6.5-3v-1c-8.865 0-16.112 11-25 11v1Z"/><path fill="#C9C9CA" id="scwm" d="M115 105c0 5.695-20 14.931-20 24l6.5-8c6.453-3.226 15.905-15.453 27-21 9.731-4.865 20.202-8.1 30-13 1.767-.883 11.5-2.902 11.5-5h-9l-5 1c0 1.722-5.235 2.368-6.5 3L131 95l-4 2-4 2c0 1.747-.253 2-2 2l-4 2c0 1.747-.253 2-2 2ZM365 132c0 6.422 8 11.515 8 18-1.183 0-7.062-12.625-8-14.5-4.122-8.243-18.11-25.305-26.5-29.5-13.592-6.796-27.494-12.247-41-19-1.655-.827-11.5-3.293-11.5-5h9l6 1 24 12 10 6 5 3.5 13.5 12.5c3.633 1.816 9.702 15 11.5 15Z"/><path fill="#197E62" id="SSp-n5" d="m388 114-9 7c0-7.032-24.805-33-32-33v-1l12-5 2 1c2.78 0 27 26.596 27 31Z"/><path fill="#1C8064" id="SSp-ul6b" d="M325 94v1l-24-12c6.774 0 12.812 5.156 18.5 8l5.5 3Z"/><path fill="#7ED04B" id="IG" d="M234 89v1l-4.5 1-1-2c-1.345 0-5.5 5.027-5.5 0v-1c2.349 0 1.382-3 4-3l2-1 5 5Z"/><path fill="#198060" id="SSp-bfd6a" d="m114 85-1 1 1-1Z"/><path fill="#40A465" id="ACAv6b" d="m249 85-1 1 1-1Z"/><path fill="#198060" id="SSp-bfd6a" d="M345 88h2v-1l-5-2c0 1.659 1.461 3 3 3ZM109 88l2 1c1.577 0 2-1.762 2-3l-4 1v1Z"/><path fill="#187D62" id="SSp-n6a" d="M78 121c0 2.41 7.716 6 8.5 6 .563 0 2.82 4 4.5 4 0-3.274 20.265-26 24-26 0-1.747.253-2 2-2 0-1.577 1.762-2 3-2v-1l-9-11-2-1c-7.656 0-31 25.358-31 33Z"/><path fill="#40A664" id="ACAv1" d="M222 89h1v-1l-1 1Z"/><path fill="#187D62" id="SSp-n6a" d="M365 131h1c0-1.507 11.174-9 13-9v-1c0-7.032-24.805-33-32-33h-2c0 2.004-6.572 12-9 12v1c3.817 0 5.333 4.417 8.5 6 3.614 1.807 20.5 19.299 20.5 24Z"/><path fill="#A8AAAA" id="VL" fill-rule="evenodd" d="m180 92-2 2.5-1 8-5 8c-1.037 2.075-8.573 4.854-7 8 3.197 6.393 7.436.032 10.5-1.5 8.449-4.225 19.975-9.55 14.5-20.5-2.177-4.355-5.248-4.5-10-4.5m-27 12c0 1.412 7.678 9.856 9 12.5 2.824 5.648 2 9.537 2 15.5 3.276 0 8.66-10.58 11.5-12l17-8c3.098-1.549 3.155-9 5.5-9l4-6-6.5-4-13-4c-6.392-3.196-14.25 3-19.5 3l-1 1h-1l-2 1-2 1c0 1.56-4 1.487-4 9Z"/><path fill="#CACCC7" id="cing" d="m245 89-1 1 1-1Z"/><path fill="#A8AAAA" id="VL" fill-rule="evenodd" d="M271 92c0 3.026-10.317 5.865-6 14.5.861 1.723 23.254 18.492 26 13 2.222-4.443-7.372-8.744-9-12-2.171-4.341-1.886-9.773-4-14-1.157-2.315-4.849-1.5-7-1.5m32 12-8 11.5c-2.498 4.995-3 9.384-3 15.5-5.498 0-8.205-9.853-12.5-12l-17-8c-2.951-1.476-1.659-8-4.5-8l-4-6 6.5-4 13-4c6.359-3.18 14.41 3 19.5 3l1 1h2c0 2.364 8 3.178 8 10l-1 1Z"/><path fill="#AAA8A9" id="SEZ" d="m163 92-1 1 1-1Z"/><path fill="#A9AAA8" id="chpl" d="m180 92-2 2.5-1 8-5 8c-1.037 2.075-8.573 4.854-7 8 3.197 6.393 7.436.032 10.5-1.5 8.449-4.225 19.975-9.55 14.5-20.5-2.177-4.355-5.248-4.5-10-4.5ZM271 92c0 3.026-10.317 5.865-6 14.5.861 1.723 23.254 18.492 26 13 2.222-4.443-7.372-8.744-9-12-2.171-4.341-1.886-9.773-4-14-1.157-2.315-4.849-1.5-7-1.5Z"/><path fill="#AAA8A9" id="SEZ" d="m293 92 1 1-1-1ZM161 93l-2 1 2-1ZM307 102c0 1.473-1.952 1-3 1 0-6.822-8-7.636-8-10 3.755 0 11 4.969 11 9Z"/><path fill="#1A7D63" id="SSp-un6b" d="m131 95-4 2 4-3v1Z"/><path fill="#AAA8A9" id="SEZ" d="m159 94-2 1 2-1Z"/><path fill="#1A7D63" id="SSp-un6b" d="M335 101h1v-1l-10-6h-1v1l10 6Z"/><path fill="#AAA8A9" id="SEZ" d="m149 102 4 2c0-7.513 4-7.44 4-9-2.844 0-8 3.966-8 7Z"/><path fill="#1A7D63" id="SSp-un6b" d="M127 97c-1.465 0-4-.109-4 2l4-2Z"/><path fill="#CBC8CC" id="df" d="M210 98c9.174 0 18.658 5.421 27.5 1 1.487-.743 8.5 1.308 8.5-1 0-1.743-6.968-1-8.5-1-4.207 0-5.579.29-9 2l-3-2H217c-1.406 0-7-.714-7 1Z"/><path fill="#1A7D63" id="SSp-un6b" d="M120 101h1c1.747 0 2-.253 2-2l-3 1v1Z"/><path fill="#1A7E62" id="SSs1" d="m32 171 5 1c0-12.55 2.965-37.431 8-47.5 2.82-5.638 8-15.064 8-21.5l-4-3-8 18.5c-5.34 10.681-9 39.298-9 52.5ZM424 171l-4 1c0-11.73-4.226-38.952-9-48.5-2.556-5.112-8-14.789-8-20.5l4-3c3.268 0 4.851 12.202 6 14.5 7.961 15.922 11 37.517 11 56.5Z"/><path fill="#1B7E64" id="SSp-n6b" d="m121 101-4 2c0-1.577 1.762-2 3-2h1Z"/><path fill="#96A7D2" id="TRS" d="M231 108h4c0-1.842 9-1.584 9-5.5 0-2.243-5.698-1.5-7-1.5-3.534 0-5.628.564-8.5 2-1.065.533-6.878-2-9-2l-6.5.5c-2.418 4.836 8 4.458 8 6.5h4c0-1.587 6-1.587 6 0Z"/><path fill="#1B7E64" id="SSp-n6b" d="M365 131v1c-1.798 0-7.867-13.184-11.5-15L340 104.5l-5-3.5h1c3.817 0 5.333 4.417 8.5 6 3.614 1.807 20.5 19.299 20.5 24Z"/><path fill="#98D5F9" id="CP" d="M114 234h5l1-1h3c0-2.109 2.535-2 4-2l6-6.5V215l-3-9.5c-2.881-5.762 2.621-30.242 5-35 .966-1.932 4.636-11.5 7-11.5 0-3.853-1.023-16.238 2.5-18 3.947-1.974 10.179 2 14.5 2h2v-1l1-1 1-3 1-6c0-5.963.824-9.852-2-15.5-1.322-2.644-9-11.088-9-12.5l-4-2c-5.213 0-13.103-1.199-17.5 1-21.034 10.517-52.5 47.777-52.5 71 0 20.154 5.885 26.27 14 42.5 1.212 2.424 5.363 13.5 9 13.5l5 3h1l6 1ZM337 234h6l5-1h1l4-2h1l1-1 3-3.5c1.772-1.772 4.538-10.5 7-10.5 0-1.465-.109-4 2-4 0-4.518 4.062-9.623 6-13.5l2-3.5c0-6.364 3-13.329 3-21 0-8.273-5.5-16.501-9-23.5-9.828-19.657-23.935-37.218-44.5-47.5-4.397-2.199-12.287-1-17.5-1 0 1.473-1.952 1-3 1l-1 1-8 11.5c-2.498 4.995-3 9.384-3 15.5v1l1 1v6l2 3 1 1h2c4.074 0 9.569-3.966 13.5-2 3.215 1.608 3.5 14.823 3.5 18 0 3.941 6.213 9.925 8 13.5 1.038 2.075.912 4.825 2 7l1 28-2 6.5-1 1v9.5c1.505 3.01 11 6.66 11 8.5h2l1 1Z"/><path fill="#1B8063" id="SSs2/3" d="m37 172 7 1c0-9.423 8.039-40.577 12-48.5l6-15.5-8-6h-1c0 6.436-5.18 15.862-8 21.5-5.035 10.069-8 34.95-8 47.5Z"/><path fill="#1B7E64" id="SSp-n6b" d="M117 103c-1.747 0-2 .253-2 2 1.747 0 2-.253 2-2Z"/><path fill="#CBC8CB" id="fi" d="M189 135h1c0-2.109 2.535-2 4-2l8-4 5-4c0-5.954 7-9.597 7-16-.614 0-14.743-6-16-6-2.345 0-2.402 7.451-5.5 9l-17 8c-2.84 1.42-8.224 12-11.5 12l-1 6c2.358 0 4.384 6.058 8.5 4 4.599-2.3 12.256-7 17.5-7ZM293 133v6c-2.426 0-5.267 4.616-8.5 3-3.87-1.935-26.966-13-29.5-13-1.562 0-5-2.189-5-4 0-5.583-7-9.388-7-16l1.5-2h4l9.5-4c2.841 0 1.549 6.524 4.5 8l17 8c4.295 2.147 7.002 12 12.5 12v1l1 1Z"/><path fill="#AAA8A9" id="SEZ" d="m304 103-1 1 1-1Z"/><path fill="#1B8063" id="SSs2/3" d="m420 172-8 1c0-8.805-7.474-40.449-11-47.5l-7-16.5 8-6h1c0 5.711 5.444 15.388 8 20.5 4.774 9.548 9 36.77 9 48.5Z"/><path fill="#1B7E64" id="SSp-n6b" d="M91 132h1l3-3c0-9.069 20-18.305 20-24-3.735 0-24 22.726-24 26v1Z"/><path fill="#C8C9C9" id="vhc" d="M247 125h3c0-5.583-7-9.388-7-16-2.097 0-5.293-1-8-1h-14c-2.409 0-5.181 1-7 1 0 6.403-7 10.046-7 16h2l7-4c5.051 0 31-1.434 31 4Z"/><path fill="#187C63" id="SSs4" d="M44 173h6c0-7.158 5.942-34.385 9-40.5l9-18.5-5-5h-1l-6 15.5c-3.961 7.923-12 39.077-12 48.5ZM407 173h5c0-8.805-7.474-40.449-11-47.5l-7-16.5-6 5 9 17.5c3.673 7.346 9 32.717 9 41.5h1Z"/><path fill="#1C8063" id="SSs5" d="m50 173 13 1c0-12.729 2.667-27.835 8-38.5l6-14.5-8-7h-1l-9 18.5c-3.058 6.115-9 33.342-9 40.5ZM406 173l-12 1c0-9.461-5.068-32.636-9-40.5l-6-11.5v-1l9-7 9 17.5c3.673 7.346 9 32.717 9 41.5Z"/><path fill="#197D63" id="SSs6a" d="m63 174 12 1c0-6.271 3.23-16.959 6-22.5.821-1.642 1.379-8.5 4-8.5 0-1.947 3.833-12 6-12v-1c-1.68 0-3.938-4-4.5-4-.784 0-8.5-3.59-8.5-6h-1l-6 14.5c-5.333 10.665-8 25.771-8 38.5ZM394 174c-4.569 0-8.923 1-13 1 0-9.205-4.057-21.613-8-29.5l-7-14.5c0-1.507 11.174-9 13-9l6 11.5c3.932 7.864 9 31.039 9 40.5Z"/><path fill="#A8A9AA" id="V3" fill-rule="evenodd" d="m241 133-3 2.5c-3.197 6.394 12.524 5.524 5.5-1.5l-2.5-1m-28 0c0 1.791-3.27 2.959-2 5.5 1.225 2.45 12.869 2.869 5-5l-3-.5m2 15c4.15 0 9.849 3 13.5 3 3.415 0 8.61-3 12.5-3l3-1c0-3.821 10-5.258 10-10l1-3v-5c-1.562 0-5-2.189-5-4h-3c-5.836 0-11-5.258-11 4 0 10.639-15 12.929-15-1 0-8.487-6.981-3-12-3h-2l-5 4v9l11 9 2 1Z"/><path fill="#FF5347" id="SFO" d="M221 128c3.144 0 9.901-2.799 13.5-1l1.5 2c0 10.639-15 12.929-15-1Z"/><path fill="#C9C9CA" id="scwm" d="M92 132c0 2.232-3 4.029-3 7 1.369 0 6-8.513 6-10l-3 3Z"/><path fill="#1A8061" id="SSs6b" d="M379 175h2c0-9.205-4.057-21.613-8-29.5l-7-14.5h-1v1c0 6.422 8 11.515 8 18v1l2 4v2l1 1c0 5.497 3 10.259 3 16v1ZM87 143l-2 1c0-1.947 3.833-12 6-12h1c0 2.232-3 4.029-3 7l-2 4Z"/><path fill="#A8AAAA" id="VL" d="m292 132 1 1-1-1Z"/><path fill="#FF8F9E" id="AD" d="M204 160c0 1.048.473 3-1 3l-4-4.5-10-19.5v-4h1l4-2c3.015 0 6.004 2 8 2v18l1 1v2c0 1.145-.579 4 1 4Z"/><path fill="#A9AAA8" id="chpl" d="M213 133c0 1.791-3.27 2.959-2 5.5 1.225 2.45 12.869 2.869 5-5l-3-.5ZM241 133l-3 2.5c-3.197 6.394 12.524 5.524 5.5-1.5l-2.5-1Z"/><path fill="#FF8F9E" id="AD" d="M254 163h1c0-5.761 7.462-13.423 10-18.5l3-5.5v-2c0-4.926-10.786-3-13-3l-1 3c1.793 0 1 12.009 1 14l-1 1v2l-1 1v8h1Z"/><path fill="#FF6F80" id="TH" d="M185 139h4v-2l-4 2Z"/><path fill="#CCC9C8" id="sm" d="M249 157h4v-2l1-1v-2l1-1c0-1.991.793-14-1-14 0 4.742-10 6.179-10 10v3c0 3.153 5 4.304 5 7Z"/><path fill="#FF6F80" id="TH" d="M268 139h3l-3-2v2Z"/><path fill="#CCC9C8" id="sm" d="m203 156 4 1 6-7v-3l-11-9v15l1 1v2Z"/><path fill="#C9C9CA" id="scwm" d="m89 139-2 4c2.109 0 2-2.535 2-4Z"/><path fill="#FD909E" id="AV" d="M192 169c-5.182 0-3.845 8-8 8l-5-10v-2l-2-4v-3l-1-1v-1l-1-1-1-3-1-1v-8c4.133 0 7.232-4 12-4h4l10 19.5 4 4.5v1c-.389 0-11 1.983-11 5ZM272 177h1l1-2c0-1.048-.473-3 1-3l1-2c0-1.048-.473-3 1-3l1-2v-1l1-2v-3l1-1v-1l1-1 1-3 1-1v-2l1-1c0-2.124-1-4.436-1-6-3.933 0-7.365-4-12-4h-3l-3 5.5c-2.538 5.077-10 12.739-10 18.5 0 3.287 10 2.933 10 6l7 8Z"/><path fill="#97D6F9" id="STR" d="m142 159 1 1c0-5.476 1.679-12.858 4-17.5 1.681-3.363 5 3.371 5 4.5 2.25 0 3.376-2 5-2l2-2c-4.321 0-10.553-3.974-14.5-2-3.523 1.762-2.5 14.147-2.5 18Z"/><path fill="#CAC7CB" id="fiber tracts" d="M168 147c-1.473 0-1 1.952-1 3-3.005 0-.651-7-6-7v-1l1-1c2.538 0 6 2.152 6 5v1ZM288 147c2.496 0-.496 5 2 5 0-4.651 1.012-9 6-9l-1-1c-2.269 0-7-.631-7 4v1Z"/><path fill="#97D6F9" id="STR" d="m315 159-2 1c0-3.788-.983-16.242-4.5-18-2.728-1.364-3.277 5-4.5 5l-4-1-2-3c4.074 0 9.569-3.966 13.5-2 3.215 1.608 3.5 14.823 3.5 18Z"/><path fill="#CCC" d="M143 160c5.46 0 17 26.346 17 31 3.21 0 3.201 11 7.5 11 3.639 0 2.315-8.87 1.5-10.5-4.442-8.884-8.536-18.073-13-27-.927-1.854-1.636-8.5 2-8.5 0-3.651-6-5.93-6-9 0-1.129-3.319-7.863-5-4.5-2.321 4.642-4 12.024-4 17.5ZM297 189l-1 2c-1.486 0-4.31 12.595-7.5 11-2.966-1.483-1.526-9.449-.5-11.5 4.426-8.851 8.547-18.094 13-27 1.834-3.668-2-6.271-2-8.5 0-3.536 5-4.464 5-8 1.223 0 1.772-6.364 4.5-5 3.517 1.758 4.5 14.212 4.5 18l-7 7.5c-2.979 5.959-9 14.58-9 21.5Z"/><path fill="#C9C9CA" id="scwm" d="M85 144v3l2-4-2 1Z"/><path fill="#C8CBC7" id="st" d="M167 150c0 1.296-.825 7-2 7-5.102 0-8-7.445-8-12l2-2h2c5.349 0 2.995 7 6 7Z"/><path fill="#FF6F80" id="TH" d="m169 146 4 3v-6c-1.114 0-4 2.034-4 3ZM288 147c-3.514 0-2.548 2-4 2 0-2.124-1-4.436-1-6 2.364 0 3.053 3 5 3v1Z"/><path fill="#C8CBC7" id="st" d="m290 152 1 5c4.741 0 9-6.829 9-11l-2-3h-2c-4.988 0-6 4.349-6 9Z"/><path fill="#1A8061" id="SSs6b" d="M75 175h2v-1l3-15 1-1v-2l1-2 1-2v-1l1-2 1-2v-3c-2.621 0-3.179 6.858-4 8.5-2.77 5.541-6 16.229-6 22.5Z"/><path fill="#CAC7CB" id="fiber tracts" d="M165 157c0 1.562-2.189 5-4 5l-3-6c0-3.651-6-5.93-6-9 2.25 0 3.376-2 5-2 0 4.555 2.898 12 8 12Z"/><path fill="#FF6F80" id="TH" d="m169 146-1 1v-1h1Z"/><path fill="#FD8F9F" id="RT" d="M184 205h1l1-1c1.968 0 17-5.741 17 1 8.49 0-2-8.438-2-10-2.32 0-10-2.591-10-5l-1-1-1-1-1-1-2-3-1-1v-2c-1.442 0-6-12.174-6-14v-2l-2-4v-3l-1-1v-1l-1-1-1-3-1-1v-2l-4-3-1 1c-1.473 0-1 1.952-1 3 0 1.296-.825 7-2 7 0 1.562-2.189 5-4 5 0 10.421 5.614 21.728 10 30.5 2.041 4.081 1.068 9.784 6.5 12.5h6.5ZM272 205h1c2.774 0 5.217.141 7.5-1 3.578-1.789 3.07-7.64 4.5-10.5 4.962-9.925 10-21.798 10-32.5-2.226 0-4-1.774-4-4l-1-5c-2.496 0 .496-5-2-5-3.514 0-2.548 2-4 2l-1 1v2l-1 1-1 3-1 1v1l-1 1v3l-1 2v1l-1 2c0 1.048.473 3-1 3l-1 2c0 1.048.473 3-1 3l-1 2c0 1.048.473 3-1 3l-1 2v2l-1 1-1 1-1 2-1 1-3 2-1 1-1 1c-2.447 0-3.28 2-6 2 0 .839-11.856 10-3 10l1-1c0-5.209 15.365 0 17 0l1 1Z"/><path fill="#CAC7CB" id="fiber tracts" d="M291 157c0 2.226 1.774 4 4 4l4-6c0-3.536 5-4.464 5-8l-4-1c0 4.171-4.259 11-9 11Z"/><path fill="#C9C9CA" id="scwm" d="m85 147-1 2 1-2Z"/><path fill="#FF6F80" id="TH" d="M213 150h2v-2l-2-1v3ZM242 150h2v-3l-3 1 1 2Z"/><path fill="#FE8F9E" id="PVT" d="M223 193h11v-2l-3.5 1c-1.395-.697-2.695-6.152-1-7 2.377-1.189 2.116 2 3.5 2v-13.5c1.827-3.654 4-9.25 4-13.5l5-10-1-2c-3.89 0-9.085 3-12.5 3-3.651 0-9.35-3-13.5-3v2c0 3.895 4 6.401 4 11 1.781 0 1.348 6.197 2 7.5 2.731 5.463 2 11.918 2 18.5l3.5-2c2.815 1.407 1.52 7-3.5 7v1Z"/><path fill="#C9C9CA" id="scwm" d="m84 149-1 2 1-2Z"/><path fill="#FF6F80" id="TH" d="m284 149-1 1 1-1Z"/><path fill="#FD909D" id="MD" d="M219 161c-4.123 0-7.463 1-12 1v-5l6-7h2c0 3.895 4 6.401 4 11ZM249 161v2c-4.736 0-8.158-3-12-3l5-10h2c0 3.153 5 4.304 5 7v4Z"/><path fill="#FF6F80" id="TH" d="m173 151 1 1-1-1ZM255 151l-1 1 1-1Z"/><path fill="#C9C9CA" id="scwm" d="m373 151 2 4-2-4ZM83 152l-1 2 1-2Z"/><path fill="#FF6F80" id="TH" d="m283 152-1 1 1-1ZM202 153l1 1-1-1Z"/><path fill="#C9C9CA" id="scwm" d="m82 154-1 2 1-2Z"/><path fill="#FF6F80" id="TH" d="m254 154-1 1 1-1ZM175 155l1 1-1-1Z"/><path fill="#8599CC" id="PAL" d="M315 225c-6.002 0-26-16.076-26 3-1.473 0-1-1.952-1-3l-1-2v-1c0-1.238-.423-3-2-3v-1c0-5.028-12-9.54-12-13 2.774 0 5.217.141 7.5-1 3.578-1.789 3.07-7.64 4.5-10.5 4.962-9.925 10-21.798 10-32.5l4-6c0 2.229 3.834 4.832 2 8.5-4.453 8.906-8.574 18.149-13 27-1.026 2.051-2.466 10.017.5 11.5 3.19 1.595 6.014-11 7.5-11 0 11.377-3.677 22.411 7.5 28 5.265 2.632 13.051-2 17.5-2 0 2.582-3.577 8-6 8ZM168 226c0 1.048.473 3-1 3 0-9.154-4.683-11.908-12.5-8-3.196 1.598-12.5-.313-12.5 5-2.067 0-8-8.249-8-10l7 3c24.412 0 19-9.497 19-28 3.21 0 3.201 11 7.5 11 3.639 0 2.315-8.87 1.5-10.5-4.442-8.884-8.536-18.073-13-27-.927-1.854-1.636-8.5 2-8.5l3 6c0 10.421 5.614 21.728 10 30.5 2.041 4.081 1.068 9.784 6.5 12.5h5.5c0 4.404-10 5.69-10 11l-1 1-1 2-1 2-1 2v2l-1 1Z"/><path fill="#FF6F80" id="TH" d="M204 160c0-2.276 2.078 1 3 1v-4l-4-1c0 1.145-.579 4 1 4ZM281 156l-1 1 1-1ZM176 157l1 1-1-1ZM253 159l-4 2v-4h4v2Z"/><path fill="#C9C9CA" id="scwm" d="m375 157 1 1-1-1ZM81 158l-1 1 1-1Z"/><path fill="#FF6F80" id="TH" d="m280 158-1 1 1-1Z"/><path fill="#8598CC" id="GPe" d="m133 215 1 1 7 3c24.412 0 19-9.497 19-28 0-4.654-11.54-31-17-31l-1-1c-2.364 0-6.034 9.568-7 11.5-2.379 4.758-7.881 29.238-5 35l3 9.5Z"/><path fill="#FC8E9F" id="IAD" d="M203 164c0 4.348 8 14.27 8 25 2.388 0 2-5.661 2-7.5 0-6.86-6-13.191-6-19.5v-1c-.922 0-3-3.276-3-1 0 1.048.473 3-1 3v1ZM253 164c0 5.128-8 15.24-8 24-1.011 0-2.68-5.141-2-6.5l6-18.5v-2l4-2v5Z"/><path fill="#8598CC" id="GPe" d="m322 216-1 1c-4.449 0-12.235 4.632-17.5 2-11.177-5.589-7.5-16.623-7.5-28l1-2c0-6.92 6.021-15.541 9-21.5l7-7.5 2-1c0 3.941 6.213 9.925 8 13.5 1.038 2.075.912 4.825 2 7l1 28-2 6.5-1 1-1 1Z"/><path fill="#FF909F" id="PT" d="M237 193h7l1-3v-2c-1.011 0-2.68-5.141-2-6.5l6-18.5c-4.736 0-8.158-3-12-3 0 4.25-2.173 9.846-4 13.5V187l2 4 2 2Z"/><path fill="#FF6F80" id="TH" d="m177 161 2 4-2-4Z"/><path fill="#FF909F" id="PT" d="M213 193h7l2-2 1-4c0-6.582.731-13.037-2-18.5-.652-1.303-.219-7.5-2-7.5-4.123 0-7.463 1-12 1 0 6.309 6 12.64 6 19.5 0 1.839.388 7.5-2 7.5v2l2 2Z"/><path fill="#FF6F80" id="TH" d="m279 162-1 2 1-2Z"/><path fill="#FD8D9F" id="AMd" d="M210 191c-2.16 0-4.167 2-7 2 0-3.581-11-17.88-11-24 0-3.017 10.611-5 11-5 0 4.348 8 14.27 8 25v1l-1 1Z"/><path fill="#FD909E" id="AV" d="m254 163-1 1v-1h1Z"/><path fill="#FD8D9F" id="AMd" d="M246 190c0 2.753 5.011 3 7 3 2.811 0 11.257-24 12-24 0-3.067-10-2.713-10-6h-1l-1 1c0 5.128-8 15.24-8 24v1l1 1Z"/><path fill="#FF6F80" id="TH" d="m278 165-1 2 1-2ZM184 177l1 4c-1.442 0-6-12.174-6-14l5 10ZM277 167c-1.473 0-1 1.952-1 3 1.473 0 1-1.952 1-3Z"/><path fill="#FC909D" id="AMv" d="M203 193c0 1.747-.253 2-2 2-2.32 0-10-2.591-10-5l-1-1-1-1-1-1-2-3-1-1v-2l-1-4c4.155 0 2.818-8 8-8 0 6.12 11 20.419 11 24ZM262 193c-2.447 0-3.28 2-6 2-1.238 0-3-.423-3-2 2.811 0 11.257-24 12-24l7 8v3l-1 2v2l-1 1-1 1-1 2-1 1-3 2-1 1-1 1Z"/><path fill="#FF6F80" id="TH" d="m276 170-1 2 1-2Z"/><path fill="#12AD83" id="VISC1" d="M41 198c0 .672-4.33 2-5 2l-3-8.5-1-20.5 5 1v13.5c1.67 3.341 4 8.641 4 12.5ZM415 198l5 2 3-7.5 1-21.5-4 1-1 15.5-4 10.5Z"/><path fill="#12AC83" id="VISC2/3" d="M41 198h1c1.13 0 8-2.049 8-3 0-5.366-6-14.273-6-22l-7-1v13.5c1.67 3.341 4 8.641 4 12.5Z"/><path fill="#FF6F80" id="TH" d="M275 172c-1.473 0-1 1.952-1 3 1.473 0 1-1.952 1-3Z"/><path fill="#12AC83" id="VISC2/3" d="M406 195c2.675 0 5.922 3 9 3l4-10.5 1-15.5-8 1c0 8.703-6 16.454-6 22Z"/><path fill="#11AC82" id="VISC4" d="M50 195h2c0-3.608-1.478-7.456-3-10.5-1.616-3.232 1-8.676 1-11.5h-6c0 7.727 6 16.634 6 22Z"/><path fill="#12AD82" id="VISC5" d="M52 195h1l12-2c0-6.192-2-12.044-2-19l-13-1c0 2.824-2.616 8.268-1 11.5 1.522 3.044 3 6.892 3 10.5ZM403 195h1c0-3.003 1.727-5.953 3-8.5V173h-1l-12 1c0 6.184-3 13.251-3 19l12 2Z"/><path fill="#11AC82" id="VISC4" d="M404 195h2c0-5.546 6-13.297 6-22h-5v13.5c-1.273 2.547-3 5.497-3 8.5Z"/><path fill="#11AC83" id="VISC6a" d="M65 193h1l11-2-2-16-12-1c0 6.956 2 12.808 2 19Z"/><path fill="#C8CBCC" id="ec" d="M107 239h3l1-1c7.153 0-3-2.79-3-5h-1c-1.087 0-5 .148-5-3-3.637 0-7.788-11.076-9-13.5-8.115-16.23-14-22.346-14-42.5h-2v1l1 15 2 3c0 3.391 3 5.353 3 9l1 1v1l2 3 10 19 1 1v1c1.577 0 2 1.762 2 3l1 1 3 4 2 1 1 1 1 1ZM376 194l-1 1c0-6.364 3-13.329 3-21h1v14c-1.473 0-1 1.952-1 3l-1 1v1l-1 1Z"/><path fill="#11AC83" id="VISC6a" d="M379 191c4.246 0 7.473 2 12 2 0-5.749 3-12.816 3-19-4.569 0-8.923 1-13 1 0 2.312.379 13-2 13v3Z"/><path fill="#11AD82" id="VISC6b" d="M77 191h1v-1l-1-15h-2l2 16Z"/><path fill="#FF6F80" id="TH" d="m274 175-1 2 1-2Z"/><path fill="#11AD82" id="VISC6b" d="M381 175c0 2.312.379 13-2 13v-13h2Z"/><path fill="#FF6F80" id="TH" d="M273 177c0 1.048.473 3-1 3v-3h1ZM272 180l-1 2 1-2ZM185 183l1 1-1-1ZM271 184l-1 1 1-1Z"/><path fill="#FD8E9E" id="CM" d="m222 191 1 1c5.02 0 6.315-5.593 3.5-7l-3.5 2-1 4Z"/><path fill="#FD8E9E" id="CM" d="M234 191h1l-2-4c-1.384 0-1.123-3.189-3.5-2-1.695.848-.395 6.303 1 7l3.5-1Z"/><path fill="#FF6F80" id="TH" d="m270 185-1 1 1-1ZM188 187l1 1-1-1ZM268 188l-1 1 1-1Z"/><path fill="#11AD82" id="VISC6b" d="M378 191h1v-3c-1.473 0-1 1.952-1 3Z"/><path fill="#FF6F80" id="TH" d="m190 189 1 1-1-1Z"/><path fill="#FC8E9F" id="IAD" d="M245 190h1l-1-1v1Z"/><path fill="#8599CC" id="PAL" d="m297 189-1 2 1-2Z"/><path fill="#219666" id="AIp6b" d="m78 192 2 1-2-3v2Z"/><path fill="#FC8E9F" id="IAD" d="M210 191h1v-1l-1 1Z"/><path fill="#FF6F80" id="TH" d="M253 207c-2.97 0-9.655 8-16 8l4-4.5c2.893-2.893 14.631-17.5 3-17.5l1-3h1c0 2.753 5.011 3 7 3 0 1.577 1.762 2 3 2 0 .839-11.856 10-3 10v2Z"/><path fill="#209766" id="AIp6a" d="M75 213h2c0-4.246 5-4.746 5-7-7.417 0-7.261-14-4-14v-1h-1l-11 2 9 20Z"/><path fill="#FF6F80" id="TH" d="M205 208c0 3.731 13.829 8 17 8l-4.5-3-8.5-8.5c-1.755-3.511-1.825-11.5 4-11.5l-2-2h-1c-2.16 0-4.167 2-7 2 0 1.747-.253 2-2 2 0 1.562 10.49 10 2 10v1l2 2ZM220 193h3v-1l-1-1-2 2ZM234 193h3l-2-2h-1v2ZM264 191l-1 1 1-1Z"/><path fill="#219666" id="AIp6b" d="M377 192h1v-1l-1 1Z"/><path fill="#209766" id="AIp6a" d="M380 213h1l10-20c-4.527 0-7.754-2-12-2h-1v1c4.505 0 2.968 11.766.5 13-2.117 1.058-5.5 1.179-5.5-2l-2 3c4.295 0 9 2.44 9 7Z"/><path fill="#8ADA86" id="CLA" d="m84 204-2 2c-7.417 0-7.261-14-4-14l2 1c0 3.391 3 5.353 3 9l1 1v1Z"/><path fill="#FF6F80" id="TH" d="m263 192-1 1 1-1Z"/><path fill="#8ADA86" id="CLA" d="m375 195-2 8c0 3.179 3.383 3.058 5.5 2 2.468-1.234 4.005-13-.5-13h-1v1l-1 1-1 1Z"/><path fill="#219864" id="AIp5" d="m75 214-7 2c-2.319 0-15-18.255-15-21l12-2h1l9 20v1Z"/><path fill="#FD909F" id="RE" fill-rule="evenodd" d="M226 202c0 .614-2.33 7 .5 7l2-2 1 2c1.885 0 2.2-6.4 1-7l-2 2-2.5-2m8 14h1l2-1 4-4.5c2.893-2.893 14.631-17.5 3-17.5h-31c-5.825 0-5.755 7.989-4 11.5l8.5 8.5 4.5 3h5c0-1.919 2-2.488 2 0h5Z"/><path fill="#209766" id="AIp6a" d="m377 193-1 1 1-1Z"/><path fill="#219864" id="AIp5" d="m381 213 7 3c3.218 0 15-17.404 15-21l-12-2-10 20Z"/><path fill="#209865" id="AIp2/3" d="M68 216c0 1.165-8.453 4-10 4 0-4.308-16-13.824-16-22 1.13 0 8-2.049 8-3h3c0 2.745 12.681 21 15 21Z"/><path fill="#C8CBCC" id="ec" d="m371 206-4 6c0-4.518 4.062-9.623 6-13.5l2-3.5-2 8-2 3Z"/><path fill="#209865" id="AIp2/3" d="M388 216c0 .801 8.763 4 10 4 0-2.99 17-15.123 17-22-3.078 0-6.325-3-9-3h-3c0 3.596-11.782 21-15 21Z"/><path fill="#219765" id="AIp1" d="m58 220-5 2c0-3.796-17-15.179-17-22 .67 0 5-1.328 5-2h1c0 8.176 16 17.692 16 22ZM398 220l5 2c0-3.506 17-14.305 17-22l-5-2c0 6.877-17 19.01-17 22Z"/><path fill="#209766" id="AIp6a" d="m83 202 1 1-1-1Z"/><path fill="#F0483B" id="ZI" d="M203 206v1c0 12.066-19 1.549-19-2h1l1-1c1.968 0 17-5.741 17 1v1Z"/><path fill="#FC8F9F" id="Xi" d="M226 202c0 .614-2.33 7 .5 7l2-2 1 2c1.885 0 2.2-6.4 1-7l-2 2-2.5-2Z"/><path fill="#F0483B" id="ZI" d="M269 209h1c0-2.573 2-.355 2-4l-1-1c-1.635 0-17-5.209-17 0l-1 1v2c0 11.235 12.54 2 16 2Z"/><path fill="#209766" id="AIp6a" d="m82 206 4 1-2-3-2 2Z"/><path fill="#8599CC" id="PAL" d="m186 204-1 1 1-1Z"/><path fill="#FF6F80" id="TH" d="m254 204-1 1 1-1Z"/><path fill="#8599CC" id="PAL" d="m271 204 1 1-1-1Z"/><path fill="#E64438" id="HY" fill-rule="evenodd" d="M203 216c0 1.765-1.581.541-2.5 1-2.59 1.295-3.46 4.42-4.5 6.5-.757 1.513 2.987 5.257 4.5 4.5 4.993-2.496 13.995-12 2.5-12m-19-7-3 2.5c-2.436 4.871 14.236 6.236 6-2l-3-.5m11 66h1c0-4.68 2.621-3 6-3 0-.937-6.867-3.235-8-5.5-2.539-5.078-3.775-17.45-1-23 5.232-10.465 25-10.207 25 3.5 2.706 0-1.305-9 4-9 0-9.701-19.123-21 1-21v-1h-1c-3.171 0-17-4.269-17-8l-2-1c0 12.066-19 1.549-19-2h-1c0 4.404-10 5.69-10 11 3.431 0 4.253-3.124 8.5-1 3.732 1.866 3.964 8.428 5.5 11.5 3.421 6.843 7.752 33.874-1.5 38.5-4.585 2.292-17.855-9-22.5-9 0 2.352 5.075 14 8 14 0-12.502 18-1.326 18 1l5 4h1ZM250 216l-3 4.5c9.292 18.584 22.181-4.5 3-4.5m11 59h1l1-1 2-1 3-2c0-3.406 7-3.677 7-6-16.96 0-8.644-45.928 1.5-51 4.521-2.26 5.949 4 8.5 4 0-5.028-12-9.54-12-13h-1c0 3.645-2 1.427-2 4 11.644 0-.191 11.117-3 5.5-1.27-2.541 2-3.709 2-5.5-3.46 0-16 9.235-16-2-2.97 0-9.655 8-16 8l-2 1h-1v1c18.216 0 1 10.842 1 21 1.89 0 3 4.598 3 6 .22 0 5.651-7.076 7.5-8 6.363-3.181 16.061 4.622 18.5 9.5v9c.728 1.455 1.964 5.073 1 7l-4 7-3 2.5c0 1.452 2 .486 2 4h1Z"/><path fill="#A0EE9C" id="EPd" d="M97 231c0 1.747-.253 2-2 2-4.307 0-6.632-6-10-6h-1l-1-1v-1c.524 0-6-9.71-6-12 0-4.246 5-4.746 5-7l4 1 10 19 1 1v4Z"/><path fill="#CAC7CB" id="fiber tracts" d="m203 207 2 1-2-2v1Z"/><path fill="#A0EE9C" id="EPd" d="M359 231c0 1.577 1.762 2 3 2 3.265 0 4.067-3 7-3l1-1 1-1 1-1 1-1v-1c0-1.336 6.242-12 7-12 0-4.56-4.705-7-9-7l-4 6c0 1.465.109 4-2 4 0 4.288-5 7.107-5 11l-1 1v3Z"/><path fill="#CCC9C8" id="sm" d="m184 209-3 2.5c-2.436 4.871 14.236 6.236 6-2l-3-.5ZM269 209h1c11.644 0-.191 11.117-3 5.5-1.27-2.541 2-3.709 2-5.5Z"/><path fill="#C8CBCC" id="ec" d="M367 212c-2.109 0-2 2.535-2 4 2.109 0 2-2.535 2-4Z"/><path fill="#C9C8CA" id="ee" d="m82 224 1 1c.524 0-6-9.71-6-12h-2v1c1.155 0 5 6.844 5 8l1 1v1h1ZM373 225h1l1-1c0-3.51 6-7.015 6-11h-1c-.758 0-7 10.664-7 12Z"/><path fill="#6ACAB9" id="PIR" d="M343 274c0 6.489 12 20.845 12 23 5.764 0 11.768-9.037 14-13.5 7.687-15.374 16.339-29.678 24-45l10-16.5-5-2c-1.237 0-10-3.199-10-4l-7-3c0 3.985-6 7.49-6 11l-1 1-1 1-1 1v1l-1 1-1 1-1 1c0 1.429-1.288 4-3 4l-1 2c0 4.404-13.986 18.471-16 22.5l-5 7.5-1 1v6ZM114 273c0 5.446-13 23.988-13 24-4.409 0-12.083-8.666-14-12.5-6.493-12.987-12.556-26.111-19-39-1.942-3.883-15-20.716-15-23.5l5-2c1.547 0 10-2.835 10-4l7-2c1.155 0 5 6.844 5 8l1 1v1l1 1h1v1l1 1 1 1v1l7 9c0 1.358 15.38 22.44 16.5 23l4.5 6 1 6Z"/><path fill="#F2483A" id="LHA" d="M164 241c0 5.089-1 10.171-1 15 4.645 0 17.915 11.292 22.5 9 9.252-4.626 4.921-31.657 1.5-38.5-1.536-3.072-1.768-9.634-5.5-11.5-4.247-2.124-5.069 1-8.5 1l-1 1-1 2-1 2-1 2v2l-1 1c0 1.048.473 3-1 3 0 4.242-2 6.596-2 11l-1 1ZM275 265h1c0-1.359 15.14-8 17-8v-1l1-1c0-5.059-2-9.715-2-14l-2-9-1-1v-3c-1.473 0-1-1.952-1-3l-1-2v-1c-1.577 0-2-1.762-2-3v-1c-2.551 0-3.979-6.26-8.5-4-10.144 5.072-18.46 51-1.5 51Z"/><path fill="#97D6F9" id="STR" d="m324 214-1 1 1-1ZM127 231c3.989 0 6-7.241 6 0 1.88 0 4.309-4 9-4v-1c-2.067 0-8-8.249-8-10l-1-1v9.5l-6 6.5Z"/><path fill="#FF6F80" id="TH" d="m237 215-2 1 2-1Z"/><path fill="#97D6F9" id="STR" d="M327 253h7c1.745 0 6 .698 6-2-6.47 0-12.689-12.879-15-17.5-.495-.991-3.825-5.338-1.5-6.5.535-.268 7.286 6 10.5 6 0-1.84-9.495-5.49-11-8.5V215l-1 1-1 1c0 2.582-3.577 8-6 8v2c4.502 0 11.838 4.825 9 10.5l-4 4.5c8.529 0 7 5.227 7 11Z"/><path fill="#E64438" id="HY" d="m173 216-1 1 1-1Z"/><path fill="#C7C8CA" id="fx" d="M203 216c0 1.765-1.581.541-2.5 1-2.59 1.295-3.46 4.42-4.5 6.5-.757 1.513 2.987 5.257 4.5 4.5 4.993-2.496 13.995-12 2.5-12Z"/><path fill="#FF6F80" id="TH" d="M223 217h3v-1h-3v1Z"/><path fill="#E64438" id="HY" d="M226 217h4v-1h-4v1Z"/><path fill="#FF6F80" id="TH" d="M230 217h4v-1h-4v1Z"/><path fill="#C7C8CA" id="fx" d="m250 216-3 4.5c9.292 18.584 22.181-4.5 3-4.5Z"/><path fill="#8599CC" id="PAL" d="m322 216-1 1 1-1Z"/><path fill="#C8CBCC" id="ec" d="M346 239h3l1-1 4-3 1-1 1-1v-1l1-1 2-2v-1l1-1c0-3.893 5-6.712 5-11-2.462 0-5.228 8.728-7 10.5l-3 3.5-1 1h-1c0 2.109-2.535 2-4 2h-1c0 1.803-3.592 3-5 3 0 4.861 3-.219 3 3Z"/><path fill="#E64438" id="HY" d="m172 217-1 2 1-2Z"/><path fill="#FF5D4F" id="PVH" d="M229 239h3l3-1c0-10.158 17.216-21-1-21h-11c-20.123 0-1 11.299-1 21l2 1h3v-14.5c0-1.054-.338-4.5 1.5-4.5l.5 19Z"/><path fill="#A2B1D7" id="SI" d="m148 241 5.5 4c5.004 2.502 8.203-4 10.5-4l1-1c0-4.404 2-6.758 2-11 0-9.154-4.683-11.908-12.5-8-3.196 1.598-12.5-.313-12.5 5v1c6.049 0 5 8.789 5 13l1 1Z"/><path fill="#E64438" id="HY" d="m171 219-1 2 1-2ZM285 219c1.577 0 2 1.762 2 3-1.577 0-2-1.762-2-3Z"/><path fill="#A2B1D7" id="SI" d="m308 241-1 2c-3.027 0-6.821 3.839-10.5 2l-4.5-4-2-9-1-1v-3c0-19.076 19.998-3 26-3v2c-6.07 0-6 8.678-6 13l-1 1Z"/><path fill="#A8A9AA" id="V3" d="m227 239 .5 33c2.17 1.085 1.5-6.288 1.5-7.5V239l-.5-19c-1.838 0-1.5 3.446-1.5 4.5V239Z"/><path fill="#E64438" id="HY" d="m170 221-1 2 1-2Z"/><path fill="#99D2BD" id="OLF" d="m80 222 1 1-1-1Z"/><path fill="#E64438" id="HY" d="m287 223 1 2-1-2Z"/><path fill="#99D2BD" id="OLF" d="M82 224v1l-1-1h1Z"/><path fill="#8AD987" id="CTXsp" d="M82 225h1l-1-1v1ZM375 224l-1 1 1-1Z"/><path fill="#E64438" id="HY" d="m169 225-1 1 1-1Z"/><path fill="#99D2BD" id="OLF" d="m374 225-1 1v-1h1Z"/><path fill="#8AD987" id="CTXsp" d="m83 226 1 1-1-1ZM96 226l1 1-1-1ZM373 226l-1 1 1-1Z"/><path fill="#99D2BD" id="OLF" d="M85 227v1l-1-1h1Z"/><path fill="#8AD987" id="CTXsp" d="m95 233-3 3c-2.511 0-3.579-7-7-7v-2c3.368 0 5.693 6 10 6Z"/><path fill="#7ECDF8" id="FS" d="m114 250 3 1c0-1.399 8.671-5.842 10-8.5l6-10.5v-1c0-7.241-2.011 0-6 0l-4 2h-3l-1 1h-5c0 3.945 9.73 3.04 7 8.5-1.314 2.627-8 2.347-8 4.5v1l1 2Z"/><path fill="#7FC0E0" id="CEAm" d="M136 242h9l2-2c0-4.211 1.049-13-5-13-4.691 0-7.12 4-9 4v1c0 2.975-1.412 4.677 0 7.5l3 2.5ZM312 242h8l4-4.5c2.838-5.675-4.498-10.5-9-10.5-6.07 0-6 8.678-6 13l3 2Z"/><path fill="#7ECDF8" id="FS" d="m342 250-2 1c-6.47 0-12.689-12.879-15-17.5-.495-.991-3.825-5.338-1.5-6.5.535-.268 7.286 6 10.5 6h2l1 1h6v2c-11.162 0-7.753 11 1 11l-1 2-1 1Z"/><path fill="#8AD987" id="CTXsp" d="m360 227-1 1 1-1ZM371 228h1v-1l-1 1ZM97 231h2c0-1.238-.423-3-2-3v3ZM370 229h1v-1l-1 1Z"/><path fill="#99D2BD" id="OLF" d="m372 228-1 1v-1h1ZM92 236v2l-7-9c3.421 0 4.489 7 7 7Z"/><path fill="#8AD987" id="CTXsp" d="M357 231h2v-2l-2 2ZM369 230h1v-1l-1 1Z"/><path fill="#99D2BD" id="OLF" d="m371 229-1 1v-1h1Z"/><path fill="#97D6F9" id="STR" d="m102 230 5 3c-1.087 0-5 .148-5-3ZM355 230l-1 1 1-1Z"/><path fill="#8AD987" id="CTXsp" d="m366 235-1 2-3-4c3.265 0 4.067-3 7-3v1c-1.712 0-3 2.571-3 4Z"/><path fill="#99D2BD" id="OLF" d="m370 230-1 1v-1h1Z"/><path fill="#A0ED9D" id="EPv" d="M113 267h1l2-6.5c1.813-3.626-2-7.64-2-10.5l-1-2-6-6c-2.641 0-5-3.591-5-6l-2-4-1-1h-2c0 1.747-.253 2-2 2l-3 3v2c0 1.358 15.38 22.44 16.5 23l4.5 6Z"/><path fill="#97D6F9" id="STR" d="M127 231c-1.465 0-4-.109-4 2l4-2Z"/><path fill="#8599CC" id="PAL" d="m289 231 1 1-1-1Z"/><path fill="#97D6F9" id="STR" d="m353 231-4 2c1.465 0 4 .109 4-2Z"/><path fill="#8AD987" id="CTXsp" d="m357 231-1 1 1-1Z"/><path fill="#A0ED9D" id="EPv" d="M343 267h1l5-7.5c2.014-4.029 16-18.096 16-22.5l-3-4c-1.238 0-3-.423-3-2h-2l-1 1v1l-1 1-1 2c0 2.8-1.875 6-5 6l-5 5-1 2-1 1c0 1.637-3.66 17 1 17Z"/><path fill="#99D2BD" id="OLF" d="M369 231c-1.712 0-3 2.571-3 4 1.712 0 3-2.571 3-4Z"/><path fill="#8AD987" id="CTXsp" d="M102 236h1l-3-4 2 4Z"/><path fill="#97D6F9" id="STR" d="M122 253h7c0-5.758-.078-11 7-11l-3-2.5c-1.412-2.823 0-4.525 0-7.5l-6 10.5c-1.329 2.658-10 7.101-10 8.5 0 2.461 3.378 2 5 2Z"/><path fill="#97D6F9" id="STR" fill-rule="evenodd" d="m115 238-1 4.5c2.218 4.436 10.644-4.5 1-4.5m-5 1c0 1.131 2.049 8 3 8 0-2.153 6.686-1.873 8-4.5 2.73-5.46-7-4.555-7-8.5l-6-1c0 2.21 10.153 5 3 5l-1 1Z"/><path fill="#97D6F9" id="STR" d="m120 233-1 1 1-1ZM336 233l1 1-1-1ZM343 234v2c1.408 0 5-1.197 5-3l-5 1Z"/><path fill="#8AD987" id="CTXsp" d="m356 233-1 1 1-1ZM354 235v1l1-2-1 1Z"/><path fill="#80BEE2" id="IA" d="M349 239v3c3.125 0 5-3.2 5-6v-1l-4 3-1 1Z"/><path fill="#99D2BD" id="OLF" d="m366 235-1 2 1-2Z"/><path fill="#80BEE2" id="IA" d="M107 239v3c-2.641 0-5-3.591-5-6h1l2 1 1 1 1 1Z"/><path fill="#FF4B3E" id="AHN" d="M202 272h6c3.676 0 6.439-3 9-3 0-7.056 1-14.442 1-22 0-13.707-19.768-13.965-25-3.5-2.775 5.55-1.539 17.922 1 23 1.133 2.265 8 4.563 8 5.5ZM249 272h6l2-1h1l3-2.5 4-7c.964-1.927-.272-5.545-1-7v-9c-2.439-4.878-12.137-12.681-18.5-9.5-1.849.924-7.28 8-7.5 8l1 24 2.5 3 7.5 1Z"/><path fill="#97D6F9" id="STR" fill-rule="evenodd" d="m339 238-3 2.5c0 9.181 11.965-2.5 3-2.5m7 1-2 8c-8.753 0-12.162-11-1-11 0 4.861 3-.219 3 3Z"/><path fill="#8AD987" id="CTXsp" d="m105 237 1 1-1-1Z"/><path fill="#9DE79B" id="BLAa" d="m111 238-1 1 1-1Z"/><path fill="#C9C9C9" id="act" d="m115 238-1 4.5c2.218 4.436 10.644-4.5 1-4.5Z"/><path fill="#FD5547" id="SBPV" d="M217 269v2l4.5-6c1.045 0 1.861 2 3.5 2 0-8.774-1-18.617-1-28l-2-1c-5.305 0-1.294 9-4 9 0 7.558-1 14.944-1 22ZM239 268v2c-2.73 0-1.112-3.306-2.5-4l-5.5 1c0-8.596 1-18.739 1-28l3-1c1.89 0 3 4.598 3 6l1 24Z"/><path fill="#C9C9C9" id="act" d="m339 238-3 2.5c0 9.181 11.965-2.5 3-2.5Z"/><path fill="#8AD987" id="CTXsp" d="m350 238-1 1 1-1ZM113 247v1l-6-6v-3h3c0 1.131 2.049 8 3 8Z"/><path fill="#FF5D50" id="PVa" d="m229 276-2 1-2-10c0-8.774-1-18.617-1-28h3l.5 33c2.17 1.085 1.5-6.288 1.5-7.5V239h3c0 9.261-1 19.404-1 28 0 3.447-2 6.245-2 9Z"/><path fill="#8AD987" id="CTXsp" d="m349 242-5 5 2-8h3v3Z"/><path fill="#97D6F9" id="STR" d="M145 242c0 1.579 2.855 1 4 1l-1-2-1-1-2 2Z"/><path fill="#8599CC" id="PAL" d="m165 240-1 1 1-1ZM309 240l-1 1 1-1Z"/><path fill="#97D6F9" id="STR" d="M312 242c0 1.579-2.855 1-4 1v-2l1-1 3 2Z"/><path fill="#8599CC" id="PAL" d="M173 272v1l-4.5 1-2.5-2c0-3.66-2.3-13-7-13l-7-10v-1l-1-1-1-2-1-1v-1l-1-2 5.5 4c5.004 2.502 8.203-4 10.5-4 0 5.089-1 10.171-1 15 0 2.352 5.075 14 8 14l2 2ZM290 272l-2.5 2-4.5-1v-1l2-1c2.925 0 8-11.648 8-14v-1l1-1c0-5.059-2-9.715-2-14l4.5 4c3.679 1.839 7.473-2 10.5-2v1l-2 4-1 1c-1.012 0-5 7.673-5 9-5.592 0-8 8.688-8 13l-1 1ZM307 243h1v-2l-1 2Z"/><path fill="#80C0E2" id="AAA" d="M136 259h15l2-4.5-1-5.5v-1l-1-1-1-2-1-1v-1c-1.145 0-4 .579-4-1h-9c-7.078 0-7 5.242-7 11 0 1.59 5.662 6 7 6ZM327 253l-6 6c-10.232 0-17 5.37-17-10l1-1 2-4 1-1c1.145 0 4 .579 4-1h8c8.529 0 7 5.227 7 11Z"/><path fill="#97D6F9" id="STR" d="m308 243-1 1v-1h1ZM149 244l1 1-1-1ZM151 247l1 1-1-1ZM305 248l-1 1 1-1ZM151 259l4.5-2 3.5 2-7-10 1 5.5-2 4.5ZM318 262l2 1 1-4c-10.232 0-17 5.37-17-10-1.012 0-5 7.673-5 9 3.168 0 8-.054 8 5 2.73 0 6.298-2 10-2l1 1Z"/><path fill="#8AD987" id="CTXsp" d="m343 249-1 1 1-1ZM114 267l5 4c0-3.138-4.096-8.309-2-12.5l5-5.5c-1.622 0-5 .461-5-2l-3-1c0 2.86 3.813 6.874 2 10.5l-2 6.5ZM343 268c-2.364 0-3.053 3-5 3 0-4.625 3.442-8.617 1-13.5l-5-4.5c1.745 0 6 .698 6-2l2-1c0 1.637-3.66 17 1 17v1Z"/><path fill="#84EA80" id="BMAa" d="M131 271c-3.303 0-5.115 2-8 2l-4-2c0-3.138-4.096-8.309-2-12.5l5-5.5h7c0 1.59 5.662 6 7 6v4c0 1.974-2 3.517-2 6l-3 2ZM338 271c-1.624 0-2.75 2-5 2-2.338 0-4.862-2-8-2l-2-2-3-6 1-4 6-6h7l5 4.5c2.442 4.883-1 8.875-1 13.5Z"/><path fill="#E64438" id="HY" d="m294 255-1 1 1-1Z"/><path fill="#80BFE1" id="MEA" d="m160 282-5 1c0-1.574.751-9-1-9l-1-5c0-2.773-4-3.67-4-6l2-4 4.5-2 3.5 2c4.7 0 7 9.34 7 13v1c-1.579 0-1 2.855-1 4-1.747 0-2 .253-2 2l-3 3Z"/><path fill="#E64438" id="HY" d="M276 265c5.381 0 9-1.703 9 6 2.925 0 8-11.648 8-14-1.86 0-17 6.641-17 8Z"/><path fill="#80BFE1" id="MEA" d="M297 282c0 1.579 2.855 1 4 1 0-1.72.659-11 2-11v-3l1-1 3-5c0-5.054-4.832-5-8-5-5.592 0-8 8.688-8 13v5l6 6Z"/><path fill="#97D6F9" id="STR" d="M136 263c2.762 0 6.755-3.873 10.5-2l2.5 2 2-4h-15v4Z"/><path fill="#94E4C7" id="NLOT3" d="M153 269c-1.602 0-2.384-3.058-4.5-2-3.213 1.606-11.018 4-14.5 4v-2c0-2.483 2-4.026 2-6 2.762 0 6.755-3.873 10.5-2l2.5 2c0 2.33 4 3.227 4 6ZM323 269v3l-4.5-3c-3.785-1.893-11.154-1-14.5-1l3-5c2.73 0 6.298-2 10-2l1 1 2 1 3 6Z"/><path fill="#99D2BD" id="OLF" d="m317 261 1 1-1-1Z"/><path fill="#FE5B50" id="SO" d="m189 271-10.5-1-5.5 2-2-2c0-12.502 18-1.326 18 1ZM285 271l-2 1-5.5-2-9.5 1c0-3.406 7-3.677 7-6h1c5.381 0 9-1.703 9 6Z"/><path fill="#FF5545" id="SCH" d="M219 281h6l2-4-2-10c-1.639 0-2.455-2-3.5-2l-4.5 6-1 6.5 3 3.5ZM231 281h6l4-4v-1l-2-6c-2.73 0-1.112-3.306-2.5-4l-5.5 1c0 3.447-2 6.245-2 9l2 5Z"/><path fill="#99D2BD" id="OLF" d="m123 273-1 3-2.5-3H114l-1-6h1l5 4 4 2Z"/><path fill="#95E3C8" id="NLOT2" d="m137 282 1 1c6.857 0 16-.291 16-9l-1-5c-1.602 0-2.384-3.058-4.5-2-3.213 1.606-11.018 4-14.5 4l-1 2c0 2.008 1.355 9 4 9ZM318 283h1l1-1c0-1.863 3-5.792 3-10l-4.5-3c-3.785-1.893-11.154-1-14.5-1l-1 1v3c0 9.958 5.515 11 15 11Z"/><path fill="#99D2BD" id="OLF" d="m344 267-1 1v-1h1Z"/><path fill="#E64438" id="HY" d="M249 272c0 2.144-4.262.381-5.5 1l-2.5 3-2-6v-2l2.5 3 7.5 1Z"/><path fill="#94E4C7" id="NLOT3" d="m304 268-1 1 1-1Z"/><path fill="#99D2BD" id="OLF" d="M343 274c-1.678 0-8-2.955-8 2-1.577 0-2-1.762-2-3 2.25 0 3.376-2 5-2 1.947 0 2.636-3 5-3v6ZM133 271h1v-2l-3 2h2Z"/><path fill="#E64438" id="HY" d="m213 280 6 1-3-3.5 1-6.5v-2c-2.561 0-5.324 3-9 3 0 1.151 5.85 1.2 7 3.5 1.356 2.712-2 3.183-2 4.5Z"/><path fill="#99D2BD" id="OLF" d="m325 271-2 1v-3l2 2Z"/><path fill="#CAC7CB" id="fiber tracts" d="M173 274c3.535 0 9.886-4.307 14.5-2l6.5 3-5-4-10.5-1-5.5 2v2ZM265 273h18v-1l-5.5-2-9.5 1-3 2Z"/><path fill="#60E5B7" id="COAa" d="m133 294-5 1-4-1c0-3.341-1.539-8.578-3-11.5-1.081-2.161 1-4.894 1-6.5l1-3c2.885 0 4.697-2 8-2h2v2c0 2.008 1.355 9 4 9 0 1.048-.473 3 1 3l-1 7-4 2Z"/><path fill="#94E4C7" id="NLOT3" d="m134 271-1 2v-2h1Z"/><path fill="#F2483B" id="RCH" d="M198 276c4.682 0 9.74 4 15 4 0-1.317 3.356-1.788 2-4.5-1.15-2.3-7-2.349-7-3.5h-6c-3.379 0-6-1.68-6 3h1l1 1Z"/><path fill="#E64438" id="HY" d="m257 271-2 1 2-1Z"/><path fill="#F2483B" id="RCH" d="m252 279-9 1-2-3v-1l2.5-3c1.238-.619 5.5 1.144 5.5-1h6l2-1h1c0 1.452 2 .486 2 4l-1 1c-1.345 0-7 1.571-7 3Z"/><path fill="#60E5B7" id="COAa" d="m332 294-4 1-5-1-3-1-1-7v-3l1-1c0-1.863 3-5.792 3-10l2-1c3.138 0 5.662 2 8 2 0 1.238.423 3 2 3 0 6.64-3 12.395-3 18Z"/><path fill="#CACCCB" id="opt" d="M199 278v9c-10.117 0-23.506-11-26-11v-2c3.535 0 9.886-4.307 14.5-2l6.5 3h1l4 3ZM257 287h7c0-1.638 3.576-2 5-2 0-1.577 1.762-2 3-2l11-7v-3h-18l-2 1-1 1h-1l-1 1-3 2v9Z"/><path fill="#97D6F9" id="STR" d="M291 272v3c-1.473 0-1-1.952-1-3h1Z"/><path fill="#95E4C7" id="NLOT1" d="m319 286 1 7-1.5 2c-6.841 3.42-17.5-5.779-17.5-12 0-1.72.659-11 2-11 0 9.958 5.515 11 15 11 0 1.048-.473 3 1 3Z"/><path fill="#59D9AA" id="PAA" d="M109 300h6c0-2.029 9-1.384 9-6 0-3.341-1.539-8.578-3-11.5-1.081-2.161 1-4.894 1-6.5l-2.5-3H114c0 5.446-13 23.988-13 24h1l1 1h1l1 1h3l1 1Z"/><path fill="#97D6F9" id="STR" d="M166 273c-1.579 0-1 2.855-1 4 1.579 0 1-2.855 1-4Z"/><path fill="#CAC7CB" id="fiber tracts" d="m265 273-2 1 2-1Z"/><path fill="#59D9AA" id="PAA" d="M341 300h6l2-1h3l1-1h1l1-1c0-2.155-12-16.511-12-23-1.678 0-8-2.955-8 2 0 6.64-3 12.395-3 18 0 4.404 9 4.107 9 6Z"/><path fill="#95E4C7" id="NLOT1" d="m138 285-1 7c0 8.693 18-.759 18-9 0-1.574.751-9-1-9 0 8.709-9.143 9-16 9v2Z"/><path fill="#CAC7CB" id="fiber tracts" d="m263 274-1 1 1-1ZM231 281h6l6-1 9-1c0 2.832-11.461 3-14 3-4.889 0-22.2 2.15-26.5 0-3.151-1.576-8.921-4-12.5-4l-4-3h2l1 1c4.682 0 9.74 4 15 4l6 1h6c1.639 0 2.455-2 3.5-2 .63 0 .688 2 2.5 2Z"/><path fill="#E64438" id="HY" d="m197 275 1 1-1-1ZM259 276h1v-1l-1 1Z"/><path fill="#CAC7CB" id="fiber tracts" d="m261 275-1 1v-1h1ZM227 285h-19.5c-2.329 1.164-5.779 2-8.5 2-10.117 0-23.506-11-26-11 0 5.195 7.426 5.463 10.5 7 9.045 4.522 20.433 9.283 31 4 2.015-1.008 12.5 1.084 12.5-2Z"/><path fill="#E64438" id="HY" d="M225 281c1.639 0 2.455-2 3.5-2 .63 0 .688 2 2.5 2l-2-5-2 1-2 4Z"/><path fill="#CAC7CB" id="fiber tracts" d="m257 278-5 1c0-1.429 5.655-3 7-3h1l-3 2ZM283 276l-11 7c4.098 0 11-2.121 11-7Z"/><path fill="#97D6F9" id="STR" d="M295 282h2l-6-6c0 2.784 4 4.47 4 6ZM165 277c-1.747 0-2 .253-2 2 1.747 0 2-.253 2-2Z"/><path fill="#E64438" id="HY" d="m243 280-6 1 4-4 2 3Z"/><path fill="#CBCACC" id="och" d="M229 285h19.5c2.329 1.164 5.779 2 8.5 2v-9l-5 1c0 2.832-11.461 3-14 3-4.889 0-22.2 2.15-26.5 0-3.151-1.576-8.921-4-12.5-4v9c2.721 0 6.171-.836 8.5-2H227c.839 0 2-1.93 2 0Z"/><path fill="#97D6F9" id="STR" d="M160 282h1c1.577 0 2-1.762 2-3l-3 3Z"/><path fill="#99D2BD" id="OLF" d="M138 283v2c-1.473 0-1-1.952-1-3l1 1ZM133 294v3c9.843 0 28-5.187 28-15h-1l-5 1c0 8.241-18 17.693-18 9l-4 2ZM323 294l1 3c-8.773 0-29-5.161-29-15h2c0 1.579 2.855 1 4 1 0 6.221 10.659 15.42 17.5 12l1.5-2 3 1ZM320 282l-1 1 1-1Z"/><path fill="#CAC7CB" id="fiber tracts" d="M272 283c-1.238 0-3 .423-3 2 1.238 0 3-.423 3-2Z"/><path fill="#99D2BD" id="OLF" d="M319 283v3c-1.473 0-1-1.952-1-3h1Z"/><path fill="#CAC7CB" id="fiber tracts" d="M257 287h7c0 1.663-5.407 2-7 2-7.522 0-13.202-2-20.5-2-1.431 0-7.5-.694-7.5-2h19.5c2.329 1.164 5.779 2 8.5 2ZM269 285c-1.424 0-5 .362-5 2 1.424 0 5-.362 5-2Z"/><path fill="#99D2BD" id="OLF" d="M130 297c0 2.295-12.62 3-15 3 0-2.029 9-1.384 9-6l4 1c0 1.747.253 2 2 2Z"/><path fill="#CAC8C7" id="lot" d="M130 297h3v-3l-5 1c0 1.747.253 2 2 2ZM324 297h3l1-2-5-1 1 3Z"/><path fill="#99D2BD" id="OLF" d="M327 297c0 2.101 11.82 3 14 3 0-1.893-9-1.596-9-6l-4 1-1 2ZM102 297l1 1-1-1ZM355 297l-1 1 1-1ZM104 298l1 1-1-1ZM353 298l-1 1 1-1ZM108 299l1 1-1-1ZM349 299l-2 1 2-1Z"/></svg>