<svg xmlns="http://www.w3.org/2000/svg" viewBox="0 0 456 320"><path fill="#1E9C59" id="MOs1" d="m227 52-5 2c0-2.425-2.753-6.126-4.5-7l-5-5c-8.352-4.176-16.418-2-25.5-2h-1v-5c12.786 0 28.488-3.524 35 9.5 1.272 2.543 6 3.245 6 7.5ZM229 52l5 2c0-2.168 2.899-5.4 4.5-7 9.544-9.544 18.473-7 31.5-7v-5c-12.494 0-28.74-3.02-35 9.5l-6 7.5Z"/><path fill="#1E9D5A" id="MOp1" d="M139 47c0 1.819-1 4.59-1 7l10.5-4c5.016-2.508 32.066-10 37.5-10v-5c-6.189 0-31.295 5.398-36.5 8-2.806 1.403-7.305 4-10.5 4ZM318 47c0 3.145 1 4.833 1 7l-10.5-4L270 40v-5c5.23 0 33.3 5.9 37.5 8 2.904 1.452 7.185 4 10.5 4Z"/><path fill="#1E9D58" id="MOs2/3" d="m222 55-6 3c0-14.326-25.737-5-31-5 0-4.636 2-8.92 2-13 9.082 0 17.148-2.176 25.5 2l5 5c1.747.874 4.5 4.575 4.5 7v1ZM240 58h1c0-14.387 24.159-5 30-5l-1-13c-13.027 0-21.956-2.544-31.5 7-1.601 1.6-4.5 4.832-4.5 7l6 4Z"/><path fill="#1F9C58" id="MOp2/3" d="M137 70v7l47-23 1-1c0-4.636 2-8.92 2-13h-1c-5.434 0-32.484 7.492-37.5 10L138 54c0 5.912-1 9.226-1 16ZM320 70c-1.714 0-1 5.594-1 7l-48-24-1-13 38.5 10 10.5 4c0 4.04 1 11.318 1 16Z"/><path fill="#197E64" id="SSp-ul1" d="m102 65 2 6c1.67 0 27.717-17 34-17 0-2.41 1-5.181 1-7-7.314 0-22.678 9.589-29.5 13l-7.5 5ZM352 71h1c0-1.424.362-5 2-5l-7.5-5c-6.762-3.38-22.348-14-29.5-14 0 3.145 1 4.833 1 7 2.721 0 23.8 10.3 26 12.5 1.367 1.367 7 1.955 7 4.5Z"/><path fill="#1F9D58" id="MOs5" d="M203 69c-3.388 0-8.31-4.095-12.5-2-3.156 1.578-5.742 5-9.5 5 0-5.896 3-10.918 3-18l1-1c5.263 0 31-9.326 31 5v1c-5.348 0-8.019 10-13 10ZM254 70c0-2.067 3.916-3 5.5-3 6.347 0 10.272 5 15.5 5 0-6.455-4-13.12-4-19-5.841 0-30-9.387-30 5 0 3.871 12 6.474 12 12h1Z"/><path fill="#3EA665" id="ACAd1" d="M223 80c3.642 0 8.002 1 11 1V54l-5-2c0 1.93-1.161 0-2 0l-5 2v1c1.684 0 1 4.68 1 6v19Z"/><path fill="#1E9C5A" id="MOp5" d="M319 77v15c-1.948 0-26.54-9.52-29.5-11-4.609-2.305-9.074-8-14.5-8v-1c0-6.455-4-13.12-4-19l48 24Z"/><path fill="#197F61" id="SSp-ul2/3" d="M110 82h1c0-1.928 23.003-12 26-12 0-6.774 1-10.088 1-16-6.283 0-32.33 17-34 17l3 5 3 6Z"/><path fill="#1E9C5A" id="MOp5" d="M137 77v15l33.5-13c3.348-1.674 6.569-6 10.5-6v-1c0-5.896 3-10.918 3-18l-47 23Z"/><path fill="#40A565" id="ACAd2/3" d="M234 81h5c0-7.62 1-16.035 1-23l-6-4v27Z"/><path fill="#197F61" id="SSp-ul2/3" d="M345 82h1l4-6 1-1 1-4c0-2.545-5.633-3.133-7-4.5-2.2-2.2-23.279-12.5-26-12.5 0 4.04 1 11.318 1 16 0 1.15 4.516 1.508 5.5 2 2.945 1.473 19.5 6.683 19.5 10Z"/><path fill="#40A565" id="ACAd2/3" d="M223 81c-2.124 0-4.436 1-6 1V64.5c0-1.278.665-5.5-1-5.5v-1l6-3c1.684 0 1 4.68 1 6v20Z"/><path fill="#3EA566" id="ACAd5" d="M251 88h1l1-18c0-5.526-12-8.129-12-12h-1c0 6.965-1 15.38-1 23v1l12 6ZM217 82l-12 6c0-6.406-2-12.21-2-18v-1c4.981 0 7.652-10 13-10 1.665 0 1 4.222 1 5.5V82Z"/><path fill="#1B8062" id="SSp-un1" d="M103 71h1l-2-6-3 2 4 4ZM353 71l1 1c0-2.364 3-3.053 3-5l-2-1c-1.638 0-2 3.576-2 5Z"/><path fill="#187E61" id="SSp-m1" d="M55 133c0 2.109 2.535 2 4 2 0-13.616 19.474-47.987 31.5-54 4.077-2.038 7.973-9 12.5-9v-1l-4-4c-4.465 0-9.376 8.438-12.5 10C71.675 84.412 55 117.694 55 133Z"/><path fill="#1D9C5A" id="MOs6a" d="m186 93-6 1c0-7.247 1-14.24 1-21v-1c3.758 0 6.344-3.422 9.5-5 4.19-2.095 9.112 2 12.5 2v1c-2.199 0-13 19.286-13 22-1.145 0-4-.58-4 1ZM266 92c3.894 0 6.605 2 10 2 0-1.807 2.566-7.369 1-10.5-1.179-2.359-2-7.918-2-10.5v-1c-5.228 0-9.153-5-15.5-5-1.584 0-5.5.933-5.5 3 0 2.684 12 15.183 12 22Z"/><path fill="#187E61" id="SSp-m1" d="M402 133c-1.624 0-2.75 2-5 2 0-12.275-8.802-25.104-14-35.5-2.093-4.186-8.283-7.566-10-11-2.494-4.988-13.431-15.5-19-15.5v-1c0-2.364 3-3.053 3-5 3.375 0 14.084 10.584 17 13.5 12.16 12.16 28 35.891 28 52.5Z"/><path fill="#1A7F63" id="SSp-ul4" d="M111 82c0 1.243 3.006 7 4 7 7.638 0 14.516-12 22-12v-7c-2.997 0-26 10.072-26 12Z"/><path fill="#3FA664" id="ACAd6a" d="M195 97h1c0-2.158 7.062-8 9-8v-1c0-6.406-2-12.21-2-18-2.199 0-13 19.286-13 22 2.362 0 5 2.638 5 5ZM265 93c-1.429 0-4 1.288-4 3l-9-8 1-18h1c0 2.684 12 15.183 12 22l-1 1Z"/><path fill="#1A7F63" id="SSp-ul4" d="M341 89h1c0-2.538 3-3.953 3-7 0-3.317-16.555-8.527-19.5-10-.984-.492-5.5-.85-5.5-2-1.714 0-1 5.594-1 7 6.615 0 15.976 12 22 12Z"/><path fill="#1C7F63" id="SSp-un2/3" d="M103 72c0 3.07 2.992 4 4 4l-3-5h-1v1ZM354 73l-3 2 1-4h1l1 1v1Z"/><path fill="#1A7E64" id="SSp-m2/3" d="m59 136 10 4c0-16.371 12.841-34.341 24-45.5 2.89-2.89 13.676-12.5 17-12.5l-3-6c-1.008 0-4-.93-4-4-4.527 0-8.423 6.962-12.5 9C78.474 87.013 59 121.384 59 135v1Z"/><path fill="#1F9B5A" id="MOp6a" d="M170 99c-11.474 0-21.523 13-33 13V92l33.5-13c3.348-1.674 6.569-6 10.5-6 0 6.76-1 13.753-1 21v1c-1.424 0-5 .362-5 2-1.622 0-5-.46-5 2ZM276 94l44 19c0-5.404-1-13.815-1-21-1.948 0-26.54-9.52-29.5-11-4.609-2.305-9.074-8-14.5-8 0 2.582.821 8.141 2 10.5 1.566 3.131-1 8.693-1 10.5Z"/><path fill="#1A7E64" id="SSp-m2/3" d="m397 136-9 4c0-12.184-14.675-41.088-26.5-47-5.069-2.534-9.6-11-15.5-11l4-6 1-1 3-2c5.569 0 16.506 10.512 19 15.5 1.717 3.434 7.907 6.814 10 11 5.198 10.396 14 23.225 14 35.5v1Z"/><path fill="#1C7F63" id="SSp-un2/3" d="m351 75-1 1 1-1Z"/><path fill="#187E62" id="SSp-ul5" d="M137 92c-5.721 0-10.187 7-16 7 0-1.305-4.933-9-6-9v-1c7.638 0 14.516-12 22-12v15ZM319 92l16 7c0-3.19 6-5.985 6-10-6.024 0-15.385-12-22-12v15Z"/><path fill="#40A664" id="ACAv1" d="m229 107 5 5V81c-2.998 0-7.358-1-11-1v1c0 10.742-1 21.854-1 32l5-6c0-2.564 2-2.564 2 0Z"/><path fill="#3FA566" id="ACAv2/3" d="m221 115-3 2-1-35c1.564 0 3.876-1 6-1 0 10.742-1 21.854-1 32l-1 2ZM235 115l3 1c0-10.57 1-22.758 1-34v-1h-5v31l1 3Z"/><path fill="#1B7F62" id="SSp-m4" d="m69 141 5 2c0-7.931 18.569-39.034 24.5-42 5.439-2.72 10.115-11 16.5-11v-1c-.994 0-4-5.757-4-7h-1c-3.324 0-14.11 9.61-17 12.5-11.159 11.159-24 29.129-24 45.5v1Z"/><path fill="#3EA666" id="ACAv5" d="M209 113c2.679 0 5.682 4 9 4l-1-35-12 6v1c0 8.983 4 16.044 4 24ZM247 113c0 1.638-9 4.847-9 3 0-10.57 1-22.758 1-34l12 6v13.5l-4 11.5Z"/><path fill="#1B7F62" id="SSp-m4" d="M382 143h1l5-3c0-12.184-14.675-41.088-26.5-47-5.069-2.534-9.6-11-15.5-11h-1c0 3.047-3 4.462-3 7 0 2.116 13.876 8.252 15 10.5l10 11c4.056 8.111 15 23.625 15 32.5Z"/><path fill="#40A564" id="ACAv6a" d="m249 112-2 1 4-11.5V88h1l9 8v1l-3.5 6c-2.177 2.177-7.5 5.26-7.5 8l-1 1ZM207 112l2 1c0-7.956-4-15.017-4-24-1.938 0-9 5.842-9 8 0 5.793 10 8.555 10 14l1 1Z"/><path fill="#1B7E63" id="SSp-m5" d="m382 143-11 4c0-13.82-20.682-47-36-47v-1c0-3.19 6-5.985 6-10h1c0 2.116 13.876 8.252 15 10.5l10 11c4.056 8.111 15 23.625 15 32.5ZM85 147h1c0-13.959 19.251-47 35-47v-1c0-1.305-4.933-9-6-9-6.385 0-11.061 8.28-16.5 11-5.931 2.966-24.5 34.069-24.5 42l11 4Z"/><path fill="#197D61" id="SSp-ul6a" d="m137 113-5 2c-1.58 0-8.949-15-11-15v-1c5.813 0 10.279-7 16-7v21Z"/><path fill="#1E9C58" id="MOs6b" d="M186 93h4v-1c-1.145 0-4-.58-4 1Z"/><path fill="#3FA466" id="ACAd6b" d="M190 93c2.813 0 3.461 4 5 4 0-2.362-2.638-5-5-5v1ZM265 93h1v-1l-1 1Z"/><path fill="#1E9C58" id="MOs6b" d="M276 94v1l-10-2v-1c3.894 0 6.605 2 10 2Z"/><path fill="#197D61" id="SSp-ul6a" d="m320 113 5 2 7-11.5 3-3.5v-1l-16-7c0 7.185 1 15.596 1 21Z"/><path fill="#1E9C58" id="MOs6b" d="M180 94v1c1.745 0 6 .698 6-2l-6 1Z"/><path fill="#CACCC7" id="cing" d="m206 111 1 1c-8.848 0-13.98-11.74-20.5-15-3.209-1.604-14.72 6-18.5 6l-6 1c0-2.809 8-1.879 8-5 1.424 0 5-.362 5-2 1.622 0 5 .46 5-2 1.745 0 6 .698 6-2h4c2.813 0 3.461 4 5 4 0 3.05 7.19 14 11 14Z"/><path fill="#3FA466" id="ACAd6b" d="M261 97h1l3-4c-1.429 0-4 1.288-4 3v1Z"/><path fill="#CACCC7" id="cing" d="m250 111-1 1c9.715 0 12.607-11.054 20.5-15 3.321-1.66 15.166 6 19.5 6l6 1c0-1.183-19-7.985-19-9l-10-2h-1l-3 4c0 3.645-7.844 14-12 14Z"/><path fill="#1D9D5A" id="MOp6b" d="M320 113v1c-8.751 0-16.225-10-25-10 0-1.183-19-7.985-19-9v-1l44 19ZM180 95c-1.424 0-5 .362-5 2 1.622 0 5 .46 5-2ZM175 97c-1.622 0-5-.46-5 2 1.424 0 5-.362 5-2Z"/><path fill="#C9C7C9" id="ccb" d="M356 165h1v-1l-1-1v-1l-1-2v-2l-2-4v-1l-2-4v-1c-1.881 0-5.15-8.8-6-10.5-2.838-5.676-13.228-15.364-19.5-18.5-9.112-4.556-18.929-7.464-28-12-1.642-.821-8.5-1.379-8.5-4-4.334 0-16.179-7.66-19.5-6-7.893 3.946-10.785 15-20.5 15l-2 1c0 1.638-9 4.847-9 3l-3-1c0 5.336-6.102 0-6.5 0-.697 0-7.5 5.147-7.5 0l-3 2c-3.318 0-6.321-4-9-4l-2-1c-8.848 0-13.98-11.74-20.5-15-3.209-1.604-14.72 6-18.5 6 0 1.998-5.174 2.337-6.5 3-5.747 2.874-12.312 4.156-18 7l-16 8c-2.9 1.45-3.974 6-7.5 6l-1 1c0 1.763-4.012 7-6 7 0 1.238-.423 3-2 3 0 1.238-.423 3-2 3l-1 2-1 2-1 2-1 2c0 1.048.473 3-1 3l-1 1v2l-1 2-1 2v4c1.586 0 4.223-8.945 5-10.5 3.732-7.463 9.574-21.037 18.5-25.5l20-10c4.241-2.121 9.69-1.845 14-4 6.121-3.061 19.495 1 25.5 1 2.601 0 11 1.908 11 5h1l1 1c0 2.574 9 3.876 9 8 2.404 0 16-.246 16 4 2.579 0 4.721-2 6.5-2 1.231 0 3.306 2 5.5 2 4.356 0 9.444-5 16-5 2.349 0 6.444-7 10-7l1-1h1l1-1 2-1c0-2.753 5.011-3 7-3 6.005 0 19.379-4.061 25.5-1 4.557 2.279 10.509 1.754 15 4l18 9c9.812 4.906 16.407 19.314 20.5 27.5.746 1.492 3.906 11.5 5 11.5Z"/><path fill="#40A465" id="ACAv6b" d="M196 97c0 5.793 10 8.555 10 14-3.81 0-11-10.95-11-14h1ZM262 97c0 3.645-7.844 14-12 14 0-2.74 5.323-5.823 7.5-8l3.5-6h1Z"/><path fill="#1D9D5A" id="MOp6b" d="M137 113v1c8.591 0 16.246-10 25-10 0-2.809 8-1.879 8-5-11.474 0-21.523 13-33 13v1Z"/><path fill="#187D61" id="SSp-m6a" d="M86 147c0 1.181 13.254 6 15 6 1.46 0 4.214-9.927 5-11.5 3.714-7.429 15.547-24.5 25-24.5l1-1v-1c-1.58 0-8.949-15-11-15-15.749 0-35 33.041-35 47ZM371 148c-5.873 0-10.491 5-16 5 0-7.663-21.15-37-30-37v-1l7-11.5 3-3.5c15.318 0 36 33.18 36 47v1Z"/><path fill="#C9C9CA" id="scwm" d="M131 117h1l5-3c8.591 0 16.246-10 25-10l6-1c0 1.998-5.174 2.337-6.5 3-5.747 2.874-12.312 4.156-18 7l-16 8c-2.9 1.45-3.974 6-7.5 6 0-4.458 11-7.249 11-10ZM324 117c7.113 0 27 24.588 27 31-1.881 0-5.15-8.8-6-10.5-2.838-5.676-13.228-15.364-19.5-18.5-9.112-4.556-18.929-7.464-28-12-1.642-.821-8.5-1.379-8.5-4l6 1c8.775 0 16.249 10 25 10l4 3Z"/><path fill="#7ED04B" id="IG" d="M221 115c0 5.147 6.803 0 7.5 0 .398 0 6.5 5.336 6.5 0l-1-3-5-5c0 2.488-2 1.919-2 0l-5 6-1 2Z"/><path fill="#1C8064" id="SSp-ul6b" d="M132 116v1l5-3v-1l-5 2v1Z"/><path fill="#98D5F9" id="CP" d="M123 231c2.864 0 5.35 4 9 4 14.471 0 36.352 2.795 44-12.5l1-7 2-3.5c0-1.722 6.255-11 8-11l2-4c0-1.041.986-5 2-5v-15.5c0-1.19-.614-4.5 1-4.5l1-14v-1l1-1v-2c0-6.426 1.728-17.044-1-22.5l-6-14.5-3-3c-6.005 0-19.379-4.061-25.5-1-4.31 2.155-9.759 1.879-14 4l-20 10c-8.926 4.463-14.768 18.037-18.5 25.5-.777 1.555-3.414 10.5-5 10.5v2l-1 1c0 1.741.773 11-1 11v4c1.781 0 1.348 6.197 2 7.5 2.768 5.537 6 16.211 6 22.5l4 8 1 1 1 2 6 6 4 3ZM333 232l-8 3c-13.868 0-36.715 3.07-44-11.5-1.336-2.673-.708-6.416-2-9l-2-2.5c0-1.901-6.067-12-8-12 0-1.238-.423-3-2-3l-1-4c0-5.998-1-13.358-1-20l-2-16v-2c0-5.94-2.947-15.606 0-21.5 2.19-4.38 6-11.459 6-16.5 1.539 0 3-1.342 3-3 6.005 0 19.379-4.061 25.5-1 4.557 2.279 10.509 1.754 15 4l18 9c9.812 4.906 16.407 19.314 20.5 27.5.746 1.492 3.906 11.5 5 11.5 0 1.048-.473 3 1 3v14.5c-3.3 6.6-6 16.733-6 24.5-1.473 0-1 1.952-1 3l-1 1-4 9-1 1-1 1-1 1-1 2-1 1-1 1-1 1-4 3-1 1Z"/><path fill="#1C8064" id="SSp-ul6b" d="m325 116-1 1-4-3v-1l5 2v1Z"/><path fill="#AAA8A9" id="SEZ" d="M187 117c3.354 0 5.291 2 8 2 0-3.092-8.399-5-11-5l3 3ZM265 117h4c1.539 0 3-1.342 3-3-1.989 0-7 .247-7 3Z"/><path fill="#188064" id="SSp-m6b" d="M131 117h1v-1l-1 1ZM354 154h1v-1c0-7.663-21.15-37-30-37l-1 1c7.113 0 27 24.588 27 31v1l2 4v1h1ZM102 155h1v-2l1-1c0-1.048-.473-3 1-3l1-2 1-2 1-2 1-2c0-1.238.423-3 2-3 0-1.238.423-3 2-3 0-1.763 4.012-7 6-7l1-1c0-4.458 11-7.249 11-10-9.453 0-21.286 17.071-25 24.5-.786 1.573-3.54 11.5-5 11.5v1l1 1Z"/><path fill="#A8AAAA" id="VL" d="M196 148c0 .986-1.087 6-2 6 0-6.426 1.728-17.044-1-22.5l-6-14.5c3.354 0 5.291 2 8 2h1l1 1c0 2.574 9 3.876 9 8 0 5.086-10 12.625-10 20Z"/><path fill="#AAA8A9" id="SEZ" d="m265 117-2 1 2-1Z"/><path fill="#A8AAAA" id="VL" d="M260 148c2.102 0 .058 7 3 7 0-5.94-2.947-15.606 0-21.5 2.19-4.38 6-11.459 6-16.5h-4l-2 1-1 1h-1l-1 1c-3.556 0-7.651 7-10 7 0 5.492 10 12.599 10 21Z"/><path fill="#AAA8A9" id="SEZ" d="m263 118-1 1 1-1ZM196 119l1 1-1-1ZM261 119l-1 1 1-1Z"/><path fill="#C9C9CA" id="scwm" d="m120 127-1 1 1-1Z"/><path fill="#90CBEC" id="LSc" d="m202 148-1 1-5-1c0-7.375 10-14.914 10-20 2.404 0 16-.246 16 4v2c0 2.553-14.131 9.815-16.5 11l-3.5 3ZM260 148c0 1.579-2.855 1-4 1l-3.5-3c-2.189-1.095-17.5-9.358-17.5-11l-1-3c4.356 0 9.444-5 16-5 0 5.492 10 12.599 10 21Z"/><path fill="#C9C9CA" id="scwm" d="M119 128c-1.988 0-6 5.237-6 7 1.988 0 6-5.237 6-7Z"/><path fill="#97D6F9" id="STR" d="M222 134c2.99 0 7.613-2.444 10.5-1l2.5 2-1-3c-2.194 0-4.269-2-5.5-2-1.779 0-3.921 2-6.5 2v2Z"/><path fill="#1A7E62" id="SSs1" d="m55 176-5 1c0-12.551-3.907-23.686 2-35.5.618-1.236 1.9-8.5 3-8.5 0 2.109 2.535 2 4 2v1c0 3.686-4.251 20.002-6 23.5-2.162 4.324 2 11.49 2 15.5v1Z"/><path fill="#90CAED" id="LSr" d="M236 197h1c0-3.416 19.423-21.461 22.5-23l4.5 1 1-2-2-16-7-8-3.5-3c-2.189-1.095-17.5-9.358-17.5-11l-2.5-2c-2.887-1.444-7.51 1-10.5 1 0 2.553-14.131 9.815-16.5 11l-3.5 3-1 1-7 7v1l-1 1-1 14c0 1.048-.473 3 1 3 0-4.462 9.17 3.67 10 4.5l13.5 12.5 3.5 5v-1c0-1.048-.473-3 1-3 0-11.099 4-21.11 4-32l1-2c0-1.174 1.217-11 2.5-11l.5 5.5 2 5.5v5l1 1 4 32Z"/><path fill="#1A7E62" id="SSs1" d="m402 176 4 1c0-5.894 5.233-17.034 2-23.5-1.027-2.055-6-18.652-6-20.5-1.624 0-2.75 2-5 2v1c2.357 0 1.264 6.029 2 7.5 5.14 10.28 3 21.056 3 32.5Z"/><path fill="#C9C9CA" id="scwm" d="M113 135c-1.577 0-2 1.762-2 3 1.577 0 2-1.762 2-3Z"/><path fill="#1B8063" id="SSs2/3" d="M55 175h8l2-1c0-8.774 2-17.694 2-24.5 0-1.392.833-8.5 2-8.5v-1l-10-4c0 3.686-4.251 20.002-6 23.5-2.162 4.324 2 11.49 2 15.5ZM401 176h1c0-11.444 2.14-22.22-3-32.5-.736-1.471.357-7.5-2-7.5l-9 4c0 11.369 4 21.862 4 34v1h1c1.49 0 8-.735 8 1Z"/><path fill="#C9C9CA" id="scwm" d="M111 138c-1.577 0-2 1.762-2 3 1.577 0 2-1.762 2-3Z"/><path fill="#187C63" id="SSs4" d="m387 173 5 1c0-12.138-4-22.631-4-34l-5 3c0 8.684 4 19.133 4 30ZM69 173l-4 1c0-8.774 2-17.694 2-24.5 0-1.392.833-8.5 2-8.5l5 2-3 9.5-2 20.5Z"/><path fill="#C9C9CA" id="scwm" d="m109 141-1 2 1-2Z"/><path fill="#1C8063" id="SSs5" d="m83 171-14 2 2-20.5 3-9.5 11 4c0 8.169-2 15.294-2 24Z"/><path fill="#C9C9CA" id="scwm" d="m108 143-1 2 1-2Z"/><path fill="#1C8063" id="SSs5" d="m374 171 13 2c0-10.867-4-21.316-4-30h-1l-11 4v1c0 7.258 3 15.278 3 23Z"/><path fill="#C9C9CA" id="scwm" d="m107 145-1 2 1-2Z"/><path fill="#197D63" id="SSs6a" d="m97 169-14 2c0-8.706 2-15.831 2-24h1c0 1.181 13.254 6 15 6v1c0 4.75-4 10.028-4 15Z"/><path fill="#C9C9CA" id="scwm" d="m106 147-1 2 1-2Z"/><path fill="#97D6F9" id="STR" d="M194 154v2l7-7-5-1c0 .986-1.087 6-2 6ZM202 148l-1 1 1-1ZM226 159l2.5-2 2.5 2-2-5.5-.5-5.5c-1.283 0-2.5 9.826-2.5 11ZM263 155v2l-7-8c1.145 0 4 .579 4-1 2.102 0 .058 7 3 7Z"/><path fill="#197D63" id="SSs6a" d="M359 169c5.5 0 9.257 2 15 2 0-7.722-3-15.742-3-23-5.873 0-10.491 5-16 5v1c0 4.604 4 9.64 4 15Z"/><path fill="#C9C9CA" id="scwm" d="M105 149c-1.473 0-1 1.952-1 3 1.473 0 1-1.952 1-3ZM351 149l2 4-2-4ZM104 152l-1 1 1-1Z"/><path fill="#1A8061" id="SSs6b" d="M97 169h2c0-1.048-.473-3 1-3v-3l1-2v-2l1-2v-2l-1-1c0 4.75-4 10.028-4 15Z"/><path fill="#C9C9CA" id="scwm" d="m354 154 1 4-2-4h1Z"/><path fill="#1A8061" id="SSs6b" d="M358 169h1c0-5.36-4-10.396-4-15h-1l1 4v2l1 2v1l1 1v5h1Z"/><path fill="#C9C9CA" id="scwm" d="m103 155-1 2v-2h1Z"/><path fill="#A8AAAA" id="VL" d="M193 157h1v-1l-1 1Z"/><path fill="#C9C9CA" id="scwm" d="m102 157-1 2 1-2Z"/><path fill="#97D6F9" id="STR" d="m194 157-1 1v-1h1Z"/><path fill="#96A7D3" id="MS" d="M231 240v1l-2-1c0-4.427-2-1.868-2 1-1.874 0-5-5.55-5-7 0-1.698-1.195-5.89-2-7.5V196c1.473 0 1-1.952 1-3 0-11.099 4-21.11 4-32l1-2 2.5-2 2.5 2v5l1 1 4 32v9c0 9.266-1 17.859-1 27l-1 3-1 1v1l-1 1-1 1Z"/><path fill="#97D6F9" id="STR" d="m226 159-1 2 1-2Z"/><path fill="#C9C9CA" id="scwm" d="m355 160 1 2-1-2ZM100 163h1v-2l-1 2Z"/><path fill="#C9C7C9" id="ccb" d="M100 165h1v-2h-1v2Z"/><path fill="#C9C9CA" id="scwm" d="m356 163 1 1-1-1Z"/><path fill="#97D6F9" id="STR" d="m231 164 1 1-1-1Z"/><path fill="#C8CBCC" id="ec" d="m101 165-1 1v-1h1ZM357 165v3c-1.473 0-1-1.952-1-3h1ZM99 169v8c1.773 0 1-9.259 1-11-1.473 0-1 1.952-1 3Z"/><path fill="#009B74" id="GU6a" d="M83 189h1c4.884 0 8.126-4 13-4v-16l-14 2v18Z"/><path fill="#019C74" id="GU6b" d="M97 185h1l1-1v-15h-2v16Z"/><path fill="#C8CBCC" id="ec" d="m353 206-2 1c0-7.767 2.7-17.9 6-24.5V169h1v15c-1.684 0-1 4.679-1 6v1l-1 2c-1.473 0-1 1.952-1 3-1.663 0-2 5.407-2 7v3Z"/><path fill="#019C74" id="GU6b" d="M358 184h1v-15h-1v15Z"/><path fill="#009B74" id="GU6a" d="M359 185c4.616 0 8.546 4 14 4l1-18c-5.743 0-9.5-2-15-2v16Z"/><path fill="#019C75" id="GU5" d="M80 193c-3.423 0-6.474 2-9 2 0-2.613-.93-4.36-2-6.5V173l14-2v18c0 2.349-3 1.382-3 4ZM377 193l8 1c.843 0 2-3.646 2-4.5V173l-13-2-1 18v1c1.429 0 4 1.288 4 3Z"/><path fill="#A8AAAA" id="VL" d="M191 192c0 4.513.362 1 2 1v-18c-1.473 0-1-1.952-1-3-1.614 0-1 3.31-1 4.5V192Z"/><path fill="#009C74" id="GU4" d="M69 195h2c0-2.613-.93-4.36-2-6.5V173l-4 1c0 7.886 4 13.956 4 21Z"/><path fill="#A8AAAA" id="VL" d="M263 193h3c0-5.998-1-13.358-1-20l-1 2c0 5.996-1 12.639-1 18Z"/><path fill="#009C74" id="GU4" d="M385 195h2l4-11.5c.743-1.487-1.308-8.5 1-8.5v-1l-5-1v16.5c0 .854-1.157 4.5-2 4.5v1Z"/><path fill="#009B75" id="GU2/3" d="m69 195-8 2-6-19v-1c1.552 0 8-.566 8-2l2-1c0 7.886 4 13.956 4 21Z"/><path fill="#8FCBED" id="LSv" d="M204 203c3.647 0 7.288 6.394 10.5 8 3.269 1.634 3.957-3 5.5-3v-11l-3.5-5-13.5-12.5c-.83-.83-10-8.962-10-4.5v18l2 4c2.968 0 4.633 4 7 4l1 1 1 1ZM253 203c-4.885 0-7.723 6.112-11.5 8-3.694 1.847-4.032-5-5.5-5v-7l1-2c0-3.416 19.423-21.461 22.5-23l4.5 1c0 5.996-1 12.639-1 18l-2 4-4 2-1 1-3 3Z"/><path fill="#12AC83" id="VISC2/3" d="M55 176v1c1.552 0 8-.566 8-2h-8v1Z"/><path fill="#009B75" id="GU2/3" d="M395 197h1c0-6.893 5-12.788 5-20-1.552 0-8-.566-8-2h-1c-2.308 0-.257 7.013-1 8.5l-4 11.5 8 2Z"/><path fill="#12AC83" id="VISC2/3" d="M401 176v1c-1.552 0-8-.566-8-2 1.49 0 8-.735 8 1Z"/><path fill="#12AD83" id="VISC1" d="m55 178-4 1-1-2 5-1v2ZM406 177l-1 2-4-2v-1h1l4 1Z"/><path fill="#009C75" id="GU1" d="m396 197 3 2c0-6.771 6-12.82 6-20l-4-2c0 7.212-5 13.107-5 20ZM57 198h4v-1l-6-19-4 1 6 19Z"/><path fill="#C8CBCC" id="ec" d="m106 210 1 1c0-6.289-3.232-16.963-6-22.5-.652-1.303-.219-7.5-2-7.5v8c0 1.624 2 2.75 2 5v1c2.273 0 2 5.226 2 7v1c1.579 0 1 2.855 1 4l2 3Z"/><path fill="#1F9766" id="AId6b" d="M98 185c0 1.145-.58 4 1 4v-5l-1 1ZM357 190h1l1-5v-1h-1c-1.684 0-1 4.679-1 6Z"/><path fill="#209666" id="AId6a" d="M89 205h5c0-2.06-3.756-19.128 4.5-15l2.5 4c0-2.25-2-3.376-2-5-1.58 0-1-2.855-1-4h-1c-4.874 0-8.116 4-13 4 0 6.177 5 10.596 5 16ZM363 205h4c0-4.746 6-9.935 6-15v-1c-5.454 0-9.384-4-14-4l-1 5c8.798 0 5 9.372 5 15Z"/><path fill="#209665" id="AId5" d="M85 205h4c0-5.404-5-9.823-5-16h-1c0 2.349-3 1.382-3 4 0 3.339 3.6 12 5 12Z"/><path fill="#8ADA86" id="CLA" d="m101 208-2 1c-2.813 0-3.461-4-5-4 0-2.06-3.756-19.128 4.5-15l2.5 4v1c0 1.296.825 7 2 7v1l-1 4-1 1ZM357 209h1l5-4c0-5.628 3.798-15-5-15h-1v1l-1 2c0 1.048.473 3-1 3l-1 7v4l2 1 1 1Z"/><path fill="#209665" id="AId5" d="m367 205 5 1c0-1.379 3.357-13 5-13 0-1.712-2.571-3-4-3 0 5.065-6 10.254-6 15Z"/><path fill="#209666" id="AId6a" d="m357 191-1 2 1-2Z"/><path fill="#97D6F9" id="STR" d="M189 197h6l-2-4c-1.638 0-2 3.513-2-1-1.014 0-2 3.959-2 5Z"/><path fill="#219864" id="AIp5" d="m87 214-4 1c0-4.262-12-13.948-12-20 2.526 0 5.577-2 9-2 0 3.339 3.6 12 5 12 0 3.519 2 5.843 2 9Z"/><path fill="#97D6F9" id="STR" d="M221 193c-1.473 0-1 1.952-1 3 1.473 0 1-1.952 1-3ZM261 197h6l-1-4h-3l-2 4Z"/><path fill="#209666" id="AId6a" d="M356 193c-1.473 0-1 1.952-1 3 1.473 0 1-1.952 1-3Z"/><path fill="#219864" id="AIp5" d="m369 214 5 1c0-6.5 11-12.222 11-20v-1l-8-1c-1.643 0-5 11.621-5 13l-3 8Z"/><path fill="#209865" id="AIp2/3" d="m83 215-12 4-10-21v-1l8-2h2c0 6.052 12 15.738 12 20Z"/><path fill="#209666" id="AId6a" d="M101 195c2.273 0 2 5.226 2 7-1.175 0-2-5.704-2-7Z"/><path fill="#209865" id="AIp2/3" d="M374 215c0 .885 9.683 4 11 4 0-7.487 10-14.104 10-22l-8-2h-2c0 7.778-11 13.5-11 20Z"/><path fill="#209666" id="AId6a" d="M353 203h1l1-7c-1.663 0-2 5.407-2 7Z"/><path fill="#B3C0DE" id="BST" d="m199 229-5.5 2-8.5-1c0-1.819-1-4.591-1-7h1c6.927 0 17.315-10.092 7.5-15-1.956-.978-4.077 1-5.5 1v-8l2-4h6c2.968 0 4.633 4 7 4l1 1 1 1 2 10c0 2.707-1 5.903-1 8l-3 6-3 2Z"/><path fill="#97D6F9" id="STR" d="m237 197-1 2v-2h1Z"/><path fill="#B3C0DE" id="BST" d="m254 227 8.5 4c3.503 1.752 6.921-2 9.5-2v-7l-4.5 1c-7.732-3.866-10.083-15 1.5-15v-8c0-1.238-.423-3-2-3h-6l-4 2-1 1-3 3c0 3.548-3 7.721-3 12l1 6 3 6Z"/><path fill="#219765" id="AIp1" d="m385 219 4 2c1.988 0 2.408-3.315 3-4.5 2.239-4.479 7-12.459 7-17.5l-3-2h-1c0 7.896-10 14.513-10 22ZM71 219l-4 2-3-5.5c-2.143-4.287-7-12.757-7-17.5h4l10 21Z"/><path fill="#97D6F9" id="STR" d="m257 199-1 1 1-1ZM277 212c-2.747 0-3 .253-3 3l-5-7v-8c1.933 0 8 10.099 8 12ZM179 212l4 1 4-4v-8c-1.745 0-8 9.278-8 11ZM202 201l1 1-1-1Z"/><path fill="#1F9866" id="AIv6a" d="M102 207h2c0-1.145.579-4-1-4l-1 4Z"/><path fill="#97D6F9" id="STR" d="M206 213c2.064 0 .426 3.353 1 4.5.853 1.706 14.031 16.5 15 16.5 0-1.698-1.195-5.89-2-7.5V208c-1.543 0-2.231 4.634-5.5 3-3.212-1.606-6.853-8-10.5-8l2 10ZM250 215c-2.205 0-.002 3.251-1.5 4-3.302 1.651-8.517 14-13.5 14 0-9.141 1-17.734 1-27 1.468 0 1.806 6.847 5.5 5 3.777-1.888 6.615-8 11.5-8 0 3.548-3 7.721-3 12Z"/><path fill="#1F9866" id="AIv6a" d="m353 206 1 1v-4h-1v3Z"/><path fill="#1F9865" id="AIv5" d="M87 214h1l4-2-3-7h-4c0 3.519 2 5.843 2 9Z"/><path fill="#1F9866" id="AIv6a" d="m97 211-5 1-3-7h5c1.539 0 2.187 4 5 4l-1 1-1 1ZM358 209c0 2.282 5.29 3 7 3l2-7h-4l-5 4Z"/><path fill="#1F9865" id="AIv5" d="M368 214h1l3-8-5-1-2 7 3 2Z"/><path fill="#8AD987" id="CTXsp" d="M351 209h5v-1l-2-1-1-1-2 1v2Z"/><path fill="#1F9866" id="AIv6a" d="M101 208h1v-1l-1 1Z"/><path fill="#8AD987" id="CTXsp" d="m102 208 4 2-2-3h-2v1Z"/><path fill="#C8CBCC" id="ec" d="m351 209-1 1c0-1.048-.473-3 1-3v2Z"/><path fill="#1F9866" id="AIv6a" d="M99 209h2v-1l-2 1Z"/><path fill="#8AD987" id="CTXsp" d="m102 208-1 1v-1h1Z"/><path fill="#A0EE9C" id="EPd" d="M116 227c0 2.109-2.535 2-4 2-3.091 0-5.478-2-8-2h-1l-1-1-2-1-3-3v-11l1-1 1-1h2l1-1 4 2 1 1 4 8 1 1 1 2 3 5Z"/><path fill="#CBCBC7" id="aco" d="m184 222 1 1c6.927 0 17.315-10.092 7.5-15-1.956-.978-4.077 1-5.5 1l-4 4-1 5.5 2 3.5ZM274 215c0 2.765-2 5.165-2 7l-4.5 1c-7.732-3.866-10.083-15 1.5-15l5 7Z"/><path fill="#A0EE9C" id="EPd" d="M348 229h1l2-1 2-1h1l1-1 1-1 1-1 1-1 1-1 2-7.5-4-5.5h-6l-1 1-1 1-4 9-1 1-1 1-1 1-1 2v1c0 2.747.253 3 3 3h4Z"/><path fill="#1F9866" id="AIv6a" d="M356 209h1l-1-1v1Z"/><path fill="#99D2BD" id="OLF" d="M368 214c-4.052 0-6.166 8-9 8l2-7.5-4-5.5h1c0 2.282 5.29 3 7 3l3 2ZM98 210l-1 1 1-1Z"/><path fill="#C8CBCC" id="ec" d="m350 210-1 1 1-1Z"/><path fill="#99D2BD" id="OLF" d="M88 214c4.385 0 5.765 7 9 7v-10l-5 1-4 2Z"/><path fill="#80CDF8" id="ACB" d="m135 255 1 1c1.518 0 13.145 8.677 20.5 5 7.497-3.749 11.517-10.259 19-14 2.293-1.146 8.5-5.382 8.5-8l1-9c0-1.819-1-4.591-1-7v-1l-2-3.5 1-5.5-4-1-2 3.5-1 7c-7.648 15.295-29.529 12.5-44 12.5 0 1.457-3 1.46-3 4l6 16ZM321 256l-1 1c-5.245 0-12.404 7.548-19.5 4-6.436-3.218-11.814-9.907-18-13-1.916-.958-9.5-5.203-9.5-8 0-2.998-1-7.358-1-11v-7c0-1.835 2-4.235 2-7 0-2.747.253-3 3-3l2 2.5c1.292 2.584.664 6.327 2 9 7.285 14.57 30.132 11.5 44 11.5 0 1.457 3 1.46 3 4-1.183 0-1.535 3.57-2 4.5l-5 12.5Z"/><path fill="#E64438" id="HY" d="M201 245c3.578 0 3.993 2 5 2 2.293 0 10.258-21.984 17-8.5l3 4.5c.922 0 3 3.276 3 1-1.577 0-2-1.762-2-3-1.874 0-5-5.55-5-7-.969 0-14.147-14.794-15-16.5-.574-1.147 1.064-4.5-1-4.5 0 2.707-1 5.903-1 8 3.894 0 2.58 11-2 11 0 4.763-2 8.728-2 13Z"/><path fill="#6ACAB9" id="PIR" d="M118 265h2l6-4 1-1c0-6.76 3.898-9.705 0-17.5-3.177-6.355-12.24-9.87-17.5-12.5-1.311-.656-5.5-.797-5.5-3h-1l-1-1-2-1-3-3v-1c-3.235 0-4.615-7-9-7h-1l-4 1-12 4-4 2c0 7.642 13.119 21.619 19 27.5l9 7.5 17.5 4 5.5 5ZM336 265h3c0-6.318 18.975-8 23-8l9-8.5c4.23-8.461 18-16.482 18-27.5l-4-2c-1.317 0-11-3.115-11-4l-5-1h-1c-4.052 0-6.166 8-9 8l-1 1-1 1-1 1-1 1-1 1h-1l-2 1-2 1h-1c0 1.235-15.036 7.573-17 11.5-2.345 4.689-5.759 10.482-3 16l2 4.5c2.784 0 4.47 4 6 4Z"/><path fill="#E64438" id="HY" d="M250 247h1c0-3.248 2.366-2 4-2l-2-13c-3.633 0-6.146-11-2-11l-1-6c-2.205 0-.002 3.251-1.5 4-3.302 1.651-8.517 14-13.5 14l-1 3c1.602 0 2.384-3.058 4.5-2 3.47 1.735 11.5 8.922 11.5 13Z"/><path fill="#C8CBCC" id="ec" d="m111 219 1 1-1-1ZM345 220l-1 1 1-1Z"/><path fill="#FD5446" id="PS" d="m202 230 1 2c4.58 0 5.894-11 2-11l-3 6v3ZM254 231l-1 1c-3.633 0-6.146-11-2-11l3 6 1 2-1 2Z"/><path fill="#C8CBCC" id="ec" d="m344 221-1 1 1-1Z"/><path fill="#99D2BD" id="OLF" d="m97 222 3 3-3-3Z"/><path fill="#C8CBCC" id="ec" d="m116 227 3 1-6-6 3 5Z"/><path fill="#E64438" id="HY" d="M184 223h1l-1-1v1Z"/><path fill="#C8CBCC" id="ec" d="m342 223-1 2 1-2Z"/><path fill="#99D2BD" id="OLF" d="m358 223-1 1 1-1Z"/><path fill="#C8CBCC" id="ec" d="M340 226h1v-1l-1 1Z"/><path fill="#99D2BD" id="OLF" d="m356 225-1 1 1-1ZM102 226l1 1-1-1Z"/><path fill="#C8CBCC" id="ec" d="m340 226-1 1 1-1Z"/><path fill="#8AD987" id="CTXsp" d="m333 232 1 2c2.115 0 10-2.443 10-5-2.747 0-3-.253-3-3h-1l-1 1-1 1-4 3-1 1Z"/><path fill="#99D2BD" id="OLF" d="m355 226-1 1 1-1ZM135 257c-3.054 0-4.55 3-8 3 0-6.76 3.898-9.705 0-17.5-3.177-6.355-12.24-9.87-17.5-12.5-1.311-.656-5.5-.797-5.5-3 2.522 0 4.909 2 8 2 0 2.87 8.725 5 11 5l6 5 6 16v2Z"/><path fill="#8AD987" id="CTXsp" d="M123 231v3c-2.275 0-11-2.13-11-5 1.465 0 4 .109 4-2l3 1 4 3Z"/><path fill="#E64438" id="HY" d="m199 229 3 1v-3l-3 2ZM272 229c0 3.642 1 8.002 1 11-6.125 0-13.306-11-18-11l-1-2 8.5 4c3.503 1.752 6.921-2 9.5-2Z"/><path fill="#C8CBCC" id="ec" d="m339 227-1 1 1-1Z"/><path fill="#99D2BD" id="OLF" d="m353 227-2 1 2-1ZM351 228l-2 1 2-1Z"/><path fill="#E64438" id="HY" d="m185 230-1 9c3.129 0 15-5.704 15-10l-5.5 2-8.5-1Z"/><path fill="#A2B1D7" id="SI" d="M183 275v1c-10.251 0-25.642 5.929-35.5 1-5.293-2.647-9.646-7.323-15-10l-5.5-6v-1c3.45 0 4.946-3 8-3l1-1c1.518 0 13.145 8.677 20.5 5 7.497-3.749 11.517-10.259 19-14 2.293-1.146 8.5-5.382 8.5-8 3.129 0 15-5.704 15-10l3 1 1 2c0 4.763-2 8.728-2 13 0 6.728-15 19.469-15 21l-1 1c-4.255 0-7.046 8-2 8ZM274 275v1c6.953 0 25.385 5.057 31.5 2 4.4-2.2 8.513-4.756 13-7l10.5-10-8-4h-1c-5.245 0-12.404 7.548-19.5 4-6.436-3.218-11.814-9.907-18-13-1.916-.958-9.5-5.203-9.5-8-6.125 0-13.306-11-18-11l-1 2-1 1 2 13c0 2.342 11.92 20 15 20l2 2c3.549 0 5.559 8 2 8Z"/><path fill="#99D2BD" id="OLF" d="M329 261h1l-2-4.5c-2.759-5.518.655-11.311 3-16 1.964-3.927 17-10.265 17-11.5h-4c0 2.557-7.885 5-10 5-2.959 0-3.952 5-6 5-1.183 0-1.535 3.57-2 4.5l-5 12.5v1l8 4Z"/><path fill="#97D6F9" id="STR" d="M132 235c0 1.457-3 1.46-3 4l-6-5v-3c2.864 0 5.35 4 9 4Z"/><path fill="#E64438" id="HY" d="m254 231-1 1 1-1Z"/><path fill="#97D6F9" id="STR" d="m334 231-1 1 1-1ZM325 235c0 1.457 3 1.46 3 4 2.048 0 3.041-5 6-5l-1-2-8 3Z"/><path fill="#FF5346" id="MPO" d="m214 264-5 1c0-5.736-.264-6-6-6 0-3.998 3-7.473 3-12 2.293 0 10.258-21.984 17-8.5l3 4.5c-3.961 0-6.251 13-9 13-2.456 0-3.911 4.795-7.5 3-4.184-2.092 5.408-11.684 7.5-7.5v4.5c0 3.238-3 5.3-3 8Z"/><path fill="#FF5346" id="MPO" fill-rule="evenodd" d="m240 251-1 3.5c5.836 11.672 13.523-3.5 1-3.5m2 13 5 1c0-5.173.827-6 6-6v-1c0-3.255-2-6.058-2-10l-1-1c0-4.078-8.03-11.265-11.5-13-2.116-1.058-2.898 2-4.5 2l-1 1v1l-1 1-1 1v3c0 1.761 11 15.108 11 21Z"/><path fill="#E64438" id="HY" d="m234 236-1 1 1-1ZM233 238l-1 1 1-1ZM232 239l-1 1 1-1ZM229 243h2v-2l-2-1v3Z"/><path fill="#FE5446" id="AVPV" d="M231 269c0 1.988 9.265 3 11 3v-8c0-5.892-11-19.239-11-21h-2v1c0 2.276-2.078-1-3-1-3.961 0-6.251 13-9 13 0 3.238-3 5.3-3 8l-1 6.5 2 1.5c1.698 0 10-1.069 10-3l2-13c0-6.666 2-4.597 2 0l2 13Z"/><path fill="#F2473B" id="LPO" d="m186 266 2 1 14-7 1-1c0-3.998 3-7.473 3-12-1.007 0-1.422-2-5-2 0 6.728-15 19.469-15 21ZM270 265c0 1.747-.253 2-2 2l-14-7v-1l-1-1c0-3.255-2-6.058-2-10v-1c0-3.248 2.366-2 4-2 0 2.342 11.92 20 15 20Z"/><path fill="#CBCCCB" id="mfb" d="M251 247v1l-1-1h1Z"/><path fill="#FE5447" id="AVP" d="M217 256v-4.5c-2.092-4.184-11.684 5.408-7.5 7.5 3.589 1.795 5.044-3 7.5-3Z"/><path fill="#FF5445" id="MEPO" d="M227 256h2c0-4.597-2-6.666-2 0Z"/><path fill="#FE5447" id="AVP" d="m240 251-1 3.5c5.836 11.672 13.523-3.5 1-3.5Z"/><path fill="#97D6F9" id="STR" d="m136 256-1 1v-2l1 1Z"/><path fill="#CAC8C7" id="lot" d="M116 271h1l2-2v-1c-1.473 0-1-1.952-1-3l-5.5-5-17.5-4c0 2.584 18.604 15 21 15Z"/><path fill="#FD5447" id="OV" d="M225 269h6l-2-13h-2l-2 13Z"/><path fill="#97D6F9" id="STR" d="M320 257h1v-1l-1 1Z"/><path fill="#CAC8C7" id="lot" d="M339 271h1c2.201 0 14.099-8.3 17.5-10l4.5-4c-4.025 0-23 1.682-23 8l-1 3v2l1 1Z"/><path fill="#CBCCCB" id="mfb" d="M253 259h1l-1-1v1ZM203 259l-1 1 1-1Z"/><path fill="#96A6D3" id="NDB" d="m205 274-5 3c-2.02 0-13 1.062-13-3 0-2.153 1-4.722 1-7l14-7 1-1c5.736 0 6 .264 6 6 0 3.354-2 5.291-2 8h-1l-1 1ZM256 277h1c5.694 0 10.511-3 13-3 0-2.765-2-5.165-2-7l-14-7-1-1c-5.173 0-6 .827-6 6 0 3.303 2 5.115 2 8h1l1 1 4 2 1 1Z"/><path fill="#E64438" id="HY" d="M254 259v1l-1-1h1Z"/><path fill="#99D2BD" id="OLF" d="M126 261h1v-1l-1 1Z"/><path fill="#7FCCF7" id="OT" d="M184 276c3.587 0 9 3.103 9 7 0 11.651-14.855 9.678-21.5 13-13.78 6.89-37.492 3.516-44.5-10.5-2.05-4.101-8-6.614-8-11.5v-6l1-3 6-4h1l5.5 6c5.354 2.677 9.707 7.353 15 10 9.858 4.929 25.249-1 35.5-1h1ZM273 276h1c6.953 0 25.385 5.057 31.5 2 4.4-2.2 8.513-4.756 13-7l10.5-10h1c2.784 0 4.47 4 6 4l2 3v5l-1 2c0 4.144-7.984 12.242-11.5 14-2.01 1.005-4.293 4.646-7 6-10.588 5.294-22.791 6.605-34 1-7.185-3.592-20.5-1.003-20.5-13 0-4.074 5.224-7 9-7Z"/><path fill="#E64438" id="HY" d="m215 272-8 1c0-2.709 2-4.646 2-8l5-1-1 6.5 2 1.5ZM242 272l7 1c0-2.885-2-4.697-2-8l-5-1v8Z"/><path fill="#99D2BD" id="OLF" d="m120 265-1 3c-1.473 0-1-1.952-1-3h2Z"/><path fill="#E64438" id="HY" d="m270 274 2 1c0-.981-2.681-8 0-8l-2-2c0 1.747-.253 2-2 2 0 1.835 2 4.235 2 7Z"/><path fill="#99D2BD" id="OLF" d="m339 265-1 3-2-3h3Z"/><path fill="#E64438" id="HY" d="m187 274-2 1v-8l1-1 2 1c0 2.278-1 4.847-1 7Z"/><path fill="#A2B1D8" id="MA" d="M184 275h1v-8c-4.255 0-7.046 8-2 8h1ZM273 275h1c3.559 0 1.549-8-2-8-2.681 0 0 7.019 0 8h1Z"/><path fill="#97D6F9" id="STR" d="m117 272 2 2v-5l-2 2v1ZM339 272l-1 1v-3l1 1v1Z"/><path fill="#99D2BD" id="OLF" d="M117 271v1l-1-1h1ZM340 271l-1 1v-1h1Z"/><path fill="#E64438" id="HY" d="m206 273-1 1 1-1ZM250 273l1 1-1-1Z"/><path fill="#97D6F9" id="STR" d="m338 273-1 2 1-2Z"/><path fill="#8599CC" id="PAL" d="M200 277c0 1.59-5.662 6-7 6 0-3.897-5.413-7-9-7v-1h1l2-1c0 4.062 10.98 3 13 3ZM257 277c0 2.109 4.46 6 7 6 0-4.074 5.224-7 9-7v-1h-1l-2-1c-2.489 0-7.306 3-13 3Z"/><path fill="#E64438" id="HY" d="M183 276h1v-1h-1v1Z"/><path fill="#CBCCC7" id="IIn" d="m216 284-1 1-5 1c-10.759 0 8.118-16.264 11-10.5 1.632 3.263-3 3.795-3 6.5l-1 1-1 1ZM240 283l2 2c1.423 0 3.544 1.978 5.5 1 5.575-2.788-3.628-9.814-6-11-8.709-4.354-6.158 8-1.5 8Z"/><path fill="#E64438" id="HY" d="M273 276h1v-1h-1v1Z"/><path fill="#8599CC" id="PAL" d="m255 276 1 1-1-1Z"/><path fill="#CAC7CB" id="fiber tracts" d="m218 282-1 1 1-1ZM217 283l-1 1 1-1ZM240 283l2 2-2-2ZM216 284l-1 1 1-1Z"/></svg>