<svg xmlns="http://www.w3.org/2000/svg" viewBox="0 0 456 320"><path fill="#1E9C59" id="MOs1" d="M220 63h1l4-2-5-6.5c-5.733-11.466-26.433-15.034-37.5-9.5-2.077 1.038-18.5 2.838-18.5 5l1 6c7.79 0 29.281-11.61 38.5-7 3.46 1.73 6.421 4.21 10 6 2.275 1.138 6.5 5.063 6.5 8ZM232 60c0 1.712 2.571 3 4 3 0-4.21 6.465-8.483 9.5-10 10.188-5.094 27.64-5.18 38 0l8.5 3v-7c-4.063 0-8.994-2.247-12.5-4-4.866-2.433-23.833-2.584-29 0-4.226 2.113-9.062 1.624-11.5 6.5l-7 8.5Z"/><path fill="#1E9D58" id="MOs2/3" d="M214 67h1l5-4c0-2.937-4.225-6.862-6.5-8-3.579-1.79-6.54-4.27-10-6-9.219-4.61-30.71 7-38.5 7l-1 1c.721 0 0 3.814 0 5.5 0 3.483 1 7.656 1 10.5 8.301 0 25.342-18.579 38.5-12 2.436 1.218 10.5 1.146 10.5 6ZM242 67l3.5-4c3.267-1.633 12.744-5.128 17-3l10 3c5.213 2.607 13.617 10 19.5 10V56l-8.5-3c-10.36-5.18-27.812-5.094-38 0-3.035 1.517-9.5 5.79-9.5 10v1l6 3Z"/><path fill="#1E9D5A" id="MOp1" d="M352 81c0 1.819 1 4.59 1 7-4.823 0-10.232-7.866-14.5-10-10.765-5.383-35.14-21-46.5-21v-8c3.087 0 8.645 4.572 11.5 6 10.803 5.402 22.067 10.534 33 16L352 81ZM104 82v6l15.5-11c10.005-5.002 34.079-20 44.5-20l1-1-1-6c-8.803 0-37.186 18.343-46.5 23-2.171 1.086-13.5 6.526-13.5 9Z"/><path fill="#1F9C58" id="MOp2/3" d="M105 105c.275 0 2 5.939 2 8l11.5-12c10.399-5.2 34.761-27 45.5-27l1-1c0-2.844-1-7.017-1-10.5 0-1.686.721-5.5 0-5.5-10.421 0-34.495 14.998-44.5 20L104 88v1l1 16ZM351 105l-2 8-16.5-17c-6.999-3.5-12.898-9.449-20-13-2.048-1.024-4.992-.996-7-2-3.989-1.995-7.812-7-12.5-7l-1-1V57c11.36 0 35.735 15.617 46.5 21 4.268 2.134 9.677 10 14.5 10v1c0 6.357-2 9.559-2 16Z"/><path fill="#1F9D58" id="MOs5" d="M198 83h1c0-4.869 15-12.644 15-16 0-4.854-8.064-4.782-10.5-6-13.158-6.579-30.199 12-38.5 12l-1 1-1 20 26.5-13c1.755-.877 8.5.118 8.5 2Z"/><path fill="#3EA665" id="ACAd1" d="M223 94c3.642 0 8.002 1 11 1V72c0-1.552.566-8 2-8v-1c-1.429 0-4-1.288-4-3-1.612 0-2.983 6-3.5 6l-3.5-5-4 2c0 2.722.836 6.171 2 8.5V94Z"/><path fill="#1F9D58" id="MOs5" d="M259 83c0-2.268 5.85-2.825 7.5-2L293 94V74l-1-1c-5.883 0-14.287-7.393-19.5-10l-10-3c-4.256-2.128-13.733 1.367-17 3l-3.5 4v1c2.281 0 15 12.762 15 15h2Z"/><path fill="#40A565" id="ACAd2/3" d="M217 95h6V71.5c-1.164-2.329-2-5.778-2-8.5h-1l-5 4c0 2.592.958 3.416 2 5.5V95ZM234 95h5c1.684 0 1-4.68 1-6V72.5c0-.854 1.157-4.5 2-4.5v-1l-6-3c-1.434 0-2 6.448-2 8v23Z"/><path fill="#3EA566" id="ACAd5" d="M217 96c-6.473 0-9.765 7-15 7l-1-16.5-2-3.5c0-4.869 15-12.644 15-16h1c0 2.592.958 3.416 2 5.5V96ZM239 96c5.804 0 11.671 7 15 7 0-4.695 3-16.728 3-20 0-2.238-12.719-15-15-15-.843 0-2 3.646-2 4.5V89c0 1.32.684 6-1 6v1Z"/><path fill="#1E9C5A" id="MOp5" d="M107 115c0 1.812 2 1.87 2 2.5 0 4.327 1 10.307 1 15.5l9.5-14 9-8c6.461-3.23 28.796-17 34.5-17l1-20c-10.739 0-35.101 21.8-45.5 27L107 113v2ZM349 114l-3 19-2.5-4c-3.147-3.147-3.842-9.421-9-12l-7-6c-6.999-3.499-27.937-17-34.5-17V74c4.688 0 8.511 5.005 12.5 7 2.008 1.004 4.952.976 7 2 7.102 3.551 13.001 9.5 20 13l16.5 17v1Z"/><path fill="#1D9C5A" id="MOs6a" d="M163 115h1l5-2c0-2.617 9.7-4 12-4 0-1.579 2.855-1 4-1h1c0-8.456 12-20.407 12-25 0-1.882-6.745-2.877-8.5-2L163 94v21ZM271 108c8.024 0 17.46 7 22 7V94l-26.5-13c-1.65-.825-7.5-.268-7.5 2 0 6.086 12 17.3 12 25Z"/><path fill="#187E61" id="SSp-m1" d="m384 165 4 1c0-4.622 3.441-14.618 1-19.5-2.09-4.181-.942-9.885-3-14-4.598-9.195-6.381-19.762-11-29-1.372-2.744-4.991-4.981-6-7-1.375-2.75-14.442-15.5-17-15.5 0 1.819 1 4.59 1 7v1l14 14.5 8 12c7.629 15.257 9 30.908 9 49.5ZM73 165l-4 1c-1.684 0-1-4.679-1-6 0-4.293-2.265-11.97 0-16.5 1.949-3.898 1.082-9.163 3-13 5.761-11.523 8.23-32.865 21.5-39.5 2.924-1.462 7.228-9 11.5-9v7c-3.834 0-13.319 12.138-15 15.5l-8 12c-8.248 16.495-8 29.778-8 48.5Z"/><path fill="#3FA664" id="ACAd6a" d="M191 113h1l1-1c0-1.152 7.284-8 9-8v-1l-1-16.5-2-3.5h-1c0 4.593-12 16.544-12 25 0 1.591 5 2.01 5 5ZM264 113h1l2-2c0-2.109 2.535-2 4-2v-1c0-7.7-12-18.914-12-25h-2c0 3.272-3 15.305-3 20v1c1.852 0 9 5.903 9 8l1 1Z"/><path fill="#1A7E64" id="SSp-m2/3" d="m83 163-10 2c0-18.722-.248-32.005 8-48.5l8-12c1.681-3.362 11.166-15.5 15-15.5l1 16c-4.135 0-8.734 9.968-10 12.5-7.397 14.794-12 27.47-12 45.5ZM383 165h1c0-18.592-1.371-34.243-9-49.5l-8-12L353 89c0 6.357-2 9.559-2 16 4.337 0 9.633 10.766 11 13.5 7.229 14.457 11 26.839 11 44.5 3.894 0 6.605 2 10 2Z"/><path fill="#1F9B5A" id="MOp6a" d="m125 165-14 5c0-2.799-1.095-13-2-13 0-5.986 2-12.428 2-17 0-1.321.684-6-1-6v-1l9.5-14 9-8c6.461-3.23 28.796-17 34.5-17v21l-6 6c-1.465 0-4-.109-4 2-1.747 0-2 .253-2 2-2.36 0-8 3.842-8 6-10.831 0-18 24.358-18 33v1Z"/><path fill="#40A664" id="ACAv1" d="m234 142-1 1-2-1.5c-.557-1.114-.41-5.5-2-5.5 0-10.097-2-5.963-2 1-1.876 0-1.04 6-4 6l-1-1c0-15.095 1-31.708 1-47v-1c3.642 0 8.002 1 11 1v47Z"/><path fill="#1F9B5A" id="MOp6a" d="M331 165c5.11 0 9.252 5 14 5 0-5.206 2-8.471 2-13 0-8.226-1-15.325-1-23v-1l-2.5-4c-3.147-3.147-3.842-9.421-9-12l-7-6c-6.999-3.499-27.937-17-34.5-17v22c4.973 0 10.128 7.814 14.5 10 15.338 7.669 23.5 21.239 23.5 38v1Z"/><path fill="#3FA566" id="ACAv2/3" d="M222 142c0 1.473-1.952 1-3 1 0-15.493-2-30.713-2-47v-1h6c0 15.292-1 31.905-1 47ZM234 142l3 1c0-3.183.541-10.583 2-13.5V95h-5v47Z"/><path fill="#3EA666" id="ACAv5" d="M213 143h6c0-15.493-2-30.713-2-47-6.473 0-9.765 7-15 7v1c0 9.404 1.089 19.677 5 27.5 1.723 3.447 6 7.466 6 11.5ZM237 143h6l6-10.5c4.204-8.409 5-18.308 5-28.5v-1c-3.329 0-9.196-7-15-7v33.5c-1.459 2.917-2 10.317-2 13.5Z"/><path fill="#40A564" id="ACAv6a" d="M212 143h1c0-4.034-4.277-8.053-6-11.5-3.911-7.823-5-18.096-5-27.5-1.716 0-9 6.848-9 8v5c1.988 0 2.408 3.315 3 4.5 1.934 3.869 7 7.947 7 12.5v1l9 8ZM243 143h2l8-8v-1c0-1.727 6.627-13 8-13l2-6 1-1v-1l-1-1c0-2.097-7.148-8-9-8 0 10.192-.796 20.091-5 28.5l-6 10.5Z"/><path fill="#1B7F62" id="SSp-m4" d="m89 161-6 2c0-18.03 4.603-30.706 12-45.5 1.266-2.532 5.865-12.5 10-12.5.275 0 2 5.939 2 8v2c-3.178 0-5.731 6.962-7 9.5-5.449 10.898-11 23.487-11 36.5ZM367 161l6 2c0-17.661-3.771-30.043-11-44.5-1.367-2.734-6.663-13.5-11-13.5l-2 8v1c2.781 0 4.983 6.465 6 8.5 6.151 12.303 12 23.623 12 38.5Z"/><path fill="#1E9C58" id="MOs6b" d="M181 109h4v-1c-1.145 0-4-.579-4 1Z"/><path fill="#3FA466" id="ACAd6b" d="m185 109 6 4c0-2.99-5-3.409-5-5h-1v1Z"/><path fill="#1E9C58" id="MOs6b" d="M292 117h1v-2c-4.54 0-13.976-7-22-7v1c3.501 0 21 4.7 21 8ZM181 109c-2.3 0-12 1.383-12 4 1.643 0 12-2.788 12-4Z"/><path fill="#CACCC7" id="cing" d="M203 134v1c-7.865 0-9.65-16.575-16.5-20-6.386-3.193-11.387 2-17.5 2h-4l4-4c1.643 0 12-2.788 12-4h4l6 4 2 4c0 2.228 8.036 17 10 17Z"/><path fill="#3FA466" id="ACAd6b" d="M271 109c-1.465 0-4-.109-4 2l4-2Z"/><path fill="#CACCC7" id="cing" d="M253 134v1c8.413 0 9.712-16.606 16.5-20 6.432-3.216 11.463 2 17.5 2h5c0-3.3-17.499-8-21-8l-4 2-1 2-2 3c0 1.408-1.197 5-3 5 0 2.857-4.229 13-8 13Z"/><path fill="#3FA466" id="ACAd6b" d="M265 113h1l1-2-2 2Z"/><path fill="#2FA850" id="PL6a" d="m192 113 1 1v-2l-1 1ZM263 112l1 1-1-1Z"/><path fill="#1E9C58" id="MOs6b" d="M164 117h1l4-4-5 2v2Z"/><path fill="#2FA84F" id="PL6b" d="M193 114v3l-2-4h1l1 1ZM264 115v1l2-3h-2v2Z"/><path fill="#CCC7C9" id="ccg" d="M212 143c-2.072 0 1 5.655 1 7-5.826 0-8.428-8.964-12.5-11-1.925-.962-4.368-4.237-5.5-6.5-3.72-7.439-18.793-14.5-26-14.5v-1c6.113 0 11.114-5.193 17.5-2 6.85 3.425 8.635 20 16.5 20l9 8Z"/><path fill="#2FA850" id="PL6a" d="M263 115h1v-1l-1 1Z"/><path fill="#CCC7C9" id="ccg" d="m245 143-1 6c5.667 0 10.756-7.012 13-11.5 3.745-7.49 21.42-19.5 30-19.5v-1c-6.037 0-11.068-5.216-17.5-2-6.788 3.394-8.087 20-16.5 20l-8 8Z"/><path fill="#1B7E63" id="SSp-m5" d="m350 158 17 3c0-14.877-5.849-26.197-12-38.5-1.017-2.035-3.219-8.5-6-8.5l-3 19v1c1.59 0 1.443 4.386 2 5.5 2.404 4.809 2 11.739 2 17.5v1ZM106 157c-4.13 0-11.26 4-17 4 0-13.013 5.551-25.602 11-36.5 1.269-2.538 3.822-9.5 7-9.5 0 1.812 2 1.87 2 2.5 0 4.327 1 10.307 1 15.5v1l-3 8.5-1 14.5Z"/><path fill="#1D9D5A" id="MOp6b" d="M164 117c-2.46 0-4.17 4-7 4l6-6h1v2Z"/><path fill="#40A465" id="ACAv6b" d="M264 116c0 1.408-1.197 5-3 5l2-6h1v1Z"/><path fill="#1D9D5A" id="MOp6b" d="M329 164h2c0-16.761-8.162-30.331-23.5-38-4.372-2.186-9.527-10-14.5-10v1l19.5 14c12.493 6.247 16.5 20.627 16.5 33Z"/><path fill="#C9C9CA" id="scwm" d="M127 164c0 1.321-.684 6 1 6 0-20.301 10.258-35.879 28.5-45 3.794-1.897 8.095-7 12.5-7v-1h-5c-2.46 0-4.17 4-7 4l-4 2c0 1.747-.253 2-2 2 0 2.289-6.178 6-8 6 0 4.505-7.683 5.866-10 10.5-3.573 7.146-6 13.824-6 22.5Z"/><path fill="#40A465" id="ACAv6b" d="M193 117c1.988 0 2.408 3.315 3 4.5 1.934 3.869 7 7.947 7 12.5-1.964 0-10-14.772-10-17Z"/><path fill="#C9C9CA" id="scwm" d="M329 164v5c-1.643 0-1-3.765-1-5 0-5.023-.89-11.281-3-15.5-4.047-8.094-28.22-30.5-38-30.5v-1h6l19.5 14c12.493 6.247 16.5 20.627 16.5 33Z"/><path fill="#CAC7CC" id="fa" d="M129 171h2c0-16.459 3.269-28.384 18.5-36l11-3c8.082-4.041 33.5 7.037 33.5 15l1 1v1c3.423 0 7 8.151 7 11 2.011 0 3.989 1 6 1l1-1v-2l1-1 1-1c0-1.238.423-3 2-3v-3c-5.826 0-8.428-8.964-12.5-11-1.925-.962-4.368-4.237-5.5-6.5-3.72-7.439-18.793-14.5-26-14.5-4.405 0-8.706 5.103-12.5 7-18.242 9.121-28.5 24.699-28.5 45l1 1ZM325 171l3 1 1-3c-1.643 0-1-3.765-1-5 0-5.023-.89-11.281-3-15.5-4.047-8.094-28.22-30.5-38-30.5-8.58 0-26.255 12.01-30 19.5-2.244 4.488-7.333 11.5-13 11.5l-1 4c1.77 0 4 3.15 4 5l1 3h6c0-2.767 4.148-12 7-12l1-1c0-8.731 25.561-19.969 33.5-16l11 3c15.655 7.827 18.5 19.188 18.5 36Z"/><path fill="#1D9D5A" id="MOp6b" d="M157 121c-1.465 0-4-.109-4 2l4-2Z"/><path fill="#40A465" id="ACAv6b" d="M261 121c-1.373 0-8 11.273-8 13 3.771 0 8-10.143 8-13Z"/><path fill="#1D9D5A" id="MOp6b" d="M153 123c-1.747 0-2 .253-2 2 1.747 0 2-.253 2-2ZM151 125c-2.36 0-8 3.842-8 6 1.822 0 8-3.711 8-6ZM125 164h2c0-8.676 2.427-15.354 6-22.5 2.317-4.634 10-5.995 10-10.5-10.831 0-18 24.358-18 33Z"/><path fill="#98D5F9" id="CP" d="m145 225 6 4c10.183 0 8.527-4.554 12-11.5 2.772-5.543 10.319-14.409 16.5-17.5 2.482-1.241 14.5-4.437 14.5-8l2-2v-1l1-32c0-3.303-2-5.115-2-8v-1l-1-1c0-7.963-25.418-19.041-33.5-15l-11 3c-15.231 7.616-18.5 19.541-18.5 36 1.59 0 1.443 4.386 2 5.5 3.981 7.962 5 15.807 5 25.5 0 1.564 1 3.876 1 6v1c1.663 0 2 5.407 2 7v1l1 2 3 6ZM312 224l-7 5c-10.111 0-12.321-10.142-16-17.5-4.248-8.496-13.78-11.14-20.5-14.5l-6.5-5-1-2v-1l-2-32 2-8 1-1c0-8.731 25.561-19.969 33.5-16l11 3c15.655 7.827 18.5 19.188 18.5 36l-4 9.5c-2.58 5.16-3 14.433-3 20.5l-1 9c-1.175 0-2 5.704-2 7l-3 7Z"/><path fill="#187D61" id="SSp-m6a" d="M106 157h3c0-5.986 2-12.428 2-17 0-1.321.684-6-1-6l-3 8.5-1 14.5ZM347 157h3c0-5.761.404-12.691-2-17.5-.557-1.114-.41-5.5-2-5.5 0 7.675 1 14.774 1 23Z"/><path fill="#7ED04B" id="IG" d="M229 161h1v-3l1-1 1-1 1-3v-2c-1.566 0-1.566-5 0-5v-3l-2-1.5c-.557-1.114-.41-5.5-2-5.5v25ZM224 156c3.608 0 .585 6 3 6v-25c-1.876 0-1.04 6-4 6v2c1.602 0 1.602 7 0 7v2l1 2Z"/><path fill="#A3DAA3" id="DP" d="M213 153c0 4.303 8.554 1 10 1v-11l-1-1c0 1.473-1.952 1-3 1h-7c-2.072 0 1 5.655 1 7v3ZM233 153c.896 0 10 5.302 10 0l1-4 1-6h-8l-3-1-1 1v10Z"/><path fill="#99D2BD" id="OLF" d="M223 145c1.602 0 1.602 7 0 7v-7ZM233 146c-1.566 0-1.566 5 0 5v-5Z"/><path fill="#AAA8A9" id="SEZ" d="m194 147 1 1-1-1ZM262 148l-1 1 1-1ZM202 172c0 1.048.473 3-1 3 0-4.256.965-18-4-18 0-3.303-2-5.115-2-8 3.423 0 7 8.151 7 11 0 2.978 1 6.49 1 10v1l-1 1ZM256 182l1 1c0-4.73-3.432-26 2-26l2-8c-2.852 0-7 9.233-7 12v10l2 11Z"/><path fill="#99D2BD" id="OLF" d="M211 156h13l-1-2c-1.446 0-10 3.303-10-1-1.577 0-2 1.762-2 3ZM232 156l9.5 1 3-1 2.5 2c0-1.85-2.23-5-4-5 0 5.302-9.104 0-10 0l-1 3ZM211 156l-1 1 1-1Z"/><path fill="#61D09F" id="TTd" d="m210 169 6 6c11.011 0 11 9.508 11-10v-3c-2.415 0 .608-6-3-6h-13l-1 1-1 1v2l-1 1c0 3.091 2 5.478 2 8Z"/><path fill="#99D2BD" id="OLF" d="m232 156-1 1 1-1Z"/><path fill="#61D09F" id="TTd" d="M240 175h1l1-1 1-1 4-4 1-8-1-3-2.5-2-3 1-9.5-1-1 1-1 1v3c0 1.048.473 3-1 3v5c0 9.635 2.705 7 10 7l1-1Z"/><path fill="#019C75" id="GU5" d="M107 172c-6.501 0-11.907 7-19 7 0-6.216 1-12.292 1-18 5.74 0 12.87-4 17-4 0 4.425 1 9.961 1 15Z"/><path fill="#009B74" id="GU6a" d="m111 170-4 2c0-5.039-1-10.575-1-15h3c.905 0 2 10.201 2 13Z"/><path fill="#A8AAAA" id="VL" d="M197 189h1l1-1v-4c0-1.048-.473-3 1-3 0-1.145-.579-4 1-4v-2c0-4.256.965-18-4-18l-1 32h1Z"/><path fill="#99D2BD" id="OLF" d="m210 157-1 1 1-1ZM231 157l-1 1 1-1Z"/><path fill="#A8AAAA" id="VL" d="m261 189-1 1c-1.577 0-2-1.762-2-3l-1-2v-2c0-4.73-3.432-26 2-26l2 32Z"/><path fill="#009B74" id="GU6a" d="m345 170 5 2v-15h-3c0 4.529-2 7.794-2 13Z"/><path fill="#019C75" id="GU5" d="M350 172c5.962 0 11.265 7 18 7 0-5.915-1-12.755-1-18l-17-3v14Z"/><path fill="#99D2BD" id="OLF" d="M210 169c-3.051 0-5.183 1-7 1 0-3.51-1-7.022-1-10 2.011 0 3.989 1 6 1 0 3.091 2 5.478 2 8ZM209 160l-1 1 1-1Z"/><path fill="#009C74" id="GU4" d="M86 180h2v-1c0-6.216 1-12.292 1-18l-6 2 3 17Z"/><path fill="#99D2BD" id="OLF" d="M230 161c0 1.048.473 3-1 3v-3h1ZM247 169c5.099 0 5.598 2 7 2v-10h-6l-1 8Z"/><path fill="#009C74" id="GU4" d="M368 180h2c0-5.602 3-10.873 3-17l-6-2c0 5.245 1 12.085 1 18v1Z"/><path fill="#009B75" id="GU2/3" d="M86 180c0 .052-9.03 4-10 4 0-6.566-3-12.163-3-19l10-2 3 17ZM370 180c0 .718 8.654 3 10 3 2.144 0 .381-4.262 1-5.5 1.931-3.863 2-7.796 2-12.5-3.395 0-6.106-2-10-2 0 6.127-3 11.398-3 17Z"/><path fill="#1F9766" id="AId6b" d="M130 181h1c0-3.708-2-5.942-2-10l-1-1c-1.684 0-1-4.679-1-6h-2v1c0 4.503 2 8.044 2 12v1l1 1 2 2ZM325 181h2l2-4c0-3.629 2-7.589 2-12v-1h-2v5l-1 3-3 9Z"/><path fill="#009C75" id="GU1" d="m76 184-4 1c0-6.648-3-12.045-3-19l4-1c0 6.837 3 12.434 3 19Z"/><path fill="#209666" id="AId6a" d="m120 192-4 2-7-8.5c-2.054-4.108-2-8.502-2-13.5l4-2 14-5c0 4.503 2 8.044 2 12-13.273 0-7 7.385-7 15Z"/><path fill="#99D2BD" id="OLF" d="M216 175c0 7.194 23 8.277 23 1-7.295 0-10 2.635-10-7l-2-4c0 19.508.011 10-11 10Z"/><path fill="#209666" id="AId6a" d="M340 194h1c0-4.307 6.046-7.593 8-11.5.706-1.413 1-9.249 1-10.5l-5-2c-4.748 0-8.89-5-14-5 0 4.411-2 8.371-2 12 14.599 0 7 8.199 7 15l4 2Z"/><path fill="#009C75" id="GU1" d="m380 184 4 1 4-19-4-1h-1c0 4.704-.069 8.637-2 12.5-.619 1.238 1.144 5.5-1 5.5v1Z"/><path fill="#97D6F9" id="STR" d="M237 265h2v-8l1-1v-1c0-1.145-.579-4 1-4v-1c0-1.458-3.844-15 1-15v-15l-3.5 1-5.5-4.5c-3.161-6.322 5.607-35.053 10.5-37.5 1.828-.914 9.228 3 12.5 3l-2-11c-1.402 0-1.901-2-7-2l-4 4-1 1-1 1h-1l-1 1c0 7.277-23 6.194-23-1l-6-6c-3.051 0-5.183 1-7 1v1l-1 1c0 1.048.473 3-1 3v2c0 1.145.579 4-1 4v2c2.739 0 10.795-4.852 12.5-4 8.392 4.196 15.722 37.139 6 42-2.712 1.356-3.183-2-4.5-2 0 5.22 1 11.211 1 17 3.834 0 1 14.563 1 17v1l1 2 1 9h1l1-1 1-3c0-2.483 2-4.026 2-6-1.726 0-2.837-5.827-2-7.5 3.348-6.695 3-19.195 3-27 0-1.355 1.589-8.5 3.5-8.5 7.183 0 6.5 35.942 6.5 43l1 5v1l2 3v1Z"/><path fill="#C8CBCC" id="ec" d="M137 202h1c0-9.693-1.019-17.538-5-25.5-.557-1.114-.41-5.5-2-5.5h-2c0 4.058 2 6.292 2 10l2 4c0 5.156 4 11.478 4 17Z"/><path fill="#99D2BD" id="OLF" d="m203 171-1 1 1-1Z"/><path fill="#C8CBCC" id="ec" d="M319 203h1c0-1.272 1.114-11 2-11 0-1.145-.579-4 1-4 0-1.145-.579-4 1-4l1-3 3-9-3-1-4 9.5c-2.58 5.16-3 14.433-3 20.5l1 2Z"/><path fill="#209665" id="AId5" d="m116 194-21 6c0-.656-3.32-4.138-4-5.5-1.67-3.341-3-10.703-3-14.5v-1c7.093 0 12.499-7 19-7 0 4.998-.054 9.392 2 13.5l7 8.5ZM361 200h1c0-1.697 6-12.372 6-20v-1c-6.735 0-12.038-7-18-7 0 1.251-.294 9.087-1 10.5-1.954 3.907-8 7.193-8 11.5 0 2.144 4.262.381 5.5 1 3.42 1.71 10.761 5 14.5 5Z"/><path fill="#99D2BD" id="OLF" d="m243 173-1 1 1-1ZM242 174l-1 1 1-1ZM240 175l-1 1 1-1Z"/><path fill="#8ADA86" id="CLA" d="M132 185c0 3.363 5.421 21.961-6.5 16-2.459-1.229-4.131-9-5.5-9 0-7.615-6.273-15 7-15v1l1 1 2 2 2 4Z"/><path fill="#AAA8A9" id="SEZ" d="M201 177c-1.579 0-1 2.855-1 4 1.579 0 1-2.855 1-4Z"/><path fill="#8ADA86" id="CLA" d="M322 192c0 14.289 14 9.388 14 0 0-6.801 7.599-15-7-15l-2 4-2 4-2 3c0 1.145.579 4-1 4Z"/><path fill="#209666" id="AId6a" d="m127 178 1 1-1-1Z"/><path fill="#90CAED" id="LSr" d="M214 218v1c1.317 0 1.788 3.356 4.5 2 9.722-4.861 2.392-37.804-6-42-1.705-.852-9.761 4-12.5 4l-1 1v5l6 10v1l1 1v1l1 1v1l1 1v1l1 1 1 3 1 1 1 3 1 1v2l1 1ZM243 218l-1 2-3.5 1-5.5-4.5c-3.161-6.322 5.607-35.053 10.5-37.5 1.828-.914 9.228 3 12.5 3l1 1v4l-1 6-1 1-1 2-1 1v1l-1 1-1 1v1l-1 1-1 3-1 1-1 3-1 1-1 3-1 1v1l-1 1v2Z"/><path fill="#209765" id="AId2/3" d="M95 200c-4.373 0-7.253 3-12 3 0-6.004-7-12.645-7-19 .97 0 10-3.948 10-4h2c0 3.797 1.33 11.159 3 14.5.68 1.362 4 4.844 4 5.5ZM362 200c3.751 0 6.819 3 11 3 1.845 0 1.441-3.381 2-4.5 2.049-4.098 5-9.714 5-14.5v-1c-1.346 0-10-2.282-10-3h-2c0 7.628-6 18.303-6 20Z"/><path fill="#209666" id="AId6a" d="M132 185h1l-2-4h-1l2 4Z"/><path fill="#AAA8A9" id="SEZ" d="m200 183-1 1c0-1.048-.473-3 1-3v2Z"/><path fill="#209666" id="AId6a" d="m324 184 1 1 2-4h-2l-1 3Z"/><path fill="#209764" id="AId1" d="m83 204-3 1c-1.183 0-1.535-3.57-2-4.5-1.968-3.936-6-11.082-6-15.5l4-1c0 6.355 7 12.996 7 19v1Z"/><path fill="#1F9866" id="AIv6a" d="m325 185-2 3c0-1.145-.579-4 1-4l1 1Z"/><path fill="#209764" id="AId1" d="m373 204 4 1c0-6.725 7-12.878 7-20l-4-1c0 4.786-2.951 10.402-5 14.5-.559 1.119-.155 4.5-2 4.5v1Z"/><path fill="#1F9866" id="AIv6a" d="M123 208h2c0-3.325 8.198-5 11-5l1-1c0-5.522-4-11.844-4-17h-1c0 3.363 5.421 21.961-6.5 16-2.459-1.229-4.131-9-5.5-9l-4 2 7 14Z"/><path fill="#AAA8A9" id="SEZ" d="M257 187h1l-1-2v2Z"/><path fill="#97D6F9" id="STR" d="M262 192c-2.124 0-4.436 1-6 1l1-6h1c0 1.238.423 3 2 3h1l1 2Z"/><path fill="#AAA8A9" id="SEZ" d="M198 189h1v-1l-1 1Z"/><path fill="#1F9866" id="AIv6a" d="M323 188c-1.579 0-1 2.855-1 4 1.579 0 1-2.855 1-4Z"/><path fill="#AAA8A9" id="SEZ" d="m197 189-1 1v-1h1Z"/><path fill="#97D6F9" id="STR" d="M194 192c6.917 0 8.376 7 11 7l-6-10h-2l-1 1-2 2Z"/><path fill="#AAA8A9" id="SEZ" d="M260 190h1v-1l-1 1Z"/><path fill="#80CDF8" id="ACB" fill-rule="evenodd" d="m176 210-3.5 3c-1.256 1.256-3.5 5.869-3.5 7.5 0 2.194 3.101 2.8 4.5 3.5 7.988 3.994 12.346-14 2.5-14m39 26c0 22.17-32.294 34.103-50.5 25l-8.5-4.5c-.539-1.078-3.702-9.5-4-9.5 0-5.999-1-12.316-1-18 10.183 0 8.527-4.554 12-11.5 2.772-5.543 10.319-14.409 16.5-17.5 2.482-1.241 14.5-4.437 14.5-8 6.917 0 8.376 7 11 7v1l1 1v1l1 1v1l1 1v1l1 1 1 3 1 1 1 3 1 1v2l1 1v1c0 5.22 1 11.211 1 17ZM279 210c0 1.434-4 1.177-4 4v6.5l3.5 2.5c13.472 6.736 7.82-13 .5-13m-37 25c0 26.49 33.88 34.31 54.5 24l6.5-6.5c.659-1.319-.334-5.5 2-5.5v-18c-10.111 0-12.321-10.142-16-17.5-4.248-8.496-13.78-11.14-20.5-14.5l-6.5-5c-2.124 0-4.436 1-6 1l-1 1-1 2-1 1v1l-1 1-1 1v1l-1 1-1 3-1 1-1 3-1 1-1 3-1 1v1l-1 1v2l-1 2v15Z"/><path fill="#1F9866" id="AIv6a" d="M332 208h1c2.044 0 7-11.983 7-14l-4-2c0 9.388-14 14.289-14 0-.886 0-2 9.728-2 11 5.723 0 9.598 5 12 5Z"/><path fill="#97D6F9" id="STR" d="m256 193-1 1 1-1Z"/><path fill="#1F9865" id="AIv5" d="m116 211-7 1c0-6.556-14-7.126-14-12l21-6 7 14c0 2.102-7 .058-7 3Z"/><path fill="#97D6F9" id="STR" d="m255 194-1 2 1-2Z"/><path fill="#1F9865" id="AIv5" d="m341 211 6 1c0-6.363 14-6.385 14-12-3.739 0-11.08-3.29-14.5-5-1.238-.619-5.5 1.144-5.5-1h-1c0 2.017-4.956 14-7 14 0 2.272 8-.258 8 3Z"/><path fill="#97D6F9" id="STR" d="m254 196-1 1 1-1ZM253 198l-1 1 1-1ZM252 199l-1 1 1-1Z"/><path fill="#219764" id="AIv2/3" d="M109 212c-5.686 0-11.943 4-18 4 0-1.806-6.359-12-8-12v-1c4.747 0 7.627-3 12-3 0 4.874 14 5.444 14 12Z"/><path fill="#97D6F9" id="STR" d="m205 200 1 1-1-1Z"/><path fill="#219764" id="AIv2/3" d="m347 212 18 4 8-12v-1c-4.181 0-7.249-3-11-3h-1c0 5.615-14 5.637-14 12Z"/><path fill="#97D6F9" id="STR" d="m251 201-1 1 1-1Z"/><path fill="#8AD987" id="CTXsp" d="M319 203c0 1.593-.337 7-2 7l1-9 1 2Z"/><path fill="#C8CBCC" id="ec" d="M136 203h1v-1l-1 1Z"/><path fill="#8AD987" id="CTXsp" d="M137 203c0 1.041.986 5 2 5 0-2.124-1-4.436-1-6h-1v1Z"/><path fill="#97D6F9" id="STR" d="m206 202 1 1-1-1Z"/><path fill="#A0EE9C" id="EPd" d="M131 225c1.39 0 14 5.298 14 0l-3-6-1-2v-1c-1.663 0-2-5.407-2-7v-1c-1.014 0-2-3.959-2-5h-1c-2.802 0-11 1.675-11 5 0 2.428-3.784 5.933-2 9.5l2 2.5 1 1 1 1 1 1 2 2h1ZM325 225h1l1-1 1-1h1l1-1 1-1 1-1 1-1 1-7.5-2-3.5c-2.402 0-6.277-5-12-5h-1c0 1.593-.337 7-2 7 0 1.774.273 7-2 7l-3 7c0 4.32 5.873 3 9 3l4-2Z"/><path fill="#209864" id="AIv1" d="M91 216c0 1.643-3.766 1-5 1l-6-12 3-1c1.641 0 8 10.194 8 12Z"/><path fill="#97D6F9" id="STR" d="m207 204 1 1-1-1Z"/><path fill="#209864" id="AIv1" d="m365 216 5 1c1.133 0 7-10.573 7-12l-4-1-8 12Z"/><path fill="#97D6F9" id="STR" d="m249 205-1 1 1-1ZM208 206l1 1-1-1Z"/><path fill="#99D2BD" id="OLF" d="M116 211c4.867 0 4.429 9 9 9l-2-2.5c-1.784-3.567 2-7.072 2-9.5h-2c0 2.102-7 .058-7 3ZM341 211c-4.013 0-5.998 8-8 8l1-7.5-2-3.5h1c0 2.272 8-.258 8 3Z"/><path fill="#8AD987" id="CTXsp" d="M139 209c1.663 0 2 5.407 2 7-1.663 0-2-5.407-2-7Z"/><path fill="#97D6F9" id="STR" d="m247 209-1 1 1-1Z"/><path fill="#CBCBC7" id="aco" d="m176 210-3.5 3c-1.256 1.256-3.5 5.869-3.5 7.5 0 2.194 3.101 2.8 4.5 3.5 7.988 3.994 12.346-14 2.5-14Z"/><path fill="#97D6F9" id="STR" d="m210 210 1 1-1-1Z"/><path fill="#CBCBC7" id="aco" d="M279 210c0 1.434-4 1.177-4 4v6.5l3.5 2.5c13.472 6.736 7.82-13 .5-13Z"/><path fill="#8AD987" id="CTXsp" d="M317 210c-1.175 0-2 5.704-2 7 2.273 0 2-5.226 2-7Z"/><path fill="#6ACAB9" id="PIR" d="M130 257h2l9-4c0-1.785 9.434-7.631 6-14.5-2.2-4.401-5.929-8.215-10.5-10.5l-5.5-3h-1l-2-2-1-1-1-1-1-1c-4.571 0-4.133-9-9-9l-7 1c-5.686 0-11.943 4-18 4 0 1.643-3.766 1-5 1 0 5.575 17.27 29 23 29 0-2.562 3.73.615 4.5 1 3.481 1.741 7.454 3.227 11 5l5.5 5ZM324 257h3c0-4.655 17.918-11 21-11l8.5-7c5.187-5.187 13.5-14.811 13.5-22l-5-1-18-4-6-1c-4.013 0-5.998 8-8 8l-1 1-1 1-1 1-1 1h-1l-1 1-1 1h-1c0 2.109-2.535 2-4 2 0 1.76-4.288 3.394-5.5 4-3.043 1.521-5.222 5.944-6.5 8.5-3.025 6.05 6 9.288 6 13.5h1l1 1 7 3Z"/><path fill="#96A6D3" id="NDB" d="M232 255h2c0-7.058.683-43-6.5-43-1.911 0-3.5 7.145-3.5 8.5 0 7.805.348 20.305-3 27-.837 1.673.274 7.5 2 7.5h1l1-1c0-5.318 7-3.006 7 1Z"/><path fill="#97D6F9" id="STR" d="m245 213-1 1 1-1ZM212 214l1 1-1-1ZM244 215l-1 1 1-1Z"/><path fill="#8AD987" id="CTXsp" d="m141 217 1 2-1-2Z"/><path fill="#97D6F9" id="STR" d="m213 217 1 1-1-1ZM243 218l-1 2 1-2Z"/><path fill="#99D2BD" id="OLF" d="m333 219-1 1 1-1ZM332 220l-1 1 1-1ZM126 221l1 1-1-1ZM331 221l-1 1 1-1ZM330 222l-1 1 1-1ZM128 223l2 2-2-2ZM328 223l-1 1 1-1ZM313 253h2c0-4.212-9.025-7.45-6-13.5 1.278-2.556 3.457-6.979 6.5-8.5 1.212-.606 5.5-2.24 5.5-4-3.127 0-9 1.32-9-3l-7 5v18c0 1.142 7.066 6 8 6ZM327 224l-1 1 1-1ZM141 253h2c3.587 0 5.655-6 9-6 0-5.999-1-12.316-1-18l-6-4c0 5.298-12.61 0-14 0l5.5 3c4.571 2.285 8.3 6.099 10.5 10.5 3.434 6.869-6 12.715-6 14.5ZM325 225l-4 2c1.465 0 4 .109 4-2Z"/><path fill="#A2B1D7" id="SI" d="M241 250c2.916 0 13.962 14.731 18.5 17 12.456 6.228 31.298 1.351 42-4 2.336-1.168 11.5-6.528 11.5-10-.934 0-8-4.858-8-6-2.334 0-1.341 4.181-2 5.5l-6.5 6.5c-20.62 10.31-54.5 2.49-54.5-24-4.844 0-1 13.542-1 15ZM143 253l8.5 8c5.172 2.586 9.906 5.453 15 8h24c4.721-2.361 9.14-5.57 14-8 3.709-1.855 5.143-9.071 9-11 2.156-1.078.79 3 2.5 3 0-2.437 2.834-17-1-17 0 22.17-32.294 34.103-50.5 25l-8.5-4.5c-.539-1.078-3.702-9.5-4-9.5-3.345 0-5.413 6-9 6Z"/><path fill="#CAC8C7" id="lot" d="m130 261-2 1c-2.188 0-19-14.889-19-16 0-2.562 3.73.615 4.5 1 3.481 1.741 7.454 3.227 11 5l5.5 5v4ZM327 257c0 1.235-.643 5 1 5 2.115 0 20-15.099 20-16-3.082 0-21 6.345-21 11Z"/><path fill="#7FCCF7" id="OT" d="m214 272-1 1c0 12.015-19.968 16-29 16-5.27 0-12.054.777-16.5 3-6.577 3.289-25.965-9.43-28.5-14.5-2.194-4.388-8-7.247-8-12.5l-1-2v-3l2-3 9-4h2l8.5 8c5.172 2.586 9.906 5.453 15 8h24c4.721-2.361 9.14-5.57 14-8 3.709-1.855 5.143-9.071 9-11 2.156-1.078.79 3 2.5 3v1l1 2 1 9-1 1-2 5-1 1ZM325 266c0 4.777-7.517 12.017-11 15.5-9.041 9.041-24.793 13.353-36.5 7.5-5.829-2.915-14.983 1.009-21-2l-10.5-8.5-3-5.5-4-8v-8l1-1v-1c1.579 0 1-2.855 1-4v-1c2.916 0 13.962 14.731 18.5 17 12.456 6.228 31.298 1.351 42-4 2.336-1.168 11.5-6.528 11.5-10h3l1 1 7 3c0 1.835 2 4.235 2 7v1l-1 1Z"/><path fill="#A2B1D7" id="SI" d="M241 251c-1.579 0-1 2.855-1 4 1.579 0 1-2.855 1-4Z"/><path fill="#99D2BD" id="OLF" d="m316 253 1 1-1-1Z"/><path fill="#A2B1D7" id="SI" d="m216 254 1 2-1-2Z"/><path fill="#8599CC" id="PAL" d="m225 254-1 1 1-1ZM224 255l-3 6c0-2.483 2-4.026 2-6h1ZM234 255l1 5-3-5h2Z"/><path fill="#A2B1D7" id="SI" d="m240 256-1 1 1-1Z"/><path fill="#99D2BD" id="OLF" d="m132 257-2 3v-3h2ZM326 264h1l1-2c-1.643 0-1-3.765-1-5h-3c0 1.835 2 4.235 2 7ZM130 263v1l-2-2 2-1v2Z"/><path fill="#8599CC" id="PAL" d="m235 261 2 3c-1.577 0-2-1.762-2-3Z"/><path fill="#97D6F9" id="STR" d="m130 264 1 1-1-2v1Z"/><path fill="#8599CC" id="PAL" d="m220 264-1 1 1-1Z"/><path fill="#97D6F9" id="STR" d="m327 264-1 1v-1h1ZM218 265l-1 1 1-1Z"/><path fill="#8599CC" id="PAL" d="m217 266-2 5c1.617 0 4-4.583 4-6h-1l-1 1ZM239 265l4 8c-2.289 0-6-6.178-6-8h2Z"/><path fill="#97D6F9" id="STR" d="m326 265-1 1 1-1Z"/><path fill="#8599CC" id="PAL" d="m215 271-1 1 1-1ZM214 272l-1 1 1-1Z"/></svg>