<svg xmlns="http://www.w3.org/2000/svg" viewBox="0 0 456 320"><path fill="#1E9D5A" id="MOp1" d="m149 39-1 6c14.499 0 28.4-9 43-9v-5c-3.371 0-26.118 2.809-28.5 4-3.327 1.664-9.756 4-13.5 4Z"/><path fill="#1E9C59" id="MOs1" d="m227 48-5 2c0-12.903-21.725-14-31-14v-5c11.469 0 25.224-.051 30 9.5 1.45 2.9 6 3.974 6 7.5ZM229 48l5 2 1.5-3 8-8c6.764-3.382 14.297-3 22.5-3l-1-5c-14.03 0-21.426.926-31.5 11l-4.5 6Z"/><path fill="#1E9D5A" id="MOp1" d="m308 39 1 6c-14.598 0-28.392-9-43-9l-1-5 29.5 4c3.547 1.773 9.439 4 13.5 4Z"/><path fill="#1F9C58" id="MOp2/3" d="m147 63-1 6c7.893 0 31.38-20 42-20l1-1c0-4.371 2-8.019 2-12-14.6 0-28.501 9-43 9v1c0 5.316-1 11.135-1 16v1Z"/><path fill="#1E9D58" id="MOs2/3" d="m222 51-6 3c0-2.224-2.386-2.272-3-3.5-4.038-8.076-17.176-2.5-24-2.5 0-4.371 2-8.019 2-12 9.275 0 31 1.097 31 14v1ZM240 54h1c0-13.221 22.389-5 27-5 0-4.068-2-8.523-2-13-8.203 0-15.736-.382-22.5 3l-8 8-1.5 3v1l6 3Z"/><path fill="#1F9C58" id="MOp2/3" d="M310 69h1c0-1.819-1-4.59-1-7 0-4.61-1-10.038-1-16v-1c-14.598 0-28.392-9-43-9 0 4.477 2 8.932 2 13 11.223 0 34.63 20 42 20Z"/><path fill="#187F60" id="SSp-ll1" d="m148 46-6 1c0-1.564-1-3.876-1-6l8-2-1 6v1ZM314 47h1l1-6-8-2 1 6v1l5 1Z"/><path fill="#197E64" id="SSp-ul1" d="m103 60 2 5c5.599 0 28.387-18 37-18 0-1.564-1-3.876-1-6-3.219 0-27.583 11.083-30 13.5-1.435 1.435-8 3.193-8 5.5ZM351 65h1l1-6c-2.616 0-31.027-18-37-18l-1 6c0 2.135 6.625 2.126 8 3.5.717.717 27.737 14.5 28 14.5Z"/><path fill="#187F64" id="SSp-ll2/3" d="M146 62h1c0-4.865 1-10.684 1-16l-6 1c0 5.234 4 9.886 4 15Z"/><path fill="#1F9D58" id="MOs5" d="M203 66h1c0-2.95 9.04-11 12-11v-1c0-2.224-2.386-2.272-3-3.5-4.038-8.076-17.176-2.5-24-2.5l-1 1-3 17c1.615 0 18-7.869 18 0ZM253 65c2.995 0 8.312-4.094 12.5-2l5.5 3c0-6.027-3-11.25-3-17-4.611 0-27-8.221-27 5l12 11Z"/><path fill="#187F64" id="SSp-ll2/3" d="M310 62h1l3-15-5-1c0 5.962 1 11.39 1 16Z"/><path fill="#197F61" id="SSp-ul2/3" d="m105 66 6 11c4.28 0 26.107-15 35-15 0-5.114-4-9.766-4-15-8.613 0-31.401 18-37 18v1ZM345 77h1l5-12c-.263 0-27.283-13.783-28-14.5-1.375-1.374-8-1.365-8-3.5h-1l-3 15c6.465 0 32.611 15 34 15Z"/><path fill="#3EA665" id="ACAd1" d="M233 75c-3.325 0-7.31 1-10 1V57c0-1.32.684-6-1-6v-1l5-2c.839 0 2 1.93 2 0l5 2v1c0 7.29-1 16.053-1 24Z"/><path fill="#1E9C5A" id="MOp5" d="M146 69c0 5.224 1 10.37 1 15 9.801 0 32.101-17 38-17v-1l3-17c-10.62 0-34.107 20-42 20ZM310 69v15c-6.921 0-21.165-7.833-27.5-11L271 66c0-6.027-3-11.25-3-17 11.223 0 34.63 20 42 20Z"/><path fill="#40A565" id="ACAd2/3" d="m223 76-5 1c0-5.046-1-11.325-1-17 0-1.234.643-5-1-5v-1l6-3c1.684 0 1 4.68 1 6v19ZM233 76c2.124 0 4.436 1 6 1 0-7.62 1-16.035 1-23l-6-3c0 7.29-1 16.053-1 24v1Z"/><path fill="#3EA566" id="ACAd5" d="m239 77 12 6c0-5.959 2-11.632 2-17v-1l-12-11h-1c0 6.965-1 15.38-1 23ZM218 77c-5.063 0-8.418 6-13 6 0-5.79-1-11.78-1-17 0-2.95 9.04-11 12-11 1.643 0 1 3.766 1 5 0 5.675 1 11.954 1 17Z"/><path fill="#1B8062" id="SSp-un1" d="M362 73h1l2-6-12-8-1 6c0 1.295 8.323 8 10 8ZM91 68c0 1.624 2 2.75 2 5 4.832 0 7.408-7 12-7v-1l-2-5c-2.215 0-12 5.372-12 8Z"/><path fill="#1A7F63" id="SSp-ul4" d="M114 85h1l31-16 1-6-1-1c-8.893 0-30.72 15-35 15v1l3 7Z"/><path fill="#1C7F64" id="SSp-ll4" d="M147 62v1l-1-1h1Z"/><path fill="#1A7F63" id="SSp-ul4" d="M341 85h1c0-2.7 3-4.762 3-8-1.389 0-27.535-15-34-15h-1c0 2.41 1 5.181 1 7l30 16Z"/><path fill="#1D9C5A" id="MOs6a" d="M183 88h1c1.819 0 4.591-1 7-1h1c0-8.056 11-15.936 11-21 0-7.869-16.385 0-18 0v1l-2 6.5V88ZM265 87l8 1V71.5l-2-5.5-5.5-3c-4.188-2.094-9.505 2-12.5 2v1c1.949 0 12 18.327 12 21Z"/><path fill="#1C7F63" id="SSp-un2/3" d="M360 79h1v-1c-1.186 0-1.186-1 0-1 2.277 0 1-3.299 1-4-1.677 0-10-6.705-10-8h-1l-5 12c0 1.577 1.762 2 3 2 .964 0 11-6.008 11 0ZM96 79l2.5-3c2.531 0 6.202 3 8.5 3l4-1v-1l-6-11c-4.592 0-7.168 7-12 7v1l3 5Z"/><path fill="#3FA664" id="ACAd6a" d="M192 87c1.923 0 4 2.104 4 4 3.282 0 5.014-6 9-6v-2c0-5.79-1-11.78-1-17h-1c0 5.064-11 12.944-11 21ZM260 91h1l1-2c0-1.577 1.762-2 3-2 0-2.673-10.051-21-12-21 0 5.368-2 11.041-2 17v1c3.598 0 5.782 7 9 7Z"/><path fill="#1F9B5A" id="MOp6a" d="M273 88c5.744 0 28.596 15 37 15V84c-6.921 0-21.165-7.833-27.5-11L271 66l2 5.5V88ZM147 103h2c0-1.995 4.377-2 6-2 0-1.817 7.169-4 9-4 0-1.638 3.576-2 5-2 0-1.995 4.377-2 6-2 0-2.447 6.063-4 8-4V73.5l2-6.5c-5.899 0-28.199 17-38 17l-1 1c0 5.928 1 11.829 1 18Z"/><path fill="#197E63" id="SSp-n1" d="m383 93 10 5c0-3.878-24.068-31-28-31l-2 6c0 1.474 20 15.687 20 20ZM71 95c-4.01 0-3.795 3-8 3 0-4.246 23.391-30 28-30 0 1.624 2 2.75 2 5v1c-2.519 0-19 16.481-19 19l-3 2Z"/><path fill="#187E62" id="SSp-ul5" d="M120 96h1c0-1.86 21.53-11 25-11l1-1c0-4.63-1-9.776-1-15l-31 16 4 9 1 2ZM337 94l-1 1c-9.068 0-16.315-10-26-10V69h1l30 16c0 3.79-4 5.837-4 9Z"/><path fill="#1B7F64" id="SSp-n2/3" d="M360 79h1v-2c2.277 0 1-3.299 1-4h1c0 1.474 20 15.687 20 20-5.471 0-23-8.072-23-14ZM96 79c0 5.327-17.725 14-22 14 0-2.519 16.481-19 19-19l3 5Z"/><path fill="#40A664" id="ACAv1" d="m229 102 5 5c0-10.047-1-20.446-1-31v-1c-3.325 0-7.31 1-10 1 0 10.42-1 21.17-1 31l5-5c0-3.15 2-3.446 2 0Z"/><path fill="#1A7E64" id="SSp-m2/3" d="m57 130 9 5c0-14.504 16.3-41.4 29.5-48 3.768-1.884 7.044-7 11.5-7v-1c-2.298 0-5.969-3-8.5-3L96 79c0 5.327-17.725 14-22 14l-3 2c0 5.803-14 23.916-14 34v1Z"/><path fill="#3FA566" id="ACAv2/3" d="m221 110-3 1V77l5-1c0 10.42-1 21.17-1 31l-1 3ZM235 109l3 2c0-10.784 1-22.61 1-34-1.564 0-3.876-1-6-1 0 10.554 1 20.953 1 31l1 2Z"/><path fill="#1A7E64" id="SSp-m2/3" d="M390 135h1l9-5v-1c-1.341 0-4.049-13.597-5-15.5-1.483-2.965-12-18.93-12-20.5-5.471 0-23-8.072-23-14 0-6.008-10.036 0-11 0v1c4.853 0 8.406 4.953 12.5 7 13.905 6.953 28.5 33.318 28.5 48Z"/><path fill="#3EA666" id="ACAv5" d="m209 107 9 4V77c-5.063 0-8.418 6-13 6v2c0 7.406 4 14.835 4 22ZM247 107c-2.705 0-6.038 4-9 4 0-10.784 1-22.61 1-34l12 6v1c0 8.154-4 15.617-4 23Z"/><path fill="#197E61" id="SSp-un4" d="m342 85 2 1c0-2.684 5-4.535 5-6v-1c-1.238 0-3-.423-3-2h-1c0 3.238-3 5.3-3 8Z"/><path fill="#1A7E64" id="SSp-m2/3" d="M361 77c-1.186 0-1.186 1 0 1v-1Z"/><path fill="#197E61" id="SSp-un4" d="M113 85h1l-3-7-4 1v1l6 5Z"/><path fill="#1B7F62" id="SSp-m4" d="m66 135 5 2c0-9.463 22.008-39.754 30.5-44l11.5-7v-1l-6-5c-4.456 0-7.732 5.116-11.5 7C82.3 93.6 66 120.496 66 135ZM385 137h1l4-2c0-14.682-14.595-41.047-28.5-48-4.094-2.047-7.647-7-12.5-7 0 1.465-5 3.316-5 6v1c13.093 0 30.013 26.525 35 36.5 1.928 3.856 6 9.015 6 13.5Z"/><path fill="#197D61" id="SSp-ul6a" d="m147 84-1 1 1-1Z"/><path fill="#40A564" id="ACAv6a" d="m249 106-2 1c0-7.383 4-14.846 4-23 3.598 0 5.782 7 9 7v1l-1 3c-1.177 0-9 8.821-9 10l-1 1Z"/><path fill="#197D62" id="SSp-un5" d="M113 86c0 2.037 4.116 8 6 8l-4-9h-2v1Z"/><path fill="#197D61" id="SSp-ul6a" d="M129 111h1c0-2.461 3.378-2 5-2l8-4 4-2c0-6.171-1-12.072-1-18-3.47 0-25 9.14-25 11 0 5.215 7 9.085 7 15h1Z"/><path fill="#40A564" id="ACAv6a" d="m207 106 2 1c0-7.165-4-14.594-4-22-3.986 0-5.718 6-9 6v1l11 13v1Z"/><path fill="#197D61" id="SSp-ul6a" d="M327 111h1c0-5.067 8-9.524 8-15v-1c-9.068 0-16.315-10-26-10v19c4.652 0 7.663 3.082 11.5 5 1.319.659 5.5-.334 5.5 2Z"/><path fill="#197D62" id="SSp-un5" d="M344 87c-3.611 0-3.424 7-7 7 0-3.163 4-5.21 4-9h1l2 1v1Z"/><path fill="#1B7E63" id="SSp-m5" d="M81 143h1c0-5.22 2.81-10.119 5-14.5 7.475-14.95 8.852-20.176 25.5-28.5 2.263-1.132 4.862-4 7.5-4l-1-2c-1.884 0-6-5.963-6-8l-11.5 7C93.008 97.246 71 127.537 71 137v1l10 5Z"/><path fill="#1E9C58" id="MOs6b" d="m191 88-7 1v-1c1.819 0 4.591-1 7-1v1Z"/><path fill="#3FA466" id="ACAd6b" d="M195 92h1v-1c0-1.896-2.077-4-4-4h-1v1c2.226 0 4 1.774 4 4ZM265 88l-3 1c0-1.577 1.762-2 3-2v1Z"/><path fill="#1E9C58" id="MOs6b" d="M273 88v1l-8-1v-1l8 1Z"/><path fill="#1B7E63" id="SSp-m5" d="M385 137c0 1.839-8.481 6-10 6 0-3.195-2.597-7.694-4-10.5-1.165-2.329-.853-5.706-2-8-4.965-9.929-13.502-18.501-23.5-23.5-3.377-1.688-5.419-5-9.5-5v-1l1-1c3.576 0 3.389-7 7-7 13.093 0 30.013 26.525 35 36.5 1.928 3.856 6 9.015 6 13.5Z"/><path fill="#1D9D5A" id="MOp6b" d="M183 89h1v-1h-1v1Z"/><path fill="#CACCC7" id="cing" d="M207 105v1c-8.839 0-11.5-9.5-18.5-13-6.458-3.23-13.754 5-19.5 5l-1 1h-5l1-2c1.622 0 5 .46 5-2 1.623 0 6-.005 6-2l8-4h1l7-1c2.226 0 4 1.774 4 4 0 3.247 8.454 13 12 13ZM250 105l-1 1c9.251 0 11.484-9.492 18.5-13 6.501-3.25 13.919 5 19.5 5l1 1h6c0-1.148-21-7.835-21-10l-8-1-3 1-1 2v1c0 1.238-.423 3-2 3 0 3.042-5.744 10-9 10Z"/><path fill="#1D9D5A" id="MOp6b" d="M310 104v1c-5.322 0-10.508-6-16-6 0-1.148-21-7.835-21-10v-1c5.744 0 28.596 15 37 15v1ZM183 89c-1.937 0-8 1.553-8 4l8-4Z"/><path fill="#3FA466" id="ACAd6b" d="m262 89-1 2 1-2ZM260 92h1v-1h-1v1Z"/><path fill="#40A465" id="ACAv6b" d="m196 92 11 13c-3.546 0-12-9.753-12-13h1ZM261 92c0 1.238-.423 3-2 3l1-3h1Z"/><path fill="#1D9D5A" id="MOp6b" d="M175 93c-1.623 0-6 .005-6 2 1.623 0 6-.005 6-2Z"/><path fill="#C9C7C9" id="ccb" d="m360 157 1 5c-1.508 0-5.139-10.777-6-12.5-3.56-7.119-14.608-24.554-22.5-28.5-21.599-10.799-29.694-13-54.5-13 0-8.676-21 2.71-21 6l-2 1-2 1-2 1c-2.536 0-16 3.399-16 5-1.048 0-3-.473-3 1h-1c0-1.666-5-3.135-5 0h-2l-2-1c-4.398 0-10.68-5-17-5h-1l-2-2h-1c0-2.392-16.666-11.917-20.5-10l-2.5 3-14.5-1c-5.351 2.676-12.713 1.357-18 4l-24 12c-6.723 3.362-18.399 22.298-21.5 28.5-.883 1.767-2.97 11.5-5 11.5l2-9 1-1v-1l1-1v-2c2.109 0 2-2.535 2-4 2.218 0 4-5.144 4-7 1.577 0 2-1.762 2-3 1.782 0 8-8.283 8-10 1.747 0 2-.253 2-2 3.532 0 6.459-5.479 9.5-7l20-9c2.665-1.333 20.5-5.773 20.5-8h1l1-1c5.746 0 13.042-8.23 19.5-5 7 3.5 9.661 13 18.5 13l2 1 9 4 3-1c1.423 0 3.544 1.978 5.5 1l2-2 1 2c1.517.759 5.5-.037 5.5-2l3 2c2.962 0 6.295-4 9-4l2-1c9.251 0 11.484-9.492 18.5-13 6.501-3.25 13.919 5 19.5 5l1 1h2c0 2.603 8.652 4.076 10.5 5l20 7 14 8c5.965 2.983 16.374 18.248 19.5 24.5l5 9.5v3l1 1Z"/><path fill="#187E61" id="SSp-m1" d="m405 126-5 3c-1.341 0-4.049-13.597-5-15.5-1.483-2.965-12-18.93-12-20.5l10 5 3 5.5c2.949 5.899 9 15.799 9 22.5ZM52 126c0 1.077 3.762 3 5 3 0-10.084 14-28.197 14-34-4.01 0-3.795 3-8 3 0 5.488-11 19.822-11 28Z"/><path fill="#1D9D5A" id="MOp6b" d="M169 95c-1.424 0-5 .362-5 2 1.622 0 5 .46 5-2Z"/><path fill="#40A465" id="ACAv6b" d="M259 95c-1.177 0-9 8.821-9 10 3.256 0 9-6.958 9-10Z"/><path fill="#187D61" id="SSp-m6a" d="m82 143 15 7c0-2.04 3.508-11 6-11 0-3.301 6.857-14 10-14 0-1.747.253-2 2-2 0-2.905 10.203-12 13-12 0-5.915-7-9.785-7-15h-1c-2.638 0-5.237 2.868-7.5 4-16.648 8.324-18.025 13.55-25.5 28.5-2.19 4.381-5 9.28-5 14.5ZM375 143l-15 7-5-10.5c-2.839-5.677-21.173-28.5-27-28.5 0-5.067 8-9.524 8-15 4.081 0 6.123 3.312 9.5 5 9.998 4.999 18.535 13.571 23.5 23.5 1.147 2.294.835 5.671 2 8 1.403 2.806 4 7.305 4 10.5Z"/><path fill="#1D9D5A" id="MOp6b" d="m163 99-8 2c0-1.817 7.169-4 9-4l-1 2Z"/><path fill="#C9C9CA" id="scwm" d="m169 98-1 1 1-1ZM287 98l1 1-1-1ZM129 112c0 3.509-12 5.894-12 11 3.532 0 6.459-5.479 9.5-7l20-9c2.665-1.333 20.5-5.773 20.5-8h-4l-8 2c0 1.995-4.377 2-6 2l-2 2h-4c0 2.774-5.798 4-8 4 0 1.638-3.576 2-5 2l-1 1ZM359 151v2l-5-9.5c-3.126-6.252-13.535-21.517-19.5-24.5l-14-8-20-7c-1.848-.924-10.5-2.397-10.5-5h4c5.492 0 10.678 6 16 6 5.948 0 11.083 7 17 7l4.5 3 13.5 12.5c1.852 3.703 8.47 15.47 11 18l3 5.5Z"/><path fill="#1D9D5A" id="MOp6b" d="M155 101c-1.623 0-6 .005-6 2 1.623 0 6-.005 6-2Z"/><path fill="#7ED04B" id="IG" d="M235 109c0 1.963-3.983 2.759-5.5 2l-1-2-2 2c-1.956.978-4.077-1-5.5-1l1-3 5-5c0 1.399 2 1.399 2 0l5 5 1 2Z"/><path fill="#1C8064" id="SSp-ul6b" d="M143 105h4v-2l-4 2Z"/><path fill="#1D9D5A" id="MOp6b" d="m149 103-2 2v-2h2Z"/><path fill="#1C8064" id="SSp-ul6b" d="M327 111v1c-5.917 0-11.052-7-17-7v-1c4.652 0 7.663 3.082 11.5 5 1.319.659 5.5-.334 5.5 2ZM143 105l-8 4c2.202 0 8-1.226 8-4Z"/><path fill="#AAA8A9" id="SEZ" d="M182 110c0-8.23 16.092 5 19 5 0-2.392-16.666-11.917-20.5-10l-2.5 3 4 2ZM275 109c0-6.636-16.297 5-18 5 0-3.29 21-14.676 21-6 0 1.473-1.952 1-3 1Z"/><path fill="#98D5F9" id="CP" d="M136 235h1c0-1.539 11.907-2 14-2 0-1.473 1.952-1 3-1h1l1-1c5.992 0 13.202-8 17-8l3-8.5c2.865-5.729-.377-17.246 3-24 1.227-2.455-1.626-7.937 1.5-9.5 2.3-1.15 3.434 2.217 5 3 3.602 1.801 2.925-3 4.5-3v-14c0-1.145-.579-4 1-4v-18c0-6.471.703-15.094-2-20.5l-7-14.5-4-2-14.5-1c-5.351 2.676-12.713 1.357-18 4l-24 12c-6.723 3.362-18.399 22.298-21.5 28.5-.883 1.767-2.97 11.5-5 11.5l-1 4-1 2c0 8.24-1.793 19.913 2 27.5 2.15 4.299 6 12.701 6 17.5v2l1 1v1l1 1v1l1 1 1 2 1 1v1c1.433 0 11 6.677 11 8l10.5 3 8.5-1Z"/><path fill="#A8AAAA" id="VL" d="M191 145h1c0-10.628 13-24.801 13-28h-1l-2-2h-1c-2.908 0-19-13.23-19-5l7 14.5c2.703 5.406 2 14.029 2 20.5ZM251 117l10 14.5c.844 1.687 2.059 11.5 4 11.5 0-7.143.985-16.471 4-22.5 1.722-3.443 6-7.513 6-11.5 0-6.636-16.297 5-18 5l-2 1-2 1-2 1Z"/><path fill="#98D5F9" id="CP" d="M319 235h1l8.5 1 10.5-3c0-2.218 5.144-4 7-4l1-1 1-1 1-1 1-1 1-1v-1l1-1 2-4 1-1v-2l1-2 1-2c0-1.979 2.157-13 4-13 0-5.088 1.79-13.079 4-17.5l-2-12.5v-1l-2-4v-1c-1.508 0-5.139-10.777-6-12.5-3.56-7.119-14.608-24.554-22.5-28.5-21.599-10.799-29.694-13-54.5-13 0 1.473-1.952 1-3 1 0 3.987-4.278 8.057-6 11.5-3.015 6.029-4 15.357-4 22.5v9l1 15 1 14c0 7.82 7.697-3.106 10 1.5 3.481 6.963 1.051 29.102 4 35l4 6.5c0 1.39 13.426 7 16 7l1 1h1l2 1h1c1.913 0 13 .612 13 2Z"/><path fill="#1C8064" id="SSp-ul6b" d="M135 109c-1.622 0-5-.461-5 2 1.424 0 5-.362 5-2Z"/><path fill="#188064" id="SSp-m6b" d="M115 123h2c0-5.106 12-7.491 12-11v-1h-1c-2.797 0-13 9.095-13 12Z"/><path fill="#1C8064" id="SSp-ul6b" d="m130 111-1 1v-1h1Z"/><path fill="#188064" id="SSp-m6b" d="M359 151h1v-1l-5-10.5c-2.839-5.677-21.173-28.5-27-28.5h-1v1l4.5 3 13.5 12.5c1.852 3.703 8.47 15.47 11 18l3 5.5Z"/><path fill="#AAA8A9" id="SEZ" d="m257 114-2 1 2-1ZM202 115l2 2-2-2ZM255 115l-2 1 2-1Z"/><path fill="#90CBEC" id="LSc" d="m192 145 1 4c3.652 0 5.223-6.361 8.5-8 3.95-1.975 20.5-13.654 20.5-18v-1c-4.398 0-10.68-5-17-5 0 3.199-13 17.372-13 28ZM265 147l-3 1-7-6.5c-3.828-3.828-21-13.478-21-18.5l1-1c0-1.601 13.464-5 16-5l10 14.5c.844 1.687 2.059 11.5 4 11.5v4Z"/><path fill="#97D6F9" id="STR" d="M226 123h5c0-1.666-5-3.135-5 0ZM222 123h2l-2-1v1ZM232 123h2l1-1c-1.048 0-3-.473-3 1Z"/><path fill="#188064" id="SSp-m6b" d="M113 125h2v-2c-1.747 0-2 .253-2 2Z"/><path fill="#C9C9CA" id="scwm" d="M117 123c0 1.747-.253 2-2 2v-2h2Z"/><path fill="#90CAED" id="LSr" d="M241 181v4l10.5-10c2.084-1.042 8.402-5.299 11-4l2.5 2c0-1.321-.684-6 1-6l-1-15-3-4-7-6.5c-3.828-3.828-21-13.478-21-18.5h-12c0 4.346-16.55 16.025-20.5 18-3.277 1.639-4.848 8-8.5 8l-2 4v10c0 3.013 1 6.611 1 9 5.754 0 8.931 1.216 14.5 4l8.5 9v-6c0-14.321 4.118-24.737 10-36.5l3.5-9.5 3.5 10.5c6.148 12.296 9 22.438 9 37.5Z"/><path fill="#188064" id="SSp-m6b" d="m105 138-2 1c0-3.301 6.857-14 10-14 0 3.95-6 5.894-6 10-1.577 0-2 1.762-2 3Z"/><path fill="#C9C9CA" id="scwm" d="M115 125c0 1.717-6.218 10-8 10 0-4.106 6-6.05 6-10h2Z"/><path fill="#1A7E62" id="SSs1" d="M45 177h4c0-12.245-1.54-26.422 4-37.5.784-1.568 1.924-9.5 4-9.5v-1c-1.238 0-5-1.923-5-3-1.55 0-2.364 6.228-3 7.5-4.575 9.151-6 19.994-6 31 0 1.816.69 12.5 2 12.5ZM407 177h5c0-7.623 3.514-24.473 0-31.5l-7-19.5-5 3v1l7 18.5c3.058 6.116 0 20.963 0 27.5v1Z"/><path fill="#1B8063" id="SSs2/3" d="m58 175-9 2c0-12.245-1.54-26.422 4-37.5.784-1.568 1.924-9.5 4-9.5l9 5-6 16.5c-3.042 6.085-2 16.244-2 23.5ZM399 175c2.097 0 5.293 1 8 1 0-6.537 3.058-21.384 0-27.5l-7-18.5-9 5c0 5.695 3.539 13.578 6 18.5 2.65 5.3 2 15.242 2 21.5Z"/><path fill="#8FCBEC" id="SF" d="M220 188c0-9.713-1.44-18.62 3-27.5.858-1.716 2.096-9.5 5.5-9.5 2.276 0 3.629 6.758 4.5 8.5 4.263 8.526 4 18.159 4 28.5 3.381 0 1.015-7 4-7 0-15.062-2.852-25.204-9-37.5l-3.5-10.5-3.5 9.5c-5.882 11.763-10 22.179-10 36.5 2.4 0 1.343 9 5 9Z"/><path fill="#187C63" id="SSs4" d="M58 175h5c0-5.803 3.707-28.913 6-33.5l2-3.5v-1l-5-2-6 16.5c-3.042 6.085-2 16.244-2 23.5Z"/><path fill="#C9C9CA" id="scwm" d="M107 135c-1.577 0-2 1.762-2 3 1.577 0 2-1.762 2-3Z"/><path fill="#187C63" id="SSs4" d="M393 175h6c0-6.258.65-16.2-2-21.5-2.461-4.922-6-12.805-6-18.5h-1l-4 2c0 10.25 7 25.082 7 38Z"/><path fill="#1C8063" id="SSs5" d="m380 174 13 1c0-12.918-7-27.75-7-38h-1c0 1.839-8.481 6-10 6 0 3.744 2.336 10.173 4 13.5l1 17.5ZM76 174c-5.067 0-7.019 1-13 1 0-5.803 3.707-28.913 6-33.5l2-3.5 10 5c0 4.599-2.031 10.563-4 14.5L76 174Z"/><path fill="#C9C9CA" id="scwm" d="m103 139-2 6c2.218 0 4-5.144 4-7l-2 1Z"/><path fill="#188064" id="SSp-m6b" d="M98 151h1v-2l2-4 2-6c-2.492 0-6 8.96-6 11v1h1Z"/><path fill="#197D63" id="SSs6a" d="M76 174h5c3.283 0 6.01-1 9-1 0-4.996 2.863-11.225 5-15.5.567-1.134.546-6.5 2-6.5v-1l-15-7h-1c0 4.599-2.031 10.563-4 14.5L76 174ZM378 175h1l1-1-1-17.5c-1.664-3.327-4-9.756-4-13.5l-15 7v1c0 7.515 7 14.705 7 22l9 1 2 1Z"/><path fill="#C9C9CA" id="scwm" d="m101 145-2 4c2.109 0 2-2.535 2-4Z"/><path fill="#97D6F9" id="STR" d="m193 149-2 4v-8h1l1 4ZM262 148l3 4v-5l-3 1Z"/><path fill="#1A8061" id="SSs6b" d="M90 174h1c0-.671 1.328-5 2-5v-2l2-4 2-9 1-1v-2h-1c-1.454 0-1.433 5.366-2 6.5-2.137 4.275-5 10.504-5 15.5v1Z"/><path fill="#C9C9CA" id="scwm" d="m99 151-1 1v-1h1Z"/><path fill="#96A7D3" id="MS" d="M227 205c0-5.171 2-5.547 2 0 6.37 0 8-11.729 8-17 0-10.341.263-19.974-4-28.5-.871-1.742-2.224-8.5-4.5-8.5-3.404 0-4.642 7.784-5.5 9.5-4.44 8.88-3 17.787-3 27.5 0 4.764.562 17 7 17Z"/><path fill="#1A8061" id="SSs6b" d="M367 173v1l-2-1c0-1.041-.986-5-2-5v-1c0-1.465.109-4-2-4v-1l-1-5-1-1v-5h1c0 7.515 7 14.705 7 22Z"/><path fill="#C9C9CA" id="scwm" d="m98 153-1 1 1-1ZM359 156l1 1-1-1Z"/><path fill="#C9C7C9" id="ccb" d="M93 167h1l1-4-2 4Z"/><path fill="#A8AAAA" id="VL" d="M190 181c0 2.177-.641 4 2 4v-13c0-2.389-1-5.987-1-9-1.579 0-1 2.855-1 4v14Z"/><path fill="#C9C7C9" id="ccb" d="M361 163c2.109 0 2 2.535 2 4l-2-4Z"/><path fill="#C8CBCC" id="ec" d="m94 167-1 2v-2h1Z"/><path fill="#A8AAAA" id="VL" d="m264 185 2 1c0-1.235-.643-5 1-5l-1-14c-1.684 0-1 4.679-1 6 0 4.107-1 8.469-1 12Z"/><path fill="#C8CBCC" id="ec" d="M361 198h1l1-2v-2l1-1 1-2v-18c0-1.041-.986-5-2-5l2 12.5c-2.21 4.421-4 12.412-4 17.5ZM97 209l4 5c0-4.799-3.85-13.201-6-17.5-3.793-7.587-2-19.26-2-27.5-.672 0-2 4.329-2 5v16l1 1 1 2v2l1 1v1l1 2v2c1.353 0 2 4.643 2 6v2Z"/><path fill="#8FCBED" id="LSv" d="m200 195 1 1c6.428 0 11.869 6.762 16-1.5l1-3-3-6.5-8.5-9c-5.569-2.784-8.746-4-14.5-4v13l2 4 1 1 1 1 1 1 1 1 1 1 1 1ZM255 196l-1 1c-2.803 0-21.245 4.99-15-7.5l2-4.5 10.5-10c2.084-1.042 8.402-5.299 11-4l2.5 2c0 4.107-1 8.469-1 12l-1 3-1 1-1 1-1 1-1 1-1 1-1 1-1 1-1 1Z"/><path fill="#009B74" id="GU6a" d="m88 192-9 1c0-4.628-3-12.421-3-18 1.234 0 5 .643 5-1 3.283 0 6.01-1 9-1v1c-1.867 0-1.632 15 1 15v2c-1.048 0-3-.473-3 1Z"/><path fill="#019C74" id="GU6b" d="M367 174c0 2.639 1.215 16-2 16v-17l2 1Z"/><path fill="#009B74" id="GU6a" d="M369 192c2.723 0 5.778 1 9 1 0-5.819 2-11.674 2-18h-2l-2-1-9-1v1c0 2.639 1.215 16-2 16v1l4 1Z"/><path fill="#12AD82" id="VISC5" d="m76 175-13 3v-3c5.981 0 7.933-1 13-1v1Z"/><path fill="#11AC83" id="VISC6a" d="M81 174c0 1.643-3.766 1-5 1v-1h5Z"/><path fill="#019C74" id="GU6b" d="M91 174v15c-2.632 0-2.867-15-1-15h1Z"/><path fill="#11AC83" id="VISC6a" d="m376 174 2 1-2-1ZM379 175h1v-1l-1 1Z"/><path fill="#12AD82" id="VISC5" d="M393 175v3l-13-3v-1l13 1Z"/><path fill="#12AC83" id="VISC2/3" d="M50 183h1c0-.286 6.302-3 7-3v-5l-9 2 1 6Z"/><path fill="#11AC82" id="VISC4" d="m63 179-5 1v-5h5v4Z"/><path fill="#019C75" id="GU5" d="m79 193-2.5 2H66c0-4.921-3-10.739-3-16v-1l13-3c0 5.579 3 13.372 3 18ZM378 194c3.605 0 7.368 1 12 1 1.828 0 3-13.913 3-17l-13-3c0 6.326-2 12.181-2 18v1Z"/><path fill="#11AC82" id="VISC4" d="m393 178 5 1c1.579 0 1-2.855 1-4h-6v3Z"/><path fill="#12AC83" id="VISC2/3" d="m398 180 8 3 1-6v-1c-2.707 0-5.903-1-8-1 0 1.145.579 4-1 4v1Z"/><path fill="#12AD83" id="VISC1" d="m50 183-3 2c-1.93 0-2-6.225-2-8h4l1 6ZM406 183l4 2 2-8h-5l-1 6Z"/><path fill="#009C74" id="GU4" d="M390 196h3c0-5.425 5-10.099 5-16v-1l-5-1c0 3.087-1.172 17-3 17v1ZM64 196h2v-1c0-4.921-3-10.739-3-16l-5 1c0 5.693 6 10.931 6 16Z"/><path fill="#97D6F9" id="STR" d="M223 213h1l1-1 1-2c0-1.048-.473-3 1-3v-2c-6.438 0-7-12.236-7-17-3.657 0-2.6-9-5-9v6l3 6.5-1 3c-4.131 8.262-9.572 1.5-16 1.5 0 1.108 4.281 7.062 5 8.5.652 1.303.219 7.5 2 7.5l4 1c2.379 0 4.917-3.292 7.5-2 1.619.809 1.471 2 3.5 2Z"/><path fill="#009B75" id="GU2/3" d="m64 196-8 2c0-4.947-5-9.355-5-15 0-.286 6.302-3 7-3 0 5.693 6 10.931 6 16ZM400 198h1c0-5.424 5-9.583 5-15l-8-3c0 5.901-5 10.575-5 16 0 1.175 5.704 2 7 2Z"/><path fill="#97D6F9" id="STR" d="m175 235-10 5c0-4.447 8-10.001 8-17l3-8.5c2.865-5.729-.377-17.246 3-24 1.227-2.455-1.626-7.937 1.5-9.5 2.3-1.15 3.434 2.217 5 3 3.602 1.801 2.925-3 4.5-3 0 2.177-.641 4 2 4l2 4c-.781 0-9-7.956-9-2-3.068 0-8 22.892-8 27 0 2.008-.656 9 2 9v4c-.286 0-3 6.302-3 7l-1 1ZM234 213l5.5-2 4.5 2 5-1c0-4.599 5-12.595 5-15-2.803 0-21.245 4.99-15-7.5l2-4.5v-4c-2.985 0-.619 7-4 7 0 5.271-1.63 17-8 17l2 6 2 2h1ZM280 234c4.786 0 8.445 7 13 7 0-2.432-15.739-17-8-17l-4-6.5c-2.949-5.898-.519-28.037-4-35-2.303-4.606-10 6.32-10-1.5-1.643 0-1 3.765-1 5 1.777 0 5-2.985 5 1 3.106 0 2.869 5.238 4 7.5 4.734 9.468 3 19.101 3 29.5v1c0 3.324 2 6.16 2 9Z"/><path fill="#009C75" id="GU1" d="m56 199-4 1c0-5.11-5-9.433-5-15l3-2h1c0 5.645 5 10.053 5 15v1ZM401 198l3 2c1.304 0 6-13.065 6-15l-4-2c0 5.417-5 9.576-5 15Z"/><path fill="#B3C0DE" id="BST" fill-rule="evenodd" d="m179 227 4.5 4 9.5 1c6.996 0 8.932-9 16-9l1-1v-3l-1-2-1-5c-1.781 0-1.348-6.197-2-7.5-.719-1.438-5-7.392-5-8.5l-1-1-1-1-1-1-1-1-1-1-1-1-1-1c-.781 0-9-7.956-9-2 0 10.247-6 23.8-6 36v4m12-17c-3.643 0-7.427 10 3 10 15.798 0 16.241-13 0-13l-1 1-1 1-1 1Z"/><path fill="#97D6F9" id="STR" d="m266 186-3 2 1-3 2 1Z"/><path fill="#B3C0DE" id="BST" fill-rule="evenodd" d="m278 225-3.5 5c-3.357 1.679-7.435 2-11.5 2-6.008 0-6.418-8-16-8v-7l1-1 1-4c0-4.599 5-12.595 5-15l1-1 1-1 1-1 1-1 1-1 1-1 1-1 1-1 1-1 3-2c1.777 0 5-2.985 5 1 0 2.742 4.64 19.781 6 22.5.976 1.953-1.53 14.5 1 14.5v1m-13-16c3.036 0 8.081 11-2 11-7.764 0-19.764-7.368-8.5-13 4.936-2.468 6.498 2 10.5 2Z"/><path fill="#8599CC" id="PAL" d="M185 187c-3.068 0-8 22.892-8 27 0 2.008-.656 9 2 9 0-12.2 6-25.753 6-36ZM271 187c3.106 0 2.869 5.238 4 7.5 4.734 9.468 3 19.101 3 29.5-2.53 0-.024-12.547-1-14.5-1.36-2.719-6-19.758-6-22.5Z"/><path fill="#97D6F9" id="STR" d="m263 188-1 1 1-1ZM262 189l-1 1 1-1Z"/><path fill="#219666" id="AIp6b" d="M91 191h1l-1-1v1Z"/><path fill="#97D6F9" id="STR" d="m195 190 1 1-1-1Z"/><path fill="#8ADA86" id="CLA" d="M92 209h2l1-2v-8l-1-2v-1l-1-1v-2l-1-2h-1c-1.048 0-3-.473-3 1 0 2.75-5.107 17 4 17Z"/><path fill="#209766" id="AIp6a" d="m92 191 1 2-1-2Z"/><path fill="#97D6F9" id="STR" d="m260 191-1 1 1-1Z"/><path fill="#8ADA86" id="CLA" d="M363 209h1c9.126 0 5-14.126 5-17l-4-1-1 2-1 1v2l-1 2c0 1.048.473 3-1 3v2c0 2.518 2 4.286 2 6Z"/><path fill="#209766" id="AIp6a" d="m91 211-5 2c0-6.86-7-12.577-7-20l9-1c0 2.75-5.107 17 4 17l-1 2Z"/><path fill="#97D6F9" id="STR" d="m197 192 1 1-1-1Z"/><path fill="#209766" id="AIp6a" d="m366 211 4 2 6-13.5c.557-1.114.41-5.5 2-5.5v-1c-3.222 0-6.277-1-9-1 0 2.874 4.126 17-5 17l2 2Z"/><path fill="#219864" id="AIp5" d="M79 215h4l3-2c0-6.86-7-12.577-7-20l-2.5 2H66v1c0 2.941 10.706 19 13 19Z"/><path fill="#97D6F9" id="STR" d="m258 193-1 1 1-1Z"/><path fill="#209766" id="AIp6a" d="m364 193-1 1 1-1Z"/><path fill="#97D6F9" id="STR" d="m199 194 1 1-1-1ZM257 194l-1 1 1-1Z"/><path fill="#219864" id="AIp5" d="m373 215 5 1c0-4.812 12-12.887 12-20v-1c-4.632 0-8.395-1-12-1-1.59 0-1.443 4.386-2 5.5l-6 13.5c1.238 0 3 .423 3 2Z"/><path fill="#209766" id="AIp6a" d="m93 195 1 1-1-1Z"/><path fill="#97D6F9" id="STR" d="m256 195-1 1 1-1Z"/><path fill="#209865" id="AIp2/3" d="M79 215c0 1.259-8.632 4-10 4-3.485 0-12.059-20-13-20v-1l8-2h2c0 2.941 10.706 19 13 19Z"/><path fill="#97D6F9" id="STR" d="m255 196-1 1 1-1Z"/><path fill="#209766" id="AIp6a" d="m363 196-1 2 1-2Z"/><path fill="#209865" id="AIp2/3" d="m378 216 9 3c2.73 0 13-18.61 13-21-1.296 0-7-.825-7-2h-3c0 7.113-12 15.188-12 20Z"/><path fill="#209766" id="AIp6a" d="m94 197 1 2-1-2Z"/><path fill="#C8CBCC" id="ec" d="m358 210-1 1c0-1.979 2.157-13 4-13v5c-1.579 0-1 2.855-1 4l-1 2-1 1Z"/><path fill="#209766" id="AIp6a" d="M362 198c0 1.048.473 3-1 3v-3h1Z"/><path fill="#219765" id="AIp1" d="m387 219 6 3 3-4.5c2.757-2.757 8-13.661 8-17.5l-3-2h-1c0 2.39-10.27 21-13 21ZM69 219l-6 3-11-22 4-1c.941 0 9.515 20 13 20Z"/><path fill="#209766" id="AIp6a" d="M95 207h2c0-1.357-.647-6-2-6v6ZM362 209h1c0-1.714-2-3.482-2-6-1.579 0-1 2.855-1 4l2 2Z"/><path fill="#CBCBC7" id="aco" d="m191 210-1 6.5c.703 1.405 4 2.848 4 3.5 15.798 0 16.241-13 0-13l-1 1-1 1-1 1ZM265 209c-4.002 0-5.564-4.468-10.5-2-11.264 5.632.736 13 8.5 13l3-2.5-1-8.5Z"/><path fill="#8AD987" id="CTXsp" d="M94 209h3v-2h-2l-1 2Z"/><path fill="#C9C9C9" id="act" d="m194 207-1 1 1-1Z"/><path fill="#FF5445" id="MEPO" d="M227 244h2l2-2v-11c0-5.708-1-11.784-1-18 0-2.59.026-6-3-6 0 1.048.473 3-1 3v31l1 3Z"/><path fill="#8AD987" id="CTXsp" d="M359 209h3l-2-2-1 2Z"/><path fill="#C9C9C9" id="act" d="m193 208-1 1 1-1Z"/><path fill="#A0EE9C" id="EPd" d="m99 229 5 1 3-3-1-2v-1l-1-1-1-2-1-1v-1l-1-1v-1l-1-1v-2l-4-5h-5l-1 2c0 2.132-3.271 4.958-2 7.5l2 3.5v1l4 4h1l2 2h1Z"/><path fill="#C9C9C9" id="act" d="M265 209c3.036 0 8.081 11-2 11l3-2.5-1-8.5Z"/><path fill="#8AD987" id="CTXsp" d="m359 209-1 1 1-1Z"/><path fill="#A0EE9C" id="EPd" d="M355 230h1l1-1 3-1 1-1 1-1 3-3 1-1v-1l1-1v-1l-1-8-2-2h-5l-1 1-1 1-1 2-1 2v2l-1 1-2 4-1 1v1l-1 1v1l2 4h3Z"/><path fill="#C9C9C9" id="act" d="M191 210c-3.643 0-7.427 10 3 10 0-.652-3.297-2.095-4-3.5l1-6.5Z"/><path fill="#99D2BD" id="OLF" d="M83 215c4.039 0 5.182 7 8 7l-2-3.5c-1.271-2.542 2-5.368 2-7.5l-5 2-3 2Z"/><path fill="#FF5547" id="ADP" d="M223 230c0 4.488-12 7.53-12 3l-2-4 1-4v-6l1-2 1-4c2.379 0 4.917-3.292 7.5-2 1.619.809 1.471 2 3.5 2v17Z"/><path fill="#CAC7CB" id="fiber tracts" d="M232 213h1l-2-2 1 2Z"/><path fill="#FF5547" id="ADP" d="m234 231 3.5 4c3.349 1.675 6.241-2 8.5-2 0-1.048-.473-3 1-3v-9c-1.579 0-1-2.855-1-4l-2-4-4.5-2-5.5 2v18Z"/><path fill="#C8CBCC" id="ec" d="m357 211-1 2 1-2Z"/><path fill="#99D2BD" id="OLF" d="M373 215c-2.773 0-3.67 4-6 4l-1-8 4 2c1.238 0 3 .423 3 2Z"/><path fill="#CAC7CB" id="fiber tracts" d="M209 217h2l1-4-4-1 1 5ZM224 213h1v-1l-1 1ZM246 217h1l1-1 1-4-5 1 2 4Z"/><path fill="#E64438" id="HY" d="m223 230 3 1v-18h-3v17ZM231 231h3v-18h-4c0 6.216 1 12.292 1 18Z"/><path fill="#C8CBCC" id="ec" d="m356 213-1 2 1-2Z"/><path fill="#6ACAB9" id="PIR" d="M116 271h3c0-3.22 6-4.481 6-7l2-5.5c2.069-4.139-4.841-16.671-8.5-18.5-5.093-2.547-10.019-5.51-15-8l-4.5-3h-1l-2-2h-1l-4-4v-1c-2.818 0-3.961-7-8-7h-4c0 1.259-8.632 4-10 4l-6 3c0 5.37 18.314 27.814 23 32.5l9 8.5c7.027 0 13.712 8 21 8ZM338 271h2c7.624 0 15.024-7 22-7 0-3.725 5.736-4.972 7-7.5 4.714-9.429 24-24.397 24-34.5l-6-3-9-3-5-1c-2.773 0-3.67 4-6 4v1l-1 1v1l-1 1-3 3-1 1-1 1-3 1-1 1h-1l-14 7-8 8.5c-3.342 6.684-2 11.384-2 18.5l7 7Z"/><path fill="#C8CBCC" id="ec" d="m101 216 1 1-1-1Z"/><path fill="#E64438" id="HY" d="m248 216-1 1 1-1ZM211 217l-1 2-1-2h2ZM247 217v4c-1.579 0-1-2.855-1-4h1Z"/><path fill="#C8CBCC" id="ec" d="m355 217-1 1 1-1ZM102 218l1 1-1-1ZM103 220l1 1-1-1Z"/><path fill="#99D2BD" id="OLF" d="m367 220-1 1 1-1Z"/><path fill="#E64438" id="HY" d="m209 223 1 2v-3l-1 1Z"/><path fill="#C8CBCC" id="ec" d="m352 222-1 1 1-1Z"/><path fill="#99D2BD" id="OLF" d="m366 222-1 1 1-1ZM91 223l4 4-4-4Z"/><path fill="#C8CBCC" id="ec" d="m105 223 1 1-1-1Z"/><path fill="#7ECDF8" id="FS" d="M129 248c2.692 0 2.717 9 8 9 11.119 0 11.672-4.086 19.5-8l7.5-8 1-1c0-4.447 8-10.001 8-17-3.798 0-11.008 8-17 8l-1 1h-1c0 1.473-1.952 1-3 1 0 2.5-11.582 2-14 2h-1c0 2.636-10.747.995-12 3.5l3 5.5v1l2 2v1Z"/><path fill="#FD5446" id="PS" d="m205 239-1 1c-10.789 0-11 4.867-11-8 6.996 0 8.932-9 16-9l1 2-1 4v4l-4 6ZM252 239l1.5 2c2.977 1.489 8.046-1 10.5-1l1-4.5-2-3.5c-6.008 0-6.418-8-16-8v9l5 6Z"/><path fill="#7ECDF8" id="FS" d="M327 249c-1.518 0-2.028 8-8 8h-7.5c-2.714-1.357-18.5-12.697-18.5-16 0-2.432-15.739-17-8-17 0 1.39 13.426 7 16 7l1 1h1l2 1h1c0 2.735 10.639 2 13 2h1c0 2.636 10.747.995 12 3.5l-1 3.5-1 1-1 1v1l-1 2-1 1v1Z"/><path fill="#C8CBCC" id="ec" d="m351 224-1 1 1-1ZM107 227c3.428 0 6.206 6 10 6 0-1.323-9.567-8-11-8l1 2Z"/><path fill="#E64438" id="HY" d="M280 234c-5.094 0-12.159 6-16 6l1-4.5-2-3.5c4.065 0 8.143-.321 11.5-2l3.5-5c0 3.324 2 6.16 2 9Z"/><path fill="#C8CBCC" id="ec" d="M349 226h1v-1l-1 1ZM349 226l-1 1 1-1Z"/><path fill="#8AD987" id="CTXsp" d="m341 237-4 1c0-2.009 2-2.991 2-5 1.572 0 7-2.052 7-4l1-1 1-1 1-1h1l2 4c-2.501 0-11 4.272-11 7Z"/><path fill="#99D2BD" id="OLF" d="m362 226-1 1 1-1ZM96 227l2 2-2-2Z"/><path fill="#8AD987" id="CTXsp" d="M117 233c0 2.297 3 1.849 3 5-6.549 0-9.351-8-16-8l3-3c3.428 0 6.206 6 10 6Z"/><path fill="#E64438" id="HY" d="M192 243c1.517 0 10-2.03 10 2 1.014 0 2-3.959 2-5-10.789 0-11 4.867-11-8l-9.5-1-4.5-4c-.286 0-3 6.302-3 7 5.208 0 16 3.47 16 9Z"/><path fill="#C8CBCC" id="ec" d="m348 227-1 1 1-1Z"/><path fill="#99D2BD" id="OLF" d="m361 227-1 1 1-1Z"/><path fill="#C8CBCC" id="ec" d="m347 228-1 1 1-1Z"/><path fill="#99D2BD" id="OLF" d="M125 264h2l5-3c0-4.943-3-8.241-3-13v-1l-2-2v-1c-3.291 0-3.675-6-7-6-6.549 0-9.351-8-16-8l-5-1 4.5 3c4.981 2.49 9.907 5.453 15 8 3.659 1.829 10.569 14.361 8.5 18.5l-2 5.5Z"/><path fill="#E64438" id="HY" d="M209 233h2l-2-4v4Z"/><path fill="#C8CBCC" id="ec" d="M346 229c-1.856 0-7 1.782-7 4 1.572 0 7-2.052 7-4Z"/><path fill="#99D2BD" id="OLF" d="m357 229-1 1 1-1Z"/><path fill="#FF5346" id="MPO" fill-rule="evenodd" d="m210 247-4 2.5c-1.997 1.997-13.389 12.055-6.5 15.5 8.439 4.22 26.755-18 10.5-18m-11 22c2.011 0 3.989 1 6 1l8-5c1.703 0 5-8.159 5-10l1-1c0-4.448 1.614-13 7-13v-10l-3-1c0 4.488-12 7.53-12 3h-2l-4 6-1 1c0 1.041-.986 5-2 5l-6 18v1l3 5ZM240 247l-1 4.5c2.227 4.454 14.559 21.882 20 11 3.516-7.033-11.933-15.5-19-15.5m17 22c-2.413 0-3.51 1-5 1-3.281 0-6.134-5-9-5l-4-8-1-2c0-4.327-1.806-13-7-13v-11h3l3.5 4c3.349 1.675 6.241-2 8.5-2h1l5 6c0 1.345 1.571 7 3 7 0 5.925 6 11.516 6 17v1l-4 5Z"/><path fill="#E64438" id="HY" d="M246 233h1v-3c-1.473 0-1 1.952-1 3Z"/><path fill="#99D2BD" id="OLF" d="m355 230-14 7c0-2.728 8.499-7 11-7h3Z"/><path fill="#97D6F9" id="STR" d="m156 231-1 1 1-1ZM301 231l1 1-1-1ZM154 232c-1.048 0-3-.473-3 1 1.048 0 3 .473 3-1ZM303 232l2 1-2-1ZM120 238c3.325 0 3.709 6 7 6l-3-5.5c1.253-2.505 12-.864 12-3.5l-8.5 1-10.5-3c0 2.297 3 1.849 3 5ZM151 233c-2.093 0-14 .461-14 2 2.418 0 14 .5 14-2ZM306 233c1.913 0 13 .612 13 2-2.361 0-13 .735-13-2ZM337 238c-2.773 0-3.67 4-6 4l1-3.5c-1.253-2.505-12-.864-12-3.5l8.5 1 10.5-3c0 2.009-2 2.991-2 5Z"/><path fill="#E64438" id="HY" d="m176 234-1 1 1-1Z"/><path fill="#A2B1D7" id="SI" d="m127 264 4.5 5c3.512 1.756 6.506 5.753 11 8 9.428 4.714 19.752 0 29.5 0 0-3.108-5.125-2.75-6-4.5-1.734-3.468 10.654-10.5 13-10.5l5-3c0-1.07 8-9.534 8-16 0-5.53-10.792-9-16-9l-1 1-10 5-1 1-7.5 8c-7.828 3.914-8.381 8-19.5 8l-5 4-5 3ZM329 263c0 2.183-3.405 3.31-4 4.5-8.223 16.446-26.977 9.5-41 9.5l7-5.5-3-3c-2.214-2.214-7.895-6.5-11-6.5l-4-3c0-1.222-6.024-6.547-7-8.5-.565-1.13-.836-7.5-2-7.5v-3c3.841 0 10.906-6 16-6 4.786 0 8.445 7 13 7 0 3.303 15.786 14.643 18.5 16h7.5l6 4 4 2Z"/><path fill="#99D2BD" id="OLF" d="m329 263 2 1c0-7.116-1.342-11.816 2-18.5l8-8.5-4 1c-2.773 0-3.67 4-6 4l-1 1-1 1v1l-1 2-1 1v1c0 4.475-2 7.225-2 12l4 2Z"/><path fill="#E64438" id="HY" d="m205 239-1 1 1-1ZM264 243c-3.184 0-9-2.386-9 3-1.429 0-3-5.655-3-7l1.5 2c2.977 1.489 8.046-1 10.5-1v3Z"/><path fill="#97D6F9" id="STR" d="m165 240-1 1 1-1Z"/><path fill="#FE5446" id="AVPV" d="M212 275h3l2-1 2-1 2-1c0-1.473 1.952-1 3-1h1l2-2v-25l-1-3c-5.386 0-7 8.552-7 13l-1 1c0 1.841-3.297 10-5 10 0 2.954-6.825 10-1 10Z"/><path fill="#F2473B" id="LPO" d="M195 263h1l6-18c0-4.03-8.483-2-10-2 0 6.466-8 14.93-8 16l1 2c4.058 0 6.292 2 10 2Z"/><path fill="#FE5446" id="AVPV" d="m238 273 7 2c5.324 0-2-7.907-2-10l-4-8-1-2c0-4.327-1.806-13-7-13l-2 2v5c0 6.642 1 14.002 1 20l2 2c1.424 0 5 .362 5 2h1Z"/><path fill="#F2473B" id="LPO" d="M261 263h1c3.489 0 5.32-2 9-2l2-2c0-1.222-6.024-6.547-7-8.5-.565-1.13-.836-7.5-2-7.5-3.184 0-9-2.386-9 3 0 5.925 6 11.516 6 17Z"/><path fill="#97D6F9" id="STR" d="m331 242-1 1 1-1ZM330 243l-1 1 1-1Z"/><path fill="#FD5447" id="OV" d="M227 249h2v-5h-2v5Z"/><path fill="#97D6F9" id="STR" d="m127 245 2 2-2-2ZM329 245l-1 2 1-2Z"/><path fill="#FE5447" id="AVP" d="m210 247-4 2.5c-1.997 1.997-13.389 12.055-6.5 15.5 8.439 4.22 26.755-18 10.5-18ZM240 247l-1 4.5c2.227 4.454 14.559 21.882 20 11 3.516-7.033-11.933-15.5-19-15.5Z"/><path fill="#97D6F9" id="STR" d="m328 247-1 1 1-1ZM137 257l-5 4c0-4.943-3-8.241-3-13 2.692 0 2.717 9 8 9Z"/><path fill="#A8A9AA" id="V3" d="M227 269c0 1.486 3 1.486 3 0 0-5.998-1-13.358-1-20h-2v20Z"/><path fill="#97D6F9" id="STR" d="m319 257 6 4c0-4.775 2-7.525 2-12-1.518 0-2.028 8-8 8Z"/><path fill="#FD4C3E" id="MPN" d="m219 254-1 1 1-1ZM238 255l1 2-1-2Z"/><path fill="#E64438" id="HY" d="m179 262 2 1c0-2.109 2.535-2 4-2l-1-2-5 3ZM277 262l-2 1c0-2.641-1.823-2-4-2l2-2 4 3Z"/><path fill="#96A6D3" id="NDB" d="m196 278-1 1c-3.214 0-14 .593-14-4v-12c0-2.109 2.535-2 4-2 4.058 0 6.292 2 10 2l1 1 3 5c0 3.455-3 5.917-3 9ZM261 279h9.5c1.362-.681 4.844-4 5.5-4 0-3.312-1-8.038-1-12 0-2.641-1.823-2-4-2-3.68 0-5.511 2-9 2l-1 1-4 5 3 8 1 2Z"/><path fill="#A2B1D8" id="MA" d="M172 277h4c0-1.014 3.959-2 5-2v-12l-2-1c-2.346 0-14.734 7.032-13 10.5.875 1.75 6 1.392 6 4.5ZM281 277h3l7-5.5-3-3c-2.214-2.214-7.895-6.5-11-6.5l-2 1c0 3.962 1 8.688 1 12 1.041 0 5 .986 5 2Z"/><path fill="#CAC8C7" id="lot" d="m117 276-1 1c-6.552 0-21-6.346-21-14 7.027 0 13.712 8 21 8l1 3v2Z"/><path fill="#CBCCCB" id="mfb" d="M196 263v1l-1-1h1ZM262 263l-1 1v-1h1Z"/><path fill="#7FCCF7" id="OT" d="M335 281c0 4.336-6.168 8.334-9.5 10-13.948 6.974-21.953 13.023-38 5-3.716-1.858-14.5-1.704-14.5-8 0-4.938.441-11 8-11h3c14.023 0 32.777 6.946 41-9.5.595-1.19 4-2.317 4-4.5l2 1 7 7v2l-1 4-1 2v1l-1 1Z"/><path fill="#CAC8C7" id="lot" d="M340 276v1c5.392 0 22-7.401 22-13-6.976 0-14.376 7-22 7l-1 2v2l1 1Z"/><path fill="#7FCCF7" id="OT" d="m184 288-1 1c0 5.288-11.616 5.558-14.5 7-13.913 6.956-23.491 2.254-36-4-3.764-1.882-11.5-6.948-11.5-12 0-2.16-2-4.167-2-7v-2c0-3.22 6-4.481 6-7h2l4.5 5c3.512 1.756 6.506 5.753 11 8 9.428 4.714 19.752 0 29.5 0h4c6.85 0 8 6.539 8 11Z"/><path fill="#E64438" id="HY" d="M205 278h2l1-1 4-2c-5.825 0 1-7.046 1-10l-8 5v8ZM248 277l3 1c0-2.707 1-5.903 1-8-3.281 0-6.134-5-9-5 0 2.093 7.324 10 2 10l1 1 1 1h1Z"/><path fill="#FE5546" id="VLPO" d="M197 279h8v-9c-2.011 0-3.989-1-6-1 0 3.455-3 5.917-3 9l1 1ZM251 278c0 1.751 7.426 1 9 1v-2l-3-8c-2.413 0-3.51 1-5 1 0 2.097-1 5.293-1 8Z"/><path fill="#99D2BD" id="OLF" d="m119 273-2 1-1-3h3v2Z"/><path fill="#CAC7CB" id="fiber tracts" d="M224 271c-1.048 0-3-.473-3 1 1.048 0 3 .473 3-1Z"/><path fill="#CBCACC" id="och" d="m217 274-2 1c0 2.942-12.712 5.076-10 10.5 1.876 3.752 30.441 2.5 35.5 2.5 3.222 0 8.824.851 10.5-2.5 2.879-5.757-13-10.073-13-12.5h-1c-1.041 0-5-.986-5-2h-2l-1 1h-2l-1-1h-2c0 1.473-1.952 1-3 1l-2 1-2 1Z"/><path fill="#CAC7CB" id="fiber tracts" d="m226 271 1 1-1-1ZM230 271l-1 1 1-1ZM232 271c1.424 0 5 .362 5 2-1.041 0-5-.986-5-2Z"/><path fill="#99D2BD" id="OLF" d="M338 273h1l1-2h-2v2Z"/><path fill="#CAC7CB" id="fiber tracts" d="m221 272-2 1 2-1Z"/><path fill="#97D6F9" id="STR" d="M117 277c2.618 0 1.651 3 4 3 0-2.16-2-4.167-2-7l-2 1v3Z"/><path fill="#CAC7CB" id="fiber tracts" d="m219 273-2 1 2-1ZM207 278l-2 1-3 7.5c1.567 3.134 33.202 4.149 36.5 2.5 3.966-1.983 9.85.075 14-2l2.5-.5c0-3.399-7-7.222-7-9.5h-1l-1-1-1-1-7-2c0 2.427 15.879 6.743 13 12.5-1.676 3.351-7.278 2.5-10.5 2.5-5.059 0-33.624 1.252-35.5-2.5-2.712-5.424 10-7.558 10-10.5h-3l-4 2-1 1Z"/><path fill="#97D6F9" id="STR" d="M337 277h3v-1l-1-1v-2h-1l-1 4Z"/><path fill="#CAC7CB" id="fiber tracts" d="m217 274-2 1 2-1Z"/><path fill="#8599CC" id="PAL" d="M195 279c0 1.465-9.557 9-11 9 0-4.461-1.15-11-8-11 0-1.014 3.959-2 5-2 0 4.593 10.786 4 14 4ZM262 279c0 2.473 9.033 9 11 9 0-4.938.441-11 8-11 0-1.014-3.959-2-5-2-.656 0-4.138 3.319-5.5 4H262Z"/><path fill="#99D2BD" id="OLF" d="m339 275 1 1-1-1ZM116 277h1v-1l-1 1Z"/><path fill="#E64438" id="HY" d="M260 279h1l-1-2v2Z"/><path fill="#97D6F9" id="STR" d="m337 277-1 2 1-2Z"/><path fill="#E64438" id="HY" d="M195 279h2l-1-1-1 1Z"/><path fill="#97D6F9" id="STR" d="m336 280-1 1 1-1Z"/><path fill="#8599CC" id="PAL" d="m184 288-1 1 1-1Z"/></svg>