<svg xmlns="http://www.w3.org/2000/svg" viewBox="0 0 456 320"><path fill="#1E9D5A" id="MOp1" d="M198 29c-9.256 0-17.019 2-26 2l1-6c5.9 0 13.66-2 19.5-2 1.363 0 6.5-.7 6.5 1l-1 5Z"/><path fill="#1E9C59" id="MOs1" d="M230 39c1.24 0 1.576 2 4 2l6.5-8c6.285-3.143 10.775-4 18.5-4l-1-6c-10.335 0-17.079 4.578-24 11.5l-4 4.5Z"/><path fill="#1E9D5A" id="MOp1" d="M259 29c9.256 0 17.019 2 26 2 0-2.33-2-3.227-2-6-8.088 0-16.642-2-25-2l1 6Z"/><path fill="#1E9C59" id="MOs1" d="m227 39-4 2-8.5-9c-5.417-2.709-9.867-3-16.5-3l1-5c11.165 0 16.5 3 24.5 11l3.5 4Z"/><path fill="#187F60" id="SSp-ll1" d="M135 40h1c3.196 0 6.751-2.625 9.5-4 6.504-3.252 17.884-5 25.5-5h1l1-6c-9.662 0-22.353 1.926-30.5 6l-9.5 4 2 5ZM323 35l-2 5c-3.935 0-9.075-3.287-12.5-5-5.794-2.897-16.738-4-23.5-4 0-2.33-2-3.227-2-6 6.768 0 26.362 3.43 31.5 6 2.456 1.228 5.685 4 8.5 4Z"/><path fill="#1F9C58" id="MOp2/3" d="m169 45-1 6c4.425 0 18.094-12 28-12l2-10c-9.256 0-17.019 2-26 2h-1c0 5.307-2 9.324-2 14Z"/><path fill="#1E9D58" id="MOs2/3" d="M216 46h1c0-1.028 4.666-4 6-4v-1l-8.5-9c-5.417-2.709-9.867-3-16.5-3l-2 10c5.719 0 20-1.57 20 7ZM234 42l6 3c1.699 0 5.562-5.031 7.5-6H260l-1-10c-7.725 0-12.215.857-18.5 4l-6.5 8v1Z"/><path fill="#1F9C58" id="MOp2/3" d="m288 45 1 6c-6.695 0-17.591-12-28-12h-1l-1-10c9.256 0 17.019 2 26 2 0 5.051 3 9.682 3 14Z"/><path fill="#187F64" id="SSp-ll2/3" d="M143 52h1c8.186 0 16.141-7 25-7 0-4.676 2-8.693 2-14-7.616 0-18.996 1.748-25.5 5-2.749 1.375-6.304 4-9.5 4l7 12ZM288 45c8.721 0 16.816 7 25 7 0-.214 6.63-11 8-11v-1c-3.935 0-9.075-3.287-12.5-5-5.794-2.897-16.738-4-23.5-4 0 5.051 3 9.682 3 14Z"/><path fill="#197E64" id="SSp-ul1" d="m110 46 1 5c6.287 0 11.227-5.364 16.5-8 1.433-.716 7.5-.838 7.5-3l-2-5c-5.347 0-11.839 5.67-16.5 8-1.139.57-6.5 1.675-6.5 3ZM346 46l-1 5c-8.539 0-15.074-10-24-10v-1l2-5c5.529 0 12.663 5.581 17.5 8 1.216.608 5.5 1.184 5.5 3Z"/><path fill="#1E9C5A" id="MOp5" d="M190 56c-8.467 0-15.476 11-24 11l1-15 1-1c4.425 0 18.094-12 28-12 0 5.112-5 10.68-5 16l-1 1Z"/><path fill="#1F9D58" id="MOs5" d="M191 55c1.801 0 14-5.087 14 1l8-7.5 3-2.5c0-8.57-14.281-7-20-7 0 5.112-5 10.68-5 16Z"/><path fill="#3EA665" id="ACAd1" d="M233 64c-3.325 0-7.31 1-10 1V41l4-2c0 3.803 2.524 0 3 0 1.24 0 1.576 2 4 2v1c0 6.9-1 14.536-1 22Z"/><path fill="#1F9D58" id="MOs5" d="M251 55c2.839 0 6.121-3.69 9.5-2l4.5 2c0-5.965-4-10.226-4-16h-13.5c-1.938.969-5.801 6-7.5 6v1c4.224 0 7.093 9 11 9Z"/><path fill="#1E9C5A" id="MOp5" d="M266 55c5.44 0 17.609 12 25 12 0-6.27-2-9.319-2-16-6.695 0-17.591-12-28-12 0 5.774 4 10.035 4 16h1Z"/><path fill="#197F61" id="SSp-ul2/3" d="M143 52c0 1.55-6.228 2.364-7.5 3L115 65c0-2.13-2.183-13-4-13v-1c6.287 0 11.227-5.364 16.5-8 1.433-.716 7.5-.838 7.5-3h1l7 12ZM313 53c9.404 0 20.297 12 28 12l4-13v-1c-8.539 0-15.074-10-24-10-1.37 0-8 10.786-8 11v1Z"/><path fill="#40A565" id="ACAd2/3" d="m223 65-5 1-1-20c0-1.028 4.666-4 6-4v23ZM233 65l6 1c0-6.573 1-14.1 1-20v-1l-6-3c0 6.9-1 14.536-1 22v1Z"/><path fill="#1C7F64" id="SSp-ll4" d="M167 52c-7.205 0-13.039 7-20 7 0-2.933-3-3.736-3-7 8.186 0 16.141-7 25-7l-1 6-1 1ZM313 53l-4 6c-5.033 0-15.731-8-20-8l-1-6c8.721 0 16.816 7 25 7v1Z"/><path fill="#1B8062" id="SSp-un1" d="m96 54-2 8 17-10v-1l-1-5c-1.827 0-14 6.617-14 8Z"/><path fill="#3EA566" id="ACAd5" d="M218 66c-4.399 0-7.001 5-11 5 0-2.24-.165-14-2-14v-1l8-7.5 3-2.5h1l1 20ZM239 66l10 5c0-4.035 2-10.015 2-14v-2c-3.907 0-6.776-9-11-9 0 5.9-1 13.427-1 20Z"/><path fill="#1B8062" id="SSp-un1" d="M365 62v1c-7.009 0-12.987-11-20-11v-1l1-5c2.25 0 15 6.59 15 9 0 2.829.549 7 4 7Z"/><path fill="#197C63" id="SSp-ll5" d="m168 51-1 1 1-1ZM303 72h1c0-5.27 5-8.108 5-13-5.033 0-15.731-8-20-8 0 6.681 2 9.73 2 16v1c1.666 0 12 2.956 12 4Z"/><path fill="#1C7F63" id="SSp-un2/3" d="M99 73h1l15-7v-1c0-2.13-2.183-13-4-13L94 62h-1l-1 1c0 3.594 7 6.782 7 10Z"/><path fill="#1A7F63" id="SSp-ul4" d="M118 73h1l28-14c0-2.933-3-3.736-3-7h-1c0 1.55-6.228 2.364-7.5 3L115 65v1c1.732 0 3 5.353 3 7Z"/><path fill="#197C63" id="SSp-ll5" d="M165 68c-4.186 0-7.431 3-12 3l-6-12c6.961 0 12.795-7 20-7l-1 15-1 1Z"/><path fill="#1C7F63" id="SSp-un2/3" d="M356 73h1c0-1.763 6.298-9 8-9v-1c-7.009 0-12.987-11-20-11l-4 13 15 8Z"/><path fill="#1D9C5A" id="MOs6a" d="M188 77h2c0-1.58 2.855-1 4-1 0-2.574 9.05-19 11-19v-1c0-6.087-12.199-1-14-1l-1 1c0 4.804-3 9.934-3 14.5 0 1.673 1 4.162 1 6.5ZM268 77h1c0-8.13-3-14.624-3-22h-1l-4.5-2c-3.379-1.69-6.661 2-9.5 2v2c3.489 0 11 15.811 11 19h1l5 1Z"/><path fill="#1A7F63" id="SSp-ul4" d="m341 65-3 8c-4.847 0-22.985-14-29-14l4-6c9.404 0 20.297 12 28 12Z"/><path fill="#188060" id="SSp-bfd1" d="M93 62h1l2-8-8 5c0 1.577 1.762 2 3 2l2 1Z"/><path fill="#1F9B5A" id="MOp6a" d="m191 55-1 1 1-1ZM291 85h1c0-4.37-1-10.972-1-17v-1c-7.391 0-19.56-12-25-12 0 7.376 3 13.87 3 22l22 8Z"/><path fill="#188060" id="SSp-bfd1" d="m369 60-4 2c-3.451 0-4-4.171-4-7 1.949 0 8 3.45 8 5Z"/><path fill="#1F9B5A" id="MOp6a" d="M165 85h2c0-2.267 9.814-4 12-4 0-2.46 3.378-2 5-2l4-2c0-2.338-1-4.827-1-6.5 0-4.566 3-9.696 3-14.5-8.467 0-15.476 11-24 11l-1 1v17Z"/><path fill="#3FA664" id="ACAd6a" d="m194 76 5 3c3.185 0 5.044-6 8-6v-2c0-2.24-.165-14-2-14-1.95 0-11 16.426-11 19ZM258 79h1c0-1.747.253-2 2-2l1-1c0-3.189-7.511-19-11-19 0 3.985-2 9.965-2 14v1c3.398 0 5.13 7 9 7Z"/><path fill="#197E63" id="SSp-n1" d="M54 111h1c0-11.235 11.264-20.029 16-29.5l10-10c1.547-3.094 10-4.225 10-8.5v-2c-1.238 0-3-.423-3-2-3.532 0-7.186 6.843-9.5 8C70.308 71.096 49 99.27 49 109c2.523 0 1.96 2 5 2Z"/><path fill="#187E62" id="SSp-ul5" d="M119 73c0 1.674 2.758 11 4 11 5.746 0 22.319-12 30-12v-1l-6-12-28 14ZM333 85h1l4-12c-4.847 0-22.985-14-29-14 0 4.892-5 7.73-5 13 6.592 0 15.728 6.114 21.5 9 1.35.675 7.5 2.239 7.5 4Z"/><path fill="#197E63" id="SSp-n1" d="M402 112h1l4-4c0-10.847-17.18-29.68-25-37.5-3.104-3.104-8.875-10.5-13-10.5l-4 2v2l8.5 7c9.697 4.849 28.5 31.222 28.5 41Z"/><path fill="#1B8062" id="SSp-un1" d="M91 63h1l1-1-2-1v2Z"/><path fill="#1B7F64" id="SSp-n2/3" d="M62 117h1c0-10.266 14.4-27.9 21.5-35l9-7c1.319-.66 5.5.334 5.5-2 0-3.218-7-6.406-7-10h-1c0 4.275-8.453 5.406-10 8.5l-10 10c-4.736 9.471-16 18.265-16 29.5l7 6Z"/><path fill="#40A664" id="ACAv1" d="m229 89 5 6c0-9.624-1-19.833-1-30v-1c-3.325 0-7.31 1-10 1 0 10.355-1 21.268-1 31l5-7c0-4.252 2-4.466 2 0Z"/><path fill="#1B7F64" id="SSp-n2/3" d="M402 112c-3.944 0-5.79 5-8 5l-6-12.5c-4.481-8.961-19.318-31.5-31-31.5 0-1.763 6.298-9 8-9l8.5 7c9.697 4.849 28.5 31.222 28.5 41Z"/><path fill="#3FA566" id="ACAv2/3" d="m222 96-3 2c0-9.91-1-21.42-1-32l5-1c0 10.355-1 21.268-1 31ZM234 97l4 1 1-32-6-1c0 10.167 1 20.376 1 30v2Z"/><path fill="#197E61" id="SSp-un4" d="M350 80h1l5-7-15-8-3 8 12 7ZM118 73l-12 7c-1.59 0-6-5.662-6-7l15-7c1.732 0 3 5.353 3 7Z"/><path fill="#3EA666" id="ACAv5" d="M210 96c2.84 0 5.676 2 9 2 0-9.91-1-21.42-1-32-4.399 0-7.001 5-11 5v2c0 8.308 3 15.16 3 23ZM246 96c-2.522 0-4.909 2-8 2l1-32 10 5v1c0 8.748-3 16.195-3 24Z"/><path fill="#1A7F64" id="SSp-ll6a" d="m166 67-1 1 1-1ZM165 85l-7 3-5-16v-1c4.569 0 7.814-3 12-3v17ZM292 85l6 3c0-5.454 5-10.23 5-16 0-1.044-10.334-4-12-4 0 6.028 1 12.63 1 17Z"/><path fill="#197D61" id="SSp-ul6a" d="M138 97c-3.647 0-5.609 3-9 3-.978 0-6-13.199-6-15v-1c5.746 0 22.319-12 30-12l5 16c-1.524 0-13.274 5.887-15.5 7-.93.465-4.5.817-4.5 2Z"/><path fill="#40A564" id="ACAv6a" d="M246 96h1l1-1c0-2.195 3.089-6 5-6 0-1.327 3.988-9 5-9v-1c-3.87 0-5.602-7-9-7 0 8.748-3 16.195-3 24Z"/><path fill="#197D61" id="SSp-ul6a" d="M298 88c2.911 0 5.96 3.73 8.5 5 .691.346 21.471 7 21.5 7 0-5.358 5-9.516 5-15 0-1.761-6.15-3.325-7.5-4-5.772-2.886-14.908-9-21.5-9h-1c0 5.77-5 10.546-5 16Z"/><path fill="#1A8062" id="SSp-n4" d="M63 117c0 .81 5.22 4 6 4 0-7.848 20.574-30.537 27.5-34 3.22-1.61 5.688-6 9.5-6v-1c-1.59 0-6-5.662-6-7h-1c0 2.334-4.181 1.34-5.5 2l-9 7C77.4 89.1 63 106.734 63 117Z"/><path fill="#197D62" id="SSp-un5" d="m123 85-10 5c0-1.77-5.978-9-7-9v-1l12-7h1c0 1.674 2.758 11 4 11v1Z"/><path fill="#40A564" id="ACAv6a" d="M209 96h1c0-7.84-3-14.692-3-23-2.956 0-4.815 6-8 6v1c0 5.466 9 9.615 9 14l1 2Z"/><path fill="#197D62" id="SSp-un5" d="M343 90h1l6-10-12-7-4 12 9 5Z"/><path fill="#1A8062" id="SSp-n4" d="M387 121h1l6-4-6-12.5c-4.481-8.961-19.318-31.5-31-31.5h-1l-5 7c0 1.811 9.729 7.115 11.5 8 6.458 3.229 24.5 27.109 24.5 33Z"/><path fill="#1E9C58" id="MOs6b" d="M190 77h4v-1c-1.145 0-4-.58-4 1Z"/><path fill="#3FA466" id="ACAd6b" d="M198 80h1v-1l-5-3v1l4 3ZM261 77h2v-1h-1l-1 1Z"/><path fill="#1E9C58" id="MOs6b" d="M268 77v1l-5-1v-1l5 1Z"/><path fill="#1D9D5A" id="MOp6b" d="M188 78c0 1.58-2.855 1-4 1l4-2v1Z"/><path fill="#1E9C58" id="MOs6b" d="m190 77-2 1v-1h2Z"/><path fill="#CACCC7" id="cing" d="m208 94 1 2c-7.951 0-10.899-9.7-17.5-13-6.649-3.325-14.599 4-20.5 4l-1 1h-8l3-2 2-1c2.029 0 12-2.051 12-4 1.424 0 5-.362 5-2 1.145 0 4 .58 4-1l2-1h4l4 3c0 3.504 6.229 14 10 14Z"/><path fill="#3FA466" id="ACAd6b" d="M261 77c-1.747 0-2 .253-2 2l2-2Z"/><path fill="#CACCC7" id="cing" d="M253 89c0 2.773-4 3.67-4 6 6.801 0 10.811-9.156 16.5-12 6.345-3.173 13.949 4 19.5 4l1 1h8l-2-1c-3.613 0-13.966-5.233-17.5-7-1.053-.527-6.5-.851-6.5-2l-5-1h-2l-2 2v1c0 2.195-3.99 9-6 9Z"/><path fill="#1D9D5A" id="MOp6b" d="m291 85 1 2c-3.613 0-13.966-5.233-17.5-7-1.053-.527-6.5-.851-6.5-2v-1h1l22 8ZM184 79c-1.622 0-5-.46-5 2 1.424 0 5-.362 5-2Z"/><path fill="#3FA466" id="ACAd6b" d="M258 80h1v-1h-1v1Z"/><path fill="#40A465" id="ACAv6b" d="M199 80c0 5.466 9 9.615 9 14-3.771 0-10-10.496-10-14h1ZM259 80c0 2.195-3.99 9-6 9 0-1.327 3.988-9 5-9h1Z"/><path fill="#197E62" id="SSp-n5" d="M387 121c0 1.89-6.374 6-8 6l-3-5.5c-2.425-4.851-5.576-11.576-9.5-15.5-5.398-5.398-12.215-7.215-17-12l-5.5-4 6-10h1c0 1.811 9.729 7.115 11.5 8 6.458 3.229 24.5 27.109 24.5 33ZM77 128h1c0-10.187 15.59-26.545 24.5-31l10.5-7c0-1.77-5.978-9-7-9-3.812 0-6.28 4.39-9.5 6-6.926 3.463-27.5 26.152-27.5 34v1c1.505 0 8 4.197 8 6Z"/><path fill="#1D9D5A" id="MOp6b" d="M179 81c-2.186 0-12 1.733-12 4 2.029 0 12-2.051 12-4Z"/><path fill="#C9C7C9" id="ccb" d="M369 153c0 2.885 2 4.697 2 8-1.486 0-11.045-24.272-14.5-26-5.776-2.888-9.891-14.445-17-18l-11-8c-12.972-6.486-19.095-6-33.5-6 0-5.84-10.152-10-15-10-1.257 0-8-2.46-8 0-1.235 0-5-.643-5 1l-2 1c-4.395 0-8.272 7-12 7-4.824 0-8.915 3-13 3 0-.672-4.329-2-5-2-2.998 0-7.358 1-11 1l-3.5-1-3.5 2c-4.271 0-8.053-3-13-3-4.524 0-8.018-7-13-7l-1-1h-1c0-2.883-18-1.567-18 1-1.465 0-4-.109-4 2-2.344 0-6 3.726-6 6-13.021 0-21.964.232-33.5 6-4.531 2.266-7.392 7.696-12 10l-10.5 9.5c-4.409 8.819-11.628 16.256-16 25-.821 1.642-1.379 8.5-4 8.5 0-3.855 3-6.459 3-10l1-2v-1l1-2 1-2 2-4 2-4 1-2 1-2 2-2 1-2c1.712 0 3-2.571 3-4 1.747 0 2-.253 2-2l2-2 8-8 2-2c2.212 0 11.798-6.649 14.5-8l27-9 10.5-6h1l1-1c5.901 0 13.851-7.325 20.5-4 6.601 3.3 9.549 13 17.5 13h1c2.84 0 5.676 2 9 2l3-2c0 3.664 6.104 0 6.5 0l1 2 4.5-1 4 1c3.091 0 5.478-2 8-2h1l2-1c6.801 0 10.811-9.156 16.5-12 6.345-3.173 13.949 4 19.5 4l1 1h1c0 2.315 8.754 4.127 10.5 5 11.564 5.782 24.435 8.217 36 14 8.759 4.38 23.264 21.029 27.5 29.5l6 11.5v1l1 2v1l1 1Z"/><path fill="#1A7F61" id="SSp-un6a" d="m125 103-4 1c-2.341 0-1.421-2.342-2-3.5-1.627-3.255-6-7.534-6-10.5l10-5c0 1.801 5.022 15 6 15v1c-1.465 0-4-.109-4 2Z"/><path fill="#197F62" id="SSp-ll6b" d="m162 88-4 1v-1l7-3v1l-3 2Z"/><path fill="#1D9D5A" id="MOp6b" d="m167 85-2 1v-1h2Z"/><path fill="#197F62" id="SSp-ll6b" d="M298 88v1l-4-1-2-1-1-2h1l6 3Z"/><path fill="#1A7F61" id="SSp-un6a" d="M335 105h1c0-5.547 7-9.287 7-15l-9-5h-1c0 5.484-5 9.642-5 15v1c1.572 0 7 2.052 7 4Z"/><path fill="#C9C9CA" id="scwm" d="m171 87-1 1 1-1ZM285 87l1 1-1-1Z"/><path fill="#1C8064" id="SSp-ul6b" d="M158 89c0 2.52-16.869 8-20 8 0-1.183 3.57-1.535 4.5-2 2.226-1.113 13.976-7 15.5-7v1Z"/><path fill="#C9C9CA" id="scwm" d="M117 109v2c2.212 0 11.798-6.649 14.5-8l27-9 10.5-6h-7l-4 1c0 2.52-16.869 8-20 8 0 2.066-6.92 4-9 4l-4 2-4 3-2 1c0 1.747-.253 2-2 2ZM364 140c0 2.892 3 4.781 3 8l-6-11.5c-4.236-8.471-18.741-25.12-27.5-29.5-11.565-5.783-24.436-8.218-36-14-1.746-.873-10.5-2.685-10.5-5h7l4 1c2.635 0 23.224 12 30 12 0 1.948 5.428 4 7 4l5.5 6c5.084 5.084 10.152 11.152 15 16l5.5 7 3 6Z"/><path fill="#1C8064" id="SSp-ul6b" d="M328 100v1c-6.776 0-27.365-12-30-12v-1c2.911 0 5.96 3.73 8.5 5 .691.346 21.471 7 21.5 7Z"/><path fill="#7ED04B" id="IG" d="M222 96c0 3.664 6.104 0 6.5 0l1 2 4.5-1v-2l-5-6c0 3.746-.8 0-2 0l-5 7Z"/><path fill="#40A465" id="ACAv6b" d="M248 95h1c0-2.33 4-3.227 4-6-1.911 0-5 3.805-5 6Z"/><path fill="#187D62" id="SSp-n6a" d="M87 135h6l2-1c0-1.238.423-3 2-3 0-1.417 2.383-6 4-6l2-2 2-2c0-2.839 7.161-10 10-10 0-1.747.253-2 2-2 0-1.747.253-2 2-2l2-2v-1c-2.341 0-1.421-2.342-2-3.5-1.627-3.255-6-7.534-6-10.5l-10.5 7c-8.91 4.455-24.5 20.813-24.5 31 0 1.821 7.338 7 9 7ZM362 134l7 2c0-1.137 9.139-7 10-7v-2l-3-5.5c-2.425-4.851-5.576-11.576-9.5-15.5-5.398-5.398-12.215-7.215-17-12l-5.5-4h-1c0 5.713-7 9.453-7 15l7 6.5c4.315 4.315 19 17.574 19 22.5Z"/><path fill="#AAA8A9" id="SEZ" d="M189 94c-6.518 0-11.377 1-18 1 0-2.567 18-3.883 18-1ZM295 103l-3 1c0-8.78-13.102-11-20-11 0-2.46 6.743 0 8 0 4.848 0 15 4.16 15 10Z"/><path fill="#A8AAAA" id="VL" fill-rule="evenodd" d="M192 111c0 3.497-21.637 18.932-9.5 25 2.286 1.143 4.468-3.468 5.5-4.5 3.188-3.188 12.911-20.5 4-20.5m1 43v13c-6.149 0-10.076-9.653-12-13.5-.659-1.319.334-5.5-2-5.5v-1l-1-2c0-7.93.343-18.814-3-25.5L165 104c0-3.162 2-5.165 2-7 1.465 0 4 .109 4-2 6.623 0 11.482-1 18-1h1l1 1c4.982 0 8.476 7 13 7 0 5.402-9 17.543-9 26-2.058 0-5.209 6.918-6 8.5l-8 8c-1.798 3.595 2.507 9.004 5.5 10.5l6.5-1Z"/><path fill="#AAA8A9" id="SEZ" d="M272 93c-1.235 0-5-.643-5 1 1.235 0 5 .643 5-1Z"/><path fill="#A8AAAA" id="VL" fill-rule="evenodd" d="M262 111c0 6.264-.166 16.667 6.5 20 1.478.739 2.776 6.612 6 5 8.468-4.234-6.717-25-12.5-25m2 43v13c3.976 0 9.52-8.539 11-11.5.84-1.68.504-9.5 3-9.5v-2c0-15.345 1.731-17.962 8-30.5.813-1.626 4.09-9.5 6-9.5 0-8.78-13.102-11-20-11 0 1.643-3.765 1-5 1l-2 1c-4.395 0-8.272 7-12 7 0 8.053 8 15.54 8 24 1.473 0 1 1.952 1 3 1.818 0 6.172 7.844 7 9.5l6 6c1.562 3.124-1.731 9.115-4.5 10.5-2.161 1.081-4.894-1-6.5-1Z"/><path fill="#AAA8A9" id="SEZ" d="m190 94 1 1-1-1ZM267 94l-2 1 2-1ZM171 95c-1.465 0-4-.109-4 2 1.465 0 4 .109 4-2Z"/><path fill="#CACCC7" id="cing" d="m249 95-2 1 1-1h1Z"/><path fill="#1C8064" id="SSp-ul6b" d="M129 100v1c2.08 0 9-1.934 9-4-3.647 0-5.609 3-9 3Z"/><path fill="#AAA8A9" id="SEZ" d="m161 103 4 1c0-3.162 2-5.165 2-7-2.344 0-6 3.726-6 6Z"/><path fill="#1A7D63" id="SSp-un6b" d="M129 101c-1.465 0-4-.109-4 2l4-2ZM328 101c1.572 0 7 2.052 7 4-1.572 0-7-2.052-7-4Z"/><path fill="#98D5F9" id="CP" d="M132 229c-3.477 0-6.578 2.539-9.5 4h-6l-3.5 2c-7.987 0-15.49-15-18-15v-1c0-1.238-.423-3-2-3v-1l-2-4v-1c0-1.662-3.441-11-5-11v-1c0-2.772-1.833-5.167-3-7.5L82 173v-2l1-2v-2l1-2 1-2v-1c2.621 0 3.179-6.858 4-8.5 4.372-8.744 11.591-16.181 16-25l10.5-9.5c4.608-2.304 7.469-7.734 12-10 11.536-5.768 20.479-6 33.5-6l4 1 10 15.5c3.343 6.686 3 17.57 3 25.5v2c-.684 0-2.411 5.955-4.5 7-3.194 1.597-5.216 0-8.5 0-3.71 0-6 .914-6 5-1.888 0-2 8.072-2 10 0 2.948-6.566 9.631-8 12.5-.884 1.769-2 16.14-2 18.5 0 6.272-1.357 14.213-4 19.5l-5 5.5h-1l-1 1-4 3Z"/><path fill="#90CBEC" id="LSc" d="m195 128 1 1c4.656 0 7.78-2 12-2l3-3 1-1 1-1 1-1 1-1 1-1 1-1c0-2.83 4-4.54 4-7l1-1-1-3-4-2c-4.271 0-8.053-3-13-3 0 5.402-9 17.543-9 26ZM249 127c3.911 0 6.607 2 11 2l1-3c0-8.46-8-15.947-8-24-4.824 0-8.915 3-13 3l-5 2v3c0 3.46 4 4.215 4 7l1 1 1 2 1 1 2 2 2 2 3 2Z"/><path fill="#98D5F9" id="CP" d="m353 231-9 4c0-2.652-8.737-1.119-10.5-2l-8.5-4-4-3-1-1h-1l-5-4.5-3-7c-.885-1.77.431-11.5-2-11.5 0-6.258.65-16.2-2-21.5-1.532-3.064-7-8.098-7-11.5 0-1.506-1.804-12-3-12 0-3.026-3.41-3-6-3-2.77 0-8.206 2.088-10-1.5-.475-.949-2.665-8.5-3-8.5 0-15.345 1.731-17.962 8-30.5.813-1.626 4.09-9.5 6-9.5l3-1c14.405 0 20.528-.486 33.5 6l11 8c7.109 3.555 11.224 15.112 17 18 3.455 1.728 13.014 26 14.5 26v1c0 1.041.986 5 2 5v1l1 1v2l1 2v5c-.835 0-2 11.646-2 13v2c-2.109 0-2 2.535-2 4-1.995 0-2 4.377-2 6-1.89 0-3 4.598-3 6l-1 2v1l-1 2-1 2v1c-1.577 0-2 1.762-2 3v1c-1.577 0-2 1.762-2 3-1.988 0-6 5.237-6 7Z"/><path fill="#1A7D63" id="SSp-un6b" d="M121 105v1l4-3-4 1v1Z"/><path fill="#CBC8CC" id="df" d="M225 108h6l4-1 5-2c0-.672-4.329-2-5-2-2.998 0-7.358 1-11 1l-3.5-1-3.5 2 4 2 4 1Z"/><path fill="#1B7E64" id="SSp-n6b" d="m121 106-2 1 2-2v1ZM361 134h1c0-4.926-14.685-18.185-19-22.5l-7-6.5h-1l5.5 6c5.084 5.084 10.152 11.152 15 16l5.5 7ZM119 107c-1.747 0-2 .253-2 2 1.747 0 2-.253 2-2Z"/><path fill="#97D6F9" id="STR" d="m225 108-3 2-1-3 4 1Z"/><path fill="#8FCBEC" id="SF" fill-rule="evenodd" d="M225 119c0 1.105-18.276 10.948-14 19.5l11.5.5h22c5.408-2.704-6.147-15.573-9-17-3.962-1.981-5.598-3-10.5-3m18 27-1 3.5c0 1.816 2.734 1.117 3.5 1.5 2.569 1.285 11.5 5.47 11.5 0 0-5.631-7.552-11.605-10-16.5-.825-1.65-.268-7.5 2-7.5l-3-2-2-2-2-2-1-1-1-2-1-1c0-2.785-4-3.54-4-7l-4-2h-6l-3 2-1 1c0 2.46-4 4.17-4 7l-1 1-1 1-1 1-1 1-1 1-1 1-3 3c0 1.791 3.27 2.959 2 5.5L199 151c0 5.368 13.606 1.288 15-1.5l-1-4.5c0-7.479 30-5.83 30-1 1.399 0 1.399 2 0 2Z"/><path fill="#97D6F9" id="STR" d="m231 108 4 2v-3l-4 1Z"/><path fill="#1A7E62" id="SSs1" d="M417 175h4c0-17.617-.685-35.869-8-50.5-1.031-2.063-4.166-16.5-6-16.5l-4 4 8 21.5c4.438 8.877 6 30.633 6 41.5ZM35 175h5c0-9.433 1.496-33.493 5-40.5l9-23.5c-3.04 0-2.477-2-5-2-2.308 0-4.016 11.533-5 13.5-7.486 14.971-9 34.551-9 52.5Z"/><path fill="#1B7E64" id="SSp-n6b" d="M115 111h2v-2c-1.747 0-2 .253-2 2Z"/><path fill="#97D6F9" id="STR" d="m222 110-1 1 1-1Z"/><path fill="#1B8063" id="SSs2/3" d="M40 175h7c0-6.645 5.398-34.296 8-39.5 2.403-4.806 7-13.046 7-18.5l-7-6h-1l-9 23.5c-3.504 7.007-5 31.067-5 40.5Z"/><path fill="#1B7E64" id="SSp-n6b" d="M105 121h2c0-2.664 5.336-8 8-8v-2c-2.839 0-10 7.161-10 10Z"/><path fill="#C9C9CA" id="scwm" d="m117 111-2 2v-2h2Z"/><path fill="#A9AAA8" id="chpl" d="M192 111c0 3.497-21.637 18.932-9.5 25 2.286 1.143 4.468-3.468 5.5-4.5 3.188-3.188 12.911-20.5 4-20.5ZM262 111c0 6.264-.166 16.667 6.5 20 1.478.739 2.776 6.612 6 5 8.468-4.234-6.717-25-12.5-25Z"/><path fill="#1B8063" id="SSs2/3" d="M409 175h8c0-10.867-1.562-32.623-6-41.5l-8-21.5h-1c-3.944 0-5.79 5-8 5 0 4.743 4.857 13.213 7 17.5 3.758 7.516 8 31.211 8 40.5Z"/><path fill="#C9C9CA" id="scwm" d="M115 113c-2.664 0-8 5.336-8 8l8-8Z"/><path fill="#187C63" id="SSs4" d="M53 175h1c0-14.297 3.043-28.587 9-40.5 1.032-2.064 3.184-12.5 6-12.5v-1c-.78 0-6-3.19-6-4h-1c0 5.454-4.597 13.694-7 18.5-2.602 5.204-8 32.855-8 39.5h6Z"/><path fill="#90CAED" id="LSr" d="m239 117 1 1-1-1Z"/><path fill="#187C63" id="SSs4" d="M403 175h6c0-9.289-4.242-32.984-8-40.5-2.143-4.287-7-12.757-7-17.5l-6 4 9 20.5c3.317 6.634 6 25.548 6 33.5Z"/><path fill="#90CAED" id="LSr" d="m217 118-1 1 1-1ZM216 119l-1 1 1-1Z"/><path fill="#96A7D2" id="TRS" d="M225 119c0 1.105-18.276 10.948-14 19.5l11.5.5h22c5.408-2.704-6.147-15.573-9-17-3.962-1.981-5.598-3-10.5-3Z"/><path fill="#90CAED" id="LSr" d="m241 120 1 1-1-1Z"/><path fill="#1B7E64" id="SSp-n6b" d="M103 123h2v-2l-2 2Z"/><path fill="#C9C9CA" id="scwm" d="m107 121-2 2v-2h2Z"/><path fill="#90CAED" id="LSr" d="m214 121-1 1 1-1Z"/><path fill="#1C8063" id="SSs5" d="M391 175h12c0-7.952-2.683-26.866-6-33.5l-9-20.5h-1c0 1.89-6.374 6-8 6v2c0 2.287 3.886 8.271 5 10.5 3.175 6.35 7 27.588 7 35.5ZM54 175h12c0-9.934 3.018-29.536 7-37.5 1.461-2.922 4-6.023 4-9.5 0-1.803-6.495-6-8-6-2.816 0-4.968 10.436-6 12.5-5.957 11.913-9 26.203-9 40.5Z"/><path fill="#1B7E64" id="SSp-n6b" d="M101 125h2v-2l-2 2Z"/><path fill="#C9C9CA" id="scwm" d="M105 123c0 1.747-.253 2-2 2v-2h2Z"/><path fill="#90CAED" id="LSr" d="m212 123-1 1 1-1ZM244 123l2 2-2-2Z"/><path fill="#1B7E64" id="SSp-n6b" d="M97 131h2l1-2 1-4c-1.617 0-4 4.583-4 6Z"/><path fill="#C9C9CA" id="scwm" d="M103 125c0 1.429-1.288 4-3 4l1-4h2Z"/><path fill="#97D6F9" id="STR" d="M260 129h2c0-1.048.473-3-1-3l-1 3Z"/><path fill="#CBC8CB" id="fi" d="m199 151-6 3-6.5 1c-2.993-1.496-7.298-6.905-5.5-10.5l8-8c.791-1.582 3.942-8.5 6-8.5l1 1c4.656 0 7.78-2 12-2 0 1.791 3.27 2.959 2 5.5L199 151ZM257 151l7 3c1.606 0 4.339 2.081 6.5 1 2.769-1.385 6.062-7.376 4.5-10.5l-6-6c-.828-1.656-5.182-9.5-7-9.5h-2c-4.393 0-7.089-2-11-2-2.268 0-2.825 5.85-2 7.5 2.448 4.895 10 10.869 10 16.5Z"/><path fill="#197D63" id="SSs6a" d="M80 175v1c-3.948 0-9.393-1-14-1 0-9.934 3.018-29.536 7-37.5 1.461-2.922 4-6.023 4-9.5h1c0 1.821 7.338 7 9 7l4 4-4 9.5c-1.297 2.595-7 23.391-7 26.5Z"/><path fill="#97D6F9" id="STR" d="m195 128 1 1-1-1Z"/><path fill="#C9C9CA" id="scwm" d="m100 129-1 2 1-2Z"/><path fill="#197D63" id="SSs6a" d="M377 175h14c0-7.912-3.825-29.15-7-35.5-1.114-2.229-5-8.213-5-10.5-.861 0-10 5.863-10 7l-4 3v1c1.087 0 4 7.277 4 8.5 0 8.936 8 17.417 8 26.5Z"/><path fill="#1B7E64" id="SSp-n6b" d="M95 135h1l1-2v-2c-1.577 0-2 1.762-2 3v1Z"/><path fill="#C9C9CA" id="scwm" d="m99 131-2 2v-2h2ZM97 133l-1 2 1-2Z"/><path fill="#188064" id="SSp-m6b" d="m92 139 1 1c0-1.238.423-3 2-3v-3l-2 1-1 4ZM364 140h1v-1l-3-5h-1l3 6Z"/><path fill="#187D61" id="SSp-m6a" d="m369 136-4 3-3-5 7 2ZM91 139h1l1-4h-6l4 4Z"/><path fill="#C9C9CA" id="scwm" d="m96 135-1 2v-2h1ZM93 140v1l2-4c-1.577 0-2 1.762-2 3Z"/><path fill="#1A8061" id="SSs6b" d="M80 175h1l1-2v-2l1-2v-2l1-2 1-2v-1c0-3.855 3-6.459 3-10l1-2v-1l1-2 1-2c0-1.465-.109-4 2-4v-1l-1-1h-1l-4 9.5c-1.297 2.595-7 23.391-7 26.5Z"/><path fill="#C8C9C9" id="vhc" d="M223 146h11c3.222 0 6.277-1 9-1v-1c0-4.83-30-6.479-30 1 2.978 0 6.49 1 10 1Z"/><path fill="#1A8061" id="SSs6b" d="M377 175v1l-2-1v-2l-1-2v-2l-1-1v-1c0-1.622.461-5-2-5v-1c0-3.303-2-5.115-2-8l-1-1v-1l-1-2v-1c0-3.219-3-5.108-3-8h1c1.087 0 4 7.277 4 8.5 0 8.936 8 17.417 8 26.5Z"/><path fill="#C9C9CA" id="scwm" d="M93 141c-2.109 0-2 2.535-2 4l2-4Z"/><path fill="#97D6F9" id="STR" d="m285 161 2 1 4-8c-2.77 0-8.206 2.088-10-1.5-.475-.949-2.665-8.5-3-8.5v13h2c3.41 0 5 .234 5 4Z"/><path fill="#C9C9CA" id="scwm" d="m91 145-1 2 1-2Z"/><path fill="#A8A9AA" id="V3" d="M215 168c4.083 0 9.745 3 13.5 3 3.281 0 8.802-3 12.5-3l3-1c1.803 0 14-3.224 14 1l6-1v-13l-7-3c0 5.47-8.931 1.285-11.5 0-.766-.383-3.5.316-3.5-1.5l1-3.5v-1c-2.723 0-5.778 1-9 1 0 1.634-11 1.634-11 0-3.51 0-7.022-1-10-1l1 4.5c-1.394 2.788-15 6.868-15 1.5l-6 3v13l5 1 3.5-2c3.028-1.514 7.882 1 10.5 1l3 1Z"/><path fill="#C9C9CA" id="scwm" d="m90 147-1 2 1-2Z"/><path fill="#97D6F9" id="STR" d="M169 162h2c0-4.646 1.796-5 6-5h1c0-2.389 1-5.987 1-9v-1h-1c-.684 0-2.411 5.955-4.5 7-3.194 1.597-5.216 0-8.5 0l4 8Z"/><path fill="#C9C9CA" id="scwm" d="m367 149 1 2-1-2ZM89 150l-1 2 1-2ZM368 152l1 1-1-1Z"/><path fill="#CCC" d="M175 174c0 7.167 5.873 18.755 2 26.5-2.312 4.624-6 17.263-6 5.5 0-7.394 1.083-16.334-2-22.5l-8-13.5c0-2.95-2-7.018-2-11 0-4.086 2.29-5 6-5l4 8c0 1.403 4.674 11 6 11v1ZM281 175c0 5.931-5.274 16.952-2 23.5 2.111 4.223 6 19.042 6 6.5 0-9.317.182-16.864 4-24.5l8-12.5v-11c0-3.026-3.41-3-6-3l-4 8-4 8c0 1.424-.362 5-2 5Z"/><path fill="#C8CBC7" id="st" d="M179 182v2c5.58 0 0-22.008 0-24 0-1.481-2-.785-2-3-4.204 0-6 .354-6 5l3 8 1 1v2c1.577 0 2 1.762 2 3v2l1 1v2l1 1Z"/><path fill="#CAC7CB" id="fiber tracts" d="m179 160 2 1-3-4h-1c0 2.215 2 1.519 2 3ZM277 159h1l2-2h-2l-1 2Z"/><path fill="#C8CBC7" id="st" d="M277 183v1c-2.698 0-2-4.255-2-6v-13.5l2-4.5 1-1 2-2c3.41 0 5 .234 5 4 0 3.68-2 5.511-2 9l-1 1-1 1v1l-1 2-1 2-1 5-1 1Z"/><path fill="#97D6F9" id="STR" d="m297 168 3 1c0-1.506-1.804-12-3-12v11ZM157 169l4 1c0-2.95-2-7.018-2-11-1.888 0-2 8.072-2 10Z"/><path fill="#CAC7CB" id="fiber tracts" d="M276 160h1v-1l-1 1Z"/><path fill="#B3C0DE" id="BST" d="m278 159-1 1v-1h1ZM203 233l-4 2c-5.706 0-10.985-3-12-3l-8-10-2-3.5c-.674-1.348 2-9.739 2-12.5v-22c5.58 0 0-22.008 0-24l2 1 7 6.5c.69 1.379 6.664 10.5 7 10.5l1 4 1 1v1c0 8.826 6 13.745 6 21 0 5.496 2.76 8.021 5 12.5 2.88 5.76-5 11.195-5 15.5ZM269 232l-1 1c-2.762 0-6.755 3.873-10.5 2-16.555-8.277-4.5-18.893-4.5-29l1-2v-2l1-1c0-6.897 4-7.443 4-16v-1l1-1 1-4 4.5-8c1.287-.643 10.5-8.858 10.5-11h1l-2 4.5V178c0 1.745-.698 6 2 6 0 7.781 1 15.793 1 23v15l-9 10Z"/><path fill="#8599CC" id="PAL" d="m287 162-4 8c0-3.489 2-5.32 2-9l2 1ZM175 171v2c-1.326 0-6-9.597-6-11h2l3 8 1 1Z"/><path fill="#C9C7C9" id="ccb" d="M371 162c2.461 0 2 3.378 2 5-1.014 0-2-3.959-2-5ZM85 163l-1 2 1-2ZM84 165l-1 2 1-2Z"/><path fill="#CCC9C8" id="sm" d="m210 198-5 2c-2.697 0-4.322-16-8-16v-1l-1-1-1-4 3-10 3.5-2c3.028-1.514 7.882 1 10.5 1v2l-3 10.5V193l1 5ZM247 198c2.069 0 3.946 3 5 3 0-2.253 4.328-16 7-16v-1l1-1 1-4c0-4.275-3-7.621-3-11 0-4.224-12.197-1-14-1v2c1.59 0 1.443 4.386 2 5.5 1.792 3.583 2 11.462 2 15.5l-1 8Z"/><path fill="#FF6F80" id="TH" d="m212 169 3 1v-2l-3-1v2ZM244 169l-2 1-1-2 3-1v2Z"/><path fill="#FE8F9E" id="PVT" d="M228 200h1c1.293 0 8 3.155 8-1 0-5.008-2.345-11.811 0-16.5 1.599-3.198 5-8.897 5-12.5l-1-2c-3.698 0-9.219 3-12.5 3-3.755 0-9.417-3-13.5-3v2c0 4.197 2.276 7.052 4 10.5 2.697 5.394 0 13.056 0 18.5 0 2.991 6.051 2 8 2l1-1Z"/><path fill="#8598CC" id="GPe" d="M298 215h1c4.599 0 6.069-2.638 8-6.5.567-1.134.546-6.5 2-6.5 0-6.258.65-16.2-2-21.5-1.532-3.064-7-8.098-7-11.5l-3-1-8 12.5c-3.818 7.636-4 15.183-4 24.5l3.5 5 4.5 3 3 1 2 1Z"/><path fill="#C9C7C9" id="ccb" d="m373 168 1 1-1-1ZM83 169l-1 2 1-2Z"/><path fill="#8598CC" id="GPe" d="M158 215h1l1-1h1l1-1h1l4-2.5 4-4.5c0-7.394 1.083-16.334-2-22.5l-8-13.5-4-1c0 2.948-6.566 9.631-8 12.5-.884 1.769-2 16.14-2 18.5 1.579 0 1 2.855 1 4 1.149 0 1.508 4.516 2 5.5 1.762 3.524 3.886 5.5 8 5.5Z"/><path fill="#FF909F" id="PT" d="M209 193c2.461 0 1.516 6 10 6 0-5.444 2.697-13.106 0-18.5-1.724-3.448-4-6.303-4-10.5l-3-1-3 10.5V193ZM248 190c-1.183 0-1.535 3.57-2 4.5-2.358 4.717-5.64 4.5-9 4.5 0-5.008-2.345-11.811 0-16.5 1.599-3.198 5-8.897 5-12.5l2-1c1.59 0 1.443 4.386 2 5.5 1.792 3.583 2 11.462 2 15.5Z"/><path fill="#B3C0DE" id="BST" d="m174 170 1 1-1-1Z"/><path fill="#8599CC" id="PAL" d="M281 173v2c1.638 0 2-3.576 2-5l-1 1-1 1v1Z"/><path fill="#B3C0DE" id="BST" d="m282 171-1 1 1-1Z"/><path fill="#C9C7C9" id="ccb" d="m374 171 1 2-1-2Z"/><path fill="#C8CBCC" id="ec" d="M85 198h1c0-2.772-1.833-5.167-3-7.5L82 173l-1 2v10c1.684 0 1 4.679 1 6l1 2 1 1 1 4Z"/><path fill="#B3C0DE" id="BST" d="m175 174 2 2c0-1.238-.423-3-2-3v1ZM280 175h1v-2l-1 2Z"/><path fill="#8599CC" id="PAL" d="M163 213c3.196 0 4.565-.37 6 2.5.652 1.303.219 7.5 2 7.5l6-12.5c.559-1.119.155-4.5 2-4.5v-24l-1-1v-2l-1-1v-2l-2-2c0 7.167 5.873 18.755 2 26.5-2.312 4.624-6 17.263-6 5.5l-4 4.5-4 2.5Z"/><path fill="#12AD83" id="VISC1" d="m44 199-3 1c-3.066 0-6-20.706-6-25h5c0 3.782 2.13 22 5 22v1l-1 1Z"/><path fill="#12AC83" id="VISC2/3" d="M52 193c-2.83 0-4.54 4-7 4-2.87 0-5-18.218-5-22h7c0 6.224 5 12.416 5 18Z"/><path fill="#11AC82" id="VISC4" d="m54 191-2 2c0-5.584-5-11.776-5-18h6c0 5.605 1 10.861 1 16Z"/><path fill="#12AD82" id="VISC5" d="M54 191h1c4.133 0 7.232-4 12-4v-1l-1-11H53c0 5.605 1 10.861 1 16Z"/><path fill="#11AC83" id="VISC6a" d="M80 183c-4.798 0-8.478 3-13 3l-1-11c4.607 0 10.052 1 14 1v7Z"/><path fill="#11AD82" id="VISC6b" d="M80 183h1v-8h-1v8Z"/><path fill="#B3C0DE" id="BST" d="m280 175-1 2 1-2Z"/><path fill="#8599CC" id="PAL" d="M285 228h1c0-6.061-.401-15 7-15l-4.5-3-3.5-5c0 12.542-3.889-2.277-6-6.5-3.274-6.548 2-17.569 2-23.5h-1l-1 2-1 5-1 1v1c0 7.781 1 15.793 1 23 1.951 0 .477 2.454 1 3.5 2.852 5.703 6 9.495 6 16.5v1Z"/><path fill="#11AD82" id="VISC6b" d="M375 183h1l1-7-2-1v8Z"/><path fill="#11AC83" id="VISC6a" d="M376 183c5.009 0 8.535 3 13 3 0-3.378 2-6.922 2-11h-14v1l-1 7Z"/><path fill="#12AD82" id="VISC5" d="M389 187c5.043 0 8.415 4 13 4 0-4.594 1-10.741 1-16h-12c0 4.078-2 7.622-2 11v1Z"/><path fill="#11AC82" id="VISC4" d="M404 193h1c0-6.215 4-11.163 4-18h-6c0 5.259-1 11.406-1 16v1l2 1Z"/><path fill="#12AC83" id="VISC2/3" d="M405 193c2.919 0 4.243 4 7 4 1.454 0 1.433-5.366 2-6.5 2.062-4.125 3-10.665 3-15.5h-8c0 6.837-4 11.785-4 18Z"/><path fill="#12AD83" id="VISC1" d="M415 200h1l3-6.5c2.405-4.81 2-12.741 2-18.5h-4c0 4.835-.938 11.375-3 15.5-.567 1.134-.546 6.5-2 6.5v1l1 1h1l1 1Z"/><path fill="#B3C0DE" id="BST" d="m177 178 1 1-1-1Z"/><path fill="#C8CBCC" id="ec" d="M373 191h1l1-1v-12c-.835 0-2 11.646-2 13Z"/><path fill="#B3C0DE" id="BST" d="m178 181 1 1-1-1Z"/><path fill="#CAC7CB" id="fiber tracts" d="m196 182 1 1-1-1Z"/><path fill="#B3C0DE" id="BST" d="m278 182-1 1 1-1Z"/><path fill="#009B74" id="GU6a" d="M79 193c-3.447 0-6.245 2-9 2l-3-8v-1c4.522 0 8.202-3 13-3h1v8l-2 2Z"/><path fill="#CAC7CB" id="fiber tracts" d="m260 183-1 1 1-1Z"/><path fill="#019C74" id="GU6b" d="M376 183c0 1.235.643 5-1 5v-5h1Z"/><path fill="#009B74" id="GU6a" d="m387 194-1 1c-2.522 0-4.909-2-8-2l-3-2v-3c1.643 0 1-3.765 1-5 5.009 0 8.535 3 13 3v1l-2 7Z"/><path fill="#CAC7CB" id="fiber tracts" d="M203 205h1l1-5c-2.697 0-4.322-16-8-16 0 8.826 6 13.745 6 21Z"/><path fill="#019C74" id="GU6b" d="M81 191h1c0-1.321.684-6-1-6v6Z"/><path fill="#CAC7CB" id="fiber tracts" d="M252 206h1l1-2v-2l1-1c0-6.897 4-7.443 4-16-2.672 0-7 13.747-7 16v5Z"/><path fill="#019C75" id="GU5" d="M56 196h1c4.088 0 9.62-1 13-1l-3-8c-4.768 0-7.867 4-12 4l1 5ZM387 194l13 2 2-4v-1c-4.585 0-7.957-4-13-4l-2 7Z"/><path fill="#FF6F80" id="TH" d="M243 201c-3.646 0-5.193 5-10 5-1.617 0-4-4.583-4-6 1.293 0 8 3.155 8-1 3.36 0 6.642.217 9-4.5.465-.93.817-4.5 2-4.5l-1 8h-1l-1 1-1 1-1 1Z"/><path fill="#019C74" id="GU6b" d="M374 191h1v-1l-1 1Z"/><path fill="#009C74" id="GU4" d="M55 196h1l-1-5h-1l-2 2c0 1.658 1.46 3 3 3Z"/><path fill="#8ADA86" id="CLA" d="M83 207h1l1-1h1l1-1v-3l-1-1v-2l-1-1-1-4-1-1-1-2h-1l-2 2c0 3.245-1.774 6.951 0 10.5l4 3.5Z"/><path fill="#019C74" id="GU6b" d="m374 191-1 1v-1h1Z"/><path fill="#8ADA86" id="CLA" d="M370 206h1c7.561 0 7-5.992 7-13l-3-2h-1l-1 1v1l-2 4v3l-1 1v5Z"/><path fill="#009C74" id="GU4" d="M400 196h1c2.041 0 3-.959 3-3l-2-1-2 4Z"/><path fill="#009B75" id="GU2/3" d="M45 199h1c0-2.013 9-.752 9-3-1.54 0-3-1.342-3-3-2.83 0-4.54 4-7 4v2Z"/><path fill="#209766" id="AIp6a" d="M78 213h1c0-3.625 4-3.563 4-6l-4-3.5c-1.774-3.549 0-7.255 0-10.5-3.447 0-6.245 2-9 2 0 6.304 8 11.845 8 18ZM83 193l1 1-1-1Z"/><path fill="#FF6F80" id="TH" d="M227 201c0 2.124-2.024 5-4 5-5.402 0-8.034-7-12-7l-1-1-1-5c2.461 0 1.516 6 10 6 0 2.991 6.051 2 8 2Z"/><path fill="#C8CBCC" id="ec" d="M373 193c-2.109 0-2 2.535-2 4l2-4Z"/><path fill="#209766" id="AIp6a" d="m371 206 3.5 2 3.5 4c1.281 0 8-14.758 8-17-2.522 0-4.909-2-8-2 0 7.008.561 13-7 13Z"/><path fill="#009B75" id="GU2/3" d="m412 198-1 1c-1.078 0-10-2.482-10-3 2.041 0 3-.959 3-3h1c2.919 0 4.243 4 7 4v1Z"/><path fill="#219864" id="AIp5" d="m78 214-7 2c0-2.638-14-12.374-14-20 4.088 0 9.62-1 13-1 0 6.304 8 11.845 8 18v1ZM379 214l6 2c0-1.7 15-14.056 15-20l-13-2-1 1c0 2.242-6.719 17-8 17v1l1 1Z"/><path fill="#209865" id="AIp2/3" d="M71 216c0 1.565-8.408 4-10 4 0-2.62-15-13.873-15-21 0-2.013 9-.752 9-3h2c0 7.626 14 17.362 14 20ZM385 216c0 1.555 9.133 4 11 4 0-3.703 15-14.379 15-21-1.078 0-10-2.482-10-3h-1c0 5.944-15 18.3-15 20Z"/><path fill="#C8CBCC" id="ec" d="M369 203h1v-2l1-1v-3c-1.995 0-2 4.377-2 6Z"/><path fill="#009C75" id="GU1" d="M44 199h1v-1l-1 1Z"/><path fill="#209766" id="AIp6a" d="M86 198v1l-1-1h1Z"/><path fill="#C7C8CA" id="fx" d="M204 205c0 4.024 2.992 10.754 8.5 8l2.5-4c0-4.117-4-6.901-4-10l-1-1-5 2-1 5Z"/><path fill="#CAC7CB" id="fiber tracts" d="m246 198-1 1 1-1Z"/><path fill="#C7C8CA" id="fx" d="M252 206c0 8.49-10 9.847-10 3l1-8 1-1 1-1 1-1h1c2.069 0 3.946 3 5 3v5Z"/><path fill="#009C75" id="GU1" d="M411 199h2l-1-1-1 1Z"/><path fill="#219765" id="AIp1" d="M61 220c0 .672-4.33 2-5 2-2.55 0-15-19.006-15-22l3-1h2c0 7.127 15 18.38 15 21Z"/><path fill="#C8CBCC" id="ec" d="m88 207 3 3c0-1.662-3.441-11-5-11v2l1 1v3l1 2Z"/><path fill="#CAC7CB" id="fiber tracts" d="M223 208c-2.707 0-5.903 1-8 1 0-4.117-4-6.901-4-10 3.966 0 6.598 7 12 7v2ZM245 199l-1 1 1-1Z"/><path fill="#219765" id="AIp1" d="M396 220c0 1.014 3.959 2 5 2 0-4.561 15-15.118 15-22h-1l-1-1h-3c0 6.621-15 17.297-15 21Z"/><path fill="#009C75" id="GU1" d="m414 199 1 1-1-1Z"/><path fill="#97D6F9" id="STR" d="m143 224-5 1 5-5.5c2.643-5.287 4-13.228 4-19.5 1.579 0 1 2.855 1 4 0 6.944-4 12.714-4 19l-1 1Z"/><path fill="#FF6F80" id="TH" d="m228 200-1 1 1-1Z"/><path fill="#CAC7CB" id="fiber tracts" d="m244 200-1 1 1-1Z"/><path fill="#209766" id="AIp6a" d="m371 200-1 1 1-1ZM86 201l1 1-1-1Z"/><path fill="#CAC7CB" id="fiber tracts" d="M233 208c3.222 0 6.277 1 9 1l1-8c-3.646 0-5.193 5-10 5v2Z"/><path fill="#E64438" id="HY" d="m255 201-1 1 1-1Z"/><path fill="#8599CC" id="PAL" d="M299 215c0 1.722 5.235 2.368 6.5 3l6.5 5c0-3.986-1.375-6.249-3-9.5V202c-1.454 0-1.433 5.366-2 6.5-1.931 3.862-3.401 6.5-8 6.5Z"/><path fill="#97D6F9" id="STR" d="m313 224 6 1-5-4.5-3-7c-.885-1.77.431-11.5-2-11.5v11.5c1.625 3.251 3 5.514 3 9.5l1 1Z"/><path fill="#C8CBCC" id="ec" d="m368 207-2 2c0-1.402 1.11-6 3-6l-1 4Z"/><path fill="#209766" id="AIp6a" d="m370 206-2 1 1-4h1v3Z"/><path fill="#8599CC" id="PAL" d="M158 215c0 2.334-4.181 1.341-5.5 2l-8.5 6c0-6.286 4-12.056 4-19 1.149 0 1.508 4.516 2 5.5 1.762 3.524 3.886 5.5 8 5.5Z"/><path fill="#E64438" id="HY" d="m254 204-1 2 1-2Z"/><path fill="#209766" id="AIp6a" d="m86 206 2 1-1-2-1 1Z"/><path fill="#E64438" id="HY" d="M207 232c.283 0 17-11.793 17 3 3.422 0-1.966-7 3-7l-1-15-3-5c-2.707 0-5.903 1-8 1l-2.5 4c-5.508 2.754-8.5-3.976-8.5-8h-1c0 5.496 2.76 8.021 5 12.5 2.88 5.76-5 11.195-5 15.5l4-1Z"/><path fill="#209766" id="AIp6a" d="m85 206-1 1 1-1Z"/><path fill="#A0EE9C" id="EPd" d="M94 231h5v-3l-4-8v-1c-1.577 0-2-1.762-2-3v-1l-2-4v-1l-3-3-2-1h-1l-1 1h-1c0 2.437-4 2.375-4 6v2l1 3 1 1v1l2 2 1 1 1 1 1 1 1 1 1 1 3 2 1 1 2 1Z"/><path fill="#E64438" id="HY" d="M171 223v4c3.125 0 3.706-5 8-5l-2-3.5c-.674-1.348 2-9.739 2-12.5-1.845 0-1.441 3.381-2 4.5l-6 12.5ZM268 233c0 1.041-.986 5-2 5 0-2.144-4.262-.381-5.5-1-3.399-1.699-7.478-5-11.5-5l-3.5-3c-8.907-4.454-8.814 3-13.5 3 0-3.835-.067-4-3-4l2-17 2-3c3.222 0 6.277 1 9 1 0 6.847 10 5.49 10-3h1c0 10.107-12.055 20.723 4.5 29 3.745 1.873 7.738-2 10.5-2Z"/><path fill="#A0EE9C" id="EPd" d="M362 231h1l1-1 1-1h1l1-1 1-1h1v-1l1-1h1l1-1 1-1v-1l1-1 1-1 1-1 2-5v-2l-3.5-4-3.5-2h-1l-2 1-2 2-1 2v1l-1 2-1 2v1c0 1.238-.423 3-2 3v1c0 1.238-.423 3-2 3l-2 4c0 3.236 2.435 3 5 3Z"/><path fill="#A8A9AA" id="V3" d="M227 228c0 1.399 2 1.399 2 0l2-17c-2.205 0-.002-3.251-1.5-4-3.752-1.876-3.5 4.11-3.5 6l1 15Z"/><path fill="#E64438" id="HY" d="M278 222c4.008 0 4.412 5 7 5 0-7.005-3.148-10.797-6-16.5-.523-1.046.951-3.5-1-3.5v15Z"/><path fill="#C8CBCC" id="ec" d="m366 209-1 2 1-2ZM91 211l2 4-2-4ZM365 212l-1 2 1-2Z"/><path fill="#99D2BD" id="OLF" d="m78 214 1 1v-2h-1v1Z"/><path fill="#8599CC" id="PAL" d="m162 213-1 1 1-1Z"/><path fill="#A2B1D7" id="SI" d="M145 249h18l5-2 3-6.5V223c-1.781 0-1.348-6.197-2-7.5-1.435-2.87-2.804-2.5-6-2.5h-1l-1 1h-1l-1 1h-1c0 2.334-4.181 1.341-5.5 2l-8.5 6-1 1-1 7-1 1v16l4 1ZM311 249h4c0-3.249 1-7.194 1-11v-2l-1-1c0-4.232-2-7.38-2-11l-1-1-6.5-5c-1.265-.632-6.5-1.278-6.5-3h-1l-2-1-3-1c-7.401 0-7 8.939-7 15l-1 1v10.5l4 7.5 4 2c4.35 0 9.842.829 13.5-1 1.008-.504 4.5-.22 4.5 1Z"/><path fill="#99D2BD" id="OLF" d="M378 214h1l-1-1v1Z"/><path fill="#6ACAB9" id="PIR" d="m114 294-2 1c-19.447 0-35.86-41.22-43-55.5-2.654-5.308-13-11.483-13-17.5.67 0 5-1.328 5-2 1.592 0 10-2.435 10-4l7-2 1 1 1 3 1 1v1l2 2 1 1 1 1 1 1 1 1 1 1c0 2.022 6.758 10 9 10l18 20c0 2.629 7 8.108 7 14 0 8.007-8 15.483-8 23Z"/><path fill="#8599CC" id="PAL" d="m160 214-1 1 1-1ZM296 214l2 1-2-1Z"/><path fill="#C8CBCC" id="ec" d="m364 214-1 2 1-2Z"/><path fill="#6ACAB9" id="PIR" d="M335 271c0 7.69 9 22.657 9 24 18.777 0 35.529-39.559 43-54.5 1.632-3.264 14-15.45 14-18.5-1.041 0-5-.986-5-2-1.867 0-11-2.445-11-4l-6-2h-1l-2 5-1 1-1 1-1 1v1l-1 1-1 1-1 1-1 1-1 1-1 1-8 8c0 3.71-9.642 12.142-13 15.5l-5 4.5-1 1-1 1c0 3.685-4 6.271-4 12Z"/><path fill="#C8CBCC" id="ec" d="M93 216c1.577 0 2 1.762 2 3-1.577 0-2-1.762-2-3ZM363 217c-1.577 0-2 1.762-2 3 1.577 0 2-1.762 2-3Z"/><path fill="#99D2BD" id="OLF" d="m80 218 1 1-1-1ZM376 219l-1 1 1-1ZM81 220l2 2-2-2Z"/><path fill="#C8CBCC" id="ec" d="M113 237h1c0-1.577 1.729-2-1-2-7.987 0-15.49-15-18-15l4 8 3 3 1 1 4 3h1l2 1 3 1ZM361 221c-1.577 0-2 1.762-2 3 1.577 0 2-1.762 2-3Z"/><path fill="#99D2BD" id="OLF" d="m374 221-1 1 1-1Z"/><path fill="#8AD987" id="CTXsp" d="m83 222 1 1-1-1Z"/><path fill="#F2473B" id="LPO" d="M193 262c0 6.187-4.432 5-8 5l-12-9-2-2-1-2c0-2.16-2-4.167-2-7l3-6.5V227c3.125 0 3.706-5 8-5l8 10 3 5c0 8.105 3 15.964 3 25ZM264 262c0 4.297 1.782 6 6 6l14-10 1-1v-1l1-1 1-1v-1l2-6-4-7.5V227c-2.588 0-2.992-5-7-5l-9 10-1 1c0 1.041-.986 5-2 5 0 7.727-2 16.529-2 24Z"/><path fill="#99D2BD" id="OLF" d="m84 223 1 1-1-1ZM373 223l-1 1 1-1Z"/><path fill="#8AD987" id="CTXsp" d="m85 224 1 1-1-1Z"/><path fill="#7ECDF8" id="FS" d="m118 246 4 3c3.567 0 7.532.484 10.5-1 2.994-1.497 6.954-11 8.5-11v-5l1-1 1-7-5 1h-1l-1 1-4 3c3.847 0 2.976 7 1 7 0 2.003.293 3-2 3 0 2.109-2.535 2-4 2 0 1.486-3 1.486-3 0h-1c-3.536 0-4.785-4-9-4h-1c0 3.867 5 5.965 5 9ZM336 248l-1 1c-5.01 0-8.394.053-12.5-2-2.412-1.206-5.356-9-6.5-9v-2l-1-1c0-4.232-2-7.38-2-11l6 1h1l1 1 4 3c-8.412 0 1.061 10.781 3.5 12 .747.374 4.5 2.422 4.5 0l2-1c2.933 0 3.735-3 7-3h2l-3 6-1 1-4 4Z"/><path fill="#C8CBCC" id="ec" d="M354 231h1c0-1.238.423-3 2-3l2-4c-1.988 0-6 5.237-6 7h1Z"/><path fill="#99D2BD" id="OLF" d="m372 224-1 1 1-1ZM86 225l1 1-1-1Z"/><path fill="#97D6F9" id="STR" d="m137 225-1 1 1-1ZM320 225l1 1-1-1Z"/><path fill="#8AD987" id="CTXsp" d="M369 226h1v-1l-1 1Z"/><path fill="#99D2BD" id="OLF" d="m371 225-1 1v-1h1Z"/><path fill="#8AD987" id="CTXsp" d="m87 226 1 1-1-1Z"/><path fill="#99D2BD" id="OLF" d="m370 226-1 1v-1h1ZM97 234v3c-2.242 0-9-7.978-9-10l3 2 1 1 2 1 3 3Z"/><path fill="#FD4C3E" id="MPN" d="M224 255c-.427 0-5.19 3.345-6.5 4l-4.5-2-4-2-2-2c0-2.613-.93-4.36-2-6.5-2.151-4.303 2-10.185 2-14.5.283 0 17-11.793 17 3v20Z"/><path fill="#FE5547" id="PVpo" fill-rule="evenodd" d="M229 275h1l1-1 3-4c0-4.573-2-10.754-2-16v-22c0-3.835-.067-4-3-4 0 1.399-2 1.399-2 0-4.966 0 .422 7-3 7v20l-2 16 3 3 1 1h1c0-1.399 2-1.399 2 0m-1-3c-4.59 0-.061-13 .5-13l.5 4.5c.801 1.602 1 2.028 1 4l-1 4.5c0 1.186-1 1.186-1 0Z"/><path fill="#FD4C3E" id="MPN" d="m248 255-6 3-3.5 1c-1.412-.706-5.954-5-6.5-5v-22c4.686 0 4.593-7.454 13.5-3l3.5 3c0 3.067.765 4.029 2 6.5l-1 14.5-2 2Z"/><path fill="#8AD987" id="CTXsp" d="M367 228h1v-1l-1 1Z"/><path fill="#99D2BD" id="OLF" d="m369 227-1 1v-1h1Z"/><path fill="#8AD987" id="CTXsp" d="M99 231h3l-3-3v3Z"/><path fill="#E64438" id="HY" d="m286 228-1 1v-1h1Z"/><path fill="#8AD987" id="CTXsp" d="m362 231-3 4c0-2.226-1.774-4-4-4 0-1.238.423-3 2-3 0 3.236 2.435 3 5 3ZM366 229h1v-1l-1 1Z"/><path fill="#99D2BD" id="OLF" d="m368 228-1 1v-1h1Z"/><path fill="#8AD987" id="CTXsp" d="m91 229 1 1-1-1Z"/><path fill="#97D6F9" id="STR" d="M114 237c4.215 0 5.464 4 9 4l-3-4.5c2.372-4.743 13-8.231 13-.5 1.976 0 2.847-7-1-7-3.477 0-6.578 2.539-9.5 4h-6l-3.5 2c2.729 0 1 .423 1 2ZM335 240l1-4.5c-.592-1.184-10.205-5.148-11.5-4.5-4.603 2.302 3.154 10 8.5 10 0 2.422-3.753.374-4.5 0-2.439-1.219-11.912-12-3.5-12l8.5 4c1.763.881 10.5-.652 10.5 2-1.747 0-2 .253-2 2-3.265 0-4.067 3-7 3Z"/><path fill="#8AD987" id="CTXsp" d="m365 229-1 1 1-1Z"/><path fill="#99D2BD" id="OLF" d="M359 235v2l8-8h-2l-1 1-1 1h-1l-3 4Z"/><path fill="#8AD987" id="CTXsp" d="m364 230-1 1 1-1ZM99 231l-2 3-3-3h5Z"/><path fill="#A0ED9D" id="EPv" d="M115 257h1c0-2.014 2.284-5.932 1-8.5l-7-8.5c-1.621 0-4-2.379-4-4l-3-4-1-1h-3l-2 3v3l18 20Z"/><path fill="#C9C9C9" id="act" d="M124 241h3l4-2c0-1.238.423-3 2-3 0-7.731-10.628-4.243-13 .5l3 4.5h1Z"/><path fill="#97D6F9" id="STR" d="m142 231-1 1 1-1Z"/><path fill="#C9C9C9" id="act" d="m335 240-2 1c-5.346 0-13.103-7.698-8.5-10 1.295-.648 10.908 3.316 11.5 4.5l-1 4.5Z"/><path fill="#C8CBCC" id="ec" d="M342 237h2l2-1h2l1-1h1l2-2 1-1v-1l-9 4c-1.747 0-2 .253-2 2Z"/><path fill="#8AD987" id="CTXsp" d="m354 231-1 1v-1h1Z"/><path fill="#A0ED9D" id="EPv" d="M340 257h1l5-4.5c3.358-3.358 13-11.79 13-15.5v-2c0-2.226-1.774-4-4-4h-1l-1 1-1 1c0 1.238-.423 3-2 3 0 2.226-1.774 4-4 4 0 3.061-4.036 3.572-5 5.5-2.289 4.578-1 6.958-1 11.5Z"/><path fill="#8AD987" id="CTXsp" d="m107 235-1 1-3-4 4 3Z"/><path fill="#E64438" id="HY" d="M199 235c0 2.656-6.992 2-9 2l-3-5c1.015 0 6.294 3 12 3Z"/><path fill="#FF5346" id="MPO" d="m197 261-4 1c0-9.036-3-16.895-3-25 2.008 0 9 .656 9-2 1.465 0 4 .109 4-2l4-1c0 4.315-4.151 10.197-2 14.5 1.07 2.14 2 3.887 2 6.5l-1 2c-1.643 0-6 1.338-6 3l-1 1-1 1-1 1ZM258 259c2.079 0 3.187 3 6 3 0-7.471 2-16.273 2-24 0-2.144-4.262-.381-5.5-1-3.399-1.699-7.478-5-11.5-5 0 3.067.765 4.029 2 6.5l-1 14.5 1 2c2.968 0 4.633 4 7 4Z"/><path fill="#E64438" id="HY" d="m269 232-1 1 1-1ZM203 233l-4 2c1.465 0 4 .109 4-2Z"/><path fill="#8AD987" id="CTXsp" d="M350 235v1c1.577 0 2-1.762 2-3l-2 2Z"/><path fill="#80BEE2" id="IA" d="m111 239-1 1c-1.621 0-4-2.379-4-4l1-1h1l2 2 1 2Z"/><path fill="#8AD987" id="CTXsp" d="M110 236v1l-2-2 2 1Z"/><path fill="#97D6F9" id="STR" d="m315 235 1 1-1-1Z"/><path fill="#8AD987" id="CTXsp" d="m349 235-1 1 1-1Z"/><path fill="#80BEE2" id="IA" d="M345 240h1c2.226 0 4-1.774 4-4v-1h-1l-1 1h-1l-1 1-1 3Z"/><path fill="#97D6F9" id="STR" d="m111 239 7 7c0-3.035-5-5.133-5-9l-3-1v1l1 2ZM133 236c-1.577 0-2 1.762-2 3 2.293 0 2-.997 2-3ZM345 240l-4 3 3-6 2-1v1l-1 3Z"/><path fill="#8AD987" id="CTXsp" d="m347 236-1 1v-1h1Z"/><path fill="#97D6F9" id="STR" d="M128 265c0 2.109 2.535 2 4 2 0-1.833-5.038-7.576-6-9.5l1-3c0-8.926 13.148-3.5 16-3.5l-2-3v-11c-1.546 0-5.506 9.503-8.5 11-2.968 1.484-6.933 1-10.5 1 0 5.936 6 10.468 6 16ZM314 251c2.029 0 1.881-1.191 3.5-2 7.392-3.696 12.5 5.332 12.5 11 .97 0 5-9.619 5-11-5.01 0-8.394.053-12.5-2-2.412-1.206-5.356-9-6.5-9 0 3.806-1 7.751-1 11l-1 2Z"/><path fill="#8AD987" id="CTXsp" d="M116 257c0 2.714 9.144 8 12 8 0-5.532-6-10.064-6-16l-4-3-7-7-1 1 7 8.5c1.284 2.568-1 6.486-1 8.5Z"/><path fill="#97D6F9" id="STR" d="m131 239-4 2c1.465 0 4 .109 4-2ZM335 240l-2 1 2-1Z"/><path fill="#8AD987" id="CTXsp" d="M329 262v3c3.775 0 6.905-6 10-6l1-1v-1c0-4.542-1.289-6.922 1-11.5.964-1.928 5-2.439 5-5.5h-1l-4 3-1 1-4 4-1 1c0 1.381-4.03 11-5 11l-1 1v1Z"/><path fill="#97D6F9" id="STR" d="M124 241h3c0 1.486-3 1.486-3 0ZM341 243l-1 1 1-1Z"/><path fill="#8599CC" id="PAL" d="m163 249 7 5c0-2.16-2-4.167-2-7l-5 2ZM293 249c0 1.028-4.666 4-6 4l2-6 4 2ZM143 251l1 1 1-3-4-1 2 3Z"/><path fill="#A2B1D8" id="MA" d="M171 258c0 3.388-5 7.963-5 11l-4.5-4c-2.371-1.185-11.636-7.772-12.5-9.5l-5-3.5 1-3h18l7 5 1 2v2ZM286 258c0 3.915 4 7.622 4 11 5.095 0 16.057-16 22-16l-1-4c0-1.22-3.492-1.504-4.5-1-3.658 1.829-9.15 1-13.5 1 0 1.028-4.666 4-6 4v1l-1 1v3Z"/><path fill="#97D6F9" id="STR" d="m336 248-1 1 1-1Z"/><path fill="#80C0E2" id="AAA" d="M150 285h2c5.337 0 12.515-7 15-7v-5l-1-4-4.5-4c-2.371-1.185-11.636-7.772-12.5-9.5l-5-3.5-1-1c-2.852 0-16-5.426-16 3.5l-1 3c.962 1.924 6 7.667 6 9.5l2 2c2.158 0 10 11.132 10 14l4 1 2 1Z"/><path fill="#8599CC" id="PAL" d="m313 252-1 1-1-4h4l-1 2-1 1Z"/><path fill="#80C0E2" id="AAA" d="M305 285h1l2-1 4-1c0-1.365 9.118-14 11-14v-1l1-1h1c0-1.061 2.571-5 4-5v-1l1-1c0-5.668-5.108-14.696-12.5-11-1.619.809-1.471 2-3.5 2l-1 1-1 1c-5.943 0-16.905 16-22 16l-1 4v4l6.5 6 9.5 2Z"/><path fill="#97D6F9" id="STR" d="m314 251-1 1 1-1Z"/><path fill="#E64438" id="HY" d="M206 255h3l-2-2-1 2ZM248 255h3l-1-2-2 2ZM267 277l2-3.5c-1.032-2.063-10 2.562-10 4.5-5.998 0-13.358-1-20-1 0-2.122-.756-7-5-7 0-4.573-2-10.754-2-16 .546 0 5.088 4.294 6.5 5l3.5-1c0 4.141-2.124 8.252 0 12.5 3.66 7.32 15.802.396 18-4 1.292-2.583-2-5.121-2-7.5 2.079 0 3.187 3 6 3 0 4.297 1.782 6 6 6 0 1.884-1.441 7 3 7 0 1.353-4.643 2-6 2Z"/><path fill="#8599CC" id="PAL" d="m287 254-1 1 1-1Z"/><path fill="#FF4B3E" id="AHN" d="m198 260-1 1v7.5c2.612 5.225 14.988 7.024 18 1 3.212-6.425-2-8.171-2-12.5l-4-2h-3c-1.643 0-6 1.338-6 3l-1 1-1 1Z"/><path fill="#E64438" id="HY" d="M217 277c-6.244 0-13.428 1-19 1 0-2.918-7.974-5-11-5 0-2.518-2-4.286-2-6 3.568 0 8 1.187 8-5l4-1v7.5c2.612 5.225 14.988 7.024 18 1 3.212-6.425-2-8.171-2-12.5l4.5 2c1.31-.655 6.073-4 6.5-4l-2 16c-3.763 0-5 2.349-5 6Z"/><path fill="#FF4B3E" id="AHN" d="M242 258c0 4.141-2.124 8.252 0 12.5 3.66 7.32 15.802.396 18-4 1.292-2.583-2-5.121-2-7.5-2.367 0-4.032-4-7-4h-3l-6 3Z"/><path fill="#E64438" id="HY" d="M285 256h1v-1l-1 1ZM171 258h2l-2-2v2Z"/><path fill="#8599CC" id="PAL" d="M285 258h1v-2h-1v2Z"/><path fill="#99D2BD" id="OLF" d="m122 271 4.5-1 2.5 2c0-3.236 2.435-3 5-3l-2-2c-1.465 0-4 .109-4-2-2.856 0-12-5.286-12-8h-1c0 2.629 7 8.108 7 14Z"/><path fill="#E64438" id="HY" d="M284 258h1v-1l-1 1Z"/><path fill="#99D2BD" id="OLF" d="m341 257-1 1v-1h1Z"/><path fill="#96A6D3" id="NDB" d="M182 275h1l4-2c0-2.518-2-4.286-2-6l-12-9h-2c0 3.388-5 7.963-5 11l1 4c3.228 0 9.486 2 15 2Z"/><path fill="#E64438" id="HY" d="m200 258-1 1 1-1Z"/><path fill="#96A6D3" id="NDB" d="M273 275h1c5.514 0 11.772-2 15-2l1-4c0-3.378-4-7.085-4-11h-2l-14 10c0 1.884-1.441 7 3 7Z"/><path fill="#99D2BD" id="OLF" d="m340 258-1 1 1-1Z"/><path fill="#E64438" id="HY" d="m199 259-1 1 1-1Z"/><path fill="#A8A9AA" id="V3" d="M228 272h1l1-4.5c0-1.972-.199-2.398-1-4l-.5-4.5c-.561 0-5.09 13-.5 13Z"/><path fill="#99D2BD" id="OLF" d="M335 271c-1.219 0-7-3.045-7 1-1.353 0-2.158-3-5-3v-1l1-1h1l4-2c3.775 0 6.905-6 10-6 0 3.685-4 6.271-4 12Z"/><path fill="#E64438" id="HY" d="m198 260-1 1 1-1Z"/><path fill="#97D6F9" id="STR" d="m330 260-1 1 1-1ZM329 265l-4 2c0-1.061 2.571-5 4-5v3ZM324 267l-1 1 1-1Z"/><path fill="#60E5B7" id="COAa" d="M144 283c0 3.643-8.978 7.761-12.5 6l-2.5-2v-15c0-3.236 2.435-3 5-3 2.158 0 10 11.132 10 14ZM312 283c0 7.243 11.215 5 15 5l1-16c-1.353 0-2.158-3-5-3-1.882 0-11 12.635-11 14Z"/><path fill="#59D9AA" id="PAA" d="M116 294h1l2-1h2l2-1 2-1h1l1-1c0-1.481 2-.785 2-3v-15l-2.5-2-4.5 1c0 8.007-8 15.483-8 23h2Z"/><path fill="#FF5545" id="SCH" d="M232 276c1.819 0 4.591 1 7 1 0-2.122-.756-7-5-7l-3 4 1 2Z"/><path fill="#59D9AA" id="PAA" d="m337 293 7 2c0-1.343-9-16.31-9-24-1.219 0-7-3.045-7 1l-1 16 4 3h1l4 2h1Z"/><path fill="#FF5545" id="SCH" d="M225 275c0 2.991-6.051 2-8 2 0-3.651 1.237-6 5-6l3 3v1Z"/><path fill="#8599CC" id="PAL" d="M167 278v3c3.544 0 15 1.835 15-6-5.514 0-11.772-2-15-2v5Z"/><path fill="#E64438" id="HY" d="M183 275c0 .913 5.014 2 6 2l-2-4-4 2Z"/><path fill="#FE5B50" id="SO" d="M191 279h5l2-1c0-2.918-7.974-5-11-5l2 4 2 2ZM260 279h5l2-2 2-3.5c-1.032-2.063-10 2.562-10 4.5l1 1Z"/><path fill="#8599CC" id="PAL" d="M289 277v4c-3.415 0-15 1.594-15-6 5.514 0 11.772-2 15-2v4Z"/><path fill="#E64438" id="HY" d="M225 275h1l-1-1v1ZM230 275l2 1-1-2-1 1Z"/><path fill="#CAC7CB" id="fiber tracts" d="M258 279h2l-1-1c-5.998 0-13.358-1-20-1-2.409 0-5.181-1-7-1l-2-1h-1c0 1.93-1.161 0-2 0h-2c0 2.991-6.051 2-8 2-6.244 0-13.428 1-19 1l-2 1h3c2.866 0 23.454.023 23.5 0 1.952-.976 5.25-3.375 8-2 7.14 3.57 18.378 2 27.5 2Z"/><path fill="#CBCACC" id="och" d="M228 284c-10.561 0-20.393 4-29 4v-9c2.866 0 23.454.023 23.5 0 1.952-.976 5.25-3.375 8-2 7.14 3.57 18.378 2 27.5 2v9c-6.57 0-14.501-4-22-4-1.949 0-8-.402-8 0Z"/><path fill="#97D6F9" id="STR" d="M305 285c0 1.384-3.189 1.123-2 3.5l2 1.5c-5.302 0-16-2.314-16-9v-4l6.5 6 9.5 2ZM152 285c0 3.598-1 4.708-1 5 5.915 0 16-1.968 16-9v-3c-2.485 0-9.663 7-15 7Z"/><path fill="#CAC7CB" id="fiber tracts" d="m189 279-1 1 1-1Z"/><path fill="#CACCCB" id="opt" d="M188 280c0 4.591 7.256 8 11 8v-9h-10l-1 1ZM267 279c0 4.411-2.855 9-9 9v-9h9Z"/><path fill="#CAC7CB" id="fiber tracts" d="M228 284c0-.402 6.051 0 8 0 7.499 0 15.43 4 22 4 6.145 0 9-4.589 9-9 3.299 0 1.928 3.643 1 5.5-1.437 2.874-6.075 4.288-8.5 5.5-2.567 1.284-26.53-2.765-29-4l-2.5-2ZM228 284c-10.561 0-20.393 4-29 4-3.744 0-11-3.409-11-8-4.034 0 5.319 8.409 6.5 9 7.926 3.963 16.855-2 24.5-2 1.671 0 9-1.131 9-3Z"/><path fill="#99D2BD" id="OLF" d="M149 291c-6.404 0-12.532 2-18 2 0-3.303-.959-3-4-3 0-1.481 2-.785 2-3l2.5 2c3.522 1.761 12.5-2.357 12.5-6l4 1 2 1h2c0 3.598-1 4.708-1 5l-2 1ZM331 291c-3.065 0-6-3.076-6 2-5.084 0-10.984-2-17-2l-2-1h-1l-2-1.5c-1.189-2.377 2-2.116 2-3.5h1l2-1 4-1c0 7.243 11.215 5 15 5l4 3Z"/><path fill="#97D6F9" id="STR" d="m148 284 2 1-2-1ZM308 284l-2 1 2-1Z"/><path fill="#99D2BD" id="OLF" d="m127 290-1 1 1-1Z"/><path fill="#CAC8C7" id="lot" d="M116 294h1l2-1h2l2-1 2-1h1l1-1c3.041 0 4-.303 4 3 0 3.209-12.097 4-15 4v-3Z"/><path fill="#97D6F9" id="STR" d="m151 290-2 1 2-1ZM306 290l2 1-2-1Z"/><path fill="#CAC8C7" id="lot" d="m337 293 4 3c0 2.901-12.303-.401-13.5-1l-2.5-2c0-5.076 2.935-2 6-2h1c0 2.109 2.535 2 4 2h1Z"/><path fill="#99D2BD" id="OLF" d="m125 291-2 1 2-1ZM332 291l4 2c-1.465 0-4 .109-4-2ZM123 292l-2 1 2-1ZM119 293l-2 1 2-1ZM344 295c0 1.473-1.952 1-3 1l-4-3 7 2ZM112 295l4 2v-3h-2l-2 1Z"/></svg>