<svg xmlns="http://www.w3.org/2000/svg" viewBox="0 0 456 320"><path fill="#1E9D5A" id="MOp1" d="M196 31c-11.062 0-21.606 4-33 4l1-6c11.081 0 21.296-2 33-2l-1 4Z"/><path fill="#1E9C59" id="MOs1" d="M222 45h1l4-3-4-4.5c-8.705-8.705-13.831-10.5-26-10.5l-1 4c7.891 0 26 3.024 26 14ZM230 42l4 3c0-9.638 18.822-14 27-14l-1-4c-10.865 0-21.666.833-27 11.5-.614 1.228-3 1.276-3 3.5Z"/><path fill="#1E9D5A" id="MOp1" d="M261 31c10.779 0 20.874 4 32 4v-6c-11.081 0-21.296-2-33-2l1 4Z"/><path fill="#187F60" id="SSp-ll1" d="M163 36c-7.904 0-14.476 5-22 5l-2-5 25-7-1 6v1ZM318 37l-3 4c-7.071 0-13.57-5-21-5l-1-1v-6c5.366 0 13.761 3.63 18.5 6 1.493.746 6.5-.729 6.5 2Z"/><path fill="#1F9C58" id="MOp2/3" d="M160 52v5c5.185 0 22.721-14 33-14l3-12c-11.062 0-21.606 4-33 4v1c0 4.757-3 11.85-3 16Z"/><path fill="#1E9D58" id="MOs2/3" d="M222 45c0 1.428-4.822 4-6 4l-2.5-3c-2.846-2.846-11.612-7.194-16-5l-4.5 2 3-12c7.891 0 26 3.024 26 14ZM234 45l6 4 5.5-6c5.629-2.814 11.592-1 17.5-1 0-3.911-2-6.607-2-11-8.178 0-27 4.362-27 14Z"/><path fill="#1F9C58" id="MOp2/3" d="m296 52 1 5c-7.911 0-22.446-14-33-14l-1-1c0-3.911-2-6.607-2-11 10.779 0 20.874 4 32 4l1 1 2 16Z"/><path fill="#197E64" id="SSp-ul1" d="M108 57h1l7.5-4c7.276-3.638 15.966-11 24.5-11v-1l-2-5-26 11.5-7 4.5c1.014 0 2 3.959 2 5Z"/><path fill="#187F64" id="SSp-ll2/3" d="M160 52c-4.484 0-8.954 3-13 3l-6-13v-1c7.524 0 14.096-5 22-5 0 4.757-3 11.85-3 16ZM296 52c5.029 0 9.415 3 14 3 0-5.07 5-8.443 5-13v-1c-7.071 0-13.57-5-21-5l2 16Z"/><path fill="#197E64" id="SSp-ul1" d="m350 51-2 6c-5.274 0-23.439-15-33-15v-1l3-4c9.201 0 26.775 14 32 14Z"/><path fill="#1F9D58" id="MOs5" d="M204 60h1c0-2.29 8.941-10 11-10v-1l-2.5-3c-2.846-2.846-11.612-7.194-16-5l-4.5 2c0 5.759-4 10.162-4 16 1.885 0 15-5.528 15 1ZM252 59c2.762 0 6.755-3.873 10.5-2l4.5 2c0-5.898-3-10.081-3-16l-1-1c-5.908 0-11.871-1.814-17.5 1l-5.5 6v1c5.344 0 7.632 9 12 9Z"/><path fill="#197F61" id="SSp-ul2/3" d="M109 57c0 4.811 4 8.818 4 13 4.728 0 25.293-15 34-15l-6-13c-8.534 0-17.224 7.362-24.5 11l-7.5 4Z"/><path fill="#3EA665" id="ACAd1" d="M223 69h10c0-7.947 1-16.71 1-24l-4-3c-.488 0-3 5.5-3 0l-4 3v24Z"/><path fill="#197F61" id="SSp-ul2/3" d="M343 70h1c0-4.6 4-8.545 4-13-5.274 0-23.439-15-33-15 0 4.557-5 7.93-5 13 6.649 0 19.404 7.952 25.5 11l7.5 4Z"/><path fill="#1E9C5A" id="MOp5" d="M189 59c-5.388 0-21.044 14-30 14V58l1-1c5.185 0 22.721-14 33-14 0 5.759-4 10.162-4 16ZM268 59c5.95 0 21.54 15 30 15l-1-17c-7.911 0-22.446-14-33-14 0 5.919 3 10.102 3 16h1Z"/><path fill="#40A565" id="ACAd2/3" d="m223 69-5 1-1-15c0-1.234.643-5-1-5v-1c1.178 0 6-2.572 6-4h1v24ZM233 69l6 1c0-6.573 1-14.1 1-20v-1l-6-4c0 7.29-1 16.053-1 24Z"/><path fill="#3EA566" id="ACAd5" d="m218 70-12 6-1-16c0-2.29 8.941-10 11-10 1.643 0 1 3.766 1 5l1 15ZM239 71c4.717 0 7.108 5 11 5 0-5.574 2-10.949 2-16v-1c-4.368 0-6.656-9-12-9 0 5.9-1 13.427-1 20v1Z"/><path fill="#1B8062" id="SSp-un1" d="M365 61c-1.366 0-4 2.366-4 4l-13-8 2-6 2.5 2c2.194 1.097 12.5 5.077 12.5 8ZM92 60c0 2.364 3 3.053 3 5 4.595 0 8.653-8 13-8 0-1.041-.986-5-2-5-5.292 0-9.174 8-14 8Z"/><path fill="#1C7F64" id="SSp-ll4" d="m159 58-10 4-2-7c4.046 0 8.516-3 13-3v5l-1 1ZM307 63h1c0-2.342 2-5.261 2-8-4.585 0-8.971-3-14-3l1 5c1.25 0 10 4.832 10 6Z"/><path fill="#1A7F63" id="SSp-ul4" d="m113 70 3 8c7.516 0 23.439-15 33-15v-1l-2-7c-8.707 0-29.272 15-34 15ZM343 70c0 3.22-3 5.108-3 8-7.307 0-23.049-15-32-15 0-2.342 2-5.261 2-8 6.649 0 19.404 7.952 25.5 11l7.5 4Z"/><path fill="#1C7F63" id="SSp-un2/3" d="m113 70-11 6c0-1.546-5.45-10-7-10v-1c4.595 0 8.653-8 13-8h1c0 4.811 4 8.818 4 13Z"/><path fill="#197C63" id="SSp-ll5" d="m160 57-1 1 1-1Z"/><path fill="#1D9C5A" id="MOs6a" d="M186 81h1c1.974 0 3.517-2 6-2h1c0-7.13 10-14.944 10-19 0-6.528-13.115-1-15-1 0 6.999-3 14.053-3 22ZM263 79l7 2c0-7.001-2-14.643-2-22h-1l-4.5-2c-3.745-1.873-7.738 2-10.5 2v1c1.335 0 11 16.738 11 19Z"/><path fill="#197C63" id="SSp-ll5" d="m299 75 5 1c0-4.865 3-8.664 3-13 0-1.168-8.75-6-10-6l1 17 1 1Z"/><path fill="#1C7F63" id="SSp-un2/3" d="M354 76h1c0-4.332 6-7.696 6-11l-13-8c0 4.455-4 8.4-4 13 0 2.861 10 3.783 10 6Z"/><path fill="#197C63" id="SSp-ll5" d="m158 74-5 1c-1.458 0-4-10.45-4-12v-1l10-4v15l-1 1Z"/><path fill="#1F9B5A" id="MOp6a" d="M158 91v2c6.882 0 12.362-8 20-8 0-1.638 3.576-2 5-2l3-2c0-7.947 3-15.001 3-22-5.388 0-21.044 14-30 14l-1 1v17ZM298 93h1v-1c-1.399 0-1.399-2 0-2V75l-1-1c-8.46 0-24.05-15-30-15 0 7.357 2 14.999 2 22 6.906 0 22.538 12 28 12Z"/><path fill="#197E63" id="SSp-n1" d="m50 115 5 2c0-10.017 18.4-32.9 25-39.5C83.368 74.132 90.293 66 95 66v-1c0-1.947-3-2.636-3-5l-11.5 9C70.043 74.228 50 104.452 50 115Z"/><path fill="#3FA664" id="ACAd6a" d="m194 79 4 4 8-6v-1l-1-16h-1c0 4.056-10 11.87-10 19ZM258 84h1c0-1.238.423-3 2-3l2-2c0-2.262-9.665-19-11-19 0 5.051-2 10.426-2 16v1c1.734 0 8 5.01 8 7Z"/><path fill="#197E63" id="SSp-n1" d="M407 115c-2.72 0-3.553 2-6 2 0-9.96-18.385-37.442-27.5-42-3.859-1.93-8.121-10-12.5-10 0-1.634 2.634-4 4-4 4.043 0 7.802 6.65 10.5 8 9.589 4.794 31.5 36.772 31.5 46Z"/><path fill="#187E62" id="SSp-ul5" d="m116 78 5 11c5.232 0 24.086-13 32-13v-1c-1.458 0-4-10.45-4-12-9.561 0-25.484 15-33 15ZM340 78l-5 11c-3.287 0-24.737-13-31-13 0-4.865 3-8.664 3-13h1c8.951 0 24.693 15 32 15Z"/><path fill="#1B7F64" id="SSp-n2/3" d="m401 118-8 6c0-9.47-14.889-31.39-21.5-38-3.76-3.76-7.669-5.835-12-8-.93-.465-4.5-.817-4.5-2 0-4.332 6-7.696 6-11 4.379 0 8.641 8.07 12.5 10 9.115 4.558 27.5 32.04 27.5 42v1ZM55 118l8 6 6-13.5C74.619 99.262 81.404 85.048 93.5 79l5-1 3.5-2c0-1.546-5.45-10-7-10-4.707 0-11.632 8.132-15 11.5-6.6 6.6-25 29.483-25 39.5v1Z"/><path fill="#3FA566" id="ACAv2/3" d="m222 101-4 2V70l5-1c0 10.42-1 21.17-1 31v1Z"/><path fill="#40A664" id="ACAv1" d="m229 94 5 5c0-9.624-1-19.833-1-30h-10c0 10.42-1 21.17-1 31l5-6c0-4.252 2-4.466 2 0Z"/><path fill="#3FA566" id="ACAv2/3" d="m235 101 3 2 1-32v-1l-6-1c0 10.167 1 20.376 1 30l1 2Z"/><path fill="#197E61" id="SSp-un4" d="m116 78-10 5c-1.283 0-4-5.666-4-7l11-6 3 8Z"/><path fill="#3EA666" id="ACAv5" d="M211 101c2.583 0 3.934 2 7 2V70l-12 6v1c1.665 0 1 4.222 1 5.5 0 6.138 2 10.417 2 16.5l2 2Z"/><path fill="#197E61" id="SSp-un4" d="m340 78 10 5c1.429 0 4-5.478 4-7 0-2.217-10-3.139-10-6h-1c0 3.22-3 5.108-3 8Z"/><path fill="#3EA666" id="ACAv5" d="M246 101c-2.885 0-4.697 2-8 2l1-32c4.717 0 7.108 5 11 5v1c0 7.543-3 14.857-3 22l-1 2Z"/><path fill="#1E9C5A" id="MOp5" d="m159 73-1 1 1-1Z"/><path fill="#1A7F64" id="SSp-ll6a" d="M153 76c0 2.085 3.441 15 5 15V74l-5 1v1ZM304 76c0 1.501-3.827 13-5 13V75l5 1Z"/><path fill="#1A8062" id="SSp-n4" d="M67 126h3l1-2c0-6.171 17.516-29.008 23.5-32 3.716-1.858 7.177-8 11.5-8v-1c-1.283 0-4-5.666-4-7l-3.5 2-5 1C81.404 85.048 74.619 99.262 69 110.5L63 124v1l4 1Z"/><path fill="#197D61" id="SSp-ul6a" d="M128 105h1c0-1.817 7.169-4 9-4 0-1.72 8.936-4 11-4 0-1.817 7.169-4 9-4v-2c-1.559 0-5-12.915-5-15-7.914 0-26.768 13-32 13v1c1.688 0 7 13.037 7 15ZM328 105h1c0-5.892 6-10.216 6-16-3.287 0-24.737-13-31-13 0 1.501-3.827 13-5 13v4c4.404 0 18.103 6.802 22.5 9 1.265.632 6.5 1.278 6.5 3Z"/><path fill="#1A8062" id="SSp-n4" d="M387 126c0-1.93 1.161 0 2 0l4-1v-1c0-9.47-14.889-31.39-21.5-38-3.76-3.76-7.669-5.835-12-8-.93-.465-4.5-.817-4.5-2h-1c0 1.522-2.571 7-4 7v1c9.136 0 36 32.817 36 41l1 1Z"/><path fill="#40A564" id="ACAv6a" d="m207 97 2 2c0-6.083-2-10.362-2-16.5 0-1.278.665-5.5-1-5.5l-8 6v1c0 4.89 9 8.93 9 13ZM249 98l-2 1c0-7.143 3-14.457 3-22 1.734 0 8 5.01 8 7 0 4.137-6 7.606-6 11-2.041 0-3 .96-3 3Z"/><path fill="#197D62" id="SSp-un5" d="M111 94h1l9-4v-1l-5-11-10 5v1l5 10ZM335 89l10 5 5-10v-1l-10-5-5 11Z"/><path fill="#1E9C58" id="MOs6b" d="m193 81-6 1v-1c1.974 0 3.517-2 6-2v2Z"/><path fill="#3FA466" id="ACAd6b" d="M197 84h1v-1l-4-4h-1v2c2.54 0 2.543 3 4 3ZM261 81h2v-2l-2 2Z"/><path fill="#1E9C58" id="MOs6b" d="M270 81v1l-7-1v-2l7 2Z"/><path fill="#1D9D5A" id="MOp6b" d="M187 82c0 1.58-2.855 1-4 1l3-2h1v1Z"/><path fill="#CACCC7" id="cing" d="m209 99 2 2c-10.013 0-12.884-10.192-20.5-14-6.485-3.243-13.169 4-18.5 4l-1 1h-1l-2 1h-5c0-4.191 15-4.434 15-8 1.622 0 5 .46 5-2 1.145 0 4 .58 4-1l6-1c2.54 0 2.543 3 4 3 0 3.666 5.522 13 10 13l2 2Z"/><path fill="#3FA466" id="ACAd6b" d="M259 84v1l2-4c-1.577 0-2 1.762-2 3Z"/><path fill="#CACCC7" id="cing" d="m247 99-1 2c9.176 0 11.944-10.222 19.5-14 6.59-3.295 13.778 4 19.5 4l3 2h5c0-3.325-23-9.692-23-11l-7-1h-2l-2 4c0 2.954-3.508 10-7 10l-3 3-2 1Z"/><path fill="#1D9D5A" id="MOp6b" d="M298 93v1l-5-1c0-3.325-23-9.692-23-11v-1c6.906 0 22.538 12 28 12ZM183 83c-1.424 0-5 .362-5 2 1.622 0 5 .46 5-2Z"/><path fill="#197E62" id="SSp-n5" d="M84 120c-3.985 0-8.355 4-13 4 0-6.171 17.516-29.008 23.5-32 3.716-1.858 7.177-8 11.5-8l5 10-7.5 5c-5.235 2.617-18.5 13.874-18.5 20l-1 1Z"/><path fill="#40A465" id="ACAv6b" d="M198 84c0 4.89 9 8.93 9 13-4.478 0-10-9.334-10-13h1ZM259 85c0 2.954-3.508 10-7 10 0-3.394 6-6.863 6-11h1v1Z"/><path fill="#197E62" id="SSp-n5" d="M372 120c2.958 0 13.471 5 14 5 0-8.183-26.864-41-36-41l-5 10v1c6.437 0 26 16.874 26 24l1 1Z"/><path fill="#1D9D5A" id="MOp6b" d="m163 93-5 1v-1c6.882 0 12.362-8 20-8 0 3.566-15 3.809-15 8Z"/><path fill="#C9C7C9" id="ccb" d="m367 157 2 8c-1.609 0-3.304-7.109-4-8.5-5.022-10.045-12.915-18.83-18-29l-7.5-6.5c-2.705-1.352-5.553-6.276-9-8-13.576-6.788-25.94-10-42.5-10l-4.5-5c-3.564-1.782-21.5-3.024-21.5 3-1.238 0-3 .423-3 2l-2 1-2 1-1 1-1 1c-6.83 0-13.577 4-18 4-1.048 0-3-.473-3 1h-7c0-1.473-1.952-1-3-1-5.893 0-11.767-5-18-5l-2-1h-1c0-5.299-21.237-10.631-26.5-8l-6.5 6c-14.496 0-26.59 2.045-38.5 8-4.836 2.418-8.112 7.556-13 10l-5.5 4.5c-4.602 9.204-12.449 16.898-17 26l-5 9.5 1-5 1-2v-1l1-2 1-2v-1c1.577 0 2-1.762 2-3v-1c1.577 0 2-1.762 2-3l2-4c1.933 0 8-10.099 8-12 1.747 0 2-.253 2-2l8.5-8c7.81-3.905 15.3-8.15 23-12 3.343-1.671 26.5-7.053 26.5-10h1l2-1h1l1-1c5.331 0 12.015-7.243 18.5-4 7.616 3.808 10.487 14 20.5 14 2.583 0 3.934 2 7 2l4-2c0 4.998 5.833 0 6.5 0l1 2c1.43.715 5.5-.722 5.5-2l3 2c3.303 0 5.115-2 8-2 9.176 0 11.944-10.222 19.5-14 6.59-3.295 13.778 4 19.5 4 0 1.577 1.762 2 3 2h1c0 2.076 7.932 3.216 9.5 4 11.265 5.633 23.661 8.331 35 14 6.689 3.345 17.905 15.31 21.5 22.5.823 1.647 3.92 9.5 6 9.5v1c0 1.238.423 3 2 3v1l2 4v1l1 2v1l1 1Z"/><path fill="#1A7F61" id="SSp-un6a" d="M331 106h1c0-1.476 7-4.234 7-1h1c0-3.572 5-7.808 5-10v-1l-10-5c0 5.784-6 10.108-6 16l2 1ZM124 106h1c0-1.473 1.952-1 3-1 0-1.963-5.312-15-7-15l-9 4c0 1.462 3.581 10 5 10 .831 0 7-1.153 7 2Z"/><path fill="#1A7F64" id="SSp-ll6a" d="M299 90c-1.399 0-1.399 2 0 2v-2Z"/><path fill="#C9C9CA" id="scwm" d="m172 91-1 1 1-1ZM285 91l3 2c-1.238 0-3-.423-3-2ZM170 92l-2 1 2-1Z"/><path fill="#1C8064" id="SSp-ul6b" d="M158 94c0 1.222-7.293 3-9 3 0-1.817 7.169-4 9-4v1Z"/><path fill="#C9C9CA" id="scwm" d="M109 121v2l8.5-8c7.81-3.905 15.3-8.15 23-12 3.343-1.671 26.5-7.053 26.5-10h-4l-5 1c0 1.222-7.293 3-9 3 0 2.088-8.909 4-11 4 0 2.216-7.15 4-9 4l-4 2h-1c0 1.577-1.762 2-3 2 0 1.888-6.572 8-9 8l-1 1c0 1.238-.423 3-2 3ZM331 107c2.988 0 7.815 6.315 10 8.5 5.764 5.764 20 18.797 20 27.5-2.08 0-5.177-7.853-6-9.5-3.595-7.19-14.811-19.155-21.5-22.5-11.339-5.669-23.735-8.367-35-14-1.568-.784-9.5-1.924-9.5-4h4l5 1c0 .112 5.689 2.595 6.5 3 1.631.815 23.014 9 23.5 9l3 1Z"/><path fill="#1C8064" id="SSp-ul6b" d="M328 105v1c-.486 0-21.869-8.185-23.5-9-.811-.405-6.5-2.888-6.5-3v-1h1c4.404 0 18.103 6.802 22.5 9 1.265.632 6.5 1.278 6.5 3Z"/><path fill="#187D62" id="SSp-n6a" d="M117 104c0 1.318-.356 5.928-2.5 7-1.823.912-26.227 8-29.5 8 0-6.126 13.265-17.383 18.5-20l7.5-5h1c0 1.462 3.581 10 5 10Z"/><path fill="#7ED04B" id="IG" d="M222 101c0 4.998 5.833 0 6.5 0l1 2c1.43.715 5.5-.722 5.5-2l-1-2-5-5c0 1.93-1.161 0-2 0l-5 6v1Z"/><path fill="#40A465" id="ACAv6b" d="M252 95c-2.041 0-3 .96-3 3l3-3Z"/><path fill="#187D62" id="SSp-n6a" d="M339 105h1c0-3.572 5-7.808 5-10 6.437 0 26 16.874 26 24-5.246 0-11.49-6-16.5-6-3.502 0-7.862.069-12-2l-3.5-6Z"/><path fill="#AAA8A9" id="SEZ" d="M201 105c-7.859 0-13.029-10.735-22.5-6-5.054 2.527-5.5 1.396-5.5 7l-5-3 6.5-6c5.263-2.631 26.5 2.701 26.5 8ZM288 103l-4 2c0-12.81-16.33-4-22-4 0-6.024 17.936-4.782 21.5-3l4.5 5Z"/><path fill="#1C8064" id="SSp-ul6b" d="M149 97c-2.064 0-11 2.28-11 4 2.091 0 11-1.912 11-4Z"/><path fill="#A8AAAA" id="VL" d="m190 173 1 2c2.109 0 2-2.535 2-4l-3-8.5V148c0-1.048-.473-3 1-3v-6c0-1.048-.473-3 1-3 0-11.69 11-21.303 11-29l-1-2h-1c-7.859 0-13.029-10.735-22.5-6-5.054 2.527-5.5 1.396-5.5 7l9 17.5c2.763 5.526 3 14.982 3 21.5v14.5c.726 1.451 5 12.619 5 13.5ZM266 174l-1 1c-1.643 0-1-3.765-1-5 0-3.003 1.727-5.953 3-8.5 1.923-3.846-1-11.024-1-14.5v-4l-1-4v-2c0-11.256-12-24.14-12-30l1-1 1-1 2-1 2-1c1.238 0 3-.423 3-2 5.67 0 22-8.81 22 4 0 5.048-6.751 12.002-9 16.5-3.398 6.796-3 16.316-3 24.5 0 9.464-4 18.596-4 25l-1 2-1 1Z"/><path fill="#1C8064" id="SSp-ul6b" d="M138 101c-1.831 0-9 2.183-9 4 1.85 0 9-1.784 9-4Z"/><path fill="#AAA8A9" id="SEZ" d="M262 101c-1.238 0-3 .423-3 2 1.238 0 3-.423 3-2Z"/><path fill="#187D61" id="SSp-m6a" d="M78 135c4.422 0 9.43 9 15 9 0-2.865 7.634-17 10-17l4-4c0-1.747.253-2 2-2 0-1.238.423-3 2-3l1-1c0-2.158 7.062-8 9-8 0-1.577 1.762-2 3-2v-1c0-3.153-6.169-2-7-2 0 1.318-.356 5.928-2.5 7-1.823.912-26.227 8-29.5 8l-1 1c0 5.431-6 9.825-6 15Z"/><path fill="#98D5F9" id="CP" d="M141 225c-6.821 0-12.331 10-26 10-5.629 0-14.111-10-15-10l-2-3-1-1v-1l-1-1v-1l-1-1-1-4-1-1v-2l-2-3v-1c0-1.357-.647-6-2-6v-1c0-1.837-2.52-12-4-12v-15l1-1v-2l1-1v-2l1-2c1.473 0 1-1.952 1-3l5-9.5c4.551-9.102 12.398-16.796 17-26l5.5-4.5c4.888-2.444 8.164-7.582 13-10 11.91-5.955 24.004-8 38.5-8l5 3 9 17.5c2.763 5.526 3 14.982 3 21.5l-4 7.5c-3.97 7.939-12 2.163-12 16 0 2.611 1.005 12.5 4 12.5v24l-1 1v1l-1 1c0 2.804-3.614 4-6 4l-2 1h-1l-2 1-2 1h-1l-2 1-1 1c-1.238 0-5 1.923-5 3l-1 1h-1l-2 1-1 1h-1l-1 1-1 1Z"/><path fill="#AAA8A9" id="SEZ" d="m259 103-2 1 2-1Z"/><path fill="#98D5F9" id="CP" d="m351 231-9 4c-15.388 0-25.592-14-32-14h-1l-1-1-5-3-8-4h-2l-2-1h-1l-1-1c-2.226 0-4-1.774-4-4l-1-1v-2l-1-1v-20l1-2v-1l1-2c2.942 0 2-9.252 2-11.5 0-10.991-7.366-6.732-10-12l-5-8.5c0-8.184-.398-17.704 3-24.5 2.249-4.498 9-11.452 9-16.5l4-2c16.56 0 28.924 3.212 42.5 10 3.447 1.724 6.295 6.648 9 8l7.5 6.5c5.085 10.17 12.978 18.955 18 29 .696 1.391 2.391 8.5 4 8.5v1l1 2v1l1 1v19c-1.638 0-2 3.576-2 5v1c-1.638 0-2 3.576-2 5v2c-1.995 0-2 4.377-2 6l-1 1v1l-1 1v2l-1 1v1l-1 1v2l-1 1v1l-1 1v1l-1 1-1 1v1l-1 1-1 1-4 4Z"/><path fill="#187D61" id="SSp-m6a" fill-rule="evenodd" d="M344 112c0 1.93 1.93 0 0 0m-5-4c0 1.93 1.93 0 0 0m39 27c-2.586 0-11.09 10-14 10 0-7.902-15.973-24.473-21.5-30l-10.5-9c0-1.476 7-4.234 7-1l3.5 6c4.138 2.069 8.498 2 12 2 5.01 0 11.254 6 16.5 6l1 1c0 5.182 6 9.678 6 15Z"/><path fill="#AAA8A9" id="SEZ" d="m257 104-2 1 2-1Z"/><path fill="#1A7D63" id="SSp-un6b" d="M125 106v1l4-2h-1c-1.048 0-3-.473-3 1Z"/><path fill="#AAA8A9" id="SEZ" d="m204 106-1 1-1-2 2 1ZM255 105l-1 1 1-1Z"/><path fill="#1A7D63" id="SSp-un6b" d="M331 106v1l-3-1v-1h1l2 1Z"/><path fill="#188064" id="SSp-m6b" d="M124 107h1v-1h-1v1Z"/><path fill="#90CBEC" id="LSc" d="m192 136 1 1c5.017 0 29-18.238 29-24v-2c-5.893 0-11.767-5-18-5l-1 1c0 7.697-11 17.31-11 29ZM265 137l-1 1c-5.162 0-30-21.065-30-25l1-2c4.423 0 11.17-4 18-4 0 5.86 12 18.744 12 30Z"/><path fill="#188064" id="SSp-m6b" d="M363 145h1c0-7.902-15.973-24.473-21.5-30l-10.5-9h-1v1c2.988 0 7.815 6.315 10 8.5 5.764 5.764 20 18.797 20 27.5v1l2 1ZM124 107c-1.238 0-3 .423-3 2 1.238 0 3-.423 3-2Z"/><path fill="#187D62" id="SSp-n6a" d="M339 108c0 1.93 1.93 0 0 0Z"/><path fill="#188064" id="SSp-m6b" d="M121 109c-1.938 0-9 5.842-9 8 2.428 0 9-6.112 9-8Z"/><path fill="#97D6F9" id="STR" d="m225 112-3 1v-2c1.048 0 3-.473 3 1ZM228 115h1l1-3h-4l2 3ZM232 112l2 1 1-2c-1.048 0-3-.473-3 1Z"/><path fill="#90CAED" id="LSr" d="m191 145 1 1c4.916 0 10.023-6 14-6l5-4c0-.037 17-14.528 17-21l-2-3h-1l-3 1c0 5.762-23.983 24-29 24l-2 2v6ZM266 143c-1.473 0-1 1.952-1 3-6.401 0-12.476-7-15-7l-5-3-6.5-5c-3.769-3.769-9.5-10.656-9.5-16l1-3h2l2 1c0 3.935 24.838 25 30 25l1 1 1 4Z"/><path fill="#187D62" id="SSp-n6a" d="M344 112c0 1.93 1.93 0 0 0Z"/><path fill="#1A7E62" id="SSs1" d="m43 176-5 1c0-17.316-.178-35.143 7-49.5.888-1.775 3.093-12.5 5-12.5l5 2v1c0 1.33-8.746 22.992-10 25.5-2.953 5.905-2 24.595-2 32.5Z"/><path fill="#8FCBEC" id="SF" d="M261 172c0-8.746-15.492-24.996-23.5-29-2.83-1.415-7.064-6.968-11-5-13.087 6.543-25.579 19.659-31.5 31.5l1 3.5-3-2-3-8.5V148l2-2c4.916 0 10.023-6 14-6 0 14.93 17.622-4 5-4 0-.037 17-14.528 17-21h1c0 5.344 5.731 12.231 9.5 16l6.5 5c-9.854 0 .622 17.256 6 6.5l-1-3.5c2.524 0 8.599 7 15 7l1 1c0 3.476 2.923 10.654 1 14.5-1.273 2.547-3 5.497-3 8.5-1.481 0-.785 2-3 2Z"/><path fill="#1A7E62" id="SSs1" d="m414 176 4 1c1.15 0 1.857-12.786 1-14.5-3.892-7.783-.108-19.216-4-27-2.53-5.06-8-14.862-8-20.5-2.72 0-3.553 2-6 2v1c2.076 0 4.132 9.764 5 11.5 6.675 13.351 8 30.503 8 46.5Z"/><path fill="#188064" id="SSp-m6b" d="m112 117-1 1 1-1Z"/><path fill="#1B8063" id="SSs2/3" d="M43 176h8c0-14.165 2.115-28.73 8-40.5.883-1.765 1.45-10.5 4-10.5v-1l-8-6c0 1.33-8.746 22.992-10 25.5-2.953 5.905-2 24.595-2 32.5Z"/><path fill="#188064" id="SSp-m6b" d="M111 118c-1.577 0-2 1.762-2 3 1.577 0 2-1.762 2-3Z"/><path fill="#1B8063" id="SSs2/3" d="M405 176h9c0-15.997-1.325-33.149-8-46.5-.868-1.736-2.924-11.5-5-11.5l-8 6v1c3.02 0 3.978 9.456 5 11.5 5.771 11.542 7 25.554 7 39.5Z"/><path fill="#1B7E63" id="SSp-m5" d="M69 129c2.923 0 5.76 6 9 6 0-5.175 6-9.569 6-15-3.985 0-8.355 4-13 4l-1 2-1 2v1ZM378 135h1c0-1.177 6.257-6 8-6v-3l-1-1c-.529 0-11.042-5-14-5 0 5.182 6 9.678 6 15Z"/><path fill="#188064" id="SSp-m6b" d="M107 123h2v-2c-1.747 0-2 .253-2 2ZM107 125l-4 2 4-4v2Z"/><path fill="#C9C9CA" id="scwm" d="M109 123c0 1.747-.253 2-2 2v-2h2Z"/><path fill="#187C63" id="SSs4" d="m56 175-5 1c0-14.165 2.115-28.73 8-40.5.883-1.765 1.45-10.5 4-10.5l4 1 2 2v1c-2.264 0-3.193 7.885-4 9.5-5.167 10.335-9 24.261-9 36.5Z"/><path fill="#1B7F62" id="SSp-m4" d="m70 126-1 2-2-2h3Z"/><path fill="#C9C9CA" id="scwm" d="M103 127c0 3.685-4 6.026-4 10 1.933 0 8-10.099 8-12l-4 2Z"/><path fill="#1B7F62" id="SSp-m4" d="m389 126-2 2v-2c0-1.93 1.161 0 2 0Z"/><path fill="#187C63" id="SSs4" d="m400 175 5 1c0-13.946-1.229-27.958-7-39.5-1.022-2.044-1.98-11.5-5-11.5l-4 1-2 2v1c2.664 0 4.088 8.675 5 10.5 5.055 10.11 8 23.45 8 35.5Z"/><path fill="#188064" id="SSp-m6b" d="M94 145h1v-1c0-1.238.423-3 2-3 0-1.465-.109-4 2-4 0-3.974 4-6.315 4-10-2.366 0-10 14.135-10 17v1h1Z"/><path fill="#1C8063" id="SSs5" d="M56 175h13c0-5.316 2.147-24.793 4-28.5l5-11.5c-3.24 0-6.077-6-9-6-2.264 0-3.193 7.885-4 9.5-5.167 10.335-9 24.261-9 36.5ZM387 175h13c0-12.05-2.945-25.39-8-35.5-.912-1.825-2.336-10.5-5-10.5-1.743 0-8 4.823-8 6 0 3.856 2.384 7.268 4 10.5 3.293 6.586 4 21.303 4 29.5Z"/><path fill="#197D63" id="SSs6a" d="M69 175h14c0-6.406 4.165-17.831 7-23.5.632-1.265 1.278-6.5 3-6.5v-1c-5.57 0-10.578-9-15-9l-5 11.5c-1.853 3.707-4 23.184-4 28.5ZM373 175h14c0-8.197-.707-22.914-4-29.5-1.616-3.232-4-6.644-4-10.5h-1c-2.586 0-11.09 10-14 10 0 5.928 9 21.299 9 30Z"/><path fill="#97D6F9" id="STR" d="m193 137-2 2c0-1.048-.473-3 1-3l1 1Z"/><path fill="#CBC8CB" id="fi" d="M211 136c12.622 0-5 18.93-5 4l5-4ZM245 136l5 3 1 3.5c-5.378 10.756-15.854-6.5-6-6.5Z"/><path fill="#C9C9CA" id="scwm" d="M99 137c-2.109 0-2 2.535-2 4l2-4Z"/><path fill="#97D6F9" id="STR" d="m264 138 1 1v-2l-1 1Z"/><path fill="#96A7D2" id="TRS" d="m234 184 1 1 4.5-8 3.5 3 7-1h2l1-1h1l3-1.5 3-3.5 1-1c0-8.746-15.492-24.996-23.5-29-2.83-1.415-7.064-6.968-11-5-13.087 6.543-25.579 19.659-31.5 31.5l1 3.5 6 5 5 1 7 1c0-6.866 7 1.651 7 5l1-2c0-17.079 12-15.996 12 1Z"/><path fill="#C9C9CA" id="scwm" d="M97 141c-1.577 0-2 1.762-2 3 1.577 0 2-1.762 2-3Z"/><path fill="#97D6F9" id="STR" d="m265 146 1 1v-4c-1.473 0-1 1.952-1 3Z"/><path fill="#C9C9CA" id="scwm" d="M363 145v2c-1.577 0-2-1.762-2-3l2 1Z"/><path fill="#1A8061" id="SSs6b" d="m83 175 2 1v-4l1-1v-2l1-1v-2l1-2c0-1.048-.473-3 1-3l1-5 1-2v-1l1-2 1-2v-1l1-3h-1c-1.722 0-2.368 5.235-3 6.5-2.835 5.669-7 17.094-7 23.5Z"/><path fill="#C9C9CA" id="scwm" d="M95 145c0 1.238-.423 3-2 3l1-3h1Z"/><path fill="#97D6F9" id="STR" d="M177 171c0-3.425-3.6-12.299-6-7.5-2.492 4.984 2 12.899 2 17.5-2.995 0-4-9.889-4-12.5 0-13.837 8.03-8.061 12-16l4-7.5v14.5c.726 1.451 5 12.619 5 13.5-1.88 0-4.309-4-9-4l-1 1-3 1ZM192 146l-2 2c0-1.048-.473-3 1-3l1 1Z"/><path fill="#1A8061" id="SSs6b" d="M372 176h1v-1c0-8.701-9-24.072-9-30h-1v3c2.109 0 2 2.535 2 4v1l1 2v1l1 1 2 8v1l1 2v1l1 1v5l1 1Z"/><path fill="#97D6F9" id="STR" d="M279 171c0-1.443 5.09-11.32 6-9.5V178c2.942 0 2-9.252 2-11.5 0-10.991-7.366-6.732-10-12l-5-8.5c0 9.464-4 18.596-4 25 .36 0 8-4.641 8-1l3 1Z"/><path fill="#C9C9CA" id="scwm" d="M363 148c2.109 0 2 2.535 2 4l-2-4ZM93 149l-1 2 1-2ZM92 151l-1 2 1-2ZM365 153l1 2-1-2ZM91 154l-1 2 1-2ZM366 156l1 1-1-1Z"/><path fill="#C9C7C9" id="ccb" d="M89 161c-1.473 0-1 1.952-1 3 1.473 0 1-1.952 1-3Z"/><path fill="#CCC" d="M173 188c1.773 0 1 9.259 1 11 2.489 0-.192 9 1.5 9 1.454 0 .948-8.397 1.5-9.5 4.039-8.078 0-19.643 0-27.5 0-3.425-3.6-12.299-6-7.5-2.492 4.984 2 12.899 2 17.5v7ZM283 195c-1.643 0-1 3.765-1 5l-1.5 6c-1.455 0-1.5-7.599-1.5-9v-26c0-1.443 5.09-11.32 6-9.5V178l-1 2v1l-1 2v12Z"/><path fill="#C9C7C9" id="ccb" d="m88 164-1 2 1-2ZM369 166l1 2-1-2ZM87 168l-1 1 1-1Z"/><path fill="#8599CC" id="PAL" d="m181 169-1 1 1-1Z"/><path fill="#B3C0DE" id="BST" d="M200 233h2l2-2c0-2.868 2.132-5 5-5l1-8.5c-.946-1.892-2-5.372-2-7.5l-4.5 1c-4.728-2.364 1.5-8.127 1.5-10v-2l-1-6-5-9.5-8-8.5-1-2c-1.88 0-4.309-4-9-4l-1 1c0 14.948-3 29.694-3 44l-1 1v2c0 7.215 7 12.076 7 13h1l1 1 3 1c3.119 0 6.279 2 10 2l2-1ZM256 233h11l6-3 6-4.5c1.437-2.873 1-7.041 1-10.5 0-4.426-1.071-11.642-3-15.5-1.231-2.462-1-25.902-1-29.5 0-3.641-7.64 1-8 1l-1 2-1 1-1 1-8 8v1l-1 2-3 7c0 .706-1.325 6-2 6v2c0 3.59 8.718 10-.5 10l-2.5-1-2 11.5 2 4.5c2.96 0 4 2.399 4 5l2 2h2Z"/><path fill="#C9C7C9" id="ccb" d="m370 169 1 1-1-1Z"/><path fill="#8599CC" id="PAL" d="M173 220v1l3-4v-2l1-1c0-14.306 3-29.052 3-44l-3 1c0 7.857 4.039 19.422 0 27.5-.552 1.103-.046 9.5-1.5 9.5-1.692 0 .989-9-1.5-9l-1 2v4l-1 1v1l-1 1c0 2.804-3.614 4-6 4l-2 1h-1l-2 1v1c0 2.578-2 5.114-2 8 2.423 0 14-15.676 14-4l1 1Z"/><path fill="#A8A9AA" id="V3" d="M222 183c2.5 0-.552 14.474 2.5 16 1.619.81 3.001-1 4-1l3 1c2.206-1.103 2.5-12.782 2.5-15 0-16.996-12-18.079-12-1Z"/><path fill="#97D6F9" id="STR" d="M254 178c3.236 0 3 2.435 3 5l8-8c-1.643 0-1-3.765-1-5-1.481 0-.785 2-3 2l-1 1-3 3.5-3 1.5Z"/><path fill="#8599CC" id="PAL" d="m284 220 1-1.5c5.301-10.603 8.634 5.5 14 5.5 0-2.958-2-3.621-2-9l-2-2h-2l-2-1h-1l-1-1c-2.226 0-4-1.774-4-4l-1-1v-2l-1-1v-3h-1l-1.5 6c-1.455 0-1.5-7.599-1.5-9v-26l-3-1c0 3.598-.231 27.038 1 29.5 1.929 3.858 3 11.074 3 15.5 1.927 0 .106 5 4 5Z"/><path fill="#C8CBCC" id="ec" d="m86 171-1 1 1-1Z"/><path fill="#97D6F9" id="STR" d="m206 192-2 1-5-9.5-8-8.5c2.109 0 2-2.535 2-4l3 2 6 5c-5.926 0-1.802 10 3 10l1 4ZM268 171l-1 2 1-2Z"/><path fill="#8FCBEC" id="SF" d="m261 172-1 1 1-1Z"/><path fill="#97D6F9" id="STR" d="m267 173-1 1 1-1ZM266 174l-1 1 1-1Z"/><path fill="#11AC82" id="VISC4" d="M56 185c0 1.473-1.952 1-3 1 0-3.119-2-6.279-2-10l5-1v10Z"/><path fill="#12AD82" id="VISC5" d="M56 185h1l13-3v-1c-1.684 0-1-4.679-1-6H56v10Z"/><path fill="#11AC83" id="VISC6a" d="M83 180c-4.24 0-7.48 1-13 1-1.684 0-1-4.679-1-6h14v5Z"/><path fill="#11AD82" id="VISC6b" d="M83 180h1l1-2v-2l-2-1v5Z"/><path fill="#C8CBCC" id="ec" d="M372 179c0 1.406.714 7-1 7v-11l1 1v3Z"/><path fill="#11AC83" id="VISC6a" d="M373 180c3.91 0 8.901 1 14 1v-6h-14v5Z"/><path fill="#12AD82" id="VISC5" d="M387 182c4.522 0 8.202 3 13 3v-10h-13v7Z"/><path fill="#11AC82" id="VISC4" d="M403 187h1l1-11-5-1v11c1.048 0 3-.473 3 1Z"/><path fill="#12AD83" id="VISC1" d="m45 191-3 2c-2.061 0-4-13.661-4-16l5-1c0 5.151 2 9.701 2 14v1Z"/><path fill="#12AC83" id="VISC2/3" d="m53 187-8 3c0-4.299-2-8.849-2-14h8c0 3.721 2 6.881 2 10v1Z"/><path fill="#11AD82" id="VISC6b" d="M372 179h1v-3h-1v3Z"/><path fill="#12AC83" id="VISC2/3" d="m404 187 7 3c0-2.93 3-10.168 3-14h-9l-1 11Z"/><path fill="#12AD83" id="VISC1" d="m411 191 4 1c0-4.621 3-9.409 3-15l-4-1c0 3.832-3 11.07-3 14v1Z"/><path fill="#C7C8CA" id="fx" d="m206 201 4 1 5.5 2c7.152-3.576 5.5-13.025 5.5-19 0-3.349-7-11.866-7-5 0 1.704-2.715 7-5 7 0 1.238-1.923 5-3 5 0 1.406.714 7-1 7v1l1 1ZM247 202l-1 1-5.5 1c-5.723-2.861-5.5-13.187-5.5-19l4.5-8 3.5 3c0 2.025 1.233 7 4 7l4 6v8l-4 1Z"/><path fill="#C8CBCC" id="ec" d="M84 180c0 1.145-.58 4 1 4v-6l-1 2Z"/><path fill="#8FCBED" id="LSv" d="m208 187-3 1c-4.802 0-8.926-10-3-10l5 1 2 2.5c.978 1.956-1 4.077-1 5.5Z"/><path fill="#97D6F9" id="STR" d="m253 178-1 1 1-1Z"/><path fill="#8FCBED" id="LSv" d="m249 187 2 1c2.25 0 3.376-2 5-2l1-2v-1c0-2.565.236-5-3-5h-1l-1 1h-2l-3 3.5c-1.058 2.116 2 2.898 2 4.5Z"/><path fill="#97D6F9" id="STR" d="m285 178-1 2 1-2Z"/><path fill="#009B74" id="GU6a" d="M72 194h1l8-1 3-2-1-11c-4.24 0-7.48 1-13 1v1c0 4.527 2 7.754 2 12Z"/><path fill="#97D6F9" id="STR" d="M208 187h1c2.285 0 5-5.296 5-7l-7-1 2 2.5c.978 1.956-1 4.077-1 5.5ZM247 187h2c0-1.602-3.058-2.384-2-4.5l3-3.5-7 1c0 2.025 1.233 7 4 7Z"/><path fill="#019C74" id="GU6b" d="M371 191h1c0-2.998 1-7.358 1-11v-1h-1c0 1.406.714 7-1 7v5Z"/><path fill="#009B74" id="GU6a" d="m375 193 9 1 3-12v-1c-5.099 0-10.09-1-14-1 0 3.642-1 8.002-1 11 1.238 0 3 .423 3 2Z"/><path fill="#019C74" id="GU6b" d="M84 191h1v-7c-1.58 0-1-2.855-1-4h-1l1 11Z"/><path fill="#97D6F9" id="STR" d="m284 181-1 2 1-2Z"/><path fill="#019C75" id="GU5" d="M59 197h1c1.097 0 12-2.7 12-3 0-4.246-2-7.473-2-12l-13 3c0 4.393 2 7.089 2 11v1ZM396 197h1l3-11v-1c-4.798 0-8.478-3-13-3l-3 12v1c4.511 0 8.351 2 12 2Z"/><path fill="#CAC7CB" id="fiber tracts" d="M212 211c0-3.072 6.705-4.205 8.5-6 1.375-1.375 4.425-4.65 6.5-.5l1.5 2.5 5-5 2 3c2.408 1.204 8.5 2.946 8.5 6l4-1-3-2.5 1-4.5-5.5 1c-5.723-2.861-5.5-13.187-5.5-19l-1-1c0 2.218-.294 13.897-2.5 15l-3-1c-.999 0-2.381 1.81-4 1-3.052-1.526 0-16-2.5-16l-1 2c0 5.975 1.652 15.424-5.5 19l-5.5-2c0 1.423 1.978 3.544 1 5.5l-2 2.5 3 1Z"/><path fill="#97D6F9" id="STR" d="m257 184-1 2 1-2Z"/><path fill="#009C74" id="GU4" d="M57 197h1l1-1c0-3.911-2-6.607-2-11h-1c0 1.473-1.952 1-3 1v1c0 3.804 4 6.885 4 10Z"/><path fill="#97D6F9" id="STR" d="M251 193h2l3-7c-1.624 0-2.75 2-5 2v5Z"/><path fill="#009C74" id="GU4" d="M399 197h1c0-3.372 3-6.053 3-10 0-1.473-1.952-1-3-1l-3 11h1c0-1.186 1-1.186 1 0Z"/><path fill="#009B75" id="GU2/3" d="m57 197-8 2-4-8v-1l8-3c0 3.804 4 6.885 4 10Z"/><path fill="#C8CBCC" id="ec" d="M88 199h1c0-1.837-2.52-12-4-12v4l1 1 1 2 1 5Z"/><path fill="#CCC9C8" id="sm" d="m205 188 1 4c1.077 0 3-3.762 3-5h-1l-3 1ZM251 188v5l-4-6h2l2 1Z"/><path fill="#009B75" id="GU2/3" d="M407 199h1l3-8v-1l-7-3h-1c0 3.947-3 6.628-3 10l7 2Z"/><path fill="#97D6F9" id="STR" d="m174 199-1 2v-13c1.773 0 1 9.259 1 11Z"/><path fill="#C8CBCC" id="ec" d="M369 194h1v-1l1-1v-3c-1.638 0-2 3.576-2 5Z"/><path fill="#009C75" id="GU1" d="m49 200-4 1c0-2.7-3-4.762-3-8l3-2 4 8v1Z"/><path fill="#8ADA86" id="CLA" d="m89 207-4 1c-5.938 0-4-12.266-4-15l3-2h1v1l2 2 1 5 1 1 1 6-1 1Z"/><path fill="#009B74" id="GU6a" d="M85 192h1l-1-1v1Z"/><path fill="#8ADA86" id="CLA" d="m367 207 4 1c6.733 0 4-12.125 4-15 0-1.577-1.762-2-3-2h-1v1l-1 1v1l-1 1v3l-1 1v1l-1 1v6Z"/><path fill="#009C75" id="GU1" d="m408 199 3 2c1.653 0 4-7.372 4-9l-4-1-3 8Z"/><path fill="#209766" id="AIp6a" d="m86 192 1 2-2-2h1Z"/><path fill="#CAC7CB" id="fiber tracts" d="m204 193 1 6c1.714 0 1-5.594 1-7l-2 1Z"/><path fill="#209766" id="AIp6a" d="m371 192-1 1 1-1ZM81 213h1c0-2.364 3-3.053 3-5-5.938 0-4-12.266-4-15l-8 1c0 7.111 8 12.493 8 19Z"/><path fill="#CAC7CB" id="fiber tracts" d="M253 193c0 .706-1.325 6-2 6v-6h2Z"/><path fill="#209766" id="AIp6a" d="m371 208 4 5 9-18v-1l-9-1c0 2.875 2.733 15-4 15Z"/><path fill="#219864" id="AIp5" d="m79 215-5 1c0-1.901-14-13.187-14-19 1.097 0 12-2.7 12-3h1c0 7.111 8 12.493 8 19l-2 2Z"/><path fill="#209766" id="AIp6a" d="m370 194-1 1v-1h1Z"/><path fill="#97D6F9" id="STR" d="M282 200h1v-5c-1.643 0-1 3.765-1 5Z"/><path fill="#C8CBCC" id="ec" d="M367 200h1v-1l1-1v-3c-1.638 0-2 3.576-2 5Z"/><path fill="#219864" id="AIp5" d="m378 215 5 1c0-3.522 13-12.719 13-19-3.649 0-7.489-2-12-2l-9 18 3 2Z"/><path fill="#009B75" id="GU2/3" d="M58 197h1v-1l-1 1ZM398 197h1c0-1.186-1-1.186-1 0Z"/><path fill="#209865" id="AIp2/3" d="m74 216-10 4c-3.965 0-13.825-20-15-20v-1l8-2h3c0 5.813 14 17.099 14 19ZM383 216c0 1.291 8.283 4 10 4 0-3.766 14-14.46 14-21l-7-2h-4c0 6.281-13 15.478-13 19Z"/><path fill="#209766" id="AIp6a" d="m369 198-1 1 1-1ZM89 199v1l-1-1h1Z"/><path fill="#219765" id="AIp1" d="m393 220 4 3c1.749 0 14-19.216 14-22l-3-2h-1c0 6.54-14 17.234-14 21ZM64 220l-5 3c-1.097 0-14-19.821-14-22l4-1c1.175 0 11.035 20 15 20Z"/><path fill="#C8CBCC" id="ec" d="M90 206h1c0-1.357-.647-6-2-6l1 6Z"/><path fill="#CAC7CB" id="fiber tracts" d="M205 201h1l-1-1v1Z"/><path fill="#209766" id="AIp6a" d="m368 200-1 1v-1h1Z"/><path fill="#B3C0DF" id="BAC" d="M208 210h1l2-2.5c.978-1.956-1-4.077-1-5.5l-4-1h-1c0 1.873-6.228 7.636-1.5 10l4.5-1ZM246 203l-1 4.5 3 2.5 2.5 1c9.218 0 .5-6.41.5-10l-4 1-1 1Z"/><path fill="#C9C9C9" id="act" d="m236 213-1 1c-1.695 0-5.195.11-6-1.5l-.5-3.5-2 4c-2.953 1.476-3.862 0-6.5 0-3.015 0-6.004-2-8-2 0-3.072 6.705-4.205 8.5-6 1.375-1.375 4.425-4.65 6.5-.5l1.5 2.5 5-5 2 3c2.408 1.204 8.5 2.946 8.5 6-1.996 0-4.985 2-8 2Z"/><path fill="#CAC7CB" id="fiber tracts" d="m247 202-1 1 1-1Z"/><path fill="#C8CBCC" id="ec" d="m366 207-1 1c0-1.623.005-6 2-6v3l-1 2Z"/><path fill="#97D6F9" id="STR" d="m283 203 1 1-1-1ZM173 205l-1 1 1-1Z"/><path fill="#209766" id="AIp6a" d="M366 207h1v-2l-1 2ZM91 207v1l-2-1 1-1h1v1Z"/><path fill="#97D6F9" id="STR" d="m284 206 1 1-1-1Z"/><path fill="#A0EE9C" id="EPd" d="M98 231h3v-2l-1-4-2-3-1-1v-1l-1-1v-1l-1-1-1-4-1-1v-2l-2-2-2-1-4 1c0 1.947-3 2.636-3 5l1 6v1c3.082 0 9.377 11 15 11Z"/><path fill="#C8CBCC" id="ec" d="m91 208 2 2-2-3v1Z"/><path fill="#97D6F9" id="STR" d="m172 207-1 1 1-1Z"/><path fill="#A0EE9C" id="EPd" d="m364 229-6 2c-1.238 0-3-.423-3-2v-2l1-1 1-1v-1l1-1 1-1v-1l1-1v-1l1-1v-2l1-1v-1l1-1v-2l1-1v-1l1-1 1-1h1l4 1 4 5-2 6v1l-1 1-1 1-1 1-1 1v1l-2 1-1 1-1 1-1 1Z"/><path fill="#C8CBCC" id="ec" d="m365 208-1 1 1-1Z"/><path fill="#CAC7CB" id="fiber tracts" d="M224 217c0-3.145 9-3.145 9 0l2-3c-1.695 0-5.195.11-6-1.5l-.5-3.5-2 4c-2.953 1.476-3.862 0-6.5 0l4 4Z"/><path fill="#E64438" id="HY" d="M215 233c4.35 0 8.219 3 9 3 1.614 0 1-3.31 1-4.5 0-4.266-1.195-8.5 2-8.5v-2l-3-4-4-4c-3.015 0-6.004-2-8-2l-3-1h-1c0 2.128 1.054 5.608 2 7.5l-1 8.5c0 1.087 2 2.433 2 5 2.177 0 4-.641 4 2ZM241 233c-4.435 0-8.164 4-9 4l-.5-15-2.5 2v-3l4-4 2-3 1-1c3.015 0 6.004-2 8-2l4-1-2 11.5 2 4.5c-2.393 0-3 3.234-3 5-1.465 0-4-.109-4 2Z"/><path fill="#C8CBCC" id="ec" d="m364 210-1 1 1-1Z"/><path fill="#97D6F9" id="STR" d="m289 211 1 1-1-1Z"/><path fill="#C8CBCC" id="ec" d="m93 212 1 1-1-1Z"/><path fill="#97D6F9" id="STR" d="m165 212-2 1 2-1ZM291 212l2 1-2-1Z"/><path fill="#99D2BD" id="OLF" d="m79 215 4 4-1-6h-1l-2 2Z"/><path fill="#97D6F9" id="STR" d="m162 213-2 1 2-1Z"/><path fill="#CAC7CB" id="fiber tracts" d="m236 213-1 1 1-1Z"/><path fill="#97D6F9" id="STR" d="m297 215 6 2-8-4 2 2Z"/><path fill="#C8CBCC" id="ec" d="m363 213-1 1 1-1Z"/><path fill="#99D2BD" id="OLF" d="M378 215c-2.741 0-2.268 4-5 4l2-6 3 2Z"/><path fill="#97D6F9" id="STR" d="M158 215h2v-1l-2 1Z"/><path fill="#E64438" id="HY" d="m177 214-1 1 1-1Z"/><path fill="#6ACAB9" id="PIR" d="m120 286-5.5 1c-1.006-.503-5.584-3.332-6.5-1.5l1 2.5c-4.159 0-6.047-5.774-8.5-7-7.66-3.83-24.833-32.166-29.5-41.5-2.07-4.14-12-11.614-12-16.5l5-3 10-4 5-1 4 4v1c0 1.9 15.192 15 17 15l5 4.5c.412.823 12.396 12.5 14 12.5l6 11.5c3.307 6.614-4 17.952-4 21.5l-1 1Z"/><path fill="#97D6F9" id="STR" d="m157 215-2 1 2-1Z"/><path fill="#C9C9C9" id="act" d="M156 225c-3.566 0-9.309 5.404-12.5 7l-3.5 3-4.5 2c-1.089.545-6.5.251-6.5-1.5l12-10.5 1-1 1-1h1l1-1 2-1h1l1-1c0-1.077 3.762-3 5-3l1-1 2-1h3c0 2.578-2 5.114-2 8l-1 1-1 1Z"/><path fill="#A2B1D7" id="SI" d="m171 253-5 1c-4.857 0-15.409 3.545-20.5 1l-4.5-2v-6c0-5.738 9-10.262 9-16l6-6 1-1 1-1c2.423 0 14-15.676 14-4l1 1v1c0 3.709 2.381 9.263 4 12.5.523 1.046-.951 3.5 1 3.5 0 5.154 3.337 15-6 15l-1 1Z"/><path fill="#E64438" id="HY" d="M273 230c3.795 0 3.903 6 6 6l5-16c-3.894 0-2.073-5-4-5 0 3.459.437 7.627-1 10.5l-6 4.5Z"/><path fill="#A2B1D7" id="SI" d="m315 253-4.5 2c-5.122 2.561-15.565-1-20.5-1l-5-1-1-1c-10.497 0-5-11.315-5-16l5-16 1-1.5c5.301-10.603 8.634 5.5 14 5.5l7 7 9 15 1 3-1 4Z"/><path fill="#C9C9C9" id="act" d="M310 221c0 1.693 17 11.645 17 14.5 0 3.036-6.66.92-7.5.5-3.763-1.882-17.555-12-20.5-12 0-2.958-2-3.621-2-9l6 2 5 3 1 1h1Z"/><path fill="#C8CBCC" id="ec" d="m362 215-1 1 1-1Z"/><path fill="#6ACAB9" id="PIR" d="M337 286c1.907 0 12-.984 12 1 5.54 0 8.612-10.056 12.5-12 4.887-2.443 22.288-31.075 25.5-37.5 2.358-4.716 10-9.001 10-14.5l-4-3c-1.717 0-10-2.709-10-4l-5-1c-2.741 0-2.268 4-5 4v1l-1 1-1 1-1 1-1 1v1l-2 1-1 1-1 1-1 1-8 7-18 16-3 3.5-4 10c-3.408 6.816 6 19.881 6 20.5Z"/><path fill="#97D6F9" id="STR" d="m155 216-1 1 1-1Z"/><path fill="#C8CBCC" id="ec" d="m95 217 1 1-1-1Z"/><path fill="#E64438" id="HY" d="M183 230c-3.091 0-5 4.408-5 7-1.951 0-.477-2.454-1-3.5-1.619-3.237-4-8.791-4-12.5l3-4c0 7.215 7 12.076 7 13Z"/><path fill="#C8CBCC" id="ec" d="m361 218-1 1 1-1ZM96 219l1 1-1-1Z"/><path fill="#E64438" id="HY" d="m172 219 1 1-1-1Z"/><path fill="#99D2BD" id="OLF" d="M100 233v2c-1.808 0-17-13.1-17-15 3.082 0 9.377 11 15 11l2 2Z"/><path fill="#97D6F9" id="STR" d="m149 220-1 1 1-1ZM308 220l1 1-1-1Z"/><path fill="#C8CBCC" id="ec" d="m360 220-1 1 1-1Z"/><path fill="#99D2BD" id="OLF" d="m373 220-1 1 1-1Z"/><path fill="#C8CBCC" id="ec" d="m97 221 1 1-1-1Z"/><path fill="#97D6F9" id="STR" d="m147 221-2 1 2-1Z"/><path fill="#A8A9AA" id="V3" d="M227 223c0 6.284 2 8.578 2 1v-3h-2v2Z"/><path fill="#97D6F9" id="STR" d="M321 260c5.453 0 6-.757 6 6 1.993 0 1.35-5.2 2-6.5 1.169-2.338 5-5.905 5-8.5 0-1.738.686-6 3-6l1-2 1-1 1-1 1-1 1-1c0-1.577 1.762-2 3-2v-1c-1.048 0-3 .473-3-1-15.388 0-25.592-14-32-14 0 1.693 17 11.645 17 14.5 0 3.036-6.66.92-7.5.5-3.763-1.882-17.555-12-20.5-12l7 7 16.5 8c3.563 1.781 6.529-1.764 9-3 1.537-.769 12.419-1.419 4 7l-3.5 3.5-5.5 3.5c-4.86 2.43-8.137-4-11.5-4l1 3 3 5c0 1.714 2 3.482 2 6Z"/><path fill="#99D2BD" id="OLF" d="m372 221-1 1 1-1Z"/><path fill="#97D6F9" id="STR" d="m145 222-1 1 1-1Z"/><path fill="#FE5547" id="PVpo" d="M218 275h1l1-1 4-1 1-2 3-7.5.5-3.5.5 5.5 2 5.5 2 2 5 2c0-2.547-3-5.453-3-8v-1c0-1.091-2.339-7.177-3-8.5V237l-.5-15-2.5 2c0 7.578-2 5.284-2-1-3.195 0-2 4.234-2 8.5 0 1.19.614 4.5-1 4.5v22.5c0 1.147-.957 6.5-2 6.5l-1 1c0 3.391-3 5.353-3 9Z"/><path fill="#C8CBCC" id="ec" d="m359 222-1 1 1-1Z"/><path fill="#97D6F9" id="STR" d="m143 223-1 1 1-1Z"/><path fill="#8599CC" id="PAL" d="m158 223-1 1 1-1Z"/><path fill="#C8CBCC" id="ec" d="m358 223-1 1 1-1Z"/><path fill="#99D2BD" id="OLF" d="m370 223-1 1 1-1Z"/><path fill="#97D6F9" id="STR" d="m142 224-1 1 1-1ZM157 224l-1 1 1-1Z"/><path fill="#C8CBCC" id="ec" d="M111 235c.666 0 4 2.56 4 0-5.629 0-14.111-10-15-10l1 4c1.747 0 2 .253 2 2 2.364 0 3.053 3 5 3l1 1h2Z"/><path fill="#97D6F9" id="STR" d="M135 260c-3.169 0-6-1.425-6 4l-7-13c0-6.081-7-9.218-7-12 0-2.109-2.535-2-4-2v-2c.666 0 4 2.56 4 0 13.669 0 19.179-10 26-10l-12 10.5c0 1.751 5.411 2.045 6.5 1.5l4.5-2c0 7.267-18.932.216-22.5 2-3.47 1.735 10.551 11.776 13 13 3.785 1.892 7.349-3 10.5-3v1l-3 5c0 2.232-3 4.029-3 7Z"/><path fill="#97D6F9" id="STR" d="M150 231c-3.421 0-6.2 4-10 4l3.5-3c3.191-1.596 8.934-7 12.5-7l-6 6Z"/><path fill="#C8CBCC" id="ec" d="m357 225-1 1 1-1Z"/><path fill="#99D2BD" id="OLF" d="m369 225-2 1 2-1Z"/><path fill="#FE5346" id="PD" d="M211 231c0 4.246-3.976 2-6 2l-1-2c0-2.868 2.132-5 5-5 0 1.087 2 2.433 2 5ZM252 231l-1 2c-1.422 0-6 2.269-6-2 0-1.766.607-5 3-5 2.96 0 4 2.399 4 5Z"/><path fill="#C8CBCC" id="ec" d="m356 226-1 1 1-1ZM351 231h2l2-2v-2l-4 4Z"/><path fill="#99D2BD" id="OLF" d="m366 227-1 1 1-1ZM365 228l-1 1 1-1Z"/><path fill="#8AD987" id="CTXsp" d="M101 231h2c0-1.747-.253-2-2-2v2ZM358 231l-2 3c0-2.041-.959-3-3-3l2-2c0 1.577 1.762 2 3 2Z"/><path fill="#99D2BD" id="OLF" d="M356 234v2l8-7-6 2-2 3Z"/><path fill="#F2473B" id="LPO" d="M191 268h2v-27.5l-2-4.5-3-4-3-1-1-1h-1c-3.091 0-5 4.408-5 7 0 5.154 3.337 15-6 15l3 5c5.301 0 13.248 11 16 11Z"/><path fill="#E64438" id="HY" d="m184 230 1 1-1-1Z"/><path fill="#F2473B" id="LPO" d="m263 267 3 1c0-3.265 12.377-11 15-11 0-1.312 3-2.446 3-5-10.497 0-5-11.315-5-16-2.097 0-2.205-6-6-6l-6 3-2 3-2 5.5V267Z"/><path fill="#8AD987" id="CTXsp" d="m101 231-1 2-2-2h3Z"/><path fill="#A0ED9D" id="EPv" d="M119 252h1l1-1c0-5.748-7-9.27-7-12-2.003 0-3 .293-3-2v-1l-1-1h-1l-1-1c-1.947 0-2.636-3-5-3h-2l-1 2v2l5 4.5c.412.823 12.396 12.5 14 12.5Z"/><path fill="#7ECDF8" id="FS" d="M140 235c0 7.267-18.932.216-22.5 2-3.47 1.735 10.551 11.776 13 13 3.785 1.892 7.349-3 10.5-3 0-5.738 9-10.262 9-16-3.421 0-6.2 4-10 4Z"/><path fill="#E64438" id="HY" d="M202 233h3l-1-2-2 2Z"/><path fill="#FF5346" id="MPO" d="M201 271h6l1-1h1l1-1v-2c-3.13 0-3.176-4.851-4-6.5-3.526-7.052-.888-27.5 9-27.5 0-2.641-1.823-2-4-2 0 4.246-3.976 2-6 2h-5l-2 1c0 .682-6.241 2-7 2l2 4.5V268c3.351 0 5.596 3 8 3ZM248 270c1.819 0 4.591 1 7 1 2.666 0 4.031-3 8-3v-26.5l2-5.5c-1.338 0-9-1.408-9-3h-5c-1.422 0-6 2.269-6-2-1.465 0-4-.109-4 2 14.009 0 11.989 34 5 34v2l2 1Z"/><path fill="#E64438" id="HY" d="M251 233h3l-2-2-1 2Z"/><path fill="#7ECDF8" id="FS" d="m306 231 16.5 8c3.563 1.781 6.529-1.764 9-3 1.537-.769 12.419-1.419 4 7l-3.5 3.5-5.5 3.5c-4.86 2.43-8.137-4-11.5-4l-9-15Z"/><path fill="#C8CBCC" id="ec" d="M346 235h1l1-1c1.658 0 3-1.461 3-3l-9 4c0 1.473 1.952 1 3 1l1-1Z"/><path fill="#A0ED9D" id="EPv" d="M336 252h2l18-16v-2c0-2.041-.959-3-3-3h-2c0 1.539-1.342 3-3 3l-1 1h-1l-1 1v1c0 2.293-.997 2-3 2l-1 1-1 1-1 1-1 1-1 2c0 2.932-1 4.186-1 7Z"/><path fill="#E64438" id="HY" d="M198 234c0 .682-6.241 2-7 2l-3-4c3.119 0 6.279 2 10 2ZM200 233l-2 1 2-1Z"/><path fill="#FD4C3E" id="MPN" d="M210 267h5c2.124 0 4.436-1 6-1l1-1c1.043 0 2-5.353 2-6.5V236c-.781 0-4.65-3-9-3-9.888 0-12.526 20.448-9 27.5.824 1.649.87 6.5 4 6.5ZM242 267h4c6.989 0 9.009-34-5-34-4.435 0-8.164 4-9 4v20.5c.661 1.323 3 7.409 3 8.5h1c1.564 0 3.876 1 6 1Z"/><path fill="#E64438" id="HY" d="m267 233-2 3c-1.338 0-9-1.408-9-3h11Z"/><path fill="#8AD987" id="CTXsp" d="m108 234 1 1-1-1ZM348 234l-1 1 1-1ZM111 235v1l-1-1h1ZM346 235l-1 1 1-1Z"/><path fill="#80BEE2" id="IA" d="M114 239h1c0-2.109-2.535-2-4-2 0 2.293.997 2 3 2ZM345 237c-1.238 0-3 .423-3 2 2.003 0 3 .293 3-2Z"/><path fill="#8AD987" id="CTXsp" d="M121 251h1c0-6.081-7-9.218-7-12h-1c0 2.73 7 6.252 7 12ZM342 239l-1 1 1-1ZM341 240l-1 1 1-1ZM340 241l-1 1 1-1ZM338 243l-1 2 1-2ZM334 251l2 1c0-2.814 1-4.068 1-7-2.314 0-3 4.262-3 6Z"/><path fill="#8599CC" id="PAL" d="M138 253h3v-5l-3 5ZM315 253l4 1-3-5-1 4Z"/><path fill="#8AD987" id="CTXsp" d="m121 251-1 1 1-1Z"/><path fill="#99D2BD" id="OLF" d="M126 289h4c0-1.048-.473-3 1-3 0-2.268-3.29-3.921-2-6.5l3-2.5c-1.127 0-3-10.239-3-12v-1l-7-13h-1l-1 1h-1l6 11.5c3.307 6.614-4 17.952-4 21.5 3.41 0 5 .234 5 4ZM327 289h4c0-5.885 2.051-3 6-3 0-.619-9.408-13.684-6-20.5l4-10 3-3.5h-2l-2-1c0 2.595-3.831 6.162-5 8.5-.65 1.3-.007 6.5-2 6.5 0 4.7-2 7.3-2 12 4.045 0 1 5.781 1 7l1 4Z"/><path fill="#E64438" id="HY" d="M173 257h2l-3-5-1 1 2 4ZM281 257h3l1-4-1-1c0 2.554-3 3.688-3 5Z"/><path fill="#A2B1D8" id="MA" d="M156 277h9l5-4c0-4.27 1-10.067 1-15l-2.5-3c-.919-.459-2.5.765-2.5-1-4.857 0-15.409 3.545-20.5 1l-4.5-2h-3c0 2.232-3 4.029-3 7 1.986 0 21.874 11.248 23 13.5l-2 3.5Z"/><path fill="#8599CC" id="PAL" d="m173 257-2 1-2.5-3c-.919-.459-2.5.765-2.5-1l5-1 2 4ZM284 257l1 2 5-5-5-1-1 4Z"/><path fill="#A2B1D8" id="MA" d="M292 277h8l-1-4.5c1.82-3.64 11.089-6.795 14.5-8.5l7.5-4c0-2.518-2-4.286-2-6l-4-1-4.5 2c-5.122 2.561-15.565-1-20.5-1l-5 5c0 4.725 1 9.879 1 14 1.287 0 3.637 4 6 4Z"/><path fill="#96A6D3" id="NDB" d="m189 278-1 1c-7.643 0-17.775-6-18-6 0-4.27 1-10.067 1-15l2-1h2c5.301 0 13.248 11 16 11v1c0 3.68-2 5.511-2 9ZM267 277l2 2c3.682 0 17-.879 17-6 0-4.121-1-9.275-1-14l-1-2h-3c-2.623 0-15 7.735-15 11l-1 1 2 8Z"/><path fill="#80C0E2" id="AAA" d="m129 265 2.5 4 8 6c4.946 2.473 10.513 2 16.5 2l2-3.5c-1.126-2.252-21.014-13.5-23-13.5-3.169 0-6-1.425-6 4v1ZM327 266l-6.5 7c-6.835 3.417-12.117 4-20.5 4l-1-4.5c1.82-3.64 11.089-6.795 14.5-8.5l7.5-4c5.453 0 6-.757 6 6Z"/><path fill="#A8A9AA" id="V3" d="M225 271h6l-2-5.5-.5-5.5-.5 3.5-3 7.5Z"/><path fill="#97D6F9" id="STR" d="m165 277 6 5-4.5-2h-21c-4.267-2.134-8.275-3-13.5-3-1.127 0-3-10.239-3-12l2.5 4 8 6c4.946 2.473 10.513 2 16.5 2h9Z"/><path fill="#E64438" id="HY" d="m222 265-1 1 1-1Z"/><path fill="#FD5545" id="VMPO" d="M203 279h6c0-1.995 4.377-2 6-2l1-1 2-1c0-3.647 3-5.609 3-9-1.564 0-3.876 1-6 1 0 1.014-3.959 2-5 2l-1 1h-1l-1 1c0 1.362-4 3.389-4 8Z"/><path fill="#E64438" id="HY" d="m236 266-1 1v-1h1Z"/><path fill="#FD5545" id="VMPO" d="M238 275c4.773 0 9.255 4 15 4 0-5.953-5-6.635-5-9l-2-1-4-2c-2.124 0-4.436-1-6-1l-1 1c0 2.547 3 5.453 3 8Z"/><path fill="#97D6F9" id="STR" d="M325 278c-11.49 0-25.303 3-38 3l5-4h8c8.383 0 13.665-.583 20.5-4l6.5-7c0 4.7-2 7.3-2 12Z"/><path fill="#E64438" id="HY" d="M215 267c0 1.014-3.959 2-5 2v-2h5ZM246 267v2l-4-2h4ZM266 268l-1 1-2-1v-1l3 1ZM193 268l-2 1v-1h2Z"/><path fill="#FE5546" id="VLPO" d="m201 279-3 1c-3.222 0-6.277-1-9-1v-1c0-3.489 2-5.32 2-9l2-1c3.351 0 5.596 3 8 3v8ZM268 279l-9 1-4-1v-8c2.666 0 4.031-3 8-3l2 1 2 8 1 2Z"/><path fill="#E64438" id="HY" d="m210 269-1 1 1-1ZM208 270l-1 1 1-1ZM253 279h2v-8c-2.409 0-5.181-1-7-1 0 2.365 5 3.047 5 9ZM201 279h2c0-4.611 4-6.638 4-8h-6v8Z"/><path fill="#8599CC" id="PAL" d="M171 282c0 1.49 1 2.587 1 5 2.913 0 16-4.027 16-8-7.643 0-17.775-6-18-6l-5 4 6 5Z"/><path fill="#CAC7CB" id="fiber tracts" d="m228 274-8 1v-1l4-1c1.145 0 4-.579 4 1Z"/><path fill="#CAC7CB" id="fiber tracts" d="M198 280c0 1.923-4.695 6.902-.5 9 1.358.679 25.975 1.013 28 0l3-3 3 3c3.099 1.55 27.705.09 28.5-1.5 1.182-2.364-1-5.696-1-7.5l-4-1h-2c-5.745 0-10.227-4-15-4l-5-2c-1.145 0-4-.579-4 1 5.449 0 9.974 2.737 14.5 5 3.026 1.513 18.417-.334 14.5 7.5-1.94 3.879-11.053.5-14 .5-2.128 0-5.608-1.054-7.5-2-4.37-2.185-25.503 1.252-29 3-2.53 1.265-8.276-.052-9.5-2.5-3.279-6.557 11-4.205 11-6.5h-8l-3 1Z"/><path fill="#8599CC" id="PAL" d="M285 287v1c-2.961 0-16-6.151-16-9 3.682 0 17-.879 17-6 1.287 0 3.637 4 6 4l-5 4h-1l-1 1-2 2.5 2 2.5Z"/><path fill="#E64438" id="HY" d="M219 275h1v-1l-1 1Z"/><path fill="#CBCACC" id="och" d="M216 277c0 1.663-5.407 2-7 2 0 2.295-14.279-.057-11 6.5 1.224 2.448 6.97 3.765 9.5 2.5 3.497-1.748 24.63-5.185 29-3 1.892.946 5.372 2 7.5 2 2.947 0 12.06 3.379 14-.5 3.917-7.834-11.474-5.987-14.5-7.5-4.526-2.263-9.051-5-14.5-5h-1l-8 1c0 2.109-2.535 2-4 2Z"/><path fill="#CAC7CB" id="fiber tracts" d="M216 276v1c1.465 0 4 .109 4-2h-2l-2 1Z"/><path fill="#E64438" id="HY" d="M215 277h1v-1l-1 1Z"/><path fill="#7FCCF7" id="OT" d="m138 293 2 2c3.001 0 27 4.21 27-3l1-1 1-1 1-1 1-1 1-1c0-2.413-1-3.51-1-5l-4.5-2h-21c-4.267-2.134-8.275-3-13.5-3l-3 2.5c-1.29 2.579 2 4.232 2 6.5 1.803 0 3 3.592 3 5h1l2 2h1Z"/><path fill="#CAC7CB" id="fiber tracts" d="M216 277c0 1.663-5.407 2-7 2 0-1.995 4.377-2 6-2h1Z"/><path fill="#E64438" id="HY" d="M268 279h1l-2-2 1 2Z"/><path fill="#7FCCF7" id="OT" d="m317 294-1 1c-4.053 0-10.682 4.409-15.5 2l-10.5-4-1-1-1-1-1-1-1-1-1-2-2-2.5 2-2.5 1-1h1c12.697 0 26.51-3 38-3 4.045 0 1 5.781 1 7-1.077 0-3 3.762-3 5l-1 1c-1.238 0-3 .423-3 2l-2 1Z"/><path fill="#E64438" id="HY" d="M188 279h1v-1l-1 1Z"/><path fill="#97D6F9" id="STR" d="m286 281-1 1 1-1Z"/><path fill="#CAC8C7" id="lot" d="M109 288c0 7.415 15.22 1 17 1 0-3.766-1.59-4-5-4l-1 1-5.5 1c-1.006-.503-5.584-3.332-6.5-1.5l1 2.5Z"/><path fill="#99D2BD" id="OLF" d="m121 285-1 1 1-1Z"/><path fill="#97D6F9" id="STR" d="m327 289-4 1c0-1.238 1.923-5 3-5l1 4Z"/><path fill="#CAC8C7" id="lot" d="m348 288-3.5 3c-1.948.974-13.5 1.031-13.5-2 0-5.885 2.051-3 6-3 1.907 0 12-.984 12 1l-1 1Z"/><path fill="#97D6F9" id="STR" d="m130 289 4 2c0-1.408-1.197-5-3-5-1.473 0-1 1.952-1 3Z"/><path fill="#8599CC" id="PAL" d="m172 287-1 1 1-1Z"/><path fill="#97D6F9" id="STR" d="m285 288 1 1-1-2v1Z"/><path fill="#6ACAB9" id="PIR" d="m349 287-1 1 1-1Z"/><path fill="#97D6F9" id="STR" d="m171 288-1 1 1-1ZM170 289l-1 1 1-1ZM287 290l1 1-1-1ZM323 290l-1 1 1-1ZM135 291l2 2-2-2ZM168 291l-1 1 1-1ZM322 291c-1.238 0-3 .423-3 2 1.238 0 3-.423 3-2ZM289 292l1 1-1-1ZM138 293l2 2-2-2ZM319 293l-2 1 2-1ZM317 294l-1 1 1-1Z"/></svg>