<svg xmlns="http://www.w3.org/2000/svg" viewBox="0 0 456 320"><path fill="#1E9C59" id="MOs1" d="m134 141-5 4c0-3.19-6.886-14.727-5-18.5 2.913-5.825 3.025-13.051 6-19 6.491-12.982 21.905-20.702 33.5-26.5 8.459-4.23 29.622-7.69 39-3 1.533.767 8.5 1.971 8.5 4-1.832 0-5 3.242-5 5h-1c-6.485 0-17.914-6.793-25.5-3-4.16 2.08-9.884.942-14 3-16.211 8.106-25.17 14.84-33.5 31.5-3.129 6.257 2 16.78 2 22.5ZM322 141l5 4c3.96 0 6.448-26.052 2.5-30-2.2-2.2-4.97-9.439-6.5-12.5-6.241-12.483-37.996-26.5-50.5-26.5-4.764 0-26.5 1.504-26.5 6l5 5 10.5-3c3.046-1.523 13.421-.29 16 1 3.638 1.82 9.318.159 13 2 12.575 6.288 25.728 12.957 32.5 26.5 4.738 9.475-1 18.47-1 27.5Z"/><path fill="#2FA750" id="PL1" d="M223 116h11c0-7.978 6.838-29 17-29l-5-5c-5.917 0-12.937 13.374-15 17.5l-2.5 7.5c-1.413 0-2.974-7.448-3.5-8.5-1.156-2.312-11.467-16.5-14-16.5-1.832 0-5 3.242-5 5 8.881 0 17 22.219 17 29Z"/><path fill="#1E9D58" id="MOs2/3" d="M134 141h1c0-1.957 10.483-6 12.5-6 2.082 0 5.221 2 7.5 2 0-1.019-2.389-6.278-3-7.5l1-3c0-11.847 8.689-24.094 19.5-29.5 5.416-2.708 13.03-4 19.5-4 1.406 0 7-.714 7 1h1l5-7c-6.485 0-17.914-6.793-25.5-3-4.16 2.08-9.884.942-14 3-16.211 8.106-25.17 14.84-33.5 31.5-3.129 6.257 2 16.78 2 22.5ZM302 137l7.5-2c2.585 1.293 9.912 6 12.5 6 0-9.03 5.738-18.025 1-27.5-6.772-13.543-19.925-20.212-32.5-26.5-3.682-1.841-9.362-.18-13-2-2.579-1.29-12.954-2.523-16-1L251 87c0 2.696 5 3.847 5 7h1c3.144 0 9.901-2.8 13.5-1l13 4c10.286 5.143 14.617 12.735 19.5 22.5 2.951 5.902-1 12.293-1 17.5Z"/><path fill="#2FA74F" id="PL2/3" d="m216 115 7 1c0-6.781-8.119-29-17-29h-1l-5 7c10.847 0 16 11.642 16 21ZM241 115l-7 1c0-7.978 6.838-29 17-29 0 2.696 5 3.847 5 7-10.303 0-15 10.571-15 20v1Z"/><path fill="#1F9D58" id="MOs5" d="M155 137h2c1.928 0 4-8.228 4-10 0-2.926-3.9-6.701-2-10.5 7.612-15.224 23.638-15.5 36-15.5 0-2.919 4-4.243 4-7 0-1.714-5.594-1-7-1-6.47 0-14.084 1.292-19.5 4-10.811 5.406-19.5 17.653-19.5 29.5l-1 3c.611 1.222 3 6.481 3 7.5ZM299 138h1l1-1h1c0-5.207 3.951-11.598 1-17.5-4.883-9.765-9.214-17.357-19.5-22.5l-13-4c-3.599-1.8-10.356 1-13.5 1l5 7c9.079 0 15.721-.39 24.5 4l8 6c2.911 1.455 5.311 15 .5 15 0 4.362 4 7.596 4 12Z"/><path fill="#2EA84F" id="PL5" d="M207 112c3.283 0 6.01 3 9 3 0-9.358-5.153-21-16-21h-1c0 2.757-4 4.081-4 7 3.2 0 12 7.566 12 11ZM250 111c-2.86 0-5.58 3-9 3 0-9.429 4.697-20 15-20h1l5 7c-3.021 0-12 6.295-12 10Z"/><path fill="#258F45" id="FRP5" d="M188 114c6.094 0 12.581 3 16 3 6.264 0 3 3.493 3-5 0-3.434-8.8-11-12-11-12.362 0-28.388.276-36 15.5-1.9 3.799 2 7.574 2 10.5 5.123 0 17.878-13 27-13ZM252 117l-1 1c-4.132 0-1-4.907-1-7 0-3.705 8.979-10 12-10 9.079 0 15.721-.39 24.5 4l8 6c2.911 1.455 5.311 15 .5 15-9.916 0-16.604-12-27-12-5.74 0-12.922 3-16 3Z"/><path fill="#23885E" id="ORBm5" fill-rule="evenodd" d="M248 118c0 1.93 1.93 0 0 0m-1 8h1l3-8c-4.132 0-1-4.907-1-7-2.86 0-5.58 3-9 3v1c0 4.575.491 11 6 11Z"/><path fill="#23885E" id="ORBm5" d="m204 117 5 9c4.943 0 7-6.737 7-11-2.99 0-5.717-3-9-3 0 8.493 3.264 5-3 5Z"/><path fill="#228A5D" id="ORBl5" d="M157 138v1c4.732 0 7.476-7.988 11.5-10 5.76-2.88 9.409-4 16.5-4h1c0-4.135 2-7.305 2-11-9.122 0-21.877 13-27 13 0 1.772-2.072 10-4 10v1Z"/><path fill="#23885C" id="ORBvl5" d="M186 125c6.887 0 15.436 1 23 1l-5-9c-3.419 0-9.906-3-16-3 0 3.695-2 6.865-2 11ZM271 125c-6.887 0-15.436 1-23 1l3-8 1-1c3.078 0 10.26-3 16-3 0 3.751 3 6.819 3 11Z"/><path fill="#228A5D" id="ORBl5" d="M299 138v1c-3.822 0-5.781-6.641-8.5-8-7.203-3.602-10.598-6-19.5-6 0-4.181-3-7.249-3-11 10.396 0 17.084 12 27 12 0 4.362 4 7.596 4 12Z"/><path fill="#24885D" id="ORBm2/3" d="m209 126 6 15c8.345 0 8-18.097 8-25l-7-1c0 4.263-2.057 11-7 11ZM247 126c0 5.506-6 9.899-6 15-8.693 0-7-18.447-7-25l7-1c0 4.575.491 11 6 11Z"/><path fill="#23895D" id="ORBm1" d="m232 155 3.5 2 2.5-2c0-5.168 3-9.195 3-14-8.693 0-7-18.447-7-25h-11c0 6.903.345 25-8 25 0 4.477 4 9.024 4 14 0 3.453 4.246 0 5 0 3.72 0 2.278-9 4.5-9 1.014 0 1.06 9 3.5 9Z"/><path fill="#23885E" id="ORBm5" d="m252 117-1 1 1-1Z"/><path fill="#258F45" id="FRP5" d="M248 118c0 1.93 1.93 0 0 0Z"/><path fill="#238A5E" id="ORBl2/3" d="M157 139c0 6.942-4 15.504-4 23 4.019 0 8.532-7.565 10-10.5 1.392-2.785 16.511-15.5 21-15.5l1-11c-7.091 0-10.74 1.12-16.5 4-4.024 2.012-6.768 10-11.5 10Z"/><path fill="#248A5D" id="ORBvl2/3" d="M184 136h12.5c5.293 2.646 12.175 5 18.5 5l-6-15c-7.564 0-16.113-1-23-1h-1l-1 11ZM273 136c-5.138 0-13.167-1.167-17.5 1-4.816 2.408-8.582 4-14.5 4 0-5.101 6-9.494 6-15h1c7.564 0 16.113-1 23-1 0 4.135 2 7.305 2 11Z"/><path fill="#238A5E" id="ORBl2/3" d="m299 139 2 1.5c0 6.614 2 14.216 2 21.5l-8-8.5c-1.492-2.984-18.2-17.5-22-17.5 0-3.695-2-6.865-2-11 8.902 0 12.297 2.398 19.5 6 2.719 1.359 4.678 8 8.5 8Z"/><path fill="#209765" id="AId2/3" d="M153 162v1c-2.112 0-3.332 1.084-5.5 0-4.277-2.139-12.5-16.965-12.5-22 0-1.957 10.483-6 12.5-6 2.082 0 5.221 2 7.5 2l2 1v1c0 6.942-4 15.504-4 23ZM303 162v1l3.5 1c6.251-3.126 15.5-16.254 15.5-23-2.588 0-9.915-4.707-12.5-6l-7.5 2-1 1h-1l-1 1 2 1.5c0 6.614 2 14.216 2 21.5Z"/><path fill="#238A5D" id="ORBl1" d="M152 172h3l1-1c.472 0 15.019-21 19-21l1-1 1-1 1-1 1-1h1l1-1h2c0-3.222 1-6.277 1-9-4.489 0-19.608 12.715-21 15.5-1.468 2.935-5.981 10.5-10 10.5v1l-1 9Z"/><path fill="#248A5B" id="ORBvl1" d="M217 155h2c0-4.976-4-9.523-4-14-6.325 0-13.207-2.354-18.5-5H184c0 2.723-1 5.778-1 9h2c4.819 0 26 5.105 26 8h1c1.238 0 3 .423 3 2h2ZM240 155h1l1-1h1l1-1h2c0-2.688 20.587-8 25-8h2v-9c-5.138 0-13.167-1.167-17.5 1-4.816 2.408-8.582 4-14.5 4 0 4.805-3 8.832-3 14h2Z"/><path fill="#238A5D" id="ORBl1" d="m301 171 3 1c0-3.997-1-5.82-1-9v-1l-8-8.5c-1.492-2.984-18.2-17.5-22-17.5v9h2c1.238 0 3 .423 3 2l3 3c4.116 0 18.305 21 20 21Z"/><path fill="#209665" id="AId5" d="M157 137v1l-2-1h2ZM300 138h1v-1l-1 1Z"/><path fill="#1E9D58" id="MOs2/3" d="m302 137-1 1v-1h1Z"/><path fill="#209665" id="AId5" d="m300 138-1 1v-1h1Z"/><path fill="#209764" id="AId1" d="m153 163-1 9c-7.554 0-23-20.316-23-27l5-4h1c0 5.035 8.223 19.861 12.5 22 2.168 1.084 3.388 0 5.5 0ZM303 163c0 3.18 1 5.003 1 9 8.033 0 23-18.95 23-27l-5-4c0 6.746-9.249 19.874-15.5 23l-3.5-1Z"/><path fill="#99D2BD" id="OLF" d="m181 145-1 1 1-1Z"/><path fill="#9DF0D1" id="AOBgl" d="M189 155c-3.255 0-6.058 2-10 2-4.112 0-4-3.894-4-7l1-1 1-1 1-1 1-1h1l1-1h4l4 2.5c1.599 3.198 0 4.389 0 7.5Z"/><path fill="#99D2BD" id="OLF" d="M189 155c2.124 0 4.436 1 6 1 0-9.52 9.984-3 16-3 0-2.895-21.181-8-26-8l4 2.5c1.599 3.198 0 4.389 0 7.5ZM262 155h5l-1-4.5 5-5.5c-4.413 0-25 5.312-25 8 4.156 0 16-6.055 16 2Z"/><path fill="#9DF0D1" id="AOBgl" d="M267 155c3.395 0 6.106 2 10 2 4.56 0 4-3.31 4-7l-3-3-3-2h-4l-5 5.5 1 4.5Z"/><path fill="#99D2BD" id="OLF" d="M275 145c1.238 0 3 .423 3 2l-3-2ZM179 146l-1 1 1-1ZM177 148l-1 1 1-1ZM176 149l-1 1 1-1ZM158 175c-1.684 0-1 4.679-1 6 0 6.984 2 12.207 2 19-2.871 0-1.315-3.13-2-4.5-5.401-10.803-2-11.988-2-23.5l1-1c.472 0 15.019-21 19-21 0 3.106-.112 7 4 7 0 1.674 1 2.326 1 4h-5c-1.465 0-4-.109-4 2-3.016 0-8 3.3-8 6-2.196 0-5 3.595-5 6ZM299 184c0 6.156-2 11.334-2 17l2-3.5c5.899-11.799 2-14.4 2-26.5-1.695 0-15.884-21-20-21 0 3.69.56 7-4 7l2 1.5-2 2.5h4c5.474 0 17 7.744 17 14 1.684 0 1 4.679 1 6v3Z"/><path fill="#9AD1BD" id="MOB" d="m213 250-2 1c-4.129 0-20-2.624-20-7 0-2.194-1-3.841-1-7 0-6.704 5-12.006 5-19 0-3.205 2-6.924 2-11l1-12 1-1c0-2.816.775-7.049 2-9.5 2.056-4.112-1-11.536-1-15.5l-1-2c2.118 0 .821-4-1-4l-3-4v-3c0-9.52 9.984-3 16-3h1l3 2h2l5 4.5 3 4.5v1c0 1.552.566 8 2 8v48l-1 2v4c-1.473 0-1 1.952-1 3v1l-5 9.5-7 9.5ZM265 245c-1.539 0-10.94 6-20 6l-4-3.5-6-9c-.674-1.348-2.823-9.5-4-9.5v-1c0-1.048.473-3-1-3v-54c1.579 0 1-2.855 1-4v-2l3-5.5 6-4.5h1l1-1h1l1-1h2c4.156 0 16-6.055 16 2l-1 2v2l-2 4c-1.927 0-4.162 4-2 4v1l-2 13.5c1.524 3.048 3 10.142 3 13.5 0 1.468 1.253 16 2 16l1 8c0 6.178 6 12.126 6 18v6l-1 1-1 1Z"/><path fill="#99D2BD" id="OLF" d="M212 153c1.238 0 3 .423 3 2l-3-2ZM244 153l-1 1 1-1ZM242 154l-1 1 1-1Z"/><path fill="#9DEFD2" id="AOBmi" d="m180 161 9 1c1.146 0 6-1.339 6-3v-3c-1.564 0-3.876-1-6-1-3.255 0-6.058 2-10 2 0 1.674 1 2.326 1 4Z"/><path fill="#99D2BD" id="OLF" d="m224 155 1 9-3-4.5-5-4.5h2c0 3.453 4.246 0 5 0ZM240 155l-6 4.5-3 5.5 1-10 3.5 2 2.5-2h2ZM262 155l-1 2 1-2Z"/><path fill="#9DEFD2" id="AOBmi" d="m277 161-10 1c-2.125 0-5.028-3-6-3v-2l1-2h5c3.395 0 6.106 2 10 2l2 1.5-2 2.5Z"/><path fill="#99D2BD" id="OLF" d="M198 163c-3.669 0-4-.698-4 2l-5-3c1.146 0 6-1.339 6-3l3 4ZM259 163c1.235 0 5-.643 5 1l3-2c-2.125 0-5.028-3-6-3l-2 4Z"/><path fill="#CACAC9" id="lotd" d="M175 161c-1.465 0-4-.109-4 2l4-2Z"/><path fill="#54BF94" id="AON" d="M185 234c0 1.077 3.762 3 5 3 0-6.704 5-12.006 5-19-1.951 0-.477-2.454-1-3.5-1.666-3.333-1.358-7.716-3-11-1.282-2.564-9.108-15.785-8-18 1.706-3.411 9 3.098 9 5.5 1.53 0 3.216 4 6 4l1-1c0-2.816.775-7.049 2-9.5 2.056-4.112-1-11.536-1-15.5l-5-4h-1l-5-3-9-1h-5l-4 2c0 1.46-6.472 6-8 6 0 2.83-4 4.54-4 7 0 2.618-2.514 7.472-1 10.5 5.025 10.05 8.926 20.851 14 31l13 16.5ZM272 234l-5 3c0-5.874-6-11.822-6-18 2.245 0 3.064-11.628 4-13.5 1.28-2.561 8.96-18.08 8-20-1.91-3.82-9 4.146-9 6.5-2.079 0-3.187 3-6 3 0-3.358-1.476-10.452-3-13.5l2-13.5c1.429 0 4-1.288 4-3h1l1-1h1l3-2 10-1h4l9.5 6 7.5 9c0 1.235-.643 5 1 5v3c-1.454 0-1.433 5.366-2 6.5l-7 16c-1.986 3.972-18 26.925-18 27.5Z"/><path fill="#CACAC9" id="lotd" d="M298 175v1l-7.5-9-9.5-6c5.474 0 17 7.744 17 14ZM171 163c-3.016 0-8 3.3-8 6 1.528 0 8-4.54 8-6ZM195 165l4 2c2.118 0 .821-4-1-4-3.669 0-4-.698-4 2h1ZM261 165h1l1-1h1c0-1.643-3.765-1-5-1-1.927 0-4.162 4-2 4l4-2Z"/><path fill="#99D2BD" id="OLF" d="m263 164-1 1 1-1ZM199 167l1 2-5-4 4 2ZM225 165c1.434 0 2 6.448 2 8-1.434 0-2-6.448-2-8ZM257 167v1c1.429 0 4-1.288 4-3l-4 2ZM231 167c-1.579 0-1 2.855-1 4 1.579 0 1-2.855 1-4Z"/><path fill="#CACAC9" id="lotd" d="m158 175 1 1c0-2.46 4-4.17 4-7-2.196 0-5 3.595-5 6Z"/><path fill="#CAC8C7" id="lot" d="M177 231c2.892 0 4.781 3 8 3l-13-16.5c-5.074-10.149-8.975-20.95-14-31-1.514-3.028 1-7.882 1-10.5l-1-1c-1.684 0-1 4.679-1 6 0 6.984 2 12.207 2 19v1l1 2c0 3.4 12.817 28 17 28Z"/><path fill="#99D2BD" id="OLF" d="M230 175c-1.758 0-1 7.884-1 9.5v28c0 1.532-.743 8.5 1 8.5v-46Z"/><path fill="#CAC8C7" id="lot" d="M298 176c0 1.235-.643 5 1 5 0-1.321.684-6-1-6v1ZM278 232l-6 2c0-.575 16.014-23.528 18-27.5l7-16c.567-1.134.546-6.5 2-6.5 0 6.156-2 11.334-2 17v1l-1 1c0 5.161-12.294 28-17 28l-1 1Z"/><path fill="#CBCBC7" id="aco" d="M197 207c0 4.076-2 7.795-2 11-1.951 0-.477-2.454-1-3.5-1.666-3.333-1.358-7.716-3-11-1.282-2.564-9.108-15.785-8-18 1.706-3.411 9 3.098 9 5.5 0 3.764 2.364 9.228 4 12.5.523 1.046-.951 3.5 1 3.5ZM260 211l1 8c2.245 0 3.064-11.628 4-13.5 1.28-2.561 8.96-18.08 8-20-1.91-3.82-9 4.146-9 6.5 0 6.727-4 11.77-4 19Z"/><path fill="#99D2BD" id="OLF" d="m198 195-1 12c-1.951 0-.477-2.454-1-3.5-1.636-3.272-4-8.736-4-12.5 1.53 0 3.216 4 6 4ZM258 195c0 1.468 1.253 16 2 16 0-7.23 4-12.273 4-19-2.079 0-3.187 3-6 3ZM199 194l-1 1 1-1ZM159 201l1 2-1-2ZM297 202l-1 1 1-1ZM227 221l-1 2 1-2Z"/><path fill="#C7CBCA" id="onl" d="M230 225c1.473 0 1 1.952 1 3-1.473 0-1-1.952-1-3ZM226 227c-1.473 0-1 1.952-1 3 1.473 0 1-1.952 1-3ZM231 229c1.177 0 3.326 8.152 4 9.5l6 9 4 3.5c-9.858 0-14-14.173-14-22Z"/><path fill="#99D2BD" id="OLF" d="M190 237c0 3.159 1 4.806 1 7-2 0-14-11.327-14-13 2.892 0 4.781 3 8 3 0 1.077 3.762 3 5 3Z"/><path fill="#C7CBCA" id="onl" d="m225 231-5 9.5-7 9.5c8.355 0 12-12.038 12-19Z"/><path fill="#99D2BD" id="OLF" d="m279 231-1 1 1-1ZM267 237v6c2.262 0 11-7.784 11-11l-6 2-5 3ZM267 243l-1 1 1-1ZM266 244l-1 1 1-1Z"/><path fill="#C7CBCA" id="onl" d="m213 250-2 1 2-1Z"/></svg>