<svg xmlns="http://www.w3.org/2000/svg" viewBox="0 0 456 320"><path fill="#1E9C59" id="MOs1" d="m126 149-4 3-4-7.5c-2.839-5.678-5.294-17.412-2-24l2-4.5c0-6.408 8.24-11.979 11-17.5 7.18-14.36 27.23-19.365 39.5-25.5 4.515-2.258 10.439-1.72 15-4 7.591-3.795 33.5 5.464 33.5 12l-3 4h-1l-4.5-4c-4.996-2.498-11.075-2.538-16-5-4.686-2.343-17.212 2.106-21 4-6.422 3.21-14.509 3.755-21 7-13.801 6.9-22.014 20.529-28.5 33.5-5.198 10.396 4 21.536 4 28.5ZM331 149c0 1.712 2.571 3 4 3 0-3.363 4.481-8.462 6-11.5 2.399-4.797-.077-18.154-2-22l-2-7c-7.785-15.57-23.858-27.179-38.5-34.5-10.754-5.377-31.613-12.194-44-6-3.231 1.615-15.5 3.976-15.5 10l4 4h1c0-4.456 9.573-5.537 12.5-7 10.734-5.367 35.336 2.168 45 7 18.782 9.39 24.442 19.385 33.5 37.5 4.271 8.541-4 19.346-4 26.5Z"/><path fill="#1E9D58" id="MOs2/3" d="M126 149h1l9-7v-1c0-2.681-2.592-8.316-1-11.5 9.448-18.897 15.804-28.652 35.5-38.5 5.198-2.599 11.821-2.41 17-5 4.906-2.453 16.041 3 18.5 3h1l3-1 3-3-4.5-4c-4.996-2.498-11.075-2.538-16-5-4.686-2.343-17.212 2.106-21 4-6.422 3.21-14.509 3.755-21 7-13.801 6.9-22.014 20.529-28.5 33.5-5.198 10.396 4 21.536 4 28.5ZM330 149h1c0-7.154 8.271-17.959 4-26.5-9.058-18.115-14.718-28.11-33.5-37.5-9.664-4.832-34.266-12.367-45-7-2.927 1.463-12.5 2.544-12.5 7l2 3 3 1h1c4.991 0 13.16-6.17 19.5-3l16 5c6.56 3.28 13.103 9.052 19 12 8.277 4.138 13.007 17.513 16.5 24.5.82 1.64.173 13.5-1 13.5v1l10 7Z"/><path fill="#3EA665" id="ACAd1" d="m221 87-5 1-2-3 3-4c1.617 0 4 4.583 4 6ZM240 88h1l2-3-4-4-4 6 5 1Z"/><path fill="#40A565" id="ACAd2/3" d="M210 88c0 2.515 5.014 0 6 0l-2-3h-1l-3 3ZM241 88c1.041 0 5 2.36 5 0l-2-3h-1l-2 3Z"/><path fill="#1F9D58" id="MOs5" d="M158 135c-4.235 0-8.273-2.114-12.5 0-3.74 1.87-5.558 6-9.5 6 0-2.681-2.592-8.316-1-11.5 9.448-18.897 15.804-28.652 35.5-38.5 5.198-2.599 11.821-2.41 17-5 4.906-2.453 16.041 3 18.5 3 0 2.22-15 12.487-15 16-12.93 0-16.05 2.775-26.5 8-1.924.962-6.359 12-1.5 12l-5 10ZM299 135c3.948 0 8.405-2.047 12.5 0 3.209 1.605 4.514 6 8.5 6 1.173 0 1.82-11.86 1-13.5-3.493-6.987-8.223-20.362-16.5-24.5-5.897-2.948-12.44-8.72-19-12l-16-5c-6.34-3.17-14.509 3-19.5 3 0 1.984 15 12.482 15 16 11.099 0 16.497 2.499 25.5 7 2.467 1.233 7.932 13 2.5 13l6 10Z"/><path fill="#2FA750" id="PL1" d="M223 121h10c0-6.415-.759-17.983 2-23.5l5-9.5-5-1-3.5 5-3 7c-3.537 0-3.172-12-7.5-12l-5 1 5 9.5c3.042 6.085 2 16.244 2 23.5Z"/><path fill="#2FA74F" id="PL2/3" d="M218 121h5c0-7.256 1.042-17.415-2-23.5l-5-9.5c-.986 0-6 2.515-6 0l-3 1 5 4.5c2.419 4.837 3.623 10.246 6 15 .767 1.533 1.269 11.5 0 11.5v1ZM233 121h5c0-7.343-.042-15.416 3-21.5 1.15-2.3 8-8.278 8-10.5l-3-1c0 2.36-3.959 0-5 0h-1l-5 9.5c-2.759 5.517-2 17.085-2 23.5Z"/><path fill="#2EA84F" id="PL5" d="M200 113c6.476 0 11.129 7 18 7 1.269 0 .767-9.967 0-11.5-2.377-4.754-3.581-10.163-6-15l-5-4.5h-1c0 2.22-15 12.487-15 16 3.156 0 9 4.647 9 8ZM256 113c-6.12 0-11.821 8-18 8 0-7.343-.042-15.416 3-21.5 1.15-2.3 8-8.278 8-10.5h1c0 1.984 15 12.482 15 16-3.924 0-6.616 8-9 8Z"/><path fill="#258F45" id="FRP5" d="M186 114c2.528 0 13 .086 13 3 3.431 0 1-1.939 1-4 0-3.353-5.844-8-9-8-12.93 0-16.05 2.775-26.5 8-1.924.962-6.359 12-1.5 12 7.97 0 14.512-11 23-11ZM270 114c8.375 0 15.216 11 23 11 5.432 0-.033-11.767-2.5-13-9.003-4.501-14.401-7-25.5-7-3.924 0-6.616 8-9 8 0 2.343-1.765 4 1 4 3.877 0 8.127-3 13-3Z"/><path fill="#23885E" id="ORBm5" d="M212 143h1c6.336 0 5-17.531 5-22v-1c-6.871 0-11.524-7-18-7 0 2.061 2.431 4-1 4l13 26ZM245 142l-1 1c-7.506 0-6-16.609-6-22 6.179 0 11.88-8 18-8 0 2.343-1.765 4 1 4 0 7.047-12 17.116-12 25Z"/><path fill="#228A5D" id="ORBl5" d="M181 137c-11.055 0-15.222 25-30 25 0-2.148 3.017-18.533 4-20.5 1.178-2.355 3-3.646 3-6.5l5-10c7.97 0 14.512-11 23-11 0 7.355-4 14.122-4 22l-1 1Z"/><path fill="#23885C" id="ORBvl5" d="M182 136c3.844 0 17.429 1.465 20.5 3l9.5 4-13-26c0-2.914-10.472-3-13-3 0 7.355-4 14.122-4 22ZM275 137c-4.813 0-16.681-.409-21.5 2-2.547 1.273-5.497 3-8.5 3 0-7.884 12-17.953 12-25 3.877 0 8.127-3 13-3 0 7.547 5 16.048 5 23Z"/><path fill="#228A5D" id="ORBl5" d="M275 137c12.734 0 14.983 25 30 25 0-9.105-6-18.361-6-27l-6-10c-7.784 0-14.625-11-23-11 0 7.547 5 16.048 5 23Z"/><path fill="#24885D" id="ORBm2/3" d="M218 157h1c0-1.757 4.04-8.581 5-10.5l-1-25.5h-5c0 4.469 1.336 22-5 22 0 5.399 5 8.601 5 14Z"/><path fill="#23895D" id="ORBm1" d="m231 168 4 1c0-4.597 3-8.146 3-12-6.775 0-5-30.117-5-36h-10l1 25.5c-.96 1.919-5 8.743-5 10.5 0 4.395 3 7.909 3 12l3-1 2-2.5c2.04-4.079.027-4.945 2-1 .809 1.619 2 1.471 2 3.5Z"/><path fill="#24885D" id="ORBm2/3" d="m244 143-6 14c-6.775 0-5-30.117-5-36h5c0 5.391-1.506 22 6 22Z"/><path fill="#209665" id="AId5" d="M136 142c0 6.103 9.298 20 15 20 0-2.148 3.017-18.533 4-20.5 1.178-2.355 3-3.646 3-6.5-4.235 0-8.273-2.114-12.5 0-3.74 1.87-5.558 6-9.5 6v1ZM320 142c0 5.968-8.026 20-15 20 0-9.105-6-18.361-6-27 3.948 0 8.405-2.047 12.5 0 3.209 1.605 4.514 6 8.5 6v1Z"/><path fill="#248A5D" id="ORBvl2/3" d="M182 149c13.648 0 22.667 8 36 8 0-5.399-5-8.601-5-14h-1l-9.5-4c-3.071-1.535-16.656-3-20.5-3l-1 1c0 4.053 1 7.947 1 12ZM274 149c-13.605 0-22.561 8-36 8l6-14 1-1c3.003 0 5.953-1.727 8.5-3 4.819-2.409 16.687-2 21.5-2 0 4.107-1 8.469-1 12Z"/><path fill="#238A5E" id="ORBl2/3" d="m151 167-1 8c7.89 0 22.353-26 32-26 0-4.053-1-7.947-1-12-11.055 0-15.222 25-30 25v5ZM306 167v8c-5.151 0-24.764-26-32-26 0-3.531 1-7.893 1-12 12.734 0 14.983 25 30 25l1 5Z"/><path fill="#209765" id="AId2/3" d="M144 176h1c0-1.559 4.297-9 6-9v-5c-5.702 0-15-13.897-15-20l-9 7c0 6.761 9.031 15.562 12 21.5l5 5.5ZM312 176h1c0-3.746 17-21.563 17-27l-10-7c0 5.968-8.026 20-15 20l1 5 6 9Z"/><path fill="#209764" id="AId1" d="m144 176-4 4-4.5-6c-2.132-2.132-13.5-19.664-13.5-22l4-3h1c0 6.761 9.031 15.562 12 21.5l5 5.5Z"/><path fill="#238A5D" id="ORBl1" d="m150 176 1 5c4.727 0 8.643-7.143 12-10.5 4.187-4.187 14.303-10.5 21-10.5 0-3.109-2-7.814-2-11-9.647 0-24.11 26-32 26v1Z"/><path fill="#248A5B" id="ORBvl1" d="M184 160c15.684 0 26.954 9 38 9 0-4.091-3-7.605-3-12h-1c-13.333 0-22.352-8-36-8 0 3.186 2 7.891 2 11ZM273 160c-6.962 0-15.702.101-21.5 3-4.923 2.462-10.688 6-16.5 6 0-4.597 3-8.146 3-12 13.439 0 22.395-8 36-8l-1 11Z"/><path fill="#238A5D" id="ORBl1" d="M305 182h1l1-6-1-1c-5.151 0-24.764-26-32-26l-1 11c7.112 0 23.467 11.433 26 16.5l6 5.5Z"/><path fill="#209764" id="AId1" d="M313 176c0 2.54 3 2.543 3 4l5-5.5 14-22.5c-1.429 0-4-1.288-4-3h-1c0 5.437-17 23.254-17 27Z"/><path fill="#99D2BD" id="OLF" d="m155 200-1 5-2-2.5c-7.15-7.15-1-12.499-1-20.5v-1c4.727 0 8.643-7.143 12-10.5 4.187-4.187 14.303-10.5 21-10.5 15.684 0 26.954 9 38 9l3-1 1 10-3.5-6c-7.609-3.805-7.272-1-13.5-1 0-1.728-7.11-3.305-8.5-4-11.969-5.984-19.73-3.635-31 2-1.701.85-7.5 3.911-7.5 6l-1 1-1 1-1 1-1 1-1 1-1 1-1 1-1 1c0 3.476-2.923 10.654-1 14.5l2 2.5ZM302 200v6l3-4.5c5.344-10.688 0-9.935 0-19.5l-6-5.5c-2.533-5.067-18.888-16.5-26-16.5-6.962 0-15.702.101-21.5 3-4.923 2.462-10.688 6-16.5 6l-4-1v8l6.5-6c1.61-.805 9.5-.679 9.5 1 5.57 0 19.539-12.481 28.5-8l13 6 6.5 6c2.073 0 7 6.148 7 8l2 9.5c-.805 1.61-2 5.802-2 7.5Z"/><path fill="#54BF94" id="AON" d="M193 248h1c0-1.862 6.689-13 8-13 0-7.143-2-13.439-2-20l-1-1c-1.423 0-3.544 1.978-5.5 1-4.522-2.261-6.46-13.42-8.5-17.5-1.03-2.059-7.227-6.637-3.5-8.5 12.994-6.497 11.57 20 16.5 20l2 1 5-11.5c3.368-6.736 4-19.677 4-27.5 0-1.728-7.11-3.305-8.5-4-11.969-5.984-19.73-3.635-31 2-1.701.85-7.5 3.911-7.5 6l-1 1-1 1-1 1-1 1-1 1-1 1-1 1-1 1c0 3.476-2.923 10.654-1 14.5l2 2.5c3.279 0 4.823 7.323 6.5 9 2.961 2.961 19.5 28.459 19.5 31l7 5 1 1 3 1 1 1ZM263 247h1c4.179 0 7.556-6 10-6l1-1c0-3.256 17.042-26.584 20-32.5 1.138-2.277 4.451-7.5 7-7.5 0-1.698 1.195-5.89 2-7.5l-2-9.5c-1.27 0-7-6.592-7-8l-6.5-6-13-6c-8.961-4.481-22.93 8-28.5 8l2 3.5c3.166 6.333-1.249 16.502 2 23 1.599 3.198 5 8.897 5 12.5h2l3-3.5c4.077-8.154-.781-11.859 8.5-16.5 1.19-.595 3.347-1.826 5-1 2.22 1.11 1.246 3.007.5 4.5-3.598 7.196-7.48 13.959-11 21-.562 1.124-6 .883-6-.5h-1c0 6.287-3 13.235-3 20l7 10.5 2 2.5Z"/><path fill="#219764" id="AIv2/3" d="M145 176h5v-1l1-8c-1.703 0-6 7.441-6 9ZM307 176h5l-6-9v8l1 1Z"/><path fill="#9AD1BD" id="MOB" d="m219 241-4 2c-2.928 0-5.355.572-8.5-1-2.114-1.057-3.346-7-4.5-7 0-7.143-2-13.439-2-20v-5l5-11.5c3.368-6.736 4-19.677 4-27.5 6.228 0 5.891-2.805 13.5 1l3.5 6v1c0 1.145-.579 4 1 4v40l-1 2v2l-1 2v2l-1 1v1l-1 1v1l-1 1-1 2c-1.577 0-2 1.762-2 3ZM235 238l6 5c5.349 0 13-.862 13-9 0-6.765 3-13.713 3-20v-3l-1-1c0-3.603-3.401-9.302-5-12.5-3.249-6.498 1.166-16.667-2-23l-2-3.5c0-1.679-7.89-1.805-9.5-1l-6.5 6c0 1.235.643 5-1 5v3l-1 2c0 12.972 1 26.674 1 39l1 2v2l1 2v1l1 1 1 3 1 1v1Z"/><path fill="#CACAC9" id="lotd" d="m162 175-1 1 1-1ZM295 175c2.073 0 7 6.148 7 8-1.27 0-7-6.592-7-8Z"/><path fill="#209864" id="AIv1" d="m151 181-1 1c-1.88 0-10 3.35-10-2l4-4h6l1 5Z"/><path fill="#CACAC9" id="lotd" d="m161 176-1 1 1-1Z"/><path fill="#99D2BD" id="OLF" d="M231 176c-1.643 0-1 3.765-1 5 1.643 0 1-3.765 1-5Z"/><path fill="#209864" id="AIv1" d="M316 180c0 5.284-8.024 2-10 2l1-6h6c0 2.54 3 2.543 3 4Z"/><path fill="#CACAC9" id="lotd" d="m160 177-1 1 1-1ZM159 178l-1 1 1-1Z"/><path fill="#99D2BD" id="OLF" d="M226 179c1.579 0 1 2.855 1 4-1.579 0-1-2.855-1-4Z"/><path fill="#CACAC9" id="lotd" d="m157 180-1 1 1-1Z"/><path fill="#238A5D" id="ORBl1" d="M150 182h1v-1l-1 1Z"/><path fill="#CACAC9" id="lotd" d="m156 181-1 1 1-1ZM155 182l-1 1 1-1Z"/><path fill="#99D2BD" id="OLF" d="m230 184-1 2 1-2Z"/><path fill="#CBCBC7" id="aco" d="M198 209c-4.93 0-3.506-26.497-16.5-20-3.727 1.863 2.47 6.441 3.5 8.5 2.04 4.08 3.978 15.239 8.5 17.5 1.956.978 4.077-1 5.5-1l-1-5ZM257 213l1 1c0 1.383 5.438 1.624 6 .5 3.52-7.041 7.402-13.804 11-21 .746-1.493 1.72-3.39-.5-4.5-1.653-.826-3.81.405-5 1-9.281 4.641-4.423 8.346-8.5 16.5l-3 3.5-1 1v2Z"/><path fill="#CAC8C7" id="lot" d="M156 209c0 5.878 18.485 31 25 31 0-2.541-16.539-28.039-19.5-31-1.677-1.677-3.221-9-6.5-9l-1 5v1l1 1v1l1 1ZM301 208c0 6.24-18.699 32-26 32 0-3.256 17.042-26.584 20-32.5 1.138-2.277 4.451-7.5 7-7.5v7l-1 1Z"/><path fill="#99D2BD" id="OLF" d="m154 206 1 1-1-1ZM302 207l-1 1 1-1ZM155 208l1 1-1-1ZM199 214l1 1v-5l-2-1 1 5ZM258 210l-1 1-1-1h2ZM257 214h1l-1-1v1ZM227 223l-1 2 1-2ZM230 225l1 2-1-2ZM226 227l-1 2 1-2ZM231 229l1 2-1-2ZM225 231l-1 1 1-1ZM232 232l1 1-1-1ZM224 233l-1 1 1-1Z"/><path fill="#62CF9E" id="TTv" d="M255 250h3l1-1h2l2-1v-1l-2-2.5-7-10.5c0 8.138-7.651 9-13 9l1 4 1 1 1 1h2l1 1h8ZM208 250h2l1-1h1l1-1 1-1 1-1v-3c-2.928 0-5.355.572-8.5-1-2.114-1.057-3.346-7-4.5-7-1.311 0-8 11.138-8 13l1 1h2l2 1h9Z"/><path fill="#99D2BD" id="OLF" d="m223 235-1 1 1-1ZM234 236l1 1-1-1ZM221 238c-1.577 0-2 1.762-2 3 1.577 0 2-1.762 2-3ZM241 243l1 4-7-9 6 5ZM275 240l-1 1 1-1ZM215 243v3l4-5-4 2ZM188 245l1 1-1-1ZM215 246l-1 1 1-1ZM192 247l1 1-1-1ZM214 247l-1 1 1-1ZM264 247l-1 1v-1h1ZM194 248l1 1-1-1ZM213 248l-1 1 1-1ZM243 248l1 1-1-1ZM263 248l-2 1 2-1ZM197 249l2 1-2-1ZM211 249l-1 1 1-1ZM246 249l1 1-1-1ZM259 249l-1 1 1-1ZM201 250h7c0 1.602-7 1.602-7 0ZM248 250h7c0 1.602-7 1.602-7 0Z"/></svg>