<svg xmlns="http://www.w3.org/2000/svg" viewBox="0 0 456 320"><path fill="#99D2BD" id="OLF" d="M167 155c2.867 0 2 5.149 2 7l4 18.5c11.174 22.348 13.098 30.5 40 30.5 5.274 0 11-19.737 11-25 0-13.432 2.116-43.268-3-53.5-4.087-8.174-16.204-13.148-25.5-8.5-4.171 2.085-7.784 4.892-12 7-8.561 4.28-16.5 14.299-16.5 24ZM289 155c-1.513 0-2 5.017-2 6.5 0 5.973-1.459 14.918-4 20-11.131 22.263-13.496 29.5-40 29.5-5.556 0-11-23.71-11-29 0-17.269-4.138-59 18.5-59l10 1c5.09 2.545 10.582 6.791 15 9 8.073 4.036 13.5 13.412 13.5 22Z"/><path fill="#C7CBCA" id="onl" d="M169 197c0 6.08 4.404 13.308 7 18.5 1.406 2.812-.461 7.078 1 10 1.398 2.796-1.239 7.63 2.5 9.5 12.121 6.061 14.735-9.368 24-14 3.412-1.706 9.5-5.728 9.5-10-26.902 0-28.826-8.152-40-30.5l-4-18.5c0-1.851.867-7-2-7l-2 4.5V171c1.781 0 1 10.176 1 12v2c1.473 0 1 1.952 1 3v2c1.643 0 1 3.765 1 5v1l1 1ZM287 199c0 4.578-4.011 10.522-6 14.5-3.764 7.529 2.831 17.835-6.5 22.5-7.219 3.61-19.026-14.013-25-17-2.151-1.076-6.5-5.764-6.5-8 26.504 0 28.869-7.237 40-29.5 2.541-5.082 4-14.027 4-20 0-1.483.487-6.5 2-6.5 1.995 0 2 4.377 2 6v20c-1.643 0-1 3.765-1 5-1.643 0-1 3.765-1 5v2c-1.473 0-1 1.952-1 3v2l-1 1Z"/><path fill="#99D2BD" id="OLF" d="M165 171c1.781 0 1 10.176 1 12-1.781 0-1-10.176-1-12ZM291 181c-1.643 0-1 3.765-1 5 1.643 0 1-3.765 1-5ZM166 185c1.473 0 1 1.952 1 3-1.473 0-1-1.952-1-3ZM290 186c-1.643 0-1 3.765-1 5 1.643 0 1-3.765 1-5ZM167 190c1.643 0 1 3.765 1 5-1.643 0-1-3.765-1-5ZM289 193c-1.473 0-1 1.952-1 3 1.473 0 1-1.952 1-3ZM168 196l1 1-1-1ZM288 198l-1 1 1-1Z"/></svg>