<svg xmlns="http://www.w3.org/2000/svg" viewBox="0 0 456 320"><path fill="#1E9C59" id="MOs1" d="M218 69h1l3-3c0-6.643-10.61-12.555-15.5-15h-4c-10.636-5.318-36.27 3.135-46 8L145 65v6l12.5-6c7.799-3.9 35.04-12.48 44-8h5c3.944 1.972 11.5 8.041 11.5 12ZM238 69c0-3.918 9.353-10.427 12.5-12h5c9.615-4.808 31.831 3.916 40 8h4c3.038 1.519 8.137 6 11.5 6 0-2.124 1-4.436 1-6-3.638 0-8.288-4.394-11.5-6-9.679-4.84-36.467-13.266-47-8h-4c-4.341 2.17-15.5 9.082-15.5 15l3 3h1Z"/><path fill="#1E9D58" id="MOs2/3" d="M213 73c-3.82 0-15.039-11.23-25.5-6l-32 16-9.5 6c0-6.312-1-9.662-1-17v-1l12.5-6c7.799-3.9 35.04-12.48 44-8h5c3.944 1.972 11.5 8.041 11.5 12l-5 4ZM310 89h1V71c-3.363 0-8.462-4.481-11.5-6h-4c-8.169-4.084-30.385-12.808-40-8h-5c-3.147 1.573-12.5 8.082-12.5 12 1.53 0 3.216 4 6 4l4.5-4 10-3c6.397-3.199 32.006 12.003 38 15l13.5 8Z"/><path fill="#1E9D5A" id="MOp1" d="M86 123c0 2.171.796 10 1 10 1.993 0 1.35-5.2 2-6.5 1.885-3.771 4.15-7.299 6-11 5.647-11.295 23.943-29.221 34.5-34.5 4.739-2.37 9.984-9 15.5-9v-7c-5.659 0-11.566 7.533-16.5 10-13.139 6.57-28.954 22.408-35.5 35.5-2.092 4.185-7 7.532-7 12.5ZM371 123c-2.567 0 1.421 8-2 8-2.334 0-1.341-4.181-2-5.5l-8-13c-6.532-13.065-22.612-27.056-35.5-33.5L311 71c0-2.124 1-4.436 1-6 3.907 0 13.497 8.998 17.5 11 11.287 5.643 27.395 21.29 33.5 33.5l8 13.5Z"/><path fill="#1F9D58" id="MOs5" d="M195 91c-11.248 0-24.067 6.784-34.5 12-3.688 1.844-9.316 7-13.5 7 0-7.052-1-14.555-1-21l9.5-6 32-16c10.461-5.23 21.68 6 25.5 6v1c-4.725 0-15.081 17-18 17Z"/><path fill="#3EA665" id="ACAd1" d="M222 96h12l-1-17.5 4-9.5-3-3c-2.045 0-4.645 9-5.5 9-2.632 0-3.235-9-6.5-9l-3 3 4 7.5c2.441 4.882-1 14.877-1 19.5Z"/><path fill="#1F9D58" id="MOs5" d="m261 92 4.5-2c9.98 4.99 21.023 8.012 31 13 3.605 1.802 8.382 7 12.5 7 0-7.124 1-13.247 1-21l-13.5-8c-5.994-2.997-31.603-18.199-38-15l-10 3-4.5 4v1c1.884 0 17 16.191 17 18Z"/><path fill="#40A565" id="ACAd2/3" d="M217 96h5c0-4.623 3.441-14.618 1-19.5l-4-7.5h-1l-5 4v1l3 5.5 1 16.5ZM234 96c2.813 0 3.921 1 6 1 0-4.15-.707-23 4-23v-1c-2.784 0-4.47-4-6-4h-1l-4 9.5 1 17.5Z"/><path fill="#1F9C58" id="MOp2/3" d="M354 169c3.071 0 7.229 4 10 4 0-5.747 3-10.411 3-15.5l2-.5c0-4.351 1-9.131 1-14v-4c-1.399 0-1.399-2 0-2l-1-2v-4c-2.334 0-1.341-4.181-2-5.5l-8-13c-6.532-13.065-22.612-27.056-35.5-33.5L311 71v18c3.648 0 12.725 10.112 16.5 12l9.5 9.5c3.6 7.2 10.326 13.652 14 21 4.928 9.855 3 25.754 3 37.5ZM102 169l-10 4c0-2.952-3.538-16-4-16 0-.822-1.311-8-2-8 0-4.107 1-8.469 1-12v-4c1.993 0 1.35-5.2 2-6.5 1.885-3.771 4.15-7.299 6-11 5.647-11.295 23.943-29.221 34.5-34.5 4.739-2.37 9.984-9 15.5-9 0 7.338 1 10.688 1 17-6.128 0-15.775 13.137-21.5 16-11.03 5.515-16.277 24.053-21.5 34.5l-1 29.5Z"/><path fill="#3EA566" id="ACAd5" d="M217 97c-6.1 0-13.775 6-17 6 0-2.932-.635-11-5-11v-1c2.919 0 13.275-17 18-17l3 5.5 1 16.5v1ZM240 97c5.678 0 10.729 5 16 5 0-2.314 1.433-10 5-10 0-1.809-15.116-18-17-18-4.707 0-4 18.85-4 23Z"/><path fill="#1E9C5A" id="MOp5" d="M124 158c-2.65 0-16.194 11-22 11l1-29.5c5.223-10.447 10.47-28.985 21.5-34.5 5.725-2.863 15.372-16 21.5-16 0 6.445 1 13.948 1 21v1c-2.669 0-8.001 5.501-10.5 8-11.622 11.622-12.5 23.736-12.5 39ZM332 158c2.973 0 16.24 11 22 11 0-11.746 1.928-27.645-3-37.5-3.674-7.348-10.4-13.8-14-21l-9.5-9.5c-3.775-1.888-12.852-12-16.5-12h-1c0 7.753-1 13.876-1 21v1c4.381 0 6.803 6.152 10.5 8 8.126 4.063 9.591 16.683 13.5 24.5 1.904 3.807-1 11.122-1 14.5Z"/><path fill="#1D9C5A" id="MOs6a" d="m161 138-20 10c0-12.637 6-22.244 6-37v-1c4.184 0 9.812-5.156 13.5-7 10.433-5.216 23.252-12 34.5-12v1c0 1.504-6.706 11.913-8 14.5-.76 1.52-3.986 12.5-5 12.5-2.617 0-13 2.373-13 6-1.747 0-2 .253-2 2-3.53 0-5 6.95-5 10l-1 1ZM295 138c6.901 0 15.641 11 21 11 0-14.524-7-23.569-7-38v-1c-4.118 0-8.895-5.198-12.5-7-9.977-4.988-21.02-8.01-31-13l-4.5 2c0 2.234 13 20.421 13 27 8.931 0 21 8.216 21 18v1Z"/><path fill="#3FA664" id="ACAd6a" d="M183 120h1c0-3.573 12.292-17 16-17 0-2.932-.635-11-5-11 0 1.504-6.706 11.913-8 14.5-.76 1.52-3.986 12.5-5 12.5v1h1ZM273 120h1v-1c0-6.579-13-24.766-13-27-3.567 0-5 7.686-5 10v1c3.515 0 17 14.137 17 17Z"/><path fill="#2FA74F" id="PL2/3" d="M218 133h5c0-11.673-1-24.685-1-37h-5v1c0 11.905 1 24.77 1 36Z"/><path fill="#2FA750" id="PL1" d="M223 133h11V96h-12c0 12.315 1 25.327 1 37Z"/><path fill="#2FA74F" id="PL2/3" d="M234 133h4c0-11.62 2-23.704 2-36-2.079 0-3.187-1-6-1v37Z"/><path fill="#2EA84F" id="PL5" d="M204 135h1c0-.835 11.646-2 13-2 0-11.23-1-24.095-1-36-6.1 0-13.775 6-17 6 0 10.797 4 21.261 4 32ZM238 133c4.351 0 9.131 1 14 1 0-9.796 4-20.6 4-31v-1c-5.271 0-10.322-5-16-5 0 12.296-2 24.38-2 36Z"/><path fill="#2FA850" id="PL6a" d="M192 135h12c0-10.739-4-21.203-4-32-3.708 0-16 13.427-16 17 0 5.133 7 8.806 7 15h1ZM252 135h13c0-1.955 2.565-10 5-10 0-1.429 1.288-4 3-4v-1c0-2.863-13.485-17-17-17 0 10.4-4 21.204-4 31v1Z"/><path fill="#1F9B5A" id="MOp6a" d="m140 149-16 9c0-15.264.878-27.378 12.5-39 2.499-2.499 7.831-8 10.5-8 0 14.756-6 24.363-6 37l-1 1ZM316 149c4.335 0 12.684 9 16 9 0-3.378 2.904-10.693 1-14.5-3.909-7.817-5.374-20.437-13.5-24.5-3.697-1.848-6.119-8-10.5-8 0 14.431 7 23.476 7 38Z"/><path fill="#1E9C58" id="MOs6b" d="M169 125h2c0-3.394 8.465-4 11-4v-2c-2.617 0-13 2.373-13 6ZM293 137h2c0-9.784-12.069-18-21-18v2c3.36 0 11 .027 11 4 4.97 0 8 8.139 8 12Z"/><path fill="#3FA466" id="ACAd6b" d="M182 121h1v-1h-1v1Z"/><path fill="#2FA84F" id="PL6b" d="M190 135h1c0-6.194-7-9.867-7-15h-1v1c0 4.066 7 8.442 7 13v1Z"/><path fill="#3FA466" id="ACAd6b" d="M273 121h1v-1h-1v1Z"/><path fill="#CACCC7" id="cing" d="m172 125 11.5 2 6.5 7c0-4.558-7-8.934-7-13h-1c-2.535 0-11 .606-11 4h1Z"/><path fill="#2FA84F" id="PL6b" d="M273 121c-1.712 0-3 2.571-3 4 1.712 0 3-2.571 3-4Z"/><path fill="#CACCC7" id="cing" d="M284 125h1c0-3.973-7.64-4-11-4h-1c0 1.429-1.288 4-3 4l-3 8 5.5-6 11.5-2Z"/><path fill="#187E61" id="SSp-m1" d="m86 157-5 1c0-8.497-1.565-19.369 2-26.5.809-1.617.405-8.5 3-8.5 0 2.171.796 10 1 10v2c-1.4 0-1.4 2 0 2 0 3.531-1 7.893-1 12v8ZM370 157l5 1v-24.5l-4-10.5c-2.567 0 1.421 8-2 8v1c2.212 0 2.212 1 0 1v2c.896 0 3.026 2 1 2v6c2.872 0 0 12.72 0 14Z"/><path fill="#1E9C58" id="MOs6b" d="M169 125c-1.747 0-2 .253-2 2 1.747 0 2-.253 2-2Z"/><path fill="#C9C9CA" id="scwm" d="M163 144c0 4.147 6.138 9 10 9l-4-6.5c-3.446-6.892 3-16.028 3-21.5h-3c0 1.747-.253 2-2 2l-4 10v7Z"/><path fill="#CAC7CC" id="fa" d="M192 163v1l3-3v-3c0-8.219-5-15.28-5-23v-1l-6.5-7-11.5-2c0 5.472-6.446 14.608-3 21.5l4 6.5c2.954 0 16 .138 16 5 2.393 0 3 3.234 3 5Z"/><path fill="#2FA84F" id="PL6b" d="M265 135h1l1-2 3-8c-2.435 0-5 8.045-5 10Z"/><path fill="#CAC7CC" id="fa" d="m261 160 3 3c0-1.408 1.197-5 3-5l1-1c.778 0 9.098-4 15-4l3-3.5 2-7c2.554-5.108-4-13.307-4-17.5l-11.5 2-5.5 6-1 2-4 20v3l-1 1v1Z"/><path fill="#C9C9CA" id="scwm" d="M293 144c0 4.973-5.453 9-10 9l3-3.5 2-7c2.554-5.108-4-13.307-4-17.5h1c4.97 0 8 8.139 8 12v7Z"/><path fill="#1E9C58" id="MOs6b" d="M162 137h1l4-10c-3.53 0-5 6.95-5 10Z"/><path fill="#1E9D5A" id="MOp1" d="M369 132c2.212 0 2.212 1 0 1v-1Z"/><path fill="#59B262" id="ILA5" d="M210 169h7l2-4.5c2.694-5.388-1-25.52-1-31.5-1.354 0-13 1.165-13 2 0 12.205 5 21.979 5 34Z"/><path fill="#59B362" id="ILA2/3" d="M217 169h4l3-10.5-1-25.5h-5c0 5.98 3.694 26.112 1 31.5l-2 4.5Z"/><path fill="#59B263" id="ILA1" d="M229 169h7l-3-6.5c-2.56-5.121 1-23.897 1-29.5h-11l1 25.5-3 10.5h6c0-2.69 1-6.675 1-10 0-2.212 1-2.212 1 0v10Z"/><path fill="#59B362" id="ILA2/3" d="M236 169h3c0-2.613-.93-4.36-2-6.5-2.579-5.159 1-23.623 1-29.5h-4c0 5.603-3.56 24.379-1 29.5l3 6.5Z"/><path fill="#59B262" id="ILA5" d="M239 169h7c0-11.526 6-22.282 6-34v-1c-4.869 0-9.649-1-14-1 0 5.877-3.579 24.341-1 29.5 1.07 2.14 2 3.887 2 6.5Z"/><path fill="#58B362" id="ILA6a" d="M197 166c0 4.19 10.183 3 13 3 0-12.021-5-21.795-5-34h-13c0 7.767 4 14.813 4 23v7l1 1ZM259 167l-2.5 2H246c0-11.526 6-22.282 6-34h13c0 6.578-4 12.57-4 20v6c-1.579 0-1 2.855-1 4l-1 2Z"/><path fill="#1E9D5A" id="MOp1" d="M87 135c-1.4 0-1.4 2 0 2v-2Z"/><path fill="#58B263" id="ILA6b" d="M195 158h1c0-8.187-4-15.233-4-23h-2c0 7.72 5 14.781 5 23ZM261 155h1l4-20h-1c0 6.578-4 12.57-4 20Z"/><path fill="#1E9D5A" id="MOp1" d="M369 135c.896 0 3.026 2 1 2l-1-2Z"/><path fill="#1F9766" id="AId6b" d="m163 144-2 1v-7l1-1h1v7ZM293 144l2 1v-8h-2v7Z"/><path fill="#1A7E64" id="SSp-m2/3" d="M370 137c-1.399 0-1.399 2 0 2v-2Z"/><path fill="#209666" id="AId6a" d="M138 171h1l4-5-2-1.5c-3.868-7.737 6.022-6.5 9-6.5l1-1c0-1.238.423-3 2-3l1-1 1-1 6-6v-8l-20 10-1 1-16 9c0 7.064 7.098 13 14 13ZM317 171h1c7.541 0 14-5.127 14-13-3.316 0-11.665-9-16-9-5.359 0-14.099-11-21-11v8c2.54 0 2.543 3 4 3l8 8c8.557 0 7 2.711 7 9 0 2.666 3 2.482 3 5Z"/><path fill="#1A7E64" id="SSp-m2/3" d="M369 157h1c0-1.28 2.872-14 0-14 0 4.869-1 9.649-1 14Z"/><path fill="#248A5C" id="ORBl6b" d="M189 158v2l-3.5-3c-5.687-2.843-12.981.009-19-3-2.714-1.357-2.993-8-5.5-8v-1l2-1c0 4.147 6.138 9 10 9 2.954 0 16 .138 16 5ZM267 161h1c0-8.282 27-.734 27-15v-1l-2-1c0 4.973-5.453 9-10 9-5.902 0-14.222 4-15 4l-1 1v3Z"/><path fill="#24895D" id="ORBl6a" d="M185 171c0 1.539-1.342 3-3 3 0-18.366-19.721-7-29-7 0-1.791 3.27-2.959 2-5.5l-4-3.5v-1c1.577 0 2-1.762 2-3l1-1 1-1 6-6c2.507 0 2.786 6.643 5.5 8 6.019 3.009 13.313.157 19 3l3.5 3v1c-4.135 0-4 7.251-4 10ZM271 171l3 3c0-18.357 20.534-7 30-7l-3-4.5 4-4.5-6-9c-1.457 0-1.46-3-4-3 0 14.266-27 6.718-27 15 0 .135 3 5.287 3 10Z"/><path fill="#1D9C5A" id="MOs6a" d="m141 148-1 1 1-1Z"/><path fill="#1A7E64" id="SSp-m2/3" d="M86 157h2c0-.822-1.311-8-2-8v8Z"/><path fill="#1F9866" id="AIv6a" d="m307 157-2 1-6-9 8 8ZM155 152l-1 1 1-1ZM154 153l-1 1 1-1ZM153 154c-1.577 0-2 1.762-2 3 1.577 0 2-1.762 2-3Z"/><path fill="#24875E" id="ORBm6b" d="M261 158h1v-3h-1v3Z"/><path fill="#009C75" id="GU1" d="m89 175-4 1-2-3.5-2-14.5 5-1c0 6.109 3 11.798 3 18Z"/><path fill="#009B75" id="GU2/3" d="M89 175h1l2-2c0-2.952-3.538-16-4-16h-2c0 6.109 3 11.798 3 18Z"/><path fill="#8ADA86" id="CLA" d="M151 167h2c0-1.791 3.27-2.959 2-5.5l-4-3.5h-1c-2.978 0-12.868-1.237-9 6.5l2 1.5 3 1h5Z"/><path fill="#1F9866" id="AIv6a" d="M150 158h1v-1l-1 1Z"/><path fill="#22895E" id="ORBvl6b" d="m268 157-1 1 1-1Z"/><path fill="#8ADA86" id="CLA" d="M305 167h5l4-1c0-6.289 1.557-9-7-9l-2 1-4 4.5 3 4.5h1Z"/><path fill="#009B75" id="GU2/3" d="M364 173c0 1.473 1.952 1 3 1 0-5.349 3-11.057 3-17h-1l-2 .5c0 5.089-3 9.753-3 15.5Z"/><path fill="#009C75" id="GU1" d="m367 175 4 2c1.014 0 2-3.959 2-5 0-4.798 2-8.844 2-14l-5-1c0 5.943-3 11.651-3 17v1Z"/><path fill="#209665" id="AId5" d="M138 171c0 5.398-23.427 24-29 24-3.435 0-7-21.766-7-26 5.806 0 19.35-11 22-11 0 7.064 7.098 13 14 13Z"/><path fill="#22895E" id="ORBvl6b" d="M189 161c1.481 0 .785 2 3 2 0-1.766-.607-5-3-5v3Z"/><path fill="#22885E" id="ORBm6a" d="m195 161 1 1v-4h-1v3ZM262 158l-1 1v-1h1Z"/><path fill="#22895E" id="ORBvl6b" d="M264 163h1l2-2v-3c-1.803 0-3 3.592-3 5Z"/><path fill="#209665" id="AId5" d="m318 171 5 5.5c2.812 5.624 18.123 18.5 24 18.5 4.67 0 7-21.428 7-26-5.76 0-19.027-11-22-11 0 7.873-6.459 13-14 13Z"/><path fill="#99D2BD" id="OLF" d="M227 169c.839 0 2 1.93 2 0v-10h-1c0 3.325-1 7.31-1 10ZM298 247c-2.124 0-4.436 1-6 1 0-4.498-7.704-3-11-3l3-3.5c3.163-6.325-2.408-11.5-8-11.5l2-5c7.125 0 14.577-19 3-19 0-1.199 1.028-6.443 0-8.5-1.709-3.418-11.661-7.5-16-7.5 0-5.285-3.081-7-8-7l4-8.5c.208-.416-1-6.086-1-7.5v-2c1.579 0 1-2.855 1-4v-1l3 3 1 1c0 2.672 3.815 7 6 7l3 3c0 2.563 4.219 1.938 5 3.5.727 1.453 19.136 14.5 21 14.5l3 1c0 4.101 12 4.936 12 8-1.995 0-4.919-.662-6 1.5-.662 1.324 1.207 6.5-1 6.5 0-6.195-11.793-15.914-15-9.5-2.697 5.395-1.355 12.709-4 18-1.017 2.033-4.098 7.701-.5 9.5 5.213 2.607 8.308-9 12.5-9 0 2.053-9.317 13.134-11 16.5-3.21 6.421 8 8.815 8 12.5Z"/><path fill="#238A5C" id="ORBvl6a" d="M191 165c0 2.473-3.527 6-6 6 0-2.749-.135-10 4-10 1.481 0 .785 2 3 2v1l-1 1Z"/><path fill="#99D2BD" id="OLF" d="M165 248c0-7.767 14.192-.154 16.5 1h7.5c0-2.144-4.262-.381-5.5-1-3.057-1.528-8.621-1.741-10.5-5.5-3.068-6.136-.007-12.5 7-12.5l-1-5c-8.479 0-14.841-19-4-19 0-9.767 6.312-16 16-16 0-4.327 3.949-7 8-7l-3-6.5V162l-1-1-3 3-1 1c0 2.473-3.527 6-6 6 0 1.539-1.342 3-3 3l-5.5 5c-4.641 2.32-15 12-19.5 12l-4 3-12 7c10.039 0 4.538 9 8 9 0-8.88 11.115-16.271 14-10.5 3.129 6.259 2.877 13.753 6 20 1.533 3.066-.015 9.742-4.5 7.5L149 211c0 2.423 14.898 18.295 17 22.5 3.379 6.758-8 12.06-8 13.5 2.409 0 5.181 1 7 1Z"/><path fill="#22885E" id="ORBm6a" d="M261 161c-1.579 0-1 2.855-1 4 1.579 0 1-2.855 1-4Z"/><path fill="#238A5C" id="ORBvl6a" d="M265 164c0 2.672 3.815 7 6 7 0-4.713-3-9.865-3-10h-1l-2 2v1Z"/><path fill="#228A5D" id="ORBl5" d="m182 174-5.5 5c-4.641 2.32-15 12-19.5 12 0-2.784-4.968-3.437-5-3.5l1-3c0-.331-7-9.365-7-15.5 1.041 0 5-.986 5-2h2c9.279 0 29-11.366 29 7Z"/><path fill="#24875E" id="ORBm6b" d="M265 163v1l-1-1h1Z"/><path fill="#228A5D" id="ORBl5" d="M274 174c0 2.563 4.219 1.938 5 3.5.727 1.453 19.136 14.5 21 14.5 0-3.234 3.865-3.231 5-5.5l-1-3c1.765-3.529 7-8.429 7-13.5l-1-1c-1.041 0-5-.986-5-2h-1c-9.466 0-30-11.357-30 7Z"/><path fill="#22885E" id="ORBm6a" d="m192 164-1 1 1-1ZM196 166h1l-1-1v1ZM259 167h1v-2l-1 2Z"/><path fill="#1F9866" id="AIv6a" d="m146 169-7 2 4-5 3 1v2Z"/><path fill="#A3DAA3" id="DP" d="M205 188c6.551 0 41.494-3.003 45.5-1l1.5 2c0-1.668 3.099-6 5-6l4-8.5c.208-.416-1-6.086-1-7.5h-1l-2.5 2H229c0 1.93-1.161 0-2 0h-17c-2.817 0-13 1.19-13-3h-1v10.5l3 6.5 6 5Z"/><path fill="#1F9866" id="AIv6a" d="m311 170 6 1c0-2.518-3-2.334-3-5l-4 1v2l1 1Z"/><path fill="#24895D" id="ORBl6a" d="M151 167c0 1.014-3.959 2-5 2v-2h5ZM310 167v2c-1.041 0-5-.986-5-2h5Z"/><path fill="#209765" id="AId2/3" d="M97 199h1l11-3v-1c-3.435 0-7-21.766-7-26l-10 4-2 2c0 8.572 7 15.838 7 24Z"/><path fill="#1F9865" id="AIv5" d="M109 195v1c1.601 0 6.808 4.154 8.5 5 3.608 1.804 11.219-2.61 14-4 1.881-.94 21.5-11.272 21.5-3l4-3c0-2.784-4.968-3.437-5-3.5l1-3c0-.331-7-9.365-7-15.5l-7 2h-1c0 5.398-23.427 24-29 24Z"/><path fill="#209765" id="AId2/3" d="M358 199h1c0-7.834 8-15.885 8-24v-1c-1.048 0-3 .473-3-1-2.771 0-6.929-4-10-4 0 4.572-2.33 26-7 26v1l11 3Z"/><path fill="#1F9865" id="AIv5" d="M347 195v1c-3.639 0-7.416 7.542-12.5 5l-23-10c-3.349-1.675-6.241 2-8.5 2l-3-1c0-3.234 3.865-3.231 5-5.5l-1-3c1.765-3.529 7-8.429 7-13.5l6 1h1l5 5.5c2.812 5.624 18.123 18.5 24 18.5Z"/><path fill="#209764" id="AId1" d="m97 199-2 2c-2.29 0-10-21.46-10-25l4-1h1c0 8.572 7 15.838 7 24ZM359 199l3 2c1.998 0 2.337-5.174 3-6.5 2.642-5.283 6-11.191 6-17.5l-4-2c0 8.115-8 16.166-8 24Z"/><path fill="#54BF94" id="AON" d="M213 210c0 12.578 2.346 19.154-7.5 29-1.467 1.467-2.007 4-4.5 4 0-8.229 4.655-15.189 0-24.5v-7c-1.255-2.51-10-20.26-10-21.5 0-4.327 3.949-7 8-7l6 5c0 8.417 8 14.47 8 22ZM243 211c0 11.795-1.641 18.859 7.5 28l6.5 6c0-1.618-3.132-7.764-4-9.5l1-5 1-17c1.521-3.043 10-21.45 10-23.5 0-5.285-3.081-7-8-7-1.901 0-5 4.332-5 6 0 7.154-8 13.072-8 20l-1 1v1Z"/><path fill="#61D09F" id="TTd" d="M243 210v1c-3.683 0-7.326 6.587-12.5 4-1.566-.783-1.389-9-2-9l-.5 2.5c-1.578 3.157-2.364 9.568-8.5 6.5-1.667-.834-5.289-5-6.5-5 0-7.53-8-13.583-8-22 6.551 0 41.494-3.003 45.5-1l1.5 2c0 7.154-8 13.072-8 20l-1 1Z"/><path fill="#80CDF8" id="ACB" d="m200 244-1 1c-2.651 0-12.805-1.109-14-3.5-1.152-2.304-.892-11.5-5-11.5l-1-5c0-3.518 5.954-19-4-19 0-9.767 6.312-16 16-16 0 1.24 8.745 18.99 10 21.5v7c4.655 9.311 0 16.271 0 24.5l-1 1ZM257 245h1c13.46 0 10.851-3.201 15-11.5.614-1.228 3-1.276 3-3.5l2-5c-4.179 0-3.798-19 3-19 0-1.199 1.028-6.443 0-8.5-1.709-3.418-11.661-7.5-16-7.5 0 2.05-8.479 20.457-10 23.5l-1 17-1 5c.868 1.736 4 7.882 4 9.5Z"/><path fill="#219764" id="AIv2/3" d="M141 201c-7.952 0-19.864 11-29 11-3.302 0-14-9.628-14-13l11-3c1.601 0 6.808 4.154 8.5 5 3.608 1.804 11.219-2.61 14-4 1.881-.94 21.5-11.272 21.5-3l-12 7ZM315 201c10.104 0 19.37 11 30 11l5.5-3c2.482-1.241 7.5-7.534 7.5-10l-11-3c-3.639 0-7.416 7.542-12.5 5l-23-10c-3.349-1.675-6.241 2-8.5 2 0 4.101 12 4.936 12 8Z"/><path fill="#A0EE9C" id="EPd" d="M149 210v1l15.5 16c4.485 2.242 6.033-4.434 4.5-7.5-3.123-6.247-2.871-13.741-6-20-2.885-5.771-14 1.62-14 10.5ZM302 217l-1 1c-4.192 0-7.287 11.607-12.5 9-3.598-1.799-.517-7.467.5-9.5 2.645-5.291 1.303-12.605 4-18 3.207-6.414 15 3.305 15 9.5l-1 2-1 2-1 1-1 1-1 1-1 1Z"/><path fill="#209864" id="AIv1" d="M112 212c0 1.059-6.743 2-8 2 0-.758-9-8.45-9-13l2-2h1c0 3.372 10.698 13 14 13ZM345 212c0 1.175 5.704 2 7 2 2.804 0 10-10.203 10-13l-3-2h-1c0 2.466-5.018 8.759-7.5 10l-5.5 3Z"/><path fill="#6ACAB9" id="PIR" d="M148 251h1l9-4c0-1.44 11.379-6.742 8-13.5-2.102-4.205-17-20.077-17-22.5v-1c-3.462 0 2.039-9-8-9-7.952 0-19.864 11-29 11 0 1.059-6.743 2-8 2 0 6.345 9.659 23 17 23 11.325 0 21.18 14 27 14ZM308 251h1l1-1c4.121 0 15.359-13 25-13 7.878 0 17-15.31 17-23-1.296 0-7-.825-7-2-10.63 0-19.896-11-30-11-1.995 0-4.919-.662-6 1.5-.662 1.324 1.207 6.5-1 6.5l-1 2-1 2-1 1-1 1-1 1-1 1-1 1c0 2.053-9.317 13.134-11 16.5-3.21 6.421 8 8.815 8 12.5 3.65 0 6.136 4 9 4h1Z"/><path fill="#CBCBC7" id="aco" d="M175 206c9.954 0 4 15.482 4 19-8.479 0-14.841-19-4-19Z"/><path fill="#99D2BD" id="OLF" d="M258 245c0 3.796 8 1.963 8 4-8.559 0-13.033-8-21-8-2.341 0-1.421-2.342-2-3.5l-6-12c-.674-1.347-8-2.691-8-.5h-1c0-1.567-6.079-1.421-7-.5-2.335 2.335-9 13.756-9 16.5-8.494 0-12.276 8-21 8l8-4 1-1 1-1c2.493 0 3.033-2.533 4.5-4 9.846-9.846 7.5-16.422 7.5-29 1.211 0 4.833 4.166 6.5 5 6.136 3.068 6.922-3.343 8.5-6.5l.5-2.5c.611 0 .434 8.217 2 9 5.174 2.587 8.817-4 12.5-4 0 11.795-1.641 18.859 7.5 28l6.5 6h1Z"/><path fill="#CBCBC7" id="aco" d="M281 206c11.577 0 4.125 19-3 19-4.179 0-3.798-19 3-19Z"/><path fill="#99D2BD" id="OLF" d="m244 209-1 1 1-1ZM308 209l-1 2 1-2ZM307 211l-1 2 1-2ZM306 213l-1 1 1-1ZM305 214l-1 1 1-1ZM304 215l-1 1 1-1ZM303 216l-1 1 1-1ZM302 217l-1 1 1-1Z"/><path fill="#97D6F9" id="STR" d="M217 250c0 1.031 2 3.289 2 6 2.357 0 1.264-6.029 2-7.5 3.028-6.055 7-16.564 7-23.5 0-1.567-6.079-1.421-7-.5-2.335 2.335-9 13.756-9 16.5 0 1.417 5 4.163 5 9ZM239 250c0 1.624-2 2.75-2 5-1.781 0-1.348-6.197-2-7.5-3.053-6.106-6-15.373-6-22.5 0-2.191 7.326-.847 8 .5l6 12c.579 1.158-.341 3.5 2 3.5 0 2.165-6 4.568-6 9Z"/><path fill="#54BF94" id="AON" d="M189 249h2l8-4c-2.651 0-12.805-1.109-14-3.5-1.152-2.304-.892-11.5-5-11.5-7.007 0-10.068 6.364-7 12.5 1.879 3.759 7.443 3.972 10.5 5.5 1.238.619 5.5-1.144 5.5 1ZM266 249h2c0-1.274 7.483-2 9-2h1l1-1 2-1 3-3.5c3.163-6.325-2.408-11.5-8-11.5 0 2.224-2.386 2.272-3 3.5-4.149 8.299-1.54 11.5-15 11.5 0 3.796 8 1.963 8 4Z"/><path fill="#CAC8C7" id="lot" d="M148 251c0 1.622.461 5-2 5-2.885 0-25-15.907-25-19 11.325 0 21.18 14 27 14ZM308 255l3 1c2.095 0 24-15.282 24-19-9.641 0-20.879 13-25 13l-1 1h-1v4Z"/><path fill="#A2B1D7" id="SI" d="M189 249h2c8.724 0 12.506-8 21-8 0 1.417 5 4.163 5 9-7.676 0-8.341 3.92-14.5 7-7.701 3.851-20.53.235-27-3l-10.5-6c0-7.767 14.192-.154 16.5 1h7.5ZM266 249h2c2.04 0 9 1.087 9-2h1l1-1 2-1c3.296 0 11-1.498 11 3l-11.5 7c-2.997 1.498-6.931 1.466-10 3-11.36 5.68-21.376-8-31.5-8 0-4.432 6-6.835 6-9 7.967 0 12.441 8 21 8Z"/><path fill="#54BF94" id="AON" d="m201 243-1 1 1-1ZM200 244l-1 1 1-1Z"/><path fill="#99D2BD" id="OLF" d="m281 245-2 1 2-1ZM279 246l-1 1 1-1Z"/><path fill="#7FCCF7" id="OT" d="m217 264-1 1c0 5.067-8.283 7.391-11.5 9-10.825 5.412-32.292.354-43-5L150 259l-1-2v-6l9-4c2.409 0 5.181 1 7 1l10.5 6c6.47 3.235 19.299 6.851 27 3 6.159-3.08 6.824-7 14.5-7 0 1.031 2 3.289 2 6v3l-1 1v1l-1 2v1Z"/><path fill="#99D2BD" id="OLF" d="M277 247c-1.517 0-9 .726-9 2 2.04 0 9 1.087 9-2Z"/><path fill="#7FCCF7" id="OT" d="m239 263 1 2 3.5 5 14 7c1.791.896 8.368-1.184 10-2 4.978-2.489 12.974.513 18-2 3.78-1.89 7.155-4.078 11-6l8.5-7 1-1 1-1c0-1.048-.473-3 1-3v-2l-1-2c-2.864 0-5.35-4-9-4-2.124 0-4.436 1-6 1l-11.5 7c-2.997 1.498-6.931 1.466-10 3-11.36 5.68-21.376-8-31.5-8 0 1.624-2 2.75-2 5v3l1 1v1l1 1v2Z"/><path fill="#99D2BD" id="OLF" d="m310 250-1 1 1-1ZM149 257v1l-3-2c2.461 0 2-3.378 2-5h1v6ZM308 251v2l-1-2h1ZM311 256l-4 2c0-1.048-.473-3 1-3l3 1Z"/><path fill="#97D6F9" id="STR" d="m149 258 1 1-1-2v1ZM237 258l1 1-1-1ZM307 258l-1 1 1-1ZM219 259l-1 1 1-1ZM306 259l-1 1 1-1ZM238 260l1 1-1-1ZM218 261l-1 2 1-2ZM239 263l1 2-1-2ZM217 264l-1 1 1-1Z"/></svg>