<svg xmlns="http://www.w3.org/2000/svg" viewBox="0 0 456 320"><path fill="#1E9C59" id="MOs1" d="m227 55-5 2c0-2.678-1.911-3.323-3-5.5-7.275-14.55-23.855-8.5-36-8.5v-5c0-1.8 13.384-1 15.5-1h11c4.889 2.444 17.5 11.191 17.5 18ZM229 55l5 2c0-2.976 3.734-4.968 5-7.5 6.364-12.728 24.207-6.5 35-6.5v-5c-13.968 0-31.607-5.287-39 9.5l-6 7.5Z"/><path fill="#1E9D5A" id="MOp1" d="M131 54v6c4.099 0 8.97-3.235 12.5-5 6.339-3.17 31.479-11 38.5-11l1-1v-5c-11.385 0-30.665 7.082-40.5 12-1.588.794-11.5 2.47-11.5 4ZM325 54l1 7-10.5-5c-3.587-1.794-38.532-13-41.5-13v-5c10.862 0 30.048 7.274 39.5 12 1.588.794 11.5 2.47 11.5 4Z"/><path fill="#1E9D58" id="MOs2/3" d="M181 58c5.375 0 26.091-13.318 32-1.5l3 4.5c1.208 0 3.947-4 6-4 0-2.678-1.911-3.323-3-5.5-7.275-14.55-23.855-8.5-36-8.5l-1 1-1 14ZM275 58c-6.282 0-20.896-12.604-31-2.5l-3 4.5-7-3c0-2.976 3.734-4.968 5-7.5 6.364-12.728 24.207-6.5 35-6.5 0 4.331 1 10.56 1 15Z"/><path fill="#1F9C58" id="MOp2/3" d="m183 43-1 1 1-1ZM327 77c-.533 0-1 4.707-1 6l-11.5-6c-8.733-4.367-18.276-7.638-27-12-3.336-1.668-8.802-7-12.5-7 0-4.44-1-10.669-1-15 2.968 0 37.913 11.206 41.5 13l10.5 5c0 6.451 1 11.682 1 16ZM130 83h1l10.5-6c4.49-2.245 37.277-18 39.5-18v-1l1-14c-7.021 0-32.161 7.83-38.5 11-3.53 1.765-8.401 5-12.5 5l-1 1v22Z"/><path fill="#1F9D58" id="MOs5" d="M201 73h1c0-3.277 11.625-12 14-12l-3-4.5c-5.909-11.818-26.625 1.5-32 1.5v1l-3 18c7.029 0 11.485-10.007 19.5-6 1.158.58 3.5-.341 3.5 2ZM255 73c0-2.282 5.29-3 7-3 6.566 0 10.902 7 17 7l-4-19c-6.282 0-20.896-12.604-31-2.5l-3 4.5v1c5.27 0 9.112 12 14 12Z"/><path fill="#197E64" id="SSp-ul1" d="m102 69 2 5c3.895 0 20.674-13 26-13l1-1v-6c-7.693 0-15.882 7.69-22.5 11-1.426.713-6.5 1.764-6.5 4ZM354 69l-2 5c-1.796 0-21.36-13-26-13l-1-7c3.658 0 29 12.689 29 15Z"/><path fill="#3EA665" id="ACAd1" d="M222 84h12V57l-5-2c0 1.93-1.161 0-2 0l-5 2v27Z"/><path fill="#40A565" id="ACAd2/3" d="m222 84-5 1c0-7.895-1-16.783-1-24 1.208 0 3.947-4 6-4v27ZM234 84l5 1V66.5c0-1.532.173-5.5 2-5.5v-1l-7-3v27Z"/><path fill="#1E9C5A" id="MOp5" d="M326 98h1c0-4.5-1-10.926-1-15l-11.5-6c-8.733-4.367-18.276-7.638-27-12-3.336-1.668-8.802-7-12.5-7l4 19v1c4.184 0 9.812 5.156 13.5 7 8.736 4.368 19.247 5.624 28 10l5.5 3ZM130 84v14c1.014 0 35.535-13.517 38.5-15 2.695-1.347 6.469-6 9.5-6l3-18c-2.223 0-35.01 15.755-39.5 18L131 83l-1 1Z"/><path fill="#197F61" id="SSp-ul2/3" d="M111 85h1c0-2.114 15.353-8 18-8V61c-5.326 0-22.105 13-26 13v1c1.762 0 7 8.567 7 10Z"/><path fill="#3EA566" id="ACAd5" d="M217 85c-3.682 0-10.549 7-13 7 0-6.773-2-13.004-2-19 0-3.277 11.625-12 14-12 0 7.217 1 16.105 1 24ZM239 85l13 6c0-2.088.779-17 3-17v-1c-4.888 0-8.73-12-14-12-1.827 0-2 3.968-2 5.5V85Z"/><path fill="#197F61" id="SSp-ul2/3" d="M327 77c6.155 0 13.871 8 18 8 0-1.092 5.18-10 7-10v-1c-1.796 0-21.36-13-26-13 0 6.451 1 11.682 1 16Z"/><path fill="#187E61" id="SSp-m1" d="m57 138 4 1c1.952 0 .477-2.454 1-3.5 2.275-4.549 1.743-10.486 4-15 6.339-12.677 13.706-24.706 24-35 3.226-3.226 9.565-10.5 14-10.5v-1l-2-5c-5.947 0-9.954 9.227-15.5 12C73.336 87.582 57 123.043 57 138ZM400 138l-5 1c0-13.842-17.397-47.949-29.5-54-3.839-1.92-8.025-10-13.5-10v-1l2-5c5.297 0 9.779 8.14 13.5 10 12.893 6.447 32.5 43.979 32.5 59Z"/><path fill="#1D9C5A" id="MOs6a" d="M189 95h1c0-8.05 11-17.81 11-22 0-2.341-2.342-1.42-3.5-2-8.015-4.007-12.471 6-19.5 6 0 5.937-1 13.507-1 21l12-3ZM267 95l12 3V77c-6.098 0-10.434-7-17-7-1.71 0-7 .718-7 3v1c1.949 0 12 18.327 12 21Z"/><path fill="#3FA664" id="ACAd6a" d="m190 95 5 5c3.398 0 5.13-7 9-7v-1c0-6.773-2-13.004-2-19h-1c0 4.19-11 13.95-11 22ZM261 101h1l1-2c0-1.747.253-2 2-2l2-1v-1c0-2.673-10.051-21-12-21-2.221 0-3 14.912-3 17v1c2.344 0 9 7.677 9 9Z"/><path fill="#1A7E64" id="SSp-m2/3" d="M61 140c3.541 0 6.145 3 10 3 0-13.836 10.185-25.87 16-37.5l6-6c1.796-3.592 14.38-14.5 18-14.5 0-1.433-5.238-10-7-10-4.435 0-10.774 7.274-14 10.5-10.294 10.294-17.661 22.323-24 35-2.257 4.514-1.725 10.451-4 15-.523 1.046.952 3.5-1 3.5v1ZM395 140c-3.541 0-6.145 3-10 3 0-16.557-12.276-34.776-24-46.5-3.097-3.097-12.207-11.5-16-11.5 0-1.092 5.18-10 7-10 5.475 0 9.661 8.08 13.5 10 12.103 6.051 29.5 40.158 29.5 54v1Z"/><path fill="#1A7F63" id="SSp-ul4" d="m112 85 4 7 14-8v-7c-2.647 0-18 5.886-18 8Z"/><path fill="#1F9B5A" id="MOp6a" d="M130 121h1c0-2.145 24.403-14 28-14 0-2.455 11.459-6 14-6l4-2v-1c0-7.493 1-15.063 1-21-3.031 0-6.805 4.653-9.5 6-2.965 1.483-37.486 15-38.5 15l-1 12c0 3.948 1 7.181 1 11Z"/><path fill="#1A7F63" id="SSp-ul4" d="M345 85c0 3.1-4 3.387-4 7-5.307 0-10.112-9-15-9 0-1.293.467-6 1-6 6.155 0 13.871 8 18 8Z"/><path fill="#1F9B5A" id="MOp6a" d="M327 111c0 3.717-1 5.842-1 9-6.692 0-36.945-21-47-21V78c4.184 0 9.812 5.156 13.5 7 8.736 4.368 19.247 5.624 28 10l5.5 3c0 3.823 1 8.586 1 13Z"/><path fill="#187E62" id="SSp-ul5" d="m131 83-1 1v-1h1Z"/><path fill="#40A664" id="ACAv1" d="M229 112c3.448 0 2.91 5 5 5V84h-12v33l5-5c0-3.15 2-3.446 2 0Z"/><path fill="#187E62" id="SSp-ul5" d="M333 102h1c0-2.246 5.059-9 7-9v-1c-5.307 0-10.112-9-15-9 0 4.074 1 10.5 1 15l6 4ZM130 98l-7 4-7-10 14-8v14Z"/><path fill="#3FA566" id="ACAv2/3" d="m221 120-3 1-1-36 5-1v33l-1 3ZM236 120l2 1c0-11.23 1-24.095 1-36l-5-1v33l2 3Z"/><path fill="#1B7F62" id="SSp-m4" d="M77 146h1c0-13.336 13.721-33.221 23-42.5 2.497-2.497 12.973-11.5 15-11.5l-4-7h-1c-3.62 0-16.204 10.908-18 14.5l-6 6c-5.815 11.63-16 23.664-16 37.5v1c.986 0 6 1.087 6 2Z"/><path fill="#3EA666" id="ACAv5" d="M209 117c0 2.644 9 5.004 9 4l-1-36c-3.682 0-10.549 7-13 7v1c0 7.843 5 18.263 5 24ZM247 118c0 2.056-6.91 3-9 3 0-11.23 1-24.095 1-36l13 6v1l-1 14.5-4 11.5Z"/><path fill="#1B7F62" id="SSp-m4" d="m385 144-6 1c0-8.654-17.168-38.834-25.5-43-4.353-2.177-7.345-9-12.5-9v-1c0-3.613 4-3.9 4-7 3.793 0 12.903 8.403 16 11.5 11.724 11.724 24 29.943 24 46.5v1Z"/><path fill="#1B7E63" id="SSp-m5" d="M78 146c4.08 0 6.738 3 11 3 0-13.518 18.093-46 34-46v-1l-7-10c-2.027 0-12.503 9.003-15 11.5-9.279 9.279-23 29.164-23 42.5Z"/><path fill="#40A564" id="ACAv6a" d="m250 116-3 2 4-11.5 1-14.5c2.344 0 9 7.677 9 9v2c-1.617 0-4 4.583-4 6-1.747 0-2 .253-2 2-2.226 0-4 1.774-4 4l-1 1ZM206 116l3 1c0-5.737-5-16.157-5-24-3.87 0-5.602 7-9 7v1c0 5.115 10 8.888 10 14l1 1Z"/><path fill="#1B7E63" id="SSp-m5" d="m379 146-12 3c0-14.648-10.355-24.209-16-35.5-1.521-3.043-17-10.971-17-11.5 0-2.246 5.059-9 7-9 5.155 0 8.147 6.823 12.5 9 8.332 4.166 25.5 34.346 25.5 43v1Z"/><path fill="#1E9C58" id="MOs6b" d="M177 98v1c4.499 0 7.354-2 12-2v-2l-12 3Z"/><path fill="#3FA466" id="ACAd6b" d="M194 101h1v-1l-5-5h-1v2c2.813 0 3.461 4 5 4Z"/><path fill="#1E9C58" id="MOs6b" d="M279 98v1c-4.475 0-7.225-2-12-2v-2l12 3Z"/><path fill="#3FA466" id="ACAd6b" d="M265 97h2v-1l-2 1Z"/><path fill="#CACCC7" id="cing" d="m205 115 1 1c0 1.945-2.66-.58-3.5-1-4.492-2.246-7.599-8.8-10-10l-5-4c-5.461-2.73-11.774 4-16.5 4l-1 1h-1l-1 1h-6l11-6c1.465 0 4 .109 4-2 4.499 0 7.354-2 12-2 2.813 0 3.461 4 5 4 0 2.761 7.544 14 11 14Z"/><path fill="#3FA466" id="ACAd6b" d="M265 97c-1.747 0-2 .253-2 2l2-2Z"/><path fill="#CACCC7" id="cing" d="m251 115-1 1c0 1.585 4.056-.556 5-1.5l13.5-13.5c5.461-2.73 11.774 4 16.5 4l1 1h1l1 1h6l-15-8c-4.475 0-7.225-2-12-2h-2l-2 2v2l-2 2c0 1.664-1.823 6-4 6 0 1.747-.253 2-2 2 0 1.366-2.366 4-4 4Z"/><path fill="#197D61" id="SSp-ul6a" d="m123 103 6 7 1-12-7 4v1ZM333 102c0 1.549-4.672 9-6 9 0-4.414-1-9.177-1-13h1l6 4Z"/><path fill="#1D9D5A" id="MOp6b" d="m177 99-4 2c1.465 0 4 .109 4-2Z"/><path fill="#3FA466" id="ACAd6b" d="M262 101h1v-2l-1 2Z"/><path fill="#1D9D5A" id="MOp6b" d="m327 121-1 1c-4.956 0-23.54-15-32-15l-15-8c10.055 0 40.308 21 47 21l1 1ZM159 107h3l11-6c-2.541 0-14 3.545-14 6Z"/><path fill="#C9C7C9" id="ccb" d="m131 127-6 3c0-2.862 6.654-6.077 8.5-7l24-12c1.568-.784 9.5-1.924 9.5-4h1l1-1h1l1-1c4.726 0 11.039-6.73 16.5-4l5 4c2.401 1.2 5.508 7.754 10 10 .84.42 3.5 2.945 3.5 1l3 1c0 2.644 9 5.004 9 4l3-1c0 4.655 6.856 0 7.5 0l1 2c1.359.68 6.5-.989 6.5-2l2 1c2.09 0 9-.944 9-3l3-2c0 1.585 4.056-.556 5-1.5l13.5-13.5c5.461-2.73 11.774 4 16.5 4l1 1h1l1 1h1c0 2.031 9.733 4.117 11.5 5 5.458 2.729 11.581 4.29 17 7l12 9 7.5 7c-3.87 0-9.836-8.668-14.5-11-9.012-4.506-19.061-6.53-28-11-3.368-1.684-14.164.582-17 2l-7 1-16 11c-5.882 2.941-12.16 5.08-18 8-1.801.901-5.827.586-7 0-.535-.268-12.195-.097-16-2-10.321-5.16-19.616-12.808-30-18-10.602-5.301-31.84.42-41 5-2.099 1.05-11.5 3.981-11.5 7Z"/><path fill="#40A465" id="ACAv6b" d="M195 101c0 5.115 10 8.888 10 14-3.456 0-11-11.239-11-14h1ZM263 101l-2 2v-2h2Z"/><path fill="#187D61" id="SSp-m6a" d="m353 165 11 2c0-3.959-2.4-17 3-17v-1c0-14.648-10.355-24.209-16-35.5-1.521-3.043-17-10.971-17-11.5h-1c0 1.549-4.672 9-6 9 0 3.717-1 5.842-1 9l1 1c3.452 0 6.498 6.999 8.5 8 9.798 4.899 16.5 24.983 16.5 36h1ZM104 165l-11 2c0-2.651 1.772-17-4-17v-1c0-13.518 18.093-46 34-46l6 7c0 3.948 1 7.181 1 11-2.988 0-7.815 6.315-10 8.5-9.252 9.252-16 22.26-16 35.5Z"/><path fill="#40A465" id="ACAv6b" d="M261 103c-1.617 0-4 4.583-4 6 2.177 0 4-4.336 4-6Z"/><path fill="#C9C9CA" id="scwm" d="m171 105-1 1 1-1ZM285 105l1 1-1-1ZM169 106l-1 1 1-1ZM287 106l1 1-1-1Z"/><path fill="#1D9D5A" id="MOp6b" d="M159 107c-3.597 0-28 11.855-28 14l22-10.5c1.825-1.825 6-.083 6-3.5Z"/><path fill="#C9C9CA" id="scwm" d="M117 137h1l1-1 1-1 1-1 1-1 1-1 1-1 1-1c0-2.862 6.654-6.077 8.5-7l24-12c1.568-.784 9.5-1.924 9.5-4h-8c0 3.417-4.175 1.675-6 3.5L131 121l-1 1c0 2.537-13 9.373-13 15ZM349 158h1c0-8.09-6.881-19.381-12.5-25L326 122c-4.956 0-23.54-15-32-15h-5c0 2.031 9.733 4.117 11.5 5 5.458 2.729 11.581 4.29 17 7l12 9 7.5 7v1c1.59 0 6 5.662 6 7v1l1 1v1l1 1v1c2.216 0 4 7.15 4 9v1Z"/><path fill="#40A465" id="ACAv6b" d="M257 109c-1.747 0-2 .253-2 2 1.747 0 2-.253 2-2ZM255 111c-2.226 0-4 1.774-4 4 1.634 0 4-2.634 4-4Z"/><path fill="#7ED04B" id="IG" d="M221 120c0 4.655 6.856 0 7.5 0l1 2c1.359.68 6.5-.989 6.5-2l-2-3c-2.09 0-1.552-5-5-5 0 1.93-1.161 0-2 0l-5 5-1 3Z"/><path fill="#CCC7C9" id="ccg" d="m345 148 1 3-4-6.5-17.5-17.5c-7.988-3.994-39.707-15.146-50-10l-5.5 3-1 1c-1.572 0-7 2.052-7 4-1.238 0-3 .423-3 2-1.238 0-3 .423-3 2-1.238 0-3 .423-3 2-1.238 0-3 .423-3 2-2.967 0-13.811 8.844-17.5 7l-3-3-4 3-5-1c-2.939-1.47-9.373-6-12.5-6 0-1.495-19.433-14-21-14l-3.5-2h-22c-4.839 2.419-11.221 1.61-16 4l-13.5 6c0-3.019 9.401-5.95 11.5-7 9.16-4.58 30.398-10.301 41-5 10.384 5.192 19.679 12.84 30 18 3.805 1.903 15.465 1.732 16 2 1.173.586 5.199.901 7 0 5.84-2.92 12.118-5.059 18-8l16-11 7-1c2.836-1.418 13.632-3.684 17-2 8.939 4.47 18.988 6.494 28 11 4.664 2.332 10.63 11 14.5 11v1l6 7v1l1 1v1l1 1v1Z"/><path fill="#98D5F9" id="CP" d="M126 229c1.936 0 5.554 5 9 5 8.325 0 18.647 2.927 26.5-1l9-6c3.531-1.766 4.184-21 11.5-21l9-8c0-5.789 1-11.78 1-17 0-1.321-.684-6 1-6v-5l1-1 1-8c0-4.813 3.473-14.555 1-19.5-1.828-3.657-5-11.448-5-15.5l-5-7-3.5-2h-22c-4.839 2.419-11.221 1.61-16 4l-13.5 6-16 16c0 1.238-.423 3-2 3 0 1.238-.423 3-2 3v2l-1 1v1l-1 1v2l-1 1-1 2v2c0 1.145.579 4-1 4v1c0 10.489.693 18.886 5 27.5l1 10 3 10.5v1l1 1v1l1 1v1l2 2v1l2 2 1 2 4 3ZM330 230l-9 5c-12.293 0-21.42.04-31.5-5-7.767-3.883-7.484-24-15.5-24l-9-9c0-5.809 1.468-14.565-1-19.5-.574-1.147 1.064-4.5-1-4.5v-5l-1-1v-3l-1-1v-25.5c1.688-3.376 5-8.639 5-12.5l2-4 1-1 5.5-3c10.293-5.146 42.012 6.006 50 10l17.5 17.5 4 6.5v1l1 1v2l1 1v1l1 1v1l1 7c0 5.918 1.506 15.488-1 20.5-2.582 5.165-4 9.165-4 15.5-1.434 0-2 6.448-2 8-1.638 0-2 3.576-2 5v1l-1 1-1 2-1 2-1 1-1 1-1 2-1 1-1 1-2 2-1 1Z"/><path fill="#AAA8A9" id="SEZ" d="M191 126c0-4.789 13.917 7 16 7 0-1.495-19.433-14-21-14l5 7ZM269 120l-1 1 1-1Z"/><path fill="#188064" id="SSp-m6b" d="M105 165h1v-5c0-2.342.131-10 3-10 0-1.238.423-3 2-3v-1c0-1.238.423-3 2-3l1-2c0-1.429 1.288-4 3-4 0-5.627 13-12.463 13-15v-1c-2.988 0-7.815 6.315-10 8.5-9.252 9.252-16 22.26-16 35.5h1Z"/><path fill="#1D9D5A" id="MOp6b" d="m131 121-1 1v-1h1Z"/><path fill="#AAA8A9" id="SEZ" d="M261 125h5l2-4c-1.572 0-7 2.052-7 4Z"/><path fill="#188064" id="SSp-m6b" d="M351 165h1c0-11.017-6.702-31.101-16.5-36-2.002-1.001-5.048-8-8.5-8l-1 1 11.5 11c5.619 5.619 12.5 16.91 12.5 25v2l1 2v3Z"/><path fill="#A8AAAA" id="VL" d="m197 157-2 4c0-4.813 3.473-14.555 1-19.5-1.828-3.657-5-11.448-5-15.5 0-4.789 13.917 7 16 7v1l1 1c0 7.124-11 16.659-11 22ZM259 157l2 3v-22.5c1.688-3.376 5-8.639 5-12.5h-5c0 1.577-1.762 2-3 2 0 1.577-1.762 2-3 2 0 1.577-1.762 2-3 2l-3 3-1 4.5c2.701 5.401 11 12.286 11 18.5Z"/><path fill="#AAA8A9" id="SEZ" d="M261 125c-1.238 0-3 .423-3 2 1.238 0 3-.423 3-2Z"/><path fill="#CCC7C9" id="ccg" d="M115 141v2l16-16-6 3-1 1-1 1-1 1-1 1-1 1-1 1-1 1-1 1v1l-1 1-1 1Z"/><path fill="#AAA8A9" id="SEZ" d="M258 127c-1.238 0-3 .423-3 2 1.238 0 3-.423 3-2ZM255 129c-1.238 0-3 .423-3 2 1.238 0 3-.423 3-2Z"/><path fill="#C9C7C9" id="ccb" d="m125 130-1 1 1-1ZM124 131l-1 1 1-1Z"/><path fill="#AAA8A9" id="SEZ" d="M249 133v1l3-3c-1.238 0-3 .423-3 2Z"/><path fill="#C9C7C9" id="ccb" d="m123 132-1 1 1-1ZM122 133l-1 1 1-1Z"/><path fill="#97D6F9" id="STR" fill-rule="evenodd" d="M209 139c0 1.93 1.93 0 0 0m36-2c0 5.677 4.136 0 0 0m-35 0c0 4.123 4.123 0 0 0m-13 20c3.504 0 5.551-4.525 8.5-6 6.086-3.043 11.792-6.896 18-10 1.825-.913 3.816 1 5 1 1.184 0 3.175-1.913 5-1 3.571 1.785 23.748 16 25.5 16 0-6.214-8.299-13.099-11-18.5l1-4.5v-1c-2.967 0-13.811 8.844-17.5 7l-3-3-4 3-5-1c-2.939-1.47-9.373-6-12.5-6v1l1 1c0 7.124-11 16.659-11 22Z"/><path fill="#C9C7C9" id="ccb" d="m121 134-1 1 1-1Z"/><path fill="#AAA8A9" id="SEZ" d="m207 134 1 1-1-1Z"/><path fill="#C9C7C9" id="ccb" d="m120 135-1 1 1-1ZM119 136l-1 1 1-1ZM337 136c1.59 0 6 5.662 6 7l-6-7Z"/><path fill="#C9C9CA" id="scwm" d="M114 141h1l1-1 1-1v-2c-1.712 0-3 2.571-3 4Z"/><path fill="#C9C7C9" id="ccb" d="m118 137-1 1v-1h1Z"/><path fill="#90CBEC" id="LSc" d="M210 137c0 4.123 4.123 0 0 0ZM245 137c0 5.677 4.136 0 0 0Z"/><path fill="#1A7E62" id="SSs1" d="m60 174-5 1c0-4.33-4.489-11.522-2-16.5 2.337-4.675 4-15.29 4-20.5l4 1v1c0 4.719-.02 10.541-2 14.5l1 19.5ZM397 174l4 1c2.156 0 2-7.077 2-9 0-9.77-3-18.409-3-28l-5 1v1c0 2.937.706 7.913 2 10.5V174Z"/><path fill="#C9C7C9" id="ccb" d="m117 139-1 1 1-1Z"/><path fill="#90CBEC" id="LSc" d="M209 139c0 1.93 1.93 0 0 0Z"/><path fill="#1B8063" id="SSs2/3" d="m69 172-9 2-1-19.5c1.98-3.959 2-9.781 2-14.5 3.541 0 6.145 3 10 3v1c0 2.721-.835 6.171-2 8.5V172Z"/><path fill="#C9C7C9" id="ccb" d="m116 140-1 1 1-1Z"/><path fill="#1B8063" id="SSs2/3" d="M396 174h1v-23.5c-1.294-2.587-2-7.563-2-10.5-3.541 0-6.145 3-10 3v1l2 5.5c2.779 5.558 0 17.114 0 22.5 3.519 0 5.843 2 9 2Z"/><path fill="#C9C9CA" id="scwm" d="M113 143h1v-2l-1 2Z"/><path fill="#C9C7C9" id="ccb" d="M114 143h1v-2h-1v2Z"/><path fill="#90CAED" id="LSr" d="m221 207-2 2c0-8.295-4.606-12.712-8-19.5l-4-3c-1.578-3.156-5.905-9.702-9.5-11.5l-4.5 1v-6l1-1 1-8 2-4c3.504 0 5.551-4.525 8.5-6 6.086-3.043 11.792-6.896 18-10 1.825-.913 3.816 1 5 1 1.184 0 3.175-1.913 5-1 3.571 1.785 23.748 16 25.5 16l2 3v3l1 1v3l1 1v7c-9.763 0-26 24.632-26 34l-2-4c0-11.564-4-21.683-4-33l-2-12.5-.5-8.5-.5 3.5c-2.041 4.082-2 11.77-2 16.5l-1 2c0 11.932-4 22.068-4 34Z"/><path fill="#C9C9CA" id="scwm" d="M111 146h1l1-1v-2c-1.577 0-2 1.762-2 3Z"/><path fill="#C9C7C9" id="ccb" d="m114 143-1 1v-1h1Z"/><path fill="#CCC7C9" id="ccg" d="M113 145v1c1.577 0 2-1.762 2-3h-1l-1 1v1Z"/><path fill="#187C63" id="SSs4" d="M69 171h5c0-8.429 3-16.72 3-25 0-.913-5.014-2-6-2 0 2.721-.835 6.171-2 8.5V171Z"/><path fill="#C9C7C9" id="ccb" d="m343 144 1 1-1-1Z"/><path fill="#187C63" id="SSs4" d="m382 171 5 1c0-5.386 2.779-16.942 0-22.5l-2-5.5-6 1v1c0 8.003 3 16.325 3 25Z"/><path fill="#C9C7C9" id="ccb" d="M112 146h1v-1l-1 1Z"/><path fill="#1C8063" id="SSs5" d="m88 168-14 3c0-8.429 3-16.72 3-25h1c4.08 0 6.738 3 11 3v1c0 5.421-1 11.091-1 17v1Z"/><path fill="#C9C7C9" id="ccb" d="m112 146-1 1v-1h1Z"/><path fill="#CCC7C9" id="ccg" d="M111 147v2c1.577 0 2-1.762 2-3h-1l-1 1Z"/><path fill="#C9C7C9" id="ccb" d="m344 146 1 1-1-1Z"/><path fill="#1C8063" id="SSs5" d="M369 168c4.187 0 9.088 3 13 3 0-8.675-3-16.997-3-25l-12 3v1c0 5.604 2 11.634 2 18Z"/><path fill="#C9C9CA" id="scwm" d="m111 149-2 1c0-1.238.423-3 2-3v2Z"/><path fill="#C9C7C9" id="ccb" d="M348 157h1c0-1.85-1.784-9-4-9l1 3v1l1 1v2l1 1v1ZM109 153h1v-1l1-1v-2l-2 1v3Z"/><path fill="#197D63" id="SSs6a" d="M88 167h5c0-2.651 1.772-17-4-17 0 5.421-1 11.091-1 17Z"/><path fill="#C9C9CA" id="scwm" d="M106 160h1v-3l2-4v-3c-2.869 0-3 7.658-3 10Z"/><path fill="#197D63" id="SSs6a" d="m364 167 5 1c0-6.366-2-12.396-2-18-5.4 0-3 13.041-3 17Z"/><path fill="#CCC7C9" id="ccg" d="m111 151-1 1 1-1Z"/><path fill="#97D6F9" id="STR" d="m226 171 2.5-3 2.5 4-2-12.5-.5-8.5-.5 3.5c-2.041 4.082-2 11.77-2 16.5Z"/><path fill="#CCC7C9" id="ccg" d="m346 152 1 1-1-1Z"/><path fill="#C9C7C9" id="ccb" d="M107 157h1l1-1v-3l-2 4Z"/><path fill="#CCC7C9" id="ccg" d="m110 153-1 1v-1h1ZM347 155l1 1-1-1ZM109 156l-1 1 1-1ZM108 157l-1 2v-2h1ZM349 157v1l-1-1h1Z"/><path fill="#C9C7C9" id="ccb" d="M349 159h1v-1h-1v1Z"/><path fill="#CCC7C9" id="ccg" d="M350 166h1v-4l-1-2v-1h-1l1 7Z"/><path fill="#C9C7C9" id="ccb" d="M106 161h1v-1h-1v1Z"/><path fill="#C9C9CA" id="scwm" d="m350 160 1 2-1-2Z"/><path fill="#CCC7C9" id="ccg" d="M107 161c0 1.145.579 4-1 4v-4h1Z"/><path fill="#A8AAAA" id="VL" d="m261 163 1 1-1-1Z"/><path fill="#009B74" id="GU6a" d="m104 180-15 5c-1.804 0-1-14.759-1-17v-1h5l11-2v15Z"/><path fill="#019C74" id="GU6b" d="M104 180h1v-15h-1v15Z"/><path fill="#CCC7C9" id="ccg" d="M105 166h1v-1h-1v1Z"/><path fill="#019C74" id="GU6b" d="M351 180h2v-15h-2v15Z"/><path fill="#009B74" id="GU6a" d="M353 180c4.916 0 9.695 5 15 5 0-5.421 1-11.091 1-17l-5-1-11-2v15Z"/><path fill="#C8CBCC" id="ec" d="m113 210 2 4-3-10.5-1-10c-4.307-8.614-5-17.011-5-27.5h-1v14c.981 0 2 7.758 2 9 0 3.697 3 6.94 3 11 0 1.819 1 4.591 1 7l2 3ZM346 200l-1 2c0-6.335 1.418-10.335 4-15.5 2.506-5.012 1-14.582 1-20.5h1v14c0 3.324-2 6.16-2 9l-3 11Z"/><path fill="#A8AAAA" id="VL" d="m262 167 1 1-1-1Z"/><path fill="#019C75" id="GU5" d="M75 191h1c0-1.111 11.438-5 13-5v-1c-1.804 0-1-14.759-1-17l-14 3 1 20Z"/><path fill="#96A7D3" id="MS" d="M220 235h16c0-10.03-1-20.589-1-30 0-11.564-4-21.683-4-33l-2.5-4-2.5 3-1 2c0 11.932-4 22.068-4 34l-1 28Z"/><path fill="#019C75" id="GU5" d="M368 186c4.273 0 8.101 4 13 4 0-5.826 1-12.583 1-19-3.912 0-8.813-3-13-3 0 5.909-1 11.579-1 17v1Z"/><path fill="#A8AAAA" id="VL" d="m194 169-1 1 1-1Z"/><path fill="#009C74" id="GU4" d="M73 191h2l-1-20h-5v1c0 6.921 4 12.878 4 19Z"/><path fill="#97D6F9" id="STR" d="m226 171-1 2 1-2Z"/><path fill="#009C74" id="GU4" d="M381 191h3c0-6.452 3-11.895 3-19l-5-1c0 6.417-1 13.174-1 19v1Z"/><path fill="#009B75" id="GU2/3" d="M65 195h4c0-2.879 4-1.993 4-4 0-6.122-4-12.079-4-19l-9 2c0 7.104 5 14.43 5 21ZM387 195h4c1.993 0 1.35-5.2 2-6.5 2.05-4.1 3-9.611 3-14.5-3.157 0-5.481-2-9-2 0 7.105-3 12.548-3 19 0 1.457 3 1.46 3 4Z"/><path fill="#A8AAAA" id="VL" d="M262 196c0 4.419 3 8.038 3 1 0-5.809 1.468-14.565-1-19.5-.574-1.147 1.064-4.5-1-4.5v2c0 6.967-1 14.681-1 21Z"/><path fill="#009C75" id="GU1" d="m65 195-4 2c0-7.126-6-14.411-6-22l5-1c0 7.104 5 14.43 5 21ZM391 196c1.145 0 4-.579 4 1 1.993 0 1.35-5.2 2-6.5 2.263-4.527 4-10.083 4-15.5l-4-1h-1c0 4.889-.95 10.4-3 14.5-.65 1.3-.007 6.5-2 6.5v1Z"/><path fill="#A8AAAA" id="VL" d="M194 195c0 4.185-3 10.486-3 3 0-5.789 1-11.78 1-17 0-1.321-.684-6 1-6v1c0 6.417 1 13.174 1 19Z"/><path fill="#8FCBED" id="LSv" d="m194 195 4 4.5 11.5 9.5c1.487 1.487 9.5 3.844 9.5 0 0-8.295-4.606-12.712-8-19.5l-4-3c-1.578-3.156-5.905-9.702-9.5-11.5l-4.5 1c0 6.417 1 13.174 1 19ZM262 196l-17.5 15c-3.117 1.558-5.401-2-7.5-2 0-9.368 16.237-34 26-34 0 6.967-1 14.681-1 21Z"/><path fill="#209666" id="AId6a" d="M93 203h6c0-7.534-3.778-15 6-15l-1-8-15 5v1c0 6.587 4 11.437 4 17Z"/><path fill="#1F9766" id="AId6b" d="M106 189h1c0-1.242-1.019-9-2-9h-1l1 8 1 1ZM349 189h2c0-3.324 2-6.16 2-9h-2c0 3.324-2 6.16-2 9Z"/><path fill="#209666" id="AId6a" d="M357 202c1.564 0 3.876 1 6 1 0-5.159 5-10.921 5-17v-1c-5.305 0-10.084-5-15-5 0 2.84-2 5.676-2 9l3.5-2c6.005 3.003 2.5 10.471 2.5 15Z"/><path fill="#209665" id="AId5" d="M81 205h1c3.978 0 7.549-2 11-2 0-5.563-4-10.413-4-17-1.562 0-13 3.889-13 5 0 5.35 5 10.593 5 14Z"/><path fill="#209665" id="AId5" fill-rule="evenodd" d="M377 190c0 1.93 1.93 0 0 0m-14 13c3.741 0 7.636 2 12 2 0-4.158 6-9.037 6-14v-1c-4.899 0-8.727-4-13-4 0 6.079-5 11.841-5 17Z"/><path fill="#8ADA86" id="CLA" d="M109 200c0 3.927-2.151 9.674-7.5 7l-2.5-4c0-7.534-3.778-15 6-15l1 1 3 11ZM347 201c0 7.495 10 8.286 10 1 0-4.529 3.505-11.997-2.5-15l-3.5 2c0 1.219-3.474 12-4 12Z"/><path fill="#209666" id="AId6a" d="M109 200h1c0-4.06-3-7.303-3-11h-1l3 11ZM346 200l1 1c.526 0 4-10.781 4-12h-2l-3 11Z"/><path fill="#019C75" id="GU5" d="M377 190c0 1.93 1.93 0 0 0Z"/><path fill="#209765" id="AId2/3" d="m81 205-7 1c0-.578-5-8.797-5-11 0-2.879 4-1.993 4-4h3c0 5.35 5 10.593 5 14ZM375 205c1.296 0 7 .825 7 2 2.075 0 5-9.566 5-12 0-2.54-3-2.543-3-4h-3c0 4.963-6 9.842-6 14Z"/><path fill="#219765" id="AIp1" d="m75 218-5 2c0-5.72-9-15.696-9-23l4-2c0 8.24 10 14.939 10 23Z"/><path fill="#209865" id="AIp2/3" d="m78 217-3 1c0-8.061-10-14.76-10-23h4c0 2.203 5 10.422 5 11l4 11Z"/><path fill="#97D6F9" id="STR" d="m218 244-1 1c-3.359 0-12 8.739-12-4l-1-15c0-6.34 1.937-11.625-1-17.5l-4-4c-.534-1.069-1.629-2.435-3.5-1.5-2.507 1.254-4.482 7-4.5 7-2.275 0-3.514-1-6-1 0-2.747-.253-3-3-3l9-8c0 7.486 3 1.185 3-3l4 4.5 11.5 9.5c1.487 1.487 9.5 3.844 9.5 0l2-2-1 28-2 9Z"/><path fill="#209865" id="AIp2/3" d="m378 217 3 1c0-7.487 10-14.104 10-22v-1h-4c0 2.434-2.925 12-5 12 0 3.645-4 6.777-4 10Z"/><path fill="#97D6F9" id="STR" d="M252 235c-.873 0-1.444 11.472-4.5 13l-8.5-3c0-2.654-3-6.986-3-10 0-10.03-1-20.589-1-30l2 4c2.099 0 4.383 3.558 7.5 2l17.5-15c0 4.419 3 8.038 3 1l9 9c-3.212 0-2 1.288-2 3-3.159 0-4.806 1-7 1 0-9.849-8.74-7.019-12-.5-2.76 5.521 0 12.828 0 18.5-1.714 0-1 5.594-1 7Z"/><path fill="#219765" id="AIp1" d="M381 218c.671 0 5 1.328 5 2 1.732 0 9-19.557 9-23 0-1.579-2.855-1-4-1 0 7.896-10 14.513-10 22Z"/><path fill="#1F9866" id="AIv6a" d="M105 209h1c0-1.638 3.576-2 5-2 0-2.409-1-5.181-1-7h-1c0 3.927-2.151 9.674-7.5 7l-2.5-4h-6c0 2.759 4 5.795 4 9l8-3ZM351 209l8 3 4-9c-2.124 0-4.436-1-6-1 0 7.286-10 6.495-10-1l-1-1-1 2v4l5 3h1Z"/><path fill="#C8CBCC" id="ec" d="M343 210h1l1-4v-4c-1.434 0-2 6.448-2 8Z"/><path fill="#1F9865" id="AIv5" d="M89 214h3c0-.672 4.33-2 5-2 0-3.205-4-6.241-4-9-3.451 0-7.022 2-11 2l7 9Z"/><path fill="#80CDF8" id="ACB" d="M133 238c0 5.993 4 10.417 4 16l8.5 9c6.414 3.207 28.044-1.522 33-4 4.561-2.281 18.133-17.766 20.5-22.5l5-10.5c0-6.34 1.937-11.625-1-17.5l-4-4c-.534-1.069-1.629-2.435-3.5-1.5-2.507 1.254-4.482 7-4.5 7 0 3.067 1.376 3.748 0 6.5l-1.5 4.5c-10.837 10.837-14.504-12-4.5-12 0-2.747-.253-3-3-3-7.316 0-7.969 19.234-11.5 21l-9 6c-7.853 3.927-18.175 1-26.5 1 0 1.24-2 1.576-2 4ZM324 237c0 6.06-5 11.487-5 17l-3.5 4-5 5c-6.44 3.22-27.038-1.519-32-4-3.424-1.712-19.431-18.363-21.5-22.5-.749-1.499-1.808-8.5-4-8.5 0-5.672-2.76-12.979 0-18.5 3.26-6.519 12-9.349 12 .5v7.5c0 7.034 10.644 6.712 13 2 1.135-2.271-2.16-5.32-3-7l-3-3.5c0-1.712-1.212-3 2-3 8.016 0 7.733 20.117 15.5 24 10.08 5.04 19.207 5 31.5 5 2.215 0 1.519 2 3 2Z"/><path fill="#1F9865" id="AIv5" d="M365 214h2l8-9c-4.364 0-8.259-2-12-2l-4 9c.986 0 6 1.087 6 2Z"/><path fill="#219764" id="AIv2/3" d="M89 214c0 1.222-9.388 3-11 3l-4-11 7-1h1l7 9ZM367 214c0 .854 9.53 3 11 3 0-3.223 4-6.355 4-10 0-1.175-5.704-2-7-2l-8 9Z"/><path fill="#8AD987" id="CTXsp" d="M350 209c-2.124 0-4.436 1-6 1l1-4 5 3ZM106 209l7 1-2-3c-1.424 0-5 .362-5 2Z"/><path fill="#CBCBC7" id="aco" d="M185 209c2.486 0 3.725 1 6 1 0 3.067 1.376 3.748 0 6.5l-1.5 4.5c-10.837 10.837-14.504-12-4.5-12ZM272 209l3 3.5c.84 1.68 4.135 4.729 3 7-2.356 4.712-13 5.034-13-2V210c2.194 0 3.841-1 7-1Z"/><path fill="#99D2BD" id="OLF" d="M92 214c4.546 0 6.3 6 9 6v-6.5l4-3.5v-1l-8 3c-.67 0-5 1.328-5 2Z"/><path fill="#8AD987" id="CTXsp" d="m106 209-1 1v-1h1Z"/><path fill="#A0EE9C" id="EPd" d="M118 232h3l2-1.5-1-4.5-1-2-2-2v-1l-2-2v-1l-1-1v-1l-1-1v-1l-2-4-7-1-1 1-4 3.5v7.5l1 1 2 2 2 2 3 1 2 2h1l3 2h1l1 1h1ZM338 232h1l1-1h2l1-1 1-1h1l2-1 1-1h1l1-1 1-1h1l1-1 1-1 1-1v-1c0-2.609 1.264-4.971 0-7.5l-4-4.5h-1c-2.124 0-4.436 1-6 1l-1 1-2 4v1l-1 1-1 2-1 2-1 1-1 1-1 2-1 1-1 1c0 2.567 2 3.913 2 5h3Z"/><path fill="#99D2BD" id="OLF" d="M365 214c-5.972 0-9.59 7-10 7 0-2.609 1.264-4.971 0-7.5l-4-4.5 8 3c.986 0 6 1.087 6 2Z"/><path fill="#C8CBCC" id="ec" d="m343 211-2 4c0-1.424.362-5 2-5v1Z"/><path fill="#8AD987" id="CTXsp" d="m344 210-1 1v-1h1Z"/><path fill="#6ACAB9" id="PIR" d="m119 262 2 1c2.46 0 4.17-4 7-4l1-1c0-8.01 6.378-5.744 0-18.5-.908-1.815-11-6.476-11-7.5h-1l-1-1h-1c-1.238 0-3-.423-3-2h-1l-2-2-3-1-2-2-2-2-1-1v-1c-2.7 0-4.454-6-9-6h-3c0 1.222-9.388 3-11 3l-3 1-5 2c0 5.874 18.459 31 25 31 5.09 0 24 4.721 24 11ZM335 263h2c0-7.13 18.086-12 24-12 6.911 0 25-23.8 25-31 0-.672-4.329-2-5-2l-3-1c-1.47 0-11-2.146-11-3h-2c-5.972 0-9.59 7-10 7v1l-1 1-1 1-1 1h-1l-1 1-1 1h-1l-1 1-2 1h-1l-1 1-1 1h-2l-1 1h-1l-5.5 3-7.5 8.5c-3.062 6.123 4 12.593 4 15.5l6 4Z"/><path fill="#C8CBCC" id="ec" d="m115 215 1 1-1-1ZM341 216l-1 1 1-1ZM116 217l1 1-1-1ZM340 217l-1 2 1-2ZM117 219l2 2-2-2ZM339 219l-1 2 1-2Z"/><path fill="#99D2BD" id="OLF" d="m101 221 1 1-1-1Z"/><path fill="#8AD987" id="CTXsp" d="m338 221-1 1 1-1ZM119 222l2 2-2-2ZM337 222l-1 1 1-1Z"/><path fill="#99D2BD" id="OLF" d="m355 222-1 1 1-1Z"/><path fill="#8AD987" id="CTXsp" d="m336 223-1 2 1-2Z"/><path fill="#99D2BD" id="OLF" d="m104 224 2 2-2-2ZM353 224l-1 1 1-1Z"/><path fill="#8AD987" id="CTXsp" d="m335 225-1 1 1-1Z"/><path fill="#99D2BD" id="OLF" d="m351 225-1 1 1-1Z"/><path fill="#8AD987" id="CTXsp" d="M121 232h4l1-3-4-3 1 4.5-2 1.5Z"/><path fill="#A2B1D7" id="SI" d="m191 270-2 5c-8.847 0-35.603 2.948-41.5 0-4.925-2.462-9.359-6.359-13.5-10.5l-5-5.5v-1l8-4 8.5 9c6.414 3.207 28.044-1.522 33-4 4.561-2.281 18.133-17.766 20.5-22.5l5-10.5 1 15c-.372 0-3 9.943-3 11 0 5.12-8 9.888-8 14-1.712 0-3 2.571-3 4Z"/><path fill="#8AD987" id="CTXsp" d="m334 226-1 1 1-1Z"/><path fill="#99D2BD" id="OLF" d="m350 226-1 1 1-1ZM109 227l2 2-2-2Z"/><path fill="#8AD987" id="CTXsp" d="M331 232h4c0-1.087-2-2.433-2-5l-2 2-1 1 1 2Z"/><path fill="#99D2BD" id="OLF" d="m348 227-1 1 1-1Z"/><path fill="#A2B1D7" id="SI" d="m266 271 1 4c8.847 0 35.603 2.948 41.5 0 5.442-2.721 9.742-7.871 14-10l4.5-6c0-1.985-6.262-5-8-5l-3.5 4-5 5c-6.44 3.22-27.038-1.519-32-4-3.424-1.712-19.431-18.363-21.5-22.5-.749-1.499-1.808-8.5-4-8.5-1.714 0-1 5.594-1 7 0 6.236 2 11.483 2 17l2 2.5c1.429 2.857 7 10.3 7 12.5 1.747 0 2 .253 2 2v1l1 1Z"/><path fill="#99D2BD" id="OLF" d="m347 228-2 1 2-1ZM112 229l3 2c-1.238 0-3-.423-3-2Z"/><path fill="#97D6F9" id="STR" d="M135 234c0 1.24-2 1.576-2 4-2.605 0-3.957-6-8-6l1-3c1.936 0 5.554 5 9 5ZM331 229l-1 1 1-1Z"/><path fill="#99D2BD" id="OLF" d="m344 229-1 1 1-1Z"/><path fill="#97D6F9" id="STR" d="M321 235c2.215 0 1.519 2 3 2 3.042 0 3.173-5 7-5l-1-2-9 5Z"/><path fill="#99D2BD" id="OLF" d="m343 230-1 1 1-1ZM116 231l1 1-1-1ZM340 231l-1 1 1-1ZM137 254l-8 4c0-8.01 6.378-5.744 0-18.5-.908-1.815-11-6.476-11-7.5h7c4.043 0 5.395 6 8 6 0 5.993 4 10.417 4 16ZM327 259h2c0-2.907-7.062-9.377-4-15.5l7.5-8.5 5.5-3h-7c-3.827 0-3.958 5-7 5 0 6.06-5 11.487-5 17 1.738 0 8 3.015 8 5Z"/><path fill="#96A6D3" id="NDB" d="M244 271h1c3.792 0 16 8.233 16-2v-2c-1.995 0-12-7.547-12-10-4.155 0-10-8.428-10-12 0-2.654-3-6.986-3-10h-16l-2 9-1 1c0 4.177-5.489 12-10 12 0 2.247-8.664 10-11 10l-1 2c0 7.507 10.204 4 14 4 0-1.577 1.762-2 3-2l2-1 1-1 1-1 1-1v-1l3-3.5c1.362-2.725 3.19-14.5 8.5-14.5l3 4c2.584 2.584 7.5 11.509 7.5 15l1 1 2 1 2 2Z"/><path fill="#E64438" id="HY" d="M254 252c-3.383 0-5 1.617-5 5-4.155 0-10-8.428-10-12l8.5 3c3.056-1.528 3.627-13 4.5-13 0 6.236 2 11.483 2 17ZM202 252c3.383 0 5 1.617 5 5 4.511 0 10-7.823 10-12-3.359 0-12 8.739-12-4-.372 0-3 9.943-3 11ZM218 244l-1 1 1-1Z"/><path fill="#FE5446" id="AVPV" d="M218 267c4.09 0 7.376-5 10.5-5 1.426 0 5.992 5 10.5 5 0-3.491-4.916-12.416-7.5-15l-3-4c-5.31 0-7.138 11.775-8.5 14.5l-3 3.5 1 1Z"/><path fill="#CAC8C7" id="lot" d="m119 267-1 1c-2.777 0-4.162-3.831-6.5-5-3.251-1.626-16.5-8.591-16.5-12 5.09 0 24 4.721 24 11v5ZM337 266l2 2 4.5-4c2.836-1.418 17.5-10.92 17.5-13-5.914 0-24 4.87-24 12v3Z"/><path fill="#F2473B" id="LPO" d="m194 266 2 1c2.336 0 11-7.753 11-10 0-3.383-1.617-5-5-5 0 5.12-8 9.888-8 14ZM261 267h2c0-2.2-5.571-9.643-7-12.5l-2-2.5c-3.383 0-5 1.617-5 5 0 2.453 10.005 10 12 10Z"/><path fill="#99D2BD" id="OLF" d="M128 259h1v-1l-1 1Z"/><path fill="#7FCCF7" id="OT" d="M189 275c5.056 0 9 .163 9 6 0 8.882-9.482 10.991-15.5 14h-6c-17.114 8.557-40.691 4.118-49.5-13.5-1.396-2.792-7-6.282-7-10.5v-6l1-2c2.46 0 4.17-4 7-4h1l5 5.5c4.141 4.141 8.575 8.038 13.5 10.5 5.897 2.948 32.653 0 41.5 0ZM267 275c-4.434 0-9 .579-9 6 1.149 0 1.508 4.516 2 5.5 1.533 3.067 4.311 4.906 7.5 6.5 3.703 1.851 9.389.195 13 2 15.496 7.748 39.765 4.969 48.5-12.5 1.884-3.768 7-7.044 7-11.5l1-1v-3l-1-2-1-2-6-4h-2l-4.5 6c-4.258 2.129-8.558 7.279-14 10-5.897 2.948-32.653 0-41.5 0Z"/><path fill="#99D2BD" id="OLF" d="M119 265h1l1-2-2-1v3ZM336 265h1v-2h-2l1 2Z"/><path fill="#97D6F9" id="STR" d="m119 269 1 2v-6h-1v4ZM337 266v1l-1-2h1v1Z"/><path fill="#E64438" id="HY" d="m195 269-4 1c0-1.429 1.288-4 3-4l2 1-1 2ZM217 267h1l-1-1v1Z"/><path fill="#99D2BD" id="OLF" d="m339 268-2 1v-3l2 2ZM118 268l1 1v-2l-1 1Z"/><path fill="#E64438" id="HY" d="m217 267-1 1 1-1ZM239 267l1 1-1-1ZM261 269h4c0-1.747-.253-2-2-2h-2v2ZM216 268l-1 1 1-1Z"/><path fill="#8599CC" id="PAL" d="M189 275c5.056 0 9 .163 9 6l11-8c-3.796 0-14 3.507-14-4l-4 1-2 5ZM215 269l-1 1 1-1ZM242 269l2 2-2-2ZM267 275c-4.434 0-9 .579-9 6l-13-10c3.792 0 16 8.233 16-2h4v1l1 1 1 4Z"/><path fill="#E64438" id="HY" d="m265 270 1 1-1-1Z"/><path fill="#97D6F9" id="STR" d="m337 270-1 1 1-1Z"/><path fill="#8599CC" id="PAL" d="M212 271c-1.238 0-3 .423-3 2 1.238 0 3-.423 3-2Z"/><path fill="#CBCCC7" id="IIn" d="M215 275c0 2.167-6.767 5.033-8 7.5-1.953 3.907 4.445 7.027 7.5 5.5 7.842-3.921 14.647-13 .5-13ZM234 275c0 1.423-1.978 3.544-1 5.5 1.758 3.516 12.967 12.066 16 6 4.198-8.396-9.978-11.5-15-11.5Z"/></svg>