<svg xmlns="http://www.w3.org/2000/svg" viewBox="0 0 456 320"><path fill="#99D2BD" id="OLF" fill-rule="evenodd" d="M187 118c0 1.93 1.93 0 0 0m34 3v2l-8.5-6c-8.538-4.269-19.486 4-26.5 4 0-2.461.454-2-3-2 0-2.308 6.963-2.232 8.5-3 4.248-2.124 29.5-1.833 29.5 5Z"/><path fill="#99D2BD" id="OLF" d="M235 123c2.246 0 7.12-4.81 9.5-6 8.737-4.368 24.229 6 28.5 6 0-3.272-7.249-4 1-4 0-1.993-5.2-1.35-6.5-2-5.052-2.526-32.5-3.938-32.5 4v2Z"/><path fill="#9AD1BD" id="MOB" d="m173 129-1 1-3 3.5-4 4c-3.363 6.726-4 11.748-4 20 0 10.894 7.376 22.752 12 32 2.866 5.731 2.136 13.273 5 19 3.259 6.518.834 16.167 9.5 20.5 11.074 5.537 22.751-3.002 27.5-12.5 3.774-7.548 2.262-17.525 6-25v-11c2.038-4.076 6-28.931 6-34v-13c-1.131-2.261-6-8.238-6-10.5l-8.5-6c-8.538-4.269-19.486 4-26.5 4l-1 1-2 1h-1l-1 1-1 1h-1l-1 1-5 3ZM281 127l2 2c5.458 0 15.755 20.99 13 26.5-1.507 3.015-.508 7.016-2 10l-12 28-3 11c-2.984 5.968.732 18.884-10.5 24.5-12.172 6.086-22.892-4.284-27.5-13.5-7.875-15.749-2.777-42.555-10-57-2.108-4.216.163-10.675-2-15-3.6-7.2 6-15.76 6-20.5 2.246 0 7.12-4.81 9.5-6 8.737-4.368 24.229 6 28.5 6h1c0 1.428 4.822 4 6 4h1Z"/><path fill="#C7CBCA" id="onl" d="M187 118c0 1.93 1.93 0 0 0Z"/><path fill="#99D2BD" id="OLF" d="m181 119-1 1 1-1Z"/><path fill="#C7CBCA" id="onl" d="M160 221c0 3.724 3.481 4.463 5 7.5 4.841 9.682 6.054 7.777 15.5 12.5 4.412 2.206 8.343-5.328 13-3 5.302 2.651 11.321 3.839 17 1 5.332-2.666 12.042-14.584 14.5-19.5l3.5-14.5.5 3.5c0 2.084 1.027 8.054 2 10 1.789 3.578 11.192 18.846 14.5 20.5 5.568 2.784 11.887 1.557 17-1 3.911-1.956 8.875 3 12.5 3 7.144 0 22-12.755 22-20 0-3.261-4.071-8.358-2-12.5 6.302-12.604 6-30.444 6-45.5v-7c-1.714 0-1-5.594-1-7v-2c-1.473 0-1-1.952-1-3v-2l-1-2v-1l-4-7c0-3.364-12.331-11-15-11l-1-1h-1l-2-1h-1c-8.249 0-1 .728-1 4h1c1.178 0 6 2.572 6 4h1l2 2c5.458 0 15.755 20.99 13 26.5-1.507 3.015-.508 7.016-2 10l-12 28-3 11c-2.984 5.968.732 18.884-10.5 24.5-12.172 6.086-22.892-4.284-27.5-13.5-7.875-15.749-2.777-42.555-10-57-2.108-4.216.163-10.675-2-15-3.6-7.2 6-15.76 6-20.5v-2c-2.722 0-6.046 8-6.5 8l-2-4-3.5-3-1-1h-1v2c0 2.262 4.869 8.239 6 10.5v13c0 5.069-3.962 29.924-6 34v11c-3.738 7.475-2.226 17.452-6 25-4.749 9.498-16.426 18.037-27.5 12.5-8.666-4.333-6.241-13.982-9.5-20.5-2.864-5.727-2.134-13.269-5-19-4.624-9.248-12-21.106-12-32 0-8.252.637-13.274 4-20l4-4 3-3.5 1-1 5-3 1-1h1l1-1 1-1h1l2-1 1-1c0-2.461.454-2-3-2h-2l-1 1h-1l-1 1c-2.904 0-17 9.738-17 13l-1 2-1 1v2l-1 2-1 2v3c0 1.235.643 5-1 5v32.5c3.341 6.683 1.218 16.435 5 24 1.82 3.641-1 10.246-1 13.5Z"/><path fill="#99D2BD" id="OLF" d="m275 119 2 1-2-1ZM179 120l-1 1 1-1ZM278 120l1 1-1-1ZM186 121l-1 1 1-1ZM222 121l1 1-1-1ZM185 122l-2 1 2-1ZM182 123l-1 1 1-1ZM274 123c1.178 0 6 2.572 6 4-1.178 0-6-2.572-6-4ZM181 124l-1 1 1-1ZM179 125l-1 1 1-1ZM281 127l2 2-2-2ZM173 129l-1 1 1-1ZM294 132c1.948 0 4 5.428 4 7l-4-7ZM161 134l-1 2 1-2ZM160 136l-1 1 1-1ZM159 139l-1 2 1-2ZM298 140l1 2-1-2ZM158 141l-1 2 1-2ZM299 144c1.473 0 1 1.952 1 3-1.473 0-1-1.952-1-3ZM157 146c-1.643 0-1 3.765-1 5 1.643 0 1-3.765 1-5ZM300 149c1.714 0 1 5.594 1 7-1.714 0-1-5.594-1-7ZM156 152c-1.643 0-1 3.765-1 5l-1 15.5c-2.517 5.033-9.17 29.661-6 36l3 3c1.12 2.241 5.734 9.5 9 9.5 0-3.254 2.82-9.859 1-13.5-3.782-7.565-1.659-17.317-5-24V152ZM301 163c1.844 0 1.144 11.788 2 13.5 1.853 3.706 8.058 26.884 6 31l-4 4c-1.032 2.064-4.726 9.5-8 9.5 0-3.261-4.071-8.358-2-12.5 6.302-12.604 6-30.444 6-45.5Z"/></svg>