<svg xmlns="http://www.w3.org/2000/svg" viewBox="0 0 456 320"><path fill="#1E9C59" id="MOs1" d="M222 53h1l4-2c0-2.927-3.414-5.914-5.5-8-12.054-12.054-18.331-9-33.5-9v5c9.737 0 24.664-3.172 30 7.5 1.319 2.638 4 3.261 4 6.5ZM229 51l5 2 3-4.5c6.323-12.646 20.577-9.5 32-9.5v-5c-15.308 0-21.445-3.055-33 8.5l-7 8.5Z"/><path fill="#1E9D5A" id="MOp1" d="M141 46v5c11.444 0 33.483-12 47-12v-5c-7.125 0-30.737 4.118-36.5 7-2.661 1.33-7.528 4-10.5 4v1ZM315 47l1 4c-4.269 0-8.878-2.189-12.5-4L269 39v-5c6.538 0 30.174 4.337 35.5 7 2.661 1.33 7.528 4 10.5 4v2Z"/><path fill="#1E9D58" id="MOs2/3" d="m222 53-6 4c0-14.397-25.377-5-30-5 0-3.991 2-9.158 2-13 9.737 0 24.664-3.172 30 7.5 1.319 2.638 4 3.261 4 6.5ZM240 57h1c0-14.59 23.398-5 29-5l-1-13c-11.423 0-25.677-3.146-32 9.5l-3 4.5 6 4Z"/><path fill="#1F9C58" id="MOp2/3" d="m140 68-1 7c2.357 0 32.868-15.684 37.5-18 2.576-1.288 6.629-5 9.5-5 0-3.991 2-9.158 2-13-13.517 0-35.556 12-47 12l-1 1v16ZM317 68v7c-8.397 0-35.176-22-46-22l-1-1-1-13 34.5 8c3.622 1.811 8.231 4 12.5 4 0 6.086 1 12.32 1 17Z"/><path fill="#197E64" id="SSp-ul1" d="M104 69h1l8.5-5c7.22-3.61 18.223-12 26.5-12l1-1v-5l-1-1c-7.472 0-21.592 9.546-28.5 13-1.626.813-9.5 4.09-9.5 6l2 5Z"/><path fill="#187F60" id="SSp-ll1" d="M141 45v1l-1-1h1ZM316 45l-1 2v-2h1Z"/><path fill="#197E64" id="SSp-ul1" d="M352 69h1l1-6c-3.371 0-6.579-4.54-9.5-6-6.177-3.088-22.023-12-28.5-12l-1 2 1 4c5.165 0 33.886 18 36 18Z"/><path fill="#1F9D58" id="MOs5" d="M203 68c-3.138 0-8.309-4.096-12.5-2-2.263 1.132-4.862 4-7.5 4 0-6.552 3-11.688 3-18 4.623 0 30-9.397 30 5-4.896 0-8.47 11-13 11ZM254 69c0-2.067 3.916-3 5.5-3 5.914 0 9.574 4 14.5 4 0-5.886-3-10.85-3-17l-1-1c-5.602 0-29-9.59-29 5 0 4.048 12 7.04 12 12h1Z"/><path fill="#197F61" id="SSp-ul2/3" d="m141 51-1 1 1-1Z"/><path fill="#3EA665" id="ACAd1" d="M223 79h10c0-8.141 1-17.261 1-26l-5-2c0 3.746-.8 0-2 0l-4 2v26Z"/><path fill="#197F61" id="SSp-ul2/3" d="M346 81h1c0-4.656 5-7.439 5-12-2.114 0-30.835-18-36-18 0 6.086 1 12.32 1 17l22.5 8 6.5 5ZM110 81h1c0-2.768 25.33-13 29-13V52c-8.277 0-19.28 8.39-26.5 12l-8.5 5 5 12Z"/><path fill="#1E9C5A" id="MOp5" d="M139 76c1.101 0 1 9.793 1 13 6.246 0 22.686-7.093 28.5-10 3.987-1.994 8.929-8 13.5-8l1-1c0-6.552 3-11.688 3-18-2.871 0-6.924 3.712-9.5 5-4.632 2.316-35.143 18-37.5 18v1Z"/><path fill="#40A565" id="ACAd2/3" d="m223 79-6 1c0-7.564-1-16.113-1-23l6-4h1v26ZM233 79l6 1c0-7.62 1-16.035 1-23l-6-4c0 8.739-1 17.859-1 26Z"/><path fill="#1E9C5A" id="MOp5" d="M317 75v15c-8.808 0-38.455-19-43-19v-1c0-5.886-3-10.85-3-17 10.824 0 37.603 22 46 22Z"/><path fill="#3EA566" id="ACAd5" d="M217 81c-4.654 0-9.598 6-12 6 0-6.365-2-12.504-2-18v-1c4.53 0 8.104-11 13-11 0 6.887 1 15.436 1 23v1ZM239 80l12 6 2-17c0-4.96-12-7.952-12-12h-1c0 6.965-1 15.38-1 23Z"/><path fill="#1B8062" id="SSp-un1" d="m353 69 1 2 4-5-4-3-1 6ZM102 71h1l1-2-2-5-4 3c2.226 0 4 1.774 4 4Z"/><path fill="#1D9C5A" id="MOs6a" d="M181 93h2c0-2.639 6.032-3 8-3 0-2.97 9.827-21 12-21v-1c-3.138 0-8.309-4.096-12.5-2-2.263 1.132-4.862 4-7.5 4l-1 1c0 7.056-1 14.442-1 22ZM266 90c3.42 0 6.14 3 9 3 0-5.125 1-7.394 1-12.5 0-2.604-2-6.767-2-9.5v-1c-4.926 0-8.586-4-14.5-4-1.584 0-5.5.933-5.5 3 0 2.68 11 14.211 11 21h1Z"/><path fill="#187E61" id="SSp-m1" d="m403 132-5 2c0-13.66-18.316-46.908-30.5-53-3.144-1.572-9.104-10-13.5-10l4-5c4.074 0 8.7 7.6 11.5 9 14.045 7.023 33.5 42.69 33.5 57ZM58 134h1c0-13.154 17.974-47.237 29.5-53 3.754-1.877 9.39-10 13.5-10 0-2.226-1.774-4-4-4-5.285 0-8.989 7.744-13.5 10-11.596 5.798-20.181 24.863-26.5 37.5l-3 13-2 4.5 5 2Z"/><path fill="#1A7F63" id="SSp-ul4" d="M111 81c0 2.945 4 5.478 4 7 5.559 0 16.421-12 24-12v-1l1-7c-3.67 0-29 10.232-29 13ZM346 81c0 2.919-4 4.243-4 7-8.556 0-16.364-13-25-13v-7l22.5 8 6.5 5Z"/><path fill="#1C7F63" id="SSp-un2/3" d="M109 81h1l-5-12h-1l-1 2c0 3.794 6 6.572 6 10Z"/><path fill="#3FA664" id="ACAd6a" d="M195 95h1l9-8c0-6.365-2-12.504-2-18-2.173 0-12 18.03-12 21 1.811 0 4 3.438 4 5ZM265 91c-1.923 0-4 2.104-4 4l-10-8v-1l2-17h1c0 2.68 11 14.211 11 21v1Z"/><path fill="#1C7F63" id="SSp-un2/3" d="m354 71-7 10c0-4.656 5-7.439 5-12h1l1 2Z"/><path fill="#1A7E64" id="SSp-m2/3" d="M59 134c0 2.078 7.211 4 9 4 0-12.912 12.168-33.668 21.5-43L109 81c0-3.428-6-6.206-6-10h-1c-4.11 0-9.746 8.123-13.5 10C76.974 86.763 59 120.846 59 134Z"/><path fill="#1F9B5A" id="MOp6a" d="M167 99c-9.656 0-17.362 10-27 10V89c6.246 0 22.686-7.093 28.5-10 3.987-1.994 8.929-8 13.5-8 0 7.056-1 14.442-1 22-2.177 0-14 3.87-14 6ZM275 93c10.719 0 30.877 16 41 16 0-5.83 1-11.698 1-19-8.808 0-38.455-19-43-19 0 2.733 2 6.896 2 9.5 0 5.106-1 7.375-1 12.5Z"/><path fill="#1A7E64" id="SSp-m2/3" d="M388 138h1l9-3v-1c0-13.66-18.316-46.908-30.5-53-3.144-1.572-9.104-10-13.5-10l-7 10 5.5 3 14 11c10.747 10.747 21.5 27.908 21.5 43Z"/><path fill="#187E62" id="SSp-ul5" d="M317 90c6.296 0 11.948 8 18 8l7-9v-1c-8.556 0-16.364-13-25-13v15ZM140 90c-6.982 0-12.349 8-19 8-1.395 0-6-8.42-6-10 5.559 0 16.421-12 24-12 1.101 0 1 9.793 1 13v1Z"/><path fill="#3FA566" id="ACAv2/3" d="m221 114-3 1c0-11.45-1-23.123-1-34v-1l6-1c0 10.68-1 21.946-1 32l-1 3Z"/><path fill="#40A664" id="ACAv1" d="M229 106c3.448 0 2.91 5 5 5 0-10.355-1-21.128-1-32h-10c0 10.68-1 21.946-1 32l5-5c0-3.654 2-3.654 2 0Z"/><path fill="#3FA566" id="ACAv2/3" d="m235 113 3 2c0-11.024 1-23.34 1-35l-6-1c0 10.872 1 21.645 1 32l1 2Z"/><path fill="#3EA666" id="ACAv5" d="M247 111c-2.759 0-5.795 4-9 4 0-11.024 1-23.34 1-35l12 6v12.5l-4 12.5Z"/><path fill="#1B7F62" id="SSp-m4" d="m68 139 5 2c0-10.113 21.704-41.102 31.5-46l10.5-7c0-1.522-4-4.055-4-7h-2L89.5 95c-9.332 9.332-21.5 30.088-21.5 43v1Z"/><path fill="#3EA666" id="ACAv5" d="M209 111c2.705 0 6.038 4 9 4 0-11.45-1-23.123-1-34-4.654 0-9.598 6-12 6 0 8.847 4 15.992 4 24Z"/><path fill="#1B7F62" id="SSp-m4" d="M388 138c0 2.393-3.234 3-5 3 0-9.345-18.114-38.307-25.5-42-4.94-2.47-9.755-10-15.5-10v-1c0-2.757 4-4.081 4-7h1l5.5 3 14 11c10.747 10.747 21.5 27.908 21.5 43Z"/><path fill="#40A564" id="ACAv6a" d="m207 110 2 1c0-8.008-4-15.153-4-24l-9 8c0 6.373 10 8.862 10 14l1 1ZM249 110l-2 1 4-12.5V87l10 8v1l-2.5 3c-1.757 1.757-8.5 7.911-8.5 10l-1 1Z"/><path fill="#1B7E63" id="SSp-m5" d="M84 146h1c0-15.219 19.692-47 36-47v-1c-1.395 0-6-8.42-6-10l-10.5 7C94.704 99.898 73 130.887 73 141c3.207 0 7.6 5 11 5ZM383 142c-4.101 0-7.386 4-11 4 0-14.554-20.64-47-37-47v-1l7-9c5.745 0 10.56 7.53 15.5 10 7.386 3.693 25.5 32.655 25.5 42v1Z"/><path fill="#197D61" id="SSp-ul6a" d="M140 110c-3.47 0-6.007 4-9 4l-2-2.5c-1.028-2.056-5.559-12.5-8-12.5v-1c6.651 0 12.018-8 19-8v20Z"/><path fill="#1E9C58" id="MOs6b" d="m191 91-8 2c0-2.639 6.032-3 8-3v1Z"/><path fill="#3FA466" id="ACAd6b" d="m191 91 4 4c0-1.562-2.189-5-4-5v1ZM265 91h1v-1h-1v1Z"/><path fill="#1E9C58" id="MOs6b" d="M275 93v1c-3.391 0-5.353-3-9-3v-1c3.42 0 6.14 3 9 3Z"/><path fill="#197D61" id="SSp-ul6a" d="M325 114h1c0-3.676 4.305-6.11 6-9.5.889-1.777 2.642-5.5 3-5.5v-1c-6.052 0-11.704-8-18-8 0 7.302-1 13.17-1 19v1c1.628 0 9 2.347 9 4Z"/><path fill="#CACCC7" id="cing" d="m206 109 1 1c-9.486 0-11.912-10.206-19.5-14-5.272-2.636-12.66 5-17.5 5l-1 1h-6l4-3c3.856 0 7.268-2.384 10.5-4 1.046-.523 3.5.951 3.5-1l2-1 8-2 4 4c0 3.805 6.424 14 11 14Z"/><path fill="#3FA466" id="ACAd6b" d="M261 95v1l4-5c-1.923 0-4 2.104-4 4Z"/><path fill="#CACCC7" id="cing" d="m250 109-1 1c9.82 0 11.941-10.22 19.5-14 5.642-2.82 13.357 5 18.5 5 1.819 0 4.591 1 7 1l-15.5-7c-1.046-.523-3.5.951-3.5-1-3.391 0-5.353-3-9-3h-1l-4 5c0 3.786-6.706 13-11 13Z"/><path fill="#1D9D5A" id="MOp6b" d="M181 94c0 1.951-2.454.477-3.5 1-3.232 1.616-6.644 4-10.5 4 0-2.13 11.823-6 14-6v1Z"/><path fill="#1E9C58" id="MOs6b" d="m183 93-2 1v-1h2Z"/><path fill="#1D9D5A" id="MOp6b" d="M316 110v1c-7.46 0-14.289-9-22-9l-15.5-7c-1.046-.523-3.5.951-3.5-1v-1c10.719 0 30.877 16 41 16v1Z"/><path fill="#40A465" id="ACAv6b" d="M196 95c0 6.373 10 8.862 10 14-4.576 0-11-10.195-11-14h1Z"/><path fill="#C9C7C9" id="ccb" d="M358 165h1l-2-7c-1.577 0-2-1.762-2-3v-2l-5-9.5c-3.909-7.818-12.952-20.226-21.5-24.5-10.038-5.019-21.039-8.02-31-13-1.848-.924-10.5-2.397-10.5-5-5.143 0-12.858-7.82-18.5-5-7.559 3.78-9.68 14-19.5 14l-2 1c-2.759 0-5.795 4-9 4l-3-2c0 3.21-7.807 2-10 2-1.145 0-4 .579-4-1l-3 1c-2.962 0-6.295-4-9-4l-2-1c-9.486 0-11.912-10.206-19.5-14-5.272-2.636-12.66 5-17.5 5l-1 1h-1c0 1.607-8.043 3.271-9.5 4L131 117l-14 11c0 1.562-2.189 5-4 5 0 1.429-1.288 4-3 4 0 1.238-1.923 5-3 5 0 1.238-.423 3-2 3v1l-2 4v1l-1 1v1l-1 1v1l-1 2v1l-1 1v4c1.586 0 4.223-8.945 5-10.5 3.824-7.649 10.519-22.009 19.5-26.5l22-11c4.805-2.402 11.154-1.577 16-4 5.277-2.639 16.457 1 21.5 1 0-1.156 2.555-1.472 3.5-1 1.992.996 11.5 5.645 11.5 8h1l1 1c1.442 0 6 3.274 6 5 6.31 0 13.501 4 16 4 2.442 0 5.118-2 6.5-2l1 2h5.5c0-3.905 13.894-4 16-4 0-1.797 2.203-4 4-4l1-1 1-1h1l1-1 2-1c0-2.644 12-7.854 12-5 5.328 0 16.991-3.755 22.5-1 2.716 1.358 6.388.694 9 2 7.744 3.872 16.207 6.104 24 10l8 6c5.381 2.691 14.812 21.125 17.5 26.5.736 1.472 2.483 9.5 4 9.5Z"/><path fill="#40A465" id="ACAv6b" d="m261 96-2.5 3c-1.757 1.757-8.5 7.911-8.5 10 4.294 0 11-9.214 11-13Z"/><path fill="#187D61" id="SSp-m6a" d="M99 153h1c0-2.381 4.3-14 7-14 0-1.664 1.823-6 4-6 0-4.658 15.594-18 20-18v-1l-2-2.5c-1.028-2.056-5.559-12.5-8-12.5-16.308 0-36 31.781-36 47 0 1.771 14 5.482 14 7Z"/><path fill="#1D9D5A" id="MOp6b" d="M140 110v1c7.975 0 14.864-9 23-9l4-3c-9.656 0-17.362 10-27 10v1Z"/><path fill="#187D61" id="SSp-m6a" d="m372 147-15 5-10-18.5-14.5-15.5c-1.426-.713-6.5-1.764-6.5-4 0-3.676 4.305-6.11 6-9.5.889-1.777 2.642-5.5 3-5.5 16.36 0 37 32.446 37 47v1Z"/><path fill="#C9C9CA" id="scwm" d="m170 101-1 1 1-1ZM325 115c0 1.937 9.087 6.587 11 8.5 6.025 6.025 19 21.589 19 29.5l-5-9.5c-3.909-7.818-12.952-20.226-21.5-24.5-10.038-5.019-21.039-8.02-31-13-1.848-.924-10.5-2.397-10.5-5 1.819 0 4.591 1 7 1 7.711 0 14.54 9 22 9l9 4ZM131 115v2l27.5-11c1.457-.729 9.5-2.393 9.5-4h-5c-8.136 0-15.025 9-23 9l-9 4Z"/><path fill="#7ED04B" id="IG" d="M235 113c0 3.21-7.807 2-10 2-1.145 0-4 .579-4-1l1-3 5-5c.839 0 2 1.93 2 0 3.448 0 2.91 5 5 5l1 2Z"/><path fill="#1C8064" id="SSp-ul6b" d="M131 114v1l9-4v-1c-3.47 0-6.007 4-9 4ZM325 114v1l-9-4v-1c1.628 0 9 2.347 9 4Z"/><path fill="#98D5F9" id="CP" d="M131 236h1c0-1.473 1.952-1 3-1 9.753 0 32.817.865 37-7.5l5-5.5c0-5.501 5.279-25.89 9.5-28l3.5-6c0-5.046 1-11.325 1-17l2-16v-4c0-7.75 1.24-18.02-2-24.5l-5-11.5-3-3c-5.043 0-16.223-3.639-21.5-1-4.846 2.423-11.195 1.598-16 4l-22 11c-8.981 4.491-15.676 18.851-19.5 26.5-.777 1.555-3.414 10.5-5 10.5 0 1.048.473 3-1 3v1l-1 2v5c0 12.864 7 23.009 7 35l7 14 8 7 1 1h1l10 5Z"/><path fill="#AAA8A9" id="SEZ" d="M186 115c0-3.214 10.72 4 12 4 0-2.355-9.508-7.004-11.5-8-.945-.472-3.5-.156-3.5 1l3 3ZM271 115c-4.741 0-6.497 2-10 2 0-2.644 12-7.854 12-5l-2 3Z"/><path fill="#98D5F9" id="CP" d="M324 236h1c0-.473 8.784-4 10-4l1-1 1-1 2-1 6-6 1-1 6-12 1-1v-1c0-7.481 2.81-17.12 6-23.5V167l-1-2c-1.517 0-3.264-8.028-4-9.5-2.688-5.375-12.119-23.809-17.5-26.5l-8-6c-7.793-3.896-16.256-6.128-24-10-2.612-1.306-6.284-.642-9-2-5.509-2.755-17.172 1-22.5 1l-2 3c0 2.976-4.588 9.675-6 12.5-2.812 5.624-2 14.764-2 21.5v7l1 1 1 16v8l1 6 3.5 6c6.221 6.221 9.5 20.226 9.5 29l3 3.5c3.151 3.151 5.881 5.691 9.5 7.5 5.994 2.997 21.881 2 29.5 2 1.048 0 3-.473 3 1Z"/><path fill="#A8AAAA" id="VL" d="m195 148-2 3c0-7.75 1.24-18.02-2-24.5l-5-11.5c0-3.214 10.72 4 12 4h1l1 1c1.442 0 6 3.274 6 5-3.253 0-11 18.919-11 23ZM262 147l1 2c0-6.736-.812-15.876 2-21.5 1.412-2.825 6-9.524 6-12.5-4.741 0-6.497 2-10 2l-2 1-1 1h-1l-1 1-1 1c-1.797 0-4 2.203-4 4 0 3.052 11 14.944 11 22Z"/><path fill="#188064" id="SSp-m6b" d="M355 153h2v-1l-10-18.5-14.5-15.5c-1.426-.713-6.5-1.764-6.5-4h-1v1c0 1.937 9.087 6.587 11 8.5 6.025 6.025 19 21.589 19 29.5ZM111 133h2c0-1.562 2.189-5 4-5 0-4.268 10.34-11 14-11v-2c-4.406 0-20 13.342-20 18Z"/><path fill="#C9C9CA" id="scwm" d="M131 117c-3.66 0-14 6.732-14 11l14-11Z"/><path fill="#AAA8A9" id="SEZ" d="m261 117-2 1 2-1ZM259 118l-1 1 1-1ZM199 119l1 1-1-1ZM257 119l-1 1 1-1ZM256 120l-1 1 1-1Z"/><path fill="#90CBEC" id="LSc" d="m195 148 3 1 4.5-4c3.997-1.999 19.5-8.867 19.5-14v-2c-2.499 0-9.69-4-16-4-3.253 0-11 18.919-11 23ZM262 147c-1.24 0-1.576 2-4 2l-5.5-5c-3.926-1.963-17.5-7.376-17.5-13v-2c0-3.905 13.894-4 16-4 0 3.052 11 14.944 11 22Z"/><path fill="#97D6F9" id="STR" d="M222 131h13v-2h-5.5l-1-2c-1.382 0-4.058 2-6.5 2v2Z"/><path fill="#C9C9CA" id="scwm" d="M117 128c-1.811 0-4 3.438-4 5 1.811 0 4-3.438 4-5Z"/><path fill="#90CAED" id="LSr" d="M237 191v3l7.5-8 15-13 4.5 1 1-1-1-16-1-1v-1l-5-6-5.5-5c-3.926-1.963-17.5-7.376-17.5-13h-13c0 5.133-15.503 12.001-19.5 14l-4.5 4c0 1.442-3.274 6-5 6l-2 16c1.579 0 1 2.855 1 4 1.317 0 1.788-3.356 4.5-2l15 12 7.5 8 1-2v-4l1-2v-6l1-2v-4l1-1v-6l1-1v-3l1-1v-4l1-2c0-1.145-.579-4 1-4 0-1.145-.579-4 1-4 0-3.873 1 .08 1 2l1 2 1 5v3l1 1v3l1 1v6l1 1v4l1 1 1 11c1.579 0 1 2.855 1 4Z"/><path fill="#1A7E62" id="SSs1" d="m53 176-4 1c-2.076 0-2-8.928-2-11v-16.5l6-17.5 5 2-6 21.5c-2.576 5.152 1 15.467 1 20.5ZM403 176l5 1c0-5.631 3.565-24.37 1-29.5l-6-15.5-5 2v1c2.08 0 2.183 8.867 3 10.5 2.184 4.368 6.812 17.377 4 23-.805 1.61-2 5.802-2 7.5Z"/><path fill="#188064" id="SSp-m6b" d="m110 137-3 2c0-1.664 1.823-6 4-6l-1 4Z"/><path fill="#C9C9CA" id="scwm" d="M113 133c0 1.429-1.288 4-3 4l1-4h2Z"/><path fill="#1B8063" id="SSs2/3" d="m63 175-10 1c0-5.033-3.576-15.348-1-20.5l6-21.5h1c0 2.078 7.211 4 9 4v1l-3 10.5c-2.384 4.769-2 19.142-2 25.5ZM394 175l9 1c0-1.698 1.195-5.89 2-7.5 2.812-5.623-1.816-18.632-4-23-.817-1.633-.92-10.5-3-10.5l-9 3c0 12.635 5 23.569 5 37Z"/><path fill="#C9C9CA" id="scwm" d="M107 139v3c1.077 0 3-3.762 3-5l-3 2Z"/><path fill="#187C63" id="SSs4" d="M393 175h1c0-13.431-5-24.365-5-37h-1c0 2.393-3.234 3-5 3v1c2.729 0 1.254 5.007 2 6.5 3.298 6.597 4 17.768 4 25.5l4 1ZM65 175h1l1-1h1c0-6.082.776-24.051 3-28.5l2-4.5-5-2-3 10.5c-2.384 4.769-2 19.142-2 25.5h2Z"/><path fill="#188064" id="SSp-m6b" d="M101 153h1v-1l1-1v-1c0-1.465-.109-4 2-4v-1c0-1.238.423-3 2-3v-3c-2.7 0-7 11.619-7 14h1Z"/><path fill="#1C8063" id="SSs5" d="m81 172-13 2c0-6.082.776-24.051 3-28.5l2-4.5c3.207 0 7.6 5 11 5 0 8.601-3 16.574-3 26Z"/><path fill="#C9C9CA" id="scwm" d="M107 142c-1.577 0-2 1.762-2 3 1.577 0 2-1.762 2-3Z"/><path fill="#1C8063" id="SSs5" d="M388 174h1c0-7.732-.702-18.903-4-25.5-.746-1.493.729-6.5-2-6.5-4.101 0-7.386 4-11 4v1c2.144 0 .381 4.262 1 5.5 2.466 4.931 3 13.781 3 19.5 3.459 0 8.607 2 12 2Z"/><path fill="#97D6F9" id="STR" d="m228 147 1 2c0-1.92-1-5.873-1-2Z"/><path fill="#197D63" id="SSs6a" d="m95 171-14 1c0-9.426 3-17.399 3-26h1c0 1.771 14 5.482 14 7 0 5.953-4 11.07-4 17v1Z"/><path fill="#C9C9CA" id="scwm" d="M105 146c-2.109 0-2 2.535-2 4l2-4Z"/><path fill="#8FCBEC" id="SF" d="M227 151h3l-1-2-1-2c-1.579 0-1 2.855-1 4Z"/><path fill="#97D6F9" id="STR" d="M263 149v6l-5-6c2.424 0 2.76-2 4-2l1 2Z"/><path fill="#197D63" id="SSs6a" d="m361 171 15 1c0-5.719-.534-14.569-3-19.5-.619-1.238 1.144-5.5-1-5.5l-15 5v1c0 5.761 4 10.717 4 17v1Z"/><path fill="#97D6F9" id="STR" d="M193 151v4c1.726 0 5-4.558 5-6l-3-1-2 3Z"/><path fill="#C9C9CA" id="scwm" d="m103 151-1 1 1-1Z"/><path fill="#97D6F9" id="STR" d="m226 155 2.5-2 2.5 3-1-5h-3c-1.579 0-1 2.855-1 4Z"/><path fill="#1A8061" id="SSs6b" d="M95 170h2v-1l1-2v-1c0-1.048-.473-3 1-3v-4l1-1v-1l1-2v-2h-2c0 5.953-4 11.07-4 17Z"/><path fill="#C9C9CA" id="scwm" d="m102 153-1 1v-1h1Z"/><path fill="#96A7D3" id="MS" d="m226 233 2.5-4c1.224 0-.581 4 2.5 4l2-2 3-12 1-14v-14c-1.579 0-1-2.855-1-4l-1-11-1-1v-4l-1-1v-6l-1-1v-3l-1-1v-3l-2.5-3-2.5 2-1 2v4l-1 1v3l-1 1v6l-1 1v4l-1 2v6l-1 2v4c0 1.824.781 12-1 12v3c0 4.504 2 9.733 2 14 0 2.722 1.859 13 5 13Z"/><path fill="#1A8061" id="SSs6b" d="M359 170h2c0-6.283-4-11.239-4-17h-2v2l2 3 2 7v5Z"/><path fill="#C9C9CA" id="scwm" d="m101 155-1 2 1-2Z"/><path fill="#97D6F9" id="STR" d="m226 155-1 2 1-2Z"/><path fill="#C9C9CA" id="scwm" d="m355 155 2 3c-1.577 0-2-1.762-2-3Z"/><path fill="#97D6F9" id="STR" d="m263 156 1 1-1-1Z"/><path fill="#C9C9CA" id="scwm" d="m100 158-1 1 1-1Z"/><path fill="#97D6F9" id="STR" d="m231 159 1 1-1-1ZM225 161l-1 1 1-1Z"/><path fill="#C9C7C9" id="ccb" d="M99 163c-1.473 0-1 1.952-1 3 1.473 0 1-1.952 1-3Z"/><path fill="#97D6F9" id="STR" d="m232 163 1 1-1-1ZM224 165l-1 1 1-1Z"/><path fill="#C8CBCC" id="ec" d="M359 165v2l-1-2h1ZM98 167l-1 2 1-2Z"/><path fill="#019C74" id="GU6b" d="m97 186-2 1v-17h2v4c-2.857 0 0 10.88 0 12Z"/><path fill="#97D6F9" id="STR" d="m233 170 1 1-1-1Z"/><path fill="#019C74" id="GU6b" d="M360 187h1c0-2.493 2-6.164 2-8.5 0-1.829-2-5.63-2-7.5v-1h-2v1c3.348 0 1 14.079 1 16Z"/><path fill="#009B74" id="GU6a" d="M82 192h2c0-2.819 9-5 11-5v-16l-14 1c0 6.836 1 13.704 1 20Z"/><path fill="#A8AAAA" id="VL" d="M190 188c0 2.868 2 5.427 2 1v-14c0-1.145.579-4-1-4 0 5.675-1 11.954-1 17Z"/><path fill="#C8CBCC" id="ec" d="M353 208h1l1-2v-2c0-1.623.005-6 2-6v-2l1-2 1-2v-1l1-4c0-1.921 2.348-16-1-16v13.5c-3.19 6.38-6 16.019-6 23.5Z"/><path fill="#009B74" id="GU6a" d="M372 192h2c0-6.356 2-13.086 2-20l-15-1c0 1.87 2 5.671 2 7.5 0 2.336-2 6.007-2 8.5 2.134 0 11 2.081 11 5Z"/><path fill="#019C75" id="GU5" d="M69 195h1c3.981 0 7.629-2 12-2v-1c0-6.296-1-13.164-1-20l-13 2c0 3.612-2.942 10.615-1 14.5 1.07 2.14 2 3.887 2 6.5Z"/><path fill="#97D6F9" id="STR" d="m223 172-1 1 1-1Z"/><path fill="#019C75" id="GU5" d="m374 192 13 3 2-4.5V175l-1-1c-3.393 0-8.541-2-12-2 0 6.914-2 13.644-2 20Z"/><path fill="#8FCBED" id="LSv" d="M219 203v3l-3.5 3c-2.434-1.217-12.864-10-14.5-10l-6-5-3-5v-14c1.317 0 1.788-3.356 4.5-2l15 12 7.5 8v10ZM251 203c-4.151 0-7.029 6-10.5 6l-3.5-4v-11l7.5-8 15-13 4.5 1 1 2v5c-1.763 0-1 8.343-1 10l-2 3-1 1-8 6-1 1-1 1Z"/><path fill="#A8AAAA" id="VL" d="m264 174 1 2v-3l-1 1Z"/><path fill="#11AC82" id="VISC4" d="m67 174-1 1 1-1Z"/><path fill="#009C74" id="GU4" d="M67 195h2c0-2.613-.93-4.36-2-6.5-1.942-3.885 1-10.888 1-14.5h-1l-1 1h-1l-2 1v1c0 6.484 4 11.779 4 18Z"/><path fill="#C8CBCC" id="ec" d="M103 209h1c0-11.991-7-22.136-7-35-2.857 0 0 10.88 0 12v5l2 4v1c1.931 0 2 6.225 2 8l1 2 1 3Z"/><path fill="#12AD82" id="VISC5" d="M389 174v1l-1-1h1Z"/><path fill="#11AC82" id="VISC4" d="M393 175v1l-4-1v-1l4 1Z"/><path fill="#12AC83" id="VISC2/3" d="M63 177c-3.447 0-6.245 2-9 2l-1-3 10-1v2Z"/><path fill="#11AC82" id="VISC4" d="m65 175-2 1v-1h2Z"/><path fill="#97D6F9" id="STR" d="m234 175 1 1-1-1Z"/><path fill="#009C74" id="GU4" d="M387 195h2c0-6.185 4-11.928 4-19l-4-1v15.5l-2 4.5Z"/><path fill="#12AC83" id="VISC2/3" d="M403 176v3l-10-3v-1h1l9 1Z"/><path fill="#12AD83" id="VISC1" d="m54 179-4 2c-1.58 0-1-2.855-1-4l4-1 1 3Z"/><path fill="#009B75" id="GU2/3" d="M389 195c2.338 0 4.862 2 8 2l6-18-10-3c0 7.072-4 12.815-4 19Z"/><path fill="#12AD83" id="VISC1" d="m403 179 4 2 1-4-5-1v3Z"/><path fill="#009B75" id="GU2/3" d="M59 197h1c2.765 0 5.165-2 7-2 0-6.221-4-11.516-4-18-3.447 0-6.245 2-9 2 0 6.529 5 11.754 5 18Z"/><path fill="#97D6F9" id="STR" d="m222 177-1 2 1-2Z"/><path fill="#009C75" id="GU1" d="m59 197-3 2c0-5.748-6-11.658-6-18l4-2c0 6.529 5 11.754 5 18ZM397 198l3 1c1.845 0 1.441-3.381 2-4.5l5-13.5-4-2-6 18v1Z"/><path fill="#A8AAAA" id="VL" d="M266 187c0 2.177.641 4-2 4 0-1.657-.763-10 1-10l1 6Z"/><path fill="#97D6F9" id="STR" d="m221 185-1 2 1-2Z"/><path fill="#1F9766" id="AId6b" d="M96 190h1v-4l-2 1 1 3Z"/><path fill="#209666" id="AId6a" d="m92 205-3 1c0-1.295-4.626-14-5-14 0-2.819 9-5 11-5l1 3c-9.1 0-4 10.53-4 15Z"/><path fill="#97D6F9" id="STR" d="M236 187c1.579 0 1 2.855 1 4-1.579 0-1-2.855-1-4ZM273 222h6c0-8.774-3.279-22.779-9.5-29l-3.5-6c0 2.177.641 4-2 4l-2 3c11.594 0 9 7.355 9 17l1 9 1 2Z"/><path fill="#1F9766" id="AId6b" d="m361 190-2 1 1-4h1v3Z"/><path fill="#209666" id="AId6a" d="M367 205h2v-1c0-4.428 3-8.026 3-12 0-2.919-8.866-5-11-5v3c7.658 0 4 11 4 15h2Z"/><path fill="#97D6F9" id="STR" d="M177 222h6l1-3c0-3.091 2-5.478 2-8-1.232 0-1.711-9.078-1-10.5 2.761-5.523 3.16-6.5 10-6.5l-3-5c0 4.427-2 1.868-2-1l-3.5 6c-4.221 2.11-9.5 22.499-9.5 28Z"/><path fill="#8ADA86" id="CLA" d="M96 209h2l1-1 1-1 1-1v-2c-1.06 0-2-6.743-2-8v-1l-2-4v-1h-1c-9.1 0-4 10.53-4 15 0 1.621 2.379 4 4 4ZM359 209h1c1.429 0 4-1.288 4-3l1-1c0-4 3.658-15-4-15l-2 1v1l-1 2-1 2v2l-1 6v3l1 1h1l1 1Z"/><path fill="#209666" id="AId6a" d="m97 191 2 4-2-4Z"/><path fill="#97D6F9" id="STR" d="M219 193v10c1.781 0 1-10.176 1-12l-1 2Z"/><path fill="#209766" id="AIp6a" d="M90 212h1l-2-6c0-1.295-4.626-14-5-14h-2v1c1.8 0 .517 3.017 1.5 4l6.5 15Z"/><path fill="#209666" id="AId6a" d="m359 192-1 2 1-2Z"/><path fill="#209766" id="AIp6a" d="M374 192c0 2.198-2.491 12-5 12 0-4.428 3-8.026 3-12h2Z"/><path fill="#219864" id="AIp5" d="M371 215h4c.919 0 12-17.527 12-20l-13-3c0 2.198-2.491 12-5 12v1l-2 4v3l4 3ZM81 215h4l5-3-6.5-15c-.983-.983.3-4-1.5-4-4.371 0-8.019 2-12 2 0 7.144 11 15.231 11 20Z"/><path fill="#B3C0DE" id="BST" d="m198 230-1 1c-4.284 0-9.371-1-13-1 0-2.707-1-5.903-1-8l1-3c1.78 0 4.539 4.98 8.5 3 4.729-2.364 8.805-10.597 2-14-3.961-1.98-6.72 3-8.5 3-1.232 0-1.711-9.078-1-10.5 2.761-5.523 3.16-6.5 10-6.5l6 5c0 1.942 7 8.553 7 13 0 2.707-1 5.903-1 8-4.836 0-4.335 10-9 10Z"/><path fill="#97D6F9" id="STR" d="m262 194-1 1 1-1Z"/><path fill="#B3C0DE" id="BST" d="M259 230c3.629 0 8.716 1 13 1 0-3.222 1-6.277 1-9l-1-2c-2.099 0-4.383 3.558-7.5 2-5.517-2.758-8.584-10.708-2-14 3.658-1.829 5.906 3 8.5 3 0-9.645 2.594-17-9-17l-1 1-8 6-1 1-1 1-2 8-1 2 1 8c4.759 0 5.241 9 10 9Z"/><path fill="#209666" id="AId6a" d="m358 194-1 2 1-2Z"/><path fill="#209865" id="AIp2/3" d="M81 215c0 1.259-8.632 4-10 4 0-5.416-11-14.634-11-22 2.765 0 5.165-2 7-2h3c0 7.144 11 15.231 11 20ZM375 215c0 .885 9.683 4 11 4 0-4.902 6.811-12.121 9-16.5.559-1.119.155-4.5 2-4.5v-1c-3.138 0-5.662-2-8-2h-2c0 2.473-11.081 20-12 20Z"/><path fill="#209666" id="AId6a" d="M99 196c1.931 0 2 6.225 2 8-1.06 0-2-6.743-2-8Z"/><path fill="#219765" id="AIp1" d="m71 219-5 2-3-5.5c-2.253-4.506-7-11.359-7-16.5l3-2h1c0 7.366 11 16.584 11 22Z"/><path fill="#209666" id="AId6a" d="M355 204h1l1-6c-1.995 0-2 4.377-2 6Z"/><path fill="#219765" id="AIp1" d="m386 219 5 2c0-4.565 9-14.786 9-22l-3-1c-1.845 0-1.441 3.381-2 4.5-2.189 4.379-9 11.598-9 16.5Z"/><path fill="#97D6F9" id="STR" d="m219 219 2 1c0-4.267-2-9.496-2-14l-3.5 3c-2.434-1.217-12.864-10-14.5-10 0 1.942 7 8.553 7 13l2 1c4.762 0 9-.906 9 6ZM253 201l-1 1 1-1ZM252 202l-1 1 1-1ZM236 219h1c0-7.155 5.07-6 10-6h1l1-2 2-8c-4.151 0-7.029 6-10.5 6l-3.5-4-1 14Z"/><path fill="#1F9866" id="AIv6a" d="M101 206h1l-1-2v2ZM355 206l1 1v-3h-1v2ZM95 211l-4 1-2-6 3-1c0 1.621 2.379 4 4 4l-1 2Z"/><path fill="#209666" id="AId6a" d="m365 205-1 1 1-1Z"/><path fill="#1F9866" id="AIv6a" d="m362 211 4 1c0-1.048-.473-3 1-3v-4h-2l-1 1c0 1.712-2.571 3-4 3l2 2Z"/><path fill="#209766" id="AIp6a" d="m369 205-2 4v-4h2Z"/><path fill="#1F9866" id="AIv6a" d="m101 206-1 1 1-1Z"/><path fill="#8AD987" id="CTXsp" d="m99 208 4 1-1-3h-1l-1 1-1 1ZM354 208h3l-1-1-1-1-1 2Z"/><path fill="#1F9866" id="AIv6a" d="m99 208-1 1 1-1Z"/><path fill="#A0EE9C" id="EPd" d="m102 227 5 1c2.565 0 5 .236 5-3l-1-2-7-14h-1l-4-1-1 1h-2l-1 2v11l3 3 2 1 1 1h1Z"/><path fill="#CBCBC7" id="aco" d="M186 211c1.78 0 4.539-4.98 8.5-3 6.805 3.403 2.729 11.636-2 14-3.961 1.98-6.72-3-8.5-3 0-3.091 2-5.478 2-8ZM271 211c-2.594 0-4.842-4.829-8.5-3-6.584 3.292-3.517 11.242 2 14 3.117 1.558 5.401-2 7.5-2l-1-9Z"/><path fill="#8AD987" id="CTXsp" d="m354 208-1 1v-1h1Z"/><path fill="#A0EE9C" id="EPd" d="M349 228h4l2-1h1l1-1 1-1 1-1 1-1 1-1 2-5.5-1-5.5-2-2h-1l-1-1h-4l-1 1-1 1-6 12-1 1-1 3c0 2.461 3.378 2 5 2Z"/><path fill="#1F9866" id="AIv6a" d="m358 208 1 1-1-1Z"/><path fill="#C8CBCC" id="ec" d="m353 209-1 1 1-1Z"/><path fill="#209766" id="AIp6a" d="M366 212h1v-3c-1.473 0-1 1.952-1 3Z"/><path fill="#99D2BD" id="OLF" d="M85 215c6.486 0 7.493 6 10 6v-10l-4 1h-1l-5 3Z"/><path fill="#E64438" id="HY" d="m249 211-1 2 1-2Z"/><path fill="#99D2BD" id="OLF" d="M371 215c-5.173 0-6.94 7-10 7l2-5.5-1-5.5 4 1h1l4 3Z"/><path fill="#E64438" id="HY" d="M226 243h2l-2-10c-3.141 0-5-10.278-5-13l-2-1c0 4.326-4.925 13.651-8 7.5-2.532-5.063-1-8.392-1-13.5l-2-1c0 2.707-1 5.903-1 8 0 4.855 2.633 8.233 0 13.5l-6 6.5v2c2.177 0 4-.641 4 2 .845 0 3.73-6.23 5-7.5 9.407-9.407 16-6.705 16 6.5Z"/><path fill="#FF5547" id="ADP" d="M210 213c4.762 0 9-.906 9 6 0 4.326-4.925 13.651-8 7.5-2.532-5.063-1-8.392-1-13.5ZM247 213c-4.93 0-10-1.155-10 6 0 4.414 5.481 13.539 9 6.5 1.703-3.407 1-8.43 1-12.5Z"/><path fill="#E64438" id="HY" d="M251 243h5l-1-3-6-7.5c-1.901-3.801 0-7.966 0-11.5l-1-8h-1c0 4.07.703 9.093-1 12.5-3.519 7.039-9-2.086-9-6.5h-1l-3 12c5.334 0 8.747 1.247 12.5 5l5.5 7Z"/><path fill="#6ACAB9" id="PIR" d="m117 266 2 1 6-5 3-5.5c2.798-5.595-2.996-12.992-5-17-2.014-4.029-21-11.071-21-12.5h-1l-1-1-2-1-3-3v-1c-2.507 0-3.514-6-10-6h-4c0 1.259-8.632 4-10 4l-5 2c0 7.809 13.71 23.21 19.5 29 2.08 2.08 6.658 8 9.5 8 3.611 0 22 5.117 22 8ZM336 266l3 1c0-4.463 19.395-9 23-9l8.5-8c5.474-5.474 20.5-22.2 20.5-29l-5-2c-1.317 0-11-3.115-11-4h-4c-5.173 0-6.94 7-10 7l-1 1-1 1-1 1-1 1-1 1h-1l-2 1c0 1.998-5.174 2.337-6.5 3-4.513 2.257-12.853 6.206-15.5 11.5-2.071 4.141-4.304 11.392-2 16l2 3.5c2.359 0 3.698 4 5 4Z"/><path fill="#FD5446" id="PS" d="M195 234c0 2.98 3.159 6 6 6l6-6.5c2.633-5.267 0-8.645 0-13.5-4.836 0-4.335 10-9 10l-1 1c0 1.481-2 .785-2 3ZM261 234c0 3.586-2.414 6-6 6l-6-7.5c-1.901-3.801 0-7.966 0-11.5 4.759 0 5.241 9 10 9l2 4Z"/><path fill="#80CDF8" id="ACB" d="m134 256 1 1 2.5 2c5.361 2.68 13.728 2.636 19 0s20.345-20 24.5-20c0-2.561 3-5.324 3-9 0-2.707-1-5.903-1-8h-6l-5 5.5c-4.183 8.365-27.247 7.5-37 7.5 0 1.473-1.952 1-3 1h-1c-2.409 0-3 1.957-3 4 0 4.943 6 10.681 6 16ZM322 256l-1 1-2.5 2c-5.247 2.624-13.807 2.596-19 0-5.233-2.616-21.012-20-24.5-20 0-2.384-3-4.881-3-8 0-3.222 1-6.277 1-9h6l3 3.5c3.151 3.151 5.881 5.691 9.5 7.5 5.994 2.997 21.881 2 29.5 2 0 1.473 1.952 1 3 1h1c1.429 0 4 1.288 4 3v1l-1 1c0 4.525-6 10.363-6 15Z"/><path fill="#99D2BD" id="OLF" d="m95 222 3 3-3-3Z"/><path fill="#C8CBCC" id="ec" d="m346 222-1 1 1-1Z"/><path fill="#99D2BD" id="OLF" d="m361 222-1 1 1-1Z"/><path fill="#C8CBCC" id="ec" d="M112 225c2.247 0 3.288 5 7 5l-8-7 1 2ZM344 226c-1.947 0-2.636 3-5 3l6-6-1 3Z"/><path fill="#99D2BD" id="OLF" d="m360 223-1 1 1-1Z"/><path fill="#8AD987" id="CTXsp" d="m121 231 1 4c-4.987 0-7.41-3.955-11.5-6-1.046-.523-3.5.951-3.5-1 2.565 0 5 .236 5-3 2.247 0 3.288 5 7 5l1 1h1Z"/><path fill="#99D2BD" id="OLF" d="m358 225-1 1 1-1ZM100 226l1 1-1-1Z"/><path fill="#8AD987" id="CTXsp" d="M335 232v3c4.538 0 6.761-4.131 10.5-6 1.046-.523 3.5.951 3.5-1-1.622 0-5 .461-5-2-1.947 0-2.636 3-5 3l-2 1-1 1-1 1Z"/><path fill="#99D2BD" id="OLF" d="m357 226-1 1 1-1ZM125 262h2l7-4v-2c0-5.319-6-11.057-6-16l-6-5c-4.987 0-7.41-3.955-11.5-6-1.046-.523-3.5.951-3.5-1l-5-1c0 1.429 18.986 8.471 21 12.5 2.004 4.008 7.798 11.405 5 17l-3 5.5ZM355 227l-2 1 2-1ZM330 262h1l-2-3.5c-2.304-4.608-.071-11.859 2-16 2.647-5.294 10.987-9.243 15.5-11.5 1.326-.663 6.5-1.002 6.5-3h-4c0 1.951-2.454.477-3.5 1-3.739 1.869-5.962 6-10.5 6-2.58 0-3.211 4-6 4v1l-1 1c0 4.525-6 10.363-6 15v2l8 4Z"/><path fill="#C8CBCC" id="ec" d="m339 229-2 1 2-1Z"/><path fill="#97D6F9" id="STR" d="m119 230 1 1-1-1Z"/><path fill="#E64438" id="HY" d="m195 234-14 5c0-2.561 3-5.324 3-9 3.629 0 8.716 1 13 1 0 1.481-2 .785-2 3ZM198 230l-1 1 1-1ZM261 234l14 5c0-2.384-3-4.881-3-8-4.284 0-9.371-1-13-1l2 4Z"/><path fill="#97D6F9" id="STR" d="m337 230-1 1 1-1ZM131 236c-2.409 0-3 1.957-3 4l-6-5-1-4 10 5Z"/><path fill="#FF5346" id="MPO" d="M213 265c-3.054 0-4.55 3-8 3 0-2.9-4-4.569-4-6l-1-1c0-4.212 5-10.504 5-17 .845 0 3.73-6.23 5-7.5 9.407-9.407 16-6.705 16 6.5v1l-1 1c-3.986 0-3.972 5-6 5 0-2.853-5.14-1.68-6.5-1-4.113 2.056-6.402 4.304-8.5 8.5-1.411 2.823 2.677 6.911 5.5 5.5l5.5-3-1 4-1 1Z"/><path fill="#E64438" id="HY" d="m233 231-2 2c1.747 0 2-.253 2-2Z"/><path fill="#FF5346" id="MPO" d="M243 265c3.239 0 4.575 3 8 3 0-1.991 2.904-6 5-6v-2c0-4.559-5-9.972-5-17l-5.5-7c-3.753-3.753-7.166-5-12.5-5 0 1.747-.253 2-2 2v1l-1 2v7l1 1v1c2.666 0 6 2.104 6 5 1.947 0 3.644-3.428 6.5-2 3.832 1.916 13.633 11.184 6 15-3.143 1.571-5.926-3-8.5-3l2 5Z"/><path fill="#97D6F9" id="STR" d="M325 236c1.429 0 4 1.288 4 3 2.789 0 3.42-4 6-4v-3c-1.216 0-10 3.527-10 4Z"/><path fill="#A2B1D7" id="SI" d="M185 264c-2.431 0-9.677 5.146-8 8.5l3 4.5c-9.522 0-23.773 4.864-33.5 0-4.902-2.451-9.309-5.309-13.5-9.5l-6-5.5 7-4 1-1 2.5 2c5.361 2.68 13.728 2.636 19 0s20.345-20 24.5-20l14-5c0 2.98 3.159 6 6 6v2c0 5.743-14 17.921-14 21l-2 1Z"/><path fill="#E64438" id="HY" d="m231 234-1 2 1-2Z"/><path fill="#A2B1D7" id="SI" d="m271 264 3.5 2c10.263 5.132 1.5 6.343 1.5 11 9.804 0 24.528 4.986 34.5 0 4.646-2.323 18.015-15 19.5-15l-8-4-1-1-2.5 2c-5.247 2.624-13.807 2.596-19 0-5.233-2.616-21.012-20-24.5-20l-14-5c0 3.586-2.414 6-6 6l1 3c0 6.321 13 16.712 13 20l2 1Z"/><path fill="#97D6F9" id="STR" d="M135 235c-1.048 0-3-.473-3 1 1.048 0 3 .473 3-1ZM321 235c1.048 0 3-.473 3 1-1.048 0-3 .473-3-1Z"/><path fill="#E64438" id="HY" d="M229 243h1v-7c-1.714 0-1 5.594-1 7Z"/><path fill="#97D6F9" id="STR" d="m329 240-1 1 1-1Z"/><path fill="#F2473B" id="LPO" d="M187 263v1c3.62 0 6.768-2 11-2l2-1c0-4.212 5-10.504 5-17 0-2.641-1.823-2-4-2 0 5.743-14 17.921-14 21ZM269 263v1c-3.446 0-6.77-2-11-2l-2-2c0-4.559-5-9.972-5-17h5c0 6.321 13 16.712 13 20Z"/><path fill="#FF5445" id="MEPO" d="M231 256c-2.124 0-4.436 1-6 1v-12l1-1v-1h4l1 1v12Z"/><path fill="#FE5446" id="AVPV" d="m230 243 1 1-1-1ZM226 244l-1 1 1-1ZM221 271h3l1-1v-25c-3.986 0-3.972 5-6 5 0 4.45-4 9.124-4 10l-1 4-1 1-1 8c3.638 0 5.929-2 9-2ZM235 271c3.157 0 5.481 2 9 2l-1-8-2-5c0-3.099-4-5.883-4-10 0-2.896-3.334-5-6-5v25l2 1h2Z"/><path fill="#FE5447" id="AVP" d="M219 250c0 4.45-4 9.124-4 10l-5.5 3c-2.823 1.411-6.911-2.677-5.5-5.5 2.098-4.196 4.387-6.444 8.5-8.5 1.36-.68 6.5-1.853 6.5 1ZM237 250c1.947 0 3.644-3.428 6.5-2 3.832 1.916 13.633 11.184 6 15-3.143 1.571-5.926-3-8.5-3 0-3.099-4-5.883-4-10Z"/><path fill="#97D6F9" id="STR" d="m135 257-1 1v-2l1 1Z"/><path fill="#FD5447" id="OV" d="M225 270h6v-14c-2.124 0-4.436 1-6 1v13Z"/><path fill="#97D6F9" id="STR" d="m321 257 1 1v-2l-1 1Z"/><path fill="#CAC8C7" id="lot" d="m118 269-1 4c-3.7 0-22-11.811-22-15 3.611 0 22 5.117 22 8l1 3ZM339 270v3c3.488 0 23-11.624 23-15-3.605 0-23 4.537-23 9v3Z"/><path fill="#CBCCCB" id="mfb" d="M256 262h2l-2-2v2ZM198 262h3l-1-1-2 1Z"/><path fill="#7FCCF7" id="OT" d="M181 277c5.654 0 9 2.224 9 8 0 9.411-13.101 8.301-18.5 11-14.795 7.397-31.43 3.57-43-8-3.564-3.564-9.5-7.973-9.5-13v-8l6-5h2l6 5.5c4.191 4.191 8.598 7.049 13.5 9.5 9.727 4.864 23.978 0 33.5 0h1Z"/><path fill="#96A6D3" id="NDB" d="M199 277h1l1-1 2-1c0-2.37 2-3.455 2-7 0-2.9-4-4.569-4-6h-3c-4.232 0-7.38 2-11 2l-1 1-1 9v1c3.823 0 8.037 3 13 3l1-1ZM255 276l2 1 8.5 1c1.308-.654 5.314-4 6.5-4l-1-8-2-2c-3.446 0-6.77-2-11-2h-2c-2.096 0-5 4.009-5 6 0 3.715 4 5.378 4 8Z"/><path fill="#7FCCF7" id="OT" d="M275 277h1c9.804 0 24.528 4.986 34.5 0 4.646-2.323 18.015-15 19.5-15h1c2.359 0 3.698 4 5 4l2 4v5l-1 1c0 4.658-7.493 11.996-11.5 14-12.306 6.153-20.435 14.283-35 7-2.603-1.302-6.259-.629-9-2-5.459-2.73-15.5-1.928-15.5-11 0-4.376 5.057-7 9-7Z"/><path fill="#E64438" id="HY" d="m187 264-1 1-1-1 2-1v1ZM271 264v2l-2-2v-1l2 1Z"/><path fill="#A2B1D8" id="MA" d="M180 277h1l3-2 1-1 1-9-1-1c-2.431 0-9.677 5.146-8 8.5l3 4.5Z"/><path fill="#E64438" id="HY" d="m214 264-1 1 1-1Z"/><path fill="#A2B1D8" id="MA" d="M275 277h1c0-4.657 8.763-5.868-1.5-11l-3.5-2v2l1 8 3 3Z"/><path fill="#E64438" id="HY" d="M212 273c-3.071 0-5.362 2-9 2 0-2.37 2-3.455 2-7 3.45 0 4.946-3 8-3l-1 8ZM244 273l11 3c0-2.622-4-4.285-4-8-3.425 0-4.761-3-8-3l1 8Z"/><path fill="#99D2BD" id="OLF" d="M118 269h1v-2l-2-1 1 3ZM338 270h1v-3l-3-1 2 4Z"/><path fill="#97D6F9" id="STR" d="m117 273 2 2v-6h-1l-1 4ZM339 273l-1 2v-5h1v3Z"/><path fill="#CAC7CB" id="fiber tracts" d="M210 285c-4.284 0 6.304 3 9 3h20c2.338 0 12.388-3 8-3-4.554 0-10-6.713-10-11l-2-3h-2c-2.061 0-4.212 2-4.5 2-1.125 0-2.557-2-4.5-2h-3l-2 3c0 3.471-3.692 11-9 11Z"/><path fill="#E64438" id="HY" d="M184 275h1v-1l-1 1Z"/><path fill="#CBCCC7" id="IIn" d="M219 274c-4.248 0-9.147 3.794-11 7.5l2 3.5c5.308 0 9-7.529 9-11ZM237 274c8.264 0 10 4.731 10 11-4.554 0-10-6.713-10-11Z"/><path fill="#8599CC" id="PAL" d="M275 277c-3.943 0-9 2.624-9 7-1.713 0-9-4.88-9-7l8.5 1c1.308-.654 5.314-4 6.5-4l3 3ZM198 278l-8 7c0-5.776-3.346-8-9-8l3-2h1c3.823 0 8.037 3 13 3Z"/><path fill="#E64438" id="HY" d="m203 275-2 1 2-1Z"/><path fill="#97D6F9" id="STR" d="m338 275-1 1 1-1Z"/><path fill="#E64438" id="HY" d="m201 276-1 1 1-1Z"/><path fill="#8599CC" id="PAL" d="m199 277-1 1 1-1Z"/></svg>