<svg xmlns="http://www.w3.org/2000/svg" viewBox="0 0 456 320"><path fill="#1E9C59" id="MOs1" d="M227 51c-1.624 0-2.75 2-5 2 0-2.343-2.278-4.778-4-6.5-9.457-9.457-18.641-7.5-31-7.5v-4c11.298 0 27.323-4.855 34 8.5 1.45 2.9 6 3.974 6 7.5ZM229 51l5 2 2-3.5 8.5-8.5c7.51-3.755 16.167-2 24.5-2v-4c-14.983 0-20.621-4.879-33.5 8l-6.5 8Z"/><path fill="#1E9D5A" id="MOp1" d="M141 47v4c.806 0 40.649-9.575 41.5-10l4.5-2v-4c-7.839 0-27.274 2.887-33.5 6-3.341 1.67-8.641 4-12.5 4v2ZM316 45l1 7c-3.003 0-5.953-1.727-8.5-3-4.781-2.39-34.267-10-39.5-10v-4c7.171 0 29.08 3.29 34.5 6 3.431 1.715 8.524 4 12.5 4Z"/><path fill="#1E9D58" id="MOs2/3" d="M215 57h1l6-3v-1c0-2.343-2.278-4.778-4-6.5-9.457-9.457-18.641-7.5-31-7.5l-1 13c6.145 0 29-9.6 29 5ZM240 57h1c0-2.117 1.537-3.037 3-4.5 9.272-9.273 19.583.5 27 .5l-2-14c-8.333 0-16.99-1.755-24.5 2l-8.5 8.5-2 3.5v1l6 3Z"/><path fill="#1F9C58" id="MOp2/3" d="M139 69v6c10.295 0 35.465-22 46-22l1-1 1-13-4.5 2c-.851.425-40.694 10-41.5 10l-1 1-1 1v16ZM317 69v6c-10.076 0-35.165-22-46-22l-2-14c5.233 0 34.719 7.61 39.5 10 2.547 1.273 5.497 3 8.5 3v17Z"/><path fill="#187F60" id="SSp-ll1" d="m140 46 1 1v-2l-1 1Z"/><path fill="#197E64" id="SSp-ul1" d="m355 65-3 4c-5.088 0-25.871-16-35-16v-1l-1-7c6.449 0 23.151 10.825 29.5 14 1.836.918 9.5 3.317 9.5 6ZM102 64l2 5c8.029 0 24.632-16 35-16v-1l2-1v-4l-1-1c-7.901 0-18.657 6.579-25.5 10L102 64Z"/><path fill="#1F9D58" id="MOs5" d="M202 69h1c0-5.322 12-7.447 12-12 0-14.6-22.855-5-29-5l-1 1c0 6.435-3 12.165-3 18l3.5-2c1.913-.956 16.5-6.775 16.5 0ZM254 69c0-6.714 15.517-.991 17.5 0l2.5 2c0-6.902-3-11.422-3-18-7.417 0-17.728-9.773-27-.5-1.463 1.463-3 2.383-3 4.5 0 4.282 12 6.81 12 12h1Z"/><path fill="#1E9D5A" id="MOp1" d="M139 52h1l1-1-2 1Z"/><path fill="#3EA665" id="ACAd1" d="M223 79h11V53l-5-2c0 3.746-.8 0-2 0-1.624 0-2.75 2-5 2v1c1.684 0 1 4.68 1 6v19Z"/><path fill="#197F61" id="SSp-ul2/3" d="m140 52-1 1v-1h1ZM109 79l1 2c1.63 0 21.498-12 29-12V53c-10.368 0-26.971 16-35 16v1l5 9Z"/><path fill="#1E9C5A" id="MOp5" d="M139 76v14c5.978 0 27.449-9.974 33.5-13l9.5-6c0-5.835 3-11.565 3-18-10.535 0-35.705 22-46 22v1ZM317 76v14l-29.5-11c-3.706-1.853-9.358-8-13.5-8 0-6.902-3-11.422-3-18 10.835 0 35.924 22 46 22v1Z"/><path fill="#197F61" id="SSp-ul2/3" d="M346 81h1l1-2 1-2c0-1.966 2.89-7 3-7v-1c-5.088 0-25.871-16-35-16v16c8.058 0 27.578 12 29 12Z"/><path fill="#40A565" id="ACAd2/3" d="m223 79-6 2c0-7.895-1-16.783-1-24l6-3c1.684 0 1 4.68 1 6v19ZM234 80l5 1c0-7.947 1-16.71 1-24l-6-3v26Z"/><path fill="#3EA566" id="ACAd5" d="m217 81-12 6c0-6.445-2-12.28-2-18 0-5.322 12-7.447 12-12h1c0 7.217 1 16.105 1 24ZM239 81l12 5c0-5.144 2-11.688 2-17 0-5.19-12-7.718-12-12h-1c0 7.29-1 16.053-1 24Z"/><path fill="#1B8062" id="SSp-un1" d="M102 71h1l1-1v-1l-2-5-3 2c0 1.054 3 2.931 3 5ZM354 71h1c0-2.343.285-4 3-4 0-1.577-1.762-2-3-2l-3 4v1l2 1Z"/><path fill="#187E61" id="SSp-m1" d="M58 135h1c0-14.46 9.932-27.365 16-39.5 1.504-3.009 7.143-6.286 9-10 2.136-4.272 18-12.937 18-14.5 0-2.069-3-3.946-3-5-2.446 0-14.538 11.038-17 13.5-12.176 12.176-28 35.833-28 52.5l4 3Z"/><path fill="#1D9C5A" id="MOs6a" d="M181 93h3c0-2.867 5.149-2 7-2 0-8.158 11-16.402 11-22 0-6.775-14.587-.956-16.5 0l-3.5 2c0 6.9-1 14.536-1 22ZM266 91c3.638 0 5.929 2 9 2 0-4.288 1-10.821 1-14.5 0-1.83-2-5.63-2-7.5l-2.5-2c-1.983-.991-17.5-6.714-17.5 0 0 2.992 12 16.133 12 22Z"/><path fill="#187E61" id="SSp-m1" d="m403 132-5 2c0-2.37-1.965-5.431-3-7.5l-1-7c-2.45-4.899-4.557-10.114-7-15l-11-15c-2.658-5.315-21-16.65-21-18.5 0-2.343.285-4 3-4 5.285 0 8.989 7.744 13.5 10 10.198 5.1 19.695 22.89 25.5 34.5 2.374 4.748 1.658 11.315 4 16l2 4.5Z"/><path fill="#1A7F63" id="SSp-ul4" d="m110 81 5 7c8.405 0 15.287-12 24-12v-7c-7.502 0-27.37 12-29 12Z"/><path fill="#3FA664" id="ACAd6a" d="M195 95h1c3.398 0 5.13-7 9-7v-1c0-6.445-2-12.28-2-18h-1c0 5.598-11 13.842-11 22 1.797 0 4 2.203 4 4ZM263 93l-2 2c-3.509 0-6.265-8-10-8v-1c0-5.144 2-11.688 2-17h1c0 2.992 12 16.133 12 22-1.238 0-3 .423-3 2Z"/><path fill="#1A7F63" id="SSp-ul4" d="M341 89h1l4-8c-1.422 0-20.942-12-29-12v7c6.449 0 12.032 6.266 17.5 9 1.426.713 6.5 1.764 6.5 4Z"/><path fill="#1C7F63" id="SSp-un2/3" d="M103 71c0 3.016 3.3 8 6 8l-5-9-1 1ZM354 71c0 1.723-3.538 6-5 6 0-1.966 2.89-7 3-7l2 1Z"/><path fill="#1A7E64" id="SSp-m2/3" d="m59 135 9 4c0-14.345 16.793-43.147 30.5-50 2.577-1.288 7.741-8 11.5-8l-1-2c-2.7 0-6-4.984-6-8h-1c0 1.563-15.864 10.228-18 14.5-1.857 3.714-7.496 6.991-9 10-6.068 12.135-16 25.04-16 39.5Z"/><path fill="#1F9B5A" id="MOp6a" d="m149 107-10 3V90c5.978 0 27.449-9.974 33.5-13l9.5-6c0 6.9-1 14.536-1 22-1.869 0-13 4.034-13 6-1.424 0-5 .362-5 2-2.254 0-14 3.816-14 6ZM275 93c11.069 0 30.989 17 42 17V90l-29.5-11c-3.706-1.853-9.358-8-13.5-8 0 1.87 2 5.67 2 7.5 0 3.679-1 10.212-1 14.5Z"/><path fill="#1A7E64" id="SSp-m2/3" d="m398 135-10 4c0-11.326-7.213-22.926-12-32.5l-11-13c-1.234-2.468-18-11.484-18-12.5l1-2c0 2.408 1-.987 1-2 1.462 0 5-4.277 5-6h1c0 1.85 18.342 13.185 21 18.5l11 15c2.443 4.886 4.55 10.101 7 15l1 7c1.035 2.069 3 5.13 3 7.5v1Z"/><path fill="#187E62" id="SSp-ul5" d="M139 91c-6.778 0-12.067 8-18 8 0-3.448-6-6.349-6-10v-1c8.405 0 15.287-12 24-12v15ZM317 91c6.478 0 13.708 8 18 8 0-2.422 6-6.552 6-10 0-2.236-5.074-3.287-6.5-4-5.468-2.734-11.051-9-17.5-9v15Z"/><path fill="#1C7F63" id="SSp-un2/3" d="m349 77-1 2c0 2.408 1-.987 1-2Z"/><path fill="#3FA566" id="ACAv2/3" d="m221 114-3 1c0-11.572-1-22.92-1-34l6-2c0 10.68-1 21.946-1 32l-1 3Z"/><path fill="#40A664" id="ACAv1" d="m229 106 5 5c0-7.653-1-15.387-1-23.5 0-1.448-.725-7.5 1-7.5v-1h-11c0 10.68-1 21.946-1 32l5-5c0-2.564 2-2.564 2 0Z"/><path fill="#3FA566" id="ACAv2/3" d="m235 114 3 1c0-10.627 1-22.717 1-34l-5-1c-1.725 0-1 6.052-1 7.5 0 8.113 1 15.847 1 23.5l1 3Z"/><path fill="#1B7F62" id="SSp-m4" d="m68 139 5 2c1.845 0 1.44-3.381 2-4.5l5-11c5.905-11.81 13.787-25.143 26.5-31.5 3.179-1.59 4.647-5 8.5-5v-1l-5-7c-3.759 0-8.923 6.712-11.5 8C84.793 95.853 68 124.655 68 139Z"/><path fill="#3EA666" id="ACAv5" d="M209 111c0 2.216 7.15 4 9 4 0-11.572-1-22.92-1-34l-12 6v1c0 8.422 4 15.569 4 23ZM247 111c0 2.645-6.992 4-9 4 0-10.627 1-22.717 1-34l12 5v13.5l-4 11.5Z"/><path fill="#1B7F62" id="SSp-m4" d="m388 139-5 2c0-8.059-20.15-39.825-28.5-44-3.735-1.868-8.222-8-12.5-8l4-8h1c0 1.016 16.766 10.032 18 12.5l11 13c4.787 9.574 12 21.174 12 32.5Z"/><path fill="#40A564" id="ACAv6a" d="M247 111h2l1-2c0-1.811 3.438-4 5-4 0-1.747.253-2 2-2 0-1.243 3.006-7 4-7v-1c-3.509 0-6.265-8-10-8v12.5l-4 11.5ZM207 111h2c0-7.431-4-14.578-4-23-3.87 0-5.602 7-9 7 0 6.051 10 9.638 10 14l1 2Z"/><path fill="#1B7E63" id="SSp-m5" d="M84 147h1c0-17.463 13.14-36.32 28.5-44 2.387-1.193 4.693-4 7.5-4 0-3.448-6-6.349-6-10-3.853 0-5.321 3.41-8.5 5-12.713 6.357-20.595 19.69-26.5 31.5l-5 11c-.56 1.119-.155 4.5-2 4.5v1c3.858 0 7.696 5 11 5ZM383 142l-11 5c0-12.704-12.262-34.381-23.5-40-4.701-2.35-7.891-8-13.5-8 0-2.422 6-6.552 6-10h1c4.278 0 8.765 6.132 12.5 8 8.35 4.175 28.5 35.941 28.5 44v1Z"/><path fill="#197D61" id="SSp-ul6a" d="M139 111c-3.238 0-5.3 3-8 3 0-2.833-10-12.956-10-15 5.933 0 11.222-8 18-8v20Z"/><path fill="#1E9C58" id="MOs6b" d="m191 92-7 1c0-2.867 5.149-2 7-2v1Z"/><path fill="#3FA466" id="ACAd6b" d="M195 95v1l-4-4v-1c1.797 0 4 2.203 4 4ZM266 92l-3 1c0-1.577 1.762-2 3-2v1Z"/><path fill="#1E9C58" id="MOs6b" d="M275 93v2c-2.933 0-5.321-3-9-3v-1c3.638 0 5.929 2 9 2Z"/><path fill="#197D61" id="SSp-ul6a" d="m317 110 8 4c3.066 0 7.165-10.829 8-12.5l2-2.5c-4.292 0-11.522-8-18-8v19Z"/><path fill="#CACCC7" id="cing" d="m206 109 1 2c-8.563 0-11.923-10.711-18.5-14-6.128-3.064-12.397 4-17.5 4l-1 1h-1l-2 1h-5l1-2c1.622 0 5 .461 5-2 4.875 0 8.125-4 13-4l3-2 7-1 4 4c0 3.73 6.698 13 11 13ZM250 109l-1 2c9.922 0 10.574-10.037 18.5-14 6.282-3.14 13.239 4 18.5 4 2.755 0 5.553 2 9 2 0-1.845-3.381-1.441-4.5-2-4.683-2.342-9.932-6-15.5-6-2.933 0-5.321-3-9-3l-3 1-1 3c0 2.025-3.095 7-5 7 0 1.747-.253 2-2 2 0 1.976-2.876 4-5 4Z"/><path fill="#1D9D5A" id="MOp6b" d="M181 95c-4.875 0-8.125 4-13 4 0-1.966 11.131-6 13-6v2Z"/><path fill="#1E9C58" id="MOs6b" d="m184 93-3 2v-2h3Z"/><path fill="#3FA466" id="ACAd6b" d="M261 96h1l1-3-2 2v1Z"/><path fill="#1D9D5A" id="MOp6b" d="M317 110v1c-8.151 0-14-8-22-8 0-1.845-3.381-1.441-4.5-2-4.683-2.342-9.932-6-15.5-6v-2c11.069 0 30.989 17 42 17Z"/><path fill="#40A465" id="ACAv6b" d="M195 96c0 3.73 6.698 13 11 13 0-4.362-10-7.949-10-14h-1v1ZM262 96c0 2.025-3.095 7-5 7 0-1.243 3.006-7 4-7h1Z"/><path fill="#C9C7C9" id="ccb" d="M357 165h1l-1-5-2-4v-1l-2-4v-1l-4.5-8c-6.661-6.661-11.49-18.245-21-23-10.054-5.027-21.03-8.015-31-13-1.848-.924-10.5-2.397-10.5-5-5.261 0-12.218-7.14-18.5-4-7.926 3.963-8.578 14-18.5 14h-2c0 2.645-6.992 4-9 4l-3-1c0 .801-4.441 2.53-5.5 2l-1-2c-.515 0-7.5 4.03-7.5 0l-3 1c-1.85 0-9-1.784-9-4h-2c-8.563 0-11.923-10.711-18.5-14-6.128-3.064-12.397 4-17.5 4l-1 1h-1l-2 1h-1c0 1.722-5.235 2.368-6.5 3-6.038 3.019-13.04 4.02-19 7-5.898 2.949-11.085 7.042-17 10l-8.5 8c0 1.562-2.189 5-4 5 0 1.238-.423 3-2 3l-2 4-2 4-2 4v1l-1 1v1l-1 2v3l5-9.5c3.714-7.429 10.781-20.14 19.5-24.5 9.173-4.587 18.948-7.474 28-12 2.873-1.436 7.006-.503 10-2 4.882-2.441 14.878 1 19.5 1 3.337 0 14 2.575 14 7h1l2 2h1l1 1 4 3c5.795 0 13.48 5 16 5 2.579 0 4.721-2 6.5-2 1.382 0 4.058 2 6.5 2 0-3.009 12.226-5 15-5l4-3 1-1h1l1-1 2-1c0-1.577 1.762-2 3-2 0-3.823 9.124-5 12-5 4.389 0 13.826-3.337 18.5-1 8.486 4.243 19.471 3.735 28 8 13.037 6.518 22.162 16.825 28.5 29.5 2.432 4.864 8 10.858 8 16.5Z"/><path fill="#187D61" id="SSp-m6a" d="M100 153h1c0-6.345 16.558-34 24-34 0-2.109 2.535-2 4-2l2-2v-1c0-2.833-10-12.956-10-15-2.807 0-5.113 2.807-7.5 4-15.36 7.68-28.5 26.537-28.5 44 5.313 0 9.878 6 15 6Z"/><path fill="#1D9D5A" id="MOp6b" d="M168 99c-1.424 0-5 .362-5 2 1.622 0 5 .461 5-2Z"/><path fill="#187D61" id="SSp-m6a" d="M356 153h1c0-1.101 13.052-6 15-6 0-12.704-12.262-34.381-23.5-40-4.701-2.35-7.891-8-13.5-8l-2 2.5c-.835 1.671-4.934 12.5-8 12.5v1c9.654 0 31 29.372 31 38Z"/><path fill="#1D9D5A" id="MOp6b" d="M162 103c-4.875 0-8.125 4-13 4 0-2.184 11.746-6 14-6l-1 2Z"/><path fill="#C9C9CA" id="scwm" d="m171 101-1 1 1-1ZM325 116c0 .732 8.039 5.539 9.5 7 6.663 6.663 18.5 17.749 18.5 27l-4.5-8c-6.661-6.661-11.49-18.245-21-23-10.054-5.027-21.03-8.015-31-13-1.848-.924-10.5-2.397-10.5-5 2.755 0 5.553 2 9 2 8 0 13.849 8 22 8l8 5ZM169 102l-2 1 2-1ZM125 119c0 4.419-10 7.1-10 12l8.5-8c5.915-2.958 11.102-7.051 17-10 5.96-2.98 12.962-3.981 19-7 1.265-.632 6.5-1.278 6.5-3h-4c-4.875 0-8.125 4-13 4 0 2.623-7.828 4-10 4 0 1.504-5.699 4-7 4 0 1.577-1.762 2-3 2 0 2.109-2.535 2-4 2Z"/><path fill="#40A465" id="ACAv6b" d="M257 103c-1.747 0-2 .253-2 2 1.747 0 2-.253 2-2ZM255 105c-1.562 0-5 2.189-5 4 2.124 0 5-2.024 5-4Z"/><path fill="#7ED04B" id="IG" d="M221 114c0 4.03 6.985 0 7.5 0l1 2c1.059.53 5.5-1.199 5.5-2l-1-3-5-5c0 1.399-2 1.399-2 0l-5 5-1 3Z"/><path fill="#1D9D5A" id="MOp6b" d="M139 110v1c2.172 0 10-1.377 10-4l-10 3Z"/><path fill="#1C8064" id="SSp-ul6b" d="M325 115v1l-8-5v-1l8 4v1ZM131 115h1c1.301 0 7-2.496 7-4-3.238 0-5.3 3-8 3v1Z"/><path fill="#98D5F9" id="CP" d="M122 232c4.049 0 7.132 3 12 3 13.838 0 34.071 2.358 41-11.5l2-2.5c0-3.432 7.405-25 10-25l1-1c0-1.041.986-5 2-5 0-5.678 1-12.682 1-19l2-15v-3c0-1.048-.473-3 1-3v-1c0-6.889-.093-16.686-3-22.5l-5-11.5-3-3c-4.622 0-14.618-3.441-19.5-1-2.994 1.497-7.127.564-10 2-9.052 4.526-18.827 7.413-28 12-8.719 4.36-15.786 17.071-19.5 24.5l-5 9.5c0 1.622.461 5-2 5v1c0 1.048.473 3-1 3v16.5c2.153 4.305 7 19.82 7 24.5v1l6 12 7 7h1l1 1 1 1 1 1ZM334 232c-3.568 0-6.52 3-11 3-13.395 0-34.286 1.928-40-9.5-.614-1.228-3-1.276-3-3.5 0-3.484-8.019-26-11-26v-1l-3-6-1-9v-7l-1-14-1-1v-7c0-7.473-1.121-17.258 2-23.5l5-11.5 4-4c4.389 0 13.826-3.337 18.5-1 8.486 4.243 19.471 3.735 28 8 13.037 6.518 22.162 16.825 28.5 29.5 2.432 4.864 8 10.858 8 16.5 0 .986 1.087 6 2 6v4c0 11.656-6 20.377-6 32l-1 2-1 1-4 10-1 1-1 1-1 1-1 2c-1.747 0-2 .253-2 2-1.238 0-3 .423-3 2l-1 1-2 1-1 1Z"/><path fill="#AAA8A9" id="SEZ" d="M186 115c4.599 0 7.105 4 11 4 0-4.425-10.663-7-14-7l3 3ZM270 116c0-2.771-6.664 1-8 1 0-3.823 9.124-5 12-5l-4 4Z"/><path fill="#188064" id="SSp-m6b" d="M132 115c0 1.577-1.762 2-3 2l2-2h1Z"/><path fill="#A8AAAA" id="VL" d="m195 148-1 1c0-6.889-.093-16.686-3-22.5l-5-11.5c4.599 0 7.105 4 11 4h1l2 2h1l1 1 4 3c0 5.672-11 14.245-11 23ZM261 148l2 3c0-7.473-1.121-17.258 2-23.5l5-11.5c0-2.771-6.664 1-8 1 0 1.577-1.762 2-3 2l-2 1-1 1h-1l-1 1-4 3c0 3.487 11 13.788 11 23Z"/><path fill="#188064" id="SSp-m6b" d="M355 153h1c0-8.628-21.346-38-31-38v1c0 .732 8.039 5.539 9.5 7 6.663 6.663 18.5 17.749 18.5 27v1l2 2ZM129 117c-1.465 0-4-.109-4 2 1.465 0 4 .109 4-2Z"/><path fill="#AAA8A9" id="SEZ" d="M262 117c-1.238 0-3 .423-3 2 1.238 0 3-.423 3-2Z"/><path fill="#188064" id="SSp-m6b" d="M101 153h1l1-1v-1c0-1.465-.109-4 2-4 0-1.465-.109-4 2-4 0-1.465-.109-4 2-4 0-1.238.423-3 2-3 0-1.562 2.189-5 4-5 0-4.9 10-7.581 10-12-7.442 0-24 27.655-24 34Z"/><path fill="#AAA8A9" id="SEZ" d="m198 119 2 2-2-2ZM259 119l-2 1 2-1ZM257 120l-1 1 1-1ZM201 121l1 1-1-1ZM255 121l-1 1 1-1Z"/><path fill="#90CBEC" id="LSc" d="m195 148 4 1 4.5-4c3.725-1.863 18.5-8.493 18.5-13v-2c-2.52 0-10.205-5-16-5 0 5.672-11 14.245-11 23ZM256 148h5c0-9.212-11-19.513-11-23-2.774 0-15 1.991-15 5v2c0 1.767 20.311 16 21 16Z"/><path fill="#97D6F9" id="STR" d="M222 132h13v-2c-2.442 0-5.118-2-6.5-2-1.779 0-3.921 2-6.5 2v2Z"/><path fill="#C9C9CA" id="scwm" d="M115 131c-1.811 0-4 3.438-4 5 1.811 0 4-3.438 4-5Z"/><path fill="#90CAED" id="LSr" d="M219 195h1v-5c0-1.048-.473-3 1-3v-6l1-1 2-17 1-1v-4l1-2c0-14.117 5-8.994 5 1v3l1 1v3l1 1 1 12 1 1 1 11c1.684 0 1 4.679 1 6l6.5-8c7.856-3.928 10.478-13 20.5-13l1-1-1-14-1-1v-3l-7-7c-.689 0-21-14.233-21-16h-13c0 4.507-14.775 11.137-18.5 13l-4.5 4-6 7-2 15c1.579 0 1 2.855 1 4 1.317 0 1.788-3.356 4.5-2 3.14 1.57 22.5 19.555 22.5 22Z"/><path fill="#1A7E62" id="SSs1" d="m53 176-4 1c0-7.071-4.6-22.298-1-29.5l6-15.5 4 3c0 4.879-2.842 13.183-5 17.5-2.718 5.436 0 17.249 0 23.5ZM403 176l4 1c1.679 0 2-9.076 2-11 0-7.473 1.121-17.258-2-23.5-1.616-3.232-4-6.644-4-10.5l-5 2v1l6 21.5c2.473 4.945-1 14.687-1 19.5Z"/><path fill="#1B8063" id="SSs2/3" d="M53 176h1l9-1c0-13.741 5-25.289 5-36l-9-4h-1c0 4.879-2.842 13.183-5 17.5-2.718 5.436 0 17.249 0 23.5ZM393 175l10 1c0-4.813 3.473-14.555 1-19.5l-6-21.5-10 4 3 10.5c2.384 4.769 2 19.142 2 25.5Z"/><path fill="#C9C9CA" id="scwm" d="M111 136c-1.577 0-2 1.762-2 3 1.577 0 2-1.762 2-3Z"/><path fill="#187C63" id="SSs4" d="M64 175h1l2-1h1c0-4.843 1.257-23.015 3-26.5l2-5.5v-1l-5-2c0 10.711-5 22.259-5 36h1Z"/><path fill="#C9C9CA" id="scwm" d="M109 139c-2.109 0-2 2.535-2 4l2-4Z"/><path fill="#187C63" id="SSs4" d="m390 174 3 1c0-6.358.384-20.731-2-25.5l-3-10.5-5 2v1l2 3.5c2.224 4.449 3 22.418 3 28.5h2Z"/><path fill="#1C8063" id="SSs5" d="M81 172c-4.252 0-9.018 2-13 2 0-4.843 1.257-23.015 3-26.5l2-5.5c3.858 0 7.696 5 11 5 0 8.529-3 16.126-3 25ZM375 172l13 2c0-6.082-.776-24.051-3-28.5l-2-3.5-11 5c0 8.117 3 16.029 3 25Z"/><path fill="#C9C9CA" id="scwm" d="M107 143c-2.109 0-2 2.535-2 4l2-4Z"/><path fill="#97D6F9" id="STR" d="m226 156 2.5-2 2.5 3c0-9.994-5-15.117-5-1Z"/><path fill="#197D63" id="SSs6a" d="M95 171c-3.483 0-9.887 1-14 1 0-8.874 3-16.471 3-25h1c5.313 0 9.878 6 15 6 0 5.491-4 11.033-4 17l-1 1Z"/><path fill="#C9C9CA" id="scwm" d="M105 147c-2.109 0-2 2.535-2 4l2-4Z"/><path fill="#197D63" id="SSs6a" d="M361 170c3.985 0 9.965 2 14 2 0-8.971-3-16.883-3-25-1.948 0-15 4.899-15 6 0 5.832 4 11.33 4 17Z"/><path fill="#97D6F9" id="STR" d="M193 153v3l6-7-4-1-1 1v1c0 1.048.473 3-1 3ZM263 151v4l-7-7h5l2 3Z"/><path fill="#A8AAAA" id="VL" d="M194 150c-1.473 0-1 1.952-1 3 1.473 0 1-1.952 1-3Z"/><path fill="#C9C9CA" id="scwm" d="M355 153v2l-2-4 2 2ZM103 152l-1 1 1-1Z"/><path fill="#1A8061" id="SSs6b" d="M97 170h1v-2c0-1.048-.473-3 1-3v-4l1-2 1-2v-1l1-2v-1h-2c0 5.491-4 11.033-4 17h1ZM359 170h2c0-5.67-4-11.168-4-17h-2v3l2 4 1 5 1 5Z"/><path fill="#C9C9CA" id="scwm" d="m102 154-1 2 1-2Z"/><path fill="#96A7D3" id="MS" d="M231 235h1l1-2 3-10c0-5.139 1-10.395 1-16v-12c-1.684 0-1-4.679-1-6l-1-11-1-1-1-12-1-1v-3l-1-1v-3l-2.5-3-2.5 2-1 2v4l-1 1-2 17-1 1v6c0 1.048.473 3-1 3v32c0 2.22 2.992 13 6 13l2.5-4c1.224 0-.581 4 2.5 4Z"/><path fill="#97D6F9" id="STR" d="m226 156-1 2 1-2Z"/><path fill="#C9C9CA" id="scwm" d="m355 156 2 4-2-4ZM100 159h1v-2l-1 2Z"/><path fill="#97D6F9" id="STR" d="m263 158 1 1-1-1Z"/><path fill="#C9C9CA" id="scwm" d="m100 159-1 2 1-2Z"/><path fill="#C9C7C9" id="ccb" d="M99 161v3c2.461 0 2-3.378 2-5h-1l-1 2Z"/><path fill="#97D6F9" id="STR" d="m231 160 1 1-1-1ZM225 162l-1 1 1-1ZM232 164l1 1-1-1Z"/><path fill="#C8CBCC" id="ec" d="M99 165c-1.473 0-1 1.952-1 3 1.473 0 1-1.952 1-3ZM359 170v1c-.913 0-2-5.014-2-6h1l1 5Z"/><path fill="#009B74" id="GU6a" d="M96 187c-5.134 0-8.51 4-13 4 0-5.773-2-12.316-2-19 4.113 0 10.517-1 14-1 0 4.933 1 10.73 1 15v1ZM96 170l-1 1 1-1Z"/><path fill="#019C74" id="GU6b" d="M96 186h1v-16h-1l-1 1c0 4.933 1 10.73 1 15Z"/><path fill="#C8CBCC" id="ec" d="m102 206 3 3c0-4.68-4.847-20.195-7-24.5V170h-1v16l1 5 1 2v2c1.638 0 2 3.576 2 5v1c1.473 0 1 1.952 1 3v2Z"/><path fill="#019C74" id="GU6b" d="m359 185 2 2v-17h-2v5c2.835 0 0 9.035 0 10Z"/><path fill="#009B74" id="GU6a" d="M361 187c5.043 0 8.415 4 13 4 0-6 1-12.475 1-19-4.035 0-10.015-2-14-2v17Z"/><path fill="#A8AAAA" id="VL" d="M192 189c0 6.321-.337 1-2 1 0-5.678 1-12.682 1-19 1.579 0 1 2.855 1 4v14Z"/><path fill="#019C75" id="GU5" d="M83 192c-4.187 0-9.088 3-13 3l-2-5.5V174c3.982 0 8.748-2 13-2 0 6.684 2 13.227 2 19v1ZM386 195h1c0-3.108.737-4.973 2-7.5 1.82-3.641-1-10.246-1-13.5l-13-2c0 6.525-1 13-1 19v1c3.655 0 8.654 3 12 3Z"/><path fill="#8FCBED" id="LSv" d="M203 201c3.604 0 8.078 6.789 10.5 8 6.656 3.328 4.487-7 6.5-7v-5l-1-2c0-2.445-19.36-20.43-22.5-22-2.712-1.356-3.183 2-4.5 2v14l3 6 8 6ZM252 203c-4.417 0-5.86 4.18-9.5 6-2.939 1.47-4.216-2-5.5-2v-12l6.5-8c7.856-3.928 10.478-13 20.5-13 0 1.048-.473 3 1 3v3c-1.773 0-1 9.259-1 11l-2 4h-1l-1 1c-1.252 0-5 3.172-5 4l-1 1-1 1-1 1Z"/><path fill="#A8AAAA" id="VL" d="M264 174c0 1.048-.473 3 1 3v-4l-1 1Z"/><path fill="#11AC82" id="VISC4" d="m67 174-2 1 2-1Z"/><path fill="#009C74" id="GU4" d="M68 195h2l-2-5.5V174h-1l-2 1h-1l-1 1c0 6.215 5 13.012 5 19ZM387 195h2c0-6.621 4-12.194 4-19l-3-2h-2c0 3.254 2.82 9.859 1 13.5-1.263 2.527-2 4.392-2 7.5Z"/><path fill="#11AC82" id="VISC4" d="M393 175v1l-3-2 3 1Z"/><path fill="#12AC83" id="VISC2/3" d="M63 176c-3.078 0-6.325 3-9 3v-3l9-1v1Z"/><path fill="#11AC82" id="VISC4" d="m64 175-1 1v-1h1Z"/><path fill="#C8CBCC" id="ec" d="m354 206-1 1c0-11.623 6-20.344 6-32 2.835 0 0 9.035 0 10v6l-1 1-1 2v2c-2.273 0-2 5.226-2 7-1.473 0-1 1.952-1 3Z"/><path fill="#12AC83" id="VISC2/3" d="m403 176-1 3c-2.675 0-5.922-3-9-3v-1l10 1Z"/><path fill="#12AD83" id="VISC1" d="M54 179c-2.424 0-2.76 2-4 2l-1-4 4-1h1v3Z"/><path fill="#009B75" id="GU2/3" d="M68 195c-2.522 0-4.909 2-8 2 0-5.692-6-12.04-6-18 2.675 0 5.922-3 9-3 0 6.215 5 13.012 5 19ZM396 197h1c0-6.216 5-11.652 5-18-2.675 0-5.922-3-9-3 0 6.806-4 12.379-4 19 2.16 0 4.167 2 7 2Z"/><path fill="#12AD83" id="VISC1" d="M402 179c1.465 0 4-.109 4 2 1.579 0 1-2.855 1-4l-4-1-1 3Z"/><path fill="#97D6F9" id="STR" d="m234 177 1 1-1-1Z"/><path fill="#009C75" id="GU1" d="m60 197-3 2c-1.845 0-1.44-3.381-2-4.5L50 181c1.24 0 1.576-2 4-2 0 5.96 6 12.308 6 18ZM397 197l3 2c0-5.942 6-11.628 6-18 0-2.109-2.535-2-4-2 0 6.348-5 11.784-5 18Z"/><path fill="#97D6F9" id="STR" d="m222 180-1 1 1-1Z"/><path fill="#A8AAAA" id="VL" d="M266 189c0 1.667-2 4.638-2 2 0-1.741-.773-11 1-11l1 9Z"/><path fill="#1F9766" id="AId6b" d="M359 190h1l1-3-2-2v5ZM97 190l1 1-1-5h-1v1l1 3Z"/><path fill="#209666" id="AId6a" d="M92 205c0 1.374-2.626 1-4 1l-1-3-1-1v-1l-1-1v-2l-1-2v-1l-1-1v-3c4.49 0 7.866-4 13-4l1 3c-9.07 0-5 10.015-5 15Z"/><path fill="#97D6F9" id="STR" d="M221 187c-1.473 0-1 1.952-1 3 1.473 0 1-1.952 1-3Z"/><path fill="#209666" id="AId6a" d="m369 205-1 1c0-1.088-3.299-1-4-1 0-4.498 4.058-15-4-15l1-3c5.043 0 8.415 4 13 4v1c-1.473 0-1 1.952-1 3l-1 2-1 2v1l-1 1v2l-1 2Z"/><path fill="#97D6F9" id="STR" d="M188 195h7l-3-6c0 6.321-.337 1-2 1-1.014 0-2 3.959-2 5ZM236 189c1.684 0 1 4.679 1 6-1.684 0-1-4.679-1-6ZM262 195h7l-3-6c0 1.667-2 4.638-2 2l-2 4Z"/><path fill="#8ADA86" id="CLA" d="M97 209h1l1-1h1l1-1v-7c-1.014 0-2-3.959-2-5v-2l-1-2-1-1c-9.07 0-5 10.015-5 15 1.539 0 2.187 4 5 4ZM358 209h1c2.813 0 3.461-4 5-4 0-4.498 4.058-15-4-15h-1v1l-1 1-1 2v2c0 1.296-.825 7-2 7 0 2.813 3 3.921 3 6Z"/><path fill="#209666" id="AId6a" d="m98 191 1 2-1-2ZM359 191l-1 1 1-1Z"/><path fill="#219864" id="AIp5" d="M81 215h4l5-3c-1.473 0-1-1.952-1-3v-1l-1-1v-1l-1-3-1-1v-1l-1-1v-2l-1-2v-1l-1-1v-2c-4.187 0-9.088 3-13 3 0 7.461 11 13.19 11 20Z"/><path fill="#209666" id="AId6a" d="m358 192-1 2 1-2Z"/><path fill="#219864" id="AIp5" d="M371 215h4c0-4.769 11-12.856 11-20-3.346 0-8.345-3-12-3-1.473 0-1 1.952-1 3l-1 2-1 2v1l-1 1v2l-1 2-1 1v2l-1 1v4l4 2Z"/><path fill="#209766" id="AIp6a" d="m83 194 1 1-1-1Z"/><path fill="#209865" id="AIp2/3" d="M81 215c0 1.259-8.632 4-10 4l-11-22c3.091 0 5.478-2 8-2h2c0 7.461 11 13.19 11 20Z"/><path fill="#209666" id="AId6a" d="M99 195c1.638 0 2 3.576 2 5-1.014 0-2-3.959-2-5Z"/><path fill="#97D6F9" id="STR" d="m188 195-1 1 1-1Z"/><path fill="#B3C0DE" id="BST" d="M199 229h1l1-1c0-2.298 3.523-8 6-8v-9c0-3.804-4-6.885-4-10l-8-6h-7l-1 1c0 4.596-1 8.746-1 14 2.203 0 4.569-3.465 7.5-2 5.781 2.891 4.164 11.418-1 14-4.429 2.215-5.249-2-8.5-2l-1 2c0 2.097 1 5.293 1 8 2.681 0 8.316 2.592 11.5 1l3.5-2Z"/><path fill="#97D6F9" id="STR" d="M220 195v2l-1-2h1ZM261 195l-1 1 1-1Z"/><path fill="#B3C0DE" id="BST" d="m257 229 4.5 2c2.977 1.489 8.046-1 10.5-1l1-8-1-1-4.5 2c-4.34-2.17-14.824-10.088-5-15 3.937-1.969 5.877 3 8.5 3 0-5.325-2-12.038-2-15v-1h-8l-1 1c-1.252 0-5 3.172-5 4l-1 1-1 1-1 1c0 3.083-3 5.545-3 9 0 2.707 1 5.903 1 8 3.937 0 3.193 9 7 9Z"/><path fill="#209766" id="AIp6a" d="m373 195-1 2 1-2Z"/><path fill="#209865" id="AIp2/3" d="M375 215c0 .956 8.939 4 10 4 0-5.416 11-14.634 11-22-2.833 0-4.84-2-7-2h-3c0 7.144-11 15.231-11 20Z"/><path fill="#209766" id="AIp6a" d="m84 196 1 2-1-2Z"/><path fill="#97D6F9" id="STR" d="M177 221c2.124 0 4.436 1 6 1l1-2c0-3.77 2-7.021 2-10 0-5.254 1-9.404 1-14-2.595 0-10 21.568-10 25ZM273 222h7c0-3.484-8.019-26-11-26 0 2.962 2 9.675 2 15l2 4.5-1 5.5 1 1Z"/><path fill="#209666" id="AId6a" d="M357 196c-2.273 0-2 5.226-2 7 1.175 0 2-5.704 2-7Z"/><path fill="#219765" id="AIp1" d="m71 219-5 2-3-5.5c-2.261-4.523-6-11.267-6-16.5l3-2 11 22Z"/><path fill="#209766" id="AIp6a" d="m372 197-1 2 1-2Z"/><path fill="#219765" id="AIp1" d="m385 219 6 2c0-6.166 9-15.204 9-22l-3-2h-1c0 7.366-11 16.584-11 22Z"/><path fill="#209766" id="AIp6a" d="m85 200 1 1-1-1Z"/><path fill="#97D6F9" id="STR" d="m255 200-1 1 1-1Z"/><path fill="#209766" id="AIp6a" d="m371 200-1 1 1-1Z"/><path fill="#209666" id="AId6a" d="M101 204h1c0-1.048.473-3-1-3v3Z"/><path fill="#97D6F9" id="STR" d="m218 220 2 2v-20c-2.013 0 .156 10.328-6.5 7-2.422-1.211-6.896-8-10.5-8 0 3.115 4 6.196 4 10l2 3c4.677 0 9-1.116 9 6Z"/><path fill="#209665" id="AId5" d="m86 202 1 1-1-1Z"/><path fill="#97D6F9" id="STR" d="m253 202-1 1 1-1ZM239 219l-3 4c0-5.139 1-10.395 1-16 1.284 0 2.561 3.47 5.5 2 3.64-1.82 5.083-6 9.5-6 0 3.083-3 5.545-3 9l-2 2c-4.111 0-8-1.895-8 5Z"/><path fill="#1F9866" id="AIv6a" d="m356 208 2 1c0-2.079-3-3.187-3-6-1.473 0-1 1.952-1 3l2 2Z"/><path fill="#209665" id="AId5" d="m370 203-1 2 1-2Z"/><path fill="#1F9866" id="AIv6a" d="m102 206-1 1v-3h1v2ZM95 211l-5 1c0-1.048.473-3-1-3v-1l-1-1v-1c1.374 0 4 .374 4-1 1.539 0 2.187 4 5 4l-2 2ZM367 211l-1 1c-2.483 0-4.026-2-6-2l-1-1c2.813 0 3.461-4 5-4 .701 0 4-.088 4 1v2l-1 1v2Z"/><path fill="#8AD987" id="CTXsp" d="M105 209v1c-1.624 0-2.75-2-5-2l1-1 1-1 3 3ZM356 208l-3 1v-2l1-1 2 2Z"/><path fill="#1F9865" id="AIv5" d="m88 207 1 1-1-1Z"/><path fill="#C8CBCC" id="ec" d="M352 209h1v-2l-1 2Z"/><path fill="#1F9866" id="AIv6a" d="m99 208-1 1 1-1Z"/><path fill="#A0EE9C" id="EPd" d="m103 227 7 2c0-1.916 3-.07 3-3l-2-4-6-12c-1.624 0-2.75-2-5-2h-1l-1 1h-1l-2 2-1 5.5c.579 1.157 3 5.491 3 6.5l1 1 3 3h2Z"/><path fill="#CBCBC7" id="aco" d="M186 210c2.203 0 4.569-3.465 7.5-2 5.781 2.891 4.164 11.418-1 14-4.429 2.215-5.249-2-8.5-2 0-3.77 2-7.021 2-10ZM271 211c-2.623 0-4.563-4.969-8.5-3-9.824 4.912.66 12.83 5 15l4.5-2 1-5.5-2-4.5Z"/><path fill="#A0EE9C" id="EPd" d="m353 228-6 1-4-2v-2l1-2 1-1 1-1 1-1 4-10 1-1h1l3-1 2 1h1l1 1 2 2.5-1 8.5-1 2-1 1-1 1h-1l-1 1-1 1h-1l-1 1Z"/><path fill="#1F9865" id="AIv5" d="m368 208-1 1 1-1ZM89 209c1.473 0 1 1.952 1 3-1.473 0-1-1.952-1-3Z"/><path fill="#C8CBCC" id="ec" d="m352 209-1 1 1-1Z"/><path fill="#99D2BD" id="OLF" d="M371 215c-6.099 0-8.295 6-10 6l1-8.5-2-2.5c1.974 0 3.517 2 6 2l1 1 4 2ZM85 215c7.279 0 9.266 8 12 8 0-1.009-2.421-5.343-3-6.5l1-5.5-5 1-5 3Z"/><path fill="#E64438" id="HY" d="m228 244-2 1v-1c0-21.534-20-8.889-20 1-1.007 0-1.422-2-5-2l1-5c7.2 0 5-14.647 5-18v-9l2 3c0 9.977 9 18.092 9 6l2 2c0 2.22 2.992 13 6 13 0 3.157 2 5.481 2 9Z"/><path fill="#1F9865" id="AIv5" d="m366 212 1 1v-2l-1 1Z"/><path fill="#E64438" id="HY" d="M255 242c-1.465 0-4-.109-4 2l-4.5-7c-1.865-.933-8.892-7.054-11-6l-2.5 2 3-10 3-4c0 13.408 8 4.33 8-5l2-2c0 2.707 1 5.903 1 8l-2 3.5c-1.616 3.231 2.931 14.5 7 14.5v4Z"/><path fill="#FF5547" id="ADP" d="M209 214c4.677 0 9-1.116 9 6 0 12.092-9 3.977-9-6ZM247 214c-4.111 0-8-1.895-8 5 0 13.408 8 4.33 8-5Z"/><path fill="#6ACAB9" id="PIR" d="M117 266h3l5-4 1-1 2-4.5c2.237-4.474-1.373-11.745-3-15-2.501-5.001-22-13.446-22-14.5h-2l-3-3-1-1c-2.734 0-4.721-8-12-8h-4c0 1.259-8.632 4-10 4l-5 2c0 7.953 14.555 23.055 20.5 29l8.5 8c0-1.267 7.973 1.237 9.5 2 2.784 1.392 12.5.351 12.5 6ZM337 266h2c0-5.3 20.229-8 23-8l9-8.5c3.52-7.039 20-20.74 20-28.5l-6-2c-1.061 0-10-3.044-10-4h-4c-6.099 0-8.295 6-10 6l-1 2-1 1-1 1h-1l-1 1-1 1h-1l-1 1c0 1.323-10.113 5-12 5 0 .48-9.724 7.947-11 10.5-3.343 6.687 0 11.131 0 17.5l7 5Z"/><path fill="#FD5446" id="PS" d="M197 233c0 1.925 3.075 5 5 5 7.2 0 5-14.647 5-18-2.477 0-6 5.702-6 8l-1 1h-1l-2 4ZM259 233c0 1.562-2.189 5-4 5-4.069 0-8.616-11.269-7-14.5l2-3.5c3.937 0 3.193 9 7 9l2 4Z"/><path fill="#C8CBCC" id="ec" d="m347 220-1 1 1-1Z"/><path fill="#80CDF8" id="ACB" d="M181 240c0 2.41-7.149 3.799-8 5.5-2.815 5.63-19.947 20.277-29.5 15.5l-8.5-4c0-5.986-7-12.128-7-18 0-3.721 6-1.969 6-4 13.838 0 34.071 2.358 41-11.5l2-2.5c2.124 0 4.436 1 6 1 0 2.097 1 5.293 1 8l-1 9h-1l-1 1ZM322 256l-1 1-5.5 3c-6.597 3.298-14.516-.258-20-3-3.882-1.941-17.469-18-21.5-18 0-2.755-2-5.553-2-9l1-8h7c0 2.224 2.386 2.272 3 3.5 5.714 11.428 26.605 9.5 40 9.5 0 1.773 6 .513 6 4l-1 1c0 4.943-6 10.681-6 16Z"/><path fill="#C8CBCC" id="ec" d="m346 221-1 1 1-1Z"/><path fill="#99D2BD" id="OLF" d="m361 221-1 2 1-2Z"/><path fill="#C8CBCC" id="ec" d="M113 226c1.947 0 2.636 3 5 3l-7-7 2 4ZM344 223l-1 2 1-2Z"/><path fill="#99D2BD" id="OLF" d="m98 224 3 3-3-3ZM359 224l-1 1 1-1Z"/><path fill="#C8CBCC" id="ec" d="M341 227h2v-2c-1.747 0-2 .253-2 2Z"/><path fill="#99D2BD" id="OLF" d="m357 225-1 1 1-1Z"/><path fill="#8AD987" id="CTXsp" d="M122 232v3l-12-6c0-1.916 3-.07 3-3 1.947 0 2.636 3 5 3h1l1 1 1 1 1 1Z"/><path fill="#99D2BD" id="OLF" d="m356 226-1 1 1-1ZM126 261h1l8-4c0-5.986-7-12.128-7-18l-6-4-12-6-7-2c0 1.054 19.499 9.499 22 14.5 1.627 3.255 5.237 10.526 3 15l-2 4.5Z"/><path fill="#C8CBCC" id="ec" d="M341 227c-1.238 0-3 .423-3 2 1.238 0 3-.423 3-2Z"/><path fill="#8AD987" id="CTXsp" d="m341 233-6 2-1-3 1-1 2-1 1-1c1.238 0 3-.423 3-2h2l4 2c-1.664 0-6 1.823-6 4Z"/><path fill="#99D2BD" id="OLF" d="m354 227-1 1 1-1Z"/><path fill="#E64438" id="HY" d="m201 228-1 1 1-1Z"/><path fill="#99D2BD" id="OLF" d="M347 229c-1.664 0-6 1.823-6 4 1.887 0 12-3.677 12-5l-6 1Z"/><path fill="#C8CBCC" id="ec" d="m119 229 1 1-1-1Z"/><path fill="#E64438" id="HY" d="M197 233c-4.508 0-9.612 6-14 6l1-9c2.681 0 8.316 2.592 11.5 1l3.5-2-2 4ZM259 233l15 6c0-2.755-2-5.553-2-9-2.454 0-7.523 2.489-10.5 1l-4.5-2 2 4Z"/><path fill="#C8CBCC" id="ec" d="m338 229-1 1 1-1Z"/><path fill="#97D6F9" id="STR" d="m120 230 1 1-1-1Z"/><path fill="#FF5346" id="MPO" d="m213 265-6 3c0-2.926-2.991-7-6-7v-1c0-4.775 5-9.519 5-15 0-9.889 20-22.534 20-1-2.123 0-7 4.878-7 7-1.298 0-3.373-3.563-6.5-2-4.206 2.103-11.301 9.849-5 13 2.542 1.271 5.368-2 7.5-2l-1 4-1 1ZM243 265l7 3c0-2.683 1.741-7 5-7v-1c0-5.349-4-9.662-4-16l-4.5-7c-1.865-.933-8.892-7.054-11-6l-2.5 2-1 2-1 1-1 7c1.489 0 5.994 4.489 7 6.5.523 1.046-.951 3.5 1 3.5 0-12.307 20.093 4.703 11.5 9-3.025 1.513-5.87-2-8.5-2l2 5Z"/><path fill="#97D6F9" id="STR" d="m335 231-1 1 1-1ZM134 235c0 2.031-6 .279-6 4l-6-4v-3c4.049 0 7.132 3 12 3ZM335 235c-2.773 0-3.67 4-6 4 0-3.487-6-2.227-6-4 4.48 0 7.432-3 11-3l1 3Z"/><path fill="#A2B1D7" id="SI" d="M181 276v1c-8.449 0-25.696 4.402-34.5 0l-9-6-10.5-10 8-4 8.5 4c9.553 4.777 26.685-9.87 29.5-15.5.851-1.701 8-3.09 8-5.5l1-1h1c4.388 0 9.492-6 14-6 0 1.925 3.075 5 5 5l-1 5c0 2.016-11.246 20-14 20l-2 2c-6.38 0-9.598 11-4 11Z"/><path fill="#E64438" id="HY" d="m233 233-1 2 1-2Z"/><path fill="#A2B1D7" id="SI" d="M275 276v1c16.268 0 33.782 4.718 47-8.5 2.198-2.198 7-4.443 7-7.5-1.122 0-7-2.632-7-4h-1l-5.5 3c-6.597 3.298-14.516-.258-20-3-3.882-1.941-17.469-18-21.5-18l-15-6c0 1.562-2.189 5-4 5v4c0 6.625 15 19.721 15 22l1 1c6.856 0 9.895 11 4 11Z"/><path fill="#99D2BD" id="OLF" d="M329 261h1c0-6.369-3.343-10.813 0-17.5 1.276-2.553 11-10.02 11-10.5l-6 2c-2.773 0-3.67 4-6 4l-1 1c0 4.943-6 10.681-6 16v1c0 1.368 5.878 4 7 4Z"/><path fill="#E64438" id="HY" d="m232 235-1 1v-1h1ZM229 244l1 1v-2l1-7c-2.991 0-2 6.051-2 8ZM182 239l-1 1 1-1Z"/><path fill="#97D6F9" id="STR" d="m329 239-1 1 1-1Z"/><path fill="#F2473B" id="LPO" d="M187 263v2c4.537 0 8.286-4 13-4l1-1c0-4.775 5-9.519 5-15-1.007 0-1.422-2-5-2 0 2.016-11.246 20-14 20ZM269 265h1v-1c0-2.279-15-15.375-15-22-1.465 0-4-.109-4 2 0 6.338 4 10.651 4 16l1 1c4.882 0 8.606 4 13 4Z"/><path fill="#FE5446" id="AVPV" d="m231 270 12 3v-8l-2-5c0-2.232-3-4.029-3-7-1.951 0-.477-2.454-1-3.5-1.006-2.011-5.511-6.5-7-6.5v2c0 3.312 1 8.038 1 12v13ZM223 271h1l1-1v-13c0-4.107 1-8.469 1-12v-1c-2.123 0-7 4.878-7 7 0 3.351-3 5.596-3 8l-1 1-1 4-1 1v8l10-2Z"/><path fill="#FF5445" id="MEPO" d="M225 257h6c0-3.962-1-8.688-1-12l-1-1h-1l-2 1c0 3.531-1 7.893-1 12Z"/><path fill="#FE5447" id="AVP" d="m216 259-1 1c-2.132 0-4.958 3.271-7.5 2-6.301-3.151.794-10.897 5-13 3.127-1.563 5.202 2 6.5 2 0 3.351-3 5.596-3 8ZM238 253c0 2.971 3 4.768 3 7 2.63 0 5.475 3.513 8.5 2 8.593-4.297-11.5-21.307-11.5-9Z"/><path fill="#FD5447" id="OV" d="m231 270-1 1-5-1v-13h6v13Z"/><path fill="#97D6F9" id="STR" d="M321 257h1v-1l-1 1Z"/><path fill="#CAC8C7" id="lot" d="m118 269-1 4c-2.213 0-22-13.142-22-15 0-1.267 7.973 1.237 9.5 2 2.784 1.392 12.5.351 12.5 6l1 3ZM339 272l1 1c2.859 0 3.197-2.849 5.5-4 3.469-1.735 16.5-6.606 16.5-11-2.771 0-23 2.7-23 8v6Z"/><path fill="#FF5346" id="MPO" d="m216 259-1 1 1-1Z"/><path fill="#CBCCCB" id="mfb" d="M200 261h1v-1l-1 1ZM255 261h1l-1-1v1Z"/><path fill="#99D2BD" id="OLF" d="m126 261-1 1 1-1Z"/><path fill="#7FCCF7" id="OT" d="M181 277c4.537 0 10 1.711 10 7 0 10.455-13.758 9.129-19.5 12-15.115 7.557-31.752 3.248-43.5-8.5-3.525-3.525-9-7.678-9-12.5v-6l1-3 5-4 1-1h1l10.5 10 9 6c8.804 4.402 26.051 0 34.5 0Z"/><path fill="#96A6D3" id="NDB" d="M199 277h1l1-1 1-1h1c0-2.367 4-4.032 4-7 0-2.926-2.991-7-6-7h-1c-4.714 0-8.463 4-13 4l-1 2-1 7 7.5 4 6.5-1ZM255 276l2 1 7.5 1 6.5-3v-7l-1-1v-1l-1-1c-4.394 0-8.118-4-13-4h-1c-3.259 0-5 4.317-5 7 0 2.971 3 4.768 3 7h1l1 1Z"/><path fill="#7FCCF7" id="OT" d="M275 277c-3.435 0-10 1.75-10 6 0 10.889 13.11 9.805 19.5 13 14.098 7.049 25.286 3.357 38-3l4-4c3.256-1.628 10.5-9.068 10.5-13l1-7-1-3-7-5h-1c0 3.057-4.802 5.302-7 7.5-13.218 13.218-30.732 8.5-47 8.5Z"/><path fill="#E64438" id="HY" d="m187 265-1 2-1-2 2-2v2ZM214 264l-1 1 1-1ZM270 265h1l-1-1v1Z"/><path fill="#A2B1D8" id="MA" d="M185 274c0 2.109-2.535 2-4 2-5.598 0-2.38-11 4-11l1 2-1 7Z"/><path fill="#E64438" id="HY" d="m213 273-10 2c0-2.367 4-4.032 4-7l6-3v8ZM243 273l10 2c0-2.232-3-4.029-3-7l-7-3v8ZM270 265v1l-1-1h1Z"/><path fill="#A2B1D8" id="MA" d="m272 275 3 1c5.895 0 2.856-11-4-11h-1v2l1 1v6l1 1Z"/><path fill="#99D2BD" id="OLF" d="M118 269h1l1-3h-3l1 3ZM338 269h1v-3h-2l1 3Z"/><path fill="#E64438" id="HY" d="m270 267 1 1-1-1Z"/><path fill="#97D6F9" id="STR" d="m117 273 2 2v-6h-1l-1 4ZM339 273c0 1.238-.423 3-2 3l1-7h1v4Z"/><path fill="#CAC7CB" id="fiber tracts" d="M209 285c0 2.729 5.007 1.254 6.5 2 3.757 1.878 22.243 1.878 26 0 1.319-.659 5.5.334 5.5-2-6.156 0-10-6.703-10-11-2.232 0-4.029-3-7-3 0 3.784-4.286 0-6 0h-1l-3 3c0 5.288-5.664 11-11 11Z"/><path fill="#99D2BD" id="OLF" d="M339 273h1l-1-1v1Z"/><path fill="#8599CC" id="PAL" d="M199 277c0 2.118-6.011 7-8 7 0-5.289-5.463-7-10-7v-1c1.465 0 4 .109 4-2l7.5 4 6.5-1Z"/><path fill="#CBCCC7" id="IIn" d="M220 274c-7.637 0-11 5.034-11 11 5.336 0 11-5.712 11-11ZM237 274c3.798 0 10.057 3.614 12 7.5l-2 3.5c-6.156 0-10-6.703-10-11Z"/><path fill="#E64438" id="HY" d="M271 275h1l-1-1v1ZM202 275l-1 1 1-1ZM254 275l1 1-1-1Z"/><path fill="#8599CC" id="PAL" d="M275 277c-3.435 0-10 1.75-10 6-1.822 0-8-3.711-8-6l7.5 1 6.5-3h1l3 1v1ZM201 276l-1 1 1-1Z"/></svg>