<svg xmlns="http://www.w3.org/2000/svg" viewBox="0 0 456 320"><path fill="#1E9D5A" id="MOp1" d="M197 29h1v-4c-8.932 0-18.732 1-27 1l-2 6c9.464 0 19-3 28-3Z"/><path fill="#1E9C59" id="MOs1" d="M222 43h1l4-3-4-3.5c-4.931-9.861-14.89-11.5-25-11.5v4c7.35 0 24 3.998 24 14ZM230 40l4 3c0-8.759 17.108-14 25-14l-1-4c-7.384 0-12.483.991-18.5 4l-5 6c-1.319.66-4.5 2.871-4.5 5Z"/><path fill="#1E9D5A" id="MOp1" d="M259 29c9.019 0 18.634 3 28 3l-1-6c-8.675 0-18.684-1-28-1l1 4Z"/><path fill="#187F60" id="SSp-ll1" d="m135 35 2 5c9.17 0 21.228-8 32-8l2-6c-12.397 0-26.861 9-36 9ZM318 40h1l2-5c-7.622 0-23.355-9-35-9l1 6c10.065 0 23.69 8 31 8Z"/><path fill="#1F9C58" id="MOp2/3" d="M166 47v6c4.413 0 19.469-13 29-13 0-3.62 2-6.768 2-11-9 0-18.536 3-28 3 0 4.954-3 9.896-3 15Z"/><path fill="#1E9D58" id="MOs2/3" d="M216 47h1l5-4c0-10.002-16.65-14-24-14h-1c0 4.232-2 7.38-2 11 4.696 0 21-1.97 21 7ZM240 47h1c0-9.223 15.331-7 20-7 0-4.178-2-6.493-2-11-7.892 0-25 5.241-25 14 2.363 0 4.713 4 6 4Z"/><path fill="#1F9C58" id="MOp2/3" d="m290 47 1 6c-5.351 0-19.964-13-30-13 0-4.178-2-6.493-2-11 9.019 0 18.634 3 28 3 0 4.956 3 9.355 3 15Z"/><path fill="#187F64" id="SSp-ll2/3" d="M166 47c-6.604 0-15.708 6-21 6 0-2.062-5.505-12-8-12v-1c9.17 0 21.228-8 32-8 0 4.954-3 9.896-3 15ZM290 47c7.637 0 13.516 5 21 5 2.209 0 7-10.059 7-12-7.31 0-20.935-8-31-8 0 4.956 3 9.355 3 15Z"/><path fill="#197E64" id="SSp-ul1" d="M109 48c0 2.25 2 3.376 2 5 7.123 0 17.526-12 26-12v-1l-2-5c-6.08 0-15.086 7.293-20.5 10-1.216.608-5.5 1.184-5.5 3ZM346 53h1c0-1.69 1-3.148 1-5l-5.5-3c-4.764-2.382-16.623-10-21.5-10l-2 5c0 1.9 6.118 2.31 7.5 3 5.426 2.713 13.291 10 19.5 10Z"/><path fill="#1F9D58" id="MOs5" d="M190 56c2.071 0 15-3.598 15 1l11-10c0-8.97-16.304-7-21-7 0 5.605-5 10.607-5 16ZM251 57h1c0-4.436 12.194-1 14-1l-5-16c-4.669 0-20-2.223-20 7l10 10Z"/><path fill="#1E9C5A" id="MOp5" d="M189 57c-6.981 0-17.165 12-25 12 0-5.897 1-10.742 1-16h1c4.413 0 19.469-13 29-13 0 5.605-5 10.607-5 16l-1 1Z"/><path fill="#3EA665" id="ACAd1" d="M223 66h10c0-7.694 1-15.926 1-23l-4-3c-.488 0-3 5.5-3 0l-4 3v23Z"/><path fill="#1E9C5A" id="MOp5" d="M267 57c7.867 0 17.094 12 26 12 0-6.465-2-10.1-2-16-5.351 0-19.964-13-30-13l5 16 1 1Z"/><path fill="#197F61" id="SSp-ul2/3" d="M346 53c0 2.53-2.35 13-5 13-6.891 0-20.977-13-30-13v-1c2.209 0 7-10.059 7-12h1c0 1.9 6.118 2.31 7.5 3 5.426 2.713 13.291 10 19.5 10ZM110 54c1.92 0 2.455 12 5 12 10.135 0 19.44-13 30-13 0-2.062-5.505-12-8-12-8.474 0-18.877 12-26 12l-1 1Z"/><path fill="#40A565" id="ACAd2/3" d="m223 66-5 1-1-20 5-4h1v23ZM233 66l6 1c0-6.573 1-14.1 1-20-1.287 0-3.637-4-6-4 0 7.074-1 15.306-1 23Z"/><path fill="#1C7F64" id="SSp-ll4" d="M165 53h1v-6c-6.604 0-15.708 6-21 6l3 7 17-7Z"/><path fill="#3EA566" id="ACAd5" d="m218 67-11 6c0-5.166-2-10.28-2-15v-1l11-10h1l1 20ZM249 73h1c0-5.605 1-10.86 1-16l-10-10h-1c0 5.9-1 13.427-1 20v1c1.841 0 10 3.297 10 5Z"/><path fill="#1C7F64" id="SSp-ll4" d="M308 60h1l2-7v-1c-7.484 0-13.363-5-21-5l1 6 17 7Z"/><path fill="#1B8062" id="SSp-un1" d="M92 64h1l3.5-2c3.828-1.914 9.139-8 13.5-8l1-1c0-1.624-2-2.75-2-5-5.83 0-14.875 11-19 11l2 5ZM363 64h1l3-4c0-1.113-17.104-12-19-12 0 1.852-1 3.31-1 5 0 4.87 16 6.415 16 11Z"/><path fill="#1A7F63" id="SSp-ul4" d="M117 75h1c0-1.761 6.15-3.325 7.5-4 5.985-2.992 15.757-11 22.5-11l-3-7c-10.56 0-19.865 13-30 13v1c0 2.709 2 4.646 2 8Z"/><path fill="#197C63" id="SSp-ll5" d="m163 70-10 3c0-4.238-5-9.215-5-13l17-7c0 5.258-1 10.103-1 16l-1 1ZM293 70c3.855 0 6.459 3 10 3l5-13-17-7c0 5.9 2 9.535 2 16v1Z"/><path fill="#1A7F63" id="SSp-ul4" d="M338 75h1l2-8v-1c-6.891 0-20.977-13-30-13l-2 7c0 1.55 6.228 2.364 7.5 3 4.824 2.412 13.283 5.283 17 9 1.171 1.17 4.5.774 4.5 3Z"/><path fill="#1C7F63" id="SSp-un2/3" d="m341 67 14 6c1.822 0 8-7.08 8-9 0-4.585-16-6.13-16-11h-1c0 2.53-2.35 13-5 13v1ZM115 67c-5.18 0-8.627 6-14 6l-8-9 3.5-2c3.828-1.914 9.139-8 13.5-8 1.92 0 2.455 12 5 12v1Z"/><path fill="#1D9C5A" id="MOs6a" d="M187 78h1c1.564 0 3.876-1 6-1 0-3.258 8.757-19 11-19v-1c0-4.598-12.929-1-15-1l-1 1c0 7.501-2 13.232-2 21ZM263 77l6 1c0-7.589-2-14.18-2-21l-1-1c-1.806 0-14-3.436-14 1 0 4.987 11 13.664 11 20Z"/><path fill="#1F9B5A" id="MOp6a" d="M171 85c-3.303 0-5.115 2-8 2V70l1-1c7.835 0 18.019-12 25-12 0 7.501-2 13.232-2 21v1c-2.365 0-16 5.107-16 6Z"/><path fill="#3FA664" id="ACAd6a" d="m260 79-2 2-8-8c0-5.605 1-10.86 1-16h1c0 4.987 11 13.664 11 20-1.238 0-3 .423-3 2Z"/><path fill="#1F9B5A" id="MOp6a" d="M269 79c8.96 0 16.19 8 25 8 0-6.296-1-10.236-1-17v-1c-8.906 0-18.133-12-26-12 0 6.82 2 13.411 2 21v1Z"/><path fill="#3FA664" id="ACAd6a" d="M198 81h1c0-2.073 6.148-7 8-7v-1c0-5.166-2-10.28-2-15-2.243 0-11 15.742-11 19 1.621 0 4 2.379 4 4Z"/><path fill="#197E63" id="SSp-n1" d="M54 113h1c0-10.99 14.788-28.288 23-36.5L92 64l-2-5c-4.375 0-7.725 7.113-11.5 9-11.572 5.786-19.42 22.338-24.5 32.5l-5 9.5c2.069 0 3.946 3 5 3Z"/><path fill="#187E62" id="SSp-ul5" d="m118 75 4 11c6.168 0 23.328-13 31-13 0-4.238-5-9.215-5-13-6.743 0-16.515 8.008-22.5 11-1.35.675-7.5 2.239-7.5 4ZM334 86h1c0-3.989 3-6.768 3-11 0-2.226-3.329-1.83-4.5-3-3.717-3.717-12.176-6.588-17-9-1.272-.636-7.5-1.45-7.5-3h-1l-5 13c8.473 0 24.874 13 31 13Z"/><path fill="#197E63" id="SSp-n1" d="m407 110-5 3c0-8.004-16.745-30.245-23-36.5L364 64l3-4c3.954 0 6.168 5.334 9.5 7 9.116 4.558 30.5 33.981 30.5 43Z"/><path fill="#1B7F64" id="SSp-n2/3" d="M62 119h1c0-3.231 2.636-5.772 4-8.5C72.653 99.194 84.807 74 101 74v-1l-8-9h-1L78 76.5c-8.212 8.212-23 25.51-23 36.5l7 6ZM393 119h1l8-6c0-8.004-16.745-30.245-23-36.5L364 64h-1c0 1.92-6.178 9-8 9v1c14.183 0 38 32.201 38 45Z"/><path fill="#3FA566" id="ACAv2/3" d="m222 98-3 1c0-9.866-1-21.451-1-32l5-1c0 10.355-1 21.268-1 31v1Z"/><path fill="#40A664" id="ACAv1" d="m227 91-5 6c0-9.732 1-20.645 1-31h10c0 10.554 1 20.953 1 31l-5-7c0-5.44-2-3.2-2 1Z"/><path fill="#3FA566" id="ACAv2/3" d="m234 98 4 1 1-31v-1l-6-1c0 10.554 1 20.953 1 31v1Z"/><path fill="#197E61" id="SSp-un4" d="m117 75-10 5c-4.119 0-1.909-6-6-6v-1c5.373 0 8.82-6 14-6 0 2.709 2 4.646 2 8Z"/><path fill="#3EA666" id="ACAv5" d="M211 98c2.882 0 5.469 1 8 1 0-9.866-1-21.451-1-32l-11 6v1c0 8.31 3 15.36 3 23l1 1Z"/><path fill="#197E61" id="SSp-un4" d="M349 81h1c0-2.395 5-5.527 5-7v-1l-14-6-2 8c1.76 0 10 3.946 10 6Z"/><path fill="#3EA666" id="ACAv5" d="M245 98c-2.607 0-4.913 1-7 1l1-31c1.841 0 10 3.297 10 5 0 8.398-2 15.253-2 23l-1 1-1 1Z"/><path fill="#1A7F64" id="SSp-ll6a" d="m163 87-5 2-5-16 10-3v17ZM294 87l4 2c1.918 0 5-13.8 5-16-3.541 0-6.145-3-10-3 0 6.764 1 10.704 1 17Z"/><path fill="#197D61" id="SSp-ul6a" d="M128 102h1l2-1c0-1.291 8.283-4 10-4 0-1.183 3.57-1.535 4.5-2 2.928-1.464 8.209-4 11.5-4l1-1v-1l-5-16c-7.672 0-24.832 13-31 13v1c1.951 0 .477 2.454 1 3.5 1.779 3.557 5 7.303 5 11.5Z"/><path fill="#40A564" id="ACAv6a" d="m249 95-2 1c0-7.747 2-14.602 2-23h1l8 8c0 4.28-7 7.8-7 12-1.747 0-2 .253-2 2Z"/><path fill="#197D61" id="SSp-ul6a" d="M298 90c2.678 0 3.323 1.911 5.5 3 1.266.633 23.866 8 24.5 8 .836 0 6-13.296 6-15-6.126 0-22.527-13-31-13 0 2.2-3.082 16-5 16v1Z"/><path fill="#1A8062" id="SSp-n4" d="m63 119 6 4c0-8.281 20.864-31.682 27.5-35 2.994-1.497 7.149-7 10.5-7v-1c-4.119 0-1.909-6-6-6-16.193 0-28.347 25.194-34 36.5-1.364 2.728-4 5.269-4 8.5Z"/><path fill="#40A564" id="ACAv6a" d="m208 95 2 2c0-7.64-3-14.69-3-23-1.852 0-8 4.927-8 7 0 5.067 9 11.364 9 14Z"/><path fill="#1A8062" id="SSp-n4" d="M387 123h1l5-4c0-12.799-23.817-45-38-45 0 1.473-5 4.605-5 7l8.5 6c7.807 3.903 28.5 26.719 28.5 36Z"/><path fill="#197D62" id="SSp-un5" d="M112 91h1c3.242 0 5.319-4 9-4v-1l-4-11h-1l-10 5v1l5 10ZM344 91h1c0-4.193 4-6.106 4-10 0-2.054-8.24-6-10-6h-1c0 4.232-3 7.011-3 11 0 1.012 7.673 5 9 5Z"/><path fill="#1E9C58" id="MOs6b" d="m194 78-6 1v-1c1.564 0 3.876-1 6-1v1Z"/><path fill="#3FA466" id="ACAd6b" d="M197 81h1c0-1.621-2.379-4-4-4v1l3 3ZM263 78l-3 1c0-1.577 1.762-2 3-2v1Z"/><path fill="#1E9C58" id="MOs6b" d="M269 78v1l-6-1v-1l6 1Z"/><path fill="#1D9D5A" id="MOp6b" d="M187 79h1v-1h-1v1Z"/><path fill="#CACCC7" id="cing" d="m210 97 1 1c-10.251 0-12.98-10.24-20.5-14-6.422-3.211-14.834 5-20.5 5l-2 1c-1.321 0-6 .684-6-1h1l8-4c2.445 0 16-4.844 16-6h1l6-1 3 3c0 3.39 6.98 14 11 14l2 2ZM246 97l-1 1c9.655 0 14.022-10.26 21.5-14 6.4-3.2 14.612 5 20.5 5 .969 0 7 2.614 7 0-4.227 0-15.391-5.945-19.5-8-1.319-.66-5.5.334-5.5-2l-6-1-3 1-1 2c0 3.08-4.856 12-8 12l-2 2-2 1-1 1Z"/><path fill="#1D9D5A" id="MOp6b" d="M187 79c-2.365 0-16 5.107-16 6 2.445 0 16-4.844 16-6Z"/><path fill="#3FA466" id="ACAd6b" d="M258 81h1l1-2-2 2Z"/><path fill="#1D9D5A" id="MOp6b" d="M294 87v2c-4.227 0-15.391-5.945-19.5-8-1.319-.66-5.5.334-5.5-2 8.96 0 16.19 8 25 8Z"/><path fill="#197E62" id="SSp-n5" d="M77 131h1c0-6.481 12.508-27.004 18.5-30 2.07-1.035 15.5-8.315 15.5-10l-5-10c-3.351 0-7.506 5.503-10.5 7-6.636 3.318-27.5 26.719-27.5 35v1c2.038 0 8 5.366 8 7Z"/><path fill="#40A465" id="ACAv6b" d="M199 81c0 5.067 9 11.364 9 14-4.02 0-11-10.61-11-14h2ZM259 81c0 3.08-4.856 12-8 12 0-4.2 7-7.72 7-12h1Z"/><path fill="#197E62" id="SSp-n5" d="m387 123-8 7c0-5.372-15.245-27.372-20.5-30-2.305-1.153-13.5-5.865-13.5-9 0-4.193 4-6.106 4-10h1l8.5 6c7.807 3.903 28.5 26.719 28.5 36Z"/><path fill="#C9C7C9" id="ccb" d="m88 155-1 5 4.5-8c3.07-3.07 5.515-10.53 7.5-14.5 1.467-2.934 6.183-6.365 8-10l7.5-6.5c4.113-2.056 8.159-8.58 13-11 13.675-6.838 21.109-7 36.5-7 0-5.648 10.713-10 16-10 1.923 0 9-.156 9 2h1l3 2h1l4 3h1l1 1h1l2 2c6.666 0 11.904 4 18 4h14c6.406 0 11.165-4 18-4l4-2 1-1 1-1h1l1-1 2-1 2-1 2-1c0-1.93 6.225-2 8-2 4.786 0 18 3.586 18 10 12.89 0 23.059.279 34.5 6 3.705 1.853 7.022 6.511 10 8l13.5 12.5c4.56 9.12 11.5 16.999 16 26 .696 1.391 2.391 8.5 4 8.5 0-3.647-3-6.586-3-10l-1-1v-2l-2-4v-1c-1.577 0-2-1.762-2-3v-1c-1.577 0-2-1.762-2-3v-1c-2.141 0-4.998-7.498-6.5-9-7.625-7.625-14.491-17.245-24-22-10.917-5.458-23.114-7.557-34-13-1.746-.873-9.5-2.53-9.5-5-5.888 0-14.1-8.2-20.5-5-7.478 3.74-11.845 14-21.5 14-2.607 0-4.913 1-7 1l-4-1c0 1.397-12 1.561-12 0l-3 1c-2.531 0-5.118-1-8-1-10.251 0-12.98-10.24-20.5-14-6.422-3.211-14.834 5-20.5 5l-2 1-11.5 6c-9.732 4.866-21.172 6.086-31 11-3.133 1.566-6.893 7-10.5 7l-3 3-1 1-4 4-1 1c0 1.952-6.864 12-9 12 0 1.465.109 4-2 4l-1 2-1 2-1 2-1 2-1 2v1l-1 2v2l-1 1Z"/><path fill="#1D9D5A" id="MOp6b" d="M163 87v2l8-4c-3.303 0-5.115 2-8 2Z"/><path fill="#1A7F61" id="SSp-un6a" d="m328 102 8 4 8-15c-1.327 0-9-3.988-9-5h-1c0 1.704-5.164 15-6 15v1ZM124 105l-3 1c0-2.253-8-10.743-8-15 3.242 0 5.319-4 9-4 1.951 0 .477 2.454 1 3.5 1.779 3.557 5 7.303 5 11.5l-4 3Z"/><path fill="#197F62" id="SSp-ll6b" d="M158 90h1l3-1h1v-2l-5 2v1ZM298 90v1l-4-2v-2l4 2v1Z"/><path fill="#C9C9CA" id="scwm" d="m121 107-6 7c3.607 0 7.367-5.434 10.5-7 9.828-4.914 21.268-6.134 31-11l11.5-6c-1.321 0-6 .684-6-1l-3 1-2 1c0 3.18-13.344 6-16 6 0 2.271-7.839 4-10 4l-2 2c-1.624 0-2.75 2-5 2 0 1.577-1.762 2-3 2ZM170 89l-2 1 2-1ZM355 127c0 3.848 6 6.592 6 11-2.141 0-4.998-7.498-6.5-9-7.625-7.625-14.491-17.245-24-22-10.917-5.458-23.114-7.557-34-13-1.746-.873-9.5-2.53-9.5-5 .969 0 7 2.614 7 0l4 2c3.648 0 25.594 12 30 12 2.46 0 4.17 4 7 4l20 20Z"/><path fill="#1C8064" id="SSp-ul6b" d="m159 90-2 1 1-1h1Z"/><path fill="#7ED04B" id="IG" d="M222 98c0 1.561 12 1.397 12 0v-1l-5-7-2 1-5 6v1Z"/><path fill="#1C8064" id="SSp-ul6b" d="M328 102v1c-4.406 0-26.352-12-30-12v-1c2.678 0 3.323 1.911 5.5 3 1.266.633 23.866 8 24.5 8v1Z"/><path fill="#187D62" id="SSp-n6a" d="m78 131 4 2c1.467 0 12.704-4 16-4l1-1 1-1h1c0-1.763 4.012-7 6-7 0-1.747.253-2 2-2l3-3 1-1c0-2.073 6.148-7 8-7v-1c0-2.253-8-10.743-8-15h-1c0 1.685-13.43 8.965-15.5 10-5.992 2.996-18.5 23.519-18.5 30Z"/><path fill="#1C8064" id="SSp-ul6b" d="M157 91c-3.291 0-8.572 2.536-11.5 4-.93.465-4.5.817-4.5 2 2.656 0 16-2.82 16-6Z"/><path fill="#187D62" id="SSp-n6a" d="m379 131-4 2c-2.832 0-15.066-6-18-6h-1c0-1.58-18.036-20-20-20v-1l8-15h1c0 3.135 11.195 7.847 13.5 9 5.255 2.628 20.5 24.628 20.5 30v1Z"/><path fill="#AAA8A9" id="SEZ" d="m164 103 3 1c0-10.1 14.304-9 22-9 0-2.156-7.077-2-9-2-5.287 0-16 4.352-16 10Z"/><path fill="#40A465" id="ACAv6b" d="M251 93c-1.747 0-2 .253-2 2l2-2Z"/><path fill="#AAA8A9" id="SEZ" d="m293 103-4 1c0-10.257-14.23-9-22-9 0-1.93 6.225-2 8-2 4.786 0 18 3.586 18 10Z"/><path fill="#A8AAAA" id="VL" fill-rule="evenodd" d="m191 119-5 4.5c-2.223 2.223-7.242 15.129-2.5 17.5l4-4c2.133-2.133 8.835-18 3.5-18m0 52 2 1v-4c-2.032 0-8.757-6.372-7.5-7l7.5 6v-4c0-2.483-2-4.026-2-6-2.341 0-1.421-2.342-2-3.5-3.636-7.272 3-11.509 3-17.5l1-1c0-1.321-.684-6 1-6 0-9.626 9-16.855 9-26l-2-2h-1l-1-1h-1l-4-3h-1c-1.238 0-3-.423-3-2h-1c-7.696 0-22-1.1-22 9l10 15.5c4.473 8.945 2 19.789 2 29.5.081 0 4 12.82 4 14v1l1 1c2.519 0 3.78 6 7 6Z"/><path fill="#AAA8A9" id="SEZ" d="m190 95 3 2c-1.238 0-3-.423-3-2ZM267 95l-2 1 2-1Z"/><path fill="#A8AAAA" id="VL" fill-rule="evenodd" d="M264 119c0 3.578-.861 4.778 1 8.5 1.019 2.039.942 4.885 2 7 9.206 18.413 10.039-15.5-3-15.5m0 53h1l1-1 7-7 1-1 3-14c0-8.62-2.05-20.4 2-28.5l10-16.5c0-10.257-14.23-9-22-9l-2 1-2 1-2 1-1 1h-1l-1 1-1 1-4 2c0 8.233 9 15.293 9 24 .981 0 2 7.758 2 9 3.003 0 8.308 21 1 21l-1 4v5l6.5-5c2.267 1.133-5.026 7-6.5 7v4Z"/><path fill="#40A564" id="ACAv6a" d="m247 96-1 1 1-1Z"/><path fill="#AAA8A9" id="SEZ" d="m265 96-2 1 2-1Z"/><path fill="#1C8064" id="SSp-ul6b" d="M141 97c-1.717 0-10 2.709-10 4 2.161 0 10-1.729 10-4Z"/><path fill="#AAA8A9" id="SEZ" d="m194 97 4 3-4-3ZM263 97l-2 1 2-1ZM261 98l-1 1 1-1ZM259 99l-1 1 1-1ZM199 100l1 1-1-1ZM258 100l-1 1 1-1Z"/><path fill="#1C8064" id="SSp-ul6b" d="M129 102v1l2-2-2 1Z"/><path fill="#AAA8A9" id="SEZ" d="m201 101 2 2-2-2Z"/><path fill="#1A7D63" id="SSp-un6b" d="M129 103c-1.624 0-2.75 2-5 2l4-3h1v1Z"/><path fill="#98D5F9" id="CP" d="M97 223c3.189 0 9.042 12 17 12 0-2.064 3.353-.426 4.5-1 3.462-1.731 7.496-2.248 11-4 6.055-3.028 14.665-14 21.5-14l1-3 1-1v-2c0-5.314.759-32 6-32l3-3c0-2.075-.797-15 1-15 0-1.238.423-3 2-3 0-.843 3.646-2 4.5-2 3.77 0 9.5-1.176 9.5-6 0-9.711 2.473-20.555-2-29.5L167 104l-3-1c-15.391 0-22.825.162-36.5 7-4.841 2.42-8.887 8.944-13 11l-7.5 6.5c-1.817 3.635-6.533 7.066-8 10-1.985 3.97-4.43 11.43-7.5 14.5l-4.5 8v1l-1 2-1 2v1l-1 2v1l-1 1v18c1.014 0 2 3.959 2 5v1l2 4v1l1 2v1l1 2v1l2 4v1l2 4v1l4 7v1ZM357 226c-2.54 0-8.514 9-14 9 0-2.144-4.262-.381-5.5-1-4.112-2.056-8.887-2.944-13-5-4.35-2.175-15.698-14-19.5-14l-1-3-1-1v-4c0-5.15-.025-29-6-29l-2-3c0-1.339.625-13-1-13v-1l-1-2c0-1.747-.253-2-2-2 0-3.476-7.603-1.052-9.5-2l-4.5-6c0-8.62-2.05-20.4 2-28.5l10-16.5 4-1c12.89 0 23.059.279 34.5 6 3.705 1.853 7.022 6.511 10 8l13.5 12.5c4.56 9.12 11.5 16.999 16 26 .696 1.391 2.391 8.5 4 8.5v1l2 4v4l1 2v1c-1.763 0-1 8.343-1 10v3c-1.014 0-2 3.959-2 5v1l-1 2-1 2v2l-1 2-1 2v1l-2 4v1l-1 2-1 2v1l-1 1v1l-1 1v1c-1.577 0-2 1.762-2 3-1.577 0-2 1.762-2 3Z"/><path fill="#1A7D63" id="SSp-un6b" d="M335 107h1v-1l-8-4v1c2.46 0 4.17 4 7 4Z"/><path fill="#90CBEC" id="LSc" d="M199 132h1l1-1 4-1 1-1h2l15-18-1-3-1-1c-6.096 0-11.334-4-18-4 0 9.145-9 16.374-9 26 0 3.236 2.435 3 5 3ZM255 131l3 1c3.766 0 4-1.59 4-5 0-8.707-9-15.767-9-24-6.835 0-11.594 4-18 4l-1 1-1 1v2l16 18h1l1 1h1l1 1h2Z"/><path fill="#1A7D63" id="SSp-un6b" d="M121 106v1c1.238 0 3-.423 3-2l-3 1Z"/><path fill="#CBC8CC" id="df" d="M227 110c0-2.373 2.284 0 3 0l3-1 1-1 1-1h-14l1 1 5 2Z"/><path fill="#1B7E64" id="SSp-n6b" d="M113 114h2l6-7c-1.852 0-8 4.927-8 7ZM355 127h1c0-1.58-18.036-20-20-20h-1l20 20Z"/><path fill="#97D6F9" id="STR" d="m223 111 2 1 2-2-5-2 1 3ZM234 108l-1 1 1-1Z"/><path fill="#8FCBEC" id="SF" d="m253 160 7.5 4 3.5-3 1-4c-13.068 0-5.905-6.31-9-12.5-2.296-4.592-9.183-4.366-11-8-1.65-3.301 2-6.145 2-7.5-4.455 0-16-14.172-16-18l-1-1c-.716 0-3-2.373-3 0l-2 2c0 3.126-11.52 17-15 17l2 5.5c-2.43 4.86-9.107 5.214-11 9-3.741 7.482 3.911 13.5-10 13.5 0 1.974 2 3.517 2 6 2.881 0 10 .57 10-4 0-6.319 10.724-27.112 16.5-30 1.489-.744 7.456-4.772 9-4l9 4c6.078 3.039 15.5 24.33 15.5 31Z"/><path fill="#97D6F9" id="STR" d="M231 111h2v-2l-3 1 1 1Z"/><path fill="#1A7E62" id="SSs1" d="M36 176h5c0-9.662.304-31.109 4-38.5l9-24.5c-1.054 0-2.931-3-5-3l-8 21.5c-5.203 10.405-5 31.675-5 44.5ZM416 176h5c0-12.378-.958-36.415-6-46.5-1.78-3.56-8-16.085-8-19.5l-5 3c0 3.991 6.932 18.364 9 22.5 3.533 7.065 5 31.292 5 40.5Z"/><path fill="#90CAED" id="LSr" d="M208 129h2c3.48 0 15-13.874 15-17l-2-1-15 18ZM247 129h2l-16-18h-2c0 3.828 11.545 18 16 18Z"/><path fill="#1B8063" id="SSs2/3" d="m49 175-8 1c0-9.662.304-31.109 4-38.5l9-24.5h1l7 6c0 5.532-4.553 14.605-7 19.5-3.845 7.69-6 26.796-6 36.5ZM408 175c2.097 0 5.293 1 8 1 0-9.208-1.467-33.435-5-40.5-2.068-4.136-9-18.509-9-22.5l-8 6 6 15.5c4.617 9.235 8 29.41 8 40.5Z"/><path fill="#1B7E64" id="SSp-n6b" d="m113 114-1 1 1-1Z"/><path fill="#C9C9CA" id="scwm" d="M112 115v2l3-3h-2l-1 1Z"/><path fill="#1B7E64" id="SSp-n6b" d="M109 118h2l1-1v-2l-3 3Z"/><path fill="#C9C9CA" id="scwm" d="m112 117-1 1 1-1Z"/><path fill="#1B7E64" id="SSp-n6b" d="M109 118c-1.747 0-2 .253-2 2l2-2Z"/><path fill="#C9C9CA" id="scwm" d="M107 120v2l4-4h-2l-2 2Z"/><path fill="#187C63" id="SSs4" d="M54 175h1c0-14.858 2.856-28.212 9-40.5.885-1.77 2.747-10.5 5-10.5v-1l-6-4h-1c0 5.532-4.553 14.605-7 19.5-3.845 7.69-6 26.796-6 36.5h5Z"/><path fill="#A9AAA8" id="chpl" d="m191 119-5 4.5c-2.223 2.223-7.242 15.129-2.5 17.5l4-4c2.133-2.133 8.835-18 3.5-18ZM264 119c0 3.578-.861 4.778 1 8.5 1.019 2.039.942 4.885 2 7 9.206 18.413 10.039-15.5-3-15.5Z"/><path fill="#187C63" id="SSs4" d="M402 175h6c0-11.09-3.383-31.265-8-40.5l-6-15.5h-1l-5 4c0 4.889 4.859 11.217 7 15.5 4.806 9.613 7 25.168 7 36.5Z"/><path fill="#1B7E64" id="SSp-n6b" d="m106 123-5 4c0-1.763 4.012-7 6-7v2l-1 1Z"/><path fill="#C9C9CA" id="scwm" d="m107 122-1 1 1-1ZM97 133v2c2.136 0 9-10.048 9-12l-5 4c0 1.417-2.383 6-4 6Z"/><path fill="#1C8063" id="SSs5" d="M389 175h13c0-11.332-2.194-26.887-7-36.5-2.141-4.283-7-10.611-7-15.5h-1l-8 7v1c0 3.366 4.404 11.307 6 14.5 3 6 4 21.746 4 29.5ZM55 175h12c0-7.529 3.249-29.998 6-35.5l4-8.5c0-1.634-5.962-7-8-7-2.253 0-4.115 8.73-5 10.5-6.144 12.288-9 25.642-9 40.5Z"/><path fill="#96A7D2" id="TRS" d="M203 159c5.028 0 14.273 1.613 19.5-1l6-3c7.337 3.669 15.697 5 24.5 5 0-6.67-9.422-27.961-15.5-31l-9-4c-1.544-.772-7.511 3.256-9 4-5.776 2.888-16.5 23.681-16.5 30Z"/><path fill="#1B7E64" id="SSp-n6b" d="m100 127-1 1 1-1Z"/><path fill="#188064" id="SSp-m6b" d="m98 129-1 4c1.617 0 4-4.583 4-6h-1l-1 1-1 1Z"/><path fill="#97D6F9" id="STR" d="m258 133 6 3c0-1.242-1.019-9-2-9 0 3.41-.234 5-4 5v1Z"/><path fill="#188064" id="SSp-m6b" d="m364 141-1 1c0-1.238-.423-3-2-3v-1c0-4.408-6-7.152-6-11h2l7 14Z"/><path fill="#187D61" id="SSp-m6a" d="M364 141h1l10-8c-2.832 0-15.066-6-18-6l7 14ZM91 141h1c0-2.163 3.098-8 5-8l1-4c-3.296 0-14.533 4-16 4l9 8ZM99 128l-1 1 1-1Z"/><path fill="#97D6F9" id="STR" d="m199 132-6 3c0-1.321-.684-6 1-6 0 3.236 2.435 3 5 3Z"/><path fill="#90CAED" id="LSr" d="m206 129-1 1 1-1Z"/><path fill="#CBC8CB" id="fi" d="M192 136c0 5.991-6.636 10.228-3 17.5.579 1.158-.341 3.5 2 3.5 13.911 0 6.259-6.018 10-13.5 1.893-3.786 8.57-4.14 11-9l-2-5.5h-4l-1 1-4 1-1 1h-1l-6 3-1 1ZM264 136c3.003 0 8.308 21 1 21-13.068 0-5.905-6.31-9-12.5-2.296-4.592-9.183-4.366-11-8-1.65-3.301 2-6.145 2-7.5h3l1 1h1l1 1h2l3 2 6 3Z"/><path fill="#90CAED" id="LSr" d="m250 129 1 1-1-1ZM252 130l1 1-1-1Z"/><path fill="#197D63" id="SSs6a" d="M67 175h14c0-10.912 10-24.327 10-34l-9-8-4-2h-1l-4 8.5c-2.751 5.502-6 27.971-6 35.5Z"/><path fill="#90CAED" id="LSr" d="m201 131-1 1 1-1ZM258 132v1l-3-2 3 1Z"/><path fill="#197D63" id="SSs6a" d="M375 175h14c0-7.754-1-23.5-4-29.5-1.596-3.193-6-11.134-6-14.5l-4 2-10 8 3 6.5c2.772 5.543 7 21.045 7 27.5Z"/><path fill="#188064" id="SSp-m6b" d="M93 141h1l1-2 2-4v-2c-1.902 0-5 5.837-5 8h1Z"/><path fill="#C9C9CA" id="scwm" d="m97 135-2 4c2.109 0 2-2.535 2-4Z"/><path fill="#97D6F9" id="STR" d="m193 135-1 1 1-1Z"/><path fill="#C9C9CA" id="scwm" d="m95 139-1 2 1-2ZM361 139c1.577 0 2 1.762 2 3-1.577 0-2-1.762-2-3Z"/><path fill="#1A8061" id="SSs6b" d="M82 176h1v-6l1-1v-1l1-2v-1l1-2 1-2v-1l1-5 1-1v-2l1-2v-1l1-2 1-2 1-2v-2h-2c0 9.673-10 23.088-10 34v1h1Z"/><path fill="#C9C9CA" id="scwm" d="m94 141-1 2v-2h1Z"/><path fill="#1A8061" id="SSs6b" d="M374 176h1v-1c0-6.455-4.228-21.957-7-27.5l-3-6.5h-1l-1 1v1c1.577 0 2 1.762 2 3v1c2.109 0 2 2.535 2 4v2l1 1c0 3.414 3 6.353 3 10v1l2 4v4l1 2v1Z"/><path fill="#C9C9CA" id="scwm" d="m93 143-1 2 1-2ZM363 143c1.577 0 2 1.762 2 3-1.577 0-2-1.762-2-3ZM92 145l-1 2 1-2ZM91 147l-1 2 1-2ZM365 147c2.109 0 2 2.535 2 4l-2-4Z"/><path fill="#97D6F9" id="STR" d="m171 163 4 2c0-6.833 2.987-3 5-3l3 1c0-1.18-3.919-14-4-14 0 4.824-5.73 6-9.5 6-.854 0-4.5 1.157-4.5 2 2.939 0 6 3.015 6 6ZM281 164l1 1 3-2c2.097 0 2.205-6 6-6 0-3.476-7.603-1.052-9.5-2l-4.5-6-3 14h1c1.858 0 6-4.844 6 1Z"/><path fill="#C9C9CA" id="scwm" d="m90 150-1 2 1-2ZM367 153l1 1-1-1ZM89 154l-1 1 1-1Z"/><path fill="#A8A9AA" id="V3" d="M263 173c-1.465 0-4-.109-4 2-1.642 0-15-8.22-15-3h-3c-3.654 0-7.396 2.896-10 5.5-1.213 1.213-.784 4.5-2.5 4.5-.629 0-7.258-10-13.5-10l-3-1c-5.108 0-9.546 3-14 3l-5-2v-9c2.881 0 10 .57 10-4 5.028 0 14.273 1.613 19.5-1l6-3c7.337 3.669 15.697 5 24.5 5l7.5 4 3.5-3v5c0 .839-1.93 2 0 2v4l-1 1Z"/><path fill="#CCC" d="m165 174 4 5.5c3.231 6.462 4 13.641 4 21.5l1.5 6 2.5-5c0-4.596 3.369-13.762 1-18.5-1.067-2.135-7-19.058-7-20.5 0-2.985-3.061-6-6-6-1.577 0-2 1.762-2 3 0 5.003 2 10.49 2 14ZM279 179l-1 16.5c1.898 3.795 5 16.252 5 4.5 0-6.47 1.292-14.084 4-19.5 1.169-2.337 4-3.673 4-6.5 0-3.408 3-7.988 3-12v-1l-1-2c0-1.747-.253-2-2-2-3.795 0-3.903 6-6 6 0 1.403-2.711 9-4 9 0 1.048.473 3-1 3 0 1.048.473 3-1 3v1Z"/><path fill="#97D6F9" id="STR" d="m293 159 1 2-1-2ZM165 174l-3 1c0-2.075-.797-15 1-15 0 5.003 2 10.49 2 14Z"/><path fill="#C8CBC7" id="st" d="m177 174 2 9 2.5 2c3.717-1.859 4.409-12.682 2.5-16.5l-4-6.5c-2.013 0-5-3.833-5 3v4l1 2v1l1 2Z"/><path fill="#C9C7C9" id="ccb" d="m87 161-1 2 1-2Z"/><path fill="#A9AAA8" id="chpl" d="m193 167-7.5-6c-1.257.628 5.468 7 7.5 7v-1ZM264 166l6.5-5c2.267 1.133-5.026 7-6.5 7-1.93 0 0-1.161 0-2Z"/><path fill="#C8CBC7" id="st" d="M277 182v2c-10.565 0-2-14.986-2-21 1.858 0 6-4.844 6 1v7l-1 1v1l-1 2v3l-1 1v2l-1 1Z"/><path fill="#B3C0DE" id="BST" d="M197 235h2l2-1 2-1 3-3c0-1.465-.109-4 2-4l1-10.5-4-7.5v-3c-.787 0-2-4.678-2-5.5 0-7.177-5-12.926-5-19.5-.693 0-7-8.337-7-9-3.22 0-4.481-6-7-6l-1-1v-1l-3-1 4 6.5c1.909 3.818 1.217 14.641-2.5 16.5l-2.5-2c0 9.09-1 16.93-1 26l-1 2v1c0 3.962 1 8.688 1 12 4.182 0 4.878 8 9 8l1 1h1c2.338 0 4.862 2 8 2Z"/><path fill="#97D6F9" id="STR" d="m291 174 4 1c0-1.339.625-13-1-13 0 4.012-3 8.592-3 12Z"/><path fill="#C9C7C9" id="ccb" d="m86 163-1 2 1-2Z"/><path fill="#8599CC" id="PAL" d="M177 212c-2.754 0-1.612 8-6 8 0-5.042-.311-9-6-9l5-2.5c.621-1.242 1.639-7.5 3-7.5l1.5 6 2.5-5c0-4.596 3.369-13.762 1-18.5-1.067-2.135-7-19.058-7-20.5l4 2v4l1 2v1l1 2 2 9c0 9.09-1 16.93-1 26l-1 2v1Z"/><path fill="#97D6F9" id="STR" d="m274 163-1 1 1-1Z"/><path fill="#B3C0DE" id="BST" d="M257 235h2c3.618 0 6.154-2 9-2l10-9 2-3.5-1-9.5v-3l-1-1c0-7.505-1-15.043-1-23-10.565 0-2-14.986-2-21h-1l-1 1-7 7-1 1-2 1c0 .85-4.004 7-5 7 0 5.212-2.763 12.025-5 16.5-.662 1.324 1.207 6.5-1 6.5 0 1.048.473 3-1 3v2c0 3.224-2.666 4.832-4 7.5-1.813 3.626 2 7.64 2 10.5l1 3 3 4h1l3 2Z"/><path fill="#8599CC" id="PAL" d="M281 171v1c1.289 0 4-7.597 4-9l-3 2c0 1.048.473 3-1 3v3Z"/><path fill="#97D6F9" id="STR" d="m183 164 1 1-1-1Z"/><path fill="#B3C0DE" id="BST" d="M282 165c0 1.048.473 3-1 3v-4l1 1Z"/><path fill="#C9C7C9" id="ccb" d="m371 165 2 4-2-4ZM85 166l-1 2 1-2ZM84 169l-1 1 1-1Z"/><path fill="#B3C0DE" id="BST" d="m175 169 1 2-1-2Z"/><path fill="#CCC9C8" id="sm" d="m211 193-6 3c-3.331 0-1.775-17-7-17v-5c4.454 0 8.892-3 14-3v4c-1.682 0-2 10.912-2 13l1 2v3ZM246 193c2.363 0 4.713 4 6 4 0-2.649 4.346-18 6-18l1-4c-1.642 0-15-8.22-15-3 1.473 0 1 1.952 1 3l1 14v4Z"/><path fill="#FF6F80" id="TH" d="M212 175h3v-3l-3-1v4Z"/><path fill="#B3C0DE" id="BST" d="M280 172h1v-1l-1 1ZM176 172l1 2-1-2Z"/><path fill="#FE8F9E" id="PVT" d="m227 197-3 3c-6.426 0-2.367-9-5-9 0-6.083-4-10.997-4-16v-3c6.242 0 12.871 10 13.5 10 1.716 0 1.287-3.287 2.5-4.5 2.604-2.604 6.346-5.5 10-5.5l1 3c-3.19 0-5 16.313-5 20 0 3.784-1.417 5-5 5 0-.064-5-16.615-5-3Z"/><path fill="#FF6F80" id="TH" d="M242 175h3c0-1.048.473-3-1-3h-3l1 3Z"/><path fill="#8599CC" id="PAL" d="M280 173v2c1.473 0 1-1.952 1-3h-1v1Z"/><path fill="#B3C0DE" id="BST" d="M279 175h1v-2l-1 2Z"/><path fill="#C8CBCC" id="ec" d="m373 173 1 2-1-2Z"/><path fill="#8598CC" id="GPe" d="M164 211h1l5-2.5c.621-1.242 1.639-7.5 3-7.5 0-7.859-.769-15.038-4-21.5l-4-5.5-3 1-3 3-3 9.5c-.627 1.255 1 8.223 1 10.5 0 3.019-1.511 12.495 1.5 14l5.5-1Z"/><path fill="#FF909F" id="PT" d="M211 191c3.757 0 8 10.144 8 0 0-6.083-4-10.997-4-16h-3c-1.682 0-2 10.912-2 13l1 2v1ZM237 195h4l2-2 3-4-1-14h-3c-3.19 0-5 16.313-5 20Z"/><path fill="#8598CC" id="GPe" d="M291 211h1c2.129 0 5.379 2.741 7-.5 1.053-2.105-1.594-16.5 1-16.5 0-6.094-3-12.581-3-16l-2-3-4-1c0 2.827-2.831 4.163-4 6.5-2.708 5.416-4 13.03-4 19.5 1.993 0 1.35 5.2 2 6.5l6 4.5Z"/><path fill="#12AC83" id="VISC2/3" d="M44 195h1c0-1.429 5.478-4 7-4v-1c-1.765 0-3-12.146-3-15l-8 1c0 7.057 3 12.837 3 19Z"/><path fill="#11AC82" id="VISC4" d="m55 189-3 1c-1.765 0-3-12.146-3-15h5c0 4.725 1 9.879 1 14Z"/><path fill="#12AD82" id="VISC5" d="m67 185-12 4c0-4.121-1-9.275-1-14h13v10Z"/><path fill="#11AC83" id="VISC6a" d="M67 185h1c0-1.774 11.186-3 13-3v-7H67v10Z"/><path fill="#8599CC" id="PAL" d="M280 175c0 1.048.473 3-1 3v-3h1Z"/><path fill="#11AC83" id="VISC6a" d="m375 182 14 2v-9h-14v7Z"/><path fill="#12AD82" id="VISC5" d="M401 189h1v-14h-13v10c4.624 0 7.761 4 12 4Z"/><path fill="#11AC82" id="VISC4" d="M402 189c0 1.473 1.952 1 3 1 0-4.995 3-9.607 3-15h-6v14Z"/><path fill="#12AC83" id="VISC2/3" d="M405 191c2.968 0 4.633 4 7 4 0-5.818 4-12.539 4-19-2.707 0-5.903-1-8-1 0 5.393-3 10.005-3 15v1Z"/><path fill="#12AD83" id="VISC1" d="M44 195c-1.481 0-.785 2-3 2-2.357 0-5-17.744-5-21h5c0 7.057 3 12.837 3 19Z"/><path fill="#11AD82" id="VISC6b" d="M81 182h1v-6h-1v6Z"/><path fill="#C8CBCC" id="ec" d="M82 182c0 1.048-.473 3 1 3v-9h-1v6ZM374 182c0 1.145.579 4-1 4 0-1.657-.763-10 1-10v6Z"/><path fill="#11AD82" id="VISC6b" d="M374 182h1v-6h-1v6Z"/><path fill="#12AD83" id="VISC1" d="m412 195 4 2c0-3.016 5-15.215 5-21h-5c0 6.461-4 13.182-4 19Z"/><path fill="#97D6F9" id="STR" d="M157 198c-2.812 0-2.169 12-4 12 0-5.314.759-32 6-32l-3 9.5c-.627 1.255 1 8.223 1 10.5Z"/><path fill="#B3C0DE" id="BST" d="M278 179h1v-1l-1 1Z"/><path fill="#97D6F9" id="STR" d="M300 194c0 1.923 1.436 13 3 13 0-5.15-.025-29-6-29 0 3.419 3 9.906 3 16Z"/><path fill="#CAC7CB" id="fiber tracts" d="M205 196v9c-.787 0-2-4.678-2-5.5 0-7.177-5-12.926-5-19.5v-1c5.225 0 3.669 17 7 17ZM252 197v6c2.207 0 .338-5.176 1-6.5 2.237-4.475 5-11.288 5-16.5v-1c-1.654 0-6 15.351-6 18Z"/><path fill="#8599CC" id="PAL" d="M291 211c-4.549 0-6 3.652-6 8-4.637 0-3.084-8-6-8v-3l-1-1c0-7.505-1-15.043-1-23v-2l1-1v-2h1l-1 16.5c1.898 3.795 5 16.252 5 4.5 1.993 0 1.35 5.2 2 6.5l6 4.5Z"/><path fill="#B3C0DE" id="BST" d="m278 181-1 1 1-1Z"/><path fill="#009B74" id="GU6a" d="M79 193c-2.097 0-5.293 1-8 1-1.87 0-3-7.329-3-9 0-1.774 11.186-3 13-3l1 9-3 2Z"/><path fill="#019C74" id="GU6b" d="m82 191 2 1-1-4v-3c-1.473 0-1-1.952-1-3h-1l1 9ZM373 191h1c0-2.389 1-5.987 1-9h-1c0 1.145.579 4-1 4v5Z"/><path fill="#009B74" id="GU6a" d="M385 195h1l3-10v-1l-14-2c0 3.013-1 6.611-1 9l3 2c.981 0 8 1.184 8 2Z"/><path fill="#019C75" id="GU5" d="m71 195-14 1-2-7 12-4h1c0 1.671 1.13 9 3 9v1ZM386 195l13 1c0-2.16 2-4.167 2-7-4.239 0-7.376-4-12-4l-3 10Z"/><path fill="#C8CBCC" id="ec" d="m84 192 1 1c0-1.041-.986-5-2-5l1 4Z"/><path fill="#FF6F80" id="TH" d="m210 188 1 2-1-2Z"/><path fill="#009C74" id="GU4" d="M54 197h1l2-1-2-7-3 1v1l2 6Z"/><path fill="#FF6F80" id="TH" d="M244 193h2v-4l-3 4h1Z"/><path fill="#C8CBCC" id="ec" d="M371 194h1l1-3v-2c-1.014 0-2 3.959-2 5Z"/><path fill="#009C74" id="GU4" d="M405 191c-2.092 0-.168 5-6 5 0-2.16 2-4.167 2-7h1c0 1.473 1.952 1 3 1v1Z"/><path fill="#009B75" id="GU2/3" d="M46 199h1l7-2-2-6c-1.522 0-7 2.571-7 4l1 4Z"/><path fill="#8ADA86" id="CLA" d="M84 207h1l3-3v-1l-1-2v-2l-1-1v-1l-1-1v-3l-1-1-2-1-3 2c0 4.297-.955 14 5 14Z"/><path fill="#FF6F80" id="TH" d="M224 201c-1.046 0-1.122 1-4 1l-1-1c0-1.518-5.218-8-7-8h-1v-2c3.757 0 8 10.144 8 0 2.633 0-1.426 9 5 9v1Z"/><path fill="#8ADA86" id="CLA" d="M371 207h2c6.119 0 4-11.317 4-14l-3-2h-1l-1 3-1 1v2l-1 1v1l-1 2v2c0 2.424 2 2.76 2 4Z"/><path fill="#009B75" id="GU2/3" d="M399 197c4.135 0 7.305 2 11 2l2-4c-2.367 0-4.032-4-7-4-2.092 0-.168 5-6 5v1Z"/><path fill="#209766" id="AIp6a" d="m84 207-5 5c0-3.737-8-11.731-8-17v-1c2.707 0 5.903-1 8-1 0 4.297-.955 14 5 14Z"/><path fill="#C7C8CA" id="fx" d="M206 208c0 4.879 7.976 1 9 1l2-4v-4c0-3.435-5-5.249-5-8h-1l-6 3v10l1 2Z"/><path fill="#CAC7CB" id="fiber tracts" d="M217 201h2c0-1.518-5.218-8-7-8 0 2.751 5 4.565 5 8Z"/><path fill="#FF6F80" id="TH" d="M241 195h1l1-1v-1l-2 2Z"/><path fill="#CAC7CB" id="fiber tracts" d="m244 193-1 1v-1h1Z"/><path fill="#C7C8CA" id="fx" d="M250 208c0 5.285-8.305 1-9 1v-13l1-1 1-1 1-1h2c2.363 0 4.713 4 6 4v6c-1.473 0-1 1.952-1 3v1l-1 1Z"/><path fill="#209766" id="AIp6a" d="m373 207 4 5c1.996 0 8-14.528 8-17 0-.816-7.019-2-8-2 0 2.683 2.119 14-4 14Z"/><path fill="#C8CBCC" id="ec" d="M86 198h1l-2-4v2l1 1v1Z"/><path fill="#8599CC" id="PAL" d="m305 215 4 7-2.5-3-14.5-8c2.129 0 5.379 2.741 7-.5 1.053-2.105-1.594-16.5 1-16.5 0 1.923 1.436 13 3 13v4l1 1 1 3Z"/><path fill="#209766" id="AIp6a" d="m372 194-1 1v-1h1Z"/><path fill="#009C75" id="GU1" d="m46 199-4 2-1-4c2.215 0 1.519-2 3-2h1l1 4Z"/><path fill="#219864" id="AIp5" d="M78 214h1v-2c0-3.737-8-11.731-8-17l-14 1v1c2.971 0 2.33 6.915 4.5 8 2.872 1.436 4.924 5.924 7.5 8.5l3 2.5 6-2Z"/><path fill="#FF6F80" id="TH" d="M233 203h3l1-2c0-1.634 2.634-4 4-4v-2h-4c0 3.784-1.417 5-5 5l1 3Z"/><path fill="#CAC7CB" id="fiber tracts" d="m242 195-1 1v-1h1Z"/><path fill="#C8CBCC" id="ec" d="M370 197h1v-2l-1 2Z"/><path fill="#219864" id="AIp5" d="m379 214 5 2 10.5-11 4.5-8v-1l-13-1h-1c0 2.472-6.004 17-8 17v1l2 1Z"/><path fill="#009C75" id="GU1" d="m415 200-1 1-4-2 2-4 4 2-1 3Z"/><path fill="#009B75" id="GU2/3" d="M55 197h2v-1l-2 1Z"/><path fill="#209766" id="AIp6a" d="m85 196 1 1-1-1Z"/><path fill="#A8A9AA" id="V3" d="m230 225-1 1c0 4.427-2 1.868-2-1 0-3.157-2-5.481-2-9l-1-2v-7c.586 0 3-8.833 3-10 5.095 0 5 11.949 5 18l-2 10Z"/><path fill="#209865" id="AIp2/3" d="M72 216c0 1.165-8.453 4-10 4-2.319 0-15-18.255-15-21l7-2h3c2.971 0 2.33 6.915 4.5 8 2.872 1.436 4.924 5.924 7.5 8.5l3 2.5Z"/><path fill="#CAC7CB" id="fiber tracts" d="m239 208 2 1v-12c-1.366 0-4 2.366-4 4 3.136 0 2 4.471 2 7Z"/><path fill="#C8CBCC" id="ec" d="M369 199h1v-2l-1 2Z"/><path fill="#209766" id="AIp6a" d="m371 197-1 1v-1h1Z"/><path fill="#209865" id="AIp2/3" d="M384 216c0 1.555 9.133 4 11 4 0-2.948 15-15.278 15-21-3.695 0-6.865-2-11-2l-4.5 8-10.5 11Z"/><path fill="#209766" id="AIp6a" d="M87 198v1l-1-1h1Z"/><path fill="#8599CC" id="PAL" d="m151 216-2 4 2.5-2c1.932-.966 12.5-4.77 12.5-7l-5.5 1c-3.011-1.505-1.5-10.981-1.5-14-2.812 0-2.169 12-4 12v2l-1 1-1 3Z"/><path fill="#219765" id="AIp1" d="M62 220c0 1.014-3.959 2-5 2-1.523 0-15-18.232-15-21l4-2h1c0 2.745 12.681 21 15 21Z"/><path fill="#C8CBCC" id="ec" d="M87 201h1l-1-2v2Z"/><path fill="#209766" id="AIp6a" d="m370 199-1 2v-2h1Z"/><path fill="#219765" id="AIp1" d="m395 220 4 3c1.678 0 15-19.292 15-22l-4-2c0 5.722-15 18.052-15 21ZM415 200l-1 1 1-1Z"/><path fill="#209766" id="AIp6a" d="M88 202v1l-1-2h1v1Z"/><path fill="#CCC8CC" id="mct" d="M217 208h3v-6l-1-1h-2v7Z"/><path fill="#CAC7CB" id="fiber tracts" d="M220 208c2.854 0 2.448 5 4 5v-12c-1.046 0-1.122 1-4 1v6Z"/><path fill="#CCC8CC" id="mct" d="M237 208h2c0-2.529 1.136-7-2-7l-1 2 1 5Z"/><path fill="#C8CBCC" id="ec" d="M368 203h1v-2l-1 2ZM88 204h1l-1-2v2Z"/><path fill="#CAC7CB" id="fiber tracts" d="M237 208c-2.54 0-2.543 3-4 3v-8h3l1 5ZM252 203c-1.473 0-1 1.952-1 3 1.473 0 1-1.952 1-3Z"/><path fill="#C8CBCC" id="ec" d="m368 203-1 2 1-2Z"/><path fill="#209766" id="AIp6a" d="M367 207h4c0-1.24-2-1.576-2-4h-1l-1 2v2ZM85 207h4v-3h-1l-3 3Z"/><path fill="#C8CBCC" id="ec" d="m89 207 2 2-2-4v2Z"/><path fill="#CAC7CB" id="fiber tracts" d="m217 208-2 1 2-4v3ZM205 208h1l-1-2v2Z"/><path fill="#C8CBCC" id="ec" d="M367 207c0 1.238-.423 3-2 3l2-4v1Z"/><path fill="#A0EE9C" id="EPd" d="M99 227c0 2.681 1.387 4-3 4-2.83 0-4.54-4-7-4l-2-2h-1l-1-1-1-1-1-1v-1l-2-2v-1l-2-4v-2l5-5h5l2 2v1l2 4v1c0 1.572 2.052 7 4 7v1l2 4Z"/><path fill="#CAC7CB" id="fiber tracts" d="M250 208h1v-1l-1 1Z"/><path fill="#E64438" id="HY" d="m278 207 1 1-1-1Z"/><path fill="#A0EE9C" id="EPd" d="M361 231h1l1-1 1-1h1l1-1h1l1-1 1-1 1-1 1-1 1-1 1-1 1-1 1-1v-1l1-1v-1l1-1v-4l-4-5h-6c0 1.238-.423 3-2 3v1l-1 2-1 2v1l-1 1v1l-1 1v1c0 1.238-.423 3-2 3 0 1.238-.423 3-2 3v2c0 3.303.959 3 4 3Z"/><path fill="#E64438" id="HY" d="M211 229c4.634 0 13-1.947 13 6 3.142 0-1.662-10 3-10 0-3.157-2-5.481-2-9l-1-2v-1c-1.552 0-1.146-5-4-5h-3l-2 1c-1.024 0-9 3.879-9-1h-1l4 7.5-1 10.5c2.041 0 3 .959 3 3ZM246 229c-3.327 0-7.103-1.699-10.5 0l-3.5 4c0-2.625 1.221-8-2-8l2-10c1.579 0 1-2.855 1-4 1.457 0 1.46-3 4-3h2l2 1c.695 0 9 4.285 9-1h1c0 3.224-2.666 4.832-4 7.5-1.813 3.626 2 7.64 2 10.5-2.747 0-3 .253-3 3ZM178 209l-1 2 1-2Z"/><path fill="#C8CBCC" id="ec" d="m91 210 2 4-2-4Z"/><path fill="#A2B1D7" id="SI" d="M164 250c-6.599 0-15.952 1-22 1l-2-2 1-8 4-14 3-6 1-1 2.5-2c1.932-.966 12.5-4.77 12.5-7h1c5.689 0 6 3.958 6 9 0 1.552.566 8 2 8 0 4.818 2.404 10.692 0 15.5l-4 5.5-5 1Z"/><path fill="#E64438" id="HY" d="M278 224c2.362 0 5 2.638 5 5 2.789 0 2-7.892 2-10-4.637 0-3.084-8-6-8l1 9.5-2 3.5Z"/><path fill="#A2B1D7" id="SI" d="M293 251h21l2-2c0-3.704-1-6.705-1-9 0-4.534-4-8.737-4-13l-2-5-2.5-3-14.5-8h-1c-4.549 0-6 3.652-6 8 0 2.108.789 10-2 10v13.5c1.123 2.245 4 4.432 4 6.5 1.357 0 6 .647 6 2Z"/><path fill="#97D6F9" id="STR" d="m303 211 1 1-1-1Z"/><path fill="#C8CBCC" id="ec" d="m365 211-1 2 1-2Z"/><path fill="#97D6F9" id="STR" d="m153 212-1 1 1-1Z"/><path fill="#E64438" id="HY" d="M178 224c-3.165 0-2.508 4-5 4-1.434 0-2-6.448-2-8 4.388 0 3.246-8 6-8 0 3.962 1 8.688 1 12Z"/><path fill="#C8CBCC" id="ec" d="m364 213-1 2 1-2Z"/><path fill="#99D2BD" id="OLF" d="m379 214-2 1v-2l2 1Z"/><path fill="#6ACAB9" id="PIR" d="M115 292c-1.747 0-2 .253-2 2-17.46 0-35.415-39.331-42-52.5-3.012-6.024-14-12.557-14-19.5 1.041 0 5-.986 5-2 1.547 0 10-2.835 10-4l6-2 3 4v1l2 2v1l1 1 1 1 1 1h1v1l1 1h1c0 2.049 7.862 10 9 10l18 18c0 3.189 7 8.322 7 15 0 7.83-6 14.021-6 21l-2 1Z"/><path fill="#99D2BD" id="OLF" d="m79 214 2 4-3-4h1Z"/><path fill="#6ACAB9" id="PIR" d="M341 292c1.747 0 2 .253 2 2 17.947 0 35.28-38.06 42-51.5 2.275-4.55 14-15.245 14-19.5l-4-3c-1.867 0-11-2.445-11-4l-5-2-2 1v1l-1 1v1l-1 1v1l-1 1-1 1-1 1-1 1-1 1-1 1-1 1-1 1-1 1-8 8c0 1.659-11.936 12.436-13.5 14l-4.5 4c0 5.265-7 8.717-7 15 0 6.993 7 16.68 7 21l1 1Z"/><path fill="#C8CBCC" id="ec" d="m93 215 4 7c-1.948 0-4-5.428-4-7Z"/><path fill="#97D6F9" id="STR" fill-rule="evenodd" d="M321 230c0 8.197 9.603 14.294 13 7.5 1.965-3.93-10.376-7.5-13-7.5m22 9h1l2-3c-1.096 0-5.493-1-3-1 0-2.144-4.262-.381-5.5-1-4.112-2.056-8.887-2.944-13-5-4.35-2.175-15.698-14-19.5-14l4 7 2 5c4.804 0 10.551 11.525 15.5 14 4.921 2.46 16.5-10.068 16.5-2ZM131 230c0 1.417-13.855 6.322-6.5 10 6.161 3.08 17.917-10 6.5-10m-17 5 1 1c5.176 0 9.61 7.945 15.5 5 4.154-2.077 11.296-14 14.5-14l3-6 1-1 2-4c-6.835 0-15.445 10.972-21.5 14-3.504 1.752-7.538 2.269-11 4-1.147.574-4.5-1.064-4.5 1Z"/><path fill="#C8CBCC" id="ec" d="m363 216-1 1 1-1Z"/><path fill="#99D2BD" id="OLF" d="m377 216-1 1 1-1Z"/><path fill="#C8CBCC" id="ec" d="m362 218-1 1 1-1Z"/><path fill="#99D2BD" id="OLF" d="m376 218-1 1 1-1ZM81 219l2 2-2-2Z"/><path fill="#8599CC" id="PAL" d="m149 220-1 1 1-1Z"/><path fill="#C8CBCC" id="ec" d="M361 220c-1.577 0-2 1.762-2 3 1.577 0 2-1.762 2-3Z"/><path fill="#99D2BD" id="OLF" d="m375 220-1 1 1-1ZM83 222l1 1-1-1ZM373 222l-1 1 1-1Z"/><path fill="#C8CBCC" id="ec" d="M111 236h4l-1-1c-7.958 0-13.811-12-17-12l2 4 3 4 2 1 4 3 2 1h1ZM359 223c-1.577 0-2 1.762-2 3 1.577 0 2-1.762 2-3Z"/><path fill="#99D2BD" id="OLF" d="m372 223-1 1 1-1ZM85 224l1 1-1-1Z"/><path fill="#F2473B" id="LPO" d="M193 267c0 2.461-3.378 2-5 2 0-1.148-13.61-12-15-12l-2-2-2-6 4-5.5c2.404-4.808 0-10.682 0-15.5 2.492 0 1.835-4 5-4 4.182 0 4.878 8 9 8l1 1h1l2 4c0 9.712 2 19.431 2 30ZM263 267c1.624 0 2.75 2 5 2 2.676 0 10.788-12 16-12l1-2c0-1.974 2-3.517 2-6 0-2.068-2.877-4.255-4-6.5V229c0-2.362-2.638-5-5-5l-10 9-2 4c0 2.128-1.054 5.608-2 7.5l-1 22.5Z"/><path fill="#99D2BD" id="OLF" d="m371 224-1 1 1-1Z"/><path fill="#8AD987" id="CTXsp" d="M88 227h1l-2-2v1l1 1Z"/><path fill="#FE5547" id="PVpo" d="M232 274h1l4-2v-1c-1.812 0-4-10.142-4-12 0-7.941-1-17.397-1-26 0-2.625 1.221-8-2-8l-1 1c0 4.427-2 1.868-2-1-4.662 0 .142 10-3 10v23l-1 2c0 1.529-1.902 10-3 10 0 2.708 1.119 4 4 4h1v-1l1-1v-1c-1.713 0 1.442-12 2.5-12l1.5 7.5c.859 1.718 1 2.387 1 4.5l1 3Z"/><path fill="#E64438" id="HY" d="m230 225-1 1 1-1Z"/><path fill="#99D2BD" id="OLF" d="m370 225-1 1 1-1ZM87 226l1 1-1-1Z"/><path fill="#FE5346" id="PD" d="m210 230-1 1-3-1c0-1.465-.109-4 2-4 2.041 0 3 .959 3 3l-1 1ZM250 229c0 1.747-.253 2-2 2l-2-2c0-2.747.253-3 3-3l1 3Z"/><path fill="#C8CBCC" id="ec" d="M346 236h1l2-1 2-1 3-3 3-3v-2c-2.54 0-8.514 9-14 9-2.493 0 1.904 1 3 1Z"/><path fill="#99D2BD" id="OLF" d="m369 226-1 1 1-1ZM98 234v3c-1.138 0-9-7.951-9-10 2.46 0 4.17 4 7 4l2 3Z"/><path fill="#8AD987" id="CTXsp" d="M102 231c-2.54 0-2.543 3-4 3l-2-3c4.387 0 3-1.319 3-4l3 4Z"/><path fill="#7ECDF8" id="FS" d="M120 247h1c2.798 0 7.516 3.992 11.5 2l8.5-8 4-14c-3.204 0-10.346 11.923-14.5 14-5.89 2.945-10.324-5-15.5-5l-2 2v1l6 6v1l1 1ZM336 247l-1 1c-2.824 0-8.268 2.616-11.5 1-2.648-1.324-6.688-9-8.5-9 0-4.534-4-8.737-4-13 4.804 0 10.551 11.525 15.5 14 4.921 2.46 16.5-10.068 16.5-2-1.811 0-4 3.438-4 5l-1 1-1 1-1 1Z"/><path fill="#99D2BD" id="OLF" d="m368 227-1 1 1-1Z"/><path fill="#FD4C3E" id="MPN" d="M223 260c-1.863 0-5.792 3-10 3l-4-3-2-2c0-4.9-4.706-13.088-2-18.5l3-6.5 1-2 1-1 1-1c4.634 0 13-1.947 13 6v23l-1 2ZM247 260l-4 3c-4.714 0-9.2-4-10-4 0-7.941-1-17.397-1-26l3.5-4c3.397-1.699 7.173 0 10.5 0l2 2 1 2 3 10.5-2 13.5-1 2-2 1Z"/><path fill="#8AD987" id="CTXsp" d="m361 231-3 3c0-2.409-1.957-3-4-3l3-3c0 3.303.959 3 4 3ZM365 229h1v-1l-1 1Z"/><path fill="#99D2BD" id="OLF" d="m367 228-1 1v-1h1Z"/><path fill="#E64438" id="HY" d="m211 229-1 1 1-1ZM249 233c0-1.115 2.535 0 4 0l-3-4c0 1.747-.253 2-2 2l1 2Z"/><path fill="#8AD987" id="CTXsp" d="m364 229-1 1 1-1Z"/><path fill="#99D2BD" id="OLF" d="M358 234v3l8-8h-2l-1 1-1 1h-1l-3 3Z"/><path fill="#C9C9C9" id="act" d="M131 230c0 1.417-13.855 6.322-6.5 10 6.161 3.08 17.917-10 6.5-10Z"/><path fill="#E64438" id="HY" d="M203 233h5l1-2-3-1-3 3ZM210 230l-1 1 1-1Z"/><path fill="#C9C9C9" id="act" d="M321 230c0 8.197 9.603 14.294 13 7.5 1.965-3.93-10.376-7.5-13-7.5Z"/><path fill="#8AD987" id="CTXsp" d="m363 230-1 1 1-1Z"/><path fill="#A0ED9D" id="EPv" d="M116 255h1c0-1.791 3.27-2.959 2-5.5-1.363-2.725-8-7.828-8-9.5-1.621 0-4-2.379-4-4l-3-4-2-1c-2.54 0-2.543 3-4 3v3l18 18ZM339 255h1l4.5-4c1.564-1.564 13.5-12.341 13.5-14v-3c0-2.409-1.957-3-4-3l-3 3-2 1v1c0 2.226-1.774 4-4 4l-6 6.5c-1.688 3.377 0 5.409 0 8.5Z"/><path fill="#8AD987" id="CTXsp" d="m108 235-1 1-3-4 4 3Z"/><path fill="#E64438" id="HY" d="m187 232 1 1-1-1Z"/><path fill="#FF5346" id="MPO" d="M201 263c-2.893 0-5.298 4-8 4 0-10.569-2-20.288-2-30 .706 0 6-1.325 6-2h2l2-1 2-1h5l-3 6.5c-2.706 5.412 2 13.6 2 18.5l-1 1-1 1-4 3ZM255 263c1.505 0 8 5.715 8 4l1-22.5c.946-1.892 2-5.372 2-7.5-.969 0-7-1.147-7-2h-2c-1.238 0-3-.423-3-2h-1c-1.465 0-4-1.115-4 0l3 10.5-2 13.5 1 3 4 3Z"/><path fill="#E64438" id="HY" d="M197 235c0 .675-5.294 2-6 2l-2-4c2.338 0 4.862 2 8 2ZM203 233l-2 1 2-1ZM254 233l3 2c-1.238 0-3-.423-3-2ZM259 235c0 .853 6.031 2 7 2l2-4c-2.846 0-5.382 2-9 2ZM201 234l-2 1 2-1Z"/><path fill="#8AD987" id="CTXsp" d="m351 234-2 1 2-1Z"/><path fill="#80BEE2" id="IA" d="m113 239-2 1c-1.621 0-4-2.379-4-4l1-1 2 1 1 1 2 1v1Z"/><path fill="#8AD987" id="CTXsp" d="M347 236h2v-1l-2 1ZM111 236v1l-1-1h1Z"/><path fill="#97D6F9" id="STR" d="m111 237 2 1 2-2h-4v1Z"/><path fill="#80BEE2" id="IA" d="m344 239 1 1c2.226 0 4-1.774 4-4h-3l-2 3Z"/><path fill="#8AD987" id="CTXsp" d="M117 255c0 .536 6 5.776 6 3 0-4.135-2-7.814-2-11h-1l-1-1v-1c-1.935 0-6-4.065-6-6l-2 1c0 1.672 6.637 6.775 8 9.5 1.27 2.541-2 3.709-2 5.5Z"/><path fill="#97D6F9" id="STR" d="m113 239 6 6c-1.935 0-6-4.065-6-6ZM343 239c-1.811 0-4 3.438-4 5 1.811 0 4-3.438 4-5Z"/><path fill="#8AD987" id="CTXsp" d="M339 255c0 1.804-6 6.013-6 3 0-3.702 2-7.27 2-10l1-1 1-1 1-1 1-1c1.811 0 4-3.438 4-5h1l1 1-6 6.5c-1.688 3.377 0 5.409 0 8.5Z"/><path fill="#97D6F9" id="STR" d="m333 258-4 5c0-4.647.099-15.8-9.5-11l-3.5 2v-5c0-3.704-1-6.705-1-9 1.812 0 5.852 7.676 8.5 9 3.232 1.616 8.676-1 11.5-1 0 2.73-2 6.298-2 10ZM123 258c3.755 0 4.022 9 7 9 0-2.678-1.911-3.323-3-5.5-6.535-13.071 11.93-7.5 14-7.5v-2c-1.473 0-1-1.952-1-3l1-8-8.5 8c-3.984 1.992-8.702-2-11.5-2 0 3.186 2 6.865 2 11ZM339 244l-1 1 1-1ZM338 245l-1 1 1-1ZM119 246l1 1-1-1ZM337 246l-1 1 1-1ZM336 247l-1 1 1-1Z"/><path fill="#8599CC" id="PAL" d="m142 251-1 1c-1.473 0-1-1.952-1-3l2 2ZM171 257h1l-1-2-2-6-5 1c0 2.199 7 3.543 7 7ZM285 255v2c1.843 0 4.584-6 8-6 0-1.353-4.643-2-6-2 0 2.483-2 4.026-2 6ZM314 251l2 2v-4l-2 2Z"/><path fill="#A2B1D8" id="MA" d="M171 257c0 2.67-1.78 14-5 14l-19.5-14-5.5-3v-2l1-1c6.048 0 15.401-1 22-1 0 2.199 7 3.543 7 7ZM285 257c0 3.16 2.52 14 6 14l5.5-4c4.577-2.288 14.94-13 19.5-13v-1l-2-2h-21c-3.416 0-6.157 6-8 6Z"/><path fill="#80C0E2" id="AAA" d="M139 277c1.608 0 6.462 5.981 8.5 7 7.869 3.934 18.246-7 19.5-7v-4l-1-2-19.5-14-5.5-3c-2.07 0-20.535-5.571-14 7.5 1.089 2.177 3 2.822 3 5.5l4 4 4 4 1 1v1ZM290 278l3.5 3 7 3c6.778 3.389 12.474-5 15.5-5l1-2 1-1 5-6 3-3 1-1c0-1.238.423-3 2-3 0-4.647.099-15.8-9.5-11l-3.5 2c-4.56 0-14.923 10.712-19.5 13l-5.5 4-1 2v5Z"/><path fill="#99D2BD" id="OLF" d="M134 271c-3.578 0-3.993 2-5 2 0-4.772-3.462-3-6-3 0-6.678-7-11.811-7-15h1c0 .536 6 5.776 6 3 3.755 0 4.022 9 7 9l4 4Z"/><path fill="#E64438" id="HY" d="M172 257h1l-2-2 1 2ZM284 257h1v-2l-1 2Z"/><path fill="#99D2BD" id="OLF" d="M333 270c-1.422 0-6-2.269-6 2l-4-2 3-3 1-1c1.577 0 2-1.762 2-3l4-5c0 3.013 6-1.196 6-3h1c0 5.265-7 8.717-7 15Z"/><path fill="#96A6D3" id="NDB" d="M183 277h1c0-1.485 4-.043 4-8 0-1.148-13.61-12-15-12h-2c0 2.67-1.78 14-5 14l1 2c2.494 0 9.662 4 16 4Z"/><path fill="#E64438" id="HY" d="m249 259 2 1-1-3-1 2Z"/><path fill="#96A6D3" id="NDB" d="M272 277h1c6.563 0 12.342-4 17-4l1-2c-3.48 0-6-10.84-6-14h-1c-5.212 0-13.324 12-16 12 0 4.427 4 7.6 4 8Z"/><path fill="#E64438" id="HY" d="m206 259 3 1-2-2-1 1ZM224 258l-1 2 1-2ZM206 259l-1 1 1-1Z"/><path fill="#FF4B3E" id="AHN" d="M211 271h1l1-1v-7l-4-3-3-1-1 1-4 3c0 11.242.268 8 10 8Z"/><path fill="#A8A9AA" id="V3" d="M230 271h1c0-2.113-.141-2.782-1-4.5l-1.5-7.5c-1.058 0-4.213 12-2.5 12h4Z"/><path fill="#E64438" id="HY" d="M257 279h1c0-3.914 1.92-2.21 5.5-4l3.5.5-2 2.5 7-1c0-.4-4-3.573-4-8-2.25 0-3.376-2-5-2 0 1.715-6.495-4-8-4l2 5.5c-4.098 8.196-14 2.873-14-5.5-4.714 0-9.2-4-10-4 0 1.858 2.188 12 4 12 0-9.118 12 2.54 12 6 0 2.715 8-.715 8 2ZM249 259l-2 1 2-1Z"/><path fill="#FF4B3E" id="AHN" d="M243 263c0 8.373 9.902 13.696 14 5.5l-2-5.5-4-3-2-1-2 1-4 3Z"/><path fill="#E64438" id="HY" d="M213 270c2.805 0 7-6.625 7 0 1.098 0 3-8.471 3-10-1.863 0-5.792 3-10 3v7ZM199 278c0-2.632-10-3.566-10-2.5l3 3.5c-2.338 0-4.862-2-8-2 0-1.485 4-.043 4-8 1.622 0 5 .461 5-2 2.702 0 5.107-4 8-4 0 11.242.268 8 10 8 0 3.751-3 .618-3 6 0 1.751-7.426 1-9 1Z"/><path fill="#97D6F9" id="STR" d="M329 263c-1.577 0-2 1.762-2 3 1.577 0 2-1.762 2-3ZM327 266l-1 1 1-1Z"/><path fill="#FD5545" id="VMPO" d="M208 277h2c0-1.993 5.2-1.35 6.5-2l3.5-5c0-6.625-4.195 0-7 0l-1 1h-1c0 3.751-3 .618-3 6ZM247 277h2c0-3.46-12-15.118-12-6v1l2.5 3c1.303.652 7.5.219 7.5 2Z"/><path fill="#59D9AA" id="PAA" d="M119 291h2l2-1 2-1h2l3-4-1-12c0-4.772-3.462-3-6-3 0 7.83-6 14.021-6 21h2ZM337 291h3c0-4.32-7-14.007-7-21-1.422 0-6-2.269-6 2v13c0 2.54 3 2.543 3 4h2l3 2h2Z"/><path fill="#60E5B7" id="COAa" d="M141 282c0 8.749-10.486 3-11 3l-1-12c1.007 0 1.422-2 5-2l4 4 1 1v1l1 2 1 1v2Z"/><path fill="#E64438" id="HY" d="m213 270-1 1 1-1ZM210 277h9l5-3c-2.881 0-4-1.292-4-4l-3.5 5c-1.3.65-6.5.007-6.5 2Z"/><path fill="#60E5B7" id="COAa" d="M316 281c0 10.43 7.773 4 11 4v-13l-4-2-5 6-1 1-1 2v2Z"/><path fill="#E64438" id="HY" d="M231 274h1l-1-3h-1l1 3ZM226 272l-1 1 1-1ZM233 274c0 3.441 11.206 3 14 3 0-1.781-6.197-1.348-7.5-2l-2.5-3-4 2Z"/><path fill="#8599CC" id="PAL" d="M183 277c0 6.94-11.949 6-15 6l-1-6v-4c2.494 0 9.662 4 16 4ZM290 278c-1.643 0-1 3.765-1 5-3.287 0-16 1.351-16-6 6.563 0 12.342-4 17-4v5Z"/><path fill="#CAC7CB" id="fiber tracts" d="M229 275c0 1.16-8.505 2-10 2l5-3h1l4 1ZM249 277c0 2.715 8-.715 8 2l-19.5-1-8.5-3 2-1h2c0 3.441 11.206 3 14 3h2Z"/><path fill="#97D6F9" id="STR" d="m138 275 1 1-1-1Z"/><path fill="#FE5B50" id="SO" d="m199 279-5 1-2-1-3-3.5c0-1.066 10-.132 10 2.5v1Z"/><path fill="#CBCACC" id="och" d="M199 288c0 2.239 4.29 0 5.5 0 3.91 0 11.49-2.245 15-4 8.211-4.106 30.697 4 38.5 4v-9h-1l-19.5-1-8.5-3c0 1.16-8.505 2-10 2 0 2.144-4.262.381-5.5 1-3.871 1.936-9.906 1-14.5 1v9Z"/><path fill="#FE5B50" id="SO" d="m258 279 5 1 2-2 2-2.5-3.5-.5c-3.58 1.79-5.5.086-5.5 4Z"/><path fill="#99D2BD" id="OLF" d="m318 276-1 1 1-1Z"/><path fill="#97D6F9" id="STR" d="M168 283c0 4.421-14.625 11.937-18.5 10-1.892-.946-5.372-2-7.5-2 0-1.338 2.838-9-1-9v-2l-1-1-1-2c1.608 0 6.462 5.981 8.5 7 7.869 3.934 18.246-7 19.5-7l1 6Z"/><path fill="#CAC7CB" id="fiber tracts" d="M199 278v1c4.594 0 10.629.936 14.5-1 1.238-.619 5.5 1.144 5.5-1h-11c0 1.751-7.426 1-9 1Z"/><path fill="#97D6F9" id="STR" d="m317 277-1 2 1-2ZM289 283c0 4.744 14.444 11.528 17.5 10 1.61-.805 5.802-2 7.5-2 0-1.679-2.123-10 2-10v-2c-3.026 0-8.722 8.389-15.5 5l-7-3-3.5-3c-1.643 0-1 3.765-1 5Z"/><path fill="#99D2BD" id="OLF" d="m140 279 1 1-1-1Z"/><path fill="#CACCCB" id="opt" d="m193 286 6 2v-9l-5 1c-2.109 0-2 2.535-2 4l1 1v1ZM263 286l-5 2v-9l5 1 1 2v3l-1 1Z"/><path fill="#99D2BD" id="OLF" d="M314 291c4.284 0 9.371 1 13 1 0-2.747.253-3 3-3 0-1.457-3-1.46-3-4-3.227 0-11 6.43-11-4-4.123 0-2 8.321-2 10ZM130 291h12c0-1.338 2.838-9-1-9 0 8.749-10.486 3-11 3l-3 4c1.238 0 3 .423 3 2Z"/><path fill="#CAC7CB" id="fiber tracts" d="M264 282c1.486 0 1.486 3 0 3v-3ZM192 284l1 1-1-1ZM199 288c0 2.239 4.29 0 5.5 0 3.91 0 11.49-2.245 15-4 8.211-4.106 30.697 4 38.5 4l5-2c0 2.652-8.095 6.203-10.5 5-5.414-2.707-14.169-4-20.5-4l-4.5-2c-7.371 3.685-16.683 2.342-24 6-1.542.771-10.5-2.666-10.5-5l6 2ZM264 285l-1 1 1-1Z"/><path fill="#99D2BD" id="OLF" d="m125 289-2 1 2-1Z"/><path fill="#CAC8C7" id="lot" d="m113 294 1 1c2.908 0 16 2.725 16-4 0-1.577-1.762-2-3-2h-2l-2 1-2 1h-2c0 1.579-2.855 1-4 1-1.747 0-2 .253-2 2ZM341 292c1.747 0 2 .253 2 2 0 3.992-16 1.392-16-2 0-2.747.253-3 3-3h2c0 1.577 1.762 2 3 2h2c0 1.579 2.855 1 4 1Z"/><path fill="#99D2BD" id="OLF" d="m332 289 3 2c-1.238 0-3-.423-3-2ZM123 290l-2 1 2-1ZM119 291c0 1.579-2.855 1-4 1l2-1h2ZM340 291l1 1c-1.145 0-4 .579-4-1h3ZM113 294l1 1-1-1Z"/></svg>