<svg xmlns="http://www.w3.org/2000/svg" viewBox="0 0 456 320"><path fill="#1E9C59" id="MOs1" d="M134 76c0 2.01 1 3.512 1 6l14.5-9c10.99-5.495 24.072-6.536 35-12 7.108-3.554 20.698 1.349 26 4l6.5 6 4-1c0-6.086-9.28-10.89-13.5-13-17.072-8.536-41.189 1.595-56 9-2.142 1.071-17.5 8.707-17.5 10ZM323 76c0 1.041-.986 5-2 5-4.896 0-12.131-6.816-16.5-9-10.335-5.168-22.736-5.868-33-11-4.871-2.436-19.086.043-23 2-3.346 1.673-5.945 8-9.5 8-1.238 0-3-.423-3-2 0-5.585 8.102-9.8 12.5-12 18.094-9.047 42.497 2.248 58 10 1.96.98 16.5 8.169 16.5 9Z"/><path fill="#1E9D58" id="MOs2/3" d="M135 83c0 6.222 2 10.256 2 16l14.5-10 26-14 12-4c3.932-1.966 21.5 2.172 21.5 6h1c0-1.43 3.939-4 5-4v-2l-6.5-6c-5.302-2.651-18.892-7.554-26-4-10.928 5.464-24.01 6.505-35 12L135 82v1ZM322 83c-2.185 0-1.696 10.891-2 11.5-.523 1.046.951 3.5-1 3.5-3.7 0-7.286-5.393-10.5-7-11.743-5.871-23.318-12.159-35-18-6.105-3.052-17.894-3.053-24 0l-4.5 4c-2.789 0-3.42-4-6-4v-2c3.555 0 6.154-6.327 9.5-8 3.914-1.957 18.129-4.436 23-2 10.264 5.132 22.665 5.832 33 11 4.369 2.184 11.604 9 16.5 9l1 2Z"/><path fill="#3EA665" id="ACAd1" d="M222 94h12c0-4.43-.858-10.783 1-14.5l4-6.5v-2c-1.238 0-3-.423-3-2l-7 9.5-.5 2.5c-2.024 0-4.249-11-7.5-11l-4 1v2c5.096 0 5 16.78 5 21Z"/><path fill="#1F9D58" id="MOs5" d="M137 99c0 4.109.761 22.977 0 24.5-1.263 2.527-2 4.392-2 7.5l2-3.5 8.5-10.5c10.133-5.067 34.315-22 45-22l3.5 2h1c0-6.383 16-15.651 16-20 0-3.828-17.568-7.966-21.5-6l-12 4-26 14L137 99ZM320 100c-1.158 0-1 6.257-1 8.5 0 7.187 1 12.987 1 19 0 1.231 2 3.306 2 5.5-1.325 0-2.43-5.361-3-6.5L308.5 115c-8.518-4.259-16.458-9.729-25-14-5.323-2.661-11.609-3.304-17-6l-4.5 2c-1.15 0-12.708-19-17-19v-1l4.5-4c6.106-3.053 17.895-3.052 24 0 11.682 5.841 23.257 12.129 35 18 3.214 1.607 6.8 7 10.5 7l1 2Z"/><path fill="#40A565" id="ACAd2/3" d="M222 94c-1.564 0-3.876 1-6 1l-1-12.5c-.936-1.873-3-3.23-3-5.5 0-1.43 3.939-4 5-4 5.096 0 5 16.78 5 21ZM234 94l6 1c0-2.892 1.095-17 5-17v-1c-2.789 0-3.42-4-6-4l-4 6.5c-1.858 3.717-1 10.07-1 14.5Z"/><path fill="#1E9D5A" id="MOp1" d="m99 170-5 1-3-9.5c-2.82-5.642.841-14.318-2-20-1.093-2.186 1.978-11.956 3-14 6.128-12.255 11.417-24.417 22-35 4.429-4.43 13.918-16.5 20-16.5 0 2.01 1 3.512 1 6v1c-5.404 0-7.984 6.742-12.5 9-9.259 4.63-21.115 24.73-25.5 33.5-2.218 4.436-.788 10.577-3 15-1.338 2.677 1.786 18.572 3 21 .736 1.471-.357 7.5 2 7.5v1ZM358 170l4 1c1.149 0 1.508-4.516 2-5.5 3.682-7.364 3-17.635 3-26.5 0-13.379-17.093-44.797-29.5-51-4.584-2.292-9.267-12-14.5-12 0 1.041-.986 5-2 5l1 2c4.813 0 19.011 14.522 21 18.5l8 10c3.216 6.431 6.82 12.641 10 19v5c5.286 10.573-3 23.682-3 33.5v1Z"/><path fill="#3EA566" id="ACAd5" d="m195 97 4 5c5.558 0 11.066-7 17-7l-1-12.5c-.936-1.873-3-3.23-3-5.5h-1c0 4.349-16 13.617-16 20ZM262 98c-2.741 0-2.75 4-5 4-5.478 0-10.897-7-17-7 0-2.892 1.095-17 5-17 4.292 0 15.85 19 17 19v1Z"/><path fill="#1F9C58" id="MOp2/3" d="m111 164-12 5c-2.357 0-1.264-6.029-2-7.5-1.214-2.428-4.338-18.323-3-21 2.212-4.423.782-10.564 3-15 4.385-8.77 16.241-28.87 25.5-33.5 4.516-2.258 7.096-9 12.5-9 0 6.222 2 10.256 2 16-3.266 0-9.326 8.826-11.5 11-6.43 6.43-21.202 32.097-16.5 41.5 1.269 2.539 2 8.728 2 11.5v1ZM346 163c0 2.194 9.902 6 12 6 0-9.818 8.286-22.927 3-33.5v-5c-3.18-6.359-6.784-12.569-10-19l-8-10c-1.989-3.978-16.187-18.5-21-18.5-2.185 0-1.696 10.891-2 11.5-.523 1.046.951 3.5-1 3.5l1 2c4.252 0 6.108 7.304 9.5 9 3.978 1.989 7.273 8.047 9.5 12.5 9.829 19.658 7 19.979 7 41.5Z"/><path fill="#2FA74F" id="PL2/3" d="M219 133h4c0-12.64-1-25.824-1-39-1.564 0-3.876 1-6 1 0 4.214-.449 29.602 1 32.5l2 5.5Z"/><path fill="#2FA750" id="PL1" d="M223 133h10c0-12.191 1-26.124 1-39h-12c0 13.176 1 26.36 1 39Z"/><path fill="#2FA74F" id="PL2/3" d="M233 133h5c0-12.387 2-25.013 2-38l-6-1c0 12.876-1 26.809-1 39Z"/><path fill="#1D9C5A" id="MOs6a" d="M133 142c.853 0 2 6.031 2 7 6.195 0 18.866-16 31-16l4-4c0-3.919 6.03-9 11-9l4-6 1-1 8-16-3.5-2c-10.685 0-34.867 16.933-45 22l-8.5 10.5-2 3.5-1 7c0 .922 1.681 3-1 3v1Z"/><path fill="#2EA84F" id="PL5" d="M204 132c5.172 0 10.365 1 15 1l-2-5.5c-1.449-2.898-1-28.286-1-32.5-5.934 0-11.442 7-17 7v1c0 7.999 5 19.698 5 28v1ZM252 132c-4.725 0-9.879 1-14 1 0-12.387 2-25.013 2-38 6.103 0 11.522 7 17 7v1c0 9.106-4 18.469-4 28l-1 1Z"/><path fill="#1D9C5A" id="MOs6a" d="m323 143-1 6c-6.408 0-18.535-16-32-16-.966 0-3-2.886-3-4 0-5.341-7.463-9-12-9 0-1.178-2.572-6-4-6 0-2.021-7.685-16-9-16v-1l4.5-2c5.391 2.696 11.677 3.339 17 6 8.542 4.271 16.482 9.741 25 14l10.5 11.5c.57 1.139 1.675 6.5 3 6.5v3l1 2v1c-1.399 0-1.399 2 0 2v2Z"/><path fill="#3FA664" id="ACAd6a" d="M199 103c-5.313 0-7.687 10-13 10l8-16h1l4 5v1ZM257 103c6.106 0 8.063 11 14 11 0-2.021-7.685-16-9-16-2.741 0-2.75 4-5 4v1Z"/><path fill="#1E9C5A" id="MOp5" d="M133 150c-5.826 0-16.982 13-22 13 0-2.772-.731-8.961-2-11.5-4.702-9.403 10.07-35.07 16.5-41.5 2.174-2.174 8.234-11 11.5-11 0 4.109.761 22.977 0 24.5-1.263 2.527-2 4.392-2 7.5l-1 7c-1.473 0-1 1.952-1 3v9ZM345 163h1c0-21.521 2.829-21.842-7-41.5-2.227-4.453-5.522-10.511-9.5-12.5-3.392-1.696-5.248-9-9.5-9-1.158 0-1 6.257-1 8.5 0 7.187 1 12.987 1 19 0 1.231 2 3.306 2 5.5v3l1 2v5c2.515 0 0 5.014 0 6v1c5.385 0 17.643 13 22 13Z"/><path fill="#2FA850" id="PL6a" d="M196 131h8c0-8.302-5-20.001-5-28-5.313 0-7.687 10-13 10l-1 1-4 6c1.577 0 2 1.762 2 3 4.021 0 8.01 8 13 8ZM253 131h8l12-8c0-2.215 2-1.519 2-3 0-1.178-2.572-6-4-6-5.937 0-7.894-11-14-11 0 9.106-4 18.469-4 28Z"/><path fill="#3FA664" id="ACAd6a" d="m186 113-1 1 1-1Z"/><path fill="#268E44" id="FRP6a" d="m179 125-9 4c0-3.919 6.03-9 11-9 1.577 0 2 1.762 2 3l1 2-4-1-1 1ZM277 125c3.915 0 5.954 4 10 4 0-5.341-7.463-9-12-9 0 1.481-2 .785-2 3v1c1.145 0 4-.579 4 1Z"/><path fill="#22885E" id="ORBm6a" d="M201 161v1c4.39 0 7 4.713 7-5v-1c-.159 0-2.624-4.748-3-5.5-1.352-2.703-9-17.76-9-19.5-4.99 0-8.979-8-13-8l1 2c0 10.849 17 23.738 17 36ZM256 162l-1 1c-6.005 0-6 .048-6-7v-2l12-23 12-8v1c0 10.019-17 23.859-17 37v1Z"/><path fill="#24895D" id="ORBl6a" d="m180 124-1 1 1-1Z"/><path fill="#238A5C" id="ORBvl6a" d="M184 149c6.701 0 11.982 12 17 12 0-12.262-17-25.151-17-36l-4-1-1 1v5c4.791 0 5.495 6 0 6h-1c0 4.192 5 8.209 5 12l1 1ZM272 149h1c0-4.412 5-8.158 5-13-5.412 0-6.024-6-1-6v-5c0-1.579-2.855-1-4-1 0 10.019-17 23.859-17 37 2.507 0 12.203-12 16-12Z"/><path fill="#24895D" id="ORBl6a" d="m151 155-2 5c7.08 0 14.427-7.964 20.5-11 3.566-1.783 9.243-1 13.5-1 0-3.791-5-7.808-5-12-7.535 0-5.344-6 1-6v-5l-9 4-4 4-14 20-1 2ZM303 152l5 9c-6.738 0-14.594-9.047-20.5-12-4.567-2.284-10.084 0-14.5 0 0-4.412 5-8.158 5-13 7.281 0 6.681-6 0-6h-1v-5c3.915 0 5.954 4 10 4 0 1.114 2.034 4 3 4 0 4.328 13 14.19 13 19Z"/><path fill="#248A5C" id="ORBl6b" d="M178 136h1v-6c-6.344 0-8.535 6-1 6Z"/><path fill="#22895E" id="ORBvl6b" d="M179 130c4.791 0 5.495 6 0 6v-6ZM278 130v6c-5.412 0-6.024-6-1-6h1Z"/><path fill="#248A5C" id="ORBl6b" d="M278 130c6.681 0 7.281 6 0 6v-6Z"/><path fill="#58B362" id="ILA6a" d="M204 132c0 7.742 4 15.808 4 24-.159 0-2.624-4.748-3-5.5-1.352-2.703-9-17.76-9-19.5h8v1Z"/><path fill="#2FA850" id="PL6a" d="m253 131-1 1 1-1Z"/><path fill="#58B362" id="ILA6a" d="M252 132c0 7.618-3 14.096-3 22l12-23h-8l-1 1Z"/><path fill="#59B262" id="ILA5" d="M208 157c1.105 0 5.838 14 9 14 3.038 0 1.178-5.856 2-7.5 3.971-7.942 0-21.564 0-30.5-4.635 0-9.828-1-15-1 0 7.742 4 15.808 4 24v1ZM249 156l-9 16c-2.153 0-3-7.075-3-9 0-9.92 1-20.748 1-30 4.121 0 9.275-1 14-1 0 7.618-3 14.096-3 22v2Z"/><path fill="#209666" id="AId6a" d="M146 161h1c0-1.417 2.383-6 4-6l1-2 14-20c-12.134 0-24.805 16-31 16h-2v1c0 6.917 6.644 11 13 11Z"/><path fill="#59B362" id="ILA2/3" d="M216 173c2.523 0 1.959 2 5 2 0-.237 3.563-13.627 4-14.5 2.54-5.079-2-21.057-2-27.5h-4c0 8.936 3.971 22.558 0 30.5-.822 1.644 1.038 7.5-2 7.5l-1 2Z"/><path fill="#59B263" id="ILA1" d="m235 176-6 1v-2c0-5.174-1-7.408-1-1-1.473 0-1 1.952-1 3l-6-1v-1c0-.237 3.563-13.627 4-14.5 2.54-5.079-2-21.057-2-27.5h10l-1 33.5c1.324 2.647 3 6.4 3 9.5Z"/><path fill="#59B362" id="ILA2/3" d="M235 176h1l4-3v-1c-2.153 0-3-7.075-3-9 0-9.92 1-20.748 1-30h-5l-1 33.5c1.324 2.647 3 6.4 3 9.5Z"/><path fill="#209666" id="AId6a" d="M310 161h1c6.609 0 12-4.108 12-11v-1h-1c-6.408 0-18.535-16-32-16 0 4.328 13 14.19 13 19 1.758 0 7 7.424 7 9Z"/><path fill="#1F9B5A" id="MOp6a" d="m322 136 1 2-1-2ZM134 138c-1.473 0-1 1.952-1 3 2.681 0 1-2.078 1-3ZM323 139c-1.399 0-1.399 2 0 2v-2ZM133 149h2c0-.969-1.147-7-2-7v7ZM322 149h1c0-.986 2.515-6 0-6l-1 6Z"/><path fill="#228A5D" id="ORBl5" d="m189 168-4.5-3c-2.971-1.485-10.714.857-13 2L148 182c-1.845 0-1.441-3.381-2-4.5-4.712-9.425 2-9.351 2-16.5l1-1c7.08 0 14.427-7.964 20.5-11 3.566-1.783 9.243-1 13.5-1l1 1c0 4.965 5 12.041 5 19ZM267 169c3.247 0 6.003-7.748 17.5-2l24.5 15c0-3.635 6.308-6.884 4-11.5l-5-9.5c-6.738 0-14.594-9.047-20.5-12-4.567-2.284-10.084 0-14.5 0h-1c0 6.721-5 12.441-5 20Z"/><path fill="#23885C" id="ORBvl5" d="m189 169 12 9-2-2.5c-.867-1.733 1.372-3.744 2-5V161c-5.018 0-10.299-12-17-12 0 4.965 5 12.041 5 19v1ZM267 169c-4.372 0-6.216 8-11 8l2-2.5c0-3.549-3-7.11-3-11.5l1-1v-1c2.507 0 12.203-12 16-12 0 6.721-5 12.441-5 20Z"/><path fill="#209665" id="AId5" d="M111 164c0 4.363 6.142 25 10 25l6.5-6c2.852-2.852 18.5-19.567 18.5-22-6.356 0-13-4.083-13-11-5.826 0-16.982 13-22 13v1ZM345 163c0 4.438-4.912 26-9 26-2.227 0-25-25.405-25-28 6.609 0 12-4.108 12-11 5.385 0 17.643 13 22 13Z"/><path fill="#1F9866" id="AIv6a" d="M308 161h2c0-1.576-5.242-9-7-9l5 9ZM152 153l-1 2 1-2ZM147 161h1l1-1 2-5c-1.617 0-4 4.583-4 6Z"/><path fill="#23885E" id="ORBm5" d="M250 180h3l2-1v-1l1-1 2-2.5c0-3.549-3-7.11-3-11.5-6.005 0-6 .048-6-7l-9 16v1l10 7ZM204 180h2l5.5-3 4.5-4 1-2c-3.162 0-7.895-14-9-14 0 9.713-2.61 5-7 5v8.5c-.628 1.256-2.867 3.267-2 5l2 2.5v1c1.048 0 3-.473 3 1Z"/><path fill="#1F9865" id="AIv5" d="M121 189v1c4.146 0 6.86 4.32 11.5 2 4.036-2.018 11.035-9 15.5-9v-1c-1.845 0-1.441-3.381-2-4.5-4.712-9.425 2-9.351 2-16.5h-2c0 2.433-15.648 19.148-18.5 22l-6.5 6ZM336 189v1c-5.621 0-8.487 4.006-14.5 1-3.69-1.845-9.147-8-12.5-8v-1c0-3.635 6.308-6.884 4-11.5l-5-9.5h3c0 2.595 22.773 28 25 28Z"/><path fill="#23885E" id="ORBm5" d="m256 162-1 1 1-1Z"/><path fill="#209765" id="AId2/3" d="M336 190c3.725 0 6.849 6 11 6l9-20.5c.557-1.114.41-5.5 2-5.5v-1c-2.098 0-12-3.806-12-6h-1c0 4.438-4.912 26-9 26v1ZM109 196h1c0-1.951 2.454-.477 3.5-1 3.168-1.584 3.674-5 7.5-5v-1c-3.858 0-10-20.637-10-25l-12 5v1c0 9.165 10 17.19 10 26Z"/><path fill="#238A5E" id="ORBl2/3" d="M148 183c0 1.674 1 2.326 1 4 3.727 0 8.253-4.376 11.5-6 5.936-2.968 14.372-2 21.5-2h5c0-4.821 2-5.775 2-10v-1l-4.5-3c-2.971-1.485-10.714.857-13 2L148 182v1ZM309 183c-2.109 0-2 2.535-2 4-3.655 0-7.335-4.417-10.5-6-5.835-2.917-14.491-2-21.5-2h-6c0-4.113-2-6.422-2-10 3.247 0 6.003-7.748 17.5-2l24.5 15v1Z"/><path fill="#248A5D" id="ORBvl2/3" d="M198 180h3v-2l-12-9c0 4.225-2 5.179-2 10l11 1ZM255 180h3l11-1c0-4.113-2-6.422-2-10-4.372 0-6.216 8-11 8l-1 1v2Z"/><path fill="#209764" id="AId1" d="m109 196-3 2-3-5.5c-2.881-5.761-9-14.883-9-21.5l5-1c0 9.165 10 17.19 10 26ZM347 197h4l3-5.5c2.876-5.753 8-13.776 8-20.5l-4-1c-1.59 0-1.443 4.386-2 5.5l-9 20.5v1Z"/><path fill="#24885D" id="ORBm2/3" d="M206 180h13l2-4v-1c-3.041 0-2.477-2-5-2l-4.5 4-5.5 3ZM238 180h12l-10-7-4 3 2 4Z"/><path fill="#99D2BD" id="OLF" d="M227 180c.839 0 2 1.93 2 0v-5l-1-1c-1.473 0-1 1.952-1 3v3Z"/><path fill="#23895D" id="ORBm1" d="M219 180h8v-3l-6-1-2 4ZM229 180h9l-2-4h-1l-6 1v3Z"/><path fill="#23885C" id="ORBvl5" d="m256 177-1 1 1-1Z"/><path fill="#6ACAB9" id="PIR" d="M170 236c-1.445 0-2.841 9-7 9-11.055 0-19.672-15-34-15-6.289 0-11.591-7.681-14-12.5l1-7.5c1.952 0 18-10.676 18-12l1-1 2-1 1-1 2-1 1-1 1-1 2-1 1-1 2-1 1-1 1-1c3.727 0 8.253-4.376 11.5-6 5.936-2.968 14.372-2 21.5-2 0 6.294-19.826 16.152-23 22.5-3.606 7.212 5.469 13.938 8 19 2.11 4.219 3 10.477 3 15.5Z"/><path fill="#99D2BD" id="OLF" fill-rule="evenodd" d="M168 200c0 1.427-5 1.863-5 5.5 0 2.84.858 3.716 2 6 1.019 2.039.942 4.885 2 7 6.017 12.033 11.274-18.5 1-18.5m15 21c-3.919 0-10.294 6.087-12 9.5-.619 1.238 1.144 5.5-1 5.5 0-5.023-.89-11.281-3-15.5-2.531-5.062-11.606-11.788-8-19 3.174-6.348 23-16.206 23-22.5h5l11 1 1 7c-8.677 0-9.226 9.953-12 15.5-.703 1.406 1.261 7.5-1 7.5 0-10.456-5.432-11.636-10-2.5-2.824 5.647 7 9.454 7 13.5Z"/><path fill="#24885D" id="ORBm2/3" d="M201 180h3c0-1.473-1.952-1-3-1v1ZM253 180h2v-1l-2 1Z"/><path fill="#99D2BD" id="OLF" fill-rule="evenodd" d="M287 200c0 1.233-4 2.075-4 5.5v7.5c0 23.966 20.012-13 4-13m7 51-3 1c0-6.706-7.045-1-10-1 0-1.638 5.09-7.679 6-9.5 2.714-5.429-7.417-20.5-14-20.5l5-4.5 2-5c2.063-4.125-2.771-12.865-7.5-10.5-1.7.85-.257 10-2.5 10 0-8.006-2.553-24-13-24 0-2.278 1-4.847 1-7l11-1h6c0 6.514 19.24 16.98 23 24.5l-1 7-6 7c-2.348 4.697-9.626 27.5 3 27.5v6Z"/><path fill="#6ACAB9" id="PIR" d="M327 231c0-1.973-7.392-.554-8.5 0-5.774 2.887-18.751 14-24.5 14-12.626 0-5.348-22.803-3-27.5l6-7 1-7c-3.76-7.52-23-17.986-23-24.5 7.009 0 15.665-.917 21.5 2 3.165 1.583 6.845 6 10.5 6l1 1 2 1 2 2h1l2 2h1l2 2h1c0 1.296 12.717 11.108 14.5 12 1.139.57 6.5 1.675 6.5 3l1 8.5c-1.977 3.954-8.545 12.5-14 12.5Z"/><path fill="#A3DAA3" id="DP" d="M229 193h19c2.717 0 9-2.472 9-6 0-2.278 1-4.847 1-7h-29c0 1.93-1.161 0-2 0h-29l1 7c3.357 0 5.933 7 10 7 0-4.404 15.908-1 18-1 .839 0 2-1.93 2 0Z"/><path fill="#219764" id="AIv2/3" d="m135 197-1 1c-6.051 0-16.13 12.24-21 2.5l-3-4.5c0-1.951 2.454-.477 3.5-1 3.168-1.584 3.674-5 7.5-5 4.146 0 6.86 4.32 11.5 2 4.036-2.018 11.035-9 15.5-9 0 1.674 1 2.326 1 4l-1 1-1 1-2 1-1 1-2 1-1 1-1 1-2 1-1 1-2 1ZM347 196v1c-3.403 0-5.483 10.008-11.5 7-1.749-.875-16.258-9-16.5-9h-1l-2-2h-1l-2-2h-1l-2-2-2-1-1-1c0-1.465-.109-4 2-4 3.353 0 8.81 6.155 12.5 8 6.013 3.006 8.879-1 14.5-1 3.725 0 6.849 6 11 6Z"/><path fill="#54BF94" id="AON" d="M183 255h2c9.436 0 13.199-8 15-8l1-2v-1l1-1 3.5-4 12.5-10v-9c-3.669 0-2.085-5.671-3-7.5-2.492-4.984-6-12.725-6-18.5-4.067 0-6.643-7-10-7-8.677 0-9.226 9.953-12 15.5-.703 1.406 1.261 7.5-1 7.5 0 3.251 3.514 11-3 11-3.919 0-10.294 6.087-12 9.5-.619 1.238 1.144 5.5-1 5.5 0 6.745 5 14.445 5 15h1l1 1 5 2 1 1ZM280 252c-3.391 0-5.353 3-9 3-10.795 0-14.183-10-16-10 0-2.877-13.518-15-16-15 0-2.295-1-5.296-1-9l3-3.5c1.05-2.101 7-22.578 7-24.5 2.717 0 9-2.472 9-6 10.447 0 13 15.994 13 24 0 3.233-1.461 10 3 10 6.583 0 16.714 15.071 14 20.5-.91 1.821-6 7.862-6 9.5l-1 1Z"/><path fill="#209864" id="AIv1" d="m307 187 1 1-1-1ZM148 188l-1 1 1-1ZM310 189l2 2-2-2ZM145 190l-1 1 1-1ZM313 191l2 2-2-2ZM142 192l-1 1 1-1Z"/><path fill="#61D09F" id="TTd" d="M218 220c5.9 0 13.427 1 20 1l3-3.5c1.05-2.101 7-22.578 7-24.5h-19c0 5.671-2 4.907-2 0-2.092 0-18-3.404-18 1 0 5.775 3.508 13.516 6 18.5.915 1.829-.669 7.5 3 7.5Z"/><path fill="#99D2BD" id="OLF" d="M227 193c.839 0 2-1.93 2 0 0 5.671-2 4.907-2 0Z"/><path fill="#209864" id="AIv1" d="m141 193-1 1 1-1ZM316 193l2 2-2-2ZM138 195l-1 1 1-1ZM351 197c0 3.967-6.52 13-11 13 0-1.325-5.361-2.43-6.5-3-1.783-.892-14.5-10.704-14.5-12 .242 0 14.751 8.125 16.5 9 6.017 3.008 8.097-7 11.5-7h4ZM134 198c0 1.324-16.048 12-18 12l-3.5-2c-2.584-2.584-6.5-6.377-6.5-10l3-2h1l3 4.5c4.87 9.74 14.949-2.5 21-2.5ZM137 196l-2 1 2-1ZM135 197l-1 1 1-1Z"/><path fill="#A0EE9C" id="EPd" d="M168 200c0 1.427-5 1.863-5 5.5 0 2.84.858 3.716 2 6 1.019 2.039.942 4.885 2 7 6.017 12.033 11.274-18.5 1-18.5ZM287 200c0 1.233-4 2.075-4 5.5v7.5c0 23.966 20.012-13 4-13Z"/><path fill="#CBCBC7" id="aco" d="M186 210c0 3.251 3.514 11-3 11 0-4.046-9.824-7.853-7-13.5 4.568-9.136 10-7.956 10 2.5ZM270 211c2.243 0 .8-9.15 2.5-10 4.729-2.365 9.563 6.375 7.5 10.5l-2 5-5 4.5c-4.461 0-3-6.767-3-10Z"/><path fill="#99D2BD" id="OLF" d="M218 229c6.903 0 14.772 1 21 1 0-2.295-1-5.296-1-9-6.573 0-14.1-1-20-1v9Z"/><path fill="#62CF9E" id="TTv" d="m216 258-1 1c-1.639 0-2.455 2-3.5 2-6.994 0-11.5-7.654-11.5-14l1-2v-1l1-1 3.5-4 12.5-10c6.903 0 14.772 1 21 1 2.482 0 16 12.123 16 15l2 6.5c-1.636 3.273-8.373 11.064-13.5 8.5l-3.5-3c-1.523 0-10.04-12.58-11-14.5l-.5-3.5-5.5 10.5-6 7.5-1 1Z"/><path fill="#CAC8C7" id="lot" d="M163 245c0 2.124-1 4.436-1 6-4.912 0-33-17.111-33-21 14.328 0 22.945 15 34 15ZM294 245v6c9.275 0 17.632-10.066 25.5-14 2.54-1.27 7.5-2.091 7.5-6 0-1.973-7.392-.554-8.5 0-5.774 2.887-18.751 14-24.5 14Z"/><path fill="#99D2BD" id="OLF" d="M166 252v1l-4-2c0-1.564 1-3.876 1-6 4.159 0 5.555-9 7-9 0 6.745 5 14.445 5 15-3.831 0-9-6.635-9 1ZM202 243l-1 1 1-1ZM201 245l-1 2 1-2ZM249 263l-1 1c-2.837 0-8-3.91-8-7l3.5 3c5.127 2.564 11.864-5.227 13.5-8.5l-2-6.5c1.817 0 5.205 10 16 10 0 .787-4.678 2-5.5 2-3.283 0-16.5 3.403-16.5 6ZM208 263l1 1c1.668 0 6-3.099 6-5-1.639 0-2.455 2-3.5 2-6.994 0-11.5-7.654-11.5-14-1.801 0-5.564 8-15 8 0 3.084 10.485.992 12.5 2l10.5 6Z"/><path fill="#7FCCF7" id="OT" d="m208 263-1 2-9.5 1-10.5-3-4-2h-2c0-1.577-1.762-2-3-2h-1l-4-2h-1l-2-2-2-1-2-2c0-7.635 5.169-1 9-1h1l1 1 5 2 1 1h2c0 3.084 10.485.992 12.5 2l10.5 6ZM269 263l-10.5 3-9.5-1v-2c0-2.597 13.217-6 16.5-6 .822 0 5.5-1.213 5.5-2 3.647 0 5.609-3 9-3l1-1c2.955 0 10-5.706 10 1l-1 1h-1l-1 1-1 1-2 1-1 1h-1l-2 1-2 1-2 1h-1l-1 1h-2l-2 1-2 1Z"/><path fill="#99D2BD" id="OLF" d="m176 251 1 1-1-1ZM281 251l-1 1 1-1Z"/><path fill="#97D6F9" id="STR" d="m166 253 2 1-2-2v1ZM291 252l-1 1 1-1ZM289 253l-1 1 1-1Z"/><path fill="#99D2BD" id="OLF" d="m182 254 1 1-1-1Z"/><path fill="#97D6F9" id="STR" d="m288 254-1 1 1-1ZM170 255l2 2-2-2ZM285 256l-1 1 1-1ZM173 257l4 2-4-2Z"/><path fill="#99D2BD" id="OLF" d="m217 257-1 1 1-1Z"/><path fill="#97D6F9" id="STR" d="m283 257-2 1 2-1Z"/><path fill="#99D2BD" id="OLF" d="m216 258-1 1 1-1Z"/><path fill="#97D6F9" id="STR" d="m281 258-2 1 2-1ZM178 259c1.238 0 3 .423 3 2l-3-2ZM279 259l-2 1 2-1ZM276 260l-1 1 1-1ZM183 261l4 2-4-2ZM273 261l-2 1 2-1ZM271 262l-2 1 2-1ZM209 264l-2 1 1-2 1 1ZM248 264l1 1v-2l-1 1Z"/></svg>