<svg xmlns="http://www.w3.org/2000/svg" viewBox="0 0 456 320"><path fill="#1E9C59" id="MOs1" d="M218 71c0-4.207-10.23-10.365-13.5-12h-9c-6.729-3.364-37.088 7.544-44 11-3.313 1.657-8.806 7-12.5 7v-6c0-1.632 15.242-7.871 17.5-9 9.056-4.528 38.186-14.407 49-9 2.32 1.16 4.351 3.175 6 4 2.55 1.275 10.5 7.778 10.5 11l-4 3ZM317 77h1v-6l-13.5-8c-13.514-6.757-40.803-15.598-56-8-4.22 2.11-13.5 6.914-13.5 13l3 3h1c0-4.24 9.267-10.384 12.5-12h9c7.086-3.543 36.881 7.44 44 11l12.5 7Z"/><path fill="#1E9D58" id="MOs2/3" d="M139 78c0 3.625.952 9.405 2 11.5.523 1.046-.951 3.5 1 3.5 4.42 0 9.613-6.056 13.5-8 8.987-4.493 25.565-16 35.5-16 4.228 0 20 .736 20 6h1l6-4c0-4.207-10.23-10.365-13.5-12h-9c-6.729-3.364-37.088 7.544-44 11-3.313 1.657-8.806 7-12.5 7v1ZM317 77c0 3.36-1.73 10.04-1 11.5.687 1.374.537 4.5-1 4.5-4.252 0-6.941-4.22-10.5-6-10.43-5.215-27.8-18-39.5-18-4.199 0-20 1.056-20 6l-6-4c0-4.24 9.267-10.384 12.5-12h9c7.086-3.543 36.881 7.44 44 11l12.5 7Z"/><path fill="#3EA665" id="ACAd1" d="M222 95h12V79.5c.9-1.8 4-6.713 4-8.5l-3-3c-5.135 0-4.591 15.318-9 6.5l-1-3c-.614-1.228-3-1.276-3-3.5l-4 3 5 9.5-1 14.5Z"/><path fill="#1F9D58" id="MOs5" d="M194 95h1c0-6.028 16-15.845 16-20 0-5.264-15.772-6-20-6-9.935 0-26.513 11.507-35.5 16-3.887 1.944-9.08 8-13.5 8l-1 2c0 7.745 1 15.55 1 23 2.899 0 9.429-7.965 11.5-9 9.155-4.578 18.871-8.436 28-13 1.64-.82 12.5-5.17 12.5-1ZM262 95c1.602 0 2.384-3.058 4.5-2 5.391 2.696 11.677 3.339 17 6 6.483 3.241 12.597 6.799 19 10l12.5 9V93c-4.252 0-6.941-4.22-10.5-6-10.43-5.215-27.8-18-39.5-18-4.199 0-20 1.056-20 6v1c0 2.568 16 12.894 16 19h1Z"/><path fill="#1E9D5A" id="MOp1" d="m94 172-4 1c-1.454 0-1.433-5.366-2-6.5-1.237-2.475-4.356-22.287-3-25 2.67-5.34 1.31-12.622 4-18 6.228-12.456 18.45-33.475 32.5-40.5 5.682-2.84 10.869-12 17.5-12v7c-5.145 0-23.431 15.362-26 20.5-1.352 2.705-6.276 5.553-8 9l-12 20c-6.68 13.361 1 31.327 1 44.5Z"/><path fill="#40A565" id="ACAd2/3" d="M217 95h5l1-14.5-5-9.5-6 4 3 4.5 2 15.5ZM234 95h6c0-3.837.5-19 5-19v-1l-6-4h-1c0 1.787-3.1 6.7-4 8.5V95Z"/><path fill="#1E9D5A" id="MOp1" d="m362 172 5 1c0-8.197 8.273-28.955 4-37.5-1.562-3.125-1.475-6.95-3-10-6.268-12.536-17.43-32.965-28.5-38.5-6.038-3.02-13.578-16-21.5-16v6c0 2.356 9.555 7.028 11.5 8 6.08 3.04 20.038 17.576 23.5 24.5 3.883 7.766 8.179 15.358 12 23v7c4.856 9.712-3 23.073-3 32.5Z"/><path fill="#3EA566" id="ACAd5" d="m217 95-17 7c0-2.923-5-5.576-5-7 0-6.028 16-15.845 16-20h1l3 4.5 2 15.5ZM240 96c6.195 0 11.469 6 17 6 0-3.313 4-4.49 4-7 0-6.106-16-16.432-16-19-4.5 0-5 15.163-5 19v1Z"/><path fill="#1F9C58" id="MOp2/3" d="M349 167c4.996 0 8.803 5 13 5 0-9.427 7.856-22.788 3-32.5v-7c-3.821-7.642-8.117-15.234-12-23-3.462-6.924-17.42-21.46-23.5-24.5-1.945-.972-11.5-5.644-11.5-8h-1c0 3.36-1.73 10.04-1 11.5.687 1.374.537 4.5-1 4.5v1l11.5 9c8.799 4.4 16.139 17.779 20.5 26.5 2.108 4.216 1.876 9.752 4 14l-1 16.5c0 1.235.643 5-1 5v2ZM94 172h1c0-1.764 10.187-5 12-5v-1c0-27.135-2.328-38.172 18-58.5 3.953-3.953 10.58-12.5 16-12.5l1-2c-1.951 0-.477-2.454-1-3.5-1.048-2.095-2-7.875-2-11.5-5.145 0-23.431 15.362-26 20.5-1.352 2.705-6.276 5.553-8 9l-12 20c-6.68 13.361 1 31.327 1 44.5Z"/><path fill="#1D9C5A" id="MOs6a" d="M168 134c-11.888 0-25.571 15-31 15 0-11.502 4-19.706 4-30l1-1c2.899 0 9.429-7.965 11.5-9 9.155-4.578 18.871-8.436 28-13 1.64-.82 12.5-5.17 12.5-1 0 6.121-10 14.35-10 22l-1 1c0 1.974-2 3.517-2 6l-1 1h-3c-5.688 0-9 3.347-9 9ZM288 133c10.182 0 26.716 16 31 16 0-12.27-4-21.659-4-30v-1l-12.5-9c-6.403-3.201-12.517-6.759-19-10-5.323-2.661-11.609-3.304-17-6-2.116-1.058-2.898 2-4.5 2 0 4.138 11 16.427 11 23l3 6 3 1c5.684 0 9 2.199 9 8Z"/><path fill="#1E9C5A" id="MOp5" d="M327 153c6.327 0 14.148 12 22 12 1.643 0 1-3.765 1-5l1-16.5c-2.124-4.248-1.892-9.784-4-14-4.361-8.721-11.701-22.1-20.5-26.5L315 94v25c5.894 0 10.835 18.17 13 22.5 1.592 3.184-1 8.819-1 11.5ZM129 153c-5.244 0-14.954 13-22 13 0-27.135-2.328-38.172 18-58.5 3.953-3.953 10.58-12.5 16-12.5 0 7.745 1 15.55 1 23l-1 1c-5.829 0-11.037 20.574-13 24.5l1 9.5Z"/><path fill="#3FA664" id="ACAd6a" d="M200 102c-6.235 0-10.736 15-16 15 0-7.65 10-15.879 10-22h1c0 1.424 5 4.077 5 7Z"/><path fill="#2EA84F" id="PL5" d="M204 133h14c0-11.939-1-25.399-1-38l-17 7c0 10.68 4 20.659 4 31Z"/><path fill="#2FA74F" id="PL2/3" d="M219 133h4c0-12.07-1-25.308-1-38h-5c0 12.601 1 26.061 1 38h1Z"/><path fill="#2FA750" id="PL1" d="M223 133h11V95h-12c0 12.692 1 25.93 1 38Z"/><path fill="#2FA74F" id="PL2/3" d="M234 133h4c0-11.999 2-24.362 2-37v-1h-6v38Z"/><path fill="#3FA664" id="ACAd6a" d="M257 103c5.325 0 12.801 15 16 15 0-6.573-11-18.862-11-23h-1c0 2.51-4 3.688-4 7v1Z"/><path fill="#2EA84F" id="PL5" d="M238 133h14c0-2.637 2.97-22.439 4-24.5.619-1.238-1.144-5.5 1-5.5v-1c-5.531 0-10.805-6-17-6 0 12.638-2 25.001-2 37Z"/><path fill="#2FA850" id="PL6a" d="M191 133h13c0-10.341-4-20.32-4-31-6.235 0-10.736 15-16 15l-1 1c0 1.974-2 3.517-2 6 0 1.548 4 2.767 4 6l6 3ZM252 133h13l5-2 1-1c0-2.313 1.452-5 4-5l1-1-3-6c-3.199 0-10.675-15-16-15-2.144 0-.381 4.262-1 5.5-1.03 2.061-4 21.863-4 24.5Z"/><path fill="#3FA664" id="ACAd6a" d="m184 117-1 1 1-1Z"/><path fill="#1F9B5A" id="MOp6a" d="m142 118-1 1 1-1ZM137 149l-8 4-1-9.5c1.963-3.926 7.171-24.5 13-24.5 0 10.294-4 18.498-4 30ZM319 149l8 4c0-2.681 2.592-8.316 1-11.5-2.165-4.33-7.106-22.5-13-22.5 0 8.341 4 17.73 4 30Z"/><path fill="#2FA84F" id="PL6b" d="M184 130h1c0-3.233-4-4.452-4-6l-1 1 1 1h1l1 1 1 3ZM276 124l-1 1 1-1Z"/><path fill="#258F44" id="FRP6b" d="M275 126h4v-1l-3-1-1 1v1Z"/><path fill="#1E9C58" id="MOs6b" d="M168 134h1c0-4.234 3.842-8 8-8v-1c-5.688 0-9 3.347-9 9Z"/><path fill="#258F44" id="FRP6b" d="M177 126h4l-1-1h-3v1Z"/><path fill="#2FA84F" id="PL6b" d="M271 130h1l3-4v-1c-2.548 0-4 2.687-4 5Z"/><path fill="#1E9C58" id="MOs6b" d="M287 134h1v-1c0-5.801-3.316-8-9-8v1c4.854 0 8 2.967 8 8Z"/><path fill="#CAC7CC" id="fa" d="m187 140 1 1.5c2.94 5.88-4.943 1.5-6 1.5-7.463 0-13 .963-13-8v-1c0-4.234 3.842-8 8-8h5l1 1 1 3c0 3.372 3 6.053 3 10Z"/><path fill="#CACCC7" id="cing" d="m182 126 1 1-1-1Z"/><path fill="#CAC7CC" id="fa" d="M269 141c0 6.417 2.027 2 6 2 7.318 0 12 .595 12-8v-1c0-5.033-3.146-8-8-8h-4l-3 4-3 11Z"/><path fill="#24875E" id="ORBm6b" d="m187 140 2 1c0-3.915-4-7.622-4-11h-1c0 3.372 3 6.053 3 10Z"/><path fill="#22885E" id="ORBm6a" d="M197 177h8c0-9.368-2.551-22.602-7-31.5-1.657-3.313-7-8.806-7-12.5l-6-3c0 3.378 4 7.085 4 11v2c3.725 0 8 15.452 8 19 0 1.774.273 7-2 7v1l2 5v2Z"/><path fill="#24875E" id="ORBm6b" d="M268 141h1l3-11h-1l-1 1-2 10Z"/><path fill="#22885E" id="ORBm6a" d="M252 177h7l1-1v-1l1-2v-4l-2-4.5c-1.782-3.565 5.963-21.5 8-21.5v-1l1-1 2-10-5 2c0 3.546-6.055 11.61-8 15.5-4.262 8.525-5 20.352-5 28.5Z"/><path fill="#58B362" id="ILA6a" d="M205 177h4v-21.5c-2.74-5.481-5-16.252-5-22.5h-13c0 3.694 5.343 9.187 7 12.5 4.449 8.898 7 22.132 7 31.5Z"/><path fill="#59B262" id="ILA5" d="M209 177h6c0-1.657 4.004-13.508 5-15.5l-1-28.5h-15c0 6.248 2.26 17.019 5 22.5V177Z"/><path fill="#59B362" id="ILA2/3" d="M215 177h5l4-11.5c1.272-2.544-.326-6.347 1-9 1.62-3.24-2-18.229-2-23.5h-4l1 28.5c-.996 1.992-5 13.843-5 15.5Z"/><path fill="#59B263" id="ILA1" d="M229 177h8c0-2.824-3.621-10.741-5-13.5-2.998-5.997 2-24.094 2-30.5h-11c0 5.271 3.62 20.26 2 23.5-1.326 2.653.272 6.456-1 9l-4 11.5h7c0-2.124 1-4.436 1-6 0-9.17 1-9.17 1 0v6Z"/><path fill="#59B362" id="ILA2/3" d="M237 177h5l-5-11.5c-2.775-5.55 1-26.225 1-32.5h-4c0 6.406-4.998 24.503-2 30.5 1.379 2.759 5 10.676 5 13.5Z"/><path fill="#59B262" id="ILA5" d="M242 177h5v-18.5c3.228-6.455 5-17.995 5-25.5h-14c0 6.275-3.775 26.95-1 32.5l5 11.5Z"/><path fill="#58B362" id="ILA6a" d="M247 177h5c0-8.148.738-19.975 5-28.5 1.945-3.89 8-11.954 8-15.5h-13c0 7.505-1.772 19.045-5 25.5V177Z"/><path fill="#209666" id="AId6a" d="M313 165h1c6.778 0 13-4.905 13-12l-8-4c-4.284 0-20.818-16-31-16v1l1 2v1c1.023 0 12 10.661 12 13l2 2v1c1.868 0 10 9.62 10 12ZM150 157l-7 8c-6.177 0-14-5.302-14-12l8-4c5.429 0 19.112-15 31-15v2l-4 3.5c-2.794 2.794-10 9.361-10 12.5l-1 1-1 1-1 2-1 1Z"/><path fill="#1F9766" id="AId6b" d="M168 135h1v-1h-1v1ZM287 135l2 1-1-2h-1v1Z"/><path fill="#248A5C" id="ORBl6b" d="m182 143 1 3c-7.97 0-15-.674-15-10v-1h1c0 8.963 5.537 8 13 8ZM275 143l-2 3c6.52 0 16-.718 16-9v-1l-2-1c0 8.595-4.682 8-12 8Z"/><path fill="#24895D" id="ORBl6a" d="M187 157c-4.084 0-11.273-6.614-18.5-3-5.46 2.73-14.254 9-20.5 9l2-6 1-1 1-2 1-1 1-1c0-3.139 7.206-9.706 10-12.5l4-3.5c0 9.326 7.03 10 15 10l1 1c0 3.727 3 6.314 3 10ZM269 157c6.081 0 12.007-6.746 19.5-3l20.5 10c0-3.891-6-7.431-6-11v-1l-2-2c0-2.339-10.977-13-12-13 0 8.282-9.48 9-16 9v1l-4 10Z"/><path fill="#22895E" id="ORBvl6b" d="m183 146 1 1c3.727 0 5 .943 5-4v-2l-2-1 1 1.5c2.94 5.88-4.943 1.5-6 1.5l1 3Z"/><path fill="#24875E" id="ORBm6b" d="m268 141-1 1 1-1Z"/><path fill="#22895E" id="ORBvl6b" d="M273 146v1c-4.175 0-6 1.387-6-4v-1l1-1h1c0 6.417 2.027 2 6 2l-2 3Z"/><path fill="#238A5C" id="ORBvl6a" d="M187 158c2.062 0 8 8.694 8 11 2.273 0 2-5.226 2-7 0-3.548-4.275-19-8-19 0 4.943-1.273 4-5 4 0 3.727 3 6.314 3 10v1ZM267 161l-6 8-2-4.5c-1.782-3.565 5.963-21.5 8-21.5 0 5.387 1.825 4 6 4l-4 10-1 2-1 2Z"/><path fill="#1F9866" id="AIv6a" d="m301 150 2 2-2-2ZM154 152l-1 1 1-1Z"/><path fill="#209665" id="AId5" d="M115 193h1l9.5-8 17.5-20c-6.177 0-14-5.302-14-12-5.244 0-14.954 13-22 13v1c0 8.787 8 20.118 8 26Z"/><path fill="#1F9866" id="AIv6a" d="m153 153-1 1 1-1Z"/><path fill="#228A5D" id="ORBl5" fill-rule="evenodd" d="M148 180c0 1.93 1.93 0 0 0m23 2c0-12.273-18.136 2-21 2l-3-3.5c-.899-1.797-1.041-4.082-2-6-1.411-2.822 1-7.079 1-9.5l1-1 1-1c6.246 0 15.04-6.27 20.5-9 7.227-3.614 14.416 3 18.5 3v1c0 1.984 3.278 3.945 2 6.5-2.46 4.92-4 7.502-4 13.5l-14 4Z"/><path fill="#228A5D" id="ORBl5" d="M306 184h1l5-11.5-2-8.5h-1l-20.5-10c-7.493-3.746-13.419 3-19.5 3l-1 2c0 1.577 1.729 2-1 2 0 5.176 4 10.233 4 17 4.833 0 8.736 3 14 3l4.5-4c2.588-1.294 10.734 3.867 13 5l3.5 2Z"/><path fill="#1F9866" id="AIv6a" d="m310 164 3 1c0-2.38-8.132-12-10-12 0 3.569 6 7.109 6 11h1Z"/><path fill="#209665" id="AId5" d="M340 193h1l4-6.5c2.54-5.08 4-13.498 4-19.5v-2c-7.852 0-15.673-12-22-12 0 7.095-6.222 12-13 12 0 3.446 16.059 18.559 19.5 22l6.5 6Z"/><path fill="#1F9866" id="AIv6a" d="m152 154-1 2 1-2ZM151 156l-1 1 1-1ZM143 165h3l1-1 1-1 2-6-7 8Z"/><path fill="#23885C" id="ORBvl5" d="m197 177-12 1c0-5.998 1.54-8.58 4-13.5 1.278-2.555-2-4.516-2-6.5 2.062 0 8 8.694 8 11v1c-2.286 0 .482 5 2 5v2ZM268 159l-1 2c2.729 0 1-.423 1-2ZM260 177l11 1c0-6.767-4-11.824-4-17l-6 8v1c1.486 0 1.486 3 0 3l-1 2v2Z"/><path fill="#24895D" id="ORBl6a" d="m148 163-1 1 1-1Z"/><path fill="#1F9865" id="AIv5" d="m147 164-1 1 1-1ZM307 184l7.5 4c6.638 3.319 14.757 11.122 23 7 1.627-.813 2.5.658 2.5-2l-6.5-6c-3.441-3.441-19.5-18.554-19.5-22h-1l-3-1 2 8.5-5 11.5ZM150 184c-8.096 0-15.441 12-24 12-2.482 0-10 .669-10-3l9.5-8 17.5-20h3c0 2.421-2.411 6.678-1 9.5.959 1.918 1.101 4.203 2 6l3 3.5Z"/><path fill="#209765" id="AId2/3" d="M104 198h1l10-5c0-5.882-8-17.213-8-26-1.813 0-12 3.236-12 5 0 9.183 9 18.114 9 26ZM341 193l11 5c0-5.478 10-18.922 10-26-4.197 0-8.004-5-13-5 0 6.002-1.46 14.42-4 19.5l-4 6.5Z"/><path fill="#23885E" id="ORBm5" d="M195 170c-2.286 0 .482 5 2 5l-2-5ZM261 170c1.486 0 1.486 3 0 3v-3Z"/><path fill="#99D2BD" id="OLF" d="M227 177c.839 0 2 1.93 2 0v-6h-1c0 1.564-1 3.876-1 6Z"/><path fill="#209764" id="AId1" d="m104 198-4 1c-1.9 0-2.31-6.118-3-7.5-2.713-5.426-7-12.128-7-18.5l4-1h1c0 9.183 9 18.114 9 26ZM352 198l4 1 3-5.5c2.553-5.106 8-14.771 8-20.5l-5-1c0 7.078-10 20.522-10 26Z"/><path fill="#23885E" id="ORBm5" d="m261 173-1 2 1-2ZM259 177h1v-1l-1 1Z"/><path fill="#238A5E" id="ORBl2/3" d="M150 184c0 2.735 3 1.913 3 5l18-7c0-12.273-18.136 2-21 2Z"/><path fill="#99D2BD" id="OLF" fill-rule="evenodd" d="M175 203c0 2.979-2 5.025-2 8.5 0 3.999 8.633 14.735 11 10 3.159-6.318-2.735-18.5-9-18.5m-14-2c0 2.608-3.889 6.723-2 10.5l4 8 2 4c1.587 3.175 5.715 5.57 8 1 .555-1.11-3.168-22.834-4.5-23.5H161m60 48-7 14c0-4.622-.225-6.862-4.5-9-4.93-2.465-13.777 5.112-20 2-7.524-3.762-15.363-7.182-23-11l-4.5 1c0-3.048 9.95-6.6 7-12.5-3.298-6.596-16.155-23.69-12-32 3.538-7.076 14-10.941 14-19.5l14-4 12-1 1 8c-7.271 0-6.603 6.706-9 11.5-.703 1.406 1.261 7.5-1 7.5 0-7.348-9.697 6 0 6 0 17.855-10.113 11.726-16 23.5-5.464 10.929 15.918 21.791 24.5 17.5l15.5-16c0 5.523-11.31 16 4.5 16l4.5-2Z"/><path fill="#A3DAA3" id="DP" d="M208 193h20l1-1c6.244 0 13.428 1 19 1 2.507 0 10-5.034 10-8 0-2.097 1-5.293 1-8h-30c0 1.93-1.161 0-2 0h-30l1 8c2.648 0 5.356 8 10 8Z"/><path fill="#99D2BD" id="OLF" fill-rule="evenodd" d="m277 203-4 8.5c-1.112 2.225-2.464 13.482 3.5 10.5 6.988-3.494 10.938-19 .5-19m-42 46 7 13c0-4.685 1.833-6.167 5.5-8 2.992-1.496 14.794 4.603 20 2l22-11 4.5 1c0-1.177-5.104-5.708-6-7.5-2.034-4.068 2-9.039 2-12.5l-4.5 1c-3.298-1.649-.422-24.289 3-26 4.47-2.235 12.141 2.218 9.5 7.5-1.873 3.745-6 10.247-6 14.5 2.825 0 4.155-5.81 5-7.5 10.438-20.876-12-18.998-12-33.5v-1c-5.264 0-9.167-3-14-3l-11-1h-1c0 2.707-1 5.903-1 8 8.456 0 10 12.385 10 19 1.384 0 1.123-3.189 3.5-2 4.24 2.12-.371 8-3.5 8 0 17.866 11.407 12.314 15 19.5 1.206 2.413.771 5.542 2 8 3.245 6.49-18.069 16.715-24.5 13.5-4.857-2.429-15.991-20-19.5-20 0 8.674 18.021 10.74-.5 20l-5.5-2Z"/><path fill="#238A5E" id="ORBl2/3" d="M306 184c0 2.437-2 2.375-2 6-3.499 0-13.609-8-19-8v-1l4.5-4c2.588-1.294 10.734 3.867 13 5l3.5 2Z"/><path fill="#1F9865" id="AIv5" d="M148 180c0 1.93 1.93 0 0 0Z"/><path fill="#6ACAB9" id="PIR" d="M157 248h1l1-1 3-1c0-3.048 9.95-6.6 7-12.5-3.298-6.596-16.155-23.69-12-32 3.538-7.076 14-10.941 14-19.5l-18 7-4.5 3c-1.004 1.004-14.613 9-15.5 9l-2 1-1 1h-1c0 3.968-18 8.312-18 10 0 2.983-1.474 5.552 0 8.5 2.195 4.389 10.014 12.5 15 12.5 11.972 0 22.617 14 30 14h1ZM298 247l2 1c8.283 0 17.681-14 31-14 8.03 0 15-13.079 15-21-1.059 0-16.958-7.458-18-8.5l-5-3.5c-4.565 0-13.666-11-19-11-3.499 0-13.609-8-19-8 0 14.502 22.438 12.624 12 33.5-.845 1.69-2.175 7.5-5 7.5l-1 2-1 1c0 3.461-4.034 8.432-2 12.5.896 1.792 6 6.323 6 7.5l4 1Z"/><path fill="#219764" id="AIv2/3" d="M129 203h1l1-1 2-1c.887 0 14.496-7.996 15.5-9l4.5-3c0-3.087-3-2.265-3-5-8.096 0-15.441 12-24 12-2.482 0-10 .669-10-3h-1l-10 5c0 2.029 1.191 1.881 2 3.5 5.729 11.458 14.2 1.5 22 1.5ZM352 198l-3.5 5c-9.702 9.702-15.888-2-25.5-2-4.565 0-13.666-11-19-11 0-3.625 2-3.563 2-6h1l7.5 4c6.638 3.319 14.757 11.122 23 7 1.627-.813 2.5.658 2.5-2h1l11 5Z"/><path fill="#54BF94" id="AON" d="m213 234-1 1-15.5 16c-8.582 4.291-29.964-6.571-24.5-17.5 5.887-11.774 16-5.645 16-23.5v-6c2.261 0 .297-6.094 1-7.5 2.397-4.794 1.729-11.5 9-11.5 2.648 0 5.356 8 10 8 0 8.395 9 19.541 9 26v8l-1 1-1 4-1 1-1 1ZM240 227l1 4c3.509 0 14.643 17.571 19.5 20 6.431 3.215 27.745-7.01 24.5-13.5-1.229-2.458-.794-5.587-2-8-3.593-7.186-15-1.634-15-19.5v-6c0-6.615-1.544-19-10-19 0 2.966-7.493 8-10 8 0 8.042-8 18.09-8 25v9Z"/><path fill="#61D09F" id="TTd" d="M240 218c-2.579 0-5.997 3.752-9.5 2-1.289-.644-1.595-5-2-5l-3 5-8.5-1c0-6.459-9-17.605-9-26h20l1-1c6.244 0 13.428 1 19 1 0 8.042-8 18.09-8 25Z"/><path fill="#99D2BD" id="OLF" d="m229 192-1 1 1-1Z"/><path fill="#209864" id="AIv1" d="M129 203c0 3.968-18 8.312-18 10-3.668 0-11-10.925-11-14l4-1h1c0 2.029 1.191 1.881 2 3.5 5.729 11.458 14.2 1.5 22 1.5ZM323 201l5 3.5c1.042 1.042 16.941 8.5 18 8.5 0-1.383 10-9.179 10-14l-4-1-3.5 5c-9.702 9.702-15.888-2-25.5-2ZM133 201l-2 1 2-1Z"/><path fill="#A0EE9C" id="EPd" d="M161 201c0 2.608-3.889 6.723-2 10.5l4 8 2 4c1.587 3.175 5.715 5.57 8 1 .555-1.11-3.168-22.834-4.5-23.5H161ZM291 225l-1 1-4.5 1c-3.298-1.649-.422-24.289 3-26 4.47-2.235 12.141 2.218 9.5 7.5-1.873 3.745-6 10.247-6 14.5l-1 2Z"/><path fill="#209864" id="AIv1" d="m131 202-1 1 1-1Z"/><path fill="#80CDF8" id="ACB" d="M188 204v6c-9.697 0 0-13.348 0-6ZM268 204c1.384 0 1.123-3.189 3.5-2 4.24 2.12-.371 8-3.5 8v-6Z"/><path fill="#CBCBC7" id="aco" d="M175 203c0 2.979-2 5.025-2 8.5 0 3.999 8.633 14.735 11 10 3.159-6.318-2.735-18.5-9-18.5ZM277 203l-4 8.5c-1.112 2.225-2.464 13.482 3.5 10.5 6.988-3.494 10.938-19 .5-19Z"/><path fill="#99D2BD" id="OLF" d="M217 225c1.07 0 2.462-4.019 4.5-3 .922.461 6.385 3 7 3l1-2h5l2-1 3.5 5v-9c-2.579 0-5.997 3.752-9.5 2-1.289-.644-1.595-5-2-5l-3 5-8.5-1v6Z"/><path fill="#62CF9E" id="TTv" d="m222 248-1 1-4.5 2c-15.81 0-4.5-10.477-4.5-16l1-1 1-1 1-1 1-4 1-1v-2c1.07 0 2.462-4.019 4.5-3 .922.461 6.385 3 7 3l1-2h5l2-1 3.5 5 1 4c0 8.674 18.021 10.74-.5 20l-5.5-2-6.5-13-5.5 11-1 1Z"/><path fill="#99D2BD" id="OLF" d="m292 223-1 2 1-2ZM291 225l-1 1 1-1ZM217 227l-1 1 1-1ZM215 232l-1 1 1-1Z"/><path fill="#CAC8C7" id="lot" d="m157 252-3 1c-4.343 0-28-15.537-28-19 11.972 0 22.617 14 30 14l1 1v3Z"/><path fill="#99D2BD" id="OLF" d="m214 233-1 1 1-1Z"/><path fill="#CAC8C7" id="lot" d="m300 252 2 1h4.5c3.198-1.599 24.5-17.374 24.5-19-13.319 0-22.717 14-31 14v4Z"/><path fill="#99D2BD" id="OLF" d="m213 234-1 1 1-1Z"/><path fill="#7FCCF7" id="OT" d="m214 263-1 1c0 5.285-10.741 4.62-13.5 6-4.701 2.351-29.565-7.283-35-10-2.671-1.335-5.02-5-7.5-5v-7h1l1-1 3-1 4.5-1c7.637 3.818 15.476 7.238 23 11 6.223 3.112 15.07-4.465 20-2 4.275 2.138 4.5 4.378 4.5 9ZM243 264l1 1 9.5 5c2.272 1.136 19.161-1.58 22-3 4.834-2.417 10.226-3.613 15-6l8.5-6 1-3v-3l-2-2-4-1-4.5-1-22 11c-5.206 2.603-17.008-3.496-20-2-3.667 1.833-5.5 3.315-5.5 8l1 1v1Z"/><path fill="#99D2BD" id="OLF" d="m159 247-1 1 1-1ZM223 247l-1 1 1-1ZM300 248v1l-2-2 2 1ZM157 248v1l-1-1h1ZM222 248l-1 1 1-1ZM154 253l3 2v-3l-3 1ZM302 253l-3 2 1-3 2 1Z"/><path fill="#97D6F9" id="STR" d="m242 262 1 1-1-1ZM214 263l-1 1 1-1ZM243 264l1 1-1-1Z"/></svg>