<svg xmlns="http://www.w3.org/2000/svg" viewBox="0 0 456 320"><path fill="#99D2BD" id="OLF" d="m221 209-8 1c0-2.721.836-6.171 2-8.5 1.546-3.092-3.387-28.944-6.5-30.5-5.277-2.638-7.95 4.401-9.5 7.5-4.467 8.933-10 19.804-10 30.5-5.677 0-8.189-10.878-10-14.5-8.024-16.048-12-32.087-12-51.5 0-4.985 7.736-10.118 11.5-12 7.24-3.62 21.863-15.069 32-10 4.209 2.104 7.734 5.867 12 8 2.645 1.322.403 7.307 1.5 9.5 5.338 10.676 2 28.202 2 40 0 5.336.195 30.5-5 30.5ZM267 210c0-12.168-5.015-20.53-10-30.5-1.551-3.102-3.152-11.674-9.5-8.5-3.229 1.615-7.705 29.09-5.5 33.5l2 6.5-3.5-2c-1.956-.978-4.077 1-5.5 1l-4-9.5v-10c-2.927-5.855-1.736-44.528 1-50l1-10 5-4c13.54-13.54 29.17-.665 41.5 5.5 2.712 1.356 11.5 8.67 11.5 12-5.25 0 .356 11.788-2 16.5-1.769 3.539-.252 8.504-2 12-4.404 8.807-7.565 18.131-12 27-1.398 2.795-3.851 10.5-8 10.5Z"/><path fill="#C7CBCA" id="onl" d="m221 209-8 1c0 6.16-24 15.24-24-1-5.677 0-8.189-10.878-10-14.5-8.024-16.048-12-32.087-12-51.5l-1 1-1 1v1l-1 1v1c0 1.048.473 3-1 3v2c0 1.145.579 4-1 4v15c1.751 0 1 7.426 1 9v3c2.144 0 .381 4.262 1 5.5 2.012 4.024 3 14.078 3 18.5 0 9.137 6.856 35.322 21.5 28 3.832-1.916 7.087-5.043 11-7 4.583-2.291 21.5-13.925 21.5-20ZM267 210c0 8.421-9.761 10.369-16.5 7l-6.5-6-3.5-2c-1.956-.978-4.077 1-5.5 1 0 3.296 16.581 16.04 20.5 18l12 8c7.015 3.508 16.896-5.292 19.5-10.5.616-1.233 2-14.845 2-16.5l1-1v-1c0-3.868.292-11.083 2-14.5.619-1.238-1.144-5.5 1-5.5v-2c0-1.49-.735-8 1-8v-23c-1.473 0-1-1.952-1-3v-2l-1-2v-1l-1-1v-1c-5.25 0 .356 11.788-2 16.5-1.769 3.539-.252 8.504-2 12-4.404 8.807-7.565 18.131-12 27-1.398 2.795-3.851 10.5-8 10.5Z"/><path fill="#99D2BD" id="OLF" d="m166 144-1 1 1-1ZM291 145l1 1-1-1ZM165 146l-1 1 1-1ZM292 147l1 2-1-2ZM164 148c-1.473 0-1 1.952-1 3 1.473 0 1-1.952 1-3ZM293 151c1.473 0 1 1.952 1 3-1.473 0-1-1.952-1-3ZM163 153c-1.579 0-1 2.855-1 4 1.579 0 1-2.855 1-4ZM294 155c1.614 0 1 3.31 1 4.5 0 2.2.803 16.5-1 16.5v-21Z"/><path fill="#9AD1BD" id="MOB" d="M189 209c0 16.24 24 7.16 24 1 0-2.721.836-6.171 2-8.5 1.546-3.092-3.387-28.944-6.5-30.5-5.277-2.638-7.95 4.401-9.5 7.5-4.467 8.933-10 19.804-10 30.5ZM267 210c0 8.421-9.761 10.369-16.5 7l-6.5-6-2-6.5c-2.205-4.41 2.271-31.885 5.5-33.5 6.348-3.174 7.949 5.398 9.5 8.5 4.985 9.97 10 18.332 10 30.5Z"/><path fill="#99D2BD" id="OLF" d="M162 172c1.751 0 1 7.426 1 9-1.751 0-1-7.426-1-9ZM294 177c-1.735 0-1 6.51-1 8 1.735 0 1-6.51 1-8ZM163 184c2.144 0 .381 4.262 1 5.5 2.012 4.024 3 14.078 3 18.5-3.778 0-4-19.791-4-24ZM293 187c-2.144 0-.381 4.262-1 5.5-1.708 3.417-2 10.632-2 14.5 3.175 0 3-16.413 3-20ZM290 208l-1 1 1-1Z"/></svg>