<svg xmlns="http://www.w3.org/2000/svg" viewBox="0 0 456 320"><path fill="#1E9C59" id="MOs1" d="m111 123 3 6.5c0 1.274-1.649 3.703-1 5l2 3.5c0-28.748 16.711-45.105 40.5-57 5.553-2.776 12.377-3.189 18-6 7.161-3.58 23.099-3.45 30 0 2.255 1.128 10.5 2.925 10.5 7h1l4-3c0-7.707-25.544-17.978-33.5-14-4.846 2.423-11.195 1.598-16 4-17.993 8.997-40.079 15.659-50.5 36.5-2.885 5.771-8 10.556-8 17.5ZM345 121c0 4.179-.633 5.766-2 8.5-.619 1.238 1.144 5.5-1 5.5 0-22.392-17.482-42.49-36.5-52l-23-8c-10.277-5.139-24.656-2.672-34 2l-6.5 5h-1c0-2.618-3-1.65-3-4 0-6.618 25.326-17.087 33.5-13 4.561 2.28 10.485 1.742 15 4 17.738 8.87 38.969 14.438 48.5 33.5 3.032 6.063 10 11.305 10 18.5Z"/><path fill="#1E9D58" id="MOs2/3" d="M120 154h1c0-2.978 9-3.245 9-7 0-4.172-3.161-12.178-1-16.5 4.369-8.739 10.31-25.405 18.5-29.5 8.59-4.295 16.48-9.74 25-14 5.198-2.599 11.821-2.41 17-5 6.682-3.341 17.502 5 19.5 5h1l4-5c0-4.075-8.245-5.872-10.5-7-6.901-3.45-22.839-3.58-30 0-5.623 2.811-12.447 3.224-18 6-23.789 11.895-40.5 28.252-40.5 57v4l1 1v2l1 1v2l1 2 2 4ZM336 153h1v-1l1-1v-1l1-1v-2l1-1v-2l1-1v-3l1-1v-4c0-22.392-17.482-42.49-36.5-52l-23-8c-10.277-5.139-24.656-2.672-34 2l-6.5 5 5 5h1c0-3.395 6.643-3.072 8.5-4 8.761-4.38 24.655 2.328 32 6 22.235 11.117 27.859 19.217 38.5 40.5 2.233 4.466-1 13.342-1 17.5 2.677 0 6.241 6 10 6Z"/><path fill="#3EA665" id="ACAd1" d="M236 92h1c0-3.948 4-6.604 4-10 0-2.618-3-1.65-3-4-2.087 0-7 10.848-7 13l5 1ZM226 91l-6 1-5-10 4-3c1.329 0 7 10.21 7 12Z"/><path fill="#1F9D58" id="MOs5" d="M130 147h1l10.5-8c6.141-3.071 8.895-6 17.5-6l5-8c-3.506 0-.661-6.177 0-7.5 2.098-4.196 9.833-8.5 14-8.5h1l2-1h1c0-1.473 1.952-1 3-1h5c0-4.062 9.187-12 13-12 0-2.867 6-4.746 6-8-1.998 0-12.818-8.341-19.5-5-5.179 2.59-11.802 2.401-17 5-8.52 4.26-16.41 9.705-25 14-8.19 4.095-14.131 20.761-18.5 29.5-2.161 4.322 1 12.328 1 16.5Z"/><path fill="#40A565" id="ACAd2/3" d="M213 93h1c2.124 0 4.436-1 6-1l-5-10h-1l-4 5 3 6ZM237 92c0 1.684 4.679 1 6 1 0-2.773 4-3.67 4-6l-5-5h-1c0 3.396-4 6.052-4 10Z"/><path fill="#1F9D58" id="MOs5" d="M297 133c8.676 0 11.496 2.498 18.5 6 3.401 1.7 6.568 8 10.5 8 0-4.158 3.233-13.034 1-17.5-10.641-21.283-16.265-29.383-38.5-40.5-7.345-3.672-23.239-10.38-32-6-1.857.928-8.5.605-8.5 4 0 3.517 6 4.95 6 8 2.487 0 13 9.192 13 12h6l1 1h2l1 1h2c5.788 0 12.645 6.79 15 11.5l-1 4.5 4 8Z"/><path fill="#3EA566" id="ACAd5" d="M213 93c0 2.338-10 2.899-10 2 0-2.867 6-4.746 6-8h1l3 6ZM243 94c1.588 0 11 2.648 11 1 0-3.05-6-4.483-6-8h-1c0 2.33-4 3.227-4 6v1Z"/><path fill="#2FA750" id="PL1" d="M223 125h10c0-10.793 3-22.695 3-33l-5-1c-.719 0-5 7.367-5 0l-6 1 2 5.5 1 27.5Z"/><path fill="#2FA74F" id="PL2/3" d="M219 125h4l-1-27.5-2-5.5c-1.564 0-3.876 1-6 1 0 4.824 2.861 13.221 5 17.5V125ZM233 125h4c0-7.878.653-18.806 4-25.5.659-1.319-.334-5.5 2-5.5v-1c-1.321 0-6 .684-6-1h-1c0 10.305-3 22.207-3 33Z"/><path fill="#2EA84F" id="PL5" d="M198 115c3.185 0 15.132 10 21 10v-14.5c-2.139-4.279-5-12.676-5-17.5h-1c0 2.338-10 2.899-10 2-3.813 0-13 7.938-13 12 4.693 0 8 3.387 8 8ZM259 115c-5.23 0-15.204 10-22 10 0-7.878.653-18.806 4-25.5.659-1.319-.334-5.5 2-5.5 1.588 0 11 2.648 11 1 2.487 0 13 9.192 13 12-4.919 0-8 1.715-8 7v1Z"/><path fill="#1D9C5A" id="MOs6a" d="M185 107c-1.048 0-3-.473-3 1 1.048 0 3 .473 3-1Z"/><path fill="#268E44" id="FRP6a" d="m195 117 2 1-2-5-6-6h-4c0 1.473-1.952 1-3 1h-1l-2 1h-1c0 2.73-7 6.252-7 12 3.864 0 9.001-6 14-6 3.702 0 7.27 2 10 2Z"/><path fill="#2FA850" id="PL6a" d="m195 113 3 2c0-4.613-3.307-8-8-8h-1l6 6ZM259 114h2c0-2.274 3.656-6 6-6v-1c-4.919 0-8 1.715-8 7Z"/><path fill="#1D9C5A" id="MOs6a" d="m268 107-1 1v-1h1Z"/><path fill="#268E44" id="FRP6a" d="M272 115c5.055 0 9.164 6 14 6 0-4.816-7-8.356-7-12h-2l-1-1h-2l-1-1h-5l-1 1c-2.344 0-6 3.726-6 6 0 .716-2.373 3 0 3 2.95 0 7.018-2 11-2Z"/><path fill="#1D9C5A" id="MOs6a" d="m273 107 1 1-1-1Z"/><path fill="#258F45" id="FRP5" d="m181 108-2 1 2-1ZM276 108l1 1-1-1ZM171 122l-7 3c-3.506 0-.661-6.177 0-7.5 2.098-4.196 9.833-8.5 14-8.5 0 2.73-7 6.252-7 12v1ZM286 122l7 3 1-4.5c-2.355-4.71-9.212-11.5-15-11.5 0 3.644 7 7.184 7 12v1Z"/><path fill="#22885E" id="ORBm6a" d="M198 115c0 1.048.473 3-1 3l-2-5 3 2ZM259 121h1l1-4c-2.373 0 0-2.284 0-3h-2v7Z"/><path fill="#24895D" id="ORBl6a" d="M171 122c0 4.786 6.992 3 11 3l3-10c-4.999 0-10.136 6-14 6v1Z"/><path fill="#238A5C" id="ORBvl6a" d="M197 121c-2.609 0-8.939 4-15 4l3-10c3.702 0 7.27 2 10 2l2 3v1Z"/><path fill="#23885E" id="ORBm5" d="M213 153h1c6.058 0 5-22.976 5-28-5.868 0-17.815-10-21-10 0 1.048.473 3-1 3v3c0 4.4 16 25.525 16 32ZM237 125c0 5.737-.555 28 6 28l16-32v-6c-5.23 0-15.204 10-22 10Z"/><path fill="#238A5C" id="ORBvl6a" d="M260 121c.474 0 8.736 4 14 4l-2-10c-3.982 0-8.05 2-11 2l-1 4Z"/><path fill="#24895D" id="ORBl6a" d="M274 125h1c3.296 0 11 1.498 11-3v-1c-4.836 0-8.945-6-14-6l2 10Z"/><path fill="#22885E" id="ORBm6a" d="M197 118v2l-2-3 2 1Z"/><path fill="#23885C" id="ORBvl5" d="M181 143c12.428 0 22.667 10 32 10 0-6.475-16-27.6-16-32-2.609 0-8.939 4-15 4 0 6.03-1 13.287-1 18ZM275 143c-12.231 0-22.791 10-32 10l16-32h1c.474 0 8.736 4 14 4h1v18Z"/><path fill="#1E9D5A" id="MOp1" d="m337 154 4 3c3.531 0 8.17-22.161 6-26.5-.882-1.765.935-9.5-2-9.5 0 4.179-.633 5.766-2 8.5-.619 1.238 1.144 5.5-1 5.5v4l-1 1v4l-1 1v1l-1 1v2l-1 1v1l-1 1v2Z"/><path fill="#228A5D" id="ORBl5" d="M149 165v5c11.357 0 23.257-26 32-26v-1c0-4.713 1-11.97 1-18-4.008 0-11 1.786-11-3l-7 3-5 8c0 6.91-9 20.995-9 29 0 1.048.473 3-1 3ZM307 164l1 7c-11.455 0-23.69-27-33-27v-19c3.296 0 11 1.498 11-3l7 3 4 8c0 3.908 9 21.906 9 29l1 1v1Z"/><path fill="#1E9D5A" id="MOp1" d="m120 154-5 3c-4.818 0-6-21.588-6-25 0-1.923-.156-9 2-9l3 6.5c0 1.274-1.649 3.703-1 5l2 3.5v5l1 1v1l1 1v2c0 1.013 1 4.408 1 2l2 4Z"/><path fill="#24885D" id="ORBm2/3" d="m214 153 5 13c3.395 0 3.072-6.643 4-8.5 4.26-8.521 0-23.417 0-32.5h-4c0 5.024 1.058 28-5 28Z"/><path fill="#23895D" id="ORBm1" d="m231 176 4 2c0-4.704 2-7.89 2-12v-1c-6.015 0-4-33.456-4-40h-10c0 9.083 4.26 23.979 0 32.5-.928 1.857-.605 8.5-4 8.5 0 3.285 3 7.387 3 11l3-1 3.5-7 .5 3.5c.809 1.619 2 1.471 2 3.5Z"/><path fill="#24885D" id="ORBm2/3" d="m243 153-6 12c-6.015 0-4-33.456-4-40h4c0 5.737-.555 28 6 28Z"/><path fill="#209665" id="AId5" d="M149 165c-1.428 0-4 4.822-4 6-4.643 0-14-19.623-14-24l10.5-8c6.141-3.071 8.895-6 17.5-6 0 6.91-9 20.995-9 29-1.473 0-1 1.952-1 3ZM311 171h1l5-4.5c2.576-5.153 9-13.659 9-19.5-3.932 0-7.099-6.3-10.5-8-7.004-3.502-9.824-6-18.5-6 0 3.908 9 21.906 9 29l1 1v1c1.429 0 4 5.478 4 7Z"/><path fill="#1E9C59" id="MOs1" d="m342 139-1 1 1-1Z"/><path fill="#1F9C58" id="MOp2/3" d="M115 143h1l-1-1v1Z"/><path fill="#1E9C59" id="MOs1" d="M116 143v1l-1-1h1Z"/><path fill="#248A5D" id="ORBvl2/3" d="M184 156c12.736 0 23.161 10 35 10l-5-13h-1c-9.333 0-19.572-10-32-10v1c0 4.395 3 7.909 3 12ZM237 165v1c12.357 0 22.715-10 36-10 0-4.499 2-7.354 2-12v-1c-12.231 0-22.791 10-32 10l-6 12Z"/><path fill="#1F9C58" id="MOp2/3" d="M340 144h1v-1l-1 1Z"/><path fill="#238A5E" id="ORBl2/3" d="M148 171v10l6.5-6c10.077-5.039 16.941-19 29.5-19 0-4.091-3-7.605-3-12-8.743 0-20.643 26-32 26l-1 1ZM308 171v10l-9.5-9c-9.611-4.805-13.707-15-25.5-15v-1c0-4.499 2-7.354 2-12 9.31 0 21.545 27 33 27Z"/><path fill="#1E9C59" id="MOs1" d="m341 144-1 1v-1h1ZM116 145l1 1-1-1ZM340 146l-1 1 1-1Z"/><path fill="#209765" id="AId2/3" d="M145 171c0 1.39-5.408 9-7 9-1.473 0-17-23.301-17-26 0-2.978 9-3.245 9-7h1c0 4.377 9.357 24 14 24ZM312 171c0 2.727 4.517 9 7 9 0-2.914 17-21.304 17-26v-1c-3.759 0-7.323-6-10-6 0 5.841-6.424 14.347-9 19.5l-5 4.5Z"/><path fill="#1E9C59" id="MOs1" d="m117 148 1 2c0 2.408-1-.987-1-2ZM339 149l-1 1 1-1ZM338 151l-1 1 1-1ZM336 154h1v-1h-1v1Z"/><path fill="#209764" id="AId1" d="m138 181-5 2-2.5-4c-1.543-.771-15.5-19.868-15.5-22l5-3h1c0 2.699 15.527 26 17 26v1ZM319 181l4 2 5-5.5c2.839-5.678 13-14.08 13-20.5l-4-3h-1c0 4.696-17 23.086-17 26v1Z"/><path fill="#238A5D" id="ORBl1" d="m156 181-7 6-1-6 6.5-6c10.077-5.039 16.941-19 29.5-19l2 9c-11.558 0-18.409 3.909-26.5 12l-3.5 4Z"/><path fill="#248A5B" id="ORBvl1" d="M219 166c0 3.285 3 7.387 3 11 0 3.495-9.462-3.481-10.5-4-8.074-4.037-15.679-8-25.5-8l-2-9c12.736 0 23.161 10 35 10ZM237 166c0 4.11-2 7.296-2 12 8.225 0 20.636-13 35-13 0-1.131 2.049-8 3-8v-1c-13.285 0-23.643 10-36 10Z"/><path fill="#238A5D" id="ORBl1" d="m308 181-1 6-10.5-11c-10.101-5.051-12.574-11-26.5-11 0-1.131 2.049-8 3-8 11.793 0 15.889 10.195 25.5 15l9.5 9Z"/><path fill="#1F9865" id="AIv5" d="M150 162c-1.473 0-1 1.952-1 3 1.473 0 1-1.952 1-3ZM306 162l1 1-1-1ZM308 171h3c0-1.522-2.571-7-4-7l1 7ZM145 171h3l1-1v-5c-1.428 0-4 4.822-4 6Z"/><path fill="#99D2BD" id="OLF" d="m212 229 11 6c2.754 0 2.007-11.513 3-13.5 5.193-10.385-1-34.375-1-45.5l-3 1c0 3.495-9.462-3.481-10.5-4-8.074-4.037-15.679-8-25.5-8-11.558 0-18.409 3.909-26.5 12l-3.5 4c2.939 0 11.791-9.146 15.5-11 16.195-8.097 40.5-.528 40.5 21 1.778 0 5.044-6.728 10.5-4 2.244 1.122 1.5 6.719 1.5 9 0 3.622 2.705 27.397-.5 29-5.803 2.902-7.628-4-12.5-4 0 2.882 1 5.469 1 8Z"/><path fill="#99D2BD" id="OLF" d="m245 229-12 6c0-2.614-2.765-17.029-4-19.5-2.617-5.234 2-32.163 2-39.5l4 2c8.225 0 20.636-13 35-13 13.926 0 16.399 5.949 26.5 11l10.5 11 4 2c0 8.077 7.5 10-.5 18l-2.5 3-3-4c2.658 0 1.187-.873 2-2.5 4.002-8.004-.502-12.004-4-19l-6.5-5.5c-5.837-2.918-10.293-8.146-16-11-14.297-7.148-36.5 5.323-36.5 22-2.017 0-5.827-5.337-8.5-4-3.914 1.957-5.765 25.97-3.5 30.5 1.248 2.497-1.829 6.835 1.5 8.5 4.792 2.396 6.87-3 11.5-3 0 .969-2.614 7 0 7Z"/><path fill="#54BF94" id="AON" fill-rule="evenodd" d="M179 192c0 4.862 5.897 10.294 8 14.5 1.165 2.329.853 5.706 2 8 .679 1.358 2.731 4.385 4.5 3.5 4.746-2.373-.198-14.897-1.5-17.5-.74-1.479 2.942-6.279.5-7.5l-13.5-1m1 51c3.084 0 8.299 8 13 8 0-8.721 9.955-22 19-22 0-2.531-1-5.118-1-8 0-2.235-5.621-11.257-3-16.5 1.369-2.738 4-10.681 4-13.5 0-21.528-24.305-29.097-40.5-21-3.709 1.854-12.561 11-15.5 11 0 6.68-12.31 9.88-7 20.5.685 1.37-.871 4.5 2 4.5 5.696 0 17.012 21.512 21 25.5 2.168 2.168 8 7.503 8 10.5v1ZM267 192l-4 2.5 1 8c-2.118 4.235-4.442 9.116-2 14 3.334 6.668 10.029-15.059 11-17l5-6c0-2.484-9.357-1.5-11-1.5m10 51c-4.669 0-8.682 8-14 8 0-8.547-9.268-22-18-22-2.614 0 0-6.031 0-7l3-4.5v-15l-4-12.5c0-16.677 22.203-29.148 36.5-22 5.707 2.854 10.163 8.082 16 11l6.5 5.5c3.498 6.996 8.002 10.996 4 19-.813 1.627.658 2.5-2 2.5-3.184 0-17.207 19.914-19 23.5-1.342 2.683-6.495 8.497-8.5 9.5-.732.366-1.931 3-.5 3v1Z"/><path fill="#219764" id="AIv2/3" d="M138 181c2.099 0 4.383 3.558 7.5 2l2.5-2v-10h-3c0 1.39-5.408 9-7 9v1ZM308 181c2.099 0 4.383 3.558 7.5 2 1.619-.809 1.471-2 3.5-2v-1c-2.483 0-7-6.273-7-9h-4v10Z"/><path fill="#209864" id="AIv1" d="m149 187-4 2c-4.07 0-12-.607-12-6l5-2c2.099 0 4.383 3.558 7.5 2l2.5-2 1 6Z"/><path fill="#99D2BD" id="OLF" d="M151 206c0 1.087-2 2.433-2 5l-2.5-3c-9.324-9.324-1.5-10.225-1.5-19l4-2 7-6c0 6.68-12.31 9.88-7 20.5.685 1.37-.871 4.5 2 4.5Z"/><path fill="#209864" id="AIv1" d="m307 187 4 2c4.226 0 12-.164 12-6l-4-2c-2.029 0-1.881 1.191-3.5 2-3.117 1.558-5.401-2-7.5-2l-1 6Z"/><path fill="#9AD1BD" id="MOB" d="M212 191c1.778 0 5.044-6.728 10.5-4 2.244 1.122 1.5 6.719 1.5 9 0 3.622 2.705 27.397-.5 29-5.803 2.902-7.628-4-12.5-4 0-2.235-5.621-11.257-3-16.5 1.369-2.738 4-10.681 4-13.5ZM244 190c-2.017 0-5.827-5.337-8.5-4-3.914 1.957-5.765 25.97-3.5 30.5 1.248 2.497-1.829 6.835 1.5 8.5 4.792 2.396 6.87-3 11.5-3l3-4.5v-15l-4-12.5Z"/><path fill="#CBCBC7" id="aco" d="M179 192c0 4.862 5.897 10.294 8 14.5 1.165 2.329.853 5.706 2 8 .679 1.358 2.731 4.385 4.5 3.5 4.746-2.373-.198-14.897-1.5-17.5-.74-1.479 2.942-6.279.5-7.5l-13.5-1ZM267 192l-4 2.5 1 8c-2.118 4.235-4.442 9.116-2 14 3.334 6.668 10.029-15.059 11-17l5-6c0-2.484-9.357-1.5-11-1.5Z"/><path fill="#CAC8C7" id="lot" d="M178 242h2c0-2.997-5.832-8.332-8-10.5-3.988-3.988-15.304-25.5-21-25.5 0 1.087-2 2.433-2 5 0 3.773 5.336 5.172 7 8.5 2.426 4.852 15.912 22.5 22 22.5ZM277 242h1c7.148 0 20.102-17.705 23-23.5 1.593-3.186 7-4.664 7-8.5l-3-4c-3.184 0-17.207 19.914-19 23.5-1.342 2.683-6.495 8.497-8.5 9.5-.732.366-1.931 3-.5 3Z"/><path fill="#62CF9E" id="TTv" d="M223 235c0 4.76-10.802 25.349-17.5 22l-12.5-6c0-8.721 9.955-22 19-22l11 6ZM233 235c0 4.429 11.393 25.053 17.5 22l12.5-6c0-8.547-9.268-22-18-22l-12 6Z"/><path fill="#99D2BD" id="OLF" d="M180 242v1l-2-1h2ZM278 242l-1 1v-1h1Z"/></svg>