<svg xmlns="http://www.w3.org/2000/svg" viewBox="0 0 456 320"><path fill="#187F60" id="SSp-ll1" d="m132 35 2 4c4.633 0 10.519-3.01 14.5-5 6.868-3.434 17.303-4 25.5-4l1-1 1-6c-11.245 0-24.978 3.239-34.5 8-1.568.784-9.5 1.924-9.5 4Z"/><path fill="#1E9D5A" id="MOp1" d="M198 27h1v-4h-23l-1 6c8.016 0 15.862-2 23-2Z"/><path fill="#1E9C59" id="MOs1" d="M222 41h1c0-1.748 2.283-3 4-3l-4-3.5c-4.622-9.244-13.823-11.5-24-11.5v4c7.065 0 23 4.512 23 14ZM230 38l4 3c0-8.268 16.456-14 24-14l-1-4c-6.071 0-13.86.36-18 4.5l-4.5 5.5c-1.319.66-4.5 2.871-4.5 5Z"/><path fill="#1E9D5A" id="MOp1" d="M258 27c7.227 0 14.98 2 23 2l-1-6h-23l1 4Z"/><path fill="#187F60" id="SSp-ll1" d="M322 40h1l2-5c0-2.178-8.86-3.18-10.5-4-9.783-4.892-22.885-8-34.5-8l1 6c9.734 0 23.169 2.834 31.5 7 1.58.79 9.5 2.016 9.5 4Z"/><path fill="#1F9C58" id="MOp2/3" d="m172 43-1 5c5.739 0 15.187-10 25-10l1-1 1-10c-7.138 0-14.984 2-23 2l-1 1c0 1.605-1.542 13-2 13Z"/><path fill="#1E9D58" id="MOs2/3" d="M216 45h1l5-4c0-9.488-15.935-14-23-14h-1l-1 10c4.99 0 19 .692 19 8ZM234 41c2.363 0 4.713 4 6 4 0-7.358 14.867-8 20-8l-2-10c-7.544 0-24 5.732-24 14Z"/><path fill="#1F9C58" id="MOp2/3" d="m284 43 1 5c-3.999 0-14.989-10-25-10v-1l-2-10c7.227 0 14.98 2 23 2 0 4.218 3 9.165 3 14Z"/><path fill="#187F64" id="SSp-ll2/3" d="M284 43c11.178 0 20.437 8 31 8 1.048 0 7-9.372 7-11 0-1.984-7.92-3.21-9.5-4-8.331-4.166-21.766-7-31.5-7 0 4.218 3 9.165 3 14ZM172 43c-5.766 0-20.577 3.538-25.5 6l-5.5 3c0-4.242-7-7.551-7-12v-1c4.633 0 10.519-3.01 14.5-5 6.868-3.434 17.303-4 25.5-4 0 1.605-1.542 13-2 13Z"/><path fill="#197E64" id="SSp-ul1" d="M111 44c0 1.35 1.908 5 2 5 7.738 0 13.283-9 21-9v-1l-2-4c-7.62 0-14.03 9-21 9ZM345 44c0 1.424-.362 5-2 5-7.123 0-12.937-9-20-9l2-5c4.389 0 11.638 4.069 15.5 6l4.5 3Z"/><path fill="#1F9D58" id="MOs5" d="M205 55h1c0-1.746 8.124-10 10-10 0-7.308-14.01-8-19-8l-1 1c0 5.234-4 9.886-4 15 2.857 0 13-2.905 13 2ZM264 53c-2.219 0-13-2.934-13 2-2.698 0-6.862-10-11-10 0-7.358 14.867-8 20-8v1c0 5.16 4 9.391 4 15Z"/><path fill="#1E9C5A" id="MOp5" d="m191 54-22 11c0-5.913 2-10.86 2-16v-1c5.739 0 15.187-10 25-10 0 5.234-4 9.886-4 15l-1 1Z"/><path fill="#3EA665" id="ACAd1" d="M223 63h10c0-7.464 1-15.1 1-22l-4-3c-.488 0-3 5.5-3 0-1.717 0-4 1.252-4 3v22Z"/><path fill="#1E9C5A" id="MOp5" d="m265 54 23 11-2-16-1-1c-3.999 0-14.989-10-25-10 0 5.16 4 9.391 4 15l1 1Z"/><path fill="#197F61" id="SSp-ul2/3" d="M141 52c-7.124 0-17.619 11-24 11l-4-13v-1c7.738 0 13.283-9 21-9 0 4.449 7 7.758 7 12ZM339 63h1l3-13v-1c-7.123 0-12.937-9-20-9h-1c0 1.628-5.952 11-7 11v1c6.261 0 19.455 11 24 11Z"/><path fill="#40A565" id="ACAd2/3" d="m223 63-5 2-1-20 5-4h1v22ZM233 63l6 2c0-6.573 1-14.1 1-20-1.287 0-3.637-4-6-4 0 6.9-1 14.536-1 22Z"/><path fill="#1C7F64" id="SSp-ll4" d="M141 52c0 1.287 4 3.637 4 6 9.127 0 17.197-9 26-9v-1l1-5c-5.766 0-20.577 3.538-25.5 6l-5.5 3ZM315 52l-4 6c-7.956 0-17.979-9-25-9l-1-1-1-5c11.178 0 20.437 8 31 8v1Z"/><path fill="#1B8062" id="SSp-un1" d="m99 51 2 5 12-6v-1c-.092 0-2-3.65-2-5l-12 7ZM357 51l-1 6c-4.182 0-8.277-7-13-7v-1c1.638 0 2-3.576 2-5 1.791 0 12 5.4 12 7Z"/><path fill="#3EA566" id="ACAd5" d="M218 65c-4.487 0-8.45 6-11 6 0-5.605-1-10.86-1-16 0-1.746 8.124-10 10-10h1l1 20ZM239 65l10 5c0-1.916.713-14 2-14v-1c-2.698 0-6.862-10-11-10 0 5.9-1 13.427-1 20Z"/><path fill="#197C63" id="SSp-ll5" d="M151 71h1l16-6h1c0-5.913 2-10.86 2-16-8.803 0-16.873 9-26 9v1c2.974 0 6 9.424 6 12ZM304 71h1c0-1.787 4.225-12 6-12v-1c-7.956 0-17.979-9-25-9l2 16c2.286 0 10.259 2.88 12.5 4l3.5 2Z"/><path fill="#1C7F63" id="SSp-un2/3" d="M97 69c0 1.238.423 3 2 3l18-9-4-13-12 6v1c0 6.702.01 12-4 12ZM359 70l-1 2-18-9 3-13c4.723 0 8.818 7 13 7l-1 7.5c.681 1.362 4 4.844 4 5.5Z"/><path fill="#188060" id="SSp-bfd1" d="M88 65h1c0-2.228 10.08-8 12-8v-1l-2-5c-1.57 0-16 10.242-16 11l5 3ZM367 65h1l6-3c-3.619 0-12.159-11-17-11l-1 6c2.548 0 11 5.713 11 8Z"/><path fill="#1A7F63" id="SSp-ul4" d="m117 63 2 8c7.318 0 17.523-12 26-12v-1c0-2.363-4-4.713-4-6-7.124 0-17.619 11-24 11Z"/><path fill="#1D9C5A" id="MOs6a" d="m194 74-5 1c-1.665 0-1-4.222-1-5.5 0-5.58 3-10.086 3-15.5l1-1c2.857 0 13-2.905 13 2l-7 10.5-4 8.5ZM262 74l6 1c0-7.663-3-14.978-3-21l-1-1c-2.219 0-13-2.934-13 2v1c2.537 0 11 15.621 11 18Z"/><path fill="#1A7F63" id="SSp-ul4" d="m339 63-2 8c-5.648 0-18.01-12-26-12v-1l4-6c6.261 0 19.455 11 24 11Z"/><path fill="#1F9D58" id="MOs5" d="m192 53-1 1 1-1Z"/><path fill="#1F9B5A" id="MOp6a" d="M189 76c-7.678 0-14.728 7-22 7 0-6.216 1-14.263 1-18h1l22-11c0 5.414-3 9.92-3 15.5 0 1.278-.665 5.5 1 5.5v1ZM268 76l21 6c0-5.675-1-11.954-1-17l-23-11c0 6.022 3 13.337 3 21v1Z"/><path fill="#3FA664" id="ACAd6a" d="M194 75c1.238 0 5 1.923 5 3l8-7c0-5.605-1-10.86-1-16h-1l-7 10.5-4 8.5v1ZM259 77l-2 1c0-1.503-6.461-7-8-7v-1c0-1.916.713-14 2-14 2.537 0 11 15.621 11 18v1c-1.238 0-3 .423-3 2Z"/><path fill="#187F63" id="SSp-bfd2/3" d="m89 65 8 4c4.01 0 4-5.298 4-12-1.92 0-12 5.772-12 8ZM367 65c0 1.439-1.352-.147-2.5 1l-5.5 4c0-.656-3.319-4.138-4-5.5l1-7.5c2.548 0 11 5.713 11 8Z"/><path fill="#187E62" id="SSp-ul5" d="M123 83h1c4.522 0 20.177-12 27-12 0-2.576-3.026-12-6-12-8.477 0-18.682 12-26 12v1c1.949 0 4 8.72 4 11ZM337 71c0 4.28-4 7.574-4 12-3.725 0-21.702-12-28-12 0-1.787 4.225-12 6-12 7.99 0 20.352 12 26 12Z"/><path fill="#197E63" id="SSp-n1" d="M49 106c1.947 0 2.636 3 5 3 0-8.136 16.878-28.378 23.5-35L88 65l-5-3c-3.364 0-8.082 6.582-10.5 9C65.549 77.951 49 97.1 49 106ZM402 109h1l4-3c0-8.874-19.37-33.935-25.5-37-1.63-.815-4.864-7-7.5-7l-6 3 9.5 8c5.997 2.998 24.5 27.358 24.5 36Z"/><path fill="#197E61" id="SSp-un4" d="M99 73c2.947 0 2.713 6 6 6l14-7v-1l-2-8-18 9v1Z"/><path fill="#3FA566" id="ACAv2/3" d="m222 94-3 3c0-9.974-1-21.374-1-32l5-2c0 10.298-1 21.352-1 31Z"/><path fill="#40A664" id="ACAv1" d="M222 94h1l4-7c0-3.15 2-3.446 2 0l5 7c0-9.935-1-20.513-1-31h-10c0 10.298-1 21.352-1 31Z"/><path fill="#3FA566" id="ACAv2/3" d="m234 95 3 1c1.725 0 1-6.052 1-7.5l1-23.5-6-2c0 10.487 1 21.065 1 31v1Z"/><path fill="#197E61" id="SSp-un4" d="M351 80h1c0-1.662 4.775-7 6-7v-1l-18-9h-1l-2 8 14 9Z"/><path fill="#1B7F64" id="SSp-n2/3" d="m54 110 8 5 3-5.5C70.884 97.733 83.33 73 99 73v-1c-1.577 0-2-1.762-2-3l-8-4c0 1.186-1 1.186-1 0l-10.5 9C70.878 80.622 54 100.864 54 109v1Z"/><path fill="#187F63" id="SSp-bfd2/3" d="M88 65h1c0 1.186-1 1.186-1 0Z"/><path fill="#1A7F64" id="SSp-ll6a" d="m167 83-9 3c0-5.54-6-10.36-6-15l16-6c0 3.737-1 11.784-1 18Z"/><path fill="#3EA666" id="ACAv5" d="M211 95c2.709 0 4.646 2 8 2 0-9.974-1-21.374-1-32-4.487 0-8.45 6-11 6 0 8.457 4 16.284 4 24ZM246 95c-.987 0-9 4.162-9 1 1.725 0 1-6.052 1-7.5l1-23.5 10 5v1c0 8.404-3 15.348-3 23v1Z"/><path fill="#1A7F64" id="SSp-ll6a" d="M289 83c3.42 0 6.14 3 9 3 0-4.738 6-10.027 6-15l-3.5-2c-2.241-1.12-10.214-4-12.5-4 0 5.046 1 11.325 1 17v1Z"/><path fill="#1B7F64" id="SSp-n2/3" d="M394 115h1c1.338 0 7-4.41 7-6 0-8.642-18.503-33.002-24.5-36l-9.5-8h-1c0 1.439-1.352-.147-2.5 1l-5.5 4-1 2v1c11.792 0 36 31.042 36 42Z"/><path fill="#197D61" id="SSp-ul6a" d="M129 99h2c0-2.109 2.535-2 4-2l4.5-3c1.918-.959 17.166-7 18.5-7v-1c0-5.54-6-10.36-6-15h-1c-6.823 0-22.478 12-27 12 0 5.508 5 10.528 5 16Z"/><path fill="#40A564" id="ACAv6a" d="M210 95h1c0-7.716-4-15.543-4-24l-8 7v1c.53 0 9 11.594 9 13l2 3ZM246 94h1l1-1 1-2c0-1.747.253-2 2-2 0-3.651 6-6.552 6-10v-1c0-1.503-6.461-7-8-7 0 8.404-3 15.348-3 23Z"/><path fill="#197D61" id="SSp-ul6a" d="M299 87c5.531 0 22.969 12 28 12 0-5.626 6-10.195 6-16-3.725 0-21.702-12-28-12h-1c0 4.973-6 10.262-6 15l1 1Z"/><path fill="#197D62" id="SSp-un5" d="M343 89h1l7-9-14-9c0 4.28-4 7.574-4 12l10 6ZM112 89h1l10-6c0-2.28-2.051-11-4-11l-14 7v1c0 2.497 7 5.543 7 9Z"/><path fill="#1A8062" id="SSp-n4" d="M62 115c2.83 0 4.54 4 7 4 0-6.481 19.072-28.786 25.5-32l10.5-7v-1c-3.287 0-3.053-6-6-6-15.67 0-28.116 24.733-34 36.5l-3 5.5ZM394 115l-6 4-3.5-6c-3.83-3.83-9.73-11.96-12.5-17.5L358.5 84l-6.5-4c0-1.662 4.775-7 6-7 11.792 0 36 31.042 36 42Z"/><path fill="#1E9C58" id="MOs6b" d="M189 76v1l5-2v-1l-5 1v1ZM268 76v1l-5-2h-1v-1l6 1v1Z"/><path fill="#CACCC7" id="cing" d="m208 92 2 3c-7.356 0-12.291-9.896-18.5-13-6.878-3.439-15.443 4-21.5 4l-1 1h-1l-5-1 4-2c7.568 0 14.631-7 22-7l5-2 4 4c0 2.285 7.032 13 10 13Z"/><path fill="#3FA466" id="ACAd6b" d="M198 79h1v-1c0-1.077-3.762-3-5-3l4 4ZM263 75l-4 2c0-1.577 1.762-2 3-2h1Z"/><path fill="#CACCC7" id="cing" d="m248 93-1 1c8.132 0 11.796-8.648 18.5-12 6.794-3.397 14.741 4 20.5 4l2 1h1l5-1c0-.672-4.329-2-5-2-6.933 0-14.203-7-21-7l-5-2-4 2-1 2c0 2.7-4.463 10-7 10 0 1.747-.253 2-2 2l-1 2Z"/><path fill="#1D9D5A" id="MOp6b" d="M167 83v1c7.568 0 14.631-7 22-7v-1c-7.678 0-14.728 7-22 7ZM289 83v1c-6.933 0-14.203-7-21-7v-1l21 6v1Z"/><path fill="#3FA466" id="ACAd6b" d="M257 79h1l1-2-2 1v1Z"/><path fill="#40A465" id="ACAv6b" d="M199 79c.53 0 9 11.594 9 13-2.968 0-10-10.715-10-13h1ZM258 79c0 2.7-4.463 10-7 10 0-3.651 6-6.552 6-10h1Z"/><path fill="#197E62" id="SSp-n5" d="M77 126h1c0-10.922 16.917-26.709 25.5-31l8.5-6c0-3.457-7-6.503-7-9l-10.5 7C88.072 90.214 69 112.519 69 119v1c1.278 0 8 4.421 8 6ZM388 120c-3.672 0-5.416 5-9 5-1.961 0-5.135-9.769-6-11.5-2.613-5.225-23.537-24.5-29-24.5l7-9h1l6.5 4L372 95.5c2.77 5.54 8.67 13.67 12.5 17.5l3.5 6v1Z"/><path fill="#C9C7C9" id="ccb" d="M87 150c0 5.395-4 9.284-4 15l4-7.5c4.118-8.236 8.989-15.978 13-24 6.933-13.866 25.329-24.414 37.5-30.5 4.922-2.461 15.08-1 20.5-1l3.5-5 12-5c1.226-.613 11.5-2.181 11.5 0 3.679 0 18 4.93 18 10 3.552 0 6.716 1 10 1 0-.801 4.441-2.53 5.5-2 4.807 2.404 15.106 2.447 20 0 .617-.309 4.5 1.382 4.5 2 3.284 0 6.448-1 10-1 0-3.702 15.432-10 19-10 0-2.31 9.372-.564 10.5 0l10 3 6.5 7c6.064 0 13.808-1.846 19.5 1 10.782 5.391 33.365 20.231 39.5 32.5 4.066 8.132 8.953 15.907 13 24 .784 1.568 1.924 9.5 4 9.5 0-7.055-6-13.125-6-20-1.577 0-2-1.762-2-3v-1c-1.709 0-5.173-8.845-6-10.5-3.511-7.023-17.72-23.61-25.5-27.5-11.339-5.669-23.735-8.368-35-14-1.945-.972-11.5-3.437-11.5-6h-1l-2-1c-5.759 0-13.706-7.397-20.5-4-6.704 3.352-10.368 12-18.5 12l-1 1c-.987 0-9 4.162-9 1l-3-1-4.5 1-1-2c-.654 0-5.5 4.781-5.5 0h-1l-3 3c-3.354 0-5.291-2-8-2h-1c-7.356 0-12.291-9.896-18.5-13-6.878-3.439-15.443 4-21.5 4l-1 1h-1c0 2.155-6.965 3.233-8.5 4l-12 6-10 2c-6.407 3.203-12.54 6.77-19 10-3.062 1.531-4.509 6-7.5 6l-2 2-2 2c0 1.747-.253 2-2 2 0 1.717-6.218 10-8 10l-1 2-1 2c0 1.301-2.496 7-4 7l-1 2-1 2v1l-1 2-1 1Z"/><path fill="#1A7F61" id="SSp-un6a" d="M121 103h1c0-2.109 2.535-2 4-2l3-2c0-5.472-5-10.492-5-16h-1l-10 6 8 14Z"/><path fill="#197F62" id="SSp-ll6b" d="M158 87h1l4-1 4-2v-1l-9 3v1ZM298 87h1l-1-1c-2.86 0-5.58-3-9-3v1c.671 0 5 1.328 5 2l4 1Z"/><path fill="#1A7F61" id="SSp-un6a" d="M335 103h1l7-14-10-6c0 5.805-6 10.374-6 16l8 4Z"/><path fill="#C9C9CA" id="scwm" d="M111 113v2c2.991 0 4.438-4.469 7.5-6 6.46-3.23 12.593-6.797 19-10l10-2 12-6c1.535-.767 8.5-1.845 8.5-4l-5-1-4 1c0 1.183-3.57 1.535-4.5 2-6.089 3.044-12.252 8-19.5 8l-4 2-2 1c0 1.473-1.952 1-3 1 0 2.109-2.535 2-4 2l-1 1c0 1.901-4.332 5-6 5 0 1.747-.253 2-2 2l-2 2ZM170 86l-1 1 1-1ZM286 86l2 1-2-1ZM365 138l2 7c-1.709 0-5.173-8.845-6-10.5-3.511-7.023-17.72-23.61-25.5-27.5-11.339-5.669-23.735-8.368-35-14-1.945-.972-11.5-3.437-11.5-6l5-1 4 1 7.5 4c3.796 1.898 17.931 9 21.5 9l8 4 8 7.5c6.771 6.771 12.02 11.039 16 19l6 7.5Z"/><path fill="#1C8064" id="SSp-ul6b" d="M159 87c0 1.183-3.57 1.535-4.5 2-6.089 3.044-12.252 8-19.5 8l4.5-3c1.918-.959 17.166-7 18.5-7h1Z"/><path fill="#7ED04B" id="IG" d="M234 94v1l-4.5 1-1-2c-.654 0-5.5 4.781-5.5 0l4-7c.839 0 2 1.93 2 0l5 7Z"/><path fill="#1C8064" id="SSp-ul6b" d="M327 99v1c-3.569 0-17.704-7.102-21.5-9l-7.5-4h1c5.531 0 22.969 12 28 12Z"/><path fill="#187D62" id="SSp-n6a" d="M99 126c-4.146 0-4.135 10-8 10-1.604 0-13-9.196-13-10 0-10.922 16.917-26.709 25.5-31l8.5-6h1l8 14-6 6c-1.747 0-2 .253-2 2-1.747 0-2 .253-2 2-1.747 0-2 .253-2 2-1.747 0-2 .253-2 2l-6 6c-1.577 0-2 1.762-2 3Z"/><path fill="#40A465" id="ACAv6b" d="M251 89c-1.747 0-2 .253-2 2 1.747 0 2-.253 2-2Z"/><path fill="#187D62" id="SSp-n6a" d="M365 137h1l3-2.5c.894-1.788 7.314-8.5 10-8.5v-1c-1.961 0-5.135-9.769-6-11.5-2.613-5.225-23.537-24.5-29-24.5h-1l-7 14 9 8.5c4.971 4.971 20 19.708 20 25.5Z"/><path fill="#AAA8A9" id="SEZ" d="m158 102 4 2-1-3.5c3.396-6.792 17.329-8.5 24-8.5 0-2.181-10.274-.613-11.5 0l-12 5-3.5 5Z"/><path fill="#40A465" id="ACAv6b" d="m249 91-1 2 1-2Z"/><path fill="#AAA8A9" id="SEZ" d="m299 102-4 2c0-9.486-14.28-12-23-12 0-2.31 9.372-.564 10.5 0l10 3 6.5 7Z"/><path fill="#A8AAAA" id="VL" fill-rule="evenodd" d="M192 100c0 4.868-21.87 27.315-14.5 31 7.259 3.63 36.05-31 14.5-31m5 23c-4.289 0-21.442 19-22 19 0-8.341.446-16.609-3-23.5L162 104l-1-3.5c3.396-6.792 17.329-8.5 24-8.5 3.679 0 18 4.93 18 10 0 7.361-6 13.436-6 21ZM259 100l-3 3.5c-2.006 4.013 7.962 17.962 11 21 1.226 1.226 9.983 10.035 12 6l1-7c-2.756-5.512-8.294-9.588-11-15-.79-1.579-1.795-6.648-3.5-7.5l-6.5-1m1 23c3.152 0 19.433 18 21 18 0-6.09-.568-15.365 2-20.5l6-8c.891-1.782 3.204-8.5 6-8.5 0-9.486-14.28-12-23-12-3.568 0-19 6.298-19 10l7 21Z"/><path fill="#CACCC7" id="cing" d="m247 94-1 1v-1h1Z"/><path fill="#1C8064" id="SSp-ul6b" d="M135 97c-1.465 0-4-.109-4 2l4-2Z"/><path fill="#1A7D63" id="SSp-un6b" d="M129 100c0 1.473-1.952 1-3 1l3-2v1Z"/><path fill="#1C8064" id="SSp-ul6b" d="m131 99-2 1v-1h2Z"/><path fill="#1A7D63" id="SSp-un6b" d="M335 103v1l-8-4v-1l8 4Z"/><path fill="#A9AAA8" id="chpl" d="M192 100c0 4.868-21.87 27.315-14.5 31 7.259 3.63 36.05-31 14.5-31ZM259 100l-3 3.5c-2.006 4.013 7.962 17.962 11 21 1.226 1.226 9.983 10.035 12 6l1-7c-2.756-5.512-8.294-9.588-11-15-.79-1.579-1.795-6.648-3.5-7.5l-6.5-1Z"/><path fill="#1A7D63" id="SSp-un6b" d="M126 101c-1.465 0-4-.109-4 2 1.465 0 4 .109 4-2Z"/><path fill="#98D5F9" id="CP" d="M128 231c-5.429 0-10.879 3-17 3-9.868 0-16.627-15.754-20-22.5-.98-1.959-3.523-12.5-6-12.5v-2c0-1.238-.423-3-2-3v-1c0-1.357-.647-6-2-6v-17l1-2v-1l1-2 4-7.5c4.118-8.236 8.989-15.978 13-24 6.933-13.866 25.329-24.414 37.5-30.5 4.922-2.461 15.08-1 20.5-1l4 2 10 14.5c3.446 6.891 3 15.159 3 23.5v3c-.991 0-2.574 6.037-4.5 7-3.528 1.764-8.121-2-11.5-2-1.238 0-3 .423-3 2l-1 1v2c-.034 0-4 11.064-4 12 0 .286-7.036 10.571-8 12.5-3.678 7.355-2 19.745-2 28.5v5c-1.714 0-1 5.594-1 7l-2 4-10 7Z"/><path fill="#90CBEC" id="LSc" d="M197 123h10c3.504 0 12-13.265 12-16l-1-2-5-2c-3.284 0-6.448-1-10-1 0 7.361-6 13.436-6 21Z"/><path fill="#CBC8CC" id="df" d="M220 106h16l2-1 5-2c0-.618-3.883-2.309-4.5-2-4.894 2.447-15.193 2.404-20 0-1.059-.53-5.5 1.199-5.5 2l5 2 2 1Z"/><path fill="#90CBEC" id="LSc" d="M249 123h11l-7-21c-3.552 0-6.716 1-10 1l-5 2v2c0 5.368 11 14.83 11 16Z"/><path fill="#98D5F9" id="CP" d="M329 231c5.286 0 10.824 3 17 3 4.026 0 5.943-5 9-5 0-1.668 3.099-6 5-6l1-2 2-4c0-1.465-.109-4 2-4 0-1.424.362-5 2-5l2-4c0-1.465-.109-4 2-4v-2l1-1 1-2v-1c0-1.424.362-5 2-5v-20c-2.076 0-3.216-7.932-4-9.5-4.047-8.093-8.934-15.868-13-24-6.135-12.269-28.718-27.109-39.5-32.5-5.692-2.846-13.436-1-19.5-1l-4 2c-2.796 0-5.109 6.718-6 8.5l-6 8c-2.568 5.135-2 14.41-2 20.5 1.085 0 1.666 9.583 4.5 11 3.578 1.789 8.818-2 12.5-2l2 1 1 1v2c.618 0 4 11.698 4 13l4 4.5c1.072 2.145 2.647 4.293 4 7 3.168 6.336 2 15.915 2 23.5 1.614 0 1 3.31 1 4.5 0 5.757 1 11.221 1 16.5h1l1 1 10 7Z"/><path fill="#1B7E64" id="SSp-n6b" d="M121 104c0 1.901-4.332 5-6 5l6-6v1Z"/><path fill="#1A7D63" id="SSp-un6b" d="m122 103-1 1v-1h1Z"/><path fill="#1B7E64" id="SSp-n6b" d="M365 137v1l-6-7.5c-3.98-7.961-9.229-12.229-16-19l-8-7.5v-1h1l9 8.5c4.971 4.971 20 19.708 20 25.5Z"/><path fill="#97D6F9" id="STR" d="m220 106-1 1-1-2 2 1ZM236 106l2 1v-2l-2 1Z"/><path fill="#1A7E62" id="SSs1" d="M34 175h5c0-16.947 1.935-35.369 9-49.5.977-1.954 4.745-15.5 6-15.5v-1c-2.364 0-3.053-3-5-3l-10 26.5c-3.6 7.202-5 33.047-5 42.5Z"/><path fill="#8FCBEC" id="SF" fill-rule="evenodd" d="m221 112-4 3.5c-.969 1.937-5.022 10.956-4 13h31c1.765-3.53-7.114-16.5-12-16.5h-11m-14 27h1c0-5.155 6.414-4 10-4h28.5l2.5 3v-15c0-1.17-11-10.632-11-16l-2-1h-16l-1 1c0 2.735-8.496 16-12 16v16Z"/><path fill="#1A7E62" id="SSs1" d="M417 175h5c0-18.193-1.405-38.31-9-53.5-1.027-2.054-4.282-15.5-6-15.5l-4 3c0 6.167 5.275 16.051 8 21.5 5.024 10.047 6 31.826 6 44.5Z"/><path fill="#1B7E64" id="SSp-n6b" d="M115 109c-1.747 0-2 .253-2 2 1.747 0 2-.253 2-2Z"/><path fill="#1B8063" id="SSs2/3" d="M410 175h7c0-12.674-.976-34.453-6-44.5-2.725-5.449-8-15.333-8-21.5h-1c0 1.59-5.662 6-7 6 0 5.428 3.675 11.85 6 16.5 3.469 6.939 9 34.747 9 43.5ZM39 175h8c0-11.322 3.434-32.368 8-41.5l7-18.5-8-5c-1.255 0-5.023 13.546-6 15.5-7.065 14.131-9 32.553-9 49.5Z"/><path fill="#1B7E64" id="SSp-n6b" d="M113 111c-1.747 0-2 .253-2 2l2-2Z"/><path fill="#96A7D2" id="TRS" d="m221 112-4 3.5c-.969 1.937-5.022 10.956-4 13h31c1.765-3.53-7.114-16.5-12-16.5h-11Z"/><path fill="#1B7E64" id="SSp-n6b" d="M109 115h2v-2c-1.747 0-2 .253-2 2Z"/><path fill="#187C63" id="SSs4" d="M47 175h6c0-14.971 3.727-30.955 10-43.5 1.02-2.038 3.057-11.5 6-11.5v-1c-2.46 0-4.17-4-7-4l-7 18.5c-4.566 9.132-8 30.178-8 41.5Z"/><path fill="#1B7E64" id="SSp-n6b" d="M107 117h2v-2c-1.747 0-2 .253-2 2Z"/><path fill="#C9C9CA" id="scwm" d="m111 115-2 2v-2h2Z"/><path fill="#187C63" id="SSs4" d="M404 175h6c0-8.753-5.531-36.561-9-43.5-2.325-4.65-6-11.072-6-16.5h-1l-6 4v1c0 2.447 7.474 15.447 9 18.5 3.635 7.269 7 27.854 7 36.5Z"/><path fill="#1B7E64" id="SSp-n6b" d="m105 121-4 2 6-6v2l-2 2Z"/><path fill="#C9C9CA" id="scwm" d="m109 117-2 2v-2h2ZM107 119l-2 2c1.747 0 2-.253 2-2Z"/><path fill="#1C8063" id="SSs5" d="M53 175h12c0-9.988 4.064-32.629 8-40.5 1.49-2.98 4-4.87 4-8.5 0-1.579-6.722-6-8-6-2.943 0-4.98 9.462-6 11.5-6.273 12.545-10 28.529-10 43.5ZM391 175h13c0-8.646-3.365-29.231-7-36.5-1.526-3.053-9-16.053-9-18.5-3.672 0-5.416 5-9 5v1c0 3.463 4.371 11.243 6 14.5 4.217 8.435 6 24.023 6 34.5Z"/><path fill="#C9C9CA" id="scwm" d="m99 126-2 5c1.782 0 8-8.283 8-10l-4 2c0 1.238-.423 3-2 3Z"/><path fill="#1B7E64" id="SSp-n6b" d="M101 123c-1.577 0-2 1.762-2 3 1.577 0 2-1.762 2-3Z"/><path fill="#CBC8CB" id="fi" d="m175 144 5.5 6c4.142 2.071 9.239-2 12.5-2l10-5 4-4v-16h-10c-4.289 0-21.442 19-22 19v2ZM281 145l-5.5 5c-4.068 2.034-9.039-2-12.5-2l-9-5-5-5v-15h11c3.152 0 19.433 18 21 18v4Z"/><path fill="#197D63" id="SSs6a" d="M65 175h14c0-8.912 4.172-21.845 8-29.5l4-8.5v-1c-1.604 0-13-9.196-13-10h-1c0 3.63-2.51 5.52-4 8.5-3.936 7.871-8 30.512-8 40.5Z"/><path fill="#1B7E64" id="SSp-n6b" d="M91 137h1l3-2 1-2 1-2 2-5c-4.146 0-4.135 10-8 10v1Z"/><path fill="#197D63" id="SSs6a" d="M378 175h13c0-10.477-1.783-26.065-6-34.5-1.629-3.257-6-11.037-6-14.5-2.686 0-9.106 6.712-10 8.5l-3 2.5c0 9.003 12 26.641 12 38Z"/><path fill="#C9C9CA" id="scwm" d="m97 131-1 2 1-2ZM96 133l-1 2 1-2ZM92 137l-1 5c1.504 0 4-5.699 4-7l-3 2Z"/><path fill="#C8C9C9" id="vhc" d="M237 139h6c1.321 0 6 .684 6-1l-2.5-3H218c-3.586 0-10-1.155-10 4h29Z"/><path fill="#1A8061" id="SSs6b" d="M79 176h1c0-1.048-.473-3 1-3v-3l1-2v-1l1-2c0-5.716 4-9.605 4-15l1-1 1-2v-1l1-2 1-2 1-5h-1l-4 8.5c-3.828 7.655-8 20.588-8 29.5v1ZM378 175l-2 1v-3l-1-2v-2c0-7.055-6-13.125-6-20l-2-3v-1l-2-7v-1h1c0 9.003 12 26.641 12 38Z"/><path fill="#A8A9AA" id="V3" d="M241 164h3c0-.66 11.419-5 13-5l6-3 1-1c0-2.409-1-5.181-1-7l-9-5c-1.705 0-11-2.395-11-4h-6l-1 3c0 7.533-15 8.381-15 1-1.579 0-1-2.855-1-4h-7c0 1.259-8.632 4-10 4l-10 5v8l6 3c1.924 0 13 3.555 13 5h3c4.081 0 9.575 2 13.5 2 3.634 0 8.688-2 12.5-2Z"/><path fill="#FF5347" id="SFO" d="M236 142c-1.77 0-7.275 2.113-9.5 1-1.256-.628-3.267-2.867-5-2l-.5 2c0 7.381 15 6.533 15-1Z"/><path fill="#97D6F9" id="STR" d="m292 157-1 1-3-1c0-3.766-1.59-4-5-4h-2v-12c1.085 0 1.666 9.583 4.5 11 3.578 1.789 8.818-2 12.5-2 0 1.465-5 3.316-5 6l-1 1Z"/><path fill="#C9C9CA" id="scwm" d="m91 142-1 2 1-2ZM90 144l-1 2 1-2Z"/><path fill="#97D6F9" id="STR" d="M165 157h3c0-3.564 1.868-4 5-4h2v-8c-.991 0-2.574 6.037-4.5 7-3.528 1.764-8.121-2-11.5-2l6 7Z"/><path fill="#C9C9CA" id="scwm" d="m367 146 2 3c-1.577 0-2-1.762-2-3ZM89 147l-1 2 1-2ZM88 149l-1 1 1-1Z"/><path fill="#CCC" d="M169 191v1c2.442 0 2 11.134 2 13.5l.5 4.5 2.5-12.5c4.067-8.134-1.464-25.927-5-33-1.334-2.668-4-4.276-4-7.5l-6-7c-1.238 0-3 .423-3 2l-1 1v13c0 1.217 10 10.172 10 15l1 1 1 4 1 2v1l1 2ZM287 193v1c-1.251 0-2 8.889-2 10.5l-.5 3.5c-1.563 0-1.846-11.193-2.5-12.5-1.547-3.095 1.274-22.549 3-26l6-11.5 1-1 1-1c0-2.684 5-4.535 5-6l2 1 1 1v2l1 12c-4.216 0-12 13.66-12 18l-1 1v2l-1 2v1c-1.473 0-1 1.952-1 3Z"/><path fill="#A8AAAA" id="VL" d="M193 151c-1.535 0-1.535 4 0 4v-4Z"/><path fill="#97D6F9" id="STR" d="m300 151 1 1-1-1ZM156 152l-1 1 1-1Z"/><path fill="#FF6F80" id="TH" d="M189 171c0 1.009 2.421 5.343 3 6.5l-1 7.5 2-2.5 4-4c2.811-5.623 2-12.731 2-19.5l-6-3c-.621 0-10-7.034-10-3 6.587 0 21.773 15.864 13.5 20-3.117 1.558-5.401-2-7.5-2ZM270 153h4c0-1.535-4-1.535-4 0Z"/><path fill="#C8CBC7" id="st" d="m172 167 5 8c6.92 0 0-14.091 0-17 0-3.165-4-2.508-4-5-3.132 0-5 .436-5 4l1 4 3 6Z"/><path fill="#CAC7CB" id="fiber tracts" d="m177 158 2 1c0-2.244-1.725-6-4-6h-2c0 2.492 4 1.835 4 5Z"/><path fill="#FD909E" id="AV" d="M181 160c0 1.46 6.361 11 8 11 2.099 0 4.383 3.558 7.5 2 8.273-4.136-6.913-20-13.5-20-7.203 0-2 3.28-2 7Z"/><path fill="#FF6F80" id="TH" d="M265 183v2l-2-3.5-4-3c-2.733-5.466-2-12.916-2-19.5l6-3 1-1 5-2c0 1.908-18.501 15-8.5 20l6.5-1c0 .17-2 7.269-2 11Z"/><path fill="#FD909E" id="AV" d="M275 161c0 3.645-8 8.4-8 11l-6.5 1c-10.001-5 8.5-18.092 8.5-20h5c6.364 0 1 5.066 1 8Z"/><path fill="#CAC7CB" id="fiber tracts" d="M278 158h1c0-2.741 4-2.75 4-5h-2c-1.803 0-3 3.592-3 5Z"/><path fill="#C8CBC7" id="st" d="M285 165c0 4.369-6 7.127-6 11-4.516 0-1-14.967-1-17l1-1c0-2.741 4-2.75 4-5 3.41 0 5 .234 5 4l-1 5-1 2-1 1Z"/><path fill="#97D6F9" id="STR" d="m302 166 3 1c0-1.302-3.382-13-4-13l1 12ZM155 166l-4 1c0-.936 3.966-12 4-12v11Z"/><path fill="#8599CC" id="PAL" d="m293 156-1 1 1-1ZM170 226h1v-1c0-2.858 6.566-18 8-18 0-5.599 4.65-16.2 2-21.5l-4-10.5-5-8-3-6-1-4h-3c0 3.224 2.666 4.832 4 7.5 3.536 7.073 9.067 24.866 5 33l-2.5 12.5-.5-4.5c0-2.366.442-13.5-2-13.5v15.5c-.896 1.792-6 6.323-6 7.5 4.67 0 7 7.007 7 11ZM294 215c-6.631 0-6.455 10-8 10 0-5.317-4.741-9.982-7-14.5-.559-1.119-.155-4.5-2-4.5 0-5.837-2-11.412-2-16.5 0-4.265 4-9.65 4-13.5 0-3.873 6-6.631 6-11l1-1 1-2 1-5 3 1-6 11.5c-1.726 3.451-4.547 22.905-3 26 .654 1.307.937 12.5 2.5 12.5l.5-3.5c0-1.611.749-10.5 2-10.5 0 6.016-.489 12.521 2 17.5l5 3.5ZM292 157l-1 1 1-1Z"/><path fill="#B3C0DE" id="BST" d="m179 218 8 13c1.543 0 4.898 4 8 4 4.384 0 13.507-8.487 11-13.5l-5-8v-6l-7-6.5c-3.943 0-7.69-16-3-16l1-7.5c-.579-1.157-3-5.491-3-6.5-1.639 0-8-9.54-8-11l-2-1-2-1c0 2.909 6.92 17 0 17l4 10.5c2.65 5.3-2 15.901-2 21.5v11ZM279 158l-1 1v-1h1Z"/><path fill="#CCC9C8" id="sm" d="m195 198 6 3c0-5.845-2.368-16 6-16 0-8.373 5-17.684 5-20v-1c0-1.445-11.076-5-13-5 0 6.769.811 13.877-2 19.5l-4 4-2 2.5c0 6.289 4 10.075 4 13ZM261 198c-2.326 0-3.927 2-6 2 0-5.166 2.054-15-5-15 0-3.124-3.636-20-6-20v-1c0-.66 11.419-5 13-5 0 6.584-.733 14.034 2 19.5l4 3 2 3.5c0 6.702-4 12.51-4 13Z"/><path fill="#B3C0DE" id="BST" d="M277 219c-1.913 0-8 11.045-8 13-2.048 0-4.872 4.314-7.5 3-4.788-2.394-14.548-7.403-10.5-15.5l4-5v-6c1.617-3.233 7-3.967 7-7.5 5.96 0 7.075-18 3-18 0-3.731 2-10.83 2-11 0-2.6 8-7.355 8-11l3-2c0 2.033-3.516 17 1 17 0 3.85-4 9.235-4 13.5 0 5.088 2 10.663 2 16.5v13ZM169 161l3 6-3-6ZM287 162l-1 2 1-2Z"/><path fill="#FF6F80" id="TH" d="m212 165 3 1v-2h-3v1Z"/><path fill="#FE8F9E" id="PVT" d="M232 201h3l2-1c0-4.573-4.522-11.455-2-16.5 1.676-3.351 7-15.226 7-18.5l-1-1c-3.812 0-8.866 2-12.5 2-3.925 0-9.419-2-13.5-2v2c0 4.528 3.997 11.493 6 15.5 2.758 5.516-2 13.756-2 18.5l2 1h11Z"/><path fill="#FF6F80" id="TH" d="M242 165h2v-1h-3l1 1Z"/><path fill="#B3C0DE" id="BST" d="m286 164-1 1 1-1Z"/><path fill="#C9C7C9" id="ccb" d="m83 165-1 2 1-2Z"/><path fill="#FF909F" id="PT" d="M207 185c0 15.153-1.119 15 12 15 0-4.744 4.758-12.984 2-18.5-2.003-4.007-6-10.972-6-15.5l-3-1c0 2.316-5 11.627-5 20ZM250 185c0 4.077-.202 13.851-4.5 16-2.568 1.284-6.486-1-8.5-1 0-4.573-4.522-11.455-2-16.5 1.676-3.351 7-15.226 7-18.5h2c2.364 0 6 16.876 6 20Z"/><path fill="#8598CC" id="GPe" d="m158 217-6 1c-3.495 0-7.27-2.04-9-5.5-.465-.93-.817-4.5-2-4.5 0-8.755-1.678-21.145 2-28.5.964-1.929 8-12.214 8-12.5l4-1c0 1.217 10 10.172 10 15l1 1 1 4 1 2v1l1 2v16.5c-.896 1.792-6 6.323-6 7.5h-2l-1 1h-1l-1 1ZM298 217l6 1c6.597 0 9.857-8 11-8v-8c0-7.585 1.168-17.164-2-23.5-1.353-2.707-2.928-4.855-4-7l-4-4.5-3-1c-4.216 0-12 13.66-12 18l-1 1v2l-1 2v1c0 1.048.473 3-1 3v1c0 6.016-.489 12.521 2 17.5l5 3.5h1l1 1h1l1 1Z"/><path fill="#C9C7C9" id="ccb" d="m82 168-1 2 1-2ZM375 173h1l-1-2v2Z"/><path fill="#C8CBCC" id="ec" d="m80 184 1 2v-13c-1.473 0-1 1.952-1 3v8ZM376 184c0 1.048.473 3-1 3v-14h1v11Z"/><path fill="#12AD83" id="VISC1" d="m44 199-5 1c0-6.383-5-16.39-5-25h5c0 9.465 5 18.603 5 24Z"/><path fill="#12AC83" id="VISC2/3" d="M44 199h1c0-1.353 4.644-2 6-2l1-1v-1c0-5.223-5-11.78-5-20h-8c0 9.465 5 18.603 5 24Z"/><path fill="#11AC82" id="VISC4" d="m55 194-3 1c0-5.223-5-11.78-5-20h6c0 2.33-2.235 18 2 18v1Z"/><path fill="#12AD82" id="VISC5" d="M67 189c-4.477 0-7.523 4-12 4-4.235 0-2-15.67-2-18h12c0 2.361-.735 13 2 13v1Z"/><path fill="#11AC83" id="VISC6a" d="M79 185c-4.394 0-7.909 3-12 3-2.735 0-2-10.639-2-13h14v10Z"/><path fill="#11AD82" id="VISC6b" d="M376 184h1l1-9-2 1v8Z"/><path fill="#11AC83" id="VISC6a" d="M377 184c4.067 0 8.47 4 13 4 0-3.629 1-8.716 1-13h-13l-1 9Z"/><path fill="#12AD82" id="VISC5" d="M390 189c4.446 0 7.975 5 12 5l2-5.5V175h-13c0 4.284-1 9.371-1 13v1Z"/><path fill="#11AC82" id="VISC4" d="M402 195h2c1.752 0 6-16.673 6-20h-6v13.5l-2 5.5v1Z"/><path fill="#12AC83" id="VISC2/3" d="M412 199h1c0-7.956 4-15.017 4-24h-7c0 3.327-4.248 20-6 20v1l1 1c2.833 0 4.84 2 7 2Z"/><path fill="#12AD83" id="VISC1" d="m413 199 4 1 4-9.5 1-15.5h-5c0 8.983-4 16.044-4 24Z"/><path fill="#11AD82" id="VISC6b" d="M79 184h1v-8h-1v8Z"/><path fill="#8599CC" id="PAL" d="m165 181 1 1-1-1ZM262 201l-2 1 1-4c0-.49 4-6.298 4-13v-2c4.075 0 2.96 18-3 18Z"/><path fill="#019C74" id="GU6b" d="M80 191h1v-5l-1-2h-1v1l1 6Z"/><path fill="#8599CC" id="PAL" d="m290 184-1 1 1-1Z"/><path fill="#019C74" id="GU6b" d="M375 191h1c0-1.819 1-4.591 1-7h-1c0 1.048.473 3-1 3v4Z"/><path fill="#009B74" id="GU6a" d="m378 192 10 2 2-5v-1c-4.53 0-8.933-4-13-4 0 2.409-1 5.181-1 7l2 1ZM68 194h1l9-1 1-1 1-1-1-6c-4.394 0-7.909 3-12 3v1l1 5Z"/><path fill="#8599CC" id="PAL" d="m194 201 3 2-2-5c0-2.925-4-6.711-4-13-4.69 0-.943 16 3 16Z"/><path fill="#FF6F80" id="TH" d="m217 208 4 1-2-3.5c-1.058-2.116 2-2.898 2-4.5l-2-1c-13.119 0-12 .153-12-15-8.368 0-6 10.155-6 16 2.633 0 16 5.929 16 7ZM239 208l-4 1c0-1.714 2-3.482 2-6l-2-2 2-1c2.014 0 5.932 2.284 8.5 1 4.298-2.149 4.5-11.923 4.5-16 7.054 0 5 9.834 5 15l-16 8Z"/><path fill="#8599CC" id="PAL" d="m167 186 1 2-1-2Z"/><path fill="#C8CBCC" id="ec" d="m82 192 1 1c0-1.357-.647-6-2-6v4l1 1Z"/><path fill="#8599CC" id="PAL" d="m289 187-1 2 1-2Z"/><path fill="#019C75" id="GU5" d="M55 196h1c0-.856 10.692-2 12-2l-1-5c-4.477 0-7.523 4-12 4v3Z"/><path fill="#8599CC" id="PAL" d="m168 189 1 2-1-2Z"/><path fill="#C8CBCC" id="ec" d="M375 191c0 1.238-.423 3-2 3 0-1.424.362-5 2-5v2Z"/><path fill="#019C75" id="GU5" d="m402 195-1 1c-3.842 0-9.009-2-13-2l2-5c4.446 0 7.975 5 12 5v1Z"/><path fill="#8599CC" id="PAL" d="M288 190c-1.473 0-1 1.952-1 3 1.473 0 1-1.952 1-3Z"/><path fill="#8ADA86" id="CLA" d="M84 206h1l1-3v-1l-1-1v-2l-1-2-1-3v-1l-1-1-1-1h-1l-1 1-1 1c0 4.474-1.702 13 6 13Z"/><path fill="#219666" id="AIp6b" d="m81 191 1 1-1-1Z"/><path fill="#8ADA86" id="CLA" d="M371 200v2c0 3.29 4.156 6.189 6 2.5 2.413-4.826 1-7.669 1-12.5l-2-1h-1c0 1.238-.423 3-2 3v1l-1 2v1l-1 2Z"/><path fill="#209766" id="AIp6a" d="m79 192-1 1 1-1ZM378 213h1c0-6.115 9-12.692 9-19l-10-2c0 4.831 1.413 7.674-1 12.5-1.844 3.689-6 .79-6-2.5l-2 2v2c4.168 0 9 2.182 9 7ZM78 213h1c0-4.754 5-5.511 5-7-7.702 0-6-8.526-6-13l-9 1c0 7.06 8 12.221 8 19h1Z"/><path fill="#009C74" id="GU4" d="M52 196h3v-2l-3 1v1Z"/><path fill="#219864" id="AIp5" d="m77 213-6 3c-3.579 0-15-16.413-15-20 0-.856 10.692-2 12-2h1c0 7.06 8 12.221 8 19Z"/><path fill="#C8CBCC" id="ec" d="M84 197h1c0-1.238-.423-3-2-3l1 3Z"/><path fill="#219864" id="AIp5" d="M379 213c2.087 0 4.393 3 7 3 0-1.863 15-14.219 15-20-3.842 0-9.009-2-13-2 0 6.308-9 12.885-9 19Z"/><path fill="#C8CBCC" id="ec" d="m373 195-1 2 1-2Z"/><path fill="#009C74" id="GU4" d="M401 196h3v-1h-2l-1 1Z"/><path fill="#009B75" id="GU2/3" d="m52 196-1 1 1-1Z"/><path fill="#209865" id="AIp2/3" d="M71 216c0 1.14-9.467 4-11 4 0-3.8-15-13.59-15-21 0-1.353 4.644-2 6-2l1-1h4c0 3.587 11.421 20 15 20ZM386 216c0 1.555 9.133 4 11 4 0-4.051 15-14.353 15-21-2.16 0-4.167-2-7-2l-1-1h-3c0 5.781-15 18.137-15 20Z"/><path fill="#009B75" id="GU2/3" d="m404 196 1 1-1-1Z"/><path fill="#209766" id="AIp6a" d="M85 197v2l-1-2h1Z"/><path fill="#C8CBCC" id="ec" d="M371 198h1v-1l-1 1Z"/><path fill="#CAC7CB" id="fiber tracts" d="M217 208c0 1.579-2.855 1-4 1l-3.5-4c-1.956-.978-4.077 1-5.5 1-2.167 0-3.855-3-7-3l-2-5 6 3c2.633 0 16 5.929 16 7ZM239 208c0 1.643 3.765 1 5 1 0-6.013 6.246-3 9-3 0-4.042 7-1.976 7-4l1-4c-2.326 0-3.927 2-6 2l-16 8Z"/><path fill="#209766" id="AIp6a" d="m372 198-1 2v-2h1Z"/><path fill="#219765" id="AIp1" d="m60 220-5 2c0-3.458-16-15.607-16-22l5-1h1c0 7.41 15 17.2 15 21Z"/><path fill="#C8CBCC" id="ec" d="M113 237h2l-4-3c-9.868 0-16.627-15.754-20-22.5-.98-1.959-3.523-12.5-6-12.5v2l1 1v1l2 4 10 20c1.712 0 3 2.571 3 4h1l4 4h1l4 2h2Z"/><path fill="#219765" id="AIp1" d="m397 220 4 2c1.775 0 16-18.304 16-22l-4-1h-1c0 6.647-15 16.949-15 21Z"/><path fill="#FF6F80" id="TH" d="M226 208c2.413 0 3.51 1 5 1 0-2.663 1-5.25 1-8h-8l2 7Z"/><path fill="#C8CBCC" id="ec" d="m371 202-2 2c0-1.465-.109-4 2-4v2Z"/><path fill="#209766" id="AIp6a" d="m85 201 1 1-1-1Z"/><path fill="#E64438" id="HY" d="M207 232c-3.44 0-5.466 3.483-8.5 5-1.904.952-8.5-1.801-8.5 2-.616 0-3-6.93-3-8 1.543 0 4.898 4 8 4 4.384 0 13.507-8.487 11-13.5l-5-8v-6l-7-6.5 3 2c3.145 0 4.833 3 7 3 0 3.116-2.608 5.283-1 8.5 1.481 2.963 10 3.697 10-5.5 1.145 0 4 .579 4-1l4 1h1c0 1.186 1 1.186 1 0h2c0 2.215 2 1.519 2 3v1l-5-1c-17.964 0 3 15.105 3 19 0 1.048.473 3-1 3 0-6.935-17-8.543-17-2Z"/><path fill="#FD909F" id="RE" d="M223 209h2l1-1-2-7h-3c0 1.602-3.058 2.384-2 4.5l2 3.5h2ZM233 209h2c0-1.714 2-3.482 2-6l-2-2h-3c0 2.75-1 5.337-1 8h2Z"/><path fill="#E64438" id="HY" d="m269 232-2 6c-7.043 0-15.731-6-18-6 0-2.95-7.023-5.239-9.5-4-1.462.731-7.097 6-7.5 6v-3c0-3.824 17.98-19 3.5-19H230l2-3h1c0 1.399 2 1.399 2 0l4-1c0 1.643 3.765 1 5 1 0 8.923 6.792 9.915 10 3.5l-1-6.5c0-4.042 7-1.976 7-4l2-1c0 3.533-5.383 4.267-7 7.5v6l-4 5c-4.048 8.097 5.712 13.106 10.5 15.5 2.628 1.314 5.452-3 7.5-3Z"/><path fill="#97D6F9" id="STR" d="M336 249c0 1.278-4.421 8-6 8 0-4.475-6.224-15.138-12.5-12l-4.5 2c0-1.009 2.421-5.343 3-6.5l-1-15.5v-23c1.614 0 1 3.31 1 4.5 0 5.757 1 11.221 1 16.5 0 13.632 3.262 26 19 26Z"/><path fill="#209766" id="AIp6a" d="m85 206 3 1-2-4-1 3Z"/><path fill="#C8CBCC" id="ec" d="m369 206-2 2 2-4v2Z"/><path fill="#C7C8CA" id="fx" d="M204 206c1.423 0 3.544-1.978 5.5-1l3.5 4c0 9.197-8.519 8.463-10 5.5-1.608-3.217 1-5.384 1-8.5ZM253 206c-2.754 0-9-3.013-9 3 0 8.923 6.792 9.915 10 3.5l-1-6.5Z"/><path fill="#A0EE9C" id="EPd" d="M97 231h1v-4l-10-20-3-1h-1c0 1.489-5 2.246-5 7 0 1.151 7.184 11 6.5 11l-6.5-8 1 3 1 1v1l7 6 1 1 1 1c2.425 0 4.794 2 7 2Z"/><path fill="#E64438" id="HY" d="M286 225v1c-3.41 0-4.35-7-9-7v-13c1.845 0 1.441 3.381 2 4.5 2.259 4.518 7 9.183 7 14.5Z"/><path fill="#A0EE9C" id="EPd" d="m365 230-1 1c-3.643 0-6 .295-6-4l1-1 1-3 1-2c2.109 0 2-2.535 2-4l2-4c1.638 0 2-3.576 2-5l2-2c4.168 0 9 2.182 9 7-1.399 0-1.399 2 0 2l-1 2c-4.136 0 0-2.609 0 0l-1 3h-1c0-4.451-3.402 1-1 1v1h-1v1h-1v1h-1v1l-1 1-1 1-1 1-1 1h-1l-1 1Z"/><path fill="#E64438" id="HY" d="m179 218-8 7c0-2.858 6.566-18 8-18v11Z"/><path fill="#8599CC" id="PAL" d="m152 218-5.5 3-5.5 5v-18c1.183 0 1.535 3.57 2 4.5 1.73 3.46 5.505 5.5 9 5.5Z"/><path fill="#FF6F80" id="TH" d="m226 208-1 1 1-1Z"/><path fill="#C8CBCC" id="ec" d="M367 208c-1.638 0-2 3.576-2 5 1.638 0 2-3.576 2-5Z"/><path fill="#FF6F80" id="TH" d="M222 209h1c0 1.186-1 1.186-1 0ZM233 209h2c0 1.399-2 1.399-2 0Z"/><path fill="#8599CC" id="PAL" d="m304 218 11 7v-15c-1.143 0-4.403 8-11 8Z"/><path fill="#FF5D4F" id="PVH" d="M225 231h2v-18l-5-1c-17.964 0 3 15.105 3 19Z"/><path fill="#A8A9AA" id="V3" d="M227 231c.839 0 2 1.93 2 0v-19h-2v19Z"/><path fill="#E64438" id="HY" d="m230 212-1 1v-1h1Z"/><path fill="#FF5D4F" id="PVH" d="M230 231h2c0-3.824 17.98-19 3.5-19H230l-1 1v17l1 1Z"/><path fill="#6ACAB9" id="PIR" d="M107 296h2l3-2.5c2.867-5.734 8-14.882 8-21.5 0-3.676-3-6.439-3-9v-1l-3-3c-.933 0-13.91-15.32-15-17.5l-4-5.5-10.5-11-3.5-4v-1l-1-1-1-3v-1l-1-1v-1h-1l-6 3c0 1.14-9.467 4-11 4l-5 2c0 3.929 10.976 13.452 13 17.5l17 33c1.93 3.86 3.619 10.559 7.5 12.5 4.7 2.35 7.92 11 14.5 11Z"/><path fill="#C9C8CA" id="ee" d="M79 215v1l6.5 8c.684 0-6.5-9.849-6.5-11h-1v1l1 1Z"/><path fill="#97D6F9" id="STR" d="m144 247 1 2c-1.087 0-5.853-4-12-4 0-1.638 5.09-7.679 6-9.5.747-1.494.214-11.5-1-11.5l2-4c0-1.406-.714-7 1-7v13c0 3.539-1.989 21 3 21Z"/><path fill="#C8CBCC" id="ec" d="M365 213c-2.109 0-2 2.535-2 4l2-4Z"/><path fill="#C9C8CA" id="ee" d="M378 214v1c-1.399 0-1.399-2 0-2v1Z"/><path fill="#99D2BD" id="OLF" d="m379 213-1 1v-1h1Z"/><path fill="#6ACAB9" id="PIR" d="M347 296h2c5.596 0 13.513-7.526 16-12.5 6.652-13.305 15.016-28.032 22-42 2.924-5.849 14-12.867 14-19.5l-4-2c-1.867 0-11-2.445-11-4-2.607 0-4.913-3-7-3l-1 1v1l-1 2-1 3-1 1-1 1-1 1v1l-1 1h-1v1l-1 1h-1v1l-1 1-7 8-13.5 17-5.5 5-1 2-1 1-1 1-1 1-2 7c0 6.287 11 24.223 11 25Z"/><path fill="#A0EE9C" id="EPd" d="m78 214 1 1-1-1Z"/><path fill="#8599CC" id="PAL" d="m161 215-1 1 1-1Z"/><path fill="#A2B1D7" id="SI" d="M149 247h11c3.066 0 4.417-2 7-2 0-6.119 3-12.009 3-18v-1c0-3.993-2.33-11-7-11h-2l-1 1h-1l-1 1-6 1-5.5 3-5.5 5c0 3.539-1.989 21 3 21h5ZM308 247h5c0-1.009 2.421-5.343 3-6.5l-1-15.5-11-7-6-1-1-1h-1l-1-1h-1c-6.631 0-6.455 10-8 10v1l2 3.5c0 4.789 1 9.262 1 14.5 2.404 0 4.649 3 8 3h11Z"/><path fill="#8599CC" id="PAL" d="m295 215 1 1-1-1Z"/><path fill="#C9C8CA" id="ee" d="M377 217c0-2.609-4.136 0 0 0Z"/><path fill="#8599CC" id="PAL" d="m159 216-1 1 1-1ZM297 216l1 1-1-1Z"/><path fill="#C8CBCC" id="ec" d="m363 217-2 4c2.109 0 2-2.535 2-4Z"/><path fill="#F2473B" id="LPO" d="M182 267h1c6.688 0 9-6.177 9-12 0-5.789-2-10.623-2-16-.616 0-3-6.93-3-8l-8-13-8 7v1l-1 1c0 5.991-3 11.881-3 18v5l1 1 1 3 1 2 1 2c3.585 0 6.014 8 10 8l1 1Z"/><path fill="#C9C8CA" id="ee" d="m375 220-1 1c-2.402 0 1-5.451 1-1Z"/><path fill="#99D2BD" id="OLF" d="m80 219 1 1-1-1Z"/><path fill="#F2473B" id="LPO" d="M284 259c-2.154 0-6.544 8-10 8-6.549 0-10-5.899-10-12 0-6.01 3-11.484 3-17l2-6c0-1.955 6.087-13 8-13 4.65 0 5.59 7 9 7l2 3.5c0 4.789 1 9.262 1 14.5v7l-1 1v1l-1 1v1l-1 2-1 1-1 1Z"/><path fill="#A0EE9C" id="EPd" d="M374 221h1v-1l-1 1Z"/><path fill="#99D2BD" id="OLF" d="m376 220-1 1v-1h1ZM95 234v2l-10.5-11-3.5-4 7 6 1 1 1 1 5 5Z"/><path fill="#C8CBCC" id="ec" d="m361 221-1 2 1-2Z"/><path fill="#8AD987" id="CTXsp" d="m375 221-1 1v-1h1ZM374 222l-1 1v-1h1Z"/><path fill="#7ECDF8" id="FS" d="M342 244c0 1.901-4.332 5-6 5-15.738 0-19-12.368-19-26h1l1 1 10 7c0 1.785-5.86 2.779-4 6.5.747 1.493 9 8.021 9 4.5l2-1c2.773 0 3.67-4 6-4h1c0 2.402-1 4.31-1 7Z"/><path fill="#97D6F9" id="STR" d="m318 223 1 1-1-1Z"/><path fill="#C8CBCC" id="ec" d="M358 227c-1.481 0-.785 2-3 2 0-1.668 3.099-6 5-6l-1 3-1 1Z"/><path fill="#8AD987" id="CTXsp" d="M372 224h1v-1h-1v1Z"/><path fill="#7ECDF8" id="FS" d="M130 248c-2.723 0-5.778 1-9 1-1.664 0-6-1.823-6-4 0-3.086-2-5.431-2-8h2l5 4h1c0 5.202 8.954-.408 10-2.5 2.081-4.162-3-5.164-3-7.5l10-7c1.214 0 1.747 10.006 1 11.5-.91 1.821-6 7.862-6 9.5l-1 1-1 1-1 1Z"/><path fill="#8AD987" id="CTXsp" d="M371 225h1v-1h-1v1Z"/><path fill="#99D2BD" id="OLF" d="m373 224-1 1v-1h1Z"/><path fill="#8AD987" id="CTXsp" d="M370 226h1v-1l-1 1Z"/><path fill="#E64438" id="HY" d="m171 226-1 1v-1h1Z"/><path fill="#8AD987" id="CTXsp" d="m359 226-1 1 1-1ZM369 227h1v-1l-1 1Z"/><path fill="#99D2BD" id="OLF" d="m371 226-1 1v-1h1Z"/><path fill="#8AD987" id="CTXsp" d="m88 227 1 1-1-1ZM98 231h3c0-1.429-1.288-4-3-4v4ZM364 231l-3 4c0-3.591-3.117-4-6-4v-2c2.215 0 1.519-2 3-2 0 4.295 2.357 4 6 4ZM368 228h1v-1l-1 1Z"/><path fill="#FD4C3E" id="MPN" d="m209 251 5 2c1.423 0 3.544 1.978 5.5 1l4.5-4v-16c0-6.935-17-8.543-17-2 0 5.847-1 9.214-1 15l3 4ZM242 253l-1 1-6.5-1-2.5-4v-15c.403 0 6.038-5.269 7.5-6 2.477-1.239 9.5 1.05 9.5 4 0 2.613.93 4.36 2 6.5l-1 8.5-2 3-1 1-5 2Z"/><path fill="#8AD987" id="CTXsp" d="M367 229h1v-1l-1 1Z"/><path fill="#99D2BD" id="OLF" d="m369 228-1 1v-1h1Z"/><path fill="#8AD987" id="CTXsp" d="M97 231c0 1.238-.423 3-2 3l-5-5c2.425 0 4.794 2 7 2Z"/><path fill="#C8CBCC" id="ec" d="M346 237h1l2-1 2-1c0-1.747.253-2 2-2l1-1 1-1v-2c-3.057 0-4.974 5-9 5 0 2.266-4-.454-4 3h4Z"/><path fill="#8AD987" id="CTXsp" d="m366 229-1 1 1-1Z"/><path fill="#99D2BD" id="OLF" d="M361 235v2l7-8h-2l-1 1-1 1-3 4Z"/><path fill="#E64438" id="HY" d="M229 231h1l-1-1v1Z"/><path fill="#8AD987" id="CTXsp" d="m365 230-1 1 1-1Z"/><path fill="#A0ED9D" id="EPv" d="M114 259h1c0-3.456 3.177-5.145 1-9.5l-7-9.5c-2.96 0-4-2.399-4-5-1.712 0-3-2.571-3-4h-5c0 1.238-.423 3-2 3v2l4 5.5c1.09 2.18 14.067 17.5 15 17.5Z"/><path fill="#8AD987" id="CTXsp" d="M105 235h1l-4-4c0 1.429 1.288 4 3 4Z"/><path fill="#97D6F9" id="STR" d="M120 241c0-1.423-1.978-3.544-1-5.5.762-1.524 16.808-3.808 8 5l-2.5 1.5-3.5-1c0 5.202 8.954-.408 10-2.5 2.081-4.162-3-5.164-3-7.5-5.429 0-10.879 3-17 3l4 3 5 4Z"/><path fill="#FE5547" id="PVpo" fill-rule="evenodd" d="M229 275h1c1.579 0 1-2.855 1-4 0-4.734 1-10.644 1-16v-24h-3c0 1.93-1.161 0-2 0h-2c0 1.048.473 3-1 3v20c0 4.93 1 11.436 1 17 0 1.465-.109 4 2 4 .839 0 2-1.93 2 0m-1-3c0 1.186 1 1.186 1 0l-.5-14-.5 3.5V272Z"/><path fill="#97D6F9" id="STR" d="m336 241 2-3.5c-5.618-11.237-19.328 4.5-4 4.5 0 3.521-8.253-3.007-9-4.5-1.86-3.721 4-4.715 4-6.5 5.286 0 10.824 3 17 3 0 2.266-4-.454-4 3-2.33 0-3.227 4-6 4Z"/><path fill="#8AD987" id="CTXsp" d="m355 231-1 1 1-1Z"/><path fill="#A0ED9D" id="EPv" d="M347 240c0 4.221-7 7.046-7 14 0 1.622-.461 5 2 5l5.5-5 13.5-17v-2c0-3.591-3.117-4-6-4l-1 1-1 1c0 1.238-.423 3-2 3 0 2.226-1.774 4-4 4Z"/><path fill="#FF5346" id="MPO" d="M198 253c-2.773 0-3.67 2-6 2 0-5.789-2-10.623-2-16 0-3.801 6.596-1.048 8.5-2 3.034-1.517 5.06-5 8.5-5 0 5.847-1 9.214-1 15l-3 3-2 1c-1.238 0-3 .423-3 2ZM256 251c2.747 0 4.56 4 8 4 0-6.01 3-11.484 3-17-7.043 0-15.731-6-18-6 0 2.613.93 4.36 2 6.5l-1 8.5 5 4h1Z"/><path fill="#8AD987" id="CTXsp" d="m354 232-1 1 1-1ZM351 235v1c1.577 0 2-1.762 2-3-1.747 0-2 .253-2 2Z"/><path fill="#C9C9C9" id="act" d="M120 241h1l3.5 1 2.5-1.5c8.808-8.808-7.238-6.524-8-5-.978 1.956 1 4.077 1 5.5ZM336 241l-2 1c-15.328 0-1.618-15.737 4-4.5l-2 3.5Z"/><path fill="#80BEE2" id="IA" d="M107 235c0 .754 5.157 5 2 5-2.96 0-4-2.399-4-5h2Z"/><path fill="#8AD987" id="CTXsp" d="M117 263c2.58 0 3.211 4 6 4 0-6.609-1.819-7 5-7l-1-2c-2.171 0-6-7.276-6-9-1.664 0-6-1.823-6-4-2.774 0-4-5.798-4-8l-4-2c0 .754 5.157 5 2 5l7 9.5c2.177 4.355-1 6.044-1 9.5l2 3v1Z"/><path fill="#80BEE2" id="IA" d="m346 239 1 1c2.226 0 4-1.774 4-4v-1l-2 1-2 1-1 1v1Z"/><path fill="#8AD987" id="CTXsp" d="m349 236-2 1 2-1Z"/><path fill="#97D6F9" id="STR" d="M113 237c0 2.569 2 4.914 2 8-2.774 0-4-5.798-4-8h2ZM346 239l-4 5c0-2.69 1-4.598 1-7h3v2Z"/><path fill="#8AD987" id="CTXsp" d="m347 237-1 1v-1h1ZM338 264c-1.947 0-2.636 3-5 3 0-3.383 3.313-8-3-8v-2c1.579 0 6-6.722 6-8 1.668 0 6-3.099 6-5l4-5 1 1c0 4.221-7 7.046-7 14 0 1.622-.461 5 2 5l-1 2-1 1-1 1-1 1Z"/><path fill="#97D6F9" id="STR" d="m336 241-2 1 2-1Z"/><path fill="#8599CC" id="PAL" d="M289 251v1c1.529 0 8-3.822 8-5-3.351 0-5.596-3-8-3v7Z"/><path fill="#97D6F9" id="STR" d="m133 245-1 1 1-1Z"/><path fill="#80C0E2" id="AAA" d="M167 273c0 3.684-9.07 9.715-12.5 8l-7.5-4c0-1.75-8.677-9-11-9l-2-3-6-5-1-2c0-4.51 3-7.533 3-10l1-1 1-1 1-1c6.147 0 10.913 4 12 4l2 1c0 1.955 15.156 15 18 15l3 6-1 2Z"/><path fill="#8599CC" id="PAL" d="m168 251 1 3-9-7c3.066 0 4.417-2 7-2v5l1 1Z"/><path fill="#80C0E2" id="AAA" d="m289 274 2.5 3 8 4c3.227 1.614 6.628-4 9.5-4 0-1.89 6.374-6 8-6l3-3 2-2 7-7 1-1v-1c0-4.475-6.224-15.138-12.5-12l-4.5 2-4 4c0 .509-15.05 14-17 14 0 2.079-3 3.187-3 6v3Z"/><path fill="#97D6F9" id="STR" d="m132 246-1 1 1-1Z"/><path fill="#A2B1D8" id="MA" d="M170 258c-2.113 0-1.42 7-5 7-2.844 0-18-13.045-18-15l2-3h11l9 7 1 2v2ZM287 258c0 2.744 1.971 7 5 7 1.95 0 17-13.491 17-14l-1-4h-11c0 1.178-6.471 5-8 5l-1 1-1 1v4Z"/><path fill="#97D6F9" id="STR" d="m131 247-1 1 1-1Z"/><path fill="#8599CC" id="PAL" d="m145 249 2 1 2-3h-5l1 2Z"/><path fill="#E64438" id="HY" d="M203 250c2.124 0 4.436 1 6 1l-3-4-3 3ZM248 250l7 1-5-4-2 3Z"/><path fill="#8599CC" id="PAL" d="m313 247-4 4-1-4h5Z"/><path fill="#97D6F9" id="STR" d="M121 249c0 1.724 3.829 9 6 9 0-4.51 3-7.533 3-10-2.723 0-5.778 1-9 1Z"/><path fill="#E64438" id="HY" d="M232 255c4.552 0 5.307 7 7 7 0-3.303 2-5.115 2-8l-6.5-1-2.5-4v6ZM167 250l1 1-1-1ZM203 250l-2 1 2-1Z"/><path fill="#FF4B3E" id="AHN" d="m217 263-1 6-3.5 4c-5.922 2.961-22.49-3.52-18.5-11.5l4-8.5c1.238 0 3-.423 3-2l2-1c2.124 0 4.436 1 6 1l5 2c0 1.863 3 5.792 3 10Z"/><path fill="#E64438" id="HY" d="M224 254c-4.386 0-4.082 9-7 9 0-4.208-3-8.137-3-10 1.423 0 3.544 1.978 5.5 1l4.5-4v4ZM248 250l-1 1 1-1Z"/><path fill="#FF4B3E" id="AHN" d="M240 265v4l4.5 4c7.426 3.713 21.877-4.746 17.5-13.5l-6-8.5h-1l-7-1-1 1-5 2-1 1c0 2.885-2 4.697-2 8v2l1 1Z"/><path fill="#E64438" id="HY" d="M201 251c-1.238 0-3 .423-3 2 1.238 0 3-.423 3-2ZM259 277h3c0-4.278 3.571-4.035 7.5-6 1.032-.516 5.5-.126 5.5 1.5l-3 2.5h2l2-1 1-1c0-1.197-3-.827-3-6-6.549 0-10-5.899-10-12-3.44 0-5.253-4-8-4l6 8.5c4.377 8.754-10.074 17.213-17.5 13.5l-4.5-4v3l1 5h18ZM288 252h1v-1l-1 1Z"/><path fill="#8599CC" id="PAL" d="m289 252-1 1v-1h1Z"/><path fill="#E64438" id="HY" d="M197 277h18c0-1.145-.579-4 1-4v-4l-3.5 4c-5.922 2.961-22.49-3.52-18.5-11.5l4-8.5c-2.773 0-3.67 2-6 2 0 5.823-2.312 12-9 12v4c5.032 0 11 1.69 11 6h3ZM242 253l-1 1 1-1ZM288 253l-1 1 1-1Z"/><path fill="#FD5547" id="SBPV" d="M225 271c-1.639 0-2.455-2-3.5-2-2.065 0-4.326 4-5.5 4v-4l1-6c2.918 0 2.614-9 7-9 0 4.93 1 11.436 1 17ZM231 271l4.5-2 4.5 3v-7l-1-1v-2c-1.693 0-2.448-7-7-7 0 5.356-1 11.266-1 16Z"/><path fill="#E64438" id="HY" d="M286 257h1v-2l-1 2ZM170 258h1l-1-2v2ZM285 258h1v-1l-1 1Z"/><path fill="#8599CC" id="PAL" d="M286 258h1v-1h-1v1Z"/><path fill="#96A6D3" id="NDB" d="m181 272-1 1c-2.293 0-12 .983-12-2l-3-6c3.58 0 2.887-7 5-7h1c3.585 0 6.014 8 10 8l1 1h1v4h-1l-1 1Z"/><path fill="#A8A9AA" id="V3" d="M228 272h1l-.5-14-.5 3.5V272Z"/><path fill="#E64438" id="HY" d="m285 258-1 1 1-1Z"/><path fill="#96A6D3" id="NDB" d="M289 271c-2.147 0-7.689 2-12 2 0-1.197-3-.827-3-6 3.456 0 7.846-8 10-8l1-1h2c0 2.744 1.971 7 5 7 0 2.079-3 3.187-3 6Z"/><path fill="#97D6F9" id="STR" d="M329 259h1v-1l-1 1Z"/><path fill="#99D2BD" id="OLF" d="m115 259 2 3-3-3h1Z"/><path fill="#84EA80" id="BMAa" d="M130 269h3l1-1v-3l-6-5c-6.819 0-5 .391-5 7 1.835 0 4.235 2 7 2ZM324 269h3c1.745 0 6 .698 6-2 0-3.383 3.313-8-3-8h-1l-7 7 1 2 1 1Z"/><path fill="#99D2BD" id="OLF" d="m341 261-1 1 1-1ZM340 262l-1 1 1-1ZM120 272h7l3-3c-2.765 0-5.165-2-7-2-2.789 0-3.42-4-6-4 0 2.561 3 5.324 3 9ZM339 263l-1 1 1-1Z"/><path fill="#E64438" id="HY" d="m239 264 1 1-1-1Z"/><path fill="#99D2BD" id="OLF" d="M336 271c-2.765 0-5.165 2-7 2l-2-4c1.745 0 6 .698 6-2 2.364 0 3.053-3 5-3l-2 7Z"/><path fill="#97D6F9" id="STR" d="M134 268h2l-2-3v3Z"/><path fill="#E64438" id="HY" d="m181 266 1 1-1-1Z"/><path fill="#97D6F9" id="STR" d="M320 268h3l-1-2-2 2Z"/><path fill="#99D2BD" id="OLF" d="m133 291-2 4c8.602 0 16.652-6 25-6l1-1c0-5.208-10-5.323-10-11 0-1.75-8.677-9-11-9h-2l-1 1c11.632 0 21.087 22 0 22ZM324 269l-7 2 3-3h3l1 1Z"/><path fill="#60E5B7" id="COAa" d="M130 291h3c21.087 0 11.632-22 0-22h-3l-3 3c0 5.909 1 11.579 1 17l2 2Z"/><path fill="#FF5545" id="SCH" d="M219 279h6l1-2 1-1v-1c-2.109 0-2-2.535-2-4-1.639 0-2.455-2-3.5-2-2.065 0-4.326 4-5.5 4-1.579 0-1 2.855-1 4l3 2h1ZM238 279h1l1-1 1-1-1-5-4.5-3-4.5 2c0 1.145.579 4-1 4v1c0 4.002 5.059 3 8 3Z"/><path fill="#60E5B7" id="COAa" d="M324 291h3l1-1c0-5.469 1-12.003 1-17l-2-4h-3l-7 2c0 2.717-4.531 5.563-6 8.5-4.253 8.507 6.351 11.5 13 11.5Z"/><path fill="#59D9AA" id="PAA" d="M113 297h1c0-1.353 4.643-2 6-2h1l2-1 2-1 2-1 1-1v-2c0-5.421-1-11.091-1-17h-7c0 6.618-5.133 15.766-8 21.5l-3 2.5c1.145 0 4-.579 4 1Z"/><path fill="#8599CC" id="PAL" d="M180 275c-1.364 0-6.557 5-12 5 0-1.406.714-7-1-7l1-2c0 2.983 9.707 2 12 2l1 1-1 1Z"/><path fill="#E64438" id="HY" d="m182 271-1 1 1-1Z"/><path fill="#FE5B50" id="SO" d="M189 277h5c0-4.31-5.968-6-11-6h-1l-1 1 4 3 4 2ZM262 277h5c0-1.638 3.576-2 5-2l3-2.5c0-1.626-4.468-2.016-5.5-1.5-3.929 1.965-7.5 1.722-7.5 6Z"/><path fill="#8599CC" id="PAL" d="M289 274c0 1.564-1 3.876-1 6-1.906 0-12-1.397-12-6l1-1c4.311 0 9.853-2 12-2v3Z"/><path fill="#99D2BD" id="OLF" d="m324 291 1 4c-8.631 0-16.512-6-25-6 0-7.358 9-5.822 9-12 0-1.89 6.374-6 8-6 0 2.717-4.531 5.563-6 8.5-4.253 8.507 6.351 11.5 13 11.5Z"/><path fill="#59D9AA" id="PAA" d="M343 297h1c0-1.473 1.952-1 3-1 0-.777-11-18.713-11-25-2.765 0-5.165 2-7 2 0 4.997-1 11.531-1 17l3 3h1l4 2h1l6 2Z"/><path fill="#E64438" id="HY" d="M182 275h3l-4-3-1 1 1 1 1 1ZM228 272h1c0 1.186-1 1.186-1 0Z"/><path fill="#97D6F9" id="STR" d="M168 280c0 3.815-7.824 8-11 8 0-5.208-10-5.323-10-11l7.5 4c3.43 1.715 12.5-4.316 12.5-8 1.714 0 1 5.594 1 7ZM288 280l3 4.5 9 4.5c0-7.358 9-5.822 9-12-2.872 0-6.273 5.614-9.5 4l-8-4-2.5-3c0 1.564-1 3.876-1 6Z"/><path fill="#CAC7CB" id="fiber tracts" d="M180 277h9l-4-2h-5v2Z"/><path fill="#E64438" id="HY" d="M229 276h1v-1h-1v1Z"/><path fill="#CAC7CB" id="fiber tracts" d="M267 277h10c0-1.577-1.762-2-3-2h-2c-1.424 0-5 .362-5 2Z"/><path fill="#CACCCB" id="opt" d="M180 279c5.435 0 11.173 9 19 9v-10l-2-1h-17v2Z"/><path fill="#E64438" id="HY" d="m227 276-1 1 1-1Z"/><path fill="#CAC7CB" id="fiber tracts" d="m225 279 4.5-1c.736.368 8.5 4.508 8.5 1-2.941 0-8 1.002-8-3h-1c0 1.93-1.161 0-2 0l-1 1-1 2Z"/><path fill="#CACCCB" id="opt" d="M275 281c-6.33 0-10.255 7-17 7v-10l1-1h18v2l-1 1-1 1Z"/><path fill="#CAC7CB" id="fiber tracts" d="M180 277c-1.186 0-1.186 1 0 1v-1ZM199 278c6.083 0 13.431 1 19 1l-3-2h-18l2 1Z"/><path fill="#E64438" id="HY" d="m241 277-1 1 1-1Z"/><path fill="#CAC7CB" id="fiber tracts" d="M258 278c-6.083 0-13.431 1-19 1l1-1 1-1h18l-1 1Z"/><path fill="#CBCACC" id="och" d="M228 284c-11.274 0-20.36 4-29 4v-10c6.083 0 13.431 1 19 1h1c0 1.587 6 1.587 6 0l4.5-1c.736.368 8.5 4.508 8.5 1h1c5.569 0 12.917-1 19-1v10c-7.648 0-14.586-4-22.5-4-1.901 0-7.5-.446-7.5 0Z"/><path fill="#CAC7CB" id="fiber tracts" d="M228 284c-11.274 0-20.36 4-29 4-7.827 0-13.565-9-19-9 0 10.96 28.372 11.564 35.5 8 1.991-.995 12.5.046 12.5-3ZM219 279h6c0 1.587-6 1.587-6 0ZM277 279l-1 1 1-1ZM276 280l-1 1 1-1ZM228 284c0-.446 5.599 0 7.5 0 7.914 0 14.852 4 22.5 4 6.745 0 10.67-7 17-7 0 3.586-6.885 4.692-9.5 6-8.228 4.114-21.612 3.194-30-1h-5l-2.5-2Z"/><path fill="#97D6F9" id="STR" d="m157 288-1 1 1-1Z"/><path fill="#99D2BD" id="OLF" d="M128 291h2l-2-2v2ZM327 291l4 2-3-3-1 1ZM128 291l-1 1 1-1Z"/><path fill="#CAC8C7" id="lot" d="M131 295c-3.446 0-6.77 2-11 2v-2h1l2-1 2-1 2-1 1-1h5l-2 4ZM328 296c2.723 0 5.778 1 9 1v-2h-1l-4-2h-1l-4-2h-3l1 4h2l1 1Z"/><path fill="#99D2BD" id="OLF" d="m127 292-2 1 2-1ZM125 293l-2 1 2-1ZM332 293l4 2-4-2ZM123 294l-2 1 2-1ZM114 297c0 2.112 4.643 0 6 0v-2c-1.357 0-6 .647-6 2ZM327 295l1 1-1-1ZM337 297c.986 0 6 2.515 6 0l-6-2v2ZM109 296c1.145 0 4-.579 4 1-1.321 0-6 .684-6-1h2ZM349 296c0 1.643-3.765 1-5 1 0-1.473 1.952-1 3-1h2Z"/></svg>