<svg xmlns="http://www.w3.org/2000/svg" viewBox="0 0 456 320"><path fill="#99D2BD" id="OLF" d="M170 129c3.352 0-3 10.762-3 13l8.5-9c5.465-5.465 13.421-8.71 20-12 4.731-2.366 15.179-2.41 20 0l6.5 5 1-1c0-3.415-4.768-4.634-7.5-6-12.678-6.339-25.645-1.677-37 4-1.911.955-8.5 2.632-8.5 6ZM285 128c0 5.852 5 9.471 5 15l-7.5-9-21-13c-3.559-1.779-14.306-2.847-18-1-2.531 1.266-6.325 5-8.5 5h-2c0-2.675 5.266-4.883 7.5-6 10.822-5.411 23.874-3.063 34 2 2.09 1.045 10.5 3.734 10.5 7Z"/><path fill="#9AD1BD" id="MOB" d="M227 156c-2.064 0-.426 3.353-1 4.5-1.641 3.281-3 9.78-3 13.5 0 18.194-8.667 65.417-35.5 52-8.794-4.397-6.031-17.562-9.5-24.5-5.256-10.511-7.702-22.404-13-33-1.574-3.147-.373-7.747-2-11-2.352-4.703 3-10.546 3-14.5l1-1 8.5-9c5.465-5.465 13.421-8.71 20-12 4.731-2.366 15.179-2.41 20 0l6.5 5 5 10v20ZM233 175l1 1c0 7.783.642 20.784 4 27.5 7.237 14.473 11.492 32.004 32.5 21.5 5.227-2.613 4.326-13.152 6.5-17.5 2.279-4.557 1.754-10.509 4-15l10-23c1.306-2.612.642-6.284 2-9 1.441-2.882-.37-17.5-3-17.5l-7.5-9-21-13c-3.559-1.779-14.306-2.847-18-1-2.531 1.266-6.325 5-8.5 5 0 3.652-5 7.407-5 12l-1 1v15c2.144 0 .381 4.262 1 5.5 1.844 3.689 3 10.231 3 14.5v2Z"/><path fill="#C7CBCA" id="onl" d="m222 126 5 10c0-3.143 1.954-11-4-11l-1 1ZM229 137h1c0-4.593 5-8.348 5-12h-2c-5.399 0-4 8.277-4 12Z"/><path fill="#C7CBCA" id="onl" d="M163 222c0 7.419 14.391 19.554 21.5 16 1.817-.908 6.032-2 8-2 6.515 0 12.012 1.994 18-1 4.233-2.117 12.084-14.667 14.5-19.5 1.5-3 1.45-6.9 3-10l.5-2.5 2.5 11.5c2.741 5.482 9.322 17.411 15.5 20.5 5.993 2.997 11.012 1 17.5 1 1.698 0 5.89 1.195 7.5 2 6.688 3.344 21.5-7.884 21.5-15 0-8.99.782-20.064 5-28.5l1-37.5v-1c-1.012 0-2-10.504-2-12v-2l-1-2v-1l-1-1v-1l-1-1-1-2-1-1-5-4-1-1h-1c0 5.852 5 9.471 5 15 2.63 0 4.441 14.618 3 17.5-1.358 2.716-.694 6.388-2 9l-10 23c-2.246 4.491-1.721 10.443-4 15-2.174 4.348-1.273 14.887-6.5 17.5-21.008 10.504-25.263-7.027-32.5-21.5-3.358-6.716-4-19.717-4-27.5l-1-1v-2h-4l-.5 10c-1.325 0-1.5-9.457-1.5-11-2.424 0-2.76 2-4 2 0 18.194-8.667 65.417-35.5 52-8.794-4.397-6.031-17.562-9.5-24.5-5.256-10.511-7.702-22.404-13-33-1.574-3.147-.373-7.747-2-11-2.352-4.703 3-10.546 3-14.5l1-1c0-2.238 6.352-13 3-13-1.763 0-7 4.012-7 6l-1 1-1 3-1 1v1c0 1.048.473 3-1 3v2c0 1.235.643 5-1 5 0 6.965-2.334 34.833 0 39.5 3.022 6.043 5 23.46 5 31.5Z"/><path fill="#99D2BD" id="OLF" d="m286 128 1 1-1-1ZM292 133l1 1-1-1ZM163 135l-1 1 1-1ZM294 136l1 1-1-1ZM230 137l-1 1v-1h1ZM295 138l1 1-1-1ZM161 139l-1 1 1-1ZM296 140l1 2-1-2ZM160 141c-1.473 0-1 1.952-1 3 1.473 0 1-1.952 1-3ZM167 142l-1 1 1-1ZM297 144c2.238 0 2 9.802 2 12-1.012 0-2-10.504-2-12ZM159 146c-1.643 0-1 3.765-1 5 1.643 0 1-3.765 1-5ZM158 151c-1.665 0-1 4.222-1 5.5 0 1.84-1.294 13.587-2 15-1.795 3.59-8.91 33.18-7 37 1.098 2.196 7.013 5.757 8.5 6.5l6.5 7c0-8.04-1.978-25.457-5-31.5-2.334-4.667 0-32.535 0-39.5ZM229 173h4c0-4.269-1.156-10.811-3-14.5-.619-1.238 1.144-5.5-1-5.5v20ZM227 172c-2.424 0-2.76 2-4 2 0-3.72 1.359-10.219 3-13.5.574-1.147-1.064-4.5 1-4.5v16ZM299 157c1.643 0 1 3.765 1 5 0 2.256.909 10.318 2 12.5 1.529 3.058 8.387 29.226 7 32l-8.5 8.5-7.5 8c0-8.99.782-20.064 5-28.5l1-37.5ZM233 175l1 1-1-1Z"/></svg>