<svg xmlns="http://www.w3.org/2000/svg" viewBox="0 0 456 320"><path fill="#1E9C59" id="MOs1" d="M119 99c0 1.766-1.716 5 1 5l7.5-9c10.458-5.229 17.831-12.915 28-18 8.419-4.21 38.116-12.942 48-8 3.707 1.854 9.331 9 12.5 9 0-1.916 3-.07 3-3 0-10.954-20.601-14-29-14-16.641 0-33.518 9.009-47.5 16l-8 6c-4.093 2.046-15.5 10.825-15.5 16ZM338 99c0 2.275-1 3.514-1 6-.899 0-11.374-13.437-14.5-15l-17-11c-7.188-3.594-15.77-4.385-23-8-9.951-4.975-24.587-3.707-34 1l-7.5 6-4-3c0-9.812 20.122-14 29-14 16.669 0 34.459 8.98 48.5 16l10 8c3.172 1.586 13.5 10.157 13.5 14Z"/><path fill="#1E9D58" id="MOs2/3" d="M120 105c0 8.216 2 20.953 2 32 .641 0 2.347-11.195 3-12.5 3.703-7.406 14.522-23.511 22.5-27.5l22-12c6.228-3.114 13.782-3.89 20-7 6.954-3.477 18.429 5 20.5 5 2.33 0 3.227-4 6-4v-1c-3.169 0-8.793-7.146-12.5-9-9.884-4.942-39.581 3.79-48 8-10.169 5.085-17.542 12.771-28 18l-7.5 9v1ZM337 106c-2.207 0-.338 5.176-1 6.5-2.231 4.463 1.578 9.844-1 15-.703 1.406 1.261 7.5-1 7.5 0-6.663-4.229-10.957-7-16.5-10.206-20.412-31.234-28.367-49.5-37.5l-11-3c-7.303-3.652-15.76 5-20.5 5l-5-4v-1l7.5-6c9.413-4.707 24.049-5.975 34-1 7.23 3.615 15.812 4.406 23 8l17 11c3.126 1.563 13.601 15 14.5 15v1Z"/><path fill="#3EA665" id="ACAd1" d="m228 91-6 2c0-2.044-4.126-14-6-14v-1c0-1.916 3-.07 3-3 2.814 0 9 13.505 9 16ZM229 91l6 2c0-2.672 2.759-14 6-14v-1l-4-3c-1.385 0-8 13.494-8 16Z"/><path fill="#1F9D58" id="MOs5" d="M122 139c.076 0 3 11.118 3 12 6.98 0 15.912-13 21-13v-1c0-14.816 18.002-26.251 29.5-32l12-3c1.19 0 4.5-.614 4.5 1h1l2-1c0-2.686 9.727-13.114 11.5-14l3.5-4v-1c-2.071 0-13.546-8.477-20.5-5-6.218 3.11-13.772 3.886-20 7l-22 12c-7.978 3.989-18.797 20.094-22.5 27.5-.653 1.305-2.359 12.5-3 12.5v2ZM334 143c-.249 0-3 7.222-3 8-6.683 0-16.473-14-21-14 0-18.078-21.295-27.397-34.5-34-3.435-1.717-8.453 0-11.5 0h-1l-2-1c0-1.379-13.823-18-15-18v-1c4.74 0 13.197-8.652 20.5-5l11 3c18.266 9.133 39.294 17.088 49.5 37.5 2.771 5.543 7 9.837 7 16.5v8Z"/><path fill="#40A565" id="ACAd2/3" d="m222 93-7 2c0-2.46-1.969-11-5-11v-1c2.33 0 3.227-4 6-4 1.874 0 6 11.956 6 14ZM235 93l6 2c0-1.952 2.832-11 5-11v-1l-5-4c-3.241 0-6 11.328-6 14Z"/><path fill="#3EA566" id="ACAd5" d="M215 96c-5.767 0-9.401 5-15 5-1.076 0-5 2.84-5 1 0-2.686 9.727-13.114 11.5-14l3.5-4c3.031 0 5 8.54 5 11v1ZM241 95c6.876 0 12.373 7 20 7 0-1.379-13.823-18-15-18-2.168 0-5 9.048-5 11Z"/><path fill="#2FA750" id="PL1" d="M223 130h10l2-37-6-2h-1l-6 2 1 37Z"/><path fill="#2FA74F" id="PL2/3" d="M219 130h4l-1-37-7 2v1c2.144 0 .381 4.262 1 5.5 2.928 5.856 3 20.18 3 27.5v1ZM233 130h4v-1c0-11.916 4-22.547 4-34l-6-2-2 37Z"/><path fill="#2EA84F" id="PL5" d="M254 123c-3.225 0-10.9 6-17 6 0-11.916 4-22.547 4-34 6.876 0 12.373 7 20 7l2 1c-7.427 0-9 14.778-9 20ZM203 124c5.424 0 9.914 5 16 5 0-7.32-.072-21.644-3-27.5-.619-1.238 1.144-5.5-1-5.5-5.767 0-9.401 5-15 5-1.076 0-5 2.84-5 1l-2 1c6.918 0 10 14.562 10 20v1Z"/><path fill="#1E9D5A" id="MOp1" d="m111 159-4 3c-3.421 0-2.862-12.225-4-14.5-6.298-12.597 2.706-27.412 8-38 .981-1.961 5.324-10.5 8-10.5 0 1.766-1.716 5 1 5v1c-2.364 0-6.034 9.568-7 11.5-2.717 5.434-9.612 21.775-6 29 1.688 3.376 4 9.669 4 13.5ZM345 159l5 3c0-4.369 3.004-13.509 5-17.5 4.04-8.08-4.951-25.901-8-32-1.052-2.104-6.613-13.5-9-13.5 0 2.275-1 3.514-1 6v1l6 8.5c2.427 4.853 3.604 10.208 6 15 4.62 9.24-4 21.858-4 29.5Z"/><path fill="#1D9C5A" id="MOs6a" d="M161 132c-5.684 0-12.144 5-15 5 0-14.816 18.002-26.251 29.5-32l12-3c1.19 0 4.5-.614 4.5 1 0 2.909-5 4.795-5 8-9.327 0-22 4.467-22 14 0 2.83-4 4.54-4 7ZM296 133c0-2.953 10.027.527 11 1.5l3 2.5c0-18.078-21.295-27.397-34.5-34-3.435-1.717-8.453 0-11.5 0l6 8c7.524 0 12.339 2.919 18.5 6 .813.407 5.936 8 2.5 8 0 1.251 4.19 8 5 8Z"/><path fill="#2FA850" id="PL6a" d="M191 116c4.407 0 7.293 7 12 7 0-5.438-3.082-20-10-20h-1c0 2.909-5 4.795-5 8l4 5ZM265 116c-3.725 0-6.956 7-11 7 0-5.222 1.573-20 9-20h1l6 8-4 4-1 1Z"/><path fill="#1F9C58" id="MOp2/3" d="M111 159h1c4.095 0 6.701-6 11-6v-1l-1-13v-1c-1.186 0-1.186-1 0-1 0-11.047-2-23.784-2-32-2.364 0-6.034 9.568-7 11.5-2.717 5.434-9.612 21.775-6 29 1.688 3.376 4 9.669 4 13.5ZM344 159h1c0-7.642 8.62-20.26 4-29.5-2.396-4.792-3.573-10.147-6-15l-6-8.5c-2.207 0-.338 5.176-1 6.5-2.231 4.463 1.578 9.844-1 15-.703 1.406 1.261 7.5-1 7.5v1c1.486 0 1.486 3 0 3v2c1.186 0 1.186 1 0 1v1c0 3.222-1 6.277-1 9v1c4.14 0 7.316 6 11 6Z"/><path fill="#268E44" id="FRP6a" d="M183 117c2.409 0 5.181 1 7 1l1-2-4-5c-9.327 0-22 4.467-22 14 6.586 0 11.371-8 18-8ZM274 117l17 8c3.436 0-1.687-7.593-2.5-8-6.161-3.081-10.976-6-18.5-6l-4 4-1 1v3c1.477 0 5.699-2 9-2Z"/><path fill="#22885E" id="ORBm6a" d="m266 115-1 1 1-1ZM203 124c0 4.067.936 9-4 9l-9-15 1-2c4.407 0 7.293 7 12 7v1ZM257 134h1l7-15v-3c-3.725 0-6.956 7-11 7l-1 7.5 4 3.5Z"/><path fill="#24895D" id="ORBl6a" d="M179 134c-10.754 0-17.998 15-25 15 0-6.078 7-11.414 7-17 0-2.46 4-4.17 4-7 6.586 0 11.371-8 18-8l-4 16v1Z"/><path fill="#238A5C" id="ORBvl6a" d="M199 133v1l-20-1 4-16c2.409 0 5.181 1 7 1l9 15ZM277 133l-19 1 7-15c1.477 0 5.699-2 9-2l3 16Z"/><path fill="#24895D" id="ORBl6a" d="M296 133c0 5.254 6 10.199 6 16-6.042 0-15.937-16-25-16l-3-16 17 8c0 1.251 4.19 8 5 8Z"/><path fill="#23885E" id="ORBm5" d="M242 165h1c0-9.121 14-23.299 14-31l-4-3.5 1-7.5c-3.225 0-10.9 6-17 6v27.5l2 6 3 2.5ZM214 165h1l4-6.5c2.706-5.413 0-22.548 0-28.5v-1c-6.086 0-10.576-5-16-5 0 4.067.936 9-4 9v1l15 31Z"/><path fill="#24885D" id="ORBm2/3" d="M215 165c0 1.85 1.784 9 4 9 3.79 0 3.017-6.533 4-8.5 5.057-10.114 0-24.44 0-35.5h-4c0 5.952 2.706 23.087 0 28.5l-4 6.5Z"/><path fill="#23895D" id="ORBm1" d="M229 180c2.278 0 4.847 1 7 1l1-6-4-6.5c-.867-1.734-.08-4.161-1-6l1-32.5h-10c0 11.06 5.057 25.386 0 35.5-.983 1.967-.21 8.5-4 8.5v1l2 6c0 3.514 6.392-2 7-2 0-3.177 1-1.079 1 1Z"/><path fill="#24885D" id="ORBm2/3" d="M237 175h1c0-3.729 4-6.102 4-10l-3-2.5-2-6V130h-4l-1 32.5c.92 1.839.133 4.266 1 6l4 6.5Z"/><path fill="#209666" id="AId6a" d="M153 149h1c0-6.078 7-11.414 7-17-5.684 0-12.144 5-15 5v1c0 4.268 1.719 11 7 11ZM302 149h1c6.201 0 7-6.52 7-12l-3-2.5c-.973-.973-11-4.453-11-1.5 0 5.254 6 10.199 6 16Z"/><path fill="#23885C" id="ORBvl5" d="M183 150c11.776 0 19.749 15 31 15l-15-31-20-1v1c0 1.496 2.204 16 4 16ZM273 151h1c0-5.903 3-11.297 3-18l-19 1h-1c0 7.701-14 21.879-14 31 7.327 0 15.011-8.755 21.5-12 1.161-.58 8.5-4.027 8.5-2Z"/><path fill="#228A5D" id="ORBl5" d="M307 160c0 5.925 4 10.609 4 17-6.633 0-28.316-26-37-26 0-5.903 3-11.297 3-18 9.063 0 18.958 16 25 16h1l3 9 1 1v1ZM149 160l-4 17c6.3 0 29.319-26 38-26v-1c-1.796 0-4-14.504-4-16-10.754 0-17.998 15-25 15h-1c0 3.303-2 5.115-2 8l-1 1-1 2Z"/><path fill="#1E9D58" id="MOs2/3" d="M334 136c1.486 0 1.486 3 0 3v-3ZM122 137c-1.186 0-1.186 1 0 1v-1Z"/><path fill="#209665" id="AId5" d="M319 178h1c0-3.474 13-17.729 13-25v-1l-2-1c-6.683 0-16.473-14-21-14 0 5.48-.799 12-7 12l3 9 1 1v1c1.988 0 2.408 3.315 3 4.5 1.97 3.939 9 9.902 9 13.5ZM149 160c-1.94 0-8.742 17-12 17-2.671 0-14-20.74-14-24v-1l2-1c6.98 0 15.912-13 21-13 0 4.268 1.719 11 7 11 0 3.303-2 5.115-2 8l-1 1-1 2Z"/><path fill="#1E9C5A" id="MOp5" d="m125 151-2 1-1-13c.076 0 3 11.118 3 12Z"/><path fill="#1E9D58" id="MOs2/3" d="M334 141c1.186 0 1.186 1 0 1v-1Z"/><path fill="#1E9C5A" id="MOp5" d="m331 151 2 1c0-2.723 1-5.778 1-9-.249 0-3 7.222-3 8Z"/><path fill="#248A5D" id="ORBvl2/3" d="M219 174v1c-1.423 0-3.544 1.978-5.5 1-4.232-2.116-23.562-13-26.5-13v-1c0-4.101-4-7.386-4-11v-1c11.776 0 19.749 15 31 15h1c0 1.85 1.784 9 4 9ZM242 165h1c7.327 0 15.011-8.755 21.5-12 1.161-.58 8.5-4.027 8.5-2 0 4.082-4 7.63-4 12-4.471 0-17.698 9.599-22.5 12-1.108.554-8.5 1.973-8.5 0 0-3.729 4-6.102 4-10Z"/><path fill="#238A5E" id="ORBl2/3" d="M145 177c0 2.409 1 5.181 1 7l13.5-11c10.144-5.072 14.943-11 27.5-11 0-4.101-4-7.386-4-11-8.681 0-31.7 26-38 26ZM312 177c0 .986-1.087 6-2 6-5.562 0-10.444-9.472-15.5-12-13.729-6.864-9.515-8-25.5-8 0-4.37 4-7.918 4-12h1c8.684 0 30.367 26 37 26h1Z"/><path fill="#209765" id="AId2/3" d="M137 178c-3.287 0-4.332 7-8 7-1.76 0-3.394-4.288-4-5.5-2.992-5.985-13-13.696-13-20.5 4.095 0 6.701-6 11-6 0 3.26 11.329 24 14 24v1ZM320 178c2.262 0 4.05 7 7 7 2.109 0 17-23.215 17-26-3.684 0-6.86-6-11-6 0 7.271-13 21.526-13 25Z"/><path fill="#1F9865" id="AIv5" d="m151 157-1 1 1-1ZM150 158l-1 2 1-2ZM306 158l1 1-1-1Z"/><path fill="#209764" id="AId1" d="m129 186-5 3c0-3.403-17-18.446-17-27l4-3h1c0 6.804 10.008 14.515 13 20.5.606 1.212 2.24 5.5 4 5.5v1ZM327 186l5 3c1.532 0 18-23.56 18-27l-5-3h-1c0 2.785-14.891 26-17 26v1Z"/><path fill="#1F9865" id="AIv5" d="m145 177-8 1v-1c3.258 0 10.06-17 12-17l-4 17ZM312 177c1.819 0 4.591 1 7 1 0-3.598-7.03-9.561-9-13.5-.592-1.185-1.012-4.5-3-4.5 0 5.925 4 10.609 4 17h1Z"/><path fill="#238A5D" id="ORBl1" d="M146 185c1.481 0 .785 2 3 2 3.555 0 6.154-6.327 9.5-8 9.616-4.808 15.856-12 28.5-12v-5c-12.557 0-17.356 5.928-27.5 11L146 184v1ZM310 184l-2 3c-4.566 0-8.519-8.01-12.5-10-9.062-4.531-15.402-10-26.5-10v-4c15.985 0 11.771 1.136 25.5 8 5.056 2.528 9.938 12 15.5 12v1Z"/><path fill="#248A5B" id="ORBvl1" d="M219 181h2l-2-6c-1.423 0-3.544 1.978-5.5 1-4.232-2.116-23.562-13-26.5-13v4c5.918 0 11.489 5.495 16.5 8l5.5 3h1l1 1h3l1 1h1l1 1h2ZM237 181h2l2-1 2-1h2l1-1h1l5.5-3c4.575-2.288 11.255-8 16.5-8v-4c-4.471 0-17.698 9.599-22.5 12-1.108.554-8.5 1.973-8.5 0h-1l-1 6h1Z"/><path fill="#99D2BD" id="OLF" fill-rule="evenodd" d="m137 200-2 2.5c-5.194 10.388 12.867-2.5 2-2.5m6 13-2 2-3.5-3c-6.314-6.314-2.5-8.224-2.5-16 2.601 0 14-6.05 14-9 3.555 0 6.154-6.327 9.5-8 9.616-4.808 15.856-12 28.5-12 5.918 0 11.489 5.495 16.5 8l5.5 3c-2.061 0-4 .902-4 3-1.844 0-15.152-8.326-18.5-10-6.851-3.425-13.21 3.605-18 6-9.286 4.643-21.32 14.139-25.5 22.5V213ZM317 199v3.5c0 11.571 9.269-3.5 0-3.5m-4 14 2 2 2.5-2c8.995-4.497 3.5-10.291 3.5-17 0-1.951-2.454-.477-3.5-1-1.846-.923-9.5-5.576-9.5-8-4.566 0-8.519-8.01-12.5-10-9.062-4.531-15.402-10-26.5-10-5.245 0-11.925 5.712-16.5 8l-5.5 3c2.554 0 3.688 3 5 3 1.135 0 15.156-8.828 17.5-10 9.941-4.97 39.528 19.556 43.5 27.5 2.063 4.127 0 10.658 0 14.5Z"/><path fill="#54BF94" id="AON" fill-rule="evenodd" d="M265 194c0 1.624 1.748 7.004 1 8.5-1.324 2.648-2 6.919-2 10l1.5 6.5 4.5-4.5c1.117-2.234 7.855-17.291 7-19-1.421-2.843-9.212-1.5-12-1.5m-85 0c0 4.979 2.246 15.746 6.5 20 .785.785 2.067 5.967 4 5 4.188-2.094.5-14.628.5-18l1-5.5c-1.421-2.843-9.212-1.5-12-1.5m101 51c-5.616 0-10.93 9-17 9 0-12.341-10.266-20.383-19.5-25-5.297-2.649-12.578 3-15.5 3 0-3.746-.8 0-2 0-2.767 0-9.379-5.56-14.5-3-9.384 4.692-20.5 13.216-20.5 25-5.745 0-10.798-9-16-9l-1-1c0-4.506-4.191-4.882-6-8.5-3.077-6.154-18.507-22.5-26-22.5v-13.5c4.18-8.361 16.214-17.857 25.5-22.5 4.79-2.395 11.149-9.425 18-6 3.348 1.674 16.656 10 18.5 10 0 2.188 7.534 17.567 9 20.5.741 1.483 2.391 5.5 4 5.5 0 1.74 10.248 10 10.5 10l3-4c2.938-1.469 6.5-1.841 6.5-6l4-4.5c.943-1.885 10-21.345 10-21.5 1.135 0 15.156-8.828 17.5-10 9.941-4.97 39.528 19.556 43.5 27.5 2.063 4.127 0 10.658 0 14.5-6.253 0-32 25.255-32 31v1Z"/><path fill="#219764" id="AIv2/3" d="M146 185c-2.827 0-4.163 2.831-6.5 4-4.494 2.247-7.565-3-10.5-3v-1c3.668 0 4.713-7 8-7l8-1c0 2.409 1 5.181 1 7v1ZM327 185v1c0 5.549-11.5 2-13.5 1l-3.5-3v-1c.913 0 2-5.014 2-6 1.819 0 4.591 1 7 1h1c2.262 0 4.05 7 7 7Z"/><path fill="#61D09F" id="TTd" d="m219 181 4 3.5c1.898 3.795 5.688 20.906.5 23.5-1.956.978-4.077-1-5.5-1-1.609 0-3.259-4.017-4-5.5-1.466-2.933-9-18.312-9-20.5 0-2.098 1.939-3 4-3h1l1 1h3l1 1h1l1 1h2Z"/><path fill="#99D2BD" id="OLF" d="m210 178 1 1-1-1ZM246 178l-1 1 1-1Z"/><path fill="#61D09F" id="TTd" d="M252 181c0 .155-9.057 19.615-10 21.5l-4 4.5c-2.638 0-3.547 1.476-6.5 0-1.645-.823.254-19.009 1.5-21.5l4-4.5h2l2-1 2-1h2l1-1h1c2.554 0 3.688 3 5 3Z"/><path fill="#99D2BD" id="OLF" d="m214 179 1 1-1-1ZM218 207c0 1.74 10.248 10 10.5 10l3-4c2.938-1.469 6.5-1.841 6.5-6-2.638 0-3.547 1.476-6.5 0-1.645-.823.254-19.009 1.5-21.5l4-4.5h-1c-2.153 0-4.722-1-7-1l-.5 33-.5-8v-26c-.608 0-7 5.514-7 2h-2l4 3.5c1.898 3.795 5.688 20.906.5 23.5-1.956.978-4.077-1-5.5-1ZM243 179l-2 1 2-1ZM216 180l1 1-1-1ZM241 180l-2 1 2-1Z"/><path fill="#209864" id="AIv1" d="M332 189c0 5.003-7.076 7-11 7 0-1.951-2.454-.477-3.5-1-1.846-.923-9.5-5.576-9.5-8l2-3 3.5 3c2 1 13.5 4.549 13.5-1l5 3ZM124 189c0 4.881 7.223 7 11 7 2.601 0 14-6.05 14-9-2.215 0-1.519-2-3-2-2.827 0-4.163 2.831-6.5 4-4.494 2.247-7.565-3-10.5-3l-5 3Z"/><path fill="#CBCBC7" id="aco" d="M180 194c0 4.979 2.246 15.746 6.5 20 .785.785 2.067 5.967 4 5 4.188-2.094.5-14.628.5-18l1-5.5c-1.421-2.843-9.212-1.5-12-1.5ZM265 194c0 1.624 1.748 7.004 1 8.5-1.324 2.648-2 6.919-2 10l1.5 6.5 4.5-4.5c1.117-2.234 7.855-17.291 7-19-1.421-2.843-9.212-1.5-12-1.5Z"/><path fill="#6ACAB9" id="PIR" d="M317 199v3.5c0 11.571 9.269-3.5 0-3.5ZM137 200l-2 2.5c-5.194 10.388 12.867-2.5 2-2.5Z"/><path fill="#CAC8C7" id="lot" d="M141 215v3.5c1.222 2.444 6.852 2.703 8 5 2.132 4.263 21.251 20.5 26 20.5 0-4.506-4.191-4.882-6-8.5-3.077-6.154-18.507-22.5-26-22.5l-2 2ZM281 244h1c9.39 0 16.319-15.409 23.5-19 2.906-1.453 8.801-4.101 10.5-7.5l-1-2.5-2-2c-6.253 0-32 25.255-32 31Z"/><path fill="#62CF9E" id="TTv" d="M227 232c-2.767 0-9.379-5.56-14.5-3-9.384 4.692-20.5 13.216-20.5 25 0 1.082 15.159 8.171 17.5 7 9.864-4.932 17.5-18.671 17.5-29ZM229 232c2.922 0 10.203-5.649 15.5-3 9.234 4.617 19.5 12.659 19.5 25 0 1.372-15.272 8.114-17.5 7-9.324-4.662-17.5-19.241-17.5-29Z"/><path fill="#99D2BD" id="OLF" d="m175 244 1 1-1-1ZM282 244l-1 1v-1h1Z"/></svg>