<svg xmlns="http://www.w3.org/2000/svg" viewBox="0 0 456 320"><path fill="#1E9C59" id="MOs1" d="M223 61c0 4.888-2-.027-2 3l-6.5-7c-5.479-2.74-10.443-7-18-7-7.4 0-19.608 1.804-26 5l-9.5 4h-1v-6l14.5-6h5c11.914-5.957 43.5-1.016 43.5 14ZM233 61c0 1.54 1.342 3 3 3l5.5-7c5.9-2.95 10.914-7 18-7 7.513 0 20.489 1.745 27 5 2.922 1.461 6.023 4 9.5 4v-6c-.847 0-12.917-5.209-14.5-6-10.755-5.377-38.695-3.11-44.5 8.5-1.213 2.426-4 3.03-4 5.5Z"/><path fill="#1E9D58" id="MOs2/3" d="M214 68c-.176 0-13.975-10.262-20.5-7-2.453 1.227-32.416 14-32.5 14-2.578 0 .46-2.58 0-3.5-1.571-3.143 0-8.02 0-12.5l9.5-4c6.392-3.196 18.6-5 26-5 7.557 0 12.521 4.26 18 7l6.5 7v1l-7 3ZM243 69c0-5.859 8.171-5.335 11.5-7 13.029-6.514 32.274 14 41.5 14V59c-3.477 0-6.578-2.539-9.5-4-6.511-3.255-19.487-5-27-5-7.086 0-12.1 4.05-18 7l-5.5 7v1c2.773 0 3.67 4 6 4h1Z"/><path fill="#1E9D5A" id="MOp1" d="M99 89c0 1.564 1 3.876 1 6l7.5-7c9.247-4.624 16.812-12.406 26-17l21-10c1.319-.66 5.5.334 5.5-2v-6c-4.444 0-9.664 4.082-13.5 6-11.091 5.546-25.851 10.85-35 20-2.229 2.23-12.5 6.375-12.5 10ZM357 88v7c-2.364 0-10.658-10.079-14.5-12-12.633-6.317-32.355-23-46.5-23v-7c11.521 0 37.35 20.425 48.5 26 1.983.992 12.5 6.924 12.5 9Z"/><path fill="#1F9C58" id="MOp2/3" d="m105 119-1 1c-2.662 0 .662-7-2-7 0-3.223-2-10.867-2-17v-1l7.5-7c9.247-4.624 16.812-12.406 26-17l21-10c1.319-.66 5.5.334 5.5-2h1c0 4.48-1.571 9.357 0 12.5.46.92-2.578 3.5 0 3.5l-1 2c-6.264 0-25.806 14.653-32.5 18l-9 8-13.5 16ZM352 121h1c0-1.949-.991-8 2-8 0-2.81-.988-7.523 1-11.5.574-1.147-1.064-4.5 1-4.5v-2c-2.364 0-10.658-10.079-14.5-12-12.633-6.317-32.355-23-46.5-23v16l11.5 7c11.151 5.576 29.068 13.635 35.5 26.5 1.968 3.936 9 6.886 9 11.5Z"/><path fill="#1F9D58" id="MOs5" d="M197 85h1c0-1.905 14.465-16 16-16v-1c-.176 0-13.975-10.262-20.5-7-2.453 1.227-32.416 14-32.5 14l-1 2v20c5.774 0 21.671-10.085 27.5-13 1.492-.746 9.5-2.662 9.5 1Z"/><path fill="#3EA665" id="ACAd1" d="M223 96c3.642 0 8.002 1 11 1V73.5c0-1.66.443-8.5 2-8.5v-1c-1.658 0-3-1.46-3-3-2.37 0-3.725 7-4.5 7-2.418 0-2.179-7-5.5-7 0 4.888-2-.027-2 3v1c0 2.613.93 4.36 2 6.5V96Z"/><path fill="#1F9D58" id="MOs5" d="M259 85c0-1.882 6.745-2.877 8.5-2 5.067 2.534 24.183 14 28.5 14V76c-9.226 0-28.471-20.514-41.5-14-3.329 1.665-11.5 1.141-11.5 7 0 2.852 15 10.44 15 16h1Z"/><path fill="#40A565" id="ACAd2/3" d="M217 97h5l1-1V71.5c-1.07-2.14-2-3.887-2-6.5l-7 3v1c1.183 0 1.535 3.57 2 4.5 2.893 5.786 1 16.72 1 23.5ZM234 97c2.124 0 4.436 1 6 1V73.5l2-4.5c-2.33 0-3.227-4-6-4-1.557 0-2 6.84-2 8.5V97Z"/><path fill="#3EA566" id="ACAd5" d="M217 98c-5.804 0-11.671 7-15 7 0-3.137-1.089-20-4-20 0-1.905 14.465-16 16-16 1.183 0 1.535 3.57 2 4.5 2.893 5.786 1 16.72 1 23.5v1ZM240 98c5.748 0 9.816 7 15 7V91.5c.579-1.157 3-5.49 3-6.5 0-5.56-15-13.148-15-16h-1l-2 4.5V98Z"/><path fill="#1E9C5A" id="MOp5" d="m346 169 3 1 2-13c0-3.994.537-25.427 0-26.5l-2-1 3-3V121c0-4.614-7.032-7.564-9-11.5-6.432-12.865-24.349-20.924-35.5-26.5L296 76v21h1c3.055 0 11.391 6.445 14.5 8 31.225 15.612 34.5 29.06 34.5 64ZM111 169l-4 1c0-4.636-2-8.919-2-13 0-3.88-2.336-11.827 0-16.5 1.268-2.537 2-3.468 2-6 0-3.938-3-9.369-3-13.5v-1l1-1 13.5-16 9-8c6.694-3.347 26.236-18 32.5-18v20c-4.849 0-11.212 5.856-15.5 8-13.66 6.83-24.442 15.383-31.5 29.5-1.922 3.843-1.06 9.12-3 13l1 21.5Z"/><path fill="#1D9C5A" id="MOs6a" d="M161 119h2c0-5.061 17.484-8 22-8 0-8.103 12-21.796 12-26 0-3.662-8.008-1.746-9.5-1-5.829 2.915-21.726 13-27.5 13 0 7.249 1 14.72 1 22ZM295 119h1c0-7.37 1-13.664 1-22h-1c-4.317 0-23.433-11.466-28.5-14-1.755-.877-8.5.118-8.5 2 0 2.478 12 17.557 12 26h1c11.102 0 20.191 8 23 8Z"/><path fill="#3FA664" id="ACAd6a" d="m185 111 4 2c3.891 0 7.03-6 11-6l2-2c0-3.137-1.089-20-4-20h-1c0 4.204-12 17.897-12 26ZM267 113h2c0-1.747.253-2 2-2 0-8.443-12-23.522-12-26h-1c0 1.01-2.421 5.343-3 6.5V106l2 2c4.173 0 6.651 5 10 5Z"/><path fill="#187E61" id="SSp-m1" d="m381 164 4 1 2-14.5c-2.622-5.244-.393-12.786-3-18-4.733-9.466-8.188-19.377-13-29-1.111-2.221-11.427-15.5-14-15.5v9c3.325 0 8.588 8.675 10 11.5 12.943 25.885 14 24.244 14 54.5v1ZM75 164l-4 1c0-4.813-3.473-14.555-1-19.5 1.632-3.264.393-7.786 2-11 4.67-9.341 7.27-19.541 12-29 1.967-3.934 9.488-16.5 15-16.5 0 1.564 1 3.876 1 6v1c-2.736 0-9.912 10.325-11 12.5-12.291 24.582-14 26.857-14 55.5Z"/><path fill="#1A7E64" id="SSp-m2/3" d="M86 161c-4.105 0-7.159 3-11 3 0-28.643 1.709-30.918 14-55.5 1.088-2.175 8.264-12.5 11-12.5 0 6.133 2 13.777 2 17-3.246 0-5.922 7.345-7 9.5-6.112 12.225-9 23.63-9 38.5Z"/><path fill="#40A664" id="ACAv1" d="m231 144 2 1c0-15.795 1-31.733 1-48-2.998 0-7.358-1-11-1l-1 1 1 48 3-1 1-1c0-5.73 2.316 0 3 0l1 1Z"/><path fill="#1F9B5A" id="MOp6a" d="M130 161c-6.289 0-12.474 8-19 8l-1-21.5c1.94-3.88 1.078-9.157 3-13 7.058-14.117 17.84-22.67 31.5-29.5 4.288-2.144 10.651-8 15.5-8 0 7.249 1 14.72 1 22v1c-4.746 0-8.416 6.958-12.5 9-11.167 5.584-18.5 20.137-18.5 32Z"/><path fill="#3FA566" id="ACAv2/3" d="M219 145h4l-1-48h-5v1c0 16.372 2 31.359 2 47ZM233 145h4c0-14.924 3-31.655 3-47-1.564 0-3.876-1-6-1 0 16.267-1 32.205-1 48Z"/><path fill="#1F9B5A" id="MOp6a" d="M345 169h1c0-34.94-3.275-48.388-34.5-64-3.109-1.555-11.445-8-14.5-8 0 8.336-1 14.63-1 22 0 3.245 10.805 8.305 13 10.5 9.37 9.37 17 17.362 17 30.5v1c6.14 0 12.794 8 19 8Z"/><path fill="#1A7E64" id="SSp-m2/3" d="M370 161c4.867 0 5.857 2 11 2 0-30.256-1.057-28.615-14-54.5-1.412-2.825-6.675-11.5-10-11.5-2.064 0-.426 3.353-1 4.5-1.988 3.977-1 8.69-1 11.5 0 .252 9.095 13.69 10 15.5 4.875 9.749 5 21.888 5 32.5Z"/><path fill="#3EA666" id="ACAv5" d="M213 145h6c0-15.641-2-30.628-2-47-5.804 0-11.671 7-15 7 0 10.487.652 21.803 5 30.5 1.499 2.999 6 6.806 6 9.5ZM237 145h6l6-8.5c4.087-8.174 6-20.842 6-30.5v-1c-5.184 0-9.252-7-15-7 0 15.345-3 32.076-3 47Z"/><path fill="#40A564" id="ACAv6a" d="M205 143c1.996 0 4.985 2 8 2 0-2.694-4.501-6.501-6-9.5-4.348-8.697-5-20.013-5-30.5l-2 2c0 10.61 5 19.483 5 28v8ZM251 144l-8 1 6-8.5c4.087-8.174 6-20.842 6-30.5l2 2c0 8.315-6 18.24-6 27v9Z"/><path fill="#2FA850" id="PL6a" d="m205 135-3 1-3-3.5c-1.324-2.649-7.124-18.5-10-18.5v-1c3.891 0 7.03-6 11-6 0 10.61 5 19.483 5 28ZM254 136h1l8-15c0-2.244 1.725-6 4-6v-2c-3.349 0-5.827-5-10-5 0 8.315-6 18.24-6 27 1.048 0 3-.473 3 1Z"/><path fill="#1E9C58" id="MOs6b" d="m167 118-4 1c0-5.061 17.484-8 22-8v1c-3.643 0-18 2.13-18 6Z"/><path fill="#3FA466" id="ACAd6b" d="M189 114v1l-4-3v-1l4 2v1ZM272 112l-3 1c0-1.747.253-2 2-2h1v1Z"/><path fill="#1E9C58" id="MOs6b" d="M295 119v2l-6-3c0-5.372-13.233-6-17-6v-1c11.102 0 20.191 8 23 8Z"/><path fill="#CACCC7" id="cing" d="m202 139 1 3c-3.629 0-11-13.739-11-17l-1-1v-1c0-4.215-6.934-6-10-6-4.135 0-7.305 2-11 2l-3-1c0-3.87 14.357-6 18-6l4 3 3 4.5c1.308 2.617 6.042 17.5 9 17.5l1 2ZM254 139l-1 3c3.229 0 12-14.733 12-18l1-1 1-1c0-4.061 4.776-5 8-5 4.503 0 8.044 2 12 2l2-1c0-5.372-13.233-6-17-6l-3 1-1 1-1 1c0 1.178-2.572 6-4 6 0 5.864-7 12.19-7 16l-2 2Z"/><path fill="#1B7F62" id="SSp-m4" d="m91 160-5 1c0-14.87 2.888-26.275 9-38.5 1.078-2.155 3.754-9.5 7-9.5 2.662 0-.662 7 2 7v1l-4 7.5c-4.058 8.116-9 21.078-9 30.5v1Z"/><path fill="#3FA466" id="ACAd6b" d="M267 114h1l1-1h-2v1Z"/><path fill="#1B7F62" id="SSp-m4" d="m365 160 5 1c0-10.612-.125-22.751-5-32.5-.905-1.81-10-15.248-10-15.5-2.991 0-2 6.051-2 8 0 2.807 2.807 5.113 4 7.5 4.238 8.476 8 21.516 8 31.5Z"/><path fill="#2FA84F" id="PL6b" d="m202 136-1 1c-2.958 0-7.692-14.883-9-17.5l-3-4.5v-1c2.876 0 8.676 15.851 10 18.5l3 3.5ZM268 114l-1 1v-1h1ZM267 115c-2.275 0-4 3.756-4 6 1.428 0 4-4.822 4-6Z"/><path fill="#CAC7CC" id="fa" d="M135 171h3c0-18.066-1.806-24.847 16.5-34 12.005-6.002 40.5 3.461 40.5 18 1.008 0 4 5.147 4 6 2.711 0 4.969-2 6-2v-16l-2-1c-3.629 0-11-13.739-11-17l-1-1v-1c-1.261 0-10-5.249-10-6-4.135 0-7.305 2-11 2 0 2.236-5.074 3.287-6.5 4-6.131 3.065-10.827 8.913-17 12-9.383 4.692-12.5 24.356-12.5 34l1 2Z"/><path fill="#CCC7C9" id="ccg" d="M181 117c3.066 0 10 1.785 10 6-1.261 0-10-5.249-10-6ZM275 117c-3.224 0-8 .939-8 5 1.156 0 8-3.845 8-5Z"/><path fill="#CAC7CC" id="fa" d="M319 170c0 1.473 1.952 1 3 1v-2c0-12.329-2.917-30.708-15.5-37-5.184-2.592-9.894-6.447-15-9l-4.5-4c-3.956 0-7.497-2-12-2 0 1.155-6.844 5-8 5l-1 1-1 1c0 3.267-8.771 18-12 18l-1 1-1 2v13c1.274 0 2.933 3 6 3l3-4 1-2c0-11.088 25.88-24.31 36.5-19 20.371 10.185 21.5 9.757 21.5 34Z"/><path fill="#C9C9CA" id="scwm" d="M133 159c0 1.657-.763 10 1 10 0-9.644 3.117-29.308 12.5-34 6.173-3.087 10.869-8.935 17-12 1.426-.713 6.5-1.764 6.5-4l-3-1-4 1-2 2c0 1.676-10.504 8.004-12.5 10-8.342 8.342-15.5 15.447-15.5 28ZM324 159c0 1.737-.516 10-2 10 0-12.329-2.917-30.708-15.5-37-5.184-2.592-9.894-6.447-15-9l-4.5-4 2-1 6 3c5.91 0 23.555 20.61 26 25.5.671 1.342 2.398 12.5 3 12.5Z"/><path fill="#1E9C58" id="MOs6b" d="M161 120v1l2-2h-2v1Z"/><path fill="#1D9D5A" id="MOp6b" d="m324 159 2 1c0-13.138-7.63-21.13-17-30.5-2.195-2.195-13-7.255-13-10.5h-1v2c5.91 0 23.555 20.61 26 25.5.671 1.342 2.398 12.5 3 12.5ZM133 159l-3 2c0-11.863 7.333-26.416 18.5-32 4.084-2.042 7.754-9 12.5-9v1c0 1.676-10.504 8.004-12.5 10-8.342 8.342-15.5 15.447-15.5 28Z"/><path fill="#1B7E63" id="SSp-m5" d="m105 157-14 2c0-9.422 4.942-22.384 9-30.5l4-7.5c0 4.131 3 9.562 3 13.5 0 2.532-.732 3.463-2 6-2.336 4.673 0 12.62 0 16.5Z"/><path fill="#2FA84F" id="PL6b" d="m255 136 1 1c0-3.81 7-10.136 7-16l-8 15Z"/><path fill="#1B7E63" id="SSp-m5" d="M351 157c4.835 0 9.782 3 14 3 0-9.984-3.762-23.024-8-31.5-1.193-2.387-4-4.693-4-7.5h-1v5.5l-3 3 2 1c.537 1.073 0 22.506 0 26.5Z"/><path fill="#CCC7C9" id="ccg" d="m267 122-1 1 1-1ZM266 123l-1 1 1-1ZM191 124l1 1-1-1Z"/><path fill="#58B362" id="ILA6a" d="m203 142 2 1v-8l-3 1v3l1 3ZM251 143h1l1-1 1-3v-3c0-1.473-1.952-1-3-1v8Z"/><path fill="#98D5F9" id="CP" d="m153 224 2 1c7.831 0 5.306-5.112 8-10.5 4.39-8.779 17.174-15.337 25.5-19.5l6.5-6c0-1.238.423-3 2-3v-19c0-4.374-2-8.563-2-12 0-14.539-28.495-24.002-40.5-18-18.306 9.153-16.5 15.934-16.5 34 1.022 0 5.891 14.283 7 16.5l-1 7.5c0 6.27 2 11.142 2 17v1l1 1c0 3.794 6 6.572 6 10Z"/><path fill="#58B263" id="ILA6b" d="m201 137 1 2v-3l-1 1ZM256 137l-2 2v-3h1l1 1Z"/><path fill="#98D5F9" id="CP" d="M301 225h1l1-1 1-1c1.222 0 5-6.549 5-8l1-1v-1l3-18c-1.714 0-1-5.594-1-7 0-2.503 5.799-18 7-18 0-24.243-1.129-23.815-21.5-34-10.62-5.31-36.5 7.912-36.5 19l-1 2v28l1 4 6.5 6c6.31 3.155 19.717 8.934 23.5 16.5 2.454 4.907 3.434 13.5 10 13.5Z"/><path fill="#CCC7C9" id="ccg" d="m253 142-1 1 1-1Z"/><path fill="#A3DAA3" id="DP" d="M207 161h18l2-9v-7l-1-1-3 1h-10c-3.015 0-6.004-2-8-2v16l2 2Z"/><path fill="#99D2BD" id="OLF" d="m226 144 1 1v-2l-1 1ZM230 144h1l-1-1v1Z"/><path fill="#CCC7C9" id="ccg" d="M251 144v1l1-2h-1v1Z"/><path fill="#A3DAA3" id="DP" d="M231 161h19l1-3v-14l-8 1h-10l-2-1h-1v1c0 5.605 1 10.861 1 16Z"/><path fill="#99D2BD" id="OLF" d="m231 161-2 2v-14c0-1.145-.579-4 1-4 0 5.605 1 10.861 1 16Z"/><path fill="#99D2BD" id="OLF" d="M216 184c0 1.914 6.984 6.758 8.5 6l4-4 3 4c1.639.819 9.5-3.998 9.5-6l-9.5 2c-4.792-2.396-2.5-17.169-2.5-22-2.836 0 .836-12-2-12l-2 9c3.298 0 3.395 20.711 2 23.5-1.996 3.992-8.539-.5-11-.5Z"/><path fill="#AAA8A9" id="SEZ" d="M197 167c3.17 0 2 12.446 2 15 1.951 0 .477-2.454 1-3.5 3.021-6.042-1-11.849-1-17.5 0-.853-2.992-6-4-6 0 3.437 2 7.626 2 12ZM261 155l-1 2 1-2Z"/><path fill="#019C75" id="GU5" d="m107 170-16 8v-19l14-2c0 4.081 2 8.364 2 13Z"/><path fill="#AAA8A9" id="SEZ" d="m260 170-1.5-2-.5 3.5c-1.402 2.804-1 6.126-1 9.5-1.643 0-1-3.765-1-5 0-5.172 1-10.365 1-15l3-4v13Z"/><path fill="#019C75" id="GU5" d="m349 170 3.5 2 13.5 6c0-6.102-1-12.479-1-18-4.218 0-9.165-3-14-3l-2 13Z"/><path fill="#99D2BD" id="OLF" d="M257 182c0 1.238.423 3 2 3 0 1.99-2.146 2.207-3 .5l-3.5-8.5c-2.579-1.289-2.906 0-5.5 0 0-2.827 2.831-4.163 4-6.5 1.386-2.772-1-7.269-1-9.5l1-3c1.274 0 2.933 3 6 3 0 4.635-1 9.828-1 15 0 1.235-.643 5 1 5v1Z"/><path fill="#1F9766" id="AId6b" d="m137 177-1 2-3-3c0-4.794-3-9.738-3-15l3-2c0 1.657-.763 10 1 10l1 2c0 2.447 2 3.28 2 6Z"/><path fill="#99D2BD" id="OLF" d="M197 185v1c7.069 0 2.012-6.756 8.5-10l5.5 3-6-10.5c-1.558-3.117 2-5.401 2-7.5l-2-2c-1.031 0-3.289 2-6 2 0 5.651 4.021 11.458 1 17.5-.523 1.046.951 3.5-1 3.5v1l-1 1-1 1Z"/><path fill="#1F9766" id="AId6b" d="m319 178 1 1 3-3 1-1 2-14v-1l-2-1c0 1.737-.516 10-2 10v2c0 2.538-3 3.953-3 7Z"/><path fill="#009C74" id="GU4" d="m91 178-2 1c0-6.124-3-11.665-3-18l5-1v18ZM366 178h1c0-5.305 3-10.964 3-17l-5-1c0 5.521 1 11.898 1 18Z"/><path fill="#009B75" id="GU2/3" d="M78 182h1l10-3c0-6.124-3-11.665-3-18-4.105 0-7.159 3-11 3l3 18Z"/><path fill="#209666" id="AId6a" d="m125 189-4 2c0-3.056-10-10.866-10-22 6.526 0 12.711-8 19-8 0 5.262 3 10.206 3 15l-3.5-2c-4.526-2.263-10.671 4.157-8.5 8.5 1.169 2.337 4 3.673 4 6.5Z"/><path fill="#61D09F" id="TTd" d="m214 183 2 1c2.461 0 9.004 4.492 11 .5 1.395-2.789 1.298-23.5-2-23.5h-18c0 2.099-3.558 4.383-2 7.5l6 10.5 2 3 1 1Z"/><path fill="#61D09F" id="TTd" d="m244 181-3 3-9.5 2c-4.792-2.396-2.5-17.169-2.5-22v-1l2-2h19c0 2.231 2.386 6.728 1 9.5-1.169 2.337-4 3.673-4 6.5l-1 1-1 2-1 1Z"/><path fill="#209666" id="AId6a" d="m331 189 4 2 7-8.5c2.268-4.535 3-7.921 3-13.5-6.206 0-12.86-8-19-8l-2 14c3.435 0 15.378-1.257 11 7.5l-4 6.5Z"/><path fill="#009B75" id="GU2/3" d="M367 178c0 1.92 9.104 4 11 4 0-6.083 3-11.519 3-18v-1c-5.143 0-6.133-2-11-2 0 6.036-3 11.695-3 17Z"/><path fill="#009C75" id="GU1" d="M78 182c0 1.473-1.952 1-3 1-2.064 0-.426-3.353-1-4.5-1.712-3.424-3-9.556-3-13.5l4-1 3 18ZM378 183h4c0-6.001 3-11.692 3-18l-4-1c0 6.481-3 11.917-3 18v1Z"/><path fill="#A8AAAA" id="VL" d="m198 184-1 1v-18c3.17 0 2 12.446 2 15v1l-1 1ZM257 182c1.532 0 .95 1 3 1v-13l-1.5-2-.5 3.5c-1.402 2.804-1 6.126-1 9.5v1Z"/><path fill="#209665" id="AId5" d="M97 199h1c5.429 0 19.17-8 23-8 0-3.056-10-10.866-10-22l-4 1-16 8c0 4.883-.022 10.455 2 14.5l4 6.5ZM335 191c3.502 0 18.529 8 24 8l4-5.5c1.898-3.797 3-11.102 3-15.5l-13.5-6-3.5-2-3-1h-1c0 5.579-.732 8.965-3 13.5l-7 8.5Z"/><path fill="#C8CBCC" id="ec" d="m313 195 2 1c0-.766-4.38-7 0-7v-2l1-2 1-2v-2l2-3c0-3.047 3-4.462 3-7-1.048 0-3 .473-3-1-1.201 0-7 15.497-7 18 0 1.406-.714 7 1 7ZM144 195l-2 1c0-1.378 2.244-9-1-9v-1l-2-5-2-4c0-2.72-2-3.553-2-6h3c1.022 0 5.891 14.283 7 16.5l-1 7.5Z"/><path fill="#8ADA86" id="CLA" d="M141 187c0 3.746-.077 14.211-8.5 10l-7.5-8c0-2.827-2.831-4.163-4-6.5-2.171-4.343 3.974-10.763 8.5-8.5l3.5 2 3 3 2 2c0 1.408 1.197 5 3 5v1ZM315 189c0 14.507 16 5.705 16 0l4-6.5c4.378-8.757-7.565-7.5-11-7.5l-1 1-3 3-1 2-2 2-1 2-1 2v2Z"/><path fill="#209666" id="AId6a" d="m324 175-1 1 1-1Z"/><path fill="#97D6F9" id="STR" d="M218 248c0 4.04 3 7.361 3 12l2-2.5c1.203-2.405 4-10.002 4-12.5-2.726 0-2-7.441-2-9.5 0-3.106-.127-18.5 2.5-18.5l1 2 1-2c1.399 0 1.5 4.872 1.5 6v21.5c-.837 1.673-4-7.43-4 .5 5.278 0 6.668 18 10 18l-2-5.5 4-10.5c-3.029 0-.49-14 3-14 0-5.172 1-10.365 1-15l-3.5 1c-8.334-4.167 2.384-37.616 9.5-30.5 4.469 4.469 3 3.638 3 9.5 3.306 0 3.98-9 9-9l-1-4h-1c0 1.99-2.146 2.207-3 .5l-3.5-8.5c-2.579-1.289-2.906 0-5.5 0l-1 1-1 2-1 1-3 3c0 2.002-7.861 6.819-9.5 6l-3-4-4 4c-1.516.758-8.5-4.086-8.5-6l-2-1-1-1-2-3-5.5-3c-6.488 3.244-1.431 10-8.5 10-1.577 0-2 1.762-2 3 6.658 0 12.09 18 14 18l-6-12.5c-1.318-2.637 5.767-8.867 8.5-7.5 4.059 2.029 12.464 28.768 6 32l-4.5-1c0 4.537 2 9.554 2 15 4.184 0 3 12.9 3 15Z"/><path fill="#219665" id="AIv6b" d="M138 181h1l-2-4-1 2 2 2Z"/><path fill="#99D2BD" id="OLF" d="m247 177-1 1 1-1Z"/><path fill="#209765" id="AId2/3" d="M86 203h1c0-1.259 8.632-4 10-4l-4-6.5c-2.022-4.045-2-9.617-2-14.5l-2 1-10 3c0 7.494 7 16.153 7 21Z"/><path fill="#219665" id="AIv6b" d="M317 181h2l1-2-1-1-2 3Z"/><path fill="#209765" id="AId2/3" d="M359 199c3.697 0 6.94 3 11 3 3.186 0 5.766-13.033 7-15.5.523-1.046-.951-3.5 1-3.5v-1c-1.896 0-11-2.08-11-4h-1c0 4.398-1.102 11.703-3 15.5l-4 5.5Z"/><path fill="#99D2BD" id="OLF" d="m245 180-1 1 1-1Z"/><path fill="#1F9866" id="AIv6a" d="m139 181 2 5c-1.803 0-3-3.592-3-5h1ZM319 181l-2 2v-2h2Z"/><path fill="#209764" id="AId1" d="m86 203-3 1c-1.593 0-8-18.05-8-21 1.048 0 3 .473 3-1h1c0 7.494 7 16.153 7 21Z"/><path fill="#99D2BD" id="OLF" d="m213 182 1 1-1-1Z"/><path fill="#AAA8A9" id="SEZ" d="M259 185h1v-2c-2.05 0-1.468-1-3-1 0 1.238.423 3 2 3ZM199 183l-1 1 1-1Z"/><path fill="#1F9866" id="AIv6a" d="m317 183-1 2 1-2Z"/><path fill="#209764" id="AId1" d="m370 203 4 1c0-5.374 8-14.466 8-21h-4c-1.951 0-.477 2.454-1 3.5-1.234 2.467-3.814 15.5-7 15.5v1Z"/><path fill="#1F9866" id="AIv6a" d="m316 185-1 2 1-2ZM129 207h1l1-1c0-2.915 7.775-6 10-6 0-1.145-.579-4 1-4 0-1.378 2.244-9-1-9 0 3.746-.077 14.211-8.5 10l-7.5-8-4 2 8 16Z"/><path fill="#90CAED" id="LSr" d="M213 217v1l4.5 1c6.464-3.232-1.941-29.971-6-32-2.733-1.367-9.818 4.863-8.5 7.5l6 12.5 2 6 2 4ZM244 216l-1 2-3.5 1c-8.334-4.167 2.384-37.616 9.5-30.5 4.469 4.469 3 3.638 3 9.5l-1 1v1l-1 2-1 1v2l-1 1v1l-1 1-1 3-1 2v1l-1 2Z"/><path fill="#80CDF8" id="ACB" fill-rule="evenodd" d="m175 210-6 6.5c-2.125 4.249 2.877 10.811 7.5 8.5 5.891-2.946 6.328-15-1.5-15m40 23-1 11.5c-5.181 10.363-22.033 22.733-34.5 16.5h-6c-5.704-2.852-16.5-5.264-16.5-14 0-2.911-2.695-9.109-1-12.5.523-1.047 1.748-2.505 1-4l-2-5.5c7.831 0 5.306-5.112 8-10.5 4.39-8.779 17.174-15.337 25.5-19.5l6.5-6c6.658 0 12.09 18 14 18l2 6 2 4v1c0 4.537 2 9.554 2 15ZM280 210c0 1.373-4 1.435-4 4.5 0 2.505-.025 3.95 1 6 7.947 15.893 17.144-10.5 3-10.5m-38 23c0 3.997-.67 9.161 1 12.5 4.632 9.264 21.868 21.316 33.5 15.5 3.365-1.682 8.54-.27 12-2l7.5-4.5 4-7.5c0-7.373 1-15.242 1-22-6.566 0-7.546-8.593-10-13.5-3.783-7.566-17.19-13.345-23.5-16.5l-6.5-6c-5.02 0-5.694 9-9 9l-1 1v1l-1 2-1 1v2l-1 1v1l-1 1-1 3-1 2v1l-1 2-1 2c0 4.635-1 9.828-1 15Z"/><path fill="#1F9866" id="AIv6a" d="M326 206h1c2.341 0 1.421-2.342 2-3.5 1.662-3.324 6-7.687 6-11.5l-4-2c0 5.705-16 14.507-16 0-4.38 0 0 6.234 0 7l1 4c3.971 0 6.693 6 10 6Z"/><path fill="#1F9865" id="AIv5" d="M114 211h4c0-1.244 9.649-4 11-4l-8-16c-3.83 0-17.571 8-23 8 0 6.737 16 4.637 16 12ZM338 211h4c0-7.343 17-5.638 17-12-5.471 0-20.498-8-24-8 0 3.813-4.338 8.176-6 11.5-.579 1.158.341 3.5-2 3.5 0 3.714 11 1.843 11 5Z"/><path fill="#8AD987" id="CTXsp" d="M141 200c5.14 0 1.022 12 5 12 0-5.858-2-10.73-2-17l-2 1c-1.579 0-1 2.855-1 4ZM316 200c-5.61 0-1.315 13-6 13l3-18 2 1 1 4Z"/><path fill="#97D6F9" id="STR" d="m252 198-1 1 1-1Z"/><path fill="#219764" id="AIv2/3" d="m114 211-19 5c0-5.208-8-7.408-8-13 0-1.259 8.632-4 10-4h1c0 6.737 16 4.637 16 12ZM342 211l19 5 9-13v-1c-4.06 0-7.303-3-11-3 0 6.362-17 4.657-17 12Z"/><path fill="#A0EE9C" id="EPd" d="M134 223c4.25 0 19 11.427 19 1 0-3.428-6-6.206-6-10l-1-1v-1c-3.978 0 .14-12-5-12-2.225 0-10 3.085-10 6l-1 1h-1c0 2.846-2 5.382-2 9v1l2 2v1l1 1h1l2 2h1Z"/><path fill="#97D6F9" id="STR" d="m251 200-1 2 1-2Z"/><path fill="#A0EE9C" id="EPd" d="m317 226-2 1c-2.923 0-12 3.726-12-2v-1l1-1c1.222 0 5-6.549 5-8l1-1v-1c4.685 0 .39-13 6-13 3.971 0 6.693 6 10 6 0 3.164 4 5.21 4 9l-1 2v1l-1 1-1 1-1 1-2 1-1 1h-1l-1 1-1 1h-1l-2 1Z"/><path fill="#97D6F9" id="STR" d="m250 202-1 1 1-1Z"/><path fill="#209864" id="AIv1" d="m95 216-4 1c-2.37 0-8-10.845-8-13l3-1h1c0 5.592 8 7.792 8 13ZM361 216l5 1c1.46 0 8-11.284 8-13l-4-1-9 13Z"/><path fill="#97D6F9" id="STR" d="m249 205-1 1 1-1Z"/><path fill="#99D2BD" id="OLF" d="m131 206-1 1 1-1ZM338 211h-5.5l-2.5 4c0-3.79-4-5.836-4-9h1c0 3.714 11 1.843 11 5ZM118 211h5.5l3.5 5c0-3.618 2-6.154 2-9-1.351 0-11 2.756-11 4Z"/><path fill="#97D6F9" id="STR" d="m248 207-1 1 1-1Z"/><path fill="#CBCBC7" id="aco" d="m175 210-6 6.5c-2.125 4.249 2.877 10.811 7.5 8.5 5.891-2.946 6.328-15-1.5-15ZM280 210c0 1.373-4 1.435-4 4.5 0 2.505-.025 3.95 1 6 7.947 15.893 17.144-10.5 3-10.5Z"/><path fill="#6ACAB9" id="PIR" d="M144 253c-4.599 0-7.105 4-11 4 0-5.496-19.449-13-23-13l-7-5.5c-3.357-6.714-12-12.435-12-21.5l4-1 19-5h9.5l3.5 5v1l2 2v1l1 1h1l2 2h1c0 1.988 3.315 2.408 4.5 3 4.623 2.311 9.953 5.405 12.5 10.5 3.851 7.701-7 12.829-7 16.5Z"/><path fill="#97D6F9" id="STR" d="m246 211-1 2 1-2Z"/><path fill="#6ACAB9" id="PIR" d="M313 253c4.259 0 6.618 4 10 4l3.5-4c4.116-2.058 7.954-4.977 12-7 1.158-.579 7.5-4.09 7.5-2 5.479 0 20-21.427 20-27l-5-1-19-5h-9.5l-2.5 4-1 2v1l-1 1-1 1-1 1-2 1-1 1h-1l-1 1-1 1h-1l-2 1-2 1c0 1.76-4.288 3.394-5.5 4l-4.5 6.5c-3.365 6.73 8 13.413 8 15.5Z"/><path fill="#8AD987" id="CTXsp" d="m146 213 1 1-1-1Z"/><path fill="#97D6F9" id="STR" d="m211 213 2 4-2-4ZM245 214l-1 2 1-2Z"/><path fill="#8AD987" id="CTXsp" d="m310 214-1 1 1-1Z"/><path fill="#99D2BD" id="OLF" d="m330 215-1 2 1-2Z"/><path fill="#97D6F9" id="STR" d="m244 216-1 2 1-2Z"/><path fill="#99D2BD" id="OLF" d="m127 217 2 2-2-2Z"/><path fill="#96A6D3" id="NDB" d="M227 245c0-7.93 3.163 1.173 4-.5V223c0-1.128-.101-6-1.5-6l-1 2-1-2c-2.627 0-2.5 15.394-2.5 18.5 0 2.059-.726 9.5 2 9.5Z"/><path fill="#99D2BD" id="OLF" d="m329 218-1 1 1-1ZM328 219l-1 1 1-1ZM129 220l1 1-1-1ZM327 220l-1 1 1-1ZM131 221l2 2-2-2ZM324 222l-1 1 1-1ZM144 253h3c0-3.183 6.969-6 10-6 0-2.911-2.695-9.109-1-12.5.523-1.047 1.748-2.505 1-4l-2-5.5-2-1c0 10.427-14.75-1-19-1 0 1.988 3.315 2.408 4.5 3 4.623 2.311 9.953 5.405 12.5 10.5 3.851 7.701-7 12.829-7 16.5ZM304 223l-1 1 1-1ZM322 223l-1 1 1-1Z"/><path fill="#80CDF8" id="ACB" d="M302 225h1v-1l-1 1Z"/><path fill="#99D2BD" id="OLF" d="m321 224-1 1 1-1ZM310 253h3c0-2.087-11.365-8.77-8-15.5l4.5-6.5c1.212-.606 5.5-2.24 5.5-4-2.923 0-12 3.726-12-2h-2c0 6.758-1 14.627-1 22 1.969 0 10 3.732 10 6ZM319 225l-2 1 2-1ZM317 226l-2 1 2-1Z"/><path fill="#A2B1D7" id="SI" d="M218 248c-3.353 0-15.151 15.825-21.5 19h-5c-10.73 5.365-26.393-1.697-35-6l-9.5-8c0-3.183 6.969-6 10-6 0 8.736 10.796 11.148 16.5 14h6c12.467 6.233 29.319-6.137 34.5-16.5l1-11.5c4.184 0 3 12.9 3 15ZM300 247c1.969 0 10 3.732 10 6l-9.5 8c-6.443 3.221-26.383 11.309-35 7-7.009-3.504-13.405-6.405-18.5-11.5-2.333-2.333-5.585-9.5-8-9.5-3.029 0-.49-14 3-14 0 3.997-.67 9.161 1 12.5 4.632 9.264 21.868 21.316 33.5 15.5 3.365-1.682 8.54-.27 12-2l7.5-4.5 4-7.5Z"/><path fill="#CAC8C7" id="lot" d="m133 261-1 1c-1.944 0-22-16.731-22-18 3.551 0 23 7.504 23 13v4ZM323 261l2 1c1.714 0 21-16.491 21-18 0-2.09-6.342 1.421-7.5 2-4.046 2.023-7.884 4.942-12 7l-3.5 4v4Z"/><path fill="#7FCCF7" id="OT" d="m216 270-1 1c0 6.671-13.4 12.95-17.5 15-4.829 2.415-13.312 1-19 1l-5 2c-7.06 3.53-26.792-6.084-29.5-11.5-2.253-4.506-9-6.43-9-11.5l-2-3v-6c3.895 0 6.401-4 11-4h3l9.5 8c8.607 4.303 24.27 11.365 35 6h5c6.349-3.175 18.147-19 21.5-19 0 4.04 3 7.361 3 12l-2 4v1l-1 2-1 1v1l-1 1ZM240 269l2 3c0 6.075 12.479 11.989 16.5 14 5.599 2.799 14.514-1.743 20 1 11.824 5.912 31.642-1.784 37.5-13.5l7-9.5v-7c-3.382 0-5.741-4-10-4h-3l-9.5 8c-6.443 3.221-26.383 11.309-35 7-7.009-3.504-13.405-6.405-18.5-11.5-2.333-2.333-5.585-9.5-8-9.5l-4 10.5 2 5.5v2l2 2v1l1 1Z"/><path fill="#97D6F9" id="STR" d="m221 260-2 4c2.109 0 2-2.535 2-4Z"/><path fill="#99D2BD" id="OLF" d="m132 262 1 1v-2l-1 1ZM325 262l-2 2v-3l2 1Z"/><path fill="#97D6F9" id="STR" d="m133 263 2 3c-1.577 0-2-1.762-2-3ZM219 265l-1 2 1-2ZM237 265l2 2-2-2ZM218 267l-1 1 1-1ZM239 268l1 1-1-1Z"/><path fill="#8599CC" id="PAL" d="m217 269-1 1 1-1ZM240 269l2 3c-1.577 0-2-1.762-2-3ZM216 270l-1 1 1-1Z"/></svg>