<svg xmlns="http://www.w3.org/2000/svg" viewBox="0 0 456 320"><path fill="#1E9C59" id="MOs1" d="M219 66h1l3-3c0-4.07-7.796-10.148-11.5-12-1.849-.924-4.52-2.76-7-4-5.633-2.816-31.579 1.79-36 4L154 57c0 1.728 1 3.991 1 6 4.299 0 8.834-3.167 12.5-5 9.681-4.84 41.324-9.853 47.5 2.5.755 1.51 4 2.863 4 5.5ZM233 64l4 2c0-4.012 8.533-9.516 11.5-11 11.694-5.847 32.719-1.14 43 4 3.528 1.764 6.235 4 10.5 4v-6c-3.897 0-10.025-4.263-13.5-6-4.523-2.261-31.239-6.88-37-4-5.377 2.688-9.325 5.325-13.5 9.5-1.939 1.939-5 4.777-5 7.5Z"/><path fill="#1E9D58" id="MOs2/3" d="M213 71h1l5-5c0-2.637-3.245-3.99-4-5.5-6.176-12.353-37.819-7.34-47.5-2.5-3.666 1.833-8.201 5-12.5 5l-1 1c0 4.594 1 10.74 1 16 12.353 0 31.109-23.695 46.5-16 3.644 1.822 11.5 1.631 11.5 7ZM243 70c1.722 0 14.524-10.988 22.5-7 3.598 1.8 34.647 17 35.5 17 0-6.376 1-11.85 1-17-4.265 0-6.972-2.236-10.5-4-10.281-5.14-31.306-9.847-43-4-2.967 1.484-11.5 6.988-11.5 11v1l6 3Z"/><path fill="#1E9D5A" id="MOp1" d="m94 99 1 7 10.5-12c3.714-1.857 6.991-7.496 10-9 9.764-4.882 28.13-21 38.5-21l1-1c0-2.009-1-4.272-1-6l-11.5 6c-7.928 3.964-31.713 15.926-35.5 23.5-2.12 4.24-13 6.786-13 12.5ZM361 107h1c0-2.528.426-8 1-8l-13.5-13c-9.614-9.614-23.216-16.608-36-23-3.324-1.662-7.687-6-11.5-6v6c4.516 0 10.49 5.995 14.5 8 11.747 5.873 22.867 11.867 32.5 21.5 3.238 3.238 12 10.929 12 14.5Z"/><path fill="#1F9C58" id="MOp2/3" d="m155 63-1 1 1-1Z"/><path fill="#1F9D58" id="MOs5" d="m197 87-7.5-1c-5.067 2.534-30.865 16-34.5 16V80c12.353 0 31.109-23.695 46.5-16 3.644 1.822 11.5 1.631 11.5 7-3.875 0-14.589 16-16 16Z"/><path fill="#3EA665" id="ACAd1" d="M222 99h12c0-4.475-3.176-32 3-32v-1l-4-2c-2.37 0-3.725 7-4.5 7-1.493 0-2.817-8-5.5-8l-3 3 3 6.5c2.365 4.73-1 21.43-1 26.5Z"/><path fill="#1F9D58" id="MOs5" d="m259 87 7.5-1c6.439 3.22 28.506 15 34.5 15V80c-.853 0-31.902-15.2-35.5-17-7.976-3.988-20.778 7-22.5 7v1c1.688 0 16 14.312 16 16Z"/><path fill="#1F9C58" id="MOp2/3" fill-rule="evenodd" d="M359 113c0 1.93 1.93 0 0 0m0 15c-2.848 0 .299 8-2 8l-3-5.5c-7.519-15.038-19.157-30.828-34.5-38.5-5.575-2.787-12.08-11-18.5-11v-1c0-6.376 1-11.85 1-17 4.516 0 10.49 5.995 14.5 8 11.747 5.873 22.867 11.867 32.5 21.5 3.238 3.238 12 10.929 12 14.5 0 5.518-2 11.087-2 18-1.186 0-1.186 1 0 1v2Z"/><path fill="#1F9C58" id="MOp2/3" d="M98 126c0 5.005 1 6.959 1 11 1.59 0 1.443-4.386 2-5.5l10-16c6.008-12.017 21.229-22.365 33.5-28.5 2.703-1.352 7.555-6 10.5-6v-1c0-5.26-1-11.406-1-16-10.37 0-28.736 16.118-38.5 21-3.009 1.504-6.286 7.143-10 9L95 106v1c0 6.296 3 9.95 3 19Z"/><path fill="#40A565" id="ACAd2/3" d="m222 99-5 1V77.5l-3-6.5 5-5h1l3 6.5c2.365 4.73-1 21.43-1 26.5ZM234 99l6 1c0-7.023-1.999-18.502 1-24.5.559-1.119.155-4.5 2-4.5v-1l-6-3c-6.176 0-3 27.525-3 32Z"/><path fill="#3EA566" id="ACAd5" d="m217 100-16 3c0-3.251.519-15-4-15v-1c1.411 0 12.125-16 16-16h1l3 6.5V100ZM240 100c5.173 0 10.136 3 15 3l2-13.5 2-1.5v-1c0-1.688-14.312-16-16-16-1.845 0-1.441 3.381-2 4.5-2.999 5.998-1 17.477-1 24.5Z"/><path fill="#1E9C5A" id="MOp5" d="M117 165c-5.158 0-10.419 6-16 6 0-2.693-1.78-14-3-14 0-1.49.735-8-1-8v-3l1-1 1-5v-3c1.59 0 1.443-4.386 2-5.5l10-16c6.008-12.017 21.229-22.365 33.5-28.5 2.703-1.352 7.555-6 10.5-6v21c-5.659 0-11.566 7.533-16.5 10-22.555 11.278-21.5 31.791-21.5 53ZM340 165c0 1.402 13.112 6 15 6 0-4.938 3-9.431 3-14l1-8v-6l-1-2v-2l-1-2v-1l-3-5.5c-7.519-15.038-19.157-30.828-34.5-38.5-5.575-2.787-12.08-11-18.5-11v21c5.63 0 10.679 6.59 15.5 9 22.318 11.159 23.5 30.947 23.5 54Z"/><path fill="#1D9C5A" id="MOs6a" d="M165 121c-3.298 0-6.191 7-10 7v-26c3.635 0 29.433-13.466 34.5-16l7.5 1v1c-2.539 0-13 22.662-13 26h-1c-1.235 0-5-.643-5 1-2.649 0-13 2.866-13 6ZM273 114c7.652 0 12.253 2.877 18.5 6l10.5 9c0-3.994-2-10.519-2-14.5 0-3.727 1-9.161 1-12.5v-1c-5.994 0-28.061-11.78-34.5-15l-7.5 1v1c2.829 0 14 22.941 14 26Z"/><path fill="#3FA664" id="ACAd6a" d="M186 116h1c0-1.942 12.036-12 14-12v-1c0-3.251.519-15-4-15-2.539 0-13 22.662-13 26l2 2ZM270 115h2l1-1c0-3.059-11.171-26-14-26l-2 1.5-2 13.5v1c4.228 0 12.404 11 15 11Z"/><path fill="#187E61" id="SSp-m1" d="m79 161-4 1c0-21.353-.475-29.55 9-48.5 1.294-2.587 6.287-14.5 10-14.5l1 7v1c-2.356 0-7.028 9.555-8 11.5-6.74 13.481-8 26.045-8 42.5Z"/><path fill="#2FA74F" id="PL2/3" d="M218 132h4V99l-5 1c0 10.581 1 22.09 1 32Z"/><path fill="#40A664" id="ACAv1" d="M229 151h4c0-5.915 1-12.755 1-18V99h-12v10c1.614 0 1 3.31 1 4.5V151h1c0-1.186 1-1.186 1 0h3v-2c0-6.362 1-6.362 1 0v2Z"/><path fill="#2FA74F" id="PL2/3" d="M238 132h1l1-32-6-1v33h4Z"/><path fill="#187E61" id="SSp-m1" d="m377 161 4 1c.549 0 2.646-12.209 2-13.5-2.163-4.325.13-10.741-2-15-3.731-7.463-6.227-15.454-10-23-.941-1.882-5.931-11.5-8-11.5-.574 0-1 5.472-1 8 0 .7 9.872 16.244 11 18.5 5.254 10.509 4 23.885 4 35.5Z"/><path fill="#2EA84F" id="PL5" d="M218 132c-4.358 0-9.138 3-13 3 0-10.251-4-20.01-4-31v-1l16-3c0 10.581 1 22.09 1 32ZM239 132c3.862 0 8.51 3 12 3 0-8.526 4-19.239 4-31v-1c-4.864 0-9.827-3-15-3l-1 32Z"/><path fill="#1F9B5A" id="MOp6a" d="M141 152c-8.514 0-15.488 13-24 13 0-21.209-1.055-41.722 21.5-53 4.934-2.467 10.841-10 16.5-10v26l-1 2-1 1v1c-4.449 0-12 15.11-12 19v1ZM339 165h1c0-23.053-1.182-42.841-23.5-54-4.821-2.41-9.87-9-15.5-9 0 3.339-1 8.773-1 12.5 0 3.981 2 10.506 2 14.5l1 2c4.265 0 12 16.022 12 20v1c7.3 0 17.2 13 24 13Z"/><path fill="#2FA850" id="PL6a" d="M197 137h1l7-2c0-10.251-4-20.01-4-31-1.964 0-14 10.058-14 12 0 2.427 10 14.019 10 21ZM251 135l8 2c0-2.955 8.014-21 11-21v-1c-2.596 0-10.772-11-15-11 0 11.761-4 22.474-4 31Z"/><path fill="#1A7E64" id="SSp-m2/3" d="m91 158-12 3c0-16.455 1.26-29.019 8-42.5.972-1.945 5.644-11.5 8-11.5 0 6.296 3 9.95 3 19-1.55 0-2.364 6.228-3 7.5-3.716 7.432-4 15.468-4 24.5ZM365 158l12 3c0-11.615 1.254-24.991-4-35.5-1.128-2.256-11-17.8-11-18.5h-1c0 5.518-2 11.087-2 18v3c4.636 0 6 24.518 6 30Z"/><path fill="#2FA750" id="PL1" d="M222 129h1v-15.5c0-1.19.614-4.5-1-4.5v20Z"/><path fill="#1A7E64" id="SSp-m2/3" d="M359 113c0 1.93 1.93 0 0 0Z"/><path fill="#1E9C58" id="MOs6b" d="M178 115h5v-1c-1.235 0-5-.643-5 1Z"/><path fill="#3FA466" id="ACAd6b" d="M186 116v1l-3-2v-1h1l2 2ZM272 115h1v-1l-1 1Z"/><path fill="#1E9C58" id="MOs6b" d="m303 131 1 3c-2.042 0-11.418-14-17-14 0-3.085-11.313-5-14-5v-1c7.652 0 12.253 2.877 18.5 6l10.5 9 1 2ZM169 120l-4 1c0-3.134 10.351-6 13-6l-9 5Z"/><path fill="#CACCC7" id="cing" d="m200 150-1 7c-1.643 0-1-3.765-1-5l-3-12.5c-6.377-12.753-4.632-18.5-22-18.5l-4-1 9-5h5l3 2c1.825 0 10 17.439 10 20 0 .922 2.496 8 3 8l1 5Z"/><path fill="#3FA466" id="ACAd6b" d="M270 116v1l2-2h-2v1Z"/><path fill="#CACCC7" id="cing" d="M257 160h1c0-10.351 5.294-34.397 14.5-39H283c1.145 0 4 .579 4-1 0-3.085-11.313-5-14-5h-1l-2 2-7 11.5c-.699 1.397-1.242 8.5-3 8.5 0 1.35-2.04 10-3 10v13Z"/><path fill="#2FA84F" id="PL6b" d="M196 137h1c0-6.981-10-18.573-10-21h-1v1c1.825 0 10 17.439 10 20ZM259 137h1c1.758 0 2.301-7.103 3-8.5l7-11.5v-1c-2.986 0-11 18.045-11 21Z"/><path fill="#C9C9CA" id="scwm" d="m145 169 2 2c0-14.869-.206-21.089 6-33.5 2.135-4.27 20-15.123 20-16.5l-4-1-4 1c0 1.767-9.808 12-12 12 0 3.526-9 9.587-9 17 0 5.972 1 11.193 1 17v2ZM311 170l-1 1c0-10.892-.187-21.873-5-31.5-3.248-6.495-11.971-9.971-16.5-14.5l-5.5-4c1.145 0 4 .579 4-1 5.582 0 14.958 14 17 14 0 2.159 9 10.865 9 16 0 5.789-1 11.78-1 17-1.473 0-1 1.952-1 3Z"/><path fill="#1E9C58" id="MOs6b" d="M153 132v1c2.192 0 12-10.233 12-12-3.298 0-6.191 7-10 7l-1 2-1 1v1Z"/><path fill="#CAC7CC" id="fa" d="M153 169c-2.483 0-4.026 2-6 2 0-14.869-.206-21.089 6-33.5 2.135-4.27 20-15.123 20-16.5 17.368 0 15.623 5.747 22 18.5l3 12.5c0 1.235-.643 5 1 5v4c-2.486 0-3.725 1-6 1 0-15.505-33.825-28.85-42-12.5-3.612 7.223 2 13.229 2 19.5ZM303 169c3.066 0 4.417 2 7 2 0-10.892-.187-21.873-5-31.5-3.248-6.495-11.971-9.971-16.5-14.5l-5.5-4h-10.5c-9.206 4.603-14.5 28.649-14.5 39 0 1.803 3.592 3 5 3 0-15.551 23.846-24.327 36.5-18 1.75.875 4.375 1.25 5.5 3.5 5.272 10.543-2 13.108-2 20.5Z"/><path fill="#1B7F62" id="SSp-m4" d="M359 125c-1.186 0-1.186 1 0 1v-1ZM96 157l-5 1c0-9.032.284-17.068 4-24.5.636-1.272 1.45-7.5 3-7.5 0 5.005 1 6.959 1 11-1.486 0-1.486 3 0 3l-1 5-1 1v3l-1 8ZM361 157l4 1c0-5.482-1.364-30-6-30-2.848 0 .299 8-2 8v1l1 2v2l1 2v6c.816 0 2 7.019 2 8Z"/><path fill="#3FA566" id="ACAv2/3" d="M222 151h1v-22h-1v3c0 1.738-.686 6-3 6v12c1.658 0 3-2.382 3 1Z"/><path fill="#1D9D5A" id="MOp6b" d="m154 130-1 1 1-1ZM313 150l2 1c0-3.978-7.735-20-12-20l1 3c0 2.159 9 10.865 9 16ZM144 150l-3 1c0-3.89 7.551-19 12-19v1c0 3.526-9 9.587-9 17Z"/><path fill="#59B262" id="ILA5" d="M219 150v1l-8-1c0-4.875-6-9.847-6-15 3.862 0 8.642-3 13-3l1 6v1c-.723 0-15.337 10 0 10v1Z"/><path fill="#59B362" id="ILA2/3" d="M222 132c0 1.738-.686 6-3 6l-1-6h4ZM234 133c1.368 0 1.536 6 4 6v-7h-4v1Z"/><path fill="#59B262" id="ILA5" d="M238 140c1.156 0 8 6.229 8 7 1.977 0 5-9.992 5-12-3.49 0-8.138-3-12-3h-1v8Z"/><path fill="#3FA566" id="ACAv2/3" d="M233 151h1c0-2.681 2.078-1 3-1v-1c0-3.013 1-6.611 1-9v-1c-2.464 0-2.632-6-4-6 0 5.245-1 12.085-1 18Z"/><path fill="#58B362" id="ILA6a" d="M200 150h11c0-4.875-6-9.847-6-15l-7 2 1 8 1 5ZM245 150h12v-3c0-3.702 2-7.27 2-10l-8-2c0 2.008-3.023 12-5 12l-1 3Z"/><path fill="#1F9C58" id="MOp2/3" d="M99 137c-1.486 0-1.486 3 0 3v-3Z"/><path fill="#58B263" id="ILA6b" d="m198 137 1 8c-.504 0-3-7.078-3-8h2ZM260 137c0 1.35-2.04 10-3 10 0-3.702 2-7.27 2-10h1Z"/><path fill="#1F9C58" id="MOp2/3" d="m357 137 1 2-1-2Z"/><path fill="#3EA666" id="ACAv5" d="M219 139c-.723 0-15.337 10 0 10v-10ZM246 147c-3.297 0-4.339 2-9 2 0-3.013 1-6.611 1-9 1.156 0 8 6.229 8 7Z"/><path fill="#1F9C58" id="MOp2/3" d="m358 141 1 2-1-2Z"/><path fill="#98D5F9" id="CP" d="m159 192 6.5 3 6.5-1c6.22 0 18.137-7 19-7l1-1 3-6c0-5.969-2-12.363-2-18 0-15.505-33.825-28.85-42-12.5-3.612 7.223 2 13.229 2 19.5 5.975 0 5 14.093 5 17 0 2.124 1 4.436 1 6ZM298 191c-.427 0-5.19 3.345-6.5 4l-6.5-1c-3.583 0-20-4.18-20-8 0-2.087-3-4.393-3-7l1-16c0-15.551 23.846-24.327 36.5-18 1.75.875 4.375 1.25 5.5 3.5 5.272 10.543-2 13.108-2 20.5l-4 4.5c-1.683 3.367-1 8.547-1 11.5v6Z"/><path fill="#1B7E63" id="SSp-m5" d="m98 145-1 1 1-1Z"/><path fill="#59B262" id="ILA5" d="m245 150-8 1v-2c4.661 0 5.703-2 9-2l-1 3Z"/><path fill="#1B7E63" id="SSp-m5" d="M96 157h2c0-1.49.735-8-1-8l-1 8Z"/><path fill="#59B362" id="ILA2/3" d="M219 151h3c0-3.382-1.342-1-3-1v1Z"/><path fill="#99D2BD" id="OLF" d="M227 171c.839 0 2 1.93 2 0v-22h-1v2c0 6.642-1 14.002-1 20Z"/><path fill="#59B362" id="ILA2/3" d="M234 151h3v-1c-.922 0-3-1.681-3 1Z"/><path fill="#1B7E63" id="SSp-m5" d="M358 157h3c0-.981-1.184-8-2-8l-1 8Z"/><path fill="#1F9766" id="AId6b" d="M142 169h1l2-2c0-5.807-1-11.028-1-17l-3 1v1c0 5.789 1 11.78 1 17Z"/><path fill="#A3DAA3" id="DP" d="M227 171c-3.823 0-22-1.567-22 2-4.938 0-4.212-12-6-12v-4l1-7h11l8 1h9c0 6.642-1 14.002-1 20Z"/><path fill="#59B263" id="ILA1" d="M224 151h1c0-1.186-1-1.186-1 0Z"/><path fill="#A3DAA3" id="DP" d="M229 171h21.5l1.5 2c0-1.295 5-7.357 5-13v-10h-12l-8 1h-8v20Z"/><path fill="#1F9766" id="AId6b" d="m312 167 2 2c0-5.046 1-11.325 1-17v-1l-2-1c0 5.789-1 11.78-1 17Z"/><path fill="#209666" id="AId6a" d="m131 182-2 1c-6.565 0-12-12.966-12-18 8.512 0 15.486-13 24-13 0 5.789 1 11.78 1 17l-1 1c0-6.687-12.081-1.337-14 2.5-2.278 4.556 4 7.293 4 9.5ZM325 182l2 1c6.84 0 12-12.223 12-18-6.8 0-16.7-13-24-13 0 5.675-1 11.954-1 17v1h1l3.5-3c4.507-2.253 13.785 4.93 11.5 9.5l-5 5.5Z"/><path fill="#009C74" id="GU4" d="m95 174-2 1c0-6.265-2-10.944-2-17l5-1c0 5.046-1 11.325-1 17Z"/><path fill="#019C75" id="GU5" d="m101 171-6 3c0-5.675 1-11.954 1-17h2c1.22 0 3 11.307 3 14ZM355 171l6 3v-17h-3c0 4.569-3 9.062-3 14Z"/><path fill="#009C74" id="GU4" d="M361 174h2c0-5.348 2-10.12 2-16l-4-1v17Z"/><path fill="#009B75" id="GU2/3" d="M93 175c-3.657 0-5.884 4-10 4l-2-3.5-2-14.5 12-3c0 6.056 2 10.735 2 17ZM363 174c0 1.474 9.236 6 11 6 0-6.337 3-12.245 3-19l-12-3c0 5.88-2 10.652-2 16Z"/><path fill="#99D2BD" id="OLF" d="M256 193c-4.001 0-6.961 4-11 4 0-5.911 7-14.837 7-24 0-1.295 5-7.357 5-13h1c0 1.803 3.592 3 5 3l-1 16c-.816 0-2 7.019-2 8l-4 6Z"/><path fill="#009C75" id="GU1" d="m83 180-4 1c-1.951 0-.477-2.454-1-3.5-2.095-4.19-3-10.548-3-15.5l4-1 2 14.5 2 3.5v1Z"/><path fill="#99D2BD" id="OLF" d="M200 193c3.305 0 26 14.875 26 6h-10.5c-8.129-4.065-10.5-16.616-10.5-26-4.938 0-4.212-12-6-12-2.486 0-3.725 1-6 1 0 5.637 2 12.031 2 18l2 7 3 6Z"/><path fill="#009C75" id="GU1" d="m374 180 4 1c0-6.31 3-11.988 3-19l-4-1c0 6.755-3 12.663-3 19Z"/><path fill="#209665" id="AId5" d="M129 184c0 4.689-23.346 13-28 13-3.384 0-6-19.057-6-23l6-3c5.581 0 10.842-6 16-6 0 5.034 5.435 18 12 18v1ZM327 184l9.5 7c5.733 2.867 11.586 6 18.5 6 4.537 0 6-18.702 6-23l-6-3c-1.888 0-15-4.598-15-6h-1c0 5.777-5.16 18-12 18v1Z"/><path fill="#8ADA86" id="CLA" d="m141 170 10 9.5c2.038 4.075-6.673 9.413-10.5 7.5l-9.5-5c0-2.207-6.278-4.944-4-9.5 1.919-3.837 14-9.187 14-2.5Z"/><path fill="#219665" id="AIv6b" d="M143 169c0 2.488 2 1.919 2 0v-2l-2 2ZM314 170l-1 1-2-1c0-1.048-.473-3 1-3l2 2v1Z"/><path fill="#8ADA86" id="CLA" d="M306 178c0 19.241 13.39 4 19 4l5-5.5c2.285-4.57-6.993-11.753-11.5-9.5l-3.5 3-2 1c0 1.198-4.298 6-6 6l-1 1Z"/><path fill="#1F9866" id="AIv6a" d="m151 192-8 6c0-6.092-8.113-14-14-14v-1l2-1 9.5 5c3.827 1.913 12.538-3.425 10.5-7.5l-10-9.5 1-1h1c0 2.488 2 1.919 2 0l2 2c0 4.846 7 8.245 7 13-1.186 0-1.186 1 0 1l-1 5-1 1-1 1Z"/><path fill="#C8CBCC" id="ec" d="m158 186-5 4 1-5v-1c0-4.755-7-8.154-7-13 1.974 0 3.517-2 6-2 5.975 0 5 14.093 5 17ZM298 185l6 6c0-2.171-3.141-13 2-13l1-1 3-6c-2.583 0-3.934-2-7-2l-4 4.5c-1.683 3.367-1 8.547-1 11.5Z"/><path fill="#1F9866" id="AIv6a" d="M313 171c0 1.198-4.298 6-6 6l3-6 1-1 2 1ZM315 170l-2 1 1-1h1Z"/><path fill="#61D09F" id="TTd" d="M241 199h1c0-1.577 1.762-2 3-2 0-5.911 7-14.837 7-24l-1.5-2H229c0 1.93-1.161 0-2 0-3.823 0-22-1.567-22 2 0 9.384 2.371 21.935 10.5 26H226l1-1v-1c0-2.868 2-5.427 2-1v1l1 1 1 1h10Z"/><path fill="#209765" id="AId2/3" d="M90 201h1l10-3v-1c-3.384 0-6-19.057-6-23l-2 1c-3.657 0-5.884 4-10 4v1c0 7.552 7 14.058 7 21ZM365 201h1c0-5.291 8-14.707 8-21-1.764 0-11-4.526-11-6h-2c0 4.298-1.463 23-6 23v1c3.679 0 6.731 3 10 3Z"/><path fill="#1F9866" id="AIv6a" d="m307 177-1 1 1-1ZM304 191l10 8c0-6.253 6.278-15 13-15v-1l-2-1c-5.61 0-19 15.241-19-4-5.141 0-2 10.829-2 13Z"/><path fill="#97D6F9" id="STR" d="m265 186-5 1c0-.981 1.184-8 2-8 0 2.607 3 4.913 3 7Z"/><path fill="#209764" id="AId1" d="m90 201-3 2c0-2.864-8-14.898-8-22l4-1c0 7.552 7 14.058 7 21Z"/><path fill="#97D6F9" id="STR" d="m192 186 5 1-2-7-3 6Z"/><path fill="#209764" id="AId1" d="m366 201 3 2c1.642 0 9-19.095 9-22l-4-1c0 6.293-8 15.709-8 21Z"/><path fill="#1F9865" id="AIv5" d="M131 207c-2.833 0-4.84 2-7 2 0-5.294-13.511-4.506-16.5-6l-6.5-5v-1c4.654 0 28-8.311 28-13 5.887 0 14 7.908 14 14v1l-1 1-1 1-2 2-8 4Z"/><path fill="#24895D" id="ORBl6a" d="M154 184c-1.186 0-1.186 1 0 1v-1Z"/><path fill="#1F9865" id="AIv5" d="m326 207 7 2c0-5.072 13.911-5.205 17.5-7l4.5-4v-1c-6.914 0-12.767-3.133-18.5-6l-9.5-7c-6.722 0-13 8.747-13 15v1l2 1 4.5 4c1.114.557 5.5.41 5.5 2Z"/><path fill="#99D2BD" id="OLF" d="m304 250 4 1-3.5-3-6.5-8.5c-3.567-7.135 9-10.14 9-14.5-4.885 0-7.074 4.713-12.5 2l-1.5-3.5 9-18c1.066-2.132-1.448-5.026 1.5-6.5 4.535-2.267 6.705 1 10.5 1v-1l-10-8-6-6v6c0 3.276 3.661 21-1 21 0 2.977-3.048 8-6.5 8l-1.5-2v3c2.232 0 4 19.94 4 24l11 5ZM150 250h3c3.63 0 5.974-4 10-4 0-6.706.248-11.996 3-17.5l.5-7.5 2.5 1-2-3c-1.842 0-7-1.396-7-5-1.765 0-.541-1.581-1-2.5-3.649-7.298 0-12.502 0-19.5 0-1.564-1-3.876-1-6l-5 4-1 1-1 1-8 6v1c3.695 0 5.887-1.807 9.5 0 4.573 2.287.871 6.242 2.5 9.5 2.403 4.807 5.545 9.091 8 14 .937 1.875-.879 4.69-2.5 5.5-5.028 2.514-10.337-5-14.5-5 0 .009 10.645 8.79 12 11.5 3.815 7.63-8 10.287-8 15.5Z"/><path fill="#97D6F9" id="STR" d="m192 186-1 1 1-1Z"/><path fill="#80CDF8" id="ACB" d="M214 233v9.5c-6.814 13.628-24.115 21.692-38.5 14.5-3.579-1.789-6.984-3.984-10-7l-2.5-4c0-6.706.248-11.996 3-17.5l.5-7.5 2.5 1 2 1.5c3.295 6.591 11.342-3.316 9-8-4.265-8.53-13-5.526-13 3.5-1.842 0-7-1.396-7-5 0-4.895.989-9.479 3-13.5 1.206-2.412 9-5.356 9-6.5 6.22 0 18.137-7 19-7l1-1 5 1 3 6 5 7.5c2.525 5.051 9 26.614 9 32.5ZM242 233c0 12.321 6.847 20.673 17.5 26 8.563 4.282 33.5-4.809 33.5-14 0-4.06-1.768-24-4-24-2.607 0-4.3 6.6-7.5 5-6.6-3.3-7.844-19.922 4-14 2.045 1.022 3.5 3.189 3.5 6l1.5 2c3.452 0 6.5-5.023 6.5-8 0-5.104-4.197-10.894-6-14.5l-6-3.5c-3.583 0-20-4.18-20-8l-5 1-4 6c0 3.445-3.568 5.636-5 8.5-2.453 4.905-9 26.047-9 31.5Z"/><path fill="#C8CBCC" id="ec" d="m153 190-1 1 1-1ZM152 191l-1 1 1-1Z"/><path fill="#97D6F9" id="STR" d="m285 194 6 3.5c1.803 3.606 6 9.396 6 14.5 4.661 0 1-17.724 1-21-.427 0-5.19 3.345-6.5 4l-6.5-1ZM172 194c0 1.144-7.794 4.088-9 6.5-2.011 4.021-3 8.605-3 13.5-1.765 0-.541-1.581-1-2.5-3.649-7.298 0-12.502 0-19.5l6.5 3 6.5-1ZM222 256c1.665 0 1-4.222 1-5.5 0-1.981 2.656-15.5 5.5-15.5l1.5 3.5c2.187 4.374 1.203 11.406 3 15l2 3.5c0-3.876 2-6.996 2-10-1.156 0-1.472-2.555-1-3.5.905-1.809 3.72-10.5 6-10.5 0-5.453 6.547-26.595 9-31.5 1.432-2.864 5-5.055 5-8.5-4.001 0-6.961 4-11 4 0 1.577-1.762 2-3 2h-1c0 3.218-10 4.655-10 0l-1-1-1-1v-1l-2 1v1l-1 1c0 8.875-22.695-6-26-6l5 7.5c2.525 5.051 9 26.614 9 32.5 4.298 0 6 11.031 6 15 0 2.338 2 4.862 2 8Z"/><path fill="#99D2BD" id="OLF" d="m229 196-2 1c0-2.868 2-5.427 2-1ZM229 197l1 1-1-1ZM245 197c-1.238 0-3 .423-3 2 1.238 0 3-.423 3-2Z"/><path fill="#219764" id="AIv2/3" d="m124 209-22 6c0-2.201-11-8.573-11-14l10-3 6.5 5c2.989 1.494 16.5.706 16.5 6Z"/><path fill="#A0EE9C" id="EPd" d="M145 223h1c4.163 0 9.472 7.514 14.5 5 1.621-.81 3.437-3.625 2.5-5.5-2.455-4.909-5.597-9.193-8-14-1.629-3.258 2.073-7.213-2.5-9.5-3.613-1.807-5.805 0-9.5 0l-1 1-1 1-2 2c0 3.115-4 5.701-4 10v2l4 4h1l2 2h1l2 2Z"/><path fill="#99D2BD" id="OLF" d="m227 198-1 1 1-1Z"/><path fill="#A0EE9C" id="EPd" d="m309 224-2 1c-4.885 0-7.074 4.713-12.5 2l-1.5-3.5 9-18c1.066-2.132-1.448-5.026 1.5-6.5 4.535-2.267 6.705 1 10.5 1l2 1c0 3.439 6 6.675 6 11v1l-1 2-1 1-1 1-1 1-1 1-1 1-2 1-1 1h-1l-1 1h-1l-1 1Z"/><path fill="#219764" id="AIv2/3" d="M333 209c7.169 0 14.629 6 22 6 0-4.827 10-7.817 10-14-3.269 0-6.321-3-10-3l-4.5 4c-3.589 1.795-17.5 1.928-17.5 7Z"/><path fill="#99D2BD" id="OLF" d="m143 199-1 1 1-1ZM231 199h10c0 3.218-10 4.655-10 0ZM142 200l-1 1 1-1Z"/><path fill="#209864" id="AIv1" d="m102 215-6 1c-1.659 0-9-11.178-9-13l3-2h1c0 5.427 11 11.799 11 14Z"/><path fill="#99D2BD" id="OLF" d="M326 207c-2.854 0-2.448 5-4 5 0-4.325-6-7.561-6-11l4.5 4c1.114.557 5.5.41 5.5 2Z"/><path fill="#209864" id="AIv1" d="m355 215 6 1c0-4.418 8-8.219 8-13l-3-2h-1c0 6.183-10 9.173-10 14Z"/><path fill="#99D2BD" id="OLF" d="M131 207c3.004 0 1.483 6 4 6 0-4.299 4-6.885 4-10l-8 4Z"/><path fill="#6ACAB9" id="PIR" d="M139 255h1l1-1c2.722 0 4.53-3 8-3l1-1c0-5.213 11.815-7.87 8-15.5-1.355-2.71-12-11.491-12-11.5h-1l-2-2h-1l-2-2h-1l-4-4v-2c-2.517 0-.996-6-4-6-2.833 0-4.84 2-7 2l-22 6-6 1c0 6.646 6.216 14.716 11 19.5l8 6.5c4.037 0 22 7.94 22 12l2 1ZM317 255h2c0-4.283 12.587-10.544 15.5-12 1.115-.558 6.5-2.598 6.5-1 5.426 0 20-20.631 20-26l-6-1c-7.371 0-14.831-6-22-6l-7-2c-2.854 0-2.448 5-4 5v1l-1 2-1 1-1 1-1 1-1 1-1 1-2 1-1 1h-1l-1 1h-1l-1 1-2 1c0 4.36-12.567 7.365-9 14.5l6.5 8.5 3.5 3c3.65 0 6.136 4 9 4Z"/><path fill="#CBCBC7" id="aco" d="m167 219 2 3 2 1.5c3.295 6.591 11.342-3.316 9-8-4.265-8.53-13-5.526-13 3.5ZM289 218v3c-2.607 0-4.3 6.6-7.5 5-6.6-3.3-7.844-19.922 4-14 2.045 1.022 3.5 3.189 3.5 6Z"/><path fill="#99D2BD" id="OLF" d="m322 213-1 2 1-2ZM135 215l4 4-4-4ZM321 215l-1 1 1-1ZM320 216l-1 1 1-1ZM319 217l-1 1 1-1ZM318 218l-1 1 1-1ZM140 219l2 2-2-2ZM317 219l-1 1 1-1ZM143 221l2 2-2-2ZM314 221l-1 1 1-1ZM312 222l-1 1 1-1ZM310 223l-1 1 1-1ZM309 224l-2 1 2-1Z"/><path fill="#A2B1D7" id="SI" d="m220 248-2.5-2-4.5 8.5c-1.871 3.741-11.373 8.436-15.5 10.5-9.923 4.961-26.912-3.956-35-8-1.83-.915-9.5-4.398-9.5-7 3.63 0 5.974-4 10-4l2.5 4c3.016 3.016 6.421 5.211 10 7 14.385 7.192 31.686-.872 38.5-14.5V233c4.298 0 6 11.031 6 15ZM237 247l1.5-1 3.5 6.5c5.147 5.147 10.472 9.486 16.5 12.5 9.872 4.936 26.993-3.996 35-8 1.708-.854 10.5-5.142 10.5-7l-11-5c0 9.191-24.937 18.282-33.5 14-10.653-5.327-17.5-13.679-17.5-26-2.28 0-5.095 8.691-6 10.5-.472.945-.156 3.5 1 3.5Z"/><path fill="#CAC8C7" id="lot" d="m138 259-1 1c-2.009 0-22-15.118-22-18 4.037 0 22 7.94 22 12l1 3v2ZM318 259l1 1c3.598 0 22-14.766 22-18 0-1.598-5.385.442-6.5 1-2.913 1.456-15.5 7.717-15.5 12l-1 1v3Z"/><path fill="#7FCCF7" id="OT" d="m219 265-1 1c0 5.862-7.963 10.731-12.5 13l-10 5-7-1h-25c-3.893-1.946-7.025-5.013-11-7-3.83-1.915-13.5-8.94-13.5-14v-1l-1-2v-2l1-2h1l1-1c2.722 0 4.53-3 8-3l1-1h3c0 2.602 7.67 6.085 9.5 7 8.088 4.044 25.077 12.961 35 8 4.127-2.064 13.629-6.759 15.5-10.5l4.5-8.5 2.5 2c0 2.338 2 4.862 2 8v1l-1 1v2l-1 1v1l-1 1v2ZM238 266l1 1c0 5.659 8.469 9.984 12.5 12l10 5 7-1h24c4.545-2.273 8.385-5.692 13-8 2.989-1.494 11.5-8.838 11.5-12v-1l1-1v-5l-1-1c-2.864 0-5.35-4-9-4l-4-1c0 1.858-8.792 6.146-10.5 7-8.007 4.004-25.128 12.936-35 8-6.028-3.014-11.353-7.353-16.5-12.5l-3.5-6.5-1.5 1c0 3.004-2 6.124-2 10v2l2 3v2l1 1v1Z"/><path fill="#99D2BD" id="OLF" d="m150 250-1 1 1-1ZM139 255l-1 2-1-3 2 1ZM141 254l-1 1 1-1ZM319 255l-1 1-1-1h2Z"/><path fill="#97D6F9" id="STR" d="m222 257-1 1 1-1Z"/><path fill="#99D2BD" id="OLF" d="M139 261v1l-2-2 1-1 1 2Z"/><path fill="#97D6F9" id="STR" d="m138 259 1 2-1-2ZM235 259l2 3c-1.577 0-2-1.762-2-3Z"/><path fill="#99D2BD" id="OLF" d="m319 260-1 1v-2l1 1Z"/><path fill="#97D6F9" id="STR" d="m221 260-1 1 1-1ZM317 262h1v-1l-1 1ZM220 262l-1 1 1-1Z"/><path fill="#99D2BD" id="OLF" d="m318 262-1 1v-1h1Z"/><path fill="#97D6F9" id="STR" d="m237 264 1 1-1-1ZM219 265l-1 1 1-1ZM238 266l1 1-1-1Z"/></svg>