<svg xmlns="http://www.w3.org/2000/svg" viewBox="0 0 456 320"><path fill="#1E9C59" id="MOs1" d="M227 55c-1.624 0-2.75 2-5 2l-3-4.5c-7.751-15.501-24.4-8.5-38-8.5v-5l6.5-2c8.609-4.305 29.608 2.716 33.5 10.5l6 7.5ZM234 57h1c0-3.437 2.973-4.447 4-6.5 6.787-13.575 24.654-6.5 36-6.5v-5l-6.5-2c-9.303-4.651-29.286 3.072-33.5 11.5-.958 1.916-6 3.303-6 6.5 1.624 0 2.75 2 5 2Z"/><path fill="#1E9D5A" id="MOp1" d="M129 56v6l11.5-5c7.105-3.553 32.649-12 40.5-12v-6c-10.624 0-29.239 7.37-38.5 12-1.967.984-13.5 2.692-13.5 5ZM327 56l1 7c-2.976 0-9.675-4.588-12.5-6-7.623-3.811-31.957-12-40.5-12v-6c10.029 0 29.722 7.61 38.5 12 1.96.98 13.5 2.622 13.5 5Z"/><path fill="#1E9D58" id="MOs2/3" d="M215 61h1l6-3v-1l-3-4.5c-7.751-15.501-24.4-8.5-38-8.5v1c0 5.61-1 9.359-1 14 9.551 0 15.85-11.325 30.5-4 2.36 1.18 4.5 3.043 4.5 6ZM277 59c-10.55 0-16.285-11.107-30.5-4-2.119 1.06-5.5 3.158-5.5 6-1.417 0-6-2.383-6-4 0-3.437 2.973-4.447 4-6.5 6.787-13.575 24.654-6.5 36-6.5v1c0 4.504 2 9.733 2 14Z"/><path fill="#1F9C58" id="MOp2/3" d="M128 78v7c6.878 0 42.409-24 51-24l1-1v-1c0-4.641 1-8.39 1-14-7.851 0-33.395 8.447-40.5 12L129 62v1c0 4.635-1 9.828-1 15ZM328 78v7c-3.252 0-7.595-4.547-10.5-6-9.656-4.828-20.374-8.187-30-13L277 60v-1c0-4.267-2-9.496-2-14 8.543 0 32.877 8.189 40.5 12 2.825 1.412 9.524 6 12.5 6v15Z"/><path fill="#1F9D58" id="MOs5" d="M201 73c-2.762 0-6.755-3.873-10.5-2-3.962 1.981-8.932 7-13.5 7l2-17 1-1v-1c9.551 0 15.85-11.325 30.5-4 2.36 1.18 4.5 3.043 4.5 6 0 .926-13.485 12-14 12Z"/><path fill="#1F9D58" id="MOs5" fill-rule="evenodd" d="M261 57c0 1.93 1.93 0 0 0m-6 16c2.926 0 6.701-3.9 10.5-2 3.815 1.908 9.117 7 13.5 7 0-6.6-2-11.5-2-18v-1c-10.55 0-16.285-11.107-30.5-4-2.119 1.06-5.5 3.158-5.5 6v1c5.744 0 9.186 11 14 11Z"/><path fill="#3EA665" id="ACAd1" d="M222 85h12V57c-2.25 0-3.376-2-5-2 0 2.488-2 1.919-2 0-1.624 0-2.75 2-5 2v28Z"/><path fill="#197E64" id="SSp-ul1" d="m102 70 3 4c6.538 0 16.81-11 24-11v-7c-3.301 0-27 12.324-27 14ZM351 75h1l3-5c-4.779 0-19.627-14-28-14l1 7 18.5 8 4.5 4Z"/><path fill="#40A565" id="ACAd2/3" d="m234 85 5 1V67.5c0-1.532.173-5.5 2-5.5v-1c-1.417 0-6-2.383-6-4h-1v28Z"/><path fill="#1E9C5A" id="MOp5" d="M261 57c0 1.93 1.93 0 0 0Z"/><path fill="#40A565" id="ACAd2/3" d="m222 85-5 1c0-8.274-1-17.385-1-25l6-3v27Z"/><path fill="#1E9C5A" id="MOp5" d="m180 60-1 1 1-1ZM328 85c0 5.16 1 9.104 1 15l-10.5-5c-8.74-4.37-19.261-5.63-28-10-3.521-1.76-7.382-6-11.5-6v-1c0-6.6-2-11.5-2-18l10.5 6c9.626 4.813 20.344 8.172 30 13 2.905 1.453 7.248 6 10.5 6ZM128 86c0 5.074-1 10.514-1 14 1.36 0 35.304-13.402 38.5-15 3.447-1.724 7.466-6 11.5-6v-1l2-17c-8.591 0-44.122 24-51 24v1Z"/><path fill="#3EA566" id="ACAd5" d="M217 86c-4.093 0-11.073 7-13 7l-1-14.5c0-1.295-.571-4.5-2-4.5v-1c.515 0 14-11.074 14-12h1c0 7.615 1 16.726 1 25ZM252 93h1c0-2.806-1.084-18 2-18v-2c-4.814 0-8.256-11-14-11-1.827 0-2 3.968-2 5.5V86c4.303 0 11.624 7 13 7Z"/><path fill="#197F61" id="SSp-ul2/3" d="m128 78-16 7-7-10v-1c6.538 0 16.81-11 24-11 0 4.635-1 9.828-1 15ZM328 78l16 7c2.211 0 7-7.41 7-10l-4.5-4-18.5-8v15Z"/><path fill="#187E61" id="SSp-m1" d="m57 139 5 1c2.144 0 .38-4.262 1-5.5l4-14c5.583-11.167 15.508-31.504 27.5-37.5 2.422-1.211 6.896-8 10.5-8v-1l-3-4c-3.934 0-14.129 10.629-17.5 14-9.29 9.29-14.835 19.171-20.5 30.5-2.24 4.479-1.777 10.553-4 15l-3 9.5ZM399 139l-5 2c0-12.781-15.958-47.729-26.5-53-4.408-2.204-11.754-13-15.5-13l3-5c2.958 0 11.255 9.878 13.5 11 13.642 6.821 30.5 43.075 30.5 58Z"/><path fill="#1D9C5A" id="MOs6a" d="m180 99-4 1c0-7.15 1-14.403 1-21v-1c4.568 0 9.538-5.019 13.5-7 3.745-1.873 7.738 2 10.5 2v1c0 3.543-12 15.478-12 23-1.923 0-9-.156-9 2ZM267 97c4.99 0 8.551 2 13 2 0-1.973 2.182-6.136 1-8.5-1.204-2.407-2-8.926-2-11.5v-1c-4.383 0-9.685-5.092-13.5-7-3.799-1.9-7.574 2-10.5 2v2c3.851 0 12 18.37 12 22Z"/><path fill="#3FA664" id="ACAd6a" d="M189 97c3.625 0 3.563 4 6 4l9-8-1-14.5c0-1.295-.571-4.5-2-4.5 0 3.543-12 15.478-12 23Z"/><path fill="#1A7E64" id="SSp-m2/3" d="M62 141c3.948 0 6.604 4 10 4 0-13.271 15.135-44.317 26.5-50 3.684-1.842 8.251-9 13.5-9v-1l-7-10c-3.604 0-8.078 6.789-10.5 8-11.992 5.996-21.917 26.333-27.5 37.5l-4 14c-.62 1.238 1.144 5.5-1 5.5v1Z"/><path fill="#3FA664" id="ACAd6a" d="M262 101h1c0-1.238.423-3 2-3l2-1c0-3.63-8.149-22-12-22-3.084 0-2 15.194-2 18 0 1.543 7.388 8 9 8Z"/><path fill="#1A7E64" id="SSp-m2/3" d="m394 141-9 3c0-13.28-11.345-27.19-17-38.5l-5-5c-2.379-4.758-13.89-14.5-19-14.5v-1c2.211 0 7-7.41 7-10h1c3.746 0 11.092 10.796 15.5 13 10.542 5.271 26.5 40.219 26.5 53Z"/><path fill="#1A7F63" id="SSp-ul4" d="m128 86-11 6c-1.777 0-5-4.013-5-6v-1l16-7v8ZM339 93h1c0-2.883 4-3.738 4-7v-1l-16-7v7c1.433 0 11 6.677 11 8Z"/><path fill="#1F9B5A" id="MOp6a" d="M157 109c-7.679 0-24.837 14-28 14 0-5.675-2-10.489-2-16v-7c1.36 0 35.304-13.402 38.5-15 3.447-1.724 7.466-6 11.5-6 0 6.597-1 13.85-1 21l-1 1c-1.424 0-5 .362-5 2-2.172 0-13 4.018-13 6ZM329 108c0 2.234.354 14-2 14-4.808 0-38.565-22-47-22v-1c0-1.973 2.182-6.136 1-8.5-1.204-2.407-2-8.926-2-11.5 4.118 0 7.979 4.24 11.5 6 8.739 4.37 19.26 5.63 28 10l10.5 5v8Z"/><path fill="#3FA566" id="ACAv2/3" d="m221 122-3 1-1-37 5-1v33l-1 4Z"/><path fill="#40A664" id="ACAv1" d="M229 113c2.832 0 2.953 5 5 5V85h-12v33l5-5c0-2.564 2-2.564 2 0Z"/><path fill="#3FA566" id="ACAv2/3" d="m236 122 2 1c0-11.611 1-24.728 1-37l-5-1v33l2 4Z"/><path fill="#187E62" id="SSp-ul5" d="M332 103h2l5-10c0-1.323-9.567-8-11-8 0 5.16 1 9.104 1 15v1c1.238 0 3 .423 3 2Z"/><path fill="#1B7F62" id="SSp-m4" d="M72 145c2.765 0 5.165 2 7 2 0-11.147 14.813-39.657 25.5-45 4.353-2.177 7.345-9 12.5-9v-1c-1.777 0-5-4.013-5-6-5.249 0-9.816 7.158-13.5 9-11.365 5.683-26.5 36.729-26.5 50Z"/><path fill="#187E62" id="SSp-ul5" d="M123 103h1c0-1.577 1.762-2 3-2v-1c0-3.486 1-8.926 1-14l-11 6v1c0 3.141 6 6.063 6 10Z"/><path fill="#3EA666" id="ACAv5" d="M209 119c2.759 0 5.795 4 9 4l-1-37c-4.093 0-11.073 7-13 7l1 14.5 4 11.5ZM247 119c-2.864 0-5.35 4-9 4 0-11.611 1-24.728 1-37 4.303 0 11.624 7 13 7l-1 15.5-4 10.5Z"/><path fill="#1B7F62" id="SSp-m4" d="m385 144-7 2c-1.951 0-.477-2.454-1-3.5l-4-11c-6.05-12.099-13.822-27.661-27.5-34.5l-5.5-4c0-2.883 4-3.738 4-7 5.11 0 16.621 9.742 19 14.5l5 5c5.655 11.31 17 25.22 17 38.5Z"/><path fill="#1B7E63" id="SSp-m5" d="M89 154h1c0-14.296 8.533-37.016 20.5-43 3.483-1.742 8.622-8 12.5-8 0-3.938-6-6.859-6-10-5.155 0-8.147 6.823-12.5 9-10.687 5.343-25.5 33.853-25.5 45 4.375 0 10 1.902 10 7Z"/><path fill="#40A564" id="ACAv6a" d="m207 118 2 1-4-11.5-1-14.5-9 8v1c0 5.604 10 8.664 10 14l2 2ZM250 118l-3 1 4-10.5 1-15.5h1c0 1.543 7.388 8 9 8v1l-2.5 3c-1.391 1.391-7.5 8.744-7.5 10l-1 1-1 2Z"/><path fill="#1B7E63" id="SSp-m5" d="M378 147c-4.886 0-7.738 4-11 4-1.043 0-2-5.353-2-6.5 0-5.642-3.574-13.147-6-18-3.19-6.379-10.702-16.101-17.5-19.5-1.475-.737-7.5-1.705-7.5-4l5-10h1l5.5 4c13.678 6.839 21.45 22.401 27.5 34.5l4 11c.523 1.046-.951 3.5 1 3.5v1Z"/><path fill="#1E9C58" id="MOs6b" d="m189 98-9 1c0-2.156 7.077-2 9-2v1Z"/><path fill="#3FA466" id="ACAd6b" d="M194 102h1v-1c-2.437 0-2.375-4-6-4v1c2.813 0 3.461 4 5 4ZM265 98h2v-1l-2 1Z"/><path fill="#1E9C58" id="MOs6b" d="M280 100v1c-3.999 0-8.392-3-13-3v-1c4.99 0 8.551 2 13 2v1Z"/><path fill="#CACCC7" id="cing" d="m205 116 2 2c-9.601 0-12.951-12.226-20.5-16-5.579-2.79-12.464 5-17.5 5l-1 1h-1l-2 1h-4c0-3.801 9-2.603 9-6 1.622 0 5 .461 5-2h1l4-2 9-1c2.813 0 3.461 4 5 4 0 2.904 7.349 14 11 14Z"/><path fill="#3FA466" id="ACAd6b" d="M265 98c-1.577 0-2 1.762-2 3 1.577 0 2-1.762 2-3Z"/><path fill="#CACCC7" id="cing" d="m251 116-1 2c8.649 0 12.578-12.539 19.5-16 5.797-2.898 12.649 5 17.5 5 3.157 0 5.481 2 9 2 0-2.341-2.342-1.421-3.5-2-3.348-1.674-8.746-6-12.5-6-3.999 0-8.392-3-13-3h-2c0 1.238-.423 3-2 3v1c0 3.176-7.449 13-11 13l-1 1Z"/><path fill="#1E9C58" id="MOs6b" d="M176 100v1l4-2-4 1Z"/><path fill="#1D9D5A" id="MOp6b" d="M175 101h1v-1l-1 1ZM327 123v1c-4.996 0-22.539-15-31-15 0-2.341-2.342-1.421-3.5-2-3.348-1.674-8.746-6-12.5-6v-1c8.435 0 42.192 22 47 22v1Z"/><path fill="#197D61" id="SSp-ul6a" d="M124 103c0 1.429 1.288 4 3 4v-6c-1.238 0-3 .423-3 2Z"/><path fill="#1D9D5A" id="MOp6b" d="M175 101c-1.424 0-5 .362-5 2 1.622 0 5 .461 5-2Z"/><path fill="#3FA466" id="ACAd6b" d="M262 102h1v-1h-1v1Z"/><path fill="#197D61" id="SSp-ul6a" d="M332 103c0 1.408-1.197 5-3 5v-7c1.238 0 3 .423 3 2Z"/><path fill="#C9C7C9" id="ccb" d="m236 122 2 1c3.65 0 6.136-4 9-4l3-1c8.649 0 12.578-12.539 19.5-16 5.797-2.898 12.649 5 17.5 5l5 3c-25.857 0-22.864 7.682-41.5 17-5.116 2.558-10.947 3.474-16 6-2.028 1.014-4.612-1-6-1-14.595 0-19.3-4.65-32-11l-8-7c-6.547-3.273-15.688-4-23.5-4v-1l2-1h1l1-1c5.036 0 11.921-7.79 17.5-5 7.549 3.774 10.899 16 20.5 16l2 1c2.759 0 5.795 4 9 4l3-1c0 1.951 2.454.477 3.5 1 3.248 1.624 7.422-1 11.5-1Z"/><path fill="#40A465" id="ACAv6b" d="M195 102c0 5.604 10 8.664 10 14-3.651 0-11-11.096-11-14h1ZM263 102c0 3.176-7.449 13-11 13 0-1.256 6.109-8.609 7.5-10l2.5-3h1Z"/><path fill="#187D61" id="SSp-m6a" d="M89 166h1l15-1v-1c0-12.571 6.747-24.247 15.5-33l8.5-8c0-5.675-2-10.489-2-16-1.712 0-3-2.571-3-4h-1c-3.878 0-9.017 6.258-12.5 8-11.967 5.984-20.5 28.704-20.5 43 0 1.574.751 9-1 9v3Z"/><path fill="#1D9D5A" id="MOp6b" d="M157 109h4c0-3.801 9-2.603 9-6-2.172 0-13 4.018-13 6Z"/><path fill="#187D61" id="SSp-m6a" d="m352 165 15 1v-2c-1.186 0-1.186-1 0-1v-6c-1.186 0-1.186-1 0-1v-5c-1.043 0-2-5.353-2-6.5 0-5.642-3.574-13.147-6-18-3.19-6.379-10.702-16.101-17.5-19.5-1.475-.737-7.5-1.705-7.5-4h-2c0 1.408-1.197 5-3 5 0 2.234.354 14-2 14v1c3.452 0 6.498 6.999 8.5 8 6.249 3.124 12.081 16.663 15.5 23.5V165h1Z"/><path fill="#C9C9CA" id="scwm" d="m169 107-1 1 1-1ZM327 124l12 12.5c4.886 9.772 11 16.541 11 28.5-1.344 0-1.387-7.273-2-8.5l-7-15c-5.586-11.171-37.893-31.5-49-31.5l-5-3c3.157 0 5.481 2 9 2 8.461 0 26.004 15 31 15ZM167 108l-2 1 2-1Z"/><path fill="#1D9D5A" id="MOp6b" d="M129 123v2l6.5-5 21.5-11c-7.679 0-24.837 14-28 14Z"/><path fill="#C9C9CA" id="scwm" d="M129 125c0 1.491-12 9.175-12 14l14.5-14c8.691-4.345 23.775-15 33.5-15v-1h-8l-21.5 11-6.5 5Z"/><path fill="#CCC7C9" id="ccg" d="m350 167-2 1c0-17.908-14.429-35.464-29.5-43l-18-6c-3.831-1.915-31.5-1.156-31.5 3l-1 1c-1.572 0-7 2.052-7 4-1.238 0-3 .423-3 2-1.238 0-3 .423-3 2-1.238 0-3 .423-3 2-1.238 0-3 .423-3 2h-1l-1 1c-3.876 0-10.905 8.298-15.5 6l-3-3c-1.389-.694-3.217 4.391-6 3-1.631-.815-12.579-6-13.5-6l-4-3.5c-2.492-2.492-12.515-9.5-16-9.5l-4.5-4-21-1c-6.26 3.13-14.708 1.854-21 5-16.087 8.044-34.5 24.462-34.5 44h-2v-1c2.064 0 .426-3.353 1-4.5l3-10.5 1-2 1-2 1-2c1.577 0 2-1.762 2-3 1.577 0 2-1.762 2-3l14.5-14c8.691-4.345 23.775-15 33.5-15 7.812 0 16.953.727 23.5 4l8 7c12.7 6.35 17.405 11 32 11 1.388 0 3.972 2.014 6 1 5.053-2.526 10.884-3.442 16-6 18.636-9.318 15.643-17 41.5-17 11.107 0 43.414 20.329 49 31.5l7 15c.613 1.227.656 8.5 2 8.5v2Z"/><path fill="#7ED04B" id="IG" d="M221 122c0 1.951 2.454.477 3.5 1 3.248 1.624 7.422-1 11.5-1l-2-4c-2.047 0-2.168-5-5-5 0 1.93-1.161 0-2 0l-5 5-1 4Z"/><path fill="#40A465" id="ACAv6b" d="m252 115-1 1 1-1Z"/><path fill="#98D5F9" id="CP" d="m127 229 8 5c12.429 0 29.136 4.228 36-9.5 2.019-4.038 1.971-8.942 4-13l10.5-9.5 3.5-2 2-1c0-4.044 1-7.967 1-11.5 0-1.19-.614-4.5 1-4.5v-8c0-1.048-.473-3 1-3l1-9 1-1v-1c0-7.178 2.057-19.386-1-25.5-1.364-2.728-4-5.269-4-8.5l-2-4-4.5-4-21-1c-6.26 3.13-14.708 1.854-21 5-16.087 8.044-34.5 24.462-34.5 44 0 10.206.818 18.136 5 26.5l2 15c1.042 2.084 2 2.908 2 5.5v1l2 3v1l1 1 1 2 2 2v1l4 4ZM329 229l-7 5c-11.247 0-20.372 2.064-30.5-3-10.66-5.33-5.155-20.577-20-28l-4.5-3-2-2-1-15.5c0-1.278.665-5.5-1-5.5v-6l-1-1-1-8c0-4.813-3.473-14.555-1-19.5 1.897-3.795 5-11.223 5-15.5l3-4 1-1c0-4.156 27.669-4.915 31.5-3l18 6c15.071 7.536 29.5 25.092 29.5 43 0 17.219-7 27.638-7 42-1.638 0-2 3.576-2 5v1l-1 1-1 1v2l-1 1-1 1v1l-1 1-1 1-1 2-1 1-2 1Z"/><path fill="#AAA8A9" id="SEZ" d="m269 122-1 1 1-1Z"/><path fill="#188064" id="SSp-m6b" d="M105 164h1c0-2.54 1.064-13 4-13l1-2 1-2 1-2c0-1.238.423-3 2-3 0-1.238.423-3 2-3 0-4.825 12-12.509 12-14v-2l-8.5 8c-8.753 8.753-15.5 20.429-15.5 33Z"/><path fill="#AAA8A9" id="SEZ" d="M191 127c7.28 0 12.402 9 18 9l-4-3.5c-2.492-2.492-12.515-9.5-16-9.5l2 4ZM261 127h4l3-4c-1.572 0-7 2.052-7 4Z"/><path fill="#188064" id="SSp-m6b" d="M350 165h1v-10.5c-3.419-6.837-9.251-20.376-15.5-23.5-2.002-1.001-5.048-8-8.5-8v1l12 12.5c4.886 9.772 11 16.541 11 28.5Z"/><path fill="#A8AAAA" id="VL" d="m198 158-2 3c0-7.178 2.057-19.386-1-25.5-1.364-2.728-4-5.269-4-8.5 7.28 0 12.402 9 18 9 0 8.99-10 14.48-10 21l-1 1Z"/><path fill="#AAA8A9" id="SEZ" d="M261 127c-1.238 0-3 .423-3 2 1.238 0 3-.423 3-2Z"/><path fill="#A8AAAA" id="VL" d="m260 161 1 1c0-4.813-3.473-14.555-1-19.5 1.897-3.795 5-11.223 5-15.5h-4c0 1.577-1.762 2-3 2 0 1.577-1.762 2-3 2 0 1.577-1.762 2-3 2 0 1.577-1.762 2-3 2l-1 1-1 1c0 7.873 12 15.826 12 22v1l1 1Z"/><path fill="#AAA8A9" id="SEZ" d="M258 129c-1.238 0-3 .423-3 2 1.238 0 3-.423 3-2ZM255 131c-1.238 0-3 .423-3 2 1.238 0 3-.423 3-2ZM252 133c-1.238 0-3 .423-3 2 1.238 0 3-.423 3-2Z"/><path fill="#97D6F9" id="STR" d="M247 136h1v-1l-1 1Z"/><path fill="#AAA8A9" id="SEZ" d="m249 135-1 1v-1h1Z"/><path fill="#97D6F9" id="STR" d="M199 157c6.491 0 25.619-17.441 32.5-14 7.211 3.606 13.908 7.454 21 11l6.5 5c0-6.174-12-14.127-12-22v-1c-3.876 0-10.905 8.298-15.5 6l-3-3c-1.389-.694-3.217 4.391-6 3-1.631-.815-12.579-6-13.5-6 0 8.99-10 14.48-10 21Z"/><path fill="#AAA8A9" id="SEZ" d="m248 136-1 1v-1h1Z"/><path fill="#1A7E62" id="SSs1" d="m61 174-5 1c0-11.663 1-24.065 1-36l5 1v1c0 10.054-1 21.319-1 32v1Z"/><path fill="#C9C9CA" id="scwm" d="M117 139c-1.577 0-2 1.762-2 3 1.577 0 2-1.762 2-3Z"/><path fill="#1A7E62" id="SSs1" d="m395 173 5 2c0-6.093 4.081-19.338 1-25.5-1.418-2.837-2-7.169-2-10.5l-5 2c0 2.805.693 9.886 2 12.5l-1 19.5Z"/><path fill="#1B8063" id="SSs2/3" d="M70 171c-2.755 0-5.553 2-9 2 0-10.681 1-21.946 1-32 3.948 0 6.604 4 10 4 0 8.111-2 16.993-2 26ZM387 171c0 1.434 6.448 2 8 2l1-19.5c-1.307-2.614-2-9.695-2-12.5l-9 3c0 9.28 2 17.387 2 27Z"/><path fill="#C9C9CA" id="scwm" d="M115 142c-1.577 0-2 1.762-2 3 1.577 0 2-1.762 2-3Z"/><path fill="#90CAED" id="LSr" d="m221 209-2.5 4c-1.812.906-5.5-1.057-5.5-3 0-1.259 4.356-3.788 3-6.5-1.229-2.458-.794-5.587-2-8L197.5 175c-2.116-1.058-2.898 2-4.5 2v-2c1.473 0 1-1.952 1-3l1-9 1-1v-1l2-3 1-1c6.491 0 25.619-17.441 32.5-14 7.211 3.606 13.908 7.454 21 11l6.5 5v1l1 1 1 1 1 8 1 1v5l-3.5-1c-7.421 3.71-14.948 17.397-18.5 24.5-1.798 3.595 2 9.64 2 10.5 0 1.943-3.688 3.906-5.5 3l-2.5-5c0-11.241-4-20.957-4-32l-2.5-25-1.5 5-1 18c-1.473 0-1 1.952-1 3 0 11.331-4 20.771-4 32Z"/><path fill="#187C63" id="SSs4" d="M386 171h1c0-9.613-2-17.72-2-27l-7 2v1l3 23 5 1ZM76 170c-1.564 0-3.876 1-6 1 0-9.007 2-17.889 2-26 2.765 0 5.165 2 7 2l-2 5.5-1 17.5Z"/><path fill="#C9C9CA" id="scwm" d="m113 145-1 2 1-2Z"/><path fill="#1C8063" id="SSs5" d="M89 167c-4.67 0-8.668 3-13 3l1-17.5 2-5.5c4.375 0 10 1.902 10 7v13Z"/><path fill="#C9C9CA" id="scwm" d="m112 147-1 2 1-2Z"/><path fill="#1C8063" id="SSs5" d="M367 167c5.264 0 9.167 3 14 3l-3-23c-4.886 0-7.738 4-11 4v16Z"/><path fill="#C9C9CA" id="scwm" d="m111 149-1 2 1-2ZM106 164v2c2.064 0 .426-3.353 1-4.5l3-10.5c-2.936 0-4 10.46-4 13Z"/><path fill="#97D6F9" id="STR" d="m226 174 2.5-3 2.5 5-2.5-25-1.5 5-1 18Z"/><path fill="#197D63" id="SSs6a" d="M90 154c0 1.574.751 9-1 9v-9h1ZM367 156c-1.186 0-1.186 1 0 1v-1Z"/><path fill="#97D6F9" id="STR" d="m199 157-1 1 1-1ZM259 160l1 1-1-1Z"/><path fill="#A8AAAA" id="VL" d="m196 162-1 1 1-1Z"/><path fill="#197D63" id="SSs6a" d="M367 163c-1.186 0-1.186 1 0 1v-1Z"/><path fill="#019C74" id="GU6b" d="M105 179h1l1-1-1-11v-3h-1v15Z"/><path fill="#009B74" id="GU6a" d="M105 179c-5.094 0-9.633 5-15 5 0-4.919-1-11.413-1-17l1-1 15-1v14Z"/><path fill="#019C74" id="GU6b" d="m349 178 2 1 1-14h-2v2l-1 11Z"/><path fill="#009B74" id="GU6a" d="M351 179c5.627 0 9.932 5 16 5v-18l-15-1-1 14Z"/><path fill="#197D63" id="SSs6a" d="m90 166-1 1v-1h1Z"/><path fill="#019C75" id="GU5" d="M90 185c-5.043 0-8.362 5-13 5 0-2.123-1-7.499-2-9.5l1-10.5c4.332 0 8.33-3 13-3 0 5.587 1 12.081 1 17v1Z"/><path fill="#C8CBCC" id="ec" d="m115 211 2 3c0-2.592-.958-3.416-2-5.5l-2-15c-4.182-8.364-5-16.294-5-26.5h-2l1 11 2 11 2 10c1.663 0 2 5.407 2 7 1.014 0 2 3.959 2 5ZM341 210h1l1-4c0-1.424.362-5 2-5v-2c0-1.424.362-5 2-5v-5c0-3.205 2-6.924 2-11l1-11-2 1c0 17.219-7 27.638-7 42Z"/><path fill="#019C75" id="GU5" d="M367 185c5.281 0 8.089 5 13 5 0-6.134 1-13.266 1-20-4.833 0-8.736-3-14-3v18Z"/><path fill="#009C74" id="GU4" d="m77 190-2 1c0-2.027-5-14.336-5-20 2.124 0 4.436-1 6-1l-1 10.5c1 2.001 2 7.377 2 9.5Z"/><path fill="#A8AAAA" id="VL" d="m262 170 1 1-1-1Z"/><path fill="#009C74" id="GU4" d="m380 190 2 1c0-6.331 4-12.777 4-20l-5-1c0 6.734-1 13.866-1 20Z"/><path fill="#009B75" id="GU2/3" d="M66 195h1c0-2.76 5.243-4 8-4 0-2.027-5-14.336-5-20-2.755 0-5.553 2-9 2v1l5 21Z"/><path fill="#96A7D3" id="MS" d="M220 233h16c0-8.418-1-17.172-1-25 0-11.241-4-20.957-4-32l-2.5-5-2.5 3c0 1.048.473 3-1 3 0 11.331-4 20.771-4 32l-1 24Z"/><path fill="#009B75" id="GU2/3" d="M382 191c1.829 0 8 1.371 8 3 1.951 0 .477-2.454 1-3.5 2.448-4.896 4-11.696 4-17.5-1.552 0-8-.566-8-2h-1c0 7.223-4 13.669-4 20Z"/><path fill="#A8AAAA" id="VL" d="M194 172c-1.473 0-1 1.952-1 3 1.473 0 1-1.952 1-3Z"/><path fill="#009C75" id="GU1" d="m390 195 4 1c1.8 0 .517-3.017 1.5-4l4.5-17-5-2c0 5.804-1.552 12.604-4 17.5-.523 1.046.951 3.5-1 3.5v1ZM66 195l-4 1-6-21 5-1 5 21Z"/><path fill="#97D6F9" id="STR" d="M226 174c-1.473 0-1 1.952-1 3 1.473 0 1-1.952 1-3Z"/><path fill="#8FCBED" id="LSv" d="M203 204c3.19 0 5.985 6 10 6 0-1.259 4.356-3.788 3-6.5-1.229-2.458-.794-5.587-2-8L197.5 175c-2.116-1.058-2.898 2-4.5 2v6c0 5.263 2 9.23 2 14l2 2h1l2 2 3 3ZM253 204c-3.371 0-5.534 6-10 6 0-.86-3.798-6.905-2-10.5 3.552-7.103 11.079-20.79 18.5-24.5l3.5 1v1c0 6.102-1 12.479-1 18l-3 4h-1l-1 1-2 2-1 1-1 1Z"/><path fill="#A8AAAA" id="VL" d="M263 199c0 5.662 2 7.85 2 1v-2l-1-15.5c0-1.278.665-5.5-1-5.5 0 6.102-1 12.479-1 18l1 4Z"/><path fill="#1F9766" id="AId6b" d="M108 189h1l-2-11-1 1 1 9 1 1ZM347 189h2l2-10-2-1c0 4.076-2 7.795-2 11Z"/><path fill="#209666" id="AId6a" d="m101 201-6 2c0-4.87-5-11.12-5-18v-1c5.367 0 9.906-5 15-5h1l1 9c-9.876 0-6 5.628-6 13ZM362 202l-1 1-6-2c0-4.847 3.143-11.178-2.5-14l-3.5 2 2-10c5.627 0 9.932 5 16 5v1c0 6.012-5 11.622-5 17Z"/><path fill="#A8AAAA" id="VL" d="M194 199c0 4.816-3 8.404-3 1v-1c0-4.044 1-7.967 1-11.5 0-1.19-.614-4.5 1-4.5 0 5.263 2 9.23 2 14l-1 2Z"/><path fill="#209665" id="AId5" d="M83 205h1c3.451 0 7.022-2 11-2 0-4.87-5-11.12-5-18-5.043 0-8.362 5-13 5 0 5.501 6 12.993 6 15ZM373 205h1c0-3.397 6-10.531 6-15-4.911 0-7.719-5-13-5 0 6.012-5 11.622-5 17 0 .745 9.679 3 11 3Z"/><path fill="#8ADA86" id="CLA" d="M111 199c0 9.947-10 10.826-10 2 0-7.372-3.876-13 6-13l1 1c0 1.465 1.627 10 3 10ZM345 201c0 7.614 10 8.002 10 0 0-4.847 3.143-11.178-2.5-14l-3.5 2-2 4v1l-1 5-1 2Z"/><path fill="#209666" id="AId6a" d="m109 189 2 10c-1.373 0-3-8.535-3-10h1ZM349 189l-2 4v-4h2Z"/><path fill="#209765" id="AId2/3" d="M71 207h1c3.378 0 6.921-2 11-2 0-2.007-6-9.499-6-15l-2 1c-2.757 0-8 1.24-8 4v3l1 1v1l1 1v2l2 3v1ZM385 206v1c-3.695 0-6.865-2-11-2 0-3.397 6-10.531 6-15l2 1c1.829 0 8 1.371 8 3v1l-1 4-1 1v1l-1 1v2l-2 2Z"/><path fill="#209666" id="AId6a" d="M345 199h1l1-5c-1.638 0-2 3.576-2 5Z"/><path fill="#219765" id="AIp1" d="m76 218-5 1c0-2.868-9-16.861-9-23l4-1h1v3l1 1v1l1 1v2c0 1.238.423 3 2 3v1l5 11Z"/><path fill="#97D6F9" id="STR" d="M259 199h4l-1-4-3 4Z"/><path fill="#219765" id="AIp1" d="m381 218 4 1c1.984 0 9-19.7 9-23l-4-1-1 4-1 1v1l-1 1v2c0 1.747-.253 2-2 2v2c0 2.003.293 3-2 3 0 1.465.109 4-2 4l-1 1v1l1 1Z"/><path fill="#97D6F9" id="STR" d="M194 199h3l-2-2-1 2Z"/><path fill="#209764" id="AId1" d="m67 198 1 1-1-1Z"/><path fill="#97D6F9" id="STR" d="M265 200h2l-2-2v2Z"/><path fill="#1F9866" id="AIv6a" d="M107 209h1l5-3c0-1.593-.337-7-2-7 0 9.947-10 10.826-10 2l-6 2 4 9 8-3Z"/><path fill="#97D6F9" id="STR" d="M189 200h2v-1l-2 1Z"/><path fill="#80CDF8" id="ACB" fill-rule="evenodd" d="m183 209-5 6.5c-2.956 5.912 4.019 9.74 8.5 7.5 7.826-3.913 6.142-14-3.5-14m-49 28c0 6.092 4 11.601 4 17 0 2.129 3.181 4.341 4.5 5l3 4h7c9.847 4.924 24.076-1.038 32-5 .723-.362 15.619-17.738 16.5-19.5.728-1.456 1.87-7.5 4-7.5 0-1.048-.473-3 1-3 0-4.141 4.288-10.923 2-15.5l-5-8.5-3-3-2-2h-4c0 4.816-3 8.404-3 1h-2l-3.5 2-10.5 9.5c-2.029 4.058-1.981 8.962-4 13-6.864 13.728-23.571 9.5-36 9.5l-1 3Z"/><path fill="#97D6F9" id="STR" d="m198 199 2 2-2-2ZM258 199l-1 1 1-1Z"/><path fill="#80CDF8" id="ACB" fill-rule="evenodd" d="m267 209-2 6.5c10.685 21.369 23.033-6.5 2-6.5m56 27c0 6.462-4 11.573-4 18l-8.5 9c-3.357 1.679-25.608 1.696-29 0-10.671-5.335-16.741-14.741-25-23-1.74-1.74-2.946-10-5.5-10v-1l-1-2-2-12.5c1.231-2.461 5-7.877 5-10.5l1-1 1-1 2-2 1-1h5c0 5.662 2 7.85 2 1h2l4.5 3c14.845 7.423 9.34 22.67 20 28 10.128 5.064 19.253 3 30.5 3l1 2Z"/><path fill="#1F9866" id="AIv6a" d="m346 199-1 2v-2h1Z"/><path fill="#209764" id="AId1" d="m389 199-1 1 1-1ZM68 200l1 1-1-1Z"/><path fill="#1F9866" id="AIv6a" d="M349 209c2.885 0 4.697 2 8 2l4-8-6-2c0 8.002-10 7.614-10 0-1.638 0-2 3.576-2 5l6 3Z"/><path fill="#209764" id="AId1" d="m388 201-1 1 1-1Z"/><path fill="#97D6F9" id="STR" d="m255 202-1 1 1-1Z"/><path fill="#1F9865" id="AIv5" d="M363 214h3l7-9c-1.321 0-11-2.255-11-3l-1 1-4 8 6 3Z"/><path fill="#209764" id="AId1" d="m69 203 2 3c-1.577 0-2-1.762-2-3Z"/><path fill="#1F9865" id="AIv5" d="M90 214h3c0-.913 5.014-2 6-2l-4-9c-3.978 0-7.549 2-11 2l6 9Z"/><path fill="#97D6F9" id="STR" d="m254 203-1 1 1-1ZM212 253l-1 1c-3.541 0-6-3.598-6-7v-16c1.473 0 1-1.952 1-3 0-4.141 4.288-10.923 2-15.5l-5-8.5c3.19 0 5.985 6 10 6 0 1.943 3.688 3.906 5.5 3l2.5-4-1 24c0 2.132-1.861 14-4 14l-1 2c-1.577 0-2 1.762-2 3l-1 1ZM251 243c0 1.901.134 13.317-4.5 11l-6.5-7c0-4.229-4-9.397-4-14 0-8.418-1-17.172-1-25l2.5 5c1.812.906 5.5-1.057 5.5-3 4.466 0 6.629-6 10-6 0 2.623-3.769 8.039-5 10.5l2 12.5 1 2v14Z"/><path fill="#209764" id="AId1" d="m387 204-2 2c1.747 0 2-.253 2-2Z"/><path fill="#219764" id="AIv2/3" d="M90 214c0 .672-11.443 4-13 4 0-4.386-5-6.878-5-11 3.378 0 6.921-2 11-2h1l6 9ZM379 217h1v-1l1-1 2-4c0-1.238.423-3 2-3v-1c-3.695 0-6.865-2-11-2h-1l-7 9c4.277 0 8.115 3 13 3Z"/><path fill="#8AD987" id="CTXsp" d="M108 209c2.765 0 5.165 2 7 2 0-1.041-.986-5-2-5l-5 3ZM349 209c-2.409 0-5.181 1-7 1l1-4 6 3Z"/><path fill="#209864" id="AIv1" d="M76 218h1c0-4.386-5-6.878-5-11h-1l5 11ZM385 208c-1.577 0-2 1.762-2 3 2.293 0 2-.997 2-3Z"/><path fill="#99D2BD" id="OLF" d="M93 214c6.666 0 8.426 7 10 7 0-2.607-1.48-4.54 0-7.5l4-3.5v-1l-8 3c-.986 0-6 1.087-6 2Z"/><path fill="#8AD987" id="CTXsp" d="m108 209-1 1v-1h1Z"/><path fill="#A0EE9C" id="EPd" d="M120 232h3l2-1c0-2.518-2-4.286-2-6v-1l-2-2-1-2-1-1v-1c-1.577 0-2-1.762-2-3v-1l-2-3c-1.835 0-4.235-2-7-2l-1 1-4 3.5c-1.48 2.96 0 4.893 0 7.5v1l1 1 1 1 1 1 2 1 1 1h1l4 3h1l1 1h1l2 1h1Z"/><path fill="#CBCBC7" id="aco" d="m183 209-5 6.5c-2.956 5.912 4.019 9.74 8.5 7.5 7.826-3.913 6.142-14-3.5-14ZM267 209l-2 6.5c10.685 21.369 23.033-6.5 2-6.5Z"/><path fill="#A0EE9C" id="EPd" d="M337 232h1l1-1 3-1 1-1h1l1-1 2-1 2-1 1-1 1-1 1-1 1-1 1-1v-1c0-5.403-5-8.873-5-11-2.409 0-5.181 1-7 1l-1 1-2 4v1l-1 1v1l-1 1v1l-1 1-1 1v1l-1 1-1 1-1 2-1 1 2 4h4Z"/><path fill="#99D2BD" id="OLF" d="M363 214c-5.766 0-7.916 6-9 6 0-5.403-5-8.873-5-11 2.885 0 4.697 2 8 2l6 3Z"/><path fill="#C8CBCC" id="ec" d="m341 211-2 4c0-1.424.362-5 2-5v1Z"/><path fill="#8AD987" id="CTXsp" d="m342 210-1 1v-1h1Z"/><path fill="#209864" id="AIv1" d="m383 211-2 4c2.109 0 2-2.535 2-4Z"/><path fill="#6ACAB9" id="PIR" d="M120 262h2c2.74 0 4.77-5 8-5 0-8.056 6.265-4.969 0-17.5-1.302-2.603-10-6.409-10-7.5h-1l-2-1h-1l-1-1h-1l-4-3h-1l-1-1-2-1-1-1-1-1-1-1v-1c-1.574 0-3.334-7-10-7h-3c0 .672-11.443 4-13 4h-1l-5 1c0 6.761 17.614 31 25 31 1.423 0 3.544-1.978 5.5-1 3.877 1.938 18.5 8.131 18.5 13ZM335 262h2c0-5.812 14.397-10.949 18.5-13 1.43-.715 4.5.291 4.5 2l7.5-6c6.834-3.417 17.5-16.762 17.5-26l-4-1-2-1c-4.885 0-8.723-3-13-3h-3c-5.766 0-7.916 6-9 6v1l-1 1-1 1-1 1-1 1-1 1-2 1-2 1-1 1h-1l-1 1-3 1-1 1h-1c0 1.183-3.57 1.535-4.5 2l-7.5 7.5c-4.121 8.242 2 10.747 2 15.5 3.331 0 4.796 5 8 5Z"/><path fill="#C8CBCC" id="ec" d="m117 215 2 3c-1.577 0-2-1.762-2-3Z"/><path fill="#209864" id="AIv1" d="m381 215-1 1 1-1Z"/><path fill="#C8CBCC" id="ec" d="m339 216-1 1 1-1ZM337 218h1v-1l-1 1Z"/><path fill="#209864" id="AIv1" d="m380 217 1 1-2-1h1Z"/><path fill="#8AD987" id="CTXsp" d="m338 218-1 1v-1h1ZM119 219l1 1-1-1ZM337 220l-1 1 1-1ZM336 221l-1 1 1-1Z"/><path fill="#99D2BD" id="OLF" d="m354 221-1 1 1-1ZM103 222l1 1-1-1Z"/><path fill="#8AD987" id="CTXsp" d="m121 222 2 2-2-2ZM335 223l-1 1 1-1Z"/><path fill="#99D2BD" id="OLF" d="m352 223-1 1 1-1ZM105 224l1 1-1-1Z"/><path fill="#8AD987" id="CTXsp" d="m334 224-1 1 1-1ZM125 231h2v-2l-4-4c0 1.714 2 3.482 2 6ZM333 225l-1 2 1-2Z"/><path fill="#99D2BD" id="OLF" d="m350 225-1 1 1-1ZM108 226l1 1-1-1ZM349 226l-2 1 2-1ZM110 227l4 3-4-3Z"/><path fill="#A2B1D7" id="SI" d="m250 227 1 2-1-2Z"/><path fill="#8AD987" id="CTXsp" d="m332 227-1 1 1-1Z"/><path fill="#99D2BD" id="OLF" d="m347 227-2 1 2-1Z"/><path fill="#A2B1D7" id="SI" d="M206 228c-1.473 0-1 1.952-1 3 1.473 0 1-1.952 1-3Z"/><path fill="#8AD987" id="CTXsp" d="m329 231 4 1-2-4-2 1v2Z"/><path fill="#99D2BD" id="OLF" d="m345 228-1 1 1-1Z"/><path fill="#97D6F9" id="STR" d="m135 234-1 3c-2.958 0-3.666-6-7-6v-2l8 5ZM322 234l1 2 6-5v-2l-7 5Z"/><path fill="#99D2BD" id="OLF" d="m343 229-1 1 1-1ZM115 230l1 1-1-1Z"/><path fill="#A2B1D7" id="SI" d="m264 271 1 2c15.443 0 47.441 8.617 56-8.5 1.334-2.668 4-4.276 4-7.5l-6-3-8.5 9c-3.357 1.679-25.608 1.696-29 0-10.671-5.335-16.741-14.741-25-23-1.74-1.74-2.946-10-5.5-10v13c.208 0 3 9.153 3 10l5 12 5 6Z"/><path fill="#99D2BD" id="OLF" d="m117 231 2 1-2-1Z"/><path fill="#8AD987" id="CTXsp" d="m125 231-2 1 2-1Z"/><path fill="#99D2BD" id="OLF" d="M130 257h1l7-3c0-5.399-4-10.908-4-17-2.958 0-3.666-6-7-6h-2l-2 1h-3c0 1.091 8.698 4.897 10 7.5 6.265 12.531 0 9.444 0 17.5Z"/><path fill="#A2B1D7" id="SI" d="M193 270c0 1.048.473 3-1 3-7.494 0-35.526 4.987-41.5 2l-10-6c-3.915-1.957-9.5-7.448-9.5-12l7-3c0 2.129 3.181 4.341 4.5 5l3 4h7c9.847 4.924 24.076-1.038 32-5 .723-.362 15.619-17.738 16.5-19.5.728-1.456 1.87-7.5 4-7.5v16c-1.353 0-2 4.643-2 6l-1 1-5 11-3 4-1 1Z"/><path fill="#99D2BD" id="OLF" d="M325 257h2c0-4.753-6.121-7.258-2-15.5l7.5-7.5c.93-.465 4.5-.817 4.5-2h-4l-4-1-6 5c0 6.462-4 11.573-4 18l6 3ZM339 231l-1 1 1-1Z"/><path fill="#96A6D3" id="NDB" d="m211 272-2 1c-3.967 0-11 .66-11-5l1-3c2.494 0 9-5.512 9-8l3-3 1-1 1-1c1.577 0 2-1.762 2-3l1-2c2.139 0 4-11.868 4-14h16c0 4.603 4 9.771 4 14 0 2.775 5.947 10 9 10 0 2.427 5.635 8 8 8l1 3c0 8.922-10.642 3-14 3h-1l-2-2h-1l-2-2-1-1-2-2c0-2.16-3.23-11-6.5-11-2.849 0-7.5 8.658-7.5 11v1l-1 1-2 1-1 1-1 1c-1.238 0-3 .423-3 2l-2 1Z"/><path fill="#E64438" id="HY" d="M254 253c-2.601 0-5 1.04-5 4-3.053 0-9-7.225-9-10l6.5 7c4.634 2.317 4.5-9.099 4.5-11 .208 0 3 9.153 3 10ZM211 254l-3 3c-1.539 0-2.187-4-5-4 0-1.357.647-6 2-6 0 3.402 2.459 7 6 7ZM216 247l-1 2 1-2Z"/><path fill="#CAC8C7" id="lot" d="m119 266-1 1c-2.519 0-4.259-2.759-6-4.5-3.159-3.159-16-8.51-16-12.5 1.423 0 3.544-1.978 5.5-1 3.877 1.938 18.5 8.131 18.5 13l-1 3v1Z"/><path fill="#E64438" id="HY" d="M215 249c-1.577 0-2 1.762-2 3 1.577 0 2-1.762 2-3Z"/><path fill="#CAC8C7" id="lot" d="M337 262c0 2.25 2 3.376 2 5l21-16c0-1.709-3.07-2.715-4.5-2-4.103 2.051-18.5 7.188-18.5 13Z"/><path fill="#E64438" id="HY" d="m213 252-1 1 1-1ZM203 253l-1 1 1-1Z"/><path fill="#F2473B" id="LPO" d="M197 265h2c2.494 0 9-5.512 9-8-1.539 0-2.187-4-5-4l-1 1-5 11Z"/><path fill="#E64438" id="HY" d="m212 253-1 1 1-1Z"/><path fill="#FE5446" id="AVPV" d="M233 264h2c0-2.16-3.23-11-6.5-11-2.849 0-7.5 8.658-7.5 11h2c2.229 0 3.933-3 5.5-3l4.5 3Z"/><path fill="#F2473B" id="LPO" d="M257 265h2l-5-12c-2.601 0-5 1.04-5 4 0 2.427 5.635 8 8 8Z"/><path fill="#7FCCF7" id="OT" d="M192 273c0 1.149 4.516 1.508 5.5 2 2.162 1.081 1.5 4.005 1.5 6 0 9.942-10.01 10.755-16.5 14h-7c-15.01 7.505-38.566 4.367-46.5-11.5-2.293-4.586-8-8.024-8-13.5v-5l1-3c2.74 0 4.77-5 8-5h1c0 4.552 5.585 10.043 9.5 12l10 6c5.974 2.987 34.006-2 41.5-2ZM265 273c0 1.476-8 .062-8 8 0 9.354 10.2 10.85 16.5 14h8c15.203 7.602 37.916 4.668 46.5-12.5 2.021-4.043 7-6.656 7-11.5l1-1v-1l-1-5v-2c-3.204 0-4.669-5-8-5h-2c0 3.224-2.666 4.832-4 7.5-8.559 17.117-40.557 8.5-56 8.5Z"/><path fill="#99D2BD" id="OLF" d="M119 265h2l1-3h-2l-1 3ZM337 267h2c0-1.624-2-2.75-2-5h-2v2c1.577 0 2 1.762 2 3Z"/><path fill="#E64438" id="HY" d="m223 264-2 1v-1h2ZM235 264l2 2-4-2h2Z"/><path fill="#97D6F9" id="STR" d="m337 267-1 2-1-5c1.577 0 2 1.762 2 3ZM119 267c0 1.238.423 3 2 3v-5h-2v2Z"/><path fill="#E64438" id="HY" d="m198 268-4 1 3-4h2l-1 3ZM221 265l-1 1 1-1ZM258 268l6 3-5-6h-2l1 3Z"/><path fill="#99D2BD" id="OLF" d="M118 267h1v-1l-1 1Z"/><path fill="#8599CC" id="PAL" d="m218 267-1 1 1-1ZM238 267l2 2-2-2ZM209 273l-10 8c0-1.995.662-4.919-1.5-6-.984-.492-5.5-.851-5.5-2 1.473 0 1-1.952 1-3l1-1 4-1c0 5.66 7.033 5 11 5ZM217 268l-1 1 1-1ZM265 273c0 1.476-8 .062-8 8l-13-10c3.358 0 14 5.922 14-3l6 3 1 2Z"/><path fill="#E64438" id="HY" d="m194 269-1 1 1-1Z"/><path fill="#8599CC" id="PAL" d="M216 269c-1.238 0-3 .423-3 2 1.238 0 3-.423 3-2ZM241 269l2 2-2-2Z"/><path fill="#97D6F9" id="STR" d="m336 270-1 1 1-1Z"/><path fill="#8599CC" id="PAL" d="m213 271-2 1 2-1ZM211 272l-2 1 2-1Z"/><path fill="#CBCCC7" id="IIn" d="M216 275c0 .799-7.894 6.288-9 8.5-2.088 4.176 7.082 5.709 9.5 4.5 6.542-3.271 11.622-13-.5-13ZM234 275c0 1.606-2.081 4.339-1 6.5 1.564 3.129 12.935 11.13 16 5 3.72-7.441-9.742-11.5-15-11.5Z"/></svg>