<svg xmlns="http://www.w3.org/2000/svg" viewBox="0 0 456 320"><path fill="#9AD1BD" id="MOB" fill-rule="evenodd" d="m183 132-4 4v6.5c5.132 10.263 17.962-10.5 4-10.5m0-9-5 3.5c0 1.138 8.786-.5 10-.5.768 0 8 2.946 8 1.5 0-3.201-6.036-2.768-7.5-3.5-1.941-.971-3.122-1-5.5-1m2 122h1c4.593 0 10.009 2.245 14.5 0 19.654-9.827 20.5-36.923 20.5-57v-24.5c1.628-3.256 3.939-32.122 2-36-2.051-4.102-3.164-10.164-6.5-13.5l-7.5-7h-1l-1-1-5.5-2c-10.358-5.179-35.301 6.301-42 13l-9.5 11-1 1v1l-1 1-1 3-1 1v1l-1 1v3l-1 2v2c0 1.235.643 5-1 5v5c1.473 0 1 1.952 1 3v2c1.473 0 1 1.952 1 3v3c1.473 0 1 1.952 1 3v1c1.473 0 1 1.952 1 3 1.961 0 5.135 9.769 6 11.5 2.185 4.369 3.851 8.702 6 13 1.569 3.139.363 7.726 2 11v7l2 4.5v1l1 1v1l1 1c0 3.627 8.11 16 12 16l8 6ZM271 132c0 .276-3.429 4.357-4 5.5-1.587 3.174 3.686 9.407 7.5 7.5 6.456-3.228 2.921-13-3.5-13m-2-9c0 1.615-9.586 1.328-8 4.5.569 1.138 7.066-1.5 8.5-1.5l8.5 1.5c1.025-2.049-3.638-3.069-4.5-3.5-1.718-.859-2.387-1-4.5-1m4 121-2 1c-4.695 0-10.877 2.312-15.5 0-24.014-12.007-20.5-58.179-20.5-83.5 0-6.813-5.237-25.525-2-32 2.791-5.582 5.167-11.333 8-17l6-5.5h1l1-1c7.109 0 19.873-4.814 27.5-1l12 5 8 7c2.748 1.374 10.5 8.679 10.5 12l1 1 1 3 1 1v1l1 2v2l1 1v2c0 1.048-.473 3 1 3v11c-1.473 0-1 1.952-1 3v3l-1 2v3c-1.473 0-1 1.952-1 3-1.473 0-1 1.952-1 3-1.961 0-5.135 9.769-6 11.5-4.706 9.412-9 22.448-9 33.5l-1 1v2l-1 1c0 2.444-7.206 15-10 15l-1 1-2 2-2 1-1 1-1 1-2 1Z"/><path fill="#99D2BD" id="OLF" d="m207 106 1 1-1-1ZM249 106l-1 1 1-1Z"/><path fill="#C7CBCA" id="onl" d="M227 212c0 12.419 3.389 43.055-8.5 49-7.281 3.64-11.134-6.067-17-9-2.552-1.276-5.379-1.689-8-3-1.637-.819-7.5-1.175-7.5-4 4.593 0 10.009 2.245 14.5 0 19.654-9.827 20.5-36.923 20.5-57v-24.5c1.628-3.256 3.939-32.122 2-36-2.051-4.102-3.164-10.164-6.5-13.5l-7.5-7c3.316 0 6.627 2.754 8 5.5 1.009 2.019 4.628 4.256 6 7 5.746 11.493 4 27.689 4 41.5v51Z"/><path fill="#C7CBCA" id="onl" d="M247 107c-11.225 0-17 22.308-17 31.5 0 20.67-1 42.242-1 63.5 0 7.266-2.105 19.29 1 25.5 2.814 5.629-1.431 19.137 3 28 6.758 13.516 15.59-.545 23.5-4.5 2.038-1.019 14.5-2.86 14.5-6-4.695 0-10.877 2.312-15.5 0-24.014-12.007-20.5-58.179-20.5-83.5 0-6.813-5.237-25.525-2-32 2.791-5.582 5.167-11.333 8-17l6-5.5Z"/><path fill="#CACAC9" id="lotd" d="m183 123-5 3.5c0 1.138 8.786-.5 10-.5.768 0 8 2.946 8 1.5 0-3.201-6.036-2.768-7.5-3.5-1.941-.971-3.122-1-5.5-1ZM269 123c0 1.615-9.586 1.328-8 4.5.569 1.138 7.066-1.5 8.5-1.5l8.5 1.5c1.025-2.049-3.638-3.069-4.5-3.5-1.718-.859-2.387-1-4.5-1Z"/><path fill="#99D2BD" id="OLF" d="m150 128-1 1 1-1ZM307 129l1 1-1-1ZM149 130l-1 1 1-1Z"/><path fill="#95E4C8" id="AOBgr" d="m183 132-4 4v6.5c5.132 10.263 17.962-10.5 4-10.5ZM271 132c0 .276-3.429 4.357-4 5.5-1.587 3.174 3.686 9.407 7.5 7.5 6.456-3.228 2.921-13-3.5-13Z"/><path fill="#99D2BD" id="OLF" d="m309 133 1 1-1-1ZM147 134l-1 1 1-1ZM310 135l1 2-1-2ZM146 136l-1 1 1-1ZM311 139l1 1-1-1ZM145 140l-1 2 1-2ZM312 142c1.473 0 1 1.952 1 3-1.473 0-1-1.952-1-3ZM144 144c-1.643 0-1 3.765-1 5 1.643 0 1-3.765 1-5ZM143 154c1.473 0 1 1.952 1 3-1.473 0-1-1.952-1-3ZM313 156c-1.473 0-1 1.952-1 3 1.473 0 1-1.952 1-3ZM144 159c1.473 0 1 1.952 1 3-1.473 0-1-1.952-1-3ZM227 161c1.758 0 1 7.884 1 9.5V201c0 1.741.773 11-1 11v-51ZM312 162l-1 2 1-2ZM145 165c1.473 0 1 1.952 1 3-1.473 0-1-1.952-1-3ZM311 167c-1.473 0-1 1.952-1 3 1.473 0 1-1.952 1-3ZM146 169c1.473 0 1 1.952 1 3-1.473 0-1-1.952-1-3ZM309 173v2c1.643 0 1-3.765 1-5-1.473 0-1 1.952-1 3Z"/><path fill="#C7CBCA" id="onl" d="m155 210 8 9-2-4.5v-7c-1.637-3.274-.431-7.861-2-11-2.149-4.298-3.815-8.631-6-13-.865-1.731-4.039-11.5-6-11.5v6c1.579 0 1 2.855 1 4v1l1 2v4l1 2v2l1 2v2c1.473 0 1 1.952 1 3v1l1 2v2l1 2v1l1 2ZM301 210c0 1.852-4.927 8-7 8 0-11.052 4.294-24.088 9-33.5.865-1.731 4.039-11.5 6-11.5v8l-1 2v1c-1.473 0-1 1.952-1 3v4l-1 2v1c-1.473 0-1 1.952-1 3v2c-1.473 0-1 1.952-1 3l-1 2v3l-1 2-1 1Z"/><path fill="#99D2BD" id="OLF" d="M147 178c1.579 0 1 2.855 1 4-1.579 0-1-2.855-1-4ZM309 181l-1 2 1-2ZM148 183l1 2-1-2ZM308 184c-1.473 0-1 1.952-1 3 1.473 0 1-1.952 1-3ZM149 189l1 2-1-2ZM307 191l-1 2 1-2ZM150 193l1 2-1-2ZM306 194c-1.473 0-1 1.952-1 3 1.473 0 1-1.952 1-3ZM151 197c1.473 0 1 1.952 1 3-1.473 0-1-1.952-1-3ZM305 199c-1.473 0-1 1.952-1 3 1.473 0 1-1.952 1-3ZM152 201l1 2-1-2ZM304 202l-1 2 1-2ZM153 205l1 2-1-2ZM303 207l-1 2 1-2ZM154 208l1 2-1-2ZM302 209l-1 1 1-1Z"/><path fill="#C7CBCA" id="onl" d="m294 218-1 1 1-1ZM163 220l1 1-1-1ZM293 221l-1 1 1-1ZM164 222l1 1-1-1ZM282 237l-1 1 1-1ZM177 239l8 6c-1.626 0-8-4.11-8-6ZM279 240l-2 1 2-1ZM277 241l-1 1 1-1ZM276 242l-1 1 1-1ZM275 243l-2 1 2-1ZM273 244l-2 1 2-1Z"/></svg>