<svg xmlns="http://www.w3.org/2000/svg" viewBox="0 0 456 320"><path fill="#9AD1BD" id="MOB" d="m149 141-1 12c2.144 0 .381 4.262 1 5.5 1.618 3.237 2.422 6.845 4 10 4.567 9.134 9.477 17.954 14 27 5.186 10.372-6.911 27.794 10.5 36.5 4.804 2.402 10.242 3.621 15 6 8.232 4.116 17.551-4.602 20.5-10.5 2.852-5.705 3.183-12.366 6-18 2.507-5.013-.566-12.868 2-18v-23c1.711-3.422 5.914-36.172 4-40-2.451-4.903-4.508-10.016-7-15l-6-6.5-8.5-3c-9.044-4.522-28.114 6.557-35 10-1.822.911-9.5 4.802-9.5 8l-1 1-1 1v1l-1 1-1 1-1 2-1 2-1 2-1 2v1l-1 2-1 2v1ZM307 140c0 4.077 1 8.431 1 13 0 11.903-12.678 29.856-18 40.5-3.456 6.912 2.402 18.195-1 25-2.353 4.706-6.146 8.292-8 12l-5.5 2.5c-11.062 5.531-25.188 9.123-32.5-5.5-3.24-6.479-2.79-14.58-6-21-1.54-3.08.595-7.809-1-11-2.876-5.753 1.933-15.134-1-21l-1-19c-1.256-2.512-4.411-22.177-3-25 2.386-4.773 3.589-10.179 6-15l7-8.5 8.5-3c5.124-2.562 23.933 2.967 28 5 5.246 2.623 10.028 6.028 14.5 10.5l5 5.5 1 1v1c0 1.122 2.632 7 4 7v1l2 4v1Z"/><path fill="#C7CBCA" id="onl" d="M154 212c0 8.091 5.729 9.957 9 16.5 3.156 6.312 23.483 19.991 30.5 23.5 4.752 2.376 16.526 1.237 21-1 12.355-6.177 12.5-21.415 12.5-34 0-1.741-.773-11 1-11v-51c-1.684 0-1-4.679-1-6v-24.5c-2.085-4.17-6.239-8.479-8-12-1.147-2.295-4.073-5.5-7-5.5l6 6.5c2.492 4.984 4.549 10.097 7 15 1.914 3.828-2.289 36.578-4 40v23c-2.566 5.132.507 12.987-2 18-2.817 5.634-3.148 12.295-6 18-2.949 5.898-12.268 14.616-20.5 10.5-4.758-2.379-10.196-3.598-15-6-17.411-8.706-5.314-26.128-10.5-36.5-4.523-9.046-9.433-17.866-14-27-1.578-3.155-2.382-6.763-4-10-.619-1.238 1.144-5.5-1-5.5h-1v14c1.643 0 1 3.765 1 5v1c1.564 0 1.321 8.141 2 9.5 2.518 5.036 4 23.424 4 29.5ZM308 176c-1.647 0-1.338 7.176-2 8.5-2.33 4.66-3 20.736-3 26.5 0 14.86-20.044 28.272-31.5 34l-9 7c-4.59 2.295-16.604 1.198-21-1-11.11-5.555-12.5-20.713-12.5-31.5V137c0-9.047 4.747-30 15-30l-7 8.5c-2.411 4.821-3.614 10.227-6 15-1.411 2.823 1.744 22.488 3 25l1 19c2.933 5.866-1.876 15.247 1 21 1.595 3.191-.54 7.92 1 11 3.21 6.42 2.76 14.521 6 21 7.312 14.623 21.438 11.031 32.5 5.5l5.5-2.5c1.854-3.708 5.647-7.294 8-12 3.402-6.805-2.456-18.088 1-25 5.322-10.644 18-28.597 18-40.5 1.781 0 1 10.176 1 12v5c-1.643 0-1 3.765-1 5v1Z"/><path fill="#99D2BD" id="OLF" d="m159 122-1 1 1-1ZM158 123l-1 1 1-1ZM157 125l-1 1 1-1ZM300 125l1 1-1-1ZM156 126l-1 1 1-1ZM155 127l-1 2 1-2ZM301 127c1.948 0 4 5.428 4 7-1.368 0-4-5.878-4-7ZM154 129l-1 2 1-2ZM153 131l-1 2 1-2ZM152 133l-1 2 1-2ZM305 135l2 4-2-4ZM151 136l-1 2 1-2ZM150 138l-1 2 1-2ZM308 153c1.781 0 1 10.176 1 12 1.684 0 1-4.679 1-6l-1-15-2-4c0 4.077 1 8.431 1 13ZM147 153h1l1-12c-2.238 0-2 9.802-2 12ZM227 149c1.684 0 1 4.679 1 6-1.684 0-1-4.679-1-6ZM147 167c1.643 0 1 3.765 1 5-1.643 0-1-3.765-1-5ZM309 170c-1.643 0-1 3.765-1 5 1.643 0 1-3.765 1-5ZM148 173c1.564 0 1.321 8.141 2 9.5 2.518 5.036 4 23.424 4 29.5-3.786 0-3.057-5.614-4-7.5-3.408-6.817-2-23.839-2-31.5ZM308 176c-1.647 0-1.338 7.176-2 8.5-2.33 4.66-3 20.736-3 26.5 6.12 0 5-29.182 5-35ZM228 206c-1.773 0-1 9.259-1 11 1.773 0 1-9.259 1-11Z"/></svg>