<svg xmlns="http://www.w3.org/2000/svg" viewBox="0 0 456 320"><path fill="#1E9C59" id="MOs1" d="M222 49h1l4-2c0-2.638-3.172-4.672-5-6.5-11.07-11.07-15.407-9.5-30-9.5v4c9.13 0 30 1.281 30 14ZM234 49h1c0-12.809 19.695-14 30-14l-1-4c-11.518 0-24.499-1.501-31 11.5-.595 1.19-4 2.317-4 4.5l5 2Z"/><path fill="#1E9D5A" id="MOp1" d="M152 37c0 1.564-1 3.876-1 6 12.66 0 27.694-8 41-8v-4c-5.042 0-22.239.37-25.5 2-3.477 1.739-10.615 4-14.5 4ZM305 37v6c-13.265 0-26.483-8-40-8l-1-4c5.042 0 22.239.37 25.5 2 3.918 1.96 11.025 4 15.5 4Z"/><path fill="#1F9C58" id="MOp2/3" d="M149 60v7c5.187 0 31.222-20 41-20l2-12c-13.306 0-28.34 8-41 8 0 6.756-2 10.667-2 17Z"/><path fill="#1E9D58" id="MOs2/3" d="M222 49c0 1.428-4.822 4-6 4l-2-2.5c-4.654-9.307-16.468-3.5-24-3.5l2-12c9.13 0 30 1.281 30 14ZM240 53h1c0-12.007 20.711-6 26-6 0-3.63-2-7.589-2-12-10.305 0-30 1.191-30 14l5 4Z"/><path fill="#1F9C58" id="MOp2/3" d="M307 60v7c-4.935 0-31.108-20-40-20 0-3.63-2-7.589-2-12 13.517 0 26.735 8 40 8l1 1c-2.019 0 1 3.569 1 4.5V60Z"/><path fill="#187F60" id="SSp-ll1" d="M142 46h1l8-3c0-2.124 1-4.436 1-6l-11 3 1 6ZM306 44l8 2 1-6-10-3v6l1 1Z"/><path fill="#197E64" id="SSp-ul1" d="m103 58 3 5c6.495 0 26.336-17 36-17l-1-6c-4.949 0-25.162 10.331-30.5 13l-7.5 5ZM353 58l-2 5c-7.14 0-26.867-17-37-17l1-6c6.151 0 23.403 9.951 29.5 13l8.5 5Z"/><path fill="#187F64" id="SSp-ll2/3" d="M146 61h1l2-1c0-6.333 2-10.244 2-17l-8 3c0 5.506 3 9.826 3 15ZM307 60h3c1.326 0 4-12.059 4-14l-8-2c-2.019 0 1 3.569 1 4.5V60Z"/><path fill="#1F9D58" id="MOs5" d="m186 64 12.5-3 5.5 3 12-11-2-2.5c-4.654-9.307-16.468-3.5-24-3.5 0 5.54-4 11.095-4 17ZM253 64c0-1.845 3.381-1.44 4.5-2 5.485-2.742 8.766 3 13.5 3 0-6.06-4-11.729-4-18-5.289 0-26-6.007-26 6l12 11Z"/><path fill="#197F61" id="SSp-ul2/3" d="m106 64 5 12 7.5-5c7.206-3.603 19.18-10 27.5-10 0-5.174-3-9.494-3-15h-1c-9.664 0-29.505 17-36 17v1ZM351 64l-6 11c-6.027 0-24.832-14-35-14v-1c1.326 0 4-12.059 4-14 10.133 0 29.86 17 37 17v1Z"/><path fill="#1E9C5A" id="MOp5" d="M149 68v14c9.547 0 31.707-17 36-17l1-1c0-5.905 4-11.46 4-17-9.778 0-35.813 20-41 20v1Z"/><path fill="#3EA665" id="ACAd1" d="M223 74h10c0-8.274 1-17.385 1-25l-5-2c0 3.746-.8 0-2 0l-4 2v25Z"/><path fill="#1E9C5A" id="MOp5" d="M307 69c0 4.579 1 10.225 1 14-6.615 0-34.03-18-37-18 0-6.06-4-11.729-4-18 8.892 0 35.065 20 40 20v2Z"/><path fill="#40A565" id="ACAd2/3" d="m223 74-5 1c0-6.78-2-15.325-2-22 1.178 0 6-2.572 6-4h1v25ZM233 74c1.564 0 3.876 1 6 1 0-7.293 1-15.359 1-22l-5-4h-1c0 7.615-1 16.726-1 25Z"/><path fill="#3EA566" id="ACAd5" d="M218 75c-4.39 0-8.836 7-13 7 0-5.675-1-11.954-1-17v-1l12-11c0 6.675 2 15.22 2 22ZM239 76c4.973 0 7.745 5 12 5 0-2.835.419-16 2-16v-1l-12-11h-1c0 6.641-1 14.707-1 22v1Z"/><path fill="#1B8062" id="SSp-un1" d="m92 65 3 6c3.864 0 6.751-7 11-7v-1l-3-5-11 7ZM361 71h1c1.951 0 .477-2.454 1-3.5l2-1.5-12-8-2 5v1l10 7Z"/><path fill="#1C7F64" id="SSp-ll4" d="M148 67h1v-7l-2 1 1 6ZM308 67h1c0-2.124 1-4.436 1-6v-1h-3v7h1Z"/><path fill="#1A7F63" id="SSp-ul4" d="M111 77c1.428 0 4 4.823 4 6l33-16-1-6h-1c-8.32 0-20.294 6.397-27.5 10l-7.5 5v1Z"/><path fill="#1D9C5A" id="MOs6a" d="M184 87h1c0-1.175 5.704-2 7-2 0-2.516 9.519-20 12-20v-1l-5.5-3-12.5 3-1 1-1 22ZM265 85l7 2c0-2.999 2.2-9.1 1-11.5-1.418-2.837-2-7.17-2-10.5-4.734 0-8.015-5.742-13.5-3-1.119.56-4.5.155-4.5 2v1c2.121 0 11 17.22 11 20h1Z"/><path fill="#1A7F63" id="SSp-ul4" d="M341 84h1c0-3.45 3-4.946 3-8v-1c-6.027 0-24.832-14-35-14 0 1.564-1 3.876-1 6l5.5 3c6.428 3.214 12.533 6.767 19 10 1.491.746 7.5 1.891 7.5 4Z"/><path fill="#1C7F63" id="SSp-un2/3" d="M99 83h1l2-2h1l8-4v-1l-5-12c-4.249 0-7.136 7-11 7v1c0 3.843 4 6.746 4 11ZM354 81l3 1c1.765 0 4-9.098 4-11l-10-7-6 11v1c1.156 0 8 3.845 8 5h1Z"/><path fill="#197E63" id="SSp-n1" d="M65 103h1l1-1c0-5.61 21.276-30 28-30v-1l-3-6-9.5 8C76.656 75.922 57 99.506 57 108c2.758 0 6.25-5 8-5Z"/><path fill="#1F9B5A" id="MOp6a" d="M149 101h2c0-1.353 4.643-2 6-2l4-2c0-2.088 8.909-4 11-4 0-1.995 6.268-4 8-4l4-2 1-22c-4.293 0-26.453 17-36 17l-1 1c0 5.245 1 12.085 1 18Z"/><path fill="#3FA664" id="ACAd6a" d="m192 85 5 4 8-6v-1c0-5.675-1-11.954-1-17-2.481 0-12 17.484-12 20ZM259 90h1l1-1c0-1.429 1.288-4 3-4 0-2.78-8.879-20-11-20-1.581 0-2 13.165-2 16v2c1.255 0 8 4.777 8 7Z"/><path fill="#1F9B5A" id="MOp6a" d="M307 101h1c0-2.77-2.661-11.178-1-14.5l2-3.5h-1c-6.615 0-34.03-18-37-18 0 3.33.582 7.663 2 10.5 1.2 2.4-1 8.501-1 11.5 10.372 0 24.36 14 35 14Z"/><path fill="#197E63" id="SSp-n1" d="m391 103 8 5c0-9.964-15.234-25.734-22.5-33-2.371-2.37-8.279-9-11.5-9l-2 1.5c-.523 1.046.951 3.5-1 3.5l9 7.5c4.441 4.441 19 17.134 19 24.5h1Z"/><path fill="#187E62" id="SSp-ul5" d="M120 95h1c0-2.138 23.441-12 27-12l1-1V68l-1-1-33 16v1l5 11Z"/><path fill="#197C63" id="SSp-ll5" d="M149 67v1l-1-1h1ZM308 67l-1 2v-2h1Z"/><path fill="#187E62" id="SSp-ul5" d="M341 84c0 1.779-3.465 10-5 10-7.716 0-18.156-11-27-11h-1c0-3.775-1-9.421-1-14l1-2h1l5.5 3c6.428 3.214 12.533 6.767 19 10 1.491.746 7.5 1.891 7.5 4Z"/><path fill="#1B7F64" id="SSp-n2/3" d="M375 97c4.492 0 13.21 6 15 6 0-7.366-14.559-20.059-19-24.5l-9-7.5h-1c0 1.902-2.235 11-4 11v1c2.797 0 18 10.766 18 14ZM81 97h1l1-1 1-1c0-3.646 11.681-12 15-12 0-4.254-4-7.157-4-11-6.724 0-28 24.39-28 30 0 1.15 2 1.432 2 .5 0-.417 7.08-5.5 12-5.5Z"/><path fill="#3FA566" id="ACAv2/3" d="m221 108-3 1V75l5-1c0 10.742-1 21.854-1 32l-1 2Z"/><path fill="#40A664" id="ACAv1" d="M229 101c2.813 0 3.461 4 5 4 0-9.935-1-20.513-1-31h-10c0 10.742-1 21.854-1 32 2.047 0 2.168-5 5-5 0-4.252 2-4.466 2 0Z"/><path fill="#3FA566" id="ACAv2/3" d="m235 108 3 1c0-10.465 1-21.934 1-33v-1c-2.124 0-4.436-1-6-1 0 10.487 1 21.065 1 31l1 3Z"/><path fill="#3EA666" id="ACAv5" d="M209 105c0 1.817 7.169 4 9 4V75c-4.39 0-8.836 7-13 7v1c1.665 0 1 4.222 1 5.5 0 5.635 3 11.012 3 16.5ZM247 105c0 2.216-7.15 4-9 4 0-10.465 1-21.934 1-33 4.973 0 7.745 5 12 5v2c0 7.474-4 15.083-4 22Z"/><path fill="#197E61" id="SSp-un4" d="m342 84 3 1 8-4c0-1.155-6.844-5-8-5 0 3.054-3 4.55-3 8ZM111 85h1l3-1v-1c0-1.177-2.572-6-4-6l-8 4 8 4ZM100 83v1c1.577 0 2-1.762 2-3l-2 2Z"/><path fill="#1B7F62" id="SSp-m4" d="m65 134 5 2c0-3.239 3.593-6.686 5-9.5 2.876-5.751 12.617-26.559 18.5-29.5 3.564-1.782 10.878-5.878 13.5-8.5l4-3.5-8-4h-1c0 1.238-.423 3-2 3 0 5.48-8.186 11-16 11l-1 1-1 1h-1l-6 8.5c-2.67 5.339-10 21.89-10 27.5v1ZM391 134l-5 2c0-8.519-19.208-37.354-26.5-41-4.601-2.3-9.129-9-14.5-9v-1l8-4h1c0 1.577 1.762 2 3 2 0 5.992 12.442 14 18 14l6 8.5c3.654 7.307 10 19.057 10 27.5v1Z"/><path fill="#197E61" id="SSp-un4" d="M357 82v1c-1.238 0-3-.423-3-2l3 1Z"/><path fill="#1A8062" id="SSp-n4" d="M100 84c0 5.48-8.186 11-16 11 0-3.646 11.681-12 15-12h1v1Z"/><path fill="#197D61" id="SSp-ul6a" d="M128 110h1c0-1.183 3.57-1.535 4.5-2 4.164-2.082 10.766-7 15.5-7 0-5.915-1-12.755-1-18-3.559 0-27 9.862-27 12v3l1 1c1.533 0 6 9.339 6 11Z"/><path fill="#40A564" id="ACAv6a" d="M207 105h2c0-5.488-3-10.865-3-16.5 0-1.278.665-5.5-1-5.5l-8 6v1c0 5.747 10 8.563 10 14v1ZM247 105h2v-1l1-1 9-10v-3c0-2.223-6.745-7-8-7 0 7.474-4 15.083-4 22Z"/><path fill="#197D61" id="SSp-ul6a" d="m308 101 20 9 6-10 1-2 1-3v-1c-7.716 0-18.156-11-27-11l-2 3.5c-1.661 3.322 1 11.73 1 14.5Z"/><path fill="#1A8062" id="SSp-n4" d="M357 83c2.797 0 18 10.766 18 14-5.558 0-18-8.008-18-14Z"/><path fill="#197D62" id="SSp-un5" d="M119 95h1l-5-11-3 1 7 10ZM337 95h1c0-1.802 4.815-9 7-9v-1l-3-1h-1c0 1.779-3.465 10-5 10v1h1Z"/><path fill="#1B7E63" id="SSp-m5" d="M80 142h1c0-12.716 13.648-33.574 24.5-39l13.5-8-7-10h-1l-4 3.5c-2.622 2.622-9.936 6.718-13.5 8.5-5.883 2.941-15.624 23.749-18.5 29.5-1.407 2.814-5 6.261-5 9.5 1.342 0 10 4.814 10 6Z"/><path fill="#1E9C58" id="MOs6b" d="M185 87h7v-2c-1.296 0-7 .825-7 2Z"/><path fill="#3FA466" id="ACAd6b" d="m197 90-1 1c-2.007 0-1.121-4-4-4v-2l5 4v1ZM265 86l-4 3c0-1.429 1.288-4 3-4h1v1Z"/><path fill="#1E9C58" id="MOs6b" d="M272 87v1l-7-2v-1l7 2Z"/><path fill="#CACCC7" id="cing" d="M249 104v1c8.945 0 12.277-10.388 19.5-14 3.815-1.907 15.052 6 19.5 6l7 1c0-.159-4.748-2.624-5.5-3-1.224-.612-17.274-7-17.5-7l-7-2-4 3v1l-2 3c0 3.187-5.522 10-9 10l-1 1Z"/><path fill="#1B7E63" id="SSp-m5" d="m386 136-10 5c-1.59 0-1.443-4.386-2-5.5-2.073-4.146-2.957-8.914-5-13-3.63-7.26-23.096-27.5-31-27.5 0-1.802 4.815-9 7-9 5.371 0 9.899 6.7 14.5 9 7.292 3.646 26.5 32.481 26.5 41Z"/><path fill="#1D9D5A" id="MOp6b" d="M185 87c0 2.46-3.378 2-5 2l4-2h1Z"/><path fill="#CACCC7" id="cing" d="M207 104v1c-8.049 0-13.044-10.772-19.5-14-3.372-1.686-15.025 6-19.5 6l-1 1h-6v-1c2.091 0 11-1.912 11-4 1.937 0 8-1.553 8-4 1.622 0 5 .46 5-2h7c2.879 0 1.993 4 4 4 0 3.51 7.003 13 11 13Z"/><path fill="#1D9D5A" id="MOp6b" d="M307 101v1c-4.37 0-7.918-4-12-4 0-.159-4.748-2.624-5.5-3-1.224-.612-17.274-7-17.5-7v-1c10.372 0 24.36 14 35 14ZM180 89c-1.732 0-8 2.005-8 4 1.937 0 8-1.553 8-4Z"/><path fill="#3FA466" id="ACAd6b" d="M260 90h1v-1l-1 1Z"/><path fill="#40A465" id="ACAv6b" d="M196 91c0 3.51 7.003 13 11 13 0-5.437-10-8.253-10-14l-1 1ZM261 90l-2 3v-3h2Z"/><path fill="#C9C7C9" id="ccb" d="M364 167h1l-1-4-1-1v-2l-1-1v-1l-1-1v-2l-2-4v-1l-6-10.5c-3.827-7.655-12.9-19.7-20.5-23.5-11.024-5.512-23.098-8.549-34-14-1.648-.824-10.5-3.156-10.5-5-4.448 0-15.685-7.907-19.5-6-7.223 3.612-10.555 14-19.5 14h-2c0 2.216-7.15 4-9 4l-3-1c0 2.307-12.499 0-14 0l-3 1c-1.831 0-9-2.183-9-4h-2c-8.049 0-13.044-10.772-19.5-14-3.372-1.686-15.025 6-19.5 6l-1 1h-1c0 2.708-20.476 7.488-23.5 9l-20 10c-2.9 1.45-3.974 6-7.5 6 0 1.668-3.099 6-5 6 0 1.429-1.288 4-3 4 0 1.238-.423 3-2 3 0 1.238-.423 3-2 3l-2 4-2 4-2 4v3c1.727 0 3.372-5.244 4-6.5 1.737-3.474 11.578-19.039 14.5-20.5 5.145-2.573 9.336-8.668 16-12 14.328-7.164 29.185-8 45.5-8 0-11.628 26 5.149 26 7l2 1c2.831 0 17 2.799 17 5h5c0-2.373 2.284 0 3 0h4l1-1c5.49 0 10.658-4 17-4l1-1 2-1c0-2.232 24-17.267 24-6 14.255 0 28.833-.333 41.5 6 4.545 2.273 8.385 5.692 13 8l9.5 8.5 16 24c.98 1.96 2.622 13.5 5 13.5Z"/><path fill="#1D9D5A" id="MOp6b" d="M172 93c-2.091 0-11 1.912-11 4 2.091 0 11-1.912 11-4Z"/><path fill="#40A465" id="ACAv6b" d="m259 93-9 10c3.478 0 9-6.813 9-10Z"/><path fill="#187D61" id="SSp-m6a" d="M95 149h1c0-3.834 13.865-26 17-26 0-1.634 2.634-4 4-4 0-1.747.253-2 2-2 0-2.12 7.287-7 9-7 0-1.661-4.467-11-6-11 0 2.029-1 .058-1-1v-1c-1.747 0-2-.253-2-2l-13.5 8C94.648 108.426 81 129.284 81 142l14 7Z"/><path fill="#1A7F61" id="SSp-un6a" d="M121 95v2c-1.747 0-2-.253-2-2h2ZM337 95c0 1.238-.423 3-2 3l1-3h1Z"/><path fill="#187D61" id="SSp-m6a" d="m376 142-15 7c0-7.282-19.667-31.083-25.5-34l-7.5-5 6-10 1-2c1.577 0 2-1.762 2-3h1c7.904 0 27.37 20.24 31 27.5 2.043 4.086 2.927 8.854 5 13 .557 1.114.41 5.5 2 5.5v1Z"/><path fill="#1A8062" id="SSp-n4" d="m83 96-1 1 1-1Z"/><path fill="#1A7E64" id="SSp-m2/3" d="M56 128c3.57 0 5.945 5 9 5 0-5.61 7.33-22.161 10-27.5l6-8.5c-4.92 0-12 5.083-12 5.5 0 .932-2 .65-2-.5l-1 1h-1c0 4.886-4.819 13.137-7 17.5-.567 1.134-.546 6.5-2 6.5v1Z"/><path fill="#1D9D5A" id="MOp6b" d="m161 98-4 1 4-2v1Z"/><path fill="#C9C9CA" id="scwm" d="m168 97-1 1 1-1ZM328 111c2.84 0 5.76 5.13 7.5 6 6.974 3.487 23.5 25.161 23.5 33l-6-10.5c-3.827-7.655-12.9-19.7-20.5-23.5-11.024-5.512-23.098-8.549-34-14-1.648-.824-10.5-3.156-10.5-5l7 1c4.082 0 7.63 4 12 4 0 1.149 4.516 1.508 5.5 2 4.425 2.213 10.339 7 15.5 7Z"/><path fill="#1A7E64" id="SSp-m2/3" d="M401 128c-4.298 0-6.905 5-10 5 0-8.443-6.346-20.193-10-27.5l-6-8.5c4.492 0 13.21 6 15 6h1l8 18.5c.659 1.319-.334 5.5 2 5.5v1Z"/><path fill="#1A7F61" id="SSp-un6a" d="m121 98 1 1c0 2.029-1 .058-1-1Z"/><path fill="#C9C9CA" id="scwm" d="m117 119-2 4c3.526 0 4.6-4.55 7.5-6l20-10c3.024-1.512 23.5-6.292 23.5-9h-5l-4 1c0 1.995-4.377 2-6 2l-2 2c-7.387 0-13.044 8-20 8-3.448 0-6.349 6-10 6 0 1.747-.253 2-2 2Z"/><path fill="#1A7F61" id="SSp-un6a" d="m335 98-1 2 1-2Z"/><path fill="#1D9D5A" id="MOp6b" d="M157 99c-1.357 0-6 .647-6 2 1.623 0 6-.005 6-2Z"/><path fill="#1C8064" id="SSp-ul6b" d="M129 110v1c6.956 0 12.613-8 20-8v-2c-4.734 0-11.336 4.918-15.5 7-.93.465-4.5.817-4.5 2Z"/><path fill="#1D9D5A" id="MOp6b" d="m151 101-2 2v-2h2Z"/><path fill="#7ED04B" id="IG" d="M221 108c1.501 0 14 2.307 14 0l-1-3c-1.539 0-2.187-4-5-4 0 1.93-1.161 0-2 0-2.832 0-2.953 5-5 5l-1 2Z"/><path fill="#1C8064" id="SSp-ul6b" d="M328 110v1c-5.161 0-11.075-4.787-15.5-7-.984-.492-5.5-.851-5.5-2v-1h1l20 9Z"/><path fill="#187E61" id="SSp-m1" d="M51 125c2.25 0 3.376 2 5 2 1.454 0 1.433-5.366 2-6.5 2.181-4.363 7-12.614 7-17.5-1.75 0-5.242 5-8 5 0 5.484-6 11.075-6 17Z"/><path fill="#AAA8A9" id="SEZ" d="M181 110c0-12.044 16.922 4 22 4 0-1.851-26-18.628-26-7l4 3Z"/><path fill="#40A465" id="ACAv6b" d="m250 103-1 1 1-1Z"/><path fill="#AAA8A9" id="SEZ" d="M276 109c0-9.436-17.798 4-21 4 0-2.232 24-17.267 24-6 0 1.577-1.762 2-3 2Z"/><path fill="#187E61" id="SSp-m1" d="m405 124-4 3c-2.334 0-1.341-4.181-2-5.5l-8-18.5 8 5c.931 0 6 13.842 6 16Z"/><path fill="#98D5F9" id="CP" d="M134 235h1c0-2.391 7.879-1.189 9.5-2l17.5-6c0-1.577 1.762-2 3-2l4-2.5 6-10c2.718-5.436-.003-26.995 3-33 2.86-5.721 7-3.3 7 2.5h3c0-1.819 1-4.591 1-7l1-12v-8c0-1.49-.735-8 1-8v-5c-1.587 0-1.123-13.745-2-15.5-2.277-4.553-8-11.253-8-16.5l-4-3c-16.315 0-31.172.836-45.5 8-6.664 3.332-10.855 9.427-16 12-2.922 1.461-12.763 17.026-14.5 20.5-.628 1.256-2.273 6.5-4 6.5 0 5.043-4 8.415-4 13l-2 2v2c0 2.777-1 6.38-1 8.5 0 5.474 3 10.77 3 16.5v1c1.59 0 1.443 4.386 2 5.5 1.663 3.326 4 7.592 4 11.5v1c1.368 0 4 5.878 4 7v1l2 2v1l12 8c2.721 0 6.171.836 8.5 2l8.5-1Z"/><path fill="#A8AAAA" id="VL" d="M205 115c0 3.675-14 18.724-14 27-1.587 0-1.123-13.745-2-15.5-2.277-4.553-8-11.253-8-16.5 0-12.044 16.922 4 22 4l2 1ZM265 149c0 1.048-.473 3 1 3l1-24.5 9-18.5c0-9.436-17.798 4-21 4l-2 1-1 1 9 13.5c2.536 5.071 4 11.372 4 17.5v3Z"/><path fill="#98D5F9" id="CP" d="m345 231-6 3-11.5 2c-13.831-6.916-36.091-2.682-44.5-19.5-3.842-7.684-1.381-30.762-4-36-3.368-6.736-8-4.969-8 1.5h-3l-1-2v-17c0-1.235.643-5-1-5v-6l1-24.5 9-18.5c1.238 0 3-.423 3-2 14.255 0 28.833-.333 41.5 6 4.545 2.273 8.385 5.692 13 8l9.5 8.5 16 24c.98 1.96 2.622 13.5 5 13.5l1 2v1l1 2v1c0 8.783-3 16.077-3 24v2c-2.251 0-5 11.693-5 14l-1 2-2 4v1l-1 1-1 2-1 2-1 1-1 1-1 1-1 1c-1.238 0-3 .423-3 2Z"/><path fill="#188064" id="SSp-m6b" d="M129 111c-3.448 0-6.349 6-10 6 0-2.12 7.287-7 9-7h1v1ZM361 149l-2 1c0-7.839-16.526-29.513-23.5-33-1.74-.87-4.66-6-7.5-6v-1l7.5 5c5.833 2.917 25.5 26.718 25.5 34Z"/><path fill="#AAA8A9" id="SEZ" d="m255 113-2 1 2-1Z"/><path fill="#90CBEC" id="LSc" d="m191 145 2 2 7.5-7c3.918-3.918 21.5-14.048 21.5-19v-1c0-2.201-14.169-5-17-5 0 3.675-14 18.724-14 27v3ZM265 146l-1 1c-2.585 0-5.647-4.147-7.5-6-3.949-3.949-22.5-16.041-22.5-20v-1l1-1c5.49 0 10.658-4 17-4l9 13.5c2.536 5.071 4 11.372 4 17.5Z"/><path fill="#188064" id="SSp-m6b" d="M119 117c-1.747 0-2 .253-2 2 1.747 0 2-.253 2-2ZM113 123h2l2-4c-1.366 0-4 2.366-4 4Z"/><path fill="#97D6F9" id="STR" d="M227 120c0 2.202 3 2.202 3 0-.716 0-3-2.373-3 0ZM235 119l-1 1 1-1ZM223 120l-1 1v-1h1Z"/><path fill="#90CAED" id="LSr" d="M210 177c0-9.554 2.972-20.444 7-28.5l6-8 5.5-10.5 4.5 9.5 6 8c4.471 8.943 7 19.788 7 30.5 1.988 0 7.435-5.967 9.5-7 4.136-2.068 6.314 1 9.5 1l1-14v-6c-1.473 0-1-1.952-1-3l-1-2c-2.585 0-5.647-4.147-7.5-6-3.949-3.949-22.5-16.041-22.5-20l-1-1h-3c0 2.202-3 2.202-3 0h-4l-1 1c0 4.952-17.582 15.082-21.5 19l-7.5 7-2 2c0 1.321.684 6-1 6v8c2.715 0-.715 8 2 8 2.597 0 5.518-1.491 8.5 0l9.5 6Z"/><path fill="#97D6F9" id="STR" d="M234 120v1l-1-1h1Z"/><path fill="#188064" id="SSp-m6b" d="m96 149 1 1c0-1.238.423-3 2-3 0-1.465-.109-4 2-4 0-1.465-.109-4 2-4 0-1.238.423-3 2-3 0-1.238.423-3 2-3 0-1.429 1.288-4 3-4l3-6c-3.135 0-17 22.166-17 26Z"/><path fill="#C9C9CA" id="scwm" d="M115 123c0 1.668-3.099 6-5 6l3-6h2Z"/><path fill="#1A7E62" id="SSs1" d="M409 177h4c0-2.123 1-7.499 2-9.5 1.728-3.456-4.23-30.46-6-34-.784-1.568-1.924-9.5-4-9.5l-4 3v1c0 3.747 5.163 15.826 7 19.5 2.736 5.472 1 22.447 1 29.5ZM43 177h5v-1c-1.781 0-1-10.176-1-12 0-10.084 1.778-22.057 6-30.5l3-5.5v-1c-1.624 0-2.75-2-5-2-2.489 0-4.032 10.564-5 12.5-5.82 11.639-3 26.584-3 39.5Z"/><path fill="#1B8063" id="SSs2/3" d="M56 175c-2.097 0-5.293 1-8 1-1.781 0-1-10.176-1-12 0-10.084 1.778-22.057 6-30.5l3-5.5c3.57 0 5.945 5 9 5v1l-6 15.5c-3.143 6.286-3 18.131-3 25.5ZM400 175l9 2c0-7.053 1.736-24.028-1-29.5-1.837-3.674-7-15.753-7-19.5-4.298 0-6.905 5-10 5v1c2.55 0 3.117 8.735 4 10.5 4.494 8.988 5 19.653 5 30.5Z"/><path fill="#C9C9CA" id="scwm" d="M110 129c-1.712 0-3 2.571-3 4 1.712 0 3-2.571 3-4Z"/><path fill="#8FCBEC" id="SF" fill-rule="evenodd" d="M239 155c0 1.93 1.93 0 0 0m-22 0c0 1.93 1.93 0 0 0m23-1c0 1.93 1.93 0 0 0m-18 37c1.376 0 4.615-4.271 4-5.5h-3c-2.293-2.293-1.706-4.412-3-7-2.369-4.738 2.172-15.344 4-19l4.5-4.5c7.989 3.995 9.88 22.74 6.5 29.5-1.204 2.407-3.67.341-4 1-.694 1.389 2.13 5.5 3 5.5 3.128 0 5.28-2 6-2l1-1c0-4.159 5-6.37 5-10 0-10.712-2.529-21.557-7-30.5l-6-8-4.5-9.5-5.5 10.5-6 8c-4.028 8.056-7 18.946-7 28.5l6 12c1.732 0 1.808 2 6 2Z"/><path fill="#C9C9CA" id="scwm" d="M107 133c-1.577 0-2 1.762-2 3 1.577 0 2-1.762 2-3Z"/><path fill="#187C63" id="SSs4" d="M56 175h6c0-5.461.789-19.078 3-23.5l5-15.5-5-2-6 15.5c-3.143 6.286-3 18.131-3 25.5ZM394 175h6c0-10.847-.506-21.512-5-30.5-.883-1.765-1.45-10.5-4-10.5l-5 2 4 10.5c2.915 5.829 4 21.04 4 28.5Z"/><path fill="#1C8063" id="SSs5" d="M62 175h13v-1c0-7.04-.94-16.619 2-22.5 1.419-2.837 3-6.115 3-9.5 0-1.186-8.658-6-10-6l-5 15.5c-2.211 4.422-3 18.039-3 23.5Z"/><path fill="#C9C9CA" id="scwm" d="M105 136c-1.577 0-2 1.762-2 3 1.577 0 2-1.762 2-3Z"/><path fill="#1C8063" id="SSs5" d="M382 175h12c0-7.46-1.085-22.671-4-28.5l-4-10.5-10 5v1l3 8.5c3.186 6.372 3 16.921 3 24.5Z"/><path fill="#C9C9CA" id="scwm" d="M103 139c-2.109 0-2 2.535-2 4l2-4Z"/><path fill="#197D63" id="SSs6a" d="M84 175c0-1.399 2-1.399 2 0l2-1c0-8.675 7-16.155 7-25l-14-7h-1c0 3.385-1.581 6.663-3 9.5-2.94 5.881-2 15.46-2 22.5.36 0 8-.633 8 1h1ZM373 175c0-2.558 7.758 0 9 0 0-7.579.186-18.128-3-24.5l-3-8.5-15 7c0 8.639 7 15.966 7 25l2 1c0-1.399 2-1.399 2 0h1Z"/><path fill="#C9C9CA" id="scwm" d="M101 143c-2.109 0-2 2.535-2 4l2-4Z"/><path fill="#97D6F9" id="STR" d="m193 147-2 2v-4l2 2ZM264 147l1 2v-3l-1 1Z"/><path fill="#C9C9CA" id="scwm" d="M97 150v1l2-4c-1.577 0-2 1.762-2 3Z"/><path fill="#A8AAAA" id="VL" d="M191 149c0 1.321.684 6-1 6 0-1.49-.735-8 1-8v2Z"/><path fill="#1A8061" id="SSs6b" d="M88 175h1l1-1c0-1.048-.473-3 1-3v-4l1-3 1-1v-2l1-1v-1l1-1v-2l1-1v-1c0-1.048-.473-3 1-3v-1l-1-1h-1c0 8.845-7 16.325-7 25v1ZM367 174h1c0-9.034-7-16.361-7-25l-2 1v1l2 4v2l1 1v1l1 1v2l1 1 1 4v3l1 2v1l1 1Z"/><path fill="#C9C9CA" id="scwm" d="M96 154h1v-3c-1.473 0-1 1.952-1 3ZM359 151l2 4-2-4Z"/><path fill="#C9C7C9" id="ccb" d="M91 167h2c0-4.585 4-7.957 4-13h-1v1l-1 1v2l-1 1v1l-1 1v2l-1 1-1 3Z"/><path fill="#CBC8CB" id="fi" d="M240 154c0 1.93 1.93 0 0 0Z"/><path fill="#C9C9CA" id="scwm" d="m96 155-1 1 1-1Z"/><path fill="#CBC8CB" id="fi" d="M217 155c0 1.93 1.93 0 0 0Z"/><path fill="#96A7D3" id="MS" fill-rule="evenodd" d="m227 196-1 1c-2.804 0-4-3.614-4-6 1.376 0 4.615-4.271 4-5.5h-3c-2.293-2.293-1.706-4.412-3-7-2.369-4.738 2.172-15.344 4-19l4.5-4.5c7.989 3.995 9.88 22.74 6.5 29.5-1.204 2.407-3.67.341-4 1-.694 1.389 2.13 5.5 3 5.5 0 7.784-1.717 4-5 4 0-6.611-2-3.922-2 1m1-18-1 2c0 1.26 1.133 8.233 2 6.5 1.252-2.504-1-15.638-1-8.5Z"/><path fill="#CBC8CB" id="fi" d="M239 155c0 1.93 1.93 0 0 0Z"/><path fill="#C9C9CA" id="scwm" d="m361 157 1 1-1-1ZM95 158l-1 1 1-1Z"/><path fill="#A8AAAA" id="VL" d="M265 183h1c0-1.048-.473-3 1-3v-17c0-1.235.643-5-1-5l-1 14c0 3.806-1 7.751-1 11h1Z"/><path fill="#C9C9CA" id="scwm" d="m362 159 1 1-1-1ZM94 160l-1 1 1-1ZM363 162l1 1-1-1ZM93 163l-1 1 1-1Z"/><path fill="#A8AAAA" id="VL" d="M191 183h1v-12c-2.715 0 .715-8-2-8l-1 12c1.714 0 1 5.594 1 7l1 1Z"/><path fill="#C8CBCC" id="ec" d="m93 167-2 2v-2h2ZM365 167v2l-1-2h1Z"/><path fill="#8FCBED" id="LSv" d="M216 189c0 17.844-17.021 1-19 1l-1-1-1-1-1-1-1-1v-1l-1-2v-12c2.597 0 5.518-1.491 8.5 0l9.5 6 6 12ZM257 193c-1.747 0-2 .253-2 2-6.039 0-15 4.538-15-6l1-1c0-4.159 5-6.37 5-10 1.988 0 7.435-5.967 9.5-7 4.136-2.068 6.314 1 9.5 1 0 3.806-1 7.751-1 11l-1 3-1 1-1 1-1 1-1 1-1 1-1 2Z"/><path fill="#C8CBCC" id="ec" d="m365 170 1 2-1-2ZM92 196h1c0-5.73-3-11.026-3-16.5 0-2.12 1-5.723 1-8.5-1.473 0-1 1.952-1 3l-1 1c0 5.479 1 11.075 1 16l1 2 1 2v1ZM363 197h1v-1l1-1 1-4 1-1v-16l-1-1c0 8.783-3 16.077-3 24Z"/><path fill="#12AD82" id="VISC5" d="M75 177c-4.885 0-8.723 3-13 3v-5h13v2Z"/><path fill="#11AC83" id="VISC6a" d="m83 175-8 1v-2c.36 0 8-.633 8 1ZM84 175h2c0-1.399-2-1.399-2 0Z"/><path fill="#009B74" id="GU6a" d="M85 193c-3.22 0-5.108 1-8 1 0-5.517-2-10.764-2-17v-1l8-1h3l2-1v1c0 5.479 1 11.075 1 16l-4 2Z"/><path fill="#019C74" id="GU6b" d="m90 174-1 1 1-1ZM368 174c0 1.835 3.052 15-1 15v-15h1Z"/><path fill="#009B74" id="GU6a" d="M371 193h8c0-4.431 3-11.079 3-16v-1l-9-1h-3l-2-1c0 1.835 3.052 15-1 15v2l4 2Z"/><path fill="#11AC83" id="VISC6a" d="M370 175h2c0-1.399-2-1.399-2 0ZM382 175v1l-9-1c0-2.558 7.758 0 9 0Z"/><path fill="#12AD82" id="VISC5" d="M382 177c4.885 0 8.584 3 13 3l-1-5h-12v2Z"/><path fill="#12AC83" id="VISC2/3" d="m49 184 1 1c0-1.969 5.584-3 7-3v-1l-1-6c-2.097 0-5.293 1-8 1v1l1 7Z"/><path fill="#11AC82" id="VISC4" d="m62 180-5 1-1-6h6v5Z"/><path fill="#019C74" id="GU6b" d="M89 191h1c0-4.925-1-10.521-1-16h-1c0 5.479 1 11.075 1 16Z"/><path fill="#97D6F9" id="STR" fill-rule="evenodd" d="M171 223c0 1.93 1.93 0 0 0m4 8-9 4c0-1.739 7.413-9.544 4.5-11l-5.5 1 4-2.5 6-10c2.718-5.436-.003-26.995 3-33 2.86-5.721 7-3.3 7 2.5l-1 1-1 2-3 4c-1.643 0-1 3.765-1 5 0 7.79-4 17.11-4 25-2.206 0 .742 2 2 2l1 3c0 2.607-3 4.913-3 7Z"/><path fill="#97D6F9" id="STR" d="M188 182h2c0-1.406.714-7-1-7 0 2.409-1 5.181-1 7ZM228 178l-1 2c0 1.26 1.133 8.233 2 6.5 1.252-2.504-1-15.638-1-8.5ZM337 239l-8 8c0-3.018 7.393-8.053 3.5-10-4.791-2.395-23.255-1.127-29-4-4.821-2.41-9.227-5.614-14-8l-4.5-1.5c-1.767 3.533 9 12.223 9 14.5-4.404 0-8.012-7-13-7l-3-6v-1l2-3c1.652 0 3.092-2 1-2 0-7.665-3-15.532-3-23 0-1.725-1-8.071-1-6-3.224 0-1.507-7-5-7l-1-1c0-6.469 4.632-8.236 8-1.5 2.619 5.238.158 28.316 4 36 8.409 16.818 30.669 12.584 44.5 19.5l11.5-2h1c0 1.947-3 2.636-3 5Z"/><path fill="#11AC82" id="VISC4" d="M395 181h5v-6h-6l1 5v1Z"/><path fill="#12AC83" id="VISC2/3" d="m400 182 7 2 2-7-9-2v7Z"/><path fill="#12AD83" id="VISC1" d="m49 184-4 2-2-9h5l1 7Z"/><path fill="#019C75" id="GU5" d="M77 194c-3.46 0-8.607 2-12 2 0-5.191-3-10.118-3-16 4.277 0 8.115-3 13-3 0 6.236 2 11.483 2 17ZM391 196h1l3-15v-1c-4.416 0-8.115-3-13-3 0 4.921-3 11.569-3 16v1c1.308 0 12 1.144 12 2Z"/><path fill="#12AD83" id="VISC1" d="m407 184 4 2c0-2.526 2-5.577 2-9h-4l-2 7Z"/><path fill="#8FCBEC" id="SF" d="m228 178-1 2 1-2Z"/><path fill="#009C74" id="GU4" d="M63 196h2c0-5.191-3-10.118-3-16l-5 1v1c0 2.642 3.045 14 6 14Z"/><path fill="#97D6F9" id="STR" d="m268 182-2 1c0-1.048-.473-3 1-3l1 2Z"/><path fill="#009C74" id="GU4" d="m392 196 1 1 5-8.5c.527-1.053.851-6.5 2-6.5v-1h-5l-3 15Z"/><path fill="#009B75" id="GU2/3" d="M63 196c0 .951-6.87 3-8 3 0-4.415-5-8.756-5-14 0-1.969 5.584-3 7-3 0 2.642 3.045 14 6 14Z"/><path fill="#B3C0DE" id="BST" d="M196 207c-6.357 0-9.61 11-16 11l-1-12.5c2.858-5.716 4-13.679 4-20.5l1-2 1-1h5l1 1c0 1.747.253 2 2 2v1l1 1 1 1 1 1 1 1c0 1.646 9 9.49 9 17-1.061 0-10-4.822-10 0ZM260 206c6.575 0 10.26 12 17 12v-14.5c-2.461-4.921-5-14.938-5-20.5l-1-1h-3l-2 1h-1c0 1.238-.423 3-2 3l-1 1-1 1-1 1-1 1-1 1-1 2-2 2c0 2.148-5 7.747-5 12l3.5-2 6.5 1Z"/><path fill="#009B75" id="GU2/3" d="M401 199h1c0-5.06 5-9.595 5-15l-7-2c-1.149 0-1.473 5.447-2 6.5l-5 8.5c1.552 0 8 .566 8 2Z"/><path fill="#8599CC" id="PAL" d="m184 183-1 2 1-2Z"/><path fill="#97D6F9" id="STR" d="m192 183 1 2c-1.747 0-2-.253-2-2h1ZM265 183c0 1.238-.423 3-2 3l1-3h1Z"/><path fill="#8599CC" id="PAL" d="m277 218 4 1c0-7.665-3-15.532-3-23-1.684 0-1-4.679-1-6-3.224 0-1.507-7-5-7 0 5.562 2.539 15.579 5 20.5V218Z"/><path fill="#009C75" id="GU1" d="m55 199-4 1c-1.416 0-6-12.205-6-14l4-2 1 1c0 5.244 5 9.585 5 14ZM402 199l4 1c0-4.748 5-8.89 5-14l-4-2c0 5.405-5 9.94-5 15Z"/><path fill="#8599CC" id="PAL" d="m180 218-5 1c0-7.89 4-17.21 4-25 1.643 0 1-3.765 1-5l3-4c0 6.821-1.142 14.784-4 20.5l1 12.5Z"/><path fill="#97D6F9" id="STR" d="m193 186 1 1-1-1ZM263 186l-1 1 1-1ZM262 187l-1 1 1-1ZM195 188l1 1-1-1ZM241 188l-1 1 1-1Z"/><path fill="#CCC" d="M180 189c-1.643 0-1 3.765-1 5 1.643 0 1-3.765 1-5Z"/><path fill="#97D6F9" id="STR" d="M206 207c2.765 0 5.165 2 7 2 3.769 0 6.048 1.726 9.5 0 2.139-1.069 1.431-10 3.5-10v-2c-2.804 0-4-3.614-4-6-4.192 0-4.268-2-6-2 0 17.844-17.021 1-19 1 0 1.646 9 9.49 9 17ZM250 207c-2.711 0-4.969 2-6 2l-8.5 1c-2.39-1.195-3.012-8-4.5-8v-3l-1-1v-1l-1-2c3.283 0 5 3.784 5-4 3.128 0 5.28-2 6-2 0 10.538 8.961 6 15 6 0 2.148-5 7.747-5 12ZM260 189l-1 1 1-1Z"/><path fill="#CCC" d="M277 190c0 1.321-.684 6 1 6 0-1.725-1-8.071-1-6Z"/><path fill="#019C74" id="GU6b" d="M366 191h1v-1l-1 1Z"/><path fill="#8ADA86" id="CLA" d="M91 209h2l1-2v-4c-1.473 0-1-1.952-1-3v-2l-1-2v-1l-1-2-1-2h-1l-4 2c0 4.948-2.626 16 6 16Z"/><path fill="#97D6F9" id="STR" d="m258 191-1 2 1-2Z"/><path fill="#8ADA86" id="CLA" d="M363 209h3c3.022 0 8.508-8.484 7-11.5l-2-4.5-4-2h-1l-1 4-1 1v1l-1 2v10Z"/><path fill="#209766" id="AIp6a" d="m89 211-4 2-8-19c2.892 0 4.78-1 8-1 0 4.948-2.626 16 6 16l-2 2ZM91 193l1 2-1-2Z"/><path fill="#97D6F9" id="STR" d="M257 193c-1.747 0-2 .253-2 2l2-2Z"/><path fill="#209766" id="AIp6a" d="m367 211 5 2 7-19v-1h-8l2 4.5c1.508 3.016-3.978 11.5-7 11.5l1 2Z"/><path fill="#219864" id="AIp5" d="m82 215-5 1c0-5.218-12-12.207-12-20 3.393 0 8.54-2 12-2l8 19-3 2ZM374 215l5 1c0-4.813 12-12.428 12-20 0-.856-10.692-2-12-2l-7 19 2 2Z"/><path fill="#209766" id="AIp6a" d="m365 195-1 1 1-1Z"/><path fill="#209865" id="AIp2/3" d="m77 216-9 4c0-.966-13-16.966-13-21 1.13 0 8-2.049 8-3h2c0 7.793 12 14.782 12 20Z"/><path fill="#209766" id="AIp6a" d="M93 197v1l-1-2h1v1Z"/><path fill="#97D6F9" id="STR" d="M226 197h1v-1l-1 1Z"/><path fill="#FF5445" id="MEPO" d="m227 238 2 1 2-4v-2c0-5.587-1-12.081-1-17l1-14v-3l-1-1v-1l-3-1v1l-1 1v18c0 7.293 1 15.359 1 22Z"/><path fill="#209865" id="AIp2/3" d="m379 216 9 3c2.951 0 13-17.372 13-20 0-1.434-6.448-2-8-2l-1-1h-1c0 7.572-12 15.187-12 20Z"/><path fill="#C8CBCC" id="ec" d="m95 209 4 5c0-3.908-2.337-8.174-4-11.5-.557-1.114-.41-5.5-2-5.5v3c1.473 0 1 1.952 1 3v4l1 2Z"/><path fill="#209766" id="AIp6a" d="m364 197-1 2v-2h1Z"/><path fill="#219765" id="AIp1" d="m68 220-6 2c0-5.054-11-15.114-11-22l4-1c0 4.034 13 20.034 13 21Z"/><path fill="#CAC7CB" id="fiber tracts" d="M214 218h1l1-1h7l3-1v-17c-2.069 0-1.361 8.931-3.5 10-3.452 1.726-5.731 0-9.5 0 0 4.148-4 4.648-4 8v1h5Z"/><path fill="#C8CBCC" id="ec" d="m361 209-3 4c0-2.307 2.749-14 5-14v4c-1.579 0-1 2.855-1 4l-1 2Z"/><path fill="#219765" id="AIp1" d="m388 219 6 3c1.087 0 12-19.921 12-22l-4-1h-1c0 2.628-10.049 20-13 20Z"/><path fill="#209766" id="AIp6a" d="M93 200c1.473 0 1 1.952 1 3-1.473 0-1-1.952-1-3Z"/><path fill="#CAC7CB" id="fiber tracts" d="M242 218h5v-1c0-3.071-3-4.331-3-8l-8.5 1c-2.39-1.195-3.012-8-4.5-8l-1 14 4 1c2.707 0 5.903 1 8 1Z"/><path fill="#209766" id="AIp6a" d="m362 207 1 1v-5c-1.579 0-1 2.855-1 4Z"/><path fill="#CBCBC7" id="aco" d="M209 217c-2.147 0-7.689 2-12 2l-2-5.5 1-6.5c0-4.822 8.939 0 10 0 2.765 0 5.165 2 7 2 0 4.148-4 4.648-4 8ZM247 217c2.147 0 7.689 2 12 2l2-4.5c1.284-2.568-1-6.486-1-8.5l-6.5-1-3.5 2c-2.711 0-4.969 2-6 2 0 3.669 3 4.929 3 8Z"/><path fill="#C9C9C9" id="act" d="M277 221h3c1.652 0 3.092-2 1-2l-4-1c-6.74 0-10.425-12-17-12 0 2.014 2.284 5.932 1 8.5l-2 4.5c6.616 0 11.873 2 18 2Z"/><path fill="#8AD987" id="CTXsp" d="M93 209h2l-1-2-1 2Z"/><path fill="#C9C9C9" id="act" d="M177 221h2c6.156 0 11.462-2 18-2l-2-5.5 1-6.5c-6.357 0-9.61 11-16 11l-5 1c-2.206 0 .742 2 2 2Z"/><path fill="#8AD987" id="CTXsp" d="M361 209h2v-1l-1-1-1 2Z"/><path fill="#A0EE9C" id="EPd" d="M101 231h2l2-4v-2l-2-2v-1c-1.948 0-4-5.428-4-7v-1l-4-5h-4l-2 2v11l2 2v1l1 1 2 1 2 2h1l1 1h1l1 1h1ZM355 231h1l2-1 1-1 3-1 1-1 1-1 1-1 1-1 1-1v-1l1-1 1-2c0-3.138-2-5.662-2-8l-1-2h-5l-3 4-1 2c0 1.465.109 4-2 4v1l-1 1-1 2-1 2-1 1v1c0 2.215 2 1.519 2 3l2 1Z"/><path fill="#99D2BD" id="OLF" d="M82 215c3.78 0 4.324 6 7 6v-10l-4 2-3 2ZM374 215c-2.359 0-3.698 4-5 4 0-3.138-2-5.662-2-8l5 2 2 2Z"/><path fill="#C8CBCC" id="ec" d="m358 213-1 2 1-2Z"/><path fill="#6ACAB9" id="PIR" d="M116 274h3c0-1.559 4.297-9 6-9l1-1c0-9.618-1.191-15.691-8-22.5-1.656-1.656-3.992-1.985-5-4l-12-6.5h-1l-1-1h-1l-1-1h-1l-2-2-2-1-1-1v-1l-2-2v-1c-2.676 0-3.22-6-7-6l-5 1-9 4-6 2c0 5.76 19.429 28.929 24.5 34l8.5 9c7.127 0 13.406 9 21 9Z"/><path fill="#C8CBCC" id="ec" d="M99 215c1.368 0 4 5.878 4 7-1.948 0-4-5.428-4-7ZM357 215l-2 4c2.109 0 2-2.535 2-4Z"/><path fill="#6ACAB9" id="PIR" d="m337 273 4 1c6.078 0 11.342-5.421 16.5-8 .778-.389 3.5-1.961 3.5 0l9-9.5c5.005-5.005 24-28.577 24-34.5l-6-3-9-3-5-1c-2.359 0-3.698 4-5 4l-1 2-1 1v1l-1 1-1 1-1 1-1 1-1 1-3 1-1 1-2 1h-1c0 .84-12.608 7.108-14.5 9-9.214 9.214-9.5 13.364-9.5 25 2.289 0 6 6.178 6 8Z"/><path fill="#E64438" id="HY" d="M225 242h2v-4c0-6.641-1-14.707-1-22l-3 1c0 5.039-1 10.575-1 15 5.528 0 3 6.411 3 10ZM235 232c-1.674 0-2.326 1-4 1 0-5.587-1-12.081-1-17l4 1c0 2.454-2.489 7.523-1 10.5l2 4.5Z"/><path fill="#B3C0DE" id="BST" d="M209 224c-6.773 0-8.653 8-15 8-5.587 0-15-.519-15-8v-3c6.156 0 11.462-2 18-2 4.311 0 9.853-2 12-2v7Z"/><path fill="#E64438" id="HY" d="m216 217-1 1 1-1Z"/><path fill="#FF5547" id="ADP" d="M212 232c0 8.802 9.126 0 10 0 0-4.425 1-9.961 1-15h-7l-1 1h-1l-3 7.5 1 6.5ZM235 232c0 1.829.2 1.35 1.5 2 9.214 4.607 4.093-2 8.5-2v-9.5l-3-4.5c-2.097 0-5.293-1-8-1 0 2.454-2.489 7.523-1 10.5l2 4.5Z"/><path fill="#B3C0DE" id="BST" d="M278 225c0 6.023-10.501 7-15 7-6.207 0-9.548-8-16-8v-7c2.147 0 7.689 2 12 2 6.616 0 11.873 2 18 2v2l1 1v1Z"/><path fill="#E64438" id="HY" d="M210 232h2l-1-6.5 3-7.5h-5v6c0 2.097 1 5.293 1 8ZM245 232h2v-14h-5l3 4.5v9.5Z"/><path fill="#99D2BD" id="OLF" d="m369 219-1 2 1-2Z"/><path fill="#C8CBCC" id="ec" d="m355 220-1 1 1-1Z"/><path fill="#8599CC" id="PAL" d="M178 224h1v-3h-2l1 3ZM277 223l1 1 2-3h-3v2Z"/><path fill="#C8CBCC" id="ec" d="m354 221-1 2 1-2Z"/><path fill="#99D2BD" id="OLF" d="m368 221-1 1 1-1ZM89 222l2 2-2-2Z"/><path fill="#C8CBCC" id="ec" d="m103 223 2 2-2-2Z"/><path fill="#7ECDF8" id="FS" d="M171 223c0 1.93 1.93 0 0 0Z"/><path fill="#E64438" id="HY" d="m277 223 1 1-1-1Z"/><path fill="#7ECDF8" id="FS" d="M329 247c-2.043 0-5.228 9-11 9-5.054 0-24-12.914-24-18 0-2.277-10.767-10.967-9-14.5l4.5 1.5c4.773 2.386 9.179 5.59 14 8 5.745 2.873 24.209 1.605 29 4 3.893 1.947-3.5 6.982-3.5 10Z"/><path fill="#C8CBCC" id="ec" d="m353 223-1 2 1-2Z"/><path fill="#99D2BD" id="OLF" d="m367 223-1 1 1-1Z"/><path fill="#7ECDF8" id="FS" d="m162 239-5.5 6c-6.963 3.481-8.919 11-18.5 11-3.425 0-16-15.792-16-17.5 0-3.142 12 .343 12-3.5h1c5.057 0 27-2.811 27-8 1.238 0 3-.423 3-2l5.5-1c2.913 1.456-4.5 9.261-4.5 11l-1 1-1 1-1 1-1 1Z"/><path fill="#E64438" id="HY" d="M189 242c2.829 0 10-1.609 10 4 1.811 0 4-3.438 4-5-3.631 0-14.39.281-11-6.5l2-2.5c-5.587 0-15-.519-15-8h-1c0 2.607-3 4.913-3 7 2.378 0 14 8.37 14 11Z"/><path fill="#FD5446" id="PS" d="m204 240-1 1c-3.631 0-14.39.281-11-6.5l2-2.5c6.347 0 8.227-8 15-8 0 2.097 1 5.293 1 8l-1 1c0 3.153-5 4.304-5 7ZM253 241h9l3-3.5-2-5.5c-6.207 0-9.548-8-16-8v8c0 3.651 6 5.93 6 9Z"/><path fill="#99D2BD" id="OLF" d="m366 224-1 1 1-1ZM91 225l1 1-1-1Z"/><path fill="#97D6F9" id="STR" d="M165 225c-1.238 0-3 .423-3 2 1.238 0 3-.423 3-2Z"/><path fill="#E64438" id="HY" d="M262 241h5c3.21 0 10.989-10 14-10l-3-6c0 6.023-10.501 7-15 7l2 5.5-3 3.5Z"/><path fill="#C8CBCC" id="ec" d="m352 225-1 1 1-1Z"/><path fill="#99D2BD" id="OLF" d="m365 225-1 1 1-1Z"/><path fill="#C8CBCC" id="ec" d="M116 234h1l-12-8v1c3.463 0 6.82 7 11 7ZM350 227h1v-1l-1 1Z"/><path fill="#99D2BD" id="OLF" d="m364 226-1 1 1-1ZM94 227l2 2-2-2Z"/><path fill="#8AD987" id="CTXsp" d="M116 234c0 1.353 3 2.158 3 5-6.435 0-8.869-8-16-8l2-4c3.463 0 6.82 7 11 7Z"/><path fill="#97D6F9" id="STR" d="m162 227-17.5 6c-1.621.811-9.5-.391-9.5 2 5.057 0 27-2.811 27-8Z"/><path fill="#C8CBCC" id="ec" d="m350 227-1 1 1-1Z"/><path fill="#8AD987" id="CTXsp" d="M340 234c0 1.947-3 2.636-3 5 5.626 0 7.858-5.679 12.5-8 1.046-.523 3.5.951 3.5-1 0-1.481-2-.785-2-3h-1l-1 1-1 1c0 1.577-1.762 2-3 2 0 1.803-3.592 3-5 3Z"/><path fill="#99D2BD" id="OLF" d="m363 227-1 1 1-1Z"/><path fill="#C8CBCC" id="ec" d="m349 228-1 1 1-1Z"/><path fill="#99D2BD" id="OLF" d="m97 229 1 1-1-1Z"/><path fill="#C8CBCC" id="ec" d="M348 229c-1.238 0-3 .423-3 2 1.238 0 3-.423 3-2Z"/><path fill="#99D2BD" id="OLF" d="m359 229-1 1 1-1ZM99 230l1 1-1-1ZM329 264l2 1c0-11.636.286-15.786 9.5-25 1.892-1.892 14.5-8.16 14.5-9l-2-1c0 1.951-2.454.477-3.5 1-4.642 2.321-6.874 8-12.5 8l-8 8c0 3.976-2.285 9.069-4 12.5-1.399 2.797 3 2.26 3 4.5h1ZM358 230l-2 1 2-1ZM126 264h2l1-1h1l1-1c0-4.981-6.206-23-12-23-6.435 0-8.869-8-16-8h-2l12 6.5c1.008 2.015 3.344 2.344 5 4 6.809 6.809 8 12.882 8 22.5Z"/><path fill="#A2B1D7" id="SI" d="M128 264c0 3.158 6.021 7.761 8.5 9 1.4.7 2.997 2.998 5 4 8.892 4.446 18.382 0 27.5 0 0-2.224-8.592-3.684-10-6.5-1.961-3.922 14.997-9.5 18-9.5l2-1 2-1c0-1.665 8-8.126 8-17 0-2.63-11.622-11-14-11l-9 4-1 1-1 1-1 1-1 1-5.5 6c-6.963 3.481-8.919 11-18.5 11 0 1.988-5.237 6-7 6l-1 1h-1l-1 1Z"/><path fill="#FF5346" id="MPO" fill-rule="evenodd" d="M247 251c0 2.212-1.324 4.852 0 7.5 9.98 19.959 22.858-7.5 0-7.5m12 18c-1.033 0-6-2.19-6 1-2.768 0-10-3.602-10-6 0-5.284-1.069-19-8-19l-1-1-2-2c0-1.819-1-4.591-1-7v-2c1.674 0 2.326-1 4-1 0 1.829.2 1.35 1.5 2 9.214 4.607 4.093-2 8.5-2h2c0 3.651 6 5.93 6 9 0 1.797 2.203 4 4 4 0 6.668 5 12.514 5 19v1l-3 4Z"/><path fill="#A2B1D7" id="SI" d="m329 264-6 6.5c-12.661 12.661-20.208 6.5-35 6.5 0-3.499 10-2.609 10-7.5 0-4.137-15.667-8.5-19-8.5l-4-3c0-.157-8-8.807-8-17 3.21 0 10.989-10 14-10 4.988 0 8.596 7 13 7 0 5.086 18.946 18 24 18 0 2.373 8.091 8 10 8h1Z"/><path fill="#C8CBCC" id="ec" d="M339 234h1c1.408 0 5-1.197 5-3l-6 3Z"/><path fill="#E64438" id="HY" d="m210 232-1 1 1-1Z"/><path fill="#FF5346" id="MPO" d="M197 269c2.967 0 4.861 1 7 1 4.182 0 6.8-6 10-6 0-3.585-.027-19 7-19l1-1c0-1.577 1.762-2 3-2 0-3.589 2.528-10-3-10-.874 0-10 8.802-10 0h-2l-1 1c0 3.153-5 4.304-5 7l-1 1c0 1.562-2.189 5-4 5l-2 11 6.5-6c3.072-1.536 8.543.414 6.5 4.5-2.352 4.705-4.779 12.861-11.5 9.5-1.959-.98-2.5-2.401-2.5-5-1.579 0-1 2.855-1 4v1l2 4Z"/><path fill="#97D6F9" id="STR" d="M138 256c0 1.988-5.237 6-7 6 0-4.981-6.206-23-12-23 0-2.842-3-3.647-3-5h1c2.721 0 6.171.836 8.5 2l8.5-1c0 3.843-12 .358-12 3.5 0 1.708 12.575 17.5 16 17.5ZM166 235l-1 1 1-1Z"/><path fill="#E64438" id="HY" d="m232 242-3 1v-4l2-4c0 2.409 1 5.181 1 7Z"/><path fill="#97D6F9" id="STR" d="m165 236-1 1 1-1ZM164 237l-1 1 1-1ZM163 238l-1 1 1-1Z"/><path fill="#A8A9AA" id="V3" d="M230 269c0 1.579-2.855 1-4 1 0-8.596 1-18.739 1-28v-4l2 1v4c0 8.603 1 18.059 1 26Z"/><path fill="#E64438" id="HY" d="m204 240-1 1 1-1Z"/><path fill="#F2473B" id="LPO" d="M193 264h2c0-1.145-.579-4 1-4 0-1.048-.473-3 1-3l2-11c0-5.609-7.171-4-10-4 0 8.874-8 15.335-8 17l1 1c4.202 0 7.605 4 11 4Z"/><path fill="#E64438" id="HY" d="m262 241-5 4c-1.797 0-4-2.203-4-4h9Z"/><path fill="#F2473B" id="LPO" d="M262 264h1c4.02 0 6.556-4 11-4l1-2c0-.157-8-8.807-8-17h-5l-5 4c0 6.668 5 12.514 5 19Z"/><path fill="#FE5446" id="AVPV" d="M215 275h1c0-1.577 1.762-2 3-2h2l2-1 2-1 1-1c0-8.596 1-18.739 1-28h-2c-1.238 0-3 .423-3 2v1c0 1.475-.216 8.931-1 10.5-.969 1.937-6 7.405-6 8.5 0 1.738-8.107 11-2 11h2ZM237 273l6 2c6.543 0-2-9.609-2-11l-4-4.5c-2.097-4.193-2-9.412-2-14.5l-1-1-2-2-3 1c0 8.603 1 18.059 1 26l1 2c1.424 0 5 .362 5 2h1Z"/><path fill="#E64438" id="HY" d="M221 245h1v-1l-1 1ZM234 244l1 1-1-1Z"/><path fill="#FD4C3E" id="MPN" d="M214 264h1c0-1.095 5.031-6.563 6-8.5.784-1.569 1-9.025 1-10.5h-1c-7.027 0-7 15.415-7 19ZM241 264h2c0-5.284-1.069-19-8-19 0 5.088-.097 10.307 2 14.5l4 4.5Z"/><path fill="#97D6F9" id="STR" d="M318 256c0 2.373 8.091 8 10 8 0-2.24-4.399-1.703-3-4.5 1.715-3.431 4-8.524 4-12.5-2.043 0-5.228 9-11 9Z"/><path fill="#FE5447" id="AVP" d="m197 257 6.5-6c3.072-1.536 8.543.414 6.5 4.5-2.352 4.705-4.779 12.861-11.5 9.5-1.959-.98-2.5-2.401-2.5-5 1.473 0 1-1.952 1-3ZM247 251c0 2.212-1.324 4.852 0 7.5 9.98 19.959 22.858-7.5 0-7.5Z"/><path fill="#FF5346" id="MPO" d="M197 257c-1.473 0-1 1.952-1 3 1.473 0 1-1.952 1-3Z"/><path fill="#E64438" id="HY" d="m279 261-1 2c0-2.715-1.657-3-4-3l1-2 4 3ZM179 260h3l-1-1-2 1ZM177 261l2 2v-3l-2 1Z"/><path fill="#96A6D3" id="NDB" d="M179 274c0 7.324 10.515 5 15 5l3-10-2-4-2-1c-3.395 0-6.798-4-11-4h-3v14ZM262 278l1 1 7.5 1c1.586-.793 6.811-5 7.5-5v-12c0-2.715-1.657-3-4-3-4.444 0-6.98 4-11 4l-1 1-3 4 3 9Z"/><path fill="#A2B1D8" id="MA" d="M169 277h5l5-3v-11l-2-2c-3.003 0-19.961 5.578-18 9.5 1.408 2.816 10 4.276 10 6.5ZM283 277h5c0-3.499 10-2.609 10-7.5 0-4.137-15.667-8.5-19-8.5l-1 2v12c1.041 0 5 .986 5 2Z"/><path fill="#97D6F9" id="STR" d="m131 262-1 1 1-1ZM129 263l-1 1 1-1Z"/><path fill="#99D2BD" id="OLF" d="m126 264-1 1 1-1Z"/><path fill="#7FCCF7" id="OT" d="m182 287-1 1c0 5.939-8.152 5.326-11.5 7-13.456 6.728-23.449 4.275-36-2-2.99-1.495-10.5-5.786-10.5-10l-2-2v-1c0-1.424-.362-5-2-5v-1c0-1.559 4.297-9 6-9l1-1h2c0 3.158 6.021 7.761 8.5 9 1.4.7 2.997 2.998 5 4 8.892 4.446 18.382 0 27.5 0h5c5.388 0 8 5.28 8 10Z"/><path fill="#CBCCCB" id="mfb" d="M195 264v1l-2-1h2Z"/><path fill="#E64438" id="HY" d="m213 275-8 4c0-3.222-1-6.277-1-9 4.182 0 6.8-6 10-6h1c0 1.738-8.107 11-2 11ZM243 275l8 4c0-3.423 2-6.474 2-9-2.768 0-10-3.602-10-6h-2c0 1.391 8.543 11 2 11Z"/><path fill="#CBCCCB" id="mfb" d="m263 264-1 1v-1h1Z"/><path fill="#7FCCF7" id="OT" d="M334 282c0 4.336-5.237 7.369-8.5 9-12.444 6.222-21.412 12.294-36 5-3.623-1.811-14.5-1.876-14.5-8 0-5.501.768-11 8-11h5c14.792 0 22.339 6.161 35-6.5l6-6.5 2 1c2.289 0 6 6.178 6 8v2l-2 6-1 1Z"/><path fill="#CAC8C7" id="lot" d="M117 277v2c0 2.771-5.997.751-7.5 0-4.253-2.127-14.5-8.675-14.5-14 7.127 0 13.406 9 21 9l1 3ZM339 276v3l3.5 2c4.35-2.175 18.5-8.552 18.5-15 0-1.961-2.722-.389-3.5 0-5.158 2.579-10.422 8-16.5 8l-2 2Z"/><path fill="#FE5546" id="VLPO" d="m205 279-1 1c-3.325 0-7.31-1-10-1l3-10c2.967 0 4.861 1 7 1 0 2.723 1 5.778 1 9ZM262 279c-2.389 0-5.987 1-9 1l-2-1c0-3.423 2-6.474 2-9 0-3.19 4.967-1 6-1l3 9v1Z"/><path fill="#CAC7CB" id="fiber tracts" d="M223 272h4l-2-1-2 1ZM229 272l7 1c0-1.638-3.576-2-5-2l-2 1ZM223 272l-2 1 2-1Z"/><path fill="#CBCACC" id="och" d="M215 275h1c1.238 0 3-.423 3-2h2l2-1h6l7 1h1c0 1.934 18.1 8.3 16 12.5-1.664 3.327-8.689 2.5-12 2.5-6.212 0-35.382 1.735-38-3.5-1.702-3.404 12-6.27 12-9.5Z"/><path fill="#CAC7CB" id="fiber tracts" d="M219 273c-1.238 0-3 .423-3 2 1.238 0 3-.423 3-2Z"/><path fill="#CAC7CB" id="fiber tracts" d="m204 280-4 6.5c0 1.224 7.996 2.5 9.5 2.5l17 2 2-2c1.613 0 2.027 3.487 7 1 4.49-2.245 11.411.295 16-2l5.5-1.5-4-6.5-2-1-8-4-6-2c0 1.934 18.1 8.3 16 12.5-1.664 3.327-8.689 2.5-12 2.5-6.212 0-35.382 1.735-38-3.5-1.702-3.404 12-6.27 12-9.5h-2l-8 4-1 1Z"/><path fill="#99D2BD" id="OLF" d="m337 275 2 1 2-2-4-1v2ZM119 275l-2 2-1-3h3v1Z"/><path fill="#8599CC" id="PAL" d="M194 279c0 2.542-9.371 8-12 8 0-4.72-2.612-10-8-10l5-3c0 7.324 10.515 5 15 5Z"/><path fill="#97D6F9" id="STR" d="m117 279 4 1c0-1.424-.362-5-2-5l-2 2v2Z"/><path fill="#8599CC" id="PAL" d="M263 279c0 2.361 9.402 9 12 9 0-5.501.768-11 8-11 0-1.014-3.959-2-5-2-.689 0-5.914 4.207-7.5 5l-7.5-1Z"/><path fill="#97D6F9" id="STR" d="m339 279-4 2 2-6 2 1v3Z"/><path fill="#E64438" id="HY" d="M262 279h1l-1-1v1Z"/><path fill="#97D6F9" id="STR" d="m121 281 2 2-2-2ZM335 281l-1 1 1-1Z"/><path fill="#8599CC" id="PAL" d="m182 287-1 1 1-1Z"/></svg>