<svg xmlns="http://www.w3.org/2000/svg" viewBox="0 0 456 320"><path fill="#9AD1BD" id="MOB" d="M148 143v11c0 10.557 12.207 27.914 17 37.5 3.902 7.805-1.211 21.577 2 28 2.247 4.494 6.244 7.488 8 11 .783 1.565 4.166 1.833 5.5 2.5 10.673 5.336 25.185 10.13 32.5-4.5 5.879-11.758 8-29.065 8-43l1-28c1.66-3.32 5.054-24.892 3-29-2.451-4.903-4.508-10.016-7-15l-6-6.5c-2.232 0-9.253-2.876-11.5-4-3.209-1.604-22.942 4.471-26 6l-13.5 9.5-5 6.5-1 1v1l-1 1-1 2-1 2-1 2v1l-1 2-1 2v1c0 1.048.473 3-1 3ZM309 148v6c-1.951 0-.477 2.454-1 3.5-2.048 4.096-2.962 8.923-5 13-4.845 9.69-9.243 19.486-14 29-4.906 9.812 6.877 23.812-8.5 31.5-4.967 2.484-10.091 4.545-15 7-9.297 4.648-18.79-4.081-22.5-11.5-4.806-9.612-3.758-23.516-7-30-3.01-6.02 2.067-15.867-1-22v-13c-1.438-2.876-5.486-28.028-4-31 2.907-5.814 5.04-12.08 8-18l5-5.5c2.624 0 9.949-2.725 12.5-4 5.62-2.81 26.124 7.562 31 10 2.181 1.091 10.5 5.708 10.5 9l1 1 2 3 4 7v1l2 4v1c0 .969 1.147 7 2 7v2Z"/><path fill="#C7CBCA" id="onl" d="M153 211c0 6.449 5.739 9.977 8 14.5 4.644 9.288 14.622 15.061 23.5 19.5l7 6c8.351 4.175 19.42 1.79 27-2 8.495-4.248 8.5-23.049 8.5-32 0-1.991-.793-14 1-14v-2c-1.566 0-1.566-5 0-5v-38c-1.735 0-1-6.51-1-8 0-11.338 1.161-43-15-43l6 6.5c2.492 4.984 4.549 10.097 7 15 2.054 4.108-1.34 25.68-3 29l-1 28c0 13.935-2.121 31.242-8 43-7.315 14.63-21.827 9.836-32.5 4.5-1.334-.667-4.717-.935-5.5-2.5-1.756-3.512-5.753-6.506-8-11-3.211-6.423 1.902-20.195-2-28-4.793-9.586-17-26.943-17-37.5-1.735 0-1 6.51-1 8v6c1.579 0 1 2.855 1 4v1c2.207 0 .338 5.176 1 6.5 3.266 6.531 4 23.557 4 31.5ZM308 176c-1.167 0-2 7.108-2 8.5 0 8.565-3 18.107-3 26.5 0 17.613-30.294 35.397-43.5 42-4.959 2.48-16.196-1.098-20-3-9.346-4.673-10.5-21.581-10.5-31v-84.5c0-8.161 6.011-27.5 15-27.5l-5 5.5c-2.96 5.92-5.093 12.186-8 18-1.486 2.972 2.562 28.124 4 31v13c3.067 6.133-2.01 15.98 1 22 3.242 6.484 2.194 20.388 7 30 3.71 7.419 13.203 16.148 22.5 11.5 4.909-2.455 10.033-4.516 15-7 15.377-7.688 3.594-21.688 8.5-31.5 4.757-9.514 9.155-19.31 14-29 2.038-4.077 2.952-8.904 5-13 .523-1.046-.951-3.5 1-3.5v17c-1.643 0-1 3.765-1 5Z"/><path fill="#99D2BD" id="OLF" d="m298 122 1 1-1-1ZM156 125l-1 1 1-1ZM301 126c1.948 0 4 5.428 4 7l-4-7ZM155 127l-1 1 1-1ZM154 128l-1 2 1-2ZM153 130l-1 2 1-2ZM152 132l-1 2 1-2ZM305 134c2.109 0 2 2.535 2 4l-2-4ZM151 135l-1 2 1-2ZM150 137l-1 2 1-2ZM307 139c2.273 0 2 5.226 2 7-.853 0-2-6.031-2-7ZM149 140c-1.473 0-1 1.952-1 3 1.473 0 1-1.952 1-3ZM148 154c-1.735 0-1 6.51-1 8-2.586 0 0-13.251 0-15 0-1.145-.579-4 1-4v11ZM309 154v13c1.797 0 1-12.925 1-15 0-1.145.579-4-1-4v6ZM227 150c1.735 0 1 6.51 1 8-1.735 0-1-6.51-1-8ZM147 168c1.579 0 1 2.855 1 4-1.579 0-1-2.855-1-4ZM309 171c-1.643 0-1 3.765-1 5 1.643 0 1-3.765 1-5ZM148 173c2.207 0 .338 5.176 1 6.5 3.266 6.531 4 23.557 4 31.5-3.11 0-2.161-5.822-3-7.5-3.348-6.695-2-22.942-2-30.5ZM308 176c-1.167 0-2 7.108-2 8.5 0 8.565-3 18.107-3 26.5 5.994 0 5-29.206 5-35ZM228 196c-1.566 0-1.566 5 0 5v-5ZM228 203c-1.793 0-1 12.009-1 14 1.793 0 1-12.009 1-14Z"/></svg>