<svg xmlns="http://www.w3.org/2000/svg" viewBox="0 0 456 320"><path fill="#1E9C59" id="MOs1" d="M160 129c0 1.643-3.765 1-5 1-6.494 0-1.782-16.936 0-20.5 6.164-12.329 20.379-17.5 33-17.5 0 1.38-6.327 1.413-7.5 2-7.17 3.585-17.885 4.27-22.5 13.5-1.475 2.949-5.02 9.959-3 14l5 7.5Z"/><path fill="#268F45" id="FRP1" d="M175 124c-5.482 0-9.307 5-15 5l-5-7.5c-2.02-4.041 1.525-11.051 3-14 4.615-9.23 15.33-9.915 22.5-13.5 1.173-.587 7.5-.62 7.5-2h10l2 1h1c0 .525 7.509 7.009 8.5 8l6.5 8c0 1.852 3.493 16.497-3.5 13l-4.5-2c-4.843 0-8.907-3-14.5-3-1.295 0-4.5-1.927-4.5 0-3.236 0-12 4.393-12 6l-2 1Z"/><path fill="#2FA750" id="PL1" d="m198 92 2 1-2-1ZM259 92c-1.048 0-3-.473-3 1 1.048 0 3 .473 3-1Z"/><path fill="#268F45" id="FRP1" d="M281 124c5.575 0 9.526 5 15 5 7.446 0 5.585-22.457-1.5-26-2.872-1.436-5.774-4.887-8-6-2.075-1.038-4.825-.912-7-2-1.378-.69-10.5-1.781-10.5-3h-10c0 1.473-1.952 1-3 1h-1l-12 11.5-3 4.5-1 1c0 2.004.638 13 2.5 13 2.394 0 3.753-2 6.5-2l1-1c0-1.951 2.454-.477 3.5-1 3.721-1.86 10.215-3 14.5-3 1.964 0 12 4.489 12 7h1l1 1Z"/><path fill="#1E9C59" id="MOs1" d="M296 129c0 1.643 3.765 1 5 1 8.247 0 1.924-17.653 0-21.5-5.241-10.482-19.559-16.5-32-16.5 0 1.219 9.122 2.31 10.5 3 2.175 1.088 4.925.962 7 2 2.226 1.113 5.128 4.564 8 6 7.085 3.543 8.946 26 1.5 26Z"/><path fill="#2FA750" id="PL1" d="m216 109 5 1c0-9.161-12.073-17-20-17 0 .525 7.509 7.009 8.5 8l6.5 8ZM235 110h4l1-1 3-4.5L255 93c-7.739 0-20 8.508-20 17Z"/><path fill="#23895D" id="ORBm1" d="m209 125 9.5 4c1.498-.749-.705-4 1.5-4 0-4.425 1-9.961 1-15l-5-1c0 1.852 3.493 16.497-3.5 13l-4.5-2 1 5ZM240 109l-1 1 1-1ZM247 125c-3.224 0-4.832 2.666-7.5 4l-2.5-2c0-5.378-2-10.79-2-17h4c0 2.004.638 13 2.5 13 2.394 0 3.753-2 6.5-2l-1 4Z"/><path fill="#248A5B" id="ORBvl1" d="M189 122c7.325 0 13.558 3 20 3l-1-5c-4.843 0-8.907-3-14.5-3-1.295 0-4.5-1.927-4.5 0v5ZM268 122c-7.754 0-14.169 3-21 3l1-4 1-1c0-1.951 2.454-.477 3.5-1 3.721-1.86 10.215-3 14.5-3l1 6Z"/><path fill="#238A5D" id="ORBl1" d="m268 122 11 1c0-2.511-10.036-7-12-7l1 6ZM189 122l-12 1c0-1.607 8.764-6 12-6v5Z"/><path fill="#23895D" id="ORBm1" d="m249 120-1 1 1-1Z"/><path fill="#99D2BD" id="OLF" d="m168 139 3-10.5c-1.031-2.063-4.572 1.036-5.5 1.5-3.818 1.909-8.373 5.247-10.5 9.5-.738 1.476-2.771 11.5-4 11.5 0-7.656 4-13.515 4-21 1.235 0 5 .643 5-1 5.693 0 9.518-5 15-5l2-1 12-1c7.325 0 13.558 3 20 3l9.5 4c1.498-.749-.705-4 1.5-4l1 13c-.716 0-3-2.373-3 0-.297 0-4.717-6.108-6.5-7-6.642-3.321-12.362-4-20.5-4-2.229 0-2.471-1.986-4.5-3-8.162-4.081-14.5 4.219-14.5 11l-4 4ZM289 141c0-2.947-.788-6.077-2-8.5l-2-4c1.512-3.024 13.64 6.28 15 9 .746 1.492 3.906 11.5 5 11.5 0-6.979-4-12.278-4-19-1.235 0-5 .643-5-1-5.474 0-9.425-5-15-5l-1-1h-1l-11-1c-7.754 0-14.169 3-21 3-3.224 0-4.832 2.666-7.5 4l-2.5-2c0 3.562-2 8.265-2 12 1.662 0 3-5.604 3 0 .685 0 3.751-6.125 5.5-7 7.59-3.795 13.177-5 22.5-5l4.5-3c8.266-4.133 13.5 4.412 13.5 11 3.849 0 3.07 6 5 6Z"/><path fill="#238A5D" id="ORBl1" d="m177 123-2 1 2-1ZM280 123l1 1-1-1Z"/><path fill="#9DF0D1" id="AOBgl" d="m172 135 8.5 6c3.807 1.904 8.066-2 11.5-2l1-7.5-2-4.5c-2.229 0-2.471-1.986-4.5-3-8.162-4.081-14.5 4.219-14.5 11ZM284 135l-8.5 6c-3.705 1.852-7.275-2-10.5-2l-2-5.5 3-6.5 4.5-3c8.266-4.133 13.5 4.412 13.5 11Z"/><path fill="#9AD1BD" id="MOB" d="M200 251h1c0-.42 8.726-3.952 10-6.5l6-8 4-11c5.103-10.207 4-33.981 4-47v-16c-1.671-3.341-4-8.641-4-12.5v-1c-2.173 0-3-9.063-3-11-.297 0-4.717-6.108-6.5-7-6.642-3.321-12.362-4-20.5-4l2 4.5-1 7.5c5.56 0 2 9.875 2 12 4.939 0 0 1.921 0 5 0 3.154-.23 12-5 12v15c0 7.178 7.866 30-3 30-1.122 0-7-1.498-7 2 0 2.934 4.557 6.387 3 9.5-1.6 3.2-9-6.998-9-8.5l-4 2v2l1 1c0 9.679 18.297 29 28 29l2 1ZM256 251h1l1-1h1l1-1c10.327 0 27-20.398 27-30 0-2.098-1.939-3-4-3 0 2.29-6.666 12.167-9 7.5-1.468-2.936 4-5.905 4-8.5-2.097 0-4.903-2-7-2-12.478 0-3-23.412-3-30-1.604 0 0-3.968 0-5.5 0-3.169-1-6.962-1-9.5l-4-4.5c-.47-.939-2.082-6.5 0-6.5 0-.247-6.095-7-1.5-7l1.5 1c0-2.696-5.032-12 2-12l-2-5.5 3-6.5c-9.323 0-14.91 1.205-22.5 5-1.749.875-4.815 7-5.5 7 0 2.155-.525 10-3 10v2c0 3.984-2.206 11.911-4 15.5V182c0 15.151-.329 32.841 6 45.5 3.958 7.916 7.172 23.5 19 23.5ZM151 162l2.5 4c2.552 1.276 5.368-4 6.5-4 0-2.319.423-15 4-15l2-2c0-.706 1.325-6 2-6l3-10.5c-1.031-2.063-4.572 1.036-5.5 1.5-3.818 1.909-8.373 5.247-10.5 9.5-.738 1.476-2.771 11.5-4 11.5v11ZM297 163c.402 0 3.43 2.465 4.5 3l3.5-2v-15c-1.094 0-4.254-10.008-5-11.5-1.36-2.72-13.488-12.024-15-9l2 4c1.212 2.423 2 5.553 2 8.5v2l1 2 2 2c4.563 0 4 10.88 4 14l1 1v1Z"/><path fill="#9DEFD2" id="AOBmi" d="m169 148 4 4.5c11.972 11.972 17.766-1.5 21-1.5 0-2.125 3.56-12-2-12-3.434 0-7.693 3.904-11.5 2l-8.5-6-4 4c0 3.222 1 6.277 1 9ZM287 148c0 8.435-24 12.98-24 3 0-2.696-5.032-12 2-12 3.225 0 6.795 3.852 10.5 2l8.5-6c3.849 0 3.07 6 5 6v2l-1 4-1 1Z"/><path fill="#C7CBCA" id="onl" d="M235 141c2.111 0 0 6.448 0 8 2.475 0 3-7.845 3-10 0-5.604-1.338 0-3 0v2ZM221 141c-1.001 0 0 6.101 0 8-2.173 0-3-9.063-3-11 0-2.373 2.284 0 3 0v3Z"/><path fill="#99D2BD" id="OLF" d="m166 145 3 3c0-2.723-1-5.778-1-9-.675 0-2 5.294-2 6ZM221 141h1l-1-2v2Z"/><path fill="#CAC8C9" id="von" d="M221 150c1.457 0 1.46 3 4 3 0-2.33-.661-12-3-12h-1c-1.001 0 0 6.101 0 8v1ZM235 151l-4 2c0-2.135 1.252-12 4-12 2.111 0 0 6.448 0 8v2Z"/><path fill="#99D2BD" id="OLF" d="m290 145-2 2 1-4 1 2Z"/><path fill="#CACAC9" id="lotd" d="M166 155c4.493 0 8.846 2.673 13.5 5 5.678 2.839 10.318-4 14.5-4 0-3.079 4.939-5 0-5-3.234 0-9.028 13.472-21 1.5l-4-4.5-3-3-2 2 1 8h1ZM290 155c0-3.729-8.599 3.549-9.5 4-6.799 3.4-11.697-2-17.5-2 0-.247-6.095-7-1.5-7l1.5 1c0 9.98 24 5.435 24-3l1-1 2-2 2 2v7l-2 1Z"/><path fill="#CAC8C7" id="lot" d="M179 215c0 2.934 4.557 6.387 3 9.5-1.6 3.2-9-6.998-9-8.5 0-4.373-4.046-11.593-6-15.5-2.856-5.713-7-30.831-7-38.5 0-2.319.423-15 4-15l1 8c-2.868 0-1 11.759-1 14 0 11.277 5.182 25.863 10 35.5.924 1.848 2.397 10.5 5 10.5Z"/><path fill="#99D2BD" id="OLF" d="m288 147-1 1 1-1Z"/><path fill="#CAC8C7" id="lot" d="M278 215c0 2.595-5.468 5.564-4 8.5 2.334 4.667 9-5.21 9-7.5l6-14.5c3.216-6.431 8-30.666 8-38.5v-1l-1-1c0-3.12.563-14-4-14v21c0 12.615-4.682 26.864-10 37.5-.802 1.605-2.064 9.5-4 9.5Z"/><path fill="#C7CBCA" id="onl" d="M227 210c0 8.825.972 40.556-2 46.5-2.37 4.74-24-3.006-24-5.5 0-.42 8.726-3.952 10-6.5l6-8 4-11c5.103-10.207 4-33.981 4-47v-16c-1.671-3.341-4-8.641-4-12.5 1.457 0 1.46 3 4 3l2 3.5V175c0 1.048-.473 3 1 3v23c-1.751 0-1 7.426-1 9ZM231 153l-2 6.5V177c0 15.712 1 32.472 1 47.5 0 5.996-.991 27.018 1 31 3.361 6.721 25-3.05 25-4.5-11.828 0-15.042-15.584-19-23.5-6.329-12.659-6-30.349-6-45.5v-15.5c1.794-3.589 4-11.516 4-15.5l-4 2Z"/><path fill="#99D2BD" id="OLF" d="M305 151c1.628 0 1.628 10 0 10v-10Z"/><path fill="#95E4C8" id="AOBgr" d="M183 169h2l4-1c4.77 0 5-8.846 5-12-4.182 0-8.822 6.839-14.5 4-4.654-2.327-9.007-5-13.5-5 0 4.495 7 7.249 7 10h1l1 1h1l1 1h2l1 1h2l1 1ZM272 169h1l1-1h3l1-1 3-1 1-1h1c0-2.219 7-5.67 7-10 0-3.729-8.599 3.549-9.5 4-6.799 3.4-11.697-2-17.5-2-2.082 0-.47 5.561 0 6.5l4 4.5 5 1Z"/><path fill="#99D2BD" id="OLF" fill-rule="evenodd" d="M291 159c0 6.447 1.39 0 0 0m-8 6h7.5l1.5 3v-14l-2 1c0 4.33-7 7.781-7 10ZM164 160c0 3.479 4.365 0 0 0m9 5h-6.5l-2.5 4c0-2.241-1.868-14 1-14h1c0 4.495 7 7.249 7 10Z"/><path fill="#9AD1BD" id="MOB" d="M291 159c0 6.447 1.39 0 0 0ZM164 160c0 3.479 4.365 0 0 0Z"/><path fill="#99D2BD" id="OLF" d="m296 161 1 1-1-1ZM173 216l-4 2c-2.471 0-4.967-12.434-6-14.5-5.882-11.764-12-27.571-12-41.5l2.5 4c2.552 1.276 5.368-4 6.5-4 0 7.669 4.144 32.787 7 38.5 1.954 3.907 6 11.127 6 15.5ZM283 216c2.061 0 4 .902 4 3 2.031 0 4.117-9.733 5-11.5 6.113-12.226 13-29.068 13-43.5l-3.5 2c-1.07-.535-4.098-3-4.5-3 0 7.834-4.784 32.069-8 38.5l-6 14.5Z"/><path fill="#54BF94" id="AON" d="M186 213c-1.122 0-7-1.498-7 2-2.603 0-4.076-8.652-5-10.5-4.818-9.637-10-24.223-10-35.5l2.5-4h7.5l1 1h1l1 1h2v1l3 4.5c2.57 5.14 2.391 11.782 5 17 3.625 7.25-1 16.723-1 23.5Z"/><path fill="#99D2BD" id="OLF" d="m174 165 1 1-1-1ZM282 165l-1 1 1-1Z"/><path fill="#54BF94" id="AON" d="M271 213c2.097 0 4.903 2 7 2 1.936 0 3.198-7.895 4-9.5 5.318-10.636 10-24.885 10-37.5l-1.5-3H282l-1 1-3 1-1 1c0 1.17-7 20.5-8 22.5-.574 1.148-.359 18.283 0 19 .809 1.619 2 1.471 2 3.5Z"/><path fill="#99D2BD" id="OLF" d="m176 166 1 1-1-1ZM179 168h1l-1-1v1Z"/><path fill="#CBCBC7" id="aco" d="m278 167-1 1 1-1ZM189 183c0 7.178 7.866 30-3 30 0-6.777 4.625-16.25 1-23.5-2.609-5.218-2.43-11.86-5-17l-3-4.5h3l1 1h2c0 1.721 2.671 14 4 14Z"/><path fill="#99D2BD" id="OLF" d="m182 168 1 1-1-1ZM185 169c0 1.721 2.671 14 4 14v-15l-4 1ZM272 169l-4 14c-1.604 0 0-3.968 0-5.5 0-3.169-1-6.962-1-9.5l5 1ZM274 168l-1 1 1-1Z"/><path fill="#CBCBC7" id="aco" d="M268 183c0 6.588-9.478 30 3 30 0-2.029-1.191-1.881-2-3.5-.359-.717-.574-17.852 0-19 1-2 8-21.33 8-22.5h-3l-1 1h-1l-4 14Z"/><path fill="#99D2BD" id="OLF" d="M227 175c1.473 0 1 1.952 1 3-1.473 0-1-1.952-1-3ZM228 201c-1.751 0-1 7.426-1 9 1.751 0 1-7.426 1-9ZM169 220l1 1-1-1Z"/><path fill="#C7CBCA" id="onl" d="m260 249-1 1 1-1ZM198 250l2 1-2-1ZM258 250l-1 1 1-1Z"/></svg>