<svg xmlns="http://www.w3.org/2000/svg" viewBox="0 0 456 320"><path fill="#1E9C59" id="MOs1" d="M227 55c-1.624 0-2.75 2-5 2l-3-5.5c-1.61-3.22-8.055-6.778-11.5-8.5-8.195-4.097-19.376 2-26.5 2v-6c18.143 0 23.272-8.228 39 7.5l7 8.5ZM234 58h1c0-3.531 2.813-7.657 5.5-9 2.277-1.138 5.043-4.521 8-6 7.993-3.996 20.665 2 27.5 2v-6c-14.113 0-32.6-7.3-41 9.5-.864 1.728-5 3.581-5 6.5l4 3Z"/><path fill="#1E9D5A" id="MOp1" d="M128 57v6l13.5-6c6.762-3.38 32.12-12 39.5-12v-6c-8.876 0-32.426 8.963-40.5 13-1.774.887-12.5 3.14-12.5 5ZM328 57c0 1.564 1 3.876 1 6l-9.5-4c-7.548-3.774-35.486-14-43.5-14v-6c9.792 0 32.607 9.554 41.5 14 1.765.883 10.5 1.45 10.5 4Z"/><path fill="#1E9D58" id="MOs2/3" d="m222 58-6 3-2.5-4-8-4c-1.422-.71-10.5-.232-10.5 1-6.059 0-10.506 6-16 6l2-15c7.124 0 18.305-6.097 26.5-2 3.445 1.722 9.89 5.28 11.5 8.5l3 5.5v1ZM277 60c-2.097 0-3.71-2.105-5.5-3-7.138-3.57-17.269-5.865-25-2-2.119 1.06-5.5 3.158-5.5 6l-6-3c0-3.531 2.813-7.657 5.5-9 2.277-1.138 5.043-4.521 8-6 7.993-3.996 20.665 2 27.5 2l1 15Z"/><path fill="#1F9C58" id="MOp2/3" d="M127 79v7l10.5-6c10.382-5.191 21.644-8.822 32-14 3.051-1.526 5.869-5 9.5-5v-1l2-15c-7.38 0-32.738 8.62-39.5 12L128 63c0 4.734-1 10.644-1 16ZM329 79v7l-10.5-6c-9.435-4.718-19.59-8.295-29-13L278 61l-1-1-1-15c8.014 0 35.952 10.226 43.5 14l9.5 4v1c-.139 0 0 12.444 0 15Z"/><path fill="#1F9D58" id="MOs5" d="M201 74c0-1.845-3.381-1.44-4.5-2-7.938-3.97-12.613 7-19.5 7 0-6.508 2-12.053 2-18v-1c5.494 0 9.941-6 16-6 0-1.232 9.078-1.71 10.5-1l8 4 2.5 4v1c-5.951 0-9.839 12-15 12ZM255 74c2.72 0 5.79-4.855 9.5-3l14.5 7c.765 0-1-15.886-1-17l-1-1c-2.097 0-3.71-2.105-5.5-3-7.138-3.57-17.269-5.865-25-2-2.119 1.06-5.5 3.158-5.5 6v1l3.5 2L255 74Z"/><path fill="#3EA665" id="ACAd1" d="M222 85h12V58l-4-3c-.476 0-3 3.803-3 0-1.624 0-2.75 2-5 2v28Z"/><path fill="#197E64" id="SSp-ul1" d="m102 70 3 5 23-12v-6c-7.325 0-21.592 13-26 13ZM351 75h1l3-4c0-1.98-23.418-14-27-14 0 1.564 1 3.876 1 6v1c5.581 0 18.529 11 22 11Z"/><path fill="#40A565" id="ACAd2/3" d="m222 85-5 1c0-7.895-1-16.783-1-24v-1l6-3v27ZM234 85l5 1V67.5c0-1.21.814-5.5 2-5.5v-1l-6-3h-1v27Z"/><path fill="#1E9C5A" id="MOp5" d="M127 87v14c2.976 0 9.675-4.588 12.5-6 8.525-4.262 18.515-5.758 27-10 2.946-1.473 7.148-6 10.5-6 0-6.508 2-12.053 2-18-3.631 0-6.449 3.474-9.5 5-10.356 5.178-21.618 8.809-32 14L127 86v1ZM329 87l1 14-12.5-6c-8.759-4.38-19.258-5.629-28-10l-9.5-6-1-1c.765 0-1-15.886-1-17l11.5 6c9.41 4.705 19.565 8.282 29 13l10.5 6v1Z"/><path fill="#3EA566" id="ACAd5" d="M217 86c-4.473 0-8.918 7-13 7 0-2.619-.353-18-3-18v-1c5.161 0 9.049-12 15-12 0 7.217 1 16.105 1 24ZM239 86l14 7c0-3.113-.395-18 2-18v-1l-10.5-10-3.5-2c-1.186 0-2 4.29-2 5.5V86Z"/><path fill="#197F61" id="SSp-ul2/3" d="M127 79c-5.057 0-10.32 7-15 7 0-3.556-7-7.65-7-10v-1l23-12c0 4.734-1 10.644-1 16ZM329 79c5.839 0 10.471 7 16 7 0-5.352 6-7.23 6-11-3.471 0-16.419-11-22-11-.139 0 0 12.444 0 15Z"/><path fill="#187E61" id="SSp-m1" d="M58 139c1.624 0 2.75 2 5 2 0-14.771 16.27-48.385 27.5-54 4.074-2.037 8.782-11 14.5-11v-1l-3-5c-2.312 0-14.627 11.127-17 13.5-12.517 12.517-27 38.093-27 55.5Z"/><path fill="#1D9C5A" id="MOs6a" d="m181 99-5 1c0-3.365-2.665-8.17-1-11.5 1-2 2-7.377 2-9.5 6.887 0 11.562-10.97 19.5-7 1.119.56 4.5.155 4.5 2v1c-2.251 0-12 19.1-12 22-1.775 0-8 .07-8 2ZM267 97c5.264 0 9.167 3 14 3 0-7.247-1-14.24-1-21l-1-1-14.5-7c-3.71-1.855-6.78 3-9.5 3v1c3.278 0 12 17.948 12 22Z"/><path fill="#187E61" id="SSp-m1" d="m399 139-5 2c0-13.312-8.388-26.277-14-37.5l-9-12c-2.003-4.006-19-15.307-19-16.5l3-4c5.362 0 13.59 10.09 17.5 14 10.327 10.327 26.5 39.287 26.5 54Z"/><path fill="#3FA664" id="ACAd6a" d="M194 102h1c0-2.097 7.148-8 9-8v-1c0-2.619-.353-18-3-18-2.251 0-12 19.1-12 22 2.169 0 5 2.899 5 5ZM263 101l-1 1c-3.398 0-5.13-7-9-7v-2c0-3.113-.395-18 2-18 3.278 0 12 17.948 12 22-1.747 0-2 .253-2 2-1.747 0-2 .253-2 2Z"/><path fill="#1A7E64" id="SSp-m2/3" d="M384 145h1c0-1.207 7.706-4 9-4 0-13.312-8.388-26.277-14-37.5l-9-12c-2.003-4.006-19-15.307-19-16.5h-1c0 3.77-6 5.648-6 11v1c5.321 0 8.855 6.177 12.5 8 11.074 5.537 26.5 36.9 26.5 50ZM63 142c3.68 0 5.511 2 9 2 0-12.981 13.664-36.164 23-45.5 4.68-4.68 10.436-11.5 17-11.5v-1c0-3.556-7-7.65-7-10-5.718 0-10.426 8.963-14.5 11C79.27 92.615 63 126.229 63 141v1Z"/><path fill="#1A7F63" id="SSp-ul4" d="M116 93h1c3.428 0 6.206-6 10-6v-8c-5.057 0-10.32 7-15 7v1c1.028 0 4 4.666 4 6Z"/><path fill="#1F9B5A" id="MOp6a" d="M128 124h1c0-2.697 13.435-9 16-9 0-2.109 2.535-2 4-2l4-2c0-1.845 3.381-1.441 4.5-2 5.593-2.796 11.877-8 18.5-8v-1c0-3.365-2.665-8.17-1-11.5 1-2 2-7.377 2-9.5-3.352 0-7.554 4.527-10.5 6-8.485 4.242-18.475 5.738-27 10-2.825 1.412-9.524 6-12.5 6l-1 1 1 5c0 5.909 1 11.579 1 17ZM330 107c0 4.91-2 11.388-2 17l-10.5-7c-6.53-3.265-30.506-16-36.5-16v-1c0-7.247-1-14.24-1-21l9.5 6c8.742 4.371 19.241 5.62 28 10l12.5 6v6Z"/><path fill="#1A7F63" id="SSp-ul4" d="m345 87-5 6c-4.095 0-6.701-6-11-6v-8c5.839 0 10.471 7 16 7v1Z"/><path fill="#3FA566" id="ACAv2/3" d="m221 122-3 1-1-37 5-1v34l-1 3Z"/><path fill="#40A664" id="ACAv1" d="M227 114c-2.832 0-2.953 5-5 5V85h12v33l-5-5c0-3.471-2-1.581-2 1Z"/><path fill="#3FA566" id="ACAv2/3" d="m236 122 2 1c0-11.611 1-24.728 1-37l-5-1v33l2 4Z"/><path fill="#3EA666" id="ACAv5" d="M209 119c0 2.467 6.903 4 9 4l-1-37c-4.473 0-8.918 7-13 7v1l1 14.5c1.33 2.661 4 7.528 4 10.5ZM248 119c-3.099 0-5.883 4-10 4 0-11.611 1-24.728 1-37l14 7v2c-2.261 0-.297 6.094-1 7.5-1.82 3.639-4 12.531-4 16.5Z"/><path fill="#1B7F62" id="SSp-m4" d="m72 145 7 2c0-9.218 12.422-31.922 18.5-38l13-12c1.212-.606 5.5-2.24 5.5-4 0-1.334-2.972-6-4-6-6.564 0-12.32 6.82-17 11.5-9.336 9.336-23 32.519-23 45.5v1Z"/><path fill="#187E62" id="SSp-ul5" d="M123 103h1l2-1 1-1V87c-3.794 0-6.572 6-10 6 0 3.682 6 6.996 6 10ZM330 102l3 1 7-10c-4.095 0-6.701-6-11-6l1 14v1Z"/><path fill="#1B7F62" id="SSp-m4" d="m384 145-7 2c0-10.656-15.008-39.254-24.5-44-3.992-1.996-7.918-10-12.5-10l5-6c5.321 0 8.855 6.177 12.5 8 11.074 5.537 26.5 36.9 26.5 50Z"/><path fill="#1B7E63" id="SSp-m5" d="M79 147c8.703 0 10 7.36 10 14 2.35 0 .217-7.934 1-9.5 3.526-7.052 3.424-15.848 7-23 2.847-5.695 8.821-16.16 15.5-19.5 1.73-.865 10.5-3.947 10.5-6 0-3.004-6-6.318-6-10h-1c0 1.76-4.288 3.394-5.5 4l-13 12c-6.078 6.078-18.5 28.782-18.5 38ZM367 166h1c0-10.375-3.003-19 9-19 0-10.656-15.008-39.254-24.5-44-3.992-1.996-7.918-10-12.5-10l-7 10v1c6.065 0 9.421 6.46 14.5 9 13.304 6.652 19.5 37.474 19.5 53Z"/><path fill="#40A564" id="ACAv6a" d="m206 118 3 1c0-2.972-2.67-7.839-4-10.5L204 94c-1.852 0-9 5.903-9 8 0 5.869 10 9.528 10 15l1 1ZM251 118l-3 1c0-3.969 2.18-12.861 4-16.5.703-1.406-1.261-7.5 1-7.5 3.87 0 5.602 7 9 7v1l-1 2c-1.456 0-9 9.238-9 11l-1 2Z"/><path fill="#1E9C58" id="MOs6b" d="m189 98-8 1c0-1.93 6.225-2 8-2v1Z"/><path fill="#3FA466" id="ACAd6b" d="M194 102v1l-5-5v-1c2.169 0 5 2.899 5 5ZM267 98l-2 1c0-1.747.253-2 2-2v1Z"/><path fill="#1E9C58" id="MOs6b" d="M280 101h1v-1c-4.833 0-8.736-3-14-3v1c4.946 0 8.377 3 13 3Z"/><path fill="#CACCC7" id="cing" d="m205 117 1 1c-8.861 0-10.692-11.596-17.5-15-7.13-3.565-13.924 5-20.5 5l-1 1h-6c0-3.854 15-4.515 15-8 1.424 0 5-.362 5-2l8-1 5 5c0 2.655 7.631 14 11 14ZM252 116l-1 2c8.695 0 10.996-12.248 16.5-15 6.694-3.347 13.064 4 19.5 4l1 1h1l1 1h5c0-4.173-15-4.923-15-8-4.623 0-8.054-3-13-3l-2 1-2 2v2l-2 2c0 2.859-5.828 11-9 11Z"/><path fill="#1E9C58" id="MOs6b" d="M176 100v1c1.424 0 5-.362 5-2l-5 1Z"/><path fill="#3FA466" id="ACAd6b" d="M265 99c-1.747 0-2 .253-2 2l2-2Z"/><path fill="#1D9D5A" id="MOp6b" d="m161 109-8 2c0-1.845 3.381-1.441 4.5-2 5.593-2.796 11.877-8 18.5-8 0 3.485-15 4.146-15 8Z"/><path fill="#3FA466" id="ACAd6b" d="M262 103h1v-2l-1 1v1Z"/><path fill="#1D9D5A" id="MOp6b" d="M328 125v1l-9.5-7c-6.496-3.248-15.937-10-23.5-10 0-4.173-15-4.923-15-8h1c5.994 0 29.97 12.735 36.5 16l10.5 7v1Z"/><path fill="#197D61" id="SSp-ul6a" d="M124 103c0 1.429 1.288 4 3 4l-1-5-2 1Z"/><path fill="#C9C7C9" id="ccb" d="m236 122 2 1c4.117 0 6.901-4 10-4l3-1c8.695 0 10.996-12.248 16.5-15 6.694-3.347 13.064 4 19.5 4l1 1h1v1c-22.232 0-20.162 7.831-36.5 16-6.042 3.021-13.079 4.04-19 7-2.993 1.497-16.68-1.34-20-3-3.112-1.556-6.842-2.421-10-4-15.214-7.607-13.596-16-35.5-16v-1c6.576 0 13.37-8.565 20.5-5 6.808 3.404 8.639 15 17.5 15l3 1c0 2.467 6.903 4 9 4l3-1c0 4.655 6.856 0 7.5 0l1 2c1.572.786 6.5-.473 6.5-2Z"/><path fill="#40A465" id="ACAv6b" d="M194 103c0 2.655 7.631 14 11 14 0-5.472-10-9.131-10-15h-1v1Z"/><path fill="#197D61" id="SSp-ul6a" d="m333 104-3 3v-5l3 1v1Z"/><path fill="#187D61" id="SSp-m6a" d="M105 165c-4.488 0-10.526 1-16 1v-5c2.35 0 .217-7.934 1-9.5 3.526-7.052 3.424-15.848 7-23 2.847-5.695 8.821-16.16 15.5-19.5 1.73-.865 10.5-3.947 10.5-6h1c0 1.429 1.288 4 3 4 0 5.909 1 11.579 1 17l-11 11.5c-4.76 9.519-12 16.954-12 28.5v1Z"/><path fill="#40A465" id="ACAv6b" d="m263 103-2 2 1-2h1Z"/><path fill="#187D61" id="SSp-m6a" d="M351 165c4.488 0 10.526 1 16 1 0-15.526-6.196-46.348-19.5-53-5.079-2.54-8.435-9-14.5-9l-3 3c0 4.91-2 11.388-2 17v1c3.434 0 8.65 6.801 10 9.5 5.408 10.817 13 16.2 13 29.5v1Z"/><path fill="#40A465" id="ACAv6b" d="M261 105c-1.456 0-9 9.238-9 11 3.172 0 9-8.141 9-11Z"/><path fill="#C9C9CA" id="scwm" d="m287 107 1 1-1-1ZM167 109h1v-1l-1 1ZM289 109h1l-1-1v1ZM129 125c0 4.419-10 7.1-10 12 .216 0 19.692-16.096 23.5-18l17-7 5.5-3h-4l-8 2c0 2.109-2.535 2-4 2 0 2.109-2.535 2-4 2l-3.5 3c-2.894 1.447-9.411 7-12.5 7Z"/><path fill="#CCC7C9" id="ccg" d="M107 168h2c0-20.561 17.455-36.478 34.5-45 4.491-2.246 10.443-1.721 15-4h24c1.362.681 4.844 4 5.5 4 1.727 0 21 12.502 21 14l13.5 6c3.451 1.725 4.147-4 6-4l3 4c4.606 2.303 11.561-6 15.5-6l2-2 2-1 2-1c0-1.577 1.762-2 3-2 0-1.577 1.762-2 3-2 0-1.884 6.4-5 8-5l1-1 5.5-4h24l20 6c16.249 8.124 29.5 25.498 29.5 44l2-2c0-6.25-4-11.47-4-17v-1c-2.035 0-3.208-5.708-4.5-7l-19-19c-7.882-3.941-16.143-7.071-24-11-1.265-.632-6.5-1.278-6.5-3h-2c-22.232 0-20.162 7.831-36.5 16-6.042 3.021-13.079 4.04-19 7-2.993 1.497-16.68-1.34-20-3-3.112-1.556-6.842-2.421-10-4-15.214-7.607-13.596-16-35.5-16h-3l-5.5 3-17 7c-3.808 1.904-23.284 18-23.5 18 0 1.238-.423 3-2 3l-1 1-1 2c0 1.238-.423 3-2 3v1c0 1.238-.423 3-2 3v1c0 1.302-3.382 13-4 13v4Z"/><path fill="#C9C9CA" id="scwm" d="M328 126c0 2.425 17 15.693 17 23-2.035 0-3.208-5.708-4.5-7l-19-19c-7.882-3.941-16.143-7.071-24-11-1.265-.632-6.5-1.278-6.5-3h4c7.563 0 17.004 6.752 23.5 10l9.5 7Z"/><path fill="#1D9D5A" id="MOp6b" d="m153 111-4 2c1.465 0 4 .109 4-2ZM149 113c-1.465 0-4-.109-4 2 1.465 0 4 .109 4-2Z"/><path fill="#7ED04B" id="IG" d="M221 122c0 4.655 6.856 0 7.5 0l1 2c1.572.786 6.5-.473 6.5-2l-2-4-5-5c0 2.729-.423 1-2 1-2.832 0-2.953 5-5 5l-1 3Z"/><path fill="#1D9D5A" id="MOp6b" d="M129 124v1c3.089 0 9.606-5.553 12.5-7l3.5-3c-2.565 0-16 6.303-16 9Z"/><path fill="#98D5F9" id="CP" d="M127 229c1.251 0 8 4.19 8 5 11.053 0 19.544 1.978 29.5-3 10.72-5.36 5.071-20.536 20-28 2.337-1.169 3.673-4 6.5-4 0-2.093.461-14 2-14v-9c0-1.048-.473-3 1-3l1-8 1-2v-22.5l-4-11.5-4-6c-.656 0-4.138-3.319-5.5-4h-24c-4.557 2.279-10.509 1.754-15 4-17.045 8.522-34.5 24.439-34.5 45 0 11.353 1.341 21.183 6 30.5v6l4 12.5v1l2 2v1l1 1 1 2 2 2v1c1.747 0 2 .253 2 2ZM327 231l-6 3c-17.547 0-15.75 2.875-31.5-5-5.786-2.893-4.233-10.965-6.5-15.5-2.528-5.056-6.714-8.107-11.5-10.5l-5.5-4-1-1-1-12.5c0-1.19.614-4.5-1-4.5v-9l-1-1-1-8c0-5.092-3.65-16.2-1-21.5l5-13.5 2-4 1-1 5.5-4h24l20 6c16.249 8.124 29.5 25.498 29.5 44v13.5c-3.61 7.22-6 15.83-6 24.5-1.995 0-2 4.377-2 6-1.473 0-1 1.952-1 3l-1 1-1 3-1 1v1l-1 1-1 1-1 2-1 1-2 2-2 2Z"/><path fill="#AAA8A9" id="SEZ" d="M192 129c0-5.534 14.704 8 17 8 0-1.498-19.273-14-21-14l4 6ZM268 123l-1 1 1-1Z"/><path fill="#188064" id="SSp-m6b" d="M105 164h2c0-2.937-.017-13 4-13v-1c0-1.238.423-3 2-3v-1c0-1.238.423-3 2-3l1-2 1-1c0-1.238.423-3 2-3 0-4.9 10-7.581 10-12v-1h-1l-11 11.5c-4.76 9.519-12 16.954-12 28.5Z"/><path fill="#AAA8A9" id="SEZ" d="M265 128c-2.01 0-3.512 1-6 1 0-1.884 6.4-5 8-5l-2 4Z"/><path fill="#188064" id="SSp-m6b" d="M350 164h1c0-13.3-7.592-18.683-13-29.5-1.35-2.699-6.566-9.5-10-9.5v1c0 2.425 17 15.693 17 23v1c3.866 0 5 11.07 5 14Z"/><path fill="#A8AAAA" id="VL" d="M196 162h1v-2l1-1 1-1c0-6.549 10-11.695 10-21-2.296 0-17-13.534-17-8l4 11.5V162ZM260 162l1 1c0-5.092-3.65-16.2-1-21.5l5-13.5c-2.01 0-3.512 1-6 1 0 1.577-1.762 2-3 2 0 1.577-1.762 2-3 2l-2 1-2 1c0 1.747-.253 2-2 2 0 9.628 12 16.986 12 23v1l1 1Z"/><path fill="#AAA8A9" id="SEZ" d="M259 129c-1.238 0-3 .423-3 2 1.238 0 3-.423 3-2ZM256 131c-1.238 0-3 .423-3 2 1.238 0 3-.423 3-2ZM253 133l-2 1 2-1ZM251 134l-2 1 2-1ZM249 135l-2 2c1.747 0 2-.253 2-2Z"/><path fill="#C9C9CA" id="scwm" d="M119 137c-1.577 0-2 1.762-2 3 1.577 0 2-1.762 2-3Z"/><path fill="#97D6F9" id="STR" d="m199 158 7.5-5 12-4 7-5 3 2 2-2 7 5c4.951 2.476 10.946 3.473 16 6l5.5 5c0-6.014-12-13.372-12-23-3.939 0-10.894 8.303-15.5 6l-3-4c-1.853 0-2.549 5.725-6 4l-13.5-6c0 9.305-10 14.451-10 21Z"/><path fill="#1A7E62" id="SSs1" d="m62 173-5 1c0-6.162-4.094-19.312-1-25.5 1.094-2.189 2-7.093 2-9.5 1.624 0 2.75 2 5 2v1c-2.207 0-.338 5.176-1 6.5-3.358 6.716 0 17.646 0 24.5ZM395 173l4 1 2-5.5c.7-1.399-2-24.895-2-29.5l-5 2c0 10.054 1 21.319 1 32Z"/><path fill="#C9C9CA" id="scwm" d="m117 140-1 1 1-1ZM116 141l-1 2 1-2Z"/><path fill="#1B8063" id="SSs2/3" d="m386 171 9 2c0-10.681-1-21.946-1-32-1.294 0-9 2.793-9 4l1 26ZM71 171l-9 2c0-6.854-3.358-17.784 0-24.5.662-1.324-1.207-6.5 1-6.5 3.68 0 5.511 2 9 2v1c0 8.509-1 17.778-1 26Z"/><path fill="#C9C9CA" id="scwm" d="M115 143c-1.577 0-2 1.762-2 3 1.577 0 2-1.762 2-3Z"/><path fill="#90CAED" id="LSr" d="M235 209c2.205 0 .002 3.251 1.5 4 2.838 1.419 8.5-.057 8.5-4-4.487 0-3.401-10.698-2-13.5 2.543-5.086 10.234-17.367 16.5-20.5l3.5 2v-5l-1-1-1-8-1-1-1-1v-1l-5.5-5c-5.054-2.527-11.049-3.524-16-6l-7-5-2 2-3-2-7 5-12 4-7.5 5-1 1-1 1v2l-1 1-1 2-1 8v3c8.058 0 16.134 13.768 20 21.5 1.056 2.111 2.15 11.5-2 11.5 0 4.183 4.513 5.494 7.5 4l1.5-3c0-10.812 4-20.129 4-31 0-1.048-.473-3 1-3l1-21 1.5-6 2.5 28c0 11.126 4 20.732 4 32Z"/><path fill="#187C63" id="SSs4" d="m76 170-5 1c0-8.222 1-17.491 1-26l7 2c0 7.048-2 14.175-2 22l-1 1ZM380 170l6 1-1-26h-1l-7 2c0 6.757 3 14.596 3 22v1Z"/><path fill="#1C8063" id="SSs5" d="M89 167c-4.775 0-7.525 2-12 2 0-7.825 2-14.952 2-22 8.703 0 10 7.36 10 14v2c-1.486 0-1.486 3 0 3v1Z"/><path fill="#C9C9CA" id="scwm" d="M113 147c-1.577 0-2 1.762-2 3 1.577 0 2-1.762 2-3Z"/><path fill="#1C8063" id="SSs5" d="M368 166c0 1.693 9.925 3 12 3 0-7.404-3-15.243-3-22-12.003 0-9 8.625-9 19Z"/><path fill="#97D6F9" id="STR" d="M226 176c1.71 0 .344-4.078 2.5-3l2.5 4-2.5-28-1.5 6-1 21Z"/><path fill="#C9C9CA" id="scwm" d="M349 167h1v-3c0-2.93-1.134-14-5-14 0 5.53 4 10.75 4 17ZM111 151c-4.017 0-4 10.063-4 13 .618 0 4-11.698 4-13Z"/><path fill="#97D6F9" id="STR" d="m199 158-1 1 1-1ZM198 159l-1 1 1-1ZM259 161l1 1-1-1ZM197 162l-1 1v-1h1Z"/><path fill="#1B7E63" id="SSp-m5" d="M89 163c-1.486 0-1.486 3 0 3v-3Z"/><path fill="#A8AAAA" id="VL" d="m196 163-1 2 1-2Z"/><path fill="#009B74" id="GU6a" d="M106 178c-5.129 0-10.571 6-16 6l-1-17v-1c5.474 0 11.512-1 16-1l1 13Z"/><path fill="#019C74" id="GU6b" d="M106 178h2l-1-10v-4h-2v1l1 13ZM349 178h1c0-3.629 1-8.716 1-13v-1h-1v3l-1 11Z"/><path fill="#009B74" id="GU6a" d="m350 178 16 6c0-5.361 1-12.004 1-18-5.474 0-11.512-1-16-1 0 4.284-1 9.371-1 13Z"/><path fill="#019C75" id="GU5" d="M366 184c4.511 0 8.283 5 13 5 1.614 0 1-3.31 1-4.5V169c-2.075 0-12-1.307-12-3h-1c0 5.996-1 12.639-1 18ZM90 184c-4.29 0-8.398 5-13 5 0-6-1-12.475-1-19l1-1c4.475 0 7.225-2 12-2l1 17Z"/><path fill="#C8CBCC" id="ec" d="m342 206-1 1c0-8.67 2.39-17.28 6-24.5V169l2-2h1l-1 11-2 11v2c-1.473 0-1 1.952-1 3-1.473 0-1 1.952-1 3v1c-.951 0-3 6.869-3 8ZM116 211l3 6-4-12.5v-6c-4.659-9.317-6-19.147-6-30.5h-2l1 10 1 10 2 7v1c1.473 0 1 1.952 1 3 .853 0 2 6.031 2 7 1.473 0 1 1.952 1 3v1l1 1Z"/><path fill="#1C8063" id="SSs5" d="m77 169-1 1 1-1Z"/><path fill="#009C74" id="GU4" d="M75 190h2v-1c0-6-1-12.475-1-19l-5 1c0 7.377 4 15.085 4 19ZM382 189l-3 1v-1c1.614 0 1-3.31 1-4.5V170l6 1c0 4.038-1.249 9.999-3 13.5-.574 1.147 1.064 4.5-1 4.5Z"/><path fill="#009B75" id="GU2/3" d="M66 193h1l8-3c0-3.915-4-11.623-4-19l-9 2c0 6.998 4 13.459 4 20Z"/><path fill="#A8AAAA" id="VL" d="m262 171 1 1-1-1Z"/><path fill="#009B75" id="GU2/3" d="M382 189c0 1.848 6.176 4 8 4 0-6.273 5-13.439 5-20l-9-2c0 4.038-1.249 9.999-3 13.5-.574 1.147 1.064 4.5-1 4.5Z"/><path fill="#009C75" id="GU1" d="m65 195-2 1c-.913 0-2-5.014-2-6l-4-16 5-1c0 6.998 4 13.459 4 20l-1 2Z"/><path fill="#A8AAAA" id="VL" d="M193 176h1v-3c-1.473 0-1 1.952-1 3Z"/><path fill="#96A7D3" id="MS" d="M236 232c-5.969 0-10.542 1-16 1l1-23c0-10.812 4-20.129 4-31 1.473 0 1-1.952 1-3 1.71 0 .344-4.078 2.5-3l2.5 4c0 11.126 4 20.732 4 32 0 7.354 1 15.129 1 23Z"/><path fill="#009C75" id="GU1" d="m391 195 3 1c0-7.331 5-14.193 5-22l-4-1c0 6.561-5 13.727-5 20v1l1 1Z"/><path fill="#8FCBED" id="LSv" d="M201 201c3.743 0 5.418 8 11 8 4.15 0 3.056-9.389 2-11.5-3.866-7.732-11.942-21.5-20-21.5l-1 1v8l2 11 3 3h1l1 1 1 1ZM251 206c-2.079 0-3.187 3-6 3-4.487 0-3.401-10.698-2-13.5 2.543-5.086 10.234-17.367 16.5-20.5l3.5 2v4l-1 14-2 3c-1.6 0-7 4.129-7 6l-1 1-1 1Z"/><path fill="#90CAED" id="LSr" d="m194 176-1 1v-1h1Z"/><path fill="#97D6F9" id="STR" d="M226 176c-1.473 0-1 1.952-1 3 1.473 0 1-1.952 1-3Z"/><path fill="#209666" id="AId6a" d="M96 202h6c0-2.06-3.756-19.128 4.5-15 2.627 1.314 2.347 8 4.5 8l-2-7c-1.712 0-3-8.574-3-10-5.129 0-10.571 6-16 6 0 6.378 5 12.286 5 18h1Z"/><path fill="#1F9766" id="AId6b" d="m108 178 1 10c-1.712 0-3-8.574-3-10h2ZM347 189h1l1-1v-1l1-9h-1l-2 11Z"/><path fill="#209666" id="AId6a" d="M360 203h1c0-6.215 5-11.848 5-19l-16-6-1 9c8.626 0 6 8.064 6 14 1.041 0 5 .986 5 2Z"/><path fill="#A8AAAA" id="VL" d="M265 198v1c0 11.349-3 4.633-3-1v-3l1-14c1.614 0 1 3.31 1 4.5l1 12.5Z"/><path fill="#209665" id="AId5" d="M83 205h2c0-2.115 10-1.788 10-3 0-5.714-5-11.622-5-18-4.29 0-8.398 5-13 5v1c0 5.435 6 10.093 6 15ZM372 205h1c0-3.175 6-9.726 6-15v-1c-4.717 0-8.489-5-13-5 0 7.152-5 12.785-5 19 2.916 0 11 .535 11 2Z"/><path fill="#A8AAAA" id="VL" d="M191 199c0 9.431 3 6.622 3 0l1-3-2-11c-1.539 0-2 11.907-2 14Z"/><path fill="#8ADA86" id="CLA" d="M111 199c0 10.683-9 10.276-9 3 0-2.06-3.756-19.128 4.5-15 2.627 1.314 2.347 8 4.5 8v4ZM345 198c0 3.322.662 11.919 6.5 9l3.5-6c0-5.936 2.626-14-6-14v1l-1 1-1 1v1c0 1.048.473 3-1 3 0 1.048.473 3-1 3v1Z"/><path fill="#209666" id="AId6a" d="m349 188-1 1 1-1ZM348 189l-1 1v-1h1Z"/><path fill="#209765" id="AId2/3" d="M373 205c4.232 0 7.38 2 11 2l6-13v-1c-1.824 0-8-2.152-8-4l-3 1c0 5.274-6 11.825-6 15ZM72 207h1c3.119 0 6.279-2 10-2 0-4.907-6-9.565-6-15h-2l-8 3c0 5.22 5 9.091 5 14Z"/><path fill="#209666" id="AId6a" d="M347 191c-1.473 0-1 1.952-1 3 1.473 0 1-1.952 1-3Z"/><path fill="#209764" id="AId1" d="M70 207h2c0-4.909-5-8.78-5-14h-1l-1 2c0 1.705 3.314 12 5 12Z"/><path fill="#209666" id="AId6a" d="M346 194c-1.473 0-1 1.952-1 3 1.473 0 1-1.952 1-3Z"/><path fill="#209764" id="AId1" d="M384 207h3c0-4.477 4-7.523 4-12l-1-1-6 13Z"/><path fill="#219765" id="AIp1" d="M75 218c0 1.579-2.855 1-4 1 0-7.539-8-14.661-8-23l2-1c0 1.705 3.314 12 5 12l5 11Z"/><path fill="#97D6F9" id="STR" d="M260 198h2v-3l-2 3Z"/><path fill="#219765" id="AIp1" d="M382 219h3c0-3.106 9-17.497 9-23l-3-1c0 4.477-4 7.523-4 12 0 3.652-5 7.407-5 12Z"/><path fill="#209666" id="AId6a" d="M111 199h1c0-1.048.473-3-1-3v3Z"/><path fill="#97D6F9" id="STR" d="M194 199h4l-3-3-1 3Z"/><path fill="#80CDF8" id="ACB" fill-rule="evenodd" d="m183 209-6 8.5c-1.076 2.153 3.353 7.573 5.5 6.5 6.602-3.301 14.725-15 .5-15m-49 28c0 6.017 4 11.143 4 17l7.5 9c3.522 1.761 27.415 1.793 31 0 11.895-5.948 16.501-18.251 24-22l5.5-10 1-2c0-4.386 4.396-10.708 2-15.5-1.434-2.869-8-9.552-8-12.5l-1-1-1-1h-5c0 6.622-3 9.431-3 0-2.827 0-4.163 2.831-6.5 4-14.929 7.464-9.28 22.64-20 28-9.956 4.978-18.447 3-29.5 3l-1 3ZM268 209c0 2.203-3.465 4.569-2 7.5 9.986 19.972 21.952-7.5 2-7.5m54 28c0 6.092-4 11.601-4 17 0 2.224-2.386 2.272-3 3.5-4.958 9.915-30.367 8.067-39.5 3.5-3.121-1.56-18.653-17.806-20.5-21.5l-5-9.5v-1l-1-1c0-3.947-3.989-9.523-2-13.5l4-8.5 1-1 1-1c0-1.871 5.4-6 7-6h2c0 5.633 3 12.349 3 1h1l5.5 4c4.786 2.393 8.972 5.444 11.5 10.5 2.267 4.535.714 12.607 6.5 15.5 15.75 7.875 13.953 5 31.5 5l1 3Z"/><path fill="#97D6F9" id="STR" d="M265 199h1l-1-1v1Z"/><path fill="#1F9866" id="AIv6a" d="m349 209 8 3c0-3.559 3-5.504 3-9 0-1.014-3.959-2-5-2l-3.5 6c-5.838 2.919-6.5-5.678-6.5-9-.951 0-3 6.869-3 8l7 3ZM108 209l-8 3c0-3.223-4-6.355-4-10h6c0 7.276 9 7.683 9-3h1c.853 0 2 6.031 2 7l-6 3Z"/><path fill="#97D6F9" id="STR" d="m199 199 1 1-1-1ZM210 255h1l1-1 1-1v-1l1-1 1-1v-1l1-2c2.139 0 4-11.868 4-14l1-23-1.5 3c-2.987 1.494-7.5.183-7.5-4-5.582 0-7.257-8-11-8 0 2.948 6.566 9.631 8 12.5 2.396 4.792-2 11.114-2 15.5l-1 2-1 18c0 3.71.914 6 5 6Z"/><path fill="#1F9865" id="AIv5" d="M91 214h2c0-1.175 5.704-2 7-2 0-3.223-4-6.355-4-10h-1c0 1.212-10 .885-10 3 0 3.587 6 5.655 6 9ZM363 214h2l7-9c0-1.465-8.084-2-11-2h-1c0 3.496-3 5.441-3 9 .986 0 6 1.087 6 2Z"/><path fill="#97D6F9" id="STR" d="m253 204-1 1 1-1Z"/><path fill="#219764" id="AIv2/3" d="M91 214c-4.416 0-8.115 3-13 3l-5-10c3.119 0 6.279-2 10-2h2c0 3.587 6 5.655 6 9Z"/><path fill="#97D6F9" id="STR" d="m252 205-1 1 1-1Z"/><path fill="#219764" id="AIv2/3" d="M365 214c4.705 0 8.679 3 14 3l5-10c-3.62 0-6.768-2-11-2h-1l-7 9Z"/><path fill="#8AD987" id="CTXsp" d="M108 209h7c0-1.048.473-3-1-3l-6 3Z"/><path fill="#97D6F9" id="STR" d="M246 255h3c0-1.477 2-5.699 2-9l-1-16v-1l-1-1c0-3.947-3.989-9.523-2-13.5l4-8.5c-2.079 0-3.187 3-6 3 0 3.943-5.662 5.419-8.5 4-1.498-.749.705-4-1.5-4 0 7.354 1 15.129 1 23 0 4.92 4 10.548 4 15l1 1v1l1 1 2 3 1 1 1 1Z"/><path fill="#8AD987" id="CTXsp" d="M341 210h8v-1l-7-3-1 1v3Z"/><path fill="#209864" id="AIv1" d="M78 217c0 1.473-1.952 1-3 1l-5-11h3l5 10Z"/><path fill="#C8CBCC" id="ec" d="m341 210-2 3c0-1.623.005-6 2-6v3Z"/><path fill="#209864" id="AIv1" d="m379 217 3 2c0-4.593 5-8.348 5-12h-3l-5 10Z"/><path fill="#99D2BD" id="OLF" d="M93 214c6.1 0 8.295 6 10 6 0-5.403 5-8.873 5-11l-8 3c-1.296 0-7 .825-7 2Z"/><path fill="#A0EE9C" id="EPd" d="M121 232h3l1-1v-5l-2-2-1-2-1-1v-1l-2-2v-1l-3-6-1-1v-1h-7c0 2.127-5 5.597-5 11v1l2 2 1 1 2 2h1l1 1h1l2 2h1l2 2h2l1 1h2Z"/><path fill="#CBCBC7" id="aco" d="m183 209-6 8.5c-1.076 2.153 3.353 7.573 5.5 6.5 6.602-3.301 14.725-15 .5-15ZM268 209c0 2.203-3.465 4.569-2 7.5 9.986 19.972 21.952-7.5 2-7.5Z"/><path fill="#A0EE9C" id="EPd" d="M336 232h1l1-1h2l1-1 1-1h1l1-1h1l1-1h1l1-1 1-1h1l1-1 2-3v-6.5l-4-4.5h-8l-2 3c0 1.048.473 3-1 3l-1 1-1 3-1 1v1l-1 1-1 1-1 2-1 1v4h1l1 1h3Z"/><path fill="#99D2BD" id="OLF" d="M363 214c-5.972 0-9.59 7-10 7v-6.5l-4-4.5v-1l8 3c.986 0 6 1.087 6 2Z"/><path fill="#8AD987" id="CTXsp" d="m115 210 1 1-1-1Z"/><path fill="#C8CBCC" id="ec" d="M339 213c-1.473 0-1 1.952-1 3 1.473 0 1-1.952 1-3Z"/><path fill="#6ACAB9" id="PIR" d="m120 261 2 1c2.74 0 4.77-5 8-5 0-3.53 5.563-8.374 3-13.5-1.973-3.947-5.004-6.004-8-9l-4-2.5h-2l-1-1h-2l-2-2h-1l-2-2h-1l-1-1h-1l-2-2-1-1-2-2v-1c-1.705 0-3.9-6-10-6h-2c-4.416 0-8.115 3-13 3 0 1.473-1.952 1-3 1 0 1.579-2.855 1-4 1 0 6.757 18.555 31 26 31 0-5.507 17.169 5.834 19.5 7l3.5 4ZM337 261l-2 1c-3.233 0-5.108-5-9-5 0-7.971-6.417-4.667 0-17.5 1.302-2.603 10-6.409 10-7.5h1l1-1h2l1-1 1-1h1l1-1h1l1-1h1l1-1 1-1h1l1-1 2-3c.41 0 4.028-7 10-7h2c4.705 0 8.679 3 14 3l3 2h3c0 7.201-18.037 31-26 31 0-2.796-4.136-1.682-5.5-1-3.912 1.956-16.5 8.252-16.5 12Z"/><path fill="#C8CBCC" id="ec" d="m338 216-1 1 1-1Z"/><path fill="#8AD987" id="CTXsp" d="m119 218 2 2-2-2ZM336 220l-1 1 1-1Z"/><path fill="#99D2BD" id="OLF" d="m103 221 2 2-2-2Z"/><path fill="#8AD987" id="CTXsp" d="m121 221 1 1-1-1ZM335 222l-1 1 1-1ZM334 223l-1 1 1-1Z"/><path fill="#99D2BD" id="OLF" d="m106 224 2 2-2-2Z"/><path fill="#8AD987" id="CTXsp" d="m123 224 2 2-2-2Z"/><path fill="#99D2BD" id="OLF" d="m351 224-1 1 1-1ZM349 225l-1 1 1-1ZM109 226l1 1-1-1Z"/><path fill="#8AD987" id="CTXsp" d="m332 226-1 1 1-1Z"/><path fill="#99D2BD" id="OLF" d="m348 226-1 1 1-1ZM111 227l2 2-2-2Z"/><path fill="#8AD987" id="CTXsp" d="M125 231h2v-2c0-1.747-.253-2-2-2v4ZM329 231h2v-4l-2 2v2Z"/><path fill="#99D2BD" id="OLF" d="m346 227-1 1 1-1Z"/><path fill="#A2B1D7" id="SI" d="m249 228 1 1-1-1Z"/><path fill="#99D2BD" id="OLF" d="m344 228-1 1 1-1ZM114 229l2 2-2-2Z"/><path fill="#97D6F9" id="STR" d="m135 234-1 3c-1.893 0-3.649-6-7-6v-2c1.251 0 8 4.19 8 5Z"/><path fill="#A2B1D7" id="SI" d="m207 229-1 2 1-2Z"/><path fill="#97D6F9" id="STR" d="M327 231h2v-2l-2 2Z"/><path fill="#99D2BD" id="OLF" d="m342 229-1 1 1-1Z"/><path fill="#A2B1D7" id="SI" d="m261 269 2 4c17.029 0 33.297 5.602 48.5-2 4.574-2.287 13.5-7.675 13.5-14l-7-3c0 2.224-2.386 2.272-3 3.5-4.958 9.915-30.367 8.067-39.5 3.5-3.121-1.56-18.653-17.806-20.5-21.5l-5-9.5 1 16c.504 0 3 7.078 3 8l4 10 3 5Z"/><path fill="#99D2BD" id="OLF" d="m341 230-1 1 1-1ZM118 231l1 1-1-1Z"/><path fill="#8AD987" id="CTXsp" d="m125 231-1 1 1-1Z"/><path fill="#99D2BD" id="OLF" d="M130 257h2l6-3c0-5.857-4-10.983-4-17-1.893 0-3.649-6-7-6h-2l-1 1h-3l4 2.5c2.996 2.996 6.027 5.053 8 9 2.563 5.126-3 9.97-3 13.5Z"/><path fill="#A2B1D7" id="SI" d="m196 269-2 4c-15.04 0-49.266 7.968-57-7.5-1.339-2.678-5-4.274-5-8.5l6-3 7.5 9c3.522 1.761 27.415 1.793 31 0 11.895-5.948 16.501-18.251 24-22l5.5-10-1 18-2 4-5 11-2 5Z"/><path fill="#97D6F9" id="STR" d="m321 234 1 3c.782 0 5-5.083 5-6l-6 3Z"/><path fill="#99D2BD" id="OLF" d="M325 257h1c0-7.971-6.417-4.667 0-17.5 1.302-2.603 10-6.409 10-7.5h-3l-1-1h-5c0 .917-4.218 6-5 6 0 6.092-4 11.601-4 17l7 3Z"/><path fill="#8AD987" id="CTXsp" d="m332 231 1 1-1-1Z"/><path fill="#99D2BD" id="OLF" d="m338 231-1 1 1-1Z"/><path fill="#96A6D3" id="NDB" d="m211 272-2 1c-3.66 0-10-.102-10-5l1-3c2.304 0 8-5.677 8-8l2-2h1l1-1 1-1v-1l1-1 1-1v-1l1-2c2.139 0 4-11.868 4-14 5.458 0 10.031-1 16-1 0 4.92 4 10.548 4 15l1 1v1l1 1 2 3 1 1 1 1c0 1.577 1.762 2 3 2 0 2.83 4.843 8 8 8v2c0 9.767-8.83 4-13 4h-1c0-1.391-5.706-5-7-5l-1-1-1-2c0-8.867-11-9.758-11 0l-1 1-1 1-1 1-1 1c-1.238 0-3 .423-3 2-1.238 0-3 .423-3 2l-2 1Z"/><path fill="#E64438" id="HY" d="M254 254c-1.947 0-2.636 1-5 1 0-1.477 2-5.699 2-9 .504 0 3 7.078 3 8ZM216 247l-1 2 1-2ZM240 247l1 1-1-1Z"/><path fill="#CAC8C7" id="lot" d="M118 266h1v-1l1-4-3.5-4c-2.331-1.166-19.5-12.507-19.5-7l4.5 4c1.97 1.97 14.542 12 16.5 12ZM337 261l1 5c2.577 0 21-14.657 21-16 0-2.796-4.136-1.682-5.5-1-3.912 1.956-16.5 8.252-16.5 12Z"/><path fill="#E64438" id="HY" d="m210 255-2 2c-1.539 0-2.187-4-5-4l2-4c0 3.71.914 6 5 6ZM241 249l1 1-1-1ZM215 250l-1 1 1-1ZM214 251l-1 1 1-1Z"/><path fill="#F2473B" id="LPO" d="m198 264 2 1c2.304 0 8-5.677 8-8-1.539 0-2.187-4-5-4l-5 11Z"/><path fill="#E64438" id="HY" d="m213 253-1 1 1-1ZM244 253l1 1-1-1Z"/><path fill="#F2473B" id="LPO" d="m258 264-1 1c-3.157 0-8-5.17-8-8v-2c2.364 0 3.053-1 5-1l4 10Z"/><path fill="#E64438" id="HY" d="m212 254-1 1 1-1Z"/><path fill="#FE5446" id="AVPV" d="M233 263h1c0-8.867-11-9.758-11 0 1.618 0 4.745-2.378 5.5-2l4.5 2Z"/><path fill="#E64438" id="HY" d="M249 255v2c-1.238 0-3-.423-3-2h3Z"/><path fill="#7FCCF7" id="OT" d="M194 273c0 .576 6 1.569 6 7 0 10.478-10.371 11.436-17.5 15h-8c-16.738 8.369-38.529 2.441-46.5-13.5-2.164-4.328-7-7.306-7-12.5v-4l1-3c2.74 0 4.77-5 8-5h2c0 4.226 3.661 5.822 5 8.5 7.734 15.468 41.96 7.5 57 7.5ZM263 273c-5.23 0-6 4.899-6 8 0 16.077 19.403 10.951 25.5 14 14.249 7.124 36.408 4.684 44.5-11.5 2.293-4.586 8-8.024 8-13.5l1-1-1-5v-2c-3.233 0-5.108-5-9-5h-1c0 6.325-8.926 11.713-13.5 14-15.203 7.602-31.471 2-48.5 2Z"/><path fill="#99D2BD" id="OLF" d="M119 265h2l1-3-2-1-1 4ZM338 266l-1 1c0-1.238-.423-3-2-3v-2l2-1 1 5Z"/><path fill="#E64438" id="HY" d="m223 263-1 1 1-1ZM234 263l1 2-2-2h1ZM199 268l-3 1 2-5 2 1-1 3ZM222 264l-1 1 1-1ZM257 267l4 2-3-5-1 1v2Z"/><path fill="#97D6F9" id="STR" d="m337 267-1 2-1-5c1.577 0 2 1.762 2 3ZM119 267l2 2v-4h-2v2Z"/><path fill="#E64438" id="HY" d="m221 265-1 1 1-1Z"/><path fill="#99D2BD" id="OLF" d="M119 266v1l-1-1h1Z"/><path fill="#8599CC" id="PAL" d="m220 266-1 1 1-1ZM236 266c1.294 0 7 3.609 7 5-1.622 0-7-2.996-7-5ZM219 267c-1.238 0-3 .423-3 2 1.238 0 3-.423 3-2ZM263 273c-5.23 0-6 4.899-6 8l-13-10c4.17 0 13 5.767 13-4l4 2 2 4ZM209 273c0 1.319-7.901 7-9 7 0-5.431-6-6.424-6-7l2-4 3-1c0 4.898 6.34 5 10 5ZM216 269c-1.238 0-3 .423-3 2 1.238 0 3-.423 3-2Z"/><path fill="#97D6F9" id="STR" d="m336 269-1 1 1-1Z"/><path fill="#8599CC" id="PAL" d="m213 271-2 1 2-1ZM211 272l-2 1 2-1Z"/><path fill="#CBCCC7" id="IIn" d="M216 275c0 .799-7.894 6.288-9 8.5-1.936 3.872 6.983 5.758 9.5 4.5 7.531-3.765 10.871-13-.5-13ZM234 275c0 1.606-2.081 4.339-1 6.5 1.485 2.97 12.761 11.477 16 5 3.855-7.71-10.04-11.5-15-11.5Z"/></svg>