<svg xmlns="http://www.w3.org/2000/svg" viewBox="0 0 456 320"><path fill="#1E9C59" id="MOs1" d="m123 153-5 2-1-2-1-1-1-3-1-1v-1l-1-1v-1c.234 0 1.055-6-2-6 0-22.785 13.214-47.357 34.5-58l29-12c6.859-3.43 33.135-3.23 36.5 3.5l7 6.5-4 4-4.5-4c-4.193-2.097-8.88-2.94-13-5-5.321-2.66-17.892.946-22 3l-10 2c-5.934 2.967-12.103 5.052-18 8-16.338 8.169-22.21 23.92-29.5 38.5-4.007 8.014 6 23.852 6 26.5v1ZM339 154v1c-1.408 0-5-1.197-5-3l5-11.5v-8c0-19.861-14.896-38.698-32.5-47.5-8.781-4.39-37.862-15.069-48-10-2.587 1.293-15.5 3.46-15.5 8h-1l-4-3c0-2.295 2.794-4.147 4.5-5 2.277-1.138 5.043-4.521 8-6 6.216-3.108 25.815-3.092 32 0 9.06 4.53 18.89 7.445 28 12 21.431 10.716 34.5 33.795 34.5 58-2.436 0-2.708 6-2 6v2l-1 1v1l-1 1v1l-1 1v1l-1 1Z"/><path fill="#1E9D58" id="MOs2/3" d="m133 145-10 7c0-2.648-10.007-18.486-6-26.5 7.29-14.58 13.162-30.331 29.5-38.5 5.897-2.948 12.066-5.033 18-8l10-2c4.108-2.054 16.679-5.66 22-3 4.12 2.06 8.807 2.903 13 5l4.5 4v1c-2.741 0-2.75 4-5 4-3.606 0-13.165-7.668-18.5-5-4.561 2.28-10.485 1.742-15 4-23.535 11.768-31.434 16.369-43.5 40.5-2.894 5.789 1 12.208 1 17.5ZM333 152h1l5-11.5v-8c0-19.861-14.896-38.698-32.5-47.5-8.781-4.39-37.862-15.069-48-10-2.587 1.293-15.5 3.46-15.5 8 0 2.618 4 3.094 4 5 5.123 0 13.236-8.132 19.5-5l19 6c23.439 11.719 28.189 17.877 39.5 40.5 2.045 4.091-1 11.676-1 15.5l9 7Z"/><path fill="#3EA665" id="ACAd1" d="m224 89-5 1-5-6v-1l4-4c1.339 0 6 8.492 6 10ZM237 90h1c0-2.572 4-4.883 4-7l-4-3c-1.827 0-5 7.086-5 9 0 1.58 2.855 1 4 1Z"/><path fill="#1F9D58" id="MOs5" d="M158 134c-6.585 0-8.331-.084-14.5 3l-10.5 8c0-5.292-3.894-11.711-1-17.5 12.066-24.131 19.965-28.732 43.5-40.5 4.515-2.258 10.439-1.72 15-4 5.335-2.668 14.894 5 18.5 5v1l-4 3c-4.93 0-12.76 14-15 14-8.291 0-29 5.33-29 15.5l2 3.5c0 1.496-3.211 9-5 9Z"/><path fill="#40A565" id="ACAd2/3" d="M244 92h1c0-1.238.423-3 2-3v-1c0-1.906-4-2.382-4-5h-1c0 2.117-4 4.428-4 7 0 .675 5.294 2 6 2Z"/><path fill="#1F9D58" id="MOs5" d="M323 145h1c0-3.824 3.045-11.409 1-15.5-11.311-22.623-16.061-28.781-39.5-40.5l-19-6c-6.264-3.132-14.377 5-19.5 5v1c1.114 0 4 2.034 4 3 5.485 0 12.255 14 16 14 11.023 0 22.947 4.394 28 14.5 1.058 2.116-2 2.898-2 4.5 0 1.272 4.405 9 5 9 4.778 0 7.782-1.359 12.5 1l12.5 10Z"/><path fill="#40A565" id="ACAd2/3" d="M212 92h1l6-1v-1l-5-6c-2.741 0-2.75 4-5 4v1l3 3Z"/><path fill="#3EA566" id="ACAd5" d="M205 92c0 2.614 6.031 0 7 0l-3-3-4 3Z"/><path fill="#2FA750" id="PL1" d="M223 123h10l2-27.5c1.042-2.084 2-2.908 2-5.5-1.145 0-4 .58-4-1-2.839 0-3.388 8-4.5 8l-4.5-8-5 1v1c0 1.598 2.177 6.853 3 8.5l1 23.5Z"/><path fill="#3EA566" id="ACAd5" d="M245 92c0 .335 6 2.183 6 0 0-.966-2.886-3-4-3-1.577 0-2 1.762-2 3Z"/><path fill="#2FA74F" id="PL2/3" d="M233 123h5v-14.5c1.045-2.089 6-14.885 6-16.5-.706 0-6-1.325-6-2h-1c0 2.592-.958 3.416-2 5.5l-2 27.5ZM219 123h4l-1-23.5c-.823-1.647-3-6.902-3-8.5l-6 1c0 3.235 1.684 4.867 3 7.5 3.251 6.501 3 15.653 3 23.5Z"/><path fill="#2EA84F" id="PL5" d="M197 113c5.469 0 14.697 10 22 10 0-7.847.251-16.999-3-23.5-1.316-2.633-3-4.265-3-7.5h-1c-.969 0-7 2.614-7 0-4.93 0-12.76 14-15 14 0 1.608 7 3.513 7 7ZM259 113c-4.94 0-14.667 10-21 10v-14.5c1.045-2.089 6-14.885 6-16.5h1c0 .335 6 2.183 6 0 5.485 0 12.255 14 16 14l-4 2.5-4 4.5Z"/><path fill="#258F45" id="FRP5" d="m194 116 3 1c3.499 0 0-.35 0-4 0-3.487-7-5.392-7-7-8.291 0-29 5.33-29 15.5l2 3.5c7.309 0 13.261-10 21-10 0-5.485 10-5.846 10 0v1ZM273 115l20 10c0-1.602 3.058-2.384 2-4.5-5.053-10.106-16.977-14.5-28-14.5l-4 2.5-4 4.5c0 1.465-1.115 4 0 4l3-2c0-5.497 11-5.777 11 0Z"/><path fill="#268E44" id="FRP6a" d="M185 115h9c0-5.846-10-5.485-10 0h1ZM271 115h2c0-5.777-11-5.497-11 0h1c1.949 0 8-.402 8 0Z"/><path fill="#23885E" id="ORBm5" d="M219 123c0 6.284 1.284 26-6 26l-16-32c3.499 0 0-.35 0-4 5.469 0 14.697 10 22 10ZM243 149h1c0-9.794 15-22.691 15-32-1.115 0 0-2.535 0-4-4.94 0-14.667 10-21 10 0 4.861-1.451 26 5 26Z"/><path fill="#238A5C" id="ORBvl6a" d="M272 117v1c-2.102 0-9 1.287-9-3 1.949 0 8-.402 8 0l1 2Z"/><path fill="#228A5D" id="ORBl5" d="M150 165v2c13.157 0 21.542-26 31-26 0-8.261 3-15.486 3-23v-3c-7.739 0-13.691 10-21 10 0 1.496-3.211 9-5 9 0 6.434-8 23.261-8 31Z"/><path fill="#24895D" id="ORBl6a" d="M184 118h1v-3h-1v3Z"/><path fill="#238A5C" id="ORBvl6a" d="M194 116c-.975 0-9 5.097-9 2v-3h9v1Z"/><path fill="#23885C" id="ORBvl5" d="M275 141c-6.785 0-15.876.688-22.5 4-2.844 1.422-5.045 4-8.5 4 0-9.794 15-22.691 15-32l3-2h1c0 4.287 6.898 3 9 3 0 3.09 1.619 8.738 3 11.5 1.786 3.571 0 8.576 0 11.5Z"/><path fill="#24895D" id="ORBl6a" d="m273 115-1 2-1-2h2Z"/><path fill="#228A5D" id="ORBl5" d="m306 164 1 4c-12.271 0-22.186-27-32-27 0-2.924 1.786-7.929 0-11.5-1.381-2.762-3-8.41-3-11.5v-1l1-2 20 10c0 1.272 4.405 9 5 9 0 7.192 8 21.006 8 30Z"/><path fill="#23885C" id="ORBvl5" d="M181 141c6.853 0 15.823.661 22.5 4 2.922 1.461 6.023 4 9.5 4l-16-32-3-1c-.975 0-9 5.097-9 2h-1c0 7.514-3 14.739-3 23Z"/><path fill="#24885D" id="ORBm2/3" d="m213 149 6 13c3.79 0 3.017-6.533 4-8.5 4.055-8.11 0-21.798 0-30.5h-4c0 6.284 1.284 26-6 26Z"/><path fill="#23895D" id="ORBm1" d="m225 173-3 1-3-12c3.79 0 3.017-6.533 4-8.5 4.055-8.11 0-21.798 0-30.5h10v32.5c.655 1.31 4 6.073 4 6.5 0 4.22-2 7.344-2 12l-4-2c0-6.231-6-4.312-6 1Z"/><path fill="#24885D" id="ORBm2/3" d="M237 162h1l5-13c-6.451 0-5-21.139-5-26h-5v32.5c.655 1.31 4 6.073 4 6.5Z"/><path fill="#209665" id="AId5" d="M147 168h1l2-3c0-7.739 8-24.566 8-31-6.585 0-8.331-.084-14.5 3l-10.5 8c0 6.337 5.306 13.112 8 18.5l6 4.5ZM306 164l3 4c5.678 0 14-18.207 14-23l-12.5-10c-4.718-2.359-7.722-1-12.5-1 0 7.192 8 21.006 8 30Z"/><path fill="#1E9D5A" id="MOp1" d="M111 139c3.055 0 2.234 6 2 6l-2-6ZM345 139c-2.436 0-2.708 6-2 6 1.995 0 2-4.377 2-6Z"/><path fill="#248A5D" id="ORBvl2/3" d="M183 153c10.249 0 21.828 5.664 30.5 10 1.956.978 4.077-1 5.5-1l-6-13c-3.477 0-6.578-2.539-9.5-4-6.677-3.339-15.647-4-22.5-4 0 4.371 2 8.019 2 12ZM273 153h1l1-12c-6.785 0-15.876.688-22.5 4-2.844 1.422-5.045 4-8.5 4h-1l-5 13c1.423 0 3.544 1.978 5.5 1 8.455-4.228 19.516-10 29.5-10Z"/><path fill="#238A5E" id="ORBl2/3" d="M149 168v11c2.867 0 6.655-7.077 8.5-8 9.271-4.635 14.581-17 25.5-17v-1c0-3.981-2-7.629-2-12-9.458 0-17.843 26-31 26l-1 1ZM307 179h1c0-3.794-1-6.617-1-11-12.271 0-22.186-27-32-27l-1 12 7 3.5 19.5 16.5 6.5 6Z"/><path fill="#209765" id="AId2/3" d="M140 179h1c0-4.033 6-6.369 6-11l-6-4.5c-2.694-5.388-8-12.163-8-18.5l-10 7v1l17 26ZM309 168c0 1.895 4.48 10 7 10 1.459 0 17-23.395 17-26l-9-7h-1c0 4.793-8.322 23-14 23Z"/><path fill="#1E9D5A" id="MOp1" d="m113 146 1 1-1-1ZM343 147l-1 1 1-1ZM114 148l1 1-1-1ZM342 149l-1 1 1-1ZM341 151l-1 1 1-1ZM116 152l1 1-1-1Z"/><path fill="#209764" id="AId1" d="m316 179 4 3 5-6.5 14-20.5c-1.408 0-5-1.197-5-3h-1c0 2.605-15.541 26-17 26v1ZM140 179l-4 3c0-6.506-18-19.841-18-27l5-2 17 26Z"/><path fill="#248A5B" id="ORBvl1" d="M185 163c10.922 0 18.496 5.498 27.5 10 1.704.852 9.5 1.19 9.5 1l-3-12c-1.423 0-3.544 1.978-5.5 1-8.672-4.336-20.251-10-30.5-10v1c0 3.157 2 5.481 2 9ZM271 163c-9.074 0-16.98 4.24-24.5 8-1.673.836-11.5 4.21-11.5 3 0-4.656 2-7.78 2-12h1c1.423 0 3.544 1.978 5.5 1 8.455-4.228 19.516-10 29.5-10 0 3.721-2 6.881-2 10Z"/><path fill="#238A5D" id="ORBl1" d="M307 179v6c-4.637 0-5.072-6.286-8.5-8-8.913-4.457-14.197-14-27.5-14 0-3.119 2-6.279 2-10h1l7 3.5 19.5 16.5 6.5 6Z"/><path fill="#1E9D5A" id="MOp1" d="m340 153-1 1 1-1Z"/><path fill="#238A5D" id="ORBl1" d="m154 183-4 2c0-1.564-1-3.876-1-6 2.867 0 6.655-7.077 8.5-8 9.271-4.635 14.581-17 25.5-17 0 3.157 2 5.481 2 9-6.554 0-29 9.829-29 18l-1 1-1 1Z"/><path fill="#99D2BD" id="OLF" d="M213 179c9.978 0 9.329 3.158 13 10.5.783 1.566-1.35 9.5 1 9.5 0-9.406-2-17.096-2-26l-3 1c0 .19-7.796-.148-9.5-1-9.004-4.502-16.578-10-27.5-10-6.554 0-29 9.829-29 18l11.5-10c15.024-7.512 21.105-7.448 36 0 2.932 1.466 9.5 3.417 9.5 8ZM304 203c0 1.564 1 3.876 1 6l2-3.5 5-7c1.868-3.735-4-8.823-4-12.5l-1-1c-4.637 0-5.072-6.286-8.5-8-8.913-4.457-14.197-14-27.5-14-9.074 0-16.98 4.24-24.5 8-1.673.836-11.5 4.21-11.5 3l-4-2c0 11.791-2 21.871-2 34 0 1.741-.773 11 1 11 0-8.398-1.896-34.302 5.5-38h7.5c.979 0 3.658-5.079 5.5-6 6.051-3.026 18.729-12.136 27-8l16 8 8.5 8 1 1c0 4.502 8.608 8.283 5 15.5-.659 1.319.334 5.5-2 5.5Z"/><path fill="#1F9865" id="AIv5" d="M307 168h2l-3-4 1 4ZM148 168h1l1-1v-2l-2 3Z"/><path fill="#54BF94" id="AON" fill-rule="evenodd" d="M179 191c0 3.616 4.461 6.423 6 9.5 1.871 3.742 3.411 14.455 7.5 16.5 2.103 1.051 4.5-3.499 4.5-5 0-3.477-2.539-6.578-4-9.5v-9c-1.634-3.267-10.557-2.5-14-2.5m2 51c0 3.337 9.385 7 12 7 0-5.093 10.91-20 15-20h1c0-4.469-9.61-11.281-7-16.5 2.575-5.15 11-28.366 11-33.5 0-4.583-6.568-6.534-9.5-8-14.895-7.448-20.976-7.512-36 0L156 181v1l-1 1h-1l-4 7.5c-2.071 4.142 2 9.239 2 12.5 2.755 0 5.872 4.244 7 6.5 3.464 6.929 22 26.783 22 32.5ZM268 191l-5 3.5c-.81 1.619 1 3.001 1 4 0 4.103-3.244 8.488-5 12-.727 1.453 3.118 7.691 5.5 6.5.196-.098 8.531-18.562 9.5-20.5.783-1.566 4.15-2.7 3-5l-9-.5m7 52c-4.064 0-6.918 6-12 6 0-3.212-10.98-20-14-20h-2c0-5.152 10.422-10.655 7-17.5L243 179c.979 0 3.658-5.079 5.5-6 6.051-3.026 18.729-12.136 27-8l16 8 8.5 8 1 1c0 4.502 8.608 8.283 5 15.5-.659 1.319.334 5.5-2 5.5-1.959 0-5.982 4.465-7 6.5-2.546 5.091-22 30.889-22 31.5v2Z"/><path fill="#219764" id="AIv2/3" d="M141 179c0 4.645 7.208 0 8 0v-11h-2c0 4.631-6 6.967-6 11ZM308 179c0 5.097 7.165 0 8 0v-1c-2.52 0-7-8.105-7-10h-2c0 4.383 1 7.206 1 11Z"/><path fill="#209864" id="AIv1" d="m150 185-2 1c-2.493 0-12 1.684-12-4l4-3h1c0 4.645 7.208 0 8 0 0 2.124 1 4.436 1 6Z"/><path fill="#9AD1BD" id="MOB" d="m213 232 3 2c6.858 0 7.571-7 9-7 0-1.145-.579-4 1-4v-1c0-1.235-.643-5 1-5v-18c-2.35 0-.217-7.934-1-9.5-3.671-7.342-3.022-10.5-13-10.5 0 5.134-8.425 28.35-11 33.5-2.61 5.219 7 12.031 7 16.5 1.747 0 2 .253 2 2h1l1 1ZM239 235h1l1-1 1-1 2-1 1-1 2-2c0-5.152 10.422-10.655 7-17.5L243 179h-7.5c-7.396 3.698-5.5 29.602-5.5 38v4c1.579 0 1 2.855 1 4v1c2.644 0 4.032 9 8 9Z"/><path fill="#209864" id="AIv1" d="m307 185 1 1c3.377 0 12 1.767 12-4l-4-3c-.835 0-8 5.097-8 0h-1v6Z"/><path fill="#99D2BD" id="OLF" d="M155 182h1v-1l-1 1Z"/><path fill="#CACAC9" id="lotd" d="m300 181 1 1-1-1Z"/><path fill="#99D2BD" id="OLF" d="M154 183h1v-1l-1 1Z"/><path fill="#CACAC9" id="lotd" d="m156 182-1 1v-1h1Z"/><path fill="#99D2BD" id="OLF" d="M152 203v6l-3-3.5-4-5c-2.498-4.997 3-10.118 3-14.5l2-1 4-2-4 7.5c-2.071 4.142 2 9.239 2 12.5Z"/><path fill="#CBCBC7" id="aco" d="M179 191c0 3.616 4.461 6.423 6 9.5 1.871 3.742 3.411 14.455 7.5 16.5 2.103 1.051 4.5-3.499 4.5-5 0-3.477-2.539-6.578-4-9.5v-9c-1.634-3.267-10.557-2.5-14-2.5ZM268 191l-5 3.5c-.81 1.619 1 3.001 1 4 0 4.103-3.244 8.488-5 12-.727 1.453 3.118 7.691 5.5 6.5.196-.098 8.531-18.562 9.5-20.5.783-1.566 4.15-2.7 3-5l-9-.5Z"/><path fill="#CAC8C7" id="lot" d="M152 209c0 6.479 22.554 33 29 33 0-5.717-18.536-25.571-22-32.5-1.128-2.256-4.245-6.5-7-6.5v6ZM275 241l1 1c7.412 0 19.809-18.118 23-24.5l6-8.5c0-2.124-1-4.436-1-6-1.959 0-5.982 4.465-7 6.5-2.546 5.091-22 30.889-22 31.5Z"/><path fill="#99D2BD" id="OLF" d="M227 217c-1.643 0-1 3.765-1 5 1.643 0 1-3.765 1-5ZM230 221c1.579 0 1 2.855 1 4-1.579 0-1-2.855-1-4ZM226 223c-1.579 0-1 2.855-1 4 1.579 0 1-2.855 1-4ZM239 235c0 1.89-2 2.495-2 6-1.054 0-6-12.857-6-15 2.644 0 4.032 9 8 9ZM216 234c0 2.926 4 2.469 4 6 1.771 0 5-10.748 5-13-1.429 0-2.142 7-9 7Z"/><path fill="#62CF9E" id="TTv" d="M219 242c0 9.736-12.445 13.528-19.5 10-1.265-.632-6.5-1.278-6.5-3 0-5.093 10.91-20 15-20 0 1.577 1.762 2 3 2h1l1 1 3 2c0 2.926 4 2.469 4 6v1l-1 1Z"/><path fill="#99D2BD" id="OLF" d="M209 229c1.747 0 2 .253 2 2-1.238 0-3-.423-3-2h1ZM249 229l-4 2 2-2h2Z"/><path fill="#62CF9E" id="TTv" d="M237 241c0 6.905 9.928 15.286 16.5 12 1.844-.922 9.5-.887 9.5-4 0-3.212-10.98-20-14-20l-4 2-1 1-2 1-1 1-1 1h-1c0 1.89-2 2.495-2 6Z"/><path fill="#99D2BD" id="OLF" d="m212 231 1 1-1-1ZM245 231l-1 1 1-1ZM242 233l-1 1 1-1ZM241 234l-1 1 1-1ZM220 241l-1 1 1-1ZM276 242l-1 1v-2l1 1Z"/></svg>