<svg xmlns="http://www.w3.org/2000/svg" viewBox="0 0 456 320"><path fill="#1E9D5A" id="MOp1" d="M145 42v6c3.74 0 9.234-2.367 12.5-4 5.956-2.978 24.372-6 31.5-6v-1l1-4c-11.322 0-25.006 1.253-34.5 6-1.633.817-10.5.92-10.5 3Z"/><path fill="#1E9C59" id="MOs1" d="M227 49c-1.624 0-2.75 2-5 2 0-13.926-23.242-14-33-14l1-4c14.282 0 20.559-1.941 30.5 8l6.5 8ZM229 49c1.624 0 2.75 2 5 2l3-5.5 6.5-5.5c7.046-3.523 14.958-3 23.5-3v-4c-12.029 0-25.872-2.755-32 9.5-.958 1.916-6 3.303-6 6.5Z"/><path fill="#1E9D5A" id="MOp1" d="M311 42c0 2.124 1 4.436 1 6-10.889 0-33.029-11-45-11v-4c10.957 0 24.297 1.398 33.5 6 1.633.817 10.5.92 10.5 3Z"/><path fill="#1E9D58" id="MOs2/3" d="m222 52-6 3-2.5-4-8-4c-5.624-2.812-13.422 3-18.5 3 0-3.765 2-7.772 2-12v-1c9.758 0 33 .074 33 14v1ZM234 52l6 3 3-3.5c2.482-2.482 4.691-3.095 7.5-4.5 5.624-2.812 13.422 3 18.5 3l-2-13c-8.542 0-16.454-.523-23.5 3l-6.5 5.5-3 5.5v1Z"/><path fill="#1F9C58" id="MOp2/3" d="M313 65v6c-2.061 0-34.034-15.767-38.5-18-1.79-.895-3.403-3-5.5-3l-2-13c11.971 0 34.111 11 45 11v1c0 1.32-.684 6 1 6v1c-1.186 0-1.186 1 0 1v8ZM143 65c.773 0 0 5.147 0 6 12.099 0 30.472-20 44-20v-1c0-3.765 2-7.772 2-12-7.128 0-25.544 3.022-31.5 6-3.266 1.633-8.76 4-12.5 4l-1 1v6l-1 10Z"/><path fill="#187F60" id="SSp-ll1" d="M142 49h2l1-1v-6l-4 1c0 2.124 1 4.436 1 6ZM314 49h1l1-6-5-1c0 2.124 1 4.436 1 6v1h2Z"/><path fill="#197E64" id="SSp-ul1" d="M104 67h1c3.116 0 28.929-18 37-18 0-1.564-1-3.876-1-6-7.476 0-18.965 6.732-25.5 10L103 61l1 6ZM351 67h1l2-6c-3.371 0-6.579-4.54-9.5-6-6.087-3.043-22.131-12-28.5-12l-1 6c8.735 0 19.897 9.199 27.5 13l8.5 5Z"/><path fill="#1F9D58" id="MOs5" d="M203 67c0-2.341-2.342-1.42-3.5-2-6.821-3.41-9.89 3-15.5 3l3-17v-1c5.078 0 12.876-5.812 18.5-3l8 4 2.5 4v1c-3.985 0-11.578 11-13 11ZM254 67c0-7.325 15.978 0 18 0l-3-17c-5.078 0-12.876-5.812-18.5-3-2.809 1.405-5.018 2.018-7.5 4.5l-3 3.5v1c2.593 0 13 7.918 13 11h1Z"/><path fill="#187F64" id="SSp-ll2/3" d="m145 48-1 1 1-1Z"/><path fill="#197F61" id="SSp-ul2/3" d="M110 79h1c0-1.757 6.069-4.284 7.5-5 6.526-3.263 16.977-9 24.5-9l1-10c-.675 0-2-5.294-2-6-8.071 0-33.884 18-37 18l5 12Z"/><path fill="#187F64" id="SSp-ll2/3" d="M144 49v6c-.675 0-2-5.294-2-6h2Z"/><path fill="#3EA665" id="ACAd1" d="M223 77h10c0-8.34 1-17.29 1-25v-1c-2.25 0-3.376-2-5-2 0 2.488-2 1.919-2 0-1.624 0-2.75 2-5 2v1c1.684 0 1 4.68 1 6v19Z"/><path fill="#187F64" id="SSp-ll2/3" d="m314 49-1 6c-1.684 0-1-4.68-1-6h2Z"/><path fill="#197F61" id="SSp-ul2/3" d="M345 79h1c0-4.46 5-7.304 5-12l-8.5-5c-7.603-3.801-18.765-13-27.5-13h-1l-1 6v10c8.134 0 17.569 5.534 24.5 9 1.544.772 7.5 2.732 7.5 5Z"/><path fill="#1E9C5A" id="MOp5" d="M313 72v15c-9.544 0-33.679-18-40-18l-1-2-3-17c2.097 0 3.71 2.105 5.5 3 4.466 2.233 36.439 18 38.5 18v1ZM143 72v15l29.5-12 11.5-7 3-17c-13.528 0-31.901 20-44 20v1Z"/><path fill="#40A565" id="ACAd2/3" d="M217 79h1c0-1.014 3.959-2 5-2V58c0-1.32.684-6-1-6l-6 3v1c1.665 0 1 4.222 1 5.5V79ZM233 77l6 1c0-7.234 1-15.443 1-22v-1l-6-3c0 7.71-1 16.66-1 25Z"/><path fill="#3EA566" id="ACAd5" d="M217 79c-4.647 0-8.128 6-12 6 0-2.938.209-17-2-17v-1c1.422 0 9.015-11 13-11 1.665 0 1 4.222 1 5.5V79ZM239 79c4.696 0 7.54 5 12 5l2-17c0-3.082-10.407-11-13-11 0 6.557-1 14.766-1 22v1Z"/><path fill="#187F64" id="SSp-ll2/3" d="M313 56c-1.186 0-1.186 1 0 1v-1Z"/><path fill="#1B8062" id="SSp-un1" d="M99 71h2c0-2.618 3-1.65 3-4l-1-6-13 9 1 1h8ZM367 71l-2 1c-1.812 0-1.87-2-2.5-2-.949 0-2.951 1-4.5 1h-2l-4-4 2-6 3.5 3c1.788.894 9.5 4.624 9.5 7Z"/><path fill="#1D9C5A" id="MOs6a" d="m191 88-8 1c-1.665 0-1-4.222-1-5.5l2-15.5c5.61 0 8.679-6.41 15.5-3 1.158.58 3.5-.341 3.5 2v1c-1.548 0-12 17.277-12 20ZM265 88c3.447 0 6.245 2 9 2 0-6.691-1-13.703-1-21l-1-2c-2.022 0-18-7.325-18 0 0 5.3 11 13.732 11 21Z"/><path fill="#1A7F63" id="SSp-ul4" d="M114 87h1c0-2.236 5.074-3.287 6.5-4 5.014-2.507 16.285-11 21.5-11v-1c0-.853.773-6 0-6-7.523 0-17.974 5.737-24.5 9-1.431.716-7.5 3.243-7.5 5 0 3.425 3 4.761 3 8ZM342 86h1c0-2.583 2-3.934 2-7 0-2.268-5.956-4.228-7.5-5-6.931-3.466-16.366-9-24.5-9v7l29 14Z"/><path fill="#1C7F63" id="SSp-un2/3" d="M108 80h1l1-1-5-12h-1c0 2.35-3 1.382-3 4 0 3.218 7 5.402 7 9Z"/><path fill="#3FA664" id="ACAd6a" d="M260 93h1c0-2.226 1.774-4 4-4v-1c0-7.268-11-15.7-11-21h-1l-2 17v1c4.089 0 6.039 8 9 8Z"/><path fill="#1C7F63" id="SSp-un2/3" d="m346 79 2 1c0-1.73 6.974-9 8-9l-4-4h-1c0 4.696-5 7.54-5 12Z"/><path fill="#1F9B5A" id="MOp6a" d="M153 103c-3.823 0-6.314 3-10 3V87l29.5-12 11.5-7-2 15.5c0 1.278-.665 5.5 1 5.5v1l-1 1c-4.898 0-11.255 3.877-15.5 6l-3.5 2c-1.761 0-10 2.307-10 4Z"/><path fill="#3FA664" id="ACAd6a" d="M195 93h1l9-8c0-2.938.209-17-2-17-1.548 0-12 17.277-12 20 1.811 0 4 3.438 4 5Z"/><path fill="#1F9B5A" id="MOp6a" d="m274 90 4.5 3c2.033 1.016 34.062 13 34.5 13V87c-9.544 0-33.679-18-40-18 0 7.297 1 14.309 1 21Z"/><path fill="#197E63" id="SSp-n1" d="M83 83c-3.71 0-5.814 3-10 3l13.5-13 3.5-3 1 1v2c-.905 0-.905 3 0 3l-1 1-1 1-1 1-2 2c0-2.202-1-2.202-1 0-1.747 0-2 .253-2 2Z"/><path fill="#187E61" id="SSp-m1" d="M91 73c-.905 0-.905 3 0 3 1.578 0 8-3.554 8-5h-8v1c1.186 0 1.186 1 0 1ZM365 72l1 5-8-6c1.549 0 3.551-1 4.5-1 .63 0 .688 2 2.5 2Z"/><path fill="#1A7E64" id="SSp-m2/3" d="m57 132 10 5c0-12.752 11.353-33.853 20.5-43l15-11 5.5-3c0-3.598-7-5.782-7-9h-2c0 1.446-6.422 5-8 5l-1 1-1 1-1 1-2 2h-1c0 1.747-.253 2-2 2 0 2.615-13.736 16.972-16 21.5-3.328 6.656-4.684 14.368-8 21-.557 1.114-.41 5.5-2 5.5v1ZM389 137h1c0-1.602 7.385-5 9-5v-1c0-9.958-11.508-27.516-16-36.5L371 81h-1l-1-1v-1l-2-2h-1l-8-6h-2c-1.026 0-8 7.27-8 9v1c5.476 0 8.914 5.707 13.5 8 13.791 6.895 27.5 33.238 27.5 48Z"/><path fill="#197E63" id="SSp-n1" d="M371 81c0-1.191 10.927 6 13 6 0-1.11-14.354-16-17-16l-2 1 1 5h1l2 2v1l1 1h1Z"/><path fill="#1B8062" id="SSp-un1" d="M91 72c1.186 0 1.186 1 0 1v-1Z"/><path fill="#187E62" id="SSp-ul5" d="M120 97h1c5.351 0 15.126-10 22-10V72c-5.215 0-16.486 8.493-21.5 11-1.426.713-6.5 1.764-6.5 4v2c1.486 0 5 6.556 5 8ZM341 88l-5 9c-5.921 0-15.649-10-23-10V72l29 14v1l-1 1Z"/><path fill="#187E61" id="SSp-m1" d="m90 77-1 1 1-1Z"/><path fill="#3FA566" id="ACAv2/3" d="m221 111-3 2V79c0-1.014 3.959-2 5-2 0 10.742-1 21.854-1 32l-1 2Z"/><path fill="#40A664" id="ACAv1" d="m227 104-5 5c0-10.146 1-21.258 1-32h10c0 10.872 1 21.645 1 32l-5-6c0-3.219-2-1.082-2 1Z"/><path fill="#3FA566" id="ACAv2/3" d="m235 111 3 1c0-10.3 1-22.046 1-33v-1l-6-1c0 10.872 1 21.645 1 32l1 2Z"/><path fill="#187E61" id="SSp-m1" d="m367 77 2 2-2-2ZM89 78l-1 1 1-1ZM85 81h1c0-2.202-1-2.202-1 0Z"/><path fill="#197E61" id="SSp-un4" d="M113 87h1c0-3.239-3-4.575-3-8h-1l-1 1 4 7Z"/><path fill="#3EA666" id="ACAv5" d="M209 108c0 1.33 7.619 5 9 5V79h-1c-4.647 0-8.128 6-12 6 0 8.009 4 15.702 4 23ZM247 109c-1.194 0-9 4.978-9 3 0-10.3 1-22.046 1-33 4.696 0 7.54 5 12 5v1c0 8.808-4 16.203-4 24Z"/><path fill="#197E61" id="SSp-un4" d="m348 81-5 5c0-2.583 2-3.934 2-7h1l2 1v1Z"/><path fill="#1B7F62" id="SSp-m4" d="M71 139h1c0-4.201 4.16-9.822 6-13.5 6.1-12.198 13.035-25.767 26.5-32.5 2.985-1.493 4.904-5 8.5-5v-1l-4-7h-1l-5.5 3-15 11c-9.147 9.147-20.5 30.248-20.5 43l4 2Z"/><path fill="#1B7F64" id="SSp-n2/3" d="m369 80 1 1-1-1Z"/><path fill="#187E61" id="SSp-m1" d="m404 129-5 2c0-9.958-11.508-27.516-16-36.5L371 81c0-1.191 10.927 6 13 6l7 9.5c4.296 8.593 13 22.674 13 32.5ZM85 81c-1.747 0-2 .253-2 2 1.747 0 2-.253 2-2Z"/><path fill="#1B7F62" id="SSp-m4" d="m389 137-4 2-2-2.5c-6.66-13.32-12.466-33.983-27.5-41.5L343 87v-1l5-5c5.476 0 8.914 5.707 13.5 8 13.791 6.895 27.5 33.238 27.5 48Z"/><path fill="#187E61" id="SSp-m1" d="m52 129 5 2c1.59 0 1.443-4.386 2-5.5 3.316-6.632 4.672-14.344 8-21 2.264-4.528 16-18.885 16-21.5-3.71 0-5.814 3-10 3l-8 10.5c-3.41 6.821-13 25.299-13 32.5Z"/><path fill="#40A564" id="ACAv6a" d="M207 108h2c0-7.298-4-14.991-4-23l-9 8c0 4.967 10 8.66 10 13l1 2ZM249 108l-2 1c0-7.797 4-15.192 4-24 4.089 0 6.039 8 9 8l-1 4c-1.577 0-2 1.762-2 3l-3 3c-2.226 0-4 1.774-4 4l-1 1Z"/><path fill="#197E61" id="SSp-un4" d="M342 87h1v-1h-1v1Z"/><path fill="#197D62" id="SSp-un5" d="m113 88 2 1v-2h-2v1Z"/><path fill="#197D61" id="SSp-ul6a" d="m143 107-13 5-2-3.5c-1.861-3.722-7-7.127-7-11.5 5.351 0 15.126-10 22-10v20ZM313 107l14 5c0-5.067 9-10.481 9-15-5.921 0-15.649-10-23-10v20Z"/><path fill="#197D62" id="SSp-un5" d="M343 87c0 2.73-.423 1-2 1l1-1h1Z"/><path fill="#1B7E63" id="SSp-m5" d="m385 139-11 5c-2.064 0-.426-3.353-1-4.5-1.762-3.524-2.274-7.548-4-11-4.607-9.214-21.367-31.5-33-31.5l5-9c1.577 0 2 1.73 2-1l12.5 8c15.034 7.517 20.84 28.18 27.5 41.5l2 2.5ZM72 139l11 5c0-12.729 13.367-33.934 25.5-40 3.562-1.781 7.385-7 11.5-7 0-1.444-3.514-8-5-8l-2-1c-3.596 0-5.515 3.507-8.5 5-13.465 6.733-20.4 20.302-26.5 32.5-1.84 3.678-6 9.299-6 13.5Z"/><path fill="#1E9C58" id="MOs6b" d="M183 90v1c2.885 0 4.697-2 8-2v-1l-8 1v1Z"/><path fill="#3FA466" id="ACAd6b" d="m191 89 4 4c0-1.562-2.189-5-4-5v1Z"/><path fill="#1E9C58" id="MOs6b" d="M274 90v1c-3.489 0-5.32-2-9-2v-1c3.447 0 6.245 2 9 2Z"/><path fill="#CACCC7" id="cing" d="m206 106 1 2c-8.39 0-12.931-10.715-19.5-14-5.272-2.636-12.66 5-17.5 5l-1 1h-1l-2 1h-4l1-2c2.426 0 19-6.301 19-8h1c2.885 0 4.697-2 8-2l4 4c0 3.71 6.75 13 11 13Z"/><path fill="#3FA466" id="ACAd6b" d="M261 93v1l4-5c-2.226 0-4 1.774-4 4Z"/><path fill="#CACCC7" id="cing" d="m250 107-1 1c9.027 0 13.268-10.384 20.5-14 5.239-2.62 13.59 6 18.5 6l2 1h5c0-2.637-21-7.136-21-10-3.489 0-5.32-2-9-2l-4 5c0 1.238-.423 3-2 3 0 1.238-.423 3-2 3 0 2.041-.959 3-3 3l-4 4Z"/><path fill="#1D9D5A" id="MOp6b" d="M182 91h1v-1l-1 1ZM313 107v1c-6.071 0-11.571-7-18-7 0-2.637-21-7.136-21-10v-1l4.5 3c2.033 1.016 34.062 13 34.5 13v1ZM182 91c-4.898 0-11.255 3.877-15.5 6l-3.5 2c2.426 0 19-6.301 19-8Z"/><path fill="#40A465" id="ACAv6b" d="M196 93c0 4.967 10 8.66 10 13-4.25 0-11-9.29-11-13h1ZM261 94c0 1.238-.423 3-2 3l1-4h1v1Z"/><path fill="#C9C7C9" id="ccb" d="M359 158v3c-2.076 0-3.216-7.932-4-9.5-3.579-7.158-15.034-24.767-22.5-28.5-19.545-9.772-32.675-14-56.5-14-3.153 0-17-.009-17 6-1.238 0-3 .423-3 2l-2 1-1 1-2 1c-2.538 0-16 3.294-16 5h-5c-.476 0-3-3.803-3 0h-5c-3.105 0-10.777-5-17-5l-2-1c0-3.893-13.112-9.306-16.5-11-2.161-1.081-4.894 1-6.5 1-27.437 0-36.099 4.799-58.5 16-3.451 1.726-12.685 13.87-14.5 17.5-.842 1.685-3.643 9.5-6 9.5v-3l1-2 1-2 1-2 1-2c1.577 0 2-1.762 2-3 1.577 0 2-1.762 2-3 1.782 0 8-8.283 8-10 1.747 0 2-.253 2-2 3.504 0 5.551-4.525 8.5-6l17-8c2.624-1.312 21.5-5.923 21.5-8l2-1h1l1-1c4.84 0 12.228-7.636 17.5-5 6.569 3.285 11.11 14 19.5 14h2c0 1.33 7.619 5 9 5l3-2 1.5 1c3.701 1.85 3.092-1 6-1l1 2c1.517.759 5.5-.037 5.5-2l3 1c0 1.978 7.806-3 9-3l2-1c9.027 0 13.268-10.384 20.5-14 5.239-2.62 13.59 6 18.5 6l2 1h1c0 2.707 7.748 3.124 9.5 4 10.124 5.062 20.759 8.879 31 14 10.186 5.093 13.34 17.34 21 25l4.5 9v1l1 1v1l1 2Z"/><path fill="#187D61" id="SSp-m6a" d="M83 145c5.429 0 9.473 6 15 6 0-3.805 13.704-26 17-26 0-1.747.253-2 2-2 0-1.747.253-2 2-2 0-1.747.253-2 2-2 0-2.15 6.928-6 9-6v-1l-2-3.5c-1.861-3.722-7-7.127-7-11.5h-1c-4.115 0-7.938 5.219-11.5 7-12.133 6.066-25.5 27.271-25.5 40v1Z"/><path fill="#40A465" id="ACAv6b" d="M259 97c-1.577 0-2 1.762-2 3 1.577 0 2-1.762 2-3Z"/><path fill="#187D61" id="SSp-m6a" d="M358 151h1l15-6v-1c-2.064 0-.426-3.353-1-4.5-1.762-3.524-2.274-7.548-4-11-4.607-9.214-21.367-31.5-33-31.5 0 4.519-9 9.933-9 15v1c8.458 0 31 29.751 31 38Z"/><path fill="#1D9D5A" id="MOp6b" d="M162 101c-3.489 0-5.32 2-9 2 0-1.693 8.239-4 10-4l-1 2Z"/><path fill="#C9C9CA" id="scwm" d="m170 99-1 1 1-1ZM168 100l-2 1 2-1Z"/><path fill="#40A465" id="ACAv6b" d="m257 100-3 3c2.041 0 3-.959 3-3Z"/><path fill="#C9C9CA" id="scwm" d="m288 100 2 1-2-1ZM119 121v2c3.504 0 5.551-4.525 8.5-6l17-8c2.624-1.312 21.5-5.923 21.5-8h-4c-3.489 0-5.32 2-9 2 0 1.707-8.452 5-10 5l-13 6c-3.347 0-5.288 5-9 5 0 1.747-.253 2-2 2ZM357 152v1l-4.5-9c-7.66-7.66-10.814-19.907-21-25-10.241-5.121-20.876-8.938-31-14-1.752-.876-9.5-1.293-9.5-4h4c6.429 0 11.929 7 18 7 4.582 0 8.087 5 13 5l11.5 9c5.788 5.788 19.5 21.699 19.5 30Z"/><path fill="#1D9D5A" id="MOp6b" d="M143 107v1c1.548 0 10-3.293 10-5-3.823 0-6.314 3-10 3v1Z"/><path fill="#7ED04B" id="IG" d="m221 111 1.5 1c3.701 1.85 3.092-1 6-1l1 2c1.517.759 5.5-.037 5.5-2l-1-2-5-6c0 2.729-.423 1-2 1l-5 5-1 2Z"/><path fill="#40A465" id="ACAv6b" d="M254 103c-2.226 0-4 1.774-4 4l4-4Z"/><path fill="#1C8064" id="SSp-ul6b" d="M130 113v1l13-6v-1l-13 5v1ZM326 113h1v-1l-14-5v1c4.582 0 8.087 5 13 5Z"/><path fill="#AAA8A9" id="SEZ" d="M183 111c8.559 0 16.14 8 20 8 0-3.893-13.112-9.306-16.5-11-2.161-1.081-4.894 1-6.5 1l3 2ZM273 111c-4.839 0-8.949 4-14 4 0-6.009 13.847-6 17-6 0 1.577-1.762 2-3 2Z"/><path fill="#98D5F9" id="CP" d="M131 236h1c0-1.643 3.765-1 5-1h8c0-1.473 1.952-1 3-1 5.193 0 27-3.212 27-10l1-1c0-5.442 3.757-36.129 7.5-38h5l1.5-2 1-12c0-5.356 1-11.266 1-16v-7c0-8.06.36-17.781-3-24.5l-6-12.5-3-2c-27.437 0-36.099 4.799-58.5 16-3.451 1.726-12.685 13.87-14.5 17.5-.842 1.685-3.643 9.5-6 9.5 0 1.424-.362 5-2 5 0 1.424-.362 5-2 5v1l-1 2v1l-1 2v1c0 5.832-2.671 13.157 0 18.5 1.512 3.025 7 20.613 7 23.5 0 1.843 4.171 12 6 12l3.5 4 7.5 5c3.88 0 7.764 4 12 4ZM324 236h2l10-3 1-1 2-1 4-2 1-1 1-1 1-1 1-1 1-1 1-1c0-3.185 5-7.179 5-11l1-1v-1c0-1.531 2.875-13 4-13 0-6.454 4-11.836 4-18v-1c-.926 0-2-8.751-2-10v-1l-1-1-1-4v-1c-2.076 0-3.216-7.932-4-9.5-3.579-7.158-15.034-24.767-22.5-28.5-19.545-9.772-32.675-14-56.5-14 0 1.577-1.762 2-3 2l-5 10.5c-3.014 6.028-4 16.431-4 23.5v2l1 9v11c1.797 0 1 12.925 1 15l1.5 3c2.742 1.371 5.529-1.441 7.5 2.5 3.901 7.803 1.805 27.61 4 32l2 3.5c0 8.171 16.135 10 22 10l1 1h5l2 1h8c1.235 0 5-.643 5 1Z"/><path fill="#A8AAAA" id="VL" d="M192 148h1c0-12.323 12-23.189 12-28l-2-1c-3.86 0-11.441-8-20-8l6 12.5c3.36 6.719 3 16.44 3 24.5ZM251 120l9 13.5c.754 1.508 2.82 11.5 4 11.5 0-7.069.986-17.472 4-23.5l5-10.5c-4.839 0-8.949 4-14 4 0 1.577-1.762 2-3 2l-2 1-1 1-2 1Z"/><path fill="#188064" id="SSp-m6b" d="M130 114c-3.347 0-5.288 5-9 5 0-2.15 6.928-6 9-6v1ZM358 151l-1 1c0-8.301-13.712-24.212-19.5-30l-11.5-9h1c8.458 0 31 29.751 31 38Z"/><path fill="#AAA8A9" id="SEZ" d="M259 115c-1.238 0-3 .423-3 2 1.238 0 3-.423 3-2ZM256 117l-2 1 2-1ZM254 118l-1 1 1-1Z"/><path fill="#188064" id="SSp-m6b" d="M121 119c-1.747 0-2 .253-2 2 1.747 0 2-.253 2-2Z"/><path fill="#90CBEC" id="LSc" d="M195 149h1l1-1c0-2.135 18.368-14.434 21.5-16l3.5-5v-2c-3.105 0-10.777-5-17-5 0 4.811-12 15.677-12 28l2 1ZM264 147c-1.481 0-.785 2-3 2l-6.5-6c-2.654-1.327-19.5-12.321-19.5-16v-2c0-1.706 13.462-5 16-5l9 13.5c.754 1.508 2.82 11.5 4 11.5v2Z"/><path fill="#188064" id="SSp-m6b" d="M117 123h2v-2c-1.747 0-2 .253-2 2ZM115 125h2v-2c-1.747 0-2 .253-2 2Z"/><path fill="#C9C9CA" id="scwm" d="M119 123c0 1.747-.253 2-2 2v-2h2Z"/><path fill="#97D6F9" id="STR" d="M227 125c0 2.202 3 2.202 3 0-.476 0-3-3.803-3 0Z"/><path fill="#188064" id="SSp-m6b" d="M98 152h1l2-3 1-2 1-2 1-2 1-2c0-1.238.423-3 2-3 0-1.238.423-3 2-3 0-4.106 6-6.05 6-10-3.296 0-17 22.195-17 26v1Z"/><path fill="#C9C9CA" id="scwm" d="M117 125c0 1.717-6.218 10-8 10 0-4.106 6-6.05 6-10h2Z"/><path fill="#97D6F9" id="STR" d="m224 125-2 2v-2h2Z"/><path fill="#90CAED" id="LSr" d="M219 181c-1.763 0-1 8.343-1 10-.545 0-6.58-8.08-8-9.5-5.351-5.351-11.486-8.5-18-8.5l-1-2c0-5.356 1-11.266 1-16l3-6h1l1-1c0-2.135 18.368-14.434 21.5-16l3.5-5 2-2h3c0 2.202 3 2.202 3 0h3l2 2c0 3.679 16.846 14.673 19.5 16l6.5 6 4 7v18c-1.602 0-2.384-3.058-4.5-2-5.836 2.918-9.429 7.215-15 10l-6.5 7c0-1.488-.924-11-2-11v-5c0-1.552-.566-8-2-8 0-6.493-2.238-14.975-5-20.5l-1.5-6.5c-1.575 0-1.071 4.643-1.5 5.5-3.182 6.364-6 16.029-6 23.5-1.579 0-1 2.855-1 4-1.763 0-1 8.343-1 10Z"/><path fill="#97D6F9" id="STR" d="M235 125v2l-2-2h2Z"/><path fill="#1A7E62" id="SSs1" d="M46 177h5v-1c0-6.857-3.214-21.073 0-27.5 2.261-4.523 6-11.267 6-16.5v-1l-5-2c0 2.154-5.697 18.894-7 21.5-2.372 4.743 1 21.376 1 26.5ZM406 176c0 1.579 2.855 1 4 1 1.777 0 1-9.717 1-11.5 0-10.648.387-20.226-4-29-.636-1.272-1.45-7.5-3-7.5l-5 2v1c0 4.273 4.078 11.657 6 15.5 4.074 8.147 1 19.63 1 28.5Z"/><path fill="#1B8063" id="SSs2/3" d="m60 175-9 1c0-6.857-3.214-21.073 0-27.5 2.261-4.523 6-11.267 6-16.5l10 5-6 18.5-1 19.5ZM405 176h1c0-8.87 3.074-20.353-1-28.5-1.922-3.843-6-11.227-6-15.5-1.615 0-9 3.398-9 5 0 5.277 2.713 12.927 5 17.5 2.627 5.253 2 14.234 2 20.5l8 1Z"/><path fill="#C9C9CA" id="scwm" d="M109 135c-1.577 0-2 1.762-2 3 1.577 0 2-1.762 2-3Z"/><path fill="#187C63" id="SSs4" d="M60 175h5c0-12.157 6-24.207 6-36l-4-2-6 18.5-1 19.5ZM391 175h6c0-6.266.627-15.247-2-20.5-2.287-4.573-5-12.223-5-17.5h-1l-4 2c0 10.631 6 23.471 6 36Z"/><path fill="#C9C9CA" id="scwm" d="M107 138c-1.577 0-2 1.762-2 3 1.577 0 2-1.762 2-3Z"/><path fill="#8FCBEC" id="SF" d="M235 167c-1.555 0-3.122-11.744-4-13.5l-3.5-2.5c-4.298 2.149-3.672 10.843-5.5 14.5-.574 1.147 1.064 4.5-1 4.5v-3c0-7.471 2.818-17.136 6-23.5.429-.857-.075-5.5 1.5-5.5l1.5 6.5c2.762 5.525 5 14.007 5 20.5v2Z"/><path fill="#1C8063" id="SSs5" d="M72 175h1l2-1 3-1c0-6.714.183-14.866 3-20.5.736-1.471-.357-7.5 2-7.5v-1l-11-5h-1c0 11.793-6 23.843-6 36 .969 0 7-2.614 7 0ZM385 175c0-2.726 5.294 0 6 0 0-12.529-6-25.369-6-36l-11 5v1c0 3.278 1.585 7.67 3 10.5l1 17.5 4 1 2 1h1Z"/><path fill="#C9C9CA" id="scwm" d="m105 141-1 2 1-2ZM104 143l-1 2 1-2Z"/><path fill="#197D63" id="SSs6a" d="M78 173h13l1-1 5-15.5c.574-1.147-1.064-4.5 1-4.5v-1c-5.527 0-9.571-6-15-6-2.357 0-1.264 6.029-2 7.5-2.817 5.634-3 13.786-3 20.5Z"/><path fill="#C9C9CA" id="scwm" d="m103 145-1 2 1-2Z"/><path fill="#197D63" id="SSs6a" d="M365 172c3.037 0 8.307 1 13 1l-1-17.5c-1.415-2.83-3-7.222-3-10.5l-15 6c0 7.608 5 13.567 5 21h1Z"/><path fill="#C9C9CA" id="scwm" d="m102 147-1 2 1-2Z"/><path fill="#97D6F9" id="STR" d="m261 149 4 7-1-9c-1.481 0-.785 2-3 2ZM195 149l-3 6v-7h1l2 1ZM197 148l-1 1 1-1Z"/><path fill="#C9C9CA" id="scwm" d="m101 152-2 1v-1l2-3v3Z"/><path fill="#96A7D3" id="MS" d="M233 213v1l-2.5 4c-2.651 1.326-.668-4-2-4l-2 4-3.5-5c0-4.999-4-10.685-4-16v-16c1.684 0 1-4.679 1-6 1.579 0 1-2.855 1-4v-1c2.064 0 .426-3.353 1-4.5 1.828-3.657 1.202-12.351 5.5-14.5l3.5 2.5c.878 1.756 2.445 13.5 4 13.5v2c0 1.517.726 9 2 9v22.5c-1.23 2.46-4 10.011-4 12.5Z"/><path fill="#1A8061" id="SSs6b" d="m364 172-1 1c0-1.041-.986-5-2-5v-2c0-1.465.109-4-2-4v-4l-1-2v-1l-1-1v-2l1-1h1c0 7.608 5 13.567 5 21ZM92 172l1 1 2-4v-3l1-1 1-2v-4l1-1v-1l1-2v-3h-1c-2.064 0-.426 3.353-1 4.5L92 172Z"/><path fill="#C9C7C9" id="ccb" d="M99 155v2c1.638 0 2-3.576 2-5l-2 1v2Z"/><path fill="#C9C9CA" id="scwm" d="m357 154 1 1-1-1ZM98 157h1v-2l-1 2ZM358 156l1 2-1-2Z"/><path fill="#C9C7C9" id="ccb" d="M97 159v3c1.638 0 2-3.576 2-5h-1v1l-1 1Z"/><path fill="#C9C9CA" id="scwm" d="m98 158-1 1 1-1Z"/><path fill="#C9C7C9" id="ccb" d="M360 166h1c0-1.465.109-4-2-4l1 4ZM97 163l-1 2 1-2ZM95 166h1v-1l-1 1Z"/><path fill="#97D6F9" id="STR" d="m235 169 2 4c0-1.552-.566-8-2-8v4Z"/><path fill="#C8CBCC" id="ec" d="m96 166-1 2v-2h1ZM361 166v1l-1-1h1Z"/><path fill="#97D6F9" id="STR" d="M220 171h1v-4c-1.579 0-1 2.855-1 4Z"/><path fill="#A8AAAA" id="VL" d="M266 182c0 2.426 1.024 6-2 6l1-14v-7c1.797 0 1 12.925 1 15Z"/><path fill="#C8CBCC" id="ec" d="M363 173v5c-.926 0-2-8.751-2-10 1.014 0 2 3.959 2 5ZM100 209l2 2c0-2.887-5.488-20.475-7-23.5-2.671-5.343 0-12.668 0-18.5l-2 4v16l1 2 1 3 1 1v2l1 2v2l2 4v1l1 3Z"/><path fill="#8FCBEC" id="SF" d="M237 173v5c-1.274 0-2-7.483-2-9l2 4Z"/><path fill="#A8AAAA" id="VL" d="M190 183c0 1.727 2 7.161 2 4v-14l-1-2-1 12Z"/><path fill="#97D6F9" id="STR" d="M220 175c0 1.321.684 6-1 6 0-1.657-.763-10 1-10v4Z"/><path fill="#8FCBEC" id="SF" d="M221 171c0 1.145.579 4-1 4v-4h1Z"/><path fill="#009B74" id="GU6a" d="M90 191c-4.058 0-6.292 2-10 2 0-6.585-2-13.028-2-20h13c0 5.605 1 10.861 1 16l-2 2ZM92 172l-1 1 1-1Z"/><path fill="#019C74" id="GU6b" d="M92 189h1v-16l-1-1-1 1c0 5.605 1 10.861 1 16Z"/><path fill="#8FCBED" id="LSv" d="m200 196 3.5 3c3.147 1.574 6.887 1.444 10 3 3.043 1.522 3.883-5 5.5-5v-4l-1-2c-.545 0-6.58-8.08-8-9.5-5.351-5.351-11.486-8.5-18-8.5v14l2 4 1 1 1 1 4 3ZM255 198l-2 1-4.5 2h-4c-9.626 0-5.5-4.625-5.5-12l6.5-7c5.571-2.785 9.164-7.082 15-10 2.116-1.058 2.898 2 4.5 2l-1 14-1 3h-1l-1 1-2 2-1 1-1 1-1 1-1 1Z"/><path fill="#019C74" id="GU6b" d="M363 189h1c0-5.046 1-11.325 1-17h-1l-1 1v6c1.22 0 0 7.951 0 10Z"/><path fill="#009B74" id="GU6a" d="M367 191c3.519 0 5.843 2 9 2 0-6.267 2-12.977 2-20-4.693 0-9.963-1-13-1 0 5.675-1 11.954-1 17 1.747 0 2 .253 2 2h1Z"/><path fill="#019C75" id="GU5" d="M80 193c-4.514 0-8.092 2-13 2 0-5.976-2-11.571-2-18v-1l7-1h1l2-1 3-1c0 6.972 2 13.415 2 20ZM376 193l13 2c0-5.355 2-11.673 2-18v-1l-6-1h-1l-2-1-4-1c0 7.023-2 13.733-2 20Z"/><path fill="#12AD82" id="VISC5" d="m72 175-7 1v-1c.969 0 7-2.614 7 0ZM75 174l-2 1 2-1ZM382 174l2 1-2-1ZM391 175v1l-6-1c0-2.726 5.294 0 6 0Z"/><path fill="#12AC83" id="VISC2/3" d="M51 181h1c2.522 0 4.909-2 8-2v-4l-9 1v5Z"/><path fill="#11AC82" id="VISC4" d="m65 177-5 1v-3h5v2ZM391 177l5 1 1-3h-6v2Z"/><path fill="#12AC83" id="VISC2/3" d="m396 178 9 3v-5l-8-1-1 3Z"/><path fill="#12AD83" id="VISC1" d="m405 182 4 1 1-6c-1.145 0-4 .579-4-1h-1v6ZM51 181c0 1.577-1.762 2-3 2-.913 0-2-5.014-2-6h5v4Z"/><path fill="#009C74" id="GU4" d="M66 196h1v-1c0-5.976-2-11.571-2-18l-5 1v1c1.38 0 1.413 6.327 2 7.5l4 9.5ZM389 195l2 1c0-5.943 5-11.547 5-18l-5-1c0 6.327-2 12.645-2 18Z"/><path fill="#97D6F9" id="STR" d="M247 213h1c0-4.727 5-10.388 5-14l-4.5 2h-4c-9.626 0-5.5-4.625-5.5-12 0-1.488-.924-11-2-11v22.5c-1.23 2.46-4 10.011-4 12.5h1c2.608 0 6.723-3.889 10.5-2l2.5 2Z"/><path fill="#009B75" id="GU2/3" d="M398 198h1c0-3.089 2.615-9.73 4-12.5l2-3.5v-1l-9-3c0 6.453-5 12.057-5 18 .969 0 7 1.147 7 2ZM66 196l-8 2c0-5.299-6-11.124-6-17 2.522 0 4.909-2 8-2 1.38 0 1.413 6.327 2 7.5l4 9.5Z"/><path fill="#C8CBCC" id="ec" d="M359 197h1l1-1c0-2.483 2-4.026 2-6v-1c0-2.049 1.22-10 0-10 0 6.164-4 11.546-4 18Z"/><path fill="#009C75" id="GU1" d="m58 198-4 1c-1.183 0-1.535-3.57-2-4.5-1.708-3.416-4-7.433-4-11.5 1.238 0 3-.423 3-2h1c0 5.876 6 11.701 6 17Z"/><path fill="#97D6F9" id="STR" d="m218 191 1 2v-12c-1.763 0-1 8.343-1 10ZM276 223h5l-2-3.5c-2.195-4.39-.099-24.197-4-32-1.971-3.941-4.758-1.129-7.5-2.5l-1.5-3c0 2.426 1.024 6-2 6l-1 3c2.629 0 8-4.487 8 2 3.175 0 4 13.717 4 17 0 3.912 1 8.813 1 13Z"/><path fill="#009C75" id="GU1" d="m399 198 4 1 6-16-4-1-2 3.5c-1.385 2.77-4 9.411-4 12.5Z"/><path fill="#97D6F9" id="STR" d="M176 223h4c0-4.648 2-10.351 2-16-2.375 0-.161-7 1-7 0-1.774-.273-7 2-7v-1l1-1c0-4.429 6.51 0 8 0l-2-4c0 3.161-2-2.273-2-4l-1.5 2h-5c-3.743 1.871-7.5 32.558-7.5 38Z"/><path fill="#209666" id="AId6a" d="m93 190-3 1 2-2h1v1Z"/><path fill="#1F9766" id="AId6b" d="m93 190 1 1-1-2v1Z"/><path fill="#B3C0DE" id="BST" fill-rule="evenodd" d="M193 207c0 .434-5.185 4.87-6 6.5-2.176 4.351 4.533 9.483 8.5 7.5 8.792-4.396 7.659-14-2.5-14m-12 22 2.5 2H195c5.416 0 6.867-8.183 10.5-10l3.5 2v-9l-1-1-3-11.5-5-5.5-4-3-1-1-1-1c-1.49 0-8-4.429-8 0l-1 1v1c0 1.296-.825 7-2 7 0 1.406.714 7-1 7 0 5.649-2 11.352-2 16 0 2.124 1 4.436 1 6ZM259 207c0 2.715-6.569 4.362-4 9.5 7.882 15.763 26.015-9.5 4-9.5m17 21-3.5 3H261c-5.342 0-6.564-8.032-10.5-10l-2.5 2-1-1v-7l1-2c0-4.727 5-10.388 5-14l2-1 1-1 1-1 1-1 1-1 2-2 1-1h1c2.629 0 8-4.487 8 2l3 12.5c0 1.19-.614 4.5 1 4.5 0 3.912 1 8.813 1 13v5Z"/><path fill="#1F9766" id="AId6b" d="M363 190h1v-1h-1v1Z"/><path fill="#209666" id="AId6a" d="m364 190 2 1c0-1.747-.253-2-2-2v1Z"/><path fill="#8ADA86" id="CLA" d="M94 209h1l1-1 1-1v-8l-1-2v-2l-1-1-1-3-1-1-3 1c0 2.876-5.397 18 4 18ZM361 209h2c8.201 0 4-15.723 4-18h-1l-2-1h-1c0 1.974-2 3.517-2 6l-1 1c0 1.048.473 3-1 3v7l2 2Z"/><path fill="#209766" id="AIp6a" d="m92 211-4 1c-1.183 0-1.535-3.57-2-4.5-2.023-4.045-6-9.831-6-14.5 3.708 0 5.942-2 10-2 0 2.876-5.397 18 4 18l-2 2Z"/><path fill="#8599CC" id="PAL" d="m186 191-1 1 1-1Z"/><path fill="#97D6F9" id="STR" d="m262 191-1 1 1-1Z"/><path fill="#209766" id="AIp6a" d="m363 210 6 3c0-6.927 7-12.804 7-20-3.157 0-5.481-2-9-2 0 2.277 4.201 18-4 18v1Z"/><path fill="#97D6F9" id="STR" d="m195 192 1 1-1-1Z"/><path fill="#219864" id="AIp5" d="m84 215-5 1c0-4.866-7.833-11.166-10-15.5-.56-1.119-.155-4.5-2-4.5v-1c4.908 0 8.486-2 13-2 0 4.669 3.977 10.455 6 14.5.465.93.817 4.5 2 4.5l-4 3Z"/><path fill="#8599CC" id="PAL" d="M185 193c-2.273 0-2 5.226-2 7 1.175 0 2-5.704 2-7ZM271 193c3.175 0 4 13.717 4 17-1.614 0-1-3.31-1-4.5l-3-12.5Z"/><path fill="#219864" id="AIp5" d="M373 215h4c.984 0 12-16.896 12-20l-13-2c0 7.196-7 13.073-7 20l4 2Z"/><path fill="#209666" id="AId6a" d="m95 194 1 1-1-1Z"/><path fill="#97D6F9" id="STR" d="m259 194-1 1 1-1Z"/><path fill="#209865" id="AIp2/3" d="M377 215c0 1.259 8.632 4 10 4 0-4.67 11-13.828 11-21 0-.853-6.031-2-7-2l-2-1c0 3.104-11.016 20-12 20ZM79 216c-3.686 0-6.177 3-10 3 0-5.102-11-14.449-11-21l8-2h1c1.845 0 1.44 3.381 2 4.5 2.167 4.334 10 10.634 10 15.5Z"/><path fill="#97D6F9" id="STR" d="M209 213c2.354 0 6.459-4.02 10.5-2l3.5 2c0-4.999-4-10.685-4-16-1.617 0-2.457 6.522-5.5 5-3.113-1.556-6.853-1.426-10-3l-3.5-3 5 5.5 3 11.5h1ZM257 196l-1 1 1-1Z"/><path fill="#209666" id="AId6a" d="m361 196-1 1 1-1ZM96 197l1 2-1-2Z"/><path fill="#C8CBCC" id="ec" d="m357 209-2 1c0-1.531 2.875-13 4-13v6l-1 2v1c-1.473 0-1 1.952-1 3Z"/><path fill="#209666" id="AId6a" d="M360 197c0 1.048.473 3-1 3v-3h1Z"/><path fill="#219765" id="AIp1" d="M69 219c0 1.638-3.576 2-5 2l-3-5.5c-2.3-4.599-7-11.19-7-16.5l4-1c0 6.551 11 15.898 11 21Z"/><path fill="#97D6F9" id="STR" d="m255 198-2 1 2-1Z"/><path fill="#219765" id="AIp1" d="m387 219 5 3 3-6.5c2.271-4.541 8-11.354 8-16.5l-4-1h-1c0 7.172-11 16.33-11 21Z"/><path fill="#8599CC" id="PAL" d="M183 200c-1.161 0-3.375 7-1 7 1.714 0 1-5.594 1-7Z"/><path fill="#209666" id="AId6a" d="M97 205h2l-2-4v4ZM358 205h1v-2l-1 2Z"/><path fill="#1F9866" id="AIv6a" d="m99 206-2 1v-2h2v1ZM358 206l1 1v-2h-1v1Z"/><path fill="#8AD987" id="CTXsp" d="m97 208 3 1-1-3-2 1v1ZM357 209h4l-2-2-1-1c-1.473 0-1 1.952-1 3Z"/><path fill="#1F9866" id="AIv6a" d="M96 208h1v-1l-1 1Z"/><path fill="#CBCBC7" id="aco" d="M193 207c0 .434-5.185 4.87-6 6.5-2.176 4.351 4.533 9.483 8.5 7.5 8.792-4.396 7.659-14-2.5-14ZM259 207c0 2.715-6.569 4.362-4 9.5 7.882 15.763 26.015-9.5 4-9.5Z"/><path fill="#1F9866" id="AIv6a" d="m96 208-1 1 1-1Z"/><path fill="#A0EE9C" id="EPd" d="M102 229h4l2-4v-2c-1.829 0-6-10.157-6-12l-2-2-3-1h-1l-1 1h-1l-2 2-1 6.5 2 4.5 1 2 1 1h1l1 1 1 1 1 1h1l1 1h1ZM354 229h1l2-1 1-1h1l1-1 1-1 1-1 1-1 1-2 1-1c0-3.526-2-8.954-2-10v-1h-6l-2 1v1l-1 1c0 3.821-5 7.815-5 11l-1 1v1l2 4h4Z"/><path fill="#99D2BD" id="OLF" d="M373 215c-4.383 0-5.437 5-8 5 0-3.526-2-8.954-2-10l6 3 4 2ZM84 215c4.668 0 6.03 7 9 7l-2-4.5 1-6.5-4 1-4 3Z"/><path fill="#FF5547" id="ADP" d="m209 231 2 2c2.443 0 4.833 1.333 7.5 0l3.5-4c0-3.291 2-7.508 2-11l-1-5-3.5-2c-4.041-2.02-8.146 2-10.5 2v18ZM247 231l-1 2-4.5 1c-1.524-.762-6.116-5-7.5-5 0-3.531-1-7.893-1-12v-3l1-1c2.608 0 6.723-3.889 10.5-2l2.5 2v18Z"/><path fill="#C8CBCC" id="ec" d="m355 211-1 1 1-1Z"/><path fill="#E64438" id="HY" d="M209 213v1l-1-1h1ZM248 213l-1 2v-2h1Z"/><path fill="#6ACAB9" id="PIR" d="M117 269h2c0-1.59 5.662-6 7-6 0-8.344 2.578-19.961-7.5-25-4.183-2.092-7.83-4.915-12-7-1.119-.559-4.5-.155-4.5-2h-1l-1-1h-1l-1-1-1-1-1-1h-1l-1-1-1-2c-2.97 0-4.332-7-9-7l-5 1c-3.686 0-6.177 3-10 3 0 1.638-3.576 2-5 2 0 7.475 16.246 25.746 22 31.5 1.881 1.881 6.138 8.5 9 8.5 5.978 0 19.447 8 22 8ZM338 269h1l4.5-3 12-3c.741-.371 5.5-3.892 5.5-1l6.5-7c4.567-2.284 24.5-27.323 24.5-33l-5-3c-1.368 0-10-2.741-10-4h-4c-4.383 0-5.437 5-8 5l-1 1-1 2-1 1-1 1-1 1-1 1h-1l-1 1-2 1h-1c0 2.203-4.189 2.344-5.5 3-4.584 2.292-12.752 6.004-15.5 11.5-1.602 3.205-6.157 10.685-4 15l2 4.5 7 6Z"/><path fill="#E64438" id="HY" d="M229 234h1c0-3.229.699-5 4-5 0-3.531-1-7.893-1-12-2.974 0-4 13.713-4 17ZM226 234h2c0-2.412-1.47-16-4-16 0 3.492-2 7.709-2 11 3.766 0 4 1.59 4 5Z"/><path fill="#99D2BD" id="OLF" d="m365 220-1 1 1-1Z"/><path fill="#FD5446" id="PS" d="M205 239c-2.366 0-5.086 2-9 2-2.854 0-2.448-5-4-5 0-2.554 3-3.688 3-5 5.416 0 6.867-8.183 10.5-10l3.5 2v8l-1 3-1 1v1l-1 1-1 2ZM250 237c.489 0 4.9 4 11 4l3-5c0-2.842-3-3.647-3-5-5.342 0-6.564-8.032-10.5-10l-2.5 2-1 2v6l2 3 1 3Z"/><path fill="#99D2BD" id="OLF" d="m364 221-1 2 1-2Z"/><path fill="#E64438" id="HY" d="m248 223-1 2v-3l1 1Z"/><path fill="#C8CBCC" id="ec" d="M108 225c3.559 0 6.513 7 11 7l-7.5-5-3.5-4v2Z"/><path fill="#97D6F9" id="STR" d="m176 223-1 1 1-1Z"/><path fill="#80CDF8" id="ACB" d="m132 255 3 3c8.407 0 13.762.869 21.5-3 3.499-1.75 13.433-16 17.5-16l1-1c0-1.429 1.288-4 3-4l1-1 2-4c0-1.564-1-3.876-1-6h-4l-1 1c0 6.788-21.807 10-27 10 0 1.473-1.952 1-3 1h-8c0 1.643-3.765 1-5 1h-1c0 2.205-3.251.002-4 1.5-1.184 2.369 0 2.434 0 4.5l1 2 1 1c0 2.885 2 4.697 2 8l1 1v1ZM323 257l-2 1c-11.883 0-12.691.404-23.5-5-1.764-.882-10.745-13-13.5-13l-7-8-1-4v-5h5c0 8.171 16.135 10 22 10l1 1h5l2 1h8c0 1.643 3.765 1 5 1h2c0 1.552 5 1.146 5 4l-1 1-1 1v1l-1 1-1 3-1 2v1l-1 1v3l-1 1-1 2Z"/><path fill="#C8CBCC" id="ec" d="m349 223-1 1 1-1Z"/><path fill="#99D2BD" id="OLF" d="m363 223-1 1 1-1ZM94 224l1 1-1-1Z"/><path fill="#C8CBCC" id="ec" d="M347 225h1v-1l-1 1Z"/><path fill="#99D2BD" id="OLF" d="m362 224-1 1 1-1ZM96 225l1 1-1-1Z"/><path fill="#8AD987" id="CTXsp" d="M119 232c0 1.624 2 2.75 2 5-6.028 0-9.136-8-15-8l2-4c3.559 0 6.513 7 11 7Z"/><path fill="#C8CBCC" id="ec" d="m347 225-1 1 1-1Z"/><path fill="#8AD987" id="CTXsp" d="m336 233-1 4c5.923 0 9.43-8 15-8l-2-4h-1l-1 1-1 1-1 1-1 1c0 2.109-2.535 2-4 2l-1 1-2 1Z"/><path fill="#99D2BD" id="OLF" d="m361 225-1 1 1-1Z"/><path fill="#C8CBCC" id="ec" d="m346 226-1 1 1-1Z"/><path fill="#99D2BD" id="OLF" d="m360 226-1 1 1-1ZM98 227l1 1-1-1Z"/><path fill="#C8CBCC" id="ec" d="m345 227-1 1 1-1Z"/><path fill="#99D2BD" id="OLF" d="m358 227-1 1 1-1ZM100 228l1 1-1-1Z"/><path fill="#E64438" id="HY" d="m264 236 7.5 1c1.19-.595 3.347-1.826 5-1l3.5 2-3-6-1-4-3.5 3H261c0 1.353 3 2.158 3 5Z"/><path fill="#C8CBCC" id="ec" d="m344 228-1 1 1-1Z"/><path fill="#99D2BD" id="OLF" d="m357 228-2 1 2-1ZM126 263h1l6-4-1-4v-1l-1-1c0-3.303-2-5.115-2-8l-1-1-1-2c-2.734 0-2.909-5-6-5-6.028 0-9.136-8-15-8h-4c0 1.845 3.381 1.441 4.5 2 4.17 2.085 7.817 4.908 12 7 10.078 5.039 7.5 16.656 7.5 25Z"/><path fill="#E64438" id="HY" d="M192 236c-5.21 0-9.853 1-15 1l1-3 1-1 2-4 2.5 2H195c0 1.312-3 2.446-3 5Z"/><path fill="#FF5346" id="MPO" d="M213 265c-3.786 0-7.157 5-12 5 0-3.265-3-4.067-3-7v-2c0-6.381 6-11.73 6-19 1.473 0 1-1.952 1-3l1-2 1-1v-1l1-1 3-1c2.443 0 4.833 1.333 7.5 0l3.5-4c3.766 0 4 1.59 4 5 0 2.389-1 5.987-1 9-3.986 0-3.972 5-6 5 0-2.268-5.85-2.825-7.5-2-4.49 2.245-11.5 9.417-11.5 14.5 0 10.492 12.204-.5 15-.5l-2 5ZM243 265c3.512 0 6.841 5 12 5l4-7v-1c0-6.262-7-12.152-7-19l-2-6-1-3-3-1-4.5 1c-1.524-.762-6.116-5-7.5-5-3.301 0-4 1.771-4 5 0 2.389 1 5.987 1 9 2.666 0 6 2.104 6 5 2.099 0 4.383-3.558 7.5-2 4.059 2.029 18.198 14.401 9 19-5.473 2.737-8.598-6-12.5-6l2 6Z"/><path fill="#C8CBCC" id="ec" d="m343 229-4 2c1.465 0 4 .109 4-2Z"/><path fill="#99D2BD" id="OLF" d="M329 263h2l-2-4.5c-2.157-4.315 2.398-11.795 4-15 2.748-5.496 10.916-9.208 15.5-11.5 1.311-.656 5.5-.797 5.5-3h-4c-5.57 0-9.077 8-15 8l-4 3-1 1-1 1v1l-1 1-1 3-1 2v1l-1 1v3l-1 1-1 2 1 2 5 4Z"/><path fill="#E64438" id="HY" d="m211 233-3 1 1-3 2 2ZM246 233l3 1-2-3-1 2Z"/><path fill="#C8CBCC" id="ec" d="M337 232h1l1-1-2 1Z"/><path fill="#97D6F9" id="STR" d="M121 237c3.091 0 3.266 5 6 5 0-2.066-1.184-2.131 0-4.5.749-1.498 4 .705 4-1.5-4.236 0-8.12-4-12-4 0 1.624 2 2.75 2 5ZM280 238l4 2-7-8 3 6ZM338 232l-2 1 1-1h1ZM179 233l-1 1 1-1ZM303 233l1 1-1-1ZM335 237l-4 3c0-2.854-5-2.448-5-4l10-3-1 4ZM148 234c-1.048 0-3-.473-3 1 1.048 0 3 .473 3-1ZM177 237l-2 1c0-1.429 1.288-4 3-4l-1 3Z"/><path fill="#E64438" id="HY" d="m208 234-1 1 1-1Z"/><path fill="#FF5445" id="MEPO" d="m226 248 4 1c0-1.564 1-3.876 1-6 0-3.013-1-6.611-1-9h-4c0 2.389-1 5.987-1 9l1 5Z"/><path fill="#97D6F9" id="STR" d="m309 234 2 1-2-1ZM137 235c-1.235 0-5-.643-5 1 1.235 0 5 .643 5-1ZM319 235c1.235 0 5-.643 5 1-1.235 0-5 .643-5-1Z"/><path fill="#A2B1D7" id="SI" d="M182 263c-2.289 0-11.572 6.356-10 9.5l4 4.5c-10.386 0-21.685 4.907-31.5 0-2.544-1.272-17.29-14-17.5-14l6-4 2-1c8.407 0 13.762.869 21.5-3 3.499-1.75 13.433-16 17.5-16l1-1 2-1c5.147 0 9.79-1 15-1 1.552 0 1.146 5 4 5v2c-1.233 0-2.379 7.258-3 8.5l-7 8.5-4 3Z"/><path fill="#E64438" id="HY" d="m207 236-1 1 1-1Z"/><path fill="#A2B1D7" id="SI" d="m329 263-4.5 5c-3.516 3.516-7.783 6.892-12 9-9.838 4.919-21.172 0-31.5 0 0-2.477 2.011-2.522 3-4.5 1.786-3.573-7.341-9.5-10-9.5l-4-3c0-3.29-9-10.791-9-17v-2l3-5 7.5 1c1.19-.595 3.347-1.826 5-1l3.5 2 4 2c2.755 0 11.736 12.118 13.5 13 10.809 5.404 11.617 5 23.5 5l3 1 5 4Z"/><path fill="#E64438" id="HY" d="m206 237-1 2 1-2ZM252 243h9v-2c-6.1 0-10.511-4-11-4l2 6Z"/><path fill="#97D6F9" id="STR" d="m175 238-1 1 1-1Z"/><path fill="#E64438" id="HY" d="m204 242-8 1v-2c3.914 0 6.634-2 9-2 0 1.048.473 3-1 3Z"/><path fill="#97D6F9" id="STR" d="m331 240-1 1 1-1ZM330 241l-1 1 1-1Z"/><path fill="#F2473B" id="LPO" d="m198 261-2 2c-2.979 0-6.23-2-10-2v-1l7-8.5c.621-1.242 1.767-8.5 3-8.5l8-1c0 7.27-6 12.619-6 19ZM259 262l1 1c3.119 0 6.279-2 10-2v-1c0-3.29-9-10.791-9-17h-9c0 6.848 7 12.738 7 19Z"/><path fill="#FE5446" id="AVPV" d="M210 275h2c1.974 0 3.517-2 6-2 0-2.273 5.226-2 7-2l2-2v-10c0-3.642-1-8.002-1-11l-1-5c-3.986 0-3.972 5-6 5 0 5.519-4 8.628-4 12l-2 5c0 3.641-3 5.885-3 10ZM245 275h1c0-3.774-3-6.897-3-10l-2-6c0-3.299-4-6.485-4-11 0-2.896-3.334-5-6-5 0 2.124-1 4.436-1 6v8c0 1.406.714 7-1 7l1 5 2 2c5.043 0 8.415 4 13 4Z"/><path fill="#97D6F9" id="STR" d="m329 243-1 1 1-1ZM128 244l1 1-1-1Z"/><path fill="#FE5447" id="AVP" d="M219 248c0 5.519-4 8.628-4 12-2.796 0-15 10.992-15 .5 0-5.083 7.01-12.255 11.5-14.5 1.65-.825 7.5-.268 7.5 2ZM237 248c2.099 0 4.383-3.558 7.5-2 4.059 2.029 18.198 14.401 9 19-5.473 2.737-8.598-6-12.5-6 0-3.299-4-6.485-4-11Z"/><path fill="#97D6F9" id="STR" d="m327 247-1 2 1-2Z"/><path fill="#FD5447" id="OV" d="m229 258-2 1c0-3.642-1-8.002-1-11l4 1v8l-1 1Z"/><path fill="#97D6F9" id="STR" d="m326 250-1 1 1-1ZM131 253l1 1-1-1ZM325 254l-1 1 1-1ZM135 258l-2 1-1-4 3 3ZM324 255l-1 2 1-2Z"/><path fill="#E64438" id="HY" d="M229 258v6c1.714 0 1-5.594 1-7l-1 1Z"/><path fill="#97D6F9" id="STR" d="m321 258 3 1-1-2-2 1Z"/><path fill="#A8A9AA" id="V3" d="M227 269c0 2.373 2.284 0 3 0l-1-5v-6l-2 1v10Z"/><path fill="#E64438" id="HY" d="m182 263 2 2 2-4v-1l-4 3ZM273 263h1l-4-3v1c0 1.577 1.762 2 3 2Z"/><path fill="#CAC8C7" id="lot" d="m117 274-1 1c-5.493 0-21-8.083-21-14 5.978 0 19.447 8 22 8v5Z"/><path fill="#96A6D3" id="NDB" d="m197 278-1 1c-3.865 0-13-.434-13-5l1-9 2-4c3.77 0 7.021 2 10 2h2c0 2.933 3 3.735 3 7 0 3.698-4 6.214-4 8Z"/><path fill="#CBCCCB" id="mfb" d="M196 263h2v-2l-2 2Z"/><path fill="#96A6D3" id="NDB" d="m274 275-7.5 4-7.5-1c0-2.584-4-4.518-4-8l4-7h1c3.119 0 6.279-2 10-2 0 1.577 1.762 2 3 2 0 4.107 1 8.469 1 12Z"/><path fill="#CAC8C7" id="lot" d="m339 274 1 1c4.316 0 21-8.311 21-13 0-2.892-4.759.629-5.5 1l-12 3-4.5 3v5Z"/><path fill="#CBCCCB" id="mfb" d="M259 263h1l-1-1v1Z"/><path fill="#7FCCF7" id="OT" d="M120 278c0 10.031 20.673 18.086 28.5 22 4.919 2.459 18.061-2.031 22-4 4.288-2.144 16.5-2.25 16.5-10 0-4.036-3.774-9-8-9h-3c-10.386 0-21.685 4.907-31.5 0-2.544-1.272-17.29-14-17.5-14h-1c-1.338 0-7 4.41-7 6v8l1 1Z"/><path fill="#A2B1D8" id="MA" d="M176 277h3l4-3 1-9-2-2c-2.289 0-11.572 6.356-10 9.5l4 4.5ZM278 277h3c0-2.477 2.011-2.522 3-4.5 1.786-3.573-7.341-9.5-10-9.5h-1c0 4.107 1 8.469 1 12l4 2Z"/><path fill="#7FCCF7" id="OT" d="M337 277c0 4.43-5.583 10.042-9.5 12l-11 8c-8.97 4.485-21.242 3.379-30-1-4.165-2.083-16.5-1.535-16.5-9 0-4.362 1.521-10 8-10h3c10.328 0 21.662 4.919 31.5 0 4.217-2.108 8.484-5.484 12-9l4.5-5h2l7 6v2l-1 6Z"/><path fill="#E64438" id="HY" d="M210 275c-3.862 0-8.642 3-13 3 0-1.786 4-4.302 4-8 4.843 0 8.214-5 12-5 0 3.641-3 5.885-3 10ZM246 275c3.888 0 8.76 3 13 3 0-2.584-4-4.518-4-8-5.159 0-8.488-5-12-5 0 3.103 3 6.226 3 10Z"/><path fill="#99D2BD" id="OLF" d="m119 270-2 2v-3h2v1ZM338 271h1v-2h-1v2Z"/><path fill="#97D6F9" id="STR" d="m117 275 2 1v-6l-2 2v3Z"/><path fill="#CAC7CB" id="fiber tracts" d="M229 272c0 2.373-2.284 0-3 0l-8 1c0-2.273 5.226-2 7-2l4 1ZM245 275l4 4.5c4.116 8.232 4.857 8.5-6 8.5 0-.746 5.062-1.625 6-3.5 3.471-6.941-15.585-12.5-20-12.5 0-1.473 1.952-1 3-1 5.043 0 8.415 4 13 4Z"/><path fill="#97D6F9" id="STR" d="m339 275-2 2 1-6h1v4Z"/><path fill="#CBCACC" id="och" d="m209 279-1 6.5c1.74 3.48 29.616 2.5 35 2.5 0-.746 5.062-1.625 6-3.5 3.471-6.941-15.585-12.5-20-12.5 0 2.373-2.284 0-3 0l-8 1c0 1.504-5.699 4-7 4 0 1.747-.253 2-2 2Z"/><path fill="#CAC7CB" id="fiber tracts" d="m212 275-1 2c1.301 0 7-2.496 7-4-2.483 0-4.026 2-6 2Z"/><path fill="#99D2BD" id="OLF" d="M116 275h1v-1l-1 1Z"/><path fill="#8599CC" id="PAL" d="M196 279c0 1.377-7.483 7-9 7 0-4.036-3.774-9-8-9l4-3c0 4.566 9.135 5 13 5Z"/><path fill="#99D2BD" id="OLF" d="M339 275h1l-1-1v1Z"/><path fill="#8599CC" id="PAL" d="M259 278c0 .719 9.301 9 11 9 0-4.362 1.521-10 8-10l-4-2-7.5 4-7.5-1Z"/><path fill="#97D6F9" id="STR" d="m119 277 1 1-1-1Z"/><path fill="#CAC7CB" id="fiber tracts" d="M211 277c-1.747 0-2 .253-2 2 1.747 0 2-.253 2-2Z"/><path fill="#8599CC" id="PAL" d="m197 278-1 1 1-1Z"/><path fill="#CAC7CB" id="fiber tracts" d="M209 279c-1.772 0-6.199 7.15-4.5 8 7.585 3.793 20.48 2 29.5 2 1.574 0 9 .751 9-1-5.384 0-33.26.98-35-2.5l1-6.5Z"/></svg>