<svg xmlns="http://www.w3.org/2000/svg" viewBox="0 0 456 320"><path fill="#1E9C59" id="MOs1" d="M221 59h1c1.947 0 2.636-3 5-3l-8-9.5c-6.664-13.329-27.741-6.5-40-6.5v6c11.408 0 30.776-8.948 38 5.5 1.739 3.479 4 3.152 4 7.5ZM230 56l5 3c0-3.541 2.52-6.02 5-8.5 13.228-13.228 23.34-4.5 38-4.5v-5c0-3.508-10.382-.94-12.5-2-11.64-5.82-27.417 3.334-32.5 13.5-.614 1.228-3 1.276-3 3.5Z"/><path fill="#1E9D5A" id="MOp1" d="M125 60v6c4.583 0 10.474-4.987 14.5-7 3.926-1.963 36.198-13 39.5-13v-6c-7.633 0-34.018 11.26-41.5 15-1.775.888-12.5 3.093-12.5 5ZM332 60v7c-2.945 0-7.797-4.648-10.5-6-7.857-3.928-35.042-14-43.5-14v-6c8.356 0 31.033 8.267 38.5 12 4.061 2.03 10.954 7 15.5 7Z"/><path fill="#1E9D58" id="MOs2/3" fill-rule="evenodd" d="M197 45c0 1.93 1.93 0 0 0m18 18h1l5-4c0-4.348-2.261-4.021-4-7.5-7.224-14.448-26.592-5.5-38-5.5 0 5.672-2 10.95-2 17l8.5-5c6.088-3.044 29.5-8.267 29.5 5Z"/><path fill="#1E9D58" id="MOs2/3" d="M240 63h1c0-2.957 2.14-4.82 4.5-6 7.101-3.55 16.827-3.586 24 0 3.156 1.578 5.742 5 9.5 5 0-5.886-1-10.34-1-15v-1c-14.66 0-24.772-8.728-38 4.5-2.48 2.48-5 4.959-5 8.5 1.061 0 5 2.57 5 4Z"/><path fill="#1F9C58" id="MOp2/3" d="M197 45c0 1.93 1.93 0 0 0ZM123 83c1.203 0 0 5.226 0 7l14.5-9c10.593-5.297 22.453-8.727 33-14 2.337-1.168 3.673-4 6.5-4 0-6.05 2-11.328 2-17-3.302 0-35.574 11.037-39.5 13-4.026 2.013-9.917 7-14.5 7l-1 1c0 6.083-1 11.12-1 16ZM333 83v6c-4.252 0-6.941-4.22-10.5-6-9.452-4.726-19.575-8.287-29-13L280 63l-1-1c0-5.886-1-10.34-1-15 8.458 0 35.643 10.072 43.5 14 2.703 1.352 7.555 6 10.5 6l1 1c-1.028 0-1.44 1.62-1 2.5 1.554 3.107 1 9.125 1 12.5Z"/><path fill="#1F9D58" id="MOs5" d="M201 75c-3.089 0-7.477-4.011-11.5-2-4.239 2.12-9.631 8-14.5 8 0-6.646 2-11.354 2-18l8.5-5c6.088-3.044 29.5-8.267 29.5 5-3.482 0-12.179 12-14 12ZM255 75c3.208 0 7.555-3.973 11.5-2 4.419 2.21 10.434 8 15.5 8 0-5.62-2-13.086-2-18l-1-1c-3.758 0-6.344-3.422-9.5-5-7.173-3.586-16.899-3.55-24 0-2.36 1.18-4.5 3.043-4.5 6 2.339 0 14 9.169 14 12Z"/><path fill="#3EA665" id="ACAd1" d="M222 87h12c0-9.22 1-19.46 1-28l-5-3c-.488 0-3 5.5-3 0-2.364 0-3.053 3-5 3v28Z"/><path fill="#40A565" id="ACAd2/3" d="m222 87-5 1c0-8.274-1-17.385-1-25l5-4h1v28ZM234 87l5 1c0-8.418 1-17.172 1-25 0-1.43-3.939-4-5-4 0 8.54-1 18.78-1 28Z"/><path fill="#197E64" id="SSp-ul1" d="m102 72 4 4 18-9 1-1v-6c-2.827 0-23 10.787-23 12ZM354 72l-3 4c-6.263 0-11.306-8-18-8l-1-1v-7c2.442 0 22 10.978 22 12Z"/><path fill="#1E9C5A" id="MOp5" d="M123 105h1c0-3.577 9.315-4.908 11.5-6 9.424-4.712 19.714-7.357 29-12l10.5-6c0-6.646 2-11.354 2-18-2.827 0-4.163 2.832-6.5 4-10.547 5.273-22.407 8.703-33 14L123 90v1c0 1.574.751 9-1 9l1 5Z"/><path fill="#3EA566" id="ACAd5" d="M203 95h1c1.493 0 9.091-7 13-7 0-8.274-1-17.385-1-25h-1c-3.482 0-12.179 12-14 12v1l2 4.5V95ZM239 88c5.188 0 9.586 7 14 7 0-6.773 2-13.004 2-19v-1c0-2.831-11.661-12-14-12h-1c0 7.828-1 16.582-1 25Z"/><path fill="#1E9C5A" id="MOp5" d="M333 102v3c-2.755 0-9.788-5.644-12.5-7-9.182-4.591-19.876-6.438-29-11l-9.5-5v-1c0-5.62-2-13.086-2-18l13.5 7c9.425 4.713 19.548 8.274 29 13 3.559 1.78 6.248 6 10.5 6v2c0 3.65 1 7.046 1 10l-1 1Z"/><path fill="#1E9D5A" id="MOp1" d="m125 66-1 1 1-1Z"/><path fill="#197F61" id="SSp-ul2/3" d="M123 83c-3.974 0-6.315 4-10 4-1.549 0-7-8.454-7-10v-1l18-9c0 6.083-1 11.12-1 16ZM343 88h1c0-3.542 7-8.425 7-11v-1c-6.263 0-11.306-8-18-8-1.028 0-1.44 1.62-1 2.5 1.554 3.107 1 9.125 1 12.5 2.108 0 10 2.78 10 5Z"/><path fill="#187E61" id="SSp-m1" d="m59 141 5 1c0-14.488 16.69-49.095 28.5-55 4.511-2.256 8.215-10 13.5-10v-1l-4-4c-5.162 0-10.315 9.407-13.5 11C76.81 88.845 59 126.034 59 141ZM392 143h1l4-2c0-17.78-13.394-42.894-25.5-55-3.372-3.371-13.566-14-17.5-14l-3 4v1c4.465 0 9.376 8.438 12.5 10 14.291 7.146 28.5 40.838 28.5 56Z"/><path fill="#1D9C5A" id="MOs6a" d="m180 101-6 1c0-7.236 1-15.525 1-21 4.869 0 10.261-5.88 14.5-8 4.023-2.011 8.411 2 11.5 2v1c-3.287 0-12 18.74-12 23h-1c-1.775 0-8 .07-8 2ZM268 99c5.407 0 9.279 3 14 3 1.263 0 1.57-5.36 1-6.5-1.491-2.983-1-8.523-1-13.5v-1c-5.066 0-11.081-5.79-15.5-8-3.945-1.973-8.292 2-11.5 2v1c3.628 0 13 19.626 13 23Z"/><path fill="#3FA664" id="ACAd6a" d="M189 99c2.813 0 3.461 4 5 4 1.469 0 9-5.845 9-8V80.5l-2-4.5c-3.287 0-12 18.74-12 23ZM265 101l-3 2-9-8c0-6.773 2-13.004 2-19 3.628 0 13 19.626 13 23-2.003 0-3-.293-3 2Z"/><path fill="#1A7E64" id="SSp-m2/3" d="M73 145h1c0-13.121 13.276-36.776 22-45.5 4.29-4.29 11.065-11.5 17-11.5v-1c-1.549 0-7-8.454-7-10-5.285 0-8.989 7.744-13.5 10C80.69 92.905 64 127.512 64 142v1l9 2ZM392 143c-3.157 0-5.481 2-9 2 0-12.356-18.284-45.392-27.5-50-3.562-1.78-7.385-7-11.5-7 0-3.542 7-8.425 7-11 4.465 0 9.376 8.438 12.5 10 14.291 7.146 28.5 40.838 28.5 56Z"/><path fill="#1F9B5A" id="MOp6a" d="M131 125c-2.364 0-3.053 3-5 3 0-4.457-1.095-9.691-3-13.5-1.032-2.063 1-6.938 1-9.5 0-3.577 9.315-4.908 11.5-6 9.424-4.712 19.714-7.357 29-12l10.5-6c0 5.475-1 13.764-1 21v1c-5.456 0-10.869 4.684-15.5 7-1.678.839-7.5-.11-7.5 3-2.156 0-14 5.838-14 8-1.417 0-6 2.383-6 4ZM333 105c0 8.381-3 15.435-3 23l-8.5-7c-7.402-3.701-32.535-18-39.5-18v-1c1.263 0 1.57-5.36 1-6.5-1.491-2.983-1-8.523-1-13.5l9.5 5c9.124 4.562 19.818 6.409 29 11 2.712 1.356 9.745 7 12.5 7Z"/><path fill="#1A7F63" id="SSp-ul4" d="m123 91-6 3-4-6v-1c3.685 0 6.026-4 10-4 1.203 0 0 5.226 0 7v1ZM339 94h1l3-6c0-2.22-7.892-5-10-5v8l6 3Z"/><path fill="#40A664" id="ACAv1" d="M229 116c2.813 0 3.461 4 5 4V87h-12v34l5-5c0-3.15 2-3.446 2 0Z"/><path fill="#3FA566" id="ACAv2/3" d="M218 125h2l2-4V87l-5 1 1 37ZM236 124l2 1c0-11.611 1-24.729 1-37l-5-1v33l2 4Z"/><path fill="#1B7F62" id="SSp-m4" d="M74 145c0 .886 5.824 3 7 3 0-11.385 15.141-39.821 25.5-45 3.025-1.513 5.431-8 10.5-8v-1l-4-6c-5.935 0-12.71 7.21-17 11.5-8.724 8.724-22 32.379-22 45.5Z"/><path fill="#3EA666" id="ACAv5" d="M209 122c0 1.733 9 5.528 9 3l-1-37c-3.909 0-11.507 7-13 7l1 16.5 4 10.5ZM247 122c0 2.39-9 5.14-9 3 0-11.611 1-24.729 1-37 5.188 0 9.586 7 14 7 0 5.257.217 13.066-2 17.5l-4 9.5Z"/><path fill="#1B7F62" id="SSp-m4" d="m383 146-7 2c-1.494 0-1.416-5.916-2.5-7-.89-.89-8.889-21.278-10.5-24.5L346.5 99l-6.5-5 3-6h1c4.115 0 7.938 5.22 11.5 7 9.216 4.608 27.5 37.644 27.5 50v1Z"/><path fill="#187E62" id="SSp-ul5" d="m117 95 5 5c1.751 0 1-7.426 1-9l-6 3v1ZM339 94c0 1.18-3.441 7-5 7 0-2.954-1-6.35-1-10l6 3Z"/><path fill="#1B7E63" id="SSp-m5" d="m365 165 7 1c1.026 0 1-4.357 1-6 0-1.561-1.618-11 3-11v-1c-1.494 0-1.416-5.916-2.5-7-.89-.89-8.889-21.278-10.5-24.5L346.5 99l-6.5-5h-1c0 1.18-3.441 7-5 7l-1 1v3c3.999 0 16.027 10.554 18 14.5l6 8c5.557 11.114 8 24.12 8 37.5ZM84 166c0-1.186 1-1.186 1 0l7-1c0-17.574 3.814-29.128 11-43.5l5-5c1.35-2.699 12.174-11.5 15-11.5l-1-5-5-5c-5.069 0-7.475 6.487-10.5 8-10.359 5.179-25.5 33.615-25.5 45v1c4.362 0 3 7.988 3 12 0 1.041-2.36 5 0 5Z"/><path fill="#40A564" id="ACAv6a" d="m207 121 2 1-4-10.5-1-16.5h-1c0 2.155-7.531 8-9 8v1l3 3.5c1.488 2.975 8 8.221 8 11.5l2 2ZM250 121l-3 1 4-9.5c2.217-4.434 2-12.243 2-17.5l9 8v1c0 3.29-5 5.518-5 9-1.747 0-2 .253-2 2-2.098 0-3 1.939-3 4l-1 1-1 1Z"/><path fill="#1E9C58" id="MOs6b" d="m188 100-8 1c0-1.93 6.225-2 8-2v1Z"/><path fill="#3FA466" id="ACAd6b" d="M193 104h1v-1c-1.539 0-2.187-4-5-4h-1v1c1.562 0 5 2.189 5 4ZM268 100l-3 1c0-2.293.997-2 3-2v1Z"/><path fill="#1E9C58" id="MOs6b" d="M282 102v1l-14-3v-1c5.407 0 9.279 3 14 3Z"/><path fill="#CACCC7" id="cing" d="m205 119 2 2c-9.652 0-12.781-13.141-20.5-17-1.956-.978-4.077 1-5.5 1-4.514 0-8.001 4-12 4l-2 1h-5l12-6 6-3 8-1c1.562 0 5 2.189 5 4 0 2.805 8.457 15 12 15ZM252 119l-1 1c2.72 0 3.553-2 6-2l1-1 1-1 1-1 1-1 1-1c0-8.289 8.965-8 14-8 4.503 0 7.736 4 12 4 1.819 0 4.591 1 7 1 0-2.981-13-3.799-13-7l-14-3-3 1c0 1.238-.423 3-2 3 0 1.955-3.574 9-6 9 0 1.747-.253 2-2 2 0 1.429-1.288 4-3 4Z"/><path fill="#1E9C58" id="MOs6b" d="M174 103v1l6-3-6 1v1Z"/><path fill="#3FA466" id="ACAd6b" d="M262 104h1c1.577 0 2-1.762 2-3l-3 2v1Z"/><path fill="#187E62" id="SSp-ul5" d="m334 101-1 1 1-1Z"/><path fill="#1D9D5A" id="MOp6b" d="m162 110-11 3c0-3.11 5.822-2.161 7.5-3 4.631-2.316 10.044-7 15.5-7v1l-12 6ZM330 129v1l-8.5-7c-7.74-3.87-17.453-13-26.5-13 0-2.981-13-3.799-13-7 6.965 0 32.098 14.299 39.5 18l8.5 7v1Z"/><path fill="#C9C7C9" id="ccb" d="M220 125c2.16 0 4.167 2 7 2 0 .856-11.717.891-13.5 0l-12-6-12-12-8.5-4c1.423 0 3.544-1.978 5.5-1 7.719 3.859 10.848 17 20.5 17l2 1c0 1.733 9 5.528 9 3h2Z"/><path fill="#40A465" id="ACAv6b" d="m194 104 3 3.5c1.488 2.975 8 8.221 8 11.5-3.543 0-12-12.195-12-15h1ZM263 104c0 1.955-3.574 9-6 9 0-3.482 5-5.71 5-9h1Z"/><path fill="#C9C7C9" id="ccb" d="M276 105c-5.035 0-14-.289-14 8l8.5-6c1.114-.557 5.5-.41 5.5-2Z"/><path fill="#187D61" id="SSp-m6a" d="M108 163c-5.781 0-9.994 2-16 2 0-17.574 3.814-29.128 11-43.5l5-5c1.35-2.699 12.174-11.5 15-11.5h1c0 2.562-2.032 7.437-1 9.5 1.905 3.809 3 9.043 3 13.5v1c-1.901 0-5 4.332-5 6-5.117 0-13 22.634-13 28Z"/><path fill="#CCC7C9" id="ccg" d="M110 171h2c0-16.171 8.986-34.743 23.5-42l14-6h4c3.122-1.561 22.219-3.89 26-2l6 2 4.5 4c2.005 0 20 11.708 20 13l2.5 3c3.155 1.578 6.763 2.382 10 4 3.14 1.57 4.013-3 6-3 .997 0 1.868 4.566 5 3 2.753-1.377 9.612-6 12.5-6l1-1 1-1c0-1.834 16.995-12 19-12l2.5-3 8-3c3.777-1.888 18.687-.656 22 1 5.265 2.633 14.364 3.682 21 7 14.746 7.373 24.5 26.371 24.5 42l2-1v-4c-1.434 0-2-6.448-2-8v-1c-1.612 0-3.243-8.987-4-10.5-2.489-4.978-12.452-16.976-17.5-19.5-9.152-4.576-17.994-9.497-27-14-1.499-.749-8.5-1.808-8.5-4-4.264 0-7.497-4-12-4 0 1.59-4.386 1.443-5.5 2l-8.5 6-1 1-1 1-1 1-1 1-1 1c0 4.371-15.588 9-19.5 9-1.115 0-7.5 2.541-7.5 0h-3c0 .856-11.717.891-13.5 0l-12-6-12-12-8.5-4c-4.514 0-8.001 4-12 4l-2 1c0 1.55-6.228 2.364-7.5 3l-21 10c-3.761 1.881-21.08 20-21.5 20l-1 2-1 2-1 2-1 2c0 1.145.579 4-1 4 0 1.048.473 3-1 3v2c0 1.145.579 4-1 4v7Z"/><path fill="#187D61" id="SSp-m6a" d="m349 163 16 2c0-13.38-2.443-26.386-8-37.5l-6-8c-1.973-3.946-14.001-14.5-18-14.5 0 8.381-3 15.435-3 23v1l7 7.5c4.374 8.749 12 16.032 12 26.5Z"/><path fill="#C9C9CA" id="scwm" d="m169 109-2 1 2-1ZM330 130l8 9.5c2.762 5.524 7 10.849 7 17.5-1.612 0-3.243-8.987-4-10.5-2.489-4.978-12.452-16.976-17.5-19.5-9.152-4.576-17.994-9.497-27-14-1.499-.749-8.5-1.808-8.5-4 1.819 0 4.591 1 7 1 9.047 0 18.76 9.13 26.5 13l8.5 7ZM121 135l-4 8c.42 0 17.739-18.119 21.5-20l21-10c1.272-.636 7.5-1.45 7.5-3h-5l-11 3c0 2.721-11.589 8-14 8 0 2.556-4.016 4-6 4 0 2.618-4 3.093-4 5 0 1.108-4.748 5-6 5Z"/><path fill="#1D9D5A" id="MOp6b" d="M151 113c-2.156 0-14 5.838-14 8 2.411 0 14-5.279 14-8Z"/><path fill="#40A465" id="ACAv6b" d="M257 113c-1.747 0-2 .253-2 2 1.747 0 2-.253 2-2Z"/><path fill="#C9C7C9" id="ccb" d="m262 113-1 1 1-1ZM261 114l-1 1 1-1Z"/><path fill="#40A465" id="ACAv6b" d="M255 115c-2.098 0-3 1.939-3 4 1.712 0 3-2.571 3-4Z"/><path fill="#C9C7C9" id="ccb" d="m260 115-1 1 1-1Z"/><path fill="#7ED04B" id="IG" d="M229 127h1c1.738 0 6-.686 6-3l-2-4c-1.539 0-2.187-4-5-4 0 1.93-1.161 0-2 0l-5 5-2 4c2.16 0 4.167 2 7 2 0-1.919 2-2.488 2 0Z"/><path fill="#C9C7C9" id="ccb" d="m259 116-1 1 1-1ZM258 117l-1 1 1-1ZM236 124l2 1c0 2.14 9-.61 9-3l3-1 1-1c2.72 0 3.553-2 6-2 0 4.371-15.588 9-19.5 9-1.115 0-7.5 2.541-7.5 0 1.738 0 6-.686 6-3Z"/><path fill="#CACCC7" id="cing" d="m251 120-1 1 1-1Z"/><path fill="#1D9D5A" id="MOp6b" d="M137 121c-1.417 0-6 2.383-6 4 1.984 0 6-1.444 6-4Z"/><path fill="#98D5F9" id="CP" d="m133 231 5 3c7.48 0 15.438 2.531 22.5-1 12.686-6.343 7.678-22.839 22-30 2.139-1.07 5.078-4 7.5-4l1-1v-1l1-1 1-13v-2l1-1v-4c0-1.048-.473-3 1-3v-5l1-1v-1c0-1.048-.473-3 1-3v-19.5c-1.504-3.009-4-8.065-4-11.5-1.803 0-3-3.592-3-5l-4.5-4-6-2c-3.781-1.89-22.878.439-26 2h-4l-14 6c-14.514 7.257-23.5 25.829-23.5 42 0 12.957 7 23.184 7 36v1l1 1 1 4v2l1 1v1l1 1c0 2.83 4 4.54 4 7l1 1 1 1v1l3 3h1ZM323 232l-4 2c-7.708 0-16.235 2.633-23.5-1l-4-4c-3.936-1.968-3.87-9.239-5.5-12.5-3.299-6.599-10.935-17.5-20-17.5l-1-2-2-10v-9l-1-2v-3l-1-2v-4c0-5.656-5.151-16.198-2-22.5 1.313-2.627 5-9.792 5-12.5l3-5 2.5-3 8-3c3.777-1.888 18.687-.656 22 1 5.265 2.633 14.364 3.682 21 7 14.746 7.373 24.5 26.371 24.5 42 0 12.822-8 24.102-8 37v2c-1.473 0-1 1.952-1 3l-1 1-1 4-1 1v1l-1 1-1 1-1 2-1 1v1l-1 1-3 3-1 1-1 1Z"/><path fill="#1D9D5A" id="MOp6b" d="m126 129 1 1c0-1.907 4-2.382 4-5-2.364 0-3.053 3-5 3v1Z"/><path fill="#C9C7C9" id="ccb" d="M227 127h2c0-2.488-2-1.919-2 0Z"/><path fill="#AAA8A9" id="SEZ" d="M210 140v1c-3.391 0-9.163-6.831-11.5-8-1.233-.617-5.5-1.84-5.5-1-1.803 0-3-3.592-3-5 2.005 0 20 11.708 20 13ZM264 132c-5.238 0-10.384 7-16 7 0-1.834 16.995-12 19-12l-3 5Z"/><path fill="#188064" id="SSp-m6b" d="M127 130c0 1.108-4.748 5-6 5 0-1.668 3.099-6 5-6l1 1ZM347 163h2c0-10.468-7.626-17.751-12-26.5l-7-7.5v1l8 9.5c2.762 5.524 7 10.849 7 17.5v1c.672 0 2 4.329 2 5Z"/><path fill="#A8AAAA" id="VL" d="M197 163h1l1-2c0-1.747.253-2 2-2 0-6.803 9-10.353 9-18-3.391 0-9.163-6.831-11.5-8-1.233-.617-5.5-1.84-5.5-1 0 3.435 2.496 8.491 4 11.5V163ZM259 163l2 4c0-5.656-5.151-16.198-2-22.5 1.313-2.627 5-9.792 5-12.5-5.238 0-10.384 7-16 7l-1 1-1 1c0 8.919 13 15.729 13 22Z"/><path fill="#188064" id="SSp-m6b" d="M108 163h2c0-1.048-.473-3 1-3v-2c0-1.048-.473-3 1-3 0-1.145-.579-4 1-4l1-2 1-2 1-2 1-2 4-8c-5.117 0-13 22.634-13 28Z"/><path fill="#AAA8A9" id="SEZ" d="m248 139-1 1 1-1Z"/><path fill="#97D6F9" id="STR" d="m231 183-2.5-5-3.5 7c0-2.699 2.589-18.323 2-19.5-.766-1.533-4-8.245-4-9.5l3.5 2c4.709-2.355-3.5-16.489-3.5-6.5v3.5c-2.421 0-6.678-2.411-9.5-1l-12.5 5c0-6.803 9-10.353 9-18v-1l2.5 3c3.155 1.578 6.763 2.382 10 4 3.14 1.57 4.013-3 6-3 .997 0 1.868 4.566 5 3 2.753-1.377 9.612-6 12.5-6 0 8.919 13 15.729 13 22-2.137 0-9.191-6.846-11.5-8-5.682-2.841-12.017 1-14.5 1 0-1.972.824-10.162-3.5-8-1.587.794.889 10 1 10l2.5-1-3 4.5 1 21.5Z"/><path fill="#AAA8A9" id="SEZ" d="m247 140-1 1 1-1Z"/><path fill="#1A7E62" id="SSs1" d="m64 172-4 1c0-3.72-1.36-10.219-3-13.5-2.479-4.958 2-13.532 2-18.5l5 1v30ZM392 172l4 1c2.144 0 .381-4.262 1-5.5 4.375-8.751 0-17.903 0-26.5l-4 2c0 9.552-1 20.129-1 29Z"/><path fill="#1B8063" id="SSs2/3" d="m72 170-8 2v-29l9 2-1 24v1Z"/><path fill="#C9C9CA" id="scwm" d="m117 143-1 2 1-2Z"/><path fill="#1B8063" id="SSs2/3" d="M384 169c1.946 0 5.623 3 8 3 0-8.871 1-19.448 1-29h-1c-3.157 0-5.481 2-9 2v1c0 7.354 1 15.129 1 23Z"/><path fill="#187C63" id="SSs4" d="m78 168-6 1 1-24h1c0 .886 5.824 3 7 3v1c0 5.414-3 13.122-3 19Z"/><path fill="#C9C9CA" id="scwm" d="m116 145-1 2 1-2Z"/><path fill="#187C63" id="SSs4" d="m378 168 6 1c0-7.871-1-15.646-1-23l-7 2v1l2 18v1Z"/><path fill="#C9C9CA" id="scwm" d="m115 147-1 2 1-2Z"/><path fill="#8FCAED" id="SH" d="M223 155v1l3.5 2c4.709-2.355-3.5-16.489-3.5-6.5v3.5ZM233 156v1l-2.5 1c-.111 0-2.587-9.206-1-10 4.324-2.162 3.5 6.028 3.5 8Z"/><path fill="#1C8063" id="SSs5" d="M84 166c0 .675-5.294 2-6 2 0-5.878 3-13.586 3-19 4.362 0 3 7.988 3 12 0 1.041-2.36 5 0 5Z"/><path fill="#C9C9CA" id="scwm" d="m114 149-1 2 1-2Z"/><path fill="#1C8063" id="SSs5" d="M372 166c0 1.684 4.679 1 6 1l-2-18c-4.618 0-3 9.439-3 11 0 1.643.026 6-1 6Z"/><path fill="#C9C9CA" id="scwm" d="M113 151c-1.579 0-1 2.855-1 4 1.579 0 1-2.855 1-4Z"/><path fill="#90CAED" id="LSr" d="M209 208c0 2.648 6.026 10.737 9.5 9l2.5-4c0-9.765 4-18.103 4-28 0-2.699 2.589-18.323 2-19.5-.766-1.533-4-8.245-4-9.5v-1c-2.421 0-6.678-2.411-9.5-1l-12.5 5-2 2-1 2-1 1-1 2v1l-1 1v8c8.674 0 14.799 17.099 18 23.5 1.483 2.966-.917 8.5-4 8.5ZM247 208c0 3.295-5.011 11.245-9.5 9l-2.5-5c0-10.216-4-18.831-4-29l-1-21.5 3-4.5v-1c2.483 0 8.818-3.841 14.5-1 2.309 1.154 9.363 8 11.5 8l2 4v4l1 2v4l-3.5-1c-4.64 2.32-12.282 17.065-14.5 21.5-1.424 2.849-.041 10.5 3 10.5Z"/><path fill="#C9C9CA" id="scwm" d="M112 155c-1.473 0-1 1.952-1 3 1.473 0 1-1.952 1-3ZM347 163v3c-1.434 0-2-6.448-2-8 .672 0 2 4.329 2 5Z"/><path fill="#97D6F9" id="STR" d="M201 159c-1.747 0-2 .253-2 2l2-2Z"/><path fill="#C9C9CA" id="scwm" d="M110 163v1c1.579 0 1-2.855 1-4-1.473 0-1 1.952-1 3Z"/><path fill="#97D6F9" id="STR" d="m199 161-1 2 1-2Z"/><path fill="#009B74" id="GU6a" d="M109 177c-6.082 0-12.952 6-17 6v-18c6.006 0 10.219-2 16-2 0 4.725 1 9.879 1 14Z"/><path fill="#019C74" id="GU6b" d="m111 176-2 1c0-4.121-1-9.275-1-14h2v8l1 5Z"/><path fill="#A8AAAA" id="VL" d="m197 164-1 2c0-1.048-.473-3 1-3v1Z"/><path fill="#97D6F9" id="STR" d="m198 163-1 1v-1h1Z"/><path fill="#019C74" id="GU6b" d="M347 177h1c0-4.351 1-9.131 1-14h-2v7l-1 7h1Z"/><path fill="#009B74" id="GU6a" d="M348 177c5.306 0 11.968 6 16 6 0-5.521 1-11.898 1-18l-16-2c0 4.869-1 9.649-1 14Z"/><path fill="#1C8063" id="SSs5" d="M84 166h1c0-1.186-1-1.186-1 0Z"/><path fill="#019C75" id="GU5" d="M92 183c-4.95 0-8.313 4-13 4 0-5.678-1-12.682-1-19 .706 0 6-1.325 6-2h1l7-1v18ZM364 183l14 4v-20c-1.321 0-6 .684-6-1l-7-1c0 6.102-1 12.479-1 18Z"/><path fill="#A8AAAA" id="VL" d="m196 167-1 1 1-1Z"/><path fill="#009C74" id="GU4" d="M77 188h2v-1c0-5.678-1-12.682-1-19l-6 1v1c1.615 0 1 3.31 1 4.5 0 2.281 1.729 13.5 4 13.5ZM378 188l2 1c0-6.336 4-12.874 4-20l-6-1v20Z"/><path fill="#009B75" id="GU2/3" d="M387 192h1l4-20c-2.377 0-6.054-3-8-3 0 7.126-4 13.664-4 20 .698 0 7 2.714 7 3ZM77 188c0 2.16-6.07 3-8 3 0-5.906-5-12.615-5-19l8-2c1.615 0 1 3.31 1 4.5 0 2.281 1.729 13.5 4 13.5Z"/><path fill="#C8CBCC" id="ec" d="m339 205-2 3c0-12.898 8-24.178 8-37l2-1-1 7-2 11v1c-1.473 0-1 1.952-1 3v2c-1.577 0-2 1.762-2 3l-2 8ZM117 205l2 2c0-12.816-7-23.043-7-36h-2l1 5c0 4.364 2 8.259 2 12l2 9c0 2.522 2 4.909 2 8Z"/><path fill="#A8AAAA" id="VL" d="m261 171 1 2-1-2Z"/><path fill="#009C75" id="GU1" d="m69 192-4 1-5-20 4-1c0 6.385 5 13.094 5 19v1ZM388 192l3 1c.843 0 2-3.646 2-4.5 0-5.494 3-10.179 3-15.5l-4-1-4 20Z"/><path fill="#A8AAAA" id="VL" d="M194 176h1v-3c-1.473 0-1 1.952-1 3Z"/><path fill="#1F9766" id="AId6b" d="M111 188h2c0-3.741-2-7.636-2-12l-2 1 2 10v1Z"/><path fill="#90CAED" id="LSr" d="m195 176-1 1v-1h1Z"/><path fill="#8FCBED" id="LSv" d="m205 205 4 3c3.083 0 5.483-5.534 4-8.5-3.201-6.401-9.326-23.5-18-23.5l-1 1v3l-1 1v2c1.232 0 2 10.288 2 12l2 2c2.187 0 8 5.84 8 8ZM249 207l-2 1c-3.041 0-4.424-7.651-3-10.5 2.218-4.435 9.86-19.18 14.5-21.5l3.5 1 1 1v9c-.682 0-2 6.241-2 7l-2 3c-1.436 0-7 4.812-7 7l-1 1-2 2Z"/><path fill="#A8AAAA" id="VL" d="m262 177 1 1-1-2v1Z"/><path fill="#209666" id="AId6a" d="M98 201h7c0-7.931-7.124-14 6-14l-2-10c-6.082 0-12.952 6-17 6 0 2.927 4.725 18 6 18Z"/><path fill="#1F9766" id="AId6b" d="M344 188h1l1-2c0-2.723 1-5.778 1-9h-1l-2 11Z"/><path fill="#209666" id="AId6a" d="M352 201h6c2.479 0 6-14.979 6-18-4.032 0-10.694-6-16-6h-1c0 3.222-1 6.277-1 9 9.941 0 6 8.929 6 15Z"/><path fill="#96A7D3" id="MS" d="M221 229c5.713 0 9.909 1 15 1l-1-18c0-10.216-4-18.831-4-29l-2.5-5-3.5 7c0 9.897-4 18.235-4 28v16Z"/><path fill="#A8AAAA" id="VL" d="m194 180-1 1 1-1Z"/><path fill="#209665" id="AId5" d="M98 202c-4.573 0-8.016 1-13 1 0-3.398-6-9.363-6-15v-1c4.687 0 8.05-4 13-4 0 2.927 4.725 18 6 18v1Z"/><path fill="#A8AAAA" id="VL" d="M191 198v4c0 12.459 2.736-5 4-5v-2c0-1.712-.768-12-2-12l-1 13-1 1v1Z"/><path fill="#209665" id="AId5" d="M371 203h1c0-2.596 3.774-8.048 5-10.5.574-1.147-1.064-4.5 1-4.5v-1l-14-4c0 3.021-3.521 18-6 18v1c3.999 0 7.921 1 13 1Z"/><path fill="#8ADA86" id="CLA" d="m114 197 1 6.5c-2.781 5.561-10 2.993-10-2.5 0-7.931-7.124-14 6-14v1c0 2.675 3 5.922 3 9ZM342 197c0 5.472-1.68 6.41 3.5 9l2 1 4.5-6c0-6.071 3.941-15-6-15l-1 2-1 1c0 1.048.473 3-1 3v2c0 1.048.473 3-1 3Z"/><path fill="#A8AAAA" id="VL" d="M265 197v2c0 14.041-3 4.119-3-2 0-1.048.473-3-1-3 0-.759 1.318-7 2-7l2 10Z"/><path fill="#209765" id="AId2/3" d="M85 203c-2.84 0-6.715 3-10 3 0-4.425-6-9.006-6-14v-1c1.93 0 8-.84 8-3h2c0 5.637 6 11.602 6 15Z"/><path fill="#209666" id="AId6a" d="M114 197h1l-2-9h-2c0 2.675 3 5.922 3 9ZM345 188l-1 1v-1h1Z"/><path fill="#209765" id="AId2/3" d="M381 206h1c0-4.748 5-8.89 5-14 0-.286-6.302-3-7-3l-2-1c-2.064 0-.426 3.353-1 4.5-1.226 2.452-5 7.904-5 10.5 0 1.686 7.542 3 9 3Z"/><path fill="#209666" id="AId6a" d="M344 189c-1.473 0-1 1.952-1 3 1.473 0 1-1.952 1-3Z"/><path fill="#209764" id="AId1" d="M75 206c-1.564 0-3.876 1-6 1-2.279 0-4-11.75-4-14l4-1c0 4.994 6 9.575 6 14ZM382 206c0 1.684 4.679 1 6 1 0-4.553 3-8.704 3-14l-3-1h-1c0 5.11-5 9.252-5 14Z"/><path fill="#97D6F9" id="STR" d="M259 197h3c0-1.048.473-3-1-3l-2 3Z"/><path fill="#209666" id="AId6a" d="M341 197h1c1.473 0 1-1.952 1-3-1.577 0-2 1.762-2 3Z"/><path fill="#97D6F9" id="STR" d="M195 197h2l-2-2v2ZM192 196l-1 1 1-1Z"/><path fill="#1F9866" id="AIv6a" d="M110 209h1l1-1h1l4-3c0-3.091-2-5.478-2-8h-1l1 6.5c-2.781 5.561-10 2.993-10-2.5h-7v1l5 9 7-2Z"/><path fill="#80CDF8" id="ACB" fill-rule="evenodd" d="M182 209c0 1.509-5.031 5.562-6 7.5-1.744 3.487 2.724 9.388 6.5 7.5 6.447-3.223 9.563-15-.5-15m-46 27c0 6.703 3 11.311 3 18l8.5 9c4.569 2.285 28.027 3.487 33 1 9.277-4.638 14.027-13.027 21.5-20.5 1.391-1.391 5.058-8.5 6-8.5 0-5.329 6.258-13.984 3-20.5l-6-9.5c0-2.16-5.813-8-8-8h-2c-1.264 0-4 17.459-4 5v-3h-1c-2.422 0-5.361 2.93-7.5 4-14.322 7.161-9.314 23.657-22 30-7.062 3.531-15.02 1-22.5 1l-2 2ZM271 209c0 1.367-3 3.433-3 6.5 0 10.885 16.61 10.22 11-1-1.769-3.538-3.847-5.5-8-5.5m-22 28 7.5 9c8.362 8.362 11.9 13.95 22 19 7.308 3.654 38.5-1.931 38.5-11 0-6.831 4-12.207 4-19l-2-1c-7.708 0-16.235 2.633-23.5-1l-4-4c-3.936-1.968-3.87-9.239-5.5-12.5-3.299-6.599-10.935-17.5-20-17.5h-1c0 14.041-3 4.119-3-2h-3c-1.436 0-7 4.812-7 7l-1 1-2 2-4 8.5c-2.981 5.962 3 14.175 3 19.5l1 1v1Z"/><path fill="#97D6F9" id="STR" d="M265 199h1l-1-2v2Z"/><path fill="#1F9866" id="AIv6a" d="M346 209c3.235 0 4.55 2 8 2l4-9v-1h-6l-4.5 6-2-1c-5.18-2.59-3.5-3.528-3.5-9h-1l-2 8 5 3 2 1Z"/><path fill="#97D6F9" id="STR" d="M190 199h1v-1l-1 1Z"/><path fill="#1F9865" id="AIv5" d="m99 213-6 1c0-5.291-8-6.633-8-11 4.984 0 8.427-1 13-1l5 9-4 2ZM358 213l5 1c0-5.342 8-6.649 8-11-5.079 0-9.001-1-13-1l-4 9 4 2Z"/><path fill="#219764" id="AIv2/3" d="M93 214c-4.522 0-8.202 3-13 3l-5-11c3.285 0 7.16-3 10-3 0 4.367 8 5.709 8 11ZM363 214c4.596 0 8.27 3 13 3l5-11c-1.458 0-9-1.314-9-3h-1c0 4.351-8 5.658-8 11Z"/><path fill="#97D6F9" id="STR" d="m252 204-1 1 1-1Z"/><path fill="#8AD987" id="CTXsp" d="m120 209 1 4c-.515 0-2.8-5-8-5l4-3 2 2v1l1 1Z"/><path fill="#97D6F9" id="STR" d="M205 256h5c5.734 0 10-20.195 10-25l1-2v-16l-2.5 4c-3.474 1.737-9.5-6.352-9.5-9l-4-3 6 9.5c3.258 6.516-3 15.171-3 20.5 0 6.488-3 12.823-3 19v2Z"/><path fill="#8AD987" id="CTXsp" d="M344 208c-2.765 0-5.165 2-7 2v-2l2-3 5 3Z"/><path fill="#209864" id="AIv1" d="m80 217-6 2c0-4.211-5-7.113-5-12 2.124 0 4.436-1 6-1l5 11ZM376 217l7 2 5-12c-1.321 0-6 .684-6-1h-1l-5 11Z"/><path fill="#97D6F9" id="STR" d="M246 256h6v-1c0-5.789-3-11.374-3-18v-1l-1-1c0-5.325-5.981-13.538-3-19.5l4-8.5-2 1c0 3.295-5.011 11.245-9.5 9l-2.5-5 1 18c0 4.586 4.851 26 10 26Z"/><path fill="#8AD987" id="CTXsp" d="m112 208-1 1 1-1Z"/><path fill="#A0EE9C" id="EPd" d="M120 231h2c1.745 0 6 .698 6-2v-3l-1-1c0-2.46-4-4.17-4-7l-1-1v-1l-1-1v-2c-.515 0-2.8-5-8-5h-1l-1 1h-1c0 1.186-3.346 5.192-4 6.5-1.081 2.161 1 4.894 1 6.5l1 1 2 2 2 1 1 1h1l2 2h1c1.238 0 3 .423 3 2Z"/><path fill="#C8CBCC" id="ec" d="m119 208 1 1-1-1Z"/><path fill="#A0EE9C" id="EPd" d="M334 231h2l1-1h1l1-1h1l1-1 2-1 2-1 1-1 3-3 1-1 1-2c0-4.112-5-6.869-5-10l-2-1c-2.765 0-5.165 2-7 2 0 1.048.473 3-1 3l-1 1-1 4-1 1v1l-1 1-1 1-1 2-1 1v1l-1 1v2c1.031 0 3.289 2 6 2Z"/><path fill="#99D2BD" id="OLF" d="m99 213 5 4.5c.592 1.185 1.012 4.5 3 4.5 0-1.606-2.081-4.339-1-6.5.654-1.308 4-5.314 4-6.5l-7 2-4 2Z"/><path fill="#CBCBC7" id="aco" d="M182 209c0 1.509-5.031 5.562-6 7.5-1.744 3.487 2.724 9.388 6.5 7.5 6.447-3.223 9.563-15-.5-15ZM271 209c0 1.367-3 3.433-3 6.5 0 10.885 16.61 10.22 11-1-1.769-3.538-3.847-5.5-8-5.5Z"/><path fill="#99D2BD" id="OLF" d="m358 213-3.5 2-3.5 4c0-4.112-5-6.869-5-10 3.235 0 4.55 2 8 2l4 2Z"/><path fill="#8AD987" id="CTXsp" d="M337 210c-1.473 0-1 1.952-1 3 1.473 0 1-1.952 1-3Z"/><path fill="#6ACAB9" id="PIR" d="M121 261h2l8-4 1-1c0-6.648 5.269-6.962 1-15.5l-7.5-7.5-3.5-2h-2l-3-2h-1l-2-2h-1l-1-1-2-1-2-2-1-1c-1.988 0-2.408-3.315-3-4.5l-5-4.5-6 1c-4.522 0-8.202 3-13 3l-6 2c0 9.89 10.334 19.917 18.5 24l7.5 6c0-4.054 21 8.341 21 12Z"/><path fill="#8AD987" id="CTXsp" d="m336 213-1 1 1-1Z"/><path fill="#6ACAB9" id="PIR" d="M333 261h2c0-1.545 17.802-14 20.5-14l.5 3 4.5-5c8.221-4.111 22.5-16.105 22.5-26l-7-2c-4.73 0-8.404-3-13-3l-5-1-3.5 2-3.5 4-1 2-1 1-3 3-1 1-2 1-2 1-1 1h-1l-1 1h-1l-1 1h-2c0 1.988-3.315 2.408-4.5 3-3.389 1.695-6.072 6.645-7.5 9.5-2.54 5.079 3 9.664 3 13.5l8 4Z"/><path fill="#8AD987" id="CTXsp" d="m121 215 1 1-1-1ZM122 217l1 1-1-1ZM334 218l-1 1 1-1Z"/><path fill="#99D2BD" id="OLF" d="m351 219-1 2 1-2Z"/><path fill="#8AD987" id="CTXsp" d="m333 220-1 1 1-1ZM332 221l-1 1 1-1Z"/><path fill="#99D2BD" id="OLF" d="m350 221-1 1 1-1ZM108 223l2 2-2-2Z"/><path fill="#8AD987" id="CTXsp" d="m330 224-1 1 1-1ZM127 225l1 1-1-1Z"/><path fill="#99D2BD" id="OLF" d="m346 225-1 1 1-1ZM112 226l1 1-1-1Z"/><path fill="#97D6F9" id="STR" d="M128 227h1l-1-1v1Z"/><path fill="#8AD987" id="CTXsp" d="m329 226-1 1 1-1Z"/><path fill="#99D2BD" id="OLF" d="m345 226-2 1 2-1ZM114 227l2 2-2-2Z"/><path fill="#8AD987" id="CTXsp" d="M128 229h1v-2h-1v2Z"/><path fill="#97D6F9" id="STR" d="m328 229-3 1 3-3v2Z"/><path fill="#99D2BD" id="OLF" d="m343 227-2 1 2-1Z"/><path fill="#97D6F9" id="STR" d="m129 229 3 2-3-3v1Z"/><path fill="#99D2BD" id="OLF" d="m341 228-1 1 1-1ZM117 229c1.238 0 3 .423 3 2l-3-2ZM132 256h1l6-2c0-6.689-3-11.297-3-18-.559 0-3-4.241-3-5h-1l-3-2h-1c0 2.698-4.255 2-6 2l3.5 2 7.5 7.5c4.269 8.538-1 8.852-1 15.5Z"/><path fill="#96A7D3" id="MS" d="m221 229-1 2 1-2Z"/><path fill="#96A6D3" id="NDB" d="M203 264c0 11.315 3.303 7 10 7 0-1.933 10.099-8 12-8l1-1 1-1c0-3.803 2.524 0 3 0 6.101 0 17.577 20.347 24 7.5l-1-5.5c-1.366 0-4-2.366-4-4l-3-3c-5.149 0-10-21.414-10-26-5.091 0-9.287-1-15-1l-1 2c0 4.805-4.266 25-10 25l-3 3c0 1.114-2.034 4-3 4l-1 1Z"/><path fill="#99D2BD" id="OLF" d="M324 257h1c0-3.836-5.54-8.421-3-13.5 1.428-2.855 4.111-7.805 7.5-9.5 1.185-.592 4.5-1.012 4.5-3-2.711 0-4.969-2-6-2l-3 1-1 1-1 1-2 3c0 6.793-4 12.169-4 19 1.345 0 7 1.571 7 3ZM339 229l-1 1 1-1Z"/><path fill="#97D6F9" id="STR" d="m325 230-1 1 1-1Z"/><path fill="#99D2BD" id="OLF" d="m337 230-1 1 1-1Z"/><path fill="#97D6F9" id="STR" d="m138 234-2 2c-.559 0-3-4.241-3-5l5 3ZM324 231l-1 1 1-1ZM319 234l2 1 2-3-4 2Z"/><path fill="#A2B1D7" id="SI" d="m200 265-1 7c-2.618 0-7.472-2.514-10.5-1-10.463 5.232-38.037 4.963-46.5-3.5-2.77-2.77-9-6.908-9-11.5l6-2 8.5 9c4.569 2.285 28.027 3.487 33 1 9.277-4.638 14.027-13.027 21.5-20.5 1.391-1.391 5.058-8.5 6-8.5 0 6.488-3 12.823-3 19-.865 0-4 8.68-4 10l-1 1ZM248 235l1 1-1-1ZM257 266v6c2.618 0 7.472-2.514 10.5-1 5.724 2.862 32.746 5.127 39 2 5.153-2.577 8.993-5.993 13.5-10.5 1.237-1.237 1.88-5.5 4-5.5 0-1.429-5.655-3-7-3 0 9.069-31.192 14.654-38.5 11-10.1-5.05-13.638-10.638-22-19l-7.5-9c0 6.626 3 12.211 3 18l5 11Z"/><path fill="#CAC8C7" id="lot" d="m121 264-1 1c-2.894 0-20-13.57-20-16 0-4.054 21 8.341 21 12l1 2-1 1ZM335 265h2c1.807 0 19-13.395 19-15l-.5-3c-2.698 0-20.5 12.455-20.5 14v4Z"/><path fill="#E64438" id="HY" d="M201 264h2l1-1c.966 0 3-2.886 3-4-2.293 0-2-.997-2-3v-2c-.865 0-4 8.68-4 10ZM253 263l4 3-5-11v1c0 1.658-1.461 3-3 3 0 1.634 2.634 4 4 4Z"/><path fill="#99D2BD" id="OLF" d="m132 256-1 1 1-1Z"/><path fill="#7FCCF7" id="OT" d="m199 272 4 6c0 14.417-13.704 12.602-22.5 17h-9c-13.411 6.706-33.583 2.334-40.5-11.5-2.318-4.635-9-9.087-9-14.5v-6l1-2 8-4 1-1h1c0 4.592 6.23 8.73 9 11.5 8.463 8.463 36.037 8.732 46.5 3.5 3.028-1.514 7.882 1 10.5 1Z"/><path fill="#8599CC" id="PAL" d="m210 256-3 3c-2.293 0-2-.997-2-3h5ZM252 256c0 1.658-1.461 3-3 3l-3-3h6Z"/><path fill="#7FCCF7" id="OT" d="M257 272c0 2.232-3 4.029-3 7 0 13.554 14.122 11.811 22.5 16h8c16.404 8.202 36.321-.141 44.5-16.5 1.902-3.805 6-6.975 6-11.5v-3l-1-1-1-2-8-4h-1c-2.12 0-2.763 4.263-4 5.5-4.507 4.507-8.347 7.923-13.5 10.5-6.254 3.127-33.276.862-39-2-3.028-1.514-7.882 1-10.5 1Z"/><path fill="#99D2BD" id="OLF" d="m123 261-1 2-1-2h2Z"/><path fill="#8599CC" id="PAL" d="m227 261-1 1 1-1ZM257 272c0 2.232-3 4.029-3 7-1.807 0-24-16.162-24-18 6.101 0 17.577 20.347 24 7.5l-1-5.5 4 3v6Z"/><path fill="#99D2BD" id="OLF" d="M334 263h1v-2h-2l1 2Z"/><path fill="#8599CC" id="PAL" d="m226 262-1 1 1-1Z"/><path fill="#99D2BD" id="OLF" d="M121 264h1v-1l-1 1Z"/><path fill="#8599CC" id="PAL" d="m204 263-1 1 1-1ZM225 263c-1.901 0-12 6.067-12 8 2.442 0 12-4.832 12-8Z"/><path fill="#97D6F9" id="STR" d="M335 263v1l-1-1h1ZM120 265l2 4v-5h-1l-1 1Z"/><path fill="#E64438" id="HY" d="m201 264-1 1 1-1Z"/><path fill="#8599CC" id="PAL" d="m199 272 4 6c1.546 0 10-5.451 10-7-6.697 0-10 4.315-10-7h-2l-1 1-1 7Z"/><path fill="#97D6F9" id="STR" d="m337 265-2 2v-2h2Z"/><path fill="#CBCCC7" id="IIn" d="M217 276c0 .578-13.873 7.814-7.5 11 9.198 4.599 19.258-11 7.5-11ZM235 276c0 3.091-1.688 5.123 0 8.5 1.306 2.612 11.324 4.353 13 1 3.001-6.003-9.398-9.5-13-9.5Z"/></svg>