<svg xmlns="http://www.w3.org/2000/svg" viewBox="0 0 456 320"><path fill="#9AD1BD" id="MOB" fill-rule="evenodd" d="M178 211c0 7.381 5.869 0 0 0m-17 0c0 9.59 18.04 36 29 36 3.417 0 6.898 1.801 10.5 0 25.363-12.681 21.5-58.132 21.5-84.5 0-9.189 4.161-23.678 0-32-2.039-4.079-2.939-8.877-5-13l-9-8.5h-3l-1-1c-11.934 0-23.757-2.371-34.5 3l-8 6c-3.982 1.991-12.5 10.397-12.5 15l-1 1-1 2v1l-1 2v1l-1 1v5c0 1.145.579 4-1 4v4c1.643 0 1 3.765 1 5v5l1 2v2l1 2v4l3 6c0 7.502 9 18.116 9 27v1l2 4m14-79c-7.587 0-1.753 19.874 4.5 23 11.28 5.64 15.756-16 10.5-16 0-5.205 9.646-.209 7-5.5-2.473-4.945-9.731-.615-13.5-2.5l-6-4c-3.579 1.79-2.5 2.117-2.5 5ZM276 211c0 7.677 5.604 0 0 0m19 1c0 10.166-18.348 35-29 35-3.245 0-6.951 1.774-10.5 0-24.174-12.087-21.5-57.622-21.5-83 0-6.904-2.263-26.974 0-31.5 2.192-4.384 2.777-9.553 5-14l6-7.5 3-1 1-1h2l1-1c15.53 0 22.431-2.034 36.5 5 3.402 1.701 8.811 4.121 10.5 7.5 1.013 2.026 7 5.31 7 8.5l1 1v1l1 1v1l1 1v1l2 4v4l1 2v13c-1.473 0-1 1.952-1 3v4l-1 2v2l-1 2v3l-1 2c-1.473 0-1 1.952-1 3l-3 5.5c-1.912 1.912-7 19.345-7 22.5v1l-1 2v1l-1 1m-14-80c8.72 0 2.134 19.683-4.5 23-8.371 4.185-10.398-6.296-12.5-10.5-.715-1.43.722-5.5 2-5.5 0-3.61-8.851-1.799-7-5.5 2.426-4.852 10.706-.603 14.5-2.5 1.795-.897 3.42-5.29 6-4 3.3 1.65 1.5 2.995 1.5 5Z"/><path fill="#99D2BD" id="OLF" d="m204 108 1 1-1-1ZM252 108l-1 1 1-1Z"/><path fill="#C7CBCA" id="onl" d="M227 210c0 16.273 2.82 36.861-4 50.5l-4.5 2.5c-9.271 4.635-11.299-7.649-18-11-1.959-.979-10.5-1.972-10.5-5 3.417 0 6.898 1.801 10.5 0 25.363-12.681 21.5-58.132 21.5-84.5 0-9.189 4.161-23.678 0-32-2.039-4.079-2.939-8.877-5-13l-9-8.5c19.055 0 19 41.618 19 57v14c0 1.145-.579 4 1 4v16c-1.763 0-1 8.343-1 10ZM248 110l-3 1c0-1.577 1.762-2 3-2v1Z"/><path fill="#99D2BD" id="OLF" d="m249 109-1 1v-1h1Z"/><path fill="#C7CBCA" id="onl" d="M245 111c-11.913 0-10.523 20.547-14 27.5-3.23 6.459-2 18.953-2 26.5 0 20.053 1 41.129 1 60.5 0 8.538-2.653 23.693 1 31 2.059 4.118 3.631 4.565 7.5 6.5 9.982 4.991 8.499-6.75 15-10 2.769-1.385 12.5-2.676 12.5-6-3.245 0-6.951 1.774-10.5 0-24.174-12.087-21.5-57.622-21.5-83 0-6.904-2.263-26.974 0-31.5 2.192-4.384 2.777-9.553 5-14l6-7.5Z"/><path fill="#CACAC9" id="lotd" d="M175 132c3.54 0 2.873 7.687 5.5 9 4.846 2.423 5.681-2 9.5-2 0-5.205 9.646-.209 7-5.5-2.473-4.945-9.731-.615-13.5-2.5l-6-4c-3.579 1.79-2.5 2.117-2.5 5ZM281 132c-2.915 0-2.436 7.968-4.5 9-4.722 2.361-6.575-2-10.5-2 0-3.61-8.851-1.799-7-5.5 2.426-4.852 10.706-.603 14.5-2.5 1.795-.897 3.42-5.29 6-4 3.3 1.65 1.5 2.995 1.5 5Z"/><path fill="#99D2BD" id="OLF" d="m306 129 1 1-1-1ZM307 131l1 1-1-1ZM149 132l-1 1 1-1Z"/><path fill="#95E4C8" id="AOBgr" d="M175 132c3.54 0 2.873 7.687 5.5 9 4.846 2.423 5.681-2 9.5-2 5.256 0 .78 21.64-10.5 16-6.253-3.126-12.087-23-4.5-23ZM281 132c8.72 0 2.134 19.683-4.5 23-8.371 4.185-10.398-6.296-12.5-10.5-.715-1.43.722-5.5 2-5.5 3.925 0 5.778 4.361 10.5 2 2.064-1.032 1.585-9 4.5-9Z"/><path fill="#99D2BD" id="OLF" d="m148 133-1 2 1-2ZM308 133l1 1-1-1ZM309 135l2 4-2-4ZM147 136l-1 2 1-2ZM146 139l-1 1 1-1ZM311 143l1 2-1-2ZM145 145c-1.579 0-1 2.855-1 4 1.579 0 1-2.855 1-4ZM312 149c1.535 0 1.535 4 0 4v-4ZM144 153c1.643 0 1 3.765 1 5-1.643 0-1-3.765-1-5ZM312 158c-1.473 0-1 1.952-1 3 1.473 0 1-1.952 1-3ZM145 163l1 2-1-2ZM311 165l-1 2 1-2ZM227 166c1.579 0 1 2.855 1 4v14c-1.579 0-1-2.855-1-4v-14ZM146 167l1 2-1-2ZM310 169l-1 2 1-2ZM149 179h1l-3-6 2 6ZM309 174l-1 2 1-2ZM308 176c-1.473 0-1 1.952-1 3 1.473 0 1-1.952 1-3Z"/><path fill="#C7CBCA" id="onl" d="m157 205 2 1c0-8.884-9-19.498-9-27h-1v2l1 2v1l1 1v4l1 1v1l1 2v2l2 4v1l1 1v2l1 1v1ZM297 207h1l1-1v-1l1-1v-1l1-2v-2l1-1v-1l1-1v-2l1-1v-2l1-1v-3l1-2v-1l1-1v-4l-3 5.5c-1.912 1.912-7 19.345-7 22.5Z"/><path fill="#99D2BD" id="OLF" d="m149 181 1 2-1-2ZM307 183l-1 1 1-1ZM150 184l1 1-1-1ZM306 185l-1 2 1-2ZM151 189l1 1-1-1ZM305 190l-1 1 1-1ZM152 191l1 2-1-2ZM304 193l-1 1 1-1ZM153 195l2 4-2-4ZM303 196l-1 1 1-1ZM302 198l-1 1 1-1ZM155 200l1 1-1-1ZM228 200c-1.763 0-1 8.343-1 10 1.763 0 1-8.343 1-10ZM301 201l-1 2 1-2ZM156 203l1 1-1-1ZM300 204l-1 1 1-1ZM159 207v1c-1.577 0-2-1.762-2-3l2 1v1ZM299 206l-1 1 1-1Z"/><path fill="#C7CBCA" id="onl" d="M160 211h1l-2-4v2l1 2Z"/><path fill="#99D2BD" id="OLF" d="M297 208v1l1-2h-1v1Z"/><path fill="#C7CBCA" id="onl" d="M296 210h1v-2l-1 2Z"/><path fill="#99D2BD" id="OLF" d="m159 209 1 2-1-2ZM297 210l-1 1v-1h1Z"/><path fill="#CAC8C7" id="lot" d="M178 211c0 7.381 5.869 0 0 0ZM276 211c0 7.677 5.604 0 0 0Z"/><path fill="#99D2BD" id="OLF" d="m296 211-1 1 1-1Z"/></svg>