<svg xmlns="http://www.w3.org/2000/svg" viewBox="0 0 456 320"><path fill="#9AD1BD" id="MOB" d="m174 117-10.5 9c-4.562 4.562-13.091 23.317-9.5 30.5 1.229 2.458.794 5.587 2 8 5.154 10.308 9.878 20.757 15 31 3.751 7.502-2.197 28.151 8.5 33.5l12 6c9.665 4.832 20.035-6.571 23.5-13.5 7.707-15.414 2.295-48.59 8-60 1.837-3.674.097-9.194 2-13 1.272-2.544-.326-6.347 1-9 3.312-6.625-6-18.322-6-22.5l-6-6h-1l-2-1h-2l-2-1c-6.956 0-12.808 2-19 2l-1 1h-2l-2 1h-1l-1 1h-1l-1 1h-2l-1 1-2 1Z"/><path fill="#99D2BD" id="OLF" d="m207 109 2 1-2-1ZM249 109l-2 1 2-1Z"/><path fill="#9AD1BD" id="MOB" d="m280 116 9 5.5 6 6c2.195 4.39 10.645 20.709 8 26-2.277 4.553-1.731 10.462-4 15-4.858 9.716-9.22 19.44-14 29-2.153 4.307-.076 19.152-4 27-3.311 6.622-19.941 14.28-27.5 10.5-5.423-2.712-9.989-9.479-12.5-14.5-4.838-9.676-1.19-23.381-6-33-2.876-5.753 1.933-15.134-1-21l-1-15c-1.95-3.899-4.414-18.172-2-23 1.142-2.284 6-9.311 6-11.5l2-3 1-1 1-1 2-1 2-1h2l2-1c6.956 0 12.808 2 19 2l1 1h1l3 1h2l1 1h1l1 1h1l1 1Z"/><path fill="#99D2BD" id="OLF" d="m211 110 2 1-2-1ZM245 110l-2 1 2-1Z"/><path fill="#C7CBCA" id="onl" d="M186 112h1v-1l-1 1Z"/><path fill="#99D2BD" id="OLF" d="m188 111-1 1v-1h1ZM220 117h1c0-1.788-4.885-6-7-6l6 6ZM243 111l-2 1 2-1ZM269 111v1l-1-1h1Z"/><path fill="#C7CBCA" id="onl" d="M269 112h1v-1h-1v1Z"/><path fill="#99D2BD" id="OLF" d="m270 112 3 1-3-2v1ZM185 112l-2 1 2-1ZM241 112l-1 1 1-1ZM182 113l-1 1 1-1ZM240 113l-1 1 1-1ZM275 113l1 1-1-1ZM180 114l-1 1 1-1ZM235 117h2l2-3c-1.429 0-4 1.288-4 3ZM277 114l1 1-1-1ZM175 116h1l1-1-2 1ZM280 116h1l-2-1 1 1ZM173 117h1v-1l-1 1Z"/><path fill="#C7CBCA" id="onl" d="m176 116-2 1v-1h2Z"/><path fill="#C7CBCA" id="onl" d="M299 221c0 3.515-4.514 5.528-6 8.5-6.117 12.234-16.275 11.388-26.5 16.5h-4c-3.174 1.587-10.682 5.159-15 3-9.504-4.752-13.24-13.979-17.5-22.5l-1.5-15.5-.5 3.5-1 10c-4.499 8.998-7.28 19.39-17.5 24.5-4.42 2.21-11.766-1.383-15-3h-5c-9.667-4.834-19.816-4.132-25.5-15.5l-6-8.5-1-1v-1c0-20.955-7-37.727-7-59v-1c1.643 0 1-3.765 1-5v-4c1.579 0 1-2.855 1-4v-1c1.473 0 1-1.952 1-3v-4l1-2v-1l1-1v-2l1-1v-1l1-1 1-1 1-1v-1l1-1 1-1c0-3.168 9.558-8 12-8h1l-10.5 9c-4.562 4.562-13.091 23.317-9.5 30.5 1.229 2.458.794 5.587 2 8 5.154 10.308 9.878 20.757 15 31 3.751 7.502-2.197 28.151 8.5 33.5l12 6c9.665 4.832 20.035-6.571 23.5-13.5 7.707-15.414 2.295-48.59 8-60 1.837-3.674.097-9.194 2-13 1.272-2.544-.326-6.347 1-9 3.312-6.625-6-18.322-6-22.5h1c3.05 0 6 6.481 6 9.5l1.5 4.5.5-4.5c0-1.949 3.536-9.5 6-9.5h2c0 2.189-4.858 9.216-6 11.5-2.414 4.828.05 19.101 2 23l1 15c2.933 5.866-1.876 15.247 1 21 4.81 9.619 1.162 23.324 6 33 2.511 5.021 7.077 11.788 12.5 14.5 7.559 3.78 24.189-3.878 27.5-10.5 3.924-7.848 1.847-22.693 4-27 4.78-9.56 9.142-19.284 14-29 2.269-4.538 1.723-10.447 4-15 2.645-5.291-5.805-21.61-8-26l-6-6-9-5.5h1c3.25 0 16 6.695 16 11l2 2v1l2 2v2l1 1v1l1 2v3l1 2v2c0 1.048-.473 3 1 3v4c0 1.235-.643 5 1 5v1c0 1.406-.714 7 1 7v6c-1.658 0-1.209 10.917-2 12.5-4.452 8.904-6 26.666-6 37.5Z"/><path fill="#99D2BD" id="OLF" d="m161 125-1 1 1-1ZM160 126l-1 1 1-1ZM297 127l2 2-2-2ZM159 128l-1 1 1-1ZM157 130l-1 1 1-1ZM299 130l2 2-2-2ZM156 132l-1 1 1-1ZM301 134l1 1-1-1ZM155 135l-1 1 1-1ZM302 136l1 2-1-2ZM154 137l-1 2 1-2ZM303 141l1 2-1-2ZM153 143c-1.473 0-1 1.952-1 3 1.473 0 1-1.952 1-3ZM304 145c1.473 0 1 1.952 1 3-1.473 0-1-1.952-1-3ZM152 147c-1.579 0-1 2.855-1 4 1.579 0 1-2.855 1-4ZM305 152c1.643 0 1 3.765 1 5-1.643 0-1-3.765-1-5ZM151 155c-1.643 0-1 3.765-1 5 1.643 0 1-3.765 1-5ZM306 158c1.714 0 1 5.594 1 7-1.714 0-1-5.594-1-7ZM150 161c-1.643 0-1 3.765-1 5v17.5c0 7.307-2.889 20.221 0 26l3 2c.89 1.781 2.168 8.5 5 8.5 0-20.955-7-37.727-7-59ZM307 171c1.032 0-1.122 11.255 0 13.5 2.384 4.768 2.376 20.249 0 25l-3 3-5 8.5c0-10.834 1.548-28.596 6-37.5.791-1.583.342-12.5 2-12.5ZM157 221l1 1-1-1Z"/></svg>