<svg xmlns="http://www.w3.org/2000/svg" viewBox="0 0 456 320"><path fill="#187F60" id="SSp-ll1" d="M131 34c0 3.04 2 2.477 2 5l14.5-6c8.123-4.062 19.726-4 29.5-4l1-1 1-6c-13.763 0-27.984 3.242-39.5 9-1.479.74-8.5.967-8.5 3Z"/><path fill="#1E9D5A" id="MOp1" d="m199 27-21 1 1-6h20v5Z"/><path fill="#1E9C59" id="MOs1" d="m227 37-4 2-8.5-9c-4.995-2.498-9.384-3-15.5-3v-5l12.5 1c2.23 1.115 15.5 11.523 15.5 14ZM230 37c1.24 0 1.576 2 4 2l6.5-8c5.976-2.988 10.148-4 17.5-4l-1-5c-10.922 0-15.741 3.24-23 10.5l-4 4.5Z"/><path fill="#1E9D5A" id="MOp1" d="M258 27c7.286 0 14.326 2 21 2l-2-7h-20l1 5Z"/><path fill="#187F60" id="SSp-ll1" d="m326 34-3 5-14.5-6c-8.123-4.062-19.726-4-29.5-4l-2-7c7.441 0 26.637 2.069 32.5 5 3.22 1.61 13.371 7 16.5 7Z"/><path fill="#1F9C58" id="MOp2/3" d="m175 41-1 4c5.286 0 13.54-8 23-8v-1l2-9-21 1-1 1c0 4.475-2 7.225-2 12Z"/><path fill="#1E9D58" id="MOs2/3" d="M216 44h1c0-1.617 4.583-4 6-4v-1l-8.5-9c-4.995-2.498-9.384-3-15.5-3l-2 9c4.913 0 19 .76 19 8ZM234 40l6 3 6.5-6c3.042-1.521 11.238 0 13.5 0 0-3.119-2-6.279-2-10-7.352 0-11.524 1.012-17.5 4l-6.5 8v1Z"/><path fill="#1F9C58" id="MOp2/3" d="m282 41 1 5c-4.143 0-14.179-9-23-9 0-3.119-2-6.279-2-10 7.286 0 14.326 2 21 2 0 .552 2.082 12 3 12Z"/><path fill="#1E9D5A" id="MOp1" d="m178 28-1 1 1-1Z"/><path fill="#187F64" id="SSp-ll2/3" d="M175 41c-11.128 0-28.094 10-36 10l-6-12 14.5-6c8.123-4.062 19.726-4 29.5-4 0 4.475-2 7.225-2 12ZM282 41c3.7 0 22.352 4.426 25.5 6 2.922 1.461 6.023 4 9.5 4 0-3.715 6-7.596 6-12l-14.5-6c-8.123-4.062-19.726-4-29.5-4 0 .552 2.082 12 3 12Z"/><path fill="#197E64" id="SSp-ul1" d="m113 42 1 6 19-9c0-2.523-2-1.96-2-5-6.404 0-11.936 8-18 8ZM344 43c-.672 0-2 4.33-2 5l-19-9 3-5c4.753 0 10.363 4.931 14.5 7 1.158.58 3.5-.341 3.5 2Z"/><path fill="#1F9D58" id="MOs5" d="M205 54h1c0-4.561 10-7.025 10-10 0-7.24-14.087-8-19-8v1l-5 15c2.96 0 13-3.552 13 2ZM264 52c-2.618 0-7.472-2.514-10.5-1l-2.5 2c-3.934 0-6.23-9-11-9v-1l6.5-6c3.042-1.521 11.238 0 13.5 0l4 15Z"/><path fill="#1E9C5A" id="MOp5" d="M192 53c-7.462 0-13.476 9-21 9 0-5.5 2-9.38 2-15l1-2c5.286 0 13.54-8 23-8l-5 15v1Z"/><path fill="#3EA665" id="ACAd1" d="M223 62h10c0-7.373 1-15.242 1-22v-1c-2.424 0-2.76-2-4-2-.476 0-3 3.803-3 0l-4 2v23Z"/><path fill="#1E9C5A" id="MOp5" d="m265 53 21 10-3-16v-1c-4.143 0-14.179-9-23-9l4 15 1 1Z"/><path fill="#197F61" id="SSp-ul2/3" d="m139 52-21 9c0-1.32-3.597-12-4-12v-1l19-9 6 12v1ZM317 52c7.982 0 14.193 9 22 9 0-4.878 3-7.675 3-13l-19-9c0 4.404-6 8.285-6 12v1Z"/><path fill="#40A565" id="ACAd2/3" d="m223 62-5 1-1-19c0-1.617 4.583-4 6-4v22ZM233 62l6 1c0-6.244 1-13.428 1-19v-1l-6-3c0 6.758-1 14.627-1 22Z"/><path fill="#1C7F64" id="SSp-ll4" d="M143 58h1c0-1.993 5.2-1.35 6.5-2l22.5-9 1-2 1-4c-11.128 0-28.094 10-36 10v1c1.466 0 4 4.201 4 6ZM317 52l-4 5c-10.451 0-20.822-10-30-10v-1l-1-5c3.7 0 22.352 4.426 25.5 6 2.922 1.461 6.023 4 9.5 4v1Z"/><path fill="#1B8062" id="SSp-un1" d="M103 54h1c0-1.535 8.221-5 10-5v-1l-1-6c-1.301 0-10 4.946-10 6v6ZM354 48c-1.684 0-1 4.68-1 6l-11-6c0-.67 1.328-5 2-5 1.89 0 10 3.078 10 5Z"/><path fill="#3EA566" id="ACAd5" d="m218 63-11 6c0-5.172-1-10.365-1-15 0-4.561 10-7.025 10-10h1l1 19ZM239 64l10 5c0-2.24.165-14 2-14v-2c-3.934 0-6.23-9-11-9 0 5.572-1 12.756-1 19v1Z"/><path fill="#197C63" id="SSp-ll5" d="m171 63-20 7-7-12c0-1.993 5.2-1.35 6.5-2l22.5-9c0 5.62-2 9.5-2 15v1ZM286 63c6.175 0 12.207 6 19 6 3.566 0 4.968-7.437 6-9.5l2-1.5v-1c-10.451 0-20.822-10-30-10l3 16Z"/><path fill="#188060" id="SSp-bfd1" d="M77 66c0 1.478 4.91 2 6 2l14.5-11 5.5-3v-6c-3.519 0-26 16.163-26 18Z"/><path fill="#1C7F63" id="SSp-un2/3" d="M339 62c4.256 0 7.441 5 12 5 0-4.757 2-7.968 2-13l-11-6c0 5.325-3 8.122-3 13v1Z"/><path fill="#188060" id="SSp-bfd1" d="m373 68 2 1c0-1.745 2.336-3 5-3 0-1.126-23.472-18-26-18-1.684 0-1 4.68-1 6l15.5 10 4.5 4Z"/><path fill="#1C7F63" id="SSp-un2/3" d="m118 62-13 6-1-14c0-1.535 8.221-5 10-5 .403 0 4 10.68 4 12v1Z"/><path fill="#1D9C5A" id="MOs6a" d="M195 73c-2.124 0-4.436 1-6 1V62.5l3-9.5v-1c2.96 0 13-3.552 13 2 0 4.43-10 12.135-10 19ZM267 74h1c0-7.718-3-13.892-3-21l-1-1c-2.618 0-7.472-2.514-10.5-1l-2.5 2v2c2.417 0 11 15.626 11 18l5 1Z"/><path fill="#1A7F63" id="SSp-ul4" d="M120 69h1l22-11c0-1.799-2.534-6-4-6l-21 9v1c1.175 0 2 5.704 2 7ZM336 69h1c0-1.774-.273-7 2-7v-1c-7.807 0-14.018-9-22-9l-4 5v1l23 11Z"/><path fill="#1F9B5A" id="MOp6a" d="M177 79c-3.091 0-5.478 2-8 2 0-6.513 2-11.502 2-18v-1c7.524 0 13.538-9 21-9l-3 9.5V74c-1.379 0-12 4.294-12 5ZM268 74c0 1.183 3.57 1.535 4.5 2l14.5 5c0-7.275-1-12.606-1-18l-21-10c0 7.108 3 13.282 3 21Z"/><path fill="#187F63" id="SSp-bfd2/3" d="M83 69c5.655 0 7.91 3 13 3l9-4-1-14h-1l-5.5 3L83 68v1Z"/><path fill="#3FA664" id="ACAd6a" d="m195 73 4 4 8-7v-1c0-5.172-1-10.365-1-15h-1c0 4.43-10 12.135-10 19Z"/><path fill="#187F63" id="SSp-bfd2/3" d="M362 73h1l-1-1.5 4-.5 4.5-3c1.091-.546 2.5 2.151 2.5 0l-4.5-4L353 54c0 5.032-2 8.243-2 13v1l9 4 2 1Z"/><path fill="#3FA664" id="ACAd6a" d="M257 77h1l1-1 1-1 2-2c0-2.374-8.583-18-11-18-1.835 0-2 11.76-2 14v1c1.255 0 8 4.777 8 7Z"/><path fill="#187E62" id="SSp-ul5" d="M151 70c-7.577 0-20.888 11-27 11l-3-12 22-11h1l7 12ZM332 81h1l3-12-23-11-2 1.5c-1.032 2.063-2.434 9.5-6 9.5v1c8.037 0 21.242 11 27 11Z"/><path fill="#40A664" id="ACAv1" d="M233 93h1c0-9.935-1-20.513-1-31h-10c0 10.355-1 21.268-1 31h1c0-1.417 2.383-6 4-6 0-3.153 2-5.347 2-1 2.218 0 4 5.144 4 7Z"/><path fill="#197E61" id="SSp-un4" d="M104 79h1l2.5-2c1.923-.961 12.5-5.909 12.5-8 0-1.296-.825-7-2-7l-13 6v6.5l-3 1.5c0 1.238.423 3 2 3Z"/><path fill="#3FA566" id="ACAv2/3" d="m222 93-3 2c0-10.054-1-21.32-1-32l5-1c0 10.355-1 21.268-1 31ZM234 93l3 2c0-10.022 2-20.352 2-31v-1l-6-1c0 10.487 1 21.065 1 31Z"/><path fill="#197E61" id="SSp-un4" d="M352 79h1l2-3c-3.406 0-4-4.77-4-8v-1c-4.559 0-7.744-5-12-5-2.273 0-2 5.226-2 7l3 2.5 12 7.5Z"/><path fill="#1A7F64" id="SSp-ll6a" d="m169 81-11 3-7-14 20-7c0 6.498-2 11.487-2 18Z"/><path fill="#3EA666" id="ACAv5" d="M211 93c0 2.488 6.101 2 8 2 0-10.054-1-21.32-1-32l-11 6v1c0 7.95 4 15.562 4 23Z"/><path fill="#1A7F64" id="SSp-ll6a" d="M298 85h1c0-5.425 6-9.796 6-15v-1c-6.793 0-12.825-6-19-6 0 5.394 1 10.725 1 18 1.896 0 11 2.08 11 4Z"/><path fill="#3EA666" id="ACAv5" d="M246 93c-2.526 0-5.577 2-9 2 0-10.022 2-20.352 2-31l10 5v1c0 8.308-3 15.16-3 23Z"/><path fill="#197E63" id="SSp-n1" d="M53 107h1c0-6.531 14.543-25.043 19.5-30 2.325-2.325 6.207-8 9.5-8v-1c-1.09 0-6-.522-6-2l-8.5 8C63.025 79.475 49 96.99 49 104l4 3ZM402 107h1l4-3c0-11.918-14.593-21.686-19-30.5l-8-7.5c-2.664 0-5 1.255-5 3l11 10.5c4.401 4.4 16 21.683 16 27.5Z"/><path fill="#1B7F64" id="SSp-n2/3" d="M62 113h1c0-10.071 21.989-40 33-40v-1c-5.09 0-7.345-3-13-3-3.293 0-7.175 5.675-9.5 8-4.957 4.957-19.5 23.469-19.5 30l8 6Z"/><path fill="#197C64" id="SSp-bfd4" d="m96 73 6 3 3-1.5V68l-9 4v1ZM360 73c-2.364 0-3.053 3-5 3-3.406 0-4-4.77-4-8l9 4v1Z"/><path fill="#1B7F64" id="SSp-n2/3" d="M394 113h1l7-6c0-5.817-11.599-23.1-16-27.5L375 69l-2-1c0 2.151-1.409-.546-2.5 0l-4.5 3-4 .5 1 1.5 3.5 2 8.5 7.5c5.746 5.746 19 22.967 19 30.5Z"/><path fill="#197D62" id="SSp-un5" d="M111 88h1l12-6v-1l-3-12h-1c0 2.091-10.577 7.039-12.5 8l-2.5 2c0 3.882 6 5.862 6 9ZM333 81c0 1.944 10.115 7 12 7 0-2.416 7-5.026 7-9l-12-7.5-3-2.5h-1l-3 12Z"/><path fill="#197D61" id="SSp-ul6a" d="M130 97h2c0-1.014 3.959-2 5-2 0-1.845 3.381-1.44 4.5-2 4.893-2.446 10.761-8 16.5-8v-1l-7-14c-7.577 0-20.888 11-27 11v1c1.915 0 5 12.725 5 15h1Z"/><path fill="#40A564" id="ACAv6a" d="M210 93h1c0-7.438-4-15.05-4-23l-8 7c0 4.991 9 8.6 9 14l2 2ZM246 93h1l1-2c0-2.195 3.089-6 5-6l4-8c0-2.223-6.745-7-8-7 0 8.308-3 15.16-3 23Z"/><path fill="#197D61" id="SSp-ul6a" d="M299 85c7.889 0 18.937 12 28 12 0-5.41 5-10.76 5-16-5.758 0-18.963-11-27-11 0 5.204-6 9.575-6 15Z"/><path fill="#1B7F64" id="SSp-n2/3" d="M360 73h2l-2-1v1Z"/><path fill="#1A8062" id="SSp-n4" d="M68 118h1c0-8.896 17.472-24.972 24-31.5 1.75-1.75 11-5.171 11-7.5-1.577 0-2-1.762-2-3l-6-3c-11.011 0-33 29.929-33 40l5 5Z"/><path fill="#1E9C58" id="MOs6b" d="m194 74-5 1v-1c1.564 0 3.876-1 6-1l-1 1Z"/><path fill="#3FA466" id="ACAd6b" d="M198 77h1l-4-4-1 1 4 3ZM262 74l-2 1 2-2v1Z"/><path fill="#1E9C58" id="MOs6b" d="M267 74v1l-5-1v-1l5 1Z"/><path fill="#1A8062" id="SSp-n4" d="M394 113c0 1.617-4.583 4-6 4l-3-5.5-12-16c-1.594-3.188-20-15.598-20-16.5l2-3c1.947 0 2.636-3 5-3h3l3.5 2 8.5 7.5c5.746 5.746 19 22.967 19 30.5Z"/><path fill="#1D9D5A" id="MOp6b" d="M189 75c0 2.465-9.617 4-12 4 0-.706 10.621-5 12-5v1Z"/><path fill="#CACCC7" id="cing" d="m208 91 2 2c-8.295 0-10.684-8.592-17.5-12-7.512-3.756-16.95 4-23.5 4h-6l6-3c1.4 0 8-1.431 8-3 2.383 0 12-1.535 12-4l5-1 4 3c0 2.6 8.137 14 10 14ZM248 91l-1 2c7.216 0 11.453-8.976 17.5-12 7.223-3.611 16.289 4 22.5 4h7c0-2.942-7-.898-7-3-5.062 0-16.898-7-20-7l-5-1-2 1-1 1-1 1c0 1.738-3.015 8-5 8 0 1.668-3.099 6-5 6Z"/><path fill="#1D9D5A" id="MOp6b" d="M287 81v1c-5.062 0-16.898-7-20-7v-1h1c0 1.183 3.57 1.535 4.5 2l14.5 5Z"/><path fill="#3FA466" id="ACAd6b" d="m260 75-1 1 1-1ZM259 76l-1 1 1-1Z"/><path fill="#40A465" id="ACAv6b" d="M199 77c0 4.991 9 8.6 9 14-1.863 0-10-11.4-10-14h1ZM258 77c0 1.738-3.015 8-5 8l4-8h1Z"/><path fill="#197E62" id="SSp-n5" d="M77 125h1c0-6.51 13.316-24.908 19.5-28 2.46-1.23 13.5-5.38 13.5-9 0-3.138-6-5.118-6-9h-1c0 2.329-9.25 5.75-11 7.5-6.528 6.528-24 22.604-24 31.5 0 3.157 8 2.706 8 7Z"/><path fill="#1D9D5A" id="MOp6b" d="M169 81v1c1.4 0 8-1.431 8-3-3.091 0-5.478 2-8 2Z"/><path fill="#197E62" id="SSp-n5" d="m388 119-9 4c-2.224 0-5.113-8.726-6-10.5-3.072-6.143-21.608-23.5-28-23.5v-1c0-2.416 7-5.026 7-9h1c0 .902 18.406 13.312 20 16.5l12 16 3 5.5v2Z"/><path fill="#197F62" id="SSp-ll6b" d="m163 85-5 1v-2l11-3v1l-6 3Z"/><path fill="#C9C7C9" id="ccb" d="M373 156c0 6.15 4 10.85 4 17-.83 0-2.466-6.431-3-7.5-4.438-8.876-8.51-18.019-13-27-7.129-14.258-26.435-28.467-40.5-35.5-5.887-2.943-13.28-1-19.5-1 0-5.276-9.848-9-14-9h-1c0-1.014-3.959-2-5-2-5.987 0-11.554-.473-16.5 2-2.612 1.306-8.885 8-11.5 8l-2 1h-6c0-1.802-5.811-2-7.5-2H217c-1.357 0-6 .647-6 2h-5l-2-1-15.5-10H175l-2 1-2 1h-2c-6.838 0-12.372 9-14 9-5.969 0-13.794-1.853-19.5 1-12.848 6.424-31.241 18.982-38.5 33.5-3.62 7.239-8.402 13.804-12 21-.876 1.752-1.293 9.5-4 9.5l3-12 1-1v-2l1-2 1-1v-1l1-2 1-2 4-8c1.577 0 2-1.762 2-3l1-2 8-9.5c7.896-7.896 15.339-14.919 24.5-19.5 9.874-4.937 21.03-7.015 31-12l9.5-5c6.55 0 15.988-7.756 23.5-4 6.816 3.408 9.205 12 17.5 12h1c0 2.488 6.101 2 8 2l3-2h1c0 1.206 10 1.206 10 0h1l3 2c3.423 0 6.474-2 9-2h1c7.216 0 11.453-8.976 17.5-12 7.223-3.611 16.289 4 22.5 4 0 2.477 10.541 5.02 12.5 6 12.104 6.052 24.827 9.913 37 16 8.212 4.106 22.309 20.119 26.5 28.5.865 1.731 4.039 11.5 6 11.5v1l2 3v2l1 1v1l1 1Z"/><path fill="#197F62" id="SSp-ll6b" d="M298 85v1l-4-1c0-2.942-7-.898-7-3v-1c1.896 0 11 2.08 11 4Z"/><path fill="#1A7F61" id="SSp-un6a" d="M327 98c2.892 0 4.781 3 8 3 4.303 0 5.054-12 10-12v-1c-1.885 0-12-5.056-12-7h-1c0 5.24-5 10.59-5 16v1ZM129 97c0 1.562-6.653 5-8 5 0-5.209-9-9.116-9-14l12-6c1.915 0 5 12.725 5 15Z"/><path fill="#1C8064" id="SSp-ul6b" d="M158 86c-7.038 0-13.166 9-21 9 0-1.845 3.381-1.44 4.5-2 4.893-2.446 10.761-8 16.5-8v1Z"/><path fill="#C9C9CA" id="scwm" d="m97 127-1 4 8-9.5c7.896-7.896 15.339-14.919 24.5-19.5 9.874-4.937 21.03-7.015 31-12l9.5-5h-6l-5 1c-7.038 0-13.166 9-21 9 0 2.46-3.378 2-5 2l-2 2-9 4c0 1.577-1.762 2-3 2l-1 1-20 21Z"/><path fill="#40A465" id="ACAv6b" d="M253 85c-1.911 0-5 3.805-5 6 1.901 0 5-4.332 5-6Z"/><path fill="#C9C9CA" id="scwm" d="m365 136 4 11c-1.961 0-5.135-9.769-6-11.5-4.191-8.381-18.288-24.394-26.5-28.5-12.173-6.087-24.896-9.948-37-16-1.959-.98-12.5-3.523-12.5-6h7l4 1c8.058 0 18.582 12 28 12 0 1.406 7.52 5 9 5l19.5 18c3.493 1.746 6.201 15 10.5 15Z"/><path fill="#1C8064" id="SSp-ul6b" d="M326 98h1v-1c-9.063 0-20.111-12-28-12h-1v1c8.058 0 18.582 12 28 12Z"/><path fill="#7ED04B" id="IG" d="M223 93c0 1.206 10 1.206 10 0 0-1.856-1.782-7-4-7l-2 1c-1.617 0-4 4.583-4 6Z"/><path fill="#187D62" id="SSp-n6a" d="M91 135h1c0-1.738 3.015-8 5-8 0-2.987 16.984-21 20-21l1-1 3-3c0-5.209-9-9.116-9-14h-1c0 3.62-11.04 7.77-13.5 9-6.184 3.092-19.5 21.49-19.5 28 1.364 0 13 7.776 13 10ZM379 125c-5.85 0-9.1 10-14 10 0-6.189-17.017-21.517-21-25.5-2.146-2.146-6.006-7.5-9-7.5v-1c4.303 0 5.054-12 10-12 6.392 0 24.928 17.357 28 23.5.887 1.774 3.776 10.5 6 10.5v2Z"/><path fill="#AAA8A9" id="SEZ" d="m175 91-2 1 2-1Z"/><path fill="#A8AAAA" id="VL" fill-rule="evenodd" d="m191 97-4 3.5-4 11c-1.933 3.866-17.098 12.701-7.5 17.5l8-5c5.125-2.562 24.362-18.819 14-24-2.69-1.345-3.155-3-6.5-3m9 18c-.146 0-9.625 9.063-11.5 10-2.131 1.065-8.341 2.181-9.5 4.5l-8 10.5c0-5.702 1.84-14.821-1-20.5-1.316-2.632-11-14.774-11-15.5 0-10.713 10-8.113 10-11h2l2-1 2-1h13.5l15.5 10-1 2-3 12ZM263 97c0 2.046-9.312 3.875-7 8.5 2.035 4.071 4.921 7.843 7 12 1.444 2.888 6.103 4.301 8.5 5.5 2.957 1.479 5.723 4.862 8 6 3.053 1.527 4.545-5.409 3.5-7.5l-10-11-4-11c-.745-1.49-4.272-2.5-6-2.5m-7 18 3.5 4c5.157 2.579 9.626 5.313 15 8l6 6 4.5 6c0-7.023-.922-14.656 2-20.5l10-14.5 1-1c0-7.535-11-8.838-11-10h-1c-1.424 0-5-.362-5-2-5.987 0-11.554-.473-16.5 2-2.612 1.306-8.885 8-11.5 8v2c0 3.864 3 7.732 3 12Z"/><path fill="#AAA8A9" id="SEZ" d="M281 91c1.041 0 5 .986 5 2-1.424 0-5-.362-5-2ZM173 92l-2 1 2-1ZM155 102l4 2c0-10.713 10-8.113 10-11-6.838 0-12.372 9-14 9ZM301 102c0 1.473-1.952 1-3 1 0-7.535-11-8.838-11-10 4.152 0 14 3.724 14 9Z"/><path fill="#1C8064" id="SSp-ul6b" d="M137 95c-1.041 0-5 .986-5 2 1.622 0 5 .46 5-2Z"/><path fill="#1A7D63" id="SSp-un6b" d="M121 102v1l9-4v-2h-1c0 1.562-6.653 5-8 5Z"/><path fill="#1C8064" id="SSp-ul6b" d="m132 97-2 2v-2h2Z"/><path fill="#A9AAA8" id="chpl" d="m191 97-4 3.5-4 11c-1.933 3.866-17.098 12.701-7.5 17.5l8-5c5.125-2.562 24.362-18.819 14-24-2.69-1.345-3.155-3-6.5-3ZM263 97c0 2.046-9.312 3.875-7 8.5 2.035 4.071 4.921 7.843 7 12 1.444 2.888 6.103 4.301 8.5 5.5 2.957 1.479 5.723 4.862 8 6 3.053 1.527 4.545-5.409 3.5-7.5l-10-11-4-11c-.745-1.49-4.272-2.5-6-2.5Z"/><path fill="#1A7D63" id="SSp-un6b" d="M335 102v1c-1.48 0-9-3.594-9-5h1c2.892 0 4.781 3 8 3v1Z"/><path fill="#CBC8CC" id="df" d="M216 103c4.311 0 7.92 1.21 11.5 3l4-2 9.5-1 4-1c0-1.802-5.811-2-7.5-2H217c-1.357 0-6 .647-6 2l5 1Z"/><path fill="#98D5F9" id="CP" d="M109 234h1l13-1h1l2-1 1-1 10-7v-10c0-11.113-2.703-28.094 2-37.5 1.102-2.204 9-11.284 9-12.5 0-.922 2.496-8 3-8v-3c0-1.622-.461-5 2-5 0-3.35 11.818 1 13 1h2l3-7v-2c0-5.702 1.84-14.821-1-20.5-1.316-2.632-11-14.774-11-15.5l-4-2c-5.969 0-13.794-1.853-19.5 1-12.848 6.424-31.241 18.982-38.5 33.5-3.62 7.239-8.402 13.804-12 21-.876 1.752-1.293 9.5-4 9.5v1c0 1.048.473 3-1 3v2l1 16.5c1.556 3.111 4 6.805 4 10.5v1c1.963 0 4.244 6.988 5 8.5 2.9 5.801 10.773 23.5 18 23.5l1 1ZM330 231c2.77 0 10.571 3 17 3 5.346 0 11.049-12 14-12 0-1.465-.109-4 2-4 0-1.465-.109-4 2-4 0-1.424.362-5 2-5l4-8c0-1.424.362-5 2-5v-1l2-4c0-1.407 1.182-14 2-14v-4c-.83 0-2.466-6.431-3-7.5-4.438-8.876-8.51-18.019-13-27-7.129-14.258-26.435-28.467-40.5-35.5-5.887-2.943-13.28-1-19.5-1 0 1.473-1.952 1-3 1l-1 1-10 14.5c-2.922 5.844-2 13.477-2 20.5v3l4 7h1c3.359 0 15-5.888 15 2v2c.745 0 3 9.679 3 11 2.187 0 6.133 7.765 7 9.5 6.017 12.033 4 28.064 4 42.5 0 2.707 1 5.903 1 8 4.056 0 5.494 7 10 7Z"/><path fill="#1B7E64" id="SSp-n6b" d="M121 103c0 1.577-1.762 2-3 2l3-3v1Z"/><path fill="#90CBEC" id="LSc" d="M200 115c0 3.087 6.96 2 9 2 0-4.159 6-8.017 6-13-1.041 0-5-.986-5-2h-4l-3 1-3 12ZM256 115c0 3.087-6.96 2-9 2 0-3.939-5-8.157-5-13l4-2h5l2 1c0 3.864 3 7.732 3 12Z"/><path fill="#1B7E64" id="SSp-n6b" d="M365 135v1c-4.299 0-7.007-13.254-10.5-15L335 103v-1c2.994 0 6.854 5.354 9 7.5 3.983 3.983 21 19.311 21 25.5Z"/><path fill="#8FCBEC" id="SF" fill-rule="evenodd" d="M220 105c0 .339-7.916 6.669-4 14.5.586 1.173 5.054 2.223 6.5 1.5 4.809-2.404 16.343 1.814 18.5-2.5 1.503-3.006-.763-15.869-5.5-13.5-7.605 3.802-9.016 0-15.5 0m-11 26 2.5-2c2.275-1.137 5.617.192 8-1l26 1 2.5 2-3-6.5c-1.65-3.301 2-6.145 2-7.5 0-3.939-5-8.157-5-13l-1-1-9.5 1-4 2c-3.58-1.79-7.189-3-11.5-3l-1 1c0 4.983-6 8.841-6 13 6.242 0 0 11.597 0 14Z"/><path fill="#AAA8A9" id="SEZ" d="m298 103-1 1 1-1Z"/><path fill="#1A7E62" id="SSs1" d="M33 174h5c0-11.173 2.547-35.595 7-44.5 2.846-5.693 8-16.041 8-22.5l-4-3c0 2.034-8.509 22.518-10 25.5-3.534 7.069-6 35.309-6 44.5ZM418 174h5c0-18.164-2.375-39.25-10-54.5-1.176-2.351-2.851-15.5-6-15.5l-4 3c0 4.814 6.648 19.795 9 24.5 4.431 8.861 6 31.266 6 42.5Z"/><path fill="#1B7E64" id="SSp-n6b" d="m118 105-1 1 1-1Z"/><path fill="#96A7D2" id="TRS" d="M220 105c0 .339-7.916 6.669-4 14.5.586 1.173 5.054 2.223 6.5 1.5 4.809-2.404 16.343 1.814 18.5-2.5 1.503-3.006-.763-15.869-5.5-13.5-7.605 3.802-9.016 0-15.5 0Z"/><path fill="#1B7E64" id="SSp-n6b" d="M117 106c-3.016 0-20 18.013-20 21l20-21Z"/><path fill="#1B8063" id="SSs2/3" d="M38 174h8c0-11.673 5.208-35.916 10-45.5l6-15.5-8-6h-1c0 6.459-5.154 16.807-8 22.5-4.453 8.905-7 33.327-7 44.5ZM411 174h7c0-11.234-1.569-33.639-6-42.5-2.352-4.705-9-19.686-9-24.5h-1l-7 6c0 5.614 3.615 11.731 6 16.5 3.935 7.869 10 35.02 10 44.5Z"/><path fill="#187C63" id="SSs4" d="m46 174 6 1c0-9.516 3.024-29.547 7-37.5l9-19.5-5-5h-1l-6 15.5c-4.792 9.584-10 33.827-10 45.5ZM411 174l-6 1c0-12.699-5.573-33.647-11-44.5-.929-1.859-3.697-11.5-6-11.5v-2c1.417 0 6-2.383 6-4h1c0 5.614 3.615 11.731 6 16.5 3.935 7.869 10 35.02 10 44.5Z"/><path fill="#CBC8CB" id="fi" d="M172 143c2.532 0 6.258 6.621 11.5 4l10.5-4 1-1 11-5 1-1v-1l1-3 1-1c0-2.403 6.242-14 0-14-2.04 0-9 1.087-9-2-.146 0-9.625 9.063-11.5 10-2.131 1.065-8.341 2.181-9.5 4.5l-8 10.5v2l1 1ZM285 143l-1 1c-2.935 0-6.006 5.247-10.5 3l-10.5-4h-1l-1-1-10-5-2-2-1-4-3-6.5c-1.65-3.301 2-6.145 2-7.5 2.04 0 9 1.087 9-2l3.5 4c5.157 2.579 9.626 5.313 15 8l6 6 4.5 6v4Z"/><path fill="#1C8063" id="SSs5" d="M52 175h12c0-10.158 2.785-27.071 7-35.5l6-14.5c0-4.294-8-3.843-8-7h-1l-9 19.5c-3.976 7.953-7 27.984-7 37.5ZM392 175h13c0-12.699-5.573-33.647-11-44.5-.929-1.859-3.697-11.5-6-11.5l-9 4v2c0 2.976 4.588 9.675 6 12.5 4.15 8.3 7 27.165 7 37.5Z"/><path fill="#197D63" id="SSs6a" d="M64 175h13c0-5.798 7.281-27.063 10-32.5l4-7.5c0-2.224-11.636-10-13-10h-1l-6 14.5c-4.215 8.429-7 25.342-7 35.5ZM379 175h13c0-10.335-2.85-29.2-7-37.5-1.412-2.825-6-9.524-6-12.5-5.85 0-9.1 10-14 10v1c2.93 0 4.065 7.629 5 9.5 3.939 7.878 9 20.372 9 29.5Z"/><path fill="#1B7E64" id="SSp-n6b" d="M92 136h1c0-1.238.423-3 2-3l1-2 1-4c-1.985 0-5 6.262-5 8v1Z"/><path fill="#C8C9C9" id="vhc" d="M246 135h3l-1-4-2.5-2-26-1c-2.383 1.192-5.725-.137-8 1l-2.5 2-1 1-1 3h4c0-1.353 4.643-2 6-2h21c1.593 0 7 .337 7 2h1Z"/><path fill="#C9C9CA" id="scwm" d="m96 131-1 2 1-2Z"/><path fill="#8FCBEC" id="SF" d="m209 131-1 1 1-1Z"/><path fill="#C9C9CA" id="scwm" d="M95 133c-1.577 0-2 1.762-2 3 1.577 0 2-1.762 2-3Z"/><path fill="#1A8061" id="SSs6b" d="M77 175h2v-2l1-2c0-1.048-.473-3 1-3v-1l3-12 1-1v-2l1-2 1-1v-1l1-2 1-2c0-3.238 3-5.3 3-8v-1h-1l-4 7.5c-2.719 5.437-10 26.702-10 32.5Z"/><path fill="#A8A9AA" id="V3" d="M215 159c3.587 0 9.677 2 13.5 2 2.247 0 9.27-2 13.5-2l2-1 12-6c0-2.004 5.378-5 7-5v-4h-1l-1-1-10-5c-1.041 0-5-.986-5-2h-1c-3.804 0-9-1.576-9 3 0 9.248-15 9.588-15 0l-1.5-3H211c0 1.579-2.855 1-4 1l-1 1-11 5-1 1v4l6 4c3.611 0 7.912 7 12 7l3 1Z"/><path fill="#C9C9CA" id="scwm" d="m93 136-4 8c0-3.238 3-5.3 3-8h1Z"/><path fill="#1A8061" id="SSs6b" d="M377 175h2c0-9.128-5.061-21.622-9-29.5-.935-1.871-2.07-9.5-5-9.5l4 11v1c1.577 0 2 1.762 2 3v2l1 1v1l1 1c0 6.15 4 10.85 4 17v2Z"/><path fill="#FF5347" id="SFO" d="M221 138c0 9.588 15 9.248 15 0-2.72 0-6.029 1-10 1-1.238 0-5-3.402-5-1Z"/><path fill="#97D6F9" id="STR" d="m172 149-2 1-2-1 3-7 1 1v6ZM289 149l-2 1-2-1-1-5 1-1v-1l4 7Z"/><path fill="#C9C9CA" id="scwm" d="m89 144-1 2 1-2ZM88 146l-1 2 1-2Z"/><path fill="#97D6F9" id="STR" d="m165 152-5 1-1-1c0-3.351-3.25-4-6-4 0-3.35 11.818 1 13 1l-1 3Z"/><path fill="#FF6F80" id="TH" d="m195 154 2.5-2 2.5 5v-6l-6-4c0 1.473-1.952 1-3 1 0 1.417 2.383 6 4 6ZM257 155c1.028 0 4-5.746 4 0l5-7c-1.048 0-3 .473-3-1-1.622 0-7 2.996-7 5l1 3Z"/><path fill="#97D6F9" id="STR" d="M305 151c-1.465 0-1.711-4.394-4.5-3l-4.5 5c-2.25 0-3.376-2-5-2l-1-2c3.359 0 15-5.888 15 2ZM153 148c-2.461 0-2 3.378-2 5 1.014 0 2-3.959 2-5Z"/><path fill="#CCC" d="m151 164 6 5.5c2.582 5.164 8 11.412 8 17.5 2.313 0 4.59 19 6.5 19l.5-3.5c1.562-3.124 1-7.259 1-11 0-7.678-4.738-16.475-8-23v-7l-5-8.5-1-1c0-3.351-3.25-4-6-4 0 1.041-.986 5-2 5v11Z"/><path fill="#FD909E" id="AV" d="m195 173-7 1-3-2v-1l-2-4v-1l-2-2v-2l-2-3v-1l-3-7c0-3.522 11.542-3 15-3 0 1.417 2.383 6 4 6v1c0 1.238.423 3 2 3v1c0 3.398 3 5.785 3 10l-5 4ZM271 173l-2 1-8-1-5-5v-3l2-4 1-2 1-1 1-2v-1l5-7c2.24 0 14 .165 14 2l-1 6-1 1v1l-1 1v1l-1 1v1l-1 1-1 3-1 1v2l-1 1-1 2v1Z"/><path fill="#CCC" d="M305 164c0 .929-14 16.779-14 24-1.866 0-4 11.529-4 13.5l-1.5 4.5c-1.358 0-3.378-11.743-2.5-13.5 1.494-2.989.535-7.07 2-10 2.648-5.297 4.379-10.757 7-16l-1-3 5-10.5 4.5-5c2.789-1.394 3.035 3 4.5 3v13Z"/><path fill="#C9C9CA" id="scwm" d="M369 148c1.577 0 2 1.762 2 3l-2-3ZM87 149l-1 1 1-1Z"/><path fill="#C8CBC7" id="st" d="m169 163 2 1c1.773 0 1-9.259 1-11l-2-3-2-1h-2l-1 3c0 3.817 3 6.124 3 9l1 1v1Z"/><path fill="#CAC7CB" id="fiber tracts" d="M172 153h1v-1l-1-3-2 1 2 3ZM283 153l1 1 3-4-2-1c0 1.481-2 .785-2 3v1Z"/><path fill="#C8CBC7" id="st" d="M285 164h1l1-1 1-2 1-1c0-2.526 2-5.577 2-9l-1-2h-1l-2 1-3 4c0 2.69 1 6.675 1 10Z"/><path fill="#C9C9CA" id="scwm" d="m86 150-1 2 1-2Z"/><path fill="#FF6F80" id="TH" d="M283 153c-2.618 0-1.651 3-4 3l1-6 3 2v1ZM173 153c3.506 0 3.428 5 6 5l-3-7-3 1v1Z"/><path fill="#CCC9C8" id="sm" d="m208 168-1 2c-5.088 0-6-3.159-6-8l-1-5v-6c3.611 0 7.912 7 12 7v3c-1.429 0-4 5.478-4 7Z"/><path fill="#8599CC" id="PAL" d="M295 217c-6.632 0-6.462 7-8 7-1.59 0-1.443-4.386-2-5.5l-9.5-14.5c-1.053-1.053-.047-4-2.5-4 0-3.431-1.939-1-4-1v-4l3-2 4.5 2c5.871-2.936 8.5-22.621 8.5-30l1-1 1-1 1-2 1-1c0-2.526 2-5.577 2-9 1.624 0 2.75 2 5 2l-5 10.5 1 3c-2.621 5.243-4.352 10.703-7 16-1.465 2.93-.506 7.011-2 10-.878 1.757 1.142 13.5 2.5 13.5l1.5-4.5c0-1.971 2.134-13.5 4-13.5 0 4.114-4.059 11.381-2 15.5 1.357 2.714.677 6.355 2 9 1.229 2.458 4 1.773 4 4.5Z"/><path fill="#CAC7CB" id="fiber tracts" d="m159 152 1 1-1-1Z"/><path fill="#8599CC" id="PAL" d="M161 217c4.46 0 8 3.532 8 8 2.334 0 1.341-4.181 2-5.5l9.5-14.5c1.053-1.053.047-4 2.5-4 0-5.896 3.974 0 6 0 0-1.714-2-3.482-2-6l-3-2c-1.602 0-2.384 3.058-4.5 2-5.231-2.616-8.5-23.795-8.5-30l-2-2v-1l-1-1c0-2.876-3-5.183-3-9l-5 1 5 8.5v7c3.262 6.525 8 15.322 8 23 0 3.741.562 7.876-1 11l-.5 3.5c-1.91 0-4.187-19-6.5-19 0 5.156 4.946 14.608 2 20.5-.871 1.743-6 7.998-6 9.5Z"/><path fill="#FF8F9E" id="AD" d="M197 159c2.349 0 1.382 3 4 3l-1-5-2.5-5-2.5 2v1l2 3v1Z"/><path fill="#CCC9C8" id="sm" d="M256 165c-1.248 0-2.889 5-7 5 0-2.221-2.004-9-5-9v-3l12-6 1 3-1 7v3Z"/><path fill="#FF8F9E" id="AD" d="m258 161-2 1 1-7c1.028 0 4-5.746 4 0v1l-1 2-1 1-1 2Z"/><path fill="#FD8F9F" id="RT" d="M187 177c0 3.28 1.32 16-3 16-1.602 0-2.384 3.058-4.5 2-5.231-2.616-8.5-23.795-8.5-30v-1c1.773 0 1-9.259 1-11h1c3.506 0 3.428 5 6 5v1c0 1.238.423 3 2 3v2l2 2v1l2 4v1l2 4v1ZM269 180c0 2.744-.289 13 3 13l4.5 2c5.871-2.936 8.5-22.621 8.5-30v-1c0-3.325-1-7.31-1-10l-1-1c-2.618 0-1.651 3-4 3l-1 1v1l-1 1v1l-1 1v1l-1 1-1 3-1 1v2l-1 1-1 2v1l-2 4v3Z"/><path fill="#97D6F9" id="STR" d="M305 164h3c0-1.321-2.255-11-3-11v11Z"/><path fill="#C9C9CA" id="scwm" d="m371 153 1 1-1-1ZM85 154l-1 1 1-1Z"/><path fill="#FF6F80" id="TH" d="m195 155 2 3c-1.577 0-2-1.762-2-3Z"/><path fill="#C9C9CA" id="scwm" d="m372 155 1 1-1-1Z"/><path fill="#97D6F9" id="STR" d="M148 164h3v-8c-.504 0-3 7.078-3 8Z"/><path fill="#FF6F80" id="TH" d="m261 156-1 2 1-2ZM279 156l-1 1 1-1ZM212 161h3v-2l-3-1v3Z"/><path fill="#FE8F9E" id="PVT" d="M220 199h17c0-5.141-4.968-14.564-2-20.5 1.219-2.438 7-15.613 7-17.5v-2c-4.23 0-11.253 2-13.5 2-3.823 0-9.913-2-13.5-2v2c0 4.19 4.08 12.66 6 16.5 3.033 6.067-2 16.171-2 20.5l1 1Z"/><path fill="#FF6F80" id="TH" d="M242 161h2v-3l-2 1v2ZM260 158l-1 1 1-1ZM278 158l-1 1 1-1ZM179 159l2 3c-1.577 0-2-1.762-2-3ZM203 172h4v-2c-5.088 0-6-3.159-6-8-2.618 0-1.651-3-4-3 0 3.398 3 5.785 3 10l3 3ZM259 159l-1 2 1-2ZM277 160l-1 1 1-1Z"/><path fill="#B3C0DE" id="BST" d="m289 160-1 1 1-1ZM168 161l1 1-1-1Z"/><path fill="#FF909F" id="PT" d="m219 199-2 1c-12.268 0-10-3.419-10-14v-16l1-2c0-1.522 2.571-7 4-7h3c0 4.19 4.08 12.66 6 16.5 3.033 6.067-2 16.171-2 20.5v1ZM237 199h1l3.5 2c7.902 3.951 8.5-10.886 8.5-15 0-3.629-1-8.716-1-13v-3c0-2.221-2.004-9-5-9h-2c0 1.887-5.781 15.062-7 17.5-2.968 5.936 2 15.359 2 20.5Z"/><path fill="#FF6F80" id="TH" d="M256 162v3l2-4-2 1Z"/><path fill="#B3C0DE" id="BST" d="m288 161-1 2 1-2Z"/><path fill="#FF6F80" id="TH" d="m276 162-1 1 1-1Z"/><path fill="#B3C0DE" id="BST" d="M171 164v1l-2-2 2 1ZM287 163l-1 1 1-1Z"/><path fill="#8598CC" id="GPe" d="M139 220c2.097 0 5.293 1 8 1 5.214 0 9.201-4 14-4 0-1.502 5.129-7.757 6-9.5 2.946-5.892-2-15.344-2-20.5 0-6.088-5.418-12.336-8-17.5l-6-5.5h-3c0 1.216-7.898 10.296-9 12.5-4.703 9.406-2 26.387-2 37.5 1.353 0 2 4.643 2 6Z"/><path fill="#FF6F80" id="TH" d="m181 164 2 2-2-2Z"/><path fill="#B3C0DE" id="BST" d="m286 164-1 1v-1h1Z"/><path fill="#8598CC" id="GPe" d="M317 220c-2.097 0-5.293 1-8 1-5.425 0-8.796-4-14-4 0-2.727-2.771-2.042-4-4.5-1.323-2.645-.643-6.286-2-9-2.059-4.119 2-11.386 2-15.5 0-7.221 14-23.071 14-24h3c2.187 0 6.133 7.765 7 9.5 6.017 12.033 4 28.064 4 42.5l-1 2-1 2Z"/><path fill="#FF6F80" id="TH" d="m253 172-4 1v-3c4.111 0 5.752-5 7-5v3l-3 4ZM274 166l-1 1 1-1ZM183 167l2 4-2-4Z"/><path fill="#C9C7C9" id="ccb" d="M81 168c-1.473 0-1 1.952-1 3 1.473 0 1-1.952 1-3Z"/><path fill="#FF6F80" id="TH" d="m208 168-1 2 1-2Z"/><path fill="#FD8D9F" id="AMd" d="M251 186c0 4.666 3.953 2 6 2 0-5.308 4-8.932 4-15l-5-5-3 4c0 5.002-2 8.614-2 14ZM205 186c0 4.885-3.833 2-6 2 0-5.494-4-9.083-4-15l5-4 3 3c0 4.676 2 8.693 2 14Z"/><path fill="#FF6F80" id="TH" d="m273 169-1 1 1-1ZM272 170l-1 2 1-2Z"/><path fill="#C9C7C9" id="ccb" d="M79 173h1v-2l-1 2Z"/><path fill="#FC8E9F" id="IAD" d="M205 186h2v-14h-4c0 4.676 2 8.693 2 14Z"/><path fill="#FF6F80" id="TH" d="m188 174-1 2-2-4 3 2Z"/><path fill="#FC8E9F" id="IAD" d="M250 186h1c0-5.386 2-8.998 2-14l-4 1c0 4.284 1 9.371 1 13Z"/><path fill="#C8CBCC" id="ec" d="M84 200h1c0-3.695-2.444-7.389-4-10.5L80 173h-1v13l1 5 1 2 1 1 1 3 1 2v1Z"/><path fill="#FC909D" id="AMv" d="M187 177c1.781 0 1.348 6.197 2 7.5.953 1.906 10 6.18 10 3.5 0-5.494-4-9.083-4-15l-7 1-1 2v1ZM269 180c-1.154 0-2.386 5.943-4.5 7-3.352 1.676-4.373 1-7.5 1 0-5.308 4-8.932 4-15l8 1v6Z"/><path fill="#FF6F80" id="TH" d="M269 174v3l2-4-2 1Z"/><path fill="#12AD83" id="VISC1" d="m43 199-5 1-3-7.5-2-18.5h5c0 5.957.46 15.418 3 20.5.81 1.619 2 1.471 2 3.5v1Z"/><path fill="#12AC83" id="VISC2/3" d="m55 196-12 2c0-2.029-1.19-1.881-2-3.5-2.54-5.082-3-14.543-3-20.5h8c0 5.651 1.863 21 8 21h1v1Z"/><path fill="#11AC82" id="VISC4" d="M52 175c0 2.421-2.411 6.678-1 9.5l3 10.5c-6.137 0-8-15.349-8-21l6 1Z"/><path fill="#12AD82" id="VISC5" d="M55 195h4l2-1 5-3-2-16H52c0 2.421-2.411 6.678-1 9.5l3 10.5h1ZM402 195h1c0-6.281 2-12.845 2-20h-13c0 5.711-2 11.057-2 16 1.243 0 7 3.006 7 4h5Z"/><path fill="#11AC82" id="VISC4" d="M405 175c0 7.155-2 13.719-2 20 5.063 0 8-16.487 8-21l-6 1Z"/><path fill="#12AC83" id="VISC2/3" d="m402 196 11 2 4-9.5 1-14.5h-7c0 4.513-2.937 21-8 21h-1v1Z"/><path fill="#12AD83" id="VISC1" d="m413 198 5 2c1.183 0 1.535-3.57 2-4.5 2.91-5.819 3-14.56 3-21.5h-5l-1 14.5-4 9.5Z"/><path fill="#11AC83" id="VISC6a" d="M66 191h1l11-5-1-11H64l2 16Z"/><path fill="#11AD82" id="VISC6b" d="M78 186h1v-11h-2l1 11ZM377 186h1c0-3.249 1-7.194 1-11h-2v11Z"/><path fill="#11AC83" id="VISC6a" d="M378 186c4.361 0 7.96 5 12 5 0-4.943 2-10.289 2-16h-13c0 3.806-1 7.751-1 11Z"/><path fill="#FF6F80" id="TH" d="M213 209c2.483 0 4.026 2 6 2l-4-7.5 2-3.5c-12.268 0-10-3.419-10-14h-2c0 4.885-3.833 2-6 2 0 2.68-9.047-1.594-10-3.5-.652-1.303-.219-7.5-2-7.5 0 3.28 1.32 16-3 16l3 2 2.5-3c6.108-3.054 10.5 4.253 10.5 9l13 8Z"/><path fill="#C8CBCC" id="ec" d="M375 191h1l1-1v-13c-.818 0-2 12.593-2 14Z"/><path fill="#FF6F80" id="TH" d="m243 209-6 2 4-6.5c1.722-3.443-3-3.168-3-5.5l3.5 2c7.902 3.951 8.5-10.886 8.5-15h1c0 4.666 3.953 2 6 2 3.127 0 4.148.676 7.5-1 2.114-1.057 3.346-7 4.5-7 0 2.744-.289 13 3 13l-3 2c0-6.163-12-3.609-12 6-1.724 0-14 6.969-14 8Z"/><path fill="#009B74" id="GU6a" d="M67 194h1l10-2 1-1-1-5-11 5v3Z"/><path fill="#019C74" id="GU6b" d="M79 191h1l-1-5h-1l1 5ZM378 186c0 1.145.579 4-1 4v-4h1Z"/><path fill="#009B74" id="GU6a" d="M389 193v1l-10-2-2-1v-1c1.579 0 1-2.855 1-4 4.361 0 7.96 5 12 5l-1 2Z"/><path fill="#019C74" id="GU6b" d="M376 191h1v-1l-1 1Z"/><path fill="#019C75" id="GU5" d="M61 194h6v-3h-1l-5 3Z"/><path fill="#8ADA86" id="CLA" d="M85 203c0 2.215-2 1.519-2 3-8.029 0-5-9.452-5-14l1-1h1l1 2 1 1 1 3 1 2v1l1 1v2Z"/><path fill="#C8CBCC" id="ec" d="M373 195h1l1-1v-3l-2 4Z"/><path fill="#219666" id="AIp6b" d="m376 191-1 1v-1h1Z"/><path fill="#8ADA86" id="CLA" d="M371 203v1c1.602 0 2.384 3.058 4.5 2 5.021-2.511 3.5-9.359 3.5-14l-2-1h-1l-1 1v2l-1 1-1 2-1 4-1 2Z"/><path fill="#019C75" id="GU5" d="m389 193 8 2c0-.994-5.757-4-7-4l-1 2Z"/><path fill="#209766" id="AIp6a" d="M77 213h1c0-3.602 5-5.209 5-7-8.029 0-5-9.452-5-14l-10 2c0 5.915 9 14.624 9 19Z"/><path fill="#CCC9C8" id="sm" d="m200 201-1 3c-4.208 0-8.137-3-10-3 0-1.714-2-3.482-2-6l2.5-3c6.108-3.054 10.5 4.253 10.5 9ZM268 201c-3.345 0-3.932 3-10 3l-1-3c0-9.609 12-12.163 12-6v5l-1 1Z"/><path fill="#209766" id="AIp6a" d="M379 213h1l9-19-10-2c0 4.641 1.521 11.489-3.5 14-2.116 1.058-2.898-2-4.5-2l-1 2c3.943 0 9 2.624 9 7ZM81 193l1 1-1-1Z"/><path fill="#219864" id="AIp5" d="m380 213 6 3c5.097 0 15.92-20 16-20v-1h-5l-8-2v1l-9 19Z"/><path fill="#019C75" id="GU5" d="m61 194-2 1 2-1Z"/><path fill="#219864" id="AIp5" d="m77 213-7 3c-3.104 0-15-16.747-15-20v-1h4l2-1h7c0 5.915 9 14.624 9 19Z"/><path fill="#209766" id="AIp6a" d="m375 194-1 1 1-1ZM373 196v1l1-2h-1v1Z"/><path fill="#209865" id="AIp2/3" d="M70 216c0 1.14-9.467 4-11 4 0-3.636-16-15.314-16-21v-1l12-2c0 3.253 11.896 20 15 20Z"/><path fill="#C8CBCC" id="ec" d="M371 201h1l1-4v-1c-1.638 0-2 3.576-2 5Z"/><path fill="#209865" id="AIp2/3" d="M386 216c0 1.14 9.467 4 11 4 0-3.24 16-14.137 16-22l-11-2c-.08 0-10.903 20-16 20Z"/><path fill="#209766" id="AIp6a" d="m83 197 1 2-1-2Z"/><path fill="#B3C0DE" id="BST" d="M183 201c1.799 0-2 7.876-2 10 0 5.099 3.988 18.744 8.5 21 4.963 2.482 16.385-2.73 13.5-8.5l-4-6v-5c-2.657-5.314-10-3.769-10-11.5-2.026 0-6-5.896-6 0Z"/><path fill="#FF6F80" id="TH" d="M219 199h1l-1-1v1Z"/><path fill="#B3C0DE" id="BST" d="M273 223c-2.109 0-2 2.535-2 4-.979 0-3.658 5.079-5.5 6-4.254 2.127-14.484-5.532-12.5-9.5l4-5 1-7c1.598-3.197 10-2.935 10-10.5l1-1v-1c2.061 0 4-2.431 4 1 0 3.973 3 8.769 3 13.5 0 2.082-2 5.221-2 7.5l-1 2Z"/><path fill="#219765" id="AIp1" d="m397 220 5 2c1.97 0 16-19.316 16-22l-5-2c0 7.863-16 18.76-16 22ZM59 220l-4 2c-1.85 0-17-18.804-17-22l5-1c0 5.686 16 17.364 16 21Z"/><path fill="#FF6F80" id="TH" d="m219 199-2 1 2-1Z"/><path fill="#FD909F" id="RE" d="M230 212h5l1-1h1l4-6.5c1.722-3.443-3-3.168-3-5.5h-19l-2 1-2 3.5 4 7.5 8 1c0-3.144 3-3.144 3 0Z"/><path fill="#209766" id="AIp6a" d="M85 200v1l-1-1h1Z"/><path fill="#8599CC" id="PAL" d="m269 200-1 1 1-1Z"/><path fill="#E64438" id="HY" d="M287 224v4l-7.5-9c-2.541-1.27-3.709 2-5.5 2 0-2.279 2-5.418 2-7.5 0-4.731-3-9.527-3-13.5 2.453 0 1.447 2.947 2.5 4l9.5 14.5c.557 1.114.41 5.5 2 5.5Z"/><path fill="#C8CBCC" id="ec" d="M112 238h1l2-1.5-5-2.5h-1l-1-1c-7.227 0-15.1-17.699-18-23.5-.756-1.512-3.037-8.5-5-8.5v2l2 4 10 19 8 9h1l5 3h1Z"/><path fill="#E64438" id="HY" d="m195 276 20 2c0-2.124 1-4.436 1-6v-2l-3.5 3c-3.655 1.827-11.26-.63-14-2-8.646-4.323-6.984-20.008 1-24 3.58-1.79 6.186 0 9.5 0l-3-6c-.334 0-13.177 8.161-13.5 8-1.7-.85-1.5-2.422-1.5-4 0-1.423-1.978-3.544-1-5.5 1.575-3.151 5.178-.339 7.5-1.5 3.399-1.699 6.545-5 9.5-5 0-5.535 12.048-5.404 14-1.5 2.925 5.85 1 10.423 1 16.5l2-1c0-4.607 1-10.052 1-14-2.82 0-11.623-16.254-10-19.5 1.386-2.771 12-.818 12 2.5h2v-1l-2-3-8-1c-1.974 0-3.517-2-6-2h-4c0 2.021 4.303 3.894 3 6.5-5.825 11.65-19.546-6.5-5-6.5 0-1.729-6.051-5-8-5-4.208 0-8.137-3-10-3 0 7.731 7.343 6.186 10 11.5v5l4 6c2.885 5.77-8.537 10.982-13.5 8.5-4.512-2.256-8.5-15.901-8.5-21 0-2.124 3.799-10 2-10-2.453 0-1.447 2.947-2.5 4l-9.5 14.5c-.659 1.319.334 5.5-2 5.5v5c2.213 0 4.777-13.862 10.5-11 5.35 2.675 12.759 29.983 10.5 34.5-1.5 2.999.399 8.551-3.5 10.5-2.93 1.465-3.619 0-6.5 0-1.465 0-4 .109-4-2l-8-6v2l3 4c0 2.752 11.261 6 4 6l2 4c.652 0 2.095-3.297 3.5-4 2.955-1.477 12.5 3.94 12.5 7l1 1h1Z"/><path fill="#CAC7CB" id="fiber tracts" d="M209 209h4l-13-8-1 3c1.949 0 8 3.271 8 5h2ZM248 209h2l1-1c0-2.06 4.74-4 7-4l-1-3c-1.724 0-14 6.969-14 8h5Z"/><path fill="#E64438" id="HY" d="m232 247 3 1c0-4.671-3.727-9.046-1-14.5 2.268-4.536 15-7.827 15-.5 4.13 0 5.313 2.907 9.5 5h7l1.5 3c.887 0 4-12.408 4-14-.979 0-3.658 5.079-5.5 6-4.254 2.127-14.484-5.532-12.5-9.5l4-5 1-7c1.598-3.197 10-2.935 10-10.5-3.345 0-3.932 3-10 3-2.26 0-7 1.94-7 4 2.199 0 2.206.912 3 2.5l2 3c3.569 7.137-15.489 6.977-12 0l4-4.5h-5l-6 2h-1l-1 1h-5l-1 1h6c18.388 0-3 15.032-3 20v14Z"/><path fill="#C8CBCC" id="ec" d="m369 207-2 2 4-8v3l-1 2-1 1Z"/><path fill="#209766" id="AIp6a" d="m372 201-1 2v-2h1ZM83 206l4 1-2-4c0 2.215-2 1.519-2 3Z"/><path fill="#A0EE9C" id="EPd" d="m98 230-2 2c-2.97 0-4.768-3-7-3l-6-5-1-1-1-1v-1l4.5 4-7.5-12c0-3.602 5-5.209 5-7l4 1 10 19 1 4Z"/><path fill="#209766" id="AIp6a" d="m370 206-1 1 1-1Z"/><path fill="#A0EE9C" id="EPd" d="m365 231-4 1-2-2v-3l2-5c2.109 0 2-2.535 2-4 2.109 0 2-2.535 2-4 1.638 0 2-3.576 2-5l2-2 1-1c3.943 0 9 2.624 9 7-1.729 0-5.867 8-4 8v1h-1v1h-1c0-2.276-3.276 1-1 1v1h-1v1l-1 1-1 1-1 1-1 1-2 1Z"/><path fill="#C7C8CA" id="fx" d="M207 209h2c0 2.021 4.303 3.894 3 6.5-5.825 11.65-19.546-6.5-5-6.5Z"/><path fill="#E64438" id="HY" d="m251 208-1 1 1-1Z"/><path fill="#C7C8CA" id="fx" d="M248 209h2l1-1c2.199 0 2.206.912 3 2.5l2 3c3.569 7.137-15.489 6.977-12 0l4-4.5Z"/><path fill="#C8CBCC" id="ec" d="M367 209c-1.638 0-2 3.576-2 5 1.638 0 2-3.576 2-5Z"/><path fill="#FF6F80" id="TH" d="m236 211-1 1 1-1Z"/><path fill="#6ACAB9" id="PIR" d="M104 296h1c4.775 0 13-18.339 13-23 0-5.76-5-10.88-5-12 0-1.65-19-20.443-19-24l-11-13-1-1-1-1v-1l-1-1-1-2v-1l-1-1v-1l-1-1v-1l-7 3c0 1.14-9.467 4-11 4l-4 2c0 4.84 10.6 14.699 13 19.5 5.508 11.017 14.377 35.377 22.5 43.5 3.54 3.541 7.756 11 13.5 11Z"/><path fill="#C9C8CA" id="ee" d="M81 220v1l4.5 4-7.5-12h-1v1l1 1v1l1 1v1l2 2Z"/><path fill="#FF5D4F" id="PVH" d="M225 233h2v-17c0-3.318-10.614-5.271-12-2.5-1.623 3.246 7.18 19.5 10 19.5ZM229 233h3c0-4.968 21.388-20 3-20h-6v20Z"/><path fill="#C9C8CA" id="ee" d="m376 220-1 1c-1.867 0 2.271-8 4-8v2l-1 1v1l-1 1v1l-1 1Z"/><path fill="#6ACAB9" id="PIR" d="M351 296h2c3.348 0 12.329-8.157 14-11.5l22-44c2.138-4.277 13-14.497 13-18.5l-5-2c-1.533 0-11-2.86-11-4l-6-3h-1v2l-1 1v1l-1 1v1l-1 1-1 1v1l-1 1-1 1-1 1-1 1v1l-2 2-2 2c0 1.747-.253 2-2 2 0 1.238-.423 3-2 3 0 2.06-12.36 16.86-14.5 19l-5.5 6-2 3-1 1-1 1-1 6c0 3.984 8.501 24 13 24Z"/><path fill="#A0EE9C" id="EPd" d="m77 214 1 1-1-1Z"/><path fill="#97D6F9" id="STR" d="M145 244v1c-2.147 0-7.689-2-12-2l4-8.5V214c1.353 0 2 4.643 2 6 0 1.296.825 7 2 7 0 3.074-1.059 16 3 16l1 1Z"/><path fill="#C8CBCC" id="ec" d="M365 214c-2.109 0-2 2.535-2 4 2.109 0 2-2.535 2-4Z"/><path fill="#A0EE9C" id="EPd" d="m379 215-1 1 1-1ZM78 216l1 1-1-1Z"/><path fill="#A8A9AA" id="V3" d="M228 272h1v-56h-2v17c0 12.191 1 26.124 1 39Z"/><path fill="#97D6F9" id="STR" d="m332 255-3 1c0-6.43-5.95-17.275-14.5-13l-2.5 2v-1l3-4.5c1.441-2.881 0-10.397 0-12.5 2.273 0 2-5.226 2-7l1-2 1-2c0 2.707 1 5.903 1 8-2.313 0-.635 11.231 0 12.5 3.363 6.727 8.817 13.5 17 13.5l-5 5Z"/><path fill="#A2B1D7" id="SI" d="m153 246 6 1c3.65 0 6.154-5 8-5 0-1.49-.735-8 1-8 0-1.145-.579-4 1-4v-5c0-4.468-3.54-8-8-8-4.799 0-8.786 4-14 4 0 2.097-6 2.205-6 6 0 3.074-1.059 16 3 16l1 1v1l8 1ZM303 246l-5 1c-3.442 0-6.282-4-8-4 0-2.012-1.052-14-3-14v-5c1.538 0 1.368-7 8-7 5.204 0 8.575 4 14 4 0 2.559 6 1.727 6 6 0 2.103 1.441 9.619 0 12.5l-3 4.5-1 1-8 1Z"/><path fill="#A0EE9C" id="EPd" d="m378 217-1 1 1-1ZM80 220h1l-2-2 1 2Z"/><path fill="#8599CC" id="PAL" d="m318 218-1 2 1-2Z"/><path fill="#C8CBCC" id="ec" d="M363 218c-2.109 0-2 2.535-2 4 2.109 0 2-2.535 2-4Z"/><path fill="#F2483A" id="LHA" d="m176 262 4 2c2.881 0 3.57 1.465 6.5 0 3.899-1.949 2-7.501 3.5-10.5 2.259-4.517-5.15-31.825-10.5-34.5-5.723-2.862-8.287 11-10.5 11 0 1.145.579 4-1 4 0 1.824.781 12-1 12v7l1 2v1l8 6ZM279 263l-2 1c-14.739 0-10-10.163-10-22v-1c.887 0 4-12.408 4-14l2-4 1-2c1.791 0 2.959-3.27 5.5-2l7.5 9v1c0 8.27 2 16.194 2 25v1l-1 1v1l-7 5-2 1Z"/><path fill="#99D2BD" id="OLF" d="m377 219-1 1 1-1ZM81 220v1l-1-1h1Z"/><path fill="#8599CC" id="PAL" d="M147 221c0 2.097-6 2.205-6 6-1.175 0-2-5.704-2-7 2.097 0 5.293 1 8 1ZM309 221c0 2.559 6 1.727 6 6 2.273 0 2-5.226 2-7-2.097 0-5.293 1-8 1Z"/><path fill="#A0EE9C" id="EPd" d="m376 220-1 1 1-1Z"/><path fill="#E64438" id="HY" d="m274 221-1 2 1-2Z"/><path fill="#99D2BD" id="OLF" d="m81 222 1 1-1-1Z"/><path fill="#C8CBCC" id="ec" d="m348 237-2 1c-8.43 0 1-3.565 1-4 5.346 0 11.049-12 14-12l-2 5-3 3-1 1-4 4-1 1-2 1Z"/><path fill="#C9C8CA" id="ee" d="M372 224h1v-1c0-2.276-3.276 1-1 1Z"/><path fill="#8AD987" id="CTXsp" d="m375 222-1 1v-1h1Z"/><path fill="#E64438" id="HY" d="M273 223c-2.109 0-2 2.535-2 4l2-4Z"/><path fill="#99D2BD" id="OLF" d="m374 223-1 1v-1h1ZM94 235v2l-11-13 6 5 5 6Z"/><path fill="#7ECDF8" id="FS" d="M129 247c-2.784 0-7.042 2-11 2-2.226 0-4-1.774-4-4l-2-7h1c.512 0 12 8.864 12 4 1.976 0 4.13-3.241 3-5.5l-5-3.5h1l2-1 1-1 10-7v10.5l-4 8.5-1 1-1 1-1 1-1 1ZM338 249l-1 1c-8.183 0-13.637-6.773-17-13.5-.635-1.269-2.313-12.5 0-12.5 4.056 0 5.494 7 10 7l3 2.5-2 1.5c-10.507 0 6 13.11 6 7l2-1c.813 0 .592-2 6-2v1c-2.109 0-2 2.535-2 4v1l-1 1v1l-4 2Z"/><path fill="#8AD987" id="CTXsp" d="m373 224-1 1v-1h1Z"/><path fill="#99D2BD" id="OLF" d="m372 225-1 1v-1h1Z"/><path fill="#8AD987" id="CTXsp" d="m105 235-1 1c-1.423 0-2.415-6-6-6l-1-4 8 9ZM370 227h1v-1l-1 1ZM356 230h3v-3l-3 3Z"/><path fill="#99D2BD" id="OLF" d="M369 228v1l2-2h-1l-1 1Z"/><path fill="#8AD987" id="CTXsp" d="M368 229h1v-1l-1 1ZM96 232l-2 3-5-6c2.232 0 4.03 3 7 3Z"/><path fill="#FD4C3E" id="MPN" d="M214 249h7l1-1c0-6.077 1.925-10.65-1-16.5-1.952-3.904-14-4.035-14 1.5l-1 8 3 6 5 2ZM242 249l-1 1-6-1v-1c0-4.671-3.727-9.046-1-14.5 2.268-4.536 15-7.827 15-.5l1 8-1 5-7 3Z"/><path fill="#E64438" id="HY" d="m290 253-1 1c0-8.806-2-16.73-2-25 1.948 0 3 11.988 3 14v10Z"/><path fill="#99D2BD" id="OLF" d="M367 230v1l2-2h-1l-1 1Z"/><path fill="#A0ED9D" id="EPv" d="M113 261h1c6.618 0 .021-14.74-2.5-16l-2.5-4c-2.169 0-5-2.899-5-5-1.423 0-2.415-6-6-6l-2 2-2 3v2c0 3.557 19 22.35 19 24Z"/><path fill="#E64438" id="HY" d="M169 230c-1.579 0-1 2.855-1 4 1.579 0 1-2.855 1-4Z"/><path fill="#8AD987" id="CTXsp" d="m356 230-1 1 1-1Z"/><path fill="#A0ED9D" id="EPv" d="M342 247c0 2.823-5.338 14 1 14l5.5-6c2.14-2.14 14.5-16.94 14.5-19v-1l-2-3-2-2h-3l-1 1c0 1.238-1.923 5-3 5 0 2.362-2.638 5-5 5 0 1.747-.253 2-2 2 0 1.238-.423 3-2 3l-1 1Z"/><path fill="#8AD987" id="CTXsp" d="M365 231h2v-1l-2 1Z"/><path fill="#97D6F9" id="STR" d="m127 231-1 1 1-1ZM345 239c-5.408 0-5.187 2-6 2 0-6.031-2.342-6-8-6l2-1.5-3-2.5c2.77 0 10.571 3 17 3 0 .435-9.43 4-1 4l-1 1Z"/><path fill="#8AD987" id="CTXsp" d="m351 235 1 1c1.077 0 3-3.762 3-5l-4 4ZM365 233l-2 2-2-3 4-1v2Z"/><path fill="#99D2BD" id="OLF" d="M367 231c0 1.747-.253 2-2 2v-2h2Z"/><path fill="#97D6F9" id="STR" d="m126 232-2 1 2-1Z"/><path fill="#FF5346" id="MPO" d="M207 233c-2.955 0-6.101 3.301-9.5 5-2.322 1.161-5.925-1.651-7.5 1.5-.978 1.956 1 4.077 1 5.5 0 1.578-.2 3.15 1.5 4 .323.161 13.166-8 13.5-8l1-8ZM267 241v1c-1.61 0-1.188 8.156-3.5 7l-13.5-8-1-8c4.13 0 5.313 2.907 9.5 5h7l1.5 3Z"/><path fill="#97D6F9" id="STR" d="m108 233 1 1-1-1Z"/><path fill="#97D6F9" id="STR" fill-rule="evenodd" d="M125 242c0-1.423 1.978-3.544 1-5.5-2.597-5.194-14.175 1.663-6.5 5.5h5.5m-12-4c.512 0 12 8.864 12 4 1.976 0 4.13-3.241 3-5.5l-5-3.5-13 1 5 2.5-2 1.5Z"/><path fill="#FE5547" id="PVpo" d="m228 272-1 1-2-4c0-7.503-1-14.618-1-22 0-4.607 1-10.052 1-14h2c0 12.191 1 26.124 1 39ZM229 272v2c2.461 0 2-3.378 2-5 0-6.9 1-14.536 1-22v-14h-3v39Z"/><path fill="#99D2BD" id="OLF" d="M363 235v1c1.577 0 2-1.762 2-3l-2 2Z"/><path fill="#E64438" id="HY" d="M167 242v4c1.781 0 1-10.176 1-12-1.735 0-1 6.51-1 8Z"/><path fill="#80BEE2" id="IA" d="M104 236c0 2.101 2.831 5 5 5 0-2.813-3-3.921-3-6h-1l-1 1Z"/><path fill="#8AD987" id="CTXsp" d="m114 261 8 8c0-2.211-5.438-14 2-14 0-3.886-6-3.302-6-6-2.226 0-4-1.774-4-4-2.189 0-3-5.066-3-7l-5-3c0 2.079 3 3.187 3 6l2.5 4c2.521 1.26 9.118 16 2.5 16Z"/><path fill="#C9C9C9" id="act" d="M125 242c0-1.423 1.978-3.544 1-5.5-2.597-5.194-14.175 1.663-6.5 5.5h5.5Z"/><path fill="#97D6F9" id="STR" d="M331 235c-10.507 0 6 13.11 6 7-6.801 0-6-1.881-6-7Z"/><path fill="#C9C9C9" id="act" d="m339 241-2 1c-6.801 0-6-1.881-6-7 5.658 0 8-.031 8 6Z"/><path fill="#8AD987" id="CTXsp" d="m351 235-1 1 1-1Z"/><path fill="#80BEE2" id="IA" d="m348 237-1 4c2.362 0 5-2.638 5-5l-1-1-1 1-2 1Z"/><path fill="#8AD987" id="CTXsp" d="M347 241c0 1.747-.253 2-2 2v-4l1-1 2-1-1 4Z"/><path fill="#97D6F9" id="STR" d="m112 238 2 7c-2.189 0-3-5.066-3-7h1ZM345 243l-2 1c0-1.465-.109-4 2-4v3Z"/><path fill="#E64438" id="HY" d="m258 277-17 1c0-2.153-1-4.722-1-7v-2c.306 0 7.418 7.541 16.5 3 12.965-6.482 7.667-26-7.5-26l1-5 13.5 8c2.312 1.156 1.89-7 3.5-7 0 11.837-4.739 22 10 22l2-1 2-1 7-5v1l-2 4-1 1c-2.095 0-9.646 5-3 5 0 1.658-1.461 3-3 3l-3.5-3c-2.643-1.322-12.5 4.7-12.5 7l-1 1h-1c-1.048 0-3-.473-3 1Z"/><path fill="#97D6F9" id="STR" d="m339 241-2 1 2-1Z"/><path fill="#8599CC" id="PAL" d="M167 253v1l-8-7c3.65 0 6.154-5 8-5v5c-1.486 0-1.486 3 0 3v3Z"/><path fill="#97D6F9" id="STR" d="m133 243-1 1 1-1Z"/><path fill="#80C0E2" id="AAA" d="m153 272 6 1c3.138 0 5.662-2 8-2 0-5.906-8-6.337-8-10h-1l-1-1-6-9-6-6c-2.147 0-7.689-2-12-2l-1 1-1 1-1 1-1 1c0 3.489-2 5.32-2 9 0 3.188 9 5.212 9 8l5 3 2 1 4 2 2 1c1.145 0 4-.579 4 1Z"/><path fill="#8599CC" id="PAL" d="m144 243 1 1-1-1ZM298 247l-8 6v-10c1.718 0 4.558 4 8 4Z"/><path fill="#80C0E2" id="AAA" d="M304 271h3l1-1h1l1-1 3-1 2-1c0-1.638 3.576-2 5-2l1-1 8-8c0-6.43-5.95-17.275-14.5-13l-2.5 2h-1l-5 6-6 8-1 1-1 1-1 1h-1c0 1.611-7 2.972-7 9 2.846 0 5.382 2 9 2l6-2Z"/><path fill="#8AD987" id="CTXsp" d="M343 245v1c1.577 0 2-1.762 2-3l-2 1v1Z"/><path fill="#97D6F9" id="STR" d="m132 244-1 1 1-1Z"/><path fill="#8599CC" id="PAL" d="M311 245h1v-1l-1 1Z"/><path fill="#97D6F9" id="STR" d="m131 245-1 1 1-1Z"/><path fill="#8599CC" id="PAL" d="M153 246c0 1.087-2 2.433-2 5l-6-6 8 1ZM303 246c0 1.312 3 2.446 3 5l5-6-8 1Z"/><path fill="#97D6F9" id="STR" d="M342 246h1v-1l-1 1ZM130 246l-1 1 1-1Z"/><path fill="#A2B1D8" id="MA" d="M158 261h1c2.031 0 9 1.987 9-3v-3l-1-1-8-7-6-1c0 1.087-2 2.433-2 5l6 9 1 1Z"/><path fill="#FF4B3E" id="AHN" d="m217 259-1 11-3.5 3c-3.655 1.827-11.26-.63-14-2-8.646-4.323-6.984-20.008 1-24 3.58-1.79 6.186 0 9.5 0l5 2 3 3.5c.523 1.046-.951 3.5 1 3.5v2l-1 1ZM239 257l1 12c.306 0 7.418 7.541 16.5 3 12.965-6.482 7.667-26-7.5-26l-7 3-1 1c0 2.16-2 4.167-2 7Z"/><path fill="#A2B1D8" id="MA" d="M297 261h1l1-1 1-1 6-8c0-2.554-3-3.688-3-5l-5 1-8 6-1 1v1l-1 1v2c.447 0 3.935 4 8 4l1-1Z"/><path fill="#8AD987" id="CTXsp" d="m343 246-1 1v-1h1Z"/><path fill="#97D6F9" id="STR" d="m124 255 3 1c0-3.68 2-5.511 2-9-2.784 0-7.042 2-11 2 0 2.698 6 2.114 6 6Z"/><path fill="#E64438" id="HY" d="M167 247c-1.486 0-1.486 3 0 3v-3Z"/><path fill="#FD5547" id="SBPV" d="M216 270v2l4.5-5c2.116-1.058 2.898 2 4.5 2 0-7.503-1-14.618-1-22l-2 1-1 1-3 7v2l-1 1-1 11ZM240 269v2l-4.5-4c-2.238-1.119-2.394 2-4.5 2 0-6.9 1-14.536 1-22l3 1v1l4 8 1 12Z"/><path fill="#8AD987" id="CTXsp" d="m339 266-3 1c0-2.819 2.303-12-4-12l5-5 1-1 4-2c0 2.823-5.338 14 1 14l-2 3-1 1-1 1Z"/><path fill="#E64438" id="HY" d="m222 248-1 1 1-1ZM221 249l-3 7c-1.951 0-.477-2.454-1-3.5l-3-3.5h7ZM241 250c0 2.16-2 4.167-2 7l-4-8 6 1ZM242 249l-1 1 1-1Z"/><path fill="#97D6F9" id="STR" d="m338 249-1 1 1-1Z"/><path fill="#E64438" id="HY" d="m167 254 1 1-1-2v1Z"/><path fill="#84EA80" id="BMAa" d="m133 270-6 1-5-2c0-2.211-5.438-14 2-14l3 1c0 3.188 9 5.212 9 8v3l-3 3Z"/><path fill="#E64438" id="HY" d="m289 255-1 1 1-1Z"/><path fill="#84EA80" id="BMAa" d="M323 270c2.124 0 4.436 1 6 1l6-3 1-1c0-2.819 2.303-12-4-12l-3 1-8 8-1 1v2l3 3Z"/><path fill="#8599CC" id="PAL" d="M179 274c-3.348 0-4.806 4-12 4v-7c0-5.906-8-6.337-8-10 2.031 0 9 1.987 9-3l3 4c-6.726 0 .84 6 4 6l2 4 2 1v1Z"/><path fill="#E64438" id="HY" d="m218 258-1 1 1-1Z"/><path fill="#8599CC" id="PAL" d="M278 273c0 5.338 8.777 5 11 5v-7c0-6.028 7-7.389 7-9-4.065 0-7.553-4-8-4l-2 4c6.58 0-.973 6-4 6 0 1.658-1.461 3-3 3l-1 2Z"/><path fill="#97D6F9" id="STR" d="m300 259-1 1 1-1ZM157 260l1 1-1-1Z"/><path fill="#8599CC" id="PAL" d="m299 260-1 1 1-1Z"/><path fill="#99D2BD" id="OLF" d="M118 273c1.602 0 2.384-3.058 4.5-2l2.5 2 2-2-5-2-8-8h-1c0 1.12 5 6.24 5 12Z"/><path fill="#8599CC" id="PAL" d="M296 262h1v-1l-1 1Z"/><path fill="#97D6F9" id="STR" d="m298 261-1 1v-1h1Z"/><path fill="#96A6D3" id="NDB" d="M171 262c-6.726 0 .84 6 4 6 7.261 0-4-3.248-4-6Z"/><path fill="#CBCCCB" id="mfb" d="m176 262 4 2c-1.465 0-4 .109-4-2ZM281 262l-2 1 2-1Z"/><path fill="#8599CC" id="PAL" d="m286 262-1 1 1-1Z"/><path fill="#96A6D3" id="NDB" d="M285 263c-2.095 0-9.646 5-3 5 3.027 0 10.58-6 4-6l-1 1Z"/><path fill="#CBCCCB" id="mfb" d="m279 263-2 1 2-1Z"/><path fill="#97D6F9" id="STR" d="M136 267h5l-5-3v3ZM321 264l-1 1 1-1Z"/><path fill="#99D2BD" id="OLF" d="m341 264-1 1 1-1Z"/><path fill="#97D6F9" id="STR" d="M315 267h5v-2c-1.424 0-5 .362-5 2Z"/><path fill="#99D2BD" id="OLF" d="m340 265-1 1 1-1ZM338 272l-4.5-1-2.5 2-2-2 6-3 1-1 3-1-1 6ZM141 273l-1 1c-2.51 0-3.687-4-7-4l3-3h5l2 1c0 1.087-2 2.433-2 5Z"/><path fill="#FF5545" id="SCH" d="M221 281h2l2-1 2-3v-4l-2-4c-1.602 0-2.384-3.058-4.5-2l-4.5 5c0 1.564-1 3.876-1 6h1l1 1 4 2ZM233 281h3l1-1h1l1-1h1l1-1c0-2.153-1-4.722-1-7l-4.5-4c-2.238-1.119-2.394 2-4.5 2 0 1.622.461 5-2 5v3l1 1 3 3Z"/><path fill="#99D2BD" id="OLF" d="M316 274v1c1.636 0 3.733-5 7-5l-3-3h-5l-2 1c0 1.349 3 3.085 3 6Z"/><path fill="#8AD987" id="CTXsp" d="m336 267-1 1 1-1Z"/><path fill="#94E4C7" id="NLOT3" d="M141 273h7l-1-3-4-2c0 1.087-2 2.433-2 5Z"/><path fill="#FE5B50" id="SO" d="M191 275h2c0-3.06-9.545-8.477-12.5-7-1.405.703-2.848 4-3.5 4l2 1 1 1c1.048 0 3-.473 3 1h8ZM266 275h7c0-1.579 2.855-1 4-1l1-1 1-2-3.5-3c-2.643-1.322-12.5 4.7-12.5 7h3Z"/><path fill="#94E4C7" id="NLOT3" d="M309 273c2.409 0 5.181 1 7 1 0-2.915-3-4.651-3-6l-3 1-1 1v3Z"/><path fill="#99D2BD" id="OLF" d="m310 269-1 1 1-1Z"/><path fill="#60E5B7" id="COAa" d="M129 292h4c3.895 0 6.251-4 9-4l1-5-1-4-2-4v-1c-2.51 0-3.687-4-7-4l-6 1-2 2c0 6.637 2 11.661 2 18l2 1Z"/><path fill="#99D2BD" id="OLF" d="m150 273-2 3v-3l-1-3 2 1 1 2Z"/><path fill="#97D6F9" id="STR" d="m308 270-1 1 1-1Z"/><path fill="#99D2BD" id="OLF" d="M308 274v1l-1-2v-2l1-1h1v3l-1 1Z"/><path fill="#60E5B7" id="COAa" d="M324 292h3l2-1c0-5.624 2-11.494 2-18l-2-2c-1.564 0-3.876-1-6-1-3.267 0-5.364 5-7 5l-2 4-1 3 2 7c2.561 0 5.324 3 9 3Z"/><path fill="#59D9AA" id="PAA" d="M109 298h2c4.417 0 8.248-3 12-3h1l1-1h1l1-1v-2c0-6.339-2-11.363-2-18l-2.5-2c-2.116-1.058-2.898 2-4.5 2 0 4.661-8.225 23-13 23v1h2l2 1Z"/><path fill="#97D6F9" id="STR" d="m153 272-3 1-1-2c1.145 0 4-.579 4 1ZM157 283c1.539 0 3 1.342 3 3 3.222 0 7-4.977 7-8v-7c-2.338 0-4.862 2-8 2 0 4.368-2 8.475-2 10ZM300 283c-1.429 0-4 1.288-4 3-2.492 0-7-5.792-7-8v-7c2.846 0 5.382 2 9 2 0 1.606-2.081 4.339-1 6.5l3 3.5Z"/><path fill="#80BFE1" id="MEA" d="M309 278c-1.076 0-1.46 4.98-3.5 6-1.956.978-4.077-1-5.5-1l-3-3.5c-1.081-2.161 1-4.894 1-6.5l6-2c0 1.577 1.762 2 3 2l1 2 1 3Z"/><path fill="#97D6F9" id="STR" d="M307 271v2c-1.238 0-3-.423-3-2h3Z"/><path fill="#59D9AA" id="PAA" d="M346 298h1l2-1h2v-1c-4.499 0-13-20.016-13-24l-4.5-1-2.5 2c0 6.506-2 12.376-2 18 0 2.618 3 1.651 3 4h1c4.271 0 8.053 3 13 3Z"/><path fill="#80BFE1" id="MEA" d="M148 279c0 6.374 5.314 4 9 4 0-1.525 2-5.632 2-10l-6-1-3 1-2 3v3Z"/><path fill="#E64438" id="HY" d="m229 274-2 2v-3l1-1h1v2Z"/><path fill="#94E4C7" id="NLOT3" d="M140 274v1l1-2-1 1Z"/><path fill="#95E3C8" id="NLOT2" d="M142 279h3l3-1v-5h-7l-1 2 2 4Z"/><path fill="#94E4C7" id="NLOT3" d="m309 273-1 1 1-1Z"/><path fill="#95E3C8" id="NLOT2" d="M312 279h2l2-4v-1c-1.819 0-4.591-1-7-1l-1 1v1l1 3 3 1Z"/><path fill="#CAC7CB" id="fiber tracts" d="M179 275h4c0-1.473-1.952-1-3-1h-1v1ZM273 275c11.591 0-1.164 7.332-4.5 9l-3.5 3c3.64 0 12.077-3.654 14-7.5 1.47-2.939-2-4.216-2-5.5-1.145 0-4-.579-4 1ZM228 284l-19.5 1c-1.283.641-9.5 4.01-9.5 2-4.86 0-19.001-4.502-21-8.5l1-3.5c-3.191 0-1.633 4.234-1 5.5 1.369 2.739 5.256 3.378 7.5 4.5 7.885 3.943 20.287 6.356 29 2 2.22-1.11 13.5.574 13.5-3Z"/><path fill="#CACCCB" id="opt" d="M199 278v9c-4.86 0-19.001-4.502-21-8.5l1-3.5h12c0 1.473 1.952 1 3 1h1l4 2Z"/><path fill="#CAC7CB" id="fiber tracts" d="m193 275 1 1c-1.048 0-3 .473-3-1h2ZM266 275c0 1.579-2.855 1-4 1l1-1h3Z"/><path fill="#CACCCB" id="opt" d="M258 287h7l3.5-3c3.336-1.668 16.091-9 4.5-9h-7c0 1.579-2.855 1-4 1h-1c0 1.473-1.952 1-3 1v10Z"/><path fill="#CAC7CB" id="fiber tracts" d="M216 278v1c-5.909 0-11.579-1-17-1l-4-2 20 2h1ZM261 276c-1.048 0-3-.473-3 1 1.048 0 3 .473 3-1ZM225 280l4.5-1c1.619.809 1.471 2 3.5 2l-3-3-1-1h-2l-2 3Z"/><path fill="#E64438" id="HY" d="m229 277 1 1-1-1Z"/><path fill="#CAC7CB" id="fiber tracts" d="M258 278c-5.421 0-11.091 1-17 1v-1l17-1v1Z"/><path fill="#95E4C7" id="NLOT1" d="m143 283-1 5c0 3.441 3.661 3.178 5 .5.783-1.566-1.35-9.5 1-9.5v-1l-3 1-2 4Z"/><path fill="#CBCACC" id="och" d="m228 284-19.5 1c-1.283.641-9.5 4.01-9.5 2v-9c5.421 0 11.091 1 17 1h1l4 2h2l2-1 4.5-1c1.619.809 1.471 2 3.5 2h3l1-1h1l1-1h2c5.909 0 11.579-1 17-1v9c-6.633 0-14.769-3-22.5-3-1.901 0-7.5-.446-7.5 0Z"/><path fill="#E64438" id="HY" d="M216 279h1l-1-1v1ZM240 279h1v-1l-1 1Z"/><path fill="#99D2BD" id="OLF" d="m324 292 1 4c-8.643 0-14.33-3.415-21.5-7-1.829-.915-7.5.669-7.5-3 0-1.712 2.571-3 4-3 1.423 0 3.544 1.978 5.5 1 2.04-1.02 2.424-6 3.5-6 0 8.432-2.426 11 6 11 2.561 0 5.324 3 9 3Z"/><path fill="#95E4C7" id="NLOT1" d="m313 282 2 7c-8.426 0-6-2.568-6-11l3 1c0 1.048-.473 3 1 3Z"/><path fill="#99D2BD" id="OLF" d="m145 279-2 4-1-4h3Z"/><path fill="#99D2BD" id="OLF" d="m133 292-1 3c9.592 0 13.736-2.118 21.5-6 1.63-.815 6.5.181 6.5-3 0-1.658-1.461-3-3-3-3.686 0-9 2.374-9-4-2.35 0-.217 7.934-1 9.5-1.339 2.678-5 2.941-5-.5-2.749 0-5.105 4-9 4Z"/><path fill="#CAC7CB" id="fiber tracts" d="m217 279 4 2-4-2ZM239 279l-1 1 1-1Z"/><path fill="#99D2BD" id="OLF" d="m314 279-1 3c-1.473 0-1-1.952-1-3h2Z"/><path fill="#CAC7CB" id="fiber tracts" d="m225 280-2 1 2-1ZM237 280l-1 1 1-1ZM258 287h7c0 2.253-7.512 2-9.5 2-3.945 0-22.332-1.666-25-3l-2.5-2c0-.446 5.599 0 7.5 0 7.731 0 15.867 3 22.5 3Z"/><path fill="#99D2BD" id="OLF" d="m129 292-2 1v-2l2 1ZM327 292l5 3c0-2.349-3-1.382-3-4l-2 1Z"/><path fill="#CAC8C7" id="lot" d="m131 296-8 1v-2h1l1-1h1l1-1 2-1h4l-1 3-1 1ZM325 296l8 1v-2h-1l-5-3h-3l1 4Z"/><path fill="#99D2BD" id="OLF" d="m127 293-1 1 1-1ZM125 294l-1 1 1-1ZM123 297c0 1.681-12 3.313-12 1 4.417 0 8.248-3 12-3v2ZM132 295l-1 1 1-1ZM333 297c0 1.852 13 3.253 13 1-4.947 0-8.729-3-13-3v2ZM105 296v1l-1-1h1ZM353 296l-2 1v-1h2ZM107 297l2 1-2-1ZM349 297l-2 1 2-1Z"/></svg>