<svg xmlns="http://www.w3.org/2000/svg" viewBox="0 0 456 320"><path fill="#1E9C59" id="MOs1" d="M129 82c0 1.32-.684 6 1 6l16.5-11c10.409-5.204 42.853-19.074 55-13 3.331 1.665 15.5 5.539 15.5 10l4-2c0-5.76-12.321-12.91-16.5-15h-5c-11.71-5.855-42.877 8.939-53 14-2.521 1.26-17.5 7.978-17.5 11ZM328 82c-1.026 0-1 4.357-1 6l-16.5-11c-13.441-6.72-31.056-14-47-14-5.635 0-23.5 3.4-23.5 11h-1l-3-3c0-5.21 9.365-10.932 13.5-13l7-1c12.418-6.209 43.405 8.702 54 14 2.107 1.053 17.5 9.937 17.5 11Z"/><path fill="#1E9D58" id="MOs2/3" d="m130 89 2 17 7.5-7 24-15c5.922-2.961 29.005-14.498 36-11 2.212 1.106 9.411 6 11.5 6 2.33 0 3.227-4 6-4v-1c0-4.461-12.169-8.335-15.5-10-12.147-6.074-44.591 7.796-55 13L130 88v1ZM327 89c0 6.26-2 11.774-2 17l-10.5-9c-12.311-6.156-23.764-13.882-36-20-3.987-1.994-16.9-6.55-22-4-2.664 1.332-9.511 6-11.5 6l-5-5c0-7.6 17.865-11 23.5-11 15.944 0 33.559 7.28 47 14L327 88v1Z"/><path fill="#3EA665" id="ACAd1" d="M222 93h12c0-7.714 5-14.66 5-19l-3-3-7 10.5-.5 2.5-3-5-1.5-3.5-3-3.5-4 2v1l4 6.5 1 11.5Z"/><path fill="#1F9D58" id="MOs5" d="m138 146-6 3-2-5.5c-1.035-2.07 2-30.419 2-36.5v-1l7.5-7 24-15c5.922-2.961 29.005-14.498 36-11 2.212 1.106 9.411 6 11.5 6v1l-10 9.5-7 9.5c-20.047 0-45.4 13.299-55 32.5l-1 14.5ZM318 146l7 3c0-2.927 2-7.019 2-10.5 0-1.887-2-6.113-2-8V106l-10.5-9c-12.311-6.156-23.764-13.882-36-20-3.987-1.994-16.9-6.55-22-4-2.664 1.332-9.511 6-11.5 6v1c1.852 0 17 16.992 17 20h1c0-4.291 13.727.113 15.5 1 11.691 5.846 30.124 12.749 36.5 25.5 1.849 3.697 4 9.182 4 13.5 0 1.235.643 5-1 5v1Z"/><path fill="#40A565" id="ACAd2/3" d="M240 95h1c0-6.293 4-13.772 4-15v-1l-5-5h-1c0 4.34-5 11.286-5 19l6 2ZM222 93l-6 2c0-2.76-1.176-15-5-15v-1c2.33 0 3.227-4 6-4l4 6.5 1 11.5Z"/><path fill="#3EA566" id="ACAd5" d="M198 103h1c0-1.513 14.481-8 17-8 0-2.76-1.176-15-5-15l-10 9.5-7 9.5v1l4 3ZM262 100l-4 3c-4.047 0-11.526-8-17-8 0-6.293 4-13.772 4-15 1.852 0 17 16.992 17 20Z"/><path fill="#1E9D5A" id="MOp1" d="m103 167-4 1c-3.788 0-3.667-21.834-5-24.5-5.72-11.441 9.308-30.616 14-40l7-8c1.619-3.238 10.06-13.5 14-13.5 0 1.32-.684 6 1 6v1c-3.594 0-13.382 11.264-15 14.5l-8 10c-2.941 5.882-5.08 12.16-8 18-4.473 8.947 4 26.937 4 34.5v1ZM353 167c1.465 0 4-.109 4 2 1.59 0 1.443-4.386 2-5.5 3.073-6.145 4-15.742 4-23 0-15.042-7.837-23.674-14-36l-4-4c-1.572-3.144-4.487-7.993-7.5-9.5-2.59-1.295-5.324-9-9.5-9-1.026 0-1 4.357-1 6v1c4.818 0 13.176 11.851 15 15.5l11 15 5 15c4.09 8.179-5 24.543-5 31.5v1Z"/><path fill="#1F9C58" id="MOp2/3" d="M114 159c0 2.152-8.996 7-11 7 0-7.563-8.473-25.553-4-34.5 2.92-5.84 5.059-12.118 8-18l8-10c1.618-3.236 11.406-14.5 15-14.5l2 17v1c-3.153 0-7.983 8.466-9 10.5-10.267 20.535-9 18.365-9 41.5ZM342 160c3.891 0 7.03 6 11 6 0-6.957 9.09-23.321 5-31.5l-5-15-11-15c-1.824-3.649-10.182-15.5-15-15.5 0 6.26-2 11.774-2 17v1c2.533 0 7.981 9.463 9 11.5l5 7c5.248 10.496 3 21.87 3 33.5v1Z"/><path fill="#2FA74F" id="PL2/3" d="M219 131h4c0-13.298-1-25.187-1-38l-6 2c0 3.352-.147 25.206 1 27.5 1.016 2.031 2 6.247 2 8.5Z"/><path fill="#2FA750" id="PL1" d="M223 131h10c0-11.891 1-25.433 1-38h-12c0 12.813 1 24.702 1 38Z"/><path fill="#2FA74F" id="PL2/3" d="M233 131h5c0-11.884 2-23.624 2-36l-6-2c0 12.567-1 26.109-1 38Z"/><path fill="#2EA84F" id="PL5" d="M204 131h15c0-2.253-.984-6.469-2-8.5-1.147-2.294-1-24.148-1-27.5-2.519 0-17 6.487-17 8 0 9.16 5 18.616 5 28ZM252 131h1c0-6.11.393-15.287 3-20.5.65-1.3.007-6.5 2-6.5v-1c-4.047 0-11.526-8-17-8h-1c0 12.376-2 24.116-2 36h14Z"/><path fill="#1D9C5A" id="MOs6a" d="M163 133c-6.704 0-11.053 3.776-17.5 7l-7.5 6 1-14.5c9.6-19.201 34.953-32.5 55-32.5v1c-1.273 0-5 7.423-5 9l-1 1c-2.004 0-5 5.378-5 7-5.562 0-8.003 1.752-12.5 4-1.247.624-5.077 6-2.5 6l-5 6ZM293 133c11.505 0 18.563 12 25 12 1.643 0 1-3.765 1-5 0-4.318-2.151-9.803-4-13.5-6.376-12.751-24.809-19.654-36.5-25.5-1.773-.887-15.5-5.291-15.5-1l6 10c0 1.473 5 4.605 5 7 3.66 0 15 2.813 15 8l-1 2 5 6Z"/><path fill="#3FA664" id="ACAd6a" d="M198 103c0 2.312-6.732 6-9 6 0-1.577 3.727-9 5-9l4 3ZM258 104c3.725 0 6.849 6 11 6l-6-10h-1l-4 3v1Z"/><path fill="#2FA850" id="PL6a" d="M202 131h2c0-9.384-5-18.84-5-28h-1c0 2.312-6.732 6-9 6l-1 1c-2.004 0-5 5.378-5 7l3 3 16 11ZM253 131h1l1-1c5.325 0 9.904-9 15-9l1-1c0-2.041.959-3 3-3 0-2.395-5-5.527-5-7-4.151 0-7.275-6-11-6-1.993 0-1.35 5.2-2 6.5-2.607 5.213-3 14.39-3 20.5Z"/><path fill="#1E9C5A" id="MOp5" d="M114 159h1l17-10-2-5.5c-1.035-2.07 2-30.419 2-36.5-3.153 0-7.983 8.466-9 10.5-10.267 20.535-9 18.365-9 41.5ZM325 149c0 2.341 2.342 1.421 3.5 2 4.32 2.16 8.747 8 13.5 8 0-11.63 2.248-23.004-3-33.5l-5-7c-1.019-2.037-6.467-11.5-9-11.5v23.5c0 1.887 2 6.113 2 8 0 3.481-2 7.573-2 10.5Z"/><path fill="#3FA664" id="ACAd6a" d="m189 109-1 1 1-1Z"/><path fill="#268E44" id="FRP6a" d="m181 121 5 1v-2l-3-3c-5.562 0-8.003 1.752-12.5 4-1.247.624-5.077 6-2.5 6l13-6ZM276 121l12 6 1-2c0-5.187-11.34-8-15-8-2.041 0-3 .959-3 3v1h5Z"/><path fill="#22885E" id="ORBm6a" d="m200 149 1 1c5.901 0 4-7.492 4-12 0-1.048.473-3-1-3l-2-4-16-11v2c0 7.534 14 19.781 14 27ZM270 121h1v-1l-1 1Z"/><path fill="#24895D" id="ORBl6a" d="M151 155v2c9.593 0 16.253-15 29-15v-1c-2.144 0-.381-4.262-1-5.5-1.947-3.894 2-10.443 2-14.5l-13 6-5 6-8 15.5-3 4.5-1 1v1Z"/><path fill="#238A5C" id="ORBvl6a" d="M180 141c6.862 0 12.851 8 20 8 0-7.219-14-19.466-14-27l-5-1c0 4.057-3.947 10.606-2 14.5.619 1.238-1.144 5.5 1 5.5Z"/><path fill="#22885E" id="ORBm6a" d="m257 149-1 1c-6.958 0-5-6.464-5-12v-1l1-1v-1l2-4 1-1c5.325 0 9.904-9 15-9l1 1c0 5.452-14 19.88-14 27Z"/><path fill="#268E44" id="FRP6a" d="M271 121v1l-1-1h1Z"/><path fill="#238A5C" id="ORBvl6a" d="M276 141h1c0-6.534-1-13.368-1-20h-5v1c0 5.452-14 19.88-14 27 6.599 0 12.746-8 19-8Z"/><path fill="#24895D" id="ORBl6a" d="m305 155 1 2c-7.909 0-12.527-9.013-18.5-12-1.26-.63-10.5-3.367-10.5-4 0-6.534-1-13.368-1-20l12 6 5 6c0 5.601 12 15.952 12 22Z"/><path fill="#58B362" id="ILA6a" d="m255 130-1 1 1-1ZM204 131v4l-2-4h2Z"/><path fill="#59B262" id="ILA5" d="M219 159h1l-1-28h-15v4c1.473 0 1 1.952 1 3l4 4.5c1.121 2.242 10 15.544 10 16.5Z"/><path fill="#59B362" id="ILA2/3" d="M224 162h1c0-11.143-2-20.105-2-31h-4l1 28c1.114 0 4 2.034 4 3Z"/><path fill="#59B263" id="ILA1" d="M225 162h7v-1l1-30h-10c0 10.895 2 19.857 2 31Z"/><path fill="#59B362" id="ILA2/3" d="M237 159c-2.523 0-1.959 2-5 2l1-30h5c0 8.208-1 18.111-1 27v1Z"/><path fill="#59B262" id="ILA5" d="M251 138c-2.073 0-10.29 20-14 20 0-8.889 1-18.792 1-27h14v5l-1 1v1Z"/><path fill="#58B362" id="ILA6a" d="m254 131-2 4v-4h2Z"/><path fill="#209666" id="AId6a" d="M148 158h1v-1l2-2v-1l1-1 3-4.5 8-15.5c-6.704 0-11.053 3.776-17.5 7l-7.5 6c0 5.313 4.087 12 10 12ZM305 155c1.539 0 3 1.342 3 3 6.603 0 10-5.875 10-12v-1c-6.437 0-13.495-12-25-12 0 5.601 12 15.952 12 22Z"/><path fill="#23885E" id="ORBm5" d="m252 136-1 1 1-1ZM219 159c0 9.513-1.876 14-12 14 0-8.706-6-16.773-6-23 5.901 0 4-7.492 4-12l4 4.5c1.121 2.242 10 15.544 10 16.5ZM249 173h1c0-9.402 6-19.603 6-23-6.958 0-5-6.464-5-12-2.073 0-10.29 20-14 20v1c0 8.742 2.585 14 12 14Z"/><path fill="#23885C" id="ORBvl5" d="M188 161c7.062 0 11.805 12 19 12 0-8.706-6-16.773-6-23l-1-1c-7.149 0-13.138-8-20-8v1c0 6.122 8 11.505 8 18v1ZM267 162c-6.219 0-10.782 11-17 11 0-9.402 6-19.603 6-23l1-1c6.599 0 12.746-8 19-8 0 7.842-8 11.957-8 20l-1 1Z"/><path fill="#228A5D" id="ORBl5" d="M310 181h1c0-2.77 3.78-5.94 2-9.5-1.928-3.856-6-9.015-6-13.5l-1-1c-7.909 0-12.527-9.013-18.5-12-1.26-.63-10.5-3.367-10.5-4h-1c0 7.842-8 11.957-8 20 1.984 0 3.945-3.278 6.5-2l14 6 11 8 10.5 8ZM145 181h2c0-2.612 6.505-5.005 8-6.5 7.391-7.391 17.725-11.113 26.5-15.5l6.5 1c0-6.495-8-11.878-8-18-12.747 0-19.407 15-29 15h-1l-1 1c0 4.624-3.979 11.459-6 15.5l2 7.5Z"/><path fill="#209665" id="AId5" d="M115 159c0 4.137 6.691 26 11 26l5.5-6c2.16-1.08 16.5-17.863 16.5-21-5.913 0-10-6.687-10-12l-6 3-17 10ZM330 185h1c3.343 0 8.458-17.416 10-20.5.574-1.147-1.064-4.5 1-4.5v-1c-4.753 0-9.18-5.84-13.5-8-1.158-.579-3.5.341-3.5-2l-7-3c0 6.125-3.397 12-10 12l5 6.5c1.446 2.892 15.334 20.5 17 20.5Z"/><path fill="#1F9866" id="AIv6a" d="m152 153-1 1 1-1ZM150 157h1v-2l-2 2h1ZM307 158h1c0-1.658-1.461-3-3-3l1 2 1 1Z"/><path fill="#1F9865" id="AIv5" d="m150 157-1 1v-1h1ZM126 185v1l3.5 2c3.31 1.655 15.5-3.534 15.5-7l-2-7.5c2.021-4.041 6-10.876 6-15.5h-1c0 3.137-14.34 19.92-16.5 21l-5.5 6ZM311 181c0 3.253 19 11.174 19 4-1.666 0-15.554-17.608-17-20.5l-5-6.5h-1c0 4.485 4.072 9.644 6 13.5 1.78 3.56-2 6.73-2 9.5Z"/><path fill="#209765" id="AId2/3" d="m126 186-10 7c-1.895 0-12.223-26-13-26v-1c2.004 0 11-4.848 11-7h1c0 4.137 6.691 26 11 26v1Z"/><path fill="#238A5E" id="ORBl2/3" d="M148 185h1c0-3.185 12-7.675 12-6 5.056 0 9.925-6.787 15.5-4 1.147.574 4.5-1.064 4.5 1l8 1c0-2.907 3.539-7.422 2-10.5-.895-1.79-3-3.403-3-5.5v-1l-6.5-1c-8.775 4.387-19.109 8.109-26.5 15.5-1.495 1.495-8 3.888-8 6.5l1 4Z"/><path fill="#24885D" id="ORBm2/3" d="m208 181 10 1c0-3.972 6-10.948 6-20 0-.966-2.886-3-4-3h-1c0 9.513-1.876 14-12 14l1 8ZM248 181l-10 1c0-6.012-6-12.058-6-20v-1c3.041 0 2.477-2 5-2 0 8.742 2.585 14 12 14 0 3.425-1 4.761-1 8Z"/><path fill="#238A5E" id="ORBl2/3" d="m310 181-2 3c-1.324 0-13-8.001-13-5l-7.5-4c-3.646-1.823-7.726 0-11.5 0-2.755 0-5.553 2-9 2v-15l1-1c1.984 0 3.945-3.278 6.5-2l14 6 11 8 10.5 8Z"/><path fill="#209765" id="AId2/3" d="M331 185c0 2.379 7.319 8 10 8 0-5.036 12-20.215 12-26v-1c-3.97 0-7.109-6-11-6-2.064 0-.426 3.353-1 4.5-1.542 3.084-6.657 20.5-10 20.5Z"/><path fill="#248A5D" id="ORBvl2/3" d="m199 180 9 1-1-8c-7.195 0-11.938-12-19-12 0 2.097 2.105 3.71 3 5.5 1.539 3.078-2 7.593-2 10.5l10 3ZM268 161l-1 1 1-1Z"/><path fill="#23895D" id="ORBm1" d="m229 180 9 2c0-6.012-6-12.058-6-20h-8c0 9.052-6 16.028-6 20 3.324 0 6.16-2 9-2 0-1.145-.579-4 1-4 0-2.029 1-.058 1 1v3Z"/><path fill="#248A5D" id="ORBvl2/3" d="m257 180-9 1c0-3.239 1-4.575 1-8h1c6.218 0 10.781-11 17-11v15l-10 3Z"/><path fill="#209764" id="AId1" d="m116 194-5 1-3-5.5c-3.076-6.153-9-14.325-9-21.5l4-1c.777 0 11.105 26 13 26v1ZM341 194l4 1c1.761 0 3.325-6.15 4-7.5 2.79-5.58 8-11.929 8-18.5 0-2.109-2.535-2-4-2 0 5.785-12 20.964-12 26v1Z"/><path fill="#6ACAB9" id="PIR" d="M169 225v11.5l-4 4.5c-2.828 0-5.994-4.747-8.5-6-8.34-4.17-13.247-10-23.5-10-12.085 0-10-12.491-10-20 2.95 0 26-17.474 26-18l12-8c5.056 0 9.925-6.787 15.5-4 1.147.574 4.5-1.064 4.5 1 0 11.957-15.317 16.133-20 25.5-2.467 4.933 8 16.385 8 23.5ZM323 225c0-.713-7.045.273-8.5 1-5.188 2.594-19.773 15-23.5 15l-4-4.5V225c0-7.795 12.053-16.395 8-24.5-5.196-10.393-19-11.589-19-25.5 3.774 0 7.854-1.823 11.5 0l7.5 4 12 8c1.926 0 17.7 13.2 20 15.5 1.062 1.062 6 1.481 6 3.5 0 2.592.958 3.416 2 5.5 2.674 5.348-7.78 13.5-12 13.5Z"/><path fill="#99D2BD" id="OLF" d="M274 216c4.015 0 8.675 9 13 9 0-7.795 12.053-16.395 8-24.5-5.196-10.393-19-11.589-19-25.5-2.755 0-5.553 2-9 2l-10 3c0 3.863-3 6.505-3 8 4.861 0 14 1.402 14 8 15.757 0 6 14.457 6 20ZM182 216l-9.5 6-3.5 3c0-7.115-10.467-18.567-8-23.5 4.683-9.367 20-13.543 20-25.5l8 1 10 3c0 3.238 3 5.3 3 8-5.291 0-14 2.15-14 8-15.456 0-6 14.108-6 20ZM227 191c0 1.407.358 10 1.5 10l.5-10v-14l-1-1c-1.579 0-1 2.855-1 4v11Z"/><path fill="#238A5D" id="ORBl1" d="M149 185v2l12-8c0-1.675-12 2.815-12 6ZM308 185l-1 2-12-8c0-3.001 11.676 5 13 5v1Z"/><path fill="#A3DAA3" id="DP" d="M209 191h18v-11c-2.84 0-5.676 2-9 2l-10-1-9-1c0 3.238 3 5.3 3 8 2.232 0 4.029 3 7 3ZM247 191h1c2.25 0 3.376-2 5-2l1-1c0-1.495 3-4.137 3-8l-9 1-10 1-9-2v11h18Z"/><path fill="#219764" id="AIv2/3" d="M116 193v1c2.491 0 5.125 8.687 12.5 5l19.5-14-1-4h-2c0 3.466-12.19 8.655-15.5 7l-3.5-2-10 7ZM341 193v1c-2.6 0-5.268 8.116-9.5 6-3.83-1.915-21.397-15-23.5-15v-1l2-3h1c0 3.253 19 11.174 19 4h1c0 2.379 7.319 8 10 8Z"/><path fill="#209864" id="AIv1" d="M111 195c0 5.311 7.211 10 12 10 2.95 0 26-17.474 26-18v-2h-1l-19.5 14c-7.375 3.687-10.009-5-12.5-5l-5 1ZM345 195c0 4.655-7.654 11-12 11 0-2.019-4.938-2.438-6-3.5-2.3-2.3-18.074-15.5-20-15.5l1-2c2.103 0 19.67 13.085 23.5 15 4.232 2.116 6.9-6 9.5-6l4 1Z"/><path fill="#54BF94" id="AON" d="m264 257 2 2c5.982 0 19.701-11 22-11v-1c0-3.37 3-3.859 3-6l-4-4.5V225c-4.325 0-8.985-9-13-9-1.07 0-2.462 4.019-4.5 3-1.456-.728-1.5-3.942-1.5-5.5V196c0-6.598-9.139-8-14-8l-1 1c-1.624 0-2.75 2-5 2v1c0 3.017-2.69 6.881-4 9.5-1.85 3.701-1.448 15.474-5.5 17.5-8.022 4.011-6.155 0-10 0-2.863 0-4.081 3.46-9 1-3.123-1.561-10.5-25.177-10.5-29-2.971 0-4.768-3-7-3-5.291 0-14 2.15-14 8 1.397 0-2.118 8.265-1 10.5.687 1.374 2.555 11.472.5 12.5-2.569 1.284-3.509-3-5.5-3l-9.5 6-3.5 3v11.5l-4 4.5c0 2.33 4 3.227 4 6v1c0 1.797 18.435 11 21 11l3-3c0-13.842 14.337-20.919 24.5-26l10.5 1c0-1.186 1-1.186 1 0 2.421 0 6.678-2.411 9.5-1 10.386 5.193 25.5 12.249 25.5 27Z"/><path fill="#99D2BD" id="OLF" d="m254 188-1 1 1-1Z"/><path fill="#61D09F" id="TTd" d="m247 191 1 1c0 3.017-2.69 6.881-4 9.5-1.85 3.701-1.448 15.474-5.5 17.5-8.022 4.011-6.155 0-10 0-2.863 0-4.081 3.46-9 1-3.123-1.561-10.5-25.177-10.5-29h18c0 1.407.358 10 1.5 10l.5-10h18Z"/><path fill="#99D2BD" id="OLF" d="M248 191v1l-1-1h1Z"/><path fill="#CBCBC7" id="aco" d="M188 196c1.397 0-2.118 8.265-1 10.5.687 1.374 2.555 11.472.5 12.5-2.569 1.284-3.509-3-5.5-3 0-5.892-9.456-20 6-20ZM268 196c15.757 0 6 14.457 6 20-1.07 0-2.462 4.019-4.5 3-1.456-.728-1.5-3.942-1.5-5.5V196Z"/><path fill="#CAC8C7" id="lot" d="m288 247 1 1c6.548 0 19.203-11.851 25.5-15 2.451-1.225 8.054-2.609 9.5-5.5l-1-2.5c0-.713-7.045.273-8.5 1-5.188 2.594-19.773 15-23.5 15 0 2.141-3 2.63-3 6ZM169 247l-2 1c-3.288 0-5.71-3.605-8.5-5-5.752-2.876-25.5-12.026-25.5-18 10.253 0 15.16 5.83 23.5 10 2.506 1.253 5.672 6 8.5 6 0 2.33 4 3.227 4 6Z"/><path fill="#62CF9E" id="TTv" d="M201 263c19.025 0 13.241-8.87 23.5-14l4-8 4.5 9.5c4.378 8.757 12.86 12.5 22 12.5 0-1.579 2.855-1 4-1l2-1h2l1-1v-3c0-14.751-15.114-21.807-25.5-27-2.822-1.411-7.079 1-9.5 1h-1l-10.5-1c-10.163 5.081-24.5 12.158-24.5 26l1 5h1l2 1h1c1.048 0 3-.473 3 1Z"/><path fill="#99D2BD" id="OLF" d="M228 231h1c0-1.186-1-1.186-1 0ZM167 248h2v-1l-2 1ZM288 248h1l-1-1v1ZM190 259l4 2-1-5-3 3ZM266 259l-2 1v-3l2 2ZM264 260l-1 1 1-1ZM195 261l2 1-2-1ZM261 261l-2 1 2-1ZM198 262c1.048 0 3-.473 3 1-1.048 0-3 .473-3-1ZM259 262c-1.145 0-4-.579-4 1 1.145 0 4 .579 4-1Z"/></svg>