<svg xmlns="http://www.w3.org/2000/svg" viewBox="0 0 456 320"><path fill="#1E9C59" id="MOs1" d="M225 57c0 2.098-1.939 3-4 3 0-3.679-2.533-3.566-4-6.5-4.894-9.789-23.331-11.085-32.5-6.5h-5l-4.5 2v-6l4.5-2h6c9.723-4.861 28.968-1.563 33.5 7.5 1.583 3.167 6 4.683 6 8.5ZM231 57l4 3c0-2.969 4.22-7.86 6.5-9l9-6c8.247-4.123 23.756 4 30.5 4 0-2.275 1-3.514 1-6-2.606 0-2.4-.95-4.5-2h-6c-9.997-4.998-29.262-1.977-34.5 8.5-1.45 2.9-6 3.974-6 7.5Z"/><path fill="#1E9D5A" id="MOp1" d="M119 65v6c5.528 0 11.742-5.621 16.5-8 6.333-3.166 33.305-14 39.5-14v-6c-8.458 0-35.307 11.903-43.5 16L119 65ZM337 65v6l-14.5-7c-6.754-3.377-33.952-15-40.5-15h-1c0-2.275 1-3.514 1-6 6.368 0 36.81 12.655 43.5 16 3.212 1.606 7.862 6 11.5 6Z"/><path fill="#1E9D58" id="MOs2/3" d="M215 64c0-14.042-27.243-5.629-32.5-3-2.338 1.169-5.905 5-8.5 5l1-17 4.5-2h5c9.169-4.585 27.606-3.289 32.5 6.5 1.467 2.934 4 2.821 4 6.5l-6 4ZM241 63c.892 0 11.99-11.255 20.5-7 3.521 1.76 18.66 10 21.5 10 0-3.166-.693-5.886-2-8.5-.249-.499 1-6.937 1-8.5h-1c-6.744 0-22.253-8.123-30.5-4l-9 6c-2.28 1.14-6.5 6.031-6.5 9v1c2.72 0 3.553 2 6 2Z"/><path fill="#1F9C58" id="MOp2/3" d="M117 96h1l12.5-9c9.856-4.928 20.277-9.138 30-14 3.894-1.947 7.922-6 12.5-6l1-1 1-17c-6.195 0-33.167 10.834-39.5 14-4.758 2.379-10.972 8-16.5 8v1c0 5.698-2 12.68-2 17 0 1.466 1.115 4 0 4v3ZM339 94v2l-16.5-11c-7.483-3.741-32.507-18-39.5-18v-1c0-3.166-.693-5.886-2-8.5-.249-.499 1-6.937 1-8.5 6.548 0 33.746 11.623 40.5 15l14.5 7c0 6.02 2 10.96 2 18v5Z"/><path fill="#1F9D58" id="MOs5" d="M200 77c-2.579 0-5.997-3.752-9.5-2-3.198 1.6-16.059 10-18.5 10 0-2.475 1.9-18 1-18l1-1c2.595 0 6.162-3.831 8.5-5 5.257-2.629 32.5-11.042 32.5 3v1c-5.913 0-12.267 12-15 12ZM256 77c3.027 0 6.821-3.84 10.5-2 3.17 1.585 14.939 10 17.5 10 0-6.128-1-11.73-1-18v-1c-2.84 0-17.979-8.24-21.5-10-8.51-4.255-19.608 7-20.5 7v1c4.187 0 13.317 13 15 13Z"/><path fill="#3EA665" id="ACAd1" d="M223 89h11c0-9.26 1-19.404 1-28v-1l-4-3c-2.307 0-1.624 4-2.5 4l-3.5-4c0 2.098-1.939 3-4 3 0 1.906 1.099 6.698 2 8.5V89Z"/><path fill="#40A565" id="ACAd2/3" d="M223 89c-2.124 0-4.436 1-6 1V70.5c0-1.532-.173-5.5-2-5.5v-1l6-4c0 1.906 1.099 6.698 2 8.5V89ZM234 89h5c0-8.62 2-17.393 2-25v-1c-2.447 0-3.28-2-6-2 0 8.596-1 18.74-1 28Z"/><path fill="#3EA566" id="ACAd5" d="m239 90 14 7c0-6.365 3-13.274 3-19v-1c-1.683 0-10.813-13-15-13 0 7.607-2 16.38-2 25v1Z"/><path fill="#197E64" id="SSp-ul1" d="M106 79h1c0-2.245 10.011-7 12-7v-7l-16 9c0 1.054 3 2.931 3 5Z"/><path fill="#3EA566" id="ACAd5" d="m217 90-14 7c0-4.869-1-9.648-1-14 0-1.041-.986-5-2-5v-1c2.733 0 9.087-12 15-12 1.827 0 2 3.968 2 5.5V90Z"/><path fill="#197E64" id="SSp-ul1" d="M349 79h1l3-5-3.5-3c-3.064-1.532-9.049-6-12.5-6v6c1.573 0 12 6.382 12 8Z"/><path fill="#1E9C5A" id="MOp5" d="M117 97c0 3.816 2 8.634 2 13 3.7 0 7.286-5.393 10.5-7 5.036-2.518 37.907-17 41.5-17l1-1c0-2.475 1.9-18 1-18-4.578 0-8.606 4.053-12.5 6-9.723 4.862-20.144 9.072-30 14L118 96l-1 1ZM339 97c0 2.088-.318 13-2 13l-10.5-7c-11.161-5.58-23.925-8.463-35-14l-6.5-4h-1c0-6.128-1-11.73-1-18 6.993 0 32.017 14.259 39.5 18L339 96v1Z"/><path fill="#197F61" id="SSp-ul2/3" d="M342 90h1c0-3.558 6-6.554 6-11 0-1.618-10.427-8-12-8 0 6.02 2 10.96 2 18 1.048 0 3-.473 3 1ZM117 89l-3 1c0-4.256-7-7.215-7-11 0-2.245 10.011-7 12-7 0 5.698-2 12.68-2 17Z"/><path fill="#187E61" id="SSp-m1" d="m62 143 4 1c0-15.11 14.182-41.682 24.5-52 2.154-2.154 13.45-13 15.5-13 0-2.069-3-3.946-3-5l-11.5 9C76.822 90.34 62 127.623 62 143ZM395 143l-5 1c0-12.728-13.99-47.245-25.5-53-4.977-2.488-8.908-12-14.5-12l3-5c4.989 0 13.341 9.84 17 13.5 11.098 11.098 25 40.148 25 55.5Z"/><path fill="#1D9C5A" id="MOs6a" d="m175 105-4 1V86l1-1c2.441 0 15.302-8.4 18.5-10 3.503-1.752 6.921 2 9.5 2v1c-2.037 0-12 19.895-12 23-2.126 0-13 1.689-13 4ZM269 101l16 4V85h-1c-2.561 0-14.33-8.415-17.5-10-3.679-1.84-7.473 2-10.5 2v1c2.11 0 13 20.496 13 23Z"/><path fill="#3FA664" id="ACAd6a" d="M193 107h1c0-1.793 7.275-9 9-9v-1c0-4.869-1-9.648-1-14 0-1.041-.986-5-2-5-2.037 0-12 19.895-12 23v1c2.362 0 5 2.638 5 5ZM269 101c-1.442 0-6 3.274-6 5-4.121 0-5.447-8-10-8v-1c0-6.365 3-13.274 3-19 2.11 0 13 20.496 13 23Z"/><path fill="#1A7E64" id="SSp-m2/3" d="M66 145c4.578 0 9.668 5 10 5 0-13.463 14.975-47.238 26.5-53l11.5-7c0-4.256-7-7.215-7-11h-1c-2.05 0-13.346 10.846-15.5 13C80.182 102.318 66 128.89 66 144v1ZM390 145c-3.854 0-7.124 4-9 4-1.867 0-2.117-11.734-3-13.5-3.258-6.516-5.762-13.524-9-20-2.895-5.789-9.917-17.209-16.5-20.5-1.529-.765-9.5-3.162-9.5-5 0-3.558 6-6.554 6-11h1c5.592 0 9.523 9.512 14.5 12 11.51 5.755 25.5 40.272 25.5 53v1Z"/><path fill="#1F9B5A" id="MOp6a" d="m172 85-1 1 1-1ZM337 111c0 8.38-4 17.468-4 24-4.501 0-6.966-8.233-10.5-10-6.928-3.464-30.429-19-37.5-19V85l6.5 4c11.075 5.537 23.839 8.42 35 14l10.5 7v1ZM153 115c-6.212 0-16.562 8.062-21 12.5l-9 8.5c0-5.026-4-16.274-4-25v-1c3.7 0 7.286-5.393 10.5-7 5.036-2.518 37.907-17 41.5-17v20l-6 3c-1.787 0-12 4.225-12 6Z"/><path fill="#1A7F63" id="SSp-ul4" d="m114 90 3 3c1.115 0 0-2.534 0-4l-3 1Z"/><path fill="#3FA566" id="ACAv2/3" d="m220 128-2 1-1-39c1.564 0 3.876-1 6-1 0 11.347-1 23.852-1 35l-2 4Z"/><path fill="#40A664" id="ACAv1" d="m229 119 5 4V89h-11c0 11.347-1 23.852-1 35l5-5c0-2.564 2-2.564 2 0Z"/><path fill="#3FA566" id="ACAv2/3" d="m236 128 2 1c0-12.326 1-26.028 1-39v-1h-5v34l2 5Z"/><path fill="#1A7F63" id="SSp-ul4" d="M342 90c0 1.429-1.288 4-3 4v-5c1.048 0 3-.473 3 1Z"/><path fill="#1B7F62" id="SSp-m4" d="M77 166h4v-1c0-14.037 11.737-51.618 24.5-58 3.765-1.883 7.169-10 11.5-10v-4l-3-3-11.5 7C90.975 102.762 76 136.537 76 150c1.186 0 1.186 1 0 1v1c0 4.474 1 10.147 1 14Z"/><path fill="#3EA666" id="ACAv5" d="M210 127c1.048 0 8 4.651 8 2l-1-39-14 7v1c0 5.257-.217 13.066 2 17.5l5 11.5ZM247 126c0 1.733-9 5.528-9 3 0-12.326 1-26.028 1-39l14 7v1c0 6.136.545 13.411-2 18.5l-4 9.5Z"/><path fill="#1B7F62" id="SSp-m4" d="M375 166h4c2.704 0-1.192-11 2-11v-2c-1.186 0-1.186-1 0-1v-1c-1.186 0-1.186-1 0-1v-1c-1.867 0-2.117-11.734-3-13.5-3.258-6.516-5.762-13.524-9-20-2.895-5.789-9.917-17.209-16.5-20.5-1.529-.765-9.5-3.162-9.5-5h-1c0 1.429-1.288 4-3 4v3c4.56 0 14.051 10.602 16 14.5l8 10c6.183 12.366 12 28.824 12 43.5v1Z"/><path fill="#1B7E63" id="SSp-m5" d="m118 96-1 1v-1h1ZM95 164l-14 1c0-14.037 11.737-51.618 24.5-58 3.765-1.883 7.169-10 11.5-10 0 3.816 2 8.634 2 13v1c-4.859 0-10.132 7.763-12 11.5-7.694 15.388-12 21.557-12 40.5v1ZM361 164l14 1c0-14.676-5.817-31.134-12-43.5l-8-10c-1.949-3.898-11.44-14.5-16-14.5 0 2.088-.318 13-2 13v1c3.931 0 9.37 6.241 11 9.5l5 6c5.623 11.247 8 22.874 8 36.5v1Z"/><path fill="#40A564" id="ACAv6a" d="m204 123 6 4-5-11.5c-2.217-4.434-2-12.243-2-17.5-1.725 0-9 7.207-9 9 0 5.513 10 9.656 10 15v1ZM252 123c-1.947 0-2.636 3-5 3l4-9.5c2.545-5.089 2-12.364 2-18.5 4.553 0 5.879 8 10 8v2c-1.577 0-2 1.762-2 3-1.782 0-8 8.283-8 10l-1 1v1Z"/><path fill="#1E9C58" id="MOs6b" d="M187 103c-4.775 0-7.525 2-12 2 0-2.311 10.874-4 13-4v1l-1 1Z"/><path fill="#3FA466" id="ACAd6b" d="M263 107h1c1.539 0 2.187-4 5-4v-2c-1.442 0-6 3.274-6 5v1Z"/><path fill="#1E9C58" id="MOs6b" d="M285 106v1c-5.318 0-9.802-4-16-4v-2l16 4v1Z"/><path fill="#3FA466" id="ACAd6b" d="M187 103c3.625 0 3.563 4 6 4 0-2.362-2.638-5-5-5l-1 1Z"/><path fill="#CACCC7" id="cing" d="M204 122v1c-8.109 0-10.249-12.875-16.5-16-5.253-2.626-11.128 3-15.5 3l-1 1h-2l-1 1c-1.048 0-3-.473-3 1h-4l4-4c1.623 0 6-.005 6-2 1.465 0 4 .109 4-2 4.475 0 7.225-2 12-2 3.625 0 3.563 4 6 4 0 2.838 7.327 15 11 15ZM252 122v1c8.101 0 11.475-12.988 17.5-16 5.892-2.946 12.495 4 17.5 4l1 1h1l7 1c0-3.775-11-3.261-11-6-5.318 0-9.802-4-16-4-2.813 0-3.461 4-5 4l-1 1c0 1.238-.423 3-2 3 0 3.123-5.494 10-8 10l-1 1Z"/><path fill="#1E9C58" id="MOs6b" d="M171 106v1c1.465 0 4 .109 4-2l-4 1Z"/><path fill="#1D9D5A" id="MOp6b" d="M171 107c0 1.995-4.377 2-6 2l6-3v1ZM333 137v1l-11.5-11c-4.037-4.037-20.153-14-25.5-14 0-3.775-11-3.261-11-6v-1c7.071 0 30.572 15.536 37.5 19 3.534 1.767 5.999 10 10.5 10v2Z"/><path fill="#CCC7C9" id="ccg" d="M340 173h2v-10c-1.564 0-1.321-8.141-2-9.5-2.935-5.87-7.581-17.041-14.5-20.5-7.642-3.821-14.859-10.93-23-15-1.822-.911-13.5-4.3-13.5-6h-1l-1-1c-5.005 0-11.608-6.946-17.5-4-6.025 3.012-9.399 16-17.5 16-1.947 0-2.636 3-5 3 0 1.733-9 5.528-9 3l-2-1c0 1.702-4.234 4-5.5 4l-2-3-2 3c-1.272.636-6.5-2.289-6.5-4l-2 1c0 2.651-6.952-2-8-2l-6-4c-8.109 0-10.249-12.875-16.5-16-5.253-2.626-11.128 3-15.5 3l-1 1h-2l-1 1c0 1.473-1.952 1-3 1l-24.5 12-17 16-4.5 6c0 1.465.109 4-2 4 0 1.552-.566 8-2 8v14h2c0-17.412 4.781-33.641 21.5-42 5.585-2.793 14.649-3.825 19-6 2.785-1.393 11.435-3.783 15-2 4.061 2.03 8.926 1.963 13 4l6.5 6c5.002 0 19 9.439 19 15l9 6c2.124 0 4.436 1 6 1 0-4.09 4-4.31 4 0l6-1c3.448 0 8.015-7 10-7 0-5.75 13.844-14 19-14 0-8.021 27.534-11.983 33.5-9l16 5c17.717 8.859 25.5 25.013 25.5 44Z"/><path fill="#40A465" id="ACAv6b" d="M194 107c0 5.513 10 9.656 10 15-3.673 0-11-12.162-11-15h1ZM264 107l-1 1v-1h1ZM263 108c-1.577 0-2 1.762-2 3 1.577 0 2-1.762 2-3Z"/><path fill="#1D9D5A" id="MOp6b" d="M161 113c-3.235 0-4.55 2-8 2 0-1.775 10.213-6 12-6l-4 4Z"/><path fill="#C9C9CA" id="scwm" d="m172 110-1 1 1-1Z"/><path fill="#187D61" id="SSp-m6a" d="M113 160c-5.859 0-11.605 3-18 3 0-18.943 4.306-25.112 12-40.5 1.868-3.737 7.141-11.5 12-11.5 0 8.726 4 19.974 4 25v1c-3.924 0-10 18.809-10 23Z"/><path fill="#C9C9CA" id="scwm" d="m169 111-1 1 1-1Z"/><path fill="#40A465" id="ACAv6b" d="M261 111c-1.782 0-8 8.283-8 10 2.506 0 8-6.877 8-10Z"/><path fill="#C9C9CA" id="scwm" d="m287 111 1 1-1-1Z"/><path fill="#187D61" id="SSp-m6a" d="M343 160c6.083 0 11.519 3 18 3 0-13.626-2.377-25.253-8-36.5l-5-6c-1.63-3.259-7.069-9.5-11-9.5 0 8.38-4 17.468-4 24v2c4.691 0 10 17.811 10 23Z"/><path fill="#C9C9CA" id="scwm" d="M168 112c-1.048 0-3-.473-3 1 1.048 0 3 .473 3-1ZM342 160v3c-1.564 0-1.321-8.141-2-9.5-2.935-5.87-7.581-17.041-14.5-20.5-7.642-3.821-14.859-10.93-23-15-1.822-.911-13.5-4.3-13.5-6l7 1c5.347 0 21.463 9.963 25.5 14l11.5 11c0 4.404 9 13.402 9 22ZM123 138c0 3.54-4 5.131-4 9l4.5-6 17-16 24.5-12h-4c-3.235 0-4.55 2-8 2 0 .878-15.475 9.988-17.5 11L123 138Z"/><path fill="#1D9D5A" id="MOp6b" d="M123 137v1l12.5-12c2.025-1.012 17.5-10.122 17.5-11-6.212 0-16.562 8.062-21 12.5l-9 8.5v1Z"/><path fill="#7ED04B" id="IG" d="M220 128c0 1.711 5.228 4.636 6.5 4l2-3 2 3c1.266 0 5.5-2.298 5.5-4l-2-5-5-4c0 2.488-2 1.919-2 0l-5 5-2 4Z"/><path fill="#40A465" id="ACAv6b" d="m253 121-1 1 1-1Z"/><path fill="#98D5F9" id="CP" d="m137 231 5 3c6.136 0 10.735 1.882 16.5-1 6.077-3.039 6.079-11.658 8.5-16.5 5.118-10.235 12.383-12.942 21.5-17.5l2.5-2 1-1 1-1c0-2.093.461-14 2-14v-5c0-1.235-.643-5 1-5 0-1.048-.473-3 1-3v-24.5c-1.042-2.084-2-2.908-2-5.5-1.803 0-3-3.592-3-5l-6.5-6c-4.074-2.037-8.939-1.97-13-4-3.565-1.783-12.215.607-15 2-4.351 2.175-13.415 3.207-19 6-16.719 8.359-21.5 24.588-21.5 42 0 11.227 7 20.552 7 32l3 12v1c1.428 0 4 4.822 4 6l6 7ZM319 232c-1.041 0-5 .986-5 2-5.871 0-10.87 1.815-16.5-1-5.682-2.841-6.149-12.798-8.5-17.5-3.412-6.824-16.497-18.5-24-18.5l-1-1c0-1.242-1.019-9-2-9v-8l-1-2v-4c0-5.752-5.091-22.318-2-28.5l3-6.5 3-5c0-8.021 27.534-11.983 33.5-9l16 5c17.717 8.859 25.5 25.013 25.5 44 0 10.924-7 20.127-7 32-1.434 0-2 6.448-2 8-1.473 0-1 1.952-1 3l-1 2v1l-1 1-1 1v1l-1 1-1 2-6 7Z"/><path fill="#AAA8A9" id="SEZ" d="M210 148h1c0-5.561-13.998-15-19-15 0 1.408 1.197 5 3 5 0-1.028 1.621-1.44 2.5-1 2.943 1.472 12.5 7.78 12.5 11ZM246 147l1 2c0-6.873 10.716-11 15-11l3-5c-5.156 0-19 8.25-19 14Z"/><path fill="#188064" id="SSp-m6b" d="M113 160h2v-1c0-1.899-.488-8 2-8 0-1.465-.109-4 2-4 0-3.869 4-5.46 4-9v-1c-3.924 0-10 18.809-10 23Z"/><path fill="#A8AAAA" id="VL" d="M197 167h1l1-1 3-6 1-1c0-3.428 6-6.206 6-10l1-1c0-3.22-9.557-9.528-12.5-11-.879-.44-2.5-.028-2.5 1 0 2.592.958 3.416 2 5.5V167ZM260 171l1 2c0-5.752-5.091-22.318-2-28.5l3-6.5c-4.284 0-15 4.127-15 11v1l1 1 3 5 1 1 2 3 1 1v1l2 2 2 4v2l1 1Z"/><path fill="#188064" id="SSp-m6b" d="M342 160h1c0-5.189-5.309-23-10-23v1c0 4.404 9 13.402 9 22Z"/><path fill="#1A7E62" id="SSs1" d="M66 169c0 2.109-2.535 2-4 2 0-6.64-4.56-15.381-1-22.5.62-1.238-1.144-5.5 1-5.5l4 1v25ZM390 170l5 1c0-3.24.641-6.781 2-9.5 2.568-5.137-2-13.584-2-18.5l-5 1v26Z"/><path fill="#1B8063" id="SSs2/3" d="M66 169h1c3.303 0 5.115-2 8-2 0-2.075-.797-15 1-15v-2c-.332 0-5.422-5-10-5v24ZM381 167c3.071 0 5.362 2 9 2v-24c-3.854 0-7.124 4-9 4v18Z"/><path fill="#C9C9CA" id="scwm" d="M119 147c-2.109 0-2 2.535-2 4 2.109 0 2-2.535 2-4Z"/><path fill="#97D6F9" id="STR" d="m257 164 2 4c-1.211 0-4.833-4.166-6.5-5-4.91-2.455-11.66 0-16.5 0v-9c3.448 0 8.015-7 10-7l1 2v1l1 1 3 5 1 1 2 3 1 1v1l2 2Z"/><path fill="#AAA8A9" id="SEZ" d="m210 148-1 1 1-1Z"/><path fill="#97D6F9" id="STR" d="m231 191-2.5-4-3.5 6c0-10.576 4.573-25.463-6.5-31-5.698-2.849-17.242 4-19.5 4l3-6 1-1c0-3.428 6-6.206 6-10l1-1h1l9 6c0 3.439-2.706 6.897 1.5 9 .903.452 4.253 3.994 5.5 1.5.675-1.35.247-9.5-1-9.5 0-4.09 4-4.31 4 0 0 7.512-3.682 9 5 9l-4 4.5V191Z"/><path fill="#187C63" id="SSs4" d="M76 150c1.186 0 1.186 1 0 1v-1Z"/><path fill="#AAA8A9" id="SEZ" d="m247 150 1 1-1-1Z"/><path fill="#187C63" id="SSs4" d="M381 150c-1.186 0-1.186 1 0 1v-1Z"/><path fill="#C9C9CA" id="scwm" d="M117 151c-2.488 0-2 6.101-2 8 1.434 0 2-6.448 2-8Z"/><path fill="#187C63" id="SSs4" d="m77 166-2 1c0-2.075-.797-15 1-15 0 4.474 1 10.147 1 14ZM381 152c-1.186 0-1.186 1 0 1v-1Z"/><path fill="#8FCAED" id="SH" d="M220 154c2.124 0 4.436 1 6 1 1.247 0 1.675 8.15 1 9.5-1.247 2.494-4.597-1.048-5.5-1.5-4.206-2.103-1.5-5.561-1.5-9ZM236 163l-1 1c-8.682 0-5-1.488-5-9l6-1v9Z"/><path fill="#187C63" id="SSs4" d="m379 166 2 1v-12c-3.192 0 .704 11-2 11Z"/><path fill="#AAA8A9" id="SEZ" d="m251 156 1 1-1-1ZM203 159l-1 1 1-1Z"/><path fill="#009B74" id="GU6a" d="M113 174c-5.737 0-10.699 5-17 5 0-5.039-1-10.575-1-15v-1c6.395 0 12.141-3 18-3v14Z"/><path fill="#019C74" id="GU6b" d="M113 173h2v-13h-2v13Z"/><path fill="#AAA8A9" id="SEZ" d="m254 160 1 1-1-1Z"/><path fill="#019C74" id="GU6b" d="M342 173h2c0-4.414-1-9.177-1-13h-1v13Z"/><path fill="#009B74" id="GU6a" d="M344 174c5.209 0 10.156 5 16 5 1.797 0 1-12.925 1-15v-1c-6.481 0-11.917-3-18-3 0 3.823 1 8.586 1 13v1Z"/><path fill="#90CAED" id="LSr" d="m213 217 3.5 3c2.038 1.019 3.43-3 4.5-3 0-8.279 4-15.465 4-24 0-10.576 4.573-25.463-6.5-31-5.698-2.849-17.242 4-19.5 4l-1 1v1l-1 1v2l-1 1c0 1.145.579 4-1 4v1c7.529 0 13.098 13.696 16 19.5 1.327 2.653 1.541 10.5-2 10.5v2l1 1 2 5 1 1v1ZM243 217v1l-3.5 2-4.5-4-3-19c0-1.048.473-3-1-3v-25.5l4-4.5 1-1c4.84 0 11.59-2.455 16.5 0 1.667.834 5.289 5 6.5 5v2l1 1 1 2v4c-7.298 0-13.092 14.683-16 20.5-1.384 2.769-.289 9.5 3 9.5v1l-1 1-3 7-1 1Z"/><path fill="#AAA8A9" id="SEZ" d="m255 162 2 2-2-2Z"/><path fill="#97D6F9" id="STR" d="m236 163-1 1 1-1Z"/><path fill="#019C75" id="GU5" d="m96 180-15 5v-20l14-1c0 4.425 1 9.961 1 15v1ZM360 180c5.294 0 9.977 5 15 5v-20l-14-1c0 2.075.797 15-1 15v1Z"/><path fill="#009C74" id="GU4" d="M79 185h2v-19h-4l-2 1 2 14.5 2 3.5Z"/><path fill="#97D6F9" id="STR" d="m199 166-1 1 1-1Z"/><path fill="#009C74" id="GU4" d="m375 185 3 1c0-6.54 3-11.999 3-19l-2-1h-4v19Z"/><path fill="#009B75" id="GU2/3" d="m79 185-8 4c0-6.329-4-12.722-4-20 3.303 0 5.115-2 8-2l2 14.5 2 3.5Z"/><path fill="#AAA8A9" id="SEZ" d="M197 168h1v-1h-1v1Z"/><path fill="#009B75" id="GU2/3" d="m378 186 7 3c1.429 0 2-3.205 2-4.5l3-14.5v-1c-3.638 0-5.929-2-9-2 0 7.001-3 12.46-3 19Z"/><path fill="#A8AAAA" id="VL" d="M196 171h1v-3c-1.473 0-1 1.952-1 3Z"/><path fill="#97D6F9" id="STR" d="m198 168-1 1v-1h1Z"/><path fill="#009C75" id="GU1" d="m71 190-3 1c-1.59 0-1.443-4.386-2-5.5-1.933-3.866-4-9.997-4-14.5 1.465 0 4 .109 4-2h1c0 7.278 4 13.671 4 20v1Z"/><path fill="#97D6F9" id="STR" d="m259 170 1 1-1-1Z"/><path fill="#009C75" id="GU1" d="m385 190 4 1 6-20-5-1-3 14.5c0 1.295-.571 4.5-2 4.5v1Z"/><path fill="#A8AAAA" id="VL" d="M196 172c0 1.145.579 4-1 4 0-1.235-.643-5 1-5v1Z"/><path fill="#97D6F9" id="STR" d="m197 171-1 1v-1h1Z"/><path fill="#1F9766" id="AId6b" d="M116 185h1c0-3.981-2-7.629-2-12h-2v1l2 10 1 1Z"/><path fill="#C8CBCC" id="ec" d="M122 205h2c0-11.448-7-20.773-7-32h-2c0 4.371 2 8.019 2 12v3l1 2v1l1 2v2c1.516 0 3 8.357 3 10ZM333 205h2c0-.792-.759-8 2-8v-3l1-2v-1l1-1v-3l1-1v-1l2-12h-2c0 10.924-7 20.127-7 32Z"/><path fill="#1F9766" id="AId6b" d="M340 185h1l1-1c0-1.249 1.074-10 2-10v-1h-2l-2 12Z"/><path fill="#209666" id="AId6a" d="M102 200h1l5-2c0-6.968-1.565-14 7-14l-2-10c-5.737 0-10.699 5-17 5v1c0 7.326 6 15.555 6 20ZM348 198l6 2c0-3.26 6-11.705 6-20v-1c-5.844 0-10.791-5-16-5-.926 0-2 8.751-2 10 9.153 0 6 8.301 6 14Z"/><path fill="#8FCBED" id="LSv" d="m207 206 2 1c3.541 0 3.327-7.847 2-10.5-2.902-5.804-8.471-19.5-16-19.5v4c0 4.107 1 8.469 1 12l1 2h1l1 1 8 10ZM249 206l-1 1c-3.289 0-4.384-6.731-3-9.5 2.908-5.817 8.702-20.5 16-20.5l1 2v8c-1.684 0-1 4.679-1 6l-2 2c-4.107 0-6.371 10-9 10l-1 1Z"/><path fill="#A8AAAA" id="VL" d="m261 177 1 2-1-2Z"/><path fill="#209665" id="AId5" d="M87 203h1l14-3c0-4.445-6-12.674-6-20l-15 5c0 6.863 6 11.887 6 18ZM368 203h1c0-4.906 6-10.665 6-18-5.023 0-9.706-5-15-5 0 8.295-6 16.74-6 20l14 3Z"/><path fill="#A8AAAA" id="VL" d="M192 196v1c0 10.715.937-2 3-2l1-2c0-3.531-1-7.893-1-12-1.539 0-2 11.907-2 14l-1 1Z"/><path fill="#8ADA86" id="CLA" d="M119 195c0 4.611.558 15.029-7.5 11-2.271-1.136-2.18-8-3.5-8 0-6.968-1.565-14 7-14l1 1 1 2v1l1 2v1l1 2v2ZM337 197c0 12.588 11 11.496 11 1 0-5.699 3.153-14-6-14l-1 1-1 1-1 1v3l-1 1v3l-1 1v2Z"/><path fill="#209765" id="AId2/3" d="m87 203-10 2c-2.57 0-6-12.671-6-15v-1l8-4h2c0 6.863 6 11.887 6 18Z"/><path fill="#209666" id="AId6a" d="M117 185v2l-1-2h1ZM341 185l-1 1v-1h1Z"/><path fill="#209765" id="AId2/3" d="M379 206h1c0-5.295 5-10.003 5-16v-1l-7-3-3-1c0 7.335-6 13.094-6 18 2.342 0 10 .131 10 3Z"/><path fill="#209666" id="AId6a" d="m340 186-1 1 1-1Z"/><path fill="#96A7D3" id="MS" d="M221 225c2.944 0 11.821-.839 13.5 0l1.5 2c0-3.249-1-7.194-1-11l-3-19c-1.473 0-1-1.952-1-3v-3l-2.5-4-3.5 6c0 8.535-4 15.721-4 24v8Z"/><path fill="#A8AAAA" id="VL" d="M264 196v1l1 4.5c-.859 1.718-3-5.816-3-6.5l-1-2c0-1.321-.684-6 1-6 .981 0 2 7.758 2 9Z"/><path fill="#209666" id="AId6a" d="m117 188 1 2-1-2Z"/><path fill="#209764" id="AId1" d="m77 206-3 1c-1.183 0-1.535-3.57-2-4.5-1.708-3.416-4-7.433-4-11.5l3-1c0 2.329 3.43 15 6 15v1Z"/><path fill="#209666" id="AId6a" d="m339 190-1 1 1-1Z"/><path fill="#209764" id="AId1" d="m380 206 3 1c0-5.501 6-10.389 6-16l-4-1c0 5.997-5 10.705-5 16Z"/><path fill="#209666" id="AId6a" d="m118 191 1 2-1-2ZM337 194h1v-2l-1 2Z"/><path fill="#97D6F9" id="STR" d="M195 195h2l-1-2-1 2ZM259 195h3l-1-2-2 2ZM231 194c1.473 0 1 1.952 1 3-1.473 0-1-1.952-1-3Z"/><path fill="#1F9866" id="AIv6a" d="m338 194-1 1v-1h1ZM114 209l-7 2c0-4.345-4-6.655-4-11l5-2c1.32 0 1.229 6.864 3.5 8 8.058 4.029 7.5-6.389 7.5-11 1.516 0 3 8.357 3 10l-3 2h-2l-1 1h-1l-1 1Z"/><path fill="#97D6F9" id="STR" d="m193 195-1 1 1-1Z"/><path fill="#80CDF8" id="ACB" fill-rule="evenodd" d="m181 209-6 4.5-1 4.5c0 19.392 23.188-9 7-9m29 31-6.5 8c-7.096 7.096-12.41 12.705-21 17-7.765 3.882-39.5-.562-39.5-13l-4-16 3-2c6.136 0 10.735 1.882 16.5-1 6.077-3.039 6.079-11.658 8.5-16.5 5.118-10.235 12.383-12.942 21.5-17.5l2.5-2h1c0 10.715.937-2 3-2h3l1 1 8 10 2 2v1l1 1 2 5 1 1v16.5c-1.07 2.14-2 3.887-2 6.5l-1 1Z"/><path fill="#97D6F9" id="STR" d="m198 195 1 1-1-1Z"/><path fill="#80CDF8" id="ACB" fill-rule="evenodd" d="M274 209c0 1.371-4 2.857-4 5.5 0 6.055 8.511 14.978 13 6 2.057-4.113-5.38-11.5-9-11.5m-28 30 6 8.5c7.095 7.095 13.342 13.421 21.5 17.5 8.114 4.057 40.5-1.191 40.5-13l3-16-3-2c-5.871 0-10.87 1.815-16.5-1-5.682-2.841-6.149-12.798-8.5-17.5-3.412-6.824-16.497-18.5-24-18.5h-1l1 4.5c-.859 1.718-3-5.816-3-6.5h-3c-4.107 0-6.371 10-9 10l-1 1-1 1v1l-1 1-3 7-1 1v1l1 16.5 2 4.5Z"/><path fill="#97D6F9" id="STR" d="M191 197h1v-1l-1 1ZM264 197h1l-1-1v1Z"/><path fill="#1F9866" id="AIv6a" d="M343 209c2.72 0 3.553 2 6 2l5-11-6-2c0 10.496-11 11.588-11-1-2.759 0-2 7.208-2 8l2 2 4 1 1 1h1Z"/><path fill="#1F9865" id="AIv5" d="m102 213-6 1c0-5.013-8-7.153-8-11l14-3h1c0 4.345 4 6.655 4 11-1.041 0-5 .986-5 2ZM354 213l7 1c0-5.281 7-7.362 7-11l-14-3-5 11c1.041 0 5 .986 5 2Z"/><path fill="#219764" id="AIv2/3" d="m96 214-13 3-6-11v-1l10-2h1c0 3.847 8 5.987 8 11ZM361 214l13 3 5-11c0-2.869-7.658-3-10-3h-1c0 3.638-7 5.719-7 11Z"/><path fill="#8AD987" id="CTXsp" d="M119 207c6.412 0 4.653 10 8 10l-3-12h-2l-3 2Z"/><path fill="#97D6F9" id="STR" d="m250 205-1 1 1-1Z"/><path fill="#8AD987" id="CTXsp" d="M337 207c-4.7 0-3.474 6-6 6 0-1.552.566-8 2-8h2l2 2Z"/><path fill="#209864" id="AIv1" d="m83 217-3 1c-1.873 0-6-9.1-6-11l3-1 6 11Z"/><path fill="#97D6F9" id="STR" d="M209 207v1l-2-2 2 1Z"/><path fill="#209864" id="AIv1" d="m374 217 3 1c0-3.914 6-7.264 6-11l-3-1h-1l-5 11Z"/><path fill="#8AD987" id="CTXsp" d="m117 207-1 1 1-1Z"/><path fill="#A0EE9C" id="EPd" d="M118 227h1c5.541 0 12 7.333 12-3-1.428 0-4-4.822-4-6v-1c-3.347 0-1.588-10-8-10h-2l-1 1h-1l-1 1c0 2.042-4 4.955-4 7.5 0 3.132 5 6.019 5 8.5h1l2 2ZM333 229h1l1-1h1l1-1h1l1-1 2-1 1-1 1-1h1l1-2 1-6.5c-.965-1.93-3-3.659-3-5.5h-1l-1-1-4-1c-4.7 0-3.474 6-6 6 0 1.048.473 3-1 3l-1 2v1l-1 1-1 1v1l-1 1-1 2c0 5.913 4.224 4 8 4Z"/><path fill="#99D2BD" id="OLF" d="m115 208-1 1 1-1Z"/><path fill="#97D6F9" id="STR" d="m248 208-1 1 1-1Z"/><path fill="#99D2BD" id="OLF" d="m341 208 1 1-1-1ZM102 213c6.206 0 7.181 12 13 12 0-2.481-5-5.368-5-8.5 0-2.545 4-5.458 4-7.5l-7 2c-1.041 0-5 .986-5 2Z"/><path fill="#CBCBC7" id="aco" d="m181 209-6 4.5-1 4.5c0 19.392 23.188-9 7-9Z"/><path fill="#97D6F9" id="STR" d="m209 209 1 1-1-1Z"/><path fill="#CBCBC7" id="aco" d="M274 209c0 1.371-4 2.857-4 5.5 0 6.055 8.511 14.978 13 6 2.057-4.113-5.38-11.5-9-11.5Z"/><path fill="#99D2BD" id="OLF" d="M354 213c-4.754 0-5.505 8-9 8l1-6.5c-.965-1.93-3-3.659-3-5.5 2.72 0 3.553 2 6 2 1.041 0 5 .986 5 2Z"/><path fill="#6ACAB9" id="PIR" d="m123 259 2 1 8-4 2-1c0-6.949 3.992-8.516 0-16.5-1.747-3.495-7.475-6.988-10.5-8.5l-5.5-3h-1l-2-2h-1c-5.819 0-6.794-12-13-12l-6 1-13 3-3 1c0 6.803 17.153 31 23 31 0-4.041 20 7.915 20 10Z"/><path fill="#8AD987" id="CTXsp" d="M331 213c-1.473 0-1 1.952-1 3 1.473 0 1-1.952 1-3Z"/><path fill="#6ACAB9" id="PIR" d="M331 260h2c0-2.074 17.263-13 19.5-13l1.5 2 5.5-5c5.492-2.746 17.5-20.311 17.5-26l-3-1-13-3-7-1c-4.754 0-5.505 8-9 8l-1 2h-1l-1 1-1 1-2 1-1 1h-1l-1 1h-1l-1 1h-1c0 1.76-4.288 3.394-5.5 4-3.707 1.854-6.738 5.976-8.5 9.5-2.765 5.53 4 9.605 4 13.5l8 4Z"/><path fill="#97D6F9" id="STR" d="m212 215 1 1-1-1ZM245 256h4c0-5.422-3-11.241-3-17l-2-4.5-1-16.5-3.5 2-4.5-4c0 3.806 1 7.751 1 11 0 5.376 2.844 29 9 29ZM244 216l-1 1 1-1Z"/><path fill="#8AD987" id="CTXsp" d="m330 216-1 2 1-2Z"/><path fill="#97D6F9" id="STR" d="M208 256h4c5.208 0 9-25.786 9-31v-8c-1.07 0-2.462 4.019-4.5 3l-3.5-3v15.5c-1.07 2.14-2 3.887-2 6.5l-1 1-2 16Z"/><path fill="#8AD987" id="CTXsp" d="M127 218c1.428 0 4 4.822 4 6-1.428 0-4-4.822-4-6ZM329 219l-1 1 1-1ZM328 220l-1 1 1-1Z"/><path fill="#99D2BD" id="OLF" d="m345 221-1 2 1-2Z"/><path fill="#8AD987" id="CTXsp" d="m327 222-1 1 1-1ZM326 223l-1 2 1-2Z"/><path fill="#99D2BD" id="OLF" d="m343 223-1 1 1-1ZM143 252l-8 3c0-6.949 3.992-8.516 0-16.5-1.747-3.495-7.475-6.988-10.5-8.5l-5.5-3c5.541 0 12 7.333 12-3l6 7c0 1.624 2 2.75 2 5l4 16ZM342 224l-1 1 1-1ZM116 225l2 2-2-2Z"/><path fill="#96A6D3" id="NDB" d="m224 262-1 1c-2.735 0-6.092 3.796-8.5 5-2.975 1.488-8.017-2.466-6.5-5.5l4-6.5c5.208 0 9-25.786 9-31 2.944 0 11.821-.839 13.5 0l1.5 2c0 5.376 2.844 29 9 29l4 7.5c0 9.616-14.426 1.147-16-2l-3-2.5c-.716 0-3-2.373-3 0l-1 1-1 1-1 1Z"/><path fill="#99D2BD" id="OLF" d="M322 256h1c0-3.895-6.765-7.97-4-13.5 1.762-3.524 4.793-7.646 8.5-9.5 1.212-.606 5.5-2.24 5.5-4-3.776 0-8 1.913-8-4l-6 7-2 4-3 16 8 4ZM341 225l-2 1 2-1ZM339 226l-1 1 1-1ZM337 227l-1 1 1-1ZM335 228l-1 1 1-1Z"/><path fill="#97D6F9" id="STR" d="m142 234-3 2c0-2.25-2-3.376-2-5l5 3ZM314 234l3 2 2-4c-1.041 0-5 .986-5 2Z"/><path fill="#A2B1D7" id="SI" d="m211 239-1 1 1-1ZM322 256c-2.713 0-4.011 4.511-6 6.5-4.881 4.881-9.843 7.671-15.5 10.5-7.448 3.724-34.48-.74-41-4-2.419-1.209-6.47 4-8.5 4 0-6.336-2-10.771-2-17 0-5.422-3-11.241-3-17l6 8.5c7.095 7.095 13.342 13.421 21.5 17.5 8.114 4.057 40.5-1.191 40.5-13l8 4ZM208 256c0 5.357-3 10.357-3 16l-7.5-3c-6.428 3.214-34.683 7.659-42 4-5.424-2.712-10.898-5.898-15.5-10.5l-5-6.5v-1l8-3c0 12.438 31.735 16.882 39.5 13 8.59-4.295 13.904-9.904 21-17l6.5-8-2 16Z"/><path fill="#CAC8C7" id="lot" d="M122 265h1v-2l1-1v-1l-1-2c0-2.085-20-14.041-20-10 0 3.989 10.056 8.556 13.5 12 1.652 1.652 3.106 4 5.5 4ZM334 265h1c1.166 0 12.432-10.466 15.5-12l3.5-4-1.5-2c-2.237 0-19.5 10.926-19.5 13v5h1Z"/><path fill="#99D2BD" id="OLF" d="M133 256h2v-1l-2 1Z"/><path fill="#7FCCF7" id="OT" d="m205 272 1 5c0 11.323-9.665 12.082-17.5 16h-7c-3.785 1.893-9.298.149-13 2-13.479 6.739-31.154-2.808-37.5-15.5-1.733-3.466-7-7.511-7-11.5l-1-1v-3l1-1v-2l1-1 8-4h2l5 6.5c4.602 4.602 10.076 7.788 15.5 10.5 7.317 3.659 35.572-.786 42-4l7.5 3Z"/><path fill="#8599CC" id="PAL" d="m205 272 1 5c1.408 0 17-12.04 17-14-2.735 0-6.092 3.796-8.5 5-2.975 1.488-8.017-2.466-6.5-5.5l4-6.5h-4c0 5.357-3 10.357-3 16ZM251 273l-1 4c-1.739 0-20-14.543-20-18l3 2.5c1.574 3.147 16 11.616 16 2l-4-7.5h4c0 6.229 2 10.664 2 17Z"/><path fill="#7FCCF7" id="OT" d="m251 273-1 4c1.149 0 1.473 5.447 2 6.5 2.094 4.189 5.716 5.608 9.5 7.5 4.029 2.015 10.094.047 14 2 3.79 1.895 9.318.159 13 2 11.829 5.914 28.917-1.333 34.5-12.5 2.506-5.013 10-9.648 10-15.5v-5l-2-2-8-4h-1c-2.713 0-4.011 4.511-6 6.5-4.881 4.881-9.843 7.671-15.5 10.5-7.448 3.724-34.48-.74-41-4-2.419-1.209-6.47 4-8.5 4Z"/><path fill="#99D2BD" id="OLF" d="m125 260-1 1-1-2 2 1Z"/><path fill="#8599CC" id="PAL" d="m227 259-1 1 1-1ZM226 260l-1 1 1-1Z"/><path fill="#99D2BD" id="OLF" d="M333 260v2l-2-2h2Z"/><path fill="#8599CC" id="PAL" d="m225 261-1 1 1-1Z"/><path fill="#99D2BD" id="OLF" d="M123 263h1v-1l-1 1Z"/><path fill="#8599CC" id="PAL" d="m224 262-1 1 1-1Z"/><path fill="#97D6F9" id="STR" d="m124 263-1 1v-1h1Z"/><path fill="#99D2BD" id="OLF" d="M123 265v1l-1-1h1Z"/><path fill="#97D6F9" id="STR" d="m334 266-1 1v-2h1v1Z"/><path fill="#99D2BD" id="OLF" d="m335 265-1 1v-1h1Z"/><path fill="#97D6F9" id="STR" d="m123 267 1 1-1-1Z"/></svg>