<svg xmlns="http://www.w3.org/2000/svg" viewBox="0 0 456 320"><path fill="#1E9C59" id="MOs1" d="M218 69c0-3.004-6.107-6.803-8.5-8-1.849-.924-4.52-2.76-7-4-8.37-4.185-38.299 5.65-45 9L143 73v-6c0-1.939 15.24-6.87 17.5-8 15.445-7.722 34.81-12.095 51-4 3.43 1.715 10.5 7.45 10.5 12l-4 2ZM238 69l7.5-8c5.157-2.578 18.056-7.472 25-4 9.844 4.922 22.158 5.079 32 10 2.703 1.352 7.555 6 10.5 6l1-6c-4.39 0-11.517-6.008-15.5-8-11.537-5.769-36.595-12.203-49-6-4.574 2.287-15.5 7.029-15.5 14l4 2Z"/><path fill="#1E9D58" id="MOs2/3" d="M212 74h1l5-4v-1c0-3.004-6.107-6.803-8.5-8-1.849-.924-4.52-2.76-7-4-8.37-4.185-38.299 5.65-45 9L143 73v1c0 5.035 2 11.152 2 16l11.5-7c9.1-4.55 25.933-16 36-16 4.019 0 19.5 2.013 19.5 7ZM245 74c0-5.597 15.247-7 19.5-7 10.071 0 23.27 9.635 32 14 4.496 2.248 10.367 9 15.5 9l1-17c-2.945 0-7.797-4.648-10.5-6-9.842-4.921-22.156-5.078-32-10-6.944-3.472-19.843 1.422-25 4l-7.5 8v1l6 4h1Z"/><path fill="#1E9D5A" id="MOp1" d="M85 157c3.683 0 .207 9 4 9 0-6.376-5.321-17.857-2-24.5 1.625-3.25.414-7.827 2-11 6.555-13.111 19.02-36.26 33.5-43.5 6.231-3.115 13.322-13 20.5-13v-7c-7.787 0-14.776 10.638-21.5 14-11.883 5.942-37.5 36.959-37.5 51 1.186 0 1.186 1 0 1l-1 2v2c1.919 0 2.488 2 0 2 0 6.547 2 12.123 2 18Z"/><path fill="#1F9D58" id="MOs5" d="M195 93c-1.602 0-2.384-3.058-4.5-2-9.326 4.663-19.671 7.335-29 12-4.313 2.157-10.644 9-15.5 9 0-7.292-1-13.633-1-22l11.5-7c9.1-4.55 25.933-16 36-16 4.019 0 19.5 2.013 19.5 7 0 4.003-17 13.61-17 19Z"/><path fill="#3EA665" id="ACAd1" d="M222 96h12c0-4.457-2.27-26 4-26v-1l-4-2c-2.045 0-4.645 9-5.5 9-2.632 0-3.235-9-6.5-9l-4 2v1c7.331 0 4 21.974 4 26Z"/><path fill="#1F9D58" id="MOs5" d="M262 93c0-4.19 9.935.218 11.5 1 8.094 4.047 16.906 6.953 25 11 3.699 1.85 8.232 7 12.5 7 0-4.392-1-9.851-1-12.5 0-2.524 2-5.628 2-8.5v-1c-5.133 0-11.004-6.752-15.5-9-8.73-4.365-21.929-14-32-14-4.253 0-19.5 1.403-19.5 7 0 6.07 16 10.728 16 19h1Z"/><path fill="#1E9D5A" id="MOp1" d="M371 157c-2.341 0 .286 9-4 9 0-5.791 5.075-22.349 2-28.5l-4-13c-4.885-9.77-19.023-31.261-29.5-36.5-5.265-2.632-17.328-15-22.5-15l1-6c5.143 0 10.977 7.739 15.5 10 13.105 6.552 27.068 22.635 33.5 35.5 3.019 6.038 10 12.437 10 19.5-1.399 0-1.399 2 0 2v3c0 5.77-2 13.745-2 20Z"/><path fill="#40A565" id="ACAd2/3" d="M217 96h5c0-4.026 3.331-26-4-26l-5 4c0 2.028 1.191 1.881 2 3.5 2.432 4.864 2 12.68 2 18.5ZM234 96c2.124 0 4.436 1 6 1V82.5l4-8.5-6-4c-6.27 0-4 21.543-4 26Z"/><path fill="#1F9C58" id="MOp2/3" d="m367 169-2 4-12-5c0-10.106 2.263-24.974-2-33.5l-8-16-4-4c-2.078-4.156-6.133-9.317-10.5-11.5-5.428-2.714-10.176-12-16.5-12v-1l1-17c5.172 0 17.235 12.368 22.5 15 10.477 5.239 24.615 26.73 29.5 36.5l4 13c3.075 6.151-2 22.709-2 28.5v3ZM104 168c-4.013 0-8.622 5-13 5 0-.986-1.087-6-2-6v-1c0-6.376-5.321-17.857-2-24.5 1.625-3.25.414-7.827 2-11 6.555-13.111 19.02-36.26 33.5-43.5 6.231-3.115 13.322-13 20.5-13 0 5.035 2 11.152 2 16-2.626 0-16.793 12.293-19.5 15-21.374 21.374-21.5 33.87-21.5 63Z"/><path fill="#3EA566" id="ACAd5" d="M217 97c-6.381 0-11.582 5-17 5 0-2.381-1.584-9-5-9 0-5.39 17-14.997 17-19h1c0 2.028 1.191 1.881 2 3.5 2.432 4.864 2 12.68 2 18.5v1ZM240 97c6.262 0 11.392 5 16 5 0-1.917 2.246-9 5-9 0-8.272-16-12.93-16-19h-1l-4 8.5V97Z"/><path fill="#1E9C5A" id="MOp5" d="M125 157c-4.789 0-14.525 11-21 11 0-29.13.126-41.626 21.5-63 2.707-2.707 16.874-15 19.5-15 0 8.367 1 14.708 1 22v1l-1 1c-2.919 0-4.772 4.136-6.5 5-11.719 5.86-13.5 24.788-13.5 38Z"/><path fill="#1D9C5A" id="MOs6a" d="M163 136c-8.135 0-15.164 12-23 12-1.737 0-.628-8.245 0-9.5 4.107-8.213 5-17.363 5-24.5l1-1v-1c4.856 0 11.187-6.843 15.5-9 9.329-4.665 19.674-7.337 29-12 2.116-1.058 2.898 2 4.5 2 0 2.814-13 20.982-13 28-3.36 0-11 .027-11 4-1.747 0-2 .253-2 2-1.747 0-2 .253-2 2-1.037 0-4 6.169-4 7ZM293 136l24 12c0-12.347-6-21.74-6-35v-1c-4.268 0-8.801-5.15-12.5-7-8.094-4.047-16.906-6.953-25-11-1.565-.782-11.5-5.19-11.5-1 0 5.92 12 18.967 12 28h1c7.906 0 18 6.364 18 15Z"/><path fill="#1E9C5A" id="MOp5" d="M331 157c4.854 0 14.944 11 22 11 0-10.106 2.263-24.974-2-33.5l-8-16-4-4c-2.078-4.156-6.133-9.317-10.5-11.5-5.428-2.714-10.176-12-16.5-12 0 2.872-2 5.976-2 8.5 0 2.649 1 8.108 1 12.5v1l9 7.5c10.048 10.048 11 22.404 11 35.5v1Z"/><path fill="#3FA664" id="ACAd6a" d="M182 121h1c0-3.633 13.798-18 17-18v-1c0-2.381-1.584-9-5-9 0 2.814-13 20.982-13 28ZM273 121h1c0-9.033-12-22.08-12-28h-1c-2.754 0-5 7.083-5 9v1c5.233 0 17 12.727 17 18Z"/><path fill="#2FA750" id="PL1" d="M223 133h11V96h-12c0 12.315 1 25.327 1 37Z"/><path fill="#2FA74F" id="PL2/3" d="M218 133h5c0-11.673-1-24.685-1-37h-5v1c0 11.905 1 24.77 1 36ZM234 133h4c0-11.62 2-23.704 2-36-1.564 0-3.876-1-6-1v37Z"/><path fill="#2EA84F" id="PL5" d="M218 133c-4.351 0-9.131 1-14 1 0-10.296-4-20.536-4-31v-1c5.418 0 10.619-5 17-5 0 11.905 1 24.77 1 36ZM238 133l14 1c0-9.858 4-20.507 4-31v-1c-4.608 0-9.738-5-16-5 0 12.296-2 24.38-2 36Z"/><path fill="#2FA850" id="PL6a" d="M190 134h14c0-10.296-4-20.536-4-31-3.202 0-17 14.367-17 18v1c2.209 0 7 10.059 7 12ZM266 134h1c0-4.983 6-8.841 6-13 0-5.273-11.767-18-17-18 0 10.493-4 21.142-4 31h14Z"/><path fill="#1F9B5A" id="MOp6a" d="m146 113-1 1 1-1ZM317 148c0 1.514 12.095 8 14 8 0-13.096-.952-25.452-11-35.5l-9-7.5c0 13.26 6 22.653 6 35ZM125 157h1c0-1.88 14-8.395 14-9-1.737 0-.628-8.245 0-9.5 4.107-8.213 5-17.363 5-24.5-2.919 0-4.772 4.136-6.5 5-11.719 5.86-13.5 24.788-13.5 38Z"/><path fill="#1E9C58" id="MOs6b" d="M171 125h2c0-2.282 7.301-3 9-3v-1c-3.36 0-11 .027-11 4Z"/><path fill="#3FA466" id="ACAd6b" d="M182 122h1v-1h-1v1Z"/><path fill="#2FA84F" id="PL6b" d="M267 134h1l1-3 1-1 1-2 3-6v-1h-1c0 4.159-6 8.017-6 13Z"/><path fill="#3FA466" id="ACAd6b" d="M274 122h1v-1h-1v1Z"/><path fill="#1E9C58" id="MOs6b" d="m291 135 2 1c0-8.636-10.094-15-18-15v1c1.671 0 9 1.131 9 3 4.9 0 4.435 10 7 10Z"/><path fill="#CACCC7" id="cing" d="M173 125c4.039 0 13.366 5 14 5l-4-8h-1c-1.699 0-9 .718-9 3Z"/><path fill="#2FA84F" id="PL6b" d="M189 134h1c0-1.941-4.791-12-7-12l4 8v1l1 1 1 2Z"/><path fill="#CACCC7" id="cing" d="M284 125c-4.484 0-8.954 3-13 3l3-6h1c1.671 0 9 1.131 9 3Z"/><path fill="#1E9C58" id="MOs6b" d="M169 127h2v-2c-1.747 0-2 .253-2 2Z"/><path fill="#C9C9CA" id="scwm" d="m173 125-2 2v-2h2Z"/><path fill="#CAC7CC" id="fa" d="M186 151c1.564 0 3.876 1 6 1 0-3.77-2-7.021-2-10l-1-8-1-2-1-1v-1c-.634 0-9.961-5-14-5l-2 2c0 3.661-4.167 9.166-2 13.5l3 8.5c5.128 0 9.451 2 14 2ZM264 151h6c4.798 0 8.844-2 14-2l1-1c0-4.449 4.632-12.235 2-17.5l-3-5.5c-4.484 0-8.954 3-13 3l-1 2-1 1-1 3c0 1.819-1 4.591-1 7l-1 1-1 2-1 7Z"/><path fill="#C9C9CA" id="scwm" d="M291 141c0 3.457-2.474 7-6 7 0-4.449 4.632-12.235 2-17.5l-3-5.5c4.9 0 4.435 10 7 10v6Z"/><path fill="#1E9C58" id="MOs6b" d="M169 127c-1.747 0-2 .253-2 2 1.747 0 2-.253 2-2Z"/><path fill="#C9C9CA" id="scwm" d="M165 141c0 2.837 3.91 8 7 8l-3-8.5c-2.167-4.334 2-9.839 2-13.5h-2c0 1.747-.253 2-2 2 0 2.765-2 5.165-2 7v5Z"/><path fill="#CACCC7" id="cing" d="m271 128-1 2 1-2Z"/><path fill="#1E9C58" id="MOs6b" d="M163 136h2c0-1.835 2-4.235 2-7-1.037 0-4 6.169-4 7Z"/><path fill="#CACCC7" id="cing" d="m270 130-1 1 1-1ZM187 131l1 1-1-1Z"/><path fill="#187E61" id="SSp-m1" d="M84 132c1.186 0 1.186 1 0 1v-1ZM373 132c-1.399 0-1.399 2 0 2v-2ZM84 133l-1 2 1-2Z"/><path fill="#59B262" id="ILA5" d="M210 172h6l3-6.5c2.761-5.522-1-26.331-1-32.5-4.351 0-9.131 1-14 1 0 12.71 6 24.695 6 38Z"/><path fill="#59B362" id="ILA2/3" d="M216 172h4l4-11.5-1-27.5h-5c0 6.169 3.761 26.978 1 32.5l-3 6.5Z"/><path fill="#59B263" id="ILA1" d="M236 172c-2.409 0-5.181 1-7 1v-8c0-8.043-1-8.043-1 0l-1 7h-7l4-11.5-1-27.5h11c0 3.95-3.488 19.524-2 22.5.294.588 4 16.344 4 16.5Z"/><path fill="#59B362" id="ILA2/3" d="M236 172h4l-3-7.5c-2.714-5.427 1-25.276 1-31.5h-4c0 3.95-3.488 19.524-2 22.5.294.588 4 16.344 4 16.5Z"/><path fill="#59B262" id="ILA5" d="M240 172h6c0-13.094 6-25.049 6-38l-14-1c0 6.224-3.714 26.073-1 31.5l3 7.5Z"/><path fill="#58B263" id="ILA6b" d="m190 142 2 1-2-9h-1l1 8Z"/><path fill="#58B362" id="ILA6a" d="m198 171 12 1c0-13.305-6-25.29-6-38h-14l2 9 1 4c5.157 0 5 20.667 5 24ZM258 171l-12 1c0-13.094 6-25.049 6-38h14l-1 8v1l-1 1v1l-1 1v2c-4.064 0-5 18.937-5 23Z"/><path fill="#58B263" id="ILA6b" d="M265 142h1l1-1c0-2.409 1-5.181 1-7h-2l-1 8Z"/><path fill="#1F9766" id="AId6b" d="m291 141 2 1v-6l-2-1v6Z"/><path fill="#209666" id="AId6a" d="M139 169h2c0-1.775 8.459-13 10-13l1-1 1-1v-1l2-2 1-1 1-1 6-6v-7c-8.135 0-15.164 12-23 12 0 .605-14 7.12-14 9 0 6.615 6.652 12 13 12Z"/><path fill="#1F9766" id="AId6b" d="m165 141-2 1v-6h2v5Z"/><path fill="#209666" id="AId6a" d="M316 169h1c5.988 0 14-5.584 14-12v-1c-1.905 0-14-6.486-14-8l-24-12v7c1.369 0 8 5.734 8 8 3.021 0 10.771 12.041 12 14.5l3 3.5Z"/><path fill="#187E61" id="SSp-m1" d="M83 137c1.919 0 2.488 2 0 2v-2ZM371 157h3v-15.5c0-1.19.614-4.5-1-4.5 0 5.77-2 13.745-2 20ZM83 157h2c0-5.877-2-11.453-2-18-1.615 0-1 3.31-1 4.5 0 4.445 1 9.712 1 13.5Z"/><path fill="#248A5C" id="ORBl6b" d="m186 151 1 4c-2.029 0-1.881-1.191-3.5-2-5.839-2.92-20.5.772-20.5-10v-1l2-1c0 2.837 3.91 8 7 8 5.128 0 9.451 2 14 2Z"/><path fill="#24875E" id="ORBm6b" d="m267 141-1 1 1-1Z"/><path fill="#248A5C" id="ORBl6b" d="m270 151-1 4c2.029 0 1.881-1.191 3.5-2 6.399-3.2 20.5.973 20.5-10v-1l-2-1c0 3.457-2.474 7-6 7l-1 1c-5.156 0-9.202 2-14 2Z"/><path fill="#24875E" id="ORBm6b" d="m192 152 2 3-1-8-1-4-2-1c0 2.979 2 6.23 2 10ZM265 143v1l1-2h-1v1Z"/><path fill="#24895D" id="ORBl6a" d="M185 167h1c0-2.678 1.911-3.323 3-5.5l-2-6.5c-2.029 0-1.881-1.191-3.5-2-5.839-2.92-20.5.772-20.5-10l-6 6-1 1-1 1c0 1.747-.253 2-2 2v1l-1 1-1 1c0 4.386-5 6.878-5 11 4.942 0 39-17.064 39 0Z"/><path fill="#58B263" id="ILA6b" d="M264 144h1v-1l-1 1Z"/><path fill="#24895D" id="ORBl6a" d="m271 166 2-2.5c5.753-11.506 29.938 3.5 37 3.5 0-5.984-9-10.757-9-16 0-2.266-6.631-8-8-8 0 10.973-14.101 6.8-20.5 10-1.619.809-1.471 2-3.5 2 0 .975-3.253 11 2 11Z"/><path fill="#24875E" id="ORBm6b" d="m264 151-1 2v-7l1-1v-1h1l-1 7Z"/><path fill="#22885E" id="ORBm6a" d="m264 145-1 1 1-1ZM196 171h2c0-3.333.157-24-5-24l1 8v2c0 6.522-1 7.807-1 14h3ZM261 171h2v-4.5h2l-4-3c-.633-1.267 1.155-7.5 2-7.5v-8c-4.064 0-5 18.937-5 23h3Z"/><path fill="#C9C9CA" id="scwm" d="m285 148-1 1 1-1Z"/><path fill="#1F9866" id="AIv6a" d="m157 149-1 1 1-1ZM156 150l-1 1 1-1ZM155 151l-2 2c1.747 0 2-.253 2-2Z"/><path fill="#22895E" id="ORBvl6b" d="M194 155v2l-1.5 2-5.5-4-1-4c1.564 0 3.876 1 6 1l2 3ZM269 155c-2.861 0-6 7.742-6 1v-3l1-2h6l-1 4Z"/><path fill="#1F9866" id="AIv6a" d="m311 168 5 1-3-3.5c-1.229-2.459-8.979-14.5-12-14.5 0 5.243 9 10.016 9 16l1 1ZM153 154l-1 1 1-1ZM152 155l-1 1 1-1Z"/><path fill="#238A5C" id="ORBvl6a" d="M193 171c-2.72 0-3.553 2-6 2l-1-6c0-2.678 1.911-3.323 3-5.5l-2-6.5 5.5 4 1.5-2c0 6.522-1 7.807-1 14ZM263 171l7 2c0-1.235-.643-5 1-5v-2c-5.253 0-2-10.025-2-11-2.861 0-6 7.742-6 1-.845 0-2.633 6.233-2 7.5l4 3h-2v4.5Z"/><path fill="#1F9866" id="AIv6a" d="m146 167-5 2c0-1.775 8.459-13 10-13 0 4.386-5 6.878-5 11Z"/><path fill="#009C75" id="GU1" d="m90 173-3 3c-1.014 0-2-3.959-2-5 0-4.77-2-8.737-2-14h2c3.683 0 .207 9 4 9v1c0 2.124 1 4.436 1 6Z"/><path fill="#209665" id="AId5" d="M111 195h1c0-1.615 5.22-3.36 6.5-4 3.728-1.864 20.5-18.52 20.5-22-6.348 0-13-5.385-13-12h-1c-4.789 0-14.525 11-21 11 0 6.198.394 14.289 3 19.5l4 7.5ZM317 169c0 4.524 22.627 25 28 25 3.631 0 8-21.962 8-26-7.056 0-17.146-11-22-11 0 6.416-8.012 12-14 12Z"/><path fill="#009C75" id="GU1" d="m366 173 4 2c0-5.508 4-12.202 4-18h-3c-2.341 0 .286 9-4 9v1c1.186 0 1.186 1 0 1v1c0 1.145.579 4-1 4Z"/><path fill="#228A5D" id="ORBl5" d="M153 187c2.327 0 6-1.943 6 3 2.3 0 18.469-9.969 20.5-12l5.5-4v-7c0-17.064-34.058 0-39 0 0 9.167 5 13.691 5 20h2ZM303 187h2c0-6.435 6-11.261 6-19l-1-1c-7.062 0-31.247-15.006-37-3.5l-2 2.5v8l5.5 4c1.07 1.07 19.785 12 20.5 12 0-4.412 3.888-3 6-3Z"/><path fill="#99D2BD" id="OLF" d="m227 172 2 1v-8h-1l-1 7Z"/><path fill="#1E9D5A" id="MOp1" d="M90 173h1c0-.986-1.087-6-2-6 0 2.124 1 4.436 1 6Z"/><path fill="#1F9865" id="AIv5" d="M151 187c-8.627 0-19.248 12-27 12-3.031 0-12 .405-12-4 0-1.615 5.22-3.36 6.5-4 3.728-1.864 20.5-18.52 20.5-22h2l5-2c0 9.167 5 13.691 5 20Z"/><path fill="#23885C" id="ORBvl5" d="m187 173-2 1v-7h1l1 6Z"/><path fill="#1E9D5A" id="MOp1" d="M367 167c1.186 0 1.186 1 0 1v-1Z"/><path fill="#209765" id="AId2/3" d="M100 199h1l10-4-4-7.5c-2.606-5.211-3-13.302-3-19.5-4.013 0-8.622 5-13 5 0 8.413 9 18.67 9 26Z"/><path fill="#23885C" id="ORBvl5" d="m270 173 1 1v-6c-1.643 0-1 3.765-1 5Z"/><path fill="#1F9865" id="AIv5" d="M345 194v1c-1.588 0-8.56 6.97-14.5 4-7.539-3.77-16.687-12-25.5-12 0-6.435 6-11.261 6-19l5 1h1c0 4.524 22.627 25 28 25Z"/><path fill="#209765" id="AId2/3" d="M355 199h1c0-4.638 9-18.237 9-26l-12-5c0 4.038-4.369 26-8 26v1l10 4Z"/><path fill="#1E9D5A" id="MOp1" d="M365 173h1c1.579 0 1-2.855 1-4l-2 4Z"/><path fill="#99D2BD" id="OLF" d="m167 247 3.5-2 13.5 6c1.406 0 7 .714 7-1-5.461 0-15.164-1.828-18-7.5-3.868-7.736 2.001-15.5 10-15.5l-2-4-3.5 1c-6.671-3.335-10.896-19-.5-19 0-8.995 7.257-11 14-11 0-7.836.61-10 8-10 0-3.823-3-8.037-3-13h-3c-2.72 0-3.553 2-6 2l-2 1-5.5 4c-2.031 2.031-18.2 12-20.5 12l-1 1c-1.351 0-9 4.625-9 6 4.772 0 3 3.462 3 6 3.066 0 5.348-6.076 9.5-4 4.703 2.351 12.525 26.238 7 29-3.624 1.812-9.69-13-13.5-13l12 17.5c3.418 6.836-6 10.293-6 13.5l6 1Z"/><path fill="#A3DAA3" id="DP" d="M206 191h44c1.167 0 7-5.234 7-7l1-1c0-3.787 3-7.613 3-12h-3l-12 1h-10c-2.409 0-5.181 1-7 1l-2-1h-17l-12-1h-2c0 4.963 3 9.177 3 13l7 7Z"/><path fill="#99D2BD" id="OLF" d="M290 247c0-.618-3.883-2.309-4.5-2l-12.5 6c-1.406 0-7 .714-7-1 4.518 0 14.765-2.03 17-6.5 4.026-8.053-1.4-16.5-10-16.5l2-4 3.5 1c6.196-3.098 12.269-19 1.5-19 0-7.23-7.26-12-14-12 0-5.115-2.252-10-8-10 0-3.787 3-7.613 3-12h2l7 2 1 1 5.5 4c1.07 1.07 19.785 12 20.5 12l2 1 11 7c-6.835 0-5-.026-5 6-6.21 0-3.176-8.162-13.5-3-.811.405-9.611 27-3 27 5.454 0 7.343-13 12.5-13 0 3.809-9.746 13.993-12 18.5-3.213 6.427 7 9.224 7 12.5l-6 1Z"/><path fill="#209764" id="AId1" d="m100 199-4 1c-1.325 0-2.43-5.361-3-6.5-2.544-5.089-6-11.481-6-17.5l3-3h1c0 8.413 9 18.67 9 26ZM356 199l4 1 3-5.5c2.669-5.338 7-13.318 7-19.5l-4-2h-1c0 7.763-9 21.362-9 26Z"/><path fill="#54BF94" id="AON" d="M191 250h4l2-1h1c0-1.577 1.762-2 3-2l12-14.5c2.7-5.399 2-11.989 2-18.5v-1l-1-1c0-7.288-8-13.168-8-21l-7-7c-7.39 0-8 2.164-8 10 0 5.672 15.515 27.492 2.5 34-3.028 1.514-7.882-1-10.5-1-7.999 0-13.868 7.764-10 15.5 2.836 5.672 12.539 7.5 18 7.5Z"/><path fill="#99D2BD" id="OLF" d="m258 183-1 1 1-1Z"/><path fill="#54BF94" id="AON" d="M261 250h5c4.518 0 14.765-2.03 17-6.5 4.026-8.053-1.4-16.5-10-16.5-2.454 0-7.523 2.489-10.5 1-11.824-5.912 3.5-31.196 3.5-35 0-5.115-2.252-10-8-10l-1 1c0 1.766-5.833 7-7 7 0 6.271-7 13.317-7 20l-1 1v1c0 8.896-1.048 13.405 3 21.5l13 14.5h1l2 1Z"/><path fill="#238A5E" id="ORBl2/3" d="m159 190-1 1-5-4c2.327 0 6-1.943 6 3ZM297 190l2 1c0-3.234 4-.959 4-4-2.112 0-6-1.412-6 3Z"/><path fill="#219764" id="AIv2/3" d="M145 199c-8.208 0-23.623 13-32 13 0-2.005-12-7.172-12-13l10-4h1c0 4.405 8.969 4 12 4 7.752 0 18.373-12 27-12h2l5 4c-1.351 0-9 4.625-9 6-1.048 0-3-.473-3 1l-1 1ZM355 199c0 6.75-12 10.658-12 13l-31-13-1-1h-1l-11-7c0-3.234 4-.959 4-4h2c8.813 0 17.961 8.23 25.5 12 5.94 2.97 12.912-4 14.5-4l10 4Z"/><path fill="#61D09F" id="TTd" d="M242 213c-2.532 0-6.258 6.621-11.5 4-1.811-.906-1.306-8-2-8-1.043 0-1.317 7.159-3 8-4.494 2.247-7.565-3-10.5-3v-1l-1-1c0-7.288-8-13.168-8-21h44c0 6.271-7 13.317-7 20l-1 1v1Z"/><path fill="#80CDF8" id="ACB" d="m181 223 2 4c2.618 0 7.472 2.514 10.5 1 13.015-6.508-2.5-28.328-2.5-34-6.743 0-14 2.005-14 11l5 8.5c1.411 2.822-1 7.079-1 9.5ZM275 223l-2 4c-2.454 0-7.523 2.489-10.5 1-11.824-5.912 3.5-31.196 3.5-35 6.74 0 14 4.77 14 12-5.981 0-5 14.171-5 18Z"/><path fill="#99D2BD" id="OLF" d="M149 197c-1.048 0-3-.473-3 1 1.048 0 3 .473 3-1Z"/><path fill="#6ACAB9" id="PIR" d="M151 250h1c2.993 0 5.53-4 9-4 0-3.207 9.418-6.664 6-13.5L155 215v-1l-3-3v-1l-1-1v-5l1-1c0-2.538 1.772-6-3-6 0 1.473-1.952 1-3 1l-1 1c-8.208 0-23.623 13-32 13l-7 2c0 6.25 8.66 22 16 22 0-1.027 7.104.302 8.5 1 5.642 2.821 14.182 13 20.5 13ZM303 249l3 1c5.232 0 18.143-15 29-15 8.484 0 15-13.729 15-21l-7-2-31-13-1-1h-1c-6.835 0-5-.026-5 6v1c1.486 0 1.486 3 0 3v2l-1 1-1 1v1l-1 1-1 1c0 3.809-9.746 13.993-12 18.5-3.213 6.427 7 9.224 7 12.5l7 3Z"/><path fill="#99D2BD" id="OLF" d="m146 198-1 1 1-1ZM311 198l1 1-1-1Z"/><path fill="#209864" id="AIv1" d="m113 212-7 2c0-1.285-10-9.747-10-14l4-1h1c0 5.828 12 10.995 12 13Z"/><path fill="#A0EE9C" id="EPd" d="M155 214v1c3.81 0 9.876 14.812 13.5 13 5.525-2.762-2.297-26.649-7-29-4.152-2.076-6.434 4-9.5 4l-1 1v5l1 1v1l3 3ZM302 214l-1 1c-5.157 0-7.046 13-12.5 13-6.611 0 2.189-26.595 3-27 10.324-5.162 7.29 3 13.5 3v6l-1 1-1 1v1l-1 1Z"/><path fill="#209864" id="AIv1" d="m343 212 7 2c3.377 0 10-11.365 10-14l-4-1h-1c0 6.75-12 10.658-12 13Z"/><path fill="#99D2BD" id="OLF" d="m152 203-1 1 1-1Z"/><path fill="#CBCBC7" id="aco" d="M177 205c-10.396 0-6.171 15.665.5 19l3.5-1c0-2.421 2.411-6.678 1-9.5l-5-8.5ZM280 205c10.769 0 4.696 15.902-1.5 19l-3.5-1c0-3.829-.981-18 5-18Z"/><path fill="#99D2BD" id="OLF" d="M305 205c1.486 0 1.486 3 0 3v-3ZM151 209l1 1-1-1Z"/><path fill="#99D2BD" id="OLF" fill-rule="evenodd" d="M230 219c0 5.718.512 19.994 8.5 16v-16H230m-5-1c0 2.012-6.773.046-8 2.5-1.521 3.042-.526 13.987 2.5 15.5 5.158 2.579 10.691-18 5.5-18m-6 37 4-9.5c1.165-2.329.853-5.706 2-8 .507-1.014 2.171-7.5 3.5-7.5 1.575 0 1.071 4.643 1.5 5.5l6 15c.492.984.851 5.5 2 5.5l3-4c0-11.246 11.805-3 17-3l-13-14.5c-4.048-8.095-3-12.604-3-21.5-2.532 0-6.258 6.621-11.5 4-1.811-.906-1.306-8-2-8-1.043 0-1.317 7.159-3 8-4.494 2.247-7.565-3-10.5-3 0 6.511.7 13.101-2 18.5L201 247c5.338 0 15-3.201 15 5l2 3h1Z"/><path fill="#99D2BD" id="OLF" d="m305 210-1 1 1-1ZM152 211l3 3-3-3ZM243 211l-1 1 1-1ZM304 211l-1 1 1-1ZM214 212l1 1-1-1ZM303 213l-1 1 1-1ZM302 214l-1 1 1-1Z"/><path fill="#62CF9E" id="TTv" d="M225 218c0 2.012-6.773.046-8 2.5-1.521 3.042-.526 13.987 2.5 15.5 5.158 2.579 10.691-18 5.5-18ZM230 219c0 5.718.512 19.994 8.5 16v-16H230Z"/><path fill="#CAC8C7" id="lot" d="m151 254-2 2c-3.087 0-27-17.789-27-20 0-1.027 7.104.302 8.5 1 5.642 2.821 14.182 13 20.5 13v4ZM306 250c0 2.124 1 4.436 1 6 3.809 0 28-17.62 28-21-10.857 0-23.768 15-29 15Z"/><path fill="#A2B1D7" id="SI" d="M191 250h4l2-1h1c1.238 0 3-.423 3-2 5.338 0 15-3.201 15 5-6.709 0-9.179 1.839-15.5 5-6.446 3.223-19.155-1.578-24-4-1.836-.918-9.5-3.317-9.5-6l3.5-2 13.5 6c1.406 0 7 .714 7-1ZM261 250h5c0 1.714 5.594 1 7 1l12.5-6c.617-.309 4.5 1.382 4.5 2 0 1.963-6.988 4.244-8.5 5-7.042 3.521-19.396 8.302-28 4-5.536-2.768-6.737-4-12.5-4 0-11.246 11.805-3 17-3h1l2 1Z"/><path fill="#7FCCF7" id="OT" d="m216 264-1 1c0 6.186-11.776 7.138-15.5 9-6.342 3.171-30.607-5.803-37-9-2.15-1.075-9.5-4.894-9.5-7l-1-1-1-3v-3l1-1c2.993 0 5.53-4 9-4l6 1c0 2.683 7.664 5.082 9.5 6 4.845 2.422 17.554 7.223 24 4 6.321-3.161 8.791-5 15.5-5l2 3v3l-1 2v2l-1 1v1ZM240 263l1 1c0 4.664 5.689 5.594 8.5 7 2.631 1.316 5.972 4 9 4 7.05 0 25.812-4.906 32-8 2.205-1.102 12.5-5.974 12.5-9l1-1 1-1c0-2.765-2-5.165-2-7l-7-3-6 1c0 1.963-6.988 4.244-8.5 5-7.042 3.521-19.396 8.302-28 4-5.536-2.768-6.737-4-12.5-4l-3 4v1l1 2v2l1 1v1Z"/><path fill="#99D2BD" id="OLF" d="M201 247c-1.238 0-3 .423-3 2 1.238 0 3-.423 3-2ZM197 249l-2 1 2-1ZM259 249l2 1-2-1ZM307 256l-2 1v-1c0-2.765-2-5.165-2-7l3 1c0 2.124 1 4.436 1 6ZM152 250l-1 1v-1h1ZM149 256l3 1-1-3-2 2Z"/><path fill="#97D6F9" id="STR" d="m219 255-1 2v-2h1ZM304 257h1v-1l-1 1ZM152 257l1 1-1-1ZM238 257l1 2-1-2ZM304 257l-1 1 1-1ZM218 258l-1 2 1-2ZM239 261l1 1-1-1ZM217 262l-1 1 1-1ZM240 263l1 1-1-1ZM216 264l-1 1 1-1Z"/></svg>