<svg xmlns="http://www.w3.org/2000/svg" viewBox="0 0 456 320"><path fill="#1E9D5A" id="MOp1" d="M160 37h1c11.218 0 22.308-5 34-5v-5c-3.251 0-25.871 1.186-27.5 2l-5.5 2-2 6Z"/><path fill="#1E9C59" id="MOs1" d="M222 46h1l4-3c0-2.43-5.282-5.063-6-6.5-4.096-8.193-15.842-9.5-26-9.5v5c8.54 0 27 2.113 27 14ZM230 43c1.24 0 1.576 2 4 2l6.5-8c7.067-3.533 11.812-5 20.5-5v-5c-11.891 0-18.489 1.99-27 10.5l-4 5.5Z"/><path fill="#1E9D5A" id="MOp1" d="M261 32c12.019 0 23.442 5 35 5 0-1.564-1-3.876-1-6l-6.5-2c-1.823-.912-24.005-2-27.5-2v5Z"/><path fill="#187F60" id="SSp-ll1" d="M141 42h1l18-5 2-6c-7.309 0-16.596 6-22 6l1 5ZM314 42h1l2-5c-5.038 0-15.081-6-22-6 0 2.124 1 4.436 1 6 6.116 0 12.331 5 18 5Z"/><path fill="#1F9C58" id="MOp2/3" d="M158 53v5c6.755 0 25.982-15 35-15l2-11c-11.692 0-22.782 5-34 5 0 4.308-2 7.171-2 11.5 0 1.19.614 4.5-1 4.5Z"/><path fill="#1E9D58" id="MOs2/3" d="m222 46-6 4c0-10.03-17.557-7-23-7l2-11c8.54 0 27 2.113 27 14ZM234 46l6 3c1.699 0 5.562-5.031 7.5-6 4.736-2.368 10.659 0 15.5 0 0-4.135-2-7.306-2-11-8.688 0-13.433 1.467-20.5 5l-6.5 8v1Z"/><path fill="#1F9C58" id="MOp2/3" d="M299 53v6c-4.644 0-26.942-16-35-16h-1c0-4.135-2-7.306-2-11 12.019 0 23.442 5 35 5 0 2.115.968 16 3 16Z"/><path fill="#197E64" id="SSp-ul1" d="M105 53c1.638 0 2 3.576 2 5 4.662 0 21.366-10.433 26.5-13 1.069-.534 7.5-2.17 7.5-3l-1-5c-9.129 0-19.642 8.071-27.5 12l-7.5 4Z"/><path fill="#187F64" id="SSp-ll2/3" d="m158 53-11 3-5-14 18-5h1c0 4.308-2 7.171-2 11.5 0 1.19.614 4.5-1 4.5ZM299 53c3.119 0 6.279 2 10 2 1.699 0 5-11.187 5-13-5.669 0-11.884-5-18-5 0 2.115.968 16 3 16Z"/><path fill="#197E64" id="SSp-ul1" d="M351 53c-2.043 0 0 .962 0 1.5l-2 3.5c-4.417 0-16.006-8.753-20.5-11-3.155-1.578-6.763-2.382-10-4-1.046-.523-3.5.952-3.5-1l2-5c7.637 0 19.639 8.57 26.5 12 1.475.737 7.5 1.705 7.5 4Z"/><path fill="#197F61" id="SSp-ul2/3" d="m107 59 6 12c4.018 0 25.444-15 34-15l-5-14h-1c0 .83-6.431 2.466-7.5 3-5.134 2.567-21.838 13-26.5 13v1Z"/><path fill="#1F9D58" id="MOs5" d="M204 61h1c0-2.53 7.683-10 11-10v-1c0-10.03-17.557-7-23-7 0 5.913-4 9.55-4 16 2.527 0 15-3.44 15 2ZM252 60c2.762 0 6.755-3.873 10.5-2l5.5 2c0-6.01-4-10.883-4-17h-1c-4.841 0-10.764-2.368-15.5 0-1.938.969-5.801 6-7.5 6v1c4.284 0 7.534 10 12 10Z"/><path fill="#197F61" id="SSp-ul2/3" d="M343 71h1c0-4.224 5-8.197 5-12v-1c-4.417 0-16.006-8.753-20.5-11-3.155-1.578-6.763-2.382-10-4-1.046-.523-3.5.952-3.5-1h-1c0 1.813-3.301 13-5 13v1c7.518 0 19.791 7.646 26.5 11l7.5 4Z"/><path fill="#1E9C5A" id="MOp5" d="M188 61c-9.214 0-20.521 14-31 14V59l1-1c6.755 0 25.982-15 35-15 0 5.913-4 9.55-4 16l-1 2Z"/><path fill="#3EA665" id="ACAd1" d="M233 69c-3.325 0-7.31 1-10 1V46l4-3c0 3.803 2.524 0 3 0 1.24 0 1.576 2 4 2v1c0 6.887-1 15.436-1 23Z"/><path fill="#1E9C5A" id="MOp5" d="M268 60c7.196 0 21.409 15 32 15l-1-16c-4.644 0-26.942-16-35-16 0 6.117 4 10.99 4 17Z"/><path fill="#40A565" id="ACAd2/3" d="m223 70-5 1-1-15c0-1.234.643-5-1-5v-1l6-4h1v24ZM233 70l6 1c0-6.967 1-14.681 1-21v-1l-6-3c0 6.887-1 15.436-1 23v1Z"/><path fill="#3EA566" id="ACAd5" d="M239 71c3.923 0 7.376 6 11 6 0-5.035 2-11.152 2-16v-1c-4.466 0-7.716-10-12-10 0 6.319-1 14.033-1 21ZM218 71l-12 6-1-16c0-2.53 7.683-10 11-10 1.643 0 1 3.766 1 5l1 15Z"/><path fill="#1B8062" id="SSp-un1" d="M95 66h1c0-1.384 9.307-7 11-7v-1c0-1.424-.362-5-2-5-4.52 0-8.897 8-13 8 0 2.297 3 1.849 3 5Z"/><path fill="#1C7F64" id="SSp-ll4" d="m157 59-8 4-2-7 11-3v5l-1 1ZM299 59l8 4c0-2.51 2-3.688 2-7v-1c-3.721 0-6.881-2-10-2v6Z"/><path fill="#1B8062" id="SSp-un1" d="M360 66h1l3-5c0-1.655-11.24-8-13-8-2.043 0 0 .962 0 1.5l-2 3.5v1c2.181 0 11 4.571 11 7Z"/><path fill="#1A7F63" id="SSp-ul4" d="M113 71c0 3.238 3 5.3 3 8l33-16-2-7c-8.556 0-29.982 15-34 15ZM339 79h2c0-3.235 2-4.55 2-8l-7.5-4c-6.709-3.354-18.982-11-26.5-11 0 3.313-2 4.49-2 7h1c4.279 0 18.839 9.67 23.5 12 1.475.737 7.5 1.705 7.5 4Z"/><path fill="#1D9C5A" id="MOs6a" d="m193 80-7 2c0-3.162-1-4.667-1-7.5 0-4.054 3-9.2 3-13.5l1-2c2.527 0 15-3.44 15 2 0 3.543-11 13.299-11 19ZM270 82h1c0-8.017-3-14.968-3-22l-5.5-2c-3.745-1.873-7.738 2-10.5 2v1c1.905 0 11 16.303 11 19l7 2Z"/><path fill="#1C7F63" id="SSp-un2/3" d="M101 77h1l11-6-6-12c-1.693 0-11 5.616-11 7 0 4.15 5 6.411 5 11Z"/><path fill="#197C63" id="SSp-ll5" d="M152 77h1l4-1V59l-8 4 3 14ZM300 76l4 1 4-14h-1l-8-4 1 16v1Z"/><path fill="#1C7F63" id="SSp-un2/3" d="M354 77h1c0-3.554 5-7.203 5-11 0-2.429-8.819-7-11-7 0 3.803-5 7.776-5 12l10 6Z"/><path fill="#1F9B5A" id="MOp6a" d="M300 87v7c-6.261 0-15.972-6.236-21.5-9-1.069-.534-7.5-2.17-7.5-3 0-8.017-3-14.968-3-22 7.196 0 21.409 15 32 15v12Z"/><path fill="#197E63" id="SSp-n1" d="M50 116c1.947 0 2.636 3 5 3 0-8.659 16.847-32.347 23.5-39l12-11 4.5-3c0-3.151-3-2.703-3-5-3.647 0-7.288 6.394-10.5 8C71.261 74.12 50 105.808 50 116Z"/><path fill="#1F9B5A" id="MOp6a" d="M170 89c-5.015 0-8.704 5-14 5v-6c.46 0 1-11.355 1-12v-1c10.479 0 21.786-14 31-14 0 4.3-3 9.446-3 13.5 0 2.833 1 4.338 1 7.5l-1 1c-1.424 0-5 .362-5 2-1.424 0-5 .362-5 2-1.424 0-5 .362-5 2Z"/><path fill="#3FA664" id="ACAd6a" d="M197 85h1c0-1.879 6.661-7 8-7v-1l-1-16h-1c0 3.543-11 13.299-11 19v1c2.226 0 4 1.774 4 4ZM261 83c-1.747 0-2 .253-2 2-3.218 0-5.402-7-9-7v-1c0-5.035 2-11.152 2-16 1.905 0 11 16.303 11 19v1c-1.747 0-2 .253-2 2Z"/><path fill="#197E63" id="SSp-n1" d="m407 116-6 3c0-9.996-16.271-32.77-24-40.5-2.591-2.591-7.901-8.2-10.5-9.5l-5.5-3 3-5c3.937 0 12.058 8.558 15 11.5 12.102 12.102 17.038 22.076 24 36 1.07 2.139 4 5.078 4 7.5Z"/><path fill="#187E62" id="SSp-ul5" d="M116 79c0 3.648 5 7.681 5 11 6.442 0 22.958-13 31-13l-3-14-33 16ZM335 90h1c0-3.636 3-7.85 3-11 0-2.295-6.025-3.263-7.5-4-4.661-2.33-19.221-12-23.5-12l-4 14c6.823 0 27.01 13 31 13Z"/><path fill="#1B7F64" id="SSp-n2/3" d="M62 124h2l1-1c0-10.331 13.192-28.692 21-36.5 3.317-3.317 5.647-5.573 9.5-7.5 1.319-.66 5.5.334 5.5-2 0-4.589-5-6.85-5-11h-1l-4.5 3-12 11C71.847 86.653 55 110.341 55 119v1c3.1 0 3.387 4 7 4ZM392 123l2 1c2.968 0 4.633-4 7-4v-1c0-9.996-16.271-32.77-24-40.5-2.591-2.591-7.901-8.2-10.5-9.5l-5.5-3h-1c0 3.797-5 7.446-5 11l2.5 2c2.039 1.02 4.885.942 7 2 9.486 4.743 17.261 18.022 21.5 26.5l5 12c.523 1.046-.951 3.5 1 3.5Z"/><path fill="#40A664" id="ACAv1" d="m229 95 5 6c0-10.047-1-20.446-1-31v-1c-3.325 0-7.31 1-10 1 0 10.355-1 21.268-1 31l5-6c0-3.15 2-3.446 2 0Z"/><path fill="#3FA566" id="ACAv2/3" d="m221 103-3 1V71l5-1c0 10.355-1 21.268-1 31l-1 2ZM235 103l3 1c0-10.876 1-21.69 1-33l-6-1c0 10.554 1 20.953 1 31l1 2Z"/><path fill="#197E61" id="SSp-un4" d="M105 85h1c0-1.673 8.485-6 10-6 0-2.7-3-4.762-3-8l-11 6 3 8Z"/><path fill="#3EA666" id="ACAv5" d="M211 102c2.16 0 4.167 2 7 2V71l-12 6v1c0 7.521 4 16.035 4 23l1 1ZM246 102c-2.522 0-4.909 2-8 2 0-10.876 1-21.69 1-33 3.923 0 7.376 6 11 6v1c0 7.753-3 14.834-3 22v1l-1 1Z"/><path fill="#197E61" id="SSp-un4" d="M350 85h1l3-8-10-6h-1c0 3.45-2 4.765-2 8 1.156 0 9 4.801 9 6Z"/><path fill="#1A7F64" id="SSp-ll6a" d="M153 77c0 4.334 3 7.01 3 11 .46 0 1-11.355 1-12l-4 1ZM304 77c0 1.285-2.805 10-4 10V76l4 1Z"/><path fill="#1A8062" id="SSp-n4" d="M73 121h-4.5v2c-.704 0-3.5.645-3.5 0 0-10.331 13.192-28.692 21-36.5 3.317-3.317 5.647-5.573 9.5-7.5 1.319-.66 5.5.334 5.5-2h1l3 8-10 6.5c-4.46 8.921-20 16.481-20 27.5l-2 2Z"/><path fill="#197D61" id="SSp-ul6a" d="M141 101c-5.453 0-8.645 4-14 4 0-4.828-6-9.514-6-14v-1c6.442 0 22.958-13 31-13h1c0 4.334 3 7.01 3 11v7c-1.424 0-5 .362-5 2-1.622 0-5-.46-5 2-1.424 0-5 .362-5 2ZM300 94c7.325 0 20.386 11 29 11 0-5.231 6-9.582 6-15-3.99 0-24.177-13-31-13 0 1.285-2.805 10-4 10v7Z"/><path fill="#1A8062" id="SSp-n4" d="M392 123v1c-2.557 0-6.098-4-9-4l-6-9.5c-2.488-4.976-19.382-25.5-26-25.5l3-8h1l2.5 2c2.039 1.02 4.885.942 7 2 9.486 4.743 17.261 18.022 21.5 26.5l5 12c.523 1.046-.951 3.5 1 3.5Z"/><path fill="#40A564" id="ACAv6a" d="m207 99 3 2c0-6.965-4-15.479-4-23-1.339 0-8 5.121-8 7 0 6.595 9 8.769 9 14ZM249 99l-2 1c0-7.166 3-14.247 3-22 3.598 0 5.782 7 9 7v1c-2.109 0-2 2.534-2 4-1.577 0-2 1.762-2 3l-2 2c-2.226 0-4 1.774-4 4Z"/><path fill="#197D62" id="SSp-un5" d="M121 91c-3.974 0-6.315 4-10 4l-5-10c0-1.673 8.485-6 10-6 0 3.648 5 7.681 5 11v1ZM345 95h1l4-10c0-1.199-7.844-6-9-6h-2c0 3.15-3 7.364-3 11l9 5Z"/><path fill="#1E9C58" id="MOs6b" d="m193 82-7 1v-1l7-2v2ZM270 82v1l-7-1v-2l7 2Z"/><path fill="#3FA466" id="ACAd6b" d="m193 82 4 3c0-2.226-1.774-4-4-4v1ZM263 82l-2 1c0-1.747.253-2 2-2v1Z"/><path fill="#1D9D5A" id="MOp6b" d="M185 83h1v-1l-1 1Z"/><path fill="#CACCC7" id="cing" d="m210 101 1 1c-9.981 0-15.198-11.349-22.5-15-4.351-2.175-12.253 5-16.5 5l-1 1h-6l5-4c1.622 0 5 .46 5-2 1.622 0 5 .46 5-2 1.622 0 5 .46 5-2h1l7-1 4 3c0 3.515 5.595 14 10 14l3 2ZM247 100v1c9.39 0 12.812-10.156 20.5-14 5.633-2.816 14.163 6 19.5 6h4c0-1.988-3.315-2.408-4.5-3L270 83l-7-1-2 1-1 2-1 1c0 1.466.109 4-2 4 0 1.238-.423 3-2 3 0 1.747-.253 2-2 2 0 1.365-2.366 4-4 4l-2 1Z"/><path fill="#1D9D5A" id="MOp6b" d="M300 94v1c-3.68 0-5.511-2-9-2 0-1.988-3.315-2.408-4.5-3L270 83v-1h1c0 .83 6.431 2.466 7.5 3 5.528 2.764 15.239 9 21.5 9ZM185 83c-1.424 0-5 .362-5 2 1.622 0 5 .46 5-2Z"/><path fill="#3FA466" id="ACAd6b" d="M259 85h1l1-2c-1.747 0-2 .253-2 2Z"/><path fill="#197E62" id="SSp-n5" d="M87 115c-3.524 0-5.108.804-7.5 2-1.007.504-4.5 3.796-4.5 2 0-11.019 15.54-18.579 20-27.5l10-6.5h1l5 10v1c-3.408 0-22 13.663-22 17l-1 1-1 1Z"/><path fill="#1D9D5A" id="MOp6b" d="M180 85c-1.424 0-5 .362-5 2 1.622 0 5 .46 5-2Z"/><path fill="#40A465" id="ACAv6b" d="M198 85c0 6.595 9 8.769 9 14-4.405 0-10-10.485-10-14h1ZM260 85l-1 1v-1h1Z"/><path fill="#197E62" id="SSp-n5" d="M368 114c5.743 0 9.795 6 15 6l-6-9.5c-2.488-4.976-19.382-25.5-26-25.5h-1l-4 10c0 3.015 22 11.837 22 19Z"/><path fill="#40A465" id="ACAv6b" d="M259 86c-2.109 0-2 2.534-2 4 2.109 0 2-2.534 2-4Z"/><path fill="#1D9D5A" id="MOp6b" d="M175 87c-1.424 0-5 .362-5 2 1.622 0 5 .46 5-2Z"/><path fill="#C9C7C9" id="ccb" d="M367 159v3l-4.5-8-7.5-14.5-9-12-8.5-7.5-12-9c-12.576-6.288-25.298-7-39.5-7 0-10.659-25-6.466-25-1l-4 2c-1.238 0-3 .423-3 2l-1 1c-3.482 0-12.662 1.081-16.5 3l-2.5 2h-12c0-2.334-4.181-1.341-5.5-2-4.031-2.015-8.836-3-12.5-3l-2-1c0-5.782-32-16.672-32-3-19.726 0-37.651 2.151-52.5 17l-5.5 4.5c-4.733 9.465-12.356 17.712-17 27l-5 8.5v-3l1-1v-2l1-2 1-2v-1l1-2 1-1v-1l1-2 1-1v-1c1.577 0 2-1.762 2-3l2-4c1.369 0 9-10.375 9-12l7.5-7c8.52-4.26 16.616-8.808 25-13 3.262-1.631 26.5-7.08 26.5-10h2l1-1c4.247 0 12.149-7.175 16.5-5 7.302 3.651 12.519 15 22.5 15 2.16 0 4.167 2 7 2l3-1h14l3 1c3.091 0 5.478-2 8-2l1-1c9.39 0 12.812-10.156 20.5-14 5.633-2.816 14.163 6 19.5 6 0 1.607 8.043 3.271 9.5 4 10.217 5.108 21.827 6.913 32 12 7.211 3.606 18.651 12.801 22.5 20.5.935 1.87 5.852 11.5 8 11.5v1c0 1.238.423 3 2 3v1l2 3v1c0 1.465-.109 4 2 4v2l1 1v1l1 1Z"/><path fill="#1D9D5A" id="MOp6b" d="M156 94v1c3.519 0 5.843-2 9-2l5-4c-5.015 0-8.704 5-14 5Z"/><path fill="#40A465" id="ACAv6b" d="M257 90c-1.577 0-2 1.762-2 3 1.577 0 2-1.762 2-3Z"/><path fill="#1A7F61" id="SSp-un6a" d="M330 106h1l2.5-3c7.24-7.24 3.583-2 9.5-2l2-6-9-5h-1c0 5.418-6 9.769-6 15v1h1ZM126 106h1v-1c0-4.828-6-9.514-6-14-3.974 0-6.315 4-10 4v1l3 5 3.5-2c2.302 1.151 7.251 7 8.5 7Z"/><path fill="#C9C9CA" id="scwm" d="m172 92-1 1 1-1ZM111 119l-1 4 7.5-7c8.52-4.26 16.616-8.808 25-13 3.262-1.631 26.5-7.08 26.5-10h-4c-3.157 0-5.481 2-9 2 0 2.46-3.378 2-5 2 0 1.638-3.576 2-5 2 0 2.461-3.378 2-5 2 0 1.288-11.349 6-13 6h-2c0 1.988-3.315 2.408-4.5 3-3.747 1.873-6.063 9-10.5 9Z"/><path fill="#40A465" id="ACAv6b" d="m255 93-2 2c1.747 0 2-.253 2-2Z"/><path fill="#C9C9CA" id="scwm" d="m330 107 7 4.5c3.906 7.812 22 19.038 22 29.5-2.148 0-7.065-9.63-8-11.5-3.849-7.699-15.289-16.894-22.5-20.5-10.173-5.087-21.783-6.892-32-12-1.457-.729-9.5-2.393-9.5-4h4c3.489 0 5.32 2 9 2 0 2.334 4.181 1.34 5.5 2 3.255 1.628 20.038 10 22.5 10h2Z"/><path fill="#1C8064" id="SSp-ul6b" d="m329 106-1 1c-2.462 0-19.245-8.372-22.5-10-1.319-.66-5.5.334-5.5-2v-1c7.325 0 20.386 11 29 11v1ZM156 95c-1.424 0-5 .362-5 2 1.622 0 5 .46 5-2Z"/><path fill="#7ED04B" id="IG" d="M221 103h14l-1-2-5-6c0 2.488-2 1.919-2 0l-5 6-1 2Z"/><path fill="#40A465" id="ACAv6b" d="M253 95c-2.226 0-4 1.774-4 4 1.634 0 4-2.635 4-4Z"/><path fill="#187D62" id="SSp-n6a" d="M343 101c.145 0-.08 4.71 2.5 6 1.963.982 20.98 7 22.5 7 0-7.163-22-15.985-22-19h-1l-2 6ZM114 101c0 5.957-17.004 12-25 12 0-3.337 18.592-17 22-17l3 5Z"/><path fill="#1C8064" id="SSp-ul6b" d="M151 97c-1.622 0-5-.46-5 2 1.424 0 5-.362 5-2Z"/><path fill="#AAA8A9" id="SEZ" d="M174 106c0-17.516 24.139 1 28 1 0-5.782-32-16.672-32-3l4 2ZM286 104c0 1.473-1.952 1-3 1 0-3.611-1.027-2.764-3.5-4-8.285-4.142-10.978 2-18.5 2 0-5.466 25-9.659 25 1Z"/><path fill="#187D61" id="SSp-m6a" d="M79 136c0 2.54 11.489 9 14 9 .024 0 13.27-26 18-26 0-3.465 11.273-12 15-12v-1c-1.249 0-6.198-5.849-8.5-7l-3.5 2c0 5.957-17.004 12-25 12l-1 1-1 1c0 7.341-8 13.567-8 21Z"/><path fill="#1C8064" id="SSp-ul6b" d="M146 99c-1.424 0-5 .362-5 2 1.622 0 5 .461 5-2Z"/><path fill="#A8AAAA" id="VL" d="m193 175-2 1-1-2-1-1v-1c0-2.592-.958-3.416-2-5.5l-1-21.5c0-6.864-.113-15.727-3-21.5l-9-17.5c0-17.516 24.139 1 28 1l2 1c0 3.316-13 19.401-13 31v15l-1 1c0 3.308 1.267 17 3 17v3ZM267 173c0 1.238-.423 3-2 3-1.473 0-1-1.952-1-3 0-3.536 1.471-8.443 3-11.5l-1-7.5v-5c0-3.51-1-7.022-1-10 0-12.919-12-23.244-12-31l1-1c1.238 0 3-.423 3-2 1.465 0 4 .109 4-2 7.522 0 10.215-6.142 18.5-2 2.473 1.236 3.5.389 3.5 4l-1 1-9 18.5c-3.276 6.551-2 15.745-2 22.5l-2 21.5-2 4.5Z"/><path fill="#187D61" id="SSp-m6a" d="M363 146h1c0-2.268 11.999-9 14-9v-1c0-5.34-10-17.79-10-22-1.52 0-20.537-6.018-22.5-7-2.58-1.29-2.355-6-2.5-6-5.917 0-2.26-5.24-9.5 2l-2.5 3 3.5 3c3.987 1.993 5.83 5.915 10 8 4.729 2.365 18.5 23.968 18.5 29Z"/><path fill="#1C8064" id="SSp-ul6b" d="m127 106 1 1c1.651 0 13-4.712 13-6-5.453 0-8.645 4-14 4v1Z"/><path fill="#CACCC7" id="cing" d="m247 101-1 1 1-1Z"/><path fill="#98D5F9" id="CP" d="M144 225c-5.624 0-11.647 6.573-16.5 9-3.566 1.783-9.243 1-13.5 1-4.85 0-12.839-11-15-11l-2-5-1-1v-1l-1-1v-2l-1-1v-1l-1-1v-2l-2-4v-2c0-1.041-.986-5-2-5v-1c0-6.744-3-13.047-3-22v-3l1-1v-3l1-1v-1l1-2v-1l1-2 5-8.5c4.644-9.288 12.267-17.535 17-27l5.5-4.5c14.849-14.849 32.774-17 52.5-17l4 2 9 17.5c2.887 5.773 3 14.636 3 21.5-.93 0-4.004 8.504-5.5 10-3.784 3.784-7.056 3.612-9.5 8.5-2.434 4.869 1.152 15.303 3 19l-1 23.5v1c-1.473 0-1 1.952-1 3l-1 1-1 1h-1c-1.145 0-4-.579-4 1h-1c-1.048 0-3-.473-3 1l-1 1-4 1-1 1-1 1-1 1h-1l-1 1-1 1h-1l-2 2c-1.238 0-3 .423-3 2Z"/><path fill="#AAA8A9" id="SEZ" d="m261 103-4 2c1.465 0 4 .109 4-2Z"/><path fill="#98D5F9" id="CP" d="M348 233c-2.483 0-4.026 2-6 2-7.675 0-12.257-.878-18.5-4-3.43-1.715-13.285-10-16.5-10h-1l-2-2-1-1-1-1h-1l-1-1-3-1-1-1h-1c0-1.473-1.952-1-3-1h-1c0-.672-4.329-2-5-2l-1-1-2-4v-2c0-2.158.801-16-1-16v-2c.623 0 3-11.462 3-13 0-5.281.169-9.162-2-13.5-1.148-2.297-6.778-2.556-8-5l-4-7.5c0-6.755-1.276-15.949 2-22.5l9-18.5 1-1c1.048 0 3 .473 3-1 14.202 0 26.924.712 39.5 7l12 9 8.5 7.5 9 12 7.5 14.5 4.5 8v1l2 4v3l1 1v2l1 1v10c-1.326 0-4 12.059-4 14v1c-1.473 0-1 1.952-1 3l-1 2v2l-2 4v2l-1 1v1l-1 1v2l-1 1v1l-1 1c0 1.238-1.923 5-3 5l-1 2-2 2c-1.562 0-5 2.189-5 4Z"/><path fill="#AAA8A9" id="SEZ" d="M257 105c-1.238 0-3 .423-3 2 1.238 0 3-.423 3-2ZM283 105l-1 1 1-1Z"/><path fill="#1A7D63" id="SSp-un6b" d="M126 107h2l-1-1h-1v1ZM328 107h2v-1h-1l-1 1Z"/><path fill="#188064" id="SSp-m6b" d="M362 146h1c0-5.032-13.771-26.635-18.5-29-4.17-2.085-6.013-6.007-10-8l-3.5-3h-1v1l7 4.5c3.906 7.812 22 19.038 22 29.5v1c1.577 0 2 1.762 2 3v1h1ZM126 107c-3.727 0-15 8.535-15 12 4.437 0 6.753-7.127 10.5-9 1.185-.592 4.5-1.012 4.5-3Z"/><path fill="#90CBEC" id="LSc" d="M191 139h1c4.401 0 30-19.799 30-25v-1c0-2.334-4.181-1.341-5.5-2-4.031-2.015-8.836-3-12.5-3 0 3.316-13 19.401-13 31ZM234 114c0 4.695 26.387 25 31 25 0-12.919-12-23.244-12-31-3.482 0-12.662 1.081-16.5 3l-2.5 2v1Z"/><path fill="#AAA8A9" id="SEZ" d="m254 107-1 1 1-1Z"/><path fill="#97D6F9" id="STR" d="m223 113-1 1v-1h1Z"/><path fill="#90CAED" id="LSr" d="M266 149c-1.579 0-1 2.855-1 4l-2.5 2-14.5-13-3-3-1-1h-1l-8-8.5-6-9-.5-2.5-7.5 12.5-8 7.5-5 5c-5.317 0-8.925 9.713-13.5 12l-3.5-2v-13l1-1c4.401 0 30-19.799 30-25l1-1h3c0 2.515 4 2.515 4 0h3l1 1c0 4.695 26.387 25 31 25 0 2.978 1 6.49 1 10Z"/><path fill="#97D6F9" id="STR" d="M226 113h4c0 2.515-4 2.515-4 0ZM234 113v1l-1-1h1Z"/><path fill="#1B7E63" id="SSp-m5" d="m88 114-1 1 1-1Z"/><path fill="#1B7E63" id="SSp-m5" fill-rule="evenodd" d="M373 116c0 1.93 1.93 0 0 0m14 14c0 .183-8.192 6-9 6 0-5.34-10-17.79-10-22 5.743 0 9.795 6 15 6 0 3.396 4 6.052 4 10Z"/><path fill="#1B7E63" id="SSp-m5" d="M78 136h1c0-7.433 8-13.659 8-21-3.524 0-5.108.804-7.5 2-1.007.504-4.5 3.796-4.5 2l-2 2-4 8v1l9 6Z"/><path fill="#1A7E62" id="SSs1" d="m43 176-4 1c0-8.827-1.26-30.981 2-37.5l9-23.5c1.947 0 2.636 3 5 3v1c0 2.607-6.48 16.458-8 19.5-4.318 8.636-4 25.815-4 36.5Z"/><path fill="#197E62" id="SSp-n5" d="M373 116c0 1.93 1.93 0 0 0Z"/><path fill="#1A7E62" id="SSs1" d="m413 176 4 1c1.127 0 1.894-13.712 1-15.5-3.062-6.125.114-17.771-3-24-2.794-5.588-8-15.132-8-21.5l-6 3v1c2.076 0 4.132 9.764 5 11.5 6.65 13.299 7 28.374 7 44.5Z"/><path fill="#8FCBEC" id="SF" d="M254 175c0-10.84-6.76-21.13-16.5-26-1.68-.84-6.798-7.601-10-6-10.398 5.199-19.326 14.151-24.5 24.5-1.784 3.567 2 7.072 2 9.5-.736 0-12-9.506-12-5-1.733 0-3-13.692-3-17l1-1v-1l3.5 2c4.575-2.287 8.183-12 13.5-12l-.5 2c9.029 9.029 12.96-7 5.5-7l8-7.5 7.5-12.5.5 2.5 6 9 8 8.5c-9.55 0 1.263 16.973 6 7.5l-1-3.5 14.5 13 2.5-2 1 1 1 7.5c-1.529 3.057-3 7.964-3 11.5h-1c0-5.896-7.213 2-9 2Z"/><path fill="#188064" id="SSp-m6b" d="M93 146h2l1-2 1-1v-1c0-1.238.423-3 2-3 0-1.465-.109-4 2-4 0-2.825 5.423-12 9-12l1-4c-4.73 0-17.976 26-18 26v1Z"/><path fill="#1B8063" id="SSs2/3" d="m52 176-9 1v-1c0-10.685-.318-27.864 4-36.5 1.52-3.042 8-16.893 8-19.5 3.1 0 3.387 4 7 4l1 1v1l-6 15.5c-4.19 8.379-5 24.189-5 34.5Z"/><path fill="#1B7F62" id="SSp-m4" d="M387 130h1l5-4v-1l-1-1c-2.557 0-6.098-4-9-4 0 3.396 4 6.052 4 10Z"/><path fill="#1B8063" id="SSs2/3" d="M413 176v1l-8-1c0-9.974-1.899-27.298-6-35.5-1.51-3.02-6-11.41-6-14.5v-1l1-1c2.968 0 4.633-4 7-4 2.076 0 4.132 9.764 5 11.5 6.65 13.299 7 28.374 7 44.5Z"/><path fill="#1B7F62" id="SSp-m4" d="m63 126 6 3 4-8h-4.5v2c-.704 0-3.5.645-3.5 0l-1 1-1 1v1Z"/><path fill="#C9C9CA" id="scwm" d="M110 123c-3.577 0-9 9.175-9 12 1.369 0 9-10.375 9-12Z"/><path fill="#1A7E64" id="SSp-m2/3" d="m394 124-1 1-1-1v-1l2 1ZM64 124l-1 1-1-1h2Z"/><path fill="#187C63" id="SSs4" d="m57 175-5 1c0-10.311.81-26.121 5-34.5l6-15.5 6 3v1l-6 13.5c-3.353 6.707-6 23.488-6 31.5ZM399 175l6 1c0-9.974-1.899-27.298-6-35.5-1.51-3.02-6-11.41-6-14.5l-5 4c0 4.099 3.235 8.97 5 12.5 4.33 8.661 6 22.244 6 32.5Z"/><path fill="#1C8063" id="SSs5" d="M57 175h14c0-5.668-.635-20.229 2-25.5l5-13.5-9-6-6 13.5c-3.353 6.707-6 23.488-6 31.5ZM386 175h13c0-10.256-1.67-23.839-6-32.5-1.765-3.53-5-8.401-5-12.5h-1c0 .183-8.192 6-9 6v1c1.55 0 2.364 6.228 3 7.5 4.389 8.778 5 19.932 5 30.5Z"/><path fill="#C9C9CA" id="scwm" d="M101 135c-2.109 0-2 2.535-2 4l2-4Z"/><path fill="#197D63" id="SSs6a" d="M71 175h13c0-8.203 9-23.009 9-29v-1c-2.511 0-14-6.46-14-9h-1l-5 13.5c-2.635 5.271-2 19.832-2 25.5ZM372 175h14c0-10.568-.611-21.722-5-30.5-.636-1.272-1.45-7.5-3-7.5-2.001 0-14 6.732-14 9 0 8.094 8 19.486 8 29Z"/><path fill="#CBC8CB" id="fi" d="M213 138c7.46 0 3.529 16.029-5.5 7l.5-2 5-5ZM245 139l3 3 1 3.5c-4.737 9.473-15.55-7.5-6-7.5h1l1 1Z"/><path fill="#8FCBEC" id="SF" d="m244 138 1 1-1-1Z"/><path fill="#C9C9CA" id="scwm" d="M99 139c-1.577 0-2 1.762-2 3 1.577 0 2-1.762 2-3Z"/><path fill="#97D6F9" id="STR" d="m192 139-1 1v-1h1Z"/><path fill="#C9C9CA" id="scwm" d="M359 142c1.577 0 2 1.762 2 3-1.577 0-2-1.762-2-3ZM97 143l-1 1 1-1Z"/><path fill="#96A7D2" id="TRS" d="M233 181h2c0-1 3.932-8 5.5-8l4.5 6h3l2-1 1-1 2-1 1-1c0-10.84-6.76-21.13-16.5-26-1.68-.84-6.798-7.601-10-6-10.398 5.199-19.326 14.151-24.5 24.5-1.784 3.567 2 7.072 2 9.5h1l2 2h4c1.476 0 1.68-7.41 4.5-6l5.5 8h1c0-6.237 10-5.267 10 0Z"/><path fill="#C9C9CA" id="scwm" d="m96 144-1 2 1-2Z"/><path fill="#97D6F9" id="STR" d="M175 201c-2.496 0 .496 5-2 5l1-23.5c-1.848-3.697-5.434-14.131-3-19 2.444-4.888 5.716-4.716 9.5-8.5 1.496-1.496 4.57-10 5.5-10l1 21.5c1.042 2.084 2 2.908 2 5.5-1.819 0-4.591-1-7-1l-1 1-3 1c0-1.135-2.628-10.243-4-7.5-1.006 2.013 1 29.361 1 35.5Z"/><path fill="#1A8061" id="SSs6b" d="M85 175h1v-3l1-1v-3l1-1v-1l1-2v-1l1-2v-3l1-1v-2l1-2 1-2v-1l1-2 1-1v-1h-2c0 5.991-9 20.797-9 29h1Z"/><path fill="#C9C9CA" id="scwm" d="m362 146 1 3-2-3h1Z"/><path fill="#1A8061" id="SSs6b" d="M371 175h1c0-9.514-8-20.906-8-29h-2l1 3v1c2.109 0 2 2.535 2 4v2l1 1v1l1 1v4l2 4v3l1 1v2l1 1v1Z"/><path fill="#C9C9CA" id="scwm" d="m95 147-1 1 1-1Z"/><path fill="#97D6F9" id="STR" d="M278 173c1.617 0 1.196-9 3.5-9l.5 22c.623 0 3-11.462 3-13 0-5.281.169-9.162-2-13.5-1.148-2.297-6.778-2.556-8-5l-4-7.5-2 21.5-2 4.5c.36 0 8-4.641 8-1l3 1Z"/><path fill="#C9C9CA" id="scwm" d="m94 148-1 2 1-2Z"/><path fill="#97D6F9" id="STR" d="m265 153 1 1v-5c-1.579 0-1 2.855-1 4Z"/><path fill="#C9C9CA" id="scwm" d="M363 150c2.109 0 2 2.535 2 4-2.109 0-2-2.535-2-4ZM93 151l-1 2 1-2ZM92 153l-1 2 1-2Z"/><path fill="#97D6F9" id="STR" d="m191 154-1 1 1-1Z"/><path fill="#C9C9CA" id="scwm" d="m365 156 1 1-1-1ZM91 157l-1 1 1-1ZM366 158l1 1-1-1Z"/><path fill="#C9C7C9" id="ccb" d="m90 161-1 2 1-2ZM367 163l2 4-2-4ZM89 164l-1 2 1-2Z"/><path fill="#CCC" d="M277 191c.975 0 4 23.108 4 12v-3c0-3.312 1-8.038 1-12v-2l-.5-22c-2.304 0-1.883 9-3.5 9l-1 9v9ZM179 194c-1.315 0-4 22.745-4 10.5V201c0-6.139-2.006-33.487-1-35.5 1.372-2.743 4 6.365 4 7.5 0 4.734 1 10.644 1 16v5Z"/><path fill="#C9C7C9" id="ccb" d="m88 167-1 1 1-1ZM369 170l1 1-1-1Z"/><path fill="#C8CBCC" id="ec" d="m87 171-1 1 1-1Z"/><path fill="#8599CC" id="PAL" d="m182 171-1 1 1-1Z"/><path fill="#B3C0DE" id="BST" d="M199 233h2c0-1.606 6.894-5.287 8-7.5 1.924-3.848 0-6.6 0-10.5 0-1.779-4.928-.357-6-2.5l1-4.5c-6.478 0 1-5.791 1-8v-4l-1-1-5-9v-1l-1-1-1-2-6-6-1-2-1-1v-1c-1.819 0-4.591-1-7-1l-1 1-1 13c0 1.145.579 4-1 4v5l-2 24c0 4.402-.19 8.655 4.5 11l5.5 3h1c2.998 0 7.358 1 11 1Z"/><path fill="#8FCBED" id="LSv" d="m199 186 4.5 4 5.5-1 2-4v-2l-2-4h-1l-2-2h-1c-.736 0-12-9.506-12-5v3l4 7 1 2 1 1v1ZM256 188l-1 1-4.5 1-4.5-3v-1c0-2.833 2-4.84 2-7l2-1 1-1 2-1 1-1c1.787 0 9-7.896 9-2l-2 7c-1.577 0-2 1.762-2 3l-1 1-1 3-1 1Z"/><path fill="#B3C0DE" id="BST" d="M257 233h10l2-1h1c0-1.051 10-5.534 10-13 0-9.493-3-18.296-3-28v-9c-.701 0-2-9.035-2-10 0-3.641-7.64 1-8 1 0 1.238-.423 3-2 3l-4 4c0 1.238-.423 3-2 3l-1 1-1 3-1 1-1 1-3 7c0 1.048.473 3-1 3 0 .396 6.537 9 2.5 9l-2.5-1c0 1.543 4.634 2.231 3 5.5-.938 1.876-7 .755-7 2.5 0 4.878-1.33 6.841 1 11.5l8 6.5h1Z"/><path fill="#8599CC" id="PAL" d="M178 173c0 4.734 1 10.644 1 16 1.579 0 1-2.855 1-4l1-13-3 1ZM278 173l-1 9c-.701 0-2-9.035-2-10l3 1Z"/><path fill="#97D6F9" id="STR" d="m189 173 1 1-1-1Z"/><path fill="#C7C8CA" id="fx" d="M209 189v8c0 7.01 10.123 3.254 12-.5 2.815-5.63 1-9.485 1-15.5l-5.5-8c-2.82-1.41-3.024 6-4.5 6 0 1.145.579 4-1 4v2c0 1.465.109 4-2 4ZM248 197l-1 2c-2.457 0-4.522 3.489-7.5 2-8.149-4.074-4.5-13.619-4.5-20 0-1 3.932-8 5.5-8l4.5 6c0 1.406-.714 7 1 7v1l2 10Z"/><path fill="#97D6F9" id="STR" d="m265 176-4 4 2-7h1c0 1.048-.473 3 1 3Z"/><path fill="#C8CBCC" id="ec" d="m370 173 1 1-1-1Z"/><path fill="#11AC82" id="VISC4" d="m57 185-4 1-1-10 5-1v10Z"/><path fill="#12AD82" id="VISC5" d="M71 181c-5.133 0-9.694 4-14 4v-10h14v6Z"/><path fill="#11AC83" id="VISC6a" d="M84 179c-5.624 0-7.566 2-13 2v-6h13v4Z"/><path fill="#11AD82" id="VISC6b" d="M84 179h1v-4h-1v4Z"/><path fill="#C8CBCC" id="ec" d="m87 193 2 4c0-6.744-3-13.047-3-22h-1v4l1 12v1l1 1Z"/><path fill="#97D6F9" id="STR" d="m191 176 6 6-4-7-2 1Z"/><path fill="#8FCBEC" id="SF" d="m254 175-1 1 1-1Z"/><path fill="#11AD82" id="VISC6b" d="M371 179h1v-4h-1v4Z"/><path fill="#11AC83" id="VISC6a" d="M372 179c5.842 0 9.044 2 14 2v-6h-14v4Z"/><path fill="#12AD82" id="VISC5" d="m386 181 13 3v-9h-13v6Z"/><path fill="#11AC82" id="VISC4" d="m399 185 4 1 2-10-6-1v10Z"/><path fill="#12AD83" id="VISC1" d="m45 189-3 2c0-4.36-3-8.778-3-14l4-1v1l2 12Z"/><path fill="#12AC83" id="VISC2/3" d="M45 189h1l7-3-1-10-9 1 2 12Z"/><path fill="#A8A9AA" id="V3" d="m225 193 3.5-2 3.5 4c0-4.869 1-9.649 1-14 0-5.267-10-6.237-10 0 0 3.649 2 7.489 2 12Z"/><path fill="#12AC83" id="VISC2/3" d="m403 186 8 3c0-3.956 2-7.497 2-12l-8-1-2 10Z"/><path fill="#12AD83" id="VISC1" d="m411 190 4 1c0-4.676 2-8.693 2-14l-4-1v1c0 4.503-2 8.044-2 12v1Z"/><path fill="#8FCBEC" id="SF" d="m206 177 2 2-2-2ZM251 177l-1 1 1-1Z"/><path fill="#009B74" id="GU6a" d="M81 193c-2.097 0-5.293 1-8 1 0-4.207-2-8.154-2-13 5.434 0 7.376-2 13-2l1 12-4 2Z"/><path fill="#019C74" id="GU6b" d="M85 191h1l-1-12h-1l1 12Z"/><path fill="#97D6F9" id="STR" d="M212 179c0 1.145.579 4-1 4l-2-4h3ZM248 179c0 2.16-2 4.167-2 7-1.714 0-1-5.594-1-7h3Z"/><path fill="#019C74" id="GU6b" d="M371 184v6c1.773 0 1-9.259 1-11h-1v5Z"/><path fill="#009B74" id="GU6a" d="m375 193 8 1c0-3.707 3-8.883 3-13-4.956 0-8.158-2-14-2 0 1.741.773 11-1 11v1l4 2Z"/><path fill="#97D6F9" id="STR" d="M261 180c-1.577 0-2 1.762-2 3 1.577 0 2-1.762 2-3Z"/><path fill="#019C75" id="GU5" d="M60 197h1c0-2.238 9.802-2 12-2v-1c0-4.207-2-8.154-2-13-5.133 0-9.694 4-14 4l3 12Z"/><path fill="#CAC7CB" id="fiber tracts" d="m211 205 11.5-5c2.644-1.322 4.6 1.2 7 0 5.027-2.514 12.075 5 16.5 5 0-3.39 1-5.021 1-6-2.457 0-4.522 3.489-7.5 2-8.149-4.074-4.5-13.619-4.5-20h-2c0 4.351-1 9.131-1 14 0 4.769-7 5.476-7-2 0-4.511-2-8.351-2-12h-1c0 6.015 1.815 9.87-1 15.5-1.877 3.754-12 7.51-12 .5h-4v3c3.945 0 6-.8 6 5Z"/><path fill="#019C75" id="GU5" d="M395 197h1l3-12v-1l-13-3c0 4.117-3 9.293-3 13v1c2.264 0 12-.627 12 2Z"/><path fill="#97D6F9" id="STR" d="m259 183-1 1 1-1ZM198 184l1 1-1-1Z"/><path fill="#C8CBCC" id="ec" d="M367 198h1v-1l1-1 1-4v-1l1-1v-6c-1.326 0-4 12.059-4 14Z"/><path fill="#009C74" id="GU4" d="M57 197h3l-3-12-4 1 4 11Z"/><path fill="#97D6F9" id="STR" d="m211 185-2 4c2.109 0 2-2.535 2-4Z"/><path fill="#009C74" id="GU4" d="M396 197h3l4-11-4-1-3 12Z"/><path fill="#009B75" id="GU2/3" d="M57 197c0 1.175-5.704 2-7 2 0-3.102-4-6.299-4-10l7-3 4 11Z"/><path fill="#97D6F9" id="STR" d="M205 197h4v-8l-5.5 1-4.5-4 5 9 1 1v1Z"/><path fill="#009B75" id="GU2/3" d="M406 199h1c0-1.403 2.711-9 4-9v-1l-8-3-4 11c0 1.175 5.704 2 7 2Z"/><path fill="#97D6F9" id="STR" d="m252 196-4 1-2-10 4.5 3 4.5-1-3 7ZM257 187l-1 1 1-1ZM256 188l-1 1 1-1ZM281 200l2 4c0-2.158.801-16-1-16 0 3.962-1 8.688-1 12Z"/><path fill="#009C75" id="GU1" d="m50 199-4 2-4-10 3-2h1c0 3.701 4 6.898 4 10Z"/><path fill="#019C74" id="GU6b" d="M370 191h1v-1l-1 1Z"/><path fill="#009C75" id="GU1" d="m407 199 3 2 5-10-4-1c-1.289 0-4 7.597-4 9Z"/><path fill="#8ADA86" id="CLA" d="m90 207-3 1c-6.535 0-6-9.76-6-15l4-2h1v1l1 1 2 4v1l1 5 1 1v2l-1 1Z"/><path fill="#FF5445" id="MEPO" d="m225 193 3.5-2 3.5 4c0 4.769-7 5.476-7-2Z"/><path fill="#8599CC" id="PAL" d="M284 221c1.284 0 2.561-3.47 5.5-2l2.5 2-3-4.5c-1.189-2.377 2-2.116 2-3.5-1.622 0-5 .461-5-2l-1-1c-2.109 0-2-2.535-2-4v-2l-2-4v3c0 11.108-3.025-12-4-12 0 9.704 3 18.507 3 28l3 3 1-1Z"/><path fill="#009B74" id="GU6a" d="m371 191-1 1v-1h1Z"/><path fill="#8ADA86" id="CLA" d="m367 207 3 1c6.259 0 5-11.651 5-15l-4-2-1 1-1 4-1 1v1l-1 1c0 1.048.473 3-1 3v2l1 3Z"/><path fill="#209766" id="AIp6a" d="m86 192 1 1-1-1ZM81 213h2c0-2.813 4-3.461 4-5-6.535 0-6-9.76-6-15-2.097 0-5.293 1-8 1v1c1.845 0 1.44 3.381 2 4.5 1.928 3.856 6 9.015 6 13.5ZM373 213h2l8-18v-1l-8-1c0 3.349 1.259 15-5 15 0 1.947 3 2.636 3 5Z"/><path fill="#8599CC" id="PAL" d="M165 220c1.827 0 8-2.843 8 2l4-4 2-24c-1.315 0-4 22.745-4 10.5V201c-2.496 0 .496 5-2 5v1c0 1.048.473 3-1 3l-1 1-1 1h-1c0 1.473-1.952 1-3 1l1 4.5-2 2.5Z"/><path fill="#219864" id="AIp5" d="m79 215-4 1c0-1.754-14-12.62-14-19 0-2.238 9.802-2 12-2 1.845 0 1.44 3.381 2 4.5 1.928 3.856 6 9.015 6 13.5l-2 2Z"/><path fill="#CAC7CB" id="fiber tracts" d="m204 195 1 1-1-1Z"/><path fill="#219864" id="AIp5" d="m377 215 5 1c0-3.465 13-12.333 13-19 0-2.627-9.736-2-12-2l-8 18 2 2Z"/><path fill="#CAC7CB" id="fiber tracts" d="M247 199h4c1.473 0 1-1.952 1-3l-4 1-1 2Z"/><path fill="#209766" id="AIp6a" d="m369 196-1 1 1-1Z"/><path fill="#209865" id="AIp2/3" d="m75 216-11 5c0-5.333-14-15.243-14-22 1.296 0 7-.825 7-2h4c0 6.38 14 17.246 14 19ZM382 216c0 .865 8.68 4 10 4 1.762 0 14-18.305 14-21-1.296 0-7-.825-7-2h-4c0 6.667-13 15.535-13 19Z"/><path fill="#C8CBCC" id="ec" d="M90 203h1c0-1.041-.986-5-2-5l1 5Z"/><path fill="#209766" id="AIp6a" d="m368 198-1 1v-1h1Z"/><path fill="#219765" id="AIp1" d="m64 221-4 2c-1.358 0-14-19.848-14-22l4-2c0 6.757 14 16.667 14 22Z"/><path fill="#B3C0DF" id="BAC" d="m205 207-1 1c-6.478 0 1-5.791 1-8 3.945 0 6-.8 6 5l-6 2ZM246 205l5 2 2.5 1c4.037 0-2.5-8.604-2.5-9h-4c0 .979-1 2.61-1 6Z"/><path fill="#C8CBCC" id="ec" d="M367 199c-1.473 0-1 1.952-1 3 1.473 0 1-1.952 1-3Z"/><path fill="#219765" id="AIp1" d="m392 220 5 3c0-4.812 13-14.69 13-22l-3-2h-1c0 2.695-12.238 21-14 21Z"/><path fill="#C9C9C9" id="act" fill-rule="evenodd" d="M219 204c0 3.694 12.9 4.3 15.5 3l3.5-2.5-19-.5m13 12h2l1-1h12c0-1.745 6.062-.624 7-2.5 1.634-3.269-3-3.957-3-5.5l-5-2c-4.425 0-11.473-7.514-16.5-5-2.4 1.2-4.356-1.322-7 0l-11.5 5-6 2-1 1-1 4.5c1.072 2.143 6 .721 6 2.5h12l3 1h2c0-1.566 5-1.566 5 0h1Z"/><path fill="#C8CBCC" id="ec" d="M365 204h1v-2l-1 2Z"/><path fill="#209766" id="AIp6a" d="M91 203v1l-1-1h1Z"/><path fill="#CBCBC7" id="aco" d="M219 204c0 3.694 12.9 4.3 15.5 3l3.5-2.5-19-.5Z"/><path fill="#209766" id="AIp6a" d="m367 207-2 1v-4h1l1 3Z"/><path fill="#C8CBCC" id="ec" d="m91 207 2 2-2-4v2Z"/><path fill="#209766" id="AIp6a" d="M90 207h1v-1l-1 1Z"/><path fill="#97D6F9" id="STR" d="m283 206 2 4c-2.109 0-2-2.535-2-4Z"/><path fill="#C8CBCC" id="ec" d="m365 208-2 2 2-4v2Z"/><path fill="#A0EE9C" id="EPd" d="M101 228c0 2.003.293 3-2 3l-8-4h-1l-1-1-1-1-1-1-1-2c0-2.561-3-5.324-3-9 0-2.813 4-3.461 4-5l3-1h1l2 2v2l1 1v1l1 1v2l1 1v1l1 1 2 5 2 4Z"/><path fill="#97D6F9" id="STR" d="M173 207c-1.473 0-1 1.952-1 3 1.473 0 1-1.952 1-3Z"/><path fill="#B3C0DE" id="BST" d="m205 207-1 1 1-1Z"/><path fill="#A0EE9C" id="EPd" d="M363 229c-2.447 0-3.28 2-6 2l-2-2v-2l1-2c1.077 0 3-3.762 3-5l1-1v-1l1-1v-2l1-1v-1l1-1v-2l2-2 2-1 3 1c0 1.947 3 2.636 3 5v6l-1 1-1 2-1 1-1 1-1 1-1 1-1 1-1 1-2 1Z"/><path fill="#97D6F9" id="STR" d="m172 210-1 1 1-1Z"/><path fill="#C8CBCC" id="ec" d="m93 211 1 1-1-1Z"/><path fill="#97D6F9" id="STR" d="m171 211-1 1 1-1ZM286 211c.671 0 5 1.328 5 2-1.622 0-5 .461-5-2ZM165 213h1c1.048 0 3 .473 3-1-1.145 0-4-.579-4 1Z"/><path fill="#C8CBCC" id="ec" d="m363 212-1 1 1-1Z"/><path fill="#99D2BD" id="OLF" d="m79 215 7 7c0-2.561-3-5.324-3-9h-2l-2 2Z"/><path fill="#C8CBCC" id="ec" d="m94 213 1 1-1-1Z"/><path fill="#97D6F9" id="STR" d="M164 213c-1.048 0-3-.473-3 1 1.048 0 3 .473 3-1Z"/><path fill="#C9C9C9" id="act" d="m157 227-12.5 6c-1.158.579-3.5-.341-3.5 2-2.113 0-2.782.141-4.5 1-2.694 1.347-2.732-4.134-1-5l8.5-6c1.238 0 3-.423 3-2 1.747 0 2-.253 2-2h1l1-1 1-1h1l1-1 1-1 1-1 4-1 1-1c1.048 0 3 .473 3-1h2l1 4.5-2 2.5-1 1-1 1-1 1h-1l-4 4ZM307 221c0 2.646 16 9.447 16 13.5 0 1.952-5.547.976-6.5.5l-16-8-4.5-4-3-2h-1l-3-4.5c-1.189-2.377 2-2.116 2-3.5h1c0 1.473 1.952 1 3 1h1l1 1 3 1 1 1h1l1 1 1 1 2 2h1Z"/><path fill="#97D6F9" id="STR" d="M292 213c1.048 0 3-.473 3 1-1.048 0-3 .473-3-1Z"/><path fill="#99D2BD" id="OLF" d="m377 215-4 4v-6h2l2 2Z"/><path fill="#97D6F9" id="STR" d="m161 214-1 1 1-1ZM296 214l1 1-1-1Z"/><path fill="#C8CBCC" id="ec" d="m362 214-1 1 1-1Z"/><path fill="#6ACAB9" id="PIR" d="M104 283c0-.193-2.06-3-.5-3l11 5 5.5-1 3-2.5c.459-.919-.765-2.5 1-2.5l1-8v-9.5c-1.131-2.261-6-8.238-6-10.5l-18-16c-2.498 0-10-5.851-10-8h-1l-1-1-1-1-1-1-1-2-7-7-4 1-11 5-4 2c0 5.543 6.667 8.834 9 13.5 4.263 8.526 17.267 27.267 23.5 33.5 2.35 2.349 7.353 13 11.5 13Z"/><path fill="#E64438" id="HY" d="M238 235c-3.233 0-4.452 4-6 4v-16.5c-.797-1.594-3 .477-3 1.5l-2 1-1-2.5c-.838-1.675-2 12.262-2 15.5-1.947 0-2.636-3-5-3 0-10.742-13.529-2-18-2 0-1.606 6.894-5.287 8-7.5 1.924-3.848 0-6.6 0-10.5h12l3 3c2.456 0 2.887 4 4.5 4l2-3 2.5-2 1-1 1-1h12c0 4.878-1.33 6.841 1 11.5l8 6.5c-5.324 0-18-8.499-18 2Z"/><path fill="#CAC7CB" id="fiber tracts" d="M224 216v2l-3-3 3 1ZM226 216h5c0-1.566-5-1.566-5 0ZM235 215l-1 1 1-1Z"/><path fill="#6ACAB9" id="PIR" d="M353 282c0-3.05-6.621 1.561-7.5 2-3.498 1.749-5.951 0-9.5 0l-3-3c0-3.876-2-6.996-2-10 0-9.22 6-18.642 6-20l19-16c1.884 0 7-4.443 7-6l2-1 1-1 1-1 1-1 1-1 1-1 1-1 1-2 1-1 4-4 5 1c0 .865 8.68 4 10 4l5 3-33 47.5-11 11.5Z"/><path fill="#C8CBCC" id="ec" d="m95 216 1 1-1-1Z"/><path fill="#97D6F9" id="STR" d="m156 216-1 1 1-1Z"/><path fill="#CAC7CB" id="fiber tracts" d="m234 216-1 1-1-1h2Z"/><path fill="#97D6F9" id="STR" d="m300 216 1 1-1-1ZM155 217l-1 1 1-1ZM302 217l1 1-1-1Z"/><path fill="#C8CBCC" id="ec" d="m361 217-1 1 1-1ZM96 218l1 1-1-1Z"/><path fill="#97D6F9" id="STR" d="m154 218-1 1 1-1Z"/><path fill="#E64438" id="HY" d="M187 232c-3.728 0-7 2.055-7 6l-2-3.5c-1.735-1.735-.078-3.156-1-5l-4-7.5 4-4c0 4.402-.19 8.655 4.5 11l5.5 3Z"/><path fill="#97D6F9" id="STR" d="m152 219-1 1 1-1Z"/><path fill="#A2B1D7" id="SI" d="M167 255h4l2-1 8-5.5-1-10.5-2-3.5c-1.735-1.735-.078-3.156-1-5l-4-7.5c0-4.843-6.173-2-8-2l-1 1-1 1-1 1-1 1c0 1.712-2.571 3-4 3l-3 3-1 1c0 4.178-12 13.737-12 17v7c4.755 0 13.808 4.846 19.5 2l6.5-2Z"/><path fill="#E64438" id="HY" d="M270 232c4.697 0 6 3.908 6 8 1.951 0 .477-2.454 1-3.5 1.884-3.769 6-10.282 6-14.5l-3-3c0 7.466-10 11.949-10 13Z"/><path fill="#A2B1D7" id="SI" d="M289 255c5.656 0 16.198 5.151 22.5 2 1.619-.809 1.471-2 3.5-2v-7l-13-18-7-6c0-1.481-2-.785-2-3h-1l-2.5-2c-2.939-1.47-4.216 2-5.5 2l-1 1c0 4.218-4.116 10.731-6 14.5-.523 1.046.951 3.5-1 3.5 0 4.827-1.287 5.925 1 10.5l6 3.5 2 1h4Z"/><path fill="#97D6F9" id="STR" d="m304 219 2 2-2-2Z"/><path fill="#C8CBCC" id="ec" d="m360 219-1 1 1-1Z"/><path fill="#99D2BD" id="OLF" d="m373 219-1 1 1-1Z"/><path fill="#97D6F9" id="STR" d="m151 220-1 1 1-1Z"/><path fill="#8599CC" id="PAL" d="m165 220-1 1 1-1Z"/><path fill="#97D6F9" id="STR" d="m149 221-2 2c1.747 0 2-.253 2-2Z"/><path fill="#8599CC" id="PAL" d="m164 221-1 1 1-1Z"/><path fill="#FE5547" id="PVpo" d="M238 275h1c0-3.047-3-4.462-3-7l-1-1-3-9.5v-35c-.797-1.594-3 .477-3 1.5 0 5.577-2 7.012-2 1l-1-2.5c-.838-1.675-2 12.262-2 15.5v21c0 .986-1.087 6-2 6l-1 1v1c0 2.547-3 5.453-3 8l7-3v-1l3-7.5.5-3.5.5 5.5 2 5.5 1 1 5 2 1 1Z"/><path fill="#E64438" id="HY" d="m284 221-1 1 1-1Z"/><path fill="#8599CC" id="PAL" d="m296 223-1 1c0-1.481-2-.785-2-3l3 2Z"/><path fill="#97D6F9" id="STR" d="M292 278c-1.048 0-3-.473-3 1h23.5l7-5c1.718-.859 8.5-4.511 8.5-7 0-3.578 2.399-18 7-18v-2l1-2 1-1 2-3 1-1 1-1c0-1.577 1.762-2 3-2v-1l-2-1c-7.675 0-12.257-.878-18.5-4-3.43-1.715-13.285-10-16.5-10 0 2.646 16 9.447 16 13.5 0 1.952-5.547.976-6.5.5l-16-8-4.5-4-1 1 7 6c6.218 0 11.541 7 18 7 3.116 0 19-1.821 19 1.5l-4.5 4.5c-4.461 4.461-9.737 10.131-16 7l-3.5-2v1c1.429 0 4 5.478 4 7 0 1.602 3.058 2.384 2 4.5l-2 4.5 4.5-1c2.06 1.03-.899 4.449-2 5-4.937 2.468-8.452 5-14.5 5 0 3.511-12.043 4-15 4Z"/><path fill="#8599CC" id="PAL" d="m163 222-1 1 1-1Z"/><path fill="#99D2BD" id="OLF" d="m371 222-1 1 1-1Z"/><path fill="#97D6F9" id="STR" d="M147 223c-1.238 0-3 .423-3 2 1.238 0 3-.423 3-2ZM161 224c0 1.712-2.571 3-4 3l4-4v1Z"/><path fill="#8599CC" id="PAL" d="m162 223-1 1v-1h1Z"/><path fill="#99D2BD" id="OLF" d="m370 223-1 1 1-1ZM87 224l1 1-1-1Z"/><path fill="#C8CBCC" id="ec" d="M112 235c.839 0 2 1.93 2 0-4.85 0-12.839-11-15-11l2 4 3 3c2.518 0 2.334 3 5 3l1 1h2Z"/><path fill="#A8A9AA" id="V3" d="m229 224-2 1c0 6.012 2 4.577 2-1Z"/><path fill="#99D2BD" id="OLF" d="m369 224-1 1 1-1Z"/><path fill="#97D6F9" id="STR" d="m165 278 2 1h-22.5c-3.594-1.797-6.328-5.164-10-7l-6.5-5c0-3.85-2.44-18-7-18v-3c0-1.6-4.129-7-6-7 0-2.293-.997-2-3-2v-2c.839 0 2 1.93 2 0 4.257 0 9.934.783 13.5-1 4.853-2.427 10.876-9 16.5-9l-8.5 6c-1.732.866-1.694 6.347 1 5 1.718-.859 2.387-1 4.5-1 0 3.575-16.076.788-18.5 2-1.077.539-5.5-.991-5.5 1.5 0 1.059 13.258 11.379 15.5 12.5 2.568 1.284 6.252-3 8.5-3v2c-1.803 0-3 3.592-3 5l-1 1v9c-12.17 0 6.148 9 12 9 0 3.549 13.01 4 16 4Z"/><path fill="#C8CBCC" id="ec" d="m356 225-1 2 1-2Z"/><path fill="#99D2BD" id="OLF" d="m368 225-1 1 1-1ZM89 226l1 1-1-1ZM367 226l-1 1 1-1ZM101 233v2c-2.498 0-10-5.851-10-8l8 4 2 2Z"/><path fill="#97D6F9" id="STR" d="M153 231c-4.52 0-7.34 4-12 4 0-2.341 2.342-1.421 3.5-2l12.5-6-3 3-1 1Z"/><path fill="#C8CBCC" id="ec" d="M353 229h2v-2l-2 2Z"/><path fill="#99D2BD" id="OLF" d="m366 227-1 1 1-1Z"/><path fill="#8AD987" id="CTXsp" d="M104 231c-1.238 0-3 .423-3 2l-2-2c2.293 0 2-.997 2-3l3 3Z"/><path fill="#99D2BD" id="OLF" d="m365 228-2 1 2-1Z"/><path fill="#FF5346" id="MPO" d="M202 271h5l2-1 1-1v-2c-4.493 0-5-9.838-5-13.5 0-9.603 3.316-18.5 14-18.5 0-10.742-13.529-2-18-2h-2c0 2.942-7 .898-7 3 0 2.772.731 8.961 2 11.5 2.441 4.882-1 14.878-1 19.5v2l4.5-1 4.5 3ZM248 270c1.819 0 4.591 1 7 1 1.495 0 4.137-3 8-3v-28.5l2-3.5c-1.131 0-8-2.049-8-3h-1c-5.324 0-18-8.499-18 2 11.265 0 13 10.042 13 19.5 0 4.028.586 12.5-5 12.5l1 3h1Z"/><path fill="#C8CBCC" id="ec" d="m352 231-4 2c0-1.811 3.438-4 5-4l-1 2Z"/><path fill="#8AD987" id="CTXsp" d="m357 231-1 2c-1.24 0-1.576-2-4-2l1-2h2l2 2Z"/><path fill="#99D2BD" id="OLF" d="M356 233v2c1.884 0 7-4.443 7-6-2.447 0-3.28 2-6 2l-1 2Z"/><path fill="#7ECDF8" id="FS" d="m154 230-1 1 1-1ZM302 230c6.218 0 11.541 7 18 7 3.116 0 19-1.821 19 1.5l-4.5 4.5c-4.461 4.461-9.737 10.131-16 7l-3.5-2-13-18Z"/><path fill="#A0ED9D" id="EPv" d="M121 249c0 1.747-.253 2-2 2l-18-16v-2c0-1.577 1.762-2 3-2 2.518 0 2.334 3 5 3l1 1h1l1 1v1c0 1.577 1.762 2 3 2l6 7v3Z"/><path fill="#7ECDF8" id="FS" d="M141 235c0 3.575-16.076.788-18.5 2-1.077.539-5.5-.991-5.5 1.5 0 1.059 13.258 11.379 15.5 12.5 2.568 1.284 6.252-3 8.5-3 0-3.263 12-12.822 12-17-4.52 0-7.34 4-12 4Z"/><path fill="#A0ED9D" id="EPv" d="M335 249c0 1.747.253 2 2 2l19-16v-2c-1.24 0-1.576-2-4-2l-4 2c0 1.577-1.762 2-3 2l-1 1v1c0 2.293-.997 2-3 2l-1 1-1 1-2 3-1 1-1 2v2Z"/><path fill="#F2473B" id="LPO" d="M191 267h2c0-4.622 3.441-14.618 1-19.5-1.269-2.539-2-8.728-2-11.5l-4-4h-1c-3.728 0-7 2.055-7 6l1 10.5-8 5.5 3 3c4.248 0 12.264 10 15 10Z"/><path fill="#E64438" id="HY" d="M199 233c0 2.942-7 .898-7 3l-4-4c2.998 0 7.358 1 11 1ZM269 232l-2 1 2-1Z"/><path fill="#F2473B" id="LPO" d="M263 267h2c3.116 0 10.625-10 16-10l2-3-6-3.5c-2.287-4.575-1-5.673-1-10.5 0-4.092-1.303-8-6-8h-1l-2 1-2 3-2 3.5V267Z"/><path fill="#E64438" id="HY" d="m267 233-2 3c-1.131 0-8-2.049-8-3h10Z"/><path fill="#C8CBCC" id="ec" d="m345 235-1 1-2-1c1.974 0 3.517-2 6-2 0 1.577-1.762 2-3 2Z"/><path fill="#8AD987" id="CTXsp" d="m109 234 1 1-1-1ZM112 235v1l-1-1h1Z"/><path fill="#FD4C3E" id="MPN" d="M215 267h6v-1l1-1c.913 0 2-5.014 2-6v-21c-1.947 0-2.636-3-5-3-10.684 0-14 8.897-14 18.5 0 3.662.507 13.5 5 13.5h5ZM242 267h4c5.586 0 5-8.472 5-12.5 0-9.458-1.735-19.5-13-19.5-3.233 0-4.452 4-6 4v18.5l3 9.5h7Z"/><path fill="#97D6F9" id="STR" d="m345 235-1 1 1-1Z"/><path fill="#80BEE2" id="IA" d="M112 237c2.003 0 3-.293 3 2-1.238 0-3-.423-3-2ZM344 237c-1.238 0-3 .423-3 2 2.003 0 3 .293 3-2Z"/><path fill="#8AD987" id="CTXsp" d="M115 239c1.871 0 6 5.4 6 7l-6-7ZM341 239l-1 1 1-1ZM340 240l-1 1 1-1ZM337 244l-1 1 1-1ZM336 245l-1 2 1-2Z"/><path fill="#99D2BD" id="OLF" d="m128 267-3 4v-9.5c-1.131-2.261-6-8.238-6-10.5 1.747 0 2-.253 2-2 4.56 0 7 14.15 7 18Z"/><path fill="#8599CC" id="PAL" d="m315 255 4 1c0-1.522-2.571-7-4-7v6Z"/><path fill="#99D2BD" id="OLF" d="m328 267 3 4c0-9.22 6-18.642 6-20-1.747 0-2-.253-2-2-4.601 0-7 14.422-7 18Z"/><path fill="#8599CC" id="PAL" d="M138 255h3v-5c-1.803 0-3 3.592-3 5Z"/><path fill="#E64438" id="HY" d="M176 257c-1.048 0-3-.473-3 1l-2-3 2-1 3 3ZM281 257l3 1 1-3-2-1-2 3Z"/><path fill="#8599CC" id="PAL" d="m138 255-1 1 1-1Z"/><path fill="#A2B1D8" id="MA" d="m172 274-7 4c-2.99 0-16-.451-16-4 5.171 0-11.073-9-12-9v-9l1-1h3c4.755 0 13.808 4.846 19.5 2l6.5-2 5 4v15Z"/><path fill="#8599CC" id="PAL" d="m173 258-1 1-5-4h4l2 3ZM284 258v2l5-5h-4l-1 3Z"/><path fill="#A2B1D8" id="MA" d="M307 274c0 3.511-12.043 4-15 4l-7-4c0-3.948-1-9.393-1-14l5-5c5.656 0 16.198 5.151 22.5 2 1.619-.809 1.471-2 3.5-2l4 1c0 1.602 3.058 2.384 2 4.5l-2 4.5-1 1c-3.316 0-11 4.892-11 8Z"/><path fill="#96A6D3" id="NDB" d="M172 274c0 4.999 13.313 5 17 5l3-9-1-3c-2.736 0-10.752-10-15-10-1.048 0-3-.473-3 1l-1 1v15ZM267 278l1 1h8.5c1.692-.846 6.899-5 8.5-5 0-3.948-1-9.393-1-14v-2l-3-1c-5.375 0-12.884 10-16 10v3c0 3.138 2 5.662 2 8Z"/><path fill="#A8A9AA" id="V3" d="M225 271h6l-2-5.5-.5-5.5-.5 3.5-3 7.5Z"/><path fill="#80C0E2" id="AAA" d="M137 265c.927 0 17.171 9 12 9-5.852 0-24.17-9-12-9ZM318 266c-3.316 0-11 4.892-11 8 6.048 0 9.563-2.532 14.5-5 1.101-.551 4.06-3.97 2-5l-4.5 1-1 1Z"/><path fill="#E64438" id="HY" d="m222 265-1 1 1-1Z"/><path fill="#8599CC" id="PAL" d="m319 265-1 1 1-1Z"/><path fill="#7FCCF7" id="OT" d="m174 288-5.5 5-10 4c-7.629 3.815-19.079-4-23.5-4 0-2.734-7.866-9-10-9l-1-5 1-8 3-4 6.5 5c3.672 1.836 6.406 5.203 10 7H167c5.825 0 8 2.175 8 8l-1 1Z"/><path fill="#E64438" id="HY" d="m193 269-1 1-1-3h2v2ZM215 267c0 1.638-3.576 2-5 2v-2h5Z"/><path fill="#FD5545" id="VMPO" d="M209 279h1l8-4c0-2.547 3-5.453 3-8h-6c0 1.638-3.576 2-5 2l-1 1-2 1c0 1.366-2.366 4-4 4v4h6Z"/><path fill="#E64438" id="HY" d="M236 267v1l-1-1h1Z"/><path fill="#FD5545" id="VMPO" d="M253 277v2c-5.651 0-11.211-4-14-4 0-3.047-3-4.462-3-7v-1h6l5 3h1l5 5v2Z"/><path fill="#E64438" id="HY" d="m246 267 1 3-5-3h4ZM263 268l2 2v-3h-2v1Z"/><path fill="#7FCCF7" id="OT" d="m325 290-1 1-5.5 4c-6.952 3.476-17.277 3.361-24 0-2.603-1.301-11.5-1.927-11.5-7 0-3.621-5.642-9 6-9h23.5l7-5c1.718-.859 8.5-4.511 8.5-7l3 4c0 3.004 2 6.124 2 10l-2 3c-2.274 0-6 3.656-6 6Z"/><path fill="#FE5546" id="VLPO" d="m202 279-4 2-9-2 3-9 1-1 4.5-1 4.5 3 1 4v3l-1 1ZM267 279c-.822 0-8 1.311-8 2l-5-2-1-2v-2l2-4c1.495 0 4.137-3 8-3l2 2c0 3.138 2 5.662 2 8v1Z"/><path fill="#E64438" id="HY" d="m210 269-1 1 1-1ZM209 270l-2 1 2-1ZM255 271l-2 4-5-5c1.819 0 4.591 1 7 1ZM207 271c0 1.366-2.366 4-4 4l-1-4h5Z"/><path fill="#CAC7CB" id="fiber tracts" d="M198 281c0 2.048-2.958 6.271.5 8 1.358.679 25.975 1.013 28 0l2-2 1 2c1.896.948 26.91.545 28 0 2.443-1.221 1.5-5.709 1.5-8l-5-2h-1c-5.651 0-11.211-4-14-4h-1l-1-1-5-2h-7l-7 3-8 4c6.837 0 11.049-5 18.5-5 6.426 0 9.797 2.398 15 5 4.23 2.115 17.351-.201 13.5 7.5-1.805 3.609-10.196.5-13 .5-11.16 0-24.982-4.259-35.5 1-1.788.894-8.712.076-9.5-1.5-3.875-7.749 10-4.459 10-7.5h-7l-4 2Z"/><path fill="#8599CC" id="PAL" d="M189 279c0 3.194-11.612 8-14 8 0-5.825-2.175-8-8-8l-2-1 7-4c0 4.999 13.313 5 17 5Z"/><path fill="#CBCACC" id="och" d="M209 279h1c6.837 0 11.049-5 18.5-5 6.426 0 9.797 2.398 15 5 4.23 2.115 17.351-.201 13.5 7.5-1.805 3.609-10.196.5-13 .5-11.16 0-24.982-4.259-35.5 1-1.788.894-8.712.076-9.5-1.5-3.875-7.749 10-4.459 10-7.5Z"/><path fill="#E64438" id="HY" d="m237 274 1 1-1-1Z"/><path fill="#8599CC" id="PAL" d="M289 279c-11.642 0-6 5.379-6 9-2.382 0-16-6.476-16-9h9.5c1.692-.846 6.899-5 8.5-5l7 4c-1.048 0-3-.473-3 1Z"/><path fill="#E64438" id="HY" d="M253 279h1l-1-2v2ZM202 279h1v-1l-1 1ZM267 279h1l-1-1v1Z"/><path fill="#99D2BD" id="OLF" d="M123 288h3l-1-4-1-5c-1.765 0-.541 1.581-1 2.5l-3 2.5c3.303 0 3 .959 3 4Z"/><path fill="#CAC8C7" id="lot" d="M120 284c3.303 0 3 .959 3 4 0 4.919-19 .039-19-5 0-.193-2.06-3-.5-3l11 5 5.5-1Z"/><path fill="#99D2BD" id="OLF" d="M330 288h3c0-2.343.285-4 3-4l-3-3-2 3-1 4Z"/><path fill="#CAC8C7" id="lot" d="M336 284c-2.715 0-3 1.657-3 4 0 5.053 20 .305 20-6 0-3.05-6.621 1.561-7.5 2-3.498 1.749-5.951 0-9.5 0Z"/><path fill="#97D6F9" id="STR" d="M126 288c4.257 0 5.517 5 9 5 0-2.734-7.866-9-10-9l1 4ZM330 288l-5 2c0-2.344 3.726-6 6-6l-1 4Z"/><path fill="#8599CC" id="PAL" d="m175 287-1 1 1-1Z"/><path fill="#97D6F9" id="STR" d="m325 290-1 1 1-1Z"/></svg>