<svg xmlns="http://www.w3.org/2000/svg" viewBox="0 0 456 320"><path fill="#1E9C59" id="MOs1" d="m131 145-4 3c-2.317 0-6-14.022-6-17 0-11.589 6.115-32.308 17.5-38 6.73-3.365 12.325-8.662 19-12 5.446-2.723 15.386-3.693 20-6 3.458-1.729 14.599-4.2 19-2l12 4 5.5 4-5 4-11.5-4c-3.412-1.706-16.054-.473-19 1-6.136 3.068-14.772 1.886-21 5-11.606 5.803-22.754 16.007-28.5 27.5-1.732 3.463-1.72 22.559 0 26l2 3.5v1ZM326 145l4 2c6.782 0 5.513-26.473 3-31.5-11.503-23.006-21.968-27.734-43.5-38.5-4.515-2.258-10.439-1.72-15-4-5.441-2.72-31.5 3.959-31.5 8 0 1.533 3.753 4 5 4l11.5-4c3.29-1.645 15.176-.412 18 1 5.334 2.667 15.108 2.054 21 5 12.648 6.324 23.243 16.987 29.5 29.5 4.496 8.991-2 20.098-2 28.5Z"/><path fill="#1E9D58" id="MOs2/3" d="M145 136c-5.65 0-8.881 8-14 8l-2-3.5c-1.72-3.441-1.732-22.537 0-26 5.746-11.493 16.894-21.697 28.5-27.5 6.228-3.114 14.864-1.932 21-5 2.946-1.473 15.588-2.706 19-1l11.5 4v1c-1.668 0-6 3.099-6 5-5.711 0-17.089-2.705-22.5 0-19.741 9.87-35.5 18.102-35.5 44v1Z"/><path fill="#2FA750" id="PL1" d="M223 118h10c0-7.688 4.681-32 15-32v-1c-1.247 0-5-2.467-5-4-4.261 0-10.529 12.559-12 15.5-.425.849-1.245 6.5-2.5 6.5-1.981 0-2.017-4.534-2.5-5.5-1.567-3.133-9.099-16.5-12-16.5l-5 4v1l10 10.5c3.231 6.462 4 13.641 4 21.5Z"/><path fill="#1E9D58" id="MOs2/3" d="M325 145h1c0-8.402 6.496-19.509 2-28.5-6.257-12.513-16.852-23.176-29.5-29.5-5.892-2.946-15.666-2.333-21-5-2.824-1.412-14.71-2.645-18-1L248 85v1c1.992 0 5 3.339 5 5h1c3.824 0 11.409-3.045 15.5-1 5.174 2.587 11.789 2.394 17 5 15.089 7.544 25.5 23.241 25.5 40v1c2.249 0 13 6.623 13 9Z"/><path fill="#2FA74F" id="PL2/3" d="m217 117 6 1c0-7.859-.769-15.038-4-21.5L209 86c-1.668 0-6 3.099-6 5v1c11.618 0 14 16.206 14 25ZM239 117l-6 1c0-7.688 4.681-32 15-32 1.992 0 5 3.339 5 5l-8 5.5c-3.473 6.947-6 12-6 20.5Z"/><path fill="#1F9D58" id="MOs5" d="M145 135c3.142 0 12-.085 12 2l5-11c0-2.108-4.182-4.137-3-6.5 6.656-13.312 18.598-17.5 34-17.5 0-.842 8.016-10 10-10v-1c-5.711 0-17.089-2.705-22.5 0-19.741 9.87-35.5 18.102-35.5 44ZM312 135c-4.669 0-9.322 2-13 2l-5-11c0-2.623 4.969-4.563 3-8.5-6.863-13.727-20.505-14.5-34-14.5 0-4.222-9-7.838-9-12 3.824 0 11.409-3.045 15.5-1 5.174 2.587 11.789 2.394 17 5 15.089 7.544 25.5 23.241 25.5 40Z"/><path fill="#2EA84F" id="PL5" d="m252 112-13 5c0-8.5 2.527-13.553 6-20.5l8-5.5h1c0 4.162 9 7.778 9 12-4.981 0-8.046 9-11 9ZM204 112l13 5c0-8.794-2.382-25-14-25-1.984 0-10 9.158-10 10 0 1.183 3.57 1.535 4.5 2l6.5 8Z"/><path fill="#258F45" id="FRP5" d="M202 117h1c3.896 0 1-1.443 1-5l-6.5-8c-.93-.465-4.5-.817-4.5-2-15.402 0-27.344 4.188-34 17.5-1.182 2.363 3 4.392 3 6.5 7.547 0 15.57-12 25-12 5.04 0 9.869 2 14 2l1 1ZM255 116l-1 1c-4.813 0-2-.423-2-5 2.954 0 6.019-9 11-9 13.495 0 27.137.773 34 14.5 1.969 3.937-3 5.877-3 8.5-5.477 0-16.003-12-25-12-5.059 0-9.715 2-14 2Z"/><path fill="#23885E" id="ORBm5" d="M210 133h1c6.797 0 6-11.2 6-16l-13-5c0 3.557 2.896 5-1 5l7 16ZM247 132l-1 1c-6.879 0-7-10.622-7-16l13-5c0 4.577-2.813 5 2 5 0 5.066-7 9.536-7 15Z"/><path fill="#228A5D" id="ORBl5" d="m157 137-3 12 3.5 2c9.612-4.806 12.704-22 25.5-22h1l3-15c-9.43 0-17.453 12-25 12l-5 11Z"/><path fill="#23885C" id="ORBvl5" d="M184 129c0 2.207 5.176.338 6.5 1 .784.392 18.682 3 19.5 3l-7-16h-1l-1-1c-4.131 0-8.96-2-14-2l-3 15ZM273 129c-7.822 0-17.671 3-26 3 0-5.464 7-9.934 7-15l1-1c4.285 0 8.941-2 14-2l4 15Z"/><path fill="#228A5D" id="ORBl5" d="M299 137c0 2.671 3 6.913 3 12 0 5.114-6.869-1.369-8-2.5-6.531-6.531-10.325-17.5-21-17.5l-4-15c8.997 0 19.523 12 25 12l5 11Z"/><path fill="#23885E" id="ORBm5" d="m201 116 1 1-1-1ZM255 116l-1 1 1-1Z"/><path fill="#24885D" id="ORBm2/3" d="M211 133c0 4.3 6 11.308 6 15 7.991 0 6-23.675 6-30l-6-1c0 4.8.797 16-6 16ZM239 148h1c0-5.14 6-10.268 6-15-6.879 0-7-10.622-7-16l-6 1c0 6.217-1.205 30 6 30Z"/><path fill="#23895D" id="ORBm1" d="M231 160c1.564 0 3.876 1 6 1 0-4.221 2-8.313 2-13-7.205 0-6-23.783-6-30h-10c0 6.325 1.991 30-6 30 0 4.383 3 8.202 3 13l5-1c0-5.702 6-6.763 6 0Z"/><path fill="#238A5E" id="ORBl2/3" d="m154 149-2 20c3.876 0 23.118-27 30-27v-1c0-3.535 1-8.911 1-12-12.796 0-15.888 17.194-25.5 22l-3.5-2Z"/><path fill="#248A5D" id="ORBvl2/3" d="M182 141c14.74 0 23.27 7 35 7 0-3.692-6-10.7-6-15h-1c-.818 0-18.716-2.608-19.5-3-1.324-.662-6.5 1.207-6.5-1h-1c0 3.089-1 8.465-1 12ZM274 141c-14.928 0-22.74 7-34 7 0-5.14 6-10.268 6-15l1-1c8.329 0 18.178-3 26-3l1 12Z"/><path fill="#238A5E" id="ORBl2/3" d="M303 149c0 7.989 2 12.837 2 20-3.197 0-4.584-5.042-6.5-6-6.807-3.404-16.5-21-24.5-21v-1l-1-12c10.675 0 14.469 10.969 21 17.5 1.131 1.131 8 7.614 8 2.5h1Z"/><path fill="#23885C" id="ORBvl5" d="m247 132-1 1 1-1Z"/><path fill="#209665" id="AId5" d="m157 137-3 12c-4.502 0-9-9.265-9-13v-1c3.142 0 12-.085 12 2ZM302 149h1c2.965 0 6.969-7.437 8-9.5.523-1.046-.951-3.5 1-3.5v-1c-4.669 0-9.322 2-13 2 0 2.671 3 6.913 3 12Z"/><path fill="#209765" id="AId2/3" d="M151 169h1l2-20c-4.502 0-9-9.265-9-13-5.65 0-8.881 8-14 8v1c0 2.856 12.182 22.341 15.5 24h4.5ZM303 149c0 7.989 2 12.837 2 20 7.374 0 20-17.51 20-24 0-2.377-10.751-9-13-9-1.951 0-.477 2.454-1 3.5-1.031 2.063-5.035 9.5-8 9.5Z"/><path fill="#248A5B" id="ORBvl1" d="m218 160 2 1c0-4.798-3-8.617-3-13-11.73 0-20.26-7-35-7v1c.624 0 1 6.655 1 9 6.972 0 13.729 1.114 19.5 4 1.114.557 5.5.41 5.5 2l5 1 1 1 4 1ZM237 161h1l1-1h1l1-1c2.885 0 4.697-2 8-2 0-2.334 4.181-1.341 5.5-2 5.771-2.886 12.528-4 19.5-4v-10c-14.928 0-22.74 7-34 7h-1c0 4.687-2 8.779-2 13Z"/><path fill="#238A5D" id="ORBl1" d="M151 176h3l24.5-25h4.5c0-2.345-.376-9-1-9-6.882 0-26.124 27-30 27h-1v7ZM302 175l3 1v-7c-3.197 0-4.584-5.042-6.5-6-6.807-3.404-16.5-21-24.5-21v9c3.253 0 20.048 14.596 21 16.5 1.133 2.267 4.27 7.5 7 7.5Z"/><path fill="#209764" id="AId1" d="M151 173c-1.114 0-4 2.034-4 3-4.685 0-20-23.206-20-28l4-3c0 2.856 12.182 22.341 15.5 24h4.5v4ZM305 173c1.429 0 4 1.288 4 3 5.362 0 21-23.765 21-29l-4-2h-1c0 6.49-12.626 24-20 24v4Z"/><path fill="#99D2BD" id="OLF" d="M156 180c0 2.681-2.592 8.316-1 11.5 1.481 2.963 2 5.891 2 9.5-8.053 0-3-21.883-3-25l24.5-25h4.5c6.972 0 13.729 1.114 19.5 4 1.114.557 5.5.41 5.5 2-1.751 0-13.985-.47-13 1.5 1.262 2.525 4 1.595 4 5.5l-6.5-3c-3.521-1.76-10.209 0-13.5 0l-4 2-4 2c-1.238 0-3 .423-3 2-1.562 0-5 2.189-5 4l-2 2c-2.556 0-4 4.016-4 6l-1 1ZM300 180c1.643 0 1 3.765 1 5 0 5.922-2 10.732-2 16l2-2.5c6.881-13.763 1-10.647 1-23.5-2.73 0-5.867-5.233-7-7.5-.952-1.904-17.747-16.5-21-16.5-6.972 0-13.729 1.114-19.5 4-1.319.659-5.5-.334-5.5 2 1.81 0 13-1.043 13 1.5 0 .947-5 2.818-5 5.5l6.5-3c3.516-1.758 10.364 0 13.5 0 7.492 0 23 11.84 23 19Z"/><path fill="#9AD1BD" id="MOB" d="m214 248-1 1c-3.924 0-8.521 1.99-12.5 0l-6.5-3-1-4c0-8.268 4-14.672 4-23l1-11c1.643 0 1-3.765 1-5 0-8.096 8.145-21.21 3-31.5-.716-1.433-.838-7.5-3-7.5 0-3.905-2.738-2.975-4-5.5-.985-1.97 11.249-1.5 13-1.5l5 1 1 1 4 1c0 1.43 5.967 6.433 7 8.5.662 1.324.353 8.5 2 8.5v47l-1 1v3l-1 1v3c-1.473 0-1 1.952-1 3l-1 1v1l-1 2-1 1v1l-1 1-1 1-1 1v1l-1 1-1 1-2 1ZM241 247l2 2c2.811 0 20 .701 20-4v-3c0-8.955-4-15.461-4-24v-6c-.981 0-2-7.758-2-9l-4-14.5c-3.65-7.301 4-19.076 4-24.5 0-2.682 5-4.553 5-5.5 0-2.543-11.19-1.5-13-1.5-3.303 0-5.115 2-8 2l-1 1h-1l-1 1h-1l-6 8v1c0 1.235.643 5-1 5v4c0 1.991.793 14-1 14v28l1 1 1 8 1 2v1l1 2v2l1 1 1 1v1l4 5 1 1 1 1Z"/><path fill="#99D2BD" id="OLF" d="m213 158 1 1-1-1ZM241 159l-1 1 1-1Z"/><path fill="#54BF94" id="AON" d="m183 236 10 6c0-8.268 4-14.672 4-23-2.126 0-1.716-5.216-3-6.5l-9-19c-.812-1.624-4.144-3.712-3-6 2.162-4.325 11 3.113 11 9.5l1 1v1l5 4c0-8.096 8.145-21.21 3-31.5-.716-1.433-.838-7.5-3-7.5l-6.5-3c-3.521-1.76-10.209 0-13.5 0 0 2.109-2.535 2-4 2 0 2.109-2.535 2-4 2 0 1.577-1.762 2-3 2 0 1.811-3.438 4-5 4 0 1.747-.253 2-2 2 0 1.417-2.383 6-4 6v1c0 18.063 8.195 26.891 16 42.5 2.439 4.878 10 7.652 10 13.5Z"/><path fill="#99D2BD" id="OLF" d="m225 160-5 1-2-1c0 1.43 5.967 6.433 7 8.5.662 1.324.353 8.5 2 8.5 0-6.049-2-10.631-2-17ZM237 161l-6 8v-9c1.564 0 3.876 1 6 1ZM239 160l-1 1 1-1Z"/><path fill="#54BF94" id="AON" d="M273 235c0 2.171-8.21 7-10 7 0-8.955-4-15.461-4-24 1.911 0 10.281-20.061 12-23.5.982-1.963 4.411-4.178 3-7-.889-1.779-4.625.063-5.5.5-4.393 2.197-5.5 5.141-5.5 10l-1 1-1 2-4 2-4-14.5c-3.65-7.301 4-19.076 4-24.5l6.5-3c3.516-1.758 10.364 0 13.5 0 0 1.579 11.654 7.077 13.5 8l9.5 11c0 15.848-8.493 26.486-15 39.5L273 235Z"/><path fill="#CACAC9" id="lotd" d="m179 161-4 2c1.465 0 4 .109 4-2ZM277 161c7.492 0 23 11.84 23 19l-9.5-11c-1.846-.923-13.5-6.421-13.5-8ZM175 163l-4 2c1.465 0 4 .109 4-2ZM171 165c-1.238 0-3 .423-3 2 1.238 0 3-.423 3-2ZM168 167c-1.562 0-5 2.189-5 4 1.562 0 5-2.189 5-4Z"/><path fill="#99D2BD" id="OLF" d="M231 170c-1.643 0-1 3.765-1 5 1.643 0 1-3.765 1-5Z"/><path fill="#CACAC9" id="lotd" d="m163 171-2 2c1.747 0 2-.253 2-2Z"/><path fill="#209864" id="AIv1" d="M147 176c0 2.091 2.863 0 4 0v-3c-1.114 0-4 2.034-4 3Z"/><path fill="#CACAC9" id="lotd" d="M161 173c-2.556 0-4 4.016-4 6 1.617 0 4-4.583 4-6Z"/><path fill="#209864" id="AIv1" d="M305 176c1.137 0 4 2.091 4 0 0-1.712-2.571-3-4-3v3Z"/><path fill="#CACAC9" id="lotd" d="M156 180h1v-1l-1 1Z"/><path fill="#99D2BD" id="OLF" d="M230 179c-1.793 0-1 12.009-1 14 1.793 0 1-12.009 1-14Z"/><path fill="#CAC8C7" id="lot" d="m183 236-2 1c-7.045 0-23-27.704-23-34l-1-1v-1c0-3.609-.519-6.537-2-9.5-1.592-3.184 1-8.819 1-11.5h1c0 18.063 8.195 26.891 16 42.5 2.439 4.878 10 7.652 10 13.5ZM273 235l2 2c7.547 0 23-26.621 23-33l1-1v-2c0-5.268 2-10.078 2-16 0-1.235.643-5-1-5 0 15.848-8.493 26.486-15 39.5L273 235Z"/><path fill="#CBCBC7" id="aco" d="m198 208-1 11c-2.126 0-1.716-5.216-3-6.5l-9-19c-.812-1.624-4.144-3.712-3-6 2.162-4.325 11 3.113 11 9.5l1 1v1c0 1.227 3.226 9 4 9ZM259 212v6c1.911 0 10.281-20.061 12-23.5.982-1.963 4.411-4.178 3-7-.889-1.779-4.625.063-5.5.5-4.393 2.197-5.5 5.141-5.5 10l-1 1-1 2c0 3.911-2 6.607-2 11Z"/><path fill="#99D2BD" id="OLF" d="m193 197 1 1-1-1ZM263 198l-1 1 1-1ZM199 203c0 1.235.643 5-1 5-.774 0-4-7.773-4-9l5 4ZM262 199l-1 2 1-2ZM257 203c0 1.242 1.019 9 2 9 0-4.393 2-7.089 2-11l-4 2ZM157 202l1 1-1-1ZM299 203l-1 1 1-1ZM229 221l1 1-1-1ZM227 224l-1 1 1-1Z"/><path fill="#C7CBCA" id="onl" d="m226 228-1 1 1-1ZM231 230l1 2-1-2ZM225 232c-1.473 0-1 1.952-1 3 1.473 0 1-1.952 1-3ZM232 233l1 2-1-2ZM224 235l-1 1 1-1Z"/><path fill="#99D2BD" id="OLF" d="M263 242v3c2.47 0 12-5.373 12-8l-2-2c0 2.171-8.21 7-10 7ZM193 242l1 4c-2.217 0-13-6.874-13-9l2-1 10 6Z"/><path fill="#C7CBCA" id="onl" d="m223 237-1 2 1-2Z"/><path fill="#99D2BD" id="OLF" d="m233 237 1 1-1-1Z"/><path fill="#C7CBCA" id="onl" d="m234 238 1 1-1-1ZM222 239l-1 1 1-1ZM236 242l3 3-4-5v1l1 1Z"/><path fill="#99D2BD" id="OLF" d="m221 241-1 1 1-1ZM235 241l1 1-1-1Z"/><path fill="#C7CBCA" id="onl" d="m220 242-1 1 1-1ZM218 244h1v-1l-1 1Z"/><path fill="#99D2BD" id="OLF" d="m219 244-1 1v-1h1ZM218 245l-1 1 1-1ZM240 246v1l-1-2 1 1ZM217 246l-1 1 1-1Z"/><path fill="#C7CBCA" id="onl" d="M240 247h1l-1-1v1Z"/><path fill="#99D2BD" id="OLF" d="m241 247 2 2-2-2ZM214 248l-1 1 1-1Z"/></svg>