<svg xmlns="http://www.w3.org/2000/svg" viewBox="0 0 456 320"><path fill="#268F45" id="FRP1" d="m162 116 35.5-1c2.442 1.221 5.64.82 8 2l7 5c2.939 1.47 4.216-2 5.5-2l1-9.5-2-4.5-2-2-2-3-2-1c0-3.779-13.832-4-17-4-11.933 0-32 4.926-32 20ZM294 116l-35.5-1c-2.281 1.14-17.492 7.754-19 7l-1.5-3c0-4.107 1-8.469 1-12l1-1v-1l1-1 1-1 1-1 1-1 1-1 1-1 8.5-3h7c12.712 0 32.5 4.359 32.5 20Z"/><path fill="#2FA750" id="PL1" d="m246 99-1 1 1-1ZM211 100l2 1-2-1ZM245 100l-1 1 1-1ZM243 102l-1 1 1-1ZM242 103l-1 1 1-1ZM215 104l2 2-2-2ZM241 104l-1 1 1-1ZM240 106l-1 1 1-1Z"/><path fill="#99D2BD" id="OLF" d="m217 129-8.5-7c-4.532-2.266-26.151-4.424-31-2-5.28 2.64-10.731 4.365-16 7l-8.5 10c0-7.174 7.985-11.47 11-17.5l-2-3.5 35.5-1c2.442 1.221 5.64.82 8 2l7 5c2.939 1.47 4.216-2 5.5-2l2 8-3 1ZM239 130l6.5-7c5.48-2.74 26.927-6.036 33-3 6.31 3.155 13.095 4.095 18.5 9.5 1.714 1.714 7.076 11.5 8 11.5l-6-14.5-7-7 2-3.5-35.5-1c-2.281 1.14-17.492 7.754-19 7l-1.5-3-1 9c1.747 0 2 .253 2 2Z"/><path fill="#9AD1BD" id="MOB" fill-rule="evenodd" d="M188 195c0 1.564-1 3.876-1 6 0 2.378-.029 3.559-1 5.5-1.735 3.471 2.101 4.899 4.5 2.5 1.92-1.92 1.173-14-2.5-14m-14-26c0 8.721.947 16.393 5 24.5.565 1.13 1.372 10.064 4.5 8.5 5.335-2.668-1.957-33-9.5-33m-12-3c0 6.199 6.553 38.607 9 43.5.854 1.707 7.403 19.194 11 12 1.097-2.193-4.012-9.025-5-11-5.109-10.218-5.841-22.682-11-33-1.095-2.19-.162-11.5-4-11.5m5 49c0 10.746 17.078 34 29 34 16.985 0 19.134-14.767 25-26.5v-5c3.103-6.206 6.273-41.453 3-48l-1-14c-1.501-3.002-6-23.33-6-26.5l-8.5-7c-4.532-2.266-26.151-4.424-31-2-5.28 2.64-10.731 4.365-16 7l-8.5 10v1l-1 2-1 1v3l-1 2v1c0 1.048.473 3-1 3v9c1.643 0 1 3.765 1 5v3l1 2v3c1.353 0 2 4.643 2 6v1c1.758 0 2.301 7.103 3 8.5 2.907 5.815 10 19.208 10 25.5v1l1 1m9-50c0 1.434 7.208 11.646 8.5 11 2.208-1.104-.5-7.707-.5-9 8.088 0 10-6.888 10-14 1.931 0 4.938-6 0-6 0-3.054.773-14-4-14 0-10.239-15-13.786-15-1-4.758 0-6 4.814-6 9-2.565 0-5-.236-5 3-5.545 0 1 10.74 1 5h1c0 3.923 4.42 16 10 16ZM267 195l-2 5.5v5c0 2.117 2.783 8.434 5 4 1.217-2.433-1.128-14.5-3-14.5m13-26c0 .902-6.169 9.838-7 11.5-.675 1.35-2 11.251-2 13 0 2.496-1.058 8.5 2.5 8.5 2.574 0 2.887-5.274 3.5-6.5 1.855-3.711 10.448-26.5 3-26.5m13-3c0 2.408-11.59 40.68-13 43.5-.794 1.588-7.823 11.838-4.5 13.5 3.926 1.963 7.524-8.548 8.5-10.5 5.305-10.611 3.709-24.417 9-35 .916-1.832 3.034-11.5 0-11.5m-3 48c0 11.25-17.603 35-30 35-12.955 0-18.001-10.503-23-20.5l-1-7c-6.209-12.417-4-32.207-4-47l1-17c1.931-3.862 6-23.131 6-27.5l6.5-7c5.48-2.74 26.927-6.036 33-3 6.31 3.155 13.095 4.095 18.5 9.5 1.714 1.714 7.076 11.5 8 11.5v2l1 1v2l1 2v17l-1 2v2l-1 2v3c-1.473 0-1 1.952-1 3-1.473 0-1 1.952-1 3-1.353 0-2 4.643-2 6v1c-1.638 0-2 3.576-2 5-1.638 0-2 3.576-2 5-2.184 0-6 11.746-6 14v1l-1 2m-10-49c0 2.443-7.378 12.744-9 9.5-1.465-2.931 2-5.297 2-7.5-8.962 0-10-6.435-10-13 0-1.564-7.165-7 0-7 0-1.804-2.182-5.136-1-7.5.654-1.308 4-5.314 4-6.5 0-7.396 11.908-13.684 16-5.5l-1 4.5c6.103 0 6 5.257 6 10 1.777 0 5-2.985 5 1 5.836 0 0 11.531 0 6h-1c0 4.095-5.657 16-11 16Z"/><path fill="#9DF0D1" id="AOBgl" d="m175 132 6.5 3 8.5-2c0-10.239-15-13.786-15-1ZM281 132l-6.5 3-8.5-2c0-7.396 11.908-13.684 16-5.5l-1 4.5Z"/><path fill="#C7CBCA" id="onl" d="M227 210c0 9.382 1.211 41.078-2 47.5-3.16 6.32-18.663-3.082-21.5-4.5-1.475-.737-7.5-1.705-7.5-4 16.985 0 19.134-14.767 25-26.5v-5c3.103-6.206 6.273-41.453 3-48l-1-14c-1.501-3.002-6-23.33-6-26.5l3-1 5 21c-1.399 0-1.399 2 0 2l2 4.5V174c0 1.235-.643 5 1 5v23c-1.735 0-1 6.51-1 8Z"/><path fill="#C7CBCA" id="onl" fill-rule="evenodd" d="M233 145c0 3.746 2.091 0 0 0m-1 4c-2.064 0-.426 3.353-1 4.5-2.902 5.804-2 13.528-2 20.5 0 18.677 1 37.952 1 56 0 6.291-1.422 21.655 1 26.5 4.456 8.911 29-6.78 29-7.5-12.955 0-18.001-10.503-23-20.5l-1-7c-6.209-12.417-4-32.207-4-47l1-17c1.931-3.862 6-23.131 6-27.5 0-1.747-.253-2-2-2-2.698 0-2 4.255-2 6 0 5.154-3 9.23-3 15Z"/><path fill="#9DEFD2" id="AOBmi" d="m194 147-1 1c0 12.471-24 4.372-24-7 0-4.186 1.242-9 6-9l6.5 3 8.5-2c4.773 0 4 10.946 4 14ZM287 142c0 11.112-24 18.464-24 5 0-1.804-2.182-5.136-1-7.5.654-1.308 4-5.314 4-6.5l8.5 2 6.5-3c6.103 0 6 5.257 6 10Z"/><path fill="#99D2BD" id="OLF" d="m153 138-1 2 1-2ZM152 140l-1 1 1-1Z"/><path fill="#CACAC9" id="lotd" d="M166 149c4.455 0 8.772 6.636 13.5 9 5.83 2.915 12.377-5 14.5-5 1.931 0 4.938-6 0-6l-1 1c0 12.471-24 4.372-24-7-2.565 0-5-.236-5 3l1 5h1ZM291 149h1v-6c0-3.985-3.223-1-5-1 0 11.112-24 18.464-24 5-7.165 0 0 5.436 0 7 3.96 0 8.187 6.656 13.5 4 4.02-2.01 9.944-9 14.5-9Z"/><path fill="#CAC8C7" id="lot" d="M292 143c5.836 0 0 11.531 0 6v-6Z"/><path fill="#99D2BD" id="OLF" d="m305 143 1 1-1-1ZM151 144l-1 2 1-2Z"/><path fill="#CAC8C7" id="lot" d="M164 144c-5.545 0 1 10.74 1 5l-1-5Z"/><path fill="#CAC8C9" id="von" d="M233 145c0 3.746 2.091 0 0 0Z"/><path fill="#99D2BD" id="OLF" d="m306 146 1 2-1-2ZM150 147c-1.473 0-1 1.952-1 3 1.473 0 1-1.952 1-3Z"/><path fill="#9AD1BD" id="MOB" d="m194 147-1 1 1-1Z"/><path fill="#95E4C8" id="AOBgr" d="M176 165c2.338 0 4.862 2 8 2 8.088 0 10-6.888 10-14-2.123 0-8.67 7.915-14.5 5-4.728-2.364-9.045-9-13.5-9 0 3.923 4.42 16 10 16Z"/><path fill="#CAC8C9" id="von" d="M225 149c-1.399 0-1.399 2 0 2v-2Z"/><path fill="#95E4C8" id="AOBgr" d="M280 165c-2.16 0-4.167 2-7 2-8.962 0-10-6.435-10-13 3.96 0 8.187 6.656 13.5 4 4.02-2.01 9.944-9 14.5-9 0 4.095-5.657 16-11 16Z"/><path fill="#99D2BD" id="OLF" d="M149 159c1.643 0 1 3.765 1 5-1.643 0-1-3.765-1-5Z"/><path fill="#CBCBC7" id="aco" d="M176 165c2.338 0 4.862 2 8 2 0 1.293 2.708 7.896.5 9-1.292.646-8.5-9.566-8.5-11ZM280 165c-2.16 0-4.167 2-7 2 0 2.203-3.465 4.569-2 7.5 1.622 3.244 9-7.057 9-9.5Z"/><path fill="#99D2BD" id="OLF" d="m307 165-1 2 1-2Z"/><path fill="#CAC8C7" id="lot" d="M162 166c0 6.199 6.553 38.607 9 43.5.854 1.707 7.403 19.194 11 12 1.097-2.193-4.012-9.025-5-11-5.109-10.218-5.841-22.682-11-33-1.095-2.19-.162-11.5-4-11.5ZM293 166c0 2.408-11.59 40.68-13 43.5-.794 1.588-7.823 11.838-4.5 13.5 3.926 1.963 7.524-8.548 8.5-10.5 5.305-10.611 3.709-24.417 9-35 .916-1.832 3.034-11.5 0-11.5Z"/><path fill="#99D2BD" id="OLF" d="m150 167 1 2-1-2Z"/><path fill="#54BF94" id="AON" d="M174 169c0 8.721.947 16.393 5 24.5.565 1.13 1.372 10.064 4.5 8.5 5.335-2.668-1.957-33-9.5-33ZM280 169c0 .902-6.169 9.838-7 11.5-.675 1.35-2 11.251-2 13 0 2.496-1.058 8.5 2.5 8.5 2.574 0 2.887-5.274 3.5-6.5 1.855-3.711 10.448-26.5 3-26.5Z"/><path fill="#99D2BD" id="OLF" d="m306 169-1 2 1-2ZM151 172c1.353 0 2 4.643 2 6-1.353 0-2-4.643-2-6ZM227 174c1.643 0 1 3.765 1 5-1.643 0-1-3.765-1-5ZM305 174c-1.473 0-1 1.952-1 3 1.473 0 1-1.952 1-3ZM304 177c-1.473 0-1 1.952-1 3 1.473 0 1-1.952 1-3ZM153 179c1.758 0 2.301 7.103 3 8.5 2.907 5.815 10 19.208 10 25.5l-4-7.5c-3.539-7.079-9-18.304-9-26.5ZM303 180c-1.353 0-2 4.643-2 6 1.995 0 2-4.377 2-6ZM301 187c-1.638 0-2 3.576-2 5 1.638 0 2-3.576 2-5ZM299 192c-1.638 0-2 3.576-2 5 1.638 0 2-3.576 2-5Z"/><path fill="#CBCBC7" id="aco" d="M188 195c0 1.564-1 3.876-1 6 0 2.378-.029 3.559-1 5.5-1.735 3.471 2.101 4.899 4.5 2.5 1.92-1.92 1.173-14-2.5-14ZM267 195l-2 5.5v5c0 2.117 2.783 8.434 5 4 1.217-2.433-1.128-14.5-3-14.5Z"/><path fill="#99D2BD" id="OLF" d="M297 197c-2.184 0-6 11.746-6 14 3.241 0 6-11.328 6-14ZM228 202c-1.735 0-1 6.51-1 8 1.735 0 1-6.51 1-8ZM291 212l-1 2 1-2ZM166 214l1 1-1-1Z"/></svg>