<svg xmlns="http://www.w3.org/2000/svg" viewBox="0 0 456 320"><path fill="#1E9C59" id="MOs1" d="m226 55-4 3c0-2.976-3.734-4.968-5-7.5-6.692-13.384-26.195-5.5-37-5.5h-1c0-1.564 1-3.876 1-6 13.976 0 32.809-6.883 41 9.5 1.304 2.608 5 3.297 5 6.5ZM230 55c0 2.393 3.234 3 5 3 0-3.541 2.52-6.02 5-8.5 11.295-11.295 23.675-4.5 37-4.5v-6c-13.054 0-32.952-6.596-40 7.5-.908 1.816-7 5.648-7 8.5Z"/><path fill="#1E9D5A" id="MOp1" d="M127 58v6l10.5-5c8.757-4.379 19.176-5.588 28-10 2.001-1 13.5-1.391 13.5-4 0-1.564 1-3.876 1-6-6.225 0-34.169 10.834-40.5 14-1.775.888-12.5 3.093-12.5 5ZM329 58c0 2.813 1 3.921 1 6-3.878 0-8.174-3.337-11.5-5L277 45v-6c4.935 0 34.044 11.272 39.5 14 1.849.925 12.5 2.758 12.5 5Z"/><path fill="#1E9D58" id="MOs2/3" fill-rule="evenodd" d="M196 51c0 1.93 1.93 0 0 0m-17 10c1.28 0 12.504-6.002 14.5-7 3.11-1.555 14.386-.307 17 1l5.5 6 6-3c0-2.976-3.734-4.968-5-7.5-6.692-13.384-26.195-5.5-37-5.5 0 4.992-1 9.81-1 16Z"/><path fill="#1E9D58" id="MOs2/3" d="m278 61-5.5-3c-8.908-4.454-18.817-5.592-28-1-1.477.739-3.5 2.763-3.5 5l-6-3v-1c0-3.541 2.52-6.02 5-8.5 11.295-11.295 23.675-4.5 37-4.5 0 5.605 1 10.86 1 16Z"/><path fill="#1F9C58" id="MOp2/3" d="M126 80v7c3.451 0 7.468-4.484 10.5-6 10.376-5.188 21.669-8.835 32-14 2.874-1.437 6.13-5 9.5-5l1-1c0-6.19 1-11.008 1-16h-1c0 2.609-11.499 3-13.5 4-8.824 4.412-19.243 5.621-28 10L127 64l-1 1v15ZM330 87h1c0-1.385-1.484-7 0-7V65l-1-1c-3.878 0-8.174-3.337-11.5-5L277 45c0 5.605 1 10.86 1 16l1 1c3.288 0 5.71 3.605 8.5 5 9.207 4.604 19.753 7.376 29 12l13.5 8ZM196 51c0 1.93 1.93 0 0 0Z"/><path fill="#1F9D58" id="MOs5" d="M201 74c-2.86 0-6.874-3.813-10.5-2L176 80l2-18 1-1c1.28 0 12.504-6.002 14.5-7 3.11-1.555 14.386-.307 17 1l5.5 6v1c-4.47 0-11.563 12-15 12ZM255 74c3.027 0 6.821-3.84 10.5-2 4.061 2.03 10.961 8 15.5 8l-2-5.5c-.426-.852 0-9.88 0-12.5l-1-1-5.5-3c-8.908-4.454-18.817-5.592-28-1-1.477.739-3.5 2.763-3.5 5 3.997 0 11.481 12 14 12Z"/><path fill="#3EA665" id="ACAd1" d="M222 86h12V65.5c0-1.363-.7-6.5 1-6.5v-1c-1.766 0-5-.607-5-3l-1.5 3-2.5-3-4 3v28Z"/><path fill="#197E64" id="SSp-ul1" d="m102 71 3 4 21-10 1-1v-6c-7.13 0-21.674 13-25 13Z"/><path fill="#40A565" id="ACAd2/3" d="m222 86-5 1c0-8.274-1-17.385-1-25v-1l6-3v28Z"/><path fill="#197E64" id="SSp-ul1" d="m354 71-3 4-20-10-1-1c0-2.079-1-3.187-1-6 3.322 0 25 10.954 25 13Z"/><path fill="#40A565" id="ACAd2/3" d="m234 86 5 1V66.5l2-4.5-6-3c-1.7 0-1 5.137-1 6.5V86Z"/><path fill="#1E9C5A" id="MOp5" d="M125 89v14l10.5-6 32-12c2.54-1.27 5.589-5 8.5-5l2-18c-3.37 0-6.626 3.563-9.5 5-10.331 5.165-21.624 8.812-32 14-3.032 1.516-7.049 6-10.5 6v1l-1 1Z"/><path fill="#3EA566" id="ACAd5" d="M217 87c-4.174 0-10.572 7-13 7l-1-15.5-2-3.5v-1c3.437 0 10.53-12 15-12 0 7.615 1 16.726 1 25ZM239 87c5.232 0 9.366 7 14 7 0-6.636 2-13.371 2-19v-1c-2.519 0-10.003-12-14-12l-2 4.5V87Z"/><path fill="#1E9C5A" id="MOp5" d="M330 87c0 4.469 1 11.013 1 15l-50-21v-1l-2-5.5c-.426-.852 0-9.88 0-12.5 3.288 0 5.71 3.605 8.5 5 9.207 4.604 19.753 7.376 29 12l13.5 8Z"/><path fill="#1E9D5A" id="MOp1" d="m127 64-1 1 1-1Z"/><path fill="#197F61" id="SSp-ul2/3" d="M111 87h2c0-2.234 10.971-7 13-7V65l-21 10v1c0 2.66 6 6.543 6 11ZM343 87h2c0-4.491 6-7.218 6-11v-1l-20-10v15c0 2.586 12 2.817 12 7Z"/><path fill="#187E61" id="SSp-m1" d="m58 140 5 1c0-14.314 16.814-49.157 30.5-56 3.984-1.992 6.933-9 11.5-9v-1l-3-4c-2.766 0-14.37 10.87-17 13.5-11.648 11.648-27 39.489-27 55.5ZM398 140l-5 1c0-18.385-12.477-38.977-25.5-52-3.477-3.477-11.789-13-16.5-13v-1l3-4c5.149 0 9.878 8.19 13.5 10 13.285 6.642 30.5 43.152 30.5 59Z"/><path fill="#1D9C5A" id="MOs6a" d="M175 101h2c0-1.812 10.142-4 12-4 0-6.115 12-20.33 12-22v-1c-2.86 0-6.874-3.813-10.5-2L176 80c0 6.445-1 13.948-1 21ZM267 97c5.214 0 9.201 4 14 4V80c-4.539 0-11.439-5.97-15.5-8-3.679-1.84-7.473 2-10.5 2v1c3.294 0 12 18.567 12 22Z"/><path fill="#3FA664" id="ACAd6a" d="M194 103h1c0-1.167 7.086-9 9-9l-1-15.5-2-3.5c0 1.67-12 15.885-12 22v1c2.362 0 5 2.638 5 5ZM262 102h1c0-2.226 1.774-4 4-4v-1c0-3.433-8.706-22-12-22 0 5.629-2 12.364-2 19v1l9 7Z"/><path fill="#1A7E64" id="SSp-m2/3" d="m63 142 10 3c0-14.866 9.82-26.138 16-38.5l8-10c1.294-2.588 14-9.152 14-9.5 0-4.457-6-8.34-6-11-4.567 0-7.516 7.008-11.5 9C79.814 91.843 63 126.686 63 141v1ZM393 142l-9 3c0-13.579-10.278-26.055-16-37.5l-6-7c-1.757-3.515-13.446-13.5-17-13.5 0-4.491 6-7.218 6-11 4.711 0 13.023 9.523 16.5 13 13.023 13.023 25.5 33.615 25.5 52v1Z"/><path fill="#1A7F63" id="SSp-ul4" d="m125 89-8 4c-1.617 0-4-4.583-4-6 0-2.234 10.971-7 13-7v8l-1 1Z"/><path fill="#1F9B5A" id="MOp6a" d="M127 125h1c2.46 0 4.17-4 7-4 0-2.395 12.71-8 15-8 0-2.109 2.535-2 4-2 0-1.845 3.381-1.441 4.5-2 4.142-2.071 8.583-6 13.5-6l3-2c0-7.052 1-14.555 1-21-2.911 0-5.96 3.73-8.5 5l-32 12-10.5 6v1c0 7.008 2 13.291 2 21Z"/><path fill="#1A7F63" id="SSp-ul4" d="m343 87-3 6c-1.654 0-9-4.228-9-6 0-1.385-1.484-7 0-7 0 2.586 12 2.817 12 7Z"/><path fill="#1F9B5A" id="MOp6a" d="M331 105c0 8.169-2 12.527-2 20-4.249 0-8.785-6.143-12.5-8-5.426-2.713-31.178-16-35.5-16V81l50 21 1 1v1l-1 1Z"/><path fill="#40A664" id="ACAv1" d="M227 115c-2.618 0-3.093 4-5 4V86h12v33l-5-5c0-3.219-2-1.082-2 1Z"/><path fill="#3FA566" id="ACAv2/3" d="m221 123-3 1-1-37 5-1v33l-1 4ZM236 123l2 1c0-11.611 1-24.728 1-37l-5-1v33l2 4Z"/><path fill="#1B7F62" id="SSp-m4" d="m73 145 7 2c0-9.113 14.25-37.875 22.5-42 4.97-2.485 8.659-11 14.5-11v-1c-1.617 0-4-4.583-4-6h-2c0 .348-12.706 6.912-14 9.5l-8 10c-6.18 12.362-16 23.634-16 38.5Z"/><path fill="#3EA666" id="ACAv5" d="M209 120c0 2.645 6.992 4 9 4l-1-37c-4.174 0-10.572 7-13 7l1 15.5 4 10.5ZM247 121c-2.626 0-5.457 3-9 3 0-11.611 1-24.728 1-37 5.232 0 9.366 7 14 7v1c0 8.65-5 16.938-5 25l-1 1Z"/><path fill="#187E62" id="SSp-ul5" d="M332 103h1l7-9v-1c-1.654 0-9-4.228-9-6h-1c0 4.469 1 11.013 1 15l1 1Z"/><path fill="#1B7F62" id="SSp-m4" d="m384 145-7 2c0-9.751-17.566-40.033-25.5-44-3.072-1.536-6.995-9-11.5-9v-1l3-6h2c3.554 0 15.243 9.985 17 13.5l6 7c5.722 11.445 16 23.921 16 37.5Z"/><path fill="#187E62" id="SSp-ul5" d="m126 88-1 1 1-1ZM124 103h1V89l-8 4v1l7 9Z"/><path fill="#1B7E63" id="SSp-m5" d="M87 166h4v-1c0-15.046 1.824-27.148 8-39.5 1.372-2.744 4.991-4.981 6-7 2.688-5.376 13.127-14.5 19-14.5v-1l-7-9c-5.841 0-9.53 8.515-14.5 11-8.25 4.125-22.5 32.887-22.5 42 6.448 0 7 7.741 7 11.5 0 1.839-1.096 7.5 0 7.5Z"/><path fill="#40A564" id="ACAv6a" d="m206 119 3 1-4-10.5-1-15.5c-1.914 0-9 7.833-9 9 0 6.398 10 8.774 10 14l1 2Z"/><path fill="#1B7E63" id="SSp-m5" d="M366 166h3c2.751 0-.387-3.726 0-4.5 2.059-4.118-1.033-14.5 8-14.5 0-9.751-17.566-40.033-25.5-44-3.072-1.536-6.995-9-11.5-9l-7 9v1c3.807 0 12.432 7.932 15.5 11 13.793 13.793 17.5 31.504 17.5 51Z"/><path fill="#40A564" id="ACAv6a" d="m251 119-3 1c0-8.062 5-16.35 5-25l9 7v1l-3 6c-2.073 0-7 6.148-7 8l-1 2Z"/><path fill="#1E9C58" id="MOs6b" d="M189 99c-4.646 0-7.501 2-12 2 0-1.812 10.142-4 12-4v2ZM281 101v1c-4.605 0-7.99-3-13-3l-1-1v-1c5.214 0 9.201 4 14 4Z"/><path fill="#3FA466" id="ACAd6b" d="M189 99c2.732 0 2.259 4 5 4 0-2.362-2.638-5-5-5v1ZM268 99c-2.364 0-3.053 3-5 3 0-2.226 1.774-4 4-4l1 1Z"/><path fill="#CACCC7" id="cing" d="m205 117 1 2c-12.879 0-11.872-21.814-27.5-14-1.319.659-5.5-.334-5.5 2h-2l-1 1h-1l-1 1h-5c0-3.801 9-2.603 9-6h3l2-2c4.499 0 7.354-2 12-2 2.732 0 2.259 4 5 4 0 4.087 7.33 14 11 14ZM252 117l-1 2c8.695 0 11.043-12.271 18.5-16 2.591-1.295 13.5 1.998 13.5 4h3l2 2h6c0-4.24-13-4.078-13-7-4.605 0-7.99-3-13-3-2.364 0-3.053 3-5 3v1c0 1.417-2.383 6-4 6 0 1.852-4.927 8-7 8Z"/><path fill="#1D9D5A" id="MOp6b" d="M172 103h3v-2l-3 2Z"/><path fill="#1E9C58" id="MOs6b" d="m177 101-2 2v-2h2Z"/><path fill="#1D9D5A" id="MOp6b" d="M329 126v1c-3.348 0-24.417-17-32-17l-2-1h-1c0-4.24-13-4.078-13-7v-1c4.322 0 30.074 13.287 35.5 16 3.715 1.857 8.251 8 12.5 8v1Z"/><path fill="#3FA466" id="ACAd6b" d="M262 103h1v-1h-1v1Z"/><path fill="#197D61" id="SSp-ul6a" d="M124 104h1v-1h-1v1Z"/><path fill="#1D9D5A" id="MOp6b" d="m160 110-6 1c0-1.845 3.381-1.441 4.5-2 4.142-2.071 8.583-6 13.5-6 0 3.397-9 2.199-9 6h-1l-2 1Z"/><path fill="#C9C7C9" id="ccb" d="m236 123 2 1c3.543 0 6.374-3 9-3l1-1 3-1c8.695 0 11.043-12.271 18.5-16 2.591-1.295 13.5 1.998 13.5 4 0 2.207-5.176.338-6.5 1-3.576 1.788-7.362 3.181-11 5l-11 10c-10.757 5.378-31.014 10.993-43 5-12.669-6.335-23.286-21-38.5-21 0-2.334 4.181-1.341 5.5-2 15.628-7.814 14.621 14 27.5 14l3 1c0 2.645 6.992 4 9 4l3-1c0 5.147 6.803 0 7.5 0l1 2c2.856 1.428 4.553-2 6.5-2Z"/><path fill="#40A465" id="ACAv6b" d="M195 103c0 6.398 10 8.774 10 14-3.67 0-11-9.913-11-14h1ZM263 103c0 1.417-2.383 6-4 6l3-6h1Z"/><path fill="#197D61" id="SSp-ul6a" d="M332 104h1v-1h-1v1Z"/><path fill="#187D61" id="SSp-m6a" d="M106 164c-4.821 0-10.97 1-15 1 0-15.046 1.824-27.148 8-39.5 1.372-2.744 4.991-4.981 6-7 2.688-5.376 13.127-14.5 19-14.5h1c0 7.008 2 13.291 2 21v2c-7.741 0-21 29.134-21 36v1Z"/><path fill="#197D61" id="SSp-ul6a" d="m332 104-1 1 1-1Z"/><path fill="#187D61" id="SSp-m6a" d="m351 164 15 2c0-19.496-3.707-37.207-17.5-51-3.068-3.068-11.693-11-15.5-11h-1l-1 1c0 8.169-2 12.527-2 20v1l8 8.5c4.633 9.267 14 17.25 14 28.5v1Z"/><path fill="#C9C9CA" id="scwm" d="m171 107-1 1 1-1Z"/><path fill="#CCC7C9" id="ccg" d="M346 169h3v-2c-.906 0-4-13.392-4-15v-1c-2.13 0-3.272-6.044-4-7.5L320.5 123l-24-11c-1.265-.632-6.5-1.278-6.5-3h-2l-2-2h-3c0 2.207-5.176.338-6.5 1-3.576 1.788-7.362 3.181-11 5l-11 10c-10.757 5.378-31.014 10.993-43 5-12.669-6.335-23.286-21-38.5-21h-2l-1 1h-1l-1 1h-1c0 1.722-5.235 2.368-6.5 3-6.791 3.395-14.215 5.607-21 9-5.908 2.954-11.591 8.591-16.5 13.5l-6 6.5c0 1.238-.423 3-2 3l-1 2-1 2c0 1.424-.362 5-2 5 0 1.357-.647 6-2 6 0 1.321.684 6-1 6v4h2c0-18.688 13.949-35.724 30.5-44 6.977-3.488 16.076-2.538 23-6 4.177-2.088 17.583.291 21 2l4.5 4c2.26 0 20 10.633 20 13l8.5 5c6.392 3.196 8.944-2 11-2l2 3c5.063 2.532 13.414-6 16.5-6l1-1c0-1.577 1.762-2 3-2 0-1.131 14.277-10 16-10l4.5-4c3.506-1.753 17.784-4.108 22-2l22 6c16.434 8.217 30.5 23.764 30.5 44Z"/><path fill="#C9C9CA" id="scwm" d="m286 107 2 2-2-2ZM169 108l-1 1 1-1Z"/><path fill="#CACCC7" id="cing" d="m162 109-2 1 2-1Z"/><path fill="#C9C9CA" id="scwm" d="M127 127h1c1.884 0 7-4.443 7-6 2.29 0 15-5.605 15-8 1.465 0 4 .109 4-2l6-1 2-1h5c0 1.722-5.235 2.368-6.5 3-6.791 3.395-14.215 5.607-21 9-5.908 2.954-11.591 8.591-16.5 13.5l-6 6.5c0-6.033 10-9.485 10-14Z"/><path fill="#40A465" id="ACAv6b" d="M259 109c-2.073 0-7 6.148-7 8 2.073 0 7-6.148 7-8Z"/><path fill="#C9C9CA" id="scwm" d="M329 127c0 4.387 16 15.578 16 24-2.13 0-3.272-6.044-4-7.5L320.5 123l-24-11c-1.265-.632-6.5-1.278-6.5-3h5l2 1c7.583 0 28.652 17 32 17Z"/><path fill="#CACCC7" id="cing" d="m295 109 2 1-2-1Z"/><path fill="#1D9D5A" id="MOp6b" d="M154 111c-1.465 0-4-.109-4 2 1.465 0 4 .109 4-2ZM150 113c-2.29 0-15 5.605-15 8 2.29 0 15-5.605 15-8Z"/><path fill="#7ED04B" id="IG" d="M221 123c0 5.147 6.803 0 7.5 0l1 2c2.856 1.428 4.553-2 6.5-2l-2-4-5-5c0 2.729-.423 1-2 1-2.618 0-3.093 4-5 4l-1 4Z"/><path fill="#98D5F9" id="CP" d="m127 227 5.5 5 3.5 2c8.208 0 26.23 4.04 31-5.5 5.357-10.714 6.604-20.552 18.5-26.5l4.5-3 1-1c0-3.492 2-7.709 2-11v-9l1-2v-4l1-1v-5l1-1v-2c0-4.596 3.369-13.762 1-18.5-1.527-3.054-5-11.308-5-14.5l-3-5-4.5-4c-3.417-1.709-16.823-4.088-21-2-6.924 3.462-16.023 2.512-23 6-16.551 8.276-30.5 25.312-30.5 44 0 10.325 1.743 19.985 6 28.5l1 10 2 5.5v2l2 3v1l1 1 3 5 2 2ZM326 231l-6 3c-10.883 0-26.542 4.416-33-8.5-4.56-9.119-3.567-17.034-14.5-22.5l-6.5-4-1-1c0-2.088-.318-13-2-13v-10l-1-2-1-8c0-5.565-3.859-17.781-1-23.5 1.125-2.251 5-9.285 5-11.5l2-5 4.5-4c3.506-1.753 17.784-4.108 22-2l22 6c16.434 8.217 30.5 23.764 30.5 44 0 15.318-7 25.894-7 40-1.014 0-2 3.959-2 5v2l-1 1v1l-1 1v1l-1 1-1 1v1l-1 1-1 1v1l-1 1-1 1-3 3Z"/><path fill="#40A564" id="ACAv6a" d="m248 120-1 1 1-1Z"/><path fill="#1D9D5A" id="MOp6b" d="M128 125v2c1.884 0 7-4.443 7-6-2.83 0-4.54 4-7 4Z"/><path fill="#188064" id="SSp-m6b" d="M127 127h1v-2h-1v2Z"/><path fill="#AAA8A9" id="SEZ" d="M192 130c0-3.174 3.956.728 4.5 1 2.742 1.371 9.591 7 12.5 7 0-2.367-17.74-13-20-13l3 5ZM265 130c-5.042 0-8.635 5-14 5 0-1.131 14.277-10 16-10l-2 5Z"/><path fill="#188064" id="SSp-m6b" d="M349 163h2c0-11.25-9.367-19.233-14-28.5l-8-8.5v1c0 4.387 16 15.578 16 24v1c2.087 0 4 8.909 4 11ZM106 163h2c0-1.145-.579-4 1-4 0-1.623.005-6 2-6 0-1.424.362-5 2-5l1-2 1-2c0-1.238.423-3 2-3 0-6.033 10-9.485 10-14-7.741 0-21 29.134-21 36Z"/><path fill="#A8AAAA" id="VL" d="M196 163h1v-1l1-1 1-2 1-1 1-1c0-4.895 6.871-10.243 9-14.5l-1-4.5c-2.909 0-9.758-5.629-12.5-7-.544-.272-4.5-4.174-4.5-1 0 3.192 3.473 11.446 5 14.5 2.369 4.738-1 13.904-1 18.5ZM259 161l2 4c0-5.565-3.859-17.781-1-23.5 1.125-2.251 5-9.285 5-11.5-5.042 0-8.635 5-14 5 0 1.577-1.762 2-3 2l-1 1c0 10.629 12 18.431 12 23Z"/><path fill="#AAA8A9" id="SEZ" d="M251 135c-1.238 0-3 .423-3 2 1.238 0 3-.423 3-2ZM248 137l-1 1 1-1Z"/><path fill="#97D6F9" id="STR" d="M226 178c1.71 0 .344-4.078 2.5-3l2.5 4-2-24 .5-8c1.951-.975 6.376 3.188 8 4 4.156 2.078 9.721 1.86 14 4l7.5 6c0-4.569-12-12.371-12-23-3.086 0-11.437 8.532-16.5 6l-2-3c-2.056 0-4.608 5.196-11 2l-8.5-5 1 4.5c-2.129 4.257-9 9.605-9 14.5l13.5-6 7-1 5-3 .5 7.5-1 23.5Z"/><path fill="#1A7E62" id="SSs1" d="m63 173-5 1v-34l5 1v32ZM394 173l4 1c0-4.604-.059-14.383 2-18.5 1.666-3.331-2-11.984-2-15.5l-5 1v1c0 1.906 1.099 6.698 2 8.5 2.8 5.601-1 16.825-1 22.5Z"/><path fill="#C9C9CA" id="scwm" d="M117 141c-1.577 0-2 1.762-2 3 1.577 0 2-1.762 2-3Z"/><path fill="#1B8063" id="SSs2/3" d="m71 171-8 1v-30l10 3c0 7.787-2 16.293-2 25v1ZM393 173h1c0-5.675 3.8-16.899 1-22.5-.901-1.802-2-6.594-2-8.5l-9 3c0 7.96 1 16.499 1 25v1c1.775 0 8 .069 8 2Z"/><path fill="#C9C9CA" id="scwm" d="m115 144-1 2 1-2Z"/><path fill="#187C63" id="SSs4" d="m77 169-6 1c0-8.707 2-17.213 2-25l7 2c0 7.093-3 14.34-3 22ZM379 169l6 1c0-8.501-1-17.04-1-25l-7 2c0 7.475 2 14.038 2 22Z"/><path fill="#C9C9CA" id="scwm" d="m114 146-1 2 1-2Z"/><path fill="#1C8063" id="SSs5" d="M87 166c0 .586-8.833 3-10 3 0-7.66 3-14.907 3-22 6.448 0 7 7.741 7 11.5 0 1.839-1.096 7.5 0 7.5Z"/><path fill="#90CAED" id="LSr" d="M211 209c0 2.879 3.967 7.767 7.5 6l2.5-4c0-10.443 4-19.451 4-30 0-1.048-.473-3 1-3l1-23.5-.5-7.5-5 3-7 1-13.5 6-1 1-1 1-1 2-1 1v1l-1 1v1l-1 1v5l-1 1v5l2.5-2c5.753 2.876 13.579 14.658 16.5 20.5 1.015 2.03.552 13.5-2 13.5ZM245 209c0 3.207-3.625 7.938-7.5 6l-2.5-5c0-11.001-4-20.045-4-31l-2-24 .5-8c1.951-.975 6.376 3.188 8 4 4.156 2.078 9.721 1.86 14 4l7.5 6 2 4 1 8 1 2v2l-3.5-2c-5.641 2.821-14.027 17.553-16.5 22.5-1.992 3.984 2 8.702 2 11.5Z"/><path fill="#1C8063" id="SSs5" d="M369 166c0 .274 9.071 3 10 3 0-7.962-2-14.525-2-22-9.033 0-5.941 10.382-8 14.5-.387.774 2.751 4.5 0 4.5Z"/><path fill="#C9C9CA" id="scwm" d="M113 148c-1.638 0-2 3.576-2 5 1.638 0 2-3.576 2-5ZM349 163v4c-.906 0-4-13.392-4-15 2.087 0 4 8.909 4 11ZM111 153c-1.995 0-2 4.377-2 6 1.353 0 2-4.643 2-6Z"/><path fill="#97D6F9" id="STR" d="m201 157-1 1 1-1ZM200 158l-1 1 1-1Z"/><path fill="#C9C9CA" id="scwm" d="M108 163v2c1.684 0 1-4.679 1-6-1.579 0-1 2.855-1 4Z"/><path fill="#97D6F9" id="STR" d="m199 159-1 2 1-2ZM198 161l-1 1 1-1Z"/><path fill="#019C74" id="GU6b" d="m109 177-2 1-1-14v-1h2v6l1 8Z"/><path fill="#97D6F9" id="STR" d="m197 163-1 1v-1h1Z"/><path fill="#019C74" id="GU6b" d="M348 177h1c1.682 0 2-10.912 2-13v-1h-2v6l-1 8Z"/><path fill="#009B74" id="GU6a" d="M107 178c-5.665 0-10.173 5-16 5v-18c4.03 0 10.179-1 15-1l1 14ZM349 178c5.827 0 10.335 5 16 5 0-5.046 1-11.325 1-17l-15-2c0 2.088-.318 13-2 13v1Z"/><path fill="#A8AAAA" id="VL" d="m196 165-1 1 1-1Z"/><path fill="#019C75" id="GU5" d="M91 184c-4.953 0-8.75 5-13 5 0-5.9-1-13.427-1-20 1.167 0 10-2.414 10-3h4v18ZM365 184c5.376 0 9.056 5 14 5v-20c-.929 0-10-2.726-10-3h-3c0 5.675-1 11.954-1 17v1Z"/><path fill="#009C74" id="GU4" d="m78 189-3 1-4-19v-1l6-1c0 6.573 1 14.1 1 20Z"/><path fill="#C8CBCC" id="ec" d="M118 213h1l-2-5.5-1-10c-4.257-8.515-6-18.175-6-28.5h-2l1 8 2 12c0 3.157 2 5.481 2 9 1.663 0 2 5.407 2 7 1.014 0 2 3.959 2 5l1 3ZM339 209h1l1-3c0-1.424.362-5 2-5v-4c0-1.041.986-5 2-5v-3l1-1 2-11 1-8h-3c0 15.318-7 25.894-7 40Z"/><path fill="#009C74" id="GU4" d="M379 190h2c0-6.122 4-12.079 4-19v-1l-6-1v21Z"/><path fill="#009B75" id="GU2/3" d="M67 193h1c0-2.582 7-1.907 7-3l-4-19-8 1v1c0 7.281 4 13.051 4 20Z"/><path fill="#A8AAAA" id="VL" d="m195 171-1 1 1-1Z"/><path fill="#009B75" id="GU2/3" d="m381 190 2.5 2v-2l5.5 3c0-6.638 4-12.604 4-20 0-1.931-6.225-2-8-2 0 6.921-4 12.878-4 19Z"/><path fill="#009C75" id="GU1" d="M63 196h1c0-2.041.96-3 3-3 0-6.949-4-12.719-4-20l-5 1c0 7.543 5 14.377 5 22Z"/><path fill="#A8AAAA" id="VL" d="m262 173 1 2-1-2Z"/><path fill="#009C75" id="GU1" d="m389 193 4 2c2.064 0 .426-3.353 1-4.5 2.15-4.301 4-11.506 4-16.5l-4-1h-1c0 7.396-4 13.362-4 20Z"/><path fill="#8FCBED" id="LSv" d="M203 203c3.05 0 4.483 6 8 6 2.552 0 3.015-11.47 2-13.5-2.921-5.842-10.747-17.624-16.5-20.5l-2.5 2-1 1v9c.981 0 2 7.758 2 9l1 1c1.6 0 7 4.129 7 6Z"/><path fill="#96A7D3" id="MS" d="M236 231c-5.969 0-10.542 1-16 1 0-6.761 1-13.753 1-21 0-10.443 4-19.451 4-30 1.473 0 1-1.952 1-3 1.71 0 .344-4.078 2.5-3l2.5 4c0 10.955 4 19.999 4 31l1 21Z"/><path fill="#8FCBED" id="LSv" d="m249 208-4 1c0-2.798-3.992-7.516-2-11.5 2.473-4.947 10.859-19.679 16.5-22.5l3.5 2v8l-1 9-2 3-1 1c-1.247 0-5 2.467-5 4l-1 1-2 3-1 1-1 1Z"/><path fill="#A8AAAA" id="VL" d="m194 177-1 1 1-2v1Z"/><path fill="#1F9766" id="AId6b" d="m109 188 2 1-2-12-2 1 2 9v1ZM346 188h1l1-1 1-9v-1h-1l-2 11Z"/><path fill="#209666" id="AId6a" d="M96 202h1c2.01 0 3.512-1 6-1 0-6.55-4.11-14 6-14l-2-9c-5.665 0-10.173 5-16 5v1c0 6.762 5 12.082 5 18Z"/><path fill="#97D6F9" id="STR" d="M226 178c-1.473 0-1 1.952-1 3 1.473 0 1-1.952 1-3Z"/><path fill="#209666" id="AId6a" d="M353 201c3.047 0 4.462 1 7 1 0-3.91 5-10.58 5-18v-1c-5.665 0-10.173-5-16-5l-1 9c10.424 0 5 8.045 5 14Z"/><path fill="#209665" id="AId5" d="M84 204h1c3.186 0 7.891-2 11-2 0-5.918-5-11.238-5-18-4.953 0-8.75 5-13 5 0 5.116 6 13.463 6 15ZM372 204h1c0-1.13 5.864-14 6-14v-1c-4.944 0-8.624-5-14-5 0 7.42-5 14.09-5 18 3.031 0 7.851 2 12 2Z"/><path fill="#A8AAAA" id="VL" d="M265 198v1c0 12.55-3 5.728-3-1v-4l1-9c1.682 0 2 10.912 2 13Z"/><path fill="#8ADA86" id="CLA" d="M112 198c0 1.423 1.978 3.544 1 5.5-2.857 5.714-10 3.195-10-2.5 0-6.55-4.11-14 6-14v1c0 3.028 3 6.394 3 10Z"/><path fill="#A8AAAA" id="VL" d="M194 198c0 7.694-3 12.708-3 1v-1c0-3.492 2-7.709 2-11 .981 0 2 7.758 2 9v1l-1 1Z"/><path fill="#209666" id="AId6a" d="m348 187-1 1 1-1Z"/><path fill="#8ADA86" id="CLA" d="M343 201c0 7.059 10 7.777 10 0 0-5.955 5.424-14-5-14l-1 1-2 4c0 1.235.643 5-1 5 0 1.145.579 4-1 4Z"/><path fill="#209666" id="AId6a" d="M112 198h1c0-3.519-2-5.843-2-9l-2-1c0 3.028 3 6.394 3 10Z"/><path fill="#1F9766" id="AId6b" d="m346 188-1 1 1-1Z"/><path fill="#209666" id="AId6a" d="M345 189v3l2-4h-1l-1 1Z"/><path fill="#209765" id="AId2/3" d="M84 204c-3.42 0-7.224 2-11 2l-5-13c0-2.582 7-1.907 7-3l3-1c0 5.116 6 13.463 6 15ZM373 204c0 1.16 8.505 2 10 2 0-4.061 6-8.619 6-13l-5.5-3v2l-2.5-2h-2c-.136 0-6 12.87-6 14Z"/><path fill="#209666" id="AId6a" d="M343 197h1c1.643 0 1-3.765 1-5-1.014 0-2 3.959-2 5Z"/><path fill="#209764" id="AId1" d="M73 207c-1.145 0-4-.579-4 1l-2-1v-1c0-1.424-.362-5-2-5v-2l-1-3c0-2.041.96-3 3-3h1l5 13v1ZM389 207l-1 1-5-1v-1c0-4.061 6-8.619 6-13l4 2v1l-1 2c-1.473 0-1 1.952-1 3v1l-1 2v1l-1 2Z"/><path fill="#97D6F9" id="STR" d="m260 197 2 1v-4l-2 3Z"/><path fill="#219765" id="AIp1" d="m64 196 1 3-2-3h1Z"/><path fill="#97D6F9" id="STR" d="M195 197h1l-1-1v1Z"/><path fill="#219765" id="AIp1" d="m393 196-1 2 1-2Z"/><path fill="#97D6F9" id="STR" d="m195 197-1 1 1-1Z"/><path fill="#80CDF8" id="ACB" fill-rule="evenodd" d="m183 209-6 6.5c-1.379 2.757 1.933 10.284 5.5 8.5 6.014-3.007 12.162-15 .5-15m-48 27c0 6.847 4 12.06 4 18 0 11.857 32.173 12.664 39.5 9 5.144-2.572 20.415-16.33 22.5-20.5.823-1.647 3.92-9.5 6-9.5v-2l1-1c0-4.141 4.288-10.923 2-15.5l-7-11.5c0-1.871-5.4-6-7-6h-1l-1 1c0 7.694-3 12.708-3 1h-1l-4.5 3c-11.896 5.948-13.143 15.786-18.5 26.5-4.77 9.54-22.792 5.5-31 5.5l-1 2Z"/><path fill="#97D6F9" id="STR" d="m260 197-1 1 1-1Z"/><path fill="#80CDF8" id="ACB" fill-rule="evenodd" d="M269 209c0 2.428-3.784 5.933-2 9.5 8.392 16.784 21.443-9.5 2-9.5m53 26c0 6.593-4 12.653-4 19l-7.5 9c-5.639 2.82-27.413 2.793-33 0-9.995-4.997-14.513-13.513-23-22-1.597-1.597-2.67-9-5.5-9 0-4.372-5.314-11.872-3-16.5 1.2-2.401 3-4.588 3-7.5l1-1 1-1 2-3 1-1c0-1.533 3.753-4 5-4l1-1 2 1c0 6.728 3 13.55 3 1h1l6.5 4c10.933 5.466 9.94 13.381 14.5 22.5 6.458 12.916 22.117 8.5 33 8.5l2 1Z"/><path fill="#1F9866" id="AIv6a" d="M344 197c0 1.145.579 4-1 4v-4h1ZM109 209c-2.885 0-4.697 2-8 2-1.444 0-4-7.394-4-9 2.01 0 3.512-1 6-1 0 5.695 7.143 8.214 10 2.5.978-1.956-1-4.077-1-5.5h1c1.663 0 2 5.407 2 7 0 3.004-6 1.483-6 4Z"/><path fill="#97D6F9" id="STR" d="M190 199h1v-1l-1 1ZM265 199h1l-1-1v1Z"/><path fill="#219765" id="AIp1" d="M392 198c-1.473 0-1 1.952-1 3 1.473 0 1-1.952 1-3ZM65 201c1.638 0 2 3.576 2 5-1.014 0-2-3.959-2-5Z"/><path fill="#1F9866" id="AIv6a" d="M347 209c3.235 0 4.55 2 8 2 1.327 0 5-7.75 5-9-2.538 0-3.953-1-7-1 0 7.777-10 7.059-10 0-1.638 0-2 3.576-2 5l6 3Z"/><path fill="#1F9865" id="AIv5" d="m97 213-5 1c0-4.026-7-5.891-7-10 3.186 0 7.891-2 11-2h1c0 1.606 2.556 9 4 9l-4 2Z"/><path fill="#97D6F9" id="STR" d="m254 202-1 1 1-1Z"/><path fill="#1F9865" id="AIv5" d="m360 213 4 1 8-10c-4.149 0-8.969-2-12-2 0 1.25-3.673 9-5 9 0 1.014 3.959 2 5 2Z"/><path fill="#219765" id="AIp1" d="m391 202-1 2 1-2Z"/><path fill="#97D6F9" id="STR" d="M207 256h2c2.723 0 6-4.488 6-7l1-1c0-4.57 4-10.582 4-16 0-6.761 1-13.753 1-21l-2.5 4c-3.533 1.767-7.5-3.121-7.5-6-3.517 0-4.95-6-8-6l7 11.5c2.288 4.577-2 11.359-2 15.5l-1 1v2l-2 18v3l2 2Z"/><path fill="#219764" id="AIv2/3" d="M92 214c-4.332 0-8.33 3-13 3l-6-10v-1c3.776 0 7.58-2 11-2h1c0 4.109 7 5.974 7 10ZM364 214c4.932 0 8.768 3 14 3l5-10v-1c-1.495 0-10-.84-10-2h-1l-8 10Z"/><path fill="#8AD987" id="CTXsp" d="m109 209 4.5-1 3.5 2c0-1.041-.986-5-2-5 0 3.004-6 1.483-6 4Z"/><path fill="#219765" id="AIp1" d="m390 205-1 2 1-2Z"/><path fill="#97D6F9" id="STR" d="m251 206-1 1 1-1Z"/><path fill="#8AD987" id="CTXsp" d="M340 209h7l-6-3-1 3Z"/><path fill="#219765" id="AIp1" d="M72 219h1c0-4.416-4-7.574-4-11l-2-1 5 12Z"/><path fill="#209864" id="AIv1" d="m79 217-6 2c0-4.416-4-7.574-4-11 0-1.579 2.855-1 4-1l6 10Z"/><path fill="#97D6F9" id="STR" d="m250 207-1 1 1-1Z"/><path fill="#209864" id="AIv1" d="M378 217c0 1.014 3.959 2 5 2 0-1.238.423-3 2-3 0-3.238 3-5.3 3-8l-5-1-5 10Z"/><path fill="#219765" id="AIp1" d="M388 208c0 2.7-3 4.762-3 8 2.216 0 4-7.15 4-9l-1 1Z"/><path fill="#A0EE9C" id="EPd" d="M121 232h1l4-1 1-1v-3l-2-2-3-5-1-1v-1c-1.577 0-2-1.762-2-3v-1l-1-1-1-3-3.5-2-4.5 1c0 2.127-5 5.597-5 11l2 3 1 1 3 2 1 1h1l2 2h1l1 1 3 1 2 1Z"/><path fill="#97D6F9" id="STR" d="M247 256h2l2-2c0-1.048-.473-3 1-3 0-6.046-3-12.663-3-19 0-4.372-5.314-11.872-3-16.5 1.2-2.401 3-4.588 3-7.5l-4 1c0 3.207-3.625 7.938-7.5 6l-2.5-5 1 21c0 4.528 5.539 25 11 25Z"/><path fill="#A0EE9C" id="EPd" d="M337 231h2l1-1 1-1h1l1-1 2-1 2-1 1-1 3-3 1-1 1-2c0-3.373-6-9.547-6-10h-7l-1 1-1 4-1 1v1l-1 1v1l-1 1v1l-1 1-1 1v1l-1 1-1 1v1l-1 1v4l5 1 2-1Z"/><path fill="#99D2BD" id="OLF" d="m97 213 4 2.5 3 4.5c0-5.403 5-8.873 5-11-2.885 0-4.697 2-8 2l-4 2Z"/><path fill="#CBCBC7" id="aco" d="m183 209-6 6.5c-1.379 2.757 1.933 10.284 5.5 8.5 6.014-3.007 12.162-15 .5-15ZM269 209c0 2.428-3.784 5.933-2 9.5 8.392 16.784 21.443-9.5 2-9.5Z"/><path fill="#C8CBCC" id="ec" d="M337 214h1l1-4v-1c-1.014 0-2 3.959-2 5Z"/><path fill="#8AD987" id="CTXsp" d="m340 209-1 1v-1h1Z"/><path fill="#99D2BD" id="OLF" d="m360 213-3.5 2-3.5 4c0-3.373-6-9.547-6-10 3.235 0 4.55 2 8 2 0 1.014 3.959 2 5 2Z"/><path fill="#6ACAB9" id="PIR" d="M121 261h2c2.747 0 4.56-4 8-4 0-5.025 4.896-8.708 2-14.5l-6.5-7.5-4.5-3h-1l-2-1-3-1-1-1h-1l-2-2h-1l-1-1-3-2-1-1-2-3-3-4.5-4-2.5-5 1c-4.332 0-8.33 3-13 3l-6 2h-1c0 7.583 17.75 30 26 30 5.714 0 10.852 3.176 16.5 6l6.5 6Z"/><path fill="#8AD987" id="CTXsp" d="M119 213v1l-1-1h1Z"/><path fill="#6ACAB9" id="PIR" d="M334 261h2c0-2.021 22-17.748 22-11l2.5-3c9.516-4.758 23.5-16.064 23.5-28h-1c-1.041 0-5-.986-5-2-5.232 0-9.068-3-14-3l-4-1-3.5 2-3.5 4-1 2-1 1-3 3-1 1-2 1-2 1-1 1h-1l-1 1-1 1h-2l-2 1-5.5 3c-2.291 1.145-5.15 5.801-6.5 8.5-2.563 5.126 3 9.97 3 13.5l8 4Z"/><path fill="#8AD987" id="CTXsp" d="m338 214-1 1v-1h1ZM119 215l2 3c-1.577 0-2-1.762-2-3ZM337 216l-1 1 1-1Z"/><path fill="#219765" id="AIp1" d="M383 219h1c1.473 0 1-1.952 1-3-1.577 0-2 1.762-2 3Z"/><path fill="#8AD987" id="CTXsp" d="m336 218-1 1 1-1ZM121 219l1 1-1-1Z"/><path fill="#99D2BD" id="OLF" d="m353 219-1 2 1-2Z"/><path fill="#8AD987" id="CTXsp" d="m335 220-1 1 1-1ZM334 221l-1 1 1-1Z"/><path fill="#99D2BD" id="OLF" d="m352 221-1 1 1-1ZM106 223l1 1-1-1Z"/><path fill="#8AD987" id="CTXsp" d="m333 223-1 1 1-1ZM332 224l-1 1 1-1ZM125 225l2 2-2-2Z"/><path fill="#99D2BD" id="OLF" d="m348 225-1 1 1-1ZM110 226l1 1-1-1Z"/><path fill="#8AD987" id="CTXsp" d="m331 226-1 1 1-1Z"/><path fill="#99D2BD" id="OLF" d="m347 226-2 1 2-1ZM112 227l2 2-2-2Z"/><path fill="#97D6F9" id="STR" d="m136 234-1 2c-2.421 0-4.563-6-8-6v-1c1.186 0 1.186-1 0-1v-1l5.5 5 3.5 2Z"/><path fill="#8AD987" id="CTXsp" d="M329 231h1v-4l-1 1v3Z"/><path fill="#99D2BD" id="OLF" d="m345 227-2 1 2-1Z"/><path fill="#8AD987" id="CTXsp" d="M127 228c1.186 0 1.186 1 0 1v-1Z"/><path fill="#97D6F9" id="STR" d="M326 231h3v-3l-3 3Z"/><path fill="#99D2BD" id="OLF" d="m343 228-1 1 1-1ZM115 229l1 1-1-1ZM341 229l-1 1 1-1Z"/><path fill="#8AD987" id="CTXsp" d="m127 230-1 1 1-1Z"/><path fill="#99D2BD" id="OLF" d="M131 257h1c0-1.429 5.655-3 7-3 0-5.94-4-11.153-4-18-2.421 0-4.563-6-8-6l-1 1-4 1 4.5 3 6.5 7.5c2.896 5.792-2 9.475-2 14.5Z"/><path fill="#A2B1D7" id="SI" d="m208 230-1 1 1-1Z"/><path fill="#99D2BD" id="OLF" d="m340 230-1 1 1-1ZM119 231l2 1-2-1Z"/><path fill="#96A6D3" id="NDB" d="M220 266c-1.294 0-7 3.609-7 5-5.118 0-12 5.083-12-5v-1l1-1c1.901 0 5-4.332 5-6l1-1 1-1c2.723 0 6-4.488 6-7l1-1c0-4.57 4-10.582 4-16 5.458 0 10.031-1 16-1 0 4.528 5.539 25 11 25l1 1 1 1c0 3.351 6 5.107 6 7l1 1c0 17.498-19.93-2-22-2 0-3.52-9-10.565-9-3v1l-1 1-3 2-1 1Z"/><path fill="#97D6F9" id="STR" d="m320 234 2 1 4-4-6 3Z"/><path fill="#99D2BD" id="OLF" d="M324 257h2c0-3.53-5.563-8.374-3-13.5 1.35-2.699 4.209-7.355 6.5-8.5l5.5-3-5-1h-4l-4 4c0 6.593-4 12.653-4 19l6 3ZM337 231l-2 1 2-1Z"/><path fill="#A2B1D7" id="SI" d="m259 268 1 5c17.349 0 36.705 5.398 51.5-2 4.482-2.241 12.5-8.328 12.5-14l-6-3-7.5 9c-5.639 2.82-27.413 2.793-33 0-9.995-4.997-14.513-13.513-23-22-1.597-1.597-2.67-9-5.5-9 0 6.337 3 12.954 3 19l1 3 4 10 2 4ZM197 269l-1 4-29.5 1c-2.21 1.105-10.321 2.339-13 1-4.436-2.218-13.915-4.331-16.5-9.5l-5-8.5c0-1.429 5.655-3 7-3 0 11.857 32.173 12.664 39.5 9 5.144-2.572 20.415-16.33 22.5-20.5.823-1.647 3.92-9.5 6-9.5l-2 18-2 4-4 9-1 3v1l-1 1Z"/><path fill="#CAC8C7" id="lot" d="M119 265h1l1-2v-2l-6.5-6c-5.648-2.824-10.786-6-16.5-6 0 2.445 18.49 16 20 16h1Z"/><path fill="#E64438" id="HY" d="m216 248-1 1 1-1Z"/><path fill="#CAC8C7" id="lot" d="M336 261c0 1.465-.109 4 2 4 1.988 0 20-13.607 20-15 0-6.748-22 8.979-22 11Z"/><path fill="#E64438" id="HY" d="m205 254-2 1 2-4v3ZM251 254h2l-1-3c-1.473 0-1 1.952-1 3Z"/><path fill="#F2473B" id="LPO" d="m202 264-1 1-2-1 4-9 2-1 2 2v2c0 1.668-3.099 6-5 6ZM257 264l-2 1c0-1.893-6-3.649-6-7v-2l2-2h2l4 10Z"/><path fill="#8599CC" id="PAL" d="M207 257h1l1-1h-2v1ZM248 257h1v-1h-2l1 1Z"/><path fill="#7FCCF7" id="OT" d="M196 273c2.896 0 5 3.334 5 6 0 12.37-11.658 12.079-19.5 16h-8c-16.64 8.32-37.729 2.042-46.5-15.5-1.902-3.805-6-6.975-6-11.5v-5l2-2c2.747 0 4.56-4 8-4h1l5 8.5c2.585 5.169 12.064 7.282 16.5 9.5 2.679 1.339 10.79.105 13-1l29.5-1Z"/><path fill="#E64438" id="HY" d="m208 257-1 1v-1h1ZM225 261c5.843 0 7.728 3 9 3 0-3.52-9-10.565-9-3ZM249 257v1l-1-1h1Z"/><path fill="#7FCCF7" id="OT" d="M260 273c-1.901 0-5 4.332-5 6 0 11.758 11.863 12.181 19.5 16h8c14.579 7.289 36.283 3.934 44.5-12.5 2.35-4.701 8-7.891 8-13.5v-5l-1-3-8-4h-2c0 5.672-8.018 11.759-12.5 14-14.795 7.398-34.151 2-51.5 2Z"/><path fill="#99D2BD" id="OLF" d="m123 261-2 2v-2h2ZM338 265l-1 1-2-2-1-3h2c0 1.465-.109 4 2 4Z"/><path fill="#E64438" id="HY" d="m225 262-1 1 1-1Z"/><path fill="#99D2BD" id="OLF" d="M120 265h1v-2l-1 2Z"/><path fill="#E64438" id="HY" d="m201 266-3 1 1-3 2 1v1ZM202 264l-1 1 1-1Z"/><path fill="#8599CC" id="PAL" d="M260 273c-1.901 0-5 4.332-5 6-.726 0-21-12.364-21-15 2.07 0 22 19.498 22 2l3 2 1 5Z"/><path fill="#E64438" id="HY" d="m256 266 3 2-2-4-2 1 1 1Z"/><path fill="#97D6F9" id="STR" d="m337 266-2 3v-5l2 2Z"/><path fill="#99D2BD" id="OLF" d="M119 265v1l-1-1h1Z"/><path fill="#97D6F9" id="STR" d="m119 266 2 2v-3h-2v1Z"/><path fill="#E64438" id="HY" d="M220 266h1v-1l-1 1Z"/><path fill="#8599CC" id="PAL" d="M196 273c2.896 0 5 3.334 5 6 1.719 0 12-6.257 12-8-5.118 0-12 5.083-12-5l-3 1v1l-1 1-1 4ZM221 266c0 2.449-6.154 5-8 5 0-1.391 5.706-5 7-5h1Z"/><path fill="#E64438" id="HY" d="m198 268-1 1 1-1Z"/><path fill="#CBCCC7" id="IIn" d="M216 275c0 .757-6.979 5.458-8 7.5-2.454 4.908 5.066 7.217 8.5 5.5 7.145-3.573 11.357-13-.5-13ZM234 275c0 1.804-2.182 5.136-1 7.5 2.24 4.48 12.955 9.091 16 3 3.4-6.8-11.03-10.5-15-10.5Z"/></svg>