<svg xmlns="http://www.w3.org/2000/svg" viewBox="0 0 456 320"><path fill="#9AD1BD" id="MOB" d="M145 157c1.353 0 2 4.643 2 6 1.943 0 5.096 10.692 6 12.5 3.787 7.573 6.275 15.55 10 23 3.527 7.054-2.647 26.426 9.5 32.5 6.429 3.215 12.67 6.835 19 10 8.564 4.282 18.552-6.603 21.5-12.5 5.292-10.584 8-25.492 8-38v-25c1.451-2.903 5.478-33.044 4-36-2.596-5.192-4.362-10.723-7-16-1.379-2.758-5-3.778-5-6.5h-1l-1-1-6.5-3H197c-14.918 0-26.027 3.527-36.5 14-2.994 2.994-9.5 8.856-9.5 13l-1 1-1 1v2l-1 1v1l-1 1v2l-1 2v1c0 1.048.473 3-1 3v12ZM311 146c0 6.506-2 12.376-2 18-.774 0-6.994 14.489-8 16.5-2.637 5.273-4.406 10.811-7 16-4.382 8.764 3.214 28.643-12.5 36.5l-16 8c-9.217 4.609-19.342-6.185-22.5-12.5-8.823-17.647-8-44.004-8-65l-4-31c2.653-5.306 3.301-11.603 6-17l7-8.5 7.5-4h20c4.8 2.4 10.185 3.593 15 6 3.447 1.724 6.295 6.648 9 8 2.355 1.178 9.5 8.757 9.5 12l1 1 1 3 1 1v1l1 1v2l1 1v2l1 1v4Z"/><path fill="#99D2BD" id="OLF" d="m211 106 1 1-1-1Z"/><path fill="#C7CBCA" id="onl" d="M153 210c0 8.733 8.397 12.295 12 19.5 5.982 11.964 40.333 30.084 53.5 23.5 9.909-4.954 8.5-26.73 8.5-37v-63c0-14.503 1.078-24.344-5-36.5-1.429-2.857-4.832-9.5-9-9.5 0 2.722 3.621 3.742 5 6.5 2.638 5.277 4.404 10.808 7 16 1.478 2.956-2.549 33.097-4 36v25c0 12.508-2.708 27.416-8 38-2.948 5.897-12.936 16.782-21.5 12.5-6.33-3.165-12.571-6.785-19-10-12.147-6.074-5.973-25.446-9.5-32.5-3.725-7.45-6.213-15.427-10-23-.904-1.808-4.057-12.5-6-12.5v11c1.714 0 1 5.594 1 7v2c1.643 0 1 3.765 1 5v4c1.484 0 2 8.263 2 10v3c.672 0 2 4.329 2 5ZM304 209l-1 2c0 5.599-3.744 6.989-6 11.5-7.805 15.61-25.028 22.264-39.5 29.5-3.243 1.622-19.252 2.995-20.5.5l-7-12c-2.697-5.394-1-22.05-1-29V141c0-9.699 3.647-34 15-34l-7 8.5c-2.699 5.397-3.347 11.694-6 17l4 31c0 20.996-.823 47.353 8 65 3.158 6.315 13.283 17.109 22.5 12.5l16-8c15.714-7.857 8.118-27.736 12.5-36.5 2.594-5.189 4.363-10.727 7-16 1.006-2.011 7.226-16.5 8-16.5v16c-1.643 0-1 3.765-1 5v2c-1.684 0-1 4.679-1 6v2c-1.579 0-1 2.855-1 4-1.684 0-1 4.679-1 6v2l-1 2Z"/><path fill="#99D2BD" id="OLF" d="m305 129 1 1-1-1ZM151 130l-1 1 1-1ZM150 131l-1 1 1-1ZM307 133l1 1-1-1ZM149 134l-1 1 1-1ZM308 135l1 1-1-1ZM148 136l-1 1 1-1ZM309 138l1 1-1-1ZM147 139l-1 2 1-2ZM310 141l1 1-1-1ZM146 142c-1.473 0-1 1.952-1 3 1.473 0 1-1.952 1-3ZM309 164v7c1.951 0 .477-2.454 1-3.5 2.049-4.099 2-10.652 2-15.5 0-1.321.684-6-1-6 0 6.506-2 12.376-2 18ZM145 149c-1.566 0-1.566 5 0 5v-5ZM227 153c1.777 0 1 9.717 1 11.5v38c0 1.95.79 13.5-1 13.5v-63ZM147 163v6c-2.238 0-2-9.802-2-12 1.353 0 2 4.643 2 6ZM147 174c1.714 0 1 5.594 1 7-1.714 0-1-5.594-1-7ZM309 180c-1.643 0-1 3.765-1 5 1.643 0 1-3.765 1-5ZM148 183c1.643 0 1 3.765 1 5-1.643 0-1-3.765-1-5ZM308 187c-1.684 0-1 4.679-1 6 1.684 0 1-4.679 1-6ZM149 192c1.484 0 2 8.263 2 10-1.888 0-2-8.072-2-10ZM307 195c-1.579 0-1 2.855-1 4 1.579 0 1-2.855 1-4ZM306 199c-1.684 0-1 4.679-1 6 1.684 0 1-4.679 1-6ZM151 205c.672 0 2 4.329 2 5-2.461 0-2-3.378-2-5ZM305 207l-1 2 1-2ZM304 209l-1 2 1-2Z"/></svg>