<svg xmlns="http://www.w3.org/2000/svg" viewBox="0 0 456 320"><path fill="#1E9C59" id="MOs1" d="M150 67c3.746 0 15.731-6.116 19.5-8 5.957-2.979 14.003-2.001 20-5 4.933-2.467 18.176 3.088 22 5 2.344 1.172 6.304 8 7.5 8l4-2c0-6.764-11.099-11.8-15.5-14-12.309-6.154-33.523-1.738-45 4L149 61c0 2.124 1 4.436 1 6ZM237 67l5.5-6c4.978-2.489 17.112-10.444 24-7 5.985 2.993 14.039 2.02 20 5 4.228 2.114 16.098 8 20.5 8v-6c-3.904 0-9.055-4.278-12.5-6-10.618-5.31-34.74-9.63-46-4-4.687 2.343-14.5 7.076-14.5 14l3 2Z"/><path fill="#1E9D58" id="MOs2/3" d="M213 72c0-3.937-13.895-7-17.5-7-11.745 0-22.232 7.116-32 12-3.925 1.962-9.024 8-13.5 8V72.5c0-1.19.614-4.5-1-4.5l1-1c3.746 0 15.731-6.116 19.5-8 5.957-2.979 14.003-2.001 20-5 4.933-2.467 18.176 3.088 22 5 2.344 1.172 6.304 8 7.5 8v1c-2.33 0-3.227 4-6 4ZM243 72c.802 0 16.059-11.22 24.5-7 9.567 4.784 19.434 9.217 29 14 3.559 1.78 6.248 6 10.5 6V67c-4.402 0-16.272-5.886-20.5-8-5.961-2.98-14.015-2.007-20-5-6.888-3.444-19.022 4.511-24 7l-5.5 6v1l6 4Z"/><path fill="#1E9D5A" id="MOp1" d="M89 111c0 2.518 2 4.286 2 6l12.5-16c10.696-10.696 20.145-19.573 33-26 3.699-1.85 8.232-7 12.5-7l1-1c0-1.564-1-3.876-1-6l-10.5 6c-13.827 6.914-25.607 16.607-37 28-2.656 2.656-12.5 12.848-12.5 16ZM367 111c0 2.176-.04 7-1 7l-3-4.5c-2.666-5.333-7.567-8.134-10-13-4.941-9.882-25.882-22.19-34.5-26.5-3.568-1.784-7.294-6-11.5-6v-7c3.448 0 7.468 4.484 10.5 6 10.399 5.2 33.873 19.245 39.5 30.5 2.371 4.742 10 7.883 10 13.5Z"/><path fill="#1F9D58" id="MOs5" d="M195 90h1c0-2.24 15.688-17 17-17v-1c0-3.937-13.895-7-17.5-7-11.745 0-22.232 7.116-32 12-3.925 1.962-9.024 8-13.5 8l-1 1c2.144 0 .381 4.262 1 5.5 1.206 2.412 1 10.578 1 14.5l32.5-15c1.704-.852 11.5-4.307 11.5-1Z"/><path fill="#3EA665" id="ACAd1" d="M222 97h12l-1-20.5c.845-1.69 4-6.846 4-8.5v-1l-3-2c-2.917 0-4.577 8-5.5 8l-5.5-8-4 2v1c6.552 0 3 25.12 3 29Z"/><path fill="#1F9D58" id="MOs5" d="M261 90c0-2.398 8.434-.533 9.5 0l34.5 16c0-5.953 2-13.979 2-20v-1c-4.252 0-6.941-4.22-10.5-6-9.566-4.783-19.433-9.216-29-14-8.441-4.22-23.698 7-24.5 7v1c3.198 0 17 15.115 17 17h1Z"/><path fill="#1F9C58" id="MOp2/3" d="m99 171-2 1c-1.951 0-.477-2.454-1-3.5-1.813-3.625-3-7.933-3-11.5 0-1.906-1.099-6.698-2-8.5-1.091-2.183.145-7.289 1-9l-1-3 2-2-2-1c0-2.636 1-6.568 1-9l-2-4.5 1-1v-2l12.5-16c10.696-10.696 20.145-19.573 33-26 3.699-1.85 8.232-7 12.5-7 1.614 0 1 3.31 1 4.5V85l-1 1c-6.919 0-13.488 9.994-19.5 13-5.238 2.619-10.802 8.103-13.5 13.5-2.922 5.845-8.103 10.206-11 16-6.015 12.03-6 28.017-6 42.5Z"/><path fill="#40A565" id="ACAd2/3" d="M217 97h5c0-3.88 3.552-29-3-29-2.33 0-3.227 4-6 4v1c4.271 0 4 19.741 4 24ZM234 97c2.124 0 4.436 1 6 1V79.5c.579-1.157 3-5.49 3-6.5v-1l-6-4c0 1.654-3.155 6.81-4 8.5l1 20.5Z"/><path fill="#1F9C58" id="MOp2/3" d="m357 171 3 1c0-3.097 1.655-6.81 3-9.5.619-1.238-1.144-5.5 1-5.5 0-3.712 2.126-18.248 1-20.5l-2-2 2-1c0-3.909 1-9.963 1-14.5v-1l-3-4.5c-2.666-5.333-7.567-8.134-10-13-4.941-9.882-25.882-22.19-34.5-26.5-3.568-1.784-7.294-6-11.5-6v18c8.043 0 15.529 11.514 22.5 15 5.384 2.692 10.588 9.677 13.5 15.5 2.847 5.693 7.193 10.385 10 16 5.269 10.539 4 25.85 4 38.5Z"/><path fill="#3EA566" id="ACAd5" d="M217 98c-5.787 0-11.032 5-16 5 0-2.562-1.302-13-5-13 0-2.24 15.688-17 17-17 4.271 0 4 19.741 4 24v1ZM240 98c5.532 0 11.005 5 16 5 0-5.766 4-12.62 4-13 0-1.885-13.802-17-17-17 0 1.01-2.421 5.343-3 6.5V98Z"/><path fill="#1E9C5A" id="MOp5" d="M121 162c-7.372 0-14.327 9-22 9 0-14.483-.015-30.47 6-42.5 2.897-5.794 8.078-10.155 11-16 2.698-5.397 8.262-10.881 13.5-13.5 6.012-3.006 12.581-13 19.5-13 2.144 0 .381 4.262 1 5.5 1.206 2.412 1 10.578 1 14.5v1c-5.37 0-7.857 5.679-12.5 8-9.321 4.66-12.982 16.465-17.5 25.5-1.003 2.005.056 4.888-1 7l1 13.5v1ZM335 161c3.121 0 17.262 10 22 10 0-12.65 1.269-27.961-4-38.5-2.807-5.615-7.153-10.307-10-16-2.912-5.823-8.116-12.808-13.5-15.5-6.971-3.486-14.457-15-22.5-15 0 6.021-2 14.047-2 20l1 1c4.263 0 8.604 6.552 11.5 8 12.133 6.067 13.251 19.002 18.5 29.5 2.148 4.296-1 12.46-1 16.5Z"/><path fill="#1D9C5A" id="MOs6a" d="m153 143-10 6c0-9.719 8-19.56 8-26.5V106l32.5-15c1.704-.852 11.5-4.307 11.5-1 0 7.148-12 18.206-12 27-11.273 0-29 13.165-29 25l-1 1ZM304 143c3.055 0 5.429 5 9 5 0-9.697-8-18.266-8-25.5 0-5.094 1-9.899 1-15.5l-1-1-34.5-16c-1.066-.533-9.5-2.398-9.5 0 0 5.389 12 17.852 12 27h1c11.04 0 29 14.574 29 26h1Z"/><path fill="#3FA664" id="ACAd6a" d="M183 118h2c0-2.689 13.493-15 16-15 0-2.562-1.302-13-5-13h-1c0 7.148-12 18.206-12 27v1ZM273 117l-1 1c-1.767 0-10.953-15-16-15 0-5.766 4-12.62 4-13h1c0 5.389 12 17.852 12 27Z"/><path fill="#2FA74F" id="PL2/3" d="M218 133h5c0-11.282-1-24.058-1-36h-5v1c0 11.573 1 24.1 1 35Z"/><path fill="#2FA750" id="PL1" d="M223 133h11V97h-12c0 11.942 1 24.718 1 36Z"/><path fill="#2FA74F" id="PL2/3" d="M234 133h4c0-11.316 2-23.095 2-35-1.564 0-3.876-1-6-1v36Z"/><path fill="#2EA84F" id="PL5" d="M204 135h1l13-2c0-10.9-1-23.427-1-35-5.787 0-11.032 5-16 5 0 11.563 3 21.035 3 32ZM238 133l14 2c0-10.183 4-21.415 4-32-4.995 0-10.468-5-16-5 0 11.905-2 23.684-2 35Z"/><path fill="#2FA850" id="PL6a" d="M194 136h1l9-1c0-10.965-3-20.437-3-32-2.507 0-16 12.311-16 15v1c2.49 0 9 14.219 9 17ZM252 135l10 1c0-2.646 4.633-15 8-15l1-1 1-1v-1c-1.767 0-10.953-15-16-15 0 10.585-4 21.817-4 32Z"/><path fill="#1F9B5A" id="MOp6a" d="M143 149c-7.688 0-14.524 12-22 12l-1-13.5c1.056-2.112-.003-4.995 1-7 4.518-9.035 8.179-20.84 17.5-25.5 4.643-2.321 7.13-8 12.5-8v15.5c0 6.94-8 16.781-8 26.5ZM313 148l5.5 3c3.561 1.781 13.254 10 16.5 10 0-4.04 3.148-12.204 1-16.5-5.249-10.498-6.367-23.433-18.5-29.5-2.896-1.448-7.237-8-11.5-8 0 5.601-1 10.406-1 15.5 0 7.234 8 15.803 8 25.5Z"/><path fill="#187E61" id="SSp-m1" d="m83 159-5 1c0-14.898-.125-27.251 6-39.5l5-9.5c0 2.518 2 4.286 2 6l-1 2v1c-2.029 0-3.233 6.967-4 8.5-4.263 8.526-3 20.26-3 30.5ZM373 159l5 1c0-13.939 1.168-25.163-5-37.5-.957-1.914-3.492-11.5-6-11.5 0 2.176-.04 7-1 7v1c2.155 0 3.233 6.965 4 8.5 4.702 9.403 3 21.283 3 31.5Z"/><path fill="#1E9D5A" id="MOp1" d="M90 119h1v-2l-1 2Z"/><path fill="#1E9C58" id="MOs6b" d="m157 141-3 1c0-11.835 17.727-25 29-25v1h-1c-1.66 0-12 2.649-12 4-2.748 0-13 15.572-13 19Z"/><path fill="#3FA466" id="ACAd6b" d="M272 119h2v-2h-1l-1 1v1Z"/><path fill="#1E9C58" id="MOs6b" d="m299 141 4 2c0-11.426-17.96-26-29-26v2c1.035 0 13 .778 13 3 0 .751 12 12.205 12 19Z"/><path fill="#CACCC7" id="cing" d="m193 136 2 9c-1.612 0-3.243-8.987-4-10.5-4.259-8.518-8.762-9.5-18-9.5l-3-3c0-1.351 10.34-4 12-4l2 1c0 2.933 9 11.644 9 17Z"/><path fill="#3FA466" id="ACAd6b" d="M184 119h1v-1h-3l2 1Z"/><path fill="#CACCC7" id="cing" d="M263 136v4l6-11.5c2.386-4.772 9.502-3.5 14-3.5l4-3c0-2.222-11.965-3-13-3h-2l-1 1-1 1-7 15Z"/><path fill="#1A7E64" id="SSp-m2/3" d="m91 119-1 1v-1h1Z"/><path fill="#2FA84F" id="PL6b" d="M193 136h1c0-2.781-6.51-17-9-17h-1c0 2.933 9 11.644 9 17ZM272 119l-1 1 1-1Z"/><path fill="#1A7E64" id="SSp-m2/3" d="M364 157c3.447 0 6.245 2 9 2 0-10.217 1.702-22.097-3-31.5-.767-1.535-1.845-8.5-4-8.5 0 4.537-1 10.591-1 14.5l-2 1 2 2c1.126 2.252-1 16.788-1 20.5ZM93 157c-3.894 0-6.605 2-10 2 0-10.24-1.263-21.974 3-30.5.767-1.533 1.971-8.5 4-8.5l2 4.5c0 2.432-1 6.364-1 9l2 1-2 2 1 3c-.855 1.711-2.091 6.817-1 9 .901 1.802 2 6.594 2 8.5Z"/><path fill="#2FA84F" id="PL6b" d="m271 120-1 1 1-1ZM262 136h1l7-15c-3.367 0-8 12.354-8 15Z"/><path fill="#C9C9CA" id="scwm" d="M158 150c2.247 0 .847 7 4 7 0-6.629-2.13-13.241 1-19.5l6-7c.606-1.212 2.24-5.5 4-5.5l-3-3c-2.748 0-13 15.572-13 19v8l1 1ZM299 149c-2.247 0-.847 7-4 7 0-17.088-1.258-13.015-8-26.5l-4-4.5 4-3c0 .751 12 12.205 12 19v8Z"/><path fill="#CAC7CC" id="fa" d="M187 184c0 1.186 1 1.186 1 0l6-17.5c.656-1.311.797-5.5 3-5.5v-5c-2.156 0-2-7.077-2-9v-2c-1.612 0-3.243-8.987-4-10.5-4.259-8.518-8.762-9.5-18-9.5-1.76 0-3.394 4.288-4 5.5l-6 7c-3.13 6.259-1 12.871-1 19.5l3.5 2c4.663 2.332 12.245-.377 17 2 1.129.565 4.338 5 1.5 5l-1 2c2.751 0 4 12.898 4 16ZM268 184h1c0-2.127 1.74-15 4-15l-1-3-1-2.5c2.398-4.795 24-3.69 24-7.5 0-17.088-1.258-13.015-8-26.5l-4-4.5c-4.498 0-11.614-1.272-14 3.5l-6 11.5c0 1.048.473 3-1 3v2c0 1.048.473 3-1 3v3c0 1.145.579 4-1 4l-1 2v3c1.959 0 9 20.583 9 24Z"/><path fill="#59B262" id="ILA5" d="M211 161h8c0-9.221-1-19.461-1-28l-13 2c0 7.204.984 16.467 4 22.5.809 1.619 2 1.471 2 3.5Z"/><path fill="#59B362" id="ILA2/3" d="M219 161h3c0-1.698 1.195-5.89 2-7.5l-1-20.5h-5c0 8.539 1 18.779 1 28Z"/><path fill="#59B263" id="ILA1" d="M229 161h5v-28h-11l1 20.5c-.805 1.61-2 5.802-2 7.5 2.124 0 4.436 1 6 1v-11c0-2.212 1-2.212 1 0v10Z"/><path fill="#59B362" id="ILA2/3" d="M234 161h4v-28h-4v28Z"/><path fill="#59B262" id="ILA5" d="M238 161h7l2-2.5c2.878-5.756 5-16.845 5-23.5l-14-2v28Z"/><path fill="#58B362" id="ILA6a" d="M197 160c3.948 0 9.393 1 14 1 0-2.029-1.191-1.881-2-3.5-3.016-6.033-4-15.296-4-22.5h-1l-9 1c0 4.532 1.042 11.584 3 15.5.504 1.008.22 4.5-1 4.5v4ZM245 161h14v-6c-1.762 0 0-3.576 0-5 0-4.902 3-9.334 3-14l-10-1c0 6.655-2.122 17.744-5 23.5l-2 2.5Z"/><path fill="#58B263" id="ILA6b" d="M195 147c.981 0 2 7.758 2 9 1.22 0 1.504-3.492 1-4.5-1.958-3.916-3-10.968-3-15.5h-2l2 9v2ZM259 155h1c0-1.145-.579-4 1-4v-3c0-1.048-.473-3 1-3v-2c0-1.048-.473-3 1-3v-4h-1c0 4.666-3 9.098-3 14 0 1.424-1.762 5 0 5Z"/><path fill="#CACCC7" id="cing" d="M263 140c-1.473 0-1 1.952-1 3 1.473 0 1-1.952 1-3Z"/><path fill="#1F9766" id="AId6b" d="M153 154h1l1-1 1-2 1-1v-9l-3 1-1 1v11ZM299 150l4 3 1-10h-1l-4-2v9Z"/><path fill="#1E9C58" id="MOs6b" d="m154 142-1 1 1-1Z"/><path fill="#209666" id="AId6a" d="m137 175-2 1c-6.723 0-14-7.308-14-14v-1c7.476 0 14.312-12 22-12l10-6v12l-6 6-5.5-1c-3.766 1.883-10.423 6.654-7.5 12.5l3 2.5ZM321 176h1c7.275 0 13-8.219 13-15-3.246 0-12.939-8.219-16.5-10l-5.5-3c-3.571 0-5.945-5-9-5l-1 10v2c1.788 0 6 4.885 6 7 7.415 0 8.397-4.705 13 4.5.595 1.19 1.826 3.347 1 5l-3 3.5 1 1Z"/><path fill="#CACCC7" id="cing" d="M262 145c-1.473 0-1 1.952-1 3 1.473 0 1-1.952 1-3ZM195 147c.981 0 2 7.758 2 9-2.156 0-2-7.077-2-9Z"/><path fill="#219665" id="AIv6b" d="M157 150h1l-1-1v1Z"/><path fill="#248A5C" id="ORBl6b" d="M303 157c-1.881 0-6.676 3.088-8.5 4l-14 1-8.5 4-1-2.5c2.398-4.795 24-3.69 24-7.5 3.153 0 1.753-7 4-7v1l4 5v2ZM162 157l3.5 2c4.663 2.332 12.245-.377 17 2 1.129.565 4.338 5 1.5 5-2.638 0-5.237-2.868-7.5-4l-14-1c-1.918-.959-4.203-1.101-6-2l-3.5-3v-1l1-1 1-1 1-2 1-1h1c2.247 0 .847 7 4 7Z"/><path fill="#219665" id="AIv6b" d="M303 153v2l-4-5 4 3ZM156 151l-1 2 1-2Z"/><path fill="#99D2BD" id="OLF" d="M229 161c0 2.079-1 4.177-1 1v-11h1v10Z"/><path fill="#CACCC7" id="cing" d="M261 151c-1.579 0-1 2.855-1 4 1.579 0 1-2.855 1-4Z"/><path fill="#219665" id="AIv6b" d="m155 153-1 1 1-1ZM154 154l-1 1v-1h1Z"/><path fill="#1F9866" id="AIv6a" d="m147 161 2 1 4-6v-1l-6 6Z"/><path fill="#CACCC7" id="cing" d="m260 155-1 2v-2h1Z"/><path fill="#1F9866" id="AIv6a" d="m309 162-2 1c0-1.417-2.383-6-4-6v-2c1.788 0 6 4.885 6 7Z"/><path fill="#24895D" id="ORBl6a" d="M157 172c2.596 0 14.783-.066 12 5.5-1.395 2.789-6 5.226-6 8.5l5-4.5c2.675-2.675 15-8.797 15-13.5l1-2c-2.638 0-5.237-2.868-7.5-4l-14-1c-1.918-.959-4.203-1.101-6-2l-3.5-3-4 6c0 1.303 8 4.157 8 10Z"/><path fill="#009B75" id="GU2/3" d="m97 172-11 5c0-5.721-3-11.644-3-18 3.395 0 6.106-2 10-2 0 3.567 1.188 7.875 3 11.5.523 1.046-.951 3.5 1 3.5Z"/><path fill="#24895D" id="ORBl6a" d="M300 172c-6.225 0-15.183.133-11 8.5.718 1.436 6 4.069 6 6.5-5.063 0-17.95-18-22-18l-1-3 8.5-4 14-1c1.824-.912 6.619-4 8.5-4 1.617 0 4 4.583 4 6-4.411 0-7 5.084-7 9Z"/><path fill="#009B75" id="GU2/3" d="m360 172 11 5c0-6.127 2-11.384 2-18-2.755 0-5.553-2-9-2-2.144 0-.381 4.262-1 5.5-1.345 2.69-3 6.403-3 9.5Z"/><path fill="#009C75" id="GU1" d="m86 177-4 2c0-6.007-4-12.678-4-19l5-1c0 6.356 3 12.279 3 18ZM371 177c2.215 0 1.519 2 3 2 1.951 0 .477-2.454 1-3.5 2.014-4.028 3-10.801 3-15.5l-5-1c0 6.616-2 11.873-2 18Z"/><path fill="#8ADA86" id="CLA" d="M139 175c1.06 0 10 1.223 10 2 3.103 0 5.466-5 8-5 0-5.843-8-8.697-8-10l-2-1-5.5-1c-3.766 1.883-10.423 6.654-7.5 12.5l3 2.5h2Z"/><path fill="#A3DAA3" id="DP" d="M205 182c0-1.777 9.717-1 11.5-1 12.029 0 23.615 1 35.5 1 7.405 0 7-16.028 7-21h-30c0 2.079-1 4.177-1 1-1.564 0-3.876-1-6-1h-11c-4.607 0-10.052-1-14-1v1c0 5.637.488 21 8 21Z"/><path fill="#99D2BD" id="OLF" d="M262 188c0-10.582-7.11-1.28-9 2.5l-2 2.5 1-11c7.405 0 7-16.028 7-21v-1c1.959 0 9 20.583 9 24l-4 3-2 1Z"/><path fill="#8ADA86" id="CLA" d="M317 175h3l3-3.5c.826-1.653-.405-3.81-1-5-4.603-9.205-5.585-4.5-13-4.5l-2 1c-4.411 0-7 5.084-7 9 0 1.874 5.55 5 7 5l10-2Z"/><path fill="#99D2BD" id="OLF" d="M194 188c0-2.331 2.333-6.583 5.5-5l5.5 9v-10c-7.512 0-8-15.363-8-21-2.203 0-2.344 4.189-3 5.5l-6 17.5 4 3 2 1Z"/><path fill="#209665" id="AId5" d="M350 197h1l4-7.5c2.405-4.81 2-12.741 2-18.5-4.738 0-18.879-10-22-10 0 6.781-5.725 15-13 15 0 4.66 23.133 21 28 21ZM105 197h2c0-2.155 6.965-3.233 8.5-4 2.654-1.327 19.5-14.047 19.5-17-6.723 0-14-7.308-14-14-7.372 0-14.327 9-22 9 0 3.843.519 14.537 2 17.5l4 8.5Z"/><path fill="#99D2BD" id="OLF" d="m155 248 6 1c0-5.73 7.27-4 10-4 0-3.689-1.928-7.644 0-11.5l4-6.5c0-2.4-6.772-9.045-8-11.5-1.303-2.606 3-4.479 3-6.5-7.439 0-3.555-14 1-14l1-1 1-1c0-1.577 1.762-2 3-2 0-2.384 8.883-7 11-7 0-3.102-1.249-16-4-16 0 4.703-12.325 10.825-15 13.5l-5 4.5-1 1-3 2-5.5 4c-4.17 2.085-14.4 11-18.5 11v1c7.43 0 7.521 12 12 12 0-3.832-6.551-6.399-4-11.5l5.5-4.5 5-4c9.773-4.886 7.605 9.71 9.5 13.5 1.662 3.324 5.505 14.497 1.5 16.5-4.244 2.122-7.988-6-11.5-6 0 .769 9.865 11.229 11 13.5 3.31 6.62-9 9.368-9 13.5ZM302 248l-6 1c0-5.389-8.831-4-11-4l2-4.5c.752-1.504-4.648-13.5-6-13.5l3-2.5 5-8c1.795-3.589-3-5.044-3-7.5 10.025 0 1-10.111 1-13l-1-1-1-1c0-1.049-13.754-10-16-10 0-2.127 1.74-15 4-15 4.05 0 16.937 18 22 18l3 2c0 1.643 20.067 14 23 14l1 2c-5.662 0-6.926 6-8 6 0-5.902-9.067-17.717-16.5-14-3.623 1.812-8.576 28.712-6 30 2.583 1.292 5.121-2 7.5-2 0 4.027-9.504 7.492-6 14.5 1.248 2.495 9 6.804 9 8.5Z"/><path fill="#209765" id="AId2/3" d="M94 200h1l10-3-4-8.5c-1.481-2.963-2-13.657-2-17.5l-2 1-11 5c0 8.007 8 15.483 8 23ZM351 197l11 3c0-5.692 9-16.509 9-23l-11-5-3-1c0 5.759.405 13.69-2 18.5l-4 7.5Z"/><path fill="#228A5D" id="ORBl5" d="m162 187-3 2c-2.536 0-3.915-1-5.5-1l-.5-4.5c-1.169-2.337-4-3.673-4-6.5 3.103 0 5.466-5 8-5 2.596 0 14.783-.066 12 5.5-1.395 2.789-6 5.226-6 8.5l-1 1ZM295 187l3 2c4.058 0 9-8.205 9-12-1.45 0-7-3.126-7-5-6.225 0-15.183.133-11 8.5.718 1.436 6 4.069 6 6.5Z"/><path fill="#1F9866" id="AIv6a" d="M139 175c0 1.579-2.855 1-4 1l2-1h2Z"/><path fill="#1F9865" id="AIv5" d="M107 197c0 11.131 28-.776 28 7 4.1 0 14.33-8.915 18.5-11l5.5-4c-2.536 0-3.915-1-5.5-1l-.5-4.5c-1.169-2.337-4-3.673-4-6.5 0-.777-8.94-2-10-2 0 1.579-2.855 1-4 1 0 2.953-16.846 15.673-19.5 17-1.535.767-8.5 1.845-8.5 4ZM350 197c0 9.954-22.083 1.792-26.5 4l-2.5 2c-2.933 0-23-12.357-23-14 4.058 0 9-8.205 9-12l10-2c0 1.579 2.855 1 4 1h1c0 4.66 23.133 21 28 21Z"/><path fill="#1F9866" id="AIv6a" d="m320 175 1 1c-1.145 0-4 .579-4-1h3Z"/><path fill="#209764" id="AId1" d="m94 200-3 1c-1.662 0-9-18.922-9-22l4-2c0 8.007 8 15.483 8 23ZM362 200l4 1c0-6.101 8-13.966 8-22-1.481 0-.785-2-3-2 0 6.491-9 17.308-9 23Z"/><path fill="#61D09F" id="TTd" d="M251 193v1c-1.912 0-4.837 12.168-8.5 14-2.991 1.495-11.524 2.452-13.5-1.5l-.5-5.5c-1.819 0-1.024 7.012-3 8-12.713 6.356-18.838-16-20.5-16v-11c0-1.777 9.717-1 11.5-1 12.029 0 23.615 1 35.5 1l-1 11Z"/><path fill="#54BF94" id="AON" d="M205 193c0 3.463 8.434 23.533 3.5 26l-2.5-2c0-8.785-12-25.042-12-29 0-2.331 2.333-6.583 5.5-5l5.5 9v1ZM251 194c0 4.578-9.402 24-1 24 0-9.738 12-23.15 12-30 0-10.582-7.11-1.28-9 2.5l-2 2.5v1Z"/><path fill="#97D6F9" id="STR" d="M192 187c-5.901 0-10.608 4-16 4 0-2.384 8.883-7 11-7 0 1.186 1 1.186 1 0l4 3ZM264 187c8.027 0 16.611 7 21 7 0-1.049-13.754-10-16-10h-1l-4 3Z"/><path fill="#24895D" id="ORBl6a" d="m163 186-1 1 1-1Z"/><path fill="#80CDF8" id="ACB" d="M210 235v8.5c-3.295 6.59-13.425 14.037-20.5 10.5-3.185-1.592-18.5-2.27-18.5-9 0-3.689-1.928-7.644 0-11.5l4-6.5c4.024 0 6.58-10.341 5-13.5-2.336-4.671-5.045-4.5-10-4.5-7.439 0-3.555-14 1-14l1-1 1-1c1.238 0 3-.423 3-2 5.392 0 10.099-4 16-4l2 1c0 3.958 12 20.215 12 29l1 4c0 4.36 3 8.778 3 14ZM246 235l1 10.5c2.968 5.937 13.996 11.252 19.5 8.5 3.4-1.7 18.5-1.195 18.5-9l2-4.5c.752-1.504-4.648-13.5-6-13.5-4.864 0-5.47-12.559-4-15.5 1.666-3.331 6.147-2.5 9-2.5 10.025 0 1-10.111 1-13l-1-1-1-1c-4.389 0-12.973-7-21-7l-2 1c0 6.85-12 20.262-12 30l-1 4c0 3.707-3 8.883-3 13Z"/><path fill="#97D6F9" id="STR" d="M176 191c-1.238 0-3 .423-3 2 1.238 0 3-.423 3-2ZM173 193l-1 1 1-1Z"/><path fill="#99D2BD" id="OLF" d="m207 221 2.5 1c2.56-1.28 8.092-6.546 13-9l6-4c4.878 2.439 17.224 13 20.5 13l1-4c-8.402 0 1-19.422 1-24-1.912 0-4.837 12.168-8.5 14-2.991 1.495-11.524 2.452-13.5-1.5l-.5-5.5c-1.819 0-1.024 7.012-3 8-12.713 6.356-18.838-16-20.5-16 0 3.463 8.434 23.533 3.5 26l-2.5-2 1 4Z"/><path fill="#97D6F9" id="STR" d="m172 194-1 1 1-1ZM286 195l1 1-1-1Z"/><path fill="#219764" id="AIv2/3" d="M135 205c-9.642 0-18.512 9-28 9 0-2.451-12-8.56-12-14l10-3h2c0 11.131 28-.776 28 7v1Z"/><path fill="#A0EE9C" id="EPd" d="M152 221h1c3.512 0 7.256 8.122 11.5 6 4.005-2.003.162-13.176-1.5-16.5-1.895-3.79.273-18.386-9.5-13.5l-5 4-5.5 4.5c-2.551 5.101 4 7.668 4 11.5h1l4 4ZM301 223l-2 2c-2.379 0-4.917 3.292-7.5 2-2.576-1.288 2.377-28.188 6-30 7.433-3.717 16.5 8.098 16.5 14l-1 2c-1.747 0-2 .253-2 2l-1 1-1 1c-1.747 0-2 .253-2 2h-1l-1 1-1 1-1 1-2 1Z"/><path fill="#219764" id="AIv2/3" d="M322 205c9.316 0 17.754 9 27 9 0-.403 13-9.87 13-14l-11-3h-1c0 9.954-22.083 1.792-26.5 4l-2.5 2 1 2Z"/><path fill="#209864" id="AIv1" d="m107 214-6 1c-3.793 0-10-11.121-10-14l3-1h1c0 5.44 12 11.549 12 14ZM349 214l7 1c1.863 0 10-11.4 10-14l-4-1c0 4.13-13 13.597-13 14Z"/><path fill="#6ACAB9" id="PIR" d="M143 253h1c3.765 0 6.799-5 11-5 0-4.132 12.31-6.88 9-13.5-1.135-2.271-11-12.731-11-13.5h-1l-4-4h-1c-4.479 0-4.57-12-12-12-9.642 0-18.512 9-28 9l-6 1c0 9.959 8.024 18.262 15.5 22l3.5 3c0-2.527 5.634.567 6.5 1 2.067 1.033 16.5 10.503 16.5 12ZM312 253h1c2.431 0 5.064-5.282 6.5-6 6.543-3.271 10.634-7 17.5-7 0-2.086 6.407-3.907 8-5.5 4.968-4.968 11-12.541 11-19.5l-7-1c-9.246 0-17.684-9-27-9-5.662 0-6.926 6-8 6l-1 2-2 2-1 1-1 1-2 2h-1l-1 1-1 1-1 1-2 1c0 1.747-.253 2-2 2 0 4.027-9.504 7.492-6 14.5 1.248 2.495 9 6.804 9 8.5l10 5Z"/><path fill="#CBCBC7" id="aco" d="M286 209c-2.853 0-7.334-.831-9 2.5-1.47 2.941-.864 15.5 4 15.5l3-2.5 5-8c1.795-3.589-3-5.044-3-7.5ZM170 209c4.955 0 7.664-.171 10 4.5 1.58 3.159-.976 13.5-5 13.5 0-2.4-6.772-9.045-8-11.5-1.303-2.606 3-4.479 3-6.5Z"/><path fill="#97D6F9" id="STR" d="M235 251c-1.8 0-.517-3.017-1.5-4l-3.5-16.5c0-1.277-.429-6.535-2.5-5.5l-4.5 21.5c0 1.115-1.046 7.5-2 7.5 0-2.518-2-4.286-2-6 0-5.792-2.528-13-9-13 0-5.222-3-9.64-3-14l2.5 1c2.56-1.28 8.092-6.546 13-9l6-4c4.878 2.439 17.224 13 20.5 13 0 3.707-3 8.883-3 13l-2.5-1-6.5 9.5c-.504 1.008-.22 4.5 1 4.5l-3 3Z"/><path fill="#99D2BD" id="OLF" d="m314 211-1 2 1-2ZM313 213c-1.747 0-2 .253-2 2l2-2ZM311 215l-1 1 1-1ZM310 216l-1 1 1-1ZM148 217l4 4-4-4ZM309 217c-1.747 0-2 .253-2 2l2-2ZM306 219l-1 1 1-1ZM305 220l-1 1 1-1ZM304 221l-1 1 1-1ZM303 222l-2 1 2-1ZM301 223l-2 2c1.747 0 2-.253 2-2Z"/><path fill="#A2B1D7" id="SI" d="M219 248c-7.312 0-9.27 8.385-14.5 11-11.134 5.567-24.435.782-34-4-1.733-.867-9.5-3.621-9.5-6 0-5.73 7.27-4 10-4 0 6.73 15.315 7.408 18.5 9 7.075 3.537 17.205-3.91 20.5-10.5V235c6.472 0 9 7.208 9 13ZM238 248c6.351 0 12.658 10.079 18.5 13 7.555 3.777 25.361-3.18 31-6l8.5-6c0-5.389-8.831-4-11-4 0 7.805-15.1 7.3-18.5 9-5.504 2.752-16.532-2.563-19.5-8.5l-1-10.5-2.5-1-6.5 9.5c-.504 1.008-.22 4.5 1 4.5Z"/><path fill="#CAC8C7" id="lot" d="m143 257-1 1c-3.658 0-22-14.393-22-18 0-2.527 5.634.567 6.5 1 2.067 1.033 16.5 10.503 16.5 12v4ZM313 257l2 1c2.091 0 22-15.512 22-18-6.866 0-10.957 3.729-17.5 7-1.436.718-4.069 6-6.5 6v4Z"/><path fill="#7FCCF7" id="OT" d="m217 267-1 1c0 4.327-7.278 6.389-10.5 8-6.643 3.322-15.289 5.856-23 2l-10 1-15-6c-1.565-.783-12.072-12-12.5-12l-1-2-1-2v-2l1-2c3.765 0 6.799-5 11-5l6 1c0 2.379 7.767 5.133 9.5 6 9.565 4.782 22.866 9.567 34 4 5.23-2.615 7.188-11 14.5-11 0 1.714 2 3.482 2 6v3l-1 2-1 2v1l-1 1-1 4ZM311 261l-12.5 12-14 6-11-1c-2.365 1.182-13.499 3.251-16 2l-8-5c-3.667-1.834-10.5-4.59-10.5-10l-2-4v-1l-1-1v-2l-1-2v-4l3-3c6.351 0 12.658 10.079 18.5 13 7.555 3.777 25.361-3.18 31-6l8.5-6 6-1 10 5 1 1v4l-1 2-1 1Z"/><path fill="#99D2BD" id="OLF" d="m144 253-1 2v-2h1ZM313 253v1l-1-1h1Z"/><path fill="#97D6F9" id="STR" d="m235 255 1 2-1-2Z"/><path fill="#99D2BD" id="OLF" d="M143 259h1l-1-2-1 1 1 1Z"/><path fill="#97D6F9" id="STR" d="m221 257-1 2 1-2Z"/><path fill="#99D2BD" id="OLF" d="m315 258-2 1v-2l2 1Z"/><path fill="#97D6F9" id="STR" d="m313 259-1 1 1-2v1ZM144 259l1 2-2-2h1ZM220 259l-1 2 1-2ZM236 259l1 1-1-1ZM312 260l-1 1 1-1ZM237 261l2 4-2-4ZM219 262l-1 1 1-1ZM217 267l-1 1 1-1Z"/></svg>