<svg xmlns="http://www.w3.org/2000/svg" viewBox="0 0 456 320"><path fill="#9AD1BD" id="MOB" d="M145 158c.733 0 3 6.022 3 7l13 27.5c3.075 6.151-1.024 15.952 2 22l5 12c7.107 14.214 36.331 21.338 45 4 6.57-13.14 8-31.315 8-47l1-28c1.326-2.653 4.524-22.953 3-26-2.596-5.192-4.362-10.723-7-16-1.379-2.758-5-3.778-5-6.5l-8.5-4h-21l-14 6c-3.473 1.736-6.291 6.646-9 8-2.018 1.009-9.5 9.185-9.5 12l-1 1v1l-1 1v1l-1 1v1l-1 1v2l-1 1v2l-1 2v15ZM311 145v14.5c-1.042 2.084-2 2.908-2 5.5-.886 0-7.013 14.526-8 16.5l-6 12v5c-6.094 12.188 1.508 27.496-14.5 35.5l-14 7c-9.079 4.54-20.108-4.716-23.5-11.5-8.963-17.925-8-45.184-8-66.5 0-4.268-4.967-28.566-4-30.5 2.667-5.334 3.295-11.589 6-17l7-8.5 7.5-4c10.907-5.453 40.847 6.194 45.5 15.5 1.536 3.072 9 6.995 9 11.5l1 1v1l1 1v1l1 1v2l1 1v1l1 2v4Z"/><path fill="#C7CBCA" id="onl" d="M153 210c0 13.368 26.136 33.818 36.5 39l10 3c1.345.673 16.205 3.397 17 3 12.42-6.21 10.5-26.824 10.5-39v-62c0-10.776 1.781-36.36-7.5-41-2.307-1.154-2.702-6-6.5-6 0 2.722 3.621 3.742 5 6.5 2.638 5.277 4.404 10.808 7 16 1.524 3.047-1.674 23.347-3 26l-1 28c0 15.685-1.43 33.86-8 47-8.669 17.338-37.893 10.214-45-4l-5-12c-3.024-6.048 1.075-15.849-2-22L148 165c-1.643 0-1 3.765-1 5v5c1.735 0 1 6.51 1 8v2c1.579 0 1 2.855 1 4v4c1.059 0 2 6.743 2 8v4c1.473 0 1 1.952 1 3v1l1 1ZM304 209l-1 2c0 6.715-5.286 8.072-8 13.5-5.219 10.438-17.827 19.164-28.5 24.5-2.983 1.491-7.057 1.529-10 3-3.257 1.628-17.54 4.421-19.5.5l-6-8c-4.054-8.109-2-22.382-2-32V141c0-9.608 3.765-34 15-34l-7 8.5c-2.705 5.411-3.333 11.666-6 17-.967 1.934 4 26.232 4 30.5 0 21.316-.963 48.575 8 66.5 3.392 6.784 14.421 16.04 23.5 11.5l14-7c16.008-8.004 8.406-23.312 14.5-35.5v-5l6-12c.987-1.974 7.114-16.5 8-16.5.402 0 0 6.051 0 8v9c-1.579 0-1 2.855-1 4v2c-1.643 0-1 3.765-1 5v3c-1.473 0-1 1.952-1 3v1c-1.579 0-1 2.855-1 4v3l-1 2Z"/><path fill="#99D2BD" id="OLF" d="m151 129-1 1 1-1ZM306 130l1 1-1-1ZM150 131l-1 1 1-1ZM307 132l1 1-1-1ZM149 133l-1 1 1-1ZM308 134l1 1-1-1ZM148 135l-1 1 1-1ZM309 137l1 1-1-1ZM147 138l-1 1 1-1ZM310 139l1 2-1-2ZM146 141l-1 2 1-2ZM309 165c.402 0 0 6.051 0 8 2.064 0 .426-3.353 1-4.5 2.337-4.674 2-11.402 2-17 0-1.363.7-6.5-1-6.5v14.5c-1.042 2.084-2 2.908-2 5.5ZM145 147c-1.628 0-1.628 10 0 10v-10ZM227 154c1.788 0 1 11.092 1 13v37.5c0 1.783.777 11.5-1 11.5v-62ZM148 165c-1.643 0-1 3.765-1 5-2.238 0-2-9.802-2-12 .733 0 3 6.022 3 7ZM147 175c1.735 0 1 6.51 1 8-1.735 0-1-6.51-1-8ZM309 182c-1.579 0-1 2.855-1 4 1.579 0 1-2.855 1-4ZM148 185c1.579 0 1 2.855 1 4-1.579 0-1-2.855-1-4ZM308 188c-1.643 0-1 3.765-1 5 1.643 0 1-3.765 1-5ZM149 193c1.059 0 2 6.743 2 8-1.931 0-2-6.225-2-8ZM307 196c-1.473 0-1 1.952-1 3 1.473 0 1-1.952 1-3ZM306 200c-1.579 0-1 2.855-1 4 1.579 0 1-2.855 1-4ZM151 205c1.473 0 1 1.952 1 3-1.473 0-1-1.952-1-3ZM305 207l-1 2 1-2ZM152 209l1 1-1-1ZM304 209l-1 2 1-2Z"/></svg>