<svg xmlns="http://www.w3.org/2000/svg" viewBox="0 0 456 320"><path fill="#1E9C59" id="MOs1" d="M132 78c0 2.124 1 4.436 1 6l12.5-8c10.888-5.444 23.195-7.598 34-13 4.933-2.466 22.198-2.4 27 0l10.5 9 4-1c0-5.967-7.47-9.985-11.5-12-18.24-9.12-41.002-.499-58 8-2.367 1.183-19.5 9.622-19.5 11ZM325 79c-1.542 0-.512 5-2 5l-17.5-11c-7.821-3.91-39.747-15.126-48-11l-8 1c-2.433 1.217-9.5 7.692-9.5 10h-1c0-2.109-2.535-2-4-2 0-6.728 11.034-11.767 15.5-14 16.633-8.316 44.181 5.09 58 12 2.326 1.163 16.5 7.382 16.5 10Z"/><path fill="#1E9D58" id="MOs2/3" d="M133 85c0 5.998 2 10.447 2 16 4.643 0 12.555-9.527 17.5-12 9.056-4.528 17.93-9.465 27-14 2.997-1.498 6.931-1.466 10-3 4.723-2.361 21.5 1.587 21.5 6l6-5v-1l-10.5-9c-4.802-2.4-22.067-2.466-27 0-10.805 5.402-23.112 7.556-34 13L133 84v1ZM324 85c0 5.474-2 12.082-2 17l-11.5-9c-9.859-4.93-19.131-11.066-29-16-6.903-3.452-21.765-8.118-30-4l-6.5 5-5-5c0-2.308 7.067-8.783 9.5-10l8-1c8.253-4.126 40.179 7.09 48 11L323 84l1 1Z"/><path fill="#3EA665" id="ACAd1" d="M222 94h12l1-13.5 4-7.5c0-2.109-2.535-2-4-2l-4 5.5c-1.038 2.076-.179 6.5-2.5 6.5l-1.5-4.5-6-7.5-4 1v1l4 6.5c1.858 3.717 1 10.07 1 14.5Z"/><path fill="#1F9D58" id="MOs5" d="M133 149h2v-1c0-9.39 1.17-15.839 5-23.5 6.942-13.884 34.635-21.568 46.5-27.5 2.364-1.182 5.696 1 7.5 1 .977 0 12.972-19 17-19v-1c0-4.413-16.777-8.361-21.5-6-3.069 1.534-7.003 1.502-10 3-9.07 4.535-17.944 9.472-27 14-4.945 2.473-12.857 12-17.5 12v1c0 15.259-2 31.703-2 47ZM321 149h2c0-17.129-1-29.812-1-47l-11.5-9c-9.859-4.93-19.131-11.066-29-16-6.903-3.452-21.765-8.118-30-4l-6.5 5v1c1.282 0 17 15.712 17 19h1c0-1.265 6.292-1.604 7.5-1 5.911 2.955 12.016 5.008 18 8 21.624 10.812 32.5 17.323 32.5 43v1Z"/><path fill="#40A565" id="ACAd2/3" d="m222 94-6 1c0-3.898-.339-16-5-16v-1l6-5 4 6.5c1.858 3.717 1 10.07 1 14.5ZM234 94l6 1c0-2.72 1.311-16 5-16v-1l-5-5h-1l-4 7.5-1 13.5Z"/><path fill="#1E9D5A" id="MOp1" d="m100 168-4 2-3-8.5c-2.046-4.092-3.168-27.664-1-32 3.816-7.632 8.127-15.255 12-23l9-11c1.67-3.34 15.722-17.5 19-17.5 0 2.124 1 4.436 1 6v1c-4.636 0-14.307 10.114-16 13.5l-8 9c-3.74 7.479-8.284 14.568-12 22-5.852 11.704 3 27.426 3 38.5Z"/><path fill="#3EA566" id="ACAd5" d="M194 99c2.364 0 3.053 3 5 3 5.844 0 10.752-7 17-7 0-3.898-.339-16-5-16-4.028 0-16.023 19-17 19v1ZM257 103h1c0-3.165 4-2.508 4-5 0-3.288-15.718-19-17-19-3.689 0-5 13.28-5 16 2.83 0 17 4.608 17 8Z"/><path fill="#1E9D5A" id="MOp1" d="m356 168 5 2c0-7.415 8.211-30.078 4-38.5-2.92-5.84-5.059-12.118-8-18l-11-15c-1.915-3.83-16.976-19.5-21-19.5-1.542 0-.512 5-2 5l1 1c2.642 0 15.482 12.464 17 15.5l14 19c2.957 5.914 3.088 13.175 6 19 2.441 4.881-5 24.3-5 29.5Z"/><path fill="#1F9C58" id="MOp2/3" d="M100 168h1c4.151 0 6.436-5 11-5v-1c0-15.682-2.077-25.346 5-39.5l6-8 12-12.5v-1c0-5.553-2-10.002-2-16-4.636 0-14.307 10.114-16 13.5l-8 9c-3.74 7.479-8.284 14.568-12 22-5.852 11.704 3 27.426 3 38.5ZM344 162l12 6c0-5.2 7.441-24.619 5-29.5-2.912-5.825-3.043-13.086-6-19l-14-19c-1.518-3.036-14.358-15.5-17-15.5 0 5.474-2 12.082-2 17l7.5 8c8.398 8.398 10.723 16.945 15.5 26.5 1.003 2.005-.056 4.888 1 7l-1 13.5c0 1.145.579 4-1 4v1Z"/><path fill="#2FA750" id="PL1" d="M223 132h10c0-11.858 1-25.457 1-38h-12c0 12.908 1 25.583 1 38Z"/><path fill="#2FA74F" id="PL2/3" d="M219 132h4c0-12.417-1-25.092-1-38l-6 1c0 4.076-.401 28.697 1 31.5l2 5.5ZM233 132h5c0-12.065 2-24.365 2-37l-6-1c0 12.543-1 26.142-1 38Z"/><path fill="#2EA84F" id="PL5" d="M204 131c4.958 0 9.314 1 15 1l-2-5.5c-1.401-2.803-1-27.424-1-31.5-6.248 0-11.156 7-17 7v1c0 8.088 5 19.349 5 28ZM252 131h1c0-9.662 4-18.809 4-28 0-3.392-14.17-8-17-8 0 12.635-2 24.935-2 37l14-1Z"/><path fill="#1D9C5A" id="MOs6a" d="M165 133c-12.548 0-23.212 15-30 15 0-9.39 1.17-15.839 5-23.5 6.942-13.884 34.635-21.568 46.5-27.5 2.364-1.182 5.696 1 7.5 1v1c-2.333 0-7 10.69-7 13-2.425 0-5 5.116-5 7-5.213 0-13 2.637-13 9 0 1.247-2.467 5-4 5ZM291 133c12.976 0 23.256 15 30 15 0-25.677-10.876-32.188-32.5-43-5.984-2.992-12.089-5.045-18-8-1.208-.604-7.5-.265-7.5 1l7 14c1.097 0 5 5.986 5 7 4.445 0 6.884 2.192 10.5 4 1.081.541 3.797 5 1.5 5l4 5Z"/><path fill="#3FA664" id="ACAd6a" d="M258 103c4.62 0 7.051 9 12 9l-7-14h-1c0 2.492-4 1.835-4 5ZM199 103c-4.093 0-7.255 9-12 9 0-2.31 4.667-13 7-13 2.364 0 3.053 3 5 3v1Z"/><path fill="#1E9C5A" id="MOp5" d="m133 149-4.5 3c-2.33 1.165-15.276 10-16.5 10 0-15.682-2.077-25.346 5-39.5l6-8 12-12.5c0 15.259-2 31.703-2 47ZM323 149l21 12c1.579 0 1-2.855 1-4l1-13.5c-1.056-2.112.003-4.995-1-7-4.777-9.555-7.102-18.102-15.5-26.5l-7.5-8c0 17.188 1 29.871 1 47Z"/><path fill="#2FA850" id="PL6a" d="M198 131h6c0-8.651-5-19.912-5-28-4.093 0-7.255 9-12 9-2.425 0-5 5.116-5 7l2 2 1 1v1c4.781 0 8.582 8 13 8ZM253 131h5c5.364 0 9.612-9 14-9 0-1.658 1.461-3 3-3 0-1.014-3.903-7-5-7-4.949 0-7.38-9-12-9h-1c0 9.191-4 18.338-4 28Z"/><path fill="#268E44" id="FRP6a" d="M184 123h1v-1l-1-1-2-2c-5.213 0-13 2.637-13 9l11-5h4ZM277 123l10 5c2.297 0-.419-4.459-1.5-5-3.616-1.808-6.055-4-10.5-4-1.539 0-3 1.342-3 3v1h5Z"/><path fill="#22885E" id="ORBm6a" d="m184 121 1 1-1-1ZM256 156l-1 1c-4.669 0-6-1.1-6-6v-2l1-1v-2l1.5-3c2.495-2.495 6.5-8.578 6.5-12 5.364 0 9.612-9 14-9v1c0 9.968-16 22.089-16 33Z"/><path fill="#24895D" id="ORBl6a" d="m151 155-2 4c10.855 0 18.142-14 32-14l-3-8.5c0-3.334 2-9.21 2-13.5l-11 5c0 1.247-2.467 5-4 5l-12 19-1 1-1 2Z"/><path fill="#238A5C" id="ORBvl6a" d="M182 146c7.113 0 12.212 10 19 10 0-8.093-17-25.615-17-33h-4c0 4.29-2 10.166-2 13.5l3 8.5 1 1Z"/><path fill="#22885E" id="ORBm6a" d="M201 156v1c6.343 0 6-2.253 6-8v-2l-2-3.5c-1.802-3.605-7-8.382-7-12.5-4.418 0-8.219-8-13-8h-1c0 7.385 17 24.907 17 33Z"/><path fill="#238A5C" id="ORBvl6a" d="M274 146c-6.397 0-11.999 10-18 10 0-10.911 16-23.032 16-33h5l1 14.5-3 7.5-1 1Z"/><path fill="#24895D" id="ORBl6a" d="M303 152c0 2.46 4 4.17 4 7-10.573 0-18.13-14-32-14l3-7.5-1-14.5 10 5 4 5c0 3.852 12 14.043 12 19Z"/><path fill="#58B362" id="ILA6a" d="m204 131 3 16-2-3.5c-1.802-3.605-7-8.382-7-12.5h6Z"/><path fill="#59B262" id="ILA5" d="M207 149c1.845 0 1.441 3.381 2 4.5 1.744 3.487 8.195 13.5 10 13.5v-35c-5.686 0-10.042-1-15-1l3 16v2ZM249 151c-1.942 0-9.343 16-11 16-1.735 0-1-6.51-1-8 0-8.932 1-18.732 1-27l14-1-2 15v2l-1 1v2Z"/><path fill="#58B362" id="ILA6a" d="M258 131c0 3.422-4.005 9.505-6.5 12l-1.5 3 2-15h6Z"/><path fill="#59B362" id="ILA2/3" d="m219 168 4 1c2.261 0 .297-6.094 1-7.5 4.112-8.223-1-20.43-1-29.5h-4v36Z"/><path fill="#59B263" id="ILA1" d="M223 170h10v-38h-10c0 9.07 5.112 21.277 1 29.5-.703 1.406 1.261 7.5-1 7.5v1Z"/><path fill="#59B362" id="ILA2/3" d="m238 168-5 2v-38h5c0 8.268-1 18.068-1 27 0 1.49-.735 8 1 8v1Z"/><path fill="#209666" id="AId6a" d="M147 159h1c0-1.429 1.288-4 3-4l1-2 1-1 12-19c-12.548 0-23.212 15-30 15v1c0 6.949 5.684 10 12 10ZM303 152c1.59 0 6 5.662 6 7 6.725 0 12-2.606 12-10v-1c-6.744 0-17.024-15-30-15 0 3.852 12 14.043 12 19Z"/><path fill="#228A5D" id="ORBl5" d="M190 166c-4.078 0-6.474-6.513-13.5-3-4.707 2.354-27.049 18-29.5 18-1.183 0-1.535-3.57-2-4.5-3.718-7.435 4-11.025 4-17.5 10.855 0 18.142-14 32-14l1 1c0 3.611 8 14.192 8 20ZM309 182h1c0-3.401 5.023-6.454 3-10.5-1.392-2.784-6-9.594-6-12.5-10.573 0-18.13-14-32-14l-1 1c0 5.921-7 11.741-7 19 2.455 0 5.873-4.314 8.5-3 4.112 2.056 8.887 2.944 13 5l11 8 9.5 7Z"/><path fill="#23885C" id="ORBvl5" d="M201 175h1c0-3.036 2.718-9.064 1-12.5l-2-5.5v-1c-6.788 0-11.887-10-19-10 0 3.611 8 14.192 8 20l11 9ZM266 167l-11 8-2-4.5c0-3.755 2-8.981 2-13.5l1-1c6.001 0 11.603-10 18-10 0 5.921-7 11.741-7 19l-1 1v1Z"/><path fill="#23885E" id="ORBm5" d="m250 148-1 1 1-1Z"/><path fill="#209665" id="AId5" d="M122 188h1l6-5.5c2.69-5.38 18-18.553 18-23.5-6.316 0-12-3.051-12-10h-2l-4.5 3c-2.33 1.165-15.276 10-16.5 10v1c1.169 0 2.295 10.09 3 11.5 1.637 3.274 2.38 6.761 4 10 .614 1.228 3 1.276 3 3.5Z"/><path fill="#23885E" id="ORBm5" d="M219 168c0 3.678-17 13.463-17 7 0-3.036 2.718-9.064 1-12.5l-2-5.5c6.343 0 6-2.253 6-8 1.845 0 1.441 3.381 2 4.5 1.744 3.487 8.195 13.5 10 13.5v1Z"/><path fill="#209665" id="AId5" d="M333 188h1l5-6.5c2.364-4.728 5-14.051 5-19.5v-1l-21-12h-2c0 7.394-5.275 10-12 10 0 2.386 14.389 18.889 17 21.5l7 7.5Z"/><path fill="#23885E" id="ORBm5" d="m255 175-2 2c-4.512 0-15-3.264-15-9v-1c1.657 0 9.058-16 11-16 0 4.9 1.331 6 6 6 0 4.519-2 9.745-2 13.5l2 4.5Z"/><path fill="#1F9866" id="AIv6a" d="m153 152-1 1 1-1ZM307 159h2c0-1.338-4.41-7-6-7 0 2.46 4 4.17 4 7ZM152 153l-1 2 1-2ZM148 159h1l2-4c-1.712 0-3 2.571-3 4Z"/><path fill="#1F9865" id="AIv5" d="M147 182c-5.876 0-10.905 12.298-19.5 8-1.119-.559-4.5-.155-4.5-2l6-5.5c2.69-5.38 18-18.553 18-23.5h2c0 6.475-7.718 10.065-4 17.5.465.93.817 4.5 2 4.5v1ZM310 182c0 1.4 13.617 9 16 9 1.647 0 7-1.268 7-3l-7-7.5c-2.611-2.611-17-19.114-17-21.5h-2c0 2.906 4.608 9.716 6 12.5 2.023 4.046-3 7.099-3 10.5Z"/><path fill="#238A5E" id="ORBl2/3" d="M149 186h1l2-1 13.5-7c4.867-2.433 10.61 0 15.5 0l6 1c0-4.943 3-7.723 3-13-4.078 0-6.474-6.513-13.5-3-4.707 2.354-27.049 18-29.5 18v1l2 4ZM305 185h2c0-1.481 2-.785 2-3l-9.5-7-11-8c-4.113-2.056-8.888-2.944-13-5-2.627-1.314-6.045 3-8.5 3l-1 1v1c0 4.304 3 7.464 3 12l7-1c3.036 0 9.064-2.718 12.5-1l16.5 8Z"/><path fill="#209765" id="AId2/3" d="M344 195h1c0-7.431 11-18.718 11-27l-12-6c0 5.449-2.636 14.772-5 19.5l-5 6.5c0 1.489 8.253 7 10 7ZM111 195h1c1.79 0 10-4.829 10-7 0-2.224-2.386-2.272-3-3.5-1.62-3.239-2.363-6.726-4-10-.705-1.41-1.831-11.5-3-11.5-4.564 0-6.849 5-11 5 0 9.681 10 17.806 10 27Z"/><path fill="#228A5D" id="ORBl5" d="m267 165-1 1 1-1Z"/><path fill="#248A5D" id="ORBvl2/3" d="M199 181h5c0-3.531-3-3.286-3-6l-11-9c0 5.277-3 8.057-3 13 1.496 0 12 .988 12 2ZM258 180l-5 1v-4c1.747 0 2-.253 2-2l11-8c0 4.304 3 7.464 3 12l-11 1Z"/><path fill="#209764" id="AId1" d="m111 195-3 2-3-5.5c-2.951-5.902-9-14.707-9-21.5l4-2h1c0 9.681 10 17.806 10 27Z"/><path fill="#24885D" id="ORBm2/3" d="M204 181h15c0-4.358 4-6.49 4-11v-1l-4-1c0 3.678-17 13.463-17 7h-1c0 2.714 3 2.469 3 6ZM238 181h15v-4c-4.512 0-15-3.264-15-9l-5 2 5 11Z"/><path fill="#209764" id="AId1" d="m345 195 4 2c0-3.467 12-22.085 12-27l-5-2c0 8.282-11 19.569-11 27Z"/><path fill="#23895D" id="ORBm1" d="M229 180c2.723 0 5.778 1 9 1l-5-11h-10c0 4.51-4 6.642-4 11l8-1c0-1.235-.643-5 1-5 0-3.177 1-1.079 1 1v4Z"/><path fill="#99D2BD" id="OLF" d="M227 180c0 1.399 2 1.399 2 0v-4l-1-1c-1.643 0-1 3.765-1 5Z"/><path fill="#24885D" id="ORBm2/3" d="m255 175-2 2c1.747 0 2-.253 2-2Z"/><path fill="#6ACAB9" id="PIR" d="M163 243h2l3-3 1-1c0-2.978 1-6.49 1-10 0-9.48-11-18.168-11-23.5 0-12.175 22-14.911 22-27.5-4.89 0-10.633-2.433-15.5 0l-13.5 7-2 2h-1l-2 1c0 2.115-5.996 5.248-7.5 6-7.127 3.563-13.08 14-21.5 14 0 9.478 1.102 14.301 10.5 19 1.445.723.091 2 2.5 2 0-2.254 7.491-.504 8.5 0 5.494 2.747 18.18 14 23.5 14ZM291 243h2c4.628 0 22.068-12.284 27.5-15 1.956-.978 4.077 1 5.5 1l2.5-2c9.934-4.967 9.5-10.605 9.5-19-8.705 0-25.603-21-31-21l-2-2-16.5-8c-3.436-1.718-9.464 1-12.5 1 0 11.2 16.903 17.306 21 25.5 1.378 2.756-8.391 16.781-10 20v15l4 4.5Z"/><path fill="#99D2BD" id="OLF" fill-rule="evenodd" d="m166 201-2 5.5c.927 1.855 3.403 11.5 6.5 11.5 1.624 0 8.228-17-4.5-17m17 18c-2.993 0-12.899 10-13 10 0-9.48-11-18.168-11-23.5 0-12.175 22-14.911 22-27.5l6 1c1.496 0 12 .988 12 2 0 2.409 1 5.181 1 7-7.657 0-12.469 11-13 11 0-4.874-8.01 3.519-9 5.5-3.088 6.176 5 11.584 5 14.5ZM284 201c0 1.934-3.692 17 1.5 17 2.411 0 13.802-17-1.5-17m-10 18 11 7.5c.465.93.817 4.5 2 4.5v-7.5c1.609-3.219 11.378-17.244 10-20-4.097-8.194-21-14.3-21-25.5l-7 1-11 1c0 3.138-2 5.662-2 8 8.254 0 12.002 10 13 10 3.158 0 3.961.461 7 3.5 8.141 8.141-2 11.419-2 17.5Z"/><path fill="#A3DAA3" id="DP" d="M229 192c6.244 0 13.428 1 19 1 3.767 0 5.08-5 8-5 0-2.338 2-4.862 2-8l-5 1h-15c-3.222 0-6.277-1-9-1 0 1.399-2 1.399-2 0l-8 1h-20c0 2.409 1 5.181 1 7 3.684 0 4.539 5 9 5 5.245 0 12.085-1 18-1 .839 0 2-1.93 2 0Z"/><path fill="#219764" id="AIv2/3" d="M147 188c-6.979 0-25.824 23.852-32 11.5l-3-4.5c1.79 0 10-4.829 10-7h1c0 1.845 3.381 1.441 4.5 2 8.595 4.298 13.624-8 19.5-8l2 4v1l-2 1ZM334 188c0 1.489 8.253 7 10 7 0 2.957-2.14 4.82-4.5 6-9.122 4.561-16.91-5.955-25-10l-7.5-5v-1c0-1.481 2-.785 2-3h1c0 1.4 13.617 9 16 9 1.647 0 7-1.268 7-3h1Z"/><path fill="#238A5D" id="ORBl1" d="M150 186v1l2-2-2 1ZM307 186v1l-2-2h2v1Z"/><path fill="#209864" id="AIv1" d="M149 187h1v-1h-1v1ZM349 197c0 4.017-7.383 11-11 11-8.705 0-25.603-21-31-21v-1l7.5 5c8.09 4.045 15.878 14.561 25 10 2.36-1.18 4.5-3.043 4.5-6h1l4 2ZM149 187l-2 1 2-1ZM108 197c0 4.046 5.704 11 10 11 8.42 0 14.373-10.437 21.5-14 1.504-.752 7.5-3.885 7.5-6-6.979 0-25.824 23.852-32 11.5l-3-4.5h-1l-3 2Z"/><path fill="#54BF94" id="AON" d="M197 249v1c-3.061 0-4.86 6.68-7.5 8-5.862 2.931-24.5-9.258-24.5-15l3-3 1-1c0-2.978 1-6.49 1-10 .101 0 10.007-10 13-10 7.627 0 3-8.966 3-15 1.579 0 1-2.855 1-4v-1c.531 0 5.343-11 13-11 3.684 0 4.539 5 9 5 0 5.09 7.152 28 12 28l2 4.5-3 4.5c-5.71 0-22 11.793-22 18l-1 1ZM291 245l-4.5 6c-5.259 2.63-10.821 4.41-16 7-6.676 3.338-7.565-9-11.5-9 0-6.83-16.313-19-23-19l-2-3.5 1-5.5c2.049 0 3.941-.383 5-2.5 1.88-3.761 8-21.84 8-25.5 3.767 0 5.08-5 8-5 8.254 0 12.002 10 13 10v1l1 7c0 6.942-4.934 13 4 13l11 7.5c.465.93.817 4.5 2 4.5v7.5l4 4.5v2Z"/><path fill="#99D2BD" id="OLF" d="M227 192c.839 0 2-1.93 2 0 0 9.802-2 8.458-2 0Z"/><path fill="#61D09F" id="TTd" d="M221 221h14c2.049 0 3.941-.383 5-2.5 1.88-3.761 8-21.84 8-25.5-5.572 0-12.756-1-19-1 0 9.802-2 8.458-2 0-5.915 0-12.755 1-18 1 0 5.09 7.152 28 12 28Z"/><path fill="#CBCBC7" id="aco" d="M186 204c0 6.034 4.627 15-3 15 0-2.916-8.088-8.324-5-14.5.99-1.981 9-10.374 9-5.5v1c-1.579 0-1 2.855-1 4ZM270 206c0 6.942-4.934 13 4 13 0-6.081 10.141-9.359 2-17.5-3.039-3.039-3.842-3.5-7-3.5v1c1.841 0 3.202 7 1 7Z"/><path fill="#99D2BD" id="OLF" d="M269 199c1.841 0 3.202 7 1 7l-1-7ZM187 200c-1.579 0-1 2.855-1 4 1.579 0 1-2.855 1-4Z"/><path fill="#A0EE9C" id="EPd" d="m166 201-2 5.5c.927 1.855 3.403 11.5 6.5 11.5 1.624 0 8.228-17-4.5-17ZM284 201c0 1.934-3.692 17 1.5 17 2.411 0 13.802-17-1.5-17Z"/><path fill="#99D2BD" id="OLF" d="M220 230h16l-2-3.5 1-5.5h-14l2 4.5-3 4.5Z"/><path fill="#CAC8C7" id="lot" d="M163 243c0 1.732 2 1.808 2 6-5.683 0-34-15.915-34-20 0-2.254 7.491-.504 8.5 0 5.494 2.747 18.18 14 23.5 14ZM291 245c0 1.145-.579 4 1 4 3.98 0 24.264-10.764 27-13.5 2.094-2.094 7-2.6 7-6.5-1.423 0-3.544-1.978-5.5-1-5.432 2.716-22.872 15-27.5 15l-2 2Z"/><path fill="#62CF9E" id="TTv" d="M211 262h1l1-1c1.811 0 12.972-14.443 14-16.5.471-.942-.73-4.5 1.5-4.5l2.5 6.5c1.743 3.486 9.668 15.5 14 15.5 10.337 0 14-4.012 14-13 0-6.83-16.313-19-23-19h-16c-5.71 0-22 11.793-22 18l-1 1v1c0 8.367 5.808 12 14 12Z"/><path fill="#99D2BD" id="OLF" d="m169 239-1 1 1-1ZM197 250c0 8.367 5.808 12 14 12 0 1.32-8.558 3.471-9.5 3-2.989-1.494-7.07-.535-10-2-5.662-2.831-11.3-5.15-17-8-1.733-.867-9.5-3.621-9.5-6 0-4.192-2-4.268-2-6h2c0 5.742 18.638 17.931 24.5 15 2.64-1.32 4.439-8 7.5-8ZM293 243l-2 2v-2h2ZM292 249l-6.5 4c-5.198 2.599-9.896 5.448-15 8-4.786 2.393-11.207 1.604-16 4-.942.471-9.5-1.68-9.5-3 10.337 0 14-4.012 14-13 3.935 0 4.824 12.338 11.5 9 5.179-2.59 10.741-4.37 16-7l4.5-6c0 1.145-.579 4 1 4ZM198 248l-1 1 1-1ZM213 261l-1 1 1-1Z"/></svg>