<svg xmlns="http://www.w3.org/2000/svg" viewBox="0 0 456 320"><path fill="#99D2BD" id="OLF" d="M192 114v1c1.257 0 8-.941 8-2-2.707 0-5.903 1-8 1Z"/><path fill="#9AD1BD" id="MOB" d="M192 115c-4.377 0-9.681 5.09-13.5 7-33.849 16.925-17.696 47.108-5.5 71.5 3.951 7.902 2.253 20.506 8 32 4.056 8.112 23.526 10.948 28 2 2.423-4.845 5.628-9.255 8-14 2.127-4.253-.077-10.845 2-15 1.541-3.082 4-29.608 4-34l4-31-4-10-3-3.5-6.5-5c-1.134-.567-6.5-.546-6.5-2h-7c0 1.059-6.743 2-8 2Z"/><path fill="#99D2BD" id="OLF" d="m221 119-1 1-6.5-5c-1.134-.567-6.5-.546-6.5-2 3.048 0 14 2.105 14 6ZM249 113c-1.774 0-7-.273-7 2 1.296 0 7-.825 7-2Z"/><path fill="#9AD1BD" id="MOB" d="M264 115c5.167 0 11 5.75 15.5 8 32.564 16.282 15.205 48.09 3.5 71.5-3.723 7.445-1.89 19.781-7 30-8.4 16.8-29.118 5.765-35-6-4.443-8.886-1.588-21.176-6-30-3.113-6.226 2.153-16.694-1-23-1.554-3.108-5.693-30.613-4-34l6-11.5 6-5c1.296 0 7-.825 7-2h7c0 1.059 6.743 2 8 2Z"/><path fill="#99D2BD" id="OLF" d="M264 114v1c-1.257 0-8-.941-8-2 1.49 0 8-.735 8 1Z"/><path fill="#C7CBCA" id="onl" d="M298 221c0 3.724-3.481 4.463-5 7.5-5.672 11.345-9.032 9.766-18.5 14.5h-13c-3.059 1.529-12.017 3.992-16 2L231 223.5l-2.5-14.5c-1.563 0-1.846 11.193-2.5 12.5-2.409 4.818-10.52 21.01-15.5 23.5-3.92 1.96-12.019-.51-15-2h-14c-9.184-4.592-13.675-5.851-18.5-15.5-.895-1.789-4-2.387-4-5.5 0-18.036-6-35.509-6-55v-11c1.643 0 1-3.765 1-5v-2c1.579 0 1-2.855 1-4v-2c1.473 0 1-1.952 1-3v-1l1-2v-1l1-1 1-2v-1l1-1 1-1c0-5.972 25.84-16 31-16v1c-4.377 0-9.681 5.09-13.5 7-33.849 16.925-17.696 47.108-5.5 71.5 3.951 7.902 2.253 20.506 8 32 4.056 8.112 23.526 10.948 28 2 2.423-4.845 5.628-9.255 8-14 2.127-4.253-.077-10.845 2-15 1.541-3.082 4-29.608 4-34l4-31-4-10-3-3.5 1-1c1.984 0 4.942 3.385 6 5.5l1.5 3.5c1.006 0 3.189-9 6.5-9l1 1-6 11.5c-1.693 3.387 2.446 30.892 4 34 3.153 6.306-2.113 16.774 1 23 4.412 8.824 1.557 21.114 6 30 5.882 11.765 26.6 22.8 35 6 5.11-10.219 3.277-22.555 7-30 11.705-23.41 29.064-55.218-3.5-71.5-4.5-2.25-10.333-8-15.5-8v-1c5.217 0 31 9.409 31 15l2 2v2l2 2v2l1 1v1l1 2v2c0 1.145-.579 4 1 4v1c0 1.145-.579 4 1 4v31.5c-4.812 9.625-5 26.905-5 37.5Z"/><path fill="#99D2BD" id="OLF" d="m235 119 1 1 6-5c-1.572 0-7 2.052-7 4ZM295 129l2 2-2-2ZM161 130l-1 1 1-1ZM160 131l-1 1 1-1ZM159 133l-1 2 1-2ZM297 133l2 2-2-2ZM158 135l-1 1 1-1ZM157 137l-1 2 1-2ZM299 137l1 1-1-1ZM300 139l1 2-1-2ZM156 140c-1.473 0-1 1.952-1 3 1.473 0 1-1.952 1-3ZM301 143c1.579 0 1 2.855 1 4-1.579 0-1-2.855-1-4ZM155 145c-1.579 0-1 2.855-1 4 1.579 0 1-2.855 1-4ZM302 148c1.579 0 1 2.855 1 4-1.579 0-1-2.855-1-4ZM154 151c-1.643 0-1 3.765-1 5 1.643 0 1-3.765 1-5ZM303 160c1.579 0 1 2.855 1 4l1 13 2 3.5c1.224 2.448 1.85 27.299 1 29l-3 2c-1.094 2.189-3.035 9.5-7 9.5 0-10.595.188-27.875 5-37.5V160ZM153 167c-1.715 0-1.231 9.962-2 11.5-1.828 3.657-5.185 25.629-3 30l4 5c.958 1.917 3.892 8.5 7 8.5 0-18.036-6-35.509-6-55Z"/></svg>