<svg xmlns="http://www.w3.org/2000/svg" viewBox="0 0 456 320"><path fill="#9AD1BD" id="MOB" d="M151 145v5c0 15.541 11.424 32.349 18 45.5 4.167 8.334-.258 20.484 4 29 6.964 13.927 32.475 17.05 40 2l6-18c2.372-4.743-.436-12.128 2-17 3.01-6.02-2.067-15.867 1-22l1-17c1.487-2.973 3.82-21.361 2-25-2.692-5.384-6.253-10.507-9-16l-5-3.5c-5.84 0-13.413-4.044-19.5-1-3.033 1.516-19.193 9-21.5 9l-1 1h-1c0 1.577-1.762 2-3 2 0 1.747-.253 2-2 2 0 1.747-.253 2-2 2v1l-2 2-6 12c0 1.357-.647 6-2 6v1ZM303 137c0 4.696 2 7.885 2 13 0 15.305-9.642 27.784-16 40.5-3.684 7.368-.038 22.075-3 28l-5 9c-4.406 8.812-29.571 13.859-36 1-2.923-5.845-4.136-12.273-7-18-2.269-4.537.298-11.403-2-16-2.609-5.219 1.666-13.668-1-19l-1-18c-1.567-3.134-4.909-25.183-3-29l6-13.5c1.747 0 2-.253 2-2l6-5h2l1-1c9.97 0 19.481-.51 28.5 4l12.5 6c0 2.982 6.795 6.09 8 8.5l6 11.5Z"/><path fill="#99D2BD" id="OLF" d="m248 107-1 1 1-1Z"/><path fill="#C7CBCA" id="onl" d="m301 218-1 1c0 5.517-8.524 13.024-12.5 17-4.772 4.772-7.862 4.431-13 7-14.824 7.412-31.546 14.409-41.5-5.5-7.23-14.46-4-36.776-4-54l-.5-25.5-.5 55c-1.643 0-1 3.765-1 5 0 33.97-19.919 37.791-45.5 25l-7-2c-4.484-2.242-18.5-17.684-18.5-23 0-8.985-1.306-26.113-5-33.5-.652-1.303-.219-7.5-2-7.5v-26l2-1c0 15.541 11.424 32.349 18 45.5 4.167 8.334-.258 20.484 4 29 6.964 13.927 32.475 17.05 40 2l6-18c2.372-4.743-.436-12.128 2-17 3.01-6.02-2.067-15.867 1-22l1-17c1.487-2.973 3.82-21.361 2-25-2.692-5.384-6.253-10.507-9-16l-5-3.5c1.738 0 6 .686 6 3l1 1c0 2.548 7.689 8.878 9 11.5v13l1 6.5.5 10 .5-9.5c0-5.77-.643-28.5 7-28.5h1l-6 13.5c-1.909 3.817 1.433 25.866 3 29l1 18c2.666 5.332-1.609 13.781 1 19 2.298 4.597-.269 11.463 2 16 2.864 5.727 4.077 12.155 7 18 6.429 12.859 31.594 7.812 36-1l5-9c2.962-5.925-.684-20.632 3-28 6.358-12.716 16-25.195 16-40.5h2v3c0 1.145-.579 4 1 4v15c-1.799 0-1.248 8.997-2 10.5-4.654 9.308-5 23.434-5 34.5v1ZM239 112v1l6-5c-1.984 0-6 1.444-6 4Z"/><path fill="#99D2BD" id="OLF" d="m217 111 1 1-1-1ZM238 113h1v-1l-1 1ZM238 113l-1 1 1-1Z"/><path fill="#C7CBCA" id="onl" d="M237 114v1c1.747 0 2-.253 2-2h-1l-1 1Z"/><path fill="#99D2BD" id="OLF" d="M236 115h1v-1l-1 1ZM170 116l-1 1 1-1Z"/><path fill="#C7CBCA" id="onl" d="M168 117c-1.238 0-3 .423-3 2 1.238 0 3-.423 3-2ZM303 135v2l-6-11.5c-1.205-2.41-8-5.518-8-8.5l6 5 2 2 1 1 1 1 1 2 1 1v1l1 1v1l1 1v2ZM165 119l-2 2c1.747 0 2-.253 2-2ZM163 121l-2 2c1.747 0 2-.253 2-2Z"/><path fill="#99D2BD" id="OLF" d="m295 122 2 2-2-2ZM160 124h1v-1l-1 1Z"/><path fill="#C7CBCA" id="onl" d="M159 125v1l2-2h-1l-1 1Z"/><path fill="#99D2BD" id="OLF" d="M158 126h1v-1l-1 1ZM298 125l1 1-1-1ZM158 126l-1 1 1-1Z"/><path fill="#C7CBCA" id="onl" d="M153 137v1l6-12h-1l-1 1-1 1-1 3-1 1v1l-1 1v3Z"/><path fill="#99D2BD" id="OLF" d="m157 127-1 1 1-1ZM300 128l1 1-1-1ZM301 130l1 1-1-1ZM155 131l-1 1 1-1ZM302 132l1 1-1-1ZM154 133l-1 1 1-1ZM305 150h2c0-2.077-2.345-15-4-15v2c0 4.696 2 7.885 2 13ZM153 138c0 1.357-.647 6-2 6 0-1.593.337-7 2-7v1ZM151 150l-2 1c0-.986 1.087-6 2-6v5ZM307 153c1.579 0 1 2.855 1 4-1.579 0-1-2.855-1-4ZM149 157c-1.652 0-1.652 18 0 18v-18ZM308 166c1.399 0 1.399 2 0 2v-2ZM308 172c-1.799 0-1.248 8.997-2 10.5-4.654 9.308-5 23.434-5 34.5 1.034 0 6-8.984 6-10.5 0-11.406 1-23.174 1-34.5ZM149 177c1.781 0 1.348 6.197 2 7.5 3.694 7.387 5 24.515 5 33.5l-3.5-6c-7.552-7.552-3.5-24.534-3.5-35ZM228 213c-1.643 0-1 3.765-1 5 1.643 0 1-3.765 1-5ZM301 218l-1 1 1-1Z"/></svg>