<svg xmlns="http://www.w3.org/2000/svg" viewBox="0 0 456 320"><path fill="#1E9C59" id="MOs1" d="m225 59-4 2c0-3.14-6.996-8.748-9.5-10-7.857-3.928-18.276-6.362-27-2h-5c-3.001 1.5-5.893 3-9.5 3v-6c2.37 0 5.431-1.965 7.5-3 4.543-2.271 28.434-2.283 33 0 2.707 1.353 4.99 4.995 7 6 1.707.853 7.5 7.453 7.5 10ZM235 61h1c0-2.937 4.225-6.862 6.5-8 2.531-1.265 5.822-4.411 9-6 8.957-4.478 26.288 5 34.5 5l1-5c0-3.633-13.302-2.901-15.5-4-9.946-4.973-29.32-1.86-34.5 8.5l-6 7.5 4 2Z"/><path fill="#1E9D5A" id="MOp1" d="M111 73v6c4.136 0 10.735-6.117 14.5-8 9.754-4.877 34.132-18 44.5-18v-7c-7.275 0-38.47 15.985-46.5 20L111 73Z"/><path fill="#1E9D58" id="MOs2/3" d="M215 65c-.06 0-12.448-11.026-20.5-7-4.693 2.347-21.136 11-25.5 11l1-16v-1c3.607 0 6.499-1.5 9.5-3h5c8.724-4.362 19.143-1.928 27 2 2.504 1.252 9.5 6.86 9.5 10-1.208 0-3.947 4-6 4ZM242 65c0-4.662 7.256-4.878 9.5-6 13.255-6.627 24.842 10 35.5 10V53l-1-1c-8.212 0-25.543-9.478-34.5-5-3.178 1.589-6.469 4.735-9 6-2.275 1.138-6.5 5.063-6.5 8 1.53 0 3.216 4 6 4Z"/><path fill="#1E9D5A" id="MOp1" d="M345 73c0 2.124 1 4.436 1 6-5.99 0-13.249-7.375-18.5-10-7.752-3.876-32.659-16-40.5-16l-1-1 1-5c10.243 0 34.815 13.157 44.5 18l13.5 8Z"/><path fill="#1F9C58" id="MOp2/3" d="M111 97c0 2.41 1 5.181 1 7l12.5-11c8.888-4.444 36.314-23 44.5-23v-1l1-16c-10.368 0-34.746 13.123-44.5 18-3.765 1.883-10.364 8-14.5 8v1l-1 5c0 3.953 1 8.186 1 12ZM346 97c-1.069 0-1 5.066-1 7l-13.5-11c-8.692-4.346-36.601-23-44.5-23V53c7.841 0 32.748 12.124 40.5 16 5.251 2.625 12.51 10 18.5 10v18Z"/><path fill="#1F9D58" id="MOs5" d="M199 80c-4.09 0-6.819-3.34-11.5-1L167 90l2-20v-1c4.364 0 20.807-8.653 25.5-11 8.052-4.026 20.44 7 20.5 7v1c-5.252 0-13.167 14-16 14ZM257 80c2.647 0 6.175-3.662 9.5-2 5.98 2.99 15.736 11 22.5 11 0-5.97-2-11.78-2-19v-1c-10.658 0-22.245-16.627-35.5-10-2.244 1.122-9.5 1.338-9.5 6v1c3.787 0 12.778 14 15 14Z"/><path fill="#3EA665" id="ACAd1" d="M223 91c3.642 0 8.002 1 11 1 0-9.97 1-20.677 1-30v-1l-4-2c0 7.321-4.839 0-6 0l-4 2c0 2.816.775 7.05 2 9.5V91Z"/><path fill="#40A565" id="ACAd2/3" d="M223 92c-2.124 0-4.436 1-6 1V69.5l-2-3.5v-1c2.053 0 4.792-4 6-4 0 2.816.775 7.05 2 9.5V92Z"/><path fill="#1E9D58" id="MOs2/3" d="m236 61-1 1v-1h1Z"/><path fill="#40A565" id="ACAd2/3" d="M234 92h5l1-20c0-1.623.005-6 2-6v-1c-2.784 0-4.47-4-6-4l-1 1c0 9.323-1 20.03-1 30Z"/><path fill="#3EA566" id="ACAd5" d="M217 93c-5.111 0-9.563 7-14 7 0-2.639-1.311-19-4-19v-1c2.833 0 10.748-14 16-14l2 3.5V93ZM239 93c5.609 0 12.43 8 15 8 0-3.433.191-20 3-20v-1c-2.222 0-11.213-14-15-14-1.995 0-2 4.377-2 6l-1 20v1Z"/><path fill="#1E9C5A" id="MOp5" d="M114 119h1c0-3.479 8.075-6.575 10.5-9 3.775-3.775 36.876-20 41.5-20l2-20c-8.186 0-35.612 18.556-44.5 23L112 104v1c0 5.699 2 8.676 2 14ZM345 105c0 4.462-3 8.161-3 13-4.237 0-10.087-8.794-14.5-11-6.908-3.454-32.174-17-38.5-17v-1c0-5.97-2-11.78-2-19 7.899 0 35.808 18.654 44.5 23l13.5 11v1Z"/><path fill="#197E64" id="SSp-ul1" d="M107 82h1l3-2v-7l-6 4c0 2.523 2 1.96 2 5ZM346 80l3 1 2-4c0-1.617-4.583-4-6-4 0 2.124 1 4.436 1 6v1Z"/><path fill="#187E61" id="SSp-m1" fill-rule="evenodd" d="M66 147c0 3.746 2.091 0 0 0m2 20h1v-4c-1.186 0-1.186-1 0-1 0-25.468 5.594-37.689 16-58.5 3.71-7.421 9.28-10.28 15-16l7-5.5c0-3.04-2-2.477-2-5-5.358 0-13.118 9.618-17 13.5-10.158 10.158-24 42.692-24 56.5 2.511 0 4 17.212 4 20Z"/><path fill="#187E61" id="SSp-m1" d="M392 147c-2.886 0-.795 10-4 10 0-19.434-6.959-35.418-15-51.5l-6-7c-1.467-2.935-15.417-16.5-18-16.5v-1l2-4c5.155 0 8.147 6.823 12.5 9 14.514 7.257 28.5 45.746 28.5 61Z"/><path fill="#1D9C5A" id="MOs6a" d="M167 110h1c0-1.473 1.952-1 3-1 0-1.271 12.954-4 16-4 0-7.206 12-22.843 12-24v-1c-4.09 0-6.819-3.34-11.5-1L167 90v20ZM270 105c7.205 0 12.651 5 19 5V89c-6.764 0-16.52-8.01-22.5-11-3.325-1.662-6.853 2-9.5 2v1c2.141 0 13 21.092 13 24Z"/><path fill="#197F61" id="SSp-ul2/3" d="m108 82 2 3 1-5-3 2ZM349 82l-3 3v-5l3 1v1Z"/><path fill="#3FA664" id="ACAd6a" d="M187 105c2.773 0 3.67 4 6 4 3.631 0 5.436-8 10-8v-1c0-2.639-1.311-19-4-19 0 1.157-12 16.794-12 24ZM263 109h2c0-1.747.253-2 2-2 0-2.293.997-2 3-2 0-2.908-10.859-24-13-24-2.809 0-3 16.567-3 20l9 8Z"/><path fill="#1A7E64" id="SSp-m2/3" d="m79 165-10 2v-5c0-25.468 5.594-37.689 16-58.5 3.71-7.421 9.28-10.28 15-16l7-5.5h1l2 3c0 3.953 1 8.186 1 12-8.427 0-14.95 11.4-18 17.5-8.492 16.984-14 29.686-14 50.5ZM377 165l10 2 1-9v-1c0-19.434-6.959-35.418-15-51.5l-6-7c-1.467-2.935-15.417-16.5-18-16.5l-3 3v12c7.603 0 14.304 11.107 17 16.5 9.755 19.511 14 27.615 14 51.5Z"/><path fill="#1F9B5A" id="MOp6a" d="M117 169h1l1-16.5c5.745-11.489 23.313-35.5 38-35.5 0-2.004 8.052-7 10-7V90c-4.624 0-37.725 16.225-41.5 20-2.425 2.425-10.5 5.521-10.5 9 0 7.5 3 13.845 3 21.5 0 5.651-3 10.936-3 17.5 1.341 0 2 9.28 2 11ZM339 169h1l1-11c0-6.685-3-14.028-3-17.5 0-6.818 4-13.729 4-21.5v-1c-4.237 0-10.087-8.794-14.5-11-6.908-3.454-32.174-17-38.5-17v20c3.987 0 8.057 5.278 11.5 7 21.091 10.546 38.5 24.294 38.5 52Z"/><path fill="#40A664" id="ACAv1" d="m229 125 5 5V92c-2.998 0-7.358-1-11-1v1c0 12.337-1 26.104-1 38l5-5c0-4.013 2-4.556 2 0Z"/><path fill="#3FA566" id="ACAv2/3" d="M219 136h2c0-2.124 1-4.436 1-6 0-11.896 1-25.663 1-38-2.124 0-4.436 1-6 1v28.5c1.801 3.603 2 10.339 2 14.5ZM235 136h3c0-13.907 1-28.531 1-43v-1h-5v38c0 2.275 1 3.514 1 6Z"/><path fill="#3EA666" id="ACAv5" d="M210 132c0 2.645 6.992 4 9 4 0-4.161-.199-10.897-2-14.5V93c-5.111 0-9.563 7-14 7v14.5c1.36 2.72 7 15.12 7 17.5ZM247 131c0 2.996-6.779 5-9 5 0-13.907 1-28.531 1-43 5.609 0 12.43 8 15 8l-1 15.5-6 14.5Z"/><path fill="#1B7F62" id="SSp-m4" d="m85 164-6 1c0-20.814 5.508-33.516 14-50.5 3.05-6.1 9.573-17.5 18-17.5 0 2.41 1 5.181 1 7v1c-3.615 0-10.437 10.375-12 13.5l-7 11-4 12c-2.1 4.199.08 10.84-2 15l-2 6.5v1ZM371 164l6 1c0-23.885-4.245-31.989-14-51.5-2.696-5.393-9.397-16.5-17-16.5-1.069 0-1 5.066-1 7v1c2.733 0 8.961 9.422 10 11.5 7.421 14.841 16 28.681 16 46.5v1Z"/><path fill="#40A564" id="ACAv6a" d="m203 127 7 5c0-2.38-5.64-14.78-7-17.5V101c-4.564 0-6.369 8-10 8v1c0 5.658 10 10.272 10 16v1ZM253 127c-2.789 0-3.42 4-6 4l6-14.5 1-15.5 9 8v1c0 5.796-10 10.489-10 16v1Z"/><path fill="#1B7E63" id="SSp-m5" d="M101 161c-5.953 0-9.932 2-16 2l2-6.5c2.08-4.16-.1-10.801 2-15l4-12 7-11c1.563-3.125 8.385-13.5 12-13.5 0 5.699 2 8.676 2 14l-10 15.5c-3.565 7.13-3 16.903-3 25.5v1Z"/><path fill="#1E9C58" id="MOs6b" d="M187 106c-5.948 0-9.85 3-16 3 0-1.271 12.954-4 16-4v1Z"/><path fill="#3FA466" id="ACAd6b" d="M192 110h1v-1c-2.33 0-3.227-4-6-4v1l5 4ZM270 106l-3 1c0-2.293.997-2 3-2v1Z"/><path fill="#1E9C58" id="MOs6b" d="M289 110v1c-6.352 0-12.162-5-19-5v-1c7.205 0 12.651 5 19 5Z"/><path fill="#1B7E63" id="SSp-m5" d="M355 161c5.953 0 9.932 2 16 2 0-17.819-8.579-31.659-16-46.5-1.039-2.078-7.267-11.5-10-11.5 0 4.462-3 8.161-3 13v1c1.757 0 4.284 6.069 5 7.5 7.851 15.703 8 14.531 8 33.5v1Z"/><path fill="#CACCC7" id="cing" d="M203 126v1c-8.666 0-9.003-12.752-15.5-16-6.822-3.411-11.509 3-17.5 3l-1 1h-2c-1.145 0-4 .579-4-1l5-3c1.238 0 3-.423 3-2 6.15 0 10.052-3 16-3l5 4c0 2.686 7.632 16 11 16ZM253 126v1c8.859 0 8.821-12.161 14.5-15 7.208-3.604 10.646 1 17.5 1l1 1h1l1 1h6c0-2.854-5-2.448-5-4-6.352 0-12.162-5-19-5l-3 1-2 2-1 2c0 2.72-7.421 15-11 15Z"/><path fill="#3FA466" id="ACAd6b" d="M267 107c-1.747 0-2 .253-2 2l2-2Z"/><path fill="#1E9C58" id="MOs6b" d="M168 110v1c1.238 0 3-.423 3-2-1.048 0-3-.473-3 1Z"/><path fill="#3FA466" id="ACAd6b" d="m263 110 1 1 1-2h-2v1Z"/><path fill="#1D9D5A" id="MOp6b" d="m163 114-6 3c0-2.004 8.052-7 10-7h1v1l-5 3Z"/><path fill="#CCC7C9" id="ccg" d="m335 172 1 1v-4c0-15.464-9.238-34.369-24.5-42l-16-9c-1.265-.632-6.5-1.278-6.5-3h-1l-1-1h-1l-1-1c-6.854 0-10.292-4.604-17.5-1-5.679 2.839-5.641 15-14.5 15-2.789 0-3.42 4-6 4 0 2.996-6.779 5-9 5h-3l-5.5 5-1-4c-1.124 0-.928 5.036-3 4l-4.5-5h-2c-2.008 0-9-1.355-9-4l-7-5c-8.666 0-9.003-12.752-15.5-16-6.822-3.411-11.509 3-17.5 3l-1 1h-2c0 1.722-5.235 2.368-6.5 3l-17 10c-15.787 7.893-22.5 26.015-22.5 42v2h1l1-1c0-19.057 8.099-31.8 24.5-40 3.572-1.786 8.398-1.199 12-3 5.172-2.586 15.359 1 20.5 1l1 1h1l2 1h1c1.938 0 9 5.842 9 8 4.006 0 12 8.625 12 12 5.391 0 13.911 4 21 4h2c7.089 0 15.609-4 21-4 0-3.103 8.682-12 12-12h1c0-1.238.423-3 2-3l1-1c0-1.577 1.762-2 3-2 0-1.577 1.762-2 3-2h1l1-1h1l2-1c5.033 0 15.348-3.576 20.5-1l11 3c16.578 8.289 24.5 20.361 24.5 39l2 2Z"/><path fill="#40A465" id="ACAv6b" d="M193 110c0 5.658 10 10.272 10 16-3.368 0-11-13.314-11-16h1ZM264 111c0 2.72-7.421 15-11 15 0-5.511 10-10.204 10-16l1 1Z"/><path fill="#1D9D5A" id="MOp6b" d="M338 169h1c0-27.706-17.409-41.454-38.5-52-3.443-1.722-7.513-7-11.5-7v1c0 1.552 5 1.146 5 4 5.976 0 12.299 7.4 17.5 10 16.342 8.171 25.5 25.802 25.5 43l1 1Z"/><path fill="#C9C9CA" id="scwm" d="m285 113 1 1-1-1ZM120 168l1 2c0-15.985 6.713-34.107 22.5-42l17-10c1.265-.632 6.5-1.278 6.5-3-1.145 0-4 .579-4-1l-6 3c0 .111-17.024 9.547-18 11.5l-12 12c-4.528 9.057-7 16.434-7 27.5ZM170 114l-1 1 1-1ZM287 114l1 1-1-1ZM337 168l-1 1c0-15.464-9.238-34.369-24.5-42l-16-9c-1.265-.632-6.5-1.278-6.5-3h5c5.976 0 12.299 7.4 17.5 10 16.342 8.171 25.5 25.802 25.5 43Z"/><path fill="#1D9D5A" id="MOp6b" d="m120 168-2 1 1-16.5c5.745-11.489 23.313-35.5 38-35.5 0 .111-17.024 9.547-18 11.5l-12 12c-4.528 9.057-7 16.434-7 27.5Z"/><path fill="#187D61" id="SSp-m6a" d="M115 158c-4.798 0-8.844 2-14 2 0-8.597-.565-18.37 3-25.5l10-15.5h1c0 7.5 3 13.845 3 21.5 0 5.651-3 10.936-3 17.5ZM341 158c5.03 0 8.72 2 14 2 0-18.969-.149-17.797-8-33.5-.716-1.431-3.243-7.5-5-7.5 0 7.771-4 14.682-4 21.5 0 3.472 3 10.815 3 17.5Z"/><path fill="#7ED04B" id="IG" d="m221 136 4.5 5c2.072 1.036 1.876-4 3-4l1 4 5.5-5c0-2.486-1-3.725-1-6l-5-5c0 2.488-2 1.919-2 0l-5 5c0 1.564-1 3.876-1 6Z"/><path fill="#98D5F9" id="CP" d="m145 232 2 1c19.6 0 15.343-23.421 32.5-32 2.535-1.268 13.5-2.877 13.5-7l1-1c0-5.748.49-15.481 3-20.5V147c-1.429 0-3-5.655-3-7l-9-9h-1l-2-1h-1l-1-1c-5.141 0-15.328-3.586-20.5-1-3.602 1.801-8.428 1.214-12 3-16.401 8.2-24.5 20.943-24.5 40v1c1.781 0 1.348 6.197 2 7.5 3.618 7.236 6 16.895 6 25.5l4 15v1l1 1c1.985 0 4.328 10 9 10ZM309 233h2l6-4.5 3-5.5 1-2 1-2 1-2c0-2.075 1.307-12 3-12 0-12.949 7-22.894 7-34v-1c0-18.639-7.922-30.711-24.5-39l-11-3c-5.152-2.576-15.467 1-20.5 1l-2 1h-1l-1 1h-1c0 1.577-1.762 2-3 2 0 1.577-1.762 2-3 2l-1 1c0 1.238-.423 3-2 3v1l-3 7c0 5.764-3.955 18.59-1 24.5 2.797 5.595 3 13.883 3 20.5l1 1c0 4.69 11.577 7.038 15.5 9 12.749 6.375 12.777 25.888 23 31h7.5Z"/><path fill="#CAC7CC" id="fa" d="m180 129 1 1-1-1ZM277 129l-2 1 2-1ZM182 130l2 1-2-1ZM274 130l-1 1 1-1ZM194 139v1l-9-9c1.938 0 9 5.842 9 8ZM272 131c-1.238 0-3 .423-3 2 1.238 0 3-.423 3-2ZM269 133c-1.238 0-3 .423-3 2 1.238 0 3-.423 3-2ZM266 135l-1 1 1-1ZM265 136c-1.577 0-2 1.762-2 3 1.577 0 2-1.762 2-3Z"/><path fill="#AAA8A9" id="SEZ" d="m200 172-2 3c0-5.101 8.765-18.97 7-22.5-.816-1.632-8-11.413-8-5.5-1.429 0-3-5.655-3-7v-1c4.006 0 12 8.625 12 12l1 6c-.946 0-6 12.429-6 14l-1 1ZM256 171l3 5c0-8.567-15.212-24.144-1.5-31l2.5 2 3-7-1-1c-3.318 0-12 8.897-12 12l-1 5 2 2.5c1.121 2.242 5 10.28 5 12.5Z"/><path fill="#CAC7CC" id="fa" d="M263 139v1l-1-1h1Z"/><path fill="#A8AAAA" id="VL" d="M194 193h2l1-1v-14c0-1.048-.473-3 1-3 0-5.101 8.765-18.97 7-22.5-.816-1.632-8-11.413-8-5.5v25.5c-2.51 5.019-3 14.752-3 20.5ZM260 193h2v-1c0-6.617-.203-14.905-3-20.5-2.955-5.91 1-18.736 1-24.5l-2.5-2c-13.712 6.856 1.5 22.433 1.5 31v2c1.643 0 1 3.765 1 5l-1 8 1 2Z"/><path fill="#1A7E62" id="SSs1" d="m68 167-3 1c0-7.004-1-13.419-1-21 2.511 0 4 17.212 4 20ZM66 147c0 3.746 2.091 0 0 0ZM389 167l2 2c2.064 0 .426-3.353 1-4.5 2.641-5.282 0-12.234 0-17.5-2.886 0-.795 10-4 10v1c1.751 0 1 7.426 1 9Z"/><path fill="#CAC7CC" id="fa" d="M225 158c-1.804 0-5.136-2.182-7.5-1l-2.5 2c-3.015 0-6.004-2-8-2l-1-6c5.391 0 13.911 4 21 4 0 1.238-.423 3-2 3ZM231 158c1.804 0 5.136-2.182 7.5-1l2.5 2c2.941 0 8 1.002 8-3l1-5c-5.391 0-13.911 4-21 4 0 1.238.423 3 2 3Z"/><path fill="#97D6F9" id="STR" d="M224 209c1.55 0 1.822-10.339 4.5-9 2.876 1.438 2.18 11 4.5 11 0-8.839-3.932-35.784 4.5-40 4.04-2.02 13.073 0 18.5 0 0-2.22-3.879-10.258-5-12.5l-2-2.5c0 4.002-5.059 3-8 3 0 13.133-10 13.622-10-1-1.577 0-2-1.762-2-3h-2c0 1.238-.423 3-2 3 0 16.894-10 12.08-10 1-3.015 0-6.004-2-8-2-.946 0-6 12.429-6 14 5.295 0 13.509-1.996 17.5 0 8.317 4.158 5.5 29.783 5.5 38Z"/><path fill="#8FCAED" id="SH" d="M225 158c-1.804 0-5.136-2.182-7.5-1l-2.5 2c0 11.08 10 15.894 10-1ZM231 158c1.804 0 5.136-2.182 7.5-1l2.5 2c0 13.133-10 13.622-10-1Z"/><path fill="#009B74" id="GU6a" d="M117 169c0 1.845-3.381 1.441-4.5 2-3.492 1.746-7.357 5-11.5 5v-16c5.156 0 9.202-2 14-2 1.341 0 2 9.28 2 11ZM340 169c0 2.165 12.932 7 15 7v-16c-5.28 0-8.97-2-14-2l-1 11Z"/><path fill="#187E61" id="SSp-m1" d="M387 167h2c0-1.574.751-9-1-9l-1 9Z"/><path fill="#019C75" id="GU5" d="M101 177c-5.503 0-10.91 5-16 5v-19c6.068 0 10.047-2 16-2v16ZM355 177c6.075 0 11.233 5 17 5l-1-18v-1c-6.068 0-10.047-2-16-2v16Z"/><path fill="#1A7E62" id="SSs1" d="M69 162c-1.186 0-1.186 1 0 1v-1Z"/><path fill="#009C74" id="GU4" d="m85 182-3 1c0-5.975-3-11.524-3-18l6-1v18ZM372 182l2 1c0-5.628 3-11.443 3-18l-6-1 1 18Z"/><path fill="#009B75" id="GU2/3" d="M82 183c-2.66 0-6.5 4-9 4l-4-20 10-2c0 6.476 3 12.025 3 18ZM374 183c2.99 0 5.717 3 9 3 0-6.055 4-12.542 4-19l-10-2c0 6.557-3 12.372-3 18Z"/><path fill="#009C75" id="GU1" d="m73 187-4 1-4-20 3-1h1l4 20ZM383 187l4 1c0-6.231 4-12.113 4-19l-2-2h-2c0 6.458-4 12.945-4 19v1Z"/><path fill="#1F9766" id="AId6b" d="m120 181 2 1-1-10v-2l-1-2-2 1 2 12ZM335 181h1c0-3.629 2-7.589 2-12l-1-1-1 1v4l-1 8Z"/><path fill="#209666" id="AId6a" d="M107 197h1c1.424 0 5-.362 5-2 0-7.264-2.245-14 7-14l-2-12h-1c0 1.845-3.381 1.441-4.5 2-3.492 1.746-7.357 5-11.5 5v1c0 6.765 6 17.117 6 20ZM343 195c1.974 0 3.517 2 6 2 0-1.296 6-12.114 6-20v-1c-2.068 0-15-4.835-15-7h-2c0 4.411-2 8.371-2 12 10.185 0 7 7.284 7 14Z"/><path fill="#90CAED" id="LSr" d="M214 218v1l2.5 3 5.5-5 1-1v-3l1-2v-2c0-8.217 2.817-33.842-5.5-38-3.991-1.996-12.205 0-17.5 0l-1 1-2 3c0 1.048.473 3-1 3v3c5.64 0 18.158 23 10 23v1l1 1 2 4 1 1 1 3 1 1v2l1 1ZM243 218l-1 2-2.5 2-5.5-5-1-6c0-8.839-3.932-35.784 4.5-40 4.04-2.02 13.073 0 18.5 0l3 5v5c-5.383 0-17.23 23-10 23l-1 3-1 1v1l-1 1-1 3-1 1-1 4Z"/><path fill="#CAC7CC" id="fa" d="m333 171 2 1-2-2v1ZM122 172h1v-1l-1 1Z"/><path fill="#97D6F9" id="STR" d="m201 171-1 1 1-1Z"/><path fill="#C8CBCC" id="ec" d="M326 205h2c0-1.246-2.681-8 1-8 0-1.145-.579-4 1-4l1-2c0-3.804 4-6.885 4-10l1-8-1-1-2-1c0 11.106-7 21.051-7 34ZM129 205h2c0-8.605-2.382-18.264-6-25.5-.652-1.303-.219-7.5-2-7.5h-2l1 10c0 3.049 4 6.615 4 10 1.473 0 1 1.952 1 3v1c2.656 0 2 6.992 2 9Z"/><path fill="#AAA8A9" id="SEZ" d="M198 175c-1.473 0-1 1.952-1 3 1.473 0 1-1.952 1-3Z"/><path fill="#209665" id="AId5" d="M107 197c-5.215 0-10.215 4-16 4-3.674 0-6-15.464-6-19 5.09 0 10.497-5 16-5 0 6.765 6 17.117 6 20ZM349 197c5.711 0 10.658 4 17 4 1.883 0 6-16.126 6-19-5.767 0-10.925-5-17-5 0 7.886-6 18.704-6 20Z"/><path fill="#AAA8A9" id="SEZ" d="m259 181 1 2c0-1.235.643-5-1-5v3Z"/><path fill="#8ADA86" id="CLA" d="M127 196c0 4.341-4 8.657-4 9-10.837 0-7.537-10-10-10 0-7.264-2.245-14 7-14l2 1c0 3.049 4 6.615 4 10 0 1.048-.473 3 1 3v1Z"/><path fill="#8FCBED" id="LSv" d="m205 202 2 2c8.158 0-4.36-23-10-23v11l3 3 2 2 1 1 1 2 1 1v1ZM250 203l-1 1c-7.23 0 4.617-23 10-23l1 2-1 8v2h-1l-1 1-1 1-1 1-1 2-1 1-1 1-1 2-1 1Z"/><path fill="#8ADA86" id="CLA" d="M343 195c0 11.178-14 14.443-14 2 1.579 0 1-2.855 1-4l1-2c0-3.804 4-6.885 4-10h1c10.185 0 7 7.284 7 14Z"/><path fill="#209765" id="AId2/3" d="m91 202-12 2-6-17c2.5 0 6.34-4 9-4l3-1c0 3.536 2.326 19 6 19v1ZM366 202l11 2c0-5.334 6-11.169 6-17v-1c-3.283 0-6.01-3-9-3l-2-1c0 2.874-4.117 19-6 19v1Z"/><path fill="#209764" id="AId1" d="M79 205c-1.048 0-3-.473-3 1-1.183 0-1.535-3.57-2-4.5L69 188l4-1 6 17v1ZM377 205l4 1c0-6.15 6-11.444 6-18l-4-1c0 5.831-6 11.666-6 17v1Z"/><path fill="#97D6F9" id="STR" d="M259 193h1l-1-2v2Z"/><path fill="#1F9866" id="AIv6a" d="m331 191-1 2 1-2ZM126 192c1.473 0 1 1.952 1 3-1.473 0-1-1.952-1-3Z"/><path fill="#97D6F9" id="STR" d="m196 193 4 2-3-3-1 1ZM262 193h1l-1-1v1ZM194 193l-1 1 1-1Z"/><path fill="#80CDF8" id="ACB" fill-rule="evenodd" d="M177 210c0 1.095-5.031 6.563-6 8.5-1.545 3.09 4.851 6.825 7.5 5.5 6.438-3.219 7.542-14-1.5-14m37 27-5 10.5c-3.434 6.869-11.556 12.028-18.5 15.5-12.133 6.066-43.5 2.632-43.5-14 0-4.78-1-10.331-1-15l1-1c19.6 0 15.343-23.421 32.5-32 2.535-1.268 13.5-2.877 13.5-7l1-1h2l4 2 2 2 1 1 1 2 1 1v1l2 2v1l1 1 2 4 1 1 1 3 1 1v2l1 1v19Z"/><path fill="#97D6F9" id="STR" d="m258 193-1 1 1-1Z"/><path fill="#80CDF8" id="ACB" fill-rule="evenodd" d="M275 210c0 2.579-3.752 5.997-2 9.5 7.723 15.446 21.04-9.5 2-9.5m-32 30 5 8.5c3.264 6.527 11.436 11.468 17.5 14.5 12.123 6.061 43.5 2.762 43.5-14 0-3.51 2-8.997 2-14l-2-2h-7.5c-10.223-5.112-10.251-24.625-23-31-3.923-1.962-15.5-4.31-15.5-9h-5l-1 1-1 1-1 1-1 2-1 1-1 1-1 2-1 1-1 1-1 3-1 1v1l-1 1-1 3-1 1-1 4-1 2c0 6.836 1 13.704 1 20Z"/><path fill="#1F9866" id="AIv6a" d="M330 193c-1.579 0-1 2.855-1 4 1.579 0 1-2.855 1-4ZM118 209l-4 1-6-13c1.424 0 5-.362 5-2 2.463 0-.837 10 10 10l-5 4Z"/><path fill="#97D6F9" id="STR" d="m256 195-1 1 1-1Z"/><path fill="#1F9866" id="AIv6a" d="m337 208 6 2c0-4.979 6-8.518 6-13-2.483 0-4.026-2-6-2 0 11.178-14 14.443-14 2-3.681 0-1 6.754-1 8h1c3.351 0 5.596 3 8 3ZM128 205h1c0-2.008.656-9-2-9 0 4.341-4 8.657-4 9h5Z"/><path fill="#1F9865" id="AIv5" d="M101 213h4c0-1.139 7.742-3 9-3l-6-13h-1c-5.215 0-10.215 4-16 4v1l6 5.5 4 5.5Z"/><path fill="#97D6F9" id="STR" d="m202 197 1 1-1-1Z"/><path fill="#1F9865" id="AIv5" d="M351 213h4c3.502 0 5.984-11 11-11v-1c-6.342 0-11.289-4-17-4 0 4.482-6 8.021-6 13 1.131 0 8 2.049 8 3Z"/><path fill="#97D6F9" id="STR" d="m254 198-1 1 1-1ZM253 199l-1 1 1-1ZM204 200l1 1-1-1Z"/><path fill="#96A7D3" id="MS" d="m222 221 1.5-2c2.478-1.239 3.489 2 5 2 .739 0 1.465-3.267 4-2l2.5 2-1-4-1-6c-2.32 0-1.624-9.562-4.5-11-2.678-1.339-2.95 9-4.5 9v2l-1 2v3l-1 1v4Z"/><path fill="#219764" id="AIv2/3" d="M101 213c0 1.318-12.088 3-14 3 0-1.433-6.677-11-8-11v-1l12-2 6 5.5 4 5.5Z"/><path fill="#97D6F9" id="STR" d="m205 202 2 2-2-2Z"/><path fill="#90CAED" id="LSr" d="m251 202-1 1 1-1Z"/><path fill="#219764" id="AIv2/3" d="M355 213c0 2.064 3.353.426 4.5 1 3.071 1.535 6.805 2 10.5 2 0-1.628 5.952-11 7-11v-1l-11-2c-5.016 0-7.498 11-11 11Z"/><path fill="#90CAED" id="LSr" d="m250 203-1 1 1-1Z"/><path fill="#209864" id="AIv1" d="M87 216c0 1.684-4.68 1-6 1l-5-11c0-1.473 1.952-1 3-1 1.323 0 8 9.567 8 11Z"/><path fill="#A0EE9C" id="EPd" d="M136 222c0 12.621-11.475 1-16 1l-3-3c0-1.606-2.081-4.339-1-6.5l2-4.5 5-4h5l3 4.5c.987 1.975.661 10.5 4 10.5v1l1 1Z"/><path fill="#8AD987" id="CTXsp" d="m131 205 4 15c-3.339 0-3.013-8.525-4-10.5l-3-4.5h3Z"/><path fill="#97D6F9" id="STR" d="m207 205 1 1-1-1Z"/><path fill="#8AD987" id="CTXsp" d="M329 205c0 .656-3.319 4.138-4 5.5-.746 1.493.729 6.5-2 6.5 0-2.075 1.307-12 3-12h3Z"/><path fill="#A0EE9C" id="EPd" d="m332 226-2 1c-3.991 0-10 2.681-10-4l1-2 1-2 1-2c2.729 0 1.254-5.007 2-6.5.681-1.362 4-4.844 4-5.5 3.351 0 5.596 3 8 3l4 7.5-1 4.5-1 1-1 1-1 1h-1l-1 1-1 1h-1l-1 1Z"/><path fill="#209864" id="AIv1" d="M370 216c0 1.643 3.765 1 5 1l6-11-4-1c-1.048 0-7 9.372-7 11Z"/><path fill="#97D6F9" id="STR" d="m248 207-1 1 1-1Z"/><path fill="#99D2BD" id="OLF" d="M351 213c-8.18 0-9.932 7-11 7l1-4.5-4-7.5 6 2c1.131 0 8 2.049 8 3ZM105 213c8.705 0 10.44 7 12 7 0-1.606-2.081-4.339-1-6.5l2-4.5-4 1c-1.258 0-9 1.861-9 3Z"/><path fill="#97D6F9" id="STR" d="m247 209-1 1 1-1Z"/><path fill="#CBCBC7" id="aco" d="M177 210c0 1.095-5.031 6.563-6 8.5-1.545 3.09 4.851 6.825 7.5 5.5 6.438-3.219 7.542-14-1.5-14Z"/><path fill="#97D6F9" id="STR" d="m210 210 1 1-1-1Z"/><path fill="#CBCBC7" id="aco" d="M275 210c0 2.579-3.752 5.997-2 9.5 7.723 15.446 21.04-9.5 2-9.5Z"/><path fill="#97D6F9" id="STR" d="m224 211-1 2 1-2Z"/><path fill="#6ACAB9" id="PIR" d="m126 258 1 1 10-4c0-6.109 8.608-6.283 3-17.5-2.4-4.8-20-12.391-20-14.5l-3-3c-1.56 0-3.295-7-12-7h-4c0 1.318-12.088 3-14 3 0 1.684-4.68 1-6 1 0 5.298 18.08 30 23 30 2.755 0 22 6.267 22 11Z"/><path fill="#97D6F9" id="STR" d="m245 213-1 1 1-1Z"/><path fill="#6ACAB9" id="PIR" d="M329 259h1c0-5.154 11.001-8.251 14.5-10 1.024-.512 7.5-4.45 7.5-2 5.395 0 23-23.986 23-30-1.235 0-5 .643-5-1-3.695 0-7.429-.465-10.5-2-1.147-.574-4.5 1.064-4.5-1h-4c-8.18 0-9.932 7-11 7l-1 1-1 1-1 1h-1l-1 1-1 1h-1l-1 1-2 1c0 .242-12.26 8.021-14 11.5-4.123 8.246 3 11.01 3 16.5 3.645 0 6.777 4 10 4Z"/><path fill="#97D6F9" id="STR" d="m212 214 1 1-1-1ZM223 216l-1 1 1-1ZM213 217l1 1-1-1ZM213 256h3l4-11.5 2-23.5v-4l-5.5 5-2.5-3v18l-1 19ZM241 256h3c0-4.925-1-10.521-1-16 0-6.296-1-13.164-1-20l-2.5 2-5.5-5 1 4c0 6.372-.359 21.783 2 26.5l4 8.5Z"/><path fill="#8AD987" id="CTXsp" d="m323 217-1 2 1-2Z"/><path fill="#97D6F9" id="STR" d="m243 218-1 2 1-2Z"/><path fill="#96A6D3" id="NDB" d="m224 259-1 1c-5.201 0-7 5.73-7-4l4-11.5 2-23.5 1.5-2c2.478-1.239 3.489 2 5 2 .739 0 1.465-3.267 4-2l2.5 2c0 6.372-.359 21.783 2 26.5l4 8.5c0 10.599-5.822 2-10 2 0-3.755-3.946-1-5-1l-1 1-1 1Z"/><path fill="#8AD987" id="CTXsp" d="m322 219-1 2 1-2Z"/><path fill="#99D2BD" id="OLF" d="m340 220-1 1 1-1Z"/><path fill="#8AD987" id="CTXsp" d="m135 221 1 1-1-1Z"/><path fill="#99D2BD" id="OLF" d="m321 221-1 2 1-2ZM339 221l-1 1 1-1ZM137 255h2l8-6c0-4.78-1-10.331-1-15l-1-2c-4.672 0-7.015-10-9-10 0 12.621-11.475 1-16 1 0 2.109 17.6 9.7 20 14.5 5.608 11.217-3 11.391-3 17.5ZM338 222l-1 1 1-1ZM318 255h1c0-5.49-7.123-8.254-3-16.5 1.74-3.479 14-11.258 14-11.5-3.991 0-10 2.681-10-4l-3 5.5-6 4.5v2c0 5.003-2 10.49-2 14l9 6ZM336 223l-1 1 1-1ZM335 224l-1 1 1-1ZM333 225l-1 1 1-1ZM332 226l-2 1 2-1Z"/><path fill="#97D6F9" id="STR" d="m147 233-1 1-1-2 2 1ZM311 233v2l-2-2h2Z"/><path fill="#A2B1D7" id="SI" d="M213 256c0 1.246-1.246 13-2 13 0-1.15-12.786-1.857-14.5-1-15.767 7.883-32.562 4.219-47-3-2.853-1.427-10.5-6.244-10.5-10l8-6c0 16.632 31.367 20.066 43.5 14 6.944-3.472 15.066-8.631 18.5-15.5l5-10.5-1 19ZM244 256l1 13c3.378 0 10.693-2.904 14.5-1 12.882 6.441 31.592 5.204 44-1 2.827-1.414 14.5-7.652 14.5-12l-9-6c0 16.762-31.377 20.061-43.5 14-6.064-3.032-14.236-7.973-17.5-14.5l-5-8.5c0 5.479 1 11.075 1 16Z"/><path fill="#CAC8C7" id="lot" d="M124 263h2l1-3-1-2c0-4.733-19.245-11-22-11 0 3.918 11.485 8.985 14.5 12 1.652 1.652 3.106 4 5.5 4ZM331 264h1c0-3.7 20-12.089 20-17 0-2.45-6.476 1.488-7.5 2-3.499 1.749-14.5 4.846-14.5 10v4l1 1Z"/><path fill="#7FCCF7" id="OT" d="m211 274-1 1c0 2.097-2.105 3.71-3 5.5-7.585 15.17-17.062 6.281-25.5 10.5-12.667 6.333-37.257 4.986-44.5-9.5-2.358-4.716-10-9.001-10-14.5l-1-1v-3l1-3v-1l10-4h2c0 3.756 7.647 8.573 10.5 10 14.438 7.219 31.233 10.883 47 3 1.714-.857 14.5-.15 14.5 1v5ZM245 269l1 6c1.183 0 1.535 3.57 2 4.5 1.955 3.911 5.479 7.489 9.5 9.5 4.876 2.438 12.276-.362 17 2 13.486 6.743 37.248 5.005 44.5-9.5 2.152-4.304 11-9.528 11-15.5v-6l-1-1c-3.223 0-6.355-4-10-4h-1c0 4.348-11.673 10.586-14.5 12-12.408 6.204-31.118 7.441-44 1-3.807-1.904-11.122 1-14.5 1Z"/><path fill="#8599CC" id="PAL" d="M211 269v5c3.59 0 12-10.705 12-14-5.201 0-7 5.73-7-4h-3c0 1.246-1.246 13-2 13ZM245 269l1 6c-1.699 0-15-15.592-15-17 4.178 0 10 8.599 10-2h3l1 13ZM226 257l-1 1 1-1Z"/><path fill="#99D2BD" id="OLF" d="M127 259v1l-1-2 1 1Z"/><path fill="#8599CC" id="PAL" d="m224 259-1 1 1-1Z"/><path fill="#99D2BD" id="OLF" d="M330 259v1l-1-1h1ZM125 264h1v-1h-2l1 1Z"/><path fill="#97D6F9" id="STR" d="m331 265-1 1v-3l1 1v1ZM126 264v1l-1-1h1Z"/><path fill="#99D2BD" id="OLF" d="m332 264-1 1v-1h1Z"/><path fill="#97D6F9" id="STR" d="m126 266 1 1-1-1Z"/><path fill="#8599CC" id="PAL" d="m211 274-1 1 1-1Z"/></svg>