<svg xmlns="http://www.w3.org/2000/svg" viewBox="0 0 456 320"><path fill="#1E9C59" id="MOs1" d="m227 54-5 2c0-3.46-3.935-5.37-5-7.5-5.686-11.371-22.655-6.5-33-6.5v-5c13.557 0 29.909-4.681 37 9.5 1.078 2.156 6 3.973 6 7.5ZM230 53l4 3c0-2.976 3.734-4.968 5-7.5 2.734-5.469 21.544-10.978 28.5-7.5l5.5 2v-6c-11.565 0-29.687-5.126-36 7.5-1.115 2.23-7 4.981-7 8.5Z"/><path fill="#1E9D5A" id="MOp1" d="M133 52v6c3.026 0 4.972-1.736 7.5-3 7.056-3.528 34.68-12 42.5-12l1-1v-5c-7.235 0-38.123 8.811-44.5 12l-6.5 3ZM323 52l1 7-13.5-6c-5.833-2.917-30.923-10-37.5-10v-6c8.424 0 31.041 7.27 38.5 11 1.617.808 11.5 2.52 11.5 4Z"/><path fill="#1E9D58" id="MOs2/3" d="m182 57 2.5-2c6.951-3.476 21.613-6.387 28 0l3.5 5 6-4c0-3.46-3.935-5.37-5-7.5-5.686-11.371-22.655-6.5-33-6.5l-1 1c0 5.707-1 9.156-1 14ZM240 60h1c0-2.957 2.14-4.82 4.5-6 7.863-3.931 18.229-2.885 26 1 1.619.81 1.471 2 3.5 2 0-4.378-2-8.986-2-14l-5.5-2c-6.956-3.478-25.766 2.031-28.5 7.5-1.266 2.532-5 4.524-5 7.5l6 4Z"/><path fill="#1F9C58" id="MOp2/3" d="M132 75v6c8.799 0 42.887-24 50-24 0-4.844 1-8.293 1-14-7.82 0-35.444 8.472-42.5 12-2.528 1.264-4.474 3-7.5 3v1c0 4.723-1 10.82-1 16ZM325 75c0 2.01-1 3.512-1 6-3.638 0-8.288-4.394-11.5-6-8.671-4.335-18.28-7.64-27-12-2.498-1.25-7.882-6-10.5-6 0-4.378-2-8.986-2-14 6.577 0 31.667 7.083 37.5 10l13.5 6c0 2.158-.801 16 1 16Z"/><path fill="#1F9D58" id="MOs5" d="M202 72c-2.991 0-6.155-5.173-10.5-3L179 76l3-19 2.5-2c6.951-3.476 21.613-6.387 28 0l3.5 5c-3.387 0-11.965 12-14 12ZM255 72c0-1.662 4.357-3 6-3 6.491 0 10.133 6 16 6 0-6.156-2-11.462-2-18-2.029 0-1.881-1.19-3.5-2-7.771-3.885-18.137-4.931-26-1-2.36 1.18-4.5 3.043-4.5 6 0 3.452 13 6.994 13 12h1Z"/><path fill="#197E64" id="SSp-ul1" d="M104 73h1c0-2.47 5.03-3.265 6.5-4 5.669-2.835 15.1-10 21.5-10v-7c-4.285 0-22.375 8.875-25.5 12l-6.5 5c.966 0 3 2.886 3 4ZM352 73h1l2-5-6.5-4c-3.449-3.45-20.796-12-25.5-12l1 7c4.541 0 26.016 14 28 14Z"/><path fill="#3EA665" id="ACAd1" d="M222 83h12V56l-4-3c-1.532 0-.95 1-3 1l-5 2v27Z"/><path fill="#40A565" id="ACAd2/3" d="m222 83-5 1c0-7.895-1-16.783-1-24l6-4v27ZM234 83l5 1c0-7.947 1-16.71 1-24l-6-4v27Z"/><path fill="#1E9C5A" id="MOp5" d="M132 96h1c2.421 0 31.651-12.076 35.5-14l10.5-6 3-19c-7.113 0-41.201 24-50 24v15ZM324 81v15c-2.46 0-30.849-11.174-34.5-13-3.805-1.902-6.952-6-11.5-6l-1-2c0-6.156-2-11.462-2-18 2.618 0 8.002 4.75 10.5 6 8.72 4.36 18.329 7.665 27 12 3.212 1.606 7.862 6 11.5 6Z"/><path fill="#197F61" id="SSp-ul2/3" d="M132 75c-6.417 0-17.339 9-21 9-1.145 0-6-9.222-6-11 0-2.47 5.03-3.265 6.5-4 5.669-2.835 15.1-10 21.5-10 0 4.723-1 10.82-1 16ZM345 84h1c0-3.891 6-7.03 6-11-1.984 0-23.459-14-28-14 0 2.158-.801 16 1 16 2.527 0 20 7.776 20 9Z"/><path fill="#3EA566" id="ACAd5" d="M204 91h1c0-3.1 9.268-6 12-6v-1c0-7.895-1-16.783-1-24-3.387 0-11.965 12-14 12v1c2.129 0 2 14.805 2 18ZM239 84c3.898 0 10.77 7 13 7 0-6.476 2-12.89 2-19 0-5.006-13-8.548-13-12h-1c0 7.29-1 16.053-1 24Z"/><path fill="#187E61" id="SSp-m1" d="m400 137-4 1c-1.713 0-2.174-10.847-3-12.5-3.761-7.523-7.2-15.4-11-23-4.392-8.784-13.628-15.628-20.5-22.5-2.114-2.114-8.5-4.159-8.5-7l2-5c2.839 0 14.516 11.016 17.5 14 14.218 14.218 27.5 35.032 27.5 55ZM56 137c2.25 0 3.376 2 5 2 0-15.428 9.573-27.647 16-40.5l9-11L104 73c0-1.114-2.034-4-3-4-7.28 0-11.336 10.918-17.5 14C71.37 89.065 56 123.893 56 137Z"/><path fill="#1D9C5A" id="MOs6a" d="M187 95c-3.519 0-5.843 2-9 2 0-6.6 1-13.865 1-21l12.5-7c4.345-2.173 7.509 3 10.5 3v1c-2.763 0-12 18.041-12 21-1.048 0-3-.473-3 1ZM267 94c4.06 0 7.303 3 11 3V77l-1-2c-5.867 0-9.509-6-16-6-1.643 0-6 1.338-6 3 0 5.028 12 15.297 12 22Z"/><path fill="#3FA664" id="ACAd6a" d="M261 99h1c0-2.169 2.899-5 5-5 0-6.703-12-16.972-12-22h-1c0 6.11-2 12.524-2 19l9 8Z"/><path fill="#1A7E64" id="SSp-m2/3" d="M61 139c3.205 0 6.24 4 9 4 0-14.46 13.156-35.656 23-45.5 4.86-4.86 11.162-12.5 18-12.5v-1c-1.145 0-6-9.222-6-11h-1L86 87.5l-9 11c-6.427 12.853-16 25.072-16 40.5Z"/><path fill="#3FA664" id="ACAd6a" d="M190 95c1.562 0 5 2.189 5 4l9-8c0-3.195.129-18-2-18-2.763 0-12 18.041-12 21v1Z"/><path fill="#1A7E64" id="SSp-m2/3" d="M386 143h1c0-1.817 7.169-4 9-4v-1c-1.713 0-2.174-10.847-3-12.5-3.761-7.523-7.2-15.4-11-23-4.392-8.784-13.628-15.628-20.5-22.5-2.114-2.114-8.5-4.159-8.5-7h-1c0 3.97-6 7.109-6 11 0 1.816 4.284 2.392 5.5 3l15 14c9.892 9.892 19.5 27.962 19.5 42Z"/><path fill="#1A7F63" id="SSp-ul4" d="M115 91h1c5.641 0 10.226-9 16-9v-7c-6.417 0-17.339 9-21 9v1c2.177 0 4 4.336 4 6ZM340 91h1c0-3.145 4-3.855 4-7 0-1.224-17.473-9-20-9 0 2.01-1 3.512-1 6l16 10Z"/><path fill="#1F9B5A" id="MOp6a" d="M140 115c-3.425 0-4.761 3-8 3l-1-4c1.916 0 0-6.104 0-6.5 0-2.722 2-7.784 2-11.5 2.421 0 31.651-12.076 35.5-14l10.5-6c0 7.135-1 14.4-1 21l-3 2c-1.649 0-9 1.947-9 4-6.547 0-14.818 6.159-20.5 9-1.311.656-5.5.797-5.5 3ZM325 113v5c-9.206 0-37.336-21-47-21V77c4.548 0 7.695 4.098 11.5 6 3.651 1.826 32.04 13 34.5 13l1 17Z"/><path fill="#187E62" id="SSp-ul5" d="M333 101h1c0-3.362 6-6.208 6-10l-16-10v15l9 5ZM122 101h1l9-5V82c-5.774 0-10.359 9-16 9l6 10Z"/><path fill="#3FA566" id="ACAv2/3" d="m221 119-3 1-1-35v-1l5-1v33l-1 3Z"/><path fill="#40A664" id="ACAv1" d="M227 111c-2.832 0-2.953 5-5 5V83h12v32l-5-5c0-3.471-2-1.581-2 1Z"/><path fill="#3FA566" id="ACAv2/3" d="m236 119 2 1c0-11.282 1-24.058 1-36l-5-1v32l2 4Z"/><path fill="#3EA666" id="ACAv5" d="M247 117c-2.546 0-5.725 3-9 3 0-11.282 1-24.058 1-36 3.898 0 10.77 7 13 7l-1 14.5-4 11.5Z"/><path fill="#1B7F62" id="SSp-m4" d="m386 143-6 2c0-9.64-14.405-32.905-21-39.5-4.12-4.12-8.563-9.032-13.5-11.5l-4.5-3c0-3.145 4-3.855 4-7h1c0 1.816 4.284 2.392 5.5 3l15 14c9.892 9.892 19.5 27.962 19.5 42ZM76 145h1c0-13.708 12.198-25.895 18-37.5l6-6L115 91c0-1.664-1.823-6-4-6-6.838 0-13.14 7.64-18 12.5-9.844 9.844-23 31.04-23 45.5l6 2Z"/><path fill="#3EA666" id="ACAv5" d="M209 116c0 2.251 7.01 4 9 4l-1-35c-2.732 0-12 2.9-12 6v12.5c1.671 3.341 4 8.641 4 12.5Z"/><path fill="#1B7E63" id="SSp-m5" d="m77 145 11 4c0-11.749 8.3-27.799 16-35.5 3.719-3.719 10.171-6.171 13.5-9.5 1.171-1.171 4.5-.774 4.5-3l-6-10h-1l-14 10.5-6 6c-5.802 11.605-18 23.792-18 37.5Z"/><path fill="#40A564" id="ACAv6a" d="m206 115 3 1c0-3.859-2.329-9.159-4-12.5V91h-1l-9 8c0 5.613 10 9.793 10 14l1 2ZM250 115l-3 2 4-11.5 1-14.5 9 8-2 6-8 8-1 2Z"/><path fill="#1B7E63" id="SSp-m5" d="m380 145-11 4c0-10.715-10.227-28.727-18-36.5l-11.5-8.5-5.5-3c0-3.362 6-6.208 6-10h1l4.5 3c4.937 2.468 9.38 7.38 13.5 11.5 6.595 6.595 21 29.86 21 39.5Z"/><path fill="#1E9C58" id="MOs6b" d="M187 95h3v-1c-1.048 0-3-.473-3 1Z"/><path fill="#3FA466" id="ACAd6b" d="M262 99v1l5-5v-1c-2.101 0-5 2.831-5 5Z"/><path fill="#1E9C58" id="MOs6b" d="M278 97v1c-3.771 0-7.478-3-11-3v-1c4.06 0 7.303 3 11 3ZM178 97v1c1.671 0 9-1.13 9-3-3.519 0-5.843 2-9 2Z"/><path fill="#CACCC7" id="cing" d="m205 113 1 2c-8.409 0-12.029-11.765-18.5-15-5.839-2.92-13.296 5-18.5 5l-2 1h-5l4-3c1.85 0 9-1.784 9-4 1.048 0 3 .473 3-1 1.671 0 9-1.13 9-3h3l4 4c0 3.66 6.732 14 11 14Z"/><path fill="#3FA466" id="ACAd6b" d="M194 99h1c0-1.811-3.438-4-5-4l4 4Z"/><path fill="#CACCC7" id="cing" d="m251 113-1 2c9.409 0 11.675-11.087 19.5-15 4.941-2.47 11.171 4 15.5 4l1 1h1l8 1-17-8c-3.771 0-7.478-3-11-3l-5 5c0 1.408-1.197 5-3 5 0 2.664-5.336 8-8 8Z"/><path fill="#197D61" id="SSp-ul6a" d="M123 101c0 4.781 8 8.582 8 13 1.916 0 0-6.104 0-6.5 0-2.722 2-7.784 2-11.5h-1l-9 5ZM333 101c0 2.912-5.425 12-8 12l-1-17 9 5Z"/><path fill="#1D9D5A" id="MOp6b" d="M178 98c0 1.473-1.952 1-3 1l3-2v1ZM325 119v1c-6.93 0-22.395-14-30-14l-17-8v-1c9.664 0 37.794 21 47 21v1ZM175 99c-1.649 0-9 1.947-9 4 1.85 0 9-1.784 9-4Z"/><path fill="#40A465" id="ACAv6b" d="M195 99c0 5.613 10 9.793 10 14-4.268 0-11-10.34-11-14h1ZM262 100c0 1.408-1.197 5-3 5l2-6h1v1Z"/><path fill="#C9C7C9" id="ccb" d="M351 164h1l-1-7c-1.177 0-3.326-8.152-4-9.5-3.861-7.722-12.882-20.691-20.5-24.5-9.913-4.957-20.133-9.067-30-14-1.568-.784-9.5-1.924-9.5-4h-1l-1-1c-4.329 0-10.559-6.47-15.5-4-7.825 3.913-10.091 15-19.5 15l-3 2c-2.546 0-5.725 3-9 3l-2-1-4.5 2c-2.288 1.144-2.2-2-3-2l-2 2c-1.059.53-5.5-1.199-5.5-2l-3 1c-1.99 0-9-1.749-9-4l-3-1c-8.409 0-12.029-11.765-18.5-15-5.839-2.92-13.296 5-18.5 5l-2 1c0 1.998-5.174 2.337-6.5 3-6.417 3.209-13.655 4.827-20 8-5.714 2.857-11.728 6.728-16.5 11.5l-7 6.5c0 1.429-1.288 4-3 4l-1 1v1l-1 1-1 2c0 1.238-.423 3-2 3v1l-2 4c0 1.048.473 3-1 3v2l-1 1v5c1.229 0 3.262-10.024 4-11.5 3.392-6.783 13.093-20.797 20.5-24.5l18-8c3.405-1.702 8.644-.322 12-2 1.999-1 10.855-3.072 13-2 .948.474 12.927 3 13.5 3 1.347 0 8 3.438 8 5h1l2 2h1c1.549 0 9 4.672 9 6l2 2c3.156 0 10 .344 10 4l5.5 1 4-3 3 3 5.5-1c0-3.333 7.493-4 10-4l2-1 1-1 1-1 1-1h1l1-1 1-1h1l1-1 1-1h1l1-1 1-1h1c0-1.948 5.428-4 7-4l1-1c4.382 0 13.704-5.398 18.5-3 6.145 3.073 14.88.94 21 4 4.563 2.281 9.487 3.743 14 6 12.529 6.264 27.5 25.365 27.5 39Z"/><path fill="#187D61" id="SSp-m6a" d="m102 166-7 1c0-6.857 4.943-18-7-18 0-11.749 8.3-27.799 16-35.5 3.719-3.719 10.171-6.171 13.5-9.5 1.171-1.171 4.5-.774 4.5-3h1c0 4.781 8 8.582 8 13l1 4v1c-3.839 0-17 12.157-17 16-4.98 0-13 25.367-13 31ZM354 166l7 1c0-7.652-2.792-18 8-18 0-10.715-10.227-28.727-18-36.5l-11.5-8.5-5.5-3h-1c0 2.912-5.425 12-8 12v6c3.73 0 9.294 6.794 12 9.5 9.688 9.688 17 23.778 17 37.5Z"/><path fill="#1D9D5A" id="MOp6b" d="M162 106c-6.708 0-14.889 9-22 9 0-2.203 4.189-2.344 5.5-3 5.682-2.841 13.953-9 20.5-9l-4 3Z"/><path fill="#C9C9CA" id="scwm" d="m285 104 1 1-1-1ZM169 105l-2 1 2-1Z"/><path fill="#40A465" id="ACAv6b" d="m259 105-8 8c2.664 0 8-5.336 8-8Z"/><path fill="#C9C9CA" id="scwm" d="m325 120 11.5 10c6.012 6.012 14.5 18.404 14.5 27-1.177 0-3.326-8.152-4-9.5-3.861-7.722-12.882-20.691-20.5-24.5-9.913-4.957-20.133-9.067-30-14-1.568-.784-9.5-1.924-9.5-4l8 1c7.605 0 23.07 14 30 14ZM132 120c-2.06 0-15 11.873-15 15l7-6.5c4.772-4.772 10.786-8.643 16.5-11.5 6.345-3.173 13.583-4.791 20-8 1.326-.663 6.5-1.002 6.5-3h-5c-6.708 0-14.889 9-22 9 0 1.562-6.653 5-8 5Z"/><path fill="#7ED04B" id="IG" d="M221 119c0 .801 4.441 2.53 5.5 2l2-2c.8 0 .712 3.144 3 2l4.5-2-2-4-5-5-2 1c-2.832 0-2.953 5-5 5l-1 3Z"/><path fill="#1D9D5A" id="MOp6b" d="M132 119v1c1.347 0 8-3.438 8-5-3.425 0-4.761 3-8 3v1Z"/><path fill="#98D5F9" id="CP" d="m124 229 10 6c11.68 0 22.851.824 32.5-4 8.34-4.17 8.957-24 16.5-24 0-1.301 6.333-9 8-9 0-6.525 1-13.596 1-19.5 0-1.363-.7-6.5 1-6.5v-5l1-1 1-7v-22.5l-6-14.5-3-4c-.573 0-12.552-2.526-13.5-3-2.145-1.072-11.001 1-13 2-3.356 1.678-8.595.298-12 2l-18 8c-7.407 3.703-17.108 17.717-20.5 24.5-.738 1.476-2.771 11.5-4 11.5v23l3 6c0 6.928 5 14.414 5 21v2l1 1 2 4 3 3v1l2 2v1c2.215 0 1.519 2 3 2ZM332 229l-9 6c-8.938 0-20.991 1.755-28.5-2l-9-6c-5.194-2.597-3.428-20-11.5-20l-9-10c0-6.538 1.787-16.927-1-22.5-.574-1.147 1.064-4.5-1-4.5l-1-9-1-2v-20.5l6-16.5c1.577 0 2-1.762 2-3l1-1c4.382 0 13.704-5.398 18.5-3 6.145 3.073 14.88.94 21 4 4.563 2.281 9.487 3.743 14 6 12.529 6.264 27.5 25.365 27.5 39l1 2v16c-2.064 0-.426 3.353-1 4.5-2.519 5.037-4 9.334-4 15.5-1.175 0-2 5.704-2 7-1.014 0-2 3.959-2 5v2l-1 1-1 1v1l-1 1-1 1v1l-1 1-1 1v1c-1.747 0-2 .253-2 2l-3 2Z"/><path fill="#AAA8A9" id="SEZ" d="M189 122c1.691 0 3.148 1 5 1 0-1.562-6.653-5-8-5l3 4ZM270 118l-1 1 1-1Z"/><path fill="#188064" id="SSp-m6b" d="M115 135h2c0-3.127 12.94-15 15-15v-1c-3.839 0-17 12.157-17 16Z"/><path fill="#AAA8A9" id="SEZ" d="m267 122-5 1c0-1.948 5.428-4 7-4 0 1.238-.423 3-2 3Z"/><path fill="#188064" id="SSp-m6b" d="M352 166h2c0-13.722-7.312-27.812-17-37.5-2.706-2.706-8.27-9.5-12-9.5v1l11.5 10c6.012 6.012 14.5 18.404 14.5 27l1 7v2Z"/><path fill="#A8AAAA" id="VL" d="m196 157-1 2v-22.5l-6-14.5c1.691 0 3.148 1 5 1h1l2 2h1c0 1.442 7.56 6 9 6v3c0 5.678-8 9.61-8 15l-2 7-1 1ZM257 149l4 8v-18.5l6-16.5-5 1h-1l-1 1-1 1h-1l-1 1-1 1h-1l-1 1-1 1h-1l-1 1-1 1-1 1v2c0 5.452 8 9.255 8 15Z"/><path fill="#AAA8A9" id="SEZ" d="m195 123 2 2-2-2ZM261 123l-1 1 1-1ZM260 124l-1 1 1-1ZM198 125c1.549 0 9 4.672 9 6-1.44 0-9-4.558-9-6ZM258 125l-1 1 1-1ZM257 126l-1 1 1-1ZM255 127l-1 1 1-1ZM254 128l-1 1 1-1ZM252 129l-1 1 1-1ZM251 130l-1 1 1-1Z"/><path fill="#97D6F9" id="STR" d="m209 133-2 1v-3l2 2Z"/><path fill="#AAA8A9" id="SEZ" d="m250 131-1 1 1-1Z"/><path fill="#97D6F9" id="STR" d="m247 133 2 1v-2l-2 1Z"/><path fill="#90CBEC" id="LSc" d="M219 137c0 3.822-15.926 12-20 12 0-5.39 8-9.322 8-15l2-1c3.156 0 10 .344 10 4ZM237 137c0 3.087 16.097 12 20 12 0-5.745-8-9.548-8-15l-2-1c-2.507 0-10 .667-10 4Z"/><path fill="#188064" id="SSp-m6b" d="M102 166h2l1-1v-7l1-1v-2c0-1.048-.473-3 1-3 0-1.465-.109-4 2-4v-1c0-1.238.423-3 2-3l1-2 1-1v-1l1-1 1-4c-4.98 0-13 25.367-13 31Z"/><path fill="#C9C9CA" id="scwm" d="M117 135c0 1.429-1.288 4-3 4l1-4h2Z"/><path fill="#97D6F9" id="STR" d="M261 157v1l-5.5-5c-7.818-3.909-14.164-10.082-22-14-10.744-5.372-31.378 17-36.5 17l2-7c4.074 0 20-8.178 20-12l5.5 1 4-3 3 3 5.5-1c0 3.087 16.097 12 20 12l4 8Z"/><path fill="#1A7E62" id="SSs1" d="M54 176h1l3-1-1-16.5c1.31-2.62 4-16.694 4-19.5-1.624 0-2.75-2-5-2 0 8.548-8.088 20.324-4 28.5.815 1.629-.185 10.5 2 10.5ZM401 176h2c0-10.087 4.148-19.203-1-29.5-.645-1.29-.67-9.5-2-9.5l-4 1v1c0 4.473 1.059 11.619 3 15.5 2.545 5.091-1 15.643-1 20.5l3 1Z"/><path fill="#1B8063" id="SSs2/3" d="M58 175h1c0-1.674 7.241-2 9-2 0-10.375 2-20.481 2-30-2.76 0-5.795-4-9-4 0 2.806-2.69 16.88-4 19.5l1 16.5Z"/><path fill="#C9C9CA" id="scwm" d="m114 139-1 1 1-1Z"/><path fill="#90CAED" id="LSr" d="M220 203h1c0-11.489 4-21.567 4-33 0-1.048-.473-3 1-3 0-4.025.272-10.043 2-13.5l.5-2.5.5 7.5 2 10.5c0 11.185 4 21.379 4 33l1 2 5-10.5c.579-1.159 15.853-17.676 17.5-18.5h4.5v-5l-1-9-1-2v-1l-5.5-5c-7.818-3.909-14.164-10.082-22-14-10.744-5.372-31.378 17-36.5 17l-1 1-1 2-1 7-1 1v8c5.482 0 19.103 12.706 22 18.5l4 6c.523 1.046-.951 3.5 1 3.5Z"/><path fill="#1B8063" id="SSs2/3" d="M389 173c3.447 0 6.245 2 9 2 0-4.857 3.545-15.409 1-20.5-1.941-3.881-3-11.027-3-15.5-1.831 0-9 2.183-9 4 0 10.297 2 19.336 2 30Z"/><path fill="#C9C9CA" id="scwm" d="m113 141-1 1 1-1ZM112 142l-1 2 1-2Z"/><path fill="#187C63" id="SSs4" d="m73 171-5 2c0-10.375 2-20.481 2-30l6 2c0 8.604-3 16.645-3 26ZM384 171l5 2c0-10.664-2-19.703-2-30h-1l-6 2c0 8.074 4 17.448 4 26Z"/><path fill="#C9C9CA" id="scwm" d="M111 144c-1.577 0-2 1.762-2 3 1.577 0 2-1.762 2-3Z"/><path fill="#1C8063" id="SSs5" d="m86 169-13 2c0-9.355 3-17.396 3-26h1l11 4c0 6.411-2 13.251-2 20ZM370 169c4.798 0 8.844 2 14 2 0-8.552-4-17.926-4-26l-11 4 1 20Z"/><path fill="#C9C9CA" id="scwm" d="M109 148c-2.109 0-2 2.535-2 4l2-4Z"/><path fill="#197D63" id="SSs6a" d="m95 167-9 2c0-6.749 2-13.589 2-20 11.943 0 7 11.143 7 18ZM361 167l9 2-1-20c-10.792 0-8 10.348-8 18Z"/><path fill="#97D6F9" id="STR" d="m226 167 2.5-2 2.5 4-2-10.5-.5-7.5-.5 2.5c-1.728 3.457-2 9.475-2 13.5Z"/><path fill="#C9C9CA" id="scwm" d="M107 152c-1.473 0-1 1.952-1 3 1.473 0 1-1.952 1-3Z"/><path fill="#97D6F9" id="STR" d="m197 156-1 1 1-1Z"/><path fill="#C9C9CA" id="scwm" d="m106 157-1 1 1-1Z"/><path fill="#A8AAAA" id="VL" d="m261 159 1 2-1-2Z"/><path fill="#CCC7C9" id="ccg" d="M352 164v2l-1-2h1ZM104 166h1v-1l-1 1Z"/><path fill="#96A7D3" id="MS" d="M221 237c2.279 0 5.418 2 7.5 2l1-2c1.982 0 4.531 1 6.5 1v-31c-1.643 0-1-3.765-1-5 0-11.621-4-21.815-4-33l-2.5-4-2.5 2c0 1.048.473 3-1 3 0 11.433-4 21.511-4 33l-1 26c0 1.49-.735 8 1 8Z"/><path fill="#009B74" id="GU6a" d="M102 181c-5.008 0-9.688 6-15 6l-1-18 9-2 7-1v15Z"/><path fill="#019C74" id="GU6b" d="M102 181h2v-15h-2v15Z"/><path fill="#C8CBCC" id="ec" d="m104 181 1 2v-17h-1v15Z"/><path fill="#A8AAAA" id="VL" d="m194 166-1 1 1-1Z"/><path fill="#019C74" id="GU6b" d="M353 181h1v-15h-2v1c1.793 0 1 12.009 1 14Z"/><path fill="#009B74" id="GU6a" d="m354 181 15 6c0-5.521 1-11.898 1-18l-9-2-7-1v15Z"/><path fill="#97D6F9" id="STR" d="M226 167c-1.473 0-1 1.952-1 3 1.473 0 1-1.952 1-3Z"/><path fill="#C8CBCC" id="ec" d="M352 181h1c0-1.991.793-14-1-14v14Z"/><path fill="#019C75" id="GU5" d="M87 188c-5.02 0-7.959 3-13 3 0-2.123-1-7.499-2-9.5l1-10.5 13-2 1 18v1ZM382 191h1c0-6.469 1-13.063 1-20-5.156 0-9.202-2-14-2 0 6.102-1 12.479-1 18v1c5.253 0 8.028 3 13 3Z"/><path fill="#A8AAAA" id="VL" d="M263 195c0 3.083 2 7.109 2 2 0-6.538 1.787-16.927-1-22.5-.574-1.147 1.064-4.5-1-4.5v25Z"/><path fill="#009C74" id="GU4" d="M72 192h2v-1c0-2.123-1-7.499-2-9.5l1-10.5-5 2c0 7.028 4 13.511 4 19ZM383 191l1 1c1.59 0 1.443-4.386 2-5.5 1.64-3.28 3-9.779 3-13.5l-5-2c0 6.937-1 13.531-1 20Z"/><path fill="#A8AAAA" id="VL" d="M194 196c0 1.662-3 5.968-3 2 0-6.525 1-13.596 1-19.5 0-1.363-.7-6.5 1-6.5v3c0 7.052 1 14.555 1 21Z"/><path fill="#009B75" id="GU2/3" d="m72 194-8 1c-1.952 0-.477-2.454-1-3.5-2.49-4.982-4-10.495-4-16.5 0-1.674 7.241-2 9-2 0 7.028 4 13.511 4 19v2ZM385 194l8 2c0-7.119 5-13.717 5-21-2.755 0-5.553-2-9-2 0 3.721-1.36 10.22-3 13.5-.557 1.114-.41 5.5-2 5.5l1 2Z"/><path fill="#009C75" id="GU1" d="m64 196-4 1c0-6.47-6-13.06-6-20l1-1 3-1h1c0 6.005 1.51 11.518 4 16.5.523 1.046-.952 3.5 1 3.5v1Z"/><path fill="#8FCBED" id="LSv" d="M194 196c4.512 0 26 30.968 26 7-1.951 0-.477-2.454-1-3.5l-4-6c-2.897-5.794-16.518-18.5-22-18.5 0 7.052 1 14.555 1 21ZM236 207v2c2.703 0 3.768 4.366 8.5 2 3.124-1.562 17.698-16 18.5-16v-20h-4.5c-1.647.824-16.921 17.341-17.5 18.5l-5 10.5v3Z"/><path fill="#009C75" id="GU1" d="M393 197h3c1.59 0 1.443-4.386 2-5.5l5-14.5-2-1-3-1c0 7.283-5 13.881-5 21v1Z"/><path fill="#12AD83" id="VISC1" d="m55 176-1 1v-1h1ZM403 176v1l-2-1h2Z"/><path fill="#209666" id="AId6a" d="m97 203-5 1-5-16v-1c5.312 0 9.992-6 15-6l1 7c-8.733 0-6 9.288-6 15Z"/><path fill="#1F9766" id="AId6b" d="m103 189 2 1v-7l-1-2h-2l1 7v1ZM353 189l-2 1 1-8v-1h2l-1 8Z"/><path fill="#209666" id="AId6a" d="m359 203 5 1c0-4.072 5-10.283 5-16v-1l-15-6-1 8c10.307 0 6 6.697 6 14Z"/><path fill="#C8CBCC" id="ec" d="m348 201-1 1c0-6.166 1.481-10.463 4-15.5.574-1.147-1.064-4.5 1-4.5l-1 8v3c-2.867 0-2 5.149-2 7l-1 1ZM111 210l2 3c0-6.586-5-14.072-5-21l-3-6v4c0 3.339 3 6.924 3 11 1.684 0 1 4.679 1 6l2 3Z"/><path fill="#209665" id="AId5" d="M79 205h1c4.107 0 8.469-1 12-1l-5-16c-5.02 0-7.959 3-13 3v1c.208 0 5 11.827 5 13Z"/><path fill="#8ADA86" id="CLA" d="M107 201c0 4.944-2.618 8.441-7.5 6l-2.5-4c0-5.712-2.733-15 6-15v1c0 3.64 4 7.876 4 12ZM349 201c0 7.085 10 9.518 10 2 0-7.303 4.307-14-6-14l-2 4c0 1.593-.337 7-2 7v1Z"/><path fill="#209665" id="AId5" d="M364 204c4.077 0 8.431 1 13 1 0-2.962 5-9.376 5-14-4.972 0-7.747-3-13-3 0 5.717-5 11.928-5 16Z"/><path fill="#209666" id="AId6a" d="M107 201h1c0-4.076-3-7.661-3-11l-2-1c0 3.64 4 7.876 4 12ZM351 190v3l2-4-2 1Z"/><path fill="#209765" id="AId2/3" d="m377 205 2 1c4.237 0 2.425-12 6-12l-1-2-1-1h-1c0 4.624-5 11.038-5 14ZM77 205h2c0-1.173-4.792-13-5-13h-2v2c0 3.069 3.594 11 5 11Z"/><path fill="#209666" id="AId6a" d="M351 193c-2.867 0-2 5.149-2 7 1.663 0 2-5.407 2-7Z"/><path fill="#209865" id="AIp2/3" d="M81 216c0 1.175-5.704 2-7 2 0-7.49-10-14.013-10-22v-1l8-1c0 3.069 3.594 11 5 11 0 2.233 1.546 11 4 11ZM375 216c0 .853 6.031 2 7 2l11-21v-1l-8-2c-3.575 0-1.763 12-6 12 0 2.172-1.377 10-4 10Z"/><path fill="#97D6F9" id="STR" d="M236 238v4c4.26 0 7.243-.871 11.5-3 2.428-1.214 2.985-8 5.5-8v-2c0-2.483 2-4.026 2-6l-2-9.5c9.757-19.513 10-8.171 10 5.5l2 1c0-1.982-2.723-15.611 4.5-12l3.5 2 1-3-9-10c0 5.109-2 1.083-2-2-.802 0-15.376 14.438-18.5 16-4.732 2.366-5.797-2-8.5-2v29Z"/><path fill="#219765" id="AIp1" d="M74 218c0 .672-4.33 2-5 2 0-5.72-9-15.696-9-23l4-1c0 7.987 10 14.51 10 22Z"/><path fill="#97D6F9" id="STR" d="m221 237-1 5c-3.029 0-7.571-.071-10.5-3l-5.5-8v-1l-1-1v-1c0-1.465.109-4-2-4 0-3.388 4.095-8.31 2-12.5-8.797-17.593-10-3.11-10 7.5h-1c0-4.313 2.601-7.449-2.5-10l-2-1-4.5 2v-3c0-1.301 6.333-9 8-9 0 3.968 3-.338 3-2 4.512 0 26 30.968 26 7h1l-1 26c0 1.49-.735 8 1 8Z"/><path fill="#219765" id="AIp1" d="M382 218c.671 0 5 1.328 5 2 1.814 0 9-19.469 9-23h-3l-11 21Z"/><path fill="#209666" id="AId6a" d="M348 201h1v-1l-1 1Z"/><path fill="#1F9866" id="AIv6a" d="m101 211-6 1c0-3.238-3-5.3-3-8l5-1 2.5 4c4.882 2.441 7.5-1.056 7.5-6h1c1.684 0 1 4.679 1 6l-4 2h-1l-1 1-2 1ZM353 209l8 3 3-8-5-1c0 7.518-10 5.085-10-2h-1l-1 1v5c1.424 0 5 .362 5 2h1Z"/><path fill="#97D6F9" id="STR" d="M236 204v3c-1.643 0-1-3.765-1-5l1 2Z"/><path fill="#C8CBCC" id="ec" d="M345 209h1l1-2v-5c-1.175 0-2 5.704-2 7Z"/><path fill="#B3C0DE" id="BST" d="M200 224h1c0-3.388 4.095-8.31 2-12.5-8.797-17.593-10-3.11-10 7.5 3.793 0 5.742 5 7 5ZM255 223l1 1c1.791 0 3.398-5 7-5 0-13.671-.243-25.013-10-5.5l2 9.5Z"/><path fill="#1F9865" id="AIv5" d="m91 214-4 1-7-10c4.107 0 8.469-1 12-1 0 2.7 3 4.762 3 8l-4 2ZM365 214l5 1c0-4.067 7-6.643 7-10-4.569 0-8.923-1-13-1l-3 8 4 2Z"/><path fill="#219764" id="AIv2/3" d="m87 215-6 1c-2.454 0-4-8.767-4-11h3l7 10ZM370 215l5 1c2.623 0 4-7.828 4-10l-2-1c0 3.357-7 5.933-7 10Z"/><path fill="#8AD987" id="CTXsp" d="M105 209c2.124 0 4.436 1 6 1l-2-3-4 2Z"/><path fill="#80CDF8" id="ACB" d="M131 237c0 5.802 6 11.489 6 17 0 9.095 18.051 9 24 9 10.012 0 38-24.224 38-34l1-5c-1.258 0-3.207-5-7-5h-1l-1 1c0 1.94-8.744 5.013-10 2.5-3.05-6.101 2-6.892 2-12.5v-3c-7.543 0-8.16 19.83-16.5 24-9.649 4.824-20.82 4-32.5 4l-3 2ZM325 237c0 6.259-5 11.118-5 17l-8.5 8c-5.594 2.797-18.87 1.565-24-1-7.357-3.678-17.639-10.778-21.5-18.5l-8-11.5-1-1v-1l-1-5c1.791 0 3.398-5 7-5l2 1c0 3.929 10.224 4.052 12 .5 2.146-4.293-4-7.321-4-10.5l1-3c8.072 0 6.306 17.403 11.5 20l9 6c7.509 3.755 19.562 2 28.5 2l2 2Z"/><path fill="#8AD987" id="CTXsp" d="M346 209h6c0-1.638-3.576-2-5-2l-1 2Z"/><path fill="#CBCBC7" id="aco" d="m192 219-1 1c0 1.94-8.744 5.013-10 2.5-3.05-6.101 2-6.892 2-12.5l4.5-2 2 1c5.101 2.551 2.5 5.687 2.5 10ZM273 210l-3.5-2c-7.223-3.611-4.5 10.018-4.5 12 0 3.929 10.224 4.052 12 .5 2.146-4.293-4-7.321-4-10.5Z"/><path fill="#99D2BD" id="OLF" d="m104 209-1 1 1-1Z"/><path fill="#A0EE9C" id="EPd" d="m115 231 3 1c0-1.206 3-1.613 3-5v-1l-2-2v-1l-3-3-2-4-1-1v-2l-2-3c-1.564 0-3.876-1-6-1h-1l-1 1-2 1-2 6.5 2 4.5v1l1 1 2 1 2 2h1l1 1h1l1 1h1l1 1h1l1 1h1Z"/><path fill="#C8CBCC" id="ec" d="M345 210c0 1.465.109 4-2 4 0-1.041.986-5 2-5v1Z"/><path fill="#8AD987" id="CTXsp" d="m346 209-1 1v-1h1Z"/><path fill="#A0EE9C" id="EPd" d="M338 232h1l2-1h2l1-1 1-1h2l1-1 1-1h1l1-1h1l1-1 1-1 1-1 1-1 1-2c0-4.957-4-9.113-4-11h-7l-1 1c0 1.465.109 4-2 4v2l-1 1-1 1v1l-1 1-1 1v1l-1 1-1 1v1l-2 2c0 3.387 3 3.794 3 5Z"/><path fill="#99D2BD" id="OLF" d="M365 214c-4.043 0-5.395 6-8 6 0-4.957-4-9.113-4-11l8 3 4 2ZM103 210l-2 1 2-1ZM91 214c5.69 0 6.451 8 10 8l-2-4.5 2-6.5-6 1-4 2Z"/><path fill="#6ACAB9" id="PIR" d="M119 263h2c2.565 0 3.909-4 7-4 0-7.343 5.533-8.433 1-17.5l-9.5-8.5c-1.119-.559-4.5-.155-4.5-2h-1l-1-1h-1l-1-1h-1l-1-1h-1l-1-1h-1l-2-2-2-1-1-1v-1c-3.549 0-4.31-8-10-8l-4 1-6 1c0 1.175-5.704 2-7 2 0 .672-4.33 2-5 2 0 6.566 13.122 23.811 19.5 27 1.436.718 4.07 6 6.5 6 4.147 0 24 2.55 24 10ZM335 263h2l3.5-4 11-6c1.537-.768 9.5-.713 9.5 0 6.18 0 26-26.53 26-33 0-.672-4.329-2-5-2-.969 0-7-1.147-7-2l-5-1-5-1c-4.043 0-5.395 6-8 6l-1 2-1 1-1 1-1 1-1 1h-1l-1 1h-1l-1 1-1 1h-2l-1 1-1 1h-2l-2 1-3.5 2-8.5 7.5c-5.777 11.555 3 13.743 3 18.5l5 3Z"/><path fill="#C8CBCC" id="ec" d="m113 215 1 1-1-1ZM343 216l-1 1 1-1ZM342 217l-1 1 1-1Z"/><path fill="#97D6F9" id="STR" d="m192 219-1 1 1-1Z"/><path fill="#C8CBCC" id="ec" d="m341 219-1 1 1-1ZM116 220l3 3-3-3ZM340 220l-1 1 1-1Z"/><path fill="#99D2BD" id="OLF" d="m357 220-1 2 1-2Z"/><path fill="#C8CBCC" id="ec" d="m339 222-1 1 1-1Z"/><path fill="#99D2BD" id="OLF" d="m356 222-1 1 1-1ZM101 223l1 1-1-1Z"/><path fill="#E64438" id="HY" d="M253 229h4l-1-5-1-1c0 1.974-2 3.517-2 6Z"/><path fill="#8AD987" id="CTXsp" d="m338 223-1 1 1-1Z"/><path fill="#99D2BD" id="OLF" d="m355 223-1 1 1-1Z"/><path fill="#8AD987" id="CTXsp" d="m119 224 2 2-2-2Z"/><path fill="#E64438" id="HY" d="m203 228-4 1 1-5h1c2.109 0 2 2.535 2 4Z"/><path fill="#99D2BD" id="OLF" d="m354 224-1 1 1-1ZM104 225l2 2-2-2Z"/><path fill="#8AD987" id="CTXsp" d="M337 225c-1.747 0-2 .253-2 2l2-2Z"/><path fill="#99D2BD" id="OLF" d="m353 225-1 1 1-1ZM351 226l-1 1 1-1ZM107 227l1 1-1-1Z"/><path fill="#8AD987" id="CTXsp" d="M118 232h7l-1-3c-1.481 0-.785-2-3-2 0 3.387-3 3.794-3 5ZM332 232h6c0-1.206-3-1.613-3-5l-3 2v3Z"/><path fill="#99D2BD" id="OLF" d="m349 227-1 1 1-1ZM109 228l1 1-1-1Z"/><path fill="#A2B1D7" id="SI" d="M187 272v3c-12.77 0-30.312 5.594-41.5 0l-5-4c-3.549-1.774-11.5-7.798-11.5-12l8-5c0 9.095 18.051 9 24 9 10.012 0 38-24.224 38-34l4-1v1l1 1v1c0 6.867-2 12.86-2 19l-1 1c0 6.418-10 11.491-10 16-1.77 0-4 3.15-4 5ZM269 272l1 3c12.515 0 29.467 5.516 40.5 0l8-6c2.504-1.252 9.5-6.859 9.5-10-3.889 0-4.691-5-8-5l-8.5 8c-5.594 2.797-18.87 1.565-24-1-7.357-3.678-17.639-10.778-21.5-18.5l-8-11.5-1-1v-1h-4v16.5l2 4.5c0 5.285 11 14.613 11 17 1.077 0 3 3.762 3 5Z"/><path fill="#99D2BD" id="OLF" d="m348 228-1 1 1-1ZM111 229l1 1-1-1Z"/><path fill="#97D6F9" id="STR" d="m134 235-3 2-6-5-1-3 10 6Z"/><path fill="#E64438" id="HY" d="m203 229 1 1-1-1Z"/><path fill="#97D6F9" id="STR" d="m323 235 2 2c3.273 0 3.506-5 7-5v-3l-9 6Z"/><path fill="#99D2BD" id="OLF" d="m345 229-1 1 1-1ZM113 230l1 1-1-1Z"/><path fill="#E64438" id="HY" d="m257 230 1 1-1-1Z"/><path fill="#99D2BD" id="OLF" d="m344 230-1 1 1-1ZM128 259h1l8-5c0-5.511-6-11.198-6-17l-6-5h-7l-3-1c0 1.845 3.381 1.441 4.5 2l9.5 8.5c4.533 9.067-1 10.157-1 17.5Z"/><path fill="#E64438" id="HY" d="M202 250c2.121 0 5 1.693 5 4l7.5-9c.774-.387 4.5-2.186 4.5 0 1.473 0 1-1.952 1-3-3.029 0-7.571-.071-10.5-3l-5.5-8c0 6.867-2 12.86-2 19ZM255 250c-4.086 0-5 2.29-5 6-.257 0-6.582-10.541-9.5-12l-3.5 1-1-3c4.26 0 7.243-.871 11.5-3 2.428-1.214 2.985-8 5.5-8v14.5l2 4.5Z"/><path fill="#99D2BD" id="OLF" d="m341 231-2 1 2-1ZM328 259l2 1c0-4.757-8.777-6.945-3-18.5l8.5-7.5 3.5-2h-7c-3.494 0-3.727 5-7 5 0 6.259-5 11.118-5 17 3.309 0 4.111 5 8 5Z"/><path fill="#96A6D3" id="NDB" d="M248 273h1c3.324 0 15 6.211 15-3l-1-3c-2.471 0-13-6.849-13-10-6.884 0-13-5.035-13-12l-1-3v-4c-1.969 0-4.518-1-6.5-1l-1 2c-2.082 0-5.221-2-7.5-2l-1 5c0 1.048.473 3-1 3 0 6.864-5.171 12-12 12l-1 1-1 1c0 1.468-9.395 8-11 8l-1 1v1c0 7.173 6.246 6 12 6 0-1.577 1.762-2 3-2l1-1 2-1 1-1 2-1 1-2c0-6.661 13-20.025 13-23 0-2.212 1-2.212 1 0 0 5.475 12 13.992 12 23l3 3 1 1h1l2 2Z"/><path fill="#96A7D3" id="MS" d="M228 244h1c0-2.212-1-2.212-1 0Z"/><path fill="#FF5346" id="MPO" d="M207 254v3c6.829 0 12-5.136 12-12 0-2.186-3.726-.387-4.5 0l-7.5 9Z"/><path fill="#FE5446" id="AVPV" d="M217 269c4.166 0 8.182-6 11.5-6l1 2 9.5 4 2-2c0-9.008-12-17.525-12-23h-1c0 2.975-13 16.339-13 23l2 2Z"/><path fill="#FF5346" id="MPO" d="M250 256v1c-6.884 0-13-5.035-13-12l3.5-1c2.918 1.459 9.243 12 9.5 12Z"/><path fill="#E64438" id="HY" d="m202 250-1 1 1-1Z"/><path fill="#F2473B" id="LPO" d="m194 267-1 1-2-1c0-4.509 10-9.582 10-16l1-1c2.121 0 5 1.693 5 4v3l-1 1-1 1c0 1.468-9.395 8-11 8ZM263 267c.716 0 3 2.373 3 0 0-2.387-11-11.715-11-17-4.086 0-5 2.29-5 6v1c0 3.151 10.529 10 13 10Z"/><path fill="#CAC8C7" id="lot" d="M118 269h1v-6c0-7.45-19.853-10-24-10 0 1.808 14.715 10.607 17.5 12 2.303 1.151 2.641 4 5.5 4ZM338 269h1c2.835 0 2.575-3.038 4.5-4 3.495-1.747 17.5-7.976 17.5-12 0-.713-7.963-.768-9.5 0l-11 6-3.5 4v5l1 1Z"/><path fill="#E64438" id="HY" d="m207 257-1 1 1-1ZM206 258l-1 1 1-1Z"/><path fill="#7FCCF7" id="OT" d="m197 281-1 1c0 14.795-16.676 10.088-24.5 14-16.377 8.188-37.979.542-45.5-14.5-1.723-3.445-6-5.346-6-9.5l-1-3v-2l1-1 1-3c2.565 0 3.909-4 7-4h1c0 4.202 7.951 10.226 11.5 12l5 4c11.188 5.594 28.73 0 41.5 0 4.551 0 10 .357 10 6ZM270 275c-5.376 0-10 .914-10 6 0 15.742 16.538 11.019 24.5 15 14.137 7.068 36.651 3.199 44.5-12.5 2.04-4.079 8-7.708 8-12.5v-6l-2-2-5-3-2-1c0 3.141-6.996 8.748-9.5 10l-8 6c-11.033 5.516-27.985 0-40.5 0Z"/><path fill="#99D2BD" id="OLF" d="M119 266h1l1-3h-2v3ZM337 263v2l-2-2h2Z"/><path fill="#97D6F9" id="STR" d="m120 266-1 1v-1h1Z"/><path fill="#E64438" id="HY" d="m193 269-6 3c0-1.85 2.23-5 4-5l2 1v1ZM194 267l-1 1 1-1ZM214 269h3l-2-2-1 2ZM239 269l5 1-3-3-2 2ZM264 270l5 2c0-1.238-1.923-5-3-5 0 2.373-2.284 0-3 0l1 3Z"/><path fill="#97D6F9" id="STR" d="m338 270-1 1v-3l1 1v1ZM119 269l1 3c-1.577 0-2-1.762-2-3h1Z"/><path fill="#8599CC" id="PAL" d="M205 275c0 1.038-6.488 6-8 6 0-5.643-5.449-6-10-6v-3l6-3c0 7.173 6.246 6 12 6Z"/><path fill="#99D2BD" id="OLF" d="m339 269-1 1v-1h1Z"/><path fill="#8599CC" id="PAL" d="m212 270-1 1 1-1ZM244 270l1 1-1-1ZM270 275c-5.376 0-10 .914-10 6-1.783 0-11-5.627-11-8 3.324 0 15 6.211 15-3l5 2 1 3ZM211 271l-2 1 2-1ZM246 271l2 2-2-2ZM209 272l-1 1 1-1ZM208 273c-1.238 0-3 .423-3 2 1.238 0 3-.423 3-2Z"/><path fill="#CBCCC7" id="IIn" d="m215 275-8 6.5c-2.089 4.177 3.788 8.356 7.5 6.5 7.826-3.913 14.099-13 .5-13ZM234 275l-1 4.5c1.528 3.056 8.85 10.825 13.5 8.5 10.914-5.457-6.405-13-12.5-13Z"/><path fill="#8599CC" id="PAL" d="m197 281-1 1 1-1Z"/></svg>