<svg xmlns="http://www.w3.org/2000/svg" viewBox="0 0 456 320"><path fill="#1E9C59" id="MOs1" d="M144 72h1c0-2.653 14.311-5.906 16.5-7 12.558-6.279 31.969-13.016 46-6 2.884 1.442 10.5 6.077 10.5 10h1l3-3c0-5.871-9.421-10.96-13.5-13-14.863-7.432-35.823-.588-49 6-1.989.995-15.5 5.388-15.5 7v6ZM239 69c0-5.203 8.489-9.994 12.5-12h5c7.526-3.763 35.056 4.528 42 8l13.5 7v-6c0-2.537-17.935-7.717-20.5-9-11.807-5.903-29.985-10.507-43-4-4.607 2.303-14.5 7.264-14.5 14 2.215 0 1.519 2 3 2h2Z"/><path fill="#1E9D58" id="MOs2/3" d="M212 74h1l5-5c0-3.923-7.616-8.558-10.5-10-14.031-7.016-33.442-.279-46 6-2.189 1.094-16.5 4.347-16.5 7l-1 1c0 4.925 1 10.52 1 16 4.252 0 6.941-4.22 10.5-6 10.928-5.464 24.624-16 37.5-16 4.351 0 19 1.136 19 7ZM244 73c1.137 0 16.448-10.026 24.5-6l32 16c3.165 1.583 6.845 6 10.5 6l1-17-13.5-7c-6.944-3.472-34.474-11.763-42-8h-5c-4.011 2.006-12.5 6.797-12.5 12 0 1.811 3.438 4 5 4Z"/><path fill="#1E9D5A" id="MOp1" d="M85 127c.937 0 0 12.676 0 15.5 0 1.363-.7 6.5 1 6.5 0-23.037 19.01-54.255 38.5-64 5.925-2.963 12.66-12 19.5-12v-7c-5.659 0-11.566 7.533-16.5 10-12.153 6.077-42.5 37.853-42.5 51Z"/><path fill="#3EA665" id="ACAd1" d="M222 96h12l-1-17.5 4-9.5c-1.481 0-.785-2-3-2-3.369 0-3.286 8-5.5 8l-6.5-9-3 3 4 8.5c2.337 4.674-1 14.11-1 18.5Z"/><path fill="#1E9D5A" id="MOp1" d="M371 126v21c0 1.406.714 7-1 7 0-14.447-2.088-24.677-8-36.5-3.878-7.756-13.474-13.948-17-21-1.794-3.587-7.007-8.254-11.5-10.5-5.052-2.526-16.47-14-21.5-14v-6c5.63 0 10.679 6.59 15.5 9 12.166 6.083 43.5 36.598 43.5 51Z"/><path fill="#1F9D58" id="MOs5" d="M195 92c-1.606 0-4.339-2.08-6.5-1-9.067 4.533-18.951 7.476-28 12l-13.5 8V96.5l-2-6.5v-1c4.252 0 6.941-4.22 10.5-6 10.928-5.464 24.624-16 37.5-16 4.351 0 19 1.136 19 7l-3 2.5L195 92ZM261 92l6.5-1c9.054 4.527 18.954 7.477 28 12l13.5 8c0-7.23 2-13.339 2-21v-1c-3.655 0-7.335-4.417-10.5-6l-32-16c-8.052-4.026-23.363 6-24.5 6v1c1.226 0 17 16.424 17 18Z"/><path fill="#40A565" id="ACAd2/3" d="M217 96h5c0-4.39 3.337-13.826 1-18.5l-4-8.5h-1l-5 5 3 6.5 1 15.5ZM234 96c2.124 0 4.436 1 6 1 0-4.164-.392-23 4-23v-1c-1.562 0-5-2.189-5-4h-2l-4 9.5 1 17.5Z"/><path fill="#1F9C58" id="MOp2/3" d="m145 72-1 1v-1h1ZM353 169l12 4c0-1.857 2.735-14 4-14v-1c-1.186 0-1.186-1 0-1h1v-3c0-14.447-2.088-24.677-8-36.5-3.878-7.756-13.474-13.948-17-21-1.794-3.587-7.007-8.254-11.5-10.5-5.052-2.526-16.47-14-21.5-14l-1 17v1c4.463 0 6.778 5.139 10.5 7 17.223 8.611 23.676 26.852 31.5 42.5V158c0 1.737 2.105 10 0 10v1ZM103 169l-12 4c0-2.377-3.154-14-4-14v-1c1.186 0 1.186-1 0-1v-3l-1-1v-4c0-23.037 19.01-54.255 38.5-64 5.925-2.963 12.66-12 19.5-12 0 4.925 1 10.52 1 16v1c-5.404 0-10.764 8.632-15.5 11L118 112.5c-3.736 7.472-9.321 13.643-13 21-4.373 8.747-2 24.141-2 34.5v1Z"/><path fill="#3EA566" id="ACAd5" d="M217 97c-6.373 0-11.208 5-17 5 0-3.292-.736-9-5-9v-1l14-15.5 3-2.5h1l3 6.5 1 15.5v1ZM240 97c5.759 0 10.72 5 16 5 0-2.763 1.891-9 5-9v-1c0-1.576-15.774-18-17-18-4.392 0-4 18.836-4 23Z"/><path fill="#1E9C5A" id="MOp5" d="M125 158c-5.874 0-14.213 10-22 10 0-10.359-2.373-25.753 2-34.5 3.679-7.357 9.264-13.528 13-21l11.5-11.5c4.736-2.368 10.096-11 15.5-11l2 6.5V111l-10 8.5c-11.711 11.711-12 22.253-12 37.5v1ZM332 158c5.117 0 13.855 10 21 10 2.105 0 0-8.263 0-10v-18.5c-7.824-15.648-14.277-33.889-31.5-42.5-3.722-1.861-6.037-7-10.5-7 0 7.661-2 13.77-2 21l1 1 5.5 4c15.036 7.518 16.5 27.036 16.5 41v1Z"/><path fill="#1D9C5A" id="MOs6a" d="M162 137c-6.431 0-16.69 12-22 12 0-12.767 7-24.581 7-38l13.5-8c9.049-4.524 18.933-7.467 28-12 2.161-1.08 4.894 1 6.5 1v1c-1.615 0-3.36 5.22-4 6.5-2.795 5.589-9 14.097-9 20.5-1.235 0-5-.643-5 1-7.079 0-15 9.35-15 16ZM294 137c7.377 0 16.799 12 23 12 0-8.561-2.582-15.664-6-22.5v-5l-2-3c0-1.92 1-4.861 1-6.5l-1-1-13.5-8c-9.046-4.523-18.946-7.473-28-12l-6.5 1v1c2.445 0 13 23.582 13 27 9.165 0 20 6.981 20 17Z"/><path fill="#3FA664" id="ACAd6a" d="M182 120h1c1.843 0 10.97-17 17-17v-1c0-3.292-.736-9-5-9-1.615 0-3.36 5.22-4 6.5-2.795 5.589-9 14.097-9 20.5ZM273 120h1c0-3.418-10.555-27-13-27-3.109 0-5 6.237-5 9v1c3.506 0 17 13.766 17 17Z"/><path fill="#2FA750" id="PL1" d="M223 133h11V96h-12c0 12.315 1 25.327 1 37Z"/><path fill="#2FA74F" id="PL2/3" d="M218 133h5c0-11.673-1-24.685-1-37h-5v1c0 11.905 1 24.77 1 36ZM234 133h4c0-11.62 2-23.704 2-36-1.564 0-3.876-1-6-1v37Z"/><path fill="#2EA84F" id="PL5" d="M218 133c-4.351 0-9.131 1-14 1 0-10.296-4-20.536-4-31v-1c5.792 0 10.627-5 17-5 0 11.905 1 24.77 1 36ZM238 133c4.351 0 9.131 1 14 1 0-9.796 4-20.6 4-31v-1c-5.28 0-10.241-5-16-5 0 12.296-2 24.38-2 36Z"/><path fill="#2FA850" id="PL6a" d="M204 134c-4.077 0-8.431 1-13 1 0-2.495-5.119-14-8-14v-1c1.843 0 10.97-17 17-17 0 10.464 4 20.704 4 31ZM252 134c4.077 0 8.431 1 13 1 0-2.311 5.351-14 8-14v-1c0-3.234-13.494-17-17-17 0 10.4-4 21.204-4 31Z"/><path fill="#1F9B5A" id="MOp6a" d="m140 149-15 8c0-15.247.289-25.789 12-37.5l10-8.5c0 13.419-7 25.233-7 38ZM317 149c5.035 0 9.619 8 15 8 0-13.964-1.464-33.482-16.5-41l-5.5-4c0 1.639-1 4.58-1 6.5l2 3v5c3.418 6.836 6 13.939 6 22.5Z"/><path fill="#1E9C58" id="MOs6b" d="M177 121h5v-1c-1.235 0-5-.643-5 1Z"/><path fill="#3FA466" id="ACAd6b" d="M182 121h1v-1h-1v1ZM273 121h1v-1h-1v1Z"/><path fill="#1E9C58" id="MOs6b" d="M293 137h1c0-10.019-10.835-17-20-17v1c2.449 0 11 .995 11 4 3.291 0 8 9.655 8 12ZM162 137h2c0-3.518 4.041-12 8-12l5-4c-7.079 0-15 9.35-15 16Z"/><path fill="#CACCC7" id="cing" d="m172 125 11.5 2 5.5 6-6-12h-6l-5 4Z"/><path fill="#2FA84F" id="PL6b" d="M190 135h1c0-2.495-5.119-14-8-14l6 12v1l1 1ZM265 135h2v-2l1-1 5-11c-2.649 0-8 11.689-8 14Z"/><path fill="#CACCC7" id="cing" d="M284 125h1c0-3.005-8.551-4-11-4h-1l-5 11 4.5-5 11.5-2Z"/><path fill="#C9C9CA" id="scwm" d="M163 143c1.183 0 1.535 3.57 2 4.5l8 3.5-4-6.5c-3.226-6.452 3-14.408 3-19.5-3.959 0-8 8.482-8 12l-1 6Z"/><path fill="#CAC7CC" id="fa" d="M193 161h1v-2l-1-2v-7l-3-15-1-1v-1l-5.5-6-11.5-2c0 5.092-6.226 13.048-3 19.5l4 6.5c4.707 0 11.582 4 14 4 2.98 0 6 3.159 6 6ZM263 159v1c2.25 0 2.259-4 5-4l1-1c2.383 0 9.805-4 15-4l3-5.5v-15l-3-5.5-11.5 2-4.5 5-1 1v2l-4 16v8Z"/><path fill="#C9C9CA" id="scwm" d="M293 143c0 3.891-5.384 8-9 8l3-5.5v-15l-3-5.5h1c3.291 0 8 9.655 8 12v6Z"/><path fill="#187E61" id="SSp-m1" d="m370 157 5 1c0-8.246 1.456-18.588-2-25.5-.746-1.493.729-6.5-2-6.5v21c0 1.406.714 7-1 7v3ZM87 157l-5 1c0-8.097-2.732-17.035 1-24.5.65-1.3.007-6.5 2-6.5.937 0 0 12.676 0 15.5 0 1.363-.7 6.5 1 6.5v4l1 1v3Z"/><path fill="#CACCC7" id="cing" d="m268 132-1 1 1-1Z"/><path fill="#59B262" id="ILA5" d="M210 170h7l2-5.5c2.694-5.388-1-25.52-1-31.5-4.351 0-9.131 1-14 1 0 12.096 6 23.499 6 36Z"/><path fill="#59B362" id="ILA2/3" d="M217 170h4l3-10.5-1-26.5h-5c0 5.98 3.694 26.112 1 31.5l-2 5.5Z"/><path fill="#59B263" id="ILA1" d="M236 170c-2.409 0-5.181 1-7 1v-10c0-4.283-1-4.283-1 0 0 3.013-1 6.611-1 9 0 .632-4.255 0-6 0l3-10.5-1-26.5h11c0 5.603-3.56 24.379-1 29.5l3 7.5Z"/><path fill="#59B362" id="ILA2/3" d="M236 170h3c0-2.613-.93-4.36-2-6.5-2.647-5.293 1-24.45 1-30.5h-4c0 5.603-3.56 24.379-1 29.5l3 7.5Z"/><path fill="#59B262" id="ILA5" d="M239 170h7c0-12.304 6-23.597 6-36-4.869 0-9.649-1-14-1 0 6.05-3.647 25.207-1 30.5 1.07 2.14 2 3.887 2 6.5Z"/><path fill="#CACCC7" id="cing" d="m189 134 1 1-1-1Z"/><path fill="#58B362" id="ILA6a" d="m198 169 12 1c0-12.501-6-23.904-6-36-4.077 0-8.431 1-13 1l4 16v4c2.231 0 3 11.975 3 14ZM259 169l-13 1c0-12.304 6-23.597 6-36 4.077 0 8.431 1 13 1 0 5.977-3 10.119-3 16l-1 2v3c-2.018 0-2 10.777-2 13Z"/><path fill="#58B263" id="ILA6b" d="m193 150 2 1-4-16h-1l3 15ZM262 151h1l4-16h-2c0 5.977-3 10.119-3 16Z"/><path fill="#209666" id="AId6a" d="M139 170h1l4-6c-1.22 0-1.504-3.492-1-4.5 1.081-2.162 4.005-1.5 6-1.5l2-1c0-1.238.423-3 2-3l1-1 1-1 7-7v-8c-6.431 0-16.69 12-22 12l-15 8v1c0 7.733 6.859 12 14 12Z"/><path fill="#1F9766" id="AId6b" d="m163 143-1 1v-7h2l-1 6ZM293 143h1c2.515 0 0-5.014 0-6h-1v6Z"/><path fill="#209666" id="AId6a" d="m312 165 5 5c4.657 0 9.577-.654 12-5.5l3-6.5v-1c-5.381 0-9.965-8-15-8-6.201 0-15.623-12-23-12 0 .986 2.515 6 0 6v1l5 5 4 4v1c1.811 0 4 3.438 4 5 1.424 0 9.88-2.259 7 3.5l-2 2.5Z"/><path fill="#248A5C" id="ORBl6b" d="m187 155 1 3-4.5-3c-6.946-3.473-14.244 3.012-18.5-5.5l-3-4.5v-1l1-1c1.183 0 1.535 3.57 2 4.5l8 3.5c4.707 0 11.582 4 14 4ZM268 156v2l4.5-3c7.086-3.543 21.5 3.498 21.5-11v-1h-1c0 3.891-5.384 8-9 8-5.195 0-12.617 4-15 4l-1 1Z"/><path fill="#24895D" id="ORBl6a" d="m271 172 2 2c0-24.697 28.336-5 38-5l-1-4c-4.789 0-5-1.546-5-6 0-2.25-2-3.376-2-5v-1l-4-4-5-5c0 14.498-14.414 7.457-21.5 11l-4.5 3-1 2c0 .959 4 6.486 4 12ZM184 173h1c0-8.228 4-10.483 4-14l-1-1-4.5-3c-6.946-3.473-14.244 3.012-18.5-5.5l-3-4.5-7 7-1 1-1 1c0 1.238-.423 3-2 3v2c0 3.361 1.296 6-4 6l-1 3c9.332 0 38-16.703 38 5Z"/><path fill="#1F9866" id="AIv6a" d="m299 149 4 4-4-4Z"/><path fill="#24875E" id="ORBm6b" d="m193 157 1 2c1.579 0 1-2.855 1-4v-4l-2-1v7Z"/><path fill="#58B263" id="ILA6b" d="m262 151-1 2 1-2Z"/><path fill="#24875E" id="ORBm6b" d="M262 159h1v-8h-1l-1 2v3l1 3Z"/><path fill="#1F9866" id="AIv6a" d="m155 152-1 1 1-1Z"/><path fill="#1E9D5A" id="MOp1" d="m86 153 1 1-1-1Z"/><path fill="#1F9866" id="AIv6a" d="m154 153-1 1 1-1ZM153 154c-1.577 0-2 1.762-2 3 1.577 0 2-1.762 2-3ZM305 159h2c0-1.562-2.189-5-4-5 0 1.624 2 2.75 2 5Z"/><path fill="#22895E" id="ORBvl6b" d="M189 159c1.452 0 .486 2 4 2 0-2.841-3.02-6-6-6l1 3 1 1Z"/><path fill="#22885E" id="ORBm6a" d="M196 169h2c0-2.025-.769-14-3-14 0 1.145.579 4-1 4v2l1 1 1 7Z"/><path fill="#22895E" id="ORBvl6b" d="m269 155-1 1 1-1Z"/><path fill="#22885E" id="ORBm6a" d="M259 169h1c2.662 0-.662-7 2-7v-3l-1-3c-2.018 0-2 10.777-2 13Z"/><path fill="#22895E" id="ORBvl6b" d="M263 160c0 3.781 2.995 0 4 0l1-2v-2c-2.741 0-2.75 4-5 4Z"/><path fill="#009C75" id="GU1" d="m90 175-5 1c0-6.048-3-11.594-3-18l5-1v2l3 15v1Z"/><path fill="#009B75" id="GU2/3" d="M87 157c1.186 0 1.186 1 0 1v-1Z"/><path fill="#1F9866" id="AIv6a" d="m149 158 2 1v-2l-2 1Z"/><path fill="#22895E" id="ORBvl6b" d="m193 157 1 2-1-2Z"/><path fill="#009B75" id="GU2/3" d="M369 157c-1.186 0-1.186 1 0 1v-1Z"/><path fill="#009C75" id="GU1" d="m366 174 5 2c0-5.607 4-12.076 4-18l-5-1h-1v2c0 5.543-3 10.195-3 15Z"/><path fill="#209665" id="AId5" d="M109 195h2c3.589 0 28-21.197 28-25-7.141 0-14-4.267-14-12-5.874 0-14.213 10-22 10v1c0 5.404-.259 12.982 2 17.5l4 8.5Z"/><path fill="#8ADA86" id="CLA" d="m144 164 3 1c5.296 0 4-2.639 4-6l-2-1c-1.995 0-4.919-.662-6 1.5-.504 1.008-.22 4.5 1 4.5ZM310 165h2l2-2.5c2.88-5.759-5.576-3.5-7-3.5h-2c0 4.454.211 6 5 6Z"/><path fill="#209665" id="AId5" d="M346 195h1l4-7.5c2.491-4.982 2-12.51 2-18.5v-1c-7.145 0-15.883-10-21-10l-3 6.5c-2.423 4.846-7.343 5.5-12 5.5l7 7.5c2.018 4.036 17.365 17.5 22 17.5Z"/><path fill="#009B75" id="GU2/3" d="m91 173-1 1-3-15c.846 0 4 11.623 4 14Z"/><path fill="#238A5C" id="ORBvl6a" d="m192 166-7 7c0-8.228 4-10.483 4-14 1.452 0 .486 2 4 2h1l1 1h-1l-1 1v1c-1.652 0-3.092 2-1 2ZM264 165c0 2.421 4.519 7 7 7 0-5.514-4-11.041-4-12-1.005 0-4 3.781-4 0v-1h-1v3h1c.813 0 2.728 3 1 3Z"/><path fill="#009B75" id="GU2/3" d="m365 173 1 1c0-4.805 3-9.457 3-15-1.265 0-4 12.143-4 14Z"/><path fill="#99D2BD" id="OLF" d="m227 170 2 1v-10h-1c0 3.013-1 6.611-1 9Z"/><path fill="#228A5D" id="ORBl5" d="m184 173-5.5 5c-2.088 2.088-18.272 13-20.5 13 0-3.239-5.518-2.536-6-3.5-2.604-5.207-6-12.273-6-18.5v-1c9.332 0 38-16.703 38 5Z"/><path fill="#22885E" id="ORBm6a" d="m194 162-1 1 1-1Z"/><path fill="#99D2BD" id="OLF" d="M165 247c0-5.002 11.637 0 13 0l-5-4.5c-3.307-6.614.495-13.5 8-13.5l-1-5c-9.615 0-14.135-19-5-19 0-7.934 8.115-14 16-14 0-5.398 2.743-8 8-8 0-3.412-3-8.555-3-14l-1-7h-1l-1 1v1l-1 2-7 7h-1l-5.5 5c-2.088 2.088-18.272 13-20.5 13l-3 2-12 7c11.152 0 2.597 11 8 11 0-1.606-2.081-4.339-1-6.5l3.5-3.5c15.293-7.647 10.131 6.762 14.5 15.5 1.051 2.103 3.994 8.753.5 10.5-5.272 2.636-13.701-15-17.5-15 0 2.195 14.024 18.547 16 22.5 2.79 5.579-7 8.585-7 11.5l5 1ZM296 246l-5 1c0-4.199-9.252-1-11-1l4-4.5c3.577-7.153-2.95-12.5-9-12.5l2-5c9.145 0 14.249-19 4-19 0-9.66-8.734-13-16-13 0-5.226-1.159-9-7-9l3-8.5c.978-1.956-1-4.077-1-5.5 2.662 0-.662-7 2-7h1c0 1.048-.473 3 1 3 0 2.421 4.519 7 7 7l2 2 5.5 4c2.534 2.534 17.71 13 20.5 13l2 1c0 3.531 13 5.482 13 8-4.591 0-7 .053-7 5-2.826 0-6.233-9.633-13.5-6-2.749 1.375-4.704 16.908-6.5 20.5-.821 1.642-1.343 6.578.5 7.5 6.766 3.383 8.258-10 13.5-10 0 4.576-8.9 12.299-11 16.5-3.052 6.104 6 9.147 6 12.5Z"/><path fill="#22885E" id="ORBm6a" d="M263 162c.813 0 2.728 3 1 3-1.473 0-1-1.952-1-3Z"/><path fill="#228A5D" id="ORBl5" d="m273 174 5.5 4c2.534 2.534 17.71 13 20.5 13 0-3.174 4.753-2.006 6-4.5l-1-2c0-.793 7-10.899 7-15.5-9.664 0-38-19.697-38 5Z"/><path fill="#1F9866" id="AIv6a" d="m146 169-6 1 4-6 3 1-1 3v1Z"/><path fill="#22885E" id="ORBm6a" d="M193 164c-1.652 0-3.092 2-1 2l1-2Z"/><path fill="#1F9866" id="AIv6a" d="m311 169 6 1-5-5h-2l1 4Z"/><path fill="#209765" id="AId2/3" d="M109 195c0 1.693-8.239 4-10 4l-6-13.5c-.774-1.548-1.182-10.5-3-10.5v-1l1-1 12-4c0 5.404-.259 12.982 2 17.5l4 8.5Z"/><path fill="#1F9865" id="AIv5" d="M155 193c0-11.007-27.968 5.234-31.5 7-3.68 1.84-12.5-1.456-12.5-5 3.589 0 28-21.197 28-25h1l6-1c0 6.227 3.396 13.293 6 18.5.482.964 6 .261 6 3.5l-3 2Z"/><path fill="#A3DAA3" id="DP" d="M251 189h1l6-6 3-8.5c.978-1.956-1-4.077-1-5.5h-1l-13 1h-10c-2.409 0-5.181 1-7 1l-2-1c0 .632-4.255 0-6 0h-11l-12-1h-2c0 5.445 3 10.588 3 14l6 6h46Z"/><path fill="#1F9865" id="AIv5" d="M301 192c0-2.446 6.416-4.042 8.5-3 7.057 3.528 17.333 11 25.5 11 2.932 0 11-.635 11-5-4.635 0-19.982-13.464-22-17.5l-7-7.5-6-1c0 4.601-7 14.707-7 15.5l1 2c-1.247 2.494-6 1.326-6 4.5l2 1Z"/><path fill="#209765" id="AId2/3" d="M357 199h1c0-7.234 8-16.729 8-25l-1-1-12-4c0 5.99.491 13.518-2 18.5l-4 7.5c2.931 0 6.508 4 10 4Z"/><path fill="#209764" id="AId1" d="m358 199 3 2 3-5.5c2.687-5.375 7-13.27 7-19.5l-5-2c0 8.271-8 17.766-8 25ZM99 199l-4 2c0-3.451-10-19.056-10-25l5-1c1.818 0 2.226 8.952 3 10.5l6 13.5Z"/><path fill="#54BF94" id="AON" d="M187 249h8l1-1 3-1 1-1 2-1 11-13.5c3.704-7.407 0-13.329 0-20.5 0-7.852-8-13.762-8-22l-6-6c-5.257 0-8 2.602-8 8 0 5.379 19.045 36.227 5.5 43-4.384 2.192-13.075-5-15.5-5-7.505 0-11.307 6.886-8 13.5l5 4.5h1l8 2ZM261 249h8c3.68 0 5.511-2 9-2h1l1-1 4-4.5c3.577-7.153-2.95-12.5-9-12.5-2.16 0-11.124 7.188-15.5 5-6.783-3.392-2.324-26.852.5-32.5l5-9.5c0-5.226-1.159-9-7-9l-6 6-1 1c0 7.931-8 13.666-8 21 0 5.892-2.865 13.77 0 19.5 1.464 2.928 14 15.068 14 16.5h1l1 1h1l1 1Z"/><path fill="#61D09F" id="TTd" d="M213 211c3.284 0 6.825 7.337 11.5 5 1.798-.899 3.551-9 4-9l.5 4c0 2.878-.052 3.724 2.5 5 4.697 2.348 9.925-5 11.5-5 0-7.334 8-13.069 8-21v-1h-46c0 8.238 8 14.148 8 22Z"/><path fill="#219764" id="AIv2/3" d="M143 200c-8.985 0-20.963 12-31 12 0-1.185-13-8.246-13-13 1.761 0 10-2.307 10-4h2c0 3.544 8.82 6.84 12.5 5 3.532-1.766 31.5-18.007 31.5-7l-12 7Z"/><path fill="#99D2BD" id="OLF" d="m252 189-1 1v-1h1Z"/><path fill="#219764" id="AIv2/3" d="M314 200c5.506 0 22.309 12 30 12 0-.776 13-7.188 13-13-3.492 0-7.069-4-10-4h-1c0 4.365-8.068 5-11 5-8.167 0-18.443-7.472-25.5-11-2.084-1.042-8.5.554-8.5 3 0 3.531 13 5.482 13 8Z"/><path fill="#80CDF8" id="ACB" d="m180 224 1 5c2.425 0 11.116 7.192 15.5 5 13.545-6.773-5.5-37.621-5.5-43-7.885 0-16 6.066-16 14 8.482 0 5 15.781 5 19ZM277 224l-2 5c-2.16 0-11.124 7.188-15.5 5-6.783-3.392-2.324-26.852.5-32.5l5-9.5c7.266 0 16 3.34 16 13 0 1.303-5.055 5.61-6 7.5-1.986 3.973 2 8.553 2 11.5Z"/><path fill="#A0EE9C" id="EPd" d="M151 211v1c3.799 0 12.228 17.636 17.5 15 3.494-1.747.551-8.397-.5-10.5-4.369-8.738.793-23.147-14.5-15.5l-3.5 3.5c-1.081 2.161 1 4.894 1 6.5ZM303 215c-1.747 0-2 .253-2 2-5.242 0-6.734 13.383-13.5 10-1.843-.922-1.321-5.858-.5-7.5 1.796-3.592 3.751-19.125 6.5-20.5 7.267-3.633 10.674 6 13.5 6v4l-1 2-1 1v1c-1.747 0-2 .253-2 2Z"/><path fill="#209864" id="AIv1" d="M112 212c0 .853-6.031 2-7 2 0-.633-10-9.582-10-13l4-2c0 4.754 13 11.815 13 13ZM344 212l7 2c3.147 0 10-10.059 10-13l-3-2h-1c0 5.812-13 12.224-13 13Z"/><path fill="#6ACAB9" id="PIR" d="M148 250h3l9-4c0-2.915 9.79-5.921 7-11.5-1.976-3.953-16-20.305-16-22.5v-1c-5.403 0 3.152-11-8-11-8.985 0-20.963 12-31 12 0 .853-6.031 2-7 2 0 6.729 9.336 23 17 23 0-1.845 5.449.474 6.5 1 3.273 1.636 17.595 12 19.5 12ZM305 250h3c5.846 0 15.965-13 27-13 7.929 0 16-16.137 16-23l-7-2c-7.691 0-24.494-12-30-12-4.591 0-7 .053-7 5v4l-1 2-1 1v1l-2 2-2 2c0 4.576-8.9 12.299-11 16.5-3.052 6.104 6 9.147 6 12.5h1l1 1c3.047 0 4.462 3 7 3Z"/><path fill="#CBCBC7" id="aco" d="M175 205c8.482 0 5 15.781 5 19-9.615 0-14.135-19-5-19ZM281 205c10.249 0 5.145 19-4 19 0-2.947-3.986-7.527-2-11.5.945-1.89 6-6.197 6-7.5Z"/><path fill="#99D2BD" id="OLF" d="M257 247c-6.086 0-4.097-7.202-14.5-2-1.414.707-3.5 2.014-3.5 4 0 2.512-2.689-1.879-3-2.5-.969-1.937-1.997-10.5-5-10.5v-2l-1-1c0-7.89-4-4.907-4 1l-1 1v2c-4.349 0-3.67 13-8 13 0-10.135-10.37-5-15-5l11-13.5c3.704-7.407 0-13.329 0-20.5 3.284 0 6.825 7.337 11.5 5 1.798-.899 3.551-9 4-9l.5 4c0 2.878-.052 3.724 2.5 5 4.697 2.348 9.925-5 11.5-5 0 5.892-2.865 13.77 0 19.5 1.464 2.928 14 15.068 14 16.5ZM307 209l-1 2 1-2ZM306 211l-1 1 1-1ZM305 213c-1.747 0-2 .253-2 2l2-2ZM303 215c-1.747 0-2 .253-2 2l2-2Z"/><path fill="#97D6F9" id="STR" d="m230 233 1 1-1-1ZM226 234l-1 1 1-1Z"/><path fill="#CAC8C7" id="lot" d="M148 250c0 1.146 2.893 6-1 6-2.806 0-25-16.04-25-19 0-1.845 5.449.474 6.5 1 3.273 1.636 17.595 12 19.5 12Z"/><path fill="#97D6F9" id="STR" d="m240 250-3 3c-2.334 0-1.341-4.181-2-5.5-1.573-3.147-4-7.872-4-11.5 3.003 0 4.031 8.563 5 10.5.311.621 3 5.012 3 2.5l1 1Z"/><path fill="#CAC8C7" id="lot" d="m307 255 2 1c2.881 0 26-16.509 26-19-11.035 0-21.154 13-27 13l-1 2v3Z"/><path fill="#97D6F9" id="STR" d="M216 250h1c4.33 0 3.651-13 8-13 0 3.487-2.425 11.349-4 14.5l-2 3.5c0-2.842-3-3.647-3-5Z"/><path fill="#A2B1D7" id="SI" d="M216 250h1c0-10.135-10.37-5-15-5l-2 1-1 1-3 1-1 1h-8c0 2.305-8 .21-8-2h-1c-1.363 0-13-5.002-13 0l9.5 6c5.127 2.563 20.81 7.095 27 4 5.545-2.773 7.672-7 14.5-7ZM261 249h8c0 2.317 9 .485 9-2h1l1-1c1.748 0 11-3.199 11 1 0 2.683-7.664 5.082-9.5 6-5.241 2.621-19.014 7.493-26 4-5.428-2.714-8.358-7-15.5-7l-1-1c0-1.986 2.086-3.293 3.5-4 10.403-5.202 8.414 2 14.5 2h1l1 1h1l1 1Z"/><path fill="#7FCCF7" id="OT" d="m217 263-1 2-4 4.5-9.5 5.5c-7.872 3.936-33.713-4.357-41-8-2.444-1.222-10.5-7.083-10.5-9l-1-1c0-2.409 1-5.181 1-7l9-4 5 1 9.5 6c5.127 2.563 20.81 7.095 27 4 5.545-2.773 7.672-7 14.5-7 0 1.353 3 2.158 3 5v3l-1 1v1l-1 1v2Z"/><path fill="#99D2BD" id="OLF" d="m200 246-1 1 1-1ZM280 246l-1 1 1-1Z"/><path fill="#7FCCF7" id="OT" d="m239 262 2 3c0 5.154 7.372 6.436 10.5 8 10.494 5.247 31.728.136 42-5 2.204-1.102 11.5-6.895 11.5-10l1-1 1-2v-3l-2-2c-2.538 0-3.953-3-7-3l-1-1h-1l-5 1c0 2.683-7.664 5.082-9.5 6-5.241 2.621-19.014 7.493-26 4-5.428-2.714-8.358-7-15.5-7l-3 3v3l1 2v1l1 1v2Z"/><path fill="#99D2BD" id="OLF" d="m297 246 1 1-1-1ZM179 247l8 2c0 2.305-8 .21-8-2ZM258 247l1 1-1-1ZM278 247c-3.489 0-5.32 2-9 2 0 2.317 9 .485 9-2ZM196 248l-1 1 1-1ZM260 248l1 1-1-1ZM150 257v1l-3-2c3.893 0 1-4.854 1-6h3c0 1.819-1 4.591-1 7ZM308 250l-1 2-2-2h3ZM306 257v1l3-2-2-1-1 2Z"/><path fill="#97D6F9" id="STR" d="m237 256 1 2-1-2ZM150 258h1l-1-1v1ZM305 258h1v-1l-1 1ZM219 258l-1 1 1-1ZM238 259l1 1-1-1ZM218 260l-1 1 1-1ZM239 262l2 3c-1.577 0-2-1.762-2-3ZM217 263l-1 2 1-2Z"/></svg>