<svg xmlns="http://www.w3.org/2000/svg" viewBox="0 0 456 320"><path fill="#1E9C59" id="MOs1" d="m138 138 6.5-1c3.236 1.618 9.896 4 13.5 4 0-4.44 3-7.225 3-11-3.196 0-5.755 5.872-9.5 4-11.495-5.747 1.271-29.135 9-33 15.713-7.857 18.721-8 37.5-8h1c0-.853 2.992-6 4-6 0-3.038-5.856-1.178-7.5-2-8.353-4.176-24.911.455-32 4-9.4 4.7-19.687 12.873-24.5 22.5l-3 11c-2.27 4.539 2 11.449 2 15.5ZM318 138c-3.636 0-7.799-1.851-11.5 0l-7.5 3c-.568 0-4-10.732-4-12 4.777 0 5.7 6.9 11.5 4 9.951-4.976-4.279-29.139-12-33-14.478-7.239-19.307-7-36.5-7h-1l-3-7c2.253 0 6.469-.984 8.5-2 11.461-5.73 39.57 9.57 47 17 7.714 7.714 10.5 15.628 10.5 26.5 0 2.003-.015 10.5-2 10.5Z"/><path fill="#2FA750" id="PL1" d="M240 111c-2.84 0-5.676 2-9 2 0-9.813 12.278-27 23-27l3 7c0 2.13-6.044 3.272-7.5 4-4.573 2.286-9.5 8.932-9.5 14ZM216 111c3.016 0 6.525 2 9 2 0-10.798-10.089-26-22-26-1.008 0-4 5.147-4 6 0 1.722 5.235 2.368 6.5 3 5.351 2.676 10.5 9.045 10.5 15Z"/><path fill="#1E9D58" id="MOs2/3" d="M161 129v1c-3.196 0-5.755 5.872-9.5 4-11.495-5.747 1.271-29.135 9-33 15.713-7.857 18.721-8 37.5-8l-1 3c-16.15 0-41 4.737-41 23.5 0 3.109 5 6.85 5 8.5v1Z"/><path fill="#2FA74F" id="PL2/3" d="m212 110 4 1c0-5.955-5.149-12.324-10.5-15-1.265-.632-6.5-1.278-6.5-3h-1l-1 3c0 2.205 3.251.002 4 1.5 1.736 3.473 11 7.655 11 12.5ZM244 110l-4 1c0-5.068 4.927-11.714 9.5-14 1.456-.728 7.5-1.87 7.5-4h1l2 3c-2.871 0-16 11.553-16 14Z"/><path fill="#1E9D58" id="MOs2/3" d="M295 128v1c4.777 0 5.7 6.9 11.5 4 9.951-4.976-4.279-29.139-12-33-14.478-7.239-19.307-7-36.5-7l2 3c18.161 0 31.846 4.192 40 20.5 2.339 4.677-5 10.56-5 11.5Z"/><path fill="#268E45" id="FRP2/3" d="M161 128h2l1-1h2l2-1c0-1.473 1.952-1 3-1 0-2.906 14.792-10 18-10 7.044 0 13.232 3 18 3l3.5 2c4.74 2.37 1.5-9.102 1.5-10 0-4.845-9.264-9.027-11-12.5-.749-1.498-4 .705-4-1.5-16.15 0-41 4.737-41 23.5 0 3.109 5 6.85 5 8.5ZM294 128h1c0-.94 7.339-6.823 5-11.5-8.154-16.308-21.839-20.5-40-20.5-2.871 0-16 11.553-16 14 0 7.311-4.903 9 4 9 2.906 0 11.668-4 19-4 5.161 0 21 9.366 21 11h1l1 1h2l1 1h1Z"/><path fill="#24885D" id="ORBm2/3" d="M207 118c0 2.087 3 4.393 3 7 6.267 0 6-9.562 6-14l-4-1c0 .898 3.24 12.37-1.5 10l-3.5-2ZM246 125h1l1-6c-8.903 0-4-1.689-4-9l-4 1 1 9.5 5 4.5Z"/><path fill="#23895D" id="ORBm1" d="M217 143h2l3-4 3-6.5V113c-2.475 0-5.984-2-9-2 0 4.438.267 14-6 14 0 4.776 4 9.628 4 15l3 3ZM238 143h1l1-1h1l2-3c0-5.407 3-9.279 3-14l-5-4.5-1-9.5c-2.84 0-5.676 2-9 2 0 5.918-1.506 15.488 1 20.5l3 7.5 3 2Z"/><path fill="#238A5E" id="ORBl2/3" d="M187 123h1l1-8c-3.208 0-18 7.094-18 10 5.752 0 9.904-2 16-2Z"/><path fill="#248A5D" id="ORBvl2/3" d="M188 123c8.036 0 15.06 2 22 2 0-2.607-3-4.913-3-7-4.768 0-10.956-3-18-3l-1 8ZM269 123h-15.5c-2.471 1.235-3.433 2-6.5 2l1-6c2.906 0 11.668-4 19-4l2 8Z"/><path fill="#238A5E" id="ORBl2/3" d="M269 123c7.106 0 12.695 3 19 3 0-1.634-15.839-11-21-11l2 8Z"/><path fill="#238A5D" id="ORBl1" d="M158 141c0 2.723-1 5.778-1 9 .326 0 10.924-13 17-13l1-2 11-3c0-2.723 1-5.778 1-9-6.096 0-10.248 2-16 2 0 1.473-1.952 1-3 1l-2 1h-2l-1 1-2 1v1c0 3.775-3 6.56-3 11Z"/><path fill="#248A5B" id="ORBvl1" d="M192 132c8.003 0 18.319 8 22 8 0-5.372-4-10.224-4-15-6.94 0-13.964-2-22-2h-1c0 3.222-1 6.277-1 9h6ZM264 132h6l-1-9h-15.5c-2.471 1.235-3.433 2-6.5 2h-1c0 4.721-3 8.593-3 14 6.868 0 13.16-7 21-7Z"/><path fill="#238A5D" id="ORBl1" d="M299 141v7c-3.253 0-13.479-13-18-13h-1l-1-1-9-2-1-9c7.106 0 12.695 3 19 3h1l1 1h2l1 1h1l1 1c0 1.268 3.432 12 4 12Z"/><path fill="#238A5E" id="ORBl2/3" d="M171 125c-1.048 0-3-.473-3 1 1.048 0 3 .473 3-1ZM168 126l-2 1 2-1ZM289 126l1 1-1-1ZM164 127l-1 1 1-1ZM292 127l1 1-1-1ZM163 128l-2 1v-1h2ZM295 128v1l-1-1h1Z"/><path fill="#9DF0D1" id="AOBgl" d="M173 145c2.932 0 7.311 5.594 10.5 4l9.5-4c0-2.885 2-4.697 2-8l-3-5h-6l-11 3-1 2c0 2.097-1 5.293-1 8Z"/><path fill="#99D2BD" id="OLF" d="M214 143h3l-3-3c-3.681 0-13.997-8-22-8l3 5c2.4 0 5.772-1.364 8.5 0 2.261 1.131 8.238 6 10.5 6ZM241 142l1 2c.054 0 10.016-7 19-7l3-5c-7.84 0-14.132 7-21 7l-2 3Z"/><path fill="#9DF0D1" id="AOBgl" d="M263 145c3.139 0 7.744 2.622 10.5 4 2.682 1.341 7.336-4 9.5-4l1-4.5c-.936-1.873-3-3.23-3-5.5h-1l-1-1-9-2h-6l-3 5 2 8Z"/><path fill="#99D2BD" id="OLF" d="m279 134 1 1-1-1ZM175 135l-1 2 1-2ZM277 228c1.577 0 2 1.762 2 3 1.632 0 7.871-15.242 9-17.5 9.13-18.259 14-38.448 14-60.5l-2-1-1-1v-3c-3.253 0-13.479-13-18-13 0 2.27 2.064 3.627 3 5.5l-1 4.5c5.598 0 4 7.537 4 12 1.385 0 7-2.024 7 2 4.474 0 3 15.63 3 18 0 11.947-5.936 26.372-11 36.5l-9 14.5Z"/><path fill="#9AD1BD" id="MOB" d="M177 231c0 8.629 20.389 21 28 21 7.728 0 11.078-12.655 14-18.5 7.535-15.071 7-32.793 7-51v-18c-2.053-4.106-2.935-8.87-5-13l-3-3.5-3-3-1-2c-2.262 0-8.239-4.869-10.5-6-2.728-1.364-6.1 0-8.5 0 0 3.303-2 5.115-2 8 3.224 0 2 8.784 2 11 2.56 0 0 3.334 0 4v7c1.265 0 1.604 6.292 1 7.5-2.688 5.377-3 14.153-3 20.5v18.5l-4 5.5c0 2.873-5 2.903-5 6l1 1.5c2.752 5.504-5.489 1.5-6 1.5-1.577 0-2 1.762-2 3ZM279 231c0 9.645-18.954 21-27 21-8.067 0-12.38-13.26-15-18.5-7.332-14.663-7-34.993-7-52.5l1-19.5 6-12.5c1.747 0 2-.253 2-2l1-1 1-1 1-1c.054 0 10.016-7 19-7l2 8-2 2.5c-1.284 2.568 1 6.486 1 8.5-4.307 0 0 3.15 0 5-1.684 0-1 4.679-1 6 0 10.995 2 19.881 2 31 0 4.344-1.003 21 5 21 0 2.33 4 3.227 4 6 0 8.972 5 3.153 5 3 1.577 0 2 1.762 2 3Z"/><path fill="#209764" id="AId1" d="M157 152c0 1.473-1.952 1-3 1-4.951 0-16-10.104-16-15l6.5-1c3.236 1.618 9.896 4 13.5 4 0 2.723-1 5.778-1 9v1c-1.186 0-1.186 1 0 1Z"/><path fill="#99D2BD" id="OLF" d="M179 228c-1.577 0-2 1.762-2 3-1.499 0-6.974-14.448-8-16.5-9.209-18.419-15-39.341-15-61.5 1.048 0 3 .473 3-1v-2c.326 0 10.924-13 17-13 0 2.097-1 5.293-1 8-6.819 0-3 8.853-3 12-1.698 0-8-2.27-8 2-3.428 0-3 15.165-3 18.5 0 11.666 6.996 26.993 12 37l8 13.5Z"/><path fill="#209764" id="AId1" d="m300 152 2 1c6.067 0 16-9.063 16-15-3.636 0-7.799-1.851-11.5 0l-7.5 3v10l1 1Z"/><path fill="#99D2BD" id="OLF" d="M219 143c0 1.366 2.366 4 4 4l-1-8-3 4ZM238 143l-4 4 1-6 3 2Z"/><path fill="#CAC8C9" id="von" d="m223 153 2 1c0-3.066-2-4.417-2-7-1.634 0-4-2.634-4-4h-5l1 2 3 2 5 6Z"/><path fill="#99D2BD" id="OLF" d="m240 142-1 1 1-1Z"/><path fill="#CAC8C9" id="von" d="M232 154h1c0-1.562 2.189-5 4-5l2-2 1-1 1-1 1-1-1-2h-1l-1 1h-1l-4 4c0 2.431-2 3.657-2 7Z"/><path fill="#9DEFD2" id="AOBmi" d="m195 156-8.5 5c-5.416 2.708-11.966-4-16.5-4 0-3.147-3.819-12 3-12 2.932 0 7.311 5.594 10.5 4l9.5-4c3.224 0 2 8.784 2 11Z"/><path fill="#99D2BD" id="OLF" d="M218 147v1l-3-3 3 2ZM241 145l-1 1 1-1Z"/><path fill="#9DEFD2" id="AOBmi" d="m262 156 2.5 2c7.454 7.454 15.126-1 22.5-1 0-4.463 1.598-12-4-12-2.164 0-6.818 5.341-9.5 4-2.756-1.378-7.361-4-10.5-4l-2 2.5c-1.284 2.568 1 6.486 1 8.5Z"/><path fill="#99D2BD" id="OLF" d="m240 146-1 1 1-1Z"/><path fill="#C7CBCA" id="onl" d="M227 211c0 12.547.14 30.22-5 40.5-1.87 3.74-17 5.983-17 .5 7.728 0 11.078-12.655 14-18.5 7.535-15.071 7-32.793 7-51v-18c-2.053-4.106-2.935-8.87-5-13l-3-3.5v-1l5 6 2 2c0 2.613.93 4.36 2 6.5 2.274 4.549 0 30.446 0 36.5v13ZM239 147l-2 2c1.747 0 2-.253 2-2ZM231 156c0 2.654-.888 5.275-2 7.5v41c0 5.688-1.415 14.171 1 19l1 19c1.381 2.762 2.459 9.979 5.5 11.5 2.428 1.214 15.5 2.504 15.5-2-8.067 0-12.38-13.26-15-18.5-7.332-14.663-7-34.993-7-52.5l1-19.5 6-12.5c-1.811 0-4 3.438-4 5l-1 1-1 1Z"/><path fill="#238A5D" id="ORBl1" d="M157 151c-1.186 0-1.186 1 0 1v-1ZM299 151l1 1-1-1Z"/><path fill="#99D2BD" id="OLF" d="M225 154v1l-2-2 2 1ZM233 154l-1 1v-1h1ZM232 155l-1 1 1-1Z"/><path fill="#CACAC9" id="lotd" d="m170 161-5 2-3-4c0-4.27 6.302-2 8-2 4.534 0 11.084 6.708 16.5 4l8.5-5c2.56 0 0 3.334 0 4l-6.5 3c-5.412 2.706-13.6-2-18.5-2ZM287 161l4 2 3-4c0-4.024-5.615-2-7-2-7.374 0-15.046 8.454-22.5 1l-2.5-2c-4.307 0 0 3.15 0 5 4.362 0 11.417 4.541 16.5 2 2.614-1.307 5.334-2 8.5-2Z"/><path fill="#CAC8C7" id="lot" d="m184 225 1 1.5c2.752 5.504-5.489 1.5-6 1.5l-8-13.5c-5.004-10.007-12-25.334-12-37 0-3.335-.428-18.5 3-18.5l3 4c0 1.908-2.076 6.651-3 8.5-3.69 7.38 8.843 33.687 12 40 1.603 3.206 6.771 13.5 10 13.5ZM272 225c0 8.972 5 3.153 5 3l9-14.5c5.064-10.128 11-24.553 11-36.5 0-2.37 1.474-18-3-18l-3 4 3 5.5v16c-4.739 9.478-8.19 19.38-13 29-1.237 2.474-4.884 11.5-9 11.5Z"/><path fill="#95E4C8" id="AOBgr" d="M195 167c0 1.803-3.592 3-5 3-2.813 0-20-6.874-20-9 4.9 0 13.088 4.706 18.5 2l6.5-3v7Z"/><path fill="#54BF94" id="AON" d="M189 219c0 2.873-5 2.903-5 6-3.229 0-8.397-10.294-10-13.5-3.157-6.313-15.69-32.62-12-40 .924-1.849 3-6.592 3-8.5l5-2c0 2.126 17.187 9 20 9l2 1.5c1.921 3.842.407 7.5-4 7.5l-4 .5c-.129.257 5.217 21.434 6 23 3.159 6.319-6.455 16.5-1 16.5Z"/><path fill="#95E4C8" id="AOBgr" d="M261 167c1.312 0 2.446 3 5 3 3.121 0 21-7.575 21-9-3.166 0-5.886.693-8.5 2-5.083 2.541-12.138-2-16.5-2-1.684 0-1 4.679-1 6Z"/><path fill="#54BF94" id="AON" d="M268 219c0 2.33 4 3.227 4 6 4.116 0 7.763-9.026 9-11.5 4.81-9.62 8.261-19.522 13-29v-16l-3-5.5-4-2c0 1.425-17.879 9-21 9l-3 3.5c-1.41 2.821 2.748 5.5 5 5.5 1.812 0 4.015-.469 5 1.5 1.003 2.007-2.227 5.453-3 7-2.676 5.352-1.335 12.67-4 18-1.862 3.723 6.238 13.5 2 13.5Z"/><path fill="#99D2BD" id="OLF" d="M188 179c0 1.959 3.433 16 5 16 0-6.347.312-15.123 3-20.5.604-1.208.265-7.5-1-7.5 0 1.803-3.592 3-5 3l2 1.5c1.921 3.842.407 7.5-4 7.5ZM268 179c0 4.57-2.015 11.53-4 15.5-.523 1.046.951 3.5-1 3.5 0-11.119-2-20.005-2-31 1.312 0 2.446 3 5 3l-3 3.5c-1.41 2.821 2.748 5.5 5 5.5Z"/><path fill="#CBCBC7" id="aco" d="M193 195v18.5l-4 5.5c-5.455 0 4.159-10.181 1-16.5-.783-1.566-6.129-22.743-6-23l4-.5c0 1.959 3.433 16 5 16ZM263 198c0 4.344-1.003 21 5 21 4.238 0-3.862-9.777-2-13.5 2.665-5.33 1.324-12.648 4-18 .773-1.547 4.003-4.993 3-7-.985-1.969-3.188-1.5-5-1.5 0 4.57-2.015 11.53-4 15.5-.523 1.046.951 3.5-1 3.5Z"/><path fill="#99D2BD" id="OLF" d="M227 198c1.641 0 1.641 13 0 13v-13Z"/></svg>