<svg xmlns="http://www.w3.org/2000/svg" viewBox="0 0 456 320"><path fill="#1E9D5A" id="MOp1" d="m153 36-1 7 4.5-2c3.321-1.66 30.666-6 35.5-6l1-5c-4.894 0-25.09 1.295-28.5 3-2.922 1.461-8.159 3-11.5 3Z"/><path fill="#1E9C59" id="MOs1" d="M222 49h1l4-2c0-2.506-2.72-5.22-4.5-7-9.302-9.302-16.532-10-29.5-10l-1 5c10.081 0 30 .934 30 14ZM229 47l5 2c0-12.794 20.815-14 30-14v-5c-13.54 0-20.245.745-30 10.5l-5 6.5Z"/><path fill="#1E9D5A" id="MOp1" d="m303 36 2 7-4.5-2c-2.954-1.477-32.005-6-36.5-6v-5c3.661 0 26.444 1.972 28.5 3l10.5 3Z"/><path fill="#1F9C58" id="MOp2/3" d="M150 59c1.203 0 0 5.226 0 7 3.699 0 8.225-5.362 11.5-7 6.517-3.259 21.487-12 28.5-12 0-3.956 2-7.497 2-12-4.834 0-32.179 4.34-35.5 6l-4.5 2c0 5.044-2 11.208-2 16Z"/><path fill="#1E9D58" id="MOs2/3" d="M216 53h1l5-4c0-13.066-19.919-14-30-14 0 4.503-2 8.044-2 12 5.142 0 26-6.592 26 6ZM240 53h1c0-12.379 19.382-6 25-6l-2-12c-9.185 0-30 1.206-30 14l6 4Z"/><path fill="#1F9C58" id="MOp2/3" d="M306 59c0 2.41 1 5.181 1 7-6.345 0-29.662-19-40-19h-1l-2-12c4.495 0 33.546 4.523 36.5 6l4.5 2c0 4.518 1 10.38 1 16Z"/><path fill="#187F60" id="SSp-ll1" d="M152 43c-3.519 0-5.843 2-9 2l-2-5c0-1 10.391-4 12-4l-1 7ZM305 43c3.68 0 5.511 2 9 2l1-6c-4.427 0-7.652-3-12-3l2 7Z"/><path fill="#197E64" id="SSp-ul1" d="M350 63h1c0-2.483 2-4.026 2-6-3.031 0-6.805-4.653-9.5-6-4.092-2.046-25.17-12-28.5-12l-1 6v1c9.654 0 19.312 7.906 27.5 12 1.555.778 8.5 3.004 8.5 5ZM103 58c1.477 0 3 3.924 3 5 2.905 0 29.122-18 37-18l-2-5c-9.165 0-20.575 8.038-28.5 12l-9.5 6Z"/><path fill="#187F64" id="SSp-ll2/3" d="m150 59-4 1c0-5.43-3-9.196-3-15 3.157 0 5.481-2 9-2 0 5.044-2 11.208-2 16ZM306 59l4 1 4-14v-1c-3.489 0-5.32-2-9-2 0 4.518 1 10.38 1 16Z"/><path fill="#197F61" id="SSp-ul2/3" d="m106 63 5 12c3.984 0 26.502-15 35-15 0-5.43-3-9.196-3-15-7.878 0-34.095 18-37 18Z"/><path fill="#1F9D58" id="MOs5" d="M203 64h1c0-2.302 9.941-11 12-11 0-12.592-20.858-6-26-6l-4 17c1.643 0 17-7.72 17 0ZM253 64c0-7.653 15.499 0 17 0 0-6.183-3-10.576-3-17h-1c-5.618 0-25-6.379-25 6l9.5 8 2.5 3Z"/><path fill="#197F61" id="SSp-ul2/3" d="M350 63c0 4.388-5 8.322-5 12-4.157 0-26.111-15-34-15h-1l4-14c9.654 0 19.312 7.906 27.5 12 1.555.778 8.5 3.004 8.5 5Z"/><path fill="#1E9C5A" id="MOp5" d="M150 72c0 2.248-1.274 9 0 9 10.129 0 31.055-17 36-17l4-17c-7.013 0-21.983 8.741-28.5 12-3.275 1.638-7.801 7-11.5 7v6Z"/><path fill="#3EA665" id="ACAd1" d="M233 73c-3.325 0-7.31 1-10 1V49l4-2c.839 0 2 1.93 2 0l5 2c0 7.29-1 16.053-1 24Z"/><path fill="#1E9C5A" id="MOp5" d="M307 69v12c-10.947 0-29.499-16-36-16l-1-1c0-6.183-3-10.576-3-17 10.338 0 33.655 19 40 19v3Z"/><path fill="#40A565" id="ACAd2/3" d="m223 74-5 1c0-7.056-1-14.442-1-22l5-4h1v25ZM233 74c2.124 0 4.436 1 6 1 0-7.293 1-15.359 1-22l-6-4c0 7.29-1 16.053-1 24v1Z"/><path fill="#3EA566" id="ACAd5" d="M218 75c-5.063 0-8.418 6-13 6 0-5.675-1-11.954-1-17 0-2.302 9.941-11 12-11h1c0 7.558 1 14.944 1 22ZM239 75l12 6c0-2.839.142-16 2-16v-1l-2.5-3-9.5-8h-1c0 6.641-1 14.707-1 22Z"/><path fill="#1B8062" id="SSp-un1" d="M361 71h1l2-6c0-1.323-9.567-8-11-8 0 1.974-2 3.517-2 6 0 2.496 10 4.338 10 8ZM92 65c0 2.554 3 3.688 3 5l11-7c0-1.076-1.523-5-3-5-1.822 0-11 5.301-11 7Z"/><path fill="#1C7F64" id="SSp-ll4" d="M148 67h1l1-1c0-1.774 1.203-7 0-7l-4 1 2 7ZM307 67h1c0-2.18 3-5.188 3-7h-1l-4-1c0 2.41 1 5.181 1 7v1Z"/><path fill="#1A7F63" id="SSp-ul4" d="m111 76 4 7c6.711 0 25.255-16 33-16l-2-7c-8.498 0-31.016 15-35 15v1ZM345 76l-4 7c-5.061 0-25.71-16-33-16 0-2.18 3-5.188 3-7 7.889 0 29.843 15 34 15v1Z"/><path fill="#1D9C5A" id="MOs6a" d="M184 86h1c1.819 0 4.591-1 7-1 0-6.988 11-15.912 11-21 0-7.72-15.357 0-17 0 0 7.13-2 14.181-2 22ZM265 85l7 1c0-7.017-1-12.911-1-21l-1-1c-1.501 0-17-7.653-17 0v1c2.614 0 11 16.772 11 20h1Z"/><path fill="#1C7F63" id="SSp-un2/3" d="m111 76-11 5-5-10v-1l11-7 5 12v1ZM356 82h1l4-11c0-3.662-10-5.504-10-8h-1c0 4.388-5 8.322-5 12v1c1.721 0 11 4.422 11 6Z"/><path fill="#1F9B5A" id="MOp6a" d="M160 97c-3.823 0-6.314 3-10 3V81c10.129 0 31.055-17 36-17 0 7.13-2 14.181-2 22l-5 3-4 2c-1.465 0-4-.109-4 2-1.623 0-6 .005-6 2-1.424 0-5 .362-5 2Z"/><path fill="#3FA664" id="ACAd6a" d="M196 89h1l8-7v-1c0-5.675-1-11.954-1-17h-1c0 5.088-11 14.012-11 21 2.226 0 4 1.774 4 4Z"/><path fill="#197E63" id="SSp-n1" d="M62 109c-3.32 0-3.736 3-7 3 0-10.149 17.204-29.704 24.5-37 2.774-2.774 8.707-10 12.5-10 0 2.554 3 3.688 3 5v1c-4.145 0-5.887 4.693-8.5 6-3.943 1.971-23.5 24.138-23.5 30v1l-1 1Z"/><path fill="#3FA664" id="ACAd6a" d="M259 89h1l2-2 1-1 1-1c0-3.228-8.386-20-11-20-1.858 0-2 13.161-2 16v1l8 7Z"/><path fill="#1F9B5A" id="MOp6a" d="M272 87c10.811 0 23.724 13 35 13V81c-10.947 0-29.499-16-36-16 0 8.089 1 13.983 1 21v1Z"/><path fill="#197E63" id="SSp-n1" d="M395 109c0-1.143 4.065 3 6 3 0-9.259-17.484-34.492-26.5-39-4.128-2.064-5.759-8-10.5-8l-2 6c5.746 0 22.443 20.387 25 25.5 1.347 2.695 6 6.469 6 9.5l2 3Z"/><path fill="#197C63" id="SSp-ll5" d="M149 67c0 1.234-.643 5 1 5v-6l-1 1Z"/><path fill="#187E62" id="SSp-ul5" d="M115 83c0 3.319 5 7.352 5 11 6.423 0 20.65-12 30-12v-1c-1.274 0 0-6.752 0-9-1.643 0-1-3.766-1-5h-1c-7.745 0-26.289 16-33 16Z"/><path fill="#197C63" id="SSp-ll5" d="m308 67-1 2v-2h1Z"/><path fill="#187E62" id="SSp-ul5" d="M336 94h1c0-4.178 4-6.934 4-11-5.061 0-25.71-16-33-16l-1 2v13c8.142 0 24.468 12 29 12Z"/><path fill="#1B7F64" id="SSp-n2/3" d="M77 101c-4.181 0-9.058 6-14 6 0-5.862 19.557-28.029 23.5-30 2.613-1.307 4.355-6 8.5-6l5 10v1c-3.853 0-21 13.746-21 18l-2 1ZM379 101c5.079 0 9.284 5 14 5 0-3.031-4.653-6.805-6-9.5-2.557-5.113-19.254-25.5-25-25.5h-1l-4 11c4.637 0 20 14.095 20 18l2 1Z"/><path fill="#40A664" id="ACAv1" d="M229 100c2.832 0 2.953 5 5 5 0-10.047-1-20.446-1-31v-1c-3.325 0-7.31 1-10 1 0 10.42-1 21.17-1 31l5-5c0-3.15 2-3.446 2 0Z"/><path fill="#3FA566" id="ACAv2/3" d="m221 107-3 2V75l5-1c0 10.42-1 21.17-1 31l-1 2ZM235 107l3 1c0-10.465 1-21.934 1-33-1.564 0-3.876-1-6-1 0 10.554 1 20.953 1 31l1 2Z"/><path fill="#3EA666" id="ACAv5" d="m209 105 9 4V75c-5.063 0-8.418 6-13 6v1c1.684 0 1 4.68 1 6l3 17ZM247 105c-1.194 0-9 4.978-9 3 0-10.465 1-21.934 1-33l12 6v1c0 7.754-4 15.632-4 23Z"/><path fill="#197E61" id="SSp-un4" d="M110 85h1l4-2-4-7-11 5v1l2 5c.496 0 .603-2.052 2.5-3l5.5 1ZM346 85c2.229 0 3.933-1 5.5-1l2.5 2 2-4c0-1.578-9.279-6-11-6l-4 7 4 2h1Z"/><path fill="#1A8062" id="SSp-n4" d="M97 94c-5.936 0-10.551 6-18 6 0-4.254 17.147-18 21-18l2 5c-.559 0-3 4.241-3 5l-2 2Z"/><path fill="#197D61" id="SSp-ul6a" d="M128 110h1l2-1 4-2 4-2c0-1.638 3.576-2 5-2 0-1.995 4.377-2 6-2V82c-9.35 0-23.577 12-30 12l4 8 4 8Z"/><path fill="#40A564" id="ACAv6a" d="M208 105h1l-3-17c0-1.32.684-6-1-6l-8 7c0 7.047 10 8.6 10 14l1 2ZM247 105h1l1-2 10-11v-3l-8-7c0 7.754-4 15.632-4 23Z"/><path fill="#197D61" id="SSp-ul6a" d="m333 101-5 8c-7.533 0-13.226-8-21-8V82c8.142 0 24.468 12 29 12l-2 6-1 1Z"/><path fill="#1A8062" id="SSp-n4" d="M359 93c0-2.44 4.6 3 5.5 3 4.203 0 7.564 4 12.5 4 0-3.905-15.363-18-20-18h-1l-2 4c0 3.262 4 4.117 4 7h1Z"/><path fill="#197D62" id="SSp-un5" d="M119 94h1c0-3.648-5-7.681-5-11l-4 2 8 9ZM337 95h1c0-4.768 7-6.29 7-10l-4-2c0 4.066-4 6.822-4 11v1Z"/><path fill="#1B7F62" id="SSp-m4" d="M102 87c-.559 0-3 4.241-3 5 1.767 0 11-5.055 11-7l-5.5-1c-1.897.948-2.004 3-2.5 3ZM354 86c0 3.262 4 4.117 4 7-1.307 0-12-6.895-12-8 2.229 0 3.933-1 5.5-1l2.5 2Z"/><path fill="#1B7E63" id="SSp-m5" d="M80 141h1c0-15.779 14.457-33.478 27.5-40 3.559-1.78 6.248-6 10.5-6v-1l-8-9h-1c0 1.945-9.233 7-11 7l-2 2-8 7.5c-4.397 8.794-19 23.861-19 33.5v1l10 5Z"/><path fill="#1E9C58" id="MOs6b" d="m192 86-7 1v-1c1.819 0 4.591-1 7-1v1Z"/><path fill="#3FA466" id="ACAd6b" d="M196 89v1l-4-4v-1c2.226 0 4 1.774 4 4ZM263 86h2v-1h-1l-1 1Z"/><path fill="#1E9C58" id="MOs6b" d="M272 86v1l-7-1v-1l7 1Z"/><path fill="#1B7E63" id="SSp-m5" d="m387 136-11 5c0-2.772-1.833-5.167-3-7.5-6.221-12.441-7.672-23.586-21.5-30.5-4.071-2.035-8.799-8-13.5-8 0-4.768 7-6.29 7-10h1c0 1.105 10.693 8 12 8h1c0 1.466 15.279 17.059 17 20.5l11 21.5v1Z"/><path fill="#1D9D5A" id="MOp6b" d="M185 87c0 1.995-4.377 2-6 2l5-3h1v1Z"/><path fill="#CACCC7" id="cing" d="m207 103 1 2c-8.204 0-11.656-10.578-18.5-14-6.43-3.215-13.816 5-19.5 5l-1 1h-5l1-2c1.623 0 6-.005 6-2 1.465 0 4 .109 4-2 1.465 0 4 .109 4-2 1.623 0 6-.005 6-2l7-1 4 4c0 3.643 7.416 13 11 13Z"/><path fill="#3FA466" id="ACAd6b" d="m263 86-1 1 1-1Z"/><path fill="#CACCC7" id="cing" d="m249 103-1 2c8.876 0 12.428-10.464 19.5-14 6.36-3.18 13.045 5 18.5 5l1 1h6c0-2.334-4.181-1.34-5.5-2L272 87l-7-1h-2l-1 1c0 1.238-.423 3-2 3l-1 2c0 3.412-6.352 11-10 11Z"/><path fill="#3FA466" id="ACAd6b" d="M260 89v1c1.577 0 2-1.762 2-3l-2 2Z"/><path fill="#1D9D5A" id="MOp6b" d="M307 101v1c-4.94 0-8.806-5-14-5 0-2.334-4.181-1.34-5.5-2L272 87c10.811 0 23.724 13 35 13v1ZM179 89l-4 2c1.465 0 4 .109 4-2Z"/><path fill="#40A465" id="ACAv6b" d="M196 90c0 3.643 7.416 13 11 13 0-5.4-10-6.953-10-14h-1v1ZM260 90l-1 2v-3h1v1Z"/><path fill="#1D9D5A" id="MOp6b" d="M175 91c-1.465 0-4-.109-4 2 1.465 0 4 .109 4-2Z"/><path fill="#C9C7C9" id="ccb" d="M91 167h1c0-7.295 7.813-16.126 11-22.5 13.858-27.717 41.223-38.5 72-38.5.646 0 5.212-3.356 6.5-4 3.014-1.507 22.5 9.585 22.5 12h1c2.672 0 17 2.866 17 5h5c0-1.399 2-1.399 2 0h5c2.985 0 11.635-5 18-5l1-1 2-1 2-1c0-2.213 15.831-10.335 18.5-9 1.38.69 4.489 4 5.5 4 20.42 0 34.782 4.641 51.5 13l14 14c3.464 1.732 12.443 20.386 14.5 24.5.807 1.615 1.736 9.5 4 9.5 0-3.68-2-5.511-2-9l-1-1-1-4-6-11.5c-3.09-6.181-14.144-21.322-20.5-24.5l-14-8c-6.246-3.123-13.696-3.848-20-7-1.837-.919-11.5-2.64-11.5-5h-2l-1-1c-5.455 0-12.14-8.18-18.5-5-7.072 3.536-10.624 14-19.5 14h-1c-1.194 0-9 4.978-9 3l-3-1c0 1.951-2.454.477-3.5 1-2.881 1.441-6.377-1-10.5-1l-3 2-9-4h-1c-8.204 0-11.656-10.578-18.5-14-6.43-3.215-13.816 5-19.5 5l-1 1h-2c0 2.315-8.754 4.127-10.5 5l-25 9c-3.032 1.516-7.049 6-10.5 6 0 1.189-8.007 10-10 10 0 1.562-2.189 5-4 5 0 1.238-.423 3-2 3 0 1.238-.423 3-2 3 0 1.572-2.052 7-4 7l-1 2-1 2c0 1.048.473 3-1 3l-1 2c0 4.875-4 8.125-4 13Z"/><path fill="#40A465" id="ACAv6b" d="m259 92-10 11c3.648 0 10-7.588 10-11Z"/><path fill="#1B7F62" id="SSp-m4" d="M391 132c0 1.712-2.571 3-4 3l-11-21.5c-1.721-3.441-17-19.034-17-20.5 0-2.44 4.6 3 5.5 3 4.203 0 7.564 4 12.5 4l2 1c0 5.488 12 21.917 12 31ZM65 133c2.523 0 1.96 2 5 2 0-9.639 14.603-24.706 19-33.5l8-7.5c-5.936 0-10.551 6-18 6l-2 1c0 6.621-12 21.798-12 30v2Z"/><path fill="#1D9D5A" id="MOp6b" d="M171 93c-1.623 0-6 .005-6 2 1.623 0 6-.005 6-2Z"/><path fill="#1A7F61" id="SSp-un6a" d="M119 95c0 1.18 3.441 7 5 7l-4-8h-1v1ZM337 95c0 1.408-1.197 5-3 5l2-6h1v1Z"/><path fill="#187D61" id="SSp-m6a" d="m81 141 14 7c0-4.008 19.175-31 24-31 0-1.747.253-2 2-2 0-1.577 1.762-2 3-2 0-1.577 1.762-2 3-2l1-1-4-8c-1.559 0-5-5.82-5-7-4.252 0-6.941 4.22-10.5 6-13.043 6.522-27.5 24.221-27.5 40Z"/><path fill="#1D9D5A" id="MOp6b" d="M160 97h4l1-2c-1.424 0-5 .362-5 2Z"/><path fill="#187D61" id="SSp-m6a" d="M361 149h1c0-2.258 9.623-5.061 11.5-6l2.5-2c0-2.772-1.833-5.167-3-7.5-6.221-12.441-7.672-23.586-21.5-30.5-4.071-2.035-8.799-8-13.5-8h-1c0 1.408-1.197 5-3 5l-1 1-5 8v1c8.779 0 33 31.054 33 39Z"/><path fill="#C9C9CA" id="scwm" d="m170 96-1 1 1-1ZM286 96l1 1-1-1Z"/><path fill="#1D9D5A" id="MOp6b" d="M150 100v1c2.172 0 10-1.377 10-4-3.823 0-6.314 3-10 3Z"/><path fill="#C9C9CA" id="scwm" d="M121 115v2c3.451 0 7.468-4.484 10.5-6l25-9c1.746-.873 10.5-2.685 10.5-5h-7c0 2.623-7.828 4-10 4 0 2.698-4.255 2-6 2 0 2.461-3.378 2-5 2 0 2.109-2.535 2-4 2 0 2.109-2.535 2-4 2l-2 2h-2c0 1.577-1.762 2-3 2 0 1.577-1.762 2-3 2ZM360 149l1 4-6-11.5c-3.09-6.181-14.144-21.322-20.5-24.5l-14-8c-6.246-3.123-13.696-3.848-20-7-1.837-.919-11.5-2.64-11.5-5h4c5.194 0 9.06 5 14 5 7.331 0 14.135 9 21 9 6.171 0 23.426 21.351 26 26.5l6 11.5Z"/><path fill="#1A7E64" id="SSp-m2/3" d="m79 100-2 1 2-1Z"/><path fill="#7ED04B" id="IG" d="M221 107c4.123 0 7.619 2.441 10.5 1 1.046-.523 3.5.951 3.5-1l-1-2c-2.047 0-2.168-5-5-5 0 1.399-2 1.399-2 0l-5 5-1 2Z"/><path fill="#1A7F61" id="SSp-un6a" d="m334 100-1 1 1-1Z"/><path fill="#1A7E64" id="SSp-m2/3" d="M56 127c2.952 0 5.452 4 9 4 0-8.202 12-23.379 12-30-4.181 0-9.058 6-14 6v1l-1 1c0 6.249-6 11.57-6 18Z"/><path fill="#1C8064" id="SSp-ul6b" d="M150 101c-1.623 0-6 .005-6 2 1.745 0 6 .698 6-2ZM328 110v1c-6.865 0-13.669-9-21-9v-1c7.774 0 13.467 8 21 8v1Z"/><path fill="#1A7E64" id="SSp-m2/3" d="M391 132h1c3.29 0 5.518-5 9-5v-1c-2.334 0-1.341-4.181-2-5.5-1.86-3.719-4-6.987-4-11.5l-2-3c-4.716 0-8.921-5-14-5 0 5.488 12 21.917 12 31Z"/><path fill="#AAA8A9" id="SEZ" d="m180 109-1-3.5c2.977-5.954 22.945 8.5 25 8.5 0-2.415-19.486-13.507-22.5-12-1.288.644-5.854 4-6.5 4l5 3ZM277 109c0-11.216-15.938 2-20 2 0-2.213 15.831-10.335 18.5-9 1.38.69 4.489 4 5.5 4l-4 3Z"/><path fill="#1C8064" id="SSp-ul6b" d="M144 103c-1.424 0-5 .362-5 2 1.622 0 5 .461 5-2ZM139 105l-4 2c1.465 0 4 .109 4-2Z"/><path fill="#A8AAAA" id="VL" d="M191 148c0 1.145.579 4-1 4l-1-24.5-9-18.5-1-3.5c2.977-5.954 22.945 8.5 25 8.5h1l-7 9.5c-3.349 6.697-7 13.414-7 21.5v3ZM266 181v1l-1-1v-36c0-6.306-1.402-12.304-4-17.5l-9-13.5 1-1 2-1 2-1c4.062 0 20-13.216 20-2 0 2.344-8.401 17.302-10 20.5-2.53 5.06 0 34.325 0 42.5v8l-1 1Z"/><path fill="#98D5F9" id="CP" d="m103 224 4.5 5 9.5 5 11.5 2c14.324-7.162 35.572-3.644 44.5-21.5 3.958-7.917 1.539-31.077 4-36 2.6-5.2 8-9.185 8 .5h3l1-4c0-2.075-.797-15 1-15v-8l-1-24.5-9-18.5-5-3c-30.777 0-58.142 10.783-72 38.5-3.187 6.374-11 15.205-11 22.5l-1 1v1l-1 2v1c0 9.939 3 18.736 3 26v2c1.856 0 6 13.065 6 15v1l2 4v1l2 2v1ZM343 233c-1.048 0-3-.473-3 1l-11.5 2c-14.586-7.293-36.393-3.286-45.5-21.5-4.34-8.679.332-21.335-4-30v-8c-2.828-5.655-8-2.99-8 2.5h-2c0-.969-1.147-7-2-7 0-8.175-2.53-37.44 0-42.5 1.599-3.198 10-18.156 10-20.5l4-3c20.42 0 34.782 4.641 51.5 13l14 14c3.464 1.732 12.443 20.386 14.5 24.5.807 1.615 1.736 9.5 4 9.5 0 1.424.362 5 2 5v3c0 6.6-2 11.5-2 18-1.579 0-1 2.855-1 4l-1 2v2c-2.087 0-4 8.909-4 11v1l-1 2-1 2-1 2-1 2-1 2-1 1v1c-1.747 0-2 .253-2 2l-1 1-1 1c-1.417 0-6 2.383-6 4Z"/><path fill="#1C8064" id="SSp-ul6b" d="m135 107-4 2c1.465 0 4 .109 4-2Z"/><path fill="#1B7F64" id="SSp-n2/3" d="m63 108-1 1 1-1Z"/><path fill="#187E61" id="SSp-m1" d="m406 123-5 3c-2.334 0-1.341-4.181-2-5.5-1.86-3.719-4-6.987-4-11.5 0-1.143 4.065 3 6 3 .99 0 5 9.73 5 11ZM55 127h1c0-6.43 6-11.751 6-18-3.32 0-3.736 3-7 3l-4 11c1.621 0 4 2.379 4 4Z"/><path fill="#1C8064" id="SSp-ul6b" d="M129 110v1l2-2-2 1Z"/><path fill="#188064" id="SSp-m6b" d="M127 111h2v-1h-1l-1 1ZM360 149h1c0-7.946-24.221-39-33-39v1c6.171 0 23.426 21.351 26 26.5l6 11.5ZM127 111c-1.238 0-3 .423-3 2 1.238 0 3-.423 3-2Z"/><path fill="#AAA8A9" id="SEZ" d="m257 111-2 1 2-1ZM255 112l-2 1 2-1Z"/><path fill="#188064" id="SSp-m6b" d="M124 113c-1.238 0-3 .423-3 2 1.238 0 3-.423 3-2Z"/><path fill="#90CBEC" id="LSc" d="M191 145h2c3.081 0 6.338-4.838 8.5-7 3.993-3.993 20.5-12.654 20.5-18v-1c0-2.134-14.328-5-17-5l-7 9.5c-3.349 6.697-7 13.414-7 21.5ZM265 145l-1 1c-3.061 0-3.572-4.036-5.5-5-3.571-1.786-24.5-18.489-24.5-21v-1c2.985 0 11.635-5 18-5l9 13.5c2.598 5.196 4 11.194 4 17.5Z"/><path fill="#188064" id="SSp-m6b" d="M119 117h2v-2c-1.747 0-2 .253-2 2ZM96 149h1l1-2 1-2c0-1.572 2.052-7 4-7 0-1.238.423-3 2-3 0-1.238.423-3 2-3 0-1.562 2.189-5 4-5 0-4.217 8-6.259 8-10-4.825 0-24 26.992-24 31v1h1Z"/><path fill="#C9C9CA" id="scwm" d="M121 117c0 1.189-8.007 10-10 10 0-4.217 8-6.259 8-10h2Z"/><path fill="#97D6F9" id="STR" d="M227 119c0 1.919 2 2.488 2 0 0-1.399-2-1.399-2 0ZM223 119l-1 1v-1h1Z"/><path fill="#90CAED" id="LSr" d="M265 172c-1.947 0-3.644-3.428-6.5-2-1.919.96-8.743 5-10.5 5 0-4.285-1.14-10.779-3-14.5-.746-1.493.729-6.5-2-6.5 0-1.572-2.052-7-4-7 0-4.424-6.086-8.672-8-12.5l-2.5-6.5-2.5 4.5c-.966.966-9 13.503-9 14.5l-1 1-1 1-2 6c-1.353 0-2 4.643-2 6 0 4.703-2 9.513-2 15l-6.5-5c-3.549-1.774-7.255 0-10.5 0-.886 0-2-9.728-2-11v-8c1.579 0 1-2.855 1-4 1.577 0 2-1.762 2-3 3.081 0 6.338-4.838 8.5-7 3.993-3.993 20.5-12.654 20.5-18l1-1h4c0 1.919 2 2.488 2 0h4l1 1c0 2.511 20.929 19.214 24.5 21 1.928.964 2.439 5 5.5 5l1 1v25Z"/><path fill="#97D6F9" id="STR" d="M234 119v1l-1-1h1Z"/><path fill="#1A7E62" id="SSs1" d="M42 177h5c0-5.046-2.119-21.262 0-25.5 2.083-4.166 8-20.289 8-24.5 0-1.621-2.379-4-4-4 0 2.279-6.574 18.648-8 21.5-2.876 5.751-1 25.416-1 32.5ZM409 177h5c0-7.955 2.457-28.586-1-35.5l-7-18.5-5 3v1l6 14.5c2.67 5.34 3 15.779 3 22 0 1.866.784 12.5-1 12.5v1Z"/><path fill="#1B8063" id="SSs2/3" d="m56 175-9 2c0-5.046-2.119-21.262 0-25.5 2.083-4.166 8-20.289 8-24.5h1c2.952 0 5.452 4 9 4v2c-2.399 0-3.132 8.764-4 10.5-4.627 9.254-5 20.309-5 31.5Z"/><path fill="#C9C9CA" id="scwm" d="M111 127c-1.811 0-4 3.438-4 5 1.811 0 4-3.438 4-5Z"/><path fill="#1B8063" id="SSs2/3" d="M401 175c2.097 0 5.293 1 8 1 1.784 0 1-10.634 1-12.5 0-6.221-.33-16.66-3-22l-6-14.5c-3.482 0-5.71 5-9 5 0 4.105 3.203 9.906 5 13.5 3.809 7.618 4 20.481 4 29.5Z"/><path fill="#8FCBEC" id="SF" d="M215 189c3.786 0 2.877 5.311 7.5 3 2.513-1.257 4.248-10 6-10l.5 2.5c1.595 3.19 3.107 6.803 6.5 8.5 3.09 1.545 3.915-4 5.5-4 0-4.979 6-8.518 6-13l1-1c0-4.285-1.14-10.779-3-14.5-.746-1.493.729-6.5-2-6.5v3c0 10.574-12.22-10-4-10 0-4.424-6.086-8.672-8-12.5l-2.5-6.5-2.5 4.5c-.966.966-9 13.503-9 14.5 9.241 0-4 22.46-4 8-1.353 0-2 4.643-2 6 0 4.703-2 9.513-2 15 0 4.181 6 7.766 6 13Z"/><path fill="#C9C9CA" id="scwm" d="M107 132c-1.577 0-2 1.762-2 3 1.577 0 2-1.762 2-3Z"/><path fill="#187C63" id="SSs4" d="M395 175h6c0-9.019-.191-21.882-4-29.5-1.797-3.594-5-9.395-5-13.5h-1c0 1.712-2.571 3-4 3v1c0 3.771 2.388 8.277 4 11.5 2.45 4.901 4 21.134 4 27.5ZM56 175h5c0-9.39 2.014-21.529 6-29.5.719-1.437 1.343-9.5 3-9.5v-1c-3.04 0-2.477-2-5-2-2.399 0-3.132 8.764-4 10.5-4.627 9.254-5 20.309-5 31.5Z"/><path fill="#C9C9CA" id="scwm" d="M105 135c-1.577 0-2 1.762-2 3 1.577 0 2-1.762 2-3Z"/><path fill="#1C8063" id="SSs5" d="M61 175h13v-1c0-7.745-.241-18.018 3-24.5l3-8.5-10-5c-1.657 0-2.281 8.063-3 9.5-3.986 7.971-6 20.11-6 29.5ZM382 175h13c0-6.366-1.55-22.599-4-27.5-1.612-3.223-4-7.729-4-11.5l-11 5 5 14.5c2.394 4.788 1 13.839 1 19.5Z"/><path fill="#C9C9CA" id="scwm" d="M103 138c-1.948 0-4 5.428-4 7 1.948 0 4-5.428 4-7Z"/><path fill="#197D63" id="SSs6a" d="M84 175h3l8-26v-1l-14-7h-1l-3 8.5c-3.241 6.482-3 16.755-3 24.5 2.6 0 6.876 1 9 1 0-1.186 1-1.186 1 0ZM373 175h9c0-5.661 1.394-14.712-1-19.5l-5-14.5-2.5 2c-1.877.939-11.5 3.742-11.5 6 0 9.245 7 16.799 7 26h4Z"/><path fill="#C9C9CA" id="scwm" d="m99 145-1 2 1-2Z"/><path fill="#97D6F9" id="STR" d="M193 145c0 1.238-.423 3-2 3v-3h2ZM264 146l1 1v-2l-1 1Z"/><path fill="#C9C9CA" id="scwm" d="m98 147-1 2 1-2Z"/><path fill="#CBC8CB" id="fi" d="m215 149-2 6c0 14.46 13.241-8 4-8l-1 1-1 1ZM239 147c1.948 0 4 5.428 4 7v3c0 10.574-12.22-10-4-10Z"/><path fill="#8FCBEC" id="SF" d="m216 148-1 1 1-1Z"/><path fill="#1A8061" id="SSs6b" d="M87 175h2c0-1.048-.473-3 1-3v-1l1-2v-2c0-4.875 4-8.125 4-13l1-2v-3h-1l-8 26Z"/><path fill="#C9C9CA" id="scwm" d="M97 149c0 1.048.473 3-1 3v-3h1Z"/><path fill="#1A8061" id="SSs6b" d="M368 175h1c0-9.201-7-16.755-7-26h-2l1 4 1 4 1 1c0 3.489 2 5.32 2 9 1.014 0 2 3.959 2 5v3h1Z"/><path fill="#C9C9CA" id="scwm" d="m96 152-1 2 1-2ZM362 157l1 1-1-1Z"/><path fill="#A8AAAA" id="VL" d="M191 182h1v-11c-.886 0-2-9.728-2-11-1.797 0-1 12.925-1 15 1.684 0 1 4.679 1 6l1 1Z"/><path fill="#C8CBCC" id="ec" d="m92 167-1 1v-1h1ZM365 167c1.014 0 2 3.959 2 5-1.638 0-2-3.576-2-5ZM91 169l-1 2 1-2Z"/><path fill="#8FCBED" id="LSv" d="M200 193h1c4.28 0 14 8.466 14-4 0-5.234-6-8.819-6-13l-6.5-5c-3.549-1.774-7.255 0-10.5 0v11c.235 0 8 9.586 8 11ZM256 193l-1 1c-5.127 0-14 4.736-14-5 0-4.979 6-8.518 6-13l1-1c1.757 0 8.581-4.04 10.5-5 2.856-1.428 4.553 2 6.5 2v9l-2 4-1 1-1 1-2 3-1 1-1 1-1 1Z"/><path fill="#C8CBCC" id="ec" d="M92 198h1c0-7.264-3-16.061-3-26-1.473 0-1 1.952-1 3 0 5.93 1 11.168 1 16l1 4 1 2v1Z"/><path fill="#97D6F9" id="STR" d="m269 179-2 1v-8c.853 0 2 6.031 2 7ZM139 255c0 3.362-8.104 9-11 9l2-2.5c1.186-2.373-1.987-10.974-3-13-1.218-2.436-8-7.704-8-9.5 0-1.429-1.288-4-3-4l1-1 11.5 2c14.324-7.162 35.572-3.644 44.5-21.5 3.958-7.917 1.539-31.077 4-36 2.6-5.2 8-9.185 8 .5l-1 2-1 1v1l-3 4c0-.991-2 6.766-2 10l-1 1-2 19c-4.758 0-6.253 5 1 5l2 2-2 5c-4.012 0-7.428 5-11 5l5-9.5c-.598-1.197-4.677.089-5.5.5l-12 8c-2.36 1.18-5.558.779-8 2-1.094.547-16.014 2-17.5 2-1.128 0-6 .101-6 1.5 0 1.876 12.957 16.5 18 16.5ZM317 255c0 2.98 8.507 9 11 9l-2-3.5c0-3.858 2.324-9.648 4-13l7-8.5 4-5h-1l-11.5 2c-14.586-7.293-36.393-3.286-45.5-21.5-4.34-8.679.332-21.335-4-30v-8c-2.828-5.655-8-2.99-8 2.5l2 3 4 5c1.484 0 2 8.263 2 10l2 20c5.044 0 7.538 5-1 5l-1 2c0 2.25 2 3.376 2 5 5.113 0 9.447 8 14 8 0-3.917-9-7.938-9-12.5 0-1.135 5.015.258 5.5.5l13 8c8.717 4.359 21.279.639 30 5l-4 6c-4.549 4.549-5.729 11-13.5 11Z"/><path fill="#12AD82" id="VISC5" d="M74 177c-4.303 0-8.941 4-13 4v-6h13v2Z"/><path fill="#11AC83" id="VISC6a" d="M83 175c0 .981-7.757 2-9 2v-3c2.6 0 6.876 1 9 1ZM83 175h1c0-1.186-1-1.186-1 0ZM382 175v2c-1.242 0-9-1.019-9-2h9Z"/><path fill="#12AD82" id="VISC5" d="M382 177c4.418 0 8.962 4 13 4v-6h-13v2Z"/><path fill="#12AC83" id="VISC2/3" d="M56 183c-2.833 0-4.84 2-7 2l-2-8 9-2v8Z"/><path fill="#11AC82" id="VISC4" d="m61 181-5 1v-7h5v6Z"/><path fill="#009B74" id="GU6a" d="m85 193-8 1c0-5.041-3-11.238-3-17 1.243 0 9-1.019 9-2h4c0 5.649 2 11.352 2 16-1.466 0-4-.109-4 2Z"/><path fill="#019C74" id="GU6b" d="M89 191h1c0-4.832-1-10.07-1-16h-2c0 5.649 2 11.352 2 16Z"/><path fill="#97D6F9" id="STR" d="m188 179 2 2c0-1.321.684-6-1-6l-1 4Z"/><path fill="#90CAED" id="LSr" d="m248 175-1 1 1-1Z"/><path fill="#C8CBCC" id="ec" d="M365 193h1v-1l1-1c0-5.139 1-10.395 1-16h-1c0 6.6-2 11.5-2 18Z"/><path fill="#019C74" id="GU6b" d="M367 191h1c0-4.734 1-10.644 1-16h-1c0 5.605-1 10.861-1 16Z"/><path fill="#009B74" id="GU6a" d="M379 194h1c0-5.666 2-10.844 2-17-1.242 0-9-1.019-9-2h-4c0 5.356-1 11.266-1 16l4 2 7 1Z"/><path fill="#11AC82" id="VISC4" d="m395 181 5 1 1-7h-6v6Z"/><path fill="#12AC83" id="VISC2/3" d="M407 185h1l1-8v-1c-2.707 0-5.903-1-8-1l-1 7c1.176 0 7 2.114 7 3Z"/><path fill="#12AD83" id="VISC1" d="m49 185-4 2-3-10h5l2 8Z"/><path fill="#019C75" id="GU5" d="M64 196h1l12-2c0-5.041-3-11.238-3-17-4.303 0-8.941 4-13 4l3 15ZM380 194l12 2c0-4.812 3-9.327 3-15-4.038 0-8.582-4-13-4 0 6.156-2 11.334-2 17Z"/><path fill="#12AD83" id="VISC1" d="M408 185c1.238 0 3 .423 3 2 1.931 0 3-8.302 3-10h-5l-1 8Z"/><path fill="#B3C0DE" id="BST" d="M197 206c-6.123 0-11.664 10-18 10 0-12.069 4-21.552 4-33v-1l1-1 1-2h3l2 2 1 1c0 1.72 7.864 11 9 11h1c0 3.78 5 7.596 5 12-3.704 0-6.705 1-9 1ZM259 206c6.4 0 11.628 10 18 10 0-13.137-4-22.873-4-34l-2-3h-2l-2 1-1 1v1l-3 3-1 1-1 1-2 3-1 1-1 1-1 1-1 1c0 3.382-4 5.741-4 10 3.091 0 5.478 2 8 2Z"/><path fill="#97D6F9" id="STR" d="m267 180-1 1 1-1Z"/><path fill="#009C74" id="GU4" d="m64 196-2 1-5-9.5c-.574-1.147 1.064-4.5-1-4.5v-1l5-1 3 15Z"/><path fill="#8599CC" id="PAL" d="m184 181-1 1 1-1Z"/><path fill="#97D6F9" id="STR" d="m266 182-3 3 2-4 1 1Z"/><path fill="#009C74" id="GU4" d="m392 196 3 1c0-5.116 5-9.312 5-15l-5-1c0 5.673-3 10.188-3 15Z"/><path fill="#97D6F9" id="STR" d="M192 182c.235 0 8 9.586 8 11-1.136 0-9-9.28-9-11h1ZM206 205c4.549 0 8.872 2 14 2l3-2.5c.636-1.272 1.45-7.5 3-7.5 0-6.575 5-2.672 5 2 1.845 0 1.441 3.381 2 4.5l4 3.5c2.37 0 14-.416 14-3 0-4.259 4-6.618 4-10-5.127 0-14 4.736-14-5-1.585 0-2.41 5.545-5.5 4-3.393-1.697-4.905-5.31-6.5-8.5l-.5-2.5c-1.752 0-3.487 8.743-6 10-4.623 2.311-3.714-3-7.5-3 0 12.466-9.72 4-14 4 0 3.78 5 7.596 5 12Z"/><path fill="#8599CC" id="PAL" d="m277 216 4 1-2-20c-3.163 0-2-7.871-2-10l-4-5c0 11.127 4 20.863 4 34Z"/><path fill="#009B75" id="GU2/3" d="M402 199h1c0-5.012 4-8.65 4-14 0-.886-5.824-3-7-3 0 5.688-5 9.884-5 15l7 2ZM62 197c-3.091 0-5.478 2-8 2l-5-14c2.16 0 4.167-2 7-2 2.064 0 .426 3.353 1 4.5l5 9.5Z"/><path fill="#8599CC" id="PAL" d="m179 216-4 1 2-19 1-1c1.888 0 2-8.072 2-10l3-4c0 11.448-4 20.931-4 33Z"/><path fill="#009C75" id="GU1" d="m54 199-4 1-5-13 4-2 5 14Z"/><path fill="#97D6F9" id="STR" d="m263 185-1 1 1-1Z"/><path fill="#009C75" id="GU1" d="m403 199 4 1c0-4.585 4-7.957 4-13 0-1.577-1.762-2-3-2h-1c0 5.35-4 8.988-4 14Z"/><path fill="#CCC" d="M180 187c0 1.928-.112 10-2 10 0-3.234 2-10.991 2-10Z"/><path fill="#97D6F9" id="STR" d="m262 186-1 1 1-1Z"/><path fill="#CCC" d="M277 187c1.484 0 2 8.263 2 10-3.163 0-2-7.871-2-10Z"/><path fill="#97D6F9" id="STR" d="m259 190-1 1 1-1Z"/><path fill="#8ADA86" id="CLA" d="M93 208c0 1.473-1.952 1-3 1-8.565 0-5-11.204-5-16 0-2.109 2.534-2 4-2h1l1 4 1 2v1l1 2v8Z"/><path fill="#97D6F9" id="STR" d="m258 191-1 1 1-1Z"/><path fill="#209766" id="AIp6a" d="m367 191-1 1 1-1Z"/><path fill="#8ADA86" id="CLA" d="m363 208 4 1c7.317 0 5-12.113 5-16l-4-2h-1l-1 1v1l-1 1v3l-1 1v1c0 1.048.473 3-1 3v6Z"/><path fill="#97D6F9" id="STR" d="m257 192-1 1 1-1Z"/><path fill="#209766" id="AIp6a" d="m88 211-4 2-7-19 8-1c0 4.796-3.565 16 5 16l-2 2Z"/><path fill="#FF5445" id="MEPO" d="M226 197c0 10.181 5 12.593 5 2 0-4.672-5-8.575-5-2Z"/><path fill="#97D6F9" id="STR" d="m256 193-1 1 1-1Z"/><path fill="#C8CBCC" id="ec" d="M364 197h1v-4c-1.579 0-1 2.855-1 4Z"/><path fill="#209766" id="AIp6a" d="m366 193-1 1v-1h1ZM368 211l4 2c0-6.411 7-12.23 7-19l-7-1c0 3.887 2.317 16-5 16l1 2Z"/><path fill="#219864" id="AIp5" d="m82 215-5 1c0-4.855-12-12.211-12-20l12-2 7 19-2 2ZM375 215h4c3.225 0 13-16.2 13-19l-12-2h-1c0 6.77-7 12.589-7 19l3 2Z"/><path fill="#209766" id="AIp6a" d="m91 195 1 2-1-2Z"/><path fill="#209865" id="AIp2/3" d="m77 216-9 3c-2.713 0-14-17.507-14-20 2.522 0 4.909-2 8-2l2-1h1c0 7.789 12 15.145 12 20ZM379 215l10 5c0-1.938 13-16.148 13-21l-7-2-3-1c0 2.8-9.775 19-13 19Z"/><path fill="#CCC" d="m178 197-1 1 1-1Z"/><path fill="#CAC7CB" id="fiber tracts" d="M229 218h16c0-2.213-7.826-4.163-9.5-5-1.927-.963-.62-6 1.5-6l-4-3.5c-.559-1.119-.155-4.5-2-4.5 0 10.593-5 8.181-5-2-1.55 0-2.364 6.228-3 7.5l-3 2.5c2.077 0 1.115 6.192-.5 7-1.683.842-8.5 1.33-8.5 4h16c.839 0 2-1.93 2 0Z"/><path fill="#C8CBCC" id="ec" d="M363 199h1v-2l-1 2Z"/><path fill="#209766" id="AIp6a" d="m365 197-1 1v-1h1ZM93 198v2l-1-2h1Z"/><path fill="#219765" id="AIp1" d="m68 219-6 3c0-2.26-12-16.621-12-22l4-1c0 2.493 11.287 20 14 20Z"/><path fill="#209766" id="AIp6a" d="M363 201v1c1.473 0 1-1.952 1-3h-1v2Z"/><path fill="#219765" id="AIp1" d="m389 220 6 2c0-5.181 12-16.216 12-22l-4-1h-1c0 4.852-13 19.062-13 21Z"/><path fill="#C8CBCC" id="ec" d="M95 209c0 .853 2.992 6 4 6 0-1.935-4.144-15-6-15v2c1.566 0 1.566 5 0 5v1h1l1 1ZM362 209l-3 3c0-2.091 1.913-11 4-11v5c-1.186 0-1.186 1 0 1v1l-1 1Z"/><path fill="#209766" id="AIp6a" d="M93 202c1.566 0 1.566 5 0 5v-5Z"/><path fill="#CBCBC7" id="aco" d="M209 218h2c0-2.67 6.817-3.158 8.5-4 1.615-.808 2.577-7 .5-7-5.128 0-9.451-2-14-2-3.704 0-6.705 1-9 1 0 5.528 6 9.279 6 13 2.124 0 4.436-1 6-1ZM247 218l6 1c0-3.106 6-5.821 6-13-2.522 0-4.909-2-8-2 0 2.584-11.63 3-14 3-2.12 0-3.427 5.037-1.5 6 1.674.837 9.5 2.787 9.5 5h2Z"/><path fill="#C9C9C9" id="act" d="m179 221-3 1c-7.253 0-5.758-5-1-5l4-1c6.336 0 11.877-10 18-10 0 5.528 6 9.279 6 13-8.538 0-16.276 2-24 2ZM277 221l3 1c8.538 0 6.044-5 1-5l-4-1c-6.372 0-11.6-10-18-10 0 7.179-6 9.894-6 13 8.538 0 16.276 2 24 2Z"/><path fill="#209766" id="AIp6a" d="M363 206c-1.186 0-1.186 1 0 1v-1Z"/><path fill="#A0EE9C" id="EPd" d="M100 231h3l2-3-2-4v-1l-2-2v-1l-2-4v-1c-1.008 0-4-5.147-4-6l-1-1h-1c0 1.473-1.952 1-3 1l-2 2-1 8v1l2 2v1l2 2 2 2 2 2h1l1 1h1l1 1h1Z"/><path fill="#8AD987" id="CTXsp" d="m94 208 1 1-1-1ZM363 208l-1 1 1-1Z"/><path fill="#A0EE9C" id="EPd" d="M354 231h3l2-1 1-1h1l1-1 2-1 1-1 1-1 1-1v-1l1-1 1-3c0-2.707-1-5.903-1-8l-1-2-4-1-1 1-3 3v1l-1 2-1 2-1 2-1 2-1 2-1 1v1l-1 2 2 4Z"/><path fill="#99D2BD" id="OLF" d="M82 215c2.359 0 3.698 4 5 4l1-8-4 2-2 2ZM375 215c-2.773 0-3.67 4-6 4 0-2.707-1-5.903-1-8l4 2 3 2Z"/><path fill="#C8CBCC" id="ec" d="m359 213-1 2 1-2Z"/><path fill="#6ACAB9" id="PIR" d="m119 275-2 1c-7.303 0-16.106-10-22-10l-9-9.5c-4.93-4.929-24-28.72-24-34.5l6-3 9-3 5-1c2.359 0 3.698 4 5 4v1l2 2v1l2 2 2 2 2 2h1l1 1h1l1 1h1c0 2.341 2.342 1.421 3.5 2l13 8c7.999 3.999 9.5 15.287 9.5 24-3.153 0-6 6.688-6 9l-1 1Z"/><path fill="#C8CBCC" id="ec" d="m358 215-1 2 1-2Z"/><path fill="#6ACAB9" id="PIR" d="m337 275 2 1c7.142 0 12.496-5.998 18.5-9 .778-.389 3.5-1.961 3.5 0l8.5-10c7.016-7.016 13.605-15.71 17.5-23.5 1.505-3.009 8-7.073 8-11.5l-6-2-10-5h-4c-2.773 0-3.67 4-6 4l-1 3-1 1v1l-1 1-1 1-1 1-2 1-1 1h-1l-1 1-2 1-4.5 3c-5.092 2.546-9.813 6.406-15 9-7.333 3.666-6.5 15.893-6.5 22 2.268 0 6 8.031 6 10Z"/><path fill="#C8CBCC" id="ec" d="m99 216 2 4-2-4Z"/><path fill="#E64438" id="HY" d="M224 242h3v-24h-18v7c1.714 0 1 5.594 1 7l3-1v-9.5c.943-1.886 8.741-4.518 10-2 1.735 3.47-1 9.298-1 12.5 5.537 0 2 7.476 2 10Z"/><path fill="#FF5445" id="MEPO" d="M227 236h2l2-4.5v-12l-2-1.5c0-1.93-1.161 0-2 0v18Z"/><path fill="#E64438" id="HY" d="M229 242h3c0-2.842-3.016-10 3-10 0-3.108-3.862-7.775-2-11.5 1.596-3.192 8.638-1.724 10 1l1 9.5 3 1v-14h-18l2 1.5v12l-2 4.5v6Z"/><path fill="#C8CBCC" id="ec" d="m357 217-1 2 1-2Z"/><path fill="#B3C0DE" id="BST" d="M209 225c-6.232 0-9.277 7-15 7-6.554 0-15-.842-15-9v-2c7.724 0 15.462-2 24-2 2.124 0 4.436-1 6-1v7ZM247 225c6.39 0 9.223 7 15 7 8 0 15-1.241 15-9v-2c-7.724 0-15.462-2-24-2l-6-1v7Z"/><path fill="#FF5547" id="ADP" d="M213 231c0 10.917 8.32 1 9 1 0-3.202 2.735-9.03 1-12.5-1.259-2.518-9.057.114-10 2v9.5ZM244 231c0 5.265-9 6.866-9 1 0-3.108-3.862-7.775-2-11.5 1.596-3.192 8.638-1.724 10 1l1 9.5Z"/><path fill="#C8CBCC" id="ec" d="m356 219-1 2 1-2Z"/><path fill="#99D2BD" id="OLF" d="m87 220 2 2-2-2Z"/><path fill="#C8CBCC" id="ec" d="m101 221 2 2-2-2Z"/><path fill="#8599CC" id="PAL" d="m179 223-1 1-2-2 3-1v2ZM277 223l2 1 1-2-3-1v2Z"/><path fill="#C8CBCC" id="ec" d="m355 221-1 2 1-2Z"/><path fill="#99D2BD" id="OLF" d="m368 222-1 1 1-1ZM89 223l2 2-2-2Z"/><path fill="#E64438" id="HY" d="m203 241-5 5c0-5.436-7.061-5-10-5-.948 0-12-10.966-12-12l2-5 1-1c0 8.158 8.446 9 15 9l-2 3.5c-2.796 5.591 8.456 5.5 11 5.5ZM268 241c-2.251 0-10-.364-10 5-.92 0-6-5.482-6-7 3.05 0 9.157 5.187 12-.5 1.428-2.856-2-4.553-2-6.5 8 0 15-1.241 15-9l2 1c0 2.25 2 3.376 2 5-1.71 0-9.253 12-13 12Z"/><path fill="#C8CBCC" id="ec" d="m354 223-1 1 1-1ZM117 234l-1 1c-3.952 0-7.498-7-11-7l-2-4 4.5 5 9.5 5Z"/><path fill="#7ECDF8" id="FS" d="m162 237-5.5 6c-6.549 3.275-8.866 12-17.5 12-5.043 0-18-14.624-18-16.5 0-1.399 4.872-1.5 6-1.5 1.486 0 16.406-1.453 17.5-2 2.442-1.221 5.64-.82 8-2l12-8c.823-.411 4.902-1.697 5.5-.5l-5 9.5-1 1-1 1-1 1ZM295 237c0 4.037 17.853 18 22 18 7.771 0 8.951-6.451 13.5-11l4-6c-8.721-4.361-21.283-.641-30-5l-13-8c-.485-.242-5.5-1.635-5.5-.5 0 4.562 9 8.583 9 12.5Z"/><path fill="#99D2BD" id="OLF" d="m367 224-1 1 1-1Z"/><path fill="#FD5446" id="PS" d="m204 240-1 1c-2.544 0-13.796.091-11-5.5l2-3.5c5.723 0 8.768-7 15-7 1.714 0 1 5.594 1 7l-6 8ZM262 232c0 1.947 3.428 3.644 2 6.5-2.843 5.687-8.95.5-12 .5-2.004 0-5-5.378-5-7v-7c6.39 0 9.223 7 15 7Z"/><path fill="#C8CBCC" id="ec" d="M351 227h1l1-2c-1.747 0-2 .253-2 2Z"/><path fill="#99D2BD" id="OLF" d="m365 226-1 1 1-1ZM93 227l2 2-2-2Z"/><path fill="#C8CBCC" id="ec" d="m351 227-1 1 1-1Z"/><path fill="#8AD987" id="CTXsp" d="m341 234-4 5c7.071 0 10.183-8 17-8l-2-4h-1l-1 1-1 1c0 2.177-4.336 4-6 4l-2 1ZM116 235c1.712 0 3 2.571 3 4-6.67 0-9.487-8-16-8l2-3c3.502 0 7.048 7 11 7Z"/><path fill="#C8CBCC" id="ec" d="m350 228-1 1 1-1Z"/><path fill="#99D2BD" id="OLF" d="m362 228-1 1 1-1ZM96 229l1 1-1-1Z"/><path fill="#A2B1D7" id="SI" d="m128 265 3.5 4c3.307 3.307 6.196 6.098 10 8 8.492 4.246 16.992 0 25.5 0 0-2.727-9.492-3.485-11-6.5-2.142-4.283 16.661-10.5 19-10.5l4-1 1-1 5-4.5c2.061-4.122 3-7.452 3-12.5-.948 0-12-10.966-12-12-4.012 0-7.428 5-11 5l-1 1-1 1-1 1-5.5 6c-6.549 3.275-8.866 12-17.5 12 0 3.362-8.104 9-11 9v1ZM329 265l-3.5 4-10 8c-8.68 4.34-17.718 0-26.5 0 0-2.298 9.544-3.588 11-6.5 2.17-4.34-16.081-10.5-19-10.5l-5-2c0-.338-8-8.933-8-17 3.747 0 11.29-12 13-12 5.113 0 9.447 8 14 8 0 4.037 17.853 18 22 18 0 2.98 8.507 9 11 9l1 1Z"/><path fill="#C8CBCC" id="ec" d="M349 229c-1.417 0-6 2.383-6 4 1.664 0 6-1.823 6-4Z"/><path fill="#99D2BD" id="OLF" d="m360 229-1 1 1-1ZM98 230l1 1-1-1ZM359 230l-2 1 2-1ZM126 265h1l1-1 2-2.5c1.186-2.373-1.987-10.974-3-13-1.218-2.436-8-7.704-8-9.5-6.67 0-9.487-8-16-8h-3c0 2.341 2.342 1.421 3.5 2l13 8c7.999 3.999 9.5 15.287 9.5 24Z"/><path fill="#FF5346" id="MPO" d="M196 269c1.345 0 7-2.312 7 1 4.496 0 6.713-5 9-5 0-7.322-1.607-22 10-22h1l1-1c0-2.524 3.537-10-2-10-.68 0-9 9.917-9-1l-3 1-6 8-1 1-5 5-2 12c.676 0 4.932-5.216 6.5-6 1.679-.839 6.522 1.457 5.5 3.5-1.958 3.917-2.419 6.419-6 10-1.641 1.641-6-.212-6-2.5v-5c-.682 0-2 6.241-2 7l2 4ZM260 269l-4.5-1-2.5 2c-2.277 0-8-1.922-8-5 0-8.7-.169-22-11-22h-1l-1-1c0-2.842-3.016-10 3-10 0 5.866 9 4.265 9-1l3 1c0 1.622 2.996 7 5 7 0 1.518 5.08 7 6 7l3 13c-2.347 0-4.782-9.859-10.5-7-4.332 2.166.109 11.554 3 13 4.813 2.407 4.725-2 7.5-2l1 1v2l-2 3Z"/><path fill="#99D2BD" id="OLF" d="M329 265h2c0-6.107-.833-18.334 6.5-22 5.187-2.594 9.908-6.454 15-9l4.5-3h-3c-6.817 0-9.929 8-17 8l-7 8.5c-1.676 3.352-4 9.142-4 13l2 3.5 1 1Z"/><path fill="#C8CBCC" id="ec" d="M340 234h1l2-1c-1.048 0-3-.473-3 1Z"/><path fill="#97D6F9" id="STR" d="m165 234-1 1 1-1ZM164 235l-1 1 1-1ZM163 236l-1 1 1-1Z"/><path fill="#A8A9AA" id="V3" d="M230 269c0 1.579-2.855 1-4 1 0-8.596 1-18.739 1-28v-6h2v6c0 8.932 1 18.732 1 27Z"/><path fill="#F2473B" id="LPO" d="M181 259c4.873 0 8.492 6 13 6 0-.759 1.318-7 2-7l2-12c0-5.436-7.061-5-10-5 0 5.048-.939 8.378-3 12.5l-5 4.5 1 1Z"/><path fill="#E64438" id="HY" d="m204 240-1 1 1-1Z"/><path fill="#F2473B" id="LPO" d="m262 264 1 1c4.016 0 8.239-6 13-6v-1c0-.338-8-8.933-8-17-2.251 0-10-.364-10 5l3 13v4l1 1Z"/><path fill="#FE5446" id="AVPV" d="M213 275h3l2-1 2-1h1l2-1 2-1 1-1c0-8.596 1-18.739 1-28h-3l-1 1v1c0 4.521-3.678 23-10 23v8ZM232 271l11 4c4.429 0 0-6.51 0-8-6.12 0-9-18.174-9-23l-1-1-1-1h-3c0 8.932 1 18.732 1 27l2 2Z"/><path fill="#FD4C3E" id="MPN" d="m212 265 1 2c6.322 0 10-18.479 10-23l-1-1c-11.607 0-10 14.678-10 22Z"/><path fill="#E64438" id="HY" d="M223 243v1l-1-1h1ZM234 243v1l-1-1h1Z"/><path fill="#FD4C3E" id="MPN" d="m245 265-2 2c-6.12 0-9-18.174-9-23v-1c10.831 0 11 13.3 11 22Z"/><path fill="#FE5447" id="AVP" d="M196 258v5c0 2.288 4.359 4.141 6 2.5 3.581-3.581 4.042-6.083 6-10 1.022-2.043-3.821-4.339-5.5-3.5-1.568.784-5.824 6-6.5 6ZM261 259c-2.347 0-4.782-9.859-10.5-7-4.332 2.166.109 11.554 3 13 4.813 2.407 4.725-2 7.5-2v-4Z"/><path fill="#E64438" id="HY" d="M179 259h2l-1-1-1 1ZM281 260l-2 2-3-3v-1l5 2ZM175 260l2 1 2-2-4 1Z"/><path fill="#96A6D3" id="NDB" d="m193 279-1 1-10.5-1-4.5-4v-14l2-2h2c4.873 0 8.492 6 13 6l2 4c0 3.285-3 7.16-3 10ZM279 275c0 6.701-12.967 4-16 4l-3-10 2-3 1-1c4.016 0 8.239-6 13-6l3 3v13Z"/><path fill="#A2B1D8" id="MA" d="M167 277h6l4-2v-14l-2-1c-2.339 0-21.142 6.217-19 10.5 1.508 3.015 11 3.773 11 6.5ZM283 277h6c0-2.298 9.544-3.588 11-6.5 2.17-4.34-16.081-10.5-19-10.5l-2 2v13l4 2Z"/><path fill="#97D6F9" id="STR" d="M127 265h1v-1l-1 1Z"/><path fill="#CBCCCB" id="mfb" d="m263 265-1 1v-2l1 1Z"/><path fill="#7FCCF7" id="OT" d="m181 288-1 1c0 4.736-9.03 4.765-11.5 6-12.555 6.278-23.2 3.9-35-2-2.99-1.495-10.5-5.786-10.5-10l-1-1v-1l-2-6v-1c0-2.312 2.847-9 6-9h2l3.5 4c3.307 3.307 6.196 6.098 10 8 8.492 4.246 16.992 0 25.5 0h6c5.641 0 8 4.866 8 10v1Z"/><path fill="#E64438" id="HY" d="M213 275c0 1.794-6.51 4-8 4 0-3.423-2-6.474-2-9 4.496 0 6.713-5 9-5l1 2v8ZM243 275l8 4c0-3.638 2-5.929 2-9-2.277 0-8-1.922-8-5l-2 2c0 1.49 4.429 8 0 8Z"/><path fill="#7FCCF7" id="OT" d="M334 282c0 4.122-5.41 7.455-8.5 9-12.281 6.141-20.593 12.203-35 5-3.571-1.785-14.5-2.226-14.5-8 0-4.29-.271-11 7-11h6c8.782 0 17.82 4.34 26.5 0l10-8 3.5-4h2c2.268 0 6 8.031 6 10v1c-1.638 0-2 3.576-2 5l-1 1Z"/><path fill="#CAC8C7" id="lot" d="M118 279v1c-1.317 0-1.788 3.356-4.5 2-5.364-2.682-18.5-8.703-18.5-16 5.894 0 14.697 10 22 10 0 1.048-.473 3 1 3ZM339 278v2c0 3.122 5.121 1.689 6.5 1 3.797-1.898 15.5-8.567 15.5-14 0-1.961-2.722-.389-3.5 0-6.004 3.002-11.358 9-18.5 9v2Z"/><path fill="#FE5546" id="VLPO" d="M205 279c0 1.577-1.762 2-3 2 0-.792-7.987-2-9-2 0-2.84 3-6.715 3-10 1.345 0 7-2.312 7 1 0 2.526 2 5.577 2 9ZM263 279c-.892 0-9 1.305-9 2l-3-2c0-3.638 2-5.929 2-9l2.5-2 4.5 1 3 10Z"/><path fill="#CAC7CB" id="fiber tracts" d="M223 272h4l-2-1-2 1Z"/><path fill="#CAC7CB" id="fiber tracts" d="M202 281c0 1.708-3 4.229-3 5.5l2.5.5c3.92 1.96 8.845 3 13.5 3l11.5 1 2-3 1 3 23-2c4.196-2.098 4.38-1.74 2.5-5.5-.459-.919.765-2.5-1-2.5l-3-2-8-4-11-4c-1.048 0-3-.473-3 1 5.53 0 8.953 2.726 13.5 5 2.692 1.346 10.025 3.551 11.5 6.5 1.661 3.322-5.538 4.5-7.5 4.5H215c-4.112 0-10.86.78-13-3.5l3-3c1.822-1.822 11-3.401 11-6.5h-3c0 1.794-6.51 4-8 4 0 1.577-1.762 2-3 2ZM223 272l-2 1 2-1Z"/><path fill="#CBCACC" id="och" d="m218 274-2 1c0 3.099-9.178 4.678-11 6.5l-3 3c2.14 4.28 8.888 3.5 13 3.5h31.5c1.962 0 9.161-1.178 7.5-4.5-1.475-2.949-8.808-5.154-11.5-6.5-4.547-2.274-7.97-5-13.5-5 0 1.93-1.161 0-2 0h-4l-2 1h-1l-2 1Z"/><path fill="#CAC7CB" id="fiber tracts" d="m220 273-2 1 2-1Z"/><path fill="#99D2BD" id="OLF" d="M119 275h1v-1l-1 1Z"/><path fill="#CAC7CB" id="fiber tracts" d="m218 274-2 1 2-1Z"/><path fill="#99D2BD" id="OLF" d="M117 276c0 1.048-.473 3 1 3l1-4-2 1Z"/><path fill="#97D6F9" id="STR" d="m118 280 4 1-2-6h-1l-1 4v1Z"/><path fill="#8599CC" id="PAL" d="M192 280c0 2.761-8.791 7-11 7 0-5.134-2.359-10-8-10l4-2 4.5 4 10.5 1ZM263 279c0 2.454 10.934 9 13 9 0-4.29-.271-11 7-11l-4-2c0 6.701-12.967 4-16 4Z"/><path fill="#99D2BD" id="OLF" d="M339 276v2l-2-2v-1l2 1Z"/><path fill="#97D6F9" id="STR" d="m339 280-4 1c0-1.424.362-5 2-5l2 2v2Z"/><path fill="#8599CC" id="PAL" d="m193 279-1 1 1-1Z"/><path fill="#97D6F9" id="STR" d="m335 281-1 1 1-1ZM122 282l1 1-1-1Z"/><path fill="#8599CC" id="PAL" d="m181 288-1 1 1-1Z"/></svg>