<svg xmlns="http://www.w3.org/2000/svg" viewBox="0 0 456 320"><path fill="#99D2BD" id="OLF" d="M182 203c0-11.737 2.302-6.103 6-13.5l1-10 6-6c2.551-5.102-.485-13.03 2-18 5.271-10.541 12.887-18.225 20-4l6 5c1.553 3.105-1 8.364-1 11 0 6.441-.661 25.321-3 30l-4 11.5c6.114 0 6.051-10 11-10 0-12.762 1-27.073 1-40.5v-15c-1.363-2.725-2-9.526-2-12.5-1.186 0-1.186-1 0-1 0-3.635-11.044-7.772-13.5-9-12.659-6.33-23.533 2.766-34 8-2.336 1.168-11.5 6.528-11.5 10 2.069 0 1 14.89 1 19 0 12.42 4.862 22.224 10 32.5.888 1.775 3.093 12.5 5 12.5ZM275 201c0-6.689-4.515-7.531-7-12.5-1.257-2.515.305-6.391-1-9l-6-7c-3.586-7.172.616-37.058-18.5-27.5l-3.5 6.5-6 6c-1.093 2.186.897 13.793 2 16v10c.708 1.415 6 24.156 6 25.5-5.801 0-5.336-10-11-10 0-22.636 1-46.012 1-68 1.186 0 1.186-1 0-1 0-2.746 11.304-7.902 13.5-9 12.853-6.426 24.386 2.693 35 8 2.276 1.138 11.5 6.715 11.5 10-3.493 0-2 12.223-2 15.5 0 15.074-3.844 24.688-10 37-.853 1.706-1.49 9.5-4 9.5Z"/><path fill="#C7CBCA" id="onl" d="M225 130c-1.186 0-1.186 1 0 1v-1ZM231 130c1.186 0 1.186 1 0 1v-1Z"/><path fill="#99D2BD" id="OLF" d="m166 139-1 1 1-1Z"/><path fill="#C7CBCA" id="onl" d="m215 209-1 1c0 5.854-14.858 14.821-20.5 12-5.851-2.926-11.5-12.066-11.5-19-1.907 0-4.112-10.725-5-12.5-5.138-10.276-10-20.08-10-32.5 0-4.11 1.069-19-1-19l-1 1-1 2-1 1v1l-1 2v1l-1 2v37.5c3.326 6.652 4 16.595 4 24.5 0 43.414 48.831 21.838 61-2.5 1.403-2.807 0-7.111 0-9.5-4.949 0-4.886 10-11 10ZM242 210l1 1c0 3.94 14.819 13.34 19.5 11 6.659-3.33 11.5-11.364 11.5-19l1-2c2.51 0 3.147-7.794 4-9.5 6.156-12.312 10-21.926 10-37 0-3.277-1.493-15.5 2-15.5v1l4 8v2c0 1.406-.714 7 1 7v23c-2.308 0-.257 7.013-1 8.5-3.056 6.112-4 16.341-4 23.5 0 45.44-61 17.56-61-13 5.664 0 5.199 10 11 10l1 1Z"/><path fill="#99D2BD" id="OLF" d="m165 140-1 2 1-2ZM291 140c2.447 0 4 6.063 4 8l-4-8ZM164 142l-1 1 1-1ZM163 144l-1 2 1-2Z"/><path fill="#9AD1BD" id="MOB" d="m215 209-1 1c0 5.854-14.858 14.821-20.5 12-5.851-2.926-11.5-12.066-11.5-19 0-11.737 2.302-6.103 6-13.5l1-10 6-6c2.551-5.102-.485-13.03 2-18 5.271-10.541 12.887-18.225 20-4l6 5c1.553 3.105-1 8.364-1 11 0 6.441-.661 25.321-3 30l-4 11.5ZM242 210l1 1c0 3.94 14.819 13.34 19.5 11 6.659-3.33 11.5-11.364 11.5-19l1-2c0-6.689-4.515-7.531-7-12.5-1.257-2.515.305-6.391-1-9l-6-7c-3.586-7.172.616-37.058-18.5-27.5l-3.5 6.5-6 6c-1.093 2.186.897 13.793 2 16v10c.708 1.415 6 24.156 6 25.5l1 1Z"/><path fill="#99D2BD" id="OLF" d="m162 147-1 2 1-2ZM295 150c1.714 0 1 5.594 1 7-1.714 0-1-5.594-1-7ZM161 153c-1.665 0-1 4.222-1 5.5V177l-1 31.5 6 2.5c0-7.905-.674-17.848-4-24.5V153ZM296 158c1.579 0 1 2.855 1 4v13.5c0 1.19.614 4.5-1 4.5v-22ZM296 180c-2.308 0-.257 7.013-1 8.5-3.056 6.112-4 16.341-4 23.5 10.021 0 5-25.152 5-32ZM275 201l-1 2 1-2ZM215 209l-1 1 1-1ZM242 210l1 1-1-1Z"/></svg>