<svg xmlns="http://www.w3.org/2000/svg" viewBox="0 0 456 320"><path fill="#1E9D5A" id="MOp1" d="m155 35-1 6c12.902 0 25.646-7 39-7v-5c-4.561 0-29.665 2.583-32.5 4l-5.5 2Z"/><path fill="#1E9C59" id="MOs1" d="M222 48h1l4-2c0-2.859-2.849-3.197-4-5.5-5.038-10.077-17.412-11.5-30-11.5v5c8.928 0 29 1.718 29 14ZM229 46l5 2c0-11.796 20.257-14 29-14v-5c-13.345 0-19.935 1.435-29.5 11l-4.5 6Z"/><path fill="#1E9D5A" id="MOp1" d="M302 41h1c0-1.714-2-3.482-2-6-3.685 0-11.138-2.32-14.5-4-1.507-.753-20.635-2-23.5-2v5c13.446 0 26.086 7 39 7Z"/><path fill="#1F9C58" id="MOp2/3" d="M152 57v7c3.989 0 8.034-5.267 11.5-7 6.078-3.04 20.976-11 27.5-11 0-4.246 2-7.473 2-12-13.354 0-26.098 7-39 7l-2 16Z"/><path fill="#1E9D58" id="MOs2/3" d="m222 48-6 4c0-2.224-2.386-2.272-3-3.5-3.931-7.861-15.78-2.5-22-2.5 0-4.246 2-7.473 2-12 8.928 0 29 1.718 29 14ZM240 52h1c0-11.804 18.866-6 24-6 0-4.364-2-8.259-2-12-8.743 0-29 2.204-29 14v1l6 3Z"/><path fill="#1F9C58" id="MOp2/3" d="m304 57 1 7c-6.621 0-28.385-18-39-18h-1c0-4.364-2-8.259-2-12 13.446 0 26.086 7 39 7 0 4.867 2 12.291 2 16Z"/><path fill="#187F60" id="SSp-ll1" d="m154 41-11 3-2-5c4.424 0 9.011-4 14-4l-1 6ZM313 45h1l1-6c0-1.895-11.894-4-14-4 0 2.518 2 4.286 2 6 1.368 0 10 2.74 10 4Z"/><path fill="#197E64" id="SSp-ul1" d="M106 62h1l7-4.5c4.293-4.293 22.799-12.5 29-12.5v-1l-2-5c-9.158 0-19.614 8.057-27.5 12l-9.5 5 2 6ZM350 62h1c0-1.622-.461-5 2-5 0-2.465-7.725-5.113-9.5-6-7.449-3.724-20.094-12-28.5-12l-1 6c9.449 0 19.448 7.974 27.5 12 1.555.778 8.5 3.004 8.5 5Z"/><path fill="#187F64" id="SSp-ll2/3" d="M146 59h1l5-2 2-16-11 3v1l3 14ZM304 57l6 2c0-5.336 3-8.68 3-14 0-1.26-8.632-4-10-4h-1c0 4.867 2 12.291 2 16Z"/><path fill="#1F9D58" id="MOs5" d="M203 63h1c4.02 0 6.198-10 12-10v-1c0-2.224-2.386-2.272-3-3.5-3.931-7.861-15.78-2.5-22-2.5 0 5.742-4 10.951-4 17 1.205 0 16-6.733 16 0ZM252 63h1c0-5.595 13.793-1 16-1 0-5.977-3-10.12-3-16h-1c-5.134 0-24-5.804-24 6l11 11Z"/><path fill="#197F61" id="SSp-ul2/3" d="M111 74h1c3.881 0 26.015-15 34-15l-3-14c-6.201 0-24.707 8.207-29 12.5l-7 4.5c0 4.704 4 7.296 4 12ZM350 62l-5 12c-3.966 0-26.46-15-35-15 0-5.336 3-8.68 3-14h1c9.449 0 19.448 7.974 27.5 12 1.555.778 8.5 3.004 8.5 5Z"/><path fill="#1E9C5A" id="MOp5" d="M151 73v7c8.494 0 32.239-17 35-17h1c0-6.049 4-11.258 4-17-6.524 0-21.422 7.96-27.5 11-3.466 1.733-7.511 7-11.5 7 0 3.618-1 5.829-1 9Z"/><path fill="#3EA665" id="ACAd1" d="M223 73h10V54.5c0-1.278-.665-5.5 1-5.5v-1l-5-2c0 1.93-1.161 0-2 0l-4 2v25Z"/><path fill="#1E9C5A" id="MOp5" d="M305 75v5c-8.763 0-30.882-17-35-17l-1-1c0-5.977-3-10.12-3-16 10.615 0 32.379 18 39 18v11Z"/><path fill="#40A565" id="ACAd2/3" d="m223 73-5 1-1-16c0-1.234.643-5-1-5v-1l6-4h1v25ZM233 73c2.124 0 4.436 1 6 1 0-7.293 1-15.359 1-22l-6-3c-1.665 0-1 4.222-1 5.5V73Z"/><path fill="#3EA566" id="ACAd5" d="m239 74 12 6 1-17-11-11h-1c0 6.641-1 14.707-1 22ZM218 74c-5.026 0-8.321 6-12 6 0-4.911-2-12.053-2-17 4.02 0 6.198-10 12-10 1.643 0 1 3.766 1 5l1 16Z"/><path fill="#1B8062" id="SSp-un1" d="M92 64c0 2.666 3 2.482 3 5 3.452 0 6.818-7 11-7l-2-6-12 8Z"/><path fill="#1C7F64" id="SSp-ll4" d="m152 64-4 2-1-7 5-2v7ZM305 65l3 1 2-7-6-2 1 7v1Z"/><path fill="#1B8062" id="SSp-un1" d="M364 64c0 1.076-1.523 5-3 5l-10-7c0-1.622-.461-5 2-5 1.975 0 11 5.281 11 7Z"/><path fill="#1A7F63" id="SSp-ul4" d="m112 74 3 8 33-16-1-7h-1c-7.985 0-30.119 15-34 15ZM345 75l-4 6c-8.696 0-24.785-15-33-15l2-7c8.54 0 31.034 15 35 15v1Z"/><path fill="#1D9C5A" id="MOs6a" d="M185 85h2c0-.672 4.329-2 5-2 1.55 0 2.364-6.228 3-7.5 1.824-3.648 8-8.353 8-12.5 0-6.733-14.795 0-16 0h-1c0 8.085-1 15.18-1 22ZM264 84l7 1c0-2.454 2.489-7.523 1-10.5-1.369-2.738-2-8.42-2-11.5l-1-1c-2.207 0-16-4.595-16 1 0 4.342 11 13.697 11 21Z"/><path fill="#1C7F63" id="SSp-un2/3" d="M111 74c0 1.34-8.491 6-10 6l-2-1.5c0-2.409-4-5.392-4-8.5v-1c3.452 0 6.818-7 11-7h1c0 4.704 4 7.296 4 12ZM345 75l11 5 5-10v-1l-10-7h-1l-5 12v1Z"/><path fill="#1F9B5A" id="MOp6a" d="M152 99h2c0-1.638 3.576-2 5-2 0-2.623 7.828-4 10-4l4-2c0-1.817 7.169-4 9-4l3-2c0-6.82 1-13.915 1-22-2.761 0-26.506 17-35 17v19h1Z"/><path fill="#3FA664" id="ACAd6a" d="M192 84c1.562 0 5 2.189 5 4 3.398 0 5.13-7 9-7v-1c0-4.911-2-12.053-2-17h-1c0 4.147-6.176 8.852-8 12.5-.636 1.272-1.45 7.5-3 7.5v1ZM259 88h1l1-1c0-1.747.253-2 2-2l1-1c0-7.303-11-16.658-11-21h-1l-1 17v1c1.668 0 8 6.132 8 7Z"/><path fill="#1F9B5A" id="MOp6a" d="M271 85c8.163 0 24.895 14 34 14V80c-8.763 0-30.882-17-35-17 0 3.08.631 8.762 2 11.5 1.489 2.977-1 8.046-1 10.5Z"/><path fill="#197E63" id="SSp-n1" d="M59 114h1c0-8.864 16.821-32.66 25.5-37 2.903-1.452 5.008-7 9.5-7v-1c0-2.518-3-2.334-3-5-4.375 0-7.725 7.113-11.5 9-8.408 4.204-28.5 35.734-28.5 44 3.047 0 4.462-3 7-3Z"/><path fill="#197C63" id="SSp-ll5" d="M148 66c0 .978 2.267 7 3 7 0-3.171 1-5.382 1-9l-4 2Z"/><path fill="#197E63" id="SSp-n1" d="m397 114 7 3c0-11.164-17.343-33.843-25.5-42-2.995-2.996-10.409-11-14.5-11 0 1.076-1.523 5-3 5v1c4.615 0 9.209 5.71 12.5 9 7.097 7.097 23.5 26.073 23.5 35Z"/><path fill="#197C63" id="SSp-ll5" d="M308 66c0 1.378-1.769 9-3 9V65l3 1Z"/><path fill="#187E62" id="SSp-ul5" d="M120 93h1c4.288 0 20.666-12 30-12v-8c-.733 0-3-6.022-3-7l-33 16v1c1.418 0 5 8.053 5 10ZM341 82l-5 11c-6.069 0-22.746-13-31-13v-5c1.231 0 3-7.622 3-9 8.215 0 24.304 15 33 15v1Z"/><path fill="#1B7F64" id="SSp-n2/3" d="M73 107c-6.346 0-7.135 7-13 7 0-8.864 16.821-32.66 25.5-37 2.903-1.452 5.008-7 9.5-7 0 3.108 4 6.091 4 8.5l2 1.5v1c-6.785 0-26 17.013-26 24l-1 1-1 1ZM383 107c5.174 0 9.336 7 14 7 0-8.927-16.403-27.903-23.5-35-3.291-3.29-7.885-9-12.5-9l-5 10v1c7.114 0 27 19.721 27 26Z"/><path fill="#3FA566" id="ACAv2/3" d="m221 106-3 1V74l5-1c0 10.42-1 21.17-1 31l-1 2Z"/><path fill="#40A664" id="ACAv1" d="M229 99c2.832 0 2.953 5 5 5 0-10.047-1-20.446-1-31h-10c0 10.42-1 21.17-1 31l5-5c0-3.15 2-3.446 2 0Z"/><path fill="#3FA566" id="ACAv2/3" d="m235 106 3 1c0-10.562 1-21.872 1-33-1.564 0-3.876-1-6-1 0 10.554 1 20.953 1 31l1 2Z"/><path fill="#197E61" id="SSp-un4" d="m107 87-3 1-3-7v-1c1.509 0 10-4.66 10-6h1l3 8v1c-1.7 0-8 2.46-8 4Z"/><path fill="#3EA666" id="ACAv5" d="M210 104c0 1.802 6.346 3 8 3V74c-5.026 0-8.321 6-12 6v1l1 15.5c1.035 2.069 3 5.13 3 7.5ZM247 104c0 1.408-7.407 3-9 3 0-10.562 1-21.872 1-33l12 6v1c0 7.661-4 15.568-4 23Z"/><path fill="#197E61" id="SSp-un4" d="M351 88h1l4-7v-1l-11-5-4 6v1c1.509 0 10 4.66 10 6Z"/><path fill="#197D61" id="SSp-ul6a" d="M328 109h1c0-1.465-.109-4 2-4 0-1.465-.109-4 2-4 0-3.238 3-5.3 3-8-6.069 0-22.746-13-31-13v19c6.282 0 17.476 10 23 10Z"/><path fill="#1A8062" id="SSp-n4" d="M88 102c-5.552 0-7.997 3-13 3 0-6.987 19.215-24 26-24l3 7v1c-2.655 0-14 7.63-14 11l-1 1-1 1Z"/><path fill="#197D61" id="SSp-ul6a" d="M129 109h1c0-2.109 2.535-2 4-2l4-2c0-1.638 3.576-2 5-2l8-4V81c-9.334 0-25.712 12-30 12 0 4.841 5 8.308 5 13l2 3h1Z"/><path fill="#40A564" id="ACAv6a" d="M209 104h1c0-2.37-1.965-5.431-3-7.5L206 81c-3.87 0-5.602 7-9 7v1c0 5.375 10 8.243 10 13l2 2ZM247 104h1l1-1v-1l10-11v-3c0-.868-6.332-7-8-7 0 7.661-4 15.568-4 23Z"/><path fill="#1A8062" id="SSp-n4" d="M367 100c7.196 0 9.554 7 16 7 0-6.279-19.886-26-27-26l-4 7v1c3.764 0 13 6.94 13 10l1 1h1Z"/><path fill="#197D62" id="SSp-un5" d="M338 94h1c0-6.481 9.213-5 12-5v-1c0-1.34-8.491-6-10-6l-5 11 2 1ZM118 94h1l1-1c0-1.947-3.582-10-5-10-1.7 0-8 2.46-8 4 2.54 0 11 3.4 11 7Z"/><path fill="#1E9C58" id="MOs6b" d="M187 85h5v-2c-.671 0-5 1.328-5 2Z"/><path fill="#3FA466" id="ACAd6b" d="M196 89h1v-1c0-1.811-3.438-4-5-4v1l4 4ZM263 85h1v-1l-1 1Z"/><path fill="#1E9C58" id="MOs6b" d="M271 85v1l-7-1v-1l7 1Z"/><path fill="#1D9D5A" id="MOp6b" d="M185 86c0 1.473-1.952 1-3 1l3-2v1Z"/><path fill="#1E9C58" id="MOs6b" d="m187 85-2 1v-1h2Z"/><path fill="#CACCC7" id="cing" d="m207 102 2 2c-8.872 0-13.142-10.32-20.5-14-5.781-2.89-13.068 5-18.5 5l-1 1h-5l5-3c1.465 0 4 .109 4-2 2.097 0 9-1.533 9-4 1.048 0 3 .473 3-1l2-1h5l4 4c0 3.278 7.309 13 11 13Z"/><path fill="#3FA466" id="ACAd6b" d="M263 85c-1.747 0-2 .253-2 2l2-2Z"/><path fill="#CACCC7" id="cing" d="M249 102v1c9.243 0 11.149-9.325 18.5-13 5.862-2.93 13.854 5 19.5 5 1.564 0 3.876 1 6 1 0-1.15-4.516-1.508-5.5-2-3.392-1.696-10.475-3.475-13-6l-3.5-2-7-1h-1l-2 2-1 2-1 2c0 3.309-6.414 11-10 11Z"/><path fill="#1D9D5A" id="MOp6b" d="M305 99v2c-3.605 0-8.174-5-12-5 0-1.15-4.516-1.508-5.5-2-3.392-1.696-10.475-3.475-13-6l-3.5-2v-1c8.163 0 24.895 14 34 14Z"/><path fill="#197D62" id="SSp-un5" d="M104 89h1c1.747 0 2-.253 2-2l-3 1v1Z"/><path fill="#1B7E63" id="SSp-m5" d="M79 140h1c0-2.772 1.833-5.167 3-7.5 7.738-15.477 7.758-23.629 25.5-32.5 2.847-1.424 6.254-6 9.5-6 0-3.6-8.46-7-11-7 0 1.747-.253 2-2 2 0 2.58-2 1.082-2 1.5v5l-3.5.5c-3.131 1.566-5.743 4-9.5 4l-1 1-1 1c0 4.251-18 22.817-18 32 0 3.4 9 3.254 9 6Z"/><path fill="#1D9D5A" id="MOp6b" d="M182 87c-1.831 0-9 2.183-9 4 2.097 0 9-1.533 9-4Z"/><path fill="#3FA466" id="ACAd6b" d="M260 88v1l1-2-1 1Z"/><path fill="#40A465" id="ACAv6b" d="m260 89-1 2v-3h1v1Z"/><path fill="#1B7E63" id="SSp-m5" d="m387 135-10 5c0-6.977-13.368-31.434-20.5-35L339 94c0-6.481 9.213-5 12-5 0 6.762 8.985 10 14 10l1 1 2 2c0 .248 10.011 13.521 11 15.5l8 15.5v2ZM351 89h1v-1h-1v1Z"/><path fill="#197E62" id="SSp-n5" d="M105 89c0 2.58-2 1.082-2 1.5v5l-3.5.5c-3.131 1.566-5.743 4-9.5 4 0-3.37 11.345-11 14-11h1Z"/><path fill="#40A465" id="ACAv6b" d="M197 89c0 5.375 10 8.243 10 13-3.691 0-11-9.722-11-13h1Z"/><path fill="#197E62" id="SSp-n5" fill-rule="evenodd" d="M352 90c0 1.93 1.93 0 0 0m0-1c3.764 0 13 6.94 13 10-5.015 0-14-3.238-14-10h1Z"/><path fill="#C9C7C9" id="ccb" d="M91 162v3c3.013 0 4.917-11.334 6-13.5 5.322-10.643 14.724-17.448 20-28 1.78-3.559 9.737-6.618 13.5-8.5 17.056-8.528 24.357-9 43.5-9 0-12.328 28 1.06 28 5l2 2c6.814 0 13.889 4 18 4h12c4.383 0 11.497-4 18-4l1-1 1-1c0-3.457 28-17.788 28-5 3.85 0 12.274-3.113 16.5-1 12.209 6.104 35.308 7.116 42.5 21.5l4 3 14 21 3.5 9.5 4.5 9c0-4.641-4-8.272-4-13l-1-1v-1l-1-2v-1l-6-11.5c-4.776-9.552-15.071-21.786-24.5-26.5-11.301-5.65-23.721-8.361-35-14-1.642-.821-8.5-1.379-8.5-4-5.646 0-13.638-7.93-19.5-5-7.351 3.675-9.257 13-18.5 13l-1 1h-1c0 1.408-7.407 3-9 3l-3-1c0 1.446-14 1.569-14 0l-3 1c-1.654 0-8-1.198-8-3h-1c-8.872 0-13.142-10.32-20.5-14-5.781-2.89-13.068 5-18.5 5l-1 1h-1l-8.5 4c-4.375 2.187-26.576 11-30.5 11 0 1.617-4.583 4-6 4 0 1.577-1.762 2-3 2l-1 1c0 1.712-2.571 3-4 3 0 2.409-10.296 14.092-12 17.5l-4 4.5c0 1.465.109 4-2 4 0 1.424-.362 5-2 5v1l-1 2-2 6-1 1Z"/><path fill="#1B7E63" id="SSp-m5" d="M352 90c0 1.93 1.93 0 0 0Z"/><path fill="#1D9D5A" id="MOp6b" d="m173 91-4 2c1.465 0 4 .109 4-2Z"/><path fill="#40A465" id="ACAv6b" d="m259 91-10 11c3.586 0 10-7.691 10-11Z"/><path fill="#1A7F61" id="SSp-un6a" d="M119 94c0 1.885 5.317 12 7 12 0-4.692-5-8.159-5-13h-1l-1 1Z"/><path fill="#1D9D5A" id="MOp6b" d="m164 96-5 1c0-2.623 7.828-4 10-4l-5 3Z"/><path fill="#1A7F61" id="SSp-un6a" d="M338 94c0 1.294-3.609 7-5 7 0-3.238 3-5.3 3-8l2 1Z"/><path fill="#187D61" id="SSp-m6a" d="m80 140 3.5 2c1.923 1.923 9.198 6 11.5 6 0-3.453 6.962-17 10-17 0-3.592 14.556-18 18-18 0-1.577 1.762-2 3-2l2-2-2-3c-1.683 0-7-10.115-7-12h-1c-3.246 0-6.653 4.576-9.5 6-17.742 8.871-17.762 17.023-25.5 32.5-1.167 2.333-3 4.728-3 7.5ZM377 140c-4.968 0-9.596 8-15 8 0-4.571-16.284-27.392-19.5-29L329 109c0-1.465-.109-4 2-4l2-4c1.391 0 5-5.706 5-7h1l17.5 11c7.132 3.566 20.5 28.023 20.5 35Z"/><path fill="#C9C9CA" id="scwm" d="m170 95-1 1 1-1ZM361 148v3l-6-11.5c-4.776-9.552-15.071-21.786-24.5-26.5-11.301-5.65-23.721-8.361-35-14-1.642-.821-8.5-1.379-8.5-4 1.564 0 3.876 1 6 1 3.826 0 8.395 5 12 5 6.863 0 18.956 10 23 10 5.63 0 22.962 18.424 25 22.5.908 1.815 6.771 14.5 8 14.5ZM129 110v1c3.924 0 26.125-8.813 30.5-11l8.5-4h-4l-5 1c0 1.638-3.576 2-5 2l-2 2c-3.489 0-5.32 2-9 2 0 2.461-3.378 2-5 2 0 2.109-2.535 2-4 2 0 2.109-2.535 2-4 2l-1 1Z"/><path fill="#1D9D5A" id="MOp6b" d="M159 97c-1.424 0-5 .362-5 2 1.424 0 5-.362 5-2Z"/><path fill="#1C8064" id="SSp-ul6b" d="M152 101c-3.489 0-5.32 2-9 2l8-4h1v2Z"/><path fill="#1D9D5A" id="MOp6b" d="m154 99-2 2v-2h2Z"/><path fill="#7ED04B" id="IG" d="M221 106c0 1.569 14 1.446 14 0l-1-2c-2.047 0-2.168-5-5-5 0 1.399-2 1.399-2 0l-5 5-1 2Z"/><path fill="#1C8064" id="SSp-ul6b" d="M328 109v2c-4.044 0-16.137-10-23-10v-2c6.282 0 17.476 10 23 10Z"/><path fill="#197E62" id="SSp-n5" d="m90 100-1 1 1-1ZM367 100l1 2-2-2h1Z"/><path fill="#1B7F62" id="SSp-m4" d="m392 131-5 2-8-15.5c-.989-1.979-11-15.252-11-15.5l-1-2c7.196 0 9.554 7 16 7 0 6.434 9 16.785 9 24Z"/><path fill="#AAA8A9" id="SEZ" d="m179 109-1-4.5c3.43-6.86 20.22 6.5 24 6.5 0-3.94-28-17.328-28-5l5 3ZM279 107c0-11.34-21.797 4-25 4 0-3.457 28-17.788 28-5l-3 1Z"/><path fill="#1A7F61" id="SSp-un6a" d="M333 101c-2.109 0-2 2.535-2 4l2-4Z"/><path fill="#1B7F62" id="SSp-m4" d="M69 134h1c0-9.183 18-27.749 18-32-5.552 0-7.997 3-13 3l-1 1-1 1c0 7.117-8 15.629-8 24l4 3Z"/><path fill="#1C8064" id="SSp-ul6b" d="M143 103c-1.424 0-5 .362-5 2 1.622 0 5 .461 5-2Z"/><path fill="#A8AAAA" id="VL" d="M191 180h1v-9c0-1.906-1.099-6.698-2-8.5-2.265-4.531 1-13.118 1-17.5v-1c0-8.01 2.716-13.932 6-20.5l7-10.5-2-2c-3.78 0-20.57-13.36-24-6.5l1 4.5 9 18.5c3.826 7.653 1 23.572 1 32.5 0 6.216 1 12.292 1 18l1 2Z"/><path fill="#CACCC7" id="cing" d="m249 103-1 1 1-1Z"/><path fill="#A8AAAA" id="VL" d="M264 180h2l1-3c0-2.158-.801-16 1-16 0-10.464-3.85-25.8 1-35.5 2.354-4.708 9-12.173 9-17.5l1-1c0-11.34-21.797 4-25 4l-1 1-1 1 3 5.5c3.905 7.81 11 14.16 11 23.5v5c0 8.099-1 16.484-1 24 0 3.222-1 6.277-1 9Z"/><path fill="#1A8062" id="SSp-n4" d="m75 105-1 1 1-1Z"/><path fill="#1C8064" id="SSp-ul6b" d="m138 105-4 2c1.465 0 4 .109 4-2Z"/><path fill="#98D5F9" id="CP" d="m101 223 8.5 8 7.5 4c12.344 0 24.454-1.477 35.5-7 3.225-1.613 13.215-11 15.5-11l1-1 1-1h1l1-1 1-1c0-2.128 1.054-5.608 2-7.5 3.039-6.079-1.615-27.771 2-35 2.012-4.025 4.716-2.108 7.5-3.5 2.114-1.057 3.346-7 4.5-7 0-8.928 2.826-24.847-1-32.5l-9-18.5-5-3c-19.143 0-26.444.472-43.5 9-3.763 1.882-11.72 4.941-13.5 8.5-5.276 10.552-14.678 17.357-20 28-1.083 2.166-2.987 13.5-6 13.5 0 1.048.473 3-1 3v1l-1 1v16.5c2.004 4.008 4 10.869 4 15.5v1c1.26 0 4 8.632 4 10v2l1 1v1l1 1v1l2 3v1ZM353 226c-4.165 0-8.197 8-13 8-1.698 0-5.89 1.195-7.5 2-1.833.917-15.913-3.957-18-5h-5c-5.561-2.78-11.138-7.569-16-10l-4.5-4h-1l-2-2-1-1-2-1.5c-1.888-3.776-.094-9.187-2-13-3.263-6.526 1.704-22.592-2-30-1.971-3.941-4.758-1.129-7.5-2.5l-3.5-6c0-10.464-3.85-25.8 1-35.5 2.354-4.708 9-12.173 9-17.5l1-1 3-1c3.85 0 12.274-3.113 16.5-1 12.209 6.104 35.308 7.116 42.5 21.5l4 3 14 21 3.5 9.5 4.5 9v19.5c-1.436 2.872-2 4.966-2 8.5-1.579 0-1 2.855-1 4l-1 2v1c-1.995 0-2 4.377-2 6l-1 2v1l-1 1v2l-1 1v1l-1 1v1l-1 1-1 2-1 1v1l-1 1Z"/><path fill="#1A7E64" id="SSp-m2/3" d="M64 131h1c0-8.371 8-16.883 8-24-6.346 0-7.135 7-13 7h-1l-3 11 8 6Z"/><path fill="#1C8064" id="SSp-ul6b" d="M134 107c-1.465 0-4-.109-4 2 1.465 0 4 .109 4-2Z"/><path fill="#AAA8A9" id="SEZ" d="m279 107-1 1 1-1Z"/><path fill="#1A7E64" id="SSp-m2/3" fill-rule="evenodd" d="M389 110c0 1.93 1.93 0 0 0m3 21h1c0-1.579 6.722-6 8-6v-1l-4-10c-4.664 0-8.826-7-14-7 0 6.434 9 16.785 9 24Z"/><path fill="#188064" id="SSp-m6b" d="M126 111h3v-2h-1l-2 2Z"/><path fill="#1C8064" id="SSp-ul6b" d="m130 109-1 1v-1h1Z"/><path fill="#188064" id="SSp-m6b" d="M361 148h1c0-4.571-16.284-27.392-19.5-29L329 109h-1v2c5.63 0 22.962 18.424 25 22.5.908 1.815 6.771 14.5 8 14.5Z"/><path fill="#1B7F64" id="SSp-n2/3" d="M389 110c0 1.93 1.93 0 0 0Z"/><path fill="#188064" id="SSp-m6b" d="M126 111c-1.238 0-3 .423-3 2 1.238 0 3-.423 3-2Z"/><path fill="#C9C9CA" id="scwm" d="M123 113v2c1.417 0 6-2.383 6-4h-3c0 1.577-1.762 2-3 2Z"/><path fill="#AAA8A9" id="SEZ" d="m254 111-1 1 1-1Z"/><path fill="#90CBEC" id="LSc" d="M191 144h2l7.5-7c3.518-1.759 21.5-14.894 21.5-18v-2c-4.111 0-11.186-4-18-4l-7 10.5c-3.284 6.568-6 12.49-6 20.5ZM266 142l-2 2c-2.863 0-6.449-4.949-8.5-7-3.662-3.662-21.5-13.425-21.5-19v-1c4.383 0 11.497-4 18-4l3 5.5c3.905 7.81 11 14.16 11 23.5Z"/><path fill="#188064" id="SSp-m6b" d="m115 121-10 10c0-3.592 14.556-18 18-18v2c-1.238 0-3 .423-3 2l-1 1c-1.429 0-4 1.288-4 3Z"/><path fill="#187E61" id="SSp-m1" d="M55 125h1l3-11c-2.538 0-3.953 3-7 3l-1 4 4 4ZM406 121c-1.947 0-2.636 3-5 3l-4-10 7 3 2 4Z"/><path fill="#C9C9CA" id="scwm" d="M123 115c-1.238 0-3 .423-3 2 1.238 0 3-.423 3-2ZM120 117l-1 1 1-1Z"/><path fill="#97D6F9" id="STR" d="M234 118h-4.5l-1 2-2-2-4.5 1v-2h12v1Z"/><path fill="#C9C9CA" id="scwm" d="M119 118c-1.429 0-4 1.288-4 3 1.429 0 4-1.288 4-3Z"/><path fill="#90CAED" id="LSr" d="M265 171c-1.791 0-2.959-3.27-5.5-2l-8.5 3c0-4.728-1.959-11.418-4-15.5-.559-1.119-.155-4.5-2-4.5v-1l-1-1-2-4-9-11.5-4-6-.5-3.5-3.5 7.5-10 12.5-3 6-3 4.5c-1.021 2.042-4 14.346-4 16.5l-7.5-3c-2.541-1.27-3.709 2-5.5 2 0-1.906-1.099-6.698-2-8.5-2.265-4.531 1-13.118 1-17.5l2-1 7.5-7c3.518-1.759 21.5-14.894 21.5-18l4.5-1 2 2 1-2h4.5c0 5.575 17.838 15.338 21.5 19 2.051 2.051 5.637 7 8.5 7l2 3c0 8.099-1 16.484-1 24Z"/><path fill="#1A7E62" id="SSs1" d="M41 177h5c0-8.203-1.765-25.97 2-33.5 2.334-4.667 7-13.23 7-18.5l-4-4c-1.907 0-4.112 10.725-5 12.5-6.212 12.425-5 28.532-5 43.5Z"/><path fill="#C9C9CA" id="scwm" d="m105 131-6 12 4-4.5c1.704-3.408 12-15.091 12-17.5l-10 10Z"/><path fill="#1A7E62" id="SSs1" d="M411 177h4c0-9.372 2.087-30.326-2-38.5-2.109-4.218-7-12.862-7-17.5-1.947 0-2.636 3-5 3v1l8 20.5c2.635 5.271 2 24.267 2 31.5Z"/><path fill="#1B8063" id="SSs2/3" d="M55 176c-3.013 0-6.611 1-9 1 0-8.203-1.765-25.97 2-33.5 2.334-4.667 7-13.23 7-18.5h1l8 6c0 3.551-3.41 9.321-5 12.5-3.906 7.811-4 21.859-4 31.5v1Z"/><path fill="#8FCBEC" id="SF" fill-rule="evenodd" d="M240 162c0 1.911-2 4.611-2 7.5 0 20.079 23.756-7.5 2-7.5m-29 0c0 1.912-3 4.186-3 6.5 0 21.407 23.164-6.5 3-6.5m3 28 4.5 4c2.606 1.303 4.479-3 6.5-3l1-2 1-2v-1c0-3.153 2-5.347 2-1v1l6.5 8c3.155 1.578 4.241-3 6.5-3 0-7.84 9-17.254 9-19 0-4.728-1.959-11.418-4-15.5-.559-1.119-.155-4.5-2-4.5v4c0 13.066-12.509-8.496-7.5-11l4.5 1-9-11.5-4-6-.5-3.5-3.5 7.5-10 12.5c10.971 0 .517 20.533-4 11.5l1-5.5-3 4.5c-1.021 2.042-4 14.346-4 16.5 0 1.58 9 9.908 9 18Z"/><path fill="#1B8063" id="SSs2/3" d="M410 177h1c0-7.233.635-26.229-2-31.5l-8-20.5c-1.278 0-8 4.421-8 6 0 5.571 3.58 13.661 6 18.5 3.311 6.621 2 17.592 2 25.5v1c3.013 0 6.611 1 9 1Z"/><path fill="#187C63" id="SSs4" d="M55 175h5c0-6.093 2.586-24.672 5-29.5 1.663-3.326 4-7.592 4-11.5l-4-3h-1c0 3.551-3.41 9.321-5 12.5-3.906 7.811-4 21.859-4 31.5Z"/><path fill="#188064" id="SSp-m6b" d="M95 148v1l2-2 2-4 6-12c-3.038 0-10 13.547-10 17Z"/><path fill="#187C63" id="SSs4" d="M396 175h5c0-7.908 1.311-18.879-2-25.5-2.42-4.839-6-12.929-6-18.5h-1l-5 2v2l4 9.5c3.991 7.982 5 21.05 5 30.5Z"/><path fill="#1C8063" id="SSs5" d="M60 175h13c0-7.04-.94-16.619 2-22.5 1.766-3.531 4-8.346 4-12.5 0-2.746-9-2.6-9-6h-1c0 3.908-2.337 8.174-4 11.5-2.414 4.828-5 23.407-5 29.5ZM383 175h13c0-9.45-1.009-22.518-5-30.5l-4-9.5-10 5 6 18.5V175Z"/><path fill="#197D63" id="SSs6a" d="M73 175h13c0-1.927 3.351-14 5-14 0-1.858 2.188-12 4-12v-1c-2.302 0-9.577-4.077-11.5-6l-3.5-2h-1c0 4.154-2.234 8.969-4 12.5-2.94 5.881-2 15.46-2 22.5ZM370 175h13v-16.5l-6-18.5c-4.968 0-9.596 8-15 8 0 9.24 8 17.469 8 27Z"/><path fill="#97D6F9" id="STR" d="m264 144 2 3v-5l-2 2Z"/><path fill="#C9C9CA" id="scwm" d="m99 143-2 4c2.109 0 2-2.535 2-4Z"/><path fill="#97D6F9" id="STR" d="m193 144-2 1v-1h2Z"/><path fill="#CBC8CB" id="fi" d="M215 145c10.971 0 .517 20.533-4 11.5l1-5.5 3-6ZM245 151v5c0 13.066-12.509-8.496-7.5-11l4.5 1 2 4 1 1Z"/><path fill="#C9C9CA" id="scwm" d="M95 149v3c1.638 0 2-3.576 2-5l-2 2Z"/><path fill="#1A8061" id="SSs6b" d="M369 175h1c0-9.531-8-17.76-8-27h-1v4l1 2v1l1 1c0 4.728 4 8.359 4 13v2l2 4ZM91 161h1l2-6 1-2v-4c-1.812 0-4 10.142-4 12Z"/><path fill="#8FCBEC" id="SF" d="m244 150 1 1-1-1Z"/><path fill="#C9C9CA" id="scwm" d="m361 152 1 2-1-2ZM95 153l-1 2 1-2ZM362 155l1 1-1-1Z"/><path fill="#97D6F9" id="STR" d="M173 213h2l2-14c0-4.268 3-22.075 3-17l3-3 1-1c0-6.321 5.808 0 6 0 0-5.708-1-11.784-1-18-1.154 0-2.386 5.943-4.5 7-2.784 1.392-5.488-.525-7.5 3.5-3.615 7.229 1.039 28.921-2 35-.946 1.892-2 5.372-2 7.5Z"/><path fill="#1A8061" id="SSs6b" d="M86 175h2l1-2v-4l1-1c0-1.048-.473-3 1-3v-4c-1.649 0-5 12.073-5 14Z"/><path fill="#C9C9CA" id="scwm" d="m92 161-1 1v-1h1Z"/><path fill="#97D6F9" id="STR" d="m282 213 3 1-2-1.5c-1.888-3.776-.094-9.187-2-13-3.263-6.526 1.704-22.592-2-30-1.971-3.941-4.758-1.129-7.5-2.5l-3.5-6c-1.801 0-1 13.842-1 16 .903 0 6-3.461 6 1l4 5c0-4.38 2 11.168 2 15v1l1 1c0 3.991 2 9.158 2 13Z"/><path fill="#C7C8CA" id="fx" d="M211 162c0 1.912-3 4.186-3 6.5 0 21.407 23.164-6.5 3-6.5ZM240 162c0 1.911-2 4.611-2 7.5 0 20.079 23.756-7.5 2-7.5Z"/><path fill="#C9C7C9" id="ccb" d="M91 165c-1.473 0-1 1.952-1 3 1.473 0 1-1.952 1-3ZM89 169h1v-1l-1 1Z"/><path fill="#C8CBCC" id="ec" d="m90 169-1 1v-1h1Z"/><path fill="#8FCBED" id="LSv" d="M201 192v1c2.984 0 13 4.588 13-3 0-8.092-9-16.42-9-18l-7.5-3c-2.541-1.27-3.709 2-5.5 2v9l3 5 2 3 4 4ZM255 193l-1 1c-2.983 0-5.552 1.474-8.5 0l-3.5-3c0-7.84 9-17.254 9-19l8.5-3c2.541-1.27 3.709 2 5.5 2 0 3.222-1 6.277-1 9l-1 3-1 2-1 1-1 1-1 1-1 1-1 2-1 1-1 1Z"/><path fill="#C8CBCC" id="ec" d="M367 192c0 1.424-.362 5-2 5 0-3.534.564-5.628 2-8.5V171l2 4v13c-1.473 0-1 1.952-1 3l-1 1ZM92 202h1c0-4.631-1.996-11.492-4-15.5V173l-1 2v1c0 5.039 1 10.575 1 15v2l1 1v1l1 1v3l1 2v1Z"/><path fill="#11AC83" id="VISC6a" d="m86 176-13 2v-3h13v1ZM370 176c4.351 0 9.798 2 13 2v-3h-13v1Z"/><path fill="#11AC82" id="VISC4" d="M55 183h1l4-1v-7h-5v8Z"/><path fill="#12AD82" id="VISC5" d="M73 178c-4.522 0-8.202 3-13 3v-6h13v3Z"/><path fill="#11AD82" id="VISC6b" d="M86 176h2v-1h-2v1Z"/><path fill="#B3C0DE" id="BST" d="M199 205c-2.729 0-12.983 7-20 7 0-11.971 4-21.736 4-33l1-1c0-6.321 5.808 0 6 0l1 2c0 1.562 2.189 5 4 5l2 3 4 4v1c0 3.115 4 5.701 4 10l-6 2ZM257 205c2.293 0 13.253 7 20 7 0-11.225-4-22.638-4-34 0-4.461-5.097-1-6-1l-1 3-3 3-1 2-1 1-1 1-1 1-1 1-1 2-1 1-1 1-1 1c0 2.933-3 5.321-3 9 2.483 0 4.026 2 6 2Z"/><path fill="#11AD82" id="VISC6b" d="M369 176h1v-1h-1v1Z"/><path fill="#12AD82" id="VISC5" d="M383 178c4.522 0 8.202 3 13 3v-6h-13v3Z"/><path fill="#11AC82" id="VISC4" d="m396 182 5 1v-8h-5v7Z"/><path fill="#12AC83" id="VISC2/3" d="M55 183c-2.18 0-5.188 3-7 3l-2-9c2.389 0 5.987-1 9-1v7Z"/><path fill="#009B74" id="GU6a" d="m83 193-7 1c0-5.217-3-10.157-3-16l13-2c0 4.537 2 10.578 2 15-3.04 0-2.477 2-5 2Z"/><path fill="#019C74" id="GU6b" d="M88 191h1c0-4.425-1-9.961-1-15h-2c0 4.537 2 10.578 2 15ZM370 176c0 1.741.773 11-1 11v-11h1Z"/><path fill="#009B74" id="GU6a" d="M380 194h1c0-5.474 2-9.959 2-16-3.202 0-8.649-2-13-2 0 1.741.773 11-1 11v4l4 2 7 1Z"/><path fill="#12AC83" id="VISC2/3" d="M408 186h1l1-9c-2.389 0-5.987-1-9-1v7c2.607 0 4.913 3 7 3Z"/><path fill="#12AD83" id="VISC1" d="m48 186-4 2-3-11h5l2 9ZM409 186l3 2c1.795 0 3-9.1 3-11h-5l-1 9Z"/><path fill="#019C75" id="GU5" d="M63 197h1c0-1.603 10.37-3 12-3 0-5.217-3-10.157-3-16-4.522 0-8.202 3-13 3v1l3 15Z"/><path fill="#8599CC" id="PAL" d="m184 178-1 1 1-1ZM277 212l5 1c0-3.842-2-9.009-2-13l-1-1v-1c-3.703 0-2-13.291-2-15l-4-5c0 11.362 4 22.775 4 34Z"/><path fill="#019C75" id="GU5" d="m381 194 12 2c0-4.317 3-8.949 3-14v-1c-4.798 0-8.478-3-13-3 0 6.041-2 10.526-2 16Z"/><path fill="#8599CC" id="PAL" d="m179 212-4 1 2-14c3.354 0 3-14.016 3-17l3-3c0 11.264-4 21.029-4 33Z"/><path fill="#CCC" d="M180 182c0 2.984.354 17-3 17 0-4.268 3-22.075 3-17Z"/><path fill="#97D6F9" id="STR" d="m192 180 3 5c-1.811 0-4-3.438-4-5h1ZM266 180l-3 3 1-3h2Z"/><path fill="#CCC" d="M277 183c0 1.709-1.703 15 2 15 0-3.832-2-19.38-2-15Z"/><path fill="#009C74" id="GU4" d="M61 197h2l-3-15-4 1c0 5.341 5 11.117 5 14Z"/><path fill="#97D6F9" id="STR" d="m229 185-2 1c0-3.153 2-5.347 2-1Z"/><path fill="#009C74" id="GU4" d="M393 197h2c0-2.645 6-9.137 6-14l-5-1c0 5.051-3 9.683-3 14v1Z"/><path fill="#009B75" id="GU2/3" d="M61 197c-3.091 0-5.478 2-8 2l-5-13c1.812 0 4.82-3 7-3h1c0 5.341 5 11.117 5 14Z"/><path fill="#97D6F9" id="STR" d="m263 183-1 2 1-2Z"/><path fill="#009B75" id="GU2/3" d="M403 199h1c0-4.649 4-8.129 4-13-2.087 0-4.393-3-7-3 0 4.863-6 11.355-6 14 3.091 0 5.478 2 8 2Z"/><path fill="#FF5445" id="MEPO" d="M224 196c0 6.431 7.069 1 9 1l-4-11v-1l-2 1v1l-1 2-1 2-1 5Z"/><path fill="#009C75" id="GU1" d="m53 199-4 1c-1.041 0-5-10.421-5-12l4-2 5 13Z"/><path fill="#97D6F9" id="STR" d="M241 203h10c0-3.679 3-6.067 3-9-2.983 0-5.552 1.474-8.5 0l-3.5-3c-2.259 0-3.345 4.578-6.5 3l-6.5-8 4 11c0 4.003 8 3.615 8 6ZM261 186l-1 1 1-1Z"/><path fill="#009C75" id="GU1" d="m404 199 4 1c0-4.239 4-7.376 4-12l-3-2h-1c0 4.871-4 8.351-4 13Z"/><path fill="#97D6F9" id="STR" d="m227 187-1 2 1-2ZM197 188l4 4-4-4ZM259 188l-1 1 1-1Z"/><path fill="#019C74" id="GU6b" d="M368 191h1v-3c-1.473 0-1 1.952-1 3Z"/><path fill="#97D6F9" id="STR" d="m226 189-1 2 1-2ZM258 189l-1 2 1-2ZM205 203h10c0-1.59 4.386-1.443 5.5-2l3.5-5 1-5c-2.021 0-3.894 4.303-6.5 3l-4.5-4c0 7.588-10.016 3-13 3 0 3.115 4 5.701 4 10Z"/><path fill="#8ADA86" id="CLA" d="m92 208-4 1c-5.692 0-5-11.605-5-16 2.523 0 1.96-2 5-2h1v2l1 1v1l1 1v3l1 2v1l1 2v3l-1 1Z"/><path fill="#97D6F9" id="STR" d="m257 191-1 1 1-1Z"/><path fill="#009B74" id="GU6a" d="m368 191-1 1 1-1Z"/><path fill="#8ADA86" id="CLA" d="m364 208 4 1c6.37 0 5-10.849 5-16l-4-2h-1l-1 1c0 1.424-.362 5-2 5v4l-1 1v6Z"/><path fill="#97D6F9" id="STR" d="m256 192-1 1 1-1Z"/><path fill="#209766" id="AIp6a" d="m86 212-3 1c0-6.908-7-12.3-7-19l7-1c0 4.395-.692 16 5 16l-2 3ZM89 193l1 1-1-1Z"/><path fill="#97D6F9" id="STR" d="m255 193-1 1 1-1Z"/><path fill="#209766" id="AIp6a" d="m370 212 3 1c0-6.697 7-12.069 7-19l-7-1c0 5.151 1.37 16-5 16l2 3Z"/><path fill="#219864" id="AIp5" d="M77 215h4l2-2c0-6.908-7-12.3-7-19-1.63 0-12 1.397-12 3 0 4.56 8.956 18 13 18ZM375 215l5 1 8-9.5 5-9.5v-1l-12-2h-1c0 6.931-7 12.303-7 19l2 2Z"/><path fill="#209766" id="AIp6a" d="m90 195 1 1-1-1Z"/><path fill="#CAC7CB" id="fiber tracts" d="M215 203h26c0-2.385-8-1.997-8-6-1.931 0-9 5.431-9-1l-3.5 5c-1.114.557-5.5.41-5.5 2Z"/><path fill="#209865" id="AIp2/3" d="m77 215-10 5-4-3.5L53 199c2.522 0 4.909-2 8-2h3c0 4.56 8.956 18 13 18Z"/><path fill="#C8CBCC" id="ec" d="M364 201h1v-4c-1.579 0-1 2.855-1 4Z"/><path fill="#209865" id="AIp2/3" d="m380 216 10 4c0-1.903 13-15.806 13-21-2.522 0-4.909-2-8-2h-2l-5 9.5-8 9.5Z"/><path fill="#219765" id="AIp1" d="M67 220c-1.076 0-5 1.523-5 3-1.081 0-13-20.432-13-23l4-1 10 17.5 4 3.5Z"/><path fill="#209766" id="AIp6a" d="m91 199 1 2-1-2Z"/><path fill="#CCC" d="m279 199 1 1-1-1Z"/><path fill="#219765" id="AIp1" d="m390 220 5 2c1.988 0 2.408-3.315 3-4.5 2.524-5.048 10-11.759 10-17.5l-4-1h-1c0 5.194-13 19.097-13 21Z"/><path fill="#C8CBCC" id="ec" d="M363 203h1v-2l-1 2Z"/><path fill="#209766" id="AIp6a" d="m365 201-1 1v-1h1ZM93 203v1l-1-2h1v1Z"/><path fill="#C8CBCC" id="ec" d="m94 209 3 4c0-1.368-2.74-10-4-10v5l1 1Z"/><path fill="#CBCBC7" id="aco" d="M239 218h8c0-1.273 10-8.181 10-13-1.974 0-3.517-2-6-2h-46l-6 2c0 4.869 6.32 8.14 8 11.5l3 1.5h8c0-1.643 3.765-1 5-1h12c1.145 0 4-.579 4 1Z"/><path fill="#209766" id="AIp6a" d="M363 208h1v-5h-1v5Z"/><path fill="#C8CBCC" id="ec" d="m363 208-2 2c0-1.623.005-6 2-6v4Z"/><path fill="#C9C9C9" id="act" d="M166 225h1c0-1.663 5.407-2 7-2 0-1.014 3.959-2 5-2l6.5-2 23.5-1h1l-3-1.5c-1.68-3.36-8-6.631-8-11.5-2.729 0-12.983 7-20 7l-4 1h-2l-1 1-1 1h-1l-1 1-1 1-7 7.5c-.706 1.411 1.598 1.951 2.5 1.5l2.5-1ZM289 225h1l2.5 1c1.609.805 3.305-.891 2.5-2.5-1.166-2.331-6-2.634-6-6.5h-1l-2-2-1-1-3-1-5-1c-6.747 0-17.707-7-20-7 0 4.819-10 11.727-10 13l24.5 1 6.5 2 4 2c1.774 0 7-.273 7 2Z"/><path fill="#209766" id="AIp6a" d="M92 208h1v-1l-1 1Z"/><path fill="#A0EE9C" id="EPd" d="M99 231h4l1-3-3-5v-1c-1.577 0-2-1.762-2-3v-1l-1-1v-1l-1-1v-2l-3-4-1-1h-1l-4 1-2 3c0 2.707 1 5.903 1 8v1l1 1 1 2 5 5h1l1 1h1l1 1h1Z"/><path fill="#8AD987" id="CTXsp" d="m93 208 1 1-1-1Z"/><path fill="#A0EE9C" id="EPd" d="M358 231h1l1-1 1-1h1l1-1 1-1 1-1 1-1 1-1 1-1 1-1v-1l1-1 1-2c0-2.124-1-4.436-1-6l-2-3-4-1h-1l-2 2-1 2v1l-1 1v2l-1 1v1l-1 1v1l-1 1-1 2-1 1v1l-1 1v2l1 3h4Z"/><path fill="#C8CBCC" id="ec" d="m361 210-1 2 1-2Z"/><path fill="#99D2BD" id="OLF" d="m81 215 6 5c0-2.097-1-5.293-1-8l-3 1-2 2ZM375 215l-4 3c0-2.124-1-4.436-1-6l3 1 2 2Z"/><path fill="#97D6F9" id="STR" d="m173 213-1 1 1-1Z"/><path fill="#C8CBCC" id="ec" d="m360 213-1 1 1-1Z"/><path fill="#97D6F9" id="STR" d="m172 214-1 1 1-1Z"/><path fill="#6ACAB9" id="PIR" d="m120 277-2 1c-9.05 0-16.411-10-23-10l-10-11.5c-3.817-7.634-23-26.178-23-33.5 0-1.477 3.924-3 5-3l10-5h4l6 5v1l1 1 1 2 5 5h1l1 1h1l1 1h1c0 .847 13.658 9.079 15.5 10 8.438 4.219 11.5 14.941 11.5 24-2.958 0-5 8.339-5 11l-1 1Z"/><path fill="#C8CBCC" id="ec" d="m97 215 1 1-1-1Z"/><path fill="#97D6F9" id="STR" d="m170 215-1 1 1-1ZM286 215l2 2-2-2Z"/><path fill="#6ACAB9" id="PIR" d="m336 277 3 1c5.664 0 10.761-3.63 15.5-6 .706-.353 6.5-6.381 6.5-3l2-3.5c1.282-2.564 5.249-4.498 7-8 4.187-8.375 25-27.24 25-35.5l-5-2-10-4-5-1-4 3-1 2-1 1v1l-1 1-1 1-1 1-1 1-1 1-1 1-1 1h-1l-1 1-1 1h-1c0 2.341-2.342 1.421-3.5 2l-11 7c-9.637 4.818-12.5 14.347-12.5 25 0 3.494 5 7.656 5 12Z"/><path fill="#97D6F9" id="STR" d="m169 216-1 1 1-1Z"/><path fill="#CAC7CB" id="fiber tracts" d="M227 219h3c2.723 0 5.778-1 9-1 0-1.579-2.855-1-4-1h-12c-1.235 0-5-.643-5 1 3.222 0 6.277 1 9 1Z"/><path fill="#C8CBCC" id="ec" d="m359 216-1 1 1-1ZM98 217l1 1-1-1Z"/><path fill="#97D6F9" id="STR" d="m132 264-4 1c0-2.421 2.411-6.678 1-9.5-1.52-3.039-6.165-15.5-11-15.5 0-2.364-3-3.053-3-5h2c12.344 0 24.454-1.477 35.5-7 3.225-1.613 13.215-11 15.5-11l-7 7.5c-.706 1.411 1.598 1.951 2.5 1.5l2.5-1c0 2.604-9.586 5.043-11.5 6-8.231 4.116-16.222 2.111-24 6-2.787 1.393-7.115-.442-10 1l5.5 6.5c7.279 7.279 4.21 8.5 15 8.5l-4 5-1 1-1 2-1 1-1 1-1 1ZM328 265h1l-2-5.5c0-3.521 6.702-19.5 11-19.5 0-2.364 3-3.053 3-5l-1-1c-1.698 0-5.89 1.195-7.5 2-1.833.917-15.913-3.957-18-5h-5c-5.561-2.78-11.138-7.569-16-10l-4.5-4c0 3.866 4.834 4.169 6 6.5.805 1.609-.891 3.305-2.5 2.5l-2.5-1 7.5 4 13 6c2.908 1.454 8.275-1.363 15 2 1.563.781 10.5-1.569 10.5 1.5L323.5 253c-2.96 1.48-4.893 0-7.5 0l3 5 2 2v1l2 2 5 2Z"/><path fill="#B3C0DE" id="BST" d="M208 226c-5.001 0-7.673 6-13 6-8.445 0-16-1.377-16-10v-1l6.5-2 23.5-1 1 4.5-2 3.5Z"/><path fill="#E64438" id="HY" d="M221 233c3.281 0 2.053 5 4 5 0-1.657-.763-10 1-10 0-3.831 1-6.646 1-9-2.723 0-5.778-1-9-1h-9l1 4.5-2 3.5c2.461 0 2 3.378 2 5 1.49 0 2.587-1 5-1 0-3.206 4.331-14.839 8-7.5l-2 10.5ZM235 233c-2.93 0-1.084 3-3 3l-1-8c0-3.222-1-6.277-1-9 2.723 0 5.778-1 9-1h8l-1 4.5 2 3.5c-3.19 0-1 4.967-1 6-2.012 0 .099-2-6-2 0-3.778-.465-5.431-2-8.5h-5l1 11.5Z"/><path fill="#B3C0DE" id="BST" d="M248 226c5.441 0 7.344 6 13 6 6.842 0 17-.394 17-9v-2l-6.5-2-24.5-1-1 4.5 2 3.5Z"/><path fill="#C8CBCC" id="ec" d="m358 218-1 1 1-1Z"/><path fill="#99D2BD" id="OLF" d="m371 218-1 2 1-2Z"/><path fill="#C8CBCC" id="ec" d="m99 219 2 3c-1.577 0-2-1.762-2-3Z"/><path fill="#FF5445" id="MEPO" d="M228 231h1l2-3c0-3.222-1-6.277-1-9h-3c0 2.354-1 5.169-1 9l2 3Z"/><path fill="#C8CBCC" id="ec" d="m357 220-1 1 1-1Z"/><path fill="#99D2BD" id="OLF" d="m370 220-1 1 1-1ZM87 221l1 1-1-1Z"/><path fill="#8599CC" id="PAL" d="m174 223 3 1 2-2v-1c-1.041 0-5 .986-5 2Z"/><path fill="#FF5547" id="ADP" d="M215 230c0 3.997 6 6.665 6 3l2-10.5c-3.669-7.339-8 4.294-8 7.5ZM241 230c0 7.209-2.397 3-6 3l-1-11.5h5c1.535 3.069 2 4.722 2 8.5Z"/><path fill="#8599CC" id="PAL" d="m282 223-2 1-2-1v-2l4 2Z"/><path fill="#C8CBCC" id="ec" d="m356 221-1 2 1-2Z"/><path fill="#E64438" id="HY" d="m200 241-4 4c0-4.463-10-12.527-10-5-6.896 0-5.44-13-11-13 0-2.215 2-1.519 2-3l2-2c0 8.623 7.555 10 16 10 0 2.004-6.539 9 5 9Z"/><path fill="#99D2BD" id="OLF" d="m369 222-1 1 1-1Z"/><path fill="#C8CBCC" id="ec" d="M115 235h2l-7.5-4-8.5-8 3 5c3.45 0 6.747 7 11 7Z"/><path fill="#97D6F9" id="STR" d="M175 227c-4.314 0-7.592 4-11 4l3-6c0-1.663 5.407-2 7-2l3 1c0 1.481-2 .785-2 3Z"/><path fill="#E64438" id="HY" d="m263 239 4.5-2 3.5 3 6-5.5c.863-1.727.844-7.5 4-7.5l-1-3-2-1c0 8.606-10.158 9-17 9 0 .062 2 4.153 2 7Z"/><path fill="#97D6F9" id="STR" d="M281 227c6.678 0 11.811 7 15 7l-7-9c0-2.273-5.226-2-7-2l-2 1 1 3Z"/><path fill="#C8CBCC" id="ec" d="m355 223-1 1 1-1Z"/><path fill="#99D2BD" id="OLF" d="m368 223-1 1 1-1ZM89 224l5 5-5-5Z"/><path fill="#7ECDF8" id="FS" d="M164 231c-5.905 0-14.403 22-23 22-10.79 0-7.721-1.221-15-8.5l-5.5-6.5c2.885-1.442 7.213.393 10-1 7.778-3.889 15.769-1.884 24-6 1.914-.957 11.5-3.396 11.5-6h1l-3 6ZM296 234c3.122 0 12.113 19 20 19 2.607 0 4.54 1.48 7.5 0l12.5-14.5c0-3.069-8.937-.719-10.5-1.5-6.725-3.363-12.092-.546-15-2l-13-6-7.5-4h-1l7 9Z"/><path fill="#C8CBCC" id="ec" d="m354 225-1 1 1-1Z"/><path fill="#99D2BD" id="OLF" d="m366 225-1 1 1-1Z"/><path fill="#FD5446" id="PS" d="M200 241h1l1-1c2.434 0 8-6.78 8-9 0-1.622.461-5-2-5-5.001 0-7.673 6-13 6 0 2.004-6.539 9 5 9ZM255 241h1l7-2c0-2.847-2-6.938-2-7-5.656 0-7.559-6-13-6-3.19 0-1 4.967-1 6 0 1.763 4.012 7 6 7l2 2Z"/><path fill="#C8CBCC" id="ec" d="m340 234 1 1c4.725 0 7.937-7 12-7v-2c-4.165 0-8.197 8-13 8Z"/><path fill="#A2B1D7" id="SI" d="m128 265 6 6.5c11.469 11.469 18.034 5.5 31 5.5 0-1.59-4.386-1.443-5.5-2-2.556-1.278-6.979-3.457-8.5-6.5l4.5-4.5c4.492-2.246 13.395-5 18.5-5l5-2 5-4.5c2.355-4.71 2-7.738 2-12.5-6.896 0-5.44-13-11-13-4.314 0-7.592 4-11 4-5.905 0-14.403 22-23 22l-4 5-1 1-1 2-1 1-1 1-1 1-4 1ZM328 265c0 2.519-2.759 4.259-4.5 6-12.232 12.232-18.071 6-31.5 6 0-2.349 11.332-4.165 13-7.5 2.481-4.962-18.438-10.5-22-10.5-2.447 0-3.28-2-6-2l-6-6.5c-1.774-3.549 0-7.255 0-10.5l6-5.5c.863-1.727.844-7.5 4-7.5 6.678 0 11.811 7 15 7 3.122 0 12.113 19 20 19l3 5 2 2v1l2 2 5 2Z"/><path fill="#99D2BD" id="OLF" d="m364 227-1 1 1-1Z"/><path fill="#8AD987" id="CTXsp" d="M115 235c0 1.947 3 2.636 3 5-6.29 0-11.472-9-15-9l1-3c3.45 0 6.747 7 11 7Z"/><path fill="#FE5547" id="PVpo" d="M238 273h1c0-2.72-2-3.553-2-6-5.558 0-5-18.789-5-24v-7l-1-8-2 3v2c0 4.283-1 4.283-1 0v-2l-2-3c-1.763 0-1 8.343-1 10v1l-1 2v2c0 4.713.645 25-5 25l-2 5h4l4-2 1-1 2.5-11 .5 7.5 2 3.5v1l4 2h3Z"/><path fill="#8AD987" id="CTXsp" d="M341 235c0 1.947-3 2.636-3 5 6.424 0 10.392-9 16-9l-1-3c-4.063 0-7.275 7-12 7Z"/><path fill="#99D2BD" id="OLF" d="m363 228-1 1 1-1ZM95 229l1 1-1-1Z"/><path fill="#FF5346" id="MPO" d="m195 269 5.5-1 2.5 2c3.205 0 5.611-3 7-3 0-11.725-3.552-25 13-25l1-1 1-2v-1c-1.947 0-.719-5-4-5 0 3.665-6 .997-6-3-2.413 0-3.51 1-5 1 0 2.22-5.566 9-8 9l-1 1h-1l-4 4-1 14c1.77 0 6.07-10.359 10-2.5 2.639 5.278-10 12.542-10 5.5-1.473 0-1 1.952-1 3v2l1 2ZM261 269l-4.5-1-3.5 2c-3.145 0-4.833-3-7-3 0-10.857 4.07-25-12-25l-2-1v-5c1.916 0 .07-3 3-3 3.603 0 6 4.209 6-3 6.099 0 3.988 2 6 2 0 1.763 4.012 7 6 7l2 2h1l4 4 1 12-5.5-4c-9.732 0 1.159 19.182 5.5 10.5V259c.853 0 2 6.031 2 7 0 1.238-.423 3-2 3Z"/><path fill="#99D2BD" id="OLF" d="m361 229-1 1 1-1ZM97 230l1 1-1-1ZM360 230l-1 1 1-1ZM126 265h2c0-2.421 2.411-6.678 1-9.5-1.52-3.039-6.165-15.5-11-15.5-6.29 0-11.472-9-15-9h-4c0 .847 13.658 9.079 15.5 10 8.438 4.219 11.5 14.941 11.5 24Z"/><path fill="#E64438" id="HY" d="M228 233h1v-2h-1v2Z"/><path fill="#99D2BD" id="OLF" d="M329 265h2c0-10.653 2.863-20.182 12.5-25l11-7c1.158-.579 3.5.341 3.5-2h-4c-5.608 0-9.576 9-16 9-4.298 0-11 15.979-11 19.5l2 5.5Z"/><path fill="#A8A9AA" id="V3" d="M228 233h1c0 4.283-1 4.283-1 0Z"/><path fill="#F2473B" id="LPO" d="m194 265-1 1c-2.796 0-7.794-7-13-7l-1-2 5-4.5c2.355-4.71 2-7.738 2-12.5 0-7.527 10 .537 10 5l-1 14v3c-1.473 0-1 1.952-1 3ZM277 259c-5.254 0-11.337 7-14 7 0-.969-1.147-7-2-7v-2l-1-12 3-6 4.5-2 3.5 3c0 3.245-1.774 6.951 0 10.5l6 6.5v2Z"/><path fill="#E64438" id="HY" d="m225 239-1 2 1-2ZM253 239l2 2-2-2ZM256 241l4 4 3-6-7 2ZM202 240l-1 1 1-1ZM223 242l1 1v-2l-1 1ZM234 242l-2 1v-2l2 1Z"/><path fill="#FD4C3E" id="MPN" d="M215 267c1.145 0 4-.579 4 1 5.645 0 5-20.287 5-25l-1-1c-16.552 0-13 13.275-13 25h5ZM241 267h5c0-10.857 4.07-25-12-25l-2 1c0 5.211-.558 24 5 24h4Z"/><path fill="#FE5447" id="AVP" d="m261 257-5.5-4c-9.732 0 1.159 19.182 5.5 10.5V257ZM195 259c1.77 0 6.07-10.359 10-2.5 2.639 5.278-10 12.542-10 5.5v-3Z"/><path fill="#E64438" id="HY" d="M180 259c-2.343 0-4 .285-4 3l-2-3 5-2 1 2ZM283 259l-2 2-4-2v-2c2.72 0 3.553 2 6 2Z"/><path fill="#8599CC" id="PAL" d="m137 258-1 1 1-1ZM319 258l2 2-2-2ZM136 259l-1 2 1-2Z"/><path fill="#A2B1D8" id="MA" d="M165 277h7l4-3v-12l-2-3c-5.105 0-14.008 2.754-18.5 5l-4.5 4.5c1.521 3.043 5.944 5.222 8.5 6.5 1.114.557 5.5.41 5.5 2Z"/><path fill="#96A6D3" id="NDB" d="m192 279-1 1c-4.5 0-15-.014-15-6v-12c0-2.715 1.657-3 4-3 5.206 0 10.204 7 13 7l1 1 1 2c0 3.679-3 6.731-3 10Z"/><path fill="#A8A9AA" id="V3" d="M226 270h5l-2-3.5-.5-7.5-2.5 11Z"/><path fill="#96A6D3" id="NDB" d="M281 275c-1.406 0-6.914 4.207-8.5 5-2.568 1.284-6.486-1-8.5-1l-3-10c1.577 0 2-1.762 2-3 2.663 0 8.746-7 14-7l4 2v14Z"/><path fill="#A2B1D8" id="MA" d="M285 277h7c0-2.349 11.332-4.165 13-7.5 2.481-4.962-18.438-10.5-22-10.5l-2 2v14l4 2Z"/><path fill="#8599CC" id="PAL" d="m135 261-1 1 1-1ZM321 261l2 2-2-2ZM134 262l-1 1 1-1ZM133 263l-1 1 1-1Z"/><path fill="#7FCCF7" id="OT" d="M124 284c0 3.899 6.734 7.617 9.5 9 11.421 5.71 21.865 8.067 34 2 2.598-1.299 11.5-2.026 11.5-7 0-4.221.066-11-7-11h-7c-12.966 0-19.531 5.969-31-5.5l-6-6.5h-2c-2.958 0-5 8.339-5 11v1c0 3.047 3 4.462 3 7Z"/><path fill="#E64438" id="HY" d="m193 266 1 1v-2l-1 1Z"/><path fill="#7FCCF7" id="OT" d="m277 288 1 1c0 4.736 9.03 4.765 11.5 6 12.037 6.018 21.631 3.685 33-2 2.019-1.009 9.5-4.908 9.5-8l1-1v-1l3-6c0-4.344-5-8.506-5-12h-3c0 2.519-2.759 4.259-4.5 6-12.232 12.232-18.071 6-31.5 6h-7c-5.759 0-8 4.71-8 10v1Z"/><path fill="#E64438" id="HY" d="M208 278c0 1.473-1.952 1-3 1 0-3.638-2-5.929-2-9 3.205 0 5.611-3 7-3h5c0 .624-10.123 11-7 11Z"/><path fill="#FD5545" id="VMPO" d="m217 274-9 4c-3.123 0 7-10.376 7-11 1.145 0 4-.579 4 1l-2 5v1ZM241 275l7 3c4.617 0-7-10.825-7-11h-4c0 2.447 2 3.28 2 6v1h1l1 1Z"/><path fill="#E64438" id="HY" d="M248 278c0 1.473 1.952 1 3 1 0-3.68 2-5.511 2-9-3.145 0-4.833-3-7-3h-5c0 .175 11.617 11 7 11Z"/><path fill="#CAC8C7" id="lot" d="M119 279v3l-3.5 3c-4.161 0-20.5-12.326-20.5-17 6.589 0 13.95 10 23 10l1 1Z"/><path fill="#FE5546" id="VLPO" d="M201 281h3l1-2c0-3.638-2-5.929-2-9l-2.5-2-5.5 1c0 3.679-3 6.731-3 10l9 2ZM264 279l-9 2-4-2c0-3.68 2-5.511 2-9l3.5-2 4.5 1 3 10Z"/><path fill="#CAC8C7" id="lot" d="M338 281v1c0 1.963 3.983 2.759 5.5 2 4.271-2.136 17.5-8.817 17.5-15 0-3.381-5.794 2.647-6.5 3-4.739 2.37-9.836 6-15.5 6l-1 3Z"/><path fill="#CAC7CB" id="fiber tracts" d="M221 273h7c0-1.577-1.762-2-3-2l-4 2ZM229 273h6l-4-2c-1.747 0-2 .253-2 2Z"/><path fill="#CBCACC" id="och" d="m204 281-3 2c0 4.697 6.461 5 10 5 8.609 0 23.271-4.115 31.5 0 2.624 1.312 11.32-.141 12.5-2.5 2.443-4.887-19-8.126-19-12.5h-15l-2 1c0 1.646-12.481 7-15 7Z"/><path fill="#E64438" id="HY" d="M217 274h2v-1h-2v1Z"/><path fill="#CAC7CB" id="fiber tracts" d="m221 273-2 1v-1h2ZM255 281l3 5.5c0 1.589-6.547 2.5-8 2.5-4.956 0-14.502 4.499-19.5 2l-2-3-2 3h-9c-4.32-2.16-10.767.117-15-2l-4.5-2.5 3-3.5c0 4.697 6.461 5 10 5 8.609 0 23.271-4.115 31.5 0 2.624 1.312 11.32-.141 12.5-2.5 2.443-4.887-19-8.126-19-12.5h2l1 1h1l1 1 7 3c0 1.473 1.952 1 3 1l4 2Z"/><path fill="#E64438" id="HY" d="M239 273v1l-1-1h1Z"/><path fill="#8599CC" id="PAL" d="M191 280c0 2.17-10.265 8-12 8 0-4.221.066-11-7-11l4-3c0 5.986 10.5 6 15 6Z"/><path fill="#CAC7CB" id="fiber tracts" d="m205 279-1 2c2.519 0 15-5.354 15-7h-2l-9 4c0 1.473-1.952 1-3 1Z"/><path fill="#E64438" id="HY" d="m240 274 1 1-1-1Z"/><path fill="#8599CC" id="PAL" d="M264 279c0 2.754 10.591 8 13 8 0-5.29 2.241-10 8-10l-4-2c-1.406 0-6.914 4.207-8.5 5-2.568 1.284-6.486-1-8.5-1Z"/><path fill="#99D2BD" id="OLF" d="M120 277h1v-1l-1 1ZM118 278l1 1 1-2-2 1Z"/><path fill="#97D6F9" id="STR" d="M119 282c2.009 0 2.991 2 5 2 0-2.538-3-3.953-3-7h-1l-1 2v3ZM338 282l-5 1 3-6 2 4v1Z"/><path fill="#99D2BD" id="OLF" d="m339 278-1 3-2-4 3 1Z"/><path fill="#8599CC" id="PAL" d="m192 279-1 1 1-1Z"/><path fill="#CAC7CB" id="fiber tracts" d="m204 281-3 2v-2h3Z"/><path fill="#97D6F9" id="STR" d="m333 284-1 1 1-1Z"/><path fill="#8599CC" id="PAL" d="m277 288 1 1-1-1Z"/></svg>