<svg xmlns="http://www.w3.org/2000/svg" viewBox="0 0 456 320"><path fill="#9AD1BD" id="MOB" fill-rule="evenodd" d="M161 212c0 9.385 18.376 35 29 35 2.995 0 7.334 1.583 10.5 0 7.441-3.72 12.984-11.467 16.5-18.5 2.511-5.021.7-15.4 3-20 1.864-3.727-.808-9.384 1-13 2.352-4.703 2-40.683 2-48 0-9.115-3.209-38.5-15-38.5l-2-1c-2.253 0-6.469-.984-8.5-2-6.555-3.278-26.812 4.406-32 7-5.415 2.707-7.925 6.925-12 11l-3.5 5-1 1v1l-1 1v1l-1 1v1l-1 2v1l-1 1v4c0 1.048.473 3-1 3v10c1.579 0 1 2.855 1 4v4l1 2v1l1 2v4l2 3v2c2.155 0 3.233 6.965 4 8.5 3.294 6.588 8 17.965 8 25.5m16-82c0 1.961-7.525 8.451-4 15.5 3.869 7.737 13.263 12.474 18 3 3.133-6.265-2-8.665-2-12.5 0-3.085 9 1.154 9-1.5 0-3.017-21-13.134-21-4.5ZM295 213c0 9.063-18.498 34-28 34-3.504 0-8.05 1.725-11.5 0-23.982-11.991-21.5-58.249-21.5-83.5 0-8.013-3.056-25.889 0-32 2.183-4.366 2.802-9.603 5-14l8-8.5h2l1-1c2.721 0 6.171-.836 8.5-2 4.959-2.479 24.989 2.994 29 5l8 6c3.191 1.595 11.5 9.232 11.5 13l1 1v1l1 1v2l1 1v1l1 1v3l1 2v3c0 1.145-.579 4 1 4v1c-1.643 0-1 3.765-1 5v4l-1 2v4l-1 1v2l-1 2v3l-1 2c-1.473 0-1 1.952-1 3-2.155 0-3.233 6.965-4 8.5-3.179 6.359-7 16.11-7 23.5l-1 1v1m-16-83c3.157 0-.675-3.588-1.5-4-1.759-.879-17.389 5.278-18.5 7.5-2.344 4.688 8-1.004 8 2.5 0 2.798-3.992 7.516-2 11.5 5.812 11.623 14.679 4.643 19-4 2.902-5.805-5-12.153-5-13.5Z"/><path fill="#99D2BD" id="OLF" d="M208 108v1l-2-1h2Z"/><path fill="#C7CBCA" id="onl" d="M227 210c0 16.301 2.83 36.841-4 50.5l-4.5 2.5c-9.271 4.635-11.299-7.649-18-11-2.069-1.035-10.5-1.625-10.5-5 2.995 0 7.334 1.583 10.5 0 7.441-3.72 12.984-11.467 16.5-18.5 2.511-5.021.7-15.4 3-20 1.864-3.727-.808-9.384 1-13 2.352-4.703 2-40.683 2-48 0-9.115-3.209-38.5-15-38.5v-1c6.196 0 10.748 7.996 13 12.5 6.589 13.178 6 28.547 6 44.5v16c0 1.235-.643 5 1 5v12c-1.781 0-1 10.176-1 12ZM247 109h2v-1l-2 1Z"/><path fill="#99D2BD" id="OLF" d="m250 108-1 1v-1h1Z"/><path fill="#C7CBCA" id="onl" d="M247 109c-11.303 0-12.521 16.541-16 23.5v5c-3.06 6.119-2 23.722-2 31.5 0 18.722 1 38.458 1 56.5 0 11.243-1.694 24.612 3 34 1.125 2.25 3.75 2.625 5.5 3.5 9.213 4.606 10.242-7.621 17-11 2.044-1.022 11.5-1.98 11.5-5-3.504 0-8.05 1.725-11.5 0-23.982-11.991-21.5-58.249-21.5-83.5 0-8.013-3.056-25.889 0-32 2.183-4.366 2.802-9.603 5-14l8-8.5Z"/><path fill="#CACAC9" id="lotd" d="M177 130c3.698 0 5.928 6 12 6 0-3.085 9 1.154 9-1.5 0-3.017-21-13.134-21-4.5ZM279 130c3.157 0-.675-3.588-1.5-4-1.759-.879-17.389 5.278-18.5 7.5-2.344 4.688 8-1.004 8 2.5 5.987 0 8.721-6 12-6Z"/><path fill="#99D2BD" id="OLF" d="m150 129-1 1 1-1Z"/><path fill="#95E4C8" id="AOBgr" d="M177 130c3.698 0 5.928 6 12 6 0 3.835 5.133 6.235 2 12.5-4.737 9.474-14.131 4.737-18-3-3.525-7.049 4-13.539 4-15.5ZM279 130c-3.279 0-6.013 6-12 6 0 2.798-3.992 7.516-2 11.5 5.812 11.623 14.679 4.643 19-4 2.902-5.805-5-12.153-5-13.5Z"/><path fill="#99D2BD" id="OLF" d="m307 130 1 1-1-1ZM149 131l-1 1 1-1ZM308 132l1 1-1-1ZM148 133l-1 1 1-1ZM147 135l-1 2 1-2ZM309 135l1 1-1-1ZM310 137l1 1-1-1ZM146 138l-1 1 1-1ZM311 141l1 2-1-2ZM145 143c-1.473 0-1 1.952-1 3 1.473 0 1-1.952 1-3ZM312 146c1.579 0 1 2.855 1 4-1.579 0-1-2.855-1-4ZM144 150c-1.399 0-1.399 2 0 2v-2ZM313 151c-1.643 0-1 3.765-1 5 1.643 0 1-3.765 1-5ZM144 156c1.579 0 1 2.855 1 4-1.579 0-1-2.855-1-4ZM312 160l-1 2 1-2ZM145 164l1 2-1-2ZM227 165c1.643 0 1 3.765 1 5v16c-1.643 0-1-3.765-1-5v-16ZM311 166l-1 1 1-1ZM146 167l1 2-1-2ZM310 169l-1 2 1-2ZM148 176h1l-2-3 1 3ZM308 176v1c1.473 0 1-1.952 1-3l-1 2Z"/><path fill="#C7CBCA" id="onl" d="M148 177h1v-1h-1v1ZM307 179h1v-3c-1.473 0-1 1.952-1 3Z"/><path fill="#99D2BD" id="OLF" d="M149 178v1l-1-2h1v1Z"/><path fill="#C7CBCA" id="onl" d="m160 211 1 1c0-7.535-4.706-18.912-8-25.5-.767-1.535-1.845-8.5-4-8.5v5l1 1v1l1 2v3l1 2v1l1 2v2l1 1v1l1 1v2l1 1v1l1 1v2l2 2v1l1 1ZM297 210l-1 1c0-7.39 3.821-17.141 7-23.5.767-1.535 1.845-8.5 4-8.5v5l-1 2v1l-1 2v3l-1 2v1l-1 1v2l-1 1v1l-1 1v2l-1 2-1 1v1l-1 2-1 1Z"/><path fill="#99D2BD" id="OLF" d="m308 179-1 2v-2h1ZM149 183l1 1-1-1ZM307 184l-1 2 1-2ZM150 185l1 2-1-2ZM306 187l-1 2 1-2ZM151 190l1 2-1-2ZM305 192l-1 2 1-2ZM152 193l1 2-1-2ZM304 195l-1 1 1-1ZM153 197l1 1-1-1ZM228 198c-1.781 0-1 10.176-1 12 1.781 0 1-10.176 1-12ZM303 198l-1 1 1-1ZM154 199l1 1-1-1ZM302 200l-1 1 1-1ZM155 202l1 1-1-1ZM301 203l-1 2 1-2ZM156 204l1 1-1-1ZM300 205l-1 1 1-1ZM157 207l2 2-2-2ZM299 207l-1 2 1-2ZM298 209l-1 1 1-1ZM159 210l1 1-1-1Z"/><path fill="#C7CBCA" id="onl" d="M295 212h1v-1l-1 1Z"/><path fill="#99D2BD" id="OLF" d="m296 212-1 1v-1h1Z"/></svg>