<svg xmlns="http://www.w3.org/2000/svg" viewBox="0 0 456 320"><path fill="#1E9C59" id="MOs1" d="m227 55-5 2c0-3.355-3.6-4.7-5-7.5-2.103-4.206-18.328-11.086-23.5-8.5-2.794 1.397-8.356 3-11.5 3v-5c0-2.941 12.911-2 15.5-2 11.692 0 20.349 2.198 25.5 12.5 1.151 2.303 4 2.641 4 5.5ZM234 57h1c0-3.541 2.52-6.02 5-8.5 12.822-12.822 22.138-4.5 35-4.5 0-1.041-2.36-5 0-5 0-2.09-12.324-2-15-2h-12.5c-3.689 1.844-18.5 13.557-18.5 18l5 2Z"/><path fill="#1E9D5A" id="MOp1" d="M130 55v6l14.5-6c5.929-2.965 31.112-11 37.5-11v-5c-10.139 0-34.791 7.646-43.5 12l-8.5 4ZM327 55v6c-4.238 0-8.877-3.188-12.5-5-6.233-3.116-32.875-12-39.5-12 0-1.041-2.36-5 0-5 7.532 0 37.03 8.765 43.5 12 2.249 1.125 6.003 4 8.5 4Z"/><path fill="#1E9D58" id="MOs2/3" d="M181 58c8.851 0 15.428-10.036 29.5-3 1.936.968 5.5 3.446 5.5 6l6-4c0-3.355-3.6-4.7-5-7.5-2.103-4.206-18.328-11.086-23.5-8.5-2.794 1.397-8.356 3-11.5 3 0 3.847-1 9.735-1 14ZM240 61h1c0-7.66 16.161-11.17 22.5-8 2.825 1.412 9.524 6 12.5 6l-1-15c-12.862 0-22.178-8.322-35 4.5-2.48 2.48-5 4.959-5 8.5l5 4Z"/><path fill="#1F9C58" id="MOp2/3" d="M129 77v7l11.5-6c9.407-4.704 19.606-8.303 29-13 2.826-1.413 7.361-6 10.5-6l1-1c0-4.265 1-10.153 1-14-6.388 0-31.571 8.035-37.5 11L130 61v1c0 3.391-1 5.353-1 9 0 1.745.632 6 0 6ZM327 77v7c-3.566 0-9.252-5.376-12.5-7-8.966-4.483-19.033-7.516-28-12-3.032-1.516-7.052-6-10.5-6l-1-15c6.625 0 33.267 8.884 39.5 12 3.623 1.812 8.262 5 12.5 5v16Z"/><path fill="#1F9D58" id="MOs5" d="M201 73h1c3.432 0 8.699-12 14-12 0-2.554-3.564-5.032-5.5-6-14.072-7.036-20.649 3-29.5 3l-1 1c0 6.33-2 11.478-2 18 5.889 0 11.57-8.965 17.5-6 1.319.66 5.5-.334 5.5 2Z"/><path fill="#1F9D58" id="MOs5" fill-rule="evenodd" d="M262 60c0 1.93 1.93 0 0 0m-7 13c1.662 0 6.455-4.022 8.5-3 4.078 2.039 10.87 7 15.5 7l-3-18c-2.976 0-9.675-4.588-12.5-6-6.339-3.17-22.5.34-22.5 8l6 4.5 8 7.5Z"/><path fill="#197E64" id="SSp-ul1" d="M102 69c0 1.408 1.197 5 3 5 4.158 0 18.305-12 25-12v-7c-7.604 0-23.437 14-28 14Z"/><path fill="#3EA665" id="ACAd1" d="M222 84h12V57l-5-2c0 3.746-.8 0-2 0l-5 2v27Z"/><path fill="#197E64" id="SSp-ul1" d="M351 74h1l3-4c0-1.55-24.774-15-28-15v7l19 8.5 5 3.5Z"/><path fill="#40A565" id="ACAd2/3" d="M217 85h5V57l-6 4c0 7.217 1 16.105 1 24ZM234 85h5c0-8.017 1-16.609 1-24l-5-4h-1v28Z"/><path fill="#1E9C5A" id="MOp5" d="M129 85v14c3.754 0 9.152-4.326 12.5-6 7.821-3.91 17.15-5.075 25-9l10.5-6 1-1c0-6.522 2-11.67 2-18-3.139 0-7.674 4.587-10.5 6-9.394 4.697-19.593 8.296-29 13L129 84v1ZM327 85v14c-2.976 0-9.675-4.588-12.5-6-7.818-3.91-17.186-5.093-25-9L279 78v-1l-3-18c3.448 0 7.468 4.484 10.5 6 8.967 4.484 19.034 7.517 28 12 3.248 1.624 8.934 7 12.5 7v1ZM262 60c0 1.93 1.93 0 0 0Z"/><path fill="#3EA566" id="ACAd5" d="M217 85c-4.39 0-8.836 7-13 7 0-6.696-2-12.874-2-19 3.432 0 8.699-12 14-12 0 7.217 1 16.105 1 24ZM239 85c4.643 0 9.369 7 13 7 0-2.293-.155-12.19 1-14.5l2-3.5v-1l-8-7.5-6-4.5h-1c0 7.391-1 15.983-1 24Z"/><path fill="#197F61" id="SSp-ul2/3" d="M111 85h1c3.322 0 12.525-8 17-8 .632 0 0-4.255 0-6 0-3.647 1-5.609 1-9-6.695 0-20.842 12-25 12v1c0 3.524 6 7.009 6 10ZM344 85h1c0-3.75 6-6.212 6-11l-5-3.5-19-8.5v15c5.155 0 13.593 8 17 8Z"/><path fill="#187E61" id="SSp-m1" d="m57 138 5 2c0-18.085 12.743-39.243 25.5-52 3.86-3.86 12.177-13 17.5-13v-1c-1.803 0-3-3.592-3-5-2.446 0-14.538 11.038-17 13.5-12.1 12.1-28 38.939-28 55.5Z"/><path fill="#1D9C5A" id="MOs6a" d="M177 99h1c0-1.663 5.407-2 7-2 0-1.58 2.855-1 4-1 0-7.532 12-17.116 12-23 0-2.334-4.181-1.34-5.5-2-5.93-2.965-11.611 6-17.5 6l-1 1v21ZM267 96c4.608 0 9.001 3 13 3 0-6.194-1-13.914-1-21v-1c-4.63 0-11.422-4.961-15.5-7-2.045-1.022-6.838 3-8.5 3v1c2.506 0 12 18.837 12 22Z"/><path fill="#187E61" id="SSp-m1" d="m399 138-4 1c-1.951 0-.477-2.454-1-3.5-1.801-3.602-1.214-8.428-3-12l-10-20c-2.708-5.415-13.94-19.72-19.5-22.5-1.585-.793-9.5-5.086-9.5-7l3-4c6.283 0 11.078 10.289 16.5 13 11.421 5.71 27.5 42.336 27.5 55Z"/><path fill="#3FA664" id="ACAd6a" d="M189 96c3.326 0 3.683 4 6 4 3.458 0 5.91-7 9-7v-1c0-6.696-2-12.874-2-19h-1c0 5.884-12 15.468-12 23ZM261 101h1c0-2.362 2.638-5 5-5 0-3.163-9.494-22-12-22l-2 3.5c-1.155 2.31-1 12.207-1 14.5v1c1.938 0 9 5.842 9 8Z"/><path fill="#1A7E64" id="SSp-m2/3" d="M395 140c-3.641 0-5.885 3-10 3 0-13.813-10.54-26.579-16-37.5l-6-7L350.5 88l-5.5-3c0-3.75 6-6.212 6-11h1c0 1.914 7.915 6.207 9.5 7 5.56 2.78 16.792 17.085 19.5 22.5l10 20c1.786 3.572 1.199 8.398 3 12 .523 1.046-.951 3.5 1 3.5v1ZM62 140c2.933 0 5.321 3 9 3 1.92 0 1.26-8.021 2-9.5 3.457-6.914 6.508-14.016 10-21 4.438-8.877 15.752-14.503 20-23 .907-1.814 8-1.599 8-4.5 0-2.991-6-6.476-6-10-5.323 0-13.64 9.14-17.5 13C74.743 100.757 62 121.915 62 140Z"/><path fill="#1A7F63" id="SSp-ul4" d="M116 92h1c0-.953 10.471-7 12-7v-8c-4.475 0-13.678 8-17 8 0 1.522 2.571 7 4 7Z"/><path fill="#1F9D58" id="MOs5" d="m178 77-1 1 1-1Z"/><path fill="#1A7F63" id="SSp-ul4" d="M344 85c0 .374-1.645 7-4 7-4.524 0-8.018-7-13-7v-8c5.155 0 13.593 8 17 8Z"/><path fill="#1F9B5A" id="MOp6a" d="m135 119-6 2V99c3.754 0 9.152-4.326 12.5-6 7.821-3.91 17.15-5.075 25-9l10.5-6v21c-1.238 0-3 .423-3 2-1.424 0-5 .362-5 2-1.465 0-4-.109-4 2-2.08 0-9 1.934-9 4-1.622 0-5-.461-5 2-1.465 0-4-.109-4 2-2.233 0-12 3.671-12 6ZM328 109c0 4.921-1 6.86-1 12-3.687 0-8.069-4.785-10.5-6-4.849-2.425-33.101-16-36.5-16 0-6.194-1-13.914-1-21l10.5 6c7.814 3.907 17.182 5.09 25 9 2.825 1.412 9.524 6 12.5 6 0 3.981 1 5.797 1 10Z"/><path fill="#40A664" id="ACAv1" d="m229 112 5 5V84h-12v33l5-5c0-2.564 2-2.564 2 0Z"/><path fill="#1B7F62" id="SSp-m4" d="m71 144 7 2c0-11.153 10.207-23.913 15-33.5l10-11 13-9.5c-1.429 0-4-5.478-4-7h-1c0 2.901-7.093 2.686-8 4.5-4.248 8.497-15.562 14.123-20 23-3.492 6.984-6.543 14.086-10 21-.74 1.479-.08 9.5-2 9.5v1Z"/><path fill="#187E62" id="SSp-ul5" d="m129 99-6 3c-1.029 0-6-8.52-6-10 0-.953 10.471-7 12-7v14Z"/><path fill="#3EA666" id="ACAv5" d="M209 118c0 1.653 7.372 4 9 4l-1-37c-4.39 0-8.836 7-13 7v1c0 8.498 5 19.802 5 25Z"/><path fill="#3FA566" id="ACAv2/3" d="m221 121-3 1-1-37h5v32l-1 4ZM236 121l2 1c0-11.611 1-24.728 1-37h-5v32l2 4Z"/><path fill="#3EA666" id="ACAv5" d="M247 118c0 1.817-7.169 4-9 4 0-11.611 1-24.728 1-37 4.643 0 9.369 7 13 7v1l-1 14.5-4 10.5Z"/><path fill="#187E62" id="SSp-ul5" d="m327 99 6 3 7-9v-1c-4.524 0-8.018-7-13-7v14Z"/><path fill="#1B7F62" id="SSp-m4" d="M378 146h1l6-2v-1c0-13.813-10.54-26.579-16-37.5l-6-7L350.5 88l-5.5-3h-1c0 .374-1.645 7-4 7v1c4.798 0 8.251 6.376 11.5 8 10.808 5.404 26.5 33.834 26.5 45Z"/><path fill="#1B7E63" id="SSp-m5" d="M78 146c3.751 0 6.82 3 11 3 0-12.934 19.483-46 34-46v-1c-1.029 0-6-8.52-6-10h-1l-13 9.5-10 11c-4.793 9.587-15 22.347-15 33.5Z"/><path fill="#40A564" id="ACAv6a" d="m206 117 3 1c0-5.198-5-16.502-5-25-3.09 0-5.542 7-9 7v1c0 6.563 10 9.146 10 14l1 2ZM250 117l-3 1 4-10.5 1-14.5c1.938 0 9 5.842 9 8 0 5.805-10 9.68-10 14l-1 2Z"/><path fill="#1B7E63" id="SSp-m5" d="m378 146-11 4c0-13.734-17.891-47-34-47v-1l7-9c4.798 0 8.251 6.376 11.5 8 10.808 5.404 26.5 33.834 26.5 45Z"/><path fill="#1E9C58" id="MOs6b" d="M185 97h4v-1c-1.145 0-4-.58-4 1Z"/><path fill="#3FA466" id="ACAd6b" d="M194 101h1v-1c-2.317 0-2.674-4-6-4v1c2.813 0 3.461 4 5 4ZM262 101h1l4-4v-1c-2.362 0-5 2.638-5 5Z"/><path fill="#1E9C58" id="MOs6b" d="M280 99v1c-4.522 0-8.202-3-13-3v-1c4.608 0 9.001 3 13 3ZM185 97c-1.593 0-7 .337-7 2 1.774 0 7 .273 7-2Z"/><path fill="#CACCC7" id="cing" d="m205 115 1 2c-8.607 0-12.605-12.553-19.5-16-4.724-2.362-12.176 5-16.5 5l-1 1h-1l-7 1 4-3 4-2c1.622 0 5 .461 5-2 1.048 0 3 .473 3-1l1-1c1.774 0 7 .273 7-2h4c2.813 0 3.461 4 5 4 0 3.822 7.201 14 11 14ZM251 115l-1 2c9.275 0 12.872-12.186 20.5-16 4.077-2.038 11.603 5 15.5 5l1 1h2l7 1-16-8c-4.522 0-8.202-3-13-3l-4 4c0 3.485-7.979 14-12 14Z"/><path fill="#197D61" id="SSp-ul6a" d="M123 103c2.801 0 2.72 7 6 7V99l-6 3v1Z"/><path fill="#1D9D5A" id="MOp6b" d="M177 100c0 1.473-1.952 1-3 1 0-1.577 1.762-2 3-2v1Z"/><path fill="#1E9C58" id="MOs6b" d="m178 99-1 1v-1h1Z"/><path fill="#1D9D5A" id="MOp6b" d="M327 122v1c-4.915 0-23.646-15-31-15l-16-8v-1c3.399 0 31.651 13.575 36.5 16 2.431 1.215 6.813 6 10.5 6v1Z"/><path fill="#197D61" id="SSp-ul6a" d="m333 103-5 6c0-4.203-1-6.019-1-10l6 3v1Z"/><path fill="#1D9D5A" id="MOp6b" d="M174 101c-1.424 0-5 .362-5 2 1.622 0 5 .461 5-2Z"/><path fill="#C9C7C9" id="ccb" d="m236 121 2 1c1.831 0 9-2.183 9-4l3-1c9.275 0 12.872-12.186 20.5-16 4.077-2.038 11.603 5 15.5 5l1 1h2c0 3.625 11 2.917 11 6-2.654 0-5.275-.888-7.5-2-.892-.446-21.482 3.241-23 4-8.999 4.5-30.529 24.236-41 19l-4 1c-6.252-3.126-14.203-4.601-21-8-7.756-3.878-14.393-10.196-22-14-5.526-2.763-20.264 0-25.5 0l12-6h1l1-1c4.324 0 11.776-7.362 16.5-5 6.895 3.447 10.893 16 19.5 16l3 1c0 1.653 7.372 4 9 4l3-1 5.5 2 2-2c.739 0 1.465 3.267 4 2l3.5-2Z"/><path fill="#40A465" id="ACAv6b" d="M195 101c0 6.563 10 9.146 10 14-3.799 0-11-10.178-11-14h1ZM263 101c0 3.485-7.979 14-12 14 0-4.32 10-8.195 10-14h2Z"/><path fill="#187D61" id="SSp-m6a" d="M104 165h1c0-17.009 5.333-18.165 12-31.5l12-11.5v-12c-3.28 0-3.199-7-6-7-14.517 0-34 33.066-34 46v1c3.668 0 2 14.057 2 17 3.982 0 8.748-2 13-2Z"/><path fill="#1D9D5A" id="MOp6b" d="M169 103c-1.465 0-4-.109-4 2l4-2Z"/><path fill="#187D61" id="SSp-m6a" d="m352 165 13 2c0-2.724-1.253-17 2-17 0-13.734-17.891-47-34-47l-5 6c0 4.921-1 6.86-1 12v1c3.127 0 9.74 7.98 11 10.5 5.953 11.907 14 17.9 14 32.5Z"/><path fill="#1D9D5A" id="MOp6b" d="m161 108-5 1c0-2.066 6.92-4 9-4l-4 3Z"/><path fill="#C9C9CA" id="scwm" d="m170 106-1 1 1-1ZM286 106l1 1-1-1ZM130 123c0 4.005-11 6.383-11 12 3.434 0 17.728-18 28-18l1-1h1l1-1h1l2-1 2-1h1l12-6-7 1-5 1c0 1.638-3.576 2-5 2 0 2.109-2.535 2-4 2 0 2.037-9.917 6-12 6 0 1.533-3.753 4-5 4ZM349 161h1c0-10.65-6.639-16.779-11-25.5-2.099-4.199-12-8.537-12-12.5-4.915 0-23.646-15-31-15l-7-1c0 3.625 11 2.917 11 6h1l2 1h1l1 1h2l1 1h1l1 1h2l1 1c12.391 0 36 30.213 36 42v1Z"/><path fill="#1D9D5A" id="MOp6b" d="M156 109c-1.622 0-5-.461-5 2 1.424 0 5-.362 5-2ZM151 111c-1.465 0-4-.109-4 2 1.465 0 4 .109 4-2Z"/><path fill="#CCC7C9" id="ccg" d="M109 152c0 3.708-2 5.942-2 10 1.544 0 3.231-8.963 4-10.5 3.88-7.759 12.059-19.28 20.5-23.5 6.881-3.44 36.662-15.169 45-11 2.737 1.369 6.3.65 9 2l2.5 2c5.272 0 14.51 12 19 12l5.5 4 11 4 5-4 4 4 15.5-6 1-1c0-1.712 2.571-3 4-3 0-1.617 4.583-4 6-4 0-1.727 8.413-6 10-6l1-1c1.739 0 8.646-2.073 10.5-3 9.204-4.602 38.55 8.275 46 12 6.218 3.109 15.735 15.969 18.5 21.5.784 1.568 1.924 9.5 4 9.5 0-11.787-23.609-42-36-42l-1-1h-2l-1-1h-1l-1-1h-2l-1-1h-1l-2-1h-1c-2.654 0-5.275-.888-7.5-2-.892-.446-21.482 3.241-23 4-8.999 4.5-30.529 24.236-41 19l-4 1c-6.252-3.126-14.203-4.601-21-8-7.756-3.878-14.393-10.196-22-14-5.526-2.763-20.264 0-25.5 0h-1l-2 1-2 1h-1l-1 1h-1l-1 1c-10.272 0-24.566 18-28 18 0 1.238-.423 3-2 3l-1 1-1 2-1 1-1 2c0 1.238-.423 3-2 3l-1 4-1 1Z"/><path fill="#7ED04B" id="IG" d="m221 121 5.5 2 2-2c.739 0 1.465 3.267 4 2l3.5-2-2-4-5-5c0 1.399-2 1.399-2 0l-5 5-1 4Z"/><path fill="#1D9D5A" id="MOp6b" d="M147 113c-2.233 0-12 3.671-12 6 2.083 0 12-3.963 12-6Z"/><path fill="#C9C7C9" id="ccb" d="m155 113-2 1 2-1ZM301 113l2 1-2-1ZM153 114l-2 1 2-1ZM304 114l1 1-1-1ZM150 115l-1 1 1-1ZM307 115l1 1-1-1ZM148 116l-1 1 1-1ZM309 116l1 1-1-1Z"/><path fill="#98D5F9" id="CP" d="M126 229c3.055 0 5.429 5 9 5 11.137 0 20.444 2.028 30.5-3 8.628-4.314 8.704-26 17.5-26l1-1 1-1h1l1-1 4-4c0-5.391 1-10.611 1-15.5 0-1.278-.665-5.5 1-5.5v-5l1-2 1-8c0-4.935 3.561-15.378 1-20.5-1.828-3.657-5-11.448-5-15.5-1.803 0-3-3.592-3-5l-2.5-2c-2.7-1.35-6.263-.631-9-2-8.338-4.169-38.119 7.56-45 11-8.441 4.22-16.62 15.741-20.5 23.5-.769 1.537-2.456 10.5-4 10.5v20c1.993 0 1.35 5.2 2 6.5 1.206 2.411 8 25.662 8 27.5v1l2 3v1l2 2v1l5 5ZM330 229l-8 5c-13.641 0-19.951 2.274-32.5-4-7.895-3.947-6.502-25-16.5-25l-8-8c0-5.789-1-11.78-1-17 0-1.321.684-6-1-6l-2-13v-23.5c1.505-3.01 4-6.986 4-10.5l4-6 1-1c1.739 0 8.646-2.073 10.5-3 9.204-4.602 38.55 8.275 46 12 6.218 3.109 15.735 15.969 18.5 21.5.784 1.568 1.924 9.5 4 9.5v24c-1.59 0-1.443 4.386-2 5.5-2.971 5.941-6 16.7-6 23.5v1l-1 1v1l-1 1v1l-1 1-1 1v1l-1 2-1 1-1 1-1 1v1c-2.215 0-1.519 2-3 2Z"/><path fill="#C9C7C9" id="ccb" d="m312 117 1 1-1-1Z"/><path fill="#1D9D5A" id="MOp6b" d="m129 122 1 1c1.247 0 5-2.467 5-4l-6 2v1Z"/><path fill="#AAA8A9" id="SEZ" d="m270 120-1 1 1-1ZM207 133l1 2-3.5-3c-1.628-.814-13.5-8.1-13.5-6-1.803 0-3-3.592-3-5 5.272 0 14.51 12 19 12ZM259 127c2.244 0 6-4.057 6 0l4-6c-1.587 0-10 4.273-10 6Z"/><path fill="#188064" id="SSp-m6b" d="M105 165h1v-2c0-2.516-.018-12 3-12l2-4c0-1.238.423-3 2-3l1-2 1-1 1-2 1-1c0-1.238.423-3 2-3 0-5.617 11-7.995 11-12l-1-1-12 11.5c-6.667 13.335-12 14.491-12 31.5ZM351 165h1c0-14.6-8.047-20.593-14-32.5-1.26-2.52-7.873-10.5-11-10.5v1c0 3.963 9.901 8.301 12 12.5 4.361 8.721 11 14.85 11 25.5v2l1 1v1Z"/><path fill="#A8AAAA" id="VL" d="m197 158-2 4c0-4.935 3.561-15.378 1-20.5-1.828-3.657-5-11.448-5-15.5 0-2.1 11.872 5.186 13.5 6l3.5 3c0 9.504-9 14.079-9 21l-1 1-1 1ZM258 157l3 4v-23.5c1.505-3.01 4-6.986 4-10.5 0-4.057-3.756 0-6 0 0 2.177-4.336 4-6 4 0 1.712-2.571 3-4 3l-1 1-1 3.5c2.898 5.797 11 11.714 11 18.5Z"/><path fill="#AAA8A9" id="SEZ" d="M259 127c-1.417 0-6 2.383-6 4 1.664 0 6-1.823 6-4ZM253 131c-1.429 0-4 1.288-4 3 1.429 0 4-1.288 4-3Z"/><path fill="#97D6F9" id="STR" d="M199 156c3.107 0 21.093-12.297 24.5-14 1.825-.913 3.816 1 5 1 .999 0 2.381-1.81 4-1 2.924 1.462 24.783 15 25.5 15 0-6.786-8.102-12.703-11-18.5l1-3.5-15.5 6-4-4-5 4-11-4-5.5-4 1 2c0 9.504-9 14.079-9 21ZM249 134l-1 1 1-1Z"/><path fill="#C9C9CA" id="scwm" d="M119 135c-1.577 0-2 1.762-2 3 1.577 0 2-1.762 2-3Z"/><path fill="#1A7E62" id="SSs1" d="m61 174-6 1-1-15.5c2.407-4.813 3-16.104 3-21.5l5 2c0 2.346-.899 8.297-2 10.5-2.744 5.488 1 17.217 1 22.5v1Z"/><path fill="#C9C9CA" id="scwm" d="m117 138-1 1 1-1Z"/><path fill="#1A7E62" id="SSs1" d="m396 174 5 1c0-3.901 4.135-10.23 2-14.5-2.001-4.001-4-17.968-4-22.5l-4 1v1c0 10.977 1 22.488 1 34Z"/><path fill="#C9C9CA" id="scwm" d="m116 139-1 2 1-2Z"/><path fill="#1B8063" id="SSs2/3" d="m69 172-8 1c0-5.283-3.744-17.012-1-22.5 1.101-2.203 2-8.154 2-10.5 2.933 0 5.321 3 9 3v1c0 9.134-2 18.097-2 28ZM387 172l9 2c0-11.512-1-23.023-1-34-3.641 0-5.885 3-10 3v1c0 2.721.836 6.171 2 8.5V172Z"/><path fill="#C9C9CA" id="scwm" d="m115 141-1 1 1-1ZM114 142l-1 2 1-2Z"/><path fill="#90CAED" id="LSr" d="m221 208-1.5 3H215c0-1.543 4.634-2.231 3-5.5-2.06-4.12-2.903-8.807-5-13l-8-8c-1.337-2.675-4.376-7.938-7.5-9.5l-4.5 1v-4l1-2 1-8 2-4 1-1 1-1c3.107 0 21.093-12.297 24.5-14 1.825-.913 3.816 1 5 1 .999 0 2.381-1.81 4-1 2.924 1.462 24.783 15 25.5 15l3 4 2 13v2l-3.5-1c-6.792 3.396-16.972 19.444-20.5 26.5-1.823 3.647 2 7.93 2 9.5-5.902 0-5.066-5-6-5 0-11.591-4-21.507-4-33l-2-12.5-.5-8.5-1.5 4.5-1 15.5c-1.473 0-1 1.952-1 3 0 11.433-4 21.511-4 33Z"/><path fill="#187C63" id="SSs4" d="M75 171c-2.124 0-4.436 1-6 1 0-9.903 2-18.866 2-28l7 2c0 7.915-3 15.455-3 24v1Z"/><path fill="#C9C9CA" id="scwm" d="M113 144c-1.577 0-2 1.762-2 3 1.577 0 2-1.762 2-3Z"/><path fill="#187C63" id="SSs4" d="m381 170 6 2v-19.5c-1.164-2.329-2-5.779-2-8.5l-6 2c0 8.218 2 15.327 2 24Z"/><path fill="#1C8063" id="SSs5" d="m88 168-13 2c0-8.545 3-16.085 3-24 3.751 0 6.82 3 11 3v1l-1 17v1ZM368 167c4.062 0 8.575 3 13 3 0-8.673-2-15.782-2-24h-1l-11 4 1 17Z"/><path fill="#C9C9CA" id="scwm" d="M109 151h1l1-4-2 4Z"/><path fill="#197D63" id="SSs6a" d="M88 167h3c0-2.943 1.668-17-2-17l-1 17ZM365 167h3l-1-17c-3.253 0-2 14.276-2 17Z"/><path fill="#C9C9CA" id="scwm" d="M106 163h1v-1c0-4.058 2-6.292 2-10v-1c-3.018 0-3 9.484-3 12Z"/><path fill="#C9C7C9" id="ccb" d="m110 151-1 1v-1h1Z"/><path fill="#97D6F9" id="STR" d="m226 172 2.5-3 2.5 4-2-12.5-.5-8.5-1.5 4.5-1 15.5ZM199 156l-1 1 1-1ZM198 157l-1 1 1-1Z"/><path fill="#CCC7C9" id="ccg" d="M349 167h2v-3l-1-1v-2h-1v6ZM106 167h1v-4h-1v4Z"/><path fill="#C9C9CA" id="scwm" d="m350 163 1 1-1-1Z"/><path fill="#009B74" id="GU6a" d="M105 180c-5.737 0-10.518 5-16 5l-1-17v-1h3c3.982 0 8.748-2 13-2 0 4.607 1 10.052 1 14v1Z"/><path fill="#019C74" id="GU6b" d="M105 179h1v-14h-2c0 4.607 1 10.052 1 14ZM351 179h1v-14h-1v14Z"/><path fill="#009B74" id="GU6a" d="m352 180 15 5c0-5.245 1-12.085 1-18h-3l-13-2v15Z"/><path fill="#C8CBCC" id="ec" d="m106 179 1 1v-13h-1v12ZM351 179l-2 4v-16h2v12Z"/><path fill="#019C75" id="GU5" d="M380 191h1v-21c-4.425 0-8.938-3-13-3 0 5.915-1 12.755-1 18 3.182 0 7.969 4 11.5 4l1.5 2ZM89 185c-2.653 0-11.615 5-13 5 0-5.572-1-12.756-1-19v-1l13-2 1 17Z"/><path fill="#96A7D3" id="MS" d="M220 234h16c0-9.456-1-19.114-1-28 0-11.591-4-21.507-4-33l-2.5-4-2.5 3c0 1.048.473 3-1 3 0 11.433-4 21.511-4 33l-1 26Z"/><path fill="#A8AAAA" id="VL" d="m194 170-1 2 1-2Z"/><path fill="#009C74" id="GU4" d="M381 191h2c0-6.248 4-12.209 4-19l-6-2v21ZM76 190l-3 1c0-6.395-4-12.618-4-19 1.564 0 3.876-1 6-1 0 6.244 1 13.428 1 19Z"/><path fill="#009B75" id="GU2/3" d="M66 195h2c0-1.976 2.876-4 5-4 0-6.395-4-12.618-4-19l-8 1v1c0 7.657 4 13.724 4 21h1Z"/><path fill="#97D6F9" id="STR" d="M226 172c-1.473 0-1 1.952-1 3 1.473 0 1-1.952 1-3Z"/><path fill="#009B75" id="GU2/3" d="M389 195h2c0-6.793 5-13.96 5-21l-9-2c0 6.791-4 12.752-4 19 1.664 0 6 1.823 6 4Z"/><path fill="#009C75" id="GU1" d="m65 195-3 2c-1.353 0-2-4.643-2-6l-5-16 6-1c0 7.657 4 13.724 4 21Z"/><path fill="#A8AAAA" id="VL" d="M264 204h1v-7c0-5.789-1-11.78-1-17 0-1.321.684-6-1-6v2c0 6.734-1 13.866-1 20 0 1.564 1 3.876 1 6v1l1 1Z"/><path fill="#009C75" id="GU1" d="m391 195 4 1 6-21-5-1c0 7.04-5 14.207-5 21Z"/><path fill="#8FCBED" id="LSv" d="M194 195c2.739 0 13.636 16 21 16 0-1.543 4.634-2.231 3-5.5-2.06-4.12-2.903-8.807-5-13l-8-8c-1.337-2.675-4.376-7.938-7.5-9.5l-4.5 1v1c0 6.216 1 12.292 1 18ZM255 203c-5.131 0-7.944 8-14 8 0-1.57-3.823-5.853-2-9.5 3.528-7.056 13.708-23.104 20.5-26.5l3.5 1c0 6.734-1 13.866-1 20l-5 5c-1.747 0-2 .253-2 2Z"/><path fill="#A8AAAA" id="VL" d="M191 198c0 2.312-.868 5 2 5l1-8c0-5.708-1-11.784-1-18-1.665 0-1 4.222-1 5.5 0 4.889-1 10.109-1 15.5Z"/><path fill="#1F9766" id="AId6b" d="M107 182c0 2.409 1 5.181 1 7-3.038 0-3-6.206-3-9v-1h1l1 1v2ZM349 189h1l1-1c0-2.707 1-5.903 1-8v-1h-1l-2 4v6Z"/><path fill="#209666" id="AId6a" d="M94 202h6l-1-10.5c5.039-10.079 10 2.547 10 8.5h2l-3-11c-3.038 0-3-6.206-3-9-5.737 0-10.518 5-16 5 0 3.04 3.2 17 5 17ZM362 203h1c0-6.027 4-11.07 4-18l-15-5c0 2.097-1 5.293-1 8 9.851 0 5 7.71 5 14 2.079 0 3.187 1 6 1Z"/><path fill="#C8CBCC" id="ec" d="M114 211c0 1.076 1.523 5 3 5 0-1.838-6.794-25.089-8-27.5-.65-1.3-.007-6.5-2-6.5 0 2.409 1 5.181 1 7l3 11 1 6 2 5ZM342 212l-1 1c0-6.8 3.029-17.559 6-23.5.557-1.114.41-5.5 2-5.5v5c-.834 0-4 9.747-4 11l-1 6-1 4v1l-1 1Z"/><path fill="#209665" id="AId5" d="M81 205h2l11-2v-1c-1.8 0-5-13.96-5-17-2.653 0-11.615 5-13 5 0 5.567 5 9.89 5 15ZM374 205h1c0-4.584 5-8.761 5-14l-1.5-2c-3.531 0-8.318-4-11.5-4 0 6.93-4 11.973-4 18l11 2Z"/><path fill="#8ADA86" id="CLA" d="M109 200c0 10.519-9 8.36-9 2l-1-10.5c5.039-10.079 10 2.547 10 8.5ZM347 200c0 7.514 9 9.93 9 2 0-6.29 4.851-14-5-14l-1 1-3 11Z"/><path fill="#209666" id="AId6a" d="m351 188-1 1 1-1ZM345 200h2l3-11h-1c-.834 0-4 9.747-4 11Z"/><path fill="#209765" id="AId2/3" d="M81 205c-1.552 0-8 .566-8 2-1.027 0-5-10.602-5-12 0-1.976 2.876-4 5-4l3-1c0 5.567 5 9.89 5 15ZM375 205c2.342 0 5.262 2 8 2 3.561 0 2.945-12 6-12 0-2.177-4.336-4-6-4h-3c0 5.239-5 9.416-5 14Z"/><path fill="#219765" id="AIp1" d="M76 218c-.67 0-5 1.328-5 2-1.57 0-9-19.625-9-23l3-2h1c0 8.302 10 16.254 10 23Z"/><path fill="#209865" id="AIp2/3" d="m77 217-1 1c0-6.746-10-14.698-10-23h2c0 1.398 3.973 12 5 12 0 3.974 4 6.315 4 10Z"/><path fill="#97D6F9" id="STR" d="M205 244c0 4.302 3.582 7.959 7.5 6 1.813-.906 1.331-4 4.5-4 0-3.236 3-8.258 3-12l1-26-1.5 3H215c-7.364 0-18.261-16-21-16l-1 8c1.284 0 2.561-3.47 5.5-2 11.431 5.716 6.5 17.064 6.5 26v17Z"/><path fill="#209865" id="AIp2/3" d="M383 207v4c2.341 0 1.421-2.342 2-3.5 1.814-3.629 6-8.311 6-12.5h-2c-3.055 0-2.439 12-6 12Z"/><path fill="#219765" id="AIp1" d="m380 218 6 1c1.759 0 9-19.867 9-23l-4-1c0 4.189-4.186 8.871-6 12.5-.579 1.158.341 3.5-2 3.5l-2 4-1 3Z"/><path fill="#97D6F9" id="STR" d="M257 201c2.124 0 4.436 1 6 1 0-2.124-1-4.436-1-6l-5 5ZM265 204c1.384 0 1.123-3.189 3.5-2l4.5 3-8-8v7ZM187 202c1.643 0 6 2.877 6 1-2.868 0-2-2.688-2-5l-4 4Z"/><path fill="#1F9866" id="AIv6a" d="m105 210-7 2-4-9v-1h6c0 6.36 9 8.519 9-2h2l1 6-5 3h-1l-1 1ZM350 209l9 3c0-3.647 3-5.609 3-9-2.813 0-3.921-1-6-1 0 7.93-9 5.514-9-2h-2l-1 6c1.076 0 5 1.523 5 3h1Z"/><path fill="#80CDF8" id="ACB" fill-rule="evenodd" d="M133 237c0 6.029 4 11.053 4 17l8.5 9c7.282 3.641 28.784-.892 35-4 2.825-1.412 17.633-17.766 19.5-21.5.885-1.77 2.747-10.5 5-10.5 0-8.936 4.931-20.284-6.5-26-2.939-1.47-4.216 2-5.5 2 0 1.877-4.357-1-6-1l-1 1h-1l-1 1-1 1c-8.796 0-8.872 21.686-17.5 26-10.056 5.028-19.363 3-30.5 3 0 1.481-2 .785-2 3m54-28c-8.508 0-11.066 15-4.5 15 8.076 0 12.316-15 5.5-15 0-1.186-1-1.186-1 0Z"/><path fill="#97D6F9" id="STR" d="M257 201c-1.747 0-2 .253-2 2l2-2Z"/><path fill="#80CDF8" id="ACB" fill-rule="evenodd" d="M323 238c0 6.188-4 10.315-4 16l-3.5 4c-9.836 9.836-28.302 6.349-39 1-4.827-2.413-18.617-18.733-20.5-22.5-.844-1.687-3.338-11.5-5-11.5l-1-13.5c1.307-2.614 5-5.44 5-8.5l2-2c2.124 0 4.436 1 6 1v1l1 1h1c1.384 0 1.123-3.189 3.5-2l4.5 3c9.998 0 8.605 21.053 16.5 25 12.549 6.274 18.859 4 32.5 4l1 4m-54-29c17.684 0 5.338 27.175-4 8.5-1.182-2.364 1-5.696 1-7.5l1-1h1c0-1.186 1-1.186 1 0Z"/><path fill="#97D6F9" id="STR" d="m187 202-1 1 1-1Z"/><path fill="#1F9865" id="AIv5" d="M89 214h3c0-.913 5.014-2 6-2l-4-9-11 2c0 2.979 6 5.551 6 9Z"/><path fill="#97D6F9" id="STR" d="m185 203-1 1 1-1ZM252 235c-1.614 0-1 3.31-1 4.5 0 3.975.705 9.398-3.5 11.5-3.441 1.721-5.633-6-8.5-6 0-3.355-3-7.471-3-11 0-9.456-1-19.114-1-28 .934 0 .098 5 6 5 6.056 0 8.869-8 14-8 0 3.06-3.693 5.886-5 8.5l1 13.5 1 10ZM263 203l1 1-1-1Z"/><path fill="#1F9865" id="AIv5" d="M364 214h3l7-9-11-2h-1c0 3.391-3 5.353-3 9 .671 0 5 1.328 5 2Z"/><path fill="#97D6F9" id="STR" d="m184 204-1 1 1-1Z"/><path fill="#219764" id="AIv2/3" d="M89 214c0 1.693-9.924 3-12 3 0-3.685-4-6.026-4-10 0-1.434 6.448-2 8-2h2c0 2.979 6 5.551 6 9ZM381 215l-2 2c-1.761 0-12-1.873-12-3l7-9h1c2.342 0 5.262 2 8 2v4c-2.109 0-2 2.535-2 4Z"/><path fill="#8AD987" id="CTXsp" d="M107 209c2.765 0 5.165 2 7 2l-2-5-5 3ZM349 209c-2.124 0-4.436 1-6 1l1-4c1.076 0 5 1.523 5 3Z"/><path fill="#97D6F9" id="STR" d="M187 209h1c0-1.186-1-1.186-1 0ZM268 209h1c0-1.186-1-1.186-1 0Z"/><path fill="#99D2BD" id="OLF" d="M105 210h1v-1l-1 1Z"/><path fill="#8AD987" id="CTXsp" d="m107 209-1 1v-1h1Z"/><path fill="#A0EE9C" id="EPd" d="M119 232h3c0-1.317 3.356-1.788 2-4.5l-3-3.5v-1l-2-2v-1c-1.577 0-2-1.762-2-3v-1c-1.477 0-3-3.924-3-5-1.835 0-4.235-2-7-2l-1 1h-1c0 2.749-4 5.105-4 9v1l1 1 1 2 2 2h1l2 2h1l1 1h1l1 1 2 1 1 1 4 1Z"/><path fill="#CBCBC7" id="aco" d="M187 209h1c6.816 0 2.576 15-5.5 15-6.566 0-4.008-15 4.5-15Z"/><path fill="#97D6F9" id="STR" d="m267 209-1 1 1-1Z"/><path fill="#CBCBC7" id="aco" d="M269 209c17.684 0 5.338 27.175-4 8.5-1.182-2.364 1-5.696 1-7.5l1-1h2Z"/><path fill="#A0EE9C" id="EPd" d="M338 232h1l1-1h1l1-1h1l1-1h1l1-1 1-1 3-1 1-1 1-1 1-1 1-1 1-1v-1c0-5.688-5-9.678-5-11h-1c-2.124 0-4.436 1-6 1v1l-1 1-1 1v1l-1 1v1l-1 1v1l-1 1v1l-1 1-1 2-1 1-1 1-1 1v1c0 2.413 1 3.51 1 5h4Z"/><path fill="#99D2BD" id="OLF" d="M364 214c-4.789 0-6.198 6-9 6 0-5.688-5-9.678-5-11l9 3c.671 0 5 1.328 5 2ZM92 214c5.159 0 7.584 5 9 5 0-3.895 4-6.251 4-9l-7 2c-.986 0-6 1.087-6 2Z"/><path fill="#8AD987" id="CTXsp" d="m343 211-1 1 1-1Z"/><path fill="#209865" id="AIp2/3" d="M383 211c-2.109 0-2 2.535-2 4l2-4Z"/><path fill="#6ACAB9" id="PIR" d="m119 262 2 1c2.909 0 4.795-5 8-5l1-1c0-4.898 3.743-9.015 1-14.5l-8.5-8.5-3.5-2-4-1-1-1-2-1-1-1h-1l-1-1h-1l-2-2h-1l-2-2-1-2-1-1v-1c-1.416 0-3.841-5-9-5h-3c0 1.693-9.924 3-12 3l-1 1c-.67 0-5 1.328-5 2 0 6.559 16.59 30 24 30 5.636 0 24 5.646 24 12Z"/><path fill="#C8CBCC" id="ec" d="m341 214-1 1 1-1Z"/><path fill="#6ACAB9" id="PIR" d="m337 262-2 1-7-5c0-2.947-6.86-7.781-3-15.5l6.5-7.5 6.5-3h1l1-1h1l1-1h1l1-1h1l1-1 1-1 3-1 1-1 1-1 1-1 1-1 1-1v-1c2.802 0 4.211-6 9-6h3c0 1.127 10.239 3 12 3l1 1 6 1c0 6.36-18.579 32-25 32 0-1.263-5.36-1.57-6.5-1-2.698 1.349-17.5 8.679-17.5 12Z"/><path fill="#209865" id="AIp2/3" d="m379 217 1 1 1-3-2 2Z"/><path fill="#C8CBCC" id="ec" d="m340 216-1 1 1-1ZM117 217l2 3c-1.577 0-2-1.762-2-3ZM339 218l-1 1 1-1ZM337 220h1v-1l-1 1Z"/><path fill="#99D2BD" id="OLF" d="m101 220 1 1-1-1Z"/><path fill="#8AD987" id="CTXsp" d="m338 220-1 1v-1h1ZM119 221l2 2-2-2ZM337 221l-1 2 1-2Z"/><path fill="#99D2BD" id="OLF" d="m355 221-1 1 1-1ZM354 222l-1 1 1-1ZM103 223l2 2-2-2ZM353 223l-1 1 1-1Z"/><path fill="#8AD987" id="CTXsp" d="M122 232h3c0-1.532 1-.95 1-3l-5-5 3 3.5c1.356 2.712-2 3.183-2 4.5ZM335 224l-1 1 1-1Z"/><path fill="#99D2BD" id="OLF" d="m352 224-1 1 1-1ZM106 225l2 2-2-2Z"/><path fill="#A2B1D7" id="SI" d="m265 271 1 3c8.818 0 34.945 4.277 41.5 1 5.474-2.737 10.318-6.318 15-11l4.5-6-8-4-3.5 4c-9.836 9.836-28.302 6.349-39 1-4.827-2.413-18.617-18.733-20.5-22.5-.844-1.687-3.338-11.5-5-11.5l1 10c0 5.986 2 12.428 2 17l7 14c1.811 0 4 3.438 4 5Z"/><path fill="#8AD987" id="CTXsp" d="m334 225-1 1 1-1Z"/><path fill="#99D2BD" id="OLF" d="m351 225-1 1 1-1ZM109 227l1 1-1-1Z"/><path fill="#A2B1D7" id="SI" d="M191 271v3c-8.969 0-34.842 4.329-41.5 1l-10-6c-3.012-1.506-9.5-7.385-9.5-11v-1c3.047 0 4.462-3 7-3l8.5 9c7.282 3.641 28.784-.892 35-4 2.825-1.412 17.633-17.766 19.5-21.5.885-1.77 2.747-10.5 5-10.5v17c-1.434 0-2 6.448-2 8l-1 1-7 13c-1.712 0-3 2.571-3 4l-1 1Z"/><path fill="#8AD987" id="CTXsp" d="M331 232h3c0-1.49-1-2.587-1-5-2.215 0-1.519 2-3 2l1 3Z"/><path fill="#99D2BD" id="OLF" d="m347 227-1 1 1-1ZM111 228l1 1-1-1ZM346 228l-1 1 1-1Z"/><path fill="#97D6F9" id="STR" d="M135 234c0 1.481-2 .785-2 3-2.92 0-4.233-5-8-5 0-1.532 1-.95 1-3 3.055 0 5.429 5 9 5ZM322 234l1 4c2.605 0 3.957-6 8-6l-1-3-8 5Z"/><path fill="#99D2BD" id="OLF" d="m344 229-1 1 1-1ZM114 230l1 1-1-1ZM342 230l-1 1 1-1ZM340 231l-1 1 1-1ZM137 254c-2.538 0-3.953 3-7 3 0-4.898 3.743-9.015 1-14.5l-8.5-8.5-3.5-2h6c3.767 0 5.08 5 8 5 0 6.029 4 11.053 4 17ZM327 258h1c0-2.947-6.86-7.781-3-15.5l6.5-7.5 6.5-3h-7c-4.043 0-5.395 6-8 6 0 6.188-4 10.315-4 16l8 4Z"/><path fill="#96A6D3" id="NDB" d="M212 271h1l1-1 1-1h1l1-1 1-1 1-1c0-3.187 5.492-16 9.5-16 2.666 0 8.5 13.844 8.5 16l1 1 2 1c1.779 0 20 13.209 20 1l-2-4c-2.457 0-9-5.487-9-8-3.581 0-10-8.888-10-12 0-3.355-3-7.471-3-11h-16c0 3.742-3 8.764-3 12 0 3.103-6.574 11-10 11 0 3.053-7.225 9-10 9 0 1.048.473 3-1 3 0 6.533 9.473 4 13 4 0-1.577 1.762-2 3-2Z"/><path fill="#E64438" id="HY" d="M254 252c-2.868 0-5 2.132-5 5-3.581 0-10-8.888-10-12 2.867 0 5.059 7.721 8.5 6 4.205-2.102 3.5-7.525 3.5-11.5 0-1.19-.614-4.5 1-4.5 0 5.986 2 12.428 2 17ZM203 252c2.96 0 4 2.399 4 5 3.426 0 10-7.897 10-11-3.169 0-2.687 3.094-4.5 4-3.918 1.959-7.5-1.698-7.5-6-1.434 0-2 6.448-2 8Z"/><path fill="#CAC8C7" id="lot" d="M118 267h1v-5c0-6.354-18.364-12-24-12 0 1.817 21.346 17 23 17Z"/><path fill="#FE5446" id="AVPV" d="M236 266h1c0-2.156-5.834-16-8.5-16-4.008 0-9.5 12.813-9.5 16h1c3.572 0 4.567-2.534 7.5-4l8.5 4Z"/><path fill="#CAC8C7" id="lot" d="m337 266 2 1c2.519 0 4.259-2.759 6-4.5 2.949-2.949 16-7.964 16-11.5 0-1.263-5.36-1.57-6.5-1-2.698 1.349-17.5 8.679-17.5 12v4Z"/><path fill="#E64438" id="HY" d="m203 252-1 1 1-1Z"/><path fill="#F2473B" id="LPO" d="M195 266c0 1.93 1.161 0 2 0 2.775 0 10-5.947 10-9 0-2.601-1.04-5-4-5l-1 1-7 13ZM258 265l3 1-7-14c-2.868 0-5 2.132-5 5 0 2.513 6.543 8 9 8Z"/><path fill="#99D2BD" id="OLF" d="M129 258h1v-1l-1 1Z"/><path fill="#7FCCF7" id="OT" d="M191 274c4.228 0 8 2.34 8 7-1.59 0-1.443 4.386-2 5.5l-7.5 6.5c-3.97 1.985-10.115.057-14 2-15.968 7.984-39.562 4.376-48.5-13.5-1.826-3.652-7-7.228-7-11.5v-5l1-2c2.909 0 4.795-5 8-5h1c0 3.615 6.488 9.494 9.5 11l10 6c6.658 3.329 32.531-1 41.5-1ZM266 274c-5.289 0-8 2.892-8 7 0 9.049 9.393 10.947 15.5 14h7c16.592 8.296 39.664 4.172 48.5-13.5 1.396-2.792 7-6.282 7-10.5v-6l-1-2-7-5h-1l-4.5 6c-4.682 4.682-9.526 8.263-15 11-6.555 3.277-32.682-1-41.5-1Z"/><path fill="#99D2BD" id="OLF" d="M119 265h1l1-2-2-1v3ZM336 265h1v-3l-2 1 1 2Z"/><path fill="#97D6F9" id="STR" d="m119 268 1 2v-5h-1v3Z"/><path fill="#E64438" id="HY" d="M260 269c2.567 0 3.913 2 5 2 0-1.562-2.189-5-4-5l-3-1 2 4Z"/><path fill="#97D6F9" id="STR" d="m337 269-1 2v-6h1v4Z"/><path fill="#E64438" id="HY" d="m196 269-4 1c0-1.429 1.288-4 3-4 0 1.93 1.161 0 2 0 0 1.048.473 3-1 3ZM220 266l-2 1 1-1h1ZM237 266l1 1-2-1h1Z"/><path fill="#99D2BD" id="OLF" d="m339 267-2 2v-3l2 1ZM119 267v1l-1-1h1Z"/><path fill="#8599CC" id="PAL" d="m217 268-1 1 1-1ZM266 274c-5.289 0-8 2.892-8 7l-3.5-3c-2.405-1.202-14.5-6.937-14.5-10 1.779 0 20 13.209 20 1 2.567 0 3.913 2 5 2l1 3ZM191 274c4.228 0 8 2.34 8 7l10-8c-3.527 0-13 2.533-13-4l-4 1-1 1v3ZM215 269l-1 1 1-1Z"/><path fill="#E64438" id="HY" d="m192 270-1 1 1-1Z"/><path fill="#8599CC" id="PAL" d="m214 270-1 1 1-1ZM212 271c-1.238 0-3 .423-3 2 1.238 0 3-.423 3-2Z"/><path fill="#CBCCC7" id="IIn" d="M215 275c0 2.167-6.767 5.033-8 7.5-2.186 4.371 5.413 7.044 8.5 5.5 8.55-4.275 12.153-13-.5-13ZM234 275c0 1.423-1.978 3.544-1 5.5 1.596 3.193 12.747 12.505 16 6 4.198-8.396-9.978-11.5-15-11.5Z"/></svg>