<svg xmlns="http://www.w3.org/2000/svg" viewBox="0 0 456 320"><path fill="#268F45" id="FRP1" d="M217 117v2l-1.5 2-11-6c-3.928-1.964-26.227-8-30.5-8-2.418 0 .956-3.728 1.5-4 4.597-2.298 10.416-1.708 15-4 9.924-4.962 26.5 4.07 26.5 16v2ZM283 107c-4.751 0-26.168 5.834-30.5 8l-12 6-1.5-3c0-4.676.082-8.664 2-12.5 3.008-6.016 19.788-8.856 26.5-5.5 3.995 1.997 15.5-.272 15.5 7Z"/><path fill="#99D2BD" id="OLF" d="m220 127-3 1c0-3.362-5.252-5.876-7.5-7-11.479-5.739-27.512-5.744-39 0l-11.5 6c0-5.423 15-10.51 15-20 4.273 0 26.572 6.036 30.5 8l11 6 1.5-2 3 8ZM239 127l9.5-8c3.043-1.522 25.27-3.865 29-2 6.899 3.449 14.689 5.689 20.5 11.5 1.723 1.723 5.098 9.5 7 9.5 0-12.232-22-18.026-22-31-4.751 0-26.168 5.834-30.5 8l-12 6-1.5-3c0 3.68-2 5.511-2 9h2ZM217 115c1.399 0 1.399 2 0 2v-2Z"/><path fill="#9AD1BD" id="MOB" fill-rule="evenodd" d="M187 196c0 2.587-2.196 14 1.5 14 3.597 0 4.713-14-1.5-14m-19-7c0 8.724 2.325 19.15 6 26.5l4.5 6.5c.878.439 3.5-.369 3.5-1.5 0-2.656-10.716-31.5-14-31.5m8-15c0 4.585 3.046 9.593 5 13.5l1.5 3.5-.5-5.5c0-3.399-1.901-11.5-6-11.5m-11 38c0 11.429 18.281 37 31 37 12.754 0 17.865-10.23 23-20.5l1-7c5.688-11.375 6.863-59.273 1-71l-1-15-3-7.5c0-3.362-5.252-5.876-7.5-7-11.479-5.739-27.512-5.744-39 0l-11.5 6c0 1.747-.253 2-2 2 0 1.238-.423 3-2 3 0 1.238-.423 3-2 3v1l-1 1v1l-1 1v2l-1 2v1l-1 2v20l1 2v2l1 2v3l1 2v2l1 1v3l1 1v1l1 2v2l1 1v1l1 1v2l1 2v1l1 1v2l1 1v1l1 1v2l1 1v1l1 1v1l2 3m10-48c0 .723 8.153 12.194 10 8.5l-1-5.5c4.035 0 7.235-2.969 9-6.5.548-1.096 1.818-7.5 0-7.5 0-1.713 8.543-8 1-8 0-3.459.437-7.627-1-10.5l-4-4.5c0-5.48-14-7.489-14-1 0 2.127-5 5.597-5 11-1.777 0-5-2.985-5 1-5.357 0 0 11.701 0 6h1c0 6.126 9 16.186 9 17ZM267 196l-2 5v4c0 1.854 2.901 7.699 5 3.5 1.496-2.993.251-12.5-3-12.5m20-8-4 5.5c-2.859 5.717-2.112 13.224-5 19-.62 1.241-5.448 8.026-2.5 9.5 7.089 3.545 10.706-22.912 12.5-26.5.827-1.655 1.41-7.5-1-7.5m-8-15-4 6.5v7c-.07.139-2.292 3.5-.5 3.5l5.5-12.5c.504-1.008.22-4.5-1-4.5m13 38-3 6.5c-5.623 11.245-12.538 31.5-29 31.5-12.962 0-18.2-11.901-23-21.5l-1-8c-5.406-10.812-6.537-54.925-1-66l1-15c1.376-2.752 3-8.434 3-11.5l9.5-8c3.043-1.522 25.27-3.865 29-2 6.899 3.449 14.689 5.689 20.5 11.5 1.723 1.723 5.098 9.5 7 9.5v2l1 1v2l1 1v4c0 1.048-.473 3 1 3v7c-1.643 0-1 3.765-1 5v5l-1 2v2l-1 2v3l-1 2v1l-1 1v3l-1 1v2l-1 1v2l-1 1v1l-1 1v2l-1 2-1 2v2l-1 1v1l-1 1v2l-1 1-1 2v1l-1 1m-12-46c0 2.826-8 14.734-8 2-7.112 0-9-8.347-9-14 0-.395-6.016-8-1.5-8l1.5 1c0-3.327-1.699-7.103 0-10.5l5-5.5c0-6.331 13-7.276 13 0 3.693 0 6 5.913 6 9 2.362 0 5-1.043 5 3 1.904 0 3.27 7 .5 7l-1.5-2c0 5.708-10 16.103-10 17l-1 1Z"/><path fill="#9DF0D1" id="AOBgl" d="m175 129 4.5 2 9.5-1c0-5.48-14-7.489-14-1ZM268 130h13c0-7.276-13-6.331-13 0Z"/><path fill="#99D2BD" id="OLF" d="M159 127c-1.747 0-2 .253-2 2 1.747 0 2-.253 2-2Z"/><path fill="#C7CBCA" id="onl" d="M227 210c0 9.677 1.356 40.788-2 47.5-4.36 8.721-17.568-2.534-21.5-4.5-1.637-.819-7.5-1.175-7.5-4 12.754 0 17.865-10.23 23-20.5l1-7c5.688-11.375 6.863-59.273 1-71l-1-15-3-7.5 3-1c1.344 0 1.387 7.273 2 8.5 5.255 10.509 5 24.869 5 37.5 0 1.321-.684 6 1 6v23c-1.735 0-1 6.51-1 8ZM239 127c0 3.066-1.624 8.748-3 11.5l-1 15c-5.537 11.075-4.406 55.188 1 66l1 8c4.8 9.599 10.038 21.5 23 21.5 0 2.236-5.074 3.287-6.5 4-3.892 1.946-18.138 13.224-22.5 4.5-2.55-5.099-1-21.38-1-28 0-17.042-1-35.327-1-53 0-7.813-1.268-17.464 2-24 1.563-3.125 2.769-25.5 6-25.5h2Z"/><path fill="#99D2BD" id="OLF" d="M157 129c-1.577 0-2 1.762-2 3 1.577 0 2-1.762 2-3Z"/><path fill="#9DEFD2" id="AOBmi" d="m194 145-1 2c0 11.338-23 4.556-23-7 0-5.403 5-8.873 5-11l4.5 2 9.5-1 4 4.5c1.437 2.873 1 7.041 1 10.5ZM287 139c0 12.565-24 20.393-24 7 0-3.327-1.699-7.103 0-10.5l5-5.5h13c3.693 0 6 5.913 6 9Z"/><path fill="#99D2BD" id="OLF" d="M155 132c-1.577 0-2 1.762-2 3 1.577 0 2-1.762 2-3ZM153 136l-1 1 1-1ZM152 138l-1 1 1-1Z"/><path fill="#CACAC9" id="lotd" d="M291 147c-5.769 0-8.228 7.364-13.5 10-5.85 2.925-10.098-4-14.5-4 0-.395-6.016-8-1.5-8l1.5 1c0 13.393 24 5.565 24-7 2.362 0 5-1.043 5 3l-1 5ZM166 147c4.069 0 9.308 7.904 13.5 10 5.53 2.765 9.605-4 13.5-4 0-1.713 8.543-8 1-8l-1 2c0 11.338-23 4.556-23-7-1.777 0-5-2.985-5 1v6h1Z"/><path fill="#99D2BD" id="OLF" d="m305 140 1 1-1-1ZM151 141l-1 2 1-2Z"/><path fill="#CAC8C7" id="lot" d="M165 141c-5.357 0 0 11.701 0 6v-6ZM292 142c1.904 0 3.27 7 .5 7l-1.5-2 1-5Z"/><path fill="#99D2BD" id="OLF" d="m306 143 1 1-1-1ZM150 144l-1 2 1-2Z"/><path fill="#9AD1BD" id="MOB" d="m194 145-1 2 1-2Z"/><path fill="#95E4C8" id="AOBgr" d="m175 164 9 3c4.035 0 7.235-2.969 9-6.5.548-1.096 1.818-7.5 0-7.5-3.895 0-7.97 6.765-13.5 4-4.192-2.096-9.431-10-13.5-10 0 6.126 9 16.186 9 17ZM280 165l-8 2c-7.112 0-9-8.347-9-14 4.402 0 8.65 6.925 14.5 4 5.272-2.636 7.731-10 13.5-10 0 5.708-10 16.103-10 17l-1 1Z"/><path fill="#99D2BD" id="OLF" d="M307 148c1.473 0 1 1.952 1 3-1.473 0-1-1.952-1-3ZM149 151c-1.602 0-1.602 7 0 7v-7ZM308 158c-1.643 0-1 3.765-1 5 1.643 0 1-3.765 1-5Z"/><path fill="#CBCBC7" id="aco" d="m175 164 9 3 1 5.5c-1.847 3.694-10-7.777-10-8.5ZM281 164l-1 1 1-1ZM280 165l-8 2c0 12.734 8 .826 8-2Z"/><path fill="#99D2BD" id="OLF" d="m149 166 1 2-1-2ZM307 168l-1 2 1-2ZM150 170l1 2-1-2ZM306 172l-1 2 1-2ZM227 173c1.684 0 1 4.679 1 6-1.684 0-1-4.679-1-6Z"/><path fill="#54BF94" id="AON" d="m279 173-4 6.5v7c-.07.139-2.292 3.5-.5 3.5l5.5-12.5c.504-1.008.22-4.5-1-4.5ZM176 174c0 4.585 3.046 9.593 5 13.5l1.5 3.5-.5-5.5c0-3.399-1.901-11.5-6-11.5Z"/><path fill="#99D2BD" id="OLF" d="m151 175 1 2-1-2ZM305 177l-1 2 1-2ZM152 179l1 1-1-1ZM304 180l-1 1 1-1ZM153 183l1 1-1-1ZM303 184l-1 1 1-1ZM154 185l1 2-1-2ZM302 187l-1 1 1-1Z"/><path fill="#CAC8C7" id="lot" d="m287 188-4 5.5c-2.859 5.717-2.112 13.224-5 19-.62 1.241-5.448 8.026-2.5 9.5 7.089 3.545 10.706-22.912 12.5-26.5.827-1.655 1.41-7.5-1-7.5Z"/><path fill="#99D2BD" id="OLF" d="m155 189 1 1-1-1Z"/><path fill="#CAC8C7" id="lot" d="M168 189c0 8.724 2.325 19.15 6 26.5l4.5 6.5c.878.439 3.5-.369 3.5-1.5 0-2.656-10.716-31.5-14-31.5Z"/><path fill="#99D2BD" id="OLF" d="m301 190-1 1 1-1ZM156 191l1 1-1-1ZM300 192l-1 1 1-1ZM157 194l1 2-1-2ZM299 195l-1 2 1-2Z"/><path fill="#CBCBC7" id="aco" d="M187 196c0 2.587-2.196 14 1.5 14 3.597 0 4.713-14-1.5-14ZM267 196l-2 5v4c0 1.854 2.901 7.699 5 3.5 1.496-2.993.251-12.5-3-12.5Z"/><path fill="#99D2BD" id="OLF" d="m158 197 1 1-1-1ZM298 197l-1 2 1-2ZM159 200l1 1-1-1ZM297 201l-1 1 1-1ZM160 202l1 1-1-1ZM228 202c-1.735 0-1 6.51-1 8 1.735 0 1-6.51 1-8ZM296 203l-1 1 1-1ZM161 205l1 1-1-1ZM295 206l-1 1 1-1ZM162 207l1 1-1-1ZM294 207l-1 2 1-2ZM163 209l2 3c-1.577 0-2-1.762-2-3ZM293 210l-1 1 1-1Z"/></svg>