<svg xmlns="http://www.w3.org/2000/svg" viewBox="0 0 456 320"><path fill="#99D2BD" id="OLF" d="M183 203c0-6.563 3.999-6.497 6-10.5l2-12 6-7c2.972-5.945.999-13.999 4-20 2.774-5.548 18.118-.763 20 3 1.738 3.476-.621 35.241-2 38-1.969 3.937-4 9.901-4 14.5 6.007 0 6.952-8 11-8 0-10.994 4.294-45.911 0-54.5l-1-17-5-3c-12.929-12.929-26.558-4.971-39.5 1.5-4.119 2.06-14.5 7.202-14.5 12 1.804 0 1 14.759 1 17 0 12.577 4.78 23.06 10 33.5 1.062 2.125 2.915 12.5 6 12.5ZM273 204c0-8.842-2.739-5.978-6-12.5l-1-10c-1.697-3.394-5.354-5.707-7-9-2.938-5.876-.995-13.989-4-20-2.059-4.117-18.562 1.124-20 4-2.581 5.162 1.882 39.765 4 44l4 9.5c-6.608 0-9.829-9-12-9 0-14.183-4.312-60.876 1-71.5l5-3c1.828-3.655 6.12-3.81 9.5-5.5 11.566-5.783 21.333 3.166 31 8 4.308 2.154 15.5 9.053 15.5 15l-3.5-4-.5 20c0 11.054-4.411 20.322-9 29.5-1.052 2.104-4.867 14.5-7 14.5ZM166 140l-1 1 1-1Z"/><path fill="#C7CBCA" id="onl" d="m214 210-1 1-7.5 7c-8.805 4.403-20.5 2.59-20.5-10l-1-1v-1l-1-2v-1c-3.085 0-4.938-10.375-6-12.5-5.22-10.44-10-20.923-10-33.5 0-2.241.804-17-1-17l-1 1v1l-1 1-1 2v1c0 1.048.473 3-1 3 0 1.048.473 3-1 3v30c.954 0 2 6.385 2 7.5 0 7.087 2 13.82 2 21.5 0 9.818 2.984 17.742 11.5 22 2.529 1.264 6.486 5.757 10 4 13.858-6.929 39.5-16.493 39.5-36-4.048 0-4.993 8-11 8l-1 1ZM271 209c0 18.592-28 11.24-28 1-6.608 0-9.829-9-12-9 0 2.443-1.333 4.833 0 7.5 7.942 15.884 25.128 21.814 38.5 28.5 1.495.748 2.953-.477 4-1 12.748-6.374 17.5-8.932 17.5-25 0-7.251 2-12.927 2-20 0-.986 1.087-6 2-6v-35c-1.014 0-2-3.959-2-5v-1l-3.5-4-.5 20c0 11.054-4.411 20.322-9 29.5-1.052 2.104-4.867 14.5-7 14.5v2l-1 1v1l-1 1Z"/><path fill="#99D2BD" id="OLF" d="m165 142-1 1 1-1ZM164 143l-1 2 1-2ZM293 145c1.638 0 2 3.576 2 5-1.014 0-2-3.959-2-5ZM163 146c-1.473 0-1 1.952-1 3 1.473 0 1-1.952 1-3ZM162 149c-1.473 0-1 1.952-1 3 1.473 0 1-1.952 1-3Z"/><path fill="#9AD1BD" id="MOB" d="m214 210-1 1-7.5 7c-8.805 4.403-20.5 2.59-20.5-10l-1-1v-1l-1-2v-1c0-6.563 3.999-6.497 6-10.5l2-12 6-7c2.972-5.945.999-13.999 4-20 2.774-5.548 18.118-.763 20 3 1.738 3.476-.621 35.241-2 38-1.969 3.937-4 9.901-4 14.5l-1 1ZM271 209c0 18.592-28 11.24-28 1l-4-9.5c-2.118-4.235-6.581-38.838-4-44 1.438-2.876 17.941-8.117 20-4 3.005 6.011 1.062 14.124 4 20 1.646 3.293 5.303 5.606 7 9l1 10c3.261 6.522 6 3.658 6 12.5v2l-1 1v1l-1 1Z"/><path fill="#99D2BD" id="OLF" d="M295 154c1.643 0 1 3.765 1 5v17c0 1.321.684 6-1 6v-28ZM161 159c-1.649 0-1.649 16 0 16v-16ZM161 182c.954 0 2 6.385 2 7.5 0 7.087 2 13.82 2 21.5-6.084 0-4-23.579-4-29ZM295 185c-.913 0-2 5.014-2 6 0 7.073-2 12.749-2 20 7.526 0 4-21.256 4-26ZM183 204l1 2-1-2ZM273 206l-1 1 1-1ZM184 207l1 1-1-1ZM272 208l-1 1 1-1ZM215 209l-1 1 1-1ZM214 210l-1 1 1-1Z"/></svg>