<svg xmlns="http://www.w3.org/2000/svg" viewBox="0 0 456 320"><path fill="#1E9C59" id="MOs1" d="M142 74h1c0-2.345 15.186-6.843 17.5-8 8.645-4.323 44.116-16.268 50.5-3.5 1.19 2.38 7 3.714 7 7.5h1l3-3c0-3.355-5.735-8.617-8.5-10-2.798-1.4-6.541-4.27-10-6-8.342-4.171-35.458 4.729-42 8-2.455 1.228-19.5 7.084-19.5 9v6ZM238 69l5.5-6c5.844-2.922 16.852-10.074 25-6 10.097 5.049 22.859 4.93 33 10 3.248 1.624 8.934 7 12.5 7l1-6c0-1.348-13.645-6.072-15.5-7-12.488-6.244-34.058-15.471-49-8-5.17 2.585-15.5 6.158-15.5 14l3 2Z"/><path fill="#1E9D58" id="MOs2/3" d="M212 74c-2.911 0-13.119-11.19-23.5-6-10.866 5.433-22.023 10.511-33 16L144 91c0-4.747-1-10.349-1-17 0-2.345 15.186-6.843 17.5-8 8.645-4.323 44.116-16.268 50.5-3.5 1.19 2.38 7 3.714 7 7.5 0 .409-4.928 4-6 4ZM314 74c0 5.019-1 10.592-1 17-4.476 0-9.575-6.038-13.5-8-10.257-5.129-20.806-9.903-31-15-10.101-5.05-21.393 6-24.5 6l-6-4v-1l5.5-6c5.844-2.922 16.852-10.074 25-6 10.097 5.049 22.859 4.93 33 10 3.248 1.624 8.934 7 12.5 7Z"/><path fill="#1F9D58" id="MOs5" d="m195 93-6.5-1c-9.701 4.85-20.282 8.141-30 13l-13.5 8c0-8.768-1-14.937-1-22l11.5-7c10.977-5.489 22.134-10.567 33-16 10.381-5.19 20.589 6 23.5 6v1c-1.88 0-17 17.136-17 18Z"/><path fill="#3EA665" id="ACAd1" d="M222 96h12l-1-16.5 5-9.5v-1l-3-2-6 7.5-.5 2.5-6.5-10-3 3 4 8.5c2.251 4.502-1 13.24-1 17.5Z"/><path fill="#1F9D58" id="MOs5" d="M262 93c13.124 0 25.609 7.054 37.5 13l12.5 8c0-2.172-2.035-8.429-1-10.5 1.269-2.539 2-8.728 2-11.5v-1c-4.476 0-9.575-6.038-13.5-8-10.257-5.129-20.806-9.903-31-15-10.101-5.05-21.393 6-24.5 6v1c1.855 0 17 15.492 17 18h1Z"/><path fill="#1E9D5A" id="MOp1" d="M89 173h3v-1c-1.74 0-3-10.89-3-13 0-12.909-1.768-24.965 4-36.5 4.888-9.776 20.96-32.23 31.5-37.5L142 74v-6c-7.733 0-14.823 10.661-21.5 14-15.507 7.753-28.244 31.988-35.5 46.5-3.326 6.652-2 17.562-2 25.5 1.473 0 1 1.952 1 3 1.189 0 5 13.615 5 16ZM365 173h2c0-3.952 2.326-7.152 4-10.5.619-1.238-1.144-5.5 1-5.5 0-1.048-.473-3 1-3 0-11.371.703-23.095-4-32.5l-14-21-6-6-9.5-9.5c-5.636-2.818-18.504-17-24.5-17l-1 6c4.307 0 14.998 10.749 19.5 13 12.89 6.445 25.413 26.326 31.5 38.5 2.675 5.35 1.331 12.662 4 18 3.172 6.343-4 22.099-4 28.5v1Z"/><path fill="#40A565" id="ACAd2/3" d="M217 96h5c0-4.26 3.251-12.998 1-17.5l-4-8.5h-1c0 .409-4.928 4-6 4v1c4.096 0 5 17.195 5 21ZM234 96h6c0-3.879.063-21 4-21v-1l-6-4-5 9.5 1 16.5Z"/><path fill="#1F9C58" id="MOp2/3" d="M105 168c-4.649 0-8.129 4-13 4-1.74 0-3-10.89-3-13 0-12.909-1.768-24.965 4-36.5 4.888-9.776 20.96-32.23 31.5-37.5L142 74h1c0 6.651 1 12.253 1 17-5.341 0-11.588 10.044-15.5 12-5.125 2.562-10.174 8.847-12.5 13.5-3.475 6.949-7.583 13.166-11 20-3.514 7.027 0 23.877 0 31.5ZM352 168c4.463 0 8.253 4 13 4 0-6.401 7.172-22.157 4-28.5-2.669-5.338-1.325-12.65-4-18-6.087-12.174-18.61-32.055-31.5-38.5-4.502-2.251-15.193-13-19.5-13 0 5.019-1 10.592-1 17v1c3.945 0 15.151 10.651 18.5 14 20.262 20.262 20.5 33.186 20.5 62Z"/><path fill="#3EA566" id="ACAd5" d="M217 96c-5.595 0-11.857 6-17 6 0-2.809-1.397-8-5-8v-1c0-.864 15.12-18 17-18 4.096 0 5 17.195 5 21ZM240 96c5.4 0 11.088 6 16 6 2.064 0 .426-3.353 1-4.5l4-4.5c0-2.508-15.145-18-17-18-3.937 0-4 17.121-4 21Z"/><path fill="#1E9C5A" id="MOp5" d="M126 156c-3.918 0-15.471 12-21 12 0-7.623-3.514-24.473 0-31.5 3.417-6.834 7.525-13.051 11-20 2.326-4.653 7.375-10.938 12.5-13.5 3.912-1.956 10.159-12 15.5-12 0 7.063 1 13.232 1 22v1c-3.331 0-9.659 7.818-11 10.5-7.027 14.055-8 15.527-8 31.5Z"/><path fill="#1D9C5A" id="MOs6a" d="M165 135c-8.451 0-18.329 13-26 13 0-13.435 6-21.576 6-34v-1l13.5-8c9.718-4.859 20.299-8.15 30-13l6.5 1v1c-1.98 0-13 23.56-13 27-2.827 0-13 1.801-13 6-2.232 0-4 6.302-4 8ZM292 135c8.891 0 16.389 13 25 13 0-11.557-5-22.877-5-33v-1l-12.5-8c-11.891-5.946-24.376-13-37.5-13 0 6.135 12 18.818 12 28h1c7.936 0 16 5.886 16 14h1Z"/><path fill="#1E9C5A" id="MOp5" d="M330 156c5.238 0 15.581 12 22 12 0-28.814-.238-41.738-20.5-62-3.349-3.349-14.555-14-18.5-14 0 2.772-.731 8.961-2 11.5-1.035 2.071 1 8.328 1 10.5v1c9.79 0 15.591 21.682 19 28.5.747 1.494.214 11.5-1 11.5v1Z"/><path fill="#3FA664" id="ACAd6a" d="M256 103c6.58 0 16.862 18 18 18 0-9.182-12-21.865-12-28h-1l-4 4.5c-.574 1.147 1.064 4.5-1 4.5v1ZM182 121h1c0-3.735 13.329-18 17-18v-1c0-2.809-1.397-8-5-8-1.98 0-13 23.56-13 27Z"/><path fill="#2FA750" id="PL1" d="M223 133h11V96h-12c0 12.315 1 25.327 1 37Z"/><path fill="#2EA84F" id="PL5" d="M218 133c-5.074 0-9.089 1-14 1 0-10.343-4-20.469-4-31v-1c5.143 0 11.405-6 17-6 0 12.236 1 25.439 1 37Z"/><path fill="#2FA74F" id="PL2/3" d="M218 133h5c0-11.673-1-24.685-1-37h-5c0 12.236 1 25.439 1 37ZM234 133h4c0-11.938 2-24.358 2-37h-6v37Z"/><path fill="#2EA84F" id="PL5" d="m238 133 14 1c0-9.858 4-20.507 4-31v-1c-4.912 0-10.6-6-16-6 0 12.642-2 25.062-2 37Z"/><path fill="#2FA850" id="PL6a" d="M189 134h15c0-10.343-4-20.469-4-31-3.671 0-17 14.265-17 18 0 3.85 6 7.929 6 13ZM252 134h15l2-3c0-1.465-.109-4 2-4 0-1.465-.109-4 2-4l1-2c-1.138 0-11.42-18-18-18 0 10.493-4 21.142-4 31Z"/><path fill="#1F9B5A" id="MOp6a" d="M139 148c0 .967-11.546 8-13 8 0-15.973.973-17.445 8-31.5 1.341-2.682 7.669-10.5 11-10.5 0 12.424-6 20.565-6 34ZM317 148c0 1.508 11.003 7 13 7 1.214 0 1.747-10.006 1-11.5-3.409-6.818-9.21-28.5-19-28.5 0 10.123 5 21.443 5 33Z"/><path fill="#1E9C58" id="MOs6b" d="M169 127h2l1-1 1-1h1c0-2.273 5.226-2 7-2l1-2c-2.827 0-13 1.801-13 6Z"/><path fill="#2FA84F" id="PL6b" d="M188 134h1c0-5.071-6-9.15-6-13h-1l-1 2c1.77 0 4 3.15 4 5l3 6ZM273 123h2v-2h-1l-1 2Z"/><path fill="#1E9C58" id="MOs6b" d="M290 135h1c0-8.114-8.064-14-16-14v2c1.775 0 8 .069 8 2h1c4.522 0 4.571 10 6 10Z"/><path fill="#CACCC7" id="cing" d="M174 125c3.378 0 7.874 3 11 3 0-1.85-2.23-5-4-5-1.774 0-7-.273-7 2Z"/><path fill="#2FA84F" id="PL6b" d="M273 123c-2.109 0-2 2.535-2 4l2-4Z"/><path fill="#CACCC7" id="cing" d="M271 127v1c3.696 0 7.998-3 12-3 0-1.931-6.225-2-8-2h-2l-2 4Z"/><path fill="#C9C9CA" id="scwm" d="m173 125-1 1 1-1Z"/><path fill="#CAC7CC" id="fa" d="M191 149c0 1.643-3.765 1-5 1-4.081 0-8.364-2-13-2 0-1.654-3.155-6.811-4-8.5-2.034-4.068 2-9.039 2-12.5l1-1 1-1h1c3.378 0 7.874 3 11 3l3 6 1 5 2 10ZM265 150h6c0-.814 12.454-3 14-3 0-4.25 4.522-11.456 2-16.5l-3-5.5h-1c-4.002 0-8.304 3-12 3 0 1.238-.423 3-2 3 0 1.048.473 3-1 3l-1 2v3l-2 11Z"/><path fill="#C9C9CA" id="scwm" d="M290 139c0 3.008-1.216 8-5 8 0-4.25 4.522-11.456 2-16.5l-3-5.5c4.522 0 4.571 10 6 10v4ZM172 126l-1 1 1-1Z"/><path fill="#1E9C58" id="MOs6b" d="M165 135h2l2-8c-2.232 0-4 6.302-4 8Z"/><path fill="#C9C9CA" id="scwm" d="M167 139c0 3.624 1.493 9 6 9 0-1.654-3.155-6.811-4-8.5-2.034-4.068 2-9.039 2-12.5h-2l-2 8v4Z"/><path fill="#2FA84F" id="PL6b" d="M271 128c0 1.238-.423 3-2 3 0-1.465-.109-4 2-4v1ZM267 134h1c1.473 0 1-1.952 1-3l-2 3Z"/><path fill="#59B262" id="ILA5" d="m210 173 5 1 4-7.5c2.828-5.655-1-27.142-1-33.5-5.074 0-9.089 1-14 1 0 12.99 6 25.291 6 39Z"/><path fill="#59B362" id="ILA2/3" d="M215 174h5l4-11.5-1-29.5h-5c0 6.358 3.828 27.845 1 33.5l-4 7.5Z"/><path fill="#59B263" id="ILA1" d="m229 173 8 1c0-1.117-4.201-14.903-5-16.5-2.024-4.047 2-19.666 2-24.5h-11l1 29.5-4 11.5c2.409 0 5.181-1 7-1l1-7c0-8.043 1-8.043 1 0v7Z"/><path fill="#59B362" id="ILA2/3" d="M237 174h4l-4-9.5c-2.712-5.425 1-25.345 1-31.5h-4c0 4.834-4.024 20.453-2 24.5.799 1.597 5 15.383 5 16.5Z"/><path fill="#59B262" id="ILA5" d="m246 173-5 1-4-9.5c-2.712-5.425 1-25.345 1-31.5l14 1c0 13.23-6 25.504-6 39Z"/><path fill="#58B263" id="ILA6b" d="m189 139 2 1-2-6h-1l1 5Z"/><path fill="#58B362" id="ILA6a" d="M199 173h11c0-13.709-6-26.01-6-39h-15l2 6v2c6.431 0 8 24.988 8 31ZM246 173h11c0-5.712 2.399-31 8-31v-1l1-1v-1c0-1.048-.473-3 1-3v-2h-15c0 13.23-6 25.504-6 39Z"/><path fill="#58B263" id="ILA6b" d="m268 134-1 2v-2h1Z"/><path fill="#209666" id="AId6a" d="m142 167-1 1c-6.478 0-15-4.722-15-12 1.454 0 13-7.033 13-8 7.671 0 17.549-13 26-13l-1 6v1c-1.452 0-8 6.176-8 8l-1 1-1 1-1 1-1 2-10 12Z"/><path fill="#1F9766" id="AId6b" d="m167 139-3 2 1-6h2v4ZM292 141h1c0-1.564-1-3.876-1-6h-2v4l2 2Z"/><path fill="#209666" id="AId6a" d="m315 167 1 1c6.57 0 14-4.84 14-12v-1c-1.997 0-13-5.492-13-7-8.611 0-16.109-13-25-13 0 2.124 1 4.436 1 6 0 4.18 8 5.37 8 10l14 16Z"/><path fill="#58B263" id="ILA6b" d="M266 139h1v-3c-1.473 0-1 1.952-1 3Z"/><path fill="#248A5C" id="ORBl6b" d="m186 150 1 3-4.5-2c-5.515-2.758-18.5 1.312-18.5-9v-1l3-2c0 3.624 1.493 9 6 9 4.636 0 8.919 2 13 2Z"/><path fill="#24875E" id="ORBm6b" d="m191 149 2 2c0-3.519-2-5.843-2-9v-2l-2-1 2 10ZM265 150l-1 1c-2.176 0 1-7.407 1-9v-1l1-1v-1h1l-2 11Z"/><path fill="#248A5C" id="ORBl6b" d="M271 150v2c7.092 0 21-1.687 21-11l-2-2c0 3.008-1.216 8-5 8-1.546 0-14 2.186-14 3Z"/><path fill="#22885E" id="ORBm6a" d="m266 140-1 1 1-1Z"/><path fill="#24895D" id="ORBl6a" d="M270 166c0-2.957 2.14-4.82 4.5-6 15.512-7.756 25.726 7 35.5 7 0-5.984-9-10.757-9-16 0-4.63-8-5.82-8-10h-1c0 9.313-13.908 11-21 11l-1 1h-1v13h1ZM187 165c-1.038 0-8.813-10.844-16.5-7-1.134.567-23.231 8-23.5 8 0-4.537 5-6.648 5-11l1-2 1-1 1-1 1-1c0-1.824 6.548-8 8-8 0 10.312 12.985 6.242 18.5 9l4.5 2c0 2.56 2.936 7.627 2 9.5l-2 2.5Z"/><path fill="#22885E" id="ORBm6a" d="M196 173h3c0-6.012-1.569-31-8-31 0 3.157 2 5.481 2 9v1l2 4.5c2.241 4.482-1.843 7.686-3 10l2 6.5h2ZM261 173h1l2-5.5-3-3c-1.133-2.266 1.391-12.5 3-12.5v-1c-2.176 0 1-7.407 1-9-5.601 0-8 25.288-8 31h4Z"/><path fill="#22895E" id="ORBvl6b" d="M193 152c-.979 0-2.61 1-6 1l-1-3c1.235 0 5 .643 5-1l2 2v1Z"/><path fill="#1F9866" id="AIv6a" d="m156 150-1 1 1-1Z"/><path fill="#22895E" id="ORBvl6b" d="M269 153h1l1-1v-2h-6l-1 1v1c0 3.356 3.592 1 5 1Z"/><path fill="#1F9866" id="AIv6a" d="m155 151-1 1 1-1ZM311 167h4l-14-16c0 5.243 9 10.016 9 16h1ZM154 152l-1 1 1-1Z"/><path fill="#238A5C" id="ORBvl6a" d="m194 173-6 1c0-2.409-1-5.181-1-7v-2l2-2.5c.936-1.873-2-6.94-2-9.5 3.39 0 5.021-1 6-1l2 4.5c2.241 4.482-1.843 7.686-3 10l2 6.5ZM262 173c2.124 0 4.436 1 6 1l1-8v-13c-1.408 0-5 2.356-5-1-1.609 0-4.133 10.234-3 12.5l3 3-2 5.5Z"/><path fill="#248A5C" id="ORBl6b" d="m271 152-1 1 1-1Z"/><path fill="#1F9866" id="AIv6a" d="m153 153-1 2 1-2Z"/><path fill="#187E61" id="SSp-m1" d="M83 157h1c0-1.048.473-3-1-3v3ZM372 157h1v-3c-1.473 0-1 1.952-1 3Z"/><path fill="#1F9866" id="AIv6a" d="M142 167h4l1-1c0-4.537 5-6.648 5-11l-10 12Z"/><path fill="#209665" id="AId5" d="m141 168-7 7.5c-5.33 5.33-13.787 18.5-22 18.5l-5-8.5c-2.354-4.709-2-11.838-2-17.5 5.529 0 17.082-12 21-12 0 7.278 8.522 12 15 12ZM344 194h1l4-7.5c2.177-4.354 3-13.481 3-18.5-6.419 0-16.762-12-22-12 0 7.16-7.43 12-14 12 0 3.129 23.769 26 28 26Z"/><path fill="#009C75" id="GU1" d="M89 173c0 1.747-.253 2-2 2 0-5.508-4-12.202-4-18h1c1.189 0 5 13.615 5 16ZM367 173c0 1.747.253 2 2 2l2-4c0-5.237 2-8.634 2-14h-1c-2.144 0-.381 4.262-1 5.5-1.674 3.348-4 6.548-4 10.5Z"/><path fill="#228A5D" id="ORBl5" d="M151 186c2.927 0 10-3.437 10 3 2.363 0 15.32-8.41 18.5-10l5.5-4c0-2.625-1.221-8 2-8v-2c-1.038 0-8.813-10.844-16.5-7-1.134.567-23.231 8-23.5 8l-1 1c0 1.423-1.978 3.544-1 5.5 1.82 3.64 6 9.389 6 13.5ZM305 186c-2.927 0-10-3.437-10 3-5.173 0-18.531-14-24-14 0-3.013-1-6.611-1-9 0-2.957 2.14-4.82 4.5-6 15.512-7.756 25.726 7 35.5 7h1c0 8.445-6 14.092-6 19Z"/><path fill="#24895D" id="ORBl6a" d="m147 166-1 1 1-1Z"/><path fill="#99D2BD" id="OLF" d="M227 173c.839 0 2 1.93 2 0v-7h-1l-1 7Z"/><path fill="#23885C" id="ORBvl5" d="m268 174 3 1c0-3.013-1-6.611-1-9h-1l-1 8Z"/><path fill="#1F9866" id="AIv6a" d="m142 167-1 1 1-1Z"/><path fill="#1F9865" id="AIv5" d="M112 194v1c3.726 0 7.106 6.697 12.5 4l26.5-13c0-4.111-4.18-9.86-6-13.5-.978-1.956 1-4.077 1-5.5h-4l-1 1-7 7.5c-5.33 5.33-13.787 18.5-22 18.5Z"/><path fill="#23885C" id="ORBvl5" d="m188 174-3 1c0-2.625-1.221-8 2-8 0 1.819 1 4.591 1 7Z"/><path fill="#1F9865" id="AIv5" d="M305 186c5.937 0 21.578 10.039 27.5 13 3.021 1.51 11.5-1.34 11.5-5-4.231 0-28-22.871-28-26l-1-1h-4c0 8.445-6 14.092-6 19Z"/><path fill="#209765" id="AId2/3" d="M101 199h1c0-1.693 8.239-4 10-4v-1l-5-8.5c-2.354-4.709-2-11.838-2-17.5-4.649 0-8.129 4-13 4v1c0 8.519 9 18.628 9 26ZM345 194c0 2.271 7.839 4 10 4 1.845 0 1.441-3.381 2-4.5 2.73-5.46 8-14.285 8-20.5v-1c-4.747 0-8.537-4-13-4 0 5.019-.823 14.146-3 18.5l-4 7.5Z"/><path fill="#209764" id="AId1" d="m101 199-4 1c0-6.459-10-16.89-10-25 1.747 0 2-.253 2-2h3c0 8.519 9 18.628 9 26Z"/><path fill="#99D2BD" id="OLF" fill-rule="evenodd" d="M218 257c1.149 0 1.508-4.516 2-5.5l6-14c.5-1 .573-6.5 2.5-6.5l1.5 5.5 7 16c.557 1.114.41 5.5 2 5.5 0-2.371.017-5 3-5 0-2.882 1.695-6.903 5.5-5 4.757 2.379 20.016 6.992 26 4 7.26-3.63 7.538-5 15.5-5l6-1-6-6.5c-2.825-5.651 4-10.139 4-14.5l-5.5 3c-4.262-2.131 1.078-25.539 4-27 8.625-4.313 8.733 4 12.5 4 0-4.049-3-7.132-3-12l-1-2c-2.25 0-3.376-2-5-2-5.173 0-18.531-14-24-14l-3-1c-1.564 0-3.876-1-6-1h-1l-3 11c7.635 0 8 5.376 8 12 5.489 0 13 .706 13 9 2.356 0 2.562-2.376 4 .5 1.896 3.792 3.126 7.749 1 12-.822 1.645-9 9.689-9 4.5l-3 4c11.052 0 16.805 15.347 9.5 19-2.66 1.33-15.045 7.478-18 6-8.785-4.393-17.607-12.714-22.5-22.5V215c-4.33 0-6.167 4.667-11.5 2l-1-7-.5 2.5c-.523 1.046-3 5.292-3 5.5-3.909 0-7.158-3-10-3v13.5c-8.18 16.361-19.917 27.291-37.5 18.5-12.663-6.331-2.637-21 7.5-21l-3-4c-1.384 0-1.123 3.189-3.5 2-5.806-2.903-11.751-16.124-4-20l3.5 1c0-9.008 6.747-9 13-9 0-6.915-.272-12 8-12 0-2.263-3-7.198-3-11h-2l-6 1-3 1-5.5 4c-3.18 1.59-16.137 10-18.5 10l-5 3-1 1c0 3.702-2 7.27-2 10 4.772 0 5.361-5.07 11.5-2 3.965 1.983 8.604 24.698 4 27-3.348 1.674-12.295-18-15.5-18 0 4.919 11.451 16.402 14 21.5 3.635 7.27-6 12.861-6 14.5l7 1c0-1.22 3.492-1.504 4.5-1 4.73 2.365 8.22 6 14 6 4.669 0 24.831-4.584 26-4l2.5 5c1.577 0 2 1.762 2 3l1 1m7-39c0 2.261-6.094.297-7.5 1l-.5 4.5c0 2.855-2.655 8.69-1 12 3.243 6.486 9.453-1.906 11-5l1.5-3.5.5 2.5c1.14 2.28 4.67 10.415 8.5 8.5 2.775-1.388 4.98-17.01 1-19-.864-.432-7.382-1-8-1l-3 2-2.5-2Z"/><path fill="#A3DAA3" id="DP" d="M207 192c0-1.769 8.801-1 10.5-1 10.873 0 21.667 1 32.5 1l8-8 3-11h-15l-5 1h-4l-8-1c0 1.93-1.161 0-2 0-1.819 0-4.591 1-7 1h-5l-5-1h-14c0 3.802 3 8.737 3 11 0 1.887 6.483 8 8 8Z"/><path fill="#209764" id="AId1" d="m355 199 4 1c2.04 0 10-21.154 10-25-1.747 0-2-.253-2-2h-2c0 6.215-5.27 15.04-8 20.5-.559 1.119-.155 4.5-2 4.5v1Z"/><path fill="#54BF94" id="AON" d="M215 215v13.5c-8.18 16.361-19.917 27.291-37.5 18.5-12.663-6.331-2.637-21 7.5-21 1.804 0 5.136 2.182 7.5 1 11.839-5.92-1.5-26.577-1.5-31 0-6.915-.272-12 8-12 0 1.887 6.483 8 8 8 0 8.66 8 14.922 8 23ZM241 215v13.5c4.893 9.786 13.715 18.107 22.5 22.5 2.955 1.478 15.34-4.67 18-6 7.305-3.653 1.552-19-9.5-19-1.804 0-5.136 2.182-7.5 1-8.282-4.141-4.83-19.841-1.5-26.5l3-4.5c0-6.624-.365-12-8-12l-8 8c0 8.314-9 15.176-9 23Z"/><path fill="#238A5E" id="ORBl2/3" d="m161 189-5 3c0-3.079-5-4.308-5-6 2.927 0 10-3.437 10 3ZM295 189c1.624 0 2.75 2 5 2 0-2.832 5-2.953 5-5-2.927 0-10-3.437-10 3Z"/><path fill="#219764" id="AIv2/3" d="M102 199c0 4.016 8.069 12 12 12 10.846 0 33.669-18 41-18l1-1c0-3.079-5-4.308-5-6l-26.5 13c-5.394 2.697-8.774-4-12.5-4-1.761 0-10 2.307-10 4ZM355 199c0 3.864-12 11.391-12 12-11.249 0-35.068-18-42-18l-1-2c0-2.832 5-2.953 5-5 5.937 0 21.578 10.039 27.5 13 3.021 1.51 11.5-1.34 11.5-5h1c0 2.271 7.839 4 10 4v1Z"/><path fill="#61D09F" id="TTd" d="M241 215c-4.33 0-6.167 4.667-11.5 2l-1-7-.5 2.5c-.523 1.046-3 5.292-3 5.5-3.909 0-7.158-3-10-3 0-8.078-8-14.34-8-23 0-1.769 8.801-1 10.5-1 10.873 0 21.667 1 32.5 1 0 8.314-9 15.176-9 23Z"/><path fill="#6ACAB9" id="PIR" d="m156 192-1 1 1-1ZM151 249h2l8-3c0-1.639 9.635-7.23 6-14.5-2.549-5.098-14-16.581-14-21.5v-1l-1-2v-1l1-1v-2c0-2.73 2-6.298 2-10-7.331 0-30.154 18-41 18 0 1.663-5.407 2-7 2 0 7.166 5.982 22 15 22 11.743 0 22.557 14 29 14ZM303 249h2c7.457 0 17.221-14 30-14 7.395 0 14-14.798 14-21l-6-3c-11.249 0-35.068-18-42-18 0 4.868 3 7.951 3 12v1c1.186 0 1.186 1 0 1v2l-1 1v1l-1 1-1 1-1 2c0 2.168-4.225 10-7 10 0 4.361-6.825 8.849-4 14.5l6 6.5 8 3Z"/><path fill="#80CDF8" id="ACB" d="m182 222 3 4c1.804 0 5.136 2.182 7.5 1 11.839-5.92-1.5-26.577-1.5-31-6.253 0-13-.008-13 9 0 2.272 3.881 8.262 5 10.5l-1 6.5ZM275 222l-3 4c-1.804 0-5.136 2.182-7.5 1-8.282-4.141-4.83-19.841-1.5-26.5l3-4.5c5.489 0 13 .706 13 9l-1 1-4 7.5c-1.284 2.568 1 6.486 1 8.5Z"/><path fill="#209864" id="AIv1" d="M114 211c0 1.663-5.407 2-7 2-3.125 0-10-10.096-10-13l4-1h1c0 4.016 8.069 12 12 12Z"/><path fill="#A0EE9C" id="EPd" d="M153 209v1c3.205 0 12.152 19.674 15.5 18 4.604-2.302-.035-25.017-4-27-6.139-3.07-6.728 2-11.5 2v2l-1 1v1l1 2ZM300 215c-2.417 0-7 7.935-7 10l-5.5 3c-4.262-2.131 1.078-25.539 4-27 8.625-4.313 8.733 4 12.5 4v4l-1 1v1l-1 1-1 1-1 2Z"/><path fill="#209864" id="AIv1" d="m343 211 6 3c3.117 0 10-10.665 10-14l-4-1c0 3.864-12 11.391-12 12Z"/><path fill="#CBCBC7" id="aco" d="m178 205-3.5-1c-7.751 3.876-1.806 17.097 4 20 2.377 1.189 2.116-2 3.5-2l1-6.5c-1.119-2.238-5-8.228-5-10.5ZM278 206l-4 7.5c-1.284 2.568 1 6.486 1 8.5 0 5.189 8.178-2.855 9-4.5 2.126-4.251.896-8.208-1-12-1.438-2.876-1.644-.5-4-.5l-1 1Z"/><path fill="#99D2BD" id="OLF" d="m153 205-1 1 1-1ZM279 205l-1 1 1-1ZM304 206c1.186 0 1.186 1 0 1v-1ZM152 207l1 2-1-2ZM304 209l-1 1 1-1ZM303 211l-1 1 1-1ZM302 212l-1 1 1-1ZM301 213l-1 2 1-2ZM300 215c-2.417 0-7 7.935-7 10 2.775 0 7-7.832 7-10Z"/><path fill="#62CF9E" id="TTv" d="M225 218c0 2.261-6.094.297-7.5 1l-.5 4.5c0 2.855-2.655 8.69-1 12 3.243 6.486 9.453-1.906 11-5l1.5-3.5.5 2.5c1.14 2.28 4.67 10.415 8.5 8.5 2.775-1.388 4.98-17.01 1-19-.864-.432-7.382-1-8-1l-3 2-2.5-2Z"/><path fill="#CAC8C7" id="lot" d="m152 251-2 4c-3.254 0-28-16.965-28-20 11.743 0 22.557 14 29 14l1 2ZM305 253l1 2c2.606 0 29-16.509 29-20-12.779 0-22.543 14-30 14v4Z"/><path fill="#7FCCF7" id="OT" d="m215 265-1 1c0 4.908-11.757 5.628-14.5 7-5.345 2.673-29.306-5.153-35-8-3.111-1.555-8.936-8-11.5-8l-1-6 1-2 8-3 7 1c0 2.441 6.845 4.173 8.5 5 19.946 9.973 21.017 1 38.5 1 1.577 0 2 1.762 2 3v5l-1 1v1l-1 1v1Z"/><path fill="#A2B1D7" id="SI" d="M168 247c0 2.441 6.845 4.173 8.5 5 19.946 9.973 21.017 1 38.5 1l-2.5-5c-1.169-.584-21.331 4-26 4-5.78 0-9.27-3.635-14-6-1.008-.504-4.5-.22-4.5 1ZM289 247c-7.962 0-8.24 1.37-15.5 5-5.984 2.992-21.243-1.621-26-4-3.805-1.903-5.5 2.118-5.5 5 19.74 0 16.297 9.601 39.5-2 1.35-.675 7.5-2.239 7.5-4Z"/><path fill="#7FCCF7" id="OT" d="m240 262 1 1c0 4.638 6.582 6.541 9.5 8 11.274 5.637 31.095-.547 42-6l10.5-8 2-4v-1l-2-3-8-3-6 1c0 1.761-6.15 3.325-7.5 4-23.203 11.601-19.76 2-39.5 2-2.983 0-3 2.629-3 5v1l1 2v1Z"/><path fill="#99D2BD" id="OLF" d="m153 249-1 2-1-2h2ZM305 249v3l-2-3h2ZM150 255l3 2-1-6-2 4ZM306 255l-3 2 2-4 1 2Z"/><path fill="#97D6F9" id="STR" d="M217 257h1l-1-1v1Z"/><path fill="#99D2BD" id="OLF" d="m218 257-1 2v-2h1Z"/><path fill="#97D6F9" id="STR" d="m239 259 1 2-1-2ZM217 261l-1 1 1-1ZM240 262l1 1-1-1ZM216 263l-1 1 1-1ZM215 265l-1 1 1-1Z"/></svg>