<svg xmlns="http://www.w3.org/2000/svg" viewBox="0 0 456 320"><path fill="#9AD1BD" id="MOB" fill-rule="evenodd" d="M180 129c0 2.973-5 5.016-5 9 0 5.262.634 8.567 5.5 11 11.407 5.704 15.269-20-.5-20m-1-4-1 2.5 3-.5 7.5 2 8 4c1.722-.861-1.822-5.411-3-6-4.479-2.239-9.057-2-14.5-2m8 121h1c2.454 0 7.523 2.489 10.5 1 26.96-13.48 23.5-55.674 23.5-84.5l1-32c-2.402-4.804-3.581-10.162-6-15-.908-1.817-10-7.278-10-8.5-2.613 0-4.36-.93-6.5-2-10.112-5.056-35.501 6.501-42 13-2.545 2.545-9.5 8.569-9.5 12l-1 1v1l-1 1v1l-1 2-1 2v3l-1 2v16c1.473 0 1 1.952 1 3v3l1 2v1c1.473 0 1 1.952 1 3v2l5 9.5c4.565 9.13 9 20.673 9 31.5 0 3.831 14.086 27 18 27l1 1 2 1 2 2h2l1 1ZM275 129c0 2.064-3.353.426-4.5 1-2.59 1.295-3.46 4.42-4.5 6.5-.901 1.803 0 4.317 0 5.5 0 14.035 21.69 7.881 13-9.5-.707-1.414-2.014-3.5-4-3.5m-9-4-7 7.5c.609 1.219 7.329-2.915 8.5-3.5 3.412-1.706 6.927-1 10-1l1.5-1.5c0-2.543-11.19-1.5-13-1.5m3 121h1l1-1 3-1 1-1 1-1 2-1 1-1c0-.012 16-19.314 16-25 0-9.43 3.939-23.378 8-31.5 1.407-2.814 5-6.261 5-9.5l1-1c0-1.048-.473-3 1-3v-1l1-2v-4l1-2v-2c0-1.145-.579-4 1-4v-10l-1-2v-2l-1-2v-2l-2-4v-1l-1-1v-1l-2-2c0-2.898-10.002-11.751-12.5-13-3.807-1.903-8.537-5.768-13-8-2.493-1.246-21.855-3.572-25-2-2.14 1.07-3.887 2-6.5 2l-6 4.5c-2.51 5.02-6.187 11.374-9 17-4.506 9.012 1 22.864 1 32 0 28.668-6.109 86.5 32 86.5l2-1Z"/><path fill="#C7CBCA" id="onl" d="M227 211c0 15.604 2.524 34.452-4 47.5-6.796 13.593-18.629-4.564-24.5-7.5-2.152-1.076-10.5-1.136-10.5-5 2.454 0 7.523 2.489 10.5 1 26.96-13.48 23.5-55.674 23.5-84.5l1-32c-2.402-4.804-3.581-10.162-6-15-.908-1.817-10-7.278-10-8.5 20.658 0 20 40.674 20 56v48Z"/><path fill="#C7CBCA" id="onl" d="M249 107c-11.134 0-14.303 15.106-18 22.5v5c-2.962 5.924-2 24.44-2 32 0 10.946-2.638 50.724 1 58 3.312 6.624-1.97 24.059 3 34l3.5 2.5c10.529 5.264 11.169-5.084 19-9 2.044-1.022 11.5-1.98 11.5-5-38.109 0-32-57.832-32-86.5 0-9.136-5.506-22.988-1-32 2.813-5.626 6.49-11.98 9-17l6-4.5Z"/><path fill="#CACAC9" id="lotd" d="m179 125-1 2.5 3-.5 7.5 2 8 4c1.722-.861-1.822-5.411-3-6-4.479-2.239-9.057-2-14.5-2ZM266 125l-7 7.5c.609 1.219 7.329-2.915 8.5-3.5 3.412-1.706 6.927-1 10-1l1.5-1.5c0-2.543-11.19-1.5-13-1.5Z"/><path fill="#99D2BD" id="OLF" d="m306 128 2 2-2-2Z"/><path fill="#95E4C8" id="AOBgr" d="M180 129c0 2.973-5 5.016-5 9 0 5.262.634 8.567 5.5 11 11.407 5.704 15.269-20-.5-20ZM275 129c0 2.064-3.353.426-4.5 1-2.59 1.295-3.46 4.42-4.5 6.5-.901 1.803 0 4.317 0 5.5 0 14.035 21.69 7.881 13-9.5-.707-1.414-2.014-3.5-4-3.5Z"/><path fill="#99D2BD" id="OLF" d="m149 130-1 1 1-1ZM308 131l1 1-1-1ZM148 132l-1 1 1-1ZM309 133l2 4-2-4ZM147 134l-1 2 1-2ZM146 136l-1 2 1-2ZM311 139l1 2-1-2ZM145 141l-1 2 1-2ZM312 143l1 2-1-2ZM144 145c-1.634 0-1.634 11 0 11v-11ZM313 155c-1.579 0-1 2.855-1 4 1.579 0 1-2.855 1-4ZM144 159c1.473 0 1 1.952 1 3-1.473 0-1-1.952-1-3ZM312 161l-1 2 1-2ZM227 163c1.751 0 1 7.426 1 9v29c0 1.657.763 10-1 10v-48ZM145 165l1 2-1-2ZM311 167l-1 2 1-2ZM146 168c1.473 0 1 1.952 1 3-1.473 0-1-1.952-1-3ZM310 170c-1.473 0-1 1.952-1 3 1.473 0 1-1.952 1-3Z"/><path fill="#C7CBCA" id="onl" d="m158 211 3 3c0-10.827-4.435-22.37-9-31.5l-5-9.5v3l1 2v2l1 2v3c1.473 0 1 1.952 1 3v1l1 2v3l1 2v1l1 2v2l1 1v1l1 2v2l2 2v1l1 1Z"/><path fill="#99D2BD" id="OLF" d="M308 174h1v-1l-1 1Z"/><path fill="#C7CBCA" id="onl" d="m299 210-4 5c0-9.43 3.939-23.378 8-31.5 1.407-2.814 5-6.261 5-9.5h1v5l-1 1v1c-1.473 0-1 1.952-1 3v4l-1 1v1c-1.473 0-1 1.952-1 3v2l-1 2v1l-1 2v2l-1 1v1l-1 2v1l-1 2-1 1Z"/><path fill="#99D2BD" id="OLF" d="m147 176 1 2-1-2ZM309 179l-1 1 1-1ZM148 180l1 2-1-2ZM308 181c-1.473 0-1 1.952-1 3 1.473 0 1-1.952 1-3ZM149 185c1.473 0 1 1.952 1 3-1.473 0-1-1.952-1-3ZM307 188l-1 1 1-1ZM150 189l1 2-1-2ZM306 190c-1.473 0-1 1.952-1 3 1.473 0 1-1.952 1-3ZM151 194l1 2-1-2ZM305 195l-1 2 1-2ZM152 197l1 2-1-2ZM304 198l-1 2 1-2ZM153 201l1 1-1-1ZM303 202l-1 1 1-1ZM154 203l1 2-1-2ZM302 204l-1 2 1-2ZM155 207l2 2-2-2ZM301 207l-1 2 1-2ZM300 209l-1 1 1-1ZM157 210l1 1-1-1Z"/><path fill="#C7CBCA" id="onl" d="m279 240-1 1 1-1ZM179 241l1 1-1-1ZM276 242l-1 1 1-1ZM182 243l2 2-2-2ZM275 243l-1 1 1-1ZM186 245l1 1-1-1ZM271 245l-1 1 1-1ZM269 246l-2 1 2-1Z"/></svg>