<svg xmlns="http://www.w3.org/2000/svg" viewBox="0 0 456 320"><path fill="#9AD1BD" id="MOB" fill-rule="evenodd" d="M175 206c0 4.554.139 7.777 2 11.5.714 1.428 5 2.529 5 0 0-2.357-3.703-11.5-7-11.5m13-7-1 2c0 7.778 6.461-2 1-2m-21-64c0 3.746 2.091 0 0 0m-6 74c0 9.743 20.363 39 32 39 11.186 0 18.592-6.683 24-17.5 1.702-3.405.322-8.644 2-12 7.167-14.334 3-43.806 3-60.5v-22.5c-.775-1.55-5-14.48-5-15.5l-6-6.5-5-2.5h-2c-1.048 0-3 .473-3-1h-4l-2-1c-13.727 0-26.785 3.285-36.5 13-2.573 2.573-8.5 7.463-8.5 11l-1 1v2l-1 1-1 6-1 2v16l1 2v4l1 2v2l1 2v2l1 2v2l1 1v3l1 1v1l1 2v2l2 4v2l1 1v1l1 1v3l1 1v1l1 1v2l1 1v1l1 1m30-70 2.5-2c1.863-.932 1.993 4.514 1.5 5.5l-2 2.5c0 7.708-3.449 20.026-13.5 15l-4.5-2.5c-4.468-8.935-6-10.715-6-20.5 0-2.219-1.013-8.756 4.5-6l1.5 2c0-9.824 16-9.942 16 6Z"/><path fill="#99D2BD" id="OLF" d="m195 109 2 1-2-1ZM261 109l-2 1 2-1Z"/><path fill="#9AD1BD" id="MOB" fill-rule="evenodd" d="M280 206c0 1.836-8.831 10.834-4.5 13 6.492 3.246 6.415-13 4.5-13m-13-7-1 2.5 2.5 2.5c1.664-.832.248-5-1.5-5m-6 50h1l2-1h1l1-1c10.128 0 29-28.173 29-37l1-1v-1l1-1v-2l1-1v-1l1-1 1-5 1-1v-2l1-1v-1l1-2v-2l1-1v-2l1-1v-3l1-1v-1l1-2v-3l1-1v-2l1-2v-4l1-2v-3c0-1.048-.473-3 1-3v-4c-1.714 0-1-5.594-1-7v-3l-1-2v-3l-1-1v-1l-1-1c0-3.437-2.973-4.446-4-6.5-7.42-14.839-26.313-19.5-42-19.5l-2 1h-3c0 1.579-2.855 1-4 1h-1c0 1.353-4.643 2-6 2 0 .814-5.257 8-6 8 0 1.535-4.062 14.623-5 16.5V159c0 15.588-3.641 44.218 3 57.5 1.678 3.356.298 8.595 2 12 4.082 8.164 11.564 20.5 22 20.5m18-90-1 1c-13.056 0-14-.48-14-14l-3-5.5c-.448-.896-.187-4.344 1.5-3.5l2.5 2c0-14.269 16-18.539 16-4 .698 0 7-9.305 7 0 2.868 0 2.197 1 0 1l-1 1c0 5.185-.854 22-8 22Z"/><path fill="#99D2BD" id="OLF" d="M201 110c1.048 0 3-.473 3 1-1.048 0-3 .473-3-1ZM256 110c-1.145 0-4-.579-4 1 1.145 0 4 .579 4-1ZM217 120c0-1.93 1.161 0 2 0 0-4.3-9.711-9-13-9l5 2.5 6 6.5ZM251 111c-1.623 0-6 .005-6 2 1.357 0 6-.647 6-2ZM239 119v2c.743 0 6-7.186 6-8-2.473 0-6 3.527-6 6Z"/><path fill="#C7CBCA" id="onl" d="M227 209c0 11.031 1.996 41.508-2 49.5-1.605 3.211-8.963 6.269-12.5 4.5l-8-9c-1.859-.929-11.5-3.697-11.5-6 11.186 0 18.592-6.683 24-17.5 1.702-3.405.322-8.644 2-12 7.167-14.334 3-43.806 3-60.5v-22.5c-.775-1.55-5-14.48-5-15.5 0-1.93 1.161 0 2 0 0 2.215 3.875 9.249 5 11.5 2.624 5.248 3 29.758 3 37.5 0 1.824-.781 12 1 12v21c-1.714 0-1 5.594-1 7ZM239 121c0 1.535-4.062 14.623-5 16.5V159c0 15.588-3.641 44.218 3 57.5 1.678 3.356.298 8.595 2 12 4.082 8.164 11.564 20.5 22 20.5 0 2.454-8.665 5.083-10.5 6-5.171 2.585-5.307 10.846-13 7-3.067-1.533-4.621-.742-6.5-4.5-3.437-6.875-1-20.954-1-29 0-18.143-1-37.706-1-56.5 0-7.986-1.353-18.794 2-25.5 2.031-4.062 1.109-27.5 8-27.5v2Z"/><path fill="#9DEFD2" id="AOBmi" d="M175 133c0 13.365 16 17.86 16 6 0-15.942-16-15.824-16-6ZM281 135c0 12.609-16 14.14-16 4 0-14.269 16-18.539 16-4Z"/><path fill="#CACAC9" id="lotd" d="m191 139 2.5-2c1.863-.932 1.993 4.514 1.5 5.5l-2 2.5c-3.836 0-6.064 8.718-11.5 6-4.224-2.112-11.144-14-12.5-14 0-2.219-1.013-8.756 4.5-6l1.5 2c0 13.365 16 17.86 16 6ZM265 139l-2.5-2c-1.687-.844-1.948 2.604-1.5 3.5l3 5.5c3.531 0 6.598 7.451 11.5 5 4.361-2.18 10.213-14 11.5-14l1-1v-1c0-9.305-6.302 0-7 0 0 12.609-16 14.14-16 4Z"/><path fill="#99D2BD" id="OLF" d="m150 133-1 1 1-1Z"/><path fill="#CAC8C7" id="lot" d="M167 135c0 3.746 2.091 0 0 0ZM288 135c2.868 0 2.197 1 0 1v-1Z"/><path fill="#99D2BD" id="OLF" d="m307 135 1 1-1-1ZM149 136l-1 1 1-1Z"/><path fill="#95E4C8" id="AOBgr" d="M169 137c1.356 0 8.276 11.888 12.5 14 5.436 2.718 7.664-6 11.5-6 0 7.708-3.449 20.026-13.5 15l-4.5-2.5c-4.468-8.935-6-10.715-6-20.5ZM279 159l-1 1c-13.056 0-14-.48-14-14 3.531 0 6.598 7.451 11.5 5 4.361-2.18 10.213-14 11.5-14 0 5.185-.854 22-8 22Z"/><path fill="#99D2BD" id="OLF" d="m308 137 1 1-1-1ZM309 141l1 2-1-2ZM147 143l-1 2 1-2ZM310 146c1.714 0 1 5.594 1 7-1.714 0-1-5.594-1-7ZM146 152c-1.535 0-1.535 4 0 4v-4ZM311 157c-1.473 0-1 1.952-1 3 1.473 0 1-1.952 1-3Z"/><path fill="#CBCBC7" id="aco" d="m279 159-1 1 1-1Z"/><path fill="#99D2BD" id="OLF" d="m146 161 1 2-1-2ZM310 163l-1 2 1-2ZM147 167l1 2-1-2ZM227 169c1.781 0 1 10.176 1 12-1.781 0-1-10.176-1-12ZM309 169l-1 2 1-2ZM148 171l1 2-1-2ZM308 173l-1 1 1-1ZM149 175l1 2-1-2ZM307 177l-1 2 1-2ZM150 179l1 1-1-1ZM306 180l-1 1 1-1ZM151 183l1 1-1-1ZM305 184l-1 1 1-1ZM152 185l1 2-1-2ZM304 187l-1 1 1-1ZM153 189l2 4-2-4ZM303 190l-1 2 1-2ZM302 193l-1 1 1-1ZM155 195l1 1-1-1ZM301 196l-1 1 1-1ZM156 197l1 1-1-1Z"/><path fill="#CBCBC7" id="aco" d="m188 199-1 2c0 7.778 6.461-2 1-2ZM267 199l-1 2.5 2.5 2.5c1.664-.832.248-5-1.5-5Z"/><path fill="#99D2BD" id="OLF" d="m157 201 1 1-1-1ZM228 202c-1.714 0-1 5.594-1 7 1.714 0 1-5.594 1-7ZM299 202l-1 1 1-1ZM158 203l1 1-1-1ZM298 204l-1 1 1-1ZM159 206l1 1-1-1Z"/><path fill="#CAC8C7" id="lot" d="M175 206c0 4.554.139 7.777 2 11.5.714 1.428 5 2.529 5 0 0-2.357-3.703-11.5-7-11.5ZM280 206c0 1.836-8.831 10.834-4.5 13 6.492 3.246 6.415-13 4.5-13Z"/><path fill="#99D2BD" id="OLF" d="m297 207-1 1 1-1ZM160 208l1 1-1-1ZM296 209l-1 1 1-1Z"/><path fill="#C7CBCA" id="onl" d="m266 247-1 1 1-1ZM264 248l-2 1 2-1Z"/></svg>