<svg xmlns="http://www.w3.org/2000/svg" viewBox="0 0 456 320"><path fill="#99D2BD" id="OLF" d="m219 122-1 1c-1.664 0-6.044-7.772-8.5-9-5.51-2.755-12.865-3-19.5-3 0-.85 8.048-2.726 9.5-2 7.561 3.781 12.961 1.423 17.5 10.5l2 2.5ZM237 122l2 1c0-9.576 20.112-12 27-12 0-.85-8.048-2.726-9.5-2-7.01 3.505-12.424 1.347-16.5 9.5l-3 3.5ZM185 111c-1.048 0-3-.473-3 1 1.048 0 3 .473 3-1Z"/><path fill="#9AD1BD" id="MOB" fill-rule="evenodd" d="M173 198c0 5.827-.414 12.673 2 17.5 1.02 2.039 4.896 7.207 7 3l-2-5c-1.658-3.315-2.393-15.5-7-15.5m15-1-1 3.5v3c0 9.57 8.989-6.5 1-6.5m6 52h1c9.798 0 17.609-8.717 22-17.5 1.563-3.125.45-7.901 2-11 6.215-12.429 4-31.14 4-46 0-5.202 1.202-12.596-1-17v-19c-1.637-3.275-4-12.021-4-15.5-1.664 0-6.044-7.772-8.5-9-5.51-2.755-12.865-3-19.5-3h-5c0 1.473-1.952 1-3 1l-7 1-1 1c-4.974 0-23 14.418-23 20l-1 1v1l-1 1v2l-1 1v2l-1 2v19l1 2v3l1 2v3l1 2v2l1 1v3l1 1v1l1 2v2l1 2v1l1 1v2l1 1v1l1 2v2l1 1v1l1 1v2l1 1v1l1 1v2l1 1c0 2.871 3.712 6.924 5 9.5 4.947 9.893 11.606 28.5 26 28.5l1 1m-17-88c0 .896 2 3.026 2 1 10.328 0 14-.101 14-13 0-3.701 5.626-8 0-8 0-16.237-20-21.64-20-6-.986 0-6-5.16-6 1-1.643 0-4.139 4 0 4 2.207 0 .338 5.176 1 6.5 1.449 2.897 4.145 14.5 9 14.5ZM282 198c0 1.437-5.056 14.611-6 16.5-.437.875-2.279 4.611-.5 5.5 5.407 2.704 11.474-22 6.5-22m-15-1-1 4v3c0 8.543 9.222-7 1-7m-2 51-4 1c-9.912 0-18.278-11.056-22-18.5-1.702-3.405-.322-8.644-2-12-4.806-9.612-7.149-55.701-2-66v-19l4-10.5c0-9.576 20.112-12 27-12h5c0 1.473 1.952 1 3 1l7 1 1 1c7.666 0 25 15.988 25 24l1 1v1l1 2v5c0 1.048-.473 3 1 3v6c-1.643 0-1 3.765-1 5v5l-1 2v2l-1 2v3l-1 2v1l-1 1v3l-1 1v2l-1 1v3l-1 1v1l-1 1v2l-1 1v2l-1 1v2l-1 1v1l-1 1v2l-1 1v1l-1 1v2l-1 1c0 7.356-18.464 36-28 36l-1 1m14-87c0 1.747-.253 2-2 2-10.273 0-14-5.011-14-15 0-.545-4.579-8-.5-8l1.5 2c0-5.472-.285-12.108 5.5-15 5.767-2.883 14.5-.18 14.5 7 1.777 0 5-2.985 5 1 2.561 0 2.447 6 1.5 6l-1.5-2c0 4.81-3.371 22-10 22Z"/><path fill="#99D2BD" id="OLF" d="M271 111c1.048 0 3-.473 3 1-1.048 0-3 .473-3-1ZM175 113l-1 1 1-1ZM281 113l1 1-1-1Z"/><path fill="#C7CBCA" id="onl" d="M227 209c0 13.093 2.019 41.462-3 51.5l-2.5.5c-9.585 4.793-11.352-4.176-19-8-1.456-.728-7.5-1.87-7.5-4 9.798 0 17.609-8.717 22-17.5 1.563-3.125.45-7.901 2-11 6.215-12.429 4-31.14 4-46 0-5.202 1.202-12.596-1-17v-19c-1.637-3.275-4-12.021-4-15.5l1-1c0 2.215 3.875 9.249 5 11.5 2.457 4.914 3 30.076 3 37.5 0 1.657-.763 10 1 10v22c-1.684 0-1 4.679-1 6Z"/><path fill="#C7CBCA" id="onl" d="m239 123-4 10.5v19c-5.149 10.299-2.806 56.388 2 66 1.678 3.356.298 8.595 2 12 3.722 7.444 12.088 18.5 22 18.5 0 2.943-9.462 4.981-11.5 6-7.179 3.589.67 7-12 7-2.208 0-5.376-1.253-6.5-3.5-4.248-8.496 2.86-27.28-1-35-3.105-6.21-1-18.234-1-25.5v-41.5c2.853-5.707.563-16.127 3-21l5-13.5 2 1Z"/><path fill="#9DEFD2" id="AOBmi" d="m193 141-1 1c0 12.08-19 5.941-19-7 0-15.64 20-10.237 20 6ZM284 134c0 5.81-4.145 12.323-9.5 15-3.209 1.605-10.5-3.865-10.5-7 0-5.472-.285-12.108 5.5-15 5.767-2.883 14.5-.18 14.5 7Z"/><path fill="#CACAC9" id="lotd" d="M193 141c5.626 0 0 4.299 0 8-5.568 0-7.756 6.372-14.5 3-3.753-1.877-7.557-13-11.5-13v-3c0-6.16 5.014-1 6-1 0 12.941 19 19.08 19 7l1-1ZM264 142l-1.5-2c-4.079 0 .5 7.455.5 8 4.071 0 7.62 7.94 13.5 5 3.58-1.79 11.568-14 12.5-14v-4c0-3.985-3.223-1-5-1 0 5.81-4.145 12.323-9.5 15-3.209 1.605-10.5-3.865-10.5-7Z"/><path fill="#99D2BD" id="OLF" d="m151 134-1 1 1-1Z"/><path fill="#CAC8C7" id="lot" d="M289 135c2.561 0 2.447 6 1.5 6l-1.5-2v-4Z"/><path fill="#99D2BD" id="OLF" d="m150 136-1 1 1-1Z"/><path fill="#CAC8C7" id="lot" d="M167 139v1c-4.139 0-1.643-4 0-4v3Z"/><path fill="#99D2BD" id="OLF" d="m307 138 1 1-1-1ZM149 139l-1 1 1-1Z"/><path fill="#95E4C8" id="AOBgr" d="m177 161 2 1c10.328 0 14-.101 14-13-5.568 0-7.756 6.372-14.5 3-3.753-1.877-7.557-13-11.5-13v1c2.207 0 .338 5.176 1 6.5 1.449 2.897 4.145 14.5 9 14.5ZM279 161l-2 2c-10.273 0-14-5.011-14-15 4.071 0 7.62 7.94 13.5 5 3.58-1.79 11.568-14 12.5-14 0 4.81-3.371 22-10 22Z"/><path fill="#99D2BD" id="OLF" d="m308 140 1 2-1-2Z"/><path fill="#9AD1BD" id="MOB" d="m193 141-1 1 1-1Z"/><path fill="#99D2BD" id="OLF" d="m148 142-1 2 1-2ZM309 147c1.473 0 1 1.952 1 3-1.473 0-1-1.952-1-3ZM147 151c-1.566 0-1.566 5 0 5v-5ZM310 156c-1.643 0-1 3.765-1 5 1.643 0 1-3.765 1-5Z"/><path fill="#CBCBC7" id="aco" d="m177 161 2 1c0 2.026-2-.104-2-1ZM279 161l-2 2c1.747 0 2-.253 2-2Z"/><path fill="#99D2BD" id="OLF" d="m147 163 1 2-1-2ZM309 166l-1 2 1-2ZM148 168l1 2-1-2ZM308 170l-1 2 1-2ZM227 171c1.763 0 1 8.343 1 10-1.763 0-1-8.343-1-10ZM149 173l1 2-1-2ZM307 175l-1 2 1-2ZM150 177l1 1-1-1ZM306 178l-1 1 1-1ZM151 181l1 1-1-1ZM305 182l-1 1 1-1ZM152 183l1 2-1-2ZM304 185l-1 1 1-1ZM153 187l1 2-1-2ZM303 189l-1 1 1-1ZM154 190l1 1-1-1ZM302 191l-1 1 1-1ZM155 193l1 1-1-1ZM301 194l-1 1 1-1ZM156 195l1 2-1-2Z"/><path fill="#CBCBC7" id="aco" d="m188 197-1 3.5v3c0 9.57 8.989-6.5 1-6.5ZM267 197l-1 4v3c0 8.543 9.222-7 1-7Z"/><path fill="#99D2BD" id="OLF" d="m300 197-1 1 1-1Z"/><path fill="#CAC8C7" id="lot" d="M173 198c0 5.827-.414 12.673 2 17.5 1.02 2.039 4.896 7.207 7 3l-2-5c-1.658-3.315-2.393-15.5-7-15.5ZM282 198c0 1.437-5.056 14.611-6 16.5-.437.875-2.279 4.611-.5 5.5 5.407 2.704 11.474-22 6.5-22Z"/><path fill="#99D2BD" id="OLF" d="m157 199 1 1-1-1ZM299 200l-1 1 1-1ZM158 201l1 1-1-1ZM298 202l-1 1 1-1ZM228 203c-1.684 0-1 4.679-1 6 1.684 0 1-4.679 1-6ZM159 204l1 1-1-1ZM297 205l-1 1 1-1ZM160 206l1 1-1-1ZM296 207l-1 1 1-1ZM161 209l1 1-1-1ZM295 210l-1 1 1-1Z"/><path fill="#C7CBCA" id="onl" d="m266 247-1 1 1-1ZM193 248l1 1-1-1Z"/></svg>