<svg xmlns="http://www.w3.org/2000/svg" viewBox="0 0 456 320"><path fill="#99D2BD" id="OLF" d="m220 124-2 1-3-4.5c-3.461-3.461-6.532-5.516-10.5-7.5-4.251-2.126-17.756 0-23.5 0 0-1.36 11.862-3.181 13.5-4 4.7-2.35 18.286.071 20.5 4.5l2 7c.614 1.228 3 1.276 3 3.5ZM237 123l2 1 3-3.5c5.602-11.204 23.14-7.5 34-7.5 0-1.144-9.101-2.301-10.5-3-10.01-5.005-20.936-.628-25.5 8.5l-3 4.5Z"/><path fill="#9AD1BD" id="MOB" fill-rule="evenodd" d="m187 197-1 4.5c0 14.605 11.243-4.5 1-4.5m-16-1c0 6.52 1.254 15.007 4 20.5.518 1.036 4.574 6.851 6 4 1.359-2.717-5.198-24.5-10-24.5m10-30c0 8.128 4.741 0 0 0m13 83h2c9.65 0 17.11-9.72 21-17.5 1.446-2.893.581-7.163 2-10 4.332-8.665 7.61-54.781 3-64l-1-23-3-9.5-3-4.5c-3.461-3.461-6.532-5.516-10.5-7.5-4.251-2.126-17.756 0-23.5 0h-2c0 1.638-3.576 2-5 2h-1l-2 1-1 1h-1l-1 1-1 1h-1l-1 1c-2.945 0-12 9.055-12 12l-1 1-1 1v2l-1 1-1 2v2l-1 2v3l-1 2v11c1.579 0 1 2.855 1 4v2c1.473 0 1 1.952 1 3v4l1 1v2l1 2v3l1 1v1l1 1v3l1 1v2l1 1v2l1 1v1l1 1v3l1 1v1l1 1v2l1 1v1l1 1v2l1 1v1l1 1c0 9.729 19.309 37 30 37l1 1m-18-87c0 1.518 5 4.286 5 2 9.49 0 12-3.723 12-14 0-1.193 5.604-6.448 2.5-8l-2.5 1c0-5.63.387-13.057-5.5-16-7.119-3.56-15.5.892-15.5 9-.986 0-6-5.16-6 1-1.915 0-2.749 7-1.5 7l2.5-3v1c0 4.902 1.928 10.356 4 14.5l5 5.5ZM266 197v4.5c0 15.187 9.586-4.5 0-4.5m17-1c0 .426-6.896 17.292-8 19.5l.5 5.5c5.368 2.684 13.324-25 7.5-25m-9-30-1 1.5c-2.933 5.865 7.735-1.5 1-1.5m20 44c0 2.871-3.712 6.924-5 9.5-5.344 10.689-12.674 29.5-28 29.5-14.101 0-18.794-14.088-24-24.5v-5c-4.883-9.767-7.241-55.519-2-66v-17c1.285-2.571 4-9.822 4-12.5l3-3.5c5.602-11.204 23.14-7.5 34-7.5h1l11 5 4 2 1 1c2.744 0 13 12.5 13 16l1 1v2l1 2v1c0 1.048-.473 3 1 3v17l-1 2v3l-1 2v4l-1 1v2l-1 1v3l-1 1v2l-1 1v2l-1 2v1l-1 1v2l-1 1v1l-1 2v2l-1 1v1l-1 1v2l-1 1v1l-1 1v2l-1 1m-15-47c0 .813-3 2.728-3 1-9.608 0-13-3.202-13-14 0-.008-5.359-10.43-.5-8l1.5 2c0-6.03-2.201-13.15 5.5-17 6.119-3.059 15.5.519 15.5 8 1.076 0 5-2.669 5 1 1.765 0 .541 1.581 1 2.5 4.035 8.069-1 4.745-1 2.5l-1 1c0 4.009-.333 9.167-2 12.5l-7 7.5-1 1Z"/><path fill="#99D2BD" id="OLF" d="M179 113c-1.424 0-5 .362-5 2 1.424 0 5-.362 5-2ZM277 113c2.275 0 11 2.13 11 5l-11-5ZM173 115l-2 1 2-1ZM171 116l-1 1 1-1ZM169 117l-1 1 1-1ZM168 118l-1 1 1-1ZM166 119l-1 1 1-1ZM292 120l1 1-1-1Z"/><path fill="#C7CBCA" id="onl" d="M239 124c0 2.678-2.715 9.929-4 12.5v17c-5.241 10.481-2.883 56.233 2 66v5c5.206 10.412 9.899 24.5 24 24.5 0 2.93-7.629 4.065-9.5 5l-8 8c-2.668 1.334-11.236-.972-12.5-3.5-4.248-8.496 2.86-27.28-1-35-3.105-6.21-1-18.234-1-25.5v-40.5c3.635-7.271.41-17.819 4-25l4-9.5 2 1Z"/><path fill="#C7CBCA" id="onl" d="M227 209c0 10.514 1.716 42.068-2 49.5-1.485 2.971-3.45 1.475-5.5 2.5-7.455 3.727-9.18-4.09-15-7-1.655-.827-8.5-2.559-8.5-5 9.65 0 17.11-9.72 21-17.5 1.446-2.893.581-7.163 2-10 4.332-8.665 7.61-54.781 3-64l-1-23-3-9.5 2-1 4 11.5c2.949 5.899 3 27.416 3 35.5 0 1.574-.751 9 1 9v23c-1.684 0-1 4.679-1 6Z"/><path fill="#9DEFD2" id="AOBmi" d="M172 136c0 15.483 21 17.691 21 7 0-5.63.387-13.057-5.5-16-7.119-3.56-15.5.892-15.5 9ZM285 135c0 5.497-4.478 12.489-9.5 15-3.579 1.789-11.5-2.679-11.5-6 0-6.03-2.201-13.15 5.5-17 6.119-3.059 15.5.519 15.5 8Z"/><path fill="#99D2BD" id="OLF" d="m153 132-1 1 1-1ZM152 133l-1 1 1-1Z"/><path fill="#CACAC9" id="lotd" d="m193 143 2.5-1c3.104 1.552-2.5 6.807-2.5 8-3.895 0-7.97 6.765-13.5 4-4.137-2.069-9.012-12-12.5-12v-1l-1-4c0-6.16 5.014-1 6-1 0 15.483 21 17.691 21 7ZM264 144l-1.5-2c-4.859-2.43.5 7.992.5 8 4.029 0 7.95 6.775 13.5 4 3.9-1.95 9.509-12 12.5-12l1-1v-5c0-3.669-3.924-1-5-1 0 5.497-4.478 12.489-9.5 15-3.579 1.789-11.5-2.679-11.5-6Z"/><path fill="#99D2BD" id="OLF" d="m151 136-1 1 1-1Z"/><path fill="#CAC8C7" id="lot" d="M290 136c1.765 0 .541 1.581 1 2.5 4.035 8.069-1 4.745-1 2.5v-5Z"/><path fill="#99D2BD" id="OLF" d="m150 137-1 2 1-2Z"/><path fill="#CAC8C7" id="lot" d="M166 137c-1.915 0-2.749 7-1.5 7l2.5-3-1-4Z"/><path fill="#99D2BD" id="OLF" d="m306 137 1 1-1-1ZM307 140l1 2-1-2ZM149 141l-1 2 1-2Z"/><path fill="#95E4C8" id="AOBgr" d="m176 162 5 2c9.49 0 12-3.723 12-14-3.895 0-7.97 6.765-13.5 4-4.137-2.069-9.012-12-12.5-12 0 4.902 1.928 10.356 4 14.5l5 5.5ZM279 163c-1.048 0-3-.473-3 1-9.608 0-13-3.202-13-14 4.029 0 7.95 6.775 13.5 4 3.9-1.95 9.509-12 12.5-12 0 4.009-.333 9.167-2 12.5l-7 7.5-1 1Z"/><path fill="#99D2BD" id="OLF" d="M308 143c1.473 0 1 1.952 1 3-1.473 0-1-1.952-1-3ZM148 146l-1 2 1-2ZM147 159c1.579 0 1 2.855 1 4-1.579 0-1-2.855-1-4Z"/><path fill="#CBCBC7" id="aco" d="m176 162 5 2c0 2.286-5-.482-5-2ZM280 162l-1 1 1-1ZM279 163c-1.048 0-3-.473-3 1 0 1.728 3-.187 3-1Z"/><path fill="#99D2BD" id="OLF" d="m309 163-1 2 1-2ZM148 165c1.473 0 1 1.952 1 3-1.473 0-1-1.952-1-3Z"/><path fill="#CBCBC7" id="aco" d="M181 166c0 8.128 4.741 0 0 0ZM274 166l-1 1.5c-2.933 5.865 7.735-1.5 1-1.5Z"/><path fill="#99D2BD" id="OLF" d="m308 168-1 2 1-2ZM227 171c1.751 0 1 7.426 1 9-1.751 0-1-7.426-1-9ZM149 172l1 1-1-1ZM307 174l-1 1 1-1ZM150 175l1 2-1-2ZM306 177l-1 1 1-1ZM151 180l1 1-1-1ZM305 181l-1 1 1-1ZM152 182l1 1-1-1ZM304 184l-1 1 1-1ZM153 186l1 1-1-1ZM303 187l-1 2 1-2ZM154 189l1 1-1-1ZM302 190l-1 1 1-1ZM155 192l1 1-1-1ZM301 193l-1 1 1-1ZM156 194l1 1-1-1ZM300 195l-1 2 1-2Z"/><path fill="#CAC8C7" id="lot" d="M171 196c0 6.52 1.254 15.007 4 20.5.518 1.036 4.574 6.851 6 4 1.359-2.717-5.198-24.5-10-24.5ZM283 196c0 .426-6.896 17.292-8 19.5l.5 5.5c5.368 2.684 13.324-25 7.5-25Z"/><path fill="#CBCBC7" id="aco" d="m187 197-1 4.5c0 14.605 11.243-4.5 1-4.5ZM266 197v4.5c0 15.187 9.586-4.5 0-4.5Z"/><path fill="#99D2BD" id="OLF" d="m157 198 1 1-1-1ZM299 199l-1 1 1-1ZM158 200l1 1-1-1ZM298 201l-1 1 1-1ZM159 203l1 1-1-1ZM228 203c-1.684 0-1 4.679-1 6 1.684 0 1-4.679 1-6ZM297 204l-1 1 1-1ZM160 205l1 1-1-1ZM296 206l-1 1 1-1ZM161 208l1 1-1-1ZM295 209l-1 1 1-1ZM162 210l1 1-1-1Z"/><path fill="#C7CBCA" id="onl" d="m193 248 1 1-1-1Z"/></svg>