<svg xmlns="http://www.w3.org/2000/svg" viewBox="0 0 456 320"><path fill="#1E9C59" id="MOs1" d="M220 65h1l3-3c0-3.668-9.528-11.514-12.5-13-8.313-4.157-21.806-6.597-31-2h-5c-4.288 2.144-11.625 6-16.5 6 0 2.41 1 5.181 1 7l11.5-5c10.87-5.435 28.315-5.342 39 0 3.035 1.517 9.5 5.79 9.5 10ZM233 62l3 3c0-2.676 6.408-7.954 8.5-9l5-4c4.779-2.39 24.621-1.19 29 1l18.5 7v-7c-4.58 0-12.401-3.95-16.5-6h-5c-6.872-3.436-22.131-3.434-29 0l-5 4c-2.581 1.29-8.5 7.639-8.5 11Z"/><path fill="#1E9D58" id="MOs2/3" d="m214 69-3.5-4c-2.552-1.276-12.012-5.494-15-4-5.596 2.798-12.353 3.176-18 6-5.253 2.626-12.504 10-18.5 10V61l1-1 11.5-5c10.87-5.435 28.315-5.342 39 0 3.035 1.517 9.5 5.79 9.5 10-3.469 0-2.531 4-6 4ZM243 69c0-5.931 9.993-5.247 13.5-7 11.092-5.546 32.802 15 40.5 15V60l-18.5-7c-4.379-2.19-24.221-3.39-29-1l-5 4c-2.092 1.046-8.5 6.324-8.5 9l6 4h1Z"/><path fill="#1E9D5A" id="MOp1" d="M99 89v8l18.5-16c10.317-5.159 30.473-20 41.5-20l1-1c0-1.819-1-4.59-1-7-3.087 0-8.645 4.572-11.5 6-12.148 6.074-23.706 13.853-36 20L99 89ZM358 90c0 1.293-.467 6-1 6l-12.5-11c-13.303-6.651-32.458-24-47.5-24v-8c8.175 0 37.589 21.545 46.5 26 1.878.94 14.5 9.723 14.5 11Z"/><path fill="#1F9C58" id="MOp2/3" fill-rule="evenodd" d="M102 113c0 1.93 1.93 0 0 0m0 2c0 2.563 1 3.617 1 8l12-15.5c11.028-11.028 21.795-18.148 34.5-24.5l9.5-6V61c-11.027 0-31.183 14.841-41.5 20L99 97v1c0 4.48 1 8.984 1 13.5l2 3.5Z"/><path fill="#1F9D58" id="MOs5" d="M197 85h1c0-1.86 13.992-15 16-15v-1l-3.5-4c-2.552-1.276-12.012-5.494-15-4-5.596 2.798-12.353 3.176-18 6-5.253 2.626-12.504 10-18.5 10v21c6.369 0 24.982-11.74 31.5-15l6.5 2ZM259 85l6.5-2c6.785 3.393 24.654 14 31.5 14 .958 0 0-2.95 0-4.5V77c-7.698 0-29.408-20.546-40.5-15-3.507 1.753-13.5 1.069-13.5 7 0 2.808 9.76 9.26 12.5 12l3.5 4Z"/><path fill="#1F9C58" id="MOp2/3" fill-rule="evenodd" d="M353 117c0 1.93 1.93 0 0 0m2-4c-1.927 0 0 3.205 0 4.5l-2 4.5-4-4.5c-3.654-3.654-4.968-6.968-9-11-9.946-9.946-20.327-17.414-32.5-23.5L297 77V61c15.042 0 34.197 17.349 47.5 24L357 96v1c0 5.956-2 11.875-2 16Z"/><path fill="#3EA665" id="ACAd1" d="M223 97h11l-1-22.5 3-9.5-3-3-4.5 6-4.5-6-3 3c0 2.613.93 4.36 2 6.5V97Z"/><path fill="#40A565" id="ACAd2/3" d="M222 97h1V71.5c-1.07-2.14-2-3.887-2-6.5h-1c-3.469 0-2.531 4-6 4v1c1.183 0 1.535 3.57 2 4.5 2.893 5.786 1 16.72 1 23.5l5-1ZM234 97l6 1V73.5l2-4.5-6-4-3 9.5 1 22.5Z"/><path fill="#3EA566" id="ACAd5" d="M254 106h1c0-3.84-.666-20 4-20v-1l-3.5-4c-2.74-2.74-12.5-9.192-12.5-12h-1l-2 4.5V98c2.342 0 14 6.347 14 8ZM217 98c-5.564 0-9.907 7-15 7l-1-14.5-3-5.5c0-1.86 13.992-15 16-15 1.183 0 1.535 3.57 2 4.5 2.893 5.786 1 16.72 1 23.5Z"/><path fill="#1E9C5A" id="MOp5" d="m112 169-6 1c0-2.151-.898-13-3-13 0-2.073-1.38-9.739 0-12.5l2-2c0-5.498-2-11.434-2-17.5v-2l12-15.5c11.028-11.028 21.795-18.148 34.5-24.5l9.5-6v21c-5.885 0-11.448 6.474-16.5 9-30.686 15.343-30.5 30.137-30.5 61v1ZM344 168l6 2c.164 0 3-11.956 3-13v-16.5l-2-2 2-3-2-1c0-3.889 2-6.498 2-10.5v-2l-4-4.5c-3.654-3.654-4.968-6.968-9-11-9.946-9.946-20.327-17.414-32.5-23.5L297 77v15.5c0 1.55.958 4.5 0 4.5l1 2c7.362 0 13.284 6.892 19.5 10 6.791 3.395 17.547 10.595 21.5 18.5l6 18c2.744 5.488-1 17.217-1 22.5Z"/><path fill="#1D9C5A" id="MOs6a" d="M160 121h1c0-5.119 19.338-10 24-10 0-8.769 12-20.432 12-26l-6.5-2c-6.518 3.26-25.131 15-31.5 15 0 7.694 1 15.926 1 23ZM272 111c10.984 0 22.219 10 25 10l1-22-1-2c-6.846 0-24.715-10.607-31.5-14l-6.5 2v1c2.99 0 12 21.396 12 25h1Z"/><path fill="#3FA664" id="ACAd6a" d="M188 114h1c0-2.923 10.277-8 13-8v-1l-1-14.5-3-5.5h-1c0 5.568-12 17.231-12 26v1c1.238 0 3 .423 3 2ZM267 114h1l2-1 1-2c0-3.604-9.01-25-12-25-4.666 0-4 16.16-4 20 2.391 0 12 4.867 12 8Z"/><path fill="#187E61" id="SSp-m1" d="m76 163-4 1c0-5.283-3.744-17.012-1-22.5 2.277-4.553 1.73-10.462 4-15l12-24C88.316 99.868 95.2 89 99 89v9c-1.617 0-11.071 12.642-12 14.5-10.788 21.575-11 26.105-11 50.5ZM381 163l4 1c0-25.777-2.33-36.159-13-57.5-1.958-3.915-10.303-16.5-14-16.5 0 1.293-.467 6-1 6v1c1.983 0 9.101 10.703 10 12.5 11.072 22.143 14 26.477 14 53.5Z"/><path fill="#3FA566" id="ACAv2/3" d="M219 145h4l-1-48-5 1c0 16.33 2 31.433 2 47Z"/><path fill="#40A664" id="ACAv1" d="M229 145h4c0-15.795 1-31.733 1-48h-12l1 48h4c0-4.013 2-4.556 2 0Z"/><path fill="#3FA566" id="ACAv2/3" d="M233 145h4c0-15.01 3-31.527 3-47l-6-1c0 16.267-1 32.205-1 48Z"/><path fill="#1A7E64" id="SSp-m2/3" d="m369 161 12 2c0-27.023-2.928-31.357-14-53.5-.899-1.797-8.017-12.5-10-12.5 0 5.956-2 11.875-2 16 0 2.643 8.355 14.211 10 17.5 4.345 8.691 4 20.179 4 29.5v1ZM87 160c-3.457 0-7.099 3-11 3 0-24.395.212-28.925 11-50.5.929-1.858 10.383-14.5 12-14.5 0 4.48 1 8.984 1 13.5l2 3.5c-3.512 0-5.683 6.867-7 9.5-5.667 11.334-8 21.692-8 35.5Z"/><path fill="#1F9B5A" id="MOp6a" d="M132 159c-4.809 0-13.459 9-20 9 0-30.863-.186-45.657 30.5-61 5.052-2.526 10.615-9 16.5-9 0 7.694 1 15.926 1 23l-3.5 3c-12.411 6.205-24.5 21.362-24.5 35Z"/><path fill="#3EA666" id="ACAv5" d="M213 145h6c0-15.567-2-30.67-2-47-5.564 0-9.907 7-15 7v4c1.751 0 1 7.426 1 9v1c1.951 0 .477 2.454 1 3.5 1.554 3.108 3 7.871 3 11.5v3l6 8ZM237 145h7c0-1.294 3.609-7 5-7v-4l1-1c0-1.145-.579-4 1-4 0-1.775.069-8 2-8v-1l1-14c0-1.653-11.658-8-14-8 0 15.473-3 31.99-3 47Z"/><path fill="#1F9B5A" id="MOp6a" d="M324 159c6.542 0 13.01 9 20 9 0-5.283 3.744-17.012 1-22.5l-6-18c-3.953-7.905-14.709-15.105-21.5-18.5-6.216-3.108-12.138-10-19.5-10l-1 22v1c3.537 0 8.427 5.927 11 8.5 8.153 8.153 16 15.195 16 27.5v1Z"/><path fill="#2FA850" id="PL6a" d="m206 134-5 2c-2.208 0-7.728-15.957-9-18.5l-3-3.5c0-2.923 10.277-8 13-8v3c0 1.574-.751 9 1 9v1c0 5.632 3 9.627 3 15Z"/><path fill="#2EA84F" id="PL5" d="M255 106c0 2.093-.461 14-2 14l1-14h1Z"/><path fill="#2FA850" id="PL6a" d="M255 137h1c0-2.096 5.727-13.954 7-16.5l3-3.5 1-3c0-3.133-9.609-8-12-8 0 2.093-.461 14-2 14v1c0 1.775-.069 8-2 8 0 1.145.579 4-1 4v1c1.076 0 5 1.523 5 3Z"/><path fill="#2EA84F" id="PL5" d="M202 109c1.751 0 1 7.426 1 9-1.751 0-1-7.426-1-9Z"/><path fill="#1E9C58" id="MOs6b" d="M167 119c-2.72 0-3.553 2-6 2 0-5.119 19.338-10 24-10v1l-1 1c-3.767 0-17 .628-17 6Z"/><path fill="#3FA466" id="ACAd6b" d="M270 113h2v-2h-1l-1 2Z"/><path fill="#1E9C58" id="MOs6b" d="M297 122v1l-8-5c-.186 0-9.704-5-17-5v-2c10.984 0 22.219 10 25 10v1Z"/><path fill="#3FA466" id="ACAd6b" d="M188 114v1l-4-2 1-1c1.238 0 3 .423 3 2Z"/><path fill="#1B7F62" id="SSp-m4" d="M102 113c0 1.93 1.93 0 0 0Z"/><path fill="#CACCC7" id="cing" d="M203 144v1c-5.802 0-10.437-26-17-26l-1-1c-4.68 0-8.76 1-14 1h-4c0-5.372 13.233-6 17-6l4 2c3.185 0 6.707 14.915 8 17.5l3 4.5 3 4 1 3Z"/><path fill="#3FA466" id="ACAd6b" d="M268 114v1l2-2-2 1Z"/><path fill="#CACCC7" id="cing" d="M285 119c-6.384 0-9.505-2.998-15.5 0-3.334 1.667-6.054 13-8.5 13 0-5.688 5-9.884 5-15l2-2 2-2h2c7.296 0 16.814 5 17 5 0 1.579-2.855 1-4 1Z"/><path fill="#1B7F62" id="SSp-m4" d="m365 159 4 1c0-9.321.345-20.809-4-29.5-1.645-3.289-10-14.857-10-17.5-1.927 0 0 3.205 0 4.5l-2 4.5v2c2.295 0 3.263 6.025 4 7.5 3.839 7.677 7 18.406 7 27.5h1Z"/><path fill="#2FA84F" id="PL6b" d="M199 137h2v-1c-2.208 0-7.728-15.957-9-18.5l-3-3.5h-1v1c3.185 0 6.707 14.915 8 17.5l3 4.5ZM268 115l-2 2 1-3h1v1Z"/><path fill="#1B7F62" id="SSp-m4" d="m92 159-5 1c0-13.808 2.333-24.166 8-35.5 1.317-2.633 3.488-9.5 7-9.5 0 2.563 1 3.617 1 8v2c-2.295 0-3.263 6.025-4 7.5-3.538 7.076-7 18.234-7 26.5Z"/><path fill="#CAC7CC" id="fa" d="M140 170c0 1.473-1.952 1-3 1l-1-3c1.793 0 1-12.009 1-14 0-4.731 4.957-10.413 7-14.5 3.216-6.431 14.797-13.649 20.5-16.5 1.47-.735 6.5-1.53 6.5-4 5.24 0 9.32-1 14-1l1 1c6.563 0 11.198 26 17 26v15c-1.564 0-3.876 1-6 1l-1-2v-1l-1-1c0-11.486-24.393-25.553-35.5-20-20.816 10.408-19.5 10.272-19.5 33Z"/><path fill="#2FA84F" id="PL6b" d="M256 137h1l4-5c0-5.688 5-9.884 5-15l-3 3.5c-1.273 2.546-7 14.404-7 16.5Z"/><path fill="#CAC7CC" id="fa" d="m316 170 3 1 1-3c0-9.704-2.999-28.75-11.5-33l-17-12-6.5-4c-6.384 0-9.505-2.998-15.5 0-3.334 1.667-6.054 13-8.5 13 0 3.495-3.823 13-8 13v15c1.564 0 3.876 1 6 1v-1l1-1 1-1c0-17.281 28.974-25.763 42.5-19 15.883 7.941 12.5 16.725 12.5 31Z"/><path fill="#1B7F62" id="SSp-m4" d="M353 117c0 1.93 1.93 0 0 0Z"/><path fill="#CCC7C9" id="ccg" d="m185 118 1 1-1-1Z"/><path fill="#C9C9CA" id="scwm" d="M321 157c0 1.741.773 11-1 11 0-9.704-2.999-28.75-11.5-33l-17-12-6.5-4c1.145 0 4 .579 4-1l8 5 11 9.5c7.552 7.552 13 13.803 13 24.5ZM135 157c0 3.642 1 8.002 1 11 1.793 0 1-12.009 1-14 0-4.731 4.957-10.413 7-14.5 3.216-6.431 14.797-13.649 20.5-16.5 1.47-.735 6.5-1.53 6.5-4h-4c-2.72 0-3.553 2-6 2l-1 2c-2.84 0-5.76 5.13-7.5 6-7.723 3.861-17.5 17.355-17.5 28Z"/><path fill="#2EA84F" id="PL5" d="M206 134h1c0-3.629-1.446-8.392-3-11.5-.523-1.046.951-3.5-1-3.5 0 5.632 3 9.627 3 15Z"/><path fill="#1D9D5A" id="MOp6b" d="m135 157-3 2c0-13.638 12.089-28.795 24.5-35l3.5-3v2c-2.84 0-5.76 5.13-7.5 6-7.723 3.861-17.5 17.355-17.5 28Z"/><path fill="#1E9C58" id="MOs6b" d="m161 121-1 2v-2h1Z"/><path fill="#2EA84F" id="PL5" d="M253 121c-1.931 0-2 6.225-2 8 1.931 0 2-6.225 2-8Z"/><path fill="#1D9D5A" id="MOp6b" d="m321 157 3 1c0-12.305-7.847-19.347-16-27.5-2.573-2.573-7.463-8.5-11-8.5v1l11 9.5c7.552 7.552 13 13.803 13 24.5Z"/><path fill="#1B7E63" id="SSp-m5" d="m353 157 11 2c0-9.094-3.161-19.823-7-27.5-.737-1.475-1.705-7.5-4-7.5 0 4.002-2 6.611-2 10.5l2 1-2 3 2 2V157ZM103 157c-4.135 0-7.305 2-11 2 0-8.266 3.462-19.424 7-26.5.737-1.475 1.705-7.5 4-7.5 0 6.066 2 12.002 2 17.5l-2 2c-1.38 2.761 0 10.427 0 12.5Z"/><path fill="#2EA84F" id="PL5" d="M251 129c-1.579 0-1 2.855-1 4 1.579 0 1-2.855 1-4Z"/><path fill="#CACCC7" id="cing" d="M253 144v1c4.177 0 8-9.505 8-13l-4 5-2 4-2 3Z"/><path fill="#2EA84F" id="PL5" d="M249 134h1v-1l-1 1Z"/><path fill="#58B362" id="ILA6a" d="M203 144h2c1.663 0 2-5.407 2-7v-3h-1l-5 2v1l1 4 1 3Z"/><path fill="#59B262" id="ILA5" d="m250 134-1 1v-1h1Z"/><path fill="#58B362" id="ILA6a" d="M251 144h2l2-3c-2.091 0 0-2.863 0-4 0-1.477-3.924-3-5-3l-1 1v3l2 6Z"/><path fill="#98D5F9" id="CP" d="M152 220c1.947 0 2.636 3 5 3 3.935 0 6.216-13.358 11.5-16 3.186-1.593 26.5-18.172 26.5-19l2-4v-11c0-4.869-1-9.649-1-14v-1l-1-1c0-11.486-24.393-25.553-35.5-20-20.816 10.408-19.5 10.272-19.5 33l7 14.5c1.489 2.977-1 8.046-1 10.5 0 6.285 3 12.442 3 18 0 3.047 3 4.462 3 7Z"/><path fill="#58B263" id="ILA6b" d="m201 137 1 4-3-4h2Z"/><path fill="#40A564" id="ACAv6a" d="M205 144c0 1.735 6.51 1 8 1l-6-8c0 1.593-.337 7-2 7Z"/><path fill="#58B263" id="ILA6b" d="m257 137-2 4c-2.091 0 0-2.863 0-4h2Z"/><path fill="#98D5F9" id="CP" d="M299 223h2l2-1c0-2.866 5-5.719 5-9 0-1.048-.473-3 1-3l1-16c0-2.014-2.284-5.932-1-8.5l7-15.5c0-14.275 3.383-23.059-12.5-31-13.526-6.763-42.5 1.719-42.5 19l-1 1v26c1.473 0 1 1.952 1 3l7.5 7c10.88 5.44 14.262 7.262 24 17 2.468 2.468 2.879 11 6.5 11Z"/><path fill="#40A564" id="ACAv6a" d="M251 144c0 1.714-5.594 1-7 1 0-1.294 3.609-7 5-7l2 6Z"/><path fill="#A3DAA3" id="DP" d="M206 163h19l2-3.5V145h-14c-1.49 0-8 .735-8-1h-2v16l3 3ZM231 163h19l3-3v-16h-2c0 1.714-5.594 1-7 1h-15v12c.913 0 2 5.014 2 6Z"/><path fill="#99D2BD" id="OLF" d="M225 163c3.015 0 2.373 8 3.5 8 1.163 0-.368-8 2.5-8 0-.986-1.087-6-2-6 0 13.474-1.098-9-2-9v11.5l-2 3.5Z"/><path fill="#019C75" id="GU5" d="M106 170c0 1.728-13.099 7-15 7 0-6.216 1-12.292 1-18 3.695 0 6.865-2 11-2 2.102 0 3 10.849 3 13Z"/><path fill="#1F9766" id="AId6b" d="m139 176-2 1-2-3c0-4.614-3-9.54-3-15l3-2c0 3.642 1 8.002 1 11l1 3 2 5Z"/><path fill="#AAA8A9" id="SEZ" d="m195 157 1 1-1-1Z"/><path fill="#1F9766" id="AId6b" d="m320 176-1 1-1-2 1-4 1-3c1.773 0 1-9.259 1-11l3 1v1l1 4.5-4 10.5v1l-1 1Z"/><path fill="#019C75" id="GU5" d="m350 170 3 1.5c.242.483 9.305 5.5 12 5.5v-18h-1l-11-2c0 1.044-2.836 13-3 13Z"/><path fill="#AAA8A9" id="SEZ" d="m261 158-1 1 1-1Z"/><path fill="#009C74" id="GU4" d="M90 178h1v-1c0-6.216 1-12.292 1-18l-5 1c0 6.481 3 11.917 3 18Z"/><path fill="#209666" id="AId6a" d="M122 190h1l4-2-4-5.5c-4.837-9.675 6.608-8.5 12-8.5 0-4.614-3-9.54-3-15-4.809 0-13.459 9-20 9v1c0 9.527 10 16.332 10 21Z"/><path fill="#AAA8A9" id="SEZ" d="m197 173 2 3c1.301 0 0-2.135 0-3.5v-9l-2-2.5-1-2c0 4.351 1 9.131 1 14Z"/><path fill="#99D2BD" id="OLF" d="M259 160h1v-1l-1 1Z"/><path fill="#209666" id="AId6a" d="m330 187 4 3c0-2.958 10-10.923 10-22-6.99 0-13.458-9-20-9l1 4.5-4 10.5c3.289 0 9.667-3.167 12 1.5 1.141 2.283.654 11.5-3 11.5Z"/><path fill="#009C74" id="GU4" d="M365 178h1c0-5.509 3-10.754 3-17v-1l-4-1v19Z"/><path fill="#009B75" id="GU2/3" d="m90 178-11 4-3-19c3.901 0 7.543-3 11-3 0 6.481 3 11.917 3 18Z"/><path fill="#99D2BD" id="OLF" d="M197 183v1c0 10.271 6.238-3.869 8.5-5l5.5 3c0-3.448-4.484-7.468-6-10.5-1.284-2.568 1-6.486 1-8.5l-3-3c-1.564 0-3.876 1-6 1l2 2.5v9c0 1.365 1.301 3.5 0 3.5v2c0 1.622.461 5-2 5ZM260 183v2l-2.5 3c-2.052 0-4.451-7.726-7-9l-4.5 3c0-3.758 3.422-6.344 5-9.5 1.386-2.772-1-7.269-1-9.5l3-3c1.564 0 3.876 1 6 1 0 1.775-5.957 22 1 22Z"/><path fill="#AAA8A9" id="SEZ" fill-rule="evenodd" d="m258 173 .5 7c.624 0 1.293-7-.5-7m1-12c0 1.775-5.957 22 1 22v-23h-1v1Z"/><path fill="#009B75" id="GU2/3" d="m366 178 11 4 4-19-12-2c0 6.246-3 11.491-3 17Z"/><path fill="#009C75" id="GU1" d="m79 182-4 1-3-19 4-1 3 19Z"/><path fill="#61D09F" id="TTd" d="M216 187c4.115 0 6.205 3.148 10.5 1l2-9c.085 0 .78 8.89 3 10l9.5-2 1-1 1-1 1-1 1-1 1-1c0-3.758 3.422-6.344 5-9.5 1.386-2.772-1-7.269-1-9.5h-19c-2.868 0-1.337 8-2.5 8-1.127 0-.485-8-3.5-8h-19c0 2.014-2.284 5.932-1 8.5 1.516 3.032 6 7.052 6 10.5l1 2 3 3h1Z"/><path fill="#009C75" id="GU1" d="m377 182 4 1 4-19-4-1-4 19Z"/><path fill="#209665" id="AId5" d="M358 199h1c0-3.949 6-12.123 6-21v-1c-2.695 0-11.758-5.017-12-5.5l-3-1.5-6-2c0 11.077-10 19.042-10 22 5.384 0 17.346 9 24 9ZM97 199h2c0-1.59 4.386-1.443 5.5-2 2.442-1.221 17.5-4.96 17.5-7 0-4.668-10-11.473-10-21l-6 1c0 1.728-13.099 7-15 7v1c0 7.717 6 15.583 6 21Z"/><path fill="#C8CBCC" id="ec" d="M144 195h2c0-2.454 2.489-7.523 1-10.5l-7-14.5c0 1.473-1.952 1-3 1l2 5 1 3c1.473 0 1 1.952 1 3v1l1 1v1l1 1v4c1.643 0 1 3.765 1 5ZM310 194l3 1c0-.666-2.56-4 0-4v-4l1-1 1-3 1-2v-1c0-.671 1.328-5 2-5l1-4-3-1-7 15.5c-1.284 2.568 1 6.486 1 8.5Z"/><path fill="#8ADA86" id="CLA" d="M127 188c0 6.908 16 11.637 16 2v-4l-1-1v-1l-1-1v-1l-1-1-3-4-2-3c-5.392 0-16.837-1.175-12 8.5l4 5.5Z"/><path fill="#A8AAAA" id="VL" d="m199 178-2 2v-7l2 3v2ZM258 173l.5 7c.624 0 1.293-7-.5-7Z"/><path fill="#8ADA86" id="CLA" d="m330 187-9.5 9c-3.027 1.513-6.109-5-7.5-5v-4l1-1 1-3 1-2 1-1c1.577 0 2-1.762 2-3l1-1 1-1v-1c3.289 0 9.667-3.167 12 1.5 1.141 2.283.654 11.5-3 11.5Z"/><path fill="#219665" id="AIv6b" d="M316 180h1c1.577 0 2-1.762 2-3l-1-2c-.672 0-2 4.329-2 5Z"/><path fill="#209666" id="AId6a" d="m321 175-1 1 1-1Z"/><path fill="#219665" id="AIv6b" d="M140 179v2l-3-4 2-1 1 3Z"/><path fill="#209765" id="AId2/3" d="M97 199c-3.823 0-6.314 3-10 3 0-3.432-8-14.868-8-20l11-4h1c0 7.717 6 15.583 6 21Z"/><path fill="#AAA8A9" id="SEZ" d="M197 180v3c2.461 0 2-3.378 2-5l-2 2Z"/><path fill="#209765" id="AId2/3" d="M359 199c4.09 0 6.21 3 10 3 1.658 0 8-17.42 8-20l-11-4h-1c0 8.877-6 17.051-6 21Z"/><path fill="#1F9866" id="AIv6a" d="m140 181 1 1c0-1.048.473-3-1-3v2Z"/><path fill="#97D6F9" id="STR" d="M221 260c3.341 0 2.429-17 7.5-17 1.907 0 6.289 20 8.5 20 0-2.839-3.69-6.121-2-9.5l3-6.5c-1.22 0-1.504-3.492-1-4.5 1.259-2.517 1.774-9.5 5-9.5v-10.5c1.312-2.624 3-5.345 3-8.5-1.627 0-2.031 6.235-4.5 5-10.651-5.326 10.5-48.656 10.5-20 4.341 0 4.229-11 10-11 0-1.048.473-3-1-3l-2.5 3c-2.052 0-4.451-7.726-7-9l-4.5 3-1 1-1 1-1 1-1 1-1 1c0 2.013-7.331 6.084-9.5 5l-3-3-3 3c-2.311 1.156-9.5-2.256-9.5-5h-1l-3-3-1-2-5.5-3c-2.262 1.131-8.5 15.271-8.5 5l-2 4c6.701 0 12.069 19 14 19 0-3.231-2.636-5.772-4-8.5-1.406-2.813 1.496-11.502 5.5-9.5 3.965 1.983 12.191 26.905 6 30-2.768 1.384-3.922-6-5.5-6 0 6.67 4 12.251 4 20 3.692 0 4 11.077 4 14 0 4.313 2 8 2 13Z"/><path fill="#99D2BD" id="OLF" d="M216 187c4.115 0 6.205 3.148 10.5 1l2-9c.085 0 .78 8.89 3 10l9.5-2c0 2.013-7.331 6.084-9.5 5l-3-3-3 3c-2.311 1.156-9.5-2.256-9.5-5Z"/><path fill="#1F9866" id="AIv6a" d="m317 180-1 1v-1h1ZM316 181l-1 2 1-2Z"/><path fill="#209764" id="AId1" d="m87 203-4 1c0-6.674-8-14.039-8-21l4-1c0 5.132 8 16.568 8 20v1Z"/><path fill="#99D2BD" id="OLF" d="m246 182-1 1 1-1Z"/><path fill="#209764" id="AId1" d="m369 203 4 1c0-5.212 8-14.43 8-21l-4-1c0 2.58-6.342 20-8 20v1Z"/><path fill="#1F9866" id="AIv6a" d="m141 183 1 1-1-1Z"/><path fill="#99D2BD" id="OLF" d="m245 183-1 1 1-1ZM212 184l3 3-3-3ZM244 184l-1 1 1-1Z"/><path fill="#1F9866" id="AIv6a" d="m142 185 1 1-1-1Z"/><path fill="#99D2BD" id="OLF" d="m243 185-1 1 1-1ZM242 186l-1 1 1-1Z"/><path fill="#1F9866" id="AIv6a" d="m314 186-1 1 1-1ZM325 206h1l8-16-4-3-9.5 9c-3.027 1.513-6.109-5-7.5-5-2.56 0 0 3.334 0 4l2 4c3.835 0 6.74 7 10 7ZM131 206h1c0-1.758 7.424-7 9-7 0-1.429 1.288-4 3-4 0-1.235.643-5-1-5 0 9.637-16 4.908-16-2l-4 2 8 16Z"/><path fill="#80CDF8" id="ACB" fill-rule="evenodd" d="M175 210c0 .555-6.173 6.846-7 8.5-1.659 3.318 5.369 8.065 8.5 6.5 4.89-2.445 6.454-15-1.5-15m40 23c0 10.988-7.054 22.777-17.5 28-9.34 4.67-39.5-2.995-39.5-15 0-2.014-2.284-5.932-1-8.5 1.246-2.491 3.673-8.653 2-12l-2-2.5c3.935 0 6.216-13.358 11.5-16 3.186-1.593 26.5-18.172 26.5-19 6.701 0 12.069 19 14 19v2l1 1v1l1 1v1c0 6.67 4 12.251 4 20ZM280 210c0 1.371-4 2.857-4 5.5 0 2.247.085 3.169 1 5 7.378 14.757 17.886-10.5 3-10.5m-38 23c0 3.997-.67 9.161 1 12.5 2.94 5.881 10.797 12.648 16.5 15.5 3.667 1.834 24.056-.528 27-2l9.5-6.5c.632-1.265 1.278-6.5 3-6.5 0-5.325.194-10.112-2-14.5-1.646-3.292 2-5.883 2-8.5-3.621 0-4.032-8.532-6.5-11-9.738-9.738-13.12-11.56-24-17l-7.5-7c-5.771 0-5.659 11-10 11 0 1.465.109 4-2 4v1l-1 2-1 2v1l-1 2-1 2v1c0 3.155-1.688 5.876-3 8.5V233Z"/><path fill="#90CAED" id="LSr" d="M211 212v1c1.578 0 2.732 7.384 5.5 6 6.191-3.095-2.035-28.017-6-30-4.004-2.002-6.906 6.687-5.5 9.5 1.364 2.728 4 5.269 4 8.5v2l1 1v1l1 1ZM245 213v1c-1.627 0-2.031 6.235-4.5 5-10.651-5.326 10.5-48.656 10.5-20l-2 4v1l-1 2-1 2v1l-1 2-1 2Z"/><path fill="#1F9865" id="AIv5" d="m121 210-5 1c0-7.628-17-5.538-17-12 0-1.59 4.386-1.443 5.5-2 2.442-1.221 17.5-4.96 17.5-7h1l8 16c-1.136 0-10 3.589-10 4ZM336 210l5 1c0-6.899 17-7.01 17-12-6.654 0-18.616-9-24-9l-8 16c0 2.418 10 2.362 10 4Z"/><path fill="#8AD987" id="CTXsp" d="M315 199c-6.251 0-2.162 11-6 11l1-16 3 1 2 4ZM141 199c7.044 0 3.012 14 8 14 0-5.558-3-11.715-3-18h-2c-1.712 0-3 2.571-3 4Z"/><path fill="#219764" id="AIv2/3" d="M116 211c-6.599 0-12.246 4-19 4l-10-12v-1c3.686 0 6.177-3 10-3h2c0 6.462 17 4.372 17 12Z"/><path fill="#A0EE9C" id="EPd" d="M139 225h1c1.22 0 16 7.135 16 .5l-4-5.5c0-2.538-3-3.953-3-7-4.988 0-.956-14-8-14-1.576 0-9 5.242-9 7 0 2.749-4 5.105-4 9v1l1 1v1l1 1 1 1 1 1h1l2 2h1l3 2Z"/><path fill="#97D6F9" id="STR" d="m251 199-2 4c2.109 0 2-2.535 2-4Z"/><path fill="#A0EE9C" id="EPd" d="m315 226-2 1c-4.994 0-12 3.803-12-4l2-1c0-2.866 5-5.719 5-9 1.473 0 1-1.952 1-3 3.838 0-.251-11 6-11 3.835 0 6.74 7 10 7 0 3.134 3 5.948 3 10l-2 3-1 1-3 2-1 1h-1l-1 1-1 1h-1l-2 1Z"/><path fill="#219764" id="AIv2/3" d="M341 211c6.069 0 11.617 4 18 4 2.453 0 10-10.005 10-12v-1c-3.79 0-5.91-3-10-3h-1c0 4.99-17 5.101-17 12Z"/><path fill="#209864" id="AIv1" d="M97 215c0 .672-4.33 2-5 2-1.208 0-9-11.454-9-13l4-1 10 12ZM359 215c0 .675 5.294 2 6 2l8-13-4-1c0 1.995-7.547 12-10 12Z"/><path fill="#97D6F9" id="STR" d="m249 204-1 2 1-2Z"/><path fill="#99D2BD" id="OLF" d="m121 210 6 .5c.574 1.147-1.064 4.5 1 4.5 0-3.895 4-6.251 4-9h-1c-1.136 0-10 3.589-10 4Z"/><path fill="#97D6F9" id="STR" d="m248 206-1 2 1-2Z"/><path fill="#99D2BD" id="OLF" d="m336 210-7 .5c-.619 1.238 1.144 5.5-1 5.5 0-4.052-3-6.866-3-10h1c0 2.418 10 2.362 10 4Z"/><path fill="#97D6F9" id="STR" d="m209 209 1 1-1-1ZM247 209l-1 2 1-2Z"/><path fill="#6ACAB9" id="PIR" d="m133 256 1 1c3.382 0 5.741-4 10-4 0-2.214 12.023-9.455 9-15.5-1.32-2.639-4.135-7.318-6.5-8.5-1.426-.713-6.5-1.764-6.5-4h-1c-1.238 0-3-.423-3-2h-1l-2-2h-1l-1-1-1-1-1-1v-1l-1-1v-1c-2.064 0-.426-3.353-1-4.5l-6-.5-5 1c-6.599 0-12.246 4-19 4 0 .672-4.33 2-5 2 0 7.016 6.007 14.507 11 19.5l8 7.5c3.308 0 22 6.271 22 12Z"/><path fill="#CBCBC7" id="aco" d="M175 210c0 .555-6.173 6.846-7 8.5-1.659 3.318 5.369 8.065 8.5 6.5 4.89-2.445 6.454-15-1.5-15ZM280 210c0 1.371-4 2.857-4 5.5 0 2.247.085 3.169 1 5 7.378 14.757 17.886-10.5 3-10.5Z"/><path fill="#8AD987" id="CTXsp" d="M309 210c-1.473 0-1 1.952-1 3 1.473 0 1-1.952 1-3Z"/><path fill="#6ACAB9" id="PIR" d="m323 256-1 1c-2.951 0-5.088-4-9-4 0-.654-10-8.721-10-13.5 0-5.138 10-11.294 10-12.5l2-1 2-1h1l1-1 1-1h1l1-1 3-2 1-1 2-3c2.144 0 .381-4.262 1-5.5l7-.5 5 1c6.069 0 11.617 4 18 4 0 .675 5.294 2 6 2 0 5.973-14.341 26-20 26-3.86 0-22 9.71-22 13Z"/><path fill="#97D6F9" id="STR" d="m210 211 1 1-1-1ZM246 211l-1 2 1-2Z"/><path fill="#99D2BD" id="OLF" d="m128 216 1 1-1-1ZM129 218l1 1-1-1ZM326 219l-1 1 1-1ZM131 220l1 1-1-1ZM144 253h3c0-2.273 9.202-7 11-7 0-2.014-2.284-5.932-1-8.5 1.246-2.491 3.673-8.653 2-12l-2-2.5c-2.364 0-3.053-3-5-3l4 5.5c0 6.635-14.78-.5-16-.5 0 2.236 5.074 3.287 6.5 4 2.365 1.182 5.18 5.861 6.5 8.5 3.023 6.045-9 13.286-9 15.5ZM133 221l2 2-2-2ZM303 222l-2 1 2-1ZM322 222l-1 1 1-1ZM136 223l3 2c-1.238 0-3-.423-3-2ZM309 253h4c0-.654-10-8.721-10-13.5 0-5.138 10-11.294 10-12.5-4.994 0-12 3.803-12-4h-2c0 2.617-3.646 5.208-2 8.5 2.194 4.388 2 9.175 2 14.5 0 3.064 10 2.355 10 7ZM320 223l-1 1 1-1ZM319 224l-1 1 1-1ZM317 225l-2 1 2-1ZM315 226l-2 1 2-1Z"/><path fill="#A2B1D7" id="SI" d="M219 247c-5.71 0-4.493 7.496-9.5 10l-10 8-11 3c-6.466 3.233-25.868-4.434-31-7-3.69-1.845-6.971-8-10.5-8 0-2.273 9.202-7 11-7 0 12.005 30.16 19.67 39.5 15 10.446-5.223 17.5-17.012 17.5-28 3.692 0 4 11.077 4 14ZM238 247c5.081 0 7.766 11.133 13.5 14l10 6c2.005 1.003 4.888-.056 7 1 6.32 3.16 24.98-4.49 30-7 3.212-1.606 6.853-8 10.5-8 0-4.645-10-3.936-10-7-1.722 0-2.368 5.235-3 6.5l-9.5 6.5c-2.944 1.472-23.333 3.834-27 2-5.703-2.852-13.56-9.619-16.5-15.5-1.67-3.339-1-8.503-1-12.5-3.226 0-3.741 6.983-5 9.5-.504 1.008-.22 4.5 1 4.5Z"/><path fill="#CAC8C7" id="lot" d="m134 260-2 1c-2.691 0-16.16-11.82-17-13.5l-4-3.5c3.308 0 22 6.271 22 12l1 1v3ZM323 261h1c2.991 0 21-14.827 21-18-3.86 0-22 9.71-22 13v5Z"/><path fill="#7FCCF7" id="OT" d="m217 269-1 1c0 4.652-10.09 11.295-13.5 13-2.496 1.248-4.576 2.788-7 4-6.486 3.243-15.336-3.332-22 0-1.837.918-7.692 2.154-10 1-4.404-2.202-8.488-4.744-13-7-3.858-1.929-14.5-9.882-14.5-15l-1-1v-1l-1-1v-6c3.382 0 5.741-4 10-4h3c3.529 0 6.81 6.155 10.5 8 5.132 2.566 24.534 10.233 31 7l11-3 10-8c5.007-2.504 3.79-10 9.5-10 0 4.313 2 8 2 13-1.473 0-1 1.952-1 3l-1 1v1l-1 2-1 1v1ZM240 270l1 1c0 4.005 12.917 12.208 16.5 14 6.046 3.023 15.974-.013 18 1 11.209 5.605 26.846.154 35-8 2.947-2.947 10.5-8.971 10.5-13l1-2 1-2v-2l-1-2c-2.951 0-5.088-4-9-4h-4c-3.647 0-7.288 6.394-10.5 8-5.02 2.51-23.68 10.16-30 7-2.112-1.056-4.995.003-7-1l-10-6c-5.734-2.867-8.419-14-13.5-14l-3 6.5c-1.69 3.379 2 6.661 2 9.5v2l2 2 1 3Z"/><path fill="#99D2BD" id="OLF" d="m133 256 1 1-1-1ZM322 257l1 2v-3l-1 1ZM132 261l2 2v-3l-2 1Z"/><path fill="#97D6F9" id="STR" d="M221 260c-1.473 0-1 1.952-1 3 1.473 0 1-1.952 1-3ZM323 262l-1 1 1-2v1Z"/><path fill="#99D2BD" id="OLF" d="m324 261-1 1v-1h1Z"/><path fill="#97D6F9" id="STR" d="m134 263 1 1-1-1ZM220 263l-1 1 1-1ZM322 263l-1 2 1-2ZM135 265l1 1-1-1ZM219 265l-1 2 1-2ZM237 265l2 2-2-2ZM218 267l-1 1 1-1Z"/><path fill="#8599CC" id="PAL" d="m217 269-1 1 1-1ZM240 270l1 1-1-1Z"/></svg>