<svg xmlns="http://www.w3.org/2000/svg" viewBox="0 0 456 320"><path fill="#1E9D5A" id="MOp1" d="m198 29-27 2 1-6 26-1v5Z"/><path fill="#1E9C59" id="MOs1" d="M222 42h1l3-3c0-10.135-20.534-15-28-15v5c7.833 0 24 2.395 24 13ZM230 39l4 3c0-9.68 17.888-13 25-13l-1-5-12.5 1c-2.425 1.213-15.5 11.18-15.5 14Z"/><path fill="#1E9D5A" id="MOp1" d="M259 29c9.277 0 16.793 2 26 2l-1-6-26-1 1 5Z"/><path fill="#187F60" id="SSp-ll1" d="M136 40h1l6.5-3c6.937-3.469 19.436-6 27.5-6l1-6c-7.091 0-22.538 3.019-28.5 6-3.232 1.616-6.644 4-10.5 4 0 1.947 3 2.636 3 5ZM322 35l-2 5c-7.119 0-23.009-9-34-9h-1l-1-6c5.7 0 25.003 3.751 29.5 6 2.249 1.125 6.003 4 8.5 4Z"/><path fill="#1F9C58" id="MOp2/3" d="M167 46v5c8.601 0 18.641-12 29-12l2-10-27 2c0 5.15-3 9.337-3 14l-1 1Z"/><path fill="#1E9D58" id="MOs2/3" d="m222 42-6 4c0-7.678-14.522-7-20-7l2-10c7.833 0 24 2.395 24 13ZM240 46h1c0-8.347 13.409-7 19-7l-1-10c-7.112 0-25 3.32-25 13l6 4Z"/><path fill="#1F9C58" id="MOp2/3" d="M289 46v5c-8.082 0-17.942-12-28-12h-1l-1-10c9.277 0 16.793 2 26 2h1c0 4.29 3 12.117 3 15Z"/><path fill="#187F64" id="SSp-ll2/3" d="M167 46c-8.15 0-15.373 6-23 6 0-2.78-7-7.748-7-12l6.5-3c6.937-3.469 19.436-6 27.5-6 0 5.15-3 9.337-3 14l-1 1ZM289 46c8.65 0 15.744 6 24 6 0-5.442 7-7.14 7-12-7.119 0-23.009-9-34-9 0 4.29 3 12.117 3 15Z"/><path fill="#197E64" id="SSp-ul1" d="M109 47c1.638 0 2 3.576 2 5l25-12c0-2.364-3-3.053-3-5l-24 12ZM345 52h1c0-1.766.324-5 1-5 0-2.295-6.025-3.263-7.5-4-5.114-2.557-11.549-8-17.5-8l-2 5c7.396 0 17.976 12 25 12Z"/><path fill="#1E9C5A" id="MOp5" d="m190 56-25 12c0-6.802 2-10.275 2-16v-1c8.601 0 18.641-12 29-12 0 5.152-5 10.33-5 16l-1 1Z"/><path fill="#1F9D58" id="MOs5" d="M191 55c1.891 0 14-3.163 14 1 4.038 0 7.186-9 11-9v-1c0-7.678-14.522-7-20-7 0 5.152-5 10.33-5 16Z"/><path fill="#3EA665" id="ACAd1" d="M223 65h10c0-7.781 1-15.793 1-23l-4-3-1.5 3-2.5-3-3 3v23Z"/><path fill="#1F9D58" id="MOs5" d="m265 55-6.5-2-7.5 3-10-10c0-8.347 13.409-7 19-7h1c0 5.578 4 10.281 4 16Z"/><path fill="#1E9C5A" id="MOp5" d="m266 56 25 12c0-5.703-2-11.184-2-16v-1c-8.082 0-17.942-12-28-12 0 5.578 4 10.281 4 16l1 1Z"/><path fill="#197F61" id="SSp-ul2/3" d="M111 53c0 4.237 4 7.786 4 12 6.9 0 22.034-13 29-13 0-2.78-7-7.748-7-12h-1l-25 12v1ZM313 53c10.025 0 18.479 12 28 12 0-4.046 4-8.434 4-13-7.024 0-17.604-12-25-12 0 4.86-7 6.558-7 12v1Z"/><path fill="#40A565" id="ACAd2/3" d="m223 65-5 1c0-4.869-1-9.648-1-14 0-1.234.643-5-1-5v-1l6-4h1v23ZM233 65l6 1c0-6.573 1-14.1 1-20l-6-4c0 7.207-1 15.219-1 23Z"/><path fill="#1C7F64" id="SSp-ll4" d="m168 45-1 1 1-1ZM167 52c-7.31 0-12.527 7-20 7l-3-7c7.627 0 14.85-6 23-6v6Z"/><path fill="#3EA566" id="ACAd5" d="M239 67c3.898 0 6.271 4 10 4 0-3.985 2-9.965 2-14v-1l-10-10h-1c0 5.9-1 13.427-1 20v1Z"/><path fill="#1C7F64" id="SSp-ll4" d="M313 53c-1.617 0-4 4.583-4 6-7.256 0-12.713-7-20-7v-6c8.65 0 15.744 6 24 6v1Z"/><path fill="#1B8062" id="SSp-un1" d="M90 60c0 1.238.423 3 2 3 6.746 0 12.04-10 19-10v-1c0-1.424-.362-5-2-5-2.105 0-15 6.92-15 9l-1 1c0 1.54-1.341 3-3 3Z"/><path fill="#3EA566" id="ACAd5" d="m218 66-11 6c0-2.254-.317-15-2-15v-1c4.038 0 7.186-9 11-9 1.643 0 1 3.766 1 5 0 4.352 1 9.131 1 14Z"/><path fill="#1B8062" id="SSp-un1" d="M366 60c0 1.238-.423 3-2 3-3.863 0-10.971-6.236-14.5-8l-3.5-3c0-1.766.324-5 1-5 3.745 0 9.241 4.37 12.5 6l3.5 3c-.651 0 .473 4 1.5 4 .538 0 1.5-2.043 1.5 0Z"/><path fill="#1A7F63" id="SSp-ul4" d="M115 66c0 1.812 3 4.82 3 7 7.393 0 20.694-13 29-13v-1l-3-7c-6.966 0-22.1 13-29 13v1Z"/><path fill="#197C63" id="SSp-ll5" d="M165 68c-3.88 0-7.764 4-12 4 0-4.553-6-8.124-6-12v-1c7.473 0 12.69-7 20-7 0 5.725-2 9.198-2 16ZM291 68l12 4 6-13c-7.256 0-12.713-7-20-7 0 4.816 2 10.297 2 16Z"/><path fill="#1C7F63" id="SSp-un2/3" d="M355 73h2l7-9v-1c-3.863 0-10.971-6.236-14.5-8l-3.5-3h-1c0 4.566-4 8.954-4 13v1l14 7ZM100 73h1l14-7v-1c0-4.214-4-7.763-4-12-6.96 0-12.254 10-19 10v1l8 9Z"/><path fill="#1D9C5A" id="MOs6a" d="m263 76 6 1c0-7.612-3-14.378-3-21l-1-1-6.5-2-7.5 3v1c2.996 0 11 16.066 11 19h1Z"/><path fill="#1A7F63" id="SSp-ul4" d="M338 73h1c0-2.833 2-4.84 2-7v-1c-9.521 0-17.975-12-28-12-1.617 0-4 4.583-4 6l29 14Z"/><path fill="#1D9C5A" id="MOs6a" d="M188 77h3c0-1.473 1.952-1 3-1 0-2.554 9.2-19 11-19v-1c0-4.163-12.109-1-14-1l-1 1c0 6.421-2 13.36-2 21Z"/><path fill="#1F9B5A" id="MOp6a" d="m191 55-1 1 1-1Z"/><path fill="#188060" id="SSp-bfd1" d="m94 56-1 1 1-1Z"/><path fill="#1F9B5A" id="MOp6a" d="M174 83c-3.68 0-5.511 2-9 2V68l25-12c0 6.421-2 13.36-2 21v1c-1.048 0-3-.473-3 1-2.091 0-11 1.912-11 4ZM269 78c8.089 0 14.798 7 23 7 0-4.682-1-11.46-1-17l-25-12c0 6.622 3 13.388 3 21v1Z"/><path fill="#188060" id="SSp-bfd1" d="m367 59-1 1c0-2.043-.962 0-1.5 0-1.027 0-2.151-4-1.5-4l4 3ZM89 59l1 1c1.659 0 3-1.46 3-3l-4 2Z"/><path fill="#3FA664" id="ACAd6a" d="M198 80h1c0-2.223 6.745-7 8-7v-1c0-2.254-.317-15-2-15-1.8 0-11 16.446-11 19 1.621 0 4 2.379 4 4ZM257 80h1l1-1c0-1.577 1.762-2 3-2v-1c0-2.934-8.004-19-11-19 0 4.035-2 10.015-2 14v2c1.852 0 8 4.927 8 7Z"/><path fill="#197E63" id="SSp-n1" d="m49 109 5 2c1.999 0 5.995-12.491 7-14.5 4.416-8.831 14.364-21.932 23.5-26.5 2.886-1.443 4.473-6 7.5-6v-1c-1.577 0-2-1.762-2-3l-1-1c-4.582 0-8.508 8.004-12.5 10-6.449 3.225-27.5 31.582-27.5 40Z"/><path fill="#187E62" id="SSp-ul5" d="M338 73c0 4.09-4 8.058-4 12-6.214 0-22.774-13-31-13l6-13 29 14Z"/><path fill="#197E63" id="SSp-n1" d="M402 112h1l4-3c0-9.812-21.22-37.86-29.5-42-2.698-1.35-6.457-8-10.5-8l-1 1c0 1.238-.423 3-2 3v1l9.5 7c7.486 3.743 28.5 30.528 28.5 41Z"/><path fill="#187E62" id="SSp-ul5" d="M118 74c.154 0 5 9.971 5 11 3.193 0 21.693-12 30-12v-1c0-4.553-6-8.124-6-12-8.306 0-21.607 13-29 13v1Z"/><path fill="#1B7F64" id="SSp-n2/3" d="M54 112c3.29 0 5.518 5 9 5 0-8.666 16.897-32.698 23.5-36 4.45-2.225 8.275-8 13.5-8l-8-9c-3.027 0-4.614 4.557-7.5 6-9.136 4.568-19.084 17.669-23.5 26.5-1.005 2.009-5.001 14.5-7 14.5v1ZM402 112l-8 5c-1.55 0-2.364-6.228-3-7.5-2.733-5.466-6.274-10.548-9-16L365.5 77c-1.391-.696-8.5-2.391-8.5-4l7-9 9.5 7c7.486 3.743 28.5 30.528 28.5 41Z"/><path fill="#3FA566" id="ACAv2/3" d="m222 97-3 1c0-9.866-1-21.451-1-32l5-1c0 10.355-1 21.268-1 31v1Z"/><path fill="#40A664" id="ACAv1" d="m227 90-5 6c0-9.732 1-20.645 1-31h10c0 10.097 1 20.487 1 30l-5-6c0-5.44-2-3.2-2 1Z"/><path fill="#3FA566" id="ACAv2/3" d="m234 97 4 2 1-32v-1l-6-1c0 10.097 1 20.487 1 30v2Z"/><path fill="#197E61" id="SSp-un4" d="M106 80h1c0-1.187 9.415-6 11-6v-1c0-2.18-3-5.188-3-7l-14 7c0 3.153 5 4.304 5 7Z"/><path fill="#3EA666" id="ACAv5" d="M211 97c1.07 0 8 3.955 8 1 0-9.866-1-21.451-1-32l-11 6v1c0 4.708.175 15.85 2 19.5l2 4.5Z"/><path fill="#197E61" id="SSp-un4" d="M355 73c0 1.621-2.996 7-5 7-1.444 0-11-5.591-11-7 0-2.833 2-4.84 2-7l14 7Z"/><path fill="#3EA666" id="ACAv5" d="m246 97-8 2 1-32c3.898 0 6.271 4 10 4v2c0 8.406-3 15.625-3 23v1Z"/><path fill="#1A7F64" id="SSp-ll6a" d="m163 87-5 1c0-4.943-5-10.267-5-15v-1c4.236 0 8.12-4 12-4v17l-1 1-1 1ZM298 89h1c0-6.471 4-10.717 4-17l-12-4c0 5.54 1 12.318 1 17v1c1.402 0 6 1.11 6 3Z"/><path fill="#197D61" id="SSp-ul6a" d="M299 89c2.827 0 4.163 2.832 6.5 4h4c3.21 1.605 15.626 8 18.5 8l6-16c-6.214 0-22.774-13-31-13 0 6.283-4 10.529-4 17Z"/><path fill="#1A8062" id="SSp-n4" d="m63 118 6 4c0-9.262 18.25-26.75 25.5-34 1.867-1.867 11.5-5.48 11.5-8 0-2.696-5-3.847-5-7h-1c-5.225 0-9.05 5.775-13.5 8-6.603 3.302-23.5 27.334-23.5 36v1Z"/><path fill="#197D61" id="SSp-ul6a" d="M139 97c-3.989 0-6.011 3-10 3-2.072 0-6-12.849-6-15 3.193 0 21.693-12 30-12 0 4.733 5 10.057 5 15v1c-1.572 0-7 2.052-7 4-2.366 0-12 1.87-12 4Z"/><path fill="#40A564" id="ACAv6a" d="M210 97h1l-2-4.5c-1.825-3.65-2-14.792-2-19.5-1.255 0-8 4.777-8 7 0 5.79 9 9.772 9 15l2 2ZM249 94l-3 2c0-7.375 3-14.594 3-23 1.852 0 8 4.927 8 7v3c-2.109 0-2 2.534-2 4-1.988 0-6 5.237-6 7Z"/><path fill="#197D62" id="SSp-un5" d="m334 85 10 5 6-9v-1c-1.444 0-11-5.591-11-7h-1c0 4.09-4 8.058-4 12Z"/><path fill="#1A8062" id="SSp-n4" d="M387 122h1l6-4v-1c-1.55 0-2.364-6.228-3-7.5-2.733-5.466-6.274-10.548-9-16L365.5 77c-1.391-.696-8.5-2.391-8.5-4h-2c0 1.621-2.996 7-5 7v1c3.812 0 6.281 4.39 9.5 6 8.212 4.106 27.5 26.234 27.5 35Z"/><path fill="#197D62" id="SSp-un5" d="m123 85-10 5c0-2.255-6-6.421-6-10 0-1.187 9.415-6 11-6 .154 0 5 9.971 5 11Z"/><path fill="#1E9C58" id="MOs6b" d="M191 77h3v-1c-1.048 0-3-.473-3 1Z"/><path fill="#3FA466" id="ACAd6b" d="M198 80v1l-4-4v-1c1.621 0 4 2.379 4 4ZM262 77h1v-1h-1v1Z"/><path fill="#1E9C58" id="MOs6b" d="M269 78v1c-2.447 0-3.28-2-6-2v-1l6 1v1ZM188 78v1l3-2h-3v1Z"/><path fill="#CACCC7" id="cing" d="m208 95 2 2c-7.842 0-12.893-10.697-19.5-14-5.82-2.91-13.14 4-18.5 4l-1 1h-1l-1 1h-8l2-2h2c1.403 0 9-2.71 9-4 2.091 0 11-1.912 11-4h3l3-2h3l4 4c0 2.752 6.48 14 10 14Z"/><path fill="#3FA466" id="ACAd6b" d="M262 77c-1.238 0-3 .423-3 2 1.238 0 3-.423 3-2Z"/><path fill="#CACCC7" id="cing" d="M246 96v1c9.176 0 11.944-10.222 19.5-14 6.666-3.333 14.643 5 20.5 5l1 1h8l-3-2c-7.864 0-15.184-8-23-8-2.447 0-3.28-2-6-2h-1c0 1.577-1.762 2-3 2l-1 2-1 2c0 1.466.109 4-2 4 0 1.763-4.012 7-6 7l-3 2Z"/><path fill="#1D9D5A" id="MOp6b" d="M185 79h3v-1c-1.048 0-3-.473-3 1ZM292 86v1c-7.864 0-15.184-8-23-8v-1c8.089 0 14.798 7 23 7v1ZM185 79c-2.091 0-11 1.912-11 4 2.091 0 11-1.912 11-4Z"/><path fill="#3FA466" id="ACAd6b" d="M258 80v1l1-2-1 1Z"/><path fill="#197E62" id="SSp-n5" d="M77 129h1c0-2.854 1.823-4.145 3-6.5 6.214-12.427 12.596-21.048 25.5-27.5 2.638-1.319 3.261-4 6.5-4v-1c0-2.255-6-6.421-6-10h-1c0 2.52-9.633 6.133-11.5 8-7.25 7.25-25.5 24.738-25.5 34v1c1.84 0 8 3.253 8 6Z"/><path fill="#40A465" id="ACAv6b" d="M198 81c0 2.752 6.48 14 10 14 0-5.228-9-9.21-9-15h-1v1ZM258 81l-1 2v-3h1v1Z"/><path fill="#197E62" id="SSp-n5" d="m387 122-8 6c-1.943 0-5.096-10.692-6-12.5-3.25-6.499-22.166-24.5-29-24.5v-1l6-9c3.812 0 6.281 4.39 9.5 6 8.212 4.106 27.5 26.234 27.5 35Z"/><path fill="#1D9D5A" id="MOp6b" d="M165 86v1c1.403 0 9-2.71 9-4-3.68 0-5.511 2-9 2v1Z"/><path fill="#C9C7C9" id="ccb" d="M88 153c0 3.269-3 6.321-3 10 1.609 0 3.304-7.109 4-8.5 3.988-7.975 9.98-14.959 14-23l9.5-9.5c17.901-17.901 26.029-19 49.5-19 0-7.11 12.174-10 18.5-10 2.085 0 9.5-1.127 9.5 2h2l1 1 3 1 2 2c2.124 0 5 2.024 5 4 5.492 0 9.604 2 15 2h20c5.404 0 10.138-2 15-2 0-2.171 7.276-6 9-6l1-1 2-1h1l1-1h1c0-1.743 6.968-1 8.5-1 5.031 0 18.5 3.277 18.5 10 12.95 0 22.021.261 33.5 6l11 9 11.5 10.5c4.404 8.808 11.637 16.275 16 25 .696 1.391 2.391 8.5 4 8.5l-3-11-1-1v-1l-6-11.5c-4.469-8.938-15.756-23.628-25.5-28.5-11.103-5.551-23.023-8.512-34-14-2.125-1.063-12.5-2.915-12.5-6h-2l-1-1c-5.857 0-13.834-8.333-20.5-5-7.556 3.778-10.324 14-19.5 14l-8 2-4-2c0 2.207-10.68 0-12 0l-3 1c0 2.955-6.93-1-8-1h-1c-7.842 0-12.893-10.697-19.5-14-5.82-2.91-13.14 4-18.5 4l-1 1h-1l-1 1h-1l-11.5 6c-9.072 4.536-19.893 5.446-29 10-3.221 1.611-8.991 8-12.5 8 0 1.366-2.366 4-4 4l-2 2-2 2c0 1.747-.253 2-2 2 0 1.626-4.11 8-6 8 0 1.238-.423 3-2 3 0 1.238-.423 3-2 3 0 1.465.109 4-2 4 0 1.465.109 4-2 4 0 1.465.109 4-2 4v3l-1 1Z"/><path fill="#40A465" id="ACAv6b" d="M257 83c-2.109 0-2 2.534-2 4 2.109 0 2-2.534 2-4Z"/><path fill="#1A7F61" id="SSp-un6a" d="M120 105h1l8-4v-1c-2.072 0-6-12.849-6-15l-10 5v1c0 4.545 7 8.797 7 14Z"/><path fill="#1F9B5A" id="MOp6a" d="M164 86h1v-1l-1 1Z"/><path fill="#1A7F61" id="SSp-un6a" d="M335 105h1c0-1.784 6.365-14 8-14v-1l-10-5-6 16c1.243 0 7 3.006 7 4Z"/><path fill="#197F62" id="SSp-ll6b" d="M163 87h2v-1h-1l-1 1ZM298 89v1l-3-1-3-2v-1c1.402 0 6 1.11 6 3ZM159 89h2l2-2-5 1v1h1Z"/><path fill="#C9C9CA" id="scwm" d="m172 87-1 1 1-1Z"/><path fill="#40A465" id="ACAv6b" d="M255 87c-1.988 0-6 5.237-6 7 1.988 0 6-5.237 6-7Z"/><path fill="#C9C9CA" id="scwm" d="m170 88-1 1 1-1ZM286 88l1 1-1-1Z"/><path fill="#1C8064" id="SSp-ul6b" d="m159 89-8 4c0-1.948 5.428-4 7-4h1Z"/><path fill="#C9C9CA" id="scwm" d="M115 111v2c3.509 0 9.279-6.389 12.5-8 9.107-4.554 19.928-5.464 29-10l11.5-6h-9l-8 4c0 1.949-9.971 4-12 4 0 2.271-7.839 4-10 4 0 1.985-6.262 5-8 5 0 1.712-2.571 3-4 3 0 1.747-.253 2-2 2Z"/><path fill="#7ED04B" id="IG" d="M222 97c1.32 0 12 2.207 12 0v-2l-5-6c0 2.73-.423 1-2 1l-5 6v1Z"/><path fill="#C9C9CA" id="scwm" d="M364 141c0 2.892 3 4.781 3 8l-6-11.5c-4.469-8.938-15.756-23.628-25.5-28.5-11.103-5.551-23.023-8.512-34-14-2.125-1.063-12.5-2.915-12.5-6h6l3 1c4.861 0 23.637 12 30 12l7 4 14 13.5c1.966 3.932 5.628 6.256 8 11l3 2.5 4 8Z"/><path fill="#1C8064" id="SSp-ul6b" d="M328 101v1c-6.363 0-25.139-12-30-12v-1h1c2.827 0 4.163 2.832 6.5 4h4c3.21 1.605 15.626 8 18.5 8Z"/><path fill="#187D62" id="SSp-n6a" d="M95 133h1c0-2.904 7.349-14 11-14 0-1.747.253-2 2-2 0-1.747.253-2 2-2 0-1.747.253-2 2-2l2-2 2-2 3-4c0-5.203-7-9.455-7-14-3.239 0-3.862 2.681-6.5 4-12.904 6.452-19.286 15.073-25.5 27.5-1.177 2.355-3 3.646-3 6.5 0 1.038 6.488 6 8 6 2.75 0 5.105-2 9-2ZM361 133c3.624 0 5.274 2 9 2 3.953 0 5.466-6 9-6v-1c-1.943 0-5.096-10.692-6-12.5-3.25-6.499-22.166-24.5-29-24.5-1.635 0-8 12.216-8 14 0 3.362 25 20.505 25 28Z"/><path fill="#1C8064" id="SSp-ul6b" d="M151 93c-2.366 0-12 1.87-12 4 2.029 0 12-2.051 12-4Z"/><path fill="#AAA8A9" id="SEZ" d="m162 103 4 2-1-4.5c4.225-8.45 18.008-5.5 25-5.5 0-3.127-7.415-2-9.5-2-6.326 0-18.5 2.89-18.5 10ZM295 103l-4 1c0-10.367-15.071-10-23-10 0-1.743 6.968-1 8.5-1 5.031 0 18.5 3.277 18.5 10Z"/><path fill="#A8AAAA" id="VL" fill-rule="evenodd" d="M191 114c0 1.359-18.515 17.992-8.5 23 3.721 1.86 19.469-23 8.5-23m-3 53c1.624 0 2.75 2 5 2v-14c-5.614 0-6.065 1.37-9-4.5-3.939-7.877 9-12.427 9-19.5l2-4c0-8.766 8-15.76 8-24 0-1.976-2.876-4-5-4l-2-2-3-1-1-1h-2c-6.992 0-20.775-2.95-25 5.5l1 4.5c1.703 0 4.271 7.041 5 8.5l5 7c3.265 6.531 3 17.793 3 25.5v4c.937 0 4 11.654 4 13 0 1.533 3.753 4 5 4Z"/><path fill="#AAA8A9" id="SEZ" d="m267 94-1 1 1-1Z"/><path fill="#A8AAAA" id="VL" fill-rule="evenodd" d="m263 114-2 3.5 2 5c0 3.383 4.151 10.151 6.5 12.5.837.837 4.371 3.759 5.5 1.5 3.413-6.826-4.912-22.5-12-22.5m1 55h3l1-1 1-1 3-2 1-1v-1c0-1.039 3.639-12 4-12 0-1.145-.579-4 1-4 0-7.961-1.338-18.824 2-25.5l11-17.5c0-10.367-15.071-10-23-10h-1l-1 1h-1l-2 1-1 1c-1.724 0-9 3.829-9 6 0 6.499 9 16.621 9 24l1 4c0 4.505 23.429 24 1 24v14Z"/><path fill="#AAA8A9" id="SEZ" d="m192 95 1 1-1-1ZM265 95l-2 1 2-1ZM263 96l-1 1 1-1Z"/><path fill="#1C8064" id="SSp-ul6b" d="M129 100v1c2.161 0 10-1.729 10-4-3.989 0-6.011 3-10 3Z"/><path fill="#AAA8A9" id="SEZ" d="m196 97 2 2-2-2Z"/><path fill="#1A7D63" id="SSp-un6b" d="M121 105v1c1.738 0 8-3.015 8-5l-8 4ZM335 105v1l-7-4v-1c1.243 0 7 3.006 7 4Z"/><path fill="#98D5F9" id="CP" d="m133 228-10.5 5c-1.621.811-9.5-.391-9.5 2-7.805 0-15.624-15-18-15v-1l-4-8v-1c0-1.403-2.71-9-4-9v-1l-2-4v-1c0-1.084-2.88-14-3-14v-9l1-1v-3l1-2c1.473 0 1-1.952 1-3 1.609 0 3.304-7.109 4-8.5 3.988-7.975 9.98-14.959 14-23l9.5-9.5c17.901-17.901 26.029-19 49.5-19l4 2c1.703 0 4.271 7.041 5 8.5l5 7c3.265 6.531 3 17.793 3 25.5l-3 6.5c-1.506 3.011-6.093 2.5-9 2.5-2.426 0-6-1.024-6 2-2.124 0-3 12.109-3 14-3.19 0-7 12.553-7 16-1.473 0-1 1.952-1 3v5c-1.614 0-1 3.31-1 4.5l-2 14-6 9-3 2.5-2 1-1 1h-1l-1 1Z"/><path fill="#90CBEC" id="LSc" d="M208 127h1l1-1 1-1 4-4c0-1.238.423-3 2-3l1-1 1-1v-1l1-1 1-1 1-2-1-4-3-2c-5.396 0-9.508-2-15-2 0 8.24-8 15.234-8 24l1 3c4.494 0 8.381-3 12-3ZM262 127l-2 3c-4.275 0-7.621-3-11-3l-2-1-8-8v-1l-2-2-2-3v-5l3-2c5.404 0 10.138-2 15-2 0 6.499 9 16.621 9 24Z"/><path fill="#98D5F9" id="CP" d="m323 228 10.5 5c1.763.881 10.5-.652 10.5 2 5.835 0 9.289-10 14-10 0-1.238.423-3 2-3l1-2 1-2 1-1v-1c0-1.465-.109-4 2-4v-1l1-2 1-2c0-1.424.362-5 2-5v-1l1-2 1-2v-1l1-2 1-2v-1c0-1.145-.579-4 1-4v-17l-1-1v-2l-2-4v-1c-1.609 0-3.304-7.109-4-8.5-4.363-8.725-11.596-16.192-16-25L339.5 118l-11-9c-11.479-5.739-20.55-6-33.5-6l-4 1-11 17.5c-3.338 6.676-2 17.539-2 25.5 0 6.481 6.732 8 12 8 1.235 0 5-.643 5 1l1 1v1c.989 0 3 11.471 3 13 0 2.516 7 9.842 7 20 1.714 0 1 5.594 1 7v3c1.782 0 2.117 11.734 3 13.5l6.5 8.5 3.5 3 3 2Z"/><path fill="#CBC8CC" id="df" d="M225 109h6l4-2 3-2h-20l3 2 4 2Z"/><path fill="#1B7E64" id="SSp-n6b" d="M121 106c0 1.712-2.571 3-4 3l3-4h1v1ZM360 133h1c0-7.495-25-24.638-25-28h-1v1l14 13.5c1.966 3.932 5.628 6.256 8 11l3 2.5Z"/><path fill="#97D6F9" id="STR" d="M225 109c0 1.577-1.762 2-3 2l-1-4 4 2ZM231 109l4 3v-5l-4 2Z"/><path fill="#8FCBEC" id="SF" d="M241 148c0 6.974 17 8.6 17 5 0-5.104-9.772-15.043-12-19.5-1.811-3.622 3-4.894 3-6.5l-2-1c-2.598 0-8-5.45-8-8v-1c-1.747 0-2-.253-2-2l-2-3-4-3h-6c0 1.577-1.762 2-3 2l-1 2-1 1-1 1v1l-1 1-1 1c0 1.238-.423 3-2 3 0 2.226-1.774 4-4 4l-1 1-1 1h-1c0 3.321 4.15 3.2 2 7.5l-9 11v4l-2 2.5c0 6.045 16 2.055 16-4v-7c-12.469 0 6.241-25.13 16.5-20 4.068 2.034 24.573 20 9.5 20v7Z"/><path fill="#1A7E62" id="SSs1" d="m35 175 5 1c0-10.064 1.106-32.713 5-40.5l9-23.5v-1l-5-2-8 20.5c-4.516 9.032-6 34.008-6 45.5Z"/><path fill="#1B7E64" id="SSp-n6b" d="m117 109-2 2c1.747 0 2-.253 2-2Z"/><path fill="#1A7E62" id="SSs1" d="m421 175-5 1v-1c0-9.92-1.299-34.098-5-41.5-2.869-5.738-8-14.908-8-21.5l4-3c1.718 0 4.973 13.446 6 15.5 7.123 14.246 8 33.437 8 50.5Z"/><path fill="#1B7E64" id="SSp-n6b" d="M113 113h2v-2l-2 2Z"/><path fill="#1B8063" id="SSs2/3" d="M48 175c-1.946 0-5.623 1-8 1 0-10.064 1.106-32.713 5-40.5l9-23.5c3.29 0 5.518 5 9 5v1c-3.171 0-3.93 10.361-5 12.5-6.3 12.6-10 29.485-10 44.5ZM416 175c-2.409 0-5.181 1-7 1v-1c0-8.425-4.56-32.621-8-39.5-1.4-2.799-7-15.029-7-17.5v-1l8-5h1c0 6.592 5.131 15.762 8 21.5 3.701 7.402 5 31.58 5 41.5Z"/><path fill="#1B7E64" id="SSp-n6b" d="M113 113c-1.747 0-2 .253-2 2l2-2Z"/><path fill="#C9C9CA" id="scwm" d="M111 115v2c1.634 0 4-2.634 4-4h-2l-2 2Z"/><path fill="#90CAED" id="LSr" d="m221 113-1 1 1-1Z"/><path fill="#A9AAA8" id="chpl" d="M191 114c0 1.359-18.515 17.992-8.5 23 3.721 1.86 19.469-23 8.5-23Z"/><path fill="#90CAED" id="LSr" d="m220 114-1 1 1-1Z"/><path fill="#A9AAA8" id="chpl" d="m263 114-2 3.5 2 5c0 3.383 4.151 10.151 6.5 12.5.837.837 4.371 3.759 5.5 1.5 3.413-6.826-4.912-22.5-12-22.5Z"/><path fill="#1B7E64" id="SSp-n6b" d="M109 117h2v-2c-1.747 0-2 .253-2 2Z"/><path fill="#90CAED" id="LSr" d="m237 115 2 2c-1.747 0-2-.253-2-2ZM219 116l-1 1 1-1Z"/><path fill="#1B7E64" id="SSp-n6b" d="M107 119h2v-2c-1.747 0-2 .253-2 2Z"/><path fill="#C9C9CA" id="scwm" d="m111 117-2 2v-2h2Z"/><path fill="#90CAED" id="LSr" d="m218 117-1 1 1-1Z"/><path fill="#187C63" id="SSs4" d="M48 175h6c0-13.815 3.228-27.957 9-39.5 1.063-2.125 2.915-12.5 6-12.5v-1l-6-4c-3.171 0-3.93 10.361-5 12.5-6.3 12.6-10 29.485-10 44.5Z"/><path fill="#90CAED" id="LSr" d="M217 118c-1.577 0-2 1.762-2 3 1.577 0 2-1.762 2-3ZM239 118l8 8c-2.598 0-8-5.45-8-8Z"/><path fill="#187C63" id="SSs4" d="M403 175h6c0-8.425-4.56-32.621-8-39.5-1.4-2.799-7-15.029-7-17.5l-6 4 8 17.5c3.637 7.274 7 26.874 7 35.5Z"/><path fill="#1B7E64" id="SSp-n6b" d="M96 133h1l2-2c0-2.07 3.396-8 6-8l2-2v-2c-3.651 0-11 11.096-11 14Z"/><path fill="#C9C9CA" id="scwm" d="m109 119-2 2v-2h2ZM107 121l-2 2c1.747 0 2-.253 2-2Z"/><path fill="#90CAED" id="LSr" d="m215 121-4 4c2.226 0 4-1.774 4-4Z"/><path fill="#96A7D2" id="TRS" d="M215 141h26c15.073 0-5.432-17.966-9.5-20-10.259-5.13-28.969 20-16.5 20Z"/><path fill="#1C8063" id="SSs5" d="M390 175h13c0-8.626-3.363-28.226-7-35.5l-8-17.5h-1l-8 6v1c0 3.463 4.371 11.243 6 14.5 2.678 5.356 5 24.338 5 31.5ZM54 175h12c0-7.275 4.315-32.13 7-37.5l4-8.5c0-2.747-6.16-6-8-6-3.085 0-4.938 10.375-6 12.5-5.772 11.543-9 25.685-9 39.5Z"/><path fill="#C9C9CA" id="scwm" d="M105 123c-2.604 0-6 5.93-6 8 1.89 0 6-6.374 6-8Z"/><path fill="#90CAED" id="LSr" d="m211 125-1 1 1-1ZM210 126l-1 1 1-1Z"/><path fill="#97D6F9" id="STR" d="M196 130c0 1.473-1.952 1-3 1l2-4 1 3Z"/><path fill="#CBC8CB" id="fi" d="m199 152-6 3c-5.614 0-6.065 1.37-9-4.5-3.939-7.877 9-12.427 9-19.5 1.048 0 3 .473 3-1 4.494 0 8.381-3 12-3 0 3.321 4.15 3.2 2 7.5l-9 11v4l-2 2.5ZM258 153c2.447 0 3.28 2 6 2 22.429 0-1-19.495-1-24l-3-1c-4.275 0-7.621-3-11-3 0 1.606-4.811 2.878-3 6.5 2.228 4.457 12 14.396 12 19.5Z"/><path fill="#97D6F9" id="STR" d="m260 130 3 1-1-4-2 3Z"/><path fill="#197D63" id="SSs6a" d="M66 175c4.607 0 10.052 1 14 1 0-7.647 3.74-16.981 7-23.5.66-1.319-.334-5.5 2-5.5l2-7v-1l-5-4c-1.512 0-8-4.962-8-6h-1l-4 8.5c-2.685 5.37-7 30.225-7 37.5ZM390 175c-4.607 0-10.052 1-14 1 0-6.178-5.343-25.186-8-30.5l-3-5.5v-1c1.562 0 5-2.189 5-4 3.953 0 5.466-6 9-6 0 3.463 4.371 11.243 6 14.5 2.678 5.356 5 24.338 5 31.5Z"/><path fill="#C9C9CA" id="scwm" d="M97 133v1c1.577 0 2-1.762 2-3l-2 2Z"/><path fill="#187D61" id="SSp-m6a" d="m95 135-4 4-5-4c2.75 0 5.105-2 9-2v2Z"/><path fill="#188064" id="SSp-m6b" d="m97 134-2 1v-2h2v1ZM365 140l-1 1-4-8h1l4 6v1Z"/><path fill="#187D61" id="SSp-m6a" d="M370 135c0 1.811-3.438 4-5 4l-4-6c3.624 0 5.274 2 9 2Z"/><path fill="#C9C9CA" id="scwm" d="M95 135v2c1.577 0 2-1.762 2-3l-2 1Z"/><path fill="#188064" id="SSp-m6b" d="M92 141h1l2-4v-2l-4 4v1l1 1Z"/><path fill="#C9C9CA" id="scwm" d="m95 137-2 4c2.109 0 2-2.535 2-4Z"/><path fill="#1A8061" id="SSs6b" d="m91 145-2 2 2-7 1 1-1 4ZM375 176h1c0-6.178-5.343-25.186-8-30.5l-3-5.5-1 1c0 2.892 3 4.781 3 8v1l1 1 3 11v1c2.109 0 2 2.535 2 4v2l1 1v3c1.473 0 1 1.952 1 3Z"/><path fill="#C9C9CA" id="scwm" d="M93 141c0 1.465.109 4-2 4l1-4h1Z"/><path fill="#C8C9C9" id="vhc" d="M231 147c2.978 0 6.49 1 10 1v-7h-26v7c3.325 0 7.31-1 10-1h6Z"/><path fill="#C9C9CA" id="scwm" d="M89 147v2c2.109 0 2-2.535 2-4l-2 2Z"/><path fill="#97D6F9" id="STR" d="m172 162-2 1-3-8c2.907 0 7.494.511 9-2.5l3-6.5v13c-2.418 0-7-1.612-7 3Z"/><path fill="#1A8061" id="SSs6b" d="M80 176h2v-4l1-1v-3l1-2c0-1.048-.473-3 1-3 0-3.679 3-6.731 3-10l1-1v-5c-2.334 0-1.34 4.181-2 5.5-3.26 6.519-7 15.853-7 23.5Z"/><path fill="#A8A9AA" id="V3" d="m264 169-5 1-2.5-2c-1.299-.65-12.5-2.358-12.5 0l-3 1c-4.193 0-8.449 3-12.5 3-4.311 0-8.996-3-13.5-3l-3-1c0-1.232-9.078-1.711-10.5-1l-3.5 3-5-1v-14l6-3c0 6.045 16 2.055 16-4 3.325 0 7.31-1 10-1 0 1.587 6 1.587 6 0 2.978 0 6.49 1 10 1 0 6.974 17 8.6 17 5 2.447 0 3.28 2 6 2v14Z"/><path fill="#97D6F9" id="STR" d="m284 162 2 1 4-8c-5.268 0-12-1.519-12-8-1.579 0-1 2.855-1 4v7l1 1c2.538 0 6-1.772 6 3Z"/><path fill="#C9C9CA" id="scwm" d="m367 150 1 1-1-1ZM89 152l-1 1 1-1Z"/><path fill="#CCC" d="M171 204v3c0 17.007 9.263-16.973 7-21.5-1.813-3.627-1.192-8.383-3-12l-5-10.5-3-8c-2.426 0-6-1.024-6 2v12.5l2 3.5 6 9.5c2.841 5.681 3 12.619 3 19.5l-1 2ZM279 180c0 5.989-2.765 13.97 0 19.5 2.178 4.357 6 16.975 6 5.5 0-7.2-.998-15.505 2-21.5.695-1.389 7-11.123 7-11.5l1-1 1-13v-1l-1-1c0-1.643-3.765-1-5-1l-4 8c0 1.869-3.198 11-5 11 0 1.048.473 3-1 3 0 1.048.473 3-1 3Z"/><path fill="#97D6F9" id="STR" d="m295 156 1 1-1-1ZM158 171c2.25 0 3.376 2 5 2l-2-3.5V157c-2.124 0-3 12.109-3 14Z"/><path fill="#C8CBC7" id="st" d="m178 179 1 5 1.5 1 1.5-4v-15.5l-3-4.5v-2c-2.418 0-7-1.612-7 3 .274 0 3 9.071 3 10l1 1v1l1 1v3l1 1Z"/><path fill="#CAC7CB" id="fiber tracts" d="m278 159-1 1v-2l1 1Z"/><path fill="#C8CBC7" id="st" d="M277 183v2c-5.146 0-2-18.626-2-22l2-2v-1l1-1c2.538 0 6-1.772 6 3l-2 8-1 1v2l-1 1v1l-1 2v3l-1 2-1 1Z"/><path fill="#97D6F9" id="STR" d="M295 171h4c0-1.529-2.011-13-3-13l-1 13Z"/><path fill="#CAC7CB" id="fiber tracts" d="M179 161h1l-1-2v2ZM276 161h1v-1l-1 1Z"/><path fill="#B3C0DE" id="BST" d="m203 233-4 2c-5.706 0-10.985-3-12-3l-9-10v-16l1-1v-21l1.5 1 1.5-4v-15.5l-3-4.5h1l3 2c0 1.533 3.753 4 5 4 0 1.751 6.47 11 8 11v1l1 1v1l1 1v1c0 7.96 5 13.992 5 22l2 4v1c0 2.597 4.941 7.619 4 9.5-1.221 2.442-.82 5.64-2 8l-4 5.5ZM277 161l-2 2 1-2h1Z"/><path fill="#8599CC" id="PAL" d="M164 212c4.451 0 7 4.812 7 9 4.24 0 4.078-13 7-13v-2l1-1v-21l-1-5-1-1v-3l-1-1v-1l-1-1c0-.929-2.726-10-3-10l-2 1 5 10.5c1.808 3.617 1.187 8.373 3 12 2.263 4.527-7 38.507-7 21.5l-7 5ZM281 173v1c1.802 0 5-9.131 5-11l-2-1-2 8-1 1v2Z"/><path fill="#C9C7C9" id="ccb" d="M85 163c-1.473 0-1 1.952-1 3 1.473 0 1-1.952 1-3Z"/><path fill="#B3C0DE" id="BST" d="M257 235h1c3.702 0 7.27-2 10-2l1-1 9-10v-15c0-7.056-1-14.442-1-22-5.146 0-2-18.626-2-22h-2v1l-1 1-3 2-1 1-1 1c0 1.512-4.962 8-6 8l-1 3-1 1v1c0 8.404-6 15.352-6 24l-1 2v1l-1 2c0 3.534-5.077 7.347-3 11.5 1.196 2.393 5 8.776 5 10.5h1l3 2Z"/><path fill="#C9C7C9" id="ccb" d="M371 163c2.109 0 2 2.535 2 4l-2-4ZM84 166l-1 2 1-2Z"/><path fill="#CCC9C8" id="sm" d="m210 196-5 3c-3.735 0-2.367-16-7-16v-1l-1-1v-1l-1-1v-1c0-3.138 2-5.662 2-8l3.5-3c1.422-.711 10.5-.232 10.5 1v2c0 6.116-3 13.502-3 21l1 1v4ZM246 196c2.489 0 4.809 4 6 4 0-2.33 4.943-18 7-18v-1l1-1 1-3-2-7-2.5-2c-1.299-.65-12.5-2.358-12.5 0l1 3c0 2.613.93 4.36 2 6.5V192l-1 4Z"/><path fill="#FF6F80" id="TH" d="m212 170 3 1v-2l-3-1v2ZM242 171h3l-1-3-3 1 1 2Z"/><path fill="#FE8F9E" id="PVT" d="M227 200c.839 0 2-1.93 2 0 2.523 0 8 3.275 8-2v-14.5l5-12.5-1-2c-4.193 0-8.449 3-12.5 3-4.311 0-8.996-3-13.5-3v2c0 4.091 2.288 8.076 4 11.5 2.426 4.852 0 11.668 0 16.5l2.5 2 5.5-1Z"/><path fill="#C9C7C9" id="ccb" d="m373 169 1 1-1-1Z"/><path fill="#FF909F" id="PT" d="M210 193c3.297 0 4.339 6 9 6 0-4.832 2.426-11.648 0-16.5-1.712-3.424-4-7.409-4-11.5l-3-1c0 6.116-3 13.502-3 21l1 1v1ZM247 192c-2.387 0-1.55 6-10 6v-14.5l5-12.5h3c0 2.613.93 4.36 2 6.5V192Z"/><path fill="#B3C0DE" id="BST" d="m282 170-1 1 1-1Z"/><path fill="#C9C7C9" id="ccb" d="m83 171-1 1 1-1Z"/><path fill="#8598CC" id="GPe" d="m161 213-2 1c-6.049 0-5.737-2.975-8-7.5-.662-1.324 1.207-6.5-1-6.5v-10c1.473 0 1-1.952 1-3 0-3.447 3.81-16 7-16 2.25 0 3.376 2 5 2l6 9.5c2.841 5.681 3 12.619 3 19.5l-1 2v3l-7 5-3 1Z"/><path fill="#97D6F9" id="STR" d="m295 171-1 1 1-1Z"/><path fill="#8598CC" id="GPe" d="M294 213h1l5.5 1c4.654-2.327 5.5-10.765 5.5-16v-7c0-10.158-7-17.484-7-20h-4l-1 1c0 .377-6.305 10.111-7 11.5-2.998 5.995-2 14.3-2 21.5l3 4.5 4 2.5h1l1 1Z"/><path fill="#B3C0DE" id="BST" d="m175 172 1 1-1-1ZM280 174h1v-1l-1 1Z"/><path fill="#C8CBCC" id="ec" d="M374 186h1v-10c0-1.048.473-3-1-3v13Z"/><path fill="#B3C0DE" id="BST" d="m176 174 1 1-1-1Z"/><path fill="#8599CC" id="PAL" d="M280 175v2c1.473 0 1-1.952 1-3h-1v1Z"/><path fill="#12AD83" id="VISC1" d="M41 199h2l1-2c0-6.802-4-13.527-4-21l-5-1c0 3.77 3.423 24 6 24Z"/><path fill="#12AC83" id="VISC2/3" d="M44 197h1c0-1.874 5.55-5 7-5 0-4.659-4-10.543-4-17-1.946 0-5.623 1-8 1 0 7.473 4 14.198 4 21Z"/><path fill="#11AC82" id="VISC4" d="m55 191-3 1c0-4.659-4-10.543-4-17h6c0 1.817-1.96 15 1 15v1Z"/><path fill="#12AD82" id="VISC5" d="M67 186c-4.033 0-7.512 4-12 4-2.96 0-1-13.183-1-15h12l1 11Z"/><path fill="#11AC83" id="VISC6a" d="M81 183c-5.222 0-9.64 3-14 3l-1-11c4.607 0 10.052 1 14 1l1 7Z"/><path fill="#B3C0DE" id="BST" d="M279 177h1v-2l-1 2Z"/><path fill="#11AC83" id="VISC6a" d="m376 183 13 2c0-2.69 1-6.675 1-10-4.607 0-10.052 1-14 1v7Z"/><path fill="#12AD82" id="VISC5" d="M401 191h1c0-4.734 1-10.644 1-16h-13c0 3.325-1 7.31-1 10v1c1.737 0 12 3.473 12 5Z"/><path fill="#11AC82" id="VISC4" d="m402 191 3 1 4-16v-1h-6c0 5.356-1 11.266-1 16Z"/><path fill="#12AC83" id="VISC2/3" d="m405 193 7 3c2.333 0 4-16.231 4-20v-1c-2.409 0-5.181 1-7 1l-4 16v1Z"/><path fill="#12AD83" id="VISC1" d="m412 197 3 3c3.122 0 6-20.728 6-25l-5 1c0 3.769-1.667 20-4 20v1Z"/><path fill="#11AD82" id="VISC6b" d="M81 183h1v-7h-2l1 7ZM375 183h1v-7h-1v7Z"/><path fill="#8599CC" id="PAL" d="M280 177c0 1.048.473 3-1 3v-3h1Z"/><path fill="#B3C0DE" id="BST" d="m177 178 1 1-1-1Z"/><path fill="#CAC7CB" id="fiber tracts" d="m196 179 1 1-1-1ZM260 180l-1 1 1-1Z"/><path fill="#8599CC" id="PAL" d="M292 212c-4.737 0-4.415 3.33-6 6.5-.619 1.238 1.144 5.5-1 5.5 0-5.224-3.825-9.15-6-13.5-.523-1.046.951-3.5-1-3.5 0-7.056-1-14.442-1-22v-2l1-1 1-2c0 5.989-2.765 13.97 0 19.5 2.178 4.357 6 16.975 6 5.5l3 4.5 4 2.5Z"/><path fill="#C8CBCC" id="ec" d="m83 191 2 4c0-1.084-2.88-14-3-14v2c0 2.707 1 5.903 1 8Z"/><path fill="#CAC7CB" id="fiber tracts" d="m197 181 1 1-1-1ZM252 206h1c0-8.648 6-15.596 6-24-2.057 0-7 15.67-7 18v6Z"/><path fill="#B3C0DE" id="BST" d="m278 182-1 1 1-1Z"/><path fill="#009B74" id="GU6a" d="M69 194h1l9-1 2-2v-8c-5.222 0-9.64 3-14 3l2 8Z"/><path fill="#019C74" id="GU6b" d="M81 191h2c0-2.097-1-5.293-1-8h-1v8Z"/><path fill="#CAC7CB" id="fiber tracts" d="m203 205 2 2v-8c-3.735 0-2.367-16-7-16 0 7.96 5 13.992 5 22Z"/><path fill="#019C74" id="GU6b" d="m376 183-1 2v-2h1Z"/><path fill="#009B74" id="GU6a" d="m378 193 9 1 2-8v-1l-13-2-1 2v6l3 2Z"/><path fill="#019C75" id="GU5" d="M69 194c0 1.012-10.504 2-12 2l-2-5v-1c4.488 0 7.967-4 12-4l2 8Z"/><path fill="#019C74" id="GU6b" d="M374 191h1v-5h-1v5Z"/><path fill="#019C75" id="GU5" d="M399 196h1l1-5c0-1.527-10.263-5-12-5l-2 8v1l12 1Z"/><path fill="#97D6F9" id="STR" d="M151 187c-1.473 0-1 1.952-1 3 1.473 0 1-1.952 1-3Z"/><path fill="#C8CBCC" id="ec" d="M373 191h1v-4c-1.579 0-1 2.855-1 4Z"/><path fill="#009C74" id="GU4" d="M56 196h1l-2-5-3 1c0 2.881 1.292 4 4 4Z"/><path fill="#8ADA86" id="CLA" d="M83 207h1l2-1 1-2v-3l-1-1v-1l-1-1v-3l-2-4h-2l-2 2c0 2.683-2.12 14 4 14Z"/><path fill="#FF6F80" id="TH" d="m209 191 1 1-1-1Z"/><path fill="#97D6F9" id="STR" d="M306 198h1c0-1.406.714-7-1-7v7Z"/><path fill="#019C74" id="GU6b" d="m374 191-1 1v-1h1Z"/><path fill="#8ADA86" id="CLA" d="M372 207h1c5.452 0 5-10.478 5-14l-3-2h-1l-1 1-1 2v2l-1 1v2l-1 1v1l-1 2v2l1 1h1l1 1Z"/><path fill="#009C74" id="GU4" d="M400 196h1c2.54 0 2.543-3 4-3v-1l-3-1h-1l-1 5Z"/><path fill="#009B75" id="GU2/3" d="M45 199h1c1.167 0 10-2.414 10-3-2.708 0-4-1.119-4-4-1.45 0-7 3.126-7 5v2Z"/><path fill="#FF6F80" id="TH" d="m229 200 4 5c4.719 0 6.514-6 10-6l1-1 1-1 1-1 1-4c-2.387 0-1.55 6-10 6 0 5.275-5.477 2-8 2Z"/><path fill="#C8CBCC" id="ec" d="m373 192-1 2 1-2Z"/><path fill="#209766" id="AIp6a" d="M78 213h1c0-3.625 4-3.563 4-6-6.12 0-4-11.317-4-14l-9 1c0 6.93 8 12.309 8 19Z"/><path fill="#FF6F80" id="TH" d="m227 200-3 5c-5.446 0-6.914-6-11-6l-3-3v-3c3.297 0 4.339 6 9 6l2.5 2 5.5-1Z"/><path fill="#209766" id="AIp6a" d="M377 213h1l9-18v-1l-9-1c0 3.522.452 14-5 14 0 1.548 4 2.767 4 6Z"/><path fill="#009B75" id="GU2/3" d="M410 199h1l1-2v-1l-7-3c-1.457 0-1.46 3-4 3 0 1.875 9 1.919 9 3Z"/><path fill="#219864" id="AIp5" d="m78 214-6 2c-2.967 0-15-16.122-15-20 1.496 0 12-.988 12-2h1c0 6.93 8 12.309 8 19v1Z"/><path fill="#C8CBCC" id="ec" d="M371 196h1v-2l-1 2Z"/><path fill="#97D6F9" id="STR" d="m144 224-6 1 3-2.5 6-9 2-14c0-1.19-.614-4.5 1-4.5v5l-1 13.5c-1.631 3.262-4 5.54-4 9.5l-1 1Z"/><path fill="#219864" id="AIp5" d="m379 214 6 2c0-2.191 14-12.55 14-20l-12-1-9 18 1 1Z"/><path fill="#209865" id="AIp2/3" d="M72 216c0 1.242-9.326 4-11 4 0-3.371-15-14.358-15-21 1.167 0 10-2.414 10-3h1c0 3.878 12.033 20 15 20Z"/><path fill="#C8CBCC" id="ec" d="M86 200h1l-2-4v2l1 1v1Z"/><path fill="#C7C8CA" id="fx" d="M215 209c0 7.298-8.567 1-10 1v-11l5-3 3 3c0 2.73 2 6.298 2 10ZM252 209l-1 2c-2.689 0-9 4.381-9-2l-1-5.5 2-4.5 1-1 1-1 1-1c2.489 0 4.809 4 6 4v9Z"/><path fill="#209766" id="AIp6a" d="m372 196-1 1v-1h1Z"/><path fill="#209865" id="AIp2/3" d="M385 216c0 1.565 8.408 4 10 4 0-2.589 15-13.325 15-21 0-1.081-9-1.125-9-3h-2c0 7.45-14 17.809-14 20Z"/><path fill="#009C75" id="GU1" d="M43 199h2v-2h-1l-1 2Z"/><path fill="#CAC7CB" id="fiber tracts" d="m245 197-1 1 1-1Z"/><path fill="#C8CBCC" id="ec" d="M370 199h1v-2l-1 2Z"/><path fill="#009C75" id="GU1" d="m411 199 4 1-3-3-1 2Z"/><path fill="#209766" id="AIp6a" d="m85 198 1 1-1-1Z"/><path fill="#CAC7CB" id="fiber tracts" d="m244 198-1 1 1-1Z"/><path fill="#8599CC" id="PAL" d="m295 213 2.5 2c1.449.725 13.172 7 13.5 7 0-3.817-2.426-6.352-4-9.5V198h-1c0 5.235-.846 13.673-5.5 16l-5.5-1Z"/><path fill="#009C75" id="GU1" d="m43 199-2 1v-1h2Z"/><path fill="#219765" id="AIp1" d="M61 220c0 1.014-3.959 2-5 2-1.104 0-15-19.02-15-22l2-1h3c0 6.642 15 17.629 15 21Z"/><path fill="#CAC7CB" id="fiber tracts" d="m215 209 5.5-2 3.5 2v-4c-5.446 0-6.914-6-11-6 0 2.73 2 6.298 2 10ZM233 209c1.602 0 2.384-3.058 4.5-2l4.5 2-1-5.5 2-4.5c-3.486 0-5.281 6-10 6v4Z"/><path fill="#C8CBCC" id="ec" d="M369 201h1v-2l-1 2Z"/><path fill="#209766" id="AIp6a" d="m371 199-1 1v-1h1Z"/><path fill="#219765" id="AIp1" d="M395 220c0 .672 4.329 2 5 2 2.763 0 15-18.84 15-22l-4-1h-1c0 7.675-15 18.411-15 21Z"/><path fill="#209766" id="AIp6a" d="M87 200v1l-1-1h1Z"/><path fill="#8599CC" id="PAL" d="M159 214c0 1.998-5.174 2.337-6.5 3l-7.5 6c0-3.96 2.369-6.238 4-9.5l1-13.5c2.207 0 .338 5.176 1 6.5 2.263 4.525 1.951 7.5 8 7.5Z"/><path fill="#C8CBCC" id="ec" d="M89 207c0 1.238.423 3 2 3 0-1.403-2.71-9-4-9v3l2 3Z"/><path fill="#97D6F9" id="STR" d="m313 224 7 2-3.5-3-6.5-8.5c-.883-1.766-1.218-13.5-3-13.5v11.5c1.574 3.148 4 5.683 4 9.5l2 2Z"/><path fill="#209766" id="AIp6a" d="M369 202v1l1-2h-1v1Z"/><path fill="#8599CC" id="PAL" d="m172 202-1 2 1-2Z"/><path fill="#C8CBCC" id="ec" d="M367 207h1l1-2v-3c-1.638 0-2 3.576-2 5Z"/><path fill="#209766" id="AIp6a" d="m86 206 3 1-2-3-1 2Z"/><path fill="#E64438" id="HY" d="m179 205-1 1 1-1ZM205 207v2l-2-4 2 2Z"/><path fill="#A8A9AA" id="V3" d="M227 227c0 1.652 2 3.092 2 1l2-15c0-2.774.141-5.217-1-7.5h-4c-.619 1.238 1.144 5.5-1 5.5v3l1 2 1 11Z"/><path fill="#209766" id="AIp6a" d="m370 206-2 1 1-2 1 1ZM86 206l-2 1 2-1Z"/><path fill="#A0EE9C" id="EPd" d="M95 231h4v-3l-4-8v-1l-4-8v-1c-1.577 0-2-1.762-2-3l-3-1-2 1h-1c0 2.437-4 2.375-4 6v2l1 3 1 1v1l9 8 1 1h1l2 2h1Z"/><path fill="#E64438" id="HY" d="m253 206-1 2v-2h1Z"/><path fill="#A0EE9C" id="EPd" d="m364 230-2 1c-2.565 0-5 .236-5-3l1-3c1.577 0 2-1.762 2-3l1-2 1-2 1-1v-1l2-4v-1l1-2 1-1 1-1 2-1h1l1 1h1c0 1.548 4 2.767 4 6v4l-1 1-1 2-1 1-1 1-1 1-1 1-1 1-1 2-2 1-1 1h-1l-1 1Z"/><path fill="#209766" id="AIp6a" d="m371 206 1 1-1-1Z"/><path fill="#E64438" id="HY" d="m207 232 4.5-4c5.416-2.708 12.5 1.759 12.5 7 2.98 0-1.447-8 3-8l-1-11-1-2v-3l-1-2-3.5-2-5.5 2c0 7.298-8.567 1-10 1 0 2.597 4.941 7.619 4 9.5-1.221 2.442-.82 5.64-2 8l-4 5.5 4-1ZM249 232l4 1c0-1.724-3.804-8.107-5-10.5-2.077-4.153 3-7.966 3-11.5-2.689 0-9 4.381-9-2l-4.5-2c-2.116-1.058-2.898 2-4.5 2l-2 4-2 15c3.416 0 3-.596 3 4 3.629 0 7.046-6.727 12.5-4l4.5 4ZM285 224v4c-2.676 0-3.219-6-7-6v-15c1.951 0 .477 2.454 1 3.5 2.175 4.35 6 8.276 6 13.5Z"/><path fill="#C8CBCC" id="ec" d="m367 208-1 1 1-2v1Z"/><path fill="#209766" id="AIp6a" d="m368 207-1 1v-1h1Z"/><path fill="#E64438" id="HY" d="M178 222c-3.742 0-5.076 7-7 7v-8c4.24 0 4.078-13 7-13v14ZM252 209l-1 2 1-2Z"/><path fill="#C8CBCC" id="ec" d="m366 209-1 2 1-2ZM91 211l4 8-4-8Z"/><path fill="#A2B1D7" id="SI" d="M163 249c-7.043 0-12.596 1-19 1l-3-1v-11c0-4.938 3-9.431 3-14l1-1 7.5-6c1.326-.663 6.5-1.002 6.5-3l2-1 3-1c4.451 0 7 4.812 7 9v8c0 2.62 1.95 18-3 18-1.624 0-2.75 2-5 2ZM315 249l-3 1c-6.404 0-11.957-1-19-1-2.25 0-3.376-2-5-2l-3-4.5c-2.242-4.484 0-10.044 0-14.5v-4c2.144 0 .381-4.262 1-5.5 1.585-3.17 1.263-6.5 6-6.5h1l1 1h1l2.5 2c1.449.725 13.172 7 13.5 7l2 2 3 15c0 3.325-1 7.31-1 10Z"/><path fill="#8599CC" id="PAL" d="m293 212 1 1-1-1Z"/><path fill="#C8CBCC" id="ec" d="M365 212c-2.109 0-2 2.535-2 4l2-4Z"/><path fill="#99D2BD" id="OLF" d="m78 214 1 1v-2h-1v1Z"/><path fill="#8599CC" id="PAL" d="m161 213-2 1 2-1Z"/><path fill="#99D2BD" id="OLF" d="m379 214-2 1v-2h1l1 1Z"/><path fill="#6ACAB9" id="PIR" d="m114 294-1 1c-18.596 0-36.731-40.962-44-55.5-2.187-4.373-13-13.909-13-17.5 1.041 0 5-.986 5-2 1.674 0 11-2.758 11-4l6-2 1 1 1 3 1 1v1l16 16c0 1.14 16.416 20 18 20 0 3.166 7 8.103 7 15 0 7.954-7 14.661-7 22l-1 1ZM343 294l1 1c17.576 0 36.2-40.899 43-54.5 2.285-4.57 13-13.907 13-18.5-.671 0-5-1.328-5-2-1.592 0-10-2.435-10-4l-6-2-2 1v2l-1 1-1 2-1 1-1 1-1 1-1 1-1 1-1 2-2 2-8 8-4 4.5-14 14.5-1 1c0 4.804-6 8.123-6 14 0 6.905 9 19.326 9 23Z"/><path fill="#C8CBCC" id="ec" d="m363 217-1 1 1-1Z"/><path fill="#99D2BD" id="OLF" d="m377 217-1 1 1-1ZM80 218l1 1-1-1Z"/><path fill="#C8CBCC" id="ec" d="m362 218-1 2 1-2Z"/><path fill="#99D2BD" id="OLF" d="M97 234v2l-16-16 9 8 1 1h1l2 2h1l2 3Z"/><path fill="#C8CBCC" id="ec" d="M113 237h1c0-1.577 1.729-2-1-2-7.805 0-15.624-15-18-15l4 8 3 3 1 1 1 1 1 1 2 1h1l2 1 3 1ZM361 220l-1 2 1-2Z"/><path fill="#99D2BD" id="OLF" d="m375 220-1 1 1-1ZM374 221l-1 1 1-1Z"/><path fill="#F2473B" id="LPO" d="M193 264c0 3.963-4.091 4-6 4l-14-10-2-2v-1c0-2.384-3-4.881-3-8 4.95 0 3-15.38 3-18 1.924 0 3.258-7 7-7l9 10 3 5c0 8.535 3 17.35 3 27ZM270 268l-1 1c-4.175 0-4.741-6-6-6 0-9.295 3-17.314 3-26l2-4 1-1 9-10c3.781 0 4.324 6 7 6 0 4.456-2.242 10.016 0 14.5l3 4.5-1 6-1 2-1 1v1l-2 1-13 10Z"/><path fill="#C8CBCC" id="ec" d="M360 222c-1.577 0-2 1.762-2 3 1.577 0 2-1.762 2-3Z"/><path fill="#99D2BD" id="OLF" d="m372 223-1 1 1-1Z"/><path fill="#7ECDF8" id="FS" d="m117 244 5 5c5.01 0 8.394.053 12.5-2l6.5-9c0-4.938 3-9.431 3-14l-6 1-2 1-1 1h-1l-1 1 3 2.5c2.242 4.484-5.155 10.5-9 10.5h-3c-3.995 0-5.554-4-10-4h-1c0 3.313 4 4.49 4 7ZM336 248l-1 1c-5.159 0-9.264.118-13.5-2l-5.5-8-3-15 7 2 3 2-2 1.5c-2.926 5.852 4.218 11.5 9 11.5h3c3.536 0 4.785-4 9-4h2v2c-1.712 0-3 2.571-3 4l-1 1-1 1-1 1-1 1-1 1Z"/><path fill="#97D6F9" id="STR" d="m138 225-2 1 2-1Z"/><path fill="#C8CBCC" id="ec" d="M344 237h1l1-1h1l2-1h1l1-1 1-1 1-1 1-1 3-3 1-3c-4.711 0-8.165 10-14 10-1.747 0-2 .253-2 2h2Z"/><path fill="#99D2BD" id="OLF" d="m370 225-1 2 1-2Z"/><path fill="#97D6F9" id="STR" d="m136 226-1 1 1-1ZM134 227l-1 1 1-1Z"/><path fill="#FE5547" id="PVpo" d="M225 274h1l1-2c0-4.252-1.157-6.187 1-10.5l.5-2.5.5 3.5c1.714 3.428 1 5.3 1 8.5l-1 1 1 2 2-1 3-2c0-5.4-2-8.6-2-14v-1l-1-1v-23c0-4.596.416-4-3-4 0 2.092-2 .652-2-1-4.447 0-.02 8-3 8v21c0 5.473-2 10.193-2 15l3 3Z"/><path fill="#99D2BD" id="OLF" d="M367 228v1l2-2-2 1Z"/><path fill="#8AD987" id="CTXsp" d="m90 228 1 1-1-1ZM99 231h3l-3-3v3Z"/><path fill="#97D6F9" id="STR" d="M124 241c0-2.332-4.722-2.057-3-5.5.61-1.221 10.926-6.148 12-4 2.977 5.954-6 7.011-6 9.5 3.845 0 11.242-6.016 9-10.5l-3-2.5-10.5 5c-1.621.811-9.5-.391-9.5 2 2.729 0 1 .423 1 2 4.446 0 6.005 4 10 4Z"/><path fill="#FD4C3E" id="MPN" d="m224 256-5.5 4-4.5-1-5-3-2-1c0-3.108-.737-4.973-2-7.5-2.316-4.631 2-10.965 2-15.5l4.5-4c5.416-2.708 12.5 1.759 12.5 7v21ZM233 257l5.5 3 4.5-1 5-3 2-2c0-3.964 3.056-11.388 1-15.5-1.235-2.471-2-3.433-2-6.5l-4.5-4c-5.454-2.727-8.871 4-12.5 4v23l1 1v1Z"/><path fill="#97D6F9" id="STR" d="M330 241c0-1.945-10.016-3.468-7-9.5 1.025-2.051 13 2.708 13 5l-3 4.5c3.536 0 4.785-4 9-4 0-1.747.253-2 2-2 0-2.652-8.737-1.119-10.5-2l-10.5-5-2 1.5c-2.926 5.852 4.218 11.5 9 11.5Z"/><path fill="#8AD987" id="CTXsp" d="m362 231-3 3c0-2.393-3.234-3-5-3l3-3c0 3.236 2.435 3 5 3ZM366 229h1v-1l-1 1ZM92 229l2 2-2-2ZM365 229l-1 1 1-1Z"/><path fill="#99D2BD" id="OLF" d="M359 234v3l8-8h-2l-1 1-2 1-3 3Z"/><path fill="#8AD987" id="CTXsp" d="M99 231c0 1.238-.423 3-2 3l-2-3h4Z"/><path fill="#A0ED9D" id="EPv" d="M115 256h1c1.638 0 2-3.576 2-5 0-4.407-7-6.926-7-11-2.881 0-4-1.292-4-4l-2-2-1-1-1-1-1-1h-3c0 1.238-.423 3-2 3v2c0 1.14 16.416 20 18 20Z"/><path fill="#C9C9C9" id="act" d="M124 241h3c0-2.489 8.977-3.546 6-9.5-1.074-2.148-11.39 2.779-12 4-1.722 3.443 3 3.168 3 5.5ZM330 241h3l3-4.5c0-2.292-11.975-7.051-13-5-3.016 6.032 7 7.555 7 9.5Z"/><path fill="#A0ED9D" id="EPv" d="m346 240-2.5 3c-1.271 1.271-8.793 13-2.5 13l14-14.5 4-4.5v-3c0-2.393-3.234-3-5-3l-1 1-1 1-1 1-1 1v1c0 1.621-2.379 4-4 4Z"/><path fill="#8AD987" id="CTXsp" d="m103 232 1 1-1-1Z"/><path fill="#E64438" id="HY" d="M199 235c0 1.674-7.241 2-9 2l-3-5c1.015 0 6.294 3 12 3Z"/><path fill="#FF5346" id="MPO" d="m199 261-6 3c0-9.65-3-18.465-3-27 1.759 0 9-.326 9-2 1.465 0 4 .109 4-2l4-1c0 4.535-4.316 10.869-2 15.5 1.263 2.527 2 4.392 2 7.5l-1 1-6 3-1 1v1ZM257 260c1.134 0 6 5.117 6 3 0-9.295 3-17.314 3-26-1.775 0-8-.069-8-2h-1c-1.238 0-3-.423-3-2h-1l-4-1c0 3.067.765 4.029 2 6.5 2.056 4.112-1 11.536-1 15.5l1 2 6 4Z"/><path fill="#E64438" id="HY" d="m269 232-1 1 1-1Z"/><path fill="#8AD987" id="CTXsp" d="m353 232-1 1 1-1Z"/><path fill="#E64438" id="HY" d="m203 233-4 2c1.465 0 4 .109 4-2ZM254 233l3 2c-1.238 0-3-.423-3-2ZM258 235c0 1.931 6.225 2 8 2l2-4c-2.73 0-6.298 2-10 2Z"/><path fill="#8AD987" id="CTXsp" d="m352 233-1 1 1-1ZM107 235v1l-2-2 2 1ZM351 234l-1 1 1-1Z"/><path fill="#80BEE2" id="IA" d="m112 239-1 1c-2.881 0-4-1.292-4-4v-1h1l2 2 2 2Z"/><path fill="#8AD987" id="CTXsp" d="M110 236v1l-2-2 2 1Z"/><path fill="#80BEE2" id="IA" d="m345 239 1 1c1.621 0 4-2.379 4-4l-1-1-2 1-1 1h-1v2Z"/><path fill="#8AD987" id="CTXsp" d="M350 235v1l-1-1h1Z"/><path fill="#97D6F9" id="STR" d="m112 239 5 5c0-2.51-4-3.687-4-7l-3-1v1l2 2ZM345 237h1v-1l-1 1Z"/><path fill="#8AD987" id="CTXsp" d="m347 236-1 1v-1h1Z"/><path fill="#97D6F9" id="STR" d="M344 239h1v-2h-1v2ZM126 263l5 4c0-5.575-9.759-11.371-.5-16l5-2 7.5 4v-1l-2-3v-11l-6.5 9c-4.106 2.053-7.49 2-12.5 2l4 14Z"/><path fill="#8AD987" id="CTXsp" d="M116 256c0 3.046 7.749 7 10 7l-4-14-5-5-5-5-1 1c0 4.074 7 6.593 7 11 0 1.424-.362 5-2 5Z"/><path fill="#97D6F9" id="STR" d="M331 263c-2.33 0-3.227 4-6 4l5-7.5c.826-1.653-.405-3.81-1-5-3.765-7.53-8.057-3.5-14-3.5v-2c0-2.69 1-6.675 1-10l5.5 8c4.236 2.118 8.341 2 13.5 2 0 4.529-4 8.792-4 14ZM344 239c-1.712 0-3 2.571-3 4 1.712 0 3-2.571 3-4Z"/><path fill="#8AD987" id="CTXsp" d="M340 257c-2.879 0-5.63 6-9 6 0-5.208 4-9.471 4-14l1-1 1-1 1-1 1-1 1-1 1-1c1.712 0 3-2.571 3-4h1l1 1-2.5 3c-1.271 1.271-8.793 13-2.5 13l-1 1Z"/><path fill="#97D6F9" id="STR" d="m341 243-1 1 1-1ZM340 244l-1 1 1-1ZM339 245l-1 1 1-1ZM338 246l-1 1 1-1Z"/><path fill="#8599CC" id="PAL" d="m163 249 8 6c0-2.384-3-4.881-3-8-1.624 0-2.75 2-5 2ZM293 249c0 1.028-4.666 4-6 4l1-6c1.624 0 2.75 2 5 2Z"/><path fill="#97D6F9" id="STR" d="m337 247-1 1 1-1ZM336 248l-1 1 1-1Z"/><path fill="#80C0E2" id="AAA" d="M148 285h1c7.643 0 17.622-7 18-7v-5l-1-4c-5.44 0-16.973-16-23-16l-7.5-4-5 2c-9.259 4.629.5 10.425.5 16l2 2c2.875 0 10 10.676 10 13l4 2 1 1Z"/><path fill="#8599CC" id="PAL" d="m144 250-1 2-2-3 3 1Z"/><path fill="#A2B1D8" id="MA" d="M171 258c0 1.682-3.133 11-5 11-5.44 0-16.973-16-23-16v-1l1-2c6.404 0 11.957-1 19-1l8 6v3ZM285 258c2.86 0 1.231 11 6 11 4.694 0 16.501-16 22-16v-1l-1-2c-6.404 0-11.957-1-19-1 0 1.028-4.666 4-6 4l-1 2-1 1v2Z"/><path fill="#8599CC" id="PAL" d="M313 252h1l1-1v-2l-3 1 1 2Z"/><path fill="#80C0E2" id="AAA" d="M307 285h1l2-1 3-1c0-2.289 7.667-14 10-14l2-2 5-7.5c.826-1.653-.405-3.81-1-5-3.765-7.53-8.057-3.5-14-3.5l-1 1-1 1c-5.499 0-17.306 16-22 16l-2 4v4l6.5 6c3.287 1.643 7.511 2 11.5 2Z"/><path fill="#97D6F9" id="STR" d="m315 251-1 1 1-1ZM314 252l-1 1v-1h1Z"/><path fill="#8599CC" id="PAL" d="m287 253-1 2 1-2Z"/><path fill="#E64438" id="HY" d="M248 256h3l-1-2-2 2ZM206 256h3l-2-1-1 1ZM232 255l1 1-1-1Z"/><path fill="#8599CC" id="PAL" d="m286 255-1 1 1-1Z"/><path fill="#99D2BD" id="OLF" d="m122 271 3.5-2c1.045 0 1.861 2 3.5 2l4-2-2-2-5-4c-2.251 0-10-3.954-10-7h-1c0 3.166 7 8.103 7 15Z"/><path fill="#E64438" id="HY" d="M172 258h1l-2-2v1l1 1Z"/><path fill="#FF4B3E" id="AHN" d="M199 260v1c0 1.947-3.428 3.644-2 6.5 2.064 4.128 13.745 9.509 17 3 2.023-4.046 0-7.571 0-11.5l-5-3h-3l-6 3-1 1Z"/><path fill="#E64438" id="HY" d="M221 277c-7.558 0-14.944 1-22 1 0-2.623-11-4.504-11-3.5l1 2.5-6-1 4-2.5c1.034-2.069 0-2.991 0-5.5 1.909 0 6-.037 6-4l6-3c0 1.947-3.428 3.644-2 6.5 2.064 4.128 13.745 9.509 17 3 2.023-4.046 0-7.571 0-11.5l4.5 1 5.5-4c0 5.473-2 10.193-2 15-6.302 0-1 5.701-1 6Z"/><path fill="#FF4B3E" id="AHN" d="M243 259c0 2.579-3.752 5.997-2 9.5 3.179 6.357 14.968 6.064 18 0 1.619-3.237-2-6.105-2-8.5l-6-4h-3l-5 3Z"/><path fill="#8599CC" id="PAL" d="M171 258h1l-1-1v1Z"/><path fill="#E64438" id="HY" d="m267 277 2-2.5-4-.5c-1.767 0-7 2.41-7 4-7.056 0-14.442-1-22-1 0-1.384 3.189-1.123 2-3.5l-3-2.5c0-5.4-2-8.6-2-14l5.5 3 4.5-1c0 2.579-3.752 5.997-2 9.5 3.179 6.357 14.968 6.064 18 0 1.619-3.237-2-6.105-2-8.5 1.134 0 6 5.117 6 3 1.259 0 1.825 6 6 6 0 4.111 5 5.752 5 7l-7 1ZM283 258h2v-1l-2 1Z"/><path fill="#99D2BD" id="OLF" d="m334 271-2.5-2-4.5 3c0-2.715-1.657-3-4-3l2-2c2.773 0 3.67-4 6-4 3.37 0 6.121-6 9-6 0 4.804-6 8.123-6 14Z"/><path fill="#96A6D3" id="NDB" d="M182 276h1l4-2.5c1.034-2.069 0-2.991 0-5.5l-14-10h-2c0 1.682-3.133 11-5 11l1 4c3.524 0 9.537 3 15 3ZM289 273c-3.28 0-9.71 3-15 3 0-1.248-5-2.889-5-7l1-1 13-10h2c2.86 0 1.231 11 6 11l-2 4Z"/><path fill="#E64438" id="HY" d="m200 259-1 1 1-1Z"/><path fill="#A8A9AA" id="V3" d="M227 272h2l1-1c0-3.2.714-5.072-1-8.5l-.5-3.5-.5 2.5c-2.157 4.313-1 6.248-1 10.5Z"/><path fill="#E64438" id="HY" d="m270 268-1 1 1-1Z"/><path fill="#59D9AA" id="PAA" d="M116 293h3l2-1h1l1-1h1l2-1h1l1-1 1-3v-15c-1.639 0-2.455-2-3.5-2l-3.5 2c0 7.954-7 14.661-7 22h1Z"/><path fill="#60E5B7" id="COAa" d="M143 282c0 10.212-11.368 4-14 4v-15l4-2c2.875 0 10 10.676 10 13ZM313 283c0 2.975 7.782 6 10.5 6l3.5-2v-15c0-2.715-1.657-3-4-3-2.333 0-10 11.711-10 14Z"/><path fill="#59D9AA" id="PAA" d="m340 293 3 1c0-3.674-9-16.095-9-23l-2.5-2-4.5 3v15l1 2h1l1 1h1l1 1h1l4 2h3Z"/><path fill="#FF5545" id="SCH" d="m224 275-3 2c0-.299-5.302-6 1-6l3 3-1 1ZM233 276l3 1c0-1.384 3.189-1.123 2-3.5l-3-2.5-3 2 1 3Z"/><path fill="#8599CC" id="PAL" d="M167 278v3l2.5 2c2.819 1.41 12.5-3.628 12.5-7-5.463 0-11.476-3-15-3v5Z"/><path fill="#E64438" id="HY" d="m230 275 3 1-1-3-2 1v1Z"/><path fill="#8599CC" id="PAL" d="M289 277v5c-3.226 0-15 1.076-15-6 5.29 0 11.72-3 15-3v4Z"/><path fill="#FE5B50" id="SO" d="M192 279h5l2-1c0-2.623-11-4.504-11-3.5l1 2.5h1l2 2Z"/><path fill="#E64438" id="HY" d="M224 275h2v-1h-1l-1 1Z"/><path fill="#FE5B50" id="SO" d="M259 279h6l1-1 1-1 2-2.5-4-.5c-1.767 0-7 2.41-7 4l1 1Z"/><path fill="#CAC7CB" id="fiber tracts" d="M258 279h1l-1-1c-7.056 0-14.442-1-22-1l-3-1-3-1h-6l-3 2c-7.558 0-14.944 1-22 1l-2 1h2l23.5-1 5-2 6 2 24.5 1Z"/><path fill="#CBCACC" id="och" d="M228 284c-5.671 0-13.723-.389-18.5 2-1.453.726-10.5 3.691-10.5 2v-9l23.5-1 5-2 6 2 24.5 1v9c-6.735 0-14.458-4-22-4-1.949 0-8-.402-8 0Z"/><path fill="#E64438" id="HY" d="M191 279h1l-2-2 1 2ZM267 277l-1 1 1-1Z"/><path fill="#97D6F9" id="STR" d="m307 285-3 2.5 5 3.5c-5.758 0-20-1.729-20-9v-5l6.5 6c3.287 1.643 7.511 2 11.5 2ZM149 285c0 1.723 4.553.393 3 3.5l-5 2.5c6.927 0 20-1.394 20-10v-3c-.378 0-10.357 7-18 7Z"/><path fill="#CAC7CB" id="fiber tracts" d="m191 279-1 1 1-1Z"/><path fill="#CACCCB" id="opt" d="M190 280c0 5.081 4.096 8 9 8v-9h-8l-1 1ZM267 282c-2.058 0-4.825 6-9 6v-9h7l2 2v1Z"/><path fill="#CAC7CB" id="fiber tracts" d="m265 279 2 2-2-2ZM228 284c-5.671 0-13.723-.389-18.5 2-1.453.726-10.5 3.691-10.5 2-4.904 0-9-2.919-9-8-4.023 0 3.151 8.326 4.5 9 5.909 2.955 18.681.659 24-2 1.899-.949 9.5.428 9.5-3Z"/><path fill="#99D2BD" id="OLF" d="M147 291c-5.356 0-11.266 1-16 1 0-1.539-1.342-3-3-3l1-3c2.632 0 14 6.212 14-4l4 2 1 1h1c0 1.723 4.553.393 3 3.5l-5 2.5Z"/><path fill="#CAC7CB" id="fiber tracts" d="M228 284c0-.402 6.051 0 8 0 7.542 0 15.265 4 22 4 4.175 0 6.942-6 9-6 0 12.145-22.421 8.04-28.5 5h-5l-5.5-3Z"/><path fill="#99D2BD" id="OLF" d="M309 291c5.356 0 11.266 1 16 1l3-3-1-2-3.5 2c-2.718 0-10.5-3.025-10.5-6l-3 1-2 1h-1l-3 2.5 5 3.5Z"/><path fill="#97D6F9" id="STR" d="m147 284 1 1-1-1ZM310 284l-2 1 2-1Z"/><path fill="#99D2BD" id="OLF" d="m128 289-1 1 1-1Z"/><path fill="#CAC8C7" id="lot" d="M115 294v2c2.631 0 16 1.683 16-4 0-1.539-1.342-3-3-3l-1 1h-1l-2 1h-1l-1 1h-1l-2 1h-3l-1 1ZM340 293c0 1.532 1 .95 1 3 0 1.614-3.31 1-4.5 1-2.105 0-11.5-2.623-11.5-5l3-3h1l1 1h1l1 1h1l4 2h3Z"/><path fill="#99D2BD" id="OLF" d="m329 289 1 1-1-1ZM126 290l-2 1 2-1ZM331 290l1 1-1-1ZM123 291l-1 1 1-1ZM333 291l4 2-4-2ZM121 292l-2 1 2-1Z"/><path fill="#59D9AA" id="PAA" d="M114 294h1v-1l-1 1Z"/><path fill="#99D2BD" id="OLF" d="m116 293-1 1v-1h1ZM344 295l-3 1c0-2.05-1-1.468-1-3l3 1 1 1ZM113 295l2 1v-2h-1l-1 1Z"/></svg>