<svg xmlns="http://www.w3.org/2000/svg" viewBox="0 0 456 320"><path fill="#1E9C59" id="MOs1" d="M112 118c0 .754 1.6 8 2 8 0-15.243 24.975-37.738 37.5-44 6.066-3.033 13.982-2.991 20-6 4.232-2.116 21.534-6.733 27-4l9 3c3.062 1.531 4.509 6 7.5 6l4-3c0-9.975-29.844-16.828-37.5-13l-19 6c-14.145 7.072-33.366 14.232-41.5 30.5-2.163 4.325-9 9.535-9 14.5 1.399 0 1.399 2 0 2ZM344 116c0 1.213.041 10-2 10 0-16.988-23.98-37.24-37.5-44-6.71-3.355-16.603-3.802-23-7-4.492-2.246-18.18-5.91-24-3l-10 4-5.5 5h-1l-4-3c0-9.826 30.363-16.568 37.5-13 6.127 3.063 13.916 2.958 20 6 12.314 6.157 31.287 13.074 38.5 27.5 2.784 5.568 11 11.004 11 17.5Z"/><path fill="#1E9D58" id="MOs2/3" d="M129 148c0 1.549-6.051 5-8 5l-3-4.5c-1.391-2.783-4-14.396-4-17.5 1.186 0 1.186-1 0-1v-4c0-15.243 24.975-37.738 37.5-44 6.066-3.033 13.982-2.991 20-6 4.232-2.116 21.534-6.733 27-4l9 3c3.062 1.531 4.509 6 7.5 6v1c-1.26 0-5 3.346-5 5h-1c0-4.088-7.365-3.932-9.5-5-7.328-3.664-21.647 1.823-28 5-11.849 5.925-29.563 13.626-36.5 27.5-2.73 5.461-4.287 11.574-7 17l1 16.5ZM339 149c-1.803 0-3 3.592-3 5-3.29 0-5.518-5-9-5v-1c0-5.706 3.777-12.947 1-18.5-9.995-19.99-17.733-30.117-38.5-40.5-7.161-3.58-23.652-11.174-32-7-2.193 1.097-10.5 1-10.5 5h-1c0-2.58-4-3.211-4-6l5.5-5 10-4c5.82-2.91 19.508.754 24 3 6.397 3.198 16.29 3.645 23 7 13.52 6.76 37.5 27.012 37.5 44v1c0 7.354-3 14.714-3 22Z"/><path fill="#3EA665" id="ACAd1" d="m226 90-5 2c-2.886 0-2.153-10-6-10v-1l4-3c0 3.95 7 7.582 7 12ZM235 93h1c0-4.519 5-7.882 5-12l-4-3c0 4.369-6 7.222-6 12l4 3Z"/><path fill="#1F9D58" id="MOs5" d="M129 148h1c0-2.027 20.872-15 25-15 0-3.446 3.502-12 8-12v-1c0-2.492 5.792-7 8-7l2-2 3-1 1-1c0-2.579 11.643-4 14-4 0-2.196 8.041-9 10-9l8-9c0-4.088-7.365-3.932-9.5-5-7.328-3.664-21.647 1.823-28 5-11.849 5.925-29.563 13.626-36.5 27.5-2.73 5.461-4.287 11.574-7 17l1 16.5Z"/><path fill="#40A565" id="ACAd2/3" d="m243 94-1 1c-1.974 0-3.517-2-6-2 0-4.519 5-7.882 5-12h1c0 2.789 4 3.42 4 6 0 2.232-3 4.03-3 7Z"/><path fill="#1F9D58" id="MOs5" d="M302 133c9.674 0 19.343 15 25 15 0-5.706 3.777-12.947 1-18.5-9.995-19.99-17.733-30.117-38.5-40.5-7.161-3.58-23.652-11.174-32-7-2.193 1.097-10.5 1-10.5 5l8 9c2.32 0 10 6.409 10 9h1c2.524 0 15 2.191 15 5l2 1c2.772 0 10 5.915 10 9l1 2c3.64 0 8 7.318 8 11Z"/><path fill="#40A565" id="ACAd2/3" d="M214 95h1c0-1.353 4.643-2 6-2v-1c-2.886 0-2.153-10-6-10-1.26 0-5 3.346-5 5 0 2.409 4 4.863 4 8Z"/><path fill="#3EA566" id="ACAd5" d="M214 95c-2.171 0-13 2.163-13 1l8-9h1c0 2.409 4 4.863 4 8ZM243 94c0 1.266 12 3.136 12 2l-8-9h-1c0 2.232-3 4.03-3 7Z"/><path fill="#2FA750" id="PL1" d="M223 126h10l2-33-4-3-2.5 5-2.5-5-5 2v1c0 10.617 2 21.588 2 33Z"/><path fill="#2FA74F" id="PL2/3" d="m219 125 4 1c0-11.412-2-22.383-2-33-1.357 0-6 .647-6 2 0 4.957 1.884 11.268 4 15.5V125ZM237 125l-4 1 2-33h1c2.483 0 4.026 2 6 2l-2 4.5c-1.734 3.469-3 20.679-3 25.5Z"/><path fill="#2EA84F" id="PL5" d="M257 117c-3.852 0-13.408 8-20 8 0-4.821 1.266-22.031 3-25.5l2-4.5 1-1c0 1.266 12 3.136 12 2 2.32 0 10 6.409 10 9-4.283 0-8 7.53-8 11v1ZM199 117c6.508 0 12.647 8 20 8v-14.5c-2.116-4.232-4-10.543-4-15.5h-1c-2.171 0-13 2.163-13 1-1.959 0-10 6.804-10 9 5.125 0 8 6.566 8 11v1Z"/><path fill="#1D9C5A" id="MOs6a" d="m189 108-12 1c0-2.579 11.643-4 14-4l-2 3Z"/><path fill="#2FA850" id="PL6a" d="m195 114 4 2c0-4.434-2.875-11-8-11l-2 3 6 6ZM261 115l-4 1c0-3.47 3.717-11 8-11h1l2 3c-1.901 0-6 4.099-6 6l-1 1Z"/><path fill="#1D9C5A" id="MOs6a" d="M268 108c4.846 0 8.793 2 13 2 0-2.809-12.476-5-15-5l2 3Z"/><path fill="#268E44" id="FRP6a" d="M163 121c0 1.145-.579 4 1 4 7.1 0 13.384-10 21-10 3.423 0 6.474 2 9 2 2.716 0 1 .561 1-3l-6-6-12 1-1 1-3 1c0 1.747-.253 2-2 2 0 2.073-6.148 7-8 7v1ZM294 122l-1 3c-7.285 0-13.478-10-21-10-3.702 0-7.27 2-10 2l-1-2 1-1c0-1.901 4.099-6 6-6 4.846 0 8.793 2 13 2l2 1c0 2.196 8.041 9 10 9l1 2Z"/><path fill="#1D9C5A" id="MOs6a" d="m177 109-1 1 1-1Z"/><path fill="#258F45" id="FRP5" d="m173 111-2 2c1.747 0 2-.253 2-2ZM283 111c2.772 0 10 5.915 10 9-1.959 0-10-6.804-10-9ZM171 113c-2.208 0-8 4.508-8 7 1.852 0 8-4.927 8-7Z"/><path fill="#22885E" id="ORBm6a" d="M197 123h1l1-6v-1l-4-2c0 3.561 1.716 3-1 3l3 6ZM262 114l-1 1 1-1Z"/><path fill="#24895D" id="ORBl6a" d="m159 133-1 4c5.785 0 14.317-10 23-10 0-3.795 4-8.474 4-12-7.616 0-13.9 10-21 10l-5 8Z"/><path fill="#238A5C" id="ORBvl6a" d="M197 123c0 2.234-13.088 4-16 4 0-3.795 4-8.474 4-12 3.423 0 6.474 2 9 2l3 6Z"/><path fill="#22885E" id="ORBm6a" d="M262 117c0 1.076-1.523 5-3 5-1.638 0-2-3.576-2-5v-1l4-1 1 2Z"/><path fill="#238A5C" id="ORBvl6a" d="M259 123c2.378 0 10.105 4 16 4l-3-12c-3.702 0-7.27 2-10 2 0 1.076-1.523 5-3 5v1Z"/><path fill="#24895D" id="ORBl6a" d="m297 133 2 4c-5.694 0-14.722-10-24-10l-3-12c7.522 0 13.715 10 21 10l4 8Z"/><path fill="#1E9D5A" id="MOp1" d="M112 116c1.399 0 1.399 2 0 2v-2ZM337 154l6 3c3.113 0 3.078-7.656 4-9.5 3.096-6.191 3.096-16.809 0-23-.739-1.479-.967-8.5-3-8.5 0 1.213.041 10-2 10v1c1.665 0 1 4.222 1 5.5 0 3.197-1.135 16.5-4 16.5 0 2.25-2 3.376-2 5Z"/><path fill="#23885E" id="ORBm5" d="M213 155h1c6.365 0 5-24.739 5-30-7.353 0-13.492-8-20-8l-1 6c0 7.929 15 23.202 15 32ZM237 125c0 6.745-.945 30 6 30l16-32v-1c-1.638 0-2-3.576-2-5-3.852 0-13.408 8-20 8Z"/><path fill="#1E9D5A" id="MOp1" d="M119 155c-2.72 0-3.553 2-6 2-4.506 0-6.491-25.518-4-30.5.809-1.617.405-8.5 3-8.5 0 .754 1.6 8 2 8v5c-1.251 0-1.536 4.427-1 5.5.713 1.427 6 16.896 6 17.5v1Z"/><path fill="#1D9C5A" id="MOs6a" d="M155 133h4l5-8c-1.579 0-1-2.855-1-4-4.498 0-8 8.554-8 12ZM297 133h5c0-3.682-4.36-11-8-11l-1 3 4 8Z"/><path fill="#23885C" id="ORBvl5" d="M181 145c1.423 0 3.544-1.978 5.5-1 4.783 2.391 21.983 11 26.5 11 0-8.798-15-24.071-15-32h-1c0 2.234-13.088 4-16 4v18ZM275 144c-11.89 0-24.389 11-32 11l16-32c2.378 0 10.105 4 16 4v17Z"/><path fill="#24885D" id="ORBm2/3" d="m214 155 5 12c4.43 0 2.676-5.851 4-8.5 4.26-8.521 0-23.417 0-32.5l-4-1c0 5.261 1.365 30-5 30ZM243 155l-6 12c-3.527 0-4-7.88-4-10.5V126l4-1c0 6.745-.945 30 6 30Z"/><path fill="#23895D" id="ORBm1" d="m225 178-3 1c0-3.901-3-7.543-3-11v-1c4.43 0 2.676-5.851 4-8.5 4.26-8.521 0-23.417 0-32.5h10v30.5c0 2.62.473 10.5 4 10.5v1c0 3.911-2 6.607-2 11l-4-2v-1l-1-1c0-8.161-5-1.409-5 3Z"/><path fill="#228A5D" id="ORBl5" d="m149 164-1 7c11.568 0 24.893-26 33-26v-18c-8.683 0-17.215 10-23 10h-1l-7 25-1 2ZM306 161l2 10c-11.89 0-23.186-26-33-26v-18c9.278 0 18.306 10 24 10l7 24Z"/><path fill="#1F9C58" id="MOp2/3" d="M342 127c1.665 0 1 4.222 1 5.5 0 3.197-1.135 16.5-4 16.5 0-7.286 3-14.646 3-22ZM114 130c1.186 0 1.186 1 0 1v-1ZM121 153l-2 1c0-.604-5.287-16.073-6-17.5-.536-1.073-.251-5.5 1-5.5 0 3.104 2.609 14.717 4 17.5l3 4.5Z"/><path fill="#209665" id="AId5" d="M149 164c-1.562 0-5 6.653-5 8-4.221 0-14-19.859-14-24 0-2.027 20.872-15 25-15 0 2.177-.641 4 2 4l-7 25-1 2Z"/><path fill="#209666" id="AId6a" d="M157 137h1l1-4h-4c0 2.177-.641 4 2 4ZM302 133c0 2.061-.902 4-3 4l-2-4h5Z"/><path fill="#209665" id="AId5" d="M306 161c1.187 0 6 9.415 6 11 6.164 0 14.259-23 15-23v-1c-5.657 0-15.326-15-25-15 0 2.061-.902 4-3 4l7 24Z"/><path fill="#248A5D" id="ORBvl2/3" d="M219 167v1c-12.44 0-21.687-11-34-11h-1c0-4.169-3-8.034-3-12 1.423 0 3.544-1.978 5.5-1 4.783 2.391 21.983 11 26.5 11h1l5 12ZM237 167v1c12.791 0 22.181-11 35-11 0-3.864 3-7.732 3-12v-1c-11.89 0-24.389 11-32 11l-6 12Z"/><path fill="#238A5E" id="ORBl2/3" d="M148 172c0 4.283-1 6.715-1 10l12-10.5c5.582-5.582 16.086-14.5 25-14.5 0-4.169-3-8.034-3-12-8.107 0-21.432 26-33 26v1ZM309 172v9c-3.526 0-4.6-4.55-7.5-6-10.523-5.262-16.243-18-29.5-18 0-3.864 3-7.732 3-12 9.814 0 21.11 26 33 26l1 1Z"/><path fill="#209765" id="AId2/3" d="M136 181h1c0-3.218 7-5.402 7-9-4.221 0-14-19.859-14-24h-1c0 1.549-6.051 5-8 5l-2 1v1l17 26ZM319 181h1c0-3.962 17-20.699 17-27h-1c-3.29 0-5.518-5-9-5-.741 0-8.836 23-15 23l7 9Z"/><path fill="#1F9C58" id="MOp2/3" d="M336 154h1c0-1.624 2-2.75 2-5-1.803 0-3 3.592-3 5Z"/><path fill="#209764" id="AId1" d="M320 181c0 1.803 3.592 3 5 3 0-5.403 18-20.343 18-27l-6-3c0 6.301-17 23.038-17 27ZM136 181l-4 3-4.5-6c-2.591-2.591-14.5-18.047-14.5-21 2.447 0 3.28-2 6-2l17 26Z"/><path fill="#238A5D" id="ORBl1" d="m147 183 2 4 12.5-12c7.956-3.978 13.752-10 24.5-10l-1-8h-1c-8.914 0-19.418 8.918-25 14.5L147 182v1Z"/><path fill="#248A5B" id="ORBvl1" d="M219 168c0 3.457 3 7.099 3 11-8.463 0-21.491-14-36-14l-1-8c12.313 0 21.56 11 34 11ZM237 168c0 3.911-2 6.607-2 11 7.492 0 20.762-14 36-14l1-8c-12.819 0-22.209 11-35 11Z"/><path fill="#238A5D" id="ORBl1" d="m309 182-2 5-13.5-13c-5.476-5.476-14.62-9-22.5-9l1-8c13.257 0 18.977 12.738 29.5 18 2.9 1.45 3.974 6 7.5 6v1Z"/><path fill="#1F9865" id="AIv5" d="M309 172h3c0-1.585-4.813-11-6-11l2 10 1 1ZM150 162l-1 2 1-2ZM144 172h4v-1l1-7c-1.562 0-5 6.653-5 8Z"/><path fill="#99D2BD" id="OLF" d="M213 229c0 2.066 11 1.934 11 4 2.034 0 1.176-9.852 2-11.5 5.06-10.12-1-32.812-1-43.5l-3 1c-8.463 0-21.491-14-36-14-10.748 0-16.544 6.022-24.5 10L149 187c0 1.477-3.924 3-5 3 0 8.676-8.409 9.091.5 18l2.5 3 2-3-2-2.5c-1.981-3.962.489-12.978 2-16l11.5-10.5 4-4c11.201-5.601 20.278-11.361 33-5l7.5 5.5 7 10c1.817 3.634-.42 16.841-2 20-1.629 3.257 3 19.844 3 23.5Z"/><path fill="#99D2BD" id="OLF" d="M243 229c0 .468-9.823 4-11 4 0-3.954-1.198-12.896-3-16.5-2.697-5.394 2-32.119 2-39.5l4 2c7.492 0 20.762-14 36-14 7.88 0 17.024 3.524 22.5 9l13.5 13 6 3c0 8.221 6.089 10.411-1.5 18l-2.5 3-1-3c0-5.083 3.742-10.017 1-15.5-5.151-10.302-32.678-31.911-45.5-25.5l-6 4-8.5 7.5c-1.477 2.954-7.02 8.959-5 13 1.858 3.716 4.218 18.563 2 23-2.081 4.162-3 9.496-3 14.5Z"/><path fill="#54BF94" id="AON" fill-rule="evenodd" d="M180 192c0 5.036 5.268 15.037 8 20.5.569 1.137 2.897 7.301 4.5 6.5 5.408-2.704 1.117-13.267-.5-16.5l1-8c-1.616-3.231-9.693-2.5-13-2.5m-1 51c0 2.469 11.654 8 14 8 0-9.521 10.415-22 20-22 0-3.656-4.629-20.243-3-23.5 1.58-3.159 3.817-16.366 2-20l-7-10-7.5-5.5c-12.722-6.361-21.799-.601-33 5l-4 4-11.5 10.5c-1.511 3.022-3.981 12.038-2 16l2 2.5 2.5-1c6.805 3.403 15.847 17.194 19.5 24.5 2.064 4.128 8 5.759 8 10.5v1ZM268 192l-5 2.5c-1.118 2.236 2.84 3.32 2 5-1.54 3.08-5.813 17.344-1.5 19.5l3.5-2.5c2.506-5.011 3.457-10.913 6-16l5-7c-1.329-2.658-7.452-1.5-10-1.5m9 51c0 2.929-11.435 8-14 8 0-9.718-9.669-22-20-22 0-5.004.919-10.338 3-14.5 2.218-4.437-.142-19.284-2-23-2.02-4.041 3.523-10.046 5-13l8.5-7.5 6-4c12.822-6.411 40.349 15.198 45.5 25.5 2.742 5.483-1 10.417-1 15.5l-3.5-1c-5.181 2.59-18.943 22.386-21.5 27.5-1.078 2.156-6 3.973-6 7.5v1Z"/><path fill="#219764" id="AIv2/3" d="M147 182v1c-1.907 0-10 2.843-10-2 0-3.218 7-5.402 7-9h4c0 4.283-1 6.715-1 10ZM319 181c0 6.22-7.854 1-10 1v-10h3l7 9Z"/><path fill="#99D2BD" id="OLF" d="m230 175 1 1-1-1Z"/><path fill="#209864" id="AIv1" d="M149 187c0 1.477-3.924 3-5 3-4.029 0-12-.38-12-6l4-3h1c0 4.843 8.093 2 10 2l2 4ZM307 187l6 3c3.875 0 12-1.655 12-6-1.408 0-5-1.197-5-3h-1c0 6.22-7.854 1-10 1l-2 5Z"/><path fill="#CBCBC7" id="aco" d="M180 192c0 5.036 5.268 15.037 8 20.5.569 1.137 2.897 7.301 4.5 6.5 5.408-2.704 1.117-13.267-.5-16.5l1-8c-1.616-3.231-9.693-2.5-13-2.5ZM268 192l-5 2.5c-1.118 2.236 2.84 3.32 2 5-1.54 3.08-5.813 17.344-1.5 19.5l3.5-2.5c2.506-5.011 3.457-10.913 6-16l5-7c-1.329-2.658-7.452-1.5-10-1.5Z"/><path fill="#CAC8C7" id="lot" d="m179 242-1 1c-5.62 0-22.974-21.448-25-25.5-1.227-2.453-6-3.128-6-6.5l2-3 2.5-1c6.805 3.403 15.847 17.194 19.5 24.5 2.064 4.128 8 5.759 8 10.5ZM277 242l1 1c5.817 0 20.408-17.316 23-22.5 1.734-3.468 8-5.361 8-9.5l-1-3-3.5-1c-5.181 2.59-18.943 22.386-21.5 27.5-1.078 2.156-6 3.973-6 7.5Z"/><path fill="#62CF9E" id="TTv" d="M224 233c0 6.882-6.431 20.466-13.5 24-3.316 1.658-17.5-4.78-17.5-6 0-9.521 10.415-22 20-22 0 2.066 11 1.934 11 4ZM232 233c0 7.814 7.611 20.555 14.5 24 3.162 1.581 16.5-4.872 16.5-6 0-9.718-9.669-22-20-22 0 .468-9.823 4-11 4Z"/><path fill="#99D2BD" id="OLF" d="M178 243h1v-1l-1 1ZM277 243h1l-1-1v1Z"/></svg>