<svg xmlns="http://www.w3.org/2000/svg" viewBox="0 0 456 320"><path fill="#1E9C59" id="MOs1" d="M143 137c-2.522 0-4.909 2-8 2 0-6.503-4.429-14.641-1-21.5 6.456-12.913 16.237-23.868 29.5-30.5l17-5c7.361-3.68 18.15 3 24.5 3l-5 7c-6.005 0-19.379-4.06-25.5-1-25.762 12.881-31.5 14.952-31.5 46ZM313 137l8 2c0-4.587 4.726-13.048 2-18.5-7.603-15.207-14.215-25.357-30.5-33.5-7.155-3.578-23.528-8.236-32-4-1.303.652-7.5.22-7.5 2 0 3.264 3 4.067 3 7h1c0-1.725 6.052-1 7.5-1 7.526 0 16.72-1.14 23 2 24.508 12.254 25.5 18.719 25.5 44Z"/><path fill="#2FA750" id="PL1" d="M218 113h8c0-12.489-8.293-20.896-18.5-26l-2.5-2-5 7c9.878 0 18 12.007 18 21ZM238 112h1c0-8.821 7.504-20 17-20 0-2.933-3-3.736-3-7-11.517 0-23 17.849-23 28 2.707 0 5.903-1 8-1Z"/><path fill="#1E9D58" id="MOs2/3" d="m158 139-1 1c0-.516-10.46-3-13-3h-1c0-31.048 5.738-33.119 31.5-46 6.121-3.06 19.495 1 25.5 1 0 1.947-3 2.636-3 5-17.016 0-32.156 2.812-40 18.5-2.727 5.454 4 8.871 4 12.5l-3 11ZM298 139l1 1c3.736 0 8.787-3 14-3 0-25.281-.992-31.746-25.5-44-6.28-3.14-15.474-2-23-2-1.448 0-7.5-.725-7.5 1l3 5c16.01 0 31.618 2.736 39 17.5 2.848 5.696-4 11.893-4 13.5 0 3.697 3 6.94 3 11Z"/><path fill="#2FA74F" id="PL2/3" d="m211 111 7 2c0-8.993-8.122-21-18-21 0 1.947-3 2.636-3 5 0 1.845 3.381 1.44 4.5 2 2.1 1.05 9.5 9.543 9.5 12ZM245 111l-6 1c0-8.821 7.504-20 17-20h1l3 5c-2.354 0-7 3.377-7 6l-2 1-1 1-5 6Z"/><path fill="#268E45" id="FRP2/3" d="M199 115c0 .504 7.078 3 8 3l4.5 2c1.986.993-.5-7.711-.5-9 0-2.457-7.4-10.95-9.5-12-1.119-.56-4.5-.155-4.5-2-17.016 0-32.156 2.812-40 18.5-2.727 5.454 4 8.871 4 12.5 8.137 0 16.993-13 25-13 0-3.84-10.016-2.468-7-8.5 4.001-8.002 24.095-7.81 28 0 2.654 5.307-4.044 8.5-8 8.5ZM271 115l6.5 3c5.164 2.582 11.532 10 17.5 10 0-1.607 6.848-7.804 4-13.5-7.382-14.764-22.99-17.5-39-17.5-2.354 0-7 3.377-7 6 2.649 0 30.905-6.31 24 7.5l-6 4.5Z"/><path fill="#258F45" id="FRP5" d="M191 115h8c3.956 0 10.654-3.193 8-8.5-3.905-7.81-23.999-8.002-28 0-3.016 6.032 7 4.66 7 8.5h2l1-1 2 1ZM268 115h3l6-4.5c6.905-13.81-21.351-7.5-24-7.5l-2 1-1 1c0 4.274-1.212 10 6 10h10l1-1 1 1Z"/><path fill="#268E45" id="FRP2/3" d="m253 103-2 1 2-1ZM251 104l-1 1 1-1ZM249 118h1l1-1c1.041 0 5-.986 5-2-7.212 0-6-5.726-6-10l-5 6c0 1.073-2.089 10.295.5 9l3.5-2Z"/><path fill="#24885D" id="ORBm2/3" d="m207 118 4 10c7.034 0 7-9.714 7-15l-7-2c0 1.289 2.486 9.993.5 9l-4.5-2ZM249 118l-4 10c-6.19 0-7-10.29-7-15l1-1 6-1c0 1.073-2.089 10.295.5 9l3.5-2Z"/><path fill="#23895D" id="ORBm1" d="m241 144-1 1c-2.124 0-4.436-1-6-1l-3-5.5c-2.415-4.83-1-19.289-1-25.5 2.707 0 5.903-1 8-1v1c0 4.71.81 15 7 15 0 4.564-4 9.818-4 16Z"/><path fill="#2FA74F" id="PL2/3" d="m239 112-1 1v-1h1Z"/><path fill="#23895D" id="ORBm1" d="M223 143c-1.714 0-3.482 2-6 2l-2-2c0-5.61-4-10.035-4-15 7.034 0 7-9.714 7-15h8c0 4.26 3.251 12.998 1 17.5l-4 12.5Z"/><path fill="#228A5D" id="ORBl5" d="M188 115h1v-1l-1 1Z"/><path fill="#23885C" id="ORBvl5" d="M189 115h2l-2-1v1ZM266 115h1v-1l-1 1Z"/><path fill="#228A5D" id="ORBl5" d="M267 115h1l-1-1v1Z"/><path fill="#238A5E" id="ORBl2/3" d="m161 128-3 11c2.44 0 18.447-13 28-13h1c0-4.135 2-7.305 2-11h-3c-8.007 0-16.863 13-25 13Z"/><path fill="#248A5D" id="ORBvl2/3" d="M187 126c8.777 0 15.693 2 24 2l-4-10c-.922 0-8-2.496-8-3h-10c0 3.695-2 6.865-2 11ZM270 126c-9.078 0-16.369 2-25 2l4-10h1l1-1c1.041 0 5-.986 5-2h11c0 3.285 3 7.387 3 11Z"/><path fill="#238A5E" id="ORBl2/3" d="M295 128c0 3.697 3 6.94 3 11l-7.5-6c-5.811-2.905-13.657-7-20.5-7 0-3.613-3-7.715-3-11h4l6.5 3c5.164 2.582 11.532 10 17.5 10Z"/><path fill="#24885D" id="ORBm2/3" d="m251 117-1 1 1-1Z"/><path fill="#238A5D" id="ORBl1" d="M157 141c0 5.628-2 9.992-2 17l3.5-6c4.068-4.068 11.908-13 17.5-13l1-1 2-1 2-1 2-1h2c0-3.283 1-6.01 1-9-9.553 0-25.56 13-28 13l-1 1v1Z"/><path fill="#248A5B" id="ORBvl1" d="m204 138 11 5c0-5.61-4-10.035-4-15-8.307 0-15.223-2-24-2h-1c0 2.99-1 5.717-1 9h1c0-2.338 15-.746 15 2h2l1 1ZM253 138l-12 6c0-6.182 4-11.436 4-16 8.631 0 15.922-2 25-2l1 8c-2.845 0-16 .04-16 3h-1l-1 1Z"/><path fill="#238A5D" id="ORBl1" d="M299 141c0 5.716 2 9.212 2 16l-3-5.5c-.882-1.764-15.717-12.5-17-12.5h-1l-2-2h-1l-4-2h-2v-1l-1-8c6.843 0 14.689 4.095 20.5 7l7.5 6 1 1v1Z"/><path fill="#99D2BD" id="OLF" d="m197 139-2 1c0-5.657-4.608-5-9-5 0-2.338 15-.746 15 2-2.177 0-4-.641-4 2ZM260 139l1 1c0-5.667 5.677-5 10-5v-1c-2.845 0-16 .04-16 3 2.312 0 5-.868 5 2ZM183 135l-2 1 2-1Z"/><path fill="#9DF0D1" id="AOBgl" d="m193 147-8.5 4c-4.153 2.077-7.966-3-11.5-3 0-4.35 3-8.219 3-9l1-1 2-1 2-1 2-1h3c4.392 0 9-.657 9 5 0 3.066-2 4.417-2 7ZM263 147c3.284 0 6.715 2.608 9.5 4 3.686 1.843 7.235-3 10.5-3l1-4.5c-1.014-2.029-3-2.271-3-4.5h-1l-2-2h-1l-4-2h-2c-4.323 0-10-.667-10 5l2 7Z"/><path fill="#99D2BD" id="OLF" d="m273 135 4 2-4-2ZM181 136l-2 1 2-1Z"/><path fill="#209764" id="AId1" d="M155 158v1c-8.135 0-20-11.996-20-20 3.091 0 5.478-2 8-2h1c0 12.834 10.707 4 13 4 0 5.628-2 9.992-2 17Z"/><path fill="#209765" id="AId2/3" d="M157 140v1c-2.293 0-13 8.834-13-4 2.54 0 13 2.484 13 3Z"/><path fill="#99D2BD" id="OLF" d="m179 137-2 1 2-1Z"/><path fill="#CAC8C9" id="von" d="M217 145c0 3.382-1.342 1-3 1l-3-2-1-1h-1l-1-1h-1l-1-1h-1l-1-1h-2l-2-1h-3c0-2.641 1.823-2 4-2h2l1 1 11 5 2 2Z"/><path fill="#99D2BD" id="OLF" d="m203 137 1 1-1-1ZM254 137l-1 1 1-1Z"/><path fill="#CAC8C9" id="von" d="m240 145 1 2 8-5 1-1h2l1-1h1l2-1h4c0-2.868-2.688-2-5-2h-1l-1 1-12 6-1 1Z"/><path fill="#99D2BD" id="OLF" d="m278 137 2 2-2-2Z"/><path fill="#209765" id="AId2/3" d="M299 140v1c1.888 0 14 7.99 14-4-5.213 0-10.264 3-14 3Z"/><path fill="#209764" id="AId1" d="M301 157v2c8.478 0 20-11.706 20-20l-8-2c0 11.99-12.112 4-14 4 0 5.716 2 9.212 2 16Z"/><path fill="#99D2BD" id="OLF" d="m177 138-1 1 1-1ZM182 231c-3.985 0-1 3.223-1 5-1.588 0-8.951-14.401-10-16.5-9.517-19.034-16-37.436-16-60.5v-1l3.5-6c4.068-4.068 11.908-13 17.5-13 0 .781-3 4.65-3 9-5.048 0-2 9.001-2 11-2.721 0-9-.202-9 4-6.278 0-1 23.906-1 26.5 0 9.256 9.858 24.715 14 33 1.171 2.342 7 6.675 7 8.5Z"/><path fill="#9AD1BD" id="MOB" d="M181 236c0 6.281 18.888 16 24 16 7.045 0 11.601-11.702 14-16.5 9.981-19.962 7-46.526 7-70.5l-1-2v-3l-1-1-1-4-5-6-4-3-3-2-1-1h-1l-1-1h-1l-1-1h-2l-1-1h-1l-2-1h-3l-2 1c0 3.066-2 4.417-2 7 5.031 0 1 9.53 1 11 3.044 0 4.513 3 1 3l1 5 1 9v2l-1 1v3c0 6.45-2 13.119-2 20v11.5l-3 6.5-1 1c0 1.294-3.609 7-5 7 0 3.041.303 4-3 4-3.985 0-1 3.223-1 5Z"/><path fill="#99D2BD" id="OLF" d="m200 139 2 1-2-1ZM256 139l-2 1 2-1Z"/><path fill="#9AD1BD" id="MOB" d="M275 237c0 5.175-18.673 15-24 15-7.35 0-11.386-12.272-14-17.5-9.923-19.847-6-45.765-6-68.5v-5l1-2 2-4 4-5 3-3 8-5 1-1h2l1-1h1l2-1h4l1 1 2 7c-4.356 0-1 9.476-1 11-2.434 0-3.962 3-1 3v5c-1.735 0-1 6.51-1 8v6c0 7.138 2 14.984 2 23 0 3.135.233 16 4 16 0 1.251 4.19 8 5 8 0 3.744.256 4 4 4 1.577 0 2 1.762 2 3l-1 2-1 1Z"/><path fill="#99D2BD" id="OLF" d="M275 231c1.577 0 2 1.762 2 3 1.428 0 8.879-16.259 10-18.5 9.407-18.813 14-33.67 14-56.5v-2l-3-5.5c-.882-1.764-15.717-12.5-17-12.5 0 2.229 1.986 2.471 3 4.5l-1 4.5c6.057 0 2 8.541 2 11 2.881 0 10-.57 10 4 0 1.598 2.177 6.853 3 8.5 1.666 3.333-5.317 29.634-7 33-3.203 6.406-6.814 12.627-10 19l-6 7.5ZM204 141h1l-1-1v1ZM253 140l-1 1 1-1ZM206 141l1 1-1-1ZM250 141l-1 1 1-1ZM208 142l1 1-1-1ZM210 143l1 1-1-1ZM225 161h1c0-5.903-3-11.297-3-18-1.714 0-3.482 2-6 2 0 3.382-1.342 1-3 1l4 3c2.848 0 5 3.462 5 6l1 4 1 1v1ZM231 159h1l2-4c0-2.323 4-6.77 4-5l3-3-1-2c-2.124 0-4.436-1-6-1l-3 15Z"/><path fill="#9DEFD2" id="AOBmi" d="m194 158-9.5 4-13.5-3c0-1.999-3.048-11 2-11 3.534 0 7.347 5.077 11.5 3l8.5-4c5.031 0 1 9.53 1 11ZM262 158l9.5 4c3.472 1.736 10.091-3 13.5-3 0-2.459 4.057-11-2-11-3.265 0-6.814 4.843-10.5 3-2.785-1.392-6.216-4-9.5-4-4.356 0-1 9.476-1 11Z"/><path fill="#C7CBCA" id="onl" d="M218 149c2.848 0 5 3.462 5 6l-5-6ZM238 150l-4 5c0-2.323 4-6.77 4-5Z"/><path fill="#CACAC9" id="lotd" d="m178 163-9.5-1-4.5 3-2-2c0-4.202 6.279-4 9-4l13.5 3 9.5-4c3.044 0 4.513 3 1 3-1.598 0-6.853 2.177-8.5 3l-8.5-1ZM295 163l-2 2c-2.477 0-2.522-2.011-4.5-3l-9.5 1-8.5 1c-1.74-.87-7.849-3-9.5-3-2.962 0-1.434-3 1-3l9.5 4c3.472 1.736 10.091-3 13.5-3 2.881 0 10-.57 10 4Z"/><path fill="#C7CBCA" id="onl" d="m224 159 1 1-1-1ZM232 159l-1 2v-2h1Z"/><path fill="#95E4C8" id="AOBgr" d="m196 166-3 4c-3.007 0-15-2.675-15-7l8.5 1c1.647-.823 6.902-3 8.5-3l1 5Z"/><path fill="#C7CBCA" id="onl" d="M225 163h1v-2h-1v2Z"/><path fill="#99D2BD" id="OLF" d="M230 166h1v-5c-1.643 0-1 3.765-1 5Z"/><path fill="#95E4C8" id="AOBgr" d="M261 166c0 2.043.591 4 3 4 2.678 0 15-3.637 15-7l-8.5 1c-1.74-.87-7.849-3-9.5-3v5Z"/><path fill="#54BF94" id="AON" d="M190 220c0 1.294-3.609 7-5 7l-8.5-10c-3.939-1.969-5.491-10.482-7.5-14.5-2.612-5.224-11.292-22.417-8-29l3-8.5 4.5-3 9.5 1c0 4.325 11.993 7 15 7l4 5v2l-1 1v3l-7 1c0-1.37-4.457-1.586-5-.5-.004.008 6.148 22.297 7 24 3.185 6.369-6.933 14.5-1 14.5ZM266 219c0 1.251 4.19 8 5 8 4.337 0 9.633-10.766 11-13.5 4.804-9.608 8.275-19.55 13-29 2.826-5.651-2-14.394-2-19.5-2.477 0-2.522-2.011-4.5-3l-9.5 1c0 3.363-12.322 7-15 7l-4 4v6c1.835 0 4.235 2 7 2l4.5-1 1.5 2.5c0 1.173-6.022 17.044-7 19v13c.392.783 5.387 3.057 2.5 4.5l-2.5-1Z"/><path fill="#CAC8C7" id="lot" d="M185 227c0 3.041.303 4-3 4 0-1.825-5.829-6.158-7-8.5-4.142-8.285-14-23.744-14-33 0-2.594-5.278-26.5 1-26.5l2 2-3 8.5c-3.292 6.583 5.388 23.776 8 29 2.009 4.018 3.561 12.531 7.5 14.5l8.5 10Z"/><path fill="#99D2BD" id="OLF" d="M226 165h1l-1-2h-1l1 2Z"/><path fill="#CAC8C7" id="lot" d="M271 227c0 3.744.256 4 4 4l6-7.5c3.186-6.373 6.797-12.594 10-19 1.683-3.366 8.666-29.667 7-33-.823-1.647-3-6.902-3-8.5l-2 2c0 5.106 4.826 13.849 2 19.5-4.725 9.45-8.196 19.392-13 29-1.367 2.734-6.663 13.5-11 13.5Z"/><path fill="#C7CBCA" id="onl" d="M227 165v43.5c0 5.688 1.415 14.171-1 19l-1 15c-3.473 6.946-4.632 9.066-11.5 12.5-1.616.808-8.5-1.632-8.5-3 7.045 0 11.601-11.702 14-16.5 9.981-19.962 7-46.526 7-70.5h1Z"/><path fill="#99D2BD" id="OLF" d="m193 170 4 5-1-9-3 4Z"/><path fill="#C7CBCA" id="onl" d="M231 166c0 22.735-3.923 48.653 6 68.5 2.614 5.228 6.65 17.5 14 17.5 0 5.885-14.312 1.875-17-3.5-6.911-13.821-5-44.999-5-62.5v-15.5c0-1.19-.614-4.5 1-4.5h1Z"/><path fill="#99D2BD" id="OLF" d="m264 170-4 4c0-1.49-.735-8 1-8 0 2.043.591 4 3 4ZM197 177l-1 1 1-1ZM267 182c0 5.067-4 10.264-4 15 0 1.321.684 6-1 6 0-8.016-2-15.862-2-23 1.835 0 4.235 2 7 2Z"/><path fill="#CBCBC7" id="aco" d="m191 219-1 1c-5.933 0 4.185-8.131 1-14.5-.852-1.703-7.004-23.992-7-24 .543-1.086 5-.87 5 .5l4 13.5c.619 1.238-1.144 5.5 1 5.5v11.5l-3 6.5Z"/><path fill="#99D2BD" id="OLF" d="m189 182 4 13.5c.619 1.238-1.144 5.5 1 5.5 0-6.881 2-13.55 2-20l-7 1Z"/><path fill="#CBCBC7" id="aco" d="M262 203c0 3.135.233 16 4 16l2.5 1c2.887-1.443-2.108-3.717-2.5-4.5v-13c.978-1.956 7-17.827 7-19l-1.5-2.5-4.5 1c0 5.067-4 10.264-4 15 0 1.321.684 6-1 6Z"/><path fill="#54BF94" id="AON" d="m191 219-1 1 1-1Z"/><path fill="#99D2BD" id="OLF" d="m276 236-1 1 1-1Z"/></svg>