<svg xmlns="http://www.w3.org/2000/svg" viewBox="0 0 456 320"><path fill="#1E9C59" id="MOs1" d="M137 73v6c3.694 0 9.187-5.343 12.5-7 9.168-4.584 40.705-17.148 51-12h4c3.462 1.73 12.5 7.536 12.5 11h1l3-2c0-7.93-10.156-11.328-15.5-14-14.85-7.425-36.581 1.79-49 8-2.528 1.264-19.5 7.667-19.5 10ZM319 79h1v-6c-2.065 0-14.623-8.561-17.5-10-11.417-5.708-38.7-14.65-52-8-5.079 2.54-15.5 6.573-15.5 14l4 2c0-6.825 14.237-9.369 17.5-11 9.306-4.653 40.559 6.78 49 11l13.5 8Z"/><path fill="#1E9D58" id="MOs2/3" d="M137 80c0 1.639 2 2.455 2 3.5h-2c0 .793 2 8.364 2 12.5l10.5-7c9.68-4.84 30.791-19 41-19 4.317 0 20.5.448 20.5 6h1l5-5c0-3.464-9.038-9.27-12.5-11h-4c-10.295-5.148-41.832 7.416-51 12-3.313 1.657-8.806 7-12.5 7v1ZM319 79c0 6.333-2 10.244-2 17l-10.5-7c-10.696-5.348-29.089-19-41-19-4.33 0-20.5.656-20.5 6l-6-4v-1c0-6.825 14.237-9.369 17.5-11 9.306-4.653 40.559 6.78 49 11l13.5 8Z"/><path fill="#3EA665" id="ACAd1" d="M222 95h12c0-4.475-.398-23 5-23v-1l-4-2c-3.251 0-4.633 10-6.5 10-3.226 0-3.58-10-7.5-10l-3 2 5 11.5-1 12.5Z"/><path fill="#1F9D58" id="MOs5" d="M139 97c.772 0 0 4.846 0 5.5l2 3c0 5.376-1 10.136-1 15.5l7.5-7c11.101-5.55 21.98-11.49 33-17 1.77-.885 13.5-4.795 13.5-1h1c0-7.956 16-13.997 16-20 0-5.552-16.183-6-20.5-6-10.209 0-31.32 14.16-41 19L139 96v1ZM317 97v24c-1.718 0-11.177-9.338-14.5-11-13.036-6.518-26.002-15-40.5-15-2.673 0-12.119-18-17-18v-1c0-5.344 16.17-6 20.5-6 11.911 0 30.304 13.652 41 19l10.5 7v1Z"/><path fill="#40A565" id="ACAd2/3" d="M217 95h5l1-12.5-5-11.5h-1l-5 5 3 5.5 1 13.5h1ZM234 95h6c0-3.348.256-18 5-18v-1l-6-4c-5.398 0-5 18.525-5 23Z"/><path fill="#1E9D5A" id="MOp1" d="m96 171-4 1c-1.993 0-1.35-5.2-2-6.5-1.736-3.473-5.113-25.774-3-30 1.221-2.442.82-5.64 2-8 6.491-12.982 20.272-37.886 33.5-44.5 4.716-2.358 9.001-10 14.5-10v7c-3.65 0-20.144 13.789-22 17.5l-6 6c-2.636 5.273-7.328 9.656-10 15l-6 14c-4.419 8.837 3 29.733 3 37.5v1ZM360 171l5 1c0-7.345 8.12-30.26 4-38.5l-4-12-10-15c-2.555-5.11-9.489-14.994-14.5-17.5-5.728-2.864-14.049-16-20.5-16v6l18.5 14c4.785 2.392 20.76 29.019 23.5 34.5 3.042 6.084 3.047 28.906 0 35-.652 1.303-.219 7.5-2 7.5v1Z"/><path fill="#3EA566" id="ACAd5" d="M195 96c0 1.548 4 2.767 4 6l10.5-5h4l2.5-2-1-13.5-3-5.5h-1c0 6.003-16 12.044-16 20ZM262 96c-1.901 0-5 4.332-5 6-5.685 0-10.486-6-17-6v-1c0-3.348.256-18 5-18 4.881 0 14.327 18 17 18v1Z"/><path fill="#1F9C58" id="MOp2/3" d="M348 165c3.685 0 7.749 5 12 5 1.781 0 1.348-6.197 2-7.5 3.047-6.094 3.042-28.916 0-35-2.74-5.481-18.715-32.108-23.5-34.5L320 79h-1c0 6.333-2 10.244-2 17v1c6.792 0 9.702 9.601 14.5 12 2.662 1.331 6.016 6.532 7.5 9.5l6 9c5.768 11.535 3 24.571 3 37.5ZM109 165c-4.408 0-8.076 5-13 5 0-7.767-7.419-28.663-3-37.5l6-14c2.672-5.344 7.364-9.727 10-15l6-6c1.856-3.711 18.35-17.5 22-17.5 0 1.639 2 2.455 2 3.5h-2c0 .793 2 8.364 2 12.5v1c-4.712 0-11.109 8.609-14.5 12-7.013 7.013-23.352 33.796-17.5 45.5 1.179 2.359 2 7.918 2 10.5Z"/><path fill="#1D9C5A" id="MOs6a" d="M169 133h1v-1l1-2c0-1.238.423-3 2-3 0-3.291 5.683-4 8-4 0-1.647 1.268-7 3-7l1-1c0-6.359 9-14.018 9-19 0-3.795-11.73.115-13.5 1-11.02 5.51-21.899 11.45-33 17l-7.5 7-1 2c0 3.687-2.118 15.736-4 19.5-.468.936.773 5.5 2 5.5 5.963 0 19.171-15 32-15Z"/><path fill="#2FA750" id="PL1" d="M233 133h1V95h-12c0 12.744 1 25.85 1 38h10Z"/><path fill="#1D9C5A" id="MOs6a" d="M288 133c13.174 0 25.175 16 33 16 0-2.539-.334-16.168-1-17.5-1.273-2.547-3-5.497-3-8.5v-2c-1.718 0-11.177-9.338-14.5-11-13.036-6.518-26.002-15-40.5-15v1c0 4.586 10 13.525 10 20 1.801 0 4 5.615 4 7 2.591 0 7 1.238 7 4h1l1 1v1l2 3v1h1Z"/><path fill="#2EA84F" id="PL5" d="M204 133h14c0-11.999-1-25.357-1-38h-1l-2.5 2h-4l-10.5 5v1c1.175 0 2 5.704 2 7 0 8.298 3 15.004 3 23Z"/><path fill="#2FA74F" id="PL2/3" d="M219 133h4c0-12.15-1-25.256-1-38h-5c0 12.643 1 26.001 1 38h1ZM234 133h4c0-11.999 2-24.362 2-37v-1h-6v38Z"/><path fill="#3FA664" id="ACAd6a" d="M199 103c-5.912 0-9.329 12-14 12 0-6.359 9-14.018 9-19h1c0 1.548 4 2.767 4 6v1Z"/><path fill="#2EA84F" id="PL5" d="M238 133h14c0-9.588 5-20.44 5-30v-1c-5.685 0-10.486-6-17-6 0 12.638-2 25.001-2 37Z"/><path fill="#3FA664" id="ACAd6a" d="M257 103c6.722 0 9.386 13 15 13 0-6.475-10-15.414-10-20-1.901 0-5 4.332-5 6v1Z"/><path fill="#1E9C5A" id="MOp5" d="M131 152c-6.305 0-16.372 13-22 13 0-2.582-.821-8.141-2-10.5-5.852-11.704 10.487-38.487 17.5-45.5 3.391-3.391 9.788-12 14.5-12 .772 0 0 4.846 0 5.5l2 3c0 5.376-1 10.136-1 15.5l-1 2c-7.205 0-8 23.585-8 28v1ZM347 165h1c0-12.929 2.768-25.965-3-37.5l-6-9c-1.484-2.968-4.838-8.169-7.5-9.5-4.798-2.399-7.708-12-14.5-12v26c4.772 0 9 15.324 9 19.5 0 1.532.743 8.5-1 8.5v1c6.589 0 16.968 13 22 13Z"/><path fill="#2FA850" id="PL6a" d="M193 132c3.642 0 8.002 1 11 1 0-7.996-3-14.702-3-23 0-1.296-.825-7-2-7-5.912 0-9.329 12-14 12l-1 1c-1.732 0-3 5.353-3 7l1 2 1 1 1 1 9 5ZM263 132c-3.642 0-8.002 1-11 1 0-9.588 5-20.44 5-30 6.722 0 9.386 13 15 13 1.801 0 4 5.615 4 7l-2 2-1 2-10 5Z"/><path fill="#3FA664" id="ACAd6a" d="m185 115-1 1 1-1Z"/><path fill="#1F9B5A" id="MOp6a" d="m137 148-6 3c0-4.415.795-28 8-28 0 3.687-2.118 15.736-4 19.5-.468.936.773 5.5 2 5.5Z"/><path fill="#268E44" id="FRP6a" d="M173 127h4l2-1h3v-1l-1-2c-2.317 0-8 .709-8 4ZM277 126l6 1c0-2.762-4.409-4-7-4l-2 2v1h3Z"/><path fill="#1F9B5A" id="MOp6a" d="m321 149 4 2c1.743 0 1-6.968 1-8.5 0-4.176-4.228-19.5-9-19.5 0 3.003 1.727 5.953 3 8.5.666 1.332 1 14.961 1 17.5Z"/><path fill="#22885E" id="ORBm6a" d="M182 126h1l-1-1v1ZM273 127h1v-2l-1 2Z"/><path fill="#258F44" id="FRP6b" d="M177 127h2v-1l-2 1Z"/><path fill="#22895E" id="ORBvl6b" d="M179 127h2v-1h-2v1Z"/><path fill="#258F44" id="FRP6b" d="M181 127h1v-1h-1v1Z"/><path fill="#24875E" id="ORBm6b" d="M184 133h1l-1-6-1-1h-1v1l2 6Z"/><path fill="#258F44" id="FRP6b" d="M274 127h1v-1h-1v1Z"/><path fill="#22895E" id="ORBvl6b" d="M275 127h2v-1h-2v1Z"/><path fill="#258F44" id="FRP6b" d="M285 129v1c-1.714 0-3.482-2-6-2l-2-1v-1l6 1h1l1 1v1ZM171 130h1c0-2.461 3.378-2 5-2v-1h-4c-1.577 0-2 1.762-2 3Z"/><path fill="#248A5C" id="ORBl6b" d="m179 127-2 1v-1h2Z"/><path fill="#CAC7CC" id="fa" d="M184 133c0 4.454-.211 6-5 6-6.144 0-8-.391-8-7l1-2c0-2.461 3.378-2 5-2l2-1h3l2 6Z"/><path fill="#22885E" id="ORBm6a" d="M208 171v2l-1 2.5c-3.965 7.93-5.132-6.5-9-6.5v-2c2.291 0 .532-8.436 0-9.5-1.604-3.209-9.532-23.5-13-23.5v-1l-1-6 9 5c0 5.353 15 26.887 15 39ZM248 170v3l2.5 5c2.426 1.213 7.5-7.995 7.5-10 0-10.585 2.702-15.904 7-24.5.791-1.582 3.942-8.5 6-8.5v-2c0-1.041.986-5 2-5v-1l-10 5c0 3.257-8.089 17.679-10 21.5l-4 12c-.574 1.147 1.064 4.5-1 4.5Z"/><path fill="#24875E" id="ORBm6b" d="m274 127-1 1v-1h1Z"/><path fill="#CAC7CC" id="fa" d="M273 133c0 3.791-1.679 6 4 6 6.507 0 8-.194 8-7v-2c-1.714 0-3.482-2-6-2l-2-1h-3l-1 1v5Z"/><path fill="#248A5C" id="ORBl6b" d="m277 127 2 1-2-1Z"/><path fill="#268E44" id="FRP6a" d="m284 127 1 1-1-1Z"/><path fill="#24875E" id="ORBm6b" d="M271 133h2v-5c-1.014 0-2 3.959-2 5Z"/><path fill="#1E9C58" id="MOs6b" d="M285 132h2l-2-3v3ZM170 132h1l1-2h-1l-1 2Z"/><path fill="#248A5C" id="ORBl6b" d="m179 139 1 3c-8.444 0-10 1.73-10-9v-1h1c0 6.609 1.856 7 8 7Z"/><path fill="#58B362" id="ILA6a" d="M204 133c0 9.467 5 18.613 5 28.5 0 1.616.758 9.5-1 9.5 0-12.113-15-33.647-15-39 3.642 0 8.002 1 11 1ZM252 133c0 5.817-1.475 15.45-4 20.5-2.306 4.612 0 11.772 0 16.5 2.064 0 .426-3.353 1-4.5l4-12c1.911-3.821 10-18.243 10-21.5-3.642 0-8.002 1-11 1Z"/><path fill="#248A5C" id="ORBl6b" d="m277 139-1 3c7.81 0 11 1.424 11-9v-1h-2c0 6.806-1.493 7-8 7Z"/><path fill="#209666" id="AId6a" d="M144 163h1c0-1.528 4.54-8 6-8 0-1.747.253-2 2-2v-1l1-1 11-14.5 4-3.5c-12.829 0-26.037 15-32 15l-6 3v1c0 7.229 6.121 11 13 11Z"/><path fill="#24895D" id="ORBl6a" d="m151 155-3 7c6.509 0 12.007-6.254 17.5-9 2.849-1.425 12.307-3.846 16-2l3.5 2c0-4.349-4-6.918-4-11h-1c-8.444 0-10 1.73-10-9h-1l-4 3.5-11 14.5-1 1v1l-2 2Z"/><path fill="#22895E" id="ORBvl6b" d="M180 142h1c11.324 0 4 .199 4-8v-1h-1c0 4.454-.211 6-5 6l1 3Z"/><path fill="#59B262" id="ILA5" d="M211 179h2c0-2.71 4.47-7.44 6-10.5 2.935-5.871 0-27.407 0-35.5h-15c0 9.467 5 18.613 5 28.5 0 1.616.758 9.5-1 9.5v2c1.662 0 3 4.357 3 6Z"/><path fill="#59B362" id="ILA2/3" d="M213 179h6l4-8.5c1.748-3.496.231-8.461 2-12 2.03-4.059-2-19.62-2-25.5h-4c0 8.093 2.935 29.629 0 35.5-1.53 3.06-6 7.79-6 10.5Z"/><path fill="#59B263" id="ILA1" d="M229 179h8c0-3.292-3.44-11.38-5-14.5l1-31.5h-10c0 5.88 4.03 21.441 2 25.5-1.769 3.539-.252 8.504-2 12l-4 8.5h8c0-1.321-.684-6 1-6 0-6.362 1-6.362 1 0v6Z"/><path fill="#59B362" id="ILA2/3" d="M237 179h7c0-.32-6.303-11.106-7-12.5-2.836-5.673 1-27.087 1-33.5h-5l-1 31.5c1.56 3.12 5 11.208 5 14.5Z"/><path fill="#59B262" id="ILA5" d="M244 179h1c0-1.643 1.338-6 3-6v-3c0-4.728-2.306-11.888 0-16.5 2.525-5.05 4-14.683 4-20.5h-14c0 6.413-3.836 27.827-1 33.5.697 1.394 7 12.18 7 12.5Z"/><path fill="#22895E" id="ORBvl6b" d="m277 139-1 3c-8.991 0-5 1.219-5-7v-2h2c0 3.791-1.679 6 4 6Z"/><path fill="#24895D" id="ORBl6a" d="M271 153c5.455 0 11.404-4.048 17.5-1 6.2 3.1 13.202 10 20.5 10l-6-10c0-3.842-15-16.158-15-19h-1c0 10.424-3.19 9-11 9 0 3.572-5 6.988-5 11Z"/><path fill="#209666" id="AId6a" d="M311 163h1c7.05 0 13-3.265 13-11v-1l-4-2c-7.825 0-19.826-16-33-16 0 2.842 15 15.158 15 19 1.949 0 8 9.026 8 11Z"/><path fill="#238A5C" id="ORBvl6a" d="M186 154c1.833 0 7.881 5.263 9 7.5l3 5.5c2.291 0 .532-8.436 0-9.5-1.604-3.209-9.532-23.5-13-23.5 0 8.199 7.324 8-4 8 0 4.082 4 6.651 4 11l1 1ZM258 168h1c0-3.307 6.071-13 10-13l1-1 1-1c0-4.012 5-7.428 5-11-8.991 0-5 1.219-5-7-2.058 0-5.209 6.918-6 8.5-4.298 8.596-7 13.915-7 24.5Z"/><path fill="#1F9866" id="AIv6a" d="m154 151-1 1 1-1Z"/><path fill="#228A5D" id="ORBl5" d="M148 183h1l6.5-4c6.153-3.077 12.901-4.951 19-8 4.659-2.33 8.023 5 11.5 5 0-2.958 2.21-7.919 3-9.5 1.858-3.716-3-9.074-3-12.5l-1-1-3.5-2c-3.693-1.846-13.151.575-16 2-5.493 2.746-10.991 9-17.5 9l-1 1c0 2.902-4.664 7.172-3 10.5l4 9.5ZM307 183h1l4-9.5c2.052-4.104-3-7.534-3-10.5v-1c-7.298 0-14.3-6.9-20.5-10-6.096-3.048-12.045 1-17.5 1l-1 1-1 1-2 11.5 4 8.5c5.392 0 8.032-6.234 14.5-3 5.181 2.591 10.838 4.419 16 7l5.5 4Z"/><path fill="#209665" id="AId5" d="M117 192h1c0-3.709 26-21.687 26-29-6.879 0-13-3.771-13-11-6.305 0-16.372 13-22 13 0 9.664 8 21.778 8 27Z"/><path fill="#1F9866" id="AIv6a" d="M309 163h2c0-1.974-6.051-11-8-11l6 10v1Z"/><path fill="#209665" id="AId5" d="M347 165c0 4.383-4.651 26-8 26-3.449 0-18.662-16.825-20-19.5l-7-8.5c7.05 0 13-3.265 13-11 6.589 0 16.968 13 22 13Z"/><path fill="#1F9866" id="AIv6a" d="M153 153c-1.747 0-2 .253-2 2l2-2Z"/><path fill="#23885C" id="ORBvl5" d="M197 179h1c0-2.117-5.103-10 0-10v-2l-3-5.5c-1.119-2.237-7.167-7.5-9-7.5 0 3.426 4.858 8.784 3 12.5-.79 1.581-3 6.542-3 9.5l3 3h8ZM270 154l-1 1 1-1Z"/><path fill="#1F9866" id="AIv6a" d="M145 163h2l1-1 3-7c-1.46 0-6 6.472-6 8Z"/><path fill="#23885C" id="ORBvl5" d="M259 179h8l4-3v-1l-4-8.5 2-11.5c-3.929 0-10 9.693-10 13l2 5.5c-1.274 2.548-3 2.312-3 5.5h1Z"/><path fill="#1F9865" id="AIv5" d="m148 162-1 1 1-1ZM148 183c0 2.785-17.703 11-21 11-1.923 0-9 .156-9-2 0-3.709 26-21.687 26-29h3c0 2.902-4.664 7.172-3 10.5l4 9.5ZM339 191v1l-4.5 2c-7.268 3.634-14.868-4.434-20-7-1.426-.713-6.5-1.764-6.5-4l4-9.5c2.052-4.104-3-7.534-3-10.5h3l7 8.5c1.338 2.675 16.551 19.5 20 19.5Z"/><path fill="#209765" id="AId2/3" d="M106 197h1l10-5c0-5.222-8-17.336-8-27-4.408 0-8.076 5-13 5v1l10 26ZM349 197h1c0-5.934 10-18.365 10-26v-1c-4.251 0-8.315-5-12-5h-1c0 4.383-4.651 26-8 26v1l10 5Z"/><path fill="#23885E" id="ORBm5" d="M245 179h13c0-3.188 1.726-2.952 3-5.5l-2-5.5h-1c0 2.005-5.074 11.213-7.5 10l-2.5-5c-1.662 0-3 4.357-3 6ZM198 179h13c0-1.643-1.338-6-3-6l-1 2.5c-3.965 7.93-5.132-6.5-9-6.5-5.103 0 0 7.883 0 10Z"/><path fill="#209764" id="AId1" d="m106 197-3 2c-2.161 0-11-22.721-11-27l4-1 10 26Z"/><path fill="#238A5E" id="ORBl2/3" d="M149 183c0 2.741 2 2.268 2 5l10.5-5c4.833-2.416 12.768-3 18.5-3 0-1.684 4.679-1 6-1v-3c-3.477 0-6.841-7.33-11.5-5-6.099 3.049-12.847 4.923-19 8l-6.5 4ZM307 183c0 2.202-2 2.546-2 4-7.997 0-17.279-7-28-7-1.564 0-3.876-1-6-1v-4c5.392 0 8.032-6.234 14.5-3 5.181 2.591 10.838 4.419 16 7l5.5 4Z"/><path fill="#209764" id="AId1" d="m350 197 3 2c2.295 0 3.263-6.025 4-7.5 2.917-5.834 8-12.625 8-19.5l-5-1c0 7.635-10 20.066-10 26Z"/><path fill="#99D2BD" id="OLF" d="M227 179h2v-6h-1c-1.684 0-1 4.679-1 6Z"/><path fill="#248A5D" id="ORBvl2/3" d="M186 179h3l-3-3v3ZM267 179h4v-3l-4 3Z"/><path fill="#99D2BD" id="OLF" fill-rule="evenodd" d="M163 201c0 2.428-3.784 5.933-2 9.5 2.284 4.569 3.868 13.184 8.5 15.5 4.221 2.11 3.5-9.326 3.5-11 0-10.04.566-14-10-14m49 60 1 1c1.772 0 6-7.346 6-9-5.373 0-10.247 5.005-14-2.5l-2-5c1.169-2.337 4-3.673 4-6.5-1.65 0-9.044 11.272-12.5 13-9.415 4.708-27.92-8.661-22.5-19.5 1.526-3.053 3.088-5.794 6.5-7.5l4.5-3-3.5-3c-11.514-5.757-2.144-23.788 3.5-12.5l1 5c1.187 2.375 1 4.619 1 7.5 2.16 0 2-9.363 2-11.5 0-7.54 3.136-21.5 12-21.5 0-2.16-2-4.167-2-7h-11c-1.321 0-6-.684-6 1 0 1.725-20.155 17.809-22 21.5-4.378 8.757 7.364 20.728 11 28 3.264 6.528-5 14.464-5 15.5 6.554 0 21.347 7.924 27.5 11l16-1c2.365 1.182 4.5 3.115 4.5 6Z"/><path fill="#A3DAA3" id="DP" d="M229 193c4.946 0 11.465-2.517 16.5 0 .919.459 2.5-.765 2.5 1 4.173 0 7.65-8 10-8l1-7h-62c0 2.833 2 4.84 2 7 0 3.388 9 6.575 9 8l3.5-2c4.259-2.129 12.572 1 16.5 1 0-1.186 1-1.186 1 0Z"/><path fill="#99D2BD" id="OLF" d="M237 253c0 1.87 5.752 10 7 10 0-3.526 1.303-6.402 4.5-8l17 1c5.534-2.767 20.965-11 26.5-11l-5-7.5c-1.946-3.893 2-8.88 2-12.5-2.066 0-2.131 1.184-4.5 0-2.701-1.35-.958-22.521 2-24 7.407-3.704 11.206 5.088 8.5 10.5-1.616 3.232-4 6.644-4 10.5 5.93 0 8.855-16.791 6-22.5L277 180c-1.564 0-3.876-1-6-1h-12l-1 7c8.368 0 11 13.78 11 20.5 0 2.003.015 10.5 2 10.5 0-3.108.737-4.973 2-7.5l1-4c6.77-13.54 13.684 16.5-1 16.5 0 1.816 4.284 2.392 5.5 3 3.753 1.876 4.998 6.496 6.5 9.5 4.803 9.606-12.774 18.5-19.5 18.5-8.955 0-14.318-18-20.5-18l8 9.5c.826 1.653-.405 3.81-1 5-4.245 8.491-8.74 3.5-15 3.5Z"/><path fill="#6ACAB9" id="PIR" d="M162 246h1l1-1c0-1.036 8.264-8.972 5-15.5-3.636-7.272-15.378-19.243-11-28 1.845-3.691 22-19.775 22-21.5-5.732 0-13.667.584-18.5 3l-10.5 5c0 .117-18 9.737-18 12l-2 1-2 1-1 1c0 3.037-12.46 8-15 8l-1 6.5c2.685 5.371 8.195 15.5 16 15.5 12.976 0 22.751 14 31 14l3-1ZM295 246l2 1c7.267 0 16.15-9.825 22.5-13 1.546-.773 8.5-3.358 8.5 0l3.5-3c9.422-4.711 12.5-10.368 12.5-20-2.792 0-18-7.235-18-10h-1l-1-1-3.5-3-12-8c-1.158-.579-3.5.341-3.5-2-7.997 0-17.279-7-28-7l20 19.5c2.855 5.709-.07 22.5-6 22.5l-1 2-1 1c0 3.62-3.946 8.607-2 12.5l5 7.5h1l1 1h1Z"/><path fill="#219764" id="AIv2/3" d="m129 202-1 1c-5.668 0-21 6.879-21-6l10-5h1c0 2.156 7.077 2 9 2 3.297 0 21-8.215 21-11h1c0 2.741 2 2.268 2 5 0 .117-18 9.737-18 12l-2 1-2 1ZM325 201h1c3.898 0 23 11.783 23-4l-10-5-4.5 2c-7.268 3.634-14.868-4.434-20-7-1.426-.713-6.5-1.764-6.5-4h-1c0 2.202-2 2.546-2 4 0 2.341 2.342 1.421 3.5 2l12 8 3.5 3 1 1Z"/><path fill="#54BF94" id="AON" d="m208 238-1 1c-1.65 0-9.044 11.272-12.5 13-9.415 4.708-27.92-8.661-22.5-19.5 1.526-3.053 3.088-5.794 6.5-7.5l4.5-3c1.577 0 2-1.762 2-3 2.16 0 2-9.363 2-11.5 0-7.54 3.136-21.5 12-21.5 0 3.388 9 6.575 9 8 0 4.939 9 21.469 9 25v9c0 1.852-5.903 9-8 9l-1 1ZM239 227c0 1.822 3.711 8 6 8 6.182 0 11.545 18 20.5 18 6.726 0 24.303-8.894 19.5-18.5-1.502-3.004-2.747-7.624-6.5-9.5-1.216-.608-5.5-1.184-5.5-3-2.461 0-2-3.378-2-5-1.985 0-2-8.497-2-10.5 0-6.72-2.632-20.5-11-20.5-2.35 0-5.827 8-10 8 0 2.148-5.309 18.809-6.5 20-1.229 1.229.426 5-2.5 5v8Z"/><path fill="#61D09F" id="TTd" d="M217 219c2.579 0 5.997 3.752 9.5 2l2-3c1.193 0 3.273 4.863 7 3l3.5-2c2.926 0 1.271-3.771 2.5-5 1.191-1.191 6.5-17.852 6.5-20 0-1.765-1.581-.541-2.5-1-5.035-2.517-11.554 0-16.5 0 0 2.212-1 2.212-1 0-3.928 0-12.241-3.129-16.5-1l-3.5 2c0 4.939 9 21.469 9 25Z"/><path fill="#99D2BD" id="OLF" d="M228 193c0 2.212 1 2.212 1 0 0-1.186-1-1.186-1 0Z"/><path fill="#209864" id="AIv1" d="M128 203c0 3.037-12.46 8-15 8-3.719 0-10-8.709-10-12l3-2h1c0 12.879 15.332 6 21 6ZM326 201c0 2.765 15.208 10 18 10 3.881 0 9-8.685 9-12l-3-2h-1c0 15.783-19.102 4-23 4ZM133 200l-2 1 2-1ZM324 200l1 1-1-1ZM131 201l-2 1 2-1Z"/><path fill="#A0EE9C" id="EPd" d="M163 201c0 2.428-3.784 5.933-2 9.5 2.284 4.569 3.868 13.184 8.5 15.5 4.221 2.11 3.5-9.326 3.5-11 0-10.04.566-14-10-14ZM290 224l-1 1c-2.066 0-2.131 1.184-4.5 0-2.701-1.35-.958-22.521 2-24 7.407-3.704 11.206 5.088 8.5 10.5-1.616 3.232-4 6.644-4 10.5l-1 2Z"/><path fill="#209864" id="AIv1" d="m129 202-1 1 1-1Z"/><path fill="#CBCBC7" id="aco" d="M185 219c0 1.238-.423 3-2 3l-3.5-3c-11.514-5.757-2.144-23.788 3.5-12.5l1 5c1.187 2.375 1 4.619 1 7.5ZM271 217c0 1.622-.461 5 2 5 14.684 0 7.77-30.04 1-16.5l-1 4c-1.263 2.527-2 4.392-2 7.5Z"/><path fill="#99D2BD" id="OLF" d="M239 227c-2.029 0-1.881-1.191-3.5-2-2.518-1.259-5.041 2-7 2l-7-2-4.5 3v-9c2.579 0 5.997 3.752 9.5 2l2-3c1.193 0 3.273 4.863 7 3l3.5-2v8ZM291 222l-1 2 1-2ZM290 224l-1 1 1-1Z"/><path fill="#62CF9E" id="TTv" d="m220 252-1 1c-5.373 0-10.247 5.005-14-2.5l-2-5c1.169-2.337 4-3.673 4-6.5l1-1 1-1c2.097 0 8-7.148 8-9l4.5-3 7 2c1.959 0 4.482-3.259 7-2 1.619.809 1.471 2 3.5 2 0 1.822 3.711 8 6 8l8 9.5c.826 1.653-.405 3.81-1 5-4.245 8.491-8.74 3.5-15 3.5l-6-8.5c-.325-.65-1.98-6.5-2.5-6.5l-7.5 13-1 1Z"/><path fill="#CAC8C7" id="lot" d="M159 247c0 2.711-2 4.969-2 6-4.262 0-22.152-13.326-27.5-16l-1.5-4c12.976 0 22.751 14 31 14ZM297 251l2 2c3.203 0 29-17.119 29-19 0-3.358-6.954-.773-8.5 0-6.35 3.175-15.233 13-22.5 13v4Z"/><path fill="#99D2BD" id="OLF" d="m209 237-1 1 1-1ZM208 238l-1 1 1-1ZM164 245l-1 1 1-1Z"/><path fill="#7FCCF7" id="OT" d="m212 263-1 1c0 4.056-8.332 2.916-10.5 4-4.166 2.083-28.002-6.501-33-9l-7.5-6c0-2.765 2-5.165 2-7h1l1-1c6.554 0 21.347 7.924 27.5 11l16-1c2.365 1.182 4.5 3.115 4.5 6v2ZM244 263l1 1c0 3.729 9.328 2.914 11.5 4 4.043 2.021 27.068-6.534 32-9l7.5-6 1-2v-3l-2-2h-1l-1-1h-1c-5.535 0-20.966 8.233-26.5 11l-17-1c-3.197 1.598-4.5 4.474-4.5 8Z"/><path fill="#99D2BD" id="OLF" d="m293 245 1 1-1-1ZM157 253h3c0-2.765 2-5.165 2-7l-3 1c0 2.711-2 4.969-2 6ZM297 247v1l-2-2 2 1ZM221 251l-1 1 1-1ZM296 253h3l-2-2-1 2ZM220 252l-1 1 1-1Z"/><path fill="#97D6F9" id="STR" d="m213 262-1 1v-2l1 1ZM212 263l-1 1 1-1ZM244 263l1 1-1-1Z"/></svg>