<svg xmlns="http://www.w3.org/2000/svg" viewBox="0 0 456 320"><path fill="#9AD1BD" id="MOB" fill-rule="evenodd" d="M176 209c0 2.262-1.198 1.105 0 3.5l1 4c3.411 6.821 7.282-7.5-1-7.5m12-8c0 3.746 2.091 0 0 0m-27 8c0 9.32 19.739 39 31 39 28.21 0 31-40.873 31-64 0-7.023 1.999-18.502-1-24.5v-25l-3-11-4-6.5-2.5-3-5.5-3h-1c-1.048 0-3 .473-3-1-11.727 0-22.956-2.272-33.5 3l-5 4c-3.578 1.789-7.642 4.784-9.5 8.5-1.82 3.64-6 5.083-6 9.5l-1 1v1l-1 1v3l-1 2v4c0 1.321.684 6-1 6v2c1.579 0 1 2.855 1 4v4l1 2v4l1 2v1l1 2v2l1 2v1l1 2v2l2 4v2l1 2v1l1 2v1l1 2v1l1 1v2l2 4v1l1 1v1l1 1m30-71 2.5-2c1.817-.908 1.963 3.573 1.5 4.5l-3 4.5c1.263 0 1.57 5.36 1 6.5-1.78 3.56-5.709 11.396-11.5 8.5-12.322-6.161-11.5-11.687-11.5-24-3.228 0 .304-5.402 1.5-6 3.469-1.734 2.939 4 4.5 4 0-12.022 15-7.999 15 4ZM278 209l-3 4.5c-.658 1.315.18 6.66 2.5 5.5 3.298-1.649 5.828-10 .5-10m-11-8c0 3.746 2.091 0 0 0m-3 47h1l1-1c10.581 0 29-28.176 29-37l1-1 1-2v-2l1-1v-1l1-1v-2l1-1v-1l1-1v-2l1-2 1-2v-2l1-2v-1l1-2v-2l1-1v-2l1-1v-3l1-1v-2l1-1v-4l1-2v-3l1-2v-14c-1.473 0-1-1.952-1-3v-2l-1-1c0-10.596-13.613-22.557-22.5-27l-12-4c-5.359-2.679-16.245 1-21.5 1l-2 1h-2l-4 2-4 4-4 7.5c-1.808 3.617-1.187 8.373-3 12v30c0 24.706-3.868 81.5 30 81.5m2-109-3.5-3c-4.607 0 1.5 8.473 1.5 9 0 6.246 2.258 19.121 12.5 14 2.143-1.071 5.081-1.662 6.5-4.5 3.252-6.504 4-11.77 4-18.5 0-7.355-6-7.399-6-4-.974 0-2.937-4.219-4.5-5-8.692-4.346-10.5 7.973-10.5 12Z"/><path fill="#99D2BD" id="OLF" d="M203 110c1.048 0 3-.473 3 1-1.048 0-3 .473-3-1ZM253 110l-2 1 2-1ZM215 117l3 1c0-3.411-8.397-7-11-7l5.5 3 2.5 3ZM249 111c-1.465 0-4-.109-4 2l4-2ZM240 117h1l4-4c-1.562 0-5 2.189-5 4Z"/><path fill="#C7CBCA" id="onl" d="M227 209c0 11.122 2.045 41.41-2 49.5-1.287 2.575-3.615 2.557-5.5 3.5-8.636 4.318-10.834-5.917-17-9-1.588-.794-10.5-3.421-10.5-5 28.21 0 31-40.873 31-64 0-7.023 1.999-18.502-1-24.5v-25l-3-11-4-6.5 3 1c0 .264 6.312 16.123 7 17.5 1.798 3.596 2 27.441 2 33.5 0 1.908-.788 13 1 13v20c-1.714 0-1 5.594-1 7Z"/><path fill="#99D2BD" id="OLF" d="m240 117-1 1 1-1Z"/><path fill="#C7CBCA" id="onl" d="M238 119c-5.194 0-5.224 22.947-7 26.5-3.318 6.637-2 17.61-2 25.5 0 18.945 1 38.713 1 57 0 8.169-2.491 22.517 1 29.5 1.49 2.981 2.901 3.201 5.5 4.5 9.482 4.741 9.977-5.488 17-9 1.79-.895 10.5-2.59 10.5-5-33.868 0-30-56.794-30-81.5v-30c1.813-3.627 1.192-8.383 3-12l4-7.5h-1l-1 1-1 1Z"/><path fill="#99D2BD" id="OLF" d="m239 118-1 1 1-1Z"/><path fill="#9DEFD2" id="AOBmi" d="M176 134c0 12.546 15 13.937 15 4 0-11.999-15-16.022-15-4ZM281 132c-.974 0-2.937-4.219-4.5-5-8.692-4.346-10.5 7.973-10.5 12 0 12.001 15 3.751 15-7Z"/><path fill="#CACAC9" id="lotd" d="m191 138 2.5-2c1.817-.908 1.963 3.573 1.5 4.5l-3 4.5c-3.783 0-5.635 7.433-12.5 4-3.881-1.941-6.383-13-9.5-13-3.228 0 .304-5.402 1.5-6 3.469-1.734 2.939 4 4.5 4 0 12.546 15 13.937 15 4ZM266 139l-3.5-3c-4.607 0 1.5 8.473 1.5 9 3.892 0 5.87 7.315 12.5 4 4.971-2.486 6.021-13 10.5-13 0-7.355-6-7.399-6-4 0 10.751-15 19.001-15 7Z"/><path fill="#99D2BD" id="OLF" d="m149 135-1 1 1-1Z"/><path fill="#95E4C8" id="AOBgr" d="M170 136c3.117 0 5.619 11.059 9.5 13 6.865 3.433 8.717-4 12.5-4 1.263 0 1.57 5.36 1 6.5-1.78 3.56-5.709 11.396-11.5 8.5-12.322-6.161-11.5-11.687-11.5-24ZM287 136c-4.479 0-5.529 10.514-10.5 13-6.63 3.315-8.608-4-12.5-4 0 6.246 2.258 19.121 12.5 14 2.143-1.071 5.081-1.662 6.5-4.5 3.252-6.504 4-11.77 4-18.5Z"/><path fill="#99D2BD" id="OLF" d="m148 137-1 1 1-1ZM309 140l1 1-1-1ZM147 141l-1 2 1-2ZM310 143c1.473 0 1 1.952 1 3-1.473 0-1-1.952-1-3ZM146 147c-1.684 0-1 4.679-1 6 1.684 0 1-4.679 1-6ZM145 155c1.579 0 1 2.855 1 4-1.579 0-1-2.855-1-4ZM311 160l-1 2 1-2ZM146 163l1 2-1-2ZM310 165l-1 2 1-2ZM147 169l1 2-1-2ZM227 169c1.788 0 1 11.092 1 13-1.788 0-1-11.092-1-13ZM309 171l-1 1 1-1ZM148 172l1 2-1-2ZM308 174l-1 1 1-1ZM149 176l1 2-1-2ZM307 178l-1 1 1-1ZM150 179l1 2-1-2ZM306 181l-1 1 1-1ZM151 183l2 4-2-4ZM305 184l-1 2 1-2ZM304 187l-1 2 1-2ZM153 189l1 2-1-2ZM303 191l-1 2 1-2ZM154 192l1 2-1-2ZM302 193l-1 2 1-2ZM155 195l1 2-1-2ZM301 197l-1 1 1-1ZM156 198l1 1-1-1ZM300 199l-1 1 1-1ZM157 201l2 4-2-4Z"/><path fill="#CBCBC7" id="aco" d="M188 201c0 3.746 2.091 0 0 0ZM267 201c0 3.746 2.091 0 0 0Z"/><path fill="#99D2BD" id="OLF" d="M228 202c-1.714 0-1 5.594-1 7 1.714 0 1-5.594 1-7ZM299 202l-1 1 1-1ZM298 204l-1 1 1-1ZM159 206l1 1-1-1ZM297 207l-1 2 1-2ZM160 208l1 1-1-1Z"/><path fill="#CAC8C7" id="lot" d="M176 209c0 2.262-1.198 1.105 0 3.5l1 4c3.411 6.821 7.282-7.5-1-7.5ZM278 209l-3 4.5c-.658 1.315.18 6.66 2.5 5.5 3.298-1.649 5.828-10 .5-10Z"/><path fill="#99D2BD" id="OLF" d="m296 209-1 1 1-1Z"/><path fill="#C7CBCA" id="onl" d="m266 247-1 1 1-1Z"/></svg>