<svg xmlns="http://www.w3.org/2000/svg" viewBox="0 0 456 320"><path fill="#1E9D5A" id="MOp1" d="M194 33c-12.74 0-24.531 6-37 6l1-6 5.5-2c2.219-1.11 27.529-3 31.5-3l-1 5Z"/><path fill="#1E9C59" id="MOs1" d="M222 47h1l4-2c0-2.859-2.849-3.197-4-5.5-4.998-9.995-17.865-11.5-28-11.5l-1 5c8.691 0 28 2.126 28 14ZM229 45l5 2c0-10.516 19.064-14 28-14v-5c-11.064 0-23.442 1.385-29 12.5-.595 1.19-4 2.317-4 4.5Z"/><path fill="#1E9D5A" id="MOp1" d="m298 33 1 6c-12.202 0-23.516-6-36-6h-1v-5c4.623 0 27.395 1.448 30.5 3l5.5 2Z"/><path fill="#187F60" id="SSp-ll1" d="M142 43h1l14-4 1-6c-4.73 0-8.404 3-13 3l-4 2 1 5Z"/><path fill="#1F9C58" id="MOp2/3" d="M155 55v6c5.895 0 26.028-16 36-16h1l2-12c-12.74 0-24.531 6-37 6 0 6.647-2 10.207-2 16Z"/><path fill="#1E9D58" id="MOs2/3" d="M222 47c0 1.428-4.822 4-6 4l-2-2.5c-4.411-8.821-15.116-3.5-22-3.5l2-12c8.691 0 28 2.126 28 14ZM240 51h1c0-11.847 19.188-6 24-6 0-3.956-2-7.497-2-12h-1c-8.936 0-28 3.484-28 14l6 4Z"/><path fill="#1F9C58" id="MOp2/3" d="M302 56c-1.347 0-1 4.47-1 5-4.986 0-26.31-16-36-16 0-3.956-2-7.497-2-12 12.484 0 23.798 6 36 6 0 5.151 3 10.963 3 17Z"/><path fill="#187F60" id="SSp-ll1" d="m299 39 15 4 1-6c-5.962 0-10.967-4-17-4l1 6Z"/><path fill="#197E64" id="SSp-ul1" d="M352 55c-2.266 0 .454 4-3 4-7.362 0-25.941-16-35-16l1-6c5.132 0 23.091 10.295 28.5 13 1.512.756 8.5 3.037 8.5 5ZM106 60h1c3.35 0 15.691-9.095 19.5-11 3.155-1.578 6.763-2.382 10-4 1.114-.557 5.5-.41 5.5-2l-1-5c-9.958 0-30.837 16-36 16l1 6Z"/><path fill="#187F64" id="SSp-ll2/3" d="M146 57h1c3.091 0 5.478-2 8-2 0-5.793 2-9.353 2-16l-14 4c0 5.04 3 8.699 3 14ZM302 56l8 1c0-5.056 4-9.328 4-14l-15-4c0 5.151 3 10.963 3 17Z"/><path fill="#197F61" id="SSp-ul2/3" d="M112 73h1c0-3.197 23.045-11.273 26.5-13 1.265-.632 6.5-1.278 6.5-3 0-5.301-3-8.96-3-14h-1c0 1.59-4.386 1.443-5.5 2-3.237 1.618-6.845 2.422-10 4-3.809 1.905-16.15 11-19.5 11 0 4.622 5 8.58 5 13Z"/><path fill="#1F9D58" id="MOs5" d="M188 61c2.064 0 16-5.524 16 1l12-11-2-2.5c-4.411-8.821-15.116-3.5-22-3.5h-1c0 5.977-3 10.12-3 16ZM252 62h1c0-6.486 13.88-1 16-1 0-5.245-4-10.301-4-16-4.812 0-24-5.847-24 6l11 11Z"/><path fill="#197F61" id="SSp-ul2/3" d="m350 61-6 11c-6.076 0-23.905-14-34-14v-1c0-5.056 4-9.328 4-14 9.059 0 27.638 16 35 16l1 2Z"/><path fill="#1E9C5A" id="MOp5" d="M187 62c-6.553 0-24.005 16-33 16 0-2.64.124-16 0-16l1-1c5.895 0 26.028-16 36-16 0 5.977-3 10.12-3 16l-1 1Z"/><path fill="#3EA665" id="ACAd1" d="M223 71h10c0-7.895 1-16.783 1-24l-5-2c0 3.746-.8 0-2 0l-4 2v24Z"/><path fill="#1E9C5A" id="MOp5" d="M302 62c0 6.344 1 9.26 1 16-10.014 0-26.479-16-34-16v-1c0-5.245-4-10.301-4-16 9.69 0 31.014 16 36 16l1 1Z"/><path fill="#40A565" id="ACAd2/3" d="m223 71-5 2c0-7.378-2-15.016-2-22 1.178 0 6-2.572 6-4h1v24ZM233 71l6 2c0-7.293 1-15.359 1-22l-6-4c0 7.217-1 16.105-1 24Z"/><path fill="#3EA566" id="ACAd5" d="M218 73c-4.597 0-8.221 6-12 6 0-1.78-1.013-16-2-16v-1l12-11c0 6.984 2 14.622 2 22ZM250 79h1c0-5.79 1-11.78 1-17l-11-11h-1c0 6.641-1 14.707-1 22 1.9 0 11 4.127 11 6Z"/><path fill="#1B8062" id="SSp-un1" d="m93 62 2 5c1.694 0 11-5.323 11-7l-1-6-12 8Z"/><path fill="#1C7F64" id="SSp-ll4" d="M148 65h1l5-3 1-1v-6c-2.522 0-4.909 2-8 2l1 8Z"/><path fill="#1B8062" id="SSp-un1" d="m364 62-3 5c-4.206 0-6.794-6-11-6l-1-2c3.454 0 .734-4 3-4 4.24 0 8.153 7 12 7Z"/><path fill="#1C7F64" id="SSp-ll4" d="m302 62 6 3c0-.969 1.147-7 2-7v-1l-8-1c-1.347 0-1 4.47-1 5l1 1Z"/><path fill="#1A7F63" id="SSp-ul4" d="M115 81h1c0-2.13 6.044-3.272 7.5-4 5.476-2.738 18.979-12 24.5-12l-1-8h-1c0 1.722-5.235 2.368-6.5 3-3.455 1.727-26.5 9.803-26.5 13 0 4.261 2 3.739 2 8ZM344 73l-3 7c-9.606 0-23.274-15-33-15 0-.969 1.147-7 2-7 10.095 0 27.924 14 34 14v1Z"/><path fill="#1D9C5A" id="MOs6a" d="M185 83h4c0-1.58 2.855-1 4-1 0-2.89 8.249-19 11-19v-1c0-6.524-13.936-1-16-1l-1 1c0 6.82-2 13.411-2 21ZM264 82l7 1V67.5l-2-5.5v-1c-2.12 0-16-5.486-16 1 0 4.843 10 12.795 10 20h1Z"/><path fill="#1C7F63" id="SSp-un2/3" d="M101 79h1c0-1.315 8.583-6 10-6 0-4.42-5-8.378-5-13h-1c0 1.677-9.306 7-11 7v1c0 3.51 6 7.015 6 11ZM355 79h1c0-4.012 5-7.428 5-11v-1c-4.206 0-6.794-6-11-6l-6 11v1c1.452 0 11 4.937 11 6Z"/><path fill="#197E63" id="SSp-n1" d="m56 120-1 1-5-2c0-11.072 19.197-36.697 28-45.5C81.136 70.364 88.722 62 93 62l2 5v1c-5.16 0-7.954 7.727-12.5 10-8.34 4.17-26.5 33.255-26.5 42Z"/><path fill="#197C63" id="SSp-ll5" d="M153 78h1c0-2.64.124-16 0-16l-5 3c0 4.798 3 8.478 3 13h1Z"/><path fill="#1F9B5A" id="MOp6a" d="M185 84c-8.862 0-22.945 13-32 13 0-5.653 1-10.184 1-15l-1-4h1c8.995 0 26.447-16 33-16 0 6.82-2 13.411-2 21v1Z"/><path fill="#3FA664" id="ACAd6a" d="m261 85-2 1-8-7c0-5.79 1-11.78 1-17h1c0 4.843 10 12.795 10 20v1c-1.747 0-2 .253-2 2Z"/><path fill="#1F9B5A" id="MOp6a" d="M271 84c9.018 0 23.312 13 32 13V78c-10.014 0-26.479-16-34-16l2 5.5V84Z"/><path fill="#197C63" id="SSp-ll5" d="M303 78h1l4-13-6-3c0 6.344 1 9.26 1 16Z"/><path fill="#197E63" id="SSp-n1" d="m406 119-5 2c0-8.482-19.859-39.68-28.5-44-4.601-2.3-6.522-9-11.5-9v-1l3-5c3.784 0 7.635 7.067 11.5 9 8.891 4.445 30.5 35.584 30.5 48Z"/><path fill="#3FA664" id="ACAd6a" d="M197 87h1c0-1.517 6.113-8 8-8 0-1.78-1.013-16-2-16-2.751 0-11 16.11-11 19 1.811 0 4 3.438 4 5Z"/><path fill="#187E62" id="SSp-ul5" d="M116 81c0 1.236 3.795 10 5 10 8.844 0 20.639-12 31-12v-1c0-4.522-3-8.202-3-13h-1c-5.521 0-19.024 9.262-24.5 12-1.456.728-7.5 1.87-7.5 4ZM335 92h1c0-3.636 5-7.85 5-11v-1c-9.606 0-23.274-15-33-15l-4 13v1c4.421 0 21.989 6.49 25 9.5l6 3.5Z"/><path fill="#1B7F64" id="SSp-n2/3" d="M68 116c-4.13 0-9.266 4-12 4 0-8.745 18.16-37.83 26.5-42 4.546-2.273 7.34-10 12.5-10 0 3.51 6 7.015 6 11-10.284 0-32 26.644-32 36l-1 1ZM388 116c4.545 0 9.639 5 13 5 0-8.482-19.859-39.68-28.5-44-4.601-2.3-6.522-9-11.5-9 0 3.572-5 6.988-5 11 10.101 0 32 27.944 32 37Z"/><path fill="#3FA566" id="ACAv2/3" d="m221 104-3 2V73l5-2c0 10.742-1 21.854-1 32l-1 1Z"/><path fill="#40A664" id="ACAv1" d="m229 97 5 5c0-10.047-1-20.446-1-31h-10c0 10.742-1 21.854-1 32l5-6c0-3.15 2-3.446 2 0Z"/><path fill="#3FA566" id="ACAv2/3" d="m235 104 3 1c0-10.248 1-21.193 1-32l-6-2c0 10.554 1 20.953 1 31l1 2Z"/><path fill="#197E61" id="SSp-un4" d="m115 81-10 5-3-7c0-1.315 8.583-6 10-6h1c0 4.261 2 3.739 2 8Z"/><path fill="#3EA666" id="ACAv5" d="M210 103c1.946 0 5.623 3 8 3V73c-4.597 0-8.221 6-12 6 0 2.947-.398 12.705 1 15.5 1.161 2.322 3 5.836 3 8.5ZM247 103c-.83 0-9 4.808-9 2 0-10.248 1-21.193 1-32 1.9 0 11 4.127 11 6 0 8.195-3 15.623-3 23v1Z"/><path fill="#197E61" id="SSp-un4" d="m341 81 10 5 4-7c0-1.063-9.548-6-11-6l-3 7v1Z"/><path fill="#1A7F64" id="SSp-ll6a" d="m152 79 2 3-1-4h-1v1ZM303 79h1v-1h-1v1Z"/><path fill="#1A8062" id="SSp-n4" d="M81 110c-5.143 0-8.648 5-12 5 0-9.356 21.716-36 32-36h1l3 7v1c-4.635 0-23 18.636-23 22l-1 1Z"/><path fill="#197D61" id="SSp-ul6a" d="M127 107h1c5.859 0 10.775-6 17-6l8-4c0-5.653 1-10.184 1-15l-2-3c-10.361 0-22.156 12-31 12v1c0 5.802 6 9.911 6 15Z"/><path fill="#40A564" id="ACAv6a" d="M209 103h1c0-2.664-1.839-6.178-3-8.5-1.398-2.795-1-12.553-1-15.5-1.887 0-8 6.483-8 8 0 5.586 9 8.59 9 13l2 3ZM249 101l-2 1c0-7.377 3-14.805 3-23h1l8 7v1c0 1.974-2 3.517-2 6-1.747 0-2 .253-2 2-1.747 0-2 .253-2 2-2.226 0-4 1.774-4 4Z"/><path fill="#197D61" id="SSp-ul6a" d="M303 97c8.782 0 17.111 10 26 10 0-5.429 6-9.473 6-15l-6-3.5c-3.011-3.01-20.579-9.5-25-9.5h-1v18Z"/><path fill="#1A8062" id="SSp-n4" d="M376 110c4.179 0 8.609 6 12 6 0-9.056-21.899-37-32-37h-1l-4 7v1c4.464 0 24 18.54 24 22l1 1Z"/><path fill="#197D62" id="SSp-un5" d="M115 94h2l4-2v-1c-1.205 0-5-8.764-5-10h-1l-10 5v1l4 7c.986 0 6-2.515 6 0ZM341 94c0-2.028 6-1.028 6 1l4-8v-1l-10-5c0 3.15-5 7.364-5 11l5 2Z"/><path fill="#1E9C58" id="MOs6b" d="M189 83h4v-1c-1.145 0-4-.58-4 1Z"/><path fill="#3FA466" id="ACAd6b" d="M196 87h1c0-1.562-2.189-5-4-5v1l3 4ZM263 83h1v-1h-1v1Z"/><path fill="#1E9C58" id="MOs6b" d="M271 84v1l-7-2v-1l7 1v1ZM185 84v1l4-2h-4v1Z"/><path fill="#CACCC7" id="cing" d="m207 100 2 3c-8.909 0-12.634-10.567-19.5-14-6.623-3.312-13.717 5-19.5 5l-1 1h-4l5.5-3c3.03-1.515 11.435-7 14.5-7l4-2h4l3 4c0 3.526 6.937 13 11 13Z"/><path fill="#3FA466" id="ACAd6b" d="M263 83c-1.747 0-2 .253-2 2l2-2Z"/><path fill="#CACCC7" id="cing" d="M247 102v1c9.08 0 12.632-10.566 19.5-14 7.346-3.673 15.986 6 22.5 6h2c0-2.454-2.947-1.447-4-2.5-2.628-2.628-12.415-7.5-16-7.5l-7-2h-1l-2 2-1 2-3 6c0 1.747-.253 2-2 2 0 1.747-.253 2-2 2l-4 4-2 1Z"/><path fill="#1D9D5A" id="MOp6b" d="M153 97v1c4.625 0 7.108-3 12-3l5.5-3c3.03-1.515 11.435-7 14.5-7v-1c-8.862 0-22.945 13-32 13ZM303 97v1c-4.25 0-7.226-3-12-3 0-2.454-2.947-1.447-4-2.5-2.628-2.628-12.415-7.5-16-7.5v-1c9.018 0 23.312 13 32 13Z"/><path fill="#3FA466" id="ACAd6b" d="M259 87h1l1-2-2 1v1Z"/><path fill="#197E62" id="SSp-n5" d="M97 105c-6.548 0-11.161 4-15 4 0-3.364 18.365-22 23-22l4 7v4l-2 2-2 1h-1l-1 1-1 1h-2l-1 1-2 1Z"/><path fill="#40A465" id="ACAv6b" d="M198 87c0 5.586 9 8.59 9 13-4.063 0-11-9.474-11-13h2ZM260 87l-3 6c0-2.483 2-4.026 2-6h1Z"/><path fill="#197E62" id="SSp-n5" d="M357 104c0-.84 4.267.383 5.5 1 3.528 1.764 8.346 4 12.5 4 0-3.46-19.536-22-24-22l-4 8 2 4 2 2h1l1 1 4 2Z"/><path fill="#C9C7C9" id="ccb" d="m365 158 2 7-5-8.5c-4.601-9.202-11.314-17.628-16-27-6.797-13.594-24.63-17.065-35.5-22.5-3.843-1.922-9.12-1.06-13-3l-13.5 1c0-10.466-23-4.908-23 0l-4 2c-1.238 0-3 .423-3 2l-2 1c-6.312 0-13.045 5-18 5h-1l-4 1c0-1.399-2-1.399-2 0l-4-1c-5.26 0-11.798-5-18-5l-3-1c0-3.602-29-18.176-29-4l-14.5-1c-5.736 2.868-13.282 2.141-19 5-6.767 3.384-13.157 7.579-20 11-6.332 3.166-18.546 21.593-21.5 27.5-.873 1.746-2.53 9.5-5 9.5v-3c1.473 0 1-1.952 1-3l1-1v-1l1-2 1-2 1-2 1-2c1.577 0 2-1.762 2-3 1.467 0 9-11.247 9-13l1-1 7-7c3.616 0 6.423-4.461 9.5-6 4.702-2.351 26.636-8.636 28.5-10.5 1.765-1.765 11-2.769 11-5.5h2l1-1c5.783 0 12.877-8.312 19.5-5 6.866 3.433 10.591 14 19.5 14h1c1.946 0 5.623 3 8 3l3-2c0 1.951 2.454.477 3.5 1 .671.336 10.5.916 10.5-1l3 1c0 2.808 8.17-2 9-2 9.08 0 12.632-10.566 19.5-14 7.346-3.673 15.986 6 22.5 6 0 2.076 7.932 3.216 9.5 4 10.985 5.493 22.962 8.481 34 14 8.216 4.108 18.424 16.349 22.5 24.5.887 1.774 3.776 10.5 6 10.5v1l2 4v2l1 1v1l1 1Z"/><path fill="#1A7F61" id="SSp-un6a" d="M126 108h1v-1c0-5.089-6-9.198-6-15l-4 2c0 2.412 9 9.129 9 14ZM329 108h1c0-5.347 7.916-13 11-13v-1l-5-2h-1c0 5.527-6 9.571-6 15v1Z"/><path fill="#1B7E63" id="SSp-m5" d="m115 94-6 4v-4c.986 0 6-2.515 6 0Z"/><path fill="#40A465" id="ACAv6b" d="M257 93c-1.747 0-2 .253-2 2 1.747 0 2-.253 2-2Z"/><path fill="#1B7E63" id="SSp-m5" d="m347 95 2 4-8-4v-1c0-2.028 6-1.028 6 1Z"/><path fill="#187D61" id="SSp-m6a" d="m79 139 15 8c0-3.324 7.885-18 11-18 0-2.787 12.296-16.398 15.5-18 1.216-.608 5.5-1.184 5.5-3 0-4.871-9-11.588-9-14h-2l-6 4-2 2-2 1c0 1.186-1 1.186-1 0l-1 1c2.029 0 .058 1-1 1h-2l-1 1-2 1c0 2.736-6.463 6.426-8 9.5-3.187 6.375-10 17.233-10 24.5Z"/><path fill="#C9C9CA" id="scwm" d="m170 94-1 1 1-1Z"/><path fill="#187D61" id="SSp-m6a" d="M362 147h1l14-8c0-7.904-6.576-18.651-10-25.5-1.374-2.747-10-7.675-10-9.5l-4-2-1-1h-1l-2-2-8-4c-3.084 0-11 7.653-11 13l3.5 2 11 9c4.307 2.153 17.5 23.583 17.5 28Z"/><path fill="#C9C9CA" id="scwm" d="M127 109h1c3.754 0 9.152-4.326 12.5-6 1.119-.559 4.5-.155 4.5-2 1.93 0 8-.84 8-3 4.625 0 7.108-3 12-3h2c0 2.731-9.235 3.735-11 5.5-1.864 1.864-23.798 8.149-28.5 10.5-3.077 1.539-5.884 6-9.5 6 0-4.23 9-4.863 9-8Z"/><path fill="#40A465" id="ACAv6b" d="M255 95c-1.747 0-2 .253-2 2 1.747 0 2-.253 2-2Z"/><path fill="#C9C9CA" id="scwm" d="M329 109c0 1.144 9.706 7.206 11.5 9 5.624 5.624 20.5 22.204 20.5 30-2.224 0-5.113-8.726-6-10.5-4.076-8.151-14.284-20.392-22.5-24.5-11.038-5.519-23.015-8.507-34-14-1.568-.784-9.5-1.924-9.5-4h2c4.774 0 7.75 3 12 3l4.5 3 9 2c2.855 1.428 8.413 6 11.5 6h1Z"/><path fill="#1C8064" id="SSp-ul6b" d="M153 98c0 2.16-6.07 3-8 3l8-4v1Z"/><path fill="#7ED04B" id="IG" d="M221 104c0 1.951 2.454.477 3.5 1 .671.336 10.5.916 10.5-1l-1-2-5-5c0 2.488-2 1.919-2 0l-5 6-1 1Z"/><path fill="#40A465" id="ACAv6b" d="M253 97c-2.226 0-4 1.774-4 4l4-4Z"/><path fill="#1C8064" id="SSp-ul6b" d="m329 108-1 1c-3.087 0-8.645-4.572-11.5-6l-9-2-4.5-3v-1c8.782 0 17.111 10 26 10v1Z"/><path fill="#AAA8A9" id="SEZ" d="M176 107c0-15.773 21.992 2 26 2 0-3.602-29-18.176-29-4l3 2ZM284 105l-4 2c0-13.285-13.698-2-19-2 0-4.908 23-10.466 23 0Z"/><path fill="#187D62" id="SSp-n6a" d="m349 99 2 2-2-2ZM107 100l-2 1 2-1ZM104 101h1c0 1.186-1 1.186-1 0Z"/><path fill="#1C8064" id="SSp-ul6b" d="M128 107v2c3.754 0 9.152-4.326 12.5-6 1.119-.559 4.5-.155 4.5-2-6.225 0-11.141 6-17 6Z"/><path fill="#A8AAAA" id="VL" d="m193 177-2 1c-1.473 0-1-1.952-1-3 0-8.074-2-16.976-2-26 0-14.065-1.199-19.898-7-31.5-.826-1.652-2.955-10.5-5-10.5 0-15.773 21.992 2 26 2l3 1c0 2.365-6.495 8.491-8 11.5-3.284 6.568-6 12.49-6 20.5v25l1 1v3c0 2.124 1 4.436 1 6ZM264 178h1l2-4 2-21c0-8.97-2.147-20.207 2-28.5 2.354-4.708 9-12.221 9-17.5 0-13.285-13.698-2-19-2 0 2.109-2.535 2-4 2 0 1.577-1.762 2-3 2l-2 1c0 4.33 14 19.798 14 31v3c0 8.017-1 16.609-1 24l-1 2v8Z"/><path fill="#187D62" id="SSp-n6a" d="m352 101 1 1-1-1ZM103 102c2.029 0 .058 1-1 1l1-1Z"/><path fill="#1B7E63" id="SSp-m5" d="m100 103-1 1 1-1ZM377 139h1c2.392 0 4.685-6 9-6v-1l-11-22-1-1c-4.154 0-8.972-2.236-12.5-4-1.233-.617-5.5-1.84-5.5-1 0 1.825 8.626 6.753 10 9.5 3.424 6.849 10 17.596 10 25.5ZM69 133c4.015 0 6.81 6 10 6 0-7.267 6.813-18.125 10-24.5 1.537-3.074 8-6.764 8-9.5-6.548 0-11.161 4-15 4l-1 1c0 4.572-12 16.293-12 22v1ZM99 104l-2 1 2-1Z"/><path fill="#98D5F9" id="CP" d="M139 231c-4.478 0-6.855 2.178-10.5 4H115l-7.5-4c-1.436-.718-4.069-6-6.5-6v-1l-2-2v-1l-1-1-1-3-2-4v-2l-1-1v-1c0-1.4-1.431-8-3-8v-1c0-8.125-4-15.391-4-24v-2c1.473 0 1-1.952 1-3v-1l1-2v-2l1-2c1.732 0 3-5.353 3-7 2.47 0 4.127-7.754 5-9.5 2.954-5.907 15.168-24.334 21.5-27.5 6.843-3.421 13.233-7.616 20-11 5.718-2.859 13.264-2.132 19-5l14.5 1 3 2c2.045 0 4.174 8.848 5 10.5 5.801 11.602 7 17.435 7 31.5-1.105 0-2.1 8.8-4.5 10-2.384 1.192-7.044 1.588-8.5 4.5-2.512 5.024 0 11.45 0 16.5 0 10.697-2 20.621-2 31l-2 2-5 1-1 1h-1l-1 1-1 1c-2.244 0-11 5.253-11 8l-4 2-4 2-2 1-2 1ZM346 233c-1.424 0-5 .362-5 2-14.173 0-23.938-4.219-35.5-10-3.648-1.824-8.322-10-13.5-10-1.974 0-3.517-2-6-2l-3-3.5c-3.045-6.089 1.096-15.807-2-22-2.411-4.822 4.268-15.463 1-22-2.347-4.695-6.644-4.644-10-8l-3-4.5c0-8.97-2.147-20.207 2-28.5 2.354-4.708 9-12.221 9-17.5l4-2 13.5-1c3.88 1.94 9.157 1.078 13 3 10.87 5.435 28.703 8.906 35.5 22.5 4.686 9.372 11.399 17.798 16 27l5 8.5v2l1 3 1 1v4c0 6.951-2 12.608-2 19v1c-1.995 0-2 4.377-2 6v1c-1.353 0-2 4.643-2 6l-1 2v1l-1 1v2l-1 1v1l-1 1v2l-1 1-2 4-1 1v1l-1 1-1 1-1 1c-1.238 0-3 .423-3 2-1.238 0-3 .423-3 2Z"/><path fill="#AAA8A9" id="SEZ" d="m261 105-4 2c1.465 0 4 .109 4-2Z"/><path fill="#1A7D63" id="SSp-un6b" d="M127 109h1v-2h-1v2Z"/><path fill="#AAA8A9" id="SEZ" d="M257 107c-1.238 0-3 .423-3 2 1.238 0 3-.423 3-2Z"/><path fill="#188064" id="SSp-m6b" d="m110 125-5 4c0-2.787 12.296-16.398 15.5-18 1.216-.608 5.5-1.184 5.5-3h1v1c0 3.137-9 3.77-9 8-2.571 0-7 4.429-7 7l-1 1Z"/><path fill="#1A7D63" id="SSp-un6b" d="M328 109h1v-1l-1 1Z"/><path fill="#188064" id="SSp-m6b" d="m362 147-1 1c0-7.796-14.876-24.376-20.5-30-1.794-1.794-11.5-7.856-11.5-9v-1h1l3.5 2 11 9c4.307 2.153 17.5 23.583 17.5 28Z"/><path fill="#197E62" id="SSp-n5" d="m82 109-1 1 1-1Z"/><path fill="#1B7F62" id="SSp-m4" d="m64 128 5 4c0-5.707 12-17.428 12-22-5.143 0-8.648 5-12 5l-1 1c0 4.236-4 8.12-4 12Z"/><path fill="#90CBEC" id="LSc" d="M223 115c0 5.361-18.78 18.64-23.5 21-3.402 1.701-4.338 6-8.5 6 0-8.01 2.716-13.932 6-20.5 1.505-3.009 8-9.135 8-11.5 6.202 0 12.74 5 18 5ZM266 141l-1 1c-2.965 0-6.871-4.371-9-6.5-4.005-4.005-22-13.308-22-19.5v-1c4.955 0 11.688-5 18-5 0 4.33 14 19.798 14 31Z"/><path fill="#1B7F62" id="SSp-m4" d="m393 129-6 3-11-22c4.179 0 8.609 6 12 6 0 1.737 3.473 12 5 12v1Z"/><path fill="#90CAED" id="LSr" d="M263 169h1l1-1c0-7.391 1-15.983 1-24l-1-2c-2.965 0-6.871-4.371-9-6.5-4.005-4.005-22-13.308-22-19.5l-1-1-4 1c0 2.488-2 1.919-2 0l-4-1c0 5.361-18.78 18.64-23.5 21-3.402 1.701-4.338 6-8.5 6v25l1 1v1h1c3.138 0 5.662 2 8 2 0-4.171 4.79-24 9-24l1-1v-1l1-1 1-1 1-1c0-2.224 2.386-2.272 3-3.5l8.5-11.5 3-5 .5 2.5 4 6c2.048 4.096 10 8.618 10 12.5l2 2c4.938 0 10 21.135 10 26 2.709 0 4.646-2 8-2Z"/><path fill="#97D6F9" id="STR" d="M227 116c0 1.919 2 2.488 2 0 0-1.399-2-1.399-2 0ZM234 115v1l-1-1h1Z"/><path fill="#1A7E64" id="SSp-m2/3" d="m64 128-1 1c0-1.812-5.824-6-8-6v-2l1-1c2.734 0 7.87-4 12-4 0 4.236-4 8.12-4 12ZM401 123c-3.331 0-4.796 5-8 5-1.527 0-5-10.263-5-12 4.545 0 9.639 5 13 5v2Z"/><path fill="#C9C9CA" id="scwm" d="M118 117c-2.571 0-7 4.429-7 7l7-7Z"/><path fill="#1A7E62" id="SSs1" d="M40 177h5c0-11.061-1.476-28.548 3-37.5l7-16.5v-2l-5-2-8 21.5c-3.706 7.411-2 27.947-2 36.5ZM412 177h4c1.795 0 1-12.467 1-14.5 0-11.046-2.33-24.66-7-34-.736-1.472-2.483-9.5-4-9.5l-5 2v2c2.031 0 4.117 9.733 5 11.5 6.088 12.175 6 27.841 6 42.5Z"/><path fill="#8FCBEC" id="SF" d="m244 189-1 2v-23c1.22 0 1.504-3.492 1-4.5l-7.5-8.5c-12.253-6.127-23.5 1.347-23.5 14v17c-1.59 0-1.443-4.386-2-5.5-1.195-2.389-7.211-9.5-10-9.5 0-4.171 4.79-24 9-24 0 15.615 17.386-5 4-5 0-2.224 2.386-2.272 3-3.5l8.5-11.5 3-5 .5 2.5 4 6c2.048 4.096 10 8.618 10 12.5l-2.5-2c-9.186 0 5.5 20.932 5.5 9.5l1-2-2-3.5c4.938 0 10 21.135 10 26-5.617 0-11 13.554-11 18Z"/><path fill="#1B8063" id="SSs2/3" d="m53 176-8 1c0-11.061-1.476-28.548 3-37.5l7-16.5c2.176 0 8 4.188 8 6 0 4.735-3.901 12.303-6 16.5-2.5 5.001-4 23.897-4 30.5ZM403 176c3.222 0 6.277 1 9 1 0-14.659.088-30.325-6-42.5-.883-1.767-2.969-11.5-5-11.5-3.331 0-4.796 5-8 5v1l6 15.5c3.225 6.45 4 23.207 4 31.5Z"/><path fill="#C9C9CA" id="scwm" d="m111 124-1 1 1-1ZM105 129c0 3.54-4 5.131-4 9 1.467 0 9-11.247 9-13l-5 4Z"/><path fill="#187C63" id="SSs4" d="M53 176h1l5-1c0-8.133.541-20.582 4-27.5l6-14.5v-1l-5-4-1 1c0 4.735-3.901 12.303-6 16.5-2.5 5.001-4 23.897-4 30.5Z"/><path fill="#188064" id="SSp-m6b" d="M95 147h1l1-2 1-2 1-2c0-1.238.423-3 2-3 0-3.869 4-5.46 4-9-3.115 0-11 14.676-11 18h1Z"/><path fill="#187C63" id="SSs4" d="m397 175 6 1c0-8.293-.775-25.05-4-31.5l-6-15.5-6 3v1c2.55 0 3.117 8.735 4 10.5 4.725 9.451 6 20.06 6 31.5Z"/><path fill="#1C8063" id="SSs5" d="M59 175h13l1-20.5 6-15.5c-3.19 0-5.985-6-10-6l-6 14.5c-3.459 6.918-4 19.367-4 27.5ZM385 175h12c0-11.44-1.275-22.049-6-31.5-.883-1.765-1.45-10.5-4-10.5-4.315 0-6.608 6-9 6l5 13.5c1.858 3.716 2 17.636 2 22.5Z"/><path fill="#C9C9CA" id="scwm" d="M101 138c-1.577 0-2 1.762-2 3 1.577 0 2-1.762 2-3Z"/><path fill="#197D63" id="SSs6a" d="M72 175h13c0-7.85 9-21.421 9-28l-15-8-6 15.5-1 20.5ZM371 175h14c0-4.864-.142-18.784-2-22.5l-5-13.5h-1l-14 8c0 9.376 8 18.289 8 28Z"/><path fill="#C9C9CA" id="scwm" d="m99 141-1 2 1-2Z"/><path fill="#CBC8CB" id="fi" d="m211 146-1 1c0 15.615 17.386-5 4-5l-1 1-1 1-1 1v1ZM243 143l2 2 2 3.5-1 2c0 11.432-14.686-9.5-5.5-9.5l2.5 2Z"/><path fill="#97D6F9" id="STR" d="m265 142 1 2v-3l-1 1Z"/><path fill="#8FCBEC" id="SF" d="m214 142-1 1 1-1Z"/><path fill="#C9C9CA" id="scwm" d="m98 143-1 2 1-2Z"/><path fill="#8FCBEC" id="SF" d="m213 143-1 1 1-1ZM212 144l-1 1 1-1Z"/><path fill="#C9C9CA" id="scwm" d="m97 145-1 2 1-2Z"/><path fill="#8FCBEC" id="SF" d="m211 146-1 1 1-1Z"/><path fill="#1A8061" id="SSs6b" d="M85 175h2v-1c0-1.048-.473-3 1-3v-1l1-2v-2l1-2 1-5 1-1v-1l1-1v-2c0-1.048-.473-3 1-3l1-1v-3h-1c0 6.579-9 20.15-9 28Z"/><path fill="#C9C9CA" id="scwm" d="m96 147-1 2v-2h1Z"/><path fill="#1A8061" id="SSs6b" d="M370 175h1c0-9.711-8-18.624-8-28h-1l-1 1v1c2.109 0 2 2.535 2 4v2l1 1v1l1 1 2 7v2l2 3v5h1Z"/><path fill="#97D6F9" id="STR" d="M176 200c-2.669 0 .915 11-3 11 0-10.379 2-20.303 2-31 0-5.05-2.512-11.476 0-16.5 1.456-2.912 6.116-3.308 8.5-4.5 2.4-1.2 3.395-10 4.5-10 0 9.024 2 17.926 2 26-1.834 0-7-5.146-7 0-1.539 0-3 1.342-3 3-2.159 0-.061-4-1.5-4l-1.5 6-1 20Z"/><path fill="#C9C9CA" id="scwm" d="M361 149c2.109 0 2 2.535 2 4l-2-4ZM95 150l-1 1 1-1ZM94 151c-1.473 0-1 1.952-1 3 1.473 0 1-1.952 1-3Z"/><path fill="#96A7D2" id="TRS" d="M225 174h6l8.5-7 3.5 1c1.22 0 1.504-3.492 1-4.5l-7.5-8.5c-12.253-6.127-23.5 1.347-23.5 14l3.5-2c1.381.69 8.5 5.763 8.5 7Z"/><path fill="#97D6F9" id="STR" d="M284 213h2l-3-3.5c-3.045-6.089 1.096-15.807-2-22-2.411-4.822 4.268-15.463 1-22-2.347-4.695-6.644-4.644-10-8l-3-4.5-2 21c1.423 0 3.544-1.978 5.5-1l1.5 2 3 2c0-1.69.487-4.525 2-1.5l1 24.5c2.144 0 .381 4.262 1 5.5.611 1.222 3 6.481 3 7.5Z"/><path fill="#C9C9CA" id="scwm" d="m363 155 1 1-1-1ZM92 157h1v-1l-1 1Z"/><path fill="#C9C7C9" id="ccb" d="m91 159-1 5c1.732 0 3-5.353 3-7h-1v1l-1 1Z"/><path fill="#C9C9CA" id="scwm" d="m364 157 1 1-1-1ZM92 158l-1 1 1-1Z"/><path fill="#C9C7C9" id="ccb" d="m90 164-1 2 1-2Z"/><path fill="#97D6F9" id="STR" d="m191 167 1 1-1-1Z"/><path fill="#C7C8CA" id="fx" d="M222 195c-1.974 0-3.517 2-6 2 0-.781-3-4.65-3-9v-19l3.5-2c1.381.69 8.5 5.763 8.5 7 0 1.564 1 3.876 1 6 0 4.01-2 8.3-2 12l-1 1v1l-1 1ZM233 193c.267 0 4.492 4 8 4 0-1.714 2-3.482 2-6v-23l-3.5-1-8.5 7-1 4v3l1 1c0 3.222 1 6.277 1 9l1 1v1Z"/><path fill="#C9C7C9" id="ccb" d="M368 170h1l-2-3 1 3ZM89 168l-1 2 1-2Z"/><path fill="#97D6F9" id="STR" d="M264 169v1l1-2-1 1Z"/><path fill="#8FCBEC" id="SF" d="m193 169-1 2v-2h1Z"/><path fill="#8FCBED" id="LSv" d="m213 188-5.5 5c-3.648 1.824-5.938-4-8.5-4v-1l-2-2v-1c0-2.747-4-4.56-4-8 0-1.564-1-3.876-1-6l1-2c3.138 0 5.662 2 8 2 2.789 0 8.805 7.111 10 9.5.557 1.114.41 5.5 2 5.5v2ZM256 190l-1 1c-1.791 0-2.959 3.27-5.5 2-1.362-.681-4.844-4-5.5-4 0-4.446 5.383-18 11-18 2.709 0 4.646-2 8-2l1 1v8c-1.473 0-1 1.952-1 3l-1 1-1 1v1l-1 1-1 1-1 1-1 2-1 1Z"/><path fill="#8FCBEC" id="SF" d="M264 169v1l-1-1h1Z"/><path fill="#C8CBCC" id="ec" d="M369 170v1l-1-1h1ZM88 171c-1.473 0-1 1.952-1 3 1.473 0 1-1.952 1-3Z"/><path fill="#B3C0DE" id="BST" d="M205 203c-4.426 0-14.176 10-27 10 0-8.332 2-14.906 2-23v-1c.294 0 3-12.763 3-14 0-5.146 5.166 0 7 0 0 1.048-.473 3 1 3 0 1.338 4.41 7 6 7v1l2 2v1c0 3.46 6 6.405 6 11v3Z"/><path fill="#CAC7CB" id="fiber tracts" d="m230 178-1.5-3-2.5 5c0-2.124-1-4.436-1-6h6l-1 4Z"/><path fill="#B3C0DE" id="BST" d="m251 202 5.5 3c9.13 4.565 11.017 8 22.5 8 0-5.897-2-11.99-2-19v-2c-2.064 0-.426-3.353-1-4.5-1.449-2.899-2-9.259-2-12.5l-1.5-2c-1.956-.978-4.077 1-5.5 1l-2 4c0 1.238-.423 3-2 3l-1 1-1 1v1l-1 1-1 1-1 1-1 2-1 1-1 1c0 3.657-4 5.884-4 10v1Z"/><path fill="#CCC" d="M180 190c-.236 0-4 15.604-4 10l1-20 1.5-6c1.439 0-.659 4 1.5 4v12ZM277 194c.951 0 3 8.354 3 6l-1-24.5c-1.513-3.025-2-.19-2 1.5v17Z"/><path fill="#11AC82" id="VISC4" d="m59 183-4 1c0-2.097-1-5.293-1-8l5-1v8Z"/><path fill="#12AD82" id="VISC5" d="m72 179-13 4v-8h13v4Z"/><path fill="#11AC83" id="VISC6a" d="M72 179v1c3.707 0 8.883-3 13-3v-2H72v4Z"/><path fill="#11AD82" id="VISC6b" d="M85 177h1l1-1v-1h-2v2Z"/><path fill="#8599CC" id="PAL" d="M180 178v11c.294 0 3-12.763 3-14-1.539 0-3 1.342-3 3Z"/><path fill="#FF5445" id="MEPO" d="m223 194-1 1c0 2.551 11.166 3.169 12 1.5l-1-3.5v-1l-1-1c0-2.723-1-5.778-1-9l-1-1v-3l-1.5-3-2.5 5c0 4.01-2 8.3-2 12l-1 1v1Z"/><path fill="#8599CC" id="PAL" d="M277 177v15c-2.064 0-.426-3.353-1-4.5-1.449-2.899-2-9.259-2-12.5l3 2Z"/><path fill="#C8CBCC" id="ec" d="M367 194h1v-1l1-1v-1l1-14v-2h-1c0 6.951-2 12.608-2 19Z"/><path fill="#11AD82" id="VISC6b" d="M370 177h1v-2h-1v2Z"/><path fill="#11AC83" id="VISC6a" d="M371 177c4.711 0 9.756 3 14 3v-5h-14v2Z"/><path fill="#12AD82" id="VISC5" d="M385 180c3.862 0 8.51 3 12 3v-8h-12v5Z"/><path fill="#11AC82" id="VISC4" d="m397 183 5 1 1-8-6-1v8Z"/><path fill="#12AC83" id="VISC2/3" d="m55 184-8 3c0-2.979-2-6.23-2-10l8-1h1c0 2.707 1 5.903 1 8Z"/><path fill="#C8CBCC" id="ec" d="M89 194c0 1.357.647 6 2 6 0-8.125-4-15.391-4-24l-1 1 1 13 1 2v1l1 1Z"/><path fill="#12AC83" id="VISC2/3" d="M409 187h1l2-10c-2.723 0-5.778-1-9-1l-1 8 7 3Z"/><path fill="#12AD83" id="VISC1" d="m47 187-4 2c-1.336 0-3-10.309-3-12h5c0 3.77 2 7.021 2 10Z"/><path fill="#009B74" id="GU6a" d="m83 193-8 1c0-3.499-3-9.142-3-14 3.707 0 8.883-3 13-3 0 2.361-.735 13 2 13l1 2c-1.076 0-5-2.669-5 1Z"/><path fill="#019C74" id="GU6b" d="m86 177 1 13c-2.735 0-2-10.639-2-13h1Z"/><path fill="#97D6F9" id="STR" d="M191 178c0 1.338 4.41 7 6 7 0-2.747-4-4.56-4-8l-2 1Z"/><path fill="#019C74" id="GU6b" d="M369 191h1c0-4.121 1-9.275 1-14h-1l-1 14Z"/><path fill="#009B74" id="GU6a" d="M381 194h1l3-14c-4.244 0-9.289-3-14-3 0 4.725-1 9.879-1 14 2.424 0 2.76 2 4 2l7 1Z"/><path fill="#12AD83" id="VISC1" d="m410 187 4 2c0-3.981 2-7.629 2-12h-4l-2 10Z"/><path fill="#97D6F9" id="STR" d="M265 178c0 1.238-.423 3-2 3 0-1.048-.473-3 1-3h1Z"/><path fill="#019C75" id="GU5" d="M75 194c-3.982 0-8.748 2-13 2 0-3.877-3-8.127-3-13l13-4v1c0 4.858 3 10.501 3 14ZM382 194c0 1.148 11.286 2 13 2 0-4.068 2-8.146 2-13-3.49 0-8.138-3-12-3l-3 14Z"/><path fill="#CAC7CB" id="fiber tracts" d="m230 181 1 1-1-1Z"/><path fill="#97D6F9" id="STR" d="m263 181-1 1 1-1ZM262 182l-1 1 1-1Z"/><path fill="#009C74" id="GU4" d="m62 196-2 1c0-1.568-5-7.488-5-13l4-1c0 4.873 3 9.123 3 13ZM395 197h2c0-3.571 5-8.642 5-13l-5-1c0 4.854-2 8.932-2 13v1Z"/><path fill="#009B75" id="GU2/3" d="M51 199h1l8-2c0-1.568-5-7.488-5-13l-8 3c0 4.66 4 7.48 4 12Z"/><path fill="#97D6F9" id="STR" d="m261 184-1 1 1-1Z"/><path fill="#009B75" id="GU2/3" d="m397 197 8 2c0-4.366 4-7.128 4-12l-7-3c0 4.358-5 9.429-5 13Z"/><path fill="#97D6F9" id="STR" d="m197 186 2 2-2-2ZM259 186l-1 1 1-1Z"/><path fill="#009C75" id="GU1" d="m51 199-3 2c-1.977 0-5-9.992-5-12l4-2c0 4.66 4 7.48 4 12Z"/><path fill="#97D6F9" id="STR" d="m258 187-1 2 1-2Z"/><path fill="#009C75" id="GU1" d="m405 200 4 1 5-12-4-2h-1c0 4.872-4 7.634-4 12v1Z"/><path fill="#97D6F9" id="STR" d="M208 201h3l2-1 3-3c0-.781-3-4.65-3-9l-5.5 5c-3.648 1.824-5.938-4-8.5-4 0 3.46 6 6.405 6 11l3 1ZM248 201h3c0-4.116 4-6.343 4-10-1.791 0-2.959 3.27-5.5 2-1.362-.681-4.844-4-5.5-4l-1 2c0 2.518-2 4.286-2 6 0 2.215 2 1.519 2 3h1l1 1h3ZM257 189l-1 1 1-1Z"/><path fill="#8599CC" id="PAL" d="M173 213h5c0-8.332 2-14.906 2-23-.236 0-4 15.604-4 10-2.669 0 .915 11-3 11v2Z"/><path fill="#97D6F9" id="STR" d="m256 190-1 1 1-1Z"/><path fill="#8ADA86" id="CLA" d="M89 208h2v-8c-1.353 0-2-4.643-2-6l-1-1v-1c-1.076 0-5-2.669-5 1 0 5.399-2.653 15 6 15Z"/><path fill="#CAC7CB" id="fiber tracts" d="m232 191 1 1-1-1Z"/><path fill="#8ADA86" id="CLA" d="M366 208h2c7.053 0 6-9.673 6-15-1.24 0-1.576-2-4-2h-1v1l-1 1v1l-1 1-1 6-1 1v5l1 1Z"/><path fill="#CAC7CB" id="fiber tracts" d="m224 192-1 1 1-1Z"/><path fill="#209766" id="AIp6a" d="m369 192-1 1 1-1ZM83 213h1l1-1 4-4c-8.653 0-6-9.601-6-15l-8 1c0 5.853 8 15 8 19ZM88 193l1 1-1-1Z"/><path fill="#CAC7CB" id="fiber tracts" d="m235 199 8 1c0-1.481-2-.785-2-3-3.508 0-7.733-4-8-4l1 3.5c-.834 1.669-12 1.051-12-1.5-1.974 0-3.517 2-6 2l-3 3 8-1h3l2-1h4l2 1h3Z"/><path fill="#209766" id="AIp6a" d="M372 213h2c0-6.68 7-11.766 7-19l-7-1c0 5.327 1.053 15-6 15 0 1.302 4 2.641 4 5Z"/><path fill="#219864" id="AIp5" d="m80 215-5 1c0-3.649-13-13.805-13-20 4.252 0 9.018-2 13-2 0 5.853 8 15 8 19l-3 2Z"/><path fill="#CAC7CB" id="fiber tracts" d="m223 194-1 1 1-1Z"/><path fill="#8599CC" id="PAL" d="M279 213h5c0-1.019-2.389-6.278-3-7.5-.619-1.238 1.144-5.5-1-5.5 0 2.354-2.049-6-3-6 0 7.01 2 13.103 2 19Z"/><path fill="#209766" id="AIp6a" d="m368 194-1 1v-1h1Z"/><path fill="#219864" id="AIp5" d="m376 215 5 1 4-4.5c1.857-1.857 9.694-14.5 10-14.5v-1c-1.714 0-13-.852-13-2h-1c0 7.234-7 12.32-7 19l2 2Z"/><path fill="#C8CBCC" id="ec" d="M365 201h1l1-6c-1.995 0-2 4.377-2 6Z"/><path fill="#209865" id="AIp2/3" d="M75 216c0 .473-8.784 4-10 4 0-2.399-13-15.086-13-21l8-2 2-1c0 6.195 13 16.351 13 20ZM381 216c0 .473 8.784 4 10 4l5-5.5 6-10 3-4.5v-1l-8-2h-2c-.306 0-8.143 12.643-10 14.5l-4 4.5Z"/><path fill="#C9C9C9" id="act" d="m226 198-2 1 2-1Z"/><path fill="#CBCBC7" id="aco" d="M234 217h1c0-1.781 6.197-1.348 7.5-2l10.5-10.5-3.5-.5c-1.8-.9-14.5-3.651-14.5-5h-3l-2-1h-4l-2 1h-3c0 1.802-12.541 4.02-14.5 5l-2.5.5 10.5 10.5c1.134.567 6.5.546 6.5 2h13Z"/><path fill="#C9C9C9" id="act" d="m230 198 2 1-2-1Z"/><path fill="#219765" id="AIp1" d="m65 220-4 3c-1.093 0-13-19.342-13-22l3-2h1c0 5.914 13 18.601 13 21Z"/><path fill="#C9C9C9" id="act" d="M141 235h1c0-1.353 4.643-2 6-2h1c0-2.109 2.535-2 4-2l2-1 2-1 6-3 2-1 2-1c0-1.473 1.952-1 3-1l6-2 1-1 1-1 4.5-2c4.334-2.167 22.546 0 26.5 0h12c0-1.454-5.366-1.433-6.5-2L204 204.5l2.5-.5c1.959-.98 14.5-3.198 14.5-5l-8 1-2 1h-3l-3 2c-4.426 0-14.176 10-27 10h-7l-5 1-1 1h-1l-1 1-1 1c0 2.591-8.929 8-11 8 0 2.109-2.535 2-4 2 0 2.109-2.535 2-4 2l-2 1-2 1c0 5.088 2 1.876 2 4ZM314 235h2l2-2.5c-2.162-4.324-26-10.95-26-17.5-1.974 0-3.517-2-6-2h-7c-11.483 0-13.37-3.435-22.5-8l-5.5-3c-1.048 0-3 .473-3-1h-3l-1-1h-1l-8-1c0 1.349 12.7 4.1 14.5 5l3.5.5-10.5 10.5c-1.303.652-7.5.219-7.5 2h12c4.043 0 22.248-2.126 26.5 0l4.5 2 1 1 8 3c6.325 0 15.891 7.196 21.5 10 1.114.557 5.5.41 5.5 2Z"/><path fill="#CAC7CB" id="fiber tracts" d="m208 201-3 2v-3l3 1ZM213 200l-2 1 2-1ZM244 200l1 1-1-1Z"/><path fill="#219765" id="AIp1" d="m391 220 5 3c0-5.308 13-15.429 13-22l-4-1-3 4.5-6 10-5 5.5Z"/><path fill="#C8CBCC" id="ec" d="m92 208 2 1c0-1.4-1.431-8-3-8v4c1.473 0 1 1.952 1 3Z"/><path fill="#CAC7CB" id="fiber tracts" d="M251 201v1c-1.048 0-3 .473-3-1h3Z"/><path fill="#209766" id="AIp6a" d="m366 201-1 1v-1h1Z"/><path fill="#C8CBCC" id="ec" d="M363 208h1l1-1v-5c-1.353 0-2 4.643-2 6Z"/><path fill="#209766" id="AIp6a" d="M91 208h1c0-1.048.473-3-1-3v3ZM364 208h2l-1-1-1 1Z"/><path fill="#A0EE9C" id="EPd" d="m103 229-2 2c-2.833 0-4.84-2-7-2l-2-1-4-5-1-1-2-2v-1l-1-6 1-1 4-4h3l2 1v1l1 1v2l2 4 1 3 1 1v1l2 2v1l2 4Z"/><path fill="#C8CBCC" id="ec" d="m363 208-1 2 1-2Z"/><path fill="#A0EE9C" id="EPd" d="M355 231h4l2-1 1-1h1l1-1 1-1 1-1 1-1 1-1 1-1 1-1 1-2 1-7c0-2.359-4-3.698-4-5h-5l-1 2v1l-1 1v2l-1 1v1l-1 1v2l-1 1-2 4-1 1v1l-1 1v1l1 3Z"/><path fill="#C8CBCC" id="ec" d="m94 210 1 1-1-1Z"/><path fill="#97D6F9" id="STR" d="M171 213h2v-2l-2 2Z"/><path fill="#C8CBCC" id="ec" d="m362 211-1 1 1-1Z"/><path fill="#99D2BD" id="OLF" d="m85 212-1 1 1-1ZM80 215l5 4-1-6h-1l-3 2Z"/><path fill="#C8CBCC" id="ec" d="m95 213 2 4-2-4Z"/><path fill="#99D2BD" id="OLF" d="m376 215-5 5 1-7h2l2 2Z"/><path fill="#97D6F9" id="STR" d="m166 214-1 1 1-1Z"/><path fill="#C8CBCC" id="ec" d="m361 214-1 1 1-1Z"/><path fill="#6ACAB9" id="PIR" d="m122 279-2 2c-11.79 0-19.765-11-25-11-2.308 0-7.06-8.619-8-10.5-4.136-8.273-26-27.498-26-36.5l4-3c1.216 0 10-3.527 10-4l5-1 5 4v1l2 2 1 1c0 1.562 2.189 5 4 5l2 1c0 1.772 7.346 6 9 6l18 14 4 8.5v9.5c0 4.062-3 7.268-3 12Z"/><path fill="#97D6F9" id="STR" d="m164 215-1 1 1-1ZM323 266h6c0-4.145.341-22 8-22l2-4 1-1 1-1 1-1v-1l-1-1c-14.173 0-23.938-4.219-35.5-10-3.648-1.824-8.322-10-13.5-10 0 6.55 23.838 13.176 26 17.5l-2 2.5 16.5 2c1.048 0 5.5.256 5.5 1.5l-5 4c-4.488 8.977-10.102 8.5-18 8.5l1 2c2.923 0 7 10.86 7 13Z"/><path fill="#6ACAB9" id="PIR" d="m335 280 2 1c11.145 0 17.685-10 25-10 0-3.512 21.435-28.369 25-35.5 1.56-3.12 9-8.018 9-12.5l-5-3c-1.216 0-10-3.527-10-4l-5-1-5 5-1 2-1 1-1 1-1 1-1 1-1 1-1 1-1 1h-1l-1 1-2 1c0 1.617-4.583 4-6 4l-16 13c0 1.084-6 10.063-6 18 0 4.506 3 7.078 3 12l1 1v1Z"/><path fill="#97D6F9" id="STR" d="m163 216-1 1 1-1Z"/><path fill="#B3C0DE" id="BST" d="M207 228c-3.508 0-6.682 5-11 5-8.661 0-18-3.063-18-13v-1l4.5-2c4.334-2.167 22.546 0 26.5 0l1 6.5-3 4.5ZM258 233h3c6.525 0 15.053-2.607 18-8.5l-1-5.5-4.5-2c-4.252-2.126-22.457 0-26.5 0l-1 5.5 5 6.5 6 3 1 1Z"/><path fill="#C8CBCC" id="ec" d="m360 216-1 1 1-1Z"/><path fill="#97D6F9" id="STR" d="M162 217c-2.244 0-11 5.253-11 8 2.071 0 11-5.409 11-8Z"/><path fill="#E64438" id="HY" d="M224 241c0-3.249 1-7.194 1-11l.5-7c2.384 0 2.191 7 3 7 .479 0 .775-6.387 2-7 2.041-1.021 1.5 3.062 1.5 4v14c1.624 0 2.75-2 5-2l-2-4 2-2.5c3.586-7.172 7.447-.5 12-.5 0-3.956-2.258-3 2-3l-5-6.5 1-5.5h-13l-2 1c0 2.21-8 2.21-8 0l-2-1h-13l1 6.5-3 4.5c1.577 0 2 1.762 2 3l2.5-2c8.386-4.193 8.5 6.645 8.5 10 2.424 0 2.76 2 4 2Z"/><path fill="#CAC7CB" id="fiber tracts" d="M224 218h8l2-1h-12l2 1Z"/><path fill="#8599CC" id="PAL" d="M177 220h1v-1l-1 1Z"/><path fill="#E64438" id="HY" d="M263 238c2.028 0 10-10.413 10 3 3.443 0 4.894-10.289 6-12.5l4-4.5-4-4-1-1 1 5.5c-2.947 5.893-11.475 8.5-18 8.5v3l2 2Z"/><path fill="#C8CBCC" id="ec" d="m359 219-1 1 1-1Z"/><path fill="#99D2BD" id="OLF" d="m85 220 2 2-2-2Z"/><path fill="#C8CBCC" id="ec" d="m98 220 1 1-1-1Z"/><path fill="#8599CC" id="PAL" d="m177 220-1 1 1-1Z"/><path fill="#E64438" id="HY" d="M193 237c-2.544 0-10-7.632-10 3-2.743 0-5.937-11.375-7-13.5l-3-2.5c2.041 0 3-.959 3-3l1-1h1c0 9.937 9.339 13 18 13l-1 3-2 1Z"/><path fill="#8599CC" id="PAL" d="M283 224h4v-1l-8-3 4 4ZM170 224h3c2.041 0 3-.959 3-3l-6 2v1Z"/><path fill="#C8CBCC" id="ec" d="m99 222 2 2-2-2Z"/><path fill="#99D2BD" id="OLF" d="m370 222-1 1 1-1ZM88 223l4 5c-1.811 0-4-3.438-4-5Z"/><path fill="#97D6F9" id="STR" d="M167 224h3v-1c-1.048 0-3-.473-3 1Z"/><path fill="#FE5547" id="PVpo" d="m222 273-5 1 3-7c4.839 0 4-21.519 4-26 0-3.249 1-7.194 1-11l.5-7c2.384 0 2.191 7 3 7 .479 0 .775-6.387 2-7 2.041-1.021 1.5 3.062 1.5 4v14c0 4.499-.442 26 4 26 0 2.538 3 3.953 3 7l-8-3-2-4.5-.5-5.5-.5 2.5-3 7.5-3 2Z"/><path fill="#97D6F9" id="STR" d="M296 228c5.809 0 11.334 7 18 7 0-1.59-4.386-1.443-5.5-2-5.609-2.804-15.175-10-21.5-10v1l9 4Z"/><path fill="#99D2BD" id="OLF" d="m369 223-1 1 1-1Z"/><path fill="#97D6F9" id="STR" d="m167 224-2 1 2-1Z"/><path fill="#A2B1D7" id="SI" d="M128 266h5c3.627 0 4-4.074 4-7l2-4 1-2 1-1v-1l1-1c1.322 0 17-19.591 17-21h1l1-1 2-2 2-1 2-1h6l3 2.5c1.063 2.125 4.257 13.5 7 13.5 0 5.414 1.697 15-7 15l-4 2-2 1c-8.182 0-29.171 1.158-23 13.5 1.335 2.67 16 5.086 16 6.5-17.341 0-11.243 3.128-27.5-5l-7.5-7ZM329 266l-5.5 5c-9.413 9.413-17.473 7-29.5 7 0-1.481 14.203-3.907 16-7.5 5.468-10.937-15.951-12.5-23-12.5l-2-1-5-2c-7.673 0-7-9.3-7-14 3.443 0 4.894-10.289 6-12.5l4-4.5h4l9 4c0 4.639 19 20.316 19 23l1 2c0 1.825 4.537 13 7 13h6Z"/><path fill="#C8CBCC" id="ec" d="m356 224-1 1 1-1Z"/><path fill="#99D2BD" id="OLF" d="m368 224-1 1 1-1Z"/><path fill="#C8CBCC" id="ec" d="M113 235c.839 0 2 1.93 2 0l-7.5-4c-1.436-.718-4.069-6-6.5-6l2 4c1.114 0 4 2.034 4 3l4 2 1 1h1Z"/><path fill="#97D6F9" id="STR" d="m151 225-4 2c1.465 0 4 .109 4-2ZM165 225l-2 1 2-1Z"/><path fill="#99D2BD" id="OLF" d="m367 225-1 1 1-1Z"/><path fill="#97D6F9" id="STR" d="M159 229h1l1-1 2-2-6 3h2Z"/><path fill="#C8CBCC" id="ec" d="m355 226-1 1 1-1Z"/><path fill="#99D2BD" id="OLF" d="m366 226-1 1 1-1Z"/><path fill="#97D6F9" id="STR" d="m147 227-4 2c1.465 0 4 .109 4-2Z"/><path fill="#C8CBCC" id="ec" d="M353 228h1v-1l-1 1Z"/><path fill="#99D2BD" id="OLF" d="m365 227-1 1 1-1Z"/><path fill="#7ECDF8" id="FS" d="m161 228-1 1 1-1Z"/><path fill="#FD5446" id="PS" d="m196 233-1 3c4.791 0 9.667-5 14-5 0-1.238-.423-3-2-3-3.508 0-6.682 5-11 5ZM261 233v3l-12-4c0-3.956-2.258-3 2-3l6 3 1 1h3Z"/><path fill="#7ECDF8" id="FS" d="m316 235 16.5 2c1.048 0 5.5.256 5.5 1.5l-5 4c-4.488 8.977-10.102 8.5-18 8.5 0-2.684-19-18.361-19-23 5.809 0 11.334 7 18 7h2Z"/><path fill="#C8CBCC" id="ec" d="m353 228-1 1 1-1Z"/><path fill="#8AD987" id="CTXsp" d="M349 232c1.145 0 4-.579 4 1l2-2-1-3h-1l-1 1c0 1.577-1.762 2-3 2v1Z"/><path fill="#99D2BD" id="OLF" d="m364 228-1 1 1-1ZM103 233v2c-1.654 0-9-4.228-9-6 2.16 0 4.167 2 7 2l2 2Z"/><path fill="#8AD987" id="CTXsp" d="M107 232c-1.145 0-4-.579-4 1l-2-2 2-2c1.114 0 4 2.034 4 3Z"/><path fill="#97D6F9" id="STR" d="m143 229-2 1 2-1ZM157 229l-2 1 2-1Z"/><path fill="#7ECDF8" id="FS" d="m142 250-1 1-7.5 1c-1.485-.742-14.5-12.022-14.5-13.5 0-2.049 4.337-1.5 5.5-1.5l16.5-2h1c1.623 0 6-.005 6-2h1l4-2 2-1 2-1h2c0 1.409-15.678 21-17 21Z"/><path fill="#FF5346" id="MPO" fill-rule="evenodd" d="m198 257-2 3.5c0 6.456 7.779-3.5 2-3.5m-4 12 4.5-1 4.5 3c1.749 0 7-1.526 7-4-3.952 0-3-10.185-3-13 0-9.116 3.443-15 13-15 0-3.355-.114-14.193-8.5-10l-2.5 2c-4.333 0-9.209 5-14 5l-2 1c0 2.816.775 7.049 2 9.5l-1 19.5v3ZM257 257c0 11.122 5.845 0 0 0m6 12-5.5-1-3.5 3c-2.693 0-7-.744-7-4 0-1.009 2.421-5.343 3-6.5 4.549-9.098-4.382-21.5-13-21.5l-2-4 2-2.5c3.586-7.172 7.447-.5 12-.5l12 4 2 2v31Z"/><path fill="#C8CBCC" id="ec" d="M352 229c-1.238 0-3 .423-3 2 1.238 0 3-.423 3-2Z"/><path fill="#99D2BD" id="OLF" d="m362 229-1 1 1-1Z"/><path fill="#97D6F9" id="STR" d="m141 230-2 1 2-1ZM155 230l-2 1 2-1Z"/><path fill="#99D2BD" id="OLF" d="m361 230-2 1 2-1Z"/><path fill="#97D6F9" id="STR" d="M128 266h5l4-7c0-1.465-.109-4 2-4l1-2 1-1v-1l-7.5 1c-1.485-.742-14.5-12.022-14.5-13.5 0-2.049 4.337-1.5 5.5-1.5l16.5-2c0-2.124-2 1.088-2-4-4.478 0-6.855 2.178-10.5 4H115c0 1.93-1.161 0-2 0v1l4 3v1l1 1 1 3c8.467 0 8 17.621 8 22h1ZM153 231c-1.465 0-4-.109-4 2l4-2Z"/><path fill="#C8CBCC" id="ec" d="M346 233h1l2-1v-1c-1.238 0-3 .423-3 2Z"/><path fill="#99D2BD" id="OLF" d="M353 233v2c1.417 0 6-2.383 6-4h-4l-2 2Z"/><path fill="#A0ED9D" id="EPv" d="m119 244 2 5-18-14v-2c0-1.579 2.855-1 4-1l4 2 1 1h1v1c0 1.712 2.571 3 4 3v1l1 1 1 3Z"/><path fill="#E64438" id="HY" d="m257 232 1 1-1-1Z"/><path fill="#A0ED9D" id="EPv" d="M337 244c0 2.226-3.479 4 0 4l16-13v-2c0-1.579-2.855-1-4-1l-2 1-1 1-2 1-1 1-1 1-1 1-1 1-1 1-2 4Z"/><path fill="#97D6F9" id="STR" d="M148 233c-1.357 0-6 .647-6 2 1.623 0 6-.005 6-2Z"/><path fill="#C8CBCC" id="ec" d="M343 235h1l2-1v-1c-1.424 0-5 .362-5 2l1 1 1-1Z"/><path fill="#8AD987" id="CTXsp" d="m347 233-1 1v-1h1ZM111 234l1 1-1-1Z"/><path fill="#F2473B" id="LPO" d="m194 266-1 1c-2.44 0-10.466-9-15-9l-2-3c8.697 0 7-9.586 7-15 0-10.632 7.456-3 10-3 0 2.816.775 7.049 2 9.5l-1 19.5ZM263 267h1c.972 0 9.699-9 14-9l2-3c-7.673 0-7-9.3-7-14 0-13.413-7.972-3-10-3v29Z"/><path fill="#97D6F9" id="STR" d="M342 236h1v-1l-1 1Z"/><path fill="#8AD987" id="CTXsp" d="m344 235-1 1v-1h1ZM113 236l4 3c-1.429 0-4-1.288-4-3ZM343 236l-1 1v-1h1ZM342 237l-1 1 1-1ZM341 238l-1 1 1-1Z"/><path fill="#FD4C3E" id="MPN" d="M215 267h5c4.839 0 4-21.519 4-26-1.24 0-1.576-2-4-2-9.557 0-13 5.884-13 15 0 2.815-.952 13 3 13h5ZM241 267h6c0-1.009 2.421-5.343 3-6.5 4.549-9.098-4.382-21.5-13-21.5-2.25 0-3.376 2-5 2 0 4.499-.442 26 4 26h5Z"/><path fill="#8AD987" id="CTXsp" d="m340 239-1 1 1-1ZM117 240l1 1-1-1Z"/><path fill="#99D2BD" id="OLF" d="m127 266-2 1v-9.5l-4-8.5-2-5c8.467 0 8 17.621 8 22ZM329 266h2c0-7.937 6-16.916 6-18-3.479 0 0-1.774 0-4-7.659 0-8 17.855-8 22Z"/><path fill="#97D6F9" id="STR" d="m142 250-1 1 1-1Z"/><path fill="#8599CC" id="PAL" d="m141 252-1 1 1-1ZM140 253l-1 2 1-2ZM316 253c2.923 0 7 10.86 7 13-2.463 0-7-11.175-7-13ZM139 255c-2.109 0-2 2.535-2 4l2-4Z"/><path fill="#E64438" id="HY" d="m172 259 2 2c0-2.098 1.939-3 4-3l-2-3-4 2v2ZM285 259l-2 1c-1.624 0-2.75-2-5-2l2-3 5 2v2Z"/><path fill="#8599CC" id="PAL" d="m170 258 2 1v-2l-2 1Z"/><path fill="#FE5447" id="AVP" d="m198 257-2 3.5c0 6.456 7.779-3.5 2-3.5ZM257 257c0 11.122 5.845 0 0 0Z"/><path fill="#8599CC" id="PAL" d="m287 258-2 1v-2l2 1Z"/><path fill="#A2B1D8" id="MA" d="M170 277c-2.409 0-5.181 1-7 1 0-1.414-14.665-3.83-16-6.5-6.171-12.342 14.818-13.5 23-13.5l2 1 2 2v13l-4 3Z"/><path fill="#96A6D3" id="NDB" d="M174 274c0 6.425 12.365 5 17 5 0-3.489 2-5.32 2-9v-3c-2.44 0-10.466-9-15-9-2.061 0-4 .902-4 3v13ZM283 275l-6.5 4H266c0-3.372-3-6.053-3-10v-1l1-1c.972 0 9.699-9 14-9 2.25 0 3.376 2 5 2v15Z"/><path fill="#A2B1D8" id="MA" d="m287 277 7 1c0-1.481 14.203-3.907 16-7.5 5.468-10.937-15.951-12.5-23-12.5l-2 1-2 1v15l4 2Z"/><path fill="#8599CC" id="PAL" d="m137 259-4 7c3.627 0 4-4.074 4-7Z"/><path fill="#A8A9AA" id="V3" d="M230 271h1l-2-4.5-.5-5.5-.5 2.5-3 7.5h2c0-1.486 3-1.486 3 0Z"/><path fill="#7FCCF7" id="OT" d="m131 291 1 1 9.5 5c7.566 3.783 35.5-2.114 35.5-10 0-3.68-.964-10-7-10-2.409 0-5.181 1-7 1-17.341 0-11.243 3.128-27.5-5l-7.5-7h-1l-2 1c0 4.062-3 7.268-3 12v2l6 7 3 3Z"/><path fill="#E64438" id="HY" d="m194 269-1 1v-3l1-1v3Z"/><path fill="#7FCCF7" id="OT" d="m327 290-1 1-10.5 6c-7.597 3.799-20.584.208-27-3-2.568-1.284-8.5-2.121-8.5-6 0-4.903-.671-11 7-11l7 1c12.027 0 20.087 2.413 29.5-7l5.5-5h2c0 4.506 3 7.078 3 12v1c0 3.888-5 4.546-5 8v1l-1 1-1 1Z"/><path fill="#E64438" id="HY" d="M203 271c0 1.357.647 6 2 6 0-4.721 10-7.611 10-10h-5c0 2.474-5.251 4-7 4Z"/><path fill="#FD5545" id="VMPO" d="M205 279h5l7-5 3-7h-5c0 2.389-10 5.279-10 10v2ZM252 276v3c-2.722 0-13-1.859-13-5 0-3.047-3-4.462-3-7h5l5.5 3 5.5 6Z"/><path fill="#E64438" id="HY" d="m254 271-2 5-5.5-6-5.5-3h6c0 3.256 4.307 4 7 4ZM264 267l-1 1v-1h1Z"/><path fill="#FE5546" id="VLPO" d="M199 281h3l2-2 1-1v-1c-1.353 0-2-4.643-2-6l-4.5-3-4.5 1-1 1c0 3.68-2 5.511-2 9l8 2ZM255 281h2l9-2c0-3.372-3-6.053-3-10l-5.5-1-3.5 3-2 5v3l1 1 1 1h1Z"/><path fill="#CAC8C7" id="lot" d="m121 285-1 1c0 2.399-7.509.495-8.5 0-4.64-2.32-16.5-9.195-16.5-16 5.235 0 13.21 11 25 11l1 2v2ZM336 283v2c0 2.268 5.85 2.825 7.5 2 3.376-1.688 18.5-12.356 18.5-16-7.315 0-13.855 10-25 10l-1 2Z"/><path fill="#CAC7CB" id="fiber tracts" d="M222 273h6l-1-2h-2l-3 2ZM253 280l1 1c-9.793 0-15.552-8-25-8l1-2h1l8 3c0 3.141 10.278 5 13 5l1 1ZM217 274l-7 5c2.286 0 12-3.343 12-6l-5 1Z"/><path fill="#CBCACC" id="och" d="M254 281h1c0 3.862 2.745 4.377-2.5 7l-12.5-1c-5.731 0-35.949 1.276-38.5 0-3.404-1.702.5-4.404.5-6 1.775 0 8-.069 8-2 2.286 0 12-3.343 12-6h7c9.448 0 15.207 8 25 8Z"/><path fill="#8599CC" id="PAL" d="M191 279c0 2.881-11.505 8-14 8 0-3.68-.964-10-7-10l4-3c0 6.425 12.365 5 17 5ZM266 279c0 2.96 11.752 9 14 9 0-4.903-.671-11 7-11l-4-2-6.5 4H266Z"/><path fill="#E64438" id="HY" d="M204 279h1v-1l-1 1Z"/><path fill="#99D2BD" id="OLF" d="M334 279h1l-1-1v1ZM122 281l-1 2-1-2 2-2v2Z"/><path fill="#CAC7CB" id="fiber tracts" d="M210 279c0 1.931-6.225 2-8 2l2-2h6Z"/><path fill="#E64438" id="HY" d="m252 279 1 1-1-1Z"/><path fill="#97D6F9" id="STR" d="M336 285c-3.066 0-4.417 2-7 2 0-3.454 5-4.112 5-8h1v1c0 1.048-.473 3 1 3v2Z"/><path fill="#99D2BD" id="OLF" d="m337 281-1 2c-1.473 0-1-1.952-1-3l2 1Z"/><path fill="#97D6F9" id="STR" d="M121 285c3.047 0 4.462 3 7 3l-6-7-1 2v2Z"/><path fill="#CAC7CB" id="fiber tracts" d="M255 281h2l2 6.5c-.702 1.404-26.376 4.062-29.5 2.5l-1-3-2 3c-3.777 1.888-18.687.656-22-1-1.381-.69-7.5.472-7.5-2.5 0-1.595 2-3.255 2-5.5h3c0 1.596-3.904 4.298-.5 6 2.551 1.276 32.769 0 38.5 0l12.5 1c5.245-2.623 2.5-3.138 2.5-7Z"/><path fill="#97D6F9" id="STR" d="m121 285-1 1 1-1ZM329 288l-1 1 1-1ZM327 290l-1 1 1-1ZM131 291l1 1-1-1Z"/></svg>