<svg xmlns="http://www.w3.org/2000/svg" viewBox="0 0 456 320"><path fill="#187F60" id="SSp-ll1" d="M133 30c0 1.235-.643 5 1 5 6.995 0 17.39-4.945 23.5-8 5.958-2.98 16.413-2 23.5-2 0-2.72-2-3.553-2-6-4.914 0-23.849 2.174-27.5 4-3.438 1.72-15.092 7-18.5 7Z"/><path fill="#187C64" id="SSp-tr1" d="M181 25h1v-6h-3c0 2.447 2 3.28 2 6Z"/><path fill="#1E9D5A" id="MOp1" d="m199 24-17 1v-6h17v5Z"/><path fill="#1E9C59" id="MOs1" d="M222 37h1l4-2c0-2.183-3.405-3.31-4-4.5-4.74-9.48-13.37-11.5-24-11.5v5c7.624 0 23 2.644 23 13ZM230 34l4 3c0-8.616 15.246-13 23-13v-5c-11.418 0-15.422 2.922-23 10.5l-4 4.5Z"/><path fill="#1E9D5A" id="MOp1" d="m257 24 18 1v-2l-1-4h-17v5Z"/><path fill="#187C64" id="SSp-tr1" d="M277 19c0 1.465.109 4-2 4l-1-4h3Z"/><path fill="#187F60" id="SSp-ll1" d="M322 36h1c0-1.234-.643-5 1-5 0-3.15-8.58-3.04-10.5-4-10.316-5.158-24.227-8-36.5-8 0 1.465.109 4-2 4v2c14.458 0 26.594 2.047 38.5 8 1.479.74 8.5.967 8.5 3Z"/><path fill="#1F9C58" id="MOp2/3" d="M181 36v2c5.176 0 10.198-5 16-5h1l1-9-17 1v1c0 3.686-1 6.177-1 10Z"/><path fill="#1E9D58" id="MOs2/3" d="M222 37c-1.312 0-2.446 3-5 3l-4.5-5c-4.237-2.118-9.366-2-14.5-2l1-9c7.624 0 23 2.644 23 13ZM239 41h1c0-8.27 13.333-8 19-8l-2-9c-7.754 0-23 4.384-23 13l5 4Z"/><path fill="#1F9C58" id="MOp2/3" d="M275 36v2c-5.295 0-10.003-5-16-5l-2-9 18 1v11Z"/><path fill="#187F64" id="SSp-ll2/3" d="M181 36c-6.736 0-29.672 6.086-35.5 9-2.728 1.364-5.269 4-8.5 4l-3-13v-1c6.995 0 17.39-4.945 23.5-8 5.958-2.98 16.413-2 23.5-2l1 1c0 3.686-1 6.177-1 10Z"/><path fill="#188061" id="SSp-tr2/3" d="M182 25v1l-1-1h1Z"/><path fill="#187F64" id="SSp-ll2/3" d="M322 36c0 4.946-3 8.377-3 13l-8.5-4c-6.187-3.094-28.324-9-35.5-9V25c14.458 0 26.594 2.047 38.5 8 1.479.74 8.5.967 8.5 3Z"/><path fill="#197E64" id="SSp-ul1" d="M117 37c0 2.773 2 3.67 2 6 4.684 0 9.888-7 15-7v-1c-1.643 0-1-3.765-1-5l-16 7ZM339 37c0 1.041-.986 5-2 5l-14-6c0-1.234-.643-5 1-5 5.143 0 11.018 6 15 6Z"/><path fill="#1E9C5A" id="MOp5" d="m193 49-15 7c0-5.82 3-10.85 3-17v-1c5.176 0 10.198-5 16-5 0 5.989-4 10.463-4 16Z"/><path fill="#1F9D58" id="MOs5" d="M193 49c2.132 0 4.958-3.271 7.5-2l5.5 3c4.038 0 7.186-9 11-9v-1l-4.5-5c-4.237-2.118-9.366-2-14.5-2h-1c0 5.989-4 10.463-4 16ZM250 51h1c0-7.032 9.304-2 12-2l-4-16c-5.667 0-19-.27-19 8 2.18 0 10 7.863 10 10Z"/><path fill="#1E9C5A" id="MOp5" d="M263 49c5.761 0 10.429 7 16 7 0-5.209-4-11.52-4-17v-1c-5.295 0-10.003-5-16-5l4 16Z"/><path fill="#3EA665" id="ACAd1" d="M223 57h10c0-6.642 1-14.002 1-20l-4-3-1.5 3-1.5-2-4 2v20Z"/><path fill="#197F61" id="SSp-ul2/3" d="M122 56h1l14-7-3-13c-5.112 0-10.316 7-15 7l3 13Z"/><path fill="#1C7F64" id="SSp-ll4" d="M139 55h1c12.315 0 30.193-16 41-16v-3c-6.736 0-29.672 6.086-35.5 9-2.728 1.364-5.269 4-8.5 4 0 1.974 2 3.517 2 6ZM319 49c0 2.72-2 3.553-2 6-13.342 0-30.055-16-42-16v-3c7.176 0 29.313 5.906 35.5 9l8.5 4Z"/><path fill="#197F61" id="SSp-ul2/3" d="m319 49 15 7c0-4.416 3-8.115 3-13v-1l-14-6h-1c0 4.946-3 8.377-3 13Z"/><path fill="#1B8062" id="SSp-un1" d="m119 43-9 4-1-6 8-4c0 2.773 2 3.67 2 6Z"/><path fill="#40A565" id="ACAd2/3" d="m223 58-5 1-1-18v-1c2.554 0 3.688-3 5-3h1v21ZM233 58l6 1V41l-5-4c0 5.998-1 13.358-1 20v1Z"/><path fill="#1B8062" id="SSp-un1" d="M346 47h1c0-2.124 1-4.436 1-6l-9-4c0 1.041-.986 5-2 5v1l9 4Z"/><path fill="#197C63" id="SSp-ll5" d="M177 57c-10.963 0-20.695 10-32 10 0-3.926-5-7.61-5-12 12.315 0 30.193-16 41-16 0 6.15-3 11.18-3 17l-1 1ZM317 56c0 1.58-4.701 11-6 11-8.928 0-25.52-11-32-11 0-5.209-4-11.52-4-17 11.945 0 28.658 16 42 16v1Z"/><path fill="#188060" id="SSp-bfd1" d="m63 86-2 1c0-1.643-3.766-1-5-1 0-2.863 9.474-10.448 11-13.5 4.426-8.852 20.9-20.2 31.5-25.5 2.905-1.453 7.248-6 10.5-6l1 6c-3.031 0-6.805 4.653-9.5 6-8.976 4.488-26.585 15.67-31.5 25.5-.987 1.973-6 4.283-6 7.5Z"/><path fill="#3EA566" id="ACAd5" d="M218 59c-3.97 0-7.109 6-11 6 0-4.607-1-10.052-1-14v-1c4.038 0 7.186-9 11-9l1 18ZM239 60c4.409 0 6.765 5 10 5 0-4.869 1-9.648 1-14 0-2.137-7.82-10-10-10h-1v19Z"/><path fill="#188060" id="SSp-bfd1" d="M394 85c1.564 0 3.876 1 6 1 0-4.272-7.538-8.576-9-11.5-5.39-10.78-23.742-22.621-33.5-27.5-2.695-1.347-6.469-6-9.5-6 0 1.564-1 3.876-1 6l5.5 3c6.412 3.206 11.55 8.775 18 12L394 85Z"/><path fill="#1C7F63" id="SSp-un2/3" d="M113 60h1l8-4-3-13-9 4c0 4.332 3 8.33 3 13ZM334 56l9 4c0-4.596 3-8.27 3-13l-9-4c0 4.885-3 8.584-3 13Z"/><path fill="#187F63" id="SSp-bfd2/3" d="m75 86-1 1c0-2.151-9.56-1-11-1 0-3.217 5.013-5.527 6-7.5 4.915-9.83 22.524-21.012 31.5-25.5 2.695-1.347 6.469-6 9.5-6 0 4.332 3 8.33 3 13L91.5 71C87.86 72.82 76.51 85 75 85c-1.186 0-1.186 1 0 1Z"/><path fill="#1D9C5A" id="MOs6a" d="M191 69h1c0-1.58 2.855-1 4-1 0-3.23 7.419-17 10-17v-1l-5.5-3c-2.542-1.271-5.368 2-7.5 2 0 6.565-3 12.69-3 20h1ZM261 68l5 1c0-7.422-3-15.722-3-20-2.696 0-12-5.032-12 2 0 5.462 10 11.041 10 17Z"/><path fill="#187F63" id="SSp-bfd2/3" d="M382 86h12v-1l-23.5-23c-6.45-3.225-11.588-8.794-18-12l-5.5-3h-1c0 4.73-3 8.404-3 13 4.139 0 30.041 15.582 32 19.5l6 6.5h1Z"/><path fill="#1A7F63" id="SSp-ul4" d="M123 56c0 2.41 1 5.181 1 7l11.5-6c1.158-.58 3.5.341 3.5-2 0-2.483-2-4.026-2-6l-14 7Z"/><path fill="#1F9B5A" id="MOp6a" d="m183 73-7 1 1-17 1-1 15-7c0 6.565-3 12.69-3 20l-2 2c-1.622 0-5-.46-5 2ZM266 69l15 6c0-4.98-2-12.473-2-19-5.571 0-10.239-7-16-7 0 4.278 3 12.578 3 20Z"/><path fill="#1A7F63" id="SSp-ul4" d="M332 63h1c0-2.41 1-5.181 1-7l-15-7c0 2.72-2 3.553-2 6v1c5.23 0 10.123 7 15 7Z"/><path fill="#3FA664" id="ACAd6a" d="M200 72h1c0-1.901 4.332-5 6-5v-2c0-4.607-1-10.052-1-14-2.581 0-10 13.77-10 17l4 4ZM260 69c-2.54 0-2.543 3-4 3l-7-6v-1c0-4.869 1-9.648 1-14h1c0 5.462 10 11.041 10 17l-1 1Z"/><path fill="#187E62" id="SSp-ul5" d="m145 68-18 7-3-12 11.5-6c1.158-.58 3.5.341 3.5-2h1c0 4.39 5 8.074 5 12v1Z"/><path fill="#197E61" id="SSp-un4" d="M115 69h1l8-6c0-1.819-1-4.59-1-7h-1l-8 4 1 9Z"/><path fill="#1A7F64" id="SSp-ll6a" d="M302 81h1c0-5.376 8-8.112 8-13v-1c-8.928 0-25.52-11-32-11 0 6.527 2 14.02 2 19l21 6Z"/><path fill="#187E62" id="SSp-ul5" d="m311 68 18 7 3-12c-4.877 0-9.77-7-15-7 0 1.58-4.701 11-6 11v1Z"/><path fill="#197E61" id="SSp-un4" d="m333 63 8 6c0-3.117 2-5.985 2-9l-9-4c0 1.819-1 4.59-1 7Z"/><path fill="#1A7F64" id="SSp-ll6a" d="M153 81h1l22-6v-1l1-17c-10.963 0-20.695 10-32 10v1c0 2.52 8 8.348 8 13Z"/><path fill="#40A664" id="ACAv1" d="M223 61h10v-4h-10v4Z"/><path fill="#3FA566" id="ACAv2/3" d="M223 74c-1.482 0-1.576 5-5 5V59l5-1v16ZM233 71c2.024 0 .229 8 5 8l1-19v-1l-6-1v13Z"/><path fill="#3EA666" id="ACAv5" d="M211 87c2.709 0 4.646 2 8 2l-1-8c-1.186 0-1.186-1 0-1V59c-3.97 0-7.109 6-11 6v2c2.064 0 .426 3.353 1 4.5 1.692 3.384 3 10.713 3 14.5v1Z"/><path fill="#197C64" id="SSp-bfd4" d="m90 86-1 1c-6.75 0-7.123-1-14-1v-1c1.51 0 12.86-12.18 16.5-14L113 60h1l1 9-5.5 4c-2.917 1.459-18.076 13-19.5 13Z"/><path fill="#1BA597" id="RSPv1" d="M229 83h1l3-1V61h-10v21l4 1c0-2.564 2-2.564 2 0Z"/><path fill="#3EA666" id="ACAv5" d="M245 87c-2.709 0-4.646 2-8 2l1-8c1.186 0 1.186-1 0-1v-1l1-19c4.409 0 6.765 5 10 5v1l-3 19-1 1v1Z"/><path fill="#197C64" id="SSp-bfd4" d="M367 87h1c6.064 0 9.514-1 13-1l-6-6.5c-1.959-3.918-27.861-19.5-32-19.5 0 3.015-2 5.883-2 9l20.5 13 5.5 5Z"/><path fill="#197D62" id="SSp-un5" d="m127 76-10 5-1-12 8-6 3 12v1ZM329 76l10 5c0-4.968 2-9.046 2-12l-8-6h-1l-3 12v1Z"/><path fill="#40A564" id="ACAv6a" d="m248 84-2 1 3-19 7 6v1l-1 2c-2.185 0-7 7.198-7 9ZM209 84l2 2c0-3.787-1.308-11.116-3-14.5-.574-1.147 1.064-4.5-1-4.5-1.668 0-6 3.099-6 5 0 4.825 8 7.485 8 12Z"/><path fill="#197D61" id="SSp-ul6a" d="M133 91h2l4-2c0-4.427 14-5.397 14-8 0-4.652-8-10.48-8-13l-18 7v1c3.124 0 2.712 15 6 15Z"/><path fill="#1E9C58" id="MOs6b" d="M192 69h4v-1c-1.145 0-4-.58-4 1Z"/><path fill="#3FA466" id="ACAd6b" d="M200 72v1l-4-4v-1l4 4ZM260 69h1v-1l-1 1Z"/><path fill="#1E9C58" id="MOs6b" d="M266 69v1l-5-1v-1l5 1Z"/><path fill="#197D61" id="SSp-ul6a" d="M303 81c6.258 0 15.773 11 21 11l5-16v-1l-18-7c0 4.888-8 7.624-8 13Z"/><path fill="#1A7D62" id="SSp-bfd5" d="M90 87c6.643 0 8.238 2 15 2 4.345 0 7.585-7 12-7v-1l-1-12h-1l-5.5 4c-2.917 1.459-18.076 13-19.5 13v1Z"/><path fill="#1D9D5A" id="MOp6b" d="M191 70c0 1.473-1.952 1-3 1l2-2h1v1Z"/><path fill="#1E9C58" id="MOs6b" d="m192 69-1 1v-1h1Z"/><path fill="#CACCC7" id="cing" d="M211 86v1c-7.831 0-13.01-7.755-19.5-11-4.096-2.048-16.008 4-20.5 4l-2 1h-8c0-1.062 13.284-5 15-5 1.147 0 7-1.733 7-3 1.424 0 5-.362 5-2 1.048 0 3 .473 3-1l1-1h4l4 4c0 2.124 5.961 11 9 11l2 2Z"/><path fill="#3FA466" id="ACAd6b" d="M256 73h1l3-4c-2.54 0-2.543 3-4 3v1Z"/><path fill="#CACCC7" id="cing" d="M245 86v1c8.178 0 12.75-7.625 19.5-11 4.995-2.498 13.371 3 18.5 3l1 1h1c2.978 0 6.49 1 10 1 0-3.209-14-2.775-14-5-2.076 0-15-4.225-15-6l-5-1h-1l-3 4-2 2c0 2.008-4.493 9-7 9l-2 1-1 1Z"/><path fill="#1D9D5A" id="MOp6b" d="M281 75v1c-2.076 0-15-4.225-15-6v-1l15 6Z"/><path fill="#1A7D62" id="SSp-bfd5" d="M367 87c-6.592 0-10.182 2-16 2-4.078 0-7.395-7-12-7v-1c0-4.968 2-9.046 2-12l20.5 13 5.5 5Z"/><path fill="#1D9D5A" id="MOp6b" d="M188 71c-1.622 0-5-.46-5 2 1.424 0 5-.362 5-2Z"/><path fill="#1AA597" id="RSPv2/3" d="M233 81h5v-2c-4.771 0-2.976-8-5-8v10Z"/><path fill="#40A465" id="ACAv6b" d="M200 73c0 2.124 5.961 11 9 11 0-4.515-8-7.175-8-12h-1v1Z"/><path fill="#1D9D5A" id="MOp6b" d="M176 75v1c1.147 0 7-1.733 7-3l-7 1v1Z"/><path fill="#40A465" id="ACAv6b" d="m257 73-2 2 1-2h1Z"/><path fill="#1AA597" id="RSPv2/3" d="M218 81h5v-7c-1.482 0-1.576 5-5 5v2Z"/><path fill="#197F62" id="SSp-ll6b" d="m161 81-6 1-1-1 22-6v1c-1.716 0-15 3.938-15 5Z"/><path fill="#40A465" id="ACAv6b" d="M255 75c-2.185 0-7 7.198-7 9 2.507 0 7-6.992 7-9Z"/><path fill="#197F62" id="SSp-ll6b" d="M302 81v2c-2.16 0-4.167-2-7-2 0-3.209-14-2.775-14-5v-1l21 6Z"/><path fill="#1A7F61" id="SSp-un6a" d="M119 99h2c0-2.762 4.409-4 7-4 0-1.803 3.592-3 5-3v-1c-3.288 0-2.876-15-6-15l-10 5v1c1.683 0 2.953 8.594 2 10.5-.387.774-2 2.855-2 3.5 0 1.238.423 3 2 3Z"/><path fill="#C9C7C9" id="ccb" d="M379 174h2v-3l-1-2v-1l-1-2-1-7-1-1v-1l-2-4v-1l-8-15v-1c-1.539 0-7.169-9.838-8-11.5-3.147-6.293-19.471-19.986-26.5-23.5-11.479-5.74-23.505-10.252-35-16-1.951-.975-12.5-2.389-12.5-5h-1l-1-1c-5.129 0-13.505-5.498-18.5-3-6.75 3.375-11.322 11-19.5 11-2.709 0-4.646 2-8 2l-3-1-4.5 1-1-2c-.229 0-5.5 4.534-5.5 1h-1l-3 1c-3.354 0-5.291-2-8-2-7.831 0-13.01-7.755-19.5-11-4.096-2.048-16.008 4-20.5 4l-2 1c0 2.076-7.932 3.216-9.5 4-10.391 5.195-21.632 8.816-32 14-8.81 4.405-16.498 11.498-24 19l-8.5 9c0 1.417-2.383 6-4 6l-2 4-4 8-2 4-1 2-1 2c0 1.465.109 4-2 4v2l-1 2v2l-1 1v3l-1 2-1 5h3c0-7.383 3.895-14.291 7-20.5 12.13-24.261 26.317-39.909 51.5-52.5l9.5 1c0-2.421 4.519-7 7-7l2-1 1-1h2l1-1c1.327 0 12.746-4.123 14.5-5 .932-.466 15.536 2 17.5 2 7.764 0 13.12 6 20 6h14.5l3 2c5.283-2.641 11.124-2 17.5-2 6.239 0 11.642-6 19-6 2.026 0 16.557-2.472 17.5-2 2.155 1.078 13.578 5 15.5 5l1 1h1c3.605 0 10 5.11 10 9l9.5-1 11 4c17.655 8.827 32.579 31.658 40.5 47.5 2.969 5.938 8 14.628 8 21.5Z"/><path fill="#1A7F61" id="SSp-un6a" d="M340 95c0 1.429-1.288 4-3 4l-13-7 5-16 10 5v1c0 3.681-4.739 13 1 13Z"/><path fill="#C9C9CA" id="scwm" d="m283 79 1 1-1-1ZM171 80l-2 1 2-1Z"/><path fill="#1BA498" id="RSPv5" d="M218 80c-1.186 0-1.186 1 0 1v-1ZM238 80c1.186 0 1.186 1 0 1v-1Z"/><path fill="#C9C9CA" id="scwm" d="M365 130c0 2.447 2 3.28 2 6-1.539 0-7.169-9.838-8-11.5-3.147-6.293-19.471-19.986-26.5-23.5-11.479-5.74-23.505-10.252-35-16-1.951-.975-12.5-2.389-12.5-5 2.978 0 6.49 1 10 1 2.833 0 4.84 2 7 2 8.175 0 14.444 10 22 10 0 2.155 6.965 3.233 8.5 4l4.5 4 7.5 6c4.486 4.486 20.5 19.031 20.5 23Z"/><path fill="#1C8064" id="SSp-ul6b" d="M155 82c0 1.951-2.454.477-3.5 1-3.704 1.852-8.16 6-12.5 6 0-4.427 14-5.397 14-8h1l1 1Z"/><path fill="#C9C9CA" id="scwm" d="M95 124v3l8.5-9c7.502-7.502 15.19-14.595 24-19 10.368-5.184 21.609-8.805 32-14 1.568-.784 9.5-1.924 9.5-4h-8l-6 1c0 1.951-2.454.477-3.5 1-3.704 1.852-8.16 6-12.5 6 0 2.109-2.535 2-4 2l-2 2c-1.624 0-2.75 2-5 2 0 1.504-5.699 4-7 4l-1 2c-2.757 0-4.081 4-7 4l-2 2c0 1.747-.253 2-2 2l-2 2-2 2c0 1.747-.253 2-2 2l-8 9Z"/><path fill="#3FA566" id="ACAv2/3" d="m222 88-3 1-1-8h5v6l-1 1ZM234 88l3 1 1-8h-5v1l1 5v1Z"/><path fill="#1C8064" id="SSp-ul6b" d="M324 92v1c-7.556 0-13.825-10-22-10v-2h1c6.258 0 15.773 11 21 11Z"/><path fill="#198060" id="SSp-bfd6a" d="M105 90c3.778 0 10.039 6 12 6 0-.645 1.613-2.726 2-3.5.953-1.906-.317-10.5-2-10.5-4.415 0-7.655 7-12 7v1Z"/><path fill="#40A664" id="ACAv1" d="m227 83-4 3v-4l4 1ZM230 83l4 4-1-5-3 1Z"/><path fill="#198060" id="SSp-bfd6a" d="m351 90-11 5c-5.739 0-1-9.319-1-13 4.605 0 7.922 7 12 7v1Z"/><path fill="#7ED04B" id="IG" d="M223 88c0 3.534 5.271-1 5.5-1l1 2 4.5-1v-1l-4-4h-1c0 1.93-1.161 0-2 0l-4 3v2Z"/><path fill="#1B7F64" id="SSp-n2/3" d="m54 101 8 6 5-9.5L74 87c0-2.151-9.56-1-11-1l-2 1-7 14ZM75 85c-1.186 0-1.186 1 0 1v-1Z"/><path fill="#1A8062" id="SSp-n4" d="M68 112h1c0-5.437 20-24.467 20-25-6.75 0-7.123-1-14-1l-1 1-7 10.5-5 9.5v1l6 4Z"/><path fill="#40A564" id="ACAv6a" d="m246 85-1 1 1-1Z"/><path fill="#1A8062" id="SSp-n4" d="m394 108-6 4c0-4.634-20-23.708-20-25 6.064 0 9.514-1 13-1h1c0 5.52 12 14.117 12 21v1Z"/><path fill="#1B7F64" id="SSp-n2/3" d="M403 102c-3.672 0-5.416 5-9 5 0-6.883-12-15.48-12-21h12l9 15v1Z"/><path fill="#197E63" id="SSp-n1" d="m407 98-4 3-9-15v-1c1.564 0 3.876 1 6 1 1.923 0 7 9.936 7 12ZM53 101h1l7-14c0-1.643-3.766-1-5-1 0 4.312-7 8.147-7 13l4 2Z"/><path fill="#1A8062" id="SSp-n4" d="M89 87h1v-1l-1 1Z"/><path fill="#197E62" id="SSp-n5" d="M77 119h1c0-6.356 20.732-29 27-29v-1c-6.762 0-8.357-2-15-2h-1c0 .533-20 19.563-20 25l8 7Z"/><path fill="#A8AAAA" id="VL" fill-rule="evenodd" d="m175 90-4 2.5v11c-2.34 4.679-7.778 6.556-10 11-.769 1.538 1.242 3.871 2.5 4.5 5.993 2.997 35.511-29 11.5-29m-26 13 9 12.5c.623 1.245 2.09 9.5 3 9.5 3.843 0 7.928-6.714 10.5-8l15-7c4.318-2.159-2.586-9 3.5-9 0-2.478-4.531-4.438-3-7.5l4-4.5c-1.964 0-16.568-2.466-17.5-2-1.754.877-13.173 5-14.5 5l-1 1h-2l-1 1-2 1c0 2.622-4 4.285-4 8Z"/><path fill="#40A664" id="ACAv1" d="M222 88h1v-1l-1 1Z"/><path fill="#A8AAAA" id="VL" fill-rule="evenodd" d="M278 90c0 1.089-7.987 4.526-6 8.5 1.837 3.674 2.596 8.548 6.5 10.5 4.608 2.304 7.469 7.734 12 10 2.536 1.268 5.62-3.259 4.5-5.5l-8-7c-3.22-6.441.975-16.5-9-16.5m17 35h1c0-8.893 11-18.006 11-22 0-6.823-7-7.876-7-10h-1l-1-1c-1.922 0-13.345-3.922-15.5-5-.943-.472-15.474 2-17.5 2l4 3.5c1.513 3.025-2 5.87-2 8.5 2.644 0 1.177 8.339 6.5 11 2.65 1.325 21.5 11.143 21.5 13Z"/><path fill="#197E62" id="SSp-n5" d="M378 119h1l9-7c0-4.634-20-23.708-20-25h-1c-6.592 0-10.182 2-16 2v1c7.212 0 27 22.273 27 29Z"/><path fill="#1C8064" id="SSp-ul6b" d="m139 89-4 2c1.465 0 4 .109 4-2Z"/><path fill="#C7C8CC" id="alv" fill-rule="evenodd" d="m193 93-2 2.5c0 4.585 17.838 9.324 20 5 2.254-4.508-14.375-7.5-18-7.5m-3 8c1.654 0 6.811 3.155 8.5 4H211c0-.4 4-3.573 4-8h-1l-1-1-2-1c-6.88 0-12.236-6-20-6l-4 4.5c-1.531 3.062 3 5.022 3 7.5ZM256 93l-11 5.5c-1.785 3.57 5.018 3.5 7 3.5 8.84 0 21.318-9 4-9m11 8c-1.654 0-6.811 3.155-8.5 4H245l-4-3.5 1-4.5 4-2c6.239 0 11.642-6 19-6l4 3.5c1.513 3.025-2 5.87-2 8.5Z"/><path fill="#187D62" id="SSp-n6a" d="m95 124-4 5c-2.13 0-13-9.099-13-10 0-6.356 20.732-29 27-29 3.778 0 10.039 6 12 6 0 1.238.423 3 2 3v1c-1.442 0-6 3.274-6 5-1.747 0-2 .253-2 2-1.747 0-2 .253-2 2-1.747 0-2 .253-2 2-1.747 0-2 .253-2 2-1.747 0-2 .253-2 2-3.464 0-8 5.792-8 9Z"/><path fill="#A9AAA8" id="chpl" d="m175 90-4 2.5v11c-2.34 4.679-7.778 6.556-10 11-.769 1.538 1.242 3.871 2.5 4.5 5.993 2.997 35.511-29 11.5-29ZM278 90c0 1.089-7.987 4.526-6 8.5 1.837 3.674 2.596 8.548 6.5 10.5 4.608 2.304 7.469 7.734 12 10 2.536 1.268 5.62-3.259 4.5-5.5l-8-7c-3.22-6.441.975-16.5-9-16.5Z"/><path fill="#187D62" id="SSp-n6a" d="M378 119c0 1.451-9.911 10-12 10-2.81 0-3.912-6.324-5-8.5-.937-1.874-21.965-20.5-24-20.5v-1c1.712 0 3-2.571 3-4l11-5c7.212 0 27 22.273 27 29Z"/><path fill="#1C8064" id="SSp-ul6b" d="M133 92v1l2-2h-2v1Z"/><path fill="#1A7D63" id="SSp-un6b" d="M133 93c-1.624 0-2.75 2-5 2 0-1.803 3.592-3 5-3v1Z"/><path fill="#AAA8A9" id="SEZ" d="m159 92-1 1 1-1ZM298 92l1 1-1-1Z"/><path fill="#1A7D63" id="SSp-un6b" d="M337 100v1l-4.5-4c-1.535-.767-8.5-1.845-8.5-4v-1l13 7v1Z"/><path fill="#AAA8A9" id="SEZ" d="m156 93-1 1 1-1Z"/><path fill="#7ECF49" id="CA3" d="m193 93-2 2.5c0 4.585 17.838 9.324 20 5 2.254-4.508-14.375-7.5-18-7.5ZM256 93l-11 5.5c-1.785 3.57 5.018 3.5 7 3.5 8.84 0 21.318-9 4-9Z"/><path fill="#AAA8A9" id="SEZ" d="M310 102c0 1.473-1.952 1-3 1 0-6.823-7-7.876-7-10 3.605 0 10 5.11 10 9ZM155 94l-2 1 2-1Z"/><path fill="#1A7D63" id="SSp-un6b" d="M128 95c-2.591 0-7 1.238-7 4 1.301 0 7-2.496 7-4Z"/><path fill="#AAA8A9" id="SEZ" d="m146 102 3 1c0-3.715 4-5.378 4-8-2.481 0-7 4.579-7 7Z"/><path fill="#CBC8CC" id="df" d="m215 97 15.5 2c2.966-1.483 8.06-2 11.5-2l4-2c-6.376 0-12.217-.641-17.5 2l-3-2H211l2 1 1 1h1Z"/><path fill="#1A7E62" id="SSs1" d="M420 171h1l4-1c0-18.103-3.345-41.191-11-56.5-1.039-2.078-5.353-15.5-7-15.5l-4 3v1l9 22.5c5.578 11.156 8 32.966 8 46.5ZM31 170l5 1c0-11.54 4.396-39.292 9-48.5 2.8-5.601 8-15.1 8-21.5l-4-2c-2.165 0-5.908 14.315-7 16.5-6.674 13.348-11 38.624-11 54.5Z"/><path fill="#1A7D63" id="SSp-un6b" d="m119 100 1 1 1-2h-2v1Z"/><path fill="#1B7E64" id="SSp-n6b" d="M120 101c-2.757 0-4.081 4-7 4 0-1.726 4.558-5 6-5l1 1ZM365 130h1v-1c-2.81 0-3.912-6.324-5-8.5-.937-1.874-21.965-20.5-24-20.5v1l7.5 6c4.486 4.486 20.5 19.031 20.5 23Z"/><path fill="#1B8063" id="SSs2/3" d="M36 171h8c0-10.404 7.664-39.828 12-48.5l6-14.5v-1l-8-6h-1c0 6.4-5.2 15.899-8 21.5-4.604 9.208-9 36.96-9 48.5Z"/><path fill="#98D5F9" id="CP" d="M97 224v1c2.717 0 5.563 4.531 8.5 6 6.864 3.432 21.386 2.727 25.5-5.5V216l-4-8.5c-2.892-5.783 1.678-31.356 4-36 1.077-2.153 3.973-12.5 7-12.5 0-7.123-2.294-21 7-21 3.157 0 5.481 2 9 2l2-1h1v-2l1-1 1-2v-3l1-1v-2l1-2v-1c-.91 0-2.377-8.255-3-9.5l-9-12.5-3-1-9.5-1c-25.183 12.591-39.37 28.239-51.5 52.5-3.105 6.209-7 13.117-7 20.5 0 14.965 4.902 23.303 11 35.5 1.036 2.072 4.512 13.5 7 13.5l1 1Z"/><path fill="#CBC8CB" id="fi" d="M189 131c-6.01 0-30 16.789-30 3v-3l1-1v-2l1-2v-1c3.843 0 7.928-6.714 10.5-8l15-7c4.318-2.159-2.586-9 3.5-9 1.654 0 6.811 3.155 8.5 4H213c0 6.147-4 10.913-4 12l-1 1-1 1-1 2h-1l-2 2c-1.098 0-10 5.578-10 6l-2 1-2 1ZM297 130v3c0 16.736-25.728-4-33-4h-1l-14-10c0-2.203-6-6.413-6-14h15.5c1.689-.845 6.846-4 8.5-4 2.644 0 1.177 8.339 6.5 11 2.65 1.325 21.5 11.143 21.5 13l1 2v2l1 1Z"/><path fill="#98D5F9" id="CP" d="m360 224-1 1c-2.014 0-8.367 5.933-10.5 7-7.285 3.643-20.077-.654-23.5-7.5V216l1-1 3-6.5c1.084-2.167 1.175-21.649 0-24-3.059-6.118-2.91-13.82-6-20l-4-5.5c0-5.723 1.242-21-7-21l-9 2-3-1-3-6v-3l-1-1v-4c0-8.893 11-18.006 11-22 1.048 0 3 .473 3-1l9.5-1 11 4c17.655 8.827 32.579 31.658 40.5 47.5 2.969 5.938 8 14.628 8 21.5 0 6.637-2 11.661-2 18-1.817 0-4 7.169-4 9-1.794 0-4 6.51-4 8-2.109 0-2 2.535-2 4-2.109 0-2 2.535-2 4-1.391 0-5 5.706-5 7Z"/><path fill="#1B8063" id="SSs2/3" d="M412 171h8c0-13.534-2.422-35.344-8-46.5l-9-22.5c-3.672 0-5.416 5-9 5v1c1.907 0 4.112 10.725 5 12.5 5.651 11.302 13 37.023 13 50.5Z"/><path fill="#C8C9C9" id="vhc" d="M209 117c3.651 0 4.558-2.529 7.5-4h23l9.5 6c0-2.203-6-6.413-6-14h-30c0 6.147-4 10.913-4 12Z"/><path fill="#1B7E64" id="SSp-n6b" d="M113 105c-1.747 0-2 .253-2 2l2-2ZM111 107c-1.747 0-2 .253-2 2 1.747 0 2-.253 2-2Z"/><path fill="#187C63" id="SSs4" d="m44 171 5 1c0-5.249 7.643-36.786 10-41.5 1.526-3.053 9-16.053 9-18.5l-6-4-6 14.5c-4.336 8.672-12 38.096-12 48.5ZM412 171l-5 1c0-8.475-6.354-35.208-10-42.5l-9-17.5 6-4c1.907 0 4.112 10.725 5 12.5 5.651 11.302 13 37.023 13 50.5Z"/><path fill="#1B7E64" id="SSp-n6b" d="M109 109c-1.747 0-2 .253-2 2l2-2ZM107 111c-1.747 0-2 .253-2 2l2-2Z"/><path fill="#1C8063" id="SSs5" d="M49 172c4.077 0 8.431 1 13 1 0-9.863 3.862-29.223 8-37.5 2.18-4.358 7-11.553 7-16.5l-8-7h-1c0 2.447-7.474 15.447-9 18.5-2.357 4.714-10 36.251-10 41.5ZM407 172c-4.077 0-8.431 1-13 1 0-11.052-4.46-32.421-9-41.5l-6-12.5 9-7 9 17.5c3.646 7.292 10 34.025 10 42.5Z"/><path fill="#1B7E64" id="SSp-n6b" d="M105 113c-1.747 0-2 .253-2 2 1.747 0 2-.253 2-2ZM103 115c-3.464 0-8 5.792-8 9l8-9Z"/><path fill="#A8A9AA" id="V3" fill-rule="evenodd" d="M241 127c0 .435-6.076 3.652-7 5.5-1.184 2.368 2.21 3.855 3.5 4.5 8.227 4.114 10.348-10 3.5-10m-28 0c0 1.984-3.278 3.945-2 6.5 6.603 13.207 20.702-6.5 2-6.5m2 15 14.5 4c3.24-1.62 7.708-4 11.5-4 0-1.473 1.952-1 3-1l9-8 1-2v-3c0-8.337-11.768-10.134-17.5-13-2.466-1.233-7.543 1.729-9 1-1.584-.792-5.944-2.028-8-1-3.729 1.865-9.214 6-13.5 6h-1c0 1.747-.253 2-2 2l-1 7 1 2v1l10 8 2 1Z"/><path fill="#C8C9C9" id="vhc" d="m209 117-1 1 1-1ZM208 118l-1 1 1-1Z"/><path fill="#197D63" id="SSs6a" d="m62 173 12 1c0-4.608 3-9.001 3-13 0-1.623.005-6 2-6 0-2.254 3.816-14 6-14 0-1.856 1.782-7 4-7 0-1.465-.109-4 2-4v-1c-2.13 0-13-9.099-13-10h-1c0 4.947-4.82 12.142-7 16.5-4.138 8.277-8 27.637-8 37.5ZM382 174h1l11-1c0-11.052-4.46-32.421-9-41.5l-6-12.5h-1c0 1.451-9.911 10-12 10v1l7 12.5c4.603 9.205 9 20.493 9 31.5Z"/><path fill="#1B7E64" id="SSp-n6b" d="M91 130v1l4-4v-3l-4 5v1Z"/><path fill="#C9C9CA" id="scwm" d="M91 131v2c1.617 0 4-4.583 4-6l-4 4Z"/><path fill="#A9AAA8" id="chpl" d="M213 127c0 1.984-3.278 3.945-2 6.5 6.603 13.207 20.702-6.5 2-6.5ZM241 127c0 .435-6.076 3.652-7 5.5-1.184 2.368 2.21 3.855 3.5 4.5 8.227 4.114 10.348-10 3.5-10Z"/><path fill="#CCC9C8" id="sm" d="m255 129-1 2v-3l1 1Z"/><path fill="#FF8F9E" id="AD" d="M203 157c0 1.048.473 3-1 3l-15-24v-2l2-3 2-1 2-1c3.013 0 6.611 1 9 1l1 2v1l-1 14 1 2v8ZM253 156l1 4c2.335 0 13.714-24 16-24v-1c0-3.664-6-3.018-6-6h-9l-1 2-1 2c0 4.068 2 8.146 2 13l-1 2v1l-1 2v5Z"/><path fill="#1A8061" id="SSs6b" d="m91 133-2 1c0-1.465-.109-4 2-4v3Z"/><path fill="#CCC9C8" id="sm" d="m202 130 1 2-1-2Z"/><path fill="#1A8061" id="SSs6b" d="M381 174h1c0-11.007-4.397-22.295-9-31.5l-7-12.5h-1c0 2.447 2 3.28 2 6v1c3.324 0 8 12.474 8 15v1c2.109 0 2 2.535 2 4v1l1 1 1 7 1 2v1l1 2v3Z"/><path fill="#CCC9C8" id="sm" d="m254 131-1 2 1-2Z"/><path fill="#C9C9CA" id="scwm" d="M89 134v3l2-4-2 1Z"/><path fill="#CCC9C8" id="sm" d="m203 151 1 2c2.526 0 9-5.345 9-8v-4l-10-8-1 14 1 2v2ZM252 152h1v-1l1-2v-1l1-2c0-4.854-2-8.932-2-13l-9 8v4c0 3.364 4.908 7 8 7Z"/><path fill="#1A8061" id="SSs6b" d="m89 137-4 4c0-1.856 1.782-7 4-7v3Z"/><path fill="#FF6F80" id="TH" d="M186 136h1v-2l-1 1v1ZM183 136h2v-1l-2 1Z"/><path fill="#FF909D" id="LD" d="M185 136h1v-1h-1v1Z"/><path fill="#FF6F80" id="TH" d="M270 136h3c0-1.473-1.952-1-3-1v1Z"/><path fill="#97D6F9" id="STR" d="m158 136-1 1 1-1Z"/><path fill="#FD909E" id="AV" d="M190 168c-2.005 0-5 6.537-5 8-2.196 0-6-6.304-6-8 0-1.01-3.433-10-4-10v-2l-1-1v-1l-1-1v-2l-1-1v-1l-1-2v-1c0-2.765 2-5.165 2-7 3.298 0 6.216-3 10-3h4l15 24-1 2c-1.664 0-11 4.17-11 6ZM278 167c0 2.287-4.711 9-7 9 0-1.914-3.173-9-5-9l-11-5-1-2c2.335 0 13.714-24 16-24h3c4.048 0 6.597 3 10 3 0 .956 2 3.596 2 8v2l-1 1v1l-1 1v2l-1 1v1l-1 2v2c-1.473 0-1 1.952-1 3l-2 4Z"/><path fill="#C9C9CA" id="scwm" d="M85 141v4l4-8-4 4ZM367 137c3.324 0 8 12.474 8 15l-8-15Z"/><path fill="#CCC" d="M154 184v1c1.647 0 6.588 15.544 9.5 17 4.863 2.432 3.283-7.934 2.5-9.5l-14-31c-1.969-3.937 3-5.877 3-8.5 0-3.554-7-4.955-7-9l-3-6c-9.294 0-7 13.877-7 21 4.312 0 15 20.094 15 24l1 1Z"/><path fill="#97D6F9" id="STR" d="m153 142-5 2-3-6c3.157 0 5.481 2 9 2l-1 2ZM309 143l-1 1-4-1-1-3 9-2-3 5Z"/><path fill="#CCC" d="m302 186-1 2c-1.41 0-5.147 12.323-8.5 14-2.782 1.391-3.2-7.1-2.5-8.5 2.671-5.343 11-20.113 11-25.5 1.638 0 2-3.576 2-5 3.611 0 1.834-10-2-10 0-3.218 7-5.402 7-9l1-1 3-5c8.242 0 7 15.277 7 21-5.492 0-16 20.013-16 25l-1 1v1Z"/><path fill="#C8CBC7" id="st" d="M163 149c0 1.465.109 4-2 4-4.058 0-8-7.304-8-11l1-2 2-1c0 1.279 7 1.091 7 10Z"/><path fill="#CAC7CB" id="fiber tracts" d="M165 144c0 .671-1.328 5-2 5 0-8.909-7-8.721-7-10h1c2.073 0 8 2.359 8 5Z"/><path fill="#FF6F80" id="TH" d="m167 143 4 3c0-2.765 2-5.165 2-7-1.664 0-6 1.823-6 4ZM289 143l-4 4c0-4.404-2-7.044-2-8 2.244 0 6 1.725 6 4Z"/><path fill="#CAC7CB" id="fiber tracts" d="M300 139c-1.424 0-5 .362-5 2 1.622 0 5 .461 5-2Z"/><path fill="#C8CBC7" id="st" d="m293 147 1 5c2.934 0 10-4.17 10-9l-1-3-3-1c0 2.461-3.378 2-5 2 0 1.714-2 3.482-2 6Z"/><path fill="#1A8061" id="SSs6b" d="m81 153-2 2c0-2.254 3.816-14 6-14v4c-2.109 0-2 2.535-2 4l-1 2-1 2Z"/><path fill="#FF6F80" id="TH" d="m215 144-2 1v-4l2 1v2ZM242 144l2 1v-4c-1.048 0-3-.473-3 1l1 2Z"/><path fill="#CAC7CB" id="fiber tracts" d="m291 144 2 3c0-2.518 2-4.286 2-6l-4 2v1ZM161 153l-4 3-2-3c0-3.554-7-4.955-7-9l5-2c0 3.696 3.942 11 8 11Z"/><path fill="#FE8F9E" id="PVT" d="M225 172c1.146 0 6-2.893 6 1 1.981 0 4-10.688 4-13 0-3.406.589-7.679 2-10.5l5-5.5-1-2c-3.792 0-8.26 2.38-11.5 4l-14.5-4v2c0 .95 6 9.594 6 16 0 4.635 4 8.067 4 12Z"/><path fill="#FD8F9F" id="RT" d="M203 207c-3.441 0-9.054-4.223-13.5-2-2.322 1.161-5.836 3-8.5 3-2.737 0-7.657-.813-9-3.5-2.63-5.26-2.389-11.778-5-17l-11-19c-.937-1.874-4.854-12.5 1-12.5l4-3c2.109 0 2-2.535 2-4 .672 0 2-4.329 2-5l2-1 4 3v1l1 2v1l1 1v2l1 1v1l1 1v2l2 10c0 4.36 4.661 22 10 22l3 3 2 1 2 1 2 2h1l1 1h1c0 .289 11.166 9 4 9ZM254 207c2.995 0 8.312-4.094 12.5-2 2.322 1.161 5.836 3 8.5 3 12.918 0 9.992-11.484 14-19.5l6-10c.887-1.774 3.776-10.5 6-10.5 0-1.424.362-5 2-5 0-4.611-4-6.638-4-8-1.408 0-5-1.197-5-3l-1-5-2-3-1-1h-1l-4 4v2l-1 1v1l-1 1v2l-1 1v1l-1 2v2c0 1.048.473 3-1 3 0 1.145.579 4-1 4 0 4.782-2.68 22-9 22 0 2.041-.959 3-3 3l-1 1h-1l-1 1-1 1h-1l-1 1-1 1h-1l-1 1c0 .815-13.53 9-4 9Z"/><path fill="#FF6F80" id="TH" d="M291 143v1l-1-1h1Z"/><path fill="#CAC7CB" id="fiber tracts" d="m301 153-2 2c-1.408 0-5-1.197-5-3 2.934 0 10-4.17 10-9l4 1c0 3.598-7 5.782-7 9ZM309 143l-1 1 1-1Z"/><path fill="#FD909D" id="MD" d="m221 160-7.5 4c-1.956.978-4.077-1-5.5-1l-4-6v-4c2.526 0 9-5.345 9-8l2-1c0 .95 6 9.594 6 16ZM235 160c2.361 0 7.509 4 12 4l6-8v-1c-1.473 0-1-1.952-1-3-3.092 0-8-3.636-8-7l-2-1-5 5.5c-1.411 2.821-2 7.094-2 10.5Z"/><path fill="#C9C9CA" id="scwm" d="M85 145c-2.109 0-2 2.535-2 4l2-4Z"/><path fill="#FF6F80" id="TH" d="m255 146-1 2 1-2ZM171 147l1 2-1-2ZM202 147l1 2-1-2Z"/><path fill="#C9C9CA" id="scwm" d="m83 149-1 2 1-2Z"/><path fill="#FF6F80" id="TH" d="m254 149-1 2 1-2ZM285 149l-1 1 1-1ZM172 150l1 1-1-1Z"/><path fill="#C9C9CA" id="scwm" d="m82 151-1 2 1-2Z"/><path fill="#FF6F80" id="TH" d="M203 157h1v-4l-1-2v6ZM284 151l-1 1 1-1ZM253 152v3c-1.473 0-1-1.952-1-3h1Z"/><path fill="#C9C9CA" id="scwm" d="M79 155v2c2.109 0 2-2.535 2-4l-2 2Z"/><path fill="#8599CC" id="PAL" fill-rule="evenodd" d="M164 209c0 7.811 6.678 0 0 0m-21 16c0-4.43 5.851-2.676 8.5-4 7.916-3.958 14.5-1.44 14.5 8 1.014 0 2-3.959 2-5l1-1v-2l1-1v-1l1-1c0-1.429 1.288-4 3-4l1-1c0-1.533 3.753-4 5-4l1-1c-2.737 0-7.657-.813-9-3.5-2.63-5.26-2.389-11.778-5-17l-11-19c-.937-1.874-4.854-12.5 1-12.5l-2-3c0 2.623-4.969 4.563-3 8.5l14 31c.783 1.566 2.363 11.932-2.5 9.5-2.912-1.456-7.853-17-9.5-17 0 12.938 8.543 25.479-6.5 33-3.641 1.82-10.246-1-13.5-1 0 3.49 7 4.873 7 8h2Z"/><path fill="#FF6F80" id="TH" d="m173 153 1 1-1-1Z"/><path fill="#8599CC" id="PAL" d="M299 155c0 1.362 4 3.389 4 8 3.611 0 1.834-10-2-10l-2 2Z"/><path fill="#C9C9CA" id="scwm" d="M375 153c2.109 0 2 2.535 2 4l-2-4Z"/><path fill="#FF6F80" id="TH" d="m283 154-1 1 1-1Z"/><path fill="#1A8061" id="SSs6b" d="M74 174h1l1-5 1-2v-3l1-1v-2l1-2v-4c-1.995 0-2 4.377-2 6 0 3.999-3 8.392-3 13Z"/><path fill="#FF6F80" id="TH" d="m174 155 1 1-1-1Z"/><path fill="#FC8E9F" id="IAD" d="M239 185c0 1.747.253 2 2 2 0-6.654 14-20.627 14-25l-1-2-1-4-6 8c0 6.611-8 12.832-8 21Z"/><path fill="#FF6F80" id="TH" d="m282 156-1 2 1-2Z"/><path fill="#FC8E9F" id="IAD" d="m218 186-3 1c0-7.169-14-21.737-14-25l1-2c1.473 0 1-1.952 1-3h1l4 6c0 4.528 10 14.792 10 23Z"/><path fill="#FF6F80" id="TH" d="M177 168h2c0-1.01-3.433-10-4-10l2 10Z"/><path fill="#C9C9CA" id="scwm" d="m377 158 1 1-1-1ZM79 159l-1 2 1-2Z"/><path fill="#8598CC" id="GPe" d="m131 216 3 1c3.254 0 9.859 2.82 13.5 1 15.043-7.521 6.5-20.062 6.5-33v-1l-1-1c0-3.906-10.688-24-15-24-3.027 0-5.923 10.347-7 12.5-2.322 4.644-6.892 30.217-4 36l4 8.5ZM325 216l-2 1c-3.254 0-9.859 2.82-13.5 1-14.281-7.141-8.5-16.428-8.5-30l1-2v-1l1-1c0-4.987 10.508-25 16-25l4 5.5c3.09 6.18 2.941 13.882 6 20 1.175 2.351 1.084 21.833 0 24l-3 6.5-1 1Z"/><path fill="#FF909F" id="PT" d="M218 186h1c5.01 0 6-10.657 6-14 0-3.933-4-7.365-4-12l-7.5 4c-1.956.978-4.077-1-5.5-1 0 4.528 10 14.792 10 23ZM239 185l-2 1c-3.47 0-6-10.051-6-13 1.981 0 4-10.688 4-13 2.361 0 7.509 4 12 4 0 6.611-8 12.832-8 21Z"/><path fill="#FF6F80" id="TH" d="M281 160c-1.473 0-1 1.952-1 3 1.473 0 1-1.952 1-3Z"/><path fill="#FD8D9F" id="AMd" d="M207 193h2l1-1 3-1 2-4c0-7.169-14-21.737-14-25-1.664 0-11 4.17-11 6 1.893 0 10.175 25 17 25ZM248 193h2c3.638 0 16-22.346 16-26l-11-5c0 4.373-14 18.346-14 25l3 4 4 2Z"/><path fill="#C9C9CA" id="scwm" d="m78 163-1 1 1-1Z"/><path fill="#FF6F80" id="TH" d="M278 167h1c1.579 0 1-2.855 1-4l-2 4Z"/><path fill="#8599CC" id="PAL" d="M303 163c-1.638 0-2 3.576-2 5 1.638 0 2-3.576 2-5Z"/><path fill="#C9C9CA" id="scwm" d="m379 166 1 2-1-2ZM77 167l-1 2 1-2Z"/><path fill="#FC909D" id="AMv" d="M259 197h1l1-1 1-1h1l1-1 1-1 1-1 1-1v-1l1-1c0-3.823 3-8.037 3-13 0-1.914-3.173-9-5-9 0 3.654-12.362 26-16 26 0 3.899 4.847 5 8 5l1-1Z"/><path fill="#FD7E84" id="VAL" d="M268 189h2c6.32 0 9-17.218 9-22h-1c0 2.287-4.711 9-7 9 0 4.963-3 9.177-3 13ZM188 189l-1 1c-5.339 0-10-17.64-10-22h2c0 1.696 3.804 8 6 8 0 4.947 3 8.729 3 13Z"/><path fill="#FC909D" id="AMv" d="M198 198h1c2.528 0 8-1.611 8-5-6.825 0-15.107-25-17-25-2.005 0-5 6.537-5 8 0 4.947 3 8.729 3 13l1 1 1 1 2 3 2 1 2 2h1l1 1Z"/><path fill="#8599CC" id="PAL" fill-rule="evenodd" d="m290 209-1 3.5c.608 1.215 7.744-3.5 1-3.5m23 16h2l8-8c-3.254 0-9.859 2.82-13.5 1-14.281-7.141-8.5-16.428-8.5-30-1.41 0-5.147 12.323-8.5 14-2.782 1.391-3.2-7.1-2.5-8.5 2.671-5.343 11-20.113 11-25.5-2.224 0-5.113 8.726-6 10.5l-6 10c-4.008 8.016-1.082 19.5-14 19.5l1 1c1.247 0 5 2.467 5 4h1l1 1c0 1.481 2 .785 2 3l1 1 1 4 1 1c0 1.345 1.571 7 3 7 0-6.902 2.383-14.058 10.5-10 2.996 1.498 11.5.237 11.5 5Z"/><path fill="#C9C9CA" id="scwm" d="m380 169 1 2-1-2Z"/><path fill="#12AD83" id="VISC1" d="m41 198-6 2-2-5.5c-2.119-4.238-2-18.725-2-24.5l5 1 1 17.5 4 9.5ZM416 198l5 2c0-1.522 3.142-12.783 4-14.5V170l-4 1-2 18.5-3 8.5Z"/><path fill="#12AC83" id="VISC2/3" d="M50 195c-2.467 0-6.233 3-9 3l-4-9.5-1-17.5h8l1 13.5 5 10.5Z"/><path fill="#11AC82" id="VISC4" d="M50 195h1v-1c0-3.066-1.624-8.748-3-11.5l1-10.5-5-1 1 13.5 5 10.5Z"/><path fill="#FD8E9E" id="CM" d="M221 189c4.847 0 10.687 1 15 1l1-4c-3.47 0-6-10.051-6-13 0-3.893-4.854-1-6-1 0 3.343-.99 14-6 14 0 2.003-.293 3 2 3Z"/><path fill="#11AC82" id="VISC4" d="M405 195h2l5-13.5V171l-5 1c0 3.254 2.82 9.859 1 13.5-1.324 2.647-3 6.4-3 9.5Z"/><path fill="#12AC83" id="VISC2/3" d="M415 198h1l3-8.5 2-18.5h-9v10.5l-5 13.5c0 .951 6.869 3 8 3Z"/><path fill="#12AD82" id="VISC5" d="m51 194 1 1c4.514 0 8.092-2 13-2l-2-4.5-1-15.5c-4.569 0-8.923-1-13-1l-1 10.5c1.376 2.752 3 8.434 3 11.5ZM404 195h1c0-3.1 1.676-6.853 3-9.5 1.82-3.641-1-10.246-1-13.5-4.077 0-8.431 1-13 1l-1 16.5-2 3.5c4.908 0 8.486 2 13 2Z"/><path fill="#11AC83" id="VISC6a" d="m77 190-12 3-2-4.5-1-15.5 12 1c0 1.235-.643 5 1 5v2c0 3.423 2 6.474 2 9ZM380 191c4.135 0 7.305 2 11 2l2-3.5 1-16.5-11 1c0 1.517-.726 9-2 9 0 2.409-1 5.181-1 7v1Z"/><path fill="#11AD82" id="VISC6b" d="M75 174v5c-1.643 0-1-3.765-1-5h1Z"/><path fill="#C8CBCC" id="ec" d="M111 240v1l-6-3-3-2-2-2-1-2c0-1.178-2.572-6-4-6l-10-20-2-3c0-3.8-4-6.579-4-10l-1-3c0-1.258-1.861-9-3-9v-7h3c0 14.965 4.902 23.303 11 35.5 1.036 2.072 4.512 13.5 7 13.5l1 1v1c0 1.518 5.218 8 7 8 0 1.933 5.006 7 7 7ZM377 192h1l1-2c0-1.774-.273-7 2-7v-9h-2c0 6.637-2 11.661-2 18Z"/><path fill="#11AD82" id="VISC6b" d="M383 174c0 1.517-.726 9-2 9v-9h2ZM77 190h1c0-1.258-1.861-9-3-9 0 3.423 2 6.474 2 9Z"/><path fill="#8599CC" id="PAL" d="m153 183 1 1-1-1Z"/><path fill="#11AD82" id="VISC6b" d="M379 190h1c0-1.819 1-4.591 1-7-2.273 0-2 5.226-2 7Z"/><path fill="#8599CC" id="PAL" d="m303 184-1 1 1-1Z"/><path fill="#FF6F80" id="TH" d="m236 190 8 1-3-4c-1.747 0-2-.253-2-2l-2 1-1 4ZM221 189c0 1.434-6.448 2-8 2l2-4 3-1h1c0 2.003-.293 3 2 3Z"/><path fill="#8599CC" id="PAL" d="m302 186-1 2 1-2Z"/><path fill="#FF7E84" id="VM" d="M190 191v2l-3-3 1-1 1 1 1 1Z"/><path fill="#FF6F80" id="TH" d="m188 189 1 1-1-1Z"/><path fill="#FD909F" id="RE" fill-rule="evenodd" d="m226 199-3 5.5 3.5 7.5c3.757 1.879 13.157-13-.5-13m2 18c0-.331 6.96 0 9 0 0-3.963 9.901-8.301 12-12.5 1.592-3.184-1-8.819-1-11.5l-4-2-8-1c-4.313 0-10.153-1-15-1 0 1.434-6.448 2-8 2l-3 1-1 1c0 2.608-3.889 6.723-2 10.5 3.537 7.073 11.482 13.5 20 13.5h1Z"/><path fill="#FF6F80" id="TH" d="m268 189-1 1 1-1Z"/><path fill="#FF7E84" id="VM" d="M267 191v1c2.041 0 3-.959 3-3h-2l-1 1v1Z"/><path fill="#209766" id="AIp6a" d="M75 213h1c0-3.712 5-4.753 5-7-8.917 0-4-10.558-4-14v-2l-12 3c0 6.602 9 13.089 9 20h1Z"/><path fill="#219666" id="AIp6b" d="m77 192 2 1-1-3h-1v2ZM378 192h1l1-1v-1h-1l-1 2Z"/><path fill="#FF6F80" id="TH" d="m190 193 2 1-2-3v2ZM266 192h1v-1l-1 1Z"/><path fill="#209766" id="AIp6a" d="M381 213h1l9-20c-3.695 0-6.865-2-11-2l-1 1c0 2.795 5.2 10.65-1.5 14l-4.5-2-1 2c3.288 0 9 3.185 9 7Z"/><path fill="#8ADA86" id="CLA" d="M83 203c0 2.215-2 1.519-2 3-8.917 0-4-10.558-4-14l2 1c0 3.421 4 6.2 4 10Z"/><path fill="#FF6F80" id="TH" d="m210 192-1 1 1-1ZM265 193h1v-1l-1 1Z"/><path fill="#FF7E84" id="VM" d="m267 192-1 1v-1h1Z"/><path fill="#C8CBCC" id="ec" d="m377 193-4 8c0-1.831 2.183-9 4-9v1Z"/><path fill="#219666" id="AIp6b" d="m378 192-1 1v-1h1Z"/><path fill="#8ADA86" id="CLA" d="M373 201v3l4.5 2c6.7-3.35 1.5-11.205 1.5-14h-1l-1 1-4 8Z"/><path fill="#219864" id="AIp5" d="M74 213c0 .886-5.824 3-7 3 0-3.476-15-14.432-15-21 4.514 0 8.092-2 13-2 0 6.602 9 13.089 9 20Z"/><path fill="#FF6F80" id="TH" d="M223 219h4v-2c-8.518 0-16.463-6.427-20-13.5-1.889-3.777 2-7.892 2-10.5h-2c0 3.389-5.472 5-8 5 0 .289 11.166 9 4 9v2c3.274 0 5.711 4.605 8.5 6 1.576.788 11.5 2.368 11.5 4ZM253 209c-4.021 0-9.277 8-16 8 0-3.963 9.901-8.301 12-12.5 1.592-3.184-1-8.819-1-11.5h2c0 3.899 4.847 5 8 5 0 .815-13.53 9-4 9l-1 2ZM265 193l-1 1 1-1Z"/><path fill="#219864" id="AIp5" d="m382 213 7 3c0-1.706 15-14.527 15-21-4.514 0-8.092-2-13-2l-9 20Z"/><path fill="#12AC83" id="VISC2/3" d="M51 195h1l-1-1v1Z"/><path fill="#FF6F80" id="TH" d="m264 194-1 1 1-1Z"/><path fill="#209865" id="AIp2/3" d="M67 216c0 .092-8.167 4-9 4 0-2.355-17-15.195-17-22 2.767 0 6.533-3 9-3h2c0 6.568 15 17.524 15 21Z"/><path fill="#FF6F80" id="TH" d="m194 195 2 2-2-2ZM262 195l-1 1 1-1Z"/><path fill="#209865" id="AIp2/3" d="M389 216c0 .411 8.864 4 10 4 0-4.003 16-13.96 16-22-1.131 0-8-2.049-8-3h-3c0 6.473-15 19.294-15 21Z"/><path fill="#FF6F80" id="TH" d="m261 196-1 1 1-1ZM197 197l1 1-1-1ZM259 197l-1 1 1-1Z"/><path fill="#219765" id="AIp1" d="m58 220-5 2c-1.124 0-18-19.54-18-22l6-2c0 6.805 17 19.645 17 22ZM399 220l5 2c0-4.946 17-13.873 17-22l-5-2h-1c0 8.04-16 17.997-16 22Z"/><path fill="#FC8F9F" id="Xi" d="m226 199-3 5.5 3.5 7.5c3.757 1.879 13.157-13-.5-13Z"/><path fill="#C8CBCC" id="ec" d="m372 206-3 3c0-1.49 2.206-8 4-8v3l-1 2Z"/><path fill="#209766" id="AIp6a" d="M81 206h4l-2-3c0 2.215-2 1.519-2 3Z"/><path fill="#F0483B" id="ZI" d="M180 209c0 3.946 23 13.28 23 0v-2c-3.441 0-9.054-4.223-13.5-2-2.322 1.161-5.836 3-8.5 3l-1 1ZM253 209c0 12.709 23 4.967 23 0l-1-1c-2.664 0-6.178-1.839-8.5-3-4.188-2.094-9.505 2-12.5 2l-1 2Z"/><path fill="#A0EE9C" id="EPd" d="m96 233-3 1c0-.798-9.209-7-10-7v-1c1.795 0-3.39-5.281-4-6.5l-3-6.5c0-3.712 5-4.753 5-7h4l10 20c0 1.974 2 3.517 2 6l-1 1ZM360 232l3 2 6-3c0-1.747.253-2 2-2l1-1v-1l1-1h1v-1l1-1c0-1.238.423-3 2-3 0-1.465-.109-4 2-4 0-1.465-.109-4 2-4 0-3.815-5.712-7-9-7l-3 3-2 4c0 1.465.109 4-2 4 0 4.046-4 6.085-4 10l-1 1v4Z"/><path fill="#CCCACB" id="nst" d="M164 209c0 7.811 6.678 0 0 0Z"/><path fill="#E64438" id="HY" fill-rule="evenodd" d="M198 221c0 3.172-5.313 6.873-3 11.5l3.5.5c3.618-1.809 13.561-12 4-12H198m23 18-2 1c-.875 0-4.525-6.013-6.5-7-7.389-3.694-12.917 6-17.5 6 0-3.154-4-2.416-4 1-2.475 0-1.04-11.581-2-13.5-.793-1.586-5-7.094-5-8.5 4.965 0-3-8.89-3-3-2.447 0-3.28-2-6-2 0-1.533 3.753-4 5-4 0 3.946 23 13.28 23 0 3.274 0 5.711 4.605 8.5 6 1.576.788 11.5 2.368 11.5 4-21.095 0-2 7.951-2 20ZM250 221c0 3.503 5.51 14.495 10.5 12 4.629-2.315.086-10.457-3-12H250m14 52h1l2-1 2-1c0-2.109 2.535-2 4-2l2-2v-2c-9.582 0-11.705-21.09-8-28.5v-9l2-6 3-3.5c-4.141 0 4-8.72 4-3l5-2c0-1.533-3.753-4-5-4 0 4.967-23 12.709-23 0-4.021 0-9.277 8-16 8l-4 2c22.342 0 2 9.045 2 20 2.293 0 2 .997 2 3 .163 0 5.393-7.946 7.5-9 6.997-3.498 11.475 6 16.5 6 1.384 0 1.123-3.189 3.5-2 1.214.607.865 8-.5 8 0 3.613 3.008 11.484 1 15.5l-4.5 7.5-3.5 2c2.886 0 7-.919 7 3Z"/><path fill="#CCCACB" id="nst" d="m290 209-1 3.5c.608 1.215 7.744-3.5 1-3.5Z"/><path fill="#C8CBCC" id="ec" d="M369 209c-2.109 0-2 2.535-2 4l2-4Z"/><path fill="#6ACAB9" id="PIR" d="M111 274c0 7.023-12 20.536-12 23-5.954 0-11.466-11.966-15-15.5-7.712-7.712-10.266-22.532-15-32-2.286-4.572-5.769-8.537-8-13-2.005-4.01-8-9.972-8-14.5l5-2c.833 0 9-3.908 9-4 1.176 0 7-2.114 7-3h1l4 9 2 2 1 1v1l1 1 2 3 6 8c0 6.656 20 25.116 20 32v4Z"/><path fill="#C9C8CA" id="ee" d="m82 225 1 1c1.795 0-3.39-5.281-4-6.5l-3-6.5h-1l4 9 2 2 1 1Z"/><path fill="#E64438" id="HY" d="m175 213-1 1 1-1Z"/><path fill="#F2483A" id="LHA" d="M191 245c0 2.881.187 5.125-1 7.5-1.47 2.941-1.062 10.781-4.5 12.5-3.055 1.527-21.351-12-24.5-12 0-4.503 2-8.044 2-12l3-12c1.014 0 2-3.959 2-5l1-1v-2l1-1v-1l1-1c0-1.429 1.288-4 3-4l1-1c2.72 0 3.553 2 6 2l3 3c0 1.406 4.207 6.914 5 8.5.96 1.919-.475 13.5 2 13.5v5Z"/><path fill="#CCC9C8" id="sm" d="m181 215 3 3c4.965 0-3-8.89-3-3ZM276 215l-4 3c-4.141 0 4-8.72 4-3Z"/><path fill="#F2483A" id="LHA" d="m276 264-1 1c-9.582 0-11.705-21.09-8-28.5v-9l2-6 3-3.5 4-3 5-2h1l1 1c0 1.481 2 .785 2 3l1 1 1 4 1 1c0 1.345 1.571 7 3 7l2 10c0 3.51 2 8.997 2 14l-16 8-2 1-1 1Z"/><path fill="#E64438" id="HY" d="m282 213 1 1-1-1Z"/><path fill="#C8CBCC" id="ec" d="M367 213c-2.109 0-2 2.535-2 4 2.109 0 2-2.535 2-4Z"/><path fill="#C9C8CA" id="ee" d="M381 213c-2.109 0-2 2.535-2 4 2.109 0 2-2.535 2-4Z"/><path fill="#6ACAB9" id="PIR" d="M345 274c0 6.666 12 19.8 12 23 4.473 0 12.125-9.749 14-13.5 7.778-15.557 16.224-30.448 24-46l9-15.5-5-2c-1.136 0-10-3.589-10-4l-7-3h-1c0 1.465.109 4-2 4 0 1.465.109 4-2 4l-1 3-1 1-1 1-1 1v1l-1 1-1 1c0 1.238-.423 3-2 3 0 1.747-.253 2-2 2l-1 2c0 6.408-21 26.507-21 33v4Z"/><path fill="#97D6F9" id="STR" d="m326 215-1 1 1-1ZM121 253l-1 1c-5.336 0-9-8.777-9-13v-3l2.5 1c3.861 0-7.5-7.68-7.5-5l-2-1c-1.782 0-7-6.482-7-8 2.717 0 5.563 4.531 8.5 6 6.864 3.432 21.386 2.727 25.5-5.5V216l3 1c0 3.49 7 4.873 7 8-5.766 0-15.951 4.597-12 12.5l4 5.5c-5.646 0-3 6.187-3 9l-9 1Z"/><path fill="#FF6F80" id="TH" d="M230 219h3l4-2c-2.04 0-9-.331-9 0l2 2Z"/><path fill="#97D6F9" id="STR" d="M336 254h1c4.34 0 9-9.457 9-13v-1l-1-2-2.5 1c-1.814 0 7.5-8.117 7.5-5l3-1c1.038 0 6-6.488 6-8-2.014 0-8.367 5.933-10.5 7-7.285 3.643-20.077-.654-23.5-7.5V216l-2 1-8 8h7.5c3.246 1.623 6.333 9.834 4.5 13.5l-4 4.5c4.876 0 4 5.553 4 9l8 1 1 1Z"/><path fill="#E64438" id="HY" d="M227 219h3l-2-2h-1v2ZM285 217l1 1-1-1Z"/><path fill="#C8CBCC" id="ec" d="M348 239h3c0-.966 2.886-3 4-3 0-1.238.423-3 2-3v-1l3-4 1-1c0-3.915 4-5.954 4-10-1.391 0-5 5.706-5 7l-1 1c0 1.512-4.962 8-6 8l-5 6Z"/><path fill="#C9C8CA" id="ee" d="M379 217c-2.109 0-2 2.535-2 4 2.109 0 2-2.535 2-4Z"/><path fill="#E64438" id="HY" d="m171 218-1 1 1-1Z"/><path fill="#A2B1D7" id="SI" d="m149 240 3.5 3c4.041 2.02 8.146-2 10.5-2l3-12c0-9.44-6.584-11.958-14.5-8-2.649 1.324-8.5-.43-8.5 4l4 2.5c1.679 3.357 2 7.435 2 11.5v1Z"/><path fill="#FF5D4F" id="PVH" d="M229 241h3c0-1.577 1.762-2 3-2 0-10.955 20.342-20-2-20h-10c-21.095 0-2 7.951-2 20l3 1 3 1v-15.5c0-1.054-.338-4.5 1.5-4.5l.5 20Z"/><path fill="#A2B1D7" id="SI" d="m293 240 3.5 3c3.567 1.784 7.072-2 9.5-2l2-2c0-3.459-.437-7.627 1-10.5l4-3.5c0-4.763-8.504-3.502-11.5-5-8.117-4.058-10.5 3.098-10.5 10l2 10Z"/><path fill="#E64438" id="HY" d="m170 220-1 1 1-1Z"/><path fill="#C7C8CA" id="fx" d="M198 221c0 3.172-5.313 6.873-3 11.5l3.5.5c3.618-1.809 13.561-12 4-12H198Z"/><path fill="#A8A9AA" id="V3" d="M227 241v24.5c0 1.346-.789 7.5 1.5 7.5l.5-32-.5-20c-1.838 0-1.5 3.446-1.5 4.5V241Z"/><path fill="#C7C8CA" id="fx" d="M250 221c0 3.503 5.51 14.495 10.5 12 4.629-2.315.086-10.457-3-12H250Z"/><path fill="#C9C8CA" id="ee" d="M375 224h1l1-3c-1.577 0-2 1.762-2 3Z"/><path fill="#99D2BD" id="OLF" d="m79 222 2 2-2-2Z"/><path fill="#E64438" id="HY" d="m287 222 1 1-1-1Z"/><path fill="#97D6F9" id="STR" d="m96 223 1 1-1-1Z"/><path fill="#E64438" id="HY" d="m169 223-1 1 1-1Z"/><path fill="#97D6F9" id="STR" d="m360 224-1 1 1-1Z"/><path fill="#C9C8CA" id="ee" d="M374 225h1v-1l-1 1Z"/><path fill="#99D2BD" id="OLF" d="m376 224-1 1v-1h1Z"/><path fill="#8AD987" id="CTXsp" d="M82 226h1l-1-1v1Z"/><path fill="#7FC0E0" id="CEAm" d="M133 243h12l4-4c0-4.065-.321-8.143-2-11.5l-4-2.5h-2c-5.766 0-15.951 4.597-12 12.5l4 5.5ZM311 243h12l4-4.5c1.833-3.666-1.254-11.877-4.5-13.5H313l-4 3.5c-1.437 2.873-1 7.041-1 10.5l3 4Z"/><path fill="#8AD987" id="CTXsp" d="m375 225-1 1v-1h1Z"/><path fill="#99D2BD" id="OLF" d="M83 226v1l-1-1h1Z"/><path fill="#8AD987" id="CTXsp" d="M97 232h2c0-1.178-2.572-6-4-6 0 1.974 2 3.517 2 6Z"/><path fill="#C9C8CA" id="ee" d="M372 227h1v-1l-1 1Z"/><path fill="#8AD987" id="CTXsp" d="m374 226-1 1v-1h1ZM93 234l-2 3c-1.985 0-2.696-7-6-7l-2-3c.791 0 10 6.202 10 7ZM361 227l-1 1 1-1ZM372 228h1v-1h-1v1ZM357 232h3v-4l-3 4ZM371 229h1v-1l-1 1Z"/><path fill="#99D2BD" id="OLF" d="m373 228-1 1v-1h1Z"/><path fill="#8AD987" id="CTXsp" d="m371 230-2 1c0-1.747.253-2 2-2v1Z"/><path fill="#99D2BD" id="OLF" d="m372 229-1 1v-1h1ZM91 237v1l-6-8c3.304 0 4.015 7 6 7ZM369 231v2c1.577 0 2-1.762 2-3l-2 1Z"/><path fill="#8AD987" id="CTXsp" d="m367 235-1 2-3-3 6-3v2l-2 2ZM97 232l-1 1 1-1Z"/><path fill="#A0ED9D" id="EPv" d="M111 270h2l2-3v-7c0-10.615-10-15.757-10-19-3.684 0-4-3.099-4-5l-1-2-1-2h-2l-1 1-3 1-2 3v1c0 6.656 20 25.116 20 32ZM344 270h1c0-6.493 21-26.592 21-33l-3-3-3-2h-3v1l-1 3c0 2.601-1.04 5-4 5 0 3.396-11 10.025-11 18v6l3 5Z"/><path fill="#9DE79B" id="BLAa" d="M111 238v2c-1.994 0-7-5.067-7-7l2 1 5 4Z"/><path fill="#C8CBCC" id="ec" d="m106 234 5 4 2.5 1c3.861 0-7.5-7.68-7.5-5Z"/><path fill="#FF4B3E" id="AHN" d="M202 271h12.5l3.5-2c0-9.092 1-19.294 1-29-.875 0-4.525-6.013-6.5-7-7.389-3.694-12.917 6-17.5 6l-3 6c0 7.006-1.95 13.601 1 19.5 1.199 2.398 9 5.711 9 6.5ZM252 271h3l2-1 3.5-2 4.5-7.5c2.008-4.016-1-11.887-1-15.5l-3-6c-5.025 0-9.503-9.498-16.5-6-2.107 1.054-7.337 9-7.5 9v18.5c1.016 2.031 2 6.247 2 8.5l2.5 2H252Z"/><path fill="#C8CBCC" id="ec" d="M350 234c0 2.854-5 2.448-5 4l-2.5 1c-1.814 0 7.5-8.117 7.5-5Z"/><path fill="#9DE79B" id="BLAa" d="M346 240h1l1-1 5-6-3 1c0 2.854-5 2.448-5 4l1 2Z"/><path fill="#8AD987" id="CTXsp" d="M355 236h1l1-3c-1.577 0-2 1.762-2 3Z"/><path fill="#99D2BD" id="OLF" d="m369 233-2 2c1.747 0 2-.253 2-2Z"/><path fill="#8AD987" id="CTXsp" d="M101 236h1l-2-2 1 2Z"/><path fill="#99D2BD" id="OLF" d="m367 235-1 2 1-2Z"/><path fill="#80BEE2" id="IA" d="M105 238c0 .716 2.373 3 0 3-3.684 0-4-3.099-4-5h1l3 2ZM351 239c0 1.577-1.729 2 1 2 2.96 0 4-2.399 4-5h-1c-1.114 0-4 2.034-4 3Z"/><path fill="#F2463A" id="PeF" d="M191 245h1l3-6c0-3.154-4-2.416-4 1v5ZM261 239c1.384 0 1.123-3.189 3.5-2 1.214.607.865 8-.5 8l-3-6Z"/><path fill="#8AD987" id="CTXsp" d="m120 254-5 6c0-10.615-10-15.757-10-19 2.373 0 0-2.284 0-3l6 3c0 4.223 3.664 13 9 13Z"/><path fill="#97D6F9" id="STR" d="M151 254c3.159 0 4.806 1 7 1l-9-15v-1l-4 4c7.13 0 6 5.339 6 11Z"/><path fill="#FD5547" id="SBPV" d="m225 269-3.5-2-3.5 4v-2c0-9.092 1-19.294 1-29l2-1 3 1c0 9.59 1 20.076 1 29ZM239 269l-1 2c-1.052 0-1.821-3-6-3v-27c0-1.577 1.762-2 3-2 2.293 0 2 .997 2 3v18.5c1.016 2.031 2 6.247 2 8.5Z"/><path fill="#97D6F9" id="STR" d="m310 261-3 1c0-7.212-1.899-8-8-8 0-4.691 7-8.092 7-13l2-2 3 4c-6.833 0-7.906 8.594-3.5 13l5.5 3v1h-2l-1 1Z"/><path fill="#C8CBCC" id="ec" d="m348 239-1 1 1-1Z"/><path fill="#8AD987" id="CTXsp" d="m337 254 4 5c0-7.975 11-14.604 11-18-2.729 0-1-.423-1-2h-3l-1 1-1 1c0 3.543-4.66 13-9 13Z"/><path fill="#8599CC" id="PAL" d="m158 255 5 4-2-6c0-4.503 2-8.044 2-12-2.354 0-6.459 4.02-10.5 2l-3.5-3 9 15Z"/><path fill="#FF5D50" id="PVa" d="M229 276c0-2.336-1.286 1-2 1l-2-8c0-8.924-1-19.41-1-29l3 1v24.5c0 1.346-.789 7.5 1.5 7.5l.5-32h3v27c0 1.131-2.049 8-3 8Z"/><path fill="#8599CC" id="PAL" d="m299 254-4 3v-3c0-5.003-2-10.49-2-14l3.5 3c3.567 1.784 7.072-2 9.5-2 0 4.908-7 8.309-7 13Z"/><path fill="#C8CBCC" id="ec" d="m347 240-1 1v-1h1Z"/><path fill="#80C0E2" id="AAA" d="M141 259h2l6-3 1-1 1-1c0-5.661 1.13-11-6-11h-12c-5.646 0-3 6.187-3 9l6 5 5 2ZM313 259h2l5-1 1-1 5-4 1-1c0-3.447.876-9-4-9h-12c-6.833 0-7.906 8.594-3.5 13l5.5 3Z"/><path fill="#E64438" id="HY" d="M202 271c-4.318 0-9-3.333-9 2l-5-2h-1c0-1.428-4.822-4-6-4 0-7.736-13-6.066-13 2l-3-4v-2l-1-1v-1l-1-1v-1l-2-6c3.149 0 21.445 13.527 24.5 12 3.438-1.719 3.03-9.559 4.5-12.5 1.187-2.375 1-4.619 1-7.5h1c0 7.006-1.95 13.601 1 19.5 1.199 2.398 9 5.711 9 6.5Z"/><path fill="#84EA80" id="BMAa" d="m118 273 4 1c2.933 0 5.321-3 9-3l2-2c0-2.317.709-8 4-8v-1l-1-3-6-5-9 1-1 1-5 6v7l3 6Z"/><path fill="#97D6F9" id="STR" d="m327 252-1 1 1-1Z"/><path fill="#84EA80" id="BMAa" d="m339 272-4 2c-3.372 0-6.053-3-10-3l-1-1c0-1.671-2.012-9-4-9v-3l1-1 5-4 1-1 8 1 1 1h1l4 5v6c0 2.833-2 4.84-2 7Z"/><path fill="#8AD987" id="CTXsp" d="m121 253-1 1 1-1Z"/><path fill="#80BFE1" id="MEA" d="M160 281c-.264 0-3 3.999-3 1 0-1.242-1.019-9-2-9 0-2.483-2-4.026-2-6l-4-5v-6l1-1 1-1c3.159 0 4.806 1 7 1l5 4v1l1 1v1l1 1v12l-1 1-1 1v1l-1 1-2 2ZM296 281c1.674 0 2.326 1 4 1 0-2.072-.076-11 2-11l2-4c0-2.364 3-3.053 3-5 0-7.212-1.899-8-8-8l-4 3-1 1-1 3-1 1v1l-1 1v10c1.391 0 5 5.706 5 7Z"/><path fill="#8AD987" id="CTXsp" d="m335 253 1 1-1-1Z"/><path fill="#97D6F9" id="STR" d="m151 254-1 1 1-1Z"/><path fill="#E64438" id="HY" d="m291 266-3 3c0-6.42-3.133-7-9-7l16-8v3l-1 1-1 3-1 1v1l-1 1v2Z"/><path fill="#97D6F9" id="STR" d="m150 255-1 1 1-1ZM143 260c2.483 0 4.026 2 6 2v-6l-6 3v1ZM138 260h3v-1l-5-2 1 3h1Z"/><path fill="#8599CC" id="PAL" d="m295 257-1 1 1-1Z"/><path fill="#97D6F9" id="STR" d="m321 257-1 1 1-1ZM319 261h1v-3l-5 1v1h3l1 1Z"/><path fill="#99D2BD" id="OLF" d="M141 260h2v-1h-2v1ZM313 260h2v-1h-2v1ZM138 260l-1 1v-1h1Z"/><path fill="#94E4C7" id="NLOT3" fill-rule="evenodd" d="m139 262-2 2.5c0 4.565 12.091-2.5 2-2.5m-6 7v2l2.5-2c4.144-2.072 13.346-2 17.5-2l-4-5c-1.974 0-3.517-2-6-2h-5l-1 1c-3.291 0-4 5.683-4 8Z"/><path fill="#8599CC" id="PAL" d="m163 260 1 1-1-1Z"/><path fill="#99D2BD" id="OLF" d="m311 260-1 1 1-1Z"/><path fill="#94E4C7" id="NLOT3" fill-rule="evenodd" d="M314 262c0 9.967 10.91 0 0 0m10 10v1l-3.5-4c-4.781-2.39-11.901-2-16.5-2 0-2.364 3-3.053 3-5l3-1 1-1h7l1 1h1c1.988 0 4 7.329 4 9v2Z"/><path fill="#99D2BD" id="OLF" d="m318 260 1 1-1-1Z"/><path fill="#8599CC" id="PAL" d="m293 261-1 1 1-1Z"/><path fill="#C7CAC8" id="stc" d="m139 262-2 2.5c0 4.565 12.091-2.5 2-2.5Z"/><path fill="#8599CC" id="PAL" d="m164 262 1 1-1-1Z"/><path fill="#FE5B50" id="SO" d="M169 271h2c0-4.917 6.567-4 10-4 0-7.736-13-6.066-13 2l1 2Z"/><path fill="#E64438" id="HY" d="m279 262-2 1 2-1Z"/><path fill="#FE5B50" id="SO" d="M286 271h2v-2c0-6.42-3.133-7-9-7l-2 1-1 1-1 1v2h7.5l3.5 4Z"/><path fill="#C7CAC8" id="stc" d="M314 262c0 9.967 10.91 0 0 0Z"/><path fill="#E64438" id="HY" d="m277 263-1 1 1-1Z"/><path fill="#8599CC" id="PAL" d="m292 263-1 1 1-1Z"/><path fill="#E64438" id="HY" d="m276 264-1 1 1-1Z"/><path fill="#8599CC" id="PAL" d="M166 271h3l-1-2-3-4v5l1 1Z"/><path fill="#8AD987" id="CTXsp" d="m344 270-5 2c0-2.16 2-4.167 2-7l3 5Z"/><path fill="#95E3C8" id="NLOT2" d="m136 282 1 1c7.417 0 18-.356 18-10 0-2.483-2-4.026-2-6-4.154 0-13.356-.072-17.5 2l-2.5 2v1c0 2.482-.669 10 3 10Z"/><path fill="#8599CC" id="PAL" d="m291 270-3 1v-2l3-3v4Z"/><path fill="#95E3C8" id="NLOT2" d="M319 283h1l1-1c0-2.626 3-5.457 3-9l-3.5-4c-4.781-2.39-11.901-2-16.5-2l-2 4c0 11.176 7.284 12 17 12Z"/><path fill="#8AD987" id="CTXsp" d="m113 270 5 3-3-6-2 3Z"/><path fill="#CAC7CB" id="fiber tracts" d="M187 271c-3.062 0-7.606-3.947-11.5-2l-4.5 4v-2c0-4.917 6.567-4 10-4 1.178 0 6 2.572 6 4Z"/><path fill="#FF5545" id="SCH" d="M227 277c0 7.333-6.68 2-9 2l-1-4 1-4 3.5-4 3.5 2 2 8ZM239 276v3c-3.563 0-10 5.232-10-3 .951 0 3-6.869 3-8 4.179 0 4.948 3 6 3l1 5Z"/><path fill="#CAC7CB" id="fiber tracts" d="m286 271-1 2c0-4.749-8.939-4-12-4l2-2h7.5l3.5 4Z"/><path fill="#99D2BD" id="OLF" d="M133 271v1l-2-1 2-2v2Z"/><path fill="#CACCCB" id="opt" d="M199 281v6c-9.861 0-27.518-13-28-13v-1l4.5-4c3.894-1.947 8.438 2 11.5 2h1c0 3.851 11 4.717 11 10Z"/><path fill="#E64438" id="HY" d="m218 271-1 4c-1.026 0-13-3.87-13-4h10.5l3.5-2v2ZM252 271c0 2.064-3.353.426-4.5 1-1.564.782-3.538.269-5 1l-3.5 3-1-5 1-2 2.5 2H252Z"/><path fill="#CAC7CB" id="fiber tracts" d="M273 269c-1.465 0-4-.109-4 2l4-2Z"/><path fill="#CACCCB" id="opt" d="M268 285c-3.982 0-6.704 2-11 2v-6l2-4 2-1 1-1h1l2-2 2-1 2-1 4-2c3.061 0 12-.749 12 4v2l-1 1-1 1c-1.637 0-11 4.655-11 6l-4 2Z"/><path fill="#99D2BD" id="OLF" d="m122 274-2 3c0-5.565-6.925-3-9-3v-4h2l5 3 4 1Z"/><path fill="#97D6F9" id="STR" d="M166 271c0 1.048.473 3-1 3v-4l1 1Z"/><path fill="#F2483B" id="RCH" d="m218 279-1 3c-4.603 0-24-3.915-24-9 0-5.333 4.682-2 9-2h2c0 .13 11.974 4 13 4l1 4Z"/><path fill="#E64438" id="HY" d="m257 270-2 1 2-1Z"/><path fill="#F2483B" id="RCH" d="M239 279v3c7.801 0 16.884-5 20-5l2-1 1-1h1l1-2c0-3.919-4.114-3-7-3l-2 1h-3c0 2.064-3.353.426-4.5 1-1.564.782-3.538.269-5 1l-3.5 3v3Z"/><path fill="#99D2BD" id="OLF" d="m325 271-1 1v-2l1 1ZM345 274c-2.533 0-8-2.357-8 3-1.577 0-2-1.762-2-3l4-2 5-2h1v4Z"/><path fill="#60E5B7" id="COAa" d="M137 293c-1.397 0-9.099 3-14 3l-4-13.5 1-5.5 2-3c2.933 0 5.321-3 9-3l2 1c0 2.482-.669 10 3 10l1 1v10Z"/><path fill="#CAC7CB" id="fiber tracts" d="m217 282 1 1h-13.5c-2.084-1.042-2.908-2-5.5-2 0-5.283-11-6.149-11-10l5 2c0 5.085 19.397 9 24 9ZM269 271l-2 1 2-1Z"/><path fill="#95E4C7" id="NLOT1" d="m319 285 1 7-1.5 3c-7.11 3.555-18.5-6.495-18.5-13 0-2.072-.076-11 2-11 0 11.176 7.284 12 17 12v2Z"/><path fill="#60E5B7" id="COAa" d="M320 292c0 2.387 9.546 5.977 11.5 5l2.5-2c0-5.903 3-11.297 3-18-1.577 0-2-1.762-2-3-3.372 0-6.053-3-10-3l-1 1v1c0 3.543-3 6.374-3 9l-1 1-1 2 1 7Z"/><path fill="#CAC7CB" id="fiber tracts" d="m267 272-2 1 2-1Z"/><path fill="#59D9AA" id="PAA" d="M106 300h3c3.231 0 14 .874 14-4l-4-13.5 1-5.5c0-5.565-6.925-3-9-3 0 7.023-12 20.536-12 23 1.714 0 3.482 2 6 2l1 1Z"/><path fill="#95E4C7" id="NLOT1" d="M145 295h1l2-1 1-1 2-1 1-1 4-5.5c.523-1.046-.951-3.5 1-3.5 0-1.242-1.019-9-2-9 0 9.644-10.583 10-18 10v10c0 3.221 5.375 2 8 2Z"/><path fill="#CAC7CB" id="fiber tracts" d="m265 273-2 2 1-2h1Z"/><path fill="#59D9AA" id="PAA" d="M357 297c0 1.869-7.329 3-9 3-4.263 0-14 1.004-14-5 0-5.903 3-11.297 3-18 0-5.357 5.467-3 8-3 0 6.666 12 19.8 12 23Z"/><path fill="#CAC7CB" id="fiber tracts" d="M227 285c-9.838 0-18.901 2-28 2-9.861 0-27.518-13-28-13 0 5.294 5.213 5.356 8.5 7 14.715 7.358 15.078 7 31.5 7 2.121 0 16-.73 16-3Z"/><path fill="#97D6F9" id="STR" d="m296 281-1 1-4-8c1.391 0 5 5.706 5 7ZM165 275l-1 1 1-1Z"/><path fill="#E64438" id="HY" d="M230 283h8l1-1v-3c-3.563 0-10 5.232-10-3 0-2.336-1.286 1-2 1 0 7.333-6.68 2-9 2l-1 3 1 1h8l2-2c0-1.186 1-1.186 1 0l1 2Z"/><path fill="#CAC7CB" id="fiber tracts" d="m262 275-1 1 1-1ZM285 275l-1 1 1-1Z"/><path fill="#97D6F9" id="STR" d="m164 276-1 1 1-1Z"/><path fill="#CAC7CB" id="fiber tracts" d="m261 276-2 1 2-1ZM284 276l-1 1 1-1ZM239 282l-1 1h13.5l5.5-2 2-4c-3.116 0-12.199 5-20 5ZM283 277c-1.637 0-11 4.655-11 6 3.055 0 11-2.693 11-6Z"/><path fill="#97D6F9" id="STR" d="m163 278-1 1 1-1ZM160 281h1l1-2-2 2Z"/><path fill="#99D2BD" id="OLF" d="M157 282c-1.951 0-.477 2.454-1 3.5l-4 5.5c4.497 0 9-6.164 9-10h-1c-.264 0-3 3.999-3 1Z"/><path fill="#CBCACC" id="och" d="M229 285c9.838 0 18.901 2 28 2v-6l-5.5 2h-47c-2.084-1.042-2.908-2-5.5-2v6c9.099 0 18.162-2 28-2h2Z"/><path fill="#CAC7CB" id="fiber tracts" d="M226 283h4l-1-2h-1l-2 2Z"/><path fill="#99D2BD" id="OLF" d="M334 295c0 6.004 9.737 5 14 5 0 1.579-2.855 1-4 1-4.629 0-8.582-2-12.5-2-7.968 0-36.5-6.281-36.5-17l1-1c1.674 0 2.326 1 4 1 0 6.505 11.39 16.555 18.5 13l1.5-3c0 2.387 9.546 5.977 11.5 5l2.5-2ZM136 282l1 1-1-1ZM321 282l-1 1 1-1Z"/><path fill="#CAC7CB" id="fiber tracts" d="m272 283-4 2c1.465 0 4 .109 4-2Z"/><path fill="#99D2BD" id="OLF" d="m320 283-1 2v-2h1Z"/><path fill="#CAC7CB" id="fiber tracts" d="M268 285c-3.982 0-6.704 2-11 2-9.099 0-18.162-2-28-2 0 2.253 7.512 2 9.5 2 3.423 0 29.5 4.946 29.5-2Z"/><path fill="#99D2BD" id="OLF" d="m152 291-1 1 1-1ZM151 292l-2 1 2-1ZM123 296c0 4.874-10.769 4-14 4 0 1.751 7.426 1 9 1 6.979 0 13.358-4 21-4 1.357 0 6-.647 6-2-2.625 0-8 1.221-8-2-1.397 0-9.099 3-14 3ZM149 293l-1 1 1-1ZM148 294l-2 1 2-1ZM105 299l1 1-1-1Z"/></svg>