<svg xmlns="http://www.w3.org/2000/svg" viewBox="0 0 456 320"><path fill="#1E9C59" id="MOs1" d="M131 146c-1.766 0-5 .607-5 3-1.325 0-2.43-5.361-3-6.5-4.158-8.316-4.169-19.661 0-28 8.712-17.424 19.515-26.507 37.5-35.5 2.329-1.165 5.706-.853 8-2 3.272-1.636 8.772-4 12.5-4 14.376 0 17.722-.389 30.5 6l3.5 3-6 3c-3.279 0-19.1-8.2-25.5-5-6.25 3.125-18.464 3.232-26 7-7.284 3.642-13.243 10.622-20 14-9.005 4.503-10.5 22.063-10.5 31.5 0 2.423 1.221 12.5 4 12.5v1ZM327 145c0 1.712 2.571 3 4 3 0-4.129 8.743-16.015 6-21.5-2.783-5.567-3.167-12.333-6-18-7.299-14.599-22.051-22.775-35.5-29.5-11.118-5.559-30.088-9.956-42-4-2.245 1.122-12.5 3.539-12.5 7l6 3c1.489 0 13.648-4.074 15.5-5 5.057-2.528 17.994.997 22 3 4.402 2.2 10.545 1.772 15 4 13.574 6.787 22.575 16.65 29.5 30.5 4.333 8.665-2 19.242-2 27.5Z"/><path fill="#1E9D58" id="MOs2/3" d="M143 137c-1.901 0-12 6.067-12 8-2.779 0-4-10.077-4-12.5 0-9.437 1.495-26.997 10.5-31.5 6.757-3.378 12.716-10.358 20-14 7.536-3.768 19.75-3.875 26-7 6.4-3.2 22.221 5 25.5 5v1l-6 5h-1c-3.547 0-9.21-4.145-13.5-2-4.595 2.297-10.419 1.71-15 4-16.793 8.397-30.5 22.238-30.5 43v1ZM326 145h1c0-8.258 6.333-18.835 2-27.5-6.925-13.85-15.926-23.713-29.5-30.5-4.455-2.228-10.598-1.8-15-4-4.006-2.003-16.943-5.528-22-3-1.852.926-14.011 5-15.5 5v1c1.987 0 6 3.223 6 5h1c3.547 0 9.21-4.145 13.5-2 6.118 3.059 13.82 2.91 20 6 15.786 7.893 25.5 23.157 25.5 41l13 9Z"/><path fill="#2FA750" id="PL1" d="M223 119h10c0-7.663 4.36-33 14-33v-1l-6-3-6 7.5-3 5-3.5 8.5-2.5-5.5c-1.395-2.79-7.064-15.5-11-15.5l-6 3v1c10.869 0 14 24.856 14 33Z"/><path fill="#2FA74F" id="PL2/3" d="m217 117 6 2c0-8.144-3.131-33-14-33l-6 5c11.297 0 14 16.238 14 26ZM239 117l-6 2c0-7.663 4.36-33 14-33 1.987 0 6 3.223 6 5-11.056 0-14 17.95-14 26Z"/><path fill="#1F9D58" id="MOs5" d="M143 136h14c1.149 0 5-8.835 5-10 0-1.639-3-4.58-3-6.5l2-3c6.176-12.353 20.113-13.5 32-13.5l9-12c-3.547 0-9.21-4.145-13.5-2-4.595 2.297-10.419 1.71-15 4-16.793 8.397-30.5 22.238-30.5 43ZM299 136h14c0-17.843-9.714-33.107-25.5-41-6.18-3.09-13.882-2.941-20-6-4.29-2.145-9.953 2-13.5 2 0 4.338 9 8.125 9 12 13.274 0 27.065 1.63 34 15.5 1.795 3.589-3 5.044-3 7.5l5 10Z"/><path fill="#2EA84F" id="PL5" d="m203 112 14 5c0-9.762-2.703-26-14-26h-1l-9 12c3.274 0 10 5.529 10 9ZM253 112l-14 5c0-8.05 2.944-26 14-26h1c0 4.338 9 8.125 9 12-2.834 0-10 5.879-10 9Z"/><path fill="#258F45" id="FRP5" d="M187 114c5.151 0 9.701 2 14 2l2 1c4.194 0 0-1.567 0-5 0-3.471-6.726-9-10-9-11.887 0-25.824 1.147-32 13.5l-2 3c0 1.92 3 4.861 3 6.5 7.547 0 15.57-12 25-12ZM269 114c8.997 0 19.523 12 25 12 0-2.456 4.795-3.911 3-7.5-6.935-13.87-20.726-15.5-34-15.5-2.834 0-10 5.879-10 9 0 4.869-3.573 5 1 5 3.207 0 9.215-3 15-3Z"/><path fill="#23885E" id="ORBm5" d="M210 134h1c7.507 0 6-11.352 6-17l-14-5c0 3.433 4.194 5 0 5l-2-1c0 4.33 9 12.201 9 18ZM245 134h1l1-1c0-5.903 7-10.152 7-16-4.573 0-1-.131-1-5l-14 5c0 4.862-.837 17 6 17Z"/><path fill="#228A5D" id="ORBl5" d="m157 136-3 15 4.5 1c10.811-5.405 10.543-21 24.5-21 0-5.993 4-10.831 4-17-9.43 0-17.453 12-25 12 0 1.165-3.851 10-5 10Z"/><path fill="#23885C" id="ORBvl5" d="M183 131c9.535 0 18.257 3 27 3 0-5.799-9-13.67-9-18-4.299 0-8.849-2-14-2 0 6.169-4 11.007-4 17ZM273 131c-9.277 0-16.793 2-26 2 0-5.903 7-10.152 7-16 3.207 0 9.215-3 15-3 0 5.664 4 11.008 4 17Z"/><path fill="#228A5D" id="ORBl5" d="M299 136c0 4.531 4 9.496 4 15l-4.5 1c-10.609-5.304-11.507-21-25.5-21 0-5.992-4-11.336-4-17 8.997 0 19.523 12 25 12l5 10Z"/><path fill="#24885D" id="ORBm2/3" d="m211 134 6 15c8.143 0 6-23.662 6-30l-6-2c0 5.648 1.507 17-6 17ZM239 149h1c0-5.417 5-9.576 5-15-6.837 0-6-12.138-6-17l-6 2c0 6.275-1.66 30 6 30Z"/><path fill="#23895D" id="ORBm1" d="m237 161-1 1-5-1c0-6.763-6-5.702-6 0l-5 1c0-4.824-3-8.915-3-13 8.143 0 6-23.662 6-30h10c0 6.275-1.66 30 6 30 0 4.779-2 7.505-2 12Z"/><path fill="#238A5E" id="ORBl2/3" d="M154 151c0 5.976-2 11.571-2 18 7.786 0 21.151-26 30-26l1-1c-.616 0 0-8.797 0-11-13.957 0-13.689 15.595-24.5 21l-4.5-1Z"/><path fill="#248A5D" id="ORBvl2/3" d="M183 142c12.986 0 21.695 7 34 7l-6-15h-1c-8.743 0-17.465-3-27-3 0 2.203-.616 11 0 11ZM274 142c-12.936 0-21.88 7-34 7 0-5.417 5-9.576 5-15h1l1-1c9.207 0 16.723-2 26-2l1 11Z"/><path fill="#238A5E" id="ORBl2/3" d="m303 151 2 19c-6.728 0-22.274-27-31-27v-1l-1-11c13.993 0 14.891 15.696 25.5 21l4.5-1Z"/><path fill="#23885C" id="ORBvl5" d="m247 133-1 1 1-1Z"/><path fill="#209665" id="AId5" d="M143 137c0 3.485 6.756 14 11 14l3-15h-14v1ZM313 136c0 4.274-5.315 15-10 15 0-5.504-4-10.469-4-15h14Z"/><path fill="#209765" id="AId2/3" d="m303 151 2 19c2.88 0 3.59.455 6.5-1 2.141-1.07 14.5-21.301 14.5-24l-13-9c0 4.274-5.315 15-10 15ZM152 169l-1 1c-7.313 0-20-17.653-20-24v-1c0-1.933 10.099-8 12-8 0 3.485 6.756 14 11 14 0 5.976-2 11.571-2 18Z"/><path fill="#248A5B" id="ORBvl1" d="m218 161 2 1c0-4.824-3-8.915-3-13-12.305 0-21.014-7-34-7l-1 1c0 3.617 1 5.829 1 9 6.234 0 13.279 1.39 18.5 4 1.114.557 5.5.41 5.5 2h2l1 1h3l1 1h1l1 1h2ZM237 161h2c2.885 0 4.697-2 8-2l1-1h1c0-1.149 4.516-1.508 5.5-2 5.59-2.795 12.789-4 19.5-4v-10c-12.936 0-21.88 7-34 7h-1c0 4.779-2 7.505-2 12Z"/><path fill="#238A5D" id="ORBl1" d="M151 177h3l6-6.5c1.601-3.202 19.838-18.5 23-18.5 0-3.171-1-5.383-1-9-8.849 0-22.214 26-30 26l-1 1v7ZM302 176l3 1v-7c-6.728 0-22.274-27-31-27v9h3.5l4 6c3.905 3.905 9.133 6.133 13.5 10.5l7 7.5Z"/><path fill="#209764" id="AId1" d="M305 172c1.992 0 5 3.339 5 5 3.749 0 21-25.659 21-29-1.429 0-4-1.288-4-3h-1c0 2.699-12.359 22.93-14.5 24-2.91 1.455-3.62 1-6.5 1v2ZM151 172l-5 5c-3.226 0-20-24.372-20-28 0-2.393 3.234-3 5-3 0 6.347 12.687 24 20 24v2Z"/><path fill="#99D2BD" id="OLF" d="M156 181c-1.643 0-1 3.765-1 5 0 5.88 2 10.652 2 16l-2-2.5c-6.779-13.557-1-10.462-1-22.5l6-6.5c1.601-3.202 19.838-18.5 23-18.5 6.234 0 13.279 1.39 18.5 4 1.114.557 5.5.41 5.5 2-1.449 0-11.052-.603-10 1.5.809 1.619 2 1.471 2 3.5-5.806 0-11.383-2-18-2l-2 1c-1.048 0-3-.473-3 1l-4 2c-1.238 0-3 .423-3 2-1.238 0-3 .423-3 2l-1 1c-3.464 0-8 5.792-8 9l-1 2ZM301 187l-1 14 1.5-2c7.47-7.47.5-15.036.5-23l-7-7.5c-4.367-4.367-9.595-6.595-13.5-10.5l-4-6H274c-6.711 0-13.91 1.205-19.5 4-.984.492-5.5.851-5.5 2l11 .5c0 2.3-3 2.068-3 4.5 6.046 0 12.093-2 19-2 1.347 0 8 2.314 8 4h1c4.761 0 16 11.467 16 16v6Z"/><path fill="#9AD1BD" id="MOB" d="M215 247h1l1-1v-1l1-1 1-1 1-1 1-1v-1l1-1v-1l1-1v-1l1-1v-1l1-2v-3l1-1c0-16.232 1-34.094 1-51-1.781 0-1.348-6.197-2-7.5-1.163-2.327-7-6.762-7-8.5h-2l-1-1h-1l-1-1h-3l-1-1h-2c-1.449 0-11.052-.603-10 1.5.809 1.619 2 1.471 2 3.5 2.591 0 4 8.4 4 10.5 0 3.306 2.861 10.278 1 14-1.779 3.558-4 11.562-4 15.5 0 .759-1.318 7-2 7 0 2.707-1 5.903-1 8 1.982 0 0 5.017 0 6.5l-4 17.5 1 4 7.5 3c3.391 1.695 9.589-1 12.5-1l1-1Z"/><path fill="#99D2BD" id="OLF" d="m209 158 1 1-1-1ZM248 158l-1 1 1-1Z"/><path fill="#9AD1BD" id="MOB" d="m243 248 1 1c6.21 0 11.622-2 17-2l1-1h1v-4c0-5.524-1.65-12.8-4-17.5-.969-1.938-2.167-6.5 0-6.5l-1-9c0-1.564-1-3.876-1-6 0-2.005-3.908-16.315-5-18.5-2.425-4.85 5-18.357 5-21.5 0-2.432 3-2.2 3-4.5l-11-.5h-1l-1 1c-3.303 0-5.115 2-8 2l-2 1-6 8v1c0 1.145.579 4-1 4v5c0 1.741.773 11-1 11v31l1 1 1 8 1 1v1l1 2v1l1 1v1l1 1v1l1 1 1 1 1 2 1 1 3 3h1Z"/><path fill="#99D2BD" id="OLF" d="m213 159 1 1-1-1ZM215 160l1 1-1-1Z"/><path fill="#CACAC9" id="lotd" d="m181 161-2 1 2-1Z"/><path fill="#54BF94" id="AON" d="M183 236c3.307 0 6.029 6 10 6l4-17.5c0-1.483 1.982-6.5 0-6.5l-3.5-6c-3.987-3.987-5.984-12.469-8.5-17.5-.812-1.624-4.144-3.712-3-6 3.476-6.951 12 6.209 12 10.5 1.548 0 2.767 4 6 4 0-3.938 2.221-11.942 4-15.5 1.861-3.722-1-10.694-1-14 0-2.1-1.409-10.5-4-10.5-5.806 0-11.383-2-18-2l-2 1c0 1.473-1.952 1-3 1 0 2.109-2.535 2-4 2 0 1.577-1.762 2-3 2 0 1.577-1.762 2-3 2l-1 1-8 9-1 2c0 14.793 7.922 25.343 14 37.5 2.793 5.586 13 11.721 13 17.5Z"/><path fill="#99D2BD" id="OLF" d="m225 161-5 1-2-1c0 1.738 5.837 6.173 7 8.5.652 1.303.219 7.5 2 7.5 0-5.553-2-10.002-2-16ZM237 162l-6 8v-9l5 1h1Z"/><path fill="#248A5B" id="ORBvl1" d="M236 162h1v-1l-1 1Z"/><path fill="#99D2BD" id="OLF" d="m239 161-2 1v-1h2Z"/><path fill="#54BF94" id="AON" d="m273 237-10 5c0-5.524-1.65-12.8-4-17.5-.969-1.938-2.167-6.5 0-6.5 1.727 0 3.372-5.244 4-6.5 1.572-3.143 12.087-21.826 11-24-.86-1.72-3.7.1-4.5.5-4.609 2.305-7.5 6.422-7.5 12l-1 1-4 2c0-2.005-3.908-16.315-5-18.5-2.425-4.85 5-18.357 5-21.5 6.046 0 12.093-2 19-2 0 1.794 6.51 4 8 4h1c0 2.116 15 10.938 15 16l1 2v4c-2.064 0-.426 3.353-1 4.5l-7 15c-2.438 4.875-20 28.474-20 30.5Z"/><path fill="#CACAC9" id="lotd" d="M276 161c1.347 0 8 2.314 8 4-1.49 0-8-2.206-8-4ZM179 162c-1.048 0-3-.473-3 1 1.048 0 3 .473 3-1ZM176 163l-4 2c1.465 0 4 .109 4-2ZM172 165c-1.238 0-3 .423-3 2 1.238 0 3-.423 3-2ZM300 181h1c0-4.533-11.239-16-16-16 0 2.116 15 10.938 15 16ZM169 167c-1.238 0-3 .423-3 2 1.238 0 3-.423 3-2Z"/><path fill="#238A5E" id="ORBl2/3" d="m152 169-1 1 1-1Z"/><path fill="#CACAC9" id="lotd" d="m166 169-1 1 1-1ZM165 170c-3.464 0-8 5.792-8 9l8-9Z"/><path fill="#99D2BD" id="OLF" d="M231 171c-1.579 0-1 2.855-1 4 1.579 0 1-2.855 1-4Z"/><path fill="#209864" id="AIv1" d="M146 177h5v-5l-5 5ZM305 177h5c0-1.661-3.008-5-5-5v5Z"/><path fill="#CACAC9" id="lotd" d="m157 179-1 2 1-2Z"/><path fill="#99D2BD" id="OLF" d="M230 180c-1.773 0-1 9.259-1 11 1.773 0 1-9.259 1-11Z"/><path fill="#CAC8C7" id="lot" d="m183 236-1 2c-8.008 0-24-27.391-24-34l-1-1v-1c0-5.348-2-10.12-2-16 0-1.235-.643-5 1-5 0 14.793 7.922 25.343 14 37.5 2.793 5.586 13 11.721 13 17.5ZM301 181v2l-1-2h1Z"/><path fill="#CBCBC7" id="aco" d="M198 210c0 2.707-1 5.903-1 8l-3.5-6c-3.987-3.987-5.984-12.469-8.5-17.5-.812-1.624-4.144-3.712-3-6 3.476-6.951 12 6.209 12 10.5l4 11ZM258 209l1 9c1.727 0 3.372-5.244 4-6.5 1.572-3.143 12.087-21.826 11-24-.86-1.72-3.7.1-4.5.5-4.609 2.305-7.5 6.422-7.5 12l-1 1c0 1.829-1.371 8-3 8Z"/><path fill="#CAC8C7" id="lot" d="m273 237 2 1c6.962 0 24-28.789 24-35l1-2 1-14c-2.064 0-.426 3.353-1 4.5l-7 15c-2.438 4.875-20 28.474-20 30.5Z"/><path fill="#99D2BD" id="OLF" d="M200 203c0 .759-1.318 7-2 7l-4-11c1.548 0 2.767 4 6 4ZM262 200l-1 1 1-1ZM257 203c0 2.124 1 4.436 1 6 1.629 0 3-6.171 3-8l-4 2ZM300 201l-1 2 1-2ZM157 203l1 1-1-1ZM229 222l1 1-1-1ZM226 228l-1 1 1-1Z"/><path fill="#C7CBCA" id="onl" d="m231 231 1 1-1-1ZM225 232l-1 2 1-2ZM232 233l1 2-1-2Z"/><path fill="#99D2BD" id="OLF" d="m224 235-1 1 1-1ZM193 242l1 4c-2.153 0-12-5.955-12-8l1-2c3.307 0 6.029 6 10 6Z"/><path fill="#C7CBCA" id="onl" d="m233 236 1 1-1-1ZM223 237l-1 1 1-1Z"/><path fill="#99D2BD" id="OLF" d="M263 242v4c1.768 0 12-6.652 12-8l-2-1-10 5Z"/><path fill="#C7CBCA" id="onl" d="m234 238 1 1-1-1Z"/><path fill="#99D2BD" id="OLF" d="m222 239-1 1 1-1ZM235 240l1 1-1-1ZM221 241l-1 1 1-1Z"/><path fill="#C7CBCA" id="onl" d="M236 242h1l-1-1v1Z"/><path fill="#99D2BD" id="OLF" d="m220 242-1 1 1-1ZM237 242l1 2-2-2h1ZM218 244v1l1-2-1 1Z"/><path fill="#C7CBCA" id="onl" d="M217 245h1v-1l-1 1ZM238 244l1 1-1-1Z"/><path fill="#99D2BD" id="OLF" d="m239 245 3 3-3-3ZM217 246l-1 1 1-1ZM262 246l-1 1 1-1ZM215 247l-1 1 1-1ZM243 248l1 1-1-1Z"/></svg>