<svg xmlns="http://www.w3.org/2000/svg" viewBox="0 0 456 320"><path fill="#1E9D5A" id="MOp1" d="M144 43v6l7.5-3c5.266-2.633 31.094-8 37.5-8v-5c-6.931 0-30.089 3.294-35.5 6l-8.5 3-1 1Z"/><path fill="#1E9C59" id="MOs1" d="M222 52h1l4-2c0-4.255-4.728-4.957-6-7.5-5.89-11.78-19.669-9.5-32-9.5v5c10.557 0 24.151-3.199 30 8.5 1.089 2.177 3 2.822 3 5.5ZM230 49c0 2.109 2.535 2 4 2l5-7.5c1.576-3.152 9.559-5.03 12.5-6.5 1.788-.894 15.5-.127 15.5 1h1l-1-5c-12.201 0-26.332-1.837-32 9.5-.864 1.728-5 3.581-5 6.5Z"/><path fill="#1E9D5A" id="MOp1" d="M312 42c0 2.41 1 5.181 1 7l-8.5-3c-4.866-2.433-30.679-8-36.5-8l-1-5c6.292 0 31.909 3.705 36.5 6l8.5 3Z"/><path fill="#1E9D58" id="MOs2/3" d="m222 52-6 3c-.555 0-6.846-6.173-8.5-7-5.81-2.905-15.137 2-20.5 2 0-3.563 2-8.265 2-12 10.557 0 24.151-3.199 30 8.5 1.089 2.177 3 2.822 3 5.5ZM234 52l6 3c1.017 0 6.747-6.123 8.5-7 5.883-2.941 15.189 2 20.5 2 0-4.01-2-8.3-2-12 0-1.127-13.712-1.894-15.5-1-2.941 1.47-10.924 3.348-12.5 6.5l-5 7.5v1Z"/><path fill="#1F9C58" id="MOp2/3" d="M143 65v7c8.98 0 32.404-21 44-21v-1c0-3.563 2-8.265 2-12-6.406 0-32.234 5.367-37.5 8l-7.5 3c0 1.048.473 3-1 3v1c1.186 0 1.186 1 0 1v11ZM313 65l1 7c-11.575 0-31.655-21-45-21v-1c0-4.01-2-8.3-2-12h1c5.821 0 31.634 5.567 36.5 8l8.5 3v16Z"/><path fill="#187F60" id="SSp-ll1" d="m145 42-1 1 1-1ZM313 49h2l1-6-4-1c0 2.41 1 5.181 1 7ZM142 49h2v-6c-1.145 0-4-.58-4 1l1 5h1Z"/><path fill="#197E64" id="SSp-ul1" d="m354 62-2 5c-5.412 0-27.515-17-37-17v-1l1-6c6.326 0 23.207 10.854 29.5 14 1.555.778 8.5 3.004 8.5 5ZM102 62l3 5 36-18-1-5c-9.797 0-22.051 8.776-30.5 13l-7.5 5Z"/><path fill="#1F9D58" id="MOs5" d="M203 67c-2.72 0-5.79-4.855-9.5-3l-9.5 4 3-17v-1c5.363 0 14.69-4.905 20.5-2 1.654.827 7.945 7 8.5 7v1c-4.584 0-8.23 11-13 11ZM253 67c2.72 0 5.79-4.855 9.5-3l10.5 4-4-17v-1c-5.311 0-14.617-4.941-20.5-2-1.753.877-7.483 7-8.5 7v1c1.691 0 13 10.683 13 11Z"/><path fill="#197F61" id="SSp-ul2/3" d="M110 79h1c1.216 0 25.023-14 32-14V52l-1-3h-1l-36 18c0 4.633 5 7.643 5 12Z"/><path fill="#187F64" id="SSp-ll2/3" d="M144 49c0 1.048.473 3-1 3l-1-3h2Z"/><path fill="#3EA665" id="ACAd1" d="M233 77c-3.325 0-7.31 1-10 1V52l4-2c2.05 0 1.468-1 3-1 0 2.109 2.535 2 4 2v1c0 7.71-1 16.66-1 25Z"/><path fill="#187F64" id="SSp-ll2/3" d="m315 50-2 3v-4h2v1Z"/><path fill="#197F61" id="SSp-ul2/3" d="M346 79h1c0-.844 2.504-11 5-11v-1c-5.412 0-27.515-17-37-17l-2 3v12c5.895 0 21.968 7.234 27.5 10l5.5 4Z"/><path fill="#1E9C5A" id="MOp5" d="M143 72v15c10.254 0 34.987-18 40-18l1-1 3-17c-11.596 0-35.02 21-44 21ZM314 73c-2.626 0 0 2.993 0 3.5V87c-10.162 0-36.614-18-41-18v-1l-4-17c13.345 0 33.425 21 45 21v1Z"/><path fill="#40A565" id="ACAd2/3" d="m223 78-6 1c0-7.564-1-16.113-1-23v-1l6-3h1v26ZM233 78c2.124 0 4.436 1 6 1 0-7.62 1-16.035 1-23v-1l-6-3c0 7.71-1 16.66-1 25v1Z"/><path fill="#187F64" id="SSp-ll2/3" d="M143 53c1.186 0 1.186 1 0 1v-1Z"/><path fill="#3EA566" id="ACAd5" d="m217 79-12 6c0-2.992-.075-17-2-17v-1c4.77 0 8.416-11 13-11 0 6.887 1 15.436 1 23ZM239 79l12 6c0-5.514 2-11.746 2-17v-1c0-.317-11.309-11-13-11 0 6.965-1 15.38-1 23Z"/><path fill="#1B8062" id="SSp-un1" d="M100 71h1l4-4-3-5c-1.713 0-9 4.88-9 7 1.813 0 7 .115 7 2ZM356 71c0-4.822 8.939 0 10 0 0-2.397-10.035-9-12-9l-2 5v1c1.658 0 3 1.46 3 3h1Z"/><path fill="#1D9C5A" id="MOs6a" d="m191 88-8 2c-1.643 0-1-3.766-1-5l1-16 1-1 9.5-4c3.71-1.855 6.78 3 9.5 3v1c-1.367 0-12 17.855-12 20ZM265 89c2.343 0 6.082 1 9 1 0-3.73 1-8.015 1-11.5 0-2.885-2-6.134-2-9.5v-1l-10.5-4c-3.71-1.855-6.78 3-9.5 3v1c3.513 0 12 17.746 12 21Z"/><path fill="#1A7F63" id="SSp-ul4" d="M114 87h1l28-15v-7c-6.977 0-30.784 14-32 14 0 3.425 3 4.761 3 8ZM343 86l-1 1c-5.959 0-19.981-14-28-14v-1l-1-7c5.895 0 21.968 7.234 27.5 10l5.5 4-3 7Z"/><path fill="#1C7F63" id="SSp-un2/3" d="m110 79-1 1c-1.988 0-2.408-3.315-3-4.5l-5-4.5 4-4c0 4.633 5 7.643 5 12Z"/><path fill="#3FA664" id="ACAd6a" d="M191 89c2.813 0 3.461 4 5 4l9-7v-1c0-2.992-.075-17-2-17-1.367 0-12 17.855-12 20v1ZM260 94h1c0-2.003-.293-3 2-3 0-1.747.253-2 2-2 0-3.254-8.487-21-12-21 0 5.254-2 11.486-2 17v1c1.938 0 9 5.842 9 8Z"/><path fill="#1C7F63" id="SSp-un2/3" d="m347 79 1 1c0-3.598 7-5.782 7-9 0-1.54-1.342-3-3-3-2.496 0-5 10.156-5 11Z"/><path fill="#1B8062" id="SSp-un1" d="m92 69-1 1 1-1Z"/><path fill="#187E61" id="SSp-m1" d="M57 132h1c0-14.808 15.145-37.645 26-48.5C86.79 80.71 96.83 71 100 71c0-1.885-5.187-2-7-2h-1l-1 1-1 1c0 5.977-8.695 12-14 12l-1 1-7 9.5c-5.42 10.841-15 22.669-15 35.5l4 3Z"/><path fill="#1F9B5A" id="MOp6a" d="M143 107h2c0-2.216 7.15-4 9-4 0-1.638 3.576-2 5-2 0-1.638 3.576-2 5-2 0-2.216 7.15-4 9-4 0-1.26 8.632-4 10-4v-1c-1.643 0-1-3.766-1-5l1-16c-5.013 0-29.746 18-40 18v20ZM274 91c8.985 0 31.227 16 39 16 0-6.478 1-13.851 1-20-10.162 0-36.614-18-41-18 0 3.366 2 6.615 2 9.5 0 3.485-1 7.77-1 11.5v1Z"/><path fill="#187E61" id="SSp-m1" d="M404 129c-1.947 0-2.636 3-5 3 0-11.406-19.54-46.02-29.5-51-3.357-1.679-8.774-10-13.5-10 0-4.822 8.939 0 10 0h1c0 6.096 2.966 6.733 9.5 10 1.352.676 2.094 3 4.5 3 2.624 0 6.851 8.202 8 10.5 4.198 8.395 15 25.08 15 34.5Z"/><path fill="#1B8062" id="SSp-un1" d="m91 70-1 1 1-1Z"/><path fill="#197E63" id="SSp-n1" d="M90 71c-2.171 0-14 9.492-14 12 5.305 0 14-6.023 14-12Z"/><path fill="#1A7E64" id="SSp-m2/3" d="M58 132c0 .848 7.473 5 9 5 0-13.937 15.37-41.435 28.5-48 4.645-2.322 7.925-8 13.5-8v-1c-1.988 0-2.408-3.315-3-4.5l-5-4.5h-1c-3.17 0-13.21 9.71-16 12.5-10.855 10.855-26 33.692-26 48.5ZM399 133c-4.193 0-6.106 4-10 4 0-13.054-13.304-39.902-25.5-46-5.12-2.56-9.47-10-15.5-10v-1c0-3.598 7-5.782 7-9h1c4.726 0 10.143 8.321 13.5 10 9.96 4.98 29.5 39.594 29.5 51v1Z"/><path fill="#197E63" id="SSp-n1" d="M367 71c.461 0 14 11.43 14 13-2.406 0-3.148-2.324-4.5-3-6.534-3.267-9.5-3.904-9.5-10Z"/><path fill="#187E62" id="SSp-ul5" d="M120 97h1c7.225 0 14.487-10 22-10V72l-28 15 5 10ZM336 97h1l5-10c-5.959 0-19.981-14-28-14-2.626 0 0 2.993 0 3.5V87c7.491 0 14.589 10 22 10Z"/><path fill="#40A664" id="ACAv1" d="m229 104 5 5c0-9.935-1-20.513-1-31v-1c-3.325 0-7.31 1-10 1 0 10.355-1 21.268-1 31l5-5c0-3.15 2-3.446 2 0Z"/><path fill="#3FA566" id="ACAv2/3" d="m221 112-3 1c0-11.242-1-23.43-1-34l6-1c0 10.355-1 21.268-1 31l-1 3ZM235 111l3 2c0-10.699 1-22.667 1-34-1.564 0-3.876-1-6-1 0 10.487 1 21.065 1 31l1 2Z"/><path fill="#197E61" id="SSp-un4" d="M113 87h1c0-3.239-3-4.575-3-8h-1l-1 1v1l4 6Z"/><path fill="#3EA666" id="ACAv5" d="M209 109c2.759 0 5.795 4 9 4 0-11.242-1-23.43-1-34l-12 6v1c0 8.15 4 15.371 4 23ZM247 109c0 1.817-7.169 4-9 4 0-10.699 1-22.667 1-34l12 6v1c0 8.468-4 15.633-4 23Z"/><path fill="#197E61" id="SSp-un4" d="m348 81-5 5 3-7h1l1 1v1Z"/><path fill="#1B7F62" id="SSp-m4" d="M72 139h1c0-6.965 16.75-37.125 22.5-40 3.651-1.826 10.779-5.779 13.5-8.5l4-3.5-4-6c-5.575 0-8.855 5.678-13.5 8C82.37 95.565 67 123.063 67 137c1.624 0 2.75 2 5 2ZM384 139h1l4-1v-1c0-13.054-13.304-39.902-25.5-46-5.12-2.56-9.47-10-15.5-10l-5 5v1l16 10.5 6 6c4.284 8.568 19 26.457 19 35.5Z"/><path fill="#197E63" id="SSp-n1" d="m76 83-1 1 1-1Z"/><path fill="#40A564" id="ACAv6a" d="M208 109h1c0-7.629-4-14.85-4-23l-9 7v1l3 5.5c1.681 3.362 7 3.436 7 7.5l2 2ZM247 109h2l1-2c0-1.747.253-2 2-2 0-3.646 8-6.714 8-11 0-2.158-7.062-8-9-8 0 8.468-4 15.633-4 23Z"/><path fill="#197E61" id="SSp-un4" d="M342 87h1v-1l-1 1Z"/><path fill="#1B7E63" id="SSp-m5" d="M73 139c0 1.703 8.16 5 10 5 0-8.999 12.138-32.819 20.5-37L120 97l-5-10h-2l-4 3.5c-2.721 2.721-9.849 6.674-13.5 8.5-5.75 2.875-22.5 33.035-22.5 40Z"/><path fill="#197D61" id="SSp-ul6a" d="M129 113h2l12-6V87c-7.513 0-14.775 10-22 10 0 5.824 8 11.716 8 16ZM326 113h1c0-6.012 9-10.019 9-16-7.411 0-14.509-10-22-10 0 6.149-1 13.522-1 20 4.158 0 9.058 6 13 6Z"/><path fill="#1B7E63" id="SSp-m5" d="M373 145h1c0-.975 9.576-6 10-6 0-9.043-14.716-26.932-19-35.5l-6-6L343 87h-1l-5 10c0 .533 14.528 9.028 16.5 11 10.171 10.171 19.5 22.872 19.5 37Z"/><path fill="#1E9C58" id="MOs6b" d="m191 90-8 1v-1l8-2v2ZM274 91v1c-2.526 0-5.577-2-9-2v-1c2.343 0 6.082 1 9 1v1Z"/><path fill="#3FA466" id="ACAd6b" d="M195 94h1v-1c-1.539 0-2.187-4-5-4v1l4 4ZM265 90l-2 1c0-1.747.253-2 2-2v1Z"/><path fill="#CACCC7" id="cing" d="m206 107 2 2c-9.604 0-11.141-10.32-18.5-14-6.485-3.243-13.169 4-18.5 4l-1 1h-1l-1 1h-5l1-2c1.85 0 9-1.784 9-4 2.507 0 10-.667 10-4l8-1 4 4c0 3.358 7.115 13 11 13ZM250 107l-1 2c8.356 0 12.171-10.835 18.5-14 6.211-3.106 13.017 4 18.5 4l3 2h5c0-2.28-20-7.744-20-9-2.526 0-5.577-2-9-2l-2 1c0 1.238-.423 3-2 3 0 3.397-5.014 11-9 11l-2 2Z"/><path fill="#1D9D5A" id="MOp6b" d="M183 91c-1.368 0-10 2.74-10 4 2.507 0 10-.667 10-4Z"/><path fill="#3FA466" id="ACAd6b" d="M263 91c-2.293 0-2 .997-2 3 1.577 0 2-1.762 2-3Z"/><path fill="#1D9D5A" id="MOp6b" d="M313 107v1c-6.799 0-12.023-7-19-7 0-2.28-20-7.744-20-9v-1c8.985 0 31.227 16 39 16Z"/><path fill="#40A465" id="ACAv6b" d="m196 94 3 5.5c1.681 3.362 7 3.436 7 7.5-3.885 0-11-9.642-11-13h1ZM261 94c0 3.397-5.014 11-9 11 0-3.646 8-6.714 8-11h1Z"/><path fill="#1D9D5A" id="MOp6b" d="M173 95c-1.85 0-9 1.784-9 4 1.85 0 9-1.784 9-4Z"/><path fill="#C9C7C9" id="ccb" d="M359 159v3c-1.586 0-4.223-8.945-5-10.5-2.894-5.788-13.337-23.419-19.5-26.5l-24-12c-5.032-2.516-11.91-1.455-17-4-4.435-2.218-13.412 1-17.5 1 0-5.46-16 2.344-16 5-1.238 0-3 .423-3 2l-2 1-1 1-3 2c-2.907 0-16 1.892-16 5h-5c0-2.202-3-2.202-3 0h-5c-1.914 0-10.599-5-17-5l-2-2-3-2h-1c0-2.17-18-13.712-18-7-4.088 0-13.065-3.218-17.5-1-5.092 2.546-11.947 1.474-17 4-7.564 3.782-15.324 7.162-23 11-6.814 3.407-14.248 14.995-17.5 21.5l-5 7.5v-3l1-2 1-2 2-4c1.577 0 2-1.762 2-3 1.028 0 4-4.666 4-6 1.712 0 3-2.571 3-4l1-1 6.5-6c6.594-3.297 12.483-7.741 19-11 6.239-3.12 13.708-3.854 20-7 1.265-.632 6.5-1.278 6.5-3h1l1-1h1l1-1c5.331 0 12.015-7.243 18.5-4 7.359 3.68 8.896 14 18.5 14h1c2.759 0 5.795 4 9 4l3-1c0 1.579 2.855 1 4 1 2.193 0 10 1.21 10-2l3 2c1.831 0 9-2.183 9-4h2c8.356 0 12.171-10.835 18.5-14 6.211-3.106 13.017 4 18.5 4 0 1.577 1.762 2 3 2h1c0 2.672 7.792 3.146 9.5 4 9.093 4.546 18.844 7.422 28 12 7.519 3.76 17.726 13.953 21.5 21.5.827 1.655 4.291 10.5 6 10.5v1l2 4v1l2 4Z"/><path fill="#187D61" id="SSp-m6a" d="M83 145c5.132 0 10.213 7 15 7 0-2.246 9.112-19 11-19 0-4.454 11.507-16 16-16 0-2.879 4-1.993 4-4 0-4.284-8-10.176-8-16h-1l-16.5 10c-8.362 4.181-20.5 28.001-20.5 37v1ZM373 145l-15 7c0-8.514-16.683-30.092-22.5-33l-8.5-6c0-6.012 9-10.019 9-16h1c0 .533 14.528 9.028 16.5 11 10.171 10.171 19.5 22.872 19.5 37Z"/><path fill="#1D9D5A" id="MOp6b" d="M159 101h4l1-2c-1.424 0-5 .362-5 2Z"/><path fill="#C9C9CA" id="scwm" d="m171 99-1 1 1-1ZM286 99l3 2c-1.238 0-3-.423-3-2ZM169 100l-1 1 1-1Z"/><path fill="#1D9D5A" id="MOp6b" d="M159 101c-1.424 0-5 .362-5 2 1.622 0 5 .461 5-2Z"/><path fill="#C9C9CA" id="scwm" d="M125 117c0 3.422-10 6.163-10 11l6.5-6c6.594-3.297 12.483-7.741 19-11 6.239-3.12 13.708-3.854 20-7 1.265-.632 6.5-1.278 6.5-3h-8c0 2.461-3.378 2-5 2 0 2.216-7.15 4-9 4l-2 1c0 1.977-9.992 5-12 5 0 1.617-4.583 4-6 4ZM326 114l10 7.5c5.961 5.961 19 19.743 19 27.5-1.709 0-5.173-8.845-6-10.5-3.774-7.547-13.981-17.74-21.5-21.5-9.156-4.578-18.907-7.454-28-12-1.708-.854-9.5-1.328-9.5-4h4c6.977 0 12.201 7 19 7l13 6Z"/><path fill="#1D9D5A" id="MOp6b" d="M154 103c-1.85 0-9 1.784-9 4 1.85 0 9-1.784 9-4Z"/><path fill="#7ED04B" id="IG" d="M235 111c0 3.21-7.807 2-10 2-1.145 0-4 .579-4-1l1-3 5-5c0 1.399 2 1.399 2 0l5 5 1 2Z"/><path fill="#40A465" id="ACAv6b" d="M252 105c-1.747 0-2 .253-2 2l2-2Z"/><path fill="#1C8064" id="SSp-ul6b" d="M143 108c0 1.977-9.992 5-12 5l12-6v1Z"/><path fill="#1D9D5A" id="MOp6b" d="m145 107-2 1v-1h2Z"/><path fill="#1C8064" id="SSp-ul6b" d="M326 113v1l-13-6v-1c4.158 0 9.058 6 13 6Z"/><path fill="#AAA8A9" id="SEZ" d="M184 112c0-1.22 3.492-1.504 4.5-1 3.165 1.583 6.845 6 10.5 6 0-2.17-18-13.712-18-7l3 2ZM273 112l-4.5-1c-2.844 1.422-5.045 4-8.5 4 0-2.656 16-10.46 16-5l-3 2Z"/><path fill="#98D5F9" id="CP" d="M130 236h2c0-1.643 3.765-1 5-1h10l2-1c7.151 0 15.502-1.001 21.5-4l6.5-7c0-9.903 1.493-39 13-39l1-13c0-5.605 1-10.861 1-16v-5l1-1v-6c-1.844 0-1.144-11.788-2-13.5l-7-17.5-3-2c-4.088 0-13.065-3.218-17.5-1-5.092 2.546-11.947 1.474-17 4-7.564 3.782-15.324 7.162-23 11-6.814 3.407-14.248 14.995-17.5 21.5l-5 7.5c0 1.424-.362 5-2 5 0 1.424-.362 5-2 5v3l-1 1-1 2v16.5c2.462 4.924 7 19.051 7 24.5 0 4.842 7 9.786 7 14l9 7c3.791 0 7.808 5 12 5ZM324 236h3c0-.963 7.561-3 9-3l1-1 2-1c0-1.617 4.583-4 6-4v-1l1-1h1v-1l1-1 1-1c0-3.318 5-7.352 5-11l1-2c0-1.357.647-6 2-6 0-6.862 2.096-15.693 5-21.5l-1-11.5v-2l-1-2-1-3v-1c-1.586 0-4.223-8.945-5-10.5-2.894-5.788-13.337-23.419-19.5-26.5l-24-12c-5.032-2.516-11.91-1.455-17-4-4.435-2.218-13.412 1-17.5 1l-3 2-6 11.5c-3.186 6.372-3 16.921-3 24.5v7l1 2v12c1.793 0 1 12.009 1 14l1.5 2c1.702.851 5.467.434 6.5 2.5 2.892 5.784 6 28.406 6 35.5.847 0 5.375 6.938 7.5 8 5.294 2.647 14.228 3 20.5 3l1 1h10c1.235 0 5-.643 5 1Z"/><path fill="#A8AAAA" id="VL" d="M205 121c0 3.777-6.307 9.114-8 12.5-.729 1.457-2.364 9.5-4 9.5-1.844 0-1.144-11.788-2-13.5l-7-17.5c0-1.22 3.492-1.504 4.5-1 3.165 1.583 6.845 6 10.5 6h1c0 1.577 1.762 2 3 2l2 2ZM263 148h1c0-7.579-.186-18.128 3-24.5l6-11.5-4.5-1c-2.844 1.422-5.045 4-8.5 4 0 1.577-1.762 2-3 2l-2 1-1 1-3 2c0 3.056 12 15.824 12 27Z"/><path fill="#188064" id="SSp-m6b" d="M131 113c0 1.617-4.583 4-6 4 0-2.879 4-1.993 4-4h2ZM357 152h1c0-8.514-16.683-30.092-22.5-33l-8.5-6h-1v1l10 7.5c5.961 5.961 19 19.743 19 27.5v1l2 2Z"/><path fill="#AAA8A9" id="SEZ" d="M260 115c-1.238 0-3 .423-3 2 1.238 0 3-.423 3-2Z"/><path fill="#188064" id="SSp-m6b" d="M109 133h2c0-1.429 1.288-4 3-4l1-1c0-4.837 10-7.578 10-11-4.493 0-16 11.546-16 16Z"/><path fill="#AAA8A9" id="SEZ" d="m200 117 3 2c-1.238 0-3-.423-3-2ZM257 117l-2 1 2-1ZM255 118l-1 1 1-1Z"/><path fill="#90CBEC" id="LSc" d="m193 148 3 1 7.5-7c4.241-2.12 18.5-8.892 18.5-15v-1c-1.914 0-10.599-5-17-5 0 3.777-6.307 9.114-8 12.5-.729 1.457-2.364 9.5-4 9.5v5ZM263 148l-3 1-3.5-4c-3.46-1.73-21.5-13.648-21.5-17v-2c0-3.108 13.093-5 16-5 0 3.056 12 15.824 12 27Z"/><path fill="#97D6F9" id="STR" d="M227 126c0 1.486 3 1.486 3 0 0-2.202-3-2.202-3 0ZM224 126l-2 1v-1h2Z"/><path fill="#90CAED" id="LSr" d="M219 185c-1.684 0-1 4.679-1 6l-5.5-7c-8.553-4.277-10.71-11-20.5-11l-1-2c0-5.605 1-10.861 1-16l4-6 7.5-7c4.241-2.12 18.5-8.892 18.5-15l2-1h3c0 1.486 3 1.486 3 0h3l2 2c0 3.352 18.04 15.27 21.5 17l3.5 4 4 5v1l1 2v12c0 1.145.579 4-1 4-1.867 0-3.227-1.137-5.5 0-2.421 1.211-19.5 14.678-19.5 17-2.662 0 .662-7-2-7v-3c0-4.364-2-8.259-2-12 0-1.235.643-5-1-5v-1l-1-2v-1c0-6.857-4-12.237-4-19 0-1.186-1-1.186-1 0 0 6.774-5 13.667-5 21-1.888 0-2 8.072-2 10-1.684 0-1 4.679-1 6-1.684 0-1 4.679-1 6v2Z"/><path fill="#97D6F9" id="STR" d="M235 126v2l-2-2h2Z"/><path fill="#C9C9CA" id="scwm" d="m115 128-1 1 1-1Z"/><path fill="#1A7E62" id="SSs1" d="M47 177h4v-1c0-6.618-2.958-19.584 0-25.5 2.568-5.137 6-12.473 6-18.5l-4-3c-1.973 0-3.18 8.862-4 10.5-2.214 4.428-6.803 25.395-4 31l2 6.5Z"/><path fill="#C9C9CA" id="scwm" d="M114 129c-1.712 0-3 2.571-3 4 1.712 0 3-2.571 3-4Z"/><path fill="#1A7E62" id="SSs1" d="M405 177h5c0-5.307 3.438-22.624 1-27.5-1.512-3.025-7-17.721-7-20.5-1.947 0-2.636 3-5 3v1l6 16.5c3.556 7.111 0 19.141 0 26.5v1Z"/><path fill="#1B8063" id="SSs2/3" d="m61 175-10 1c0-6.618-2.958-19.584 0-25.5 2.568-5.137 6-12.473 6-18.5h1c0 .848 7.473 5 9 5l-6 21.5c-2.282 4.564 0 12.127 0 16.5Z"/><path fill="#188064" id="SSp-m6b" d="M98 152h2l1-1v-1l1-2 1-2c0-1.465-.109-4 2-4 0-1.238.423-3 2-3 0-2.72 2-3.553 2-6-1.888 0-11 16.754-11 19Z"/><path fill="#C9C9CA" id="scwm" d="M111 133c0 1.334-2.972 6-4 6 0-2.72 2-3.553 2-6h2Z"/><path fill="#1B8063" id="SSs2/3" d="m396 175 9 1c0-7.359 3.556-19.389 0-26.5l-6-16.5c-4.193 0-6.106 4-10 4v1c1.946 0 2.241 7.983 3 9.5 3.896 7.793 4 18.12 4 27.5Z"/><path fill="#187C63" id="SSs4" d="m66 174-5 1c0-4.373-2.282-11.936 0-16.5l6-21.5c1.624 0 2.75 2 5 2l-3 9.5c-1.583 3.167-3 21.076-3 25.5ZM390 174c1.564 0 3.876 1 6 1 0-9.38-.104-19.707-4-27.5-.759-1.517-1.054-9.5-3-9.5l-4 1c0 11.521 5 22.525 5 35Z"/><path fill="#1C8063" id="SSs5" d="M66 174h7c1.564 0 3.876-1 6-1 0-6.064-.387-17.726 2-22.5l2-5.5v-1c-1.84 0-10-3.297-10-5h-1l-3 9.5c-1.583 3.167-3 21.076-3 25.5Z"/><path fill="#C9C9CA" id="scwm" d="M107 139c-1.577 0-2 1.762-2 3 1.577 0 2-1.762 2-3Z"/><path fill="#97D6F9" id="STR" d="M228 140h1c0-1.186-1-1.186-1 0Z"/><path fill="#1C8063" id="SSs5" d="M385 175h1c0-1.579 2.855-1 4-1 0-12.475-5-23.479-5-35h-1c-.424 0-10 5.025-10 6 0 9.343 4 18.093 4 28l5 1 2 1Z"/><path fill="#8FCBEC" id="SF" d="M233 159c-1.641 0-2.028-9.736-5.5-8-2.334 1.167-2.6 10-4.5 10 0-7.333 5-14.226 5-21h1c0 6.763 4 12.143 4 19Z"/><path fill="#C9C9CA" id="scwm" d="M105 142c-2.109 0-2 2.535-2 4l2-4Z"/><path fill="#197D63" id="SSs6a" d="m93 172-14 1c0-6.064-.387-17.726 2-22.5l2-5.5c5.132 0 10.213 7 15 7 0 6.852-5 12.879-5 20ZM364 172c4.502 0 8.375 1 14 1 0-9.907-4-18.657-4-28h-1l-15 7 6 20Z"/><path fill="#C9C9CA" id="scwm" d="m103 146-1 2 1-2ZM102 148l-1 2 1-2Z"/><path fill="#97D6F9" id="STR" d="M192 150v5l4-6-3-1v1l-1 1ZM260 149l4 5v-6h-1l-3 1Z"/><path fill="#A8AAAA" id="VL" d="m193 149-1 1 1-1Z"/><path fill="#C9C9CA" id="scwm" d="M357 152v2l-2-4 2 2ZM100 153h1v-2l-1 1v1Z"/><path fill="#96A7D3" id="MS" d="M225 221c2.45 0 1.698-3 3.5-3 .93 0-.033 3 2.5 3l1-2 1-2 1-4 1-1c0-3.166.693-5.886 2-8.5V180c-2.064 0-.426-3.353-1-4.5-1.595-3.19-2-7.707-2-11.5l-1-2v-3c-1.641 0-2.028-9.736-5.5-8-2.334 1.167-2.6 10-4.5 10 0 1.928-.112 10-2 10 0 1.321.684 6-1 6 0 1.321.684 6-1 6v16l3 14c1.473 0 1 1.952 1 3l2 4v1Z"/><path fill="#1A8061" id="SSs6b" d="M94 172h1v-3l1-2v-1l1-2v-4l1-1v-1l1-1v-2l1-2v-1h-2c0 6.852-5 12.879-5 20h1ZM362 172h2l-6-20h-1v3l2 4v4l2 3v4l1 2Z"/><path fill="#C9C9CA" id="scwm" d="m100 153-1 2 1-2Z"/><path fill="#C9C7C9" id="ccb" d="M99 157v1c1.638 0 2-3.576 2-5h-1l-1 2v2Z"/><path fill="#97D6F9" id="STR" d="m264 155 1 2-1-2Z"/><path fill="#C9C9CA" id="scwm" d="m357 155 2 4-2-4ZM98 158h1v-1l-1 1Z"/><path fill="#C9C7C9" id="ccb" d="M97 160v3c1.638 0 2-3.576 2-5h-1v1l-1 1Z"/><path fill="#C9C9CA" id="scwm" d="m98 159-1 1 1-1Z"/><path fill="#97D6F9" id="STR" d="M233 162h1l-1-2v2ZM223 161c-1.888 0-2 8.072-2 10 1.888 0 2-8.072 2-10Z"/><path fill="#8FCBEC" id="SF" d="M234 163v1l-1-2h1v1Z"/><path fill="#97D6F9" id="STR" d="M234 164c0 3.793.405 8.31 2 11.5.574 1.147-1.064 4.5 1 4.5 0-4.364-2-8.259-2-12 0-1.235.643-5-1-5v1Z"/><path fill="#C9C7C9" id="ccb" d="M360 166h1l-2-3 1 3ZM96 166h1v-2l-1 2Z"/><path fill="#C8CBCC" id="ec" d="m97 166-1 1v-1h1ZM361 166v2l-1-2h1ZM96 167l-1 2 1-2Z"/><path fill="#A8AAAA" id="VL" d="M266 183c0 2.426 1.024 6-2 6v-16c1.579 0 1-2.855 1-4 1.793 0 1 12.009 1 14Z"/><path fill="#C8CBCC" id="ec" d="m359 201-2 2c0-6.862 2.096-15.693 5-21.5l-1-11.5 1 2c0 4.594 1 10.741 1 16-1.473 0-1 1.952-1 3-1.473 0-1 1.952-1 3l-1 1v1c-1.473 0-1 1.952-1 3v2Z"/><path fill="#A8AAAA" id="VL" d="M190 184c0 1.606 2 6.398 2 4v-15l-1-2-1 13Z"/><path fill="#97D6F9" id="STR" d="M221 171c-1.684 0-1 4.679-1 6 1.684 0 1-4.679 1-6Z"/><path fill="#009B74" id="GU6a" d="m89 191-8 1-2-5.5V173l14-1v16c-1.717 0-4 1.252-4 3Z"/><path fill="#019C74" id="GU6b" d="M93 187h1v-15h-1v15Z"/><path fill="#C8CBCC" id="ec" d="m100 209 2 1c0-5.449-4.538-19.576-7-24.5V172h-1v15l1 4v2l1 1v1l1 2v2c1.014 0 2 3.959 2 5v3l1 2Z"/><path fill="#8FCBED" id="LSv" d="M203 199c1.876 0 7.62 3.06 9.5 4 3.721 1.86 4.715-4 6.5-4v-6l-1-2-5.5-7c-8.553-4.277-10.71-11-20.5-11v15l3 4 1 1 1 1 2 2 1 1 3 2ZM253 199h1l1-1 1-1 1-1 1-1 3-2 1-1 1-1 1-2v-16c-1.867 0-3.227-1.137-5.5 0-2.421 1.211-19.5 14.678-19.5 17 0 3.755-1.931 6.638 0 10.5 3.208 6.417 9.632-1.5 14-1.5Z"/><path fill="#019C74" id="GU6b" d="M363 188h1v-16h-2c0 4.594 1 10.741 1 16Z"/><path fill="#009B74" id="GU6a" d="M375 193h1c0-6.743 2-12.928 2-20-5.625 0-9.498-1-14-1v16l4 3c.759 0 7 1.318 7 2Z"/><path fill="#019C75" id="GU5" d="m67 195 1 1c4.062 0 8.575-3 13-3v-1l-2-5.5V173c-2.124 0-4.436 1-6 1 0 .853-6.031 2-7 2 0 6.628 1 12.818 1 19ZM389 195l-1 1-12-3c0-6.743 2-12.928 2-20l5 1 2 1h1l4 1c0 5.942-1 12.828-1 19Z"/><path fill="#11AC82" id="VISC4" d="m66 176-5 1v-2l5-1v2Z"/><path fill="#12AD82" id="VISC5" d="M73 174c0 .853-6.031 2-7 2v-2h7ZM383 174l2 1-2-1ZM386 175l4 1v-2c-1.145 0-4-.579-4 1Z"/><path fill="#11AC82" id="VISC4" d="M395 177h1v-2c-2.124 0-4.436-1-6-1v2l5 1Z"/><path fill="#12AC83" id="VISC2/3" d="m61 177-9 4-1-4v-1l10-1v2ZM405 177l-1 4-8-4v-2l9 1v1Z"/><path fill="#009C74" id="GU4" d="M66 195h1c0-6.182-1-12.372-1-19l-5 1c0 5.167 1.837 10.174 4 14.5.523 1.046-.951 3.5 1 3.5ZM389 195h2c0-5.999 4-11.225 4-18l-5-1c0 5.942-1 12.828-1 19Z"/><path fill="#12AD83" id="VISC1" d="m52 181-4 2-1-6h4l1 4Z"/><path fill="#009B75" id="GU2/3" d="M58 198h1c0-2.102 7-.058 7-3-1.951 0-.477-2.454-1-3.5-2.163-4.326-4-9.333-4-14.5l-9 4 6 17Z"/><path fill="#97D6F9" id="STR" d="M220 177c-1.684 0-1 4.679-1 6 1.684 0 1-4.679 1-6Z"/><path fill="#009B75" id="GU2/3" d="M391 195c0 2.867 5.149 2 7 2 2.168 0 6-13.725 6-16l-8-4h-1c0 6.775-4 12.001-4 18Z"/><path fill="#12AD83" id="VISC1" d="m404 181 4 2c.675 0 2-5.294 2-6h-5l-1 4Z"/><path fill="#009C75" id="GU1" d="m58 198-4 1-6-16 4-2 6 17ZM398 198l4 1c1.183 0 1.535-3.57 2-4.5 1.62-3.24 4-7.708 4-11.5l-4-2c0 2.275-3.832 16-6 16v1Z"/><path fill="#97D6F9" id="STR" d="M247 213h1c0-4.708 5-9.71 5-14-4.368 0-10.792 7.917-14 1.5-1.931-3.862 0-6.745 0-10.5-2.662 0 .662-7-2-7v20.5c-1.307 2.614-2 5.334-2 8.5 2.421 0 6.678-2.411 9.5-1l2.5 2ZM276 223h4c0-7.094-3.108-29.716-6-35.5-1.033-2.066-4.798-1.649-6.5-2.5l-1.5-2c0 2.426 1.024 6-2 6l-1 2c3.153 0 8-2.114 8 3 1.995 0 2 4.377 2 6v6l1 1-1 7.5 3 8.5ZM177 223h4l2-6.5V202c0-1.145-.579-4 1-4 0-1.048-.473-3 1-3 0-7.479 6.109-3 10-3l-3-4c0 2.398-2-2.394-2-4-11.507 0-13 29.097-13 39ZM218 191l1 2v-8c-1.684 0-1 4.679-1 6Z"/><path fill="#1F9766" id="AId6b" d="m93 190 2 1-1-4h-1v3Z"/><path fill="#209666" id="AId6a" d="M89 191v2l4-3v-2c-1.717 0-4 1.252-4 3Z"/><path fill="#1F9766" id="AId6b" d="m363 190-1 1c0-1.048-.473-3 1-3v2Z"/><path fill="#209666" id="AId6a" d="m368 191-1 1-4-2v-2h1l4 3Z"/><path fill="#8ADA86" id="CLA" d="M94 209h2l1-1v-1l1-3-1-5v-2l-1-2v-1l-1-1v-2l-2-1-4 3c0 2.981-1.261 16 5 16Z"/><path fill="#B3C0DE" id="BST" fill-rule="evenodd" d="m192 207-5 5c0 24.473 28.219-5 5-5m-10 23c3.629 0 8.716 1 13 1 6.16 0 5.969-9 13-9h1v-8l-1-2c0-4.358-5-9.429-5-13l-3-2-1-1-2-2-1-1-1-1c-3.891 0-10-4.479-10 3 0 1.048.473 3-1 3 0 1.145.579 4-1 4v14.5l-2 6.5c4.045 0 1 5.781 1 7ZM260 207c0 2.395-5 3.081-5 6.5 0 15.658 27.001 3.25 9.5-5.5-1.718-.859-2.387-1-4.5-1m14 23c-3.629 0-8.716 1-13 1-5.342 0-6.564-8.032-10.5-10l-2.5 2-1-2v-6l1-2c0-4.708 5-9.71 5-14h1l1-1 1-1 1-1 1-1 3-2 1-1 1-1c3.153 0 8-2.114 8 3 0 .986 1.087 6 2 6v6l1 1-1 7.5 3 8.5c-2.867 0-2 5.149-2 7Z"/><path fill="#8ADA86" id="CLA" d="M361 209h1c7.802 0 5-12.764 5-17l-4-2-1 1c-1.473 0-1 1.952-1 3l-1 1v1c0 1.048.473 3-1 3v9h1l1 1Z"/><path fill="#209766" id="AIp6a" d="m93 211-5 2c0-7.145-7-12.435-7-20v-1l8-1v2c0 2.981-1.261 16 5 16l-1 2Z"/><path fill="#97D6F9" id="STR" d="m263 191-1 1 1-1Z"/><path fill="#209766" id="AIp6a" d="m364 211 4 1c1.337 0 7-15.616 7-19 0-.682-6.241-2-7-2l-1 1c0 4.236 2.802 17-5 17l2 2Z"/><path fill="#97D6F9" id="STR" d="m262 192-1 1 1-1Z"/><path fill="#219864" id="AIp5" d="M80 215h4l4-2c0-7.145-7-12.435-7-20-4.425 0-8.938 3-13 3 0 2.221 10.718 19 12 19Z"/><path fill="#209666" id="AId6a" d="m95 193 1 1-1-1Z"/><path fill="#97D6F9" id="STR" d="m196 193 1 1-1-1Z"/><path fill="#219864" id="AIp5" d="m372 215 5 1c0-7.046 11-12.227 11-20l-12-3h-1c0 3.384-5.663 19-7 19l4 3Z"/><path fill="#8599CC" id="PAL" d="M271 194c1.995 0 2 4.377 2 6-.913 0-2-5.014-2-6Z"/><path fill="#209666" id="AId6a" d="m361 194-1 1 1-1Z"/><path fill="#209865" id="AIp2/3" d="M80 215c0 1.259-8.632 4-10 4 0-2.516-11-14.581-11-21 0-2.102 7-.058 7-3h1l1 1c0 2.221 10.718 19 12 19Z"/><path fill="#209666" id="AId6a" d="m96 195 1 2-1-2Z"/><path fill="#8599CC" id="PAL" d="M185 195c-1.473 0-1 1.952-1 3 1.473 0 1-1.952 1-3Z"/><path fill="#97D6F9" id="STR" d="m258 195-1 1 1-1Z"/><path fill="#219864" id="AIp5" d="m389 195-1 1 1-1Z"/><path fill="#209865" id="AIp2/3" d="m377 216 10 3c0-5.347 11-14.381 11-21v-1c-1.851 0-7 .867-7-2h-2l-1 1c0 7.773-11 12.954-11 20Z"/><path fill="#97D6F9" id="STR" d="m199 196 1 1-1-1Z"/><path fill="#209666" id="AId6a" d="M360 196c-1.473 0-1 1.952-1 3 1.473 0 1-1.952 1-3Z"/><path fill="#97D6F9" id="STR" d="m256 197-1 1 1-1Z"/><path fill="#219765" id="AIp1" d="m70 219-5 3-3-5.5c-2.246-4.492-8-12.476-8-17.5l4-1h1c0 6.419 11 18.484 11 21Z"/><path fill="#8599CC" id="PAL" d="M184 198c-1.579 0-1 2.855-1 4 1.579 0 1-2.855 1-4Z"/><path fill="#97D6F9" id="STR" d="m255 198-1 1 1-1Z"/><path fill="#219765" id="AIp1" d="M387 219c0 1.638 3.576 2 5 2l3-5.5c2.299-4.599 7-11.19 7-16.5l-4-1c0 6.619-11 15.653-11 21Z"/><path fill="#209666" id="AId6a" d="M98 204h1c0-1.041-.986-5-2-5l1 5Z"/><path fill="#97D6F9" id="STR" d="M209 213c2.926 0 6.701-3.9 10.5-2l2.5 2-3-14c-1.785 0-2.779 5.86-6.5 4-1.88-.94-7.624-4-9.5-4 0 3.571 5 8.642 5 13l1 1Z"/><path fill="#209666" id="AId6a" d="M357 205h2v-4l-2 2v2Z"/><path fill="#C8CBCC" id="ec" d="M355 209h1l1-1v-5c-1.353 0-2 4.643-2 6Z"/><path fill="#1F9866" id="AIv6a" d="M97 207h2v-3h-1l-1 3ZM357 206l2 1v-2h-2v1Z"/><path fill="#8599CC" id="PAL" d="m273 206 1 1-1-1Z"/><path fill="#8AD987" id="CTXsp" d="M357 208h2v-1l-2-1v2ZM97 208l3 1-1-2h-2v1Z"/><path fill="#CBCBC7" id="aco" d="m192 207-5 5c0 24.473 28.219-5 5-5ZM260 207c0 2.395-5 3.081-5 6.5 0 15.658 27.001 3.25 9.5-5.5-1.718-.859-2.387-1-4.5-1Z"/><path fill="#8AD987" id="CTXsp" d="m97 208-1 1 1-1Z"/><path fill="#A0EE9C" id="EPd" d="m101 228 5 1c0-1.457 3-1.46 3-4v-1c0-4.214-7-9.158-7-14l-2-1-3-1-1 1h-2l-1 2v11l5 5h1l1 1h1Z"/><path fill="#8AD987" id="CTXsp" d="m357 208-1 1 1-1Z"/><path fill="#A0EE9C" id="EPd" d="M351 229h2c0-1.473 1.952-1 3-1l1-1h1l1-1 1-1 1-1 1-1 1-1 2-5.5-1-5.5-2-2h-1l-1-1h-3l-1 1h-1l-1 2c0 3.648-5 7.682-5 11l-1 1-1 1v1l4 4Z"/><path fill="#1F9866" id="AIv6a" d="m360 208 1 1-1-1Z"/><path fill="#C8CBCC" id="ec" d="m355 209-1 2 1-2Z"/><path fill="#99D2BD" id="OLF" d="M84 215c4.802 0 5.696 6 9 6v-10l-5 2-4 2Z"/><path fill="#FF5547" id="ADP" d="M209 230c1.577 0 2 1.762 2 3 2.749 0 10 .135 10-4 0-.17 2-7.269 2-11v-2c0-1.048.473-3-1-3l-2.5-2c-3.799-1.9-7.574 2-10.5 2v17ZM247 229l-2 4c-5.458 0-8.863-4-10-4 0-3.255-2-6.058-2-10v-2l1-4 1-1c2.421 0 6.678-2.411 9.5-1l2.5 2v16Z"/><path fill="#99D2BD" id="OLF" d="M372 215c-4.668 0-6.03 7-9 7l2-5.5-1-5.5 4 1 4 3Z"/><path fill="#E64438" id="HY" d="M209 213v1l-1-2 1 1Z"/><path fill="#97D6F9" id="STR" d="m235 212-1 1 1-1Z"/><path fill="#E64438" id="HY" d="m248 213-1 2v-2h1Z"/><path fill="#6ACAB9" id="PIR" d="M117 268h2l6-5 2-2.5c2.408-4.815-1.234-13.467-3-17-3.177-6.355-12.24-9.87-17.5-12.5l-5.5-3h-1l-1-1h-1l-5-5v-1c-3.304 0-4.198-6-9-6h-4c0 1.259-8.632 4-10 4l-5 3c0 9.532 16.897 22.295 21 30.5l9 8.5c3.859 0 13.092 1.796 17.5 4l4.5 3ZM337 268h3c0-3.583 11.201-3.85 13.5-5 1.024-.512 7.5-4.45 7.5-2l9-8.5c5.797-5.797 22-23.995 22-31.5-1.424 0-5-.362-5-2l-10-3-5-1c-4.668 0-6.03 7-9 7l-1 1-1 1-1 1-1 1-1 1h-1l-1 1c0 1.473-1.952 1-3 1 0 1.775-10.213 6-12 6l-10 10.5c-4.056 8.111 0 10.959 0 17.5l6 5Z"/><path fill="#E64438" id="HY" d="m228 235-2 1c0-4.702.326-7-5-7 0-.17 2-7.269 2-11l2 2v1c0 4.096 3 9.512 3 14ZM229 235l1 1c0-4.591.053-7 5-7 0-3.255-2-6.058-2-10h-1l-1 2c0 4.676-2 8.693-2 14Z"/><path fill="#FD5446" id="PS" d="M201 241h1c0-1.577 1.762-2 3-2l1-2 1-1v-1l2-5v-7l-1-1c-7.031 0-6.84 9-13 9 0 1.054-3 2.931-3 5l5 5h4Z"/><path fill="#E64438" id="HY" d="M248 223c0 1.145.579 4-1 4v-6l1 2Z"/><path fill="#FD5446" id="PS" d="M255 241h4c1.661 0 5-3.008 5-5 0-2.842-3-3.647-3-5-5.342 0-6.564-8.032-10.5-10l-2.5 2c0 1.145.579 4-1 4v2c1.149 0 1.508 4.516 2 5.5l5 6.5h1Z"/><path fill="#99D2BD" id="OLF" d="m93 222 5 5-5-5Z"/><path fill="#80CDF8" id="ACB" d="m133 256 2 2c8.079 0 13.993 1.753 21.5-2 4.372-2.186 14.98-17 19.5-17l1-1 1-1c0-2.46 4-4.17 4-7 0-1.219 3.045-7-1-7h-4l-6.5 7c-5.998 2.999-14.349 4-21.5 4l-2 1h-10c0 1.643-3.765 1-5 1h-2c0 1.223-3 1.409-3 5l1 2 1 1 3 10 1 1v1Z"/><path fill="#E64438" id="HY" d="M209 222v1l-1-1h1Z"/><path fill="#80CDF8" id="ACB" d="m323 257-2 1c-10.442 0-12.612 1.944-22.5-3-5.692-2.846-13.026-16-18.5-16l-6-9c0-1.851-.867-7 2-7h4c.847 0 5.375 6.938 7.5 8 5.294 2.647 14.228 3 20.5 3l1 1h10c0 1.643 3.765 1 5 1h3l3 4-2 4-1 1-3 10-1 1v1Z"/><path fill="#C8CBCC" id="ec" d="m349 222-1 1 1-1ZM348 223l-1 1 1-1Z"/><path fill="#99D2BD" id="OLF" d="m362 223-1 1 1-1Z"/><path fill="#C8CBCC" id="ec" d="M109 225c3.311 0 4.81 6 9 6l-9-7v1Z"/><path fill="#8AD987" id="CTXsp" d="M118 231c0 2.165 3 2.546 3 6-5.57 0-9.077-8-15-8 0-1.457 3-1.46 3-4 3.311 0 4.81 6 9 6Z"/><path fill="#C8CBCC" id="ec" d="m346 225-1 1 1-1Z"/><path fill="#8AD987" id="CTXsp" d="M341 235c-2.488 0-3.99 1-6 1l1-3 1-1 2-1c1.664 0 6-1.823 6-4v-1l1-1h1l4 4c-2.688 0-10 2.401-10 6Z"/><path fill="#99D2BD" id="OLF" d="m360 225-1 1 1-1ZM359 226l-1 1 1-1ZM99 227l1 1-1-1Z"/><path fill="#C8CBCC" id="ec" d="M345 227c-1.417 0-6 2.383-6 4 1.664 0 6-1.823 6-4Z"/><path fill="#99D2BD" id="OLF" d="m357 227-1 1 1-1ZM125 263h2c0-1.008 5.147-4 6-4v-4l-1-1-3-10-1-1-1-2c-2.33 0-3.227-4-6-4-5.57 0-9.077-8-15-8l-5-1 5.5 3c5.26 2.63 14.323 6.145 17.5 12.5 1.766 3.533 5.408 12.185 3 17l-2 2.5ZM356 228c-1.048 0-3-.473-3 1 1.048 0 3 .473 3-1Z"/><path fill="#FF5346" id="MPO" d="M213 265c-3.34 0-6.956 5-11 5 0-1.334-2.717-7-4-7v-1c0-6.411 7-12.23 7-19v-4l1-2 1-1v-1l4-2c2.749 0 10 .135 10-4 5.326 0 5 2.298 5 7 0 1.819-1 4.591-1 7-3.079 0-4.308 5-6 5 0-1.527-4.928-2.786-6.5-2-4.396 2.198-14.757 9.985-11.5 16.5 3.598 7.197 10.497-2.5 14-2.5l-2 5ZM255 269l-1 1c-4.344 0-7.016-5-11-5l-2-5c2.845 0 7.135 6.683 10.5 5 7.702-3.851 1.17-14.915-5-18-4.355-2.177-6.044 1-9.5 1 0-2.641-3.591-5-6-5 0-1.406.714-7-1-7 0-4.591.053-7 5-7 1.137 0 4.542 4 10 4 3.48 0 7 6.111 7 9 0 7.27 6 12.619 6 19v2l-3 6Z"/><path fill="#E64438" id="HY" d="m254 241-2 1c0-2.889-3.52-9-7-9l2-4c1.149 0 1.508 4.516 2 5.5l5 6.5Z"/><path fill="#99D2BD" id="OLF" d="M353 229c0 1.775-10.213 6-12 6 0-3.599 7.312-6 10-6h2Z"/><path fill="#E64438" id="HY" d="M192 236c-4.351 0-9.131 1-14 1 0-2.46 4-4.17 4-7 3.629 0 8.716 1 13 1 0 1.054-3 2.931-3 5ZM211 233l-4 2 2-5c1.577 0 2 1.762 2 3ZM264 236l13.5 1 2.5 2-6-9c-3.629 0-8.716 1-13 1 0 1.353 3 2.158 3 5Z"/><path fill="#97D6F9" id="STR" d="M121 237c2.773 0 3.67 4 6 4 0-3.591 3-3.777 3-5-4.192 0-8.209-5-12-5 0 2.165 3 2.546 3 6ZM339 231l-2 1 2-1ZM337 232l-1 1 1-1ZM335 236l-5 4-3-4c0-.963 7.561-3 9-3l-1 3ZM149 234l-2 1 2-1ZM308 234l1 1-1-1ZM137 235c-1.235 0-5-.643-5 1 1.235 0 5 .643 5-1Z"/><path fill="#FF5445" id="MEPO" d="M226 251h4c1.735 0 1-6.51 1-8 0-1.406.714-7-1-7l-1-1h-1l-2 1c0 1.819-1 4.591-1 7l1 8Z"/><path fill="#97D6F9" id="STR" d="M319 235c1.235 0 5-.643 5 1-1.235 0-5 .643-5-1Z"/><path fill="#99D2BD" id="OLF" d="M329 263h2c0-6.541-4.056-9.389 0-17.5l10-10.5c-2.488 0-3.99 1-6 1l-5 4-2 4-1 1-3 10-1 1v3c1.178 0 6 2.572 6 4Z"/><path fill="#A2B1D7" id="SI" d="M183 263c-1.741 0-11.178 6.143-10 8.5l4 5.5c-10.662 0-22.529 4.985-32.5 0-2.624-1.312-17.029-14-17.5-14 0-1.008 5.147-4 6-4l2-1c8.079 0 13.993 1.753 21.5-2 4.372-2.186 14.98-17 19.5-17l1-1 1-1c4.869 0 9.649-1 14-1l5 5v2l-1 1c0 5.925-10 14.217-10 17-1.238 0-3 .423-3 2Z"/><path fill="#E64438" id="HY" d="m207 236-1 1 1-1Z"/><path fill="#A2B1D7" id="SI" d="m329 263-5 5.5-12.5 8.5c-9.815 4.907-21.114 0-31.5 0l3-4.5c1.682-3.364-7.407-9.5-10-9.5l-3-3c-3.476 0-10.107-17-11-17v-2c1.661 0 5-3.008 5-5l13.5 1 2.5 2c5.474 0 12.808 13.154 18.5 16 9.888 4.944 12.058 3 22.5 3l2 1c1.178 0 6 2.572 6 4Z"/><path fill="#E64438" id="HY" d="m178 237-1 1 1-1ZM206 237l-1 2 1-2ZM177 238l-1 1 1-1ZM202 241l3 2v-4c-1.238 0-3 .423-3 2ZM201 241l-4 2v-2h4Z"/><path fill="#F2473B" id="LPO" d="M196 262h2c0-6.411 7-12.23 7-19l-3-2h-1l-4 2-1 1c0 5.925-10 14.217-10 17h1l9 1ZM269 261l-9 1-2-1c0-6.381-6-11.73-6-19l2-1h1l4 2c.893 0 7.524 17 11 17l-1 1Z"/><path fill="#E64438" id="HY" d="M259 241v2l-4-2h4Z"/><path fill="#97D6F9" id="STR" d="m128 243 1 1-1-1Z"/><path fill="#E64438" id="HY" d="m197 243-1 1 1-1Z"/><path fill="#FE5446" id="AVPV" d="M211 275h2l1-1c3.619 0 6.634-3 11-3l1-2v-18l-1-8c-3.079 0-4.308 5-6 5 0 6.147-4 10.913-4 12l-2 5c0 3.488-2 6.76-2 10ZM244 275h2c0-3.878-3-6.864-3-10l-2-5c0-3.9-4-7.113-4-12 0-2.641-3.591-5-6-5 0 1.49.735 8-1 8v17l2 3c3.638 0 5.929 2 9 2l1 1 2 1Z"/><path fill="#97D6F9" id="STR" d="m328 244-1 1 1-1Z"/><path fill="#FE5447" id="AVP" d="M219 248c0 6.147-4 10.913-4 12-3.503 0-10.402 9.697-14 2.5-3.257-6.515 7.104-14.302 11.5-16.5 1.572-.786 6.5.473 6.5 2ZM237 248c3.456 0 5.145-3.177 9.5-1 6.17 3.085 12.702 14.149 5 18-3.365 1.683-7.655-5-10.5-5 0-3.9-4-7.113-4-12Z"/><path fill="#FD5447" id="OV" d="M229 261h1v-10h-4v8l1 2c.839 0 2-1.93 2 0Z"/><path fill="#97D6F9" id="STR" d="m132 254 1 1-1-1ZM324 255l-1 1 1-1ZM135 258l-2 1v-3l2 2ZM321 258l2 1v-2l-2 1Z"/><path fill="#E64438" id="HY" d="M226 269h1v-8l-1-2v10Z"/><path fill="#CAC8C7" id="lot" d="M117 271v3c-3.69 0-22-7.3-22-13 3.859 0 13.092 1.796 17.5 4l4.5 3v3Z"/><path fill="#A8A9AA" id="V3" d="M229 268c0 1.652-2 3.092-2 1v-8c.839 0 2-1.93 2 0v7Z"/><path fill="#E64438" id="HY" d="m273 263-1 2c0-2.54-3-2.543-3-4l1-1 3 3Z"/><path fill="#CAC8C7" id="lot" d="m339 273 1 1c4.017 0 21-5.888 21-13 0-2.45-6.476 1.488-7.5 2-2.299 1.15-13.5 1.417-13.5 5l-1 3v2Z"/><path fill="#E64438" id="HY" d="m183 263 1 1 3-3h-1c-1.238 0-3 .423-3 2Z"/><path fill="#96A6D3" id="NDB" d="m197 278-1 1c-5.296 0-10.313-4-13-4l1-11 3-3 9 1 2 1c1.283 0 4 5.666 4 7 0 2.971-3 4.768-3 7h-1l-1 1Z"/><path fill="#E64438" id="HY" d="M229 268h1v-7h-1v7Z"/><path fill="#CBCCCB" id="mfb" d="m260 262-2 1v-2l2 1Z"/><path fill="#96A6D3" id="NDB" d="m258 277 1 1c2.711 0 14 2.12 14-4l-1-9c0-2.54-3-2.543-3-4l-9 1-2 1-3 6-1 1 3 7h1Z"/><path fill="#CBCCCB" id="mfb" d="M198 262v1l-2-1h2Z"/><path fill="#7FCCF7" id="OT" d="M120 278c0 4.909 7.598 11.049 11.5 13 14.137 7.068 22.676 13.162 39 5 4.874-2.437 16.5-1.882 16.5-10 0-3.938-2.119-9-8-9h-2c-10.662 0-22.529 4.985-32.5 0-2.624-1.312-17.029-14-17.5-14h-2l-6 5v9l1 1Z"/><path fill="#A2B1D8" id="MA" d="M177 277h2l4-2 1-11-1-1c-1.741 0-11.178 6.143-10 8.5l4 5.5ZM277 277h3l3-4.5c1.682-3.364-7.407-9.5-10-9.5l-1 2 1 9 4 3Z"/><path fill="#7FCCF7" id="OT" d="M337 277c0 5.133-6.281 7.062-8 10.5-1.29 2.581-4.812 4.156-7.5 5.5-13.105 6.552-21.192 10.404-36 3-4.795-2.398-16.5-2.151-16.5-10 0-4.61 3.271-9 8-9h3c10.386 0 21.685 4.907 31.5 0l12.5-8.5 5-5.5h2l6 5 1 3-1 6Z"/><path fill="#E64438" id="HY" d="M211 275c-4.475 0-7.225 2-12 2 0-2.232 3-4.029 3-7 4.044 0 7.66-5 11-5 0 3.488-2 6.76-2 10ZM246 275c3.911 0 6.607 2 11 2l-3-7c-4.344 0-7.016-5-11-5 0 3.136 3 6.122 3 10Z"/><path fill="#99D2BD" id="OLF" d="m119 270-2 1v-3h2v2ZM338 271h1l1-3h-3l1 3Z"/><path fill="#E64438" id="HY" d="m255 269-1 1 1-1Z"/><path fill="#97D6F9" id="STR" d="m117 274 2 2v-6l-2 1v3Z"/><path fill="#CAC7CB" id="fiber tracts" d="m245 278 3 3.5-1 5.5c11.821 0-3-7.316-3-12l-2-1-1-1c-3.071 0-5.362-2-9-2h-7c-4.366 0-7.381 3-11 3l-1 1v1h2l1-1c2.285 0 16.436-4.032 20.5-2l3.5 2c1.238 0 5 1.923 5 3Z"/><path fill="#97D6F9" id="STR" d="m339 275-2 2 1-6h1v4Z"/><path fill="#CBCACC" id="och" d="M209 280c0 2.151-.815 5.843 1.5 7 3.694 1.847 30.486 0 36.5 0l1-5.5-3-3.5c-1.238 0-5-1.923-5-3l-3.5-2c-4.064-2.032-18.215 2-20.5 2l-1 1-2 1-1 1-1 1-2 1Z"/><path fill="#99D2BD" id="OLF" d="m340 274-1 1v-2l1 1Z"/><path fill="#8599CC" id="PAL" d="M259 278c0 1.032 8.098 8 10 8 0-4.61 3.271-9 8-9l-4-3c0 6.12-11.289 4-14 4ZM196 279c0 2.185-7.198 7-9 7 0-3.938-2.119-9-8-9l4-2c2.687 0 7.704 4 13 4Z"/><path fill="#CBCCC7" id="IIn" d="m216 275-1 1 1-1ZM240 275c1.238 0 5 1.923 5 3-1.238 0-5-1.923-5-3Z"/><path fill="#CAC7CB" id="fiber tracts" d="M212 277h1v-1l-1 1Z"/><path fill="#CBCCC7" id="IIn" d="m215 276-2 1v-1h2Z"/><path fill="#97D6F9" id="STR" d="m119 277 1 1-1-1Z"/><path fill="#E64438" id="HY" d="m198 277-1 1 1-1Z"/><path fill="#CAC7CB" id="fiber tracts" d="M211 278h1v-1l-1 1Z"/><path fill="#CBCCC7" id="IIn" d="m213 277-1 1v-1h1Z"/><path fill="#E64438" id="HY" d="m258 277 1 1-1-1Z"/><path fill="#8599CC" id="PAL" d="m197 278-1 1 1-1Z"/><path fill="#CAC7CB" id="fiber tracts" d="m211 279-2 1 2-2v1Z"/><path fill="#CBCCC7" id="IIn" d="m212 278-1 1v-1h1Z"/><path fill="#CAC7CB" id="fiber tracts" d="M209 280c-1.54 0-4.897 6.301-3.5 7 8.194 4.097 22.233 2 31 2 1.611 0 10.5-.749 10.5-2-6.014 0-32.806 1.847-36.5 0-2.315-1.157-1.5-4.849-1.5-7Z"/></svg>