<svg xmlns="http://www.w3.org/2000/svg" viewBox="0 0 456 320"><path fill="#99D2BD" id="OLF" d="M221 123c-4.237 0-12.688-9.406-19.5-6l-13 4c-3.239 1.62-12.542 9-15.5 9 0-4.211 15.662-9 6-9 0-2.399 8.764-3.132 10.5-4 5.873-2.937 33.5-2.481 33.5 6-.839 0-2-1.93-2 0ZM235 123c2.477 0 2.522-2.011 4.5-3 6.25-3.125 16.355-4.323 23-1l16 8 7.5 6c0-5.379-18.868-12-9-12 0-2.984-8.607-3.053-10.5-4-5.849-2.924-32.5-2.5-32.5 5l1 1Z"/><path fill="#9AD1BD" id="MOB" d="m227 151-1 2c0 6.062-1.363 16.227-4 21.5l-1 17c-1.895 3.79-.159 9.318-2 13-2.399 4.798-3.608 10.215-6 15-4.626 9.251-16.837 12.831-25.5 8.5-10.454-5.227-7.064-20.628-10.5-27.5-5.494-10.988-16-36.5-16-49 0-6.913 8-13.646 8-17.5l1-1 1-1 1-1 1-1c2.958 0 12.261-7.38 15.5-9l13-4c6.812-3.406 15.263 6 19.5 6 0 2.82 6 9.747 6 17v11ZM230 153l1 1c0 4.18 3.687 32.874 5 35.5l1 13c3.89 7.78 4.675 20.588 14.5 25.5l6 1c2.631 1.316 7.261 1.369 10 0 8.563-4.282 7.667-13.834 11.5-21.5v-5c5.581-11.162 8.367-23.733 14-35 1.306-2.612.642-6.284 2-9 2.684-5.369-4.32-25.5-9-25.5l-7.5-6-16-8c-6.645-3.323-16.75-2.125-23 1-1.978.989-2.023 3-4.5 3 0 2.827-2.831 4.163-4 6.5-.652 1.303-.219 7.5-2 7.5v10c1.579 0 1 2.855 1 4v2Z"/><path fill="#99D2BD" id="OLF" d="m178 121-1 1 1-1Z"/><path fill="#C7CBCA" id="onl" d="M296 221c0 3.239-2.681 3.862-4 6.5-2.369 4.737-12.452 16.024-19.5 12.5-3.639-1.82-6.021-3-10.5-3-4.711 0-9.035 4.732-14.5 2-6.66-3.33-13.417-15.334-16.5-21.5-.765-1.529-2-8.013-2-9.5l-.5-4-3.5 14.5c-2.247 4.494-9.121 16.811-14.5 19.5-6.661 3.331-10.451-1-16.5-1-4.325 0-6.01 1.255-9.5 3-6.686 3.343-17.279-7.059-19.5-11.5-1.467-2.934-4-2.821-4-6.5 0-9.201.121-22.257-4-30.5l-1-33.5c1.735 0 1-6.51 1-8v-4c1.473 0 1-1.952 1-3l1-2v-2l1-2 1-2v-1l1-1c3.324 0 7.597-10 13-10l1-1h1l1-1h1c9.662 0-6 4.789-6 9l-1 1-1 1-1 1-1 1c0 3.854-8 10.587-8 17.5 0 12.5 10.506 38.012 16 49 3.436 6.872.046 22.273 10.5 27.5 8.663 4.331 20.874.751 25.5-8.5 2.392-4.785 3.601-10.202 6-15 1.841-3.682.105-9.21 2-13l1-17c2.637-5.273 4-15.438 4-21.5l1-2h1c0 4.283 1 4.283 1 0h1v2l1 1c0 4.18 3.687 32.874 5 35.5l1 13c3.89 7.78 4.675 20.588 14.5 25.5l6 1c2.631 1.316 7.261 1.369 10 0 8.563-4.282 7.667-13.834 11.5-21.5v-5c5.581-11.162 8.367-23.733 14-35 1.306-2.612.642-6.284 2-9 2.684-5.369-4.32-25.5-9-25.5 0-5.379-18.868-12-9-12h1l1 1h1l1 1c2.276 0 12 6.105 12 9l2 2v1l2 3v1l1 2v1c0 1.048-.473 3 1 3v2c0 1.235-.643 5 1 5v2l-1 40.5c-4.179 8.357-3 17.444-3 26.5Z"/><path fill="#99D2BD" id="OLF" d="m278 121 1 1-1-1ZM176 122l-1 1 1-1Z"/><path fill="#C7CBCA" id="onl" d="M227 140h1c0-1.048-.473-3 1-3 1.781 0 1.348-6.197 2-7.5 1.169-2.337 4-3.673 4-6.5l-1-1-1 1-3 2.5-1.5 4.5c-.386 0-2.944-7-5.5-7-.839 0-2-1.93-2 0 0 2.82 6 9.747 6 17Z"/><path fill="#99D2BD" id="OLF" d="m234 122-1 1 1-1ZM280 122l1 1-1-1ZM173 130l-1 1 1-1ZM172 131l-1 1 1-1ZM171 132l-1 1 1-1ZM293 132l2 2-2-2ZM162 133l-1 1 1-1ZM170 133l-1 1 1-1ZM161 135l-1 2 1-2ZM295 135c1.577 0 2 1.762 2 3l-2-3ZM160 137l-1 2 1-2ZM297 139l1 2-1-2ZM227 151h1v-11h-1v11ZM159 141l-1 2 1-2ZM298 142c1.473 0 1 1.952 1 3-1.473 0-1-1.952-1-3ZM158 143c-1.473 0-1 1.952-1 3 1.473 0 1-1.952 1-3ZM229 151h1c0-1.145.579-4-1-4v4ZM299 147c1.643 0 1 3.765 1 5-1.643 0-1-3.765-1-5ZM157 150c-1.735 0-1 6.51-1 8 1.735 0 1-6.51 1-8ZM227 151l-1 2 1-2ZM230 153l1 1-1-1ZM300 154c1.684 0 1 4.679 1 6 0 4.291.342 15.184 2 18.5 1.855 3.71 8.093 24.814 6 29l-4 4-9 9.5c0-9.056-1.179-18.143 3-26.5l1-40.5ZM156 158c-1.495 0-1.096 14.691-2 16.5-5.238 10.475-11.785 35.358 2.5 42.5l4.5 5c0-9.201.121-22.257-4-30.5l-1-33.5Z"/></svg>