<svg xmlns="http://www.w3.org/2000/svg" viewBox="0 0 456 320"><path fill="#187F60" id="SSp-ll1" d="m132 31 1 6c2.075 0 11.185-4.843 13.5-6 9.619-4.81 22.925-5 34.5-5l1-6c-6.304 0-23.824.662-28.5 3-4.094 2.047-17.365 8-21.5 8Z"/><path fill="#1E9D5A" id="MOp1" d="m199 25-18 1 1-6h17v5Z"/><path fill="#1E9C59" id="MOs1" d="M222 37h1l4-2-6-6.5c-3.686-7.373-12.763-8.5-22-8.5v5c7.669 0 23 2.9 23 12ZM230 35l4 2 7.5-9c5.138-2.57 9.199-3 15.5-3v-5c-10.374 0-19.229 1.958-24 11.5l-3 3.5Z"/><path fill="#1E9D5A" id="MOp1" d="m257 25 18 1v-6h-18v5Z"/><path fill="#187F60" id="SSp-ll1" d="M324 31c0 1.234.643 5-1 5-5.258 0-11.975-3.738-16.5-6-8.596-4.298-21.186-4-31.5-4v-6c8.241 0 28.24 1.87 34.5 5l14.5 6Z"/><path fill="#1F9C58" id="MOp2/3" d="m181 37-1 2c5.737 0 10.595-5 17-5 0-2.84 2-5.675 2-9l-18 1v11Z"/><path fill="#1E9D58" id="MOs2/3" d="M216 41h1l5-4c0-9.1-15.331-12-23-12 0 3.325-2 6.16-2 9 5.43 0 19-.864 19 7ZM234 38l6 3c0-7.599 13.617-7 19-7l-2-9c-6.301 0-10.362.43-15.5 3l-7.5 9v1Z"/><path fill="#1F9C58" id="MOp2/3" d="M276 37v2c-5.425 0-10.728-5-17-5l-2-9 18 1c0 1.741-.773 11 1 11Z"/><path fill="#187F64" id="SSp-ll2/3" d="M137 50h1l8.5-4c9.108-4.554 23.877-9 34.5-9V26c-11.575 0-24.881.19-34.5 5-2.315 1.157-11.425 6-13.5 6 0 4.263 4 8.466 4 13ZM323 37c0 1.382-2.485 12-4 12-4.197 0-7.052-2.276-10.5-4-6.516-3.258-24.957-8-32.5-8-1.773 0-1-9.259-1-11 10.314 0 22.904-.298 31.5 4 4.525 2.262 11.242 6 16.5 6v1Z"/><path fill="#197E64" id="SSp-ul1" d="M116 39c.672 0 2 4.33 2 5l15-7-1-6-12.5 6c-1.158.58-3.5-.341-3.5 2ZM340 38c0 2.079-1 3.187-1 6-5.76 0-10.137-7-16-7v-1c1.643 0 1-3.766 1-5 5.429 0 10.808 7 16 7Z"/><path fill="#1E9C5A" id="MOp5" d="M193 50c-5.763 0-10.544 7-16 7 0-6.312 3-11.005 3-17v-1c5.737 0 10.595-5 17-5 0 5.388-4 9.988-4 15v1Z"/><path fill="#1F9D58" id="MOs5" d="m193 49 7.5-1c1.046.523 5.292 3 5.5 3l10-10c0-7.864-13.57-7-19-7 0 5.388-4 9.988-4 15ZM250 51h1c0-4.604 9.697-2 12-2l-4-15c-5.383 0-19-.599-19 7v1c2.148 0 10 7.41 10 9Z"/><path fill="#1E9C5A" id="MOp5" d="m263 49 16 8c0-5.48-3-12.09-3-18-5.425 0-10.728-5-17-5l4 15Z"/><path fill="#3EA665" id="ACAd1" d="M223 59h10c0-6.967 1-14.681 1-21v-1l-4-2c-.476 0-3 3.803-3 0l-4 2v22Z"/><path fill="#197F61" id="SSp-ul2/3" d="m137 50-16 7-3-12v-1l15-7c0 4.263 4 8.466 4 13Z"/><path fill="#1C7F64" id="SSp-ll4" d="M139 56h1c10.649 0 31.634-16 40-16v-1l1-2c-10.623 0-25.392 4.446-34.5 9l-8.5 4 1 6Z"/><path fill="#40A565" id="ACAd2/3" d="m223 59-5 1-1-19 5-4h1v22Z"/><path fill="#1C7F64" id="SSp-ll4" d="M316 56h1l2-6v-1c-4.197 0-7.052-2.276-10.5-4-6.516-3.258-24.957-8-32.5-8v2c4.726 0 30.834 17 40 17Z"/><path fill="#197F61" id="SSp-ul2/3" d="m319 50 16 7c0-1.55 2.542-12 4-12v-1c-5.76 0-10.137-7-16-7 0 1.382-2.485 12-4 12v1Z"/><path fill="#40A565" id="ACAd2/3" d="m233 59 6 1V46c0-1.145-.579-4 1-4v-1l-6-3c0 6.319-1 14.033-1 21Z"/><path fill="#1B8062" id="SSp-un1" d="M339 45c3.219 0 5.108 3 8 3 .915 0 1.085-5 2-5 0-1.197-7.528-5-9-5 0 2.079-1 3.187-1 6v1ZM118 45c-3.455 0-5.917 3-9 3l-1-5c0-2.447 6.063-4 8-4 .672 0 2 4.33 2 5v1Z"/><path fill="#197C63" id="SSp-ll5" d="M309 68h1c0-2.623 6-7.45 6-12-9.166 0-35.274-17-40-17 0 5.91 3 12.52 3 18h1l7.5 4c4.445 2.222 10.574 1.787 15 4l6.5 3ZM146 68h1c5.97 0 25.032-11 29-11h1c0-6.312 3-11.005 3-17-8.366 0-29.351 16-40 16l6 12Z"/><path fill="#3EA566" id="ACAd5" d="m218 60-11 6c0-4.607-1-10.052-1-14v-1l10-10h1l1 19ZM239 61c4.159 0 6.37 5 10 5l1-15c0-1.59-7.852-9-10-9-1.579 0-1 2.855-1 4v15Z"/><path fill="#188060" id="SSp-bfd1" d="M60 82h6l1-1 9-9.5c6.036-6.036 25.402-22.5 33-22.5v-1l-1-5c-9.424 0-30.543 19.044-38 26.5-2.625 2.625-10 8.934-10 12.5ZM390 81c1.357 0 6 2.112 6 0 0-3.972-7.277-7.053-9-10.5-2.696-5.391-30.666-27.5-38-27.5-.915 0-1.085 5-2 5v1c11.33 0 26.899 19.7 35.5 24l7.5 8Z"/><path fill="#1C7F63" id="SSp-un2/3" d="M112 61h1l8-4-3-12c-3.455 0-5.917 3-9 3v1c0 4.38 3 7.127 3 12ZM335 57l9 4c0-4.186 3-7.431 3-12v-1c-2.892 0-4.781-3-8-3-1.458 0-4 10.45-4 12Z"/><path fill="#1D9C5A" id="MOs6a" d="M195 69h1c0-2.674 7.371-17 10-17v-1c-.208 0-4.454-2.477-5.5-3l-7.5 1v1c0 6.169-3 12.743-3 20l5-1ZM261 69l5 1c0-2.274 1-5.56 1-7.5L263 49c-2.303 0-12-2.604-12 2 0 4.27 10 12.618 10 18Z"/><path fill="#187F63" id="SSp-bfd2/3" d="M79 82h1c0-4.014 27.333-20 32-20v-1c0-4.873-3-7.62-3-12-7.598 0-26.964 16.464-33 22.5L67 81l2.5 2v-2l9.5 1Z"/><path fill="#1F9B5A" id="MOp6a" d="M266 70c5.069 0 10.545 6 16 6 0-6.88-2-11.949-2-19h-1l-16-8 4 13.5c0 1.94-1 5.226-1 7.5Z"/><path fill="#187F63" id="SSp-bfd2/3" d="M390 81v1c-1.912 0-3.521-2-5.5-2l-2 2c-1.717 0-3.944-1-5.5-1h-1l-5.5-6L344 61c0-4.186 3-7.431 3-12 11.33 0 26.899 19.7 35.5 24l7.5 8Z"/><path fill="#1A7F63" id="SSp-ul4" d="m121 57 2 7 16-8-1-6h-1l-16 7Z"/><path fill="#1F9B5A" id="MOp6a" d="M185 73c-3.679 0-6.731 3-10 3 0-5.416 1-12.212 1-19h1c5.456 0 10.237-7 16-7 0 6.169-3 12.743-3 20v1c-1.424 0-5 .362-5 2Z"/><path fill="#1A7F63" id="SSp-ul4" d="m335 57-2 7-16-8 2-6 16 7Z"/><path fill="#3FA664" id="ACAd6a" d="M259 71c-2.215 0-1.519 2-3 2-2.958 0-3.666-6-7-6v-1l1-15h1c0 4.27 10 12.618 10 18l-2 2ZM196 69l4 4 7-6v-1c0-4.607-1-10.052-1-14-2.629 0-10 14.326-10 17Z"/><path fill="#187E62" id="SSp-ul5" d="M146 68c-6.334 0-12.441 8-19 8-.635 0-4-9.949-4-11v-1l16-8h1l6 12ZM329 77h1c0-4.536 3-7.696 3-12v-1l-16-8h-1c0 4.55-6 9.377-6 12l15 6.5 4 2.5Z"/><path fill="#197E61" id="SSp-un4" d="M123 65c-3.39 0-5.621 5-9 5 0-3.091-2-5.478-2-8l1-1 8-4 2 7v1Z"/><path fill="#1A7F64" id="SSp-ll6a" d="M175 76c-6.699 0-13.722 6-20 6 0-5.192-8-8.808-8-14 5.97 0 25.032-11 29-11 0 6.788-1 13.584-1 19ZM282 76c6.252 0 12.391 5 19 5 1.655 0 8-11.24 8-13l-6.5-3c-4.426-2.213-10.555-1.778-15-4l-7.5-4c0 7.051 2 12.12 2 19Z"/><path fill="#197E61" id="SSp-un4" d="M342 71h1c0-2.725 1-6.552 1-10l-9-4-2 7v1c1.654 0 9 4.228 9 6Z"/><path fill="#40A664" id="ACAv1" d="M233 89h1c0-9.411-1-19.97-1-30h-10v28l4-3c0-3.15 2-3.446 2 0 1.811 0 4 3.438 4 5Z"/><path fill="#3FA566" id="ACAv2/3" d="m222 89-3 2c0-9.935-1-20.513-1-31l5-1v28l-1 2ZM234 89l3 2 2-30v-1l-6-1c0 10.03 1 20.589 1 30Z"/><path fill="#3EA666" id="ACAv5" d="M211 89c2.885 0 4.697 2 8 2 0-9.935-1-20.513-1-31l-11 6v1l4 20v2Z"/><path fill="#197C64" id="SSp-bfd4" d="m113 61-1 1v-1h1Z"/><path fill="#3EA666" id="ACAv5" d="M245 89c-2.885 0-4.697 2-8 2l2-30c4.159 0 6.37 5 10 5v1c0 7.165-4 14.335-4 21v1Z"/><path fill="#197C64" id="SSp-bfd4" d="M363 83c3.972 0 7.597-2 11.5-2l2.5 2v-1l-1-1-5.5-6L344 61c0 3.448-1 7.275-1 10 5.08 0 14.03 12 19 12h1ZM94 83h1l4.5-3c4.116-2.058 9.822-9 14.5-9v-1c0-3.091-2-5.478-2-8-4.667 0-32 15.986-32 20 5.703 0 9.302 1 14 1Z"/><path fill="#197D62" id="SSp-un5" d="M127 77c-4.058 0-7.012 6-11 6l-2-12v-1c3.379 0 5.61-5 9-5 0 1.051 3.365 11 4 11v1ZM340 83h1l1-12c0-1.772-7.346-6-9-6 0 4.304-3 7.464-3 12l10 6Z"/><path fill="#40A564" id="ACAv6a" d="m209 86 2 1-4-20-7 6v1c1.371 0 9 10.232 9 12ZM248 85l-3 3c0-6.665 4-13.835 4-21 3.334 0 4.042 6 7 6v1c-.881 0-8 9.517-8 11Z"/><path fill="#197D61" id="SSp-ul6a" d="M131 93h2l4-2c0-2.109 2.535-2 4-2 0-2.109 2.535-2 4-2 0-2.435 8.045-5 10-5 0-5.192-8-8.808-8-14h-1c-6.334 0-12.441 8-19 8v1c0 6.143 4 10.046 4 16ZM301 82c7.857 0 17.105 11 24 11 0-5.088 4-9.775 4-16l-4-2.5-15-6.5h-1c0 1.76-6.345 13-8 13v1Z"/><path fill="#1E9C58" id="MOs6b" d="M190 71h5v-2l-5 1v1Z"/><path fill="#3FA466" id="ACAd6b" d="M199 74h1v-1l-4-4h-1v2c1.429 0 4 1.288 4 3ZM259 71h2v-2l-2 2Z"/><path fill="#1E9C58" id="MOs6b" d="M261 71h5v-1l-5-1v2Z"/><path fill="#1D9D5A" id="MOp6b" d="M282 76v1c-2.331 0-16-4.922-16-6v-1c5.069 0 10.545 6 16 6Z"/><path fill="#1A7D62" id="SSp-bfd5" d="M108 88h1l7-5-2-12c-4.678 0-10.384 6.942-14.5 9L95 83c1.03 0 10.153 5 13 5Z"/><path fill="#1D9D5A" id="MOp6b" d="M190 71c-1.424 0-5 .362-5 2 1.622 0 5 .46 5-2Z"/><path fill="#CACCC7" id="cing" d="M211 87v2c-7.674 0-13.076-8.788-19.5-12-5.776-2.888-14.898 4-20.5 4-1.257 0-8 2.46-8 0l12-4c1.606 0 10-2.08 10-4 1.622 0 5 .46 5-2h5c1.429 0 4 1.288 4 3 0 2.03 7.832 12 10 12l2 1Z"/><path fill="#3FA466" id="ACAd6b" d="M256 74h1c1.577 0 2-1.762 2-3-2.215 0-1.519 2-3 2v1Z"/><path fill="#CACCC7" id="cing" d="M245 88v1c7.903 0 12.888-8.694 19.5-12 6.017-3.008 14.912 4 20.5 4 1.242 0 9 2.558 9 0-3.997 0-8.336-4-12-4-2.331 0-16-4.922-16-6h-7c0 1.238-.423 3-2 3 0 2.598-6.753 11-9 11l-3 3Z"/><path fill="#1A7D62" id="SSp-bfd5" d="M348 88h1c2.845 0 5.339-4 7.5-4l3 1 2.5-2c-4.97 0-13.92-12-19-12h-1l-1 12 7 5Z"/><path fill="#1D9D5A" id="MOp6b" d="M175 76v1c1.606 0 10-2.08 10-4-3.679 0-6.731 3-10 3Z"/><path fill="#40A465" id="ACAv6b" d="M200 74c1.371 0 9 10.232 9 12-2.168 0-10-9.97-10-12h1ZM257 74c0 2.598-6.753 11-9 11 0-1.483 7.119-11 8-11h1Z"/><path fill="#197F62" id="SSp-ll6b" d="M155 82v1l8-2 12-4v-1c-6.699 0-13.722 6-20 6ZM301 82v1l-7-2c-3.997 0-8.336-4-12-4v-1c6.252 0 12.391 5 19 5v1Z"/><path fill="#1A7F61" id="SSp-un6a" d="M119 100h1c2.849 0 5.459-5 9-5l2-1v-1c0-5.954-4-9.857-4-16-4.058 0-7.012 6-11 6 0 3.036.4 8-3 8 0 3.489 6 4.669 6 9Z"/><path fill="#C9C7C9" id="ccb" d="M378 174h2l-3-15-2-4v-1l-2-4v-1c-.838 0-7.087-12.674-8-14.5-4.187-8.374-18.744-25.122-27.5-29.5-12.629-6.315-25.425-11.713-38-18-2.081-1.04-14.5-3.579-14.5-6-5.588 0-14.483-7.008-20.5-4-6.612 3.306-11.597 12-19.5 12-2.885 0-4.697 2-8 2l-3-2h-1c0 1.206-10 1.206-10 0h-1l-3 2c-3.303 0-5.115-2-8-2-7.674 0-13.076-8.788-19.5-12-5.776-2.888-14.898 4-20.5 4 0 2.076-7.932 3.216-9.5 4-9.791 4.895-20.285 8.142-30 13-10.179 5.089-18.076 11.076-26.5 19.5L95 128c0 1.238-.423 3-2 3 0 1.902-3.832 11-6 11l-2 4c0 1.465.109 4-2 4v1l-1 2-1 2c0 1.048.473 3-1 3 0 5.371-3 10.002-3 16h1c0-8.043 5.574-16.648 9-23.5 10.603-21.205 25.727-37.613 47.5-48.5H148c0-3.91 7.634-9 11-9 3.231 0 5.772-2.636 8.5-4 4.903-2.451 20.006.003 24 2 1.568.784 9.5 1.924 9.5 4l8 2h2c0-1.7 5.137-1 6.5-1 2.506 0 9.659 2.67 11 2 2.329-1.165 5.779-2 8.5-2 1.49 0 8-.735 8 1l2 1c3.083 0 5.545-3 9-3l1-1c0-2.033 7.021-2.26 8.5-3 3.861-1.93 18.242-4.38 23-2l6.5 3 1 1h1c3.915 0 11 4.681 11 9 5.941 0 11.596-1.452 16.5 1 21.122 10.561 53.5 47.164 53.5 71Z"/><path fill="#1A7F61" id="SSp-un6a" d="m325 93 12 7c0-3.345 6-5.413 6-9 0-2.314-1.331.837-2-.5-.032-.064-1-5.94-1-7.5l-10-6h-1c0 6.225-4 10.912-4 16Z"/><path fill="#1B7F64" id="SSp-n2/3" d="M403 103c-3.672 0-5.416 5-9 5 0-2.876-14.389-25-16-25l-1-1v-1c1.556 0 3.783 1 5.5 1l2-2c1.979 0 3.588 2 5.5 2 2.123 0 12.159 20 13 20v1Z"/><path fill="#197E63" id="SSp-n1" d="m49 99 4 3c.81 0 8.972-14.444 10-16.5l3-3.5h-6l-3 3.5L49 99ZM67 81l-1 1 1-1Z"/><path fill="#1B7F64" id="SSp-n2/3" d="M53 103c3.712 0 5.653 5 9 5l5-10.5L79 82l-9.5-1v2L67 81l-1 1-3 3.5c-1.028 2.056-9.19 16.5-10 16.5v1Z"/><path fill="#C9C9CA" id="scwm" d="M101 117c0 4.088-6 6.49-6 11l10-10.5c8.424-8.424 16.321-14.411 26.5-19.5 9.715-4.858 20.209-8.105 30-13 1.568-.784 9.5-1.924 9.5-4-1.257 0-8 2.46-8 0l-8 2-10 4c0 2.109-2.535 2-4 2 0 2.109-2.535 2-4 2 0 2.109-2.535 2-4 2l-1 1c0 1.473-1.952 1-3 1 0 1.415-6.989 6-9 6 0 1.577-1.762 2-3 2 0 1.577-1.762 2-3 2l-9 9c0 2.715-1.657 3-4 3ZM365 131c0 6.288 8 11.561 8 18-.838 0-7.087-12.674-8-14.5-4.187-8.374-18.744-25.122-27.5-29.5-12.629-6.315-25.425-11.713-38-18-2.081-1.04-14.5-3.579-14.5-6 1.242 0 9 2.558 9 0l7 2 24 11c0 1.265 10.419 7 12 7l17.5 16c3.251 1.625 8.499 14 10.5 14Z"/><path fill="#1A8062" id="SSp-n4" d="m394 109-6 4-9-13.5L363 83c3.972 0 7.597-2 11.5-2l2.5 2h1c1.611 0 16 22.124 16 25v1ZM377 81v1l-1-1h1Z"/><path fill="#197E63" id="SSp-n1" d="m407 99-4 3c-.841 0-10.877-20-13-20v-1c1.357 0 6 2.112 6 0 .58 0 11 15.883 11 18Z"/><path fill="#1A8062" id="SSp-n4" d="M68 113h1c0-4.689 21.833-29 25-29v-1c-4.698 0-8.297-1-14-1h-1L67 97.5 62 108v1c2.363 0 4.713 4 6 4Z"/><path fill="#1C8064" id="SSp-ul6b" d="m155 83-10 4c0-2.435 8.045-5 10-5v1ZM325 93v1l-24-11v-1c7.857 0 17.105 11 24 11Z"/><path fill="#187F63" id="SSp-bfd2/3" d="M377 83h1l-1-1v1Z"/><path fill="#1A7D62" id="SSp-bfd5" d="m95 83-1 1v-1h1Z"/><path fill="#197E62" id="SSp-n5" d="M69 113c0 1.758 7.424 7 9 7 0-7.786 15.462-20.962 21-26.5 1.465-1.465 9-3.143 9-5.5-2.847 0-11.97-5-13-5l-1 1c-3.167 0-25 24.311-25 29Z"/><path fill="#198060" id="SSp-bfd6a" d="M109 88c0 .966 2.886 3 4 3 3.4 0 3-4.964 3-8l-7 5ZM348 88c0 1.077-3.762 3-5 3 0-2.314-1.331.837-2-.5-.032-.064-1-5.94-1-7.5h1l7 5Z"/><path fill="#197E62" id="SSp-n5" d="m388 114-9 6-3-5.5-11-15L349 88c2.845 0 5.339-4 7.5-4l3 1 2.5-2h1l16 16.5 9 13.5v1Z"/><path fill="#7ED04B" id="IG" d="M223 89c0 1.206 10 1.206 10 0 0-1.562-2.189-5-4-5 0 1.93-1.161 0-2 0l-4 3v2Z"/><path fill="#1C8064" id="SSp-ul6b" d="M145 87c-1.465 0-4-.109-4 2 1.465 0 4 .109 4-2Z"/><path fill="#40A664" id="ACAv1" d="M222 89h1v-2l-1 2Z"/><path fill="#187D62" id="SSp-n6a" d="M78 121c5.133 0 7.896 9 13 9 0-.727 8.647-13 10-13l4-3c0-2.752 6.248-9 9-9 0-1.577 1.762-2 3-2l2-3c0-4.331-6-5.511-6-9-1.114 0-4-2.034-4-3h-1c0 2.357-7.535 4.035-9 5.5-5.538 5.538-21 18.714-21 26.5v1ZM365 131h1c0-1.624 11.822-10 13-10v-1l-3-5.5-11-15L349 88h-1c0 1.077-3.762 3-5 3 0 3.587-6 5.655-6 9v1c5.431 0 28 24.93 28 30Z"/><path fill="#1C8064" id="SSp-ul6b" d="M141 89c-1.465 0-4-.109-4 2 1.465 0 4 .109 4-2Z"/><path fill="#A8AAAA" id="VL" fill-rule="evenodd" d="m178 91-2 2.5-1 9-6 9c-.834 1.667-6.749 3.502-5 7 3.373 6.746 8.286-1.893 11.5-3.5 11.618-5.809 22.979-24 2.5-24m-26 13c0 3.942 11 13.207 11 24 5.455 0 8.845-8.673 13.5-11l14-6c4.22-2.11.408-9 5.5-9v-1c0-5.998-1.729-6 5-6 0-2.076-7.932-3.216-9.5-4-3.994-1.997-19.097-4.451-24-2-2.728 1.364-5.269 4-8.5 4l-8 6.5 1 4.5ZM273 91l-5 4.5c-2.824 5.648 1.059 9.118 3 13l4 2 12.5 10.5 3.5-.5c3.21-6.42-6.319-11.639-9-17l-1-10c-1.593-3.187-5.061-2.5-8-2.5m32 12c0 4.319-12 14.333-12 24-5.55 0-7.139-6.319-10.5-8-5.629-2.815-11.427-5.213-17-8-3.559-1.779-.42-9-4.5-9v-1c0-3.836.719-7-4-7 0-2.033 7.021-2.26 8.5-3 3.861-1.93 18.242-4.38 23-2l6.5 3 1 1h1c0 .905 8 3.91 8 10Z"/><path fill="#1C8064" id="SSp-ul6b" d="m137 91-4 2c1.465 0 4 .109 4-2Z"/><path fill="#A9AAA8" id="chpl" d="m178 91-2 2.5-1 9-6 9c-.834 1.667-6.749 3.502-5 7 3.373 6.746 8.286-1.893 11.5-3.5 11.618-5.809 22.979-24 2.5-24ZM273 91l-5 4.5c-2.824 5.648 1.059 9.118 3 13l4 2 12.5 10.5 3.5-.5c3.21-6.42-6.319-11.639-9-17l-1-10c-1.593-3.187-5.061-2.5-8-2.5Z"/><path fill="#AAA8A9" id="SEZ" d="m295 92 1 1-1-1Z"/><path fill="#1C8064" id="SSp-ul6b" d="M131 94h1l1-1h-2v1Z"/><path fill="#AAA8A9" id="SEZ" d="m148 102 4 2-1-4.5 8-6.5c-3.366 0-11 5.09-11 9ZM308 102c0 1.473-1.952 1-3 1 0-6.09-8-9.095-8-10 3.915 0 11 4.681 11 9Z"/><path fill="#1A7D63" id="SSp-un6b" d="M337 100v1c-1.581 0-12-5.735-12-7v-1l12 7ZM132 94c0 1.473-1.952 1-3 1l2-1h1Z"/><path fill="#C7C8CC" id="alv" d="M209 97c0 10.27-6.971 4-13 4 0-5.998-1.729-6 5-6l8 2Z"/><path fill="#A8AAAA" id="VL" d="m257 94-1 1 1-1Z"/><path fill="#C7C8CC" id="alv" d="m259 102-2 1c-4.344 0-10 .323-10-5 3.083 0 5.545-3 9-3l1-1c4.719 0 4 3.164 4 7l-2 1Z"/><path fill="#1A7D63" id="SSp-un6b" d="M120 100v1c2.011 0 9-4.585 9-6-3.541 0-6.151 5-9 5Z"/><path fill="#CBC8CC" id="df" d="M245 97c0 2.91-16 .261-16 4-2.029 0-1.881-1.19-3.5-2-2.045-1.022-14.5.674-14.5-2 0-1.7 5.137-1 6.5-1 2.506 0 9.659 2.67 11 2 2.329-1.165 5.779-2 8.5-2 1.49 0 8-.735 8 1Z"/><path fill="#1A7E62" id="SSs1" d="M32 171h5c0-12.379 3.119-37.738 8-47.5 2.556-5.112 8-14.789 8-20.5v-1l-4-3c0 .463-8.106 20.711-9 22.5-5.757 11.514-8 35.557-8 49.5ZM420 171h5c0-17.229-4.752-43.003-12-57.5-1.149-2.298-2.732-14.5-6-14.5l-4 3v1c0 3.183 6.288 16.076 8 19.5 4.984 9.968 9 36.231 9 48.5Z"/><path fill="#1B7E64" id="SSp-n6b" d="M120 101c0 1.577-1.762 2-3 2l2-3h1v1Z"/><path fill="#96A7D2" id="TRS" d="M229 106h6l6-3.5c1.906-3.812-10.936-1.5-12-1.5 0 1.688-12.056-3.389-14 .5-1.469 2.939 7 2.763 7 4.5h5c0-1.399 2-1.399 2 0Z"/><path fill="#98D5F9" id="CP" d="M348 233h1l6-3 1-1 1-1c0-.213 9.086-16.673 10-18.5l4-4.5c0-2.254 3.816-14 6-14l1-17c0-23.836-32.378-60.439-53.5-71-4.904-2.452-10.559-1-16.5-1 0 1.473-1.952 1-3 1 0 4.319-12 14.333-12 24v2l1 2 1 6 2 4 1 1h1c3.894 0 6.605-2 10-2 0-2.246 4 .086 4 1 2.698 0 2 4.255 2 6v2c1.587 0 1.587 6 0 6v1c1.473 0 1 1.952 1 3 1.91 0 5.187 7.874 6 9.5 3.229 6.458 8.579 28.841 5 36-.934 1.868-.075 10.5-3 10.5 0 17.788 9.034 18 24 18Z"/><path fill="#1B7E64" id="SSp-n6b" d="M337 101c5.431 0 28 24.93 28 30-2.001 0-7.249-12.375-10.5-14L337 101Z"/><path fill="#98D5F9" id="CP" d="m132 215 1 8.5c-3.397 6.794-17.425 13.037-24.5 9.5l-7.5-4c-3.32 0-7.815-11.129-9-13.5-6.827-13.654-14-24.886-14-41.5 0-8.043 5.574-16.648 9-23.5 10.603-21.205 25.727-37.613 47.5-48.5H148l4 2c0 3.942 11 13.207 11 24v3l-1 1v3c-.913 0-2 5.014-2 6l-1 1h-2c-3.324 0-6.16-2-9-2-.893 0-5-1.802-5 1-2.789 0-2 7.892-2 10v7l-1 1c0 1.519-7.744 13.988-9 16.5-1.281 2.562-3.624 29.751-2 33l3 6.5Z"/><path fill="#CBC8CB" id="fi" d="M191 133c-6.136 0-29 16.231-29 2v-3l1-1v-3c5.455 0 8.845-8.673 13.5-11l14-6c4.22-2.11.408-9 5.5-9 1.898 0 14.084 5 18 5 0 6.338-7 9.994-7 16l-5 4-7 4c-1.465 0-4-.109-4 2ZM295 137l-3 4c-12.842 0-31.656-14-38-14l-4-4c0-5.789-7-9.157-7-16 0-2.898 14-.397 14-4l2-1h2c4.08 0 .941 7.221 4.5 9 5.573 2.787 11.371 5.185 17 8 3.361 1.681 4.95 8 10.5 8v2l1 2 1 6Z"/><path fill="#1B8063" id="SSs2/3" d="m37 171 7 1c0-9.721 7.93-40.36 12-48.5l6-14.5v-1c-3.347 0-5.288-5-9-5 0 5.711-5.444 15.388-8 20.5-4.881 9.762-8 35.121-8 47.5Z"/><path fill="#1B7E64" id="SSp-n6b" d="M117 103c-1.238 0-3 .423-3 2 1.238 0 3-.423 3-2Z"/><path fill="#1B8063" id="SSs2/3" d="m420 171-8 1c0-15.048-6.644-36.787-13-49.5-.98-1.96-2.622-13.5-5-13.5v-1c3.584 0 5.328-5 9-5 0 3.183 6.288 16.076 8 19.5 4.984 9.968 9 36.231 9 48.5Z"/><path fill="#1B7E64" id="SSp-n6b" d="M114 105c-2.752 0-9 6.248-9 9l9-9Z"/><path fill="#C8C9C9" id="vhc" d="M248 123h2c0-5.789-7-9.157-7-16-2.097 0-5.293-1-8-1h-13c-1.49 0-8-.735-8 1 0 6.338-7 9.994-7 16l3-1c0-1.473 1.952-1 3-1 0-3.658 5.704-1.102 7.5-2 3.836-1.918 25.5-.487 25.5 3h1l1 1Z"/><path fill="#187C63" id="SSs4" d="M49 173h1c0-8.622 5.393-34.286 9-41.5l9-18.5c-1.287 0-3.637-4-6-4l-6 14.5c-4.07 8.14-12 38.779-12 48.5l5 1ZM412 172l-5 1c0-9.466-7.814-37.128-12-45.5-1.102-2.204-4.002-13.5-7-13.5v-1l6-4c2.378 0 4.02 11.54 5 13.5 6.356 12.713 13 34.452 13 49.5Z"/><path fill="#1C8063" id="SSs5" d="M50 173c4.284 0 9.371 1 13 1 0-14.216 3.085-28.67 9-40.5 1.022-2.045 3.163-12.5 6-12.5v-1c-1.576 0-9-5.242-9-7h-1l-9 18.5c-3.607 7.214-9 32.878-9 41.5Z"/><path fill="#1B7E64" id="SSp-n6b" d="m105 114-4 3c2.343 0 4-.285 4-3Z"/><path fill="#1C8063" id="SSs5" d="M394 173h13c0-9.466-7.814-37.128-12-45.5-1.102-2.204-4.002-13.5-7-13.5l-9 6v1c0 1.594 6.811 15.122 8 17.5 3.679 7.359 7 25.709 7 34.5Z"/><path fill="#1B7E64" id="SSp-n6b" d="M92 131h1c0-1.238.423-3 2-3 0-4.51 6-6.912 6-11-1.353 0-10 12.273-10 13v1h1Z"/><path fill="#197D63" id="SSs6a" d="M63 174c4.107 0 8.469 1 12 1 0-7.839 2.68-16.861 6-23.5.767-1.535 1.845-8.5 4-8.5 0-1.7 2.46-8 4-8l2-4v-1c-5.104 0-7.867-9-13-9-2.837 0-4.978 10.455-6 12.5-5.915 11.83-9 26.284-9 40.5Z"/><path fill="#A8A9AA" id="V3" fill-rule="evenodd" d="m240 131-3 3c0 14.368 16.079-3 3-3m-27 0c0 1.791-3.27 2.959-2 5.5 4.768 9.536 14.345-5.5 2-5.5m2 15c3.667 0 9.312 1.406 12.5 3l13.5-3c0-1.473 1.952-1 3-1l10-9v-1l1-2v-1l-1-5-4-4h-2l-1-1h-1c-6.29 0-10-3.769-10 5 0 11.554-15 14.484-15-2 0-5.059-3.999-4-8-4 0 1.473-1.952 1-3 1l-3 1-5 4v6l1 4 10 8 2 1Z"/><path fill="#197D63" id="SSs6a" d="M381 175h1c3.531 0 7.893-1 12-1v-1c0-8.791-3.321-27.141-7-34.5-1.189-2.378-8-15.906-8-17.5-1.178 0-13 8.376-13 10 0 2.911 3.73 5.96 5 8.5 5.199 10.399 10 23.042 10 35.5Z"/><path fill="#FF5347" id="SFO" d="M221 125c2.911 0 9.109-2.695 12.5-1l2.5 3c0 11.554-15 14.484-15-2Z"/><path fill="#C9C9CA" id="scwm" d="M95 128c-1.577 0-2 1.762-2 3 1.577 0 2-1.762 2-3Z"/><path fill="#A8AAAA" id="VL" d="m293 129 1 2-1-2Z"/><path fill="#1A8061" id="SSs6b" d="m92 131-3 4 2-4h1Z"/><path fill="#C9C9CA" id="scwm" d="m89 135-2 7c2.168 0 6-9.098 6-11h-1l-3 4Z"/><path fill="#A8AAAA" id="VL" d="m163 131-1 1 1-1Z"/><path fill="#FF8F9E" id="AD" d="m204 159-1 3-4-4.5-11-19.5v-2l3-3 4-2c2.833 0 4.84 2 7 2l1 4c-2.879 0-1 12.329-1 14l1 1v3c0 1.145-.579 4 1 4Z"/><path fill="#A9AAA8" id="chpl" d="M213 131c0 1.791-3.27 2.959-2 5.5 4.768 9.536 14.345-5.5 2-5.5ZM240 131l-3 3c0 14.368 16.079-3 3-3Z"/><path fill="#FF8F9E" id="AD" d="M253 158c0 1.145-.579 4 1 4l4-5.5 11-19.5v-1c0-4.792-11.626-4-14-4v1l-1 2v1c0 3.823 1 8.586 1 13l-1 1v2l-1 1v5Z"/><path fill="#1A8061" id="SSs6b" d="M380 175h1c0-12.458-4.801-25.101-10-35.5-1.27-2.54-5-5.589-5-8.5h-1c0 6.288 8 11.561 8 18v1c2.109 0 2 2.535 2 4v1l2 4 3 15v1Z"/><path fill="#CCC9C8" id="sm" d="m255 133-1 2 1-2Z"/><path fill="#1A8061" id="SSs6b" d="m87 142-2 1c0-1.7 2.46-8 4-8l-2 7Z"/><path fill="#FF6F80" id="TH" d="m187 137 1 1v-2l-1 1Z"/><path fill="#CCC9C8" id="sm" d="M250 155h3v-2l1-1v-2l1-1c0-4.414-1-9.177-1-13l-10 9v3c0 1.763 4.012 7 6 7Z"/><path fill="#FF6F80" id="TH" d="M269 137h1l-1-1v1Z"/><path fill="#FD909E" id="AV" d="M191 169c-4.127 0-3.879 8-6 8l-6-8v-2l-2-4v-2l-1-2-2-6-1-1v-11c4.769 0 8.687-4 14-4l1 1 11 19.5 4 4.5v1c-2.965 0-12 3.19-12 6Z"/><path fill="#CCC9C8" id="sm" d="M203 155h4l6-7v-3l-10-8c-2.879 0-1 12.329-1 14l1 1v3Z"/><path fill="#FD909E" id="AV" d="M272 177h1v-1l1-1 3-6 1-2v-1l1-2v-1c0-1.048-.473-3 1-3v-1l1-2 2-6 1-1v-1l1-2c0-2.518-2-4.286-2-6-4.453 0-8.197-4-13-4h-1l-11 19.5-4 5.5v1c1.869 0 11 3.198 11 5 4.088 0 4.47 9 7 9Z"/><path fill="#CCC" d="M141 159c4.739 0 17 25.809 17 30 3.493 0 3.52 14.99 9.5 12 3.494-1.747.551-8.397-.5-10.5l-12-24c-1.49-2.979-2.998-11.5 2-11.5 0-4.199-6-5.383-6-10-1.477 0-3-3.924-3-5-.893 0-5-1.802-5 1 0 1.249-1.074 10-2 10v8ZM298 189v1c-3.273 0-3.26 12-8.5 12-3.678 0-1.385-10.73-.5-12.5 4.802-9.603 9.235-19.469 14-29 1.578-3.155-3-4.241-3-6.5l6-9 3-5c0-2.246 4 .086 4 1 0 .986 1.087 6 2 6v12l-5 4.5c-3.638 7.277-11 15.92-11 24.5l-1 1Z"/><path fill="#97D6F9" id="STR" d="M151 145h4c0-2.215 2-1.519 2-3-3.324 0-6.16-2-9-2 0 1.076 1.523 5 3 5ZM301 144l5 1 3-5c-3.395 0-6.106 2-10 2l2 2ZM143 141c-2.789 0-2 7.892-2 10 .926 0 2-8.751 2-10Z"/><path fill="#CAC7CB" id="fiber tracts" d="M167 145c0 .986-1.087 6-2 6 0-5.173-.036-9-6-9l1-1c3.106 0 7-.112 7 4Z"/><path fill="#FF6F80" id="TH" d="m169 145 4 5v-9c-1.634 0-4 2.634-4 4ZM288 145l-3 2c0-2.518-2-4.286-2-6l5 4Z"/><path fill="#CAC7CB" id="fiber tracts" d="M289 145c0 1.503 2.502 10 4 10 0-5.368-4.01-13 5-13l-1-1h-5c0 2.349-3 1.382-3 4Z"/><path fill="#97D6F9" id="STR" d="M313 141c2.698 0 2 4.255 2 6-.913 0-2-5.014-2-6Z"/><path fill="#C9C9CA" id="scwm" d="M85 143v3l2-4-2 1Z"/><path fill="#C8CBC7" id="st" d="M163 155v1c-3.118 0-8-8.688-8-11 0-2.215 2-1.519 2-3h2c5.964 0 6 3.827 6 9-1.473 0-1 1.952-1 3l-1 1ZM293 155l1 1c0-2.449 7-6.726 7-12l-2-2h-1c-9.01 0-5 7.632-5 13Z"/><path fill="#1A8061" id="SSs6b" d="M75 175h2v-1c0-5.998 3-10.629 3-16 0-1.048-.473-3 1-3l1-2 1-2v-1l2-4v-3c-2.155 0-3.233 6.965-4 8.5-3.32 6.639-6 15.661-6 23.5Z"/><path fill="#CAC7CB" id="fiber tracts" d="m294 156 4 2 2-4 6-9-5-1c0 5.274-7 9.551-7 12ZM163 156l-4 2-2-3c0-4.199-6-5.383-6-10h4c0 2.312 4.882 11 8 11Z"/><path fill="#FD8F9F" id="RT" d="M184 205c4.386 0 10.708-4.396 15.5-2l3.5 2 1.5 1 1-1c4.06-4.06-4.5-5.272-4.5-8l-8-4-3-3-1-1c-1.811 0-4-3.438-4-5-1.207 0-4-7.706-4-9l-2-6v-2l-2-4v-2l-1-2-2-6-1-1v-2l-4-5h-2c0 .986-1.087 6-2 6 0 1.048.473 3-1 3l-1 1v1l-4 2c0 1.284-3.47 2.561-2 5.5 4.123 8.247 7.845 16.691 12 25 2.233 4.465.953 13.727 6.5 16.5 2.283 1.141 4.726 1 7.5 1l1-1Z"/><path fill="#FF6F80" id="TH" d="M213 148h2v-2l-2-1v3ZM242 148h2v-3c-1.048 0-3-.473-3 1l1 2Z"/><path fill="#FD8F9F" id="RT" d="M272 205c-2.238 0-19-5.66-19 1-8.099 0 2-7.286 2-9l7-3 1-1 3-2 1-1 1-1 1-1v-1l1-1 1-1v-1l1-1c1.069 0 3-6.717 3-8 0-1.974 2-3.517 2-6l1-2v-1l1-2v-1c1.473 0 1-1.952 1-3v-1l1-2 2-6 1-1v-1l1-2 3-2h1c0 1.503 2.502 10 4 10l1 1 4 2c0 13.89-4.894 19.288-11 31.5-2.478 4.956-1.1 13.3-7.5 16.5-2.364 1.182-5.696-1-7.5-1Z"/><path fill="#C9C9CA" id="scwm" d="m85 146-2 4c2.109 0 2-2.535 2-4Z"/><path fill="#FE8F9E" id="PVT" d="M225 178c3.666 0 1.677 2 3.5 2 1.171 0-.373-4.187 2-3l1.5 3c0-5.62 1.647-11.793 4-16.5.523-1.046-.951-3.5 1-3.5 0-4.81 5-9.657 5-12l-1-2-13.5 3c-3.188-1.594-8.833-3-12.5-3v2c0 3.791 5 7.808 5 12 0 6.177 5 12.037 5 18Z"/><path fill="#FF6F80" id="TH" d="m285 147-1 2 1-2Z"/><path fill="#FD909D" id="MD" d="M220 160c-2.885 0-7.055 3-12 3l-2-4 1-4 6-7h2c0 3.791 5 7.808 5 12ZM237 160c0 2.763 8.651 3 11 3l2-4v-4c-1.988 0-6-5.237-6-7h-2c0 2.343-5 7.19-5 12Z"/><path fill="#FF6F80" id="TH" d="m255 149-1 1 1-1Z"/><path fill="#97D6F9" id="STR" d="M315 149c1.587 0 1.587 6 0 6v-6Z"/><path fill="#FF6F80" id="TH" d="m284 150-1 1 1-1Z"/><path fill="#C9C9CA" id="scwm" d="M373 150c2.109 0 2 2.535 2 4l-2-4ZM83 151l-1 2 1-2Z"/><path fill="#CAC7CB" id="fiber tracts" d="M165 151c-1.473 0-1 1.952-1 3 1.473 0 1-1.952 1-3Z"/><path fill="#FF6F80" id="TH" d="m202 151 1 1-1-1ZM173 152l1 1-1-1ZM254 152l-1 1 1-1Z"/><path fill="#C9C9CA" id="scwm" d="m82 153-1 2 1-2Z"/><path fill="#CAC7CB" id="fiber tracts" d="m164 154-1 1 1-1Z"/><path fill="#8599CC" id="PAL" fill-rule="evenodd" d="M291 209c0 3.746 2.091 0 0 0m23 17h1c0-3.218 7-5.402 7-9-4.037 0-10.191 4.155-14.5 2-16.028-8.014-9.5-13.744-9.5-29-3.273 0-3.26 12-8.5 12-3.678 0-1.385-10.73-.5-12.5 4.802-9.603 9.235-19.469 14-29 1.578-3.155-3-4.241-3-6.5l-2 4c0 13.89-4.894 19.288-11 31.5-2.478 4.956-1.1 13.3-7.5 16.5-2.364 1.182-5.696-1-7.5-1l1 2c2.465 0 12 7.037 12 10v1c1.577 0 2 1.762 2 3v2l1 1c0 1.048-.473 3 1 3 0-14.811 25-4.39 25-1Z"/><path fill="#C9C9CA" id="scwm" d="M81 155c-1.473 0-1 1.952-1 3 1.473 0 1-1.952 1-3Z"/><path fill="#8599CC" id="PAL" fill-rule="evenodd" d="M165 209c0 4.42 1.206 0 0 0m3 16c0 1.048.473 3-1 3 0-13.09-16.248-8.626-23.5-5l-1.5 2c-2.513 0-8-6.543-8-9 2.487 0 5.7 3 8.5 3 22.533 0 15.5-14.674 15.5-30 3.493 0 3.52 14.99 9.5 12 3.494-1.747.551-8.397-.5-10.5l-12-24c-1.49-2.979-2.998-11.5 2-11.5l2 3c0 1.284-3.47 2.561-2 5.5 4.123 8.247 7.845 16.691 12 25 2.233 4.465.953 13.727 6.5 16.5 2.283 1.141 4.726 1 7.5 1v1c-1.977 0-10 5.578-10 8l-1 1v1l-1 1v1l-1 1-1 2v2l-1 1Z"/><path fill="#FF6F80" id="TH" d="M204 159c0-3.746.8 0 2 0l1-4h-4c0 1.145-.579 4 1 4ZM253 158l-3 1v-4h3v3Z"/><path fill="#C9C9CA" id="scwm" d="m375 155 2 4-2-4Z"/><path fill="#97D6F9" id="STR" d="M315 159h1c0-1.048.473-3-1-3v3Z"/><path fill="#FC8E9F" id="IAD" d="m208 163 7 19.5c.309.617-1.382 4.5-2 4.5 0-8.608-10-16.945-10-24v-1l1-3c0-3.746.8 0 2 0l2 4Z"/><path fill="#FF6F80" id="TH" d="m281 157-1 2 1-2Z"/><path fill="#97D6F9" id="STR" d="M140 159h1v-1l-1 1Z"/><path fill="#FC8E9F" id="IAD" d="m254 163-8 14.5c-.694 1.389-1.384 8.5-3 8.5 0-1.606-2.081-4.339-1-6.5 2.167-4.334 6-11.513 6-16.5l2-4 3-1c0 1.145-.579 4 1 4v1Z"/><path fill="#8598CC" id="GPe" d="m132 215 2 1c2.487 0 5.7 3 8.5 3 22.533 0 15.5-14.674 15.5-30 0-4.191-12.261-30-17-30h-1c0 1.519-7.744 13.988-9 16.5-1.281 2.562-3.624 29.751-2 33l3 6.5Z"/><path fill="#FF6F80" id="TH" d="m176 159 1 2-1-2Z"/><path fill="#8598CC" id="GPe" d="m323 216-1 1c-4.037 0-10.191 4.155-14.5 2-16.028-8.014-9.5-13.744-9.5-29v-1l1-1c0-8.58 7.362-17.223 11-24.5l5-4.5h1c1.91 0 5.187 7.874 6 9.5 3.229 6.458 8.579 28.841 5 36-.934 1.868-.075 10.5-3 10.5l-1 1Z"/><path fill="#FF909F" id="PT" d="M213 188c1.996 0 4.985 2 8 2 0-4.027 4-7.606 4-12 0-5.963-5-11.823-5-18-2.885 0-7.055 3-12 3l7 19.5c.309.617-1.382 4.5-2 4.5v1ZM243 188c0 2.273-5.226 2-7 2 0-3.277-4-5.999-4-10 0-5.62 1.647-11.793 4-16.5.523-1.046-.951-3.5 1-3.5 0 2.763 8.651 3 11 3 0 4.987-3.833 12.166-6 16.5-1.081 2.161 1 4.894 1 6.5v2Z"/><path fill="#FF6F80" id="TH" d="M280 160c-1.473 0-1 1.952-1 3 1.473 0 1-1.952 1-3ZM177 163l2 4-2-4Z"/><path fill="#FD8D9F" id="AMd" d="M205 193h4l4-5v-1c0-8.608-10-16.945-10-24-2.965 0-12 3.19-12 6 1.555 0 8.488 24 14 24ZM244 188c0 4.061 4.776 5 8 5 2.354 0 13-22.14 13-25 0-1.802-9.131-5-11-5l-8 14.5c-.694 1.389-1.384 8.5-3 8.5v1l1 1Z"/><path fill="#FF6F80" id="TH" d="m279 164-1 2 1-2ZM278 167l-1 2 1-2Z"/><path fill="#FC909D" id="AMv" d="m262 194-7 3c-1.712 0-3-2.571-3-4 2.354 0 13-22.14 13-25 4.088 0 4.47 9 7 9v3c-1.579 0-1 2.855-1 4v1l-1 1-1 1v1l-1 1-1 1-1 1-3 2-1 1Z"/><path fill="#FF6F80" id="TH" d="m185 177-1 1-3-3-2-6 6 8Z"/><path fill="#FC909D" id="AMv" d="m205 193-4 4-8-4-3-3-1-1-4-6v-2l-1-2v-1l1-1c2.121 0 1.873-8 6-8 1.555 0 8.488 24 14 24Z"/><path fill="#FF6F80" id="TH" d="M274 175h1c0-1.974 2-3.517 2-6l-3 6Z"/><path fill="#12AD83" id="VISC1" d="m41 199-5 1-3-7.5-1-21.5h5c0 3.516-1.97 11.558 0 15.5l4 11.5v1Z"/><path fill="#12AC83" id="VISC2/3" d="M50 195c0 1.231-7.622 3-9 3l-4-11.5c-1.97-3.942 0-11.984 0-15.5l7 1c0 8.784 6 17.341 6 23ZM407 195c0 1.446 6.754 3 8 3l4-9.5 1-17.5-8 1c0 9.967-5 16.534-5 23Z"/><path fill="#12AD83" id="VISC1" d="m415 198 6 2c0-2.592.958-3.416 2-5.5 2.196-4.392 2-17.842 2-23.5h-5l-1 17.5-4 9.5Z"/><path fill="#11AC82" id="VISC4" d="M50 195h2c0-3.003-1.727-5.953-3-8.5V173l-5-1c0 8.784 6 17.341 6 23ZM405 195h2c0-6.466 5-13.033 5-23l-5 1v14.5c-1.235 2.471-2 3.433-2 6.5v1Z"/><path fill="#12AD82" id="VISC5" d="M52 195h1l12-2c0-5.875-2-12.199-2-19-3.629 0-8.716-1-13-1h-1v13.5c1.273 2.547 3 5.497 3 8.5ZM405 194l-1 1-13-2c0-4.602 3-12.124 3-19v-1h13v14.5c-1.235 2.471-2 3.433-2 6.5Z"/><path fill="#11AC83" id="VISC6a" d="M65 193h1c4.335 0 6.86-2 11-2 0-5.268-2-10.078-2-16-3.531 0-7.893-1-12-1 0 6.801 2 13.125 2 19Z"/><path fill="#C8CBCC" id="ec" d="m111 239-1 1-4-2-3-2-3-3v-1l-3-3v-1l-1-1v-1l-1-1c0-4.841-10-14.984-10-19l-2-4c0-3.8-4-6.579-4-10l-1-2c0-4.635-1-9.828-1-15v-1h1c0 16.614 7.173 27.846 14 41.5 1.185 2.371 5.68 13.5 9 13.5l4.5 6 2-2c3.41 1.705 10.528 5 3.5 5 0-2.889-3.803 1 0 1ZM377 191h1c0-5.348 2-10.12 2-16v-1h-2l-1 17Z"/><path fill="#11AC83" id="VISC6a" d="M379 191c4.371 0 8.019 2 12 2 0-4.602 3-12.124 3-19-4.107 0-8.469 1-12 1 0 5.01-3 11.443-3 16Z"/><path fill="#11AD82" id="VISC6b" d="M77 191h1v-1c0-4.635-1-9.828-1-15h-2c0 5.922 2 10.732 2 16Z"/><path fill="#FD7E84" id="VAL" d="M185 183v1c-1.207 0-4-7.706-4-9l3 3v1l1 2v2Z"/><path fill="#FF6F80" id="TH" d="m274 175-1 1 1-1Z"/><path fill="#FD7E84" id="VAL" d="M272 180v3c1.069 0 3-6.717 3-8h-1l-1 1v1l-1 2v1Z"/><path fill="#11AD82" id="VISC6b" d="M378 191h1c0-4.557 3-10.99 3-16h-2c0 5.88-2 10.652-2 16Z"/><path fill="#FD8E9E" id="CM" d="M222 192h13l1-2c0-3.277-4-5.999-4-10l-1.5-3c-2.373-1.187-.829 3-2 3-1.823 0 .166-2-3.5-2 0 4.394-4 7.973-4 12l1 2Z"/><path fill="#FF6F80" id="TH" d="m273 177-1 2v-2h1ZM184 179l1 2-1-2ZM272 183l-1 1c0-1.145-.579-4 1-4v3ZM185 184c0 1.562 2.189 5 4 5l-4-6v1ZM271 185l-1 1 1-1ZM270 186l-1 1 1-1Z"/><path fill="#FC8E9F" id="IAD" d="M243 188h1l-1-1v1Z"/><path fill="#FF6F80" id="TH" d="M222 192c-4.569 0-8.923 1-13 1l4-5c1.996 0 4.985 2 8 2l1 2ZM252 208c0 2.697-14.399 9-17 9l5-4.5c4.084-4.084 18.027-20.5 2.5-20.5H235l1-2c1.774 0 7 .273 7-2h1c0 4.061 4.776 5 8 5 0 1.429 1.288 4 3 4 0 1.714-10.099 9-2 9v1l-1 1ZM269 188l-1 1 1-1Z"/><path fill="#8599CC" id="PAL" d="m299 188-1 1 1-1Z"/><path fill="#219666" id="AIp6b" d="M78 192h1l-1-2v2Z"/><path fill="#FF6F80" id="TH" d="m190 190 3 3-3-3ZM267 190l-1 1 1-1Z"/><path fill="#209766" id="AIp6a" d="M75 213h1c0-3.827 5-3.958 5-7-6.688 0-5.97-14-3-14v-1h-1c-4.14 0-6.665 2-11 2 0 6.911 9 13.398 9 20Z"/><path fill="#FD909F" id="RE" fill-rule="evenodd" d="m225 201-1 4.5c5.437 10.873 14.851-4.5 1-4.5m8 16h2l5-4.5c4.084-4.084 18.027-20.5 2.5-20.5H222c-4.569 0-8.923 1-13 1 0 2.029-1.191 1.881-2 3.5-2.183 4.365 3.792 9.583 5 12l10 8.5h4l1-1h1c0-1.186 1-1.186 1 0l4 1Z"/><path fill="#C8CBCC" id="ec" d="m373 203-2 2c0-2.254 3.816-14 6-14v2l-4 10Z"/><path fill="#219666" id="AIp6b" d="M378 192h1v-1h-2v1h1Z"/><path fill="#209766" id="AIp6a" d="M381 213h1c0-6.966 9-13.321 9-20-3.981 0-7.629-2-12-2v1c0 3.497 3.634 5.233 1 10.5-1.337 2.674-7 5.423-7 .5l-2 2v1c4.34 0 9 2.016 9 7h1Z"/><path fill="#8ADA86" id="CLA" d="M83 202c0 2.424-2 2.76-2 4-6.688 0-5.97-14-3-14h1c0 3.421 4 6.2 4 10Z"/><path fill="#209766" id="AIp6a" d="m378 192-1 1v-1h1Z"/><path fill="#8ADA86" id="CLA" d="m377 193-4 10c0 4.923 5.663 2.174 7-.5 2.634-5.267-1-7.003-1-10.5h-1l-1 1Z"/><path fill="#219864" id="AIp5" d="m75 213-7 3c-2.345 0-15-18.185-15-21l12-2h1c0 6.911 9 13.398 9 20Z"/><path fill="#FF6F80" id="TH" d="M203 207c1.164 0 12.214 10 19 10l-10-8.5c-1.208-2.417-7.183-7.635-5-12 .809-1.619 2-1.471 2-3.5h-4l-4 4c0 2.728 8.56 3.94 4.5 8l-1 1-1.5-1v2ZM263 193l-1 1 1-1Z"/><path fill="#219864" id="AIp5" d="M382 213c0 .886 5.824 3 7 3 0-3.476 15-14.432 15-21l-13-2c0 6.679-9 13.034-9 20Z"/><path fill="#12AC83" id="VISC2/3" d="M404 195h1v-1l-1 1Z"/><path fill="#209865" id="AIp2/3" d="M68 216c0 .411-8.864 4-10 4l-11-11.5c-.764-1.528-4.342-9.5-6-9.5v-1c1.378 0 9-1.769 9-3h3c0 2.815 12.655 21 15 21ZM389 216c0 1.165 8.453 4 10 4 0-4.015 16-14.822 16-22-1.246 0-8-1.554-8-3h-3c0 6.568-15 17.524-15 21Z"/><path fill="#219765" id="AIp1" d="m399 220 4 2 5-5.5c3.277-3.277 13-10.638 13-16.5l-6-2c0 7.178-16 17.985-16 22ZM58 220l-5 2c0-4.206-17-14.409-17-22l5-1c1.658 0 5.236 7.972 6 9.5L58 220Z"/><path fill="#FC8F9F" id="Xi" d="m225 201-1 4.5c5.437 10.873 14.851-4.5 1-4.5Z"/><path fill="#209766" id="AIp6a" d="M81 206h4l-2-4c0 2.424-2 2.76-2 4Z"/><path fill="#F0483B" id="ZI" d="M183 207c0 3.455 20 13.563 20 0v-2l-3.5-2c-4.792-2.396-11.114 2-15.5 2l-1 1v1ZM269 211h1c0-1.957 3-.093 3-4l-1-2c-2.238 0-19-5.66-19 1v2c0 10.652 12.526 3 16 3Z"/><path fill="#8599CC" id="PAL" d="m184 205-1 1 1-1Z"/><path fill="#C8CBCC" id="ec" d="M349 239h1l1-1 2-2 2-1 1-2 1-1v-1l2-2 1-2 1-1 10-20v-1l-4 4.5c-.914 1.827-10 18.287-10 18.5l-1 1-1 1c0 3.942-4.558 3-6 3h-1c0 2.21-10.153 5-3 5 0-2.092 2-.652 2 1h2Z"/><path fill="#A0EE9C" id="EPd" d="M97 231c0 1.747-.253 2-2 2-5.27 0-7.956-7-12-7v-1c0-1.336-6.242-12-7-12 0-3.827 5-3.958 5-7h4c0 4.016 10 14.159 10 19l1 1v1l1 1v3ZM368 231c-2.447 0-3.28 2-6 2-1.238 0-3-.423-3-2v-2l1-2 1-1 10-20c4.34 0 9 2.016 9 7l-5 10-1 1-1 1v1l-1 1-1 1-1 1-1 1-1 1Z"/><path fill="#E64438" id="HY" fill-rule="evenodd" d="M201 218c0 .565-5.23 5.959-6 7.5-1.268 2.536 3.259 5.62 5.5 4.5 6.716-3.358 11.498-12 .5-12m-7 57h1c0-3.591-.519-4 4-4l-5-4.5c-1.846-3.692-4.327-16.347-2-21 1.818-3.637 11.189-14.155 16.5-11.5 1.818.909 6.507 1.515 7.5 3.5l3 5.5c0-3.041-.303-4 3-4 0-6.683-13.378-18.061-5.5-22 .416-.208 6.086 1 7.5 1v-1h-2c-6.786 0-17.836-10-19-10 0 13.563-20 3.455-20 0-1.977 0-10 5.578-10 8l5.5-2 2.5 2c0-10.396 13.757 2 2 2l4 5.5c3.814 7.628 8.416 42.5-5 42.5 0 2.349 3 1.382 3 4l1 1c0-1.186 1-1.186 1 0 0 1.675 7 2.222 7 5Z"/><path fill="#CAC7CB" id="fiber tracts" d="M252 208h1v-1l-1 1Z"/><path fill="#E64438" id="HY" d="m275 215 4.5-2 5.5 4c0-2.963-9.535-10-12-10 0 3.907-3 2.043-3 4 4.826 0 5-.112 5 4Z"/><path fill="#E64438" id="HY" fill-rule="evenodd" d="M250 218c0 2.791-2.683 2.135-1 5.5l5.5 4.5c10.704 5.352 8.308-10-4.5-10m-12 25c0-6.971 10.206-10.647 15.5-8l10 8c.983.983-.3 4 1.5 4 0-6.088 1.32-18.139 4-23.5l4-6.5c-5.296 0-4-2.639-4-6-3.474 0-16 7.652-16-3h-1c0 2.697-14.399 9-17 9h-2v1c16.3 0 9.394 1.712 4 12.5l-1 6-2 2.5c3.943 0 2.113 4 4 4Z"/><path fill="#CCCACB" id="nst" d="M165 209c0 4.42 1.206 0 0 0ZM291 209c0 3.746 2.091 0 0 0Z"/><path fill="#CCC9C8" id="sm" d="M183 216v1c11.757 0-2-12.396-2-2h1l1 1ZM274 216l-1 1c-5.296 0-4-2.639-4-6h1c4.826 0 5-.112 5 4l-1 1Z"/><path fill="#6ACAB9" id="PIR" d="M113 273c0 6.845-12 21.002-12 24-6.263 0-11.667-8.834-14-13.5l-8-12c-4.78-9.559-9.152-19.304-14-29-2.102-4.204-12-16.807-12-20.5l5-2c1.136 0 10-3.589 10-4l7-3c0 3.891 6 7.431 6 11l1 1 1 1 1 2 7 9 21 31 1 5Z"/><path fill="#C9C8CA" id="ee" d="M82 225h1c0-1.336-6.242-12-7-12h-1c0 3.891 6 7.431 6 11l1 1Z"/><path fill="#F2483A" id="LHA" d="M181 265h1c13.416 0 8.814-34.872 5-42.5l-4-5.5v-1l-1-1h-1l-2.5-2-5.5 2-1 1v1l-1 1v1l-1 1-1 2v2l-1 1c0 1.048.473 3-1 3v3l-1 1-2 8-1 1v1l-1 13 4.5 3c2.595 1.297 14.5 2.797 14.5 7ZM277 264l-2 1c-6.189 0-10-8.559-10-14v-4c0-6.088 1.32-18.139 4-23.5l4-6.5 1-1 1-1 4.5-2 5.5 4v1l2 3v2l1 1c0 1.048-.473 3 1 3v1c0 1.048-.473 3 1 3l3 10 2 13-1 1-1 2c-2.42 0-14 3.413-14 6h-1l-1 1Z"/><path fill="#C9C8CA" id="ee" d="M375 223h1l1-1 4-9h-1l-5 10Z"/><path fill="#6ACAB9" id="PIR" d="M343 273c0 5.435 13 22.26 13 24 5.376 0 12.918-10.336 15-14.5 6.171-12.343 11.873-24.746 18-37 2.812-5.624 14-17.851 14-23.5l-4-2c-1.547 0-10-2.835-10-4-1.176 0-7-2.114-7-3h-1l-4 9-1 1-1 1-1 1-1 1v1l-1 1-1 1c0 1.429-1.288 4-3 4 0 1.429-1.288 4-3 4 0 2.665-12.99 21.49-15.5 24l-5.5 7-1 5Z"/><path fill="#97D6F9" id="STR" fill-rule="evenodd" d="m115 239-1 3.5c2.226 4.451 7.107-3.5 1-3.5m-5 1c0 .978 2.267 7 3 7 3.013 0 9.084-3.332 7-7.5l-4-4c1.077-2.154 7.571-.536 9.5-1.5l5-3 .5 2c.093 0 4.591-7 11-7v-1c-2.513 0-8-6.543-8-9l-2-1 1 8.5c-3.397 6.794-17.425 13.037-24.5 9.5l-7.5-4 4.5 6 2-2c3.41 1.705 10.528 5 3.5 5v1l-1 1Z"/><path fill="#E64438" id="HY" d="m173 215-1 1 1-1ZM182 215l1 1-1-1ZM275 215l-1 1 1-1Z"/><path fill="#97D6F9" id="STR" fill-rule="evenodd" d="M339 239c0 9.667 6.117 0 0 0m7 1c0 1.345-1.571 7-3 7-2.865 0-8.842-3.815-7-7.5l5-4-9-1.5-7-3c-1.2 0-4.521-5-10-5 0-3.218 7-5.402 7-9l1-1 1-1c0 17.788 9.034 18 24 18 0 2.21-10.153 5-3 5l1 1v1Z"/><path fill="#FF6F80" id="TH" d="M226 217h1v-1l-1 1Z"/><path fill="#E64438" id="HY" d="M227 217c0 1.399 2 1.399 2 0v-1h-2v1Z"/><path fill="#FF6F80" id="TH" d="M233 217v1l-4-1v-1l4 1Z"/><path fill="#E64438" id="HY" d="m274 216-1 1 1-1Z"/><path fill="#8599CC" id="PAL" d="m323 216-1 1 1-1Z"/><path fill="#E64438" id="HY" d="m172 217-1 1 1-1Z"/><path fill="#FF5D4F" id="PVH" d="M227 240v-15.5c0-1.054-.338-4.5 1.5-4.5l.5 20 3-1h2l2-2.5 1-6c5.394-10.788 12.3-12.5-4-12.5l-4-1c0 1.399-2 1.399-2 0h-1l-2 1c-1.414 0-7.084-1.208-7.5-1-7.878 3.939 5.5 15.317 5.5 22h2l3 1Z"/><path fill="#FF6F80" id="TH" d="m226 217-2 1v-1h2Z"/><path fill="#C7C8CA" id="fx" d="M201 218c0 .565-5.23 5.959-6 7.5-1.268 2.536 3.259 5.62 5.5 4.5 6.716-3.358 11.498-12 .5-12ZM250 218c0 2.791-2.683 2.135-1 5.5l5.5 4.5c10.704 5.352 8.308-10-4.5-10Z"/><path fill="#E64438" id="HY" d="M285 218c1.577 0 2 1.762 2 3l-2-3Z"/><path fill="#A2B1D7" id="SI" d="M163 241v1c-2.048 0-4.872 4.314-7.5 3l-6.5-4-1-1c0-4.365.116-14-6-14v-1l1.5-2c7.252-3.626 23.5-8.09 23.5 5v3l-1 1-2 8-1 1Z"/><path fill="#E64438" id="HY" d="m171 219-1 1 1-1Z"/><path fill="#A2B1D7" id="SI" d="m307 242-1 1-7.5 2c-1.362-.681-4.844-4-5.5-4l-3-10c0-1.048.473-3-1-3v-1c0-14.811 25-4.39 25-1 0 .568-4.192 2.885-5 4.5v8.5l-2 3Z"/><path fill="#E64438" id="HY" d="m170 220-1 2 1-2Z"/><path fill="#A8A9AA" id="V3" d="m227 240 .5 32c2.174 1.087 1.5-5.833 1.5-7v-25l-.5-20c-1.838 0-1.5 3.446-1.5 4.5V240Z"/><path fill="#99D2BD" id="OLF" d="m377 222-1 1 1-1Z"/><path fill="#E64438" id="HY" d="m287 223 1 1-1-1Z"/><path fill="#C9C8CA" id="ee" d="M374 224h1v-1l-1 1Z"/><path fill="#99D2BD" id="OLF" d="m376 223-1 1v-1h1Z"/><path fill="#8AD987" id="CTXsp" d="m81 224 1 1-1-1Z"/><path fill="#E64438" id="HY" d="m169 224-1 1 1-1Z"/><path fill="#C9C8CA" id="ee" d="M373 225h1v-1l-1 1Z"/><path fill="#8AD987" id="CTXsp" d="m375 224-1 1v-1h1Z"/><path fill="#99D2BD" id="OLF" d="M83 225v1l-1-1h1Z"/><path fill="#8AD987" id="CTXsp" d="m95 225 1 1-1-1ZM374 225l-1 1v-1h1ZM95 233l-4 4c0-2.008-4.493-9-7-9l-1-2c4.044 0 6.73 7 12 7Z"/><path fill="#7FC0E0" id="CEAm" d="M135 242h10l3-2c0-4.365.116-14-6-14-6.409 0-10.907 7-11 7v1c0 4.065 4 7.553 4 8ZM311 242h11c0-.781 3-4.65 3-9v-2c-1.2 0-4.521-5-10-5h-1c0 .568-4.192 2.885-5 4.5v8.5c0 1.238.423 3 2 3Z"/><path fill="#8AD987" id="CTXsp" d="m361 226-1 1 1-1ZM372 227h1v-1l-1 1ZM96 227l1 1-1-1ZM360 227l-1 2 1-2ZM371 228h1v-1l-1 1Z"/><path fill="#99D2BD" id="OLF" d="m373 227-1 1v-1h1ZM84 228c2.507 0 7 6.992 7 9l-7-9Z"/><path fill="#8599CC" id="PAL" d="M289 228c1.473 0 1 1.952 1 3-1.473 0-1-1.952-1-3Z"/><path fill="#97D6F9" id="STR" d="m357 228-1 1 1-1Z"/><path fill="#8AD987" id="CTXsp" d="M370 229h1v-1l-1 1Z"/><path fill="#99D2BD" id="OLF" d="m372 228-1 1v-1h1Z"/><path fill="#8AD987" id="CTXsp" d="m97 231 3 1-3-3v2ZM357 231h2v-2l-2 2ZM370 229l-1 1 1-1Z"/><path fill="#99D2BD" id="OLF" d="M368 231v2c1.712 0 3-2.571 3-4h-1l-1 1-1 1Z"/><path fill="#97D6F9" id="STR" d="m355 230-6 3c1.442 0 6 .942 6-3Z"/><path fill="#8AD987" id="CTXsp" d="m369 230-1 1 1-1Z"/><path fill="#A0ED9D" id="EPv" d="M112 268h1c4.095 0 .253-8 3-8 0-5.292-1.846-8.192-4-12.5l-6-5.5c-1.901 0-5-4.332-5-6l-1-3v-1l-3-1c0 1.747-.253 2-2 2l-4 4 21 31Z"/><path fill="#7ECDF8" id="FS" d="M113 247c0 1.429 1.288 4 3 4l9-8.5c.721-1.442 4.326-8.5 6-8.5v-1l-.5-2-5 3c-1.929.964-8.423-.654-9.5 1.5l4 4c2.084 4.168-3.987 7.5-7 7.5Z"/><path fill="#8599CC" id="PAL" d="m167 231-1 1 1-1Z"/><path fill="#7ECDF8" id="FS" d="m343 249-2 1c-6.841 0-14.391-17-16-17v-2l7 3 9 1.5-5 4c-1.842 3.685 4.135 7.5 7 7.5v2Z"/><path fill="#A0ED9D" id="EPv" d="M343 268h1l5.5-7c2.51-2.51 15.5-21.335 15.5-24v-1l-3-3c-1.238 0-3-.423-3-2h-2v1l-1 1-1 2v1c0 2.357-2.301 6-5 6l-7 7-2 4.5c-1.967 3.934 2 12.498 2 14.5Z"/><path fill="#8AD987" id="CTXsp" d="m368 233-3 3-3-3c2.72 0 3.553-2 6-2v2ZM357 232l-1 1 1-1ZM101 236h2l-3-3 1 3Z"/><path fill="#97D6F9" id="STR" d="M327 253h8c1.999 0 6-.067 6-3-6.841 0-14.391-17-16-17 0 4.35-3 8.219-3 9 6.108 0 5 6.375 5 11Z"/><path fill="#8AD987" id="CTXsp" d="m356 233-1 2 1-2Z"/><path fill="#99D2BD" id="OLF" d="M365 236v1c1.712 0 3-2.571 3-4l-3 3Z"/><path fill="#97D6F9" id="STR" d="M122 253h7c0-4.883-.423-11 6-11 0-.447-4-3.935-4-8-1.674 0-5.279 7.058-6 8.5l-9 8.5c0 2.698 4.255 2 6 2Z"/><path fill="#FF4B3E" id="AHN" d="M204 272h6c2.18 0 5.188-3 7-3 0-8.174 2-16.949 2-26l-3-5.5c-.993-1.985-5.682-2.591-7.5-3.5-5.311-2.655-14.682 7.863-16.5 11.5-2.327 4.653.154 17.308 2 21l5 4.5h4l1 1ZM257 271l-10 1c-2.377 0-6.054-3-8-3 0-8.399-1-17.102-1-26 0-6.971 10.206-10.647 15.5-8l10 8c.983.983-.3 4 1.5 4v4c-1.583 0 1.022 7.457 0 9.5-1.405 2.809-2.018 5.018-4.5 7.5l-3.5 3Z"/><path fill="#8AD987" id="CTXsp" d="M353 236h2v-1l-2 1Z"/><path fill="#80BEE2" id="IA" d="M106 238c0 .666 2.56 4 0 4-1.901 0-5-4.332-5-6h2l3 2ZM349 239h1l1-1 2-2h2c0 2.357-2.301 6-5 6-1.473 0-1-1.952-1-3Z"/><path fill="#9DE79B" id="BLAa" d="M111 238v1c-3.803 0 0-3.889 0-1ZM346 239h1c0-1.652-2-3.092-2-1l1 1Z"/><path fill="#8AD987" id="CTXsp" d="m122 253-4 3.5-2 3.5c0-5.292-1.846-8.192-4-12.5l-6-5.5c2.56 0 0-3.334 0-4l4 2c0 .978 2.267 7 3 7 0 1.429 1.288 4 3 4 0 2.698 4.255 2 6 2ZM351 238l-1 1 1-1Z"/><path fill="#C9C9C9" id="act" d="m115 239-1 3.5c2.226 4.451 7.107-3.5 1-3.5Z"/><path fill="#FD5547" id="SBPV" d="M217 269v2c2.635 0 1.44-3.97 3.5-5l4.5 1c0-8.675-1-18.684-1-28h-2c-3.303 0-3 .959-3 4 0 9.051-2 17.826-2 26Z"/><path fill="#FF5D50" id="PVa" d="m229 276-2 1-2-10c0-8.675-1-18.684-1-28l3 1 .5 32c2.174 1.087 1.5-5.833 1.5-7v-25l3-1c0 9.59-1 20.076-1 29 0 3.091-2 5.478-2 8Z"/><path fill="#FD5547" id="SBPV" d="M239 269v2l-3.5-5-4.5 2c0-8.924 1-19.41 1-29h2c3.943 0 2.113 4 4 4 0 8.898 1 17.601 1 26Z"/><path fill="#97D6F9" id="STR" d="M311 242c0 1.579-2.855 1-4 1v-1l2-3c0 1.238.423 3 2 3Z"/><path fill="#C9C9C9" id="act" d="M339 239c0 9.667 6.117 0 0 0Z"/><path fill="#C8CBCC" id="ec" d="m347 239-1 1v-1h1Z"/><path fill="#8AD987" id="CTXsp" d="M343 247v2l7-7c-1.473 0-1-1.952-1-3h-2l-1 1c0 1.345-1.571 7-3 7Z"/><path fill="#97D6F9" id="STR" d="m145 242 6 3-2-4-1-1-3 2Z"/><path fill="#8599CC" id="PAL" d="m164 240-1 1 1-1ZM166 271c.53 0 5 4.208 5 1l-1-2c-2.336 0-8-12.79-8-15l1-13c-2.048 0-4.872 4.314-7.5 3l-6.5-4 2 4v1c1.086 0 7 9.623 7 11 5.197 0 8 10.083 8 14ZM285 272v1c2.518 0 4.286-2 6-2 0-4.638 1.771-14 8-14 0-1.8 4.067-10 6-10v-1l1-1v-2l-7.5 2c-1.362-.681-4.844-4-5.5-4l2 13-1 1-1 2c0 2.286-3.343 12-6 12 0 2.215-2 1.519-2 3Z"/><path fill="#80C0E2" id="AAA" d="M143 260h1c0-2.064 3.353-.426 4.5-1l2.5-2v-12l-6-3h-10c-6.423 0-6 6.117-6 11l7 6c1.406 0 7-.714 7 1Z"/><path fill="#8599CC" id="PAL" d="M306 243h1v-1l-1 1Z"/><path fill="#80C0E2" id="AAA" d="M313 260h1c0-1.684 4.679-1 6-1l7-6c0-4.625 1.108-11-5-11h-11c0 1.579-2.855 1-4 1l-1 2-1 1v1c0 3.306-1.65 6.201 0 9.5.886 1.772 8 2.642 8 3.5Z"/><path fill="#97D6F9" id="STR" d="m307 243-1 2v-2h1ZM306 245l-1 1 1-1ZM151 257h7c0-1.377-5.914-11-7-11v11ZM307 262h1l4-1 1-1c0-.858-7.114-1.728-8-3.5-1.65-3.299 0-6.194 0-9.5-1.933 0-6 8.2-6 10 3.638 0 8-.971 8 5Z"/><path fill="#8AD987" id="CTXsp" d="m343 268-4 3 1-11.5-5-6.5c1.999 0 6-.067 6-3l2-1-2 4.5c-1.967 3.934 2 12.498 2 14.5Z"/><path fill="#E64438" id="HY" d="M262 274h1l2-1 2-1 2-1v-1l2-1 4-4c-6.189 0-10-8.559-10-14-1.583 0 1.022 7.457 0 9.5-1.405 2.809-2.018 5.018-4.5 7.5l-3.5 3c3.256 0 5-.714 5 3Z"/><path fill="#84EA80" id="BMAa" d="M131 271c-3.303 0-5.115 2-8 2-2.567 0-3.913-2-5-2 0-3.378-2-6.922-2-11l2-3.5 4-3.5h7l7 6v3c0 2.7-3 4.762-3 8l-2 1ZM339 271c-1.714 0-3.482 2-6 2-2.709 0-4.646-2-8-2l-2-2c0-2.971-3-4.768-3-7v-3l7-6h8l5 6.5-1 11.5Z"/><path fill="#E64438" id="HY" d="m295 254-1 1 1-1ZM181 265c-4.415 0-11-6.244-11 5-2.336 0-8-12.79-8-15l4.5 3c2.595 1.297 14.5 2.797 14.5 7ZM294 255l-1 2 1-2Z"/><path fill="#80BFE1" id="MEA" d="M159 282c0 1.473-1.952 1-3 1 0-1.308-1.144-12-2-12l-1-3-4-6 2-5h7c5.197 0 8 10.083 8 14v1c-1.473 0-1 1.952-1 3v1c-1.577 0-2 1.762-2 3-1.747 0-2 .253-2 2l-2 1ZM297 282h4c0-1.574-.751-9 1-9l1-5 1-1 3-4v-1c0-5.971-4.362-5-8-5-6.229 0-8 9.362-8 14v4l6 7Z"/><path fill="#97D6F9" id="STR" d="M148 262h1l2-5-2.5 2c-1.147.574-4.5-1.064-4.5 1l1 1h2l1 1Z"/><path fill="#E64438" id="HY" d="M279 263c3.716 0 8 1.76 8 6 2.657 0 6-9.714 6-12-2.42 0-14 3.413-14 6Z"/><path fill="#97D6F9" id="STR" d="m143 260-7 2v-3c1.406 0 7-.714 7 1ZM316 261l4 1v-3c-1.321 0-6-.684-6 1h1l1 1Z"/><path fill="#8AD987" id="CTXsp" d="M113 268c0 1.077 3.762 3 5 3 0-3.378-2-6.922-2-11-2.747 0 1.095 8-3 8Z"/><path fill="#94E4C7" id="NLOT3" d="M133 270v2l3.5-3c4.639-2.319 12.06-1 16.5-1l-4-6h-1l-1-1h-2l-1-1h-1l-7 2c0 2.7-3 4.762-3 8Z"/><path fill="#99D2BD" id="OLF" d="m144 260 1 1-1-1ZM313 260l-1 1 1-1Z"/><path fill="#94E4C7" id="NLOT3" d="M323 269v2c-3.859 0-12.044-4-19-4l3-4 1-1 4-1 1-1h2l1 1 4 1c0 2.232 3 4.029 3 7Z"/><path fill="#99D2BD" id="OLF" d="m315 260 1 1-1-1ZM147 261l1 1-1-1ZM308 262l-1 1v-1h1Z"/><path fill="#FE5B50" id="SO" d="M171 272h1c0-3.298 10.806-3 13-3 0-2.618-3-1.651-3-4h-1c-4.415 0-11-6.244-11 5l1 2Z"/><path fill="#E64438" id="HY" d="m278 263-1 1 1-1Z"/><path fill="#FE5B50" id="SO" d="M287 269c0 2.215-2 1.519-2 3l-7.5-4-6.5 1 4-4 2-1 1-1h1c3.716 0 8 1.76 8 6Z"/><path fill="#E64438" id="HY" d="m277 264-2 1 2-1Z"/><path fill="#FF5545" id="SCH" d="m216 277 2.5 3c2.874 1.437 8.5 1.836 8.5-3l-2-10-4.5-1c-2.06 1.03-.865 5-3.5 5l-1 5v1ZM240 277l-3 4c-4.089 0-8 .051-8-5 0-2.522 2-4.909 2-8l4.5-2 3.5 5 1 5v1Z"/><path fill="#95E3C8" id="NLOT2" d="m136 282 2 1c9.451 0 16-1.377 16-12l-1-3c-4.44 0-11.861-1.319-16.5 1l-3.5 3c0 4.208 3 8.137 3 10Z"/><path fill="#94E4C7" id="NLOT3" d="m304 267-1 1 1-1Z"/><path fill="#95E3C8" id="NLOT2" d="m320 282-2 1c-7.716 0-16-.667-16-10l1-5 1-1c6.956 0 15.141 4 19 4v1c0 2.482.669 10-3 10Z"/><path fill="#99D2BD" id="OLF" d="M123 273c0 1.238-.423 3-2 3 0-3.042-5.322-3-8-3l-1-5h1c0 1.077 3.762 3 5 3 1.087 0 2.433 2 5 2Z"/><path fill="#CAC7CB" id="fiber tracts" d="M172 273c3.756 0 9.859-4.321 14.5-2l7.5 4c0-2.778-7-3.325-7-5h-1l-1-1c-2.194 0-13-.298-13 3v1ZM285 273l-1 2c0-5.733-10.895-4-15-4v-1l2-1 6.5-1 7.5 4v1Z"/><path fill="#99D2BD" id="OLF" d="M343 273c-3.863 0-6.505 3-8 3l-2-3c2.518 0 4.286-2 6-2l4-3h1l-1 5Z"/><path fill="#FE5B50" id="SO" d="M186 270h1c0-1.186-1-1.186-1 0Z"/><path fill="#E64438" id="HY" d="M210 272c0 1.951 2.454.477 3.5 1l2.5 3 1-5v-2c-1.812 0-4.82 3-7 3ZM247 272c0 1.951-2.454.477-3.5 1l-3.5 3-1-5v-2c1.946 0 5.623 3 8 3Z"/><path fill="#FE5B50" id="SO" d="m271 269-2 1 2-1Z"/><path fill="#99D2BD" id="OLF" d="m325 271-2 1v-3l2 2ZM131 271l2 1v-2l-2 1Z"/><path fill="#60E5B7" id="COAa" d="M130 295h3l4-3v-6l-1-4c0-1.863-3-5.792-3-10l-2-1c-3.303 0-5.115 2-8 2 0 1.238-.423 3-2 3 0 7.354 3 15.29 3 19h6Z"/><path fill="#95E4C7" id="NLOT1" d="M151 292c-1.408 0-5 1.197-5 3-3.804 0-9 1.576-9-3v-6c1.473 0 1-1.952 1-3 9.451 0 16-1.377 16-12 .856 0 2 10.692 2 12-1.951 0-.477 2.454-1 3.5l-4 5.5Z"/><path fill="#CACCCB" id="opt" d="M199 279v8c-8.192 0-15.696-4.598-22.5-8l-4.5-4v-2c3.756 0 9.859-4.321 14.5-2l7.5 4h1l4 4Z"/><path fill="#F2483B" id="RCH" d="m216 277-1 4c-7.469 0-14.441-6-20-6 0-3.591-.519-4 4-4h4l1 1h6c0 1.951 2.454.477 3.5 1l2.5 3v1Z"/><path fill="#E64438" id="HY" d="m203 271 1 1-1-1Z"/><path fill="#F2483B" id="RCH" d="m240 277 2 4c6.712 0 11.881-5 18-5l1-1 1-1c0-3.714-1.744-3-5-3l-10 1c0 1.951-2.454.477-3.5 1l-3.5 3v1Z"/><path fill="#CAC7CB" id="fiber tracts" d="m269 271-2 1 2-1Z"/><path fill="#CACCCB" id="opt" d="M272 283c-5.011 0-9.037 4-15 4v-8l3-3 1-1h1l1-1 2-1 2-1 2-1c4.105 0 15-1.733 15 4l-1 2c-1.452 0-11 4.937-11 6Z"/><path fill="#60E5B7" id="COAa" d="M327 295h6c0-3.404 1.488-9.477 3-12.5l-1-6.5-2-3c-2.709 0-4.646-2-8-2l-2 1c0 2.482.669 10-3 10l-1 3 1 8 4 2h3Z"/><path fill="#97D6F9" id="STR" d="M166 272c-1.473 0-1 1.952-1 3 1.473 0 1-1.952 1-3Z"/><path fill="#CAC7CB" id="fiber tracts" d="m267 272-2 1 2-1Z"/><path fill="#59D9AA" id="PAA" d="M111 300h6c0-1.183 3.57-1.535 4.5-2l2.5-3c0-3.71-3-11.646-3-19 0-3.042-5.322-3-8-3 0 6.845-12 21.002-12 24l1 1 5 1 1 1h3Z"/><path fill="#CAC7CB" id="fiber tracts" d="m265 273-2 1 2-1Z"/><path fill="#95E4C7" id="NLOT1" d="m319 285 1 8-1.5 2c-7.626 3.813-17.5-6.322-17.5-13 0-1.574-.751-9 1-9 0 9.333 8.284 10 16 10l1 2Z"/><path fill="#59D9AA" id="PAA" d="M345 300h4l1-1h3l1-1 2-1c0-1.74-13-18.565-13-24-3.863 0-6.505 3-8 3l1 6.5c-1.512 3.023-3 9.096-3 12.5 0 3.965 8.521 5 12 5Z"/><path fill="#E64438" id="HY" d="M261 275h1v-1l-1 1Z"/><path fill="#CAC7CB" id="fiber tracts" d="m263 274-1 1v-1h1ZM227 285c-9.862 0-19.515 2-28 2-8.192 0-15.696-4.598-22.5-8l-4.5-4c0 5.674 8.19 6.345 11.5 8 9.045 4.522 20.433 9.283 31 4 2.118-1.059 12.5 1.508 12.5-2Z"/><path fill="#CAC7CB" id="fiber tracts" d="M237 281h5c6.712 0 11.881-5 18-5l-3 3c-1.367 0-11.845 3.173-13.5 4-2.48 1.24-35.902.049-38-1-2.435-1.218-3.466-3-6.5-3l-4-4c5.559 0 12.531 6 20 6l10.5 1 2.5-2h1c0 2.894 8 2.657 8 1ZM261 275l-1 1 1-1ZM284 275l-1 2 1-2Z"/><path fill="#97D6F9" id="STR" d="M295 282h2l-6-7c0 2.83 4 4.54 4 7ZM165 276c-1.577 0-2 1.762-2 3 1.577 0 2-1.762 2-3Z"/><path fill="#E64438" id="HY" d="M229 280c0 2.894 8 2.657 8 1-4.089 0-8 .051-8-5l-2 1c0 4.836-5.626 4.437-8.5 3l-2.5-3-1 4 10.5 1 2.5-2c0-1.186 1-1.186 1 0ZM237 281h5l-2-4-3 4Z"/><path fill="#CAC7CB" id="fiber tracts" d="M283 277c-1.452 0-11 4.937-11 6 3.578 0 11-2.46 11-6Z"/><path fill="#97D6F9" id="STR" d="M163 279c-1.747 0-2 .253-2 2l2-2Z"/><path fill="#CBCACC" id="och" d="M229 285c9.78 0 19.636 2 28 2v-8c-1.367 0-11.845 3.173-13.5 4-2.48 1.24-35.902.049-38-1-2.435-1.218-3.466-3-6.5-3v8c8.485 0 18.138-2 28-2h2Z"/><path fill="#97D6F9" id="STR" d="M159 282h2v-1l-2 1Z"/><path fill="#99D2BD" id="OLF" d="M138 283c0 1.048.473 3-1 3l-1-4 2 1ZM156 283c-1.951 0-.477 2.454-1 3.5l-4 5.5c4.403 0 10-7.213 10-10h-2c0 1.473-1.952 1-3 1ZM333 295c0 3.965 8.521 5 12 5 0 1.22-3.492 1.504-4.5 1-4.589-2.295-10.356-1.678-15-4h-11c-5.611-2.805-19.5-7.871-19.5-15h6c0 6.678 9.874 16.813 17.5 13l1.5-2 4 2c0 1.486 3 1.486 3 0h6ZM318 283l1 2 1-3-2 1Z"/><path fill="#CAC7CB" id="fiber tracts" d="M229 285c9.78 0 19.636 2 28 2 5.963 0 9.989-4 15-4l-2.5 2c-12.327 6.164-17.171 2-29.5 2-2.072 0-11 .076-11-2Z"/><path fill="#99D2BD" id="OLF" d="M146 295c0 1.513-5.017 2-6.5 2-8.423 0-14.517 3-22.5 3 0-1.183 3.57-1.535 4.5-2l2.5-3h6c0 1.486 3 1.486 3 0l4-3c0 4.576 5.196 3 9 3ZM151 292c-1.408 0-5 1.197-5 3 1.408 0 5-1.197 5-3Z"/><path fill="#CAC8C7" id="lot" d="M130 295h3c0 1.486-3 1.486-3 0ZM324 295h3c0 1.486-3 1.486-3 0Z"/><path fill="#99D2BD" id="OLF" d="m101 297 1 1-1-1ZM354 298l-1 1 1-1ZM107 299l1 1-1-1ZM350 299l-1 1 1-1ZM111 300h6c0 1.587-6 1.587-6 0Z"/></svg>