<svg xmlns="http://www.w3.org/2000/svg" viewBox="0 0 456 320"><path fill="#99D2BD" id="OLF" d="M173 126c0 4.51-4 6.642-4 11l6.5-6c7.529-3.764 14.569-8.284 22-12 7.569-3.784 21.93 5 23.5 5l3 1c0-2.585-5.842-5.171-7.5-6-10.907-5.454-23.35-4.325-34 1-1.94.97-9.5 2.878-9.5 6ZM285 127c-5.581 0 5 9.015 5 13l-7.5-8-18-11c-3.573-1.786-16.491-4.255-21-2-2.408 1.204-5.765 5-8.5 5h-2c0-2.978 5.798-4.149 7.5-5 11.842-5.921 23.724-3.638 35 2 1.94.97 9.5 2.878 9.5 6Z"/><path fill="#9AD1BD" id="MOB" d="m224 170-1 1c0 18.22-7.222 70.139-35.5 56-9.736-4.868-6.389-19.277-10.5-27.5-4.955-9.91-15-34.875-15-46 0-3.311 4-10.862 4-12.5l1-1v-1l1-1 1-1 6.5-6c7.529-3.764 14.569-8.284 22-12 7.569-3.784 21.93 5 23.5 5 0 2.065 6 8.767 6 13v17c-.981 0-2 7.758-2 9v3l-1 2v2ZM232 168l1 1c0 17.738 7.191 72.155 35.5 58 10.386-5.193 6.515-18.529 10.5-26.5l13-33c1.492-2.984.493-6.985 2-10 2.879-5.758-4-13.748-4-17.5l-7.5-8-18-11c-3.573-1.786-16.491-4.255-21-2-2.408 1.204-5.765 5-8.5 5 0 2.558-2.93 4.36-4 6.5-.567 1.134-.546 6.5-2 6.5v14c1.516 0 2 10.083 2 12v1c1.473 0 1 1.952 1 3v1Z"/><path fill="#C7CBCA" id="onl" d="M224 125c4.259 0 5.287 12 3 12 0-4.233-6-10.935-6-13l3 1ZM235 124c0 2.558-2.93 4.36-4 6.5-.567 1.134-.546 6.5-2 6.5v-9.5l4-3.5h2Z"/><path fill="#99D2BD" id="OLF" d="m172 126-1 1 1-1Z"/><path fill="#C7CBCA" id="onl" d="M295 221c0 3.239-2.681 3.862-4 6.5-7.306 14.611-14.781 9.5-28 9.5-5.03 0-10.872 2.314-15.5 0-6.474-3.237-13.353-15.206-16.5-21.5l-2.5-12.5-.5 2.5c-1.677 3.354-1.361 7.722-3 11-2.416 4.831-9.302 16.901-14.5 19.5-5.669 2.835-10.665 1-17 1-13.206 0-20.954 5.592-28.5-9.5-1.089-2.177-3-2.822-3-5.5 0-8.784.894-12.712-3-20.5-1.003-2.005.056-4.888-1-7l-1-37.5v-4c1.684 0 1-4.679 1-6 1.579 0 1-2.855 1-4v-2l1-2 1-2v-1l1-1 1-1c0-1.782 6.482-7 8-7l1-1h1c0 4.51-4 6.642-4 11l-1 1-1 1v1l-1 1c0 1.638-4 9.189-4 12.5 0 11.125 10.045 36.09 15 46 4.111 8.223.764 22.632 10.5 27.5 28.278 14.139 35.5-37.78 35.5-56l1-1v-2l1-2v-3l2-1 1.5 13 .5-13 2 1v1c0 1.048-.473 3 1 3v1l1 1c0 17.738 7.191 72.155 35.5 58 10.386-5.193 6.515-18.529 10.5-26.5l13-33c1.492-2.984.493-6.985 2-10 2.879-5.758-4-13.748-4-17.5 0-3.985-10.581-13-5-13 2.839 0 10 7.161 10 10l2 3v2c0 1.257.941 8 2 8v40.5c-4.263 8.527-4 21.188-4 30.5Z"/><path fill="#99D2BD" id="OLF" d="m163 134-1 1 1-1ZM162 135l-1 1 1-1ZM161 137l-1 2 1-2ZM169 137l-1 1 1-1ZM295 137c1.577 0 2 1.762 2 3l-2-3ZM168 138l-1 1 1-1ZM160 139l-1 2 1-2ZM167 140l-1 1 1-1ZM297 142c1.931 0 2 6.225 2 8-1.059 0-2-6.743-2-8ZM159 143c-1.579 0-1 2.855-1 4 1.579 0 1-2.855 1-4ZM158 147c-1.684 0-1 4.679-1 6 1.684 0 1-4.679 1-6ZM229 162l2 1c0-1.917-.484-12-2-12v11ZM299 153c1.665 0 1 4.222 1 5.5l2 15c1.835 3.671 8.907 30.187 7 34l-6 6-8 7.5c0-9.312-.263-21.973 4-30.5V153ZM227 162l-2 1c0-1.242 1.019-9 2-9v8ZM157 157c-2.032 0-1.078 12.657-2 14.5-1.497 2.994-.564 7.127-2 10-5.252 10.504-9.697 27.901 3.5 34.5l5.5 6c0-8.784.894-12.712-3-20.5-1.003-2.005.056-4.888-1-7l-1-37.5ZM231 164c1.473 0 1 1.952 1 3-1.473 0-1-1.952-1-3ZM225 166l-1 2 1-2ZM232 168l1 1-1-1ZM224 170l-1 1 1-1Z"/></svg>