<svg xmlns="http://www.w3.org/2000/svg" viewBox="0 0 456 320"><path fill="#1E9C59" id="MOs1" d="m129 146-4 3c-2.155 0-3.233-6.965-4-8.5-2.651-5.302-4.169-20.831.5-25.5 6.307-6.307 8.377-20.189 20-26l28-14c5.328-2.664 12.651-1.326 18-4 4.63-2.315 28.5 6.805 28.5 11v1c-1.622 0-5-.46-5 2h-2c0-4.21-11.051-3.775-13.5-5-8.194-4.097-32.794 3.397-40 7-16.974 8.487-22.843 19.186-30.5 34.5-3.982 7.963 4 17.887 4 24.5ZM327 147l4 2c2.825 0 3.181-5.863 4-7.5 2.159-4.317 4.374-17.251 2-22l-2-4.5c0-5.426-6.677-9.854-9-14.5-7.878-15.756-32.105-20.802-45.5-27.5-3.147-1.574-7.747-.373-11-2-5.005-2.503-29.5 6.445-29.5 12h1c2.25 0 3.376 2 5 2h1c0-2.707 7.748-3.124 9.5-4 11.216-5.608 32.002 0 42 5 16.06 8.03 24.688 17.876 32.5 33.5v17l-4 9.5v1Z"/><path fill="#1E9D58" id="MOs2/3" d="M129 146h1c0-1.296 9.398-8 11-8v-1c0-20.387 12.864-35.182 30.5-44 6.065-3.032 14.003-2.002 20-5l12.5 2c1.654 0 5-3.74 5-5 0-4.21-11.051-3.775-13.5-5-8.194-4.097-32.794 3.397-40 7-16.974 8.487-22.843 19.186-30.5 34.5-3.982 7.963 4 17.887 4 24.5ZM315 138c5.043 0 7.473 8 12 8l4-9.5v-17c-7.812-15.624-16.44-25.47-32.5-33.5-9.998-5-30.784-10.608-42-5-1.752.876-9.5 1.293-9.5 4l5 5h1l11.5-2c4.693 2.347 11.323.661 16 3 20.059 10.03 34.5 22.568 34.5 46v1Z"/><path fill="#3EA665" id="ACAd1" d="M216 83c0 1.186 1 1.186 1 0l-1-1v1Z"/><path fill="#2FA750" id="PL1" d="M223 119h10c0-8.037.66-16.82 4-23.5 1.105-2.21 9-10.32 9-10.5-1.624 0-2.75-2-5-2 0 1.186-1 1.186-1 0-3.452 0-8.731 11.962-10 14.5l-1.5 4.5c-1.487 0-2.093-4.687-2.5-5.5-1.097-2.193-6.595-13.5-9-13.5 0 1.186-1 1.186-1 0-1.622 0-5-.46-5 2 0 2.312 6.569 7.639 8 10.5 3.601 7.203 4 14.739 4 23.5Z"/><path fill="#3EA665" id="ACAd1" d="M240 83h1c0 1.186-1 1.186-1 0Z"/><path fill="#2FA74F" id="PL2/3" d="m218 118 5 1c0-8.761-.399-16.297-4-23.5-1.431-2.861-8-8.188-8-10.5h-2c0 1.26-3.346 5-5 5v1c11.186 0 14 18.939 14 27ZM239 118c-1.564 0-3.876 1-6 1 0-8.037.66-16.82 4-23.5 1.105-2.21 9-10.32 9-10.5h1l5 5-9 7.5c-3.264 6.528-4 12.516-4 20.5Z"/><path fill="#1F9D58" id="MOs5" d="M157 136c0-3.858-13.76 1-16 1 0-20.387 12.864-35.182 30.5-44 6.065-3.032 14.003-2.002 20-5l12.5 2v1c-.47 0-11 10.864-11 12-10.242 0-17.149 1.824-25.5 6-3.795 1.898-12.348 16-4.5 16 0 1.139-5.112 11-6 11ZM299 136c2.493 0 6.164-2 8.5-2l7.5 3c0-23.432-14.441-35.97-34.5-46-4.677-2.339-11.307-.653-16-3L253 90l10 13c13.704 0 18.079 2.789 28.5 8 2.698 1.349 8.848 14 2.5 14l5 11Z"/><path fill="#2EA84F" id="PL5" d="m254 112-15 6c0-7.984.736-13.972 4-20.5l9-7.5h1l10 13c0 2.584-9 4.423-9 9ZM203 113c5.645 0 9.592 5 15 5 0-8.061-2.814-27-14-27-.47 0-11 10.864-11 12 3.421 0 6.915 8 9 8l1 1v1Z"/><path fill="#258F45" id="FRP5" d="M187 114c2.684 0 14-.121 14 3 4.406 0 2 .399 2-4v-1l-1-1c-2.085 0-5.579-8-9-8-10.242 0-17.149 1.824-25.5 6-3.795 1.898-12.348 16-4.5 16 8.398 0 14.844-11 24-11ZM256 116l-1 1c-3.985 0-1-3.223-1-5 0-4.577 9-6.416 9-9 13.704 0 18.079 2.789 28.5 8 2.698 1.349 8.848 14 2.5 14-8.123 0-15.309-11-25-11-4.73 0-9.121 2-13 2Z"/><path fill="#23885E" id="ORBm5" d="m202 111 1 1-1-1Z"/><path fill="#23885E" id="ORBm5" fill-rule="evenodd" d="M252 117c0 1.93 1.93 0 0 0m-13 1c0 5.781-1.733 18 6 18l10-19c-3.985 0-1-3.223-1-5l-15 6Z"/><path fill="#23885E" id="ORBm5" d="M218 118c0 5.621.482 18-7 18l-10-19c4.406 0 2 .399 2-4 5.645 0 9.592 5 15 5Z"/><path fill="#228A5D" id="ORBl5" d="M157 136c0 5.887-3 11.415-3 18l3.5 1c10.365-5.183 12.126-23 25.5-23 0-6.301 4-11.952 4-18-9.156 0-15.602 11-24 11 0 1.139-5.112 11-6 11Z"/><path fill="#23885C" id="ORBvl5" d="M183 132c9.266 0 19.302 4 28 4l-10-19c0-3.121-11.316-3-14-3 0 6.048-4 11.699-4 18ZM273 132c-9.303 0-19.25 4-28 4l10-19 1-1c3.879 0 8.27-2 13-2 0 5.838 4 11.6 4 18Z"/><path fill="#228A5D" id="ORBl5" d="M299 136c0 6.065 4 11.262 4 18-14.961 0-14.588-22-30-22 0-6.4-4-12.162-4-18 9.691 0 16.877 11 25 11l5 11Z"/><path fill="#23885E" id="ORBm5" d="m256 116-1 1 1-1Z"/><path fill="#258F45" id="FRP5" d="M252 117c0 1.93 1.93 0 0 0Z"/><path fill="#24885D" id="ORBm2/3" d="M211 136c0 5.101 6 9.494 6 15 8.862 0 6-25.532 6-32l-5-1c0 5.621.482 18-7 18ZM245 136c0 5.601-6 9.763-6 15-7.966 0-6-25.493-6-32 2.124 0 4.436-1 6-1 0 5.781-1.733 18 6 18Z"/><path fill="#23895D" id="ORBm1" d="m225 163-4 1c0-4.412-4-9.165-4-13 8.862 0 6-25.532 6-32h10c0 6.507-1.966 32 6 32 0 4.412-3 7.289-3 12 0 3.208-4.47-1-5-1l-2-2.5-.5-3.5-3.5 7Z"/><path fill="#238A5E" id="ORBl2/3" d="M153 154h1l3.5 1c10.365-5.183 12.126-23 25.5-23l-1 12c-9.136 0-22.964 27-31 27 0-5.968 2-10.124 2-17Z"/><path fill="#248A5D" id="ORBvl2/3" d="M182 144c13.3 0 23.09 7 35 7 0-5.506-6-9.899-6-15-8.698 0-18.734-4-28-4l-1 12ZM274 143c-12.606 0-22.552 8-35 8 0-5.237 6-9.399 6-15 8.75 0 18.697-4 28-4 0 1.748 2.169 11 1 11Z"/><path fill="#238A5E" id="ORBl2/3" d="M303 154c0 5.858 2 10.73 2 17-7.867 0-21.873-27-31-27v-1c1.169 0-1-9.252-1-11 15.412 0 15.039 22 30 22Z"/><path fill="#209665" id="AId5" d="M153 154h1c0-6.585 3-12.113 3-18 0-3.858-13.76 1-16 1v1c0 3.732 7.527 16 12 16ZM315 138c0 4.189-6.918 16-12 16 0-6.738-4-11.935-4-18 2.493 0 6.164-2 8.5-2l7.5 3v1Z"/><path fill="#209765" id="AId2/3" d="m151 171-2 1c-5.801 0-19-20.88-19-26 0-1.296 9.398-8 11-8 0 3.732 7.527 16 12 16 0 6.876-2 11.032-2 17ZM306 171l1 1c7.16 0 13.239-11.979 16-17.5l4-7.5v-1c-4.527 0-6.957-8-12-8 0 4.189-6.918 16-12 16 0 5.858 2 10.73 2 17h1Z"/><path fill="#248A5B" id="ORBvl1" d="m218 163 3 1c0-4.412-4-9.165-4-13-11.91 0-21.7-7-35-7l1 10c4.875 0 13.229 1.864 17.5 4 1.114.557 5.5.41 5.5 2l12 3ZM236 163h3l4-1 1-1h3l1-1h2c0-1.454 5.366-1.433 6.5-2 4.351-2.175 12.507-4 17.5-4v-11c-12.606 0-22.552 8-35 8 0 4.412-3 7.289-3 12Z"/><path fill="#238A5D" id="ORBl1" d="M151 178h2l6.5-7c6.03-3.015 16.774-17 23.5-17l-1-10c-9.136 0-22.964 27-31 27v7ZM303 178h2v-7c-7.867 0-21.873-27-31-27v10c2.627 0 29 21.388 29 24Z"/><path fill="#209764" id="AId1" d="M149 172c0 3.11-5 3.662-5 6-1.909 0-19-26.561-19-29l4-3h1c0 5.12 13.199 26 19 26ZM307 172l5 6c2.425 0 19-26.266 19-29l-4-2-4 7.5c-2.761 5.521-8.84 17.5-16 17.5Z"/><path fill="#99D2BD" id="OLF" d="M155 190c0 4.846 2 8.793 2 13l-3-3.5c-5.063-10.126-1-11.616-1-21.5l6.5-7c6.03-3.015 16.774-17 23.5-17 4.875 0 13.229 1.864 17.5 4 1.114.557 5.5.41 5.5 2-4.059 0-5-.348-5 3-3.914 0-6.314-.407-9.5-2-3.184-1.592-8.819 1-11.5 1l-1 1h-2l-4 2c-1.238 0-3 .423-3 2-1.238 0-3 .423-3 2-1.429 0-4 1.288-4 3l-1 1-1 1c-1.811 0-4 3.438-4 5-2.109 0-2 2.535-2 4v7ZM301 183c1.643 0 1 3.765 1 5 0 5.402-2 9.922-2 15l2-2.5c7.312-7.312 1-14.355 1-22.5 0-2.612-26.373-24-29-24-4.993 0-13.149 1.825-17.5 4-1.134.567-6.5.546-6.5 2 4.15 0 6-.119 6 3 3.534 0 5.628-.564 8.5-2 3.184-1.592 8.819 1 11.5 1l2 1h1c6.439 0 22 11.655 22 19v1Z"/><path fill="#9AD1BD" id="MOB" d="m213 248-2 1c-4.569 0-8.923-1-13-1l-1-1h-2l-2-4c0-5.971 6-17.144 6-26v-7l1-5 5-16.5c1.271-2.542-1.014-21.027-2-23l-2-2.5c0-3.348.941-3 5-3l12 3 5 4.5 3 5.5v1c0 1.235-.643 5 1 5 0 15.888-1 32.793-1 48l-1 1v4l-1 2-1 1v2l-1 1-1 1v1l-1 1-1 1v1l-1 1-1 1-1 1-1 1h-1l-1 1Z"/><path fill="#99D2BD" id="OLF" d="m248 160-1 1 1-1Z"/><path fill="#9AD1BD" id="MOB" d="M245 249h10l1-1h2l1-1h2l2-1v-3c0-8.052-6-16.67-6-25 0-1.048-.473-3 1-3v-4c-.682 0-2-6.241-2-7 0-10.056-8.859-19.782-3-31.5 1.151-2.303-1.963-9.5 3-9.5 0-3.119-1.85-3-6-3h-2l-1 1h-3l-1 1-4 1-5.5 4-2.5 4v1c0 1.145.579 4-1 4v5c0 1.406.714 7-1 7v34.5c1.112 2.225 2 4.846 2 7.5l1 1v2l1 1v2l1 1 1 1 4 6 1 1 1 1 1 1 3 2Z"/><path fill="#54BF94" id="AON" d="M183 237c2.114 0 6.633 6 10 6 0-5.971 6-17.144 6-26h-1c-3.662 0-10.916-17.332-13-21.5l-4-7c3.386-6.772 13 5.483 13 11.5l1 1v1l5 3 5-16.5c1.271-2.542-1.014-21.027-2-23l-2-2.5c-3.914 0-6.314-.407-9.5-2-3.184-1.592-8.819 1-11.5 1l-1 1h-2c0 2.109-2.535 2-4 2 0 1.577-1.762 2-3 2 0 1.577-1.762 2-3 2 0 1.712-2.571 3-4 3l-1 1-1 1c0 1.562-2.189 5-4 5l-2 4v7l11 22.5c2.454 4.907 17 20.91 17 24.5Z"/><path fill="#99D2BD" id="OLF" d="m244 161-1 1 1-1Z"/><path fill="#54BF94" id="AON" d="m273 238-10 5c0-8.052-6-16.67-6-25l1-1c4.774 0 11.01-17.521 13-21.5.876-1.752 5.174-4.652 4-7-3.713-7.426-13 6.813-13 12.5l-1 1v1c-2.364 0-3.053 1-5 1 0-10.056-8.859-19.782-3-31.5 1.151-2.303-1.963-9.5 3-9.5 3.534 0 5.628-.564 8.5-2 3.184-1.592 8.819 1 11.5 1l2 1h1l11.5 7 10.5 12v1c0 16.362-11.233 27.965-18 41.5-2.385 4.769-10 7.806-10 13.5Z"/><path fill="#CACAC9" id="lotd" d="m180 162-1 1 1-1Z"/><path fill="#99D2BD" id="OLF" d="m239 163-5.5 4-2.5 4v-9c.53 0 5 4.208 5 1h3Z"/><path fill="#CACAC9" id="lotd" d="m276 162 2 1-2-1ZM177 163l-4 2c1.465 0 4 .109 4-2Z"/><path fill="#99D2BD" id="OLF" d="m225 163-4 1-3-1 5 4.5 3 5.5-1-10Z"/><path fill="#CACAC9" id="lotd" d="M279 163c6.439 0 22 11.655 22 19l-10.5-12-11.5-7ZM173 165c-1.238 0-3 .423-3 2 1.238 0 3-.423 3-2ZM170 167c-1.238 0-3 .423-3 2 1.238 0 3-.423 3-2ZM167 169c-1.429 0-4 1.288-4 3 1.429 0 4-1.288 4-3Z"/><path fill="#219764" id="AIv2/3" d="M149 172h2v-1l-2 1Z"/><path fill="#209864" id="AIv1" d="M305 178c.969 0 7 2.614 7 0l-5-6-1-1h-1v7Z"/><path fill="#219764" id="AIv2/3" d="m306 171 1 1-1-1Z"/><path fill="#209864" id="AIv1" d="M144 178h7v-6h-2c0 3.11-5 3.662-5 6Z"/><path fill="#CACAC9" id="lotd" d="m163 172-1 1 1-1Z"/><path fill="#99D2BD" id="OLF" d="M231 172c-1.579 0-1 2.855-1 4 1.579 0 1-2.855 1-4Z"/><path fill="#CACAC9" id="lotd" d="m162 173-1 1 1-1ZM161 174c-1.811 0-4 3.438-4 5 1.811 0 4-3.438 4-5Z"/><path fill="#99D2BD" id="OLF" d="M226 174c1.643 0 1 3.765 1 5-1.643 0-1-3.765-1-5Z"/><path fill="#CACAC9" id="lotd" d="M157 179c-2.109 0-2 2.535-2 4l2-4Z"/><path fill="#99D2BD" id="OLF" d="M230 181c-1.714 0-1 5.594-1 7 1.714 0 1-5.594 1-7Z"/><path fill="#CAC8C7" id="lot" d="m273 238 1 1c8.143 0 25-27.353 25-35l1-1c0-5.078 2-9.598 2-15 0-1.235.643-5-1-5 0 16.362-11.233 27.965-18 41.5-2.385 4.769-10 7.806-10 13.5Z"/><path fill="#CBCBC7" id="aco" d="M199 213c-1.579 0-1 2.855-1 4-3.662 0-10.916-17.332-13-21.5l-4-7c3.386-6.772 13 5.483 13 11.5l1 1v1l4 8v3ZM258 215v2c4.774 0 11.01-17.521 13-21.5.876-1.752 5.174-4.652 4-7-3.713-7.426-13 6.813-13 12.5l-1 1v1l-3 8v4Z"/><path fill="#CAC8C7" id="lot" d="M183 237v2c-9.188 0-26-27.365-26-36 0-4.207-2-8.154-2-13l11 22.5c2.454 4.907 17 20.91 17 24.5Z"/><path fill="#99D2BD" id="OLF" d="m194 200 1 1-1-1ZM262 201l-1 1 1-1ZM200 205l-1 5-4-8 5 3ZM256 204c0 .759 1.318 7 2 7l3-8c-2.364 0-3.053 1-5 1ZM300 203l-1 1 1-1ZM198 217h1v-4c-1.579 0-1 2.855-1 4ZM258 217l-1 1c0-1.048-.473-3 1-3v2Z"/><path fill="#C7CBCA" id="onl" d="M225 228h1v-1l-1 1Z"/><path fill="#99D2BD" id="OLF" d="m226 228-1 1v-1h1Z"/><path fill="#C7CBCA" id="onl" d="M231 231h1l-1-1v1Z"/><path fill="#99D2BD" id="OLF" d="M232 231v1l-1-1h1Z"/><path fill="#C7CBCA" id="onl" d="m225 232-1 2 1-2ZM232 233l1 1-1-1Z"/><path fill="#99D2BD" id="OLF" d="m224 234-1 1 1-1ZM233 236l1 1-1-1ZM193 243l2 4c-2.375 0-12-5.689-12-8v-2c2.114 0 6.633 6 10 6ZM223 237l-1 1 1-1Z"/><path fill="#C7CBCA" id="onl" d="M234 238h1l-1-1v1Z"/><path fill="#99D2BD" id="OLF" d="m222 238-1 1 1-1ZM235 238l4 6c-1.726 0-5-4.558-5-6h1ZM263 243v3c4.395 0 7.388-7 11-7l-1-1-10 5ZM221 240l-1 1 1-1ZM220 241l-1 1 1-1ZM219 243l-1 1 1-1ZM218 244l-1 1 1-1ZM217 245l-1 1 1-1ZM240 245l1 1-1-1ZM216 246l-1 1 1-1ZM263 246l-2 1 2-1ZM197 247l1 1-1-1ZM214 247l-1 1 1-1ZM242 247l3 2c-1.238 0-3-.423-3-2ZM259 247l-1 1 1-1ZM213 248l-2 1 2-1ZM256 248l-1 1 1-1Z"/></svg>