<svg xmlns="http://www.w3.org/2000/svg" viewBox="0 0 456 320"><path fill="#1E9D5A" id="MOp1" d="m198 29-28 3 1-7 27-1v5Z"/><path fill="#1E9C59" id="MOs1" d="m227 40-4 2-8.5-9c-5.651-2.825-9.542-4-16.5-4v-5c10.949 0 17.649 4.149 25 11.5l4 4.5ZM230 40l4 2c0-2.224 2.386-2.272 3-3.5 3.876-7.751 12.825-9.5 21-9.5v-5c-9.301 0-20.424 3.347-25 12.5-.614 1.228-3 1.276-3 3.5Z"/><path fill="#1E9D5A" id="MOp1" d="M286 32h1l-2-7-27-1v5h1l27 3Z"/><path fill="#187F60" id="SSp-ll1" d="m135 35 2 5c9.341 0 21.117-8 33-8l1-7c-3.826 0-23.179 4.34-26.5 6l-9.5 4ZM322 35l-3 5c-6.643 0-21.405-8-32-8l-2-7c10.643 0 29.49 10 37 10Z"/><path fill="#1F9C58" id="MOp2/3" d="M166 47v5c7.676 0 18.026-12 29-12l1-1 2-10-28 3c0 4.803-3 8.975-3 14l-1 1Z"/><path fill="#1E9D58" id="MOs2/3" d="M216 47h1c0-2.178 4.336-4 6-4v-1l-8.5-9c-5.651-2.825-9.542-4-16.5-4l-2 10c5.838 0 20-.573 20 8ZM234 43l6 3c1.177 0 5.708-5.104 7.5-6 3.566-1.783 9.243-1 13.5-1 0-3.255-2-6.059-2-10h-1c-8.175 0-17.124 1.749-21 9.5-.614 1.228-3 1.276-3 3.5v1Z"/><path fill="#1F9C58" id="MOp2/3" d="M289 46c0 1.564 1 3.876 1 6-6.945 0-18.189-12-29-12v-1c0-3.255-2-6.059-2-10l27 3c0 4.692 3 8.56 3 14Z"/><path fill="#187F64" id="SSp-ll2/3" d="M166 47c-7.51 0-13.844 5-21 5-2.924 0-4.968-11-8-11v-1c9.341 0 21.117-8 33-8 0 4.803-3 8.975-3 14l-1 1ZM289 46l23 6c0-3.63 7-7.682 7-12-6.643 0-21.405-8-32-8h-1c0 4.692 3 8.56 3 14Z"/><path fill="#197E64" id="SSp-ul1" d="M109 47c0 1.424.362 5 2 5 9.225 0 16.388-11 26-11v-1l-2-5c-7.913 0-19.039 12-26 12ZM347 47l-1 6-27-13 3-5c5.948 0 20.43 12 25 12Z"/><path fill="#1F9D58" id="MOs5" d="m191 55 9.5-1 4.5 2 11-9c0-8.573-14.162-8-20-8l-1 1c0 5.361-4 9.48-4 15ZM251 57h1c0-6.25 11.399-1 14-1l-5-16v-1c-4.257 0-9.934-.783-13.5 1-1.792.896-6.323 6-7.5 6v1c1.593 0 11 7.544 11 10Z"/><path fill="#1E9C5A" id="MOp5" d="m190 56-26 13c0-5.908 2-10.418 2-16v-1c7.676 0 18.026-12 29-12 0 5.361-4 9.48-4 15l-1 1Z"/><path fill="#3EA665" id="ACAd1" d="M233 65c-3.325 0-7.31 1-10 1V42l4-2c0 3.803 2.524 0 3 0l4 2v1c0 6.758-1 14.627-1 22Z"/><path fill="#1E9C5A" id="MOp5" d="m266 56 26 13-1-16-1-1c-6.945 0-18.189-12-29-12l5 16Z"/><path fill="#197F61" id="SSp-ul2/3" d="M346 53c0 4.27-5 9.12-5 13-5.685 0-20.895-13-29-13v-1c0-3.63 7-7.682 7-12l27 13ZM145 53c-9.243 0-23.307 13-30 13 0-4.046-4-8.434-4-13v-1c9.225 0 16.388-11 26-11 3.032 0 5.076 11 8 11v1Z"/><path fill="#40A565" id="ACAd2/3" d="m223 66-5 1-1-20c0-2.178 4.336-4 6-4v23ZM233 66l6 1c0-6.573 1-14.1 1-20v-1l-6-3c0 6.758-1 14.627-1 22v1Z"/><path fill="#1C7F64" id="SSp-ll4" d="m167 46-1 1 1-1ZM308 60h1c0-1.176 2.114-7 3-7v-1l-23-6c0 1.564 1 3.876 1 6l1 1c4.299 0 8.834 3.167 12.5 5 .93.465 4.5.817 4.5 2Z"/><path fill="#1B8062" id="SSp-un1" d="M92 64h1l4.5-3c3.823-1.912 9.181-8 13.5-8v-1c-1.638 0-2-3.576-2-5L89 59c0 1.947 3 2.636 3 5Z"/><path fill="#1C7F64" id="SSp-ll4" d="M147 60h1c0-1.952 2.454-.477 3.5-1 4.436-2.218 9.252-6 14.5-6v-6c-7.51 0-13.844 5-21 5v1l2 7Z"/><path fill="#3EA566" id="ACAd5" d="M218 67c-3.985 0-7.49 6-11 6 0-2.1-.576-15-2-15v-2l11-9h1l1 20ZM239 67l10 5c.805 0 2-13.533 2-15 0-2.456-9.407-10-11-10 0 5.9-1 13.427-1 20Z"/><path fill="#1B8062" id="SSp-un1" d="M363 64h1c0-3.087 3-2.265 3-5-4.416 0-14.63-12-20-12l-1 6c4.278 0 8.765 6.132 12.5 8l4.5 3Z"/><path fill="#1C7F63" id="SSp-un2/3" d="M115 67c-5.274 0-8.797 6-14 6-.76 0-8-7.046-8-9l4.5-3c3.823-1.912 9.181-8 13.5-8 0 4.566 4 8.954 4 13v1Z"/><path fill="#1A7F63" id="SSp-ul4" d="M115 67c.886 0 3 5.824 3 7l29-14-2-7c-9.243 0-23.307 13-30 13v1Z"/><path fill="#197C63" id="SSp-ll5" d="m164 69-11 4c0-5.154-5-8.79-5-13 0-1.952 2.454-.477 3.5-1 4.436-2.218 9.252-6 14.5-6 0 5.582-2 10.092-2 16ZM293 69c3.541 0 6.145 3 10 3 1.027 0 5-10.602 5-12 0-1.183-3.57-1.535-4.5-2-3.666-1.833-8.201-5-12.5-5l1 16h1Z"/><path fill="#1A7F63" id="SSp-ul4" d="M338 74h1l2-8c-5.685 0-20.895-13-29-13-.886 0-3 5.824-3 7 7.104 0 22.887 14 29 14Z"/><path fill="#1C7F63" id="SSp-un2/3" d="M355 73h1c0-3.398 7-5.13 7-9l-4.5-3c-3.735-1.868-8.222-8-12.5-8 0 4.27-5 9.12-5 13l14 7Z"/><path fill="#1D9C5A" id="MOs6a" d="M187 78h1c1.564 0 3.876-1 6-1 0-3.394 8.319-19 11-19v-2l-4.5-2-9.5 1-1 1c0 7.373-3 13.96-3 22ZM263 77c2.124 0 4.436 1 6 1V65.5l-3-9.5c-2.601 0-14-5.25-14 1 0 3.866 10 12.133 10 20h1Z"/><path fill="#1F9D58" id="MOs5" d="m191 55-1 1 1-1Z"/><path fill="#1F9B5A" id="MOp6a" d="M170 85c-2.833 0-4.84 2-7 2 0-6.056 1-11.778 1-18l26-13c0 7.373-3 13.96-3 22l-1 1c-1.622 0-5-.46-5 2-1.896 0-11 2.08-11 4ZM269 78l24 9V69h-1l-26-13 3 9.5V78Z"/><path fill="#3FA664" id="ACAd6a" d="M258 80h1l1-1 1-1 1-1c0-7.867-10-16.134-10-20h-1c0 1.467-1.195 15-2 15v1c3.972 0 4.78 7 9 7ZM198 81h1c0-1.159 6.162-8 8-8 0-2.1-.576-15-2-15-2.681 0-11 15.606-11 19 2.226 0 4 1.774 4 4Z"/><path fill="#197E63" id="SSp-n1" d="M54 113h1c0-10.536 14.022-28.522 21.5-36L92 64c0-2.364-3-3.053-3-5l-9.5 8C70.384 71.558 49 100.981 49 110c1.408 0 5 1.197 5 3ZM402 113h1c0-2.098 1.939-3 4-3 0-9.796-20.655-37.577-27.5-41-3.859-1.93-8.121-10-12.5-10 0 2.735-3 1.913-3 5l8.5 7c9.672 4.836 29.5 32.367 29.5 42Z"/><path fill="#187E62" id="SSp-ul5" d="M122 86h1c0-2.02 4.938-2.438 6-3.5 2.511-2.511 20.391-9.5 24-9.5 0-5.154-5-8.79-5-13h-1l-29 14 4 12ZM338 74c0 4.488-4 7.967-4 12-3.978 0-23.07-13-31-13v-1c1.027 0 5-10.602 5-12h1c7.104 0 22.887 14 29 14Z"/><path fill="#1B7F64" id="SSp-n2/3" d="M55 113c2.328 0 4.581 5 8 5 0-11.365 24.512-44 38-44v-1c-.76 0-8-7.046-8-9h-1L76.5 77C69.022 84.478 55 102.464 55 113ZM393 118h1c0-.692 7.032-5 8-5 0-9.633-19.828-37.164-29.5-42l-8.5-7h-1c0 3.87-7 5.602-7 9 0 1.845 3.381 1.44 4.5 2l12 8c5.928 2.964 20.5 28.873 20.5 35Z"/><path fill="#40A664" id="ACAv1" d="m229 90 5 6c0-9.624-1-19.833-1-30v-1c-3.325 0-7.31 1-10 1 0 10.355-1 21.268-1 31l5-7c0-4.252 2-4.466 2 0Z"/><path fill="#3FA566" id="ACAv2/3" d="M222 97c-1.481 0-.785 2-3 2 0-9.866-1-21.451-1-32l5-1c0 10.355-1 21.268-1 31ZM234 97l4 2 1-32-6-1c0 10.167 1 20.376 1 30v1Z"/><path fill="#197E61" id="SSp-un4" d="M349 81h2c0-3.752 4-4.619 4-8l-14-7-2 8c0 2.647 10 3.43 10 7ZM106 81h1c0-1.945 9.233-7 11-7 0-1.176-2.114-7-3-7-5.274 0-8.797 6-14 6v1c0 1.647 5 3.92 5 7Z"/><path fill="#3EA666" id="ACAv5" d="M210 97c3.071 0 5.362 2 9 2 0-9.866-1-21.451-1-32-3.985 0-7.49 6-11 6 0 8.332 3 15.455 3 23v1ZM246 97c-2.338 0-4.862 2-8 2l1-32 10 5v1c0 9.174-3 17.173-3 24Z"/><path fill="#1A7F64" id="SSp-ll6a" d="M158 89h1l4-2c0-6.056 1-11.778 1-18l-11 4 5 16ZM298 89h1l4-16v-1c-3.855 0-6.459-3-10-3v18l5 2Z"/><path fill="#197D61" id="SSp-ul6a" d="M128 101h1c5.191 0 13.837-5.668 18.5-8h4l6.5-4-5-16c-3.609 0-21.489 6.989-24 9.5-1.062 1.062-6 1.48-6 3.5 0 5.484 5 9.642 5 15Z"/><path fill="#40A564" id="ACAv6a" d="m208 95 2 1c0-7.545-3-14.668-3-23-1.838 0-8 6.841-8 8 0 4.785 9 10.927 9 14ZM246 97h1l2-2c0-2.979 5.619-8.738 7-11.5l2-2.5v-1c-4.22 0-5.028-7-9-7 0 9.174-3 17.173-3 24Z"/><path fill="#197D61" id="SSp-ul6a" d="m299 89 5.5 4h4c5.207 2.603 13.561 8 19.5 8l6-15c-3.978 0-23.07-13-31-13l-4 16Z"/><path fill="#1A8062" id="SSp-n4" d="M387 123h1l5-5c0-6.127-14.572-32.036-20.5-35l-12-8c-1.119-.56-4.5-.155-4.5-2h-1c0 3.381-4 4.248-4 8 0 1.786 10.27 6.77 12 8.5 7.327 7.327 24 23.693 24 33.5ZM63 119l6 3c0-6.4 21.029-30.764 25.5-33l11.5-8c0-3.08-5-5.353-5-7-13.488 0-38 32.635-38 44v1Z"/><path fill="#197D62" id="SSp-un5" d="M112 91h1l9-5-4-12c-1.767 0-11 5.055-11 7l5 10ZM334 86l10 5 5-10c0-3.57-10-4.353-10-7h-1c0 4.488-4 7.967-4 12Z"/><path fill="#1E9C58" id="MOs6b" d="m194 78-6 1v-1c1.564 0 3.876-1 6-1v1Z"/><path fill="#3FA466" id="ACAd6b" d="m194 78 4 3c0-2.226-1.774-4-4-4v1ZM261 78h2v-1h-1l-1 1Z"/><path fill="#1E9C58" id="MOs6b" d="M269 78v1l-6-1v-1c2.124 0 4.436 1 6 1Z"/><path fill="#1D9D5A" id="MOp6b" d="M186 79h2v-1h-1l-1 1Z"/><path fill="#CACCC7" id="cing" d="M210 96v1c-8.761 0-14.207-10.353-21.5-14-2.671-1.335-16.009 6-19.5 6h-6v-1c1.345 0 7-1.57 7-3 2.091 0 11-1.912 11-4 1.424 0 5-.362 5-2h2l6-1 4 3c0 3.522 5.992 14 10 14l2 1Z"/><path fill="#3FA466" id="ACAd6b" d="m261 78-1 1 1-1Z"/><path fill="#CACCC7" id="cing" d="m249 95-2 2c8.558 0 14.604-10.552 21.5-14 2.539-1.27 15.197 6 18.5 6h6v-1c-8.168 0-16.093-9-24-9l-6-1h-2l-1 1-1 1v1c0 2.496-6.736 14-10 14Z"/><path fill="#1D9D5A" id="MOp6b" d="M293 87v1c-8.168 0-16.093-9-24-9v-1l24 9ZM186 79c-1.622 0-5-.46-5 2 1.424 0 5-.362 5-2Z"/><path fill="#3FA466" id="ACAd6b" d="m260 79-1 1 1-1ZM258 81h1v-1h-1v1Z"/><path fill="#197E62" id="SSp-n5" d="M77 130h1c0-4.235 3.232-6.964 5-10.5 5.373-10.746 9.643-17.071 20.5-22.5l8.5-6-5-10h-1l-11.5 8C90.029 91.236 69 115.6 69 122v1c0 2.298 8 3.576 8 7Z"/><path fill="#1D9D5A" id="MOp6b" d="M181 81c-1.896 0-11 2.08-11 4 2.091 0 11-1.912 11-4Z"/><path fill="#40A465" id="ACAv6b" d="M199 81c0 4.785 9 10.927 9 14-4.008 0-10-10.478-10-14h1ZM259 81c0 2.496-6.736 14-10 14 0-2.979 5.619-8.738 7-11.5l2-2.5h1Z"/><path fill="#197E62" id="SSp-n5" d="M387 123c0 1.038-6.488 6-8 6-1.943 0-5.096-10.692-6-12.5-3.155-6.311-22.948-25.5-29-25.5l5-10h2c0 1.786 10.27 6.77 12 8.5 7.327 7.327 24 23.693 24 33.5Z"/><path fill="#C9C7C9" id="ccb" d="m369 155 2 8c-1.728 0-3.305-7.11-4-8.5-3.992-7.983-9.983-14.967-14-23l-9-9c-17.725-17.725-27.598-19.5-51-19.5 0-7.043-11.905-10-17.5-10-1.955 0-8.5-.577-8.5 2h-1l-2 1-1 1-3 1-1 1h-1l-1 1-2 1-1 1-1 1c-5.951 0-10.518 3-16 3h-17c-5.937 0-10.532-3-17-3 0-1.617-4.583-4-6-4l-2-2h-1l-3-2h-2c0-2.488-6.101-2-8-2-4.927 0-18 3.393-18 10-24.977 0-22.184 1.342-43.5 12l-14 14c-3.489 1.745-12.529 18.558-14.5 22.5l-4 7.5 1-5 1-1v-2l1-2 1-2v-1c1.577 0 2-1.762 2-3v-1c1.577 0 2-1.762 2-3l2-4c1.577 0 2-1.762 2-3 1.514 0 5-5.537 5-7l1-1 1-1 8-7.5c5.506-5.506 11.992-9.246 18.5-12.5 9.045-4.522 19.827-5.413 29-10l7.5-4c3.491 0 16.829-7.335 19.5-6 7.293 3.647 12.739 14 21.5 14 3.071 0 5.362 2 9 2 2.215 0 1.519-2 3-2 0 4.998 5.833 0 6.5 0l1 2c1.43.715 4.5-.29 4.5-2l4 2c3.138 0 5.662-2 8-2h1c8.558 0 14.604-10.552 21.5-14 2.539-1.27 15.197 6 18.5 6 0 2.253 8.73 4.115 10.5 5 10.887 5.444 23.08 7.54 34 13 11.434 5.717 15.828 14.828 24.5 23.5 1.772 1.772 4.538 10.5 7 10.5v1c0 1.238.423 3 2 3v1l2 4v2l1 1v1l1 1Z"/><path fill="#1D9D5A" id="MOp6b" d="M163 87v1c1.345 0 7-1.57 7-3-2.833 0-4.84 2-7 2Z"/><path fill="#1A7F61" id="SSp-un6a" d="M121 105h2l5-4c0-5.358-5-9.516-5-15h-1l-9 5c0 2.293 7.531 14 8 14ZM335 106h1l8-15-10-5-6 15 7 5Z"/><path fill="#197F62" id="SSp-ll6b" d="m163 89-4 1v-1l4-2v2ZM298 89v1l-5-1v-2l5 2Z"/><path fill="#1C8064" id="SSp-ul6b" d="M129 101v1c1.944 0 21.06-6.78 23.5-8l6.5-4v-1h-1l-6.5 4h-4c-4.663 2.332-13.309 8-18.5 8Z"/><path fill="#C9C9CA" id="scwm" d="M121 107c0 1.967-15 11.467-15 16l8-7.5c5.506-5.506 11.992-9.246 18.5-12.5 9.045-4.522 19.827-5.413 29-10l7.5-4h-6l-4 1-6.5 4c-2.44 1.22-21.556 8-23.5 8 0 1.662-4.357 3-6 3 0 1.747-.253 2-2 2ZM357 129l6 12c-2.462 0-5.228-8.728-7-10.5-8.672-8.672-13.066-17.783-24.5-23.5-10.92-5.46-23.113-7.556-34-13-1.77-.885-10.5-2.747-10.5-5h6l5 1 6 3.5 23 8.5 8 5c4.117 0 19.634 22 22 22Z"/><path fill="#1C8064" id="SSp-ul6b" d="m328 101-1 1-23-8.5-6-3.5v-1h1l5.5 4h4c5.207 2.603 13.561 8 19.5 8Z"/><path fill="#7ED04B" id="IG" d="M222 97c0 4.998 5.833 0 6.5 0l1 2c1.43.715 4.5-.29 4.5-2v-1l-5-6c0 1.93-1.161 0-2 0l-5 7Z"/><path fill="#187D62" id="SSp-n6a" d="M97 130h1c0-2.311 20.389-24 23-24v-1c-.469 0-8-11.707-8-14h-1l-8.5 6c-10.857 5.429-15.127 11.754-20.5 22.5-1.768 3.536-5 6.265-5 10.5 0 1.803 3.592 3 5 3 5.19 0 8.821-3 14-3ZM373 133l-1 1c-.485 0-6.647-3-12-3l-1-1-1-1c0-1.365-20.697-23-22-23l8-15c6.052 0 25.845 19.189 29 25.5.904 1.808 4.057 12.5 6 12.5v1c-2.079 0-3.187 3-6 3Z"/><path fill="#AAA8A9" id="SEZ" d="m163 103 4 2c0-12 12.561-10 22-10 0-2.488-6.101-2-8-2-4.927 0-18 3.393-18 10ZM293 103l-3 1c0-11.01-16.114-9-23-9 0-2.577 6.545-2 8.5-2 5.595 0 17.5 2.957 17.5 10Z"/><path fill="#A8AAAA" id="VL" fill-rule="evenodd" d="M191 117c0 1.021-17.44 17.03-7.5 22l5.5-4.5c1.638-3.277 8.72-17.5 2-17.5m-2 53 4 1v-14c-13.339 0-2.99-23 0-23l1-6c0-8.884 9-16.381 9-25 0-1.617-4.583-4-6-4l-2-2h-1c-1.238 0-3-.423-3-2h-2c-9.439 0-22-2-22 10 1.761 0 3.325 6.15 4 7.5 1.648 3.295 4.391 5.782 6 9 3.942 7.884 2 19.098 2 27.5 0 3.695 2 6.865 2 11l2 3c0 3.413 6 3.638 6 7ZM263 117c0 2.852 4.021 25.24 10.5 22 6.396-3.198-3.692-22-10.5-22m4 53-3 1v-14c14.736 0 0-20.035 0-23 0-.706-1.325-6-2-6 0-9.017-9-17.373-9-25l1-1 1-1 2-1 1-1h1l1-1 3-1 1-1 2-1h1c6.886 0 23-2.01 23 9l-1 1-10 16.5c-3.46 6.919-2 18.238-2 26.5l-1 9c-.913 0-2 5.014-2 6l-1 1-5 5-1 1Z"/><path fill="#AAA8A9" id="SEZ" d="m191 95 3 2c-1.238 0-3-.423-3-2ZM266 95l-2 1 2-1ZM264 96l-1 1 1-1ZM195 97l2 2-2-2ZM260 98l-1 1 1-1ZM258 99l-1 1 1-1Z"/><path fill="#1A7D63" id="SSp-un6b" d="M129 102c0 1.662-4.357 3-6 3l5-4h1v1Z"/><path fill="#AAA8A9" id="SEZ" d="m255 101-1 1 1-1Z"/><path fill="#1A7D63" id="SSp-un6b" d="M335 106v1l-8-5 1-1 7 5Z"/><path fill="#98D5F9" id="CP" d="M150 215c-2.849 0-14.611 12.055-18.5 14-4.397 2.198-9.634 2.817-14 5-1.147.574-4.5-1.064-4.5 1-5.444 0-13.506-7.512-16-12.5l-4-7.5v-1c0-1.238-.423-3-2-3v-1c0-1.761-2.307-10-4-10v-1l-2-4v-1c0-1.041-.986-5-2-5v-20l1-1v-1l1-2v-1l1-2c1.473 0 1-1.952 1-3l4-7.5c1.971-3.942 11.011-20.755 14.5-22.5l14-14c21.316-10.658 18.523-12 43.5-12l4 2c1.761 0 3.325 6.15 4 7.5 1.648 3.295 4.391 5.782 6 9 3.942 7.884 2 19.098 2 27.5l-2.5 4c-3.619 1.809-6.066 2-10.5 2-1.896 0-4 2.077-4 4-.805 0-2 13.533-2 15l-3 4-1 1-1 1v1c-2.388 0-2 5.661-2 7.5l-2 22.5v2l-1 1v1Z"/><path fill="#AAA8A9" id="SEZ" d="m254 102-1 1 1-1Z"/><path fill="#98D5F9" id="CP" d="M358 225c-2.837 0-9.025 10-15 10 0-1.921-8.021-1.26-9.5-2l-10-5c-3.94-1.97-15.74-14-17.5-14v-1l-1-1v-2c0-7.14.993-16.515-2-22.5-.822-1.644 1.038-7.5-2-7.5v-1l-2-2-2-3c0-1.12-1.289-12-2-12v-2l-1-2c0-1.577-1.762-2-3-2 0-2.308-7.013-.257-8.5-1l-5.5-7c0-8.262-1.46-19.581 2-26.5l10-16.5 1-1 3-1c23.402 0 33.275 1.775 51 19.5l9 9c4.017 8.033 10.008 15.017 14 23 .695 1.39 2.272 8.5 4 8.5v1l2 4 1 8v7c-1.684 0-1 4.679-1 6v2l-1 2-1 2v1l-1 2-1 2v1l-1 2c-1.473 0-1 1.952-1 3v1l-1 2-1 1v1l-1 2-1 2v1l-1 2-1 1v1c-1.577 0-2 1.762-2 3l-1 2Z"/><path fill="#90CBEC" id="LSc" d="M207 129c-3.489 0-5.32 2-9 2-3.236 0-2.46-3-4-3 0-8.884 9-16.381 9-25 6.468 0 11.063 3 17 3l2 2 1 4-16 17ZM249 129c3.489 0 5.32 2 9 2 2.043 0 4-.591 4-3 0-9.017-9-17.373-9-25-5.951 0-10.518 3-16 3l-3 2-1 1 1 3 15 17Z"/><path fill="#AAA8A9" id="SEZ" d="m290 104-1 1 1-1Z"/><path fill="#1A7D63" id="SSp-un6b" d="M121 106v1c1.747 0 2-.253 2-2h-2v1Z"/><path fill="#CBC8CC" id="df" d="M226 110h5l2-1 1-1 3-2h-17l2 2 4 2Z"/><path fill="#1B7E64" id="SSp-n6b" d="M98 130h1l5-5 1-1 1-1c0-4.533 15-14.033 15-16v-1c-2.611 0-23 21.689-23 24ZM357 129h1c0-1.365-20.697-23-22-23h-1v1c4.117 0 19.634 22 22 22Z"/><path fill="#97D6F9" id="STR" d="M223 112v1l3-3-4-2 1 4ZM234 108l-1 1 1-1Z"/><path fill="#8FCBEC" id="SF" d="M241 151c0 6.749 11.048 5.774 15.5 8l5 3c1.969-.985 1.5-3.188 1.5-5-8.352 0-5.894-9.288-8-13.5l-10-9c-1.217-2.435.525-5.5 3-5.5l-5-2.5c-2.246-2.246-10-11.993-10-14.5l-2-2h-5l-3 3c0 3.385-6.943 10.443-9.5 13l-4.5 3c1.963 0 2.759 3.983 2 5.5l-10 10c-1.842 3.684.326 12.5-7 12.5 0 1.812-.469 4.015 1.5 5l4-3c5.455-2.728 15.5-.555 15.5-9v-1h-6.5c-1.955-.978.923-7.346 1.5-8.5 2.324-4.647 11.781-20.359 19.5-16.5l8 3c2.889 1.444 12.409 18.683 11.5 20.5-1.221 2.443-5.709 1.5-8 1.5v2Z"/><path fill="#97D6F9" id="STR" d="M233 112h1l-1-3-2 1 2 2Z"/><path fill="#1A7E62" id="SSs1" d="M35 176h5c0-8.457 1.77-33.041 5-39.5l9-23.5c0-1.803-3.592-3-5-3l-8 20.5c-4.838 9.675-6 33.648-6 45.5ZM416 176h5c0-16.774-.975-36.45-8-50.5-1.002-2.003-4.622-15.5-6-15.5-2.061 0-4 .902-4 3 0 6.35 5.189 16.877 8 22.5 4.42 8.839 5 28.599 5 39.5v1Z"/><path fill="#90CAED" id="LSr" d="M207 129h2l4.5-3c2.557-2.557 9.5-9.615 9.5-13v-1l-16 17ZM248 129h1l-15-17h-1c0 2.507 7.754 12.254 10 14.5l5 2.5Z"/><path fill="#1B8063" id="SSs2/3" d="M40 176h8v-1c0-14.05 4.03-32.558 10-44.5.988-1.976 2.289-11.5 5-11.5v-1c-3.419 0-5.672-5-8-5h-1l-9 23.5c-3.23 6.459-5 31.043-5 39.5ZM408 175h8c0-10.901-.58-30.661-5-39.5-2.811-5.623-8-16.15-8-22.5h-1c-.968 0-8 4.308-8 5l7 18.5c4.294 8.589 7 28.08 7 38.5Z"/><path fill="#A9AAA8" id="chpl" d="M191 117c0 1.021-17.44 17.03-7.5 22l5.5-4.5c1.638-3.277 8.72-17.5 2-17.5ZM263 117c0 2.852 4.021 25.24 10.5 22 6.396-3.198-3.692-22-10.5-22Z"/><path fill="#187C63" id="SSs4" d="M402 175h6c0-10.42-2.706-29.911-7-38.5l-7-18.5h-1l-5 5 9 20.5c3.45 6.9 5 23.094 5 31.5ZM48 175h6c0-12.932 3.553-27.606 9-38.5 1.055-2.11 3.231-13.5 6-13.5v-1l-6-3c-2.711 0-4.012 9.524-5 11.5-5.97 11.942-10 30.45-10 44.5Z"/><path fill="#1C8063" id="SSs5" d="M54 175h13c0-8.344 2.92-30.339 6-36.5 1.364-2.728 4-5.269 4-8.5 0-3.424-8-4.702-8-7-2.769 0-4.945 11.39-6 13.5-5.447 10.894-9 25.568-9 38.5Z"/><path fill="#C9C9CA" id="scwm" d="m106 123-1 1 1-1Z"/><path fill="#1C8063" id="SSs5" d="M390 175h12c0-8.406-1.55-24.6-5-31.5l-9-20.5h-1c0 1.038-6.488 6-8 6v1c0 2.422 2.93 5.361 4 7.5 3.403 6.806 7 28.962 7 37.5Z"/><path fill="#C9C9CA" id="scwm" d="m105 124-1 1 1-1Z"/><path fill="#96A7D2" id="TRS" d="M215 149h26c2.291 0 6.779.943 8-1.5.909-1.817-8.611-19.056-11.5-20.5l-8-3c-7.719-3.859-17.176 11.853-19.5 16.5-.577 1.154-3.455 7.522-1.5 8.5h6.5Z"/><path fill="#C9C9CA" id="scwm" d="M99 130v2c1.514 0 5-5.537 5-7l-5 5Z"/><path fill="#97D6F9" id="STR" d="M198 131c0 1.477-3.924 3-5 3l1-6c1.54 0 .764 3 4 3ZM258 131l6 3c0-.706-1.325-6-2-6 0 2.409-1.957 3-4 3Z"/><path fill="#CBC8CB" id="fi" d="M193 157h1c7.326 0 5.158-8.816 7-12.5l10-10c.759-1.517-.037-5.5-2-5.5h-2c-3.489 0-5.32 2-9 2 0 1.477-3.924 3-5 3-2.99 0-13.339 23 0 23ZM263 157h1c14.736 0 0-20.035 0-23l-6-3c-3.68 0-5.511-2-9-2h-1c-2.475 0-4.217 3.065-3 5.5l10 9c2.106 4.212-.352 13.5 8 13.5Z"/><path fill="#188064" id="SSp-m6b" d="M363 142h1l1-1v-1c-1.273 0-5-7.423-5-9l-1-1-1-1h-1l6 12v1Z"/><path fill="#187D61" id="SSp-m6a" d="m358 129 1 1-1-1Z"/><path fill="#197D63" id="SSs6a" d="M67 175c4.607 0 10.052 1 14 1 0-11.958 10-26.255 10-35l-8-8c-1.408 0-5-1.197-5-3h-1c0 3.231-2.636 5.772-4 8.5-3.08 6.161-6 28.156-6 36.5Z"/><path fill="#187D61" id="SSp-m6a" d="M91 141h1l5-11c-5.179 0-8.81 3-14 3l8 8Z"/><path fill="#188064" id="SSp-m6b" d="M92 141h1l2-2c0-1.465-.109-4 2-4 0-1.238.423-3 2-3v-2h-2l-5 11Z"/><path fill="#197D63" id="SSs6a" d="M376 175h14c0-8.538-3.597-30.694-7-37.5-1.07-2.139-4-5.078-4-7.5-2.079 0-3.187 3-6 3l-1 1c0 1.871-5.4 6-7 6v1l4 8.5c1.507 3.013 7 22.316 7 25.5Z"/><path fill="#187D61" id="SSp-m6a" d="M372 134c0 1.871-5.4 6-7 6-1.273 0-5-7.423-5-9 5.353 0 11.515 3 12 3Z"/><path fill="#C9C9CA" id="scwm" d="M99 132c-1.577 0-2 1.762-2 3 1.577 0 2-1.762 2-3Z"/><path fill="#187D61" id="SSp-m6a" d="m373 133-1 1 1-1Z"/><path fill="#C9C9CA" id="scwm" d="M97 135c-2.109 0-2 2.535-2 4l2-4ZM93 141v1c1.577 0 2-1.762 2-3l-2 2Z"/><path fill="#1A8061" id="SSs6b" d="M81 176h1c0-1.048-.473-3 1-3v-4l1-1v-1l1-2v-1l1-2c0-1.048-.473-3 1-3l1-5 1-1v-2l1-2 1-2v-1c0-1.238.423-3 2-3v-2h-2c0 8.745-10 23.042-10 35ZM374 176h2v-1c0-3.184-5.493-22.487-7-25.5l-4-8.5-1 1 1 3v1c2.109 0 2 2.535 2 4v2l1 1v1l1 1 2 8v1l2 4 1 8Z"/><path fill="#C9C9CA" id="scwm" d="m364 142 1 3c-1.577 0-2-1.762-2-3h1ZM93 143c-1.577 0-2 1.762-2 3 1.577 0 2-1.762 2-3ZM365 146c2.109 0 2 2.535 2 4l-2-4ZM91 147l-1 2 1-2Z"/><path fill="#C8C9C9" id="vhc" d="M215 150c8.402 0 16.943 1 26 1v-2h-26v1Z"/><path fill="#97D6F9" id="STR" d="M283 163h3c0-2.51 2.181-7 5-7 0-2.308-7.013-.257-8.5-1l-5.5-7-1 9v4h1c1.811 0 4-3.685 4 1l2 1Z"/><path fill="#C9C9CA" id="scwm" d="m90 149-1 2 1-2Z"/><path fill="#97D6F9" id="STR" d="M173 164h1l1-1c0-2.99 4-5.884 4-2h1l1-1c0-4.135-2-7.305-2-11l-2.5 4c-3.619 1.809-6.066 2-10.5 2l5 8 2 1Z"/><path fill="#A8A9AA" id="V3" d="m264 171-5 2-2.5-2c-1.098-.549-12.5-4.094-12.5-1l-3 1c-2.878 0-7.081.79-9.5 2l-4 2c-4.164-2.082-7.402-4-12.5-4l-3-1c0-3.058-11.44.47-12.5 1l-2.5 2-4-2v-14h1c0 1.812-.469 4.015 1.5 5l4-3c5.455-2.728 15.5-.555 15.5-9 8.402 0 16.943 1 26 1 0 6.749 11.048 5.774 15.5 8l5 3c1.969-.985 1.5-3.188 1.5-5h1v14Z"/><path fill="#C9C9CA" id="scwm" d="m367 152 1 1-1-1ZM89 153l-1 1 1-1ZM368 154l1 1-1-1Z"/><path fill="#CCC" d="m164 173 7 12.5c2.064 4.128 2 10.544 2 15.5 0 21.194 7.356-12.787 5-17.5-1.507-3.014-7-17.738-7-20.5l-5-8c-1.896 0-4 2.077-4 4 0 5.003 2 10.49 2 14ZM279 179c0 6.536-3.039 15.423 0 21.5 2.287 4.574 5 10.673 5 1.5 0-5.745 3.173-29 9-29l2-11v-2l-1-2c0-1.577-1.762-2-3-2-2.819 0-5 4.49-5 7l-5 10c0 1.357-.647 6-2 6Z"/><path fill="#97D6F9" id="STR" d="m294 158 1 2-1-2Z"/><path fill="#C9C7C9" id="ccb" d="M87 159c-1.473 0-1 1.952-1 3 1.473 0 1-1.952 1-3Z"/><path fill="#97D6F9" id="STR" d="m164 173-4 1c0-1.467 1.195-15 2-15 0 5.003 2 10.49 2 14Z"/><path fill="#C8CBC7" id="st" d="m178 178 1 5 2.5 2c2.714-1.357 3.116-15.268 1.5-18.5l-4-5.5c0-3.884-4-.99-4 2l-1 1v4l1 1v2l1 1v1l1 2v2l1 1ZM277 183v2c-8.593 0-2-17.138-2-22l1-1 1-1c1.811 0 4-3.685 4 1l1 5v2l-1 1v2l-1 1v1l-1 1v4c-1.473 0-1 1.952-1 3l-1 1Z"/><path fill="#B3C0DE" id="BST" d="M198 235h1l2-1 2-1 3-3.5 3-7c2.769-5.538-4-9.966-4-14.5v-1c-1.043 0-2-5.353-2-6.5 0-7.574-5-13.18-5-20.5l-1-1v-1l-8-8c0-3.362-6-3.587-6-7-1.238 0-3-.423-3-2h-1l4 5.5c1.616 3.232 1.214 17.143-1.5 18.5l-2.5-2c0 8.951-1 17.125-1 26 0 1.048.473 3-1 3 0 3.642 1 8.002 1 11l9 9 1 1h1c1.477 0 5.699 2 9 2ZM277 161l-1 1v-1h1Z"/><path fill="#C9C7C9" id="ccb" d="m86 162-1 2 1-2Z"/><path fill="#B3C0DE" id="BST" d="m276 162-1 1 1-1ZM283 163c0 1.145.579 4-1 4l-1-5 2 1Z"/><path fill="#97D6F9" id="STR" d="m293 173 4 1c0-1.12-1.289-12-2-12l-2 11Z"/><path fill="#8599CC" id="PAL" d="M177 212c-3.254 0-1.63 8-6 8 0-3.925-1.519-9-6-9l6-4.5c.659-1.319-.334-5.5 2-5.5 0 21.194 7.356-12.787 5-17.5-1.507-3.014-7-17.738-7-20.5l2 1 1 1v3l1 1v2l1 1v1l1 2v2l1 1 1 5c0 8.951-1 17.125-1 26-1.473 0-1 1.952-1 3Z"/><path fill="#B3C0DE" id="BST" d="m175 163-1 1 1-1ZM257 235h1c3.222 0 6.277-1 9-1l1-1c4.825 0 6.112-10 11-10v-13c-1.473 0-1-1.952-1-3l-1-22c-8.593 0-2-17.138-2-22h-1l-1 1-5 5-1 1-8 9-1 2c0 5.56-2.629 12.757-5 17.5-.662 1.324 1.207 6.5-1 6.5v1l-1 2v1c0 3.437-5.784 7.933-4 11.5 1.211 2.422 6 10.156 6 12.5h1l3 2Z"/><path fill="#8599CC" id="PAL" d="M281 172v1l5-10h-3c0 1.145.579 4-1 4v2l-1 1v2Z"/><path fill="#B3C0DE" id="BST" d="M174 164v1l-1-1h1Z"/><path fill="#C9C7C9" id="ccb" d="m371 164 2 4-2-4ZM85 165l-1 2 1-2ZM84 168l-1 1 1-1Z"/><path fill="#B3C0DE" id="BST" d="m174 168 1 1-1-1Z"/><path fill="#CCC9C8" id="sm" d="m211 194-6 3c-3.884 0-1.833-17-7-17l-1-1v-6l2.5-2c1.06-.53 12.5-4.058 12.5-1v3c0 4.572-2 11.014-2 17l1 1v3ZM246 194l6 4c0-4.018 2.252-10.005 4-13.5.559-1.119.155-4.5 2-4.5l1-1v-6l-2.5-2c-1.098-.549-12.5-4.094-12.5-1l1 3c0 3.166.693 5.886 2 8.5 1.411 2.822-1 7.079-1 9.5v3Z"/><path fill="#B3C0DE" id="BST" d="m282 169-1 1 1-1Z"/><path fill="#FF6F80" id="TH" d="M212 173h3v-2l-3-1v3ZM242 173h3l-1-3-3 1 1 2Z"/><path fill="#B3C0DE" id="BST" d="m175 171 1 1-1-1Z"/><path fill="#FE8F9E" id="PVT" d="M225 200c4.216 0 1.358-7.784 4-2.5l2 2.5c2.538 0 6 1.772 6-3 0-6.136-.545-13.411 2-18.5 1.089-2.177 3-2.822 3-5.5l-1-2c-2.878 0-7.081.79-9.5 2l-4 2c-4.164-2.082-7.402-4-12.5-4v2c0 5.877 5 14.146 5 22 0 4.885 1.179 5 5 5Z"/><path fill="#B3C0DE" id="BST" d="M280 173h1v-1l-1 1Z"/><path fill="#C8CBCC" id="ec" d="M82 182c0 1.145-.58 4 1 4v-13c-1.473 0-1 1.952-1 3v6Z"/><path fill="#8598CC" id="GPe" d="m163 212-2 1c-7.189 0-7-9.393-7-15 0-5.909 1-11.579 1-17v-1l1-1 1-1 3-4 4-1 7 12.5c2.064 4.128 2 10.544 2 15.5-2.334 0-1.341 4.181-2 5.5l-6 4.5-2 1Z"/><path fill="#B3C0DE" id="BST" d="m176 173 1 2-1-2Z"/><path fill="#FF909F" id="PT" d="m211 192 5.5 5c2.377 1.189 2.116-2 3.5-2 0-7.854-5-16.123-5-22h-3c0 4.572-2 11.014-2 17l1 1v1ZM237 197h4c0-1.747.253-2 2-2 0-1.114 2.034-4 3-4 0-2.421 2.411-6.678 1-9.5-1.307-2.614-2-5.334-2-8.5h-3c0 2.678-1.911 3.323-3 5.5-2.545 5.089-2 12.364-2 18.5Z"/><path fill="#8599CC" id="PAL" d="M279 175v4c1.353 0 2-4.643 2-6h-1v1l-1 1Z"/><path fill="#8598CC" id="GPe" d="M295 213h1c6.816 0 6-9.28 6-15 0-6.102-1-12.479-1-18v-1l-2-2-2-3-4-1c-5.827 0-9 23.255-9 29 1.149 0 1.508 4.516 2 5.5l5 3.5h1l1 1h1l1 1Z"/><path fill="#B3C0DE" id="BST" d="m280 174-1 1 1-1Z"/><path fill="#12AC83" id="VISC2/3" d="M51 191c0 1.028-4.666 4-6 4-2.057 0-5-16.108-5-19h8l3 15Z"/><path fill="#11AC82" id="VISC4" d="M51 191h1l3-1c0-4.27-1-10.067-1-15h-6v1l3 15Z"/><path fill="#12AD82" id="VISC5" d="m67 185-12 5c0-4.27-1-10.067-1-15h13v10Z"/><path fill="#11AC83" id="VISC6a" d="m81 182-14 3v-10c4.607 0 10.052 1 14 1v6ZM375 182l14 3 1-10h-14v1l-1 6Z"/><path fill="#12AD82" id="VISC5" d="M401 190h1v-15h-12l-1 10c1.529 0 12 3.998 12 5Z"/><path fill="#11AC82" id="VISC4" d="m402 190 3 1c0-5.373 3-10 3-16h-6v15Z"/><path fill="#12AC83" id="VISC2/3" d="m405 192 7 3c1.951 0 .477-2.454 1-3.5 2.27-4.54 3-10.047 3-15.5v-1h-8c0 6-3 10.627-3 16v1Z"/><path fill="#12AD83" id="VISC1" d="m45 196-4 2c-1.845 0-1.44-3.381-2-4.5-2.18-4.36-4-12.525-4-17.5h5c0 2.892 2.943 19 5 19v1Z"/><path fill="#11AD82" id="VISC6b" d="M81 182h1v-6h-1v6ZM374 182h1l1-6h-2v6Z"/><path fill="#12AD83" id="VISC1" d="m412 196 4 2c0-5.484 5-14.433 5-22h-5c0 5.453-.73 10.96-3 15.5-.523 1.046.951 3.5-1 3.5v1Z"/><path fill="#B3C0DE" id="BST" d="m177 177 1 1-1-1Z"/><path fill="#97D6F9" id="STR" d="m299 177 2 2-2-2ZM157 178l-1 1 1-1ZM156 179l-1 1 1-1Z"/><path fill="#8599CC" id="PAL" d="M291 211c-3.999 0-6 5.483-6 9-3.4 0-3.254-9-6-9v-1c0-1.048.473-3-1-3l-1-22v-2l1-1c0-1.048-.473-3 1-3 0 6.536-3.039 15.423 0 21.5 2.287 4.574 5 10.673 5 1.5 1.149 0 1.508 4.516 2 5.5l5 3.5Z"/><path fill="#CAC7CB" id="fiber tracts" d="M205 197v10c-1.043 0-2-5.353-2-6.5 0-7.574-5-13.18-5-20.5 5.167 0 3.116 17 7 17ZM252 198v7c2.207 0 .338-5.176 1-6.5 2.371-4.743 5-11.94 5-17.5v-1c-1.845 0-1.441 3.381-2 4.5-1.748 3.495-4 9.482-4 13.5Z"/><path fill="#97D6F9" id="STR" d="M302 198c2.441 0 .925 12 3 12 0-7.14.993-16.515-2-22.5-.822-1.644 1.038-7.5-2-7.5 0 5.521 1 11.898 1 18ZM154 198c-2.257 0 .084 13-3 13l2-22.5c0-1.839-.388-7.5 2-7.5 0 5.421-1 11.091-1 17Z"/><path fill="#009B74" id="GU6a" d="M79 193c-2.723 0-5.778 1-9 1l-3-9 14-3c0 3.222 1 6.277 1 9l-3 2Z"/><path fill="#019C74" id="GU6b" d="M82 191h1v-5c-1.58 0-1-2.855-1-4h-1c0 3.222 1 6.277 1 9Z"/><path fill="#B3C0DE" id="BST" d="m278 182-1 1 1-1Z"/><path fill="#019C74" id="GU6b" d="M373 191h2v-9h-1v1c0 1.321.684 6-1 6v2Z"/><path fill="#009B74" id="GU6a" d="M386 194h1l2-9-14-3v9l2 2c2.723 0 5.778 1 9 1Z"/><path fill="#C8CBCC" id="ec" d="M374 183c-1.684 0-1 4.679-1 6 1.684 0 1-4.679 1-6Z"/><path fill="#019C75" id="GU5" d="m70 195-13 1c0-1.974-2-3.517-2-6l12-5 3 9v1ZM387 194c0 .856 10.692 2 12 2 0-1.714 2-3.482 2-6 0-1.002-10.471-5-12-5l-2 9Z"/><path fill="#C8CBCC" id="ec" d="m83 191 2 3c0-1.041-.986-5-2-5v2Z"/><path fill="#009C74" id="GU4" d="M52 191c0 3.784 1.417 5 5 5 0-1.974-2-3.517-2-6l-3 1Z"/><path fill="#FF6F80" id="TH" d="m210 190 1 1-1-1Z"/><path fill="#009C74" id="GU4" d="M402 197h1c0-1.424.362-5 2-5v-1l-3-1h-1c0 2.518-2 4.286-2 6 1.048 0 3-.473 3 1Z"/><path fill="#009B75" id="GU2/3" d="M46 199h1c3.255 0 6.059-2 10-2v-1c-3.583 0-5-1.216-5-5h-1c0 1.028-4.666 4-6 4v1l1 3Z"/><path fill="#8ADA86" id="CLA" d="M83 207h2c0-1.087 2-2.433 2-5v-2l-1-1v-1l-1-1v-3l-2-3h-1l-3 2c0 3.311-1.199 14 4 14Z"/><path fill="#FF6F80" id="TH" d="M243 195h1l1-1h1v-3c-.966 0-3 2.886-3 4Z"/><path fill="#C8CBCC" id="ec" d="m373 191-1 2 1-2Z"/><path fill="#8ADA86" id="CLA" d="M372 207h1c6.428 0 4-11.246 4-14l-2-2h-2l-1 2-1 2v3l-1 1v1l-1 1v2c0 2.54 3 2.543 3 4Z"/><path fill="#FF6F80" id="TH" d="m225 200-1 3c-6.297 0-7.029-6-10-6l-2-2-1-1v-2l5.5 5c2.377 1.189 2.116-2 3.5-2 0 4.885 1.179 5 5 5Z"/><path fill="#009B75" id="GU2/3" d="M410 199h1l1-3v-1l-7-3c-1.638 0-2 3.576-2 5l7 2Z"/><path fill="#209766" id="AIp6a" d="m83 207-4 5c-1.463 0-8.882-17-9-17v-1c3.222 0 6.277-1 9-1 0 3.311-1.199 14 4 14Z"/><path fill="#C8CBCC" id="ec" d="m372 193-1 2 1-2Z"/><path fill="#209766" id="AIp6a" d="M377 213h1c0-6.691 8-12.07 8-19-3.222 0-6.277-1-9-1 0 2.754 2.428 14-4 14 0 2.437 4 2.375 4 6Z"/><path fill="#C7C8CA" id="fx" d="m205 208 2.5 3c3.301 1.65 6.145-2 7.5-2 0-2.421 2.411-6.678 1-9.5l-2-2.5-2-2-1-1-6 3v11Z"/><path fill="#CAC7CB" id="fiber tracts" d="m211 194 1 1-1-1ZM245 194l-1 1 1-1Z"/><path fill="#C7C8CA" id="fx" d="M241 209c2.099 0 4.383 3.558 7.5 2l2.5-2v-1l1-2v-8l-6-4h-1l-1 1-1 1-1 1-1 1v11Z"/><path fill="#219864" id="AIp5" d="m378 214 7 2c0-2.055 14-13.545 14-19v-1c-1.308 0-12-1.144-12-2h-1c0 6.93-8 12.309-8 19v1ZM78 214l-6 2-10.5-11-4.5-8v-1l13-1c.118 0 7.537 17 9 17v1l-1 1Z"/><path fill="#C8CBCC" id="ec" d="M86 199h1l-2-4v2l1 1v1Z"/><path fill="#FF6F80" id="TH" d="M241 197h1l1-1v-1c-1.747 0-2 .253-2 2Z"/><path fill="#CAC7CB" id="fiber tracts" d="m244 195-1 1v-1h1Z"/><path fill="#009C75" id="GU1" d="m46 199-5 1v-2l4-2 1 3Z"/><path fill="#CAC7CB" id="fiber tracts" d="m243 196-1 1 1-1Z"/><path fill="#C8CBCC" id="ec" d="M370 198h1v-2l-1 2Z"/><path fill="#009B75" id="GU2/3" d="M399 197h3c0-1.473-1.952-1-3-1v1Z"/><path fill="#009C75" id="GU1" d="M411 199c0 .546 2.571 1 4 1l1-2-4-2-1 3Z"/><path fill="#209865" id="AIp2/3" d="M72 216c0 1.555-9.133 4-11 4 0-3.503-14-13.894-14-21 3.255 0 6.059-2 10-2l4.5 8L72 216Z"/><path fill="#209766" id="AIp6a" d="m85 197 1 1-1-1Z"/><path fill="#CAC7CB" id="fiber tracts" d="m217 208-2 1c0-2.421 2.411-6.678 1-9.5l-2-2.5c2.971 0 3.703 6 10 6v8c-1.302 0-2.641-4-5-4 0-4.347-2-2.153-2 1Z"/><path fill="#FF6F80" id="TH" d="m231 200 2 4c4.043 0 5.395-6 8-6v-1h-4c0 4.772-3.462 3-6 3Z"/><path fill="#CAC7CB" id="fiber tracts" d="m242 197-1 1v-1h1Z"/><path fill="#209865" id="AIp2/3" d="M385 216c0 1.693 8.239 4 10 4 0-3.371 15-14.358 15-21l-7-2h-4c0 5.455-14 16.945-14 19Z"/><path fill="#8599CC" id="PAL" d="m150 215-3 6c.65 0 14-7.19 14-8-7.189 0-7-9.393-7-15-2.257 0 .084 13-3 13v2l-1 1v1Z"/><path fill="#CAC7CB" id="fiber tracts" d="m239 208 2 1v-11c-2.605 0-3.957 6-8 6v5l4-2c0-4.649 2-2.594 2 1Z"/><path fill="#8599CC" id="PAL" d="M306 214c0 2.993 4 5.53 4 9l-4.5-5c-1.746-.873-9.5-2.531-9.5-5 6.816 0 6-9.28 6-15 2.441 0 .925 12 3 12v2l1 1v1Z"/><path fill="#C8CBCC" id="ec" d="M369 200h1v-2l-1 2Z"/><path fill="#209766" id="AIp6a" d="m371 198-1 1v-1h1Z"/><path fill="#219765" id="AIp1" d="m61 220-4 3c-.778 0-16-20.19-16-23l5-1h1c0 7.106 14 17.497 14 21Z"/><path fill="#209766" id="AIp6a" d="M87 199v1l-1-1h1Z"/><path fill="#219765" id="AIp1" d="m395 220 4 3c2.077 0 16-20.394 16-23-1.429 0-4-.454-4-1h-1c0 6.642-15 17.629-15 21Z"/><path fill="#C8CBCC" id="ec" d="m89 207 2 3c0-1.761-2.307-10-4-10v2c1.014 0 2 3.959 2 5Z"/><path fill="#209766" id="AIp6a" d="m370 200-1 1v-1h1Z"/><path fill="#A8A9AA" id="V3" d="M227 226c0 2.082 2 4.219 2 1 0-3.981 2-7.629 2-12 0-17.03-6-19.413-6-1 0 4.646 2 7.501 2 12Z"/><path fill="#C8CBCC" id="ec" d="M368 203h1v-2l-1 2Z"/><path fill="#209766" id="AIp6a" d="M85 207h4c0-1.041-.986-5-2-5 0 2.567-2 3.913-2 5Z"/><path fill="#C8CBCC" id="ec" d="M368 203c-1.473 0-1 1.952-1 3 1.473 0 1-1.952 1-3Z"/><path fill="#209766" id="AIp6a" d="M367 207h5c0-1.457-3-1.46-3-4h-1c0 1.048.473 3-1 3v1Z"/><path fill="#CCC8CC" id="mct" d="m219 207-2 1c0-3.153 2-5.347 2-1ZM237 207l2 1c0-3.594-2-5.649-2-1Z"/><path fill="#CAC7CB" id="fiber tracts" d="m252 206-1 2 1-2Z"/><path fill="#A0EE9C" id="EPd" d="M95 231h4v-3l-6-13v-1l-2-3v-1l-2-3h-6l-4 5v4l3 4 1 2 1 1 1 1 4 3 2 2h1l2 2h1Z"/><path fill="#E64438" id="HY" d="m207 233 3.5-4c5.254-2.627 13.5-.496 13.5 6 3.435 0-2.001-9 3-9 0-4.499-2-7.354-2-12-1.473 0-1-1.952-1-3-1.302 0-2.641-4-5-4l-2 1-2 1c-1.355 0-4.199 3.65-7.5 2l-2.5-3c0 4.534 6.769 8.962 4 14.5l-3 7-3 3.5c1.137 0 4-2.091 4 0ZM249 232l4 1c0-2.344-4.789-10.078-6-12.5-1.784-3.567 4-8.063 4-11.5l-2.5 2c-3.117 1.558-5.401-2-7.5-2l-2-1-2-1-4 2c0 1.357-.647 6-2 6 0 4.371-2 8.019-2 12 3.746 0 3 .188 3 5 3.363 0 6.64-6.43 11.5-4l5.5 4ZM278 207c1.473 0 1 1.952 1 3-1.473 0-1-1.952-1-3Z"/><path fill="#C8CBCC" id="ec" d="m367 207-1 2 1-2Z"/><path fill="#A0EE9C" id="EPd" d="M361 231h1l1-1 2-1 1-1h1l1-1 1-1 1-1 1-1 1-1 1-1 1-1 1-1v-1l1-1 1-1v-4c0-3.625-4-3.563-4-6h-6l-1 2-1 1v1l-1 2-1 2v1l-1 2-1 1v1c0 1.238-.423 3-2 3l-1 2-1 3c0 3.303.959 3 4 3Z"/><path fill="#E64438" id="HY" d="M178 209c-1.473 0-1 1.952-1 3 1.473 0 1-1.952 1-3Z"/><path fill="#C8CBCC" id="ec" d="m366 209-1 1 1-1ZM91 211c1.577 0 2 1.762 2 3l-2-3Z"/><path fill="#8599CC" id="PAL" d="m165 211-2 1 2-1Z"/><path fill="#A2B1D7" id="SI" d="M165 250c-7.531 0-14.791 1-22 1l-2-1v-10l3-14 1-1 2-4c.65 0 14-7.19 14-8l2-1 2-1c4.481 0 6 5.075 6 9 0 2.008-.656 9 2 9v11.5l-4 7.5-4 2Z"/><path fill="#E64438" id="HY" d="M279 223c2.941 0 3.629 6 5 6 1.751 0 1-7.426 1-9-3.4 0-3.254-9-6-9v12Z"/><path fill="#A2B1D7" id="SI" d="M292 250h21l3-1v-8c0-5.451-4-10.26-4-16l-2-2-4.5-5c-1.746-.873-9.5-2.531-9.5-5h-1l-1-1h-1l-1-1h-1c-3.999 0-6 5.483-6 9 0 1.574.751 9-1 9 0 4.074-2.137 9.227 0 13.5l4 6.5c1.145 0 4-.579 4 1Z"/><path fill="#8599CC" id="PAL" d="m292 211 1 1-1-1Z"/><path fill="#C8CBCC" id="ec" d="m365 211-1 2 1-2Z"/><path fill="#8599CC" id="PAL" d="m163 212-2 1 2-1Z"/><path fill="#E64438" id="HY" d="M178 223c-2.848 0-5 3.462-5 6-2.656 0-2-6.992-2-9 4.37 0 2.746-8 6-8 0 3.642 1 8.002 1 11Z"/><path fill="#8599CC" id="PAL" d="m294 212 1 1-1-1Z"/><path fill="#97D6F9" id="STR" d="m305 212 1 1-1-1Z"/><path fill="#99D2BD" id="OLF" d="m78 214 1 1v-2l-1 1Z"/><path fill="#97D6F9" id="STR" d="m151 213-1 1 1-1Z"/><path fill="#C8CBCC" id="ec" d="m364 213-1 2 1-2Z"/><path fill="#99D2BD" id="OLF" d="m378 214-1 1v-2h1v1Z"/><path fill="#6ACAB9" id="PIR" d="M112 294h1l2-1v-1c0-2.178 8-15.137 8-22 0-6.006-7-10.977-7-14l-14-14.5-4-4.5-13-13-1-1-1-1-1-2-3-4v-1l-1-1-6 2c0 1.555-9.133 4-11 4l-4 3c0 4.876 9.234 10.968 11 14.5 4.018 8.037 20.37 39.37 25.5 44.5 5.018 5.018 11.511 12 18.5 12Z"/><path fill="#97D6F9" id="STR" fill-rule="evenodd" d="M333 240c0-1.602 3.058-2.384 2-4.5l-5.5-2.5c-13.366-6.683-8.221 7 3.5 7m9-3c-5.094 0-4.832 3-9 3 0 3.752-9.51-1.01-10.5-2-2.936-2.936-7.055-13-10.5-13l-2-2c0-3.47-4-6.007-4-9 1.76 0 13.56 12.03 17.5 14l10 5c1.479.74 9.5.079 9.5 2l-1 2Z"/><path fill="#6ACAB9" id="PIR" d="M343 294h1c17.085 0 35.872-40.244 43-54.5 2.555-5.109 12-10.656 12-16.5l-4-3c-1.761 0-10-2.307-10-4l-7-2-1 1v2l-1 1-1 1v1l-1 1-1 1-1 1-1 1-1 1-1 1-1 1-1 1-1 1-7 7c0 1.039-17.672 20-19 20l-1 1c0 4.396-6 7.998-6 13 0 6.043 8 18.242 8 22l1 1 1 1Z"/><path fill="#C8CBCC" id="ec" d="M113 237h1l1-1-2-1c-5.444 0-13.506-7.512-16-12.5l-4-7.5 6 13 3 3 3 2 3 2 2 1c1.048 0 3-.473 3 1Z"/><path fill="#97D6F9" id="STR" fill-rule="evenodd" d="M131 230c0 1.304-15.137 6.181-7.5 10 7.21 3.605 16.524-10 7.5-10m-18 5 2 1c4.994 0 9.151 8.174 15.5 5 4.124-2.062 10.143-15 13.5-15l1-1 2-4 3-6c-2.849 0-14.611 12.055-18.5 14-4.397 2.198-9.634 2.817-14 5-1.147.574-4.5-1.064-4.5 1Z"/><path fill="#99D2BD" id="OLF" d="m79 216 3 4-3-4Z"/><path fill="#C8CBCC" id="ec" d="m363 216-1 2 1-2Z"/><path fill="#99D2BD" id="OLF" d="m377 217-1 1 1-1Z"/><path fill="#C8CBCC" id="ec" d="m362 218-1 1 1-1Z"/><path fill="#99D2BD" id="OLF" d="m376 218-1 1 1-1Z"/><path fill="#C8CBCC" id="ec" d="M361 220c-1.577 0-2 1.762-2 3 1.577 0 2-1.762 2-3Z"/><path fill="#99D2BD" id="OLF" d="m375 220-1 1 1-1ZM374 221l-1 1 1-1ZM83 222l1 1-1-1ZM373 222l-1 1 1-1Z"/><path fill="#F2473B" id="LPO" d="M193 266c0 4.269-4.578 2-6 2l-14-11-2-2c0-2.16-2-4.167-2-7l4-7.5V229c0-2.538 2.152-6 5-6l9 9 1 1h1l1 4c0 2.9 1.68 8.861 3 11.5V266ZM263 266c1.274 0 2.933 3 6 3 0-1.478 13.894-12 15-12l1-1 3-7-4-6.5c-2.137-4.273 0-9.426 0-13.5-1.371 0-2.059-6-5-6-4.888 0-6.175 10-11 10l-1 1c0 1.048.473 3-1 3 0 9.273-3 18.702-3 29Z"/><path fill="#C8CBCC" id="ec" d="m359 223-1 2 1-2Z"/><path fill="#99D2BD" id="OLF" d="m372 223-1 1 1-1ZM98 234v3l-13-13 4 3 2 2h1l2 2h1l3 3Z"/><path fill="#8AD987" id="CTXsp" d="m371 224-1 1 1-1Z"/><path fill="#7ECDF8" id="FS" d="m145 225-1 1 1-1Z"/><path fill="#FE5547" id="PVpo" d="M230 271v2c10.176 0 3-7.81 3-14 0-8.352-1-18.01-1-27 0-4.812.746-5-3-5 0 3.219-2 1.082-2-1-5.001 0 .435 9-3 9v22c0 6.043-8.441 16 2 16v-2c0-3.914.407-6.314 2-9.5l.5-2.5c.116 0 4.038 12 1.5 12Z"/><path fill="#7ECDF8" id="FS" d="m336 247-1 1c-3.996 0-8.309 2.096-12.5 0l-6.5-7c0-5.451-4-10.26-4-16 3.445 0 7.564 10.064 10.5 13 .99.99 10.5 5.752 10.5 2 4.168 0 3.906-3 9-3h1v3l-1 1-1 1-1 1-1 1-1 1-1 1-1 1Z"/><path fill="#C8CBCC" id="ec" d="M342 237h1c0-1.473 1.952-1 3-1h1l1-1h1l2-1 1-1 1-1 1-1 3-3 1-3c-2.837 0-9.025 10-15 10l-1 2Z"/><path fill="#99D2BD" id="OLF" d="m370 225-1 1 1-1Z"/><path fill="#7ECDF8" id="FS" d="M113 237h1l1-1c4.994 0 9.151 8.174 15.5 5 4.124-2.062 10.143-15 13.5-15l-3 14c-1.812 0-5.852 7.676-8.5 9-6.854 3.427-19.5-5.332-19.5-12Z"/><path fill="#8AD987" id="CTXsp" d="m369 226-1 1 1-1ZM89 227l2 2-2-2Z"/><path fill="#99D2BD" id="OLF" d="m368 227-1 1 1-1Z"/><path fill="#8AD987" id="CTXsp" d="M99 231h3l-3-3v3Z"/><path fill="#FD4C3E" id="MPN" d="m208 258 5 3c1.423 0 3.544 1.978 5.5 1l5.5-5v-22c0-6.496-8.246-8.627-13.5-6l-3.5 4c0 4.573-4.522 11.455-2 16.5 1.263 2.527 2 4.392 2 7.5l1 1ZM233 259c2.801 0 5.608 3 10 3 0-1.533 3.753-4 5-4l2-3 2-11.5c-1.578-3.155-3-7.786-3-11.5l-5.5-4c-4.86-2.43-8.137 4-11.5 4 0 8.99 1 18.648 1 27Z"/><path fill="#8AD987" id="CTXsp" d="m361 231-2 4c-1.97 0-1.478-4-5-4l3-3c0 3.303.959 3 4 3ZM365 229h1v-1l-1 1Z"/><path fill="#99D2BD" id="OLF" d="m367 228-1 1v-1h1Z"/><path fill="#8AD987" id="CTXsp" d="m92 229 2 2-2-2Z"/><path fill="#99D2BD" id="OLF" d="M359 235v1l7-7h-1l-2 1-1 1h-1l-2 4Z"/><path fill="#C9C9C9" id="act" d="M131 230c0 1.304-15.137 6.181-7.5 10 7.21 3.605 16.524-10 7.5-10ZM333 240c0-1.602 3.058-2.384 2-4.5l-5.5-2.5c-13.366-6.683-8.221 7 3.5 7Z"/><path fill="#8AD987" id="CTXsp" d="m363 230-1 1 1-1ZM99 231l-1 3-3-3h4Z"/><path fill="#A0ED9D" id="EPv" d="m111 240 7 8.5c1.558 3.117-2 5.401-2 7.5l-14-14.5-4-4.5v-3l1-3h3l3 2c0 2.215 2 1.519 2 3 0 2.226 1.774 4 4 4ZM345 240l-7 9.5c-1.278 2.555 2 4.516 2 6.5 1.328 0 19-18.961 19-20v-1c-1.97 0-1.478-4-5-4l-1 1-1 1-1 1-2 2c0 2.226-1.774 4-4 4Z"/><path fill="#E64438" id="HY" d="m187 232 1 1-1-1Z"/><path fill="#FF5346" id="MPO" d="m199 263-6 3v-17.5c-1.32-2.639-3-8.6-3-11.5 1.257 0 8-.941 8-2h1l2-1 2-1c1.137 0 4-2.091 4 0 0 4.573-4.522 11.455-2 16.5 1.263 2.527 2 4.392 2 7.5l-1 1-6 4-1 1ZM256 262c2.757 0 4.081 4 7 4 0-10.298 3-19.727 3-29-1.257 0-8-.941-8-2h-1c-1.238 0-3-.423-3-2h-1l-4-1c0 3.714 1.422 8.345 3 11.5l-2 11.5 1 3c1.247 0 5 2.467 5 4Z"/><path fill="#8AD987" id="CTXsp" d="m353 232-1 1 1-1ZM108 235l-1 1c0-1.481-2-.785-2-3l3 2Z"/><path fill="#E64438" id="HY" d="M198 235c0 1.059-6.743 2-8 2l-1-4c1.477 0 5.699 2 9 2ZM203 233l-2 1 2-1ZM254 233l3 2c-1.238 0-3-.423-3-2ZM268 233l-1 1 1-1ZM201 234l-2 1 2-1ZM258 235c0 1.059 6.743 2 8 2 1.473 0 1-1.952 1-3-2.723 0-5.778 1-9 1Z"/><path fill="#8AD987" id="CTXsp" d="M349 235v1l2-2-2 1Z"/><path fill="#80BEE2" id="IA" d="m112 239-1 1c-2.226 0-4-1.774-4-4l1-1 2 1 2 3Z"/><path fill="#8AD987" id="CTXsp" d="m348 235-1 1 1-1Z"/><path fill="#80BEE2" id="IA" d="m344 239 1 1c2.226 0 4-1.774 4-4v-1h-1l-1 1-1 1-2 2Z"/><path fill="#97D6F9" id="STR" d="M124 259c1.991 0 3.486 8 7 8l-4-5.5v-5c0-9.267 10.341-3.5 14-3.5v-13c-1.812 0-5.852 7.676-8.5 9-6.854 3.427-19.5-5.332-19.5-12 0-1.473-1.952-1-3-1l2 3 11 11.5 1 8.5ZM115 236l-1 1 1-1ZM344 239l-1 1v-3c0-1.473 1.952-1 3-1v1l-2 2Z"/><path fill="#8AD987" id="CTXsp" d="m347 236-1 1v-1h1ZM116 256c2.953 0 3.936 3 8 3l-1-8.5-11-11.5-1 1 7 8.5c1.558 3.117-2 5.401-2 7.5ZM339 257c-.781 0-6 4.709-6 2 0-4.135 2-7.814 2-11l1-1 1-1 1-1 1-1 1-1 1-1 1-1 1-1 1-1 1 1-7 9.5c-1.278 2.555 2 4.516 2 6.5l-1 1Z"/><path fill="#97D6F9" id="STR" d="m343 240-1 1 1-1ZM333 259l-4 4c0-5.877 2.521-7.99-3.5-11-1.324-.662-4.206-1.897-6-1l-4.5 2 1-4v-8l6.5 7c4.191 2.096 8.504 0 12.5 0 0 3.186-2 6.865-2 11ZM342 241l-1 1 1-1ZM341 242l-1 1 1-1ZM340 243l-1 1 1-1ZM338 245l-1 1 1-1ZM336 247l-1 1 1-1Z"/><path fill="#8599CC" id="PAL" d="M171 255v1l-6-6 4-2c0 2.833 2 4.84 2 7ZM285 256v1l7-7c0-1.579-2.855-1-4-1l-3 7ZM313 250l2 3 1-4-3 1ZM141 253h1l1-2-2-1v3Z"/><path fill="#A2B1D8" id="MA" d="M171 258c0 4.535-5 9.304-5 13l-24-18 1-2c7.209 0 14.469-1 22-1l6 6v2ZM285 257c0 3.952 5 11.23 5 14 1.337 0 16.299-12.399 19.5-14l5.5-4-2-3h-21l-7 7Z"/><path fill="#80C0E2" id="AAA" d="m141 280 1 1c2.546 0 6.999 5.75 10.5 4 3.507-1.753 7.454-2.227 11-4l3.5-4v-4l-1-2-24-18h-1c-3.659 0-14-5.767-14 3.5v5l4 5.5 1 2c2.832 0 9 8.673 9 11ZM314 281l-1 2c-6.065 0-11.285 3.107-17.5 0l-6.5-6v-3l1-3c1.337 0 16.299-12.399 19.5-14l5.5-4 4.5-2c1.794-.897 4.676.338 6 1 6.021 3.01 3.5 5.123 3.5 11l-2 2-1 2-2 2-1 1-7 8-1 1v1l-1 1Z"/><path fill="#E64438" id="HY" d="M172 257h1l-2-2v2h1ZM248 258h3l-1-3-2 3Z"/><path fill="#99D2BD" id="OLF" d="M123 270c1.422 0 6-2.269 6 2l3-3-1-2c-3.514 0-5.009-8-7-8-4.064 0-5.047-3-8-3 0 3.023 7 7.994 7 14Z"/><path fill="#E64438" id="HY" d="M284 257h1v-1l-1 1Z"/><path fill="#99D2BD" id="OLF" d="m340 256-1 1 1-1Z"/><path fill="#8599CC" id="PAL" d="m172 257-1 1v-1h1Z"/><path fill="#96A6D3" id="NDB" d="M167 273c.731 0 9.355 3.428 10.5 4l6.5-1c5.666 0 3-5.397 3-8l-14-11h-1l-1 1c0 4.535-5 9.304-5 13l1 2Z"/><path fill="#E64438" id="HY" d="M206 258h2l-1-1-1 1ZM199 278c0-1.918-9.596-4.308-10-3.5l3 4.5c-2.338 0-4.862-2-8-2v-1c5.666 0 3-5.397 3-8 1.422 0 6 2.269 6-2l6-3v6.5c1.806 3.613 12.038 4.924 14 1 2.321-4.643 0-5.189 0-9.5 1.423 0 3.544 1.978 5.5 1l5.5-5c0 6.043-8.441 16 2 16v1l-7.5 3-19.5 1Z"/><path fill="#96A6D3" id="NDB" d="m289 274-10.5 3-5.5-1c-5.459 0-4-3.89-4-7 0-1.478 13.894-12 15-12h1c0 3.952 5 11.23 5 14l-1 3Z"/><path fill="#99D2BD" id="OLF" d="M333 270c-3.329 0-4.97 1-6 1l-3-2 2-2 1-2c1.747 0 2-.253 2-2l4-4c0 2.709 5.219-2 6-2 0 4.396-6 7.998-6 13Z"/><path fill="#FF4B3E" id="AHN" d="m200 262-1 1v6.5c1.806 3.613 12.038 4.924 14 1 2.321-4.643 0-5.189 0-9.5l-5-3h-2l-6 4ZM243 262c0 1.606-2.081 4.339-1 6.5 3.642 7.285 13.209 4.582 16-1l-2-5.5c0-1.533-3.753-4-5-4h-3c-1.247 0-5 2.467-5 4Z"/><path fill="#A8A9AA" id="V3" d="M226 271h4c2.538 0-1.384-12-1.5-12l-.5 2.5c-1.593 3.186-2 5.586-2 9.5Z"/><path fill="#E64438" id="HY" d="M267 277h6v-1c-5.459 0-4-3.89-4-7-3.067 0-4.726-3-6-3-2.919 0-4.243-4-7-4l2 5.5c-2.791 5.582-12.358 8.285-16 1-1.081-2.161 1-4.894 1-6.5-4.392 0-7.199-3-10-3 0 6.19 7.176 14-3 14v1c2.37 0 5.431 1.965 7.5 3l19.5 1c0-2.139 10-5.831 10-1ZM200 262l-1 1 1-1Z"/><path fill="#97D6F9" id="STR" d="m329 263-2 2c1.747 0 2-.253 2-2ZM327 265l-1 2 1-2Z"/><path fill="#59D9AA" id="PAA" d="M118 292h1l2-1h2l1-1h1l1-1h1l3-4c0-3.629-1-8.716-1-13 0-4.269-4.578-2-6-2 0 6.863-8 19.822-8 22h3Z"/><path fill="#60E5B7" id="COAa" d="M142 282c0 5.295-12 7.167-12 3 0-3.629-1-8.716-1-13l3-3c2.832 0 9 8.673 9 11l1 1v1Z"/><path fill="#99D2BD" id="OLF" d="m324 269-1 1 1-1Z"/><path fill="#60E5B7" id="COAa" d="M315 281c0 11.133 10.473 4 12 4v-14l-3-2-1 1-7 8-1 1v2Z"/><path fill="#59D9AA" id="PAA" d="M338 292h3c0-3.758-8-15.957-8-22-3.329 0-4.97 1-6 1v14l2 4h2l3 2h1l2 1h1Z"/><path fill="#8599CC" id="PAL" d="M184 277c-2.952 0-6.519 6-16 6 0-1.564-1-3.876-1-6v-4c.731 0 9.355 3.428 10.5 4l6.5-1v1Z"/><path fill="#FE5B50" id="SO" d="m198 279-4 1-1-1h-1l-3-4.5c.404-.808 10 1.582 10 3.5l-1 1Z"/><path fill="#CAC7CB" id="fiber tracts" d="M199 279c8.779 0 19.175.662 26.5-3 .087-.043 27.87 3 32.5 3l-1-1-19.5-1c-2.069-1.035-5.13-3-7.5-3h-4l-7.5 3-19.5 1-1 1h1Z"/><path fill="#FE5B50" id="SO" d="m263 279-1 1-4-1-1-1c0-2.139 10-5.831 10-1l-1 1-3 1Z"/><path fill="#8599CC" id="PAL" d="M289 277v5c-2.014 0-5.932 2.284-8.5 1l-7.5-6v-1l5.5 1 10.5-3v3Z"/><path fill="#CBCACC" id="och" d="M199 288c0 1.9 4.565.468 5.5 0 4.557-2.278 10.443-1.722 15-4 8.241-4.12 30.796 4 38.5 4v-9c-4.63 0-32.413-3.043-32.5-3-7.325 3.662-17.721 3-26.5 3v9Z"/><path fill="#97D6F9" id="STR" d="M168 283c-.235 0-3.926 5.213-5.5 6-5.728 2.864-11.475 2-17.5 2 0-1.955 1.503-9-3-9v-1c2.546 0 6.999 5.75 10.5 4 3.507-1.753 7.454-2.227 11-4l3.5-4c0 2.124 1 4.436 1 6Z"/><path fill="#E64438" id="HY" d="m267 277-1 1 1-1Z"/><path fill="#97D6F9" id="STR" d="m313 283-2 2.5c-.978 1.956 1 4.077 1 5.5-6.169 0-23 1.385-23-9v-5l6.5 6c6.215 3.107 11.435 0 17.5 0ZM316 278l-1 1 1-1Z"/><path fill="#CAC7CB" id="fiber tracts" d="M193 280h1l-1-1v1Z"/><path fill="#CACCCB" id="opt" d="M191 283c1.766 0 4.248 5 8 5v-9h-1l-4 1h-1c-1.577 0-2 1.762-2 3ZM263 287l-5 1v-9l4 1h2l1 1v3c-1.577 0-2 1.762-2 3Z"/><path fill="#CAC7CB" id="fiber tracts" d="M262 280h1v-1l-1 1Z"/><path fill="#99D2BD" id="OLF" d="m141 280 1 1-1-1Z"/><path fill="#CAC7CB" id="fiber tracts" d="m264 280 1 1-1-1Z"/><path fill="#97D6F9" id="STR" d="M314 281h1v-1l-1 1ZM314 281l-1 2 1-2Z"/><path fill="#99D2BD" id="OLF" d="M312 291h12.5l2.5 2c0-1.634-1.248-4 2-4l-2-4c-1.527 0-12 7.133-12-4h-1l-1 2-2 2.5c-.978 1.956 1 4.077 1 5.5ZM145 291c-4.933 0-10.73 1-15 1 0-2.041-.959-3-3-3l3-4c0 4.167 12 2.295 12-3 4.503 0 3 7.045 3 9Z"/><path fill="#CAC7CB" id="fiber tracts" d="M199 288c0 1.9 4.565.468 5.5 0 4.557-2.278 10.443-1.722 15-4 8.241-4.12 30.796 4 38.5 4l5-1c0 3.11-5.822 2.161-7.5 3-2.851 1.425-23.209-3.105-27-5-2.522-1.261-37.5 13.917-37.5-2 1.766 0 4.248 5 8 5ZM265 284c-1.577 0-2 1.762-2 3 1.577 0 2-1.762 2-3Z"/><path fill="#99D2BD" id="OLF" d="m126 289-1 1 1-1Z"/><path fill="#CAC8C7" id="lot" d="m113 294 1 1 2.5 2c1.935.968 13.5-2.566 13.5-5 0-2.041-.959-3-3-3h-1l-1 1h-1l-1 1h-2l-2 1h-1c0 1.473-1.952 1-3 1l-2 1ZM343 294v1l-5.5 2c-.895-.448-10.192-4-10.5-4 0-1.634-1.248-4 2-4h2c0 1.577 1.762 2 3 2h1l2 1h1c0 1.579 2.855 1 4 1l1 1Z"/><path fill="#99D2BD" id="OLF" d="m331 289 3 2c-1.238 0-3-.423-3-2ZM124 290l-1 1 1-1ZM121 291l-2 1 2-1ZM335 291l2 1-2-1ZM118 292c0 1.473-1.952 1-3 1v-1h3ZM341 292l1 1c-1.145 0-4 .579-4-1h3ZM113 294l1 1-2-1h1ZM344 294l-1 1v-1h1Z"/></svg>