<svg xmlns="http://www.w3.org/2000/svg" viewBox="0 0 456 320"><path fill="#9AD1BD" id="MOB" d="m146 146 1 14c1.845 0 1.441 3.381 2 4.5l5 10c4.363 8.726 6.707 18.414 11 27v17c1.609 3.218 4.352 5.705 6 9l2.5 3.5c4.806 2.403 9.159 5.58 14 8 2.813 1.406 9.437 1.281 12 0l6-1c12.685-6.342 15.5-39.804 15.5-53v-19.5c1.588-3.175 5.739-32.522 4-36-2.581-5.162-4.37-10.741-7-16-1.379-2.758-5-3.778-5-6.5h-1l-1-1-6.5-3c-11.285-5.643-36.164 7.164-43.5 14.5-2.578 2.578-9 7.989-9 11.5l-1 1v1l-1 2-1 1v2l-1 1v1l-1 1v2c0 1.145.579 4-1 4v1ZM309 140v19c0 7.627-12.238 26.975-16 34.5-3.148 6.295.785 20.429-2 26l-4 7c-1.527 3.055-5.971 5.236-8.5 6.5-12.915 6.457-26.637 13.227-35.5-4.5-4.771-9.542-3.722-24.443-7-31-3.143-6.287 2.2-16.6-1-23v-14c-1.212-2.424-5.106-26.789-4-29 3.042-6.084 4.893-12.786 8-19l5-5.5 7.5-4c7.624-3.812 28.266 3.133 34 6l7 6c2.748 1.374 10.5 8.679 10.5 12l1 1 1 3 2 2v2l1 1v1l1 1v2Z"/><path fill="#99D2BD" id="OLF" d="m211 106 1 1-1-1Z"/><path fill="#C7CBCA" id="onl" d="M153 210c0 18.885 30.578 35.039 44.5 42 2.946 1.473 15.588 2.706 19 1 12.34-6.17 10.5-24.146 10.5-36v-23c0-1.406-.714-7 1-7v-17c-1.579 0-1-2.855-1-4v-14c0-15.565 1.668-22.163-5-35.5-1.429-2.857-4.832-9.5-9-9.5 0 2.722 3.621 3.742 5 6.5 2.63 5.259 4.419 10.838 7 16 1.739 3.478-2.412 32.825-4 36V185c0 13.196-2.815 46.658-15.5 53l-6 1c-2.563 1.281-9.187 1.406-12 0-4.841-2.42-9.194-5.597-14-8l-2.5-3.5c-1.648-3.295-4.391-5.782-6-9v-17c-4.293-8.586-6.637-18.274-11-27l-5-10c-.559-1.119-.155-4.5-2-4.5v11c1.684 0 1 4.679 1 6v1c1.714 0 1 5.594 1 7v3c2.144 0 .381 4.262 1 5.5.873 1.746 3 14.769 3 16.5ZM305 207l-2 4c0 17.033-30.513 34.506-43.5 41-3.673 1.836-20.285 2.929-22.5-1.5l-6-8c-4.02-8.04-2-21.955-2-31.5v-70.5c0-9.805 3.421-33.5 15-33.5l-5 5.5c-3.107 6.214-4.958 12.916-8 19-1.106 2.211 2.788 26.576 4 29v14c3.2 6.4-2.143 16.713 1 23 3.278 6.557 2.229 21.458 7 31 8.863 17.727 22.585 10.957 35.5 4.5 2.529-1.264 6.973-3.445 8.5-6.5l4-7c2.785-5.571-1.148-19.705 2-26 3.762-7.525 16-26.873 16-34.5 1.522 0 0 8.928 0 11v5c-1.684 0-1 4.679-1 6v1c-1.7 0-1 5.137-1 6.5 0 5.696-2 11.191-2 17.5v1Z"/><path fill="#99D2BD" id="OLF" d="m303 127 1 1-1-1ZM152 129l-1 1 1-1ZM151 131l-1 2 1-2ZM305 131l2 2-2-2ZM150 133l-1 1 1-1ZM307 135l1 1-1-1ZM149 136l-1 1 1-1ZM308 137l1 1-1-1ZM148 138l-1 1 1-1ZM309 159c1.522 0 0 8.928 0 11 2.064 0 .426-3.353 1-4.5 2.468-4.935 1-13.691 1-19.5 0-1.357-.647-6-2-6v19ZM147 141c-1.579 0-1 2.855-1 4 1.579 0 1-2.855 1-4ZM147 160v8c-2.064 0-.426-3.353-1-4.5-1.829-3.658-1-9.15-1-13.5 0-1.145-.579-4 1-4l1 14ZM227 152c1.579 0 1 2.855 1 4v14c-1.579 0-1-2.855-1-4v-14ZM147 171c1.684 0 1 4.679 1 6-1.684 0-1-4.679-1-6ZM309 175c-1.684 0-1 4.679-1 6 1.684 0 1-4.679 1-6ZM148 178c1.714 0 1 5.594 1 7-1.714 0-1-5.594-1-7ZM308 182c-1.7 0-1 5.137-1 6.5 0 5.696-2 11.191-2 17.5 2.064 0 .426-3.353 1-4.5 2.612-5.224 2-13.267 2-19.5ZM228 187c-1.714 0-1 5.594-1 7v23c1.714 0 1-5.594 1-7v-23ZM149 188c2.144 0 .381 4.262 1 5.5.873 1.746 3 14.769 3 16.5-3.379 0-4-18.193-4-22ZM305 207l-2 4c2.109 0 2-2.535 2-4Z"/></svg>