<svg xmlns="http://www.w3.org/2000/svg" viewBox="0 0 456 320"><path fill="#1E9C59" id="MOs1" d="m224 63-4 2-6-6.5c-3.987-3.987-7.572-4.036-12.5-6.5-5.407-2.703-28.694 2.847-33 5L157 62l-1-6c0-2.378 11.54-4.02 13.5-5 10.45-5.225 40.944-9.613 47.5 3.5.908 1.816 7 5.648 7 8.5ZM233 63c0 1.577 1.762 2 3 2l5.5-6 8-6c1.462-.731 3.436-.218 5-1 5.405-2.703 29.678 2.84 34 5 3.355 1.678 7.587 5 11.5 5v-7c-4.528 0-11.493-3.997-15.5-6h-5c-12.477-6.239-35.986-4.528-42.5 8.5-1.151 2.303-4 2.641-4 5.5Z"/><path fill="#1E9D58" id="MOs2/3" d="M213 70h1l6-4v-1l-6-6.5c-3.987-3.987-7.572-4.036-12.5-6.5-5.407-2.703-28.694 2.847-33 5L157 62v17l6.5-4c7.044-3.522 27.564-15.718 35-12 3.829 1.915 14.5-.006 14.5 7ZM243 70c0-6.813 11.241-5.37 14.5-7 11.072-5.536 34.726 16 41.5 16 0-5.938 1-10.424 1-17-3.913 0-8.145-3.322-11.5-5-4.322-2.16-28.595-7.703-34-5-1.564.782-3.538.269-5 1l-8 6-5.5 6v1c.853 0 6 2.992 6 4h1Z"/><path fill="#1E9D5A" id="MOp1" d="m361 95-1 8-4-4.5L344.5 87c-10.28-5.14-34.094-25-44.5-25v-7c3.055 0 11.391 6.445 14.5 8 7.357 3.679 14.568 8.284 22 12l10 8c2.459 1.23 14.5 8.98 14.5 12ZM96 94c0 1.489-1.333 7 1 7 4.381 0 11.179-12.34 14.5-14 10.857-5.429 34.349-25 45.5-25l-1-6c-10.473 0-36.106 21.803-46.5 27L96 94Z"/><path fill="#1F9C58" id="MOp2/3" d="M99 120c.695 0 2 8.108 2 9l14-20.5c4.127-8.254 23.98-19.74 31.5-23.5l10.5-6V62c-11.151 0-34.643 19.571-45.5 25-3.321 1.66-10.119 14-14.5 14v1l-1 1v1c0 1.233.204 3.907 1 5.5l2 1-2 2c1.112 2.225 2 4.846 2 7.5Z"/><path fill="#1F9D58" id="MOs5" d="m197 86-7.5-1c-5.417 2.708-28.052 15-32.5 15-.828 0 0-3.378 0-5V79l6.5-4c7.044-3.522 27.564-15.718 35-12 3.829 1.915 14.5-.006 14.5 7l-16 16ZM260 87c0-2.268 5.85-2.825 7.5-2 7.356 3.678 24.905 15 32.5 15l-1-21c-6.774 0-30.428-21.536-41.5-16-3.259 1.63-14.5.187-14.5 7 0 2.13 16 12.398 16 17h1Z"/><path fill="#1F9C58" id="MOp2/3" d="M357 121c-.322 0 .148 7-2 7-1.988 0-2.408-3.315-3-4.5l-9-13c-4.823-9.647-24.685-21.092-33.5-25.5-2.74-1.37-7.479-6-10.5-6 0-5.938 1-10.424 1-17 10.406 0 34.22 19.86 44.5 25L356 98.5l4 4.5v1c0 6.241-3 10.329-3 17Z"/><path fill="#3EA665" id="ACAd1" d="M222 98h12l-1-23.5 3-8.5v-1c-1.238 0-3-.423-3-2l-4.5 6-4.5-6-4 2v1c1.59 0 1.443 4.386 2 5.5 3.569 7.138 0 19.165 0 26.5Z"/><path fill="#40A565" id="ACAd2/3" d="M217 99h5v-1c0-7.335 3.569-19.362 0-26.5-.557-1.114-.41-5.5-2-5.5l-6 4 3 6.5V99ZM234 99h6V75.5l2-5.5c0-1.008-5.147-4-6-4l-3 8.5 1 23.5v1Z"/><path fill="#3EA566" id="ACAd5" d="m210 102-9 2c0-3.583 1.406-17-4-17v-1l16-16h1l3 6.5V99l-7 3ZM247 102l8 2c0-3.287.527-17 4-17 0-4.602-16-14.87-16-17h-1l-2 5.5V99l7 3Z"/><path fill="#1E9C5A" id="MOp5" d="M115 167c-4.176 0-8.916 4-12 4 0-5.473-2-8.789-2-14v-28l14-20.5c4.127-8.254 23.98-19.74 31.5-23.5l10.5-6v16c0 1.622-.828 5 0 5v1c-6.251 0-10.288 5.394-15.5 8-26.118 13.059-26.5 31.22-26.5 57v1ZM341 166c3.761 0 8.85 5 12 5 0-3.96.61-5.721 2-8.5.619-1.238-1.144-5.5 1-5.5 0-8.403-1-18.409-1-26v-3c-1.988 0-2.408-3.315-3-4.5l-9-13c-4.823-9.647-24.685-21.092-33.5-25.5-2.74-1.37-7.479-6-10.5-6l1 21v1c5.194 0 9.145 4.823 13.5 7 28.402 14.201 27.5 30.62 27.5 58Z"/><path fill="#1D9C5A" id="MOs6a" d="M184 113c-8.183 0-12.836 2.668-19.5 6l-7.5 6v-25c4.448 0 27.083-12.292 32.5-15l7.5 1v1c-1.917 0-13 22.618-13 26ZM273 113c7.822 0 12.116 2.808 18.5 6l7.5 6 1-24v-1c-7.595 0-25.144-11.322-32.5-15-1.65-.825-7.5-.268-7.5 2 0 4.689 12 17.634 12 26h1Z"/><path fill="#3FA664" id="ACAd6a" d="M187 115h1c0-3.255 10.405-10 13-10v-1c0-3.583 1.406-17-4-17-1.917 0-13 22.618-13 26l3 2ZM269 115h1l2-2c0-8.366-12-21.311-12-26h-1c-3.473 0-4 13.713-4 17v1c4.623 0 12.318 10 14 10Z"/><path fill="#187E61" id="SSp-m1" d="m78 162-4 1c0-28.562-.616-30.268 12-55.5 1.2-2.401 6.895-13.5 10-13.5 0 1.489-1.333 7 1 7v1l-1 1v1c-2.474 0-7.957 10.414-9 12.5-8.251 16.503-9 26.778-9 45.5ZM379 162l4 1c0-24.901-1.18-32.86-12-54.5-1.185-2.37-6.78-13.5-10-13.5l-1 8v1c4.197 0 7.745 9.991 9 12.5 7.541 15.082 10 27.029 10 45.5Z"/><path fill="#40A664" id="ACAv1" d="M229 148h4l1-49v-1h-12v1l1 49h5c0-6.362 1-6.362 1 0Z"/><path fill="#3EA666" id="ACAv5" d="M213 148h6c0-16.477-2-31.89-2-49l-7 3 3 31c0 1.628-2.347 9-4 9v2l4 4Z"/><path fill="#3FA566" id="ACAv2/3" d="M219 148h4l-1-49h-5c0 17.11 2 32.523 2 49ZM233 148h4c0-15.987 3-32.605 3-49h-6l-1 49Z"/><path fill="#3EA666" id="ACAv5" d="M237 148h6l1-1 3-3v-1c0-3.403-3-5.952-3-10 0-10.554 3-20.996 3-31l-7-3c0 16.395-3 33.013-3 49Z"/><path fill="#1F9B5A" id="MOp6a" d="M137 155c-5.994 0-14.516 11-22 11 0-25.78.382-43.941 26.5-57 5.212-2.606 9.249-8 15.5-8v25c-6.949 0-20 22.1-20 28v1ZM319 155l22 11c0-27.38.902-43.799-27.5-58-4.355-2.177-8.306-7-13.5-7l-1 24c6.686 0 20 23.275 20 29v1Z"/><path fill="#1E9D5A" id="MOp1" d="m97 102-1 1 1-1Z"/><path fill="#2EA84F" id="PL5" d="m213 133-7 1c-1.781 0-1.348-6.197-2-7.5-2.579-5.158-3-15.572-3-21.5v-1l9-2 3 31ZM244 133l7 1c0-8.773 4-18.179 4-29v-1l-8-2c0 10.004-3 20.446-3 31Z"/><path fill="#1A7E64" id="SSp-m2/3" d="m89 159-11 3c0-18.722.749-28.997 9-45.5 1.043-2.086 6.526-12.5 9-12.5 0 1.233.204 3.907 1 5.5l2 1-2 2c1.112 2.225 2 4.846 2 7.5l-8 17.5c-2.763 5.526-2 14.905-2 21.5ZM367 159l12 3c0-18.471-2.459-30.418-10-45.5-1.255-2.509-4.803-12.5-9-12.5 0 6.241-3 10.329-3 17 2.295 0 3.263 6.025 4 7.5 4.859 9.718 6 18.638 6 30.5Z"/><path fill="#2FA850" id="PL6a" d="M206 135c-2.833 0-4.84 2-7 2 0-4.126-11-19.682-11-22 0-3.255 10.405-10 13-10 0 5.928.421 16.342 3 21.5.652 1.303.219 7.5 2 7.5v1ZM257 137h1l3-6c0-2.937 3.195-14 7-14l1-1v-1c-1.682 0-9.377-10-14-10 0 10.821-4 20.227-4 29v1c1.357 0 6 .647 6 2Z"/><path fill="#1E9C58" id="MOs6b" d="M157 126v1c4.291 0 7.308-8 12-8 0-3.748 12.083-5 15-5v-1c-8.183 0-12.836 2.668-19.5 6l-7.5 6v1Z"/><path fill="#3FA466" id="ACAd6b" d="M187 115v1l-3-2v-1l3 2ZM273 114l-3 1 2-2h1v1Z"/><path fill="#1E9C58" id="MOs6b" d="M299 125v1c-5.073 0-6.577-7-12-7 0-3.843-11.161-5-14-5v-1c7.822 0 12.116 2.808 18.5 6l7.5 6Z"/><path fill="#CACCC7" id="cing" d="M201 147v11c-1.989 0-2.998-14.496-4-16.5-4.083-8.166-5.534-18.017-14.5-22.5l-9.5 1c-1.145 0-4 .579-4-1 0-3.748 12.083-5 15-5l3 2c0 2.324 10 15.879 10 21l3 6 1 4ZM255 147c0 1.657-.763 10 1 10 1.684 0 1-4.679 1-6 0-3.481 2.431-11.362 4-14.5 7.984-15.968 5.01-16.5 23-16.5 1.048 0 3 .473 3-1 0-3.843-11.161-5-14-5l-3 1-1 1-1 1c0 2.339-3.838 10.175-5 12.5l-2 1.5c0 2.483-2 4.026-2 6l-2 6-2 4Z"/><path fill="#2FA84F" id="PL6b" d="M197 137h2c0-4.126-11-19.682-11-22h-1v1c0 2.324 10 15.879 10 21Z"/><path fill="#3FA466" id="ACAd6b" d="m270 115-1 1v-1h1Z"/><path fill="#2FA84F" id="PL6b" d="m269 116-1 1 1-1ZM268 117c-3.805 0-7 11.063-7 14l2-1.5c1.162-2.325 5-10.161 5-12.5Z"/><path fill="#C9C9CA" id="scwm" d="M140 153c0 2.676-.09 15 2 15 0-13.125.702-23.202 10-32.5l14.5-11.5 6.5-4c-1.145 0-4 .579-4-1-4.692 0-7.709 8-12 8l-8 8.5c-4.738 4.738-9 10.851-9 17.5Z"/><path fill="#CAC7CC" id="fa" d="m147 170-4 1-1-1v-2c0-13.125.702-23.202 10-32.5l14.5-11.5 6.5-4 9.5-1c8.966 4.483 10.417 14.334 14.5 22.5 1.002 2.004 2.011 16.5 4 16.5v1c-1.031 0-3.289 2-6 2 0-3.224-2.666-4.832-4-7.5-6.349-12.699-24.568-17.466-38.5-10.5-11.68 5.84-5.5 18.35-5.5 27ZM313 171h1l1-5c0-9.835-1.96-17.42-6-25.5l-6-7-19-13.5c-17.99 0-15.016.532-23 16.5-1.569 3.138-4 11.019-4 14.5 0 1.321.684 6-1 6v2c0 2.461 3.378 2 5 2l4-7.5c8.355-16.71 28.137-15.182 41.5-8.5 3.983 1.991 6.789 15.923 4.5 20.5l-2 3.5 4 2Z"/><path fill="#C9C9CA" id="scwm" d="M317 153c0 2.361.735 13-2 13 0-9.835-1.96-17.42-6-25.5l-6-7-19-13.5c1.048 0 3 .473 3-1 5.423 0 6.927 7 12 7l8 8.5c3.142 6.284 10 10.671 10 18.5Z"/><path fill="#1B7F62" id="SSp-m4" d="m94 158-5 1c0-6.595-.763-15.974 2-21.5l8-17.5c.695 0 2 8.108 2 9v1c-1.186 0-1.186 1 0 1v1c-2.519 0-6 20.649-6 25l-1 1ZM362 158l5 1c0-11.862-1.141-20.782-6-30.5-.737-1.475-1.705-7.5-4-7.5-.322 0 .148 7-2 7v3c2.162 0 2.284 6.067 3 7.5 2.637 5.273 4 13.263 4 19.5Z"/><path fill="#1D9D5A" id="MOp6b" d="m317 153 2 1c0-5.725-13.314-29-20-29v1l8 8.5c3.142 6.284 10 10.671 10 18.5ZM140 153l-3 1c0-5.9 13.051-28 20-28v1l-8 8.5c-4.738 4.738-9 10.851-9 17.5Z"/><path fill="#1F9C58" id="MOp2/3" d="M101 130c-1.186 0-1.186 1 0 1v-1Z"/><path fill="#2FA84F" id="PL6b" d="M258 137h1c0-1.974 2-3.517 2-6l-3 6Z"/><path fill="#1B7E63" id="SSp-m5" d="M356 157c2.124 0 4.436 1 6 1 0-6.237-1.363-14.227-4-19.5-.716-1.433-.838-7.5-3-7.5 0 7.591 1 17.597 1 26ZM95 157h6v-25c-2.519 0-6 20.649-6 25Z"/><path fill="#59B262" id="ILA5" d="M206 135c0 1.345 1.571 7 3 7 1.653 0 4-7.372 4-9l-7 1v1ZM251 135l-4 8c0-3.403-3-5.952-3-10l7 1v1Z"/><path fill="#58B362" id="ILA6a" d="M201 147h5c0-1.539 1.342-3 3-3v-2c-1.429 0-3-5.655-3-7-2.833 0-4.84 2-7 2 0 1.402 2.483 6 1 6l1 4ZM251 147h4l2-4c-2.112 0 0-4.643 0-6 0-1.353-4.643-2-6-2l-4 8v1c1.577 0 2 1.762 2 3h1c0-2.212 1-2.212 1 0Z"/><path fill="#58B263" id="ILA6b" d="M199 137c0 1.402 2.483 6 1 6l-3-6h2ZM259 137l-2 6c-2.112 0 0-4.643 0-6h2Z"/><path fill="#98D5F9" id="CP" d="m163 205-1 1c-8.744 0-6.468-10-9-10v-5c0-2.811-1.312-21-6-21 0-8.65-6.18-21.16 5.5-27 13.932-6.966 32.151-2.199 38.5 10.5 1.334 2.668 4 4.276 4 7.5l1 21c-1.014 0-2 3.959-2 5l-5.5 5c-4.149 2.074-8.926 2.963-13 5l-12.5 8ZM303 195c0 2.019-2.435 9.968-4.5 11l-4.5-1c-3.415 0-7.298-4.899-9.5-6l-15-6-6.5-6-2-5v-21l4-7.5c8.355-16.71 28.137-15.182 41.5-8.5 3.983 1.991 6.789 15.923 4.5 20.5l-2 3.5c0 3.106-6 12.267-6 21v5Z"/><path fill="#40A564" id="ACAv6a" d="m206 147 7 1-4-4c-1.658 0-3 1.461-3 3ZM249 147l-5 1v-1l3-3c1.577 0 2 1.762 2 3ZM250 147h1c0-2.212-1-2.212-1 0Z"/><path fill="#A3DAA3" id="DP" d="M227 167h-20.5l-1.5 2c0-1.883-4-5.321-4-10v-12h5l7 1h14l1 2v7c0 2.69-1 6.675-1 10Z"/><path fill="#59B262" id="ILA5" d="M243 148h1v-1l-1 1Z"/><path fill="#A3DAA3" id="DP" d="M230 167c3.201 0 21-1.047 21 2 4.781 0 3.028-10 5-10v-2c-1.763 0-1-8.343-1-10h-6l-5 1h-15v9c0 3.51 1 7.022 1 10Z"/><path fill="#99D2BD" id="OLF" d="M228 148v2l-1-2h1Z"/><path fill="#1F9766" id="AId6b" d="M140 172h1l1-2v-2c-2.09 0-2-12.324-2-15l-3 1v1c0 6.377 3 11.531 3 17ZM314 171l2 1c0-3.117 3-10.1 3-17v-1l-2-1c0 2.361.735 13-2 13l-1 5Z"/><path fill="#209666" id="AId6a" d="M126 187h1l2-3-4-5.5c-1.84-3.68 3.999-8.249 6.5-9.5 4.123-2.061 6.479 4 8.5 4v-1c0-5.469-3-10.623-3-17-5.994 0-14.516 11-22 11v1c0 9.268 11 14.753 11 20ZM330 187h1c0-5.101 10-10.135 10-21l-22-11c0 6.9-3 13.883-3 17v1l5.5-4c4.518-2.259 11.811 5.878 9.5 10.5l-4 4.5 3 3Z"/><path fill="#1B7E63" id="SSp-m5" d="m95 157-1 1 1-1Z"/><path fill="#019C75" id="GU5" d="M103 171c-3.14 0-6.346 4-10 4 0-5.909 1-11.579 1-17l1-1h6c0 5.211 2 8.527 2 14Z"/><path fill="#99D2BD" id="OLF" d="m227 167 1 1.5c2.611 5.222-.934-1.5 2-1.5 0-2.978-1-6.49-1-10h-1c0 2.69-1 6.675-1 10Z"/><path fill="#019C75" id="GU5" d="M353 171c3 0 5.928 4 10 4 0-5.587-1-12.081-1-17-1.564 0-3.876-1-6-1-2.144 0-.381 4.262-1 5.5-1.39 2.779-2 4.54-2 8.5Z"/><path fill="#009C74" id="GU4" d="M92 175h1c0-5.909 1-11.579 1-17l-5 1 3 16ZM363 175l2 1 2-17-5-1c0 4.919 1 11.413 1 17Z"/><path fill="#009B75" id="GU2/3" d="M92 175c0 1.944-9.344 6-11 6l-3-19 11-3 3 16Z"/><path fill="#99D2BD" id="OLF" d="M200 191c2.259 0 3.345-4.578 6.5-3l5.5 4c0-4.715-7-13.183-7-23 0-1.883-4-5.321-4-10-1.031 0-3.289 2-6 2l1 21 1 5 3 4ZM245 191c2.048 0 4.872-4.314 7.5-3 1.978.989 2.023 3 4.5 3l2-4c0-1.041.986-5 2-5v-21c-1.622 0-5 .461-5-2-1.972 0-.219 10-5 10 0 9.917-6 17.298-6 22Z"/><path fill="#009B75" id="GU2/3" d="M365 176c0 2.063 8.058 4 10 4 0-5.574 4-12.206 4-18l-12-3-2 17Z"/><path fill="#009C75" id="GU1" d="m81 181-4 1c0-6.481-3-12.149-3-19l4-1 3 19ZM375 181l4 1c0-6.05 4-12.635 4-19l-4-1c0 5.794-4 12.426-4 18v1Z"/><path fill="#209665" id="AId5" d="M356 198h1l4-7.5c2.064-4.128 2-10.544 2-15.5-4.072 0-7-4-10-4-3.15 0-8.239-5-12-5 0 10.865-10 15.899-10 21 0 2.912 21.467 11 25 11ZM99 198h1c3.7 0 26-8.439 26-11 0-5.247-11-10.732-11-20-4.176 0-8.916 4-12 4-3.14 0-6.346 4-10 4 0 8.117 6 17.776 6 23Z"/><path fill="#61D09F" id="TTd" d="M214 193c3.108 0 7.775 3.862 11.5 2l3-5c.405 0 .711 4.356 2 5l10.5-1 3-2 1-1c0-4.702 6-12.083 6-22 0-3.047-17.799-2-21-2-2.934 0 .611 6.722-2 1.5l-1-1.5h-20.5l-1.5 2c0 9.817 7 18.285 7 23l2 1Z"/><path fill="#8ADA86" id="CLA" d="m147 181 1 6.5c-5.418 10.836-13.88-3.5-19-3.5l-4-5.5c-1.84-3.68 3.999-8.249 6.5-9.5 4.123-2.061 6.479 4 8.5 4h1v1l6 6v1Z"/><path fill="#C8CBCC" id="ec" d="m303 190 7 4c0-.061-6.277-10-2-10l1-2v-1l4-8v-2l-4-2c0 3.106-6 12.267-6 21Z"/><path fill="#8ADA86" id="CLA" d="M308 184c0 16.716 18.719 0 19 0l4-4.5c2.311-4.622-4.982-12.759-9.5-10.5l-5.5 4-1 1-6 7v1l-1 2Z"/><path fill="#219665" id="AIv6b" d="m143 173-2 1v-2l1-2 1 1v2Z"/><path fill="#C8CBCC" id="ec" d="m153 191-7 3 1.5-3c2.286-1.143 2.885-10-.5-10v-1c0-1.385-2.199-7-4-7v-2l4-1c4.688 0 6 18.189 6 21Z"/><path fill="#219665" id="AIv6b" d="m316 173-1 1-2-1v-2h1l2 1v1Z"/><path fill="#1F9866" id="AIv6a" d="M140 173h1v-1h-1v1ZM141 174l6 6c0-1.385-2.199-7-4-7l-2 1ZM315 174l-6 7 4-8 2 1ZM316 173l-1 1 1-1Z"/><path fill="#209765" id="AId2/3" d="M99 198c0 1.098-8.47 3-10 3-1.845 0-1.44-3.381-2-4.5-2.063-4.127-6-10.815-6-15.5 1.656 0 11-4.056 11-6h1c0 8.117 6 17.776 6 23ZM357 198c3.414 0 6.353 3 10 3 1.857 0 8-17.288 8-20v-1c-1.942 0-10-1.937-10-4l-2-1c0 4.956.064 11.372-2 15.5l-4 7.5Z"/><path fill="#209764" id="AId1" d="m89 202-4 1c0-6.746-8-13.988-8-21l4-1c0 4.685 3.937 11.373 6 15.5.56 1.119.155 4.5 2 4.5v1Z"/><path fill="#1F9866" id="AIv6a" d="m143 199-5 2c-2.125 0-11-11.926-11-14l2-3c5.12 0 13.582 14.336 19 3.5l-1-6.5c3.385 0 2.786 8.857.5 10l-1.5 3c0 1.947-3 2.636-3 5Z"/><path fill="#209764" id="AId1" d="m367 202 4 1c0-3.635 8-14.407 8-21l-4-1c0 2.712-6.143 20-8 20v1Z"/><path fill="#97D6F9" id="STR" d="M194 187h3l-1-5c-1.014 0-2 3.959-2 5ZM259 187h4l-2-5c-1.014 0-2 3.959-2 5Z"/><path fill="#1F9866" id="AIv6a" d="m309 182-1 2 1-2ZM314 199l5 3c0-5.634 11-9.614 11-15l-3-3c-.281 0-19 16.716-19 0-4.277 0 2 9.939 2 10l4 5Z"/><path fill="#80CDF8" id="ACB" fill-rule="evenodd" d="M280 210c0 .276-3.429 4.357-4 5.5-1.474 2.947 3.452 10.5 6.5 10.5 9.853 0 6.598-16-2.5-16m-38 23c0 3.997-.67 9.161 1 12.5 5.882 11.763 22.336 19.082 33.5 13.5 5.878-2.939 18.5-2.844 18.5-13 0-1.606 2.081-4.339 1-6.5-1.258-2.516-3.408-13.184-2-16l4-6.5c0-4.921-4-7.731-4-12-3.415 0-7.298-4.899-9.5-6l-15-6-6.5-6h-4l-2 4-6 9.5c-4.67 9.34-9 21.32-9 32.5Z"/><path fill="#1F9865" id="AIv5" d="M130 207c-3.647 0-6.586 3-10 3 0-5.647-20-6.055-20-12 3.7 0 26-8.439 26-11h1c0 2.074 8.875 14 11 14 0 1.429-1.288 4-3 4-1.041 0-5 .986-5 2Z"/><path fill="#80CDF8" id="ACB" fill-rule="evenodd" d="M174 210c0 .669-6.143 6.785-7 8.5-1.187 2.374 3.49 3.98 4 5 4.426 8.853 16.398-13.5 3-13.5m41 23-1 11.5c-3.829 7.659-19.428 20.036-28.5 15.5-5.258-2.629-24.5-2.108-24.5-14v-12.5c.643-1.286 2.679-6.641 2-8l-4-7.5c0-6.267 3-10.191 3-12l1-1 12.5-8c4.074-2.037 8.851-2.926 13-5l5.5-5h3l3 4c0 3.596 3.507 5.515 5 8.5 4.034 8.068 10 24.118 10 33.5Z"/><path fill="#1F9865" id="AIv5" d="m326 207 11 3c0-7.007 19-4.902 19-12-3.533 0-25-8.088-25-11h-1c0 5.386-11 9.366-11 15l2 3c1.041 0 5 .986 5 2Z"/><path fill="#97D6F9" id="STR" fill-rule="evenodd" d="M245 200c0 1.953-7.589 12.955-3.5 15 2.755 1.377 6.539-15 3.5-15m-35 0 1 9.5c.336.673 5 8.115 5 4 0-2.485-2.613-13.5-6-13.5m24 55c-1.46 0-2.088-11.588-3.5-13l-3-3c-2.833 1.417-3.162 9.823-4.5 12.5-.619 1.238 1.144 5.5-1 5.5 0-3.77-2-7.021-2-10 0-2.789-1.728-14-5-14 0-9.382-5.966-25.432-10-33.5-1.493-2.985-5-4.904-5-8.5 2.259 0 3.345-4.578 6.5-3l5.5 4 2 1 2.5 2c9.789 4.894 7.725-1 12-1l3 3c2.195 1.097 9.5-.327 9.5-3l3-2 1-1c2.048 0 4.872-4.314 7.5-3 1.978.989 2.023 3 4.5 3l-6 9.5c-4.67 9.34-9 21.32-9 32.5-4.389 0-5 10.506-5 13 0 2.933-3 5.321-3 9Z"/><path fill="#99D2BD" id="OLF" d="M214 193c3.108 0 7.775 3.862 11.5 2l3-5c.405 0 .711 4.356 2 5l10.5-1c0 2.673-7.305 4.097-9.5 3l-3-3c-4.275 0-2.211 5.894-12 1l-2.5-2Z"/><path fill="#8AD987" id="CTXsp" d="m314 199-5.5-1-3.5 3c0-1.235.643-5-1-5l-1-1v-5l7 4 4 5ZM143 199l4.5-1 3.5 2c0-1.424.362-5 2-5v-4l-7 3c0 1.947-3 2.636-3 5Z"/><path fill="#99D2BD" id="OLF" d="m245 191-1 1 1-1ZM148 251h3c0-1.707 8.452-5 10-5v-12.5c.643-1.286 2.679-6.641 2-8l-4-7.5c-6.592 0-6-18.665-6-22v-1c-1.638 0-2 3.576-2 5 0 7.169 1.08 11.66 4 17.5l6 6c.769 1.538-1.242 3.871-2.5 4.5-6.092 3.046-11.69-5-16.5-5 0 1.988 3.315 2.408 4.5 3 4.252 2.126 7.583 6.666 9.5 10.5 3.247 6.495-8 9.854-8 14.5Z"/><path fill="#97D6F9" id="STR" d="M294 205c0 4.269 4 7.079 4 12 5.081 0 6-16.867 6-21l-1-1c0 2.019-2.435 9.968-4.5 11l-4.5-1ZM162 206c0 1.809-3 5.733-3 12-6.592 0-6-18.665-6-22 2.532 0 .256 10 9 10Z"/><path fill="#99D2BD" id="OLF" d="M305 251h4c0-2.416-11.968-8.565-8-16.5 1.432-2.864 10-7.033 10-9.5-3.912 0-8.851 5.325-13.5 3-2.618-1.309-1.353-4.795-.5-6.5 5.043-10.086 8-4.721 8-20.5 0-1.235.643-5-1-5 0 4.133-.919 21-6 21l-4 6.5c-1.408 2.816.742 13.484 2 16 1.081 2.161-1 4.894-1 6.5 1.63 0 10 3.233 10 5Z"/><path fill="#219764" id="AIv2/3" d="M120 210c-6.975 0-13.705 5-21 5 0-4.231-10-7.712-10-13v-1c1.53 0 10-1.902 10-3h1c0 5.945 20 6.353 20 12Z"/><path fill="#A0EE9C" id="EPd" d="M141 223h1c4.81 0 10.408 8.046 16.5 5 1.258-.629 3.269-2.962 2.5-4.5l-6-6c-2.92-5.84-4-10.331-4-17.5l-3.5-2-4.5 1-5 2c0 1.429-1.288 4-3 4 0 2.707-3 4.912-3 9v1l1 1v1c1.061 0 5 2.571 5 4h1l2 2ZM313 224l-2 1c-3.912 0-8.851 5.325-13.5 3-2.618-1.309-1.353-4.795-.5-6.5 5.043-10.086 8-4.721 8-20.5l3.5-3 5.5 1 5 3 2 3 4 6v2l-1 2-1 2-1 1-1 1c-1.747 0-2 .253-2 2h-1l-1 1-2 1-2 1Z"/><path fill="#219764" id="AIv2/3" d="M337 210c0 2.064 3.353.426 4.5 1 4.008 2.004 10.869 4 15.5 4 0-4.327 10-8.161 10-13v-1c-3.647 0-6.586-3-10-3h-1c0 7.098-19 4.993-19 12Z"/><path fill="#90CAED" id="LSr" d="m210 200 1 9.5c.336.673 5 8.115 5 4 0-2.485-2.613-13.5-6-13.5ZM245 200c0 1.953-7.589 12.955-3.5 15 2.755 1.377 6.539-15 3.5-15Z"/><path fill="#209864" id="AIv1" d="m99 215-4 2c-2.473 0-7.019-9.537-8-11.5l-2-2.5 4-1c0 5.288 10 8.769 10 13ZM357 215c.671 0 5 1.328 5 2 1.549 0 9-12.059 9-14l-4-1c0 4.839-10 8.673-10 13Z"/><path fill="#99D2BD" id="OLF" d="M130 207c0 .759 1.318 7 2 7 0-4.088 3-6.293 3-9-1.041 0-5 .986-5 2Z"/><path fill="#97D6F9" id="STR" d="m163 205-1 1 1-1Z"/><path fill="#99D2BD" id="OLF" d="m326 207-1 4-4-6c1.041 0 5 .986 5 2Z"/><path fill="#6ACAB9" id="PIR" d="M136 255h2c3.223 0 6.355-4 10-4 0-4.646 11.247-8.005 8-14.5-1.917-3.834-5.248-8.374-9.5-10.5-1.185-.592-4.5-1.012-4.5-3h-1l-2-2h-1c-1.247 0-5-2.467-5-4v-1l-1-1v-1c-.682 0-2-6.241-2-7-3.647 0-6.586 3-10 3-6.975 0-13.705 5-21 5l-4 2c0 6.905 5.108 13.608 10 18.5l8 7.5c6.15 0 10.533 3.017 16.5 6l6.5 6ZM319 255h2c0-5.492 18.767-12 22-12l6-4.5c3.05-6.1 13-12.505 13-21.5 0-.672-4.329-2-5-2-4.631 0-11.492-1.996-15.5-4-1.147-.574-4.5 1.064-4.5-1l-11-3-1 4v2l-1 2-1 2-1 1-1 1-2 2h-1l-1 1-2 1-2 1-2 1c0 2.467-8.568 6.636-10 9.5-3.968 7.935 8 14.084 8 16.5l10 4Z"/><path fill="#CBCBC7" id="aco" d="M174 210c0 .669-6.143 6.785-7 8.5-1.187 2.374 3.49 3.98 4 5 4.426 8.853 16.398-13.5 3-13.5ZM280 210c0 .276-3.429 4.357-4 5.5-1.474 2.947 3.452 10.5 6.5 10.5 9.853 0 6.598-16-2.5-16Z"/><path fill="#99D2BD" id="OLF" d="m325 213-1 2 1-2ZM132 215l1 1-1-1ZM324 215l-1 2 1-2ZM133 217c1.061 0 5 2.571 5 4-1.247 0-5-2.467-5-4ZM323 217l-1 1 1-1ZM322 218l-1 1 1-1ZM321 219c-1.747 0-2 .253-2 2l2-2ZM139 221l2 2-2-2ZM318 221l-1 1 1-1ZM317 222l-2 1 2-1ZM315 223l-2 1 2-1ZM313 224l-2 1 2-1Z"/><path fill="#A2B1D7" id="SI" d="M220 247c-8.294 0-2.238 5.369-7.5 8-3.676 1.838-6.228 6.114-10 8l-11 4c-8.094 4.047-26.739-6.869-33-10-1.658-.829-7.5-3.415-7.5-6 0-1.707 8.452-5 10-5 0 11.892 19.242 11.371 24.5 14 9.072 4.536 24.671-7.841 28.5-15.5l1-11.5c3.272 0 5 11.211 5 14ZM295 246c1.63 0 10 3.233 10 5 0 2.924-5.738 5.119-7.5 6-6.528 3.264-24.377 14.311-33 10-6.323-3.161-13.041-5.041-18.5-10.5-3.372-3.372-4.634-10.5-9-10.5 0-2.494.611-13 5-13 0 3.997-.67 9.161 1 12.5 5.882 11.763 22.336 19.082 33.5 13.5 5.878-2.939 18.5-2.844 18.5-13Z"/><path fill="#CAC8C7" id="lot" d="M136 255c0 1.321.684 6-1 6-1.154 0-22-16.18-22-18 6.15 0 10.533 3.017 16.5 6l6.5 6ZM320 260l1 1c2.658 0 22-16.344 22-18-3.233 0-22 6.508-22 12l-1 2v3Z"/><path fill="#7FCCF7" id="OT" d="m217 269-1 1c0 4.688-9.227 9.363-12.5 11l-6 4c-1.72.86-33.468.266-34 0-4.818-2.409-9.1-5.55-14-8-3.443-1.721-11.5-8.921-11.5-13l-1-2c0-2.409 1-5.181 1-7 3.223 0 6.355-4 10-4h3c0 2.585 5.842 5.171 7.5 6 6.261 3.131 24.906 14.047 33 10l11-4c3.772-1.886 6.324-6.162 10-8 5.262-2.631-.794-8 7.5-8 0 2.979 2 6.23 2 10l-1 2v1l-1 2v1l-1 1v1l-1 1-1 3ZM238 266l1 1c0 4.437 6.047 9.273 9.5 11 3.975 1.987 7.107 5.054 11 7 1.65.825 33.61.195 34 0 4.171-2.085 7.784-4.892 12-7 3.091-1.546 12.5-9.207 12.5-13l1-1v-1l1-2v-4l-1-2-10-4h-4c0 2.924-5.738 5.119-7.5 6-6.528 3.264-24.377 14.311-33 10-6.323-3.161-13.041-5.041-18.5-10.5-3.372-3.372-4.634-10.5-9-10.5 0 2.933-3 5.321-3 9v1l1 2v1l2 4 1 3Z"/><path fill="#99D2BD" id="OLF" d="M136 262h1c0-2.409 1-5.181 1-7h-2c0 1.321.684 6-1 6l1 1ZM321 255l-1 2-1-2h2Z"/><path fill="#97D6F9" id="STR" d="m234 256 1 2-1-2ZM222 257l-1 2 1-2ZM235 259l2 4-2-4ZM221 260l-1 2 1-2Z"/><path fill="#99D2BD" id="OLF" d="m321 261-1 1v-2l1 1Z"/><path fill="#97D6F9" id="STR" d="m320 262-1 1 1-2v1ZM137 262l1 2-2-2h1ZM220 263l-1 1 1-1ZM319 264l-1 1 1-1ZM219 265l-1 1 1-1ZM238 266l1 1-1-1Z"/><path fill="#8599CC" id="PAL" d="m217 269-1 1 1-1Z"/></svg>