<svg xmlns="http://www.w3.org/2000/svg" viewBox="0 0 456 320"><path fill="#1E9C59" id="MOs1" d="M158 141h1l2-12c0-2.371-3.737-4.973-5-7.5-.57-1.14-.263-6.5 1-6.5v-3l1-1v-1l1-1v-1l1-1 1-1 1-1 1-1 2-1 2-2 2-1 1-1h1c0-2.153 7.075-3 9-3h1l2-1h14c0-2.565 4-3.91 4-7-2.253 0-6.469-.984-8.5-2-6.12-3.06-26.092 4.546-31 7l-6 5-6.5 5.5c-3.782 7.564-13.686 18.628-9 28 .815 1.63-.181 6.5 3 6.5l15 3ZM314 138l-16 3c0-4.396-3-7.671-3-12 0-3.852 7.142-6.216 5-10.5-.574-1.147 1.064-4.5-1-4.5v-3l-1-1-1-2c0-2.832-8.673-9-11-9h-1c0-2.109-2.535-2-4-2h-1l-2-1h-2c0-1.473-1.952-1-3-1h-14c0-2.83-4-4.54-4-7 4.601 0 12.516-4.492 17.5-2 4.149 2.075 9.872.936 14 3 8.455 4.228 19.625 9.75 24.5 19.5l6 14c2.771 5.543-3 11.403-3 15.5Z"/><path fill="#2FA750" id="PL1" d="m214 110 10 2c0-10.719-12.014-24-23-24 0 3.09-4 4.435-4 7l1 1h1l1 1h2l1 1 2 1c2.698 0 8 6.407 8 9v1l1 1ZM243 110l-10 2c0-10.793 10.768-24 22-24 0 2.46 4 4.17 4 7l-2 1-1 1h-2l-1 1-1 1c-3.478 0-9 6.813-9 10v1Z"/><path fill="#1E9D58" id="MOs2/3" d="m183 95-2 1 2-1Z"/><path fill="#268E45" id="FRP2/3" d="M210 120h1c0-2.95 2-7.018 2-11v-1c-1.339 0-8-7.826-8-9l-2-1-1-1h-2l-1-1h-1l-2-1h-13l-2 1h-1c0 1.409-7.407 3-9 3h-1l-1 1-2 1c0 1.747-.253 2-2 2l-2 1-1 1-1 1-1 1-1 1v1l-1 1v1l-1 1v3c0 10.641 10.807 6 18 6l2-1h1l1-1h2l8-4c7.191 0 13.648 4 20 4l1 1Z"/><path fill="#268F45" id="FRP1" d="m197 95 1 1-2-1h1ZM261 95c0 1.58-2.855 1-4 1l2-1h2Z"/><path fill="#268E45" id="FRP2/3" d="M281 121h1c8.151 0 17 4.646 17-7v-3l-1-1-1-2-11-9h-1l-4-2h-1l-2-1h-2c-1.048 0-3 .473-3-1h-12c0 1.58-2.855 1-4 1l-1 1h-2l-1 1-1 1-9 10v2c0 3.676 3 6.439 3 9h1l1-1c5.22 0 12.123-4 19-4 1.49 0 8 2.206 8 4l4 1 2 1Z"/><path fill="#1E9D58" id="MOs2/3" d="M273 95c1.048 0 3-.473 3 1-1.048 0-3 .473-3-1ZM180 96c-1.925 0-9 .847-9 3 1.593 0 9-1.591 9-3Z"/><path fill="#268F45" id="FRP1" d="m199 96 1 1-1-1ZM257 96l-1 1 1-1Z"/><path fill="#1E9D58" id="MOs2/3" d="m278 96 2 1-2-1Z"/><path fill="#268F45" id="FRP1" d="m202 97 1 1-1-1ZM254 97l-1 1 1-1Z"/><path fill="#1E9D58" id="MOs2/3" d="M281 97c1.465 0 4-.109 4 2l-4-2ZM170 99l-1 1 1-1Z"/><path fill="#2FA74F" id="PL2/3" d="M205 99c2.698 0 8 6.407 8 9-1.339 0-8-7.826-8-9ZM252 99c-3.478 0-9 6.813-9 10l9-10Z"/><path fill="#1E9D58" id="MOs2/3" d="M286 99c2.327 0 11 6.168 11 9l-11-9ZM169 100l-2 1 2-1ZM167 101l-2 2c1.747 0 2-.253 2-2ZM165 103l-2 1 2-1ZM163 104l-1 1 1-1ZM162 105l-1 1 1-1ZM160 107l-1 1 1-1ZM159 109l-1 1 1-1Z"/><path fill="#268F45" id="FRP1" d="M214 110c0 7.367 4.084 10-3 10 0-2.95 2-7.018 2-11l1 1Z"/><path fill="#23895D" id="ORBm1" d="M213 135c0 6.296 6.527 2 8 2 0-4.599 2.031-10.563 4-14.5l-1-10.5-10-2c0 7.367 4.084 10-3 10h-2c0 5.948 4 9.932 4 15ZM244 135c-.67 0-1.599 3-8 3 0-6.644-4-12.097-4-19.5 0-1.363-.7-6.5 1-6.5l10-2v1c-1.603 0-2.351 9.075-.5 10l3.5-1h1c0 4.709-3 9.427-3 15Z"/><path fill="#1E9D58" id="MOs2/3" d="m298 110 1 1-1-1ZM158 111l-1 1 1-1Z"/><path fill="#268F45" id="FRP1" d="M243 111c-1.603 0-2.351 9.075-.5 10l3.5-1c0-2.561-3-5.324-3-9ZM282 121c0 3.24 9.992 8 13 8 0-3.852 7.142-6.216 5-10.5-.574-1.147 1.064-4.5-1-4.5 0 11.646-8.849 7-17 7ZM175 121c0 2.877-10.961 8-14 8 0-2.371-3.737-4.973-5-7.5-.57-1.14-.263-6.5 1-6.5 0 10.641 10.807 6 18 6Z"/><path fill="#238A5E" id="ORBl2/3" d="M188 120h1v-5l-8 4 7 1Z"/><path fill="#248A5D" id="ORBvl2/3" d="M189 120h20v-1c-6.352 0-12.809-4-20-4v5ZM248 120h20l-1-5c-6.877 0-13.78 4-19 4v1Z"/><path fill="#238A5E" id="ORBl2/3" d="M275 119c-1.819 0-4.591 1-7 1l-1-5c1.49 0 8 2.206 8 4Z"/><path fill="#268F45" id="FRP1" d="m179 119-1 1 1-1Z"/><path fill="#238A5D" id="ORBl1" d="M173 133c-5.022 0-8.648 8-14 8l2-12c3.039 0 14-5.123 14-8l2-1h1l1-1h2l7 1-1 9c-4.885 0-8.723 3-13 3l-1 1Z"/><path fill="#24885D" id="ORBm2/3" d="M209 120h1l-1-1v1ZM247 120h1v-1l-1 1Z"/><path fill="#238A5D" id="ORBl1" d="M298 141v1l-16-10c-3.854 0-7.403-3-12-3l-2-9c2.409 0 5.181-1 7-1l4 1 2 1h1c0 3.24 9.992 8 13 8 0 4.329 3 7.604 3 12Z"/><path fill="#268F45" id="FRP1" d="m177 120-2 1 2-1Z"/><path fill="#248A5B" id="ORBvl1" d="M191 129c9.966 0 18.694 6 22 6 0-5.068-4-9.052-4-15h-21l-1 9h4ZM265 129h5l-2-9h-21c0 4.709-3 9.427-3 15l6.5-4c4.045-2.022 9.617-2 14.5-2Z"/><path fill="#268F45" id="FRP1" d="m279 120 2 1-2-1Z"/><path fill="#9DF0D1" id="AOBgl" d="m173 142 6.5 4c4.649 2.325 9.588-3 13.5-3 0-2.858 1-5.278 1-8l-3-6h-4c-4.885 0-8.723 3-13 3l-1 1v9Z"/><path fill="#99D2BD" id="OLF" d="m217 145-1-2.5c0-4.526 6.505 2.5 7 2.5 0-2.338-2-4.862-2-8-1.473 0-8 4.296-8-2-3.306 0-12.034-6-22-6l3 6c5.838 0 9.849-.826 15.5 2 2.125 1.062 6.653 8 7.5 8ZM235 143c4.309 0 4-4.584 4 2 2.167 0 5.033-6.767 7.5-8 5.54-2.77 9.803-2 15.5-2l3-6c-4.883 0-10.455-.022-14.5 2l-6.5 4c-.67 0-1.599 3-8 3l-1 5Z"/><path fill="#9DF0D1" id="AOBgl" d="m283 142-2 1.5c-6.003 6.003-11.256-.5-17-.5 0-2.338-2-4.862-2-8l3-6h5c4.597 0 8.146 3 12 3 0 2.755 2 5.553 2 9l-1 1Z"/><path fill="#99D2BD" id="OLF" d="m174 132-1 1 1-1ZM279 224c1.429 0 4-1.787 4 1 1.845 0 1.441-3.381 2-4.5 2.272-4.545 3.761-9.522 6-14 9.259-18.519 12-39.236 12-60.5-2.405 0-5-1.319-5-4l-16-10c0 2.755 2 5.553 2 9 5.152 0 4 8.26 4 12 2.313 0 5-2.273 5 2 5.663 0 4 13.634 4 18 0 12.596-4.713 26.925-10 37.5-.829 1.658-8 12.937-8 13.5ZM177 224c-1.712 0-3-1.212-3 2-1.167 0-6.832-15.165-8-17.5-9.159-18.319-13-40.256-13-62.5 1.145 0 4 .579 4-1l1-1v-1l1-2c5.352 0 8.978-8 14-8v9c-6.721 0-4 7.066-4 12-1.723 0-6-4.176-6 1-5.167 0-4 14.816-4 18.5 0 11.547 7.042 31.084 12 41l6 9.5Z"/><path fill="#9AD1BD" id="MOB" d="M175 228c0 10.019 18.088 23 27 23 8.845 0 11.713-6.926 15-13.5 7.558-15.115 9-32.251 9-50.5v-20.5c-2.323-4.646-2.634-10.267-5-15-1.07-2.14-4-3.942-4-6.5-.847 0-5.375-6.938-7.5-8-5.651-2.826-9.662-2-15.5-2 0 2.722-1 5.142-1 8 0 .17 2 7.269 2 11 4.369 0 0 4.091 0 5v6c0 10.459-3 18.5-3 29 0 3.91 3.673 23-4 23l-6 5 2 5.5c-1.346 2.692-7-1.105-7-3.5-1.712 0-3-1.212-3 2v1l1 1ZM281 229c0 8.898-18.925 22-27 22-10.939 0-13.427-12.354-17-19.5-7.511-15.021-6-33.883-6-52v-18l6-13.5 1-1 1-2c2.167 0 5.033-6.767 7.5-8 5.54-2.77 9.803-2 15.5-2 0 3.138 2 5.662 2 8-5.56 0-2 9.875-2 12-3.418 0-1.38 4 0 4v7c-1.251 0-1.536 4.427-1 5.5 2.186 4.371 3 10.813 3 16 0 1.278-.665 5.5 1 5.5v2l-1 2c0 3.785-2.345 20 4 20l6 5c0 1.606-2.081 4.339-1 6.5.965 1.93 6-3.341 6-4.5 1.429 0 4-1.787 4 1v1l-1 1v1l-1 1Z"/><path fill="#209764" id="AId1" d="M157 145c0 1.579-2.855 1-4 1 0-2.964-10-3.3-10-8l15 3v3l-1 1ZM298 142c0 2.681 2.595 4 5 4 0-2.469 11-3.609 11-8l-16 3v1Z"/><path fill="#238A5D" id="ORBl1" d="m159 141-1 2v-2h1Z"/><path fill="#9DEFD2" id="AOBmi" d="m195 154-1 1-5.5 4c-3.699 1.85-19.5-.922-19.5-5 0-4.934-2.721-12 4-12l6.5 4c4.649 2.325 9.588-3 13.5-3 0 .17 2 7.269 2 11Z"/><path fill="#CAC8C9" id="von" d="M224 153h1c0-4.003-2-3.997-2-8-.495 0-7-7.026-7-2.5l1 2.5 7 8ZM231 153h1l5-5 1-1 1-2c0-6.584.309-2-4-2l-1 2-3 8Z"/><path fill="#99D2BD" id="OLF" d="m284 141-1 1 1-1Z"/><path fill="#9DEFD2" id="AOBmi" d="M262 155c4.303 0 8.489 8.006 14.5 5 2.342-1.171 8.062-5 10.5-5l1-2c0-3.74 1.152-12-4-12l-1 1-2 1.5c-6.003 6.003-11.256-.5-17-.5-5.56 0-2 9.875-2 12Z"/><path fill="#99D2BD" id="OLF" d="m235 143-1 2 1-2Z"/><path fill="#238A5D" id="ORBl1" d="m158 144-1 1 1-1Z"/><path fill="#C7CBCA" id="onl" d="M227 211c0 10.891.212 34.075-4 42.5-2.41 4.821-21 1.508-21-2.5 8.845 0 11.713-6.926 15-13.5 7.558-15.115 9-32.251 9-50.5v-20.5c-2.323-4.646-2.634-10.267-5-15-1.07-2.14-4-3.942-4-6.5l7 8 1 1 2 5.5 1 39.5c-1.781 0-1 10.176-1 12ZM239 145l-1 2 1-2ZM238 147l-1 1 1-1ZM231 154c0 2.654-.888 5.275-2 7.5V204c0 5.809-1.468 14.565 1 19.5l1 23c1.203 2.406 1.608 7.054 4.5 8.5 3.418 1.709 18.5 1.702 18.5-4-10.939 0-13.427-12.354-17-19.5-7.511-15.021-6-33.883-6-52v-18l6-13.5-5 5-1 1Z"/><path fill="#CACAC9" id="lotd" d="M165 161h2c0-2.992 13.119 1.31 14.5 2 3.808 1.904 9.84-4 13.5-4 0-.909 4.369-5 0-5l-1 1-5.5 4c-3.699 1.85-19.5-.922-19.5-5-1.723 0-6-4.176-6 1l2 6ZM290 161h1c1.353 0 2-4.643 2-6 0-4.273-2.687-2-5-2l-1 2c-2.438 0-8.158 3.829-10.5 5-6.011 3.006-10.197-5-14.5-5-3.418 0-1.38 4 0 4 3.72 0 9.097 6.202 13.5 4 1.243-.622 14.5-5.43 14.5-2Z"/><path fill="#99D2BD" id="OLF" d="M225 153v1l-1-1h1ZM232 153l-1 1v-1h1ZM288 153l-1 2 1-2Z"/><path fill="#9AD1BD" id="MOB" d="m195 154-1 1 1-1Z"/><path fill="#CAC8C7" id="lot" d="m182 222 2 5.5c-1.346 2.692-7-1.105-7-3.5l-6-9.5c-4.958-9.916-12-29.453-12-41 0-3.684-1.167-18.5 4-18.5l2 6v1l-2 4.5c-4.943 9.886 7.141 35.283 11 43 1.124 2.248 4.907 12.5 8 12.5ZM274 222c0 1.606-2.081 4.339-1 6.5.965 1.93 6-3.341 6-4.5 0-.563 7.171-11.842 8-13.5 5.287-10.575 10-24.904 10-37.5 0-4.366 1.663-18-4-18 0 1.357-.647 6-2 6v1c0 3.918 5.485 9.531 3 14.5-1.192 2.383.137 5.725-1 8-4.418 8.836-7.528 18.055-12 27-1.122 2.244-3.039 10.5-7 10.5Z"/><path fill="#95E4C8" id="AOBgr" d="m195 165-2.5 4c-3.194 1.597-5.216 0-8.5 0l-17-7v-1c0-2.992 13.119 1.31 14.5 2 3.808 1.904 9.84-4 13.5-4v6ZM262 166c0 4.835 7.828 3 10 3 6.144 0 11.328-7 17-7l1-1c0-3.43-13.257 1.378-14.5 2-4.403 2.202-9.78-4-13.5-4v7Z"/><path fill="#99D2BD" id="OLF" d="M165 162h2v-1h-2v1ZM289 162h2v-1h-1l-1 1Z"/><path fill="#54BF94" id="AON" d="m188 217-6 5c-3.093 0-6.876-10.252-8-12.5-3.859-7.717-15.943-33.114-11-43l2-4.5h2l17 7c0 1.402 2 1.901 2 7-5.588 0 1.576 16.651 3 19.5v17l-3 3c-.741 1.482 1.147 1.5 2 1.5ZM268 217l6 5c3.961 0 5.878-8.256 7-10.5 4.472-8.945 7.582-18.164 12-27 1.137-2.275-.192-5.617 1-8 2.485-4.969-3-10.582-3-14.5h-2c-5.672 0-10.856 7-17 7 0 1.834-2 3.838-2 7 6.285 0-1.398 18.296-3 21.5v14l4 4-3 1.5Z"/><path fill="#99D2BD" id="OLF" d="M186 176c3.197 0 4.273 18 6 18 0-10.5 3-18.541 3-29l-2.5 4c-3.194 1.597-5.216 0-8.5 0 0 1.402 2 1.901 2 7ZM270 176c0 4.977-5 11.565-5 17-1.665 0-1-4.222-1-5.5 0-5.187-.814-11.629-3-16-.536-1.073-.251-5.5 1-5.5 0 4.835 7.828 3 10 3 0 1.834-2 3.838-2 7Z"/><path fill="#CBCBC7" id="aco" d="M192 194c0 3.91 3.673 23-4 23-.853 0-2.741-.018-2-1.5l3-3v-17c-1.424-2.849-8.588-19.5-3-19.5 3.197 0 4.273 18 6 18ZM264 197c0 3.785-2.345 20 4 20l3-1.5-4-4v-14c1.602-3.204 9.285-21.5 3-21.5 0 4.977-5 11.565-5 17v2l-1 2Z"/><path fill="#99D2BD" id="OLF" d="m265 195-1 2 1-2ZM228 199c-1.781 0-1 10.176-1 12 1.781 0 1-10.176 1-12ZM283 226l-1 1 1-1ZM174 227l1 1-1-1ZM282 228l-1 1 1-1Z"/></svg>