<svg xmlns="http://www.w3.org/2000/svg" viewBox="0 0 456 320"><path fill="#1E9C59" id="MOs1" d="M225 57c0 1.712-2.571 3-4 3 0-2.723-3.061-5.561-5-7.5-14.441-14.441-26.362-3.5-42-3.5v-6c15.712 0 30.139-9.36 44 4.5 2.067 2.067 7 6.63 7 9.5ZM231 58l4 2c0-2.844 5.287-7.894 7.5-9 5.027-2.513 15.836-10.082 24-6l16.5 5v-7c-16.546 0-37.633-11.235-48 9.5-.895 1.79-4 2.387-4 5.5Z"/><path fill="#1E9D5A" id="MOp1" d="M118 66c0 2.933-1 3.736-1 7 4.913 0 11.2-5.85 15.5-8 7.593-3.797 33.674-15 41.5-15v-7c-6.499 0-34.64 12.57-41.5 16L118 66ZM338 66l1 7c-3.717 0-7.29-4.395-10.5-6-8.28-4.14-37.114-17-45.5-17v-7c3.724 0 36.612 13.556 41.5 16 3.792 1.896 9.185 7 13.5 7Z"/><path fill="#1E9D58" id="MOs2/3" d="M215 64c0-1.986-2.086-3.293-3.5-4l-3-3c-7.721-3.86-21.332 2.166-27 5l-8.5 5c0-6.457 1-11.598 1-17v-1c15.638 0 27.559-10.941 42 3.5 1.939 1.939 5 4.777 5 7.5v1l-6 3ZM241 63l7.5-6h16l18.5 9V50l-16.5-5c-8.164-4.082-18.973 3.487-24 6-2.213 1.106-7.5 6.156-7.5 9v1c2.447 0 3.28 2 6 2Z"/><path fill="#1F9C58" id="MOp2/3" d="m116 93 1 4 14.5-10c7.504-3.752 34.837-20 41.5-20 0-6.457 1-11.598 1-17-7.826 0-33.907 11.203-41.5 15-4.3 2.15-10.587 8-15.5 8v1c0 6.048-1 10.794-1 16v3ZM340 93l-1 4-10.5-8c-10.943-5.471-22.201-10.6-33-16-3.212-1.606-7.862-6-11.5-6l-1-1V50c8.386 0 37.22 12.86 45.5 17 3.21 1.605 6.783 6 10.5 6 0 6.825 1 11.67 1 17l1 1v1l-1 1Z"/><path fill="#1F9D58" id="MOs5" d="m200 78-7.5-3L171 86c0-7.444 2-12.641 2-19l8.5-5c5.668-2.834 19.279-8.86 27-5l3 3c1.414.707 3.5 2.014 3.5 4v1c-2.823 0-15 9.703-15 13Z"/><path fill="#3EA665" id="ACAd1" d="M223 89h11c0-9.26 1-19.404 1-28v-1l-4-2-2.5 3-3.5-4c0 1.712-2.571 3-4 3v1c0 1.906 1.099 6.698 2 8.5V89Z"/><path fill="#1F9D58" id="MOs5" d="M257 78c0-2.334 4.181-1.34 5.5-2 6.07-3.035 15.737 9 22.5 9 0-5.913-1-11.501-1-18l-1-1-18.5-9h-16l-7.5 6v2c2.943 0 15 10.745 15 13h1Z"/><path fill="#40A565" id="ACAd2/3" d="m223 89-6 2V71c0-1.623-.005-6-2-6v-1l6-3c0 1.906 1.099 6.698 2 8.5V89ZM234 90h5c0-8.66 2-17.28 2-25v-2c-2.72 0-3.553-2-6-2 0 8.596-1 18.74-1 28v1Z"/><path fill="#3EA566" id="ACAd5" d="M217 91c-5.461 0-8.812 6-14 6 0-2.896.023-18-3-18v-1c0-3.297 12.177-13 15-13 1.995 0 2 4.377 2 6v20ZM239 91c5.217 0 9.227 6 14 6 0-5.878 3-13.586 3-19 0-2.255-12.057-13-15-13 0 7.72-2 16.34-2 25v1Z"/><path fill="#197E64" id="SSp-ul1" d="M106 79h1l10-5v-1c0-3.264 1-4.067 1-7l-14 8 2 5ZM349 79h1l3-4-3-2.5-12-6.5 1 7 10 6Z"/><path fill="#1E9C5A" id="MOp5" d="m116 98 2 14 12.5-9c9.514-4.757 20.505-7.253 30-12l10.5-5c0-7.444 2-12.641 2-19-6.663 0-33.996 16.248-41.5 20L117 97l-1 1ZM341 99c-1.541 0-2 10.793-2 13-4.046 0-7.966-6.233-11.5-8-6.814-3.407-35.306-17-41.5-17l-1-2c0-5.913-1-11.501-1-18 3.638 0 8.288 4.394 11.5 6 10.799 5.4 22.057 10.529 33 16l10.5 8 2 2Z"/><path fill="#197F61" id="SSp-ul2/3" d="M340 90h2c1.972 0 7-8.998 7-11l-10-6c0 6.825 1 11.67 1 17Z"/><path fill="#187E61" id="SSp-m1" d="m62 143 5 1c0-17.61 11.639-31.777 19-46.5L106 79l-2-5c-2.799 0-17.504 13.51-19 16.5-1.681 3.362-6.95 6.9-9 11-4.668 9.336-14 31.025-14 41.5Z"/><path fill="#197F61" id="SSp-ul2/3" d="M114 91h1l1-1c0-5.206 1-9.952 1-16l-10 5c0 4.513 7 7.808 7 12Z"/><path fill="#1D9C5A" id="MOs6a" d="M170 107h1c0-1.706 13.462-5 16-5h1c0-4.043 9.103-23 12-23v-1l-7.5-3L171 86c0 6.525-1 13.496-1 21ZM269 102c6.262 0 11.727 5 17 5V87l-1-2c-6.763 0-16.43-12.035-22.5-9-1.319.66-5.5-.334-5.5 2 0 5.886 12 16.047 12 24Z"/><path fill="#187E61" id="SSp-m1" d="m394 143-4 1c-1.648 0-2.151-11.802-3-13.5-3.734-7.467-6.242-15.484-10-23-2.638-5.277-12.931-18.715-16.5-20.5L350 79l3-4c4.135 0 13.49 9.99 17 13.5 10.865 10.865 24 38.518 24 54.5Z"/><path fill="#3FA664" id="ACAd6a" d="m265 105-2 2-10-9v-1c0-5.878 3-13.586 3-19h1c0 5.886 12 16.047 12 24l-1 1c-1.238 0-3 .423-3 2Z"/><path fill="#1A7E64" id="SSp-m2/3" d="M75 166h1c0-28.006 5.699-33.897 17-56.5 2.929-5.857 13.855-18.5 21-18.5 0-4.192-7-7.487-7-12h-1L86 97.5c-7.361 14.723-19 28.89-19 46.5v1c9.517 0 8 15.628 8 21Z"/><path fill="#3FA664" id="ACAd6a" d="M188 102c1.548 0 5 3.343 5 5 3.631 0 5.436-8 10-8v-2c0-2.896.023-18-3-18-2.897 0-12 18.957-12 23Z"/><path fill="#1A7E64" id="SSp-m2/3" d="M390 145c-5.609 0-9 5.954-9 11-1.684 0-1-4.679-1-6l-3-15.5c-7.49-14.98-13.391-32.445-29.5-40.5-1.873-.936-3.23-3-5.5-3v-1c1.972 0 7-8.998 7-11h1l10.5 8c3.569 1.785 13.862 15.223 16.5 20.5 3.758 7.516 6.266 15.533 10 23 .849 1.698 1.352 13.5 3 13.5v1Z"/><path fill="#1F9B5A" id="MOp6a" d="M122 139h1c0-3.573 16.785-18 20-18 0-2.029 13.365-8 16-8l4-2c0-1.801 5.615-4 7-4 0-7.504 1-14.475 1-21l-10.5 5c-9.495 4.747-20.486 7.243-30 12l-12.5 9c0 9.478 4 16.508 4 27ZM334 139h1c0-6.992 2-11.82 2-17 0-1.759.326-9 2-9v-1c-4.046 0-7.966-6.233-11.5-8-6.814-3.407-35.306-17-41.5-17v20c6.609 0 32.966 16.466 38.5 22l9.5 10Z"/><path fill="#3FA566" id="ACAv2/3" d="m220 129-1 1c-1.758 0-1-7.884-1-9.5 0-9.059-1-19.765-1-29.5l6-2c0 11.787-1 24.529-1 36l-2 4Z"/><path fill="#40A664" id="ACAv1" d="m229 120 5 4V89h-11c0 11.787-1 24.529-1 36l5-5c0-3.15 2-3.446 2 0Z"/><path fill="#1A7F63" id="SSp-ul4" d="m115 91 1 2v-3l-1 1Z"/><path fill="#3FA566" id="ACAv2/3" d="m236 129 2 2c0-12.718 1-26.654 1-40v-1h-5v34l2 5Z"/><path fill="#1A7F63" id="SSp-ul4" d="M341 91h1v-1h-2l1 1Z"/><path fill="#1B7F62" id="SSp-m4" d="m82 165-6 1c0-28.006 5.699-33.897 17-56.5 2.929-5.857 13.855-18.5 21-18.5h1l1 2 1 4-1 1c-3.411 0-7.214 7.857-9.5 9-13.143 6.572-24.5 42.853-24.5 58Z"/><path fill="#3EA666" id="ACAv5" d="M210 128c0 1.162 9 4.994 9 2-1.758 0-1-7.884-1-9.5 0-9.059-1-19.765-1-29.5-5.461 0-8.812 6-14 6v2c0 8.016.68 16.86 4 23.5l3 5.5ZM247 127c0 2.911-6.752 4-9 4 0-12.718 1-26.654 1-40 5.217 0 9.227 6 14 6v1c0 4.956 1.087 12.327-1 16.5l-5 12.5Z"/><path fill="#1B7F62" id="SSp-m4" d="m375 165 6 1v-10c-1.684 0-1-4.679-1-6l-3-15.5c-7.49-14.98-13.391-32.445-29.5-40.5-1.873-.936-3.23-3-5.5-3h-1v1l-1 1-1 4 2 2c3.445 0 12.193 9.886 14 13.5l7 9c4.949 9.898 13 32.162 13 43.5Z"/><path fill="#1A7F63" id="SSp-ul4" d="m341 92-1 1 1-1Z"/><path fill="#1B7E63" id="SSp-m5" d="M97 163c-5.34 0-8.996 2-15 2 0-15.147 11.357-51.428 24.5-58 2.286-1.143 6.089-9 9.5-9l2 14c-3.704 0-8.587 7.674-10 10.5-8.83 17.66-11 18.751-11 40.5Z"/><path fill="#40A564" id="ACAv6a" d="M252 124c-1.947 0-2.636 3-5 3l5-12.5c2.087-4.173 1-11.544 1-16.5l10 9v2c-2.177 0-4 4.336-4 6-1.881 0-6 4.73-6 7l-1 1v1ZM204 124l6 4-3-5.5c-3.32-6.64-4-15.484-4-23.5-4.564 0-6.369 8-10 8v1l2.5 3c1.948 1.948 8.5 9.326 8.5 12v1Z"/><path fill="#1B7E63" id="SSp-m5" d="m359 163 16 2c0-11.338-8.051-33.602-13-43.5l-7-9c-1.807-3.614-10.555-13.5-14-13.5-1.541 0-2 10.793-2 13v1c4.214 0 8.505 7.51 10 10.5 9.24 18.48 10 16.98 10 39.5Z"/><path fill="#1E9C58" id="MOs6b" d="M171 107v1c5.152 0 10.33-5 16-5v-1c-2.538 0-16 3.294-16 5Z"/><path fill="#3FA466" id="ACAd6b" d="M193 107v1c-2.338 0-2.89-5-6-5v-1h1c1.548 0 5 3.343 5 5ZM268 103h1v-1l-1 1Z"/><path fill="#1E9C58" id="MOs6b" d="M286 107v1c-5.792 0-10.627-5-17-5v-1c6.262 0 11.727 5 17 5Z"/><path fill="#CACCC7" id="cing" d="M204 123v1c-8.334 0-10.322-12.911-16.5-16-6.362-3.181-10.648 3-16.5 3l-2 1-2 1h-5l1-2c1.07 0 8-2.384 8-3 5.152 0 10.33-5 16-5 3.11 0 3.662 5 6 5 0 2.838 7.327 15 11 15Z"/><path fill="#3FA466" id="ACAd6b" d="M268 103c-1.238 0-3 .423-3 2 1.238 0 3-.423 3-2Z"/><path fill="#CACCC7" id="cing" d="M252 123v1c8.649 0 11.408-13.454 18.5-17 4.404-2.202 11.222 4 15.5 4l3 2h6c0-2.39-9-3.571-9-5-5.792 0-10.627-5-17-5h-1c0 1.577-1.762 2-3 2l-1 2-1 2c0 1.417-2.383 6-4 6 0 1.763-4.012 7-6 7l-1 1Z"/><path fill="#3FA466" id="ACAd6b" d="M263 107h1l1-2-2 2Z"/><path fill="#1D9D5A" id="MOp6b" d="M171 108c0 .616-6.93 3-8 3 0-1.801 5.615-4 7-4h1v1Z"/><path fill="#CCC7C9" id="ccg" d="m340 173-2 1c0-21.406-5.03-34.765-25.5-45l-12-4c-6.207-3.103-35.5.716-35.5 9-5.102 0-18 8.202-18 14-2.751 0-5.505 7-10 7l-7 1c0-3.329-4-3.053-4 0-1.564 0-3.876-1-6-1-3.961 0-9.523-6-10-6 0-5.638-12.955-15-18-15l-7.5-7c-3.572-1.786-8.398-1.199-12-3-4.795-2.397-16.253 1.126-20 3-2.294 1.147-5.671.835-8 2-18.739 9.369-26.5 22.212-26.5 44h-2v-12c1.684 0 1-4.679 1-6 1.353 0 2-4.643 2-6l4.5-6 16-16c6.831-3.415 13.211-7.606 20-11 1.242-.621 7.5-1.639 7.5-3l2-1 2-1c5.852 0 10.138-6.181 16.5-3 6.178 3.089 8.166 16 16.5 16l6 4c0 1.162 9 4.994 9 2l1-1c0 1.812 4.806 4.847 6.5 4l2-3 1 3c2.487 1.243 6.5-2.066 6.5-4l2 2c2.248 0 9-1.089 9-4 2.364 0 3.053-3 5-3 8.649 0 11.408-13.454 18.5-17 4.404-2.202 11.222 4 15.5 4 0 1.577 1.762 2 3 2h1c0 1.96 11.581 5.041 13.5 6 7.436 3.718 13.469 10.234 21 14 5.489 2.745 11.456 14.411 14.5 20.5.74 1.479.079 9.5 2 9.5v9l-1 1Z"/><path fill="#40A465" id="ACAv6b" d="m264 107-1 2v-2h1Z"/><path fill="#1D9D5A" id="MOp6b" d="M333 139h1l-9.5-10c-5.534-5.534-31.891-22-38.5-22v1c0 1.429 9 2.61 9 5 5.483 0 22.315 10.815 26.5 15l11.5 11Z"/><path fill="#40A465" id="ACAv6b" d="m193 108 2.5 3c1.948 1.948 8.5 9.326 8.5 12-3.673 0-11-12.162-11-15ZM263 109c-2.177 0-4 4.336-4 6 1.617 0 4-4.583 4-6Z"/><path fill="#1D9D5A" id="MOp6b" d="M159 113h3l1-2-4 2Z"/><path fill="#C9C9CA" id="scwm" d="m171 111-2 1 2-1ZM286 111l3 2c-1.238 0-3-.423-3-2Z"/><path fill="#187D61" id="SSp-m6a" d="M114 160c-5.736 0-11.542 3-17 3 0-21.749 2.17-22.84 11-40.5 1.413-2.826 6.296-10.5 10-10.5 0 9.478 4 16.508 4 27 0 3.494-8 12.337-8 20v1Z"/><path fill="#C9C9CA" id="scwm" d="m169 112-2 1 2-1Z"/><path fill="#1D9D5A" id="MOp6b" d="M159 113c-2.635 0-16 5.971-16 8 4.784 0 7.531-4.015 11.5-6 1.37-.685 4.5.871 4.5-2Z"/><path fill="#C9C9CA" id="scwm" d="m123 140-4 9 4.5-6 16-16c6.831-3.415 13.211-7.606 20-11 1.242-.621 7.5-1.639 7.5-3h-8c0 2.871-3.13 1.315-4.5 2-3.969 1.985-6.716 6-11.5 6 0 .227-14.994 13.747-15.5 14l-4.5 5ZM341 159v4c-1.921 0-1.26-8.021-2-9.5-3.044-6.089-9.011-17.755-14.5-20.5-7.531-3.766-13.564-10.282-21-14-1.919-.959-13.5-4.04-13.5-6h5c5.483 0 22.315 10.815 26.5 15l11.5 11v1l1 1c0 3.25 7 11.812 7 18Z"/><path fill="#187D61" id="SSp-m6a" d="M343 159c4.852 0 10.907 4 16 4 0-22.52-.76-21.02-10-39.5-1.495-2.99-5.786-10.5-10-10.5-1.674 0-2 7.241-2 9 0 5.18-2 10.008-2 17 0 6.508 8 12.647 8 20Z"/><path fill="#40A465" id="ACAv6b" d="M259 115c-1.881 0-6 4.73-6 7 1.988 0 6-5.237 6-7Z"/><path fill="#7ED04B" id="IG" d="M220 129c0 1.812 4.806 4.847 6.5 4l2-3 1 3c2.487 1.243 6.5-2.066 6.5-4l-2-5-5-4c0 2.488-2 1.919-2 0l-5 5-2 4Z"/><path fill="#1D9D5A" id="MOp6b" d="M123 139v1l4.5-5c.506-.253 15.5-13.773 15.5-14-3.215 0-20 14.427-20 18Z"/><path fill="#40A465" id="ACAv6b" d="m253 122-1 1 1-1Z"/><path fill="#98D5F9" id="CP" d="m139 232 4 2c7.828 0 11.373.063 17.5-3 3.027-1.513 3.182-8.864 4.5-11.5 4.042-8.084 16.27-22.5 26-22.5l2-2c0-1.924.321-11 2-11v-6c0-1.235-.643-5 1-5 0-1.145-.579-4 1-4v-25.5l-2-4.5-3-5-7.5-7c-3.572-1.786-8.398-1.199-12-3-4.795-2.397-16.253 1.126-20 3-2.294 1.147-5.671.835-8 2-18.739 9.369-26.5 22.212-26.5 44 0 11.109 7 20.23 7 32 0 5.476 6 12.003 6 17v1l1 1 7 8ZM317 232l-4 2c-5.532 0-9.43 1.535-14.5-1-5.192-2.596-5.457-9.413-7.5-13.5-4.14-8.281-15.962-22.5-26-22.5l-1-1v-1l-1-1c0-2.111-.671-16-2-16v-2c0-3.534-.564-5.628-2-8.5-3.091-6.182 2-22.748 2-28.5l4-5c0-8.284 29.293-12.103 35.5-9l12 4c20.47 10.235 25.5 23.594 25.5 45 0 10.685-7 20.075-7 31l-2 10-2 4v1l-1 1-1 2c-1.991 0-3.486 8-7 8l-1 1Z"/><path fill="#AAA8A9" id="SEZ" d="M209 149h1c0-5.638-12.955-15-18-15l3 5c2.959 0 14 4.499 14 10ZM247 148c0 1.048-.473 3 1 3 0-4.86 2.307-7.904 6.5-10 .886-.443 6.5-4.498 6.5-2l4-5c-5.102 0-18 8.202-18 14Z"/><path fill="#A8AAAA" id="VL" d="M197 169h1v-1l1-1 1-3 1-1 1-2 2-3 1-1 1-1 2-4 1-1v-2c0-5.501-11.041-10-14-10l2 4.5V169ZM260 172c0 1.145-.579 4 1 4 0-3.534-.564-5.628-2-8.5-3.091-6.182 2-22.748 2-28.5 0-2.498-5.614 1.557-6.5 2-4.193 2.096-6.5 5.14-6.5 10v1l1 1v1l2 2v1l2 2v1l2 2v1l2 2v1l1 1 1 2v2l1 1Z"/><path fill="#188064" id="SSp-m6b" d="M114 159h2c0-1.145-.579-4 1-4 0-1.623.005-6 2-6l4-9v-1h-1c0 3.494-8 12.337-8 20ZM341 159h2c0-7.353-8-13.492-8-20h-2v1l1 1c0 3.25 7 11.812 7 18Z"/><path fill="#1D9D5A" id="MOp6b" d="m333 140 1 1-1-1Z"/><path fill="#1A7E62" id="SSs1" d="m67 170-5 1c0-3.08-.631-8.762-2-11.5l2-16.5 5 1v26ZM389 169l5 2c0-2.123 1-7.499 2-9.5 1.553-3.105-1-8.364-1-11 0-1.448.725-7.5-1-7.5l-4 1v1l1 14.5c-1 2.001-2 7.377-2 9.5Z"/><path fill="#1B8063" id="SSs2/3" d="M75 166c0 1.069-6.717 3-8 3v-24c9.517 0 8 15.628 8 21ZM381 167l8 2c0-2.123 1-7.499 2-9.5l-1-14.5c-5.609 0-9 5.954-9 11v2c1.486 0 1.486 3 0 3v2c1.486 0 1.486 3 0 3v1Z"/><path fill="#97D6F9" id="STR" d="m258 167 1 2-4.5-4c-5.228-2.614-13.27 0-18.5 0l2-4.5-1-5.5c4.495 0 7.249-7 10-7 0 1.048-.473 3 1 3v1l1 1v1l2 2v1l2 2v1l2 2v1l2 2v1l1 1Z"/><path fill="#C9C9CA" id="scwm" d="M119 149c-1.995 0-2 4.377-2 6 1.353 0 2-4.643 2-6Z"/><path fill="#97D6F9" id="STR" d="m231 193-2.5-4-3.5 6v-25.5l-7.5-5.5-16 1-2.5 2 1-3 1-1 1-2 2-3 1-1 1-1 2-4 1-1v-2h1c.477 0 6.039 6 10 6 0 1.804-2.182 5.136-1 7.5 1.078 2.156 5.9 7.2 8 3 1.386-2.772-1-7.269-1-9.5 0-3.053 4-3.329 4 0 0 3.761-3.583 11 3 11l-2 4.5V193Z"/><path fill="#AAA8A9" id="SEZ" d="m209 151-1 1 1-1ZM248 152l1 1-1-1ZM249 154l2 2-2-2Z"/><path fill="#C9C9CA" id="scwm" d="M116 159v2c1.684 0 1-4.679 1-6-1.579 0-1 2.855-1 4Z"/><path fill="#8FCAED" id="SH" d="M220 155c2.124 0 4.436 1 6 1 0 2.231 2.386 6.728 1 9.5-2.1 4.2-6.922-.844-8-3-1.182-2.364 1-5.696 1-7.5ZM235 166l-2 1c-6.583 0-3-7.239-3-11l7-1 1 5.5-2 4.5-1 1Z"/><path fill="#AAA8A9" id="SEZ" d="m206 156-1 1 1-1ZM205 157l-1 1 1-1ZM251 157l2 2-2-2Z"/><path fill="#1A7E64" id="SSp-m2/3" d="M381 158c1.486 0 1.486 3 0 3v-3Z"/><path fill="#019C74" id="GU6b" d="M114 172h2v-13h-2v13ZM341 172h2v-13h-2v13Z"/><path fill="#009B74" id="GU6a" d="M343 173c5.374 0 10.408 6 16 6v-16c-5.093 0-11.148-4-16-4v14ZM114 173c-5.82 0-10.943 6-17 6v-16c5.458 0 11.264-3 17-3v13Z"/><path fill="#AAA8A9" id="SEZ" d="m253 160 2 2-2-2ZM202 161l-1 2 1-2Z"/><path fill="#019C75" id="GU5" d="M97 179c-5.6 0-10.716 6-16 6 0-6.836 1-13.704 1-20 6.004 0 9.66-2 15-2v16Z"/><path fill="#AAA8A9" id="SEZ" d="m201 163-1 1 1-1ZM255 163l2 2-2-2Z"/><path fill="#019C75" id="GU5" d="M359 179c4.934 0 12.015 6 16 6v-20l-16-2v16Z"/><path fill="#1A7E64" id="SSp-m2/3" d="M381 163c1.486 0 1.486 3 0 3v-3Z"/><path fill="#90CAED" id="LSr" d="m213 217 3.5 4 4.5-4 3-16 1-2v-29.5l-7.5-5.5-16 1-2.5 2v1l-1 1-1 1v3l-1 1v3c6.26 0 12.517 15.534 15 20.5.886 1.773.427 9.5-2 9.5v2l1 1v1l1 1 2 5ZM235 217l4.5 4 3.5-3 1-3 1-1v-1l1-1v-1l1-1v-1l1-1v-1c-3.153 0-4.35-5.8-3-8.5 1.654-3.308 9.964-20.232 12.5-21.5l3.5 1v-2c-1.579 0-1-2.855-1-4l-1-1v-2l-4.5-4c-5.228-2.614-13.27 0-18.5 0l-1 1-2 1-2 4.5V194c1.643 0 1 3.765 1 5l3 18Z"/><path fill="#009C74" id="GU4" d="M79 185h2c0-6.836 1-13.704 1-20l-6 1c0 6.664 3 12.72 3 19Z"/><path fill="#97D6F9" id="STR" d="m236 165-1 1 1-1Z"/><path fill="#009C74" id="GU4" d="M375 185h2c0-4.274 3-8.946 3-13.5 0-1.19-.614-4.5 1-4.5v-1l-6-1v20Z"/><path fill="#009B75" id="GU2/3" d="m79 185-8 4c0-6.636-4-12.423-4-19v-1c1.283 0 8-1.931 8-3h1c0 6.664 3 12.72 3 19Z"/><path fill="#97D6F9" id="STR" d="m235 166-2 1 2-1Z"/><path fill="#AAA8A9" id="SEZ" d="m257 166 1 1-1-1ZM198 168h1v-1l-1 1Z"/><path fill="#009B75" id="GU2/3" d="m377 185 8 4c0-6.57 4-12.754 4-20l-8-2c-1.614 0-1 3.31-1 4.5 0 4.554-3 9.226-3 13.5Z"/><path fill="#97D6F9" id="STR" d="m199 168-1 1v-1h1Z"/><path fill="#A8AAAA" id="VL" d="M196 173h1v-4c-1.579 0-1 2.855-1 4Z"/><path fill="#97D6F9" id="STR" d="m198 169-1 1v-1h1Z"/><path fill="#009C75" id="GU1" d="m385 189 4 1 5-19-5-2c0 7.246-4 13.43-4 20ZM71 189l-3 1c-.843 0-2-3.646-2-4.5L62 171l5-1c0 6.577 4 12.364 4 19Z"/><path fill="#97D6F9" id="STR" d="m259 171 1 1-1-1Z"/><path fill="#1F9766" id="AId6b" d="M117 185h1c0-4.01-2-8.3-2-12v-1h-2v1l1 10 2 2ZM338 185h1l1-1 1-1c0-1.928.112-10 2-10v-1h-2l-1 1c0 4.371-2 8.019-2 12Z"/><path fill="#209666" id="AId6a" d="M109 198c-1.564 0-3.876 1-6 1 0-3.344-6-12.477-6-20 6.057 0 11.18-6 17-6l1 10c-7.841 0-6 9.449-6 15Z"/><path fill="#C8CBCC" id="ec" d="M124 205h1c0-11.77-7-20.891-7-32h-2c0 3.7 2 7.99 2 12l1 3v2l1 1v2l1 2v1c1.231 0 3 7.622 3 9Z"/><path fill="#A8AAAA" id="VL" d="m196 177-1 1c0-1.235-.643-5 1-5v4Z"/><path fill="#97D6F9" id="STR" d="m197 173-1 1v-1h1Z"/><path fill="#C8CBCC" id="ec" d="M331 205h2c0-2.119.949-11 3-11v-1l1-2v-2l1-2v-2c0-3.981 2-7.629 2-12l-2 1c0 10.685-7 20.075-7 31Z"/><path fill="#209666" id="AId6a" d="m347 198 6 1c0-1.832 6-11.517 6-20-5.592 0-10.626-6-16-6-1.888 0-2 8.072-2 10 8.57 0 6 8.363 6 15Z"/><path fill="#8FCBED" id="LSv" d="m207 206 2 1c2.427 0 2.886-7.727 2-9.5-2.483-4.966-8.74-20.5-15-20.5l-1 1v6l1 9 2 2c1.782 0 7 6.482 7 8l1 1 1 2ZM249 206l-1 1c-3.153 0-4.35-5.8-3-8.5 1.654-3.308 9.964-20.232 12.5-21.5l3.5 1c0 4.933-1 10.73-1 15l-1 2c-1.933 0-7 5.006-7 7l-1 1-2 3Z"/><path fill="#A8AAAA" id="VL" d="M264 196v1c0 8.924-.84-2-2-2l-2-2c0-4.27 1-10.067 1-15 1.329 0 2 13.889 2 16l1 1v1Z"/><path fill="#209665" id="AId5" d="M103 199c-3.153 0-10.091 3-15 3-1.06 0-7-14.766-7-17 5.284 0 10.4-6 16-6 0 7.523 6 16.656 6 20ZM353 199c3.003 0 10.64 3 16 3 0-5.511 6-10.849 6-17-3.985 0-11.066-6-16-6 0 8.483-6 18.168-6 20Z"/><path fill="#8ADA86" id="CLA" d="M121 196c0 13.068-12 12.897-12 2 0-5.551-1.841-15 6-15l2 2 2 3v2l1 1v2l1 2v1Z"/><path fill="#209666" id="AId6a" d="m341 183-1 1 1-1Z"/><path fill="#8ADA86" id="CLA" d="m336 194-1 8.5c3.943 7.887 12 1.785 12-4.5 0-6.637 2.57-15-6-15l-1 1-1 1-1 2-1 2v2l-1 2v1Z"/><path fill="#A8AAAA" id="VL" d="m195 195-2 2v-2c0-1.924.321-11 2-11l1 9-1 2Z"/><path fill="#209666" id="AId6a" d="m340 184-1 1 1-1Z"/><path fill="#209765" id="AId2/3" d="M88 203c-4.885 0-6.82 2-11 2 0-4.977-6-10.726-6-16l8-4h2c0 2.234 5.94 17 7 17v1Z"/><path fill="#209666" id="AId6a" d="m118 185 1 3-2-3h1ZM339 185l-1 2v-2h1Z"/><path fill="#209765" id="AId2/3" d="M379 205h1c0-5.587 5-10.139 5-16l-8-4h-2c0 6.151-6 11.489-6 17v1l10 2Z"/><path fill="#209666" id="AId6a" d="m338 187-1 2 1-2Z"/><path fill="#209764" id="AId1" d="m77 205-3 1c-2.439 0-6-13.549-6-16l3-1c0 5.274 6 11.023 6 16Z"/><path fill="#96A7D3" id="MS" d="M235 224c-5.321 0-9.295 1-14 1v-8l3-16 1-2v-4l3.5-6 2.5 4v1c0 1.235-.643 5 1 5l3 18v7Z"/><path fill="#209764" id="AId1" d="m380 205 3 1 6-16-4-1c0 5.861-5 10.413-5 16Z"/><path fill="#209666" id="AId6a" d="m119 190 1 1-1-1ZM337 191l-1 2 1-2Z"/><path fill="#1F9866" id="AIv6a" d="m120 193 1 2-1-2Z"/><path fill="#97D6F9" id="STR" d="M195 195h3l-2-2-1 2ZM259 195h3l-2-2-1 2ZM231 194c1.643 0 1 3.765 1 5-1.643 0-1-3.765-1-5ZM263 194l1 1-1-1Z"/><path fill="#1F9866" id="AIv6a" d="m340 208 8 3 5-12-6-1c0 6.285-8.057 12.387-12 4.5l1-8.5c-2.051 0-3 8.881-3 11 1.238 0 3 .423 3 2l4 1Z"/><path fill="#97D6F9" id="STR" d="M192 197h1v-2l-2 2h1Z"/><path fill="#80CDF8" id="ACB" fill-rule="evenodd" d="M179 210c0 .565-5.23 5.959-6 7.5-1.721 3.442 4.58 7.96 7.5 6.5 6.591-3.296 7.722-14-1.5-14m32 30c-3.06 0-4.224 7.862-6.5 9l-10 10-11 6c-8.35 4.175-40.5-1.891-40.5-13 0-6.056-2-10.735-2-17l2-1c7.828 0 11.373.063 17.5-3 3.027-1.513 3.182-8.864 4.5-11.5 4.042-8.084 16.27-22.5 26-22.5h1c0 3.246 1 3.246 1 0l2-2h3c1.782 0 7 6.482 7 8l1 1 1 2 2 2v1l1 1v1l1 1 2 5c0 7.479-1 13.963-1 21l-1 1v1ZM273 210c0 2.259-3.675 5.151-2 8.5 8.38 16.761 21.051-8.5 2-8.5m-28 29 7 9.5c6.592 6.592 11.523 12.012 20.5 16.5h9c10.907 0 31.5.689 31.5-14l3-15-3-2c-5.532 0-9.43 1.535-14.5-1-5.192-2.596-5.457-9.413-7.5-13.5-4.14-8.281-15.962-22.5-26-22.5h-1c0 8.924-.84-2-2-2h-3c-1.933 0-7 5.006-7 7l-1 1-2 3-1 1v1l-1 1v1l-1 1v1l-1 1v1l-1 1-1 3v14.5l2 6.5Z"/><path fill="#1F9866" id="AIv6a" d="M115 209c-2.518 0-4.286 2-6 2l-6-12c2.124 0 4.436-1 6-1 0 10.897 12 11.068 12-2 1.231 0 3 7.622 3 9l-4 2c-1.048 0-3-.473-3 1l-2 1Z"/><path fill="#97D6F9" id="STR" d="M264 197h1l-1-1v1Z"/><path fill="#A8AAAA" id="VL" d="M192 197h1c0 3.246-1 3.246-1 0Z"/><path fill="#1F9865" id="AIv5" d="m103 213-7 1c0-2.848-4.379-11-8-11v-1c4.909 0 11.847-3 15-3l6 12c-1.357 0-6 .647-6 2Z"/><path fill="#97D6F9" id="STR" d="m225 199-1 2 1-2Z"/><path fill="#1F9865" id="AIv5" d="m353 213 7 1c0-3.871 5.841-11 9-11v-1c-5.36 0-12.997-3-16-3l-5 12c1.424 0 5 .362 5 2Z"/><path fill="#97D6F9" id="STR" d="m252 202-1 1 1-1Z"/><path fill="#219764" id="AIv2/3" d="m96 214-13 3c0-4.778-6-7.631-6-12 4.18 0 6.115-2 11-2 3.621 0 8 8.152 8 11Z"/><path fill="#97D6F9" id="STR" d="m205 203 1 1-1-1Z"/><path fill="#219764" id="AIv2/3" d="m360 214 13 3 6-12-10-2c-3.159 0-9 7.129-9 11Z"/><path fill="#209864" id="AIv1" d="m83 217-3 1c0-3.955-6-7.454-6-12l3-1c0 4.369 6 7.222 6 12Z"/><path fill="#8AD987" id="CTXsp" d="M120 207c7.992 0 6.384 15 11 15 0-4.997-6-11.524-6-17h-1l-4 2ZM336 207c-5.763 0-4.167 8-7 8l2-10h2c1.238 0 3 .423 3 2Z"/><path fill="#209864" id="AIv1" d="M373 217c1.048 0 3-.473 3 1 1.51 0 7-10.318 7-12l-3-1h-1l-6 12Z"/><path fill="#97D6F9" id="STR" d="M209 207v1l-2-2 2 1Z"/><path fill="#90CAED" id="LSr" d="m249 206-1 1 1-1Z"/><path fill="#A0EE9C" id="EPd" d="M120 227h1c3.476 0 11 5.705 11-2l-1-2v-1c-4.616 0-3.008-15-11-15-1.048 0-3-.473-3 1l-2 1-4 6.5c-1.237 2.475 3 5.319 3 7.5l1 1 1 1h1l1 1h1l1 1ZM334 228l-2 1c-5.485 0-7-.2-7-6l1-2 1-1v-1c2.109 0 2-2.535 2-4 2.833 0 1.237-8 7-8l4 1 5 5.5-1 7.5-1 1-1 1-1 1-1 1h-1l-1 1-1 1h-2l-1 1Z"/><path fill="#99D2BD" id="OLF" d="m117 208-2 1 2-1Z"/><path fill="#97D6F9" id="STR" d="m248 208-1 1 1-1Z"/><path fill="#99D2BD" id="OLF" d="M353 213c-4.324 0-5.576 8-9 8l1-7.5-5-5.5 8 3c1.424 0 5 .362 5 2ZM103 213c5.565 0 6.592 10 11 10 0-2.181-4.237-5.025-3-7.5l4-6.5c-2.518 0-4.286 2-6 2-1.357 0-6 .647-6 2Z"/><path fill="#97D6F9" id="STR" d="m209 209 1 1-1-1Z"/><path fill="#CBCBC7" id="aco" d="M179 210c0 .565-5.23 5.959-6 7.5-1.721 3.442 4.58 7.96 7.5 6.5 6.591-3.296 7.722-14-1.5-14Z"/><path fill="#97D6F9" id="STR" d="m247 210-1 1 1-1Z"/><path fill="#CBCBC7" id="aco" d="M273 210c0 2.259-3.675 5.151-2 8.5 8.38 16.761 21.051-8.5 2-8.5Z"/><path fill="#97D6F9" id="STR" d="m210 211 1 1-1-1ZM246 212l-1 1 1-1Z"/><path fill="#6ACAB9" id="PIR" d="m124 259 1 1 9-4 1-1c0-4.224 5.531-8.437 2-15.5-2.424-4.849-8.681-6.681-12-10l-4-2.5h-1l-1-1h-1l-1-1h-1l-1-1-1-1c-4.408 0-5.435-10-11-10l-7 1-13 3-3 1c0 6.13 16.075 30 23 30 0-1.961 2.722-.389 3.5 0l14 7 3.5 4ZM330 259l2 1c0-5.105 18.514-12 22-12 6.639 0 22-24.37 22-30 0-1.473-1.952-1-3-1l-13-3-7-1c-4.324 0-5.576 8-9 8l-1 1-1 1-1 1-1 1h-1l-1 1-1 1h-2l-1 1-2 1c0 2.236-5.074 3.287-6.5 4l-6.5 7.5c-2.93 5.861 2 9.387 2 14.5h1l1 1 7 3Z"/><path fill="#97D6F9" id="STR" d="m245 214-1 1 1-1Z"/><path fill="#8AD987" id="CTXsp" d="m329 215-2 4c2.109 0 2-2.535 2-4Z"/><path fill="#97D6F9" id="STR" d="M209 256h4c0-3.252 4.547-7.595 6-10.5 1.071-2.143 2-17.085 2-20.5v-8l-4.5 4-3.5-4c0 7.479-1 13.963-1 21l-1 1v1c0 5.953-2 9.932-2 16ZM244 256h4c0-5.679-3-11.118-3-17l-2-6.5V218l-3.5 3-4.5-4v7c0 5.029 4.099 32 9 32Z"/><path fill="#8AD987" id="CTXsp" d="m327 220-1 1 1-1ZM326 221l-1 2 1-2Z"/><path fill="#99D2BD" id="OLF" d="m344 221-1 1 1-1ZM343 222l-1 1 1-1Z"/><path fill="#8AD987" id="CTXsp" d="M132 224v1l-1-2 1 1Z"/><path fill="#99D2BD" id="OLF" d="m313 251 8 4c0-5.113-4.93-8.639-2-14.5l6.5-7.5c1.426-.713 6.5-1.764 6.5-4-5.485 0-7-.2-7-6-1.991 0-3.486 8-7 8l-1 1-1 4-3 15ZM342 223l-1 1 1-1ZM115 224l1 1-1-1ZM143 252c-3.054 0-4.55 3-8 3 0-4.224 5.531-8.437 2-15.5-2.424-4.849-8.681-6.681-12-10l-4-2.5c3.476 0 11 5.705 11-2v-1l7 8 2 3c0 6.265 2 10.944 2 17Z"/><path fill="#96A6D3" id="NDB" d="m225 260-1 1c-.505 0-15 13.216-15 1.5l4-6.5c0-3.252 4.547-7.595 6-10.5 1.071-2.143 2-17.085 2-20.5 4.705 0 8.679-1 14-1 0 5.029 4.099 32 9 32l3 5.5c1.528 3.056-3.505 6.998-6.5 5.5l-10.5-8-1.5-2-2.5 2-1 1Z"/><path fill="#99D2BD" id="OLF" d="m341 224-1 1 1-1ZM117 225l1 1-1-1ZM339 225l-1 1 1-1ZM119 226l1 1-1-1ZM338 226l-1 1 1-1ZM335 227l-1 1 1-1ZM334 228l-2 1 2-1Z"/><path fill="#97D6F9" id="STR" d="m318 231-1 1 1-1ZM143 234l-2 1-2-3 4 2ZM313 234l3 2 1-4-4 2Z"/><path fill="#A2B1D7" id="SI" d="m212 238-1 1 1-1ZM322 256c-2.764 0-6.262 5.762-8.5 8-3.945 3.945-9.685 6.342-15 9-7.089 3.544-32.763-.882-39-4-3.194-1.597-6.973 4-9.5 4l-2-17c0-5.679-3-11.118-3-17l7 9.5c6.592 6.592 11.523 12.012 20.5 16.5h9c10.907 0 31.5.689 31.5-14l8 4h1v1ZM209 256c0 5.495-2 10.954-2 17-2.943 0-6.641-5.93-10.5-4-6.215 3.108-31.957 7.522-39 4-6.545-3.273-12.674-9.337-18-12l-4.5-5v-1c3.45 0 4.946-3 8-3 0 11.109 32.15 17.175 40.5 13l11-6 10-10c2.276-1.138 3.44-9 6.5-9 0 5.953-2 9.932-2 16Z"/><path fill="#CAC8C7" id="lot" d="m124 263-1 2c-1.694 0-20-15.537-20-17 0-1.961 2.722-.389 3.5 0l14 7 3.5 4v4ZM332 262l2 3c2.75 0 3.631-3.131 5.5-5 3.038-3.038 14.5-7.298 14.5-12-3.486 0-22 6.895-22 12v2Z"/><path fill="#99D2BD" id="OLF" d="M134 256h1v-1l-1 1ZM322 256h1l-1-1v1Z"/><path fill="#7FCCF7" id="OT" d="M207 273v3c0 12.419-11.244 12.872-19.5 17h-9c-12.832 6.416-36.103 5.294-43.5-9.5-2.659-5.319-10-9.182-10-15.5l-1-5v-1l1-1v-1l9-4h1l4.5 5c5.326 2.663 11.455 8.727 18 12 7.043 3.522 32.785-.892 39-4 3.859-1.93 7.557 4 10.5 4Z"/><path fill="#8599CC" id="PAL" d="M207 273v3c2.949 0 17-11.555 17-15-.505 0-15 13.216-15 1.5l4-6.5h-4c0 5.495-2 10.954-2 17ZM250 273l-1 3c-2.017 0-19-14.753-19-17l10.5 8c2.995 1.498 8.028-2.444 6.5-5.5l-3-5.5h4l2 17Z"/><path fill="#7FCCF7" id="OT" d="m250 273-1 3c0 11.599 11.857 13.179 19.5 17h9c14.327 7.164 37.746 4.008 45.5-11.5 2.496-4.992 9-8.548 9-14.5v-6l-2-2-7-3h-1c-2.764 0-6.262 5.762-8.5 8-3.945 3.945-9.685 6.342-15 9-7.089 3.544-32.763-.882-39-4-3.194-1.597-6.973 4-9.5 4Z"/><path fill="#99D2BD" id="OLF" d="M124 261h1v-1l-1-1v2Z"/><path fill="#8599CC" id="PAL" d="m226 259-1 1 1-1Z"/><path fill="#99D2BD" id="OLF" d="M332 260v1l-2-2 2 1Z"/><path fill="#97D6F9" id="STR" d="m125 261-1 1v-1h1ZM334 265l-2 2v-5l2 3ZM123 265c0 1.238.423 3 2 3l-1-5-1 2Z"/></svg>