<svg xmlns="http://www.w3.org/2000/svg" viewBox="0 0 456 320"><path fill="#9AD1BD" id="MOB" fill-rule="evenodd" d="m177 210-1 3.5 1 3c2.71 5.419 7.765-6.5 0-6.5m14 38h1c18.847 0 20.507-13.513 27-26.5 1.446-2.892.51-7.019 2-10l1-19c2.7-5.4 2.7-24.6 0-30l1-23c-2.554-5.108-1.435-11.871-4-17l-5-7.5-5-4h-1l-2-1c-2.816 0-7.049-.775-9.5-2-5.044-2.522-23.937 2.968-28 5-3.731 1.866-11.863 7.226-13.5 10.5l-5 7.5-1 1v2l-1 1v1l-1 1v2l-1 2v2l-1 2v14c1.473 0 1 1.952 1 3v2l1 2v5l1 1v2l1 1v2l1 2v1l1 2v1c1.353 0 2 4.643 2 6v1c1.802 0 3 6.346 3 8l1 1v2l1 1 1 3v2l2 3c0 9.154 18.549 37 29 37l1 1m-2-110c2.332 0 2.057-4.722 5.5-3 2.446 1.223-1.13 8-2.5 8l1 6.5c-3.773 7.546-13.913 15.173-20 3-3.299-6.598-2-10.411-2-17.5l-1-3c0-1.456 2.94-3.78 4.5-3 2.04 1.02 2.424 6 3.5 6 0-11.202 11-8.772 11 3ZM277 210l-2 3.5c-.653 1.307.506 5.497 2.5 4.5 3.419-1.709 3.924-8-.5-8m-11 37-1 1c-34.922 0-31-57.374-31-82v-30.5l4-14c1.07-2.14 4-3.942 4-6.5l1-1 1-1c1.238 0 3-.423 3-2h1c1.048 0 3 .473 3-1 2.407 0 7.311-.906 9.5-2 8.346-4.173 25.843 5.921 32 9 3.398 1.699 6.693 3.885 8.5 7.5 1.204 2.409 6 4.683 6 8.5l1 1v1l1 1v2l1 1v2l1 2v19l-1 2v2l-1 2v4l-1 2v1l-1 2v2l-1 2-1 2v2l-1 2c-1.579 0-1 2.855-1 4-1.638 0-2 3.576-2 5l-1 1v2l-1 1v3l-1 2-1 2v1l-1 1v1l-1 1c0 9.013-18.55 36-29 36m1-110-2.5-2c-7.227-3.614-.5 7.809-.5 8 0 15.342 12.491 23.517 21 6.5 2.678-5.356 0-8.996 0-14.5 4.143 0 .25-5.125-1.5-6-2.797-1.399-2.26 3-4.5 3l-3.5-4c-1.956-.978-4.077 1-5.5 1l-2.5 3-.5 5Z"/><path fill="#99D2BD" id="OLF" d="m206 110 2 1-2-1ZM251 110c-1.048 0-3-.473-3 1 1.048 0 3 .473 3-1ZM214 115h1c0-1.617-4.583-4-6-4l5 4ZM247 111c-1.238 0-3 .423-3 2 1.238 0 3-.423 3-2ZM244 113l-1 1 1-1ZM241 115h1l1-1-2 1Z"/><path fill="#C7CBCA" id="onl" d="M227 210c0 11.057 2.05 40.399-2 48.5l-4.5 3.5c-12.655 6.327-9.787-4.894-16-8-1.834-.917-12.5-4.028-12.5-6 18.847 0 20.507-13.513 27-26.5 1.446-2.892.51-7.019 2-10l1-19c2.7-5.4 2.7-24.6 0-30l1-23c-2.554-5.108-1.435-11.871-4-17l-5-7.5h2l1 1 3 3.5 4 10c2.96 5.919 3 30.036 3 38.5 0 1.991-.793 14 1 14v20c-1.735 0-1 6.51-1 8Z"/><path fill="#99D2BD" id="OLF" d="m216 115 1 1-1-1Z"/><path fill="#C7CBCA" id="onl" d="M242 115c0 2.558-2.93 4.36-4 6.5l-4 14V166c0 24.626-3.922 82 31 82 0 1.825-9.78 4.14-11.5 5-7.761 3.881-6.927 14.036-17 9-2.33-1.165-4.125-1.75-5.5-4.5-3.545-7.091-1-21.708-1-30 0-18.599-1-38.737-1-58 0-7.809-1.302-19.396 2-26 2.247-4.494 1.774-28.5 10-28.5h1Z"/><path fill="#9DEFD2" id="AOBmi" d="M178 135c0 8.408 11 9.591 11 3 0-11.772-11-14.202-11-3ZM279 132l-3.5-4c-1.956-.978-4.077 1-5.5 1l-2.5 3-.5 5c0 8.915 12 5.915 12-5Z"/><path fill="#CACAC9" id="lotd" d="M189 138c2.332 0 2.057-4.722 5.5-3 2.446 1.223-1.13 8-2.5 8-3.435 0-5.59 7.455-10.5 5-4.237-2.119-7.443-13-10.5-13l-1-3c0-1.456 2.94-3.78 4.5-3 2.04 1.02 2.424 6 3.5 6 0 8.408 11 9.591 11 3ZM267 137l-2.5-2c-7.227-3.614-.5 7.809-.5 8 3.207 0 5.999 7.25 10.5 5 3.919-1.96 6.662-5.824 8.5-9.5.579-1.158-.341-3.5 2-3.5 4.143 0 .25-5.125-1.5-6-2.797-1.399-2.26 3-4.5 3 0 10.915-12 13.915-12 5Z"/><path fill="#99D2BD" id="OLF" d="m150 131-1 1 1-1ZM307 133l1 1-1-1ZM149 134l-1 1 1-1Z"/><path fill="#95E4C8" id="AOBgr" d="M171 135c3.057 0 6.263 10.881 10.5 13 4.91 2.455 7.065-5 10.5-5l1 6.5c-3.773 7.546-13.913 15.173-20 3-3.299-6.598-2-10.411-2-17.5ZM285 135c-2.341 0-1.421 2.342-2 3.5-1.838 3.676-4.581 7.54-8.5 9.5-4.501 2.25-7.293-5-10.5-5 0 15.342 12.491 23.517 21 6.5 2.678-5.356 0-8.996 0-14.5Z"/><path fill="#99D2BD" id="OLF" d="m308 135 1 1-1-1ZM148 136l-1 1 1-1ZM309 138l1 1-1-1ZM147 139l-1 2 1-2ZM310 141l1 2-1-2ZM146 143l-1 2 1-2ZM311 153c1.399 0 1.399 2 0 2v-2ZM145 159c1.473 0 1 1.952 1 3-1.473 0-1-1.952-1-3ZM311 162l-1 2 1-2ZM146 164l1 2-1-2ZM310 166l-1 2 1-2ZM227 168c1.793 0 1 12.009 1 14-1.793 0-1-12.009-1-14ZM147 171l1 1-1-1ZM309 172l-1 2 1-2ZM148 174l1 1-1-1ZM308 175l-1 2 1-2ZM149 177l1 2-1-2ZM307 179l-1 2 1-2ZM150 180l1 2-1-2ZM306 181l-1 2 1-2ZM151 183c1.353 0 2 4.643 2 6-1.353 0-2-4.643-2-6ZM305 185l-1 2 1-2ZM304 187c-1.579 0-1 2.855-1 4 1.579 0 1-2.855 1-4ZM153 190c1.802 0 3 6.346 3 8-1.291 0-3-6.457-3-8ZM303 191c-1.638 0-2 3.576-2 5 1.638 0 2-3.576 2-5Z"/><path fill="#C7CBCA" id="onl" d="M300 197h1v-1l-1 1Z"/><path fill="#99D2BD" id="OLF" d="m301 197-1 2v-2h1Z"/><path fill="#C7CBCA" id="onl" d="M156 199h1l-1-1v1Z"/><path fill="#99D2BD" id="OLF" d="M157 199v2l-1-2h1Z"/><path fill="#C7CBCA" id="onl" d="M299 200h1v-1l-1 1Z"/><path fill="#99D2BD" id="OLF" d="m300 200-1 2v-2h1Z"/><path fill="#C7CBCA" id="onl" d="M157 202h1l-1-1v1Z"/><path fill="#99D2BD" id="OLF" d="m158 202 1 3c-1.577 0-2-1.762-2-3h1ZM228 202c-1.735 0-1 6.51-1 8 1.735 0 1-6.51 1-8ZM299 203l-1 2 1-2ZM298 205l-1 2 1-2ZM159 207l2 3c-1.577 0-2-1.762-2-3ZM297 208l-1 1 1-1Z"/><path fill="#CAC8C7" id="lot" d="m177 210-1 3.5 1 3c2.71 5.419 7.765-6.5 0-6.5ZM277 210l-2 3.5c-.653 1.307.506 5.497 2.5 4.5 3.419-1.709 3.924-8-.5-8Z"/><path fill="#99D2BD" id="OLF" d="m296 210-1 1 1-1Z"/><path fill="#C7CBCA" id="onl" d="m190 247 1 1-1-1ZM266 247l-1 1 1-1Z"/></svg>