<svg xmlns="http://www.w3.org/2000/svg" viewBox="0 0 456 320"><path fill="#99D2BD" id="OLF" d="m169 172 2-.5c4.81 9.62 9.457 19.914 14 29 2.628 5.256 8.304 6.402 12.5 8.5 1.644.822 7.5-1.038 7.5 2 4.434 0 11.235-8.97 13-12.5l1-7c3.609-7.218 3.622-47.756 0-55-6.091-12.183-26.043-8.957-34-1-4.443 4.443-7.505 8.011-10 13-3.711 7.422-6 14.508-6 23.5ZM287 171c-.873 0-7.025 13.549-8 15.5-2.897 5.794-7.555 17.027-14.5 20.5-3.242 1.621-7.882.441-11 2l-2.5 2-4-2.5c-3.527-3.527-6.939-6.879-9-11-4.621-9.242-2-32.894-2-44.5 0-4.695-.973-11.554 1-15.5 4.943-9.885 19.784-11.358 29.5-6.5 14.413 7.206 20.5 25.363 20.5 40Z"/><path fill="#C7CBCA" id="onl" d="m169 172 2-.5c4.81 9.62 9.457 19.914 14 29 2.628 5.256 8.304 6.402 12.5 8.5 1.644.822 7.5-1.038 7.5 2 0 4.519-10.043 7.585-12 11.5-1.682 3.364.043 8.228-4.5 10.5-1.837.919-7.155 2.191-8.5-.5-2.893-5.786 3.612-11.775 1-17-9.905-19.811-12-19.224-12-43.5ZM287 171c-.873 0-7.025 13.549-8 15.5-2.897 5.794-7.555 17.027-14.5 20.5-3.242 1.621-7.882.441-11 2l-2.5 2c0 3.478 6.288 4.075 8 7.5l4 4c1.189 2.378 8.378 20.245 14 9 2.351-4.702-3.746-11.507-2-15 11.05-22.099 12-19.899 12-45.5Z"/></svg>