<svg xmlns="http://www.w3.org/2000/svg" viewBox="0 0 456 320"><path fill="#1E9C59" id="MOs1" d="m132 143-4 4c-1.81 0-5-13.31-5-16 0-11.419 5.426-31.463 16.5-37 7.376-3.688 13.697-9.349 21-13 4.223-2.111 9.812-1.906 14-4 2.905-1.453 13.532-4.734 17-3 4.148 2.074 9.851.925 14 3l6.5 4-5 5h-1c0-2.485-9.679-2.09-11.5-3-7.009-3.505-28.774 1.887-35 5-13.486 6.743-22.713 15.926-29.5 29.5-3.448 6.895 2 19.071 2 25.5ZM324 143c1.634 0 4 2.634 4 4 5.583 0 6.357-26.786 4-31.5-6.728-13.455-17.623-25.562-31.5-32.5-3.643-1.821-8.376-2.188-12-4-3.504-1.752-8.958-4-13-4-4.935 0-31.5-.248-31.5 7l5 4h1c2.819 0 10.762-2.631 13.5-4 4.668-2.334 18.176 1.088 22 3 4.131 2.065 9.796 1.898 14 4 11.626 5.813 20.894 16.288 26.5 27.5 4.102 8.203-2 18.652-2 26.5Z"/><path fill="#2FA750" id="PL1" d="M223 117h10c0-7.733 2.773-15.047 6-21.5 1.371-2.742 10-7.416 10-9.5l-5-4c-2.456 0-11.675 12.85-13 15.5l-2.5 7.5c-1.413 0-2.974-7.448-3.5-8.5-1.327-2.655-11.49-15.5-13-15.5l-5 5c0 1.4 8.671 5.842 10 8.5 3.522 7.043 6 13.952 6 22.5Z"/><path fill="#1E9D58" id="MOs2/3" d="M132 143h1c0-1.895 12.432-8 15-8 0-18.022 9.653-32.077 25.5-40 4.55-2.275 10.417-1.709 15-4l12.5 1 5-6c0-2.485-9.679-2.09-11.5-3-7.009-3.505-28.774 1.887-35 5-13.486 6.743-22.713 15.926-29.5 29.5-3.448 6.895 2 19.071 2 25.5ZM308 135c6.119 0 12.376 8 16 8 0-7.848 6.102-18.297 2-26.5-5.606-11.212-14.874-21.687-26.5-27.5-4.204-2.102-9.869-1.935-14-4-3.824-1.912-17.332-5.334-22-3-2.738 1.369-10.681 4-13.5 4l5 6 13.5-1c3.665 1.832 8.396 1.198 12 3 17.663 8.831 20.319 17.137 28.5 33.5 1.182 2.364-1 5.696-1 7.5Z"/><path fill="#2FA74F" id="PL2/3" d="m217 116 6 1c0-8.548-2.478-15.457-6-22.5-1.329-2.658-10-7.1-10-8.5h-1l-5 6v1c10.71 0 16 12.063 16 22v1ZM240 116l-7 1c0-7.733 2.773-15.047 6-21.5 1.371-2.742 10-7.416 10-9.5h1l5 6v1c-11.08 0-15 13.005-15 22v1Z"/><path fill="#1F9D58" id="MOs5" d="M148 135c3.489 0 5.32 2 9 2l5-11c0-1.78-4.98-4.539-3-8.5 6.544-13.088 20.575-16.5 35-16.5l7-8v-1l-12.5-1c-4.583 2.291-10.45 1.725-15 4-15.847 7.923-25.5 21.978-25.5 40ZM308 135c-3.462 0-5.027 2-9 2 0-3.549-5-7.688-5-11 6.819 0 1.242-14.629-1.5-16-10.707-5.353-17.334-9-30.5-9l-7-8v-1l13.5-1c3.665 1.832 8.396 1.198 12 3 17.663 8.831 20.319 17.137 28.5 33.5 1.182 2.364-1 5.696-1 7.5Z"/><path fill="#2EA84F" id="PL5" d="M205 112c4.304 0 7.464 3 12 3 0-9.937-5.29-22-16-22l-7 8c0 .948 11 6.304 11 11ZM251 112c-3.99 0-6.666 3-11 3 0-8.995 3.92-22 15-22l7 8c0 .06-11 7.629-11 11Z"/><path fill="#258F45" id="FRP5" d="M188 114c5.059 0 9.715 2 14 2 7.361 0 3 5.011 3-4 0-4.696-11-10.052-11-11-14.425 0-28.456 3.412-35 16.5-1.98 3.961 3 6.72 3 8.5 7.887 0 15.931-12 26-12ZM254 116l-1 1c-4.813 0-2-.423-2-5 0-3.371 11-10.94 11-11 13.166 0 19.793 3.647 30.5 9 2.742 1.371 8.319 16 1.5 16-5.814 0-15.976-12-25-12-5.473 0-10.183 2-15 2Z"/><path fill="#23885E" id="ORBm5" d="M217 116c0 5.649-1.296 13-8 13 0-4.174-7-10.572-7-13 7.361 0 3 5.011 3-4 4.304 0 7.464 3 12 3v1Z"/><path fill="#23885E" id="ORBm5" fill-rule="evenodd" d="M249 118c0 1.93 1.93 0 0 0m4-1-6 12c-7.055 0-7-7.12-7-13v-1c4.334 0 7.01-3 11-3 0 4.577-2.813 5 2 5Z"/><path fill="#228A5D" id="ORBl5" d="M155 144v1c8.549 0 8.698-10.099 14.5-13 5.464-2.732 8.783-5 15.5-5 0-4.67 3-8.668 3-13-10.069 0-18.113 12-26 12l-5 11-2 7Z"/><path fill="#23885C" id="ORBvl5" d="m185 128 24 1c0-4.174-7-10.572-7-13-4.285 0-8.941-2-14-2 0 4.332-3 8.33-3 13v1ZM271 127c0 1.684-4.679 1-6 1-5.708 0-11.784 1-18 1l6-12 1-1c4.817 0 9.527-2 15-2 0 4.757 2 7.969 2 13Z"/><path fill="#228A5D" id="ORBl5" d="M299 137c0 2.343 2 4.27 2 8-9.746 0-11.692-18-29-18h-1c0-5.031-2-8.243-2-13 9.024 0 19.186 12 25 12 0 3.312 5 7.451 5 11Z"/><path fill="#24885D" id="ORBm2/3" d="M209 129c0 3.493 7 11.321 7 16 8.311 0 7-21.642 7-28l-6-1c0 5.649-1.296 13-8 13ZM240 145h1c0-6.001 6-10.542 6-16-7.055 0-7-7.12-7-13l-7 1c0 5.922-.138 28 7 28Z"/><path fill="#23885E" id="ORBm5" d="m254 116-1 1 1-1Z"/><path fill="#23895D" id="ORBm1" d="M236 159h1v-1c0-4.553 3-8.75 3-13-7.138 0-7-22.078-7-28h-10c0 6.358 1.311 28-7 28 0 4.104 3 8.018 3 13v1h1l5-1 3-5.5.5-3.5.5 5.5 2 2.5c1.624 0 2.75 2 5 2Z"/><path fill="#258F45" id="FRP5" d="M249 118c0 1.93 1.93 0 0 0Z"/><path fill="#238A5E" id="ORBl2/3" d="M155 145c0 5.885-2 12.18-2 20 6.54 0 20.032-26 30-26v-1c0-1.215.624-10 2-10v-1c-6.717 0-10.036 2.268-15.5 5-5.802 2.901-5.951 13-14.5 13Z"/><path fill="#248A5D" id="ORBvl2/3" d="M273 138c-5.301 0-15.587.544-20.5 3-3.518 1.759-7.324 4-11.5 4 0-6.001 6-10.542 6-16 6.216 0 12.292-1 18-1 1.321 0 6 .684 6-1h1c0 4.03 1 6.469 1 11Z"/><path fill="#238A5E" id="ORBl2/3" d="M301 145c0 5.688 3 13.829 3 20-8.296 0-19.717-26-31-26v-1c0-4.531-1-6.97-1-11 17.308 0 19.254 18 29 18Z"/><path fill="#248A5D" id="ORBvl2/3" d="M183 138c3.588 0 11.151-.675 14.5 1 5.216 2.608 12.374 6 18.5 6 0-4.679-7-12.507-7-16l-24-1c-1.376 0-2 8.785-2 10Z"/><path fill="#209765" id="AId2/3" d="m153 165-1 1c-7.275 0-19-14.197-19-23 0-1.895 12.432-8 15-8 0 1.713 4.88 9 7 9v1c0 5.885-2 12.18-2 20Z"/><path fill="#209665" id="AId5" d="m157 137-2 7c-2.12 0-7-7.287-7-9 3.489 0 5.32 2 9 2ZM299 137c0 2.343 2 4.27 2 8 2.293 0 7-8.232 7-10-3.462 0-5.027 2-9 2Z"/><path fill="#209765" id="AId2/3" d="M304 165v1c7.4 0 20-15.429 20-23-3.624 0-9.881-8-16-8 0 1.768-4.707 10-7 10 0 5.688 3 13.829 3 20Z"/><path fill="#248A5B" id="ORBvl1" d="M218 158h1c0-4.982-3-8.896-3-13-6.126 0-13.284-3.392-18.5-6-3.349-1.675-10.912-1-14.5-1v10c7.023 0 14.609 2.054 20.5 5 1.114.557 5.5.41 5.5 2l7 2 1 1h1ZM237 158h1l9-3c0-1.59 4.386-1.443 5.5-2 6.234-3.117 14.026-5 21.5-5 0-3.559-1-5.504-1-9v-1c-5.301 0-15.587.544-20.5 3-3.518 1.759-7.324 4-11.5 4h-1c0 4.25-3 8.447-3 13Z"/><path fill="#238A5D" id="ORBl1" d="M151 174h4c0-2.1 13.534-15.034 16.5-18l5.5-5c0-1.747.253-2 2-2h1c0-1.473 1.952-1 3-1v-9c-9.968 0-23.46 26-30 26l-1 1c0 2.707-1 5.903-1 8ZM301 173l4 1-1-8v-1c-8.296 0-19.717-26-31-26 0 3.496 1 5.441 1 9 8.856 0 15.729 15.615 22.5 19 2.452 1.226.849 6 4.5 6Z"/><path fill="#209764" id="AId1" d="M152 166c0 2.707-1 5.903-1 8-7.4 0-23-20.657-23-27l4-4h1c0 8.803 11.725 23 19 23ZM304 166l1 8 6.5-1c3.465-1.732 16.5-22.616 16.5-26 0-1.366-2.366-4-4-4 0 7.571-12.6 23-20 23Z"/><path fill="#99D2BD" id="OLF" fill-rule="evenodd" d="M187 158c0 4.275 7.975 0 0 0m-30 21c-1.684 0-1 4.679-1 6 0 6.261 3 12.249 3 18-1.845 0-1.441-3.381-2-4.5-6.64-13.28-2-11.918-2-24.5 0-2.1 13.534-15.034 16.5-18l5.5-5c0 15.179 21.064-2 3-2 0-1.473 1.952-1 3-1 7.023 0 14.609 2.054 20.5 5 1.114.557 5.5.41 5.5 2-3.621 0-15-3.78-15 1.5 0 2.957 5 4.988 5 8.5h-2c0-5.277-17.14-4-20-4l-4 2c-2.103 0-9 3.18-9 6l-1 1c-3.528 0-6 6.283-6 9ZM265 158c0 4.563 9.221 0 0 0m6-9c0 1.791-3.27 2.959-2 5.5 3.403 6.806 16.698-.901 7.5-5.5H271m29 30-1 20 2-3.5c5.231-10.463 0-12.601 0-22.5-3.651 0-2.048-4.774-4.5-6-6.771-3.385-13.644-19-22.5-19-7.474 0-15.266 1.883-21.5 5-1.114.557-5.5.41-5.5 2 1.95 0 17.78-3.059 15 2.5-1.266 2.532-5 4.524-5 7.5h2l6.5-4c4.054-2.027 9.65 0 13.5 0 6.584 0 21 10.723 21 18Z"/><path fill="#99D2BD" id="OLF" d="M179 149c-1.747 0-2 .253-2 2 1.747 0 2-.253 2-2Z"/><path fill="#9DF0D1" id="AOBgl" d="M180 149c18.064 0-3 17.179-3 2 1.747 0 2-.253 2-2h1ZM271 149c0 1.791-3.27 2.959-2 5.5 3.403 6.806 16.698-.901 7.5-5.5H271Z"/><path fill="#9AD1BD" id="MOB" d="M213 249h1l1-1 1-1 7-10c0-1.357.647-6 2-6v-2l1-1v-4l1-1v-48c-1.059 0-2-6.743-2-8v-1l-5-7h-1l-1-1h-1l-1-1-7-2c-3.621 0-15-3.78-15 1.5 0 2.957 5 4.988 5 8.5l2 4 1 18.5c-1.473 2.945-3 8.122-3 11.5 0 1.272-1.114 11-2 11v8l-1 1c0 7.142-4 12.568-4 20l2 7 11.5 5 6.5-1 1-1ZM241 248l1 1 4.5 2c3.765 1.882 10.152-2.576 13-4 1.158-.579 3.5.341 3.5-2 0-1.564 1-3.876 1-6 0-6.59-4-13.043-4-20l-1-12c0-2.097-1-5.293-1-8-1.454 0-1.433-5.366-2-6.5-3.876-7.753 0-15.849 0-23.5-2.889 0 1-3.299 1-4 0-2.976 3.734-4.968 5-7.5 2.78-5.559-13.05-2.5-15-2.5l-9 3-1 1h-1l-5 8v2c0 1.145.579 4-1 4v19.5c0 1.19.614 4.5-1 4.5v20c1.579 0 1 2.855 1 4l1 9c1.361 0 2.379 6.258 3 7.5l7 10.5Z"/><path fill="#99D2BD" id="OLF" d="m216 157 1 1-1-1ZM236 159l-5 8v-10c1.624 0 2.75 2 5 2Z"/><path fill="#9DEFD2" id="AOBmi" d="M187 158c0 4.275 7.975 0 0 0Z"/><path fill="#99D2BD" id="OLF" d="M219 158v1l-1-1h1ZM220 159l5 7v-8l-5 1ZM238 158l-1 1v-1h1Z"/><path fill="#9DEFD2" id="AOBmi" d="M265 158c0 4.563 9.221 0 0 0Z"/><path fill="#54BF94" id="AON" d="M183 234c3.035 0 5.133 5 9 5 0-7.432 4-12.858 4-20-1.951 0-.477-2.454-1-3.5l-4-11c-1.397-2.794-9.274-15.452-8-18 2.019-4.038 10 4.271 10 8.5 2.33 0 3.227 4 6 4 0-3.378 1.527-8.555 3-11.5l-1-18.5c-1.366 0-4-2.366-4-4 0-5.277-17.14-4-20-4 0 2.109-2.535 2-4 2 0 1.772-7.346 6-9 6l-1 1c0 1.292-5.313 9-6 9 0 14.711 7.917 26.334 14 38.5 2.451 4.903 12 10.934 12 16.5ZM273 234c0 2.371-6.407 5-9 5 0-6.59-4-13.043-4-20 2.064 0 4.07-11.641 5-13.5l9-18c-2.905-5.81-11 4.024-11 7.5-1.539 0-2.187 4-5 4-1.454 0-1.433-5.366-2-6.5-3.876-7.753 0-15.849 0-23.5 1.712 0 3-2.571 3-4l6.5-4c4.054-2.027 9.65 0 13.5 0 0 2.13 6.044 3.272 7.5 4 3.469 1.735 12.5 10.081 12.5 14 0 15.347-7.684 26.868-14 39.5-2.347 4.695-12 10.178-12 15.5Z"/><path fill="#CACAC9" id="lotd" d="m177 161-4 2c1.465 0 4 .109 4-2ZM299 179h1c0-7.277-14.416-18-21-18 0 2.13 6.044 3.272 7.5 4 3.469 1.735 12.5 10.081 12.5 14ZM173 163c-2.103 0-9 3.18-9 6 1.654 0 9-4.228 9-6ZM199 165l2 4c-1.366 0-4-2.366-4-4h2ZM259 165c0 1.429-1.288 4-3 4-2.889 0 1-3.299 1-4h2Z"/><path fill="#99D2BD" id="OLF" d="M225 167c1.931 0 2 6.225 2 8-1.059 0-2-6.743-2-8Z"/><path fill="#CACAC9" id="lotd" d="m164 169-1 1 1-1Z"/><path fill="#99D2BD" id="OLF" d="M231 169c-1.579 0-1 2.855-1 4 1.579 0 1-2.855 1-4Z"/><path fill="#CACAC9" id="lotd" d="M163 170c-3.528 0-6 6.283-6 9 .687 0 6-7.708 6-9Z"/><path fill="#99D2BD" id="OLF" d="M230 177c-1.614 0-1 3.31-1 4.5V197c1.614 0 1-3.31 1-4.5V177Z"/><path fill="#CAC8C7" id="lot" d="M179 234h4c0-5.566-9.549-11.597-12-16.5-6.083-12.166-14-23.789-14-38.5-1.684 0-1 4.679-1 6 0 6.261 3 12.249 3 18 0 6.5 8.991 18.482 12 24.5 1.046 2.092 8 5.774 8 6.5ZM273 234h4c6.066 0 21-25.781 21-32l1-2v-1l1-20h-1c0 15.347-7.684 26.868-14 39.5-2.347 4.695-12 10.178-12 15.5Z"/><path fill="#CBCBC7" id="aco" d="m197 218-1 1c-1.951 0-.477-2.454-1-3.5l-4-11c-1.397-2.794-9.274-15.452-8-18 2.019-4.038 10 4.271 10 8.5 0 5.494 4 9.083 4 15v8ZM259 207l1 12c2.064 0 4.07-11.641 5-13.5l9-18c-2.905-5.81-11 4.024-11 7.5 0 2.009-2.384 12-4 12Z"/><path fill="#99D2BD" id="OLF" d="M199 199c0 1.272-1.114 11-2 11 0-5.917-4-9.506-4-15 2.33 0 3.227 4 6 4ZM258 199c0 2.707 1 5.903 1 8 1.616 0 4-9.991 4-12-1.539 0-2.187 4-5 4ZM299 200l-1 2 1-2ZM229 217c1.579 0 1 2.855 1 4-1.579 0-1-2.855-1-4Z"/><path fill="#54BF94" id="AON" d="m197 218-1 1 1-1Z"/><path fill="#99D2BD" id="OLF" d="m227 223-1 1 1-1Z"/><path fill="#C7CBCA" id="onl" d="m226 228-1 1 1-1ZM231 230c1.361 0 2.379 6.258 3 7.5l7 10.5c-5.631 0-10-13.476-10-18ZM225 231c-1.353 0-2 4.643-2 6 2.698 0 2-4.255 2-6Z"/><path fill="#99D2BD" id="OLF" d="m192 239 2 7c-3.09 0-15-9.624-15-12h4c3.035 0 5.133 5 9 5ZM264 239c0 2.124-1 4.436-1 6 2.761 0 14-7.544 14-11h-4c0 2.371-6.407 5-9 5Z"/><path fill="#C7CBCA" id="onl" d="M216 247h1c3.415 0 6-7.51 6-10l-7 10ZM215 248h1v-1l-1 1Z"/><path fill="#99D2BD" id="OLF" d="m217 247-1 1v-1h1Z"/><path fill="#C7CBCA" id="onl" d="m215 248-1 1 1-1Z"/><path fill="#99D2BD" id="OLF" d="m241 248 1 1-1-1Z"/><path fill="#C7CBCA" id="onl" d="m213 249-1 1 1-1Z"/></svg>