<svg xmlns="http://www.w3.org/2000/svg" viewBox="0 0 456 320"><path fill="#1E9C59" id="MOs1" d="M127 91h1c1.245 0 13.482-10.491 16.5-12 10.707-5.354 43.545-20.227 56-14 2.973 1.487 15.5 4.09 15.5 10h1l3-3c0-7.334-10.832-10.666-15.5-13-16.048-8.024-45.429 6.215-59 13-3.162 1.581-18.5 10.125-18.5 13v6ZM330 85c0 1.564-1 3.876-1 6-1.363 0-11.697-8.599-14.5-10-10.884-5.442-44.077-22.961-58-16h-5c-2.27 1.135-11.5 7.246-11.5 10h-1l-3-3c0-6.405 11.523-11.012 15.5-13 16.819-8.41 46.863 6.931 61 14 2.924 1.462 17.5 9.55 17.5 12Z"/><path fill="#1E9D58" id="MOs2/3" d="M128 91c0 5.053 1 13.538 1 19l9.5-9 21-14c6.378-3.189 31.641-16.68 39-13l9 3 3.5 3 5-5c0-5.91-12.527-8.513-15.5-10-12.455-6.227-45.293 8.646-56 14-3.018 1.509-15.255 12-16.5 12ZM329 92c-1.614 0-1 3.31-1 4.5l-1 13.5-6.5-7c-9.69-4.845-17.402-13.201-27-18-5.759-2.88-29.247-14.377-36-11-1.303.652-12.257 6-12.5 6l-5-5c0-2.754 9.23-8.865 11.5-10h5c13.923-6.961 47.116 10.558 58 16 2.803 1.401 13.137 10 14.5 10v1Z"/><path fill="#3EA665" id="ACAd1" d="M222 93h13v-9.5l4-8.5-3-3-7 10.5-.5 3.5-1.5-3.5c-.897-1.794-4.97-10.5-7-10.5l-3 3c0 5.012 5 10.834 5 18Z"/><path fill="#1F9D58" id="MOs5" d="M140 144c-2.789 0-5.693 5-9 5-2.577 0-2-6.545-2-8.5 0-5.309-1.548-15.905 1-21 .639-1.279.258-8.5-1-8.5v-1l9.5-9 21-14c6.378-3.189 31.641-16.68 39-13l9 3 3.5 3v1c-3.94 0-15.964 19-17 19-1.804 0-5.136-2.182-7.5-1-4.063 2.032-9.03 2.015-13 4-11.599 5.8-26.46 14.421-32.5 26.5l-1 14.5ZM317 145c3.482 0 5.71 5 9 5 0-2.279 2-5.418 2-7.5 0-9.177-1-19.569-1-31.5v-1l-6.5-7c-9.69-4.845-17.402-13.201-27-18-5.759-2.88-29.247-14.377-36-11-1.303.652-12.257 6-12.5 6v1c5.624 0 15.485 19 18 19 1.606 0 4.339-2.08 6.5-1 4.026 2.013 9.051 2.026 13 4 17.224 8.612 34.5 19.321 34.5 41v1Z"/><path fill="#40A565" id="ACAd2/3" d="m222 93-6 2c0-2.461-1.726-14-5-14v-1l5-5h1c0 5.012 5 10.834 5 18ZM240 95h1c0-5.816 4-12.071 4-14v-1l-5-5h-1l-4 8.5V93l5 2Z"/><path fill="#3EA566" id="ACAd5" d="m194 101 4 2c4.54 0 11.563-8 18-8 0-2.461-1.726-14-5-14-3.94 0-15.964 19-17 19v1ZM258 104h1c0-1.712 2.571-3 4-3v-1c-2.515 0-12.376-19-18-19 0 1.929-4 8.184-4 14 2.353 0 17 6.947 17 9Z"/><path fill="#1E9D5A" id="MOp1" d="m105 165-4 2c-2.334 0-1.34-4.181-2-5.5-2.909-5.818-4-14.087-4-21 0-12.086 13.217-42.358 23.5-47.5 2.992-1.496 4.567-8 8.5-8v6l-10 10.5c-3.878 7.756-10.148 14.297-14 22-2.574 5.148-4.899 25.202-2 31 1.33 2.661 4 7.528 4 10.5ZM352 165l4 2c2.064 0 .426-3.353 1-4.5 2.856-5.712 4-13.157 4-20v-12c-4.373-8.747-12.502-31.001-21.5-35.5L330 85c0 1.564-1 3.876-1 6v1c5.084 0 12.15 11.799 14 15.5 3.518 7.035 8.54 13.081 12 20 1.586 3.173.375 7.75 2 11 1.489 2.979-5 22.636-5 26.5Z"/><path fill="#1F9C58" id="MOp2/3" d="m116 158-11 7c0-2.972-2.67-7.839-4-10.5-2.899-5.798-.574-25.852 2-31 3.852-7.703 10.122-14.244 14-22L127 91h1c0 5.053 1 13.538 1 19v1l-4 4.5-6 10c-5.19 10.379-3 20.979-3 32.5ZM351 165h1c0-3.864 6.489-23.521 5-26.5-1.625-3.25-.414-7.827-2-11-3.46-6.919-8.482-12.965-12-20-1.85-3.701-8.916-15.5-14-15.5-1.614 0-1 3.31-1 4.5l-1 13.5v1c2.115 0 5.248 5.996 6 7.5 3.978 7.957 9 15.988 9 25.5 0 1.714-.852 13-2 13v1c3.781 0 7.674 7 11 7Z"/><path fill="#2FA74F" id="PL2/3" d="M219 131h4c0-13.539-1-24.897-1-38l-6 2c0 11.723 3 24.721 3 36Z"/><path fill="#2FA750" id="PL1" d="M223 131h10c0-11.811 2-26.211 2-38h-13c0 13.103 1 24.461 1 38Z"/><path fill="#2FA74F" id="PL2/3" d="M233 131h4c0-1.698 1.195-5.89 2-7.5l1-28.5-5-2c0 11.789-2 26.189-2 38Z"/><path fill="#2EA84F" id="PL5" d="M205 130c4.121 0 9.275 1 14 1 0-11.279-3-24.277-3-36-6.437 0-13.46 8-18 8v1l3 5.5c.161.323 3 19.575 3 20.5h1ZM252 130h1v-1c0-2.941.904-15.307 2-17.5l3-7.5c0-2.053-14.647-9-17-9h-1l-1 28.5c-.805 1.61-2 5.802-2 7.5 5.172 0 10.365-1 15-1Z"/><path fill="#1D9C5A" id="MOs6a" d="m163 133-4.5-1c-2.97 1.485-17.309 12-18.5 12l1-14.5c6.04-12.079 20.901-20.7 32.5-26.5 3.97-1.985 8.937-1.968 13-4 2.364-1.182 5.696 1 7.5 1v1l-5 7c-1.514 0-5 5.537-5 7-6.511 0-17 4.263-17 12l-4 6ZM293 132c11.477 0 18.52 12 24 12 0-21.679-17.276-32.388-34.5-41-3.949-1.974-8.974-1.987-13-4-2.161-1.08-4.894 1-6.5 1v1l4 7c1.59 0 6 5.662 6 7 7.674 0 16 5.251 16 12l4 5Z"/><path fill="#3FA664" id="ACAd6a" d="M198 104c-3.164 0-5.21 4-9 4l5-7 4 2v1ZM259 104c0 1.778 6.332 4 8 4l-4-7c-1.429 0-4 1.288-4 3Z"/><path fill="#2FA850" id="PL6a" d="M187 119c3.284 0 11.712 11 17 11 0-.925-2.839-20.177-3-20.5l-3-5.5c-3.164 0-5.21 4-9 4-1.514 0-5 5.537-5 7l3 4ZM269 120c-5.681 0-9.867 9-16 9 0-2.941.904-15.307 2-17.5l3-7.5h1c0 1.778 6.332 4 8 4 1.59 0 6 5.662 6 7l-3 4-1 1Z"/><path fill="#1E9C5A" id="MOp5" d="m131 149-15 9c0-11.521-2.19-22.121 3-32.5l6-10 4-4.5c1.258 0 1.639 7.221 1 8.5-2.548 5.095-1 15.691-1 21 0 1.955-.577 8.5 2 8.5ZM326 150c5.254 0 9.213 7 14 7 1.148 0 2-11.286 2-13 0-9.512-5.022-17.543-9-25.5-.752-1.504-3.885-7.5-6-7.5 0 11.931 1 22.323 1 31.5 0 2.082-2 5.221-2 7.5Z"/><path fill="#268E44" id="FRP6a" d="M181 120c2.124 0 4.436 1 6 1v-2l-3-4c-6.511 0-17 4.263-17 12l14-7ZM275 120l14 7c0-6.749-8.326-12-16-12l-3 4-1 1 1 1 5-1Z"/><path fill="#22885E" id="ORBm6a" d="M204 130c0 5.792 4.183 16-4 16 0-5.398-13-18.368-13-25v-2c3.284 0 11.712 11 17 11ZM270 119l-1 1 1-1Z"/><path fill="#24895D" id="ORBl6a" d="M151 155v1c9.45 0 16.21-16 28-16v-1c0-6.707 2-13.268 2-19l-14 7-4 6-11 20-1 1v1Z"/><path fill="#238A5C" id="ORBvl6a" d="M179 139c7.638 0 13.47 7 21 7 0-5.398-13-18.368-13-25-1.564 0-3.876-1-6-1 0 5.732-2 12.293-2 19Z"/><path fill="#22885E" id="ORBm6a" d="M256 146h1c0-5.762 13-20.024 13-25l-1-1c-5.681 0-9.867 9-16 9v1c0 4.908-4.847 16 3 16Z"/><path fill="#238A5C" id="ORBvl6a" d="M277 139c-7.147 0-12.976 7-20 7 0-5.762 13-20.024 13-25l5-1c0 2.595 1.775 9.049 3 11.5 1.182 2.364-1 5.696-1 7.5Z"/><path fill="#24895D" id="ORBl6a" d="M305 155v1c-9.11 0-16-16-28-16v-1c0-1.804 2.182-5.136 1-7.5-1.225-2.451-3-8.905-3-11.5l14 7 4 5c0 3.408 12 17.916 12 23Z"/><path fill="#23885E" id="ORBm5" d="M220 154c0 8.948-.679 17-11 17 0-7.985-9-19.731-9-25 8.183 0 4-10.208 4-16h1c0 3.336 13.54 23 15 23v1Z"/><path fill="#59B262" id="ILA5" d="m219 131 1 22c-1.46 0-15-19.664-15-23 4.121 0 9.275 1 14 1ZM237 131v22l4-6.5c2.363-4.726 11-10.42 11-16.5-4.635 0-9.828 1-15 1Z"/><path fill="#23885E" id="ORBm5" d="M237 154c0 8.831-.805 17 10 17 0-8.837 9-16.642 9-25-7.847 0-3-11.092-3-16h-1c0 6.08-8.637 11.774-11 16.5l-4 6.5v1Z"/><path fill="#59B362" id="ILA2/3" d="M220 154c2.554 0 3.688 3 5 3 0-9.308-2-16.692-2-26h-4l1 22v1Z"/><path fill="#59B263" id="ILA1" d="M225 157h7v-2l1-24h-10c0 9.308 2 16.692 2 26Z"/><path fill="#59B362" id="ILA2/3" d="m237 154-5 1 1-24h4v23Z"/><path fill="#209666" id="AId6a" d="M149 156h1l1-1v-1l1-1 11-20-4.5-1c-2.97 1.485-17.309 12-18.5 12 0 5.8 2.205 12 9 12ZM306 156h1c3.088 0 6.792-1.085 8-3.5.587-1.173.619-7.5 2-7.5v-1c-5.48 0-12.523-12-24-12 0 3.408 12 17.916 12 23l1 1Z"/><path fill="#23885C" id="ORBvl5" d="M189 159c5.944 0 11.818 12 20 12 0-7.985-9-19.731-9-25-7.53 0-13.362-7-21-7v1c0 6.38 8 11.396 8 18l2 1ZM268 159c-7.703 0-12.399 12-21 12 0-8.837 9-16.642 9-25h1c7.024 0 12.853-7 20-7v1c0 6.604-8 11.62-8 18l-1 1Z"/><path fill="#228A5D" id="ORBl5" d="M187 158c-11.833 0-18.837 7.668-29.5 13-3.959 1.98-7.925 9-12.5 9-.601 0-2.253-4.994-2-5.5 1.239-2.478 8-16.776 8-18.5 9.45 0 16.21-16 28-16 0 6.38 8 11.396 8 18ZM311 181h1c0-2.421 2.411-6.678 1-9.5-2.036-4.071-7-10.907-7-15.5h-1c-9.11 0-16-16-28-16 0 6.604-8 11.62-8 18 10.895 0 17.634 6.067 27.5 11l4 4c1.881.941 10.5 5.692 10.5 8Z"/><path fill="#209665" id="AId5" d="M116 158c0 3.554 8.594 26 12 26 2.082 0 21-25.221 21-28-6.795 0-9-6.2-9-12-2.789 0-5.693 5-9 5l-15 9ZM328 184h1c0-.117 11-18.521 11-26v-1c-4.787 0-8.746-7-14-7-3.29 0-5.518-5-9-5-1.381 0-1.413 6.327-2 7.5-1.208 2.415-4.912 3.5-8 3.5 0 3.398 12.563 19.063 15 21.5l6 6.5Z"/><path fill="#1F9866" id="AIv6a" d="m152 153-1 1 1-1Z"/><path fill="#24885D" id="ORBm2/3" d="M211 181h8c0-5.524 6-14.792 6-24-1.312 0-2.446-3-5-3 0 8.948-.679 17-11 17 0 4.446 2 6.005 2 10ZM238 181h7c0-3.004 2-6.124 2-10-10.805 0-10-8.169-10-17l-5 1v2l1 13.5 5 10.5Z"/><path fill="#1F9866" id="AIv6a" d="M150 156h1v-1l-1 1ZM305 156h1l-1-1v1Z"/><path fill="#1F9865" id="AIv5" d="M128 184v1l8.5 1 8.5-5v-1c-.601 0-2.253-4.994-2-5.5 1.239-2.478 8-16.776 8-18.5h-2c0 2.779-18.918 28-21 28ZM312 181c.879 0 5.809 4.154 7.5 5 1.755.877 8.5-.118 8.5-2l-6-6.5c-2.437-2.437-15-18.102-15-21.5h-1c0 4.593 4.964 11.429 7 15.5 1.411 2.822-1 7.079-1 9.5Z"/><path fill="#238A5E" id="ORBl2/3" d="m145 181 3 3c2.255 0 8.807-5.653 11.5-7 .747-.374 4.5-2.422 4.5 0 2.592 0 9.414-4 16-4 3.855 0 6.459 3 10 3 0-6.537-1-12.781-1-17l-2-1c-11.833 0-18.837 7.668-29.5 13-3.959 1.98-7.925 9-12.5 9v1Z"/><path fill="#23895D" id="ORBm1" d="M229 177c0 5.333 4.854 4 9 4l-5-10.5-1-13.5h-7c0 9.208-6 18.476-6 24h6.5l2.5-4c0-2.212 1-2.212 1 0Z"/><path fill="#238A5E" id="ORBl2/3" d="m311 181-2 3c-3.899 0-9.031-6.266-12.5-8-.945-.472-3.5-.156-3.5 1-4.583 0-10.364-4-17-4-3.42 0-6.14 3-9 3 0-5.909 1-11.579 1-17l1-1c10.895 0 17.634 6.067 27.5 11l4 4c1.881.941 10.5 5.692 10.5 8Z"/><path fill="#209765" id="AId2/3" d="M118 192h1l9-7v-1c-3.406 0-12-22.446-12-26l-11 7c0 8.132 13 19.6 13 27ZM337 192h1c0-5.469 13-18.951 13-27-3.326 0-7.219-7-11-7 0 7.479-11 25.883-11 26l8 8Z"/><path fill="#248A5D" id="ORBvl2/3" d="M190 176c6.497 0 14.135 5 21 5 0-3.995-2-5.554-2-10-8.182 0-14.056-12-20-12 0 4.219 1 10.463 1 17ZM267 176c-6.921 0-14.677 5-22 5 0-3.004 2-6.124 2-10 8.601 0 13.297-12 21-12 0 5.421-1 11.091-1 17Z"/><path fill="#209764" id="AId1" d="m118 192-4 3-4-7.5c-3.051-6.102-9-13.307-9-20.5l4-2c0 8.132 13 19.6 13 27ZM338 192l4 3c2.236 0 3.287-5.074 4-6.5 2.947-5.893 10-14.752 10-21.5l-4-2h-1c0 8.049-13 21.531-13 27Z"/><path fill="#6ACAB9" id="PIR" d="M135 223c8.476 0 12.667 4.083 20.5 8 3.528 1.764 6.369 8 10.5 8l2-3.5V222c-1.149 0-1.473-5.447-2-6.5-2.153-4.305-8.093-9.815-5-16 5.839-11.679 19-11.828 19-26.5-6.586 0-13.408 4-16 4l-15 10-5.5 4c-5.677 2.838-11.987 13-18.5 13 0 5.094-.604 19 10 19Z"/><path fill="#99D2BD" id="OLF" d="M277 201c6.038 0 10.816 20 12 20 0-7.824 10.254-12.992 6-21.5-5.263-10.527-19-13.297-19-26.5-3.42 0-6.14 3-9 3-6.921 0-14.677 5-22 5h-7c-4.146 0-9 1.333-9-4h-1l-2.5 4H211c-6.865 0-14.503-5-21-5-3.541 0-6.145-3-10-3 0 14.672-13.161 14.821-19 26.5-3.093 6.185 2.847 11.695 5 16 .527 1.053.851 6.5 2 6.5 0-4.912 6.122-21 11-21l1-1 4-4 3.5-4c11.476-11.476 15.427-1 21.5-1 0-2.567 14.267-3.116 16.5-2 1.668.834 2.5 8.498 2.5 10l.5 4 .5-4c0-3.317-1.09-8.205 2.5-10h15l1.5 2c.656 0 4.138-3.319 5.5-4 5.323-2.661 19.5 6.061 19.5 9l3 3 1 1v1Z"/><path fill="#6ACAB9" id="PIR" d="M321 223c-9.679 0-14.298 5.899-22.5 10l-7.5 6-3-4.5c-1.839-3.678 1-10.096 1-13.5 0-7.824 10.254-12.992 6-21.5-5.263-10.527-19-13.297-19-26.5 6.636 0 12.417 4 17 4l14 10c4.859 0 17.769 17 24 17 0 6.3.929 19-10 19Z"/><path fill="#238A5D" id="ORBl1" d="m148 185 1 2 15-10c0-2.422-3.753-.374-4.5 0-2.693 1.347-9.245 7-11.5 7v1ZM309 185c-1.747 0-2 .253-2 2l-14-10c0-1.156 2.555-1.472 3.5-1 3.469 1.734 8.601 8 12.5 8v1Z"/><path fill="#219764" id="AIv2/3" d="M148 185c-2.65 0-16.298 10.899-20.5 13-3.051 1.525-8.5-3.241-8.5-6l9-7 8.5 1 8.5-5 3 3v1ZM309 185l6 4.5c3.378 3.378 22 14.96 22 2.5l-8-8h-1c0 1.882-6.745 2.877-8.5 2-1.691-.846-6.621-5-7.5-5h-1l-2 3v1Z"/><path fill="#209864" id="AIv1" d="M114 195c0 4.739 7.023 9 11 9 6.513 0 12.823-10.162 18.5-13l5.5-4-1-2c-2.65 0-16.298 10.899-20.5 13-3.051 1.525-8.5-3.241-8.5-6h-1l-4 3ZM342 195c0 5.016-6.573 9-11 9-6.231 0-19.141-17-24-17 0-1.747.253-2 2-2l6 4.5c3.378 3.378 22 14.96 22 2.5h1l4 3Z"/><path fill="#54BF94" id="AON" d="m265 257 1 1c3.553 0 18.926-11 20-11v-1c0-3.153 5-4.304 5-7l-3-4.5c-1.839-3.678 1-10.096 1-13.5-1.184 0-5.962-20-12-20 0 3.091-3.164 18-7.5 18-2.742 0-3.369-7.761-2.5-9.5 1.602-3.205 1.602-8.795 0-12l.5-2.5 5.5 1c0-2.939-14.177-11.661-19.5-9-1.362.681-4.844 4-5.5 4 0 3.279-2.607 6.714-4 9.5-2.447 4.893-1.536 15.518-7.5 18.5-2.437 1.219-6.174-1-8-1-1.826 0-5.563 2.219-8 1-3.82-1.91-11.5-23.208-11.5-28-6.073 0-10.024-10.476-21.5 1l-3.5 4 5-.5c.031.061 1.444 34.889-6 20-1.058-2.115-.981-4.961-2-7-.946-1.892-2-5.372-2-7.5-4.878 0-11 16.088-11 21v13.5l-2 3.5c0 2.622 4 4.285 4 8 4.558 0 14.723 11 21 11 0-5.139 3.83-9.159 6-13.5 12.406-24.813 68-17.143 68 12.5Z"/><path fill="#61D09F" id="TTd" d="M209 191c0 4.792 7.68 26.09 11.5 28 2.437 1.219 6.174-1 8-1 1.826 0 5.563 2.219 8 1 5.964-2.982 5.053-13.607 7.5-18.5 1.393-2.786 4-6.221 4-9.5l-1.5-2h-15c-3.59 1.795-2.5 6.683-2.5 10l-.5 4-.5-4c0-1.502-.832-9.166-2.5-10-2.233-1.116-16.5-.567-16.5 2Z"/><path fill="#CBCBC7" id="aco" d="m180 200-1 1c0 2.128 1.054 5.608 2 7.5 1.019 2.039.942 4.885 2 7 7.444 14.889 6.031-19.939 6-20l-5 .5-4 4ZM277 200v1c0 3.091-3.164 18-7.5 18-2.742 0-3.369-7.761-2.5-9.5 1.602-3.205 1.602-8.795 0-12l.5-2.5 5.5 1 3 3 1 1Z"/><path fill="#54BF94" id="AON" d="m276 199 1 1-1-1ZM180 200l-1 1 1-1Z"/><path fill="#CAC8C7" id="lot" d="M166 239c0 2.622 4 4.285 4 8-9.563 0-18.308-11.904-26.5-16-1.949-.974-7.412-2.323-8.5-4.5V223c8.476 0 12.667 4.083 20.5 8 3.528 1.764 6.369 8 10.5 8ZM286 246l1 1c6.516 0 18.964-12.232 24.5-15 2.663-1.331 7.888-2.277 9.5-5.5.929-1.858 0-1.893 0-3.5-9.679 0-14.298 5.899-22.5 10l-7.5 6c0 2.696-5 3.847-5 7Z"/><path fill="#62CF9E" id="TTv" d="M191 258c0 1.765 1.581.541 2.5 1 7.861 3.93 12.802 5.099 21 1 4.586-2.293 10.419-11.337 12.5-15.5l1.5-4.5 1.5 4.5c3.562 3.562 5.543 12.022 10.5 14.5 7.755 3.878 12.891 5.054 21 1l3.5-2v-1c0-29.643-55.594-37.313-68-12.5-2.17 4.341-6 8.361-6 13.5Z"/><path fill="#99D2BD" id="OLF" d="M286 247h1l-1-1v1ZM265 258h1l-1-1v1Z"/></svg>