<svg xmlns="http://www.w3.org/2000/svg" viewBox="0 0 456 320"><path fill="#1E9C59" id="MOs1" d="M226 55c0 2.098-1.939 3-4 3l-5-8.5c-1.329-2.657-8.911-5.206-11.5-6.5-7.839-3.92-19.683 3-26.5 3v-6c13.119 0 32.896-7.707 40 6.5 1.115 2.23 7 4.981 7 8.5ZM234 59h1c0-3.985 2.396-4.292 4-7.5 7.051-14.102 26.15-6.5 38-6.5v-5c0-1.746-13.693-1.097-15.5-2-8.76-4.38-31.5 9.16-31.5 18l4 3Z"/><path fill="#1E9D5A" id="MOp1" d="m126 59-1 6c4.352 0 9.709-4.104 13.5-6 6.281-3.14 34.047-13 40.5-13v-6c-9.056 0-32.16 9.83-40.5 14-1.849.925-12.5 2.758-12.5 5ZM330 59l1 6-13.5-6c-5.887-2.944-34.466-13-40.5-13v-6c9.746 0 32.679 9.59 41.5 14 1.767.883 11.5 2.97 11.5 5Z"/><path fill="#1E9D58" id="MOs2/3" d="M215 62h1c0-1.662 4.357-3 6-3v-1l-5-8.5c-1.329-2.657-8.911-5.206-11.5-6.5-7.839-3.92-19.683 3-26.5 3l-1 15c3.034 0 4.065-1.782 6.5-3 8.709-4.354 18.033-5.483 27-1 2.447 1.223 3.5 1.979 3.5 5Z"/><path fill="#1E9D58" id="MOs2/3" fill-rule="evenodd" d="M259 49c0 1.93 1.93 0 0 0m-18 13c0-11.889 23.379-8.06 29.5-5 2.338 1.169 5.905 5 8.5 5 0-5.348-2-10.12-2-16v-1c-11.85 0-30.949-7.602-38 6.5-1.604 3.208-4 3.515-4 7.5l6 3Z"/><path fill="#1F9C58" id="MOp2/3" d="M125 81v7c2.815 0 12.362-7.43 15.5-9 7.676-3.838 16.322-6.16 24-10 3.509-1.754 9.628-7 13.5-7v-1l1-15c-6.453 0-34.219 9.86-40.5 13-3.791 1.896-9.148 6-13.5 6v16ZM331 89h1c0-2.097-1-5.293-1-8V65l-13.5-6c-5.887-2.944-34.466-13-40.5-13 0 5.88 2 10.652 2 16l8.5 5c6.342 3.171 28.534 10.534 32.5 14.5 1.951 1.95 11 4.508 11 7.5ZM259 49c0 1.93 1.93 0 0 0Z"/><path fill="#1F9D58" id="MOs5" d="M201 75c-2.504 0-6.24-4.63-9.5-3L175 81c0-6.137 3-12.718 3-19v-1c3.034 0 4.065-1.782 6.5-3 8.709-4.354 18.033-5.483 27-1 2.447 1.223 3.5 1.979 3.5 5l-2.5 3c-3.229 1.615-5.671 3.671-8.5 6.5l-3 3.5ZM256 75c0-2.871 3.13-1.315 4.5-2 7.393-3.697 13.361 7 20.5 7 0-6.738-2-10.802-2-18-2.595 0-6.162-3.831-8.5-5-6.121-3.06-29.5-6.889-29.5 5v1c2.431 0 14 9.092 14 12h1Z"/><path fill="#3EA665" id="ACAd1" d="M222 86h12V59l-4-3-1.5 2-2.5-3c0 2.098-1.939 3-4 3v28Z"/><path fill="#197E64" id="SSp-ul1" d="M105 76h1c0-.685 16.96-10 19-10v-1l1-6c-6.739 0-20.163 12-24 12l3 5Z"/><path fill="#40A565" id="ACAd2/3" d="m222 86-5 1c0-8.274-1-17.385-1-25 0-1.662 4.357-3 6-3v27ZM234 86l5 1V68.5c0-1.21.814-5.5 2-5.5v-1l-6-3h-1v27Z"/><path fill="#197E64" id="SSp-ul1" d="M354 71c0 2.364-3 3.053-3 5-4.411 0-14.219-10-20-10v-1l-1-6c7.173 0 20.27 12 24 12Z"/><path fill="#1E9C5A" id="MOp5" d="M124 103v1c.752 0 10.916-6.208 12.5-7 8.486-4.243 18.546-5.773 27-10l11.5-6c0-6.137 3-12.718 3-19-3.872 0-9.991 5.246-13.5 7-7.678 3.84-16.324 6.162-24 10-3.138 1.57-12.685 9-15.5 9v1c0 4.327-1 9.763-1 14Z"/><path fill="#3EA566" id="ACAd5" d="M217 87c-4.818 0-9.159 7-13 7 0-2.499.225-12.051-1-14.5l-2-3.5v-1l3-3.5c2.829-2.829 5.271-4.885 8.5-6.5l2.5-3h1c0 7.615 1 16.726 1 25Z"/><path fill="#1E9C5A" id="MOp5" d="M332 103h1v-1c-1.714 0-1-5.594-1-7 0-2.342-1-3.658-1-6 0-2.992-9.049-5.55-11-7.5-3.966-3.966-26.158-11.329-32.5-14.5l-8.5-5c0 7.198 2 11.262 2 18v1c2.807 0 5.113 2.806 7.5 4 9.836 4.918 21.146 7.073 31 12l12.5 6Z"/><path fill="#3EA566" id="ACAd5" d="m239 87 14 7c0-6.756 2-13.122 2-19 0-2.908-11.569-12-14-12-1.186 0-2 4.29-2 5.5V87Z"/><path fill="#197F61" id="SSp-ul2/3" d="M112 87h1l12-6V66c-2.04 0-19 9.315-19 10 0 4.153 6 6.8 6 11ZM343 87h1c0-1.388 5.589-10 7-10v-1c-4.411 0-14.219-10-20-10v15c1.938 0 12 4.212 12 6Z"/><path fill="#187E61" id="SSp-m1" d="M59 141h4c1.836 0 2.183-9.867 3-11.5 3.504-7.008 5.453-14.907 9-22 3.477-6.953 12.612-20.556 20.5-24.5l9.5-7-3-5c-2.455 0-14.009 11.509-16.5 14C72.072 98.428 59 122.272 59 141ZM393 141h5c0-16.218-15.23-44.73-27-56.5-2.629-2.63-14.234-13.5-17-13.5 0 2.364-3 3.053-3 5v1c5.155 0 8.147 6.823 12.5 9 12.774 6.387 29.5 40.886 29.5 55Z"/><path fill="#1D9C5A" id="MOs6a" d="M175 101h3c0-1.663 5.407-2 7-2 0-1.58 2.855-1 4-1 0-3.444 8.47-22 12-22v-1c-2.504 0-6.24-4.63-9.5-3L175 81v20ZM268 98c5.133 0 9.694 4 14 4l-1-21v-1c-7.139 0-13.107-10.697-20.5-7-1.37.685-4.5-.871-4.5 2 0 4.457 11 13.84 11 23h1Z"/><path fill="#3FA664" id="ACAd6a" d="M262 103h1c0-1.238.423-3 2-3l2-2c0-9.16-11-18.543-11-23h-1c0 5.878-2 12.244-2 19v1c4.089 0 6.039 8 9 8Z"/><path fill="#1A7E64" id="SSp-m2/3" d="M63 142c4.186 0 6.29 3 10 3 0-13.723 10.227-25.954 16-37.5l6-7c1.757-3.515 13.446-13.5 17-13.5 0-4.2-6-6.847-6-11h-1l-9.5 7c-7.888 3.944-17.023 17.547-20.5 24.5-3.547 7.093-5.496 14.992-9 22-.817 1.633-1.164 11.5-3 11.5v1Z"/><path fill="#3FA664" id="ACAd6a" d="M194 103h1c0-2.158 7.062-8 9-8v-1c0-2.499.225-12.051-1-14.5l-2-3.5c-3.53 0-12 18.556-12 22 1.925 0 5 3.075 5 5Z"/><path fill="#1A7E64" id="SSp-m2/3" d="M393 142c-3.925 0-6.466 3-10 3 0-15.641-11.972-35.472-23-46.5-2.946-2.946-12.458-11.5-16-11.5 0-1.388 5.589-10 7-10 5.155 0 8.147 6.823 12.5 9 12.774 6.387 29.5 40.886 29.5 55v1Z"/><path fill="#1A7F63" id="SSp-ul4" d="M124 89c-2.46 0-4.17 4-7 4-1.466 0-4-4.201-4-6l12-6v7l-1 1Z"/><path fill="#1F9B5A" id="MOp6a" d="M124 104c0 6.368 3 14.833 3 22 3.21 0 5.738-4.619 8.5-6 7.46-3.73 30.244-17 37.5-17l2-1V81l-11.5 6c-8.454 4.227-18.514 5.757-27 10-1.584.792-11.748 7-12.5 7ZM332 104c0 4.513.289 11.922-2 16.5-.619 1.238 1.144 5.5-1 5.5l-13.5-9c-5.73-2.865-28.429-15-33.5-15l-1-21c2.807 0 5.113 2.806 7.5 4 9.836 4.918 21.146 7.073 31 12l12.5 6v1Z"/><path fill="#1A7F63" id="SSp-ul4" d="M332 89c2.46 0 4.17 4 7 4 2.177 0 4-4.336 4-6 0-1.788-10.062-6-12-6 0 2.707 1 5.903 1 8Z"/><path fill="#3FA566" id="ACAv2/3" d="m221 123-3 2-1-38 5-1v34l-1 3Z"/><path fill="#40A664" id="ACAv1" d="M229 115c2.618 0 3.093 4 5 4V86h-12v34l5-5c0-2.564 2-2.564 2 0Z"/><path fill="#3FA566" id="ACAv2/3" d="m236 124 2 1c0-11.999 1-25.356 1-38l-5-1v33l2 5Z"/><path fill="#1B7F62" id="SSp-m4" d="M80 147h1c0-11.554 14.413-39.457 25.5-45 3.565-1.782 6.324-8 10.5-8v-1c-1.466 0-4-4.201-4-6h-1c-3.554 0-15.243 9.985-17 13.5l-6 7c-5.773 11.546-16 23.777-16 37.5 2.583 0 3.934 2 7 2Z"/><path fill="#3EA666" id="ACAv5" d="M209 121c0 2.216 7.15 4 9 4l-1-38c-4.818 0-9.159 7-13 7v1l1 15.5c1.403 2.806 4 7.305 4 10.5ZM247 121c0 2.911-6.752 4-9 4 0-11.999 1-25.356 1-38l14 7v1l-2 16.5-4 9.5Z"/><path fill="#1B7F62" id="SSp-m4" d="M383 145c-2.16 0-4.167 2-7 2 0-11.83-14.132-33.632-23-42.5-3.138-3.138-9.704-10.5-14-10.5v-1c2.177 0 4-4.336 4-6h1c3.542 0 13.054 8.554 16 11.5 11.028 11.028 23 30.859 23 46.5Z"/><path fill="#1F9C58" id="MOp2/3" d="M124 89h1v-1l-1 1Z"/><path fill="#187E62" id="SSp-ul5" d="M117 94c0 1.39 5.408 9 7 9 0-4.237 1-9.673 1-14h-1c-2.46 0-4.17 4-7 4v1ZM339 94l-6 8c-1.714 0-1-5.594-1-7 0-2.342-1-3.658-1-6h1c2.46 0 4.17 4 7 4v1Z"/><path fill="#1B7E63" id="SSp-m5" d="m91 165-5 1c-3.234 0 1-6.933 1-7.5 0-.784-1.491-6.982-2-8l-4-3.5c0-11.554 14.413-39.457 25.5-45 3.565-1.782 6.324-8 10.5-8 0 1.39 5.408 9 7 9v1c-4.648 0-10.21 7.355-13.5 9-14.373 7.186-19.5 35.76-19.5 52ZM365 166h6c0-4.492-1.485-19 5-19 0-11.83-14.132-33.632-23-42.5-3.138-3.138-9.704-10.5-14-10.5l-6 8v2c0 2.295 7.842 4.171 9.5 5l11.5 12.5c7.744 15.489 11 24.616 11 43.5v1Z"/><path fill="#40A564" id="ACAv6a" d="m205 119 4 2c0-3.195-2.597-7.694-4-10.5L204 95c-1.938 0-9 5.842-9 8 0 6.226 10 9.482 10 15v1ZM251 119l-4 2 4-9.5 2-16.5c4.089 0 6.039 8 9 8 0 3.29-5 5.518-5 9-1.901 0-5 4.332-5 6l-1 1Z"/><path fill="#1E9C58" id="MOs6b" d="M185 99h4v-1c-1.145 0-4-.58-4 1Z"/><path fill="#3FA466" id="ACAd6b" d="M193 103h1c0-1.925-3.075-5-5-5v1l4 4ZM268 99l-3 1 2-2h1v1Z"/><path fill="#1E9C58" id="MOs6b" d="M282 102v1l-14-4v-1c5.133 0 9.694 4 14 4ZM185 99c-1.593 0-7 .337-7 2 1.774 0 7 .273 7-2Z"/><path fill="#CACCC7" id="cing" d="M205 118v1c-12.183 0-11.93-20.785-25.5-14-1.319.659-5.5-.334-5.5 2l-4 1-1 1h-2l-2 1h-4l12-7h2c1.238 0 3-.423 3-2 1.774 0 7 .273 7-2h4l4 4c0 2.805 8.457 15 12 15ZM252 118l-1 1c9.49 0 14.159-19.67 23.5-15 1.397.699 8.5 1.242 8.5 3l6 2 7 1-14-7-14-4-3 1c0 1.238-.423 3-2 3 0 1.955-3.574 9-6 9 0 1.668-3.099 6-5 6Z"/><path fill="#3FA466" id="ACAd6b" d="M265 100c-1.577 0-2 1.762-2 3 1.577 0 2-1.762 2-3Z"/><path fill="#1E9C58" id="MOs6b" d="M175 102v1c1.238 0 3-.423 3-2h-3v1Z"/><path fill="#1D9D5A" id="MOp6b" d="M173 103h2v-1l-2 1ZM329 127v1l-9.5-7c-6.637-3.318-15.798-11-23.5-11l-14-7v-1c5.071 0 27.77 12.135 33.5 15l13.5 9v1ZM127 127v1c3.383 0 6.545-5.522 9.5-7 6.86-3.43 16.501-11 24.5-11l12-7c-7.256 0-30.04 13.27-37.5 17-2.762 1.381-5.29 6-8.5 6v1Z"/><path fill="#C9C7C9" id="ccb" d="m236 124 2 1c2.248 0 9-1.089 9-4l4-2c9.49 0 14.159-19.67 23.5-15 1.397.699 8.5 1.242 8.5 3-13.106 0-13.329 4.914-23.5 10l-3 4c-5.59 2.795-11.454 5.227-17 8h-12c-28.416 0-31.286-22-53.5-22 0-2.334 4.181-1.341 5.5-2 13.57-6.785 13.317 14 25.5 14l4 2c0 2.216 7.15 4 9 4l3-2c0 5.321 5.948 1 7.5 1 .8 0 .712 3.144 3 2l4.5-2Z"/><path fill="#40A465" id="ACAv6b" d="M195 103c0 6.226 10 9.482 10 15-3.543 0-12-12.195-12-15h2ZM263 103c0 1.955-3.574 9-6 9 0-3.482 5-5.71 5-9h1Z"/><path fill="#187E62" id="SSp-ul5" d="M332 104h1v-1h-1v1Z"/><path fill="#187D61" id="SSp-m6a" d="M91 165v1c5.842 0 10.445-3 16-3 0-12.256 7.961-18.422 13-28.5l7-7.5v-1c0-7.167-3-15.632-3-22-4.648 0-10.21 7.355-13.5 9-14.373 7.186-19.5 35.76-19.5 52ZM350 163c4.319 0 10.947 2 15 2 0-18.884-3.256-28.011-11-43.5L342.5 109c-1.658-.829-9.5-2.705-9.5-5h-1c0 4.513.289 11.922-2 16.5-.619 1.238 1.144 5.5-1 5.5v1c6.626 0 21 28.26 21 36Z"/><path fill="#CCC7C9" id="ccg" d="M109 170h2c0-20.157 13.122-36.311 30.5-45 3.949-1.974 8.974-1.987 13-4 4.706-2.353 34.5-1.702 34.5 5 5.272 0 20.372 13 21 13l1.5 2c3.239 1.62 6.726 2.363 10 4 4.043 2.021 5.101-3 7-3 1.193 0 3.273 4.863 7 3l10.5-5 1-1 1-1 1-1c0-1.482 15.728-11 18-11l1-1 4.5-4 23-1c5.727 2.864 13.269 2.134 19 5 16.884 8.442 31.5 25.395 31.5 45l2-1v-2c-1.643 0-1-3.765-1-5l-4-13v-1c-2.984 0-2.557-6.029-4.5-7l-19-18c-7.851-3.926-16.16-7.08-24-11-1.265-.632-6.5-1.278-6.5-3l-6-2c-13.106 0-13.329 4.914-23.5 10l-3 4c-5.59 2.795-11.454 5.227-17 8h-12c-28.416 0-31.286-22-53.5-22l-4 1-1 1h-2l-2 1-4.5 3c-4.939 2.469-11.002 3.501-16 6-6.485 3.243-12.512 7.512-17.5 12.5-2.058 2.058-5.74 7.5-8 7.5 0 1.238-.423 3-2 3 0 1.238-.423 3-2 3l-1 2-1 2c0 1.424-.362 5-2 5v1c0 1.593-.337 7-2 7v8Z"/><path fill="#C9C9CA" id="scwm" d="m170 108-1 1 1-1ZM167 109l-2 1 2-1ZM329 128c0 3.267 14 13.76 14 20-2.984 0-2.557-6.029-4.5-7l-19-18c-7.851-3.926-16.16-7.08-24-11-1.265-.632-6.5-1.278-6.5-3l7 1c7.702 0 16.863 7.682 23.5 11l9.5 7ZM127 128c0 3.817-8 6.758-8 11 2.26 0 5.942-5.442 8-7.5 4.988-4.988 11.015-9.257 17.5-12.5 4.998-2.499 11.061-3.531 16-6l4.5-3h-4c-7.999 0-17.64 7.57-24.5 11-2.955 1.478-6.117 7-9.5 7Z"/><path fill="#40A465" id="ACAv6b" d="M257 112c-1.901 0-5 4.332-5 6 1.901 0 5-4.332 5-6Z"/><path fill="#7ED04B" id="IG" d="M221 123c0 5.321 5.948 1 7.5 1 .8 0 .712 3.144 3 2l4.5-2-2-5c-1.907 0-2.382-4-5-4 0 1.93-1.161 0-2 0l-5 5-1 3Z"/><path fill="#98D5F9" id="CP" d="m128 227 3.5 4 5.5 3c9.186 0 17.064 2.218 25.5-2 11.095-5.548 5.836-21.418 21-29l6.5-4 1-1 2-12v-7l1-2v-3l1-2v-5l1-1v-2c0-4.935 3.561-15.378 1-20.5-1.671-3.341-4-8.641-4-12.5l-4-5c0-6.702-29.794-7.353-34.5-5-4.026 2.013-9.051 2.026-13 4-17.378 8.689-30.5 24.843-30.5 45 0 9.927 1.902 19.305 6 27.5v7c1.07 2.14 2 3.887 2 6.5v1l1 1 1 3v2l1 1 1 2 1 1 1 2 2 2v1h1ZM325 231c-1.238 0-5 1.923-5 3-7.96 0-17.01 2.745-24.5-1-13.583-6.792-7.083-22.541-24-31l-5.5-3-1-1c0-1.72-.659-11-2-11v-10c0-1.048.473-3-1-3l-1-8-1-2v-1c0-5.671-2.58-16.341 0-21.5l4-10.5 3-5 1-1 4.5-4 23-1c5.727 2.864 13.269 2.134 19 5 16.884 8.442 31.5 25.395 31.5 45-1.763 0-1 8.343-1 10 0 8.639-6 16.428-6 26v1c-1.638 0-2 3.576-2 5v2l-1 1-2 5-1 1v1l-1 1-1 1-1 2-1 1-1 1-3 3Z"/><path fill="#AAA8A9" id="SEZ" d="m268 125-1 1 1-1ZM210 139v1l-3.5-3c-1.691-.846-13.5-7.831-13.5-6l-4-5c5.272 0 20.372 13 21 13ZM264 131c-5.145 0-9.456 6-15 6 0-1.482 15.728-11 18-11l-3 5Z"/><path fill="#188064" id="SSp-m6b" d="M107 163h2v-1c0-1.774-.273-7 2-7v-1c0-1.424.362-5 2-5l1-2 1-2c0-1.238.423-3 2-3 0-1.238.423-3 2-3 0-4.242 8-7.183 8-11v-1l-7 7.5c-5.039 10.078-13 16.244-13 28.5ZM348 163h2c0-7.74-14.374-36-21-36v1c0 3.267 14 13.76 14 20v1c2.544 0 5 11.791 5 14Z"/><path fill="#A8AAAA" id="VL" d="M196 164h1v-1l1-1v-1l1-1 1-1c0-7.149 10-10.909 10-19l-3.5-3c-1.691-.846-13.5-7.831-13.5-6 0 3.859 2.329 9.159 4 12.5 2.561 5.122-1 15.565-1 20.5ZM259 163h1c0-5.671-2.58-16.341 0-21.5l4-10.5c-5.145 0-9.456 6-15 6l-1 1-1 1v1l-1 1c0 6.909 11 11.745 11 18v1l2 2v1Z"/><path fill="#AAA8A9" id="SEZ" d="m249 137-1 1 1-1ZM248 138l-1 1 1-1Z"/><path fill="#C9C9CA" id="scwm" d="M119 139c-1.577 0-2 1.762-2 3 1.577 0 2-1.762 2-3Z"/><path fill="#97D6F9" id="STR" d="m226 179 2.5-3 2.5 5v-25c-4.277 0 2-12.961 2-4 6.129 0 12.432.466 17.5 3 2.337 1.169 3.673 4 6.5 4 0-6.255-11-11.091-11-18v-1l-10.5 5c-3.727 1.863-5.807-3-7-3-1.899 0-2.957 5.021-7 3-3.274-1.637-6.761-2.38-10-4l-1.5-2v1c0 8.091-10 11.851-10 19l8.5-5c4.045-2.022 9.617-2 14.5-2 0-5.059 2.913-1.675 4 .5l-1 4.5v22ZM246 140h1v-1l-1 1Z"/><path fill="#AAA8A9" id="SEZ" d="m247 140-1 1v-1h1Z"/><path fill="#1A7E62" id="SSs1" d="M59 173h4v-32h-4c-2.144 0-.38 4.262-1 5.5-3.946 7.891 1 18.483 1 26.5ZM393 173h4c0-2.253.984-6.469 2-8.5 2.873-5.745-1-17.874-1-23.5h-5v32Z"/><path fill="#1B8063" id="SSs2/3" d="m72 170-9 3v-31c4.186 0 6.29 3 10 3 0 8.333-1 16.975-1 25Z"/><path fill="#C9C9CA" id="scwm" d="M117 142c-1.577 0-2 1.762-2 3 1.577 0 2-1.762 2-3Z"/><path fill="#1B8063" id="SSs2/3" d="M385 170c2.522 0 4.909 2 8 2v-30c-3.925 0-6.466 3-10 3 0 7.787 2 16.293 2 25Z"/><path fill="#187C63" id="SSs4" d="m78 169-6 1c0-8.025 1-16.667 1-25 2.583 0 3.934 2 7 2 0 6.903-2 13.647-2 21v1Z"/><path fill="#C9C9CA" id="scwm" d="m115 145-1 2 1-2Z"/><path fill="#187C63" id="SSs4" d="m379 169 6 1c0-8.707-2-17.213-2-25-2.16 0-4.167 2-7 2 0 6.671 3 13.922 3 21v1Z"/><path fill="#1C8063" id="SSs5" d="M86 166c0 1.059-6.743 2-8 2 0-7.353 2-14.097 2-21h1l4 3.5c.509 1.018 2 7.216 2 8 0 .567-4.234 7.5-1 7.5Z"/><path fill="#C9C9CA" id="scwm" d="m114 147-1 2 1-2Z"/><path fill="#1C8063" id="SSs5" d="M371 166c0 1.059 6.743 2 8 2 0-7.078-3-14.329-3-21-6.485 0-5 14.508-5 19Z"/><path fill="#C9C9CA" id="scwm" d="M113 149c-1.638 0-2 3.576-2 5 1.638 0 2-3.576 2-5Z"/><path fill="#8FCAED" id="SH" d="M223 152c3.232 0 .827 5 3 5l1-4.5c-1.087-2.175-4-5.559-4-.5ZM233 152c-2.109 0-2 2.535-2 4-4.277 0 2-12.961 2-4Z"/><path fill="#C9C9CA" id="scwm" d="M348 163v4c-1.643 0-1-3.765-1-5l-4-13c2.544 0 5 11.791 5 14Z"/><path fill="#90CAED" id="LSr" d="M211 209c0 4.629 3.98 8.26 8.5 6l1.5-3c0-10.183 4-18.706 4-29 0-1.145-.579-4 1-4v-22c-2.173 0 .232-5-3-5-4.883 0-10.455-.022-14.5 2l-8.5 5-1 1-1 1v1l-1 1v1l-1 1v1l-1 1v5l-1 2v3l2.5-2c2.285 0 15.042 18.585 16.5 21.5 2.094 4.188-2 9.505-2 12.5ZM246 209c0 4.256-4.826 7.837-8.5 6l-2.5-4c0-10.661-4-19.494-4-30v-25c0-1.465-.109-4 2-4 6.129 0 12.432.466 17.5 3 2.337 1.169 3.673 4 6.5 4v1l2 2v1l1 1 1 2 1 8v2c-9.465 0-15.678 16.855-19 23.5-2.014 4.028 3 6.698 3 9.5Z"/><path fill="#C9C9CA" id="scwm" d="M111 155c-2.273 0-2 5.226-2 7 1.663 0 2-5.407 2-7Z"/><path fill="#97D6F9" id="STR" d="m200 159-1 1 1-1ZM199 160l-1 1 1-1ZM257 160l2 2-2-2ZM198 162l-1 1 1-1Z"/><path fill="#009B74" id="GU6a" d="M107 177c0 2.334-4.181 1.341-5.5 2-3.03 1.515-6.959 4-10.5 4v-17c5.842 0 10.445-3 16-3v14Z"/><path fill="#019C74" id="GU6b" d="M108 177h1v-14h-2v14h1Z"/><path fill="#97D6F9" id="STR" d="M260 163v1l-1-1h1Z"/><path fill="#019C74" id="GU6b" d="M347 177h2l1-14h-2v6l-1 8Z"/><path fill="#009B74" id="GU6a" d="M349 178c5.934 0 10.398 5 16 5v-18c-4.053 0-10.681-2-15-2l-1 14v1Z"/><path fill="#97D6F9" id="STR" d="m197 164-1 1v-1h1Z"/><path fill="#A8AAAA" id="VL" d="m260 164 1 2-1-2Z"/><path fill="#019C75" id="GU5" d="M91 184c-5.043 0-8.415 4-13 4v-20c1.257 0 8-.941 8-2l5-1v19ZM365 183l13 5c0-5.572 1-12.756 1-19v-1c-1.257 0-8-.941-8-2h-6v17Z"/><path fill="#A8AAAA" id="VL" d="m196 166-1 1 1-1Z"/><path fill="#009C74" id="GU4" d="M76 189h2v-20l-6 1c0 5.453.73 10.96 3 15.5.523 1.046-.951 3.5 1 3.5Z"/><path fill="#C8CBCC" id="ec" d="m340 205-1 1c0-9.572 6-17.361 6-26 0-1.657-.763-10 1-10l2-1-1 8-2 11v2c-2.867 0-2 5.149-2 7-.616 0-3 6.93-3 8Z"/><path fill="#009C74" id="GU4" d="m378 188 2 1c1.845 0 1.441-3.381 2-4.5 1.765-3.53 3-10.481 3-14.5l-6-1c0 6.244-1 13.428-1 19Z"/><path fill="#009B75" id="GU2/3" d="M76 189c0 2.012-7.5 3-8 3 0-5.988-5-12.785-5-19l9-3c0 5.453.73 10.96 3 15.5.523 1.046-.951 3.5 1 3.5Z"/><path fill="#C8CBCC" id="ec" d="m118 210 1 1c0-2.613-.93-4.36-2-6.5v-7c-4.098-8.195-6-17.573-6-27.5h-2v7c0 3.546 3 8.211 3 12l2 8 2 8c.672 0 2 4.329 2 5Z"/><path fill="#009B75" id="GU2/3" d="M388 192h1c0-6.763 4-12.143 4-19v-1c-3.091 0-5.478-2-8-2 0 4.019-1.235 10.97-3 14.5-.559 1.119-.155 4.5-2 4.5 0 1.569 6.6 3 8 3Z"/><path fill="#A8AAAA" id="VL" d="m195 172-1 2 1-2Z"/><path fill="#009C75" id="GU1" d="m68 192-4 2c-2.064 0-.426-3.353-1-4.5-2.077-4.154-4-11.734-4-16.5h4c0 6.215 5 13.012 5 19ZM389 192l4 2c0-7.276 4-13.343 4-21h-4c0 6.857-4 12.237-4 19Z"/><path fill="#A8AAAA" id="VL" d="m262 176 1 1c0-1.048.473-3-1-3v2Z"/><path fill="#8FCBED" id="LSv" d="M204 204c2.696 0 3.847 5 7 5 0-2.995 4.094-8.312 2-12.5-1.458-2.915-14.215-21.5-16.5-21.5l-2.5 2-1 2v7c.981 0 2 7.758 2 9l2 2c1.62 0 7 5.295 7 7Z"/><path fill="#96A7D3" id="MS" d="M220 231h16l-1-20c0-10.661-4-19.494-4-30l-2.5-5-2.5 3c0 1.145.579 4-1 4 0 10.294-4 18.817-4 29 0 6.417-1 13.174-1 19Z"/><path fill="#8FCBED" id="LSv" d="m249 208-3 1c0-2.802-5.014-5.472-3-9.5 3.322-6.645 9.535-23.5 19-23.5l1 1v10l-2 7-1 3h-1l-1 1-5 5-1 1-1 2-1 1-1 1Z"/><path fill="#209666" id="AId6a" d="M97 201h7c0-6.927-6.19-14 5-14l-1-10h-1c0 2.334-4.181 1.341-5.5 2-3.03 1.515-6.959 4-10.5 4v1c1.564 0 1.32 8.141 2 9.5l4 7.5Z"/><path fill="#1F9766" id="AId6b" d="m110 188 2 1c0-3.789-3-8.454-3-12h-1l1 10 1 1Z"/><path fill="#A8AAAA" id="VL" d="m194 177-1 2 1-2Z"/><path fill="#1F9766" id="AId6b" d="M345 188h1l1-1 2-9v-1h-2l-2 11Z"/><path fill="#209666" id="AId6a" d="m360 201-1 1-6-1c0-7.543 4.483-14-6-14l2-9c5.934 0 10.398 5 16 5 0 6.762-5 12.082-5 18Z"/><path fill="#97D6F9" id="STR" d="M226 179c-1.579 0-1 2.855-1 4 1.579 0 1-2.855 1-4Z"/><path fill="#209665" id="AId5" d="M371 204h1c0-3.855 6-10.161 6-16l-13-5c0 6.762-5 12.082-5 18 0 3.263 11 .683 11 3ZM97 202c-3.735 0-8.438 2-12 2 0-2.374-7-10.31-7-15v-1c4.585 0 7.957-4 13-4 1.564 0 1.32 8.141 2 9.5l4 7.5v1Z"/><path fill="#8ADA86" id="CLA" d="m113 197 1 5.5c-2.534 5.067-10 5.854-10-1.5 0-6.927-6.19-14 5-14l1 1 3 9Z"/><path fill="#A8AAAA" id="VL" d="M194 198c0 7.694-3 12.708-3 1v-1l2-12c.981 0 2 7.758 2 9v2l-1 1Z"/><path fill="#8ADA86" id="CLA" d="M343 197c0 14.514 10 10.102 10 4 0-7.543 4.483-14-6-14l-1 1-1 2c0 1.296-.825 7-2 7Z"/><path fill="#A8AAAA" id="VL" d="M265 198v1c0 13.785-3 4.386-3-2 0-1.048.473-3-1-3l2-7c1.341 0 2 9.28 2 11Z"/><path fill="#209666" id="AId6a" d="m347 187-1 1 1-1ZM113 197h1l-2-8-2-1 3 9ZM346 188l-1 2v-2h1Z"/><path fill="#209765" id="AId2/3" d="m383 206-1 1c-2.334 0-7.156-3-10-3 0-3.855 6-10.161 6-16l2 1c0 1.569 6.6 3 8 3 0 5.345-5 8.961-5 14ZM73 206l2 1c0-2.15 8.46-3 10-3 0-2.374-7-10.31-7-15h-2c0 2.012-7.5 3-8 3 0 5.026 5 8.846 5 14Z"/><path fill="#209666" id="AId6a" d="M345 190c-2.867 0-2 5.149-2 7 1.175 0 2-5.704 2-7Z"/><path fill="#209764" id="AId1" d="M73 206c0 .672-4.33 2-5 2 0-4.477-4-9.024-4-14l4-2c0 5.026 5 8.846 5 14ZM383 206l6 2 4-14-4-2h-1c0 5.345-5 8.961-5 14Z"/><path fill="#97D6F9" id="STR" d="M260 197h2c0-1.048.473-3-1-3l-1 3ZM195 197h2l-2-2v2Z"/><path fill="#1F9866" id="AIv6a" d="M109 209h1l2-1 4-3-2-8h-1l1 5.5c-2.534 5.067-10 5.854-10-1.5h-7v1l5 9 7-2Z"/><path fill="#97D6F9" id="STR" d="m195 197-1 1 1-1Z"/><path fill="#80CDF8" id="ACB" fill-rule="evenodd" d="m182 209-5 5.5c-1.579 3.158 1.007 11.747 5.5 9.5 6.607-3.304 10.914-15-.5-15m25 26c-2.058 0-5.209 6.918-6 8.5-3.068 6.137-14.965 16.732-20.5 19.5-5.564 2.782-28.56 2.72-34 0l-4.5-5.5-3-3.5c0-6.402-4-12.156-4-19l2-1c9.186 0 17.064 2.218 25.5-2 11.095-5.548 5.836-21.418 21-29l6.5-4h1c0 11.708 3 6.694 3-1l1-1h2c1.62 0 7 5.295 7 7 0 .377 6.305 10.111 7 11.5 2.576 5.153-3 12.012-3 16.5-1.473 0-1 1.952-1 3Z"/><path fill="#97D6F9" id="STR" d="m259 197-1 1 1-1Z"/><path fill="#80CDF8" id="ACB" fill-rule="evenodd" d="M270 209c0 2.456-4.795 3.911-3 7.5 10.396 20.792 20.605-7.5 3-7.5m51 27c0 6.847-4 12.06-4 18 0 12.338-33.879 12.81-41.5 9-8.795-4.397-13.86-13.86-21-21-1.462-1.462-3.694-8-5.5-8v-1l-1-2c0-4.33-4.489-11.522-2-16.5l3-6.5 1-1 1-1 1-2 1-1 5-5 1-1h3c0 6.386 3 15.785 3 2h1l5.5 3c16.917 8.459 10.417 24.208 24 31 7.49 3.745 16.54 1 24.5 1l1 2Z"/><path fill="#1F9866" id="AIv6a" d="M347 209c2.885 0 4.697 2 8 2l4-9-6-1c0 6.102-10 10.514-10-4-.616 0-3 6.93-3 8l7 4Z"/><path fill="#97D6F9" id="STR" d="M190 199h1v-1l-1 1ZM265 199h1l-1-1v1Z"/><path fill="#1F9865" id="AIv5" d="m359 213 5 1c0-4.504 7-5.668 7-10 0-2.317-11 .263-11-3l-1 1-4 9 4 2ZM97 213l-4 1-8-10c3.563 0 8.265-2 12-2l5 9c0 1.014-3.959 2-5 2Z"/><path fill="#97D6F9" id="STR" d="m253 203-1 1 1-1Z"/><path fill="#219764" id="AIv2/3" d="M93 214c-4.932 0-8.768 3-14 3 0-4.046-4-6.085-4-10 0-2.15 8.46-3 10-3l8 10Z"/><path fill="#97D6F9" id="STR" d="M207 256h3c5.58 0 10-20.192 10-25 0-5.826 1-12.583 1-19l-1.5 3c-4.52 2.26-8.5-1.371-8.5-6-3.153 0-4.304-5-7-5 0 .377 6.305 10.111 7 11.5 2.576 5.153-3 12.012-3 16.5 0 1.048.473 3-1 3 0 6.27-2 11.142-2 17v3l2 1Z"/><path fill="#219764" id="AIv2/3" d="M364 214c4.332 0 8.33 3 13 3l5-10c-2.334 0-7.156-3-10-3h-1c0 4.332-7 5.496-7 10Z"/><path fill="#8AD987" id="CTXsp" d="M112 208c2.518 0 4.286 2 6 2 0-.671-1.328-5-2-5l-4 3ZM339 209h8l-7-4-1 1v3Z"/><path fill="#209864" id="AIv1" d="M79 217c0 .913-5.014 2-6 2l-5-11c.67 0 5-1.328 5-2l2 1c0 3.915 4 5.954 4 10Z"/><path fill="#97D6F9" id="STR" d="m251 206-1 1 1-1Z"/><path fill="#209864" id="AIv1" d="m377 217 6 2 6-11-6-2-1 1-5 10Z"/><path fill="#97D6F9" id="STR" d="m250 207-1 1 1-1Z"/><path fill="#C8CBCC" id="ec" d="M337 212h1v-1l1-1v-3c-1.638 0-2 3.576-2 5Z"/><path fill="#8AD987" id="CTXsp" d="m112 208-2 1 2-1Z"/><path fill="#A0EE9C" id="EPd" d="M122 232h1l4-2v-4l-2-2-1-2-1-1-1-2-1-1v-2c-1.577 0-2-1.762-2-3v-2l-1-1c-1.714 0-3.482-2-6-2l-2 1h-1c0 2.633-4 5.339-4 11v1l1 1 2 2 2 2h1l1 1h1l2 2h1l3 2h2l1 1Z"/><path fill="#97D6F9" id="STR" d="M247 256h3l1-1 1-2c0-6.222-3-12.264-3-19v-1l-1-2c0-4.33-4.489-11.522-2-16.5l3-6.5-3 1c0 4.256-4.826 7.837-8.5 6l-2.5-4 1 20c0 4.626 5.211 25 11 25Z"/><path fill="#A0EE9C" id="EPd" d="M336 231h2l1-1 2-1 2-1 1-1h1l1-1 1-1h1l1-1 1-1 1-1v-1c0-2.443 1.333-4.833 0-7.5l-4-4.5h-8v1l-1 1v1l-1 1v1l-1 1-2 5-1 1v1l-1 1-1 1-1 2-1 1v3l1 1 4 1 2-1Z"/><path fill="#99D2BD" id="OLF" d="m97 213 4 2.5 4 4.5c0-5.661 4-8.367 4-11l-7 2c0 1.014-3.959 2-5 2Z"/><path fill="#CBCBC7" id="aco" d="m182 209-5 5.5c-1.579 3.158 1.007 11.747 5.5 9.5 6.607-3.304 10.914-15-.5-15ZM270 209c0 2.456-4.795 3.911-3 7.5 10.396 20.792 20.605-7.5 3-7.5Z"/><path fill="#99D2BD" id="OLF" d="m359 213-5 3.5c-1.171 1.171-.774 4.5-3 4.5 0-2.443 1.333-4.833 0-7.5l-4-4.5c2.885 0 4.697 2 8 2l4 2Z"/><path fill="#8AD987" id="CTXsp" d="m339 210-1 1 1-1Z"/><path fill="#C8CBCC" id="ec" d="M119 213h1l-1-1v1Z"/><path fill="#8AD987" id="CTXsp" d="m338 212-1 1v-1h1Z"/><path fill="#6ACAB9" id="PIR" d="M121 261h2l8-4c0-5.354 5.163-9.174 2-15.5-1.303-2.607-10-8.123-10-9.5h-1l-1-1h-2c-1.238 0-3-.423-3-2h-1l-2-2h-1l-1-1h-1l-2-2-2-2-1-1v-1l-4-4.5-4-2.5-4 1c-4.932 0-8.768 3-14 3 0 .913-5.014 2-6 2 0 11.592 13.254 22.377 22.5 27l3.5 3c0-2.3 4.696-.402 5.5 0 2.172 1.086 16.5 10.198 16.5 12Z"/><path fill="#8AD987" id="CTXsp" d="m120 213 1 3c-1.577 0-2-1.762-2-3h1Z"/><path fill="#6ACAB9" id="PIR" d="M333 261h2l2.5-3c2.553-1.277 19.5-13.272 19.5-9 8.257 0 26-20.593 26-30l-6-2c-4.67 0-8.668-3-13-3l-5-1-5 3.5c-1.171 1.171-.774 4.5-3 4.5v1l-1 1-1 1-1 1h-1l-1 1-1 1h-1l-1 1-2 1-2 1-1 1h-2l-2 1-3 1.5-8 9c-2.76 5.52 2 9.454 2 14.5 3.44 0 5.253 4 8 4Z"/><path fill="#8AD987" id="CTXsp" d="m337 214-1 1 1-1ZM121 218l1 1-1-1ZM334 220l-1 1 1-1Z"/><path fill="#99D2BD" id="OLF" d="m105 221 1 1-1-1Z"/><path fill="#8AD987" id="CTXsp" d="m123 221 1 1-1-1ZM333 222l-1 1 1-1Z"/><path fill="#99D2BD" id="OLF" d="m351 222-1 1 1-1Z"/><path fill="#8AD987" id="CTXsp" d="m332 223-1 1 1-1Z"/><path fill="#99D2BD" id="OLF" d="m108 224 2 2-2-2Z"/><path fill="#8AD987" id="CTXsp" d="m125 224 2 2-2-2Z"/><path fill="#99D2BD" id="OLF" d="m349 224-1 1 1-1ZM347 225l-1 1 1-1ZM111 226l1 1-1-1Z"/><path fill="#8AD987" id="CTXsp" d="m330 226-1 1 1-1Z"/><path fill="#99D2BD" id="OLF" d="m346 226-1 1 1-1ZM113 227l2 2-2-2Z"/><path fill="#8AD987" id="CTXsp" d="M127 230h1v-3h-1v3Z"/><path fill="#97D6F9" id="STR" d="m137 234-2 1-7-5v-3l3.5 4 5.5 3ZM328 228h1v-1l-1 1Z"/><path fill="#99D2BD" id="OLF" d="m344 227-1 1 1-1Z"/><path fill="#97D6F9" id="STR" d="m329 230-4 1 3-3 1 1v1Z"/><path fill="#8AD987" id="CTXsp" d="M329 228v1l-1-1h1Z"/><path fill="#99D2BD" id="OLF" d="m343 228-2 1 2-1ZM116 229l3 2c-1.238 0-3-.423-3-2ZM341 229l-2 1 2-1ZM131 257h1c0-1.429 5.655-3 7-3 0-6.402-4-12.156-4-19l-7-5h-1l-4 2c0 1.377 8.697 6.893 10 9.5 3.163 6.326-2 10.146-2 15.5Z"/><path fill="#96A6D3" id="NDB" d="M222 265c-1.654 0-9 4.228-9 6-4.997 0-12 5.583-12-6l2-1 1-1 1-1 2-3 1-1 1-1 1-1c5.58 0 10-20.192 10-25h16c0 4.626 5.211 25 11 25l2 2v1l2 2 2 2 2 2c0 19.178-17.111-1-22-1l-1-1-1-1-1-1c0-1.348-3-3.216-3-1l-1 1-1 1-1 1-1 1-1 1Z"/><path fill="#99D2BD" id="OLF" d="M324 257h1c0-5.046-4.76-8.98-2-14.5l8-9 3-1.5-4-1-1-1-4 1-4 5c0 6.847-4 12.06-4 18 1.647 0 7 1.268 7 3Z"/><path fill="#8AD987" id="CTXsp" d="m329 230 1 1-1-1Z"/><path fill="#99D2BD" id="OLF" d="m339 230-1 1 1-1ZM121 231l1 1-1-1Z"/><path fill="#A2B1D7" id="SI" d="m248 231 1 2-1-2Z"/><path fill="#97D6F9" id="STR" d="m320 234 1 2 4-5c-1.238 0-5 1.923-5 3Z"/><path fill="#99D2BD" id="OLF" d="m336 231-2 1 2-1Z"/><path fill="#A2B1D7" id="SI" d="M208 232c-1.473 0-1 1.952-1 3 1.473 0 1-1.952 1-3ZM258 267l1 6c10.416 0 40.606 3.947 48.5 0 3.972-1.986 11.156-5.812 13.5-10.5l3-5.5c0-1.732-5.353-3-7-3 0 12.338-33.879 12.81-41.5 9-8.795-4.397-13.86-13.86-21-21-1.462-1.462-3.694-8-5.5-8 0 6.736 3 12.778 3 19l1 2 3 8 1 2v1l1 1ZM199 268l-1 5c-7.532 0-40.867 3.317-45.5 1-5.579-2.789-10.044-4.044-15-9l-5.5-8c0-1.429 5.655-3 7-3l3 3.5 4.5 5.5c5.44 2.72 28.436 2.782 34 0 5.535-2.768 17.432-13.363 20.5-19.5.791-1.582 3.942-8.5 6-8.5 0 6.27-2 11.142-2 17l-2 3c0 3.238-3 5.3-3 8l-1 3v1c-1.186 0-1.186 1 0 1Z"/><path fill="#CAC8C7" id="lot" d="m336 264 1 1c2.813 0 20-12.526 20-16 0-4.272-16.947 7.723-19.5 9l-2.5 3 1 3ZM119 265h1l1-1v-3c0-1.802-14.328-10.914-16.5-12-.804-.402-5.5-2.3-5.5 0 0 2.365 17.054 16 20 16Z"/><path fill="#E64438" id="HY" d="M203 255h2v-3l-2 3ZM251 255h2l-1-2-1 2Z"/><path fill="#F2473B" id="LPO" d="m204 263-1 1-3-1c0-2.7 3-4.762 3-8h2l2 1v3l-2 3-1 1ZM253 263c.716 0 3 2.373 3 0l-3-8h-2l-1 1-1 2v1l2 2 2 2Z"/><path fill="#8599CC" id="PAL" d="M207 258h1l1-1 1-1h-3v2ZM250 256l-1 2-2-2h3Z"/><path fill="#7FCCF7" id="OT" d="M198 273c2.657 0 3 4.557 3 7 0 12.011-11.751 11.126-19.5 15h-9c-14.611 7.306-35.316 2.869-43.5-13.5-1.875-3.749-7-7.101-7-11.5l-1-1v-5l1-1 1-2 8-4h1l5.5 8c4.956 4.956 9.421 6.211 15 9 4.633 2.317 37.968-1 45.5-1Z"/><path fill="#E64438" id="HY" d="m209 257-1 1 1-1Z"/><path fill="#7FCCF7" id="OT" d="M259 273c-2.556 0-4 4.016-4 6 0 12.857 12.43 11.965 20.5 16h8c16.269 8.135 36.936 1.629 45.5-15.5 2.079-4.159 6-6.431 6-11.5v-4l-2-3c-2.747 0-4.56-4-8-4h-1l-3 5.5c-2.344 4.688-9.528 8.514-13.5 10.5-7.894 3.947-38.084 0-48.5 0Z"/><path fill="#E64438" id="HY" d="m208 258-1 1v-1h1ZM227 260l3 1c0-1.348-3-3.216-3-1ZM249 259l2 2-2-2ZM227 260l-1 1 1-1Z"/><path fill="#99D2BD" id="OLF" d="M121 263h1l1-2h-2v2Z"/><path fill="#8599CC" id="PAL" d="m226 261-1 1 1-1Z"/><path fill="#99D2BD" id="OLF" d="M335 264h1l-1-3h-2l2 3Z"/><path fill="#E64438" id="HY" d="m205 262-1 1 1-1Z"/><path fill="#8599CC" id="PAL" d="m231 262 1 1-1-1Z"/><path fill="#97D6F9" id="STR" d="m122 263-1 1v-1h1Z"/><path fill="#E64438" id="HY" d="m201 265-2 1 1-3 3 1-2 1Z"/><path fill="#8599CC" id="PAL" d="m224 263-1 1 1-1Z"/><path fill="#E64438" id="HY" d="M255 265h2l-1-2c0 2.373-2.284 0-3 0l2 2Z"/><path fill="#99D2BD" id="OLF" d="M120 265h1v-1l-1 1Z"/><path fill="#8599CC" id="PAL" d="m223 264-1 1 1-1ZM259 273c-2.556 0-4 4.016-4 6-1.129 0-14.605-8.553-17.5-10l-4.5-5c4.889 0 22 20.178 22 1h2v1l1 1 1 6Z"/><path fill="#97D6F9" id="STR" d="M337 265c0 1.238-.423 3-2 3v-4h1l1 1ZM121 265v2l-2-2h2Z"/><path fill="#8599CC" id="PAL" d="M198 273c2.657 0 3 4.557 3 7l12-9c-4.997 0-12 5.583-12-6l-2 1v2l-1 5ZM222 265c-1.654 0-9 4.228-9 6 2.103 0 9-3.18 9-6Z"/><path fill="#E64438" id="HY" d="m257 266 1 1-1-1ZM199 267c-1.186 0-1.186 1 0 1v-1Z"/><path fill="#97D6F9" id="STR" d="m121 269 1 1-1-1Z"/><path fill="#CBCCC7" id="IIn" d="M216 275c0 1.606-6.894 5.287-8 7.5-2.454 4.908 5.066 7.217 8.5 5.5 7.145-3.573 11.357-13-.5-13ZM235 275c0 2.099-3.558 4.383-2 7.5 2.24 4.48 12.955 9.091 16 3 3-6.001-10.287-10.5-14-10.5Z"/></svg>