<svg xmlns="http://www.w3.org/2000/svg" viewBox="0 0 456 320"><path fill="#99D2BD" id="OLF" d="M212 211c.706 0 6-2.726 6 0 4.011 0 8-21.883 8-26.5 0-11.207.791-45.419-3-53-3.085-6.169-16.511-13.994-23.5-10.5l-13 6c-5.53 2.765-20.5 12.045-20.5 19 4.416 0 .694 13.889 2 16.5 2.075 4.149.936 9.872 3 14 3.479 6.958 6.502 14.004 10 21 2.282 4.564 3.478 11.5 10 11.5 2.334 0 1.341-4.181 2-5.5l8-18c1.093-2.186 9.024-1.951 10 0 3.714 7.428 1 17.665 1 25.5ZM239 211c0-2.726 5.294 0 6 0 0-7.351-3.862-16.775 0-24.5 1.274-2.548 8.537-3.925 10-1 3.315 6.629 10 16.861 10 24.5 5.349 0 8.185-7.87 10-11.5l9-18 4-14c2.628-5.256-3.493-19.5 3-19.5 0-5.47-8.097-8.695-10-12.5-1.49-2.981-6.4-4.95-9.5-6.5-11.679-5.839-19.426-9.287-32-3-11.568 5.784-8.5 40.684-8.5 53.5 0 10.116-.151 17.699 4 26 .824 1.649.87 6.5 4 6.5ZM166 146l-1 1 1-1Z"/><path fill="#C7CBCA" id="onl" d="M212 211c.706 0 6-2.726 6 0l-7 8.5c-4.865 4.865-23.289 20.106-30.5 16.5-13.085-6.543-6.032-15.565-9.5-22.5l-3-8.5-1-1v-2l-3-21.5c0-1.448.725-7.5-1-7.5v-17c1.579 0 1-2.855 1-4v-1l1-2v-2l1-1c4.416 0 .694 13.889 2 16.5 2.075 4.149.936 9.872 3 14 3.479 6.958 6.502 14.004 10 21 2.282 4.564 3.478 11.5 10 11.5 0 18.482 19.051 2 21 2ZM239 211c0-2.726 5.294 0 6 0 0 3.825 20 12.161 20-1 5.349 0 8.185-7.87 10-11.5l9-18 4-14c2.628-5.256-3.493-19.5 3-19.5v1l1 2v1l1 2v26c-1.684 0-1 4.679-1 6 0 5.028-2 10.569-2 16l-1 2v2l-1 1-2 5.5c-3.642 7.284 2.454 18.523-9.5 24.5-7.312 3.656-37.5-18.09-37.5-25Z"/><path fill="#99D2BD" id="OLF" d="m291 148 1 2-1-2ZM165 149l-1 2 1-2ZM292 151l1 2-1-2ZM164 152c-1.579 0-1 2.855-1 4 1.579 0 1-2.855 1-4ZM293 157c1.649 0 1.649 16 0 16v-16ZM163 173c1.725 0 1 6.052 1 7.5l3 21.5c-2.357 0-1.264-6.029-2-7.5-2.711-5.422-2-15.126-2-21.5ZM293 179c-1.684 0-1 4.679-1 6 0 5.028-2 10.569-2 16 2.064 0 .426-3.353 1-4.5 2.404-4.809 2-11.739 2-17.5Z"/><path fill="#9AD1BD" id="MOB" d="M191 209c2.334 0 1.341-4.181 2-5.5l8-18c1.093-2.186 9.024-1.951 10 0 3.714 7.428 1 17.665 1 25.5-1.949 0-21 16.482-21-2ZM265 210c0 13.161-20 4.825-20 1 0-7.351-3.862-16.775 0-24.5 1.274-2.548 8.537-3.925 10-1 3.315 6.629 10 16.861 10 24.5Z"/><path fill="#99D2BD" id="OLF" d="m290 201-1 2 1-2ZM167 204l1 1-1-1ZM289 205l-1 1 1-1Z"/></svg>