<svg xmlns="http://www.w3.org/2000/svg" viewBox="0 0 456 320"><path fill="#1E9C59" id="MOs1" d="m122 153-3 2c0-2.161-3.396-4.293-4-5.5-1.246-2.492-4-16.511-4-20.5 0-7.456 3.897-13.294 7-19.5 10.467-20.934 28.371-28.436 48.5-38.5 3.949-1.974 8.974-1.987 13-4 7.898-3.949 38.5 1.897 38.5 12 0 3.222-3 .778-3 4h-2c0-5.58-10.053-6.276-13.5-8-10.697-5.349-36.252 3.126-46 8-15.15 7.575-26.09 18.679-33.5 33.5-1.191 2.382-5.338 14.324-4 17 1.326 2.653-.272 6.456 1 9l5 10.5ZM335 153l3 2c0-2.11 3-3.945 3-4.5 0-3.563.813-7.627 3-12 .65-1.3.007-6.5 2-6.5v-2c-1.186 0-1.186-1 0-1 0-15.91-20.854-41.177-34.5-48-7.74-3.87-16.348-6.174-24-10-3.936-1.968-23.239-7.38-28-5-4.385 2.192-9.574 2.787-14 5l-7.5 8c0 2.35 3 1.382 3 4h2c0-5.484 10.621-6.56 13.5-8 10.851-5.425 36.157 3.079 46 8 23.072 11.536 26.677 20.854 37.5 42.5 4.651 9.302-5 19.949-5 27.5Z"/><path fill="#1E9D58" id="MOs2/3" d="M122 153h1c0-1.377 7.483-7 9-7 0-4.04-3.148-12.204-1-16.5l4-11c7.267-14.535 22.318-22.91 35.5-29.5 7.031-3.515 21.576-9.212 30-5 1.535.767 8.5 1.845 8.5 4 1.811 0 4-3.438 4-5 0-5.58-10.053-6.276-13.5-8-10.697-5.349-36.252 3.126-46 8-15.15 7.575-26.09 18.679-33.5 33.5-1.191 2.382-5.338 14.324-4 17 1.326 2.653-.272 6.456 1 9l5 10.5ZM334 153h1c0-7.551 9.651-18.198 5-27.5-10.823-21.646-14.428-30.964-37.5-42.5-9.843-4.921-35.149-13.425-46-8-2.879 1.44-13.5 2.516-13.5 8 0 3.165 4 2.508 4 5h1c0-5.17 20.599-5.95 24.5-4 18.508 9.254 38.88 14.26 49.5 35.5 2.864 5.728 3 12.025 3 19 0 1.363.7 6.5-1 6.5v1c1.386 0 10 5.764 10 7Z"/><path fill="#3EA665" id="ACAd1" d="m225 90-6 1-4-8c0-3.222 3-.778 3-4 1.342 0 7 9.36 7 11ZM232 89c0 1.014 3.959 2 5 2l4-8c0-2.618-3-1.65-3-4-1.054 0-6 8.699-6 10Z"/><path fill="#1F9D58" id="MOs5" d="M159 134c-3.844 0-7.519-1.99-11.5 0L132 146c0-4.04-3.148-12.204-1-16.5l4-11c7.267-14.535 22.318-22.91 35.5-29.5 7.031-3.515 21.576-9.212 30-5 1.535.767 8.5 1.845 8.5 4v1l-4 4c-3.725 0-15 10.034-15 14-10.793 0-22.783 2.066-28 12.5l1 5.5-4 9Z"/><path fill="#40A565" id="ACAd2/3" d="M219 91c-2.483 0-4.026 2-6 2 0-1.634-2.634-4-4-4v-1c1.811 0 4-3.438 4-5h2l4 8ZM243 93h1c0-2.364 3-3.053 3-5 0-2.492-4-1.835-4-5h-2l-4 8c2.483 0 4.026 2 6 2Z"/><path fill="#1F9D58" id="MOs5" d="M298 134c4.831 0 7.674-1.413 12.5 1 4.714 2.357 8.428 10 13.5 10 1.7 0 1-5.137 1-6.5 0-6.975-.136-13.272-3-19-10.62-21.24-30.992-26.246-49.5-35.5-3.901-1.95-24.5-1.17-24.5 4 0 2.666 3 2.482 3 5 2.911 0 16 11.46 16 14 8.053 0 28 3.641 28 14.5l-2 3.5c0 1.272 4.405 9 5 9Z"/><path fill="#3EA566" id="ACAd5" d="M244 93c1.813 0 7 1.73 7 0 0-2.518-3-2.334-3-5h-1c0 1.947-3 2.636-3 5ZM205 93c0 1 6.101 0 8 0 0-1.634-2.634-4-4-4l-4 4Z"/><path fill="#2FA750" id="PL1" d="M223 124h10l2-28.5 2-4.5c-1.041 0-5-.986-5-2-4.313 0-.882 12.737-5 4.5l-2-3.5-6 1c0 1.019 2.389 6.278 3 7.5l1 25.5Z"/><path fill="#2FA74F" id="PL2/3" d="m219 123 4 1-1-25.5c-.611-1.222-3-6.481-3-7.5-2.483 0-4.026 2-6 2 0 2.465 4.669 13.837 6 16.5V123ZM238 123l-5 1 2-28.5 2-4.5c2.483 0 4.026 2 6 2l-5 15.5V123Z"/><path fill="#2EA84F" id="PL5" d="M197 113c3.838 0 14.383 10 22 10v-13.5c-1.331-2.663-6-14.035-6-16.5-1.899 0-8 1-8 0-3.725 0-15 10.034-15 14 1.562 0 5 2.189 5 4v1l2 1ZM259 114c-5.84 0-13.479 9-21 9v-14.5l5-15.5h1c1.813 0 7 1.73 7 0 2.911 0 16 11.46 16 14-1.238 0-3 .423-3 2l-1 1-1 1-1 1-1 1-1 1Z"/><path fill="#258F45" id="FRP5" d="m179 117-16 8-1-5.5c5.217-10.434 17.207-12.5 28-12.5 1.562 0 5 2.189 5 4l-2.5-2c-5.07-2.535-13.5 2.9-13.5 8ZM277 117l16 8 2-3.5c0-10.859-19.947-14.5-28-14.5-1.238 0-3 .423-3 2 5.193 0 13 .386 13 7v1Z"/><path fill="#268E44" id="FRP6a" d="M185 115c3.325 0 7.31 1 10 1v-5l-2.5-2c-5.07-2.535-13.5 2.9-13.5 8 1.974 0 3.517-2 6-2ZM271 115l6 1c0-6.614-7.807-7-13-7l-1 1-1 1-1 1v4c2.978 0 6.49-1 10-1Z"/><path fill="#258F45" id="FRP5" d="m263 110-1 1 1-1ZM262 111l-1 1 1-1ZM195 116l1 1c2.765 0 1-1.657 1-4l-2-1v4ZM260 117h1v-5l-1 1-1 1c0 1.048-.473 3 1 3Z"/><path fill="#23885E" id="ORBm5" d="M219 123c0 5.836 1.044 27-6 27 0-6.063-17-28.725-17-33 2.765 0 1-1.657 1-4 3.838 0 14.383 10 22 10ZM260 113l-1 1 1-1ZM238 123c0 5.623-1.78 27 5 27 0-5.492 17-27.882 17-33-1.473 0-1-1.952-1-3-5.84 0-13.479 9-21 9Z"/><path fill="#24895D" id="ORBl6a" d="M183 121h1c0-2.079 1-3.187 1-6-2.483 0-4.026 2-6 2l4 4Z"/><path fill="#238A5C" id="ORBvl6a" d="M195 116c0 4.453-7.478 5-11 5 0-2.079 1-3.187 1-6 3.325 0 7.31 1 10 1ZM273 120v1c-2.496 0-12-.904-12-4v-1c2.978 0 6.49-1 10-1l2 5Z"/><path fill="#24895D" id="ORBl6a" d="M277 117c0 2.098-1.939 3-4 3l-2-5 6 1v1Z"/><path fill="#23885C" id="ORBvl5" d="M181 141c12.208 0 23.594 9 32 9 0-6.063-17-28.725-17-33l-1-1c0 4.453-7.478 5-11 5h-1c0 6.657-2 12.722-2 20Z"/><path fill="#228A5D" id="ORBl5" d="M149 167v2c12.199 0 22.852-27 32-27v-1c0-7.278 2-13.343 2-20l-4-4-16 8-4 9-3 5.5c-1.923 3.846-6 20.26-6 24.5l-1 2v1Z"/><path fill="#23885C" id="ORBvl5" d="M275 141c-12.251 0-23.336 9-32 9 0-5.492 17-27.882 17-33h1c0 3.096 9.504 4 12 4 0 2.245 2 3.905 2 5.5V141Z"/><path fill="#228A5D" id="ORBl5" d="m306 164 1 4c-12.478 0-22.945-26-31-26l-1-1v-14.5c0-1.595-2-3.255-2-5.5v-1c2.061 0 4-.902 4-3l16 8c0 1.272 4.405 9 5 9 0 6.914 8 21.21 8 30Z"/><path fill="#24885D" id="ORBm2/3" d="M218 163h1c4.37 0 2.946-6.392 4-8.5 4.051-8.102 0-21.869 0-30.5l-4-1c0 5.836 1.044 27-6 27 0 4.384 5 8.046 5 13ZM237 163h1l5-13c-6.78 0-5-21.377-5-27l-5 1v30.5c0 1.856 1.559 8.5 4 8.5Z"/><path fill="#23895D" id="ORBm1" d="m225 174-3 1-3-12c4.37 0 2.946-6.392 4-8.5 4.051-8.102 0-21.869 0-30.5h10v30.5c0 1.856 1.559 8.5 4 8.5 0 4.475-2 7.225-2 12l-4-2c0-7.513-6-5.074-6 1Z"/><path fill="#1E9D5A" id="MOp1" d="M117 155h2c0-2.161-3.396-4.293-4-5.5-1.246-2.492-4-16.511-4-20.5-1.714 0-1 5.594-1 7 0 3.279 4.134 19 7 19ZM346 129c-1.186 0-1.186 1 0 1v-1ZM338 155h2l5-9.5 1-13.5c-1.993 0-1.35 5.2-2 6.5-2.187 4.373-3 8.437-3 12 0 .555-3 2.39-3 4.5Z"/><path fill="#209665" id="AId5" d="M149 167c-1.747 0-2 .253-2 2-4.74 0-15-18.948-15-23l15.5-12c3.981-1.99 7.656 0 11.5 0l-3 5.5c-1.923 3.846-6 20.26-6 24.5l-1 2v1ZM309 169h1c4.334 0 14-19.02 14-23v-1c-5.072 0-8.786-7.643-13.5-10-4.826-2.413-7.669-1-12.5-1 0 6.914 8 21.21 8 30 1.803 0 3 3.592 3 5Z"/><path fill="#248A5D" id="ORBvl2/3" d="M183 154c9.767 0 18.341 4.92 26.5 9 1.108.554 8.5 1.973 8.5 0 0-4.954-5-8.616-5-13-8.406 0-19.792-9-32-9v1c0 4.646 2 7.501 2 12ZM273 154c-12.817 0-22.896 9-35 9l5-13c8.664 0 19.749-9 32-9l1 1c0 4.169-3 8.034-3 12Z"/><path fill="#238A5E" id="ORBl2/3" d="M149 169v10c4.788 0 23.769-25 34-25 0-4.499-2-7.354-2-12-9.148 0-19.801 27-32 27ZM307 169c0 1.047 2.412 10 0 10-2.431 0-5.064-5.282-6.5-6-8.221-4.11-16.865-19-27.5-19 0-3.966 3-7.831 3-12 8.055 0 18.522 26 31 26v1Z"/><path fill="#209765" id="AId2/3" d="M139 179h1l7-10c-4.74 0-15-18.948-15-23-1.517 0-9 5.623-9 7 0 6.768 16 21.353 16 26ZM310 169c0 1.727 4.705 10 7 10l4-5.5 13-20.5c0-1.236-8.614-7-10-7 0 3.98-9.666 23-14 23Z"/><path fill="#209764" id="AId1" d="M139 179c0 1.712-2.571 3-4 3l-4.5-6c-3.103-3.103-13.5-17.602-13.5-21h2l3-2h1c0 6.768 16 21.353 16 26ZM317 180l4 2 4.5-6c2.449-2.449 14.5-18.461 14.5-21h-2l-3-2h-1l-13 20.5-4 5.5v1Z"/><path fill="#238A5D" id="ORBl1" d="m154 183-4 2-1-5v-1c4.788 0 23.769-25 34-25 0 3.489 2 5.32 2 9-6.072 0-29 10.404-29 18l-1 1-1 1Z"/><path fill="#248A5B" id="ORBvl1" d="m219 163 3 12c-13.677 0-23.111-12-37-12 0-3.68-2-5.511-2-9 9.767 0 18.341 4.92 26.5 9 1.108.554 8.5 1.973 8.5 0h1ZM271 163c-13.587 0-22.788 12-36 12 0-4.775 2-7.525 2-12h1c12.104 0 22.183-9 35-9 0 3.519-2 5.843-2 9Z"/><path fill="#238A5D" id="ORBl1" d="M307 180v5c-5.749 0-8.389-9.945-12.5-12-7.555-3.777-14.034-10-23.5-10 0-3.157 2-5.481 2-9 10.635 0 19.279 14.89 27.5 19 1.436.718 4.069 6 6.5 6v1Z"/><path fill="#99D2BD" id="OLF" d="m213 183 6.5-2c5.161 0 4.13 7.76 5.5 10.5 3.636 7.272 1 22.021 1 30.5 1.777 0 1-9.717 1-11.5v-24c-1.849-3.699-2-8.022-2-12.5l-3 1c-13.677 0-23.111-12-37-12-6.072 0-29 10.404-29 18l15.5-12c14.888-7.444 20.842-2.579 34 4 4.266 2.133 7.5 4.525 7.5 10ZM304 203l1 7 3-3.5c9.952-9.952 1-10.613 1-19.5l-2-2c-5.749 0-8.389-9.945-12.5-12-7.555-3.777-14.034-10-23.5-10-13.587 0-22.788 12-36 12l-4-2c0 11.645-2 21.54-2 33.5 0 1.699-.769 10.5 1 10.5 0-6.582-.968-36 6.5-36 1.507 0 4.353 1 6.5 1 0-6.626 10.025-10.763 14.5-13 17.344-8.672 31.346 1.346 44.5 14.5 2.228 2.228 9.601 19.5 2 19.5Z"/><path fill="#1F9865" id="AIv5" d="m150 164-1 2 1-2ZM307 169h2c0-1.408-1.197-5-3-5l1 4v1Z"/><path fill="#54BF94" id="AON" fill-rule="evenodd" d="M180 191c0 4.085 2.897 6.294 5 10.5l6.5 15.5c2.793 1.397 6.353-4.794 5.5-6.5l-4-7v-10c-1.387-2.775-9.987-2.5-13-2.5m1 52c3.547 0 7.595 7 12 7 0-5.432 9.996-21 16-21l2-1c0-3.518-10.537-10.427-7-17.5.899-1.798 9-26.751 9-27.5 0-5.475-3.234-7.867-7.5-10-13.158-6.579-19.112-11.444-34-4L156 181l-1 1-1 1c0 2.266-3.874 8.249-5 10.5-2.041 4.082 3 7.38 3 10.5 4.283 0 5.239 5.739 7.5 8 3.576 3.576 21.5 27.996 21.5 30v1ZM269 191l-6 3.5 1 5c-1.099 2.198-7.061 18.5-.5 18.5 3.085 0 4.587-10.673 5.5-12.5 3.902-7.804 14.821-14.5 0-14.5m6 52c0 2.454-9.887 7-12 7 0-5.355-9.276-21-15-21-1.747 0-2-.253-2-2 0-2.347 9.822-10.856 6-18.5-1.111-2.222-9-25.18-9-26.5 0-6.626 10.025-10.763 14.5-13 17.344-8.672 31.346 1.346 44.5 14.5 2.228 2.228 9.601 19.5 2 19.5l-7 7.5c-3.786 7.571-21 26.448-21 31.5l-1 1Z"/><path fill="#1F9865" id="AIv5" d="M147 169h2v-2c-1.747 0-2 .253-2 2Z"/><path fill="#219764" id="AIv2/3" d="M149 179v1c-1.368 0-9 3.238-9-1l7-10h2v10ZM307 180h10v-1c-2.295 0-7-8.273-7-10h-3c0 1.047 2.412 10 0 10v1Z"/><path fill="#209864" id="AIv1" d="m150 185-2 2c-3.583 0-13 .787-13-5 1.429 0 4-1.288 4-3h1c0 4.238 7.632 1 9 1l1 5ZM307 185l2 2c4.032 0 12 .658 12-5l-4-2h-10v5Z"/><path fill="#99D2BD" id="OLF" d="m156 181-1 1 1-1Z"/><path fill="#9AD1BD" id="MOB" d="M226 222c-.847 0-3.189 7.844-5.5 9-3.661 1.831-6.626-3-9.5-3 0-3.518-10.537-10.427-7-17.5.899-1.798 9-26.751 9-27.5l6.5-2c5.161 0 4.13 7.76 5.5 10.5 3.636 7.272 1 22.021 1 30.5ZM230 219c2.144 0 .381 4.262 1 5.5l4.5 6.5c4.636 2.318 7.183-4 10.5-4 0-2.347 9.822-10.856 6-18.5-1.111-2.222-9-25.18-9-26.5-2.147 0-4.993-1-6.5-1-7.468 0-6.5 29.418-6.5 36v2Z"/><path fill="#99D2BD" id="OLF" d="m155 182-1 1 1-1ZM152 204l-1 5c-2.468 0-2.11-1.721-3-3.5l-4-5c-2.605-5.21 4-9.343 4-13.5l2-2 4-2c0 2.266-3.874 8.249-5 10.5-2.041 4.082 3 7.38 3 10.5Z"/><path fill="#CBCBC7" id="aco" d="M180 191c0 4.085 2.897 6.294 5 10.5l6.5 15.5c2.793 1.397 6.353-4.794 5.5-6.5l-4-7v-10c-1.387-2.775-9.987-2.5-13-2.5ZM269 191l-6 3.5 1 5c-1.099 2.198-7.061 18.5-.5 18.5 3.085 0 4.587-10.673 5.5-12.5 3.902-7.804 14.821-14.5 0-14.5Z"/><path fill="#CAC8C7" id="lot" d="M276 242h1c6.392 0 19.534-18.569 22-23.5 1.395-2.789 6-5.226 6-8.5l-1-7-7 7.5c-3.786 7.571-21 26.448-21 31.5ZM180 242h1c0-2.004-17.924-26.424-21.5-30-2.261-2.261-3.217-8-7.5-8l-1 5c0 4.463 5.139 6.778 7 10.5 3.206 6.413 13.357 22.5 22 22.5Z"/><path fill="#99D2BD" id="OLF" d="m248 229-13 8c-1.973 0-5-14.891-5-18 2.144 0 .381 4.262 1 5.5l4.5 6.5c4.636 2.318 7.183-4 10.5-4 0 1.747.253 2 2 2ZM209 229l9.5 6 2.5 2c3.472 0 5-12.109 5-15-.847 0-3.189 7.844-5.5 9-3.661 1.831-6.626-3-9.5-3l-2 1Z"/><path fill="#62CF9E" id="TTv" d="M220 241c0 4.524-9.736 16.882-15.5 14l-11.5-5c0-5.432 9.996-21 16-21l9.5 6 2.5 2v3l-1 1ZM237 242c0 9.283 11.449 14.526 18.5 11 1.272-.636 7.5-1.45 7.5-3 0-5.355-9.276-21-15-21l-13 8 1 4 1 1Z"/><path fill="#99D2BD" id="OLF" d="m221 240-1 1 1-1ZM236 241l1 1-1-1ZM181 242v1l-1-1h1ZM277 242l-2 1 1-1h1Z"/></svg>