<svg xmlns="http://www.w3.org/2000/svg" viewBox="0 0 456 320"><path fill="#1E9C59" id="MOs1" d="M219 67h1l3-3c0-3.399-6.703-9.602-9.5-11-1.4-.7-2.997-2.998-5-4-7.998-4-30.522-1.739-38 2L152 59l1 5c4.831 0 9.429-2.965 13.5-5 8.489-4.245 29.587-8.706 39-4 4.173 2.086 13.5 5.953 13.5 12ZM304 65c-8.519 0-36.873-17.313-47.5-12-4.258 2.129-9.324 4.162-13 6l-6.5 7-4-2c0-4.68 8.935-11.218 12.5-13 10.222-5.111 30.765-5.118 41 0 2.934 1.467 14.949 8 17.5 8v6Z"/><path fill="#1E9D58" id="MOs2/3" d="M213 71h1l5-4c0-6.047-9.327-9.914-13.5-12-9.413-4.706-30.511-.245-39 4-4.071 2.035-8.669 5-13.5 5v18c10.234 0 32.837-24.831 48.5-17 2.512 1.256 11.5 1.146 11.5 6ZM243 71l6.5-5c4.709-2.354 15.862-3.57 21-1L303 82c0-5.815 1-12.988 1-17-8.519 0-36.873-17.313-47.5-12-4.258 2.129-9.324 4.162-13 6l-6.5 7v1c2.789 0 3.42 4 6 4Z"/><path fill="#1E9D5A" id="MOp1" d="M92 103c0 2.232 1 4.029 1 7l15.5-17c9.316-9.316 20.066-15.533 31-21 4.129-2.064 8.677-7 13.5-7v-1l-1-5c-3.813 0-8.176 4.338-11.5 6-12.709 6.355-25.23 14.23-35.5 24.5-2.869 2.869-13 8.771-13 13.5ZM364 103c0 1.424.442 7-1 7-4.123 0-6.783-11.142-10.5-13l-12-11c-7.621-3.81-29.505-21-36.5-21v-6c5.354 0 10.885 5.692 15.5 8 11.075 5.537 23.227 13.227 32.5 22.5 2.969 2.969 12 9.381 12 13.5Z"/><path fill="#1F9D58" id="MOs5" d="M196 88c-1.606 0-4.339-2.08-6.5-1-6.568 3.284-30.592 16-36.5 16V82c10.234 0 32.837-24.831 48.5-17 2.512 1.256 11.5 1.146 11.5 6l-17 17Z"/><path fill="#3EA665" id="ACAd1" d="M222 99h12v-1c0-4.283-3.108-31 3-31v-1l-4-2-2 2.5c-4.795 9.59-2.782-2.5-8-2.5l-3 3 3 6.5c2.964 5.929-1 18.698-1 24.5v1Z"/><path fill="#1F9D58" id="MOs5" d="m260 88 7.5-1c6.43 3.215 29.712 16 35.5 16V82l-32.5-17c-5.138-2.57-16.291-1.354-21 1l-6.5 5v1c5.367 0 14.737 16 17 16Z"/><path fill="#1F9C58" id="MOp2/3" fill-rule="evenodd" d="M96 124c0 1.93 1.93 0 0 0m0 33h1c0-24.987 17.536-53.018 39.5-64 5.126-2.563 10.546-10 16.5-10V65c-4.823 0-9.371 4.936-13.5 7-10.934 5.467-21.684 11.684-31 21L93 110v2c0 7.001 3 15.609 3 22 2.246 0-.086 4-1 4v1c1.203 0 0 5.226 0 7l1 11Z"/><path fill="#1F9C58" id="MOp2/3" d="M359 158h1v-1c0-2.148 2-6.385 2-8.5 0-3.058-1-7.806-1-10.5v-1c-1.919 0-2.488-2 0-2v-1l-1-1c0-4.971 3.641-12.217 2-15.5-.309-.617 1.382-4.5 2-4.5v-1l-1-1v-1c-4.123 0-6.783-11.142-10.5-13l-12-11c-7.621-3.81-29.505-21-36.5-21 0 4.012-1 11.185-1 17v1c7.085 0 12.487 7.993 18.5 11 21.973 10.986 37.5 38.999 37.5 64Z"/><path fill="#40A565" id="ACAd2/3" d="m222 98-5 1V79.5l-3-8.5 5-4h1l3 6.5c2.964 5.929-1 18.698-1 24.5ZM234 98l6 1c0-4.354-1.023-27 3-27v-1c-2.58 0-3.211-4-6-4-6.108 0-3 26.717-3 31Z"/><path fill="#3EA566" id="ACAd5" d="M217 99c-6.273 0-10.43 4-16 4 0-3.99.19-14-5-14v-1l17-17h1l3 8.5V99ZM240 99c5.505 0 9.992 4 15 4 0-2.585 1.165-14 5-14v-1c-2.263 0-11.633-16-17-16-4.023 0-3 22.646-3 27Z"/><path fill="#1E9C5A" id="MOp5" d="m119 164-20 7c0-2.529 1.136-7-2-7v-7c0-24.987 17.536-53.018 39.5-64 5.126-2.563 10.546-10 16.5-10v21c-6.003 0-12.118 8.809-16.5 11-19.119 9.559-17.5 29.805-17.5 48v1ZM338 164c6.323 0 12.36 7 19 7l2-13c0-25.001-15.527-53.014-37.5-64-6.013-3.007-11.415-11-18.5-11v21c5.992 0 9.461 6.481 14.5 9 20.796 10.398 20.5 31.319 20.5 51Z"/><path fill="#1D9C5A" id="MOs6a" d="M165 123c-6.845 0-10.35 14-16 14l4-9.5c2.237-4.475 0-17.949 0-23.5v-1c5.908 0 29.932-12.716 36.5-16 2.161-1.08 4.894 1 6.5 1v1c0 3.433-13 19.779-13 26-2.386 0-12 1.255-12 4-1.465 0-4-.109-4 2-1.747 0-2 .253-2 2ZM311 149h1c0-7.007-4.12-10.74-7-16.5-3.933-7.867-2-20.108-2-28.5v-1c-5.788 0-29.07-12.785-35.5-16l-7.5 1v1c2.05 0 13 22.733 13 26 12.947 0 38 19.206 38 33v1Z"/><path fill="#3FA664" id="ACAd6a" d="M185 117h1c0-2.663 12.265-13 15-13v-1c0-3.99.19-14-5-14 0 3.433-13 19.779-13 26l2 2ZM270 117h1l2-1v-1c0-3.267-10.95-26-13-26-3.835 0-5 11.415-5 14 2.71 0 15 11.189 15 14Z"/><path fill="#2FA74F" id="PL2/3" d="m223 132-5 1c0-10.627-1-22.717-1-34l5-1v1c0 10.912 1 22.76 1 33Z"/><path fill="#2FA750" id="PL1" d="M223 132h11V99h-12c0 10.912 1 22.76 1 33Z"/><path fill="#2FA74F" id="PL2/3" d="m234 132 4 1c0-10.986 2-22.517 2-34l-6-1v34Z"/><path fill="#2EA84F" id="PL5" d="M218 133c-4.846 0-8.793 2-13 2 0-10.087-4-19.972-4-31v-1c5.57 0 9.727-4 16-4 0 11.283 1 23.373 1 34ZM251 135h1c0-10.675 3-20.478 3-32-5.008 0-9.495-4-15-4 0 11.483-2 23.014-2 34 4.846 0 8.793 2 13 2Z"/><path fill="#187E61" id="SSp-m1" d="m81 160-5 1c0-19.86.77-30.039 9-46.5.966-1.932 4.636-11.5 7-11.5 0 2.232 1 4.029 1 7v2c-2.683 0-5.082 7.664-6 9.5-6.198 12.397-6 24.551-6 38.5Z"/><path fill="#2FA850" id="PL6a" d="m252 135 8 2c0-5.75 10-18.248 10-20 0-2.811-12.29-14-15-14 0 11.522-3 21.325-3 32Z"/><path fill="#187E61" id="SSp-m1" d="M376 161h4c0-21.867.716-28.067-9-47.5-.972-1.943-4.218-10.5-7-10.5 0 1.424.442 7-1 7v1l1 1v1c3.122 0 5.03 7.56 6 9.5 5.661 11.321 6 23.769 6 37.5v1Z"/><path fill="#1F9B5A" id="MOp6a" d="M145 149c-9.177 0-16.696 14-26 14 0-18.195-1.619-38.441 17.5-48 4.382-2.191 10.497-11 16.5-11 0 5.551 2.237 19.025 0 23.5l-4 9.5c-2.641 0-2 1.823-2 4-2.461 0-2 3.378-2 5v1c-1.186 0-1.186 1 0 1v1Z"/><path fill="#2FA850" id="PL6a" d="M196 137h1c0-1.434 6.448-2 8-2 0-10.087-4-19.972-4-31-2.735 0-15 10.337-15 13 2.589 0 10 16.921 10 20Z"/><path fill="#1F9B5A" id="MOp6a" d="m312 149 26 15c0-19.681.296-40.602-20.5-51-5.039-2.519-8.508-9-14.5-9 0 8.392-1.933 20.633 2 28.5 2.88 5.76 7 9.493 7 16.5Z"/><path fill="#1A7E64" id="SSp-m2/3" d="m363 111 1 1-1-1ZM93 157c-3.654 0-7.874 3-12 3 0-13.949-.198-26.103 6-38.5.918-1.836 3.317-9.5 6-9.5 0 7.001 3 15.609 3 22l-1 4v1c0 3.848-2 11.659-2 18ZM363 157c4.25 0 8.447 3 13 3 0-13.731-.339-26.179-6-37.5-.97-1.94-2.878-9.5-6-9.5-.618 0-2.309 3.883-2 4.5 1.641 3.283-2 10.529-2 15.5l1 1v4c1.951 0 .477 2.454 1 3.5 2.042 4.084 1 10.663 1 15.5Z"/><path fill="#1E9C58" id="MOs6b" d="M183 116c-4.56 0-7.312 3-12 3 0-2.745 9.614-4 12-4v1Z"/><path fill="#3FA466" id="ACAd6b" d="m183 116 2 1-2-2v1Z"/><path fill="#1E9C58" id="MOs6b" d="M309 148h2c0-13.794-25.053-33-38-33v1c2.267 0 14 2.887 14 5 5.383 0 22 22.279 22 27Z"/><path fill="#CACCC7" id="cing" d="M198 158h1v-8c-.937 0-4-11.654-4-13 0-6.432-10-16.312-10-20l-2-1c-4.56 0-7.312 3-12 3l-1 2 3 2h11.5c6.492 3.246 13.5 27.976 13.5 35Z"/><path fill="#3FA466" id="ACAd6b" d="M271 117v1l2-2-2 1Z"/><path fill="#CACCC7" id="cing" d="m257 154 1 5c1.886 0 2.036-13.572 3-15.5 6.783-13.565 3.133-20.5 22-20.5l4-2c0-2.113-11.733-5-14-5l-2 2-6 8.5c-.757 1.513-2.388 10.5-4 10.5 0 3.066-1.624 8.748-3 11.5-.574 1.147 1.064 4.5-1 4.5v1Z"/><path fill="#2FA84F" id="PL6b" d="M195 137h1c0-3.079-7.411-20-10-20h-1c0 3.688 10 13.568 10 20ZM260 137h1c1.612 0 3.243-8.987 4-10.5l6-8.5v-1h-1c0 1.752-10 14.25-10 20Z"/><path fill="#1E9C58" id="MOs6b" d="M167 121h3l1-2c-1.465 0-4-.109-4 2ZM167 121c-1.747 0-2 .253-2 2 1.747 0 2-.253 2-2Z"/><path fill="#C9C9CA" id="scwm" d="m150 166 3 2c0-2.721-.836-6.171-2-8.5-5.162-10.323 6.811-22.811 12.5-28.5 2.105-2.105 6.866-8 9.5-8l-3-2h-3c0 1.747-.253 2-2 2 0 4.541-17 15.218-17 24v15l1 3 1 1ZM307 166l-4 3c0-2.613.93-4.36 2-6.5 4.851-9.703-5.432-28.466-13.5-32.5-3.186-1.593-4.664-7-8.5-7l4-2c5.383 0 22 22.279 22 27-.415 0 0 11.531 0 14l-2 3v1Z"/><path fill="#1E9C58" id="MOs6b" d="m148 147-3 1v-2c1.014 0 2-3.959 2-5l2-4c5.65 0 9.155-14 16-14 0 4.541-17 15.218-17 24Z"/><path fill="#CAC7CC" id="fa" d="M191 175c-2.649 0-1.009 5.254-2.5 6-2.542 1.271-.471-5-2.5-5 0-10.678-8.675-14.85-13-23.5-.9-1.801-8.524-5.953-10-3-2.646 5.292 4 10.918 4 15.5-2.196 0-12 2.765-12 5l-2-2c0-2.721-.836-6.171-2-8.5-5.162-10.323 6.811-22.811 12.5-28.5 2.105-2.105 6.866-8 9.5-8h11.5c6.492 3.246 13.5 27.976 13.5 35 0 6.163-7 10.063-7 17ZM265 173c2.323 0 1.412 9 3.5 9 1.021 0-.049-7 2.5-7 0-8.664 6.452-15.952 12.5-22 1.986-1.986 8.066-7.369 10.5-2.5l-4 14.5c1.993 0 12 3.344 12 5l1-1c0-2.613.93-4.36 2-6.5 4.851-9.703-5.432-28.466-13.5-32.5-3.186-1.593-4.664-7-8.5-7-18.867 0-15.217 6.935-22 20.5-.964 1.928-1.114 15.5-3 15.5v1c3.305 0 7 10.319 7 13Z"/><path fill="#1A7E64" id="SSp-m2/3" d="M96 124c0 1.93 1.93 0 0 0Z"/><path fill="#59B362" id="ILA2/3" d="M219 155h4v-23l-5 1c0 6.557 1 14.767 1 22Z"/><path fill="#59B263" id="ILA1" d="M229 155h4c0-7.619 1-16.035 1-23h-11v23h5v-8c0-3.246 1-3.246 1 0v8Z"/><path fill="#59B362" id="ILA2/3" d="M233 155h4l1-22-4-1c0 6.965-1 15.381-1 23Z"/><path fill="#59B262" id="ILA5" d="m211 154 8 1c0-7.233-1-15.443-1-22-4.846 0-8.793 2-13 2 0 7.025 6 12.746 6 19ZM245 154l-8 1 1-22c4.846 0 8.793 2 13 2 0 7.588-6 13.999-6 19Z"/><path fill="#1B7F62" id="SSp-m4" d="m360 133 1 1-1-1ZM96 134c2.246 0-.086 4-1 4l1-4Z"/><path fill="#58B362" id="ILA6a" d="M199 154h12c0-6.254-6-11.975-6-19-1.552 0-8 .566-8 2 0 4.449 2 8.01 2 13v4ZM245 154h12v-1c0-5.939 3-11.127 3-16l-8-2h-1c0 7.588-6 13.999-6 19Z"/><path fill="#1B7F62" id="SSp-m4" d="M361 135c-2.488 0-1.919 2 0 2v-2Z"/><path fill="#1D9C5A" id="MOs6a" d="M149 137c-2.641 0-2 1.823-2 4l2-4Z"/><path fill="#58B263" id="ILA6b" d="M197 137c0 4.449 2 8.01 2 13-.937 0-4-11.654-4-13h2ZM261 137c0 3.066-1.624 8.748-3 11.5-.574 1.147 1.064 4.5-1 4.5 0-5.939 3-11.127 3-16h1Z"/><path fill="#1B7F62" id="SSp-m4" d="M360 157h3c0-4.837 1.042-11.416-1-15.5-.523-1.046.951-3.5-1-3.5 0 2.694 1 7.442 1 10.5 0 2.115-2 6.352-2 8.5ZM93 157h3l-1-11c0-1.774 1.203-7 0-7 0 3.848-2 11.659-2 18Z"/><path fill="#1D9C5A" id="MOs6a" d="M147 141c-2.461 0-2 3.378-2 5 1.014 0 2-3.959 2-5ZM145 147c-1.186 0-1.186 1 0 1v-1Z"/><path fill="#1F9766" id="AId6b" d="m148 162-2 2c-1.614 0-1-3.31-1-4.5V148l3-1v15Z"/><path fill="#99D2BD" id="OLF" d="M228 155c0 6.362 1 6.362 1 0v-8h-1v8Z"/><path fill="#1F9766" id="AId6b" d="m309 162 2 2v-16h-2c-.415 0 0 11.531 0 14Z"/><path fill="#209666" id="AId6a" d="M132 180h1v-1c-7.589 0-2.365-12.067 1.5-14 3.292-1.646 5.883 2 8.5 2l3-2v-1c-1.614 0-1-3.31-1-4.5V149c-9.177 0-16.696 14-26 14v1c0 5.133 3.313 9.813 7 13.5 1.027 1.027 6 1.305 6 2.5Z"/><path fill="#98D5F9" id="CP" d="M168 177c0 3.391-3 5.353-3 9 4.579 0 11.724 1.388 16.5-1l4.5-9c0-10.678-8.675-14.85-13-23.5-.9-1.801-8.524-5.953-10-3-2.646 5.292 4 10.918 4 15.5l4 6.5-2 4.5-1 1ZM287 175c0 3.718 4 6.347 4 11-8.427 0-20 1.529-20-11 0-8.664 6.452-15.952 12.5-22 1.986-1.986 8.066-7.369 10.5-2.5l-4 14.5c-4.309 0-3 8.143-3 10Z"/><path fill="#209666" id="AId6a" d="M313 167c8.87 0 5.313-5.187 13 2.5 1.072 1.072 1.798 5.404 1 7l-3 2.5c7.283 0 14-7.94 14-15l-26-15h-1v16l2 2Z"/><path fill="#A3DAA3" id="DP" d="M205 176c0-2.36 6.789-2.856 8.5-2 7.916 3.958 31.815-2.092 36 0l2.5 2 5-5.5 1-10.5v-1l-1-5h-12l-8 1h-8c0 6.362-1 6.362-1 0h-9l-8-1h-12v4c0 4.48-1.294 18 6 18Z"/><path fill="#009B75" id="GU2/3" d="M83 179h1c0-1.102 9.286-5 11-5l-2-17c-3.654 0-7.874 3-12 3 0 7.074 2 12.218 2 19Z"/><path fill="#009C74" id="GU4" d="M95 174h1v-1l1-9v-7h-4l2 17ZM360 173h1c0-5.163 2-10.237 2-16h-3v16Z"/><path fill="#009B75" id="GU2/3" d="m361 173 12 6c0-5.934 3-12.112 3-18v-1c-4.553 0-8.75-3-13-3 0 5.763-2 10.837-2 16Z"/><path fill="#99D2BD" id="OLF" d="m202 198 6.5 6c3.673 1.837 16.5 6.046 16.5-1h-10.5c-9.158-4.579-9.5-18.723-9.5-27-7.294 0-6-13.52-6-18h-1c0 6.163-7 10.063-7 17l4 11c0 1.427 5.867 12 7 12Z"/><path fill="#019C75" id="GU5" d="m357 171 3 2v-15h-1l-2 13Z"/><path fill="#009C75" id="GU1" d="M83 179c0 1.473-1.952 1-3 1l-4-19 5-1c0 7.074 2 12.218 2 19Z"/><path fill="#99D2BD" id="OLF" d="m253 200-3.5 3c-2.511 1.256-18.5 8.273-18.5 0h10.5c8.896-4.448 10.5-17.711 10.5-27l5-5.5 1-10.5c3.305 0 7 10.319 7 13 0 5.521-4 9.134-4 14l-6 11-1 1-1 1Z"/><path fill="#009C75" id="GU1" d="m373 179 3 2c1.951 0 .477-2.454 1-3.5 2.195-4.39 3-11.33 3-16.5h-4c0 5.888-3 12.066-3 18Z"/><path fill="#219665" id="AIv6b" d="M148 166h1v-1l-1-3-2 2v1l2 1ZM311 165l-3 1-1-1 2-3 2 2v1Z"/><path fill="#019C75" id="GU5" d="M99 171c0 1.577-1.762 2-3 2l1-9c3.136 0 2 4.471 2 7Z"/><path fill="#209665" id="AId5" d="M132 180c0 5.861-24.105 17-29 17-3.143 0-7-19.309-7-23v-1c1.238 0 3-.423 3-2l20-7c0 5.133 3.313 9.813 7 13.5 1.027 1.027 6 1.305 6 2.5ZM353 197h1l3-4.5c2.606-5.211 3-13.302 3-19.5l-3-2c-6.64 0-12.677-7-19-7 0 7.06-6.717 15-14 15v1l7.5 7c6.025 3.012 13.406 10 21.5 10Z"/><path fill="#8ADA86" id="CLA" d="m151 181-2 1c-1.606 0-4.339 2.081-6.5 1l-8.5-3-1-1c-7.589 0-2.365-12.067 1.5-14 3.292-1.646 5.883 2 8.5 2l5 4 2.5 2c5.345 2.672.5 4.501.5 8Z"/><path fill="#1F9866" id="AIv6a" d="m143 167 5 4v-5l-2-1-3 2Z"/><path fill="#248A5C" id="ORBl6b" d="M149 166h1l-1-1v1Z"/><path fill="#C8CBCC" id="ec" d="m168 177-3 2 1-3.5c-1.62-3.24-11-.701-11-5.5 0-2.235 9.804-5 12-5l4 6.5-2 4.5-1 1ZM287 175l6 6c0-1.984-3.278-3.945-2-6.5 1.126-2.251 11 .143 11-4.5 0-1.656-10.007-5-12-5-4.309 0-3 8.143-3 10Z"/><path fill="#248A5C" id="ORBl6b" d="M307 166h1l-1-1v1Z"/><path fill="#1F9866" id="AIv6a" d="M313 167c0 1.712-2.571 3-4 3l-1-4 3-1 2 2Z"/><path fill="#8ADA86" id="CLA" d="m305 181 2 1 6.5 1 9.5-3 1-1 3-2.5c.798-1.596.072-5.928-1-7-7.687-7.687-4.13-2.5-13-2.5 0 1.712-2.571 3-4 3l-6 5.5 2 5.5Z"/><path fill="#24895D" id="ORBl6a" d="m154 187 3 1c0-2.332 7-4.774 7-8l1-1 1-3.5c-1.62-3.24-11-.701-11-5.5l-2-2-3-2h-2v5l2.5 2c5.345 2.672.5 4.501.5 8l1 2h1c1.186 0 1.186 1 0 1v1l1 2ZM303 187l-3 1c-1.705 0-7-5.38-7-7 0-1.984-3.278-3.945-2-6.5 1.126-2.251 11 .143 11-4.5l1-1 4-3h1l1 4-6 5.5 2 5.5-1 2-1 1v3Z"/><path fill="#97D6F9" id="STR" d="M261 187c11.102 0 19.383 4.941 29.5 10 2.138 1.069 3.921 11 5.5 11 0-8.071-5-14.698-5-22-8.427 0-20 1.529-20-11-2.549 0-1.479 7-2.5 7-2.088 0-1.177-9-3.5-9 0 5.521-4 9.134-4 14Z"/><path fill="#209765" id="AId2/3" d="M364 201h1l8-22-12-6h-1c0 6.198-.394 14.289-3 19.5l-3 4.5c0 .567 8.99 4 10 4ZM92 201h1c2.844 0 6.269-3 10-3v-1c-3.143 0-7-19.309-7-23h-1c-1.714 0-11 3.898-11 5 0 7.051 8 16.331 8 22Z"/><path fill="#61D09F" id="TTd" d="M225 203h1l1-1v-2c0-2.082 2-4.219 2-1v2l1 1 1 1h10.5c8.896-4.448 10.5-17.711 10.5-27l-2.5-2c-4.185-2.092-28.084 3.958-36 0-1.711-.856-8.5-.36-8.5 2 0 8.277.342 22.421 9.5 27H225Z"/><path fill="#97D6F9" id="STR" d="M195 186c-9.041 0-18.84 5.17-26.5 9-2.825 1.412-6.797 11-7.5 11-2.167 0-.969-4.562 0-6.5 1.952-3.903 4-8.892 4-13.5 4.579 0 11.724 1.388 16.5-1l4.5-9c2.029 0-.042 6.271 2.5 5 1.491-.746-.149-6 2.5-6l4 11Z"/><path fill="#99D2BD" id="OLF" d="m304 249-3 1c0-1.535-8.221-5-10-5 0-4.359-2.496-20-6-20 0-2.901 4-5.023 4-10 4.187 0 7-2.591 7-7 0-8.071-5-14.698-5-22 0-4.653-4-7.282-4-11l6 6c0 1.62 5.295 7 7 7 0 1.811 3.438 4 5 4 0 3.868 21 14.646 21 15-3.546 0-5.464 4-7 4 0-6.689-11.001-16.75-18.5-13-3.151 1.575-.339 5.178-1.5 7.5-2.664 5.328-10.849 18.825-3.5 22.5l9.5-4c0 .435-8.781 9.063-10 11.5-2.602 5.204 9 9.437 9 13.5ZM169 176l-1 1 1-1Z"/><path fill="#99D2BD" id="OLF" fill-rule="evenodd" d="m149 198-3 1.5-8 8c-3.463 6.927 20.473 22.014 23.5 20.5 6.656-3.328-.901-16.303-3.5-21.5-1.353-2.707 1.213-6.643-2.5-8.5H149m3 51 4 1c0-1.681 7.278-5 9-5 0-5.808 2.691-20 7-20 0-2.274-5-4.603-5-10-5.583 0-6-4.48-6-9-2.167 0-.969-4.562 0-6.5 1.952-3.903 4-8.892 4-13.5 0-3.647 3-5.609 3-9l-3 2-1 1c0 3.226-7 5.668-7 8l-6 5c-3.218 0-8.452 7.476-11.5 9l-8.5 5c5.967 0 5.312 5.812 8.5 9 6.591 6.591 16.989 9.479 21.5 18.5 3.18 6.361-9 11.794-9 14.5Z"/><path fill="#209764" id="AId1" d="m92 201-4 1c0-5.592-8-14.669-8-22 1.048 0 3 .473 3-1h1c0 7.051 8 16.331 8 22Z"/><path fill="#1F9866" id="AIv6a" d="M133 180h1l-1-1v1Z"/><path fill="#C8CBCC" id="ec" d="m165 179-1 1 1-1Z"/><path fill="#209666" id="AId6a" d="M323 180h1v-1l-1 1Z"/><path fill="#209764" id="AId1" d="m365 201 3 1c1.922 0 8-17.878 8-21l-3-2-8 22Z"/><path fill="#1F9865" id="AIv5" d="M128 207h3l8.5-5c3.048-1.524 8.282-9 11.5-9 0-2.447 2-3.28 2-6v-4h-1l-3-1c-1.606 0-4.339 2.081-6.5 1l-8.5-3h-2c0 5.861-24.105 17-29 17v1l6.5 5c3.297 1.649 18.5-2.203 18.5 4ZM326 207h3c0-6.282 24-1.002 24-10-8.094 0-15.475-6.988-21.5-10l-7.5-7h-1l-9.5 3-6.5-1-3 1v1l-1 1v2l2 5c0 3.868 21 14.646 21 15Z"/><path fill="#1F9866" id="AIv6a" d="m149 182 3 1-1-2-2 1ZM307 182l-3 1 1-2 2 1ZM153 183c1.186 0 1.186 1 0 1v-1ZM303 184h1v-1l-1 1Z"/><path fill="#228A5D" id="ORBl5" d="m304 184-1 1v-1h1ZM153 187h1l-1-2v2Z"/><path fill="#80CDF8" id="ACB" d="M213 233v10.5c-6.467 12.933-23.556 17.972-36.5 11.5l-9-6-2.5-4c0-5.808 2.691-20 7-20l3.5 1c5.663-2.831 5.598-14.201 0-17-2.093-1.047-8.5 3.859-8.5 6-5.583 0-6-4.48-6-9 .703 0 4.675-9.588 7.5-11 7.66-3.83 17.459-9 26.5-9 0 1.427 5.867 12 7 12l3 5.5c1.898 3.796 8 25.345 8 29.5ZM244 233c0 2.231-2.386 6.728-1 9.5 3.711 7.422 16.117 19.192 25.5 14.5h7c3.876-1.938 15.5-5.994 15.5-12 0-4.359-2.496-20-6-20-2.392 0-1.701 2.399-4.5 1-5.348-2.674-6.544-20.772 5-15 .865.433 3.5 2.479 3.5 4 4.187 0 7-2.591 7-7-1.579 0-3.362-9.931-5.5-11-10.117-5.059-18.398-10-29.5-10l-6 11-1 1-1 1c0 2.029-1.191 1.881-2 3.5v5c-3.571 7.143-7 15.97-7 24.5Z"/><path fill="#1F9866" id="AIv6a" d="m157 188-6 5c0-2.447 2-3.28 2-6h1l3 1ZM300 188c0 1.811 3.438 4 5 4l-2-5-3 1Z"/><path fill="#99D2BD" id="OLF" d="m229 199-2 1c0-2.082 2-4.219 2-1Z"/><path fill="#219764" id="AIv2/3" d="M329 207c4.387 0 16.219 7 24 7 0-.937 11-9.072 11-13-1.01 0-10-3.433-10-4h-1c0 8.998-24 3.718-24 10ZM128 207c-5.67 0-16.414 7-24 7-2.469 0-11-10.254-11-13 2.844 0 6.269-3 10-3l6.5 5c3.297 1.649 18.5-2.203 18.5 4Z"/><path fill="#A0EE9C" id="EPd" d="m149 198-3 1.5-8 8c-3.463 6.927 20.473 22.014 23.5 20.5 6.656-3.328-.901-16.303-3.5-21.5-1.353-2.707 1.213-6.643-2.5-8.5H149Z"/><path fill="#97D6F9" id="STR" d="M222 254c1.665 0 1-4.222 1-5.5l3-14c.408-.815 1.219-4.141 2.5-3.5 2.64 1.32 3.823 17.146 5.5 20.5.574 1.147-1.064 4.5 1 4.5 0-3.618 2-6.154 2-9-1.156 0-1.472-2.555-1-3.5 1.696-3.393 4.19-10.5 8-10.5 0-8.53 3.429-17.357 7-24.5v-5c.809-1.619 2-1.471 2-3.5l-3.5 3c-2.511 1.256-18.5 8.273-18.5 0l-1-1-1-1v-2l-2 1v2l-1 1h-1c0 7.046-12.827 2.837-16.5 1l-6.5-6 3 5.5c1.898 3.796 8 25.345 8 29.5 2.155 0 11.365 15 6 15 0 1.349 3 3.085 3 6ZM255 198l-1 1 1-1Z"/><path fill="#A0EE9C" id="EPd" d="M306 223h1l1-1 1-1h1l1-1 2-1 1-1 1-1 2-2c0-1.238.423-3 2-3v-1c0-6.689-11.001-16.75-18.5-13-3.151 1.575-.339 5.178-1.5 7.5-2.664 5.328-10.849 18.825-3.5 22.5l9.5-4 1-1Z"/><path fill="#97D6F9" id="STR" d="m254 199-1 1 1-1Z"/><path fill="#209864" id="AIv1" d="M104 214c0 .675-5.294 2-6 2-1.752 0-10-11.998-10-14l4-1h1c0 2.746 8.531 13 11 13Z"/><path fill="#99D2BD" id="OLF" d="m229 201 1 1-1-1Z"/><path fill="#209864" id="AIv1" d="M353 214c0 .675 5.294 2 6 2 0-4.254 9-8.628 9-14l-3-1h-1c0 3.928-11 12.063-11 13Z"/><path fill="#99D2BD" id="OLF" d="m227 202-1 1 1-1Z"/><path fill="#6ACAB9" id="PIR" d="M139 254h3l8-4 1-1h1c0-2.706 12.18-8.139 9-14.5-4.511-9.021-14.909-11.909-21.5-18.5-3.188-3.188-2.533-9-8.5-9h-3c-5.67 0-16.414 7-24 7 0 .675-5.294 2-6 2 0 6.039 12.07 25 19 25 2.876 0 22 7.895 22 13ZM315 254h2c0-3.389 17.627-13 22-13 6.42 0 20-19.398 20-25-.706 0-6-1.325-6-2-7.781 0-19.613-7-24-7h-3c-3.546 0-5.464 4-7 4v1c0 1.238-.423 3-2 3 0 1.747-.253 2-2 2l-1 1-1 1-2 1-1 1h-1l-1 1-1 1h-1l-1 1c0 .435-8.781 9.063-10 11.5-2.602 5.204 9 9.437 9 13.5 3.767 0 7.535 5 11 5Z"/><path fill="#CBCBC7" id="aco" d="M167 215c0 5.397 5 7.726 5 10l3.5 1c5.663-2.831 5.598-14.201 0-17-2.093-1.047-8.5 3.859-8.5 6ZM289 215c0 4.977-4 7.099-4 10-2.392 0-1.701 2.399-4.5 1-5.348-2.674-6.544-20.772 5-15 .865.433 3.5 2.479 3.5 4Z"/><path fill="#99D2BD" id="OLF" d="M319 212c-1.577 0-2 1.762-2 3 1.577 0 2-1.762 2-3ZM317 215l-2 2c1.747 0 2-.253 2-2ZM315 217l-1 1 1-1ZM314 218l-1 1 1-1ZM313 219l-2 1 2-1ZM311 220l-1 1 1-1ZM309 221l-1 1 1-1ZM308 222l-1 1 1-1ZM306 223l-1 1 1-1Z"/><path fill="#A2B1D7" id="SI" d="M219 248c0-3.205-5.48 5.461-6 6.5l-12.5 8.5c-11.321 5.66-24.329-1.164-34-6l-10.5-7c0-1.681 7.278-5 9-5l2.5 4 9 6c12.944 6.472 30.033 1.433 36.5-11.5V233c2.155 0 11.365 15 6 15ZM237 247c5.108 0 5.314 8.407 10.5 11l14 7c7.263 3.632 24.355-6.178 30-9l9.5-6c0-1.535-8.221-5-10-5 0 6.006-11.624 10.062-15.5 12h-7c-9.383 4.692-21.789-7.078-25.5-14.5-1.386-2.772 1-7.269 1-9.5-3.81 0-6.304 7.107-8 10.5-.472.945-.156 3.5 1 3.5Z"/><path fill="#CAC8C7" id="lot" d="m140 258-1 1c-3.674 0-22-14.331-22-18 2.876 0 22 7.895 22 13l1 2v2ZM316 258l1 1c3.662 0 22-13.333 22-18-4.373 0-22 9.611-22 13l-1 1v3Z"/><path fill="#7FCCF7" id="OT" d="m218 266-1 1c0 5.542-7.561 9.031-11.5 11l-7 4-34-1-8-5c-2.92-1.46-13.5-7.94-13.5-12l-3-6v-2l2-2 8-4 1-1h1l4 1 10.5 7c9.671 4.836 22.679 11.66 34 6l12.5-8.5c.52-1.039 6-9.705 6-6.5 0 1.349 3 3.085 3 6v1l-1 2v2l-1 2v1l-1 1-1 3ZM239 268l1 1c0 3.438 6.984 6.742 9.5 8 3.159 1.579 5.921 3.461 9 5 2.308 1.154 8.163-.082 10-1h23l9-5 9.5-7.5 3-3.5 1-2 1-1c0-1.048-.473-3 1-3v-4l-1-1c-3.465 0-7.233-5-11-5l-3 1-9.5 6c-5.645 2.822-22.737 12.632-30 9l-14-7c-5.186-2.593-5.392-11-10.5-11 0 2.846-2 5.382-2 9v2l1 2v1l1 1v1l1 1v1l1 1v2Z"/><path fill="#99D2BD" id="OLF" d="m151 249-1 1 1-1ZM142 254l-2 2-1-2h3ZM317 254l-1 1-1-1h2Z"/><path fill="#97D6F9" id="STR" d="m222 255-1 2 1-2Z"/><path fill="#99D2BD" id="OLF" d="m139 259 1 1v-2l-1 1Z"/><path fill="#97D6F9" id="STR" d="m140 260 3 4-3-6v2ZM235 258l1 2-1-2Z"/><path fill="#99D2BD" id="OLF" d="m317 259-1 2v-3l1 1Z"/><path fill="#97D6F9" id="STR" d="m221 259-1 2 1-2ZM316 261l-1 1c0-1.048-.473-3 1-3v2ZM236 261l1 1-1-1ZM220 262l-1 1 1-1ZM315 262l-1 1 1-1ZM237 263l1 1-1-1ZM314 263l-1 2 1-2ZM238 265l1 1-1-1ZM218 266l-1 1 1-1ZM239 268l1 1-1-1Z"/></svg>