<svg xmlns="http://www.w3.org/2000/svg" viewBox="0 0 456 320"><path fill="#9AD1BD" id="MOB" d="M146 144c0 5.909 1 11.579 1 17 1.845 0 1.441 3.381 2 4.5l5 10 9 19v6c4.653 9.306-1.709 24.395 10.5 30.5 5.757 2.878 11.31 6.155 17 9 9.17 4.585 19.154-4.809 22.5-11.5 5.226-10.453 8-25.677 8-38v-25c1.54-3.08 5.648-32.704 4-36-2.596-5.192-4.362-10.723-7-16-1.379-2.758-5-3.778-5-6.5h-1l-1-1-6.5-3c-10.996-5.498-40.929 7.358-45.5 16.5-1.974 3.948-8 6.832-8 11.5l-1 1-1 1v2l-1 1v1l-1 1v3l-1 2v1ZM309 160v3l-8 15.5c-2.96 5.919-5.068 12.136-8 18v7c-4.904 9.808 2.135 22.183-12.5 29.5l-14 7c-9.279 4.639-20.024-4.547-23.5-11.5-8.995-17.989-8-45.096-8-66.5 0-5.012-5.651-27.198-4-30.5 3.042-6.084 4.893-12.786 8-19l5-5.5 7.5-4h7.5c10.584 0 17.864 1.682 26.5 6l6 5c4.217 2.108 13.5 11.155 13.5 16l2 3v1l1 1v1l1 1v2l1 2v1c0 1.048-.473 3 1 3v10c-.672 0-2 4.329-2 5Z"/><path fill="#99D2BD" id="OLF" d="m211 106 1 1-1-1Z"/><path fill="#C7CBCA" id="onl" d="M153 210c0 7.927 6.741 10.982 10 17.5 6.224 12.447 41.212 32.144 54.5 25.5 11.058-5.529 9.5-25.945 9.5-37v-23c0-1.406-.714-7 1-7v-8c-1.684 0-1-4.679-1-6v-19c0-15.644 1.692-23.115-5-36.5-1.429-2.857-4.832-9.5-9-9.5 0 2.722 3.621 3.742 5 6.5 2.638 5.277 4.404 10.808 7 16 1.648 3.296-2.46 32.92-4 36v25c0 12.323-2.774 27.547-8 38-3.346 6.691-13.33 16.085-22.5 11.5-5.69-2.845-11.243-6.122-17-9-12.209-6.105-5.847-21.194-10.5-30.5v-6l-9-19-5-10c-.559-1.119-.155-4.5-2-4.5v11c1.684 0 1 4.679 1 6v2c1.714 0 1 5.594 1 7v3c1.835 0 2 11.76 2 14v1c.672 0 2 4.329 2 5ZM304 210l-1 1c0 18.109-31.605 34.552-44.5 41-3.237 1.619-20.123 2.254-21.5-.5l-6-9c-4.041-8.081-2-21.904-2-31.5v-70c0-9.807 3.444-34 15-34l-5 5.5c-3.107 6.214-4.958 12.916-8 19-1.651 3.302 4 25.488 4 30.5 0 21.404-.995 48.511 8 66.5 3.476 6.953 14.221 16.139 23.5 11.5l14-7c14.635-7.317 7.596-19.692 12.5-29.5v-7c2.932-5.864 5.04-12.081 8-18l8-15.5v14c-1.684 0-1 4.679-1 6v1c-1.751 0-1 7.426-1 9-1.682 0-2 10.912-2 13v1c-1.473 0-1 1.952-1 3Z"/><path fill="#99D2BD" id="OLF" d="M305 130c1.577 0 2 1.762 2 3l-2-3ZM151 131l-1 1 1-1ZM150 132l-1 1 1-1ZM307 134l1 1-1-1ZM149 135l-1 1 1-1ZM308 136l1 1-1-1ZM148 137l-1 1 1-1ZM309 139l1 2-1-2ZM147 141l-1 2 1-2ZM310 142c1.473 0 1 1.952 1 3-1.473 0-1-1.952-1-3ZM147 161v8c-2.064 0-.426-3.353-1-4.5-1.989-3.978-1-10.284-1-15 0-1.278-.665-5.5 1-5.5 0 5.909 1 11.579 1 17ZM311 150c1.566 0 1.566 5 0 5v-5ZM227 153c1.684 0 1 4.679 1 6v19c-1.684 0-1-4.679-1-6v-19ZM309 163v8c1.858 0 2-13.161 2-16-.672 0-2 4.329-2 5 1.486 0 1.486 3 0 3Z"/><path fill="#C7CBCA" id="onl" d="M309 160c1.486 0 1.486 3 0 3v-3Z"/><path fill="#99D2BD" id="OLF" d="M147 172c1.684 0 1 4.679 1 6-1.684 0-1-4.679-1-6ZM309 177c-1.684 0-1 4.679-1 6 1.684 0 1-4.679 1-6ZM148 180c1.714 0 1 5.594 1 7-1.714 0-1-5.594-1-7ZM308 184c-1.751 0-1 7.426-1 9 1.751 0 1-7.426 1-9ZM228 186c-1.714 0-1 5.594-1 7v23c1.714 0 1-5.594 1-7v-23ZM149 190c1.835 0 2 11.76 2 14-2.161 0-2-11.652-2-14ZM307 193c-1.682 0-2 10.912-2 13 1.682 0 2-10.912 2-13ZM151 205c.672 0 2 4.329 2 5-2.461 0-2-3.378-2-5ZM305 207c-1.473 0-1 1.952-1 3 1.473 0 1-1.952 1-3ZM304 210l-1 1 1-1Z"/></svg>