<svg xmlns="http://www.w3.org/2000/svg" viewBox="0 0 456 320"><path fill="#9AD1BD" id="MOB" fill-rule="evenodd" d="M180 130c0 2.836-4 5.321-4 8.5 0 5.64 8.885 15.231 13 7 4.244-8.488.285-15.5-9-15.5m0-6-2 1.5c-1.845 3.69 7.195.348 9.5 1.5.553.276 8.5 4.493 8.5 2.5 0-6.233-11.779-5.5-16-5.5m4 121h2c4.899 0 11.508 2.496 16.5 0 11.278-5.639 11.897-17.294 16.5-26.5 2.108-4.216-.163-10.675 2-15 2.743-5.486-1.799-14.401 1-20l-1-18c1.51-3.021 3.785-32.43 2-36l-6-14-9-8.5h-2l-1-1c-2.582 0-8.141-.821-10.5-2l-3.5 1c-9.507 0-16.722 2.111-24.5 6l-4 4c-2.851 1.425-11.5 8.491-11.5 12l-1 1-1 1v1l-1 1v1l-1 1v1l-1 1v1l-1 2v2l-1 2v2c0 1.321.684 6-1 6v3c1.579 0 1 2.855 1 4v2c1.473 0 1 1.952 1 3v3l1 2v2l1 2v1l1 1c0 4.315 5.104 9.708 7 13.5 3.102 6.204 7 23.305 7 30.5 1.55 0 2.364 6.228 3 7.5 1.325 2.651 10.544 15.5 13 15.5l2 2 2 1 2 2ZM270 130c0 2.543-4 5.103-4 8.5 0 27.352 30.653-8.5 4-8.5m-3-6c0 1.763-7.774 1.952-6 5.5.831 1.663 6.436-1.968 7.5-2.5 2.644-1.322 6.947 1 9 1 6.257 0-3.152-4-5.5-4h-5m4 121h1l1-1h1l1-1 1-1 1-1h1l1-1 6-5.5c2.464-4.928 9-11.823 9-17.5l1-1v-1c0-11.097 4.316-23.131 9-32.5l5-9.5c0-1.048-.473-3 1-3v-1l1-2v-4l1-1v-3c0-1.048-.473-3 1-3v-11l-1-2v-2l-1-2v-2l-2-4v-1l-1-1v-1l-1-1c0-3.158-7.952-10.726-10.5-12l-10-8c-12.853-6.426-22.597-3-35.5-3l-1 1h-2c0 1.577-1.762 2-3 2 0 2.431-5.282 5.064-6 6.5-2.547 5.093-3.481 10.963-6 16-3.041 6.083 2 24.256 2 31 0 27.246-4.259 70.621 21.5 83.5H269l2-1Z"/><path fill="#99D2BD" id="OLF" d="m205 106 1 1-1-1ZM251 106l-1 1 1-1Z"/><path fill="#C7CBCA" id="onl" d="M227 211c0 15.358 2.418 33.664-4 46.5-7.293 14.585-16.991-3.246-23.5-6.5-2.492-1.246-13.5-1.709-13.5-6 4.899 0 11.508 2.496 16.5 0 11.278-5.639 11.897-17.294 16.5-26.5 2.108-4.216-.163-10.675 2-15 2.743-5.486-1.799-14.401 1-20l-1-18c1.51-3.021 3.785-32.43 2-36l-6-14-9-8.5c19.577 0 19 40.107 19 55v49ZM248 107c-1.238 0-3 .423-3 2 1.238 0 3-.423 3-2ZM245 109c-11.036 0-15 24.383-15 33 0 19.292-1 39.605-1 59.5 0 6.902-1.946 18.108 1 24 3.159 6.319-1.818 22.365 3 32 7.068 14.137 18.245-3.373 24.5-6.5 2.063-1.031 11.5-1.717 11.5-5h-12.5c-25.759-12.879-21.5-56.254-21.5-83.5 0-6.744-5.041-24.917-2-31 2.519-5.037 3.453-10.907 6-16 .718-1.436 6-4.069 6-6.5Z"/><path fill="#CACAC9" id="lotd" d="m180 124-2 1.5c-1.845 3.69 7.195.348 9.5 1.5.553.276 8.5 4.493 8.5 2.5 0-6.233-11.779-5.5-16-5.5ZM267 124c0 1.763-7.774 1.952-6 5.5.831 1.663 6.436-1.968 7.5-2.5 2.644-1.322 6.947 1 9 1 6.257 0-3.152-4-5.5-4h-5Z"/><path fill="#99D2BD" id="OLF" d="m151 127-1 1 1-1ZM150 128l-1 1 1-1ZM307 129l1 1-1-1ZM149 130l-1 1 1-1Z"/><path fill="#95E4C8" id="AOBgr" d="M180 130c0 2.836-4 5.321-4 8.5 0 5.64 8.885 15.231 13 7 4.244-8.488.285-15.5-9-15.5ZM270 130c0 2.543-4 5.103-4 8.5 0 27.352 30.653-8.5 4-8.5Z"/><path fill="#99D2BD" id="OLF" d="m308 131 1 1-1-1ZM148 132l-1 1 1-1ZM309 133l2 4-2-4ZM147 134l-1 1 1-1ZM146 136l-1 2 1-2ZM311 139l1 2-1-2ZM145 140l-1 2 1-2ZM312 143l1 2-1-2ZM144 144c-1.684 0-1 4.679-1 6 1.684 0 1-4.679 1-6ZM143 153c1.579 0 1 2.855 1 4-1.579 0-1-2.855-1-4ZM313 156c-1.473 0-1 1.952-1 3 1.473 0 1-1.952 1-3ZM144 159c1.473 0 1 1.952 1 3-1.473 0-1-1.952-1-3ZM227 162c1.751 0 1 7.426 1 9v29.5c0 1.699.769 10.5-1 10.5v-49ZM312 162l-1 1 1-1ZM145 165l1 2-1-2ZM311 167l-1 2 1-2ZM146 169l1 2-1-2ZM310 170c-1.473 0-1 1.952-1 3 1.473 0 1-1.952 1-3ZM147 173h1l-1-1v1Z"/><path fill="#C7CBCA" id="onl" d="M155 207c0 1.608 5.726 10 7 10 0-7.195-3.898-24.296-7-30.5-1.896-3.792-7-9.185-7-13.5h-1v4c1.473 0 1 1.952 1 3v1l1 2v4l1 2v1c1.473 0 1 1.952 1 3v2l1 2v2l1 1v2l1 2v1l1 2ZM300 210c0 1.654-3.74 5-5 5 0-11.097 4.316-23.131 9-32.5l5-9.5v7l-1 2v1l-1 2v4l-1 2c-1.473 0-1 1.952-1 3v3l-1 2v1l-1 2v1l-1 2v1l-1 2v1l-1 1Z"/><path fill="#99D2BD" id="OLF" d="M147 177c1.473 0 1 1.952 1 3-1.473 0-1-1.952-1-3ZM309 180l-1 2 1-2ZM148 181l1 2-1-2ZM308 183l-1 2 1-2ZM149 187l1 2-1-2ZM307 189l-1 2 1-2ZM150 190c1.473 0 1 1.952 1 3-1.473 0-1-1.952-1-3ZM306 191c-1.473 0-1 1.952-1 3 1.473 0 1-1.952 1-3ZM151 195l1 2-1-2ZM305 197l-1 2 1-2ZM152 199l1 1-1-1ZM304 200l-1 2 1-2ZM153 202l1 2-1-2ZM303 203l-1 2 1-2ZM154 205l1 2-1-2ZM302 206l-1 2 1-2ZM301 209l-1 1 1-1Z"/><path fill="#C7CBCA" id="onl" d="m295 216-1 1 1-1ZM178 240l2 2-2-2ZM279 240l-1 1 1-1ZM277 241l-1 1 1-1ZM276 242l-1 1 1-1ZM182 243l2 2-2-2ZM275 243l-1 1 1-1ZM273 244l-1 1 1-1ZM271 245l-2 1 2-1Z"/></svg>