<svg xmlns="http://www.w3.org/2000/svg" viewBox="0 0 456 320"><path fill="#1E9C59" id="MOs1" d="m225 58-4 2c0-3.496-6.005-7.752-8.5-9-8.447-4.224-21.334-7.833-31-3l-9.5 3v-6l3.5-2h6c10.746-5.373 28.344-2.656 36.5 5.5 2.067 2.067 7 6.63 7 9.5ZM231 59l4 1c1.76 0 3.394-4.288 4-5.5l10.5-7.5c9.633-4.817 27.229 4 35.5 4 0-2.124-1-4.436-1-6-2.82 0-9.837-2.669-12.5-4-8.152-4.076-30.819 2.139-34.5 9.5-1.395 2.79-6 5.226-6 8.5Z"/><path fill="#1E9D5A" id="MOp1" d="M115 70c0 1.819-1 4.59-1 7 .563 0 11.842-7.171 13.5-8 9.256-4.628 33.668-17 43.5-17l1-1v-6c-9.609 0-34.23 13.365-43.5 18L115 70ZM342 70c0 2.087 1 4.393 1 7l-13.5-8c-8.948-4.474-35.146-17-44.5-17v-1c0-2.124-1-4.436-1-6 8.114 0 37.219 13.86 45.5 18 3.248 1.624 8.934 7 12.5 7Z"/><path fill="#1E9D58" id="MOs2/3" d="M215 64c-1.423 0-11.939-10.78-19.5-7L171 68V52l1-1 9.5-3c9.666-4.833 22.553-1.224 31 3 2.495 1.248 8.5 5.504 8.5 9v1l-6 3ZM242 65c0-5.892 7.253-5.377 10.5-7 11.475-5.738 27.042 11 33.5 11 0-5.046-1-11.325-1-17v-1c-8.271 0-25.867-8.817-35.5-4L239 54.5c-.606 1.212-2.24 5.5-4 5.5v1c1.334 0 6 2.972 6 4h1Z"/><path fill="#1F9C58" id="MOp2/3" d="m172 51-1 1 1-1ZM113 94v7c4.85 0 9.294-7.897 13.5-10 8.6-4.3 36.615-22 44.5-22V52c-9.832 0-34.244 12.372-43.5 17-1.658.829-12.937 8-13.5 8h-1v17ZM343 93v8c-4.02 0-9.262-7.88-13.5-10-8.205-4.103-36.177-22-43.5-22 0-5.046-1-11.325-1-17 9.354 0 35.552 12.526 44.5 17l13.5 8c0 4.859 1 6.887 1 11l-1 5Z"/><path fill="#1F9D58" id="MOs5" d="M199 79h1c0-1.21 13.993-14 15-14v-1c-1.423 0-11.939-10.78-19.5-7L171 68v1c0 5.404-2 11.996-2 19 4.079 0 16.162-8.83 20.5-11 3.503-1.752 6.921 2 9.5 2ZM257 79c2.579 0 5.997-3.752 9.5-2 3.815 1.908 17.294 11 20.5 11l-1-19c-6.458 0-22.025-16.738-33.5-11-3.247 1.623-10.5 1.108-10.5 7l3.5 3L257 79Z"/><path fill="#3EA665" id="ACAd1" d="M223 91h11c0-9.97 1-20.677 1-30v-1l-4-1c-2.307 0-1.624 4-2.5 4-1.189 0-1.227-5-3.5-5l-4 2v1c0 2.407.906 7.311 2 9.5V91Z"/><path fill="#40A565" id="ACAd2/3" d="M223 91c-2.124 0-4.436 1-6 1V68.5l-2-3.5v-1l6-3c0 2.407.906 7.311 2 9.5V91ZM234 91h5c0-8.967 2-17.605 2-26 0-1.028-4.666-4-6-4 0 9.323-1 20.03-1 30Z"/><path fill="#3EA566" id="ACAd5" d="M217 92c-5.036 0-9.694 7-14 7l-1-15.5-2-4.5c0-1.21 13.993-14 15-14l2 3.5V92ZM239 92c5.36 0 12.117 8 15 8 0-3.499-.464-20 3-20v-1l-11.5-11-3.5-3h-1c0 8.395-2 17.033-2 26v1Z"/><path fill="#1E9C5A" id="MOp5" d="m113 103 2 5c0 1.406-.714 7 1 7l12.5-9c6.975-3.487 33.102-17 39.5-17l1-1c0-7.004 2-13.596 2-19-7.885 0-35.9 17.7-44.5 22-4.206 2.103-8.65 10-13.5 10v2ZM343 102c0 5.029-2 7.474-2 13-5.323 0-9.922-7.711-14.5-10-4.646-2.323-36.621-17-39.5-17l-1-19c7.323 0 35.295 17.897 43.5 22 4.238 2.12 9.48 10 13.5 10v1Z"/><path fill="#197E64" id="SSp-ul1" d="M113 77h1c0-2.41 1-5.181 1-7l-10 5c0 2.72 2 3.553 2 6l6-4ZM343 77l6 3 3-4c0-1.054-8.699-6-10-6 0 2.087 1 4.393 1 7Z"/><path fill="#187E61" id="SSp-m1" d="m64 145 4 1c0-16.221 12.403-40.903 24-52.5 3.018-3.018 10.947-12.5 15-12.5 0-2.447-2-3.28-2-6-2.446 0-14.538 11.038-17 13.5-12.138 12.138-24 39.421-24 56.5ZM393 145l-4 1c-.787 0-2-4.678-2-5.5 0-5.039-1.849-12.697-4-17-5.103-10.207-11.631-27.566-21.5-32.5-4.229-2.115-7.555-10-12.5-10v-1l3-4c4.989 0 13.341 9.84 17 13.5 10.353 10.353 24 40.454 24 55.5Z"/><path fill="#197F61" id="SSp-ul2/3" d="m107 81 6 8V77l-6 4Z"/><path fill="#1D9C5A" id="MOs6a" d="M181 105c-4.688 0-7.44 3-12 3 0-7.634-1-12.017-1-19l1-1c4.079 0 16.162-8.83 20.5-11 3.503-1.752 6.921 2 9.5 2 0 6.172-12 16.365-12 24-.706 0-6 1.325-6 2ZM269 103c6.453 0 11.793 5 18 5V88c-3.206 0-16.685-9.092-20.5-11-3.503-1.752-6.921 2-9.5 2v1c0 1.345 12 16.307 12 23Z"/><path fill="#197F61" id="SSp-ul2/3" d="m349 81-5 7c0-4.113-1-6.141-1-11l6 3v1Z"/><path fill="#3FA664" id="ACAd6a" d="M187 104c1.664 0 6 1.823 6 4 3.951 0 6.345-8 10-8v-1l-1-15.5-2-4.5h-1c0 6.172-12 16.365-12 24v1ZM265 107l-2 1-9-8c0-3.499-.464-20 3-20 0 1.345 12 16.307 12 23v1c-2.061 0-4 .902-4 3Z"/><path fill="#1A7E64" id="SSp-m2/3" d="m78 165-7 2c0-.27.385-11.729 0-12.5l-2-4c0-.425 1.123-3.5-1-3.5v-1c0-16.221 12.403-40.903 24-52.5 3.018-3.018 10.947-12.5 15-12.5l6 8v5c-8.627 0-16.819 12.138-20 18.5-9.612 19.224-15 28.885-15 52.5ZM379 166l7 1 1-3.5-2-1c0-2.974 2.142-15.5 4-15.5v-1c-.787 0-2-4.678-2-5.5 0-5.039-1.849-12.697-4-17-5.103-10.207-11.631-27.566-21.5-32.5-4.229-2.115-7.555-10-12.5-10l-5 7-1 5c5.781 0 17.529 13.557 20 18.5 9.379 18.758 16 30.534 16 53.5v1Z"/><path fill="#1F9B5A" id="MOp6a" d="M341 117c-1.781 0-1.348 6.197-2 7.5-1.377 2.753-3 14.081-3 17l3 9.5-8.5-14-10-10c-2.872-1.436-5.774-4.887-8-6-4.469-2.234-9.591-3.796-14-6-4.34-2.17-6.172-6-11.5-6V88c2.879 0 34.854 14.677 39.5 17 4.578 2.289 9.177 10 14.5 10v2ZM116 116c0 4.001.856 10.212 3 14.5 2.629 5.257 0 12.383 0 16.5 1.988 0 2.408-3.315 3-4.5l7.5-8.5c9.371-9.371 17.442-13.721 28-19 2.337-1.169 3.673-4 6.5-4 0-1.638 3.576-2 5-2v-1c0-7.634-1-12.017-1-19-6.398 0-32.525 13.513-39.5 17l-12.5 9v1Z"/><path fill="#3FA566" id="ACAv2/3" d="M219 133h1l2-6c0-11.222 1-24.273 1-36-2.124 0-4.436 1-6 1v28.5c1.363 2.725 2 9.526 2 12.5Z"/><path fill="#40A664" id="ACAv1" d="M229 123c2.618 0 3.093 4 5 4V91h-11c0 11.727-1 24.778-1 36l5-4c0-3.15 2-3.446 2 0Z"/><path fill="#3FA566" id="ACAv2/3" d="m236 132 2 1c0-13.113 1-27.28 1-41v-1h-5v36l2 5Z"/><path fill="#3EA666" id="ACAv5" d="M210 130c0 3.542 7.619 3 9 3 0-2.974-.637-9.775-2-12.5V92c-5.036 0-9.694 7-14 7v1c0 8.675.427 17.353 4 24.5l3 5.5ZM247 129c0 2.569-9 6.476-9 4 0-13.113 1-27.28 1-41 5.36 0 12.117 8 15 8 0 2.183.117 12.267-1 14.5l-6 14.5Z"/><path fill="#1B7F62" id="SSp-m4" d="m372 164 7 1c0-22.966-6.621-34.742-16-53.5-2.471-4.943-14.219-18.5-20-18.5v9l10.5 11c10.013 5.006 18.5 39.2 18.5 51ZM84 164c-1.564 0-3.876 1-6 1 0-23.615 5.388-33.276 15-52.5 3.181-6.362 11.373-18.5 20-18.5v9c-4.424 0-10.486 9.473-12 12.5l-6 8c-5.196 10.391-11 28.298-11 40.5Z"/><path fill="#40A564" id="ACAv6a" d="m205 126 5 4-3-5.5c-3.573-7.147-4-15.825-4-24.5-3.655 0-6.049 8-10 8v1c2.341 0 1.421 2.342 2 3.5 1.795 3.59 9 8.486 9 12.5l1 1ZM252 126c-1.947 0-2.636 3-5 3l6-14.5c1.117-2.233 1-12.317 1-14.5l9 8v1l-2 2.5c-1.442 2.884-8 9.49-8 12.5l-1 2Z"/><path fill="#1B7E63" id="SSp-m5" d="M357 161c4.313 0 10.153 3 15 3 0-11.8-8.487-45.994-18.5-51L343 102c0 5.029-2 7.474-2 13v2c3.284 0 6.496 6.491 8 9.5 5.837 11.674 8 20.179 8 34.5ZM99 162c-3.82 0-10.083 2-15 2 0-12.202 5.804-30.109 11-40.5l6-8c1.514-3.027 7.576-12.5 12-12.5l2 5c0 1.406-.714 7 1 7v1c-3.108 0-6.042 6.583-7 8.5-7.59 15.179-10 18.901-10 37.5Z"/><path fill="#1E9C58" id="MOs6b" d="M181 105h6v-2c-.706 0-6 1.325-6 2ZM287 108v1c-6.727 0-10.888-4-18-4v-2c6.453 0 11.793 5 18 5Z"/><path fill="#3FA466" id="ACAd6b" d="M193 108v1c-2.33 0-3.227-4-6-4v-1c1.664 0 6 1.823 6 4ZM269 105l-4 2c0-2.098 1.939-3 4-3v1Z"/><path fill="#1E9C58" id="MOs6b" d="M169 108v1c2.366 0 12-1.869 12-4-4.688 0-7.44 3-12 3Z"/><path fill="#CACCC7" id="cing" d="m204 125 1 1c-9.709 0-10.738-13.119-18.5-17-4.962-2.481-10.459 3-14.5 3l-1 1h-2l-1 1h-6l2-3c1.622 0 5 .461 5-2 2.366 0 12-1.869 12-4h6c2.773 0 3.67 4 6 4 0 2.77 7.993 16 11 16ZM253 124l-1 2c9.879 0 9.58-13.04 17.5-17 5.892-2.946 12.495 4 17.5 4l8 1-8-5c-6.727 0-10.888-4-18-4l-4 2-1 2c0 2.823-7.203 15-11 15Z"/><path fill="#3FA466" id="ACAd6b" d="M263 109h1l1-2-2 1v1Z"/><path fill="#1D9D5A" id="MOp6b" d="M169 109c-1.424 0-5 .362-5 2 1.622 0 5 .461 5-2Z"/><path fill="#CCC7C9" id="ccg" d="M335 173h3v-4c0-16.792-9.561-35.031-25.5-43l-20-10-5.5-3c-5.005 0-11.608-6.946-17.5-4-7.92 3.96-7.621 17-17.5 17-1.947 0-2.636 3-5 3 0 2.569-9 6.476-9 4l-2-1c0 1.762-4.32 6.09-6.5 5l-1-4c-1.124 0-.928 5.036-3 4l-5.5-4h-1c-1.381 0-9 .542-9-3l-5-4c-9.709 0-10.738-13.119-18.5-17-4.962-2.481-10.459 3-14.5 3l-1 1h-2l-1 1c0 1.55-6.228 2.364-7.5 3l-21 12c-6.718 3.359-14.563 14.625-17.5 20.5-.694 1.389-1.384 8.5-3 8.5v1c0 1.49.735 8-1 8v3l1 3h2c0-18.895 5.9-33.2 23.5-42 2.329-1.165 5.706-.853 8-2 3.747-1.874 15.205-5.397 20-3 4.405 2.202 9.518 2.759 14 5l6.5 6c5.486 0 16 10.484 16 16l4.5 2h10l3.5 2 2-1 18-2c0-1.048-.473-3 1-3 0-5.535 11.005-14 16-14l1-1c0-8.226 29.391-12.054 35.5-9 25.821 12.91 34.5 14.243 34.5 46Z"/><path fill="#40A465" id="ACAv6b" d="M193 109c2.341 0 1.421 2.342 2 3.5 1.795 3.59 9 8.486 9 12.5-3.007 0-11-13.23-11-16ZM264 109c0 2.823-7.203 15-11 15 0-3.01 6.558-9.616 8-12.5l2-2.5h1Z"/><path fill="#1D9D5A" id="MOp6b" d="M338 158h1v-7l-8.5-14-10-10c-2.872-1.436-5.774-4.887-8-6-4.469-2.234-9.591-3.796-14-6-4.34-2.17-6.172-6-11.5-6l8 5 4.5 3 7 2c12.627 6.314 31.5 24.459 31.5 39ZM118 159h1v-1c0-17.801 19.396-31.948 33.5-39 2.576-1.288 6.629-5 9.5-5l2-3c-2.827 0-4.163 2.831-6.5 4-10.558 5.279-18.629 9.629-28 19l-7.5 8.5c-.592 1.185-1.012 4.5-3 4.5 0 1.048.473 3-1 3v1l-1 1v1c1.186 0 1.186 1 0 1v4l1 1Z"/><path fill="#C9C9CA" id="scwm" d="m172 112-1 1 1-1ZM169 113l-1 1 1-1ZM338 169h1l-1-11c0-14.541-18.873-32.686-31.5-39l-7-2-4.5-3-8-1 5.5 3 20 10c15.939 7.969 25.5 26.208 25.5 43ZM168 114c0 1.55-6.228 2.364-7.5 3l-21 12c-6.718 3.359-14.563 14.625-17.5 20.5-.694 1.389-1.384 8.5-3 8.5 0-17.801 19.396-31.948 33.5-39 2.576-1.288 6.629-5 9.5-5h6Z"/><path fill="#187D61" id="SSp-m6a" d="M117 158c-5.794 0-12.426 4-18 4 0-18.599 2.41-22.321 10-37.5.958-1.917 3.892-8.5 7-8.5 0 4.001.856 10.212 3 14.5 2.629 5.257 0 12.383 0 16.5-1.473 0-1 1.952-1 3v1l-1 1v6ZM340 158c5.77 0 10.639 3 17 3 0-14.321-2.163-22.826-8-34.5-1.504-3.009-4.716-9.5-8-9.5-1.781 0-1.348 6.197-2 7.5-1.377 2.753-3 14.081-3 17l3 9.5v4c1.473 0 1 1.952 1 3Z"/><path fill="#7ED04B" id="IG" d="M236 132c0 1.762-4.32 6.09-6.5 5l-1-4c-1.124 0-.928 5.036-3 4l-5.5-4 2-6 5-4c1.2 0 2 3.746 2 0 2.618 0 3.093 4 5 4l2 5Z"/><path fill="#98D5F9" id="CP" d="M143 233h3c3.245 0 6.951 1.774 10.5 0 5.315-2.658 6.329-11.157 8.5-15.5 3.682-7.364 18.791-21.5 27-21.5l1-1c0-5.173 1.763-20.026 4-24.5 2.432-4.864-1-22.243-1-27.5l-3-6-6.5-6c-4.482-2.241-9.595-2.798-14-5-4.795-2.397-16.253 1.126-20 3-2.294 1.147-5.671.835-8 2-17.6 8.8-23.5 23.105-23.5 42 0 10.546 8 20.825 8 32 0 5.699 4 10.755 4 16 1.727 0 3.372 5.244 4 6.5l6 5.5ZM310 233h3l1-1c4.998 0 5.21-10 9-10 0-1.465-.109-4 2-4 0-4.798 3-8.478 3-13 0-11.646 7-21.049 7-32 0-31.757-8.679-33.09-34.5-46-6.109-3.054-35.5.774-35.5 9l-1 1-3 5c0 6.585-5.681 20.139-2 27.5 3.272 6.544 4 17.867 4 25.5l6.5 4c11.779 5.89 16.077 7.654 22.5 20.5 1.877 3.754 3.883 11.692 7.5 13.5 3.549 1.774 7.255 0 10.5 0Z"/><path fill="#AAA8A9" id="SEZ" d="m265 136-1 1 1-1ZM209 154l-2 1c0-6.504-11-17.926-11-12l-3-6c5.486 0 16 10.484 16 16v1ZM256 169l3 4c0-9.665-15.219-17.281-5.5-27 3.175-3.175 4.161-4 7.5-4l3-5c-4.995 0-16 8.465-16 14 0 7.191 8 11.547 8 18Z"/><path fill="#A8AAAA" id="VL" d="M193 195v1l2-2 1-4v-10c0-1.048-.473-3 1-3v-3l1-2 1-2c0-1.465-.109-4 2-4 0-2.027 3.744-11 6-11 0-6.504-11-17.926-11-12 0 5.257 3.432 22.636 1 27.5-2.237 4.474-4 19.327-4 24.5ZM261 194l2 1c0-7.633-.728-18.956-4-25.5-3.681-7.361 2-20.915 2-27.5-3.339 0-4.325.825-7.5 4-9.719 9.719 5.5 17.335 5.5 27v1c1.473 0 1 1.952 1 3v14l1 3Z"/><path fill="#1A7E62" id="SSs1" d="m68 168-4 1c-2.91 0-1-15.921-1-18 0-1.321-.684-6 1-6l4 1v22ZM388 168l5 1v-24l-4 1v1c0 6.967-1 14.681-1 21Z"/><path fill="#1B8063" id="SSs2/3" d="m71 167-3 1v-21c2.123 0 1 3.075 1 3.5l2 4c.385.771 0 12.23 0 12.5Z"/><path fill="#1F9B5A" id="MOp6a" d="M119 147c-1.473 0-1 1.952-1 3 1.473 0 1-1.952 1-3Z"/><path fill="#1B8063" id="SSs2/3" d="m386 167 2 1c0-6.319 1-14.033 1-21-1.858 0-4 12.526-4 15.5l2 1-1 3.5Z"/><path fill="#1F9B5A" id="MOp6a" d="m118 151-1 1 1-1Z"/><path fill="#97D6F9" id="STR" d="M232 204c-1.617 0-1.196-9-3.5-9-3.453 0-2.519 11-4.5 11 0-9.507 5.625-31.938-4.5-37-5.168-2.584-13.476 0-18.5 0v-3c2.256 0 6-8.973 6-11l2-1c0 4.601 5.863 3 8 3 0 7.506 4.793 17.914 10 7.5 1.081-2.161-1-4.894-1-6.5l1-1 2-1 1 2c0 8.842 2.988 18.524 10 4.5l-1-5.5c2.807 0 8 1.806 8-3 0-1.048-.473-3 1-3 0 7.191 8 11.547 8 18-2.458 0-14.6-1.95-16.5-1-12.405 6.203-7.5 23.807-7.5 36Z"/><path fill="#188064" id="SSp-m6b" d="M117 153c1.186 0 1.186 1 0 1v-1Z"/><path fill="#CAC7CC" id="fa" d="m227 157-1 1c-2.389 0-5.987-1-9-1-2.137 0-8 1.601-8-3v-1l4.5 2h10l3.5 2ZM239 157c-3.013 0-6.611 1-9 1l-1-2 18-2c0 4.806-5.193 3-8 3Z"/><path fill="#AAA8A9" id="SEZ" d="M207 155c-2.256 0-6 8.973-6 11 2.256 0 6-8.973 6-11Z"/><path fill="#188064" id="SSp-m6b" d="M339 158h1c0-1.048.473-3-1-3v3Z"/><path fill="#8FCAED" id="SH" d="M217 157c3.013 0 6.611 1 9 1 0 1.606 2.081 4.339 1 6.5-5.207 10.414-10 .006-10-7.5ZM239 157c-3.013 0-6.611 1-9 1 0 8.842 2.988 18.524 10 4.5l-1-5.5Z"/><path fill="#009B74" id="GU6a" d="M116 171c-5.731 0-10.121 6-16 6 0-4.425-1-9.961-1-15 5.574 0 12.206-4 18-4 0 4.077-1 8.431-1 13Z"/><path fill="#019C74" id="GU6b" d="M116 171h1l1-1v-11l-1-1c0 4.077-1 8.431-1 13ZM339 170l1 1v-13h-2l1 11v1Z"/><path fill="#009B74" id="GU6a" d="M340 171c6.419 0 10.32 6 17 6v-16c-6.361 0-11.23-3-17-3v13Z"/><path fill="#C9C9CA" id="scwm" d="M119 159c0 1.49.735 8-1 8v-8h1Z"/><path fill="#019C75" id="GU5" d="M100 178c-6.153 0-11.147 5-17 5 0-6.525 1-13 1-19 4.917 0 11.18-2 15-2 0 5.039 1 10.575 1 15v1ZM357 178l16 5c0-6.244-1-13.428-1-19-4.847 0-10.687-3-15-3v17Z"/><path fill="#009C74" id="GU4" d="M81 184h2v-1c0-6.525 1-13 1-19-1.564 0-3.876 1-6 1 0 6.61 3 13.083 3 19ZM373 183l2 1c0-3.7 4-13.294 4-18v-1l-7-1c0 5.572 1 12.756 1 19Z"/><path fill="#009B75" id="GU2/3" d="M72 187h1l8-3c0-5.917-3-12.39-3-19l-7 2-3 1 4 19Z"/><path fill="#AAA8A9" id="SEZ" d="m201 169-2 1c0-1.465-.109-4 2-4v3Z"/><path fill="#009B75" id="GU2/3" d="m375 184 9 3c0-6.242 4-12.487 4-19l-2-1-7-1c0 4.706-4 14.3-4 18Z"/><path fill="#009C75" id="GU1" d="m72 187-4 2-4-20 4-1 4 19Z"/><path fill="#90CAED" id="LSr" d="M221 217v2c-1.791 0-2.959 3.27-5.5 2l-2.5-4-2-6-1-1-3-5c11.052 0-5.772-26-10-26v-5l1-2 1-2 2-1c5.024 0 13.332-2.584 18.5 0 10.125 5.062 4.5 27.493 4.5 37l-2 10-1 1ZM235 218l2.5 3c3.269 1.634 3.957-3 5.5-3 0-2.72 2-3.553 2-6l1-1v-1l1-1v-1l1-1 1-1v-1c-9.769 0 5.278-26 11-26v-2c-1.473 0-1-1.952-1-3v-1l-3-4c-2.458 0-14.6-1.95-16.5-1-12.405 6.203-7.5 23.807-7.5 36l3 14Z"/><path fill="#009C75" id="GU1" d="m384 187 4 2 5-20-5-1c0 6.513-4 12.758-4 19Z"/><path fill="#1F9766" id="AId6b" d="M120 184h1c0-3.446-2-6.77-2-11l-1-3-1 1c0 4.374 2 8.563 2 12l1 1Z"/><path fill="#AAA8A9" id="SEZ" d="m199 170-1 2 1-2Z"/><path fill="#1F9766" id="AId6b" d="M336 184h1l1-1 2-12-1-1h-1v3l-2 11Z"/><path fill="#209666" id="AId6a" d="M105 198h1l5-1c0-9.302-2.262-14 8-14 0-3.437-2-7.626-2-12h-1c-5.731 0-10.121 6-16 6v1c0 7.912 5 15.212 5 20ZM345 197l6 1c0-2.669 6-13.393 6-20v-1c-6.68 0-10.581-6-17-6l-2 12c10.756 0 7 5.388 7 14Z"/><path fill="#AAA8A9" id="SEZ" d="m198 172-1 2 1-2Z"/><path fill="#C8CBCC" id="ec" d="M127 205h2c0-11.175-8-21.454-8-32h-2c0 4.23 2 7.554 2 11v2c1.638 0 2 3.576 2 5v1c1.623 0 4 11.314 4 13ZM328 205h2c0-1.753 1.302-12 3-12v-1c0-1.048-.473-3 1-3l1-2v-1l1-2 2-11h-3c0 10.951-7 20.354-7 32Z"/><path fill="#AAA8A9" id="SEZ" d="M259 174c1.473 0 1 1.952 1 3-1.473 0-1-1.952-1-3ZM197 179l-1 1c0-1.048-.473-3 1-3v2Z"/><path fill="#209665" id="AId5" d="M89 202h1c3.606 0 6.972-3 10-3 1.235 0 5 .643 5-1 0-4.788-5-12.088-5-20-6.153 0-11.147 5-17 5v1c0 6.076 6 12.488 6 18ZM351 199c5.919 0 10.432 3 16 3 0-3.578 6-12.126 6-19l-16-5c0 6.607-6 17.331-6 20v1Z"/><path fill="#8FCBED" id="LSv" d="M198 194c2.217 0 9 9.196 9 11 11.052 0-5.772-26-10-26l-1 1v10l2 4ZM250 204l-1 1c-9.769 0 5.278-26 11-26v12l-2 3-1 1-4 5-1 1-1 1-1 2Z"/><path fill="#8ADA86" id="CLA" d="M123 192c0 5.575 2.162 18.331-8.5 13-2.243-1.122-1.34-8-3.5-8 0-9.302-2.262-14 8-14l1 1 1 1v1c0 1.041.986 5 2 5v1ZM333 193c0 4.016-1.763 6.974 0 10.5 3.661 7.322 12-.835 12-6.5 0-8.612 3.756-14-7-14l-1 1-2 2v1l-1 2c0 1.048.473 3-1 3v1Z"/><path fill="#209765" id="AId2/3" d="M377 205h1c0-5.815 6-11.702 6-18l-9-3-2-1c0 6.874-6 15.422-6 19 3.285 0 7.16 3 10 3ZM78 205h1c0-1.3 8.63-3 10-3 0-5.512-6-11.924-6-18h-2l-8 3c0 6.889 5 11.78 5 18Z"/><path fill="#209666" id="AId6a" d="M121 184v1l-1-1h1ZM337 184l-2 2 1-2h1ZM121 186c1.638 0 2 3.576 2 5-1.014 0-2-3.959-2-5Z"/><path fill="#209764" id="AId1" d="m78 205-3 1c-1.845 0-1.44-3.381-2-4.5-1.616-3.232-5-8.861-5-12.5l4-2h1c0 6.889 5 11.78 5 18Z"/><path fill="#209666" id="AId6a" d="m335 187-1 2 1-2Z"/><path fill="#209764" id="AId1" d="m378 205 4 1 6-17-4-2c0 6.298-6 12.185-6 18Z"/><path fill="#209666" id="AId6a" d="M334 189c-1.473 0-1 1.952-1 3 1.473 0 1-1.952 1-3Z"/><path fill="#97D6F9" id="STR" d="M195 194h3l-2-4-1 4ZM258 194h3l-1-3-2 3Z"/><path fill="#1F9866" id="AIv6a" d="m117 209-6 1-5-12 5-1c2.16 0 1.257 6.878 3.5 8 10.662 5.331 8.5-7.425 8.5-13 1.623 0 4 11.314 4 13h-2l-7 3-1 1ZM340 209l5 1 6-11v-1l-6-1c0 5.665-8.339 13.822-12 6.5-1.763-3.526 0-6.484 0-10.5-1.698 0-3 10.247-3 12h2l6 3 1 1h1Z"/><path fill="#80CDF8" id="ACB" fill-rule="evenodd" d="M178 210c0 .253-5.285 7.069-6 8.5-1.683 3.367 4.581 6.96 7.5 5.5 6.346-3.173 7.299-14-1.5-14m35 29-6 9.5c-4.248 8.496-15.573 13.037-22.5 16.5-8.109 4.055-28.897-2.949-35-6-1.722-.861-3.944-9-4.5-9 0-4.95-1-10.767-1-15l2-2c3.245 0 6.951 1.774 10.5 0 5.315-2.658 6.329-11.157 8.5-15.5 3.682-7.364 18.791-21.5 27-21.5h1l2-2h3c2.217 0 9 9.196 9 11l3 5 1 1 2 6v22Z"/><path fill="#97D6F9" id="STR" d="m258 194-1 1 1-1Z"/><path fill="#80CDF8" id="ACB" fill-rule="evenodd" d="M275 210c0 1.349-3 3.085-3 6 0 5.179 8.565 12.371 12 5.5 2.645-5.29-4.41-11.5-9-11.5m-32 28c1.881 0 5.15 8.8 6 10.5 3.789 7.579 15.54 13.02 22.5 16.5h8.5c10.956 0 31-.395 31-15 0-4.875 2-9.599 2-15-1.238 0-3-.423-3-2-3.245 0-6.951 1.774-10.5 0-3.617-1.808-5.623-9.746-7.5-13.5-6.423-12.846-10.721-14.61-22.5-20.5l-6.5-4-2-1h-3l-1 1-4 5-1 1-1 1-1 2-1 1v1l-1 1-1 1v1l-1 1v1l-1 1c0 2.447-2 3.28-2 6v20Z"/><path fill="#97D6F9" id="STR" d="M192 196h1v-1l-1 1Z"/><path fill="#96A7D3" id="MS" d="M221 223h14v-5l-3-14c-1.617 0-1.196-9-3.5-9-3.453 0-2.519 11-4.5 11l-2 10-1 1v6Z"/><path fill="#1F9865" id="AIv5" d="m104 213-6 1c0-5.356-8-9.767-8-12 3.606 0 6.972-3 10-3 1.235 0 5 .643 5-1h1l5 12c0 1.925-7 .787-7 3ZM352 213l6 1c0-5.022 9-9.169 9-12-5.568 0-10.081-3-16-3l-6 11c0 1.925 7 .787 7 3Z"/><path fill="#97D6F9" id="STR" d="m253 200-1 1 1-1ZM252 201l-1 1 1-1Z"/><path fill="#219764" id="AIv2/3" d="m98 214-12 2c-1.384 0-7-9.307-7-11 0-1.3 8.63-3 10-3h1c0 2.233 8 6.644 8 12ZM358 214l13 2c0-3.619 6-6.774 6-11-2.84 0-6.715-3-10-3 0 2.831-9 6.978-9 12Z"/><path fill="#97D6F9" id="STR" d="m250 204-1 1 1-1Z"/><path fill="#209864" id="AIv1" d="M86 216c0 2.496-5-.496-5 2-1.788 0-6-10.062-6-12l3-1h1c0 1.693 5.616 11 7 11Z"/><path fill="#A0EE9C" id="EPd" d="M134 223c0 9.84-9.282 2-13 2l-4-2-3-5.5c-1.329-2.657 3-6.408 3-8.5l1-1 7-3 3 3.5c1.069 2.139 1.829 12.5 5 12.5v1l1 1Z"/><path fill="#8AD987" id="CTXsp" d="M129 205c0 5.699 4 10.755 4 16-3.171 0-3.931-10.361-5-12.5l-3-3.5h4ZM332 205c0 .468-4.286 6.072-5 7.5-.659 1.319.334 5.5-2 5.5 0-4.798 3-8.478 3-13h4Z"/><path fill="#A0EE9C" id="EPd" d="M332 227h1l1-1h1l1-1h1l1-1 1-1 1-1 1-1 1-6.5-2-5.5h-1l-1-1-6-3c0 .468-4.286 6.072-5 7.5-.659 1.319.334 5.5-2 5.5l-2 4c0 8.051 3.528 5 9 5Z"/><path fill="#209864" id="AIv1" d="M371 216c0 1.643 3.765 1 5 1l6-11-4-1h-1c0 4.226-6 7.381-6 11Z"/><path fill="#97D6F9" id="STR" d="m249 206-1 1 1-1ZM248 207l-1 1 1-1Z"/><path fill="#99D2BD" id="OLF" d="m118 208-1 1 1-1ZM338 208l1 1-1-1ZM104 213c8.229 0 8.952 10 13 10l-3-5.5c-1.329-2.657 3-6.408 3-8.5l-6 1c0 1.925-7 .787-7 3Z"/><path fill="#97D6F9" id="STR" d="m247 209-1 1 1-1Z"/><path fill="#99D2BD" id="OLF" d="M352 213c-7.179 0-8.068 8-11 8l1-6.5-2-5.5 5 1c0 1.925 7 .787 7 3Z"/><path fill="#CBCBC7" id="aco" d="M178 210c0 .253-5.285 7.069-6 8.5-1.683 3.367 4.581 6.96 7.5 5.5 6.346-3.173 7.299-14-1.5-14Z"/><path fill="#97D6F9" id="STR" d="m210 210 1 1-1-1Z"/><path fill="#CBCBC7" id="aco" d="M275 210c0 1.349-3 3.085-3 6 0 5.179 8.565 12.371 12 5.5 2.645-5.29-4.41-11.5-9-11.5Z"/><path fill="#97D6F9" id="STR" d="m246 211-1 1 1-1Z"/><path fill="#6ACAB9" id="PIR" d="M125 259h2l9-4c0-5.688 7.73-6.04 2-17.5-2.155-4.309-17-10.306-17-12.5l-4-2c-4.048 0-4.771-10-13-10l-6 1-12 2c0 2.496-5-.496-5 2 0 6.139 17.675 30 23 30 0-2.101 6.451.476 7.5 1 3.599 1.799 13.5 6.264 13.5 10ZM330 259h1c0-3.742 18.505-12 22-12 6.708 0 23-24.113 23-30-1.235 0-5 .643-5-1l-13-2-6-1c-7.179 0-8.068 8-11 8l-1 1-1 1-1 1-1 1h-1l-1 1h-1l-1 1h-1c0 .87-13.157 8.814-15 12.5-4.082 8.164 4 12.091 4 15.5l9 4Z"/><path fill="#97D6F9" id="STR" d="m222 216-1 1 1-1ZM211 256h3c1.325 0 2.43-5.361 3-6.5 3.996-7.993 4-16.814 4-26.5v-4c-1.791 0-2.959 3.27-5.5 2l-2.5-4v22c0 6.265-2 10.944-2 17ZM242 256h3c0-6.311-2-12.035-2-18v-20c-1.543 0-2.231 4.634-5.5 3l-2.5-3v5c0 3.735.836 21.171 2 23.5l5 9.5Z"/><path fill="#8AD987" id="CTXsp" d="M325 218c-2.109 0-2 2.535-2 4l2-4Z"/><path fill="#99D2BD" id="OLF" d="M145 250c0 1.827-7.086 5-9 5 0-5.688 7.73-6.04 2-17.5-2.155-4.309-17-10.306-17-12.5 3.718 0 13 7.84 13-2l-1-1v-1c1.727 0 3.372 5.244 4 6.5l6 5.5 1 2c0 4.233 1 10.05 1 15ZM341 221l-1 1 1-1Z"/><path fill="#8AD987" id="CTXsp" d="m133 222 1 1-1-1Z"/><path fill="#96A6D3" id="NDB" d="m224 260-1 1-4.5 3c-6.328 3.164-4.5-6.117-4.5-8 1.325 0 2.43-5.361 3-6.5 3.996-7.993 4-16.814 4-26.5h14c0 3.735.836 21.171 2 23.5l5 9.5 1 3.5c0 10.733-9.228-.5-12-.5 0-5.613-4.83 0-6 0l-1 1Z"/><path fill="#99D2BD" id="OLF" d="M311 250c3.349 0 5.827 5 10 5 0-3.409-8.082-7.336-4-15.5 1.843-3.686 15-11.63 15-12.5-5.472 0-9 3.051-9-5-3.79 0-4.002 10-9 10l-1 1v2c0 5.401-2 10.125-2 15ZM340 222l-1 1 1-1ZM339 223l-1 1 1-1ZM338 224l-1 1 1-1ZM336 225l-1 1 1-1ZM334 226l-1 1 1-1Z"/><path fill="#97D6F9" id="STR" d="m314 232-1 1 1-1ZM146 233l-2 2-1-2h3ZM313 233v2c-1.238 0-3-.423-3-2h3Z"/><path fill="#A2B1D7" id="SI" d="M245 256c1.03 0 2 13.251 2 15 3.629 0 9.847-4.326 14.5-2 11.04 5.52 43.235 7.029 49.5-5.5l10-8.5c-4.173 0-6.651-5-10-5 0 14.605-20.044 15-31 15h-8.5c-6.96-3.48-18.711-8.921-22.5-16.5-.85-1.7-4.119-10.5-6-10.5 0 5.965 2 11.689 2 18ZM211 256l-2 15c-3.334 0-9.096-4.202-13.5-2-4.921 2.461-27.739 7.13-34 4-3.792-1.896-7.192-4.096-11-6-2.827-1.414-14.5-7.652-14.5-12 1.914 0 9-3.173 9-5 .556 0 2.778 8.139 4.5 9 6.103 3.051 26.891 10.055 35 6 6.927-3.463 18.252-8.004 22.5-16.5l6-9.5c0 6.265-2 10.944-2 17Z"/><path fill="#CAC8C7" id="lot" d="M124 263h1v-4c0-3.736-9.901-8.201-13.5-10-1.049-.524-7.5-3.101-7.5-1 0 1.239 17.247 15 19 15h1ZM332 263h1c2.181 0 20-14.016 20-16-3.495 0-22 8.258-22 12v4h1Z"/><path fill="#7FCCF7" id="OT" d="M209 271v4l-3 6.5c-7.006 14.011-16.514 6.507-24.5 10.5-2.383 1.192-5.725-.137-8 1-14.221 7.111-33.752-1.004-40.5-14.5-1.884-3.768-7-7.044-7-11.5l-1-1v-4l2-3 9-4c0 4.348 11.673 10.586 14.5 12 3.808 1.904 7.208 4.104 11 6 6.261 3.13 29.079-1.539 34-4 4.404-2.202 10.166 2 13.5 2ZM247 271v4l3 5.5c4.329 8.658 10.093 7.796 17.5 11.5h7c2.383 1.192 5.725-.137 8 1 12.288 6.144 32.192 1.116 38.5-11.5 2.493-4.985 10-9.693 10-15.5v-5l-1-2-9-4-10 8.5c-6.265 12.529-38.46 11.02-49.5 5.5-4.653-2.326-10.871 2-14.5 2Z"/><path fill="#8599CC" id="PAL" d="M209 271v4c3.715 0 14-10.19 14-14l-4.5 3c-6.328 3.164-4.5-6.117-4.5-8h-3l-2 15ZM247 271v4c-2.099 0-16-13.882-16-16 2.772 0 12 11.233 12 .5l-1-3.5h3c1.03 0 2 13.251 2 15Z"/><path fill="#99D2BD" id="OLF" d="m127 259-2 3v-3h2Z"/><path fill="#8599CC" id="PAL" d="m225 259-1 1 1-1Z"/><path fill="#99D2BD" id="OLF" d="M331 259v2l-1-2h1Z"/><path fill="#8599CC" id="PAL" d="m224 260-1 1 1-1Z"/><path fill="#99D2BD" id="OLF" d="M124 263v1l-1-1h1Z"/><path fill="#97D6F9" id="STR" d="m124 264 1 1v-2h-1v1ZM332 265l-1 1v-3h1v2Z"/><path fill="#99D2BD" id="OLF" d="m333 263-1 2v-2h1Z"/><path fill="#97D6F9" id="STR" d="m125 266 1 1-1-1Z"/></svg>