<svg xmlns="http://www.w3.org/2000/svg" viewBox="0 0 456 320"><path fill="#99D2BD" id="OLF" d="M172 182c8.916 0 9.982 18.241 15.5 21l11.5 8 6.5-4c16.861-8.431 13.5-30.711 13.5-49.5 0-7.07.941-15.118-2-21-1.287-2.575-3.615-2.557-5.5-3.5-9.56-4.78-19.342.342-26.5 7.5-4.983 4.983-6.265 8.53-9 14-3.82 7.639-4 18.389-4 27.5ZM284 182c-5.78 0-12.764 18.264-17 22.5-1.502 1.502-9 4.359-9 6.5-3.647 0-14.116-6.733-16-10.5-5.26-10.52-8.777-51.446-3-63 5.547-11.094 28.234-5.533 32 2l6 6c1.712 3.425 2.318 7.637 4 11 3.546 7.092 3 17.003 3 25.5Z"/><path fill="#C7CBCA" id="onl" d="M172 182c8.916 0 9.982 18.241 15.5 21l11.5 8c-2.85 0-5.784 5.858-9.5 4-12.274-6.137-17.5-18.332-17.5-33ZM284 182c-5.78 0-12.764 18.264-17 22.5-1.502 1.502-9 4.359-9 6.5l2 1.5c4.912 4.912 12.298.702 16.5-3.5l1.5-5.5 5-6c2.482-4.963 1-10.576 1-15.5Z"/></svg>