<svg xmlns="http://www.w3.org/2000/svg" viewBox="0 0 456 320"><path fill="#9AD1BD" id="MOB" d="M145 145v14.5c1.07 2.14 2 3.887 2 6.5l8 15.5 6 13v5c5.177 10.354-.186 27.157 12.5 33.5l18 9c1.794.897 4.676-.338 6-1h5c5.093-2.547 7.992-6.484 10.5-11.5 5.757-11.513 8-27.322 8-41v-25c1.289-2.578 5.211-30.578 4-33-2.724-5.449-4.237-11.474-7-17-1.304-2.608-5-3.297-5-6.5l-8.5-4c-10.603-5.301-40.575 5.649-45.5 15.5-1.462 2.924-9 7.228-9 11.5l-1 1-1 3-1 1v2l-1 1v1l-1 2v4ZM312 156c-.586 0-3 8.833-3 10l-12 23.5c-5.064 10.127-2.135 25.27-8 37-2.541 5.081-9.356 8.428-13.5 10.5-12.238 6.119-25.14 7.22-32.5-7.5-3.111-6.222-2.928-13.856-6-20-1.54-3.08.595-7.809-1-11-3.143-6.287 2.2-16.6-1-23v-16c-1.65-3.3-4.962-27.077-3-31 2.05-4.099 2.922-8.845 5-13l7-8.5 7.5-4c6.447-3.224 26.644 1.322 32 4 5.097 2.548 14.703 8.907 17.5 14.5l5 7.5 1 1v2l2 2v2l1 1v1l1 1v4l1 2v11Z"/><path fill="#C7CBCA" id="onl" d="M153 210c0 5.772 5.597 8.694 8 13.5 5.411 10.822 18.04 20.27 28.5 25.5 3.211 1.605 7.789 1.395 11 3 1.882.941 15.075 3.962 17 3 11.599-5.799 9.5-27.441 9.5-39v-61c0-17.194 1.296-24.907-6-39.5-1.333-2.665-4.189-8.5-8-8.5 0 3.203 3.696 3.892 5 6.5 2.763 5.526 4.276 11.551 7 17 1.211 2.422-2.711 30.422-4 33v25c0 13.678-2.243 29.487-8 41-2.508 5.016-5.407 8.953-10.5 11.5h-5c-1.324.662-4.206 1.897-6 1l-18-9c-12.686-6.343-7.323-23.146-12.5-33.5v-5l-6-13-8-15.5v12c1.714 0 1 5.594 1 7v1c1.473 0 1 1.952 1 3v5c1.175 0 2 5.704 2 7v4c1.014 0 2 3.959 2 5ZM304 209l-1 1c0 5.599-3.744 6.989-6 11.5-5.948 11.896-19.219 21.86-30.5 27.5-2.943 1.471-7.017 1.509-10 3-3.336 1.668-18.241 5.018-20.5.5l-6-11c-2.673-5.347-1-22.558-1-29.5v-71.5c0-8.738 4.223-33.5 15-33.5l-7 8.5c-2.078 4.155-2.95 8.901-5 13-1.962 3.923 1.35 27.7 3 31v16c3.2 6.4-2.143 16.713 1 23 1.595 3.191-.54 7.92 1 11 3.072 6.144 2.889 13.778 6 20 7.36 14.72 20.262 13.619 32.5 7.5 4.144-2.072 10.959-5.419 13.5-10.5 5.865-11.73 2.936-26.873 8-37l12-23.5c1.473 0 1 1.952 1 3-1.643 0-1 3.765-1 5v10c-1.473 0-1 1.952-1 3v2c-1.579 0-1 2.855-1 4v4l-1 2v1c-1.473 0-1 1.952-1 3v4l-1 2Z"/><path fill="#99D2BD" id="OLF" d="m306 129 1 1-1-1ZM150 130l-1 1 1-1ZM307 132l2 2-2-2ZM148 134l-1 1 1-1ZM309 136l1 1-1-1ZM147 137l-1 1 1-1ZM310 138l1 1-1-1ZM146 139l-1 2 1-2ZM311 143l1 2-1-2ZM147 166v5c-1.951 0-.477-2.454-1-3.5-2.268-4.537-2-11.068-2-16.5 0-1.321-.684-6 1-6v14.5c1.07 2.14 2 3.887 2 6.5ZM312 148c1.602 0 1.602 7 0 7v-7ZM227 155c1.773 0 1 9.259 1 11v37c0 1.908.788 13-1 13v-61ZM309 166c1.473 0 1 1.952 1 3 1.682 0 2-10.912 2-13-.586 0-3 8.833-3 10ZM310 169c-1.643 0-1 3.765-1 5 1.643 0 1-3.765 1-5ZM147 178c1.714 0 1 5.594 1 7-1.714 0-1-5.594-1-7ZM309 184c-1.473 0-1 1.952-1 3 1.473 0 1-1.952 1-3ZM148 186c1.473 0 1 1.952 1 3-1.473 0-1-1.952-1-3ZM308 189c-1.579 0-1 2.855-1 4 1.579 0 1-2.855 1-4ZM149 194c1.175 0 2 5.704 2 7-1.663 0-2-5.407-2-7ZM307 197l-1 2 1-2ZM306 200c-1.473 0-1 1.952-1 3 1.473 0 1-1.952 1-3ZM151 205c1.014 0 2 3.959 2 5-1.638 0-2-3.576-2-5ZM305 207l-1 2 1-2ZM304 209l-1 1 1-1Z"/></svg>