<svg xmlns="http://www.w3.org/2000/svg" viewBox="0 0 456 320"><path fill="#9AD1BD" id="MOB" d="m153 141-1 8c0 16.065 10.284 31.068 17 44.5 4.537 9.074.402 21.805 5 31 5.595 11.191 30.257 17.487 37 4 3.578-7.157 4.786-14.571 8-21 2.239-4.479-.299-11.402 2-16l1-30c.993-1.986 4.768-26.465 4-28-1.813-3.627-1.192-8.383-3-12-1.169-2.337-4-3.673-4-6.5l-2-2c-2.33 0-3.227-4-6-4l-2-1c-9.105 0-18.133-1.184-26.5 3l-10.5 5-1 1h-1c0 1.577-1.762 2-3 2l-10 12.5c-.79 1.58-2.016 9.5-4 9.5ZM303 142l2 8c0 13.979-10.116 26.731-16 38.5-4.173 8.346-1.204 25.407-4 31l-6 9c-4.416 8.832-28.817 10.366-34 0-3.894-7.787-4.39-16.78-8-24-2.778-5.556.829-14.342-2-20-3.511-7.022 2.55-18.9-1-26-1.57-3.139-4.891-26.217-3-30 1.392-2.784 6-9.594 6-12.5 1.577 0 2-1.762 2-3l1-1 1-1 4-2 2-1c9.432 0 18.882-1.309 27.5 3l10.5 5 1 1h1l8 8.5c3.384 3.384 8 11.819 8 16.5Z"/><path fill="#99D2BD" id="OLF" d="M211 108v1l-2-1h2Z"/><path fill="#C7CBCA" id="onl" d="M217 112v1c-2.33 0-3.227-4-6-4v-1c1.664 0 6 1.823 6 4ZM245 109l-4 2c0-2.098 1.939-3 4-3v1Z"/><path fill="#99D2BD" id="OLF" d="m247 108-2 1v-1h2ZM239 112h1v-1l-1 1Z"/><path fill="#C7CBCA" id="onl" d="m241 111-1 1v-1h1Z"/><path fill="#99D2BD" id="OLF" d="M219 115h1l-3-3v1l2 2Z"/><path fill="#C7CBCA" id="onl" d="m240 112-1 1v-1h1Z"/><path fill="#99D2BD" id="OLF" d="M237 115v1c1.577 0 2-1.762 2-3-1.747 0-2 .253-2 2Z"/><path fill="#C7CBCA" id="onl" fill-rule="evenodd" d="m228 170 .5 31 .5-7v-18.5c0-1.278.665-5.5-1-5.5m-72 48 3 6.5c2.037 4.075 7.98 12.24 12.5 14.5 4.731 2.366 30.849 14.075 37 11 12.698-6.349 18.5-17.725 18.5-32 0-1.048-.473-3 1-3l.5-6 .5 15.5c5.643 11.287 5.308 18.904 18.5 25.5 3.975 1.987 11.977-1.489 15-3h4c9.795-4.898 20.832-6.164 26.5-17.5 1.867-3.734 7-6.05 7-10.5 0-9.446 1.121-25.742 5-33.5.662-1.324.353-8.5 2-8.5v-23l-2-4c0 13.979-10.116 26.731-16 38.5-4.173 8.346-1.204 25.407-4 31l-6 9c-4.416 8.832-28.817 10.366-34 0-3.894-7.787-4.39-16.78-8-24-2.778-5.556.829-14.342-2-20-3.511-7.022 2.55-18.9-1-26-1.57-3.139-4.891-26.217-3-30 1.392-2.784 6-9.594 6-12.5v-1h-1l-1 1c0 1.203-4.987 6.474-6 8.5v9.5l-.5 11-.5-8.5c0-4.282-2.381-21.5-8-21.5h-1c0 2.827 2.831 4.163 4 6.5 1.808 3.617 1.187 8.373 3 12 .768 1.535-3.007 26.014-4 28l-1 30c-2.299 4.598.239 11.521-2 16-3.214 6.429-4.422 13.843-8 21-6.743 13.487-31.405 7.191-37-4-4.598-9.195-.463-21.926-5-31-6.716-13.432-17-28.435-17-44.5h-1l-1 2v2c0 1.145.579 4-1 4v18c1.564 0 1.321 8.141 2 9.5 4.66 9.32 5 23.587 5 33.5Z"/><path fill="#99D2BD" id="OLF" d="m236 115-1 1 1-1ZM172 116l-1 1 1-1ZM285 116l1 1-1-1Z"/><path fill="#C7CBCA" id="onl" d="M170 117c-1.238 0-3 .423-3 2 1.238 0 3-.423 3-2ZM304 141l-1 1c0-4.681-4.616-13.116-8-16.5l-8-8.5c1.626 0 8 4.11 8 6l3 3 1 2 2 2v1l1 1v1l1 2v2l1 2v2ZM153 139v2c1.984 0 3.21-7.92 4-9.5l10-12.5c-1.852 0-8 4.927-8 7l-1 1-1 1-1 2-1 1v1l-1 1v1l-1 1v4Z"/><path fill="#99D2BD" id="OLF" d="m295 123 3 3-3-3ZM159 126l-1 1 1-1ZM158 127l-1 1 1-1ZM299 128l2 2-2-2ZM156 130l-1 1 1-1ZM301 131l1 1-1-1ZM155 132l-1 1 1-1ZM302 133l1 2-1-2ZM154 134l-1 1 1-1ZM303 137l1 2-1-2ZM151 149h1l1-8v-2c-2.342 0-2 7.951-2 10ZM305 150l2 4c0-1.838-1.775-13-3-13l-1 1 2 8ZM151 149l-1 2 1-2ZM150 153c-1.579 0-1 2.855-1 4 1.579 0 1-2.855 1-4ZM307 158c1.797 0 1 12.925 1 15 0 1.145.579 4-1 4v-19ZM149 164c-1.613 0-1.613 8 0 8v-8ZM149 175c1.564 0 1.321 8.141 2 9.5 4.66 9.32 5 23.587 5 33.5-2.019 0-2.438-4.938-3.5-6-7.231-7.231-3.5-26.487-3.5-37ZM307 177c-1.647 0-1.338 7.176-2 8.5-3.879 7.758-5 24.054-5 33.5 2.109 0 3.254-6.009 4-7.5l3-2c4.249-8.498 0-23.379 0-32.5ZM228 215c-1.473 0-1 1.952-1 3 1.473 0 1-1.952 1-3Z"/></svg>