<svg xmlns="http://www.w3.org/2000/svg" viewBox="0 0 456 320"><path fill="#99D2BD" id="OLF" d="M176 186c3.714 0 11.524 22 17 22 0-2.535 5.958-2.229 7.5-3l12.5-9.5c2.458-4.916 6.989-40.022 4-46-10.042-20.084-27.316-13.368-36 4-4.552 9.103-5 21.62-5 32.5ZM280 186c-2.929 0-8.143 14.643-10 16.5l-6 5.5-5.5-3c-4.859-2.43-12.417-4.334-15.5-10.5-5.001-10.002-6.077-40.847-1-51 5.718-11.437 23.854-6.292 29 4 2.471 4.943 4.6 10.2 7 15 3.074 6.148 2 16.188 2 23.5Z"/><path fill="#C7CBCA" id="onl" d="M176 186c3.714 0 11.524 22 17 22 0 5.328-8.351 2.798-10-.5-2.386-4.771-5.566-9.132-8-14-1.182-2.364 1-5.696 1-7.5ZM280 186c1.258 0 1.639 7.221 1 8.5-1.291 2.582-17 27.226-17 13.5l6-5.5c1.857-1.857 7.071-16.5 10-16.5Z"/></svg>