<svg xmlns="http://www.w3.org/2000/svg" viewBox="0 0 456 320"><path fill="#1E9C59" id="MOs1" d="M161 134c-1.974 0-3.517 2-6 2l-5-3.5c-1.482-2.964-3.931-12.138-2-16C160.684 91.131 172.552 91 198 91l-1 2c-15.9 0-26.087 2.587-38 14.5-5.824 5.824-3.19 22.5 3 22.5l-1 4ZM296 134c1.624 0 2.75 2 5 2 0-1.8 3.017-.517 4-1.5l4-8c3.174-6.348-2.745-13.489-5-18-8.825-17.65-26.746-17.5-45-17.5v2c18.219 0 33.516 4.533 42 21.5 3.373 6.746-6 12.198-6 15.5l1 4Z"/><path fill="#2FA750" id="PL1" d="m215 109 7 2c0-11.175-13.306-20-24-20l-1 2c3.592 0 18 11.973 18 16ZM241 109c-1.974 0-3.517 2-6 2 0-12.008 13.059-20 24-20v2c-3.96 0-18 14.351-18 16Z"/><path fill="#268F45" id="FRP1" fill-rule="evenodd" d="M180 101c0 .074-11.105 3.29-8 9.5 2.139 4.278 26.887 2.307 30.5.5v-6c-3.533-1.767-7.807-4-12-4H180m9 15c6.438 0 16.405 4 19 4l5.5 2c4.418 2.209 1.5-12.401 1.5-13 0-4.027-14.408-16-18-16-15.9 0-26.087 2.587-38 14.5-5.824 5.824-3.19 22.5 3 22.5 10.284 0 16.578-14 27-14ZM263 101c0 1.978-13.297 1.905-10 8.5 1.189 2.378 25.135 5.182 28.5 3.5 9.692-4.846-2.67-12-8-12H263m-15 19-1 1c-10.785 0-6-1.973-6-12 0-1.649 14.04-16 18-16 18.219 0 33.516 4.533 42 21.5 3.373 6.746-6 12.198-6 15.5-10.768 0-17.06-14-28-14-6.648 0-11.831 3-18 3l-1 1Z"/><path fill="#268E45" id="FRP2/3" d="M180 101c0 .074-11.105 3.29-8 9.5 2.139 4.278 26.887 2.307 30.5.5v-6c-3.533-1.767-7.807-4-12-4H180ZM263 101c0 1.978-13.297 1.905-10 8.5 1.189 2.378 25.135 5.182 28.5 3.5 9.692-4.846-2.67-12-8-12H263Z"/><path fill="#23895D" id="ORBm1" d="M210 128c1.165 0 10 6.424 10 1l3-9.5c1.284-2.568-1-6.486-1-8.5l-7-2c0 .599 2.918 15.209-1.5 13l-5.5-2c0 2.522 2 4.909 2 8ZM247 127l-1 1c-2.574 0-5.357 4.571-8.5 3-1.498-.749.705-4-1.5-4 0-1.282-4.475-16-1-16 2.483 0 4.026-2 6-2 0 10.027-4.785 12 6 12v6Z"/><path fill="#238A5D" id="ORBl1" d="m162 130-1 4c4.312 0 8.147-7 13-7 3.209 0 7.198-3 11-3h3l1-8c-10.422 0-16.716 14-27 14Z"/><path fill="#248A5B" id="ORBvl1" d="m188 124 14.5 1c2.069 1.035 5.13 3 7.5 3 0-3.091-2-5.478-2-8-2.595 0-12.562-4-19-4l-1 8ZM269 124c-8.021 0-14.756 3-22 3v-6l1-1 1-1c6.169 0 11.352-3 18-3 0 3.091 2 5.478 2 8Z"/><path fill="#238A5D" id="ORBl1" d="m295 130 1 4c-4.88 0-9.668-8-15-8l-10-2h-2c0-2.522-2-4.909-2-8 10.94 0 17.232 14 28 14Z"/><path fill="#23895D" id="ORBm1" d="m249 119-1 1 1-1ZM248 120l-1 1 1-1Z"/><path fill="#9DF0D1" id="AOBgl" d="m172 137 9.5 6c3.632 1.816 7.399-3 10.5-3 0-2.69 1-6.675 1-10l-2.5-3-5.5-3c-3.802 0-7.791 3-11 3 0 2.979-2 6.23-2 10Z"/><path fill="#99D2BD" id="OLF" d="M219 141h3l-2-6.5c-.619-1.238 2.688-5.5 0-5.5 0 5.424-8.835-1-10-1-2.37 0-5.431-1.965-7.5-3l-14.5-1h-3l5.5 3 2.5 3c6.43 0 24 .541 24 11 .839 0 2-1.93 2 0ZM239 140c-1.577 0-2-1.729-2 1l-2-1c0-3.823 1-8.586 1-13 2.205 0 .002 3.251 1.5 4 3.143 1.571 5.926-3 8.5-3l1-1c7.244 0 13.979-3 22-3h2l-4 2.5-4 4.5c0-1.527-4.928-2.786-6.5-2-4.228 2.114-17.5 4.088-17.5 11Z"/><path fill="#9DF0D1" id="AOBgl" d="M284 137c-1.502 0-7.757 5.129-9.5 6-3.686 1.843-7.235-3-10.5-3 0-2.389-1-5.987-1-9l4-4.5 4-2.5 10 2 4 6.5-1 4.5Z"/><path fill="#99D2BD" id="OLF" d="M283 218c2.041 0 3 .959 3 3 1.863 0 5.017-12.534 6-14.5 7.008-14.016 13-32.295 13-49 0-3.77-1.327-21.5-4-21.5-2.25 0-3.376-2-5-2-4.88 0-9.668-8-15-8l4 6.5-1 4.5c6.887 0 4 7.938 4 12 1.674 0 2.326-1 4-1l3 2c0-2.903-8.694-11.112-6-16.5 1.487-2.975 6.888 2.888 8 4 2.729 2.729 12.712 25.5 3.5 25.5l-3.5-3c0 12.601-2.903 33.307-8 43.5-1.989 3.978-6 9.922-6 14.5ZM174 218c-3.303 0-3 .959-3 4-1.845 0-1.441-3.381-2-4.5-2.408-4.816-3.623-10.245-6-15l-10-28-1-11c-1.167-2.333-2.401-11.199-1-14 .769-1.539 4-12.238 4-13.5 2.483 0 4.026-2 6-2 4.312 0 8.147-7 13-7 0 2.979-2 6.23-2 10-6.623 0-3 9.74-3 13-1.087 0-5-5.417-5-1h-1c0-4.389 6.76-9.981 4-15.5-1.066-2.132-7.585 3.17-8 4-1.476 2.953-13.145 25.5-2.5 25.5l2.5-2c0 9.746 4.136 33.771 8 41.5l7 15.5Z"/><path fill="#248A5B" id="ORBvl1" d="m247 127-1 1 1-1Z"/><path fill="#9AD1BD" id="MOB" d="M171 222c0 10.516 19.65 29 30 29 10.747 0 14.421-13.343 18-20.5 7.368-14.737 6-33.73 6-51.5v-17.5c-1.663-3.326-4-7.592-4-11.5v-1c-1.686 0-4-6.653-4-8 0-10.459-17.57-11-24-11 0 3.325-1 7.31-1 10 5.56 0 2 9.875 2 12 3.615 0 1.565 5 0 5 0 3.219-1 5.683-1 9l-1 1c0 7.214-2 14.278-2 22 0 5.745 7.051 26-4 26-2.833 0-4.84 2-7 2l4 7.5c-2.227 4.454-9-3.938-9-6.5-3.303 0-3 .959-3 4ZM285 223c0 10.618-19.738 28-30 28-10.818 0-14.629-14.759-18-21.5-6.948-13.897-6-32.266-6-49v-17c1.671-3.341 4-8.641 4-12.5v-1c2.623 0 4-7.828 4-10 0-6.912 13.272-8.886 17.5-11 1.572-.786 6.5.473 6.5 2 0 3.013 1 6.611 1 9-6.263 0-1 10.444-1 12l-1.5-1c-3.995 0 .5 5.68.5 6 0 3.77 2 7.021 2 10 0 7.106 2 14.958 2 23 0 6.315-6.241 25 5 25 2.483 0 4.026 2 6 2l-2 3.5c-.552 1.105-2.353 7.427 1.5 5.5l6.5-8c2.041 0 3 .959 3 3v1l-1 1ZM160 155c-1.684 0-1 4.679-1 6l-2.5 2c-10.645 0 1.024-22.547 2.5-25.5.415-.83 6.934-6.132 8-4 2.76 5.519-4 11.111-4 15.5l-1 1-1 1v2l-1 1v1ZM297 155v5l3.5 3c9.212 0-.771-22.771-3.5-25.5-1.112-1.112-6.513-6.975-8-4-2.694 5.388 6 13.597 6 16.5v1l1 2v1l1 1Z"/><path fill="#9DEFD2" id="AOBmi" d="m194 152-1 1-2.5 2c-10.348 5.174-9.538 2.231-18-2l-3.5-3c0-3.26-3.623-13 3-13l9.5 6c3.632 1.816 7.399-3 10.5-3 5.56 0 2 9.875 2 12ZM287 150c0 7.818-24 11.515-24 2 0-1.556-5.263-12 1-12 3.265 0 6.814 4.843 10.5 3 1.743-.871 7.998-6 9.5-6 6.887 0 4 7.938 4 12l-1 1Z"/><path fill="#C7CBCA" id="onl" d="M237 141c0 3.519-2 5.843-2 9 2.623 0 4-7.828 4-10-1.577 0-2-1.729-2 1ZM219 141c0 3.303 2 5.115 2 8-1.686 0-4-6.653-4-8 .839 0 2-1.93 2 0Z"/><path fill="#CAC8C9" id="von" d="m235 151-4 2c0-3.901 3-7.543 3-11l1-1v-1l2 1c0 3.519-2 5.843-2 9v1ZM221 150c1.457 0 1.46 3 4 3 0-3.942-2-6.745-2-10l-1-1v-1h-3c0 3.303 2 5.115 2 8v1Z"/><path fill="#99D2BD" id="OLF" d="m235 141-1 1 1-1ZM222 142l1 1-1-1Z"/><path fill="#CACAC9" id="lotd" d="M165 158h1c0-4.819 11.82 2.16 13.5 3 5.61 2.805 10.238-4 14.5-4 1.565 0 3.615-5 0-5l-1 1-2.5 2c-10.348 5.174-9.538 2.231-18-2l-3.5-3c-1.087 0-5-5.417-5-1l1 9ZM292 157l-2 1c0-4.51-11.728 2.114-13.5 3-5.61 2.805-10.238-4-14.5-4 0-.32-4.495-6-.5-6l1.5 1c0 9.515 24 5.818 24-2l1-1c1.674 0 2.326-1 4-1v9Z"/><path fill="#CAC8C7" id="lot" d="m277 217-2 3.5c-.552 1.105-2.353 7.427 1.5 5.5l6.5-8c0-4.578 4.011-10.522 6-14.5 5.097-10.193 8-30.899 8-43.5v-5l-1-1v-1l-1-2v-1l-3-2v9l1 9c0 13.744-4.273 27.046-10 38.5-1.032 2.064-3.184 12.5-6 12.5ZM179 217l4 7.5c-2.227 4.454-9-3.938-9-6.5l-7-15.5c-3.864-7.729-8-31.754-8-41.5 1.684 0 1-4.679 1-6v-1l1-1v-2l1-1 1-1h1l1 9c0 1.258-3.422 9-1 9 0 11.426 2.246 23.992 7 33.5 1.094 2.187 8 15.151 8 16.5Z"/><path fill="#99D2BD" id="OLF" d="m288 149-1 1 1-1ZM162 150l-1 1 1-1Z"/><path fill="#C7CBCA" id="onl" d="M227 211c0 8.305.78 38.94-2 44.5-2.686 5.371-24-2.321-24-4.5 10.747 0 14.421-13.343 18-20.5 7.368-14.737 6-33.73 6-51.5v-17.5c-1.663-3.326-4-7.592-4-11.5 1.457 0 1.46 3 4 3l2 4.5V176l1 1v24c-1.763 0-1 8.343-1 10ZM231 153c0 2.654-.888 5.275-2 7.5v17c0 15.372 1 31.815 1 46.5l1 30.5c3.225 6.45 24-.647 24-3.5-10.818 0-14.629-14.759-18-21.5-6.948-13.897-6-32.266-6-49v-17c1.671-3.341 4-8.641 4-12.5l-4 2Z"/><path fill="#99D2BD" id="OLF" d="m295 151 1 2-1-2Z"/><path fill="#9AD1BD" id="MOB" d="m194 152-1 1 1-1Z"/><path fill="#99D2BD" id="OLF" d="m161 153-1 1 1-1ZM296 154l1 1-1-1ZM160 155c-1.684 0-1 4.679-1 6 1.684 0 1-4.679 1-6Z"/><path fill="#95E4C8" id="AOBgr" d="M182 169h1c3.301 0 7.523-2 9-2l1-1c0-3.317 1-5.781 1-9-4.262 0-8.89 6.805-14.5 4-1.68-.84-13.5-7.819-13.5-3 0 2.666 3 2.482 3 5h1l1 1 11 5ZM274 169h1l1-1 9-4 1-1h1l3-5c0-4.51-11.728 2.114-13.5 3-5.61 2.805-10.238-4-14.5-4 0 3.77 2 7.021 2 10 2.526 0 5.577 2 9 2h1Z"/><path fill="#99D2BD" id="OLF" d="M287 163c3.067 0 4.726 3 6 3l-1-9-2 1-3 5ZM169 163c-3.132 0-5 .436-5 4-2.422 0 1-7.742 1-9h1c0 2.666 3 2.482 3 5Z"/><path fill="#54BF94" id="AON" d="M186 215c-2.833 0-4.84 2-7 2 0-1.349-6.906-14.313-8-16.5-4.754-9.508-7-22.074-7-33.5 0-3.564 1.868-4 5-4h1l1 1 11 5c0 3.846 5.479 29.458 7 32.5 1.963 3.926-3 9.686-3 13.5Z"/><path fill="#99D2BD" id="OLF" d="m170 163 1 1-1-1ZM286 163l-1 1 1-1Z"/><path fill="#54BF94" id="AON" d="M271 215c2.483 0 4.026 2 6 2 2.816 0 4.968-10.436 6-12.5 5.727-11.454 10-24.756 10-38.5-1.274 0-2.933-3-6-3h-1l-1 1-9 4-1 1-1 1c0 5.526-3.713 21.927-6 26.5-3.102 6.204 3 13.7 3 18.5Z"/><path fill="#99D2BD" id="OLF" d="m193 166-1 1 1-1ZM183 169c0 1.757 4.04 8.581 5 10.5.679 1.359.436 9.5 2 9.5 0-7.722 2-14.786 2-22-1.477 0-5.699 2-9 2ZM273 169c0 .071-4.527 11.555-5 12.5-.662 1.324-.353 8.5-2 8.5 0-8.042-2-15.894-2-23 2.526 0 5.577 2 9 2ZM276 168l-1 1 1-1Z"/><path fill="#CBCBC7" id="aco" d="M190 189c0 5.745 7.051 26-4 26 0-3.814 4.963-9.574 3-13.5-1.521-3.042-7-28.654-7-32.5h1c0 1.757 4.04 8.581 5 10.5.679 1.359.436 9.5 2 9.5ZM266 190c0 6.315-6.241 25 5 25 0-4.8-6.102-12.296-3-18.5 2.287-4.573 6-20.974 6-26.5v-1h-1c0 .071-4.527 11.555-5 12.5-.662 1.324-.353 8.5-2 8.5Z"/><path fill="#99D2BD" id="OLF" d="m275 169-1 1v-1h1ZM227 176l1 1-1-1ZM228 201c-1.763 0-1 8.343-1 10 1.763 0 1-8.343 1-10ZM286 222l-1 1 1-1Z"/></svg>