<svg xmlns="http://www.w3.org/2000/svg" viewBox="0 0 456 320"><path fill="#9AD1BD" id="MOB" d="m174 237 3 2c2.477 0 2.522 2.011 4.5 3 7.485 3.742 15.565 3.718 23 0 15.409-7.704 16.5-43.344 16.5-60v-19.5c1.454-2.908 4.619-27.762 3-31-2.831-5.663-4.104-12.207-7-18l-6-6.5-9.5-4c-11.185-5.592-35.34 7.34-42.5 14.5-2.675 2.675-10 8.885-10 12.5l-1 1v1l-1 1v1l-1 1v1l-1 1v3l-1 2v3c0 1.235.643 5-1 5v3c1.579 0 1 2.855 1 4v2c1.473 0 1 1.952 1 3v3c1.353 0 2 4.643 2 6l6 11.5 6 12c1.446 2.892.51 7.019 2 10l1 12 5 11.5v1l3 3 1 2 1 1 1 1 1 1ZM279 239h1l1-1 1-1 6-7 1-1 1-2 1-1v-1l4-10.5v-8c2.873-5.747 2.115-13.231 5-19l9-16.5 1-1c0-1.048-.473-3 1-3v-3c0-1.048-.473-3 1-3v-1c0-1.235-.643-5 1-5v-10c-1.473 0-1-1.952-1-3v-2l-1-1v-2l-1-2v-1l-1-1v-1l-1-1v-1l-1-1c0-3.158-7.952-10.726-10.5-12l-6-6c-6.494-3.247-26.349-12.326-35-8l-10.5 4c0 3.327-5.244 4.989-7 8.5l-5 12c-1.91 3.819.413 26.826 2 30V180c0 21.054-.044 53.728 20.5 64 10.769 5.384 19.433-5 23.5-5Z"/><path fill="#C7CBCA" id="onl" d="M227 214c0 13.264 4.405 38.047-9.5 45-3.837 1.918-6.375-1.687-9-3-8.207-4.104-16.832-6.916-25-11l-6.5-6c2.477 0 2.522 2.011 4.5 3 7.485 3.742 15.565 3.718 23 0 15.409-7.704 16.5-43.344 16.5-60v-19.5c1.454-2.908 4.619-27.762 3-31-2.831-5.663-4.104-12.207-7-18l-6-6.5c5.386 0 9.059 7.617 11 11.5 6.054 12.108 5 25.848 5 40.5v55ZM245 107c-11.394 0-15 25.356-15 34.5 0 24.231-1 50.095-1 75l1 30 5 9c4.977 9.954 16.63-2.065 21.5-4.5h4c3.145-1.573 5.845-3.422 9-5 2.633-1.317 9.5-3.488 9.5-7-4.067 0-12.731 10.384-23.5 5-20.544-10.272-20.5-42.946-20.5-64v-22.5c-1.587-3.174-3.91-26.181-2-30l5-12c1.756-3.511 7-5.173 7-8.5Z"/><path fill="#99D2BD" id="OLF" d="m307 129 1 1-1-1ZM149 130l-1 1 1-1ZM308 131l1 1-1-1ZM148 132l-1 1 1-1ZM309 133l1 1-1-1ZM147 134l-1 1 1-1ZM310 135l1 2-1-2ZM146 136l-1 1 1-1ZM311 139l1 1-1-1ZM145 140l-1 2 1-2ZM312 142c1.473 0 1 1.952 1 3-1.473 0-1-1.952-1-3ZM144 145c-1.643 0-1 3.765-1 5 1.643 0 1-3.765 1-5ZM143 153c1.579 0 1 2.855 1 4-1.579 0-1-2.855-1-4ZM313 155c-1.643 0-1 3.765-1 5 1.643 0 1-3.765 1-5ZM144 159c1.473 0 1 1.952 1 3-1.473 0-1-1.952-1-3ZM227 159c1.763 0 1 8.343 1 10v33.5c0 1.783.777 11.5-1 11.5v-55ZM312 161c-1.473 0-1 1.952-1 3 1.473 0 1-1.952 1-3ZM147 171v2c-1.059 0-2-6.743-2-8 1.353 0 2 4.643 2 6ZM311 167c-1.473 0-1 1.952-1 3 1.473 0 1-1.952 1-3ZM309 171h1v-1l-1 1Z"/><path fill="#C7CBCA" id="onl" d="M154 210c0 3.894 8.185 10.87 10 14.5l3 3.5-5-11.5-1-12c-1.49-2.981-.554-7.108-2-10l-6-12-6-11.5v8c1.643 0 1 3.765 1 5v1c1.473 0 1 1.952 1 3v3c1.473 0 1 1.952 1 3v1l1 2v4l1 2v1l1 2v2l1 2ZM303 207c0 3.117-10.263 18-12 18l4-10.5v-8c2.873-5.747 2.115-13.231 5-19l9-16.5h1v2l-1 2v9l-1 2v1c-1.473 0-1 1.952-1 3v4l-1 2v1l-1 2v4l-1 2-1 2Z"/><path fill="#99D2BD" id="OLF" d="m310 173-1 2 1-2ZM147 179c1.643 0 1 3.765 1 5-1.643 0-1-3.765-1-5ZM309 184l-1 2 1-2ZM148 185c1.473 0 1 1.952 1 3-1.473 0-1-1.952-1-3ZM308 187c-1.473 0-1 1.952-1 3 1.473 0 1-1.952 1-3ZM149 191c1.473 0 1 1.952 1 3-1.473 0-1-1.952-1-3ZM307 194l-1 2 1-2ZM150 195l1 2-1-2ZM306 197l-1 2 1-2ZM151 201l1 2-1-2ZM305 203l-1 2 1-2ZM152 204l1 2-1-2ZM304 205l-1 2 1-2ZM153 208l1 2-1-2Z"/><path fill="#C7CBCA" id="onl" d="m291 226-1 1 1-1ZM290 227l-1 2 1-2ZM167 229l3 3-3-3ZM289 229l-1 1 1-1ZM171 234l1 1-1-1ZM173 236l1 1-1-1ZM282 237l-1 1 1-1ZM281 238l-1 1 1-1Z"/></svg>