<svg xmlns="http://www.w3.org/2000/svg" viewBox="0 0 456 320"><path fill="#9AD1BD" id="MOB" fill-rule="evenodd" d="M177 211c0 8.78 8.739 0 0 0m-16 0c0 9.187 18.479 36 29 36 3.534 0 7.699 1.901 11.5 0 24.387-12.193 20.5-59.866 20.5-83.5 0-8.441 3.394-26.213 0-33-2.445-4.889-4.508-10.016-7-15l-6-5.5-2-1c-6.079 0-16.958-5.271-23.5-2l-13 4c-2.984 1.492-5.723 4.862-8 6-3.475 1.737-12.5 8.376-12.5 13l-1 1-1 3-1 1v2l-1 2v1l-1 1v22l1 2v1l1 2v4l1 2v1l1 2v1l2 3v2c2.334 0 1.341 4.181 2 5.5 2.142 4.283 6 11.635 6 16.5v2l2 3v1m25-76 4.5-3c2.127-1.064 7.886 1.728 6.5 4.5-.766 1.531-6 .593-6 3.5 0 2.014 2.284 5.932 1 8.5-6.692 13.385-15.514 7.972-21-3-2.51-5.019 3-9.91 3-13.5l-1-2.5c3.196-6.391 8.333 4.5 9 4.5 0-1.775 4-1.547 4 1ZM276 211l-1 3.5c1.98 3.96 7.585-3.5 1-3.5m-10 36-1 1c-10.885 0-19.352-6.203-24-15.5l-2-9c-7.756-15.513-5-55.068-5-75 0-8.85-.672-18.655 3-26 1.492-2.984 4.862-5.723 6-8 .433-.865 2.479-3.5 4-3.5l2-2c3.166 0 5.886-.693 8.5-2 10.187-5.094 29.582 6.291 37 10 3.252 1.626 12.5 10.169 12.5 14l1 1v1l1 1v2l1 1v1l1 1v5c0 1.048-.473 3 1 3v10c-1.473 0-1 1.952-1 3v5l-1 1v2l-1 2v4l-1 1v1l-1 2v1l-2 3v2c-2.334 0-1.341 4.181-2 5.5-1.989 3.978-4 7.69-4 12.5-1.473 0-1 1.952-1 3l-1 1v2l-1 1v2l-1 1c0 9.616-18.355 35-29 35m4-112-4.5-3c-1.206-.603-7.451 1.597-6.5 3.5 1.102 2.204 6 1.229 6 4.5l-1 7.5c6.122 12.245 14.628 11.745 21-1 2.307-4.614-2-10.965-2-14.5 0-11.243-8.549 3-9 3 0-2.885-4-2.885-4 0Z"/><path fill="#99D2BD" id="OLF" d="m207 109 2 1-2-1ZM247 110v1l2-2-2 1Z"/><path fill="#C7CBCA" id="onl" d="M227 210c0 16.287 2.827 36.847-4 50.5l-4.5 2.5c-9.167 4.584-11.226-7.613-18-11-1.959-.979-10.5-1.972-10.5-5 3.534 0 7.699 1.901 11.5 0 24.387-12.193 20.5-59.866 20.5-83.5 0-8.441 3.394-26.213 0-33-2.445-4.889-4.508-10.016-7-15l-6-5.5c7.181 0 9.581 7.663 12 12.5 6.432 12.865 6 27.93 6 43.5 0 2.241-.804 17 1 17v18c-1.751 0-1 7.426-1 9ZM247 111c-1.521 0-3.567 2.635-4 3.5-1.138 2.277-4.508 5.016-6 8-3.672 7.345-3 17.15-3 26 0 19.932-2.756 59.487 5 75l2 9c4.648 9.297 13.115 15.5 24 15.5 0 2.193-9.698 4.099-11.5 5-5.955 2.978-6.109 14.445-15 10-3.869-1.935-5.441-2.382-7.5-6.5-3.599-7.199-1-22.085-1-30.5 0-18.884-1-39.438-1-59 0-7.695-1.277-19.945 2-26.5 3.159-6.318 1.514-30.5 16-30.5v1Z"/><path fill="#CACAC9" id="lotd" d="m186 135 4.5-3c2.127-1.064 7.886 1.728 6.5 4.5-.766 1.531-6 .593-6 3.5-4.436 0-4.792 5.854-10.5 3-3.02-1.51-4.361-11-6.5-11l-1-2.5c3.196-6.391 8.333 4.5 9 4.5 0 1.579 2.855 1 4 1ZM270 135h4c.451 0 9-14.243 9-3-3.723 0-3.624 9.562-6.5 11-7.059 3.529-7.374-3-11.5-3 0-3.271-4.898-2.296-6-4.5-.951-1.903 5.294-4.103 6.5-3.5l4.5 3Z"/><path fill="#99D2BD" id="OLF" d="m150 130-1 1 1-1ZM307 131l1 1-1-1Z"/><path fill="#95E4C8" id="AOBgr" d="M174 132c2.139 0 3.48 9.49 6.5 11 5.708 2.854 6.064-3 10.5-3 0 2.014 2.284 5.932 1 8.5-6.692 13.385-15.514 7.972-21-3-2.51-5.019 3-9.91 3-13.5ZM283 132c-3.723 0-3.624 9.562-6.5 11-7.059 3.529-7.374-3-11.5-3l-1 7.5c6.122 12.245 14.628 11.745 21-1 2.307-4.614-2-10.965-2-14.5Z"/><path fill="#9DEFD2" id="AOBmi" d="M182 134c0 1.579 2.855 1 4 1 0-2.547-4-2.775-4-1ZM270 135h4c0-2.885-4-2.885-4 0Z"/><path fill="#99D2BD" id="OLF" d="m308 133 1 1-1-1ZM148 134l-1 1 1-1ZM309 136l1 1-1-1ZM147 137l-1 2 1-2ZM310 138l1 1-1-1ZM146 140l-1 1 1-1ZM311 144c1.473 0 1 1.952 1 3-1.473 0-1-1.952-1-3ZM145 147c-1.628 0-1.628 10 0 10v-10ZM312 157c-1.473 0-1 1.952-1 3 1.473 0 1-1.952 1-3ZM145 163l1 2-1-2ZM311 165l-1 1 1-1ZM146 166l1 2-1-2ZM227 166c1.804 0 1 14.759 1 17-1.804 0-1-14.759-1-17ZM310 168l-1 2 1-2ZM147 172l1 2-1-2ZM309 174l-1 1 1-1ZM148 175l1 2-1-2ZM308 176l-1 2 1-2ZM150 181h1l-2-3c0 1.048-.473 3 1 3ZM305 182l1 1c1.579 0 1-2.855 1-4l-2 3Z"/><path fill="#C7CBCA" id="onl" d="M150 182h1v-1h-1v1Z"/><path fill="#99D2BD" id="OLF" d="M151 183v2c-1.473 0-1-1.952-1-3h1v1Z"/><path fill="#C7CBCA" id="onl" d="M305 183h1l-1-1v1ZM157 204l2 1c0-4.865-3.858-12.217-6-16.5-.659-1.319.334-5.5-2-5.5v4l1 2v1l1 2v2l1 1v1l1 1v2l2 4v1Z"/><path fill="#99D2BD" id="OLF" d="M305 184v2c1.473 0 1-1.952 1-3h-1v1Z"/><path fill="#C7CBCA" id="onl" d="M299 202h1l1-2v-2l1-1v-1l1-1v-2l1-1v-2l1-1v-5c-2.334 0-1.341 4.181-2 5.5-1.989 3.978-4 7.69-4 12.5Z"/><path fill="#99D2BD" id="OLF" d="m151 187 1 2-1-2ZM305 189l-1 1 1-1ZM152 190l1 2-1-2ZM304 192l-1 1 1-1ZM153 194l1 1-1-1ZM303 195l-1 1 1-1ZM154 196l1 1-1-1ZM302 197l-1 1 1-1ZM155 199l2 4-2-4ZM301 200l-1 2 1-2ZM228 201c-1.751 0-1 7.426-1 9 1.751 0 1-7.426 1-9Z"/><path fill="#C7CBCA" id="onl" d="M298 205h1v-3c-1.473 0-1 1.952-1 3Z"/><path fill="#99D2BD" id="OLF" d="m300 202-1 2v-2h1ZM159 205v2c-1.577 0-2-1.762-2-3l2 1Z"/><path fill="#C7CBCA" id="onl" d="m298 205-1 1 1-1Z"/><path fill="#99D2BD" id="OLF" d="M297 208v1l2-4h-1l-1 1v2Z"/><path fill="#C7CBCA" id="onl" d="m159 209 2 1-2-3v2ZM296 209h1v-1l-1 1Z"/><path fill="#99D2BD" id="OLF" d="M161 210v1l-2-2 2 1ZM297 209l-1 2v-2h1Z"/><path fill="#CAC8C7" id="lot" d="M177 211c0 8.78 8.739 0 0 0ZM276 211l-1 3.5c1.98 3.96 7.585-3.5 1-3.5Z"/><path fill="#99D2BD" id="OLF" d="m296 211-1 1 1-1Z"/><path fill="#C7CBCA" id="onl" d="m266 247-1 1 1-1Z"/></svg>