<svg xmlns="http://www.w3.org/2000/svg" viewBox="0 0 456 320"><path fill="#187F60" id="SSp-ll1" d="M134 35h1c4.373 0 11.593-4.046 15.5-6 8.221-4.11 19.599-4 29.5-4l-2-6c-12.043 0-26.346 2.923-36.5 8-1.324.662-8.5 1.508-8.5 3l1 5Z"/><path fill="#187C64" id="SSp-tr1" d="M181 25h1l1-6h-5l2 6h1Z"/><path fill="#1E9D5A" id="MOp1" d="m199 24-17 1 1-6h16v5Z"/><path fill="#1E9C59" id="MOs1" d="M226 35c-1.048 0-3-.473-3 1l-8.5-9c-4.995-2.498-9.384-3-15.5-3v-5c7.769 0 24 1.367 24 12-2.206 0 .742 2 2 2h1v2ZM230 35c2.424 0 2.76 2 4 2 0-9.695 15.568-13 23-13v-5c-5.496 0-10.977-.262-15.5 2l-7.5 8c0 2.506-3 5.987-3 4l-1 1v1Z"/><path fill="#1E9D5A" id="MOp1" d="m257 24 17 1-1-6h-16v5Z"/><path fill="#187C64" id="SSp-tr1" d="M275 25h2l2-6h-6l1 6h1Z"/><path fill="#187F60" id="SSp-ll1" d="m323 30-1 5-22.5-8c-5.791-2.895-15.588-2-22.5-2l2-6c11.791 0 25.557 3.028 35.5 8 1.479.74 8.5.967 8.5 3Z"/><path fill="#1F9C58" id="MOp2/3" d="M181 36v2c4.216 0 9.762-5 16-5h1l1-9-17 1v4c0 2.41-1 5.181-1 7Z"/><path fill="#1E9D58" id="MOs2/3" d="m223 37-6 3-4.5-5c-4.479-2.24-9.057-2-14.5-2l1-9c6.116 0 10.505.502 15.5 3l8.5 9v1ZM239 41h1c0-9.044 12.505-8 19-8l-2-9c-7.432 0-23 3.305-23 13 1.85 0 5 2.23 5 4Z"/><path fill="#1F9C58" id="MOp2/3" d="M275 36v1c-5.685 0-9.812-4-16-4l-2-9 17 1h1v11Z"/><path fill="#187F64" id="SSp-ll2/3" d="M181 36c-8.971 0-27.796 5.148-35.5 9-2.633 1.316-4.265 3-7.5 3-2.812 0-3-10.68-3-13 4.373 0 11.593-4.046 15.5-6 8.221-4.11 19.599-4 29.5-4h1c0 1.145-.579 4 1 4 0 2.41-1 5.181-1 7Z"/><path fill="#188061" id="SSp-tr2/3" d="M182 25v4c-1.579 0-1-2.855-1-4h1Z"/><path fill="#187F64" id="SSp-ll2/3" d="M318 49h1c0-5.334 3-8.304 3-14l-22.5-8c-5.791-2.895-15.588-2-22.5-2h-2v11c10.803 0 25.268 4.384 34.5 9 1.39.695 8.5 2.273 8.5 4Z"/><path fill="#1BA598" id="RSPd1" d="m234 29-3 4c0 1.987 3-1.494 3-4Z"/><path fill="#197E64" id="SSp-ul1" d="m118 37 1 5 10.5-5c1.119-.56 4.5-.155 4.5-2l-1-5c-1.961 0-15 5.11-15 7ZM339 37c0 1.041-.986 5-2 5-5.23 0-10.123-7-15-7l1-5c3.969 0 8.096 3.298 11.5 5 1.119.56 4.5.155 4.5 2Z"/><path fill="#1BA598" id="RSPd1" d="M223 31c1.747 0 2 .253 2 2-1.258 0-4.206-2-2-2Z"/><path fill="#1E9C5A" id="MOp5" d="M193 49c-5.452 0-8.947 6-14 6 0-5.582 2-10.092 2-16v-1c4.216 0 9.762-5 16-5 0 5.292-4 10.34-4 15v1Z"/><path fill="#1F9D58" id="MOs5" d="M193 48c2.274 0 13-3.284 13 2 4.038 0 7.186-9 11-9v-1l-4.5-5c-4.479-2.24-9.057-2-14.5-2h-1c0 5.292-4 10.34-4 15Z"/><path fill="#1BA598" id="RSPd1" d="M223 52h10V41l-3-6v-1l-1.5 2-2.5-3v2c0 .877-2.665 9-3 9v8Z"/><path fill="#1F9D58" id="MOs5" d="M263 48c-2.421 0-6.678-2.411-9.5-1l-3.5 3c0-2.072-8.185-9-10-9 0-9.044 12.505-8 19-8l4 15Z"/><path fill="#1E9C5A" id="MOp5" d="M263 49c5.809 0 9.637 6 15 6 0-6.711-3-9.995-3-17v-1c-5.685 0-9.812-4-16-4l4 15v1Z"/><path fill="#197F61" id="SSp-ul2/3" d="m138 49-15 6c0-1.276-3.132-12-4-12v-1l10.5-5c1.119-.56 4.5-.155 4.5-2h1c0 2.32.188 13 3 13v1Z"/><path fill="#3EA665" id="ACAd1" d="M223 37v7c.335 0 3-8.123 3-9-1.048 0-3-.473-3 1v1ZM234 37l-1 4-3-6c2.424 0 2.76 2 4 2Z"/><path fill="#197F61" id="SSp-ul2/3" d="M319 49c5.237 0 9.399 6 15 6 0-4.268 3-8.136 3-12v-1c-5.23 0-10.123-7-15-7 0 5.696-3 8.666-3 14Z"/><path fill="#1C7F64" id="SSp-ll4" d="M139 55h1c11.564 0 29.542-16 41-16v-3c-8.971 0-27.796 5.148-35.5 9-2.633 1.316-4.265 3-7.5 3v1l1 6ZM318 49c0 2.01-1 3.512-1 6-5.774 0-30.44-10.97-36.5-14l-5.5-3v-2c10.803 0 25.268 4.384 34.5 9 1.39.695 8.5 2.273 8.5 4Z"/><path fill="#1B8062" id="SSp-un1" d="m119 43-8 3c-1.014 0-2-3.959-2-5 2.952 0 5.452-4 9-4l1 5v1Z"/><path fill="#40A565" id="ACAd2/3" d="M218 58h2c0-2.294.997-2 3-2V37l-6 3v1l1 17ZM237 58l2 1V41c0-1.77-3.15-4-5-4l-1 4v15c2.177 0 4-.64 4 2Z"/><path fill="#1B8062" id="SSp-un1" d="m337 43 9 3 1-5-8-4c0 1.041-.986 5-2 5v1Z"/><path fill="#197C63" id="SSp-ll5" d="M311 67h1l5-12c-5.774 0-30.44-10.97-36.5-14l-5.5-3c0 7.005 3 10.289 3 17 2.422 0 5.361 2.93 7.5 4 2.322 1.16 23.584 8 25.5 8ZM178 56c-9.729 0-22.733 11-33 11 0-3.678-5-7.612-5-12 11.564 0 29.542-16 41-16 0 5.908-2 10.418-2 16l-1 1Z"/><path fill="#188060" id="SSp-bfd1" d="m55 87 2.5 2c1.216 0 2.04-1 3.5-1l10.5-13c7.64-7.64 29.343-28 39.5-28v-1c-1.014 0-2-3.959-2-5-3.931 0-7.152 4.326-10.5 6-9.81 4.905-28.425 17.35-33.5 27.5-1.844 3.688-10 8.375-10 12.5Z"/><path fill="#3EA566" id="ACAd5" d="M218 59c-4.561 0-7.593 6-11 6 0-1.991.793-14-1-14v-1c4.038 0 7.186-9 11-9l1 17v1ZM239 59c4.038 0 6.476 6 10 6 0-4.725 1-9.879 1-14v-1c0-2.072-8.185-9-10-9h-1v18Z"/><path fill="#188060" id="SSp-bfd1" d="M396 88h6l-9-11.5c-5.453-10.906-21.634-22.567-31.5-27.5-4.478-2.239-9.27-8-14.5-8l-1 5v1c3.931 0 7.152 4.326 10.5 6 9.723 4.861 25.552 14.604 30.5 24.5l8 9.5 1 1Z"/><path fill="#1C7F63" id="SSp-un2/3" d="m123 56-9 3c0-4.091-3-7.605-3-12v-1l8-3c.868 0 4 10.724 4 12v1ZM334 56c3.496 0 5.441 3 9 3 0-3.118 2.246-12 3-12v-1l-9-3c0 3.864-3 7.732-3 12v1Z"/><path fill="#187F63" id="SSp-bfd2/3" d="m73 88-1 1c-2.649 0-6.826-1-11-1l10.5-13c7.64-7.64 29.343-28 39.5-28 0 4.395 3 7.909 3 12v1c-4.082 0-24.831 11.331-28 14.5L74 87l-1 1Z"/><path fill="#1D9C5A" id="MOs6a" d="m196 67-5 1c0-1.874-1-5.119-1-6.5 0-3.902 3-8.554 3-12.5v-1c2.274 0 13-3.284 13 2v1c-2.42 0-7.941 10.382-9 12.5-.523 1.046.951 3.5-1 3.5ZM261 67l5 1c0-7-3-14.572-3-19v-1c-2.421 0-6.678-2.411-9.5-1l-3.5 3v1c3.203 0 9.903 16 11 16Z"/><path fill="#187F63" id="SSp-bfd2/3" d="m383 87 5.5 2 3-2c.548 0 1.6 2 3 2 1.44 0-1.889-2 .5-2l-8-9.5c-4.948-9.896-20.777-19.639-30.5-24.5-3.348-1.674-6.569-6-10.5-6-.754 0-3 8.882-3 12v1c3.066 0 25.457 11.957 28 14.5L383 87Z"/><path fill="#1A7F63" id="SSp-ul4" d="M124 63h1c0-3.875 14-4.768 14-8l-1-6-15 6v1l1 7Z"/><path fill="#1F9B5A" id="MOp6a" d="M191 69c-4.991 0-8.709 4-14 4V60.5c0-.931 3.019-4.5 1-4.5l1-1c5.053 0 8.548-6 14-6 0 3.946-3 8.598-3 12.5 0 1.381 1 4.626 1 6.5v1ZM266 69l14 5c0-6.003-2-12.432-2-19-5.363 0-9.191-6-15-6 0 4.428 3 12 3 19v1Z"/><path fill="#1A7F63" id="SSp-ul4" d="M334 56c0 2.326-2 3.927-2 6-5.099 0-10.214-7-15-7 0-2.488 1-3.99 1-6h1c5.237 0 9.399 6 15 6v1Z"/><path fill="#3FA664" id="ACAd6a" d="M200 72h1l6-6v-1c0-1.991.793-14-1-14-2.42 0-7.941 10.382-9 12.5-.523 1.046.951 3.5-1 3.5v1c1.621 0 4 2.379 4 4Z"/><path fill="#1BA597" id="RSPv1" d="M229 83h1l3-1V52h-10v30l3 1h1c0-3.15 2-3.446 2 0Z"/><path fill="#3FA664" id="ACAd6a" d="M255 72h1l3-3 2-1v-1c-1.097 0-7.797-16-11-16 0 4.121-1 9.275-1 14v1l6 6Z"/><path fill="#187E62" id="SSp-ul5" d="M127 75h1c4.176 0 12.507-8 17-8 0-3.678-5-7.612-5-12h-1c0 3.232-14 4.125-14 8 0 4.7 2 7.3 2 12Z"/><path fill="#1A7F64" id="SSp-ll6a" d="M302 81h2c0-4.06 7-8.295 7-14-1.916 0-23.178-6.84-25.5-8-2.139-1.07-5.078-4-7.5-4 0 6.568 2 12.997 2 19l15.5 5c1.3.65 6.5.007 6.5 2Z"/><path fill="#187E62" id="SSp-ul5" d="M312 67c0 1.845 3.381 1.44 4.5 2l12.5 6 3-12v-1c-5.099 0-10.214-7-15-7l-5 12Z"/><path fill="#197E61" id="SSp-un4" d="M116 68h1l7-5-1-7-9 3v1l2 8Z"/><path fill="#1A7F64" id="SSp-ll6a" d="M153 81h1c4.604 0 9.64-4 15-4 0-1.069 6.717-3 8-3V60.5c0-.931 3.019-4.5 1-4.5-9.729 0-22.733 11-33 11 0 6.08 8 8.087 8 14Z"/><path fill="#1AA597" id="RSPv2/3" d="M218 81h5V56c-2.003 0-3-.294-3 2 0 2.003.293 3-2 3v20ZM233 81h5c0-1.825-.781-12 1-12v-8c-2.293 0-2-.997-2-3 0-2.64-1.823-2-4-2v25Z"/><path fill="#197E61" id="SSp-un4" d="M332 63c3.23 0 5.26 5 8 5 0-1.543 1.709-8 3-8v-1c-3.559 0-5.504-3-9-3 0 2.326-2 3.927-2 6v1Z"/><path fill="#3FA566" id="ACAv2/3" d="M218 59v2c2.293 0 2-.997 2-3h-2v1ZM239 59v2c-2.293 0-2-.997-2-3l2 1Z"/><path fill="#3EA666" id="ACAv5" d="m212 87 7 2c0-2.707-1-5.903-1-8-7.002 0-5.087-.325-1-8.5.783-1.566-1.35-9.5 1-9.5v-4c-4.561 0-7.593 6-11 6v1c2.064 0 .426 3.353 1 4.5 1.608 3.216 3 10.986 3 14.5l1 2ZM244 87c-2.16 0-4.167 2-7 2l1-8c1.842 0 4.283 1 5.5 1l-2.5-3.5-2-9.5V59c4.038 0 6.476 6 10 6v1c0 6.294-4 13.05-4 19l-1 2Z"/><path fill="#197C64" id="SSp-bfd4" d="M86 89h1v-1h1c0-4.023 28-18.412 28-20l-2-8c-4.082 0-24.831 11.331-28 14.5L74 87v1c2.123 0 3.03-1 4.5-1l3 2-1-2c1.06-.53 5.5 1.198 5.5 2ZM369 88h14v-1l-12-12.5c-2.543-2.543-24.934-14.5-28-14.5-1.291 0-3 6.457-3 8l23.5 15 4.5 5h1Z"/><path fill="#197D62" id="SSp-un5" d="M118 81h1l8-6c0-4.7-2-7.3-2-12h-1l-7 5 1 13Z"/><path fill="#1BA498" id="RSPv5" d="M218 63c-2.35 0-.217 7.934-1 9.5-4.087 8.175-6.002 8.5 1 8.5V63Z"/><path fill="#197D62" id="SSp-un5" d="M329 75c3.055 0 5.429 5 9 5l2-12c-2.74 0-4.77-5-8-5l-3 12Z"/><path fill="#40A564" id="ACAv6a" d="M209 83c0 1.747.253 2 2 2 0-3.514-1.392-11.284-3-14.5-.574-1.147 1.064-4.5-1-4.5l-6 6 8 11ZM248 83c0 1.577-1.762 2-3 2 0-5.95 4-12.706 4-19l6 6-2 5c-1.901 0-5 4.332-5 6Z"/><path fill="#197D61" id="SSp-ul6a" d="M132 91h1l12-6 8-4c0-5.913-8-7.92-8-14-4.493 0-12.824 8-17 8 0 5.15 4 10.413 4 16Z"/><path fill="#1E9C58" id="MOs6b" d="M191 69h5v-2l-5 1v1ZM265 69h1v-1l-5-1v2h4Z"/><path fill="#197D61" id="SSp-ul6a" d="M323 91h1c0-5.396 5-11.032 5-16l-12.5-6c-1.119-.56-4.5-.155-4.5-2h-1c0 5.705-7 9.94-7 14l15 7.5 4 2.5Z"/><path fill="#1A7D62" id="SSp-bfd5" d="M101 91h1l1-1h1c0-1.527 12.083-9 14-9l-1-13h-1c0 1.588-28 15.977-28 20 3.002 0 13 .559 13 3Z"/><path fill="#3FA466" id="ACAd6b" d="M200 72v1l-4-4v-1c1.621 0 4 2.379 4 4ZM259 69h2v-1l-2 1Z"/><path fill="#1A7D62" id="SSp-bfd5" d="M352 90h1c5.744 0 11.142-2 15-2l-4.5-5L340 68l-2 12v1c2.092 0 14 7.248 14 9Z"/><path fill="#1D9D5A" id="MOp6b" d="M177 74v1c2.252 0 14-3.596 14-6-4.991 0-8.709 4-14 4v1Z"/><path fill="#CACCC7" id="cing" d="m211 85 1 2c-8.108 0-14.684-8.592-21.5-12-2.12-1.06-14.762 4-18.5 4l-1 1h-9c0-2.102 7-.058 7-3 3.091 0 5.478-2 8-2 2.252 0 14-3.596 14-6h5l4 4c0 2.775 5.947 10 9 10 0 1.747.253 2 2 2Z"/><path fill="#1BA498" id="RSPv5" d="M239 69c-1.781 0-1 10.175-1 12 1.842 0 4.283 1 5.5 1l-2.5-3.5-2-9.5Z"/><path fill="#3FA466" id="ACAd6b" d="M256 72v1c1.712 0 3-2.571 3-4l-3 3Z"/><path fill="#CACCC7" id="cing" d="m245 85-1 2c8.402 0 14.478-8.49 21.5-12 2.531-1.266 14.535 4 18.5 4 2.978 0 6.49 1 10 1 0-2.064-3.353-.426-4.5-1l-9.5-4c-2.143 0-15-4.946-15-6h-6c0 1.429-1.288 4-3 4 0 2.06-.902 4-3 4 0 1.668-3.099 6-5 6 0 1.577-1.762 2-3 2Z"/><path fill="#1D9D5A" id="MOp6b" d="M280 74v1c-2.143 0-15-4.946-15-6h1l14 5Z"/><path fill="#40A465" id="ACAv6b" d="M200 73c0 2.775 5.947 10 9 10l-8-11h-1v1ZM256 73c0 2.06-.902 4-3 4l2-5h1v1Z"/><path fill="#197F62" id="SSp-ll6b" d="M177 75c-2.522 0-4.909 2-8 2 0-1.069 6.717-3 8-3v1ZM302 81v1l-8-2c0-2.064-3.353-.426-4.5-1l-9.5-4v-1l15.5 5c1.3.65 6.5.007 6.5 2Z"/><path fill="#1A7F61" id="SSp-un6a" d="m123 97-4 2-1-2 2-3.5-1-12.5 8-6h1c0 5.15 4 10.413 4 16l-1 2-4 2-4 2Z"/><path fill="#C9C7C9" id="ccb" d="M379 174h2v-5l-1-1v-1l-1-2v-4l-2-4v-1l-2-4v-1c-.903 0-7.103-12.706-8-14.5-5.267-10.534-20.395-28.447-30.5-33.5l-38-18c-2.255-1.127-14.5-2.96-14.5-6-3.965 0-15.969-5.266-18.5-4-7.022 3.51-13.098 12-21.5 12-2.16 0-4.167 2-7 2l-3-2c0 1.463-11 1.033-11 0h-1c0 1.577-1.762 2-3 2l-7-2c-8.108 0-14.684-8.592-21.5-12-2.12-1.06-14.762 4-18.5 4l-1 1c0 1.907-10.725 4.112-12.5 5-11.455 5.727-23.511 10.255-35 16-6.555 3.277-23.312 17.124-26.5 23.5L89 137c0 1.243-3.006 7-4 7 0 1.465.109 4-2 4l-1 2c0 1.048.473 3-1 3l-1 2-1 2v1l-1 2v2l-1 1v3l-1 2v2l-1 1v3h3c0-23.976 30.685-60.592 51.5-71 5.134-2.567 9.965-1 15.5-1 0-2.204 4.744-7 7-7l2-1 1-1 8.5-4c5.836-2.918 12.143-1 18.5-1 1.759 0 9-1.9 9 0 8.954 0 15.772 7 21 7 0-1.263 5.36-1.57 6.5-1 4.745 2.373 14.255 2.373 19 0 1.208-.604 7.5-.265 7.5 1 3.79 0 11.384-7 21-7 0-2.11 6.448 0 8 0l11.5-1 13.5 5 1 1h1c3.675 0 10 5.192 10 9 5.79 0 10.163-1.668 15.5 1 19.747 9.873 52.5 48.595 52.5 71Z"/><path fill="#1A7F61" id="SSp-un6a" d="M337 99h1l1-2c-5.548 0-1-11.807-1-16v-1c-3.571 0-5.945-5-9-5 0 4.968-5 10.604-5 16l13 8Z"/><path fill="#197F62" id="SSp-ll6b" d="M154 81v1l8-2c0-2.102 7-.058 7-3-5.36 0-10.396 4-15 4Z"/><path fill="#40A465" id="ACAv6b" d="M253 77c-1.901 0-5 4.332-5 6 1.901 0 5-4.332 5-6Z"/><path fill="#C9C9CA" id="scwm" d="m172 79-1 1 1-1ZM365 129c0 7.94 10 14.078 10 22-.903 0-7.103-12.706-8-14.5-5.267-10.534-20.395-28.447-30.5-33.5l-38-18c-2.255-1.127-14.5-2.96-14.5-6 2.978 0 6.49 1 10 1l8 2c7.75 0 13.595 10 21 10 0 .796 12.552 8 14 8 0 2.647 5.981 4.481 7.5 6l16.5 16.5c.883 1.766.404 6.5 4 6.5ZM91 130l-2 7 8-12.5c3.188-6.376 19.945-20.223 26.5-23.5 11.489-5.745 23.545-10.273 35-16 1.775-.888 12.5-3.093 12.5-5h-9l-8 2c-3.083 0-5.545 3-9 3 0 2.49-9.836 7-12 7l-2 1c0 2.109-2.535 2-4 2 0 2.109-2.535 2-4 2l-3 3c0 1.077-3.762 3-5 3 0 4.587-12.901 11.301-15 15.5l-5 4.5c0 1.465.109 4-2 4 0 1.238-.423 3-2 3Z"/><path fill="#198060" id="SSp-bfd6a" d="m104 90 14 7 2-3.5-1-12.5h-1c-1.917 0-14 7.473-14 9Z"/><path fill="#1C8064" id="SSp-ul6b" d="M154 82c-3.083 0-5.545 3-9 3l8-4h1v1Z"/><path fill="#3FA566" id="ACAv2/3" d="M222 87c0 1.577-1.762 2-3 2 0-2.707-1-5.903-1-8h5v5l-1 1ZM234 87l3 2 1-8h-5v1l1 5Z"/><path fill="#1C8064" id="SSp-ul6b" d="M323 91v1c-7.405 0-13.25-10-21-10v-1h2l15 7.5 4 2.5Z"/><path fill="#198060" id="SSp-bfd6a" d="M352 90c-4.104 0-9.476 7-13 7-5.548 0-1-11.807-1-16 2.092 0 14 7.248 14 9Z"/><path fill="#40A664" id="ACAv1" d="m226 83-3 3v-4l3 1ZM230 83l4 4-1-5-3 1Z"/><path fill="#7ED04B" id="IG" d="M223 87c0 1.033 11 1.463 11 0l-4-4h-1c0 1.93-1.161 0-2 0h-1l-3 3v1Z"/><path fill="#1C8064" id="SSp-ul6b" d="M133 91v1c2.164 0 12-4.51 12-7l-12 6Z"/><path fill="#40A664" id="ACAv1" d="M222 87h1v-1l-1 1Z"/><path fill="#197E63" id="SSp-n1" d="M53 101h1c0-4.723 7-8.818 7-13-1.46 0-2.284 1-3.5 1L55 87c0 3.684-6 6.86-6 11l4 3Z"/><path fill="#1B7F64" id="SSp-n2/3" d="M73 88h1v-1l-1 1Z"/><path fill="#1A8062" id="SSp-n4" d="M68 112h1c0-6.916 17-19.055 17-23 0-.802-4.44-2.53-5.5-2l1 2-3-2c-1.47 0-2.377 1-4.5 1h-1l-1 1c0 4.695-9 11.373-9 18l5 5Z"/><path fill="#A8AAAA" id="VL" fill-rule="evenodd" d="m173 90-4 3.5c-.527 1.053.648 8.704-2 14l-7 8c0 4.634 7.269 1.115 8.5.5 8.409-4.205 22.955-26 4.5-26m-25 13c3.684 0 11 17.975 11 23l5.5-5c6.558-3.279 12.98-7.49 20-11 2.58-1.29.391-9 2.5-9 0-4.25-5.546-13 4-13 0-1.9-7.241 0-9 0-6.357 0-12.664-1.918-18.5 1l-8.5 4-1 1-2 1c0 2.622-4 4.285-4 8ZM279 90l-4 3.5c-1.745 3.489.704 10.408 2 13 1.221 2.442 16.348 15.305 19 10 1.785-3.57-4.732-5.464-6-8-3.723-7.446-.122-18.5-11-18.5m29 13c0 3.205-11 13.739-11 22-2.183 0-3.31-3.405-4.5-4-6.399-3.199-12.696-6.848-19-10-4.091-2.045-1.469-10-4.5-10 0-3.093 5.708-13-3-13 0-2.11 6.448 0 8 0l11.5-1 13.5 5 1 1h1c0 1.594 7 4.108 7 10Z"/><path fill="#1A8062" id="SSp-n4" fill-rule="evenodd" d="M379 88c0 1.93 1.93 0 0 0m15 19-6 4-9-12.5L369 88h14c0 3.526 11 13.011 11 19Z"/><path fill="#1B7F64" id="SSp-n2/3" d="M394 107h1c0-1.579 6.722-6 8-6 0-4.3-7-8.285-7-13l-1-1c-2.389 0 .94 2-.5 2-1.4 0-2.452-2-3-2l-3 2-5.5-2v1c0 3.526 11 13.011 11 19Z"/><path fill="#197E63" id="SSp-n1" d="m407 97-4 4c0-4.3-7-8.285-7-13h6c0 3.29 5 5.518 5 9Z"/><path fill="#1B7F64" id="SSp-n2/3" d="M62 107h1c0-6.627 9-13.305 9-18-2.649 0-6.826-1-11-1 0 4.182-7 8.277-7 13l8 6ZM73 88l-1 1 1-1Z"/><path fill="#1A7D62" id="SSp-bfd5" d="m88 88-1 1v-1h1Z"/><path fill="#197E62" id="SSp-n5" d="M77 119h1c0-6.525 10.844-17.344 15-21.5l8-6.5c0-2.441-9.998-3-13-3l-1 1h-1c0 3.945-17 16.084-17 23l8 7Z"/><path fill="#C7C8CC" id="alv" fill-rule="evenodd" d="M189 91c0 8.209 6.809 13 14.5 13 2.285 0 11.5-1.051 11.5-4.5l-3.5-2.5-12-6H189m-2 10 7.5 4H212c0-1.84 5-4 5-8l-5-2c-5.228 0-12.046-7-21-7-9.546 0-4 8.75-4 13ZM257 91c0 1.605-13.281 5.061-15 8.5-1.4 2.801 7.88 4.5 9.5 4.5 10.445 0 28.382-13 5.5-13m12 10c-2.068 0-4.255 2.877-6.5 4H244c0-1.738-4-3.377-4-8h1l1-1 3-1c3.79 0 11.384-7 21-7 8.708 0 3 9.907 3 13Z"/><path fill="#197E62" id="SSp-n5" d="m388 112-9 6-3-3.5c-1.93-3.859-5.387-7.775-7-11l-12-11-4-2.5c5.744 0 11.142-2 15-2h1l10 10.5 9 12.5v1Z"/><path fill="#197C64" id="SSp-bfd4" d="M379 88c0 1.93 1.93 0 0 0Z"/><path fill="#197E62" id="SSp-n5" d="m103 90-1 1 1-1Z"/><path fill="#187D62" id="SSp-n6a" d="M90 129h1c0-1.747.253-2 2-2l2-4c0-2.141 16.847-20 20-20 0-1.712 2.571-3 4-3v-1l-1-2-14-7h-1l-1 1h-1l-8 6.5c-4.156 4.156-15 14.975-15 21.5l12 10Z"/><path fill="#A9AAA8" id="chpl" d="m173 90-4 3.5c-.527 1.053.648 8.704-2 14l-7 8c0 4.634 7.269 1.115 8.5.5 8.409-4.205 22.955-26 4.5-26ZM279 90l-4 3.5c-1.745 3.489.704 10.408 2 13 1.221 2.442 16.348 15.305 19 10 1.785-3.57-4.732-5.464-6-8-3.723-7.446-.122-18.5-11-18.5Z"/><path fill="#187D62" id="SSp-n6a" d="M365 129h1l13-10v-1l-3-3.5c-1.93-3.859-5.387-7.775-7-11l-12-11-4-2.5h-1c-4.104 0-9.476 7-13 7l-1 2 8 6.5c3.816 7.632 19 13.521 19 23.5Z"/><path fill="#1A7D63" id="SSp-un6b" d="m133 92-2 1 1-2h1v1Z"/><path fill="#7ECF49" id="CA3" d="M189 91c0 8.209 6.809 13 14.5 13 2.285 0 11.5-1.051 11.5-4.5l-3.5-2.5-12-6H189ZM257 91c0 1.605-13.281 5.061-15 8.5-1.4 2.801 7.88 4.5 9.5 4.5 10.445 0 28.382-13 5.5-13Z"/><path fill="#1A7D63" id="SSp-un6b" d="M337 99v1c-1.448 0-14-7.204-14-8v-1h1l13 8Z"/><path fill="#AAA8A9" id="SEZ" d="m299 92 1 1-1-1Z"/><path fill="#1A7D63" id="SSp-un6b" d="m131 93-4 2c1.465 0 4 .109 4-2Z"/><path fill="#AAA8A9" id="SEZ" d="m155 93-1 1 1-1ZM311 102l-3 1c0-5.892-7-8.406-7-10 3.675 0 10 5.192 10 9ZM154 94l-2 1 2-1Z"/><path fill="#CBC8CC" id="df" d="M240 97h1l1-1 3-1c0-1.265-6.292-1.604-7.5-1-4.745 2.373-14.255 2.373-19 0-1.14-.57-6.5-.263-6.5 1l5 2 12.5 2c2.837-1.418 7.169-2 10.5-2Z"/><path fill="#1A7D63" id="SSp-un6b" d="m127 95-4 2c1.465 0 4 .109 4-2Z"/><path fill="#AAA8A9" id="SEZ" d="m145 102 3 1c0-3.715 4-5.378 4-8-2.256 0-7 4.796-7 7Z"/><path fill="#1A7D63" id="SSp-un6b" d="M119 100h1l3-3-4 2v1Z"/><path fill="#1A7E62" id="SSs1" d="M421 170h4c0-18.63-3.146-41.793-11-57.5-1.039-2.078-5.353-15.5-7-15.5l-4 4c0 3.183 6.288 16.076 8 19.5 4.668 9.336 10 38.193 10 49.5ZM31 170h5c0-11.116 4.604-39.708 9-48.5 2.556-5.112 8-14.789 8-20.5l-4-3c-2.165 0-5.908 14.315-7 16.5-7.485 14.97-11 37.832-11 55.5Z"/><path fill="#1B7E64" id="SSp-n6b" d="M337 100c0 2.647 5.981 4.481 7.5 6l16.5 16.5c.883 1.766.404 6.5 4 6.5 0-9.979-15.184-15.868-19-23.5l-8-6.5h-1v1ZM120 100c0 1.077-3.762 3-5 3 0-1.712 2.571-3 4-3h1Z"/><path fill="#1B8063" id="SSs2/3" d="M36 170c2.097 0 5.293 1 8 1 0-10.061 6.88-38.259 11-46.5 2.287-4.574 7-12.31 7-17.5l-8-6h-1c0 5.711-5.444 15.388-8 20.5-4.396 8.792-9 37.384-9 48.5Z"/><path fill="#98D5F9" id="CP" d="M130 215c0 2.231 2.386 6.728 1 9.5-3.518 7.036-17.19 10.155-24.5 6.5L96 223c-2.813 0-5.928-11.355-7-13.5-6.867-13.734-11-19.71-11-35.5 0-23.976 30.685-60.592 51.5-71 5.134-2.567 9.965-1 15.5-1l3 1c3.684 0 11 17.975 11 23v4l-1 1v1c-1.473 0-1 1.952-1 3l-1 1-1 2v1h-2l-10-2c-8.124 0-6 14.892-6 21l-5 7.5c-2.63 5.261-2.393 11.785-5 17-1.471 2.942-1.477 24.047 0 27l3 5.5Z"/><path fill="#CBC8CB" id="fi" d="M158 132c0 15.735 15.514 1 23 1 0-1.569 6.6-3 8-3l1-1h1c0-2.971 6.915-2.33 8-4.5 5.103-10.205 13-2.443 13-19.5h-17.5l-7.5-4c-2.109 0 .08 7.71-2.5 9-7.02 3.51-13.442 7.721-20 11l-5.5 5v4l-1 1v1ZM299 135l-3 4-4.5 1c-5.364-2.682-8.972-7-15.5-7h-1c0-2.128-11.578-5.039-13.5-6-5.789-2.895-15.308-10.116-18.5-16.5-.978-1.956 1-4.077 1-5.5h18.5c2.245-1.123 4.432-4 6.5-4 3.031 0 .409 7.955 4.5 10 6.304 3.152 12.601 6.801 19 10 1.19.595 2.317 4 4.5 4l1 6 1 2v2Z"/><path fill="#98D5F9" id="CP" d="m360 223-1 2c-2.935 0-6.876 4.688-9.5 6-7.932 3.966-20.702.096-24.5-7.5l1-7.5c0-.272 4.464-13.427 5-14.5 2.171-4.342-3.997-28.995-6-33-.926-1.851-3.317-10.5-6-10.5 0-5.523 3.192-21-6-21-3.708 0-5.942 2-10 2h-1l-1-2-1-1v-1l-1-1v-1l-1-2-1-6c0-8.261 11-18.795 11-22l3-1c5.79 0 10.163-1.668 15.5 1 19.747 9.873 52.5 48.595 52.5 71 0 8.632-4 15.515-4 23-1.775 0-6 10.213-6 12l-2 4-7 10Z"/><path fill="#1B8063" id="SSs2/3" d="M421 170c-2.389 0-5.987 1-9 1 0-10.714-6.696-38.892-11-47.5-2.459-4.917-6-10.657-6-16.5 0-1.579 6.722-6 8-6 0 3.183 6.288 16.076 8 19.5 4.668 9.336 10 38.193 10 49.5Z"/><path fill="#1B7E64" id="SSp-n6b" d="M115 103c-3.153 0-20 17.859-20 20l5-4.5c2.099-4.199 15-10.913 15-15.5Z"/><path fill="#187C63" id="SSs4" d="M44 171h5c0-5.146 7.707-36.913 10-41.5l9-17.5-5-5h-1c0 5.19-4.713 12.926-7 17.5-4.12 8.241-11 36.439-11 46.5ZM407 171h5c0-10.714-6.696-38.892-11-47.5-2.459-4.917-6-10.657-6-16.5h-1l-6 4v1c2.998 0 5.898 11.296 7 13.5 4.977 9.953 12 33.993 12 45.5Z"/><path fill="#1C8063" id="SSs5" d="M49 171c4.017 0 8.28 2 13 2 0-9.263 3.147-27.794 7-35.5l8-18.5-8-7h-1l-9 17.5c-2.293 4.587-10 36.354-10 41.5ZM407 172l-12 1c0-7.1-5.037-30.574-8-36.5l-8-17.5v-1l9-6c2.998 0 5.898 11.296 7 13.5 4.977 9.953 12 33.993 12 45.5v1Z"/><path fill="#A8A9AA" id="V3" fill-rule="evenodd" d="M240 126c0 1.369-9 3.826-9 6.5l2.5 2.5c12.352 6.176 15.71-9 6.5-9m-27 0-2 5.5c7.99 15.981 23.233-5.5 2-5.5m2 14 11.5 5c4.357 2.179 10.381-5 14.5-5l3-1 9-7v-1l1-1v-2c0-7.091-5.796-6.648-10.5-9-5.825-2.912-14.704-10.148-23-6l-8 6c-4.39 2.195-9.5 1.873-9.5 8 0 4.567 4.976 12 10 12l2 1Z"/><path fill="#197D63" id="SSs6a" d="m62 173 12 1c0-4.732 5.574-29 9-29 0-6.209 7-10.039 7-16l-12-10h-1l-8 18.5c-3.853 7.706-7 26.237-7 35.5ZM395 173c-4.107 0-8.469 1-12 1 0-10.491-5.532-23.564-10-32.5l-7-12.5 13-10 8 17.5c2.963 5.926 8 29.4 8 36.5Z"/><path fill="#1B7E64" id="SSp-n6b" d="m95 123-2 4c2.109 0 2-2.535 2-4Z"/><path fill="#A9AAA8" id="chpl" d="m213 126-2 5.5c7.99 15.981 23.233-5.5 2-5.5ZM240 126c0 1.369-9 3.826-9 6.5l2.5 2.5c12.352 6.176 15.71-9 6.5-9Z"/><path fill="#1B7E64" id="SSp-n6b" d="M91 129v1c1.577 0 2-1.762 2-3-1.747 0-2 .253-2 2Z"/><path fill="#CCC9C8" id="sm" d="m203 150 1 1c3.526 0 9-4.16 9-8v-4c-5.024 0-10-7.433-10-12l-1 2v17l1 2v2Z"/><path fill="#FF8F9E" id="AD" d="M203 156c0 2.003.293 3-2 3l-14-23v-3l2-3 1-1h12v17l1 2v8Z"/><path fill="#CCC9C8" id="sm" d="m255 129-1 1v-2l1 1Z"/><path fill="#FF8F9E" id="AD" d="m253 157 2 2 14-23 1-3-6.5-5c-2.568-1.284-6.486 1-8.5 1l-1 1-1 1v1c0 4.449 2 8.01 2 13l-1 2c0 1.048.473 3-1 3v7Z"/><path fill="#1A8061" id="SSs6b" d="m85 144-2 1c0-6.209 7-10.039 7-16h1v1l-2 7c-2.767 0-4 4.975-4 7ZM381 174h2c0-10.491-5.532-23.564-10-32.5l-7-12.5h-1c0 7.94 10 14.078 10 22v1l2 4v1l2 4v4l1 2v1l1 1v5Z"/><path fill="#CCC9C8" id="sm" d="m254 130-1 1 1-1ZM252 151h1v-1c0-1.048-.473-3 1-3l1-2c0-4.99-2-8.551-2-13l-9 7v5c0 3.364 4.908 7 8 7Z"/><path fill="#FF909D" id="LD" d="M177 136h10v-3h-6l-4 3ZM286 143h1l2-2c0-4.862-13-3.572-13-8h-6l-1 3c5.188 0 17-.436 17 7Z"/><path fill="#97D6F9" id="STR" d="M299 135h1l-1-1v1ZM157 135l-1 1 1-1Z"/><path fill="#FF909D" id="LD" d="m177 136-2 1 2-1Z"/><path fill="#FD909E" id="AV" d="M190 167c-1.222 0-5 6.549-5 8-1.941 0-7-6.754-7-9 0-.978-2.267-7-3-7v-2c0-1.238-.423-3-2-3v-3l-2-3v-5c0-2.773 4-3.67 4-6l2-1h10l14 23v3l-11 5ZM267 168c1.948 0 4 5.428 4 7 2.974 0 8-7.307 8-10l2-4v-2l1-2v-1l1-1v-2l1-1v-1l1-1v-2c0-1.048-.473-3 1-3v-2c0-7.436-11.812-7-17-7l-14 23 1 3c1.661 0 11 4.467 11 6Z"/><path fill="#97D6F9" id="STR" d="m300 136 1 1-1-1Z"/><path fill="#C9C9CA" id="scwm" d="M89 137c-2.767 0-4 4.975-4 7 .994 0 4-5.757 4-7Z"/><path fill="#CCC" d="M155 170c0 8.458 10 15.214 10 24.5 0 .794 2.535 8.5-.5 8.5-3.77 0-9.885-18-11.5-18 0-4.2-11.739-27-16-27 0-6.108-2.124-21 6-21l4 6 8 10c-4.641 0-6.832 10-3 10v1l1 1v2l2 2v1Z"/><path fill="#97D6F9" id="STR" d="M152 141c-1.624 0-2.75 2-5 2l-4-6 10 2-1 2Z"/><path fill="#FF909D" id="LD" d="m168 140 3 3c0-2.773 4-3.67 4-6-1.647 0-7 1.268-7 3Z"/><path fill="#97D6F9" id="STR" d="m305 142 4 1c1.617 0 4-4.583 4-6-3.708 0-5.942 2-10 2l2 3Z"/><path fill="#CCC" d="M303 185v1c-2.262 0-6.256 14.378-9.5 16-4.582 2.291-2.5-6-2.5-8 0-7.343 8-12.848 8-20 1.577 0 2-1.762 2-3v-1l1-1 1-2v-1l1-1v-1l1-1v-2c2.446 0-.071-8-4-8 0-3.741 8-5.783 8-10 1.617 0 4-4.583 4-6 9.192 0 6 15.477 6 21-3.505 0-15 22.612-15 26l-1 1Z"/><path fill="#CAC7CB" id="fiber tracts" d="m164 144-1 1c0-2.829-5.517-6-8-6v-1c2.993 0 9 2.682 9 6ZM299 139h2c0-1.399-2-1.399-2 0Z"/><path fill="#C8CBC7" id="st" d="M163 145c0 1.623-.005 6-2 6-5.41 0-9-4.97-9-10l1-2h2c2.483 0 8 3.171 8 6Z"/><path fill="#FF6F80" id="TH" d="M213 143h2v-3l-2-1v4ZM242 143l2 1v-5l-3 1 1 3Z"/><path fill="#CAC7CB" id="fiber tracts" d="M299 139c0 2.109-2.535 2-4 2l1-2h3Z"/><path fill="#C8CBC7" id="st" d="m294 148 1 3c3.979 0 10-4.783 10-9l-2-3h-4c0 2.109-2.535 2-4 2l-1 7Z"/><path fill="#FF6F80" id="TH" d="M171 143v4c-1.82 0-2.097-4-6-4l3-3 3 3Z"/><path fill="#FE8F9E" id="PVT" d="M225 171c.706 0 6-2.726 6 0 2.087 0 4-8.909 4-11 0-4.564 1.223-17 7-17l-1-3c-4.119 0-10.143 7.179-14.5 5l-11.5-5v3c5.63 0 6 13.977 6 18l4 10Z"/><path fill="#CAC7CB" id="fiber tracts" d="m155 153 1 2c1.85 0 5-2.23 5-4-5.41 0-9-4.97-9-10-1.624 0-2.75 2-5 2l8 10Z"/><path fill="#FF6F80" id="TH" d="M287 143h4l-2-2-2 2Z"/><path fill="#CAC7CB" id="fiber tracts" d="M292 143c0 .671 1.328 5 2 5l1-7c-2.215 0-1.519 2-3 2ZM301 153l-1 2c-1.247 0-5-2.467-5-4 3.979 0 10-4.783 10-9l4 1c0 4.217-8 6.259-8 10Z"/><path fill="#FD8F9F" id="RT" d="M179 209h1l1-1c3.331 0 7.663-.582 10.5-2 3.028-1.514 7.882 1 10.5 1 3.162 0 2 .109 2-2l-3-4-5-4h-1l-3-2c-2.354 0-7-3.377-7-6-2.001 0-8-6.235-8-9-4.386 0-2-6.449-2-8l1-7c0-1.564-1-3.876-1-6v-2l-2-3v-3c-1.577 0-2-1.762-2-3v-1c-1.82 0-2.097-4-6-4l-1 1-1 1c0 1.623-.005 6-2 6 0 1.77-3.15 4-5 4-4.358 0-4 4.781-4 8v1l1 1v2l2 2v1l6 9.5c2.108 4.216 4.915 7.829 7 12 3.151 6.302.866 17.5 11 17.5Z"/><path fill="#FD909D" id="MD" d="M221 161c-3.806 0-7.237 3-12 3l-6-8v-4l1-1c3.526 0 9-4.16 9-8h2c5.63 0 6 13.977 6 18ZM235 160c1.095 0 6.757 4 12 4l6-7v-5l-1-1c-3.092 0-8-3.636-8-7l-2-1c-5.777 0-7 12.436-7 17Z"/><path fill="#FF6F80" id="TH" d="m287 143-1 2v-2h1Z"/><path fill="#FD8F9F" id="RT" d="M276 209h1c10.894 0 8.819-13.137 12-19.5l6-9c.735-1.47 1.53-6.5 4-6.5 0-1.238.423-3 2-3v-1l1-1 1-2v-1l1-1v-1l1-1v-2c0-2.8-1.875-6-5-6-1.247 0-5-2.467-5-4l-1-3c-.672 0-2-4.329-2-5h-5l-1 2c0 1.048.473 3-1 3v2l-1 1v1l-1 1v2l-1 1v1l-1 2v13c2.202 0 .841 7-1 7l-1 1c0 1.662-5.179 9-7 9 0 2.425-5.116 5-7 5l-1 1h-1l-1 1-1 1-2 1-3 2-1 1-3 4c0 1.747.253 2 2 2l10.5-1c2.587 1.294 7.563 2 10.5 2l1 1Z"/><path fill="#C9C9CA" id="scwm" d="M83 145v3c2.109 0 2-2.535 2-4l-2 1Z"/><path fill="#1A8061" id="SSs6b" d="M74 174h1v-3l1-1v-2l1-2v-3l1-1v-2l1-2v-1l1-2 1-2c0-1.048-.473-3 1-3l1-2v-3c-3.426 0-9 24.268-9 29Z"/><path fill="#FF6F80" id="TH" d="m255 145-1 2 1-2ZM286 145c-1.473 0-1 1.952-1 3 1.473 0 1-1.952 1-3ZM202 146l1 2-1-2ZM254 147c-1.473 0-1 1.952-1 3 1.473 0 1-1.952 1-3Z"/><path fill="#C9C9CA" id="scwm" d="m83 148-1 2 1-2Z"/><path fill="#FF6F80" id="TH" d="m171 148 2 3c-1.577 0-2-1.762-2-3Z"/><path fill="#C9C9CA" id="scwm" d="M82 150c-1.473 0-1 1.952-1 3 1.473 0 1-1.952 1-3Z"/><path fill="#FF6F80" id="TH" d="m204 151-1 1v-2l1 1ZM285 150l-1 1 1-1ZM253 151v1l-1-1h1ZM284 152l-1 1 1-1Z"/><path fill="#C9C9CA" id="scwm" d="m375 152 2 4-2-4ZM81 153l-1 2 1-2Z"/><path fill="#8599CC" id="PAL" d="M156 155c-4.358 0-4 4.781-4 8-3.832 0-1.641-10 3-10l1 2ZM300 155c3.125 0 5 3.2 5 6 2.446 0-.071-8-4-8l-1 2Z"/><path fill="#FF6F80" id="TH" d="M173 154c1.577 0 2 1.762 2 3l-2-3Z"/><path fill="#C9C9CA" id="scwm" d="m80 155-1 2 1-2Z"/><path fill="#FF6F80" id="TH" d="m283 155-1 1 1-1Z"/><path fill="#FC8E9F" id="IAD" d="M219 185c-1.481 0-.785 2-3 2 0-6.734-15-20.905-15-25v-3c2.293 0 2-.997 2-3l6 8c0 5.43 10 13.845 10 21ZM238 185c0 1.577 1.762 2 3 2 0-3.191 13.068-25 15-25l-1-3-2-2-6 7c0 5.794-9 13.198-9 21Z"/><path fill="#FF6F80" id="TH" d="m282 157-1 2 1-2Z"/><path fill="#C9C9CA" id="scwm" d="m377 157 2 4-2-4ZM79 158l-1 2 1-2Z"/><path fill="#8598CC" id="GPe" d="m130 215 3 2c2.824 0 8.268 2.616 11.5 1 3.047-1.523 7.55-1.6 9.5-5.5 1.643-3.286 2.881-18.238 1-22l-2-5.5c0-4.2-11.739-27-16-27l-5 7.5c-2.63 5.261-2.393 11.785-5 17-1.471 2.942-1.477 24.047 0 27l3 5.5ZM326 216l-3 1c-2.824 0-8.268 2.616-11.5 1-2.357-1.179-7.101-1.702-8.5-4.5-1.911-3.822-4.392-17.215-2-22 1.042-2.084 2-2.908 2-5.5v-1l1-1c0-3.388 11.495-26 15-26 2.683 0 5.074 8.649 6 10.5 2.003 4.005 8.171 28.658 6 33-.536 1.073-5 14.228-5 14.5Z"/><path fill="#FF6F80" id="TH" d="m176 165 2 1c0-.978-2.267-7-3-7 0 2.124 1 4.436 1 6Z"/><path fill="#FF909F" id="PT" d="M237 185h1c0-7.802 9-15.206 9-21-5.243 0-10.905-4-12-4 0 2.091-1.913 11-4 11 0 2.603 2.062 14 6 14ZM222 183c-1.481 0-.785 2-3 2 0-7.155-10-15.57-10-21 4.763 0 8.194-3 12-3l4 10-2 11-1 1Z"/><path fill="#FF6F80" id="TH" d="M279 165h2v-4l-2 4Z"/><path fill="#C9C9CA" id="scwm" d="m78 162-1 1 1-1Z"/><path fill="#FD8D9F" id="AMd" d="M207 193h2l1-1 3-1 3-4c0-6.734-15-20.905-15-25l-11 5c0 3.292 13.745 26 17 26ZM248 193h2c5.635 0 14.249-25 17-25 0-1.533-9.339-6-11-6-1.932 0-15 21.809-15 25l2 4 5 2Z"/><path fill="#8599CC" id="PAL" d="m305 163-1 1 1-1ZM152 164l1 1-1-1Z"/><path fill="#FD7E84" id="VAL" d="M185 189h3c0-4.833-3-8.736-3-14-1.941 0-7-6.754-7-9l-2-1-1 7c1.059 0 2 6.743 2 8 0 2.765 5.999 9 8 9ZM268 189h4c1.821 0 7-7.338 7-9l1-1 1-7v-7h-2c0 2.693-5.026 10-8 10 0 5.336-3 9.658-3 14Z"/><path fill="#8599CC" id="PAL" d="m304 165-1 1 1-1Z"/><path fill="#C9C9CA" id="scwm" d="m379 165 1 2-1-2ZM77 166l-1 2 1-2Z"/><path fill="#8599CC" id="PAL" d="m153 167 2 2-2-2Z"/><path fill="#FC909D" id="AMv" d="M195 197h1c2.459 0 11 2.037 11-4-3.255 0-17-22.708-17-26-1.222 0-5 6.549-5 8 0 5.264 3 9.167 3 14l3 4 4 4Z"/><path fill="#8599CC" id="PAL" d="m303 167-1 2 1-2Z"/><path fill="#FC909D" id="AMv" d="m261 197-2 1c-3.429 0-9-.569-9-5 5.635 0 14.249-25 17-25 1.948 0 4 5.428 4 7 0 5.336-3 9.658-3 14-1.077 0-3 3.762-3 5l-1 1h-1l-1 1-1 1Z"/><path fill="#C9C9CA" id="scwm" d="m380 168 1 1-1-1Z"/><path fill="#8599CC" id="PAL" d="m302 169-1 1 1-1Z"/><path fill="#12AD83" id="VISC1" d="m41 198-6 1c-1.93 0-2-6.225-2-8l-2-6.5V170h5l1 18.5 4 9.5Z"/><path fill="#12AC83" id="VISC2/3" d="M49 195c0 1.446-6.754 3-8 3l-4-9.5-1-18.5c2.097 0 5.293 1 8 1 0 10.692 5 17.781 5 24Z"/><path fill="#C9C9CA" id="scwm" d="m76 170-1 1 1-1Z"/><path fill="#8599CC" id="PAL" fill-rule="evenodd" d="M164 209c0 9.133 7.993 0 0 0m-21 16c0-3.804 23-12.241 23 4 1.233 0 2.379-7.258 3-8.5.738-1.475 4-5.782 4-6.5l1-1h1c0-1.712 2.571-3 4-3v-1c-10.134 0-7.849-11.198-11-17.5-2.085-4.171-4.892-7.784-7-12l-6-9.5c0 8.458 10 15.214 10 24.5 0 .794 2.535 8.5-.5 8.5-3.77 0-9.885-18-11.5-18l2 5.5c1.881 3.762.643 18.714-1 22-1.95 3.9-6.453 3.977-9.5 5.5-3.232 1.616-8.676-1-11.5-1l9 8h1Z"/><path fill="#FD8E9E" id="CM" d="M219 189h18v-4c-3.938 0-6-11.397-6-14 0-2.726-5.294 0-6 0l-2 11-1 1c-1.481 0-.785 2-3 2v4Z"/><path fill="#12AC83" id="VISC2/3" d="M415 198h1c0-2.772 1.833-5.167 3-7.5 1.982-3.965 2-15.401 2-20.5-2.389 0-5.987 1-9 1 0 4.431.858 10.783-1 14.5l-4 9.5c0 2.501 8 1.013 8 3Z"/><path fill="#12AD83" id="VISC1" d="m416 198 5 1c3.855 0 4-23.987 4-29h-4c0 5.099-.018 16.535-2 20.5-1.167 2.333-3 4.728-3 7.5Z"/><path fill="#11AC82" id="VISC4" d="M49 195h2c0-3.733-1.446-7.391-3-10.5-1.84-3.678 1-10.096 1-13.5h-5c0 10.692 5 17.781 5 24Z"/><path fill="#12AD82" id="VISC5" d="M51 195h1c4.514 0 8.092-2 13-2 0-4.453-3-12.448-3-20-4.72 0-8.983-2-13-2 0 3.404-2.84 9.822-1 13.5 1.554 3.109 3 6.767 3 10.5Z"/><path fill="#8599CC" id="PAL" d="M301 171c-1.577 0-2 1.762-2 3 1.577 0 2-1.762 2-3Z"/><path fill="#11AC82" id="VISC4" d="M405 195h2l4-9.5c1.858-3.717 1-10.069 1-14.5h-5v1l2 8.5c-1.567 3.133-4 11.15-4 14.5Z"/><path fill="#C7CACA" id="em" d="M175 172c1.059 0 2 6.743 2 8-4.386 0-2-6.449-2-8ZM281 172c2.202 0 .841 7-1 7l1-7Z"/><path fill="#12AD82" id="VISC5" d="m392 193 13 2c0-3.35 2.433-11.367 4-14.5l-2-8.5-12 1c0 7.088-3 13.396-3 20Z"/><path fill="#11AC83" id="VISC6a" d="M76 190c0 .745-9.679 3-11 3 0-4.453-3-12.448-3-20l12 1c0 4.872 2 10.773 2 16ZM391 193h1c0-6.604 3-12.912 3-20-4.107 0-8.469 1-12 1 0 5.789-3 10.945-3 16l11 3Z"/><path fill="#11AD82" id="VISC6b" d="M77 190h1c0-5.06-3-9.973-3-16h-1c0 4.872 2 10.773 2 16h1Z"/><path fill="#C8CBCC" id="ec" d="M111 241v1c-2.079 0-3.187-3-6-3l-3-3-1-1-2-2v-1l-3-4-1-3-1-1-9-18-2-3-4-10-1-3c0-5.06-3-9.973-3-16h3c0 15.79 4.133 21.766 11 35.5 1.072 2.145 4.187 13.5 7 13.5l7 10 8 8Z"/><path fill="#8599CC" id="PAL" fill-rule="evenodd" d="M289 209c0 9.867 8.089 0 0 0m24 16h1l9-8c-2.824 0-8.268 2.616-11.5 1-2.357-1.179-7.101-1.702-8.5-4.5-1.911-3.822-4.392-17.215-2-22 1.042-2.084 2-2.908 2-5.5-2.262 0-6.256 14.378-9.5 16-4.582 2.291-2.5-6-2.5-8 0-7.343 8-12.848 8-20-2.47 0-3.265 5.03-4 6.5l-6 9c-3.181 6.363-1.106 19.5-12 19.5v1c1.429 0 4 1.288 4 3 5.88 0 7.718 16 10 16 0-16.014 22-8.305 22-4Z"/><path fill="#C8CBCC" id="ec" d="m378 193-3 4c0-7.485 4-14.368 4-23h2c0 5.228-2 10.432-2 16-1.473 0-1 1.952-1 3Z"/><path fill="#11AD82" id="VISC6b" d="M379 190h1c0-5.055 3-10.211 3-16h-2c0 5.228-2 10.432-2 16Z"/><path fill="#C7CACA" id="em" d="m280 179-1 1 1-1Z"/><path fill="#FF6F80" id="TH" d="m223 182-1 1 1-1Z"/><path fill="#8599CC" id="PAL" d="m304 184-1 1 1-1Z"/><path fill="#FF6F80" id="TH" d="M219 189c0 .913-5.014 2-6 2l3-4c2.215 0 1.519-2 3-2v4ZM237 189l6 2-2-4c-1.238 0-3-.423-3-2h-1v4Z"/><path fill="#FF7E84" id="VM" d="m191 193 1 2c-2.354 0-7-3.377-7-6h3l3 4Z"/><path fill="#FD909F" id="RE" fill-rule="evenodd" d="M225 199c0 1.947-3.428 3.644-2 6.5l3.5 7.5c3.045 1.523 14.503-14-1.5-14m3 18h1c9.776 0 16.709-5.918 21-14.5l-2-9.5-5-2-6-2h-18c0 .913-5.014 2-6 2l-3 1-1 1c0 2.608-3.889 6.723-2 10.5 4.384 8.768 11.523 13.5 21 13.5Z"/><path fill="#FF7E84" id="VM" d="M272 189c0 2.425-5.116 5-7 5 0-1.238 1.923-5 3-5h4Z"/><path fill="#209766" id="AIp6a" d="M75 213h1c0-4.83 4.746-7 9-7l-2-3c0 4.619-5.875 1.75-7-.5-2.267-4.535 1-6.705 1-10.5v-2h-1c0 .745-9.679 3-11 3 0 6.966 9 12.868 9 20h1Z"/><path fill="#219666" id="AIp6b" d="m77 192 2 1-1-3h-1v2ZM378 193h1l1-3h-1c-1.473 0-1 1.952-1 3Z"/><path fill="#209766" id="AIp6a" d="M381 213h1c0-6.782 9-13.04 9-20l-11-3-1 3c4.346 0 1.37 13-1.5 13l-4.5-2v1c2.304 0 8 5.677 8 8Z"/><path fill="#8ADA86" id="CLA" d="m79 193 4 10c0 4.619-5.875 1.75-7-.5-2.267-4.535 1-6.705 1-10.5l2 1Z"/><path fill="#FF6F80" id="TH" d="m210 192-1 1 1-1Z"/><path fill="#219864" id="AIp5" d="m74 213-7 3c0-3.733-15-14.035-15-21 4.514 0 8.092-2 13-2 0 6.966 9 12.868 9 20Z"/><path fill="#FF6F80" id="TH" d="m192 195 3 2-4-4 1 2ZM221 219h6l1-2c-9.477 0-16.616-4.732-21-13.5-1.889-3.777 2-7.892 2-10.5h-2c0 6.037-8.541 4-11 4l5 4c0-5.263 7.659 4 3 4 0 2.109 1.162 2-2 2l1 2 10.5 7c1.401.7 7.5 1.039 7.5 3ZM229 219h6l18-9 1-3c-1.747 0-2-.253-2-2-3.862 0 4-9.474 4-5l3-2c-3.429 0-9-.569-9-5h-2l2 9.5c-4.291 8.582-11.224 14.5-21 14.5v2Z"/><path fill="#8ADA86" id="CLA" d="m375 197-2 7 4.5 2c2.87 0 5.846-13 1.5-13h-1l-3 4Z"/><path fill="#219864" id="AIp5" d="m382 213 7 3c1.447 0 16-18.921 16-21l-13-2h-1c0 6.96-9 13.218-9 20Z"/><path fill="#FF7E84" id="VM" d="m265 194-1 1 1-1Z"/><path fill="#209865" id="AIp2/3" d="M67 216c0 .092-8.167 4-9 4 0-1.967-17-15.055-17-22 1.246 0 8-1.554 8-3h3c0 6.965 15 17.267 15 21Z"/><path fill="#FF6F80" id="TH" d="m263 195-1 1 1-1Z"/><path fill="#209865" id="AIp2/3" d="M389 216c0 .411 8.864 4 10 4 0-2.146 16-14.011 16-22 0-1.987-8-.499-8-3h-2c0 2.079-14.553 21-16 21Z"/><path fill="#FF6F80" id="TH" d="m262 196-1 1 1-1ZM261 197l-2 1 2-1Z"/><path fill="#C8CBCC" id="ec" d="m372 206-3 3c0-1.787 4.225-12 6-12l-2 7v1l-1 1Z"/><path fill="#219765" id="AIp1" d="m58 220-5 2c-2.358 0-18-19.16-18-23l6-1c0 6.945 17 20.033 17 22ZM399 220l5 2c2.778 0 17-19.576 17-23l-5-1h-1c0 7.989-16 19.854-16 22Z"/><path fill="#FD909C" id="PR" d="m201 201 3 4c4.659 0-3-9.263-3-4Z"/><path fill="#FC8F9F" id="Xi" d="M225 199c0 1.947-3.428 3.644-2 6.5l3.5 7.5c3.045 1.523 14.503-14-1.5-14Z"/><path fill="#FD909C" id="PR" d="m255 201-3 4c-3.862 0 4-9.474 4-5l-1 1Z"/><path fill="#FF6F80" id="TH" d="m256 200-1 1 1-1Z"/><path fill="#209766" id="AIp6a" d="m373 205-1 1 1-1Z"/><path fill="#A0EE9C" id="EPd" d="m360 232 2 1c3.066 0 4.417-2 7-2l2-2 1-2 1-1h1v-1l1-1c0-1.238.423-3 2-3 0-1.49 2.206-8 4-8 0-2.323-5.696-8-8-8l-1 1-3 3c0 1.465.109 4-2 4 0 5.423-6 9.092-6 14l-1 1v4ZM94 233h2l1-1-1-4-1-3-1-1-9-18c-4.254 0-9 2.17-9 7l6 12h1c1.186 0 1.186 1 0 1 0 2.535 7.914 7 11 7Z"/><path fill="#F0483B" id="ZI" d="M203 209c0 15.336-24 3.258-24 1l1-1 1-1c3.331 0 7.663-.582 10.5-2 3.028-1.514 7.882 1 10.5 1l1 2ZM253 210c0 13.001 24 3.648 24 0v-1h-1l-1-1c-2.937 0-7.913-.706-10.5-2l-10.5 1-1 3Z"/><path fill="#8599CC" id="PAL" d="m181 208-1 1 1-1ZM275 208l1 1-1-1Z"/><path fill="#CCCACB" id="nst" d="M164 209c0 9.133 7.993 0 0 0Z"/><path fill="#E64438" id="HY" d="m180 209-1 1v-1h1Z"/><path fill="#E64438" id="HY" fill-rule="evenodd" d="m201 221-3.5 2c-1.982 1.982-5.993 10.003-2 12 3.461 1.73 17.244-14 5.5-14m20 18-2 1c0-10.931-23-6.963-23-1-1.729 0-5-7.599-5 0-2.475 0-1.04-11.581-2-13.5-.714-1.428-5-7.032-5-7.5 4.119 0-3-6.786-3-3-2.447 0-3.28-2-6-2 0-1.712 2.571-3 4-3 0 2.258 24 14.336 24-1l10.5 7c1.401.7 7.5 1.039 7.5 3-18.622 0 0 10.378 0 20Z"/><path fill="#CCCACB" id="nst" d="M289 209c0 9.867 8.089 0 0 0Z"/><path fill="#C8CBCC" id="ec" d="m369 209-2 4c2.109 0 2-2.535 2-4Z"/><path fill="#E64438" id="HY" fill-rule="evenodd" d="M253 221c0 1.068-2 1.214-2 5 0 1.724 7.766 9.867 9.5 9 6.341-3.171-1.632-14-7.5-14m8 18c-3.532 0-9.795-9.853-17.5-6-1.976.988-6.235 8-6.5 8 0-1.747-.253-2-2-2l2-2.5c1.671-3.342 2.285-7.57 4-11 .783-1.566 4.15-2.7 3-5-1.278-2.555-6.577-1.5-9-1.5l18-9c0 13.001 24 3.648 24 0 1.429 0 4 1.288 4 3l-5 2c0-4.103-7.885 3-4 3l-4 5.5-2 14.5c-.358 0-5-6.248-5 1Z"/><path fill="#6ACAB9" id="PIR" d="M111 274c0 6.319-12 19.486-12 23-3.963 0-12.34-10.18-14-13.5l-18-36c-3.043-6.086-14-19.225-14-25.5l5-2c.833 0 9-3.908 9-4l7-3h1c0 4.404 6 8.285 6 12l1 1 1 2 8 10c0 6.902 20 25.691 20 32v4Z"/><path fill="#C9C8CA" id="ee" d="M81 225h1l-6-12h-1c0 4.404 6 8.285 6 12Z"/><path fill="#E64438" id="HY" d="m174 213-1 1 1-1Z"/><path fill="#F2483A" id="LHA" d="M191 247c0 2.721-.836 6.171-2 8.5-1.128 2.257-.838 8.169-3.5 9.5-3.597 1.799-19.371-12-24.5-12l1-12 1-1 2-9 1-2c1.233 0 2.379-7.258 3-8.5.738-1.475 4-5.782 4-6.5l1-1h1c2.72 0 3.553 2 6 2 0 1.539 1.342 3 3 3 0 .468 4.286 6.072 5 7.5.96 1.919-.475 13.5 2 13.5v8ZM279 262l-2 1c-1.791 0-2.959 3.27-5.5 2-5.755-2.878-5.5-15.213-5.5-21v-6l2-14.5 4-5.5c1.429 0 4-1.288 4-3l5-2c5.88 0 7.718 16 10 16l2 10 1 1v1c0 3.823 1 8.586 1 13-2.077 0-14 4.657-14 7l-2 1Z"/><path fill="#C8CBCC" id="ec" d="m351 239-4 2c0-4.301 6-4.29 6-8 1.89 0 6-6.374 6-8l1-2 7-10c0 5.423-6 9.092-6 14l-1 1v1l-2 3-1 1-1 2h-1l-1 1-1 1-1 1-1 1Z"/><path fill="#C9C8CA" id="ee" d="M382 213c0 1.347-3.438 8-5 8 0-1.49 2.206-8 4-8h1Z"/><path fill="#6ACAB9" id="PIR" d="M345 273c0 5.715 13 22.062 13 24 4.345 0 12.29-11.08 14-14.5 7.581-15.161 15.428-29.856 23-45 1.686-3.373 9-12.279 9-15.5l-5-2c-1.136 0-10-3.589-10-4l-7-3c0 1.347-3.438 8-5 8l-1 3-1 1v1l-1 1h-1l-1 2-1 1v1l-2 2c0 1.238-.423 3-2 3l-1 2c0 6.255-20 24.663-20 32l-1 3Z"/><path fill="#CCC9C8" id="sm" d="M181 215c0 1.539 1.342 3 3 3 4.119 0-3-6.786-3-3ZM276 215c0 1.712-2.571 3-4 3-3.885 0 4-7.103 4-3Z"/><path fill="#97D6F9" id="STR" d="M130 252c-4.348 0-7.28 2-11 2-3.999 0-8-9.037-8-12v-1l1-3c4.849 0-2.845-3.673-5.5-5l-2-2 .5 2h-2l-7-10 10.5 8c7.31 3.655 20.982.536 24.5-6.5 1.386-2.772-1-7.269-1-9.5l3 2 9 8c-7.921 0-9.08-1.341-13 6.5-.595 1.19-1.826 3.347-1 5 .706 1.412 5 5.954 5 6.5-4.812 0-3 6.779-3 9ZM336 254h1c4.481 0 9-9.377 9-13l-1-3c-7.442 0 3.725-5 6-5h2c1.89 0 6-6.374 6-8-2.935 0-6.876 4.688-9.5 6-7.932 3.966-20.702.096-24.5-7.5l1-7.5-3 1-9 8c6.474 0 15-.75 15 9.5 0 2.967-5 5.995-5 8.5 5.177 0 2 7.217 2 9 3.219 0 5.683 1 9 1l1 1Z"/><path fill="#E64438" id="HY" d="M227 219h2v-2h-1l-1 2Z"/><path fill="#A2B1D7" id="SI" d="m162 241-2.5 2-8.5-1-2-3c0-4.437.066-14-6-14 0-3.804 23-12.241 23 4l-1 2-2 9-1 1Z"/><path fill="#FF5D4F" id="PVH" d="M229 241h3l3-2 2-2.5c1.671-3.342 2.285-7.57 4-11 .783-1.566 4.15-2.7 3-5-1.278-2.555-6.577-1.5-9-1.5h-14c-18.622 0 0 10.378 0 20 1.238 0 3 .423 3 2h3v-15.5c0-1.054-.338-4.5 1.5-4.5l.5 20Z"/><path fill="#A2B1D7" id="SI" d="m306 241-1 1-7.5 1-3.5-2v-1l-1-1-2-10c0-16.014 22-8.305 22-4-5.57 0-5 8.977-5 13l-1 2-1 1Z"/><path fill="#C7C8CA" id="fx" d="m201 221-3.5 2c-1.982 1.982-5.993 10.003-2 12 3.461 1.73 17.244-14 5.5-14Z"/><path fill="#A8A9AA" id="V3" d="M228 273h1v-32l-.5-20c-1.838 0-1.5 3.446-1.5 4.5v40c0 1.448-.725 7.5 1 7.5Z"/><path fill="#C7C8CA" id="fx" d="M253 221c0 1.068-2 1.214-2 5 0 1.724 7.766 9.867 9.5 9 6.341-3.171-1.632-14-7.5-14Z"/><path fill="#C9C8CA" id="ee" d="M375 224h1l1-3c-1.577 0-2 1.762-2 3Z"/><path fill="#97D6F9" id="STR" d="m360 223-1 2 1-2Z"/><path fill="#8AD987" id="CTXsp" d="m94 224 1 1-1-1Z"/><path fill="#7FC0E0" id="CEAm" d="M133 243h12l4-4c0-4.437.066-14-6-14h-1c-7.921 0-9.08-1.341-13 6.5-.595 1.19-1.826 3.347-1 5 .706 1.412 5 5.954 5 6.5ZM311 243h13c0-2.505 5-5.533 5-8.5 0-10.25-8.526-9.5-15-9.5h-1c-5.57 0-5 8.977-5 13 0 2.364 3 3.053 3 5Z"/><path fill="#C9C8CA" id="ee" d="M374 225h1v-1l-1 1Z"/><path fill="#8AD987" id="CTXsp" d="m376 224-1 1v-1h1Z"/><path fill="#99D2BD" id="OLF" d="M82 225v1l-1-1h1Z"/><path fill="#8AD987" id="CTXsp" d="m94 233-3 4c-2.042 0-4.285-9-8-9l-1-2v-1h1v1c0 2.535 7.914 7 11 7Z"/><path fill="#C9C8CA" id="ee" d="M83 225c1.186 0 1.186 1 0 1v-1Z"/><path fill="#8AD987" id="CTXsp" d="M374 226h1v-1h-1v1Z"/><path fill="#C9C8CA" id="ee" d="M372 227h1v-1l-1 1Z"/><path fill="#8AD987" id="CTXsp" d="M373 227h1v-1h-1v1Z"/><path fill="#99D2BD" id="OLF" d="m375 226-1 1v-1h1Z"/><path fill="#8AD987" id="CTXsp" d="m361 227-1 1 1-1ZM371 229h1l1-2h-1l-1 2Z"/><path fill="#99D2BD" id="OLF" d="M91 237v1l-8-10c3.715 0 5.958 9 8 9Z"/><path fill="#8AD987" id="CTXsp" d="M97 232h2l-3-4 1 4Z"/><path fill="#8599CC" id="PAL" d="m166 229-1 2 1-2Z"/><path fill="#8AD987" id="CTXsp" d="M358 232h2v-3l-2 3ZM369 231h2v-2l-2 2Z"/><path fill="#99D2BD" id="OLF" d="m372 229-1 1v-1h1Z"/><path fill="#C8CBCC" id="ec" d="M105 233c1.428 0 4.272 5 7 5 4.849 0-2.845-3.673-5.5-5l-2-2 .5 2Z"/><path fill="#8AD987" id="CTXsp" d="m367 236-1 1-4-4c3.066 0 4.417-2 7-2v2c-1.577 0-2 1.762-2 3Z"/><path fill="#99D2BD" id="OLF" d="m371 231-2 2v-2h2Z"/><path fill="#8AD987" id="CTXsp" d="m97 232-1 1 1-1Z"/><path fill="#A0ED9D" id="EPv" d="M111 270h2l2-3v-8c0-7.975-11-14.604-11-18-2.681 0-4-2.595-4-5l-1-3v-1h-2l-1 1h-2l-3 4v1c0 6.902 20 25.691 20 32ZM344 270h2c0-7.337 20-25.745 20-32v-1l-4-4-2-1h-2l-1 1-1 2c0 2.274.496 6-4 6 0 3.053-11 10.432-11 17v1c1.473 0 1 1.952 1 3v4l2 4Z"/><path fill="#8AD987" id="CTXsp" d="M100 236h1v-1l-2-2 1 3Z"/><path fill="#9DE79B" id="BLAa" d="m112 238-1 3-8-8h2c1.428 0 4.272 5 7 5Z"/><path fill="#FF4B3E" id="AHN" d="M203 271h11.5l3.5-2c0-8.999 1-19.357 1-29 0-10.931-23-6.963-23-1l-4 8c0 6.312-1.773 10.953 1 16.5l4.5 5.5c1.319.659 5.5-.334 5.5 2ZM252 271h1c0-.902 8.647-3.793 10-6.5 2.55-5.1 2-11.34 2-17.5-2.447 0-4-6.063-4-8-3.532 0-9.795-9.853-17.5-6-1.976.988-6.235 8-6.5 8 0 9.137 1 18.425 1 27l3.5 3H252Z"/><path fill="#C8CBCC" id="ec" d="M351 233c-2.275 0-13.442 5-6 5 1.442 0 6-3.274 6-5Z"/><path fill="#9DE79B" id="BLAa" d="M346 241h1c0-4.301 6-4.29 6-8h-2c0 1.726-4.558 5-6 5l1 3Z"/><path fill="#8AD987" id="CTXsp" d="m357 233-1 2 1-2Z"/><path fill="#99D2BD" id="OLF" d="M369 233c-1.577 0-2 1.762-2 3 1.577 0 2-1.762 2-3Z"/><path fill="#C8C9CB" id="amc" d="M101 236h1l-1-1v1Z"/><path fill="#F2463A" id="PeF" d="M191 247h1l4-8c-1.729 0-5-7.599-5 0v8ZM266 244c-1.473 0-1 1.952-1 3-2.447 0-4-6.063-4-8 0-7.248 4.642-1 5-1v6Z"/><path fill="#C8C9CB" id="amc" d="m355 235-1 1 1-1Z"/><path fill="#80BEE2" id="IA" d="m351 239 1 2c4.496 0 4-3.726 4-6h-1l-1 1-1 1-1 1-1 1ZM105 239l-1 2c-2.681 0-4-2.595-4-5h2l3 3Z"/><path fill="#C8C9CB" id="amc" d="m354 236-1 1 1-1Z"/><path fill="#99D2BD" id="OLF" d="M366 237v1l1-2-1 1Z"/><path fill="#C8C9CB" id="amc" d="m353 237-1 1 1-1Z"/><path fill="#97D6F9" id="STR" d="M319 260h1v-3c-3.433 0-6.799 1.85-10.5 0-6.079-3.039-5.505-14 1.5-14 0-1.947-3-2.636-3-5l-1 2-1 1-1 1c0 3.891-6 7.431-6 11 6.151 0 9 1.474 9 8l4-1 1-1h3l1 1h2Z"/><path fill="#8AD987" id="CTXsp" d="m352 238-1 1 1-1ZM119 254l-4 5c0-7.975-11-14.604-11-18l1-2c2.813 0 3.921 3 6 3 0 2.963 4.001 12 8 12Z"/><path fill="#97D6F9" id="STR" d="M150 254h8c0-4.291-7-7.523-7-12l-2-3-4 4c8.076 0 5 5.983 5 11Z"/><path fill="#FD5547" id="SBPV" d="M224 269c-1.247 0-5-1.725-5 2l-1-2c0-8.999 1-19.357 1-29l2-1c1.238 0 3 .423 3 2v28ZM232 269c3.128 0 5.28 2 6 2v-3c0-8.575-1-17.863-1-27 0-1.747-.253-2-2-2l-3 2v28Z"/><path fill="#8599CC" id="PAL" d="m293 239 1 1-1-1Z"/><path fill="#8AD987" id="CTXsp" d="m337 254 4 4c0-6.568 11-13.947 11-17l-1-2-4 2h-1c0 3.623-4.519 13-9 13Z"/><path fill="#8599CC" id="PAL" d="m163 240-1 1 1-1ZM307 240l-1 1 1-1ZM158 254l4 3-1-4 1-12-2.5 2-8.5-1c0 4.477 7 7.709 7 12Z"/><path fill="#FF5D50" id="PVa" d="M228 273c0 1.145.579 4-1 4 0-1.283-1.931-8-3-8v-28h3v24.5c0 1.448-.725 7.5 1 7.5ZM229 273v3c.733 0 3-6.022 3-7v-28h-3v32Z"/><path fill="#8599CC" id="PAL" d="M295 254v2l4-3c0-3.569 6-7.109 6-11l-7.5 1-3.5-2c0 3.823 1 8.586 1 13ZM306 241l-1 1 1-1Z"/><path fill="#80C0E2" id="AAA" d="m149 255-4.5 3c-2.568 1.284-6.486-1-8.5-1l-6-5c0-2.221-1.812-9 3-9h12c8.076 0 5 5.983 5 11l-1 1ZM326 252l-6 5c-3.433 0-6.799 1.85-10.5 0-6.079-3.039-5.505-14 1.5-14h13c5.177 0 2 7.217 2 9Z"/><path fill="#E64438" id="HY" d="M265 272h2l2-1 1-1 2-1 4-3 1-3c-1.791 0-2.959 3.27-5.5 2-5.755-2.878-5.5-15.213-5.5-21-1.473 0-1 1.952-1 3 0 6.16.55 12.4-2 17.5-1.353 2.707-10 5.598-10 6.5 2.576 0 12-4.07 12 1ZM203 271c-3.305 0-11-4.932-11 2l-4-2h-1c0-2.778-7-3.325-7-5 0-2.565-5.772-6.364-8.5-5l-4.5 6-2-1c0-3.455-3-5.917-3-9l-1-4c5.129 0 20.903 13.799 24.5 12 2.662-1.331 2.372-7.243 3.5-9.5 1.164-2.329 2-5.779 2-8.5h1c0 6.312-1.773 10.953 1 16.5l4.5 5.5c1.319.659 5.5-.334 5.5 2Z"/><path fill="#84EA80" id="BMAa" d="m117 273 5 1c2.933 0 5.321-3 9-3l2-2c0-4.435 4-8.164 4-9l-1-3-6-5c-4.348 0-7.28 2-11 2l-4 5v8l2 6ZM339 273l-4 1c-3.641 0-5.885-3-10-3l-1-1c0-2.099-.906-9-4-9v-4l6-5c3.219 0 5.683 1 9 1l1 1h1l4 4v1c0 1.048-.473 3 1 3v4c-.913 0-2 5.014-2 6l-1 1Z"/><path fill="#80BFE1" id="MEA" d="m160 281-3 1c0-1.759-.326-9-2-9 0-2.518-2-4.286-2-6l-4-5v-7l1-1h8l4 3c0 3.083 3 5.545 3 9v8c-1.577 0-2 1.762-2 3l-1 1v1l-1 1-1 1ZM296 281l2.5 2 1.5-2c0-2.072-.076-11 2-11l2-3c0-2.364 3-3.053 3-5l1-1c0-6.526-2.849-8-9-8l-4 3v1l-1 1c0 2.86-3 5.58-3 9v6l2 3v1l2 2v1l1 1Z"/><path fill="#8AD987" id="CTXsp" d="m335 253 1 1-1-1Z"/><path fill="#97D6F9" id="STR" d="m150 254-1 1 1-1Z"/><path fill="#E64438" id="HY" d="m291 267-2 1c0-4.505-3.838-7-8-7 0-2.343 11.923-7 14-7v3l-1 1c0 2.86-3 5.58-3 9Z"/><path fill="#97D6F9" id="STR" d="M148 261h1v-6l-4.5 3c-2.568 1.284-6.486-1-8.5-1l1 3h2l1-1 6 1 1 1h1Z"/><path fill="#8599CC" id="PAL" d="m295 257-1 1 1-1Z"/><path fill="#99D2BD" id="OLF" d="m140 259-1 1 1-1Z"/><path fill="#94E4C7" id="NLOT3" d="M133 269v2l2.5-2c1.754-.877 10.5-.444 10.5-3-2.113 0-2.782.141-4.5 1-5.895 2.948-4.417-11.417 3-4l1.5 3c2.409 0 5.181 1 7 1l-4-5-1-1h-1l-1-1-6-1-1 1h-2c0 .836-4 4.565-4 9Z"/><path fill="#99D2BD" id="OLF" d="m313 259-1 1 1-1Z"/><path fill="#94E4C7" id="NLOT3" fill-rule="evenodd" d="M314 261c0 2.24-4.399 1.703-3 4.5 3.105 6.209 14.177-4.5 3-4.5m10 9v2l-3.5-3c-5.127-2.563-11.41-2-16.5-2 0-2.364 3-3.053 3-5l1-1 4-1 1-1h3l1 1h2l1 1c3.094 0 4 6.901 4 9Z"/><path fill="#99D2BD" id="OLF" d="m316 259 1 1-1-1Z"/><path fill="#8AD987" id="CTXsp" d="M341 259c1.473 0 1 1.952 1 3-1.473 0-1-1.952-1-3Z"/><path fill="#99D2BD" id="OLF" d="m146 260 1 1-1-1ZM320 260v1l-1-1h1Z"/><path fill="#C7CAC8" id="stc" d="m146 266-1.5-3c-7.417-7.417-8.895 6.948-3 4 1.718-.859 2.387-1 4.5-1Z"/><path fill="#99D2BD" id="OLF" d="M149 261v1l-1-1h1Z"/><path fill="#FE5B50" id="SO" d="m168 270 2 1c0-4.57 6.938-5 10-5 0-2.565-5.772-6.364-8.5-5l-4.5 6v1l1 1v1Z"/><path fill="#E64438" id="HY" d="m281 261-2 1 2-1Z"/><path fill="#FE5B50" id="SO" d="m288 270-2 1c0-4.898-6.34-5-10-5l1-3 2-1 2-1c4.162 0 8 2.495 8 7l-1 2Z"/><path fill="#97D6F9" id="STR" d="m308 261-1 1 1-1Z"/><path fill="#C7CAC8" id="stc" d="M314 261c0 2.24-4.399 1.703-3 4.5 3.105 6.209 14.177-4.5 3-4.5Z"/><path fill="#E64438" id="HY" d="m279 262-2 1 2-1Z"/><path fill="#95E3C8" id="NLOT2" d="m136 282 1 1c7.417 0 18-.356 18-10 0-2.518-2-4.286-2-6-1.819 0-4.591-1-7-1 0 2.556-8.746 2.123-10.5 3l-2.5 2v1c0 2.482-.669 10 3 10Z"/><path fill="#8599CC" id="PAL" d="M168 269v1c0 2.276-2.078-1-3-1v-3l2 1v1l1 1Z"/><path fill="#CAC7CB" id="fiber tracts" d="M187 271c-3.55 0-16-6.089-16 2l-1-2c0-4.57 6.938-5 10-5 0 1.675 7 2.222 7 5ZM286 271c0 1.145.579 4-1 4 0-7.763-7.027-6-13-6l4-3c3.66 0 10 .102 10 5Z"/><path fill="#95E3C8" id="NLOT2" d="M319 283h1l1-1c0-2.842 3-6.091 3-10l-3.5-3c-5.127-2.563-11.41-2-16.5-2l-2 3c0 11.725 6.455 13 17 13Z"/><path fill="#8AD987" id="CTXsp" d="m344 270-4 2c0-.986 1.087-6 2-6l2 4ZM113 270l4 3-2-6-2 3Z"/><path fill="#8599CC" id="PAL" d="m291 269-3 1 1-2 2-1v2Z"/><path fill="#E64438" id="HY" d="m167 268 1 1-1-1Z"/><path fill="#FF5545" id="SCH" d="M227 277c0 5.861-5.333 3-8 3l-2-5 2-4c0-3.725 3.753-2 5-2 1.069 0 3 6.717 3 8ZM229 276c0 8.021 5.785 3 9 3l1-4-1-4c-.72 0-2.872-2-6-2 0 .978-2.267 7-3 7Z"/><path fill="#E64438" id="HY" d="M252 271c0 .476-11.859 4-13 4l-1-4v-3l3.5 3H252Z"/><path fill="#99D2BD" id="OLF" d="M133 271v1l-2-1 2-2v2Z"/><path fill="#CACCCB" id="opt" d="M199 281v6c-9.621 0-27.676-13-28-13v-1c0-8.089 12.45-2 16-2h1l5 4h1l5 6Z"/><path fill="#F2483B" id="RCH" d="M214 283h5v-3l-2-5c-1.026 0-13-3.87-13-4h-1c-3.305 0-11-4.932-11 2l1 2h1l10.5 6c1.479.74 9.5.079 9.5 2Z"/><path fill="#E64438" id="HY" d="m219 271-2 4c-1.026 0-13-3.87-13-4h10.5l3.5-2 1 2Z"/><path fill="#F2483B" id="RCH" d="M238 283h5c0-1.921 8.021-1.26 9.5-2l7.5-4 1-1 2-1 1-1 1-1v-1c0-5.07-9.424-1-12-1h-1c0 .476-11.859 4-13 4l-1 4v4Z"/><path fill="#CAC7CB" id="fiber tracts" d="m272 269-2 1 2-1Z"/><path fill="#CACCCB" id="opt" d="M268 285c-3.982 0-6.704 2-11 2v-6l3-4 1-1 2-1 1-1 1-1 2-1 2-1 1-1 2-1c5.973 0 13-1.763 13 6l-2 2c-1.301 0-7 2.496-7 4l-4 2-4 2Z"/><path fill="#99D2BD" id="OLF" d="m122 274-3 3c0-4.893-5.533-3-8-3v-4h2l4 3 5 1Z"/><path fill="#CAC7CB" id="fiber tracts" d="m270 270-1 1 1-1Z"/><path fill="#95E4C7" id="NLOT1" d="M319 285v8c0 2.334-5.3 3.1-7.5 2-5.358-2.679-11.5-7.336-11.5-14 0-2.072-.076-11 2-11 0 11.725 6.455 13 17 13v2Z"/><path fill="#99D2BD" id="OLF" d="m325 271-1 1v-2l1 1ZM340 273h5l1-3h-2l-4 2v1Z"/><path fill="#60E5B7" id="COAa" d="m137 293-2.5 2c-1.387.694-11.5 2.864-11.5 1l-2-2.5c-2.107-4.214-2-11.473-2-16.5l3-3c2.933 0 5.321-3 9-3l2 1c0 2.482-.669 10 3 10l1 2v9Z"/><path fill="#97D6F9" id="STR" d="M165 271c1.399 0 1.399 2 0 2v-2Z"/><path fill="#CAC7CB" id="fiber tracts" d="m192 273 1 2-5-4 4 2ZM269 271l-2 1 2-1Z"/><path fill="#60E5B7" id="COAa" d="m319 293 2.5 2c3.924 1.962 8.852 1 12.5 1 0-5.86 3-12.026 3-19l-2-3c-3.641 0-5.885-3-10-3l-1 1c0 3.909-3 7.158-3 10l-1 1-1 2v8Z"/><path fill="#CAC7CB" id="fiber tracts" d="m267 272-2 1v-1h2Z"/><path fill="#8AD987" id="CTXsp" d="M339 273h1v-1l-1 1Z"/><path fill="#59D9AA" id="PAA" d="M110 301h3c0-2.064 3.353-.426 4.5-1 1.143-.571 5.224-4 5.5-4l-2-2.5c-2.107-4.214-2-11.473-2-16.5 0-4.893-5.533-3-8-3 0 6.319-12 19.486-12 23 0 1.638 3.576 2 5 2l1 1h3l2 1Z"/><path fill="#95E4C7" id="NLOT1" d="M145 295h1l1-1 2-1 2-1 1-1c0-2.649 5-5.752 5-9 0-1.759-.326-9-2-9 0 9.644-10.583 10-18 10v10c0 3.221 5.375 2 8 2Z"/><path fill="#E64438" id="HY" d="M230 283h8v-4c-3.215 0-9 5.021-9-3v-3h-1c0 1.145.579 4-1 4 0 5.861-5.333 3-8 3v3h8l1-2c0-1.186 1-1.186 1 0l1 2Z"/><path fill="#CAC7CB" id="fiber tracts" d="m265 273-1 1 1-1Z"/><path fill="#97D6F9" id="STR" d="m291 273 2 3c-1.577 0-2-1.762-2-3Z"/><path fill="#99D2BD" id="OLF" d="m335 274 2 3 3-4h-1l-4 1Z"/><path fill="#59D9AA" id="PAA" d="M343 301h4l2-1h2l1-1c2.483 0 4.026-2 6-2 0-1.938-13-18.285-13-24h-5l-3 4c0 6.974-3 13.14-3 19 0 4.331 9 3.152 9 5Z"/><path fill="#97D6F9" id="STR" d="M165 274c-1.577 0-2 1.762-2 3 1.577 0 2-1.762 2-3Z"/><path fill="#CAC7CB" id="fiber tracts" d="M227 285c-9.797 0-18.799 2-28 2-9.621 0-27.676-13-28-13 0 5.294 5.213 5.356 8.5 7 14.715 7.358 15.078 7 31.5 7 2.121 0 16-.73 16-3ZM264 274l-1 1 1-1Z"/><path fill="#CAC7CB" id="fiber tracts" d="M199 281c2.962 0 9.675 2 15 2 0-1.921-8.021-1.26-9.5-2l-10.5-6 5 6ZM263 275l-2 1 2-1ZM285 275l-2 2c1.747 0 2-.253 2-2ZM261 276l-1 1 1-1Z"/><path fill="#97D6F9" id="STR" d="m163 277-1 1 1-1Z"/><path fill="#CAC7CB" id="fiber tracts" d="m257 281-3.5 2H243c0-1.921 8.021-1.26 9.5-2l7.5-4-3 4ZM283 277c-1.301 0-7 2.496-7 4 2.832 0 7-.886 7-4Z"/><path fill="#97D6F9" id="STR" d="m293 277 2 2-2-2ZM162 279l-1 1 1-1ZM160 281h1v-1l-1 1ZM295 281h1l-1-1v1Z"/><path fill="#99D2BD" id="OLF" d="M157 282c0 3.248-5 6.351-5 9 4.094 0 9-6.677 9-10h-1l-3 1Z"/><path fill="#CBCACC" id="och" d="M229 285c9.826 0 18.842 2 28 2v-6l-3.5 2H230c-.716 0-3 2.373-3 0h-13c-5.325 0-12.038-2-15-2v6c9.201 0 18.203-2 28-2h2Z"/><path fill="#CAC7CB" id="fiber tracts" d="M227 283c0 2.373 2.284 0 3 0l-1-2h-1l-1 2ZM276 281l-4 2c1.465 0 4 .109 4-2Z"/><path fill="#99D2BD" id="OLF" d="M334 296c0 4.331 9 3.152 9 5-3.224 0-29.552-4.026-31.5-5l-7-5c-3.631-1.816-9.5-5.001-9.5-10h1l2.5 2 1.5-2c0 6.664 6.142 11.321 11.5 14 2.2 1.1 7.5.334 7.5-2l2.5 2c3.924 1.962 8.852 1 12.5 1ZM137 283v1l-1-2 1 1ZM321 282l-1 1 1-1Z"/><path fill="#CAC7CB" id="fiber tracts" d="m272 283-4 2c1.465 0 4 .109 4-2Z"/><path fill="#99D2BD" id="OLF" d="m320 283-1 2v-2h1Z"/><path fill="#CAC7CB" id="fiber tracts" d="M268 285c-3.982 0-6.704 2-11 2-9.158 0-18.174-2-28-2 0 2.726 7.441 2 9.5 2 3.423 0 29.5 4.946 29.5-2Z"/><path fill="#99D2BD" id="OLF" d="m152 291-1 1 1-1ZM151 292l-2 1 2-1ZM123 296c-.276 0-4.357 3.429-5.5 4-1.147.574-4.5-1.064-4.5 1 8.828 0 15.52-4 24-4 1.552 0 8-.566 8-2-2.625 0-8 1.221-8-2l-2.5 2c-1.387.694-11.5 2.864-11.5 1ZM149 293l-2 1 2-1ZM147 294l-1 1 1-1ZM104 299l1 1-1-1ZM352 299l-1 1 1-1ZM108 300l2 1-2-1ZM349 300l-2 1 2-1Z"/></svg>