<svg xmlns="http://www.w3.org/2000/svg" viewBox="0 0 456 320"><path fill="#268F45" id="FRP1" d="M181 121c-8.192 0-14.008 7-22 7 0-2.925-4-6.711-4-13v-2l1-1v-1l1-1c0-3.293 5.943-7.721 8.5-9 20.389-10.195 16.456-7 38.5-7l13 15c0 3.019 1.511 12.495-1.5 14-1.744.872-7.5-3.948-7.5-2-2.776 0-8.686-4-14-4-1.424 0-5-1.762-5 0-1.49 0-8 2.206-8 4ZM298 127l-1 1c-7.365 0-13.462-7-21-7l-9-5c-6.101 0-12.342 4-18 4l-1 1-5.5 2c-4.332 2.166-3.5-11.477-3.5-14l3-3.5c1.963-1.963 9-7.109 9-10.5l1-1h26l1 1c4.986 0 20 7.686 20 14l1 1v1l1 1v10.5l-3 4.5Z"/><path fill="#2FA750" id="PL1" d="M217 109h3c0-6.345-9.939-15-16-15l13 15ZM252 94l-1 1 1-1Z"/><path fill="#1E9C59" id="MOs1" d="m278 94 1 1-1-1Z"/><path fill="#2FA750" id="PL1" d="m239 109-3 1c0-6.307 8.639-15 15-15 0 3.391-7.037 8.537-9 10.5l-3 3.5Z"/><path fill="#23895D" id="ORBm1" d="M219 124v2c-1.548 0-10 .86-10-3l-1-2c0-1.948 5.756 2.872 7.5 2 3.011-1.505 1.5-10.981 1.5-14h3v14l-1 1ZM248 123c0 1.011-8.21 4.645-9.5 4l-1.5-2-1-15 3-1c0 2.523-.832 16.166 3.5 14l5.5-2v2Z"/><path fill="#1E9C59" id="MOs1" d="m299 109 1 1-1-1ZM157 110l-1 1 1-1ZM300 111l1 1-1-1ZM156 112l-1 1 1-1ZM298 127h3c4.001 0 1.75-14 0-14v9.5l-3 4.5ZM155 127l4 1c0-2.925-4-6.711-4-13-2.407 0-2.407 12 0 12Z"/><path fill="#248A5B" id="ORBvl1" d="m208 121 1 2c-6.743 0-13.041-3-20-3v-3c0-1.762 3.576 0 5 0 5.314 0 11.224 4 14 4ZM248 121v2c6.237 0 12.573-3 19-3v-4c-6.101 0-12.342 4-18 4l-1 1Z"/><path fill="#238A5D" id="ORBl1" d="m267 120 9 1-9-5v4ZM189 120l-8 1c0-1.794 6.51-4 8-4v3Z"/><path fill="#99D2BD" id="OLF" d="M221 134c-1.621 0-3-4.257-3 1l-10.5-8c-5.473-2.736-13.042-2-18.5-2h-14c-6.24 0-11.968 4.468-16.5 9l-5.5 7c0-5.002 2-8.614 2-14l4 1c7.992 0 13.808-7 22-7l8-1c6.959 0 13.257 3 20 3 0 3.86 8.452 3 10 3 1.059 0 2 6.743 2 8Z"/><path fill="#23895D" id="ORBm1" d="m249 120-1 1 1-1Z"/><path fill="#99D2BD" id="OLF" d="M236 133c1.077 0 3-3.609 3 1l9.5-7c5.743-2.872 13.649-2 19.5-2h13c5.255 0 15.293 4.087 18 9.5l6 11.5c0-6.783-4-11.908-4-19h-3l-1 1c-7.365 0-13.462-7-21-7l-9-1c-6.427 0-12.763 3-19 3 0 1.011-8.21 4.645-9.5 4l-1.5-2-1 8ZM220 123l-1 1 1-1Z"/><path fill="#9DF0D1" id="AOBgl" d="m173 134 2.5 2c6.431 6.431 9.863 1 16.5 1 0-5.149-3-8.814-3-12h-14c0 3.322-2 5.678-2 9Z"/><path fill="#9AD1BD" id="MOB" d="M169 219c0 5.052 10.976 22.238 14.5 24l10 6c1.046.523 3.5-.951 3.5 1 14.09 0 16.918-11.336 22-21.5 6.856-13.713 6-31.999 6-48.5v-16.5c-1.969-3.937-4-9.901-4-14.5v-1c-1.774 0-3-11.186-3-13l-10.5-8c-5.473-2.736-13.042-2-18.5-2 0 3.186 3 6.851 3 12l3 4.5-1 7.5c4.938 0 1.931 6 0 6 0 6.752-1.451 13-9 13 0 1.835 2 4.235 2 7v4l1 2c0 7.267 6.28 22.939 3 29.5-.882 1.763-5 4.04-5 .5-3.063 0-6.107 2-8 2 0 3.382 5.803 6.894 4 10.5-1.935 3.87-9-6.007-9-8.5-3.115 0-4 .885-4 4ZM260 249l-1 1c-14.378 0-17.048-12.597-22-22.5-5.782-11.563-6-29.818-6-43.5v-14.5c1.322-2.644 4-15.638 4-18.5v-2c2.191 0 3-10.043 3-12l1-1v-2l9.5-7c5.743-2.872 13.649-2 19.5-2 0 1.186-3.346 5.192-4 6.5-.978 1.956 1 4.077 1 5.5-6.02 0-2 10.921-2 13l-1.5-1c-5.281-2.64 1.5 6.418 1.5 7-2.082 0-.47 5.561 0 6.5 1.762 3.524 3.886 5.5 8 5.5v1c-1.643 0-1 3.765-1 5v1l-1 2c0 8.987-4 15.699-4 24v8.5c.763 1.526 5 5.225 5 1.5 4.684 0 6.857 2 9 2l-5 9.5c0 5.896 9-4.115 9-7.5 3.744 0 4 .256 4 4 0 10.3-16.521 30-27 30Z"/><path fill="#9DF0D1" id="AOBgl" d="M284 134c-2.118 0-7.946 4.723-10.5 6-2.627 1.314-6.045-3-8.5-3 0-1.423-1.978-3.544-1-5.5.654-1.308 4-5.314 4-6.5h13c0 2.561 3 5.324 3 9Z"/><path fill="#9AD1BD" id="MOB" d="M173 166c-2.483 0-4.026 2-6 2 0-1.429-1.288-4-3-4-1.429 0-4-5.422-4 1l-6.5 3-2.5-3v-18c1.995 0 2-4.377 2-6l5.5-7c4.532-4.532 10.26-9 16.5-9 0 3.322-2 5.678-2 9-4.898 0-5 6.34-5 10v1c-1.004 0-4-2.31-4 1-7.399 0 0 17.89 0 8l1-1h1c0 5.181 7 9.775 7 12v1ZM283 166l6 1c1.481 0 .785-2 3-2l1-1c0-3.343 3-3.343 3 0l5.5 4c2.377 1.189 2.116-2 3.5-2v-1c0-1.145-.579-4 1-4v-10c-1.473 0-1-1.952-1-3v-2l-6-11.5c-2.707-5.413-12.745-9.5-18-9.5 0 2.561 3 5.324 3 9l3 1.5 1 6.5 1 2c1.238 0 3 .423 3 2 4.032 0 4.512 15.524 1 8.5l-1-2.5-1 1c0 4.762-8 8.191-8 12v1Z"/><path fill="#1E9C59" id="MOs1" d="m298 127-1 1 1-1Z"/><path fill="#C7CBCA" id="onl" d="M235 141c1.001 0 0 6.101 0 8 2.191 0 3-10.043 3-12l1-1v-2c0-4.609-1.923-1-3-1 0 1.145.579 4-1 4v4ZM221 140v8c-1.774 0-3-11.186-3-13 0-5.257 1.379-1 3-1v6Z"/><path fill="#99D2BD" id="OLF" d="M236 133c-1.579 0-1 2.855-1 4 1.579 0 1-2.855 1-4Z"/><path fill="#9DEFD2" id="AOBmi" d="M169 146c0 10.341 25 14.722 25 3l1-7.5-3-4.5c-6.637 0-10.069 5.431-16.5-1l-2.5-2c-4.898 0-5 6.34-5 10l1 2ZM287 146c0 10.059-24 14.688-24 4 0-2.079-4.02-13 2-13 2.455 0 5.873 4.314 8.5 3 2.554-1.277 8.382-6 10.5-6l3 1.5 1 6.5v3l-1 1Z"/><path fill="#99D2BD" id="OLF" d="m239 136-1 1 1-1ZM221 140h1l-1-1v1Z"/><path fill="#CAC8C9" id="von" d="M221 149c1.648 0 .756 4 4 4 0-4.982-3-8.896-3-13h-1v9Z"/><path fill="#99D2BD" id="OLF" d="M234 141h1v-1l-1 1ZM153 141c-1.353 0-2 4.643-2 6 1.995 0 2-4.377 2-6Z"/><path fill="#CAC8C9" id="von" d="m235 151-4 2c0-1.87 1.515-12 3-12h1c1.001 0 0 6.101 0 8v2Z"/><path fill="#99D2BD" id="OLF" d="m289 144-1 1v-3l1 2Z"/><path fill="#CACAC9" id="lotd" d="M166 153c5.481 0 7.211 3.856 11.5 6 6.16 3.08 14.199-4 16.5-4 1.931 0 4.938-6 0-6 0 11.722-25 7.341-25-3l-1-1c-1.004 0-4-2.31-4 1l1 7h1Z"/><path fill="#99D2BD" id="OLF" d="m168 145 1 1-1-2v1Z"/><path fill="#CACAC9" id="lotd" d="M291 153c-5.382 0-8.119 3.809-12.5 6-5.543 2.771-11.403-3-15.5-3 0-.582-6.781-9.64-1.5-7l1.5 1c0 10.688 24 6.059 24-4l1-1 1-1c1.238 0 3 .423 3 2v6l-1 1Z"/><path fill="#99D2BD" id="OLF" d="m288 145-1 1 1-1Z"/><path fill="#CAC8C7" id="lot" d="m165 153-1 1c0 9.89-7.399-8 0-8l1 7ZM292 146c4.032 0 4.512 15.524 1 8.5l-1-2.5v-6Z"/><path fill="#99D2BD" id="OLF" d="M305 148c1.473 0 1 1.952 1 3-1.473 0-1-1.952-1-3Z"/><path fill="#C7CBCA" id="onl" d="M227 210c0 8.975 1.042 40.417-2 46.5-3.065 6.131-17.538-2.019-20.5-3.5-1.272-.636-7.5-1.45-7.5-3 14.09 0 16.918-11.336 22-21.5 6.856-13.713 6-31.999 6-48.5v-16.5c-1.969-3.937-4-9.901-4-14.5 1.648 0 .756 4 4 4l2 3.5V175c0 1.048-.473 3 1 3v23c-1.751 0-1 7.426-1 9Z"/><path fill="#99D2BD" id="OLF" d="M151 150c-1.634 0-1.634 11 0 11v-11Z"/><path fill="#C7CBCA" id="onl" d="m231 153-2 6.5V177c0 15.712 1 32.472 1 47.5 0 6.187-1.1 26.801 1 31 3.569 7.138 17.651-.576 21.5-2.5 1.139-.57 6.5-1.675 6.5-3-14.378 0-17.048-12.597-22-22.5-5.782-11.563-6-29.818-6-43.5v-14.5c1.322-2.644 4-15.638 4-18.5l-4 2Z"/><path fill="#99D2BD" id="OLF" d="m165 153-1 1 1-1Z"/><path fill="#95E4C8" id="AOBgr" d="M183 168h2c7.549 0 9-6.248 9-13-2.301 0-10.34 7.08-16.5 4-4.289-2.144-6.019-6-11.5-6 0 5.181 7 9.775 7 12l4 2h1l5 1ZM271 168h2l5-1h1l2-1 2-1c0-3.809 8-7.238 8-12-5.382 0-8.119 3.809-12.5 6-5.543 2.771-11.403-3-15.5-3-2.082 0-.47 5.561 0 6.5 1.762 3.524 3.886 5.5 8 5.5Z"/><path fill="#CAC8C7" id="lot" d="M178 213c0 3.382 5.803 6.894 4 10.5-1.935 3.87-9-6.007-9-8.5l-5-12.5c-2.704-5.409-8-30.975-8-37.5 0-6.422 2.571-1 4-1l1 6c0 10.601 4.478 24.456 9 33.5.79 1.58 2.016 9.5 4 9.5ZM279 213l-5 9.5c0 5.896 9-4.115 9-7.5l6-14.5c2.604-5.207 7-29.685 7-36.5 0-3.343-3-3.343-3 0l-1 1-1 5c0 10.455-3.558 24.616-8 33.5l-4 9.5Z"/><path fill="#99D2BD" id="OLF" d="M306 161c-1.579 0-1 2.855-1 4 1.579 0 1-2.855 1-4ZM167 168l-2 2-1-6c1.712 0 3 2.571 3 4ZM293 164l-1 1 1-1ZM283 215c3.744 0 4 .256 4 4 2.128 0 5.039-11.578 6-13.5 5.674-11.348 12-26.045 12-39.5-1.384 0-1.123 3.189-3.5 2l-5.5-4c0 6.815-4.396 31.293-7 36.5l-6 14.5ZM173 215c-3.115 0-4 .885-4 4-1.46 0-4.214-9.927-5-11.5-5.942-11.884-13-28.505-13-42.5l2.5 3 6.5-3c0 6.525 5.296 32.091 8 37.5l5 12.5ZM173 166l4 1-4-2v1ZM281 166h2v-1l-2 1ZM289 167c0 1.238.423 3 2 3l1-5c-2.215 0-1.519 2-3 2Z"/><path fill="#54BF94" id="AON" d="M186 211c-3.063 0-6.107 2-8 2-1.984 0-3.21-7.92-4-9.5-4.522-9.044-9-22.899-9-33.5l2-2c1.974 0 3.517-2 6-2l4 1h1c0 .788 7.07 16.639 8 18.5 4.001 8.002 0 17.76 0 25.5Z"/><path fill="#99D2BD" id="OLF" d="m281 166-2 1 2-1Z"/><path fill="#54BF94" id="AON" d="M270 211c4.684 0 6.857 2 9 2l4-9.5c4.442-8.884 8-23.045 8-33.5-1.577 0-2-1.762-2-3l-6-1h-2l-2 1-1 1c-2.535 0-3.161 6.822-4 8.5-5.607 11.215-4 21.945-4 34.5Z"/><path fill="#CBCBC7" id="aco" d="M188 181c0 7.267 6.28 22.939 3 29.5-.882 1.763-5 4.04-5 .5 0-7.74 4.001-17.498 0-25.5-.93-1.861-8-17.712-8-18.5l5 1 2 1.5c.557 1.114.41 5.5 2 5.5v4l1 2ZM269 177c0 8.987-4 15.699-4 24v8.5c.763 1.526 5 5.225 5 1.5 0-12.555-1.607-23.285 4-34.5.839-1.678 1.465-8.5 4-8.5v-1l-5 1-2 1c0 1.235.643 5-1 5v1l-1 2Z"/><path fill="#99D2BD" id="OLF" d="m279 167-1 1v-1h1ZM185 168c0 1.835 2 4.235 2 7-1.59 0-1.443-4.386-2-5.5l-2-1.5h2ZM273 168l-2 1v-1h2ZM271 169c-1.643 0-1 3.765-1 5 1.643 0 1-3.765 1-5ZM227 175c1.473 0 1 1.952 1 3-1.473 0-1-1.952-1-3ZM270 175l-1 2 1-2ZM187 179l1 2-1-2ZM228 201c-1.751 0-1 7.426-1 9 1.751 0 1-7.426 1-9Z"/><path fill="#C7CBCA" id="onl" d="m260 249-1 1 1-1Z"/></svg>