<svg xmlns="http://www.w3.org/2000/svg" viewBox="0 0 456 320"><path fill="#1E9D5A" id="MOp1" d="M147 40v6c3.792 0 7.318-1.41 10.5-3 2.643-1.321 28.71-6 32.5-6l1-5c-4.491 0-23.345 1.422-26.5 3-4.262 2.131-12.706 5-17.5 5Z"/><path fill="#1E9C59" id="MOs1" d="M222 51h1l4-2c0-2.723-3.061-5.561-5-7.5-10.622-10.622-16.519-9.5-31-9.5l-1 5c9.478 0 32-1.493 32 14ZM229 48l5 3 4-6.5c8.626-8.626 16.437-7.5 28-7.5v-5c-10.561 0-24.801-1.899-30 8.5l-7 7.5Z"/><path fill="#1E9D5A" id="MOp1" d="M309 40v6c-3.607 0-6.499-1.5-9.5-3-1.633-.817-30.543-6-33.5-6v-5c5.773 0 30.455 2.978 34.5 5 2.322 1.161 5.836 3 8.5 3Z"/><path fill="#1E9D58" id="MOs2/3" d="M216 55h1c0-1.533 3.753-4 5-4 0-15.493-22.522-14-32-14l-2 12c5.519 0 28-7.169 28 6ZM240 55h1c0-13.254 21.006-6 27-6 0-4.01-2-8.3-2-12-11.563 0-19.374-1.126-28 7.5l-4 6.5c1.417 0 6 2.383 6 4Z"/><path fill="#1F9C58" id="MOp2/3" d="M145 63v7c7.793 0 33.271-21 43-21l2-12c-3.79 0-29.857 4.679-32.5 6-3.182 1.59-6.708 3-10.5 3v1c0 .246-.977 13-2 13v3ZM311 63v7c-7.755 0-30.376-20-42-20l-1-1c0-4.01-2-8.3-2-12 2.957 0 31.867 5.183 33.5 6 3.001 1.5 5.893 3 9.5 3l1 1 1 12v4Z"/><path fill="#187F60" id="SSp-ll1" d="m147 47-5 1c0-1.564-1-3.876-1-6l6-2v7ZM314 48h1c0-2.124 1-4.436 1-6l-7-2v6l1 1 4 1Z"/><path fill="#197E64" id="SSp-ul1" d="m103 60 2 5c7.603 0 26.963-17 37-17 0-1.564-1-3.876-1-6-7.89 0-22.284 9.392-29.5 13l-8.5 5ZM354 61l-3 4c-6.309 0-27.297-17-36-17 0-2.124 1-4.436 1-6 6.237 0 22.391 9.945 28.5 13 1.685.842 9.5 3.643 9.5 6Z"/><path fill="#187F64" id="SSp-ll2/3" d="m142 48 3 12c1.023 0 2-12.754 2-13l-5 1Z"/><path fill="#1F9D58" id="MOs5" d="M185 66c1.749 0 18-7.455 18 0 4.368 0 7.76-11 13-11 0-13.169-22.481-6-28-6l-3 17ZM253 65c3.208 0 7.555-3.973 11.5-2l7.5 4c0-5.602-3-10.873-3-17l-1-1c-5.994 0-27-7.254-27 6 4.949 0 7.918 10 12 10Z"/><path fill="#187F64" id="SSp-ll2/3" d="M314 48c0 1.696-1.388 11-3 11l-1-12 4 1Z"/><path fill="#197F61" id="SSp-ul2/3" d="M110 78h1c0-2.104 6.951-4.226 8.5-5 5.888-2.944 19.067-10 25.5-10v-3l-3-12c-10.037 0-29.397 17-37 17v1c1.573 0 5 9.92 5 12Z"/><path fill="#3EA665" id="ACAd1" d="M223 76h10c0-8.274 1-17.385 1-25l-5-3c0 2.73-.423 1-2 1l-4 2v25Z"/><path fill="#197F61" id="SSp-ul2/3" d="M345 78h1c0-3.84 5-7.166 5-12v-1c-6.309 0-27.297-17-36-17h-1c0 1.696-1.388 11-3 11v4c6.787 0 19.38 6.94 25.5 10 1.549.774 8.5 2.896 8.5 5Z"/><path fill="#1E9C5A" id="MOp5" d="M145 70v15c10.184 0 35.463-18 40-18v-1l3-17c-9.729 0-35.207 21-43 21ZM311 70v15c-7.134 0-22.871-8.685-29.5-12l-9.5-6c0-5.602-3-10.873-3-17 11.624 0 34.245 20 42 20Z"/><path fill="#40A565" id="ACAd2/3" d="m223 76-5 1c0-6.557-1-14.767-1-22 0-1.533 3.753-4 5-4h1v25ZM233 76c1.564 0 3.876 1 6 1 0-7.293 1-15.359 1-22 0-1.617-4.583-4-6-4 0 7.615-1 16.726-1 25Z"/><path fill="#3EA566" id="ACAd5" d="M218 77c-4.818 0-9.159 7-13 7 0-2.72 1.033-17-2-17v-1c4.368 0 7.76-11 13-11h1c0 7.233 1 15.443 1 22ZM239 78c5.154 0 7.22 5 12 5 0-5.574 2-10.949 2-16v-2c-4.082 0-7.051-10-12-10h-1c0 6.641-1 14.707-1 22v1Z"/><path fill="#1B8062" id="SSp-un1" d="M91 69c0 .67 1.328 5 2 5 4.411 0 7.976-8 12-8v-1l-2-5c-2.498 0-12 6.898-12 9ZM363 74h1l1-6c0-1.384-9.307-7-11-7l-3 4v1l12 8Z"/><path fill="#1A7F63" id="SSp-ul4" d="M114 86h1c0-1.962 5.282-2.782 6.5-4 1.696-1.695 21.52-12 23.5-12v-7c-6.433 0-19.612 7.056-25.5 10-1.549.774-8.5 2.896-8.5 5l3 8Z"/><path fill="#1D9C5A" id="MOs6a" d="M191 87h1c0-3.082 8.507-20 11-20v-1c0-7.455-16.251 0-18 0v1l-2 5.5V89c2.338 0 4.862-2 8-2ZM265 87c3.138 0 5.662 2 8 2 0-2.35 2.526-6.449 1-9.5-1.554-3.107-2-8.933-2-12.5l-7.5-4c-3.945-1.973-8.292 2-11.5 2v2c2.459 0 12 17.525 12 20Z"/><path fill="#1A7F63" id="SSp-ul4" d="M345 78c0 1.489-1.835 7-3 7l-31-15v-7c6.787 0 19.38 6.94 25.5 10 1.549.774 8.5 2.896 8.5 5Z"/><path fill="#1C7F63" id="SSp-un2/3" d="m110 78-2 1-7.5-5c-1.195-.597-4.947 1-6 1-1.44 0 1.89 2-.5 2l-1-2v-1c4.411 0 7.976-8 12-8 1.573 0 5 9.92 5 12ZM348 79h1c0-2.958 8.826-5.837 10.5-5 2.167 1.083.785 3 3.5 3v-3l-12-8c0 4.834-5 8.16-5 12l2 1Z"/><path fill="#1F9B5A" id="MOp6a" d="M161 99c-5.697 0-10.474 5-16 5V85c10.184 0 35.463-18 40-18l-2 5.5V89c-1.572 0-7 2.052-7 4-2.091 0-11 1.912-11 4l-4 2Z"/><path fill="#3FA664" id="ACAd6a" d="M192 87c0 1.302 4 2.641 4 5 3.448 0 5.78-7 9-7v-1c0-2.72 1.033-17-2-17-2.493 0-11 16.918-11 20ZM260 92h1c0-1.238.423-3 2-3l2-2c0-2.475-9.541-20-12-20 0 5.051-2 10.426-2 16v2c3.87 0 5.602 7 9 7Z"/><path fill="#1F9B5A" id="MOp6a" d="m273 89 38 15V85c-7.134 0-22.871-8.685-29.5-12l-9.5-6c0 3.567.446 9.393 2 12.5 1.526 3.051-1 7.15-1 9.5Z"/><path fill="#197E63" id="SSp-n1" d="M382 92c0-3.274 6.911 2 8 2 0-4.045-16.349-19.924-18.5-21l-6.5-5-1 6 16 15 1 1 1 2ZM75 91c-3.303 0-5.115 2-8 2 0-3.348 20.55-24 24-24 0 .67 1.328 5 2 5v1c-3.516 0-14 9.23-14 13l-1 1h-1l-1 1-1 1Z"/><path fill="#187E62" id="SSp-ul5" d="m117 92 3 4c8.405 0 16.376-11 25-11V70c-1.98 0-21.804 10.305-23.5 12-1.218 1.218-6.5 2.038-6.5 4 0 2.447 2 3.28 2 6ZM339 93l-3 3c-6.467 0-17.649-11-25-11V70l31 15v1c-1.473 0-1 1.952-1 3-2.109 0-2 2.534-2 4Z"/><path fill="#1A7E64" id="SSp-m2/3" d="M66 135h1c0-16.431 15.085-40.793 29.5-48 3.749-1.875 7.101-7 11.5-7v-1l-7.5-5c-1.195-.597-4.947 1-6 1-1.44 0 1.89 2-.5 2-1.32 0-1.966 7-4.5 7-3.458 0-7.701 4-10.5 4l-1 1h-1l-1 1-1 1c0 2.828-4.747 5.994-6 8.5-3.907 7.814-12 22.676-12 31.5 3.709 0 5.456 4 9 4ZM399 131c-3.709 0-5.456 4-9 4 0-12.878-12.543-33.043-22-42.5-4.042-4.042-9.585-8.042-14.5-10.5-1.185-.592-4.5-1.012-4.5-3 0-2.958 8.826-5.837 10.5-5 2.167 1.083.785 3 3.5 3 0 5.588 12.276 13 17 13h1l1 2 7 10.5c4.039 8.079 10 18.985 10 28.5Z"/><path fill="#1B7F64" id="SSp-n2/3" d="M380 89v1c-4.724 0-17-7.412-17-13v-3h1l16 15ZM94 77c-1.32 0-1.966 7-4.5 7-3.458 0-7.701 4-10.5 4 0-3.77 10.484-13 14-13l1 2Z"/><path fill="#3FA566" id="ACAv2/3" d="m221 110-3 1V77l5-1c0 10.742-1 21.854-1 32l-1 2Z"/><path fill="#40A664" id="ACAv1" d="M229 103c3.424 0 3.518 5 5 5 0-10.355-1-21.128-1-32h-10c0 10.742-1 21.854-1 32 2.047 0 2.168-5 5-5 0-3.654 2-3.654 2 0Z"/><path fill="#3FA566" id="ACAv2/3" d="m235 110 3 1c0-10.376 1-21.993 1-33v-1c-2.124 0-4.436-1-6-1 0 10.872 1 21.645 1 32l1 2Z"/><path fill="#3EA666" id="ACAv5" d="M209 107c0 2.216 7.15 4 9 4V77c-4.818 0-9.159 7-13 7v1c0 7.493 4 14.916 4 22Z"/><path fill="#197E61" id="SSp-un4" d="M113 86h1l-3-8h-1l-2 1v1l5 6Z"/><path fill="#3EA666" id="ACAv5" d="M247 107c0 2.216-7.15 4-9 4 0-10.376 1-21.993 1-33 5.154 0 7.22 5 12 5v2c0 7.545-4 16.769-4 22Z"/><path fill="#197E61" id="SSp-un4" d="M342 86h1c1.514 0 5-5.537 5-7l-2-1h-1c0 1.489-1.835 7-3 7v1Z"/><path fill="#1B7F62" id="SSp-m4" d="m390 136-5 2c0-9.482-20.997-39.248-28.5-43-4.51-2.255-8.12-8-13.5-8v-1c1.514 0 5-5.537 5-7h1c0 1.988 3.315 2.408 4.5 3 4.915 2.458 10.458 6.458 14.5 10.5 9.457 9.457 22 29.622 22 42.5v1ZM67 135l4 3c0-3.638 4.394-8.288 6-11.5 6.457-12.914 13.175-27.338 27.5-34.5 2.985-1.493 4.904-5 8.5-5v-1l-5-6c-4.399 0-7.751 5.125-11.5 7C82.085 94.207 67 118.569 67 135Z"/><path fill="#197D61" id="SSp-ul6a" d="M129 111h2c0-1.565 8.408-4 10-4 0-2.109 2.535-2 4-2V85c-8.624 0-16.595 11-25 11v1c2.656 0 6.002 9.504 7 11.5l2 2.5Z"/><path fill="#40A564" id="ACAv6a" d="M208 107h1c0-7.084-4-14.507-4-22-3.22 0-5.552 7-9 7v1l2.5 3c1.703 1.703 8.5 7.997 8.5 10l1 1ZM247 107h2l1-2c0-1.811 3.438-4 5-4 0-1.747.253-2 2-2l3-7c-3.398 0-5.13-7-9-7 0 7.545-4 16.769-4 22Z"/><path fill="#197D61" id="SSp-ul6a" d="M327 111h1c0-5.754 8-9.85 8-15-6.467 0-17.649-11-25-11v19c5.32 0 10.368 7 16 7Z"/><path fill="#197D62" id="SSp-un5" d="m113 87 4 5c0-2.72-2-3.553-2-6h-2v1ZM343 87l-2 2c0-1.048-.473-3 1-3h1v1Z"/><path fill="#1B7E63" id="SSp-m5" d="M71 139c4.178 0 6.934 4 11 4 0-14.176 22.332-46 38-46v-1l-3-4-4-5c-3.596 0-5.515 3.507-8.5 5-14.325 7.162-21.043 21.586-27.5 34.5-1.606 3.212-6 7.862-6 11.5v1Z"/><path fill="#1E9C58" id="MOs6b" d="m191 89-8 1v-1c2.338 0 4.862-2 8-2v2Z"/><path fill="#3FA466" id="ACAd6b" d="M195 93h1v-1c0-2.359-4-3.698-4-5h-1v2c2.226 0 4 1.774 4 4ZM263 89h2v-2l-2 2Z"/><path fill="#1E9C58" id="MOs6b" d="M273 89v1c-2.097 0-5.293-1-8-1v-2c3.138 0 5.662 2 8 2Z"/><path fill="#1B7E63" id="SSp-m5" d="M374 143h1c3.223 0 6.355-4 10-4v-1c0-9.482-20.997-39.248-28.5-43-4.51-2.255-8.12-8-13.5-8l-2 2-2 4-3 3c4.115 0 7.938 5.219 11.5 7 13.109 6.554 26.5 25.595 26.5 40Z"/><path fill="#1B7F64" id="SSp-n2/3" d="m79 88-1 1 1-1Z"/><path fill="#187E61" id="SSp-m1" d="m77 89-1 1 1-1Z"/><path fill="#1D9D5A" id="MOp6b" d="M183 90c0 1.165-5.511 3-7 3 0-1.948 5.428-4 7-4v1Z"/><path fill="#CACCC7" id="cing" d="m207 106 1 1c-9.39 0-12.812-10.156-20.5-14-5.633-2.816-14.163 6-19.5 6h-4l1-2c2.091 0 11-1.912 11-4 1.489 0 7-1.835 7-3l8-1c2.226 0 4 1.774 4 4 0 3.147 8.554 13 12 13Z"/><path fill="#3FA466" id="ACAd6b" d="M263 89c-1.577 0-2 1.762-2 3 1.577 0 2-1.762 2-3Z"/><path fill="#CACCC7" id="cing" d="m250 105-1 2c9.082 0 12.938-10.219 20.5-14 3.321-1.66 15.166 6 19.5 6h4c0-.868-20-7.66-20-9-2.097 0-5.293-1-8-1h-2c0 1.238-.423 3-2 3 0 1.856-1.782 7-4 7 0 1.747-.253 2-2 2 0 1.976-2.876 4-5 4Z"/><path fill="#1D9D5A" id="MOp6b" d="M311 104v1c-6.605 0-11.874-6-18-6 0-.868-20-7.66-20-9v-1l38 15Z"/><path fill="#197D62" id="SSp-un5" d="M341 89c-2.109 0-2 2.534-2 4l2-4Z"/><path fill="#187E61" id="SSp-m1" d="M380 90h1l-1-1v1ZM76 90l-1 1 1-1ZM52 127l5 4c0-8.824 8.093-23.686 12-31.5 1.253-2.506 6-5.672 6-8.5-3.303 0-5.115 2-8 2l-1 1c0 3.746-14 24.215-14 33ZM399 131h1c0-1.811 3.438-4 5-4 0-4.647-8.596-21.691-11-26.5-.64-1.28-2.385-6.5-4-6.5-1.089 0-8-5.274-8-2l7 10.5c4.039 8.079 10 18.985 10 28.5Z"/><path fill="#40A465" id="ACAv6b" d="M261 92c0 1.856-1.782 7-4 7l3-7h1Z"/><path fill="#197E63" id="SSp-n1" d="m67 93-1 1 1-1Z"/><path fill="#1D9D5A" id="MOp6b" d="M176 93c-2.091 0-11 1.912-11 4 2.091 0 11-1.912 11-4Z"/><path fill="#C9C7C9" id="ccb" d="M362 166v1c-1.907 0-4.112-10.725-5-12.5-2.795-5.591-12.843-24.672-18.5-27.5l-7-6c-7.496-3.748-15.542-6.271-23-10-4.079-2.039-9.859-.929-14-3-4.466-2.233-13.342 1-17.5 1 0-8.516-20 3.574-20 6l-2 1-2 1-1 1h-1c-2.531 0-16 3.603-16 5h-13c-5.443 0-10.778-5-17-5l-2-1c0-1.638-24-18.134-24-8-4.158 0-13.034-3.233-17.5-1-5.985 2.993-14.039 2.02-20 5-6.381 3.191-12.569 6.784-19 10-6.716 3.358-18.394 21.288-21.5 27.5-.767 1.535-1.845 8.5-4 8.5v-3l1-1v-1l1-2v-1l2-4 2-4 1-2 1-2c1.577 0 2-1.762 2-3 1.577 0 2-1.762 2-3l4-3.5c2.154-2.154 12-10.44 12-12.5l22.5-10c3.22-1.61 8.823-.823 11.5-3.5l9-4.5c5.337 0 13.867-8.816 19.5-6 7.688 3.844 11.11 14 20.5 14h1c0 2.216 7.15 4 9 4l3-1c0 2.051 14 1.344 14 0l3 1c1.85 0 9-1.784 9-4h2c9.082 0 12.938-10.219 20.5-14 3.321-1.66 15.166 6 19.5 6 0 2.621 6.858 3.179 8.5 4 9.631 4.815 20.364 7.182 30 12 8.708 4.354 19.262 16.024 23.5 24.5l6 10.5v1l2 4 3 11Z"/><path fill="#40A465" id="ACAv6b" d="m196 93 2.5 3c1.703 1.703 8.5 7.997 8.5 10-3.446 0-12-9.853-12-13h1Z"/><path fill="#187D61" id="SSp-m6a" d="M374 143c0 2.341-2.342 1.421-3.5 2-3.262 1.631-7.792 6-11.5 6 0-12.419-14.759-21.018-20-31.5-1.277-2.553-11-5.045-11-8.5 0-5.754 8-9.85 8-15 4.115 0 7.938 5.219 11.5 7 13.109 6.554 26.5 25.595 26.5 40ZM82 143l15 8c0-7.339 16.251-29.376 23.5-33 3.402-1.701 4.338-6 8.5-6v-1l-2-2.5c-.998-1.996-4.344-11.5-7-11.5-15.668 0-38 31.824-38 46Z"/><path fill="#1D9D5A" id="MOp6b" d="M161 99h3l1-2-4 2ZM145 104v1c2.478 0 16-4.224 16-6-5.697 0-10.474 5-16 5Z"/><path fill="#C9C9CA" id="scwm" d="M130 112c0 2.047-5 2.168-5 5l22.5-10c3.22-1.61 8.823-.823 11.5-3.5l9-4.5h-7c0 1.776-13.522 6-16 6l-4 2c0 2.623-7.828 4-10 4l-1 1Z"/><path fill="#40A465" id="ACAv6b" d="M257 99c-1.747 0-2 .253-2 2 1.747 0 2-.253 2-2Z"/><path fill="#C9C9CA" id="scwm" d="m327 113 6.5 5c7.442 3.721 23.5 24.436 23.5 32l-6-10.5c-4.238-8.476-14.792-20.146-23.5-24.5-9.636-4.818-20.369-7.185-30-12-1.642-.821-8.5-1.379-8.5-4h4c6.126 0 11.395 6 18 6l16 8Z"/><path fill="#40A465" id="ACAv6b" d="M255 101c-1.562 0-5 2.189-5 4 2.124 0 5-2.024 5-4Z"/><path fill="#7ED04B" id="IG" d="M221 110c0 2.051 14 1.344 14 0l-1-2c-1.482 0-1.576-5-5-5 0 1.93-1.161 0-2 0-2.832 0-2.953 5-5 5l-1 2Z"/><path fill="#1C8064" id="SSp-ul6b" d="M327 111v2l-16-8v-1c5.32 0 10.368 7 16 7ZM145 105c-1.465 0-4-.109-4 2l4-2Z"/><path fill="#AAA8A9" id="SEZ" d="m182 110 3.5-2c4.415 2.208 12.599 9 17.5 9 0-1.638-24-18.134-24-8l3 1ZM274 110c0-2.459-3.762-1-5-1l-12 6c0-2.426 20-14.516 20-6l-3 1Z"/><path fill="#1C8064" id="SSp-ul6b" d="M141 107c-1.592 0-10 2.435-10 4 2.172 0 10-1.377 10-4Z"/><path fill="#98D5F9" id="CP" d="M137 235h2c0-1.148 11.286-2 13-2h2l1-1c6.416 0 14.372-7 18-7l4-10.5c2.671-5.342-1.614-28.443 4.5-31.5l6 2 2.5-3c0-1.908-.788-13 1-13v-20c0-1.048-.473-3 1-3v-1c-2.497 0-.062-11.624-1-13.5-1.221-2.442-.82-5.64-2-8-1.783-3.567-7-9.495-7-13.5l-3-1c-4.158 0-13.034-3.233-17.5-1-5.985 2.993-14.039 2.02-20 5-6.381 3.191-12.569 6.784-19 10-6.716 3.358-18.394 21.288-21.5 27.5-.767 1.535-1.845 8.5-4 8.5 0 1.623-.005 6-2 6v1c0 1.424-.362 5-2 5v1c0 6.859-.857 15.786 2 21.5l6 18.5v2l1 1v1l1 1 1 3 1 1v1l2 2v1c1.007 0 11 6.316 11 8l10.5 3 8.5-1Z"/><path fill="#A8AAAA" id="VL" d="M205 118c0 4.129-13 17.278-13 27-2.497 0-.062-11.624-1-13.5-1.221-2.442-.82-5.64-2-8-1.783-3.567-7-9.495-7-13.5l3.5-2c4.415 2.208 12.599 9 17.5 9l2 1ZM251 118h1l1-1 2-1 2-1 12-6c1.238 0 5-1.459 5 1l-7 14.5c-2.568 5.135-2 14.41-2 20.5-1.645 0-3.172-10.844-4-12.5L251 118Z"/><path fill="#98D5F9" id="CP" d="M317 235h2l8.5 1 10.5-3 1-1 2-1 2-1 2-1 1-1 1-1 1-1 1-1 1-1 2-4 1-1 1-3 1-1v-2l1-1v-1c0-4.876 2.865-12.23 5-16.5 3.53-7.06 2-15.876 2-23.5v-1c-1.473 0-1-1.952-1-3-1.907 0-4.112-10.725-5-12.5-2.795-5.591-12.843-24.672-18.5-27.5l-7-6c-7.496-3.748-15.542-6.271-23-10-4.079-2.039-9.859-.929-14-3-4.466-2.233-13.342 1-17.5 1l-3 1-7 14.5c-2.568 5.135-2 14.41-2 20.5v8l1 14c0 4.725 1 9.879 1 14 0 8.025 6.895-.71 9 3.5 3.711 7.422 1.675 27.35 4 32l3 7.5c0 2.032 15.344 8 18 8l1 1h3c1.496 0 12 .988 12 2Z"/><path fill="#1C8064" id="SSp-ul6b" d="M129 112h1l1-1h-2v1Z"/><path fill="#188064" id="SSp-m6b" d="M358 151h1c0-12.419-14.759-21.018-20-31.5-1.277-2.553-11-5.045-11-8.5h-1v2l6.5 5c7.442 3.721 23.5 24.436 23.5 32v1h1ZM97 151h2c0-1.465-.109-4 2-4 0-1.465-.109-4 2-4l1-2 1-2c0-1.238.423-3 2-3 0-1.238.423-3 2-3 0-3.363 12.494-16 16-16 0-2.832 5-2.953 5-5h-1c-4.162 0-5.098 4.299-8.5 6-7.249 3.624-23.5 25.661-23.5 33Z"/><path fill="#AAA8A9" id="SEZ" d="m257 115-2 1 2-1ZM255 116l-2 1 2-1Z"/><path fill="#C9C9CA" id="scwm" d="M125 117c-3.506 0-16 12.637-16 16l4-3.5c2.154-2.154 12-10.44 12-12.5Z"/><path fill="#AAA8A9" id="SEZ" d="m253 117-1 1 1-1Z"/><path fill="#90CBEC" id="LSc" d="m192 148 2 1 7-6.5c3.724-3.724 21-13.086 21-17.5v-2c-5.443 0-10.778-5-17-5 0 4.129-13 17.278-13 27v3ZM265 147l-2 2c-3.254 0-4.035-4.767-6.5-6-3.648-1.824-21.5-13.979-21.5-18v-2c0-1.397 13.469-5 16-5l10 14.5c.828 1.656 2.355 12.5 4 12.5v2Z"/><path fill="#97D6F9" id="STR" d="M222 125h13v-2h-13v2Z"/><path fill="#90CAED" id="LSr" d="M239 180c1.714 0 1 5.594 1 7l7.5-8c4.829-2.415 9.219-5.61 14-8l3.5 2c0-1.321-.684-6 1-6l-1-14-2-4c-3.254 0-4.035-4.767-6.5-6-3.648-1.824-21.5-13.979-21.5-18h-13c0 4.414-17.276 13.776-21 17.5l-7 6.5-3 6v14l1 4 1.5-2c2.663-1.331 10.699 4.85 13 6l9.5 10 1-8c0-12.839 2.731-22.962 8-33.5.633-1.267 1.751-10.5 3.5-10.5.76 0 2.04 8.579 2.5 9.5 5.657 11.314 8 21.671 8 35.5Z"/><path fill="#1A7E62" id="SSs1" d="M45 177h5v-1c0-5.283-3.744-17.012-1-22.5.814-1.627 8-21.915 8-22.5l-5-4-7 17.5c-3.114 6.227 0 25.43 0 32.5ZM407 177h4c0-8.933 4.521-19.459 0-28.5v-5l-6-16.5c-1.562 0-5 2.189-5 4l7 20.5V177Z"/><path fill="#1B8063" id="SSs2/3" d="m59 175-9 1c0-5.283-3.744-17.012-1-22.5.814-1.627 8-21.915 8-22.5 3.709 0 5.456 4 9 4 0 4.995-2.856 11.213-5 15.5-3.387 6.775-2 17.574-2 24.5ZM398 175c2.723 0 5.778 1 9 1v-24.5l-7-20.5h-1c-3.709 0-5.456 4-9 4v1c1.45 0 2.31 8.12 3 9.5 4.358 8.716 5 18.96 5 29.5Z"/><path fill="#C9C9CA" id="scwm" d="M109 133c-1.577 0-2 1.762-2 3 1.577 0 2-1.762 2-3Z"/><path fill="#187C63" id="SSs4" d="M59 175h5l3-23.5 4-12.5v-1l-4-3h-1c0 4.995-2.856 11.213-5 15.5-3.387 6.775-2 17.574-2 24.5Z"/><path fill="#8FCBEC" id="SF" d="M219 183c0-8.281 1.512-18.524 5-25.5.518-1.036 1.795-7.852 4.5-6.5 6.2 3.1 8.5 25.78 8.5 33l2-4c0-13.829-2.343-24.186-8-35.5-.46-.921-1.74-9.5-2.5-9.5-1.749 0-2.867 9.233-3.5 10.5-5.269 10.538-8 20.661-8 33.5l2 4Z"/><path fill="#C9C9CA" id="scwm" d="M107 136c-1.577 0-2 1.762-2 3 1.577 0 2-1.762 2-3Z"/><path fill="#187C63" id="SSs4" d="M392 175h6c0-10.54-.642-20.784-5-29.5-.69-1.38-1.55-9.5-3-9.5l-5 2v1c2.357 0 1.264 6.029 2 7.5 3.93 7.859 5 19.153 5 28.5Z"/><path fill="#1C8063" id="SSs5" d="M75 175h1l1-1c0-6.736-.812-15.876 2-21.5l3-9.5c-4.066 0-6.822-4-11-4l-4 12.5-3 23.5c1.924 0 11-1.927 11 0Z"/><path fill="#C9C9CA" id="scwm" d="m105 139-1 2 1-2Z"/><path fill="#1C8063" id="SSs5" d="M381 175c0-2.256 9.28 0 11 0 0-9.347-1.07-20.641-5-28.5-.736-1.471.357-7.5-2-7.5-3.645 0-6.777 4-10 4 0 5.192 1.786 12.072 4 16.5V174l1 1h1Z"/><path fill="#C9C9CA" id="scwm" d="m104 141-1 2 1-2Z"/><path fill="#197D63" id="SSs6a" d="M77 174h1c4.076 0 8.431-1 13-1 0-7.983 6-14.132 6-22l-15-8-3 9.5c-2.812 5.624-2 14.764-2 21.5Z"/><path fill="#C9C9CA" id="scwm" d="M103 143c-2.109 0-2 2.535-2 4l2-4Z"/><path fill="#197D63" id="SSs6a" d="M378 174h1v-14.5c-2.214-4.428-4-11.308-4-16.5h-1c0 2.341-2.342 1.421-3.5 2-3.262 1.631-7.792 6-11.5 6 0 7.294 7 14.59 7 22l12 1Z"/><path fill="#A8AAAA" id="VL" d="m192 148-1 1c0-1.048-.473-3 1-3v2Z"/><path fill="#C9C9CA" id="scwm" d="M101 147c-2.109 0-2 2.535-2 4l2-4Z"/><path fill="#97D6F9" id="STR" d="m263 149 2 4v-6l-2 2ZM194 149l-3 6v-6l1-1 2 1Z"/><path fill="#1A8061" id="SSs6b" d="M91 173h1l1-1v-1l1-5 1-1c0-1.357.647-6 2-6v-3l1-1v-1l1-2v-1h-2c0 7.868-6 14.017-6 22Z"/><path fill="#96A7D3" id="MS" d="M227 210c0-1.118 1.287-5.926 2-4.5.574 1.147-1.064 4.5 1 4.5 5.787 0 7-20.954 7-26 0-7.22-2.3-29.9-8.5-33-2.705-1.352-3.982 5.464-4.5 6.5-3.488 6.976-5 17.219-5 25.5 0 5.775 1.697 27 8 27Z"/><path fill="#C9C9CA" id="scwm" d="m358 151 1 4-2-4h1Z"/><path fill="#1A8061" id="SSs6b" d="M365 173h1c0-7.41-7-14.706-7-22h-1l1 4 3 11c1.579 0 1 2.855 1 4v1l2 2Z"/><path fill="#C9C9CA" id="scwm" d="m99 152-1 2 1-2ZM98 155l-1 1 1-1Z"/><path fill="#C9C7C9" id="ccb" d="M97 159c-1.353 0-2 4.643-2 6 1.995 0 2-4.377 2-6ZM94 166h1v-1l-1 1Z"/><path fill="#C8CBCC" id="ec" d="M95 166c0 1.424-.362 5-2 5l1-5h1ZM362 167c0 1.048-.473 3 1 3 0-1.145.579-4-1-4v1Z"/><path fill="#A8AAAA" id="VL" d="m264 186 2 1c0-1.321-.684-6 1-6 0-4.121-1-9.275-1-14-1.684 0-1 4.679-1 6 0 4.414-1 9.177-1 13ZM190 182c0 2.177-.641 4 2 4v-13l-1-4c-1.788 0-1 11.092-1 13Z"/><path fill="#8FCBED" id="LSv" d="m195 190 5 5 5.5 4h6.5c9.487 0 4-7.234 4-12l-9.5-10c-2.301-1.15-10.337-7.331-13-6l-1.5 2v13c1.473 0 1 1.952 1 3h1l1 1ZM256 196l-1 1c-5.85 0-12.044 6.412-16-1.5l-1-2 2-6.5 7.5-8c4.829-2.415 9.219-5.61 14-8l3.5 2c0 4.414-1 9.177-1 13l-1 3-1 1-5 5-1 1Z"/><path fill="#C8CBCC" id="ec" d="m358 209-2 2c0-4.876 2.865-12.23 5-16.5 3.53-7.06 2-15.876 2-23.5l2 2v16l-1 1v1c-1.473 0-1 1.952-1 3l-1 1v1l-1 1v3l-1 2v1c-1.579 0-1 2.855-1 4l-1 2ZM98 209l3 3-6-18.5c-2.857-5.714-2-14.641-2-21.5l-1 1v17l1 1 1 4 1 1v2l1 2v1c1.684 0 1 4.679 1 6l1 2Z"/><path fill="#009B74" id="GU6a" d="M89 191h2v-18c-4.569 0-8.924 1-13 1l-1 1c0 6.616 2 11.873 2 18 4.058 0 6.292-2 10-2Z"/><path fill="#019C74" id="GU6b" d="M91 190h1v-17h-1v17ZM366 173c0 1.34 1.225 15-1 15v-15h1Z"/><path fill="#009B74" id="GU6a" d="m367 191 10 2c0-5.468 2-11.596 2-18l-1-1-12-1c0 1.34 1.225 15-1 15v3h2Z"/><path fill="#12AD82" id="VISC5" d="M75 175c-3.695 0-6.865 2-11 2v-2c1.924 0 11-1.927 11 0ZM76 175h1v-1l-1 1Z"/><path fill="#11AC83" id="VISC6a" d="m78 174-1 1v-1h1ZM379 174v1l-1-1h1Z"/><path fill="#12AD82" id="VISC5" d="M379 175h1l-1-1v1ZM392 175v2c-4.135 0-7.305-2-11-2 0-2.256 9.28 0 11 0Z"/><path fill="#12AC83" id="VISC2/3" d="M59 179c-3.724 0-5.63 3-8 3l-1-5v-1l9-1v4Z"/><path fill="#11AC82" id="VISC4" d="m64 178-5 1v-4h5v3Z"/><path fill="#019C75" id="GU5" d="m79 194-12 1c-2.166 0-3-14.705-3-17v-1c4.135 0 7.305-2 11-2h2c0 6.616 2 11.873 2 18v1ZM377 193c3.578 0 9.067 3 13 3 0-6.079 2-12.247 2-19-4.135 0-7.305-2-11-2h-2c0 6.404-2 12.532-2 18Z"/><path fill="#11AC82" id="VISC4" d="M397 179h1v-4h-6v2c2.523 0 1.959 2 5 2Z"/><path fill="#12AC83" id="VISC2/3" d="m398 179 7 4 2-6v-1c-3.222 0-6.277-1-9-1v4Z"/><path fill="#12AD83" id="VISC1" d="m51 183-4 1-2-7h5l1 5v1Z"/><path fill="#009C74" id="GU4" d="M390 196h1c0-.756 6-10.786 6-17-3.041 0-2.477-2-5-2 0 6.753-2 12.921-2 19Z"/><path fill="#12AD83" id="VISC1" d="m405 183 4 1c1.663 0 2-5.407 2-7h-4l-2 6Z"/><path fill="#009C74" id="GU4" d="M65 196h2v-1c-2.166 0-3-14.705-3-17l-5 1c0 5.711 6 13.894 6 17Z"/><path fill="#009B75" id="GU2/3" d="m65 196-8 2c0-4.684-6-9.846-6-15v-1c2.37 0 4.276-3 8-3 0 5.711 6 13.894 6 17Z"/><path fill="#97D6F9" id="STR" d="M211 213c0-5.429 11.001 0 12 0 1.429 0 4-1.288 4-3-6.303 0-8-21.225-8-27l-2-4-1 8c0 4.766 5.487 12-4 12h-6.5l-5.5-4 4 4.5 4 13.5h3Z"/><path fill="#009B75" id="GU2/3" d="M399 198h1c0-5.157 5-9.441 5-15l-7-4h-1c0 6.214-6 16.244-6 17 1.257 0 8 .941 8 2Z"/><path fill="#97D6F9" id="STR" d="M246 213h2c1.781 0 1.348-6.197 2-7.5.719-1.438 5-7.392 5-8.5-5.85 0-12.044 6.412-16-1.5l-1-2 2-6.5c0-1.406.714-7-1-7l-2 4c0 5.046-1.213 26-7 26 0 1.658 1.461 3 3 3h1c2.428 0 5.933-3.784 9.5-2l2.5 2ZM281 236c4.418 0 8.051 7 12 7 0-2.183-3.405-3.31-4-4.5l-5-10c-.501-1.002-2.609-4.5-1-4.5l-3-7.5c-2.325-4.65-.289-24.578-4-32-2.105-4.21-9 4.525-9-3.5-1.684 0-1 4.679-1 6 2.124 0 5-1.559 5 2 4.271 0 6.173 21.845 8 25.5.756 1.512-1.001 8.5-2 8.5v2c2.144 0 .381 4.262 1 5.5l3 5.5ZM176 236l-11 5c0-2.948 6.566-9.631 8-12.5.516-1.032.882-3.5 0-3.5l4-10.5c2.671-5.342-1.614-28.443 4.5-31.5l6 2 2.5-3c0 2.177-.641 4 2 4 1.473 0 1 1.952 1 3-1.278 0-8-6.375-8 0-1.998 0-2.337 5.174-3 6.5-4.225 8.449-3 17.354-3 26.5v5l-2 8-1 1Z"/><path fill="#009C75" id="GU1" d="M53 199h4v-1c0-4.684-6-9.846-6-15l-4 1c0 2.151 3.928 15 6 15ZM400 198c0 1.579 2.855 1 4 1 0-4.968 5-9.531 5-15l-4-1c0 5.559-5 9.843-5 15Z"/><path fill="#B3C0DE" id="BST" fill-rule="evenodd" d="m179 227 4.5 4 9.5 1c7.925 0 8.13-9 16-9v-5l-1-4v-1l-4-13.5-4-4.5-5-5-1-1h-1c-1.278 0-8-6.375-8 0 0 5.719-2.466 16.431-5 21.5-.861 1.722 1.427 11.5-1 11.5v5m10-9 1 1 5.5 2c6.168-3.084 14.681-8.659 4-14-3.349-1.675-6.241 2-8.5 2l-1 1v1l-1 1v6Z"/><path fill="#97D6F9" id="STR" d="M266 187c0 1.577-1.762 2-3 2l1-3 2 1Z"/><path fill="#B3C0DE" id="BST" fill-rule="evenodd" d="M277 225c0 6.495-8.966 7-14 7-6.304 0-8.174-9-15-9h-1v-7l1-1v-2c1.781 0 1.348-6.197 2-7.5.719-1.438 5-7.392 5-8.5l1-1 1-1 5-5 1-1c1.238 0 3-.423 3-2 2.124 0 5-1.559 5 2l2 4.5c1.92 3.84 4 24.291 4 29.5v2m-11-15 1 1v7.5c-3.068 6.137-13.059-.117-15-4-3.89-7.781 14-10.016 14-4.5Z"/><path fill="#8599CC" id="PAL" d="M185 189c-1.998 0-2.337 5.174-3 6.5-4.225 8.449-3 17.354-3 26.5 2.427 0 .139-9.778 1-11.5 2.534-5.069 5-15.781 5-21.5Z"/><path fill="#97D6F9" id="STR" d="m194 189 1 1-1-1ZM263 189l-1 1 1-1Z"/><path fill="#8599CC" id="PAL" d="M271 189c4.271 0 6.173 21.845 8 25.5.756 1.512-1.001 8.5-2 8.5 0-5.209-2.08-25.66-4-29.5l-2-4.5Z"/><path fill="#019C74" id="GU6b" d="M364 190h1v-1l-1 1Z"/><path fill="#209766" id="AIp6a" d="M91 191h1v-1h-1v1Z"/><path fill="#219666" id="AIp6b" d="M92 191h1l-1-1v1ZM364 191h1v-1h-1v1Z"/><path fill="#209766" id="AIp6a" d="m91 211-4 1c-1.845 0-1.44-3.381-2-4.5-1.788-3.576-6-9.45-6-13.5v-1c4.058 0 6.292-2 10-2 0 3.372-5.838 18 4 18l-1 1-1 1Z"/><path fill="#8ADA86" id="CLA" d="M93 209h1l1-1 1-1v-7l-1-2v-2l-1-1-1-4h-4c0 3.372-5.838 18 4 18ZM363 209h1c10.131 0 3-17.294 3-18h-3c-1.473 0-1 1.952-1 3l-1 1v1l-1 1v3l-1 2v1l1 4 1 2h1Z"/><path fill="#209766" id="AIp6a" d="M364 209c0 1.428 4.822 4 6 4 0-7.11 7-12.608 7-20l-10-2c0 .706 7.131 18-3 18Z"/><path fill="#219864" id="AIp5" d="M373 215h4c2.032 0 13-16.155 13-19-3.933 0-9.422-3-13-3 0 7.392-7 12.89-7 20l3 2ZM79 215h4l4-3c-1.845 0-1.44-3.381-2-4.5-1.788-3.576-6-9.45-6-13.5l-12 1v1c0 2.806 9.628 19 12 19Z"/><path fill="#209766" id="AIp6a" d="m363 194-1 1 1-1ZM94 195l1 1-1-1Z"/><path fill="#97D6F9" id="STR" d="m257 195-1 1 1-1Z"/><path fill="#209865" id="AIp2/3" d="M79 215c0 1.259-8.632 4-10 4 0-3.102-12-14.898-12-20v-1l8-2h2c0 2.806 9.628 19 12 19Z"/><path fill="#97D6F9" id="STR" d="m256 196-1 1 1-1Z"/><path fill="#209766" id="AIp6a" d="m362 196-1 1 1-1Z"/><path fill="#209865" id="AIp2/3" d="M377 215c0 1.259 8.632 4 10 4 2.393 0 12-18.252 12-21 0-1.059-6.743-2-8-2h-1c0 2.845-10.968 19-13 19Z"/><path fill="#209766" id="AIp6a" d="m95 198 1 2-1-2Z"/><path fill="#219765" id="AIp1" d="m387 219 6 3c0-5.63 11-16.329 11-23-1.145 0-4 .579-4-1h-1c0 2.748-9.607 21-12 21ZM69 219l-5 3c-1.627 0-11-20.11-11-23h4c0 5.102 12 16.898 12 20Z"/><path fill="#209766" id="AIp6a" d="m361 200-1 2 1-2ZM96 207h1c0-1.321.684-6-1-6v6ZM359 207h2l-1-4c-1.579 0-1 2.855-1 4ZM95 208h1v-1l-1 1Z"/><path fill="#8AD987" id="CTXsp" d="m96 208 2 1-1-2h-1v1Z"/><path fill="#CBCBC7" id="aco" d="m189 218 1 1 5.5 2c6.168-3.084 14.681-8.659 4-14-3.349-1.675-6.241 2-8.5 2l-1 1v1l-1 1v6ZM266 210l1 1v7.5c-3.068 6.137-13.059-.117-15-4-3.89-7.781 14-10.016 14-4.5Z"/><path fill="#8AD987" id="CTXsp" d="M358 209h4l-1-2h-2l-1 2Z"/><path fill="#209766" id="AIp6a" d="m95 208-1 1 1-1Z"/><path fill="#A0EE9C" id="EPd" d="M101 229h5l1-3v-2l-2-2v-1l-1-1-1-3-1-1v-1l-1-1v-2l-3-3-2-1h-1l-1 1h-1l-1 1-1 1v11l2 2 1 1 2 2 2 1 1 1h2ZM356 229h1l2-1 1-1 1-1 1-1 3-3 1-2c0-4.611-3-9.818-3-11h-5l-2 2v1l-1 1v2l-1 1-1 3-1 1-2 4-1 1v1l2 3h5Z"/><path fill="#C9C9C9" id="act" d="m191 209-1 1 1-1Z"/><path fill="#99D2BD" id="OLF" d="M373 215c-3.694 0-4.561 5-7 5 0-4.611-3-9.818-3-11h1c0 1.428 4.822 4 6 4l3 2ZM92 210l-1 1 1-1Z"/><path fill="#C9C9C9" id="act" d="m266 210 1 1-1-1Z"/><path fill="#99D2BD" id="OLF" d="M83 215c4.348 0 5.234 6 8 6v-10l-4 1-4 3Z"/><path fill="#C9C9C9" id="act" d="m190 211-1 1 1-1Z"/><path fill="#FF5547" id="ADP" d="m209 231 1 2c2.203 0 4.569 3.465 7.5 2l5.5-5v-17c-.999 0-12-5.429-12 0l-1 2c0 1.048.473 3-1 3v13ZM247 232l-1 1c-2.19 0-12 4.571-12-3 0-4.594-1-10.741-1-16l1-1c2.428 0 5.933-3.784 9.5-2l2.5 2 1 2v17Z"/><path fill="#C8CBCC" id="ec" d="m356 212-1 1 1-1Z"/><path fill="#CAC7CB" id="fiber tracts" d="m208 214 2 1 1-2h-3v1Z"/><path fill="#E64438" id="HY" d="m234 213-1 1v-1h1Z"/><path fill="#CAC7CB" id="fiber tracts" d="M247 215h1v-2h-2l1 2Z"/><path fill="#C8CBCC" id="ec" d="m101 214 1 1-1-1Z"/><path fill="#E64438" id="HY" d="M210 215c0 1.048.473 3-1 3l-1-4 2 1ZM223 230l3 1c0-4.425 1-9.961 1-15l-4-2v16ZM231 230h3c0-4.594-1-10.741-1-16l-4 2c0 1.407 1.182 14 2 14Z"/><path fill="#6ACAB9" id="PIR" d="m119 270-1 1-2-1c-6.139 0-14.763-7-21-7l-11-11.5c-4.645-4.645-20-22.767-20-29.5l5-3c1.368 0 10-2.741 10-4h4c4.348 0 5.234 6 8 6v1l2 2 1 1 2 2 2 1 1 1h2c0 2.341 2.342 1.421 3.5 2 4.822 2.411 9.174 5.587 14 8 8.403 4.202 7.5 16.108 7.5 24l-1 1-6 6Z"/><path fill="#FF5445" id="MEPO" d="M227 245h2l2-3v-12c-.818 0-2-12.593-2-14 0-1.399-2-1.399-2 0 0 5.039-1 10.575-1 15 0 2.998-1 7.358-1 11l2 3Z"/><path fill="#E64438" id="HY" d="m248 215-1 1v-1h1Z"/><path fill="#C8CBCC" id="ec" d="m355 215-1 1 1-1Z"/><path fill="#6ACAB9" id="PIR" d="m337 270 3 1c0-2.526 19.849-8 22-8l9-9.5c3.588-7.177 22-24.209 22-31.5l-6-3c-1.368 0-10-2.741-10-4h-4c-3.694 0-4.561 5-7 5l-1 2-3 3-1 1-1 1-1 1-2 1h-1c0 1.813-11.003 6-13 6l-10 9.5c-3.32 6.639-2 11.475-2 18.5 0 3.291 6 3.675 6 7Z"/><path fill="#C8CBCC" id="ec" d="m102 216 1 1-1-1Z"/><path fill="#C9C9C9" id="act" d="m189 218 1 1-1-1Z"/><path fill="#C8CBCC" id="ec" d="m353 219-1 1 1-1ZM104 220l1 1-1-1Z"/><path fill="#99D2BD" id="OLF" d="m366 220-1 2 1-2ZM91 222l2 2-2-2Z"/><path fill="#C8CBCC" id="ec" d="m105 222 2 2-2-2Z"/><path fill="#FD5446" id="PS" d="m205 239-2.5 2c-2.772 1.386-7.269-1-9.5-1l-1-2 1-6c7.925 0 8.13-9 16-9v10l-4 6ZM251 239c2.516 0 7.435 2 12 2l1-3c0-2.011-1-3.989-1-6-6.304 0-8.174-9-15-9l-1 1v8l1 1 3 6Z"/><path fill="#E64438" id="HY" d="m248 223-1 1v-1h1Z"/><path fill="#7ECDF8" id="FS" d="m325 254-2.5 3c-.919.459-2.5-.765-2.5 1-5.514 0-9.978-.739-14.5-3L293 243c0-2.183-3.405-3.31-4-4.5l-5-10c-.501-1.002-2.609-4.5-1-4.5 0 2.032 15.344 8 18 8l1 1h3c0 2.238 9.802 2 12 2h2c0 2.064 3.353.426 4.5 1 4.023 2.012 7.5.012 7.5 5l-1 2-2 3-1 1v2l-1 2c-1.473 0-1 1.952-1 3Z"/><path fill="#C8CBCC" id="ec" d="m350 224-1 1 1-1Z"/><path fill="#99D2BD" id="OLF" d="m94 225 2 2-2-2Z"/><path fill="#C8CBCC" id="ec" d="M107 226c3.725 0 6.956 7 11 7 0-1.684-9.993-8-11-8v1Z"/><path fill="#7ECDF8" id="FS" d="m131 253 5 5c6.134 0 26-5.966 26-14l1-1 1-1 1-1c0-2.948 6.566-9.631 8-12.5.516-1.032.882-3.5 0-3.5-3.628 0-11.584 7-18 7l-1 1h-2c0 2.379-10.688 2-13 2h-2c0 2.164-10.814 1.128-12 3.5-1.058 2.116 2 2.898 2 4.5v1l2 2v2l1 1v1l1 2v1Z"/><path fill="#E64438" id="HY" d="M281 236c-6.724 0-11.41 2-17 2 0-2.011-1-3.989-1-6 5.034 0 14-.505 14-7 2.144 0 .381 4.262 1 5.5l3 5.5Z"/><path fill="#C8CBCC" id="ec" d="M348 226h1v-1l-1 1Z"/><path fill="#99D2BD" id="OLF" d="m362 225-1 1 1-1Z"/><path fill="#8AD987" id="CTXsp" d="M118 233c0 2.349 3 1.382 3 4-2.678 0-15-6.771-15-8l1-3c3.725 0 6.956 7 11 7Z"/><path fill="#C8CBCC" id="ec" d="m348 226-1 1 1-1Z"/><path fill="#8AD987" id="CTXsp" d="M343 235c-2.83 0-4.54 2-7 2l2-4h1l2-2 2-1 2-1 1-1 1-1 1-1h1l2 3c0 1.809-8 2.663-8 6Z"/><path fill="#E64438" id="HY" d="m177 235 15 3 1-6-9.5-1-4.5-4-2 8Z"/><path fill="#C8CBCC" id="ec" d="m347 227-1 1 1-1Z"/><path fill="#99D2BD" id="OLF" d="m360 227-1 1 1-1ZM98 228l1 1-1-1Z"/><path fill="#C8CBCC" id="ec" d="m346 228-1 1 1-1Z"/><path fill="#99D2BD" id="OLF" d="m359 228-2 1 2-1ZM126 263h2l4-3-1-7v-1l-1-2v-1l-1-1v-2l-2-2v-1l-6-6c-2.678 0-15-6.771-15-8h-5c0 2.341 2.342 1.421 3.5 2 4.822 2.411 9.174 5.587 14 8 8.403 4.202 7.5 16.108 7.5 24Z"/><path fill="#C8CBCC" id="ec" d="m345 229-2 1 2-1Z"/><path fill="#99D2BD" id="OLF" d="M356 229c0 1.813-11.003 6-13 6 0-3.337 8-4.191 8-6h5Z"/><path fill="#FF5346" id="MPO" d="M219 249c-2.202 0-3.341-5.079-9.5-2l-6.5 4.5c-.606 1.212-2.24 5.5-4 5.5 0-5.204 4-8.575 4-14l2-4 4-6h1c2.203 0 4.569 3.465 7.5 2l5.5-5 3 1c0 2.998-1 7.358-1 11-4.196 0-4.152 7-6 7ZM257 269l-5 1c-3.281 0-6.134-5-9-5 0-3.685-4-6.026-4-10 3.176 0 12.623 19.254 19 6.5 2.937-5.875-20-24.549-20-10.5-.902 0-1.436-9-7-9v-12h3c0 7.571 9.81 3 12 3h2l3 6 2 5 6 17 1 1v2c-.559 0-3 4.241-3 5Z"/><path fill="#C8CBCC" id="ec" d="m343 230-2 1 2-1Z"/><path fill="#E64438" id="HY" d="M209 233h1l-1-2v2Z"/><path fill="#C8CBCC" id="ec" d="M339 232v1l2-2-2 1Z"/><path fill="#97D6F9" id="STR" d="m155 232-1 1 1-1Z"/><path fill="#E64438" id="HY" d="M246 233h2l-1-1-1 1Z"/><path fill="#97D6F9" id="STR" d="m301 232 1 1-1-1ZM338 233h1v-1l-1 1ZM121 237l6 6c0-1.602-3.058-2.384-2-4.5 1.186-2.372 12-1.336 12-3.5l-8.5 1-10.5-3c0 2.349 3 1.382 3 4ZM152 233c-1.714 0-13 .852-13 2 2.312 0 13 .379 13-2ZM305 233c1.496 0 12 .988 12 2-2.198 0-12 .238-12-2ZM336 237c0 .841-4.008 4-5 4 0-4.988-3.477-2.988-7.5-5-1.147-.574-4.5 1.064-4.5-1l8.5 1 10.5-3-2 4Z"/><path fill="#E64438" id="HY" d="m177 235-1 1 1-1Z"/><path fill="#A2B1D7" id="SI" d="M128 263c0 3.327 6.862 8.681 9.5 10l5 4c9.615 4.808 20.578 0 30.5 0l-4-4.5c-1.725-3.451 9.72-10.5 12-10.5l2-1 2-2c0-1.202 8-9.522 8-16v-3l-1-2-15-3-1 1-11 5-1 1-1 1-1 1c0 8.034-19.866 14-26 14l-4 2-4 3ZM329 263c0 2.431-5.282 5.064-6 6.5-7.276 14.551-27.47 7.5-40 7.5l5-5.5c0-3.172-9.711-9.5-13-9.5l-3-3c-4.779 0-9-12.638-9-16v-2l1-3c5.59 0 10.276-2 17-2 4.418 0 8.051 7 12 7l12.5 12c4.522 2.261 8.986 3 14.5 3l4 2 5 3Z"/><path fill="#99D2BD" id="OLF" d="M329 263h2c0-7.025-1.32-11.861 2-18.5l10-9.5c-2.83 0-4.54 2-7 2 0 .841-4.008 4-5 4l-1 2-2 3-1 1v2l-1 2c0 1.048.473 3-1 3l-1 6 5 3Z"/><path fill="#E64438" id="HY" d="M193 243h10l2-4-2.5 2c-2.772 1.386-7.269-1-9.5-1v3ZM263 243l-5.5-1-4.5 2-2-5c2.516 0 7.435 2 12 2v2Z"/><path fill="#97D6F9" id="STR" d="m165 241-1 1 1-1ZM331 241l-1 2 1-2ZM164 242l-1 1 1-1Z"/><path fill="#F2473B" id="LPO" d="m197 262-1 1c-3.911 0-6.607-2-11-2v-2c0-1.202 8-9.522 8-16h10c0 5.425-4 8.796-4 14-1.014 0-2 3.959-2 5Z"/><path fill="#FE5446" id="AVPV" d="M211 275h3l4-2h1l2-1c0-1.473 1.952-1 3-1h1l2-2v-24l-2-3c-4.196 0-4.152 7-6 7v2l-1 2-1 2c0 4.079-4 6.766-4 10 0 2.332-6.997 10-2 10ZM238 273l7 2c5.798 0-2-8.166-2-10 0-3.685-4-6.026-4-10v-1l-1-2v-1c-.902 0-1.436-9-7-9l-2 3v8c0 5.356 1 11.266 1 16l2 2c1.424 0 5 .362 5 2h1Z"/><path fill="#F2473B" id="LPO" d="M260 263h1c3.395 0 6.106-2 10-2l1-2c-4.779 0-9-12.638-9-16l-5.5-1-4.5 2 6 17 1 1v1Z"/><path fill="#97D6F9" id="STR" d="m163 243-1 1 1-1ZM127 244l2 2-2-2Z"/><path fill="#FD5447" id="OV" d="M227 253h2v-8h-2v8Z"/><path fill="#FE5447" id="AVP" d="m217 255-4.5 6c-7.329 3.665-13.5 9.12-13.5-4 1.76 0 3.394-4.288 4-5.5l6.5-4.5c6.159-3.079 7.298 2 9.5 2v2l-1 2-1 2ZM239 254v1c3.176 0 12.623 19.254 19 6.5 2.937-5.875-20-24.549-20-10.5v1l1 2Z"/><path fill="#97D6F9" id="STR" d="m328 246-1 1 1-1ZM129 248l1 1-1-1ZM327 249l-1 2 1-2ZM130 250l1 2-1-2Z"/><path fill="#FF5346" id="MPO" d="m219 251-1 2 1-2Z"/><path fill="#97D6F9" id="STR" d="M326 251c-1.473 0-1 1.952-1 3 1.473 0 1-1.952 1-3Z"/><path fill="#FF5346" id="MPO" d="m238 252 1 2-1-2Z"/><path fill="#97D6F9" id="STR" d="m136 258-4 2-1-7 5 5Z"/><path fill="#FF5346" id="MPO" d="m218 253-1 2 1-2Z"/><path fill="#A8A9AA" id="V3" d="M227 269c0 1.486 3 1.486 3 0 0-4.734-1-10.644-1-16h-2v16Z"/><path fill="#97D6F9" id="STR" d="m320 258 4 2 1-6-2.5 3c-.919.459-2.5-.765-2.5 1Z"/><path fill="#FF5346" id="MPO" d="M200 270c0-1.535 4-1.535 4 0 3.281 0 6.134-5 9-5 0-3.234 4-5.921 4-10l-4.5 6c-7.329 3.665-13.5 9.12-13.5-4-1.014 0-2 3.959-2 5v2l3 6Z"/><path fill="#E64438" id="HY" d="M183 261h2v-2l-2 2ZM275 262l-1 2c0-2.041-.959-3-3-3l1-2 3 3ZM181 262l1 1 1-2-2 1Z"/><path fill="#96A6D3" id="NDB" d="m197 278-2 1c-6.291 0-12.953-4-14-4 0-3.531 1-7.893 1-12l1-2h2c4.393 0 7.089 2 11 2l1 1 3 6-3 8Z"/><path fill="#CBCCCB" id="mfb" d="m259 261 1 1-1-1Z"/><path fill="#96A6D3" id="NDB" d="m260 278 1 1c3.459 0 7.627.437 10.5-1l3.5-3-1-11c0-2.041-.959-3-3-3-3.894 0-6.605 2-10 2l-1 1c-.559 0-3 4.241-3 5 0 3.303 2 5.115 2 8l1 1Z"/><path fill="#CAC8C7" id="lot" d="M117 273v2c-1.423 0-3.544 1.978-5.5 1-3.8-1.9-16.5-8.633-16.5-13 6.237 0 14.861 7 21 7l1 3Z"/><path fill="#A2B1D8" id="MA" d="M173 277h4l4-2c0-3.531 1-7.893 1-12l-1-1c-2.28 0-13.725 7.049-12 10.5l4 4.5Z"/><path fill="#CBCCCB" id="mfb" d="m196 263 1 1v-2l-1 1Z"/><path fill="#A2B1D8" id="MA" d="M279 277h4l5-5.5c0-3.172-9.711-9.5-13-9.5l-1 2 1 11 4 2Z"/><path fill="#CAC8C7" id="lot" d="m339 275 1 1c5.269 0 22-7.669 22-13-2.151 0-22 5.474-22 8l-1 1v3Z"/><path fill="#99D2BD" id="OLF" d="m126 263-1 1 1-1Z"/><path fill="#7FCCF7" id="OT" d="M121 280c0 4.859 7.763 10.132 11.5 12 12.68 6.34 22.874 11.063 37 4 4.063-2.032 15.5-1.745 15.5-9 0-4.947-2.608-10-8-10h-4c-9.922 0-20.885 4.808-30.5 0l-5-4c-2.638-1.319-9.5-6.673-9.5-10h-2l-1 1-6 6v1c0 2.409 1 5.181 1 7v1l1 1Z"/><path fill="#CBCCCB" id="mfb" d="m261 263-1 1v-1h1Z"/><path fill="#7FCCF7" id="OT" d="M335 281c0 3.434-6.801 8.65-9.5 10-16.163 8.081-22.732 13.134-41 4-3.328-1.664-12.5-1.384-12.5-7 0-4.109.107-11 7-11h4c12.53 0 32.724 7.051 40-7.5.718-1.436 6-4.069 6-6.5h2c0 3.291 6 3.675 6 7l1 2-1 5v1l-1 1v1l-1 1Z"/><path fill="#E64438" id="HY" d="M208 277h1l1-1 1-1c-4.997 0 2-7.668 2-10-2.866 0-5.719 5-9 5 0 1.819 1 4.591 1 7h3ZM247 276l5 2v-8c-3.281 0-6.134-5-9-5 0 1.834 7.798 10 2 10l2 1Z"/><path fill="#FE5546" id="VLPO" d="m198 278 1 1c.706 0 6-1.325 6-2 0-2.409-1-5.181-1-7 0-1.535-4-1.535-4 0l-3 8h1ZM252 278h7v-1c0-2.885-2-4.697-2-8l-5 1v8Z"/><path fill="#99D2BD" id="OLF" d="m118 271-1 2-1-3 2 1ZM118 271h1v-1l-1 1ZM338 272h1l1-1-3-1 1 2Z"/><path fill="#97D6F9" id="STR" d="m117 275 3 3c0-1.819-1-4.591-1-7h-1l-1 2v2Z"/><path fill="#CAC7CB" id="fiber tracts" d="M224 271c-1.048 0-3-.473-3 1 1.048 0 3 .473 3-1Z"/><path fill="#CBCACC" id="och" d="M246 288h1l4-4.5-9.5-8.5-3.5-2h-1c-1.041 0-5-.986-5-2h-2l-1 1h-2l-1-1h-2c0 1.473-1.952 1-3 1l-2 1h-1c0 2.109-2.535 2-4 2l-8 8.5c-1.394 2.789 3 3.035 3 4.5h37Z"/><path fill="#CAC7CB" id="fiber tracts" d="m226 271 1 1-1-1ZM230 271l-1 1 1-1ZM232 271c1.424 0 5 .362 5 2-1.041 0-5-.986-5-2ZM221 272l-2 1 2-1Z"/><path fill="#97D6F9" id="STR" d="m339 276-2 1 1-5h1v4Z"/><path fill="#CAC7CB" id="fiber tracts" d="m218 273-4 2c1.465 0 4 .109 4-2ZM247 276l5 5.5c2.587 5.175.864 6.5-5 6.5l4-4.5-9.5-8.5-3.5-2 7 2 2 1Z"/><path fill="#8599CC" id="PAL" d="M195 279c0 1.936-8.398 8-10 8 0-4.947-2.608-10-8-10l4-2c1.047 0 7.709 4 14 4Z"/><path fill="#CAC7CB" id="fiber tracts" d="M208 277h1l1-1 1-1h3l-8 8.5c-1.394 2.789 3 3.035 3 4.5-6.141 0-6.393-2.713-4-7.5l3-3.5Z"/><path fill="#8599CC" id="PAL" d="M261 279c0 1.465 9.557 9 11 9 0-4.109.107-11 7-11l-4-2-3.5 3c-2.873 1.437-7.041 1-10.5 1Z"/><path fill="#99D2BD" id="OLF" d="M339 276h1l-1-1v1Z"/><path fill="#E64438" id="HY" d="M259 278h1l-1-1v1ZM198 278l1 1-1-1Z"/><path fill="#97D6F9" id="STR" d="m337 278-1 1 1-1ZM120 279l1 1-1-1ZM336 280l-1 1 1-1Z"/><path fill="#CAC7CB" id="fiber tracts" d="M210 288h36c0 1.725-6.052 1-7.5 1h-20c-1.532 0-8.5.743-8.5-1Z"/></svg>