<svg xmlns="http://www.w3.org/2000/svg" viewBox="0 0 456 320"><path fill="#187F60" id="SSp-ll1" d="m132 31 1 5c4.65 0 8.583-3.041 12.5-5 9.125-4.562 24.783-6 35.5-6l1-3c-1.473 0-1-1.952-1-3-8.379 0-27.532 2.516-34.5 6L132 31Z"/><path fill="#187C64" id="SSp-tr1" d="M182 19v3c-1.473 0-1-1.952-1-3h1Z"/><path fill="#1E9D5A" id="MOp1" d="M199 24c-5.361 0-12.004 1-18 1l1-3v-3h17v5Z"/><path fill="#1E9C59" id="MOs1" d="M222 37h1l4-2-4-4.5c-4.169-8.339-14.503-11.5-24-11.5v5c7.386 0 23 4.56 23 13ZM230 35l4 2c0-8.26 16.344-13 23-13v-5c-8.008 0-27 6.656-27 16Z"/><path fill="#1E9D5A" id="MOp1" d="M257 24c5.361 0 12.004 1 18 1v-6h-18v5Z"/><path fill="#187F60" id="SSp-ll1" d="m324 31-1 5c-4.099 0-8.97-3.235-12.5-5-9.125-4.562-24.783-6-35.5-6v-6c7.331 0 29.694 3.097 35.5 6 2.209 1.105 11.667 6 13.5 6Z"/><path fill="#1F9C58" id="MOp2/3" d="M181 37v1l16-5h1l1-9c-5.361 0-12.004 1-18 1v12Z"/><path fill="#1E9D58" id="MOs2/3" d="M216 41h1l5-4c0-8.44-15.614-13-23-13l-1 9c4.749 0 18 .996 18 8ZM234 38l6 3c0-7.029 14.154-8 19-8l-2-9c-6.656 0-23 4.74-23 13v1Z"/><path fill="#1F9C58" id="MOp2/3" d="m276 37-1 1c-5.066 0-10.551-5-16-5l-2-9c5.361 0 12.004 1 18 1 0 1.825-.781 12 1 12Z"/><path fill="#187F64" id="SSp-ll2/3" d="M181 37c-8.774 0-27.085 4.293-34.5 8-3.262 1.631-5.54 4-9.5 4 0-4.124-4-8.36-4-12v-1c4.65 0 8.583-3.041 12.5-5 9.125-4.562 24.783-6 35.5-6v12ZM323 37c0 4.17-4 7.991-4 12-3.817 0-6.352-2.426-9.5-4-7.143-3.571-25.1-8-33.5-8-1.781 0-1-10.175-1-12 10.717 0 26.375 1.438 35.5 6 3.53 1.765 8.401 5 12.5 5v1Z"/><path fill="#197E64" id="SSp-ul1" d="m117 38 1 6c4.888 0 9.615-7 15-7v-1l-1-5c-2.033 0-15 5.344-15 7ZM340 38c0 .67-1.328 5-2 5-5.437 0-9.286-6-15-6v-1l1-5c4.061 0 8.054 3.277 11.5 5 .93.465 4.5.817 4.5 2Z"/><path fill="#1E9C5A" id="MOp5" d="m193 49-16 8c0-6.191 4-12.054 4-18v-1l16-5c0 5.877-4 10.596-4 16Z"/><path fill="#1F9D58" id="MOs5" d="M193 49c2.173 0 13-3.354 13 2l10-10c0-7.004-13.251-8-18-8h-1c0 5.877-4 10.596-4 16ZM250 51h1c0-5.507 9.22-2 12-2 0-5.838-4-10.241-4-16-4.846 0-19 .971-19 8l10 10Z"/><path fill="#1E9C5A" id="MOp5" d="m263 49 16 7c.453 0 .608-3.283 0-4.5-1.725-3.45-3-8.453-3-12.5l-1-1c-5.066 0-10.551-5-16-5 0 5.759 4 10.162 4 16Z"/><path fill="#3EA665" id="ACAd1" d="M223 58h10c0-6.642 1-14.002 1-20v-1l-4-2c-.476 0-3 3.803-3 0l-4 2v21Z"/><path fill="#197F61" id="SSp-ul2/3" d="M121 57h1c0-1.845 3.381-1.44 4.5-2l10.5-5v-1c0-4.124-4-8.36-4-12-5.385 0-10.112 7-15 7 0 4.133 3 7.549 3 13Z"/><path fill="#1C7F64" id="SSp-ll4" d="M139 56h1c8.829 0 34.441-17 41-17v-2c-8.774 0-27.085 4.293-34.5 8-3.262 1.631-5.54 4-9.5 4v1c0 1.714 2 3.482 2 6Z"/><path fill="#40A565" id="ACAd2/3" d="m223 58-5 1-1-18 5-4h1v21Z"/><path fill="#1C7F64" id="SSp-ll4" d="m319 50-2 6-6.5-3h-4c-6.151-3.076-12.934-4.967-19-8-3.038-1.519-8.137-6-11.5-6l-1-1 1-1c8.4 0 26.357 4.429 33.5 8 3.148 1.574 5.683 4 9.5 4v1Z"/><path fill="#197F61" id="SSp-ul2/3" d="m319 50 16 7c0-5.133 3-8.211 3-13v-1c-5.437 0-9.286-6-15-6 0 4.17-4 7.991-4 12v1Z"/><path fill="#1B8062" id="SSp-un1" d="M109 48h1l8-4-1-6c-3.47 0-6.007 4-9 4l1 6Z"/><path fill="#40A565" id="ACAd2/3" d="m233 58 6 2c0-6.244 1-13.428 1-19l-6-3c0 5.998-1 13.358-1 20Z"/><path fill="#1B8062" id="SSp-un1" d="M338 44c3.083 0 5.545 3 9 3l2-4c0-1.987-7.371-5-9-5 0 .67-1.328 5-2 5v1Z"/><path fill="#197C63" id="SSp-ll5" d="m177 57-31 11c0-3.67-6-7.35-6-12 8.829 0 34.441-17 41-17 0 5.946-4 11.809-4 18ZM279 57l32 11 6-12-6.5-3h-4c-6.151-3.076-12.934-4.967-19-8-3.038-1.519-8.137-6-11.5-6 0 4.047 1.275 9.05 3 12.5.608 1.217.453 4.5 0 4.5v1Z"/><path fill="#3EA566" id="ACAd5" d="M218 60c-4.14 0-7.316 6-11 6 0-4.933-1-10.73-1-15l10-10h1l1 18v1ZM239 60c3.971 0 6.693 6 10 6l1-15-10-10c0 5.572-1 12.756-1 19Z"/><path fill="#188060" id="SSp-bfd1" d="M65 83h1c0-5.012 24.008-24.754 30.5-28l12.5-7-1-6c-7.779 0-32.19 21.69-39 28.5-2.528 2.528-10 9.111-10 12.5l5 1 1-1ZM397 83l-5 1-1-1c0-3.822-6.641-5.781-8-8.5-2.787-5.575-29.804-26.5-36-26.5v-1l2-4c8.75 0 37.146 23.792 40 29.5 1.512 3.024 8 5.944 8 10.5Z"/><path fill="#1C7F63" id="SSp-un2/3" d="m121 57-8 4c0-4.096-3-8.688-3-13l8-4c0 4.133 3 7.549 3 13ZM343 61h1l3-13v-1c-3.455 0-5.917-3-9-3 0 4.789-3 7.867-3 13l8 4Z"/><path fill="#187F63" id="SSp-bfd2/3" d="M78 83h1c0-4.16 27.933-22 34-22 0-4.096-3-8.688-3-13h-1l-12.5 7C90.008 58.246 66 77.988 66 83h12Z"/><path fill="#1D9C5A" id="MOs6a" d="M195 69h1c0-2.668 8.22-18 10-18 0-5.354-10.827-2-13-2l-3 15c0 1.234-.643 5 1 5h4ZM261 69h5c0-2.302 1-3.585 1-5.5 0-4.488-4-10.168-4-14.5-2.78 0-12-3.507-12 2 0 4.49 10 11.832 10 18Z"/><path fill="#187F63" id="SSp-bfd2/3" d="M391 83c0 1.546-3.202 0-4.5 0-3.288 0-5.291 1-7.5 1l-1-1-7-7.5c-2.444-2.444-24.338-14.5-27-14.5l3-13c6.196 0 33.213 20.925 36 26.5 1.359 2.719 8 4.678 8 8.5Z"/><path fill="#1F9B5A" id="MOp6a" d="M189 71c-5.304 0-8.671 4-14 4 0-7.441 2-10.783 2-18l16-8-3 15c0 1.234-.643 5 1 5v1l-2 1ZM266 70c5.261 0 9.455 5 15 5 1.927 0-2-16.208-2-18v-1l-16-7c0 4.332 4 10.012 4 14.5 0 1.915-1 3.198-1 5.5v1Z"/><path fill="#1A7F63" id="SSp-ul4" d="M123 64h1l15-8c0-2.518-2-4.286-2-6l-10.5 5c-1.119.56-4.5.155-4.5 2l1 7ZM335 57l-2 6c-5.888 0-10.407-7-16-7l2-6 16 7Z"/><path fill="#3FA664" id="ACAd6a" d="M200 73h1c0-1.198 4.298-6 6-6v-1c0-4.933-1-10.73-1-15-1.78 0-10 15.332-10 18l4 4ZM256 73h1c0-2.226 1.774-4 4-4 0-6.168-10-13.51-10-18h-1l-1 15v1c1.171 0 7 3.976 7 6Z"/><path fill="#187E62" id="SSp-ul5" d="m146 68-19 8c0-3.696-3-7.998-3-12l15-8h1c0 4.65 6 8.33 6 12ZM311 68l18 8c.782 0 4-10.528 4-12v-1c-5.888 0-10.407-7-16-7l-6 12Z"/><path fill="#197E61" id="SSp-un4" d="M123 64c0 1.222-6.549 5-8 5 0-2.522-2-4.909-2-8l8-4h1l1 7Z"/><path fill="#1A7F64" id="SSp-ll6a" d="M175 76c-7.071 0-13.173 5-20 5-1.439 0-9-11.456-9-13l31-11c0 7.217-2 10.559-2 18v1ZM282 76l19 5c2.692 0 6.991-9.482 8-11.5l2-1.5-32-11c0 1.792 3.927 18 2 18l1 1Z"/><path fill="#197E61" id="SSp-un4" d="M333 64c3.106 0 5.311 5 8 5 0-2.338 2-4.862 2-8l-8-4-2 6v1Z"/><path fill="#3FA566" id="ACAv2/3" d="m222 89-3 1c0-9.624-1-19.833-1-30v-1l5-1v29l-1 2Z"/><path fill="#40A664" id="ACAv1" d="m229 84 5 4c0-9.323-1-20.03-1-30h-10v29l4-3c0-3.15 2-3.446 2 0Z"/><path fill="#3FA566" id="ACAv2/3" d="m234 89 3 1c0-9.755 2-19.873 2-30l-6-2c0 9.97 1 20.677 1 30v1Z"/><path fill="#3EA666" id="ACAv5" d="M211 88c2.522 0 4.909 2 8 2 0-9.624-1-19.833-1-30-4.14 0-7.316 6-11 6v1l4 20v1ZM245 88c-2.522 0-4.909 2-8 2 0-9.755 2-19.873 2-30 3.971 0 6.693 6 10 6v1c0 6.786-4 13.68-4 20v1Z"/><path fill="#197C64" id="SSp-bfd4" d="M92 85h1c0-1.483 19.717-15 22-15v-1c0-2.522-2-4.909-2-8-6.067 0-34 17.84-34 22 1.607 0 12 1.8 12 2h1ZM364 85h1c2.514 0 4.922-2 7.5-2 .526 0 5.5 1.578 5.5 0l-7-7.5c-2.444-2.444-24.338-14.5-27-14.5h-1c0 3.138-2 5.662-2 8v1c3.939 0 15.252 7.752 18 10.5l5 4.5Z"/><path fill="#197D62" id="SSp-un5" d="m127 77-10 5c0-3.7-2-7.99-2-12v-1c1.451 0 8-3.778 8-5h1c0 4.002 3 8.304 3 12v1ZM329 77c4.211 0 5.789 4 10 4 2.896 0 2-8.797 2-11v-1c-2.689 0-4.894-5-8-5 0 1.472-3.218 12-4 12v1Z"/><path fill="#40A564" id="ACAv6a" d="m209 85 2 2-4-20c-1.702 0-6 4.802-6 6 0 4.946 8 7.304 8 12ZM248 85c-1.481 0-.785 2-3 2 0-6.32 4-13.214 4-20 1.171 0 7 3.976 7 6 0 2.91-5 4.795-5 8-2.098 0-3 1.94-3 4Z"/><path fill="#197D61" id="SSp-ul6a" d="M132 93h1c0-1.813 18.988-11 22-11v-1c-1.439 0-9-11.456-9-13l-19 8v1l5 16ZM324 93h1c0-5.361 4-9.967 4-16v-1l-18-8-2 1.5c-1.009 2.018-5.308 11.5-8 11.5v1c3.506 0 23 9.454 23 11Z"/><path fill="#1E9C58" id="MOs6b" d="m195 70-4 1v-2h4v1Z"/><path fill="#3FA466" id="ACAd6b" d="M199 73h1l-4-4h-1v1l4 3ZM261 70l-4 3c0-2.226 1.774-4 4-4v1Z"/><path fill="#1E9C58" id="MOs6b" d="M266 70v1l-5-1v-1h5v1Z"/><path fill="#1A7D62" id="SSp-bfd5" d="M93 85c5.449 0 8.175 3 14 3l10-5v-1c0-3.7-2-7.99-2-12-2.283 0-22 13.517-22 15Z"/><path fill="#1D9D5A" id="MOp6b" d="M189 71h2v-1l-2 1Z"/><path fill="#CACCC7" id="cing" d="M211 87v1c-8.218 0-11.963-7.731-18.5-11-5.916-2.958-14.1 3-19.5 3l-1 1h-9c0-1.128 10.472-4 12-4 2.021 0 14-3.797 14-6h2l4-1 4 3c0 2.51 7.904 12 10 12l2 2ZM245 87v1c8.274 0 11.715-7.608 18.5-11 6.955-3.478 16.335 4 22.5 4h7c0-1.502-9.434-4-11-4-5.442 0-11.003-6-16-6l-5-1-4 3c0 2.36-3.842 8-6 8 0 1.429-1.288 4-3 4-1.481 0-.785 2-3 2Z"/><path fill="#1D9D5A" id="MOp6b" d="M282 76v1c-5.442 0-11.003-6-16-6v-1c5.261 0 9.455 5 15 5l1 1Z"/><path fill="#1A7D62" id="SSp-bfd5" d="M350 89h1c0-4.244 6.069-2 7.5-2l1-2c1.583-.792 4.5 1.615 4.5 0l-5-4.5c-2.748-2.748-14.061-10.5-18-10.5 0 2.203.896 11-2 11l1 2c3.482 0 5.71 5 9 5l1 1Z"/><path fill="#1D9D5A" id="MOp6b" d="M175 76v1c2.021 0 14-3.797 14-6-5.304 0-8.671 4-14 4v1Z"/><path fill="#40A465" id="ACAv6b" d="M201 73c0 4.946 8 7.304 8 12-2.096 0-10-9.49-10-12h2ZM257 73c0 2.36-3.842 8-6 8 0-3.205 5-5.09 5-8h1Z"/><path fill="#197F62" id="SSp-ll6b" d="M155 82v1c2.885 0 4.697-2 8-2 0-1.128 10.472-4 12-4v-1c-7.071 0-13.173 5-20 5v1ZM301 82v1c-2.338 0-4.862-2-8-2 0-1.502-9.434-4-11-4v-1l19 5v1Z"/><path fill="#1A7F61" id="SSp-un6a" d="M119 100h1c0-2.837 6.969-5 9-5 0-1.577 1.762-2 3-2l-5-16-10 5v1c0 3.066 1.166 10-2 10 0 2.919 4 4.243 4 7Z"/><path fill="#C9C7C9" id="ccb" d="M378 174h3l-4-16-2-4v-1l-7-13.5c-5.14-10.28-15.936-26.718-27.5-32.5l-40-20c-2.081-1.04-14.5-3.579-14.5-6-6.165 0-15.545-7.478-22.5-4-6.785 3.392-10.226 11-18.5 11-2.522 0-4.909 2-8 2l-3-1h-12l-3 1c-3.091 0-5.478-2-8-2-8.218 0-11.963-7.731-18.5-11-5.916-2.958-14.1 3-19.5 3l-1 1h-2c0 2.03-9.733 4.117-11.5 5-11.078 5.539-22.943 9.472-34 15-6.443 3.221-24.007 17.514-27.5 24.5L89 138c0 1.572-2.052 7-4 7v1c0 1.238-.423 3-2 3v1l-1 2-1 2v1l-1 2-1 2-3 15h2c0-6.894 4.086-13.672 7-19.5 7.292-14.584 22.116-39.308 38.5-47.5l14-6 9.5 1c0-3.034 5.156-7 8-7 0-1.577 1.762-2 3-2l8.5-4c3.039-1.52 20.725-.637 24 1 1.134.567 6.5.546 6.5 2 4.595 0 9.116 5 13 5 0-1.396 6.796-2.852 8.5-2 5.581 2.79 21.402 1 28.5 1l12-4c0-1.78 6.197-1.348 7.5-2 4.518-2.259 18.509-3.245 23-1l6.5 3 1 1h2c3.358 0 10 5.588 10 9 6.013 0 11.195-1.652 16.5 1 21.74 10.87 52.5 46.655 52.5 71Z"/><path fill="#1A7F61" id="SSp-un6a" d="M342 93c0 1.098-3.23 6-5 6l-12-6c0-5.361 4-9.967 4-16 4.211 0 5.789 4 10 4l1 2c-2.149 0-1.268 10 2 10Z"/><path fill="#C9C9CA" id="scwm" d="m173 80-1 1 1-1ZM89 135v3l8-12.5c3.493-6.986 21.057-21.279 27.5-24.5 11.057-5.528 22.922-9.461 34-15 1.767-.883 11.5-2.97 11.5-5h-7c-3.303 0-5.115 2-8 2-7.865 0-14.2 10-22 10l-1 1-3 1c0 .573-8.219 6-9 6h-1c0 1.812-5.824 6-8 6 0 2.226-1.774 4-4 4 0 2.473-3.527 6-6 6l-2 2c0 1.747-.253 2-2 2l-2 4c0 1.238-.423 3-2 3 0 1.238-.423 3-2 3l-2 4Z"/><path fill="#40A465" id="ACAv6b" d="M251 81c-2.098 0-3 1.94-3 4 1.712 0 3-2.571 3-4Z"/><path fill="#C9C9CA" id="scwm" d="M365 131c0 7.42 10 14.166 10 22l-7-13.5c-5.14-10.28-15.936-26.718-27.5-32.5l-40-20c-2.081-1.04-14.5-3.579-14.5-6h7c3.138 0 5.662 2 8 2 6.731 0 18.13 11 23 11 4.577 0 8.686 7 13 7l6 4.5 11.5 11.5c4.046 2.023 7.447 14 10.5 14Z"/><path fill="#1C8064" id="SSp-ul6b" d="M155 83c-7.865 0-14.2 10-22 10 0-1.813 18.988-11 22-11v1ZM324 93v1c-4.87 0-16.269-11-23-11v-1c3.506 0 23 9.454 23 11Z"/><path fill="#197E63" id="SSp-n1" d="M53 102h1c0-6.397 10-12 10-18l-5-1c-1.094 0-10 14.36-10 16l4 3ZM64 84h1v-1l-1 1Z"/><path fill="#187F63" id="SSp-bfd2/3" d="m66 83-1 1v-1h1Z"/><path fill="#1B7F64" id="SSp-n2/3" d="m54 102 8 6c0-2.456 13.675-24 16-24v-1H66l-1 1h-1c0 6-10 11.603-10 18Z"/><path fill="#197C64" id="SSp-bfd4" d="m79 83-1 1v-1h1Z"/><path fill="#1A8062" id="SSp-n4" d="M68 113h1c0-3.601 11.468-17.968 14.5-21l7.5-7c0-.2-10.393-2-12-2l-1 1c-2.325 0-16 21.544-16 24l6 5Z"/><path fill="#198060" id="SSp-bfd6a" d="m107 89 8 4c3.166 0 2-6.934 2-10l-10 5v1ZM349 89c-2.968 0-4.633 4-7 4-3.268 0-4.149-10-2-10 3.482 0 5.71 5 9 5v1Z"/><path fill="#1A8062" id="SSp-n4" d="m394 109-6 3-9-12.5L365 85c2.514 0 4.922-2 7.5-2 .526 0 5.5 1.578 5.5 0l1 1c0 1.253 15 17.767 15 24v1Z"/><path fill="#1B7F64" id="SSp-n2/3" d="m403 102-9 6c0-6.233-15-22.747-15-24 2.209 0 4.212-1 7.5-1 1.298 0 4.5 1.546 4.5 0l1 1 3 3.5c.888 1.776 6.814 13.5 8 13.5v1Z"/><path fill="#197E63" id="SSp-n1" d="m407 99-4 2c-1.186 0-7.112-11.724-8-13.5l-3-3.5 5-1c2.363 0 10 13.68 10 16Z"/><path fill="#7ED04B" id="IG" d="M223 89h11v-1l-5-4h-2l-4 3v2Z"/><path fill="#197E62" id="SSp-n5" d="M77 120h1c0-6.931 21.714-31 29-31v-1c-5.825 0-8.551-3-14-3 0 1.186-1 1.186-1 0h-1l-7.5 7C80.468 95.032 69 109.399 69 113l8 7Z"/><path fill="#1A7D62" id="SSp-bfd5" d="M92 85h1c0 1.186-1 1.186-1 0Z"/><path fill="#197E62" id="SSp-n5" d="m388 113-9 6c-2.453 0-1.447-2.947-2.5-4l-9.5-13.5c-1.422-2.843-16-11.281-16-12.5 0-4.244 6.069-2 7.5-2l1-2c1.583-.792 4.5 1.615 4.5 0h1l14 14.5 9 12.5v1Z"/><path fill="#40A664" id="ACAv1" d="M222 89h1v-2l-1 2Z"/><path fill="#A8AAAA" id="VL" fill-rule="evenodd" d="M175 91c0 5.058-1.819 12.138-4 16.5-1.844 3.688-10.547 5.907-8 11 1.926 3.853 7.502-.501 9.5-1.5 11.348-5.674 25.152-26 2.5-26m-24 13c0 3.083 11 13.271 11 23 2.413 0 9.45-8.475 12.5-10 4.041-2.021 14.21-3.92 16.5-8.5v-6l2-1.5c0-2.747-4-4.106-4-6.5 0-3.163 6.189-2.5 8-2.5 0-1.454-5.366-1.433-6.5-2-3.275-1.637-20.961-2.52-24-1l-8.5 4c0 1.577-1.762 2-3 2l-5 4.5 1 4.5ZM274 91c0 2.522-7.657 5.187-5 10.5 1.814 3.628 4.276 5.276 7 8l6.5 5.5 4 4c1.256.628 4.127 1.873 5.5.5 4.414-4.414-5.684-10.369-8-15-1.579-3.159.529-7.942-1-11-1.703-3.406-5.86-2.5-9-2.5m31 13c0 3.95-11 13.522-11 22-4.327 0-6.639-5.57-9.5-7l-11-6c-1.172-.586-5.928-1.356-6.5-2.5-1.418-2.836-.277-5.555-1-7l-3-2.5 4-5.5c1.926-3.852-5.95-3.5-8-3.5 0-1.78 6.197-1.348 7.5-2 4.518-2.259 18.509-3.245 23-1l6.5 3 1 1h2c0 2.263 7 3.353 7 10l-1 1Z"/><path fill="#197E62" id="SSp-n5" d="M349 89h1l-1-1v1Z"/><path fill="#187D62" id="SSp-n6a" d="m93 128-2 2c-1.914 0-13-8.385-13-10 0-6.931 21.714-31 29-31l8 4c0 2.919 4 4.243 4 7v1c-1.822 0-8 3.711-8 6l-4 4-6 6c-1.747 0-2 .253-2 2-1.747 0-2 .253-2 2-2.109 0-2 2.535-2 4-1.577 0-2 1.762-2 3ZM365 130h1l13-10v-1c-2.453 0-1.447-2.947-2.5-4l-9.5-13.5c-1.422-2.843-16-11.281-16-12.5h-2c-2.968 0-4.633 4-7 4 0 1.098-3.23 6-5 6v2c4.444 0 28 23.036 28 29Z"/><path fill="#A9AAA8" id="chpl" d="M175 91c0 5.058-1.819 12.138-4 16.5-1.844 3.688-10.547 5.907-8 11 1.926 3.853 7.502-.501 9.5-1.5 11.348-5.674 25.152-26 2.5-26ZM274 91c0 2.522-7.657 5.187-5 10.5 1.814 3.628 4.276 5.276 7 8l6.5 5.5 4 4c1.256.628 4.127 1.873 5.5.5 4.414-4.414-5.684-10.369-8-15-1.579-3.159.529-7.942-1-11-1.703-3.406-5.86-2.5-9-2.5Z"/><path fill="#C7C8CC" id="alv" d="m193 101 8 3c8.722 0 11 1.587 11-7h-2c-3.884 0-8.405-5-13-5-1.811 0-8-.663-8 2.5 0 2.394 4 3.753 4 6.5ZM263 101c-2.196 0-5.252 3-8 3-2.426 0-14.599.699-12-4.5l2-2.5 2-1 12-4c2.05 0 9.926-.352 8 3.5l-4 5.5Z"/><path fill="#AAA8A9" id="SEZ" d="m296 92 1 1-1-1Z"/><path fill="#1A7D63" id="SSp-un6b" d="m132 94-3 1c0-1.577 1.762-2 3-2v1Z"/><path fill="#1C8064" id="SSp-ul6b" d="m133 93-1 1v-1h1Z"/><path fill="#AAA8A9" id="SEZ" d="M158 93c-1.238 0-3 .423-3 2 1.238 0 3-.423 3-2ZM309 102c0 1.473-1.952 1-3 1 0-6.647-7-7.737-7-10 3.358 0 10 5.588 10 9Z"/><path fill="#1A7D63" id="SSp-un6b" d="M337 99v2c-4.314 0-8.423-7-13-7v-1h1l12 6ZM120 100v1c.781 0 9-5.427 9-6-2.031 0-9 2.163-9 5Z"/><path fill="#AAA8A9" id="SEZ" d="m147 102 4 2-1-4.5 5-4.5c-2.844 0-8 3.966-8 7Z"/><path fill="#CBC8CC" id="df" d="m212 97 17.5 3c3.787-1.894 11.169-3 15.5-3l2-1c-7.098 0-22.919 1.79-28.5-1-1.704-.852-8.5.604-8.5 2h2Z"/><path fill="#1A7E62" id="SSs1" d="M32 171h4c0-12.618 3.727-36.954 9-47.5 2.82-5.638 8-15.064 8-21.5l-4-3c-1.855 0-5.873 15.247-7 17.5-7.602 15.205-10 36.377-10 54.5ZM420 171h5c0-16.515-4.083-42.665-11-56.5-1.114-2.228-4.701-15.5-7-15.5l-4 2v1c0 3.56 8.005 21.51 10 25.5 4.024 8.047 7 33.325 7 43.5Z"/><path fill="#1B7E64" id="SSp-n6b" d="M119 101h1v-1h-1v1ZM119 101c-1.822 0-8 3.711-8 6 2.176 0 8-4.188 8-6Z"/><path fill="#98D5F9" id="CP" d="M131 215c0 2.231 2.386 6.728 1 9.5-2.55 5.101-15.056 12.222-22.5 8.5l-8-4-4.5-4c0-2.82-8.353-14.206-10-17.5-5.252-10.505-9-20.733-9-33.5 0-6.894 4.086-13.672 7-19.5 7.292-14.584 22.116-39.308 38.5-47.5l14-6 9.5 1 4 2c0 3.083 11 13.271 11 23v2l-1 2v3c-1.353 0-2 4.643-2 6l-1 1h-2c-3.618 0-6.154-2-9-2-9.145 0-8 14.043-8 20l-4 5.5-5 13c-1.101 2.202-3.311 26.378-2 29l3 8.5Z"/><path fill="#CBC8CB" id="fi" d="M189 133c-6.937 0-28 16.264-28 1v-3l1-2v-2c2.413 0 9.45-8.475 12.5-10 4.041-2.021 14.21-3.92 16.5-8.5v-6l2-1.5 8 3c0 2.836 12-.836 12 2 0 8.057-6 11.477-6 15l-1 1-3 3c-1.114 0-11 5.495-11 6-1.238 0-3 .423-3 2ZM296 136c0 2.741-4 2.75-4 5-8.08 0-25.179-8.339-32.5-12-2.14-1.07-3.942-4-6.5-4l-4-4c0-5.144-6-7.623-6-15 0-2.836 12 .836 12-2 2.748 0 5.804-3 8-3l3 2.5c.723 1.445-.418 4.164 1 7 .572 1.144 5.328 1.914 6.5 2.5l11 6c2.861 1.43 5.173 7 9.5 7v1l1 2v4l1 1v2Z"/><path fill="#98D5F9" id="CP" d="m357 228-1 1-9.5 4c-7.632 3.816-19.452-3.404-22.5-9.5l1-8.5c0-2.39 2.824-9.148 4-11.5 2.561-5.122-3.75-29.499-6-34-.99-1.981-3-10.5-6-10.5v-13l-1-1c0-4.297-1.782-6-6-6-3.071 0-5.362 2-9 2h-2l-1-1-2-4v-2l-1-1v-4l-1-2v-1c0-8.478 11-18.05 11-22l1-1c1.048 0 3 .473 3-1 6.013 0 11.195-1.652 16.5 1 21.74 10.87 52.5 46.655 52.5 71l-1 17c-1.638 0-2 3.576-2 5-2.216 0-4 7.15-4 9-2.447 0-4 6.063-4 8-1.384 0-8 10.595-8 12l-1 1-1 1v1Z"/><path fill="#1B7E64" id="SSp-n6b" d="M365 130v1c-3.053 0-6.454-11.977-10.5-14L343 105.5l-6-4.5c4.444 0 28 23.036 28 29Z"/><path fill="#1B8063" id="SSs2/3" d="m36 171 8 1c0-8.386 7.613-39.726 11-46.5 2.33-4.661 7-12.178 7-17.5l-8-6h-1c0 6.436-5.18 15.862-8 21.5-5.273 10.546-9 34.882-9 47.5ZM420 171l-8 1c0-15.465-6.488-37.476-13-50.5-.888-1.775-3.093-12.5-5-12.5v-1l9-6c0 3.56 8.005 21.51 10 25.5 4.024 8.047 7 33.325 7 43.5Z"/><path fill="#AAA8A9" id="SEZ" d="m306 103-1 1 1-1Z"/><path fill="#C8C9C9" id="vhc" d="M247 121h2c0-5.144-6-7.623-6-15h-30c0 8.057-6 11.477-6 15h2l7-4c5.051 0 31-1.434 31 4Z"/><path fill="#1B7E64" id="SSp-n6b" d="m111 107-4 4c2.226 0 4-1.774 4-4Z"/><path fill="#187C63" id="SSs4" d="m44 172 5 1c0-5.216 7.65-36.801 10-41.5 1.429-2.858 9-16.39 9-18.5l-6-5c0 5.322-4.67 12.839-7 17.5-3.387 6.774-11 38.114-11 46.5ZM412 172l-5 1c0-10.384-7.464-36.428-12-45.5-1.086-2.173-4.361-14.5-7-14.5v-1l6-3c1.907 0 4.112 10.725 5 12.5 6.512 13.024 13 35.035 13 50.5Z"/><path fill="#1B7E64" id="SSp-n6b" d="m107 111-6 6c2.473 0 6-3.527 6-6Z"/><path fill="#1C8063" id="SSs5" d="M49 173h13c0-9.231 5.14-31.779 9-39.5l6-13.5-8-7h-1c0 2.11-7.571 15.642-9 18.5-2.35 4.699-10 36.284-10 41.5ZM394 173h13c0-10.384-7.464-36.428-12-45.5-1.086-2.173-4.361-14.5-7-14.5l-9 6v1l6 12.5c4.796 9.593 9 29.056 9 40.5Z"/><path fill="#1B7E64" id="SSp-n6b" d="M101 117c-1.747 0-2 .253-2 2l2-2ZM99 119c-1.747 0-2 .253-2 2 1.747 0 2-.253 2-2Z"/><path fill="#A8A9AA" id="V3" fill-rule="evenodd" d="m239 130-4 3.5 2 3c4.215 8.43 15.538-6.5 2-6.5m-27 0-1 5.5c5.119 10.238 18.56-5.5 1-5.5m3 14 8.5 3c5.049 2.525 12.675-2 17.5-2 0-1.577 1.762-2 3-2 0-1.76 4.288-3.394 5.5-4l4.5-6v-4l-1-4-4-4h-2c-4.38 0-12-6.033-12 2v8.5c-2.25 4.499-11.914 3.173-14-1V123c0-7.987-7.52-2-12-2h-2l-1 1-3 3-1 7v1l1 1v1l10 8 2 1Z"/><path fill="#197D63" id="SSs6a" d="M74 175h1c0-11.791 4.117-21.733 9-31.5.89-1.781 2.168-8.5 5-8.5 0-1.465-.109-4 2-4v-1c-1.914 0-13-8.385-13-10h-1l-6 13.5c-3.86 7.721-9 30.269-9 39.5 3.735 0 8.438 2 12 2ZM394 173c-3.735 0-8.438 2-12 2 0-10.479-4.57-22.64-9-31.5-1.783-3.567-7-9.495-7-13.5l13-10 6 12.5c4.796 9.593 9 29.056 9 40.5Z"/><path fill="#1B7E64" id="SSp-n6b" d="M97 121c-2.109 0-2 2.535-2 4l2-4Z"/><path fill="#FF5347" id="SFO" d="M221 123h14v8.5c-2.25 4.499-11.914 3.173-14-1V123Z"/><path fill="#1B7E64" id="SSp-n6b" d="M95 125c-1.577 0-2 1.762-2 3 1.577 0 2-1.762 2-3ZM91 130v1c1.577 0 2-1.762 2-3l-2 2Z"/><path fill="#CCC9C8" id="sm" d="m255 131-1 2v-4l1 2Z"/><path fill="#FF8F9E" id="AD" d="m204 157-1 4c-3.269 0-14.044-24-16-24v-2l2-2c1.238 0 3-.423 3-2l6.5-1 3.5 2v1l1 1v1c0 4.604-1 9.532-1 14l1 2v2c0 1.145-.579 4 1 4Z"/><path fill="#A9AAA8" id="chpl" d="m212 130-1 5.5c5.119 10.238 18.56-5.5 1-5.5ZM239 130l-4 3.5 2 3c4.215 8.43 15.538-6.5 2-6.5Z"/><path fill="#FF8F9E" id="AD" d="M253 157c0 1.145-.579 4 1 4l3.5-5 11.5-19v-2c0-5.293-11.527-4-14-4l-1 2 1 15-1 1v2l-1 2v4Z"/><path fill="#1A8061" id="SSs6b" d="M381 175h1c0-10.479-4.57-22.64-9-31.5-1.783-3.567-7-9.495-7-13.5h-1v1c0 7.42 10 14.166 10 22v1c2.109 0 2 2.535 2 4l4 16v1ZM91 131c-2.109 0-2 2.535-2 4l2-4Z"/><path fill="#CCC9C8" id="sm" d="m202 133 1 1-1-1ZM251 154h2v-1l1-2v-2l1-1-1-15-4.5 6c-1.212.606-5.5 2.24-5.5 4v4c0 2.481 4.579 7 7 7Z"/><path fill="#1A8061" id="SSs6b" d="M75 175h1v-1l3-15 1-2 1-2v-1l1-2 1-2v-1c0-1.238.423-3 2-3v-1c0-1.572 2.052-7 4-7v-3c-2.832 0-4.11 6.719-5 8.5-4.883 9.767-9 19.709-9 31.5Z"/><path fill="#FF6F80" id="TH" d="M185 137h2v-2l-2 2Z"/><path fill="#CCC9C8" id="sm" d="m203 153 3 1c3.331 0 4.631-7 7-7v-4l-10-8c0 4.604-1 9.532-1 14l1 2v2Z"/><path fill="#FF6F80" id="TH" d="M269 137h3l-3-2v2Z"/><path fill="#FD909E" id="AV" d="m181 172 4 5c0-1.996 3.256-9 6-9 0-2.268 8.914-5 11-5l1-2c-3.269 0-14.044-24-16-24h-2c-4.275 0-7.621 3-11 3l-1 1c0 1.602-3.058 2.384-2 4.5l2 5.5 1 3 1 1v2l1 2v1c1.473 0 1 1.952 1 3v1l4 8ZM274 174l-2 3c-2.785 0-1.779-9-6-9 0-1.559-9.338-5-11-5l-1-2 3.5-5 11.5-19h3c4.68 0 8.171 4 12 4 0 1.564 1 3.876 1 6v2l-1 1-1 3-1 1v1l-1 1v3l-1 2c-1.473 0-1 1.952-1 3v1l-1 2c-1.473 0-1 1.952-1 3l-2 2v1l-1 1Z"/><path fill="#C9C9CA" id="scwm" d="M89 138c-1.948 0-4 5.428-4 7 1.948 0 4-5.428 4-7Z"/><path fill="#CCC" d="M139 159c5.76 0 18 24.943 18 30 2.996 0 4.241 14.629 9.5 12 2.504-1.252 1.483-8.535.5-10.5l-14-28c-2.116-4.232 3-6.72 3-9.5 0-2.421-6-4.563-6-8l-3-6c-9.145 0-8 14.043-8 20Z"/><path fill="#97D6F9" id="STR" d="m154 144-4 1-3-6c2.846 0 5.382 2 9 2l-2 3ZM302 143c1.624 0 2.75 2 5 2l3-6c-3.071 0-5.362 2-9 2l1 2Z"/><path fill="#CCC" d="M299 189v1c-3.669 0-3.494 14.003-9.5 11-2.416-1.208-.542-9.417.5-11.5 4.93-9.86 9.112-20.225 14-30 1.062-2.124-3-4.78-3-6.5 0-3.414 6-4.207 6-8l3-6c4.218 0 6 1.703 6 6l1 1v13c-4.594 0-17 23.06-17 28l-1 2Z"/><path fill="#CAC7CB" id="fiber tracts" d="m167 144-2 2.5c-.574 1.147 1.064 4.5-1 4.5 0-5.295.305-10-6-10l1-1c3.137 0 5.591 4 8 4Z"/><path fill="#FF6F80" id="TH" d="m174 140-1 1 1-1Z"/><path fill="#CAC7CB" id="fiber tracts" d="M296 141h3l-1-1-2 1Z"/><path fill="#C8CBC7" id="st" d="M163 153c0 1.747-.253 2-2 2 0-3.329-7-6.448-7-11l2-3h2c6.305 0 6 4.705 6 10l-1 2Z"/><path fill="#FF6F80" id="TH" d="M168 144c3.66 0 2.484 7 5 7l-2-5.5c-1.058-2.116 2-2.898 2-4.5-1.408 0-5 1.197-5 3ZM289 144l-4 3c0-2.124-1-4.436-1-6 1.238 0 5 1.923 5 3Z"/><path fill="#CAC7CB" id="fiber tracts" d="M290 145c2.102 0 .058 7 3 7l-1-6.5 3-4.5h-3l-2 4Z"/><path fill="#C8CBC7" id="st" d="M293 152c0 1.238.423 3 2 3 0-3.908 7-6.971 7-12l-1-2h-6l-3 4.5 1 6.5Z"/><path fill="#FF6F80" id="TH" d="M213 147h2v-3l-2-1v4ZM242 146l2 1v-4c-1.238 0-3 .423-3 2l1 1Z"/><path fill="#CAC7CB" id="fiber tracts" d="m295 155 4 2c0-1.465-.109-4 2-4 0-3.414 6-4.207 6-8-2.25 0-3.376-2-5-2 0 5.029-7 8.092-7 12ZM161 155c0 1.577-1.762 2-3 2l-2-4c0-2.421-6-4.563-6-8l4-1c0 4.552 7 7.671 7 11Z"/><path fill="#FD8F9F" id="RT" d="M182 207h1l1-1 10.5-3c2.931-1.465 5.297 2 7.5 2l2.5 2c1.435 0 1.984-3.531 1.5-4.5l-7-5.5h-1l-1-1-2-1-1-1-2-1-6-6c-2.624 0-7-12.651-7-15l-2-8v-1c-1.473 0-1-1.952-1-3v-1l-1-2v-2l-1-1-1-3c-2.516 0-1.34-7-5-7h-1l-2 2.5c-.574 1.147 1.064 4.5-1 4.5l-1 2c0 1.747-.253 2-2 2 0 1.577-1.762 2-3 2-1.527 0-2.786 4.928-2 6.5l7 14c4.557 9.113 6.66 29.5 19 29.5Z"/><path fill="#FE8F9E" id="PVT" d="M225 175c.706 0 6-2.726 6 0 1.959 0 5-12.819 5-15 0-5.228 6-11.608 6-14l-1-1c-4.825 0-12.451 4.525-17.5 2l-8.5-3v3c3.538 0 5 10.935 5 14 .487 0 5 12.571 5 14Z"/><path fill="#FD8F9F" id="RT" d="M274 207h1c10.924 0 8.474-8.448 12-15.5 4.801-9.601 9.212-19.424 14-29l-2-5.5-4-2c-1.577 0-2-1.762-2-3-2.942 0-.898-7-3-7l-1-1-4 3v2l-1 1-1 3-1 1v1l-1 1v3l-1 2c0 1.048.473 3-1 3v1l-1 2c0 1.048.473 3-1 3v2c0 2.685-3.289 15-7 15l-1 1-1 1-1 1-1 1-1 1c0 1.222-6.549 5-8 5 0 .665-12.785 9-4 9 2.874 0 5.839-4.831 9.5-3l11.5 4Z"/><path fill="#97D6F9" id="STR" d="m316 145 1 1-1-1Z"/><path fill="#C9C9CA" id="scwm" d="M85 146c-1.577 0-2 1.762-2 3 1.577 0 2-1.762 2-3Z"/><path fill="#FD909D" id="MD" d="M236 160c2.677 0 7.282 3 12 3l3-6v-3c-2.421 0-7-4.519-7-7l-2-1c0 2.392-6 8.772-6 14ZM220 161c-3.795 0-8.393 2-12 2l-3-6 1-3c3.331 0 4.631-7 7-7h2c3.538 0 5 10.935 5 14Z"/><path fill="#FF6F80" id="TH" d="m255 148-1 1 1-1ZM202 149l1 2-1-2ZM285 149l-1 1 1-1Z"/><path fill="#C9C9CA" id="scwm" d="m83 150-1 2 1-2Z"/><path fill="#CAC7CB" id="fiber tracts" d="m164 151-1 2 1-2Z"/><path fill="#FF6F80" id="TH" d="m254 151-1 2 1-2Z"/><path fill="#C9C9CA" id="scwm" d="m82 152-1 2 1-2Z"/><path fill="#8599CC" id="PAL" fill-rule="evenodd" d="M164 209c0 7.357 6.622 0 0 0m4 16-1 2c0-14.289-24-4.682-24-2-2.022 0-10-6.758-10-9l9.5 3 6-1c14.035 0 8.5-20.372 8.5-29 2.996 0 4.241 14.629 9.5 12 2.504-1.252 1.483-8.535.5-10.5l-14-28c-2.116-4.232 3-6.72 3-9.5l2 4c-1.527 0-2.786 4.928-2 6.5l7 14c4.557 9.113 6.66 29.5 19 29.5v1c-1.696 0-8 3.804-8 6l-1 1-1 1-2 4-1 1v3l-1 1Z"/><path fill="#FF6F80" id="TH" d="M204 157h1l1-3-3-1c0 1.145-.579 4 1 4ZM283 153l-1 1 1-1Z"/><path fill="#8599CC" id="PAL" fill-rule="evenodd" d="M290 209c0 7.241 4.776 0 0 0m24 16h2l6-8-10.5 2c-2.458-1.229-5.587-.794-8-2-8.883-4.441-4.5-19.527-4.5-27-3.669 0-3.494 14.003-9.5 11-2.416-1.208-.542-9.417.5-11.5 4.93-9.86 9.112-20.225 14-30 1.062-2.124-3-4.78-3-6.5-2.109 0-2 2.535-2 4l2 5.5c-4.788 9.576-9.199 19.399-14 29-3.526 7.052-1.076 15.5-12 15.5l8 7 2 4 2 2v2l1 1c0 1.296.825 7 2 7 0-9.476 4.898-13.301 13.5-9l7 1 3.5 3Z"/><path fill="#FF6F80" id="TH" d="m174 154 1 1-1-1ZM251 157h2v-3h-2v3Z"/><path fill="#C9C9CA" id="scwm" d="M375 154c2.109 0 2 2.535 2 4l-2-4ZM81 155l-1 2 1-2Z"/><path fill="#FF6F80" id="TH" d="m282 155-1 1 1-1Z"/><path fill="#C9C9CA" id="scwm" d="m80 157-1 2 1-2Z"/><path fill="#FF6F80" id="TH" d="m175 157 1 2-1-2Z"/><path fill="#FC8E9F" id="IAD" d="M214 187h1c0-3.126 1.664-6.173 0-9.5l-7-14.5-3-6h-1l-1 4-1 2 3 5.5c2.864 5.728 9 11.75 9 18.5ZM241 186l2 1c0-3.429 9.52-24 12-24l-1-2c-1.579 0-1-2.855-1-4h-2l-3 6c0 6.109-7 13.785-7 23Z"/><path fill="#8598CC" id="GPe" d="m131 215 2 1 9.5 3 6-1c14.035 0 8.5-20.372 8.5-29 0-5.057-12.24-30-18-30l-4 5.5-5 13c-1.101 2.202-3.311 26.378-2 29l3 8.5Z"/><path fill="#FF6F80" id="TH" d="m281 159-1 2 1-2Z"/><path fill="#8598CC" id="GPe" d="m325 215-3 2-10.5 2c-2.458-1.229-5.587-.794-8-2-8.883-4.441-4.5-19.527-4.5-27v-1l1-2c0-4.94 12.406-28 17-28 3 0 5.01 8.519 6 10.5 2.25 4.501 8.561 28.878 6 34-1.176 2.352-4 9.11-4 11.5Z"/><path fill="#FF6F80" id="TH" d="M176 160c1.473 0 1 1.952 1 3-1.473 0-1-1.952-1-3Z"/><path fill="#FF909F" id="PT" d="M241 186c0 2.6-2.639 3-5 3 0-4.444-5-8.972-5-14 1.959 0 5-12.819 5-15 2.677 0 7.282 3 12 3 0 6.109-7 13.785-7 23ZM215 187c1.624 0 2.75 2 5 2 0-3.435 5-8.531 5-14 0-1.429-4.513-14-5-14-3.795 0-8.393 2-12 2l7 14.5c1.664 3.327 0 6.374 0 9.5Z"/><path fill="#FF6F80" id="TH" d="M280 161c-1.473 0-1 1.952-1 3 1.473 0 1-1.952 1-3Z"/><path fill="#FD8D9F" id="AMd" d="M205 193h4l2-1 3-5c0-6.75-6.136-12.772-9-18.5l-3-5.5c-2.086 0-11 2.732-11 5 0 3.285 11.665 25 14 25ZM243 187c0 4.167 4.145 6 8 6 5.436 0 13.52-25 15-25 0-1.559-9.338-5-11-5-2.48 0-12 20.571-12 24Z"/><path fill="#FF6F80" id="TH" d="M179 172h2l-4-8 2 8ZM279 165l-1 2 1-2ZM278 167c-1.473 0-1 1.952-1 3 1.473 0 1-1.952 1-3Z"/><path fill="#FC909D" id="AMv" d="M198 197h1c2.883 0 6-.409 6-4-2.335 0-14-21.715-14-25-2.744 0-6 7.004-6 9l1 8 6 8 2 1 1 1 2 1 1 1ZM251 193c0 3.351 3.25 4 6 4 1.451 0 8-3.778 8-5l1-1 1-1 1-1 1-1 1-2 2-9c-2.785 0-1.779-9-6-9-1.48 0-9.564 25-15 25Z"/><path fill="#FF6F80" id="TH" d="M275 172h2v-2l-2 2Z"/><path fill="#12AD83" id="VISC1" d="m41 199-5 1c-1.59 0-1.443-4.386-2-5.5-1.947-3.894-3-12.091-3-16.5 0-1.406-.714-7 1-7h4l1 16.5 4 10.5v1Z"/><path fill="#12AC83" id="VISC2/3" d="M50 195c0 1.231-7.622 3-9 3l-4-10.5-1-16.5 8 1c0 9.428 6 17.903 6 23ZM406 195c0 1.139 7.742 3 9 3l4-9.5 1-17.5-8 1c0 4.162-2.979 23-6 23Z"/><path fill="#12AD83" id="VISC1" d="m415 199 6 1 3-10.5c2.281-4.562 1-13.099 1-18.5h-5l-1 17.5-4 9.5v1Z"/><path fill="#11AC82" id="VISC4" d="M50 195h1l1-1-3-6.5V173l-5-1c0 9.428 6 17.903 6 23Z"/><path fill="#FD7E84" id="VAL" d="M186 185v2c-2.624 0-7-12.651-7-15h2l4 5 1 8ZM270 186v1c3.711 0 7-12.315 7-15h-2v1l-1 1-2 3-2 9Z"/><path fill="#11AC82" id="VISC4" d="M405 195h1c3.021 0 6-18.838 6-23l-5 1 1 9.5c-1.608 3.216-3 8.788-3 12.5Z"/><path fill="#12AD82" id="VISC5" d="M52 194v1l13-2c0-6.168-3-13.138-3-20H49v14.5l3 6.5Z"/><path fill="#11AC83" id="VISC6a" d="M77 191c-4.371 0-8.019 2-12 2 0-6.168-3-13.138-3-20 3.735 0 8.438 2 12 2 0 5.11 3 11.24 3 16Z"/><path fill="#FF6F80" id="TH" d="m275 173-1 1 1-1Z"/><path fill="#11AC83" id="VISC6a" d="M379 191c4.364 0 8.259 2 12 2 0-4.453 3-12.448 3-20-3.735 0-8.438 2-12 2 0 1.145.579 4-1 4v2c0 3.77-2 7.021-2 10Z"/><path fill="#12AD82" id="VISC5" d="M404 195h1c0-3.712 1.392-9.284 3-12.5l-1-9.5h-13c0 7.552-3 15.547-3 20 4.908 0 8.486 2 13 2Z"/><path fill="#C8CBCC" id="ec" d="m107 239 3 1-1-2.5c.525-1.05 2-.553 2 .5 9.705 0-5-4.709-5-4 0 2.202-1 2.202-1 0l-8-9c0-2.82-8.353-14.206-10-17.5-5.252-10.505-9-20.733-9-33.5h-2v1c0 5.998 2 10.447 2 16l1 1 1 2c0 3.083 3 5.545 3 9l2 3 11 21 1 1v1l2 2v1l4 4 2 2 1 1h1Z"/><path fill="#FD8E9E" id="CM" d="M221 191h15v-2c0-4.444-5-8.972-5-14 0-2.726-5.294 0-6 0 0 5.469-5 10.565-5 14l1 2Z"/><path fill="#C8CBCC" id="ec" d="M377 191h1c0-1.465 1.627-10 3-10v-7h-3l-1 17Z"/><path fill="#11AD82" id="VISC6b" d="M77 191h1c0-5.553-2-10.002-2-16h-2c0 5.11 3 11.24 3 16ZM382 175c0 1.145.579 4-1 4v-4h1ZM378 191h1c0-2.979 2-6.23 2-10-1.373 0-3 8.535-3 10Z"/><path fill="#FF6F80" id="TH" d="m186 187 6 6-6-8v2ZM253 208c-3.293 0-10.881 9-17 9 0-2.703 23.994-17.753 9.5-25h-3c-2.159-1.079-3.868-1-6.5-1v-2c2.361 0 5-.4 5-3l2 1c0 4.167 4.145 6 8 6 0 3.351 3.25 4 6 4 0 .665-12.785 9-4 9v2ZM270 187l-1 1 1-2v1ZM221 191l-10 1 3-5h1c1.624 0 2.75 2 5 2l1 2Z"/><path fill="#8599CC" id="PAL" d="m300 187-1 2 1-2Z"/><path fill="#FF6F80" id="TH" d="m269 188-1 1 1-1ZM268 189l-1 1 1-1Z"/><path fill="#209766" id="AIp6a" d="M75 213h1c0-3.827 5-3.958 5-7-8.015 0-4-10.278-4-14v-1c-4.371 0-8.019 2-12 2l10 20Z"/><path fill="#219666" id="AIp6b" d="M78 192h1l-1-1h-1v1h1Z"/><path fill="#FD909F" id="RE" fill-rule="evenodd" d="M226 200c0 1.947-3.428 3.644-2 6.5 5.934 11.868 14.9-6.5 2-6.5m9 17h1c0-2.703 23.994-17.753 9.5-25h-3c-2.159-1.079-3.868-1-6.5-1h-15l-10 1-2 1c0 4.904-4.579 3.343 0 12.5l12 11.5h6l1-1 1 1h6Z"/><path fill="#FF6F80" id="TH" d="m266 191-1 1 1-1Z"/><path fill="#C8CBCC" id="ec" d="m376 195-1 1c0-1.424.362-5 2-5v3l-1 1Z"/><path fill="#219666" id="AIp6b" d="m379 192-2 1v-2h2v1Z"/><path fill="#209766" id="AIp6a" d="M381 213h1l9-20c-3.741 0-7.636-2-12-2v1c0 2.585 4.76 10.87-1.5 14-2.116 1.058-2.898-2-4.5-2l-2 1v1c4.34 0 9 2.016 9 7h1Z"/><path fill="#8ADA86" id="CLA" d="M83 203c0 2.215-2 1.519-2 3-8.015 0-4-10.278-4-14h1l2 2c0 3.083 3 5.545 3 9Z"/><path fill="#209766" id="AIp6a" d="m79 192 1 2-2-2h1Z"/><path fill="#FF6F80" id="TH" d="m211 192-2 1 2-1Z"/><path fill="#8ADA86" id="CLA" d="m375 196-2 8c1.602 0 2.384 3.058 4.5 2 6.26-3.13 1.5-11.415 1.5-14l-2 1v1l-1 1-1 1Z"/><path fill="#219864" id="AIp5" d="m75 213-8 3c0-4.448-15-14.139-15-21l13-2 10 20Z"/><path fill="#FF6F80" id="TH" d="M203 208c3.938 0 11.059 9 18 9l-12-11.5c-4.579-9.157 0-7.596 0-12.5h-4c0 3.591-3.117 4-6 4l7 5.5c.484.969-.065 4.5-1.5 4.5l-2.5-2 1 3Z"/><path fill="#219864" id="AIp5" d="M382 213c0 .886 5.824 3 7 3 0-3.021 15-14.448 15-21-4.514 0-8.092-2-13-2l-9 20Z"/><path fill="#12AC83" id="VISC2/3" d="M51 195h1v-1l-1 1Z"/><path fill="#FF6F80" id="TH" d="m194 194 1 1-1-1Z"/><path fill="#209766" id="AIp6a" d="m377 194-1 1 1-1Z"/><path fill="#209865" id="AIp2/3" d="M67 216c0 .774-7.773 4-9 4l-11.5-12c-1.611-1.611-3.417-9-5.5-9v-1c1.378 0 9-1.769 9-3h2c0 6.861 15 16.552 15 21ZM389 216c0 .473 8.784 4 10 4l11.5-13 4.5-8v-1c-1.258 0-9-1.861-9-3h-2c0 6.552-15 17.979-15 21Z"/><path fill="#FF6F80" id="TH" d="m197 196 1 1-1-1Z"/><path fill="#C8CBCC" id="ec" d="m373 204-2 1c0-1.85 1.784-9 4-9l-2 8Z"/><path fill="#219765" id="AIp1" d="m58 220-5 2c0-3.969-17-14.035-17-22l5-1c2.083 0 3.889 7.389 5.5 9L58 220ZM399 220l4 2c1.086 0 18-18.424 18-22l-6-1-4.5 8-11.5 13Z"/><path fill="#FC8F9F" id="Xi" d="M226 200c0 1.947-3.428 3.644-2 6.5 5.934 11.868 14.9-6.5 2-6.5Z"/><path fill="#209766" id="AIp6a" d="M81 206h4l-2-3c0 2.215-2 1.519-2 3Z"/><path fill="#F0483B" id="ZI" d="M182 208c0 3.964 21 13.198 21 0l-1-3c-2.203 0-4.569-3.465-7.5-2l-10.5 3-1 1h-1v1ZM274 207c0 6.843-21 13.026-21 1v-2c2.874 0 5.839-4.831 9.5-3l11.5 4Z"/><path fill="#C8CBCC" id="ec" d="m371 206-4 7c0-1.937 1.553-8 4-8v1Z"/><path fill="#A0EE9C" id="EPd" d="M97 231c0 1.539-1.341 3-3 3 0-1.974-11-4.695-11-9l-7-12c0-3.827 5-3.958 5-7h4l11 21 1 1v3Z"/><path fill="#8599CC" id="PAL" d="m184 206-1 1 1-1Z"/><path fill="#A0EE9C" id="EPd" d="m359 231 4 3 6-4 2-1c0-1.747.253-2 2-2v-1c-1.186 0-1.186-1 0-1l7-12c0-4.984-4.66-7-9-7l-4 7-6 13-1 1v1l-1 1v2Z"/><path fill="#E64438" id="HY" fill-rule="evenodd" d="M250 219c0 1.423-1.978 3.544-1 5.5.942 1.884 7.937 8.281 11.5 6.5 7.039-3.52-3.826-12-10.5-12m-12 25c0-16.284 15.352-8.574 22.5-5 2.114 1.057 3.346 7 4.5 7 0-5.961 1.361-18.222 4-23.5l3-4.5c-7.73 0 4-10.722 4-4.5l-1 1.5c2.029 0 1.881-1.191 3.5-2l4.5 1-8-7h-1c0 6.843-21 13.026-21 1-3.293 0-10.881 9-17 9h-1l-2 1c0 2.119 8.28-1.94 10 1.5.962 1.923-8 15.179-8 19.5 3.826 0 .473 5 3 5ZM201 219c0 .979-5.079 3.658-6 5.5-4.889 9.779 8.725 6.551 12 0 .786-1.572.246-5.5-1.5-5.5H201m-19-7-1 2.5c4.046 8.092 9.714-2.5 1-2.5m12 63h1c0-4.785-4.749-4 5-4 0-.875-6.013-4.525-7-6.5-1.519-3.038-2.758-16.483-1-20 2.573-5.145 12.719-13.89 19.5-10.5 1.869.935 6.941 7 7.5 7 0-2.293.997-2 3-2 0-3.343-9.551-18.398-9-19.5 1.619-3.238 10 .008 10-1.5l-1-1h-1c-6.941 0-14.062-9-18-9 0 13.198-21 3.964-21 0-1.696 0-8 3.804-8 6 18.622 0 11.723 17.946 16 26.5 1.664 3.327 1.664 9.673 0 13-1.574 3.147-.542 9.521-4.5 11.5-2.856 1.428-4.553-2-6.5-2 0 2.741 4 2.268 4 5 0 3.095 11 2.897 11 7Z"/><path fill="#CCCACB" id="nst" d="M164 209c0 7.357 6.622 0 0 0ZM290 209c0 7.241 4.776 0 0 0Z"/><path fill="#CCC9C8" id="sm" d="m182 212-1 2.5c4.046 8.092 9.714-2.5 1-2.5ZM273 217l-1 1c-7.73 0 4-10.722 4-4.5l-1 1.5-1 1-1 1Z"/><path fill="#6ACAB9" id="PIR" d="M112 274c0 5.731-12 22.125-12 23-4.77 0-12.786-10.072-15-14.5-6.16-12.32-11.878-24.755-18-37-2.618-5.236-14-18.468-14-23.5l5-2c1.227 0 9-3.226 9-4l8-3c0 3.985 6 7.49 6 11l2 3 8 10c0 3.162 13.564 22.064 16.5 25l4.5 7v5Z"/><path fill="#C9C8CA" id="ee" d="m81 224 2 1-7-12h-1c0 3.985 6 7.49 6 11Z"/><path fill="#F2483A" id="LHA" d="M178 263h1c1.947 0 3.644 3.428 6.5 2 3.958-1.979 2.926-8.353 4.5-11.5 1.664-3.327 1.664-9.673 0-13-4.277-8.554 2.622-26.5-16-26.5l-1 1-1 1-2 4-1 1v3l-1 1-1 2v2l-1 2-2 8-1 1v1l-2 12 1 1v1c3.48 0 9.327 4.413 12.5 6 1.158.579 3.5-.341 3.5 2ZM278 263c-1.238 0-3 .423-3 2-4.794 0-6.11-2.72-8-6.5-.652-1.303-.219-7.5-2-7.5v-5c0-5.961 1.361-18.222 4-23.5l3-4.5 1-1 1-1 1-1c2.029 0 1.881-1.191 3.5-2l4.5 1 2 4 2 2v2l1 1c0 1.296.825 7 2 7l3 11c0 4.207 2 8.154 2 13l-3.5 3c-2.233 1.116-13.5 2.788-13.5 6Z"/><path fill="#C8CBCC" id="ec" d="M347 239h3l1-1 3-2 1-1 1-2 2-2 1-2 1-1v-1l1-1 6-13c-1.384 0-8 10.595-8 12l-1 1-1 1v1l-1 1-5 5c0 1.186-1 1.186-1 0 0-1.441-12.479 4-5 4 0-1.436 3-1.303 3-.5l-1 1.5Z"/><path fill="#C9C8CA" id="ee" d="M374 225h1l6-12h-1l-7 12h1Z"/><path fill="#6ACAB9" id="PIR" d="M344 274c0 6.031 12 19.79 12 23 4.409 0 12.083-8.666 14-12.5l19-38c2.928-5.856 14-18.525 14-24.5l-4-2c-1.216 0-10-3.527-10-4-1.176 0-7-2.114-7-3h-1l-6 12-1 1-1 1-2 2v1l-2 2c0 1.238-.423 3-2 3 0 1.238-.423 3-2 3 0 5.887-20 24.744-20 31l-1 5Z"/><path fill="#E64438" id="HY" d="m174 214-1 1 1-1Z"/><path fill="#97D6F9" id="STR" fill-rule="evenodd" d="m115 239-1 2.5c0 6.042 6.329-2.5 1-2.5m6 14h9c0-1.804-2.182-5.136-1-7.5l5-3.5c-4.498 0-4.183-9.134-3-11.5 2.918-5.835 6.849-4.5 12-4.5v-1c-2.022 0-10-6.758-10-9l-2-1c0 2.231 2.386 6.728 1 9.5-2.55 5.101-15.056 12.222-22.5 8.5l-8-4-4.5-4 8 9h1c0-.709 14.705 4 5 4l-1 2c0 5.345 4.985 13 11 13Z"/><path fill="#E64438" id="HY" d="m173 215-1 1 1-1ZM275 215l-1 1 1-1Z"/><path fill="#97D6F9" id="STR" fill-rule="evenodd" d="m340 239-1 2c0 7.081 6.097-2 1-2m-13 14h8c3.715 0 5.378-4 8-4l3-8v-2l-1-1c-7.479 0 5-5.441 5-4h1l5-5-9.5 4c-7.632 3.816-19.452-3.404-22.5-9.5l1-8.5-3 2-6 8c10.946 0 12.813 17 6 17 0 2.205 3.251.002 4 1.5 1.372 2.745 1 6.19 1 9.5Z"/><path fill="#FF6F80" id="TH" d="M227 217h1v-1l-1 1ZM223 218h4v-1h-5l1 1Z"/><path fill="#E64438" id="HY" d="M227 218c.839 0 2 1.93 2 0v-1h-2v1Z"/><path fill="#FF6F80" id="TH" d="M229 218h4l2-1h-6v1Z"/><path fill="#E64438" id="HY" d="m273 217-1 1 1-1Z"/><path fill="#FF5D4F" id="PVH" d="M229 240h3l3-1c0-4.321 8.962-17.577 8-19.5-1.72-3.44-10 .619-10-1.5h-4c0 1.93-1.161 0-2 0h-4c0 1.508-8.381-1.738-10 1.5-.551 1.102 9 16.157 9 19.5l2 1h3l.5-19c2.041-1.021 1.5 3.062 1.5 4v15Z"/><path fill="#E64438" id="HY" d="m285 218 2 2-2-2Z"/><path fill="#A2B1D7" id="SI" d="M149 241c2.991 0 6.155 5.173 10.5 3l3.5-3v-1l1-1 2-8 1-2v-2c0-14.289-24-4.682-24-2v1c5.356 0 5 8.953 5 13l1 2Z"/><path fill="#C7C8CA" id="fx" d="M201 219c0 .979-5.079 3.658-6 5.5-4.889 9.779 8.725 6.551 12 0 .786-1.572.246-5.5-1.5-5.5H201ZM250 219c0 1.423-1.978 3.544-1 5.5.942 1.884 7.937 8.281 11.5 6.5 7.039-3.52-3.826-12-10.5-12Z"/><path fill="#A2B1D7" id="SI" d="M293 241c2.802 0 5.472 5.014 9.5 3l4.5-3 1-2c0-4.157.251-13 6-13v-1l-3.5-3-7-1c-8.602-4.301-13.5-.476-13.5 9l3 11Z"/><path fill="#E64438" id="HY" d="m170 220-1 1 1-1Z"/><path fill="#A8A9AA" id="V3" d="M227 240v25.5c0 1.346-.789 7.5 1.5 7.5l.5-33v-15c0-.938.541-5.021-1.5-4l-.5 19Z"/><path fill="#E64438" id="HY" d="m287 222 1 1-1-1Z"/><path fill="#8AD987" id="CTXsp" d="m94 234-3 3c0-2.175-5.317-10-8-10l-2-3 2 1c0 4.305 11 7.026 11 9Z"/><path fill="#E64438" id="HY" d="m169 224-1 1 1-1Z"/><path fill="#7FC0E0" id="CEAm" d="M134 242c2.998 0 7.358 1 11 1l3-4c0-4.047.356-13-5-13-5.151 0-9.082-1.335-12 4.5-1.183 2.366-1.498 11.5 3 11.5Z"/><path fill="#97D6F9" id="STR" d="m316 225-2 1v-1h2Z"/><path fill="#7FC0E0" id="CEAm" d="M322 242c-2.998 0-7.358 1-11 1l-3-4c0-4.157.251-13 6-13l2-1c10.946 0 12.813 17 6 17Z"/><path fill="#97D6F9" id="STR" d="m359 225-1 1 1-1Z"/><path fill="#C9C8CA" id="ee" d="M373 225c-1.186 0-1.186 1 0 1v-1Z"/><path fill="#8AD987" id="CTXsp" d="M373 226h1v-1h-1v1Z"/><path fill="#99D2BD" id="OLF" d="m375 225-1 1v-1h1Z"/><path fill="#97D6F9" id="STR" d="m358 226-1 1 1-1Z"/><path fill="#8AD987" id="CTXsp" d="m361 226-1 1 1-1Z"/><path fill="#99D2BD" id="OLF" d="m374 226-1 1v-1h1ZM83 227c2.683 0 8 7.825 8 10l-8-10Z"/><path fill="#8AD987" id="CTXsp" d="m96 227 1 1-1-1ZM373 227c-1.747 0-2 .253-2 2l2-2Z"/><path fill="#97D6F9" id="STR" d="m357 228-1 1 1-1Z"/><path fill="#8AD987" id="CTXsp" d="m360 228-1 1 1-1ZM97 231h2l-2-2v2Z"/><path fill="#8599CC" id="PAL" d="m167 229-1 2 1-2Z"/><path fill="#8AD987" id="CTXsp" d="M358 231h1v-2l-1 2ZM369 230h2v-1l-2 1ZM367 235l-2 1-2-2 6-4v2c-1.577 0-2 1.762-2 3Z"/><path fill="#99D2BD" id="OLF" d="m371 230-2 2v-2h2Z"/><path fill="#A0ED9D" id="EPv" d="M112 269h1l2-2.5c.703-1.406-1.261-7.5 1-7.5 0-7.299-10-15.905-10-17-2.699 0-5-3.643-5-6l-2-4v-1h-2c0 1.539-1.341 3-3 3l-3 3c0 3.162 13.564 22.064 16.5 25l4.5 7ZM343 269h2c0-6.256 20-25.113 20-31v-2l-2-2-4-3h-1l-2 2-1 2v1c0 3.233-4 4.452-4 6l-8 7c0 3.446-2 6.77-2 11v6l2 3Z"/><path fill="#8AD987" id="CTXsp" d="M101 236h2l-4-4 2 4Z"/><path fill="#99D2BD" id="OLF" d="M369 232c-1.577 0-2 1.762-2 3 1.577 0 2-1.762 2-3Z"/><path fill="#8AD987" id="CTXsp" d="m356 233-1 2 1-2Z"/><path fill="#9DE79B" id="BLAa" d="M105 234h1c0 2.202-1 2.202-1 0Z"/><path fill="#FF4B3E" id="AHN" d="M206 272h1c0-.777 8.94-2 10-2v-1l1-2c0-8.266 1-17.182 1-26-.559 0-5.631-6.065-7.5-7-6.781-3.39-16.927 5.355-19.5 10.5-1.758 3.517-.519 16.962 1 20 .987 1.975 7 5.625 7 6.5h4l2 1ZM249 272h1l2-1h4l7-5.5c2.163-4.326 2-9.24 2-14.5v-5c-1.154 0-2.386-5.943-4.5-7-7.148-3.574-22.5-11.284-22.5 5 0 8.418 1 17.172 1 25l2.5 2c1.406.703 7.5-1.261 7.5 1Z"/><path fill="#9DE79B" id="BLAa" d="M350 234h1c0 1.186-1 1.186-1 0Z"/><path fill="#8AD987" id="CTXsp" d="M354 236h1v-1l-1 1Z"/><path fill="#99D2BD" id="OLF" d="M365 236v2c1.577 0 2-1.762 2-3l-2 1Z"/><path fill="#80BEE2" id="IA" d="M107 239c0 1.048.473 3-1 3-2.699 0-5-3.643-5-6h2l2 2 1 1h1ZM350 239c0 .922-1.681 3 1 3 0-1.548 4-2.767 4-6h-1l-3 2-1 1Z"/><path fill="#9DE79B" id="BLAa" d="m111 238-1 2-1-2.5c.525-1.05 2-.553 2 .5ZM346 239h1l1-1.5c0-.803-3-.936-3 .5l1 1Z"/><path fill="#8AD987" id="CTXsp" d="m105 238 1 1-1-1ZM351 238l-1 1 1-1ZM121 253l-5 6c0-7.299-10-15.905-10-17 1.473 0 1-1.952 1-3l3 1c0 5.345 4.985 13 11 13Z"/><path fill="#C9C9C9" id="act" d="m115 239-1 2.5c0 6.042 6.329-2.5 1-2.5Z"/><path fill="#97D6F9" id="STR" d="M151 256h7l-9-15-1-2-3 4c8.547 0 6 7.566 6 13Z"/><path fill="#8599CC" id="PAL" d="m164 239-1 1 1-1Z"/><path fill="#FD5547" id="SBPV" d="m217 270 1 1 2.5-4 4.5 1c0-8.675-1-18.684-1-28l-2-1c-2.003 0-3-.293-3 2 0 8.818-1 17.734-1 26l-1 2v1ZM239 269v2c-2.73 0-1.112-3.306-2.5-4l-5.5 1c0-8.539 1-18.779 1-28l3-1c3.826 0 .473 5 3 5 0 8.418 1 17.172 1 25Z"/><path fill="#97D6F9" id="STR" d="M307 243h4l-3-4-1 2v2Z"/><path fill="#C9C9C9" id="act" d="m340 239-1 2c0 7.081 6.097-2 1-2Z"/><path fill="#C8CBCC" id="ec" d="m347 239-1 2v-2h1Z"/><path fill="#8AD987" id="CTXsp" d="m351 242-8 7 3-8 1-2h3c0 .922-1.681 3 1 3Z"/><path fill="#FF5D50" id="PVa" d="m229 276-2 1c0-3.68-2-5.511-2-9 0-8.675-1-18.684-1-28h3v25.5c0 1.346-.789 7.5 1.5 7.5l.5-33h3c0 9.221-1 19.461-1 28 0 3.091-2 5.478-2 8Z"/><path fill="#8599CC" id="PAL" d="M158 256c0 1.077 3.762 3 5 3l-1-4v-1l-1-1 2-12-3.5 3c-4.345 2.173-7.509-3-10.5-3l9 15ZM299 256l-6 4 2-6c0-4.846-2-8.793-2-13 2.802 0 5.472 5.014 9.5 3l4.5-3v2l-1 1-1 2c-1.727 0-6 8.413-6 10Z"/><path fill="#80C0E2" id="AAA" d="m150 257-3.5 2c-2.977 1.489-8.046-1-10.5-1l-6-5c0-1.804-2.182-5.136-1-7.5l5-3.5c2.998 0 7.358 1 11 1 8.547 0 6 7.566 6 13l-1 1ZM321 258l-1 1c-11.894 0-15-.028-15-13l1-2 1-1h4c3.642 0 8.002-1 11-1 0 2.205 3.251.002 4 1.5 1.372 2.745 1 6.19 1 9.5l-6 5Z"/><path fill="#97D6F9" id="STR" d="m307 243-1 1 1-1ZM306 244l-1 2 1-2ZM307 262h1l1-1h11v-2c-11.894 0-15-.028-15-13-1.727 0-6 8.413-6 10 4.486 0 8-.803 8 6Z"/><path fill="#8AD987" id="CTXsp" d="m335 253 4 3.5 2 3.5c0-4.23 2-7.554 2-11-2.622 0-4.285 4-8 4Z"/><path fill="#E64438" id="HY" d="M263 273h2l2-1 2-1 5-3c-2.276 0 1-2.078 1-3-4.794 0-6.11-2.72-8-6.5-.652-1.303-.219-7.5-2-7.5 0 5.26.163 10.174-2 14.5l-7 5.5c2.529 0 7-1.136 7 2Z"/><path fill="#84EA80" id="BMAa" d="m123 273-1 1-4-2c0-3.678-2-8.331-2-13l5-6h9l6 5v4c0 2.232-3 4.029-3 7l-2 2c-3.303 0-5.115 2-8 2ZM338 272c-1.852 0-3.309 1-5 1-2.885 0-4.697-2-8-2l-2-2c0-3.351-3-5.596-3-8v-2l1-1 6-5h8l4 3.5 2 3.5v6c-1.014 0-2 3.959-2 5l-1 1Z"/><path fill="#E64438" id="HY" d="m161 253 1 1-1-1ZM291 265l-4 5c0-7.534-3.322-7-9-7 0-3.212 11.267-4.884 13.5-6l3.5-3-2 6v1l-1 1c-1.473 0-1 1.952-1 3Z"/><path fill="#80BFE1" id="MEA" d="M160 281h1c0-1.238.423-3 2-3l1-1 1-2c0-1.145-.579-4 1-4v-1l-1-1v-6l-2-3v-1c-1.238 0-5-1.923-5-3h-7l-1 1-1 5c0 1.947 3 2.636 3 5 2.16 0 3 6.07 3 8 0 1.819 1 4.591 1 7 2.878 0 2.954-1 4-1Z"/><path fill="#E64438" id="HY" d="m165 264 4 5c0-6.557 4.768-6 9-6 0-2.341-2.342-1.421-3.5-2-3.173-1.587-9.02-6-12.5-6l1 4v1c1.577 0 2 1.762 2 3v1Z"/><path fill="#80BFE1" id="MEA" d="M297 282c.716 0 3 2.373 3 0 0-.965 1.299-10 2-10l1-4 1-1 3-5c0-6.803-3.514-6-8-6l-6 4v1l-1 1c0 1.048.473 3-1 3v10l6 7Z"/><path fill="#97D6F9" id="STR" d="m151 256-1 1 1-1ZM137 261l7.5-1 4.5 2 1-5-3.5 2c-2.977 1.489-8.046-1-10.5-1v3h1ZM321 258l-1 1 1-1Z"/><path fill="#8AD987" id="CTXsp" d="m113 269 5 3c0-3.678-2-8.331-2-13-2.261 0-.297 6.094-1 7.5l-2 2.5Z"/><path fill="#94E4C7" id="NLOT3" d="M133 269v2c3.859 0 12.044-4 19-4 0-2.364-3-3.053-3-5l-4.5-2-7.5 1-1 1c0 2.232-3 4.029-3 7Z"/><path fill="#8599CC" id="PAL" d="M163 260c1.577 0 2 1.762 2 3l-2-3Z"/><path fill="#94E4C7" id="NLOT3" d="M323 269v2l-2.5-2c-3.167-1.584-12.41-2-16.5-2l3-5h1l1-1h11c0 2.404 3 4.649 3 8Z"/><path fill="#99D2BD" id="OLF" d="m137 261-1 1v-1h1Z"/><path fill="#8599CC" id="PAL" d="m293 261-1 1 1-1Z"/><path fill="#99D2BD" id="OLF" d="m309 261-1 1 1-1Z"/><path fill="#FE5B50" id="SO" d="M169 269c0 1.747.253 2 2 2 2.859 0 3.197-2.849 5.5-4l6.5 1c0-2.732-4-2.259-4-5h-1c-4.232 0-9-.557-9 6ZM287 270l-2 1c-2.469 0-3.074-2.787-5.5-4l-5.5 1c-2.276 0 1-2.078 1-3 1.238 0 3-.423 3-2 5.678 0 9-.534 9 7Z"/><path fill="#8599CC" id="PAL" d="M292 262c-1.473 0-1 1.952-1 3 1.473 0 1-1.952 1-3Z"/><path fill="#E64438" id="HY" d="M278 263c-1.238 0-3 .423-3 2 1.238 0 3-.423 3-2Z"/><path fill="#8599CC" id="PAL" d="M171 271v1l-5-1v-1l-1-1v-5l4 5c0 1.747.253 2 2 2ZM291 271l-6 1v-1l2-1 4-5v6Z"/><path fill="#8AD987" id="CTXsp" d="m343 269-4 2c0-1.041.986-5 2-5l2 3Z"/><path fill="#95E3C8" id="NLOT2" d="m136 282 2 1c4.864 0 8.515-.007 12.5-2l4.5-6c0-1.93-.84-8-3-8-6.956 0-15.141 4-19 4v1c0 2.47-.316 10 3 10Z"/><path fill="#CAC7CB" id="fiber tracts" d="M227 285c-9.81 0-19.067 2-28 2-5.037 0-35.22-10.64-24.5-16 8.165-4.083 12.84 4 19.5 4 0-4.103-11-3.905-11-7l-6.5-1c-2.303 1.151-2.641 4-5.5 4v1c0 12.368 33.109 20.195 43.5 15 2.118-1.059 12.5 1.508 12.5-2Z"/><path fill="#E64438" id="HY" d="m218 267-1 2 1-2Z"/><path fill="#FF5545" id="SCH" d="M227 277c0 7.412-7.363 2-10 2v-3l1-5 2.5-4 4.5 1c0 3.489 2 5.32 2 9ZM229 276c0 3.337 3.767 6.867 7.5 5l3.5-4v-2l-1-4c-2.73 0-1.112-3.306-2.5-4l-5.5 1c0 3.091-2 5.478-2 8Z"/><path fill="#CAC7CB" id="fiber tracts" d="M285 272v1c-1.019 0-6.278-2.389-7.5-3l-8.5 1 5-3 5.5-1c2.426 1.213 3.031 4 5.5 4v1Z"/><path fill="#94E4C7" id="NLOT3" d="m304 267-1 1 1-1Z"/><path fill="#95E3C8" id="NLOT2" d="m321 282-2 1c-8.861 0-17-.431-17-11l1-4 1-1c4.09 0 13.333.416 16.5 2l2.5 2v2c0 3.423-2 6.474-2 9Z"/><path fill="#99D2BD" id="OLF" d="m122 274-1 2-3.5-3c-1.956-.978-4.077 1-5.5 1v-5h1l5 3 4 2ZM133 271v1l-2-1 2-2v2Z"/><path fill="#97D6F9" id="STR" d="m165 269 1 1-1-1Z"/><path fill="#E64438" id="HY" d="M249 272c-3.275 0-6.454 3-9 3l-1-4v-2l2.5 2c1.406.703 7.5-1.261 7.5 1Z"/><path fill="#99D2BD" id="OLF" d="m325 271-2 2v-4l2 2ZM344 274c-2.467 0-8-2.186-8 3l-3-4c1.691 0 3.148-1 5-1l1-1 4-2h2l-1 5Z"/><path fill="#CACCCB" id="opt" d="M199 279v8c-5.037 0-35.22-10.64-24.5-16 8.165-4.083 12.84 4 19.5 4h1l4 4Z"/><path fill="#E64438" id="HY" d="M207 272c3.754 0 8.405 4 10 4l1-5-1-1c-1.06 0-10 1.223-10 2Z"/><path fill="#CACCCB" id="opt" d="M257 287h6c0-1.638 3.576-2 5-2l4-2c0-1.345 9.363-6 11-6l1-1 1-1v-2c-1.019 0-6.278-2.389-7.5-3l-8.5 1-2 1-2 1-2 1-1 1-2 1-1 1-2 2v8Z"/><path fill="#60E5B7" id="COAa" d="M137 293c-1.908 0-6.651 2.076-8.5 3-1.956.978-4.077-1-5.5-1 0-3.09-1.619-8.738-3-11.5l1-7.5 1-2 1-1c2.885 0 4.697-2 8-2l2 1c0 2.47-.316 10 3 10l1 3v8Z"/><path fill="#97D6F9" id="STR" d="M166 271c-1.579 0-1 2.855-1 4 1.579 0 1-2.855 1-4Z"/><path fill="#F2483B" id="RCH" d="m217 279-1 2c-9.064 0-17.303-6-21-6 0-4.785-4.749-4 5-4h4l2 1h1c3.754 0 8.405 4 10 4v3Z"/><path fill="#E64438" id="HY" d="m204 271 2 1-2-1ZM252 271l-2 1 2-1Z"/><path fill="#F2483B" id="RCH" d="M259 277c-6.272 0-11.695 4-19 4v-6c2.546 0 5.725-3 9-3h1l2-1h4c2.529 0 7-1.136 7 2v1l-1 1-2 1-1 1Z"/><path fill="#CAC7CB" id="fiber tracts" d="m269 271-2 1 2-1Z"/><path fill="#60E5B7" id="COAa" d="m320 293 2.5 2c3.347 1.674 7.517 0 10.5 0 0-4.693 3-11.139 3-18l-3-4c-2.885 0-4.697-2-8-2l-2 2c0 3.423-2 6.474-2 9l-2 2 1 9Z"/><path fill="#8AD987" id="CTXsp" d="m339 271-1 1 1-1Z"/><path fill="#CAC7CB" id="fiber tracts" d="m267 272-2 1 2-1Z"/><path fill="#95E4C7" id="NLOT1" d="m319 284 1 9-1.5 2c-3.116 1.558-8.722-.861-11-2l-6.5-6.5c-.574-1.147 1.064-4.5-1-4.5 0-.965 1.299-10 2-10 0 10.569 8.139 11 17 11v1Z"/><path fill="#59D9AA" id="PAA" d="M107 300h3c3.943 0 13 .143 13-5 0-3.09-1.619-8.738-3-11.5l1-7.5-3.5-3c-1.956-.978-4.077 1-5.5 1 0 5.731-12 22.125-12 23l1 1 5 1 1 1Z"/><path fill="#99D2BD" id="OLF" d="m123 273-1 1 1-1Z"/><path fill="#CAC7CB" id="fiber tracts" d="m265 273-2 1v-1h2Z"/><path fill="#59D9AA" id="PAA" d="M347 300h2l2-1 4-1 1-1c0-3.21-12-16.969-12-23-2.467 0-8-2.186-8 3 0 6.861-3 13.307-3 18 0 5.441 9.879 5 14 5Z"/><path fill="#CAC7CB" id="fiber tracts" d="m263 274-1 1 1-1Z"/><path fill="#95E4C7" id="NLOT1" d="m148 294-2 1c-2.716 0-9 1.286-9-2v-8l1-2c4.864 0 8.515-.007 12.5-2l4.5-6c0 1.819 1 4.591 1 7 0 4.112-5 6.869-5 10l-2 1-1 1Z"/><path fill="#97D6F9" id="STR" d="m165 275-1 2 1-2Z"/><path fill="#CAC7CB" id="fiber tracts" d="M216 281h24c7.305 0 12.728-4 19-4l-2 2c-1.255 0-7.967 3.234-9.5 4h-39l-9.5-4-4-4c3.697 0 11.936 6 21 6ZM262 275l-2 1 2-1ZM285 275l-1 1 1-1Z"/><path fill="#97D6F9" id="STR" d="M295 282h2l-6-7c0 3.145 4 3.855 4 7Z"/><path fill="#E64438" id="HY" d="M216 281h24v-4l-3.5 4c-3.733 1.867-7.5-1.663-7.5-5l-2 1c0 7.412-7.363 2-10 2l-1 2Z"/><path fill="#CAC7CB" id="fiber tracts" d="m260 276-1 1 1-1ZM284 276l-1 1 1-1Z"/><path fill="#97D6F9" id="STR" d="m164 277-1 1 1-1Z"/><path fill="#CAC7CB" id="fiber tracts" d="M283 277c-1.637 0-11 4.655-11 6 3.578 0 11-2.46 11-6Z"/><path fill="#97D6F9" id="STR" d="M163 278c-1.577 0-2 1.762-2 3 1.577 0 2-1.762 2-3Z"/><path fill="#CBCACC" id="och" d="M229 285c9.81 0 19.067 2 28 2v-8c-1.255 0-7.967 3.234-9.5 4h-39l-9.5-4v8c8.933 0 18.19-2 28-2h2Z"/><path fill="#99D2BD" id="OLF" d="M161 282c0 2.606-5.686 10-10 10 0-3.131 5-5.888 5-10 2.878 0 2.954-1 4-1l1 1Z"/><path fill="#97D6F9" id="STR" d="M161 281v1l-1-1h1Z"/><path fill="#99D2BD" id="OLF" d="m138 283-1 2-1-3 2 1ZM333 295c0 5.441 9.879 5 14 5 0 1.643-3.765 1-5 1-3.944 0-10.076-1.288-13.5-3-3.898-1.949-10.178.911-14-1-5.611-2.805-19.5-7.871-19.5-15h2c.716 0 3 2.373 3 0 2.064 0 .426 3.353 1 4.5l6.5 6.5c2.278 1.139 7.884 3.558 11 2l1.5-2 2.5 2c3.347 1.674 7.517 0 10.5 0ZM319 283v1l2-2-2 1Z"/><path fill="#CAC7CB" id="fiber tracts" d="m272 283-4 2c1.465 0 4 .109 4-2ZM257 287h6c0 4.645-23.566 0-26.5 0-1.689 0-7.5-.198-7.5-2 9.81 0 19.067 2 28 2ZM268 285c-1.424 0-5 .362-5 2 1.622 0 5 .461 5-2Z"/><path fill="#99D2BD" id="OLF" d="m151 292-2 1 2-1ZM146 295c0 1.663-5.407 2-7 2-7.061 0-15.583 1.042-21.5 4-1.208.604-7.5.265-7.5-1 3.943 0 13 .143 13-5 1.423 0 3.544 1.978 5.5 1 1.849-.924 6.592-3 8.5-3 0 3.286 6.284 2 9 2ZM149 293l-1 1 1-1ZM148 294l-2 1 2-1ZM100 297l1 1-1-1ZM356 297l-1 1 1-1ZM106 299l1 1-1-1ZM351 299l-2 1 2-1Z"/></svg>