<svg xmlns="http://www.w3.org/2000/svg" viewBox="0 0 456 320"><path fill="#187F60" id="SSp-ll1" d="M131 32c0 2.003 1.665 5 2 5 4.739 0 11.358-3.93 15.5-6 8.983-4.491 21.683-4 32.5-4v-6c-8.669 0-25.865.683-32.5 4-4.39 2.195-12.592 7-17.5 7Z"/><path fill="#1E9D5A" id="MOp1" d="M199 25c-6.245 0-12.298 2-18 2v-6h18v4Z"/><path fill="#1E9C59" id="MOs1" d="M222 38h1l3-3c0-5.567-11.631-12.066-15.5-14H199v4c7.385 0 23 3.142 23 13ZM230 35l4 3c0-8.605 16.465-13 23-13v-4c-11.612 0-15.22 1.72-23 9.5l-4 4.5Z"/><path fill="#1E9D5A" id="MOp1" d="m257 25 18 1v-5h-18v4Z"/><path fill="#187F60" id="SSp-ll1" d="m325 32-1 5c-6.715 0-16.63-5.065-22.5-8-6.551-3.276-17.689-2-25.5-2l-1-1v-5c15.182 0 28.003 1.752 40.5 8 1.544.772 9.5 1.024 9.5 3Z"/><path fill="#1F9C58" id="MOp2/3" d="M179 38v3c3.409 0 10.785-6 18-6 0-3.395 2-6.106 2-10-6.245 0-12.298 2-18 2 0 4.393-2 7.089-2 11Z"/><path fill="#1E9D58" id="MOs2/3" d="M216 42h1l5-4c0-9.858-15.615-13-23-13 0 3.894-2 6.605-2 10 5.582 0 19-1.299 19 7ZM234 38l6 4c0-8.076 13.488-7 19-7l-2-10c-6.535 0-23 4.395-23 13Z"/><path fill="#1F9C58" id="MOp2/3" d="M277 38v2c-5.712 0-10.435-5-17-5h-1l-2-10 18 1 1 1c0 3.854 1 6.486 1 11Z"/><path fill="#187F64" id="SSp-ll2/3" d="M137 51h1c0-1.727 7.11-3.305 8.5-4 8.624-4.312 22.474-9 32.5-9 0-3.911 2-6.607 2-11-10.817 0-23.517-.491-32.5 4-4.142 2.07-10.761 6-15.5 6v1c0 4.649 4 8.129 4 13ZM324 38c-.221 0-5 10.842-5 12-3.878 0-8.174-3.337-11.5-5-3.172-1.586-26.609-7-30.5-7 0-4.514-1-7.146-1-11 7.811 0 18.949-1.276 25.5 2 5.87 2.935 15.785 8 22.5 8v1Z"/><path fill="#197E64" id="SSp-ul1" d="m115 39 2 6c5.592 0 10.033-7 16-7v-1c-.335 0-2-2.997-2-5l-16 7ZM339 45h1l1-6-16-7-1 5v1c5.627 0 9.715 7 15 7Z"/><path fill="#1E9C5A" id="MOp5" d="m193 50-18 9c0-6.398 4-12.3 4-18 3.409 0 10.785-6 18-6l-4 15Z"/><path fill="#1F9D58" id="MOs5" d="M193 50c2.173 0 13-3.354 13 2l10-10c0-8.299-13.418-7-19-7l-4 15Z"/><path fill="#3EA665" id="ACAd1" d="M223 59h10c0-7.052 1-14.555 1-21l-4-3-1.5 3-2.5-3-3 3v21Z"/><path fill="#1F9D58" id="MOs5" d="M263 50c-2.125 0-12-3.56-12 2-4.513 0-6.049-10-11-10 0-8.076 13.488-7 19-7h1l3 15Z"/><path fill="#1E9C5A" id="MOp5" d="M264 51c6.364 0 11.862 8 18 8l-4-18-1-1c-5.712 0-10.435-5-17-5l3 15 1 1Z"/><path fill="#197F61" id="SSp-ul2/3" d="M120 58h1l16-7c0-4.871-4-8.351-4-13-5.967 0-10.408 7-16 7l3 13Z"/><path fill="#1C7F64" id="SSp-ll4" d="M140 57h1c0-2.308 6.963-2.232 8.5-3 3.481-1.74 27.516-13 29.5-13v-3c-10.026 0-23.876 4.688-32.5 9-1.39.695-8.5 2.273-8.5 4l2 6Z"/><path fill="#40A565" id="ACAd2/3" d="m223 60-5 1-1-19 5-4h1v22ZM233 60l6 1c0-6.244 1-13.428 1-19l-6-4c0 6.445-1 13.948-1 21v1Z"/><path fill="#1C7F64" id="SSp-ll4" d="m319 51-3 6c-8.081 0-33.717-16-38-16l-1-1v-2c3.891 0 27.328 5.414 30.5 7 3.326 1.663 7.622 5 11.5 5v1Z"/><path fill="#197F61" id="SSp-ul2/3" d="m319 51 17 7c0-4.208 3-9.446 3-13-5.285 0-9.373-7-15-7-.221 0-5 10.842-5 12v1Z"/><path fill="#1B8062" id="SSp-un1" d="m117 45-10 5-1-6 9-5 2 6ZM340 45l9 5 1-6-9-5-1 6Z"/><path fill="#197C63" id="SSp-ll5" d="M175 59c-8.979 0-17.515 9-27 9-1.911 0-7-8.439-7-11 0-2.308 6.963-2.232 8.5-3 3.481-1.74 27.516-13 29.5-13 0 5.7-4 11.602-4 18ZM308 69h1c0-4.477 7-7.71 7-12-8.081 0-33.717-16-38-16l4 18c1.586 0 18.351 5.925 20.5 7l5.5 3Z"/><path fill="#3EA566" id="ACAd5" d="m218 61-11 6c0-5.039-1-10.575-1-15l10-10h1l1 19ZM239 62c4.173 0 6.651 5 10 5 0-2.454-.827-14 2-14v-1c-4.513 0-6.049-10-11-10 0 5.572-1 12.756-1 19v1Z"/><path fill="#188060" id="SSp-bfd1" d="m72 76-1 1c-2.009 0-2.991-2-5-2l8.5-9c5.101-5.101 25.512-22 31.5-22l1 6v1c-9.294 0-18.357 12.429-25.5 16L72 76ZM386 77c0-.632 4.255 0 6 0 0-3.451-6.999-6.498-8-8.5-2.407-4.813-28.095-24.5-34-24.5l-1 6c7.031 0 21.025 15.763 27.5 19l8.5 8h1Z"/><path fill="#1C7F63" id="SSp-un2/3" d="m120 58-9 5c0-1.557-2.255-12-4-12v-1l10-5 3 13ZM345 63h1c0-2.163 3-9.887 3-13l-9-5h-1c0 3.554-3 8.792-3 13v1c1.831 0 9 2.183 9 4Z"/><path fill="#1D9C5A" id="MOs6a" d="M190 71h5c0-2.35 9.702-19 11-19 0-5.354-10.827-2-13-2l-3 9.5c-1.88 3.76 0 8.348 0 11.5ZM261 71h6c0-7.38-3-13.416-3-20l-1-1c-2.125 0-12-3.56-12 2v1c2.384 0 10 15.132 10 18Z"/><path fill="#1F9B5A" id="MOp6a" d="M190 71c-5.511 0-10.849 6-17 6 0-6.326 2-12.181 2-18l18-9-3 9.5c-1.88 3.76 0 8.348 0 11.5Z"/><path fill="#187F63" id="SSp-bfd2/3" d="M372 78h1c0-1.409 9.558-1 12-1l-8.5-8c-6.475-3.237-20.469-19-27.5-19 0 3.113-3 10.837-3 13 2.494 0 17.256 8.378 20.5 10l5.5 5ZM83 78h1l5.5-5c2.685-1.343 20-10 21.5-10 0-1.557-2.255-12-4-12-9.294 0-18.357 12.429-25.5 16L72 76v1c2.5 0 11 .91 11 1Z"/><path fill="#1A7F63" id="SSp-ul4" d="M122 66h1l3.5-3c3.022-1.51 10.212-6 13.5-6l-2-6h-1l-16 7 1 8Z"/><path fill="#1F9B5A" id="MOp6a" d="M267 72c5.587 0 10.139 5 16 5l-1-18c-6.138 0-11.636-8-18-8 0 6.584 3 12.62 3 20v1Z"/><path fill="#1A7F63" id="SSp-ul4" d="m336 59-2 7-18-9 3-6 17 7v1Z"/><path fill="#3FA664" id="ACAd6a" d="M195 71c2.364 0 3.053 3 5 3l7-6v-1c0-5.039-1-10.575-1-15-1.298 0-11 16.65-11 19ZM261 71c-1.429 0-4 1.288-4 3-3.538 0-4.148-6-8-6v-1c0-2.454-.827-14 2-14 2.384 0 10 15.132 10 18Z"/><path fill="#187E62" id="SSp-ul5" d="M148 69c-7.349 0-15.976 9-22 9 0-4.091-3-7.606-3-12l3.5-3c3.022-1.51 10.212-6 13.5-6h1c0 2.561 5.089 11 7 11v1ZM309 69c7.441 0 14.203 9 21 9l4-12-18-9c0 4.29-7 7.523-7 12Z"/><path fill="#197E61" id="SSp-un4" d="m122 66-10 6c0-2.626-1-5.457-1-9l9-5h1l1 8Z"/><path fill="#1A7F64" id="SSp-ll6a" d="M173 78c-6.269 0-11.015 4-17 4 0-1.684-6.829-13-8-13v-1c9.485 0 18.021-9 27-9 0 5.819-2 11.674-2 18v1Z"/><path fill="#40A664" id="ACAv1" d="M233 90h1c0-9.411-1-19.97-1-30v-1h-10v29l4-3c0-3.153 2-5.347 2-1 1.617 0 4 4.583 4 6Z"/><path fill="#1A7F64" id="SSp-ll6a" d="M300 83h1c0-6.016 7-9.92 7-14l-5.5-3c-2.149-1.075-18.914-7-20.5-7l1 18 12.5 4c1.119.56 4.5.155 4.5 2Z"/><path fill="#197E61" id="SSp-un4" d="M344 72h1v-9c0-1.817-7.169-4-9-4l-2 7 10 6Z"/><path fill="#3FA566" id="ACAv2/3" d="M222 90c0 1.473-1.952 1-3 1 0-9.411-1-19.97-1-30l5-1v28l-1 2ZM234 90l3 1c0-9.381 2-19.136 2-29v-1l-6-1c0 10.03 1 20.589 1 30Z"/><path fill="#3EA666" id="ACAv5" d="M211 90c.922 0 8 4.056 8 1 0-9.411-1-19.97-1-30l-11 6v1c0 7.001 4 14.162 4 21v1ZM245 90c-.922 0-8 4.056-8 1 0-9.381 2-19.136 2-29 4.173 0 6.651 5 10 5v1c0 6.95-4 15.575-4 21v1Z"/><path fill="#197C64" id="SSp-bfd4" d="M98 81h1c0-1.13 11.271-8 13-8v-1c0-2.626-1-5.457-1-9-1.5 0-18.815 8.657-21.5 10L84 78c5.45 0 9.714 3 14 3ZM357 81h2c4.892 0 5.214-1 10.5-1 .63 0 .688-2 2.5-2l-5.5-5c-3.244-1.622-18.006-10-20.5-10h-1v9c0 3.348 12 6.017 12 9Z"/><path fill="#197D62" id="SSp-un5" d="M126 78c-4.524 0-8.018 7-13 7-.828 0 0-3.378 0-5 0-3.145-1-4.833-1-7v-1l10-6h1c0 4.394 3 7.909 3 12ZM330 78l14 8V72l-10-6-4 12Z"/><path fill="#40A564" id="ACAv6a" d="m208 87 3 2c0-6.838-4-13.999-4-21l-7 6v1c1.507 0 8 10.036 8 12ZM248 87c0 1.577-1.762 2-3 2 0-5.425 4-14.05 4-21 3.852 0 4.462 6 8 6v1c-2.136 0-9 10.049-9 12Z"/><path fill="#197D61" id="SSp-ul6a" d="m135 93-4 1c0-4.984-5-10.807-5-16 6.024 0 14.651-9 22-9 1.171 0 8 11.316 8 13v1c-2.321 0-17 7.28-17 8l-4 2ZM301 83c7.618 0 17.25 11 24 11 0-3.335 5-10.978 5-16-6.797 0-13.559-9-21-9h-1c0 4.08-7 7.984-7 14Z"/><path fill="#1E9C58" id="MOs6b" d="m195 72-5 1v-2h5v1ZM266 72h1v-1h-6v1h5Z"/><path fill="#1D9D5A" id="MOp6b" d="M173 78v1l17-6v-2c-5.511 0-10.849 6-17 6v1Z"/><path fill="#3FA466" id="ACAd6b" d="M199 75h1v-1c-1.947 0-2.636-3-5-3v1l4 3ZM257 74v1l4-3v-1c-1.429 0-4 1.288-4 3Z"/><path fill="#CACCC7" id="cing" d="M211 89v1c-8.927 0-12.7-8.6-19.5-12-5.889-2.944-14.959 4-20.5 4l-2 1h-1c-1.235 0-5 .643-5-1 0-.718 8.654-3 10-3l17-6 5-1 4 3c0 1.74 7.186 12 9 12l3 2ZM245 89v1c8.416 0 13.538-8.519 20.5-12 5.41-2.705 14.295 4 19.5 4l2 1h1c2.124 0 4.436-1 6-1 0-.854-9.53-3-11-3l-12.5-5c-1.119-.56-4.5-.155-4.5-2h-5l-4 3c0 2.275-6.105 12-9 12 0 1.577-1.762 2-3 2Z"/><path fill="#1D9D5A" id="MOp6b" d="M283 77v2l-12.5-5c-1.119-.56-4.5-.155-4.5-2h1c5.587 0 10.139 5 16 5Z"/><path fill="#1A7D62" id="SSp-bfd5" fill-rule="evenodd" d="M344 84c0 1.93 1.93 0 0 0m2 3h1l3.5-3c1.634-.817 6.5-.568 6.5-3 0-2.983-12-5.652-12-9h-1v14h1l1 1Z"/><path fill="#1A7D62" id="SSp-bfd5" d="M113 85c0 1.577-1.762 2-3 2-4.015 0-6.085-6-11-6 0-1.13 11.271-8 13-8 0 2.167 1 3.855 1 7 0 1.622-.828 5 0 5Z"/><path fill="#188060" id="SSp-bfd1" d="m66 75-1 1c2.68 0 1 1.68 1-1Z"/><path fill="#197E63" id="SSp-n1" d="M53 104h1c0-7.149 17-24.44 17-27-2.009 0-2.991-2-5-2 0 2.68 1.68 1-1 1l-1 1c0 2.7-15 17.864-15 24 1.429 0 4 1.288 4 3Z"/><path fill="#40A465" id="ACAv6b" d="M200 75c1.507 0 8 10.036 8 12-1.814 0-9-10.26-9-12h1ZM257 75c-2.136 0-9 10.049-9 12 2.895 0 9-9.725 9-12Z"/><path fill="#188060" id="SSp-bfd1" d="m65 76-1 1 1-1Z"/><path fill="#197E63" id="SSp-n1" d="M71 77h1v-1l-1 1ZM407 101l-4 2-3.5-6c-.926-.926-13.5-19.892-13.5-20 0-.632 4.255 0 6 0 1.648 0 15 20.476 15 24Z"/><path fill="#1B7F64" id="SSp-n2/3" d="m54 104 8 5 7-13.5L83 78c0-.09-8.5-1-11-1h-1c0 2.56-17 19.851-17 27Z"/><path fill="#197F62" id="SSp-ll6b" d="M300 83v1l-6-2c0-.854-9.53-3-11-3v-2l12.5 4c1.119.56 4.5.155 4.5 2Z"/><path fill="#1B7F64" id="SSp-n2/3" d="M394 110h1c0-1.803 6.495-6 8-6v-1l-3.5-6c-.926-.926-13.5-19.892-13.5-20h-1c-2.442 0-12-.409-12 1l7 7.5c3.824 7.649 14 15.497 14 24.5Z"/><path fill="#1A8062" id="SSp-n4" d="M62 110c3.1 0 3.387 4 7 4 0-6.446 15.763-21.263 20-25.5l9-7.5c-4.286 0-8.55-3-14-3h-1L69 95.5 62 109v1Z"/><path fill="#1A7F61" id="SSp-un6a" d="m127 97-6 3-11-12v-1c1.238 0 3-.423 3-2 4.982 0 8.476-7 13-7 0 5.193 5 11.016 5 16v1l-4 2Z"/><path fill="#197F62" id="SSp-ll6b" d="M156 83h1l6-1c0-.718 8.654-3 10-3v-1c-6.269 0-11.015 4-17 4v1Z"/><path fill="#C9C7C9" id="ccb" d="M378 174h1l-3-15-1-1v-3l-2-3v-1l-7-13.5c-3.802-7.604-19.444-26.972-26.5-30.5-12.687-6.343-25.396-11.698-38-18-1.922-.961-13.5-3.872-13.5-6h-1l-2-1c-5.205 0-14.09-6.705-19.5-4-6.962 3.481-12.084 12-20.5 12-.922 0-8 4.056-8 1l-3-1h-1c0 1.206-10 1.206-10 0h-1c0 1.473-1.952 1-3 1 0 3.056-7.078-1-8-1-8.927 0-12.7-8.6-19.5-12-5.889-2.944-14.959 4-20.5 4l-2 1h-1c0 2.603-8.652 4.076-10.5 5-10.054 5.027-21.01 8.005-31 13-8.766 4.383-16.023 12.023-23.5 19.5l-8 8.5-1 2c0 1.577-3.727 9-5 9 0 1.572-2.052 7-4 7v1l-1 2-1 2v1l-1 2-1 2c0 1.357-.647 6-2 6l-1 10 1 1c0-23.462 32.409-60.454 53.5-71 4.448-2.224 12.233-1 17.5-1 0-3.222 4.977-7 8-7l2-1 2-1h1l1-1 8.5-3c5.258-2.629 16.938 1.969 21 4 1.555.778 8.5 3.004 8.5 5l8 1c0-2.867 5.149-2 7-2 3.078 0 10.493 3.003 12.5 2 2.792-1.396 5.606-2 9-2 1.955 0 8.5-.577 8.5 2 2.409 0 5.181-1 7-1 2.224 0 2.272-2.386 3.5-3 5.34-2.67 11.671-3.335 17-6 5.698-2.849 12.711 3 17.5 3l1 1h2c3.821 0 11 4.94 11 9h14.5c24.971 12.486 38.285 29.07 50.5 53.5 2.717 5.434 7 12.103 7 18.5Z"/><path fill="#1A7F61" id="SSp-un6a" d="M335 101h2c0-5.83 9-8.424 9-14l-1-1h-1l-14-8c0 5.022-5 12.665-5 16 2.149 0 10 5.243 10 7Z"/><path fill="#1A8062" id="SSp-n4" d="m394 110-6 4-11-16.5L359 81c4.892 0 5.214-1 10.5-1 .63 0 .688-2 2.5-2h1l7 7.5c3.824 7.649 14 15.497 14 24.5Z"/><path fill="#197E62" id="SSp-n5" d="m69 115 8 6c2.021 0 6.096-9.691 7-11.5 2.577-5.155 21.075-21.5 26-21.5v-1c-4.015 0-6.085-6-11-6h-1l-9 7.5c-4.237 4.237-20 19.054-20 25.5v1ZM388 115c-3.986 0-5.718 6-9 6l-3-4.5c-2.42-4.84-6.543-9.085-9-14-2.403-4.805-20-13.157-20-15.5l3.5-3c1.634-.817 6.5-.568 6.5-3h2l18 16.5 11 16.5v1Z"/><path fill="#C9C9CA" id="scwm" d="M95 127v2l8-8.5c7.477-7.477 14.734-15.117 23.5-19.5 9.99-4.995 20.946-7.973 31-13 1.848-.924 10.5-2.397 10.5-5-1.235 0-5 .643-5-1l-6 1c0 1.845-3.381 1.44-4.5 2-4.285 2.142-8.373 6-13.5 6 0 2.109-2.535 2-4 2 0 2.109-2.535 2-4 2 0 2.109-2.535 2-4 2 0 1.617-4.583 4-6 4 0 1.617-4.583 4-6 4 0 1.747-.253 2-2 2l-2 2c0 1.747-.253 2-2 2l-2 2c0 1.747-.253 2-2 2 0 1.747-.253 2-2 2l-4 4c0 1.747-.253 2-2 2l-2 4ZM171 82l-2 1 2-1ZM285 82l2 1-2-1ZM365 132l8 19-7-13.5c-3.802-7.604-19.444-26.972-26.5-30.5-12.687-6.343-25.396-11.698-38-18-1.922-.961-13.5-3.872-13.5-6 2.124 0 4.436-1 6-1l6 2c8.803 0 16.267 11 25 11 0 1.028 8.52 6 10 6 0 2.73 3.306 1.112 4 2.5 2.016 4.031 11.97 13.235 16.5 15.5 3.521 1.76 4.992 13 9.5 13Z"/><path fill="#1C8064" id="SSp-ul6b" d="M157 83c0 1.845-3.381 1.44-4.5 2-4.285 2.142-8.373 6-13.5 6 0-.72 14.679-8 17-8h1ZM325 94v1c-8.733 0-16.197-11-25-11v-1h1c7.618 0 17.25 11 24 11Z"/><path fill="#7ED04B" id="IG" d="M223 90c0 1.206 10 1.206 10 0 0-1.417-2.383-6-4-6l-2 1-4 3v2Z"/><path fill="#197D62" id="SSp-un5" d="M344 84c0 1.93 1.93 0 0 0ZM345 86l1 1-1-1Z"/><path fill="#187D62" id="SSp-n6a" d="M365 132h1c0-1.779 11.241-10 13-10v-1l-3-4.5c-2.42-4.84-6.543-9.085-9-14-2.403-4.805-20-13.157-20-15.5h-1c0 5.576-9 8.17-9 14l8 6.5c5.407 5.407 20 17.566 20 24.5ZM95 127l-4 4c-4.294 0-8.97-9-14-9v-1c2.021 0 6.096-9.691 7-11.5 2.577-5.155 21.075-21.5 26-21.5l11 12v1c-1.664 0-6 1.823-6 4-1.747 0-2 .253-2 2-1.747 0-2 .253-2 2-1.747 0-2 .253-2 2-1.747 0-2 .253-2 2-1.747 0-2 .253-2 2-1.747 0-2 .253-2 2-2.226 0-4 1.774-4 4-1.747 0-2 .253-2 2-2.109 0-2 2.535-2 4Z"/><path fill="#40A664" id="ACAv1" d="M222 90h1v-2l-1 2Z"/><path fill="#A8AAAA" id="VL" fill-rule="evenodd" d="m183 92-3 2.5c-1.642 3.284-1.331 7.662-3 11l-10 11c-1.261 2.523.736 4.618 2.5 5.5 3.644 1.822 6.23-4.115 8-5 4.554-2.277 12.732-4.965 15.5-10.5 3.247-6.494-3.17-14.5-10-14.5m16 13c0 11.773-20 9.5-24 17.5-1.404 2.808-6.728 10.5-10 10.5 0-5.954.458-11.585-2-16.5L153 103c0-4.383 5-5.437 5-8l2-1 2-1h1l1-1 8.5-3c5.258-2.629 16.938 1.969 21 4 1.555.778 8.5 3.004 8.5 5l-3 7ZM271 92l-3 1.5c-2.511 2.51-6 5.544-6 9 0 5.642 17.456 16.978 22.5 19.5 2.298 1.149 6.53-2.44 5.5-4.5-2.242-4.484-8.495-7.991-11-13-2.436-4.873-.736-12.5-8-12.5m-14 13c1.154 0 2.386 5.943 4.5 7 5.219 2.61 10.823 4.411 16 7 4.911 2.455 7.602 13 13.5 13 0-7.47.963-11.426 4-17.5l8-11.5c0-5.86-8-8.611-8-10h-2l-1-1c-4.789 0-11.802-5.849-17.5-3-5.329 2.665-11.66 3.33-17 6-1.228.614-1.276 3-3.5 3 0 2.232 3 4.029 3 7Z"/><path fill="#1C8064" id="SSp-ul6b" d="m139 91-4 2c1.465 0 4 .109 4-2Z"/><path fill="#AAA8A9" id="SEZ" d="m164 92-1 1 1-1Z"/><path fill="#A9AAA8" id="chpl" d="m183 92-3 2.5c-1.642 3.284-1.331 7.662-3 11l-10 11c-1.261 2.523.736 4.618 2.5 5.5 3.644 1.822 6.23-4.115 8-5 4.554-2.277 12.732-4.965 15.5-10.5 3.247-6.494-3.17-14.5-10-14.5ZM271 92l-3 1.5c-2.511 2.51-6 5.544-6 9 0 5.642 17.456 16.978 22.5 19.5 2.298 1.149 6.53-2.44 5.5-4.5-2.242-4.484-8.495-7.991-11-13-2.436-4.873-.736-12.5-8-12.5Z"/><path fill="#AAA8A9" id="SEZ" d="m292 92 1 1-1-1Z"/><path fill="#1C8064" id="SSp-ul6b" d="M131 94v1c1.465 0 4 .109 4-2l-4 1Z"/><path fill="#AAA8A9" id="SEZ" d="m162 93-2 1 2-1ZM306 102c0 1.473-1.952 1-3 1 0-5.86-8-8.611-8-10 3.821 0 11 4.94 11 9ZM160 94l-2 1 2-1Z"/><path fill="#1A7D63" id="SSp-un6b" d="M325 95c0 1.028 8.52 6 10 6 0-1.757-7.851-7-10-7v1ZM131 95l-4 2c1.465 0 4 .109 4-2Z"/><path fill="#AAA8A9" id="SEZ" d="M150 102c0 1.473 1.952 1 3 1 0-4.383 5-5.437 5-8-3.023 0-8 3.778-8 7Z"/><path fill="#1A7D63" id="SSp-un6b" d="M121 100v1c1.417 0 6-2.383 6-4l-6 3Z"/><path fill="#CBC8CC" id="df" d="M235 101h1c0-2.497 8.839-2 11-2 0-2.577-6.545-2-8.5-2-3.394 0-6.208.604-9 2-2.007 1.003-9.422-2-12.5-2-1.851 0-7-.867-7 2 9.135 0 15.948 2 25 2Z"/><path fill="#1A7E62" id="SSs1" d="M32 172h5c0-12.185 3.099-36.698 8-46.5 2.82-5.638 8-15.064 8-21.5 0-1.712-2.571-3-4-3-2.74 0-4.92 12.34-6 14.5-7.676 15.352-11 38.348-11 56.5Z"/><path fill="#1B7E64" id="SSp-n6b" d="M121 101c-1.664 0-6 1.823-6 4 1.417 0 6-2.383 6-4Z"/><path fill="#96A7D2" id="TRS" d="M216 107c2.526 0 5.577 2 9 2h11.5l4.5-2c2.765 0 6.127-4.186 2.5-6H235c0 2.064-3.353.426-4.5 1-5.158 2.579-11.49-3.755-17-1-3.794 1.897-1.439 6 2.5 6Z"/><path fill="#1B7E64" id="SSp-n6b" d="m337 101 8 6.5c5.407 5.407 20 17.566 20 24.5-4.508 0-5.979-11.24-9.5-13-4.53-2.265-14.484-11.469-16.5-15.5-.694-1.388-4 .23-4-2.5h2Z"/><path fill="#1A7E62" id="SSs1" d="M419 172h5c0-17.908-2.449-40.399-10-55.5-1.117-2.233-4.774-15.5-7-15.5l-4 2v1l9 23.5c4.932 9.864 7 32.15 7 44.5Z"/><path fill="#98D5F9" id="CP" d="m123 233-9 1c-4.06 0-7.303-3-11-3-3.297 0-7.85-10.199-9-12.5-8.466-16.933-15-23.472-15-44.5 0-23.462 32.409-60.454 53.5-71 4.448-2.224 12.233-1 17.5-1 0 1.473 1.952 1 3 1l10 13.5c2.458 4.915 2 10.546 2 16.5v4c-1.473 0-1 1.952-1 3l-1 1v1l-1 1-2 1c-3.724 0-10.349-4.576-13.5-3-5.194 2.597-3.5 13.908-3.5 19-2.56 0-6.053 8.606-7 10.5-2.627 5.255-8.317 29.366-5 36 1.112 2.225 2 4.846 2 7.5v11l-1 1-3 3-1 1-4 2-1 1ZM349 233h1l2-1 1-1c4.448 0 11.791-19 14-19 0-1.937 1.553-8 4-8 0-1.424.362-5 2-5 0-1.465-.109-4 2-4 0-1.424.362-5 2-5l1-16c0-6.397-4.283-13.066-7-18.5-12.215-24.43-25.529-41.014-50.5-53.5H306c0 1.473-1.952 1-3 1l-8 11.5c-3.037 6.074-4 10.03-4 17.5v2l1 1v4c1.473 0 1 1.952 1 3l1 1 3 1c3.255 0 10.053-4.224 12.5-3 4.533 2.266 4.5 14.78 4.5 19 1.91 0 5.187 7.874 6 9.5 2.942 5.884 8.771 31.459 5 39-1.07 2.14-2 3.887-2 6.5v9.5l4 4.5 4 2 1 1c3.378 0 6.922 2 11 2l6-1Z"/><path fill="#1B8063" id="SSs2/3" d="M37 173h8c0-10.152 5.989-37.477 10-45.5 2.143-4.287 7-12.757 7-17.5v-1l-8-5h-1c0 6.436-5.18 15.862-8 21.5-4.901 9.802-8 34.315-8 46.5v1ZM412 173h7v-1c0-12.35-2.068-34.636-7-44.5l-9-23.5c-1.505 0-8 4.197-8 6 0 5.428 3.675 11.85 6 16.5 3.84 7.68 11 37.212 11 46.5Z"/><path fill="#1B7E64" id="SSp-n6b" d="M115 105c-1.747 0-2 .253-2 2 1.747 0 2-.253 2-2Z"/><path fill="#CBC8CB" id="fi" d="M192 135c-5.474 0-27 15.459-27 2v-4c3.272 0 8.596-7.692 10-10.5 4-8 24-5.727 24-17.5 2.613 0 15 2.928 15 6 0 5.92-7 10.167-7 16l-5 3-10 5ZM292 135v4c-2.741 0-4.714 5.893-8.5 4-6.4-3.2-21.775-12-28.5-12l-5-4c0-5.274-7-9.17-7-15 0-4.228 9.761-7 14-7 1.154 0 2.386 5.943 4.5 7 5.219 2.61 10.823 4.411 16 7 4.911 2.455 7.602 13 13.5 13v2l1 1Z"/><path fill="#1B7E64" id="SSp-n6b" d="M113 107c-1.747 0-2 .253-2 2l2-2Z"/><path fill="#8FCBEC" id="SF" d="M215 111c0 6.451 15.195 4 20.5 4 1.871 0 6.5-.458 6.5-3l-1-5-4.5 2H225c-3.423 0-6.474-2-9-2l-1 4Z"/><path fill="#1B7E64" id="SSp-n6b" d="M111 109c-1.747 0-2 .253-2 2 1.747 0 2-.253 2-2Z"/><path fill="#187C63" id="SSs4" d="M45 173h5c0-8.984 8.03-37.559 12-45.5 1.12-2.24 3.685-12.5 7-12.5v-1c-3.613 0-3.9-4-7-4 0 4.743-4.857 13.213-7 17.5-4.011 8.023-10 35.348-10 45.5ZM406 173h6c0-9.288-7.16-38.82-11-46.5-2.325-4.65-6-11.072-6-16.5h-1l-6 4v1c2.941 0 5.88 12.26 7 14.5 4.908 9.816 11 32.046 11 43.5Z"/><path fill="#1B7E64" id="SSp-n6b" d="M109 111c-1.747 0-2 .253-2 2l2-2Z"/><path fill="#C8C9C9" id="vhc" d="m246 126 4 1c0-5.274-7-9.17-7-15h-1c0 2.542-4.629 3-6.5 3-5.305 0-20.5 2.451-20.5-4h-1c0 5.92-7 10.167-7 16l3-1c0-1.165 5.511-3 7-3 4.467 0 29-1.409 29 3Z"/><path fill="#1B7E64" id="SSp-n6b" d="M107 113c-1.747 0-2 .253-2 2 1.747 0 2-.253 2-2Z"/><path fill="#1C8063" id="SSs5" d="m50 173 13 1c0-11.222 3.343-29.187 8-38.5l6-13.5v-1l-8-6c-3.315 0-5.88 10.26-7 12.5-3.97 7.941-12 36.516-12 45.5Z"/><path fill="#1B7E64" id="SSp-n6b" d="M105 115c-1.747 0-2 .253-2 2 1.747 0 2-.253 2-2Z"/><path fill="#1C8063" id="SSs5" d="m406 173-13 1c0-13.205-2.482-28.464-8-39.5l-6-12.5v-1c3.282 0 5.014-6 9-6 2.941 0 5.88 12.26 7 14.5 4.908 9.816 11 32.046 11 43.5Z"/><path fill="#1B7E64" id="SSp-n6b" d="M103 117c-2.226 0-4 1.774-4 4l4-4ZM99 121c-1.747 0-2 .253-2 2 1.747 0 2-.253 2-2Z"/><path fill="#197D63" id="SSs6a" d="m63 174 13 1c0-1.931 1.15-12 3-12 0-3.776 4.706-22 8-22 0-1.85 1.784-9 4-9v-1c-4.294 0-8.97-9-14-9l-6 13.5c-4.657 9.313-8 27.278-8 38.5ZM393 174l-12 1c0-6.794-4.995-23.491-8-29.5-1.783-3.567-7-9.495-7-13.5 0-1.779 11.241-10 13-10l6 12.5c5.518 11.036 8 26.295 8 39.5Z"/><path fill="#1B7E64" id="SSp-n6b" d="M97 123c-2.109 0-2 2.535-2 4l2-4Z"/><path fill="#A8A9AA" id="V3" fill-rule="evenodd" d="m240 135-2 2.5c0 7.348 12.214.857 5.5-2.5H240m-27 0c0 1.602-3.058 2.384-2 4.5 2.375 4.749 12.798-4.5 2-4.5m28 14h3l11-10v-8l-5-4-4-1c-4.992 0-10-3.473-10 4 0 11.87-15 13.115-15-1 0-6.256-7.621-3-11-3l-3 1-5 3c0 1.235.643 5-1 5l1 4 7.5 8c1.158.579 3.5-.341 3.5 2h2c3.657 0 9.483 3 13.5 3 3.608 0 9.338-3 12.5-3Z"/><path fill="#1B7E64" id="SSp-n6b" d="M91 132v1l3-2 1-2v-2l-4 4v1Z"/><path fill="#C9C9CA" id="scwm" d="m95 129-1 2 1-2Z"/><path fill="#FF5347" id="SFO" d="M221 129c4.933 0 10.73 1 15 1 0 11.87-15 13.115-15-1Z"/><path fill="#C9C9CA" id="scwm" d="m91 133-2 7c1.273 0 5-7.423 5-9l-3 2Z"/><path fill="#1A8061" id="SSs6b" d="m89 140-2 1c0-1.85 1.784-9 4-9v1l-2 7ZM379 175h2c0-6.794-4.995-23.491-8-29.5-1.783-3.567-7-9.495-7-13.5h-1l8 19v1c1.577 0 2 1.762 2 3v3l1 1 3 15v1Z"/><path fill="#A8AAAA" id="VL" d="m291 134 1 1-1-1Z"/><path fill="#FF8F9E" id="AD" d="M202 164h1l1-3c-1.579 0-1-2.855-1-4v-2l-1-1v-15l-1-4h-9l-3 3v2l13 24Z"/><path fill="#A9AAA8" id="chpl" d="M213 135c0 1.602-3.058 2.384-2 4.5 2.375 4.749 12.798-4.5 2-4.5ZM240 135l-2 2.5c0 7.348 12.214.857 5.5-2.5H240Z"/><path fill="#FF8F9E" id="AD" d="M253 164h1c0-5.534 13-17.458 13-24v-3l-2.5-2H255v4c0 5.356-1 11.266-1 16l-1 2v7Z"/><path fill="#FF6F80" id="TH" d="m269 139-2 1v-3l2 2ZM187 139l2 1v-2l-2 1ZM187 139c-1.048 0-3-.473-3 1 1.048 0 3 .473 3-1Z"/><path fill="#FD909E" id="AV" d="M181 171c3.004 0 1.483 6 4 6 2.791 0 3.343-8 8-8 0-1.327 7.75-5 9-5l-13-24-2-1c0 1.473-1.952 1-3 1-4.444 0-6.98 4-11 4v5l4 10 1 2v1l1 1v2c1.638 0 2 3.576 2 5v1Z"/><path fill="#CCC9C8" id="sm" d="m203 157 4 1c1.26 0 5-4.768 5-6l1-1v-2c0-2.341-2.342-1.421-3.5-2l-7.5-8v15l1 1v2ZM249 158h4v-1l1-2c0-4.734 1-10.644 1-16l-11 10v2c0 1.463 3.486 7 5 7Z"/><path fill="#FD909E" id="AV" d="m273 176-1 1c-3.479 0-3.78-8-8-8l-10-5c0-5.534 13-17.458 13-24l2-1h1l2 1c4.193 0 7.454 4 11 4l1 4v1l-1 1-1 3-1 1-1 3-1 1v3l-1 1v1l-1 2v1c-1.473 0-1 1.952-1 3l-1 2c-1.473 0-1 1.952-1 3l-1 2Z"/><path fill="#FF6F80" id="TH" d="m270 139 2 1-2-1Z"/><path fill="#C9C9CA" id="scwm" d="m87 141-2 6c1.948 0 4-5.428 4-7l-2 1Z"/><path fill="#97D6F9" id="STR" d="m164 140-1 1 1-1Z"/><path fill="#1A8061" id="SSs6b" d="M81 157c0 1.357-.647 6-2 6 0-3.776 4.706-22 8-22l-2 6v1l-1 2-1 2v1l-1 2-1 2Z"/><path fill="#97D6F9" id="STR" d="m143 160 1 1c0-2.656 3.034-19 5.5-19l3.5 5h4l3-3c-3.724 0-10.349-4.576-13.5-3-5.194 2.597-3.5 13.908-3.5 19ZM314 160l-2 1c0-5.754-.605-12.71-3-17.5-1.624-3.248-5 1.78-5 3.5h-5c0-2.215-2-1.519-2-3 3.255 0 10.053-4.224 12.5-3 4.533 2.266 4.5 14.78 4.5 19Z"/><path fill="#CCC" d="M144 161c5.593 0 17 24.916 17 30 2.124 0 4.017 12.742 7.5 11 2.939-1.47 1.489-7.522.5-9.5-3.943-7.885-6.815-17.63-11-26-1.211-2.421-3.832-9.5 1-9.5 0-4.335-6-5.964-6-10l-3.5-5c-2.466 0-5.5 16.344-5.5 19Z"/><path fill="#CAC7CB" id="fiber tracts" d="m169 147-1 3c-2.608 0-1.918-7-6-7l1-1c2.8 0 6 1.875 6 5ZM287 147l2 2c2.432 0 1.646-6 5-6l-1-1c-2.9 0-4.569 4-6 4v1Z"/><path fill="#C8CBC7" id="st" d="M168 150c0 2.097-1 5.293-1 8-4.873 0-10-6.269-10-11l3-3 2-1c4.082 0 3.392 7 6 7ZM289 149v9c5.25 0 10-6.038 10-11 0-2.215-2-1.519-2-3l-3-1c-3.354 0-2.568 6-5 6Z"/><path fill="#CCC" d="M295 191v1c-2.486 0-2.952 12.274-7.5 10-3.265-1.633-.5-7.224-.5-9.5 0-8.587 8.296-18.591 12-26 1.285-2.571 1.94-9.5-2-9.5 0-3.928 7-6.566 7-10 0-1.72 3.376-6.748 5-3.5 2.395 4.79 3 11.746 3 17.5-4.963 0-16 23.372-16 28l-1 2Z"/><path fill="#FF6F80" id="TH" d="m170 147 3 2v-5l-3 3ZM287 147l-3 1-1-4 4 2v1Z"/><path fill="#CAC7CB" id="fiber tracts" d="M167 158c0 2.773-4 3.67-4 6-2.232 0-.316-7-4-7 0-4.335-6-5.964-6-10h4c0 4.731 5.127 11 10 11Z"/><path fill="#FD8F9F" id="RT" d="M187 203c2.065 0 16-5.38 16 1 8.347 0-2-8.354-2-9-4.226 0-7.381-6-11-6l-1-1-3-5-1-1v-2c-1.289 0-4-7.597-4-9v-1c-1.638 0-2-3.576-2-5v-2l-1-1v-1l-1-2-4-10-3-2h-1l-1 3c0 2.097-1 5.293-1 8 0 2.773-4 3.67-4 6 0 6.222 9.501 37.501 14.5 40h7.5l1-1h1ZM269 203h1c3.722 0 6.656 1.922 10.5 0 3.392-1.696 3.083-8.666 4.5-11.5 3.464-6.928 9-18.516 9-26.5l-5-7v-9l-2-2-3 1v1l-1 1-1 3-1 1-1 3-1 1v3l-1 1v1l-1 2v1c0 1.048.473 3-1 3l-1 2c0 1.048.473 3-1 3l-1 2c0 1.048.473 3-1 3v1l-1 1-3 6-1 1-2 2-1 1h-1l-1 1-7 3c0 1.844-9.75 9-2 9l1-1c2.762 0 6.755-3.873 10.5-2l4.5 2Z"/><path fill="#CAC7CB" id="fiber tracts" d="m289 158 5 7c0-1.968.361-8 3-8 0-3.928 7-6.566 7-10h-5c0 4.962-4.75 11-10 11Z"/><path fill="#C9C9CA" id="scwm" d="m85 148-1 2 1-2Z"/><path fill="#FF6F80" id="TH" d="M213 151h2v-2h-2v2Z"/><path fill="#FE8F9E" id="PVT" d="M222 194h12l1-1c0-4.536-4.608-12.283-2-17.5 2.111-4.223 4-10.552 4-15.5 0-3.379 5-5.61 5-9l-1-2c-3.162 0-8.892 3-12.5 3-4.017 0-9.843-3-13.5-3v2l4 9c0 4.25 2.173 9.846 4 13.5 2.337 4.674-1 14.111-1 18.5v2Z"/><path fill="#FF6F80" id="TH" d="M242 151h2v-2h-3l1 2ZM284 149l-1 1 1-1Z"/><path fill="#C9C9CA" id="scwm" d="m84 150-1 2 1-2Z"/><path fill="#FF6F80" id="TH" d="m213 151-1 1 1-1Z"/><path fill="#FD909D" id="MD" d="M207 161v1c3.713 0 8.287-2 12-2l-4-9h-2l-1 1c0 1.232-3.74 6-5 6v3ZM249 161v2c-4.569 0-7.814-3-12-3 0-3.379 5-5.61 5-9h2c0 1.463 3.486 7 5 7v3Z"/><path fill="#C9C9CA" id="scwm" d="M373 152c1.577 0 2 1.762 2 3l-2-3ZM83 153l-1 2 1-2Z"/><path fill="#FF6F80" id="TH" d="m282 153-1 1 1-1ZM202 154l1 1-1-1Z"/><path fill="#C9C9CA" id="scwm" d="m82 155-1 2 1-2Z"/><path fill="#FF6F80" id="TH" d="m254 155-1 2 1-2Z"/><path fill="#8599CC" id="PAL" d="M168 227c0 1.048.473 3-1 3 0-9.659-3.537-13.481-12.5-9-3.099 1.55-7.875.437-11 2l-2.5 2c-2.171 0-6-7.276-6-9 2.202 0 14.145 5.678 19.5 3 10.567-5.283 6.5-18.47 6.5-28 2.124 0 4.017 12.742 7.5 11 2.939-1.47 1.489-7.522.5-9.5-3.943-7.885-6.815-17.63-11-26-1.211-2.421-3.832-9.5 1-9.5 3.684 0 1.768 7 4 7 0 6.222 9.501 37.501 14.5 40h7.5v1c-3.292 0-11 6.54-11 10l-1 1c-1.577 0-2 1.762-2 3l-2 4v3l-1 1Z"/><path fill="#FF6F80" id="TH" d="M204 161c0-2.373 2.284 0 3 0v-3l-4-1c0 1.145-.579 4 1 4ZM280 157l-1 1 1-1Z"/><path fill="#8599CC" id="PAL" d="M315 226c0-5.2-10.799-3.649-13.5-5-7.707-3.854-12.5-1.128-12.5 8-1.579 0-1-2.855-1-4l-1-1v-1c0-5.543-10.899-19-17-19v-1c3.722 0 6.656 1.922 10.5 0 3.392-1.696 3.083-8.666 4.5-11.5 3.464-6.928 9-18.516 9-26.5 0-1.968.361-8 3-8 3.94 0 3.285 6.929 2 9.5-3.704 7.409-12 17.413-12 26 0 2.276-2.765 7.867.5 9.5 4.548 2.274 5.014-10 7.5-10 0 9.909-2.413 22.043 7.5 27 5.485 2.742 13.953-2 18.5-2 0 1.654-4.228 9-6 9Z"/><path fill="#FF6F80" id="TH" d="M253 160c-2.349 0-1.382 1-4 1v-3h4v2Z"/><path fill="#C9C9CA" id="scwm" d="m375 158 1 1-1-1Z"/><path fill="#FF6F80" id="TH" d="m177 159 1 2-1-2Z"/><path fill="#FC8E9F" id="IAD" d="M246 191h1c0-3.766-1.976-8.549 0-12.5l6-14.5v-4c-2.349 0-1.382 1-4 1v2l-5 18.5 2 9.5Z"/><path fill="#8598CC" id="GPe" d="m133 214 2 2c2.202 0 14.145 5.678 19.5 3 10.567-5.283 6.5-18.47 6.5-28 0-5.084-11.407-30-17-30l-1-1c-2.56 0-6.053 8.606-7 10.5-2.627 5.255-8.317 29.366-5 36 1.112 2.225 2 4.846 2 7.5Z"/><path fill="#FC8E9F" id="IAD" d="M209 191h1c0-3.057 3.724-8.052 2-11.5l-5-17.5v-1c-.716 0-3-2.373-3 0l-1 3c0 2.976 4.588 9.675 6 12.5 2.223 4.446 0 10.181 0 14.5Z"/><path fill="#FF909F" id="PT" d="M212 194h8l2-2c0-4.389 3.337-13.826 1-18.5-1.827-3.654-4-9.25-4-13.5-3.713 0-8.287 2-12 2l5 17.5c1.724 3.448-2 8.443-2 11.5l2 3ZM237 194h7l2-3-2-9.5 5-18.5c-4.569 0-7.814-3-12-3 0 4.948-1.889 11.277-4 15.5-2.608 5.217 2 12.964 2 17.5l2 1Z"/><path fill="#8598CC" id="GPe" d="M322 215h1c0-2.613.93-4.36 2-6.5 3.771-7.541-2.058-33.116-5-39-.813-1.626-4.09-9.5-6-9.5l-2 1c-4.963 0-16 23.372-16 28l-1 2v1c0 9.909-2.413 22.043 7.5 27 5.485 2.742 13.953-2 18.5-2l1-2Z"/><path fill="#FF6F80" id="TH" d="m279 161-1 1 1-1ZM178 162l1 1-1-1Z"/><path fill="#1A8061" id="SSs6b" d="M76 175h1l1-2 1-10c-1.85 0-3 10.069-3 12Z"/><path fill="#FF6F80" id="TH" d="m278 163-1 2 1-2Z"/><path fill="#FD8D9F" id="AMd" d="m208 192-5 1c0-1.357-10-16.772-10-24 0-1.327 7.75-5 9-5h1c0 2.976 4.588 9.675 6 12.5 2.223 4.446 0 10.181 0 14.5l-1 1ZM247 191c2.583 0 3.934 2 7 2 0-3.344 10-17.702 10-24l-10-5h-1l-6 14.5c-1.976 3.951 0 8.734 0 12.5Z"/><path fill="#FF6F80" id="TH" d="M179 165c1.638 0 2 3.576 2 5-1.638 0-2-3.576-2-5ZM277 166c-1.473 0-1 1.952-1 3 1.473 0 1-1.952 1-3Z"/><path fill="#FC909D" id="AMv" d="m203 193-2 2c-4.226 0-7.381-6-11-6l-1-1-3-5-1-1v-5c2.791 0 3.343-8 8-8 0 7.228 10 22.643 10 24ZM254 193l1 2 7-3 1-1h1l1-1 2-2 1-1 3-6 1-1v-3c-3.479 0-3.78-8-8-8 0 6.298-10 20.656-10 24Z"/><path fill="#FF6F80" id="TH" d="m276 169-1 2 1-2ZM185 177v3c-1.289 0-4-7.597-4-9 3.004 0 1.483 6 4 6ZM275 171c-1.473 0-1 1.952-1 3 1.473 0 1-1.952 1-3Z"/><path fill="#12AD83" id="VISC1" d="M42 198c-.67 0-5 1.328-5 2-1.59 0-1.443-4.386-2-5.5-3.055-6.111-3-15.229-3-22.5h5v12.5l5 13.5ZM415 198c0 .672 4.329 2 5 2 0-2.37 1.965-5.431 3-7.5l1-20.5h-5v14.5l-4 11.5Z"/><path fill="#12AC83" id="VISC2/3" d="M51 195c0 .706-7.895 3-9 3l-5-13.5V173h8c0 4.081 2.948 22 6 22Z"/><path fill="#11AC82" id="VISC4" d="M51 195h2l-3-8.5c-2.005-4.011 0-9.256 0-13.5h-5c0 4.081 2.948 22 6 22Z"/><path fill="#12AD82" id="VISC5" d="m66 193-13 2-3-8.5c-2.005-4.011 0-9.256 0-13.5l13 1c0 7.354 3 15.29 3 19Z"/><path fill="#C8CBCC" id="ec" d="m107 238 4 1c0-1.71 4.078-.344 3-2.5l-11-5.5c-3.297 0-7.85-10.199-9-12.5-8.466-16.933-15-23.472-15-44.5l-1-1-1 2c0 5.345 2 10.613 2 15v1l1 2 3 8 1 1v1l2 4 10 19 1 1v1c1.577 0 2 1.762 2 3h1l1 1v1l3 3 3 2Z"/><path fill="#12AD82" id="VISC5" d="M403 195h1l3-10.5c1.592-3.184-1-8.819-1-11.5l-13 1c0 6.801-2 13.125-2 19l12 2Z"/><path fill="#11AC82" id="VISC4" d="M404 195h2c0-5.575 6-13.485 6-22h-6c0 2.681 2.592 8.316 1 11.5l-3 10.5Z"/><path fill="#12AC83" id="VISC2/3" d="M414 198h1l4-11.5V173h-7c0 8.515-6 16.425-6 22 0 .951 6.869 3 8 3Z"/><path fill="#11AC83" id="VISC6a" d="M77 191c-3.695 0-6.865 2-11 2 0-3.71-3-11.646-3-19l13 1 1 16Z"/><path fill="#FF6F80" id="TH" d="m274 174-1 2 1-2Z"/><path fill="#C8CBCC" id="ec" d="M377 190h1c0-1.048-.473-3 1-3v-13h-1l-1 16Z"/><path fill="#11AC83" id="VISC6a" d="M390 193h1c0-5.875 2-12.199 2-19l-12 1c0 1.712-.768 12-2 12v4c3.982 0 6.704 2 11 2Z"/><path fill="#11AD82" id="VISC6b" d="M77 191h1l1-1c0-4.387-2-9.655-2-15h-1l1 16ZM381 175c0 1.712-.768 12-2 12v-12h2Z"/><path fill="#FF6F80" id="TH" d="M272 177v2c1.473 0 1-1.952 1-3l-1 1ZM272 180l-1 1 1-1ZM185 182l1 1-1-1ZM268 187l-1 1 1-1Z"/><path fill="#11AD82" id="VISC6b" d="M378 190h1v-3c-1.473 0-1 1.952-1 3Z"/><path fill="#FF6F80" id="TH" d="m189 188 1 1-1-1Z"/><path fill="#8599CC" id="PAL" d="m296 189-1 2 1-2Z"/><path fill="#019C74" id="GU6b" d="M78 191h1v-1l-1 1Z"/><path fill="#FF6F80" id="TH" d="m265 190-1 1 1-1Z"/><path fill="#C8CBCC" id="ec" d="m377 192-2 3c0-1.424.362-5 2-5v2Z"/><path fill="#219666" id="AIp6b" d="M377 192h1v-2h-1v2Z"/><path fill="#019C74" id="GU6b" d="M378 191h1v-1h-1v1Z"/><path fill="#209766" id="AIp6a" d="M76 213h1c0-4.246 5-4.746 5-7-7.832 0-6.657-14-4-14v-1h-1c-3.695 0-6.865 2-11 2l9 20h1Z"/><path fill="#219666" id="AIp6b" d="m78 192 2 1-1-2h-1v1Z"/><path fill="#FC8E9F" id="IAD" d="m209 191-1 1 1-1Z"/><path fill="#FF6F80" id="TH" d="M226 216h1v-1c-7.052 0-14.649-4.798-18-11.5-1.442-2.883-1.515-9.5 3-9.5l-2-3h-1l-1 1-5 1-2 2c0 .646 10.347 9 2 9v1l3 4c5.375 0 11.97 7 20 7ZM251 208c0 2.816-12.423 7-15 7l11-10.5c1.511-3.022 2.135-10.5-3-10.5l2-3h1c2.583 0 3.934 2 7 2l1 2c0 1.844-9.75 9-2 9v2l-1 1-1 1ZM263 191l-1 1 1-1Z"/><path fill="#209766" id="AIp6a" d="M380 213h1c0-6.679 9-13.034 9-20-4.296 0-7.018-2-11-2h-1v1c4.677 0 2.655 14-3 14 0 3.042 5 3.173 5 7Z"/><path fill="#8ADA86" id="CLA" d="m84 203-2 3c-7.832 0-6.657-14-4-14l2 1 3 8 1 1v1Z"/><path fill="#FF6F80" id="TH" d="M220 194h2v-2l-2 2Z"/><path fill="#8ADA86" id="CLA" d="M374 206h1c5.655 0 7.677-14 3-14h-1l-2 3-1 4-1 1v2l1 4Z"/><path fill="#219864" id="AIp5" d="m75 213-6 3c-3.194 0-16-17.519-16-21l13-2 9 20Z"/><path fill="#FF6F80" id="TH" d="M234 194h3l-2-1-1 1Z"/><path fill="#219864" id="AIp5" d="m381 213 7 3c2.345 0 15-18.185 15-21l-12-2h-1c0 6.966-9 13.321-9 20Z"/><path fill="#FD909F" id="RE" fill-rule="evenodd" d="M229 203c0 7.975 4.275 0 0 0m-3 0-1 1.5c-.689 1.377 4.342 4.683 2 0l-1-1.5m9 12h1l11-10.5c1.511-3.022 2.135-10.5-3-10.5h-32c-4.515 0-4.442 6.617-3 9.5 3.351 6.702 10.948 11.5 18 11.5h1c0-1.186 1-1.186 1 0h6Z"/><path fill="#209865" id="AIp2/3" d="M69 216c0 .767-9.54 4-11 4 0-4.104-16-14.469-16-22 1.105 0 9-2.294 9-3h2c0 3.481 12.806 21 16 21Z"/><path fill="#C8CBCC" id="ec" d="M373 199h1l1-4c-2.109 0-2 2.535-2 4Z"/><path fill="#209865" id="AIp2/3" d="M388 216c0 .801 8.763 4 10 4 0-4.175 16-13.708 16-22-1.131 0-8-2.049-8-3h-3c0 2.815-12.655 21-15 21Z"/><path fill="#219765" id="AIp1" d="M58 220c0 1.014-3.959 2-5 2 0-4.295-16-14.038-16-22 0-.672 4.33-2 5-2 0 7.531 16 17.896 16 22ZM398 220l5 2c0-3.47 17-15.007 17-22-.671 0-5-1.328-5-2h-1c0 8.292-16 17.825-16 22Z"/><path fill="#C8CBCC" id="ec" d="m373 202-2 2c0-1.424.362-5 2-5v3Z"/><path fill="#209766" id="AIp6a" d="m374 199-1 1v-1h1ZM83 201l1 1-1-1Z"/><path fill="#F0483B" id="ZI" d="M203 205v2c0 10.551-18-.594-18-2l1-1 1-1c2.065 0 16-5.38 16 1v1ZM253 206v1c0 8.849 16.846 1.808 18-.5l-1-2.5-1-1-4.5-2c-3.745-1.873-7.738 2-10.5 2l-1 1v2Z"/><path fill="#209766" id="AIp6a" d="M371 206h3l-1-4-2 2v2ZM82 206l4 1-2-4-2 3Z"/><path fill="#8599CC" id="PAL" d="M185 204h1v-1l-1 1Z"/><path fill="#FF6F80" id="TH" d="m187 203-1 1v-1h1Z"/><path fill="#FC8F9F" id="Xi" d="m226 203-1 1.5c-.689 1.377 4.342 4.683 2 0l-1-1.5ZM229 203c0 7.975 4.275 0 0 0Z"/><path fill="#FF6F80" id="TH" d="m254 203-1 1 1-1ZM270 203v1l-1-1h1Z"/><path fill="#E64438" id="HY" d="m186 204-1 1v-1h1Z"/><path fill="#E64438" id="HY" fill-rule="evenodd" d="M249 215c0 2.201-3.594 3.313-2 6.5l5.5 3.5c10.299 5.15 9.342-10-3.5-10m20-7-3 3.5c0 7.038 15.35 1.925 6.5-2.5l-3.5-1m-10 68h1l1-1h1c0-1.577 1.762-2 3-2l2-2c0-3.562 9-3.513 9-6-15.682 0-11.672-26.156-7-35.5 2.03-4.06 1.41-11.955 6.5-14.5 8.96-4.48 8.636 8 11.5 8 0-5.543-10.899-19-17-19l1 2.5c-1.154 2.308-18 9.349-18 .5h-1l-1 1c0 2.816-12.423 7-15 7h-1c0 1.566-5 1.566-5 0h-1v1c2.982 0 12.506-.489 14 2.5.422.845-9 16.201-9 19.5 3.708 0 4 6.02 4 9 1.951 0 .477-2.454 1-3.5l4-4.5c-10.013 0 3-12.06 3-2 8.006 0 14.519 2.539 18 9.5v9c.662 1.324 1.897 4.206 1 6l-4.5 7.5-5.5 3c4.387 0 3 1.319 3 4h1Z"/><path fill="#C8CBCC" id="ec" d="m371 206-4 6c0-1.937 1.553-8 4-8v2Z"/><path fill="#E64438" id="HY" fill-rule="evenodd" d="M201 215c0 3.038-6.576 5.347-4 10.5 2.429 4.858 19.12-5.69 9.5-10.5H201m-17-7c0 1.465-4.394 1.711-3 4.5 4.249 8.499 15.13-4.5 3-4.5m11 67 5 2c0-2.104-6.273-5 1-5l-8-6.5c-2.096-4.192-2.095-16.811 0-21 1.701-3.402 7.562-6.031 10.5-7.5 2.364-1.182 5.696 1 7.5 1l-1-3.5c3.086-6.171 12.171 4.5 4 4.5 0 2.117 4 4.428 4 7 2.058 0-.26-8 5-8 0-2.1-10-17.564-10-18.5 0-6.687 13-.056 13-3.5-8.03 0-14.625-7-20-7l-3-2c0 10.551-18-.594-18-2-3.292 0-11 6.54-11 10l5.5-1c7.529 3.765 11.5 26.053 11.5 34 0 5.516.097 14.201-5.5 17-3.728 1.864-20.385-9-22.5-9 0 2.647 6.927 15 9 15 0-12.358 17-2.58 17 0l5 4h1Z"/><path fill="#CAC7CB" id="fiber tracts" d="m203 207 3 2-3-4v2Z"/><path fill="#A0EE9C" id="EPd" d="M97 231c0 1.747-.253 2-2 2-2.66 0-11-4.59-11-8l-7-12c0-4.246 5-4.746 5-7l4 1 10 19 1 1v4Z"/><path fill="#CAC7CB" id="fiber tracts" d="M252 207h1v-1l-1 1Z"/><path fill="#A0EE9C" id="EPd" d="m367 231-5 2c-1.238 0-3-.423-3-2v-3l1-1v-1l1-1c0-4.508 6-8.127 6-13l4-6h4c0 3.042 5 3.173 5 7l-3 6c-1.577 0-2 1.762-2 3-.896 0-3.026 2-1 2v1h-1v1l-1 1-1 1-1 1h-1l-2 2Z"/><path fill="#CAC7CB" id="fiber tracts" d="m252 207-1 1 1-1Z"/><path fill="#CCC9C8" id="sm" d="M184 208c0 1.465-4.394 1.711-3 4.5 4.249 8.499 15.13-4.5 3-4.5ZM269 208l-3 3.5c0 7.038 15.35 1.925 6.5-2.5l-3.5-1Z"/><path fill="#C8CBCC" id="ec" d="M346 239h3l1-1 1-1 2-1 2-3 1-1 1-1v-1l2-2 1-1v-1l1-1c0-4.508 6-8.127 6-13-2.209 0-9.552 19-14 19l-1 1-2 1h-1l-6 3c0 1.477-.095 3 3 3Z"/><path fill="#6ACAB9" id="PIR" d="M114 274c0 6.354-12 20.985-12 23-5.248 0-10.907-7.314-13-11.5l-8-12c-4.92-9.838-9.058-20.116-14-30-2.019-4.038-14-18.394-14-21.5 1.041 0 5-.986 5-2 1.46 0 11-3.233 11-4l6-3h1l4 9 1 1 2 3c0 1.699 8.28 11 9 11 0 6.082 21 25.823 21 30l2 6-1 1Z"/><path fill="#C9C8CA" id="ee" d="m81 223 3 2-7-12h-1l4 9 1 1ZM381 213c0 1.178-2.572 6-4 6l3-6h1Z"/><path fill="#6ACAB9" id="PIR" d="M342 273c0 5.334 4.681 12.861 7 17.5l6 6.5c5.386 0 9.721-8.221 13-11.5 6.547-6.547 18.521-35.042 23-44l12-19.5-5-2c-1.237 0-10-3.199-10-4l-7-3c0 1.178-2.572 6-4 6v2l-1 1-1 1v1l-1 1-1 1-1 1-1 1v1l-2 2c0 1.747-.253 2-2 2 0 1.238-.423 3-2 3v1l-17 23.5-5 6.5-1 6Z"/><path fill="#97D6F9" id="STR" d="M141 227c-4.043 0-5.395 6-8 6 0-.981 2.681-8 0-8v-11l2 2c0 1.724 3.829 9 6 9v2Z"/><path fill="#F2483A" id="LHA" d="M164 242c0 4.351-1 9.131-1 14 2.115 0 18.772 10.864 22.5 9 5.597-2.799 5.5-11.484 5.5-17 0-7.947-3.971-30.235-11.5-34l-5.5 1-1 1c0 1.238-.423 3-2 3 0 1.465.109 4-2 4v3l-1 1c0 1.048.473 3-1 3l-2 11-1 1ZM292 258c-1.992 0-16 5.88-16 7-15.682 0-11.672-26.156-7-35.5 2.03-4.06 1.41-11.955 6.5-14.5 8.96-4.48 8.636 8 11.5 8v1l1 1c0 1.145-.579 4 1 4 0 4.242 2 6.596 2 11l3 10.5-1 6.5-1 1Z"/><path fill="#E64438" id="HY" d="m174 215-1 1 1-1Z"/><path fill="#C7C8CA" id="fx" d="M201 215c0 3.038-6.576 5.347-4 10.5 2.429 4.858 19.12-5.69 9.5-10.5H201Z"/><path fill="#E64438" id="HY" d="M227 216c0 1.399 2 1.399 2 0l-1-1h-1v1Z"/><path fill="#FF6F80" id="TH" d="M230 215h5c0 1.566-5 1.566-5 0Z"/><path fill="#C7C8CA" id="fx" d="M249 215c0 2.201-3.594 3.313-2 6.5l5.5 3.5c10.299 5.15 9.342-10-3.5-10Z"/><path fill="#8599CC" id="PAL" d="m322 215-1 2 1-2Z"/><path fill="#97D6F9" id="STR" d="M328 253h6l7-2v-1c-8.75 0-13.704-8.908-17-15.5-.427-.854-2.447-9.5-1.5-9.5l4.5 4-4-4.5V215h-1l-1 2c0 1.654-4.228 9-6 9v1c4.347 0 10.542 6.416 8 11.5l-4 3.5c7.749 0 9 3.806 9 11Z"/><path fill="#E64438" id="HY" d="M173 216c-1.577 0-2 1.762-2 3 1.577 0 2-1.762 2-3Z"/><path fill="#FF5D4F" id="PVH" d="M227 239v-15.5c0-1.054-.338-4.5 1.5-4.5l.5 20 3-1h2c0-3.299 9.422-18.655 9-19.5-1.494-2.989-11.018-2.5-14-2.5 0 1.399-2 1.399-2 0h-1c0 3.444-13-3.187-13 3.5 0 .936 10 16.4 10 18.5h1l3 1Z"/><path fill="#A2B1D7" id="SI" d="M148 242c3.494 0 7.605 5.448 12.5 3l3.5-3 1-1 2-11c0-9.659-3.537-13.481-12.5-9-3.099 1.55-7.875.437-11 2l-2.5 2v2c5.242 0 6 7.999 6 12l1 3Z"/><path fill="#E64438" id="HY" d="m171 219-2 4c2.109 0 2-2.535 2-4Z"/><path fill="#A8A9AA" id="V3" d="m227 239 .5 33c2.17 1.085 1.5-6.288 1.5-7.5V239l-.5-20c-1.838 0-1.5 3.446-1.5 4.5V239Z"/><path fill="#A2B1D7" id="SI" d="m308 242-1 1c-2.798 0-7.516 3.992-11.5 2l-4.5-5c0-4.404-2-6.758-2-11 0-9.128 4.793-11.854 12.5-8 2.701 1.351 13.5-.2 13.5 5v1l-1 1c-4.553 0-4 7.501-4 11l-1 2-1 1Z"/><path fill="#C9C8CA" id="ee" d="M375 222h1l1-1v-2c-1.577 0-2 1.762-2 3Z"/><path fill="#99D2BD" id="OLF" d="m377 221-1 1 1-1ZM80 222l1 1-1-1Z"/><path fill="#C9C8CA" id="ee" d="M374 224h1v-2c-.896 0-3.026 2-1 2Z"/><path fill="#8AD987" id="CTXsp" d="m376 222-1 1v-1h1ZM95 233l-3 3c0-1.626-7.125-10-9-10l-2-3 3 2c0 3.41 8.34 8 11 8Z"/><path fill="#E64438" id="HY" d="m287 224 1 1-1-1Z"/><path fill="#99D2BD" id="OLF" d="m375 224-1 1v-1h1Z"/><path fill="#97D6F9" id="STR" d="m133 225-1 1 1-1Z"/><path fill="#7ECDF8" id="FS" d="M114 250h1c4.881 0 11.544-3.588 14-8.5l4-7.5v-1c0-.981 2.681-8 0-8l-1 1-3 3-1 1-4 2-1 1-9 1c0 3.544 4.241 1.87 6.5 3 2.036 1.018 2.349 6-.5 6l-1 1c0 2.592-6-.592-6 2v1l1 3ZM341 250h1l1-1v-1l1-1v-1c-.706 0-6-1.325-6-2h-1c-1.518 0-4.286-5-2-5l1-1c0-1.663 5.407-2 7-2v-2c-4.078 0-7.622-2-11-2l-1-1-4-2-4.5-4c-.947 0 1.073 8.646 1.5 9.5 3.296 6.592 8.25 15.5 17 15.5Z"/><path fill="#8AD987" id="CTXsp" d="m361 225-1 1 1-1Z"/><path fill="#99D2BD" id="OLF" d="m374 225-1 1v-1h1ZM92 236v1c-.72 0-9-9.301-9-11 1.875 0 9 8.374 9 10Z"/><path fill="#8AD987" id="CTXsp" d="m96 226 1 1-1-1Z"/><path fill="#E64438" id="HY" d="m169 226-1 1 1-1Z"/><path fill="#8AD987" id="CTXsp" d="m373 226-1 1 1-1Z"/><path fill="#7FC0E0" id="CEAm" d="M137 242h8l2-3c0-4.001-.758-12-6-12-4.043 0-5.395 6-8 6v1c0 3.698 4 6.214 4 8Z"/><path fill="#97D6F9" id="STR" d="m315 227-1 1 1-1Z"/><path fill="#7FC0E0" id="CEAm" d="M312 242h7l4-3.5c2.542-5.084-3.653-11.5-8-11.5l-1 1c-4.553 0-4 7.501-4 11l2 3Z"/><path fill="#8AD987" id="CTXsp" d="m360 227-1 1 1-1ZM372 227l-1 1 1-1ZM97 231h2c0-1.238-.423-3-2-3v3ZM357 230l2 1v-3l-2 2ZM370 229h1v-1l-1 1Z"/><path fill="#97D6F9" id="STR" d="m129 229-1 1 1-1Z"/><path fill="#8AD987" id="CTXsp" d="M367 231h2v-2l-2 2Z"/><path fill="#99D2BD" id="OLF" d="m371 229-2 2v-2h2Z"/><path fill="#A0ED9D" id="EPv" d="m341 251-1 8.5c.611 1.222 3 6.481 3 7.5l5-6.5 17-23.5-1-1-2-3c-1.238 0-3-.423-3-2l-2-1v1l-1 1-1 1c0 1.048.473 3-1 3 0 2.409-2.359 6-5 6 0 .966-2.886 3-4 3l-1 2-1 1v1l-1 1-1 1ZM113 267h1l2-5.5c1.947-3.894-2-8.438-2-11.5l-1-3c-1.702 0-6-4.802-6-6-2.169 0-5-2.899-5-5l-1-3v-1l-1-1h-3c0 1.747-.253 2-2 2l-3 3v1c0 6.082 21 25.823 21 30Z"/><path fill="#8AD987" id="CTXsp" d="m100 231 1 1-1-1Z"/><path fill="#97D6F9" id="STR" d="M119 244c0 2.592-6-.592-6 2-2.273 0-2-5.226-2-7 0-1.71 4.078-.344 3-2.5l-11-5.5c3.697 0 6.94 3 11 3 0 3.544 4.241 1.87 6.5 3 2.036 1.018 2.349 6-.5 6l1-3.5c-3.52-7.04-12.3 4.5-2 4.5ZM331 231l1 1-1-1ZM353 231l-1 1 1-1Z"/><path fill="#8AD987" id="CTXsp" d="m357 231-1 1 1-1ZM364 236h1c0-1.238.423-3 2-3v-2l-5 2 2 3Z"/><path fill="#99D2BD" id="OLF" d="M369 231c0 1.747-.253 2-2 2v-2h2Z"/><path fill="#97D6F9" id="STR" d="m124 232-1 1 1-1ZM352 232l-2 1 2-1Z"/><path fill="#8AD987" id="CTXsp" d="m356 232-1 1 1-1ZM102 236h2l-3-3 1 3Z"/><path fill="#FD4C3E" id="MPN" d="m211 238 3 1c8.171 0-.914-10.671-4-4.5l1 3.5ZM246 237c0 1.577-1.762 2-3 2-10.013 0 3-12.06 3-2Z"/><path fill="#97D6F9" id="STR" d="M343 234v2l6-3-6 1Z"/><path fill="#8AD987" id="CTXsp" d="M353 236h1c1.473 0 1-1.952 1-3l-2 3Z"/><path fill="#99D2BD" id="OLF" d="M367 233c-1.577 0-2 1.762-2 3 1.577 0 2-1.762 2-3Z"/><path fill="#97D6F9" id="STR" d="M123 253h6c0-6.591.363-11 8-11 0-1.786-4-4.302-4-8l-4 7.5c-2.456 4.912-9.119 8.5-14 8.5 0 2.16 6.07 3 8 3Z"/><path fill="#80BEE2" id="IA" d="M107 238c0 .716 2.373 3 0 3-2.169 0-5-2.899-5-5h2l3 2Z"/><path fill="#97D6F9" id="STR" d="m345 245-1 1c-.706 0-6-1.325-6-2 4.275 0 5.506-7 2.5-7-.949 0-2.951 1-4.5 1 0-1.663 5.407-2 7-2 0 1.477-.095 3 3 3l-1 6Z"/><path fill="#80BEE2" id="IA" d="M349 239v3c2.641 0 5-3.591 5-6h-1l-2 1-1 1-1 1Z"/><path fill="#99D2BD" id="OLF" d="M365 236v1l-1-1h1Z"/><path fill="#C9C9C9" id="act" d="m120 243-1 1c-10.3 0-1.52-11.54 2-4.5l-1 3.5Z"/><path fill="#FF4B3E" id="AHN" d="m201 272 8 1 8-4 1-23c0-2.572-4-4.883-4-7l-3-1c-1.804 0-5.136-2.182-7.5-1-2.938 1.469-8.799 4.098-10.5 7.5-2.095 4.189-2.096 16.808 0 21l8 6.5ZM255 272l-8 1c0-.286-6.302-3-7-3 0-7.41-2-14.994-2-23 1.951 0 .477-2.454 1-3.5l4-4.5c1.238 0 3-.423 3-2 8.006 0 14.519 2.539 18 9.5v9c.662 1.324 1.897 4.206 1 6l-4.5 7.5-5.5 3Z"/><path fill="#C9C9C9" id="act" d="M337 244h1c4.275 0 5.506-7 2.5-7-.949 0-2.951 1-4.5 1l-1 1 2 5Z"/><path fill="#8AD987" id="CTXsp" d="m351 237-1 1 1-1ZM113 246v1c-1.702 0-6-4.802-6-6 2.373 0 0-2.284 0-3l4 1c0 1.774-.273 7 2 7Z"/><path fill="#FD5547" id="SBPV" d="M217 269v2l4.5-6 3.5 2c0-9.092-1-19.294-1-29h-1c-5.26 0-2.942 8-5 8l-1 23Z"/><path fill="#FF5D50" id="PVa" d="M227 277h2c0-3.395 2-6.106 2-10 0-8.675 1-18.684 1-28v-1l-3 1v25.5c0 1.212.67 8.585-1.5 7.5l-.5-33-3-1c0 9.706 1 19.908 1 29l2 10Z"/><path fill="#E64438" id="HY" d="m233 238-1 1v-1h1Z"/><path fill="#FD5547" id="SBPV" d="m240 270-1 1c0-7.857-5.144-4-8-4 0-8.675 1-18.684 1-28l1-1h1c3.708 0 4 6.02 4 9 0 8.006 2 15.59 2 23Z"/><path fill="#97D6F9" id="STR" d="m336 238-1 1 1-1ZM148 242l1 2-4-2 2-3 1 3ZM312 242c0 1.579-2.855 1-4 1v-1l1-1 1-2 2 3ZM335 239c-2.286 0 .482 5 2 5l-2-5Z"/><path fill="#8AD987" id="CTXsp" d="M349 242c0 .966-2.886 3-4 3l1-6h3v3Z"/><path fill="#8599CC" id="PAL" d="m290 272-2.5 3c-2.116 1.058-2.898-2-4.5-2l2-3c2.49 0 7-9.836 7-12l1-1 1-6.5-3-10.5 4.5 5c3.984 1.992 8.702-2 11.5-2v1l-3 6-6 9c-4.345 0-7 8.893-7 12l-1 1ZM165 241l-1 1 1-1ZM309 241l-1 1 1-1Z"/><path fill="#80C0E2" id="AAA" d="M141 261h4l6-1 1-1v-10l-3-5-4-2h-8c-7.637 0-8 4.409-8 11 0 3.421 7 4.489 7 7l4 1h1Z"/><path fill="#8599CC" id="PAL" d="m166 272 2.5 3c2.116 1.058 2.898-2 4.5-2l-1-2c-2.073 0-9-12.353-9-15 0-4.869 1-9.649 1-14l-3.5 3c-4.895 2.448-9.006-3-12.5-3l1 2 3 5 6 10 2 1 1 1c2.447 0 4 6.063 4 8 1.473 0 1 1.952 1 3ZM307 243h1v-1l-1 1Z"/><path fill="#80C0E2" id="AAA" d="M311 261h5l4-1 7-6 1-1c0-7.194-1.251-11-9-11h-7c0 1.579-2.855 1-4 1l-1 1-3 6c0 5.225-.844 11 7 11Z"/><path fill="#97D6F9" id="STR" d="m120 243-1 1 1-1ZM308 243l-1 1v-1h1Z"/><path fill="#8AD987" id="CTXsp" d="M344 246v1l1-2-1 1ZM344 247l-1 1 1-1Z"/><path fill="#97D6F9" id="STR" d="M152 259h6l-6-10v10Z"/><path fill="#8AD987" id="CTXsp" d="m343 249-1 1 1-1ZM114 267c1.947 0 2.636 3 5 3 0-2.762-3.873-6.755-2-10.5l6-6.5c-1.93 0-8-.84-8-3h-1c0 3.062 3.947 7.606 2 11.5l-2 5.5Z"/><path fill="#97D6F9" id="STR" d="m311 261-4 3-2.5-5H298l6-9c0 5.225-.844 11 7 11Z"/><path fill="#8AD987" id="CTXsp" d="m342 250-1 1v-1h1ZM343 267l-6 4c0-3.261 4.119-8.263 2-12.5l-5-5.5 7-2-1 8.5c.611 1.222 3 6.481 3 7.5Z"/><path fill="#84EA80" id="BMAa" d="m125 272-1 1c-1.238 0-5-1.923-5-3 0-2.762-3.873-6.755-2-10.5l6-6.5h6c0 3.421 7 4.489 7 7l1 3-1 1-2 5-3 2c-2.124 0-4.436 1-6 1Z"/><path fill="#97D6F9" id="STR" d="m328 253-1 1 1-1Z"/><path fill="#84EA80" id="BMAa" d="M337 271c-2.275 0-3.514 1-6 1-1.564 0-3.876-1-6-1l-3-2-2-6v-3l7-6 1-1h6l5 5.5c2.119 4.237-2 9.239-2 12.5Z"/><path fill="#E64438" id="HY" d="m293 257-1 1 1-1ZM276 265c4.144 0 9-.398 9 5 2.49 0 7-9.836 7-12-1.992 0-16 5.88-16 7Z"/><path fill="#97D6F9" id="STR" d="m152 259-1 1 1-1Z"/><path fill="#80BFE1" id="MEA" d="m160 282-5 2-1-9-1-6-3-5 1-4 1-1h6l2 1 1 1c2.447 0 4 6.063 4 8v8l-5 5ZM297 282c0 2.079 4.47 1 5 1 0-1.49-.735-8 1-8 0-1.321-.684-6 1-6 0-2.554 3-3.688 3-5l-2.5-5H298c-4.345 0-7 8.893-7 12 0 6.036 6 9.586 6 11Z"/><path fill="#97D6F9" id="STR" d="M137 263h1l1-1h1v-1l-4-1 1 3ZM145 261l5 3 1-4-6 1ZM160 260l1 1-1-1ZM319 263h1v-3l-4 1 2 1 1 1Z"/><path fill="#99D2BD" id="OLF" d="m141 261-1 1v-1h1Z"/><path fill="#94E4C7" id="NLOT3" d="M153 269c-3.606 0-9.619-1.941-13.5 0l-5.5 3v-3l2-5 1-1h1l1-1h1l1-1h4l5 3 3 5ZM323 271v3c-.652 0-2.095-3.297-3.5-4-4.625-2.312-11.066-1-15.5-1 0-2.554 3-3.688 3-5l4-3h5l2 1 1 1h1l2 6 1 2Z"/><path fill="#99D2BD" id="OLF" d="m139 262-1 1 1-1ZM318 262l1 1-1-1ZM137 263l-1 1 1-1Z"/><path fill="#FE5B50" id="SO" d="M174 273h1c0-3.118 11.531-2 14-2 0-2.58-17-12.358-17 0l1 2h1Z"/><path fill="#FF5545" id="SCH" d="M219 281h6l2-2v-2l-2-10-3.5-2-4.5 6-2 5.5 4 4.5ZM231 281h6l2-1 2-2.5c1.278-2.555-2-4.516-2-6.5 0-7.857-5.144-4-8-4 0 3.894-2 6.605-2 10l2 4Z"/><path fill="#FE5B50" id="SO" d="M267 271h11.5l4.5 2 2-3c0-5.398-4.856-5-9-5 0 2.487-9 2.438-9 6Z"/><path fill="#99D2BD" id="OLF" d="m124 273-2 3c0-3.348-4.824-3-7-3l-2-6h1c1.947 0 2.636 3 5 3 0 1.077 3.762 3 5 3ZM342 273c-3.015 0-6.004 2-8 2l-3-3c2.486 0 3.725-1 6-1l6-4-1 6Z"/><path fill="#95E3C8" id="NLOT2" d="m137 282 2 1c4.333 0 7.95-.225 11.5-2 2.04-1.02 2.424-6 3.5-6l-1-6c-3.606 0-9.619-1.941-13.5 0l-5.5 3v1c0 3.676 3 6.439 3 9ZM319 282l-1 1c-5.634 0-15-.615-15-8 0-1.321-.684-6 1-6 4.434 0 10.875-1.312 15.5 1 1.405.703 2.848 4 3.5 4 0 1.345-1.571 7-3 7l-1 1Z"/><path fill="#99D2BD" id="OLF" d="M134 272v1c-1.481 0-.785-2-3-2l3-2v3Z"/><path fill="#97D6F9" id="STR" d="M166 272c0 1.235.643 5-1 5v-8c1.473 0 1 1.952 1 3Z"/><path fill="#E64438" id="HY" d="M213 279c0 .913 5.014 2 6 2l-4-4.5 2-5.5v-2l-8 4c5.425 0 4 2.831 4 6Z"/><path fill="#99D2BD" id="OLF" d="M323 271h2l-3-2 1 2Z"/><path fill="#E64438" id="HY" d="M243 279c0 1.579-2.855 1-4 1l2-2.5c1.278-2.555-2-4.516-2-6.5l1-1c.698 0 7 2.714 7 3-4.735 0-4 3.02-4 6Z"/><path fill="#60E5B7" id="COAa" d="m133 294-5 1-3-1c0-4.693-3-11.139-3-18l2-3 1-1c1.564 0 3.876-1 6-1 2.215 0 1.519 2 3 2 0 3.676 3 6.439 3 9l1 3-1 7-4 2Z"/><path fill="#CAC7CB" id="fiber tracts" d="m175 273 11.5-1 7.5 3-5-4c-2.469 0-14-1.118-14 2ZM283 273c0 1.145.579 4-1 4 0-7.619-12.3-4-17-4l2-2h11.5l4.5 2Z"/><path fill="#97D6F9" id="STR" d="m297 282-2 1c0-1.983-5-6.027-5-11l1-1c0 6.036 6 9.586 6 11Z"/><path fill="#60E5B7" id="COAa" d="m331 294-2 1-6-1-4-3v-9l1-1c1.429 0 3-5.655 3-7v-3h2c2.124 0 4.436 1 6 1l3 3 1 7.5c-1.189 2.379-4 9.039-4 11.5Z"/><path fill="#99D2BD" id="OLF" d="m125 272-1 1 1-1Z"/><path fill="#CACCCB" id="opt" d="M199 278v9c-6.047 0-25-6.928-25-13l1-1 11.5-1 7.5 3h1l4 3Z"/><path fill="#F2483B" id="RCH" d="M200 277c4.449 0 8.01 2 13 2 0-3.169 1.425-6-4-6l-8-1c-7.273 0-1 2.896-1 5ZM250 279h1c0-1.638 3.576-2 5-2l1-1h1c0-2.681 1.387-4-3-4l-8 1c-4.735 0-4 3.02-4 6h7Z"/><path fill="#CACCCB" id="opt" d="M257 287h7c0-1.638 3.576-2 5-2 0-2.63 8.621-5.061 10.5-6l2.5-2c0-7.619-12.3-4-17-4 0 1.577-1.762 2-3 2h-1l-1 1h-1l-2 2v9Z"/><path fill="#99D2BD" id="OLF" d="m115 273-1 1 1-1Z"/><path fill="#59D9AA" id="PAA" d="M112 300h2c0-1.795 11-1.455 11-6 0-4.693-3-11.139-3-18 0-3.348-4.824-3-7-3l-1 1c0 6.354-12 20.985-12 23l1 1h1l1 1h4c1.048 0 3-.473 3 1Z"/><path fill="#CAC7CB" id="fiber tracts" d="m175 273-1 1v-1h1ZM265 273c-1.238 0-3 .423-3 2 1.238 0 3-.423 3-2Z"/><path fill="#59D9AA" id="PAA" d="M343 300h2c0-1.473 1.952-1 3-1h3l1-1h1l1-1h1l-6-6.5c-2.319-4.639-7-12.166-7-17.5-3.015 0-6.004 2-8 2l1 7.5c-1.189 2.379-4 9.039-4 11.5l4.5 4c1.173.587 7.5.619 7.5 2Z"/><path fill="#CAC7CB" id="fiber tracts" d="M227 285h-19.5c-2.614 1.307-5.334 2-8.5 2-6.047 0-25-6.928-25-13-2.104 0 .543 4.586 1 5.5l7 3.5c8.467 0 16.385 11.558 31.5 4 2.129-1.065 13.5 1.261 13.5-2Z"/><path fill="#95E4C7" id="NLOT1" d="m138 285-1 7c0 8.737 18-1.11 18-8l-1-9c-1.076 0-1.46 4.98-3.5 6-3.55 1.775-7.167 2-11.5 2l-1 2Z"/><path fill="#CAC7CB" id="fiber tracts" d="M225 281h1c0 1.714-5.594 1-7 1-7.145 0-13.186-4-20-4l-4-3 5 2c4.449 0 8.01 2 13 2 0 .913 5.014 2 6 2h6ZM261 275l-1 1 1-1Z"/><path fill="#95E4C7" id="NLOT1" d="M319 287v4c0 10.512-17 .205-17-8 0-1.49-.735-8 1-8 0 7.385 9.366 8 15 8 0 1.145-.579 4 1 4Z"/><path fill="#E64438" id="HY" d="m257 276-1 1 1-1Z"/><path fill="#CAC7CB" id="fiber tracts" d="m257 278-6 1c0-1.638 3.576-2 5-2l1-1h2l-2 2Z"/><path fill="#97D6F9" id="STR" d="M160 282h1c1.811 0 4-3.438 4-5l-5 5Z"/><path fill="#E64438" id="HY" d="M230 281h1l-2-4h-2v2c1.747 0 2 .253 2 2h1Z"/><path fill="#CAC7CB" id="fiber tracts" d="m282 277-2.5 2c-1.879.939-10.5 3.37-10.5 6 3.151 0 13-4.197 13-8Z"/><path fill="#CBCACC" id="och" d="M229 285h20.5c2.225 1.112 4.846 2 7.5 2v-9l-6 1h-1c0 2.295-12.62 3-15 3-1.235 0-5 .643-5-1h-1c0 1.93-1.161 0-2 0h-1c0 1.714-5.594 1-7 1-7.145 0-13.186-4-20-4v9c3.166 0 5.886-.693 8.5-2H227c.839 0 2-1.93 2 0Z"/><path fill="#E64438" id="HY" d="M226 281h1v-2l-2 2h1Z"/><path fill="#CAC7CB" id="fiber tracts" d="M227 281c.839 0 2 1.93 2 0 0-1.747-.253-2-2-2v2ZM231 281h6l2-1c1.145 0 4 .579 4-1h7c0 2.295-12.62 3-15 3-1.235 0-5 .643-5-1h1Z"/><path fill="#E64438" id="HY" d="m239 280-2 1 2-1Z"/><path fill="#99D2BD" id="OLF" d="m320 281-1 1 1-1ZM139 283l-1 2-1-3 2 1ZM133 294l-1 3c8.783 0 29-4.298 29-15h-1l-5 2c0 6.89-18 16.737-18 8l-4 2ZM323 294l1 3c-6.085 0-29-4.425-29-14l2-1c0 2.079 4.47 1 5 1 0 8.205 17 18.512 17 8l4 3ZM318 283c0 1.145-.579 4 1 4v-5l-1 1Z"/><path fill="#CAC7CB" id="fiber tracts" d="M257 287h7c0 1.663-5.407 2-7 2-7.522 0-13.202-2-20.5-2-1.115 0-7.5-1.046-7.5-2h20.5c2.225 1.112 4.846 2 7.5 2ZM269 285c-1.424 0-5 .362-5 2 1.424 0 5-.362 5-2Z"/><path fill="#99D2BD" id="OLF" d="M129 297c0 2.295-12.62 3-15 3 0-1.795 11-1.455 11-6l3 1 1 2Z"/><path fill="#CAC8C7" id="lot" d="M129 297h3l1-3-5 1 1 2ZM324 297h3c1.747 0 2-.253 2-2l-6-1 1 3Z"/><path fill="#99D2BD" id="OLF" d="M327 297c0 1.505 13.317 3 16 3 0-1.381-6.327-1.413-7.5-2l-4.5-4-2 1c0 1.747-.253 2-2 2ZM102 297l1 1-1-1ZM354 297l-1 1 1-1ZM104 298l1 1-1-1ZM352 298l-1 1 1-1ZM109 299c1.048 0 3-.473 3 1-1.048 0-3 .473-3-1ZM348 299c-1.048 0-3-.473-3 1 1.048 0 3 .473 3-1Z"/></svg>