<svg xmlns="http://www.w3.org/2000/svg" viewBox="0 0 456 320"><path fill="#1E9C59" id="MOs1" d="M133 84h1c0-3.198 12.13-7.815 14.5-9 10.267-5.134 39.971-19.014 52-13h4c2.622 1.31 12.5 7.661 12.5 10l4-1c0-7.494-9.56-11.53-14.5-14-16.088-8.044-39.839 1.92-54 9-2.376 1.188-19.5 9.629-19.5 11v7ZM322 83h1c0-2.124 1-4.436 1-6-1.85 0-14.733-8.616-17.5-10-14.694-7.347-40.258-18.37-57-10-4.228 2.114-14.5 6.894-14.5 13l4 2 7.5-7c4.701-2.35 16.702-7.149 23-4 11.439 5.72 25.514 6.257 37 12L322 83Z"/><path fill="#1E9D58" id="MOs2/3" d="m134 84-1 2.5c0 1.474 2 4.43 2 7 0 1.363-.7 6.5 1 6.5l16.5-11c8.16-4.08 15.827-8.914 24-13l15-5c3.55-1.775 19.5 3.368 19.5 7h1l5-5v-1c0-2.339-9.878-8.69-12.5-10h-4c-12.029-6.014-41.733 7.866-52 13-2.37 1.185-14.5 5.802-14.5 9ZM322 83c0 7.065-1 10.901-1 18l-7.5-6-27-16c-3.932-1.966-23.672-10.164-28-8l-9 3c-2.029 1.014-2.271 3-4.5 3-2.871 0-2.556-4-6-4v-1l7.5-7c4.701-2.35 16.702-7.149 23-4 11.439 5.72 25.514 6.257 37 12L322 83Z"/><path fill="#3EA665" id="ACAd1" d="M222 94h12l1-14.5 4-6.5v-1l-4-2-3.5 5-3 7c-2.315 0-3.697-11-7.5-11l-4 1v1c4.559 0 5 16.846 5 21Z"/><path fill="#1F9D58" id="MOs5" d="m135 102 2 6.5c0 7.234-1.373 20.746-4 26-.747 1.494-.214 11.5 1 11.5 0-8.997 2.322-15.145 6-22.5l4.5-3.5c7.825-7.825 18.953-13.977 29-19 4.87-2.435 11.061-2.53 16-5l4.5 1 13-15.5 4-3.5c0-3.632-15.95-8.775-19.5-7l-15 5c-8.173 4.086-15.84 8.92-24 13L136 100l-1 2ZM321 101c0 12.196 2 26.71 2 39-1.951 0-.477-2.454-1-3.5-1.91-3.819-3.084-8.169-5-12-3.375-6.75-20.359-16.43-26.5-19.5-6.442-3.221-13.61-4.805-20-8-1.551-.775-7.5-1.404-7.5 1h-1c0-1.284-15.284-20-17-20v-1c2.229 0 2.471-1.986 4.5-3l9-3c4.328-2.164 24.068 6.034 28 8l27 16 7.5 6Z"/><path fill="#40A565" id="ACAd2/3" d="m222 94-6 1c0-6.169-4-15.108-4-17l5-5c4.559 0 5 16.846 5 21ZM234 94l6 1c0-4.672 5-16.354 5-17v-1c-2.871 0-2.556-4-6-4l-4 6.5-1 14.5Z"/><path fill="#1E9D5A" id="MOp1" d="m100 169-5 1c0-.444-4.683-23.866-5-24.5-1.683-3.365.617-13.234 2-16 6.573-13.145 11.552-25.552 23-37 2.631-2.63 13.942-15.5 18-15.5v7c-3.983 0-11.141 8.64-14 11.5-11.31 11.31-24 28.411-24 44.5 0 6.94.09 15.681 3 21.5.567 1.134.546 6.5 2 6.5v1ZM357 169l4 1 4-12.5c1.44-2.88 1.43-25.14 0-28-3.696-7.393-8.228-14.457-12-22-2.388-4.777-7.422-12.46-11.5-14.5-4.191-2.096-12.108-16-17.5-16 0 1.564-1 3.876-1 6l9.5 8c7.371 7.37 15.821 15.143 20.5 24.5 3.471 6.943 12.707 26.585 8 36-2.099 4.198-4 12.748-4 17.5Z"/><path fill="#3EA566" id="ACAd5" d="m194 98 5 4c6.004 0 10.668-7 17-7 0-6.169-4-15.108-4-17h-1l-4 3.5L194 97v1ZM262 98l-5 4c-5.478 0-10.897-7-17-7 0-4.672 5-16.354 5-17 1.716 0 17 18.716 17 20Z"/><path fill="#1F9C58" id="MOp2/3" d="M356 169h1c0-4.752 1.901-13.302 4-17.5 4.707-9.415-4.529-29.057-8-36-4.679-9.357-13.129-17.13-20.5-24.5l-9.5-8h-1c0 7.065-1 10.901-1 18l12 12.5c2.705 5.41 7.327 9.655 10 15 4.983 9.966 2 22.533 2 33.5v1c1.64 0 11 4.351 11 6ZM111 163l-11 5c-1.454 0-1.433-5.366-2-6.5-2.91-5.819-3-14.56-3-21.5 0-16.089 12.69-33.19 24-44.5 2.859-2.86 10.017-11.5 14-11.5h1l-1 2.5c0 1.474 2 4.43 2 7 0 1.363-.7 6.5 1 6.5l-1 2c-4.329 0-7.828 7.328-10.5 10-14.667 14.667-13.5 30.345-13.5 50v1Z"/><path fill="#2FA74F" id="PL2/3" d="M219 132h4c0-12.325-1-25.145-1-38l-6 1c0 4.028-.383 28.734 1 31.5l2 5.5Z"/><path fill="#2FA750" id="PL1" d="M223 133h10v-1c0-11.858 1-25.457 1-38h-12c0 12.855 1 25.675 1 38v1Z"/><path fill="#2FA74F" id="PL2/3" d="M233 132h5c0-12.049 2-24.326 2-37l-6-1c0 12.543-1 26.142-1 38Z"/><path fill="#2EA84F" id="PL5" d="M204 131c4.425 0 9.961 1 15 1l-2-5.5c-1.383-2.766-1-27.472-1-31.5-6.332 0-10.996 7-17 7v1c0 8.005 5 19.56 5 28ZM252 131h1c0-9.662 4-18.809 4-28v-1c-5.478 0-10.897-7-17-7 0 12.674-2 24.951-2 37 4.725 0 9.879-1 14-1Z"/><path fill="#1D9C5A" id="MOs6a" d="M134 149h1l7.5-5c8.019-4.009 12.682-11 22.5-11l4-4c0-5.664 7.161-10 13-10 0-1.664 1.823-6 4-6 0-5.525 8-10.079 8-15v-1l-4.5-1c-4.939 2.47-11.13 2.565-16 5-10.047 5.023-21.175 11.175-29 19l-4.5 3.5c-3.678 7.355-6 13.503-6 22.5v3ZM323 147l-1 2c-5.237 0-18.5-16-31-16l-4-4c0-4.712-6.08-10-12-10l-4-6-8-15c0-2.404 5.949-1.775 7.5-1 6.39 3.195 13.558 4.779 20 8 6.141 3.07 23.125 12.75 26.5 19.5 1.916 3.831 3.09 8.181 5 12 .523 1.046-.951 3.5 1 3.5v7Z"/><path fill="#3FA664" id="ACAd6a" d="M199 103c-4.856 0-8.068 10-13 10 0-5.525 8-10.079 8-15l5 4v1ZM257 103c5.437 0 8.253 10 14 10l-8-15h-1l-5 4v1Z"/><path fill="#1E9C5A" id="MOp5" d="M323 149c5.417 0 16.506 13 22 13 0-10.967 2.983-23.534-2-33.5-2.673-5.345-7.295-9.59-10-15L321 101c0 12.196 2 26.71 2 39v9ZM134 149c-7.99 0-14.861 13-23 13 0-19.655-1.167-35.333 13.5-50 2.672-2.672 6.171-10 10.5-10l2 6.5c0 7.234-1.373 20.746-4 26-.747 1.494-.214 11.5 1 11.5v3Z"/><path fill="#2FA850" id="PL6a" d="M197 131h7c0-8.44-5-19.995-5-28-4.856 0-8.068 10-13 10-2.177 0-4 4.336-4 6l2 3c4.378 0 7.979 9 13 9ZM253 131h6c5.02 0 8.214-8 13-8l1-1c0-1.238.423-3 2-3l-4-6c-5.747 0-8.563-10-14-10 0 9.191-4 18.338-4 28Z"/><path fill="#268E44" id="FRP6a" d="M180 123h3l1-1-2-3c-5.839 0-13 4.336-13 10l11-6ZM277 124l10 5c0-4.712-6.08-10-12-10-1.577 0-2 1.762-2 3v1c1.145 0 4-.579 4 1Z"/><path fill="#22885E" id="ORBm6a" d="M201 158v1c6.397 0 6-.855 6-8v-2l-2-3.5c-1.838-3.676-6-8.955-6-12l-2-2.5c-5.021 0-8.622-9-13-9l-1 1c0 5.534 18 26.531 18 35ZM272 123h1v-1l-1 1Z"/><path fill="#24895D" id="ORBl6a" d="m151 155-1 4c7.269 0 15.224-8.862 21.5-12 3.115-1.558 7.844 0 10.5 0l-4-10.5c0-3.334 2-9.21 2-13.5l-11 6-4 4c0 4.773-12 14.507-12 19l-1 1-1 2Z"/><path fill="#238A5C" id="ORBvl6a" d="m183 147 18 11c0-8.469-18-29.466-18-35h-3c0 4.29-2 10.166-2 13.5l4 10.5h1Z"/><path fill="#22885E" id="ORBm6a" d="m256 158-1 1c-4.81 0-6 .035-6-6v-3c1.998 0 2.337-5.174 3-6.5 2.026-4.052 7-7.721 7-12.5 5.02 0 8.214-8 13-8l1 1c0 5.675-17 24.024-17 34Z"/><path fill="#268E44" id="FRP6a" d="M273 123v1l-1-1h1Z"/><path fill="#238A5C" id="ORBvl6a" d="M273 147h1l4-9.5-1-13.5c0-1.579-2.855-1-4-1v1c0 5.675-17 24.024-17 34 3.181 0 12.613-11 17-11Z"/><path fill="#24895D" id="ORBl6a" d="M303 152c0 2.747 4 4.56 4 8-6.753 0-15.507-10.003-21.5-13-3.254-1.627-8.65 0-11.5 0l4-9.5-1-13.5 10 5 4 4c0 4.205 12 13.821 12 19Z"/><path fill="#58B362" id="ILA6a" d="m204 131 3 18-2-3.5c-1.838-3.676-6-8.955-6-12l-2-2.5h7Z"/><path fill="#59B262" id="ILA5" d="M218 169h1v-37c-5.039 0-10.575-1-15-1l3 18v2l5 9.5 6 8.5ZM249 153c-1.555 0-8.33 16-11 16v-37c4.725 0 9.879-1 14-1l-3 19v3Z"/><path fill="#58B362" id="ILA6a" d="M259 131c0 4.779-4.974 8.448-7 12.5-.663 1.326-1.002 6.5-3 6.5l3-19h7Z"/><path fill="#59B362" id="ILA2/3" d="M222 173h1c0-3.567.446-9.393 2-12.5 2.54-5.079-2-21.057-2-27.5v-1h-4v37c0 1.114 2.034 4 3 4ZM238 169c-2.007 0-1.121 4-4 4l-2-6.5 1-33.5v-1h5v37Z"/><path fill="#209666" id="AId6a" d="m151 155-4 5c-7.36 0-12-3.29-12-11l7.5-5c8.019-4.009 12.682-11 22.5-11 0 4.773-12 14.507-12 19l-1 1-1 2Z"/><path fill="#59B263" id="ILA1" d="M229 173h5l-2-6.5 1-33.5h-10c0 6.443 4.54 22.421 2 27.5-1.554 3.107-2 8.933-2 12.5h6Z"/><path fill="#209666" id="AId6a" d="M309 160h1c6.456 0 12-4.315 12-11-5.237 0-18.5-16-31-16 0 4.205 12 13.821 12 19 2.289 0 6 6.178 6 8Z"/><path fill="#228A5D" id="ORBl5" d="M190 167c-4.743 0-5.65-7.425-16.5-2-4.611 2.305-23.467 17-26.5 17 0-3.636-5.25-8-3-12.5l5-9.5 1-1c7.269 0 15.224-8.862 21.5-12 3.115-1.558 7.844 0 10.5 0h1c0 6.267 7 13.085 7 20ZM267 166c2.27 0 3.627-2.064 5.5-3 4.489-2.244 14.479 4.24 18 6 5.339 2.67 12.447 12 18.5 12l2-3.5c4.64-9.281-3-9.991-3-17.5h-1c-6.753 0-15.507-10.003-21.5-13-3.254-1.627-8.65 0-11.5 0h-1c0 4.427-4.438 11.376-6 14.5-.48.959-1.571 4.5 0 4.5Z"/><path fill="#23885C" id="ORBvl5" d="m190 167 10 8 2-4.5c1.616-3.232-1-8.676-1-11.5v-1l-18-11c0 6.267 7 13.085 7 20ZM267 167l-11 8c0-2.128-1.054-5.608-2-7.5l1-8.5 1-1c3.181 0 12.613-11 17-11 0 4.427-4.438 11.376-6 14.5-.48.959-1.571 4.5 0 4.5v1Z"/><path fill="#1F9D58" id="MOs5" d="M322 149h1v-2l-1 2Z"/><path fill="#209665" id="AId5" d="M111 163c1.781 0 1.348 6.197 2 7.5 1.535 3.071 4.163 17.5 9 17.5 2.747 0 19.316-20.133 21-23.5l4-4.5c-7.36 0-12-3.29-12-11h-1c-7.99 0-14.861 13-23 13v1ZM334 189h1c0-1.114 10-19.089 10-26v-1c-5.494 0-16.583-13-22-13h-1c0 6.685-5.544 11-12 11 0 7.449 24 24.044 24 29Z"/><path fill="#23885E" id="ORBm5" d="M218 169c0 3.12-10.197 10.652-13.5 9l-4.5-3 2-4.5c1.616-3.232-1-8.676-1-11.5 6.397 0 6-.855 6-8l5 9.5 6 8.5Z"/><path fill="#1F9866" id="AIv6a" d="m153 152-1 1 1-1ZM308 160h1c0-1.822-3.711-8-6-8 0 2.747 4 4.56 4 8h1ZM152 153l-1 2 1-2Z"/><path fill="#23885E" id="ORBm5" d="m256 175-2 2c-3.328 0-16-1.273-16-8 2.67 0 9.445-16 11-16 0 6.035 1.19 6 6 6l-1 8.5c.946 1.892 2 5.372 2 7.5Z"/><path fill="#1F9866" id="AIv6a" d="M147 160h2l1-1 1-4-4 5Z"/><path fill="#24895D" id="ORBl6a" d="m150 159-1 1 1-1Z"/><path fill="#1F9865" id="AIv5" d="M122 188v1c2.947 0 7.527 3.986 11.5 2 3.51-1.755 9.623-8 13.5-8v-1c0-3.636-5.25-8-3-12.5l5-9.5h-2l-4 4.5c-1.684 3.367-18.253 23.5-21 23.5ZM309 182c.487 0 12.691 8.096 14.5 9 3.777 1.889 7.892-2 10.5-2 0-4.956-24-21.551-24-29h-2c0 7.509 7.64 8.219 3 17.5l-2 3.5v1Z"/><path fill="#209765" id="AId2/3" d="M122 189c-4.033 0-6.369 6-11 6l-3-5.5-8-20.5v-1l11-5c1.781 0 1.348 6.197 2 7.5 1.535 3.071 4.163 17.5 9 17.5v1Z"/><path fill="#238A5E" id="ORBl2/3" d="M150 186h1l12.5-7c5.161-2.58 12.411 0 17.5 0h6c0-5.105 3-7.782 3-12-4.743 0-5.65-7.425-16.5-2-4.611 2.305-23.467 17-26.5 17v1c2.93 0 1.084 3 3 3ZM306 186h1c0-2.202 2-2.546 2-4v-1c-6.053 0-13.161-9.33-18.5-12-3.521-1.76-13.511-8.244-18-6-1.873.936-3.23 3-5.5 3v1c0 4.833 2 7.319 2 12h6c5.14 0 12.295-2.602 17.5 0 3.517 1.759 9.584 7 13.5 7Z"/><path fill="#209765" id="AId2/3" d="M335 189c2.428 0 6.386 6 10 6 2.295 0 3.263-6.025 4-7.5 2.618-5.237 7-12.378 7-18.5 0-1.649-9.36-6-11-6 0 6.911-10 24.886-10 26Z"/><path fill="#248A5D" id="ORBvl2/3" d="M198 180h4c0-2.25-2-3.376-2-5l-10-8c0 4.218-3 6.895-3 12l11 1ZM254 180h4l11-1c0-4.681-2-7.167-2-12l-11 8-2 2v3Z"/><path fill="#209764" id="AId1" d="m111 196-4 1-3-5.5c-3-6.001-9-14.559-9-21.5l5-1 8 20.5 3 5.5v1Z"/><path fill="#24885D" id="ORBm2/3" d="M202 180c4.919 0 11.413 1 17 1 0-3.425 3-4.761 3-8-.966 0-3-2.886-3-4h-1c0 3.12-10.197 10.652-13.5 9l-4.5-3c0 1.624 2 2.75 2 5ZM254 180c-4.594 0-10.741 1-16 1l-4-8c2.879 0 1.993-4 4-4 0 6.727 12.672 8 16 8v3Z"/><path fill="#209764" id="AId1" d="m345 196 4 1c2.295 0 3.263-6.025 4-7.5 2.917-5.834 8-12.625 8-19.5l-4-1h-1c0 6.122-4.382 13.263-7 18.5-.737 1.475-1.705 7.5-4 7.5v1Z"/><path fill="#23895D" id="ORBm1" d="m227 180-8 1c0-3.425 3-4.761 3-8h6v2c-1.643 0-1 3.765-1 5ZM229 180c2.723 0 5.778 1 9 1l-4-8h-5v7Z"/><path fill="#99D2BD" id="OLF" d="M227 180c.839 0 2 1.93 2 0v-4l-1-1c-1.643 0-1 3.765-1 5Z"/><path fill="#6ACAB9" id="PIR" d="m167 242-4 2c-4.922 0-19.174-11.337-24.5-14-.991-.495-8.5-2.399-8.5 0l-4.5-3c-8.852-4.426-7.5-8.995-7.5-18 1.898 0 21-13.778 21-15 1.429 0 4-1.288 4-3l2-1 1-1c1.238 0 3-.423 3-2h1l1-1 12.5-7c5.161-2.58 12.411 0 17.5 0 0 7.699-18.219 16.939-22 24.5-1.572 3.145 11 19.45 11 27.5 0 4.389-3 8.757-3 11ZM289 242l4 2c6.244 0 11.18-7.34 16.5-10 7.701-3.85 9.305-4 17.5-4 0-2.106 8.465-4.429 10-7.5 2.736-5.471 2-7.36 2-13.5-3.346 0-28-18.456-28-20h-1l-4-3c-3.916 0-9.983-5.241-13.5-7-5.205-2.602-12.36 0-17.5 0 0 7.467 18.331 16.162 22 23.5 3.076 6.153-4.868 10.736-7 15-2.378 4.755-3 9.699-3 15.5 0 2.409 1 5.181 1 7l1 1v1Z"/><path fill="#99D2BD" id="OLF" fill-rule="evenodd" d="m165 201-1 7.5c1.372 2.745 2.319 8.91 5.5 10.5 2.772 1.386 3.791-3.083 4.5-4.5.663-1.325-.969-12.734-2.5-13.5H165m18 19c-2.977 0-8.314 4.814-10.5 7l-2.5 4c0-8.05-12.572-24.355-11-27.5 3.781-7.561 22-16.801 22-24.5h6l11 1c0 3.091 2 5.478 2 8-5.473 0-9.202 3.903-12 9.5-.645 1.29-.67 9.5-2 9.5 0-11.533-4.39-9.72-9-.5-2.676 5.353 6 9.714 6 13.5ZM284 201c0 3.083-3.683 15.908.5 18 2.45 1.225 4.764-3.028 5.5-4.5 3.86-7.719 4.379-13.5-6-13.5m-11 19c3.031 0 10.927 5.354 12 7.5.557 1.114.41 5.5 2 5.5 0-5.801.622-10.745 3-15.5 2.132-4.264 10.076-8.847 7-15-3.669-7.338-22-16.033-22-23.5h-6l-11 1c0 2.409-1 5.181-1 7 8.787 0 13 13.264 13 21 2.514 0-.212-10 1.5-10l3 3c12.68 6.34-1.5 16.778-1.5 19Z"/><path fill="#A3DAA3" id="DP" d="M229 193h19c2.136 0 9-3.439 9-6 0-1.819 1-4.591 1-7h-4c-4.594 0-10.741 1-16 1-3.222 0-6.277-1-9-1 0 1.93-1.161 0-2 0l-8 1c-5.587 0-12.081-1-17-1h-4c0 3.091 2 5.478 2 8 3.062 0 4.764 5 9 5 3.788 0 9.055-1 13.5-1 1.19 0 4.5-.614 4.5 1 1.2 0 2-3.746 2 0Z"/><path fill="#219764" id="AIv2/3" d="M345 195v1l-3 4.5c-7.764 7.764-18.762-4.131-25.5-7.5l-5.5-4h-1l-3-3c0-2.202 2-2.546 2-4 .487 0 12.691 8.096 14.5 9 3.777 1.889 7.892-2 10.5-2h1c2.428 0 6.386 6 10 6ZM111 195v1l2 2.5c6.704 13.409 18.406-4.5 26-4.5 0-1.712 2.571-3 4-3l2-1 1-1c0-1.577 1.762-2 3-2h1v-1c-1.916 0-.07-3-3-3-3.877 0-9.99 6.245-13.5 8-3.973 1.986-8.553-2-11.5-2-4.033 0-6.369 6-11 6Z"/><path fill="#238A5D" id="ORBl1" d="m151 186-1 1v-1h1Z"/><path fill="#209864" id="AIv1" d="m307 186 3 3-4-3h1ZM149 187c-1.238 0-3 .423-3 2 1.238 0 3-.423 3-2Z"/><path fill="#54BF94" id="AON" d="M184 257h7l7-8 1-1c0-5.754 14.694-18 20-18 0-2.723 1-5.778 1-9-3.806 0-11-23.885-11-28-4.236 0-5.938-5-9-5-5.473 0-9.202 3.903-12 9.5-.645 1.29-.67 9.5-2 9.5 0 4.086 4.137 13-3 13-2.977 0-8.314 4.814-10.5 7l-2.5 4c0 4.389-3 8.757-3 11 0 4.691 4 7.12 4 9h1l6 4 4 1 2 1ZM266 257h7l2-1 1-1h2c0-1.638 3.576-2 5-2l2-2c0-.155 4-4.161 4-9v-1l-1-1c0-1.819-1-4.591-1-7-1.59 0-1.443-4.386-2-5.5-1.073-2.146-8.969-7.5-12-7.5-6.902 0-3-7.853-3-12 0-7.736-4.213-21-13-21 0 2.561-6.864 6-9 6 0 .677-6.416 23.332-7 24.5l-4 3.5v9c5.051 0 20 11.475 20 17l9 10Z"/><path fill="#209864" id="AIv1" d="m146 189-1 1 1-1ZM349 197c0 4.169-5.688 12-10 12-3.346 0-28-18.456-28-20l5.5 4c6.738 3.369 17.736 15.264 25.5 7.5l3-4.5 4 1ZM145 190l-2 1 2-1ZM143 191c-1.429 0-4 1.288-4 3 1.429 0 4-1.288 4-3Z"/><path fill="#99D2BD" id="OLF" d="M227 193c1.2 0 2-3.746 2 0 0 6.777-2 5.835-2 0Z"/><path fill="#61D09F" id="TTd" d="M220 221h17l4-3.5c.584-1.168 7-23.823 7-24.5h-19c0 6.777-2 5.835-2 0 0-1.614-3.31-1-4.5-1-4.445 0-9.712 1-13.5 1 0 4.115 7.194 28 11 28Z"/><path fill="#209864" id="AIv1" d="M107 197c0 4.105 6.701 12 11 12 1.898 0 21-13.778 21-15-7.594 0-19.296 17.909-26 4.5l-2-2.5-4 1Z"/><path fill="#CBCBC7" id="aco" d="M186 207c0 4.086 4.137 13-3 13 0-3.786-8.676-8.147-6-13.5 4.61-9.22 9-11.033 9 .5ZM270 208c2.514 0-.212-10 1.5-10l3 3c12.68 6.34-1.5 16.778-1.5 19-6.902 0-3-7.853-3-12Z"/><path fill="#A0EE9C" id="EPd" d="m165 201-1 7.5c1.372 2.745 2.319 8.91 5.5 10.5 2.772 1.386 3.791-3.083 4.5-4.5.663-1.325-.969-12.734-2.5-13.5H165ZM284 201c0 3.083-3.683 15.908.5 18 2.45 1.225 4.764-3.028 5.5-4.5 3.86-7.719 4.379-13.5-6-13.5Z"/><path fill="#99D2BD" id="OLF" d="M219 230h18v-9h-17c0 3.222-1 6.277-1 9Z"/><path fill="#CAC8C7" id="lot" d="M163 244c0 1.602 3.058 2.384 2 4.5l-2 1.5c-8.784 0-17.945-10.222-25.5-14-2.54-1.27-7.5-2.091-7.5-6 0-2.399 7.509-.495 8.5 0 5.326 2.663 19.578 14 24.5 14Z"/><path fill="#62CF9E" id="TTv" d="m213 261-1 1c-7.267 0-14-5.356-14-13l1-1c0-5.754 14.694-18 20-18h18c5.051 0 20 11.475 20 17l2 4.5c0 6.509-9.424 9.5-15 9.5-3.979 0-11.359-11.218-13-14.5l-2.5-6.5c-1.487 0-2.093 4.687-2.5 5.5-.936 1.871-10.413 14.5-12 14.5l-1 1Z"/><path fill="#CAC8C7" id="lot" d="m293 244-2 3.5 2 2.5c5.149 0 23.281-10.781 27-14.5 1.871-1.871 7-1.658 7-5.5-8.195 0-9.799.15-17.5 4-5.32 2.66-10.256 10-16.5 10Z"/><path fill="#99D2BD" id="OLF" d="m288 240 1 1-1-1ZM171 251c-1.747 0-2 .253-2 2l-6-3 2-1.5c1.058-2.116-2-2.898-2-4.5l4-2c0 4.691 4 7.12 4 9ZM285 251c1.747 0 2 .253 2 2l6-3-2-2.5 2-3.5-4-2c0 4.839-4 8.845-4 9ZM249 264h2c0-1.951 2.454-.477 3.5-1l11.5-6-9-10 2 4.5c0 6.509-9.424 9.5-15 9.5 0 1.803 3.592 3 5 3ZM199 248l-1 1 1-1ZM206 264h1c1.424 0 5-.362 5-2-7.267 0-14-5.356-14-13l-7 8c0 1.701 8.794 5.147 10.5 6 1.147.574 4.5-1.064 4.5 1Z"/><path fill="#7FCCF7" id="OT" d="M169 253h4l-1-2h-1c-1.747 0-2 .253-2 2Z"/><path fill="#99D2BD" id="OLF" d="M173 253c0 1.638 3.576 2 5 2l-6-4 1 2Z"/><path fill="#7FCCF7" id="OT" d="M284 253h3c0-1.747-.253-2-2-2l-2 2h1Z"/><path fill="#97D6F9" id="STR" d="M178 255c0 4.112 8 2.758 8 6-2.484 0-17-6.176-17-8h4c0 1.638 3.576 2 5 2Z"/><path fill="#99D2BD" id="OLF" d="M278 255v1l6-3h-1c-1.424 0-5 .362-5 2Z"/><path fill="#97D6F9" id="STR" d="m278 256-3 3c2.396 0 12-3.023 12-6h-3l-6 3Z"/><path fill="#7FCCF7" id="OT" d="m206 264-1 1c-5.151 0-9.701-2-14-2l-4-2h-1c0-3.242-8-1.888-8-6l4 1 2 1h7c0 1.701 8.794 5.147 10.5 6 1.147.574 4.5-1.064 4.5 1Z"/><path fill="#99D2BD" id="OLF" d="m276 255-1 1 1-1Z"/><path fill="#7FCCF7" id="OT" d="M251 264v1c5.151 0 9.701-2 14-2l2-1c0-1.473 1.952-1 3-1 0-1.638 3.576-2 5-2l3-3v-1h-2l-1 1-2 1h-7l-11.5 6c-1.046.523-3.5-.951-3.5 1Z"/><path fill="#99D2BD" id="OLF" d="m182 256 2 1-2-1ZM275 256l-2 1 2-1Z"/><path fill="#97D6F9" id="STR" d="M275 259c-1.424 0-5 .362-5 2 1.424 0 5-.362 5-2Z"/><path fill="#99D2BD" id="OLF" d="m214 260-1 1 1-1Z"/><path fill="#97D6F9" id="STR" d="m187 261 4 2-4-2Z"/><path fill="#99D2BD" id="OLF" d="m213 261-1 1 1-1Z"/><path fill="#97D6F9" id="STR" d="M270 261c-1.048 0-3-.473-3 1 1.048 0 3 .473 3-1ZM267 262l-2 1 2-1ZM207 264l-2 1 1-1h1ZM251 264v1l-2-1h2Z"/></svg>