<svg xmlns="http://www.w3.org/2000/svg" viewBox="0 0 456 320"><path fill="#99D2BD" id="OLF" d="M187 209c0-13.136 6.561-23.621 12-34.5l3-11c1.366-2.732 5.713-1.393 7.5-.5 4.136 2.068 9.095 30.31 6.5 35.5-1.114 2.227-3 9.265-3 11.5 4.121 0 9.32-4 12-4 0-10.973 5.296-42.908 1-51.5-3.303-6.606 1.351-17.297-2-24l-8.5-6.5c-15.392-7.696-21.351-1.825-35 5-3.006 1.503-14.5 9.691-14.5 13 2.594 0-.053 14.395 1 16.5 1.906 3.813.112 9.224 2 13 4.19 8.379 6.782 17.563 11 26 1.05 2.099 3.981 11.5 7 11.5ZM269 209c0-13.859-6.308-23.115-12-34.5-2.318-4.636-1.097-15.702-9.5-11.5-6.285 3.142-9.696 34.108-6.5 40.5 1.07 2.14 2 3.887 2 6.5l-7.5-1c-.743-.372-3.5-4.46-3.5-2-1.725 0-1-6.052-1-7.5 0-7.578-1-15.428-1-23.5 0-13.771-3.076-45.712 9.5-52 16.084-8.042 25.896-.052 40 7 4.439 2.22 13.5 10.888 13.5 16l-3.5-5-.5 20.5c-1.056 2.112.003 4.995-1 7-3.411 6.821-5.536 14.072-9 21-1.372 2.744-6.374 18.5-10 18.5ZM166 142l-1 1 1-1Z"/><path fill="#C7CBCA" id="onl" d="M187 209c0 16.628 26 9.487 26 1 4.121 0 9.32-4 12-4 0 6.048-7.677 6.854-10 11.5-3.313 6.626-9.02 8.76-14.5 11.5l-11 7c-6.464 3.232-17.715-3.931-20.5-9.5l-3-16.5c0-6.181-.311-17.122-3-22.5-.703-1.406 1.261-7.5-1-7.5v-28l1-2v-2l1-2v-1l1-1v-1l1-1c2.594 0-.053 14.395 1 16.5 1.906 3.813.112 9.224 2 13 4.19 8.379 6.782 17.563 11 26 1.05 2.099 3.981 11.5 7 11.5ZM269 209c0 16.998-26 9.094-26 1l-7.5-1c-.743-.372-3.5-4.46-3.5-2 0 5.025 8.85 8.2 11 12.5 2.656 5.312 8.282 6.891 13.5 9.5l11 7c14.071 7.035 23.5-17.709 23.5-27 0-8.123-.429-19.642 3-26.5.662-1.324-1.207-6.5 1-6.5v-21c-1.175 0-2-5.704-2-7v-1l-3.5-5-.5 20.5c-1.056 2.112.003 4.995-1 7-3.411 6.821-5.536 14.072-9 21-1.372 2.744-6.374 18.5-10 18.5Z"/><path fill="#99D2BD" id="OLF" d="m165 144-1 1 1-1ZM164 146l-1 2 1-2ZM293 148c1.663 0 2 5.407 2 7-1.175 0-2-5.704-2-7ZM163 150l-1 2 1-2ZM162 154c-1.614 0-1 3.31-1 4.5v15c0 1.278-.665 5.5 1 5.5v-25Z"/><path fill="#9AD1BD" id="MOB" d="M187 209c0 16.628 26 9.487 26 1 0-2.235 1.886-9.273 3-11.5 2.595-5.19-2.364-33.432-6.5-35.5-1.787-.893-6.134-2.232-7.5.5l-3 11c-5.439 10.879-12 21.364-12 34.5ZM269 209c0 16.998-26 9.094-26 1 0-2.613-.93-4.36-2-6.5-3.196-6.392.215-37.358 6.5-40.5 8.403-4.202 7.182 6.864 9.5 11.5 5.692 11.385 12 20.641 12 34.5Z"/><path fill="#99D2BD" id="OLF" d="M295 176c-2.207 0-.338 5.176-1 6.5-3.429 6.858-3 18.377-3 26.5 3.281 0 1.112-6.723 2-8.5 2.842-5.684 2-17.988 2-24.5ZM162 180c2.261 0 .297 6.094 1 7.5 2.689 5.378 3 16.319 3 22.5-2.123 0-3-5.942-3-7.5 0-7.282-1-14.741-1-22.5Z"/></svg>