<svg xmlns="http://www.w3.org/2000/svg" viewBox="0 0 456 320"><path fill="#9AD1BD" id="MOB" d="M147 146c0 3.325 1 7.31 1 10 0 10.463 12.233 27.966 17 37.5 4.675 9.351-.92 21.16 4 31 6.502 13.003 35.256 21.488 43 6 5.81-11.621 9-27.726 9-41.5 0-6.096-1.026-27.448 1-31.5 1.567-3.134 4.909-25.183 3-29-2.451-4.903-4.508-10.016-7-15-1.379-2.758-5-3.778-5-6.5l-9.5-4c-5.984-2.992-21.309 1.655-26 4-6.686 3.343-12.201 7.201-18 13l-5.5 7-1 1v1l-1 2-1 2-1 2-1 2v1l-1 2v1l-1 2v3ZM309 144v13c-1.444 0-5.096 12.692-6 14.5-4.636 9.273-8.443 18.886-13 28-3.787 7.573 5.754 24.373-8.5 31.5-6.308 3.154-19.344 12.328-28 8-19.707-9.854-18.5-56.156-18.5-77 0-6.432-6.856-25.788-4-31.5 2.92-5.841 5.032-12.064 8-18l5-5.5h1l1-1 7.5-3c9.266-4.633 38.228 8.955 41.5 15.5 1.512 3.024 8 5.944 8 10.5l2 2v1l2 4v1l2 4v3Z"/><path fill="#99D2BD" id="OLF" d="m246 106-1 1 1-1Z"/><path fill="#C7CBCA" id="onl" d="M153 211c0 8.458 7.75 12 11 18.5 3.555 7.111 13.568 12.034 20.5 15.5l7 6c6.34 3.17 18.673 3.163 25 0 11.961-5.981 10.5-22.562 10.5-34v-20c0-1.321-.684-6 1-6v-28c-1.781 0-1-10.176-1-12 0-17.986 1.744-21.012-6-36.5-1.207-2.414-4.851-7.5-8-7.5 0 2.722 3.621 3.742 5 6.5 2.492 4.984 4.549 10.097 7 15 1.909 3.817-1.433 25.866-3 29-2.026 4.052-1 25.404-1 31.5 0 13.774-3.19 29.879-9 41.5-7.744 15.488-36.498 7.003-43-6-4.92-9.84.675-21.649-4-31-4.767-9.534-17-27.037-17-37.5-1.751 0-1 7.426-1 9v4c1.579 0 1 2.855 1 4v1c1.684 0 1 4.679 1 6v1c.759 0 2 5.671 2 6.5 0 8.392 2 15.819 2 23.5ZM308 178c-.744 0-2 6.639-2 7.5 0 7.616-3 19.044-3 25.5 0 8.197-5.673 9.847-9 16.5-3.458 6.917-24.65 21.075-31.5 24.5-5.427 2.713-18.018 1.491-23-1-9.782-4.891-10.5-21.241-10.5-31v-84.5c0-8.016 5.097-28.5 15-28.5l-5 5.5c-2.968 5.936-5.08 12.159-8 18-2.856 5.712 4 25.068 4 31.5 0 20.844-1.207 67.146 18.5 77 8.656 4.328 21.692-4.846 28-8 14.254-7.127 4.713-23.927 8.5-31.5 4.557-9.114 8.364-18.727 13-28 .904-1.808 4.556-14.5 6-14.5.616 0 0 8.797 0 11v4c-1.643 0-1 3.765-1 5v1Z"/><path fill="#99D2BD" id="OLF" d="m154 127-1 1 1-1ZM153 129l-1 2 1-2ZM303 129l2 2-2-2ZM152 131l-1 2 1-2ZM305 132l2 4-2-4ZM151 133l-1 2 1-2ZM150 135l-1 2 1-2ZM307 137l2 4-2-4ZM149 138l-1 2 1-2ZM148 141l-1 2 1-2ZM309 157c.616 0 0 8.797 0 11 1.684 0 1-4.679 1-6 0-2.156 2.31-18-1-18v13ZM148 156c-1.751 0-1 7.426-1 9-1.579 0-1-2.855-1-4 0-2.075-.797-15 1-15 0 3.325 1 7.31 1 10ZM227 151c1.781 0 1 10.176 1 12-1.781 0-1-10.176-1-12ZM147 169c1.579 0 1 2.855 1 4-1.579 0-1-2.855-1-4ZM309 172c-1.643 0-1 3.765-1 5 1.643 0 1-3.765 1-5ZM148 174c1.684 0 1 4.679 1 6-1.684 0-1-4.679-1-6ZM308 178c-.744 0-2 6.639-2 7.5 0 7.616-3 19.044-3 25.5 5.469 0 5-27.47 5-33ZM149 181c.759 0 2 5.671 2 6.5 0 8.392 2 15.819 2 23.5-4.508 0-4-24.899-4-30ZM228 191c-1.684 0-1 4.679-1 6v20c1.684 0 1-4.679 1-6v-20Z"/></svg>