<svg xmlns="http://www.w3.org/2000/svg" viewBox="0 0 456 320"><path fill="#99D2BD" id="OLF" d="M169 131c2.649 0-3 13.169-3 17 6.256 0 9.027-8.555 11-12.5 1.384-2.768 17.271-11.886 20.5-13.5 12.458-6.229 21.469 6 25.5 6l1-2c0-3.722-8.329-5.915-10.5-7-11.395-5.698-22.623-1.188-33 4-2.294 1.147-11.5 4.208-11.5 8ZM287 131c-1.028 0-1.44 1.621-1 2.5 2.343 4.685 4 8.8 4 14.5-5.787 0-9.098-9.697-11-13.5-.153-.306-13.241-8.871-14.5-9.5-4.291-2.145-14.097-6.951-20-4-2.584 1.292-7.743 6-10.5 6l-1-1c0-3.607 7.38-5.94 9.5-7 11.531-5.766 22.576-1.212 33 4 2.294 1.147 11.5 4.208 11.5 8Z"/><path fill="#9AD1BD" id="MOB" d="m223 179-1 1c0 14.485-9.776 57.362-32.5 46-9.3-4.65-6.925-16.35-10.5-23.5-6.257-12.514-7.762-27.523-14-40-1.923-3.846 1-11.024 1-14.5 6.256 0 9.027-8.555 11-12.5 1.384-2.768 17.271-11.886 20.5-13.5 12.458-6.229 21.469 6 25.5 6 0 1.01 3.433 10 4 10v19c-2.064 0-.426 3.353-1 4.5-2.516 5.033-3 11.431-3 17.5ZM229 153c2.207 0 .338 5.176 1 6.5 2.475 4.949 4 13.761 4 19.5 0 17.225 9.997 58.252 34.5 46 7.365-3.682 5.557-15.614 8.5-21.5 6.001-12.003 7.984-25.968 14-38 1.272-2.544-.326-6.347 1-9l-2-8.5c-5.787 0-9.098-9.697-11-13.5-.153-.306-13.241-8.871-14.5-9.5-4.291-2.145-14.097-6.951-20-4-2.584 1.292-7.743 6-10.5 6l-3 5.5c-.574 1.147 1.064 4.5-1 4.5 0 1.145.579 4-1 4v12Z"/><path fill="#C7CBCA" id="onl" d="M223 128c0 1.01 3.433 10 4 10 0-2.754 1.399-12-3-12l-1 2ZM229 137h1c2.064 0 .426-3.353 1-4.5l3-5.5-1-1c-4.914 0-4 7.395-4 11Z"/><path fill="#C7CBCA" id="onl" d="M164 222c0 13.926 20.926 18.287 31.5 13 .774-.387 10.454.273 15-2 4.253-2.127 13.386-17.273 15.5-21.5l2.5-10.5 2.5 11.5c2.755 5.509 10.73 18.615 16.5 21.5 3.438 1.719 12.083.541 13 1 9.774 4.887 31.5 1.758 31.5-12l1-2c0-10.779.557-21.614 5-30.5 2.499-4.998-1-35.709-1-42.5v-3c-1.014 0-2-3.959-2-5 0-2.748-5.113-9-8-9-1.028 0-1.44 1.621-1 2.5 2.343 4.685 4 8.8 4 14.5l2 8.5c-1.326 2.653.272 6.456-1 9-6.016 12.032-7.999 25.997-14 38-2.943 5.886-1.135 17.818-8.5 21.5-24.503 12.252-34.5-28.775-34.5-46-2.618 0-1.651 3-4 3 0 6.106-3 11.781-3 1l-4-4-1 1c0 14.485-9.776 57.362-32.5 46-9.3-4.65-6.925-16.35-10.5-23.5-6.257-12.514-7.762-27.523-14-40-1.923-3.846 1-11.024 1-14.5 0-3.831 5.649-17 3-17l-6 6-1 1-1 1v2l-1 2v1c0 1.145.579 4-1 4v3c0 7.378-2.59 38.321 0 43.5 4.126 8.252 5 17.482 5 27.5Z"/><path fill="#99D2BD" id="OLF" d="m163 137-1 1 1-1ZM230 137c0 1.145.579 4-1 4v-4h1ZM162 138l-1 1 1-1ZM295 140c1.638 0 2 3.576 2 5-1.014 0-2-3.959-2-5ZM161 141l-1 2 1-2ZM160 144c-1.579 0-1 2.855-1 4 1.579 0 1-2.855 1-4ZM297 148c1.643 0 1 3.765 1 5 0 2.447.851 10.203 2 12.5 2.883 5.766.149 14.298 3 20 2.321 4.642 8.052 16.896 5 23l-8.5 4.5-6.5 8c0-10.779.557-21.614 5-30.5 2.499-4.998-1-35.709-1-42.5ZM159 151c-2.064 0-.426 3.353-1 4.5-2.044 4.089-3 12.334-3 17 0 7.747-9.442 31.116-7 36l8.5 4.5 7.5 9c0-10.018-.874-19.248-5-27.5-2.59-5.179 0-36.122 0-43.5ZM234 179c-2.618 0-1.651 3-4 3 0-9.435-1-19.082-1-29 2.207 0 .338 5.176 1 6.5 2.475 4.949 4 13.761 4 19.5ZM223 179l4 4v-26c-2.064 0-.426 3.353-1 4.5-2.516 5.033-3 11.431-3 17.5ZM223 179l-1 1 1-1ZM293 221l-1 2 1-2Z"/></svg>