<svg xmlns="http://www.w3.org/2000/svg" viewBox="0 0 456 320"><path fill="#99D2BD" id="OLF" d="M221 187c3.542 0 2.311 9 6 9 0-20.559-1-42.12-1-62-3.324 0-3.137-5-1-5 0-3.052-9.338-6.919-11.5-8-14.711-7.356-25.406 1.703-38 8-2.067 1.034-8.5 5.031-8.5 7 1.156 0 1.472 2.555 1 3.5-1.776 3.551-1 8.771-1 13 0 13.832 2.345 23.691 8 35 .696 1.391 2.391 8.5 4 8.5 0-3.947-3.989-9.523-2-13.5 2.22-4.439 8.466-3.932 11-9 2.079-4.157.981-9.961 3-14l8-16v-6c2.038-4.076 12.11-4.195 15.5-2.5 2.652 1.326 3.462 4.423 4.5 6.5 10.085 20.17 2 25.104 2 45.5ZM235 187c-3.036 0-1.794 8-5 8v-49c0-2.075-.797-15 1-15 0 8.53 4.563-2 0-2 0-2.473 9.537-7.019 11.5-8 13.433-6.716 23.311.156 35 6 2.475 1.238 12.5 6.152 12.5 10l-2-.5c-.053.106 1 17.108 1 19.5 0 12.779-2.788 21.075-8 31.5-.784 1.568-1.924 9.5-4 9.5 0-4.386 4.396-10.708 2-15.5-1.473-2.946-8.124-2.248-10-6-2.062-4.125-.991-9.982-3-14l-7-13c-4.207-8.415 4.14-7.68-7.5-13.5-2.631-1.316-7.261-1.369-10 0l-4.5 6.5c-8.294 16.587-2 27.746-2 45.5Z"/><path fill="#C7CBCA" id="onl" d="M225 129c1.643 0 1 3.765 1 5-3.324 0-3.137-5-1-5ZM231 129c4.563 0 0 10.53 0 2v-2Z"/><path fill="#9AD1BD" id="MOB" d="m216 208-1 1c0 8.708-16.559 17.47-23.5 14-6.673-3.336-11.5-16.901-11.5-24l-1-2v-1c0-3.947-3.989-9.523-2-13.5 2.22-4.439 8.466-3.932 11-9 2.079-4.157.981-9.961 3-14l8-16v-6c2.038-4.076 12.11-4.195 15.5-2.5 2.652 1.326 3.462 4.423 4.5 6.5 10.085 20.17 2 25.104 2 45.5v4c-1.473 0-1 1.952-1 3v2l-1 2v3l-1 1v1l-1 1-1 4ZM240 207l1 1c0 5.65 15.713 18.894 21.5 16 7.447-3.724 12.5-12.558 12.5-21l1-1v-2l1-1v-2c0-4.386 4.396-10.708 2-15.5-1.473-2.946-8.124-2.248-10-6-2.062-4.125-.991-9.982-3-14l-7-13c-4.207-8.415 4.14-7.68-7.5-13.5-2.631-1.316-7.261-1.369-10 0l-4.5 6.5c-8.294 16.587-2 27.746-2 45.5v1c1.579 0 1 2.855 1 4v2l1 2v3l1 1v2l1 1 1 4Z"/><path fill="#C7CBCA" id="onl" d="m216 208-1 1c0 8.708-16.559 17.47-23.5 14-6.673-3.336-11.5-16.901-11.5-24l-1-2v-1c-1.609 0-3.304-7.109-4-8.5-5.655-11.309-8-21.168-8-35 0-4.229-.776-9.449 1-13 .472-.945.156-3.5-1-3.5l-1 1-1 1-1 2-1 1v1l-1 1v1l-1 2v3c0 1.944-.861 16-2 16v12c2.39 0 .178 8.856 1 10.5 3.804 7.609 5 18.425 5 27.5 0 17.301 15.455 26.522 30.5 19l7-1c14.305-7.153 24.5-20.664 24.5-37-3.689 0-2.458-9-6-9v4c0 1.048.473 3-1 3v2l-1 2v3l-1 1v1l-1 1-1 4ZM292 215l-1 1c0 16.767-14.992 25.254-29.5 18l-7-1c-10.072-5.036-19.409-14.318-24.5-24.5-2.044-4.087 0-9.505 0-13.5 3.206 0 1.964-8 5-8v1c0 1.145-.579 4 1 4v2l1 2v3l1 1v2l1 1 1 4 1 1c0 5.65 15.713 18.894 21.5 16 7.447-3.724 12.5-12.558 12.5-21l1-1v-2l1-1v-2c2.076 0 3.216-7.932 4-9.5 5.212-10.425 8-18.721 8-31.5 0-2.392-1.053-19.394-1-19.5l2 .5 1 1 2 2v1l1 1v1l1 2v2c0 1.048-.473 3 1 3v1c0 1.49-.735 8 1 8v25c-2.144 0-.381 4.262-1 5.5-3.391 6.781-4 15.338-4 23.5v2Z"/><path fill="#99D2BD" id="OLF" d="m166 137-1 1 1-1ZM291 138l2 2-2-2ZM164 140l-1 1 1-1ZM293 141l1 1-1-1ZM163 142l-1 1 1-1ZM294 143l1 2-1-2ZM162 144l-1 2 1-2ZM295 147c1.473 0 1 1.952 1 3-1.473 0-1-1.952-1-3ZM161 149c-1.858 0-2 13.161-2 16 1.139 0 2-14.056 2-16ZM296 151c1.735 0 1 6.51 1 8-1.735 0-1-6.51-1-8ZM297 165c1.644 0 1.644 14 0 14v-14ZM159 177c2.39 0 .178 8.856 1 10.5 3.804 7.609 5 18.425 5 27.5l-2.5-4c-1.735-.868-7.555-.609-8.5-2.5-1.785-3.569 1.787-5.575 3-8 3.104-6.207 2-16.063 2-23.5ZM297 184c-2.144 0-.381 4.262-1 5.5-3.391 6.781-4 15.338-4 23.5.208 0 4.454-2.477 5.5-3 1.714-.857 4.362-.224 5.5-2.5 1.288-2.576-2.087-5.174-3-7-2.105-4.21-3-11.59-3-16.5ZM235 188c1.579 0 1 2.855 1 4-1.579 0-1-2.855-1-4ZM221 191c-1.473 0-1 1.952-1 3 1.473 0 1-1.952 1-3ZM236 194l1 2-1-2ZM220 196l-1 2 1-2ZM179 197l1 2-1-2ZM237 199l1 1-1-1ZM277 199l-1 1 1-1ZM219 201l-1 1 1-1ZM238 202l1 1-1-1ZM276 202l-1 1 1-1ZM218 203l-1 1 1-1ZM240 207l1 1-1-1ZM216 208l-1 1 1-1ZM292 215l-1 1 1-1Z"/></svg>