<svg xmlns="http://www.w3.org/2000/svg" viewBox="0 0 456 320"><path fill="#1E9C59" id="MOs1" d="M222 55h1l4-2c0-3.477-4.523-7.023-7-9.5-11.599-11.6-19.047-7.5-35-7.5v5c11.801 0 27.445-4.61 34 8.5 1.089 2.177 3 2.822 3 5.5ZM229 53l5 2c0-2.168 2.899-5.4 4.5-7 9.905-9.905 19.002-7 32.5-7v-5c-12.664 0-28.922-4.656-36 9.5l-6 7.5Z"/><path fill="#1E9D5A" id="MOp1" d="m137 49-1 6c3.908 0 8.174-2.337 11.5-4 4.883-2.441 32.221-10 37.5-10v-5c-7.599 0-31.034 5.767-37.5 9L137 49ZM320 49c0 1.356 2.112 6 0 6-3.908 0-8.174-2.337-11.5-4-5.123-2.561-31.891-10-37.5-10v-5c6.682 0 32.93 6.215 38.5 9l10.5 4Z"/><path fill="#1E9D58" id="MOs2/3" d="m222 55-6 4c0-7.402-16.229-11.136-22.5-8l-9.5 4 1-14c11.801 0 27.445-4.61 34 8.5 1.089 2.177 3 2.822 3 5.5ZM240 59h1c0-7.66 16.161-11.17 22.5-8l9.5 4-2-14c-13.498 0-22.595-2.905-32.5 7-1.601 1.6-4.5 4.832-4.5 7 1.178 0 6 2.572 6 4Z"/><path fill="#1F9C58" id="MOp2/3" d="M135 72v7l48-24h1l1-14c-5.279 0-32.617 7.559-37.5 10-3.326 1.663-7.592 4-11.5 4v1c0 5.4-1 9.596-1 16ZM321 72v6c-9.732 0-39.748-23-48-23l-2-14c5.609 0 32.377 7.439 37.5 10 3.326 1.663 7.592 4 11.5 4v1c0 4.734 1 10.644 1 16Z"/><path fill="#197E64" id="SSp-ul1" d="m101 67 3 4c7.135 0 23.35-15 32-15v-1l1-6c-8.077 0-21.222 9.361-28.5 13l-7.5 5ZM352 72h1c0-1.424.362-5 2-5 0-2.268-5.956-4.228-7.5-5-7.129-3.565-19.548-13-27.5-13 0 1.356 2.112 6 0 6v1c7.825 0 16.751 7.626 23.5 11 1.649.825 8.5 2.45 8.5 5Z"/><path fill="#1F9D58" id="MOs5" d="M202 71h1c0-2.09 9.535-12 13-12 0-7.402-16.229-11.136-22.5-8l-9.5 4h-1c0 6.6-2 11.5-2 18 2.029 0 1.881-1.19 3.5-2 1.923-.961 17.5-6.869 17.5 0ZM254 71c0-6.873 15.54-.98 17.5 0l4.5 3-3-19-9.5-4c-6.339-3.17-22.5.34-22.5 8 1.357 0 12 10.255 12 12h1Z"/><path fill="#3EA665" id="ACAd1" d="M223 81h11V55l-5-2c0 1.93-1.161 0-2 0l-4 2v26Z"/><path fill="#1E9C5A" id="MOp5" d="M135 79v14c4.516 0 28.638-9.569 33.5-12 4.094-2.047 7.647-7 12.5-7v-1c0-6.5 2-11.4 2-18l-48 24Z"/><path fill="#40A565" id="ACAd2/3" d="m223 81-6 2c0-7.895-1-16.783-1-24l6-4h1v26ZM234 82l5 1c0-7.947 1-16.71 1-24 0-1.428-4.822-4-6-4v27Z"/><path fill="#1E9C5A" id="MOp5" d="M321 79v14c-4.677 0-27.472-9.486-32.5-12-3.522-1.761-8.517-7-12.5-7l-3-19c8.252 0 38.268 23 48 23v1Z"/><path fill="#197F61" id="SSp-ul2/3" d="M110 83h1c0-2.185 21.222-11 24-11 0-6.404 1-10.6 1-16-8.65 0-24.865 15-32 15v2c1.88 0 6 8.118 6 10ZM352 72l-6 11c-1.89 0-18.43-11-25-11 0-5.356-1-11.266-1-16 7.825 0 16.751 7.626 23.5 11 1.649.825 8.5 2.45 8.5 5Z"/><path fill="#3EA566" id="ACAd5" d="M217 83c-4.404 0-8.285 6-12 6l-2-18c0-2.09 9.535-12 13-12 0 7.217 1 16.105 1 24ZM239 83c5.235 0 8.65 6 13 6l1-18c0-1.745-10.643-12-12-12h-1c0 7.29-1 16.053-1 24Z"/><path fill="#187E61" id="SSp-m1" d="M59 137h1c0-12.62 17.06-47.28 28.5-53 4.408-2.204 9.504-11 14.5-11v-1c0-1.947-3-2.636-3-5-3.613 0-11.824 11.162-15.5 13C71.45 86.525 55 121.24 55 135l4 2Z"/><path fill="#1B8062" id="SSp-un1" d="M103 72h1v-1l-3-4h-1c0 2.364 3 3.053 3 5ZM357 68l-4 4c0-1.424.362-5 2-5l2 1Z"/><path fill="#1D9C5A" id="MOs6a" d="M190 93c-3.942 0-6.745 2-10 2 0-3.448-2.291-12.918-1-15.5l2-5.5v-1c2.029 0 1.881-1.19 3.5-2 1.923-.961 17.5-6.869 17.5 0 0 2.784-12 15.354-12 22ZM266 93c4.393 0 7.089 2 11 2 0-7.15-1-14.403-1-21l-4.5-3c-1.96-.98-17.5-6.873-17.5 0 2.042 0 12 18.765 12 22Z"/><path fill="#187E61" id="SSp-m1" d="m401 135-4 1-2-4.5c-2.351-4.702-1.627-11.253-4-16l-12-20c-1.147-2.293-5.514-5.029-7-8-1.994-3.988-19-14.44-19-15.5l4-4c4.789 0 7.366 6.933 11.5 9 15.766 7.883 32.5 41.75 32.5 58Z"/><path fill="#3FA664" id="ACAd6a" d="M190 93c2.003 0 5 1.53 5 4 3.509 0 6.265-8 10-8l-2-18h-1c0 2.784-12 15.354-12 22ZM263 95l-2 2c-3.053 0-5.432-7-9-7v-1l1-18h1c2.042 0 12 18.765 12 22-1.238 0-3 .423-3 2Z"/><path fill="#1C7F63" id="SSp-un2/3" d="M103 73h1v-1h-1v1Z"/><path fill="#1A7F63" id="SSp-ul4" d="M111 83c0 2.83 4 4.54 4 7 6.926 0 13.127-11 20-11v-7c-2.778 0-24 8.815-24 11ZM341 90h1c0-2.968 4-4.633 4-7-1.89 0-18.43-11-25-11v7c6.228 0 14.531 11 20 11Z"/><path fill="#1A7E64" id="SSp-m2/3" d="m397 137-10 4c0-11.72-13.557-40.528-24.5-46-5.488-2.744-10.09-12-16.5-12l6-11h1c0 1.06 17.006 11.512 19 15.5 1.486 2.971 5.853 5.707 7 8l12 20c2.373 4.747 1.649 11.298 4 16l2 4.5v1ZM60 137l9 4c0-13.385 16.388-43.444 29.5-50 2.856-1.428 7.311-8 11.5-8 0-1.882-4.12-10-6-10h-1c-4.996 0-10.092 8.796-14.5 11C77.06 89.72 60 124.38 60 137Z"/><path fill="#1F9B5A" id="MOp6a" d="M145 111c-3.823 0-6.314 3-10 3V93c4.516 0 28.638-9.569 33.5-12 4.094-2.047 7.647-7 12.5-7l-2 5.5c-1.291 2.582 1 12.052 1 15.5l-1 1c-1.647 0-7 1.268-7 3-1.424 0-5 .362-5 2l-4 2c-2.338 0-13 3.184-13 6-1.622 0-5-.461-5 2ZM277 96c5.292 0 31.578 12.039 37.5 15 2.139 1.07 5.078 4 7.5 4 0-6.597-1-13.851-1-21v-1c-4.677 0-27.472-9.486-32.5-12-3.522-1.761-8.517-7-12.5-7 0 6.597 1 13.85 1 21v1Z"/><path fill="#187E62" id="SSp-ul5" d="M135 94c-4.879 0-8.527 6-13 6-2.079 0-4.145-9-7-9v-1c6.926 0 13.127-11 20-11v15ZM321 94c5.334 0 9.013 6 14 6l6-10c-5.469 0-13.772-11-20-11v15Z"/><path fill="#3FA566" id="ACAv2/3" d="m221 117-3 1-1-35 6-2c0 11.066-1 22.536-1 33l-1 3Z"/><path fill="#40A664" id="ACAv1" d="M227 109c-2.832 0-2.953 5-5 5 0-10.464 1-21.934 1-33h11v32l-5-5c0-3.471-2-1.581-2 1Z"/><path fill="#3FA566" id="ACAv2/3" d="m235 116 3 2c0-10.955 1-23.388 1-35l-5-1v31l1 3Z"/><path fill="#1B7F62" id="SSp-m4" d="m69 141 6 2c0-8.509 18.874-39.687 27.5-44 4.304-2.152 7.352-8 12.5-8v-1c0-2.46-4-4.17-4-7h-1c-4.189 0-8.644 6.572-11.5 8C85.388 97.556 69 127.615 69 141Z"/><path fill="#3EA666" id="ACAv5" d="M209 114c0 2.251 7.01 4 9 4l-1-35c-4.404 0-8.285 6-12 6v11.5c1.688 3.376 4 9.669 4 13.5ZM247 114c0 3.094-6.901 4-9 4 0-10.955 1-23.388 1-35 5.235 0 8.65 6 13 6v1c0 7.682-5 18.421-5 24Z"/><path fill="#1B7F62" id="SSp-m4" d="M381 144h1c0-1.638 3.576-2 5-2v-1c0-11.72-13.557-40.528-24.5-46-5.488-2.744-10.09-12-16.5-12 0 2.367-4 4.032-4 7l4.5 3c4.821 2.41 8.939 6.94 13 11 8.035 8.035 21.5 29.155 21.5 40Z"/><path fill="#40A564" id="ACAv6a" d="m206 113 3 1c0-3.831-2.312-10.124-4-13.5V89c-3.735 0-6.491 8-10 8v1c0 6.371 11 8.62 11 14v1ZM250 113l-3 1c0-5.579 5-16.318 5-24 3.568 0 5.947 7 9 7v1l-2 5c-1.838 0-8 6.842-8 8l-1 2Z"/><path fill="#1B7E63" id="SSp-m5" d="m381 144-11 4c0-13.778-18.95-47-35-47v-1l6-10h1l4.5 3c4.821 2.41 8.939 6.94 13 11 8.035 8.035 21.5 29.155 21.5 40ZM86 148h1c0-14.9 17.878-47 35-47v-1c-2.079 0-4.145-9-7-9-5.148 0-8.196 5.848-12.5 8-8.626 4.313-27.5 35.491-27.5 44v1c3.793 0 7.525 4 11 4Z"/><path fill="#1E9C58" id="MOs6b" d="M179 96v1c3.818 0 6.678-3 11-3v-1c-3.942 0-6.745 2-10 2l-1 1Z"/><path fill="#3FA466" id="ACAd6b" d="M194 98h1v-1c0-2.47-2.997-4-5-4v1c1.923 0 4 2.104 4 4ZM266 94l-3 1c0-1.577 1.762-2 3-2v1Z"/><path fill="#1E9C58" id="MOs6b" d="M277 96v1c-3.379 0-6.725-3-11-3v-1c4.393 0 7.089 2 11 2v1Z"/><path fill="#197D61" id="SSp-ul6a" d="M132 117h1l1-2 1-1V94c-4.879 0-8.527 6-13 6v1c.558 0 10 13.945 10 16Z"/><path fill="#CACCC7" id="cing" d="M206 112v1c-8.831 0-12.514-11.507-19.5-15-4.362-2.181-12.267 5-16.5 5l-1 1h-1l-1 1h-5l1-2c1.465 0 4 .109 4-2 1.622 0 5 .461 5-2l7-2c3.818 0 6.678-3 11-3 1.923 0 4 2.104 4 4 0 2.678 9.484 14 12 14ZM251 111l-1 2c8.958 0 12.855-11.177 20.5-15 4.342-2.171 13.185 6 17.5 6l2 1h5l-3.5-2c-3.978-1.989-9.922-6-14.5-6-3.379 0-6.725-3-11-3l-3 1c0 1.048.473 3-1 3 0 1.408-1.197 5-3 5 0 2.664-5.336 8-8 8Z"/><path fill="#197D61" id="SSp-ul6a" d="m322 115 2 1c2.048 0 7.492-15 11-15v-1c-4.987 0-8.666-6-14-6 0 7.149 1 14.403 1 21Z"/><path fill="#1D9D5A" id="MOp6b" d="m180 95-1 1 1-1Z"/><path fill="#3FA466" id="ACAd6b" d="M261 98h1c1.473 0 1-1.952 1-3l-2 2v1Z"/><path fill="#1D9D5A" id="MOp6b" d="m179 97-7 2c0-1.732 5.353-3 7-3v1ZM322 115v2c-4.413 0-20.736-12-27-12l-3.5-2c-3.978-1.989-9.922-6-14.5-6v-1c5.292 0 31.578 12.039 37.5 15 2.139 1.07 5.078 4 7.5 4Z"/><path fill="#C9C7C9" id="ccb" d="M354 165h1v-3l-1-1v-1l-1-2v-2l-2-4v-1l-2-4v-1c-2.545 0-3.133-5.633-4.5-7-6.323-6.323-9.895-13.947-18-18-8.572-4.286-17.463-7.731-26-12-1.615-.807-9.5-1.736-9.5-4h-1l-2-1c-4.315 0-13.158-8.171-17.5-6-7.645 3.823-11.542 15-20.5 15l-3 1c0 3.094-6.901 4-9 4l-3-2c0 4.894-11.25 1-14 1l-3 1c-1.99 0-9-1.749-9-4l-3-1c-8.831 0-12.514-11.507-19.5-15-4.362-2.181-12.267 5-16.5 5l-1 1h-1l-1 1h-1c0 1.845-3.381 1.441-4.5 2-5.753 2.877-12.292 4.146-18 7-6.541 3.271-12.385 7.692-19 11l-7.5 7-1 1c0 1.429-1.288 4-3 4 0 1.238-.423 3-2 3 0 1.238-.423 3-2 3l-1 2-1 2c0 1.424-.362 5-2 5v1l-1 2v1l-1 1v3l-1 1-1 4h1c2.378 0 4.02-11.54 5-13.5 3.557-7.114 11.184-20.342 19.5-24.5 8.447-4.223 34.689-17.655 44-13 2.391 1.195 14.5-2.071 14.5 2 2.502 0 10 1.893 10 5h1l1 1 2 1 1 1 2 1 1 1 3 3h1c5.815 0 12.677 5 15 5l1 1h2c0-3.588 6-3.588 6 0h2l2-1c0-2.783 11.348-5 14-5h1l2-2 1-1 1-1h1l1-1 2-1 1-1 1-1h1l2-1 1-1c0-2.282 5.29-3 7-3 2.222 0 15.135-4.183 17.5-3 7.717 3.859 18.223 2.112 26 6 13.152 6.576 25.603 13.706 32.5 27.5l2 7 5 11.5Z"/><path fill="#40A465" id="ACAv6b" d="M195 98c0 6.371 11 8.62 11 14-2.516 0-12-11.322-12-14h1ZM262 98c0 1.408-1.197 5-3 5l2-5h1Z"/><path fill="#1D9D5A" id="MOp6b" d="M172 99c-1.424 0-5 .362-5 2 1.622 0 5 .461 5-2Z"/><path fill="#187D61" id="SSp-m6a" d="M87 148c4.032 0 9.95 4.225 13.5 6 1.968.984-1.905 3 .5 3 1.632 0 3.212-9.924 4-11.5 3.311-6.622 18.689-28.5 27-28.5 0-2.055-9.442-16-10-16-17.122 0-35 32.1-35 47Z"/><path fill="#1D9D5A" id="MOp6b" d="m167 101-4 2c1.465 0 4 .109 4-2Z"/><path fill="#187D61" id="SSp-m6a" d="M370 149c-2.338 0-15 2.791-15 5.5 0 .949 1 2.951 1 4.5-1.951 0-.477-2.454-1-3.5-1.637-3.274-2.38-6.761-4-10-4.088-8.175-18.032-28.5-27-28.5v-1c2.048 0 7.492-15 11-15 16.05 0 35 33.222 35 47v1Z"/><path fill="#1D9D5A" id="MOp6b" d="M162 105c-4.503 0-7.736 4-12 4 0-2.816 10.662-6 13-6l-1 2Z"/><path fill="#C9C9CA" id="scwm" d="m170 103-1 1 1-1Z"/><path fill="#40A465" id="ACAv6b" d="M259 103c-1.838 0-8 6.842-8 8 2.664 0 8-5.336 8-8Z"/><path fill="#C9C9CA" id="scwm" d="m168 104-1 1 1-1ZM288 104l2 1-2-1ZM133 117c0 1.213-16 9.62-16 15l7.5-7c6.615-3.308 12.459-7.729 19-11 5.708-2.854 12.247-4.123 18-7 1.119-.559 4.5-.155 4.5-2h-4c-4.503 0-7.736 4-12 4 0 1.638-3.576 2-5 2l-10 5-2 1ZM323 117l8 5.5c4.844 4.844 18 17.429 18 23.5-2.545 0-3.133-5.633-4.5-7-6.323-6.323-9.895-13.947-18-18-8.572-4.286-17.463-7.731-26-12-1.615-.807-9.5-1.736-9.5-4h4c6.264 0 22.587 12 27 12h1Z"/><path fill="#7ED04B" id="IG" d="M235 116c0 4.894-11.25 1-14 1l1-3c2.047 0 2.168-5 5-5 1.577 0 2 1.729 2-1l5 5 1 3Z"/><path fill="#1D9D5A" id="MOp6b" d="M150 109c-1.622 0-5-.461-5 2 1.424 0 5-.362 5-2ZM135 115v1l10-5c-3.823 0-6.314 3-10 3v1Z"/><path fill="#98D5F9" id="CP" d="m123 230 9 5c13.52 0 25.363.569 36.5-5 4.862-2.431 6.549-8.597 8.5-12.5.771-1.542.465-7.5 3-7.5l9-10 2-4c0-7.694 1-15.926 1-23l2-15c0-1.048-.473-3 1-3v-1c0-7.191 1-16.499-2-22.5-1.589-3.179-5-8.949-5-12.5l-3-3c0-4.071-12.109-.805-14.5-2-9.311-4.655-35.553 8.777-44 13-8.316 4.158-15.943 17.386-19.5 24.5-.98 1.96-2.622 13.5-5 13.5 0 1.824.781 12-1 12v4c1.781 0 1.348 6.197 2 7.5 2.816 5.633 6 16.062 6 22.5v1l1 1v1l1 1 1 3 1 1v1c1.59 0 6 5.662 6 7l4 3ZM333 231l-8 4c-12.379 0-25.24 1.13-35.5-4-6.543-3.271-7.962-10.424-10.5-15.5-.706-1.411-.386-5.5-3-5.5 0-2.154-6.545-9.045-8.5-11l-2.5-4v-18.5c0-1.278.665-5.5-1-5.5l-1-12-1-1v-1c0-7.178-2.057-19.386 1-25.5 1.082-2.164 6-10.611 6-12.5l2-3c2.222 0 15.135-4.183 17.5-3 7.717 3.859 18.223 2.112 26 6 13.152 6.576 25.603 13.706 32.5 27.5l2 7 5 11.5c0 4.389 3.337 13.826 1 18.5-3.498 6.995-7 18.36-7 26.5l-1 1v2l-1 1v1l-1 1v1l-1 1-1 2-1 1-1 1v1l-1 1-1 1-1 1-1 1-4 4Z"/><path fill="#1F9B5A" id="MOp6a" d="M134 115h1v-1l-1 1Z"/><path fill="#1C8064" id="SSp-ul6b" d="m135 116-2 1 1-2h1v1ZM323 117h1v-1l-2-1v2h1Z"/><path fill="#AAA8A9" id="SEZ" d="M188 119c2.206 0 4.575 2 7 2 0-3.107-7.498-5-10-5l3 3ZM264 119h5l2-3c-1.71 0-7 .718-7 3Z"/><path fill="#188064" id="SSp-m6b" d="M99 167h2v-2l1-4 1-1v-3l1-1v-1l1-2v-1c0-1.424.362-5 2-5l1-2 1-2c0-1.238.423-3 2-3 0-1.238.423-3 2-3 0-1.429 1.288-4 3-4l1-1c0-5.38 16-13.787 16-15h-1c-8.311 0-23.689 21.878-27 28.5-.788 1.576-2.368 11.5-4 11.5v2l-1 5-1 1v2ZM356 167h1v-5l-1-1v-2c-1.951 0-.477-2.454-1-3.5-1.637-3.274-2.38-6.761-4-10-4.088-8.175-18.032-28.5-27-28.5h-1l8 5.5c4.844 4.844 18 17.429 18 23.5v1c2.109 0 2 2.535 2 4v1l2 4v2l1 2v1l1 1v3l1 2Z"/><path fill="#A8AAAA" id="VL" d="M197 149c0 .671-1.328 5-2 5 0-7.191 1-16.499-2-22.5-1.589-3.179-5-8.949-5-12.5 2.206 0 4.575 2 7 2h1l1 1 2 1 1 1 2 1 1 1 3 3v2c-.945 0-9 15.338-9 18ZM261 155l1 2c0-7.178-2.057-19.386 1-25.5 1.082-2.164 6-10.611 6-12.5h-5l-1 1-2 1h-1l-1 1-1 1-2 1-1 1h-1l-1 1-1 1-2 2v1c0 5 9 11.496 9 19 1.353 0 2 4.643 2 6Z"/><path fill="#AAA8A9" id="SEZ" d="m264 119-1 1 1-1ZM263 120l-2 1 2-1ZM196 121l1 1-1-1ZM260 121l-1 1 1-1ZM259 122l-1 1 1-1ZM199 123l1 1-1-1ZM256 124l-1 1 1-1ZM202 125l1 1-1-1ZM254 125l-1 1 1-1ZM253 126l-1 1 1-1Z"/><path fill="#97D6F9" id="STR" d="m207 129-1 2v-2h1Z"/><path fill="#90CBEC" id="LSc" d="m202 149-1 1-4-1c0-2.662 8.055-18 9-18l1-2c5.815 0 12.677 5 15 5v2l-1 1-2.5 3c-2.625 1.313-14.707 9-16.5 9ZM254 149h5c0-7.504-9-14-9-19l-1-1c-2.652 0-14 2.217-14 5 0 2.25 2 3.376 2 5l17 10Z"/><path fill="#97D6F9" id="STR" d="M250 129v1l-1-1h1Z"/><path fill="#C9C9CA" id="scwm" d="m117 132-1 1 1-1Z"/><path fill="#97D6F9" id="STR" d="M225 135h6c0-3.588-6-3.588-6 0Z"/><path fill="#C9C9CA" id="scwm" d="M116 133c-1.712 0-3 2.571-3 4 1.712 0 3-2.571 3-4Z"/><path fill="#97D6F9" id="STR" d="m223 135-1 1v-2l1 1ZM233 135l4 4c0-1.624-2-2.75-2-5l-2 1Z"/><path fill="#1A7E62" id="SSs1" d="M56 176c-1.145 0-4-.579-4 1-1.68 0-2-9.076-2-11 0-4.168-2.2-11.101 0-15.5 2.078-4.157 5-10.665 5-15.5l4 2c0 5.314-1.717 12.934-4 17.5-2.545 5.091 1 15.643 1 20.5v1Z"/><path fill="#90CAED" id="LSr" d="M220 198h1c0-11.819 4-22.29 4-34l1-1v-1c0-17.986 5-10.307 5 1l5 36 5.5-8 18-17c2.712-1.356 3.183 2 4.5 2v-5l-1-12-1-1v-1l-1-2c-1.171 0-7-3.976-7-6l-17-10-4-4h-10l-1 1-1 1-2.5 3c-2.625 1.313-14.707 9-16.5 9l-1 1-6 6-1 2-2 15 1 2 3.5-1 16 15 7.5 9Z"/><path fill="#1A7E62" id="SSs1" d="m401 175 4 2c0-6 5.257-16.986 2-23.5l-6-18.5-4 1v1c0 4.377 2.078 11.655 4 15.5V175Z"/><path fill="#97D6F9" id="STR" d="m222 136-1 1 1-1Z"/><path fill="#1B8063" id="SSs2/3" d="m60 175-2 1-2-1c0-4.857-3.545-15.409-1-20.5 2.283-4.566 4-12.186 4-17.5h1l9 4c0 10.618-3 20.575-3 32l-6 2Z"/><path fill="#C9C9CA" id="scwm" d="M113 137c-1.577 0-2 1.762-2 3 1.577 0 2-1.762 2-3Z"/><path fill="#1B8063" id="SSs2/3" d="M400 175h1v-22.5c-1.922-3.845-4-11.123-4-15.5l-10 4v1l2 6.5 2 24.5v1l6 1h3Z"/><path fill="#C9C9CA" id="scwm" d="M111 140c-1.577 0-2 1.762-2 3 1.577 0 2-1.762 2-3Z"/><path fill="#187C63" id="SSs4" d="M66 173h4l1-1 1-18.5 3-9.5v-1l-6-2c0 10.618-3 20.575-3 32ZM386 173h5l-2-24.5-2-6.5c-1.424 0-5 .362-5 2 0 9.241 4 19.024 4 29Z"/><path fill="#C9C9CA" id="scwm" d="m109 143-1 2 1-2Z"/><path fill="#1C8063" id="SSs5" d="M84 170c-4.08 0-8.364 2-13 2l1-18.5 3-9.5c3.793 0 7.525 4 11 4 0 7.504-2 14.186-2 22ZM372 170l14 3c0-9.976-4-19.759-4-29h-1l-11 4v1c0 6.558 2 13.641 2 21Z"/><path fill="#C9C9CA" id="scwm" d="m108 145-1 2 1-2ZM107 147c-1.638 0-2 3.576-2 5 1.638 0 2-3.576 2-5ZM349 147c2.109 0 2 2.535 2 4l-2-4Z"/><path fill="#197D63" id="SSs6a" d="m99 168-15 2c0-7.814 2-14.496 2-22h1c4.032 0 9.95 4.225 13.5 6 1.968.984-1.905 3 .5 3v1c-1.186 0-1.186 1 0 1l-1 5-1 1v3Z"/><path fill="#97D6F9" id="STR" d="M195 155v1l6-6-4-1c0 .671-1.328 5-2 5v1ZM202 149l-1 1 1-1ZM259 149c1.353 0 2 4.643 2 6-1.171 0-7-3.976-7-6h5Z"/><path fill="#197D63" id="SSs6a" d="m358 168 14 2c0-7.359-2-14.442-2-21-2.338 0-15 2.791-15 5.5 0 .949 1 2.951 1 4.5v2l1 1v5l1 1Z"/><path fill="#97D6F9" id="STR" d="m226 162 2.5-2 2.5 3c0-11.307-5-18.986-5-1Z"/><path fill="#C9C9CA" id="scwm" d="m351 152 2 4-2-4ZM105 153l-1 2 1-2Z"/><path fill="#A8AAAA" id="VL" d="m195 156-1 2c0-1.048-.473-3 1-3v1Z"/><path fill="#C9C9CA" id="scwm" d="m104 156-1 1 1-1Z"/><path fill="#187D61" id="SSp-m6a" d="M101 158c-1.186 0-1.186 1 0 1v-1Z"/><path fill="#A8AAAA" id="VL" d="m262 158 1 1-1-1Z"/><path fill="#C9C9CA" id="scwm" d="m353 158 1 2-1-2ZM103 160l-1 1 1-1Z"/><path fill="#96A7D3" id="MS" d="m229 242 2 1 3-4 1-1v-1c0-8.774 1-18.617 1-28v-10l-5-36-2.5-3-2.5 2v1l-1 1c0 11.71-4 22.181-4 34v9l-1 2v21.5c.805 1.61 2 5.802 2 7.5l3 5 3-1c0-1.186 1-1.186 1 0Z"/><path fill="#C9C9CA" id="scwm" d="m354 161 1 1-1-1Z"/><path fill="#1A8061" id="SSs6b" d="m356 161 1 1-1-1Z"/><path fill="#97D6F9" id="STR" d="m226 163-1 1 1-1Z"/><path fill="#1A8061" id="SSs6b" d="m100 164-1 1 1-1Z"/><path fill="#C8CBCC" id="ec" d="M101 167c0 1.249-2.628 10 0 10 1.781 0 1-10.176 1-12h-1v2ZM348 210h1v-1l2-3v-4c0-1.041.986-5 2-5v-1c0-1.424.362-5 2-5v-1l1-7v-16l-1-2h-1c0 4.389 3.337 13.826 1 18.5-3.498 6.995-7 18.36-7 26.5Z"/><path fill="#019C74" id="GU6b" d="M99 183h2v-6c-2.628 0 0-8.751 0-10h-2v16ZM356 183h1l1-15-1-1h-1v16Z"/><path fill="#009B74" id="GU6a" d="M99 183c-3.858 0-10.022 6-14 6 0-6.182-1-12.372-1-19l15-2v15ZM357 183c4.804 0 8.412 5 14 5 0-5.245 1-12.085 1-18l-14-2-1 15Z"/><path fill="#019C75" id="GU5" d="m77 193-5 1c0-6.649-2-13.578-2-21l1-1c4.636 0 8.92-2 13-2 0 6.628 1 12.818 1 19-2.329 0-8 1.9-8 4ZM380 193l4 1 2-6.5V173l-14-3c0 5.915-1 12.755-1 18v1c2.097 0 9 1.533 9 4Z"/><path fill="#A8AAAA" id="VL" d="M263 195c.839 0 2 1.93 2 0v-18.5c0-1.278.665-5.5-1-5.5v5l-1 19Z"/><path fill="#009B75" id="GU2/3" d="M62 197h1c1.812 0 4.82-3 7-3 0-6.888-4-13.373-4-21l-6 2-2 1-1 1c0 7.583 5 13.166 5 20Z"/><path fill="#009C74" id="GU4" d="M70 194h2c0-6.649-2-13.578-2-21h-4c0 7.627 4 14.112 4 21Z"/><path fill="#A8AAAA" id="VL" d="M193 194c0 1.258-2 4.206-2 2 0-7.694 1-15.926 1-23l1 2v19Z"/><path fill="#009C74" id="GU4" d="M384 194h2c0-3.125 2.535-10.569 4-13.5.662-1.324-1.207-6.5 1-6.5v-1h-5v14.5l-2 6.5Z"/><path fill="#8FCBED" id="LSv" d="M220 209v1c-1.606 0-4.339 2.081-6.5 1L201 201h-1l-2-2h-1l-4-5v-19l3.5-1 16 15 7.5 9c0 1.145-.579 4 1 4v5l-1 2ZM253 204c-4.225 0-6.967 5.234-10.5 7-3.127 1.563-5.202-2-6.5-2v-10l5.5-8 18-17c2.712-1.356 3.183 2 4.5 2l-1 19-4 4-2 1-1 1-1 1-1 1-1 1Z"/><path fill="#009B75" id="GU2/3" d="M394 197h1c0-7.005 5-13.008 5-20l-3-2-6-1c-2.207 0-.338 5.176-1 6.5-1.465 2.931-4 10.375-4 13.5l8 3Z"/><path fill="#12AC83" id="VISC2/3" d="M56 177h1l1-1-2-1v2ZM60 175l-2 1 2-1ZM400 175v2l-3-2h3Z"/><path fill="#12AD83" id="VISC1" d="M405 177v1l-5-1v-2h1l4 2ZM56 177l-4 1v-1c0-1.579 2.855-1 4-1v1Z"/><path fill="#009C75" id="GU1" d="M62 197c-1.048 0-3-.473-3 1-1.845 0-1.44-3.381-2-4.5L52 178l4-1h1c0 7.583 5 13.166 5 20ZM395 197l3 1c0-6.43 7-13.623 7-20l-5-1c0 6.992-5 12.995-5 20Z"/><path fill="#C8CBCC" id="ec" d="m108 210 1 1c0-6.438-3.184-16.867-6-22.5-.652-1.303-.219-7.5-2-7.5v8c0 1.714 2 3.482 2 6v1c1.995 0 2 4.377 2 6l1 5 2 3Z"/><path fill="#209666" id="AId6a" d="M91 205h4c0-1.446-3.257-19.879 4.5-16l3.5 6c0-2.518-2-4.286-2-6-.913 0-2-5.014-2-6-3.858 0-10.022 6-14 6l5 16h1Z"/><path fill="#1F9766" id="AId6b" d="M101 183v6c-.913 0-2-5.014-2-6h2ZM355 190h1l1-1v-6h-1l-1 7Z"/><path fill="#209666" id="AId6a" d="m361 204 5 1c0-5.295 5-10.003 5-16v-1c-5.588 0-9.196-5-14-5v6c9.359 0 4 11.227 4 15Z"/><path fill="#209665" id="AId5" d="M90 205c-1.49 0-8-.735-8 1-1.494 0-5-11.336-5-13 0-2.1 5.671-4 8-4l5 16Z"/><path fill="#8ADA86" id="CLA" d="m102 208-2 1c-2.741 0-2.75-4-5-4 0-1.446-3.257-19.879 4.5-16l3.5 6v1l1 6c0 2.518-2 4.286-2 6ZM352 202c0 6.344 9 8.587 9 2 0-3.773 5.359-15-4-15l-1 1-1 1c0 1.424-.362 5-2 5v1l-1 5Z"/><path fill="#209665" id="AId5" d="M366 205c3.013 0 6.611 1 9 1l2-3.5c0-.769.797-9.5 3-9.5 0-2.467-6.903-4-9-4 0 5.997-5 10.705-5 16Z"/><path fill="#209666" id="AId6a" d="m356 190-1 1v-1h1ZM355 191c-1.638 0-2 3.576-2 5 1.638 0 2-3.576 2-5Z"/><path fill="#219864" id="AIp5" d="M82 206c0 1.698 3.246 8 2 8 0-3.105-12-13.516-12-20l5-1c0 1.664 3.506 13 5 13ZM375 206l-2 6c3.086 0 11-15.343 11-18l-4-1c-2.203 0-3 8.731-3 9.5l-2 3.5Z"/><path fill="#209865" id="AIp2/3" d="m84 215-12 4c0-7.805-9-13.64-9-22 1.812 0 4.82-3 7-3h2c0 6.484 12 16.895 12 20v1Z"/><path fill="#97D6F9" id="STR" d="m197 199-8 1 2-4c0 2.206 2-.742 2-2l4 5Z"/><path fill="#209865" id="AIp2/3" d="M372 215c3.997 0 8.336 4 12 4 0-7.428 10-14.141 10-22l-8-3h-2c0 2.657-7.914 18-11 18l-1 2v1Z"/><path fill="#97D6F9" id="STR" d="m276 210-3 1-6-3c0-7.055.774-9-8-9l4-4c.839 0 2 1.93 2 0l2.5 4c1.955 1.955 8.5 8.846 8.5 11Z"/><path fill="#209666" id="AId6a" d="M104 202h1c0-1.623-.005-6-2-6l1 6Z"/><path fill="#219765" id="AIp1" d="m72 219-5 1c0-5.68-8-14.605-8-22 0-1.473 1.952-1 3-1h1c0 8.36 9 14.195 9 22Z"/><path fill="#209666" id="AId6a" d="M351 202h1l1-5c-1.014 0-2 3.959-2 5Z"/><path fill="#219765" id="AIp1" d="m384 219 5 1c0-4 9-15.972 9-22l-3-1h-1c0 7.859-10 14.572-10 22Z"/><path fill="#97D6F9" id="STR" d="M221 198v4c-1.579 0-1-2.855-1-4h1Z"/><path fill="#B3C0DE" id="BST" d="M185 225v3c4.011 0 6.722 3.389 11.5 1l6.5-4.5 2-3.5v-12.5l-4-7.5h-1l-2-2h-1l-8 1v8c9.822 0 5.754 15-3 15l-1 2Z"/><path fill="#97D6F9" id="STR" d="m198 199 2 2-2-2ZM259 199l-2 1 2-1Z"/><path fill="#B3C0DE" id="BST" d="m252 222 3.5 5c5.97 2.985 15.5 5.892 15.5-4-8.652 0-13.181-15-4-15 0-7.055.774-9-8-9l-2 1-1 1-1 1-1 1-1 1c0 2.613-.93 4.36-2 6.5l1 11.5Z"/><path fill="#97D6F9" id="STR" d="M180 210c1.048 0 3-.473 3 1l6-3v-8l-9 10ZM257 200l-1 1 1-1ZM220 237l2 1c0-1.698-1.195-5.89-2-7.5V210c-1.606 0-4.339 2.081-6.5 1L201 201l4 7.5V221c0 9.558 14 13.813 14 16h1Z"/><path fill="#1F9866" id="AIv6a" d="m106 207-4 1c0-1.714 2-3.482 2-6h1l1 5Z"/><path fill="#97D6F9" id="STR" d="m255 202-1 1 1-1Z"/><path fill="#1F9866" id="AIv6a" d="M356 209c2.087 0 4.393 3 7 3l3-7-5-1c0 6.587-9 4.344-9-2h-1v4l3 3h2Z"/><path fill="#97D6F9" id="STR" d="m254 203-1 1 1-1ZM237 237h1c0-2.576 14-7.562 14-15l-1-11.5c1.07-2.14 2-3.887 2-6.5-4.225 0-6.967 5.234-10.5 7-3.127 1.563-5.202-2-6.5-2 0 9.383-1 19.226-1 28h2Z"/><path fill="#1F9865" id="AIv5" d="m89 214-5 1v-1c1.246 0-2-6.302-2-8 0-1.735 6.51-1 8-1h1l2 7-4 2Z"/><path fill="#1F9866" id="AIv6a" d="m99 211-6 1-2-7h4c2.25 0 2.259 4 5 4v1l-1 1Z"/><path fill="#1F9865" id="AIv5" d="M372 214v1l-5-1-4-2 3-7c3.013 0 6.611 1 9 1l-2 6-1 2Z"/><path fill="#8AD987" id="CTXsp" d="M349 209h5l-3-3-2 3ZM102 209c2.124 0 4.436 1 6 1l-2-3-4 1v1Z"/><path fill="#97D6F9" id="STR" d="m221 207-1 2 1-2Z"/><path fill="#1F9866" id="AIv6a" d="M101 209h1v-1l-2 1h1Z"/><path fill="#CBCBC7" id="aco" d="M184 223h2c8.754 0 12.822-15 3-15l-6 3-2 8.5 3 3.5ZM271 223h1c6.412 0 1-10.19 1-12l-6-3c-9.181 0-4.652 15 4 15Z"/><path fill="#99D2BD" id="OLF" d="m101 209-1 1v-1h1Z"/><path fill="#A0EE9C" id="EPd" d="m107 228 9 3c0-1.24 2-1.576 2-4l-5-7v-1l-1-1-1-3-1-1v-1l-1-1v-1l-1-1c-1.564 0-3.876-1-6-1h-1l-1 1-1 1v12l1 1 2 1 2 2h1l1 1h1ZM340 231h2l1-1h2l2-1h1l2-1 1-1h1l1-1h1l1-1 1-1 1-1 1-1 1-2c0-4.713-3-9.865-3-10l-1-1h-6v1l-1 1h-1v2l-1 1v1l-1 1v1l-1 1-1 2-1 1-1 1v1l-1 1-1 1v1l-1 1 2 4Z"/><path fill="#8AD987" id="CTXsp" d="M356 209v1l-1-1h1Z"/><path fill="#99D2BD" id="OLF" d="M367 214c-4.043 0-5.395 6-8 6 0-4.713-3-9.865-3-10v-1c2.087 0 4.393 3 7 3l4 2ZM100 210l-1 1 1-1Z"/><path fill="#80CDF8" id="ACB" d="m135 254 1 1 4.5 4 7 3c7.602 3.801 37.5-13.52 37.5-21v-16l-1-2-3-3.5 2-8.5c0-1.473-1.952-1-3-1-2.535 0-2.229 5.958-3 7.5-1.951 3.903-3.638 10.069-8.5 12.5-11.137 5.569-22.98 5-36.5 5l-3 3c0 5.27 6 10.25 6 16ZM271 241l4.5 6c6.238 3.119 13.454 10.227 21 14 11.918 5.959 19.26-6 24.5-6l6-17-2-3c-12.379 0-25.24 1.13-35.5-4-6.543-3.271-7.962-10.424-10.5-15.5-.706-1.411-.386-5.5-3-5.5l-3 1c0 1.81 5.412 12-1 12l-1 18Z"/><path fill="#C8CBCC" id="ec" d="M347 211h1v-1l-1 1Z"/><path fill="#8AD987" id="CTXsp" d="m349 210-1 1v-1h1Z"/><path fill="#99D2BD" id="OLF" d="M89 214c4.72 0 6.958 8 10 8v-11l-6 1-4 2Z"/><path fill="#C8CBCC" id="ec" d="m109 212 1 1-1-1Z"/><path fill="#219864" id="AIp5" d="m373 212-1 2 1-2Z"/><path fill="#C8CBCC" id="ec" d="m347 213-1 1 1-1Z"/><path fill="#6ACAB9" id="PIR" d="m118 264 2 1c1.604 0 4.282-5 7-5 0-2.029 1.191-1.881 2-3.5 2.451-4.902.118-10.764-2-15-2.629-5.259-10.137-8.319-14.5-10.5l-5.5-3h-1l-1-1h-1l-2-2-2-1-1-1v-1c-3.042 0-5.28-8-10-8l-5 1-12 4-5 1c0 6.338 15.604 26.052 21.5 29 1.436.718 4.07 6 6.5 6 4.537 0 23 3.189 23 9Z"/><path fill="#C8CBCC" id="ec" d="m110 214 1 1-1-1Z"/><path fill="#6ACAB9" id="PIR" d="m338 264-1 1-7-5-3-4.5c-1.827-3.655.63-11.26 2-14l8.5-7.5 5.5-3 2-1 2-1h1l2-1 1-1h1l1-1h1l1-1 1-1 1-1 1-1 1-2c2.605 0 3.957-6 8-6l5 1c3.997 0 8.336 4 12 4l5 1c0 8.673-11.226 19.726-17.5 26l-9.5 9c-6.662 0-12.988 1.244-18.5 4l-5.5 5Z"/><path fill="#C8CBCC" id="ec" d="m346 215-1 1 1-1ZM345 217l-1 1 1-1ZM112 218l1 1-1-1ZM118 227h1c0-1.338-4.41-7-6-7l5 7ZM343 220l-1 1 1-1Z"/><path fill="#99D2BD" id="OLF" d="m359 220-1 2 1-2Z"/><path fill="#E64438" id="HY" d="M201 247c2.371 0 5 .017 5 3 1.644 0 7.564-13 13-13 0-2.187-14-6.442-14-16l-2 3.5-6.5 4.5c-4.778 2.389-7.489-1-11.5-1v13c6.72 0 18-23.148 18-5v5l-2 6Z"/><path fill="#C8CBCC" id="ec" d="m342 221-1 1 1-1Z"/><path fill="#E64438" id="HY" d="M250 251h1c0-3.115.885-4 4-4 0-4.939-2-9.155-2-14.5 0-2.234 1.806-4.847 4.5-3.5 4.177 2.088 7.785 12 13.5 12l1-18h-1c0 9.892-9.53 6.985-15.5 4l-3.5-5c0 7.438-14 12.424-14 15 4.078 0 12 10.401 12 14Z"/><path fill="#99D2BD" id="OLF" d="m358 222-1 1 1-1ZM99 223l1 1-1-1Z"/><path fill="#E64438" id="HY" d="m186 223-1 2-1-2h2Z"/><path fill="#C8CBCC" id="ec" d="m341 223-1 1 1-1Z"/><path fill="#99D2BD" id="OLF" d="m357 223-1 1 1-1Z"/><path fill="#C8CBCC" id="ec" d="m340 224-1 1 1-1Z"/><path fill="#99D2BD" id="OLF" d="m356 224-1 1 1-1ZM102 225l2 2-2-2Z"/><path fill="#C8CBCC" id="ec" d="M338 226h1v-1l-1 1Z"/><path fill="#99D2BD" id="OLF" d="m355 225-1 1 1-1Z"/><path fill="#C8CBCC" id="ec" d="M337 227h1v-1l-1 1Z"/><path fill="#8AD987" id="CTXsp" d="m339 226-1 1v-1h1Z"/><path fill="#99D2BD" id="OLF" d="m353 226-1 1 1-1ZM105 227l1 1-1-1Z"/><path fill="#8AD987" id="CTXsp" d="M116 231c2.338 0 4.862 2 8 2l-1-3-4-3h-1c0 2.424-2 2.76-2 4ZM340 231c0 2.273-5.226 2-7 2v-2l4-4h1l2 4Z"/><path fill="#99D2BD" id="OLF" d="m351 227-1 1 1-1ZM127 260h1c1.45 0 7-3.126 7-5v-1c0-5.75-6-10.73-6-16l-5-5c-3.138 0-5.662-2-8-2l-9-3 5.5 3c4.363 2.181 11.871 5.241 14.5 10.5 2.118 4.236 4.451 10.098 2 15-.809 1.619-2 1.471-2 3.5ZM350 228l-2 1 2-1Z"/><path fill="#A2B1D7" id="SI" d="M187 267c-5.312 0-3 6.352-3 9-17.613 0-25.066 5.217-41.5-3-3.334-1.667-5.967-2.434-7.5-5.5-1.19-2.38-7-3.714-7-7.5 1.45 0 7-3.126 7-5h1l4.5 4 7 3c7.602 3.801 37.5-13.52 37.5-21 6.72 0 18-23.148 18-5v5l-2 6c0 7.208-14 17.775-14 20ZM272 275v1c7.07 0 26.916 4.792 32.5 2 4.404-2.202 8.488-4.744 13-7 2.815-1.407 11.5-7.452 11.5-11-1.738 0-8-3.015-8-5-5.24 0-12.582 11.959-24.5 6-7.546-3.773-14.762-10.881-21-14l-4.5-6c-5.715 0-9.323-9.912-13.5-12-2.694-1.347-4.5 1.266-4.5 3.5 0 5.345 2 9.561 2 14.5 0 5.502 14 18.073 14 19 3.477 0 5.673 9 3 9Z"/><path fill="#99D2BD" id="OLF" d="m347 229-2 1 2-1Z"/><path fill="#97D6F9" id="STR" d="m132 235-3 3-5-5-1-3 9 5Z"/><path fill="#8AD987" id="CTXsp" d="M342 231h1v-1l-1 1Z"/><path fill="#99D2BD" id="OLF" d="m345 230-2 1v-1h2Z"/><path fill="#97D6F9" id="STR" d="m325 235 2 3 6-5v-2l-8 4Z"/><path fill="#99D2BD" id="OLF" d="M329 260h1l-3-4.5c-1.827-3.655.63-11.26 2-14l8.5-7.5 5.5-3h-3c0 2.273-5.226 2-7 2l-6 5-6 17c0 1.985 6.262 5 8 5Z"/><path fill="#FF5346" id="MPO" d="M212 264h3c0-6.068 9-14.019 9-19l-4-8h-1c-5.436 0-11.356 13-13 13l-1 7v2c4.681 0 7-5.071 7 5Z"/><path fill="#E64438" id="HY" d="m225 243-1 2-4-8 2 1 3 5ZM235 238v1l2-2h-2v1Z"/><path fill="#FF5346" id="MPO" d="M242 264h2c2.144 0 .381-4.262 1-5.5 1.019-2.039 4.082-.5 6-.5h1c0-1.564-1-3.876-1-6l-1-1c0-3.599-7.922-14-12-14h-1l-2 2-3 6c0 3.53 6.32 11.139 8 14.5.465.93.817 4.5 2 4.5Z"/><path fill="#97D6F9" id="STR" d="M234 239h1v-1l-1 1Z"/><path fill="#E64438" id="HY" d="m231 243 1 2 3-6h-1l-3 4Z"/><path fill="#FE5446" id="AVPV" d="M226 267c-.945 0-6.223 4-11 4v-7c0-6.068 9-14.019 9-19l1-2 3-1h1l2 1 1 2c0 3.53 6.32 11.139 8 14.5.465.93.817 4.5 2 4.5 0 3.159-1 4.806-1 7-2.932 0-11-.635-11-5 0-7.343-3-12.689-3-1v1l-1 1Z"/><path fill="#F2473B" id="LPO" d="m187 267 2 1c5.051 0 11.565-9 15-9l1-2 1-7c0-2.983-2.629-3-5-3 0 7.208-14 17.775-14 20ZM269 266c0 1.747-.253 2-2 2-2.229 0-14-6.706-14-9l-1-1c0-1.564-1-3.876-1-6v-1c0-3.115.885-4 4-4 0 5.502 14 18.073 14 19Z"/><path fill="#CBCCCB" id="mfb" d="M251 251v1l-1-1h1Z"/><path fill="#97D6F9" id="STR" d="M135 255h1l-1-1v1Z"/><path fill="#CAC8C7" id="lot" d="m118 270-1 1c-2.835 0-2.575-3.038-4.5-4-3.694-1.847-17.5-7.245-17.5-12 4.537 0 23 3.189 23 9l1 2v3l-1 1ZM339 270v1c1.613 0 16.498-10.499 19.5-12l3.5-4c-6.662 0-12.988 1.244-18.5 4l-5.5 5v5l1 1Z"/><path fill="#E64438" id="HY" d="M204 259h1v-2l-1 2Z"/><path fill="#96A6D3" id="NDB" d="m202 276-1 1c-2.888 0-13-.32-13-4l1-5c5.051 0 11.565-9 15-9h1c4.681 0 7-5.071 7 5l-2 7-1 1-6 3-1 1Z"/><path fill="#E64438" id="HY" d="m227 265 3 1c0-7.343-3-12.689-3-1Z"/><path fill="#96A6D3" id="NDB" d="M252 275h1c2.579 0 5.997 3.752 9.5 2l6.5-4-2-5c-2.229 0-14-6.706-14-9l-2-1c-1.918 0-4.981-1.539-6 .5-.619 1.238 1.144 5.5-1 5.5 0 2.788 4 5.826 4 8l3 2 1 1Z"/><path fill="#E64438" id="HY" d="m252 258 1 1-2-1h1Z"/><path fill="#7FCCF7" id="OT" d="M185 276c4.038 0 9 1.702 9 6 0 14.353-14.926 10.213-22.5 14-14.536 7.268-37.432 3.636-45.5-12.5-1.761-3.522-7-6.346-7-10.5v-7l1-1c1.604 0 4.282-5 7-5h1c0 3.786 5.81 5.12 7 7.5 1.533 3.066 4.166 3.833 7.5 5.5 16.434 8.217 23.887 3 41.5 3h1ZM272 276c-3.782 0-10 1.044-10 6 0 6.902 7.457 10.478 12.5 13h6c16.133 8.066 41.124 6.252 50.5-12.5 1.596-3.193 7-6.851 7-10.5v-4c-1.473 0-1-1.952-1-3l-7-5h-1c0 3.548-8.685 9.593-11.5 11-4.512 2.256-8.596 4.798-13 7-5.584 2.792-25.43-2-32.5-2Z"/><path fill="#99D2BD" id="OLF" d="m120 265-1 1-1-2 2 1Z"/><path fill="#E64438" id="HY" d="M210 271h5v-7h-3l-2 7ZM241 271l7 1c0-2.174-4-5.212-4-8h-2c0 3.159-1 4.806-1 7Z"/><path fill="#99D2BD" id="OLF" d="M337 265c0 1.048-.473 3 1 3v-4l-1 1Z"/><path fill="#E64438" id="HY" d="m227 266-1 1 1-1ZM269 273c0 1.577 1.762 2 3 2 2.673 0 .477-9-3-9 0 1.747-.253 2-2 2l2 5ZM184 276h1l3-3 1-5-2-1c-5.312 0-3 6.352-3 9Z"/><path fill="#97D6F9" id="STR" d="m118 271 1 2v-4l-1 1v1Z"/><path fill="#99D2BD" id="OLF" d="M338 270h1l-1-1v1ZM117 271h1v-1l-1 1Z"/><path fill="#97D6F9" id="STR" d="m339 271-1 1v-2h1v1Z"/><path fill="#E64438" id="HY" d="m210 271-1 1 1-1Z"/><path fill="#8599CC" id="PAL" d="M201 277c0 2.425-5.116 5-7 5 0-4.298-4.962-6-9-6l3-3c0 3.68 10.112 4 13 4ZM272 276c-3.782 0-10 1.044-10 6-1.576 0-9-5.242-9-7 2.579 0 5.997 3.752 9.5 2l6.5-4c0 1.577 1.762 2 3 2v1ZM251 274l1 1-1-1ZM203 275l-1 1 1-1Z"/><path fill="#CBCCC7" id="IIn" d="m215 275-8 6.5c-1.953 3.907 4.445 7.027 7.5 5.5 4.974-2.487 13.615-12 .5-12ZM235 275c0 3.907 5.686 15.407 12.5 12 9.628-4.814-7.745-12-12.5-12Z"/><path fill="#8599CC" id="PAL" d="m202 276-1 1 1-1Z"/></svg>