<svg xmlns="http://www.w3.org/2000/svg" viewBox="0 0 456 320"><path fill="#268F45" id="FRP1" d="M212 123h2c4.987 0 2.934-7 5-7 0-.666-2.56-4 0-4v-2l-1-1c0-4.57-11-8.66-11-12 0-1.951-2.454-.477-3.5-1-2.824-1.412-14.71-2.645-18-1-14.063 7.032-25.5 2.783-25.5 24 3.941 0 9.899 3.801 13.5 2 6.611-3.305 13.462-4 21.5-4 1.048 0 3-.473 3 1h2l2 1h2l1 1h1l1 1h2l1 1h1l1 1ZM243 123h1l2-1 3-1 1-1h1l2-1h2l1-1h2c0-1.473 1.952-1 3-1 8.41 0 15.585.543 22.5 4 3.5 1.75 8.7-2 12.5-2 1.263 0 1.57-5.36 1-6.5-1.87-3.739-4.733-9.617-8.5-11.5-5.82-2.91-27.376-9.812-35-6l-4.5 2-10 10-1 1v1c0 4.983-1.452 14 5 14Z"/><path fill="#2FA750" id="PL1" d="M218 109h1c0-4.365-7.612-12-12-12 0 3.34 11 7.43 11 12ZM249 97c-3.785 0-10 6.196-10 10l10-10ZM239 107l-1 1 1-1ZM237 109h1v-1l-1 1Z"/><path fill="#23895D" id="ORBm1" d="M219 109v1l-1-1h1ZM237 121c1.772 0-.56 3 4.5 3l1.5-1c-6.452 0-5-9.017-5-14h-1v12ZM219 112c-2.56 0 0 3.334 0 4 2.56 0 0-3.334 0-4ZM214 123c0 2.662 4.329 0 5 0v-7c-2.066 0-.013 7-5 7Z"/><path fill="#99D2BD" id="OLF" d="m217 131-8.5-7c-4.078-2.039-26.507-4.247-31-2l-14 5c-2.571 1.285-10.481 12-10.5 12 0-7.299 7-13.041 7-20 3.941 0 9.899 3.801 13.5 2 6.611-3.305 13.462-4 21.5-4 0 1.473 1.952 1 3 1h2l2 1h2l1 1h1l1 1h2l1 1h1l1 1h2c0 2.662 4.329 0 5 0l1 6c-2.003 0-3-.293-3 2Z"/><path fill="#248A5B" id="ORBvl1" d="M195 117c1.048 0 3-.473 3 1-1.048 0-3 .473-3-1ZM261 117c-1.048 0-3-.473-3 1 1.048 0 3 .473 3-1Z"/><path fill="#99D2BD" id="OLF" d="M239 131c2.862 0 6.196-5.348 9.5-7 3.91-1.955 25.706-4.147 30-2 6.563 3.281 13.246 3.246 19 9l7.5 12c0-8.364-9-16.092-9-24-3.8 0-9 3.75-12.5 2-6.915-3.457-14.09-4-22.5-4 0 1.473-1.952 1-3 1h-2l-1 1h-2l-2 1h-1l-1 1-3 1-2 1h-1l-1.5 1c-5.06 0-2.728-3-4.5-3v8c1.747 0 2 .253 2 2Z"/><path fill="#248A5B" id="ORBvl1" d="m200 118 2 1-2-1ZM256 118l-1 1 1-1ZM204 119l1 1-1-1ZM253 119l-2 1 2-1ZM206 120l1 1-1-1ZM250 120l-1 1 1-1Z"/><path fill="#9AD1BD" id="MOB" d="M168 217c0 10.565 17.039 32 28 32l5.5 1c8.104-4.052 13.472-11.444 17.5-19.5 1.563-3.125.45-7.901 2-11 3.971-7.942 6.164-55.672 2-64-1.529-3.059-6-21.221-6-24.5l-8.5-7c-4.078-2.039-26.507-4.247-31-2l-14 5c-2.571 1.285-10.481 12-10.5 12l-1 2v1l-1 2v2c0 1.048.473 3-1 3v15c1.473 0 1 1.952 1 3v3c2.411 0 .981 6.76 4.5 5 2.599-1.299 1.111-8 5.5-8 0-4.834 2.626-2.248 4 .5.985 1.97.397 13.5 3 13.5 0-10.245.449-12 10-12l-2-4c-5.382 0-10-9.76-10-14h-1c-6.459 0-2.025-6-1-6 0-4.273 2.687-2 5-2 0-3.833-.404-10 5-10 0-13.763 17-12.051 17 2 5.229 0 3 10.688 3 13 4.938 0 1.931 6 0 6 0 6.92-2.178 14-10 14 0 3.632 5.382 13 0 13l3 14c10.983 0-1 27.203-1 12l-1.5-2c-1.17-.585-7.5 2.438-7.5 4 0 4.251 3.224 7.948 5 11.5 1.841 3.682-4.729 2.542-6 0l-5-9.5c-3.244 0-2.352 4-4 4v1l1 1Z"/><path fill="#23895D" id="ORBm1" d="m209 121 1 1-1-1Z"/><path fill="#9AD1BD" id="MOB" d="M288 219c0 9.412-17.898 30-28 30-10.046 0-16.226-4.953-21-14.5l-2-9c-6.536-13.072-5-31.306-5-47v-16c1.893-3.785 3-8.989 3-13.5v-1l2-3.5c.296-.592 2-12.801 2-13.5 2.862 0 6.196-5.348 9.5-7 3.91-1.955 25.706-4.147 30-2 6.563 3.281 13.246 3.246 19 9l7.5 12v2l1 2v1c0 1.048-.473 3 1 3v8c-1.643 0-1 3.765-1 5v3l-1 2v2l-3.5 5c-2.423 0-2.881-10-6.5-10 0-4.88-3.277 1.055-4 2.5-.882 1.765.935 9.5-2 9.5 0-8.657-4.529-9-11-9l2-3c0-.578 10-7.567 10-15l2-1c0 6.559 6.775-6 0-6 0-4.369-4.091 0-5 0 0-3.316 2.694-11-4-11 0-13.808-18-10.662-18 2l-3 4.5c-1.284 2.568 1 6.486 1 8.5-7.888 0 0 4.144 0 7-2.082 0-.47 5.561 0 6.5 1.765 3.531 4.965 6.5 9 6.5 0 2.27-3.546 15 0 15l-3 12c-10.857 0 1 24.144 1 14 2.205 0 .002-3.251 1.5-4 3.25-1.625 6.076 4 8.5 4l-3 6.5c-.31.621-4.523 8.5-.5 8.5 3.724 0 7.61-13 8.5-13 2.708 0 4 1.119 4 4v3l-1 1Z"/><path fill="#23895D" id="ORBm1" d="m211 122 1 1-1-1ZM246 122l-2 1 2-1Z"/><path fill="#9DF0D1" id="AOBgl" d="m174 133 7.5 4c3.387 1.694 6.45-2 9.5-2 0-14.051-17-15.763-17-2ZM283 133c-3.224 0-4.832 2.666-7.5 4-3.465 1.733-7.275-2-10.5-2 0-12.662 18-15.808 18-2Z"/><path fill="#C7CBCA" id="onl" d="M227 210c0 9.312 1.208 40.084-2 46.5-3.76 7.521-17.602-1.551-21.5-3.5-1.475-.737-7.5-1.705-7.5-4l5.5 1c8.104-4.052 13.472-11.444 17.5-19.5 1.563-3.125.45-7.901 2-11 3.971-7.942 6.164-55.672 2-64-1.529-3.059-6-21.221-6-24.5 0-2.293.997-2 3-2 0 3.655 3 8.654 3 12-5.581 0 2 13.648 2 12 1.429 0 2 3.205 2 4.5V174c0 1.235-.643 5 1 5v22c-1.751 0-1 7.426-1 9ZM234 141c1.714 0 1 5.594 1 7l2-3.5c.296-.592 2-12.801 2-13.5 0-1.747-.253-2-2-2-1.943 0-3 10.343-3 12Z"/><path fill="#9DEFD2" id="AOBmi" d="m194 148-1 1c0 10.933-24 5.145-24-6 0-3.833-.404-10 5-10l7.5 4c3.387 1.694 6.45-2 9.5-2 5.229 0 3 10.688 3 13ZM287 144c0 10.059-24 16.507-24 4 0-2.014-2.284-5.932-1-8.5l3-4.5c3.225 0 7.035 3.733 10.5 2 2.668-1.334 4.276-4 7.5-4 6.694 0 4 7.684 4 11Z"/><path fill="#99D2BD" id="OLF" d="m153 139-1 2 1-2Z"/><path fill="#CAC8C9" id="von" d="M223 141c-5.581 0 2 13.648 2 12 0-4.503-2-8.044-2-12Z"/><path fill="#C7CBCA" id="onl" d="m234 141-1 1 1-1Z"/><path fill="#CAC8C9" id="von" d="m235 149-2.5 5-1.5-2 2-10 1-1c1.714 0 1 5.594 1 7v1Z"/><path fill="#99D2BD" id="OLF" d="m152 142-1 2 1-2Z"/><path fill="#CACAC9" id="lotd" d="M166 151c4.305 0 8.88 5.69 13.5 8 5.69 2.845 11.51-5 14.5-5 1.931 0 4.938-6 0-6l-1 1c0 10.933-24 5.145-24-6-2.313 0-5-2.273-5 2 0 1.564 1 3.876 1 6h1ZM290 151c0-1.821-9.817 6.159-11.5 7-6.883 3.441-9.779-3-15.5-3 0-2.856-7.888-7 0-7 0 12.507 24 6.059 24-4 .909 0 5-4.369 5 0v6l-2 1Z"/><path fill="#CAC8C7" id="lot" d="M292 144c6.775 0 0 12.559 0 6v-6ZM164 145c-1.025 0-5.459 6 1 6 0-2.124-1-4.436-1-6Z"/><path fill="#99D2BD" id="OLF" d="m305 145 1 2-1-2ZM151 146c-1.473 0-1 1.952-1 3 1.473 0 1-1.952 1-3Z"/><path fill="#9AD1BD" id="MOB" d="m194 148-1 1 1-1Z"/><path fill="#99D2BD" id="OLF" d="M306 148c1.473 0 1 1.952 1 3-1.473 0-1-1.952-1-3Z"/><path fill="#C7CBCA" id="onl" d="M231 152c0 2.128-1.054 5.608-2 7.5v18c0 15.721 1 32.459 1 47.5 0 6.282-1.132 27.236 1 31.5 4.207 8.414 29-6.904 29-7.5-10.046 0-16.226-4.953-21-14.5l-2-9c-6.536-13.072-5-31.306-5-47v-16c1.893-3.785 3-8.989 3-13.5l-2.5 5-1.5-2Z"/><path fill="#95E4C8" id="AOBgr" d="m176 165 8 3c7.822 0 10-7.08 10-14-2.99 0-8.81 7.845-14.5 5-4.62-2.31-9.195-8-13.5-8 0 4.24 4.618 14 10 14ZM280 166l-8 2c-4.035 0-7.235-2.969-9-6.5-.47-.939-2.082-6.5 0-6.5 5.721 0 8.617 6.441 15.5 3 1.683-.841 11.5-8.821 11.5-7 0 7.433-10 14.422-10 15Z"/><path fill="#99D2BD" id="OLF" d="M150 151c-1.613 0-1.613 8 0 8v-8ZM307 159c-1.643 0-1 3.765-1 5 1.643 0 1-3.765 1-5ZM150 164c1.473 0 1 1.952 1 3-1.473 0-1-1.952-1-3Z"/><path fill="#CAC8C7" id="lot" d="M177 209c0 4.251 3.224 7.948 5 11.5 1.841 3.682-4.729 2.542-6 0l-5-9.5c0-14.798-10-28.827-10-44 0-4.834 2.626-2.248 4 .5.985 1.97.397 13.5 3 13.5v2l1 1c0 5.993 3.413 14.325 6 19.5.659 1.319-.334 5.5 2 5.5ZM280 209l-3 6.5c-.31.621-4.523 8.5-.5 8.5 3.724 0 7.61-13 8.5-13 0-3.859 2.329-9.159 4-12.5 2.348-4.697 6-26.485 6-32.5 0-4.88-3.277 1.055-4 2.5-.882 1.765.935 9.5-2 9.5v3l-1 1c0 9.389-8 17.935-8 27Z"/><path fill="#CBCBC7" id="aco" d="M184 180v1c5.382 0 0-9.368 0-13l-8-3 2 4 1 1c1.577 0 2 1.762 2 3l1 3 1 1v2l1 1ZM272 182v1c-3.546 0 0-12.73 0-15l8-2-2 3-1 1v1l-1 1-1 2v1l-1 1v1l-1 1v2l-1 2Z"/><path fill="#99D2BD" id="OLF" d="M285 211c2.708 0 4 1.119 4 4l5-9.5c4.665-9.33 11-23.611 11-34.5l-3.5 5c-2.423 0-2.881-10-6.5-10 0 6.015-3.652 27.803-6 32.5-1.671 3.341-4 8.641-4 12.5ZM171 211c-3.244 0-2.352 4-4 4-1.844 0-4.176-8.852-5-10.5-4.582-9.163-11-23.869-11-34.5 2.411 0 .981 6.76 4.5 5 2.599-1.299 1.111-8 5.5-8 0 15.173 10 29.202 10 44ZM306 167l-1 2 1-2Z"/><path fill="#54BF94" id="AON" d="m186 207-1.5-2c-1.17-.585-7.5 2.438-7.5 4-2.334 0-1.341-4.181-2-5.5-2.587-5.175-6-13.507-6-19.5l-1-1v-2c0-10.245.449-12 10-12l1 1 2 3 1 3 1 1v2l1 1v1l3 14c0 1.824.781 12-1 12ZM270 209c2.205 0 .002-3.251 1.5-4 3.25-1.625 6.076 4 8.5 4 0-9.065 8-17.611 8-27l1-1v-3c0-8.657-4.529-9-11-9l-1 1v1l-1 1-1 2v1l-1 1v1l-1 1v2l-1 2v1l-3 12c0 4.869 1 9.649 1 14Z"/><path fill="#9AD1BD" id="MOB" d="m278 169-1 1 1-1ZM179 170c1.577 0 2 1.762 2 3l-2-3ZM277 171l-1 1 1-1ZM276 172l-1 2 1-2Z"/><path fill="#99D2BD" id="OLF" d="M227 174c1.643 0 1 3.765 1 5-1.643 0-1-3.765-1-5Z"/><path fill="#9AD1BD" id="MOB" d="m275 175-1 1 1-1ZM182 176l1 1-1-1ZM274 177l-1 1 1-1ZM183 179l1 1-1-1ZM273 180l-1 2 1-2ZM289 181l-1 1 1-1ZM168 183l1 1-1-1Z"/><path fill="#CBCBC7" id="aco" d="M187 195c10.983 0-1 27.203-1 12 1.781 0 1-10.176 1-12ZM269 195c-10.857 0 1 24.144 1 14 0-4.351-1-9.131-1-14Z"/><path fill="#99D2BD" id="OLF" d="M228 201c-1.751 0-1 7.426-1 9 1.751 0 1-7.426 1-9ZM167 216l1 1-1-1ZM289 218l-1 1 1-1Z"/></svg>