<svg xmlns="http://www.w3.org/2000/svg" viewBox="0 0 456 320"><path fill="#1E9C59" id="MOs1" d="M129 147c-2.518 0-2.334 3-5 3l-6-14.5c-1.963-3.925.459-13.918 2-17l3-9c6.988-13.977 20.147-22.824 33.5-29.5 11.292-5.646 31.783-13.609 45-7 2.977 1.489 14.5 3.536 14.5 9l-2 2-3 1h-1c0-3.827-9.27-3.885-11.5-5-9.995-4.997-30.626.813-39 5-8.628 4.314-23.279 11.059-28.5 21.5l-6 12v5c-.855 1.711-2.091 6.817-1 9l3 11 2 2.5v1ZM328 147l4 3 4-7.5c1.951-3.903 1.051-9.102 3-13 1.585-3.169-3.596-14.192-5-17-7.954-15.907-19.838-25.669-35.5-33.5-10.52-5.26-30.944-12.028-43-6-3.063 1.531-15.5 3.472-15.5 9l2 2c.922 0 3 .483 3 1h2c0-4.281 8.228-3.864 10.5-5 9.262-4.631 34.194 2.097 42 6 18.386 9.193 23.668 17.836 32.5 35.5 4.082 8.164-4 18.677-4 25.5Z"/><path fill="#1E9D58" id="MOs2/3" d="M140 139c-3.783 0-6.579 7-11 7l-2-2.5-3-11c-1.091-2.183.145-7.289 1-9v-5l6-12c5.221-10.441 19.872-17.186 28.5-21.5 8.374-4.187 29.005-9.997 39-5 2.23 1.115 11.5 1.173 11.5 5l-5 5h-1l-5.5-2c-10.714-5.357-37.691 9.691-44 16-5.718 5.718-14.5 15.998-14.5 24 0 1.06-2.765 10 0 10v1ZM327 147h1c0-6.823 8.082-17.336 4-25.5-8.832-17.664-14.114-26.307-32.5-35.5-7.806-3.903-32.738-10.631-42-6-2.272 1.136-10.5.719-10.5 5 0 2.732 4 2.259 4 5h2c0-2.064 3.353-.426 4.5-1 5.73-2.865 18.776-.612 24 2 19.42 9.71 35.5 24.48 35.5 48l10 8Z"/><path fill="#3EA665" id="ACAd1" d="M214 84c0 2.56 3.334 0 4 0l-2-2-2 2ZM239 84c0 1.486 3 1.486 3 0l-2-2-1 2Z"/><path fill="#2FA750" id="PL1" d="M223 120h10c0-8.577.441-17.383 4-24.5 1.15-2.3 8-8.278 8-10.5 0-.517-2.078-1-3-1 0 1.486-3 1.486-3 0-2.551 0-6.824 8.148-8 10.5-.425.849-1.245 6.5-2.5 6.5-1.981 0-2.017-4.534-2.5-5.5L218 84c-.666 0-4 2.56-4 0l-3 1 8 9.5c3.64 7.28 4 15.665 4 24.5v1Z"/><path fill="#2FA74F" id="PL2/3" d="M218 119h5c0-8.835-.36-17.22-4-24.5l-8-9.5h-1l-5 5c0 .726 6.954 4.408 8 6.5 3.502 7.003 5 13.994 5 22.5ZM238 119l-5 1c0-8.577.441-17.383 4-24.5 1.15-2.3 8-8.278 8-10.5h2c0 2.732 4 2.259 4 5 0 1.298-6.886 5.272-8 7.5-3.164 6.327-5 13.919-5 21.5Z"/><path fill="#1F9D58" id="MOs5" d="m158 136-10.5-2-7.5 4c-2.765 0 0-8.94 0-10 0-8.002 8.782-18.282 14.5-24 6.309-6.309 33.286-21.357 44-16l5.5 2c0 1.572-11 9.864-11 13-11.695 0-17.97 3.235-27.5 8-3.434 1.717-8.886 14-2.5 14 0 3.304-5 7.142-5 11ZM316 139h1c0-23.52-16.08-38.29-35.5-48-5.224-2.612-18.27-4.865-24-2-1.147.574-4.5-1.064-4.5 1l11 13c9.51 0 16.7 2.1 24.5 6 4.036 2.018 12.07 16 5.5 16l5 10c3.285 0 17-1.259 17 4Z"/><path fill="#2EA84F" id="PL5" d="m202 112 16 7c0-8.506-1.498-15.497-5-22.5-1.046-2.092-8-5.774-8-6.5h-1c0 1.572-11 9.864-11 13 0 2.365 9 4.836 9 9ZM254 113c-5.946 0-10.417 6-16 6 0-7.581 1.836-15.173 5-21.5 1.114-2.228 8-6.202 8-7.5h2l11 13c0 1.765-1.581.541-2.5 1-2.204 1.102-7.5 6.76-7.5 9Z"/><path fill="#258F45" id="FRP5" d="M187 114c4.846 0 8.793 2 13 2 4.509 0 2 .397 2-4 0-4.164-9-6.635-9-9-11.695 0-17.97 3.235-27.5 8-3.434 1.717-8.886 14-2.5 14 8.289 0 14.915-11 24-11ZM269 114c9.041 0 17.306 11 25 11 6.57 0-1.464-13.982-5.5-16-7.8-3.9-14.99-6-24.5-6 0 1.765-1.581.541-2.5 1-2.204 1.102-7.5 6.76-7.5 9 0 3.491-2.684 4 1 4 1.637 0 8.659-3 14-3Z"/><path fill="#23885E" id="ORBm5" d="M218 119c0 6.539.862 18-7 18 0-5.936-11-16.381-11-21 4.509 0 2 .397 2-4l16 7ZM238 119c0 5.257-.169 18 7 18l10-20c-3.684 0-1-.509-1-4-5.946 0-10.417 6-16 6Z"/><path fill="#228A5D" id="ORBl5" d="M153 155v1c15.384 0 15.049-23 30-23 0-7.012 4-12.712 4-19-9.085 0-15.711 11-24 11 0 3.304-5 7.142-5 11 0 1.587-5 13.852-5 19Z"/><path fill="#23885C" id="ORBvl5" d="M183 133c9.837 0 18.889 4 28 4 0-5.936-11-16.381-11-21-4.207 0-8.154-2-13-2 0 6.288-4 11.988-4 19ZM273 133h1c0-6.385-5-13.094-5-19-5.341 0-12.363 3-14 3l-10 20c8.899 0 18.109-4 28-4Z"/><path fill="#228A5D" id="ORBl5" d="M299 135c0 6.925 4 13.225 4 21-14.242 0-15.511-23-29-23 0-6.385-5-13.094-5-19 9.041 0 17.306 11 25 11l5 10Z"/><path fill="#24885D" id="ORBm2/3" d="M217 152h1c7.768 0 5-26.03 5-32v-1h-5c0 6.539.862 18-7 18 0 5.101 6 9.494 6 15ZM245 137l-6 15c-8.122 0-6-25.476-6-32l5-1c0 5.257-.169 18 7 18Z"/><path fill="#23895D" id="ORBm1" d="m225 164-4 1c0-4.798-3-8.478-3-13 7.768 0 5-26.03 5-32h10c0 6.524-2.122 32 6 32v1c-2.919 0-3 10.9-3 12-2.25 0-3.376-2-5-2l-2-2.5-.5-3.5-3.5 7Z"/><path fill="#238A5E" id="ORBl2/3" d="M151 170v2c7.92 0 22.002-27 31-27 0-4.525 1-8.926 1-12-14.951 0-14.616 23-30 23 0 5.03-2 8.72-2 14Z"/><path fill="#248A5D" id="ORBvl2/3" d="M182 145c7.934 0 15.968.734 22.5 4 1.499.749 12.5 5.121 12.5 3 0-5.506-6-9.899-6-15-9.111 0-18.163-4-28-4 0 3.074-1 7.475-1 12ZM239 152v1c11.052 0 21.156-8 35-8 0-4.214-1-8.233-1-12-9.891 0-19.101 4-28 4l-6 15Z"/><path fill="#238A5E" id="ORBl2/3" d="M305 170v2c-7.964 0-21.891-27-31-27 0-4.214-1-8.233-1-12h1c13.489 0 14.758 23 29 23h1l1 14Z"/><path fill="#209665" id="AId5" d="M140 139c0 4.842 7.537 16 13 16 0-5.148 5-17.413 5-19l-10.5-2-7.5 4v1ZM303 156h1l5-3.5c2.249-4.499 7-8.072 7-13.5 0-5.259-13.715-4-17-4 0 6.925 4 13.225 4 21Z"/><path fill="#209765" id="AId2/3" d="M148 173h1c0-1.238.423-3 2-3 0-5.28 2-8.97 2-14v-1c-5.463 0-13-11.158-13-16-3.783 0-6.579 7-11 7v1c0 4.213 14.661 26 19 26ZM308 173h1c3.774 0 18-21.498 18-26l-10-8h-1c0 5.428-4.751 9.001-7 13.5l-5 3.5 1 14 3 3Z"/><path fill="#238A5D" id="ORBl1" d="M151 179h2c0-3.582 26.591-24 30-24l-1-10c-8.998 0-23.08 27-31 27v7Z"/><path fill="#248A5B" id="ORBvl1" d="M183 155c12.14 0 27.226 10 38 10 0-4.798-3-8.478-3-13h-1c0 2.121-11.001-2.251-12.5-3-6.532-3.266-14.566-4-22.5-4l1 10ZM236 165h1c0-1.579 2.855-1 4-1h1l2-1h1c0-2.162 6.067-2.284 7.5-3 3.997-1.999 17.002-5 21.5-5v-10c-13.844 0-23.948 8-35 8-2.919 0-3 10.9-3 12Z"/><path fill="#238A5D" id="ORBl1" d="M303 179h2l1-6-1-1c-7.964 0-21.891-27-31-27v10c4.704 0 18.666 13.166 22.5 17l6.5 7Z"/><path fill="#209764" id="AId1" d="m148 173-5 5-5.5-6c-1.266-1.266-13.5-21.224-13.5-22 2.666 0 2.482-3 5-3 0 4.213 14.661 26 19 26ZM309 173c0 1.061 2.571 5 4 5 1.77 0 19-25.973 19-28l-4-3h-1c0 4.502-14.226 26-18 26Z"/><path fill="#99D2BD" id="OLF" d="M155 193c0 4.503 2 8.044 2 12l-2-3.5-4-5c-2.908-5.816 2-11.693 2-17.5 0-3.582 26.591-24 30-24 12.14 0 27.226 10 38 10l4-1 1 10-5.5-8c-5.346-2.673-9.689-2-15.5-2-4.559 0-18.901-4.299-21.5-3l-8.5 3-1 1h-1l-1 1-2 1-1 1-2 1-1 1-1 1c-1.747 0-2 .253-2 2-2.473 0-6 3.527-6 6-1.577 0-2 1.762-2 3v1c-1.186 0-1.186 1 0 1v9ZM301 194l-1 10 3-4.5c6.461-12.922 0-10.516 0-20.5l-6.5-7c-3.834-3.834-17.796-17-22.5-17-4.498 0-17.503 3.001-21.5 5-1.433.716-7.5.838-7.5 3 1.819 0 4.591 1 7 1 5.27 0 12.054-.777 16.5-3l7.5 1 1 1 4 1 1 1h2l2 2h1c1.451 0 14 11.523 14 14v1c1.186 0 1.186 1 0 1v11Z"/><path fill="#54BF94" id="AON" d="m183 239 10 4 5-11.5 1-14.5h-1c-4.58 0-11.319-18.138-13-21.5l-4-6c4.637-9.274 14 8.023 14 13.5 2.523 0 1.959 2 5 2 1.658 0 2.281-8.063 3-9.5 4.119-8.239 2-21.738 2-31.5-4.559 0-18.901-4.299-21.5-3l-8.5 3-1 1h-1l-1 1-2 1-1 1-2 1-1 1-1 1-2 2-6 6c0 1.238-.423 3-2 3v11l6 11.5c3.414 6.828 22 30.598 22 34.5ZM271 241l-8 2c0-3.231-2.636-5.772-4-8.5l-2-17.5h1c6.472 0 10.801-16.102 13-20.5 1.086-2.173 5.531-4.938 4-8-.889-1.779-4.625.063-5.5.5-4.844 2.422-7.5 6.243-7.5 12l-1 1v1c-1.624 0-2.75 2-5 2l-5-15.5 1-25.5c5.27 0 12.054-.777 16.5-3l7.5 1 1 1 4 1 1 1h2l2 2h1l14 14v13c-1.521 0-5.211 7.922-6 9.5-4.103 8.205-9.837 15.673-14 24-1.764 3.528-8 6.369-8 10.5v1l-1 1-1 1Z"/><path fill="#CACAC9" id="lotd" d="m276 162 1 1-1-1Z"/><path fill="#9AD1BD" id="MOB" d="M201 249h10l2-1 1-1 1-1 1-1 1-1 1-1 1-1 1-1 1-1v-1l1-1 1-3 1-1v-1l1-1v-4l1-1c0-15.207 1-32.112 1-48-1.579 0-1-2.855-1-4v-1l-5.5-8c-5.346-2.673-9.689-2-15.5-2 0 9.762 2.119 23.261-2 31.5-.719 1.437-1.342 9.5-3 9.5l-1 5v7l-1 14.5-5 11.5 2 4h1l2 1h1l2 1Z"/><path fill="#99D2BD" id="OLF" d="m237 165-6 7v-9c1.624 0 2.75 2 5 2h1ZM244 163l-2 1 2-1Z"/><path fill="#9AD1BD" id="MOB" d="M246 249h9l2-1h2l2-1h1l1-4c0-3.231-2.636-5.772-4-8.5l-2-17.5v-6l-1-6-5-15.5 1-25.5c-2.409 0-5.181-1-7-1h-1l-2 1h-1c0 1.579-2.855 1-4 1l-6 7v1c0 1.145.579 4-1 4v5c0 1.235.643 5-1 5v35.5c1.112 2.225 2 4.846 2 7.5l1 1v2l1 1v2l2 2v1l2 2v1l5 5h1l3 2Z"/><path fill="#CACAC9" id="lotd" d="m175 164-1 1 1-1Z"/><path fill="#99D2BD" id="OLF" d="M241 164c-1.145 0-4-.579-4 1 1.145 0 4 .579 4-1Z"/><path fill="#CACAC9" id="lotd" d="m281 164 1 1-1-1ZM173 165l-1 1 1-1ZM284 165l2 2-2-2ZM170 167l-1 1 1-1ZM287 167c1.451 0 14 11.523 14 14l-14-14ZM169 168l-2 1 2-1ZM167 169l-1 1 1-1Z"/><path fill="#219764" id="AIv2/3" d="M149 173h2v-3c-1.577 0-2 1.762-2 3Z"/><path fill="#CACAC9" id="lotd" d="m166 170-1 1 1-1Z"/><path fill="#219764" id="AIv2/3" d="M306 173h2l-3-3v2l1 1Z"/><path fill="#CACAC9" id="lotd" d="M165 171c-1.747 0-2 .253-2 2l2-2Z"/><path fill="#209864" id="AIv1" d="M143 178c0 3.563 6.6 1 8 1v-6h-3l-5 5Z"/><path fill="#CACAC9" id="lotd" d="M163 173c-2.473 0-6 3.527-6 6l6-6Z"/><path fill="#99D2BD" id="OLF" d="M231 173c-1.579 0-1 2.855-1 4 1.579 0 1-2.855 1-4Z"/><path fill="#209864" id="AIv1" d="M313 178c0 3.563-6.6 1-8 1l1-6h3c0 1.061 2.571 5 4 5Z"/><path fill="#99D2BD" id="OLF" d="M226 175c1.579 0 1 2.855 1 4-1.579 0-1-2.855-1-4Z"/><path fill="#CACAC9" id="lotd" d="M157 179c-1.577 0-2 1.762-2 3 1.577 0 2-1.762 2-3Z"/><path fill="#99D2BD" id="OLF" d="M230 182c-1.643 0-1 3.765-1 5 1.643 0 1-3.765 1-5Z"/><path fill="#CACAC9" id="lotd" d="M301 182c1.186 0 1.186 1 0 1v-1ZM155 183c-1.186 0-1.186 1 0 1v-1Z"/><path fill="#CBCBC7" id="aco" d="m199 215-1 2c-4.58 0-11.319-18.138-13-21.5l-4-6c4.637-9.274 14 8.023 14 13.5l4 7v5ZM257 213c1.579 0 1 2.855 1 4 6.472 0 10.801-16.102 13-20.5 1.086-2.173 5.531-4.938 4-8-.889-1.779-4.625.063-5.5.5-4.844 2.422-7.5 6.243-7.5 12l-1 1v1l-4 8v2Z"/><path fill="#CAC8C7" id="lot" d="M157 205c0 7.582 16.973 34 26 34 0-3.902-18.586-27.672-22-34.5l-6-11.5c0 4.503 2 8.044 2 12ZM273 238l1 1c8.696 0 26-27.585 26-35l1-10c-1.521 0-5.211 7.922-6 9.5-4.103 8.205-9.837 15.673-14 24-1.764 3.528-8 6.369-8 10.5Z"/><path fill="#99D2BD" id="OLF" d="m262 201-1 1 1-1ZM200 205l-1 5-4-7c2.523 0 1.959 2 5 2ZM256 205l1 6 4-8c-1.624 0-2.75 2-5 2ZM257 217h1c0-1.145.579-4-1-4v4ZM198 217h1v-2l-1 2Z"/><path fill="#C7CBCA" id="onl" d="M225 228h1v-1l-1 1Z"/><path fill="#99D2BD" id="OLF" d="m226 228-1 1v-1h1Z"/><path fill="#C7CBCA" id="onl" d="M231 231h1l-1-1v1Z"/><path fill="#99D2BD" id="OLF" d="M232 231v1l-1-1h1Z"/><path fill="#C7CBCA" id="onl" d="m225 232-1 1 1-1ZM232 233l1 1-1-1Z"/><path fill="#99D2BD" id="OLF" d="m224 234-1 1 1-1ZM233 236l2 2-2-2ZM222 238l-1 1 1-1ZM273 239h1l-1-1v1ZM193 243l2 4c-2.767 0-12-5.342-12-8l10 4ZM235 239l2 2c-1.747 0-2-.253-2-2ZM273 239l-1 1 1-1ZM221 240l-1 1 1-1ZM272 240l-1 1 1-1ZM220 241l-1 1 1-1ZM263 243l-1 4c1.724 0 9-3.829 9-6l-8 2ZM237 242l5 5-5-5ZM218 243l-1 1 1-1ZM216 245l-1 1 1-1ZM196 247l2 1-2-1ZM214 247l-1 1 1-1ZM243 247l3 2c-1.238 0-3-.423-3-2ZM261 247l-2 1 2-1ZM199 248l2 1-2-1ZM213 248l-2 1 2-1ZM257 248l-2 1 2-1Z"/></svg>