<svg xmlns="http://www.w3.org/2000/svg" viewBox="0 0 456 320"><path fill="#99D2BD" id="OLF" d="M167 159c2.558 0 5.511 19.523 7 22.5 4.737 9.475 9.225 22.362 19.5 27.5h11c1.61.805 5.802 2 7.5 2 5.444 0 8.443-17.387 10-20.5 4.734-9.468.19-52.62-4-61-6.657-13.313-36.355-.29-41 9l-4 3c-2.423 4.845-6 11.823-6 17.5ZM289 159c-2.729 0-1.254 5.007-2 6.5-2.279 4.557-1.754 10.509-4 15-3.024 6.049-10.475 23.488-16.5 26.5-4.13 2.065-10.048.024-14 2-1.61.805-5.802 2-7.5 2-7.47 0-9.09-19.681-11-23.5-2.755-5.51-1.574-41.851 1-47 1.998-3.995.259-10.879 5.5-13.5 13.228-6.614 27.856-.144 38 10 5.864 5.864 10.5 13.792 10.5 22Z"/><path fill="#C7CBCA" id="onl" d="M169 193c0 8.04 4.679 13.858 8 20.5V224c0 2.761-.064 9.718 2.5 11 10.481 5.24 18.363-10.363 24-16 2.341-2.341 8.5-4.281 8.5-8-1.698 0-5.89-1.195-7.5-2h-11c-10.275-5.138-14.763-18.025-19.5-27.5-1.489-2.977-4.442-22.5-7-22.5 0 6.445-1 13.948-1 21 1.579 0 1 2.855 1 4v3c1.473 0 1 1.952 1 3v2l1 1ZM287 195c0 6.944-5.075 13.65-8 19.5V225c0 3.022.503 8.498-2.5 10-11.999 6-15.312-12.156-23-16-2.472-1.236-8.5-4.872-8.5-8 1.698 0 5.89-1.195 7.5-2 3.952-1.976 9.87.065 14-2 6.025-3.012 13.476-20.451 16.5-26.5 2.246-4.491 1.721-10.443 4-15 .746-1.493-.729-6.5 2-6.5l1 6v18c-1.473 0-1 1.952-1 3v3c-1.473 0-1 1.952-1 3v2l-1 1Z"/><path fill="#99D2BD" id="OLF" d="M290 165c1.649 0 1.649 16 0 16v-16ZM166 180c1.579 0 1 2.855 1 4-1.579 0-1-2.855-1-4ZM290 183c-1.473 0-1 1.952-1 3 1.473 0 1-1.952 1-3ZM167 187c1.473 0 1 1.952 1 3-1.473 0-1-1.952-1-3ZM289 189c-1.473 0-1 1.952-1 3 1.473 0 1-1.952 1-3ZM168 192l1 1-1-1ZM288 194l-1 1 1-1Z"/></svg>