<svg xmlns="http://www.w3.org/2000/svg" viewBox="0 0 456 320"><path fill="#1E9C59" id="MOs1" d="M113 114c0 2.25 2 3.376 2 5l8-13.5c5.536-11.073 20.738-19.619 30.5-24.5 10.284-5.142 36.477-13.761 48-8 2.885 1.443 12.5 2.855 12.5 8h1l4-3c0-9.103-25.998-17.25-32.5-14-4.149 2.075-9.872.936-14 3-16.161 8.08-40.095 12.69-49.5 31.5-2.214 4.428-10 9.3-10 15.5ZM344 115c-2.362 0-1 6.171-1 8l-7-13.5c-5.372-10.743-17.459-20.98-28.5-26.5-8.758-4.38-39.156-15.922-49-11-3.2 1.6-16.5 3.97-16.5 9h-1l-3-4c0-8.091 25.546-15.977 31.5-13 4.149 2.075 9.872.936 14 3 17.21 8.605 41.317 13.135 51.5 33.5 2.04 4.079 8 7.708 8 12.5l1 1v1Z"/><path fill="#1E9D58" id="MOs2/3" d="m129 149-8 4c0-6.373-6-11.745-6-18.5 0-.479.949-9.5-1-9.5v-3c1.473 0 1-1.952 1-3l8-13.5c5.536-11.073 20.738-19.619 30.5-24.5 10.284-5.142 36.477-13.761 48-8 2.885 1.443 12.5 2.855 12.5 8 0 2.58-4 3.211-4 6h-1c0-3.403-5.113-3.806-7.5-5-9.348-4.674-25.28 2.14-33 6-11.028 5.514-27.135 12.77-33.5 25.5-3.205 6.411-4.823 13.645-8 20-2.2 4.4 2 11.278 2 15.5ZM327 149c3.242 0 5.319 4 9 4 0-3.026 1.736-4.972 3-7.5 1.911-3.822.642-20.5 4-20.5v-2l-7-13.5c-5.372-10.743-17.459-20.98-28.5-26.5-8.758-4.38-39.156-15.922-49-11-3.2 1.6-16.5 3.97-16.5 9l5 5c4.458 0 13.625-8.937 21.5-5 9.543 4.771 20.412 7.206 30 12l16 12c5.388 2.694 14.5 24.005 14.5 30 0 2.312.379 13-2 13v1Z"/><path fill="#3EA665" id="ACAd1" d="M235 93h1c0-4.388 5-8.322 5-12l-3-4c-2.168 0-8 11.745-8 14 1.622 0 5-.46 5 2ZM226 91l-5 1-6-11 4-3c2.42 0 7 10.766 7 13Z"/><path fill="#1F9D58" id="MOs5" d="M153 133c-7.293 0-19.482 16-24 16 0-4.222-4.2-11.1-2-15.5 3.177-6.355 4.795-13.589 8-20 6.365-12.73 22.472-19.986 33.5-25.5 7.72-3.86 23.652-10.674 33-6 2.387 1.194 7.5 1.597 7.5 5 0 2.24-8 6.56-8 10-3.054 0-9 4.64-9 8h-2c-3.238 0-15 .647-15 5l-2 1-1 1-8 6-1 1c-3.808 0-10 9.954-10 13v1Z"/><path fill="#40A565" id="ACAd2/3" d="M221 93c-2.483 0-4.026 2-6 2l-5-8c0-2.789 4-3.42 4-6h1l6 11v1ZM241 95h1c0-1.846 2.551-8 5-8v-1l-5-5h-1c0 3.678-5 7.612-5 12 1.424 0 5 .362 5 2Z"/><path fill="#1F9D58" id="MOs5" d="M303 133c7.899 0 18.598 15 24 15 2.379 0 2-10.688 2-13 0-5.995-9.112-27.306-14.5-30l-16-12c-9.588-4.794-20.457-7.229-30-12-7.875-3.937-17.042 5-21.5 5v1c1.439 0 8 8.32 8 10 2.919 0 10 4.932 10 8h1c3.88 0 19 2.998 19 7l5 4 1 1c4.247 0 12 11.886 12 16Z"/><path fill="#3EA566" id="ACAd5" d="M215 95c-5.237 0-8.634 2-14 2 0-3.44 8-7.76 8-10h1l5 8ZM242 95c4.739 0 7.371 2 13 2 0-1.68-6.561-10-8-10-2.449 0-5 6.154-5 8Z"/><path fill="#2FA750" id="PL1" d="M223 126h10l2-33c0-2.46-3.378-2-5-2l-1 1.5c-2.505 5.01.373-1.5-3-1.5l-5 1v1c0 10.491 2 21.636 2 33Z"/><path fill="#2FA74F" id="PL2/3" d="M219 126h4c0-11.364-2-22.509-2-33-2.483 0-4.026 2-6 2 0 4.766 1.923 12.346 4 16.5V126ZM233 126h4c0-11.088 4-20.545 4-31 0-1.638-3.576-2-5-2h-1l-2 33Z"/><path fill="#2EA84F" id="PL5" d="M200 118c5.997 0 12.514 8 19 8v-14.5c-2.077-4.154-4-11.734-4-16.5-5.237 0-8.634 2-14 2-3.054 0-9 4.64-9 8 5.046 0 8 7.751 8 12v1ZM257 117c-2.306 0-14.526 9-20 9 0-11.088 4-20.545 4-31h1c4.739 0 7.371 2 13 2 2.919 0 10 4.932 10 8-5.932 0-8 7.088-8 12Z"/><path fill="#1D9C5A" id="MOs6a" d="M188 109c-3.862 0-8.642 1-13 1 0-4.353 11.762-5 15-5l-2 4Z"/><path fill="#2FA850" id="PL6a" d="m194 114 6 3c0-4.249-2.954-12-8-12h-2l-2 4c1.967 0 6 2.485 6 5ZM262 114l-5 3c0-4.912 2.068-12 8-12h1l2 4c-3.079 0-4.308 5-6 5Z"/><path fill="#1D9C5A" id="MOs6a" d="M268 109c2.614 0 6.464-1.518 9.5 0 2.333 1.167 4.728 3 7.5 3 0-4.002-15.12-7-19-7l2 4Z"/><path fill="#268E44" id="FRP6a" d="M163 119c0 1.321-.684 6 1 6l20-10c3.77 0 7.021 2 10 2 2.373 0 0-2.284 0-3 0-2.515-4.033-5-6-5-3.862 0-8.642 1-13 1l-2 1-1 1-8 6-1 1ZM291 117c0 1.08 5.458 8 1 8l-20-10c-3.447 0-6.245 2-9 2l-1 1c-2.091 0 0-2.863 0-4 1.692 0 2.921-5 6-5 2.614 0 6.464-1.518 9.5 0 2.333 1.167 4.728 3 7.5 3l5 4 1 1Z"/><path fill="#1D9C5A" id="MOs6a" d="m175 110-2 1 2-1ZM173 111l-1 1 1-1Z"/><path fill="#1E9D5A" id="MOp1" d="m343 113 1 1-1-1ZM118 155l-6 3c0-2.097-2.105-3.71-3-5.5-3.348-6.696-3.332-21.335 0-28 .883-1.765 1.45-10.5 4-10.5 0 2.25 2 3.376 2 5-1.473 0-1 1.952-1 3v3c-1.725 0-1 6.052-1 7.5v10l5 12.5Z"/><path fill="#22885E" id="ORBm6a" d="M197 125h1l2-7v-1l-6-3c0 .716 2.373 3 0 3 0 3.239 3 4.575 3 8ZM262 118l-3 6c-2.867 0-2-5.149-2-7l5-3c0 1.137-2.091 4 0 4Z"/><path fill="#24895D" id="ORBl6a" d="m159 133-2 6c7.387 0 14.318-11 24-11l3-13-20 10c0 1.476-3.343 8-5 8Z"/><path fill="#238A5C" id="ORBvl6a" d="M197 125c-5 0-10.208 3-16 3l3-13c3.77 0 7.021 2 10 2 0 3.239 3 4.575 3 8ZM259 125c5 0 10.208 3 16 3 0-5.009-3-8.535-3-13-3.447 0-6.245 2-9 2l-1 1-3 6v1Z"/><path fill="#24895D" id="ORBl6a" d="M297 133c0 2.447 2 3.28 2 6-6.521 0-14.288-11-24-11 0-5.009-3-8.535-3-13l20 10 5 8Z"/><path fill="#1E9D5A" id="MOp1" d="m338 155 6 3 3-6.5c3.873-7.746 3.895-20.21 0-28-.739-1.479-.967-8.5-3-8.5-2.362 0-1 6.171-1 8v2c0 5.989 2.765 13.97 0 19.5l-5 10.5Z"/><path fill="#258F45" id="FRP5" d="m290 116 1 1-1-1Z"/><path fill="#23885E" id="ORBm5" d="M237 126c0 6.198-1.346 30 6 30l12-24.5 4-6.5v-1c-2.867 0-2-5.149-2-7-2.306 0-14.526 9-20 9Z"/><path fill="#22885E" id="ORBm6a" d="m263 117-1 1 1-1Z"/><path fill="#1D9C5A" id="MOs6a" d="M297 133h6c0-4.114-7.753-16-12-16 0 1.08 5.458 8 1 8l5 8ZM164 118l-1 1 1-1Z"/><path fill="#23885E" id="ORBm5" d="M213 156h1c6.63 0 5-24.104 5-30-6.486 0-13.003-8-19-8l-2 7c0 5.168 15 23.266 15 31Z"/><path fill="#1E9C59" id="MOs1" d="M115 119c-1.473 0-1 1.952-1 3 1.473 0 1-1.952 1-3Z"/><path fill="#1D9C5A" id="MOs6a" d="M153 132c1.564 0 3.876 1 6 1 1.657 0 5-6.524 5-8-1.684 0-1-4.679-1-6-3.808 0-10 9.954-10 13Z"/><path fill="#1F9C58" id="MOp2/3" d="M118 155h1l2-2c0-6.373-6-11.745-6-18.5 0-.479.949-9.5-1-9.5-1.725 0-1 6.052-1 7.5v10l5 12.5Z"/><path fill="#23885C" id="ORBvl5" d="M181 145c12.279 0 23.846 11 32 11 0-7.734-15-25.832-15-31h-1c-5 0-10.208 3-16 3v17ZM275 145c-12.466 0-21.584 11-32 11l12-24.5 4-6.5c5 0 10.208 3 16 3v17Z"/><path fill="#1F9C58" id="MOp2/3" d="M337 155h1l5-10.5c2.765-5.53 0-13.511 0-19.5-3.358 0-2.089 16.678-4 20.5-1.264 2.528-3 4.474-3 7.5l1 2Z"/><path fill="#24885D" id="ORBm2/3" d="m214 156 5 12c4.37 0 2.946-6.392 4-8.5 4.365-8.729 0-24.19 0-33.5h-4c0 5.896 1.63 30-5 30Z"/><path fill="#23895D" id="ORBm1" d="M230 177c1.624 0 2.75 2 5 2 0-3.894 2-6.605 2-10v-1c-4.412 0-2.865-8.231-4-10.5-2.427-4.854 0-24.172 0-31.5h-10c0 9.31 4.365 24.771 0 33.5-1.054 2.108.37 8.5-4 8.5v1c0 2.84 3 6.715 3 10l4-2c0-5.894 4-6.637 4 0Z"/><path fill="#24885D" id="ORBm2/3" d="m243 156-6 12c-4.412 0-2.865-8.231-4-10.5-2.427-4.854 0-24.172 0-31.5h4c0 6.198-1.346 30 6 30Z"/><path fill="#228A5D" id="ORBl5" d="m149 164-1 8c11.501 0 24.384-26 33-26v-18c-9.682 0-16.613 11-24 11l-7 22-1 2v1ZM307 163c0 3.324 2 6.16 2 9-11.894 0-24.396-26-34-26v-18c9.712 0 17.479 11 24 11h1l6 22 1 1v1Z"/><path fill="#209666" id="AId6a" d="m159 133-2 6c-3.591 0-4-3.117-4-6v-1c1.564 0 3.876 1 6 1Z"/><path fill="#209665" id="AId5" d="m149 164-6 8c-3.649 0-14-19.369-14-23 4.518 0 16.707-16 24-16 0 2.883.409 6 4 6l-7 22-1 2v1Z"/><path fill="#209666" id="AId6a" d="M299 139h1c3.626 0 3-3.26 3-6h-6c0 2.447 2 3.28 2 6Z"/><path fill="#209665" id="AId5" d="M307 163c3.4 0 3.254 9 6 9 4.924 0 14-18.784 14-23v-1c-5.402 0-16.101-15-24-15 0 2.74.626 6-3 6l6 22 1 1v1Z"/><path fill="#248A5D" id="ORBvl2/3" d="M219 168v1c-12.414 0-21.441-11-34-11 0-3.806-4-8.065-4-12v-1c12.279 0 23.846 11 32 11h1l5 12ZM237 168v1c12.771 0 21.966-11 35-11l3-12v-1c-12.466 0-21.584 11-32 11l-6 12Z"/><path fill="#238A5E" id="ORBl2/3" d="M147 173v9l10.5-9c9.618-4.809 14.65-15 27.5-15 0-3.806-4-8.065-4-12-8.616 0-21.499 26-33 26l-1 1ZM309 173v8c-4.736 0-8.409-7.954-12.5-10-8.341-4.171-13.252-13-24.5-13l3-12c9.604 0 22.106 26 34 26v1Z"/><path fill="#209765" id="AId2/3" d="M143 173c0 1.518-5.218 8-7 8-2.417 0-3.296-4.092-4-5.5-3.115-6.231-13-13.322-13-20.5l2-2 8-4c0 3.631 10.351 23 14 23v1ZM313 173c2.826 0 3.853 8 8 8 0-6.34 16-17.911 16-26l-1-2c-3.681 0-5.758-4-9-4 0 4.216-9.076 23-14 23v1Z"/><path fill="#209764" id="AId1" d="M136 182c-2.364 0-3.053 3-5 3 0-6.272-19-20.382-19-27l6-3h1c0 7.178 9.885 14.269 13 20.5.704 1.408 1.583 5.5 4 5.5v1ZM321 182c2.618 0 1.651 3 4 3l4.5-6c2.814-2.814 14.5-17.826 14.5-21l-6-3h-1c0 8.089-16 19.66-16 26v1Z"/><path fill="#238A5D" id="ORBl1" d="m147 183 2 4c3.741 0 5.783-8 10-8 0-6.128 21.195-14 27-14l-1-7c-12.85 0-17.882 10.191-27.5 15l-10.5 9v1Z"/><path fill="#248A5B" id="ORBvl1" d="M219 169c0 2.84 3 6.715 3 10-10.845 0-21.755-14-36-14l-1-7c12.559 0 21.586 11 34 11ZM237 169c0 3.395-2 6.106-2 10 10.034 0 21.611-14 36-14 0-3.159 1-4.806 1-7-13.034 0-22.229 11-35 11Z"/><path fill="#238A5D" id="ORBl1" d="m309 183-2 4-12.5-12c-8.008-4.004-13.772-10-23.5-10 0-3.159 1-4.806 1-7 11.248 0 16.159 8.829 24.5 13 4.091 2.046 7.764 10 12.5 10v2Z"/><path fill="#1F9865" id="AIv5" d="m150 161-1 2 1-2ZM306 161l1 1-1-1ZM309 173h4v-1c-2.746 0-2.6-9-6-9 0 3.324 2 6.16 2 9v1ZM143 173h4l1-1 1-8-6 8v1Z"/><path fill="#99D2BD" id="OLF" d="m214 229 11 3c0-2.816.775-7.049 2-9.5 2.507-5.013-1-39.382-1-45.5l-4 2c-10.845 0-21.755-14-36-14-5.805 0-27 7.872-27 14 3.504 0 5.551-4.525 8.5-6l14-6c8.362-4.181 15.192 5.096 21 8 18.356 9.178 2.893 28.286 8.5 39.5 2.329 4.659 3 10.021 3 14.5ZM243 229c-1.575 0-11 2.18-11 4-2.131 0-1.094-11.689-2-13.5-2.576-5.152 0-35.29 0-42.5 1.624 0 2.75 2 5 2 10.034 0 21.611-14 36-14 9.728 0 15.492 5.996 23.5 10l12.5 12 6 4c0 3.896 6.459 8.582 4 13.5l-4 3-3 3.5-1-2c0-3.644 3.966-9.569 2-13.5-5.013-10.026-32.911-34.795-45.5-28.5-2.465 1.232-4.502 2.751-7 4l-9.5 8.5c-1.308 2.616-6.704 9.591-5 13 1.048 2.095 2.167 21.666 1 24-1.03 2.06-4 7.89-4 10l2 2.5Z"/><path fill="#54BF94" id="AON" fill-rule="evenodd" d="M181 192c0 1.384-3.189 1.123-2 3.5 2.22 4.44 5.741 8.482 8 13 .637 1.275 2.72 11.89 5.5 10.5 5.032-2.516.997-13.506-.5-16.5l1-8c-1.364-2.728-9.167-2.5-12-2.5m-3 51c5 0 9.031 8 15 8 0-7.157 8.35-18.925 14.5-22h6.5c0-4.479-.671-9.841-3-14.5-5.607-11.214 9.856-30.322-8.5-39.5-5.808-2.904-12.638-12.181-21-8l-14 6c-2.949 1.475-4.996 6-8.5 6l-12 13.5c-2.907 5.813 1 11.25 1 16.5l3.5-1c4.615 2.307 26.5 31.603 26.5 35ZM269 192c0 1.948-8.289-.078-6 4.5.642 1.283 2.953 2.095 2 4-.874 1.748-6.083 18.5-.5 18.5 3.465 0 3.653-7.807 4.5-9.5l6-12 3-4c-.926-1.852-6.934-1.5-9-1.5m9 51c-2.088 0-10.721 9-15 9 0-10.193-8.998-23-20-23l-2-2.5c0-2.11 2.97-7.94 4-10 1.167-2.334.048-21.905-1-24-1.704-3.409 3.692-10.384 5-13l9.5-8.5c2.498-1.249 4.535-2.768 7-4 12.589-6.295 40.487 18.474 45.5 28.5 1.966 3.931-2 9.856-2 13.5l-3.5-1c-5.849 2.925-17.954 19.408-20.5 24.5-1.666 3.332-7 5.546-7 9.5v1Z"/><path fill="#219764" id="AIv2/3" d="m148 172-1 1 1-1ZM147 182v1l-6.5 2-4.5-3v-1c1.782 0 7-6.482 7-8h4v9ZM321 182l-4.5 3c-2.583 1.292-5.121-2-7.5-2v-10h4c2.826 0 3.853 8 8 8v1Z"/><path fill="#99D2BD" id="OLF" d="m148 209-2 2-3-3.5-4-4c-2.118-4.236 4-8.668 4-12.5 0-1.876 6-1.04 6-4 3.741 0 5.783-8 10-8l-12 13.5c-2.907 5.813 1 11.25 1 16.5Z"/><path fill="#209864" id="AIv1" d="M149 187c0 2.96-6 2.124-6 4-3.438 0-12-.914-12-6 1.947 0 2.636-3 5-3l4.5 3 6.5-2 2 4ZM307 187l6 4c3.593 0 12-.614 12-6-2.349 0-1.382-3-4-3l-4.5 3c-2.583 1.292-5.121-2-7.5-2l-2 4Z"/><path fill="#CBCBC7" id="aco" d="M181 192c0 1.384-3.189 1.123-2 3.5 2.22 4.44 5.741 8.482 8 13 .637 1.275 2.72 11.89 5.5 10.5 5.032-2.516.997-13.506-.5-16.5l1-8c-1.364-2.728-9.167-2.5-12-2.5ZM269 192c0 1.948-8.289-.078-6 4.5.642 1.283 2.953 2.095 2 4-.874 1.748-6.083 18.5-.5 18.5 3.465 0 3.653-7.807 4.5-9.5l6-12 3-4c-.926-1.852-6.934-1.5-9-1.5Z"/><path fill="#CAC8C7" id="lot" d="M146 211c0 4.637 6.286 5.072 8 8.5 2.695 5.39 17.84 23.5 24 23.5 0-3.397-21.885-32.693-26.5-35l-3.5 1-2 2ZM278 242l1 1c6.851 0 18.881-18.381 23.5-23 2.766-2.766 7.5-5.27 7.5-9l-1-2-3.5-1c-5.849 2.925-17.954 19.408-20.5 24.5-1.666 3.332-7 5.546-7 9.5Z"/><path fill="#62CF9E" id="TTv" d="M225 232c0 6.784-6.545 21.523-13.5 25-3.355 1.678-18.5-3.136-18.5-6 0-7.157 8.35-18.925 14.5-22h6.5l11 3ZM232 233c0 5.24 10.979 28.761 18.5 25l12.5-6c0-10.193-8.998-23-20-23-1.575 0-11 2.18-11 4Z"/><path fill="#99D2BD" id="OLF" d="M278 243h1l-1-1v1Z"/></svg>