<svg xmlns="http://www.w3.org/2000/svg" viewBox="0 0 456 320"><path fill="#1E9C59" id="MOs1" d="m225 58-4 3c0-2.9-3.43-6.965-5.5-8-2.254-1.127-5.086-4.543-8-6-5.386-2.693-26.164-.418-31 2l-3.5 2c0-.424.488-6-1-6 0-2.05 14.029-4 16.5-4 13.66 0 26.246-1.008 32.5 11.5 1.151 2.303 4 2.641 4 5.5ZM231 58l4 2 3-4.5c1.714-3.428 7.486-6.993 10.5-8.5 11.046-5.523 27.18 4 35.5 4v-6c0-2.154-13.653-4-16-4-7.716 0-17.057-1.222-23.5 2l-8 8c-1.166.583-5.5 5.13-5.5 7Z"/><path fill="#1E9D5A" id="MOp1" d="M116 69c0 1.564-1 3.876-1 6 5.062 0 11.085-5.793 15.5-8 8.329-4.165 33.844-16 42.5-16 0-.424.488-6-1-6-11.579 0-32.07 11.785-42.5 17L116 69ZM341 69c0 3.047 1 4.462 1 7-2.318 0-12.241-7.37-15.5-9-6.365-3.182-36.669-16-42.5-16v-6c9.041 0 33.909 11.705 42.5 16 2.822 1.41 11.993 8 14.5 8Z"/><path fill="#1E9D58" id="MOs2/3" d="m215 64-4.5-5c-3.106-1.553-12.98-4.01-17-2L171 68c0-5.375 2-11.227 2-17l3.5-2c4.836-2.418 25.614-4.693 31-2 2.914 1.457 5.746 4.873 8 6 2.07 1.035 5.5 5.1 5.5 8l-6 3ZM241 64c1.696 0 12.605-11.448 21.5-7 3.786 1.893 19.447 11 22.5 11l-1-17c-8.32 0-24.454-9.523-35.5-4-3.014 1.507-8.786 5.072-10.5 8.5l-3 4.5v1l6 3Z"/><path fill="#1F9C58" id="MOp2/3" d="M114 92v8l15.5-11c8.934-4.467 32.599-20 41.5-20v-1c0-5.375 2-11.227 2-17-8.656 0-34.171 11.835-42.5 16-4.415 2.207-10.438 8-15.5 8v1c0 3.563-2 8.265-2 12l1 4ZM343 93c-.075 0-1 5.537-1 7l-11.5-9-36-18c-2.986-1.493-6.007-5-9.5-5l-1-17c5.831 0 36.135 12.818 42.5 16 3.259 1.63 13.182 9 15.5 9l1 13v4Z"/><path fill="#1F9D58" id="MOs5" d="M199 79h1c0-2.347 13.693-14 15-14v-1l-4.5-5c-3.106-1.553-12.98-4.01-17-2L171 68v1c0 6.35-1 12.898-1 18l20-10c2.008 0 9-.656 9 2ZM257 79c0-2.656 6.992-2 9-2l21 10c0-6.909-2-11.706-2-19-3.053 0-18.714-9.107-22.5-11-8.895-4.448-19.804 7-21.5 7v1c3.481 0 15 10.275 15 14h1Z"/><path fill="#3EA665" id="ACAd1" d="M223 90c3.642 0 8.002 1 11 1 0-9.97 1-20.677 1-30v-1l-4-2c-2.307 0-1.624 4-2.5 4l-3.5-4-4 3c0 2.407.906 7.311 2 9.5V90Z"/><path fill="#40A565" id="ACAd2/3" d="M223 91c-2.124 0-4.436 1-6 1V68.5l-2-3.5v-1l6-3c0 2.407.906 7.311 2 9.5V91ZM234 91h5c0-9.049 2-17.677 2-26v-1l-6-3c0 9.323-1 20.03-1 30Z"/><path fill="#3EA566" id="ACAd5" d="M217 92c-5.334 0-9.013 6-14 6 0-6.09-3-14.777-3-19 0-2.347 13.693-14 15-14l2 3.5V92ZM253 99h1c0-7.089 2-14.55 2-20 0-3.725-11.519-14-15-14 0 8.323-2 16.951-2 26v1c2.522 0 14 4.172 14 7Z"/><path fill="#1E9C5A" id="MOp5" d="M342 101c0 4.477-2 8.932-2 13-4.567 0-8.538-7.019-12.5-9-6.54-3.27-34.695-17-40.5-17v-1c0-6.909-2-11.706-2-19 3.493 0 6.514 3.507 9.5 5l36 18 11.5 9v1Z"/><path fill="#197E64" id="SSp-ul1" d="m115 76-8 4-3-5 12-6c0 1.564-1 3.876-1 6v1Z"/><path fill="#1E9C5A" id="MOp5" d="M114 101c1.895 0 .456 13 3 13l10.5-8c7.019-3.51 35.261-18 41.5-18l1-1c0-5.102 1-11.65 1-18-8.901 0-32.566 15.533-41.5 20L114 100v1Z"/><path fill="#197E64" id="SSp-ul1" d="m342 76 7 4c0-1.054 3-2.931 3-5l-11-6c0 3.047 1 4.462 1 7Z"/><path fill="#187E61" id="SSp-m1" d="M67 146h1c0-13.886 7.171-27.842 13-39.5l8-10c1.638-3.277 14.647-15.5 18-15.5v-1l-3-5c-2.863 0-10.448 9.474-13.5 11C78.834 91.833 63 130.762 63 144l4 2ZM393 144l-4 1c0-15.098-13.121-40.621-23.5-51-4.085-4.085-10.934-13-16.5-13v-1c0-1.054 3-2.931 3-5 2.394 0 14.385 10.885 17 13.5 11.079 11.08 24 40.024 24 55.5Z"/><path fill="#197F61" id="SSp-ul2/3" d="m107 81 6 7c0-3.735 2-8.438 2-12l-8 4v1ZM349 81l-6 8-1-13 7 4v1Z"/><path fill="#1D9C5A" id="MOs6a" d="M179 105c-3.823 0-6.314 3-10 3V88l1-1 20-10c2.008 0 9-.656 9 2 0 4.466-12 16.963-12 24-1.552 0-8 .566-8 2ZM269 103c6.933 0 11.932 5 18 5V87l-21-10c-2.008 0-9-.656-9 2 0 3.406 12 16.03 12 24Z"/><path fill="#3FA664" id="ACAd6a" d="M187 103c1.668 0 6 3.099 6 5l10-9v-1c0-6.09-3-14.777-3-19h-1c0 4.466-12 16.963-12 24ZM267 105l-4 2c-1.432 0-9-6.261-9-8 0-7.089 2-14.55 2-20h1c0 3.406 12 16.03 12 24l-2 2Z"/><path fill="#1A7E64" id="SSp-m2/3" d="m77 166-4 1-2-2.5 2-7-2-1c0-2.113.357-6.287-1-9l-2-1.5c0-13.886 7.171-27.842 13-39.5l8-10c1.638-3.277 14.647-15.5 18-15.5l6 7 1 4c-5.144 0-10.934 8.717-15.5 11-4.281 2.141-7.324 11.148-9.5 15.5-7.765 15.53-12 28.541-12 47.5Z"/><path fill="#1A7E64" id="SSp-m2/3" fill-rule="evenodd" d="M383 162c0 1.93 1.93 0 0 0m-4 4 6 1c0-4.886-.906-21 4-21v-1c0-15.098-13.121-40.621-23.5-51-4.085-4.085-10.934-13-16.5-13l-6 8v4c7.294 0 11.503 9.502 16.5 12 3.16 1.58 5.782 9.064 7.5 12.5 7.88 15.76 12 28.199 12 47.5v1Z"/><path fill="#1F9B5A" id="MOp6a" d="M145 121c-4.91 0-15.524 12.024-19.5 16l-4.5 6c0-8.804-4-18.193-4-28v-1l10.5-8c7.019-3.51 35.261-18 41.5-18v20c-1.707 0-8 2.656-8 5-2.587 0-16 5.107-16 8ZM340 115c-1.862 0 .014 5.472-1 7.5-2.467 4.934-3 13.569-3 21.5l-3-4.5-10-10c-4.98-4.98-30.373-21.5-36-21.5V88c5.805 0 33.96 13.73 40.5 17 3.962 1.981 7.933 9 12.5 9v1Z"/><path fill="#40A664" id="ACAv1" d="m229 122 5 4V91c-2.998 0-7.358-1-11-1v1c0 11.759-1 24.608-1 36l5-5c0-3.15 2-3.446 2 0Z"/><path fill="#3FA566" id="ACAv2/3" d="M219 132h1l2-5c0-11.392 1-24.241 1-36-2.124 0-4.436 1-6 1v27.5c1.307 2.614 2 9.695 2 12.5ZM236 131l2 2c0-13.113 1-27.28 1-41v-1h-5v35l2 5Z"/><path fill="#1B7F62" id="SSp-m4" d="M83 165c-2.124 0-4.436 1-6 1 0-18.959 4.235-31.97 12-47.5 2.176-4.352 5.219-13.359 9.5-15.5 4.566-2.283 10.356-11 15.5-11v9l-13 13.5c-3.66 7.319-8.41 13.819-12 21-2.657 5.315-1.684 18.368-4 23l-2 6.5Z"/><path fill="#3EA666" id="ACAv5" d="M209 129c.621 0 10 7.034 10 3 0-2.805-.693-9.886-2-12.5V92c-5.334 0-9.013 6-14 6v1c0 6.304-.623 14.253 2 19.5 1.616 3.232 4 6.644 4 10.5ZM247 129c-2.864 0-5.35 4-9 4 0-13.113 1-27.28 1-41 2.522 0 14 4.172 14 7v14.5c-1.954 3.907-6 11.127-6 15.5Z"/><path fill="#1B7F62" id="SSp-m4" d="M373 165h6c0-19.301-4.12-31.74-12-47.5-1.718-3.436-4.34-10.92-7.5-12.5-4.997-2.498-9.206-12-16.5-12-.075 0-1 5.537-1 7v1c4.444 0 11.339 10.178 13 13.5 1.634 3.268 6.011 7.023 8 11 5.146 10.292 10 26.476 10 38.5v1Z"/><path fill="#40A564" id="ACAv6a" d="m204 125 5 4c0-3.856-2.384-7.268-4-10.5-2.623-5.247-2-13.196-2-19.5l-10 9v1l3 3.5c1.556 3.111 8 8.686 8 11.5v1ZM253 125c-2.58 0-3.211 4-6 4 0-4.373 4.046-11.593 6-15.5V99h1c0 1.739 7.568 8 9 8v2l-2 4c-1.617 0-4 4.583-4 6-1.811 0-4 3.438-4 5v1Z"/><path fill="#1B7E63" id="SSp-m5" d="M99 161c-4.566 0-11.15 4-16 4l2-6.5c2.316-4.632 1.343-17.685 4-23 3.59-7.181 8.34-13.681 12-21l13-13.5c1.895 0 .456 13 3 13v1c-3.811 0-6.667 5.835-8 8.5l-6 8c-4.246 8.492-4 19.233-4 29.5ZM358 162c5.078 0 9.598 2 15 2 0-12.024-4.854-28.208-10-38.5-1.989-3.977-6.366-7.732-8-11-1.661-3.322-8.556-13.5-13-13.5 0 4.477-2 8.932-2 13v1c3.292 0 7.909 8.319 9 10.5 6.322 12.643 9 21.203 9 36.5Z"/><path fill="#1E9C58" id="MOs6b" d="M187 104c-2.097 0-5.293 1-8 1 0-1.434 6.448-2 8-2v1Z"/><path fill="#3FA466" id="ACAd6b" d="M193 108v1l-3-3.5-3-1.5v-1c1.668 0 6 3.099 6 5ZM269 104l-2 1 2-2v1Z"/><path fill="#1E9C58" id="MOs6b" d="M287 108v1c-6.493 0-11.332-5-18-5v-1c6.933 0 11.932 5 18 5Z"/><path fill="#CACCC7" id="cing" d="M204 124v1c-9.122 0-9.528-12.514-16.5-16-4.582-2.291-10.643 2-14.5 2l-1 1h-1l-1 1h-1c-1.357 0-6 2.112-6 0 0-3.004 6-1.483 6-4 2.161 0 10-1.729 10-4 2.707 0 5.903-1 8-1l3 1.5 3 3.5c0 4 7.235 15 11 15ZM253 124v1c8.047 0 9.788-12.644 16.5-16 4.623-2.311 10.507 2 14.5 2l3 2h1c1.424 0 5 1.762 5 0 0-1.313-4.47-4-6-4-6.493 0-11.332-5-18-5l-2 1c0 1.634-2.634 4-4 4 0 1.465.109 4-2 4 0 2.522-1.432 6-4 6 0 1.562-2.189 5-4 5Z"/><path fill="#1E9C58" id="MOs6b" d="M169 108v1c2.161 0 10-1.729 10-4-3.823 0-6.314 3-10 3Z"/><path fill="#3FA466" id="ACAd6b" d="M263 107v2c1.366 0 4-2.366 4-4l-4 2Z"/><path fill="#1D9D5A" id="MOp6b" d="M161 113h2c0-3.004 6-1.483 6-4v-1c-1.707 0-8 2.656-8 5ZM337 147v2c-2.341 0-1.421-2.342-2-3.5l-7.5-9.5c-7.368-7.368-24.9-23-34.5-23 0-1.313-4.47-4-6-4v-1c5.627 0 31.02 16.52 36 21.5l10 10 3 4.5 1 3Z"/><path fill="#CCC7C9" id="ccg" d="M336 173h3v-10c-1.921 0-1.26-8.021-2-9.5-3.281-6.562-8.819-17.659-14.5-20.5-8.861-4.43-16.218-11.609-25-16-1.662-.831-9.5-1.515-9.5-4h-1c-1.238 0-3-.423-3-2-3.993 0-9.877-4.311-14.5-2-6.712 3.356-8.453 16-16.5 16-2.58 0-3.211 4-6 4-2.864 0-5.35 4-9 4l-2-2c0 1.416-4.711 5.894-6.5 5l-1-4c-2.132 0-.749 5.126-3 4l-5.5-4h-1c0 4.034-9.379-3-10-3l-5-4c-9.122 0-9.528-12.514-16.5-16-4.582-2.291-10.643 2-14.5 2l-1 1h-1l-1 1h-1c0 1.845-3.381 1.441-4.5 2-5.593 2.796-11.428 5.214-17 8-6.809 3.405-12.772 9.772-18.5 15.5l-6 6.5c0 1.465.109 4-2 4 0 1.419-2.339 12-3 12 0 1.321.684 6-1 6v4l1 2h2c0-31.255 10.262-33.881 34.5-46 6.477-3.239 37.5-.708 37.5 9 7.276 0 17 10.112 17 17l1 1c1.042 0 11 1.294 11 2h2l2 1h1l2.5-2 1.5 2h1l2-1h3c0-1.763 8.343-1 10-1 0-.671 1.328-5 2-5 0-5.347 10.172-13 15-13l1-1 7.5-7c4.593-2.296 10.44-1.72 15-4 2.942-1.471 16.376 2.688 19 4 3.342 1.671 7.57 2.285 11 4 16.492 8.246 19.5 23.083 19.5 40Z"/><path fill="#40A465" id="ACAv6b" d="m193 109 3 3.5c1.556 3.111 8 8.686 8 11.5-3.765 0-11-11-11-15ZM263 109l-2 4c2.109 0 2-2.535 2-4Z"/><path fill="#C9C9CA" id="scwm" d="m173 111-1 1 1-1ZM284 111l3 2c-1.238 0-3-.423-3-2ZM171 112l-1 1 1-1Z"/><path fill="#1D9D5A" id="MOp6b" d="M161 113c-2.587 0-16 5.107-16 8 1.998 0 16-6.943 16-8Z"/><path fill="#C9C9CA" id="scwm" d="M145 121c0 2.675-5.266 4.883-7.5 6-2.262 1.131-14.5 14.76-14.5 18l6-6.5c5.728-5.728 11.691-12.095 18.5-15.5 5.572-2.786 11.407-5.204 17-8 1.119-.559 4.5-.155 4.5-2-1.357 0-6 2.112-6 0h-2c0 1.057-14.002 8-16 8Z"/><path fill="#40A465" id="ACAv6b" d="M261 113c-1.617 0-4 4.583-4 6 2.568 0 4-3.478 4-6Z"/><path fill="#C9C9CA" id="scwm" d="M339 158v5c-1.921 0-1.26-8.021-2-9.5-3.281-6.562-8.819-17.659-14.5-20.5-8.861-4.43-16.218-11.609-25-16-1.662-.831-9.5-1.515-9.5-4 1.424 0 5 1.762 5 0 9.6 0 27.132 15.632 34.5 23l7.5 9.5c.579 1.158-.341 3.5 2 3.5v1c0 1.048-.473 3 1 3l1 5Z"/><path fill="#187D61" id="SSp-m6a" d="M99 161v1c5.729 0 10.786-3 17-3v-1c0-1.951.433-9 3-9v-2l1-2 1-1v-1c0-8.804-4-18.193-4-28-3.811 0-6.667 5.835-8 8.5l-6 8c-4.246 8.492-4 19.233-4 29.5ZM341 159c5.972 0 11.193 3 17 3 0-15.297-2.678-23.857-9-36.5-1.091-2.181-5.708-10.5-9-10.5-1.862 0 .014 5.472-1 7.5-2.467 4.934-3 13.569-3 21.5l1 3c1.949 0 4 9.971 4 12Z"/><path fill="#40A465" id="ACAv6b" d="M257 119c-1.811 0-4 3.438-4 5 1.811 0 4-3.438 4-5Z"/><path fill="#1D9D5A" id="MOp6b" d="m121 149-2 1v-2c1.186 0 1.186-1 0-1l1-2 1-1v-1l4.5-6c3.976-3.976 14.59-16 19.5-16 0 2.675-5.266 4.883-7.5 6-2.262 1.131-14.5 14.76-14.5 18-2.109 0-2 2.535-2 4Z"/><path fill="#7ED04B" id="IG" d="M236 131c0 1.416-4.711 5.894-6.5 5l-1-4c-2.132 0-.749 5.126-3 4l-5.5-4 2-5 5-5c0 1.919 2 2.488 2 0l5 4 2 5Z"/><path fill="#98D5F9" id="CP" d="M143 233h2c3.766 0 7.514 1.993 11.5 0 5.575-2.787 6.298-10.095 8.5-14.5 3.831-7.663 18.262-22.5 27-22.5l1-1c0-6.392 2-12.049 2-19 0-1.041.986-5 2-5v-25.5l-2-4.5-3-5c0-9.708-31.023-12.239-37.5-9-24.238 12.119-34.5 14.745-34.5 46 1.344 0 1.387 7.273 2 8.5 3.128 6.256 6 16.196 6 23.5 0 6.716 5 11.909 5 18 3.459 0 5.128 10 10 10ZM314 233c-1.048 0-3-.473-3 1-17.467 0-18.291-11.082-25-24.5-3.277-6.555-11.352-7.926-16.5-10.5l-5.5-3-1-1c0-1.916-.713-14-2-14v-1c0-4.584-.126-7.751-2-11.5-3.681-7.361 2-20.915 2-27.5l2-4 1-1 7.5-7c4.593-2.296 10.44-1.72 15-4 2.942-1.471 16.376 2.688 19 4 3.342 1.671 7.57 2.285 11 4 16.492 8.246 19.5 23.083 19.5 40 0 11.035-7 20.281-7 32l-4 14-1 2-1 1v1c-1.991 0-3.486 8-7 8l-1 1-1 1Z"/><path fill="#AAA8A9" id="SEZ" d="m209 153-2 2c0-7.608-5.408-14-12-14l-3-5c7.276 0 17 10.112 17 17ZM264 136l-1 1 1-1ZM248 150c0 1.145-.579 4 1 4 0-6.682 7.422-13 12-13l2-4c-4.828 0-15 7.653-15 13Z"/><path fill="#A8AAAA" id="VL" d="M197 171h1l1-2 1-2 1-2c0-1.238.423-3 2-3l1-2c0-1.238.423-3 2-3l1-2c0-7.608-5.408-14-12-14l2 4.5V171ZM260 179l1 1c0-4.584-.126-7.751-2-11.5-3.681-7.361 2-20.915 2-27.5-4.578 0-12 6.318-12 13v1c1.094 0 10 14.36 10 16v2l1 2v4Z"/><path fill="#1A7E62" id="SSs1" d="m68 168-5 2v-26l4 2c0 7.293 1 15.359 1 22Z"/><path fill="#1F9B5A" id="MOp6a" d="m121 144-1 1 1-1Z"/><path fill="#1A7E62" id="SSs1" d="m389 169 4 1 2-6.5c2.809-5.618-2-14.481-2-19.5l-4 1v24Z"/><path fill="#C9C9CA" id="scwm" d="M123 145c-2.109 0-2 2.535-2 4 2.109 0 2-2.535 2-4Z"/><path fill="#1B8063" id="SSs2/3" d="m73 167-5 1c0-6.641-1-14.707-1-22h1l2 1.5c1.357 2.713 1 6.887 1 9l2 1-2 7 2 2.5ZM385 167l4 1v-22c-4.906 0-4 16.114-4 21Z"/><path fill="#188064" id="SSp-m6b" d="M119 147c1.186 0 1.186 1 0 1v-1ZM339 158l2 1c0-2.029-2.051-12-4-12v3c1.473 0 1 1.952 1 3l1 5ZM116 158h2l1-5c-1.399 0-1.399-2 0-2v-2c-2.567 0-3 7.049-3 9Z"/><path fill="#C9C9CA" id="scwm" d="M118 158v3c.661 0 3-10.581 3-12l-2 1v3l-1 5Z"/><path fill="#97D6F9" id="STR" d="m225 199 3.5-6c2.674 0 1.77 10 3.5 10 0-12.567-5.519-29.49 7.5-36h15l2.5 2c0-4.593-8-9.298-8-14v-1c-1.579 0-1-2.855-1-4-.672 0-2 4.329-2 5 0 2.991-6.051 2-8 2 0 1.606 2.081 4.339 1 6.5-1.071 2.142-6.801 8.399-9 4-1.88-3.76 0-6.887 0-10.5l-1.5-2-2.5 2c0 2.454 2.489 7.523 1 10.5-2.592 5.185-8.932-2.864-10-5-.978-1.956 1-4.077 1-5.5-2.32 0-8 .666-8-3l-1-1-2 2-1 2c0 1.238-.423 3-2 3l-1 2c0 1.238-.423 3-2 3l-1 2v1c4.158 0 13.034-3.233 17.5-1 10.923 5.461 7.5 20.466 7.5 32Z"/><path fill="#1D9D5A" id="MOp6b" d="M337 150c1.473 0 1 1.952 1 3-1.473 0-1-1.952-1-3ZM119 151c-1.399 0-1.399 2 0 2v-2Z"/><path fill="#CAC7CC" id="fa" d="M221 156c0 1.473-1.952 1-3 1-2.32 0-8 .666-8-3 1.042 0 11 1.294 11 2Z"/><path fill="#AAA8A9" id="SEZ" d="m207 155-1 2 1-2Z"/><path fill="#CAC7CC" id="fa" d="m236 156 2 1c1.949 0 8 .991 8-2-1.657 0-10-.763-10 1Z"/><path fill="#AAA8A9" id="SEZ" d="m257 169 2 2c0-1.64-8.906-16-10-16 0 4.702 8 9.407 8 14Z"/><path fill="#8FCAED" id="SH" d="M225 157h1c0 2.454 2.489 7.523 1 10.5-2.592 5.185-8.932-2.864-10-5-.978-1.956 1-4.077 1-5.5 1.048 0 3 .473 3-1h2l2 1Z"/><path fill="#CAC7CC" id="fa" d="m223 156 2 1-2-1ZM233 156l-2 1 2-1Z"/><path fill="#8FCAED" id="SH" d="M230 157h1l2-1h3l2 1c0 1.606 2.081 4.339 1 6.5-1.071 2.142-6.801 8.399-9 4-1.88-3.76 0-6.887 0-10.5Z"/><path fill="#AAA8A9" id="SEZ" d="M206 157c-1.577 0-2 1.762-2 3 1.577 0 2-1.762 2-3Z"/><path fill="#019C74" id="GU6b" d="M116 171h1v-4c0-1.321-.684-6 1-6v-3h-2v13ZM339 171h2v-12l-2-1v13Z"/><path fill="#009B74" id="GU6a" d="M116 171c-6.006 0-10.239 6-17 6v-15c5.729 0 10.786-3 17-3v12ZM341 171c5.488 0 9.66 6 16 6 0-4.933 1-10.73 1-15-5.807 0-11.028-3-17-3v12Z"/><path fill="#AAA8A9" id="SEZ" d="m204 160-1 2 1-2Z"/><path fill="#019C75" id="GU5" d="M99 178c-5.69 0-10.205 5-16 5-1.615 0-1-3.31-1-4.5l1-13.5c4.85 0 11.434-4 16-4v17Z"/><path fill="#C9C9CA" id="scwm" d="M118 161c-1.684 0-1 4.679-1 6 1.684 0 1-4.679 1-6Z"/><path fill="#AAA8A9" id="SEZ" d="M203 162c-1.577 0-2 1.762-2 3 1.577 0 2-1.762 2-3Z"/><path fill="#019C75" id="GU5" d="M357 178c6.058 0 10.733 5 17 5 0-6.216-1-12.292-1-18v-1c-5.402 0-9.922-2-15-2 0 4.27-1 10.067-1 15v1Z"/><path fill="#1B8063" id="SSs2/3" d="M383 162c0 1.93 1.93 0 0 0Z"/><path fill="#009C74" id="GU4" d="M81 184h2v-1c-1.615 0-1-3.31-1-4.5l1-13.5c-2.124 0-4.436 1-6 1l2 14.5 2 3.5Z"/><path fill="#AAA8A9" id="SEZ" d="m201 165-1 2 1-2Z"/><path fill="#009C74" id="GU4" d="M374 184h1c2.422 0 4-15.141 4-18v-1h-6c0 5.708 1 11.784 1 18v1Z"/><path fill="#009B75" id="GU2/3" d="M81 184c0 .774-7.773 4-9 4l-4-20 5-1 4-1 2 14.5 2 3.5ZM375 184c0 1.682 7.147 3 9 3 2.064 0 .426-3.353 1-4.5.79-1.579 3.184-13.5 4-13.5v-1l-4-1-6-1c0 2.859-1.578 18-4 18Z"/><path fill="#AAA8A9" id="SEZ" d="m200 168-1 1 1-2v1Z"/><path fill="#90CAED" id="LSr" d="m213 217 2.5 4c3.269 1.634 3.957-3 5.5-3 0-4.25 3-8.447 3-13 0-1.235-.643-5 1-5v-1c0-11.534 3.423-26.539-7.5-32-4.466-2.233-13.342 1-17.5 1l-1 1-1 2-1 2v5c4.083 0 18.523 24.988 12.5 28l-2.5-1 2 4 1 1 3 7ZM235 217l2.5 4c3.443 1.722 3.168-3 5.5-3v-2l1-1 1-3 1-1 1-1 1-3v-1c-4.227 0-3.225-6.05-2-8.5 1.694-3.389 8.579-18.04 11.5-19.5l2.5 1v-4l-1-2v-2l-2-2-2.5-2h-15c-13.019 6.51-7.5 23.433-7.5 36l3 14Z"/><path fill="#009C75" id="GU1" d="m72 188-4 1-5-19 5-2 4 20Z"/><path fill="#AAA8A9" id="SEZ" d="m199 169-1 2 1-2Z"/><path fill="#009C75" id="GU1" d="m384 188 4 1c1.951 0 .477-2.454 1-3.5 2.004-4.008 4-10.869 4-15.5l-4-1c-.816 0-3.21 11.921-4 13.5-.574 1.147 1.064 4.5-1 4.5v1Z"/><path fill="#209666" id="AId6a" d="M111 197c-2.483 0-4.026 2-6 2 0-5.844-6-12.807-6-21v-1c6.761 0 10.994-6 17-6 0 2.595.489 13 4 13l1 3-3.5-4c-9.458-4.729-6.5 10.57-6.5 14Z"/><path fill="#1F9766" id="AId6b" d="m118 173 2 11c-3.511 0-4-10.405-4-13h1l1 2Z"/><path fill="#A8AAAA" id="VL" d="M193 195v1c0 2.374 2-1.359 2-2l1-3v-13c0-1.048-.473-3 1-3v-4c-1.014 0-2 3.959-2 5 0 6.951-2 12.608-2 19Z"/><path fill="#AAA8A9" id="SEZ" d="m198 171-1 2v-2h1Z"/><path fill="#1F9766" id="AId6b" d="m339 183-2 1c0-3.978 2-7.549 2-11v-2h2c0 3.981-2 7.629-2 12Z"/><path fill="#209666" id="AId6a" d="m346 197 5 1c3.85 0 6-16.076 6-20v-1c-6.34 0-10.512-6-16-6 0 3.981-2 7.629-2 12 8.643 0 7 6.973 7 14Z"/><path fill="#C8CBCC" id="ec" d="M126 205h2c0-7.304-2.872-17.244-6-23.5-.613-1.227-.656-8.5-2-8.5h-2l2 11 1 3v2l2 3v3c1.712 0 3 8.574 3 10Z"/><path fill="#AAA8A9" id="SEZ" d="m259 173 1 2-1-2Z"/><path fill="#C8CBCC" id="ec" d="M329 205h2c0-1.899-.488-8 2-8v-1c0-1.048-.473-3 1-3l1-2v-3l1-1 1-2v-1c0-3.978 2-7.549 2-11h-3c0 11.035-7 20.281-7 32Z"/><path fill="#AAA8A9" id="SEZ" d="M196 178h1v-3c-1.473 0-1 1.952-1 3Z"/><path fill="#209665" id="AId5" d="M105 199c-5.66 0-10.465 3-16 3 0-3.471-6-11.466-6-18v-1c5.795 0 10.31-5 16-5 0 8.193 6 15.156 6 21Z"/><path fill="#90CAED" id="LSr" d="m197 178-1 1v-1h1Z"/><path fill="#8FCBED" id="LSv" d="M199 195c1.608 0 8 8.496 8 10l2.5 1c6.023-3.012-8.417-28-12.5-28l-1 1v12l3 4ZM248 206h1l1-2 1-1c0-1.518 5.218-8 7-8l1-1 1-2 1-11v-1l-1-1-2.5-1c-2.921 1.46-9.806 16.111-11.5 19.5-1.225 2.45-2.227 8.5 2 8.5Z"/><path fill="#209665" id="AId5" d="M367 202h1c0-5.815 6-11.702 6-18v-1c-6.267 0-10.942-5-17-5 0 3.924-2.15 20-6 20v1c5.741 0 10.503 3 16 3Z"/><path fill="#A8AAAA" id="VL" d="M262 195h1c0-1.916-.713-14-2-14l-1 11 2 3Z"/><path fill="#8ADA86" id="CLA" d="M123 195v8.5c-3.449 6.898-12 .534-12-6.5 0-3.43-2.958-18.729 6.5-14l3.5 4v2l1 3 1 2v1ZM333 197c0 7.12 7.447 13.606 11 6.5.567-1.134.546-6.5 2-6.5 0-7.027 1.643-14-7-14l-2 1v1l-1 2-1 1v3l-1 2c0 1.048.473 3-1 3v1Z"/><path fill="#209765" id="AId2/3" d="m89 203-11 1c-1.183 0-1.535-3.57-2-4.5L72 188c1.227 0 9-3.226 9-4h2c0 6.534 6 14.529 6 18v1ZM378 205h1c0-5.718 5-10.894 5-17v-1c-1.853 0-9-1.318-9-3h-1c0 6.298-6 12.185-6 18 3.014 0 7.346 3 10 3Z"/><path fill="#209666" id="AId6a" d="m337 185-1 2 1-2ZM336 187l-1 1 1-1Z"/><path fill="#209764" id="AId1" d="m78 205-4 1-6-17 4-1 4 11.5c.465.93.817 4.5 2 4.5v1ZM379 205l3 1c1.183 0 1.535-3.57 2-4.5 1.851-3.703 4-8.09 4-12.5l-4-1c0 6.106-5 11.282-5 17Z"/><path fill="#209666" id="AId6a" d="M122 192h1l-2-3 1 3Z"/><path fill="#97D6F9" id="STR" d="m195 194 4 1-3-4-1 3Z"/><path fill="#209666" id="AId6a" d="m335 191-1 2 1-2Z"/><path fill="#1F9866" id="AIv6a" d="M123 192v2l-1-2h1Z"/><path fill="#97D6F9" id="STR" d="m259 194 3 1-2-3-1 2Z"/><path fill="#96A7D3" id="MS" d="M221 223h14v-6l-3-14c-1.73 0-.826-10-3.5-10l-3.5 6v1c0 1.235.643 5-1 5 0 4.553-3 8.75-3 13v5Z"/><path fill="#1F9866" id="AIv6a" d="M334 193c-1.473 0-1 1.952-1 3 1.473 0 1-1.952 1-3Z"/><path fill="#80CDF8" id="ACB" fill-rule="evenodd" d="m178 210-5 5.5c-1.884 3.768 2.043 10.729 6.5 8.5 6.393-3.197 8.174-14-1.5-14m35 28-6 9.5c-7.069 7.069-13.277 12.889-22.5 17.5-8.479 4.24-39.5-1.561-39.5-14 0-5.139-2-10.086-2-16 1.747 0 2-.253 2-2 3.766 0 7.514 1.993 11.5 0 5.575-2.787 6.298-10.095 8.5-14.5 3.831-7.663 18.262-22.5 27-22.5h1c0 2.374 2-1.359 2-2l4 1c1.608 0 8 8.496 8 10l2 4 1 1 3 7v21Z"/><path fill="#97D6F9" id="STR" d="m259 194-1 1 1-1Z"/><path fill="#80CDF8" id="ACB" fill-rule="evenodd" d="m274 210-3 6.5c10.601 21.202 20.475-6.5 3-6.5m-11-13c0 3.746 2.091 0 0 0m-20 40 6 10.5c3.253 6.507 12.63 12.565 18.5 15.5 11.858 5.929 43.5 3.644 43.5-13l2-3.5c1.261-2.522 0-9.867 0-11.5l-2-1c-17.467 0-18.291-11.082-25-24.5-3.277-6.555-11.352-7.926-16.5-10.5l-5.5-3-1-1h-1l-3-1-1 1c-1.782 0-7 6.482-7 8l-1 1-1 2-1 1-1 3-1 1-1 1-1 3-1 1v21Z"/><path fill="#1F9866" id="AIv6a" d="M116 209h1l1-1c0-1.353 4.643-2 6-2l2-1c0-1.426-1.288-10-3-10v8.5c-3.449 6.898-12 .534-12-6.5-2.483 0-4.026 2-6 2l6 11 5-1Z"/><path fill="#97D6F9" id="STR" d="M192 196h1v-1l-1 1ZM263 195l1 1-1-1Z"/><path fill="#A8AAAA" id="VL" d="M263 197c0 3.746 2.091 0 0 0Z"/><path fill="#1F9866" id="AIv6a" d="m339 208 6 2c1.649 0 6-9.36 6-11v-1l-5-1c-1.454 0-1.433 5.366-2 6.5-3.553 7.106-11 .62-11-6.5-2.488 0-2 6.101-2 8l2 1c2.483 0 4.026 2 6 2Z"/><path fill="#1F9865" id="AIv5" d="m104 213-7 1c0-3.496-3.766-11-8-11v-1c5.535 0 10.34-3 16-3l6 11c0 1.925-7 .787-7 3ZM353 213l6 1c0-5.524 8-9.358 8-12-5.497 0-10.259-3-16-3 0 1.64-4.351 11-6 11 0 2.055 8 .945 8 3Z"/><path fill="#97D6F9" id="STR" d="M225 200c-1.643 0-1 3.765-1 5 1.643 0 1-3.765 1-5Z"/><path fill="#219764" id="AIv2/3" d="M359 214c4.187 0 9.088 3 13 3l6-12c-2.654 0-6.986-3-10-3h-1c0 2.642-8 6.476-8 12ZM97 214c-3.981 0-7.629 2-12 2l-7-11v-1l11-1c4.234 0 8 7.504 8 11Z"/><path fill="#97D6F9" id="STR" d="m251 203-1 1 1-1Z"/><path fill="#209864" id="AIv1" d="M85 216c0 .672-4.33 2-5 2l-6-12 4-1 7 11Z"/><path fill="#8AD987" id="CTXsp" d="M124 206c4.272 0 5.724 17 9 17 0-6.091-5-11.284-5-18h-2l-2 1ZM333 206c-5.967 0-3.193 13-8 13l4-14h2l2 1Z"/><path fill="#209864" id="AIv1" d="M372 217h4c1.873 0 6-9.1 6-11l-3-1h-1l-6 12Z"/><path fill="#A0EE9C" id="EPd" d="M119 225h1c4.682 0 13 9.349 13-2-3.276 0-4.728-17-9-17-1.357 0-6 .647-6 2l-1 1h-1l-3 7.5 2 4.5v1l1 1 2 1 1 1Z"/><path fill="#97D6F9" id="STR" d="m249 206-1 1v-1h1Z"/><path fill="#A0EE9C" id="EPd" d="M333 227h1l1-1h1l1-1h1l1-1 1-1 1-1 1-1 1-6.5-4-6.5c-1.974 0-3.517-2-6-2-5.967 0-3.193 13-8 13 0 1.048.473 3-1 3l-1 1c0 8.65 5.385 4 10 4Z"/><path fill="#99D2BD" id="OLF" d="m118 208-1 1 1-1ZM353 213c-5.811 0-7.136 8-11 8l1-6.5-4-6.5 6 2c0 2.055 8 .945 8 3ZM104 213c6.062 0 6.911 8 11 8l-2-4.5 3-7.5-5 1c0 1.925-7 .787-7 3Z"/><path fill="#97D6F9" id="STR" d="m209 209 1 1-1-1Z"/><path fill="#CBCBC7" id="aco" d="m178 210-5 5.5c-1.884 3.768 2.043 10.729 6.5 8.5 6.393-3.197 8.174-14-1.5-14Z"/><path fill="#97D6F9" id="STR" d="m247 210-1 1 1-1Z"/><path fill="#CBCBC7" id="aco" d="m274 210-3 6.5c10.601 21.202 20.475-6.5 3-6.5Z"/><path fill="#97D6F9" id="STR" d="m246 211-1 1 1-1Z"/><path fill="#6ACAB9" id="PIR" d="M125 259h2l7-3 1-1h1c0-6.583 7.135-5.231 1-17.5-2.009-4.018-17-11.104-17-12.5h-1l-1-1-2-1-1-1v-1c-4.089 0-4.938-8-11-8l-7 1c-3.981 0-7.629 2-12 2 0 .672-4.33 2-5 2 0 5.245 16.918 29 23 29 3.388 0 22 8.322 22 12ZM330 259h1c.183 0 15.534-12 22-12 7.534 0 23-23.554 23-30h-4c-3.912 0-8.813-3-13-3l-6-1c-5.811 0-7.136 8-11 8l-1 1-1 1-1 1-1 1h-1l-1 1h-1l-1 1h-1c0 1.492-12.841 8.182-14 10.5-5.842 11.684 2 12.052 2 17.5l9 4Z"/><path fill="#97D6F9" id="STR" d="m244 215-1 1 1-1ZM210 256h3c6.051 0 8-27.135 8-33v-5c-1.543 0-2.231 4.634-5.5 3l-2.5-4v21c0 5.867-3 12.326-3 18ZM243 256h3l-3-19v-19c-2.332 0-2.057 4.722-5.5 3l-2.5-4v6c0 5.317 3.102 33 8 33Z"/><path fill="#8AD987" id="CTXsp" d="M324 221v1c1.473 0 1-1.952 1-3l-1 2Z"/><path fill="#99D2BD" id="OLF" d="M323 222h1v-1l-1 1ZM342 221l-1 1 1-1ZM115 222l1 1-1-1Z"/><path fill="#96A6D3" id="NDB" d="M223 261h1l1-1c0-3.725 3.753-2 5-2 3.407 0 14 14.981 14 2l-1-4c-4.898 0-8-27.683-8-33h-14c0 5.865-1.949 33-8 33 0 2.333-1.962 12.231 4.5 9l5.5-4Z"/><path fill="#8AD987" id="CTXsp" d="m324 222-1 1v-1h1Z"/><path fill="#99D2BD" id="OLF" d="m341 222-1 1 1-1ZM145 251c-3.757 0-5.09 4-9 4 0-6.583 7.135-5.231 1-17.5-2.009-4.018-17-11.104-17-12.5 4.682 0 13 9.349 13-2 3.459 0 5.128 10 10 10v2c0 5.914 2 10.861 2 16ZM311 250c3.622 0 5.687 5 10 5 0-5.448-7.842-5.816-2-17.5 1.159-2.318 14-9.008 14-10.5-4.615 0-10 4.65-10-4-1.991 0-3.486 8-7 8l-1 1-1 1-1 2c0 1.633 1.261 8.978 0 11.5l-2 3.5ZM340 223l-1 1 1-1ZM118 224l1 1-1-1ZM339 224l-1 1 1-1ZM337 225l-1 1 1-1ZM335 226l-1 1 1-1Z"/><path fill="#97D6F9" id="STR" d="m316 231-1 1 1-1ZM315 232l-1 1 1-1ZM145 233c0 1.747-.253 2-2 2v-2h2ZM311 234l2 1 1-2c-1.048 0-3-.473-3 1Z"/><path fill="#A2B1D7" id="SI" d="M246 256c0 4.72 2 11.177 2 16 3.535 0 7.747-5.376 12.5-3 14.86 7.43 33.013 4.993 47-2 2.536-1.268 13.5-8.503 13.5-12-4.313 0-6.378-5-10-5 0 16.644-31.642 18.929-43.5 13-5.87-2.935-15.247-8.993-18.5-15.5l-6-10.5 3 19ZM210 256l-1 16c-3.732 0-8.634-5.433-13.5-3-5.132 2.566-28.476 7.262-35 4l-15-8c-3.747-1.873-6.063-9-10.5-9v-1h1c3.91 0 5.243-4 9-4 0 12.439 31.021 18.24 39.5 14 9.223-4.611 15.431-10.431 22.5-17.5l6-9.5c0 5.867-3 12.326-3 18Z"/><path fill="#CAC8C7" id="lot" d="M124 263h1v-4c0-3.678-18.612-12-22-12 0 4.823 11.899 11.199 15.5 13 2.039 1.019 1.719 4 4.5 4l1-1ZM331 262l2 2c2.255 0 20-14.843 20-17-6.466 0-21.817 12-22 12v3Z"/><path fill="#99D2BD" id="OLF" d="M134 256h1v-1l-1 1Z"/><path fill="#7FCCF7" id="OT" d="m248 272-1 3c1.845 0 1.441 3.381 2 4.5 1.414 2.827 4.209 7.854 7.5 9.5 6.537 3.268 21.184 2.092 25 4 14.13 7.065 34.309.881 41.5-13.5 1.614-3.228 8-7.813 8-12.5v-7l-1-1-9-4c0 3.497-10.964 10.732-13.5 12-13.987 6.993-32.14 9.43-47 2-4.753-2.376-8.965 3-12.5 3ZM209 272v3c0 2.422-2.93 5.361-4 7.5-5.781 11.563-12.876 5.688-20.5 9.5-2.653 1.326-6.456-.272-9 1-13.152 6.576-33.73 2.04-40.5-11.5-1.857-3.714-9-8.192-9-13.5l-1-1v-6l2-2 7-3h1c4.437 0 6.753 7.127 10.5 9l15 8c6.524 3.262 29.868-1.434 35-4 4.866-2.433 9.768 3 13.5 3Z"/><path fill="#8599CC" id="PAL" d="M209 272v3c3.689 0 14-10.204 14-14l-5.5 4c-6.462 3.231-4.5-6.667-4.5-9h-3l-1 16ZM248 272l-1 3c-2.205 0-17-15.377-17-17 3.407 0 14 14.981 14 2l-1-4h3c0 4.72 2 11.177 2 16Z"/><path fill="#99D2BD" id="OLF" d="m127 259-2 2v-2h2ZM331 259v1l-1-1h1Z"/><path fill="#8599CC" id="PAL" d="m225 260-1 1 1-1Z"/><path fill="#97D6F9" id="STR" d="m333 264-2 3v-5l2 2Z"/><path fill="#99D2BD" id="OLF" d="m123 264 1 1v-2l-1 1Z"/><path fill="#97D6F9" id="STR" d="m124 265 1 1v-3h-1v2ZM125 267l1 1-1-1Z"/></svg>