<svg xmlns="http://www.w3.org/2000/svg" viewBox="0 0 456 320"><path fill="#1E9C59" id="MOs1" d="m141 137-7 3c-1.175 0-2-5.704-2-7 0-5.797-.857-12.785 2-18.5 6.954-13.909 17.978-22.739 31.5-29.5l9-2 5.5-2c4.593 0 26 .141 26 4-1.108 0-5 4.748-5 6h-1l-5.5-2c-3.046-1.523-13.421-.29-16 1l-8 1c-12.05 6.025-23.062 12.624-29.5 25.5-2.897 5.794 0 14.661 0 20.5ZM316 137c0 .886 5.824 3 7 3 0-5.106 4.826-13.849 2-19.5-9.38-18.761-15.168-25.834-34.5-35.5-6.702-3.35-23.222-6.89-31-3-1.617.809-8.5.405-8.5 3l5 6 5.5-2h8c18.502 0 36.952 9.405 45.5 26.5 3.31 6.619 1 14.49 1 21.5Z"/><path fill="#2FA750" id="PL1" d="m219 113 8 1c0-9.504-11.032-29-21-29-1.108 0-5 4.748-5 6 9.955 0 18 12.6 18 22ZM237 113l-7 1c0-9.988 8.873-29 21-29l5 6c-10.038 0-19 12.827-19 22Z"/><path fill="#1E9D58" id="MOs2/3" d="M141 137c6.897 0 9.749 2 16 2 1.674 0 4-10.163 4-12-8.177 0-1.988-18.756 4.5-22 9.944-4.972 18.309-7 30.5-7 0-2.46 4-4.17 4-7l-5.5-2c-3.046-1.523-13.421-.29-16 1l-8 1c-12.05 6.025-23.062 12.624-29.5 25.5-2.897 5.794 0 14.661 0 20.5ZM315 137h1c0-7.01 2.31-14.881-1-21.5-8.548-17.095-26.998-26.5-45.5-26.5h-8l-5.5 2 5 7c16.281 0 17.725 1.613 32.5 9 4.304 2.152 9.066 20 1.5 20 0 4.53 4 8.426 4 13 4.264 0 9.458-3 16-3Z"/><path fill="#2FA74F" id="PL2/3" d="M210 110c2.933 0 5.321 3 9 3 0-9.4-8.045-22-18-22h-1c0 2.83-4 4.54-4 7l4 2 3 1c3.225 0 7 5.096 7 8v1ZM246 111l-9 2c0-9.173 8.962-22 19-22l5 7-2 1c-1.048 0-3-.473-3 1l-1 1h-1c-3.361 0-7 3.663-7 7v2l-1 1Z"/><path fill="#268E45" id="FRP2/3" d="M183 116c0 1.325-5.361 2.43-6.5 3-5.296 2.648-9.097 8-15.5 8-8.177 0-1.988-18.756 4.5-22 9.944-4.972 18.309-7 30.5-7l4 2c-6.487 0-13.301-2.1-19.5 1-9.692 4.846-9.847 15 2.5 15ZM274 116l5.5 3c5.078 2.539 9.418 8 15.5 8 7.566 0 2.804-17.848-1.5-20-14.775-7.387-16.219-9-32.5-9l-2 1c7.759 0 13.159.83 19.5 4 9.005 4.503 2.85 13-4.5 13Z"/><path fill="#258F45" id="FRP5" d="M203 117h2c0-1.465 5-3.316 5-6v-2c-1.686 0-7-6.392-7-8l-3-1c-6.487 0-13.301-2.1-19.5 1-9.692 4.846-9.847 15 2.5 15h2l4-2c1.891 0 14 .876 14 3Z"/><path fill="#268E45" id="FRP2/3" d="M259 99c-1.048 0-3-.473-3 1 1.048 0 3 .473 3-1Z"/><path fill="#258F45" id="FRP5" d="M252 117h2c0-1.966 11.321-3 13-3 1.041 0 5 .986 5 2h2c7.35 0 13.505-8.497 4.5-13-6.341-3.17-11.741-4-19.5-4 0 1.473-1.952 1-3 1l-1 1h-1l-7 7v2c0 4.351 5 5.093 5 7Z"/><path fill="#268E45" id="FRP2/3" d="m256 100-1 1 1-1Z"/><path fill="#2EA84F" id="PL5" d="M203 101c3.225 0 7 5.096 7 8-1.686 0-7-6.392-7-8ZM254 101c-3.361 0-7 3.663-7 7l7-7Z"/><path fill="#24885D" id="ORBm2/3" d="M206 117c0 3.748 6 9.046 6 13 7.876 0 7-11.138 7-17-3.679 0-6.067-3-9-3v1c1.226 0 1.536 7.982 1.5 8-2.541 1.27-3.709-2-5.5-2Z"/><path fill="#268E45" id="FRP2/3" d="M249 118v1c-6.533 0-3-3.802-3-8l1-1c0 4.351 5 5.093 5 7h-1l-2 1ZM205 117h1c1.791 0 2.959 3.27 5.5 2 .036-.018-.274-8-1.5-8 0 2.684-5 4.535-5 6Z"/><path fill="#24885D" id="ORBm2/3" d="M249 119c0 3.827-4 6.918-4 11-8.043 0-8-10.476-8-17l9-2c0 4.198-3.533 8 3 8Z"/><path fill="#23895D" id="ORBm1" d="M216 146c0 2.768 6.241 0 7 0l4-10.5V114l-8-1c0 5.862.876 17-7 17 0 5.316 4 11.267 4 16ZM233 145c.373 0 7 4.544 7 1 0-4.691 5-13.432 5-16-8.043 0-8-10.476-8-17l-7 1c-1.725 0-1 6.052-1 7.5 0 6.262-.613 14.774 2 20l2 3.5Z"/><path fill="#228A5D" id="ORBl5" d="M188 117h1v-3l-4 2c0 1.473 1.952 1 3 1Z"/><path fill="#23885C" id="ORBvl5" d="M189 117h14c0-2.124-12.109-3-14-3v3ZM254 117h14l-1-3c-1.679 0-13 1.034-13 3Z"/><path fill="#228A5D" id="ORBl5" d="m272 116-4 1-1-3c1.041 0 5 .986 5 2Z"/><path fill="#238A5E" id="ORBl2/3" d="M157 139c0 1.465-1.115 4 0 4l8.5-7c6.595-3.297 12.53-8 20.5-8l2-11c-1.048 0-3 .473-3-1h-2c0 1.325-5.361 2.43-6.5 3-5.296 2.648-9.097 8-15.5 8 0 1.837-2.326 12-4 12ZM299 140c0 1.539 2.557 3 1 3-3.217 0-5.527-5.013-7.5-6-6.979-3.489-13.089-9-21.5-9h-1c0-4.135-2-7.305-2-11l4-1h2l5.5 3c5.078 2.539 9.418 8 15.5 8 0 4.53 4 8.426 4 13Z"/><path fill="#248A5D" id="ORBvl2/3" d="M186 128c8.989 0 16.698 2 26 2 0-3.954-6-9.252-6-13h-18l-2 11Z"/><path fill="#24885D" id="ORBm2/3" d="m251 117-2 1 2-1Z"/><path fill="#248A5D" id="ORBvl2/3" d="M270 128c-8.311 0-17.565 2-25 2 0-4.082 4-7.173 4-11v-1l2-1h17c0 3.695 2 6.865 2 11Z"/><path fill="#248A5B" id="ORBvl1" d="M185 136c10.59 0 18.846 2.673 27.5 7 1.228.614 1.276 3 3.5 3 0-4.733-4-10.684-4-16-9.302 0-17.011-2-26-2l-1 8ZM271 136c-10.295 0-18.082 2.791-26.5 7-1.978.989-2.023 3-4.5 3 0-4.691 5-13.432 5-16 7.435 0 16.689-2 25-2h1v8Z"/><path fill="#238A5D" id="ORBl1" d="M156 145c0 5.872-1 9.585-1 16 2.13 0 3.272-6.044 4-7.5 1.133-2.267 14.372-12.5 16-12.5h1l1-1 1-1h1l1-1 2-1h3v-1l1-8c-7.97 0-13.905 4.703-20.5 8l-8.5 7-1 2ZM300 144c0 4.925 1 10.521 1 16-1.731 0-3.341-6.183-4-7.5-1.716-3.432-14.425-12.5-18-12.5l-1-1-4-2h-3v-9c8.411 0 14.521 5.511 21.5 9 1.973.987 4.283 6 7.5 6v1Z"/><path fill="#99D2BD" id="OLF" d="M226 167h1c0-7.217-4-12.93-4-21-.759 0-7 2.768-7 0-2.224 0-2.272-2.386-3.5-3-8.654-4.327-16.91-7-27.5-7v1c3.586 0 10-1.155 10 4 11.767 0 22.458 11 25 11 .896 0 3.026 2 1 2 0 3.696 5 8.465 5 13ZM236 153l-4 6c0-4.351 1-9.131 1-14 .373 0 7 4.544 7 1 2.477 0 2.522-2.011 4.5-3 8.418-4.209 16.205-7 26.5-7v1c-4.978 0-9-1.039-9 5-6.613 0-10.234-.133-16.5 3-2.803 1.401-7.751 8-9.5 8Z"/><path fill="#209764" id="AId1" d="M156 145c0 5.872-1 9.585-1 16-2.271 0-3.85 1.325-6.5 0-5.7-2.85-14.5-15.281-14.5-21l7-3c0 3.447 5.665 13.417 10.5 11l4.5-3Z"/><path fill="#209765" id="AId2/3" d="m157 143-1 2-4.5 3c-4.835 2.417-10.5-7.553-10.5-11 6.897 0 9.749 2 16 2 0 1.465-1.115 4 0 4Z"/><path fill="#99D2BD" id="OLF" d="m182 137-2 1 2-1Z"/><path fill="#9DF0D1" id="AOBgl" d="m193 148-9.5 4c-3.731 1.865-7.509-3-10.5-3 0-3.354 2-5.291 2-8h1l1-1 1-1h1l1-1 2-1h3c3.586 0 10-1.155 10 4 0 2.833-2 4.84-2 7ZM263 148l9.5 4c3.731 1.865 7.509-3 10.5-3 0-2.112 1.084-3.332 0-5.5l-4-3.5-1-1-4-2h-3c-4.978 0-9-1.039-9 5l1 6Z"/><path fill="#99D2BD" id="OLF" d="m274 137 4 2-4-2Z"/><path fill="#209765" id="AId2/3" d="M300 143v1l5.5 4c4.736 2.368 9.5-7.753 9.5-11-6.542 0-11.736 3-16 3 0 1.539 2.557 3 1 3Z"/><path fill="#209764" id="AId1" d="M301 160v1c2.607 0 4.54 1.48 7.5 0 2.501-1.251 14.5-17.101 14.5-21-1.176 0-7-2.114-7-3h-1c0 3.247-4.764 13.368-9.5 11l-5.5-4c0 4.925 1 10.521 1 16Z"/><path fill="#99D2BD" id="OLF" d="m180 138-1 1 1-1ZM178 139l-1 1 1-1ZM177 140l-1 1 1-1ZM296 167c0 5.079 3.867 11.766 1 17.5-2.013 4.026-6 18.073-6 22.5 1.728 0 3.305-7.11 4-8.5 5.433-10.865 6-24.472 6-37.5v-1c-1.731 0-3.341-6.183-4-7.5-1.716-3.432-14.425-12.5-18-12.5l4 3.5c1.084 2.168 0 3.388 0 5.5 0 1.342 2 5.809 2 10 3.926 0 11 3.19 11 8ZM184 232l-3 2.5 3 5.5c-1.811 0-10.852-16.204-12-18.5-10.17-20.339-17-35.779-17-60.5 2.13 0 3.272-6.044 4-7.5 1.133-2.267 14.372-12.5 16-12.5 0 2.709-2 4.646-2 8 0 1.046-2 6.474-2 10-3.734 0-11 3.526-11 8 0 3.928-3.129 12.241-1 16.5 2.419 4.839 1.61 11.221 4 16 3.205 6.41 6.746 12.492 10 19 1.834 3.667 6.646 13.5 11 13.5Z"/><path fill="#9AD1BD" id="MOB" d="M184 240c0 4.55 18.223 12 22 12 5.226 0 9.081-7.663 11-11.5 7.252-14.505 9-23.938 9-41.5v-16c0-1.235-.643-5 1-5v-4c-1.714 0-1-5.594-1-7 0-4.535-5-9.304-5-13l-1-2c-2.542 0-13.233-11-25-11 0 2.833-2 4.84-2 7 4.843 0 2 8.093 2 10v1c3.866 0 3.493 3 0 3v1l1 1v2c1.714 0 1 5.594 1 7v9l-1 1-1 20c0 6.628-4 14.776-4 17 0 1.327-3.988 9-5 9 0 1.238-.423 3-2 3l-3 2.5 3 5.5ZM270 243c-4.114 0-12.261 9-19 9-7.045 0-11.601-11.702-14-16.5-9.54-19.08-7-44.593-7-67.5v-1c1.643 0 1-3.765 1-5 1.473 0 1-1.952 1-3l4-6c1.749 0 6.697-6.599 9.5-8 6.266-3.133 9.887-3 16.5-3l1 6c-4.356 0-1 9.476-1 11-3.044 0-4.513 3-1 3v1c-1.484 0-2 8.263-2 10 0 3.51 1 7.022 1 10 0 5.56 2 12.321 2 18v11.5l3 7.5 5 9c0 2.041.959 3 3 3 0 1.24 2 1.576 2 4l-1 2-1 1v1l-1 1-1 1-1 1Z"/><path fill="#9DEFD2" id="AOBmi" d="m194 159-7.5 3c-3.931 1.966-9.856-2-13.5-2l-1-1h-1c0-3.526 2-8.954 2-10 2.991 0 6.769 4.865 10.5 3l9.5-4c4.843 0 2 8.093 2 10l-1 1ZM262 159c4.015 0 9.491 5.504 14.5 3l8.5-3c0-4.191-2-8.658-2-10-2.991 0-6.769 4.865-10.5 3l-9.5-4c-4.356 0-1 9.476-1 11Z"/><path fill="#C7CBCA" id="onl" d="M220 152c.896 0 3.026 2 1 2l-1-2Z"/><path fill="#99D2BD" id="OLF" d="M194 159h1v-1l-1 1Z"/><path fill="#CACAC9" id="lotd" d="m160 167 3 1c0-9.212 14.649-4 18-4 5.059 0 9.715-2 14-2 3.493 0 3.866-3 0-3h-1l-7.5 3c-3.931 1.966-9.856-2-13.5-2l-1-1h-1c-3.734 0-11 3.526-11 8Z"/><path fill="#99D2BD" id="OLF" d="m172 159 1 1-1-1ZM232 159c-1.473 0-1 1.952-1 3 1.473 0 1-1.952 1-3Z"/><path fill="#CACAC9" id="lotd" d="m296 167-2 1-6.5-6c-3.549-1.774-9.141 2-12.5 2-5.171 0-9.545-2-14-2-3.513 0-2.044-3 1-3 4.015 0 9.491 5.504 14.5 3l8.5-3c3.926 0 11 3.19 11 8Z"/><path fill="#54BF94" id="AON" d="M191 220c0 1.327-3.988 9-5 9 0-.55-13.615-15.73-15-18.5-3.17-6.34-13.943-30.114-10-38l2-4.5c0-9.212 14.649-4 18-4 0 2.715 9.58 5 12 5l4 4v9l-1 1c-1.564 0-3.876 1-6 1 0-1.606-5.004-3.492-6-1.5-.503 1.006 5.982 18.964 7 21 3.469 6.939-5.394 16.5 0 16.5Z"/><path fill="#95E4C8" id="AOBgr" d="M196 166c0 1.658-1.461 3-3 3-2.42 0-12-2.285-12-5 5.059 0 9.715-2 14-2v1l1 1v2Z"/><path fill="#99D2BD" id="OLF" d="M231 162c-1.643 0-1 3.765-1 5 1.643 0 1-3.765 1-5Z"/><path fill="#95E4C8" id="AOBgr" d="M275 164c0 3.304-8.734 5-12 5-3.024 0-2-3.574-2-6v-1c4.455 0 8.829 2 14 2Z"/><path fill="#54BF94" id="AON" d="m265 220 5 9c2.902 0 9.704-9.908 11-12.5 5.01-10.019 9.068-20.137 14-30 2.354-4.708-1-14.017-1-18.5l-6.5-6c-3.549-1.774-9.141 2-12.5 2 0 3.304-8.734 5-12 5l-4 4c0 3.51 1 7.022 1 10 1.564 0 3.876 1 6 1l4.5-3 2.5 2.5-2 3-6 20c-3.605 7.211 7.375 13.5 0 13.5Z"/><path fill="#99D2BD" id="OLF" d="m195 163 1 1-1-1ZM263 169l-4 4c0-1.737.516-10 2-10 0 2.426-1.024 6 2 6ZM193 169l4 4c0-1.406.714-7-1-7 0 1.658-1.461 3-3 3Z"/><path fill="#CAC8C7" id="lot" d="M186 229c0 1.238-.423 3-2 3-4.354 0-9.166-9.833-11-13.5-3.254-6.508-6.795-12.59-10-19-2.39-4.779-1.581-11.161-4-16-2.129-4.259 1-12.572 1-16.5l3 1-2 4.5c-3.943 7.886 6.83 31.66 10 38 1.385 2.77 15 17.95 15 18.5Z"/><path fill="#C7CBCA" id="onl" d="M227 167v7c-1.714 0-1-5.594-1-7h1Z"/><path fill="#CAC8C7" id="lot" d="M270 229c0 2.041.959 3 3 3l6-5.5 9-15c.592-1.185 1.012-4.5 3-4.5 0-4.427 3.987-18.474 6-22.5 2.867-5.734-1-12.421-1-17.5l-2 1c0 4.483 3.354 13.792 1 18.5-4.932 9.863-8.99 19.981-14 30-1.296 2.592-8.098 12.5-11 12.5Z"/><path fill="#C7CBCA" id="onl" d="M230 168c-1.614 0-1 3.31-1 4.5V187c0 17.096-1.764 46.972 5 60.5 2.141 4.281 6.191 6.5 11 6.5 1.357 0 6-.647 6-2-7.045 0-11.601-11.702-14-16.5-9.54-19.08-7-44.593-7-67.5Z"/><path fill="#C7CBCA" id="onl" d="M227 178c-1.643 0-1 3.765-1 5v16c0 17.562-1.748 26.995-9 41.5-1.919 3.837-5.774 11.5-11 11.5 0 1.396 6.796 2.852 8.5 2 6.971-3.486 7.192-6.885 10.5-13.5l1-14c4.179-8.359 1-37.606 1-48.5Z"/><path fill="#CBCBC7" id="aco" d="M195 203c0 6.628-4 14.776-4 17-5.394 0 3.469-9.561 0-16.5-1.018-2.036-7.503-19.994-7-21 .996-1.992 6-.106 6 1.5 0 4.231 2.128 11.756 4 15.5.523 1.046-.951 3.5 1 3.5ZM262 201v11.5l3 7.5c7.375 0-3.605-6.289 0-13.5l6-20 2-3-2.5-2.5-4.5 3c0 4.047-1.275 9.05-3 12.5-.574 1.147 1.064 4.5-1 4.5Z"/><path fill="#99D2BD" id="OLF" d="m197 182-1 1 1-1ZM190 184c0 4.231 2.128 11.756 4 15.5.523 1.046-.951 3.5 1 3.5l1-20c-1.564 0-3.876 1-6 1ZM266 184c0 4.047-1.275 9.05-3 12.5-.574 1.147 1.064 4.5-1 4.5 0-5.679-2-12.44-2-18 1.564 0 3.876 1 6 1ZM273 232c0 1.24 2 1.576 2 4 1.993 0 16-25.771 16-29-1.988 0-2.408 3.315-3 4.5l-9 15-6 5.5ZM275 236l-1 2 1-2ZM274 238l-1 1 1-1ZM273 240l-1 1 1-1ZM271 242l-1 1 1-1Z"/></svg>