<svg xmlns="http://www.w3.org/2000/svg" viewBox="0 0 456 320"><path fill="#1E9C59" id="MOs1" d="m226 57-5 3c0-3.541-2.52-6.02-5-8.5-7.064-7.064-23.251-10.124-32.5-5.5l-8.5 3v-6l1-1c13.475 0 34.999-9.502 43 6.5 1.504 3.008 7 4.948 7 8.5ZM231 57l4 3c0-2.827 2.831-4.163 4-6.5 8.084-16.169 29.744-5.5 42-5.5v-5c0-2.864-10.56-2.03-12.5-3-11.57-5.785-28.897 2.294-33.5 11.5-1.151 2.303-4 2.641-4 5.5Z"/><path fill="#1E9D5A" id="MOp1" d="m176 42-1 1 1-1ZM119 71h1c4.197 0 10.701-6.1 14.5-8 6.985-3.492 33.325-14 40.5-14v-6c-12.053 0-31.828 10.664-42.5 16-1.655.827-11.5 3.293-11.5 5l-2 7ZM336 64l1 7c-4.668 0-11.358-5.929-15.5-8-7.592-3.796-32.482-14-40.5-14v-6c9.54 0 36.596 11.548 45.5 16 2.814 1.407 6.261 5 9.5 5Z"/><path fill="#1E9D58" id="MOs2/3" d="M215 63c0-1.52-2.635-3.567-3.5-4-10.141-5.07-20.462-2.769-30 2l-7.5 5c0-5.046 1-11.325 1-17l8.5-3c9.249-4.624 25.436-1.564 32.5 5.5 2.48 2.48 5 4.959 5 8.5v1l-6 2ZM241 63l4.5-5c3.16-1.58 12.893-4.053 17-2 3.437 1.718 16.513 9 19.5 9l-1-16v-1c-12.256 0-33.916-10.669-42 5.5-1.169 2.337-4 3.673-4 6.5v1c2.72 0 3.553 2 6 2Z"/><path fill="#1F9C58" id="MOp2/3" d="M118 95h1c1.044 0 12.329-8.914 14.5-10 6.87-3.435 34.676-19 40.5-19 0-5.046 1-11.325 1-17-7.175 0-33.515 10.508-40.5 14-3.799 1.9-10.303 8-14.5 8 0 2.007-1.232 16-2 16v8ZM338 95h1v-1c0-2.401-1-4.31-1-7 0-5.284-1-11.392-1-16-4.668 0-11.358-5.929-15.5-8-7.592-3.796-32.482-14-40.5-14l1 16v1c7.488 0 36.262 16.881 44.5 21l11.5 8Z"/><path fill="#1F9D58" id="MOs5" d="M200 77h1c0-1.258 11.985-13 14-13v-1c0-1.52-2.635-3.567-3.5-4-10.141-5.07-20.462-2.769-30 2l-7.5 5c0 6.052-2 12.245-2 18 5.349 0 12.759-6.63 17.5-9 3.777-1.889 7.892 2 10.5 2ZM256 77c2.762 0 6.755-3.873 10.5-2l17.5 9c0-5.871-2-12.331-2-18v-1c-2.987 0-16.063-7.282-19.5-9-4.107-2.053-13.84.42-17 2l-4.5 5v1c4.697 0 13.202 13 15 13Z"/><path fill="#3EA665" id="ACAd1" d="M222 89h12c0-9.22 1-19.46 1-28v-1l-4-3c-2.307 0-1.624 4-2.5 4l-2.5-4-5 3v1c2.144 0 .381 4.262 1 5.5 3.16 6.32 0 16.073 0 22.5Z"/><path fill="#40A565" id="ACAd2/3" d="m222 89-5 1V70c0-1.623-.005-6-2-6v-1l6-2c2.144 0 .381 4.262 1 5.5 3.16 6.32 0 16.073 0 22.5ZM234 89h5V71.5c.805-1.61 2-5.802 2-7.5v-1c-2.447 0-3.28-2-6-2 0 8.54-1 18.78-1 28Z"/><path fill="#197E64" id="SSp-ul1" d="m103 74 3 4 13-7 2-7c-2.144 0-18 8.888-18 10Z"/><path fill="#3EA566" id="ACAd5" d="M217 90c-5.509 0-10.016 7-14 7 0-7.183-2-13.595-2-20 0-1.258 11.985-13 14-13 1.995 0 2 4.377 2 6v20ZM239 90c5.285 0 9.61 7 14 7 0-4.586.034-11.569 2-15.5.523-1.046-.951-3.5 1-3.5v-1c-1.798 0-10.303-13-15-13 0 1.698-1.195 5.89-2 7.5V90Z"/><path fill="#197E64" id="SSp-ul1" d="m353 74-3 4-13-7-1-7c1.517 0 17 8.703 17 10Z"/><path fill="#1E9C5A" id="MOp5" d="M118 96c0 3.948 1 9.393 1 14 3.71 0 6.325-5.413 9.5-7 9.527-4.763 20.491-7.246 30-12l13.5-6v-1c0-5.755 2-11.948 2-18-5.824 0-33.63 15.565-40.5 19-2.171 1.086-13.456 10-14.5 10l-1 1ZM338 96c0 5.419-1 8.003-1 13-3.616 0-6.423-4.461-9.5-6-9.53-4.765-20.536-7.268-30-12L284 85v-1c0-5.871-2-12.331-2-18 7.488 0 36.262 16.881 44.5 21l11.5 8v1Z"/><path fill="#197F61" id="SSp-ul2/3" d="m118 87-4 2c-4.146 0-4.135-10-8-10v-1l13-7h1c0 2.007-1.232 16-2 16ZM338 87l5 2 7-10v-1l-13-7c0 4.608 1 10.716 1 16Z"/><path fill="#187E61" id="SSp-m1" d="m61 143 5 1c0-15.912 12.678-41.178 24-52.5 3.126-3.126 11.797-12.5 16-12.5v-1l-3-4c-5.145 0-13.234 9.734-17 13.5-11.22 11.22-25 39.992-25 55.5ZM390 144h1l4-1c0-15.301-14.846-51.673-27.5-58-3.855-1.928-8.323-11-14.5-11l-3 4v1c4.877 0 12.467 8.967 16 12.5 12.899 12.899 24 34.273 24 52.5Z"/><path fill="#1D9C5A" id="MOs6a" d="M179 103c-3.066 0-4.417 2-7 2V84c5.349 0 12.759-6.63 17.5-9 3.777-1.889 7.892 2 10.5 2 0 4.313-12 15.755-12 24-1.759 0-9 .326-9 2ZM269 101c5.984 0 10.679 4 16 4 0-6.642-1-14.002-1-20v-1l-17.5-9c-3.745-1.873-7.738 2-10.5 2v1c2.356 0 13 20.381 13 23Z"/><path fill="#3FA664" id="ACAd6a" d="M188 101c2.362 0 5 2.638 5 5l10-8v-1c0-7.183-2-13.595-2-20h-1c0 4.313-12 15.755-12 24ZM265 104l-2 1c-4.217 0-6.259-8-10-8 0-4.586.034-11.569 2-15.5.523-1.046-.951-3.5 1-3.5 2.356 0 13 20.381 13 23-2.061 0-4 .902-4 3Z"/><path fill="#1A7E64" id="SSp-m2/3" d="M66 144c3.414 0 6.353 3 10 3 0-10.541 14.419-43.46 23.5-48 4.718-2.359 8.977-9 14.5-9v-1c-4.146 0-4.135-10-8-10-4.203 0-12.874 9.374-16 12.5-11.322 11.322-24 36.588-24 52.5ZM390 144l-9 3c0-10.903-16.427-44.963-26.5-50-3.275-1.638-7.801-7-11.5-7v-1l7-10c4.877 0 12.467 8.967 16 12.5 12.899 12.899 24 34.273 24 52.5Z"/><path fill="#1F9B5A" id="MOp6a" d="M123 135h1c0-2.576 14.691-14 17-14 0-2.109 2.535-2 4-2 0-3.482 13.165-8 16-8 0-2.109 2.535-2 4-2l7-4V85l-13.5 6c-9.509 4.754-20.473 7.237-30 12-3.175 1.587-5.79 7-9.5 7v1c3.179 0 .625 4.751 1 5.5 2.905 5.81 3 12.095 3 18.5ZM337 110c0 8.193-4 16.283-4 25l-10.5-10c-8.596-4.298-28.602-19-37.5-19v-1c0-6.642-1-14.002-1-20l13.5 6c9.464 4.732 20.47 7.235 30 12 3.077 1.539 5.884 6 9.5 6v1Z"/><path fill="#1A7F63" id="SSp-ul4" d="M114 90c0 1.247 2.467 5 4 5v-8l-4 2v1ZM343 90l-4 4c0-2.401-1-4.31-1-7l5 2v1Z"/><path fill="#40A664" id="ACAv1" d="M229 119c2.813 0 3.461 4 5 4V89h-12l1 32 4-2c0-3.15 2-3.446 2 0Z"/><path fill="#3FA566" id="ACAv2/3" d="m220 128-2 1-1-39 5-1 1 32-1 2-2 5ZM236 127l2 2c0-12.326 1-26.028 1-39v-1h-5v34l2 4Z"/><path fill="#1B7F62" id="SSp-m4" d="M78 166h3c0-15.474 5.52-31.541 12-44.5l8-10c1.556-3.111 13.864-15.5 17-15.5v-1c-1.533 0-4-3.753-4-5-5.523 0-9.782 6.641-14.5 9-9.081 4.54-23.5 37.459-23.5 48v1c0 1.794 2 2.951 2 4.5V166Z"/><path fill="#3EA666" id="ACAv5" d="M209 125c0 2.911 6.752 4 9 4l-1-39c-5.509 0-10.016 7-14 7v1c0 9.82 6 21.616 6 27ZM247 125c0 2.911-6.752 4-9 4 0-12.326 1-26.028 1-39 5.285 0 9.61 7 14 7 0 6.304.623 14.253-2 19.5l-4 8.5Z"/><path fill="#1B7F62" id="SSp-m4" d="M376 166h2c1.028 0 1.44-1.621 1-2.5l-2-1 2-1c1.174-2.348-.83-5.339 0-7 .659-1.319-.334-5.5 2-5.5v-2c0-10.903-16.427-44.963-26.5-50-3.275-1.638-7.801-7-11.5-7l-4 4v2c4.62 0 9.688 9.594 12.5 11 13.221 6.611 24.5 44.472 24.5 59Z"/><path fill="#187E62" id="SSp-ul5" d="m119 95-1 1v-1h1ZM338 96h1v-1h-1v1Z"/><path fill="#1B7E63" id="SSp-m5" d="M95 164c-4.833 0-8.862 2-14 2 0-15.474 5.52-31.541 12-44.5l8-10c1.556-3.111 13.864-15.5 17-15.5 0 3.948 1 9.393 1 14v1c-4.311 0-10.213 6.926-12 10.5l-6 8c-5.132 10.264-6 22.065-6 34.5ZM362 164l14 2c0-14.528-11.279-52.389-24.5-59-2.812-1.406-7.88-11-12.5-11h-1c0 5.419-1 8.003-1 13v1c4.159 0 6.047 5.774 8.5 7 12.082 6.041 16.5 33.771 16.5 47Z"/><path fill="#40A564" id="ACAv6a" d="m251 123-4 2 4-8.5c2.623-5.247 2-13.196 2-19.5 3.741 0 5.783 8 10 8v2l-1 2-10 12-1 2ZM205 123l4 2c0-5.384-6-17.18-6-27l-10 8v1l3 2.5c1.44 2.88 8 7.862 8 11.5l1 2Z"/><path fill="#1E9C58" id="MOs6b" d="m188 102-9 1c0-1.674 7.241-2 9-2v1Z"/><path fill="#3FA466" id="ACAd6b" d="M193 106v1l-2-3.5-3-1.5v-1c2.362 0 5 2.638 5 5ZM269 102l-4 2c0-2.098 1.939-3 4-3v1Z"/><path fill="#1E9C58" id="MOs6b" d="m285 106-1 1c-3.09 0-10.065-5-15-5v-1c5.984 0 10.679 4 16 4v1Z"/><path fill="#CACCC7" id="cing" d="m204 121 1 2c-8.503 0-11.084-12.792-17.5-16-6.029-3.015-10.897 3-16.5 3l-1 1h-1l-2 1-7 1 1-2 4-2c3.066 0 4.417-2 7-2l7-4 9-1 3 1.5 2 3.5c0 2.655 7.631 14 11 14ZM252 121l-1 2c9.154 0 10.56-12.53 17.5-16 6.419-3.21 10.786 3 16.5 3l1 1h2l9 2c0-2.033-10.963-6-13-6-3.09 0-10.065-5-15-5l-4 2c0 1.238-.423 3-2 3l-1 2c0 3.191-6.541 12-10 12Z"/><path fill="#1E9C58" id="MOs6b" d="M172 105v2l7-4c-3.066 0-4.417 2-7 2Z"/><path fill="#3FA466" id="ACAd6b" d="M263 105v2c1.577 0 2-1.762 2-3l-2 1Z"/><path fill="#1D9D5A" id="MOp6b" d="M172 107c-2.583 0-3.934 2-7 2l7-4v2Z"/><path fill="#CCC7C9" id="ccg" d="M341 173h2v-9l-1-2v-3c-.786 0-3.301-10.103-4-11.5-2.725-5.45-12.924-17.712-18.5-20.5-7.503-3.751-14.526-8.263-22-12-1.662-.831-9.5-1.515-9.5-4h-2l-1-1c-5.714 0-10.081-6.21-16.5-3-6.94 3.47-8.346 16-17.5 16l-4 2c0 2.911-6.752 4-9 4l-2-2c0 1.743-4.388 5.056-6.5 4l-1-3c-3.048 0-.563 4.219-5 2l-2-1-1.5-1-2 1c-2.248 0-9-1.089-9-4l-4-2c-8.503 0-11.084-12.792-17.5-16-6.029-3.015-10.897 3-16.5 3l-1 1h-1l-2 1c0 1.55-6.228 2.364-7.5 3l-20 10c-7.064 3.532-17.128 14.756-20.5 21.5-.696 1.391-2.391 8.5-4 8.5v2c0 1.145.579 4-1 4v12h2c0-23.196 10.118-36.309 29.5-46 2.997-1.498 6.931-1.466 10-3 6.094-3.047 35.5-.29 35.5 8 5.157 0 20 9.195 20 15l10 6h4c2.45 0 1.698-3 3.5-3l2.5 3h5l9-6c0-5.621 15.438-15 20-15 0-7.26 28.203-11.649 35.5-8l15 5c16.855 8.428 25.5 25.12 25.5 44Z"/><path fill="#1D9D5A" id="MOp6b" d="M333 136v1l-11.5-11c-3.215-3.215-20.262-13-24.5-13 0-2.033-10.963-6-13-6l1-1c8.898 0 28.904 14.702 37.5 19l10.5 10v1Z"/><path fill="#40A465" id="ACAv6b" d="m193 107 3 2.5c1.44 2.88 8 7.862 8 11.5-3.369 0-11-11.345-11-14ZM263 107l-1 2 1-2Z"/><path fill="#1D9D5A" id="MOp6b" d="M165 109c-1.465 0-4-.109-4 2l4-2Z"/><path fill="#40A465" id="ACAv6b" d="m262 109-10 12c3.459 0 10-8.809 10-12Z"/><path fill="#C9C9CA" id="scwm" d="m171 110-1 1 1-1ZM285 110l1 1-1-1Z"/><path fill="#187D61" id="SSp-m6a" d="M361 164h1c0-13.229-4.418-40.959-16.5-47-2.453-1.226-4.341-7-8.5-7 0 8.193-4 16.283-4 25v1c5.246 0 11 20.307 11 25 4.566 0 8.254 2 12.5 2 1.19 0 4.5-.614 4.5 1ZM112 161h1c0-7.112 1.104-11.708 4-17.5l6-8.5c0-6.405-.095-12.69-3-18.5-.375-.749 2.179-5.5-1-5.5-4.311 0-10.213 6.926-12 10.5l-6 8c-5.132 10.264-6 22.065-6 34.5 5.622 0 11.062-3 17-3Z"/><path fill="#1D9D5A" id="MOp6b" d="M160 113c-5.834 0-9.378 6-15 6 0-3.482 13.165-8 16-8l-1 2Z"/><path fill="#C9C9CA" id="scwm" d="m169 111-2 1 2-1ZM333 137c0 4.979 9 13.01 9 22-.786 0-3.301-10.103-4-11.5-2.725-5.45-12.924-17.712-18.5-20.5-7.503-3.751-14.526-8.263-22-12-1.662-.831-9.5-1.515-9.5-4l9 2c4.238 0 21.285 9.785 24.5 13l11.5 11ZM124 137c-2.227 0-9 15.01-9 18 1.609 0 3.304-7.109 4-8.5 3.372-6.744 13.436-17.968 20.5-21.5l20-10c1.272-.636 7.5-1.45 7.5-3l-7 1c-5.834 0-9.378 6-15 6 0 2.109-2.535 2-4 2 0 2.303-11.841 11.171-13.5 12l-3.5 4Z"/><path fill="#1D9D5A" id="MOp6b" d="M145 119c-1.465 0-4-.109-4 2 1.465 0 4 .109 4-2Z"/><path fill="#7ED04B" id="IG" d="M236 127c0 1.743-4.388 5.056-6.5 4l-1-3c-3.048 0-.563 4.219-5 2l-2-1-1.5-1 2-5 1-2 4-2c.839 0 2 1.93 2 0 2.813 0 3.461 4 5 4l2 4Z"/><path fill="#1D9D5A" id="MOp6b" d="M124 135v2l3.5-4c1.659-.829 13.5-9.697 13.5-12-2.309 0-17 11.424-17 14Z"/><path fill="#40A664" id="ACAv1" d="m223 121-1 2 1-2Z"/><path fill="#98D5F9" id="CP" d="m137 232 4 2c6.604 0 12.291 2.104 18.5-1 4.822-2.411 5.478-11.456 7.5-15.5 5.953-11.907 10.498-12.999 21.5-18.5l2.5-2 1-1c0-3.109 2-7.814 2-11v-4l1-2v-5c0-1.048-.473-3 1-3v-1c0-1.048-.473-3 1-3v-23.5c-1.07-2.14-2-3.887-2-6.5l-4-5c0-8.29-29.406-11.047-35.5-8-3.069 1.534-7.003 1.502-10 3-19.382 9.691-29.5 22.804-29.5 46 0 11.185 7 20.491 7 32l2 9v1l2 3v1l1 1 2 4 1 1 6 7ZM319 232l-4 2c-6.263 0-11.529 1.986-17.5-1-6.077-3.039-6.079-11.658-8.5-16.5-5.08-10.16-11.948-12.724-21.5-17.5l-2.5-2-1-1c0-1.488-.924-11-2-11v-7c0-1.048.473-3-1-3v-3c0-6.705-5.697-20.105-2-27.5l3-7.5 3-5c0-7.26 28.203-11.649 35.5-8l15 5c16.855 8.428 25.5 25.12 25.5 44 0 10.734-8 20.842-8 32v4c-1.353 0-2 4.643-2 6v1l-1 1v1l-1 1v1l-1 1-1 1v1l-1 1-1 1v1l-5 5-1 1Z"/><path fill="#AAA8A9" id="SEZ" d="m211 147-1 1c0-3.96-8.422-9.461-11.5-11-.778-.389-3.5-1.961-3.5 0l-4-5c5.157 0 20 9.195 20 15ZM245 147l2 2c0-7.155 9.705-12 15-12l3-5c-4.562 0-20 9.379-20 15Z"/><path fill="#188064" id="SSp-m6b" d="M113 161h1c0-1.145-.579-4 1-4v-2c0-2.99 6.773-18 9-18v-2h-1l-6 8.5c-2.896 5.792-4 10.388-4 17.5Z"/><path fill="#A8AAAA" id="VL" d="M197 167h1l1-2c0-6.322 11-11.005 11-17 0-3.96-8.422-9.461-11.5-11-.778-.389-3.5-1.961-3.5 0 0 2.613.93 4.36 2 6.5V167ZM259 167c0 1.041.986 5 2 5 0-6.705-5.697-20.105-2-27.5l3-7.5c-5.295 0-15 4.845-15 12l7 10 1 1 2 4 1 1 1 2Z"/><path fill="#188064" id="SSp-m6b" d="m342 160 2 1c0-4.693-5.754-25-11-25v1c0 4.979 9 13.01 9 22v1Z"/><path fill="#1A7E62" id="SSs1" d="m66 170-4 2c-2.064 0-.426-3.353-1-4.5-4.091-8.182 0-16.242 0-24.5l5 1v26ZM390 170l5 2c0-6.412 2-13.194 2-20.5l-2-8.5-4 1c0 8.557-1 18.122-1 26Z"/><path fill="#1B8063" id="SSs2/3" d="m75 167-9 3v-26c3.414 0 6.353 3 10 3v1c-1.615 0-1 3.31-1 4.5V167ZM382 167l8 3c0-7.878 1-17.443 1-26h-1l-9 3v2l1 18Z"/><path fill="#97D6F9" id="STR" d="M221 162c-3.476 0-10.654-2.923-14.5-1l-7.5 4c0-6.322 11-11.005 11-17l1-1 10 6c0 1.764-2.593 2.313-2 3.5l2 5.5ZM258 165l1 2c-1.502 0-7.757-5.129-9.5-6-3.934-1.967-12.498 2-14.5 2 0-2.029 1.191-1.881 2-3.5l-1-6.5 9-6 2 2 7 10 1 1 2 4 1 1Z"/><path fill="#187C63" id="SSs4" d="M78 166c0 1.473-1.952 1-3 1v-14.5c0-1.19-.615-4.5 1-4.5 0 1.794 2 2.951 2 4.5V166ZM378 166c0 1.579 2.855 1 4 1l-1-18c-2.334 0-1.341 4.181-2 5.5-.83 1.661 1.174 4.652 0 7l-2 1 2 1c.44.879.028 2.5-1 2.5Z"/><path fill="#97D6F9" id="STR" d="m231 189-2.5-4-3.5 6 1-20.5c-.628-1.256-4-6.518-4-7.5l4.5 1 .5-9.5-2-1.5c2.45 0 1.698-3 3.5-3l2.5 3c0 1.333-4.282 12 .5 12 1.045 0 1.861-2 3.5-2l-4 4.5V189Z"/><path fill="#8FCAED" id="SH" d="m221 162 1 1 4.5 1 .5-9.5-2-1.5h-4c0 1.764-2.593 2.313-2 3.5l2 5.5ZM236 153l1 6.5c-.809 1.619-2 1.471-2 3.5-1.639 0-2.455 2-3.5 2-4.782 0-.5-10.667-.5-12h5Z"/><path fill="#C9C9CA" id="scwm" d="M115 157c-1.579 0-1 2.855-1 4 1.579 0 1-2.855 1-4Z"/><path fill="#AAA8A9" id="SEZ" d="m254 159 1 1-1-1Z"/><path fill="#019C74" id="GU6b" d="M344 174h1c0-4.414-1-9.177-1-13l-2-1v2l1 2v10h1Z"/><path fill="#009B74" id="GU6a" d="M112 174c-5.217 0-11.24 6-17 6v-16c5.622 0 11.062-3 17-3v13Z"/><path fill="#019C74" id="GU6b" d="m114 173-2 1v-13h2v12Z"/><path fill="#90CAED" id="LSr" d="m221 216-1.5 3c-2.856 1.428-4.553-2-6.5-2v-1l-2-2-1-3-1-4c3.758 0 3.36-8.78 2-11.5-2.794-5.588-9.144-18.5-16-18.5v-3c1.473 0 1-1.952 1-3l1-1v-2l1-1 1-2 7.5-4c3.846-1.923 11.024 1 14.5 1l1 1c0 .982 3.372 6.244 4 7.5l-1 20.5c0 9.085-4 16.296-4 25ZM244 216l-1 1c-1.791 0-2.959 3.27-5.5 2l-2.5-4-3-19c0-1.048.473-3-1-3v-25.5l4-4.5c2.002 0 10.566-3.967 14.5-2 1.743.871 7.998 6 9.5 6 0 1.041.986 5 2 5v5c-6.862 0-13.179 13.859-16 19.5-1.417 2.835-.397 10.5 3 10.5v1l-1 1-3 7Z"/><path fill="#009B74" id="GU6a" d="M345 174c0 1.845 3.381 1.441 4.5 2 3.113 1.557 7.904 4 11.5 4v-16c0-1.614-3.31-1-4.5-1-4.246 0-7.934-2-12.5-2 0 3.823 1 8.586 1 13Z"/><path fill="#C9C9CA" id="scwm" d="m342 162 1 2-1-2Z"/><path fill="#019C75" id="GU5" d="M95 181c-5.425 0-8.796 4-14 4v-19c5.138 0 9.167-2 14-2v17Z"/><path fill="#AAA8A9" id="SEZ" d="m257 164 1 1-1-1Z"/><path fill="#019C75" id="GU5" d="M361 180c4.968 0 9.531 5 15 5v-19l-14-2h-1v16Z"/><path fill="#97D6F9" id="STR" d="m199 165-1 2 1-2Z"/><path fill="#009C74" id="GU4" d="m81 185-3 1c0-6.31-3-11.988-3-19 1.048 0 3 .473 3-1h3v19ZM376 185l2 1c0-5.802 4-12.699 4-19-1.145 0-4 .579-4-1h-2v19Z"/><path fill="#009B75" id="GU2/3" d="m78 186-7 4c0-4.557-5-14.068-5-20l9-3c0 7.012 3 12.69 3 19Z"/><path fill="#A8AAAA" id="VL" d="M196 170h1v-3c-1.473 0-1 1.952-1 3Z"/><path fill="#97D6F9" id="STR" d="m198 167-1 1v-1h1Z"/><path fill="#009B75" id="GU2/3" d="m378 186 8 4c0-6.684 4-12.943 4-20l-8-3c0 6.301-4 13.198-4 19Z"/><path fill="#009C75" id="GU1" d="m71 190-4 1c0-6.488-5-12.192-5-19l4-2c0 5.932 5 15.443 5 20Z"/><path fill="#97D6F9" id="STR" d="m197 170-1 1v-1h1Z"/><path fill="#009C75" id="GU1" d="M386 191h3l6-19-5-2c0 7.057-4 13.316-4 20v1Z"/><path fill="#A8AAAA" id="VL" d="M196 171c-1.473 0-1 1.952-1 3 1.473 0 1-1.952 1-3Z"/><path fill="#1F9766" id="AId6b" d="M115 186h1l-2-13-2 1c0 2.849 3 9.247 3 11v1Z"/><path fill="#C8CBCC" id="ec" d="M121 205h2c0-11.509-7-20.815-7-32h-2l2 13 1 3v2l2 4c0 3.395 2 6.106 2 10ZM333 205h2l2-10 2-3v-1c0-1.048-.473-3 1-3l1-2v-1c0-4.078 2-7.622 2-11v-1h-2c0 10.734-8 20.842-8 32Z"/><path fill="#209666" id="AId6a" d="m108 199-6 1c-2.354 0-7-16.112-7-19v-1c5.76 0 11.783-6 17-6 0 2.849 3 9.247 3 11-11.745 0-7 5.622-7 14Z"/><path fill="#1F9766" id="AId6b" d="M341 185h1l1-1 1-10h-1c0 3.378-2 6.922-2 11Z"/><path fill="#209666" id="AId6a" d="M354 201h1c0-5.393 6-12.678 6-21-3.596 0-8.387-2.443-11.5-4-1.119-.559-4.5-.155-4.5-2h-1l-1 10c7.757 0 6 9.477 6 15 1.424 0 5 .362 5 2Z"/><path fill="#A8AAAA" id="VL" d="m261 177 1 1c0-1.048.473-3-1-3v2Z"/><path fill="#8FCBED" id="LSv" d="M208 207h1c3.758 0 3.36-8.78 2-11.5-2.794-5.588-9.144-18.5-16-18.5v2l-1 2v4c.689 0 2 7.178 2 8l1 2c4.954 0 7.286 12 11 12ZM248 207h1c0-1.683 7.067-11 9-11l1-1h1l1-2 1-8v-7l-1-1c-6.862 0-13.179 13.859-16 19.5-1.417 2.835-.397 10.5 3 10.5Z"/><path fill="#A8AAAA" id="VL" d="m195 179-1 2 1-2Z"/><path fill="#209665" id="AId5" d="M355 201c4.902 0 9.595 2 14 2 0-3.72 7-11.784 7-18-5.469 0-10.032-5-15-5 0 8.322-6 15.607-6 21ZM102 201c-5.401 0-10.124 2-15 2 0-4.906-6-10.665-6-18 5.204 0 8.575-4 14-4 0 2.888 4.646 19 7 19v1Z"/><path fill="#8ADA86" id="CLA" d="m118 195 1 8.5c-3.276 6.551-11 .59-11-4.5 0-8.378-4.745-14 7-14v1l2 3v2l1 4Z"/><path fill="#209666" id="AId6a" d="m343 184-1 1 1-1Z"/><path fill="#8ADA86" id="CLA" d="M338 195c0 3.88-.942 15.221 7.5 11l3.5-7c0-5.523 1.757-15-6-15l-1 1-1 1-1 2c0 1.048.473 3-1 3v1c0 1.048.473 3-1 3Z"/><path fill="#209765" id="AId2/3" d="M76 206h1c0-1.931 8.302-3 10-3 0-4.906-6-10.665-6-18l-3 1-7 4c0 6.086 5 10.576 5 16Z"/><path fill="#A8AAAA" id="VL" d="M194 196c0 5.582-2 8.885-2 1v-1c0-3.109 2-7.814 2-11 .689 0 2 7.178 2 8l-1 2-1 1Z"/><path fill="#96A7D3" id="MS" d="M221 226c2.46 0 5.69 1 7.5 1l1-2 6.5 2c0-3.531-1-7.893-1-12l-3-19c-1.473 0-1-1.952-1-3v-4l-2.5-4-3.5 6c0 9.085-4 16.296-4 25v10Z"/><path fill="#A8AAAA" id="VL" d="m264 196 1 1c0 9.078-3 3.237-3-2l-1-2 1-8c1.076 0 2 9.512 2 11Z"/><path fill="#209666" id="AId6a" d="m342 185-1 1v-1h1Z"/><path fill="#209765" id="AId2/3" d="M369 203c4.829 0 7.639 3 11 3l4-8.5c.567-1.134.546-6.5 2-6.5v-1l-8-4-2-1c0 6.216-7 14.28-7 18Z"/><path fill="#209666" id="AId6a" d="m116 186 1 3-2-3h1ZM341 186l-1 2 1-2ZM340 188c-1.473 0-1 1.952-1 3 1.473 0 1-1.952 1-3Z"/><path fill="#209764" id="AId1" d="m76 206-2 1-2-3.5-5-12.5 4-1c0 6.086 5 10.576 5 16ZM380 206l3 1c0-5.181 6-10.521 6-16h-3c-1.454 0-1.433 5.366-2 6.5l-4 8.5Z"/><path fill="#209666" id="AId6a" d="M118 195h1l-2-4 1 4ZM337 195h1c1.473 0 1-1.952 1-3l-2 3Z"/><path fill="#97D6F9" id="STR" d="M195 195h2l-1-2-1 2ZM231 193c1.473 0 1 1.952 1 3-1.473 0-1-1.952-1-3ZM260 195h2l-1-2-1 2Z"/><path fill="#1F9866" id="AIv6a" d="M113 209h1l1-1 1-1h3l2-2c0-3.894-2-6.605-2-10h-1l1 8.5c-3.276 6.551-11 .59-11-4.5l-6 1v1c0 3.223 4 6.355 4 10l7-2Z"/><path fill="#97D6F9" id="STR" d="m195 195-1 1 1-1Z"/><path fill="#80CDF8" id="ACB" fill-rule="evenodd" d="M181 209c0 .555-6.173 6.846-7 8.5-1.639 3.278 3.582 7.959 6.5 6.5 5.604-2.802 10.464-15 .5-15m28 32-6.5 8c-6.176 3.088-12.149 12.075-20 16-8.082 4.041-40.5-.881-40.5-13 0-5.897-3-10.676-3-17l2-1c6.604 0 12.291 2.104 18.5-1 4.822-2.411 5.478-11.456 7.5-15.5 5.953-11.907 10.498-12.999 21.5-18.5l2.5-2h1c0 7.885 2 4.582 2-1l1-1h2c4.954 0 7.286 12 11 12l2 4 1 3 2 2v13.5l-3 9.5-1 2Z"/><path fill="#97D6F9" id="STR" d="m259 195-1 1 1-1Z"/><path fill="#80CDF8" id="ACB" fill-rule="evenodd" d="M273 209c0 2.209-3 4.212-3 7.5 0 16.089 20.842 2.171 9.5-3.5-2.054-1.027-3.063-4-6.5-4m-26 31 7 8.5c6.956 6.956 10.669 12.084 19.5 16.5 5.239 2.62 29.808-.904 34-3 2.536-1.268 6.79-10 7.5-10 0-5.856 3-10.657 3-16l-3-2c-6.263 0-11.529 1.986-17.5-1-6.077-3.039-6.079-11.658-8.5-16.5-5.08-10.16-11.948-12.724-21.5-17.5l-2.5-2c0 9.078-3 3.237-3-2h-3l-1 1c-1.933 0-9 9.317-9 11l-1 1-1 1-3 7-1 1c0 5.924-.486 14.528 2 19.5l2 3.5Z"/><path fill="#1F9866" id="AIv6a" d="m341 208 9 3 4-10c0-1.638-3.576-2-5-2l-3.5 7c-8.442 4.221-7.5-7.12-7.5-11h-1l-2 10c1.238 0 3 .423 3 2h2l1 1Z"/><path fill="#97D6F9" id="STR" d="M191 197h1v-1l-1 1ZM264 196l1 1-1-1Z"/><path fill="#1F9865" id="AIv5" d="m102 213-7 1c0-5.582-8-7.257-8-11 4.876 0 9.599-2 15-2 0 3.223 4 6.355 4 10l-4 2ZM355 213l6 1c0-4.72 8-7.101 8-11-4.405 0-9.098-2-14-2h-1l-4 10c1.041 0 5 .986 5 2Z"/><path fill="#219764" id="AIv2/3" d="m95 214-13 3-5-11c0-1.931 8.302-3 10-3 0 3.743 8 5.418 8 11ZM361 214l13 3c0-4.065 6-7.21 6-11-3.361 0-6.171-3-11-3 0 3.899-8 6.28-8 11Z"/><path fill="#8AD987" id="CTXsp" d="M119 207c4.487 0 3.461 7 6 7l-2-9h-2l-2 2ZM338 207c-2.25 0-3.376 2-5 2v-4h2c1.238 0 3 .423 3 2Z"/><path fill="#209864" id="AIv1" d="m82 217-3 1-5-11 2-1h1l5 11ZM374 217l3 1 6-11-3-1c0 3.79-6 6.935-6 11Z"/><path fill="#8AD987" id="CTXsp" d="m116 207-1 1 1-1Z"/><path fill="#A0EE9C" id="EPd" d="M121 229h2c3.727 0 8 2.482 8-4l-1-1-2-4-1-1v-1c-1.577 0-2-1.762-2-3v-1c-2.539 0-1.513-7-6-7h-3l-1 1-1 1h-1c0 2.991-5.173 6.155-3 10.5l4 5.5h1l2 2h1c1.238 0 3 .423 3 2Z"/><path fill="#97D6F9" id="STR" d="m209 207 1 4-2-4h1ZM249 207l-1 1v-1h1Z"/><path fill="#A0EE9C" id="EPd" d="M334 229h1l2-1 1-1h1l1-1 2-1 1-1 1-1 1-1 1-1c0-3.318 1.714-5.073 0-8.5l-5-4.5-1-1h-2c-2.25 0-3.376 2-5 2 0 1.623-.005 6-2 6v1l-1 1v1l-1 1v1l-1 1-1 1v1l-1 1v2c0 6.241 4.479 3 8 3Z"/><path fill="#8AD987" id="CTXsp" d="m340 207 1 1-1-1Z"/><path fill="#99D2BD" id="OLF" d="m115 208-1 1 1-1Z"/><path fill="#97D6F9" id="STR" d="m248 208-1 1 1-1Z"/><path fill="#99D2BD" id="OLF" d="M355 213c-4.324 0-5.576 8-9 8 0-3.318 1.714-5.073 0-8.5l-5-4.5 9 3c1.041 0 5 .986 5 2ZM102 213c5.886 0 6.469 12 12 12l-4-5.5c-2.173-4.345 3-7.509 3-10.5l-7 2-4 2Z"/><path fill="#CBCBC7" id="aco" d="M181 209c0 .555-6.173 6.846-7 8.5-1.639 3.278 3.582 7.959 6.5 6.5 5.604-2.802 10.464-15 .5-15ZM273 209c0 2.209-3 4.212-3 7.5 0 16.089 20.842 2.171 9.5-3.5-2.054-1.027-3.063-4-6.5-4Z"/><path fill="#8AD987" id="CTXsp" d="M333 209c-1.353 0-2 4.643-2 6 1.995 0 2-4.377 2-6Z"/><path fill="#6ACAB9" id="PIR" d="M123 260h2l8-4 1-1c0-6.466 5.828-5.845 1-15.5L123 229h-2l-3-2h-1l-2-2h-1c-5.531 0-6.114-12-12-12l-7 1-13 3-3 1c0 5.139 17.18 31 23 31 0-4.616 21 8.098 21 11ZM331 260h2c0-3.18 21-14.774 21-11 6.455 0 23-25.433 23-31l-3-1-13-3-6-1c-4.324 0-5.576 8-9 8l-1 1-1 1-1 1-1 1-2 1-1 1h-1l-1 1-2 1h-1c0 .816-11.334 7.168-13 10.5-4.526 9.053 2 9.727 2 16.5l8 4Z"/><path fill="#97D6F9" id="STR" d="m211 214 2 2-2-2Z"/><path fill="#8AD987" id="CTXsp" d="m125 215 2 3c-1.577 0-2-1.762-2-3Z"/><path fill="#97D6F9" id="STR" d="M245 256h4l-2-16-2-3.5c-2.486-4.972-2-13.576-2-19.5-1.791 0-2.959 3.27-5.5 2l-2.5-4c0 4.107 1 8.469 1 12 0 5.263 3.342 29 9 29ZM207 256h4c6.097 0 10-24.845 10-30v-10l-1.5 3c-2.856 1.428-4.553-2-6.5-2v12.5l-3 9.5-1 2c0 5.528-2 9.922-2 15ZM244 216l-1 1 1-1Z"/><path fill="#8AD987" id="CTXsp" d="m331 216-1 1 1-1ZM330 218l-1 1 1-1ZM127 219l1 1-1-1ZM329 220l-1 1 1-1ZM328 221l-1 1 1-1Z"/><path fill="#99D2BD" id="OLF" d="m346 221-1 1 1-1Z"/><path fill="#8AD987" id="CTXsp" d="m327 223-1 1 1-1Z"/><path fill="#99D2BD" id="OLF" d="m344 223-1 1 1-1Z"/><path fill="#8AD987" id="CTXsp" d="m130 224 1 1-1-1Z"/><path fill="#99D2BD" id="OLF" d="M325 225h1v-1l-1 1ZM343 224l-1 1 1-1ZM115 225l2 2-2-2ZM142 252c-2.7 0-4.762 3-8 3 0-6.466 5.828-5.845 1-15.5L123 229c3.727 0 8 2.482 8-4l6 7 2 3c0 6.324 3 11.103 3 17Z"/><path fill="#96A6D3" id="NDB" d="m223 263-2 2c-2.827 0-4.163 2.831-6.5 4-3.712 1.856-9.589-2.323-7.5-6.5 1.169-2.337 4-3.673 4-6.5 6.097 0 10-24.845 10-30 2.46 0 5.69 1 7.5 1l1-2 6.5 2c0 5.263 3.342 29 9 29l4 5.5c1.856 3.712-2.323 9.589-6.5 7.5L229 259c0-1.93-1.161 0-2 0l-1 1-1 1-2 2Z"/><path fill="#8AD987" id="CTXsp" d="M325 226h1v-1h-1v1Z"/><path fill="#99D2BD" id="OLF" d="M322 256h1c0-6.773-6.526-7.447-2-16.5 1.666-3.332 13-9.684 13-10.5-3.521 0-8 3.241-8-3h-1l-5 5-1 1-1 4c0 5.343-3 10.144-3 16l7 4ZM340 226l-1 1 1-1ZM118 227c1.238 0 3 .423 3 2l-3-2ZM338 227l-1 1 1-1ZM337 228l-2 1 2-1Z"/><path fill="#97D6F9" id="STR" d="m320 231-1 1 1-1ZM141 234l-2 1-2-3 4 2ZM315 234l3 2 1-4-4 2Z"/><path fill="#A2B1D7" id="SI" d="m210 239-1 2 1-2ZM322 256c-3.03 0-2.118 4.309-3.5 5-4.781 2.39-9.906 8.453-17 12-6.46 3.23-33.252-.126-39-3-4.345-2.173-7.509 3-10.5 3 0-6.268-3-11.53-3-17l-2-16 7 8.5c6.956 6.956 10.669 12.084 19.5 16.5 5.239 2.62 29.808-.904 34-3 2.536-1.268 6.79-10 7.5-10l7 4ZM207 256c0 6.086-3 10.564-3 17-2.991 0-6.155-5.173-10.5-3-5.739 2.87-31.563 6.218-38 3-5.897-2.948-10.278-5.278-15.5-10.5-2.115-2.115-3.067-6.5-6-6.5v-1c3.238 0 5.3-3 8-3 0 12.119 32.418 17.041 40.5 13 7.851-3.925 13.824-12.912 20-16l6.5-8c0 5.528-2 9.922-2 15Z"/><path fill="#CAC8C7" id="lot" d="M122 265h1v-5c0-2.902-21-15.616-21-11 2.158 0 16.187 16 19 16h1ZM334 265h1c2.354 0 12.331-8.831 15-11.5l4-4.5c0-3.774-21 7.82-21 11v4l1 1Z"/><path fill="#99D2BD" id="OLF" d="M133 256h1v-1l-1 1Z"/><path fill="#7FCCF7" id="OT" d="M204 273c1.579 0 1 2.855 1 4 0 10.813-7.851 12.176-15.5 16h-7c-4.054 2.027-10.043.021-14 2-13.592 6.796-30.837-2.175-36.5-13.5-2.062-4.124-8-7.652-8-12.5l-1-1v-6l2-2 8-4h1c2.933 0 3.885 4.385 6 6.5 5.222 5.222 9.603 7.552 15.5 10.5 6.437 3.218 32.261-.13 38-3 4.345-2.173 7.509 3 10.5 3Z"/><path fill="#8599CC" id="PAL" d="M204 273c1.579 0 1 2.855 1 4 2.735 0 16-8.496 16-12-2.827 0-4.163 2.831-6.5 4-3.712 1.856-9.589-2.323-7.5-6.5 1.169-2.337 4-3.673 4-6.5h-4c0 6.086-3 10.564-3 17ZM252 273l-1 4c-2.157 0-22-15.429-22-18l13.5 10c4.177 2.089 8.356-3.788 6.5-7.5l-4-5.5h4c0 5.47 3 10.732 3 17Z"/><path fill="#7FCCF7" id="OT" d="m252 273-1 4c0 11.077 8.813 12.156 16.5 16h7c3.79 1.895 9.318.159 13 2 16.012 8.006 32.947-4.394 39.5-17.5 1.527-3.055 6-5.942 6-9.5v-7l-2-1-8-4h-1c-3.03 0-2.118 4.309-3.5 5-4.781 2.39-9.906 8.453-17 12-6.46 3.23-33.252-.126-39-3-4.345-2.173-7.509 3-10.5 3Z"/><path fill="#8599CC" id="PAL" d="m227 259-1 1 1-1Z"/><path fill="#99D2BD" id="OLF" d="m125 260-2 2v-2h2Z"/><path fill="#8599CC" id="PAL" d="m226 260-1 1 1-1Z"/><path fill="#99D2BD" id="OLF" d="M333 260v1l-2-1h2Z"/><path fill="#8599CC" id="PAL" d="m225 261-2 2c1.747 0 2-.253 2-2ZM223 263l-2 2c1.747 0 2-.253 2-2Z"/><path fill="#97D6F9" id="STR" d="m334 266-1 2v-4l1 1v1Z"/><path fill="#99D2BD" id="OLF" d="M122 265v1l-1-1h1Z"/><path fill="#97D6F9" id="STR" d="m122 266 1 1v-2h-1v1Z"/><path fill="#99D2BD" id="OLF" d="m335 265-1 1v-1h1Z"/><path fill="#97D6F9" id="STR" d="m123 268 1 1-1-1Z"/></svg>