<svg xmlns="http://www.w3.org/2000/svg" viewBox="0 0 456 320"><path fill="#1E9C59" id="MOs1" d="M222 54h1l4-2c0-3.113-3.105-3.71-4-5.5-7.447-14.895-21.894-11.5-36-11.5v5c11.347 0 25.641-4.217 32 8.5 1.089 2.177 3 2.822 3 5.5ZM230 51l4 3c0-2.168 2.899-5.4 4.5-7 10.817-10.817 17.401-7 31.5-7l-1-5c-12.171 0-27.216-4.068-34 9.5-1.264 2.527-5 2.397-5 6.5Z"/><path fill="#1E9D5A" id="MOp1" d="M139 47v6l11.5-4c5.676-2.838 29.965-9 36.5-9v-5c-11.236 0-25.94 3.22-35.5 8-1.934.967-12.5 1.309-12.5 4ZM317 47l1 6-11.5-4c-4.877-2.439-30.974-9-36.5-9l-1-5c11.319 0 25.887 3.194 35.5 8 1.977.989 12.5 1.147 12.5 4Z"/><path fill="#1E9D58" id="MOs2/3" d="m222 54-6 3-5.5-6-6-2c-5.699-2.85-14.315 4-19.5 4 0-4.71 2-9.422 2-13 11.347 0 25.641-4.217 32 8.5 1.089 2.177 3 2.822 3 5.5ZM240 58h1c0-16.087 24.192-5 30-5l-1-13c-14.099 0-20.683-3.817-31.5 7-1.601 1.6-4.5 4.832-4.5 7l6 4Z"/><path fill="#1F9C58" id="MOp2/3" d="M137 70c0 2.009 1 4.272 1 6 8.941 0 38.892-23 47-23 0-4.71 2-9.422 2-13-6.535 0-30.824 6.162-36.5 9L139 53c0 4.323-2 11.695-2 17ZM319 70v7l-6.5-4c-5.437-2.718-37.161-19-40.5-19l-1-1-1-13c5.526 0 31.623 6.561 36.5 9l11.5 4c0 6.216 1 11.974 1 17Z"/><path fill="#197E64" id="SSp-ul1" d="m102 65 2 5c4.538 0 27.78-17 35-17v-6c-9.669 0-19.274 7.887-27.5 12-1.647.823-9.5 3.92-9.5 6ZM354 65c0 1.041-.986 5-2 5-3.917 0-27.648-17-34-17l-1-6c9.86 0 19.149 7.825 27.5 12 1.816.908 9.5 3.245 9.5 6Z"/><path fill="#1F9D58" id="MOs5" d="M203 69c-3.138 0-8.309-4.096-12.5-2l-8.5 4 3-18c5.185 0 13.801-6.85 19.5-4l6 2 5.5 6v1c-3.606 0-10.945 11-13 11ZM253 69c3.441 0 9.054-4.223 13.5-2 2.338 1.169 5.905 5 8.5 5 0-5.751-3-11.739-3-18l-1-1c-5.808 0-30-11.087-30 5l12 11Z"/><path fill="#3EA665" id="ACAd1" d="M223 80h11V54l-4-3c-1.532 0-.95 1-3 1l-4 2v26Z"/><path fill="#197F61" id="SSp-ul2/3" d="m107 77 3 4c4.213 0 19.429-11 27-11 0-5.305 2-12.677 2-17-7.22 0-30.462 17-35 17v1c1.662 0 3 4.357 3 6Z"/><path fill="#1E9C5A" id="MOp5" d="M138 77v14c9.506 0 37.099-18 43-18l1-1v-1l3-18c-8.108 0-38.059 23-47 23v1Z"/><path fill="#197F61" id="SSp-ul2/3" d="M346 82h1c0-2.25 2-3.376 2-5l3-6v-1c-3.917 0-27.648-17-34-17 0 6.216 1 11.974 1 17 3.491 0 27 9.451 27 12Z"/><path fill="#40A565" id="ACAd2/3" d="m223 80-6 1c0-7.564-1-16.113-1-23v-1l6-3h1v26ZM234 80l5 1c0-7.62 1-16.035 1-23l-6-4v26Z"/><path fill="#1E9C5A" id="MOp5" d="M318 91h1V77l-6.5-4c-5.437-2.718-37.161-19-40.5-19 0 6.261 3 12.249 3 18v1c6.654 0 33.277 18 43 18Z"/><path fill="#3EA566" id="ACAd5" d="M217 82c-4.77 0-7.724 5-12 5 0-6.023-2-11.684-2-17v-1c2.055 0 9.394-11 13-11 0 6.887 1 15.436 1 23v1ZM239 81l12 6c1.579 0 1-2.855 1-4l1-13v-1l-12-11h-1c0 6.965-1 15.38-1 23Z"/><path fill="#1B8062" id="SSp-un1" d="M103 71h1v-1l-2-5c-1.238 0-3 .423-3 2l4 4ZM353 71h1l3-4c0-1.577-1.762-2-3-2 0 1.041-.986 5-2 5v1h1Z"/><path fill="#187E61" id="SSp-m1" d="m54 133 5 2c0-15.764 15.722-39.222 26.5-50 3.077-3.077 13.908-13 17.5-13v-1l-4-4c-5.358 0-13.118 9.618-17 13.5-12.158 12.158-28 35.924-28 52.5Z"/><path fill="#1D9C5A" id="MOs6a" d="M181 93h4c0-1.995 4.377-2 6-2 0-3.23 8.715-21 12-21v-1c-3.138 0-8.309-4.096-12.5-2l-8.5 4v1l-1 1-1 14.5c0 1.278-.665 5.5 1 5.5ZM266 91c3.647 0 6.586 3 10 3 0-6.51-1-15.205-1-21v-1c-2.595 0-6.162-3.831-8.5-5-4.446-2.223-10.059 2-13.5 2v1c2.78 0 13 17.711 13 21Z"/><path fill="#187E61" id="SSp-m1" d="M397 135h1l4-2c0-15.034-16.937-48.718-31.5-56-4.742-2.37-7.883-10-13.5-10l-3 4 17 13.5c1.67 3.34 6.677 6.355 8 9 6.638 13.275 18 25.613 18 41.5Z"/><path fill="#1A7F63" id="SSp-ul4" d="M114 89h1c4.955 0 16.157-12 23-12v-1c0-1.728-1-3.991-1-6-7.571 0-22.787 11-27 11v1c1.948 0 4 5.428 4 7Z"/><path fill="#3FA664" id="ACAd6a" d="M195 96h1l9-8v-1c0-6.023-2-11.684-2-17-3.285 0-12 17.77-12 21v1c2.226 0 4 1.774 4 4ZM263 94l-2 2c-3.585 0-6.014-8-10-8v-1c1.579 0 1-2.855 1-4l1-13c2.78 0 13 17.711 13 21l-2 2-1 1Z"/><path fill="#1A7F63" id="SSp-ul4" d="M341 89h1c0-1.334 2.717-7 4-7 0-2.549-23.509-12-27-12v7c5.688 0 11.604 6.552 16.5 9l5.5 3Z"/><path fill="#1C7F63" id="SSp-un2/3" d="M103 72c0 1.477 4 6.778 4 5 0-1.643-1.338-6-3-6h-1v1ZM353 71c0 2.522-1.432 6-4 6l3-6h1Z"/><path fill="#1A7E64" id="SSp-m2/3" d="M397 135c0 1.444-7.394 4-9 4 0-12.487-12.532-34.032-21-42.5L352.5 85l-5.5-3c0-2.25 2-3.376 2-5 2.568 0 4-3.478 4-6h1l17 13.5c1.67 3.34 6.677 6.355 8 9 6.638 13.275 18 25.613 18 41.5ZM59 136c3.79 0 5.91 3 10 3 0-14.194 14.618-41.56 27.5-48 4.427-2.213 8.327-9 13.5-9v-1l-3-4c0 1.778-4-3.523-4-5-3.592 0-14.423 9.923-17.5 13C74.722 95.778 59 119.236 59 135v1Z"/><path fill="#1F9B5A" id="MOp6a" d="m182 72-1 1 1-1ZM138 111h3c0-1.722 5.235-2.368 6.5-3 5.737-2.869 14.957-9 21.5-9 0-1.638 3.576-2 5-2 0-2.46 3.378-2 5-2l2-1v-1c-1.665 0-1-4.222-1-5.5l1-14.5c-5.901 0-33.494 18-43 18v20ZM276 94c10.386 0 31.617 17 42 17V91c-9.723 0-36.346-18-43-18 0 5.795 1 14.49 1 21Z"/><path fill="#187E62" id="SSp-ul5" d="M121 99h1l16-8V77c-6.843 0-18.045 12-23 12l6 10ZM319 91l16 8c0-3.19 6-5.985 6-10l-5.5-3c-4.896-2.448-10.812-9-16.5-9v14Z"/><path fill="#3FA566" id="ACAv2/3" d="m221 115-3 1c0-11.629-1-22.818-1-34v-1l6-1c0 10.68-1 21.946-1 32l-1 3Z"/><path fill="#40A664" id="ACAv1" d="M229 107c2.832 0 2.953 5 5 5V80h-11c0 10.68-1 21.946-1 32 2.047 0 2.168-5 5-5 0-3.15 2-3.446 2 0Z"/><path fill="#3FA566" id="ACAv2/3" d="m235 114 3 2c0-10.955 1-23.388 1-35l-5-1v32l1 2Z"/><path fill="#3EA666" id="ACAv5" d="M247 112c0 2.645-6.992 4-9 4 0-10.955 1-23.388 1-35l12 6v13.5l-4 11.5Z"/><path fill="#1B7F62" id="SSp-m4" d="M73 143h1c0-10.41 14.726-33.226 22.5-41 4.233-4.233 8.779-5.78 13-10 1.171-1.17 4.5-.774 4.5-3 0-1.572-2.052-7-4-7-5.173 0-9.073 6.787-13.5 9C83.618 97.44 69 124.806 69 139v1c1.717 0 4 1.252 4 3Z"/><path fill="#3EA666" id="ACAv5" d="M209 112c0 2.251 7.01 4 9 4 0-11.629-1-22.818-1-34-4.77 0-7.724 5-12 5v1c0 9.248 4 17.085 4 24Z"/><path fill="#1B7F62" id="SSp-m4" d="m388 140-5 2-6-12.5c-5.298-10.596-11.028-26.264-23.5-32.5L342 89c0-1.334 2.717-7 4-7h1l5.5 3L367 96.5c8.468 8.468 21 30.013 21 42.5v1Z"/><path fill="#40A564" id="ACAv6a" d="m206 111 3 1c0-6.915-4-14.752-4-24l-9 8c0 6.152 10 9.279 10 14v1ZM250 111l-3 1 4-11.5V88c3.986 0 6.415 8 10 8v1l-10 12-1 1v1Z"/><path fill="#1B7E63" id="SSp-m5" d="M74 143c4.35 0 6.918 4 11 4 0-7.981 10.814-33.157 18.5-37l13-9c1.119-.559 4.5-.155 4.5-2l-6-10h-1c0 2.226-3.329 1.83-4.5 3-4.221 4.22-8.767 5.767-13 10-7.774 7.774-22.5 30.59-22.5 41ZM383 142c-4.357 0-7.482 5-12 5 0-20.336-16.479-37.49-33.5-46l-2.5-2c0-3.19 6-5.985 6-10h1l11.5 8c12.472 6.236 18.202 21.904 23.5 32.5l6 12.5Z"/><path fill="#197D61" id="SSp-ul6a" d="M131 115h1c0-1.477 3.924-3 5-3l1-1V91l-16 8c0 5.739 9 10.327 9 16Z"/><path fill="#1E9C58" id="MOs6b" d="M185 93h5l1-1v-1c-1.623 0-6 .005-6 2Z"/><path fill="#3FA466" id="ACAd6b" d="M264 93h2v-2l-2 2Z"/><path fill="#1E9C58" id="MOs6b" d="M276 94v1c-3.708 0-5.942-2-10-2v-2c3.647 0 6.586 3 10 3Z"/><path fill="#197D61" id="SSp-ul6a" d="m319 112 6 3 10-16-16-8h-1v20l1 1Z"/><path fill="#3FA466" id="ACAd6b" d="M195 96v1c-1.539 0-2.187-4-5-4l1-1c2.226 0 4 1.774 4 4Z"/><path fill="#1E9C58" id="MOs6b" d="M181 94v1c1.465 0 4 .109 4-2h-4v1Z"/><path fill="#CACCC7" id="cing" d="M206 110v1c-9.08 0-11.146-10.323-18.5-14-6.268-3.134-14.757 6-20.5 6h-4c0-2.517 6-.996 6-4 1.424 0 5-.362 5-2 1.622 0 5 .46 5-2h2c1.465 0 4 .109 4-2h5c2.813 0 3.461 4 5 4 0 3.71 6.75 13 11 13Z"/><path fill="#3FA466" id="ACAd6b" d="m264 93-1 1 1-1Z"/><path fill="#CACCC7" id="cing" d="M250 110v1c9.118 0 11.993-10.746 18.5-14 6.004-3.002 13.137 5 18.5 5l1 1h5l-3.5-2-13.5-6c-3.708 0-5.942-2-10-2h-2l-1 1c0 1.238-.423 3-2 3 0 3.813-5.643 12-10 12l-1 1Z"/><path fill="#1D9D5A" id="MOp6b" d="M179 95h2v-1l-2 1Z"/><path fill="#3FA466" id="ACAd6b" d="M261 96v1c1.577 0 2-1.762 2-3l-2 2Z"/><path fill="#1D9D5A" id="MOp6b" d="M319 112v1c-9.069 0-16.852-10-26-10l-3.5-2-13.5-6v-1c10.386 0 31.617 17 42 17l1 1ZM179 95c-1.622 0-5-.46-5 2 1.622 0 5 .46 5-2Z"/><path fill="#40A465" id="ACAv6b" d="M195 97c0 3.71 6.75 13 11 13 0-4.721-10-7.848-10-14h-1v1Z"/><path fill="#1D9D5A" id="MOp6b" d="M174 97c-1.424 0-5 .362-5 2 1.424 0 5-.362 5-2Z"/><path fill="#C9C7C9" id="ccb" d="M357 162v3c-1.586 0-4.223-8.945-5-10.5-4.006-8.013-9.929-22.715-19.5-27.5-6.447-3.223-12.618-6.809-19-10-5.994-2.997-14.011-2.005-20-5-5.091-2.545-15.643 1-20.5 1-2.663 0-11 1.748-11 5l-1 1h-1l-1 1-1 1h-1l-1 1c-1.442 0-6 3.274-6 5-1.845 0-15 .742-15 4h-5.5l-1-2c-1.382 0-4.058 2-6.5 2l-7.5-4c-2.982-1.491-5.903 0-8.5 0 0-1.59-5.662-6-7-6l-1-1-2-1c0-3.859-9.943-6-13-6-15.93 0-31.465-1.017-45.5 6-6.607 3.304-12.658 9.329-18 12-5.293 2.646-11.689 15.878-14.5 21.5-.767 1.535-1.845 8.5-4 8.5v-3l1-2v-1l1-1v-2l1-1c1.473 0 1-1.952 1-3l2-4 1-2 1-1v-1l1-1 1-2c1.811 0 4-3.438 4-5l7-6.5 15.5-10.5c6.36-3.18 13.561-4.78 20-8 1.752-.876 9.5-1.293 9.5-4 5.743 0 14.232-9.134 20.5-6 7.354 3.677 9.42 14 18.5 14l3 1c0 2.251 7.01 4 9 4l3-1c0 4.03 6.985 0 7.5 0l1 2c1.904.952 5.5-1.357 5.5-3l3 2c2.008 0 9-1.355 9-4l3-1c9.118 0 11.993-10.746 18.5-14 6.004-3.002 13.137 5 18.5 5l1 1h1c0 2.076 7.932 3.216 9.5 4 9.06 4.53 18.89 7.445 28 12 7.878 3.939 16.51 13.521 20.5 21.5.806 1.612 4.273 10.5 6 10.5v2l1 1v1l1 2v1l1 2v1l1 1Z"/><path fill="#40A465" id="ACAv6b" d="m261 97-10 12c4.357 0 10-8.187 10-12Z"/><path fill="#187D61" id="SSp-m6a" d="m85 147 16 6c0-2.442 7.691-18 10-18 0-6.214 20-19.958 20-20 0-5.673-9-10.261-9-16h-1c0 1.845-3.381 1.441-4.5 2l-13 9c-7.686 3.843-18.5 29.019-18.5 37Z"/><path fill="#1D9D5A" id="MOp6b" d="M163 103c-7.722 0-13.936 8-22 8 0-1.722 5.235-2.368 6.5-3 5.737-2.869 14.957-9 21.5-9 0 3.004-6 1.483-6 4Z"/><path fill="#187D61" id="SSp-m6a" d="M355 153h1l15-6c0-20.336-16.479-37.49-33.5-46l-2.5-2-10 16v1c8.793 0 30 26.841 30 37Z"/><path fill="#C9C9CA" id="scwm" d="m287 102 1 1-1-1ZM132 116c0 .715-17 10.653-17 16l7-6.5 15.5-10.5c6.36-3.18 13.561-4.78 20-8 1.752-.876 9.5-1.293 9.5-4h-4c-7.722 0-13.936 8-22 8 0 2.109-2.535 2-4 2l-5 3ZM324 116c0 2.645 7.896 3.292 9 5.5 3.89 7.779 20 17.912 20 29.5-1.727 0-5.194-8.888-6-10.5-3.99-7.979-12.622-17.561-20.5-21.5-9.11-4.555-18.94-7.47-28-12-1.568-.784-9.5-1.924-9.5-4h4c9.148 0 16.931 10 26 10l5 3Z"/><path fill="#7ED04B" id="IG" d="M235 114c0 1.643-3.596 3.952-5.5 3l-1-2c-.515 0-7.5 4.03-7.5 0l1-3c2.047 0 2.168-5 5-5 .839 0 2 1.93 2 0 2.832 0 2.953 5 5 5l1 2Z"/><path fill="#40A465" id="ACAv6b" d="m251 109-1 1 1-1Z"/><path fill="#1D9D5A" id="MOp6b" d="M137 112v1c1.465 0 4 .109 4-2h-3l-1 1Z"/><path fill="#1C8064" id="SSp-ul6b" d="M132 115v1l5-3v-1c-1.076 0-5 1.523-5 3Z"/><path fill="#98D5F9" id="CP" d="M122 231c3.396 0 6.052 4 10 4 13.639 0 35.181 2.139 41-9.5.755-1.51 4-2.863 4-5.5 0-3.341 7.9-21 10-21v-1l1-1 1-1c0-1.041.986-5 2-5v-20c0-4.405 2-9.098 2-14v-2l1-1v-1l-1-20.5-6-15.5-4-4c-15.93 0-31.465-1.017-45.5 6-6.607 3.304-12.658 9.329-18 12-5.293 2.646-11.689 15.878-14.5 21.5-.767 1.535-1.845 8.5-4 8.5 0 1.145.579 4-1 4l-1 2v17.5c3.176 6.353 7 18.274 7 25.5l4 9 1 1 2 3 6 6c2.215 0 1.519 2 3 2ZM334 231c-3.234 0-5.921 4-10 4-15.028 0-29.787 1.713-40.5-9l-3.5-5-1-1v-1c0-3.272-7.052-20-10-20l-1-3-2-4c0-5.826-1-12.583-1-19 0-6.165-2-11.135-2-17v-2c0-5.167-2.6-15.3 0-20.5 2.217-4.434 6-11.399 6-16.5l4-4c4.857 0 15.409-3.545 20.5-1 5.989 2.995 14.006 2.003 20 5 6.382 3.191 12.553 6.777 19 10 9.571 4.785 15.494 19.487 19.5 27.5.777 1.555 3.414 10.5 5 10.5v2l1 13.5c-2.85 5.699-5 14.807-5 21.5-1.663 0-2 5.407-2 7l-1 2-5 10-1 1-1 1c-1.577 0-2 1.762-2 3l-1 1c-1.238 0-3 .423-3 2l-3 2Z"/><path fill="#1C8064" id="SSp-ul6b" d="M324 116h1v-1l-6-3v1l5 3Z"/><path fill="#AAA8A9" id="SEZ" d="M187 117c0-3.026 7.926 2 9 2 0-3.859-9.943-6-13-6l4 4ZM269 117c0-2.664-5.824 1-7 1 0-3.252 8.337-5 11-5l-4 4Z"/><path fill="#188064" id="SSp-m6b" d="m115 132-4 3c0-6.214 20-19.958 20-20h1v1c0 .715-17 10.653-17 16Z"/><path fill="#A8AAAA" id="VL" d="M196 148c-2.496 0 .496 5-2 5l-1-20.5-6-15.5c0-3.026 7.926 2 9 2l2 1 1 1c1.338 0 7 4.41 7 6 0 5.378-10 12.366-10 21ZM261 148c0 1.357.647 6 2 6 0-5.167-2.6-15.3 0-20.5 2.217-4.434 6-11.399 6-16.5 0-2.664-5.824 1-7 1l-1 1h-1l-1 1-1 1h-1l-1 1c-1.442 0-6 3.274-6 5 1.916 0 11 18.068 11 21Z"/><path fill="#188064" id="SSp-m6b" d="m355 153-1 1-1-1v-2c0-11.588-16.11-21.721-20-29.5-1.104-2.208-9-2.855-9-5.5h1c8.793 0 30 26.841 30 37Z"/><path fill="#AAA8A9" id="SEZ" d="m262 118-1 1 1-1ZM260 119l-1 1 1-1ZM198 120l1 1-1-1ZM259 120l-1 1 1-1ZM257 121l-1 1 1-1Z"/><path fill="#90CBEC" id="LSc" d="M196 148c0 1.579 2.855 1 4 1l4.5-4c2.663-1.332 17.5-8.651 17.5-12v-2l-7.5-4c-2.982-1.491-5.903 0-8.5 0 0 5.378-10 12.366-10 21ZM256 149h1l4-1c0-2.932-9.084-21-11-21-1.845 0-15 .742-15 4v3c0 3.56 20 11.417 20 14l1 1Z"/><path fill="#97D6F9" id="STR" d="M222 133c2.99 0 7.613-2.444 10.5-1l2.5 2v-3h-5.5l-1-2c-1.382 0-4.058 2-6.5 2v2Z"/><path fill="#C9C9CA" id="scwm" d="M111 135v2c1.811 0 4-3.438 4-5l-4 3Z"/><path fill="#90CAED" id="LSr" d="m236 194 1 1 8-8.5c2.965-2.965 12.342-13.5 16.5-13.5l2.5 2 1-2c0-6.165-2-11.135-2-17-1.523 0-6-5.842-6-7h-1l-1-1c0-2.583-20-10.44-20-14l-2.5-2c-2.887-1.444-7.51 1-10.5 1 0 3.349-14.837 10.668-17.5 12l-4.5 4-7 8c0 4.902-2 9.595-2 14l2 4c0-4.433 9.591 3.091 11 4.5l12.5 12.5 3.5 5v-3c0-1.048-.473-3 1-3 0-8.729 3-16.472 3-25l1-1v-6l1-1v-1c0-14.463 5-8.485 5 1 0 12.093 5 23.736 5 36Z"/><path fill="#1A7E62" id="SSs1" d="m54 176-4 1c-1.075 0-2-9.512-2-11l1-19.5c1.828-3.656 5-9.276 5-13.5l5 2v1c-2.357 0-1.264 6.029-2 7.5-5.181 10.363-3 20.98-3 32.5ZM402 176l5 1c0-12.394 3.841-22.818-2-34.5-.719-1.437-1.342-9.5-3-9.5l-4 2c0 5.472 2.622 13.743 5 18.5 2.744 5.488-1 17.217-1 22.5Z"/><path fill="#188064" id="SSp-m6b" d="M102 154h1v-2l1-1c0-1.048-.473-3 1-3 0-1.465-.109-4 2-4l1-2 1-1v-1l1-1 1-2v-2c-2.309 0-10 15.558-10 18l1 1Z"/><path fill="#1B8063" id="SSs2/3" d="m392 174 10 2c0-5.283 3.744-17.012 1-22.5-2.378-4.757-5-13.028-5-18.5h-1c0 1.444-7.394 4-9 4v1c0 3.625 1.418 9.336 3 12.5 2.347 4.693 1 16.708 1 21.5ZM54 176h1l7-1h1l1-1c0-8.084-.373-17.753 3-24.5.81-1.621-.391-9.5 2-9.5v-1c-4.09 0-6.21-3-10-3-2.357 0-1.264 6.029-2 7.5-5.181 10.363-3 20.98-3 32.5Z"/><path fill="#C9C9CA" id="scwm" d="m111 137-1 2 1-2ZM110 139l-1 1 1-1Z"/><path fill="#187C63" id="SSs4" d="M64 174h2l3-1c0-11.042 4-21.522 4-30 0-1.748-2.283-3-4-3-2.391 0-1.19 7.879-2 9.5-3.373 6.747-3 16.416-3 24.5ZM388 174h4c0-4.792 1.347-16.807-1-21.5-1.582-3.164-3-8.875-3-12.5l-5 2c0 9.814 5 20.573 5 31v1Z"/><path fill="#C9C9CA" id="scwm" d="m109 141-1 1 1-1ZM108 142l-1 2 1-2Z"/><path fill="#1C8063" id="SSs5" d="M374 171c4.378 0 8.986 2 14 2 0-10.427-5-21.186-5-31-4.357 0-7.482 5-12 5 0 7.571 3 15.429 3 24ZM82 171c-4.08 0-8.364 2-13 2 0-11.042 4-21.522 4-30h1c4.35 0 6.918 4 11 4 0 7.925-3 15.587-3 24Z"/><path fill="#C9C9CA" id="scwm" d="M107 144c-2.109 0-2 2.535-2 4l2-4Z"/><path fill="#197D63" id="SSs6a" d="M97 169c-5.078 0-9.472 2-15 2 0-8.413 3-16.075 3-24l16 6c0 5.189-4 10.107-4 16Z"/><path fill="#97D6F9" id="STR" d="m226 157 2.5-2 2.5 3c0-9.485-5-15.463-5-1Z"/><path fill="#197D63" id="SSs6a" d="M360 169c4.378 0 8.986 2 14 2 0-8.571-3-16.429-3-24l-15 6c0 5.355 3 10.063 3 16h1Z"/><path fill="#C9C9CA" id="scwm" d="M105 148c-1.473 0-1 1.952-1 3 1.473 0 1-1.952 1-3Z"/><path fill="#97D6F9" id="STR" d="M193 155v2l7-8c-1.145 0-4 .579-4-1-2.496 0 .496 5-2 5v1l-1 1ZM255 148l1 1-1-1ZM263 154v2c-1.523 0-6-5.842-6-7l4-1c0 1.357.647 6 2 6Z"/><path fill="#C9C9CA" id="scwm" d="m104 151-1 1 1-1Z"/><path fill="#1A8061" id="SSs6b" d="M98 169h1v-4l1-4 1-2v-1l1-2v-2l-1-1c0 5.189-4 10.107-4 16h1Z"/><path fill="#C9C9CA" id="scwm" d="m353 153 1 1-1-1Z"/><path fill="#1A8061" id="SSs6b" d="M358 169h1c0-5.937-3-10.645-3-16h-1l-1 1v1l1 2v1l1 2v1l1 1v5l1 2Z"/><path fill="#C9C9CA" id="scwm" d="m103 154-1 1v-1h1Z"/><path fill="#A8AAAA" id="VL" d="m194 154-1 1 1-1Z"/><path fill="#96A7D3" id="MS" d="M227 238c0-3.55 3-2.932 3 0l2-1 1-1 2-6c0-6.649 2-13.578 2-21v-5l-1-1v-9c0-12.264-5-23.907-5-36l-2.5-3-2.5 2v1l-1 1v6l-1 1c0 8.528-3 16.271-3 25 0 1.048.473 3-1 3v12c0 7.781 1 15.793 1 23l2 6v1l4 2Z"/><path fill="#C9C9CA" id="scwm" d="m354 155 1 2-1-2ZM102 156l-1 2 1-2Z"/><path fill="#97D6F9" id="STR" d="m226 158-1 1 1-1Z"/><path fill="#C9C9CA" id="scwm" d="m355 158 1 2-1-2ZM100 161h1v-2l-1 2Z"/><path fill="#C9C7C9" id="ccb" d="M99 165h1c1.579 0 1-2.855 1-4h-1l-1 4Z"/><path fill="#C9C9CA" id="scwm" d="m356 161 1 1-1-1Z"/><path fill="#C8CBCC" id="ec" d="m100 165-1 2v-2h1Z"/><path fill="#97D6F9" id="STR" d="m225 165-1 1 1-1Z"/><path fill="#C8CBCC" id="ec" d="m355 199-2 3c0-6.693 2.15-15.801 5-21.5l-1-13.5 1 2c0 4.734 1 10.644 1 16-.913 0-2 5.014-2 6v2l-1 2c-1.473 0-1 1.952-1 3v1Z"/><path fill="#009B74" id="GU6a" d="M97 186c-7.256 0-6.28 4-14 4l-1-19c5.528 0 9.922-2 15-2v17Z"/><path fill="#019C74" id="GU6b" d="M97 185h1v-16h-1v16Z"/><path fill="#C8CBCC" id="ec" d="m105 209 1 1c0-7.226-3.824-19.147-7-25.5V169h-1v16l1 5c0 4.271 4 8.321 4 13v4l2 2Z"/><path fill="#019C74" id="GU6b" d="M359 185h1v-16h-2c0 4.734 1 10.644 1 16Z"/><path fill="#009B74" id="GU6a" d="m360 185 4.5 3c2.214 0 4.054 2 8.5 2 0-5.826 1-12.583 1-19-5.014 0-9.622-2-14-2v16Z"/><path fill="#019C75" id="GU5" d="M81 193c-2.725 0-6.552 1-10 1-1.186 0-2-4.29-2-5.5V173c4.636 0 8.92-2 13-2l1 19v1c-1.747 0-2 .253-2 2Z"/><path fill="#A8AAAA" id="VL" d="M191 191c0 3.162-.109 2 2 2v-18l-2-4v20Z"/><path fill="#019C75" id="GU5" d="M385 195h1c0-6.421 2-13.625 2-21v-1c-5.014 0-9.622-2-14-2 0 6.417-1 13.174-1 19l2 2c1.521 0 10 1.214 10 3Z"/><path fill="#009C74" id="GU4" d="M69 195h2v-1c-1.186 0-2-4.29-2-5.5V173l-3 1-2 1c0 6.909 5 13.798 5 20Z"/><path fill="#8FCBED" id="LSv" d="M203 202c4.121 0 8.85 7.175 12.5 9 2.728 1.364 3.277-5 4.5-5v-9l-3.5-5-12.5-12.5c-1.409-1.409-11-8.933-11-4.5v18l2 3 5 3 1 1 2 2ZM237 204v5l3.5 2c3.561-1.78 7.362-8 11.5-8l1-1 1-1 6-4 1-1 2-4c0-4.919 1-11.413 1-17l-2.5-2c-4.158 0-13.535 10.535-16.5 13.5l-8 8.5c0 1.145.579 4-1 4v4l1 1Z"/><path fill="#A8AAAA" id="VL" d="M263 192c.716 0 3 2.373 3 0 0-5.826-1-12.583-1-19l-1 2c0 5.587-1 12.081-1 17Z"/><path fill="#12AC83" id="VISC2/3" d="M63 175h1v-1l-1 1Z"/><path fill="#11AC82" id="VISC4" d="m66 174-2 1v-1h2Z"/><path fill="#009C74" id="GU4" d="M386 195h2c0-6.581 4-12.801 4-20v-1h-4c0 7.375-2 14.579-2 21Z"/><path fill="#12AC83" id="VISC2/3" d="M401 178h1v-2l-10-2v1l9 3ZM55 176v2c1.147 0 7-1.733 7-3l-7 1Z"/><path fill="#009B75" id="GU2/3" d="m69 195-8 2c-2.334 0-1.34-4.181-2-5.5-1.811-3.622-4-8.231-4-12.5v-1c1.147 0 7-1.733 7-3h2c0 6.909 5 13.798 5 20ZM388 195l8 2c0-6.323 5-11.975 5-19l-9-3c0 7.199-4 13.419-4 20Z"/><path fill="#12AD83" id="VISC1" d="m55 179-4 1c-1.473 0-1-1.952-1-3l4-1h1v3ZM402 178l4 2 1-3-5-1v2Z"/><path fill="#009C75" id="GU1" d="M396 198h4l6-18-4-2h-1c0 7.025-5 12.677-5 19v1ZM57 198h4v-1c-2.334 0-1.34-4.181-2-5.5-1.811-3.622-4-8.231-4-12.5l-4 1c0 4.442 2.143 8.786 4 12.5.557 1.114.41 5.5 2 5.5Z"/><path fill="#1F9766" id="AId6b" d="M97 186c0 1.465-.109 4 2 4l-1-5h-1v1ZM357 191h1l1-1v-5c-.913 0-2 5.014-2 6Z"/><path fill="#209666" id="AId6a" d="m368 205-1 1-4-1c0-4.512 5.084-15-4-15v-5h1l4.5 3c2.214 0 4.054 2 8.5 2 0 5.469-5 10.032-5 15ZM89 205h4c0-4.648-2.242-9.017 0-13.5 4.29-8.58 9 9.283 9 11.5h1c0-4.679-4-8.729-4-13-2.109 0-2-2.535-2-4-7.256 0-6.28 4-14 4v1l5 14h1Z"/><path fill="#8ADA86" id="CLA" d="M98 209h1l1-1h1v-1l1-4c0-2.217-4.71-20.08-9-11.5-2.242 4.483 0 8.852 0 13.5 1.302 0 2.641 4 5 4ZM358 209h1l4-4c0-4.512 5.084-15-4-15l-1 1-1 1v1l-1 2c0 1.048.473 3-1 3v5c0 3.067 3 4.726 3 6Z"/><path fill="#209665" id="AId5" d="m368 205 3 1 4-14-2-2c0 5.469-5 10.032-5 15ZM88 205l-2 1-5-13c0-1.747.253-2 2-2l5 14Z"/><path fill="#97D6F9" id="STR" d="M189 196h6l-2-3c-2.109 0-2 1.162-2-2-1.014 0-2 3.959-2 5ZM221 191c-1.473 0-1 1.952-1 3 1.473 0 1-1.952 1-3Z"/><path fill="#209666" id="AId6a" d="m358 191-1 1v-1h1Z"/><path fill="#219864" id="AIp5" d="m88 214-6 1c0-5.112-11-13.044-11-20v-1c3.448 0 7.275-1 10-1l5 13 2 7v1Z"/><path fill="#97D6F9" id="STR" d="M261 196h7l-2-4c0 2.373-2.284 0-3 0l-2 4Z"/><path fill="#219864" id="AIp5" d="m368 214 6 1c0-4.912 11-12.286 11-20 0-1.786-8.479-3-10-3l-4 14c0 .978-2.267 7-3 7v1Z"/><path fill="#209666" id="AId6a" d="m357 193-1 2 1-2Z"/><path fill="#97D6F9" id="STR" d="M237 195c0 1.145.579 4-1 4v-5l1 1Z"/><path fill="#209865" id="AIp2/3" d="M82 215c0 .885-9.683 4-11 4l-10-21v-1l8-2h2c0 6.956 11 14.888 11 20Z"/><path fill="#209666" id="AId6a" d="M356 195c-1.473 0-1 1.952-1 3 1.473 0 1-1.952 1-3Z"/><path fill="#209865" id="AIp2/3" d="m374 215 11 4 11-21v-1l-8-2h-3c0 7.714-11 15.088-11 20Z"/><path fill="#97D6F9" id="STR" d="m189 196-1 1 1-1Z"/><path fill="#B3C0DE" id="BST" d="m201 228-6.5 3c-3.777 1.889-7.892-2-10.5-2v-8c1.791 0 2.959 3.27 5.5 2 6.158-3.079 10.323-11.338 3-15-1.956-.978-4.077 1-5.5 1v-11l1-1 1-1h6l5 3 1 1 2 2c0 2.706 4 7.468 4 12l-1 6c-1.317 0-5 6.892-5 8Z"/><path fill="#97D6F9" id="STR" d="m261 196-1 1 1-1Z"/><path fill="#B3C0DE" id="BST" d="m255 228 6.5 3c3.028 1.514 7.882-1 10.5-1 0-2.707 1-5.903 1-8h-1l-4.5 1c-4.632-2.316-12.61-10.695-4-15l6.5 1c0-3.325-1-7.31-1-10l-1-3h-7l-1 1-6 4-1 1-1 1-2 9v8c1.562 0 5 6.653 5 8Z"/><path fill="#97D6F9" id="STR" d="m188 197-1 1 1-1Z"/><path fill="#219765" id="AIp1" d="m71 219-4 2c-1.834 0-10-20.029-10-23h4l10 21ZM385 219l5 2 3-5.5c2.109-4.218 7-12.862 7-17.5h-4l-11 21Z"/><path fill="#97D6F9" id="STR" d="M184 221v1l-2.5-3-4.5 1c0-3.341 7.9-21 10-21v10c-5.087 0-3 9.765-3 12ZM200 199l1 1-1-1ZM279 219c-2.518 0-4.286 2-6 2 0-4.937-3-11.436-3-12 0-3.325-1-7.31-1-10 2.948 0 10 16.728 10 20Z"/><path fill="#209666" id="AId6a" d="M353 203h2v-4l-2 3v1Z"/><path fill="#97D6F9" id="STR" d="m254 201-1 1 1-1ZM214 221l7 8c0-7.207-1-15.219-1-23-1.223 0-1.772 6.364-4.5 5-3.65-1.825-8.379-9-12.5-9 0 2.706 4 7.468 4 12l3 2c0-2.18 3.414-.671 4 .5 1.184 2.369 0 2.434 0 4.5Z"/><path fill="#C8CBCC" id="ec" d="M351 209h1l1-2v-5c-1.663 0-2 5.407-2 7Z"/><path fill="#1F9866" id="AIv6a" d="M101 207h2v-4h-1l-1 4Z"/><path fill="#97D6F9" id="STR" d="m236 203 1 1-1-1ZM242 221l-7 9c0-6.649 2-13.578 2-21l3.5 2c3.561-1.78 7.362-8 11.5-8l-2 9-4 4c0-1.244-2.479-1.541-3-.5l-1 5.5Z"/><path fill="#1F9866" id="AIv6a" d="m355 208 3 1c0-1.274-3-2.933-3-6h-2v4l2 1Z"/><path fill="#1F9865" id="AIv5" d="M91 212c0 1.473-1.952 1-3 1l-2-7 2-1h1l2 7Z"/><path fill="#1F9866" id="AIv6a" d="m96 211-5 1-2-7h4c1.302 0 2.641 4 5 4l-2 2ZM359 209c0 1.89 4.598 3 6 3 0-1.974 2-3.517 2-6l-4-1-4 4ZM368 205l-1 1 1-1Z"/><path fill="#1F9865" id="AIv5" d="M365 212c0 1.473 1.952 1 3 1 .733 0 3-6.022 3-7l-3-1-1 1c0 2.483-2 4.026-2 6Z"/><path fill="#8AD987" id="CTXsp" d="m101 208 4 1-2-2h-2v1ZM355 208l-3 1 1-2 2 1Z"/><path fill="#1F9866" id="AIv6a" d="M99 209h1v-1l-1 1Z"/><path fill="#8AD987" id="CTXsp" d="m101 208-1 1v-1h1Z"/><path fill="#A0EE9C" id="EPd" d="M115 227c0 1.577-1.762 2-3 2-3.638 0-5.929-2-9-2h-1l-2-2-3-3-2-3.5 1-7.5 2-2h2l1-1 4 1 1 1 4 9 1 1 2 3 2 4Z"/><path fill="#CBCBC7" id="aco" d="M187 209c1.423 0 3.544-1.978 5.5-1 7.323 3.662 3.158 11.921-3 15-2.541 1.27-3.709-2-5.5-2 0-2.235-2.087-12 3-12ZM273 221l-1 1-4.5 1c-4.632-2.316-12.61-10.695-4-15l6.5 1c0 .564 3 7.063 3 12Z"/><path fill="#A0EE9C" id="EPd" d="M344 229h5l2-1h1l1-1h1l1-1 1-1h1l1-1 1-1c0-1.238.423-3 2-3v-7.5l-3-3.5-3-1-3 1h-1l-1 2-5 10-1 1-1 1-1 3c0 1.238.423 3 2 3Z"/><path fill="#C8CBCC" id="ec" d="m351 209-1 2 1-2Z"/><path fill="#99D2BD" id="OLF" d="m368 214-3.5 2-3.5 4v-7.5l-3-3.5h1c0 1.89 4.598 3 6 3 0 1.473 1.952 1 3 1v1ZM88 214c4.052 0 6.166 8 9 8l-2-3.5 1-7.5-5 1c0 1.473-1.952 1-3 1v1Z"/><path fill="#E64438" id="HY" d="M255 243c-3.115 0-4 .885-4 4-1.578 0-4.326-8.913-6.5-10-14.185-7.092-5.512-1-11.5-1l2-6 7-9c1.533 0 4-3.753 4-5l4-4v8c0 3.662-3.582 14 4 14l1 9Z"/><path fill="#6ACAB9" id="PIR" d="m117 265 3 1c0-1.726 4.558-5 6-5l2-3.5c3.013-6.026-.489-11.978-3-17-2.466-4.932-22-12.121-22-13.5h-1l-2-2-3-3c-2.834 0-4.948-8-9-8l-6 1c0 .885-9.683 4-11 4l-4 2c0 7.528 16.098 27.299 21.5 30 1.436.718 4.07 6 6.5 6 3.736 0 22 3.44 22 8Z"/><path fill="#E64438" id="HY" d="M201 244c3.578 0 3.993 2 5 2 0-4.962 8.693-11.097 12.5-13 2.116-1.058 2.898 2 4.5 2l-2-6-7-8c-1.916 0-2.703-5-4-5l-3-2-1 6c0 1.484 5.105 14-3 14l-2 10Z"/><path fill="#6ACAB9" id="PIR" d="M336 265h3c0-4.478 19.195-8 23-8l8.5-8c5.176-5.176 19.5-20.886 19.5-28l-5-2-11-4-6-1-3.5 2-3.5 4c0 1.238-.423 3-2 3l-1 1-1 1h-1l-1 1-1 1h-1l-1 1h-1l-2 1-5.5 3c-3.78 1.89-10.231 4.963-12.5 9.5-1.627 3.255-5.237 10.526-3 15l2 4.5 6 4Z"/><path fill="#FF5547" id="ADP" d="M210 216c1.297 0 2.084 5 4 5 0-2.066 1.184-2.131 0-4.5-.586-1.171-4-2.68-4-.5ZM246 216c0 1.247-2.467 5-4 5l1-5.5c.521-1.041 3-.744 3 .5Z"/><path fill="#C8CBCC" id="ec" d="m110 219 1 1-1-1Z"/><path fill="#80CDF8" id="ACB" d="m135 256 1 1 7.5 4c5.672 2.836 14.887-1.944 19-4 3.501-1.751 15.761-16 19.5-16l1-1v-1c0-2.69 1-6.675 1-10v-7l-2.5-3-4.5 1c0 2.637-3.245 3.99-4 5.5-5.819 11.639-27.361 9.5-41 9.5l-4 4 2 3.5 5 13.5ZM328 239c0 5.809-7 11.886-7 18l-8.5 4c-10.653 5.326-24.609-8.609-31-15-1.704-1.704-8.5-3.897-8.5-7 0-2.723-1-5.778-1-9 0-2.707 1-5.903 1-8v-1c1.714 0 3.482-2 6-2v1l1 1 3.5 5c10.713 10.713 25.472 9 40.5 9 0 1.648 4 .756 4 4Z"/><path fill="#FD5446" id="PS" d="m201 230 2 4c8.105 0 3-12.516 3-14-1.317 0-5 6.892-5 8v2ZM256 230c-2.109 0-2 2.535-2 4-7.582 0-4-10.338-4-14 1.562 0 5 6.653 5 8l1 2Z"/><path fill="#97D6F9" id="STR" d="m279 220 1 1-1-1Z"/><path fill="#99D2BD" id="OLF" d="M361 220c-1.577 0-2 1.762-2 3 1.577 0 2-1.762 2-3Z"/><path fill="#97D6F9" id="STR" d="M272 222h1v-1l-1 1Z"/><path fill="#C8CBCC" id="ec" d="m345 221-1 1 1-1ZM344 222l-1 1 1-1ZM115 227l4 2-6-6 2 4ZM341 226h1l1-3c-1.577 0-2 1.762-2 3Z"/><path fill="#99D2BD" id="OLF" d="m359 223-1 1 1-1ZM358 224l-1 1 1-1ZM100 225l2 2-2-2ZM356 225l-1 1 1-1Z"/><path fill="#C8CBCC" id="ec" d="m341 226-1 1 1-1Z"/><path fill="#8AD987" id="CTXsp" d="M334 231v3c2.295 0 10-2.09 10-5-1.577 0-2-1.762-2-3h-1l-1 1c0 1.577-1.762 2-3 2l-3 2Z"/><path fill="#99D2BD" id="OLF" d="m355 226-1 1 1-1ZM126 261h2l7-4v-1l-5-13.5-2-3.5-5-5c-2.459 0-11-1.969-11-5-3.638 0-5.929-2-9-2 0 1.379 19.534 8.568 22 13.5 2.511 5.022 6.013 10.974 3 17l-2 3.5Z"/><path fill="#8AD987" id="CTXsp" d="m122 231 1 3c-2.459 0-11-1.969-11-5 1.238 0 3-.423 3-2l4 2c2.215 0 1.519 2 3 2Z"/><path fill="#C8CBCC" id="ec" d="M340 227c-1.238 0-3 .423-3 2 1.238 0 3-.423 3-2Z"/><path fill="#99D2BD" id="OLF" d="m353 227-1 1 1-1Z"/><path fill="#E64438" id="HY" d="M201 230c-5.91 0-10.858 9-18 9 0-2.69 1-6.675 1-10 2.608 0 6.723 3.889 10.5 2l6.5-3v2ZM272 230c0 3.222 1 6.277 1 9-6.475 0-11.183-9-17-9l-1-2 6.5 3c3.028 1.514 7.882-1 10.5-1Z"/><path fill="#99D2BD" id="OLF" d="m351 228-2 1 2-1ZM329 261h1l-2-4.5c-2.237-4.474 1.373-11.745 3-15 2.269-4.537 8.72-7.61 12.5-9.5l5.5-3h-5c0 2.91-7.705 5-10 5l-6 5c0 5.809-7 11.886-7 18l8 4Z"/><path fill="#A2B1D7" id="SI" d="M185 266c-10.56 0-3 9.738-3 10-16.565 0-32.767 6.733-46-6.5-2.298-2.298-8-4.564-8-8.5l7-4h1l7.5 4c5.672 2.836 14.887-1.944 19-4 3.501-1.751 15.761-16 19.5-16l1-1v-1c7.142 0 12.09-9 18-9l2 4-2 10c0 6.48-14 17.978-14 21l-2 1ZM272 266c7.883 0 3 7.668 3 10 6.86 0 25.14 5.18 31.5 2 4.17-2.085 7.762-4.881 12-7l10.5-10-8-4-8.5 4c-10.653 5.326-24.609-8.609-31-15-1.704-1.704-8.5-3.897-8.5-7-6.475 0-11.183-9-17-9-2.109 0-2 2.535-2 4l1 9c0 7.487 15 19.979 15 22l2 1Z"/><path fill="#97D6F9" id="STR" d="m132 235-4 4-5-5-1-3c3.396 0 6.052 4 10 4ZM324 235c0 1.648 4 .756 4 4l6-5v-3c-3.234 0-5.921 4-10 4Z"/><path fill="#FF5346" id="MPO" d="M214 264c-1.974 0-3.517 2-6 2 0-5.173-.827-6-6-6v-1c0-3.993 4-8.1 4-13 0-4.962 8.693-11.097 12.5-13 2.116-1.058 2.898 2 4.5 2v1c0 2.232 3 4.029 3 7l-5 4.5-3 6.5c0-7.502-8.906-2.688-11 1.5-.839 1.679 1.457 6.522 3.5 5.5l6.5-4-3 7ZM249 260h5v-1c0-4.049-3-7.132-3-12-1.578 0-4.326-8.913-6.5-10-14.185-7.092-5.512-1-11.5-1l-1 1-2 6c3.061 0 6.391 10 8 10l1.5-3c6.056-3.028 9.5 5.758 9.5 10Z"/><path fill="#E64438" id="HY" d="M227 247h2v-3c-2.698 0-2-4.255-2-6l-4-2c0 2.232 3 4.029 3 7 1.579 0 1 2.855 1 4ZM233 236l-1 1 1-1ZM230 243l-1 1c0-2.124 1-4.436 1-6l2-1-2 6ZM183 240l-1 1 1-1Z"/><path fill="#F2473B" id="LPO" d="M187 265v2c4.694 0 8.738-6 14-6l1-2c0-3.993 4-8.1 4-13-1.007 0-1.422-2-5-2 0 6.48-14 17.978-14 21Z"/><path fill="#FE5446" id="AVPV" d="m225 270-11 2v-8l3-7v-1l1-1v-1l3-6.5 5-4.5c1.579 0 1 2.855 1 4l-2 4.5 1 5.5-1 13ZM231 270c3.981 0 7.629 2 12 2v-7l-4-8v-2l-1-1v-1c-1.609 0-4.939-10-8-10l-1 1v3c3.96 0 1 8.574 1 10 0 3.823 1 8.586 1 13Z"/><path fill="#F2473B" id="LPO" d="m270 265-1 2-14-7-1-1c0-4.049-3-7.132-3-12 0-3.115.885-4 4-4 0 7.487 15 19.979 15 22Z"/><path fill="#FF5445" id="MEPO" d="M226 257h4c0-1.426 2.96-10-1-10h-2l-2 4.5 1 5.5Z"/><path fill="#FE5447" id="AVP" d="M217 256v1l-6.5 4c-2.043 1.022-4.339-3.821-3.5-5.5 2.094-4.188 11-9.002 11-1.5v1l-1 1ZM239 257c1.475 0 4.479 3 10 3 0-4.242-3.444-13.028-9.5-10l-1.5 3v1l1 1v2Z"/><path fill="#FF5346" id="MPO" d="m238 254 1 1-1-1ZM218 255l-1 1 1-1Z"/><path fill="#97D6F9" id="STR" d="M135 257h1l-1-1v1Z"/><path fill="#FD5447" id="OV" d="M225 270h6c0-4.414-1-9.177-1-13h-4l-1 13Z"/><path fill="#CAC8C7" id="lot" d="m118 269-1 3c-1.64 0-22-12.593-22-15 3.736 0 22 3.44 22 8l1 4Z"/><path fill="#FF5346" id="MPO" d="m243 265 5 1c0-2.124 1-4.436 1-6-5.521 0-8.525-3-10-3l4 8Z"/><path fill="#CAC8C7" id="lot" d="M339 272h1c1.34 0 22-13.52 22-15-3.805 0-23 3.522-23 8l-1 3v2l1 2Z"/><path fill="#CBCCCB" id="mfb" d="m202 260-1 1 1-2v1ZM254 260h1l-1-1v1Z"/><path fill="#96A6D3" id="NDB" d="m201 276-1 1-6.5 1-7.5-4 1-7c4.694 0 8.738-6 14-6l1-1c5.173 0 6 .827 6 6 0 3.351-3 5.596-3 8l-1 1-3 1ZM256 277h1c3.126 0 6.173 1.664 9.5 0l4.5-3v-4l-2-3-14-7h-6c0 1.564-1 3.876-1 6 0 2.748 3 5.804 3 8h1l1 1h1l2 2Z"/><path fill="#7FCCF7" id="OT" d="M183 276c0 .902 9 1.436 9 7 0 11.823-13.806 9.653-20.5 13-13.439 6.719-36.963 4.573-44.5-10.5-1.372-2.745-8-6.389-8-10.5v-6l1-3c0-1.726 4.558-5 6-5h2c0 3.936 5.702 6.202 8 8.5 13.233 13.233 29.435 6.5 46 6.5h1ZM273 276h2c6.86 0 25.14 5.18 31.5 2 4.17-2.085 7.762-4.881 12-7l10.5-10h1l6 4 2 3v2l-1 5c0 4.822-5.475 8.975-9 12.5-11.853 11.853-28.215 16.143-43.5 8.5-6.354-3.177-19.5-1.173-19.5-12 0-.653-1.087-4.206.5-5 1.069-.534 7.5-2.17 7.5-3Z"/><path fill="#E64438" id="HY" d="m214 272-9 2c0-2.404 3-4.649 3-8 2.483 0 4.026-2 6-2v8Z"/><path fill="#99D2BD" id="OLF" d="M118 269h1l1-3-3-1 1 4Z"/><path fill="#E64438" id="HY" d="m186 274-1 1v-9l2-1v2l-1 7ZM243 272l8 2c0-2.196-3-5.252-3-8l-5-1v7ZM269 267l2 3c0-1.145-.579-4 1-4l-2-1-1 2Z"/><path fill="#99D2BD" id="OLF" d="m339 265-1 3-2-3h3Z"/><path fill="#A2B1D8" id="MA" d="M182 276h1l1-1h1v-9c-10.56 0-3 9.738-3 10ZM273 276h2c0-2.332 4.883-10-3-10-1.579 0-1 2.855-1 4v4l1 1 1 1Z"/><path fill="#97D6F9" id="STR" d="m117 272 2 3v-6h-1l-1 3ZM339 273l-2 2 1-5 1 2v1Z"/><path fill="#99D2BD" id="OLF" d="m340 272-1 1v-1h1Z"/><path fill="#8599CC" id="PAL" d="M200 277c0 2.196-6.304 6-8 6 0-5.564-9-6.098-9-7l1-1h1l1-1 7.5 4 6.5-1Z"/><path fill="#E64438" id="HY" d="m205 274-1 1 1-1Z"/><path fill="#CBCCC7" id="IIn" d="m219 280-2.5 3-5.5 3c-11.05 0 6.62-17.26 10-10.5l-2 4.5ZM237 279l4 4.5 4 2.5c13.919 0-10-18.094-10-9.5l2 2.5Z"/><path fill="#E64438" id="HY" d="m252 274 1 1-1-1Z"/><path fill="#8599CC" id="PAL" d="M257 277c0 1.897 5.51 7 8 7 0-.653-1.087-4.206.5-5 1.069-.534 7.5-2.17 7.5-3l-1-1-1-1-4.5 3c-3.327 1.664-6.374 0-9.5 0Z"/><path fill="#E64438" id="HY" d="m271 274 1 1-1-1ZM184 275l-1 1 1-1Z"/><path fill="#8599CC" id="PAL" d="m254 275 2 2-2-2ZM201 276l-1 1 1-1Z"/><path fill="#CAC7CB" id="fiber tracts" d="m237 279 4 4.5 4 2.5c-4.556 0-8-.769-8-7ZM219 280l-2.5 3-5.5 3c4.46 0 8 .006 8-6Z"/></svg>