<svg xmlns="http://www.w3.org/2000/svg" viewBox="0 0 456 320"><path fill="#1E9C59" id="MOs1" d="M136 140c-2.9 0-2.7 3-6 3 0-7.241-6.355-17.79-2-26.5 7.64-15.28 19.366-25.933 34.5-33.5 4.2-2.1 12.602-2.301 16-4 2.522-1.261 10.873-3.564 14-2 1.792.896 14.098 5 15.5 5l-4 6c-5.2 0-14.049-5.726-19.5-3-5.889 2.945-14.113 1.057-20 4-13.797 6.898-22.747 14.994-29.5 28.5-3.263 6.525 1 15.308 1 21.5v1ZM320 140l6 3c2.864 0 2.001-10.503 3-12.5 4.129-8.257-7.004-31.252-15.5-35.5-7.868-3.934-15.589-9.794-24-14-3.366-1.683-8.659-.33-12-2-2.627-1.313-10.637-3.682-14-2-2.059 1.03-13.715 5-15.5 5l4 6c5.439 0 14.883-5.809 20.5-3 5.636 2.818 13.344 1.172 19 4 7.026 3.513 11.817 8.409 19 12 7.505 3.753 11.5 18.114 11.5 26.5 0 2.006-.229 11.5-2 11.5v1Z"/><path fill="#2FA750" id="PL1" d="M221 115h14c0-8.807 5.803-26 17-26v-1l-4-6c-5.734 0-14.787 15.074-17 19.5l-2.5 7.5c-1.413 0-2.974-7.448-3.5-8.5-2.498-4.996-10.068-18.5-17-18.5l-4 6v1c11.655 0 17 16.003 17 26Z"/><path fill="#1E9D58" id="MOs2/3" d="m157 138-12.5-2c-1.849.924-6.592 3-8.5 3 0-6.192-4.263-14.975-1-21.5 6.753-13.506 15.703-21.602 29.5-28.5 5.887-2.943 14.111-1.055 20-4 5.451-2.726 14.3 3 19.5 3v1c-1.098 0-5 4.251-5 6h-1c-7.742 0-33 2.189-33 12-1.747 0-2 .253-2 2l-1 1-1 1v1l-1 1-1 1-1 9c0 1.408 1.197 5 3 5v1c0 .755-3.711 9-4 9ZM299 139c3.465 0 9.584-4.958 13.5-3l7.5 3c1.771 0 2-9.494 2-11.5 0-8.386-3.995-22.747-11.5-26.5-7.183-3.591-11.974-8.487-19-12-5.656-2.828-13.364-1.182-19-4-5.617-2.809-15.061 3-20.5 3v1c1.804 0 5 4.418 5 6h1c15.686 0 17.588 2.044 29.5 8l7.5 7v1l1 1v1l1 1v1l1 1v5c1.399 0 1.399 2 0 2v1l-2 5 3 10Z"/><path fill="#2FA74F" id="PL2/3" d="m215 114 6 1c0-9.997-5.345-26-17-26-1.098 0-5 4.251-5 6 8.541 0 16 9.929 16 18v1ZM242 114l-7 1c0-8.807 5.803-26 17-26 1.804 0 5 4.418 5 6 0 .478-8.364 3.432-9.5 4-3.754 1.877-5.5 9.405-5.5 14v1Z"/><path fill="#1F9D58" id="MOs5" d="M195 100c-6.06 0-11.607-1.946-17.5 1-2.867 1.434-9.467 6-12.5 6 0-9.811 25.258-12 33-12 0 2.364-3 3.053-3 5Z"/><path fill="#2EA84F" id="PL5" d="M208 111c2.16 0 4.167 2 7 2 0-8.071-7.459-18-16-18h-1c0 2.364-3 3.053-3 5 5.593 0 10.934 11 13 11ZM249 111l-7 2c0-4.595 1.746-12.123 5.5-14 1.136-.568 9.5-3.522 9.5-4h1c0 1.947 3 2.636 3 5-3.133 0-12 7.597-12 11Z"/><path fill="#1F9D58" id="MOs5" d="M261 100c8.409 0 15.392-1.054 23.5 3l10.5 7-7.5-7c-11.912-5.956-13.814-8-29.5-8 0 1.947 3 2.636 3 5Z"/><path fill="#258F45" id="FRP5" d="M158 123c.966 0 3 2.886 3 4 8.29 0 17.44-13 27-13 6.352 0 11.76 3 17 3l3.5 2c1.547 0-.5-7.288-.5-8-2.066 0-7.407-11-13-11-6.06 0-11.607-1.946-17.5 1-2.867 1.434-9.467 6-12.5 6l-2 2-1 1-1 1v1l-1 1-1 1-1 9ZM298 124l-3 3c-7.503 0-17.52-13-27-13-6.286 0-11.715 3-17 3l-3.5 2c-2.073 0 1.5-7.602 1.5-8 0-3.403 8.867-11 12-11 8.409 0 15.392-1.054 23.5 3l10.5 7v1l1 1v1l1 1v1l1 1v8Z"/><path fill="#1F9D58" id="MOs5" d="M165 107c-1.747 0-2 .253-2 2l2-2ZM163 109l-1 1 1-1ZM162 110l-1 1 1-1Z"/><path fill="#23885E" id="ORBm5" d="M207 123h1c3.845 0 7-5.622 7-9v-1c-2.833 0-4.84-2-7-2 0 .712 2.047 8 .5 8l-3.5-2c0 1.974 2 3.517 2 6ZM248 123h1l2-6-3.5 2c-2.073 0 1.5-7.602 1.5-8l-7 2v1c0 3.293 1.83 9 6 9Z"/><path fill="#1F9D58" id="MOs5" d="m295 111 1 1-1-1ZM161 112l-1 1 1-1ZM160 113l-1 1 1-1ZM296 113l1 1-1-1Z"/><path fill="#228A5D" id="ORBl5" d="M161 128v1l13.5-6c3.634-1.817 8.18 0 11.5 0l2-9c-9.56 0-18.71 13-27 13v1Z"/><path fill="#23885C" id="ORBvl5" d="M186 123h21c0-2.483-2-4.026-2-6-5.24 0-10.648-3-17-3l-2 9Z"/><path fill="#24885D" id="ORBm2/3" d="M214 138h1c8.09 0 6-17.361 6-23l-6-1c0 3.378-3.155 9-7 9 0 4.928 6 9.748 6 15ZM243 137l-1 1c-8.417 0-7-16.531-7-23l7-1c0 3.293 1.83 9 6 9 0 5-5 8.814-5 14Z"/><path fill="#23885C" id="ORBvl5" d="M249 123h21l-2-9c-6.286 0-11.715 3-17 3l-2 6Z"/><path fill="#228A5D" id="ORBl5" d="M295 127v2l-13.5-6c-3.801-1.901-7.966 0-11.5 0l-2-9c9.48 0 19.497 13 27 13Z"/><path fill="#23895D" id="ORBm1" d="M218 153h6c0-2.678 1.911-3.323 3-5.5l1.5-7.5.5 6.5c.936 1.873 3 3.23 3 5.5 2.194 0 3.841 1 7 1v-1c0-5.296 3-9.447 3-14-8.417 0-7-16.531-7-23h-14c0 5.639 2.09 23-6 23l3 15Z"/><path fill="#1F9D58" id="MOs5" d="m297 115 1 1-1-1ZM298 121c1.399 0 1.399 2 0 2v-2Z"/><path fill="#238A5E" id="ORBl2/3" d="M157 138c0 6.28-3 12.336-3 19l7.5-7c6.051-6.051 13.937-17 22.5-17l2-10c-3.32 0-7.866-1.817-11.5 0l-13.5 6c0 .755-3.711 9-4 9ZM299 139l2 2.5c0 4.124 1 9.964 1 15.5l-5.5-6c-7.814-3.907-12.314-18-24.5-18l-2-10c3.534 0 7.699-1.901 11.5 0l13.5 6h1l3 10Z"/><path fill="#1F9D58" id="MOs5" d="M161 127v1c-1.803 0-3-3.592-3-5 .966 0 3 2.886 3 4Z"/><path fill="#248A5D" id="ORBvl2/3" d="M185 133c11.993 0 21.028 5 29 5 0-5.252-6-10.072-6-15h-22l-2 10h1ZM272 133c-10.96 0-18.777 4-29 4 0-5.186 5-9 5-14h22l2 10Z"/><path fill="#1F9D58" id="MOs5" d="M295 129h1l2-5-3 3v2Z"/><path fill="#238A5D" id="ORBl1" d="M153 168h3c1.193 0 13.591-20 18-20l1-1 1-1 1-1 1-1 4-1 2-1c0-3.222 1-6.277 1-9h-1c-8.563 0-16.449 10.949-22.5 17l-7.5 7-1 11Z"/><path fill="#248A5B" id="ORBvl1" d="M184 142c7.701 0 15.14.82 21.5 4l12.5 7-3-15h-1c-7.972 0-17.007-5-29-5 0 2.723-1 5.778-1 9ZM273 142c-6.861 0-14.814.157-20.5 3-3.876 1.938-9.053 7-13.5 7 0-5.296 3-9.447 3-14l1-1c10.223 0 18.04-4 29-4l1 9Z"/><path fill="#238A5D" id="ORBl1" d="M301 168h2l-1-11-5.5-6c-7.814-3.907-12.314-18-24.5-18l1 9 2 1 3 1 17 15.5c1.176 2.353 3.128 8.5 6 8.5Z"/><path fill="#209765" id="AId2/3" d="M136 140c0 5.914 9.374 16.437 14.5 19l3.5-2c0-6.664 3-12.72 3-19l-12.5-2c-1.849.924-6.592 3-8.5 3v1ZM320 140c0 5.141-8.242 19-14.5 19l-3.5-2c0-5.536-1-11.376-1-15.5l-2-2.5c3.465 0 9.584-4.958 13.5-3l7.5 3v1Z"/><path fill="#248A5D" id="ORBvl2/3" d="m243 137-1 1 1-1Z"/><path fill="#209764" id="AId1" d="m154 157-1 11-3.5 1c-5.677-2.839-19.5-20.359-19.5-26 3.3 0 3.1-3 6-3 0 5.914 9.374 16.437 14.5 19l3.5-2ZM302 157l1 11 3.5 1c5.357-2.679 19.5-18.729 19.5-26l-6-3c0 5.141-8.242 19-14.5 19l-3.5-2Z"/><path fill="#99D2BD" id="OLF" d="m224 153 1 10c-.549 0-4.685-7.185-6-8.5-1.614-1.614-18.242-7.5-20.5-7.5-3.052 0-3.5 3.65-3.5 6l-4-1c0-7.876.773-9-9-9l2-1c7.701 0 15.14.82 21.5 4l12.5 7h6ZM239 153c6.234 0 22-11.144 22 0l4-1c0-8.697.324-9 10-9l-2-1c-6.861 0-14.814.157-20.5 3-3.876 1.938-9.053 7-13.5 7v1Z"/><path fill="#9DF0D1" id="AOBgl" d="m191 152-5.5 3c-3.08 1.54-7.012 0-10.5 0 0-2.139-1-4.033-1-7l1-1 1-1 1-1 1-1 4-1c9.773 0 9 1.124 9 9ZM265 152l5.5 3H281c6.802 0-3-10.616-3-11l-3-1c-9.676 0-10 .303-10 9Z"/><path fill="#99D2BD" id="OLF" d="m178 144-1 1 1-1ZM297 173c2.273 0 2 5.226 2 7l-3 21c2.535 0 2.229-5.958 3-7.5 4.206-8.412 2-15.824 2-25.5-2.872 0-4.824-6.147-6-8.5L278 144c0 .384 9.802 11 3 11 0 3.329-1 4.97-1 6h3c5.555 0 14 6.314 14 12ZM176 146l-1 1 1-1ZM175 147l-1 1 1-1Z"/><path fill="#9AD1BD" id="MOB" d="M188 243c3.045 0 13.104 9 21 9l4-3.5c3.13-3.13 5.168-6.336 7-10l5-10c.574-1.147-1.064-4.5 1-4.5v-3c0-2.075-.797-15 1-15v-33c-.981 0-2-7.758-2-9v-1c-.549 0-4.685-7.185-6-8.5-1.614-1.614-18.242-7.5-20.5-7.5-3.052 0-3.5 3.65-3.5 6l1 6v2c2.109 0 2 2.535 2 4l1 5c0 7.379-1 14.107-1 21l-2 14c0 5.04-2 9.869-2 14l-1 2c0 5.248-4 7.994-4 13 0 2.354-1 5.169-1 9Z"/><path fill="#99D2BD" id="OLF" d="M159 173c0 3.144-2.799 9.901-1 13.5 1.63 3.259 3 10.907 3 14.5-3.395 0-3.072-6.643-4-8.5-4.201-8.403-1-14.982-1-24.5 1.193 0 13.591-20 18-20 0 2.967 1 4.861 1 7 0 2.711 2 4.969 2 6h-4c-4.761 0-14 6.679-14 12Z"/><path fill="#9AD1BD" id="MOB" d="M269 242c0 3.51-18.209 10-22 10l-6-5.5-7-12c-.745-1.49-3.554-14.5-4-14.5v-51c1.579 0 1-2.855 1-4v-1c1.473 0 1-1.952 1-3l7-8c6.234 0 22-11.144 22 0v6l-1 2-2 3v5l-1 1c0 6.836 1 13.704 1 20 0 5.773 2 12.316 2 19 0 4.002 3 8.304 3 12 0 4.806 5 8.764 5 13l1 8Z"/><path fill="#9DEFD2" id="AOBmi" d="M190 162h3l1-1 2-2-1-6-4-1-5.5 3c-3.08 1.54-7.012 0-10.5 0 0 2.711 2 4.969 2 6h3l1 1h9Z"/><path fill="#99D2BD" id="OLF" d="m239 153-7 8v-9c2.194 0 3.841 1 7 1Z"/><path fill="#9DEFD2" id="AOBmi" d="M273 162h2l1-1h4c0-1.03 1-2.671 1-6h-10.5l-5.5-3-4 1v6l1 2h1l1 1h9Z"/><path fill="#99D2BD" id="OLF" d="M194 161h2v-2l-2 2ZM260 161h2l-1-2-1 2Z"/><path fill="#CACAC9" id="lotd" d="M159 173h1l3-2.5c1.373-2.745 10-7.453 10-9.5-4.761 0-14 6.679-14 12Z"/><path fill="#54BF94" id="AON" fill-rule="evenodd" d="m185 233 4 1c0-5.006 4-7.752 4-13l1-2c-1.209 0-2.15-13.799-3-15.5l-8-18c2.831-5.663 7.573 3.5 9 3.5 1.714 0 3.482 2 6 2 0-6.893 1-13.621 1-21l-9-6-1-1c-1.235 0-5 .643-5-1h-3l-1-1h-7c0 2.047-8.627 6.755-10 9.5l-3 2.5c0 3.254-2.82 9.859-1 13.5 4.514 9.028 7.485 18.97 12 28 2.84 5.68 14 11.684 14 18.5m8-12c0-1.984-5.3 0 0 0Z"/><path fill="#99D2BD" id="OLF" d="m180 161 1 1-1-1ZM194 161l-1 1 1-1Z"/><path fill="#CACAC9" id="lotd" d="m190 164 8 1c0-1.465.109-4-2-4h-2l-1 1h-3l-1 1 1 1Z"/><path fill="#99D2BD" id="OLF" d="M232 161c-1.473 0-1 1.952-1 3 1.473 0 1-1.952 1-3Z"/><path fill="#CACAC9" id="lotd" d="M264 165h1l1-1 2-1-2-1h-2l-1-1h-3l-2 3c.424 0 6-.488 6 1Z"/><path fill="#99D2BD" id="OLF" d="m263 161 1 1-1-1ZM276 161l-1 1 1-1Z"/><path fill="#54BF94" id="AON" d="m271 233-3 1c0-4.236-5-8.194-5-13l2.5 2c1.329 0-2.5-5.78-2.5-6.5 0-2.257.927-9.854 2-12 .929-1.858 8.276-18.448 8-19-1.968-3.936-8 .499-8 3.5l-2.5 2-4.5-1c0-6.296-1-13.164-1-20l1-1c1.417 0 6-2.383 6-4h1l1-1 2-1c1.235 0 5 .643 5-1h2l1-1h7l7.5 5 5.5 7c0 3.476 2.923 10.654 1 14.5-4.724 9.449-8.255 19.511-13 29-2.41 4.82-13 11.117-13 16.5Z"/><path fill="#CACAC9" id="lotd" d="M296 173h1c0-5.686-8.445-12-14-12l7.5 5 5.5 7Z"/><path fill="#99D2BD" id="OLF" d="m190 162-1 1c-1.235 0-5 .643-5-1h6ZM273 162c0 1.643-3.765 1-5 1l-2-1h7ZM198 165l1 5-9-6 8 1ZM225 164c2.156 0 2 7.077 2 9-.981 0-2-7.758-2-9ZM264 165c0 1.617-4.583 4-6 4v-5c.424 0 6-.488 6 1ZM266 164l-1 1 1-1ZM231 165c-1.579 0-1 2.855-1 4 1.579 0 1-2.855 1-4ZM258 169l-1 1 1-1Z"/><path fill="#CAC8C7" id="lot" d="M174 226c1.72 0 11 9.56 11 7 0-6.816-11.16-12.82-14-18.5-4.515-9.03-7.486-18.972-12-28-1.82-3.641 1-10.246 1-13.5h-1c0 3.144-2.799 9.901-1 13.5 1.63 3.259 3 10.907 3 14.5v2l1 1c0 5.871 12 20.74 12 22Z"/><path fill="#99D2BD" id="OLF" d="M229 213h1v-40c-1.758 0-1 7.884-1 9.5V213Z"/><path fill="#CAC8C7" id="lot" d="M281 227c-.844 0-10 8.365-10 6 0-5.383 10.59-11.68 13-16.5 4.745-9.489 8.276-19.551 13-29 1.923-3.846-1-11.024-1-14.5h1c2.273 0 2 5.226 2 7l-3 21-1 1c0 2.998-9.543 23-12 23l-1 1-1 1Z"/><path fill="#CBCBC7" id="aco" d="M196 205c0 5.04-2 9.869-2 14-1.209 0-2.15-13.799-3-15.5l-8-18c2.831-5.663 7.573 3.5 9 3.5 0 4.158 1.27 8.04 3 11.5.574 1.147-1.064 4.5 1 4.5ZM260 209c0 4.002 3 8.304 3 12l2.5 2c1.329 0-2.5-5.78-2.5-6.5 0-2.257.927-9.854 2-12 .929-1.858 8.276-18.448 8-19-1.968-3.936-8 .499-8 3.5l-4 14.5c0 1.278.665 5.5-1 5.5Z"/><path fill="#99D2BD" id="OLF" d="m198 191-2 14c-2.064 0-.426-3.353-1-4.5-1.73-3.46-3-7.342-3-11.5 1.714 0 3.482 2 6 2ZM258 190c0 5.773 2 12.316 2 19 1.665 0 1-4.222 1-5.5l4-14.5-2.5 2-4.5-1ZM296 201l-1 1 1-1ZM161 203l1 1-1-1Z"/><path fill="#C7CBCA" id="onl" d="M226 221h1v-15c-1.797 0-1 12.925-1 15ZM229 218h1v-5h-1v5Z"/><path fill="#99D2BD" id="OLF" d="M230 220v1c-1.473 0-1-1.952-1-3h1v2Z"/><path fill="#CBCBC7" id="aco" d="M193 221c0-1.984-5.3 0 0 0Z"/><path fill="#C7CBCA" id="onl" d="M230 221c0 12.097 1.836 31 17 31l-6-5.5-7-12c-.745-1.49-3.554-14.5-4-14.5v1Z"/><path fill="#99D2BD" id="OLF" d="M227 221c0 1.048.473 3-1 3v-3h1Z"/><path fill="#C7CBCA" id="onl" d="M226 224c-2.064 0-.426 3.353-1 4.5l-5 10c-1.832 3.664-3.87 6.87-7 10l-4 3.5c14.435 0 17-16.242 17-28Z"/><path fill="#99D2BD" id="OLF" d="m283 225-1 1 1-1ZM189 234c0 2.354-1 5.169-1 9l-3.5-4c-2.329-1.165-10.5-9.811-10.5-13 1.72 0 11 9.56 11 7l4 1ZM282 226l-1 1 1-1ZM268 234l1 8c2.182 0 12-13.006 12-15-.844 0-10 8.365-10 6l-3 1Z"/></svg>