<svg xmlns="http://www.w3.org/2000/svg" viewBox="0 0 456 320"><path fill="#1E9C59" id="MOs1" d="m227 53-5 2c0-2.6-2.603-5.103-4.5-7-9.809-9.81-19.023-7-32.5-7v-4c0-1.835 11.76-2 14-2 11.266 0 15.521 4.021 23 11.5 1.828 1.828 5 3.862 5 6.5ZM234 55h1c0-4.19 3.962-8.23 7.5-10 5.329-2.665 15.606-8.697 23-5l6.5 2-1-5c0-2.227-12.093-2-14.5-2-9.935 0-18.968 4.437-23.5 13.5-.595 1.19-4 2.317-4 4.5l5 2Z"/><path fill="#1E9D5A" id="MOp1" d="M135 50v7l8.5-4c6.509-3.255 33.197-11 40.5-11l1-1v-4c-8.054 0-30.032 4.766-36.5 8-3.322 1.661-9.817 5-13.5 5ZM321 50v6c-11.364 0-34.529-14-49-14l-1-5c13.231 0 28.36 4.43 39.5 10 1.633.817 10.5.92 10.5 3Z"/><path fill="#1E9D58" id="MOs2/3" d="M215 59h1l6-3v-1c0-2.6-2.603-5.103-4.5-7-9.809-9.81-19.023-7-32.5-7l-1 1c0 3.623-1 8.764-1 13 5.489 0 32-11.767 32 4ZM240 59h1c0-3.8 2.794-4.647 5.5-6 11.948-5.974 17.021 2 26.5 2 0-5.244-1-8.476-1-13l-6.5-2c-7.394-3.697-17.671 2.335-23 5-3.538 1.77-7.5 5.81-7.5 10l5 4Z"/><path fill="#1F9C58" id="MOp2/3" d="M134 73v6c6.19 0 36.131-16.316 43.5-20 2.177-1.089 2.822-3 5.5-3v-1c0-4.236 1-9.377 1-13-7.303 0-33.991 7.745-40.5 11l-8.5 4h-1v16ZM322 73c0 1.745.632 6 0 6-9.54 0-40.306-23-48-23l-1-1c0-5.244-1-8.476-1-13 14.471 0 37.636 14 49 14l1 1v16Z"/><path fill="#197E64" id="SSp-ul1" d="m102 70 2 2c3.153 0 24.951-15 30-15h1v-7c-9.162 0-28.56 17-34 17l1 3ZM354 70l-2 2c-1.406 0-25.854-15-30-15l-1-1v-6c5.612 0 20.091 8.296 25.5 11l8.5 6v2l-1 1Z"/><path fill="#1F9D58" id="MOs5" d="M202 71c-2.72 0-5.79-4.855-9.5-3L180 74l3-18v-1c5.489 0 32-11.767 32 4l-13 12ZM254 71c2.966 0 6.396-5.052 10.5-3l11.5 6-2-18-1-1c-9.479 0-14.552-7.974-26.5-2-2.706 1.353-5.5 2.2-5.5 6l13 12Z"/><path fill="#3EA665" id="ACAd1" d="M223 82h11V55l-5-2c0 3.746-.8 0-2 0l-5 2v1c1.684 0 1 4.68 1 6v20Z"/><path fill="#40A565" id="ACAd2/3" d="m234 82 5 1c0-7.947 1-16.71 1-24l-5-4h-1v27Z"/><path fill="#1E9C5A" id="MOp5" d="M134 80v15l7.5-4c7.807-3.904 17.152-5.076 25-9 3.856-1.928 9.054-7 13.5-7v-1l3-18c-2.678 0-3.323 1.911-5.5 3-7.369 3.684-37.31 20-43.5 20v1Z"/><path fill="#40A565" id="ACAd2/3" d="m223 82-6 1c0-7.895-1-16.783-1-24l6-3c1.684 0 1 4.68 1 6v20Z"/><path fill="#1E9C5A" id="MOp5" d="M322 80v14l-34.5-13c-3.165-1.583-6.845-6-10.5-6l-1-1-2-18c7.694 0 38.46 23 48 23v1Z"/><path fill="#197F61" id="SSp-ul2/3" d="M110 83h1c3.464 0 16.73-10 23-10V57c-5.049 0-26.847 15-30 15v1c1.339 0 6 8.492 6 10ZM352 73l-6 10c-4.828 0-16.763-10-24-10V57c4.146 0 28.594 15 30 15v1Z"/><path fill="#3EA566" id="ACAd5" d="m217 83-12 6c0-2.084-.998-17-3-17v-1l13-12h1c0 7.217 1 16.105 1 24ZM239 83c3.692 0 10.841 7 13 7 0-4.414 1-9.177 1-13 0-1.234-.643-5 1-5v-1l-13-12h-1c0 7.29-1 16.053-1 24Z"/><path fill="#1B8062" id="SSp-un1" d="M100 68c.678 0 2 4.523 2 2l-1-3-1 1ZM356 68l-1 1v-2l1 1Z"/><path fill="#187E61" id="SSp-m1" d="M56 135c1.24 0 1.576 2 4 2 0-13.302 17.91-47.705 30.5-54 3.55-1.775 8.466-10 13.5-10v-1l-2-2c0 2.523-1.322-2-2-2-4.852 0-10.046 9.273-13.5 11C72.554 85.973 56 118.761 56 135Z"/><path fill="#1D9C5A" id="MOs6a" d="M190 93c-4.322 0-7.182 3-11 3 0-6.967 1-14.681 1-21v-1l12.5-6c3.71-1.855 6.78 3 9.5 3v1c-1.988 0-12 18.296-12 21ZM267 93c3.947 0 6.628 3 10 3V75l-1-1-11.5-6c-4.104-2.052-7.534 3-10.5 3v1c2.976 0 12 17.79 12 21h1Z"/><path fill="#187E61" id="SSp-m1" d="M396 137h1l4-2c0-17.206-15.461-40.962-28-53.5-3.248-3.248-13.183-13.5-17-13.5l-1 1-1 1-2 2v1c4.206 0 14.634 10.134 18 13.5 11.965 11.965 26 32.72 26 50.5Z"/><path fill="#1B8062" id="SSp-un1" d="m355 69-1 1 1-1Z"/><path fill="#3FA664" id="ACAd6a" d="M190 93c1.925 0 5 3.075 5 5l10-8v-1c0-2.084-.998-17-3-17-1.988 0-12 18.296-12 21ZM263 96l-2 1c-3.87 0-5.602-7-9-7 0-4.414 1-9.177 1-13 0-1.234-.643-5 1-5 2.976 0 12 17.79 12 21l-2 2-1 1Z"/><path fill="#1A7E64" id="SSp-m2/3" d="M69 141h1c0-12.172 7.886-23.272 13-33.5l8-10c1.592-3.183 19-14.137 19-14.5 0-1.508-4.661-10-6-10-5.034 0-9.95 8.225-13.5 10C77.91 89.295 60 123.698 60 137c3.242 0 5.319 4 9 4Z"/><path fill="#1A7F63" id="SSp-ul4" d="M115 91h1c0-1.988 3.315-2.408 4.5-3 3.828-1.914 9.139-8 13.5-8v-7c-6.27 0-19.536 10-23 10l4 8ZM346 84l-5 6c-6.82 0-12.093-10-19-10v-1c.632 0 0-4.255 0-6 7.237 0 19.172 10 24 10v1Z"/><path fill="#1A7E64" id="SSp-m2/3" d="M396 137c-2.759 0-5.795 4-9 4 0-12.999-16.567-42.534-27.5-48-3.823-1.911-8.036-9-13.5-9v-1l6-10c4.206 0 14.634 10.134 18 13.5 11.965 11.965 26 32.72 26 50.5Z"/><path fill="#1F9B5A" id="MOp6a" d="M151 109c-6.245 0-11.328 7-17 7V95l7.5-4c7.807-3.904 17.152-5.076 25-9 3.856-1.928 9.054-7 13.5-7 0 6.319-1 14.033-1 21l-6 3c-2.584 0-18 6.942-18 8-1.465 0-4-.109-4 2ZM277 96c9.153 0 37.658 20 46 20l-1-21v-1l-34.5-13c-3.165-1.583-6.845-6-10.5-6v21Z"/><path fill="#187E62" id="SSp-ul5" d="M122 101h1c0-2.168 9.098-6 11-6V80c-4.361 0-9.672 6.086-13.5 8-1.185.592-4.5 1.012-4.5 3 0 3.774 6 5.463 6 10ZM322 95c4.88 0 7.491 5 12 5l7-9v-1c-6.82 0-12.093-10-19-10v15Z"/><path fill="#3FA566" id="ACAv2/3" d="m221 117-3 2-1-36 6-1c0 11.066-1 22.536-1 33l-1 2Z"/><path fill="#40A664" id="ACAv1" d="M229 109c2.832 0 2.953 5 5 5V82h-11c0 11.066-1 22.536-1 33l5-6c0-2.564 2-2.564 2 0Z"/><path fill="#3FA566" id="ACAv2/3" d="m235 117 3 2c0-11.282 1-24.058 1-36l-5-1v32l1 3Z"/><path fill="#1B7F62" id="SSp-m4" d="M75 144h1c0-10.62 17.083-39.792 27.5-45 3.676-1.838 6.78-8 11.5-8l-4-8h-1c0 .363-17.408 11.317-19 14.5l-8 10c-5.114 10.228-13 21.328-13 33.5l5 3Z"/><path fill="#3EA666" id="ACAv5" d="M210 116c2.7 0 4.762 3 8 3l-1-36-12 6v1c0 6.304-.623 14.253 2 19.5l3 6.5ZM247 115c0 2.911-6.752 4-9 4 0-11.282 1-24.058 1-36 3.692 0 10.841 7 13 7 0 8.012-5 20.333-5 25Z"/><path fill="#1B7F62" id="SSp-m4" d="m387 142-6 2c0-9.398-18.226-39.363-25.5-43-4.639-2.32-9.104-10-14.5-10v-1l5-6c5.464 0 9.677 7.089 13.5 9 10.933 5.466 27.5 35.001 27.5 48v1Z"/><path fill="#40A564" id="ACAv6a" d="m207 114 3 2-3-6.5c-2.623-5.247-2-13.196-2-19.5l-10 8v1c0 5.336 11 8.556 11 14l1 1ZM250 114l-3 1c0-4.667 5-16.988 5-25 3.398 0 5.13 7 9 7v2c0 5.211-10 8.965-10 13l-1 2Z"/><path fill="#1B7E63" id="SSp-m5" d="M76 144c0 1.068 9.344 4 11 4 0-13.313 19.921-47 35-47 0-4.537-6-6.226-6-10h-1c-4.72 0-7.824 6.162-11.5 8-10.417 5.208-27.5 34.38-27.5 45ZM381 145c-4.688 0-7.44 3-12 3 0-14.529-18.861-47-35-47v-1l7-9c5.396 0 9.861 7.68 14.5 10 7.274 3.637 25.5 33.602 25.5 43v1Z"/><path fill="#1E9C58" id="MOs6b" d="M179 96v1c3.911 0 6.607-2 11-2v-2c-4.322 0-7.182 3-11 3Z"/><path fill="#3FA466" id="ACAd6b" d="M194 99h1v-1c0-1.925-3.075-5-5-5v2c2.226 0 4 1.774 4 4ZM264 95h3v-2h-1l-2 2Z"/><path fill="#1E9C58" id="MOs6b" d="M277 96v1c-3.578 0-5.887-2-10-2v-2c3.947 0 6.628 3 10 3Z"/><path fill="#197D61" id="SSp-ul6a" d="M133 116h1V95c-1.902 0-11 3.832-11 6 0 .931 8.976 15 10 15Z"/><path fill="#CACCC7" id="cing" d="m206 113 1 1c-9.45 0-11.249-11.375-18.5-15-5.755-2.878-12.378 4-17.5 4l-1 1h-1l-1 1h-5c0-3.067 10-2.713 10-6 2.483 0 4.026-2 6-2 3.911 0 6.607-2 11-2 2.226 0 4 1.774 4 4 0 2.684 8.827 14 12 14Z"/><path fill="#3FA466" id="ACAd6b" d="m264 95-1 1 1-1Z"/><path fill="#CACCC7" id="cing" d="m251 112-1 2c8.818 0 11.76-11.63 18.5-15 5.299-2.65 11.783 4 16.5 4l1 1h1l1 1h5c0-2.341-2.342-1.421-3.5-2-3.629-1.814-8.311-6-12.5-6-3.578 0-5.887-2-10-2h-3l-1 1c0 1.048.473 3-1 3 0 3.569-6.914 13-11 13Z"/><path fill="#197D61" id="SSp-ul6a" d="M323 117h1c0-6.315 10-10.267 10-16v-1c-4.509 0-7.12-5-12-5l1 21v1Z"/><path fill="#1D9D5A" id="MOp6b" d="M179 97c-1.974 0-3.517 2-6 2l6-3v1Z"/><path fill="#3FA466" id="ACAd6b" d="M261 99h1c1.473 0 1-1.952 1-3l-2 1v2Z"/><path fill="#1D9D5A" id="MOp6b" d="M323 117v1c-7.211 0-21.129-13-30-13 0-2.341-2.342-1.421-3.5-2-3.629-1.814-8.311-6-12.5-6v-1c9.153 0 37.658 20 46 20v1ZM163 105l-8 2c0-1.058 15.416-8 18-8 0 3.287-10 2.933-10 6Z"/><path fill="#C9C7C9" id="ccb" d="M353 165h1v-2l-1-1v-3l-1-1v-2l-1-2v-1c-1.609 0-3.304-7.109-4-8.5-3.743-7.486-13.486-19.493-21.5-23.5-8.834-4.417-18.201-7.601-27-12-1.568-.784-9.5-1.924-9.5-4h-1l-1-1h-1l-1-1c-4.717 0-11.201-6.65-16.5-4-6.74 3.37-9.682 15-18.5 15l-3 1c0 2.911-6.752 4-9 4l-3-2c0 3.002-14 3.106-14 0l-3 2c-3.238 0-5.3-3-8-3l-3-2c-9.45 0-11.249-11.375-18.5-15-5.755-2.878-12.378 4-17.5 4l-1 1h-1l-1 1h-1c0 1.722-5.235 2.368-6.5 3-5.747 2.874-12.312 4.156-18 7l-17 10-6.5 6-2 2c0 1.429-1.288 4-3 4l-1 1c0 1.238-.423 3-2 3l-1 2-1 2-1 2-1 2-1 2v1l-1 2c0 3.982-2 6.704-2 11 2.442 0 3.105-9.711 4-11.5 3.946-7.893 11.063-21.782 20.5-26.5 6.779-3.389 38.189-16.905 46-13 2.922 1.461 7.188-.406 10 1l2.5 2c2.365 0 11 3.467 11 6h1l2 2 2 1 1 1 3 2 1 1v1c1.892 0 14-.249 14 4l4 1c0-2.803 6-2.987 6 0h1l3-1c0-3.8 12.272-4 14-4l1-1 1-1 1-1 1-1h1l1-1 1-1 2-1 1-1h1l1-1 1-1h1c0-2.218 5.144-4 7-4 3.926 0 16.081-5.209 20.5-3 6.509 3.254 15.462 1.731 22 5 12.772 6.386 27.382 14.265 34.5 28.5l3 10 3 7.5Z"/><path fill="#40A465" id="ACAv6b" d="M195 99c0 5.336 11 8.556 11 14-3.173 0-12-11.316-12-14h1ZM262 99c0 3.569-6.914 13-11 13 0-4.035 10-7.789 10-13h1Z"/><path fill="#187D61" id="SSp-m6a" d="M97 167h3c0-3.965 7.293-28 11-28 0-1.664 1.823-6 4-6 0-3.009 8.991-12 12-12 0-2.275 3.756-4 6-4v-1c-1.024 0-10-14.069-10-15h-1c-15.079 0-35 33.687-35 47v1c16.976 0 10 9.145 10 18ZM357 167h2c0-9.508-4.629-18 10-18v-1c0-14.529-18.861-47-35-47 0 5.733-10 9.685-10 16 4.002 0 6.124 5.312 9.5 7 11.166 5.583 22.5 31.071 22.5 43h1Z"/><path fill="#C9C9CA" id="scwm" d="m171 103-1 1 1-1ZM285 103l1 1-1-1ZM169 104l-1 1 1-1ZM287 104l1 1-1-1ZM127 121c0 3.631-8 5.436-8 10l6.5-6 17-10c5.688-2.844 12.253-4.126 18-7 1.265-.632 6.5-1.278 6.5-3h-4l-8 2c0 2.109-2.535 2-4 2 0 2.341-2.342 1.421-3.5 2l-14.5 7-6 3ZM323 118c0 .173 9.065 6.565 10.5 8 6.733 6.733 17.5 17.616 17.5 27-1.609 0-3.304-7.109-4-8.5-3.743-7.486-13.486-19.493-21.5-23.5-8.834-4.417-18.201-7.601-27-12-1.568-.784-9.5-1.924-9.5-4h4c8.871 0 22.789 13 30 13Z"/><path fill="#1D9D5A" id="MOp6b" d="M155 107c-1.465 0-4-.109-4 2 1.465 0 4 .109 4-2ZM133 117v1l14.5-7c1.158-.579 3.5.341 3.5-2-6.245 0-11.328 7-17 7l-1 1Z"/><path fill="#7ED04B" id="IG" d="M221 117c0 3.106 14 3.002 14 0l-1-3c-2.047 0-2.168-5-5-5 0 3.746-.8 0-2 0l-5 6-1 2Z"/><path fill="#98D5F9" id="CP" d="m124 230 8 5c15.682 0 24.388.556 37.5-6 5.307-2.653 7.68-20 11.5-20l10-12c0-6.573 1-14.1 1-20 0-1.406-.714-7 1-7l1-11 1-2v-19.5c-1.36-2.72-7-15.12-7-17.5l-2-3-2.5-2c-2.812-1.406-7.078.461-10-1-7.811-3.905-39.221 9.611-46 13-9.437 4.718-16.554 18.607-20.5 26.5-.895 1.789-1.558 11.5-4 11.5v19.5c2.19 4.38 8 23.857 8 28.5v1l1 1v1l1 1v1l2 2v1l4 4 5 5ZM332 231l-8 4c-12.169 0-24.426 1.037-34.5-4-7.232-3.616-10.765-22-14.5-22 0-3.678-6.147-5.795-8-9.5l-2-3.5v-17.5c0-1.278.665-5.5-1-5.5v-5l-1-1v-6l-1-1v-2c0-6.491-3.145-16.211 0-22.5l6-15.5c1.577 0 2-1.762 2-3 3.926 0 16.081-5.209 20.5-3 6.509 3.254 15.462 1.731 22 5 12.772 6.386 27.382 14.265 34.5 28.5l3 10 3 7.5 1 16.5c-3.494 6.989-7 19.421-7 27.5v1l-1 2-1 1v2l-1 1v1l-1 1v1l-1 1-1 1-1 2-1 1-1 1-1 2c-1.429 0-4 1.288-4 3l-1 1Z"/><path fill="#1F9B5A" id="MOp6a" d="m134 116-1 1v-1h1Z"/><path fill="#188064" id="SSp-m6b" d="m133 118-6 3c0-2.275 3.756-4 6-4v1Z"/><path fill="#AAA8A9" id="SEZ" d="M188 120c2.789 0 5.693 3 9 3 0-2.533-8.635-6-11-6l2 3ZM268 120c0-1.551-3.592 1-5 1 0-2.218 5.144-4 7-4 0 1.238-.423 3-2 3Z"/><path fill="#188064" id="SSp-m6b" d="M355 167h1c0-11.929-11.334-37.417-22.5-43-3.376-1.688-5.498-7-9.5-7h-1v1c0 .173 9.065 6.565 10.5 8 6.733 6.733 17.5 17.616 17.5 27v1l1 2v2l1 1v3l1 1v2l1 2Z"/><path fill="#A8AAAA" id="VL" d="M195 156h1c0-1.593.337-7 2-7 0-6.396 9-13.256 9-18v-1l-1-1-3-2-1-1-2-1-2-2h-1c-3.307 0-6.211-3-9-3 0 2.38 5.64 14.78 7 17.5V156ZM261 156l1 2c0-6.491-3.145-16.211 0-22.5l6-15.5c0-1.551-3.592 1-5 1h-1l-1 1-1 1h-1l-1 1-2 1-1 1-1 1h-1l-1 1-1 1-1 1v2c0 5.6 9 10.833 9 17l2 7Z"/><path fill="#188064" id="SSp-m6b" d="M115 133h2c0-1.747.253-2 2-2 0-4.564 8-6.369 8-10-3.009 0-12 8.991-12 12Z"/><path fill="#AAA8A9" id="SEZ" d="m262 121-1 1 1-1ZM261 122l-1 1 1-1ZM198 123l2 2-2-2ZM259 123l-1 1 1-1ZM256 125l-1 1 1-1ZM202 126l1 1-1-1ZM255 126l-1 1 1-1ZM253 127l-1 1 1-1ZM252 128l-1 1 1-1Z"/><path fill="#97D6F9" id="STR" d="m206 129 1 1-1-1Z"/><path fill="#AAA8A9" id="SEZ" d="m251 129-1 1 1-1Z"/><path fill="#90CBEC" id="LSc" d="M203 149h1l1-1 1-1h1l1-1 1-1h1c0-1.577 1.762-2 3-2h1c0-1.577 1.762-2 3-2l2-1 1-1 1-1v-3c0-4.249-12.108-4-14-4 0 4.744-9 11.604-9 18h5ZM250 147c2.187 0 4.169 2 9 2 0-6.167-9-11.4-9-17l-1-1c-1.728 0-14 .2-14 4 0 5.918 11 6.119 11 10h1l1 1 2 1Z"/><path fill="#97D6F9" id="STR" d="m249 131 1 1v-2l-1 1Z"/><path fill="#C9C9CA" id="scwm" d="M119 131c-1.747 0-2 .253-2 2l2-2Z"/><path fill="#188064" id="SSp-m6b" d="m113 138-2 1c0-1.664 1.823-6 4-6l-1 4-1 1Z"/><path fill="#C9C9CA" id="scwm" d="M117 133c0 1.429-1.288 4-3 4l1-4h2Z"/><path fill="#97D6F9" id="STR" d="M225 136h6c0-2.987-6-2.803-6 0Z"/><path fill="#1A7E62" id="SSs1" d="m57 175-5 1c0-12.554-4.205-21.091 2-33.5.587-1.173.62-7.5 2-7.5 1.24 0 1.576 2 4 2 0 4.624-1.916 14.332-4 18.5-2.441 4.882 1 14.878 1 19.5Z"/><path fill="#97D6F9" id="STR" d="m225 136-4 2v-3l4 1ZM232 136c0 2.25 11.787 9 14 9 0-3.881-11-4.082-11-10l-3 1Z"/><path fill="#1A7E62" id="SSs1" d="M400 175c0 1.579 2.855 1 4 1 1.076 0 2-9.512 2-11 0-11.879-5-20.667-5-30l-4 2c0 6.207 1.346 15.193 4 20.5l-1 17.5Z"/><path fill="#90CAED" id="LSr" d="M236 200v1c.224 0 4.314-7.814 5.5-9l19-18 3.5 2v-8l-1-1v-6l-1-1v-2l-1-2-11-9-2-1-1-1h-1c-2.213 0-14-6.75-14-9h-7l-4 2-1 1-1 1-2 1c0 1.577-1.762 2-3 2h-1c0 1.577-1.762 2-3 2h-1l-1 1-1 1h-1l-1 1-1 1h-1c0 1.167-5.234 7-7 7l-1 1-1 2-1 11v5c2.385 0 2.798-1.351 5.5 0 1.579.79 21.5 22.441 21.5 25h1c0-11.819 4-22.29 4-34l1-1v-1c0-3.44.517-8.534 2-11.5l.5-2.5.5 6.5 2 8.5c0 11.189 4 21.433 4 33l1 2Z"/><path fill="#1B8063" id="SSs2/3" d="M57 175h1c3.489 0 5.32-2 9-2 0-11.383 2-21.201 2-32-3.681 0-5.758-4-9-4 0 4.624-1.916 14.332-4 18.5-2.441 4.882 1 14.878 1 19.5Z"/><path fill="#C9C9CA" id="scwm" d="m114 137-1 1 1-1Z"/><path fill="#1B8063" id="SSs2/3" d="M399 175h1l1-17.5c-2.654-5.307-4-14.293-4-20.5h-1c-2.759 0-5.795 4-9 4v1c0 10.096 3 20.188 3 31l8 2h1Z"/><path fill="#C9C9CA" id="scwm" d="M111 139v2c1.577 0 2-1.762 2-3l-2 1Z"/><path fill="#97D6F9" id="STR" d="m221 138-1 1 1-1Z"/><path fill="#188064" id="SSp-m6b" d="M100 167h2l1-1v-1c0-4.296 2-7.018 2-11l1-2v-1l1-2 1-2 1-2 1-2 1-2v-2c-3.707 0-11 24.035-11 28Z"/><path fill="#97D6F9" id="STR" d="m220 139-1 1 1-1ZM219 140l-2 1 2-1Z"/><path fill="#187C63" id="SSs4" d="M67 173h4v-1c0-9.666 4-18.794 4-28l-5-3h-1c0 10.799-2 20.617-2 32Z"/><path fill="#C9C9CA" id="scwm" d="m111 141-1 2 1-2Z"/><path fill="#97D6F9" id="STR" d="M217 141c-1.238 0-3 .423-3 2 1.238 0 3-.423 3-2Z"/><path fill="#187C63" id="SSs4" d="m385 172 5 1c0-10.812-3-20.904-3-31l-6 2v1l2 4.5c1.946 3.892 2 17.467 2 22.5Z"/><path fill="#C9C9CA" id="scwm" d="m110 143-1 2 1-2Z"/><path fill="#97D6F9" id="STR" d="M213 143c-1.238 0-3 .423-3 2 1.238 0 3-.423 3-2Z"/><path fill="#1C8063" id="SSs5" d="m85 170-14 2c0-9.666 4-18.794 4-28h1c0 1.068 9.344 4 11 4v1c0 6.671-2 13.505-2 21Z"/><path fill="#C9C9CA" id="scwm" d="m109 145-1 2 1-2Z"/><path fill="#97D6F9" id="STR" d="m209 145-1 1 1-1ZM247 145l1 1-1-1Z"/><path fill="#1C8063" id="SSs5" d="m371 170 14 2c0-5.033-.054-18.608-2-22.5l-2-4.5c-4.688 0-7.44 3-12 3v1c2.064 0 .426 3.353 1 4.5 2.149 4.297 1 11.42 1 16.5Z"/><path fill="#97D6F9" id="STR" d="m208 146-1 1 1-1Z"/><path fill="#C9C9CA" id="scwm" d="m108 147-1 2 1-2Z"/><path fill="#97D6F9" id="STR" d="m206 147-1 1 1-1ZM259 149l2 7-11-9c2.187 0 4.169 2 9 2ZM205 148l-1 1 1-1Z"/><path fill="#197D63" id="SSs6a" d="M97 167c0 1.603-10.37 3-12 3 0-7.495 2-14.329 2-21 16.976 0 10 9.145 10 18Z"/><path fill="#C9C9CA" id="scwm" d="m107 149-1 2 1-2Z"/><path fill="#97D6F9" id="STR" d="M203 149c0 1.167-5.234 7-7 7 0-1.593.337-7 2-7h5Z"/><path fill="#197D63" id="SSs6a" d="M359 167c0 .892 10.544 3 12 3 0-5.08 1.149-12.203-1-16.5-.574-1.147 1.064-4.5-1-4.5-14.629 0-10 8.492-10 18Z"/><path fill="#97D6F9" id="STR" d="m226 164 2.5-3 2.5 4-2-8.5-.5-6.5-.5 2.5c-1.483 2.966-2 8.06-2 11.5Z"/><path fill="#C9C9CA" id="scwm" d="m106 152-1 2 1-2ZM351 154l1 2-1-2Z"/><path fill="#97D6F9" id="STR" d="m196 156-1 1v-1h1Z"/><path fill="#A8AAAA" id="VL" d="m195 157-1 2 1-2Z"/><path fill="#C9C9CA" id="scwm" d="m352 158 1 1-1-1Z"/><path fill="#A8AAAA" id="VL" d="m262 160 1 1-1-1Z"/><path fill="#96A7D3" id="MS" d="M225 244c1.639 0 2.455-2 3.5-2 .63 0 .688 2 2.5 2l4-5c0-9.411 1-19.97 1-30v-9l-1-2c0-11.567-4-21.811-4-33l-2.5-4-2.5 3v1l-1 1c0 11.71-4 22.181-4 34v8c0 5.706-3.887 17.727-1 23.5.901 1.802 2 6.594 2 8.5l3 4Z"/><path fill="#C9C9CA" id="scwm" d="m353 162 1 1-1-1Z"/><path fill="#97D6F9" id="STR" d="m226 165-1 1 1-1Z"/><path fill="#C8CBCC" id="ec" d="M347 209h1l1-2c0-1.623.005-6 2-6v-1c0-1.774-.273-7 2-7v-3l2-8v-15l-1-2h-1l1 16.5c-3.494 6.989-7 19.421-7 27.5ZM109 210l2 3c0-4.643-5.81-24.12-8-28.5V166l-1 1v15l1 8c0 3.209 3 7.198 3 11 0 1.564 1 3.876 1 6l2 3Z"/><path fill="#009B74" id="GU6a" d="M100 183c-5.25 0-9.422 6-14 6 0-5.826-1-12.583-1-19 1.63 0 12-1.397 12-3h3v16Z"/><path fill="#019C74" id="GU6b" d="M100 183h1l1-1v-15h-2v16Z"/><path fill="#A8AAAA" id="VL" d="m263 167 1 1-1-1Z"/><path fill="#019C74" id="GU6b" d="M355 182h1c0-4.635 1-9.828 1-15h-2v15Z"/><path fill="#009B74" id="GU6a" d="m371 188-1 1c-4.376 0-8.875-6-14-6v-1c0-4.635 1-9.828 1-15h2c0 .892 10.544 3 12 3v18Z"/><path fill="#019C75" id="GU5" d="M73 193h2c0-2.764 8.76-4 11-4 0-5.826-1-12.583-1-19l-14 2v15.5l2 5.5Z"/><path fill="#A8AAAA" id="VL" d="M194 195c-.476 0-3 4.605-3 2 0-6.573 1-14.1 1-20 0-1.406-.714-7 1-7v5c0 6.573 1 14.1 1 20Z"/><path fill="#019C75" id="GU5" d="M383 193h1c0-6.319 1-14.033 1-21l-14-2v18c2.258 0 10 2.922 10 5h2Z"/><path fill="#009C74" id="GU4" d="m384 193 1 1c0-4.503 5-14.501 5-21l-5-1c0 6.967-1 14.681-1 21Z"/><path fill="#009B75" id="GU2/3" d="M62 196h1l8-2c0-6.855-4-13.174-4-21-3.68 0-5.511 2-9 2l-1 2 5 19Z"/><path fill="#009C74" id="GU4" d="M71 194h2v-1l-2-5.5V173h-4c0 7.826 4 14.145 4 21Z"/><path fill="#A8AAAA" id="VL" d="M263 196c0 1.919 2 2.488 2 0v-17.5c0-1.278.665-5.5-1-5.5v3l-1 20Z"/><path fill="#009B75" id="GU2/3" d="m385 194 9 2c0-6.306 5-12.248 5-19v-1l-1-1-8-2c0 6.499-5 16.497-5 21Z"/><path fill="#8FCBED" id="LSv" d="M221 203v5c-2.925 0-3.396 5.552-8.5 3L200 201h-1c0-2.572-5-2.494-5-6 0-5.9-1-13.427-1-20 2.385 0 2.798-1.351 5.5 0 1.579.79 21.5 22.441 21.5 25 0 1.048-.473 3 1 3ZM257 201c-4.807 0-9.3 7.9-13.5 10-4.362 2.181-5.021-2-7.5-2v-8c.224 0 4.314-7.814 5.5-9l19-18 3.5 2-1 20-6 5Z"/><path fill="#12AD83" id="VISC1" d="m57 177-4 1-1-2 5-1v2Z"/><path fill="#12AC83" id="VISC2/3" d="m58 175-1 2v-2h1ZM399 175v1l-1-1h1Z"/><path fill="#12AD83" id="VISC1" d="m399 177 5 1v-2c-1.145 0-4 .579-4-1h-1v2Z"/><path fill="#009C75" id="GU1" d="M62 196c0 1.473-1.952 1-3 1-1.59 0-1.443-4.386-2-5.5-1.827-3.654-4-9.25-4-13.5l4-1 5 19ZM394 197c1.048 0 3-.473 3 1 1.59 0 1.443-4.386 2-5.5l5-14.5-5-1c0 6.752-5 12.694-5 19v1Z"/><path fill="#1F9766" id="AId6b" d="M101 183c0 1.851-.867 7 2 7l-1-8-1 1ZM353 190h2v-1l1-6v-1h-1l-2 8Z"/><path fill="#209666" id="AId6a" d="m96 204-5 1c0-5.308-5-10.275-5-16 4.578 0 8.75-6 14-6h1c0 1.851-.867 7 2 7 0 3.209 3 7.198 3 11h-1c0-5.713-5.07-18.358-10-8.5-1.616 3.232 1 8.676 1 11.5ZM361 204l4 1c0-5.087 5-10.018 5-16-4.376 0-8.875-6-14-6l-1 6c8.747 0 6 8.159 6 15Z"/><path fill="#8ADA86" id="CLA" d="M96 204c0 3.906 3.99 4 7 4 0-1.835 2-4.235 2-7 0-5.713-5.07-18.358-10-8.5-1.616 3.232 1 8.676 1 11.5ZM351 201c0 3.133 1.905 9.297 6.5 7l3.5-4c0-6.841 2.747-15-6-15v1l-2 3c0 1.593-.337 7-2 7v1Z"/><path fill="#209665" id="AId5" d="m378 205-1 1c-3.312 0-8.038-1-12-1 0-5.087 5-10.018 5-16l1-1c2.258 0 10 2.922 10 5l-2 10-1 2ZM91 205c-1.657 0-10-.763-10 1-2.74 0-6-10.29-6-13 0-2.764 8.76-4 11-4 0 5.725 5 10.692 5 16Z"/><path fill="#209666" id="AId6a" d="m355 190-2 3v-3h2Z"/><path fill="#219864" id="AIp5" d="m81 206-1 1c-2.393 0-7-11.092-7-13v-1h2c0 2.71 3.26 13 6 13Z"/><path fill="#209666" id="AId6a" d="M353 193c-2.273 0-2 5.226-2 7 1.663 0 2-5.407 2-7Z"/><path fill="#219864" id="AIp5" d="M383 193c0 1.761-2.307 10-4 10l2-10h2Z"/><path fill="#209865" id="AIp2/3" d="M373 215c0 1.373 8.535 3 10 3 .747 0 7.989-14.478 9-16.5.465-.93.817-4.5 2-4.5v-1l-9-2-1-1h-1c0 1.761-2.307 10-4 10l-1 2-1 1v1l-1 1v1l-1 1-2 5ZM83 215c0 1.516-8.357 3-10 3 0-5.929-10-14.435-10-22l8-2h2c0 1.908 4.607 13 7 13l1 2c0 2.72 2 3.553 2 6Z"/><path fill="#97D6F9" id="STR" d="M181 209c1.747 0 2 .253 2 2 2.232 0 4.029-3 7-3 0-9.049 1.758-7 9-7 0-2.572-5-2.494-5-6-.476 0-3 4.605-3 2l-10 12Z"/><path fill="#219765" id="AIp1" d="M73 218c0 .672-4.33 2-5 2-1.183 0-1.535-3.57-2-4.5-2.669-5.337-7-12.258-7-18.5 1.048 0 3 .473 3-1h1c0 7.565 10 16.071 10 22Z"/><path fill="#97D6F9" id="STR" d="M275 209c-1.747 0-2 .253-2 2-2.232 0-4.029-3-7-3 0-9.321-1.132-7-9-7l6-5c0 1.919 2 2.488 2 0l2 3.5c1.853 3.705 8 5.822 8 9.5Z"/><path fill="#219765" id="AIp1" d="M383 218c0 .913 5.014 2 6 2 0-6.006 8-14.526 8-22 0-1.473-1.952-1-3-1-1.183 0-1.535 3.57-2 4.5-1.011 2.022-8.253 16.5-9 16.5Z"/><path fill="#97D6F9" id="STR" d="m235 198 1 2-1-2Z"/><path fill="#B3C0DE" id="BST" d="M187 223c0 14.927 12.017 1 16 1l2-10.5c-1.229-2.458-.794-5.587-2-8l-3-4.5h-1c-7.242 0-9-2.049-9 7 6.3 0 4.364 15-3 15Z"/><path fill="#97D6F9" id="STR" d="M221 200v3c-1.473 0-1-1.952-1-3h1Z"/><path fill="#B3C0DE" id="BST" d="M253 223c2.101 0 16 15.739 16 0-6.577 0-8.711-15-3-15 0-9.321-1.132-7-9-7l-4 5.5c-2.512 5.024 0 11.45 0 16.5Z"/><path fill="#1F9866" id="AIv6a" d="m107 207-4 1c0-1.835 2-4.235 2-7h1c0 1.564 1 3.876 1 6Z"/><path fill="#97D6F9" id="STR" d="m220 239 2 1c0-1.906-1.099-6.698-2-8.5-2.887-5.773 1-17.794 1-23.5-2.925 0-3.396 5.552-8.5 3L200 201l3 4.5c1.206 2.413.771 5.542 2 8l-2 10.5c0 5.524 7.046 10.773 11.5 13 .93.465 4.5.817 4.5 2h1ZM237 239h1l7.5-4c4.429-2.215 7.5-6.725 7.5-12 0-5.05-2.512-11.476 0-16.5l4-5.5c-4.807 0-9.3 7.9-13.5 10-4.362 2.181-5.021-2-7.5-2 0 10.03-1 20.589-1 30h2Z"/><path fill="#1F9866" id="AIv6a" d="M354 209c2.86 0 5.58 3 9 3l2-7-4-1-3.5 4c-4.595 2.297-6.5-3.867-6.5-7-1.995 0-2 4.377-2 6 1.465 0 4-.109 4 2h1Z"/><path fill="#219864" id="AIp5" d="m379 203-1 2 1-2Z"/><path fill="#1F9866" id="AIv6a" d="m101 210-7 2-3-7 5-1c0 3.906 3.99 4 7 4v1h-1l-1 1Z"/><path fill="#1F9865" id="AIv5" d="m90 214-5 1c0-1.178-2.572-6-4-6l-1-2 1-1c0-1.763 8.343-1 10-1l3 7-4 2ZM367 214l4 1 4-5 1-1v-1l1-1v-1c-3.312 0-8.038-1-12-1l-2 7 4 2Z"/><path fill="#219864" id="AIp5" d="m378 205-1 1 1-1Z"/><path fill="#8AD987" id="CTXsp" d="M103 209c2.124 0 4.436 1 6 1l-2-3-4 1v1ZM348 209h5c0-2.109-2.535-2-4-2l-1 2Z"/><path fill="#219864" id="AIp5" d="m377 207-1 1 1-1Z"/><path fill="#CBCBC7" id="aco" d="M184 223h3c7.364 0 9.3-15 3-15-2.971 0-4.768 3-7 3 0 1.641-5.562 12 1 12ZM269 223h3c7.918 0 1-9.695 1-12-2.232 0-4.029-3-7-3-5.711 0-3.577 15 3 15Z"/><path fill="#219764" id="AIv2/3" d="M83 215h2c0-1.178-2.572-6-4-6 0 2.72 2 3.553 2 6Z"/><path fill="#99D2BD" id="OLF" d="m102 209-1 1 1-1Z"/><path fill="#A0EE9C" id="EPd" d="M114 231h3c3.893 0 1-4.854 1-6l-3-4v-1l-2-2v-1l-1-1v-1l-1-1v-1l-2-3c-1.564 0-3.876-1-6-1h-1l-1 1c0 .17-2 7.269-2 11v1l3 3 2 1 1 1h1l3 2h1c1.238 0 3 .423 3 2h1Z"/><path fill="#80CDF8" id="ACB" d="M187 241c0 8.599-26.08 22-33.5 22-3.625 0-16.5-3.64-16.5-8 0-4.196-7-11.898-7-17l2-3c15.682 0 24.388.556 37.5-6 5.307-2.653 7.68-20 11.5-20 1.747 0 2 .253 2 2 0 1.641-5.562 12 1 12 0 5.887 3 11.415 3 18ZM269 241l6 7.5c5.669 5.669 11.877 9.189 18.5 12.5 5.307 2.653 13.839 2.58 19 0l7.5-6c0-5.64 6-11.052 6-17l-2-3c-12.169 0-24.426 1.037-34.5-4-7.232-3.616-10.765-22-14.5-22-1.747 0-2 .253-2 2 0 2.305 6.918 12-1 12l-3 18Z"/><path fill="#8AD987" id="CTXsp" d="m348 209-1 1v-1h1Z"/><path fill="#A0EE9C" id="EPd" d="M339 231h4l2-1 2-1 2-1 2-1h1l1-1 1-1 1-1 1-1 1-1 1-7.5c-.69-1.38-4-4.489-4-5.5h-6l-1 1-1 2-1 1v2l-1 1v1l-1 1v1l-1 1-1 1-1 2-1 1-1 1-1 2c0 1.465-.109 4 2 4Z"/><path fill="#99D2BD" id="OLF" d="M367 214c-6.334 0-7.937 8-10 8l1-7.5c-.69-1.38-4-4.489-4-5.5 2.86 0 5.58 3 9 3l4 2Z"/><path fill="#219764" id="AIv2/3" d="m376 209-1 1 1-1Z"/><path fill="#99D2BD" id="OLF" d="M90 214c4.384 0 6.19 7 9 7 0-3.731 2-10.83 2-11l-7 2-4 2Z"/><path fill="#C8CBCC" id="ec" d="m347 210-1 2 1-2Z"/><path fill="#219764" id="AIv2/3" d="M371 215h2l2-5-4 5Z"/><path fill="#C8CBCC" id="ec" d="m346 212-1 1 1-1Z"/><path fill="#6ACAB9" id="PIR" d="m118 263 3 1 6-4c0-6.811 6.184-8.133 1-18.5-1.851-3.703-7.363-6.931-10.5-8.5l-3.5-2h-1c-1.238 0-3-.423-3-2h-1c-1.238 0-3-.423-3-2h-1l-1-1-2-1-3-3v-1c-2.81 0-4.616-7-9-7l-5 1h-2c0 1.516-8.357 3-10 3 0 .672-4.33 2-5 2 0 7.89 12.493 20.993 18.5 27l8.5 7c4.561 0 23 3.435 23 9Z"/><path fill="#C8CBCC" id="ec" d="m111 214 1 1-1-1Z"/><path fill="#6ACAB9" id="PIR" d="M336 264h2c0-6.915 13.318-7.909 17.5-10 1.073-.536 5.5-.251 5.5 1l6.5-6c4.393-2.197 21.5-21.909 21.5-29-.986 0-6-1.087-6-2-1.465 0-10-1.627-10-3h-2l-4-1c-6.334 0-7.937 8-10 8l-1 1-1 1-1 1-1 1-1 1h-1l-2 1-2 1-2 1-2 1c0 1.845-3.381 1.441-4.5 2-3.96 1.98-9.435 6.37-11.5 10.5-3.865 7.73 3 11.514 3 16.5l6 4Z"/><path fill="#C8CBCC" id="ec" d="m345 215-1 1 1-1ZM112 216l1 1-1-1ZM344 217l-1 1 1-1ZM113 218l2 2-2-2ZM343 219l-1 1 1-1ZM342 220l-1 1 1-1ZM118 225h1l-4-4 3 4ZM341 221l-1 2 1-2Z"/><path fill="#99D2BD" id="OLF" d="m99 222 3 3-3-3Z"/><path fill="#E64438" id="HY" d="M202 248c2.96 0 4 2.399 4 5 1.087 0 6.694-14 13-14 0-1.183-3.57-1.535-4.5-2-4.454-2.227-11.5-7.476-11.5-13-3.983 0-16 13.927-16-1h-3c0 5.887 3 11.415 3 18 5.448 0 8.54-10.02 12.5-12 6.157-3.078 2.5 16.628 2.5 19ZM255 248c-3.544 0-3.603 4-5 4-1.559 0-6.705-13-12-13l7.5-4c4.429-2.215 7.5-6.725 7.5-12 2.101 0 16 15.739 16 0h3l-3 18c-4.265 0-7.795-10.147-11.5-12-8.595-4.297-2.5 16.934-2.5 19Z"/><path fill="#99D2BD" id="OLF" d="m356 223-1 1 1-1Z"/><path fill="#C8CBCC" id="ec" d="m339 224-1 1 1-1Z"/><path fill="#8AD987" id="CTXsp" d="M117 231c0 2.273 5.226 2 7 2v-3l-5-5h-1c0 1.146 2.893 6-1 6ZM338 225l-1 2 1-2Z"/><path fill="#99D2BD" id="OLF" d="m354 225-1 1 1-1ZM104 226l1 1-1-1ZM353 226l-1 1 1-1ZM106 227l3 2c-1.238 0-3-.423-3-2Z"/><path fill="#8AD987" id="CTXsp" d="M339 231c0 2.273-5.226 2-7 2v-2l1-1c0-1.712 2.571-3 4-3 0 1.465-.109 4 2 4Z"/><path fill="#99D2BD" id="OLF" d="m351 227-2 1 2-1ZM349 228l-2 1 2-1ZM110 229c1.238 0 3 .423 3 2-1.238 0-3-.423-3-2Z"/><path fill="#A2B1D7" id="SI" d="M185 275v1l-34.5 1c-3.738-1.869-7.177-4.089-11-6-3.026-1.513-11.5-7.268-11.5-11 3.347 0 5.288-5 9-5 0 4.36 12.875 8 16.5 8 7.42 0 33.5-13.401 33.5-22 5.448 0 8.54-10.02 12.5-12 6.157-3.078 2.5 16.628 2.5 19l-1 1c0 5.756-13 16.567-13 18-3.119 0-3 5.815-3 8ZM271 275v1c13.93 0 42.957 5.585 50-8.5 1.19-2.38 7-3.714 7-7.5 0-.359-6.831-5-8-5l-7.5 6c-5.161 2.58-13.693 2.653-19 0-6.623-3.311-12.831-6.831-18.5-12.5l-6-7.5c-4.265 0-7.795-10.147-11.5-12-8.595-4.297-2.5 16.934-2.5 19 0 2.89 9.863 18 13 18 4.195 0 3 7.371 3 9Z"/><path fill="#99D2BD" id="OLF" d="m347 229-2 1 2-1Z"/><path fill="#97D6F9" id="STR" d="m132 235-2 3c0-1.726-4.558-5-6-5v-3l8 5ZM333 230l-1 1 1-1Z"/><path fill="#99D2BD" id="OLF" d="m345 230-2 1 2-1ZM127 260h1c3.347 0 5.288-5 9-5 0-4.196-7-11.898-7-17 0-1.726-4.558-5-6-5-1.774 0-7 .273-7-2h-3l3.5 2c3.137 1.569 8.649 4.797 10.5 8.5 5.184 10.367-1 11.689-1 18.5Z"/><path fill="#97D6F9" id="STR" d="m324 235 2 3 6-5v-2l-8 4Z"/><path fill="#99D2BD" id="OLF" d="M328 260h2c0-4.986-6.865-8.77-3-16.5 2.065-4.13 7.54-8.52 11.5-10.5 1.119-.559 4.5-.155 4.5-2h-4c0 2.273-5.226 2-7 2l-6 5c0 5.948-6 11.36-6 17 1.169 0 8 4.641 8 5Z"/><path fill="#FF5346" id="MPO" d="M213 263h2l8-15c0-3.559-3-5.504-3-9h-1c-6.306 0-11.913 14-13 14l-1 5c5.912 0 8-3.012 8 5Z"/><path fill="#E64438" id="HY" d="m225 244-2 4c0-3.559-3-5.504-3-9l2 1 3 4ZM231 244l2 3 4-8h-2l-4 5Z"/><path fill="#FF5346" id="MPO" d="M241 263h2c0-7.589 2.715-5 8-5l-1-6c-1.559 0-6.705-13-12-13h-1l-4 8v1l1 1 7 14Z"/><path fill="#FE5446" id="AVPV" d="M229 264c0 5.026 8.158 6 12 6v-7l-7-14-1-1v-1l-2-3c-1.812 0-1.87-2-2.5-2-1.045 0-1.861 2-3.5 2l-2 4-8 15c0 2.409 1 5.181 1 7l7.5-1 4.5-5c0-1.186 1-1.186 1 0Z"/><path fill="#E64438" id="HY" d="m202 248-1 1 1-1Z"/><path fill="#F2473B" id="LPO" d="m191 268-1 1-2-2c0-1.433 13-12.244 13-18l1-1c2.96 0 4 2.399 4 5l-1 5c0 1.662-11.519 10-14 10Z"/><path fill="#E64438" id="HY" d="m233 248 1 1-1-1Z"/><path fill="#F2473B" id="LPO" d="M268 266c0 2.461.454 2-3 2l-5.5-3-7.5-6-1-1-1-6c1.397 0 1.456-4 5-4 0 2.89 9.863 18 13 18Z"/><path fill="#CAC8C7" id="lot" d="M117 270h1l1-1v-3l-1-3c0-5.565-18.439-9-23-9 0 4.277 11.562 9.031 15.5 11 2.608 1.304 3.297 5 6.5 5ZM338 269l1 1c3.203 0 3.892-3.696 6.5-5 3.128-1.564 15.5-6.564 15.5-10 0-1.251-4.427-1.536-5.5-1-4.182 2.091-17.5 3.085-17.5 10 0 1.048.473 3-1 3v1l1 1Z"/><path fill="#96A6D3" id="NDB" d="M204 275h1l1-1 1-1h1l1-1 2-1c0-2.709 2-4.646 2-8 0-8.012-2.088-5-8-5 0 1.662-11.519 10-14 10l-1 1-1 3c0 6.604 12.466 3 15 3ZM252 275h1c2.205 0 14 3.427 14-3 0-2.424-2-2.76-2-4l-5.5-3-7.5-6-1-1c-5.285 0-8-2.589-8 5 0 3.351 3 5.596 3 8l3 2 1 1h1l1 1Z"/><path fill="#E64438" id="HY" d="m251 258 1 1-1-1Z"/><path fill="#7FCCF7" id="OT" d="M185 276c4.619 0 10 .221 10 6 0 14.285-16.097 10.299-23.5 14-15.525 7.762-37.919 2.662-46.5-14.5-1.461-2.921-6-6.129-6-9.5v-6l2-2 6-4h1c0 3.732 8.474 9.487 11.5 11 3.823 1.911 7.262 4.131 11 6l34.5-1ZM271 276c-4.933 0-10 .681-10 6l2 3.5c6.557 13.114 11.967 5.734 21.5 10.5 16.146 8.073 38.08 2.34 46.5-14.5 1.029-2.058 6-5.242 6-8.5v-6l-1-3-6-4h-2c0 3.786-5.81 5.12-7 7.5-7.043 14.085-36.07 8.5-50 8.5Z"/><path fill="#99D2BD" id="OLF" d="m121 264-2 2-1-3 3 1Z"/><path fill="#E64438" id="HY" d="m216 270-5 1c0-2.709 2-4.646 2-8h2c0 2.409 1 5.181 1 7ZM228 264h1c0-1.186-1-1.186-1 0ZM241 270l5 1c0-2.404-3-4.649-3-8h-2v7Z"/><path fill="#99D2BD" id="OLF" d="M338 264c0 1.048.473 3-1 3l-1-3h2Z"/><path fill="#E64438" id="HY" d="M267 272c2.54 0 2.543 3 4 3 0-1.629 1.195-9-3-9 0 2.461.454 2-3 2 0 1.24 2 1.576 2 4ZM189 272l-4 3c0-2.185-.119-8 3-8l2 2-1 3ZM191 268l-1 1 1-1Z"/><path fill="#97D6F9" id="STR" d="m339 270-2 3v-5l1 1 1 1ZM118 271l1 1v-3l-1 1v1Z"/><path fill="#99D2BD" id="OLF" d="m338 269 1 1-1-1ZM118 270v1l-1-1h1Z"/><path fill="#8599CC" id="PAL" d="M185 276c4.619 0 10 .221 10 6 1.883 0 9-5.371 9-7-2.534 0-15 3.604-15-3l-4 3v1ZM209 272l-1 1 1-1ZM271 276c-4.933 0-10 .681-10 6-1.734 0-8-5.009-8-7 2.205 0 14 3.427 14-3 2.54 0 2.543 3 4 3v1ZM207 273l-1 1 1-1ZM249 273l1 1-1-1ZM206 274l-1 1 1-1ZM251 274l1 1-1-1Z"/><path fill="#CBCCC7" id="IIn" d="m215 275-8 6.5c-1.406 2.812 2.975 7.762 5.5 6.5 6.824-3.412 17.668-13 2.5-13ZM235 275c0 2.392-2.399 1.701-1 4.5 10.316 20.633 26.535-4.5 1-4.5Z"/></svg>