<svg xmlns="http://www.w3.org/2000/svg" viewBox="0 0 456 320"><path fill="#9AD1BD" id="MOB" d="M149 148v4c2.064 0 .426 3.353 1 4.5l6 15 11 20c3.745 7.49-1.117 21.767 2 28 4.563 9.125 9.886 11.193 18.5 15.5 3.059 1.529 12.017 3.992 16 2 8.147-4.074 10.055-12.61 13.5-19.5v-4c5.156-10.313.94-37.88 4-44 2.344-4.689 4-23.293 4-29v-13c-1.554-3.107-8.619-19.5-13-19.5l-1-1c-2.592 0-3.416-.958-5.5-2-5.928-2.964-21.37 1.685-26 4l-15.5 9-1 1-1 1-1 1c0 1.747-.253 2-2 2v1l-1 1-1 1v1l-3 6-1 1c0 1.424-.362 5-2 5v1c0 1.257-.941 8-2 8ZM305 139c0 3.956 2 7.497 2 12 0 14.55-11.821 30.142-18 42.5-4.736 9.472.532 21.936-4 31-6.329 12.657-33.831 18.337-41 4-3.587-7.174-3.47-15.939-7-23-1.406-2.812.461-7.078-1-10-2.876-5.753 1.933-15.134-1-21l-1-18c-1.437-2.874-4.689-23.622-3-27 2.258-4.516 3.725-9.449 6-14l8-8.5c8.3 0 17.038-4.231 25.5 0 2.589 1.295 19.137 10 20.5 10l8 9 4 7c0 1.424.362 5 2 5v1Z"/><path fill="#99D2BD" id="OLF" d="M212 107v1l-1-1h1Z"/><path fill="#C7CBCA" id="onl" d="M155 216c0 11.114 18.463 22.981 26.5 27l12 8c3.392 1.696 11.653 1.673 15 0l5-1c12.37-6.185 13.5-20.422 13.5-33 0-1.49-.735-8 1-8v-43.5c0-5.688 1.415-14.171-1-19v-23c-1.268-2.536-8-9.02-8-11.5l-1-1c-1.287 0-3.637-4-6-4v1c4.381 0 11.446 16.393 13 19.5v13c0 5.707-1.656 24.311-4 29-3.06 6.12 1.156 33.687-4 44v4c-3.445 6.89-5.353 15.426-13.5 19.5-3.983 1.992-12.941-.471-16-2-8.614-4.307-13.937-6.375-18.5-15.5-3.117-6.233 1.745-20.51-2-28l-11-20-6-15c-.574-1.147 1.064-4.5-1-4.5h-1v19c1.512 0 1.297 9.094 2 10.5 3.56 7.121 5 25.909 5 34.5ZM308 175c-1.647 0-1.338 7.176-2 8.5-4.019 8.037-4 22.062-4 31.5 0 7.632-10.359 13.218-13 18.5-2.528 5.055-8.031 6.765-13.5 9.5-16.982 8.491-17.713 13.644-37 4-8.169-4.084-9.5-21.87-9.5-30.5v-85c0-7.449 6.592-24.5 16-24.5l-8 8.5c-2.275 4.551-3.742 9.484-6 14-1.689 3.378 1.563 24.126 3 27l1 18c2.933 5.866-1.876 15.247 1 21 1.461 2.922-.406 7.188 1 10 3.53 7.061 3.413 15.826 7 23 7.169 14.337 34.671 8.657 41-4 4.532-9.064-.736-21.528 4-31 6.179-12.358 18-27.95 18-42.5 2.496 0-.496 5 2 5v11c-1.684 0-1 4.679-1 6v2Z"/><path fill="#99D2BD" id="OLF" d="m218 111 1 1-1-1ZM299 126h1l-9-9 8 9ZM164 118l-1 1 1-1ZM163 119l-1 1 1-1ZM162 120l-1 1 1-1ZM161 121l-2 2c1.747 0 2-.253 2-2ZM159 124l-1 1 1-1ZM158 125l-1 1 1-1ZM156 127h1v-1l-1 1Z"/><path fill="#C7CBCA" id="onl" d="M303 131v2l-4-7h1l1 2 1 1v1l1 1ZM153 133h1l3-6h-1l-3 6Z"/><path fill="#99D2BD" id="OLF" d="m301 128 1 1-1-1ZM302 130l1 1-1-1ZM154 133l-1 1v-1h1ZM303 133c1.638 0 2 3.576 2 5-1.638 0-2-3.576-2-5ZM153 134c-1.638 0-2 3.576-2 5 1.638 0 2-3.576 2-5ZM307 151c2.496 0-.496 5 2 5 0-2.649-1.226-17-4-17 0 3.956 2 7.497 2 12ZM151 140c-2.488 0-2 6.101-2 8 1.059 0 2-6.743 2-8ZM148 152h1v-4c-1.579 0-1 2.855-1 4ZM148 155c-1.644 0-1.644 14 0 14v-14ZM309 167c-1.684 0-1 4.679-1 6 1.684 0 1-4.679 1-6ZM148 171c1.512 0 1.297 9.094 2 10.5 3.56 7.121 5 25.909 5 34.5-1.384 0-4.284-8.069-5-9.5-2.708-5.416-2-28.581-2-35.5ZM308 175c-1.647 0-1.338 7.176-2 8.5-4.019 8.037-4 22.062-4 31.5 2.205 0 .002-3.251 1.5-4 6.442-3.221 4.5-27.822 4.5-36ZM228 209c-1.735 0-1 6.51-1 8 1.735 0 1-6.51 1-8Z"/></svg>