<svg xmlns="http://www.w3.org/2000/svg" viewBox="0 0 456 320"><path fill="#1E9C59" id="MOs1" d="M222 57h1l4-3c0-3.18-4.659-4.818-6-7.5-7.122-14.244-24.296-9.5-38-9.5v6c9.943 0 27.797-6.906 34 5.5 1.59 3.18 5 4.647 5 8.5ZM229 54l5 2 3-5.5 8.5-7.5c8.956-4.478 18.687 0 27.5 0v-6c-16.238 0-24.319-4.181-36.5 8l-7.5 9Z"/><path fill="#1E9D5A" id="MOp1" d="M133 53c0 .831-1 2.865-1 6 3.466 0 6.575-2.538 9.5-4 6.242-3.121 34.78-12 41.5-12v-6c-6.469 0-33.362 8.93-39.5 12-1.611.806-10.5 1.968-10.5 4ZM324 53l1 6c-3.856 0-7.268-2.384-10.5-4-6.555-3.277-34.388-12-41.5-12v-6c5.293 0 37.496 9.498 42.5 12l8.5 4Z"/><path fill="#1E9D58" id="MOs2/3" d="m222 57-6 3c0-2.295-2.794-4.147-4.5-5-7.818-3.909-18.019-3.99-26 0l-3.5 2 1-14c9.943 0 27.797-6.906 34 5.5 1.59 3.18 5 4.647 5 8.5ZM240 60h1c0-2.237 2.023-4.261 3.5-5 16.867-8.434 19.105 2 30.5 2l-2-14c-8.813 0-18.544-4.478-27.5 0l-8.5 7.5-3 5.5v1l6 3Z"/><path fill="#1F9C58" id="MOp2/3" d="M131 75c0 2.124 1 4.436 1 6 9.792 0 40.953-23 49-23l1-1 1-14c-6.72 0-35.258 8.879-41.5 12-2.925 1.462-6.034 4-9.5 4v1c0 5.234-1 8.627-1 15ZM326 76c-1.275 0-1 4.955-1 6l-50-24v-1l-2-14c7.112 0 34.945 8.723 41.5 12 3.232 1.616 6.644 4 10.5 4v1c0 5.26 1 11.406 1 16Z"/><path fill="#1F9D58" id="MOs5" d="M202 72c-2.66 0-6.291-4.605-9.5-3L179 76c0-6.51 2-11.286 2-18l1-1 3.5-2c7.981-3.99 18.182-3.909 26 0 1.706.853 4.5 2.705 4.5 5v1c-5.687 0-9.115 11-14 11ZM255 73c0-10.805 20.904 3 23 3 0-6.475-3-11.86-3-18v-1c-11.395 0-13.633-10.434-30.5-2-1.477.739-3.5 2.763-3.5 5 0 4.042 13 6.805 13 13h1Z"/><path fill="#197E64" id="SSp-ul1" d="M101 69c2.906 0 2.073 4 3 4 4.987 0 20.922-13 28-13v-1c0-3.135 1-5.169 1-6-8.256 0-17.423 7.462-24.5 11l-7.5 5ZM355 69l-3 4c-5.511 0-20.056-13-27-13v-1l-1-6c8.247 0 16.464 7.482 23.5 11 1.544.772 7.5 2.732 7.5 5Z"/><path fill="#3EA665" id="ACAd1" d="M222 83h12V56l-5-2c0 2.488-2 1.919-2 0l-4 3c0 8.739-1 17.859-1 26Z"/><path fill="#40A565" id="ACAd2/3" d="m222 83-5 2V66.5c0-1.278.665-5.5-1-5.5v-1l6-3h1c0 8.739-1 17.859-1 26ZM234 83l5 1c0-8.017 1-16.609 1-24l-6-3v26Z"/><path fill="#1E9C5A" id="MOp5" d="M131 83v14c2.811 0 32.441-11.97 36.5-14 3.805-1.902 6.952-6 11.5-6v-1c0-6.51 2-11.286 2-18-8.047 0-39.208 23-49 23l-1 1v1ZM325 83v14c-1.22 0-28.895-10.698-31.5-12-4.276-2.138-10.626-8-15.5-8v-1c0-6.475-3-11.86-3-18l50 24v1Z"/><path fill="#197F61" id="SSp-ul2/3" d="M131 75c-6.689 0-13.615 9-20 9-3.356 0-3.47-10-7-10v-1c4.987 0 20.922-13 28-13 0 5.234-1 8.627-1 15Z"/><path fill="#3EA566" id="ACAd5" d="M239 85c5.234 0 8.819 6 13 6 0-6.052 2-12.245 2-18 0-6.195-13-8.958-13-13h-1c0 7.391-1 15.983-1 24v1Z"/><path fill="#197F61" id="SSp-ul2/3" d="M326 76c5.944 0 14.793 8 19 8 1.236 0 7-8.614 7-10v-1c-5.511 0-20.056-13-27-13 0 5.26 1 11.406 1 16Z"/><path fill="#3EA566" id="ACAd5" d="M217 85c-4.979 0-8.518 6-13 6 0-6.327-2-12.645-2-18v-1c4.885 0 8.313-11 14-11 1.665 0 1 4.222 1 5.5V85Z"/><path fill="#187E61" id="SSp-m1" d="m56 137 5 2c0-12.904 8.543-26.587 14-37.5 1.684-3.367 8.316-7.633 10-11 1.65-3.299 15.896-16.5 19-16.5v-1c-.927 0-.094-4-3-4-5.145 0-13.234 9.734-17 13.5-11.434 11.434-28 39.213-28 54.5Z"/><path fill="#1D9C5A" id="MOs6a" d="M178 97h3c0-1.93 6.225-2 8-2h1c0-3.433 8.706-22 12-22v-1c-2.66 0-6.291-4.605-9.5-3L179 76v1c0 6.317-1 13.753-1 20ZM267 95c4.646 0 7.501 2 12 2 0-6.937-1-13.53-1-20v-1c-2.096 0-23-13.805-23-3 0 2.742 12 15.401 12 22Z"/><path fill="#187E61" id="SSp-m1" d="m400 137-5 2c0-12.737-16.082-47.291-27.5-53-5.156-2.578-9.499-12-15.5-12v-1l3-4c7.431 0 11.01 10.755 17.5 14 11.995 5.998 27.5 41.026 27.5 54Z"/><path fill="#3FA664" id="ACAd6a" d="M190 95c2.813 0 3.461 4 5 4 3.933 0 5.493-7 9-7v-1c0-6.327-2-12.645-2-18-3.294 0-12 18.567-12 22ZM261 100h1l1-2 1-1c0-1.577 1.762-2 3-2 0-6.599-12-19.258-12-22h-1c0 5.755-2 11.948-2 18l9 9Z"/><path fill="#1A7E64" id="SSp-m2/3" d="m61 139 10 4c0-14.279 15.813-44.156 27.5-50 4.335-2.168 7.35-8 12.5-8v-1c-3.356 0-3.47-10-7-10-3.104 0-17.35 13.201-19 16.5-1.684 3.367-8.316 7.633-10 11-5.457 10.913-14 24.596-14 37.5ZM395 140c-3.679 0-6.067 3-9 3 0-14.323-13.833-36.333-23.5-46-4.431-4.43-11.323-12-17.5-12v-1c1.236 0 7-8.614 7-10 6.001 0 10.344 9.422 15.5 12 11.418 5.709 27.5 40.263 27.5 53v1Z"/><path fill="#1A7F63" id="SSp-ul4" d="m111 85 5 6 15-8v-1l1-1c0-1.564-1-3.876-1-6-6.689 0-13.615 9-20 9v1ZM340 91h1l4-6v-1c-4.207 0-13.056-8-19-8-1.275 0-1 4.955-1 6v1c5.656 0 9.677 8 15 8Z"/><path fill="#1F9B5A" id="MOp6a" d="M131 119h2c0-1.39 13.663-8 16-8 0-2.109 2.535-2 4-2 0-1.291 8.283-4 10-4 0-2.109 2.535-2 4-2 0-2.216 7.15-4 9-4l2-2c0-6.247 1-13.683 1-20-4.548 0-7.695 4.098-11.5 6-4.059 2.03-33.689 14-36.5 14v22ZM326 113c0 2.009-1 4.272-1 6-3.717 0-7.29-4.395-10.5-6-5.015-2.508-31.6-15-35.5-15v-1c0-6.937-1-13.53-1-20 4.874 0 11.224 5.862 15.5 8 2.605 1.302 30.28 12 31.5 12l1 15c-1.186 0-1.186 1 0 1Z"/><path fill="#1F9C58" id="MOp2/3" d="m132 81-1 1 1-1Z"/><path fill="#187E62" id="SSp-ul5" d="m131 97-8 4c-3.039 0-4.993-9-7-9v-1l15-8v14Z"/><path fill="#3FA566" id="ACAv2/3" d="m221 119-3 2-1-36 5-2v33l-1 3Z"/><path fill="#40A664" id="ACAv1" d="M229 111c2.832 0 2.953 5 5 5V83h-12v33l5-5c0-2.564 2-2.564 2 0Z"/><path fill="#3FA566" id="ACAv2/3" d="m235 119 3 1c0-10.9 1-23.427 1-35v-1l-5-1v33l1 3Z"/><path fill="#187E62" id="SSp-ul5" d="M333 102h1c0-3.873 6-6.63 6-11-5.323 0-9.344-8-15-8v14c1.451 0 8 3.778 8 5Z"/><path fill="#1B7F62" id="SSp-m4" d="m71 143 6 2c0-10.521 17.07-39.785 27.5-45 4.065-2.032 6.521-8 11.5-8v-1l-5-6c-5.15 0-8.165 5.832-12.5 8C86.813 98.844 71 128.721 71 143Z"/><path fill="#3EA666" id="ACAv5" d="M209 117c2.759 0 5.795 4 9 4l-1-36c-4.979 0-8.518 6-13 6v1c1.781 0 1 10.176 1 12 0 4.271 4 8.321 4 13ZM247 117c0 1.293-9 5.578-9 3 0-10.9 1-23.427 1-35 5.234 0 8.819 6 13 6l-1 15.5c-1.403 2.806-4 7.305-4 10.5Z"/><path fill="#1B7F62" id="SSp-m4" d="m386 143-7 2c0-11.599-10.066-23.632-15-33.5l-9-10L341 91l4-6c6.177 0 13.069 7.57 17.5 12 9.667 9.667 23.5 31.677 23.5 46Z"/><path fill="#40A564" id="ACAv6a" d="m251 115-4 2c0-3.195 2.597-7.694 4-10.5l1-15.5 9 9c0 5.613-10 9.793-10 14v1Z"/><path fill="#1B7E63" id="SSp-m5" d="m379 146-11 3c0-13.387-19.641-47-34-47 0-3.873 6-6.63 6-11h1l14 10.5 9 10c4.934 9.868 15 21.901 15 33.5v1ZM88 149h1c0-14.689 18.182-47 34-47v-1c-3.039 0-4.993-9-7-9-4.979 0-7.435 5.968-11.5 8-10.43 5.215-27.5 34.479-27.5 45 3.173 0 7.333 4 11 4Z"/><path fill="#40A564" id="ACAv6a" d="m206 115 3 2c0-4.679-4-8.729-4-13 0-1.824.781-12-1-12-3.507 0-5.067 7-9 7v1c0 5.604 10 8.664 10 14l1 1Z"/><path fill="#1E9C58" id="MOs6b" d="m189 96-8 1c0-1.93 6.225-2 8-2v1Z"/><path fill="#3FA466" id="ACAd6b" d="M194 100h1v-1c-1.539 0-2.187-4-5-4h-1v1c2.813 0 3.461 4 5 4ZM267 96l-3 1c0-1.577 1.762-2 3-2v1Z"/><path fill="#1E9C58" id="MOs6b" d="M279 98v1c-3.998 0-7.473-3-12-3v-1c4.646 0 7.501 2 12 2v1Z"/><path fill="#CACCC7" id="cing" d="m205 114 1 1c0 1.585-4.056-.556-5-1.5L188.5 101c-6.44-3.22-12.463 4-18.5 4l-1 1h-1l-7 1 2-2 4-2c1.85 0 9-1.784 9-4h2l3-2 8-1c2.813 0 3.461 4 5 4 0 2.904 7.349 14 11 14ZM251 114v1c8.427 0 10.62-11.06 16.5-14 6.5-3.25 13.274 4 19.5 4 2.522 0 4.909 2 8 2l-16-8c-3.998 0-7.473-3-12-3l-3 1-1 1c0 1.048.473 3-1 3 0 3.436-7.115 13-11 13Z"/><path fill="#197D61" id="SSp-ul6a" d="M123 102c0 1.46 6.361 11 8 11V97l-8 4v1Z"/><path fill="#1D9D5A" id="MOp6b" d="M176 99h2v-2l-2 2Z"/><path fill="#1E9C58" id="MOs6b" d="m181 97-3 2v-2h3Z"/><path fill="#3FA466" id="ACAd6b" d="m264 97-1 1 1-1Z"/><path fill="#197D61" id="SSp-ul6a" d="M333 102c0 1.644-5.152 10-7 10l-1-15c1.451 0 8 3.778 8 5Z"/><path fill="#3FA466" id="ACAd6b" d="M262 100v1c1.473 0 1-1.952 1-3l-1 2Z"/><path fill="#1D9D5A" id="MOp6b" d="m326 120-1 1c-5.842 0-21.154-14-30-14l-16-8v-1c3.9 0 30.485 12.492 35.5 15 3.21 1.605 6.783 6 10.5 6l1 1ZM176 99c-1.85 0-9 1.784-9 4 1.85 0 9-1.784 9-4Z"/><path fill="#C9C7C9" id="ccb" d="M351 159v4c-1.229 0-3.262-10.024-4-11.5-2.799-5.597-12.224-19.362-18.5-22.5-7.001-3.501-14.101-6.551-21-10-4.239-2.12-10.838.081-15-2-2.456-1.228-12.076-2.462-15-1-1.849.924-6.592 3-8.5 3-1.178 0-6 2.572-6 4l-2 1-1 1h-1l-1 1-1 1-2 1-2 1c-1.747 0-2 .253-2 2l-2 1h-1l-1 1-2 1-4 1h-1l-1 1-2 1h-1c-1.145 0-4-.579-4 1l-3.5-2-3.5 2c0-1.579-2.855-1-4-1h-2l-1-1h-1l-1-1h-2l-1-1h-1l-1-1-3-1-1-1-13-8h-1c0-1.428-4.822-4-6-4-1.019 0-6.278-2.389-7.5-3-9.723-4.861-41.267 7.133-49 11L115 142.5c-.721 1.442-4.326 8.5-6 8.5v-2l1-2 1-2 1-2 1-2 8-9.5 16.5-12.5 24-10c1.326-.663 6.5-1.002 6.5-3h1l1-1c6.037 0 12.06-7.22 18.5-4l12.5 12.5c.944.944 5 3.085 5 1.5l3 2c2.759 0 5.795 4 9 4l3-2c0 5.147 6.803 0 7.5 0l1 2c1.517.759 5.5-.037 5.5-2l3 1c0 2.578 9-1.707 9-3l4-2c8.427 0 10.62-11.06 16.5-14 6.5-3.25 13.274 4 19.5 4 0 2.13 6.044 3.272 7.5 4l28 12c8.708 4.354 18.268 15.036 22.5 23.5l5 10.5v1c0 1.048-.473 3 1 3Z"/><path fill="#40A465" id="ACAv6b" d="M195 100c0 5.604 10 8.664 10 14-3.651 0-11-11.096-11-14h1ZM262 101c0 3.436-7.115 13-11 13 0-4.207 10-8.387 10-14h1v1Z"/><path fill="#187D61" id="SSp-m6a" d="m103 166-9 1c0-4.684 3.629-18-5-18 0-14.689 18.182-47 34-47 0 1.46 6.361 11 8 11v7c-3.832 0-8.744 6.244-11.5 9-9.599 9.599-16.5 23.416-16.5 37ZM353 166l9 1c0-3.911-2.236-18 6-18 0-13.387-19.641-47-34-47h-1c0 1.644-5.152 10-7 10v1c0 2.009-1 4.272-1 6l1 1c3.206 0 9.712 6.925 11 9.5l7 8c4.753 9.506 9 16.91 9 28.5Z"/><path fill="#1D9D5A" id="MOp6b" d="M167 103c-1.465 0-4-.109-4 2l4-2ZM161 107c-2.885 0-4.697 2-8 2 0-1.291 8.283-4 10-4l-2 2Z"/><path fill="#C9C9CA" id="scwm" d="m170 105-1 1 1-1ZM325 121c7.126 0 25 27.931 25 34l-5-10.5c-4.232-8.464-13.792-19.146-22.5-23.5l-28-12c-1.456-.728-7.5-1.87-7.5-4 2.522 0 4.909 2 8 2 8.846 0 24.158 14 30 14ZM131 121c-2.967 0-18 17.067-18 20l8-9.5 16.5-12.5 24-10c1.326-.663 6.5-1.002 6.5-3l-7 1c-2.885 0-4.697 2-8 2l-4 2-3.5 2c-3.889 1.945-7.871 6-12.5 6l-2 2Z"/><path fill="#1D9D5A" id="MOp6b" d="M153 109c-1.465 0-4-.109-4 2l4-2ZM149 111c-2.337 0-16 6.61-16 8 4.629 0 8.611-4.055 12.5-6l3.5-2Z"/><path fill="#7ED04B" id="IG" d="M221 119c0 5.147 6.803 0 7.5 0l1 2c1.517.759 5.5-.037 5.5-2l-1-3c-2.047 0-2.168-5-5-5 0 1.93-1.161 0-2 0l-5 5-1 3Z"/><path fill="#197D61" id="SSp-ul6a" d="M326 112c-1.186 0-1.186 1 0 1v-1Z"/><path fill="#98D5F9" id="CP" d="m125 230 10 5c14.721 0 21.22.14 33.5-6 5.807-2.903 7.182-22 13.5-22l9-9c0-6.206 1-12.908 1-18.5 0-1.363-.7-6.5 1-6.5v-5l1-1v-3l1-1v-26.5c-1.849-3.699-5-9.207-5-13.5-.966 0-3-2.886-3-4-1.019 0-6.278-2.389-7.5-3-9.723-4.861-41.267 7.133-49 11L115 142.5c-.721 1.442-4.326 8.5-6 8.5 0 1.623-.005 6-2 6l-1 6-1 2v17c1.454 0 1.433 5.366 2 6.5 2.006 4.012 7 21.275 7 25.5v1l1 1v1l1 1 1 2c1.577 0 2 1.762 2 3l2 2v1l4 4ZM331 230l-9 5c-14.809 0-22.148.176-34.5-6-6.636-3.318-4.595-22-13.5-22l-9-10v-20c0-.986-1.087-6-2-6v-5l-1-1v-3l-1-1v-23.5c1.863-3.727 5-9.186 5-13.5 1.077 0 3-3.762 3-5 1.908 0 6.651-2.076 8.5-3 2.924-1.462 12.544-.228 15 1 4.162 2.081 10.761-.12 15 2 6.899 3.449 13.999 6.499 21 10 6.276 3.138 15.701 16.903 18.5 22.5.738 1.476 2.771 11.5 4 11.5v21c-1.993 0-1.35 5.2-2 6.5-2.846 5.691-6 15.997-6 22.5v1l-1 1v1l-1 1v1l-1 1-1 1v1l-1 1-1 1v1l-1 1-1 1-3 3-1 1Z"/><path fill="#1D9D5A" id="MOp6b" d="M131 120v1l2-2h-2v1Z"/><path fill="#AAA8A9" id="SEZ" d="M190 123h3c0-1.428-4.822-4-6-4 0 1.114 2.034 4 3 4ZM263 123c1.048 0 3-.473 3 1 1.077 0 3-3.762 3-5-1.178 0-6 2.572-6 4Z"/><path fill="#188064" id="SSp-m6b" d="M103 166h2v-3l1-6c0-1.145-.579-4 1-4 0-1.465-.109-4 2-4l1-2 1-2 1-2 1-2c0-2.933 15.033-20 18-20v-1c-3.832 0-8.744 6.244-11.5 9-9.599 9.599-16.5 23.416-16.5 37ZM352 166h1c0-11.59-4.247-18.994-9-28.5l-7-8c-1.288-2.575-7.794-9.5-11-9.5l-1 1c7.126 0 25 27.931 25 34v1c1.473 0 1 1.952 1 3v6l1 1Z"/><path fill="#A8AAAA" id="VL" d="m196 158-1 1v-22.5c-1.849-3.699-5-9.207-5-13.5h4c0 1.637 11.293 9 13 9 0 1.048-.473 3 1 3 0 4.662-7 7.803-7 13l-4 8v1l-1 1Z"/><path fill="#AAA8A9" id="SEZ" d="M207 131v1c-1.707 0-13-7.363-13-9l13 8ZM263 123l-2 1 2-1Z"/><path fill="#A8AAAA" id="VL" d="m260 157 1 2v-21.5c1.863-3.727 5-9.186 5-13.5 0-1.473-1.952-1-3-1l-2 1-1 1h-1l-1 1-1 1-2 1-2 1-2 2-2 2v3l7 12 4 9Z"/><path fill="#AAA8A9" id="SEZ" d="m261 124-1 1 1-1ZM259 125l-1 1 1-1ZM258 126l-1 1 1-1ZM257 127l-2 1 2-1ZM255 128l-2 1 2-1ZM253 129c-1.747 0-2 .253-2 2l2-2Z"/><path fill="#CCC7C9" id="ccg" d="M207 132h1l-1-1v1Z"/><path fill="#AAA8A9" id="SEZ" d="M249 132v1l2-2-2 1Z"/><path fill="#97D6F9" id="STR" d="m211 134-3 1c-1.473 0-1-1.952-1-3h1l3 1v1Z"/><path fill="#CCC7C9" id="ccg" d="m248 132-1 1 1-1Z"/><path fill="#97D6F9" id="STR" d="m245 134 4 2v-4h-1l-1 1-2 1Z"/><path fill="#CCC7C9" id="ccg" d="M211 134h1l-1-1v1Z"/><path fill="#90CBEC" id="LSc" d="M218 137c0 3.313-7.826 6.663-10.5 8-.881.44-6.5 5.944-6.5 3 0-5.197 7-8.338 7-13l3-1h2l1 1h2l1 1h1v1Z"/><path fill="#CCC7C9" id="ccg" d="m213 134 1 1-1-1Z"/><path fill="#90CBEC" id="LSc" d="M238 137c0 3.507 16.13 11 18 11l-7-12-4-2-4 1-1 1h-1l-1 1Z"/><path fill="#CCC7C9" id="ccg" d="m216 135 1 1-1-1ZM239 136h1v-1l-1 1Z"/><path fill="#97D6F9" id="STR" d="m241 135-1 1v-1h1Z"/><path fill="#CCC7C9" id="ccg" d="M218 137h1l-1-1v1Z"/><path fill="#97D6F9" id="STR" d="M197 156c5.569 0 26.984-20.758 34.5-17 7.27 3.635 13.801 8.401 21 12 1.74.87 4.66 6 7.5 6l-4-9c-1.87 0-18-7.493-18-11h-2c0 1.579-2.855 1-4 1l-3.5-2-3.5 2c-1.145 0-4 .579-4-1h-3c0 3.313-7.826 6.663-10.5 8-.881.44-6.5 5.944-6.5 3l-4 8Z"/><path fill="#CCC7C9" id="ccg" d="M237 137h1l1-1-2 1Z"/><path fill="#1A7E62" id="SSs1" d="m59 175-5 1c0-4.666-4.413-12.674-2-17.5 2.754-5.509 4-15.061 4-21.5l5 2c0 3.268-1.59 17.679-3 20.5l1 14.5v1Z"/><path fill="#CCC7C9" id="ccg" d="M221 137c1.145 0 4-.579 4 1-1.145 0-4 .579-4-1ZM236 137c-1.145 0-4-.579-4 1 1.145 0 4 .579 4-1Z"/><path fill="#1A7E62" id="SSs1" d="m397 175 5 1c0-3.675 4.823-11.854 3-15.5-2.9-5.799-5-16.867-5-23.5l-5 2v1c1.167 0 2 7.108 2 8.5V175Z"/><path fill="#1B8063" id="SSs2/3" d="m68 172-9 2-1-14.5c1.41-2.821 3-17.232 3-20.5l10 4-2 5.5-1 23.5Z"/><path fill="#90CAED" id="LSr" d="M220 205h1c0-11.851 4-22.242 4-34l3.5-20 .5 8 2 11c0 11.317 4 21.436 4 33 1.579 0 1 2.855 1 4 2.144 0 .381-4.262 1-5.5l4-7c.826-1.652 15.206-18.353 17.5-19.5h4.5v-9l-1-1v-3l-1-1v-2l-1-2c-2.84 0-5.76-5.13-7.5-6-7.199-3.599-13.73-8.365-21-12-7.516-3.758-28.931 17-34.5 17v1l-1 1-1 1v4l-1 1v3l-1 1v7h4.5c1.866.933 16.856 17.211 17.5 18.5.701 1.401 4.29 11.5 5 11.5Z"/><path fill="#1B8063" id="SSs2/3" d="m388 172 9 2v-25.5c0-1.392-.833-8.5-2-8.5-3.679 0-6.067 3-9 3 0 9.142 2 18.964 2 29Z"/><path fill="#C9C9CA" id="scwm" d="m113 141-1 2 1-2Z"/><path fill="#187C63" id="SSs4" d="m73 171-5 1 1-23.5 2-5.5 6 2c0 8.274-4 17.223-4 26Z"/><path fill="#C9C9CA" id="scwm" d="m112 143-1 2 1-2Z"/><path fill="#187C63" id="SSs4" d="m383 171 5 1c0-10.036-2-19.858-2-29l-7 2v1c1.513 0 2 5.017 2 6.5 0 6.031 2 11.901 2 18.5Z"/><path fill="#1C8063" id="SSs5" d="m87 169-14 2c0-8.777 4-17.726 4-26 3.173 0 7.333 4 11 4 0 6.182-1 12.372-1 19v1Z"/><path fill="#C9C9CA" id="scwm" d="m111 145-1 2 1-2Z"/><path fill="#1C8063" id="SSs5" d="M369 168c4.569 0 9.062 3 14 3 0-6.599-2-12.469-2-18.5 0-1.483-.487-6.5-2-6.5l-11 3c0 5.678 1 12.682 1 19Z"/><path fill="#C9C9CA" id="scwm" d="m110 147-1 2 1-2Z"/><path fill="#197D63" id="SSs6a" d="m94 167-7 1c0-6.628 1-12.818 1-19h1c8.629 0 5 13.316 5 18Z"/><path fill="#C9C9CA" id="scwm" d="m109 151-2 2c0-1.465-.109-4 2-4v2Z"/><path fill="#197D63" id="SSs6a" d="m362 167 7 1c0-6.318-1-13.322-1-19-8.236 0-6 14.089-6 18Z"/><path fill="#C9C7C9" id="ccb" d="M107 153v4c1.995 0 2-4.377 2-6l-2 2Z"/><path fill="#97D6F9" id="STR" d="m231 170-2.5-4-3.5 5 3.5-20 .5 8 2 11Z"/><path fill="#C9C9CA" id="scwm" d="M106 157h1v-4c-1.579 0-1 2.855-1 4ZM350 156c1.473 0 1 1.952 1 3-1.473 0-1-1.952-1-3Z"/><path fill="#C9C7C9" id="ccb" d="M105 163h1l1-6h-1l-1 6Z"/><path fill="#97D6F9" id="STR" d="m197 157-1 1 1-1Z"/><path fill="#A8AAAA" id="VL" d="m261 161 1 1-1-1Z"/><path fill="#CCC7C9" id="ccg" d="m106 163-1 2v-2h1Z"/><path fill="#A8AAAA" id="VL" d="m195 163-1 1 1-1ZM262 165l1 1-1-1Z"/><path fill="#CCC7C9" id="ccg" d="M351 166h1l-1-1v1Z"/><path fill="#009B74" id="GU6a" d="M103 181c-4.666 0-11.534 6-15 6 0-5.245-1-12.085-1-18v-1l7-1 9-1v15Z"/><path fill="#019C74" id="GU6b" d="M103 181h2v-2c-1.638 0-1.638-12 0-12v-1h-2v15Z"/><path fill="#96A7D3" id="MS" d="M236 236h-6.5l-1 2-2-2c-1.79 0-4.457 1-6.5 1l1-32c0-11.851 4-22.242 4-34l3.5-5 2.5 4c0 11.317 4 21.436 4 33 0 1.145-.579 4 1 4v29Z"/><path fill="#C8CBCC" id="ec" d="m352 180-1 1v-15h1v14Z"/><path fill="#019C74" id="GU6b" d="M352 180h1v-14h-1v14Z"/><path fill="#009B74" id="GU6a" d="M353 181c5.625 0 10.909 6 16 6v-19l-7-1-9-1v15Z"/><path fill="#C8CBCC" id="ec" d="M105 167c-1.638 0-1.638 12 0 12v-12Z"/><path fill="#A8AAAA" id="VL" d="m194 167-1 1 1-1Z"/><path fill="#019C75" id="GU5" d="M381 191h1c0-5.998 1-13.358 1-20-4.938 0-9.431-3-14-3v19c.977 0 12 3.926 12 4ZM88 187l-13 4-2-4.5V171l14-2c0 5.915 1 12.755 1 18Z"/><path fill="#009C74" id="GU4" d="m75 191-3 1c0-6.625-4-13.14-4-20l5-1v15.5l2 4.5Z"/><path fill="#A8AAAA" id="VL" d="M262 196c1.222 0 3 9.322 3 1v-20c0-.986-1.087-6-2-6v4c0 6.903-1 14.772-1 21Z"/><path fill="#009C74" id="GU4" d="m382 191 2 1c0-6.331 4-12.777 4-20l-5-1c0 6.642-1 14.002-1 20Z"/><path fill="#009B75" id="GU2/3" d="M64 196h1c0-.913 5.014-2 6-2l1-2c0-6.625-4-13.14-4-20l-9 2v1c0 7.024 5 14.033 5 21ZM386 194l6 2c0-6.774 5-13.667 5-21v-1l-9-2c0 7.223-4 13.669-4 20l2 2Z"/><path fill="#A8AAAA" id="VL" d="M194 196c0 2.465-3 7.425-3 2 0-6.206 1-12.908 1-18.5 0-1.363-.7-6.5 1-6.5v2c0 7.052 1 14.555 1 21Z"/><path fill="#009C75" id="GU1" d="M64 196c-1.048 0-3-.473-3 1-1.59 0-1.443-4.386-2-5.5L54 176l5-1c0 7.024 5 14.033 5 21Z"/><path fill="#8FCBED" id="LSv" d="m194 196 5.5 5c3.983 1.992 20.5 19.375 20.5 4-.71 0-4.299-10.099-5-11.5-.644-1.289-15.634-17.567-17.5-18.5H193c0 7.052 1 14.555 1 21ZM236 207v1l1.5 3h7c1.681-.84 17.5-14.806 17.5-15 0-6.228 1-14.097 1-21h-4.5c-2.294 1.147-16.674 17.848-17.5 19.5l-4 7c-.619 1.238 1.144 5.5-1 5.5Z"/><path fill="#009C75" id="GU1" d="m392 196 4 1c0-6.774 6-13.71 6-21l-5-1c0 7.333-5 14.226-5 21Z"/><path fill="#1F9766" id="AId6b" d="M351 189h1l1-1v-8h-1l-1 1v8Z"/><path fill="#209666" id="AId6a" d="m98 203-5 1c0-5.273-5-10.738-5-17 3.466 0 10.334-6 15-6 0 1.951.433 9 3 9 0 3.414 3 6.353 3 10h-1c-2.428 0-1.639-13-6.5-13-6.916 0-3.5 13.229-3.5 16Z"/><path fill="#1F9766" id="AId6b" d="M105 182c0 2.707 1 5.903 1 8-2.567 0-3-7.049-3-9h2v1Z"/><path fill="#209666" id="AId6a" d="M363 204h1c0-5.658 5-11.087 5-17-5.091 0-10.375-6-16-6v7c7.754 0 6 7.942 6 14l4 2Z"/><path fill="#C8CBCC" id="ec" d="m112 211 2 3c0-4.225-4.994-21.488-7-25.5-.567-1.134-.546-6.5-2-6.5 0 2.707 1 5.903 1 8 0 3.414 3 6.353 3 10l1 6 1 3v1l1 1ZM345 210l-2 3c0-6.503 3.154-16.809 6-22.5.65-1.3.007-6.5 2-6.5v5c0 2.522-2 4.909-2 8-1.473 0-1 1.952-1 3-.675 0-2 5.294-2 6l-1 4Z"/><path fill="#209665" id="AId5" d="M80 205h1l12-1c0-5.273-5-10.738-5-17l-13 4c0 5.359 5 9.437 5 14Z"/><path fill="#8ADA86" id="CLA" d="M108 200c-2.428 0-1.639-13-6.5-13-6.916 0-3.5 13.229-3.5 16l3.5 5c4.281 2.14 6.5-5.063 6.5-8Z"/><path fill="#209665" id="AId5" d="M376 205h1c0-4.866 4-8.479 4-14 0-.074-11.023-4-12-4 0 5.913-5 11.342-5 17l12 1Z"/><path fill="#8ADA86" id="CLA" d="M349 201c0 3.932 1.895 8.803 7.5 6l2.5-5c0-6.058 1.754-14-6-14l-1 1c0 1.283-1.931 8-3 8v4Z"/><path fill="#209666" id="AId6a" d="M352 189c0 1.283-1.931 8-3 8 0-3.091 2-5.478 2-8h1Z"/><path fill="#209765" id="AId2/3" d="M80 205c0 1.02-3.762 1-5 1 0-4.057-4-7.637-4-12l1-2 3-1c0 5.359 5 9.437 5 14ZM377 205c0 1.374 2.626 1 4 1 0-3.605 5-8.174 5-12l-2-2-2-1h-1c0 5.521-4 9.134-4 14Z"/><path fill="#209865" id="AIp2/3" d="m80 217-5 1c0-5.726-10-14.468-10-22 0-.913 5.014-2 6-2 0 4.363 4 7.943 4 12l5 11ZM377 217l5 1c0-7.388 10-14.348 10-22l-6-2c0 3.826-5 8.395-5 12l-4 11Z"/><path fill="#219765" id="AIp1" d="m75 218-6 2c0-6.405-8-14.836-8-23 0-1.473 1.952-1 3-1h1c0 7.532 10 16.274 10 22Z"/><path fill="#97D6F9" id="STR" d="m220 237-1 6-8.5 1c-3.3-1.65-4.174-5.847-5.5-8.5-.523-1.046.951-3.5-1-3.5l-1-4-1-2v-9c0-4.797-7-17.203-7-7l-3 3c0-5.763-4.334-4-8-4l-2-2 9-9c0 5.425 3 .465 3-2l5.5 5c3.983 1.992 20.5 19.375 20.5 4h1l-1 32ZM236 236l1 7c4.009 0 6.75 1.875 10.5 0 2.4-1.2 3.395-10 4.5-10v-1l1-1v-2l1-4c0-3.51 1-7.022 1-10 0-4.629 6-13.892 6-5l3 2c.652 0 2.095-3.297 3.5-4l5.5 1 1-2-9-10c0 8.322-1.778-1-3-1 0 .194-15.819 14.16-17.5 15h-7l-1.5-3v28Z"/><path fill="#219765" id="AIp1" d="M382 218c0 .672 4.329 2 5 2 0-5.72 9-15.696 9-23l-4-1c0 7.652-10 14.612-10 22Z"/><path fill="#209666" id="AId6a" d="m348 200 1 1v-4c-1.473 0-1 1.952-1 3Z"/><path fill="#1F9866" id="AIv6a" d="m103 210-7 2-3-8 5-1 3.5 5c4.281 2.14 6.5-5.063 6.5-8h1l1 6-5 3-2 1ZM352 209l8 3c0-2.7 3-4.762 3-8l-4-2-2.5 5c-5.605 2.803-7.5-2.068-7.5-6l-1-1c-.675 0-2 5.294-2 6l5 3h1Z"/><path fill="#97D6F9" id="STR" d="M235 203c1.579 0 1 2.855 1 4-1.579 0-1-2.855-1-4Z"/><path fill="#1F9865" id="AIv5" d="m91 214-4 1c0-4.165-6-6.712-6-10l12-1 3 8c-.67 0-5 1.328-5 2ZM365 214l4 1c0-3.323 7-6.583 7-10l-12-1h-1c0 3.238-3 5.3-3 8 .671 0 5 1.328 5 2Z"/><path fill="#219764" id="AIv2/3" d="m87 215-7 2-5-11c1.238 0 5 .02 5-1h1c0 3.288 6 5.835 6 10ZM369 215c3.303 0 5.115 2 8 2l4-11c-1.374 0-4 .374-4-1h-1c0 3.417-7 6.677-7 10Z"/><path fill="#8AD987" id="CTXsp" d="M105 209h6l-1-3-5 3Z"/><path fill="#B3C0DE" id="BST" d="m195 210 7 7c0-4.797-7-17.203-7-7ZM261 210l-6 5c0-4.629 6-13.892 6-5Z"/><path fill="#8AD987" id="CTXsp" d="M351 209c-2.124 0-4.436 1-6 1l1-4 5 3Z"/><path fill="#80CDF8" id="ACB" d="M132 238c0 5.639 5 10.818 5 16l3 3.5c6.808 6.808 13.583 5.5 23 5.5 11.211 0 25.3-13.099 30-22.5 2.032-4.064 8-7.757 8-12.5l1-2v-9l-7-7-3 3c0 8.68-9.345 14.81-13 7.5-2.451-4.902 5-7.969 5-11.5l-2-2c-6.318 0-7.693 19.097-13.5 22-12.28 6.14-18.779 6-33.5 6-1.539 0-3 1.342-3 3ZM325 237c0 5.831-6 11.666-6 17 0 7.81-21.847 11.827-27.5 9-10.463-5.232-20.263-9.025-25.5-19.5-2.214-4.429-11-10.222-11-15.5 0-1.048.473-3-1-3 0-3.51 1-7.022 1-10l6-5 3 2c0 6.501 8.436 17.629 13 8.5 2.413-4.825-4-7.757-4-11.5l1-2c8.905 0 6.864 18.682 13.5 22 12.352 6.176 19.691 6 34.5 6l3 2Z"/><path fill="#CBCBC7" id="aco" d="M184 209c3.666 0 8-1.763 8 4 0 8.68-9.345 14.81-13 7.5-2.451-4.902 5-7.969 5-11.5ZM273 209l-5.5-1c-1.405.703-2.848 4-3.5 4 0 6.501 8.436 17.629 13 8.5 2.413-4.825-4-7.757-4-11.5Z"/><path fill="#99D2BD" id="OLF" d="m105 209-2 1 2-1Z"/><path fill="#A0EE9C" id="EPd" d="m115 231 5 1 2-1.5-1-4.5v-1l-2-2-2-3-1-2-1-1v-1l-1-1v-1l-2-3-1-1v-1h-6l-2 1-3 5.5c-.978 1.956 1 4.077 1 5.5l1 2 2 2 2 1 1 1h1l2 2h1c1.238 0 3 .423 3 2h1ZM337 232h2l2-1 3-1 1-1h1l1-1 2-1h1l1-1 1-1 3-3 1-1v-7.5l-4-4.5h-1c-2.124 0-4.436 1-6 1l-2 3v1l-1 1v1l-1 1v1l-1 1-1 1v1l-1 1-1 1v1l-1 1-1 1c0 5.394 2 5.251 2 6Z"/><path fill="#99D2BD" id="OLF" d="M365 214c-5.362 0-8.332 7-9 7v-7.5l-4-4.5 8 3c.671 0 5 1.328 5 2ZM91 214c5.173 0 6.94 7 10 7 0-1.423-1.978-3.544-1-5.5l3-5.5-7 2c-.67 0-5 1.328-5 2Z"/><path fill="#8AD987" id="CTXsp" d="m111 210 1 1-1-1Z"/><path fill="#6ACAB9" id="PIR" d="M119 263h2l7-4c0-6.771 6.361-7.778 1-18.5-1.562-3.124-6.791-6.145-9.5-7.5-1.119-.559-4.5-.155-4.5-2h-1l-3-2h-1l-2-2h-1l-1-1-2-1-2-2-1-2c-3.06 0-4.827-7-10-7l-4 1-7 2-5 1-6 2c0 5.718 13.56 23.03 17.5 25l8.5 7c6.58 0 24 4.223 24 11Z"/><path fill="#C8CBCC" id="ec" d="m343 214-1 1 1-1Z"/><path fill="#6ACAB9" id="PIR" d="M335 263h2c0-6.606 18.74-11 24-11 2.777 0 4.162-3.831 6.5-5 5.548-2.774 19.5-19.957 19.5-27-.671 0-5-1.328-5-2l-5-1c-2.885 0-4.697-2-8-2l-4-1c-5.362 0-8.332 7-9 7l-1 1-3 3-1 1-1 1h-1l-2 1-1 1h-1l-1 1-3 1-2 1-5.5 3c-3.703 1.851-6.931 7.363-8.5 10.5-2.765 5.53 4 9.605 4 13.5l6 4Z"/><path fill="#C8CBCC" id="ec" d="m114 215 1 1-1-1ZM342 216l-1 1 1-1ZM115 217l1 1-1-1ZM341 218l-1 1 1-1ZM340 219l-1 1 1-1ZM117 220c1.577 0 2 1.762 2 3l-2-3ZM339 221l-1 1 1-1Z"/><path fill="#99D2BD" id="OLF" d="m356 221-1 1 1-1Z"/><path fill="#C8CBCC" id="ec" d="m338 222-1 1 1-1Z"/><path fill="#99D2BD" id="OLF" d="m102 223 2 2-2-2Z"/><path fill="#8AD987" id="CTXsp" d="m119 223 2 2-2-2ZM337 224l-1 1 1-1Z"/><path fill="#E64438" id="HY" d="m255 228-2 1 1-4c1.473 0 1 1.952 1 3Z"/><path fill="#8AD987" id="CTXsp" d="m336 225-1 1 1-1Z"/><path fill="#99D2BD" id="OLF" d="m352 225-1 1 1-1ZM106 226l1 1-1-1Z"/><path fill="#8AD987" id="CTXsp" d="M120 232h5v-2l-4-4 1 4.5-2 1.5Z"/><path fill="#E64438" id="HY" d="M201 228h2l-1-2-1 2Z"/><path fill="#8AD987" id="CTXsp" d="M331 232h6c0-.749-2-.606-2-6l-3 3-1 1v2Z"/><path fill="#99D2BD" id="OLF" d="m351 226-1 1 1-1ZM108 227l2 2-2-2ZM349 227l-2 1 2-1Z"/><path fill="#A2B1D7" id="SI" d="m188 272-1 3c-9.984 0-32.391 4.055-40.5 0l-8-6c-2.504-1.252-9.5-6.859-9.5-10l8-5 3 3.5c6.808 6.808 13.583 5.5 23 5.5 11.211 0 25.3-13.099 30-22.5 2.032-4.064 8-7.757 8-12.5h2l1 4c0 6.756-2 13.122-2 19-1.998 0-2.337 5.174-3 6.5l-7 8.5c-1.077 0-3 3.762-3 5l-1 1ZM268 272l1 3c18.491 0 30.213 4.143 46.5-4 2.983-1.491 11.5-8.289 11.5-12 0-1.178-6.471-5-8-5 0 7.81-21.847 11.827-27.5 9-10.463-5.232-20.263-9.025-25.5-19.5-2.214-4.429-11-10.222-11-15.5l-2 1v2l-1 1v1c0 6.52 3 12.991 3 18 0 5.15 10 13.693 10 16 1.477 0 3 3.924 3 5Z"/><path fill="#99D2BD" id="OLF" d="m347 228-1 1 1-1ZM111 229c1.238 0 3 .423 3 2l-3-2Z"/><path fill="#97D6F9" id="STR" d="m332 229-1 1 1-1Z"/><path fill="#99D2BD" id="OLF" d="m345 229-1 1 1-1Z"/><path fill="#97D6F9" id="STR" d="M135 235c-1.539 0-3 1.342-3 3-2.465 0-3.564-6-7-6v-2l10 5ZM322 235l3 2 6-5v-2l-9 5Z"/><path fill="#99D2BD" id="OLF" d="M128 259h1l8-5c0-5.182-5-10.361-5-16-2.465 0-3.564-6-7-6h-5l-5-1c0 1.845 3.381 1.441 4.5 2 2.709 1.355 7.938 4.376 9.5 7.5 5.361 10.722-1 11.729-1 18.5Z"/><path fill="#E64438" id="HY" d="m253 231-1 1 1-1Z"/><path fill="#99D2BD" id="OLF" d="m341 231-2 1 2-1Z"/><path fill="#E64438" id="HY" d="m209 256-2 1c0-3.71-.914-6-5-6 0-5.878 2-12.244 2-19 1.951 0 .477 2.454 1 3.5 1.326 2.653 2.2 6.85 5.5 8.5l8.5-1c0 1.041-.986 5-2 5-2.24 0-8 4.27-8 8Z"/><path fill="#99D2BD" id="OLF" d="M327 259h2c0-3.895-6.765-7.97-4-13.5 1.569-3.137 4.797-8.649 8.5-10.5l5.5-3h-8l-6 5c0 5.831-6 11.666-6 17 1.529 0 8 3.822 8 5Z"/><path fill="#E64438" id="HY" d="m246 255 4 3c0-3.984-.774-7 5-7 0-5.009-3-11.48-3-18-1.105 0-2.1 8.8-4.5 10-3.75 1.875-6.491 0-10.5 0l2 5c2.065 0 11.622 7 7 7Z"/><path fill="#96A6D3" id="NDB" d="m210 272-2 1c-4.28 0-15 5.32-15-4l2-2c1.862 0 12-7.794 12-10l2-1 3-2 1-1 1-1c2.409 0 3-1.957 3-4 1.014 0 2-3.959 2-5l1-6c2.043 0 4.71-1 6.5-1l2 2 1-2h6.5l1 7 2 5c0 1.238.423 3 2 3l4 4h1l4 3c0 1.912 10.22 9 12 9l1 2c0 13.771-16.004 1-19 1l-2-1-2-3c0-2.691-9.187-20-11.5-20-3.4 0-12.5 18.175-12.5 21l-1 2h-1l-1 1-1 1h-1l-1 1Z"/><path fill="#FE5446" id="AVPV" d="M217 268c4.757 0 7.36-3.43 10.5-5l3 2c2.472 1.236 5.571 3 8.5 3l1-2c0-2.691-9.187-20-11.5-20-3.4 0-12.5 18.175-12.5 21l1 1Z"/><path fill="#FF5346" id="MPO" d="m212 254-3 2c0-3.73 5.76-8 8-8 0 2.043-.591 4-3 4l-1 1-1 1ZM245 255h1c4.622 0-4.935-7-7-7 0 1.238.423 3 2 3l4 4Z"/><path fill="#F2473B" id="LPO" d="M192 266c0 1.473 1.952 1 3 1 1.862 0 12-7.794 12-10 0-3.71-.914-6-5-6-1.998 0-2.337 5.174-3 6.5l-7 8.5Z"/><path fill="#E64438" id="HY" d="m241 251 4 4-4-4Z"/><path fill="#F2473B" id="LPO" d="M262 267h3c0-2.307-10-10.85-10-16-5.774 0-5 3.016-5 7 0 1.912 10.22 9 12 9Z"/><path fill="#CAC8C7" id="lot" d="m119 268-1 1c-2.638 0-4.672-3.172-6.5-5-3.22-3.22-16.5-7.511-16.5-12 6.58 0 24 4.223 24 11v5Z"/><path fill="#E64438" id="HY" d="m214 252-1 1 1-1Z"/><path fill="#CAC8C7" id="lot" d="M338 268v1c3.526 0 4.6-4.55 7.5-6 3.873-1.937 15.5-6.914 15.5-11-5.26 0-24 4.394-24 11v4l1 1Z"/><path fill="#E64438" id="HY" d="m213 253-1 1 1-1Z"/><path fill="#7FCCF7" id="OT" d="M187 275c4.743 0 10-.103 10 6 0 9.165-8.164 10.832-14.5 14h-6c-15.718 7.859-40.635 5.23-49.5-12.5-1.97-3.94-7-6.787-7-11.5l-1-2v-1l1-2 1-3 7-4h1c0 3.141 6.996 8.748 9.5 10l8 6c8.109 4.055 30.516 0 40.5 0ZM269 275c-4.743 0-10-.103-10 6 0 8.2 8.75 11.125 14.5 14h6c3.253 1.627 7.853.426 11 2 15.09 7.545 33.777-4.055 39.5-15.5 1.694-3.389 7-6.555 7-10.5v-6l-2-2-6-4h-2c0 3.711-8.517 10.509-11.5 12-16.287 8.143-28.009 4-46.5 4Z"/><path fill="#99D2BD" id="OLF" d="M119 266h1l1-3h-2v3ZM337 263v2l-2-2h2Z"/><path fill="#97D6F9" id="STR" d="m120 266-1 2v-2h1Z"/><path fill="#E64438" id="HY" d="m193 269-4 2c0-1.238 1.923-5 3-5 0 1.473 1.952 1 3 1l-2 2ZM239 268c0 1.473 1.952 1 3 1l-2-3-1 2ZM217 268l-2 1 1-2 1 1ZM263 269c2.364 0 3.053 3 5 3 0-1.076-1.523-5-3-5h-3l1 2Z"/><path fill="#99D2BD" id="OLF" d="M337 268h1l-1-1v1ZM118 269h1v-1l-1 1Z"/><path fill="#97D6F9" id="STR" d="m338 269-1 2v-3h1v1ZM119 269l1 2-2-2h1Z"/><path fill="#8599CC" id="PAL" d="M187 275c4.743 0 10-.103 10 6 1.605 0 11-6.532 11-8-4.28 0-15 5.32-15-4l-4 2-1 1-1 3ZM214 269l-1 1 1-1ZM269 275c-4.743 0-10-.103-10 6-3.243 0-9.463-6.481-12.5-8l-2.5-3c2.996 0 19 12.771 19-1 2.364 0 3.053 3 5 3l1 3ZM213 270l-1 1 1-1Z"/><path fill="#E64438" id="HY" d="m189 271-1 1 1-1Z"/><path fill="#8599CC" id="PAL" d="m211 271-1 1 1-1ZM210 272l-2 1 2-1Z"/><path fill="#CBCCC7" id="IIn" d="M215 275c0 1.189-6.89 5.28-8 7.5-1.953 3.907 4.445 7.027 7.5 5.5 8.1-4.05 14.115-13 .5-13ZM234 275l-1 4.5c1.564 3.128 12.503 13.995 16 7 4.198-8.396-9.978-11.5-15-11.5Z"/></svg>