<svg xmlns="http://www.w3.org/2000/svg" viewBox="0 0 456 320"><path fill="#1E9C59" id="MOs1" d="m225 61-4 2c0-3.14-6.996-8.748-9.5-10-8.149-4.075-24.096-6.452-33-2-3.99 1.995-8.73 4-13.5 4v-6c3.291 0 8.572-2.536 11.5-4h5c11.321-5.66 28.221-1.78 36 6 2.354 2.354 7.5 7.506 7.5 10ZM235 63h1c0-2.937 4.225-6.862 6.5-8 3.295-1.648 5.782-4.391 9-6 9.265-4.633 31.006 6 39.5 6v-6c-2.935 0-7.842-2.671-10.5-4h-6c-10.727-5.364-31.881-2.737-37.5 8.5-1.245 2.49-5 3.775-5 6.5l3 3Z"/><path fill="#1E9D5A" id="MOp1" d="M105 81v6c4.281 0 9.641-8.07 13.5-10 8.143-4.072 39.182-21 46.5-21v-7c-8.154 0-37.646 18.573-46.5 23-2.246 1.123-13.5 6.144-13.5 9Z"/><path fill="#1E9D58" id="MOs2/3" d="M215 67c-.177 0-13.03-11.235-21.5-7l-10 3L165 73V55c4.77 0 9.51-2.005 13.5-4 8.904-4.452 24.851-2.075 33 2 2.504 1.252 9.5 6.86 9.5 10l-6 4ZM242 67l6.5-6c2.297-1.149 12.218-2.391 15-1 2.716 1.358 27.782 13 28.5 13 0-5.664-1-10.219-1-17v-1c-8.494 0-30.235-10.633-39.5-6-3.218 1.609-5.705 4.352-9 6-2.275 1.138-6.5 5.063-6.5 8 0 1.428 4.822 4 6 4Z"/><path fill="#1E9D5A" id="MOp1" d="M351 80c0 1.819 1 4.59 1 7l-14.5-10c-8.533-4.267-38.616-21-46.5-21v-7c7.958 0 37.757 18.628 46.5 23l13.5 8Z"/><path fill="#1F9C58" id="MOp2/3" d="M107 113h1c0-4.396 8.714-10.214 11.5-13 8.87-8.87 20.567-13.784 31-19 4.464-2.232 9.296-8 14.5-8V56c-7.318 0-38.357 16.928-46.5 21-3.859 1.93-9.219 10-13.5 10l1 17c1.751 0 1 7.426 1 9ZM350 104c0 2.097-1 5.293-1 8l-10.5-11-10-8c-7.358-3.68-14.699-8.35-22-12-4.01-2.005-9.984-8-14.5-8 0-5.664-1-10.219-1-17 7.884 0 37.967 16.733 46.5 21L352 87v1l-2 16Z"/><path fill="#1F9D58" id="MOs5" d="M198 83h1c0-3.834 12.545-15 16-15v-1c-.177 0-13.03-11.235-21.5-7l-10 3L165 73c0 5.21-1 13.055-1 20 5.613 0 18.996-9.248 24.5-12 1.263-.632 9.5-.96 9.5 2Z"/><path fill="#3EA665" id="ACAd1" d="M223 94h11c0-10.355 1-21.268 1-31l-3-3-3.5 5-3.5-4-4 2c0 2.722.836 6.171 2 8.5V94Z"/><path fill="#1F9D58" id="MOs5" d="M258 83c0-2.96 8.237-2.632 9.5-2 5.913 2.957 19.34 12 25.5 12 0-5.485-1-12.337-1-20-.718 0-25.784-11.642-28.5-13-2.782-1.391-12.703-.149-15 1l-6.5 6v1c2.185 0 15 11.76 15 15h1Z"/><path fill="#40A565" id="ACAd2/3" d="m223 94-6 1V72.5l-2-4.5v-1l6-4c0 2.722.836 6.171 2 8.5V94ZM234 94l5 1c0-6.228 1-14.097 1-21 0-1.623.005-6 2-6v-1c-1.178 0-6-2.572-6-4h-1c0 9.732-1 20.645-1 31Z"/><path fill="#3EA566" id="ACAd5" d="M217 95c-5.474 0-10.305 8-15 8l-1-17.5-2-2.5c0-3.834 12.545-15 16-15l2 4.5V95ZM239 95c5.554 0 9.804 7 15 7 0-5.012 3-15.377 3-19 0-3.24-12.815-15-15-15-1.995 0-2 4.377-2 6 0 6.903-1 14.772-1 21Z"/><path fill="#1E9C5A" id="MOp5" d="M108 113c0 5.601 3 10.886 3 16 .494 0 9.268-12.384 12.5-14l4-4c7.042-3.521 28.907-17 35.5-17l1-1c0-6.945 1-14.79 1-20-5.204 0-10.036 5.768-14.5 8-10.433 5.216-22.13 10.13-31 19-2.786 2.786-11.5 8.604-11.5 13ZM345 131h1c0-7.104 3-11.579 3-18v-1l-10.5-11-10-8c-7.358-3.68-14.699-8.35-22-12-4.01-2.005-9.984-8-14.5-8 0 7.663 1 14.515 1 20v1c9.356 0 26.776 12.638 35.5 17l7 6c3.705 1.852 9.5 10.3 9.5 14Z"/><path fill="#1D9C5A" id="MOs6a" d="M164 115h1c0-3.467 11.169-6 14-6 0-1.714 5.594-1 7-1 0-8.43 12-21.018 12-25 0-2.96-8.237-2.632-9.5-2-5.504 2.752-18.887 12-24.5 12l-1 1c1.156 0 1.472 2.555 1 3.5-2.358 4.716 0 11.912 0 17.5ZM292 115h1V93c-6.16 0-19.587-9.043-25.5-12-1.263-.632-9.5-.96-9.5 2 1.805 0 13 21.907 13 25 3.713 0 21 3.636 21 7Z"/><path fill="#187E61" id="SSp-m1" d="m384 165 5 1c0-19.013-1.169-36.838-9-52.5-2.618-5.235-6.339-9.677-9-15-1.788-3.576-16.134-18.5-20-18.5 0 1.819 1 4.59 1 7v1c4.94 0 8.081 9.29 11.5 11 4.43 2.215 8.256 11.012 10.5 15.5 10.04 20.08 10 27.868 10 50.5ZM72 165l-4 1c0-4.804-3.533-15.434-1-20.5 1.949-3.898 1.082-9.163 3-13 4.594-9.189 6.366-19.733 11-29 1.353-2.707 4.995-4.99 6-7C89.257 91.987 99.846 81 105 81v6c-1.658 0-14.85 14.202-16 16.5l-8 12c-7.66 15.321-9 30.835-9 49.5Z"/><path fill="#3FA664" id="ACAd6a" d="m186 108 6 4 10-9-1-17.5-2-2.5h-1c0 3.982-12 16.57-12 25ZM264 113h1c0-2.226 1.774-4 4-4l2-1c0-3.093-11.195-25-13-25h-1c0 3.623-3 13.988-3 19v1l10 10Z"/><path fill="#1A7E64" id="SSp-m2/3" d="m83 163-11 2c0-18.665 1.34-34.179 9-49.5l8-12c1.15-2.298 14.342-16.5 16-16.5l1 17c-4.251 0-10.107 10.714-12 14.5-7.319 14.638-11 26.595-11 44.5ZM374 163l10 2c0-22.632.04-30.42-10-50.5-2.244-4.488-6.07-13.285-10.5-15.5-3.419-1.71-6.56-11-11.5-11l-2 16c5.21 0 10.244 9.988 12 13.5 7.299 14.599 12 27.738 12 45.5Z"/><path fill="#1F9B5A" id="MOp6a" d="m124 165-12 5c0-2.448-1.489-13-2-13 0-8.892 3-18.119 3-24.5l-2-.5v-3c.494 0 9.268-12.384 12.5-14l4-4c7.042-3.521 28.907-17 35.5-17 1.156 0 1.472 2.555 1 3.5-2.358 4.716 0 11.912 0 17.5-1.85 0-5 2.23-5 4-5.148 0-8.196 5.848-12.5 8-14.807 7.404-22.5 21.946-22.5 38Z"/><path fill="#3FA566" id="ACAv2/3" d="M221 142h1c0-15.589 1-32.265 1-48l-6 1c0 16.243 2 31.58 2 47h2Z"/><path fill="#40A664" id="ACAv1" d="M227 136c-2.629 0-.958 6-5 6 0-15.589 1-32.265 1-48h11v48c-4.57 0-1.883-7-5-7 0-11.228-2-7.151-2 1Z"/><path fill="#3FA566" id="ACAv2/3" d="M236 142h1c0-2.805.693-9.886 2-12.5V95l-5-1v48h2Z"/><path fill="#1F9B5A" id="MOp6a" d="m332 165 13 5c0-3.094.493-13 2-13 0-9.761-2-16.009-2-26 0-3.7-5.795-12.148-9.5-14l-7-6c-8.724-4.362-26.144-17-35.5-17v21c3.284 0 12.925 10.213 16.5 12 15.259 7.63 22.5 20.827 22.5 38Z"/><path fill="#3EA666" id="ACAv5" d="M213 142h6c0-15.42-2-30.757-2-47-5.474 0-10.305 8-15 8 0 9.522 1.03 20.561 5 28.5 1.516 3.032 6 7.052 6 10.5ZM237 142h6l6-9.5c4.235-8.471 5-19.258 5-29.5v-1c-5.196 0-9.446-7-15-7v34.5c-1.307 2.614-2 9.695-2 12.5Z"/><path fill="#40A564" id="ACAv6a" d="M203 134c3.741 0 5.783 8 10 8 0-3.448-4.484-7.468-6-10.5-3.97-7.939-5-18.978-5-28.5l-10 9v1l3 4.5c1.765 3.529 8 10.637 8 14.5v2ZM253 134c-3.632 0-5.339 8-10 8l6-9.5c4.235-8.471 5-19.258 5-29.5l10 10c0 7.013-11 12.991-11 20v1Z"/><path fill="#1B7F62" id="SSp-m4" d="m88 162-5 1c0-17.905 3.681-29.862 11-44.5 1.893-3.786 7.749-14.5 12-14.5 1.751 0 1 7.426 1 9 0 .083-8.205 11.911-9 13.5-5.105 10.21-9 22.231-9 34.5l-1 1ZM373 163h1c0-17.762-4.701-30.901-12-45.5-1.756-3.512-6.79-13.5-12-13.5 0 2.097-1 5.293-1 8v1l6.5 9c6.251 6.251 12.5 29.675 12.5 39v1l5 1Z"/><path fill="#1E9C58" id="MOs6b" d="M179 109h7v-1c-1.406 0-7-.714-7 1Z"/><path fill="#3FA466" id="ACAd6b" d="M191 113h1v-1l-6-4v1l5 4ZM269 109h2v-1l-2 1Z"/><path fill="#1E9C58" id="MOs6b" d="M292 115v1c-2.21 0-12.823-7-21-7v-1c3.713 0 21 3.636 21 7ZM179 109c-2.831 0-14 2.533-14 6 1.571 0 14-5.054 14-6Z"/><path fill="#CACCC7" id="cing" d="M203 132v2c-8.198 0-9.626-16.563-16.5-20-6.712-3.356-12.027 3-18.5 3h-4v-1l1-1c1.571 0 14-5.054 14-6h7l5 4c0 2.14 9.722 19 12 19Z"/><path fill="#3FA466" id="ACAd6b" d="M269 109c-2.226 0-4 1.774-4 4l4-4Z"/><path fill="#CACCC7" id="cing" d="M288 117h5l-1-1c-2.21 0-12.823-7-21-7h-2l-4 4c0 5.183-11 17.89-11 20 7.738 0 8.31-14.905 14.5-18 8.092-4.046 11.694 2 19.5 2Z"/><path fill="#1B7E63" id="SSp-m5" d="M105 158c-6.037 0-10.255 3-16 3 0-12.269 3.895-24.29 9-34.5.795-1.589 9-13.417 9-13.5h1c0 5.601 3 10.886 3 16v3c-3.56 0-6 21.663-6 26Z"/><path fill="#CCC7C9" id="ccg" d="M213 142c0 2.755 2 5.553 2 9-6.838 0-15.15-9.801-18-15.5-4.59-9.18-21.104-16.5-31-16.5l2-2c6.473 0 11.788-6.356 18.5-3 6.874 3.437 8.302 20 16.5 20 3.741 0 5.783 8 10 8Z"/><path fill="#40A465" id="ACAv6b" d="m192 113 3 4.5c1.765 3.529 8 10.637 8 14.5-2.278 0-12-16.86-12-19h1ZM253 133h1c0-2.11 11-14.817 11-20h-1c0 7.013-11 12.991-11 20Z"/><path fill="#CCC7C9" id="ccg" d="m243 142-2 9c8.15 0 18.381-12.263 22-19.5 3.25-6.501 18.834-12.5 27-12.5l-2-2c-7.806 0-11.408-6.046-19.5-2-6.19 3.095-6.762 18-14.5 18l-1 1c-3.632 0-5.339 8-10 8Z"/><path fill="#1B7E63" id="SSp-m5" d="M351 158c5.87 0 10.649 3 17 3 0-9.325-6.249-32.749-12.5-39l-6.5-9c0 6.421-3 10.896-3 18l3 6.5c2.627 5.253 2 14.234 2 20.5Z"/><path fill="#1D9D5A" id="MOp6b" d="m164 117-5 2c0-1.77 3.15-4 5-4v2Z"/><path fill="#1E9C58" id="MOs6b" d="m165 115-1 1v-1h1Z"/><path fill="#1D9D5A" id="MOp6b" d="m331 164 1 1c0-17.173-7.241-30.37-22.5-38-3.575-1.787-13.216-12-16.5-12h-1v1l1 1c3.537 0 8.297 6.399 11.5 8 14.246 7.123 26.5 22.19 26.5 39Z"/><path fill="#C9C9CA" id="scwm" d="m126 165 1 1c0-16.813 10.314-31.407 25.5-39 3.987-1.994 8.929-8 13.5-8l2-2h-4l-5 2c0 1.28-13.427 9.927-16 12.5-10.77 10.77-17 17.761-17 33.5ZM331 164c-1.684 0-1 4.679-1 6-1.614 0-1-3.31-1-4.5 0-4.766-.013-11.026-2-15-4.549-9.098-26.808-31.5-37-31.5l-2-2h5c3.537 0 8.297 6.399 11.5 8 14.246 7.123 26.5 22.19 26.5 39Z"/><path fill="#1D9D5A" id="MOp6b" d="M124 165h2c0-15.739 6.23-22.73 17-33.5 2.573-2.573 16-11.22 16-12.5-5.148 0-8.196 5.848-12.5 8-14.807 7.404-22.5 21.946-22.5 38Z"/><path fill="#CAC7CC" id="fa" d="m130 171-3 1v-6c0-16.813 10.314-31.407 25.5-39 3.987-1.994 8.929-8 13.5-8 9.896 0 26.41 7.32 31 16.5 2.85 5.699 11.162 15.5 18 15.5v1c0 1.897-5.81 9.155-7.5 10-2.116 1.058-2.898-2-4.5-2 0-2.438-4.598-13-8-13l-3.5-5c-4.331-4.331-8.078-6.539-13-9-11.198-5.599-38.62 2.74-43.5 12.5-4.175 8.349-5 15.274-5 25.5ZM326 171l3 1 1-2c-1.614 0-1-3.31-1-4.5 0-4.766-.013-11.026-2-15-4.549-9.098-26.808-31.5-37-31.5-8.166 0-23.75 5.999-27 12.5-3.619 7.237-13.85 19.5-22 19.5v2c3.98 0 2.2 8 12 8v-1l1-1c0-3.078 4.336-12 8-12 0-10.148 28.377-19.561 37.5-15 22.066 11.033 26.5 13.546 26.5 39Z"/><path fill="#187D61" id="SSp-m6a" d="m347 157 4 1c0-6.266.627-15.247-2-20.5l-3-6.5h-1c0 9.991 2 16.239 2 26ZM110 157l-5 1c0-4.337 2.44-26 6-26l2 .5c0 6.381-3 15.608-3 24.5Z"/><path fill="#98D5F9" id="CP" d="M143 224c2.43 0 3.484 5 7 5 12.526 0 8.378-2.255 13-11.5l6-8c3.429-6.857 13.414-9.457 19.5-12.5l6.5-5v-2c0-11.218 2-22.901 2-35l-2-8-3.5-5c-4.331-4.331-8.078-6.539-13-9-11.198-5.599-38.62 2.74-43.5 12.5-4.175 8.349-5 15.274-5 25.5 1.658 0 2.281 8.063 3 9.5 3.457 6.915 4 14.09 4 22.5l4 15c0 2.447 2 3.28 2 6ZM313 225c-2.46 0-4.17 4-7 4l-4.5 1c-6.787-3.394-9.44-12.38-12.5-18.5-4.538-9.076-14.074-10.787-21.5-14.5l-5.5-5-1-2c0-11.837-2-22.867-2-35l3-8c0-10.148 28.377-19.561 37.5-15 22.066 11.033 26.5 13.546 26.5 39 0 7.948-7 19.362-7 32v4c-1.663 0-2 5.407-2 7v1l-1 2c0 3.239-3 4.575-3 8Z"/><path fill="#CACCC7" id="cing" d="m254 133-1 1v-1h1Z"/><path fill="#7ED04B" id="IG" d="m227 165-1 1c-2.207 0-.338-5.176-1-6.5l-2-2.5v-6l-1-9c4.042 0 2.371-6 5-6 0 10.435 2 8.022 2-1 3.117 0 .43 7 5 7l-1 9c0 1.564 1 3.876 1 6-2.567 0-3 7.049-3 9l-2-2c0-11.549-2-6.647-2 1Z"/><path fill="#A3DAA3" id="DP" d="M215 151v1c2.024 0 6 2.246 6-2v-8h-8c0 2.755 2 5.553 2 9Z"/><path fill="#CCC7C9" id="ccg" d="m221 150 2 1-1-9h-1v8ZM235 150l-2 1 1-9h2c0 1.49.735 8-1 8Z"/><path fill="#A3DAA3" id="DP" d="M241 151v2c-1.999 0-6-.067-6-3 1.735 0 1-6.51 1-8h7l-2 9Z"/><path fill="#AAA8A9" id="SEZ" d="M203 169c0 1.357-.647 6-2 6 0-4.531 1.661-20-4-20l-2-8c3.402 0 8 10.562 8 13v9ZM256 181h1c0-3.671-4.606-26 2-26l3-8c-3.664 0-8 8.922-8 12l-1 1v8c0 3.912 3 8.813 3 13Z"/><path fill="#99D2BD" id="OLF" d="M203 169c1.947 0 3.644-3.428 6.5-2l3.5 3-4-7.5c0-4.721 10.737-5.5 14-5.5v-6l-2-1c0 4.246-3.976 2-6 2 0 1.897-5.81 9.155-7.5 10-2.116 1.058-2.898-2-4.5-2v9ZM245 168h8v-7c-9.8 0-8.02-8-12-8-1.999 0-6-.067-6-3l-2 1c0 1.564 1 3.876 1 6 2.931 0 16.106 1.288 13 7.5-.809 1.619-2 1.471-2 3.5Z"/><path fill="#A8AAAA" id="VL" d="M198 189c0 2.681-2.078 1-3 1 0-11.218 2-22.901 2-35 5.661 0 4 15.469 4 20-1.175 0-2 5.704-2 7v5l-1 2ZM258 187c0 2.041.959 3 3 3 0-11.837-2-22.867-2-35-6.606 0-2 22.329-2 26v2c1.579 0 1 2.855 1 4Z"/><path fill="#009B74" id="GU6a" d="M112 170c-1.974 0-3.517 2-6 2 0-4.725-1-9.879-1-14l5-1c.511 0 2 10.552 2 13Z"/><path fill="#61D09F" id="TTd" d="m213 170 1 1 6.5 4c6.195 3.097 5.5-5.676 5.5-9-2.207 0-.338-5.176-1-6.5l-2-2.5c-3.263 0-14 .779-14 5.5l4 7.5ZM245 168l-5 5c-8.462 0-9 6.977-9-7 0-1.951.433-9 3-9 2.931 0 16.106 1.288 13 7.5-.809 1.619-2 1.471-2 3.5Z"/><path fill="#009B74" id="GU6a" d="M350 173h1v-15l-4-1c-1.507 0-2 9.906-2 13l5 3Z"/><path fill="#019C75" id="GU5" d="m106 173-18 7v-18l1-1c5.745 0 9.963-3 16-3 0 4.121 1 9.275 1 14v1ZM351 173c6.143 0 11.417 7 18 7 0-6.102-1-12.479-1-18v-1c-6.351 0-11.13-3-17-3v15Z"/><path fill="#99D2BD" id="OLF" d="m254 159-1 1 1-1Z"/><path fill="#009C74" id="GU4" d="m89 161-1 1 1-1ZM87 180h1v-18l-5 1c0 3.613.562 17 4 17ZM369 181h1c0-4.409 3-11.149 3-18l-5-1c0 5.521 1 11.898 1 18v1Z"/><path fill="#009B75" id="GU2/3" d="M87 180c0 .508-9.527 4-11 4 0-6.007-4-12.678-4-19l11-2c0 3.613.562 17 4 17ZM380 185h1l3-20-10-2h-1c0 6.851-3 13.591-3 18 2.161 0 10 1.729 10 4Z"/><path fill="#99D2BD" id="OLF" d="M214 171c0 8.811 26 10.982 26 2-8.462 0-9 6.977-9-7l-2-2c0 4.391-2 6.288-2 1l-1 1c0 3.324.695 12.097-5.5 9l-6.5-4Z"/><path fill="#1F9766" id="AId6b" d="M327 181h1l2-3c0-3.879 2-8.27 2-13l-1-1c-1.684 0-1 4.679-1 6l-1 2c0 3.489-2 5.32-2 9Z"/><path fill="#009C75" id="GU1" d="m76 185-4 1-4-20 4-1c0 6.322 4 12.993 4 19v1Z"/><path fill="#209666" id="AId6a" d="m119 193-4 1c-5.742 0-9-16.082-9-21v-1c2.483 0 4.026-2 6-2l12-5c0 5.145 3 10.428 3 14-14.723 0-8 3.942-8 14Z"/><path fill="#1F9766" id="AId6b" d="M128 181h2l-3-9v-6l-1-1h-2c0 5.145 3 10.428 3 14l1 2Z"/><path fill="#209666" id="AId6a" d="M341 195h1c0-4.324 6.133-8.765 8-12.5V173l-5-3-13-5c0 4.73-2 9.121-2 13 14.672 0 7 7.808 7 15l4 2Z"/><path fill="#009C75" id="GU1" d="M381 185c1.048 0 3-.473 3 1 2.064 0 .426-3.353 1-4.5 1.781-3.562 4-11.56 4-15.5l-5-1-3 20Z"/><path fill="#97D6F9" id="STR" d="M217 265h2l2-4c0-1.235-.643-5 1-5 0-7.847-1.598-26.304 2-33.5 1.343-2.685-.732-9.884 2.5-11.5 4.518-2.259 5.392 6.283 6.5 8.5.737 1.474 2 32.934 2 35.5 0 2.354.554 10 4 10l1-6v-17.5c0-1.21.814-5.5 2-5.5v-16l-4.5 1c-10.488-5.244-1.075-40.463 6-44l4 2c2.817 1.409 5.03 2 8.5 2 0-4.187-3-9.088-3-13h-8l-5 5c0 8.982-26 6.811-26-2l-1-1-3.5-3c-2.856-1.428-4.553 2-6.5 2 0 1.357-.647 6-2 6 0 2.124-1 4.436-1 6 3.47 0 5.683-.591 8.5-2l4-2c8.09 4.045 16.908 38.546 6 44-2.712 1.356-3.183-2-4.5-2 0 5.521 1 11.898 1 18 1.684 0 1 4.679 1 6 0 6.418 1 11.557 1 18v4Z"/><path fill="#C8CBCC" id="ec" d="M136 203h1c0-8.41-.543-15.585-4-22.5-.719-1.437-1.342-9.5-3-9.5l-3 1 3 9c1.579 0 1 2.855 1 4 1.995 0 2 4.377 2 6v2c3.29 0 2 9.104 2 10h1ZM319 203h2c0-2.04-1.087-9 2-9v-2c0-1.623.005-6 2-6 0-1.622-.461-5 2-5 0-3.68 2-5.511 2-9l-3-1c0 7.948-7 19.362-7 32Z"/><path fill="#209665" id="AId5" d="M94 200h1c6.615 0 12.859-5 20-5v-1c-5.742 0-9-16.082-9-21l-18 7c0 5.358.757 12.014 3 16.5l3 3.5ZM342 195c6.979 0 13.207 5 20 5 2.958 0 7-16.061 7-19v-1c-6.583 0-11.857-7-18-7h-1v9.5c-1.867 3.735-8 8.176-8 12.5Z"/><path fill="#AAA8A9" id="SEZ" d="m200 181-1 1c0-1.296.825-7 2-7 0 2.124-1 4.436-1 6Z"/><path fill="#90CAED" id="LSr" d="M214 218v1c1.317 0 1.788 3.356 4.5 2 10.908-5.454 2.09-39.955-6-44l-4 2c-2.817 1.409-5.03 2-8.5 2l-1 1v7l5 10 1 2 2 2v1l1 1v1l1 1 1 3 1 1 1 3 1 1v2l1 1ZM243 218l-1 2-4.5 1c-10.488-5.244-1.075-40.463 6-44l4 2c2.817 1.409 5.03 2 8.5 2h1v6c0 2.124-1 4.436-1 6l-1 2-1 1-1 1v1l-1 1-1 1v1l-1 1-1 3-1 1-1 3-1 1-1 3-1 1-1 4Z"/><path fill="#8ADA86" id="CLA" d="m119 193 4 7.5c2.542 5.084 10-.274 10-7.5v-2c-1.638 0-2-3.576-2-5l-3-5-1-2c-14.723 0-8 3.942-8 14ZM337 193c0 9.455-14 12.437-14 1v-2l3-6 2-5 2-3c14.672 0 7 7.808 7 15Z"/><path fill="#209765" id="AId2/3" d="M94 200c0 .122-9.953 4-11 4 0-4.726-7-12.853-7-19v-1c1.473 0 11-3.492 11-4h1c0 5.358.757 12.014 3 16.5l3 3.5Z"/><path fill="#209666" id="AId6a" d="M131 185v1l-3-5h2c1.579 0 1 2.855 1 4ZM325 186h1l2-5h-1c-2.461 0-2 3.378-2 5Z"/><path fill="#209765" id="AId2/3" d="M362 201c4.404 0 6.758 2 11 2 1.867 0 7-15.29 7-18 0-2.271-7.839-4-10-4h-1c0 2.939-4.042 19-7 19v1Z"/><path fill="#AAA8A9" id="SEZ" d="M257 187h1c0-1.145.579-4-1-4v4Z"/><path fill="#209764" id="AId1" d="m83 204-4 1c0-6.246-7-12.344-7-19l4-1c0 6.147 7 14.274 7 19Z"/><path fill="#1F9866" id="AIv6a" d="M131 186c0 1.424.362 5 2 5 0-1.623-.005-6-2-6v1Z"/><path fill="#209764" id="AId1" d="m373 204 4 1c1.845 0 1.441-3.381 2-4.5 2.11-4.22 5-9.524 5-14.5 0-1.473-1.952-1-3-1h-1c0 2.71-5.133 18-7 18v1Z"/><path fill="#1F9866" id="AIv6a" d="m326 186-3 6c0-1.623.005-6 2-6h1Z"/><path fill="#AAA8A9" id="SEZ" d="M198 189h1v-2l-1 2Z"/><path fill="#97D6F9" id="STR" d="m262 192-6 1c0-1.564 1-3.876 1-6h1c0 2.041.959 3 3 3l1 2ZM195 192c5.898 0 8.025 7 9 7l-5-10h-1c0 2.681-2.078 1-3 1v2Z"/><path fill="#80CDF8" id="ACB" fill-rule="evenodd" d="M177 210c0 1.765-1.581.541-2.5 1l-4.5 6.5c-2.006 4.013 2.347 5.424 4.5 6.5 7.214 3.607 11.117-14 2.5-14m38 27c-2.064 0-.426 3.353-1 4.5l-5 9c-3.786 7.571-12.553 9.526-18.5 12.5-8.326 4.163-27.948-2.474-35-6-2.334-1.167-2.6-10-4.5-10 0-5.915-1-12.755-1-18 12.526 0 8.378-2.255 13-11.5l6-8c3.429-6.857 13.414-9.457 19.5-12.5l6.5-5c5.898 0 8.025 7 9 7l1 2 2 2v1l1 1v1l1 1 1 3 1 1 1 3 1 1v2l1 1v1c0 5.521 1 11.898 1 18ZM278 210c0 1.054-4 4.091-4 6.5 0 2.077 1.924 4.924 3.5 6.5 8.914 8.914 13.457-13 .5-13m-36 26c0 14.286 22.786 33.857 36.5 27h8c7.469-3.734 18.5-4.92 18.5-16 0-5.999 1-12.316 1-18l-4.5 1c-6.787-3.394-9.44-12.38-12.5-18.5-4.538-9.076-14.074-10.787-21.5-14.5l-5.5-5-6 1-1 2-1 1-1 1v1l-1 1-1 1v1l-1 1-1 3-1 1-1 3-1 1-1 3-1 1-1 4-1 2v16Z"/><path fill="#1F9866" id="AIv6a" d="M121 209h2l1-1c0-2.735 8.543-5 11-5 0-.896 1.29-10-2-10 0 7.226-7.458 12.584-10 7.5l-4-7.5-4 1v1c0 4.816 6 8.848 6 14Z"/><path fill="#97D6F9" id="STR" d="m256 193-1 2 1-2Z"/><path fill="#1F9866" id="AIv6a" d="m333 208 2 1 6-14-4-2c0 9.455-14 12.437-14 1-3.087 0-2 6.96-2 9 5.054 0 8.134 5 12 5Z"/><path fill="#1F9865" id="AIv5" d="m115 211-7 1c0-6.268-13-6.207-13-12 6.615 0 12.859-5 20-5 0 4.816 6 8.848 6 14-1.623 0-6 .005-6 2Z"/><path fill="#97D6F9" id="STR" d="m255 195-1 1 1-1Z"/><path fill="#1F9865" id="AIv5" d="m341 211 8 1c0-3.296 10.046-11 13-11v-1c-6.793 0-13.021-5-20-5h-1l-6 14c1.623 0 6 .005 6 2Z"/><path fill="#97D6F9" id="STR" d="m254 196-1 1 1-1ZM253 198l-1 1 1-1ZM252 199l-1 1 1-1Z"/><path fill="#219764" id="AIv2/3" d="M108 212c-5.419 0-11.178 4-17 4l-8-12c1.047 0 11-3.878 11-4h1c0 5.793 13 5.732 13 12Z"/><path fill="#97D6F9" id="STR" d="m205 201 2 2-2-2ZM251 201l-1 1 1-1Z"/><path fill="#219764" id="AIv2/3" d="M349 212c0 1.951 2.454.477 3.5 1 3.027 1.513 9.085 3 12.5 3 0-3.791 8-7.623 8-12v-1c-4.242 0-6.596-2-11-2-2.954 0-13 7.704-13 11Z"/><path fill="#A0EE9C" id="EPd" d="M129 225h1c2.508 0 13 5.77 13-1 0-2.72-2-3.553-2-6-2.243 0-5-12.898-5-15h-1c-2.457 0-11 2.265-11 5l-1 1-2 6.5 2 3.5v1l1 1 1 1c1.429 0 4 1.288 4 3Z"/><path fill="#8AD987" id="CTXsp" d="m137 203 4 15c-2.243 0-5-12.898-5-15h1ZM321 203l-2 2v-2h2Z"/><path fill="#A0EE9C" id="EPd" d="M326 225h1l1-1 1-1h1l1-1 1-1 1-1 1-1 1-2c0-3.618-2-6.154-2-9-3.866 0-6.946-5-12-5l-2 2v2c0 1.593-.337 7-2 7v1l-1 2c0 3.239-3 4.575-3 8 0 4.003 10.219 1 12 1l1-1Z"/><path fill="#209864" id="AIv1" d="M91 216c-1.564 0-3.876 1-6 1l-6-12 4-1 8 12Z"/><path fill="#97D6F9" id="STR" d="m207 204 1 1-1-1Z"/><path fill="#209864" id="AIv1" d="M365 216c1.564 0 3.876 1 6 1l6-12-4-1c0 4.377-8 8.209-8 12Z"/><path fill="#97D6F9" id="STR" d="m249 205-1 1 1-1ZM208 206l1 1-1-1Z"/><path fill="#8AD987" id="CTXsp" d="M319 207c-1.663 0-2 5.407-2 7 1.663 0 2-5.407 2-7Z"/><path fill="#99D2BD" id="OLF" d="m124 208-1 1 1-1ZM341 211l-6 6c0-3.618-2-6.154-2-9l2 1c1.623 0 6 .005 6 2ZM115 211l4 2.5c.606 1.212 2.24 5.5 4 5.5l-2-3.5 2-6.5h-2c-1.623 0-6 .005-6 2Z"/><path fill="#97D6F9" id="STR" d="m247 209-1 1 1-1Z"/><path fill="#CBCBC7" id="aco" d="M177 210c0 1.765-1.581.541-2.5 1l-4.5 6.5c-2.006 4.013 2.347 5.424 4.5 6.5 7.214 3.607 11.117-14 2.5-14Z"/><path fill="#97D6F9" id="STR" d="m210 210 1 1-1-1Z"/><path fill="#CBCBC7" id="aco" d="M278 210c0 1.054-4 4.091-4 6.5 0 2.077 1.924 4.924 3.5 6.5 8.914 8.914 13.457-13 .5-13Z"/><path fill="#6ACAB9" id="PIR" d="m132 257-1 1-2-1c0-3.931-11.811-8.655-14.5-10-1.115-.558-6.5-2.598-6.5-1-5.563 0-23-24.304-23-29 2.124 0 4.436-1 6-1 5.822 0 11.581-4 17-4l7-1 4 2.5c.606 1.212 2.24 5.5 4 5.5v1l1 1 1 1 4 3h1c0 2.226 3.329 1.829 4.5 3 4.046 4.046 8.713 4.926 11.5 10.5 3.867 7.734-5 10.081-5 14.5h-1l-1 1-7 3Z"/><path fill="#96A6D3" id="NDB" d="M222 256h2l2-2.5c4.786-4.786 1.761 1.5 6 1.5h3c0-2.566-1.263-34.026-2-35.5-1.108-2.217-1.982-10.759-6.5-8.5-3.232 1.616-1.157 8.815-2.5 11.5-3.598 7.196-2 25.653-2 33.5Z"/><path fill="#6ACAB9" id="PIR" d="M326 258h1c0-5.351 18.77-12 22-12 0-2.632 6.889-5.389 8.5-7 4.311-4.311 13.5-16.374 13.5-22-2.124 0-4.436-1-6-1-3.415 0-9.473-1.487-12.5-3-1.046-.523-3.5.951-3.5-1l-8-1-6 6-1 2-1 1-1 1-1 1-1 1h-1l-1 1-1 1h-1l-1 1-3.5 2c-3.025 1.512-8.753 5.005-10.5 8.5-4.557 9.113 4 12.698 4 16.5h1l1 1 9 4Z"/><path fill="#97D6F9" id="STR" d="m245 213-1 1 1-1ZM212 214l1 1-1-1Z"/><path fill="#8AD987" id="CTXsp" d="m317 215-1 2 1-2Z"/><path fill="#97D6F9" id="STR" d="m213 217 1 1-1-1Z"/><path fill="#99D2BD" id="OLF" d="m335 217-1 2 1-2Z"/><path fill="#97D6F9" id="STR" d="m243 218-1 2 1-2Z"/><path fill="#99D2BD" id="OLF" d="m334 219-1 1 1-1ZM123 220l1 1-1-1ZM333 220l-1 1 1-1ZM332 221l-1 1 1-1ZM125 222c1.429 0 4 1.288 4 3l-4-3ZM331 222l-1 1 1-1ZM329 223l-1 1 1-1ZM141 253h2c.934 0 8-4.858 8-6 0-5.915-1-12.755-1-18-3.516 0-4.57-5-7-5 0 6.77-10.492 1-13 1 0 2.226 3.329 1.829 4.5 3 4.046 4.046 8.713 4.926 11.5 10.5 3.867 7.734-5 10.081-5 14.5ZM328 224l-1 1 1-1ZM315 253l-2 1c0-1.455-6.64-7-8-7 0-5.999 1-12.316 1-18 2.83 0 4.54-4 7-4 0 4.003 10.219 1 12 1l-3.5 2c-3.025 1.512-8.753 5.005-10.5 8.5-4.557 9.113 4 12.698 4 16.5ZM326 225l-1 1 1-1Z"/><path fill="#A2B1D7" id="SI" d="m313 254-7.5 7c-6.903 3.452-23.542 13.729-33 9-2.383-1.192-5.725.137-8-1-4.486-2.243-8.442-5.721-13-8l-9-10c-1.083 0-.752 8-2.5 8v-17.5c0-1.21.814-5.5 2-5.5 0 14.286 22.786 33.857 36.5 27h8c7.469-3.734 18.5-4.92 18.5-16 1.36 0 8 5.545 8 7ZM143 253c0 3.043 5.079 4.657 6 6.5 2.56 5.121 27.452 14.024 34.5 10.5 2.383-1.192 5.725.137 8-1 3.697-1.849 7.242-4.121 11-6l11-12c2.953 0 .438 10 3.5 10 0-6.443-1-11.582-1-18 0-1.321.684-6-1-6-2.064 0-.426 3.353-1 4.5l-5 9c-3.786 7.571-12.553 9.526-18.5 12.5-8.326 4.163-27.948-2.474-35-6-2.334-1.167-2.6-10-4.5-10 0 1.142-7.066 6-8 6Z"/><path fill="#CAC8C7" id="lot" d="m129 261-2 1-4.5-3c-1.792-.896-14.5-10.169-14.5-13 0-1.598 5.385.442 6.5 1 2.689 1.345 14.5 6.069 14.5 10v4ZM327 261l2 1c1.368 0 20-15.04 20-16-3.23 0-22 6.649-22 12v3Z"/><path fill="#7FCCF7" id="OT" d="m214 272-1 1-2 2.5c-5.811 11.621-15.108 13.5-27.5 13.5-4.935 0-13.658 1.829-18 4l-6-2c-9.033-4.516-17.129-4.759-22.5-15.5-1.123-2.245-6-4.951-6-8.5l-1-1v-1c0-1.048.473-3-1-3v-1l2-3 1-1 7-3 1-1h3c0 3.043 5.079 4.657 6 6.5 2.56 5.121 27.452 14.024 34.5 10.5 2.383-1.192 5.725.137 8-1 3.697-1.849 7.242-4.121 11-6l11-12c2.953 0 .438 10 3.5 10v4l-3 7ZM326 266c0 3.802-5.359 7.217-7 10.5-7.592 15.184-30.098 19.201-43.5 12.5-5.557-2.779-14.259.871-20-2l-9.5-8.5-3-5.5-4-8 1-6c1.748 0 1.417-8 2.5-8l9 10c4.558 2.279 8.514 5.757 13 8 2.275 1.137 5.617-.192 8 1 9.458 4.729 26.097-5.548 33-9l7.5-7 2-1h1l1 1 9 4 1 1v6l-1 1Z"/><path fill="#99D2BD" id="OLF" d="m140 253-1 1 1-1ZM316 253l1 1-1-1Z"/><path fill="#8599CC" id="PAL" d="m239 265 4 8c-2.558 0-11-15.802-11-18h3c0 2.354.554 10 4 10ZM224 256l-3 5c0-1.235-.643-5 1-5h2Z"/><path fill="#99D2BD" id="OLF" d="m131 258-2 3v-4l2 1ZM132 257l-1 1 1-1ZM327 258v1l-1-1h1ZM129 262v1l-2-1 2-1v1Z"/><path fill="#8599CC" id="PAL" d="m221 261-2 4c2.109 0 2-2.535 2-4Z"/><path fill="#99D2BD" id="OLF" d="m329 262-2 2v-3l2 1Z"/><path fill="#97D6F9" id="STR" d="m129 263 1 2c0-1.048.473-3-1-3v1Z"/><path fill="#8599CC" id="PAL" d="M219 265c0 1.622-2.996 7-5 7l3-7h2Z"/><path fill="#97D6F9" id="STR" d="m327 265-1 1 1-1ZM130 266l1 1-1-1Z"/><path fill="#8599CC" id="PAL" d="m214 272-1 1 1-1Z"/></svg>