<svg xmlns="http://www.w3.org/2000/svg" viewBox="0 0 456 320"><path fill="#1E9C59" id="MOs1" d="M117 102c2.109 0 2 2.535 2 4 1.057 0 12.385-14.942 16.5-17l16-10c5.277-2.639 11.655-3.327 17-6h4c11.078-5.539 24.983-5.508 36 0 2.049 1.024 6.5 3.741 6.5 6h1l3-4c0-10.59-22.615-14-30.5-14-14.664 0-36.24 11.62-49 18l-7 6c-3.272 1.636-15.5 13.635-15.5 17ZM339 101c0 .992-1.833 5-2 5 0-2.689-14.174-15.337-17.5-17-5.402-2.701-9.665-7.333-15-10-7.965-3.983-18.091-4.046-26-8-4.102-2.05-18.945-4.527-24-2l-9 5-4.5 4-4-2c0-10.976 21.551-15 30-15 15.13 0 47.339 13.838 58 24.5 3.215 3.215 14 10.5 14 15.5Z"/><path fill="#1E9D58" id="MOs2/3" d="M119 108c0 5.904-1.018 19.464 2 25.5.811 1.621-.391 9.5 2 9.5 0-29.116 23.479-46.49 46.5-58 6.866-3.433 16.434-3.717 23-7 5.164-2.582 14.868 6 17.5 6h1c0-2.813 4-3.461 4-5 0-2.259-4.451-4.976-6.5-6-11.017-5.508-24.922-5.539-36 0h-4c-5.345 2.673-11.723 3.361-17 6l-16 10c-4.115 2.058-15.443 17-16.5 17v2ZM337 107c0 10.392-1 18.124-1 27.5 0 .68-1.368 6.5-2 6.5 0-30.173-29.76-46.63-52.5-58-4.137-2.068-34.5-9.083-34.5 1h-1l-5-5v-1l4.5-4 9-5c5.055-2.527 19.898-.05 24 2 7.909 3.954 18.035 4.017 26 8 5.335 2.667 9.598 7.299 15 10 3.326 1.663 17.5 14.311 17.5 17v1Z"/><path fill="#3EA665" id="ACAd1" d="m228 91-6 2c0-4.8-6-9.632-6-14l3-4c2.341 0 1.421 2.341 2 3.5 1.908 3.817 7 8.072 7 12.5ZM229 91l6 2c0-2.642 3.045-14 6-14v-1l-4-2c-2.797 0-8 12.567-8 15Z"/><path fill="#1F9D58" id="MOs5" d="m123 148 2 3c7.586 0 16.266-14 22-14v-1c0-17.763 27.582-33 45-33h1c0-1.577 1.762-2 3-2l14-17c-2.632 0-12.336-8.582-17.5-6-6.566 3.283-16.134 3.567-23 7-23.021 11.51-46.5 28.884-46.5 58v5ZM333 150l-2 1c-7.011 0-16.152-14-22-14v-1c0-19.097-28.257-33-45-33h-1l-2-2-3.5-4c-2.556-2.556-10.5-9.75-10.5-13 0-10.083 30.363-3.068 34.5-1 22.74 11.37 52.5 27.827 52.5 58v1l-1 4v4Z"/><path fill="#40A565" id="ACAd2/3" d="m222 93-7 2c0-4.343-4-7.227-4-11 0-2.813 4-3.461 4-5h1c0 4.368 6 9.2 6 14ZM235 93l6 2c0-3.858 5-7.696 5-11l-5-5c-2.955 0-6 11.358-6 14Z"/><path fill="#3EA566" id="ACAd5" d="M215 95c-2.049 0-12.178 4.839-14.5 6-1.217.608-4.5.453-4.5 0l14-17h1c0 3.773 4 6.657 4 11ZM241 95l14.5 6c1.37.685 5.5.154 5.5 0l-3.5-4c-2.556-2.556-10.5-9.75-10.5-13h-1c0 3.304-5 7.142-5 11Z"/><path fill="#2FA750" id="PL1" d="M233 129v1c-3.325 0-7.31-1-10-1l-1-36 6-2h1l6 2-2 36Z"/><path fill="#2FA74F" id="PL2/3" d="M219 129h4l-1-36-7 2c0 10.029 4 21.507 4 34ZM233 129h4c0-12.055 4-22.514 4-34l-6-2-2 36Z"/><path fill="#2EA84F" id="PL5" d="M203 123c3.517 0 11.083 6 16 6 0-12.493-4-23.971-4-34-2.049 0-12.178 4.839-14.5 6-1.217.608-4.5.453-4.5 0-1.238 0-3 .423-3 2 7.481 0 9 13.168 9 19l1 1ZM254 123c-5.439 0-11.014 6-17 6 0-12.055 4-22.514 4-34l14.5 6c1.37.685 5.5.154 5.5 0l2 2c-6.853 0-9 14.119-9 19v1Z"/><path fill="#1E9D5A" id="MOp1" d="m344 159 5 2 4-9.5c1.851-3.702.107-9.215 2-13 1.88-3.76-6.216-21.432-8-25-1.033-2.065-5.458-12.5-8-12.5 0 .992-1.833 5-2 5v1c2.306 0 5.123 7.746 6 9.5 2.759 5.519 9.686 18.628 6 26l-5 16.5ZM113 159l-6 2-5-18.5c-3.29-6.582 4.459-22.918 7-28 1.102-2.204 4.976-12.5 8-12.5 2.109 0 2 2.535 2 4v2c-2.058 0-5.209 6.918-6 8.5-3.592 7.183-8.328 21.343-4 30 .983 1.967.984 11.5 4 11.5v1Z"/><path fill="#1D9C5A" id="MOs6a" d="m160 133-5.5-1-7.5 4c0-17.763 27.582-33 45-33 0 2.909-5 4.795-5 8-10.749 0-22 4.09-22 14 0 1.451-3.778 8-5 8Z"/><path fill="#2FA850" id="PL6a" d="M191 116c4.299 0 6.905 6 11 6 0-5.832-1.519-19-9-19h-1c0 2.909-5 4.795-5 8 1.811 0 4 3.438 4 5ZM265 116c-4.151 0-6.574 6-11 6 0-4.881 2.147-19 9-19h1l6 8-5 5Z"/><path fill="#1D9C5A" id="MOs6a" d="M296 133c0-2.043.962 0 1.5 0 6.083 0 10.459 3 11.5 3 0-19.097-28.257-33-45-33l6 8c8.144 0 12.666 3.083 18.5 6 1.524.762 5.673 8 2.5 8l5 8Z"/><path fill="#1F9C58" id="MOp2/3" d="M343 159h1l5-16.5c3.686-7.372-3.241-20.481-6-26-.877-1.754-3.694-9.5-6-9.5 0 10.392-1 18.124-1 27.5 0 .68-1.368 6.5-2 6.5v1c2.246 0-.086 4-1 4v6c0 2.04 10 3.763 10 7ZM124 152c-3.953 0-6.918 6-11 6-3.016 0-3.017-9.533-4-11.5-4.328-8.657.408-22.817 4-30 .791-1.582 3.942-8.5 6-8.5 0 5.904-1.018 19.464 2 25.5.811 1.621-.391 9.5 2 9.5v1c-1.186 0-1.186 1 0 1v3l1 4Z"/><path fill="#268E44" id="FRP6a" d="M183 117c1.949 0 8-.991 8 2 2.373 0 0-2.284 0-3 0-1.562-2.189-5-4-5-10.749 0-22 4.09-22 14 6.542 0 11.325-8 18-8ZM273 117c6.913 0 11.635 8 18 8 3.173 0-.976-7.238-2.5-8-5.834-2.917-10.356-6-18.5-6l-5 5 1 2c0-1.714 5.594-1 7-1Z"/><path fill="#22885E" id="ORBm6a" d="M203 123c0 3.447.876 9-4 9-1.107 0-8-11.561-8-13 2.373 0 0-2.284 0-3 4.299 0 6.905 6 11 6l1 1ZM257 133h1l7-14 1-1-1-2c-4.151 0-6.574 6-11 6v1c0 2.975-1.412 4.677 0 7.5l3 2.5Z"/><path fill="#24895D" id="ORBl6a" d="M179 133h1c0-6.334 3-9.978 3-16-6.675 0-11.458 8-18 8 0 1.451-3.778 8-5 8 0 4.909-5 8.78-5 14 7.359 0 14.057-14 24-14Z"/><path fill="#238A5C" id="ORBvl6a" d="M180 133h19v-1c-1.107 0-8-11.561-8-13 0-2.991-6.051-2-8-2 0 6.022-3 9.666-3 16ZM258 133h19c0-5.494-4-11.037-4-16-1.406 0-7-.714-7 1l-1 1-7 14Z"/><path fill="#24895D" id="ORBl6a" d="M296 133c0 3.67 6 9.978 6 15-6.898 0-14.983-15-25-15 0-5.494-4-11.037-4-16 6.913 0 11.635 8 18 8l5 8Z"/><path fill="#23885E" id="ORBm5" d="m199 133 15 30c8.131 0 5-28.518 5-34-4.917 0-12.483-6-16-6 0 3.447.876 9-4 9v1ZM257 133l-15 30c-6.561 0-5-28.318-5-34 5.986 0 11.561-6 17-6 0 2.975-1.412 4.677 0 7.5l3 2.5Z"/><path fill="#24885D" id="ORBm2/3" d="m214 164 5 10c3.927 0 2.965-7.431 4-9.5 5.005-10.009 0-24.426 0-35.5h-4c0 5.482 3.131 34-5 34v1Z"/><path fill="#23895D" id="ORBm1" d="M227 180c-1.033 0-6 3.421-6 1 0-2.518-2-4.286-2-6v-1c3.927 0 2.965-7.431 4-9.5 5.005-10.009 0-24.426 0-35.5 2.69 0 6.675 1 10 1l-1 31.5c.92 1.839.133 4.266 1 6l4 6.5-2 7c0 3.07-5.248-2-6-2 0-1.058-1-3.029-1-1l-1 1v1Z"/><path fill="#24885D" id="ORBm2/3" d="M237 174h1c0-3.473 4-6.699 4-10v-1c-6.561 0-5-28.318-5-34h-4v1l-1 31.5c.92 1.839.133 4.266 1 6l4 6.5Z"/><path fill="#209666" id="AId6a" d="m155 147-1 1c-5.941 0-7-5.81-7-11v-1l7.5-4 5.5 1c0 4.909-5 8.78-5 14ZM309 137c0 5.541-.612 11-7 11 0-5.022-6-11.33-6-15 0-2.043.962 0 1.5 0 6.083 0 10.459 3 11.5 3v1Z"/><path fill="#228A5D" id="ORBl5" d="m149 161-4 15c8.75 0 29.52-26 37-26 0-5.579-3-11.072-3-17-9.943 0-16.641 14-24 14l-1 1-3 9-1 1-1 2v1Z"/><path fill="#23885C" id="ORBvl5" d="M214 163v1c-9.474 0-19.983-14-32-14 0-5.579-3-11.072-3-17h20l15 30ZM242 163v1c10.332 0 20.653-14 32-14 0-5.347 3-10.706 3-17h-20l-15 30Z"/><path fill="#228A5D" id="ORBl5" d="m307 160 4 16c-8.275 0-29.089-26-37-26 0-5.347 3-10.706 3-17 10.017 0 18.102 15 25 15l4 10 1 1v1Z"/><path fill="#209665" id="AId5" d="M137 177h2c0-2.465 5.271-10.771 7-12.5l3-3.5v-1l1-2 1-1 3-9c-5.941 0-7-5.81-7-11-5.734 0-14.414 14-22 14l-1 1c0 7.27 13 21.396 13 25ZM318 177h1c2.619 0 13-21.641 13-25l-1-1c-7.011 0-16.152-14-22-14 0 5.541-.612 11-7 11l4 10 1 1v1l3 3.5 8 13.5Z"/><path fill="#1E9D58" id="MOs2/3" d="M334 142c2.246 0-.086 4-1 4l1-4ZM123 144c-1.186 0-1.186 1 0 1v-1Z"/><path fill="#24895D" id="ORBl6a" d="m155 147-1 1 1-1Z"/><path fill="#1E9C5A" id="MOp5" d="m125 151-1 1-1-4 2 3Z"/><path fill="#248A5D" id="ORBvl2/3" d="M219 174v1c-12.365 0-24.545-13-32-13 0-4.211-5-8.495-5-12 12.017 0 22.526 14 32 14l5 10ZM242 164c0 3.301-4 6.527-4 10 0 2.19 6.535.483 7.5 0l23.5-12c0-4.192 5-8.209 5-12-11.347 0-21.668 14-32 14Z"/><path fill="#238A5E" id="ORBl2/3" d="M146 184h1c0-2.752 8.508-8.004 10.5-9 7.046-3.523 13.434-10.217 21-14l8.5 1c0-4.211-5-8.495-5-12-7.48 0-28.25 26-37 26v1l1 7ZM311 177c0 1.321.684 6-1 6-4.94 0-11.047-9.774-15.5-12-13.788-6.894-8.93-9-25.5-9 0-4.192 5-8.209 5-12 7.911 0 28.725 26 37 26v1Z"/><path fill="#1E9C5A" id="MOp5" d="M332 152h1v-2l-2 1 1 1Z"/><path fill="#209765" id="AId2/3" d="M129 185h2c0-3.185 6-5.044 6-8 0-3.604-13-17.73-13-25-3.953 0-6.918 6-11 6v1c0 7.197 16 18.788 16 26ZM326 185h1c0-4.813 16-19.316 16-26 0-3.237-10-4.96-10-7h-1c0 3.359-10.381 25-13 25 0 3.668 7 4.713 7 8Z"/><path fill="#1F9865" id="AIv5" d="m151 157-1 1 1-1ZM150 158l-1 2 1-2ZM306 158l1 1-1-1Z"/><path fill="#209764" id="AId1" d="M129 185c0 1.376-2.024 3-4 3-2.088 0-18-24.368-18-27l6-2c0 7.197 16 18.788 16 26ZM327 185c0 .966 2.886 3 4 3 2.933 0 18-23.801 18-27l-5-2h-1c0 6.684-16 21.187-16 26Z"/><path fill="#1F9865" id="AIv5" d="M311 177h7l-8-13.5-3-3.5 4 16v1ZM139 177h6v-1l4-15-3 3.5c-1.729 1.729-7 10.035-7 12.5Z"/><path fill="#238A5D" id="ORBl1" d="M147 184c0 2.003-.293 3 2 3 3.866 0 6.8-7.15 10.5-9 9.879-4.94 15.346-11 27.5-11v-5l-8.5-1c-7.566 3.783-13.954 10.477-21 14-1.992.996-10.5 6.248-10.5 9ZM310 184l-2 3c-4.566 0-8.519-8.01-12.5-10-9.522-4.761-14.763-10-26.5-10v-5c16.57 0 11.712 2.106 25.5 9 4.453 2.226 10.56 12 15.5 12v1Z"/><path fill="#248A5B" id="ORBvl1" d="M219 181h2c0-2.518-2-4.286-2-6-12.365 0-24.545-13-32-13v5c6.752 0 11.875 5.188 17.5 8l5.5 3h1l1 1h2l4 2h1ZM237 181h2l1-1 2-1h2l2-1 5.5-3c5.38-2.69 11.107-8 17.5-8v-5l-23.5 12c-.965.483-7.5 2.19-7.5 0h-1l-2 7h2Z"/><path fill="#99D2BD" id="OLF" fill-rule="evenodd" d="M137 202c0 3.479 3.479 0 0 0m6 11-2 1-7-7.5c-1.764-3.528 2-8.121 2-11.5 2.806 0 13-4.798 13-8 3.866 0 6.8-7.15 10.5-9 9.879-4.94 15.346-11 27.5-11 6.752 0 11.875 5.188 17.5 8l5.5 3c-2.565 0-5-.236-5 3-.088 0-18.385-10.942-20.5-12-5.232-2.616-13.094 5.047-17 7-10.309 5.155-20.51 14.519-25.5 24.5-1.695 3.391 1 9.589 1 12.5ZM317 202c0 3.784 6.254 0 0 0m-3 11 1 1 2.5-2c9.219-4.61 2.5-10.321 2.5-17-2.73 0-12-4.503-12-8-4.566 0-8.519-8.01-12.5-10-9.522-4.761-14.763-10-26.5-10-6.393 0-12.12 5.31-17.5 8l-5.5 3c2.518 0 4.286 2 6 2 2.217 0 16.285-9.392 19.5-11 4.479-2.239 10.725 3.363 14 5 11.006 5.503 22.98 14.459 28.5 25.5 2.005 4.011 0 9.256 0 13.5Z"/><path fill="#54BF94" id="AON" fill-rule="evenodd" d="m266 193-2 3.5c2.5 5-2.291 20.605 1.5 22.5l3.5-2.5c.993-1.986 8.343-20.313 8-21-.998-1.997-9.052-2.5-11-2.5m-79 0c0 2.747-8-1.095-8 3l4 8.5 3 8 1 3c2.972 5.943 4.207 2.585 6-1 1.723-3.446-2-7.967-2-11v-6l2-2c-1.286-2.571-3.583-2.5-6-2.5m93 52-16 9c0-10.725-16.644-31.428-29.5-25l-5.5 4c0-3.391-2-5.161-2-1-2.922 0-10.203-5.649-15.5-3-8.861 4.431-19.5 13.749-19.5 25-3.989 0-8.034-5.267-11.5-7-1.185-.592-4.5-1.012-4.5-3v-1c0-3.552-5.496-5.492-7-8.5-3.752-7.504-16.541-21.5-26-21.5 0-2.911-2.695-9.109-1-12.5 4.99-9.981 15.191-19.345 25.5-24.5 3.906-1.953 11.768-9.616 17-7 2.115 1.058 20.412 12 20.5 12 0 8.024 10 13.67 10 22 0 4.361 9.441 16 13.5 16 2.297 0 12.5-10.351 12.5-15 0-8.925 11-15.326 11-24 2.217 0 16.285-9.392 19.5-11 4.479-2.239 10.725 3.363 14 5 11.006 5.503 22.98 14.459 28.5 25.5 2.005 4.011 0 9.256 0 13.5-8.376 0-33 23.312-33 31l-1 1Z"/><path fill="#219764" id="AIv2/3" d="M146 184c0 3.934-15 8.15-15 1 0-3.185 6-5.044 6-8h8l1 7ZM310 184c6.239 0 3.812 7.844 13.5 3l2.5-2c0-3.287-7-4.332-7-8h-8c0 1.321.684 6-1 6v1Z"/><path fill="#61D09F" id="TTd" d="m219 181 4 4.5c1.81 3.619 4.813 18.843-.5 21.5-3.587 1.794-5.705-4-7.5-4 0-8.33-10-13.976-10-22 0-3.236 2.435-3 5-3h1l1 1h2l4 2h1Z"/><path fill="#99D2BD" id="OLF" d="m211 178 1 1-1-1ZM228 178l-1 1 1-1ZM246 178l-2 1 2-1Z"/><path fill="#61D09F" id="TTd" d="M237 181h2l1-1 2-1h2l2-1c2.518 0 4.286 2 6 2 0 8.674-11 15.075-11 24-2.348 0-4.296 4.602-7.5 3-4.969-2.485-2.265-16.971-.5-20.5l4-5.5Z"/><path fill="#99D2BD" id="OLF" d="m214 179 4 2-4-2ZM215 203c0 4.361 9.441 16 13.5 16 2.297 0 12.5-10.351 12.5-15-2.348 0-4.296 4.602-7.5 3-4.969-2.485-2.265-16.971-.5-20.5l4-5.5h-2c0 3.07-5.248-2-6-2l-.5 37-1.5-36c-1.033 0-6 3.421-6 1h-2l4 4.5c1.81 3.619 4.813 18.843-.5 21.5-3.587 1.794-5.705-4-7.5-4ZM242 179l-2 1 2-1ZM240 180l-1 1 1-1Z"/><path fill="#209864" id="AIv1" d="M125 188c0 5.106 7.062 7 11 7 2.806 0 13-4.798 13-8-2.293 0-2-.997-2-3h-1c0 3.934-15 8.15-15 1h-2c0 1.376-2.024 3-4 3ZM331 188c0 6.006-6.461 7-11 7-2.73 0-12-4.503-12-8l2-3c6.239 0 3.812 7.844 13.5 3l2.5-2h1c0 .966 2.886 3 4 3Z"/><path fill="#CBCBC7" id="aco" d="M187 193c0 2.747-8-1.095-8 3l4 8.5 3 8 1 3c2.972 5.943 4.207 2.585 6-1 1.723-3.446-2-7.967-2-11v-6l2-2c-1.286-2.571-3.583-2.5-6-2.5ZM266 193l-2 3.5c2.5 5-2.291 20.605 1.5 22.5l3.5-2.5c.993-1.986 8.343-20.313 8-21-.998-1.997-9.052-2.5-11-2.5Z"/><path fill="#6ACAB9" id="PIR" d="M137 202c0 3.479 3.479 0 0 0ZM317 202c0 3.784 6.254 0 0 0Z"/><path fill="#CAC8C7" id="lot" d="m176 243-1 1c-6.199 0-21.113-16.613-26-21.5-2.816-2.816-8-3.028-8-8.5l2-1c9.459 0 22.248 13.996 26 21.5 1.504 3.008 7 4.948 7 8.5ZM315 214v3.5l-9.5 6.5c-8.504 4.252-14.501 20-24.5 20 0-7.688 24.624-31 33-31l1 1Z"/><path fill="#62CF9E" id="TTv" d="M227 232c-2.922 0-10.203-5.649-15.5-3-8.861 4.431-19.5 13.749-19.5 25 1.252 0 13.498 5.999 15.5 7 2.032 1.016 7.092-4.092 8.5-5.5 5.687-5.687 11-15.428 11-23.5ZM229 233l5.5-4c12.856-6.428 29.5 14.275 29.5 25l-3.5 2c-2.266 1.133-10.412 6.294-13 5-7.763-3.882-18.5-17.833-18.5-28Z"/><path fill="#99D2BD" id="OLF" d="M175 244h1v-1l-1 1ZM281 244l-1 1 1-1Z"/></svg>