<svg xmlns="http://www.w3.org/2000/svg" viewBox="0 0 456 320"><path fill="#1E9C59" id="MOs1" d="m225 59-4 2c0-2.71-4.541-7.02-6.5-8-3.317-1.659-5.791-4.395-9-6-9.5-4.75-26.625 5-34.5 5v-7c7.677 0 25.249-8.125 33.5-4 3.243 1.621 6.81 2.405 10 4l3 4c2.186 1.093 7.5 6.946 7.5 10ZM235 61h1c0-3.942 5.262-8.381 8.5-10l6-4c3.265-1.632 24.435.718 27 2l8.5 3v-7c-3.067 0-4.029-.765-6.5-2h-6c-12.151-6.075-32.11-1.28-37.5 9.5-1.379 2.758-5 3.778-5 6.5l4 2Z"/><path fill="#1E9D5A" id="MOp1" d="M113 72c0 1.564-1 3.876-1 6 4.351 0 10.589-6.044 14.5-8 7.396-3.698 37.65-18 44.5-18v-7c-6.827 0-37.776 16.138-45.5 20-2.041 1.02-12.5 4.453-12.5 7ZM344 78h1c0-2.073-2-3.674-2-6 0-3.12-10.336-5.918-12.5-7l-28-14c-4.166-2.083-9.872-1.936-14-4l-2.5-2v7c5.807 0 35.962 13.73 42.5 17 3.138 1.57 12.685 9 15.5 9Z"/><path fill="#1E9D58" id="MOs2/3" d="M214 65h1c2.58 0 3.211-4 6-4 0-2.71-4.541-7.02-6.5-8-3.317-1.659-5.791-4.395-9-6-9.5-4.75-26.625 5-34.5 5l-1 17 7.5-4c11.248-5.624 20.432-10.284 33-4 1.791.896 3.5 1.536 3.5 4ZM242 65c0-4.724 8.573-7 12.5-7 14.864 0 25.554 11 32.5 11 0-5.22-1-11.21-1-17l-8.5-3c-2.565-1.282-23.735-3.632-27-2l-6 4c-3.238 1.619-8.5 6.058-8.5 10l5 4h1Z"/><path fill="#1F9C58" id="MOp2/3" d="M112 103h1c0-2.794 10.484-8.992 12.5-10 8.931-4.466 34.926-23 43.5-23l1-1 1-17c-6.85 0-37.104 14.302-44.5 18-3.911 1.956-10.149 8-14.5 8l-1 1v16c1.186 0 1.186 1 0 1 0 1.819 1 4.591 1 7ZM345 96c0 2.41-1 5.181-1 7-3.682 0-8.938-8.719-11.5-10-8.882-4.44-37.449-23-45.5-23v-1c0-5.22-1-11.21-1-17 5.807 0 35.962 13.73 42.5 17 3.138 1.57 12.685 9 15.5 9 0 2.097 1 5.293 1 8v10Z"/><path fill="#1F9D58" id="MOs5" d="m199 79-7.5-2L169 88c0-3.328-1.33-10.84 1-15.5.44-.88.028-2.5-1-2.5l1-1 7.5-4c11.248-5.624 20.432-10.284 33-4 1.791.896 3.5 1.536 3.5 4l-4.5 4c-3.21 1.605-6.465 10-10.5 10ZM257 79c8.04 0 8.108-2.696 17.5 2 3.844 1.922 9.15 8 13.5 8l-1-19v-1c-6.946 0-17.636-11-32.5-11-3.927 0-12.5 2.276-12.5 7l15 14Z"/><path fill="#3EA665" id="ACAd1" d="M223 91h11c0-10.03 1-20.589 1-30l-4-2c-2.307 0-1.624 4-2.5 4l-3.5-4-4 2c0 2.407.906 7.311 2 9.5V91Z"/><path fill="#40A565" id="ACAd2/3" d="M223 91c-2.483 0-4.026 2-6 2V69.5l-2-4.5c2.58 0 3.211-4 6-4 0 2.407.906 7.311 2 9.5V91ZM234 91l5 1c0-9.19 2-18.276 2-27l-5-4h-1c0 9.411-1 19.97-1 30Z"/><path fill="#3EA566" id="ACAd5" d="M217 93c-5.643 0-8.962 6-14 6 0-2.648-1.52-19-4-19v-1c4.035 0 7.29-8.395 10.5-10l4.5-4h1l2 4.5V93ZM239 93c6.167 0 11.445 7 15 7 0-3.335-.153-19 3-19v-2l-15-14h-1c0 8.724-2 17.81-2 27v1Z"/><path fill="#1E9C5A" id="MOp5" d="M113 103c0 5.156 2 9.202 2 14 4.265 0 9.501-8.5 12.5-10 6.521-3.261 35.047-18 40.5-18l1-1c0-3.328-1.33-10.84 1-15.5.44-.88.028-2.5-1-2.5-8.574 0-34.569 18.534-43.5 23-2.016 1.008-12.5 7.206-12.5 10ZM344 104c0 3.455-3 8.724-3 13l-12.5-10c-5.753-2.877-36.204-18-40.5-18l-1-19c8.051 0 36.618 18.56 45.5 23 2.562 1.281 7.818 10 11.5 10v1Z"/><path fill="#197E64" id="SSp-ul1" d="M107 81h1l3-2 1-1c0-2.124 1-4.436 1-6l-8 4 2 5ZM348 81h1c1.014 0 2-3.959 2-5l-8-4c0 2.326 2 3.927 2 6l3 3Z"/><path fill="#187E61" id="SSp-m1" d="M64 145c2.464 0 2.632 6 4 6 0-19.381 10.913-35.326 19-51.5 1.645-3.29 20-18.107 20-18.5l-2-5c-2.89 0-14.047 10.547-17 13.5-10.142 10.142-24 41.562-24 55.5ZM392 145c0 1.634-2.634 4-4 4 0-14.191-7.022-29.544-13-41.5-2.017-4.033-6.027-7.053-8-11L349 81c1.014 0 2-3.959 2-5 5.267 0 9.916 8.708 14.5 11 12.35 6.175 26.5 43.725 26.5 58Z"/><path fill="#1D9C5A" id="MOs6a" d="m177 107-9 2V89l1-1 22.5-11 7.5 2v1c0 3.613-12 16.988-12 24-1.926 0-10 .84-10 3ZM288 109h1c0-5.851-1-14.333-1-20-4.35 0-9.656-6.078-13.5-8-9.392-4.696-9.46-2-17.5-2v2c3.295 0 12 18.801 12 23 7.109 0 12.414 5 19 5Z"/><path fill="#197F61" id="SSp-ul2/3" d="M348 81c0 1.408-1.197 5-3 5 0-2.707-1-5.903-1-8h1l3 3ZM108 81c0 1.429 1.288 4 3 4v-6l-3 2Z"/><path fill="#3FA664" id="ACAd6a" d="M187 105c1.984 0 6 1.444 6 4 3.741 0 5.783-8 10-8v-2c0-2.648-1.52-19-4-19 0 3.613-12 16.988-12 24v1Z"/><path fill="#1A7E64" id="SSp-m2/3" d="m79 165-10 2-1-4c1.613 0 1.613-8 0-8v-4c0-19.381 10.913-35.326 19-51.5 1.645-3.29 20-18.107 20-18.5h1c0 1.429 1.288 4 3 4v11c-7.167 0-15.397 12.294-18 17.5-9.951 19.903-14 27.118-14 51.5Z"/><path fill="#3FA664" id="ACAd6a" d="M263 109h1l1-1 1-1c0-1.577 1.762-2 3-2v-1c0-4.199-8.705-23-12-23-3.153 0-3 15.665-3 19v1c1.675 0 9 6.062 9 8Z"/><path fill="#1A7E64" id="SSp-m2/3" d="m388 166-1 1-9-2c0-22.478-5.814-34.127-15-52.5-2.872-5.744-10.439-16.5-18-16.5V86c1.803 0 3-3.592 3-5h1l18 15.5c1.973 3.947 5.983 6.967 8 11 5.978 11.956 13 27.309 13 41.5v1c0 1.145-.579 4 1 4v1c-1.473 0-1 1.952-1 3v3c-1.186 0-1.186 1 0 1v4Z"/><path fill="#1F9D58" id="MOs5" d="m169 88-1 1 1-1Z"/><path fill="#1F9B5A" id="MOp6a" d="m116 158 1 1c1.647 0 1.338-7.176 2-8.5 2.271-4.542 13.849-23.5 20-23.5 0-1.89 6.374-6 8-6 0-2.109 2.535-2 4-2 0-1.02 12.553-8 14-8l3-2V89c-5.453 0-33.979 14.739-40.5 18-2.999 1.5-8.235 10-12.5 10v1c0 3.895 1.662 13.824 4 18.5.616 1.233-3 17.627-3 21.5ZM340 158l-1 1c0-14.102-16.7-32.6-29.5-39-2.474-1.237-20.5-9.882-20.5-11 0-5.851-1-14.333-1-20 4.296 0 34.747 15.123 40.5 18l12.5 10v1c0 5.155-.876 13.251-3 17.5-2.721 5.442 3 12.423 3 17 0 1.915-1 3.198-1 5.5Z"/><path fill="#3FA566" id="ACAv2/3" d="m220 134-1 1c0-3.711-.371-10.242-2-13.5V93c1.974 0 3.517-2 6-2v36l-1 2-2 5Z"/><path fill="#40A664" id="ACAv1" d="m227 125-4 2V91h11v38l-5-5c0-4.347-2-2.153-2 1Z"/><path fill="#3FA566" id="ACAv2/3" d="m236 134 2 1c0-13.51 1-27.905 1-42v-1l-5-1v38c1.014 0 2 3.959 2 5Z"/><path fill="#3EA666" id="ACAv5" d="M210 131c0 2.911 6.752 4 9 4 0-3.711-.371-10.242-2-13.5V93c-5.643 0-8.962 6-14 6v14.5c1.36 2.72 7 15.12 7 17.5ZM247 130c0 2.996-6.779 5-9 5 0-13.51 1-27.905 1-42 6.167 0 11.445 7 15 7v1l-1 14.5c-1.954 3.907-5 8.915-5 13.5l-1 1Z"/><path fill="#1B7F62" id="SSp-m4" d="M111 95c1.186 0 1.186 1 0 1v-1ZM85 164l-6 1c0-24.382 4.049-31.597 14-51.5 2.603-5.206 10.833-17.5 18-17.5 0 1.819 1 4.591 1 7l-14 16.5c-6.6 13.2-13 28.747-13 44.5ZM371 164l7 1c0-22.478-5.814-34.127-15-52.5-2.872-5.744-10.439-16.5-18-16.5 0 2.41-1 5.181-1 7v1c2.732 0 8.725 7.95 10 10.5 2.389 4.778 6.629 8.257 9 13 4.826 9.653 8 24.082 8 35.5v1Z"/><path fill="#40A564" id="ACAv6a" d="m204 127 6 4c0-2.38-5.64-14.78-7-17.5V101c-4.217 0-6.259 8-10 8v1c2.341 0 1.421 2.342 2 3.5 1.795 3.59 9 8.486 9 12.5v1ZM252 127l-4 2c0-4.585 3.046-9.593 5-13.5l1-14.5c1.675 0 9 6.062 9 8 0 1.974-2 3.517-2 6-1.439 0-8 8.319-8 10l-1 2Z"/><path fill="#1B7E63" id="SSp-m5" d="m100 161-15 3c0-15.753 6.4-31.3 13-44.5l14-16.5h1c0 5.156 2 9.202 2 14v1c-3.221 0-6 7.5-7 9.5-5.489 10.978-8 20.137-8 33.5Z"/><path fill="#1E9C58" id="MOs6b" d="m187 105-10 2c0-2.16 8.074-3 10-3v1ZM288 109v2c-3.409 0-12.818-6-18-6h-1v-1c7.109 0 12.414 5 19 5Z"/><path fill="#1B7E63" id="SSp-m5" d="M356 161c5.446 0 9.184 2 15 2 0-11.418-3.174-25.847-8-35.5-2.371-4.743-6.611-8.222-9-13-1.275-2.55-7.268-10.5-10-10.5 0 3.455-3 8.724-3 13v1c3.883 0 6.848 8.196 8 10.5 5.424 10.848 7 19.222 7 32.5Z"/><path fill="#CACCC7" id="cing" d="M204 126v1c-8.568 0-10.296-13.398-15.5-16-6.734-3.367-11.608 2-17.5 2l-2 1-2 1h-1l-3-1 2-3h3c1.074 0 9-2.682 9-4l10-2 5 5c0 1.72 9.723 16 12 16Z"/><path fill="#3FA466" id="ACAd6b" d="M192 110h1v-1c0-2.556-4.016-4-6-4l5 5ZM270 105l-4 2c0-1.577 1.762-2 3-2h1Z"/><path fill="#CACCC7" id="cing" d="m253 125-1 2c9.748 0 9.928-13.214 17.5-17 5.435-2.718 11.964 3 16.5 3 2.892 0 4.781 1 8 1 0-2.314-4.262-3-6-3-3.409 0-12.818-6-18-6l-4 2-1 1-1 2-3 5c0 2.369-5.13 10-8 10Z"/><path fill="#1E9C58" id="MOs6b" d="M168 109v2c1.074 0 9-2.682 9-4l-9 2Z"/><path fill="#3FA466" id="ACAd6b" d="m266 107-1 1 1-1ZM264 109v1l1-2-1 1Z"/><path fill="#1D9D5A" id="MOp6b" d="M165 111h3v-2l-3 2Z"/><path fill="#40A465" id="ACAv6b" d="m264 110-3 5c0-2.483 2-4.026 2-6h1v1Z"/><path fill="#1D9D5A" id="MOp6b" d="M337 169h2v-10c0-14.102-16.7-32.6-29.5-39-2.474-1.237-20.5-9.882-20.5-11h-1v2c1.738 0 6 .686 6 3l8.5 5c18.241 9.121 34.5 24.11 34.5 46v4Z"/><path fill="#CCC7C9" id="ccg" d="m335 172 2 1v-8c-1.799 0-1.248-8.997-2-10.5-2.742-5.484-6.944-16.722-12.5-19.5l-7-6c-7.227-3.614-13.82-8.41-21-12-1.642-.821-8.5-1.379-8.5-4-4.536 0-11.065-5.718-16.5-3-7.572 3.786-7.752 17-17.5 17l-4 2-1 1c0 2.996-6.779 5-9 5l-2-1c0 1.189-5.307 5.597-6.5 5l-1-3-3 3-5.5-5-1 1c-2.248 0-9-1.089-9-4l-6-4c-8.568 0-10.296-13.398-15.5-16-6.734-3.367-11.608 2-17.5 2l-2 1-2 1h-1c0 2.371-7.467 2.967-9 4.5l-13.5 7.5-13.5 12.5c-4.534 4.534-6.316 10.632-9 16-.906 1.811.131 13.5-2 13.5l1 4 2-2c0-18.537 7.875-31.687 24.5-40 2.616-1.308 6.447-.724 9-2 3.277-1.639 13.81-4.095 18-2l12 4 6.5 6c3.314 0 16 11.463 16 15 4.466 0 9.578 3 14.5 3 1.19 0 4.5-.614 4.5 1h2c0-2.308 7.013-.257 8.5-1 2.451-1.225 8.905-3 11.5-3 0-4.996 10.305-14 15-14 0-6.646 26.404-14.048 32.5-11 4.277 2.138 9.775 1.887 14 4 16.722 8.361 23.5 21.897 23.5 40l1 1Z"/><path fill="#40A465" id="ACAv6b" d="M193 110c2.341 0 1.421 2.342 2 3.5 1.795 3.59 9 8.486 9 12.5-2.277 0-12-14.28-12-16h1Z"/><path fill="#1D9D5A" id="MOp6b" d="M163 114c-3.91 0-7.393 5-12 5 0-1.02 12.553-8 14-8l-2 3Z"/><path fill="#C9C9CA" id="scwm" d="m171 113-2 1 2-1ZM294 114l8.5 5c18.241 9.121 34.5 24.11 34.5 46-1.799 0-1.248-8.997-2-10.5-2.742-5.484-6.944-16.722-12.5-19.5l-7-6c-7.227-3.614-13.82-8.41-21-12-1.642-.821-8.5-1.379-8.5-4 2.892 0 4.781 1 8 1ZM139 127c0 5.073-9.961 8.423-12 12.5-4.916 9.831-8 17.461-8 29.5 2.131 0 1.094-11.689 2-13.5 2.684-5.368 4.466-11.466 9-16l13.5-12.5 13.5-7.5c1.533-1.533 9-2.129 9-4.5l-3-1c-3.91 0-7.393 5-12 5 0 2.109-2.535 2-4 2 0 2.158-5.64 6-8 6ZM169 114l-2 1 2-1Z"/><path fill="#40A465" id="ACAv6b" d="M261 115c-1.439 0-8 8.319-8 10 2.87 0 8-7.631 8-10Z"/><path fill="#187D61" id="SSp-m6a" d="m116 158-16 3c0-13.363 2.511-22.522 8-33.5 1-2 3.779-9.5 7-9.5 0 3.895 1.662 13.824 4 18.5.616 1.233-3 17.627-3 21.5ZM340 158l16 3c0-13.278-1.576-21.652-7-32.5-1.152-2.304-4.117-10.5-8-10.5 0 5.155-.876 13.251-3 17.5-2.721 5.442 3 12.423 3 17 0 1.915-1 3.198-1 5.5Z"/><path fill="#1D9D5A" id="MOp6b" d="M151 119c-1.465 0-4-.109-4 2 1.465 0 4 .109 4-2ZM147 121c-1.626 0-8 4.11-8 6 2.36 0 8-3.842 8-6Z"/><path fill="#7ED04B" id="IG" d="m220 134 5.5 5 3-3 1 3c1.193.597 6.5-3.811 6.5-5 0-1.041-.986-5-2-5l-5-5c0 2.729-.423 1-2 1l-4 2-1 2-2 5Z"/><path fill="#1D9D5A" id="MOp6b" d="M117 169h2c0-12.039 3.084-19.669 8-29.5 2.039-4.077 12-7.427 12-12.5-6.151 0-17.729 18.958-20 23.5-.662 1.324-.353 8.5-2 8.5v7c1.186 0 1.186 1 0 1v2Z"/><path fill="#98D5F9" id="CP" d="m144 232 3 1h8.5c9.744-4.872 10.767-25.384 24-32 2.535-1.268 13.5-2.877 13.5-7l1-1c0-5.139 1-10.395 1-16l2-4c0-9.221-1-19.461-1-28l-4-8-6.5-6-12-4c-4.19-2.095-14.723.361-18 2-2.553 1.276-6.384.692-9 2-16.625 8.313-24.5 21.463-24.5 40 1.344 0 1.387 7.273 2 8.5 3.562 7.124 6 17.065 6 25.5 0 5.816 5 11.525 5 17 2.725 0 4.155 10 9 10Z"/><path fill="#40A664" id="ACAv1" d="m223 127-1 2 1-2Z"/><path fill="#98D5F9" id="CP" d="M310 233h2l5.5-5 3.5-5 1-2 1-2 4-14c0-13.381 7-23.147 7-33v-1c0-18.103-6.778-31.639-23.5-40-4.225-2.113-9.723-1.862-14-4-6.096-3.048-32.5 4.354-32.5 11l-4 7c0 6.04-4.069 19.361-1 25.5 2.717 5.434 4 16.316 4 22.5v1c0 1.91 14.223 7.861 16.5 9 16.253 8.127 8.378 30 30.5 30Z"/><path fill="#40A564" id="ACAv6a" d="m248 129-1 1 1-1Z"/><path fill="#AAA8A9" id="SEZ" d="M199 171h1l1-1c0-2.82 3.484-9.984 5.5-12l1.5-3v-3c0-3.537-12.686-15-16-15l4 8c19.422 0 3 18.673 3 26ZM256 170l3 5c0-7.812-18.762-30 1-30l4-7c-4.695 0-15 9.004-15 14v3l7 15Z"/><path fill="#A8AAAA" id="VL" d="M197 173h1l1-2c0-7.327 16.422-26-3-26 0 8.539 1 18.779 1 28ZM261 194h1l1-1c0-6.184-1.283-17.066-4-22.5-3.069-6.139 1-19.46 1-25.5-19.762 0-1 22.188-1 30v1c1.643 0 1 3.765 1 5v9l1 4Z"/><path fill="#1A7E62" id="SSs1" d="m69 167-5 2v-24c2.464 0 2.632 6 4 6v12l1 4ZM388 167l4 2c0-5.408 1-12.421 1-18.5 0-1.278.665-5.5-1-5.5 0 1.634-2.634 4-4 4v1c1.579 0 1 2.855 1 4v1c0 1.048.473 3-1 3v9Z"/><path fill="#187E61" id="SSp-m1" d="M388 150c1.579 0 1 2.855 1 4-1.579 0-1-2.855-1-4Z"/><path fill="#CAC7CC" id="fa" d="m217 158-1 1c-3.29 0-8 .534-8-4v-3c4.466 0 9.578 3 14.5 3 1.19 0 4.5-.614 4.5 1l-1 3-1.5-2c-1.208-.604-7.5-.265-7.5 1ZM231 158h9c1.606 0 4.339 2.081 6.5 1l2.5-4v-3c-2.595 0-9.049 1.775-11.5 3-1.487.743-8.5-1.308-8.5 1l2 2Z"/><path fill="#1B8063" id="SSs2/3" d="M68 155c1.613 0 1.613 8 0 8v-8Z"/><path fill="#97D6F9" id="STR" d="M232 206c-1.442 0-2.215-9-3.5-9-2.881 0-2.753 11-4.5 11 0-9.094 4.164-33.168-5.5-38-3.991-1.996-12.205 0-17.5 0 0-2.82 3.484-9.984 5.5-12l1.5-3c0 4.534 4.71 4 8 4 0 12.771 10 13.961 10 0l1-3h2l2 2c0 17.452 9 13.467 9 0 1.606 0 4.339 2.081 6.5 1l2.5-4 7 15h-12l-3.5-1c-12.069 6.035-8.5 24.248-8.5 37Z"/><path fill="#1B8063" id="SSs2/3" d="M389 155c-1.473 0-1 1.952-1 3 1.473 0 1-1.952 1-3Z"/><path fill="#8FCAED" id="SH" d="M216 159c0 12.771 10 13.961 10 0l-1.5-2c-1.208-.604-7.5-.265-7.5 1l-1 1ZM231 158h9c0 13.467-9 17.452-9 0Z"/><path fill="#009B74" id="GU6a" d="m117 170-16 7-1-16 16-3 1 1v11Z"/><path fill="#97D6F9" id="STR" d="m217 158-1 1 1-1Z"/><path fill="#009B74" id="GU6a" d="M339 170c5.948 0 11.206 7 17 7v-16l-16-3-1 1v1c1.486 0 1.486 3 0 3v7Z"/><path fill="#1F9B5A" id="MOp6a" d="M339 160c1.486 0 1.486 3 0 3v-3Z"/><path fill="#019C75" id="GU5" d="M101 177c-4.638 0-13.877 6-17 6 0-6.525 1-13 1-19l15-3 1 16ZM356 177l16 5c0-2.014 2.284-5.932 1-8.5-1-2.001-2-7.377-2-9.5v-1c-5.816 0-9.554-2-15-2v16Z"/><path fill="#1B8063" id="SSs2/3" d="M388 161c-1.186 0-1.186 1 0 1v-1Z"/><path fill="#009C74" id="GU4" d="M81 183h3c0-6.525 1-13 1-19l-6 1c0 6.655 2 11.943 2 18ZM372 183h3c0-5.576 3-12.158 3-18l-7-1c0 2.123 1 7.499 2 9.5 1.284 2.568-1 6.486-1 8.5v1Z"/><path fill="#009B75" id="GU2/3" d="M81 183c0 1.794-6.51 4-8 4 0-6.666-4-12.906-4-20l10-2c0 6.655 2 11.943 2 18ZM383 187h1c0-7.104 3-12.665 3-20l-9-2c0 5.842-3 12.424-3 18l8 4Z"/><path fill="#019C74" id="GU6b" d="M117 166c1.186 0 1.186 1 0 1v-1Z"/><path fill="#1B8063" id="SSs2/3" d="M387 167h1v-1l-1 1Z"/><path fill="#009C75" id="GU1" d="m73 187-4 1c-2.064 0-.426-3.353-1-4.5L64 169l5-2c0 7.094 4 13.334 4 20ZM384 187l3 2c1.951 0 .477-2.454 1-3.5 2.112-4.224 4-11.613 4-16.5l-4-2h-1c0 7.335-3 12.896-3 20Z"/><path fill="#1F9766" id="AId6b" d="m120 173 1 9c-2.613 0-4-10.047-4-12v-1h2l1 4Z"/><path fill="#90CAED" id="LSr" d="m213 217 2.5 4c3.721 1.86 4.715-4 6.5-4v-1l1-1 1-7c0-9.094 4.164-33.168-5.5-38-3.991-1.996-12.205 0-17.5 0l-1 1h-1l-1 2c0 1.048.473 3-1 3v4c5.503 0 18.748 25 11 25v1l2 4 1 1 1 3 1 1v2ZM243 218l-2.5 3c-2.541 1.27-3.709-2-5.5-2v-1l-1-2-1-7-1-1v-2c0-12.752-3.569-30.965 8.5-37l3.5 1h12l3 5v5c-4.409 0-18.977 25-10 25v1l-1 1-1 1v1l-1 1-1 3-1 1-1 4Z"/><path fill="#1F9766" id="AId6b" d="m337 181-2 2 2-10v-4h2v1c0 4.232-2 7.38-2 11Z"/><path fill="#209666" id="AId6a" d="M106 197h1l6-1c0-2.252-3.065-19.283 5.5-15l3.5 3-1-2c-2.613 0-4-10.047-4-12l-16 7c0 8.492 5 17.031 5 20Z"/><path fill="#97D6F9" id="STR" d="m201 170-1 1 1-1Z"/><path fill="#209666" id="AId6a" d="M344 196c1.564 0 3.876 1 6 1 0-1.061 6-13.813 6-20-5.794 0-11.052-7-17-7 0 4.232-2 7.38-2 11 9.972 0 7 8.77 7 15Z"/><path fill="#C8CBCC" id="ec" d="M128 205h2c0-8.435-2.438-18.376-6-25.5-.613-1.227-.656-8.5-2-8.5l-2 2 1 9 1 2v1l1 1v1l2 4v2c2.684 0 3 9.647 3 12Z"/><path fill="#AAA8A9" id="SEZ" d="m199 171-1 2 1-2Z"/><path fill="#CAC7CC" id="fa" d="M334 172h1l-1-1v1Z"/><path fill="#C8CBCC" id="ec" d="M327 205h2c0-1.496-1.629-11 2-11v-1l1-2v-1l1-2v-1l1-1v-1l1-1v-1l2-10-2-1h-1c0 9.853-7 19.619-7 33Z"/><path fill="#A8AAAA" id="VL" d="M194 194h1l2-2v-19l-2 4c0 5.605-1 10.861-1 16v1Z"/><path fill="#AAA8A9" id="SEZ" d="M198 173c0 1.048.473 3-1 3v-3h1ZM259 180l1 1c0-1.235.643-5-1-5v4Z"/><path fill="#209665" id="AId5" d="M90 202h1c0-.984 15-3.153 15-5 0-2.969-5-11.508-5-20-4.638 0-13.877 6-17 6 0 6.413 6 14.41 6 19ZM366 202h1c0-6.115 5-12.017 5-19v-1l-16-5c0 6.187-6 18.939-6 20 4.814 0 10.899 5 16 5Z"/><path fill="#8FCBED" id="LSv" d="M207 205h1c7.748 0-5.497-25-11-25v12l2 2 4 5 1 1 1 2 2 2v1ZM250 204l-1 1c-8.977 0 5.591-25 10-25l1 1v9l-2 4-4 4-1 1-3 5Z"/><path fill="#8ADA86" id="CLA" d="M113 196c0 7.055 3.454 9 10 9l3-4.5-1-7.5v-1l-1-1-1-4v-1l-1-1v-1l-3.5-3c-8.565-4.283-5.5 12.748-5.5 15ZM333 205h1c6.264 0 10-2.225 10-9 0-6.23 2.972-15-7-15l-2 2v1l-1 1v1l-1 1v1l-1 2v1l-1 2v1c0 4.58 2 9.82 2 11Z"/><path fill="#209765" id="AId2/3" d="m90 202-11 2c0-5.175-6-11.233-6-17 1.49 0 8-2.206 8-4h3c0 6.413 6 14.41 6 19ZM367 202l10 2c1.69 0 6-14.362 6-17l-8-4h-3c0 6.983-5 12.885-5 19Z"/><path fill="#209666" id="AId6a" d="m335 184-1 1 1-1ZM122 185l1 1-1-1ZM334 186l-1 1 1-1Z"/><path fill="#209764" id="AId1" d="m79 205-4 1c0-5.913-6-11.557-6-18l4-1c0 5.767 6 11.825 6 17v1Z"/><path fill="#209666" id="AId6a" d="M124 191h1l-2-4 1 4Z"/><path fill="#209764" id="AId1" d="m377 205 4 1c0-5.47 6-10.73 6-17l-3-2h-1c0 2.638-4.31 17-6 17v1Z"/><path fill="#209666" id="AId6a" d="m333 188-1 2 1-2Z"/><path fill="#97D6F9" id="STR" d="M258 194h3l-1-4-2 4Z"/><path fill="#1F9866" id="AIv6a" d="M125 191v1l-1-1h1ZM332 191l-1 2 1-2Z"/><path fill="#97D6F9" id="STR" d="M195 194h4l-2-2-2 2Z"/><path fill="#1F9866" id="AIv6a" d="M127 205h1c0-2.353-.316-12-3-12l1 7.5-3 4.5h4Z"/><path fill="#97D6F9" id="STR" d="M193 194h1v-1l-1 1ZM262 194h1v-1l-1 1Z"/><path fill="#80CDF8" id="ACB" fill-rule="evenodd" d="M177 210c0 1.384-4.238 5.976-5 7.5-1.757 3.515 3.174 8.163 6.5 6.5 7.157-3.579 7.927-14-1.5-14m36 30-6 9.5c-4.318 8.637-15.057 11.778-22.5 15.5-5.988 2.994-26.413-1.706-31-4l-6.5-6.5c-.619-1.238 1.144-5.5-1-5.5 0-4.113-1-10.517-1-14l2-2h8.5c9.744-4.872 10.767-25.384 24-32 2.535-1.268 13.5-2.877 13.5-7h6l4 5 1 1 1 2 2 2v1l1 1 2 4 1 1 1 3 1 1v2l2 11.5c-1.369 2.738-2 8.42-2 11.5ZM275 210c0 1.543-3.928 4.645-3 6.5 10.664 21.329 19.989-6.5 3-6.5m-32 29 8 12.5c3.725 7.45 14.387 10.443 20.5 13.5h8c11.599 0 30.5-1.255 30.5-16 0-4.641 1-10.551 1-15l-1-1c-22.122 0-14.247-21.873-30.5-30-2.277-1.139-16.5-7.09-16.5-9h-5l-4 4-1 1-3 5-1 1v1l-1 1-1 1v1l-1 1-1 3-1 1-1 4v21Z"/><path fill="#1F9866" id="AIv6a" d="M330 205h3c0-1.18-2-6.42-2-11-3.629 0-2 9.504-2 11h1ZM118 209l-5 1-6-13 6-1c0 7.055 3.454 9 10 9l-4 3-1 1ZM339 209l5 1c0-4.622 6-8.786 6-13-2.124 0-4.436-1-6-1 0 6.775-3.736 9-10 9l5 4Z"/><path fill="#1F9865" id="AIv5" d="m105 213-5 1c0-4.341-9-10.168-9-12 0-.984 15-3.153 15-5h1l6 13c-1.131 0-8 2.049-8 3Z"/><path fill="#96A7D3" id="MS" d="M222 221c2.46 0 5.69-1 7.5-1l5.5 2v-4l-1-2-1-7-1-1v-2c-1.442 0-2.215-9-3.5-9-2.881 0-2.753 11-4.5 11l-1 7-1 1v5Z"/><path fill="#1F9865" id="AIv5" d="m352 213 5 1c0-4.673 9-10.772 9-12-5.101 0-11.186-5-16-5 0 4.214-6 8.378-6 13 0 1.987 8 .499 8 3Z"/><path fill="#97D6F9" id="STR" d="m254 198-1 1 1-1ZM203 199l1 1-1-1Z"/><path fill="#219764" id="AIv2/3" d="m100 214-14 2-7-11v-1l11-2h1c0 1.832 9 7.659 9 12Z"/><path fill="#97D6F9" id="STR" d="m205 202 2 2-2-2Z"/><path fill="#219764" id="AIv2/3" d="m357 214 13 2 7-11v-1l-10-2h-1c0 1.228-9 7.327-9 12Z"/><path fill="#97D6F9" id="STR" d="m250 204-1 1 1-1Z"/><path fill="#209864" id="AIv1" d="M86 216c0 1.643-3.766 1-5 1l-6-11 4-1 7 11Z"/><path fill="#A0EE9C" id="EPd" d="M123 226h1c4.727 0 11 5.452 11-4-3.005 0-4.934-12.368-6-14.5l-2-2.5h-4l-4 3-1 1-3 5.5 1 6.5 1 1 1 1h1l2 2h1l1 1Z"/><path fill="#8AD987" id="CTXsp" d="M130 205c0 5.816 5 11.525 5 17-3.005 0-4.934-12.368-6-14.5l-2-2.5h3Z"/><path fill="#97D6F9" id="STR" d="M208 205v1l-1-1h1Z"/><path fill="#8AD987" id="CTXsp" d="m330 205-3 3.5c-.883 1.765-1.45 10.5-4 10.5l4-14h3Z"/><path fill="#A0EE9C" id="EPd" d="m333 226-2 1c-3.991 0-10 2.681-10-4l1-2 1-2c2.55 0 3.117-8.735 4-10.5l3-3.5h4l5 4c0 3.255 2 6.058 2 10v1l-1 1-1 1-1 1-2 1-1 1h-1l-1 1Z"/><path fill="#209864" id="AIv1" d="M370 216c0 1.684 4.679 1 6 1l5-11-4-1-7 11Z"/><path fill="#97D6F9" id="STR" d="m249 206-1 1 1-1ZM248 207l-1 1 1-1Z"/><path fill="#99D2BD" id="OLF" d="m119 208-1 1 1-1Z"/><path fill="#97D6F9" id="STR" d="m232 208 1 1-1-1Z"/><path fill="#99D2BD" id="OLF" d="M105 213c7.234 0 10.531 8 11 8l-1-6.5 3-5.5-5 1c-1.131 0-8 2.049-8 3Z"/><path fill="#97D6F9" id="STR" d="m247 209-1 1 1-1Z"/><path fill="#99D2BD" id="OLF" d="M352 213c-7.387 0-9.78 6-11 6 0-3.942-2-6.745-2-10l5 1c0 1.987 8 .499 8 3Z"/><path fill="#CBCBC7" id="aco" d="M177 210c0 1.384-4.238 5.976-5 7.5-1.757 3.515 3.174 8.163 6.5 6.5 7.157-3.579 7.927-14-1.5-14Z"/><path fill="#97D6F9" id="STR" d="m210 210 1 1-1-1Z"/><path fill="#CBCBC7" id="aco" d="M275 210c0 1.543-3.928 4.645-3 6.5 10.664 21.329 19.989-6.5 3-6.5Z"/><path fill="#6ACAB9" id="PIR" d="M126 259h1l10-4c0-6.765 7.572-6.356 2-17.5-1.821-3.643-15-9.994-15-11.5h-1l-1-1h-1l-2-2h-1l-1-1-1-1c-.469 0-3.766-8-11-8l-5 1-14 2c0 1.643-3.766 1-5 1 0 5.697 16.816 30 23 30 3.838 0 22 7.384 22 12Z"/><path fill="#97D6F9" id="STR" d="m245 213-1 1 1-1Z"/><path fill="#6ACAB9" id="PIR" d="M329 259h1l1-1c0-2.42 21-14.783 21-10l7.5-7c4.974-2.487 16.5-18.413 16.5-24-1.321 0-6 .684-6-1l-13-2-5-1c-7.387 0-9.78 6-11 6v1l-1 1-1 1-1 1-2 1-1 1h-1l-1 1-2 1c0 .872-12.699 7.898-14 10.5-5.707 11.414 3 12.691 3 17.5l9 4Z"/><path fill="#97D6F9" id="STR" d="m212 214 1 1-1-1ZM223 215l-1 1 1-1ZM234 216l1 2-1-2ZM212 256h3c0-2.422 2.93-5.361 4-7.5 3.237-6.473 2-17.799 2-25.5l1-2v-4c-1.785 0-2.779 5.86-6.5 4l-2.5-4 2 11.5c-1.369 2.738-2 8.42-2 11.5l-1 16ZM241 256h4c0-5.316-2-10.977-2-17v-21l-2.5 3c-2.541 1.27-3.709-2-5.5-2v3c0 6.238-.436 19.627 2 24.5l4 9.5Z"/><path fill="#8AD987" id="CTXsp" d="m323 219-1 2 1-2Z"/><path fill="#96A6D3" id="NDB" d="m224 259 3.5-3c2.038-1.019 3.43 3 4.5 3 2.3 0 6.454 7.592 9 2.5l1-3-1-2.5-4-9.5c-2.436-4.873-2-18.262-2-24.5l-5.5-2c-1.81 0-5.04 1-7.5 1l-1 2c0 7.701 1.237 19.027-2 25.5-1.07 2.139-4 5.078-4 7.5 0 10.862 3.082 5 8 5l1-2Z"/><path fill="#99D2BD" id="OLF" d="m341 220-1 1 1-1Z"/><path fill="#96A7D3" id="MS" d="m222 221-1 2 1-2Z"/><path fill="#8AD987" id="CTXsp" d="m322 221-1 2 1-2Z"/><path fill="#99D2BD" id="OLF" d="m340 221-1 1 1-1ZM117 222l1 1-1-1ZM146 249c0 2.019-7.11 6-9 6 0-6.765 7.572-6.356 2-17.5-1.821-3.643-15-9.994-15-11.5 4.727 0 11 5.452 11-4 2.725 0 4.155 10 9 10l1 3c0 3.483 1 9.887 1 14ZM339 222l-1 1 1-1ZM119 223l2 2-2-2ZM319 255h1c0-4.809-8.707-6.086-3-17.5 1.301-2.602 14-9.628 14-10.5-3.991 0-10 2.681-10-4l-3.5 5-5.5 5-1 1c0 4.449-1 10.359-1 15 2.147 0 5.481 6 9 6ZM336 224l-1 1 1-1ZM122 225l1 1-1-1ZM334 225l-1 1 1-1ZM333 226l-2 1 2-1Z"/><path fill="#97D6F9" id="STR" d="m147 233-2 2-1-3 3 1ZM312 233l-1 1-1-1h2Z"/><path fill="#A2B1D7" id="SI" d="M245 256c0 4.607 1 10.052 1 14 3.613 0 11.484-3.008 15.5-1 4.174 2.087 24.746 6.627 30 4l16-8c2.336-1.168 11.5-6.528 11.5-10-3.519 0-6.853-6-9-6 0 14.745-18.901 16-30.5 16h-8c-6.113-3.057-16.775-6.05-20.5-13.5l-8-12.5c0 6.023 2 11.684 2 17ZM212 256c0 1.407-1.182 14-2 14 0-1.58-14.699-1.401-15.5-1-16.406 8.203-31.329 3.335-46-4-2.276-1.138-11.5-6.715-11.5-10 1.89 0 9-3.981 9-6 2.144 0 .381 4.262 1 5.5l6.5 6.5c4.587 2.294 25.012 6.994 31 4 7.443-3.722 18.182-6.863 22.5-15.5l6-9.5-1 16Z"/><path fill="#CAC8C7" id="lot" d="M331 263h2c1.737 0 11.852-9.176 15.5-11l3.5-4c0-4.783-21 7.58-21 10l-1 1v2l1 1v1ZM125 263h1v-4c0-4.616-18.162-12-22-12 0 1.637 17.964 16 20 16h1Z"/><path fill="#7FCCF7" id="OT" d="M210 270v5l-5 9.5c-1.316 2.633-6.202 4.351-8.5 5.5-5.084 2.542-12.986-.507-18 2-14.262 7.131-36.17 2.159-43.5-12.5-1.788-3.576-9-8.407-9-13.5v-6l1-1 10-4c0 3.285 9.224 8.862 11.5 10 14.671 7.335 29.594 12.203 46 4 .801-.401 15.5-.58 15.5 1ZM246 270l1 5c0 8.951 10.352 12.926 16.5 16h7c4.054 2.027 10.043.021 14 2 14.064 7.032 32.201-2.901 38.5-15.5 1.307-2.613 7-6.568 7-10.5l1-1v-4l-1-1v-1l-1-1-9-4h-1c0 3.472-9.164 8.832-11.5 10l-16 8c-5.254 2.627-25.826-1.913-30-4-4.016-2.008-11.887 1-15.5 1Z"/><path fill="#8599CC" id="PAL" d="M210 270v5c3.033 0 13-11.112 13-14-4.918 0-8 5.862-8-5h-3c0 1.407-1.182 14-2 14ZM246 270l1 5c-2.838 0-15-13.323-15-16 2.3 0 6.454 7.592 9 2.5l1-3-1-2.5h4c0 4.607 1 10.052 1 14Z"/><path fill="#99D2BD" id="OLF" d="m331 258-1 1 1-1ZM127 259l-1 1v-1h1Z"/><path fill="#8599CC" id="PAL" d="m224 259-1 2 1-2Z"/><path fill="#99D2BD" id="OLF" d="M330 259v1l-1-1h1ZM330 261l1 1-1-1ZM125 263v2l-1-2h1Z"/><path fill="#97D6F9" id="STR" d="m125 265 1 1v-3h-1v2Z"/><path fill="#99D2BD" id="OLF" d="m333 263-2 2v-2h2Z"/><path fill="#97D6F9" id="STR" d="m331 266-1 1 1-1Z"/></svg>