<svg xmlns="http://www.w3.org/2000/svg" viewBox="0 0 456 320"><path fill="#9AD1BD" id="MOB" d="m174 237 3 2c2.951 0 14.685 9.908 22.5 6 19.797-9.899 21.5-37.236 21.5-59v-23.5c2.403-4.807 4.516-30.968 2-36l-6-13c-1.041-2.082-6-3.731-6-6.5l-10.5-4c-10.364-5.182-33.93 6.93-40.5 13.5L150 128l-1 1v1l-1 1-1 3-1 1v1l-1 1v3l-1 2v2c0 1.321.684 6-1 6v3c1.579 0 1 2.855 1 4v2c1.473 0 1 1.952 1 3v3c1.473 0 1 1.952 1 3v1c1.473 0 1 1.952 1 3 2.63 0 5.061 8.621 6 10.5 4.116 8.231 4.779 16.559 8 23v8l4 10.5v1l1 2 7 9 1 1ZM279 239h1l1-1 1-1 6-7 1-1v-1l1-1 1-1v-1l1-2 1-2c0-2.613.93-4.36 2-6.5v-7c1.637-3.274.431-7.861 2-11 2.149-4.298 3.815-8.631 6-13 .939-1.879 3.37-10.5 6-10.5v-2l1-1c0-1.048-.473-3 1-3v-3c0-1.048-.473-3 1-3v-1c0-1.235-.643-5 1-5v-10c-1.579 0-1-2.855-1-4v-1l-1-1v-2l-1-2v-1l-1-1-1-3-1-1c0-3.321-7.752-10.626-10.5-12l-6-6-12-6c-2.114-1.057-19.275-3.362-22-2l-8.5 3-1 1h-1l-5 4.5-8 16c-1.91 3.819.413 26.826 2 30V177c0 16.588.661 57.081 16.5 65 5.16 2.58 13.986 5.007 20 2 1.873-.936 3.23-3 5.5-3l2-2Z"/><path fill="#99D2BD" id="OLF" d="m248 106-1 1 1-1Z"/><path fill="#C7CBCA" id="onl" d="M227 213c0 13.008 3.414 40.543-9.5 47-5.218 2.609-9.361-4.181-13-6-6.847-3.423-14.157-5.578-21-9l-6.5-6c2.951 0 14.685 9.908 22.5 6 19.797-9.899 21.5-37.236 21.5-59v-23.5c2.403-4.807 4.516-30.968 2-36l-6-13c-1.041-2.082-6-3.731-6-6.5 4.902 0 8.219 6.939 10 10.5 6.904 13.808 6 24.984 6 41.5v54Z"/><path fill="#C7CBCA" id="onl" d="M246 107c-9.702 0-16 20.782-16 28.5 0 21.857-1 44.563-1 67 0 7.63-2.265 20.471 1 27 2.858 5.717-1.907 15.187 1 21 8.967 17.935 14.907 5.797 25.5.5 2.962-1.481 20.5-5.425 20.5-10-2.27 0-3.627 2.064-5.5 3-6.014 3.007-14.84.58-20-2-15.839-7.919-16.5-48.412-16.5-65v-19.5c-1.587-3.174-3.91-26.181-2-30l8-16 5-4.5Z"/><path fill="#99D2BD" id="OLF" d="m150 128-1 1 1-1ZM307 129l1 1-1-1ZM149 130l-1 1 1-1ZM309 133l1 1-1-1ZM147 134l-1 1 1-1ZM310 135l1 2-1-2ZM146 136l-1 1 1-1ZM311 139l1 1-1-1ZM145 140l-1 2 1-2ZM312 141c1.579 0 1 2.855 1 4-1.579 0-1-2.855-1-4ZM144 144c-1.684 0-1 4.679-1 6 1.684 0 1-4.679 1-6ZM143 153c1.579 0 1 2.855 1 4-1.579 0-1-2.855-1-4ZM313 155c-1.643 0-1 3.765-1 5 1.643 0 1-3.765 1-5ZM144 159c1.473 0 1 1.952 1 3-1.473 0-1-1.952-1-3ZM227 159c1.763 0 1 8.343 1 10v32.5c0 1.783.777 11.5-1 11.5v-54ZM312 161c-1.473 0-1 1.952-1 3 1.473 0 1-1.952 1-3ZM145 165c1.473 0 1 1.952 1 3-1.473 0-1-1.952-1-3ZM311 167c-1.473 0-1 1.952-1 3 1.473 0 1-1.952 1-3ZM147 172v1c-1.579 0-1-2.855-1-4 1.473 0 1 1.952 1 3ZM309 171h1v-1l-1 1Z"/><path fill="#C7CBCA" id="onl" d="M309 173h1v-2h-1v2ZM154 210c0 2.37 6.273 8.773 8 10.5l3 3.5-4-10.5v-8c-3.221-6.441-3.884-14.769-8-23-.939-1.879-3.37-10.5-6-10.5v7c1.643 0 1 3.765 1 5v1l1 2v4l1 2v1c1.473 0 1 1.952 1 3v3l1 2v1l1 2v2c1.473 0 1 1.952 1 3ZM302 210c0 1.782-7.234 11-9 11 0-2.613.93-4.36 2-6.5v-7c1.637-3.274.431-7.861 2-11 2.149-4.298 3.815-8.631 6-13 .939-1.879 3.37-10.5 6-10.5v10l-1 2v1c-1.473 0-1 1.952-1 3v4l-1 2v1c-1.473 0-1 1.952-1 3v3l-1 2c-1.473 0-1 1.952-1 3v2l-1 1Z"/><path fill="#99D2BD" id="OLF" d="m310 173-1 2v-2h1ZM147 179c1.643 0 1 3.765 1 5-1.643 0-1-3.765-1-5ZM309 183l-1 2 1-2ZM148 185l1 2-1-2ZM308 186c-1.473 0-1 1.952-1 3 1.473 0 1-1.952 1-3ZM149 191l1 2-1-2ZM307 193l-1 2 1-2ZM150 194c1.473 0 1 1.952 1 3-1.473 0-1-1.952-1-3ZM306 196c-1.473 0-1 1.952-1 3 1.473 0 1-1.952 1-3ZM151 200l1 2-1-2ZM305 202l-1 2 1-2ZM152 203l1 2-1-2ZM304 204c-1.473 0-1 1.952-1 3 1.473 0 1-1.952 1-3ZM153 207c1.473 0 1 1.952 1 3-1.473 0-1-1.952-1-3ZM303 209l-1 1 1-1Z"/><path fill="#C7CBCA" id="onl" d="m293 221-1 2 1-2ZM292 223l-1 2 1-2ZM165 225l1 2-1-2ZM291 226l-1 1 1-1ZM290 227l-1 1 1-1ZM289 229l-1 1 1-1ZM173 236l1 1-1-1ZM282 237l-1 1 1-1ZM281 238l-1 1 1-1ZM279 239l-2 2c1.747 0 2-.253 2-2Z"/></svg>