<svg xmlns="http://www.w3.org/2000/svg" viewBox="0 0 456 320"><path fill="#99D2BD" id="OLF" d="M201 111c-1.406 0-7-.714-7 1 1.406 0 7 .714 7-1Z"/><path fill="#9AD1BD" id="MOB" d="M193 113c-6.682 0-11.884 5.192-17.5 8-32.956 16.478-15.281 49.937-3.5 73.5 3.05 6.099.109 18.219 3 24 4.487 8.974 10.271 11.385 18.5 15.5 8.486 4.243 18.767-9.035 21.5-14.5 7.589-15.179 2.389-43.779 8-55 1.137-2.275-.192-5.617 1-8 1.991-3.981-.027-9.945 2-14 2.183-4.365-3.368-23.5-6-23.5l-3.5-4-6.5-3-9-1c0 1.714-5.594 1-7 1l-1 1ZM240 115l-4 4c0 .729-5.238 11.976-6 13.5-1.896 3.793 4 26.228 4 32 0 8.316-.623 23.755 3 31l1 13c3.236 6.472 5.687 13.374 9 20 5.249 10.497 27.539 3.922 32-5 4.12-8.24 1.299-20.597 5-28 14.005-28.01 29.356-58.572-6.5-76.5-4.071-2.035-8.724-6-13.5-6-.981 0-8-1.184-8-2l-10 1c0 1.473-1.952 1-3 1l-2 1-1 1Z"/><path fill="#99D2BD" id="OLF" d="M264 112v1c-.981 0-8-1.184-8-2 2.707 0 5.903 1 8 1Z"/><path fill="#C7CBCA" id="onl" d="m299 221-1 1c0 2.976-3.734 4.968-5 7.5-6.761 13.523-12.486 9.493-22.5 14.5h-7c-3.563 1.781-12.167 5.416-17 3-6.844-3.422-12.306-14.111-15.5-20.5l-2.5-15.5-2.5 13.5c-3.608 7.216-8.455 18.478-16.5 22.5-4.602 2.301-13.561-1.281-17-3h-7c-11.173-5.587-15.06-.621-22.5-15.5-1.519-3.037-5-3.776-5-7.5 0-21.558-6-38.837-6-62v-2c1.684 0 1-4.679 1-6v-5c1.473 0 1-1.952 1-3 1.473 0 1-1.952 1-3v-3l1-1v-1l1-1v-1l1-1 1-1v-1l1-1 1-1c0-6.18 26.498-16 32-16v1c-6.682 0-11.884 5.192-17.5 8-32.956 16.478-15.281 49.937-3.5 73.5 3.05 6.099.109 18.219 3 24 4.487 8.974 10.271 11.385 18.5 15.5 8.486 4.243 18.767-9.035 21.5-14.5 7.589-15.179 2.389-43.779 8-55 1.137-2.275-.192-5.617 1-8 1.991-3.981-.027-9.945 2-14 2.183-4.365-3.368-23.5-6-23.5 0-2.373 2.284 0 3 0l5.5 9c1.182 0 2.611-10 6.5-10l1 1c0 .729-5.238 11.976-6 13.5-1.896 3.793 4 26.228 4 32 0 8.316-.623 23.755 3 31l1 13c3.236 6.472 5.687 13.374 9 20 5.249 10.497 27.539 3.922 32-5 4.12-8.24 1.299-20.597 5-28 14.005-28.01 29.356-58.572-6.5-76.5-4.071-2.035-8.724-6-13.5-6v-1c4.912 0 31 10.11 31 15l2 2v1c0 1.178 2.572 6 4 6v2c0 1.357.647 6 2 6v3c0 1.235-.643 5 1 5v2c0 1.574-.751 9 1 9v4c0 10.301-2.93 36.36-7 44.5l1 9.5Z"/><path fill="#99D2BD" id="OLF" d="m194 112-1 1v-1h1ZM220 119c0-2.373 2.284 0 3 0 0-3.026-10.445-7-13-7l6.5 3 3.5 4ZM246 112c-1.048 0-3-.473-3 1 1.048 0 3 .473 3-1ZM243 113l-2 1 2-1ZM241 114l-1 1 1-1ZM235 118l1 1 4-4c-1.408 0-5 1.197-5 3ZM295 127l2 2-2-2ZM161 128l-1 1 1-1ZM160 129l-1 1 1-1ZM297 130c1.428 0 4 4.822 4 6-1.428 0-4-4.822-4-6ZM159 131l-1 1 1-1ZM158 132l-1 1 1-1ZM157 134l-1 1 1-1ZM156 136l-1 1 1-1ZM301 138c1.353 0 2 4.643 2 6-1.353 0-2-4.643-2-6ZM155 140c-1.473 0-1 1.952-1 3 1.473 0 1-1.952 1-3ZM154 143c-1.473 0-1 1.952-1 3 1.473 0 1-1.952 1-3ZM303 147c1.643 0 1 3.765 1 5-1.643 0-1-3.765-1-5ZM153 151c-1.684 0-1 4.679-1 6 1.684 0 1-4.679 1-6ZM304 154c1.751 0 1 7.426 1 9-1.751 0-1-7.426-1-9ZM152 159c-.874 0-2 14.362-2 16 0 12.754-5.062 24.376 1 36.5 1.077 2.155 3.754 9.5 7 9.5 0-21.558-6-38.837-6-62ZM305 167c1.76 0 2 11.334 2 13.5 0 5.663 3.475 23.05 1 28l-4 5c-.716 1.431-3.243 7.5-5 7.5l-1-9.5c4.07-8.14 7-34.199 7-44.5ZM299 221l-1 1 1-1Z"/></svg>