<svg xmlns="http://www.w3.org/2000/svg" viewBox="0 0 456 320"><path fill="#9AD1BD" id="MOB" d="M145 163c1.353 0 2 4.643 2 6l8 14.5c6.957 13.915 5.965 46.233 20.5 53.5l12 6c10.117 5.059 21.887-5.274 25.5-12.5 6.118-12.236 8-28.4 8-43v-25c1.714-3.429 5.042-29.915 3-34-2.581-5.162-4.37-10.741-7-16l-5-5.5h-1l-1-1-5.5-3h-11c-1.047-.523-2.505-1.748-4-1-3.627 1.813-8.383 1.192-12 3-5.116 2.558-11.19 8.095-15 10-3.721 1.86-11.5 9.004-11.5 13l-1 1-1 1v1l-1 1v1l-1 1v1l-1 1v1l-1 2v3l-1 2v13c1.579 0 1 2.855 1 4v2ZM311 165l-2 4-10 18.5c-7.991 15.982-.766 31.766-15.5 46.5-8.523 8.523-30.849 15.802-38.5.5-3.82-7.64-4.452-16.904-8-24-2.914-5.829.962-15.076-2-21v-31c-1.482-2.965-4.72-24.56-3-28 2.712-5.424 4.231-11.462 7-17l6-6.5 7.5-4h8c14.605 0 25.828 3.828 36.5 14.5 2.675 2.675 10 8.885 10 12.5l1 1v1l1 1v1l1 1v1l1 1v3l1 1v3c0 1.145-.579 4 1 4v4c-1.714 0-1 5.594-1 7-1.643 0-1 3.765-1 5v1Z"/><path fill="#99D2BD" id="OLF" d="m210 106 1 1-1-1Z"/><path fill="#C7CBCA" id="onl" d="M153 209c0 5.398 5.767 8.034 8 12.5 6.995 13.991 20.742 22.621 34.5 29.5l6 1c4.194 2.097 12.599 6.2 17 4 10.943-5.472 8.5-29.791 8.5-41v-58c0-16.516.904-27.692-6-41.5-1.511-3.023-5.282-8.5-9-8.5l5 5.5c2.63 5.259 4.419 10.838 7 16 2.042 4.085-1.286 30.571-3 34v25c0 14.6-1.882 30.764-8 43-3.613 7.226-15.383 17.559-25.5 12.5l-12-6c-14.535-7.267-13.543-39.585-20.5-53.5l-8-14.5v11c1.684 0 1 4.679 1 6v1c1.473 0 1 1.952 1 3v4c1.473 0 1 1.952 1 3v1l1 2v4l1 2v1l1 2ZM304 208l-1 2c0 5.606-6.655 8.81-9 13.5-5.625 11.25-17.757 20.128-28.5 25.5-2.282 1.141-5.718.859-8 2-5.501 2.75-18.38 9.74-22.5 1.5l-5-9-1-23v-55c0-8.6-2.689-23.622 1-31v-7c2.821-5.642 6.037-20.5 15-20.5l-6 6.5c-2.769 5.538-4.288 11.576-7 17-1.72 3.44 1.518 25.035 3 28v31c2.962 5.924-.914 15.171 2 21 3.548 7.096 4.18 16.36 8 24 7.651 15.302 29.977 8.023 38.5-.5 14.734-14.734 7.509-30.518 15.5-46.5l10-18.5 1 1v2c-1.579 0-1 2.855-1 4v9c-1.473 0-1 1.952-1 3v1c-1.579 0-1 2.855-1 4v3l-1 2v1c-1.473 0-1 1.952-1 3v4l-1 1v1Z"/><path fill="#99D2BD" id="OLF" d="m151 128-1 1 1-1ZM150 129l-1 1 1-1ZM307 130l1 1-1-1ZM149 131l-1 1 1-1ZM308 132l1 1-1-1ZM148 133l-1 1 1-1ZM309 134l1 1-1-1ZM147 135l-1 1 1-1ZM310 136l1 1-1-1ZM146 137l-1 2 1-2ZM311 140l1 1-1-1ZM145 142l-1 2 1-2ZM312 144c1.579 0 1 2.855 1 4-1.579 0-1-2.855-1-4ZM144 147c-1.613 0-1.613 8 0 8v-8ZM313 152c-1.714 0-1 5.594-1 7 1.714 0 1-5.594 1-7ZM144 157c1.579 0 1 2.855 1 4-1.579 0-1-2.855-1-4ZM227 157c1.769 0 1 8.801 1 10.5V203c0 1.824.781 12-1 12v-58ZM312 159c-1.643 0-1 3.765-1 5 1.643 0 1-3.765 1-5ZM147 169v3c-1.674 0-2-7.241-2-9 1.353 0 2 4.643 2 6ZM309 169l1 1c1.643 0 1-3.765 1-5l-2 4ZM310 172c-1.579 0-1 2.855-1 4 1.579 0 1-2.855 1-4ZM147 180c1.684 0 1 4.679 1 6-1.684 0-1-4.679-1-6ZM309 185c-1.473 0-1 1.952-1 3 1.473 0 1-1.952 1-3ZM148 187c1.473 0 1 1.952 1 3-1.473 0-1-1.952-1-3ZM308 189c-1.579 0-1 2.855-1 4 1.579 0 1-2.855 1-4ZM149 194c1.473 0 1 1.952 1 3-1.473 0-1-1.952-1-3ZM307 196l-1 2 1-2ZM150 198l1 2-1-2ZM306 199c-1.473 0-1 1.952-1 3 1.473 0 1-1.952 1-3ZM151 204l1 2-1-2ZM305 206l-1 1 1-1ZM152 207l1 2-1-2ZM304 208l-1 2 1-2Z"/></svg>