<svg xmlns="http://www.w3.org/2000/svg" viewBox="0 0 456 320"><path fill="#99D2BD" id="OLF" d="M169 132c3.279 0-1.598 6.696-2 7.5V150l3.5-3c4.318-2.159 6.131-1.761 8.5-6.5v-4c2.111-4.222 9.947-4.724 13.5-6.5l7-7h15c2.937 1.469 5.783 6 8.5 6l1-2c0-2.92-6.787-6.143-8.5-7-12.452-6.226-24.838-1.581-36 4-1.991.996-10.5 5.181-10.5 8ZM287 132c-1.571 0-.48 3.541 0 4.5 2.136 4.272 3 9.392 3 14.5l-4.5-4c-10.849-5.424-4.526-3.552-8.5-11.5-1.782-3.564-8.526-3.013-11.5-4.5l-8-8c-9.281-4.64-23.907 7-24.5 7 0-1.048.473-3-1-3 0-3.34 8.943-6.721 11.5-8 12.088-6.044 24.828.914 35 6 1.803.902 8.5 4.499 8.5 7Z"/><path fill="#9AD1BD" id="MOB" d="m173 185 1 2c0 3.683 3.339 10.178 5 13.5 4.106 8.212 4.308 34.596 24.5 24.5 13.255-6.628 18.5-29.578 18.5-44 0-5.713 1.509-15.517 4-20.5.662-1.324-1.207-6.5 1-6.5v-12c-.672 0-2-4.329-2-5 0-3.303-2-5.115-2-8-2.717 0-5.563-4.531-8.5-6h-15l-7 7c-3.553 1.776-11.389 2.278-13.5 6.5v4c-2.369 4.739-4.182 4.341-8.5 6.5l-3.5 3c0 1.048.473 3-1 3v10l1 1v5l1 1v1l1 2v2l1 1v1l1 1v1l1 2v1l1 1v2ZM284 183l-1 2-4 10.5c-4.827 9.654-2.522 30.5-18 30.5h-5.5c-15.348-7.674-21.5-29.054-21.5-45 0-6.746-1.117-16.734-4-22.5-2.533-5.066 1-15.696 1-20.5l2-8c.593 0 15.219-11.64 24.5-7l8 8c2.974 1.487 9.718.936 11.5 4.5 3.974 7.948-2.349 6.076 8.5 11.5l4.5 4v15l-1 1v3l-1 1v2l-1 1v1l-1 2-1 2v2l-1 1v1Z"/><path fill="#C7CBCA" id="onl" d="m225 137 2 1c0-3.294 1.237-11-3-11l-1 2c0 2.885 2 4.697 2 8ZM229 137l2 1 2-8c0-1.048.473-3-1-3-4.11 0-3 7.446-3 10Z"/><path fill="#C7CBCA" id="onl" d="M292 221c0 13.325-18.557 19.472-29.5 14-4.178-2.089-10.687.156-15-2-3.929-1.964-14.412-16.324-16.5-20.5l-2-8.5-.5-5-3.5 14.5c-2.753 5.506-11.233 16.866-16.5 19.5-4.373 2.187-10.792-.104-15 2-10.119 5.06-28.5.074-28.5-13 0-9.713-1.902-21.304-6-29.5V151c1.579 0 1-2.855 1-4v-1c1.473 0 1-1.952 1-3v-2l1-1v-1l1-1 6-6c3.279 0-1.598 6.696-2 7.5V150c-1.473 0-1 1.952-1 3v10l1 1v5l1 1v1l1 2v2l1 1v1l1 1v1l1 2v1l1 1v2l1 2c0 3.683 3.339 10.178 5 13.5 4.106 8.212 4.308 34.596 24.5 24.5 13.255-6.628 18.5-29.578 18.5-44 3.7 0 1.001 7 5 7 0 7.796 3 4.67 3-1l4-6c0 15.946 6.152 37.326 21.5 45h5.5c15.478 0 13.173-20.846 18-30.5l4-10.5 1-2v-1l1-1v-2l1-2 1-2v-1l1-1v-2l1-1v-3l1-1v-15c0-5.108-.864-10.228-3-14.5-.48-.959-1.571-4.5 0-4.5 1.429 0 4 1.288 4 3l2 2 1 2 1 1v1c0 1.048-.473 3 1 3v1c0 1.048-.473 3 1 3v4c0 7.76 2.962 36.577 0 42.5-4.053 8.106-5 16.661-5 26.5Z"/><path fill="#99D2BD" id="OLF" d="m291 135 2 2-2-2ZM227 138v4c-.672 0-2-4.329-2-5l2 1ZM234 181l-4 6-1-50 2 1c0 4.804-3.533 15.434-1 20.5 2.883 5.766 4 15.754 4 22.5ZM163 138l-1 1 1-1ZM294 139l1 1-1-1ZM162 140l-1 1 1-1ZM295 141c1.473 0 1 1.952 1 3-1.473 0-1-1.952-1-3ZM161 143c-1.473 0-1 1.952-1 3 1.473 0 1-1.952 1-3ZM296 145c1.473 0 1 1.952 1 3-1.473 0-1-1.952-1-3ZM160 147c-1.579 0-1 2.855-1 4 1.579 0 1-2.855 1-4ZM167 150c-1.473 0-1 1.952-1 3 1.473 0 1-1.952 1-3ZM297 152c2.064 0 .426 3.353 1 4.5 3.113 6.226-1.039 15.921 2 22 1.192 2.383-.137 5.725 1 8 1.936 3.873 9.371 17.259 7 22-1.682 3.363-6.97.97-9 3l-5 5c-.465.93-.817 4.5-2 4.5 0-9.839.947-18.394 5-26.5 2.962-5.923 0-34.74 0-42.5ZM159 154c-.853 0-2 6.031-2 7l-1 22.5c0 7.591-11.528 16.944-7 26l3.5.5c2.772 1.386 4.47 1.47 7 4 1.434 1.434 4.287 8 5.5 8 0-9.713-1.902-21.304-6-29.5V154ZM222 181c3.7 0 1.001 7 5 7v-34c-2.207 0-.338 5.176-1 6.5-2.491 4.983-4 14.787-4 20.5ZM166 163l1 1-1-1ZM290 166l-1 1 1-1ZM167 169l1 1-1-1ZM289 170l-1 1 1-1ZM168 171l1 2-1-2ZM288 173l-1 1 1-1ZM169 175l1 1-1-1ZM287 175l-1 2 1-2ZM170 177l1 1-1-1ZM286 177l-1 2 1-2ZM171 179l1 2-1-2ZM285 181l-1 1 1-1ZM172 182l1 1-1-1ZM284 183l-1 2 1-2ZM173 185l1 2-1-2Z"/></svg>