<svg xmlns="http://www.w3.org/2000/svg" viewBox="0 0 456 320"><path fill="#1E9D5A" id="MOp1" d="M195 33c-12.771 0-24.187 5-36 5l2-7c11.062 0 22.829-4 34-4v6Z"/><path fill="#1E9C59" id="MOs1" d="m227 45-4 1-7.5-9c-6.359-3.18-12.86-5-20.5-5v-5c9.15 0 32 5.702 32 18ZM229 44l5 2 4-5.5c7.787-7.787 14.481-7.5 24-7.5l-1-6c-12.394 0-19.171 3.671-27.5 12l-4.5 5Z"/><path fill="#1E9D5A" id="MOp1" d="M262 33c5.174 0 24.988 1.244 28.5 3l6.5 2-1-7c-11.478 0-23.447-4-35-4l1 6Z"/><path fill="#187F60" id="SSp-ll1" d="m159 38-16 4c0-1.312-3-2.446-3-5l21-6-2 7ZM297 38c6.082 0 11.129 4 17 4 1.014 0 2-3.959 2-5-5.545 0-14.395-6-20-6l1 7Z"/><path fill="#1E9D58" id="MOs2/3" d="m223 47-7 3c0-8.315-17.666-7-23-7l2-10v-1c7.64 0 14.141 1.82 20.5 5l7.5 9v1ZM234 47l6 3c.669 0 6.785-6.143 8.5-7 4.016-2.008 11.887 1 15.5 1l-2-11c-9.519 0-16.213-.287-24 7.5l-4 5.5v1Z"/><path fill="#1F9C58" id="MOp2/3" d="M157 54v5c6.863 0 25.123-15 35-15l1-1 2-10c-12.771 0-24.187 5-36 5 0 5.964-2 9.873-2 16ZM300 54v6c-4.927 0-25.944-16-36-16l-2-11c5.174 0 24.988 1.244 28.5 3l6.5 2 2 11.5c0 1.19-.614 4.5 1 4.5Z"/><path fill="#197E64" id="SSp-ul1" d="m105 53 2 6c5.699 0 24.935-16 36-16v-1c0-1.312-3-2.446-3-5-8.076 0-30.226 16-35 16ZM351 53l-2 6c-5.475 0-24.607-16-35-16v-1c1.014 0 2-3.959 2-5 8.475 0 30.231 16 35 16Z"/><path fill="#187F64" id="SSp-ll2/3" d="m157 54-10 2c0-4.27-4-8.321-4-13v-1l16-4c0 5.964-2 9.873-2 16ZM300 54l9 2c2.943 0 2.359-13 5-13v-1c-5.871 0-10.918-4-17-4l2 11.5c0 1.19-.614 4.5 1 4.5Z"/><path fill="#197F61" id="SSp-ul2/3" d="M112 72h1c0-1.703 7.041-4.27 8.5-5 7.437-3.718 16.755-10 25.5-10v-1c0-4.27-4-8.321-4-13-11.065 0-30.301 16-36 16l5 13Z"/><path fill="#1F9D58" id="MOs5" d="M188 61c1.027 0 16-6.511 16 0 3.369 0 7.452-10 12-10v-1c0-8.315-17.666-7-23-7l-1 1c0 5.974-4 11.294-4 17ZM252 61h1c0-5.745 12.689-1 15-1l-4-16c-3.613 0-11.484-3.008-15.5-1-1.715.857-7.831 7-8.5 7v1c5.802 0 7.98 10 12 10Z"/><path fill="#197F61" id="SSp-ul2/3" d="M344 72h1c0-5.255 4-8.326 4-13-5.475 0-24.607-16-35-16-2.641 0-2.057 13-5 13v1c8.954 0 17.909 6.205 25.5 10 1.427.713 9.5 3.611 9.5 5Z"/><path fill="#1E9C5A" id="MOp5" d="M188 61c-7.524 0-22.149 15-32 15 0-2.33-1.756-7.987-1-9.5 1.007-2.015 2-3.947 2-6.5v-1c6.863 0 25.123-15 35-15 0 5.974-4 11.294-4 17Z"/><path fill="#3EA665" id="ACAd1" d="M233 70c-3.325 0-7.31 1-10 1V46l4-1c1.577 0 2 1.73 2-1l5 2v1c-1.665 0-1 4.222-1 5.5V70Z"/><path fill="#1E9C5A" id="MOp5" d="M269 61c5.724 0 22.399 15 32 15 0-6.19-1-11.007-1-16-4.927 0-25.944-16-36-16l4 16 1 1Z"/><path fill="#40A565" id="ACAd2/3" d="M218 71h5V47l-7 3v1c1.643 0 1 3.766 1 5l1 15ZM233 71c2.124 0 4.436 1 6 1 0-6.903 1-14.772 1-21v-1l-6-3c-1.665 0-1 4.222-1 5.5V71Z"/><path fill="#3EA566" id="ACAd5" d="M218 72c-4.554 0-8.124 6-12 6 0-2.111-.671-16-2-16v-1c3.369 0 7.452-10 12-10 1.643 0 1 3.766 1 5l1 15v1ZM239 72l11 5 2-16c-4.02 0-6.198-10-12-10 0 6.228-1 14.097-1 21Z"/><path fill="#1B8062" id="SSp-un1" d="M95 67h1c0-1.584 9.399-8 11-8l-2-6-12 8 2 6ZM364 61l-3 5c-4.529 0-7.23-7-12-7l2-6 13 8Z"/><path fill="#1C7F64" id="SSp-ll4" d="m157 60-8 3-2-6v-1l10-2v6ZM300 60l8 4 1-7v-1l-9-2v6Z"/><path fill="#1A7F63" id="SSp-ul4" d="M113 72c0 1.489 1.835 7 3 7 9.773 0 22.938-15 33-15v-1l-2-6c-8.745 0-18.063 6.282-25.5 10-1.459.73-8.5 3.297-8.5 5ZM344 72l-3 7c-9.856 0-23.297-15-33-15l1-7c8.954 0 17.909 6.205 25.5 10 1.427.713 9.5 3.611 9.5 5Z"/><path fill="#1D9C5A" id="MOs6a" d="M186 83h1c0-1.995 4.377-2 6-2 0-2.595 8.811-19 11-19v-1c0-6.511-14.973 0-16 0 0 3.148-3 7.68-3 10.5 0 2.843 1 7.88 1 11.5ZM270 83h1c0-7.997-2-14.58-2-22l-1-1c-2.311 0-15-4.745-15 1 0 5.5 10 12.523 10 20h1c1.357 0 6 .647 6 2Z"/><path fill="#1C7F63" id="SSp-un2/3" d="m112 72-10 5c-1.566 0-6-7.98-6-10 0-1.584 9.399-8 11-8l5 13ZM345 72c0 1.535 8.221 5 10 5 0-.881 5.421-10 6-10v-1c-4.529 0-7.23-7-12-7 0 4.674-4 7.745-4 13Z"/><path fill="#197C63" id="SSp-ll5" d="M153 77h2l1-1c0-2.33-1.756-7.987-1-9.5 1.007-2.015 2-3.947 2-6.5l-8 3v1c0 4.73 3 8.404 3 13h1ZM301 77h3l4-13-8-4c0 4.993 1 9.81 1 16v1Z"/><path fill="#197E63" id="SSp-n1" d="M50 118c2.364 0 3.053 3 5 3 0-10.555 19.728-40.114 27.5-44 3.992-1.996 7.918-10 12.5-10l-2-6c-3.604 0-8.078 6.789-10.5 8C70.878 74.81 50 106.337 50 118Z"/><path fill="#1F9B5A" id="MOp6a" d="M155 95h2c0-1.26 8.632-4 10-4l4-2c0-1.693 8.239-4 10-4 0-1.638 3.576-2 5-2 0-3.62-1-8.657-1-11.5 0-2.82 3-7.352 3-10.5-7.524 0-22.149 15-32 15l-1 1v18Z"/><path fill="#3FA664" id="ACAd6a" d="m261 83-2 2-9-7v-1l2-16h1c0 5.5 10 12.523 10 20l-2 2Z"/><path fill="#1F9B5A" id="MOp6a" d="M301 85v10c-10.502 0-19.484-12-30-12 0-7.997-2-14.58-2-22 5.724 0 22.399 15 32 15v9Z"/><path fill="#197E63" id="SSp-n1" d="M401 121h1l4-4c0-12.104-21.146-41.823-29.5-46-3.102-1.551-9.427-10-12.5-10l-3 5v1c4.556 0 7.476 6.488 10.5 8 10.993 5.497 29.5 34.845 29.5 46Z"/><path fill="#3FA664" id="ACAd6a" d="m193 81 4 4c3.22 0 5.552-7 9-7 0-2.111-.671-16-2-16-2.189 0-11 16.405-11 19Z"/><path fill="#187E62" id="SSp-ul5" d="m116 80 5 11 4.5-3 19-8c1.571-.785 7.5-.271 7.5-3 0-4.596-3-8.27-3-13-10.062 0-23.227 15-33 15v1ZM341 80c0 .424-5.025 10-6 10-6.125 0-22.137-12-31-12v-1l4-13c9.703 0 23.144 15 33 15v1Z"/><path fill="#1B7F64" id="SSp-n2/3" d="m55 121 4 2c3.747 0 3.624-3 7-3h1c0-13.396 21.534-42 35-42v-1c-1.566 0-6-7.98-6-10h-1c-4.582 0-8.508 8.004-12.5 10-7.772 3.886-27.5 33.445-27.5 44ZM401 121l-4 2c-2.926 0-2.469-2-6-2l-1-1c0-12.008-22.399-42-35-42v-1c0-.881 5.421-10 6-10 4.556 0 7.476 6.488 10.5 8 10.993 5.497 29.5 34.845 29.5 46Z"/><path fill="#40A664" id="ACAv1" d="m229 96 5 5c0-9.624-1-19.833-1-30v-1c-3.325 0-7.31 1-10 1 0 10.03-1 20.589-1 30l5-5c0-3.15 2-3.446 2 0Z"/><path fill="#3FA566" id="ACAv2/3" d="m222 103-4 2V71h5c0 10.03-1 20.589-1 30v2ZM235 103l3 2c0-10.771 1-21.747 1-33-1.564 0-3.876-1-6-1 0 10.167 1 20.376 1 30l1 2Z"/><path fill="#197E61" id="SSp-un4" d="M105 85h1l10-5v-1c-1.165 0-3-5.511-3-7h-1l-10 5v1l3 7Z"/><path fill="#3EA666" id="ACAv5" d="M210 102c2.722 0 4.53 3 8 3V72c-4.554 0-8.124 6-12 6 0 7.475 4 18.366 4 24ZM247 102c-2.933 0-5.321 3-9 3 0-10.771 1-21.747 1-33l11 5v1c0 8.164-3 15.532-3 23v1Z"/><path fill="#197E61" id="SSp-un4" d="m341 80 10 5c0-2.565 4-3.91 4-7v-1c-1.779 0-10-3.465-10-5h-1l-3 7v1Z"/><path fill="#197D61" id="SSp-ul6a" d="M127 106h1l4-1c0-1.638 3.576-2 5-2 0-1.843 12.832-6 15-6 0-1.473 1.952-1 3-1V83c-1.995 0-2-4.377-2-6h-1c0 2.729-5.929 2.215-7.5 3l-19 8-4.5 3c0 5.189 6 9.332 6 15Z"/><path fill="#1A7F64" id="SSp-ll6a" d="M155 77v6c-1.995 0-2-4.377-2-6h2ZM304 78c-1.925 0-.787 7-3 7v-8h3v1Z"/><path fill="#1A8062" id="SSp-n4" d="m75 118-8 2c0-13.396 21.534-42 35-42l3 7c0 2.058-6.918 5.209-8.5 6-3.348 1.674-19.5 20.813-19.5 24l-2 3Z"/><path fill="#40A564" id="ACAv6a" d="M209 102h1c0-5.634-4-16.525-4-24-3.448 0-5.78 7-9 7v1l2 1.5c1.277 2.554 8 9.685 8 11.5l2 3ZM249 99l-2 2c0-7.468 3-14.836 3-23l9 7v2c-2.109 0-2 2.534-2 4l-8 8Z"/><path fill="#197D61" id="SSp-ul6a" d="m301 95 28 11c0-5.717 6-8.904 6-15v-1c-6.125 0-22.137-12-31-12-1.925 0-.787 7-3 7v10Z"/><path fill="#1A8062" id="SSp-n4" d="M380 116c3.115 0 6.196 4 10 4 0-12.008-22.399-42-35-42 0 3.09-4 4.435-4 7v1c5.857 0 29 24.181 29 30Z"/><path fill="#197D62" id="SSp-un5" d="M110 96h1l10-5-5-11-10 5c0 4.082 4 6.65 4 11ZM335 91l11 5c0-1.548 3.293-10 5-10v-1l-10-5c0 .424-5.025 10-6 10v1Z"/><path fill="#1E9C58" id="MOs6b" d="m193 82-6 1c0-1.995 4.377-2 6-2v1Z"/><path fill="#3FA466" id="ACAd6b" d="M197 85v1l-4-4v-1l4 4ZM264 82l-3 1 2-2h1v1Z"/><path fill="#1E9C58" id="MOs6b" d="M264 82c1.564 0 3.876 1 6 1 0-1.353-4.643-2-6-2v1Z"/><path fill="#CACCC7" id="cing" d="m207 99 2 3c-8.736 0-12.53-10.515-19.5-14-6.229-3.114-13.821 5-19.5 5l-1 1h-5c0-1.916 3-.07 3-3 1.465 0 4 .109 4-2 2.172 0 10-1.377 10-4l5-1 1-1 6-1 4 4c0 4.413 5.813 13 10 13ZM247 101v1c8.884 0 13.688-10.594 20.5-14 5.839-2.92 13.296 5 18.5 5l1 1h6c0-1.561-23-9.883-23-11-2.124 0-4.436-1-6-1l-3 1-1 3-1 1c0 1.466.109 4-2 4 0 2.664-5.336 8-8 8l-2 2Z"/><path fill="#1D9D5A" id="MOp6b" d="m186 84-5 1c0-1.638 3.576-2 5-2v1Z"/><path fill="#1E9C58" id="MOs6b" d="m187 83-1 1v-1h1Z"/><path fill="#3FA466" id="ACAd6b" d="M259 86h1l1-3-2 2v1Z"/><path fill="#1D9D5A" id="MOp6b" d="M301 95v1l-8-2c0-1.561-23-9.883-23-11h1c10.516 0 19.498 12 30 12Z"/><path fill="#197E62" id="SSp-n5" d="M90 111c-5.233 0-8.15 4-13 4 0-3.187 16.152-22.326 19.5-24 1.582-.791 8.5-3.942 8.5-6h1c0 4.082 4 6.65 4 11 0 2.385-18 9.719-18 14l-2 1Z"/><path fill="#1D9D5A" id="MOp6b" d="M181 85c-1.761 0-10 2.307-10 4 2.172 0 10-1.377 10-4Z"/><path fill="#40A465" id="ACAv6b" d="m197 86 2 1.5c1.277 2.554 8 9.685 8 11.5-4.187 0-10-8.587-10-13ZM260 86l-1 1v-1h1Z"/><path fill="#197E62" id="SSp-n5" d="M365 110c4.661 0 11.671 6 15 6 0-5.819-23.143-30-29-30-1.707 0-5 8.452-5 10v1c2.796 0 19 11.52 19 13Z"/><path fill="#40A465" id="ACAv6b" d="M259 87c-2.109 0-2 2.534-2 4 2.109 0 2-2.534 2-4Z"/><path fill="#C9C7C9" id="ccb" d="m366 158 1 5-4.5-8-5.5-11.5-10-14c-5.914-11.828-22.785-17.642-32.5-22.5-5.316-2.658-12.631-1.316-18-4l-10.5 1-4.5-5c-4.875-2.438-24.5 1.845-24.5 7l-2 1-1 1-1 1c-6.759 0-12.228 4-18 4-1.048 0-3-.473-3 1h-8l-2-1c-6.355 0-12.963-4-19-4v-1c0-2.355-19.96-12.27-24.5-10-1.661.83-7.691 6-8.5 6-15.707 0-27.589 2.045-41.5 9l-11 8c-9.72 4.86-13.096 19.096-20 26-1.366 1.366-1.93 8-4.5 8v-3c1.473 0 1-1.952 1-3l1-1v-1l1-2 1-1v-1l1-2 1-1v-1c1.577 0 2-1.762 2-3 1.468 0 8-9.395 8-11l9.5-9c4.819-4.819 12.215-7.107 18-10 7.862-3.931 17.051-5.026 25-9 1.139-.57 6.5-1.675 6.5-3h1l1-1c5.679 0 13.271-8.114 19.5-5 6.97 3.485 10.764 14 19.5 14h1c2.722 0 4.53 3 8 3l4-2c0 4.384 5.915 0 6.5 0 .396 0 6.5 3.664 6.5 0l3 2c3.679 0 6.067-3 9-3 8.884 0 13.688-10.594 20.5-14 5.839-2.92 13.296 5 18.5 5l1 1h2c0 2.467 9.651 4.076 11.5 5 10.299 5.149 21.644 7.822 32 13 6.354 3.177 16.221 12.941 19.5 19.5.822 1.644 5.222 10.5 7 10.5v1c0 1.238.423 3 2 3v1c0 1.49 2.206 8 4 8v2l1 1Z"/><path fill="#1D9D5A" id="MOp6b" d="m171 89-4 2c1.465 0 4 .109 4-2Z"/><path fill="#1A7F61" id="SSp-un6a" d="M126 107h1v-1c0-5.668-6-9.811-6-15l-10 5 1 3 1.5-2c4.338-2.17 12.5 6.415 12.5 10Z"/><path fill="#1D9D5A" id="MOp6b" d="m164 94-7 1c0-1.26 8.632-4 10-4 0 2.93-3 1.084-3 3Z"/><path fill="#40A465" id="ACAv6b" d="m257 91-8 8c2.664 0 8-5.336 8-8Z"/><path fill="#1A7F61" id="SSp-un6a" d="M330 107h1c0-5.416 13-14.444 13-8l2-2v-1l-11-5c0 6.096-6 9.283-6 15v1h1Z"/><path fill="#C9C9CA" id="scwm" d="m170 93-1 1 1-1ZM286 93l1 1-1-1ZM111 119c0 2.72-2 3.553-2 6l9.5-9c4.819-4.819 12.215-7.107 18-10 7.862-3.931 17.051-5.026 25-9 1.139-.57 6.5-1.675 6.5-3h-4l-7 1-1 1c0 1.58-2.855 1-4 1 0 2.609-12.409 6-15 6 0 2.461-3.378 2-5 2l-4 2h-1c0 2.767-4.975 4-7 4 0 3.464-5.792 8-9 8ZM330 108c0 1.721 7.678 3.856 9 6.5 1.288 2.576 5.095 3.191 6 5 3.309 6.618 14 14.839 14 22.5-1.778 0-6.178-8.856-7-10.5-3.279-6.559-13.146-16.323-19.5-19.5-10.356-5.178-21.701-7.851-32-13-1.849-.924-11.5-2.533-11.5-5h4l8 2c0 1.55 6.228 2.364 7.5 3 5.585 2.793 14.061 8 20.5 8l1 1Z"/><path fill="#1D9D5A" id="MOp6b" d="M155 96h1l1-1h-2v1Z"/><path fill="#1C8064" id="SSp-ul6b" d="M329 106v1c-6.439 0-14.915-5.207-20.5-8-1.272-.636-7.5-1.45-7.5-3v-1l28 11Z"/><path fill="#187D62" id="SSp-n6a" d="M112 99c-1.17 0-.625 6-3.5 6-4.196 0-10.867 5-16.5 5 0-4.281 18-11.615 18-14h1l1 3Z"/><path fill="#1C8064" id="SSp-ul6b" d="M156 96c0 1.58-2.855 1-4 1 0-1.473 1.952-1 3-1h1Z"/><path fill="#7ED04B" id="IG" d="M222 103c0 4.384 5.915 0 6.5 0 .396 0 6.5 3.664 6.5 0l-1-2-5-5c0 1.4-2 1.4-2 0l-5 5v2Z"/><path fill="#187D61" id="SSp-m6a" d="m79 137 8.5 6 5.5 3c1.763 0 8.641-21 14-21 0-1.334 2.972-6 4-6l9-8c0-1.428 4.822-4 6-4 0-3.585-8.162-12.17-12.5-10l-1.5 2c-1.17 0-.625 6-3.5 6-4.196 0-10.867 5-16.5 5l-2 1c0 6.333-11 18.135-11 26Z"/><path fill="#1C8064" id="SSp-ul6b" d="M152 97c-2.168 0-15 4.157-15 6 2.591 0 15-3.391 15-6Z"/><path fill="#187D61" id="SSp-m6a" d="M378 137c-3.296 0-9.39 8-15 8l-6-11.5c-2.181-4.362-21.344-26.5-26-26.5 0-5.416 13-14.444 13-8 0 6.903 15.469 11 21 11 0 2.221 13 22.103 13 27Z"/><path fill="#187D62" id="SSp-n6a" d="M344 99c0 6.903 15.469 11 21 11 0-1.48-16.204-13-19-13l-2 2Z"/><path fill="#AAA8A9" id="SEZ" d="M175 106c0-15.806 23.593 2 28 2 0-2.355-19.96-12.27-24.5-10-1.661.83-7.691 6-8.5 6 0 1.014 3.959 2 5 2ZM257 106c4.295 0 25-14.452 25 0l4-2-4.5-5c-4.875-2.438-24.5 1.845-24.5 7Z"/><path fill="#A8AAAA" id="VL" d="m193 176-2 1-1-2c0-3.153-1.569-9.637-3-12.5V146c0-5.784.446-14.608-2-19.5L175 106c0-15.806 23.593 2 28 2v1c0 7.45-12 18.075-12 31v19c0 1.201-.176 14 2 14v3ZM264 175l1 2 2-4c0-2.592.958-3.416 2-5.5l1-20.5c0-5.258-1.66-14.179 1-19.5l10-20.5 1-1c0-14.452-20.705 0-25 0l-2 1-1 1-1 1c0 6.765 12 17.305 12 31 0 4.121 1 9.275 1 14v5c0 1.913-.612 13-2 13v3Z"/><path fill="#1C8064" id="SSp-ul6b" d="M137 103c-1.424 0-5 .362-5 2 1.622 0 5 .461 5-2Z"/><path fill="#98D5F9" id="CP" d="m139 229-12.5 6H114c0-1.845-3.381-1.441-4.5-2l-8.5-7-1-2-1-1-1-2-1-1v-2l-1-1v-1l-1-1v-2l-1-1v-1l-1-1v-1c0-10.121-7-19.445-7-30v-4l1-2v-3l1-1v-2l1-2v-1l1-2c1.732 0 3-5.353 3-7 2.57 0 3.134-6.634 4.5-8 6.904-6.904 10.28-21.14 20-26l11-8c13.911-6.955 25.793-9 41.5-9 0 1.014 3.959 2 5 2l10 20.5c2.446 4.892 2 13.716 2 19.5-1.319 0-4.387 8.887-6 10.5-2.7 2.7-6.098 2.197-8 6-2.335 4.67-1.128 12.743 1 17l-1 29.5-1 2-1 1c-1.048 0-3-.473-3 1h-4l-1 1h-1l-1 1h-1l-1 1-2 1c-1.562 0-5 2.189-5 4-1.238 0-3 .423-3 2-1.238 0-3 .423-3 2-1.572 0-7 2.052-7 4ZM342 235h1c0-.994 5.757-4 7-4 0-1.577 1.762-2 3-2 0-1.238.423-3 2-3l1-1 1-1 2-5 1-1v-1l1-1v-2l1-1v-1l1-1v-2l2-4v-1c0-1.048-.473-3 1-3 0-1.048-.473-3 1-3v-1c0-7.387 3-13.828 3-22v-2l-1-1v-3l-1-2v-1l-1-2v-1l-4.5-8-5.5-11.5-10-14c-5.914-11.828-22.785-17.642-32.5-22.5-5.316-2.658-12.631-1.316-18-4l-10.5 1-4 2-1 1-10 20.5c-2.66 5.321-1 14.242-1 19.5 1.516 0 3.568 9.034 5.5 10 19.419 9.71 1.31 23.12 6.5 33.5 2.265 4.53-1.209 11.582 1 16l2 4.5v1c1.145 0 4-.579 4 1h4l2 2h2l13.5 10c11.611 5.805 17.16 10 31.5 10Z"/><path fill="#1C8064" id="SSp-ul6b" d="M128 106v1l4-2-4 1Z"/><path fill="#1A7D63" id="SSp-un6b" d="M127 107h1v-1h-1v1Z"/><path fill="#AAA8A9" id="SEZ" d="m257 106-2 1 2-1ZM282 106l-1 1 1-1Z"/><path fill="#188064" id="SSp-m6b" d="M127 107c0 2.767-4.975 4-7 4 0-1.428 4.822-4 6-4h1Z"/><path fill="#AAA8A9" id="SEZ" d="m255 107-1 1 1-1Z"/><path fill="#1A7D63" id="SSp-un6b" d="M330 107v1l-1-1h1Z"/><path fill="#188064" id="SSp-m6b" d="M362 147h1v-2l-6-11.5c-2.181-4.362-21.344-26.5-26-26.5h-1v1c0 1.721 7.678 3.856 9 6.5 1.288 2.576 5.095 3.191 6 5 3.309 6.618 14 14.839 14 22.5v1c1.577 0 2 1.762 2 3v1h1Z"/><path fill="#90CBEC" id="LSc" d="M191 140h1c4.696 0 30-21.847 30-25v-2c-6.355 0-12.963-4-19-4 0 7.45-12 18.075-12 31ZM234 115c0 4.32 27.477 25 31 25 0-13.695-12-24.235-12-31-6.759 0-12.228 4-18 4l-1 2Z"/><path fill="#1B7E63" id="SSp-m5" d="M387 131c0 .43-7.663 6-9 6 0-4.897-13-24.779-13-27 4.661 0 11.671 6 15 6 0 4.888 7 9.615 7 15ZM78 137h1c0-7.865 11-19.667 11-26-5.233 0-8.15 4-13 4l-2 3-6 13c1.022 0 9 5.166 9 6Z"/><path fill="#188064" id="SSp-m6b" d="m120 111-9 8c3.208 0 9-4.536 9-8Z"/><path fill="#97D6F9" id="STR" d="m224 114-2 1v-2l2 1ZM226 114h4c0 2.711-4 1.509-4 0ZM232 114l2 1 1-2c-1.048 0-3-.473-3 1Z"/><path fill="#90CAED" id="LSr" d="M266 154c-1.643 0-1 3.765-1 5 0 4.287-4.208 4.085-6 .5-1.254-2.508-9.544-15.5-12-15.5l-1-2-9-8.5-7.5-10.5-1-4-5.5 9.5-9 10.5-1 1-4 4c-3.758 0-11.24 17.37-14.5 19-1.929.965-1.915-4-3.5-4v-18l1-1c4.696 0 30-21.847 30-25l2-1h2c0 1.509 4 2.711 4 0h2l2 1c0 4.32 27.477 25 31 25 0 4.121 1 9.275 1 14Z"/><path fill="#1B7F62" id="SSp-m4" d="M387 131h1l5-4v-1c0-1.624-2-2.75-2-5l-1-1c-3.804 0-6.885-4-10-4 0 4.888 7 9.615 7 15Z"/><path fill="#1A7E62" id="SSs1" d="M413 177h4c0-16.664.899-33.703-6-47.5-.888-1.775-3.093-12.5-5-12.5l-4 4 7 18.5c4.353 8.707 4 26.701 4 37.5ZM39 177h5c0-8.592-.855-28.79 3-36.5l8-19.5c-1.947 0-2.636-3-5-3-1.907 0-4.112 10.725-5 12.5-6.685 13.37-6 30.376-6 46.5Z"/><path fill="#1B7F62" id="SSp-m4" d="M63 127c2.58 0 3.211 4 6 4l6-13-8 2-1 1c0 1.076-1.523 5-3 5v1Z"/><path fill="#188064" id="SSp-m6b" d="M107 125h2c0-2.447 2-3.28 2-6-1.028 0-4 4.666-4 6Z"/><path fill="#8FCBEC" id="SF" d="M245 179h2c3.259 0 8.865-7.183 12.5-9 1.43-.715 4.5.291 4.5 2 1.388 0 2-11.087 2-13h-1c0 4.287-4.208 4.085-6 .5-1.254-2.508-9.544-15.5-12-15.5l1 2.5c-4.661 9.322-13.241-4.13-6.5-7.5l4.5 3-9-8.5-7.5-10.5-1-4-5.5 9.5-9 10.5c11.318 0-5 21.549-5 5-3.758 0-11.24 17.37-14.5 19-1.929.965-1.915-4-3.5-4 0 1.201-.176 14 2 14 0-8.549 11.608 3.054 13.5 4l2.5 2h3l1-2c-7.523 0-7.437-8.627-5-13.5 4.229-8.458 10.603-13.052 19.5-17.5 7.224-3.612 36.32 30 15.5 30l2 3Z"/><path fill="#1A7E64" id="SSp-m2/3" d="m59 123 4 3c1.477 0 3-3.924 3-5v-1c-3.376 0-3.253 3-7 3Z"/><path fill="#1A8062" id="SSp-n4" d="m67 120-1 1v-1h1Z"/><path fill="#1B8063" id="SSs2/3" d="m53 176-9 1c0-8.592-.855-28.79 3-36.5l8-19.5 4 2 4 3v1l-6 16.5c-4.492 8.983-4 21.683-4 32.5Z"/><path fill="#1A7E64" id="SSp-m2/3" d="m397 123-4 3c0-1.624-2-2.75-2-5 3.531 0 3.074 2 6 2Z"/><path fill="#1B8063" id="SSs2/3" d="m404 176 9 1c0-10.799.353-28.793-4-37.5l-7-18.5h-1l-4 2-4 3v1l6 14.5c4.128 8.256 5 24.347 5 34.5Z"/><path fill="#188064" id="SSp-m6b" d="M93 147h2l1-2 1-1v-1l1-2 1-1v-1c0-1.238.423-3 2-3 0-4.774 6-6.749 6-11-5.359 0-12.237 21-14 21v1Z"/><path fill="#C9C9CA" id="scwm" d="M109 125c0 1.605-6.532 11-8 11 0-4.774 6-6.749 6-11h2Z"/><path fill="#187C63" id="SSs4" d="m58 175-5 1c0-10.817-.492-23.517 4-32.5l6-16.5c2.58 0 3.211 4 6 4l-6 14.5c-3.813 7.627-5 20.531-5 29.5ZM399 175l5 1c0-10.153-.872-26.244-5-34.5l-6-14.5-5 4c0 4.099 3.235 8.97 5 12.5 3.082 6.164 6 24.206 6 31.5Z"/><path fill="#1C8063" id="SSs5" d="M58 175h13c0-5.562 0-20.501 2-24.5 1.954-3.907 5-8.915 5-13.5 0-.834-7.978-6-9-6l-6 14.5c-3.813 7.627-5 20.531-5 29.5ZM385 175h14c0-7.294-2.918-25.336-6-31.5-1.765-3.53-5-8.401-5-12.5h-1c0 .43-7.663 6-9 6 0 3.399 3.46 9.419 5 12.5 2.384 4.769 2 19.142 2 25.5Z"/><path fill="#C9C9CA" id="scwm" d="M101 136c-1.577 0-2 1.762-2 3 1.577 0 2-1.762 2-3Z"/><path fill="#197D63" id="SSs6a" d="M71 175h14c0-8.875 8-22.406 8-28v-1l-5.5-3-8.5-6h-1c0 4.585-3.046 9.593-5 13.5-2 3.999-2 18.938-2 24.5ZM372 175h13c0-6.358.384-20.731-2-25.5-1.54-3.081-5-9.101-5-12.5-3.296 0-9.39 8-15 8v2c2.162 0 2.284 6.067 3 7.5 2.569 5.139 6 14.629 6 20.5Z"/><path fill="#8FCBEC" id="SF" d="m214 139-1 1 1-1Z"/><path fill="#CBC8CB" id="fi" d="m213 140-4 4c0 16.549 16.318-5 5-5l-1 1ZM246 142l-4.5-3c-6.741 3.37 1.839 16.822 6.5 7.5l-1-2.5-1-2Z"/><path fill="#C9C9CA" id="scwm" d="m99 140-1 1 1-1Z"/><path fill="#97D6F9" id="STR" d="m192 140-1 1v-1h1Z"/><path fill="#C9C9CA" id="scwm" d="m98 141-1 2 1-2ZM359 143c1.577 0 2 1.762 2 3-1.577 0-2-1.762-2-3ZM97 144l-1 1 1-1ZM96 145l-1 2 1-2Z"/><path fill="#97D6F9" id="STR" d="M175 204c-2.496 0 .496 5-2 5l1-29.5c-2.128-4.257-3.335-12.33-1-17 1.902-3.803 5.3-3.3 8-6 1.613-1.613 4.681-10.5 6-10.5v16.5c1.431 2.863 3 9.347 3 12.5l-3.5-4c-1.445-.722-5.5 1.494-5.5 3l-2 1c0-1.4-3.444-8.612-4-7.5l1 9c-1.874 3.749-1 21.138-1 27.5Z"/><path fill="#96A7D2" id="TRS" d="m230 177 3 2c3.274 0 10-14.78 10-3 20.82 0-8.276-33.612-15.5-30-8.897 4.448-15.271 9.042-19.5 17.5-2.437 4.873-2.523 13.5 5 13.5 0-12.252 7.596 2 10 2l4-3c0-5.775 3-2.624 3 1Z"/><path fill="#1A8061" id="SSs6b" d="M85 175h1l1-2v-3l1-1v-2l1-2v-1l1-2v-3l1-1v-1l1-2c0-1.048-.473-3 1-3 0-1.048-.473-3 1-3l1-1v-1h-2c0 5.594-8 19.125-8 28Z"/><path fill="#97D6F9" id="STR" d="M281 201c2.411 0-.148 10 4 10l-2-4.5c-2.209-4.418 1.265-11.47-1-16-5.19-10.38 12.919-23.79-6.5-33.5-1.932-.966-3.984-10-5.5-10l-1 20.5c-1.042 2.084-2 2.908-2 5.5 1.791 0 2.959-3.27 5.5-2l2.5 2 2 2c1.959 0 1.677-8 3.5-8l.5 34Z"/><path fill="#C9C9CA" id="scwm" d="m362 147 3 8c-1.794 0-4-6.51-4-8h1Z"/><path fill="#1A8061" id="SSs6b" d="M371 175h1c0-5.871-3.431-15.361-6-20.5-.716-1.433-.838-7.5-3-7.5h-1l3 8v2l1 1 1 5v1l1 2v1l1 2v3l1 1v2h1Z"/><path fill="#C9C9CA" id="scwm" d="m95 148-1 1 1-1ZM94 149c-1.473 0-1 1.952-1 3 1.473 0 1-1.952 1-3ZM92 155h1v-3c-1.473 0-1 1.952-1 3Z"/><path fill="#97D6F9" id="STR" d="M265 159h1v-5c-1.643 0-1 3.765-1 5Z"/><path fill="#C9C9CA" id="scwm" d="m92 155-1 2 1-2Z"/><path fill="#C9C7C9" id="ccb" d="M90 159v3c1.732 0 3-5.353 3-7h-1l-1 2v1l-1 1Z"/><path fill="#C9C9CA" id="scwm" d="m365 157 1 1-1-1ZM91 158l-1 1 1-1Z"/><path fill="#C9C7C9" id="ccb" d="m90 162-1 2 1-2ZM367 164l1 2-1-2ZM89 165l-1 2 1-2Z"/><path fill="#CCC" d="M179 195c-.618 0-4 14.541-4 9 0-6.362-.874-23.751 1-27.5l-1-9c.556-1.112 4 6.1 4 7.5v20ZM277 192c1.056 0 4 19.888 4 9l-.5-34c-1.823 0-1.541 8-3.5 8v17Z"/><path fill="#C9C7C9" id="ccb" d="m368 167 1 2-1-2ZM88 169l-1 1 1-1Z"/><path fill="#8FCBED" id="LSv" d="m199 187 4.5 4c3.204 1.602 5.152-3 7.5-3v-5l-2-4-2.5-2c-1.892-.946-13.5-12.549-13.5-4v3l4 7v1l2 2v1ZM256 189l-1 1-5.5 1-4.5-4v-4l2-4c3.259 0 8.865-7.183 12.5-9 1.43-.715 4.5.291 4.5 2v3c-1.014 0-2 3.959-2 5l-1 1-1 2-2 3-1 1-1 2Z"/><path fill="#B3C0DE" id="BST" d="M199 233h1l9-7.5c1.924-3.848 0-6.6 0-10.5-2.703 0-10.681 1.138-12-1.5-1.194-2.387 6.874-9.5 9-9.5l-1-6-6-11v-1l-2-2v-1l-6-6-1-2-3.5-4c-1.445-.722-5.5 1.494-5.5 3l-1 15c0 1.235.643 5-1 5v1l-2 24c0 12.009 12.105 14 22 14Z"/><path fill="#C7C8CA" id="fx" d="M245 187v10c-2.201 0-3.313 3.594-6.5 2-7.335-3.668-5.5-13.174-5.5-20 3.274 0 10-14.78 10-3l2 3v8Z"/><path fill="#B3C0DE" id="BST" d="M258 233h9l7.5-4c4.345-2.172 4.5-5.349 4.5-10 0-9.771-2-17.648-2-27v-6c-1.682 0-2-10.912-2-13l-2.5-2c-2.541-1.27-3.709 2-5.5 2l-2 4-3 3-1 1-1 2-2 3-1 1-1 2-1 1-3 7-1 2v5l7 5.5c3.615 7.23-6.166 5.5-11 5.5 0 5.972-.717 7.065 2 12.5l8 5.5h1Z"/><path fill="#C7C8CA" id="fx" d="M211 188c0 1.842-1 4.283-1 5.5l2 3.5c1.947 0 3.644 3.428 6.5 2 6.024-3.012 4.5-13.423 4.5-20-2.404 0-10-14.252-10-2l-1 2c0 1.145.579 4-1 4v5Z"/><path fill="#FF5445" id="MEPO" d="m227 176-3 20.5c.704 1.408 8.012 1.977 9 0l-2-6-1-13.5c0-3.624-3-6.775-3-1Z"/><path fill="#C8CBCC" id="ec" d="m369 172 1 1-1-1ZM87 173l-1 2 1-2Z"/><path fill="#8599CC" id="PAL" d="M277 175v11c-1.682 0-2-10.912-2-13l2 2ZM179 175v19c1.643 0 1-3.765 1-5l1-15-2 1Z"/><path fill="#11AC82" id="VISC4" d="m58 184-4 1c0-2.389-1-5.987-1-9l5-1v9Z"/><path fill="#12AD82" id="VISC5" d="M71 181c-5.765 0-8.342 3-13 3v-9h13v6Z"/><path fill="#11AC83" id="VISC6a" d="M85 179c-5.762 0-9.9 2-14 2v-6h14c0 .716-2.373 3 0 3v1Z"/><path fill="#11AD82" id="VISC6b" d="M85 178h1v-3h-1c0 .716-2.373 3 0 3Z"/><path fill="#97D6F9" id="STR" d="m265 177-3 3c0-1.041.986-5 2-5l1 2Z"/><path fill="#C8CBCC" id="ec" d="M369 192c0 1.424-.362 5-2 5 0-7.387 3-13.828 3-22h1v14l-1 2-1 1Z"/><path fill="#11AD82" id="VISC6b" d="M371 178h1v-3h-1v3Z"/><path fill="#11AC83" id="VISC6a" d="M372 178c5.158 0 8.569 3 13 3v-6h-13v3Z"/><path fill="#12AD82" id="VISC5" d="M398 184h1v-9h-14v6c5.644 0 8.692 3 13 3Z"/><path fill="#11AC82" id="VISC4" d="m399 184 4 1 1-9-5-1v9Z"/><path fill="#12AC83" id="VISC2/3" d="m54 185-8 3c0-3.451-2-7.022-2-11l9-1c0 3.013 1 6.611 1 9Z"/><path fill="#97D6F9" id="STR" d="m191 177 6 6-4-7-2 1Z"/><path fill="#CAC7CB" id="fiber tracts" d="M206 204c5.682 0 15.215-8.142 21.5-5 1.661.83 4.652-1.174 7 0l16.5 5v-5c-2.518 0-4.286-2-6-2-2.201 0-3.313 3.594-6.5 2-7.335-3.668-5.5-13.174-5.5-20l-3-2 1 13.5 2 6c-.988 1.977-8.296 1.408-9 0l3-20.5-4 3c0 6.577 1.524 16.988-4.5 20-2.856 1.428-4.553-2-6.5-2-1.817 0-3.949 1-7 1l1 6Z"/><path fill="#12AC83" id="VISC2/3" d="M410 188h1l2-11-9-1-1 9v1l7 2Z"/><path fill="#12AD83" id="VISC1" d="M46 189c-2.424 0-2.76 2-4 2l-3-14h5c0 3.978 2 7.549 2 11v1ZM411 188l3 2c1.972 0 3-10.699 3-13h-4l-2 11Z"/><path fill="#009B74" id="GU6a" d="m82 193-8 2c0-4.512-3-8.873-3-14 4.1 0 8.238-2 14-2v4c0 2.707 1 5.903 1 8-2.424 0-2.76 2-4 2Z"/><path fill="#019C74" id="GU6b" d="M85 179h1v-1h-1v1ZM372 178c0 1.574.751 9-1 9v-9h1Z"/><path fill="#009B74" id="GU6a" d="M382 195h1c0-5.002 2-8.614 2-14-4.431 0-7.842-3-13-3 0 1.574.751 9-1 9v4l4 2 7 2Z"/><path fill="#C8CBCC" id="ec" d="m91 207 2 2c0-10.121-7-19.445-7-30h-1v4c.689 0 2 7.178 2 8l2 8 1 1 1 7Z"/><path fill="#97D6F9" id="STR" d="M212 179c0 1.145.579 4-1 4l-2-4h3ZM247 179l-2 4v-4h2ZM262 180l-1 1 1-1Z"/><path fill="#019C75" id="GU5" d="M74 195c-4.669 0-9.322 2-13 2 0-4.046-3-8.516-3-13 4.658 0 7.235-3 13-3 0 5.127 3 9.488 3 14Z"/><path fill="#97D6F9" id="STR" d="m261 181-1 2 1-2Z"/><path fill="#019C75" id="GU5" d="m383 195 12 1c2.406 0 3-9.841 3-12-4.308 0-7.356-3-13-3 0 5.386-2 8.998-2 14Z"/><path fill="#019C74" id="GU6b" d="M86 191h1c0-.822-1.311-8-2-8 0 2.707 1 5.903 1 8Z"/><path fill="#009C74" id="GU4" d="M58 197h3c0-4.046-3-8.516-3-13l-4 1c0 4.302 4 8.269 4 12Z"/><path fill="#97D6F9" id="STR" d="m197 184 2 2-2-2Z"/><path fill="#009C74" id="GU4" d="M395 197h3l3-4.5c.65-1.3.007-6.5 2-6.5v-1l-4-1h-1c0 2.159-.594 12-3 12v1Z"/><path fill="#009B75" id="GU2/3" d="M58 197c-2.583 0-3.934 2-7 2l-5-10v-1l8-3c0 4.302 4 8.269 4 12Z"/><path fill="#97D6F9" id="STR" d="m258 186-1 1 1-1Z"/><path fill="#009B75" id="GU2/3" d="M405 199h1c0-3.857 4-6.83 4-11l-7-2c-1.993 0-1.35 5.2-2 6.5l-3 4.5 7 2Z"/><path fill="#97D6F9" id="STR" d="M212 197c-1.817 0-3.949 1-7 1l-6-11 4.5 4c3.204 1.602 5.152-3 7.5-3 0 1.842-1 4.283-1 5.5l2 3.5ZM252 197l-1 2c-2.518 0-4.286-2-6-2v-10l4.5 4 5.5-1-3 7ZM257 187l-1 2 1-2Z"/><path fill="#009C75" id="GU1" d="m406 199 4 2c0-3.614 4-6.899 4-11l-3-2h-1c0 4.17-4 7.143-4 11ZM51 199l-4 2-5-10c1.24 0 1.576-2 4-2l5 10Z"/><path fill="#97D6F9" id="STR" d="m256 189-1 1 1-1Z"/><path fill="#019C74" id="GU6b" d="M370 191h1v-2l-1 2Z"/><path fill="#8ADA86" id="CLA" d="m91 207-4 1c-7.018 0-5-11.34-5-15 1.24 0 1.576-2 4-2h1l2 8 1 1 1 7Z"/><path fill="#009B74" id="GU6a" d="m370 191-1 1 1-1Z"/><path fill="#8ADA86" id="CLA" d="m366 207 3 1c6.535 0 6-9.76 6-15l-4-2h-1l-1 1c0 1.424-.362 5-2 5v1c0 1.048.473 3-1 3 0 1.048.473 3-1 3v2l1 1Z"/><path fill="#8599CC" id="PAL" d="M289 221c-2.518 0-4.286 2-6 2l-4-4c0-9.771-2-17.648-2-27 1.056 0 4 19.888 4 9 2.411 0-.148 10 4 10v1l2 1c0 1.602-3.058 2.384-2 4.5l4 3.5Z"/><path fill="#209766" id="AIp6a" d="M82 213h1l4-5c-7.018 0-5-11.34-5-15l-8 2 8 18ZM373 213h2c0-6.497 7-11.474 7-18l-7-2c0 5.24.535 15-6 15 0 1.539 4 2.187 4 5Z"/><path fill="#219864" id="AIp5" d="m79 215-4 1c0-1.823-14-13.749-14-19 3.678 0 8.331-2 13-2l8 18-3 2Z"/><path fill="#8599CC" id="PAL" d="M168 221c2.72 0 3.553 2 6 2l3-4 2-24c-.618 0-4 14.541-4 9-2.496 0 .496 5-2 5l-1 2-1 1-1 1c0 1.423 1.978 3.544 1 5.5l-3 2.5Z"/><path fill="#219864" id="AIp5" d="m377 215 4 1c0-1.403 14-13.578 14-19v-1l-12-1h-1c0 6.526-7 11.503-7 18l2 2Z"/><path fill="#209865" id="AIp2/3" d="m75 216-10 4c-1.827 0-14-17.83-14-21 3.066 0 4.417-2 7-2h3c0 5.251 14 17.177 14 19Z"/><path fill="#CAC7CB" id="fiber tracts" d="m252 197-1 2 1-2Z"/><path fill="#209865" id="AIp2/3" d="M381 216c3.848 0 6.804 4 11 4 0-2.368 13-14.431 13-21l-7-2h-3c0 5.422-14 17.597-14 19Z"/><path fill="#C8CBCC" id="ec" d="M367 198c-1.473 0-1 1.952-1 3 1.473 0 1-1.952 1-3Z"/><path fill="#219765" id="AIp1" d="m65 220-5 3c-1.068 0-13-19.383-13-22l4-2c0 3.17 12.173 21 14 21Z"/><path fill="#209766" id="AIp6a" d="m89 199 1 1-1-1Z"/><path fill="#C9C9C9" id="act" fill-rule="evenodd" d="M223 201c0 2.508-11.938 2.625-11 4.5l5 2v5c2.113 4.227 17.985 3.258 21.5 1.5l.5-5.5c.894-1.788 6.574-2.852 6-4-.616-1.233-18.696-3.5-22-3.5m-2 15h14l12-1c4.834 0 14.615 1.73 11-5.5l-7-5.5-16.5-5c-2.348-1.174-5.339.83-7 0-6.285-3.142-15.818 5-21.5 5-2.126 0-10.194 7.113-9 9.5 1.319 2.638 9.297 1.5 12 1.5l12 1Z"/><path fill="#219765" id="AIp1" d="m392 220 4 3c1.097 0 14-19.821 14-22l-4-2h-1c0 6.569-13 18.632-13 21Z"/><path fill="#CBCBC7" id="aco" d="M223 201c0 2.508-11.938 2.625-11 4.5l5 2v5c2.113 4.227 17.985 3.258 21.5 1.5l.5-5.5c.894-1.788 6.574-2.852 6-4-.616-1.233-18.696-3.5-22-3.5Z"/><path fill="#C8CBCC" id="ec" d="M366 201c-1.473 0-1 1.952-1 3 1.473 0 1-1.952 1-3ZM365 207l-2 2 2-4v2Z"/><path fill="#209766" id="AIp6a" d="M365 207h1l-1-1v1Z"/><path fill="#A0EE9C" id="EPd" d="m102 229-2 2c-6.662 0-11.737-10-15-10v-1c0-2.16-2-4.167-2-7l4-5 4-1 2 2v1l1 1v1l1 1v2l1 1v1l1 1v2l1 1 1 2 1 1 1 2 1 3ZM357 231h3c0-1.577 1.762-2 3-2l2-1 1-1 1-1 1-1 1-1 1-2 1-1 1-1v-1l1-1v-5c0-2.813-4-3.461-4-5l-3-1h-1l-2 2v2l-1 1v1l-1 1v2l-1 1v1l-1 1-2 5-1 1-1 1v2c0 2.003-.293 3 2 3Z"/><path fill="#97D6F9" id="STR" d="m173 209-1 2 1-2Z"/><path fill="#C8CBCC" id="ec" d="m93 210 1 1-1-1Z"/><path fill="#97D6F9" id="STR" d="m172 211-1 1 1-1Z"/><path fill="#C8CBCC" id="ec" d="m363 211-1 1 1-1ZM94 212l1 1-1-1Z"/><path fill="#97D6F9" id="STR" d="M168 213h2l1-1c-1.048 0-3-.473-3 1ZM287 213h2c0-1.579-2.855-1-4-1l2 1Z"/><path fill="#99D2BD" id="OLF" d="m79 215 6 5c0-2.16-2-4.167-2-7h-1l-3 2Z"/><path fill="#97D6F9" id="STR" d="m164 213-1 1 1-1Z"/><path fill="#C9C9C9" id="act" d="M147 233c-1.623 0-6 .005-6 2-1.082 0-7.084.667-6-1.5l4-4.5c1.572 0 7-2.052 7-4 1.238 0 3-.423 3-2 1.238 0 3-.423 3-2 2.124 0 5-2.024 5-4l2-1 1-1h1l1-1h1l1-1h6c0 1.423 1.978 3.544 1 5.5l-3 2.5h-1l-1 1-2 1-1 1c-1.836 0-12 5.366-12 7-1.465 0-4-.109-4 2ZM292 223l1 1 20.5 10c1.193.597 9.509 2.519 7.5-1.5-2.393-4.786-24-11.721-24-17.5h-2l-2-2h-6c0 1.602-3.058 2.384-2 4.5l4 3.5h1l2 2Z"/><path fill="#97D6F9" id="STR" d="m293 213 2 2-2-2Z"/><path fill="#C8CBCC" id="ec" d="m362 213-1 1 1-1Z"/><path fill="#99D2BD" id="OLF" d="m377 215-4 3v-5h2l2 2Z"/><path fill="#97D6F9" id="STR" d="m162 214-1 1 1-1Z"/><path fill="#6ACAB9" id="PIR" d="M123 281c-1.747 0-2 .253-2 2-5.159 0-9.264.118-13.5-2-1.457-.729-4.052-3.974-6-3l.5 2c-3.963 0-8.517-10.017-11-12.5l-24-34c-1.596-3.193-7-6.851-7-10.5l5-3 10-4 4-1 6 5v1c0 1.665 14.707 14 16 14l19 15 5 9.5V270c0 3.186-2 6.865-2 11Z"/><path fill="#C8CBCC" id="ec" d="m95 215 1 1-1-1Z"/><path fill="#97D6F9" id="STR" d="m160 215-1 1 1-1Z"/><path fill="#E64438" id="HY" d="M237 237c-2.25 0-3.376 2-5 2v-16.5c-1.407-2.814-3 2.439-3 3.5h-1l-1.5-3-1-2-.5 7c0 3.806-1 7.751-1 11-1.087 0-2.433-2-5-2 0-13.998-11.875-4-19-4l9-7.5c1.924-3.848 0-6.6 0-10.5l12 1 3 2c4.792 0 1.258 3.621 6.5 1l2.5-2 2-1 12-1c0 5.972-.717 7.065 2 12.5l8 5.5c-7.291 0-20-9.839-20 4Z"/><path fill="#97D6F9" id="STR" d="M340 239h1l1-1 1-1v-1l-1-1c-14.34 0-19.889-4.195-31.5-10L297 215c0 5.779 21.607 12.714 24 17.5 2.009 4.019-6.307 2.097-7.5 1.5L293 224l8 6c6.209 0 11.875 6 19 6 3.344 0 19 .053 19 3h1Z"/><path fill="#6ACAB9" id="PIR" d="m333 280 3 3c4.946 0 9.441.03 13.5-2 .715-.358 5.5-5.048 5.5-2 4.725 0 5.062-8.281 8.5-10 2.938-1.469 21.225-27.951 23.5-32.5 2.333-4.666 9-7.957 9-13.5l-4-3c-4.196 0-7.152-4-11-4l-4-1-4 3-1 1v1l-1 1-1 1-1 2-1 1-1 1-1 1-1 1-2 1c0 1.577-1.762 2-3 2l-5 4-18 15c0 .882-6 9.867-6 18 0 4.11 2 7.296 2 12Z"/><path fill="#97D6F9" id="STR" d="m159 216-2 1 2-1Z"/><path fill="#CAC7CB" id="fiber tracts" d="M233 217c-1.574 0-9-.751-9 1l-3-2h14l-2 1Z"/><path fill="#C8CBCC" id="ec" d="m361 216-1 1 1-1ZM96 217l1 1-1-1Z"/><path fill="#97D6F9" id="STR" d="M157 217c-1.562 0-5 2.189-5 4 2.124 0 5-2.024 5-4Z"/><path fill="#C8CBCC" id="ec" d="m360 218-1 1 1-1Z"/><path fill="#99D2BD" id="OLF" d="m373 218-1 1 1-1Z"/><path fill="#E64438" id="HY" d="M192 236c-1.678 0-11-9.075-11 3-1.845 0-1.441-3.381-2-4.5l-5-11.5 3-4c0 12.009 12.105 14 22 14 0 .733-6.022 3-7 3ZM267 233c5.416 0 8 1.011 8 7 2.488 0 4.032-10.564 5-12.5l3-4.5-4-4c0 4.651-.155 7.828-4.5 10l-7.5 4Z"/><path fill="#C8CBCC" id="ec" d="m97 220 1 1-1-1Z"/><path fill="#99D2BD" id="OLF" d="m372 220-1 1 1-1ZM101 233v2c-1.293 0-16-12.335-16-14 3.263 0 8.338 10 15 10l1 2Z"/><path fill="#97D6F9" id="STR" d="M152 221c-1.238 0-3 .423-3 2 1.238 0 3-.423 3-2Z"/><path fill="#8599CC" id="PAL" d="m167 221-1 1 1-1Z"/><path fill="#A2B1D7" id="SI" d="M167 256h4c0-1.473 1.952-1 3-1 0-2.544 6.009-2.519 7-4.5 2.034-4.068 0-7.398 0-11.5-1.845 0-1.441-3.381-2-4.5l-5-11.5c-2.447 0-3.28-2-6-2h-1l-1 1-2 1-1 1-6 5-1 1-1 1-13 17-1 1v9c2.824 0 8.268 2.616 11.5 1 3.442-1.721 10.617-3 14.5-3Z"/><path fill="#FE5547" id="PVpo" d="M218 274h3l3-2 1-1 3-6.5.5-4.5.5 5.5 2 5.5 1 1 7 3c0-3.238-3-5.3-3-8-4.76 0-4-23.237-4-28v-16.5c-1.407-2.814-3 2.439-3 3.5 0 4.283-1 4.283-1 0l-1.5-3-1-2-.5 7c0 3.806-1 7.751-1 11v21.5l-2 4.5-1 1v1c0 1.014-5.387 7-3 7Z"/><path fill="#A2B1D7" id="SI" d="M289 256c4.019 0 11.915 1.207 15.5 3 2.977 1.489 8.046-1 10.5-1v-9c0-3.678-14-14.201-14-19l-8-6-1-1-2-2h-1c-2.518 0-4.286 2-6 2l-3 4.5c-.968 1.936-2.512 12.5-5 12.5 0 5.074-1.585 14 7 14l3 1 4 1Z"/><path fill="#8599CC" id="PAL" d="m290 221 2 2-2-2Z"/><path fill="#99D2BD" id="OLF" d="m371 221-1 1 1-1Z"/><path fill="#C8CBCC" id="ec" d="m99 223 1 1-1-1Z"/><path fill="#97D6F9" id="STR" d="M149 223c-1.238 0-3 .423-3 2 1.238 0 3-.423 3-2ZM164 223l-1 1 1-1ZM151 231h4l1-1 1-1 6-5c-1.836 0-12 5.366-12 7Z"/><path fill="#C8CBCC" id="ec" d="m357 224-1 1 1-1Z"/><path fill="#99D2BD" id="OLF" d="m369 224-1 1 1-1Z"/><path fill="#97D6F9" id="STR" d="M146 225c-1.572 0-7 2.052-7 4 1.572 0 7-2.052 7-4Z"/><path fill="#C8CBCC" id="ec" d="m356 225-1 1 1-1ZM112 235c.839 0 2 1.93 2 0 0-1.845-3.381-1.441-4.5-2l-8.5-7 1 3c1.238 0 3 .423 3 2 2.46 0 4.17 4 7 4Z"/><path fill="#A8A9AA" id="V3" d="M228 226h1c0 4.283-1 4.283-1 0Z"/><path fill="#C8CBCC" id="ec" d="m355 228-2 1c0-1.238.423-3 2-3v2Z"/><path fill="#99D2BD" id="OLF" d="m367 226-1 1 1-1Z"/><path fill="#8AD987" id="CTXsp" d="m357 231-2 2c0-1.577-1.762-2-3-2l1-2 2-1c0 2.003-.293 3 2 3Z"/><path fill="#99D2BD" id="OLF" d="m365 228-2 1 2-1Z"/><path fill="#8AD987" id="CTXsp" d="M105 231c-2.424 0-2.76 2-4 2l-1-2 2-2c1.238 0 3 .423 3 2Z"/><path fill="#97D6F9" id="STR" d="m141 274-2 1c-3.55 0-5.856-6-9-6l-1-1-1-1c0-3.835-1.586-18-6-18l-2-5-1-1-2-3-1-1-1-1-1-1h-1l-1-2c.839 0 2 1.93 2 0h12.5l12.5-6-4 4.5c-1.084 2.167 4.918 1.5 6 1.5 0 1.579-2.855 1-4 1-4.502 0-9.63 1-13.5 1-1.163 0-5.5-.549-5.5 1.5l4 4c3.558 3.558 9.461 11.52 15.5 8.5l3.5-2v2c-5.116 0-8.25 23 0 23Z"/><path fill="#7ECDF8" id="FS" d="m157 229-1 1 1-1Z"/><path fill="#FF5346" id="MPO" d="m209 270-7 1-3.5-3c-1.956-.978-4.077 1-5.5 1v-2c0-5.764 3.955-18.59 1-24.5l-2-6.5c.978 0 7-2.267 7-3h1c7.125 0 19-9.998 19 4-9.094 0-17.437 9.626-13 18.5 1.613 3.226-1.932 11.5 4 11.5l-1 3ZM263 269l-4.5-1-4.5 3c-2.317 0-8-.709-8-4 5.457 0 5-10.833 5-15 0-9.617-4.153-15-14-15 0-13.839 12.709-4 20-4h1c0 1.267 5.853 3 7 3l-2 2.5V269Z"/><path fill="#C8CBCC" id="ec" d="M350 231h2l1-2c-1.238 0-3 .423-3 2Z"/><path fill="#99D2BD" id="OLF" d="M363 229c-1.238 0-3 .423-3 2 1.238 0 3-.423 3-2Z"/><path fill="#7ECDF8" id="FS" d="m156 230-1 1 1-1ZM339 239c-4.604 0-7.209 8.355-10.5 10-8.186 4.093-7.367 0-13.5 0 0-3.678-14-14.201-14-19 6.209 0 11.875 6 19 6 3.344 0 19 .053 19 3Z"/><path fill="#A0ED9D" id="EPv" d="m122 249-2 1-19-15v-2c1.24 0 1.576-2 4-2 2.46 0 4.17 4 7 4l1 2 1 1h1l1 1 1 1 2 3 1 1 2 5Z"/><path fill="#97D6F9" id="STR" d="M151 231c-1.465 0-4-.109-4 2 1.465 0 4 .109 4-2Z"/><path fill="#7ECDF8" id="FS" d="m142 248-1 1-3.5 2c-6.039 3.02-11.942-4.942-15.5-8.5l-4-4c0-2.049 4.337-1.5 5.5-1.5 3.87 0 8.998-1 13.5-1 1.145 0 4 .579 4-1 1.623 0 6-.005 6-2 1.465 0 4 .109 4-2h4l-13 17Z"/><path fill="#C8CBCC" id="ec" d="M344 235h1c1.247 0 5-2.467 5-4-1.243 0-7 3.006-7 4h1Z"/><path fill="#A0ED9D" id="EPv" d="M335 248c0 1.747.253 2 2 2l18-15v-2c0-1.577-1.762-2-3-2h-2c0 1.533-3.753 4-5 4l-1 1h-1v1l-1 1-1 1h-1l-1 1v1l-1 1-1 1v1l-1 1-1 3Z"/><path fill="#99D2BD" id="OLF" d="M355 233v2l5-4h-3l-2 2Z"/><path fill="#97D6F9" id="STR" d="M147 233c-1.623 0-6 .005-6 2 1.623 0 6-.005 6-2Z"/><path fill="#F2473B" id="LPO" d="M191 267h2c0-5.764 3.955-18.59 1-24.5l-2-6.5c-1.678 0-11-9.075-11 3 0 4.102 2.034 7.432 0 11.5-.991 1.981-7 1.956-7 4.5l2 2c2.496 0 15 6.801 15 10Z"/><path fill="#E64438" id="HY" d="m267 233-2 3c-1.147 0-7-1.733-7-3h9Z"/><path fill="#F2473B" id="LPO" d="M263 267h2c.851 0 11.192-10 15-10l2-3c-8.585 0-7-8.926-7-14 0-5.989-2.584-7-8-7l-2 3-2 2.5V267Z"/><path fill="#C8CBCC" id="ec" d="M343 235v1l-1-1h1Z"/><path fill="#97D6F9" id="STR" d="M343 236h1v-1h-1v1Z"/><path fill="#8AD987" id="CTXsp" d="m345 235-1 1v-1h1Z"/><path fill="#80BEE2" id="IA" d="M114 237v1l-1-1h1Z"/><path fill="#8AD987" id="CTXsp" d="M114 238h1l-1-1v1Z"/><path fill="#FD4C3E" id="MPN" d="M215 267h6v-1l1-1 2-4.5V239c-1.087 0-2.433-2-5-2-9.094 0-17.437 9.626-13 18.5 1.613 3.226-1.932 11.5 4 11.5h5ZM242 267h4c5.457 0 5-10.833 5-15 0-9.617-4.153-15-14-15-2.25 0-3.376 2-5 2 0 4.763-.76 28 4 28h6Z"/><path fill="#80BEE2" id="IA" d="m343 237-1 1 1-1Z"/><path fill="#8AD987" id="CTXsp" d="m342 238-1 1 1-1ZM116 239l1 1-1-1Z"/><path fill="#97D6F9" id="STR" d="m316 274 2 1 6-4 1-1 1-1 1-1 1-1h1c0-3.009.751-19 6-19l1-3 1-1v-1l1-1 1-1v-2c-4.604 0-7.209 8.355-10.5 10-8.186 4.093-7.367 0-13.5 0v1c3.879 0 7.764 14.973 6 18.5l-5 5.5Z"/><path fill="#8AD987" id="CTXsp" d="m340 239-1 1v-1h1ZM339 241l-1 1 1-1ZM338 242l-1 1 1-1ZM119 243l1 1-1-1ZM337 244l-1 1 1-1Z"/><path fill="#97D6F9" id="STR" d="m142 248-1 1 1-1Z"/><path fill="#99D2BD" id="OLF" d="m329 267 2 1c0-8.133 6-17.118 6-18-1.747 0-2-.253-2-2-5.249 0-6 15.991-6 19ZM128 267c-2.93 0-1.084 3-3 3v-10.5l-5-9.5 2-1c4.414 0 6 14.165 6 18Z"/><path fill="#8599CC" id="PAL" d="M313 273c0 1.473 1.952 1 3 1l5-5.5c1.764-3.527-2.121-18.5-6-18.5v8c11.736 0-2 11.658-2 15ZM143 273l-2 1c-8.25 0-5.116-23 0-23v7c-10.603 0 2 12.713 2 15Z"/><path fill="#E64438" id="HY" d="M284 259v1l-4-3 2-3 3 1-1 4ZM172 259l1 1 3-3-2-2c-1.048 0-3-.473-3 1 1.473 0 1 1.952 1 3Z"/><path fill="#8599CC" id="PAL" d="M289 256c0 1.077-3.762 3-5 3l1-4 4 1Z"/><path fill="#A2B1D8" id="MA" d="M161 278h5l7-4v-14l-1-1-5-3c-3.883 0-11.058 1.279-14.5 3-3.232 1.616-8.676-1-11.5-1-10.603 0 2 12.713 2 15l10.5 4c1.238.619 5.5-1.144 5.5 1h2Z"/><path fill="#8599CC" id="PAL" d="M171 256c1.473 0 1 1.952 1 3l-5-3h4Z"/><path fill="#A2B1D8" id="MA" d="M295 278h2c0-2.144 4.262-.381 5.5-1l10.5-4c0-3.342 13.736-15 2-15-2.454 0-7.523 2.489-10.5 1-3.585-1.793-11.481-3-15.5-3 0 1.077-3.762 3-5 3v16c1.176 0 7 2.114 7 3h4Z"/><path fill="#96A6D3" id="NDB" d="m190 278-1 1c-4.286 0-16 .245-16-5v-14l3-3c2.496 0 15 6.801 15 10l1 4-2 7ZM284 275l-7.5 4H267c0-3.171-3-5.383-3-9l1-3c.851 0 11.192-10 15-10l4 3v15Z"/><path fill="#A8A9AA" id="V3" d="M225 271h6l-2-5.5-.5-5.5-.5 4.5-3 6.5Z"/><path fill="#E64438" id="HY" d="m222 265-1 1 1-1Z"/><path fill="#7FCCF7" id="OT" d="M175 288c0 2.741-6.276 4.888-8.5 6-5.825 2.912-17.165 6.418-24 3l-8.5-4-11-12c0-4.135 2-7.814 2-11 1.916 0 .07-3 3-3l1 1 1 1c3.144 0 5.45 6 9 6 0 4.017 10.063 4 13 4 1.574 0 9 .751 9-1h5c6.05 0 10 2.627 10 9l-1 1Z"/><path fill="#E64438" id="HY" d="m193 269-1 2-1-4h2v2ZM215 267l-6 3 1-3h5Z"/><path fill="#FD5545" id="VMPO" d="M204 279h6c0-1.638 3.576-2 5-2l3-3c-2.387 0 3-5.986 3-7h-6l-6 3-6 6v2l1 1ZM253 275v4c-5.618 0-9.392-4-14-4 0-3.238-3-5.3-3-8h6c0 .61 10.056 8 11 8Z"/><path fill="#E64438" id="HY" d="m254 271-1 4c-.944 0-11-7.39-11-8h4c0 3.291 5.683 4 8 4ZM263 269l1 1 1-3h-2v2Z"/><path fill="#A2B1D7" id="SI" d="m328 267-1 1 1-1Z"/><path fill="#7FCCF7" id="OT" d="M324 291h1l1-1 1-1c0-1.763 4.012-7 6-7v-2c0-4.704-2-7.89-2-12l-2-1h-1l-1 1-1 1-1 1-1 1-6 4c0 3.438-10.113 4-13 4-1.657 0-10 .763-10-1h-4c-9.797 0-9 3.571-9 11 1.095 0 6.563 5.031 8.5 6 6.556 3.278 18.199 4.401 25 1l7.5-4 1-1Z"/><path fill="#A2B1D7" id="SI" d="m129 268 1 1-1-1Z"/><path fill="#FE5546" id="VLPO" d="m202 280-4 1-8-2v-1l2-7 1-2c1.423 0 3.544-1.978 5.5-1l3.5 3 1 5v3l-1 1ZM267 279l-9 2-5-2v-4l1-4 4.5-3 4.5 1 1 1c0 3.617 3 5.829 3 9Z"/><path fill="#A2B1D7" id="SI" d="m327 268-1 1 1-1ZM326 269l-1 1 1-1Z"/><path fill="#E64438" id="HY" d="m202 271 1 5 6-6-7 1Z"/><path fill="#A2B1D7" id="SI" d="m325 270-1 1 1-1Z"/><path fill="#CAC7CB" id="fiber tracts" d="m227 273-6 1 3-2c1.048 0 3-.473 3 1Z"/><path fill="#CAC7CB" id="fiber tracts" d="M198 281c0 1.19-2.503 5.998-.5 7 2.917 1.458 26.294 2.853 30 1l1-2 1 2c3.708 1.854 26.042.479 29-1 2.111-1.055-.5-6.006-.5-7l-5-2c-5.618 0-9.392-4-14-4l-7-3c-1.048 0-3-.473-3 1 4.813 0 8.498 2.999 12.5 5 2.689 1.345 18.114 2.272 15.5 7.5-1.085 2.17-7.114 3.693-9.5 2.5-9.251-4.626-24.793-1-35-1-3.644 0-11.089 3.323-13.5-1.5-2.961-5.922 11-3.654 11-6.5h-7l-1 1-4 1Z"/><path fill="#A2B1D7" id="SI" d="M159 278c-1.406 0-7-.714-7 1-2.937 0-13 .017-13-4l2-1 2-1 10.5 4c1.238.619 5.5-1.144 5.5 1Z"/><path fill="#CBCACC" id="och" d="M215 277c0 1.638-3.576 2-5 2 0 2.846-13.961.578-11 6.5 2.411 4.823 9.856 1.5 13.5 1.5 10.207 0 25.749-3.626 35 1 2.386 1.193 8.415-.33 9.5-2.5 2.614-5.228-12.811-6.155-15.5-7.5-4.002-2.001-7.687-5-12.5-5 0 1.186-1 1.186-1 0h-1l-6 1c0 1.662-4.357 3-6 3Z"/><path fill="#CAC7CB" id="fiber tracts" d="M228 273h1c0 1.186-1 1.186-1 0Z"/><path fill="#A2B1D7" id="SI" d="M297 278c1.49 0 8-.735 8 1 2.887 0 13-.562 13-4l-2-1c-1.048 0-3 .473-3-1l-10.5 4c-1.238.619-5.5-1.144-5.5 1Z"/><path fill="#8599CC" id="PAL" d="M189 279c0 2.921-10.108 8-13 8 0-6.373-3.95-9-10-9l7-4c0 5.245 11.714 5 16 5Z"/><path fill="#CAC7CB" id="fiber tracts" d="M221 274c0 1.662-4.357 3-6 3l3-3h3Z"/><path fill="#8599CC" id="PAL" d="M267 279c0 1.197 14.408 10 15 10 0-7.429-.797-11 9-11 0-.886-5.824-3-7-3l-7.5 4H267Z"/><path fill="#CAC7CB" id="fiber tracts" d="M215 277c-1.424 0-5 .362-5 2 1.424 0 5-.362 5-2Z"/><path fill="#CAC8C7" id="lot" d="M122 284v3c0 6.196-20-1.557-20-7l-.5-2c1.948-.974 4.543 2.271 6 3 4.236 2.118 8.341 2 13.5 2l1 1Z"/><path fill="#97D6F9" id="STR" d="M161 278c0 1.751-7.426 1-9 1 0-1.714 5.594-1 7-1h2Z"/><path fill="#E64438" id="HY" d="M189 279h1v-1l-1 1ZM203 279h1l-1-1v1Z"/><path fill="#97D6F9" id="STR" d="M297 278c1.49 0 8-.735 8 1-1.657 0-10 .763-10-1h2Z"/><path fill="#CAC8C7" id="lot" d="M335 283h1c4.946 0 9.441.03 13.5-2 .715-.358 5.5-5.048 5.5-2v1l-1 1c0 3.316-10.536 8-13 8-1.321 0-6 .684-6-1v-5Z"/><path fill="#E64438" id="HY" d="m203 279-1 1 1-1Z"/><path fill="#99D2BD" id="OLF" d="M335 283h1l-3-3v2l2 1Z"/><path fill="#6ACAB9" id="PIR" d="m355 280-1 1 1-1Z"/><path fill="#99D2BD" id="OLF" d="m121 283 1 1 1-3c-1.747 0-2 .253-2 2Z"/><path fill="#97D6F9" id="STR" d="M122 287c6.077 0 9.563 6 12 6l-11-12-1 3v3ZM335 288c-1.423 0-3.544-1.978-5.5-1l-2.5 2c0-1.763 4.012-7 6-7l2 1v5Z"/><path fill="#8599CC" id="PAL" d="m176 287-1 1 1-1Z"/><path fill="#97D6F9" id="STR" d="m327 289-1 1 1-1ZM326 290l-1 1 1-1ZM324 291l-1 1 1-1Z"/></svg>