<svg xmlns="http://www.w3.org/2000/svg" viewBox="0 0 456 320"><path fill="#187F60" id="SSp-ll1" d="M132 38h1c3.173 0 14.253-5.377 17.5-7 7.876-3.938 20.091-4 29.5-4l1-6c-10.405 0-27.958 1.729-36.5 6L131 33l1 5Z"/><path fill="#1E9D5A" id="MOp1" d="m199 26-19 1 1-6h18v5Z"/><path fill="#1E9C59" id="MOs1" d="M222 39h1c0-1.748 2.283-3 4-3l-4-3.5c-4.74-9.48-13.37-11.5-24-11.5v5c7.706 0 23 2.562 23 13ZM230 36l4 3c0-9.009 15.333-13 23-13v-5c-6.781 0-13.774.274-18.5 5l-4 5c-1.319.66-4.5 2.871-4.5 5Z"/><path fill="#1E9D5A" id="MOp1" d="m257 26 19 1v-6h-19v5Z"/><path fill="#187F60" id="SSp-ll1" d="m325 33-1 5-15.5-6c-8.673-4.337-21.112-5-31.5-5h-1v-6c13.505 0 27.243 2.372 38.5 8 1.64.82 10.5 1.822 10.5 4Z"/><path fill="#1F9C58" id="MOp2/3" d="M177 39v3c6.571 0 12.777-7 20-7l2-9-19 1c0 1.657-1.057 12-3 12Z"/><path fill="#1E9D58" id="MOs2/3" d="M216 43h1l5-4c0-10.438-15.294-13-23-13l-2 9c5.564 0 19-.096 19 8ZM234 39c2.363 0 4.713 4 6 4 0-7.899 13.553-8 19-8 0-3.638-2-5.929-2-9-7.667 0-23 3.991-23 13Z"/><path fill="#1F9C58" id="MOp2/3" d="M279 39v3c-5.279 0-13.238-7-20-7 0-3.638-2-5.929-2-9l19 1h1c0 4.412 2 8.37 2 12Z"/><path fill="#187F64" id="SSp-ll2/3" d="M177 39c-6.434 0-25.815 5.158-31.5 8-2.139 1.07-5.078 4-7.5 4 0-4.332-5-8.157-5-13 3.173 0 14.253-5.377 17.5-7 7.876-3.938 20.091-4 29.5-4 0 1.657-1.057 12-3 12ZM318 51h1c0-1.626 4.059-12 5-12v-1l-15.5-6c-8.673-4.337-21.112-5-31.5-5 0 4.412 2 8.37 2 12 6.689 0 25.593 5.047 31.5 8l7.5 4Z"/><path fill="#197E64" id="SSp-ul1" d="M114 41c1.351 0-.171 5 2 5l16-8-1-5c-4.286 0-9.771 4.135-13.5 6l-3.5 2ZM342 41c-.676 0-1 3.234-1 5-6.109 0-10.612-7-17-7v-1l1-5c2.112 0 17 6.815 17 8Z"/><path fill="#1E9C5A" id="MOp5" d="M192 51h1c0-5.965 4-10.226 4-16-7.223 0-13.429 7-20 7l-1 1c0 5.974-2 12.028-2 17l18-9Z"/><path fill="#1F9D58" id="MOs5" d="M205 53h1l10-10c0-8.096-13.436-8-19-8 0 5.774-4 10.035-4 16 2.78 0 12-3.507 12 2ZM250 53h1c0-5.614 10.138-2 13-2l-5-16c-5.447 0-19 .101-19 8 2.607 0 10 7.366 10 10Z"/><path fill="#1E9C5A" id="MOp5" d="M264 51c6.202 0 12.454 9 19 9 0-6.312-3-11.005-3-17l-1-1c-5.279 0-13.238-7-20-7l5 16Z"/><path fill="#3EA665" id="ACAd1" d="M223 61h10c0-7.373 1-15.242 1-22l-4-3c-.476 0-3 3.803-3 0-1.717 0-4 1.252-4 3v22Z"/><path fill="#197F61" id="SSp-ul2/3" d="M138 51c-6.533 0-12.197 8-19 8 0-4.536-3-7.696-3-12v-1l16-8h1c0 4.843 5 8.668 5 13Z"/><path fill="#1C7F64" id="SSp-ll4" d="M141 57h1c7.407 0 31.199-14 34-14l1-1v-3c-6.434 0-25.815 5.158-31.5 8-2.139 1.07-5.078 4-7.5 4l3 6Z"/><path fill="#40A565" id="ACAd2/3" d="M218 61h5V39h-1l-5 4 1 18ZM233 61h6c0-5.915 1-12.755 1-18-1.287 0-3.637-4-6-4 0 6.758-1 14.627-1 22Z"/><path fill="#1C7F64" id="SSp-ll4" d="m318 51-3 6c-4.568 0-20.159-5.83-24.5-8-2.905-1.453-7.248-6-10.5-6l-1-1v-3c6.689 0 25.593 5.047 31.5 8l7.5 4Z"/><path fill="#197F61" id="SSp-ul2/3" d="M319 51c6.093 0 11.634 8 18 8 0-1.3 2.804-12 4-12v-1c-6.109 0-10.612-7-17-7-.941 0-5 10.374-5 12Z"/><path fill="#1B8062" id="SSp-un1" d="M106 51h1c2.864 0 5.35-4 9-4v-1c-2.171 0-.649-5-2-5l-9 4 1 6ZM349 51h1l1-6c-2.952 0-5.452-4-9-4-.676 0-1 3.234-1 5v1l8 4Z"/><path fill="#197C63" id="SSp-ll5" d="m173 61-24 8c0-3.659-7-7.593-7-12 7.407 0 31.199-14 34-14 0 5.974-2 12.028-2 17l-1 1Z"/><path fill="#3EA566" id="ACAd5" d="M218 62c-4.547 0-6.847 6-11 6 0-5.039-1-10.575-1-15l10-10h1l1 18v1ZM239 62c3.722 0 6.862 6 10 6l1-15c0-2.634-7.393-10-10-10 0 5.245-1 12.085-1 18v1Z"/><path fill="#197C63" id="SSp-ll5" d="M307 69h1c0-4.69 7-8.357 7-12-4.568 0-20.159-5.83-24.5-8-2.905-1.453-7.248-6-10.5-6 0 5.995 3 10.688 3 17v1c8.289 0 15.859 8 24 8Z"/><path fill="#188060" id="SSp-bfd1" d="M76 72h1l6.5-6c4.566-2.283 17.858-15 22.5-15l-1-6c-4.734 0-24.244 15.744-28.5 20L69 72l6 1 1-1ZM380 73h1c2.124 0 4.436-1 6-1l-8-7.5c-1.619-3.239-24.181-19.5-28-19.5l-1 6c2.928 0 23.799 15.098 25 17.5l5 4.5Z"/><path fill="#1C7F63" id="SSp-un2/3" d="M119 60c-3.729 0-6.102 4-10 4 0-4.283-2-9.53-2-13 2.864 0 5.35-4 9-4 0 4.304 3 7.464 3 12v1ZM337 60l11 5c0-5.562 1-9.099 1-14l-8-4c-1.196 0-4 10.7-4 12v1Z"/><path fill="#1D9C5A" id="MOs6a" d="M189 73h1c0-1.638 3.576-2 5-2 0-6.72 10-12.774 10-18 0-5.507-9.22-2-12-2h-1c0 8.314-3 13.424-3 22ZM261 71l6 1c0-7.788-3-14.186-3-21-2.862 0-13-3.614-13 2 0 3.335 10 11.854 10 18Z"/><path fill="#187F63" id="SSp-bfd2/3" d="M88 75h1l20-10v-1c0-4.283-2-9.53-2-13h-1c-4.642 0-17.934 12.717-22.5 15L77 72c4.427 0 5.298 3 10 3 0-1.186 1-1.186 1 0Z"/><path fill="#1A7F63" id="SSp-ul4" d="M119 60c0 1.812 3 4.82 3 7l19-10-3-6c-6.533 0-12.197 8-19 8v1Z"/><path fill="#1F9B5A" id="MOp6a" d="M172 79h1c0-1.995 4.377-2 6-2 0-1.995 4.377-2 6-2l4-2c0-8.576 3-13.686 3-22l-18 9-1 1c0 5.521-1 11.898-1 18ZM267 73l18 6c0-6.604-2-11.27-2-18v-1c-6.546 0-12.798-9-19-9 0 6.814 3 13.212 3 21v1Z"/><path fill="#1A7F63" id="SSp-ul4" d="m337 60-2 7-20-10 3-6h1c6.093 0 11.634 8 18 8v1Z"/><path fill="#187F63" id="SSp-bfd2/3" d="M368 75h1c3.593 0 6.15-2 11-2l-5-4.5c-1.201-2.402-22.072-17.5-25-17.5h-1c0 4.901-1 8.438-1 14l20 10Z"/><path fill="#3FA664" id="ACAd6a" d="M199 75h1c2.162 0 3.798-6 7-6v-1c0-5.039-1-10.575-1-15h-1c0 5.226-10 11.28-10 18v1c1.429 0 4 1.288 4 3ZM257 75h1c0-1.747.253-2 2-2l1-1v-1c0-6.146-10-14.665-10-18h-1l-1 15v1c4.012 0 4.8 6 8 6Z"/><path fill="#187E62" id="SSp-ul5" d="M125 79h1c5.788 0 16.211-10 23-10 0-3.659-7-7.593-7-12h-1l-19 10 3 12ZM308 69l23 10c0-1.109 3.315-11 4-11v-1l-20-10c0 3.643-7 7.31-7 12Z"/><path fill="#197E61" id="SSp-un4" d="m122 67-12 7-1-9v-1c3.898 0 6.271-4 10-4 0 1.812 3 4.82 3 7Z"/><path fill="#40A664" id="ACAv1" d="M233 91h1c0-9.513-1-19.903-1-30h-10v28l4-4c0-3.15 2-3.446 2 0 2.177 0 4 4.336 4 6Z"/><path fill="#197E61" id="SSp-un4" d="M346 74h1c0-3.013 1-6.612 1-9l-11-5-2 7v1c4.283 0 7.064 6 11 6Z"/><path fill="#1A7F64" id="SSp-ll6a" d="M156 83h1l14-4h1c0-6.102 1-12.479 1-18l-24 8c0 4.586 7 8.595 7 14Z"/><path fill="#3FA566" id="ACAv2/3" d="M222 91c0 1.577-1.762 2-3 2 0-9.732-1-20.645-1-31v-1h5v28l-1 2ZM234 91l3 2c0-10.038 2-20.4 2-31v-1h-6c0 10.097 1 20.487 1 30Z"/><path fill="#1A7F64" id="SSp-ll6a" d="M299 83h1l7-14c-8.141 0-15.711-8-24-8 0 6.73 2 11.396 2 18l14 4Z"/><path fill="#3EA666" id="ACAv5" d="M211 91c1.996 0 4.985 2 8 2 0-9.732-1-20.645-1-31-4.547 0-6.847 6-11 6v1c0 7.24 4 14.914 4 22ZM245 91c0 2.488-6.101 2-8 2 0-10.038 2-20.4 2-31 3.722 0 6.862 6 10 6v1c0 7.396-3 13.928-3 21l-1 1Z"/><path fill="#197C64" id="SSp-bfd4" d="m110 75-8 4c-5.378 0-8.802-4-13-4l20-10 1 9v1ZM354 80h1c0-2.656 3.798-1 4.5-1l4-4c.551 0 4.5 2.709 4.5 0l-20-10c0 2.388-1 5.987-1 9l7 6Z"/><path fill="#197D62" id="SSp-un5" d="M110 88h1l14-9-3-12-12 7v1l1 3.5c0 .626-4 4.495-4 4.5 0 2.735 3 1.913 3 5ZM345 88h1c0-1.947 3-2.636 3-5 0-.883-3-5.25-3-9-3.936 0-6.717-6-11-6-.685 0-4 9.891-4 11v1c2.287 0 14 5.808 14 8Z"/><path fill="#197D61" id="SSp-ul6a" d="m156 83-5 2.5c-3.183 3.183-15.515 9.5-20 9.5-1.397 0-5-13.47-5-16 5.788 0 16.211-10 23-10 0 4.586 7 8.595 7 14Z"/><path fill="#40A564" id="ACAv6a" d="M210 91h1c0-7.086-4-14.76-4-22-3.202 0-4.838 6-7 6 0 5.237 8 8.095 8 13l2 3ZM248 89l-2 1c0-7.072 3-13.604 3-21 4.012 0 4.8 6 8 6v1c-1.442 0-6 7.56-6 9-1.747 0-2 .253-2 2l-1 2Z"/><path fill="#197D61" id="SSp-ul6a" d="M300 83c6.974 0 17.773 12 26 12l5-15v-1l-23-10h-1l-7 14Z"/><path fill="#1E9C58" id="MOs6b" d="M190 73h5v-2c-1.424 0-5 .362-5 2ZM267 73v1l-5-1-1-1v-1l6 1v1Z"/><path fill="#197E63" id="SSp-n1" d="M53 105h1c0-9.031 21-29.088 21-32l-6-1-6 6.5c-3.098 6.197-14 16.811-14 23.5l4 3ZM75 73h1v-1l-1 1Z"/><path fill="#187F63" id="SSp-bfd2/3" d="m77 72-1 1v-1h1Z"/><path fill="#1B7F64" id="SSp-n2/3" d="m54 105 8 6c0-7.627 13.93-21.36 17-27.5 1.205-2.41 8-5.518 8-8.5-4.702 0-5.573-3-10-3l-1 1h-1c0 2.912-21 22.969-21 32Z"/><path fill="#3FA466" id="ACAd6b" d="M199 75v1c-2.349 0-1.382-3-4-3v-1c1.429 0 4 1.288 4 3ZM260 73h2l-1-1-1 1Z"/><path fill="#197E63" id="SSp-n1" d="M402 105h1l4-3c0-4.179-17.425-30-20-30-1.564 0-3.876 1-6 1 0 2.867 7.077 6.655 8 8.5 3.567 7.134 13 15.143 13 23.5Z"/><path fill="#1D9D5A" id="MOp6b" d="M190 73c0 2.46-3.378 2-5 2l4-2h1Z"/><path fill="#CACCC7" id="cing" d="m208 88 2 3c-7.963 0-11.905-8.703-18.5-12-6.31-3.155-15.389 4-21.5 4h-6c0-2.942 7-.898 7-3l2-1c1.623 0 6-.005 6-2 1.623 0 6-.005 6-2 1.622 0 5 .46 5-2h5c2.618 0 1.651 3 4 3 0 2.275 6.105 12 9 12Z"/><path fill="#3FA466" id="ACAd6b" d="M260 73c-1.747 0-2 .253-2 2l2-2Z"/><path fill="#CACCC7" id="cing" d="M246 90v1c8.146 0 11.773-8.637 18.5-12 6.482-3.24 15.443 4 21.5 4h7c0-1.446-6.754-3-8-3-6.227 0-12.156-6-18-6l-5-1h-2l-2 2v1c0 2.079-5.206 9-7 9 0 1.747-.253 2-2 2l-1 2-2 1Z"/><path fill="#1D9D5A" id="MOp6b" d="M285 79v1c-6.227 0-12.156-6-18-6v-1l18 6Z"/><path fill="#1B7F64" id="SSp-n2/3" d="M394 111h1l7-6c0-8.357-9.433-16.366-13-23.5-.923-1.845-8-5.633-8-8.5h-1c-4.85 0-7.407 2-11 2l10 10.5c3.558 7.115 15 16.244 15 25.5ZM87 75h1c0-1.186-1-1.186-1 0Z"/><path fill="#1A7D62" id="SSp-bfd5" d="m354 80-5 3c0-.883-3-5.25-3-9h1l7 6Z"/><path fill="#1A8062" id="SSp-n4" d="M68 116h1c0-7.011 25.702-36 33-36v-1c-5.378 0-8.802-4-13-4 0 1.186-1 1.186-1 0h-1c0 2.982-6.795 6.09-8 8.5-3.07 6.14-17 19.873-17 27.5l6 5Z"/><path fill="#197C64" id="SSp-bfd4" d="M88 75h1c0 1.186-1 1.186-1 0Z"/><path fill="#1A7D62" id="SSp-bfd5" d="m102 80 5 3c0-.005 4-3.874 4-4.5l-1-3.5-8 4v1Z"/><path fill="#1D9D5A" id="MOp6b" d="M185 75c-1.623 0-6 .005-6 2 1.623 0 6-.005 6-2Z"/><path fill="#40A465" id="ACAv6b" d="M199 76c0 2.275 6.105 12 9 12 0-4.905-8-7.763-8-13h-1v1Z"/><path fill="#3FA466" id="ACAd6b" d="M257 76h1v-1h-1v1Z"/><path fill="#1A8062" id="SSp-n4" d="M394 111c-2.33 0-3.227 4-6 4l-6-9.5c-2.484-4.967-21.997-25.5-27-25.5 0-2.656 3.798-1 4.5-1l4-4c.551 0 4.5 2.709 4.5 0h1l10 10.5c3.558 7.115 15 16.244 15 25.5Z"/><path fill="#40A465" id="ACAv6b" d="M258 76c0 2.079-5.206 9-7 9 0-1.44 4.558-9 6-9h1Z"/><path fill="#1D9D5A" id="MOp6b" d="M179 77c-1.623 0-6 .005-6 2 1.623 0 6-.005 6-2Z"/><path fill="#1A7F61" id="SSp-un6a" d="M120 101h1l8-4 2-1v-1c-1.397 0-5-13.47-5-16h-1l-14 9c0 4.91 9 7.755 9 13Z"/><path fill="#197F62" id="SSp-ll6b" d="M164 83c-2.833 0-4.84 2-7 2v-2l14-4v1c0 2.102-7 .058-7 3Z"/><path fill="#1D9D5A" id="MOp6b" d="m173 79-2 1v-1h2Z"/><path fill="#C9C7C9" id="ccb" d="m375 158 2 11c-2.334 0-1.341-4.181-2-5.5l-11-22c-7.922-15.845-26.459-30.98-41.5-38.5-4.62-2.31-13.033-1-18.5-1 0-4.382-8.445-9-12-9h-1l-2-1-6.5-2c-6.438-3.219-16.274 2.637-21 5-1.324.662-6.5 2.159-6.5 4-3.078 0-6.325 1-9 1 0-1.175-5.704-2-7-2-6.807 0-13.831 3.334-20.5 0-1.18-.59-8.5 1.262-8.5 2-2.301 0-5.476-1-8-1l-12.5-8c-6.966-3.483-16.027 1-22.5 1l-1 1h-1c-3.038 0-7.408 1.909-9.5 4l-3.5 5c-5.467 0-13.88-1.31-18.5 1-14.045 7.023-33.073 22.646-40.5 37.5-3.823 7.646-7.212 15.424-11 23-.632 1.265-1.278 6.5-3 6.5l3-13 1-2v-1l1-2c1.473 0 1-1.952 1-3l1-2 1-2c2.109 0 2-2.535 2-4 2.109 0 2-2.535 2-4 1.577 0 2-1.762 2-3 1.577 0 2-1.762 2-3l1-2 10-10.5c8.623-8.623 16.576-14.538 26.5-19.5 9.122-4.561 19.488-7.244 29-12 1.642-.821 8.5-1.379 8.5-4 6.111 0 15.19-7.155 21.5-4 6.595 3.297 10.537 12 18.5 12h1c1.996 0 4.985 2 8 2 1.238 0 3-.423 3-2h1c0 1.206 10 1.206 10 0h1l3 2c1.899 0 8 .488 8-2h1c8.146 0 11.773-8.637 18.5-12 6.482-3.24 15.443 4 21.5 4 0 2.253 8.73 4.115 10.5 5 11.69 5.845 24.383 9.192 36 15 7.914 3.957 24.461 19.422 28.5 27.5 1.049 2.097 5.575 13.5 8 13.5v1c0 1.238.423 3 2 3v1l2 4v1l1 1v2l1 1Z"/><path fill="#197F62" id="SSp-ll6b" d="M299 83v1l-6-1c0-1.446-6.754-3-8-3v-1l14 4Z"/><path fill="#197E62" id="SSp-n5" d="M77 123h1c0-5.432 13.362-23.93 17.5-26 2.29-1.145 14.5-6.314 14.5-9 0-3.087-3-2.265-3-5l-5-3c-7.298 0-33 28.989-33 36l8 7Z"/><path fill="#1A7F61" id="SSp-un6a" d="M335 101h1c0-5.373 9-7.547 9-13 0-2.192-11.713-8-14-8l-5 15v1c3.571 0 5.945 5 9 5Z"/><path fill="#197E62" id="SSp-n5" d="M388 116c-3.144 0-5.45 6-9 6l-7-12.5c-2.214-4.429-22.295-21.5-26-21.5 0-1.947 3-2.636 3-5l5-3h1c5.003 0 24.516 20.533 27 25.5l6 9.5v1Z"/><path fill="#1C8064" id="SSp-ul6b" d="M131 96v1l26-12v-2h-1l-5 2.5c-3.183 3.183-15.515 9.5-20 9.5v1Z"/><path fill="#C9C9CA" id="scwm" d="m97 125-1 4 10-10.5c8.623-8.623 16.576-14.538 26.5-19.5 9.122-4.561 19.488-7.244 29-12 1.642-.821 8.5-1.379 8.5-4h-6c-2.833 0-4.84 2-7 2l-26 12h-2c0 1.985-6.262 5-8 5l-2 1c0 1.988-5.237 6-7 6l-1 1-1 1-3 3c0 1.758-8.133 11-10 11ZM364 134l5 10c-2.425 0-6.951-11.403-8-13.5-4.039-8.078-20.586-23.543-28.5-27.5-11.617-5.808-24.31-9.155-36-15-1.77-.885-10.5-2.747-10.5-5h7l6 1 5.5 3c1.975 1.975 18.925 10 21.5 10l9 5 8 6.5c4.87 4.87 21 19.705 21 25.5Z"/><path fill="#1C8064" id="SSp-ul6b" d="M326 96v1c-2.575 0-19.525-8.025-21.5-10l-5.5-3v-1h1c6.974 0 17.773 12 26 12v1Z"/><path fill="#7ED04B" id="IG" d="M223 91c0 1.206 10 1.206 10 0 0-1.664-1.823-6-4-6 0 1.93-1.161 0-2 0l-4 4v2Z"/><path fill="#40A465" id="ACAv6b" d="M251 85c-1.747 0-2 .253-2 2 1.747 0 2-.253 2-2ZM249 87l-1 2 1-2Z"/><path fill="#187D62" id="SSp-n6a" d="m97 125-6 7c-4.145 0-6.213-5.357-9.5-7l-3.5-2c0-5.432 13.362-23.93 17.5-26 2.29-1.145 14.5-6.314 14.5-9h1c0 4.91 9 7.755 9 13l-1 2c-1.763 0-7 4.012-7 6l-1 1-1 1c-2.041 0-3 .959-3 3-2.82 0-10 8.437-10 11ZM365 133h1c0-1.952 10.915-10 13-10v-1l-7-12.5c-2.214-4.429-22.295-21.5-26-21.5h-1c0 5.453-9 7.627-9 13l8 6.5c4.934 4.934 21 19.582 21 25.5Z"/><path fill="#40A664" id="ACAv1" d="M222 91h1v-2l-1 2Z"/><path fill="#A8AAAA" id="VL" fill-rule="evenodd" d="m187 94-3 2.5c-2.435 4.869-4.525 10.049-7 15l-8 7c-1.052 2.105.599 5.549 2.5 6.5 3.627 1.814 7.358-4.679 10-6 6.389-3.195 21.94-12.06 13-21-2.183-2.183-4.475-4-7.5-4m15 13c-.73 0-3.551 6.026-5.5 7-5.533 2.766-18.38 7.26-21.5 13.5-.766 1.532-7.216 9.5-8 9.5 0-4.957 2.437-11.627 0-16.5L156 104l-1-4.5c1.408-2.816 10-4.276 10-6.5h1l1-1c6.473 0 15.534-4.483 22.5-1l12.5 8v8Z"/><path fill="#40A564" id="ACAv6a" d="M245 91h1v-1l-1 1Z"/><path fill="#A8AAAA" id="VL" fill-rule="evenodd" d="M267 94c0 2.456-10.936 5.627-8 11.5 2.165 4.331 5.308 7.404 9.5 9.5l14 10c3.036 1.518 5.675-4.151 4.5-6.5l-7-6c-2.388-4.776-6.52-18.5-13-18.5m-13 13c1.436 0 5.18 6.84 7.5 8 6.154 3.077 12.835 5.835 18 11 2.002 2.002 6.541 9 9.5 9 0-6.251-.587-12.326 2-17.5l10-14.5c0-7.23-9-7.64-9-10h-1l-2-1-6.5-2c-6.438-3.219-16.274 2.637-21 5-1.324.662-6.5 2.159-6.5 4l-1 8Z"/><path fill="#AAA8A9" id="SEZ" d="m167 92-1 1 1-1ZM289 92l2 1-2-1ZM152 102l4 2-1-4.5c1.408-2.816 10-4.276 10-6.5-3.038 0-7.408 1.909-9.5 4l-3.5 5ZM304 102c0 1.473-1.952 1-3 1 0-7.23-9-7.64-9-10 3.555 0 12 4.618 12 9Z"/><path fill="#A9AAA8" id="chpl" d="m187 94-3 2.5c-2.435 4.869-4.525 10.049-7 15l-8 7c-1.052 2.105.599 5.549 2.5 6.5 3.627 1.814 7.358-4.679 10-6 6.389-3.195 21.94-12.06 13-21-2.183-2.183-4.475-4-7.5-4ZM267 94c0 2.456-10.936 5.627-8 11.5 2.165 4.331 5.308 7.404 9.5 9.5l14 10c3.036 1.518 5.675-4.151 4.5-6.5l-7-6c-2.388-4.776-6.52-18.5-13-18.5Z"/><path fill="#1A7D63" id="SSp-un6b" d="M129 97h2v-1l-2 1ZM335 101v1l-9-5v-1c3.571 0 5.945 5 9 5ZM121 101v1c1.738 0 8-3.015 8-5l-8 4Z"/><path fill="#CBC8CC" id="df" d="M210 100c4.729 0 12.395.947 16.5 3l19.5-3c0-1.175-5.704-2-7-2-6.807 0-13.831 3.334-20.5 0-1.18-.59-8.5 1.262-8.5 2Z"/><path fill="#1B7E64" id="SSp-n6b" d="m121 102-2 1 1-2h1v1ZM365 133l-1 1c0-5.795-16.13-20.63-21-25.5l-8-6.5v-1h1l8 6.5c4.934 4.934 21 19.582 21 25.5Z"/><path fill="#1A7E62" id="SSs1" d="M33 173h4c0-11.16 3.492-36.485 8-45.5 2.811-5.623 8-16.15 8-22.5l-4-3c0 .675-8.964 23.428-10 25.5-4.492 8.983-6 34.035-6 45.5Z"/><path fill="#98D5F9" id="CP" d="m107 233 10 1c7.238 0 15.221-9 17-9 0-2.389 1-5.987 1-9v-1c0-14.498-5.17-27.16 2-41.5 1.056-2.112 5.203-12.5 8-12.5 0-1.048-.473-3 1-3 0-3.867-1.187-18.843 6.5-15 2.322 1.161 5.836 3 8.5 3l1-1h3l2-4v-4c0-4.957 2.437-11.627 0-16.5L156 104l-4-2c-5.467 0-13.88-1.31-18.5 1-14.045 7.023-33.073 22.646-40.5 37.5-3.823 7.646-7.212 15.424-11 23-.632 1.265-1.278 6.5-3 6.5v3c0 20.109 7.831 30.162 16 46.5 1.238 2.475 6.152 12.5 10 12.5l1 1h1Z"/><path fill="#96A7D2" id="TRS" d="M241 112h1c0-1.118 7.168-7.666 2.5-10-5.096-2.548-17.309 4.345-26 0-1.687-.844-6.663-.174-7.5 1.5-2.289 4.578 4 6.441 4 8.5h26Z"/><path fill="#98D5F9" id="CP" d="M339 234h8l2-1c6.551 0 11.425-14 14-14 0-1.465-.109-4 2-4l1-2 1-2c0-1.465-.109-4 2-4l2-4c0-1.424.362-5 2-5 0-1.424.362-5 2-5 0-1.041.986-5 2-5v-19c-2.334 0-1.341-4.181-2-5.5l-11-22c-7.922-15.845-26.459-30.98-41.5-38.5-4.62-2.31-13.033-1-18.5-1 0 1.473-1.952 1-3 1l-10 14.5c-2.587 5.174-2 11.249-2 17.5v4l3 6 4 1c0-.571 9.823-3.838 11.5-3 3.75 1.875 2.5 7.522 2.5 11v2c1.643 0 1 3.765 1 5 2.376 0 6.106 7.712 7 9.5 6.658 13.315 4 27.448 4 42.5l-1 1v3c0 2.707 1 5.903 1 8 3.085 0 10.399 9 17 9Z"/><path fill="#1A7E62" id="SSs1" d="M419 173h4c0-19.654-1.827-40.154-10-56.5-1.149-2.298-2.732-14.5-6-14.5l-4 3c0 5.711 5.444 15.388 8 20.5 5.587 11.175 8 33.933 8 47.5Z"/><path fill="#1B7E64" id="SSp-n6b" d="M119 103c-1.763 0-7 4.012-7 6 1.763 0 7-4.012 7-6Z"/><path fill="#1B8063" id="SSs2/3" d="M37 173c2.707 0 5.903 1 8 1 0-10.816 6.584-38.668 11-47.5l6-15.5-8-6h-1c0 6.35-5.189 16.877-8 22.5-4.508 9.015-8 34.34-8 45.5ZM419 173c-2.707 0-5.903 1-8 1 0-10.566-5.836-38.172-10-46.5-2.385-4.769-6-10.886-6-16.5l7-6h1c0 5.711 5.444 15.388 8 20.5 5.587 11.175 8 33.933 8 47.5Z"/><path fill="#CBC8CB" id="fi" d="M167 137v3c2.658 0 4.602 6.449 9.5 4 5.123-2.562 20.277-10 25.5-10 0-1.552 5-1.146 5-4l6-10v-5c0-2.575-8.432-8-11-8-.73 0-3.551 6.026-5.5 7-5.533 2.766-18.38 7.26-21.5 13.5-.766 1.532-7.216 9.5-8 9.5ZM289 139v2c-2.493 0-4.636 4.932-8.5 3L255 134c0-1.773-6-.513-6-4 0-1.587-4.273-10-6-10v-7c4.058 0 7.012-6 11-6 1.436 0 5.18 6.84 7.5 8 6.154 3.077 12.835 5.835 18 11 2.002 2.002 6.541 9 9.5 9v4Z"/><path fill="#1B7E64" id="SSp-n6b" d="m112 109-1 1 1-1ZM111 110l-1 1 1-1Z"/><path fill="#187C63" id="SSs4" d="M45 174h6c0-9.383 4.029-31.558 8-39.5 1.577-3.154 9-15.851 9-18.5l-6-5-6 15.5c-4.416 8.832-11 36.684-11 47.5Z"/><path fill="#1B7E64" id="SSp-n6b" d="M110 111c-2.041 0-3 .959-3 3l3-3Z"/><path fill="#187C63" id="SSs4" d="M406 174h5c0-10.566-5.836-38.172-10-46.5-2.385-4.769-6-10.886-6-16.5h-1c-2.33 0-3.227 4-6 4v1c2.445 0 5.003 10.507 6 12.5 6.447 12.894 11 30.199 11 45.5h1Z"/><path fill="#97D6F9" id="STR" d="m215 112-1 1 1-1Z"/><path fill="#8FCBEC" id="SF" d="M213 120h30v-5l-2-3h-26l-1 1v2c0 1.048.473 3-1 3v2Z"/><path fill="#97D6F9" id="STR" d="M243 113v2l-2-3h1l1 1Z"/><path fill="#1B7E64" id="SSp-n6b" d="M107 114c-2.82 0-10 8.437-10 11 1.867 0 10-9.242 10-11Z"/><path fill="#97D6F9" id="STR" d="M214 115c0 1.048.473 3-1 3v-3h1Z"/><path fill="#1C8063" id="SSs5" d="M51 174h12c0-8.568 4.482-30.464 8-37.5l6-13.5-8-7h-1c0 2.649-7.423 15.346-9 18.5-3.971 7.942-8 30.117-8 39.5ZM393 174h12c0-15.301-4.553-32.606-11-45.5-.997-1.993-3.555-12.5-6-12.5-3.144 0-5.45 6-9 6v1c0 2.976 4.588 9.675 6 12.5 4.565 9.129 8 27.505 8 38.5Z"/><path fill="#C8C9C9" id="vhc" d="M247 130h2c0-1.587-4.273-10-6-10h-30l-6 10 5-1c0-2.871 3.13-1.315 4.5-2 3.556-1.778 27.5-1.902 27.5 2h2l1 1Z"/><path fill="#197D63" id="SSs6a" d="M63 174c4.121 0 9.275 1 14 1 0-10.063 3.731-22.963 8-31.5 1.413-2.826 6-7.361 6-10.5v-1c-4.145 0-6.213-5.357-9.5-7l-3.5-2h-1l-6 13.5c-3.518 7.036-8 28.932-8 37.5ZM393 174c-3.823 0-8.586 1-13 1 0-8.089-3.505-20.509-7-27.5l-7-14.5c0-1.952 10.915-10 13-10 0 2.976 4.588 9.675 6 12.5 4.565 9.129 8 27.505 8 38.5Z"/><path fill="#1B7E64" id="SSp-n6b" d="M92 134h1c0-1.238.423-3 2-3l1-2 1-4-6 7v1l1 1Z"/><path fill="#C9C9CA" id="scwm" d="m96 129-1 2 1-2Z"/><path fill="#A8A9AA" id="V3" fill-rule="evenodd" d="M243 139c0 3.479 4.365 0 0 0m-31 0c0 3.746 2.091 0 0 0m29 14h3l11-10v-9c0-1.773-6-.513-6-4h-2l-1-1h-2c-4.912 0-8-.775-8 5 0 9.711-15 10.814-15-1-2.205 0-.002-3.251-1.5-4H212l-5 1c0 2.854-5 2.448-5 4 0 1.819-1 4.591-1 7v2l12 10h2c4.259 0 9.153 3 13.5 3 3.916 0 8.692-3 12.5-3Z"/><path fill="#C9C9CA" id="scwm" d="M95 131c-1.577 0-2 1.762-2 3 1.577 0 2-1.762 2-3Z"/><path fill="#1A8061" id="SSs6b" d="M77 175h1v-2l1-2v-1l3-13 1-2v-1l1-2c0-1.048-.473-3 1-3l1-2 1-2 2-4 2-4 1-3-1-1c0 3.139-4.587 7.674-6 10.5-4.269 8.537-8 21.437-8 31.5Z"/><path fill="#FF5347" id="SFO" d="M221 133c5.409 0 10.095 1 15 1 0 9.711-15 10.814-15-1Z"/><path fill="#1A8061" id="SSs6b" d="M379 175h1c0-8.089-3.505-20.509-7-27.5l-7-14.5h-1l-1 1 5 10v1c1.577 0 2 1.762 2 3v1c2.109 0 2 2.535 2 4v1l1 1v2l1 1 2 11v1c1.473 0 1 1.952 1 3l1 2Z"/><path fill="#C9C9CA" id="scwm" d="M93 134c0 1.238-.423 3-2 3l1-3h1ZM91 137l-2 4c2.109 0 2-2.535 2-4Z"/><path fill="#FF8F9E" id="AD" d="M202 164h1v-1l-1-5v-2l-1-1v-14c-.896 0-10-5.302-10 0v2c0 5.52 5.621 11.743 8 16.5.592 1.185 1.012 4.5 3 4.5Z"/><path fill="#A9AAA8" id="chpl" d="M212 139c0 3.746 2.091 0 0 0ZM243 139c0 3.479 4.365 0 0 0Z"/><path fill="#FF8F9E" id="AD" d="M254 164h1l8-13.5c.636-1.272 1.45-7.5 3-7.5l-1-3c-1.368 0-9-3.238-9 1 0 1.321.684 6-1 6v10l-1 2c0 1.048.473 3-1 3v1l1 1Z"/><path fill="#97D6F9" id="STR" d="M291 145h1l-3-6v5l2 1Z"/><path fill="#FF6F80" id="TH" d="m268 142-2 1-1-3 3 2Z"/><path fill="#C9C9CA" id="scwm" d="m89 141-2 4c2.109 0 2-2.535 2-4Z"/><path fill="#97D6F9" id="STR" d="m167 144-2 1 2-4v3Z"/><path fill="#FF6F80" id="TH" d="m189 142 2 1v-2l-2 1ZM255 143v4c1.684 0 1-4.679 1-6h-1v2Z"/><path fill="#FD909E" id="AV" d="m183 173 2 3c3.536 0 4.464-5 8-5 0-3.642 9-2.041 9-7-1.988 0-2.408-3.315-3-4.5-2.379-4.757-8-10.98-8-16.5l-2-1c-4.764 0-9.659 4-14 4l-1 1c0 1.691 1 3.148 1 5v2l2 2v1l1 1v1l1 1v2l1 1v1l1 1v3c1.577 0 2 1.762 2 3v2ZM273 174l-2 2c-2.74 0-4.77-5-8-5 0-3.652-8-1.788-8-7l8-13.5c.636-1.272 1.45-7.5 3-7.5l2-1h1l1 1c5.041 0 9.769 4 13 4v3l-1 1v1l-1 1-1 3-1 1-2 6-1 1v1l-1 1v3l-1 1v1l-1 1v2Z"/><path fill="#FF6F80" id="TH" d="m269 142 1 1-1-1Z"/><path fill="#97D6F9" id="STR" d="M155 149h5l1-3c-2.664 0-6.178-1.839-8.5-3-7.687-3.843-6.5 11.133-6.5 15 1.215 0 1.354-8.208 2-9.5 1.409-2.818 7-3.54 7 .5Z"/><path fill="#CCC9C8" id="sm" d="m209 161-1 1c-3.754 0-4.821-4-6-4v-2l-1-1v-12l12 10-1 2-3 6ZM249 162h4c0-1.048-.473-3 1-3l1-2v-14l-11 10v2l4 6 1 1Z"/><path fill="#97D6F9" id="STR" d="m301 149 4.5-3c2.351 1.176 3.857 8 4.5 8 0-3.478 1.25-9.125-2.5-11-1.677-.838-11.5 2.429-11.5 3l1 3h4Z"/><path fill="#CAC7CB" id="fiber tracts" d="m170 148-1 1-4-4 2-1c0 1.457 3 1.46 3 4ZM286 148l1 1c1.634 0 4-2.634 4-4l-2-1-3 4Z"/><path fill="#C9C9CA" id="scwm" d="m87 145-1 2 1-2Z"/><path fill="#97D6F9" id="STR" d="m162 145-1 1 1-1Z"/><path fill="#C8CBC7" id="st" d="m163 157 6 3v-11l-4-4h-3l-1 1-1 3v4l3 4ZM293 157l-5 3-1-11c1.634 0 4-2.634 4-4h1l4 1 1 3-1 4-3 4Z"/><path fill="#C9C9CA" id="scwm" d="M369 145c1.577 0 2 1.762 2 3-1.577 0-2-1.762-2-3Z"/><path fill="#CCC" d="M163 190v3c2.12 0 3.26 11.62 6.5 10 2.7-1.35 2.777-8.947 1.5-11.5-4.162-8.323-6.797-17.595-11-26-1.432-2.863 2-5.025 2-7l-2-3.5-5-6c0-4.04-5.591-3.318-7-.5-.646 1.292-.785 9.5-2 9.5v3c5.586 0 16 22.884 16 28l1 1Z"/><path fill="#FF6F80" id="TH" d="m175 146-1 1 1-1Z"/><path fill="#CCC" d="M293 192v2c-2.021 0-2.913 10.794-6.5 9-3.016-1.508-1.586-11.328-.5-13.5 3.572-7.143 6.38-14.76 10-22 1.336-2.672-1.814-8.372-1-10l2-3.5 4-5 4.5-3c2.351 1.176 3.857 8 4.5 8v7c-5.04 0-16 24.575-16 29l-1 2Z"/><path fill="#C9C9CA" id="scwm" d="m86 147-1 2 1-2Z"/><path fill="#FF6F80" id="TH" d="m171 148 4 4c0-1.852-1-3.309-1-5-1.048 0-3-.473-3 1ZM285 148l-2 1v-2l2 1Z"/><path fill="#FD8F9F" id="RT" d="M199 192c0 2.281 8.212 4.075 6 8.5l-2.5.5c-5.808-2.904-9.798-4.101-16-1-.919.459-2.5-.765-2.5 1l-5.5 1c-3.707-1.854-13.5-32.207-13.5-37 1.533 0 4-3.753 4-5v-11l1-1h1l4 4v2l2 2v1l1 1v1l1 1v2l1 1v1l1 1v3l2 3v2l2 4c0 6.366 7.568 15 14 15ZM255 201c0-5.284 17-2.992 17 0l6.5 1c3.668-1.834 12.5-32.724 12.5-38-1.712 0-3-2.571-3-4l-1-11-1-1h-1l-2 1v1l-1 1v1l-1 1-1 3-1 1-2 6-1 1v1l-1 1v3l-1 1v1l-1 1v2l-2 4c0 5.352-7.39 14-13 14 0 1.629-14.209 9-3 9Z"/><path fill="#C9C9CA" id="scwm" d="M85 149c-1.473 0-1 1.952-1 3 1.473 0 1-1.952 1-3Z"/><path fill="#CAC7CB" id="fiber tracts" d="M160 153v2l-5-6h5v4ZM296 153l1 1 4-5h-4l-1 4Z"/><path fill="#C9C9CA" id="scwm" d="M371 149c2.109 0 2 2.535 2 4l-2-4Z"/><path fill="#FF6F80" id="TH" d="m283 150-1 1 1-1Z"/><path fill="#C9C9CA" id="scwm" d="m84 152-1 2 1-2Z"/><path fill="#FF6F80" id="TH" d="m282 152-1 1 1-1Z"/><path fill="#8599CC" id="PAL" d="M169 225c0 1.048.473 3-1 3 0-8.251-3.568-9-10-9l5-7.5c2.741-5.481 0-12.874 0-18.5 2.12 0 3.26 11.62 6.5 10 2.7-1.35 2.777-8.947 1.5-11.5-4.162-8.323-6.797-17.595-11-26-1.432-2.863 2-5.025 2-7l-2-3.5v-2l3 4c0 2.522 2 4.909 2 8 0 4.793 9.793 35.146 13.5 37l5.5-1 3 1c0 1.076-4.98 1.46-6 3.5-2.862 5.723-12 11.731-12 19.5Z"/><path fill="#FF6F80" id="TH" d="M212 155h3v-2h-2l-1 2Z"/><path fill="#FE8F9E" id="PVT" d="M221 196h14v-2c0-9.287-2.254-17.992 2-26.5.736-1.471-.357-7.5 2-7.5 0-2.364 3-3.053 3-5l-1-2c-3.808 0-8.584 3-12.5 3-4.347 0-9.241-3-13.5-3v2l2 4c2.357 0 1.264 6.029 2 7.5 6.152 12.305 2 16.354 2 27.5v2Z"/><path fill="#FF6F80" id="TH" d="M242 155h2v-2h-3l1 2Z"/><path fill="#8599CC" id="PAL" d="M287 226h1c0-11.59 9.704-5 15-5l-8-5.5c-2.998-5.995-2-14.3-2-21.5-2.021 0-2.913 10.794-6.5 9-3.016-1.508-1.586-11.328-.5-13.5 3.572-7.143 6.38-14.76 10-22 1.336-2.672-1.814-8.372-1-10l2-3.5-1-1-3 4-2 7c0 5.276-8.832 36.166-12.5 38l-6.5-1-2 1c0 .73 6.026 3.551 7 5.5 2.442 4.885 10 9.699 10 16.5v2Z"/><path fill="#FF6F80" id="TH" d="m175 154 2 2-2-2Z"/><path fill="#C9C9CA" id="scwm" d="m373 154 1 1-1-1ZM83 155l-1 2 1-2Z"/><path fill="#FF6F80" id="TH" d="m201 155 1 1-1-1Z"/><path fill="#FD909D" id="MD" d="M217 159c0 2.282-8 2.575-8 2l3-6h3l2 4ZM239 160c2.723 0 5.778 1 9 1l-4-6h-2c0 1.947-3 2.636-3 5Z"/><path fill="#FF6F80" id="TH" d="m280 156-1 1 1-1Z"/><path fill="#97D6F9" id="STR" d="M310 161h1c0-1.235.643-5-1-5v5Z"/><path fill="#CAC7CB" id="fiber tracts" d="M169 160c0 1.247-2.467 5-4 5 0-3.091-2-5.478-2-8l6 3Z"/><path fill="#FF6F80" id="TH" d="m177 157 1 1-1-1ZM255 157l-1 2 1-2Z"/><path fill="#CAC7CB" id="fiber tracts" d="M288 160c0 1.429 1.288 4 3 4l2-7-5 3Z"/><path fill="#C9C9CA" id="scwm" d="m374 157 1 1-1-1Z"/><path fill="#97D6F9" id="STR" d="M145 161h1v-3c-1.473 0-1 1.952-1 3Z"/><path fill="#FF6F80" id="TH" d="m203 163 4 1 1-2c-3.754 0-4.821-4-6-4l1 5ZM178 159l1 1-1-1Z"/><path fill="#FF909F" id="PT" d="M212 197h6l1-1 2-2c0-11.146 4.152-15.195-2-27.5-.736-1.471.357-7.5-2-7.5 0 2.282-8 2.575-8 2l-1 1-1 2c0 6.238 3 12.608 3 19.5 0 1.483-.487 6.5-2 6.5 0 3.416 4 4.836 4 7Z"/><path fill="#FF6F80" id="TH" d="M254 159c-1.473 0-1 1.952-1 3 1.473 0 1-1.952 1-3Z"/><path fill="#FF909F" id="PT" d="M237 196c2.097 0 5.293 1 8 1 0-2.232 3-4.029 3-7 0-2.588-3.501-6.498-2-9.5 1.748-3.496 3-11.633 3-15.5v-3l-1-1c-3.222 0-6.277-1-9-1-2.357 0-1.264 6.029-2 7.5-4.254 8.508-2 17.213-2 26.5l2 2Z"/><path fill="#8598CC" id="GPe" d="M149 221h5l1-1 2-1h1l5-7.5c2.741-5.481 0-12.874 0-18.5v-3l-1-1c0-5.116-10.414-28-16-28h-1c-2.797 0-6.944 10.388-8 12.5-7.17 14.34-2 27.002-2 41.5l1 1v1c2.983 0 7.93 4 13 4ZM303 221h4c4.656 0 7.78-2 12-2l1-1v-1l1-1v-2l1-1c0-15.052 2.658-29.185-4-42.5-.894-1.788-4.624-9.5-7-9.5h-1c-5.04 0-16 24.575-16 29l-1 2v2c0 7.2-.998 15.505 2 21.5l8 5.5Z"/><path fill="#FF6F80" id="TH" d="m179 162 1 1-1-1ZM253 163l-4 2v-3h4v1Z"/><path fill="#FC8E9F" id="IAD" d="M207 190h1c1.513 0 2-5.017 2-6.5 0-6.892-3-13.262-3-19.5l-4-1v1l4 11.5c2.2 4.401 0 10.29 0 14.5ZM248 190h1c0-3.606-1.941-9.619 0-13.5 1.313-2.627 5-9.792 5-12.5l-1-1-4 2c0 3.867-1.252 12.004-3 15.5-1.501 3.002 2 6.912 2 9.5Z"/><path fill="#FF6F80" id="TH" d="m277 163-1 1 1-1ZM180 164l1 1-1-1Z"/><path fill="#FD8D9F" id="AMd" d="M207 190c0 3.19-4.967 1-6 1 0-3.432-8-14.868-8-20 0-3.642 9-2.041 9-7h1l4 11.5c2.2 4.401 0 10.29 0 14.5ZM249 190c0 3.472 5.853 1 7 1 0-6.516 7-13.055 7-20 0-3.652-8-1.788-8-7h-1c0 2.708-3.687 9.873-5 12.5-1.941 3.881 0 9.894 0 13.5Z"/><path fill="#FF6F80" id="TH" d="m276 165-1 1 1-1ZM181 168c1.577 0 2 1.762 2 3l-2-3ZM275 169l-1 1 1-1Z"/><path fill="#C9C7C9" id="ccb" d="M377 173h1c0-1.048.473-3-1-3v3ZM78 173h1v-2l-1 2Z"/><path fill="#FC909D" id="AMv" d="m201 191-2 1c-6.432 0-14-8.634-14-15v-1c3.536 0 4.464-5 8-5 0 5.132 8 16.568 8 20ZM256 191l2 1c5.61 0 13-8.648 13-14v-2c-2.74 0-4.77-5-8-5 0 6.945-7 13.484-7 20Z"/><path fill="#FF6F80" id="TH" d="m274 171-1 1 1-1Z"/><path fill="#12AD83" id="VISC1" d="M42 198c0 .672-4.33 2-5 2l-4-13.5V173h4c0 5.188-.188 13.125 2 17.5 1.035 2.069 3 5.13 3 7.5Z"/><path fill="#12AC83" id="VISC2/3" d="M42 198h1c1.13 0 8-2.049 8-3 0-5.873-6-12.787-6-21-2.097 0-5.293-1-8-1 0 5.188-.188 13.125 2 17.5 1.035 2.069 3 5.13 3 7.5Z"/><path fill="#11AC82" id="VISC4" d="M51 195h2l-2-5.5c-2.087-4.173 0-11.454 0-15.5h-6c0 8.213 6 15.127 6 21Z"/><path fill="#C8CBCC" id="ec" d="M110 238h4c0-3.858-7-2.174-7-5h-1l-1-1c-3.848 0-8.762-10.025-10-12.5-8.169-16.338-16-26.391-16-46.5h-1v2c0 4.284 1 9.371 1 13v3l1 1 1 3 1 1v1l1 1v2l1 1v1l2 4 10 19 1 1v1c1.577 0 2 1.762 2 3l2 2 3 3 1 1 1 1 2 1h2Z"/><path fill="#FF6F80" id="TH" d="M185 176v1l-2-4 2 3Z"/><path fill="#C8CBCC" id="ec" d="M377 188h1c0-1.235-.643-5 1-5v-8l-1-2h-1v15Z"/><path fill="#11AC82" id="VISC4" d="M403 195h2c2.76 0 6-17.161 6-21h-5l-1 16.5-2 4.5Z"/><path fill="#12AC83" id="VISC2/3" d="M405 195c0 1.231 7.622 3 9 3l3-6.5c2.491-4.982 2-12.51 2-18.5-2.707 0-5.903 1-8 1 0 3.839-3.24 21-6 21Z"/><path fill="#12AD83" id="VISC1" d="m414 198 5 2 4-10.5V173h-4c0 5.99.491 13.518-2 18.5l-3 6.5Z"/><path fill="#12AD82" id="VISC5" d="M66 193c-5.004 0-7.672 2-13 2l-2-5.5c-2.087-4.173 0-11.454 0-15.5h12c0 6.887 3 12.719 3 19Z"/><path fill="#11AC83" id="VISC6a" d="M67 193h3c0-1.504 5.699-4 7-4v-14c-4.725 0-9.879-1-14-1 0 6.887 3 12.719 3 19h1Z"/><path fill="#FF6F80" id="TH" d="M271 176v2l2-4-2 2Z"/><path fill="#11AC83" id="VISC6a" d="M386 193h4c0-4.204 3-11.366 3-19-3.823 0-8.586 1-13 1 0 1.49.735 8-1 8v6c1.572 0 7 2.052 7 4Z"/><path fill="#12AD82" id="VISC5" d="M390 193c4.998 0 8.072 2 13 2l2-4.5 1-16.5h-13c0 7.634-3 14.796-3 19Z"/><path fill="#11AD82" id="VISC6b" d="M77 189h1l1-1c0-3.629-1-8.716-1-13h-1v14ZM380 175c0 1.49.735 8-1 8v-8h1ZM378 188h1v-5c-1.643 0-1 3.765-1 5Z"/><path fill="#019C74" id="GU6b" d="M78 191h1v-3l-1 1v2Z"/><path fill="#C8CBCC" id="ec" d="M375 193h1l1-1v-4c-1.014 0-2 3.959-2 5Z"/><path fill="#019C74" id="GU6b" d="M377 191h1l1-2v-1h-2v3Z"/><path fill="#009B74" id="GU6a" d="m78 191-8 2c0-1.504 5.699-4 7-4h1v2Z"/><path fill="#8599CC" id="PAL" d="m162 189 1 1-1-1Z"/><path fill="#009B74" id="GU6a" d="m378 191 8 2c0-1.948-5.428-4-7-4l-1 2Z"/><path fill="#FF6F80" id="TH" d="m208 209 11 4c0-2.591-7.695-8.89-9-11.5-.715-1.43.291-4.5 2-4.5 0-2.164-4-3.584-4-7h-1c0 3.19-4.967 1-6 1l-2 1c0 2.281 8.212 4.075 6 8.5l-2.5.5c-5.808-2.904-9.798-4.101-16-1-.919.459-2.5-.765-2.5 1l3 1 6 1c0-3.094 10-3.162 10 2 1.061 0 5 2.571 5 4ZM248 209c-3.827 0-6.918 4-11 4 0-2.339 7.795-9.091 9-11.5.529-1.058 1.263-4.5-1-4.5 0-2.232 3-4.029 3-7h1c0 3.472 5.853 1 7 1l2 1c0 1.629-14.209 9-3 9l-1 2-1 1v1l-5 4Z"/><path fill="#8599CC" id="PAL" d="m294 190-1 2 1-2Z"/><path fill="#209766" id="AIp6a" d="M76 213h1c0-4.337 6-4.917 6-7-7.139 0-9.212-14-4-14v-1h-1l-8 2h-3c0 7.187 9 13.32 9 20Z"/><path fill="#219666" id="AIp6b" d="M79 192h1l-1-1v1Z"/><path fill="#8ADA86" id="CLA" d="M372 202v1c0 4.04 5.591 3.318 7 .5 2.502-5.004-1-8.281-1-12.5h-1v1l-1 1-1 1v2l-1 1v1l-1 1v2l-1 1Z"/><path fill="#209766" id="AIp6a" d="M380 213h1l9-20h-4l-8-2c0 4.219 3.502 7.496 1 12.5-1.409 2.818-7 3.54-7-.5h-1v3c4.546 0 8 2.586 8 7h1Z"/><path fill="#8ADA86" id="CLA" d="m84 202-1 4c-7.139 0-9.212-14-4-14h1l1 3 1 1v1l1 1v2l1 1v1Z"/><path fill="#209766" id="AIp6a" d="m377 192-1 1 1-1Z"/><path fill="#219864" id="AIp5" d="m76 213-7 3c-1.65 0-16-18.346-16-21 5.328 0 7.996-2 13-2h1c0 7.187 9 13.32 9 20Z"/><path fill="#C8CBCC" id="ec" d="M373 198h1v-1l1-1v-3c-1.638 0-2 3.576-2 5Z"/><path fill="#209766" id="AIp6a" d="m376 193-1 1v-1h1Z"/><path fill="#219864" id="AIp5" d="m381 213 6 3c3.006 0 16-17.873 16-21-4.928 0-8.002-2-13-2l-9 20Z"/><path fill="#FF6F80" id="TH" d="M219 196h2v-2l-2 2ZM235 196h2l-2-2v2Z"/><path fill="#209865" id="AIp2/3" d="M69 216c0 .865-8.68 4-10 4 0-3.093-16-13.299-16-22 1.13 0 8-2.049 8-3h2c0 2.654 14.35 21 16 21Z"/><path fill="#209766" id="AIp6a" d="m81 195 1 1-1-1Z"/><path fill="#209865" id="AIp2/3" d="M387 216c0 .767 9.54 4 11 4 0-4.22 16-14.149 16-22-1.378 0-9-1.769-9-3h-2c0 3.127-12.994 21-16 21Z"/><path fill="#FF6F80" id="TH" d="m219 196-1 1 1-1Z"/><path fill="#FD909F" id="RE" d="M230 214h5l2-1c0-2.339 7.795-9.091 9-11.5.529-1.058 1.263-4.5-1-4.5-2.707 0-5.903-1-8-1h-18l-1 1h-6c-1.709 0-2.715 3.07-2 4.5 1.305 2.61 9 8.909 9 11.5h1l1 1h6c0-1.399 2-1.399 2 0h1Z"/><path fill="#209766" id="AIp6a" d="m375 196-1 1 1-1ZM82 197l1 1-1-1Z"/><path fill="#219765" id="AIp1" d="m59 220-5 2c-1.613 0-17-19.577-17-22 .67 0 5-1.328 5-2h1c0 8.701 16 18.907 16 22Z"/><path fill="#FF6F80" id="TH" d="m270 202-6 1c-2.526 0-5.577-2-9-2 0-5.284 17-2.992 17 0l-2 1Z"/><path fill="#C8CBCC" id="ec" d="M371 203h1v-1l1-1v-3c-1.638 0-2 3.576-2 5Z"/><path fill="#209766" id="AIp6a" d="m374 198-1 1v-1h1Z"/><path fill="#219765" id="AIp1" d="m398 220 4 2c2.292 0 17-19.073 17-22l-5-2c0 7.851-16 17.78-16 22Z"/><path fill="#209766" id="AIp6a" d="m83 200 1 1-1-1Z"/><path fill="#F0483B" id="ZI" d="M203 205v1c0 5.705-10 .299-10-3 0-3.094 10-3.162 10 2ZM253 205v1l3.5 3c2.102 0 7.5-3.789 7.5-6-2.526 0-5.577-2-9-2l-1 2-1 1v1Z"/><path fill="#209766" id="AIp6a" d="m373 201-1 1 1-1ZM83 206h3l-2-4-1 4Z"/><path fill="#E64438" id="HY" fill-rule="evenodd" d="m192 218-4 4.5c-1.262 2.525 3.688 6.906 6.5 5.5 4.08-2.04 1.574-10-2.5-10m11-6c0 .063-4.091 5.682-5 7.5-2.896 5.792 19.414 3.414 11.5-4.5l-3-2-3.5-1m-19-7c0 14.712 15.654 0 0 0m28 74h4l-1-4.5 2-3.5-1-1-4.5 3c-5.251 2.626-12.264-2.132-16-4-3.948-1.974-4.343-17.814-2.5-21.5 3.073-6.147 10.103-6.5 16-6.5 0-4.32-2.429-4.642 0-9.5 3.197-6.394 12 3.395 12 7.5h3v-3c-3.016 0-4.071-7.643-5-9.5-3.452-6.904-8.802-11.5 3-11.5v-1h-1l-1-1h-1l-11-4c-2.364 0-3.053-3-5-3 0 5.705-10 .299-10-3l-6-1c0 1.076-4.98 1.46-6 3.5-2.862 5.723-12 11.731-12 19.5 2.942 0 4.502-12.999 10.5-10 7.713 3.857 17.099 44.95 7 50-6.562 3.281-15.592-7-21.5-7 0 1.978 7.182 13 9 13 0-9.701 16-2.64 16 2l4 2h1c3.071 0 5.362 2 9 2 0-6.2 13.442 0 1 0 0 2.592 6-.592 6 2h1ZM262 218l-2 5c0 14.234 16.292-5 2-5m-10-6-6 4.5c-4.325 8.65 18.697 7.697 11.5.5l-1.5-2.5-4-2.5m15-7c0 1.602-3.058 2.384-2 4.5 2.639 5.278 12.438-1.531 6.5-4.5H267m-22 74h1c0-2.496 5 .496 5-2-11.031 0 2-5.914 2 0l6-1h1l1-1h2c0-1.577 1.762-2 3-2 0-6.127 17-10.208 17-3 2.2 0 8-9.956 8-12-5.673 0-14.022 10.239-20.5 7-10.525-5.262-3.085-32.33.5-39.5 1.159-2.318 1.8-8.15 4.5-9.5 7.724-3.862 6.801 8 11.5 8 0-6.801-7.558-11.615-10-16.5-.974-1.949-7-4.77-7-5.5l-6 1c0 2.211-5.398 6-7.5 6l-3.5-3c0 2.393-3.234 3-5 3-3.827 0-6.918 4-11 4l-2 1v1c12.322 0 5.182 6.136 2 12.5-.954 1.908-1.531 8.5-5 8.5v3c4.206 0 2.421 3 5 3 0-1.606-2.081-4.339-1-6.5 3.005-6.011 9.739-7.522 13-1l-1 6.5c4.612 0 11.672-.157 14 4.5 2.575 5.151 5.262 20.119-1.5 23.5-3.736 1.868-10.749 6.626-16 4l-4.5-4v10h5Z"/><path fill="#CAC7CB" id="fiber tracts" d="m254 203-1 1 1-1Z"/><path fill="#C8CBCC" id="ec" d="M369 207h1l1-1v-3l-2 4Z"/><path fill="#CCC9C8" id="sm" d="M184 205c0 14.712 15.654 0 0 0Z"/><path fill="#CAC7CB" id="fiber tracts" d="M203 206c1.947 0 2.636 3 5 3 0-1.429-3.939-4-5-4v1ZM253 206c0 2.393-3.234 3-5 3l5-4v1Z"/><path fill="#CCC9C8" id="sm" d="M267 205c0 1.602-3.058 2.384-2 4.5 2.639 5.278 12.438-1.531 6.5-4.5H267Z"/><path fill="#A0EE9C" id="EPd" d="M98 230c0 1.658-1.46 3-3 3-2.83 0-4.54-4-7-4l-6-5-1-2 3.5 3-7.5-12c0-4.337 6-4.917 6-7h3l10 19 1 1v1l1 3Z"/><path fill="#209766" id="AIp6a" d="m371 206-1 1 1-1Z"/><path fill="#A0EE9C" id="EPd" d="m367 231-5 2c-2.041 0-3-.959-3-3v-3l1-1 3-7c2.109 0 2-2.535 2-4l1-2 1-2 2-4h1l1-1c4.546 0 8 2.586 8 7 0 1.321-5.471 8-3 8v1h-1c0-2.206-2 .742-2 2-1.058 0-3.029 1-1 1v1l-1 1-1 1-1 1-1 1-1 1Z"/><path fill="#C8CBCC" id="ec" d="M369 207c-2.109 0-2 2.535-2 4l2-4ZM367 211l-1 2 1-2Z"/><path fill="#C7C8CA" id="fx" d="M203 212c0 .063-4.091 5.682-5 7.5-2.896 5.792 19.414 3.414 11.5-4.5l-3-2-3.5-1ZM252 212l-6 4.5c-4.325 8.65 18.697 7.697 11.5.5l-1.5-2.5-4-2.5Z"/><path fill="#6ACAB9" id="PIR" d="M116 273c0 4.726-4.881 13.263-7 17.5l-6 6.5c-4.858 0-7.235-6.367-10.5-8-6.65-3.325-20.33-37.159-24.5-45.5-2.4-4.798-14-16.95-14-21.5l5-2c1.32 0 10-3.135 10-4l7-3 1 3 1 1 2 4 1 1 1 2 11 13c0 2.16 15.573 23.037 17.5 24l3.5 4c0 2.885 2 4.697 2 8Z"/><path fill="#C9C8CA" id="ee" d="m80 221 1 1 3.5 3-7.5-12h-1l1 3 1 1 2 4Z"/><path fill="#FF6F80" id="TH" d="m220 213 1 1-1-1ZM237 213l-2 1 2-1Z"/><path fill="#97D6F9" id="STR" d="m322 213-1 1 1-1Z"/><path fill="#C8CBCC" id="ec" d="m366 213-1 2 1-2Z"/><path fill="#C9C8CA" id="ee" d="m377 220-1 1c-2.471 0 3-6.679 3-8h1l-3 7Z"/><path fill="#6ACAB9" id="PIR" d="M341 273c0 7.487 12 22.046 12 24 5.015 0 11.836-7.173 14-11.5 7.276-14.552 14.788-28.577 22-43 3.098-6.196 13-13.391 13-20.5l-4-2c-1.46 0-11-3.233-11-4l-6-3h-1l-3 7-1 1v1l-1 1-1 1-1 1-1 1-1 1v1l-1 1-1 1-1 1c0 1.429-1.288 4-3 4l-1 2c0 3.843-21 26.062-21 28l-1 1-1 1v6Z"/><path fill="#FF6F80" id="TH" d="M222 215h5v-1h-5v1Z"/><path fill="#E64438" id="HY" d="M228 219h1v-3l-2-2v1l1 4ZM229 215h1v-1h-1v1Z"/><path fill="#FF6F80" id="TH" d="M230 215h5v-1h-5v1Z"/><path fill="#8599CC" id="PAL" d="M135 216h1l-1-1v1Z"/><path fill="#F2483A" id="LHA" d="M165 243v15c5.908 0 14.938 10.281 21.5 7 10.099-5.05.713-46.143-7-50-5.998-2.999-7.558 10-10.5 10 0 1.048.473 3-1 3v3l-1 1-1 9-1 1v1Z"/><path fill="#FF5D4F" id="PVH" d="m224 236 3 1v-14c0-1.145-.579-4 1-4l-1-4h-5c-11.802 0-6.452 4.596-3 11.5.929 1.857 1.984 9.5 5 9.5ZM232 236l-3 1v-22h6c12.322 0 5.182 6.136 2 12.5-.954 1.908-1.531 8.5-5 8.5Z"/><path fill="#F2483A" id="LHA" d="m291 242 2 12.5-2 3.5c-5.673 0-14.022 10.239-20.5 7-10.525-5.262-3.085-32.33.5-39.5 1.159-2.318 1.8-8.15 4.5-9.5 7.724-3.862 6.801 8 11.5 8v2l1 1v2l1 1c0 4.371 2 8.019 2 12Z"/><path fill="#C8CBCC" id="ec" d="M365 215c-2.109 0-2 2.535-2 4 2.109 0 2-2.535 2-4Z"/><path fill="#A0EE9C" id="EPd" d="m77 216 1 1-1-1Z"/><path fill="#97D6F9" id="STR" d="M125 254h3c0-16.198 8.576-11 19-11v-1l-1-1-1-2c-3.256 0-3.483 3.009-7.5 1-5.477-2.739.483-10 4.5-10l-1-4c-1.987 0-5-7.371-5-9v-1h-1c0 3.013-1 6.611-1 9 1.258 0 1.639 7.221 1 8.5-3.452 6.904-8.83 16.5-18 16.5l8 4Z"/><path fill="#8599CC" id="PAL" d="M320 217h1v-1l-1 1ZM149 221c0 2.256-8 1.115-8 5-1.987 0-5-7.371-5-9 2.983 0 7.93 4 13 4Z"/><path fill="#97D6F9" id="STR" d="m332 253-4 2c0-16.993-6.75-12-18-12v-1l2-3c2.32 0 2.522 2.989 6.5 1 5.337-2.668.653-10-3.5-10v-3l4-8 1-1v-1h1c0 2.707 1 5.903 1 8-2.291 0-.532 8.436 0 9.5 3.624 7.247 8.615 15.5 18 15.5 0 1.069-6.717 3-8 3Z"/><path fill="#A2B1D7" id="SI" d="m147 243 6.5 3c4.627 2.313 8.328-3 11.5-3v-1l1-1 1-9 1-1v-3c0-8.251-3.568-9-10-9h-1l-2 1-1 1h-5c0 2.256-8 1.115-8 5l1 4c3.421 0 3 6.655 3 9l1 2 1 1v1Z"/><path fill="#B3C0DE" id="BST" d="m192 218-4 4.5c-1.262 2.525 3.688 6.906 6.5 5.5 4.08-2.04 1.574-10-2.5-10ZM262 218l-2 5c0 14.234 16.292-5 2-5Z"/><path fill="#A2B1D7" id="SI" d="m309 243-2 2-10.5 1c-1.38-.69-4.489-4-5.5-4 0-3.981-2-7.629-2-12l-1-1v-3c0-11.59 9.704-5 15-5h4c0 2.219 8 .598 8 6v3c-3.913 0-3 6.556-3 9l-2 3-1 1Z"/><path fill="#8599CC" id="PAL" d="m320 218-1 1 1-1ZM157 219l-2 1 2-1Z"/><path fill="#A8A9AA" id="V3" d="M227 237v27c0 1.257-.662 9.081 1.5 8l.5-35v-18h-1c-1.579 0-1 2.855-1 4v14Z"/><path fill="#8599CC" id="PAL" d="M307 221c0 2.219 8 .598 8 6l4-8c-4.22 0-7.344 2-12 2Z"/><path fill="#C8CBCC" id="ec" d="M349 238c-1.048 0-3-.473-3 1l-1.5-1c-5.979-2.989 2.5-1.578 2.5-4l2-1c6.551 0 11.425-14 14-14l-3 7-1 1v1l-2 2-1 1-1 1v1c-1.747 0-2 .253-2 2h-1l-1 1-1 1-1 1Z"/><path fill="#8599CC" id="PAL" d="m155 220-1 1 1-1Z"/><path fill="#A0EE9C" id="EPd" d="m377 220-1 1 1-1Z"/><path fill="#99D2BD" id="OLF" d="m80 221 1 1-1-1Z"/><path fill="#C9C8CA" id="ee" d="M373 224h1l1-1v-1c0-2.206-2 .742-2 2Z"/><path fill="#99D2BD" id="OLF" d="m376 222-1 1v-1h1Z"/><path fill="#8AD987" id="CTXsp" d="m375 223-1 1 1-1Z"/><path fill="#99D2BD" id="OLF" d="M93 235v2l-11-13 6 5c0 1.442 3.274 6 5 6Z"/><path fill="#C9C8CA" id="ee" d="M372 225h1v-1c-1.058 0-3.029 1-1 1Z"/><path fill="#8AD987" id="CTXsp" d="m374 224-1 1v-1h1ZM96 225l1 1-1-1Z"/><path fill="#7ECDF8" id="FS" d="M115 250h2c9.17 0 14.548-9.596 18-16.5.639-1.279.258-8.5-1-8.5-1.779 0-9.762 9-17 9 0 1.488 6.805 2.11 8 4.5 1.137 2.274-2.233 4.5-4 4.5 0 1.486-3 1.486-3 0h-1c-3.626 0-3-.4-3 4v1l1 2ZM342 249l-2 1c-9.385 0-14.376-8.253-18-15.5-.532-1.064-2.291-9.5 0-9.5 3.085 0 10.399 9 17 9l-5 3c-3.803 0-1.852 6 1 6h1c0 1.486 3 1.486 3 0h1l1-1 1-1c1.643 0 1 3.765 1 5v2l-1 1Z"/><path fill="#8AD987" id="CTXsp" d="m373 225-1 1v-1h1Z"/><path fill="#E64438" id="HY" d="M288 226v1l-1-1h1Z"/><path fill="#8AD987" id="CTXsp" d="m360 226-1 1 1-1ZM372 226l-1 1 1-1ZM98 230h1c0-1.238-.423-3-2-3l1 3ZM370 228h1v-1l-1 1ZM357 230h2v-2l-2 2ZM369 229h1v-1l-1 1Z"/><path fill="#99D2BD" id="OLF" d="m371 228-1 1v-1h1Z"/><path fill="#8AD987" id="CTXsp" d="m95 233-2 2c-1.726 0-5-4.558-5-6 2.46 0 4.17 4 7 4Z"/><path fill="#8599CC" id="PAL" d="m288 229 1 1-1-1Z"/><path fill="#8AD987" id="CTXsp" d="M368 230h1v-1l-1 1Z"/><path fill="#99D2BD" id="OLF" d="m370 229-1 1v-1h1Z"/><path fill="#A0ED9D" id="EPv" d="M115 250c0 2.671 2 5.254 2 7.5l-3 7.5-3.5-4c-1.927-.963-17.5-21.84-17.5-24v-2l2-2c1.54 0 3-1.342 3-3h1l2 2 2 4c0 2.362 2.638 5 5 5l5 5v1l1 1 1 2Z"/><path fill="#7FC0E0" id="CEAm" d="M142 230c3.421 0 3 6.655 3 9-3.256 0-3.483 3.009-7.5 1-5.477-2.739.483-10 4.5-10Z"/><path fill="#FD4C3E" id="MPN" d="m219 243-4 1-6-3c0-4.32-2.429-4.642 0-9.5 3.197-6.394 12 3.395 12 7.5v1l-1 1v1l-1 1ZM237 243l5 1 6-3 1-6.5c-3.261-6.522-9.995-5.011-13 1-1.081 2.161 1 4.894 1 6.5v1Z"/><path fill="#7FC0E0" id="CEAm" d="M315 230c4.153 0 8.837 7.332 3.5 10-3.978 1.989-4.18-1-6.5-1 0-2.444-.913-9 3-9Z"/><path fill="#8AD987" id="CTXsp" d="m357 230-1 1 1-1Z"/><path fill="#A0ED9D" id="EPv" d="M342 265h1c0-1.938 21-24.157 21-28l-2-4c-2.041 0-3-.959-3-3h-2l-1 1-1 1v1c0 1.238-.423 3-2 3 0 2.436-1.545 5-4 5l-5 5-1 1v1l-1 1c0 3.253-3.888 7.725-2 11.5l2 4.5Z"/><path fill="#8AD987" id="CTXsp" d="M367 231h1v-1l-1 1Z"/><path fill="#99D2BD" id="OLF" d="m369 230-1 1v-1h1Z"/><path fill="#8599CC" id="PAL" d="m168 231-1 1 1-1Z"/><path fill="#8AD987" id="CTXsp" d="m356 231-1 1 1-1ZM365 235l-1 2-2-4 5-2-2 4Z"/><path fill="#99D2BD" id="OLF" d="M368 231c0 1.429-1.288 4-3 4l2-4h1Z"/><path fill="#8AD987" id="CTXsp" d="m104 235-1 1-2-4 3 3Z"/><path fill="#97D6F9" id="STR" d="m105 232 1 1-1-1ZM114 238c.917 0 11.823-3.146 9 2.5l-2 2.5c1.767 0 5.137-2.226 4-4.5-1.195-2.39-8-3.012-8-4.5l-10-1c0 2.826 7 1.142 7 5ZM349 233l-2 1 2-1Z"/><path fill="#8AD987" id="CTXsp" d="M353 235v1c1.577 0 2-1.762 2-3-1.747 0-2 .253-2 2Z"/><path fill="#97D6F9" id="STR" d="M343 246h1l2-7-1.5-1c-5.979-2.989 2.5-1.578 2.5-4h-8l-5 3c4.673 0 8-1.4 8 4 1.643 0 1 3.765 1 5Z"/><path fill="#80BEE2" id="IA" d="M108 238c0 .716 2.373 3 0 3-2.362 0-5-2.638-5-5l1-1 1 1 1 1 2 1Z"/><path fill="#8AD987" id="CTXsp" d="m352 235-1 1 1-1Z"/><path fill="#80BEE2" id="IA" d="M349 238c0 .716-2.373 3 0 3 2.455 0 4-2.564 4-5v-1h-1l-1 1-1 1-1 1Z"/><path fill="#99D2BD" id="OLF" d="m365 235-1 2 1-2Z"/><path fill="#8AD987" id="CTXsp" d="m105 236 1 1-1-1Z"/><path fill="#FF5D50" id="PVa" d="M228 277h1c0-3.708 2-5.942 2-10 0-8.774 1-18.617 1-28v-3l-3 1-.5 35c-2.162 1.081-1.5-6.743-1.5-8v-27l-3-1v3c0 9.456 1 19.114 1 28l2 10h1Z"/><path fill="#C9C9C9" id="act" d="M118 243h3l2-2.5c2.823-5.646-8.083-2.5-9-2.5 0 2.554 3 3.688 3 5h1Z"/><path fill="#97D6F9" id="STR" d="M334 237c-3.803 0-1.852 6 1 6 0-1.03-1-2.671-1-6Z"/><path fill="#C9C9C9" id="act" d="M339 243h1l1-1 1-1c0-5.4-3.327-4-8-4 0 3.329 1 4.97 1 6h4Z"/><path fill="#8AD987" id="CTXsp" d="m350 237-1 1 1-1ZM108 241l5 5-3-8h-2c0 .716 2.373 3 0 3Z"/><path fill="#97D6F9" id="STR" d="M113 247h1c0-4.4-.626-4 3-4 0-1.312-3-2.446-3-5h-4l3 8v1Z"/><path fill="#FD5547" id="SBPV" d="M240 269v2c-2.563 0-1.938-4.219-3.5-5-2.769-1.384-2.649 1-5.5 1 0-8.774 1-18.617 1-28 4.206 0 2.421 3 5 3v1c0 1.249 1.074 10 2 10 0 5.605 1 10.861 1 16Z"/><path fill="#8AD987" id="CTXsp" d="m349 241-5 5 2-7c0-1.473 1.952-1 3-1 0 .716-2.373 3 0 3Z"/><path fill="#FD5547" id="SBPV" d="m216 270 1 1 4.5-6 3.5 2c0-8.886-1-18.544-1-28h-3v1l-1 1v1l-1 1-1 7c0 6.972-2 13.415-2 20Z"/><path fill="#E64438" id="HY" d="m221 240-1 1 1-1Z"/><path fill="#80C0E2" id="AAA" d="M147 263h6l1-1-1-9c0-3.794-6-6.572-6-10-10.424 0-19-5.198-19 11 0 1.782 6.482 7 8 7 1.257 0 8 .941 8 2h3Z"/><path fill="#8599CC" id="PAL" d="m146 241 1 1-1-1ZM166 241l-1 1 1-1Z"/><path fill="#FF4B3E" id="AHN" d="M218 250c0 6.972-2 13.415-2 20l-4.5 3c-5.251 2.626-12.264-2.132-16-4-3.948-1.974-4.343-17.814-2.5-21.5 3.073-6.147 10.103-6.5 16-6.5l6 3 3 6ZM239 253c0 5.605 1 10.861 1 16l4.5 4c5.251 2.626 12.264-2.132 16-4 6.762-3.381 4.075-18.349 1.5-23.5-2.328-4.657-9.388-4.5-14-4.5l-6 3c0 2.561-3 5.324-3 9Z"/><path fill="#80C0E2" id="AAA" d="M309 263h4c0-.853 6.031-2 7-2l8-6c0-16.993-6.75-12-18-12l-1 1-2 1-4 9v8l1 1h5Z"/><path fill="#97D6F9" id="STR" d="m342 241-1 1 1-1Z"/><path fill="#E64438" id="HY" d="m220 242-1 1 1-1Z"/><path fill="#8599CC" id="PAL" d="M282 273c0 1.506 4.055 3.722 5.5 3l2.5-3c0-4.114 9.425-19 13-19l4-9-10.5 1c-1.38-.69-4.489-4-5.5-4l2 12.5-2 3.5c0 2.044-5.8 12-8 12l-1 3ZM309 243h1v-1l-1 1Z"/><path fill="#97D6F9" id="STR" d="m341 242-1 1 1-1ZM118 243h3c0 1.486-3 1.486-3 0Z"/><path fill="#8599CC" id="PAL" d="M175 273v1l-6.5 2-2.5-3-1-7.5-9-9-3-3.5c0-3.794-6-6.572-6-10l6.5 3c4.627 2.313 8.328-3 11.5-3v15c0 1.978 7.182 13 9 13l1 2Z"/><path fill="#E64438" id="HY" d="m215 244 3 6 1-7-4 1ZM242 244c0 2.561-3 5.324-3 9-.926 0-2-8.751-2-10l5 1Z"/><path fill="#8599CC" id="PAL" d="m309 244-2 1 2-2v1Z"/><path fill="#97D6F9" id="STR" d="m310 243-1 1v-1h1ZM336 243h3c0 1.486-3 1.486-3 0Z"/><path fill="#8AD987" id="CTXsp" d="m344 246-1 1v-1h1ZM114 247v1l-1-1h1ZM343 248l-1 1 1-1ZM341 267l-4 2c0-2.618 2.514-7.472 1-10.5-.864-1.728-6-4.665-6-5.5 1.283 0 8-1.931 8-3l2-1c0 3.253-3.888 7.725-2 11.5l2 4.5v1l-1 1ZM114 265l5 4c0-5.285-3.151-15 6-15l-8-4h-2c0 2.671 2 5.254 2 7.5l-3 7.5Z"/><path fill="#97D6F9" id="STR" d="M159 283h2c4.466 0 5-5.932 5-10l-1-7.5-9-9-3-3.5 1 9c3.779 0 14.683 5.134 11 12.5l-6 8.5Z"/><path fill="#84EA80" id="BMAa" d="M336 270c-2.011 0-3.989 1-6 1l-6-1-3-1v-1l-1-1v-6l8-6 4-2c0 .835 5.136 3.772 6 5.5 1.514 3.028-1 7.882-1 10.5l-1 1ZM126 271l-1 1-6-3c0-5.285-3.151-15 6-15h3c0 1.782 6.482 7 8 7l1 3v2l-1 1v1l-3 2-7 1Z"/><path fill="#97D6F9" id="STR" d="M295 283h2c0-2.792-3.705-3.911-5-6.5-3.938-7.877 4.926-14.5 11-14.5v-8c-3.575 0-13 14.886-13 19 0 2.882.795 10 5 10ZM138 264h1l1-1h4c0-1.059-6.743-2-8-2l1 3h1Z"/><path fill="#80BFE1" id="MEA" d="m153 283 2.5 2c1.619-.809 1.471-2 3.5-2l6-8.5c3.683-7.366-7.221-12.5-11-12.5l-1 1-2 4 1 4 1 5v7ZM297 283c2.488 0 3.99 1 6 1l1-7v-5l1-1v-4l-1-4-1-1c-6.074 0-14.938 6.623-11 14.5 1.295 2.589 5 3.708 5 6.5Z"/><path fill="#97D6F9" id="STR" d="m318 264 2 1v-4c-.969 0-7 1.147-7 2l5 1Z"/><path fill="#99D2BD" id="OLF" d="m140 263-1 1 1-1Z"/><path fill="#94E4C7" id="NLOT3" d="M135 272v2c.276 0 4.357-3.429 5.5-4 4.693-2.346 9.082 1 11.5 1l-1-4-4-4h-7l-1 1h-1l-1 1v1l-1 1v1l-1 4Z"/><path fill="#97D6F9" id="STR" d="m153 263-2 4-4-4h6ZM309 263l-4 4-1-4h5Z"/><path fill="#94E4C7" id="NLOT3" d="M321 272v1l-4.5-3c-3.48-1.74-8.313 0-11.5 0v-3l4-4h4l5 1 2 2v1l1 1v4Z"/><path fill="#99D2BD" id="OLF" d="m138 264-1 1v-1h1ZM320 265v1l-2-2 2 1ZM116 273c1.572 0 7-1.865 7 2l2-3-6-3-5-4c0 2.885 2 4.697 2 8Z"/><path fill="#FF5545" id="SCH" d="M223 281h2l1-1 1-1v-2l-2-10-3.5-2-4.5 6-2 3.5 1 4.5 3 2h4ZM235 281h2l3-2v-8c-2.563 0-1.938-4.219-3.5-5-2.769-1.384-2.649 1-5.5 1 0 4.058-2 6.292-2 10v1l1 2 1 1h4Z"/><path fill="#99D2BD" id="OLF" d="m343 265-1 1v-1h1ZM137 266l-1 1 1-1Z"/><path fill="#FE5B50" id="SO" d="M177 273h13c0-4.64-16-11.701-16-2l1 2h2ZM280 273h2l1-3c0-7.208-17-3.127-17 3h14Z"/><path fill="#99D2BD" id="OLF" d="m342 266-1 1 1-1ZM320 267l1 1-1-1ZM341 273l-4.5-1-3.5 2-3-3c2.011 0 3.989-1 6-1l1-1 4-2v6ZM133 270l2 2 1-4-3 2Z"/><path fill="#95E3C8" id="NLOT2" d="m139 281 1 1c3.962 0 7.256-.378 10.5-2l2.5-4-1-5c-2.418 0-6.807-3.346-11.5-1-1.143.571-5.224 4-5.5 4 0 2.591 1.238 7 4 7ZM318 281l-1 1-9.5-1-3.5-4v-5l1-1v-1c3.187 0 8.02-1.74 11.5 0l4.5 3c0 2.185.119 8-3 8Z"/><path fill="#99D2BD" id="OLF" d="m324 270-3 2v-3l3 1Z"/><path fill="#8AD987" id="CTXsp" d="m337 269-1 1 1-1Z"/><path fill="#60E5B7" id="COAa" d="m133 293-4 1c0-1.473-1.952-1-3-1 0-5.903-3-11.297-3-18l2-3 1-1 7-1 2 2v2c0 2.591 1.238 7 4 7v1l-1 8-1 1v1l-4 1ZM327 294h1l2-1c0-3.71 3-11.646 3-19l-3-3-6-1-3 2v1c0 2.185.119 8-3 8l-1 1c0 3.638 2 5.929 2 9 1.624 0 2.75 2 5 2h2l1 1Z"/><path fill="#99D2BD" id="OLF" d="m126 271-1 1 1-1Z"/><path fill="#94E4C7" id="NLOT3" d="m305 271-1 1 1-1Z"/><path fill="#59D9AA" id="PAA" d="M116 299h1c0-2.794 9-1.344 9-6 0-5.903-3-11.297-3-18 0-3.865-5.428-2-7-2 0 4.726-4.881 13.263-7 17.5l-6 6.5h1l1 1h1l1 1h9Z"/><path fill="#CAC7CB" id="fiber tracts" d="m177 274 9.5-1c2.225 1.112 4.846 2 7.5 2l-4-2h-13v1ZM263 275c2.907 0 7.422-3.539 10.5-2 1.222.611 6.481 3 7.5 3l-1-3h-14c-1.238 0-3 .423-3 2Z"/><path fill="#59D9AA" id="PAA" d="M345 299h4l2-1h1l1-1c0-1.954-12-16.513-12-24l-4.5-1-3.5 2c0 7.354-3 15.29-3 19 .274 0 9.071 6 15 6Z"/><path fill="#CACCCB" id="opt" d="M199 278v9c-8.67 0-22-5.319-22-13l9.5-1c2.225 1.112 4.846 2 7.5 2h1l4 3ZM257 287h8c0-2.109 2.535-2 4-2 0-2.832 6.719-4.11 8.5-5l3.5-3v-1c-1.019 0-6.278-2.389-7.5-3-3.078-1.539-7.593 2-10.5 2h-2l-1 1h-1l-2 2v9Z"/><path fill="#CAC7CB" id="fiber tracts" d="M228 284c-10.11 0-19.601 3-29 3-8.67 0-22-5.319-22-13h-2c0 12.681 28.249 18.125 38.5 13 2.513-1.256 14.5 1.392 14.5-3Z"/><path fill="#F2483B" id="RCH" d="M204 277h1c12.442 0-1-6.2-1 0ZM251 277h2c0-5.914-13.031 0-2 0Z"/><path fill="#CAC7CB" id="fiber tracts" d="m199 278 12 1c0-2.592-6 .592-6-2h-1c-3.638 0-5.929-2-9-2l4 3ZM261 275l-1 1 1-1Z"/><path fill="#95E4C7" id="NLOT1" d="M137 291v1c0 7.312 16 .112 16-9v-7l-2.5 4c-3.244 1.622-6.538 2-10.5 2h-1l-1 8-1 1Z"/><path fill="#CAC7CB" id="fiber tracts" d="m257 278-11 1c0-2.496 5 .496 5-2h2l6-1-2 2Z"/><path fill="#E64438" id="HY" d="M227 279h1v-2h-1v2Z"/><path fill="#CAC7CB" id="fiber tracts" d="m281 277-3.5 3c-1.781.89-8.5 2.168-8.5 5 4.061 0 12-3.195 12-8Z"/><path fill="#95E4C7" id="NLOT1" d="M303 284c0 6.101 16 16.536 16 7 0-3.071-2-5.362-2-9l-9.5-1-3.5-4-1 7Z"/><path fill="#CBCACC" id="och" d="M229 284c9.731 0 18.917 3 28 3v-9l-11 1h-1c0 1.434-6.448 2-8 2h-2c0 1.399-2 1.399-2 0h-2l-1-1h-1c0 1.93-1.161 0-2 0l-1 1h-3c0 1.399-2 1.399-2 0h-2c-1.593 0-7-.337-7-2h-1l-12-1v9c9.399 0 18.89-3 29-3h1Z"/><path fill="#E64438" id="HY" d="M229 280h1l-1-2v2Z"/><path fill="#CAC7CB" id="fiber tracts" d="m216 279 3 2c-1.593 0-7-.337-7-2h4Z"/><path fill="#E64438" id="HY" d="M226 280h1v-1l-1 1Z"/><path fill="#CAC7CB" id="fiber tracts" d="M227 280c.839 0 2 1.93 2 0v-1h-2v1ZM245 279c0 1.434-6.448 2-8 2l3-2h5Z"/><path fill="#E64438" id="HY" d="M225 281h1v-1l-1 1Z"/><path fill="#CAC7CB" id="fiber tracts" d="m227 280-1 1v-1h1ZM230 280l1 1-1-1Z"/><path fill="#99D2BD" id="OLF" d="M139 282h1l-1-1v1Z"/><path fill="#CAC7CB" id="fiber tracts" d="M221 281h2c0 1.399-2 1.399-2 0ZM233 281h2c0 1.399-2 1.399-2 0Z"/><path fill="#99D2BD" id="OLF" d="m318 281-1 1 1-1ZM133 293v3c8.055 0 28-4.126 28-13h-2c-2.029 0-1.881 1.191-3.5 2l-2.5-2c0 9.112-16 16.312-16 9l-4 1ZM324 293c0 1.674 1 2.326 1 4-7.507 0-30-5.773-30-14h2c2.488 0 3.99 1 6 1 0 6.101 16 16.536 16 7 1.624 0 2.75 2 5 2Z"/><path fill="#CAC7CB" id="fiber tracts" d="M257 287h8c0 2.048-6.648 2-8.5 2-6.744 0-16.293-.147-22-3-1.538-.769-5.5 1.226-5.5-2 9.731 0 18.917 3 28 3ZM269 285c-1.465 0-4-.109-4 2l4-2Z"/><path fill="#99D2BD" id="OLF" d="m138 290-1 1 1-1ZM127 297c0 2.342-7.951 2-10 2 0-2.794 9-1.344 9-6 1.048 0 3-.473 3 1-1.155 0-4.78 3-2 3Z"/><path fill="#CAC8C7" id="lot" d="M133 296c-1.564 0-3.876 1-6 1-2.78 0 .845-3 2-3l4-1v3ZM325 297h4c2.999 0-1-2.736-1-3h-1l-1-1h-2c0 1.674 1 2.326 1 4Z"/><path fill="#99D2BD" id="OLF" d="m326 293 1 1-1-1ZM329 297c0 2.142 16 3.585 16 2-5.929 0-14.726-6-15-6l-2 1c0 .264 3.999 3 1 3ZM104 297l1 1-1-1ZM353 297l-1 1 1-1ZM106 298l1 1-1-1ZM351 298l-2 1 2-1ZM111 299h5c0 1.566-5 1.566-5 0Z"/></svg>