<svg xmlns="http://www.w3.org/2000/svg" viewBox="0 0 456 320"><path fill="#1E9C59" id="MOs1" d="M128 83c0 2.124 1 4.436 1 6l14.5-10c13.14-6.57 28.249-9.124 40-15 5.196-2.598 18.196-1.402 23 1l10.5 9 3-3c0-6.025-9.265-9.882-13.5-12-18.244-9.122-45.089 4.544-60 12-2.369 1.184-18.5 9.976-18.5 12ZM327 89h1c0-1.234-.643-5 1-5 0-3.27-16.278-11.39-19.5-13-14.831-7.415-40.834-21.083-59-12-4.343 2.172-14.5 6.361-14.5 13 1.658 0 3 1.46 3 3h1c0-6.812 13.687-9.094 17.5-11 10.202-5.1 42.748 8.374 52 13L327 89Z"/><path fill="#1E9D58" id="MOs2/3" d="M129 90c0 6.143 2 10.348 2 17l11.5-10 27-16c5.221-2.61 25.299-10.35 32-7l9.5 5c3.444 0 3.129-4 6-4v-1l-10.5-9c-4.804-2.402-17.804-3.598-23-1-11.751 5.876-26.86 8.43-40 15L129 89v1ZM327 89c0 5.48.459 9.582-2 14.5-.711 1.421 1.88 3.5 0 3.5l-8.5-8-22-14c-6.89-3.445-30.329-15.336-39-11-2.251 1.126-8.234 5-10.5 5l-5-4c0-6.812 13.687-9.094 17.5-11 10.202-5.1 42.748 8.374 52 13L327 89Z"/><path fill="#3EA665" id="ACAd1" d="M222 93h12c0-6.592 5-13.295 5-18 0-1.54-1.342-3-3-3l-7 9.5-.5 3.5-1.5-3.5-7-10.5-3 3v1c0 2.97 5 10.317 5 18Z"/><path fill="#1F9D58" id="MOs5" d="M139 145c-2.747 0-4.56 4-8 4l-2-6.5c0-9.099 2-20.985 2-33.5v-2l11.5-10 27-16c5.221-2.61 25.299-10.35 32-7l9.5 5v2c-2.212 0-17 16.862-17 19h-1c0-1.714-5.594-1-7-1-5.213 0-12.905 4.702-17.5 7-17.067 8.534-29.5 16.934-29.5 38v1ZM318 145c0 1.429 5.478 4 7 4 1.888 0 2-8.072 2-10 0-11.711-2-20.936-2-31v-1l-8.5-8-22-14c-6.89-3.445-30.329-15.336-39-11-2.251 1.126-8.234 5-10.5 5v1c2.399 0 17 18.132 17 20h1c0-1.714 5.594-1 7-1l17.5 6c16.789 8.394 30.5 19.671 30.5 40Z"/><path fill="#40A565" id="ACAd2/3" d="m222 93-6 2c0-2.67-1.104-14-5-14v-2c3.444 0 3.129-4 6-4 0 2.97 5 10.317 5 18ZM240 95h1c0-6.513 4-13.183 4-15v-1l-5-4h-1c0 4.705-5 11.408-5 18l6 2Z"/><path fill="#3EA566" id="ACAd5" d="M258 103h1l3-3c0-1.868-14.601-20-17-20 0 1.817-4 8.487-4 15 5.393 0 13.57 8 17 8ZM194 100l4 3c6.028 0 11.156-8 18-8 0-2.67-1.104-14-5-14-2.212 0-17 16.862-17 19Z"/><path fill="#1E9D5A" id="MOp1" d="m104 166-5 2c0-11.208-9.755-28.99-3-42.5l11-20 4-4c1.209-2.417 14.447-18.5 17-18.5 0 2.124 1 4.436 1 6v1c-3.711 0-10.509 8.517-12 11.5l-6 7c-5.778 11.557-12 19.353-12 33.5 0 5.49.676 12.852 3 17.5.492.984.851 5.5 2 5.5v1ZM353 166l4 2c0-4.667 8.259-25.982 6-30.5-2.408-4.817-1.604-11.208-4-16l-14-21c-1.9-3.8-11.132-16.5-16-16.5-1.643 0-1 3.766-1 5l9 8.5c4.946 9.892 13.107 18.215 18 28 6.71 13.42-2 28.206-2 40.5Z"/><path fill="#1F9C58" id="MOp2/3" d="M352 166h1c0-12.294 8.71-27.08 2-40.5-4.893-9.785-13.054-18.108-18-28l-9-8.5h-1c0 5.48.459 9.582-2 14.5-.711 1.421 1.88 3.5 0 3.5v1c2.852 0 7.042 7.584 8 9.5 3.223 6.446 14.225 24.549 10 33-.805 1.61-2 5.802-2 7.5v1c1.037 0 11 5.447 11 7ZM115 159c-4.021 0-6.938 6-11 6-1.149 0-1.508-4.516-2-5.5-2.324-4.648-3-12.01-3-17.5 0-14.147 6.222-21.943 12-33.5l6-7c1.491-2.983 8.289-11.5 12-11.5 0 6.143 2 10.348 2 17v2c-3.124 0-6.718 6.936-8 9.5-10.489 20.979-8 17.42-8 40.5Z"/><path fill="#2FA74F" id="PL2/3" d="M219 131h4c0-13.335-1-25.104-1-38l-6 2c0 11.006 3 26.026 3 36Z"/><path fill="#2FA750" id="PL1" d="M223 131h10c0-11.891 1-25.433 1-38h-12c0 12.896 1 24.665 1 38Z"/><path fill="#2FA74F" id="PL2/3" d="M237 131h1c0-11.969 2-23.623 2-36l-6-2c0 12.567-1 26.109-1 38h4Z"/><path fill="#2EA84F" id="PL5" d="M204 131h15c0-9.974-3-24.994-3-36-6.844 0-11.972 8-18 8v1l3 5.5c.195.389 3 19.481 3 20.5v1ZM238 131h15v-1c0-3.463.707-15.914 2-18.5l3-8.5c-3.43 0-11.607-8-17-8h-1c0 12.377-2 24.031-2 36Z"/><path fill="#1D9C5A" id="MOs6a" d="M163 133c-12.966 0-17.588 11-24 11 0-21.066 12.433-29.466 29.5-38 4.595-2.298 12.287-7 17.5-7 1.406 0 7-.714 7 1l-4 9c-1.557 0-6 5.116-6 7-5.446 0-9.027 2.763-13.5 5-.765.383-4.218 6-1.5 6l-5 6ZM317 145h1c0-20.329-13.711-31.606-30.5-40L270 99c-1.406 0-7-.714-7 1 0 3.482 5 5.71 5 9 1.343 0 5 5.135 5 7 6.307 0 16 3.741 16 11 0 2.773 4 3.67 4 6l4.5-1c2.268 1.134 19.5 11.725 19.5 13Z"/><path fill="#3FA664" id="ACAd6a" d="M198 104c-3.347 0-5.288 5-9 5l4-9h1l4 3v1ZM259 103c0 3.048 5.993 6 9 6 0-3.29-5-5.518-5-9h-1l-3 3Z"/><path fill="#2FA850" id="PL6a" d="M270 120c-4.828 0-11.012 10-17 10 0-3.463.707-15.914 2-18.5l3-8.5h1c0 3.048 5.993 6 9 6 1.343 0 5 5.135 5 7l-3 4ZM203 130h1c0-1.019-2.805-20.111-3-20.5l-3-5.5c-3.347 0-5.288 5-9 5-1.557 0-6 5.116-6 7l3 3c3.36 0 11.665 11 17 11Z"/><path fill="#1E9C5A" id="MOp5" d="m325 149 3.5 2c3.706 1.853 8.193 7 12.5 7 0-1.698 1.195-5.89 2-7.5 4.225-8.451-6.777-26.554-10-33-.958-1.916-5.148-9.5-8-9.5 0 10.064 2 19.289 2 31 0 1.928-.112 10-2 10ZM131 149c0 2.702-11.33 6.915-13.5 8l-2.5 2c0-23.08-2.489-19.521 8-40.5 1.282-2.564 4.876-9.5 8-9.5 0 12.515-2 24.401-2 33.5l2 6.5Z"/><path fill="#268E44" id="FRP6a" d="M181 121c1.235 0 5-.643 5 1 1.514 0 0-1.762 0-3l-3-3c-5.446 0-9.027 2.763-13.5 5-.765.383-4.218 6-1.5 6l13-6ZM276 121l13 6c0-7.259-9.693-11-16-11l-3 4 1 1h5Z"/><path fill="#22885E" id="ORBm6a" d="M205 136c0 5.536 1.958 12-5 12 0-5.795-14-20.893-14-26 1.514 0 0-1.762 0-3 3.36 0 11.665 11 17 11l1 2v1l1 2v1ZM256 148h1c0-6.848 14-21.771 14-27l-1-1c-4.828 0-11.012 10-17 10v1l-1 4c0 5.141-4.29 13 4 13Z"/><path fill="#24895D" id="ORBl6a" d="M151 155v2c8.717 0 16.626-16 28-16 0-4.267-2.042-11.415 0-15.5l2-4.5-13 6-5 6-8 15.5-3 4.5-1 1v1Z"/><path fill="#238A5C" id="ORBvl6a" d="M180 141c7.443 0 12.802 7 20 7 0-5.795-14-20.893-14-26 0-1.643-3.765-1-5-1l-2 4.5c-2.042 4.085 0 11.233 0 15.5h1ZM276 141h1l1-10.5c-1.094-2.189-2-7.093-2-9.5h-5c0 5.229-14 20.152-14 27 6.51 0 12.077-7 19-7Z"/><path fill="#24895D" id="ORBl6a" d="m305 155 1 2c-9.819 0-16.539-16-29-16l1-10.5c-1.094-2.189-2-7.093-2-9.5l13 6c0 2.773 4 3.67 4 6 0 4.807 12 15.914 12 22Z"/><path fill="#58B362" id="ILA6a" d="M204 131v1l-1-2h1v1Z"/><path fill="#59B262" id="ILA5" d="M205 136c3.974 0 9.59 20 15 20l-1-25h-15v2l1 2v1Z"/><path fill="#59B362" id="ILA2/3" d="M220 157c2.518 0 2.334 3 5 3 0-10.412-2-18.784-2-29h-4l1 25v1Z"/><path fill="#59B263" id="ILA1" d="M225 160h7v-1l1-28h-10c0 10.216 2 18.588 2 29Z"/><path fill="#59B362" id="ILA2/3" d="M237 157c-2.523 0-1.959 2-5 2l1-28h4v26Z"/><path fill="#59B262" id="ILA5" d="M252 135c-2.291 0-12.048 21-15 21v-25h16l-1 4Z"/><path fill="#209666" id="AId6a" d="m151 155-2 2c-7.039 0-10-5.534-10-12v-1c6.412 0 11.034-11 24-11l-8 15.5-3 4.5-1 1v1ZM307 157h1c7.187 0 9-5.554 9-12 0-1.275-17.232-11.866-19.5-13l-4.5 1c0 4.807 12 15.914 12 22l2 2Z"/><path fill="#23885E" id="ORBm5" d="m204 133 1 2-1-2ZM249 172v1c-10.206 0-12-6.883-12-16v-1c2.952 0 12.709-21 15-21 0 5.141-4.29 13 4 13 0 6.171-7 14.812-7 24ZM220 157c0 7.958-2.758 16-12 16 0-7.759-8-20.676-8-25 6.958 0 5-6.464 5-12 3.974 0 9.59 20 15 20v1Z"/><path fill="#228A5D" id="ORBl5" d="M145 181h1l10.5-8c11.648-5.824 17.153-14 31.5-14 0-6.959-8-10.949-8-18h-1c-11.374 0-19.283 16-28 16h-1l-1 1c0 4.706-3.948 11.395-6 15.5l2 7.5Z"/><path fill="#23885C" id="ORBvl5" d="M188 160c7.139 0 12.729 13 20 13 0-7.759-8-20.676-8-25-7.198 0-12.557-7-20-7 0 7.051 8 11.041 8 18v1ZM268 160c-5.236 0-12.406 12-19 12 0-9.188 7-17.829 7-24h1c6.51 0 12.077-7 19-7 0 5.624-7 11.569-7 18l-1 1Z"/><path fill="#228A5D" id="ORBl5" d="M310 181h1c0-2.77 3.78-5.94 2-9.5-2.142-4.284-6-9.45-6-14.5h-1c-9.819 0-16.539-16-29-16h-1c0 5.624-7 11.569-7 18 15.647 0 18.498 7.999 30.5 14 2.298 1.149 10.5 5.376 10.5 8Z"/><path fill="#209665" id="AId5" d="M126 185h1c3.347 0 20.368-27 22-27v-1c-7.039 0-10-5.534-10-12-2.747 0-4.56 4-8 4 0 2.702-11.33 6.915-13.5 8l-2.5 2c0 5.764 11 24.9 11 26ZM329 185h1l5-6.5c2.522-5.044 6-13.664 6-19.5v-1c-4.307 0-8.794-5.147-12.5-7l-3.5-2c-1.522 0-7-2.571-7-4h-1c0 6.446-1.813 12-9 12 0 4.951 12.429 16.359 15 21.5l6 6.5Z"/><path fill="#1F9866" id="AIv6a" d="m152 153-1 1 1-1ZM150 157h1v-2l-2 2h1ZM306 157h1l-2-2 1 2Z"/><path fill="#1F9865" id="AIv5" d="m150 157-1 1v-1h1Z"/><path fill="#24885D" id="ORBm2/3" d="M209 181c3.222 0 6.277 1 9 1 0-3.374 7-14.284 7-22-2.666 0-2.482-3-5-3 0 7.958-2.758 16-12 16l1 8ZM247 181l-9 1c0-5.218-6-12.493-6-22v-1c3.041 0 2.477-2 5-2 0 9.117 1.794 16 12 16 0 2.747-2 4.56-2 8Z"/><path fill="#1F9865" id="AIv5" d="m311 181 2.5 2c1.14.57 15.5 8.51 15.5 2l-6-6.5c-2.571-5.141-15-16.549-15-21.5h-1c0 5.05 3.858 10.216 6 14.5 1.78 3.56-2 6.73-2 9.5ZM145 181c0 4.106-18 9.01-18 4 3.347 0 20.368-27 22-27 0 4.706-3.948 11.395-6 15.5l2 7.5Z"/><path fill="#209765" id="AId2/3" d="M126 185c0 1.739-7.568 8-9 8 0-4.539-13-20.415-13-27v-1c4.062 0 6.979-6 11-6 0 5.764 11 24.9 11 26Z"/><path fill="#238A5E" id="ORBl2/3" d="m146 181 2 3c4.125 0 8.114-6 14-6 2.097 0 3.71-2.105 5.5-3l12.5-1 9 3 2-9.5c-1.167-2.333-3-4.728-3-7.5v-1c-14.347 0-19.852 8.176-31.5 14l-10.5 8Z"/><path fill="#228A5D" id="ORBl5" d="m269 159-1 1 1-1Z"/><path fill="#238A5E" id="ORBl2/3" d="m310 181-2 3c-1.419 0-13-8.977-13-6l-9.5-4H276l-9 3-1-10.5c1.07-2.14 2-3.887 2-6.5l1-1c15.647 0 18.498 7.999 30.5 14 2.298 1.149 10.5 5.376 10.5 8Z"/><path fill="#209765" id="AId2/3" d="M339 193h1c0-7.674 12-18.374 12-27 0-1.553-9.963-7-11-7 0 5.836-3.478 14.456-6 19.5l-5 6.5 9 8Z"/><path fill="#248A5D" id="ORBvl2/3" d="m200 179 9 2-1-8c-7.271 0-12.861-13-20-13 0 2.772 1.833 5.167 3 7.5l-2 9.5c3.982 0 6.704 2 11 2Z"/><path fill="#23895D" id="ORBm1" d="m229 180 9 2c0-5.218-6-12.493-6-22h-7c0 7.716-7 18.626-7 22l9-2c0-1.048-.473-3 1-3 0-2.212 1-2.212 1 0v3Z"/><path fill="#248A5D" id="ORBvl2/3" d="m257 179-10 2c0-3.44 2-5.253 2-8v-1c6.594 0 13.764-12 19-12 0 2.613-.93 4.36-2 6.5l1 10.5-10 2Z"/><path fill="#209764" id="AId1" d="m117 193-5 2-3-5.5c-2.335-4.67-10-16.718-10-21.5l5-2c0 6.585 13 22.461 13 27ZM340 193c1.624 0 2.75 2 5 2 0-7.596 12-18.479 12-27l-4-2h-1c0 8.626-12 19.326-12 27Z"/><path fill="#6ACAB9" id="PIR" d="M134 224c13.52 0 24.672 16 31 16 5.924 0 4-13.347 4-17 0-6.185-10.933-15.635-8-21.5 5.77-11.539 19-11.925 19-27.5l-12.5 1c-1.79.895-3.403 3-5.5 3l-13 9-5.5 4c-4.94 2.47-14.488 14-19.5 14 0 7.319-.97 19 10 19Z"/><path fill="#99D2BD" id="OLF" d="M181 213c-2.942 0-7.416 10-12 10 0-6.185-10.933-15.635-8-21.5 5.77-11.539 19-11.925 19-27.5l9 3c3.982 0 6.704 2 11 2 0 3.543 3 6.374 3 9-4.044 0-14-.593-14 7-13.374 0-8 10.988-8 18ZM275 213l12 11c1.381 0 1.413-6.327 2-7.5 2.179-4.358 9.141-9.719 6-16-5.418-10.836-19-12.799-19-26.5l-9 3-10 2-2 8c4.39 0 14 3.302 14 9 11.881 0 6 11.124 6 17Z"/><path fill="#6ACAB9" id="PIR" d="M323 224c-8.441 0-12.627 3.564-19.5 7-4.056 2.028-7.786 9-12.5 9 0-.656-3.319-4.138-4-5.5V224c1.381 0 1.413-6.327 2-7.5 2.179-4.358 9.141-9.719 6-16-5.418-10.836-19-12.799-19-26.5h9.5l9.5 4 12 9c5.662 0 18.692 18 25 18l2 6.5c0 4.338-6.238 12.5-11 12.5Z"/><path fill="#238A5D" id="ORBl1" d="m148 185 1 2 13-9c-5.886 0-9.875 6-14 6v1Z"/><path fill="#99D2BD" id="OLF" d="M230 190c0 1.819-1 4.591-1 7l-.5 5c-.898 0-1.5-9.602-1.5-11v-11c0-1.048-.473-3 1-3h1v3c0 1.657-.763 10 1 10Z"/><path fill="#238A5D" id="ORBl1" d="m308 185-1 2-12-9c0-2.977 11.581 6 13 6v1Z"/><path fill="#A3DAA3" id="DP" d="M209 191h18v-11l-9 2c-2.723 0-5.778-1-9-1l-9-2c0 3.543 3 6.374 3 9l3 1 3 2ZM247 191h1l1-1 1-1h2l1-1 2-1 2-8-10 2-9 1-9-2c0 1.657-.763 10 1 10 2.241 0 17-.804 17 1Z"/><path fill="#219764" id="AIv2/3" d="m148 185-5.5 4c-7.851 3.926-12.955 12.523-22 8-.865-.433-3.5-2.479-3.5-4 1.432 0 9-6.261 9-8h1c0 5.01 18 .106 18-4h1l2 3v1ZM330 185l9 8c0 3.525-5.862 7.819-9.5 6-4.718-2.359-18.178-14-21.5-14v-1l2-3h1l2.5 2c1.14.57 15.5 8.51 15.5 2h1Z"/><path fill="#209864" id="AIv1" d="M112 195c0 5.204 7.343 10 12 10 5.012 0 14.56-11.53 19.5-14l5.5-4-1-2-5.5 4c-7.851 3.926-12.955 12.523-22 8-.865-.433-3.5-2.479-3.5-4l-5 2ZM345 195c0 3.924-9.24 10-13 10-6.308 0-19.338-18-25-18l1-2c3.322 0 16.782 11.641 21.5 14 3.638 1.819 9.5-2.475 9.5-6h1c1.624 0 2.75 2 5 2Z"/><path fill="#54BF94" id="AON" d="M265 258h2c2.489 0 20-8.76 20-11 0-3.313 4-4.49 4-7 0-.656-3.319-4.138-4-5.5V224l-12-11c0 2.153-4.983 8.535-7 4.5-1.839-3.678 1-10.096 1-13.5 0-3.148-2.481-8 0-8 0-5.698-9.61-9-14-9l-2 1-1 1h-2l-1 1-1 1v1l-4 9.5c-3.108 6.216-1.137 14.819-8.5 18.5-2.275 1.138-6.685-1.658-8-1-2.649 1.325-6.292 1.354-9 0-1.552-.776-9.5-25.249-9.5-28-1.238 0-3-.423-3-2l-3-1c-4.044 0-14-.593-14 7v18.5c0 1.444-.188 5.5-2.5 5.5-2.818 0-3.787-6-5.5-6-2.942 0-7.416 10-12 10 0 3.653 1.924 17-4 17 0 2.644 4 2.339 4 7 1.743 0 14.891 11 21 11l2-1c0-29.211 54.479-37.542 67-12.5 2.17 4.341 6 8.361 6 13.5Z"/><path fill="#99D2BD" id="OLF" d="m255 187-2 1 2-1ZM253 188l-1 1 1-1ZM206 189l3 2c-1.238 0-3-.423-3-2ZM250 189l-1 1 1-1Z"/><path fill="#61D09F" id="TTd" d="m247 191 1 1-4 9.5c-3.108 6.216-1.137 14.819-8.5 18.5-2.275 1.138-6.685-1.658-8-1-2.649 1.325-6.292 1.354-9 0-1.552-.776-9.5-25.249-9.5-28h18c0 1.398.602 11 1.5 11l.5-5c0-2.409 1-5.181 1-7 2.241 0 17-.804 17 1Z"/><path fill="#99D2BD" id="OLF" d="m249 190-1 1 1-1ZM248 191v1l-1-1h1Z"/><path fill="#CBCBC7" id="aco" d="M189 195c-13.374 0-8 10.988-8 18 1.713 0 2.682 6 5.5 6 2.312 0 2.5-4.056 2.5-5.5V195ZM269 196c11.881 0 6 11.124 6 17 0 2.153-4.983 8.535-7 4.5-1.839-3.678 1-10.096 1-13.5 0-3.148-2.481-8 0-8Z"/><path fill="#CAC8C7" id="lot" d="M165 240c0 2.644 4 2.339 4 7-10.279 0-19.725-11.613-28.5-16-2.272-1.136-6.046-1.592-7.5-4.5l1-2.5c13.52 0 24.672 16 31 16ZM291 240c0 2.51-4 3.687-4 7 5.685 0 36-18.236 36-23-8.441 0-12.627 3.564-19.5 7-4.056 2.028-7.786 9-12.5 9Z"/><path fill="#62CF9E" id="TTv" d="M200 263c7.376 0 16.156-.811 20-8.5l7-10c.383-.766-.316-3.5 1.5-3.5l5 10c1.748.874 2.521 2.541 3.5 4.5 3.472 6.943 12.275 7.5 19 7.5l1-1h2l1-1 5-2v-1c0-5.139-3.83-9.159-6-13.5-12.521-25.042-67-16.711-67 12.5l1 3 6 2 1 1Z"/><path fill="#99D2BD" id="OLF" d="m190 258 3 2-1-3-2 1ZM267 258l-2 1v-1h2ZM260 261l-1 1 1-1ZM199 262l1 1-1-1ZM257 262l-1 1 1-1Z"/></svg>