<svg xmlns="http://www.w3.org/2000/svg" viewBox="0 0 456 320"><path fill="#1E9C59" id="MOs1" d="M140 138c-2.971 0-4.768 3-7 3 0-3.206-4.753-9.994-3-13.5 2.09-4.181.89-9.781 3-14 6.186-12.372 17.908-22.204 30.5-28.5 6.89-3.445 24.026-7.987 32-4 1.754.877 10.5.444 10.5 3l-4 6h-1c-18.897 0-26.241-2.63-43.5 6l-14 13c-3.011 1.506-6.027 17.446-4.5 20.5.703 1.406-1.261 7.5 1 7.5v1ZM317 138l6 3c1.663 0 2-5.407 2-7 0-4.507 2.396-15.104-1.5-19-4.801-4.801-5.086-15.043-13-19-6.288-3.144-11.77-7.885-18-11-5.736-2.868-13.299-2.15-19-5-3.925-1.963-13.918.459-17 2-1.114.557-5.5.41-5.5 2 0 1.417 2.383 6 4 6 5.07 0 21.77-3.365 26.5-1 16.459 8.23 26.294 10.088 35.5 28.5 2.822 5.643 0 13.709 0 19.5v1Z"/><path fill="#2FA750" id="PL1" d="M220 113c1.819 0 4.591 1 7 1 0-8.754-10.403-30-21-30l-4 6c0 .39 6.856 3.356 8 4.5 5.385 5.385 10 10.926 10 18.5ZM237 113l-8 1c0-9.762 10.173-30 22-30 0 1.417 2.383 6 4 6v1c-10.768 0-18 12.41-18 22Z"/><path fill="#1E9D58" id="MOs2/3" d="M140 137c6.327 0 11.426 2 17 2 1.207 0 4-10.634 4-12 0-2.805-5.948-5.604-4-9.5 5.016-10.032 13.745-18.5 26-18.5h1c0-1.58 2.855-1 4-1h8l5-8c-18.897 0-26.241-2.63-43.5 6l-14 13c-3.011 1.506-6.027 17.446-4.5 20.5.703 1.406-1.261 7.5 1 7.5ZM317 137c-6.617 0-12.194 2-18 2 0-4.009-4-7.831-4-12 6.608 0 3.233-12.033 2-14.5-3.876-7.752-15.165-13.5-23-13.5h-1c0-1.58-2.855-1-4-1h-9c0-1.294-3.609-7-5-7v-1c5.07 0 21.77-3.365 26.5-1 16.459 8.23 26.294 10.088 35.5 28.5 2.822 5.643 0 13.709 0 19.5Z"/><path fill="#2FA74F" id="PL2/3" d="M211 111c3.071 0 5.362 2 9 2 0-7.574-4.615-13.115-10-18.5-1.144-1.144-8-4.11-8-4.5h-1l-5 8 1 1h2c6.999 0 12 4.932 12 12ZM245 112l-8 1c0-9.59 7.232-22 18-22 1.391 0 5 5.706 5 7 0 1.473-1.952 1-3 1l-2 1c-6.086 0-10 5.298-10 11v1Z"/><path fill="#268E45" id="FRP2/3" d="M188 98c-1.145 0-4-.58-4 1 1.145 0 4 .58 4-1Z"/><path fill="#258F45" id="FRP5" d="M206 117h1c2.618 0 1.651-3 4-3v-1l-1-2c0-4.981-11-8.441-11-12h-2l-1-1h-8c0 1.58-2.855 1-4 1h-1l-7.5 4c-8.338 4.169-5.855 14 3.5 14h4l6-3c5.792 0 11 3 16 3h1Z"/><path fill="#2EA84F" id="PL5" d="m196 98 1 1-1-1Z"/><path fill="#258F45" id="FRP5" d="M274 117h9.5c3.304-1.652 1.779-11.611-1-13l-8.5-5h-1c-1.145 0-4 .58-4-1h-9c0 1.473-1.952 1-3 1l-2 1-9 11v4l4 2h1c5.429 0 10.879-3 17-3l6 3Z"/><path fill="#268E45" id="FRP2/3" d="M269 98c1.145 0 4-.58 4 1-1.145 0-4 .58-4-1ZM179 117c0 1.23-15.075 10-18 10 0-2.805-5.948-5.604-4-9.5 5.016-10.032 13.745-18.5 26-18.5l-7.5 4c-8.338 4.169-5.855 14 3.5 14Z"/><path fill="#2EA84F" id="PL5" d="M210 111h1c0-7.068-5.001-12-12-12 0 3.559 11 7.019 11 12ZM257 99l-2 1 2-1Z"/><path fill="#268E45" id="FRP2/3" fill-rule="evenodd" d="M283 120c0 1.93 1.93 0 0 0m-7-3c0 1.183 3.57 1.535 4.5 2 4.825 2.412 8.772 8 14.5 8 6.608 0 3.233-12.033 2-14.5-3.876-7.752-15.165-13.5-23-13.5l8.5 5c2.779 1.389 4.304 11.348 1 13H276Z"/><path fill="#2EA84F" id="PL5" d="M245 111h1l9-11c-6.086 0-10 5.298-10 11Z"/><path fill="#23885E" id="ORBm5" d="M211 111v2l-1-2h1Z"/><path fill="#24885D" id="ORBm2/3" d="M206 117h1c0 4.57 4 2.221 4-3v-3c3.071 0 5.362 2 9 2 0 5.805.236 19-7 19 0-4.542-7-10.435-7-15Z"/><path fill="#23885E" id="ORBm5" d="m245 112 1 1v-2h-1v1Z"/><path fill="#24885D" id="ORBm2/3" d="M250 118c0 4.432-6 9.23-6 14-8.221 0-7-12.864-7-19l8-1 1 1v2c-1.683 0-1.183 5-.5 5l4.5-2Z"/><path fill="#23895D" id="ORBm1" d="M216 147c0 4.38 6.234 0 7 0 0-1.927 3.095-5.69 4-7.5 2.773-5.546 0-19.645 0-25.5-2.409 0-5.181-1-7-1 0 5.805.236 19-7 19 0 5.751 3 9.34 3 15ZM233 147l5.5 2 2.5-2c0-1.199-1.028-6.443 0-8.5l3-6.5c-8.221 0-7-12.864-7-19l-8 1v22.5l4 10.5Z"/><path fill="#228A5D" id="ORBl5" d="m183 117 5 2 1-5-6 3Z"/><path fill="#23885C" id="ORBvl5" d="M205 117c0 3.253-14.276 2-17 2l1-5c5.792 0 11 3 16 3Z"/><path fill="#268E45" id="FRP2/3" d="M211 114c-2.349 0-1.382 3-4 3 0 4.57 4 2.221 4-3Z"/><path fill="#23885C" id="ORBvl5" d="M269 118v1c-2.808 0-18 1.287-18-2 5.429 0 10.879-3 17-3 0 1.145-.579 4 1 4Z"/><path fill="#228A5D" id="ORBl5" d="m274 117-5 1c-1.579 0-1-2.855-1-4l6 3Z"/><path fill="#268E45" id="FRP2/3" d="M250 117v1l-4.5 2c-.683 0-1.183-5 .5-5l4 2Z"/><path fill="#238A5E" id="ORBl2/3" d="m157 139-1 7 7.5-7c7.436-3.718 13.505-10 22.5-10l2-10-5-2h-4c0 1.23-15.075 10-18 10 0 1.366-2.793 12-4 12Z"/><path fill="#248A5D" id="ORBvl2/3" d="M186 129h14.5c3.948 1.974 7.714 3 12.5 3 0-4.542-7-10.435-7-15h-1c0 3.253-14.276 2-17 2l-2 10ZM271 129h-15.5c-3.792 1.896-6.868 3-11.5 3 0-4.77 6-9.568 6-14v-1h1c0 3.287 15.192 2 18 2l2 10Z"/><path fill="#238A5E" id="ORBl2/3" d="M299 139c0 2.724 1 3.276 1 6l-7.5-6c-7.226-3.613-12.752-10-21.5-10l-2-10v-1l5-1h2c0 1.183 3.57 1.535 4.5 2 4.825 2.412 8.772 8 14.5 8 0 4.169 4 7.991 4 12Z"/><path fill="#238A5E" id="ORBl2/3" d="M283 120c0 1.93 1.93 0 0 0Z"/><path fill="#238A5D" id="ORBl1" d="M155 162h1c0-4.774 16.602-21 21-21l1-1 2-1h1l2-1h2v-1c0-2.707 1-5.903 1-8-8.995 0-15.064 6.282-22.5 10l-7.5 7v1l-1 1v14Z"/><path fill="#248A5B" id="ORBvl1" d="M192 138c9.164 0 19.177 9 24 9 0-5.66-3-9.249-3-15-4.786 0-8.552-1.026-12.5-3H186c0 2.097-1 5.293-1 8 1.235 0 5-.643 5 1h2ZM271 138h1c0-2.933-1-5.321-1-9h-15.5c-3.792 1.896-6.868 3-11.5 3l-3 6.5c-1.028 2.057 0 7.301 0 8.5.294 0 16.502-7.501 17.5-8 .741-.371 5.5-3.892 5.5-1h3c0-1.535 4-1.535 4 0Z"/><path fill="#238A5D" id="ORBl1" d="M301 163h1c0-5.51-1-9.909-1-16l-1-2-7.5-6c-7.226-3.613-12.752-10-21.5-10 0 3.679 1 6.067 1 9h1l2 1h2c5.028 0 24 18.971 24 24Z"/><path fill="#209765" id="AId2/3" d="m156 147-1 1-4.5 2c-4.401 2.201-10.5-8.982-10.5-12v-1c6.327 0 11.426 2 17 2l-1 7v1Z"/><path fill="#99D2BD" id="OLF" d="M185 138h5c0-1.643-3.765-1-5-1v1ZM226 169h1c0-7.902-4-13.496-4-22-.766 0-7 4.38-7 0-4.823 0-14.836-9-24-9 0 1.054 3 2.931 3 5 14.223 0 31 8.927 31 26ZM233 147l5.5 2 2.5-2c.294 0 16.502-7.501 17.5-8 .741-.371 5.5-3.892 5.5-1 0 1.974-2 3.517-2 6-1.947 0-3.644-3.428-6.5-2l-16 8-6.5 7v-10ZM267 138h4c0-1.535-4-1.535-4 0Z"/><path fill="#209765" id="AId2/3" d="m300 145 1 2c3.535 0 4.07 4.215 8.5 2 2.857-1.429 6.481-11 7.5-11v-1c-6.617 0-12.194 2-18 2 0 2.724 1 3.276 1 6Z"/><path fill="#209764" id="AId1" d="M155 148v14c0 2.388-6.58.46-7.5 0-5.183-2.592-14.5-15.891-14.5-21 2.232 0 4.029-3 7-3 0 3.018 6.099 14.201 10.5 12l4.5-2Z"/><path fill="#99D2BD" id="OLF" d="m183 138-2 1 2-1Z"/><path fill="#9DF0D1" id="AOBgl" d="m193 149-9.5 4c-3.057 1.528-6.516-2-9.5-2 0-1.423-1.978-3.544-1-5.5l4-4.5 1-1 2-1h1l2-1h9c0 1.054 3 2.931 3 5v1l-1 1v2l-1 2ZM264 149l8.5 4c3.379 1.69 6.661-2 9.5-2 0-1.606 2.081-4.339 1-6.5l-6-5.5h-2l-2-1h-9c0 1.974-2 3.517-2 6v2l2 3Z"/><path fill="#99D2BD" id="OLF" d="m273 138 2 1-2-1Z"/><path fill="#209764" id="AId1" d="M301 147c0 6.091 1 10.49 1 16 8.718 0 21-13.643 21-22l-6-3c-1.019 0-4.643 9.571-7.5 11-4.43 2.215-4.965-2-8.5-2Z"/><path fill="#99D2BD" id="OLF" d="m180 139-2 1 2-1ZM297 169l1 11.5c-1.969 3.938-5 18.027-5 22.5l4-7.5c4.744-9.488 4-21.471 4-32.5 0-5.029-18.972-24-24-24l6 5.5c1.081 2.161-1 4.894-1 6.5 4.144 0 3 4.987 3 8 3.547 0 12 5.908 12 10ZM178 140l-1 1 1-1ZM160 169c-1.777 0-1 9.717-1 11.5 0 8.023 2.581 19.161 6 26l4 7.5c-3.196 0-4.962-9.424-6-11.5-7.065-14.129-7-23.534-7-40.5 0-4.774 16.602-21 21-21l-4 4.5c-.978 1.956 1 4.077 1 5.5-5.69 0-1 7.178-1 9-4.431 0-13 1.972-13 9Z"/><path fill="#9AD1BD" id="MOB" d="M185 241c0 3.724 17.607 11 21 11 5.451 0 9.052-7.603 11-11.5 6.66-13.32 9-20.808 9-37v-15c0-1.19-.614-4.5 1-4.5v-11c-1.579 0-1-2.855-1-4 0-17.073-16.777-26-31-26v1l-1 1v4c3.449 0 1 8.535 1 10 2.861 0 4.225 4 1 4l2 10-1 12c0 5.316-2 10.977-2 17 0 5.74-2 11.217-2 16l-1 1-1 2-4 9-1 1v1l-1 1-2 3.5 2 4.5ZM272 240c0 4.55-18.223 12-22 12-5.736 0-8.982-8.464-11-12.5-10.093-20.187-9-30.743-9-54.5v-17c1.643 0 1-3.765 1-5v-1c1.638 0 2-3.576 2-5l6.5-7 16-8c2.856-1.428 4.553 2 6.5 2v5c0 2.69-1 6.675-1 10-2.547 0-2.775 4-1 4l-1 9c0 4.284 1 9.371 1 13 0 6.597 1 13.851 1 21 0 4.824 3 8.915 3 13l1 1v1l4 9 1 1 2 2v7Z"/><path fill="#99D2BD" id="OLF" d="m195 144-1 1 1-1ZM262 149h2l-2-3v3Z"/><path fill="#209764" id="AId1" d="m156 147-1 1 1-1Z"/><path fill="#99D2BD" id="OLF" d="M193 149h1v-2l-1 2Z"/><path fill="#9DEFD2" id="AOBmi" d="m195 159-7.5 3c-4.461 2.231-10.59-2-14.5-2 0-1.822-4.69-9 1-9 2.984 0 6.443 3.528 9.5 2l9.5-4h1c3.449 0 1 8.535 1 10ZM285 159l-2 1c-3.809 0-10.079 4.21-14.5 2l-7.5-3c0-3.325 1-7.31 1-10h2l8.5 4c3.379 1.69 6.661-2 9.5-2 4.144 0 3 4.987 3 8Z"/><path fill="#99D2BD" id="OLF" d="M233 157c-1.638 0-2 3.576-2 5 1.638 0 2-3.576 2-5Z"/><path fill="#CACAC9" id="lotd" d="m160 169 2 1c0-11.674 15.637-6 21-6l12-1h1c3.225 0 1.861-4-1-4l-7.5 3c-4.461 2.231-10.59-2-14.5-2-4.431 0-13 1.972-13 9ZM297 169l-3 1c0-11.504-15.474-6-21-6l-12-1h-1c-1.775 0-1.547-4 1-4l7.5 3c4.421 2.21 10.691-2 14.5-2l2-1c3.547 0 12 5.908 12 10Z"/><path fill="#99D2BD" id="OLF" d="m285 159-2 1 2-1Z"/><path fill="#54BF94" id="AON" d="M186 230h1l4-9c-2.861 0 2.182-13.137 0-17.5-1.489-2.978-8.254-20.123-5.5-21.5l5.5 3h6l1-12-4-4c-1.982 0-11-3.454-11-5-5.363 0-21-5.674-21 6 0 3.928-3.129 12.241-1 16.5 4.523 9.047 7.45 18.899 12 28 1.786 3.572 13 13.508 13 15.5ZM269 230h1c0-1.262 12.614-13.728 14-16.5 3.133-6.267 5.83-12.661 9-19 1.642-3.284 1.334-7.667 3-11 2.145-4.29-2-9.953-2-13.5 0-11.504-15.474-6-21-6 0 1.695-8.829 5-11 5l-3 3c0 4.284 1 9.371 1 13h6c0-2.518 5.635-4.23 7-1.5l-2 4-6 18c-2.619 5.237 4.68 15.5 0 15.5l4 9Z"/><path fill="#95E4C8" id="AOBgr" d="M183 164c0 1.546 9.018 5 11 5 2.962 0 1-4.707 1-6l-12 1Z"/><path fill="#99D2BD" id="OLF" d="m194 169 4 4-2-10h-1c0 1.293 1.962 6-1 6ZM231 163c-1.643 0-1 3.765-1 5 1.643 0 1-3.765 1-5ZM262 169l-3 3 1-9h1c0 1.321-.684 6 1 6Z"/><path fill="#95E4C8" id="AOBgr" d="M273 164c0 1.695-8.829 5-11 5-1.684 0-1-4.679-1-6l12 1Z"/><path fill="#CAC8C7" id="lot" d="m186 232-1 1c-5.448 0-13.477-18-16-18v-1l-4-7.5c-3.419-6.839-6-17.977-6-26 0-1.783-.777-11.5 1-11.5l2 1c0 3.928-3.129 12.241-1 16.5 4.523 9.047 7.45 18.899 12 28 1.786 3.572 13 13.508 13 15.5v2Z"/><path fill="#C7CBCA" id="onl" d="M227 169v4c-1.579 0-1-2.855-1-4h1ZM229 173h1v-4c-1.579 0-1 2.855-1 4Z"/><path fill="#CAC8C7" id="lot" d="m270 231 2 2c4.863 0 12.669-18 15-18l1-2 1-1v-1c0-1.238.423-3 2-3v-1l2-4c0-4.473 3.031-18.562 5-22.5l-1-11.5-3 1c0 3.547 4.145 9.21 2 13.5-1.666 3.333-1.358 7.716-3 11-3.17 6.339-5.867 12.733-9 19-1.386 2.772-14 15.238-14 16.5v1Z"/><path fill="#99D2BD" id="OLF" d="M229 185h1v-12h-1v12Z"/><path fill="#CBCBC7" id="aco" d="m192 219-1 2c-2.861 0 2.182-13.137 0-17.5-1.489-2.978-8.254-20.123-5.5-21.5l5.5 3c0 2.594 1.82 17 4 17 0 5.74-2 11.217-2 16l-1 1ZM265 220v1c4.68 0-2.619-10.263 0-15.5l6-18 2-4c-1.365-2.73-7-1.018-7 1.5 0 4.455-2.056 11.613-4 15.5-.619 1.238 1.144 5.5-1 5.5 0 4.824 3 8.915 3 13l1 1Z"/><path fill="#C7CBCA" id="onl" d="M227 184c-1.614 0-1 3.31-1 4.5v15c0 16.192-2.34 23.68-9 37-1.948 3.897-5.549 11.5-11 11.5 0 2.27 8.883 1.808 10.5 1 5.033-2.516 6.245-7.99 8.5-12.5v-8c4.963-9.927 2-36.02 2-48.5Z"/><path fill="#99D2BD" id="OLF" d="M197 185c0 5.316-2 10.977-2 17-2.18 0-4-14.406-4-17h6Z"/><path fill="#C7CBCA" id="onl" d="M230 222c0 9.229 1.153 18.806 5 26.5 1.967 3.934 8.293 6.103 11.5 4.5 1.046-.523 3.5.951 3.5-1-5.736 0-8.982-8.464-11-12.5-10.093-20.187-9-30.743-9-54.5h-1v36l1 1Z"/><path fill="#99D2BD" id="OLF" d="M266 185c0 4.455-2.056 11.613-4 15.5-.619 1.238 1.144 5.5-1 5.5 0-7.149-1-14.403-1-21h6ZM293 203l-2 4c2.109 0 2-2.535 2-4ZM291 208c-1.577 0-2 1.762-2 3 1.577 0 2-1.762 2-3ZM289 212l-1 1 1-1ZM288 213l-1 2 1-2ZM185 233l-2 3.5 2 4.5c-1.697 0-16-22.92-16-26 2.523 0 10.552 18 16 18ZM272 233v7c2.32 0 15-21.983 15-25-2.331 0-10.137 18-15 18Z"/><path fill="#54BF94" id="AON" d="m193 218-1 1 1-1ZM192 219l-1 2 1-2ZM264 219l1 1-1-1Z"/><path fill="#99D2BD" id="OLF" d="m229 221 1 1-1-1ZM187 230l-1 1v-1h1ZM270 230v1l-1-1h1ZM186 232l-1 1 1-1Z"/></svg>