<svg xmlns="http://www.w3.org/2000/svg" viewBox="0 0 456 320"><path fill="#99D2BD" id="OLF" d="M222 182c1.594 0 1.926 11 5 11v-60l-1.5 3c-1.575 0-4.62-8-.5-8 0-2.509-9.491-6.996-11.5-8-12.014-6.007-22.277-.362-33 5-2.287 1.144-11.5 5.452-11.5 9 0 3.067-.765 4.029-2 6.5-3.407 6.815 1.3 31.6 4 37 1.031 2.063 1.717 11.5 5 11.5 0-10.439-12.151-24.198-7-34.5 1.068-2.135 13.419-9.54 15.5-8.5 1.338.669-.629 10.315 2 9l2.5-3.5 6-6c2.207-4.414-4.699-10.9 6.5-16.5 4.75-2.375 8.364-2.318 13 0 19.206 9.603 7.5 35.929 7.5 53ZM233 135c2.051 0 11.066-11.217 17.5-8 3.688 1.844 10.329 6.158 12.5 10.5l-2 7 8.5 10.5c4.11 2.055.907-8.453 2-9 3.365-1.682 5.673 2.836 8 4l7.5 3.5c5.662 11.324-6 23.326-6 34.5 3.113 0 3.078-7.656 4-9.5 5.104-10.208 4-19.621 4-31 0-4.613-.116-7.233-2-11-.44-.879-.028-2.5 1-2.5 0-2.489-6.782-6.141-8.5-7-13.3-6.65-23.268-13.366-38-6-1.735.867-9.5 4.813-9.5 7 1.714 0 1 5.594 1 7Z"/><path fill="#9AD1BD" id="MOB" d="m177 194 1 1c0 9.409 6.888 25.694 15.5 30 12.774 6.387 26.5-22.376 26.5-32l1-1c0-3.51 1-7.022 1-10 0-17.071 11.706-43.397-7.5-53-4.636-2.318-8.25-2.375-13 0-11.199 5.6-4.293 12.086-6.5 16.5l-6 6-2.5 3.5c-2.629 1.315-.662-8.331-2-9-2.081-1.04-14.432 6.365-15.5 8.5-5.151 10.302 7 24.061 7 34.5v1l1 1v3ZM279 195l-1 1-3 9.5c-2.372 4.744-1.632 14.566-7.5 17.5-18.549 9.275-31.5-17.558-31.5-33l-1-1v-6c0-5.591-1.515-16.531-4-21.5-3.601-7.201 2-19.798 2-26.5 2.051 0 11.066-11.217 17.5-8 3.688 1.844 10.329 6.158 12.5 10.5l-2 7 8.5 10.5c4.11 2.055.907-8.453 2-9 3.365-1.682 5.673 2.836 8 4l7.5 3.5c5.662 11.324-6 23.326-6 34.5v1l-1 1v1l-1 2v2Z"/><path fill="#C7CBCA" id="onl" d="M225 128c1.638 0 2 3.576 2 5l-1.5 3c-1.575 0-4.62-8-.5-8ZM233 135l-3 1c0-1.949-.991-8 2-8 1.714 0 1 5.594 1 7ZM177 194l1 1c0 9.409 6.888 25.694 15.5 30 12.774 6.387 26.5-22.376 26.5-32l1-1c0-3.51 1-7.022 1-10 1.594 0 1.926 11 5 11 0 6.608.746 14.009-2 19.5l-10 11c-1.493 2.986-4.246 6.873-7.5 8.5-2.893 1.446-7.163.581-10 2-14.162 7.081-32.5.227-32.5-17 0-8.983-2.291-24.082-6-31.5V157c1.684 0 1-4.679 1-6v-1c1.579 0 1-2.855 1-4v-2l1-2v-1l1-1 2-3 1-1 1-1 2-1c0 3.067-.765 4.029-2 6.5-3.407 6.815 1.3 31.6 4 37 1.031 2.063 1.717 11.5 5 11.5v1l1 1v3ZM279 195l-1 1-3 9.5c-2.372 4.744-1.632 14.566-7.5 17.5-18.549 9.275-31.5-17.558-31.5-33l-1-1v-6c-3.291 0-1.751 9-5 9 0 3.036-2.718 9.064-1 12.5 5.068 10.135 11.147 22.823 22.5 28.5 3.723 1.862 9.339.169 13 2 13.617 6.808 27.5-5.05 27.5-19 0-9.506 1.069-18.638 5-26.5V154c-1.684 0-1-4.679-1-6v-1c-1.473 0-1-1.952-1-3v-1l-2-3v-1l-2-2-3-3c-1.028 0-1.44 1.621-1 2.5 1.884 3.767 2 6.387 2 11 0 11.379 1.104 20.792-4 31-.922 1.844-.887 9.5-4 9.5v1l-1 1v1l-1 2v2Z"/><path fill="#99D2BD" id="OLF" d="m167 135-1 1 1-1ZM235 183c-3.291 0-1.751 9-5 9v-56l3-1c0 6.702-5.601 19.299-2 26.5 2.485 4.969 4 15.909 4 21.5ZM166 136l-1 1 1-1ZM291 137l2 2-2-2ZM163 140l-1 1 1-1ZM293 140c1.577 0 2 1.762 2 3l-2-3ZM162 142l-1 2 1-2ZM295 144c1.473 0 1 1.952 1 3-1.473 0-1-1.952-1-3ZM161 146c-1.579 0-1 2.855-1 4 1.579 0 1-2.855 1-4ZM296 148c1.684 0 1 4.679 1 6-1.684 0-1-4.679-1-6ZM160 151c-1.684 0-1 4.679-1 6 1.684 0 1-4.679 1-6ZM297 157c1.7 0 1 5.137 1 6.5 0 3.536 2.965 11.071 1 15-.595 1.19-1.826 3.347-1 5 1.192 2.383-.137 5.725 1 8l6 10c.768 1.537 3.085 3.829 2 6-1.842 3.684-8.538 2.019-11.5 3.5l-3.5 5c0-9.506 1.069-18.638 5-26.5V157ZM159 161c-1.684 0-1 4.679-1 6v19.5c0 5.216-11.294 20.103-6.5 22.5l9 2 4.5 6c0-8.983-2.291-24.082-6-31.5V161ZM235 189l1 1-1-1ZM281 189l-1 1 1-1ZM176 190l1 1-1-1ZM280 191l-1 2 1-2ZM221 192l-1 1 1-1ZM177 194l1 1-1-1ZM279 195l-1 1 1-1Z"/></svg>