<svg xmlns="http://www.w3.org/2000/svg" viewBox="0 0 456 320"><path fill="#1E9C59" id="MOs1" d="M121 95v6c3.45 0 8.281-9.89 12.5-12l12-8c5.915-2.958 12.053-5.026 18-8 7.878-3.94 34.041-8.48 43-4l9.5 8 4-2c0-6.1-10.835-11.667-15.5-14l-8-1c-3.818-1.91-14.074.037-18 2-7.374 3.687-16.585 4.293-24 8-6.56 3.28-12.359 7.68-19 11-3.887 1.944-14.5 9.893-14.5 14ZM334 101h1v-7c0-2.738-11.89-11.695-14.5-13-5.696-2.848-10.366-7.183-16-10-8.345-4.172-18.693-4.847-27-9-4.13-2.065-13.765-4.117-18-2-5.96 2.98-22.5 4.29-22.5 14l3 3 7.5-6c3.26-1.63 6.783-2.392 10-4 4.265-2.133 14.674.337 18 2l10 2c11.121 5.56 25.071 7.071 34.5 16.5 3.226 3.226 14 8.129 14 13.5Z"/><path fill="#1E9D58" id="MOs2/3" d="M121 102c.04 0 2 4.038 2 4.5 0 3.992 1 11.866 1 16.5l11.5-16 11-10c8.544-4.272 16.454-9.727 25-14 6.939-3.47 21.734-9.133 30-5 1.778.889 8.5 2.053 8.5 5h1c0-1.26 3.346-5 5-5v-1l-9.5-8c-8.959-4.48-35.122.06-43 4-5.947 2.974-12.085 5.042-18 8l-12 8c-4.219 2.11-9.05 12-12.5 12v1ZM334 101c0 5.326-2 11.83-2 17.5 0 1.158 3.16 7.5 1 7.5 0-4.904-5.929-8.358-8-12.5-9.523-19.046-33.566-26.033-50.5-34.5-4.834-2.417-27.5-3.626-27.5 4h-1c0-1.726-4.558-5-6-5v-1l7.5-6c3.26-1.63 6.783-2.392 10-4 4.265-2.133 14.674.337 18 2l10 2c11.121 5.56 25.071 7.071 34.5 16.5 3.226 3.226 14 8.129 14 13.5Z"/><path fill="#3EA665" id="ACAd1" d="M222 93h13c0-6.099 5-10.13 5-15v-1l-3-3c-2.019 0-6.071 9.641-7 11.5l-1.5 4.5-1.5-3.5c-.977-1.953-4.772-11.5-7-11.5l-4 2v1c2.278 0 6 12.627 6 15Z"/><path fill="#1F9D58" id="MOs5" d="M145 139c-4.981 0-12.607 12-19 12 0-4.671-3-8.806-3-13 0-1.174.479-9 0-9v-4l1-2 11.5-16 11-10c8.544-4.272 16.454-9.727 25-14 6.939-3.47 21.734-9.133 30-5 1.778.889 8.5 2.053 8.5 5-2.392 0-14.638 19-16 19l-6.5-1-14 4c-10.009 5.005-23.408 14.317-28.5 24.5v9.5ZM312 139c2.637 0 13.275 12 18 12 0-2.606.95-2.4 2-4.5l1-19.5v-1c0-4.904-5.929-8.358-8-12.5-9.523-19.046-33.566-26.033-50.5-34.5-4.834-2.417-27.5-3.626-27.5 4 0 5.921 15 12.328 15 20h1c0-3.374 15.326-.087 17.5 1 13.493 6.746 31.5 17.514 31.5 35Z"/><path fill="#40A565" id="ACAd2/3" d="M215 95h1c0-1.353 4.643-2 6-2 0-2.373-3.722-15-6-15-1.654 0-5 3.74-5 5 0 2.853 4 7.064 4 12ZM235 93l6 2c0-2.42 2.285-12 5-12 0-1.726-4.558-5-6-5 0 4.87-5 8.901-5 15Z"/><path fill="#3EA566" id="ACAd5" d="M195 103h1c7.211 0 12.123-8 19-8 0-4.936-4-9.147-4-12h-1c-2.392 0-14.638 19-16 19v1h1ZM260 103h2c0-7.672-15-14.079-15-20h-1c-2.715 0-5 9.58-5 12 6.779 0 11.94 8 19 8Z"/><path fill="#2FA750" id="PL1" d="M223 131h10l2-38h-13l1 38Z"/><path fill="#2FA74F" id="PL2/3" d="M219 131h4l-1-38c-1.357 0-6 .647-6 2 0 12.342 3 23.465 3 36ZM233 131h4c0-12.2 4-24.057 4-36l-6-2-2 38Z"/><path fill="#1E9D5A" id="MOp1" d="m347 161 4 2c1.59 0 1.443-4.386 2-5.5 2.048-4.096 3-9.071 3-14 0-11.669-1.768-20.535-7-31l-6-8c-.941-1.881-5.692-10.5-8-10.5v7c0 2.235 12.16 18.82 14 22.5 1.246 2.493 3.572 21.855 2 25-1.671 3.341-4 8.641-4 12.5ZM110 161l-5 2-5-16.5c-4.953-9.905 6.353-29.705 10-37 .994-1.988 8.702-14.5 11-14.5v7l-6 7.5-8 16c-1.607 3.214-.368 7.736-2 11-2.136 4.272 1.29 15.58 3 19 .465.93.817 4.5 2 4.5v1Z"/><path fill="#2EA84F" id="PL5" d="M217 131h2c0-12.535-3-23.658-3-36h-1c-6.877 0-11.789 8-19 8l5 7.5c.725 1.45 2 12.609 2 14.5 1.41 0 14 5.452 14 6ZM237 131h2c4.437 0 9.885-6 14-6l1-1 2-14.5 4-6.5c-7.06 0-12.221-8-19-8 0 11.943-4 23.8-4 36Z"/><path fill="#1D9C5A" id="MOs6a" d="M161 132c-7.648 0-12.699 6-16 6v-8.5c5.092-10.183 18.491-19.495 28.5-24.5l14-4 6.5 1v1l-1 1c-1.707 0-8 6.913-8 8-6.005 0-10.542 2.521-15.5 5-1.37.685-7.254 8-3.5 8 0 1.294-3.609 7-5 7ZM295 132c1.964 0 6.934-.283 9.5 1 1.973.987 4.283 6 7.5 6 0-17.486-18.007-28.254-31.5-35-2.174-1.087-17.5-4.374-17.5-1 1.694 0 8 7.539 8 9 8.958 0 20 5.129 20 14 0 2.363 4 4.713 4 6Z"/><path fill="#1F9C58" id="MOp2/3" d="M346 161h1c0-3.859 2.329-9.159 4-12.5 1.572-3.145-.754-22.507-2-25-1.84-3.68-14-20.265-14-22.5h-1c0 5.326-2 11.83-2 17.5 0 1.158 3.16 7.5 1 7.5v1c1.663 0 2 5.407 2 7v20c1.641 0 11 5.364 11 7ZM121 154c-3.538 0-7.077 6-11 6-1.183 0-1.535-3.57-2-4.5-1.71-3.42-5.136-14.728-3-19 1.632-3.264.393-7.786 2-11l8-16 6-7.5c.04 0 2 4.038 2 4.5 0 3.992 1 11.866 1 16.5-.896 0-3.026 2-1 2v4c-4.024 0-2 20.875-2 24v1Z"/><path fill="#3FA664" id="ACAd6a" d="m195 103-2 1 1-1h1Z"/><path fill="#2FA850" id="PL6a" d="m189 116 14 9c0-1.891-1.275-13.05-2-14.5l-5-7.5h-1l-2 1c-1.707 0-8 6.913-8 8l4 4ZM267 117c-5.075 0-7.863 7-13 7l2-14.5 4-6.5h2c0 1.186 1 1.186 1 0 1.694 0 8 7.539 8 9-1.811 0-4 3.438-4 5Z"/><path fill="#3FA664" id="ACAd6a" d="M262 103h1c0 1.186-1 1.186-1 0Z"/><path fill="#268E44" id="FRP6a" d="M182 118c2.502 0 5.498 1 8 1l-1-3-4-4c-6.005 0-10.542 2.521-15.5 5-1.37.685-7.254 8-3.5 8 6.446 0 9.365-7 16-7ZM274 117l17 9c0-8.871-11.042-14-20-14-1.811 0-4 3.438-4 5l1 1 6-1Z"/><path fill="#22885E" id="ORBm6a" d="M203 125c0 3.798 1.487 12-4 12l-9-18-1-3 14 9Z"/><path fill="#238A5C" id="ORBvl6a" d="M179 135c7.419 0 12.951 2 20 2l-9-18c-2.502 0-5.498-1-8-1 0 5.821-3 10.85-3 17Z"/><path fill="#22885E" id="ORBm6a" d="M257 137h1l9-18 1-1-1-1c-5.075 0-7.863 7-13 7l-1 1v9.5l4 2.5Z"/><path fill="#238A5C" id="ORBvl6a" d="M277 135c-6.993 0-12.385 2-19 2l9-18 1-1 6-1c0 6.818 3 10.712 3 18Z"/><path fill="#24895D" id="ORBl6a" d="M277 135c10.971 0 19.356 17 27 17 0-5.023-9-15.422-9-20 0-1.287-4-3.637-4-6l-17-9c0 6.818 3 10.712 3 18ZM179 135c-10.742 0-17.865 16-26 16l8-19c1.391 0 5-5.706 5-7 6.446 0 9.365-7 16-7 0 5.821-3 10.85-3 17Z"/><path fill="#1E9D58" id="MOs2/3" d="M124 123c-.896 0-3.026 2-1 2l1-2Z"/><path fill="#2FA850" id="PL6a" d="m254 124-1 1 1-1Z"/><path fill="#23885E" id="ORBm5" d="M213 167h1c6.22 0 6-25.816 6-31v-2l-1-2-2-1c0-.548-12.59-6-14-6 0 3.798 1.487 12-4 12 0 4.969 14 22.123 14 30ZM257 137c0 8.281-14 20.991-14 30-8.114 0-6-23.937-6-31v-4l2-1c4.437 0 9.885-6 14-6v9.5l4 2.5Z"/><path fill="#1E9C5A" id="MOp5" d="m330 151 5 2v-19c0-1.593-.337-7-2-7l-1 19.5c-1.05 2.1-2 1.894-2 4.5ZM126 151c0 1.638-3.576 2-5 2 0-3.125-2.024-24 2-24 .479 0 0 7.826 0 9 0 4.194 3 8.329 3 13Z"/><path fill="#59B262" id="ILA5" d="M219 131v1l-2-1h2Z"/><path fill="#59B362" id="ILA2/3" d="M220 136h3v-5h-4v1l1 2c1.186 0 1.186 1 0 1v1Z"/><path fill="#59B263" id="ILA1" d="M223 136h10v-5h-10v5Z"/><path fill="#59B362" id="ILA2/3" d="M233 136h4v-1c-2.212 0-2.212-1 0-1v-3h-4v5Z"/><path fill="#59B262" id="ILA5" d="m239 131-2 1v-1h2Z"/><path fill="#209666" id="AId6a" d="M153 151v1c-6.918 0-8-7.037-8-13v-1c3.301 0 8.352-6 16-6l-8 19ZM312 139c0 4.747-1.916 13-8 13 0-5.023-9-15.422-9-20 1.964 0 6.934-.283 9.5 1 1.973.987 4.283 6 7.5 6Z"/><path fill="#24885D" id="ORBm2/3" d="M220 134c1.186 0 1.186 1 0 1v-1ZM237 134c-2.212 0-2.212 1 0 1v-1Z"/><path fill="#228A5D" id="ORBl5" d="M144 178h1l9.5-7c7.751-3.875 20.539-19 29.5-19 0-4.149-5-10.858-5-17-10.742 0-17.865 16-26 16v1l-3 5-1 2-5 19Z"/><path fill="#23885C" id="ORBvl5" d="M184 152c10.943 0 18.202 15 29 15 0-7.877-14-25.031-14-30-7.049 0-12.581-2-20-2 0 6.142 5 12.851 5 17ZM271 153c-10.843 0-17.381 14-28 14 0-9.009 14-21.719 14-30h1c6.615 0 12.007-2 19-2 0 6.913-4 11.937-4 17h-1l-1 1Z"/><path fill="#228A5D" id="ORBl5" d="M307 159c0 7.409 5 11.508 5 19-5.948 0-30.356-26-39-26 0-5.063 4-10.087 4-17 10.971 0 19.356 17 27 17l2 5 1 1v1Z"/><path fill="#24885D" id="ORBm2/3" d="M214 167c0 3.73 4 6.533 4 10 4.671 0 3.821-8.142 5-10.5 4.675-9.349 0-20.864 0-30.5h-3c0 5.184.22 31-6 31Z"/><path fill="#23895D" id="ORBm1" d="M219 181c2.881 0 3.57 1.465 6.5 0l3-4 2 4c2.823 1.412 4.525 0 7.5 0v-4c-2.481 0-5-8.212-5-10.5V136h-10c0 9.636 4.675 21.151 0 30.5-1.179 2.358-.329 10.5-5 10.5v1l1 3Z"/><path fill="#24885D" id="ORBm2/3" d="M238 177h1l4-10c-8.114 0-6-23.937-6-31h-4v30.5c0 2.288 2.519 10.5 5 10.5Z"/><path fill="#209665" id="AId5" d="m149 159-10 15.5-4 4.5c-3.203 0-14-21.817-14-25v-1c1.424 0 5-.362 5-2 6.393 0 14.019-12 19-12 0 5.963 1.082 13 8 13l-3 5-1 2ZM321 179h1c2.924 0 13-21.55 13-25v-1l-5-2c-4.725 0-15.363-12-18-12 0 4.747-1.916 13-8 13l2 5 1 1v1l4 4.5c1.194 2.387 10 14.959 10 15.5Z"/><path fill="#238A5E" id="ORBl2/3" d="M146 185h1c0-2.932 6.004-5.504 8-7.5 6.179-6.179 15.047-10.773 22.5-14.5 2.977-1.489 8.046 1 10.5 1 0-4.124-4-8.36-4-12-8.961 0-21.749 15.125-29.5 19l-9.5 7 1 7Z"/><path fill="#248A5D" id="ORBvl2/3" d="m212 180 4 1c0-1.238.423-3 2-3v-1c0-3.467-4-6.27-4-10h-1c-10.798 0-18.057-15-29-15 0 3.64 4 7.876 4 12v1c2.022 0 10 6.758 10 9l10 5h3l1 1ZM272 152l-1 1 1-1Z"/><path fill="#238A5E" id="ORBl2/3" d="M312 179c0 1.041-.986 5-2 5-2.474 0-11.415-9.958-13.5-11l-18-10c-2.772-1.386-7.269 1-9.5 1 0-4.135 2-7.305 2-11l1-1h1c8.644 0 33.052 26 39 26v1Z"/><path fill="#248A5D" id="ORBvl2/3" d="M240 181h1l1-1h2l1-1h3l10-5 1-1c0-2.158 7.062-8 9-8l1-1c0-4.135 2-7.305 2-11-10.843 0-17.381 14-28 14l-4 10 1 4Z"/><path fill="#209765" id="AId2/3" d="M126 187h1l8-7v-1c-3.203 0-14-21.817-14-25-3.538 0-7.077 6-11 6v1c0 7.236 16 19.699 16 26ZM329 187h1c0-3.654 16-19.355 16-26 0-1.636-9.359-7-11-7 0 3.45-10.076 25-13 25 0 3.501 7 4.585 7 8Z"/><path fill="#1F9865" id="AIv5" d="m150 157-1 2 1-2ZM306 157l1 1-1-1ZM135 179v1c2.008 0 9 .656 9-2l5-19-10 15.5-4 4.5ZM312 179c1.242 0 9 2.558 9 0 0-.541-8.806-13.113-10-15.5l-4-4.5c0 7.409 5 11.508 5 19v1Z"/><path fill="#209764" id="AId1" d="m126 187-4 4c-2.406 0-17-23.937-17-28l5-2c0 7.236 16 19.699 16 26ZM330 187l5 4c0-2.537 16-20.871 16-28l-4-2h-1c0 6.645-16 22.346-16 26Z"/><path fill="#238A5D" id="ORBl1" d="M147 185c0 1.747.253 2 2 2 3.555 0 6.154-6.327 9.5-8 10.367-5.183 16.761-11 29.5-11v-4c-2.454 0-7.523-2.489-10.5-1-7.453 3.727-16.321 8.321-22.5 14.5-1.996 1.996-8 4.568-8 7.5ZM310 185l-2 2c-4.752 0-7.595-7.047-11.5-9-9.284-4.642-16.167-10-28.5-10v-3l1-1c2.231 0 6.728-2.386 9.5-1l18 10c2.085 1.042 11.026 11 13.5 11v1Z"/><path fill="#248A5B" id="ORBvl1" d="m269 164-1 1 1-1ZM188 168l10 6c0-2.242-7.978-9-10-9v3ZM268 168c0 1.273-7.423 5-9 5 0-2.158 7.062-8 9-8v3Z"/><path fill="#99D2BD" id="OLF" d="M138 216h6c0-4.775 5.998-7.496 8-11.5 6.593-13.186 17.932-21.216 30.5-27.5 7.372-3.686 20.908 7 23.5 7 0-1.247-1.725-5 2-5l-10-5-10-6c-12.739 0-19.133 5.817-29.5 11-3.346 1.673-5.945 8-9.5 8l-11 9c4.861 0 5.202 15-4 15 0 2.813 4 3.461 4 5ZM312 216h7l4-5-3.5 1c-4.838-2.419-7.674-15 .5-15 0-3.747-12-5.211-12-10-4.752 0-7.595-7.047-11.5-9-9.284-4.642-16.167-10-28.5-10 0 1.273-7.423 5-9 5l-1 1-10 5c1.712 0 3 2.571 3 4 6.447 0 14.271-10.115 22.5-6 13.157 6.578 25.017 15.535 31.5 28.5 1.888 3.777 7 5.913 7 10.5Z"/><path fill="#248A5B" id="ORBvl1" d="m259 173-1 1 1-1Z"/><path fill="#54BF94" id="AON" fill-rule="evenodd" d="M266 194c0 2.647-2.206 23.647.5 25l4.5-4.5c1.672-3.344 8.026-14.948 6-19-.944-1.887-8.774-1.5-11-1.5m-83 0-3 1.5c-2.376 4.753 3.223 12.446 5 16 .56 1.121 2.397 9.052 5.5 7.5 1.637-.819-.5-17.16-.5-19l1-5.5-8-.5m9 61c0-13.005 11.376-20.938 21.5-26 5.862-2.931 12.138 4 15 4 2.314 0 8.2-6.9 14-4 9.644 4.822 22.5 13.456 22.5 26 4.083 0 14.442-10 17-10v-1c0-3.081 4.838-6.338 7-8.5 5.575-5.575 14.474-19.5 23-19.5 0-4.587-5.112-6.723-7-10.5-6.483-12.965-18.343-21.922-31.5-28.5-8.229-4.115-16.053 6-22.5 6 0 .749-12.375 26.937-12.5 27-3.377 1.688-5.409 0-8.5 0 0 2.932-3 3.55-3 0-1.804 0-5.136 2.182-7.5 1-2.34-1.17-13.5-24.79-13.5-27-2.592 0-16.128-10.686-23.5-7-12.568 6.284-23.907 14.314-30.5 27.5-2.002 4.004-8 6.725-8 11.5 5.896 0 30 22.904 30 29 4.163 0 12.445 10 18 10Z"/><path fill="#99D2BD" id="OLF" d="M227 210c0 3.55 3 2.932 3 0 0-1.564-1-3.876-1-6-1.643 0-1-3.765-1-5 0-4.576 1-25.893 1-10.5V201c2.261 0 1.107-10.713 2-12.5.844-1.688 7-7.258 7-7.5-2.975 0-4.677 1.412-7.5 0l-2-4-3 4c-2.93 1.465-3.619 0-6.5 0h-1l7 5.5c1.861 3.723 2 18.275 2 23.5Z"/><path fill="#248A5B" id="ORBvl1" d="M238 181h2l-1-4h-1v4Z"/><path fill="#219764" id="AIv2/3" d="m146 185-2.5 2c-2.062 1.031-16.5 9.11-16.5 0l8-7c2.008 0 9 .656 9-2h1l1 7Z"/><path fill="#248A5B" id="ORBvl1" d="M218 181h1l-1-3c-1.577 0-2 1.762-2 3h2Z"/><path fill="#61D09F" id="TTd" d="M206 184c0 2.21 11.16 25.83 13.5 27 2.364 1.182 5.696-1 7.5-1 0-5.225-.139-19.777-2-23.5l-7-5.5h-2l-4-1-1-1h-3c-3.725 0-2 3.753-2 5Z"/><path fill="#99D2BD" id="OLF" d="m211 179 1 1-1-1ZM245 179l-1 1 1-1Z"/><path fill="#61D09F" id="TTd" d="M229 204c0 2.124 1 4.436 1 6 3.091 0 5.123 1.688 8.5 0 .125-.063 12.5-26.251 12.5-27 0-1.429-1.288-4-3-4h-3l-1 1h-2l-1 1h-3c0 .242-6.156 5.812-7 7.5-.893 1.787.261 12.5-2 12.5v3Z"/><path fill="#219764" id="AIv2/3" d="m310 185 5.5 4c3.023 1.512 13.5 4.349 13.5-2 0-3.415-7-4.499-7-8h-1c0 2.558-7.758 0-9 0 0 1.041-.986 5-2 5v1Z"/><path fill="#99D2BD" id="OLF" d="m242 180-1 1 1-1Z"/><path fill="#209864" id="AIv1" d="M135 197h1l1-1h1l11-9c-1.747 0-2-.253-2-2h-1l-2.5 2c-2.062 1.031-16.5 9.11-16.5 0h-1l-4 4c0 5.003 7.076 7 11 7l2-1ZM321 197h2c2.801 0 12 .236 12-6l-5-4h-1c0 6.349-10.477 3.512-13.5 2l-5.5-4-2 2c0 4.789 12 6.253 12 10h1Z"/><path fill="#CBCBC7" id="aco" d="m183 194-3 1.5c-2.376 4.753 3.223 12.446 5 16 .56 1.121 2.397 9.052 5.5 7.5 1.637-.819-.5-17.16-.5-19l1-5.5-8-.5ZM266 194c0 2.647-2.206 23.647.5 25l4.5-4.5c1.672-3.344 8.026-14.948 6-19-.944-1.887-8.774-1.5-11-1.5Z"/><path fill="#99D2BD" id="OLF" d="m137 196-1 1 1-1Z"/><path fill="#6ACAB9" id="PIR" d="M132 201c0 2.129-1.163 10 2 10 9.202 0 8.861-15 4-15h-1l-1 1h-1c0 1.238-.423 3-2 3l-1 1ZM325 202c0 3.301-2 7.523-2 9l-3.5 1c-4.838-2.419-7.674-15 .5-15h1l4 5Z"/><path fill="#99D2BD" id="OLF" d="M133 198v2c1.577 0 2-1.762 2-3l-2 1ZM323 197l2 5-4-5h2ZM133 200l-1 1 1-1Z"/><path fill="#CAC8C7" id="lot" d="M144 216c5.896 0 30 22.904 30 29-4.154 0-6.055-4.277-9.5-6-2.582-1.291-25.823-18.147-26.5-19.5-.929-1.858 0-1.893 0-3.5h6ZM282 244l1 1c6.671 0 22.29-17.395 29.5-21 2.962-1.481 6.5-4.689 6.5-8h-7c-8.526 0-17.425 13.925-23 19.5-2.162 2.162-7 5.419-7 8.5Z"/><path fill="#62CF9E" id="TTv" d="M192 255c0 5.162 18.314 6.093 22.5 4 4.363-2.182 9.179-12.859 11.5-17.5.454-.907.911-6.5 2.5-6.5l2.5 8.5c2.373 4.747 6.979 13.739 12.5 16.5 9.608 4.804 15.942-5 21.5-5 0-12.544-12.856-21.178-22.5-26-5.8-2.9-11.686 4-14 4-2.862 0-9.138-6.931-15-4-10.124 5.062-21.5 12.995-21.5 26Z"/><path fill="#99D2BD" id="OLF" d="M282 245h1l-1-1v1Z"/></svg>