<svg xmlns="http://www.w3.org/2000/svg" viewBox="0 0 456 320"><path fill="#9AD1BD" id="MOB" d="M144 154c.508 0 3 11.62 3 13l8 15.5c2.195 4.39 3.833 8.665 6 13v6c6.111 12.223-1.705 25.897 17.5 35.5 35.006 17.503 42.5-19.918 42.5-47.5v-26c1.159-2.318 4.989-30.022 4-32-2.854-5.708-4.1-12.2-7-18l-6-6.5-7.5-4c-10.603-5.301-40.575 5.649-45.5 15.5-1.487 2.973-9 6.554-9 11.5l-1 1v1l-1 1v1l-1 1v1l-1 1v2l-1 1v4c0 1.048.473 3-1 3v7ZM311 163l-2 4-10 18.5c-6.429 12.858-3.932 28.864-11 43-2.126 4.253-8.025 6.762-11.5 8.5-12.898 6.449-25.966 8.569-33.5-6.5-4.691-9.382-3.775-24.55-7-31-3.143-6.287 2.2-16.6-1-23v-17c-1.543-3.087-4.785-26.431-3-30 2.192-4.385 2.787-9.574 5-14l7-8.5 7.5-4h8c14.176 0 25.685 2.685 36.5 13.5 2.528 2.528 10 9.111 10 12.5l1 1v1l1 1v1l1 1v1l1 1v1l1 2v3l1 2v14c-1.643 0-1 3.765-1 5Z"/><path fill="#C7CBCA" id="onl" d="M153 209c0 7.666 7.157 10.814 10 16.5 8.168 16.336 23.045 19.273 37.5 26.5 3.085 1.543 15.19 4.405 18 3 10.183-5.092 8.5-27.71 8.5-39v-61c0-17.13 1.268-24.964-6-39.5-1.724-3.447-4.333-8.5-9-8.5l6 6.5c2.9 5.8 4.146 12.292 7 18 .989 1.978-2.841 29.682-4 32v26c0 27.582-7.494 65.003-42.5 47.5-19.205-9.603-11.389-23.277-17.5-35.5v-6c-2.167-4.335-3.805-8.61-6-13l-8-15.5v12c1.684 0 1 4.679 1 6v1c1.579 0 1 2.855 1 4v4c1.473 0 1 1.952 1 3v1c1.473 0 1 1.952 1 3v4l1 2v1l1 1ZM304 209l-1 1c0 6.353-5.416 8.332-8 13.5-5.477 10.955-17.525 20.012-28.5 25.5-3.211 1.605-7.789 1.395-11 3-2.112 1.056-4.995-.003-7 1-4.419 2.209-10.059 5.383-13.5-1.5l-5-9c-2.067-4.134-1-24.409-1-30.5v-73c0-8.165 5.321-32 15-32l-7 8.5c-2.213 4.426-2.808 9.615-5 14-1.785 3.569 1.457 26.913 3 30v17c3.2 6.4-2.143 16.713 1 23 3.225 6.45 2.309 21.618 7 31 7.534 15.069 20.602 12.949 33.5 6.5 3.475-1.738 9.374-4.247 11.5-8.5 7.068-14.136 4.571-30.142 11-43l10-18.5 1 2v1c-1.643 0-1 3.765-1 5v10l-1 2v2c-1.579 0-1 2.855-1 4v4l-1 2v1c-1.473 0-1 1.952-1 3v4l-1 2Z"/><path fill="#99D2BD" id="OLF" d="m306 129 1 1-1-1ZM150 130l-1 1 1-1ZM307 131l1 1-1-1ZM149 132l-1 1 1-1ZM308 133l1 1-1-1ZM148 134l-1 1 1-1ZM309 135l1 1-1-1ZM147 136l-1 1 1-1ZM310 137l1 2-1-2ZM146 139l-1 1 1-1ZM311 142l1 2-1-2ZM145 144c-1.473 0-1 1.952-1 3 1.473 0 1-1.952 1-3ZM312 147c1.628 0 1.628 10 0 10v-10ZM147 167v4c-1.951 0-.477-2.454-1-3.5-1.913-3.825-2-8.905-2-13.5.508 0 3 11.62 3 13ZM227 155c1.773 0 1 9.259 1 11v37c0 1.908.788 13-1 13v-61ZM312 158c-1.643 0-1 3.765-1 5 1.643 0 1-3.765 1-5ZM309 167l1 2c1.684 0 1-4.679 1-6l-2 4ZM310 170c-1.643 0-1 3.765-1 5 1.643 0 1-3.765 1-5ZM147 179c1.684 0 1 4.679 1 6-1.684 0-1-4.679-1-6ZM309 185l-1 2 1-2ZM148 186c1.579 0 1 2.855 1 4-1.579 0-1-2.855-1-4ZM308 189c-1.579 0-1 2.855-1 4 1.579 0 1-2.855 1-4ZM149 194c1.473 0 1 1.952 1 3-1.473 0-1-1.952-1-3ZM307 197l-1 2 1-2ZM150 198c1.473 0 1 1.952 1 3-1.473 0-1-1.952-1-3ZM306 200c-1.473 0-1 1.952-1 3 1.473 0 1-1.952 1-3ZM151 205l1 2-1-2ZM305 207l-1 2 1-2ZM152 208l1 1-1-1ZM304 209l-1 1 1-1Z"/></svg>