<svg xmlns="http://www.w3.org/2000/svg" viewBox="0 0 456 320"><path fill="#1E9C59" id="MOs1" d="M133 142c0 1.803-3.592 3-5 3-1.149 0-1.508-4.516-2-5.5-2.796-5.591-4.521-20.479.5-25.5 3.181-3.181 7.816-16.408 13-19l18-12c8.022-4.01 18.046-4.023 26-8 4.547-2.274 27.5 3.95 27.5 7l-5 4c-6.358 0-16.49-6.505-23.5-3-7.155 3.577-16.786 2.393-24 6-12.736 6.368-21.178 16.857-27.5 29.5-3.241 6.482 2 17.371 2 23.5ZM323 143l5 2c2.033 0 2.261-7.021 3-8.5 3.101-6.202 2.007-15.985-1-22-10.234-20.468-22.575-26.037-41.5-35.5-4.792-2.396-11.183-1.592-16-4-4.432-2.216-27.5 4.085-27.5 7l6 4c6.052 0 15.763-6.368 22.5-3 5.609 2.804 13.395 1.197 19 4 15.69 7.845 24.781 15.062 32.5 30.5 3.258 6.515-2 17.752-2 23.5v2Z"/><path fill="#2FA750" id="PL1" d="M223 117h10c0-8.84 7.831-30 18-30v-1l-6-4c-2.368 0-12.876 14.252-14 16.5l-2.5 7.5c-1.869 0-2.926-7.352-3.5-8.5-1.853-3.706-9.128-15.5-14-15.5l-5 4v1c10.023 0 17 21.186 17 29v1Z"/><path fill="#1E9D58" id="MOs2/3" d="M133 142h1c0-2.546 10.416-5.958 12.5-7l5.5 1-2-8.5c2.855-5.71 4.114-12.228 7-18 7.722-15.443 28.53-16.5 43-16.5h1l5-6v-1c-6.358 0-16.49-6.505-23.5-3-7.155 3.577-16.786 2.393-24 6-12.736 6.368-21.178 16.857-27.5 29.5-3.241 6.482 2 17.371 2 23.5ZM304 136l6.5-1 12.5 6c0-5.748 5.258-16.985 2-23.5-7.719-15.438-16.81-22.655-32.5-30.5-5.605-2.803-13.391-1.196-19-4-6.737-3.368-16.448 3-22.5 3v1l4 6h2c16.744 0 35.274 2.049 44 19.5l5 13c1.873 3.745-2 7.738-2 10.5Z"/><path fill="#2FA74F" id="PL2/3" d="m216 115 7 1c0-7.814-6.977-29-17-29l-5 6c10.555 0 15 13.232 15 22ZM240 115l-7 2c0-8.84 7.831-30 18-30l4 6c0 .07-8.191 4.691-9.5 6-4.1 4.1-5.5 10.325-5.5 16Z"/><path fill="#1F9D58" id="MOs5" d="M153 137h4c1.173 0 5-9.536 5-11-7.236 0-.82-15.34 2.5-17 11.836-5.918 15.987-8 30.5-8 0-3.71 5-4.986 5-8-14.47 0-35.278 1.057-43 16.5-2.886 5.772-4.145 12.29-7 18l2 8.5 1 1ZM299 137h4l1-1c0-2.762 3.873-6.755 2-10.5l-5-13C292.274 95.049 273.744 93 257 93c0 3.23 5 5.26 5 8 11.472 0 36 3.505 36 18.5 0 1.92-3 4.861-3 6.5 0 4.019 4 7.17 4 11Z"/><path fill="#2EA84F" id="PL5" d="m206 111 10 4c0-8.768-4.445-22-15-22h-1c0 3.014-5 4.29-5 8 4.359 0 8.168 10 11 10ZM250 112c-3.686 0-6.177 3-10 3 0-5.675 1.4-11.9 5.5-16 1.309-1.309 9.5-5.93 9.5-6h2c0 3.23 5 5.26 5 8-2.813 0-12 7.641-12 11Z"/><path fill="#258F45" id="FRP5" d="M188 114c5.939 0 11.127 3 16 3 6.436 0 2 3.818 2-6-2.832 0-6.641-10-11-10-14.513 0-18.664 2.082-30.5 8-3.32 1.66-9.736 17-2.5 17 7.998 0 16.036-12 26-12ZM254 116l-1 1c-5.569 0-3 .451-3-5 0-3.359 9.187-11 12-11 11.472 0 36 3.505 36 18.5 0 1.92-3 4.861-3 6.5-8.371 0-15.931-12-27-12-5.059 0-9.715 2-14 2Z"/><path fill="#23885E" id="ORBm5" d="m204 117 5 10c6.37 0 7-6.388 7-12l-10-4c0 9.818 4.436 6-2 6ZM253 117l-6 10c-5.813 0-7-7.333-7-12 3.823 0 6.314-3 10-3 0 5.451-2.569 5 3 5Z"/><path fill="#228A5D" id="ORBl5" d="M156 141v1c6.447 0 8.795-10.148 14.5-13 4.767-2.383 8.661-3 14.5-3l3-12c-9.964 0-18.002 12-26 12 0 1.464-3.827 11-5 11l-1 4Z"/><path fill="#23885C" id="ORBvl5" d="M185 126c7.217 0 16.105 1 24 1l-5-10c-4.873 0-10.061-3-16-3l-3 12ZM271 126c-7.217 0-16.105 1-24 1l6-10 1-1c4.285 0 8.941-2 14-2 0 4.04 3 7.361 3 12Z"/><path fill="#228A5D" id="ORBl5" d="m299 137 2 4c-8.126 0-9.336-9.418-14.5-12-4.844-2.422-9.591-3-15.5-3 0-4.639-3-7.96-3-12 11.069 0 18.629 12 27 12 0 4.019 4 7.17 4 11Z"/><path fill="#24885D" id="ORBm2/3" d="M215 143h1c6.932 0 7-20.311 7-26v-1l-7-1c0 5.612-.63 12-7 12 0 5.513 6 9.971 6 16ZM240 143h1c0-5.775 6-10.532 6-16-5.813 0-7-7.333-7-12l-7 2c0 5.051 1.058 26 7 26Z"/><path fill="#23885E" id="ORBm5" d="m254 116-1 1 1-1Z"/><path fill="#23895D" id="ORBm1" d="M232 157h5l1-1c0-5.031 2-8.243 2-13-5.942 0-7-20.949-7-26h-10c0 5.689-.068 26-7 26 0 4.875 3 8.568 3 14 2.124 0 4.436-1 6-1l2-2.5c.51-1.019-.436-6.5 1.5-6.5l.5 5.5 3 4.5Z"/><path fill="#238A5E" id="ORBl2/3" d="M156 142c0 6.635-3 13.898-3 21 7.414 0 20.204-26 30-26h1l1-11c-5.839 0-9.733.617-14.5 3-5.705 2.852-8.053 13-14.5 13Z"/><path fill="#248A5D" id="ORBvl2/3" d="M184 137h12.5c4.899 2.449 12.838 6 18.5 6 0-6.029-6-10.487-6-16-7.895 0-16.783-1-24-1l-1 11ZM273 137h-13.5c-5.026 2.513-12.669 6-18.5 6 0-5.775 6-10.532 6-16 7.895 0 16.783-1 24-1 0 4.14 2 7.316 2 11Z"/><path fill="#238A5E" id="ORBl2/3" d="M301 141c0 7.573 2 13.92 2 22-6.266 0-19.845-26-30-26 0-3.684-2-6.86-2-11 5.909 0 10.656.578 15.5 3 5.164 2.582 6.374 12 14.5 12Z"/><path fill="#209765" id="AId2/3" d="M153 163v1l-3.5 1c-6.395-3.197-15.5-16.093-15.5-23 0-2.546 10.416-5.958 12.5-7l5.5 1 1 1c0 1.429 1.288 4 3 4v1c0 6.635-3 13.898-3 21ZM303 163l1 1c7.039 0 10.464-4.428 14-11.5l5-9.5v-2l-12.5-6-6.5 1-1 1-2 4c0 7.573 2 13.92 2 22Z"/><path fill="#209665" id="AId5" d="m304 136-1 1 1-1ZM157 137l-1 4c-1.712 0-3-2.571-3-4h4Z"/><path fill="#238A5D" id="ORBl1" d="M152 173h3c0-2.172 13.442-15.942 16.5-19l5.5-5 1-1 1-1h3l1-1v-9c-9.796 0-22.586 26-30 26v1l-1 9Z"/><path fill="#248A5B" id="ORBvl1" d="M218 157h1c0-5.432-3-9.125-3-14h-1c-5.662 0-13.601-3.551-18.5-6H183v9c4.538 0 25 4.681 25 7h1c1.041 0 5 .986 5 2l3 1 1 1ZM240 156h1l1-1h1l2-1h1l2-1c0-1.993 5.2-1.35 6.5-2 6.486-3.243 11.581-5 19.5-5 0-2.389-1-5.987-1-9h-13.5c-5.026 2.513-12.669 6-18.5 6h-1c0 4.757-2 7.969-2 13h2Z"/><path fill="#238A5D" id="ORBl1" d="M301 173h4c0-2.389-1-5.987-1-9l-1-1c-6.266 0-19.845-26-30-26 0 3.013 1 6.611 1 9l1 1h2c1.954 0 24 24.161 24 26Z"/><path fill="#209665" id="AId5" d="m303 137-2 4-2-4h4Z"/><path fill="#209764" id="AId1" d="m153 164-1 9c-7.794 0-24-21.264-24-28 1.408 0 5-1.197 5-3h1c0 6.907 9.105 19.803 15.5 23l3.5-1ZM304 164c0 3.013 1 6.611 1 9 7.566 0 23-21.273 23-28l-5-2-5 9.5c-3.536 7.072-6.961 11.5-14 11.5Z"/><path fill="#99D2BD" id="OLF" d="M187 156c3.015 0 6.004 2 8 2 0-8.845 6.403-5 13-5 0-2.319-20.462-7-25-7l-1 1c11.819 0 5 4.331 5 9ZM262 157h9c0-2.828-7.185-3.315-2.5-8 2.141-2.141 2.809-2 6.5-2l-1-1c-7.919 0-13.014 1.757-19.5 5-1.3.65-6.5.007-6.5 2 5.652 0 14-3.958 14 4ZM179 147l-1 1 1-1Z"/><path fill="#9DF0D1" id="AOBgl" d="M183 157h3l1-1c0-4.669 6.819-9-5-9h-3l-1 1-1 1c0 6.112-4.325 8 6 8ZM271 157h2c2.842 0 10.582-.336 8-5.5l-4-4.5h-2c-3.691 0-4.359-.141-6.5 2-4.685 4.685 2.5 5.172 2.5 8Z"/><path fill="#99D2BD" id="OLF" d="m299 187-1 13c1.765 0 .541-1.581 1-2.5 6.64-13.28 2-11.918 2-24.5 0-1.839-22.046-26-24-26l4 4.5c2.582 5.164-5.158 5.5-8 5.5 0 1.481 2 .785 2 3l5 1c6.849 0 19 9.459 19 16 0 1.06 2.765 10 0 10ZM178 148l-1 1 1-1ZM157 184c0 6.109 2 11.557 2 17l-2-3.5c-5.759-11.518-2-12.774-2-24.5 0-2.172 13.442-15.942 16.5-19l5.5-5c0 6.112-4.325 8 6 8l-2 2.5 2 1.5h-7c-4.895 0-19 9.096-19 15v8Z"/><path fill="#9AD1BD" id="MOB" d="M212 250h1l1-1 7-9.5 4-8.5v-1c0-1.048-.473-3 1-3v-4l1-1v-48c-1.059 0-2-6.743-2-8v-1l-6-8h-1l-1-1-3-1c-1.424 0-5-.362-5-2h-1c-6.597 0-13-3.845-13 5v1l3 4c0 2.009 2 2.991 2 5v1c0 4.622 3.441 14.618 1 19.5-1.112 2.225-2 4.846-2 7.5l-2 10-1 12c0 6.643-5 12.116-5 19 0 2.707 1 5.903 1 8 2.263 0 10.668 6 19 6l1-1ZM242 249l1 1c3.757 0 22 .42 22-6v-7c0-7.498-5-13.116-5-20l-1-9c0-4.669-2-9.322-2-13 0-3.166-.693-5.886-2-8.5-2.726-5.452 2-13.913 2-18.5-2.663 0 .18-5 2-5l3-6c0-7.958-8.348-4-14-4l-2 1h-1l-2 1h-1l-1 1h-1l-2 1-6 6c0 1.048.473 3-1 3v1c0 1.235.643 5-1 5v21.5c0 1.278.665 5.5-1 5.5v14c1.735 0 1 6.51 1 8v5l1 1v3l4 8.5 7 10.5Z"/><path fill="#99D2BD" id="OLF" d="M209 153c1.041 0 5 .986 5 2-1.424 0-5-.362-5-2ZM248 153l-2 1 2-1ZM245 154l-2 1 2-1ZM242 155l-1 1 1-1ZM187 156l-1 1 1-1Z"/><path fill="#9DEFD2" id="AOBmi" d="M183 161h6c2.518 0 4.286-2 6-2v-1c-1.996 0-4.985-2-8-2l-1 1h-3l-2 2.5 2 1.5Z"/><path fill="#99D2BD" id="OLF" d="m217 156 1 1-1-1ZM219 157l6 8v-9c-1.564 0-3.876 1-6 1Z"/><path fill="#248A5B" id="ORBvl1" d="M237 157h1v-1l-1 1Z"/><path fill="#99D2BD" id="OLF" d="m240 156-2 1v-1h2Z"/><path fill="#9DEFD2" id="AOBmi" d="M267 161h7l1-1c0-2.215-2-1.519-2-3h-11c0 3.766 1.59 4 5 4Z"/><path fill="#99D2BD" id="OLF" d="m238 157-6 6v-6h6ZM259 163c1.747 0 2 .253 2 2l6-4c-3.41 0-5-.234-5-4l-3 6ZM198 163c-4.365 0 0 2.366 0 4l-9-6c2.518 0 4.286-2 6-2l3 4Z"/><path fill="#54BF94" id="AON" d="M184 234c2.167 0 3.855 3 7 3 0-6.884 5-12.357 5-19-2.123 0-3-5.942-3-7.5 0-4.352-11.093-21.814-10-24 2.136-4.273 9 2.22 9 5.5l1 1v1c1.974 0 3.517 2 6 2 0-2.654.888-5.275 2-7.5 2.441-4.882-1-14.878-1-19.5l-1-1-1-1-9-6h-13c0 1.658-7.972 5.236-9.5 6l-8.5 10c0 1.235.643 5-1 5v2c1.175 0 2 5.704 2 7l7 15.5c1.775 3.549 18 27.296 18 27.5Z"/><path fill="#99D2BD" id="OLF" d="m275 160-1 1 1-1Z"/><path fill="#54BF94" id="AON" d="M272 234c0 2.189-5.066 3-7 3 0-7.498-5-13.116-5-20l1.5 1c1.484 0 1.013-6.525 1.5-7.5 3.077-6.153 4.951-12.902 8-19 .877-1.753 3.282-3.437 2-6-1.401-2.803-9 4.753-9 7.5l-1 1c-1.03 0-2.671 1-6 1 0-3.166-.693-5.886-2-8.5-2.726-5.452 2-13.913 2-18.5l1-1 3-2 6-4h7l1-1 5 1c0 .097 18 10.423 18 16 0 2.978 1 6.49 1 10-2.334 0-1.341 4.181-2 5.5l-8 17c-2.262 4.525-17 22.576-17 24.5Z"/><path fill="#CACAC9" id="lotd" d="m157 176 1 1 8.5-10c1.528-.764 9.5-4.342 9.5-6-4.895 0-19 9.096-19 15ZM298 177h1c0-6.541-12.151-16-19-16 0 .097 18 10.423 18 16ZM199 168h1c0-2.009-2-2.991-2-5-4.365 0 0 2.366 0 4l1 1Z"/><path fill="#99D2BD" id="OLF" d="M232 163c-1.473 0-1 1.952-1 3 1.473 0 1-1.952 1-3Z"/><path fill="#CACAC9" id="lotd" d="m258 167-1 1c-2.663 0 .18-5 2-5 1.747 0 2 .253 2 2l-3 2Z"/><path fill="#99D2BD" id="OLF" d="M225 166c1.931 0 2 6.225 2 8-1.059 0-2-6.743-2-8ZM231 167c-1.643 0-1 3.765-1 5 1.643 0 1-3.765 1-5ZM258 167l-1 1 1-1ZM200 168v1l-1-1h1Z"/><path fill="#CAC8C7" id="lot" d="M158 177c0 1.235.643 5-1 5v-6l1 1Z"/><path fill="#99D2BD" id="OLF" d="M230 176c-1.665 0-1 4.222-1 5.5V199c1.665 0 1-4.222 1-5.5V176Z"/><path fill="#CAC8C7" id="lot" d="M299 177c0 1.06 2.765 10 0 10 0-3.51-1-7.022-1-10h1ZM179 233l5 1c0-.204-16.225-23.951-18-27.5l-7-15.5c0-1.296-.825-7-2-7 0 6.109 2 11.557 2 17 0 5.561 14.186 32 20 32Z"/><path fill="#CBCBC7" id="aco" d="m197 206-1 12c-2.123 0-3-5.942-3-7.5 0-4.352-11.093-21.814-10-24 2.136-4.273 9 2.22 9 5.5l1 1v1c0 1.837 2.519 12 4 12ZM259 208l1 9 1.5 1c1.484 0 1.013-6.525 1.5-7.5 3.077-6.153 4.951-12.902 8-19 .877-1.753 3.282-3.437 2-6-1.401-2.803-9 4.753-9 7.5l-1 1c0 2.264-2.136 14-4 14Z"/><path fill="#CAC8C7" id="lot" d="M277 233h1l1-1c5.02 0 18-26.028 18-30l1-2 1-13c-2.334 0-1.341 4.181-2 5.5l-8 17c-2.262 4.525-17 22.576-17 24.5l5-1Z"/><path fill="#99D2BD" id="OLF" d="m192 192 1 1-1-1ZM264 193l-1 1 1-1ZM199 196l-2 10c-1.481 0-4-10.163-4-12 1.974 0 3.517 2 6 2ZM257 195c0 3.678 2 8.331 2 13 1.864 0 4-11.736 4-14-1.03 0-2.671 1-6 1ZM298 200l-1 2 1-2ZM229 213c1.735 0 1 6.51 1 8-1.735 0-1-6.51-1-8ZM227 222l-1 1 1-1Z"/><path fill="#C7CBCA" id="onl" d="m230 226 1 1-1-1ZM226 227c-1.473 0-1 1.952-1 3 1.473 0 1-1.952 1-3ZM231 230l4 8.5 7 10.5c-6.958 0-11-13.256-11-19ZM225 231l-4 8.5-7 9.5c7.474 0 11-12.068 11-18Z"/><path fill="#99D2BD" id="OLF" d="m279 232-1 1 1-1ZM191 237c0 2.707 1 5.903 1 8-2.923 0-13-9.511-13-12l5 1c2.167 0 3.855 3 7 3ZM265 237v7c3.146 0 12-7.572 12-11l-5 1c0 2.189-5.066 3-7 3Z"/><path fill="#C7CBCA" id="onl" d="m214 249-1 1 1-1Z"/><path fill="#99D2BD" id="OLF" d="m242 249 1 1-1-1Z"/><path fill="#C7CBCA" id="onl" d="m212 250-1 1 1-1Z"/></svg>