<svg xmlns="http://www.w3.org/2000/svg" viewBox="0 0 456 320"><path fill="#9AD1BD" id="MOB" fill-rule="evenodd" d="M182 134c0 1.984-3.278 3.945-2 6.5 4.351 8.703 13.926-6.5 2-6.5m8-9c0 3.644 9.359 0 0 0m-7-1-4 2.5c0 .363 16.014-2.5 4-2.5m-9 113 3 2c2.324 0 14.962 10.269 23.5 6 20.602-10.301 20.5-39.934 20.5-61v-21.5c2.271-4.542 4.309-30.382 2-35l-8-16-5-4.5h-1l-1-1c-2.777 0-8.931-1.715-11.5-3-7.831-3.916-31.563 8.563-37 14l-9.5 11-1 1v1l-1 1-1 3-1 1v1l-1 1v3l-1 2v2c0 1.235.643 5-1 5v5c1.473 0 1 1.952 1 3v2c1.473 0 1 1.952 1 3v3c1.473 0 1 1.952 1 3v1c1.473 0 1 1.952 1 3 1.709 0 5.173 8.845 6 10.5l6 13c1.569 3.139.363 7.726 2 11v8l4 8.5v2l1 1 7 10 1 1ZM270 134c0 1.804-2.182 5.136-1 7.5 3.545 7.091 15.185-7.5 1-7.5m-8-8c0 1.93 1.93 0 0 0m1-1c0 2.112 5.567 0 0 0m5-1c0 .544 8.403 3.549 9.5 3 1.62-.81-7.778-3-9.5-3m7 119-2 1c-4.26 0-12.998 3.251-17.5 1-23.503-11.751-20.5-57.381-20.5-83 0-7.118-5.342-26.815-2-33.5 2.459-4.919 4.51-10.019 7-15l5-5.5 2-1c2.241 0 10.182-2.841 12.5-4 5.397-2.698 24.532 4.766 29 7l8 7c2.748 1.374 10.5 8.679 10.5 12l1 1 1 3 1 1v1l1 2v2l1 1v1c0 1.145-.579 4 1 4v10c-1.579 0-1 2.855-1 4v3l-1 2v3c-1.473 0-1 1.952-1 3l-1 2v1c-1.709 0-5.173 8.845-6 10.5l-6 14c-1.704 3.409-.235 8.471-2 12v6l-2 4.5v1l-1 2-1 1c0 2.11-6.585 13-9 13l-1 1-2 2-2 1c-1.747 0-2 .253-2 2Z"/><path fill="#99D2BD" id="OLF" d="m208 106 1 1-1-1Z"/><path fill="#C7CBCA" id="onl" d="M227 213c0 14.188 4.43 41.035-9.5 48-6.463 3.231-11.462-6.731-16-9-5.656-2.828-12.271-4.136-18-7l-6.5-6c2.324 0 14.962 10.269 23.5 6 20.602-10.301 20.5-39.934 20.5-61v-21.5c2.271-4.542 4.309-30.382 2-35l-8-16-5-4.5c5.4 0 8.936 6.371 11 10.5 6.557 13.114 6 26.569 6 42.5v53ZM247 107l-2 1 2-1Z"/><path fill="#C7CBCA" id="onl" d="M245 108c-9.38 0-15 21.245-15 29.5 0 20.884-1 42.546-1 64 0 7.387-2.158 19.683 1 26 3.262 6.524-2.312 17.376 1 24 9.646 19.293 14.562 4.969 25.5-.5 2.199-1.099 16.5-3.971 16.5-7-4.26 0-12.998 3.251-17.5 1-23.503-11.751-20.5-57.381-20.5-83 0-7.118-5.342-26.815-2-33.5 2.459-4.919 4.51-10.019 7-15l5-5.5Z"/><path fill="#CACAC9" id="lotd" d="m183 124-4 2.5c0 .363 16.014-2.5 4-2.5ZM268 124c0 .544 8.403 3.549 9.5 3 1.62-.81-7.778-3-9.5-3ZM190 125c0 3.644 9.359 0 0 0ZM263 125c0 2.112 5.567 0 0 0ZM262 126c0 1.93 1.93 0 0 0Z"/><path fill="#99D2BD" id="OLF" d="m150 128-1 1 1-1ZM307 129l1 1-1-1ZM149 130l-1 1 1-1ZM309 133l1 1-1-1ZM147 134l-1 1 1-1Z"/><path fill="#95E4C8" id="AOBgr" d="M182 134c0 1.984-3.278 3.945-2 6.5 4.351 8.703 13.926-6.5 2-6.5ZM270 134c0 1.804-2.182 5.136-1 7.5 3.545 7.091 15.185-7.5 1-7.5Z"/><path fill="#99D2BD" id="OLF" d="m310 135 1 2-1-2ZM146 136l-1 1 1-1ZM311 139l1 1-1-1ZM145 140l-1 2 1-2ZM312 141c1.579 0 1 2.855 1 4-1.579 0-1-2.855-1-4ZM144 144c-1.643 0-1 3.765-1 5 1.643 0 1-3.765 1-5ZM143 154c1.473 0 1 1.952 1 3-1.473 0-1-1.952-1-3ZM313 155c-1.579 0-1 2.855-1 4 1.579 0 1-2.855 1-4ZM144 159c1.473 0 1 1.952 1 3-1.473 0-1-1.952-1-3ZM227 160c1.763 0 1 8.343 1 10v32c0 1.741.773 11-1 11v-53ZM312 162l-1 2 1-2ZM145 165c1.473 0 1 1.952 1 3-1.473 0-1-1.952-1-3ZM311 167c-1.473 0-1 1.952-1 3 1.473 0 1-1.952 1-3ZM146 169c1.473 0 1 1.952 1 3-1.473 0-1-1.952-1-3ZM309 172h1v-2l-1 2Z"/><path fill="#C7CBCA" id="onl" d="M155 210c0 1.665 8.702 13 10 13l-4-8.5v-8c-1.637-3.274-.431-7.861-2-11l-6-13c-.827-1.655-4.291-10.5-6-10.5v7c1.579 0 1 2.855 1 4v1l1 2v4l1 2v1l1 2v4l1 2v1l1 2v2l2 4ZM309 173h1v-1h-1v1ZM301 211c0 .999-6.172 9-8 9l2-4.5v-6c1.765-3.529.296-8.591 2-12l6-14c.827-1.655 4.291-10.5 6-10.5v9l-1 2v1c-1.473 0-1 1.952-1 3v4l-1 2v1l-1 2v3c-1.473 0-1 1.952-1 3l-1 2v3l-1 2-1 1Z"/><path fill="#99D2BD" id="OLF" d="m310 173-1 2v-2h1ZM147 179c1.579 0 1 2.855 1 4-1.579 0-1-2.855-1-4ZM309 182l-1 2 1-2ZM148 184l1 2-1-2ZM308 185c-1.473 0-1 1.952-1 3 1.473 0 1-1.952 1-3ZM149 190l1 2-1-2ZM307 192l-1 2 1-2ZM150 193l1 2-1-2ZM306 195l-1 2 1-2ZM151 199l1 2-1-2ZM305 200c-1.473 0-1 1.952-1 3 1.473 0 1-1.952 1-3ZM152 202l1 2-1-2ZM304 203l-1 2 1-2ZM153 206l2 4c-2.109 0-2-2.535-2-4ZM303 208l-1 2 1-2ZM302 210l-1 1 1-1Z"/><path fill="#C7CBCA" id="onl" d="m293 221-1 2 1-2ZM292 223l-1 1 1-1ZM165 225l1 1-1-1ZM173 236l1 1-1-1ZM282 237l-1 1 1-1ZM279 240l-2 1 2-1ZM277 241c-1.747 0-2 .253-2 2l2-2ZM275 243l-2 1 2-1Z"/></svg>