<svg xmlns="http://www.w3.org/2000/svg" viewBox="0 0 456 320"><path fill="#1E9C59" id="MOs1" d="M135 75v6c4.319 0 9.677-6.088 13.5-8 8.828-4.414 41.311-16.845 51-12h5c3.048 1.524 12.5 7.378 12.5 11l4-3c0-5.718-8.58-10.04-12.5-12-17.282-8.641-39.359.18-55 8-2.362 1.181-18.5 8.09-18.5 10ZM322 75c0 1.424-.362 5-2 5-5.197 0-11.934-6.717-16.5-9-11.071-5.536-25.001-5.5-36-11-6.842-3.42-17.783 2.891-22 5l-6.5 6-4-2c0-7.988 13.895-11.698 18.5-14 13.154-6.577 43.256 6.128 55 12l13.5 8Z"/><path fill="#1E9D58" id="MOs2/3" d="m135 82 2 3.5V98c3.7 0 7.286-5.393 10.5-7 10.934-5.467 30.447-20 42.5-20 4.571 0 21-.089 21 6h1l5-5c0-3.622-9.452-9.476-12.5-11h-5c-9.689-4.845-42.172 7.586-51 12-3.823 1.912-9.181 8-13.5 8v1ZM321 82v4.5l-2 1V98l-13.5-9c-8.778-4.389-17.196-9.598-26-14-4.762-2.381-18.715-7.143-25-4l-9.5 5-6-3v-2l6.5-6c4.217-2.109 15.158-8.42 22-5 10.999 5.5 24.929 5.464 36 11 4.566 2.283 11.303 9 16.5 9l1 2Z"/><path fill="#3EA665" id="ACAd1" d="M222 94h12c0-4.144.124-21 5-21v-2l-4-2-3.5 5c-1.795 1.795-.461 7-3 7-1.709 0-5.043-12-7.5-12l-4 3 4 5.5c2.087 4.173 1 11.544 1 16.5Z"/><path fill="#1F9D58" id="MOs5" d="M137 99c.471 0 1 5.815 1 8 0 7.008-1 11.89-1 19l4.5-5c3.433-3.433 7.363-7.682 12-10 7.048-3.524 13.885-7.443 21-11l15-5c2.116-1.058 2.898 2 4.5 2h1c0-7.146 16-15.06 16-20 0-6.089-16.429-6-21-6-12.053 0-31.566 14.533-42.5 20-3.214 1.607-6.8 7-10.5 7v1ZM319 99c0 6.487-1 10.003-1 15.5 0 3.634 2 8.688 2 12.5l-11.5-12c-8.808-4.404-17.288-9.644-26-14-2.087-1.043-19.5-9.365-19.5-4h-1c0-5.83-9.743-9.985-12-14.5l-5-5.5v-1l9.5-5c6.285-3.143 20.238 1.619 25 4 8.804 4.402 17.222 9.611 26 14l13.5 9v1Z"/><path fill="#40A565" id="ACAd2/3" d="M222 94c-1.564 0-3.876 1-6 1l-1-12.5-3-5.5 5-5 4 5.5c2.087 4.173 1 11.544 1 16.5ZM234 94l6 1 1-11.5 4-6.5v-1l-6-3c-4.876 0-5 16.856-5 21Z"/><path fill="#1E9D5A" id="MOp1" d="m98 170-5 1c0-7.028-8.074-29.352-4-37.5l3-10 8-14c3.013-6.026 9.947-9.894 13-16 1.809-3.619 18.354-18.5 22-18.5v7c-5.39 0-9.832 8.666-14.5 11-9.423 4.712-26.5 33.633-26.5 45 0 7.527-1.151 17.198 2 23.5.652 1.303.22 7.5 2 7.5v1ZM359 170l4 1c1.781 0 1.348-6.197 2-7.5 3.411-6.823 2-17.361 2-25.5 0-18.944-15.028-36.528-28-49.5-2.629-2.63-14.234-13.5-17-13.5 0 1.424-.362 5-2 5l1 2c3.706 0 18.333 13.167 20 16.5 1.352 2.705 6.276 5.553 8 9 3.599 7.198 8.416 13.833 12 21v4c6.02 12.04-2 24.846-2 36.5v1Z"/><path fill="#3EA566" id="ACAd5" d="M195 97c0 2.25 4 2.259 4 5 6.063 0 11.537-7 17-7l-1-12.5-3-5.5h-1c0 4.94-16 12.854-16 20ZM262 97l-5 5c-5.397 0-11.193-7-17-7l1-11.5 4-6.5 5 5.5c2.257 4.515 12 8.67 12 14.5Z"/><path fill="#1F9C58" id="MOp2/3" d="M110 164c-4.025 0-7.554 5-12 5-1.78 0-1.348-6.197-2-7.5-3.151-6.302-2-15.973-2-23.5 0-11.367 17.077-40.288 26.5-45 4.668-2.334 9.11-11 14.5-11l2 3.5V99c-4.392 0-7.134 8.317-10.5 10-2.501 1.25-4.958 4.415-6.5 7.5-1.853 3.706-5.165 6.33-7 10-5.603 11.205-3 24.015-3 36.5v1ZM346 164c4.236 0 8.194 5 13 5 0-11.654 8.02-24.46 2-36.5v-4c-3.584-7.167-8.401-13.802-12-21-1.724-3.447-6.648-6.295-8-9-1.667-3.333-16.294-16.5-20-16.5v4.5l-2 1V99c3.409 0 9.457 7.957 12.5 11 17.294 17.294 14.5 30.454 14.5 53v1Z"/><path fill="#2FA74F" id="PL2/3" d="M219 133h4c0-12.64-1-25.824-1-39-1.564 0-3.876 1-6 1 0 4.374-.505 30.49 1 33.5l2 4.5Z"/><path fill="#2FA750" id="PL1" d="M223 133h10c0-12.191 1-26.124 1-39h-12c0 13.176 1 26.36 1 39Z"/><path fill="#2FA74F" id="PL2/3" d="M233 133h5c0-12.339 2-25.047 2-38l-6-1c0 12.876-1 26.809-1 39Z"/><path fill="#1D9C5A" id="MOs6a" d="M167 133c-12.796 0-26.116 16-32 16v-17c0-2.72 2-3.553 2-6l4.5-5c3.433-3.433 7.363-7.682 12-10 7.048-3.524 13.885-7.443 21-11l15-5c2.116-1.058 2.898 2 4.5 2 0 4.592-9 12.104-9 18-1.617 0-4 4.583-4 6-4.133 0-6.157 2.329-9.5 4-.744.372-2.51 4-.5 4l-4 4Z"/><path fill="#2EA84F" id="PL5" d="m204 132 15 1-2-4.5c-1.505-3.01-1-29.126-1-33.5-5.463 0-10.937 7-17 7v1c.759 0 2 5.671 2 6.5 0 8.234 3 14.682 3 22.5ZM252 132l-14 1c0-12.339 2-25.047 2-38 5.807 0 11.603 7 17 7v1c0 9.34-5 19.789-5 29Z"/><path fill="#1D9C5A" id="MOs6a" d="M289 133c9.64 0 15.603 6.052 23.5 10 2.506 1.253 5.672 6 8.5 6v-19l-1-1v-2l-11.5-12c-8.808-4.404-17.288-9.644-26-14-2.087-1.043-19.5-9.365-19.5-4l9 18 3 6c4.038 0 16.233 8 11 8l3 4Z"/><path fill="#3FA664" id="ACAd6a" d="M199 103c-5.915 0-8.842 12-14 12 0-5.896 9-13.408 9-18h1c0 2.25 4 2.259 4 5v1ZM257 103c6.551 0 8.605 12 15 12l-9-18h-1l-5 5v1Z"/><path fill="#1E9C5A" id="MOp5" d="M133 150c-8.138 0-14.705 13-23 13 0-12.485-2.603-25.295 3-36.5 1.835-3.67 5.147-6.294 7-10 1.542-3.085 3.999-6.25 6.5-7.5 3.366-1.683 6.108-10 10.5-10 .471 0 1 5.815 1 8 0 7.008-1 11.89-1 19 0 2.447-2 3.28-2 6-3.499 0-2 15.819-2 18ZM324 150c5.536 0 16.173 13 22 13 0-22.546 2.794-35.706-14.5-53-3.043-3.043-9.091-11-12.5-11 0 6.487-1 10.003-1 15.5 0 3.634 2 8.688 2 12.5v1l1 1v2c1.014 0 2 3.959 2 5 0 4.351 1 9.131 1 14Z"/><path fill="#2FA850" id="PL6a" d="m195 131 9 1c0-7.818-3-14.266-3-22.5 0-.829-1.241-6.5-2-6.5-5.915 0-8.842 12-14 12-1.617 0-4 4.583-4 6 1.577 0 2 1.762 2 3 4.476 0 7.396 7 12 7ZM261 131c-2.723 0-5.778 1-9 1 0-9.211 5-19.66 5-29 6.551 0 8.605 12 15 12l3 6-2 3c-3.847 0-7.374 7-12 7Z"/><path fill="#268E44" id="FRP6a" d="M171 129h2l6-4h4v-1c0-1.238-.423-3-2-3-4.133 0-6.157 2.329-9.5 4-.744.372-2.51 4-.5 4ZM277 125c3.242 0 5.319 4 9 4 5.233 0-6.962-8-11-8l-2 3v1h4Z"/><path fill="#22885E" id="ORBm6a" d="M200 163v1l3.5 3c4.763 2.382 4.5-5.339 4.5-8v-1c-1.722 0-2.368-5.235-3-6.5L195 131c-4.604 0-7.524-7-12-7v1c0 8.055 17 23.994 17 38ZM256 163v1l-3.5 3c-3.842 1.921-4.5-4.649-4.5-7v-1c1.325 0 2.43-5.361 3-6.5 2.213-4.426 10-17.242 10-21.5 4.626 0 8.153-7 12-7v1c0 10.033-17 24.251-17 38Z"/><path fill="#24895D" id="ORBl6a" d="M173 129h6v-4l-6 4Z"/><path fill="#238A5C" id="ORBvl6a" d="M185 151c5.544 0 12.636 12 15 12 0-14.006-17-29.945-17-38h-4v3c6.561 0 7.056 10 0 10 0 4.559 5 7.744 5 12l1 1ZM271 151c-4.821 0-12.239 12-15 12 0-13.749 17-27.967 17-38h4v3c-5.824 0-5.824 10 0 10 0 4.518-4 7.028-4 11l-1 1-1 1Z"/><path fill="#24895D" id="ORBl6a" d="m305 155 3 6c-7.546 0-15.983-8.741-22.5-12H273c0-3.972 4-6.482 4-11h1c10.49 0 7.448-10-1-10v-3c3.242 0 5.319 4 9 4l3 4c0 2.289 14 14.831 14 19l2 2v1Z"/><path fill="#22895E" id="ORBvl6b" d="M179 129v9c7.056 0 6.561-10 0-10v1ZM277 138h1c0-3.51-1-7.022-1-10-5.824 0-5.824 10 0 10Z"/><path fill="#248A5C" id="ORBl6b" d="M277 128c8.448 0 11.49 10 1 10 0-3.51-1-7.022-1-10Z"/><path fill="#1F9D58" id="MOs5" d="M320 129h1l-1-1v1Z"/><path fill="#24895D" id="ORBl6a" d="M151 155c0 2.447-2 3.28-2 6 5.912 0 12.362-7.431 17.5-10 5.867-2.933 11.468-1 17.5-1 0-4.256-5-7.441-5-12-8.649 0-6-2.815-6-9h-2l-4 4c0 3.375-13 13.525-13 18l-1 1v1l-2 2Z"/><path fill="#248A5C" id="ORBl6b" d="M179 129v9c-8.649 0-6-2.815-6-9h6Z"/><path fill="#1F9B5A" id="MOp6a" d="M321 129v1l-1-1h1Z"/><path fill="#58B362" id="ILA6a" d="M204 132c0 8.6 4 16.761 4 26-1.722 0-2.368-5.235-3-6.5L195 131l9 1ZM252 132l-4 27c1.325 0 2.43-5.361 3-6.5 2.213-4.426 10-17.242 10-21.5-2.723 0-5.778 1-9 1Z"/><path fill="#1F9B5A" id="MOp6a" d="m321 149 3 1c0-4.869-1-9.649-1-14 0-1.041-.986-5-2-5v18ZM135 149l-2 1c0-2.181-1.499-18 2-18v17Z"/><path fill="#59B262" id="ILA5" d="M208 159c3.19 0 2.276 14 7 14 4.879 0 2.844-7.188 4-9.5 3.929-7.857 0-21.558 0-30.5l-15-1c0 8.6 4 16.761 4 26v1ZM248 160c-2.064 0-.426 3.353-1 4.5-.871 1.742-5.275 9.5-6 9.5l-4-7.5c-2.832-5.663 1-27.121 1-33.5l14-1-4 27v1Z"/><path fill="#209666" id="AId6a" d="M145 161h1l5-6c0-1.747.253-2 2-2v-1l1-1c0-4.475 13-14.625 13-18-12.796 0-26.116 16-32 16l-2 1c0 7.84 4.537 11 12 11Z"/><path fill="#59B362" id="ILA2/3" d="M220 177h1c0-1.93 2.998-15.496 4-17.5 2.396-4.792-2-20.27-2-26.5h-4c0 8.942 3.929 22.643 0 30.5-1.156 2.312.879 9.5-4 9.5v1c1.947 0 2.636 3 5 3Z"/><path fill="#59B263" id="ILA1" d="m236 177-7 2v-4c0-6.211-1-8.466-1-1-1.643 0-1 3.765-1 5-.986 0-6-1.087-6-2 0-1.93 2.998-15.496 4-17.5 2.396-4.792-2-20.27-2-26.5h10l-1 33.5 4 10.5Z"/><path fill="#59B362" id="ILA2/3" d="M236 177h1l4-2v-1l-4-7.5c-2.832-5.663 1-27.121 1-33.5h-5l-1 33.5 4 10.5Z"/><path fill="#209666" id="AId6a" d="M310 161h1c6.953 0 13-3.536 13-11l-3-1c-2.828 0-5.994-4.747-8.5-6-7.897-3.948-13.86-10-23.5-10 0 2.289 14 14.831 14 19l2 2v1c1.777 0 5 4.013 5 6Z"/><path fill="#228A5D" id="ORBl5" d="m189 170-4.5-3c-3.439-1.72-12.363.681-15 2L148 182c-1.845 0-1.441-3.381-2-4.5-4.712-9.425 2-9.351 2-16.5h1c5.912 0 12.362-7.431 17.5-10 5.867-2.933 11.468-1 17.5-1l1 1c0 4.37 4 10.092 4 19Z"/><path fill="#24895D" id="ORBl6a" d="m273 149-1 1 1-1Z"/><path fill="#228A5D" id="ORBl5" d="M268 171c0-5.005 8.418-4 11.5-4 9.019 0 23.365 15 28.5 15l2-2.5c5.349-10.698-1-9.272-1-18.5h-1c-7.546 0-15.983-8.741-22.5-12H273l-1 1-1 1c0 6.897-4 12.263-4 20h1Z"/><path fill="#209665" id="AId5" d="M119 190h1l7.5-7c3.48-3.48 17.5-17.963 17.5-22-7.463 0-12-3.16-12-11-8.138 0-14.705 13-23 13v1c0 7.617 9 22.298 9 26Z"/><path fill="#23885C" id="ORBvl5" d="m272 150-1 1 1-1Z"/><path fill="#209665" id="AId5" d="M346 164c0 8.259-9 24.803-9 26l-5.5-5c-3.456-1.728-20.5-21.254-20.5-24 6.953 0 13-3.536 13-11 5.536 0 16.173 13 22 13v1Z"/><path fill="#1F9866" id="AIv6a" d="m154 151-1 1 1-1Z"/><path fill="#23885C" id="ORBvl5" d="m189 171 11 8c0-2.029-1.191-1.881-2-3.5-.875-1.75 2-8.619 2-11.5v-1c-2.364 0-9.456-12-15-12 0 4.37 4 10.092 4 19v1ZM267 171l-11 8c0-2.477 2.011-2.522 3-4.5l-2-3-1-7.5v-1c2.761 0 10.179-12 15-12 0 6.897-4 12.263-4 20Z"/><path fill="#1F9866" id="AIv6a" d="m303 152 2 2-2-2ZM153 153c-1.747 0-2 .253-2 2l2-2ZM148 161h1c0-2.72 2-3.553 2-6l-5 6h2ZM309 161h1c0-1.987-3.223-6-5-6l3 6h1Z"/><path fill="#23885E" id="ORBm5" d="M201 180h7l7-6v-1c-4.724 0-3.81-14-7-14 0 2.661.263 10.382-4.5 8l-3.5-3c0 2.881-2.875 9.75-2 11.5.809 1.619 2 1.471 2 3.5l1 1ZM248 180h7l1-1c0-2.477 2.011-2.522 3-4.5l-2-3-1-7.5-3.5 3c-3.842 1.921-4.5-4.649-4.5-7-2.064 0-.426 3.353-1 4.5-.871 1.742-5.275 9.5-6 9.5v1c1.424 0 7 3.98 7 5Z"/><path fill="#1F9865" id="AIv5" d="M148 183c-5.162 0-12.644 10-20 10-1.93 0-8-.84-8-3l7.5-7c3.48-3.48 17.5-17.963 17.5-22h3c0 7.149-6.712 7.075-2 16.5.559 1.119.155 4.5 2 4.5v1ZM337 190v1c-3.434 0-7.693 3.904-11.5 2-4.406-2.203-12.689-10-17.5-10v-1l2-2.5c5.349-10.698-1-9.272-1-18.5h2c0 2.746 17.044 22.272 20.5 24l5.5 5Z"/><path fill="#209765" id="AId2/3" d="M119 190c0 2.077-7.561 6-10 6-2.203 0-2.344-4.189-3-5.5L98 170v-1c4.446 0 7.975-5 12-5 0 7.617 9 22.298 9 26ZM347 197h1l11-27v-1c-4.806 0-8.764-5-13-5 0 8.259-9 24.803-9 26v1c1.48 0 10 4.971 10 6Z"/><path fill="#238A5E" id="ORBl2/3" d="m148 183 2 4 12.5-6c5.021-2.51 13.522-2 19.5-2h5c0-3.015 2-6.004 2-8v-1l-4.5-3c-3.439-1.72-12.363.681-15 2L148 182v1ZM308 183l-1 4-10.5-5c-6.086-3.043-15.215-3-22.5-3h-4c0-3.138-2-5.662-2-8 0-5.005 8.418-4 11.5-4 9.019 0 23.365 15 28.5 15v1Z"/><path fill="#209764" id="AId1" d="m109 197-4 1c-1.186 0-3.454-4.408-4-5.5L93 171l5-1 8 20.5c.656 1.311.797 5.5 3 5.5v1ZM348 197l4 1c0-5.514 11-19.465 11-27l-4-1-11 27Z"/><path fill="#248A5D" id="ORBvl2/3" d="M198 180h2v-1l-11-8c0 1.996-2 4.985-2 8 3.642 0 8.002 1 11 1ZM256 180h3c2.998 0 7.358-1 11-1 0-3.138-2-5.662-2-8h-1l-11 8v1Z"/><path fill="#24885D" id="ORBm2/3" d="M208 180h11l1-3c-2.364 0-3.053-3-5-3l-7 6Z"/><path fill="#99D2BD" id="OLF" d="M227 180h2v-5l-1-1c-1.643 0-1 3.765-1 5v1Z"/><path fill="#24885D" id="ORBm2/3" d="M238 180h10c0-1.02-5.576-5-7-5l-4 2 1 3Z"/><path fill="#23895D" id="ORBm1" d="M219 180h8v-1c-.986 0-6-1.087-6-2h-1l-1 3ZM229 180h9l-1-3h-1l-7 2v1Z"/><path fill="#6ACAB9" id="PIR" d="M129 231c13.66 0 21.524 14 32 14 13.845 0 6-16.796 6-23v-1c-4.004 0-10.111-15.277-8-19.5 3.42-6.84 23-16.955 23-22.5-5.978 0-14.479-.51-19.5 2l-12.5 6-9 6-1 1-2 1-1 1-1 1h-1l-1 1-1 1-2 1c0 2.363-13.681 10-16 10l-1 6.5c2.694 5.388 7.642 14.5 15 14.5Z"/><path fill="#99D2BD" id="OLF" d="m163 248 3.5-2c3.06 1.53 8.031 5 11.5 5l-7-8.5c-3.366-6.733 5.482-21.5 12-21.5l-6-5.5-2-7c-1.002-2.004 3.589-7.956 6.5-6.5 2.516 1.258 3.226 9 4.5 9 2.261 0 .297-6.094 1-7.5 2.943-5.887 2.482-16.5 12-16.5l-1-7c-2.998 0-7.358-1-11-1h-5c0 5.545-19.58 15.66-23 22.5-2.111 4.223 3.996 19.5 8 19.5l-5-14.5c-2.545-5.091 7.124-6.688 9.5-5.5 2.531 1.266 2.62 20.69 0 22l-4.5-1c0 6.204 7.845 23-6 23l2 3Z"/><path fill="#24885D" id="ORBm2/3" d="M200 180h1l-1-1v1ZM255 180h1v-1l-1 1Z"/><path fill="#99D2BD" id="OLF" d="m295 251-2 1c0-11.527-8.971-1-15-1 0-2.014 12.068-9.365 7-19.5-1.374-2.748-3.385-5.942-6.5-7.5-1.185-.592-4.5-1.012-4.5-3l3-2.5c1.072-2.145 2.647-4.293 4-7 1.719-3.439-1.982-11.759-6.5-9.5-2.585 1.293-3.149 11-4.5 11 0-8.832-1.966-26-13-26 0-2.16 2-4.167 2-7 2.998 0 7.358-1 11-1h4c0 5.101 20.248 15.997 23 21.5 2.406 4.811-3.774 21.5-8 21.5l-4.5 1c-3.441-1.72-2.457-20.272 1-22 3.45-1.725 11.365 1.769 8.5 7.5l-5 13.5c0 5.968-6.984 23 6 23v6Z"/><path fill="#6ACAB9" id="PIR" d="M327 232c0-2.285-6.153-1.174-8.5 0-6.787 3.393-15.653 13-23.5 13-12.984 0-6-17.032-6-23 4.226 0 10.406-16.689 8-21.5-2.752-5.503-23-16.399-23-21.5 7.285 0 16.414-.043 22.5 3l10.5 5c0 1.391 5.706 5 7 5l1 1 4 3 1 1h1l2 2h1c0 2.496 14.672 11 17 11 0 9.102-.13 14.315-9.5 19l-4.5 3Z"/><path fill="#A3DAA3" id="DP" d="M229 193c4.946 0 11.465-2.517 16.5 0 .919.459 2.5-.765 2.5 1 2.126 0 9-4.322 9-7 0-2.16 2-4.167 2-7h-61l1 7 5.5 5 3.5 2 4.5-2c3.807-1.904 11.122 1 14.5 1 .839 0 2-1.93 2 0Z"/><path fill="#219764" id="AIv2/3" d="m133 199-2 1c-7.29 0-14.548 10.404-20-.5l-2-2.5v-1c2.439 0 10-3.923 10-6h1c0 2.16 6.07 3 8 3 7.356 0 14.838-10 20-10l2 4-9 6-1 1-2 1-1 1-1 1h-1l-1 1-1 1ZM323 199h1c7.749 0 12.09 10.41 20 2.5 1.463-1.463 3-2.383 3-4.5 0-1.029-8.52-6-10-6-3.434 0-7.693 3.904-11.5 2-4.406-2.203-12.689-10-17.5-10l-1 4c0 1.391 5.706 5 7 5l1 1 4 3 1 1h1l2 2Z"/><path fill="#54BF94" id="AON" d="M178 251h1c2.919 0 8.127 5.686 11.5 4 2.217-1.109 10.356-9 10.5-9v-1l1-1 1-2 1-1 1-1 1-1 1-1 11-9v-9c-3.181 0-2.185-4.87-3-6.5l-7-19.5-3.5-2-5.5-5c-9.518 0-9.057 10.613-12 16.5-.703 1.406 1.261 7.5-1 7.5 0 3.233 1.461 10-3 10-6.518 0-15.366 14.767-12 21.5l7 8.5ZM274 253h1l1-1 2-1c0-2.014 12.068-9.365 7-19.5-1.374-2.748-3.385-5.942-6.5-7.5-1.185-.592-4.5-1.012-4.5-3-4.627 0-4-4.095-4-8 0-8.832-1.966-26-13-26 0 2.678-6.874 7-9 7 0 1.304-6.155 21.809-7 23.5l-3 3.5c0 2.707 1 5.903 1 8l12 11 1 1 1 1 9.5 11c3.87 1.935 5.183 1 9.5 1l2-1Z"/><path fill="#61D09F" id="TTd" d="M218 220c6.769 0 12.684 1 20 1l3-3.5c.845-1.691 7-22.196 7-23.5 0-1.765-1.581-.541-2.5-1-5.035-2.517-11.554 0-16.5 0 0 4.77-2 3.625-2 0-3.378 0-10.693-2.904-14.5-1l-4.5 2 7 19.5c.815 1.63-.181 6.5 3 6.5Z"/><path fill="#99D2BD" id="OLF" d="M227 193c.839 0 2-1.93 2 0 0 4.77-2 3.625-2 0Z"/><path fill="#209864" id="AIv1" d="m314 192 1 1-1-1ZM141 193l-1 1 1-1ZM138 195l-1 1 1-1ZM137 196l-1 1 1-1ZM319 196l1 1-1-1ZM131 200c0 2.363-13.681 10-16 10-4.065 0-10-7.636-10-12l4-1 2 2.5c5.452 10.904 12.71.5 20 .5ZM135 197l-1 1 1-1ZM321 197l2 2-2-2ZM324 199c0 2.496 14.672 11 17 11 4.131 0 11-8.086 11-12l-4-1h-1c0 2.117-1.537 3.037-3 4.5-7.91 7.91-12.251-2.5-20-2.5ZM134 198l-1 1 1-1ZM133 199l-2 1 2-1Z"/><path fill="#A0EE9C" id="EPd" d="M167 221v1l4.5 1c2.62-1.31 2.531-20.734 0-22-2.376-1.188-12.045.409-9.5 5.5l5 14.5ZM289 222l5-13.5c2.865-5.731-5.05-9.225-8.5-7.5-3.457 1.728-4.441 20.28-1 22l4.5-1Z"/><path fill="#CBCBC7" id="aco" d="M186 211c-1.274 0-1.984-7.742-4.5-9-2.911-1.456-7.502 4.496-6.5 6.5l2 7 6 5.5c4.461 0 3-6.767 3-10ZM270 213c1.351 0 1.915-9.707 4.5-11 4.518-2.259 8.219 6.061 6.5 9.5-1.353 2.707-2.928 4.855-4 7l-3 2.5c-4.627 0-4-4.095-4-8Z"/><path fill="#99D2BD" id="OLF" d="M218 229h21c0-2.097-1-5.293-1-8-7.316 0-13.231-1-20-1v9Z"/><path fill="#62CF9E" id="TTv" d="M218 255c2.503 0 7.69-9.879 9-12.5.383-.766-.316-3.5 1.5-3.5l3.5 7.5 3 5 4 4.5c2.097 0 3.71 2.105 5.5 3 1.733.867 3.744-1.372 5-2 10.096-5.048 3.5-8.606 3.5-15l-1-1-1-1-12-11h-21l-11 9-1 1-1 1-1 1-1 1-1 2-1 1v1c0 4.784 4.547 16.476 11.5 13l4.5-3 1-1Z"/><path fill="#CAC8C7" id="lot" d="M295 245v6c5.497 0 32-15.714 32-19 0-2.285-6.153-1.174-8.5 0-6.787 3.393-15.653 13-23.5 13ZM163 249l-1 2c-6.071 0-33-15.246-33-20 13.66 0 21.524 14 32 14l2 3v1Z"/><path fill="#99D2BD" id="OLF" d="m207 238-1 1 1-1ZM205 240l-1 1 1-1ZM251 240l1 1-1-1ZM204 241l-1 1 1-1ZM247 263l-1 1c-1.782 0-7-6.482-7-8 2.097 0 3.71 2.105 5.5 3 1.733.867 3.744-1.372 5-2 10.096-5.048 3.5-8.606 3.5-15l9.5 11c3.87 1.935 5.183 1 9.5 1 0 1.513-5.017 2-6.5 2-3.84 0-18.5 2.041-18.5 7ZM202 244l-1 1 1-1Z"/><path fill="#7FCCF7" id="OT" d="M209 263v1c0 2.67-6.875 1.187-8.5 2-3.896 1.948-22.544-4.772-27-7l-8.5-6-1-1-1-3v-1l3.5-2c3.06 1.53 8.031 5 11.5 5h1c0 6.409 30 3.749 30 12Z"/><path fill="#99D2BD" id="OLF" d="m209 263 1 1c2.073 0 7-6.148 7-8l-4.5 3c-6.953 3.476-11.5-8.216-11.5-13-.144 0-8.283 7.891-10.5 9-3.373 1.686-8.581-4-11.5-4 0 6.409 30 3.749 30 12Z"/><path fill="#7FCCF7" id="OT" d="m247 263 1 2c2.253 0 6.469.984 8.5 2 1.372.686 19.026-5.013 21-6 2.162-1.081 13.311-8 14.5-8l1-1c0-11.527-8.971-1-15-1l-2 1-1 1h-1l-2 1c0 1.513-5.017 2-6.5 2-3.84 0-18.5 2.041-18.5 7Z"/><path fill="#99D2BD" id="OLF" d="m162 251 2 1-1-3-1 2ZM278 251l-2 1 2-1Z"/><path fill="#97D6F9" id="STR" d="m164 252 1 1-1-1Z"/><path fill="#99D2BD" id="OLF" d="m276 252-1 1 1-1ZM293 252l-1 1 1-1ZM274 253l-2 1 2-1ZM218 255l-1 1 1-1Z"/><path fill="#97D6F9" id="STR" d="M209 264h1l-1-1v1ZM246 264l2 1-1-2-1 1Z"/></svg>