<svg xmlns="http://www.w3.org/2000/svg" viewBox="0 0 456 320"><path fill="#1E9D5A" id="MOp1" d="M196 31h1v-5l-24 1c-.969 0-7 1.147-7 2l-1 5c10.706 0 20.067-3 31-3Z"/><path fill="#1E9C59" id="MOs1" d="M222 44h1l4-2-2-2.5C219.586 28.671 208.048 26 197 26v5c7.981 0 25 2.18 25 13ZM229 42l5 2c0-9.473 17.942-13 25-13v-5c-11.989 0-17.376 2.876-26 11.5l-4 4.5Z"/><path fill="#1E9D5A" id="MOp1" d="M260 31c11.028 0 20.256 3 31 3v-5c0-.954-6.385-2-7.5-2L259 26v5h1Z"/><path fill="#187F60" id="SSp-ll1" d="M137 36c0 1.947 3 2.636 3 5 7.01 0 15.515-6 24-6l1-1 1-5c-10.846 0-22.1 7-29 7ZM315 41h1l3-5c0-1.15-4.516-1.508-5.5-2-6.397-3.198-14.827-5-22.5-5v5l1 1c7.88 0 17.819 6 23 6Z"/><path fill="#1F9C58" id="MOp2/3" d="m162 50-1 5c10.21 0 20.995-13 32-13l1-1 2-10c-10.933 0-20.294 3-31 3l-1 1c0 5.599-2 9.98-2 15Z"/><path fill="#1E9D58" id="MOs2/3" d="M216 49h1c0-3.273 5-2.009 5-5 0-10.82-17.019-13-25-13h-1l-2 10c6.238 0 22-1.42 22 8ZM234 44c1.287 0 3.637 4 6 4 .669 0 6.785-6.143 8.5-7H262l-2-10h-1c-7.058 0-25 3.527-25 13Z"/><path fill="#1F9C58" id="MOp2/3" d="m294 50 1 5c-9.781 0-22.604-14-33-14l-2-10c11.028 0 20.256 3 31 3l1 1c0 5.218 2 10.852 2 15Z"/><path fill="#187F64" id="SSp-ll2/3" d="M162 50c-5.085 0-10.197 4-15 4 0-3.74-7-9.062-7-13 7.01 0 15.515-6 24-6 0 5.599-2 9.98-2 15ZM309 54h2c0-5.227 4-8.456 4-13-5.181 0-15.12-6-23-6 0 5.218 2 10.852 2 15 3.278 0 7.67 1.585 10.5 3 1.147.574 4.5-1.064 4.5 1Z"/><path fill="#197E64" id="SSp-ul1" d="M107 50c0 2.25 2 3.376 2 5 9.117 0 21.34-14 31-14 0-2.364-3-3.053-3-5-6.544 0-25.681 14-30 14ZM349 50c0 1.424-.362 5-2 5-7.717 0-22.113-14-31-14l3-5c5.643 0 17.216 7.358 22.5 10l7.5 4Z"/><path fill="#197F61" id="SSp-ul2/3" d="M109 56c0 4.285 4 7.723 4 13 6.963 0 24.466-15 34-15 0-3.74-7-9.062-7-13-9.66 0-21.883 14-31 14v1Z"/><path fill="#1F9D58" id="MOs5" d="M204 59h1c0-2.192 9.058-10 11-10 0-9.42-15.762-8-22-8l-1 1c0 5.606-4 10.887-4 16 2.185 0 15-5.24 15 1ZM251 59h1c0-5.68 13.085-1 15-1 0-5.897-5-11.531-5-17h-13.5c-1.715.857-7.831 7-8.5 7v1c2.53 0 11 7.625 11 10Z"/><path fill="#1E9C5A" id="MOp5" d="M268 59c8.414 0 18.578 13 28 13 0-4.488-1-10.526-1-16v-1c-9.781 0-22.604-14-33-14 0 5.469 5 11.103 5 17l1 1Z"/><path fill="#197F61" id="SSp-ul2/3" d="M347 56c0 4.803-4 8.547-4 13l-18.5-10c-1.96-.98-13.5-2.622-13.5-5 0-5.227 4-8.456 4-13h1c8.887 0 23.283 14 31 14v1Z"/><path fill="#1E9C5A" id="MOp5" d="M189 59c-10.103 0-18.52 13-29 13l1-16v-1c10.21 0 20.995-13 32-13 0 5.606-4 10.887-4 16v1Z"/><path fill="#3EA665" id="ACAd1" d="M233 67c-3.325 0-7.31 1-10 1V44l4-2c0 1.919 2 2.488 2 0l5 2c0 6.965-1 15.38-1 23Z"/><path fill="#40A565" id="ACAd2/3" d="m223 68-5 1-1-20c0-3.273 5-2.009 5-5h1v24ZM233 68l6 1c0-6.573 1-14.1 1-20v-1c-2.363 0-4.713-4-6-4 0 6.965-1 15.38-1 23v1Z"/><path fill="#3EA566" id="ACAd5" d="M218 69c-3.985 0-7.49 6-11 6 0-4.848-2-10.965-2-16 0-2.192 9.058-10 11-10h1l1 20ZM239 69l11 6 1-16c0-2.375-8.47-10-11-10 0 5.9-1 13.427-1 20Z"/><path fill="#1B8062" id="SSp-un1" d="M91 60c0 .811 2.876 4 4 4l14-8v-1c0-1.624-2-2.75-2-5L91 60Z"/><path fill="#1C7F64" id="SSp-ll4" d="m161 56-12 5-2-7c4.803 0 9.915-4 15-4l-1 5v1ZM295 56l12 5c1.663 0 2-5.407 2-7 0-2.064-3.353-.426-4.5-1-2.83-1.415-7.222-3-10.5-3l1 5v1Z"/><path fill="#1B8062" id="SSp-un1" d="M361 65h1c0-1.947 3-2.636 3-5l-3.5-3-12.5-7c0 1.424-.362 5-2 5v1c2.258 0 14 6.683 14 9Z"/><path fill="#1A7F63" id="SSp-ul4" d="m113 69 4 7c9.806 0 21.725-14 32-14v-1l-2-7c-9.534 0-27.037 15-34 15ZM339 77h1c0-2.748 3-5.804 3-8l-18.5-10c-1.96-.98-13.5-2.622-13.5-5h-2c0 1.593-.337 7-2 7v1c8.173 0 17.482 7.491 24.5 11l7.5 4Z"/><path fill="#1C7F63" id="SSp-un2/3" d="M101 75h2l10-6c0-5.277-4-8.715-4-13l-14 8v1c0 2.444 6 5.821 6 10Z"/><path fill="#197C63" id="SSp-ll5" d="m160 73-7 2-4-13v-1l12-5-1 16v1Z"/><path fill="#1D9C5A" id="MOs6a" d="m191 79-4 1V65.5l2-6.5v-1c2.185 0 15-5.24 15 1 0 4.88-10 12.011-10 19h-1l-2 1ZM269 80h1c0-7.62-2-13.803-2-21l-1-1c-1.915 0-15-4.68-15 1 0 3.907 11 13.46 11 19 2.483 0 4.026 2 6 2Z"/><path fill="#197C63" id="SSp-ll5" d="M303 75h1c0-4.798 3-8.617 3-13v-1l-12-5c0 5.474 1 11.512 1 16l1 1 6 2Z"/><path fill="#1C7F63" id="SSp-un2/3" d="M354 75h1c0-4.42 6-6.17 6-10 0-2.317-11.742-9-14-9 0 4.803-4 8.547-4 13l11 6Z"/><path fill="#1F9B5A" id="MOp6a" d="M159 91h1c3.396 0 6.052-4 10-4 0-1.995 4.377-2 6-2 0-1.638 3.576-2 5-2 0-1.638 3.576-2 5-2l1-1V65.5l2-6.5c-10.103 0-18.52 13-29 13v1c0 6.971-1 11.828-1 18Z"/><path fill="#3FA664" id="ACAd6a" d="M198 83h1c0-1.876 5.652-7 8-7v-1c0-4.848-2-10.965-2-16h-1c0 4.88-10 12.011-10 19 0 1.302 4 2.641 4 5ZM258 83h1c0-1.238.423-3 2-3l2-1v-1c0-5.54-11-15.093-11-19h-1l-1 16v1c1.734 0 8 5.01 8 7Z"/><path fill="#1F9B5A" id="MOp6a" d="M270 80c6.1 0 21.416 11 27 11V73l-1-1c-9.422 0-19.586-13-28-13 0 7.197 2 13.38 2 21Z"/><path fill="#197E63" id="SSp-n1" d="m50 113 5 3c0-11.233 17.331-31.831 26-40.5C84.135 72.365 90.659 65 95 65v-1c-1.124 0-4-3.189-4-4-3.743 0-7.225 6.362-10.5 8-9.893 4.947-30.5 35.095-30.5 45ZM401 116h1c0-1.077 3.762-3 5-3 0-9.032-22.994-41.247-32.5-46-3.175-1.587-5.79-7-9.5-7 0 2.364-3 3.053-3 5 3.932 0 7.099 6.3 10.5 8 10.201 5.1 28.5 32.598 28.5 43Z"/><path fill="#187E62" id="SSp-ul5" d="M117 77c0 3.767 5 7.535 5 11 4.339 0 23.58-13 31-13l-4-13c-10.275 0-22.194 14-32 14v1ZM339 77c0 4.193-4 7.454-4 11-6.442 0-22.958-13-31-13 0-4.798 3-8.617 3-13 8.173 0 17.482 7.491 24.5 11l7.5 4Z"/><path fill="#1B7F64" id="SSp-n2/3" d="M55 117c3.23 0 5.26 5 8 5 0-9.039 16.09-30.59 23-37.5 3.792-3.792 6.121-5.31 10.5-7.5 1.119-.56 4.5-.155 4.5-2 0-4.179-6-7.556-6-10-4.341 0-10.865 7.365-14 10.5-8.669 8.669-26 29.267-26 40.5v1ZM393 122h1l7-6c0-10.402-18.299-37.9-28.5-43-3.401-1.7-6.568-8-10.5-8h-1c0 3.83-6 5.58-6 10 0 1.845 3.381 1.44 4.5 2 3.705 1.853 7.866 3.866 11 7 7.487 7.487 22.5 28.302 22.5 38Z"/><path fill="#40A664" id="ACAv1" d="m229 93 5 6c0-10.047-1-20.446-1-31v-1c-3.325 0-7.31 1-10 1 0 10.355-1 21.268-1 31l5-6c0-4.252 2-4.466 2 0Z"/><path fill="#3FA566" id="ACAv2/3" d="m222 100-3 1c-1.725 0-1-6.052-1-7.5V69l5-1c0 10.355-1 21.268-1 31v1ZM235 101h3l1-32-6-1c0 10.554 1 20.953 1 31l1 2Z"/><path fill="#197E61" id="SSp-un4" d="M106 83h1c0-2.268 8.031-6 10-6v-1l-4-7-10 6c0 3.22 3 5.108 3 8Z"/><path fill="#3EA666" id="ACAv5" d="M211 100c.922 0 8 4.056 8 1-1.725 0-1-6.052-1-7.5V69c-3.985 0-7.49 6-11 6v1c0 8.357 3 15.59 3 23l1 1ZM246 99h1v-1c0-7.237 3-14.606 3-22v-1l-11-6-1 32c0 3.4 7.316-2 8-2Z"/><path fill="#197E61" id="SSp-un4" d="M350 83h1c0-3.238 3-5.3 3-8l-11-6c0 2.196-3 5.252-3 8l10 6Z"/><path fill="#1A7F64" id="SSp-ll6a" d="M158 92h1v-1c0-6.172 1-11.029 1-18l-7 2 5 17ZM298 92h1c0-5.993 4-10.831 4-17l-6-2v18l1 1Z"/><path fill="#1A8062" id="SSp-n4" d="M68 127h1c0-8.398 19.574-33.037 25.5-36 3.55-1.775 7.43-8 11.5-8 0-2.892-3-4.78-3-8h-2c0 1.845-3.381 1.44-4.5 2-4.379 2.19-6.708 3.708-10.5 7.5-6.91 6.91-23 28.461-23 37.5v1c1.562 0 5 2.189 5 4Z"/><path fill="#197D61" id="SSp-ul6a" d="M158 92c-6.824 0-24.969 12-30 12 0-1.853-5.35-15-7-15l1-1c4.339 0 23.58-13 31-13l5 17ZM328 104h1c0-2.168 4.157-15 6-15v-1c-6.442 0-22.958-13-31-13h-1c0 6.169-4 11.007-4 17l6.5 3 18 6 4.5 3Z"/><path fill="#1A8062" id="SSp-n4" d="M387 127h1l5-5c0-9.698-15.013-30.513-22.5-38-3.134-3.134-7.295-5.147-11-7-1.119-.56-4.5-.155-4.5-2h-1c0 2.7-3 4.762-3 8l10 6.5c4.444 8.889 26 23.586 26 37.5Z"/><path fill="#40A564" id="ACAv6a" d="m208 97 2 2c0-7.41-3-14.643-3-23-2.348 0-8 5.124-8 7 0 6.231 9 11.014 9 14ZM249 97l-2 1c0-7.237 3-14.606 3-22 1.734 0 8 5.01 8 7l-1 4c-1.617 0-4 4.583-4 6-2.226 0-4 1.774-4 4Z"/><path fill="#197D62" id="SSp-un5" d="M111 93h2l8-4 1-1c0-3.465-5-7.233-5-11-1.969 0-10 3.732-10 6l4 10ZM344 93h1l5-10-10-6h-1c0 4.193-4 7.454-4 11v1c3.681 0 5.758 4 9 4Z"/><path fill="#1E9C58" id="MOs6b" d="M191 79h2v-1l-2 1Z"/><path fill="#3FA466" id="ACAd6b" d="M197 83h1c0-2.359-4-3.698-4-5h-1v1l4 4Z"/><path fill="#1E9C58" id="MOs6b" d="M269 80v1l-6-2v-1c2.483 0 4.026 2 6 2ZM187 80v1l4-2-4 1Z"/><path fill="#CACCC7" id="cing" d="m210 99 1 1c-10.251 0-12.98-10.24-20.5-14-6.285-3.142-13.135 4-18.5 4l-1 1h-7c0-2.517 6-.996 6-4 1.623 0 6-.005 6-2 1.622 0 5 .46 5-2 1.622 0 5 .46 5-2h1l4-2h2l4 4c0 3.871 6.295 14 11 14l2 2Z"/><path fill="#3FA466" id="ACAd6b" d="m263 79-2 1 2-1Z"/><path fill="#CACCC7" id="cing" d="M247 98v1c9.36 0 11.288-9.394 18.5-13 6.254-3.127 13.203 4 18.5 4l1 1h7c0-1.746-3.332-2.416-4.5-3-2.391-1.196-16.608-7-18.5-7l-6-2-2 1c0 1.238-.423 3-2 3 0 1.466.109 4-2 4 0 2.522-1.432 6-4 6 0 1.365-2.366 4-4 4l-2 1Z"/><path fill="#1D9D5A" id="MOp6b" d="M186 81h1v-1l-1 1Z"/><path fill="#3FA466" id="ACAd6b" d="M261 80c-1.577 0-2 1.762-2 3 1.577 0 2-1.762 2-3Z"/><path fill="#1D9D5A" id="MOp6b" d="M297 91v2c-1.624 0-2.75-2-5-2 0-1.746-3.332-2.416-4.5-3-2.391-1.196-16.608-7-18.5-7v-1h1c6.1 0 21.416 11 27 11ZM186 81c-1.424 0-5 .362-5 2 1.622 0 5 .46 5-2Z"/><path fill="#197E62" id="SSp-n5" d="m69 127 2 1c3.535 0 6.232-3 10-3h1c0-7.676 11.94-21.72 18.5-25 1.894-.947 10.5-4.44 10.5-7l-4-10h-1c-4.07 0-7.95 6.225-11.5 8-5.926 2.963-25.5 27.602-25.5 36Z"/><path fill="#1D9D5A" id="MOp6b" d="M181 83c-1.424 0-5 .362-5 2 1.622 0 5 .46 5-2Z"/><path fill="#40A465" id="ACAv6b" d="M199 83c0 6.231 9 11.014 9 14-4.705 0-11-10.129-11-14h2ZM259 83c0 1.466.109 4-2 4l1-4h1Z"/><path fill="#197E62" id="SSp-n5" d="m387 127-2 1c-4.434 0-6.86-3-10-3 0-5.624-11.937-21.219-17.5-24-2.113-1.056-12.5-5.302-12.5-8l5-10h1l10 6.5c4.444 8.889 26 23.586 26 37.5Z"/><path fill="#1D9D5A" id="MOp6b" d="M176 85c-1.623 0-6 .005-6 2 1.623 0 6-.005 6-2Z"/><path fill="#C9C7C9" id="ccb" d="M89 156v3l4-7.5c3.77-7.54 8.779-16.779 15-23 18.021-18.021 32.878-25.5 59-25.5 0-3.58 5.264-4.882 7.5-6 15.474-7.737 22.735 8 29.5 8 6.611 0 12.07 5 18 5l2 1h2l1-1h2l2 1h1c0-1.473 1.952-1 3-1 0-1.014 3.959-2 5-2 4.465 0 7.991-3 13-3h1l1-1 2-1c0-1.577 1.762-2 3-2 0-1.577 1.762-2 3-2l2-1c0-4.667 24-3.949 24 5 15.181 0 27.059 1.78 39.5 8 4.531 2.266 7.392 7.696 12 10l10.5 10.5c4.02 8.04 10.013 15.025 14 23 .695 1.39 2.272 8.5 4 8.5l-2-8-2-4v-1c-2.23 0-5.083-9.666-6-11.5-4.308-8.617-15.183-22.841-24.5-27.5-12.042-6.021-25.091-9.046-37-15-1.848-.924-10.5-2.397-10.5-5h-2l-1-1c-5.297 0-12.246-7.127-18.5-4-7.212 3.606-9.14 13-18.5 13 0 1.186-1 1.186-1 0-.684 0-8 5.4-8 2h-3c-3.379 0-8.092.704-9.5 0-1.046-.523-3.5.951-3.5-1l-3 1c0 3.056-7.078-1-8-1-10.251 0-12.98-10.24-20.5-14-6.285-3.142-13.135 4-18.5 4l-1 1h-1c0 1.722-5.235 2.368-6.5 3-5.299 2.65-10.726 4.363-16 7-2.815 1.408-7.156.578-10 2-7.45 3.725-14.07 8.535-21 12l-9.5 9c0 1.758-6.222 11-8 11l-2 4-2 4-2 4-1 2-1 2v1l-1 2v1l-1 1Z"/><path fill="#1D9D5A" id="MOp6b" d="m164 91-4 1v-1c3.396 0 6.052-4 10-4 0 3.004-6 1.483-6 4Z"/><path fill="#40A465" id="ACAv6b" d="M257 87c-1.617 0-4 4.583-4 6 2.568 0 4-3.478 4-6Z"/><path fill="#1A7F61" id="SSp-un6a" d="M120 108h1l2-1 2-1 2-1 1-1c0-1.853-5.35-15-7-15l-8 4c0 2.089 5.101 15 7 15ZM335 108h2l7-15c-3.242 0-5.319-4-9-4-1.843 0-6 12.832-6 15l5 3 1 1Z"/><path fill="#C9C9CA" id="scwm" d="m172 90-1 1 1-1ZM284 90l1 1-1-1Z"/><path fill="#197F62" id="SSp-ll6b" d="M159 92h1v-1h-1v1Z"/><path fill="#C9C9CA" id="scwm" d="M112 117c0 2.696-5 3.847-5 7l9.5-9c6.93-3.465 13.55-8.275 21-12 2.844-1.422 7.185-.592 10-2 5.274-2.637 10.701-4.35 16-7 1.265-.632 6.5-1.278 6.5-3h-6l-4 1-1 1h-1l-6.5 3c-.475.475-22.604 9-23.5 9h-1l-2 1-2 1v1l-2 1-1 1h-1l-7 7ZM363 144l2 6c-2.23 0-5.083-9.666-6-11.5-4.308-8.617-15.183-22.841-24.5-27.5-12.042-6.021-25.091-9.046-37-15-1.848-.924-10.5-2.397-10.5-5h5c2.25 0 3.376 2 5 2h1c6.42 0 24.46 12 30 12l6 3 1 1h1c0 2.158 7.062 8 9 8 0 3.564 18 20.393 18 27Z"/><path fill="#197F62" id="SSp-ll6b" d="M297 93h1v-1l-1-1v2Z"/><path fill="#1C8064" id="SSp-ul6b" d="M128 104v1c.896 0 23.025-8.525 23.5-9l6.5-3v-1c-6.824 0-24.969 12-30 12Z"/><path fill="#197F62" id="SSp-ll6b" d="M158 93h1v-1h-1v1Z"/><path fill="#1D9D5A" id="MOp6b" d="m160 92-1 1v-1h1Z"/><path fill="#1C8064" id="SSp-ul6b" d="M328 104v1c-5.54 0-23.58-12-30-12v-1h1l6.5 3 18 6 4.5 3Z"/><path fill="#187D62" id="SSp-n6a" d="M110 117h1c0-2.073 6.148-7 8-7l1-1v-1c-1.899 0-7-12.911-7-15h-2c0 2.56-8.606 6.053-10.5 7-6.56 3.28-18.5 17.324-18.5 25 1.688 0 4.409-.954 6.5-2l1-2c7.069 0 13.337-4 20.5-4Z"/><path fill="#7ED04B" id="IG" d="M222 100c0 1.951 2.454.477 3.5 1 1.408.704 6.121 0 9.5 0l-1-2-5-6h-2l-5 6v1Z"/><path fill="#40A465" id="ACAv6b" d="M253 93c-2.226 0-4 1.774-4 4 1.634 0 4-2.635 4-4Z"/><path fill="#187D62" id="SSp-n6a" d="M347 117c6.493 0 13.663 4 19.5 4 .128 0 5.846 4 8.5 4 0-5.624-11.937-21.219-17.5-24-2.113-1.056-12.5-5.302-12.5-8h-1l-7 15v1c1.838 0 8 6.842 8 8h2Z"/><path fill="#AAA8A9" id="SEZ" d="m204 105-1 1c0-1.615-5.22-3.36-6.5-4l-8-5c-3.391-1.696-18.5 1.477-18.5 5.5l1 2.5-4-2c0-3.58 5.264-4.882 7.5-6 15.474-7.737 22.735 8 29.5 8ZM289 103l-4 2 1-3.5c-3.545-7.09-15.271-3.5-21-3.5 0-4.667 24-3.949 24 5Z"/><path fill="#A8AAAA" id="VL" d="m191 173 2 1v-6l-3-6.5V144l1-1c0-2.707 1-5.903 1-8 0-10.969 11-22.66 11-29 0-1.615-5.22-3.36-6.5-4l-8-5c-3.391-1.696-18.5 1.477-18.5 5.5l1 2.5 10 18.5c3.184 6.367 2 15.869 2 23.5 0 1.49-.735 8 1 8 0-4.107-.722-9.055 1-12.5 1.839-3.678.083-9.166 2-13l2.5-2.5c3.373 1.687.5 5.427.5 7.5 0 1.061-3.592 21.184-4 22l-2-.5c0 5.437 5 13.162 5 15v1l1 1h1Z"/><path fill="#A8AAAA" id="VL" fill-rule="evenodd" d="M266 127c0 7.211.991 15.482 4 21.5.637 1.275-.917 8.5 1.5 8.5l.5-8.5c0-5.656.637-21.5-6-21.5m-2 47h1l1-1 1-1 1-1 1-2 4-11.5V146c0-9.035.246-18.992 4-26.5 2.166-4.332 8-9.494 8-14.5l1-3.5c-3.545-7.09-15.271-3.5-21-3.5l-2 1c0 1.577-1.762 2-3 2 0 1.577-1.762 2-3 2l-2 1-1 1h-1c0 8.899 11 17.62 11 29 1.643 0 1 3.765 1 5v2l1 2c0 4.158 3.233 13.034 1 17.5l-3 6.5v7Z"/><path fill="#AAA8A9" id="SEZ" d="m265 98-2 1 2-1Z"/><path fill="#CACCC7" id="cing" d="M246 99h1c0 1.186-1 1.186-1 0Z"/><path fill="#AAA8A9" id="SEZ" d="M263 99c-1.238 0-3 .423-3 2 1.238 0 3-.423 3-2ZM260 101c-1.238 0-3 .423-3 2 1.238 0 3-.423 3-2Z"/><path fill="#98D5F9" id="CP" d="M136 227c-4.813 0-11.664 8-21 8-6.871 0-12.995-10-16-10v-1l-2-2v-1c0-1.238-.423-3-2-3v-1l-2-4v-2c0-.975-3.504-9-4-9v-1c0-1.424-.362-5-2-5v-1c0-1.424-.362-5-2-5v-1c0-1.406.714-7-1-7v-8l1-1v-4l1-1v-1l1-2v-1c1.638 0 2-3.576 2-5l4-7.5c3.77-7.54 8.779-16.779 15-23 18.021-18.021 32.878-25.5 59-25.5l4 2 10 18.5c3.184 6.367 2 15.869 2 23.5l-6 7.5-9 5c-3.26 6.52 1 13.616 1 19.5l2 3v22.5l-4 4.5-6 2-1 1-1 1h-1l-1 1c-1.294 0-7 3.609-7 5-2.166 0-11 3.416-11 6-1.238 0-3 .423-3 2Z"/><path fill="#AAA8A9" id="SEZ" d="m257 103-2 1 2-1Z"/><path fill="#98D5F9" id="CP" d="M352 231c-3.482 0-6.186 4-10 4-13.375 0-23.411-10.455-34.5-16-2.624-1.312-6.565-6-9.5-6-2.864 0-5.35-4-9-4l-4-4v-22l1-2 1-2v-1c3.022 0 2-10.162 2-12.5 0-10.422-8.494-5.988-12-13-.713-1.426-1.764-6.5-4-6.5 0-9.035.246-18.992 4-26.5 2.166-4.332 8-9.494 8-14.5l4-2c15.181 0 27.059 1.78 39.5 8 4.531 2.266 7.392 7.696 12 10l10.5 10.5c4.02 8.04 10.013 15.025 14 23 .695 1.39 2.272 8.5 4 8.5v1l2 4 1 8v10c-1.643 0-1 3.765-1 5-1.638 0-2 3.576-2 5v1c-1.638 0-2 3.576-2 5v1c-1.353 0-2 4.643-2 6l-1 2-1 2-2 6-1 1-1 2v1l-1 1-1 1c-1.712 0-3 2.571-3 4l-1 1-1 1Z"/><path fill="#1A7D63" id="SSp-un6b" d="M127 105h1v-1l-1 1Z"/><path fill="#AAA8A9" id="SEZ" d="m255 104-1 1 1-1Z"/><path fill="#1A7D63" id="SSp-un6b" d="M334 107v1l-6-3v-1h1l5 3ZM127 105l-2 1 2-1Z"/><path fill="#90CBEC" id="LSc" d="m192 135 1 1c5.605 0 29-17.549 29-24v-2c-5.93 0-11.389-5-18-5l-1 1c0 6.34-11 18.031-11 29ZM264 134l-1 2c-5.858 0-29-18.4-29-25l1-1c0-1.014 3.959-2 5-2 4.465 0 7.991-3 13-3 0 8.899 11 17.62 11 29Z"/><path fill="#1A7D63" id="SSp-un6b" d="m125 106-2 1 2-1ZM121 108h2v-1l-2 1Z"/><path fill="#188064" id="SSp-m6b" d="M335 108v1l-1-1v-1l1 1Z"/><path fill="#1A7D63" id="SSp-un6b" d="m121 109-1 1v-2h1v1Z"/><path fill="#188064" id="SSp-m6b" d="m123 108-2 1v-1h2Z"/><path fill="#1A7D63" id="SSp-un6b" d="M336 109h1v-1h-2v1h1Z"/><path fill="#1B7E64" id="SSp-n6b" d="M119 110h1v-1l-1 1ZM337 109c1.838 0 8 6.842 8 8-1.938 0-9-5.842-9-8h1ZM111 117h1l7-7c-1.852 0-8 4.927-8 7Z"/><path fill="#97D6F9" id="STR" d="m224 111-2 1v-2l2 1Z"/><path fill="#CBC8CC" id="df" d="m227 110-1 1 1-1Z"/><path fill="#97D6F9" id="STR" d="m229 113-2 1-1-3 1-1h2l2 1-2 2Z"/><path fill="#CBC8CC" id="df" d="m229 110 2 1-2-1Z"/><path fill="#97D6F9" id="STR" d="M232 111h2l1-1c-1.048 0-3-.473-3 1Z"/><path fill="#90CAED" id="LSr" d="M202 139c-3.541 0-6.145 3-10 3 0-2.124 1-4.436 1-6 5.605 0 29-17.549 29-24l2-1h2l1 3c0 4.374-9.821 19-15 19l-8 4-1 1-1 1ZM265 141l-1 1c-4.444 0-6.98-4-11-4l-8-5c-5.626 0-16-15.345-16-20l2-2h3c0 6.6 23.142 25 29 25l2 3v2Z"/><path fill="#1A7E62" id="SSs1" d="M37 176h5c0-16.438 1.152-33.803 8-47.5.933-1.866 2.687-11.5 5-11.5v-1l-5-3c-1.093 0-5.017 13.533-6 15.5-6.75 13.499-7 31.28-7 47.5Z"/><path fill="#8FCBEC" id="SF" d="M195 169c0-6.888 5.449-8.398 8-13.5 4.568-9.136 14.978-17.239 23.5-21.5 3.87-1.935 10.554 3.554 13 6 8.125 8.125 21.5 19.5 21.5 29 2.215 0 1.519-2 3-2l3-6.5c2.233-4.466-1-13.342-1-17.5l-2-1c-4.444 0-6.98-4-11-4 0 6.426-8.104 7.291-11 1.5-1.578-3.155 3-4.241 3-6.5-5.626 0-16-15.345-16-20l-2 1c0 4.374-9.821 19-15 19 0 3.461 4.071 3.359 2 7.5-1.922 3.843-12 3.595-12-1.5-3.541 0-6.145 3-10 3l-1 1-1 1v17.5l3 6.5 2 1Z"/><path fill="#1A7E62" id="SSs1" d="M414 176h5c0-7.498.631-30.239-2-35.5L407 113c-1.238 0-5 1.923-5 3 0 4.841 6.638 18.776 9 23.5 3.59 7.179 3 27.135 3 36.5Z"/><path fill="#1B8063" id="SSs2/3" d="M406 176h8c0-9.365.59-29.321-3-36.5-2.362-4.724-9-18.659-9-23.5h-1l-7 6c0 5.576 4.531 14.561 7 19.5 4.07 8.14 5 24.501 5 34.5ZM42 176h8c0-14.398 2.963-30.426 9-42.5.883-1.765 1.45-10.5 4-10.5v-1c-2.74 0-4.77-5-8-5-2.313 0-4.067 9.634-5 11.5-6.848 13.697-8 31.062-8 47.5Z"/><path fill="#187D61" id="SSp-m6a" d="m78 134 14 9c3.476 0 4.41-14 9-14 0-4.577 9-7.791 9-12-7.163 0-13.431 4-20.5 4l-1 2c-2.091 1.046-4.812 2-6.5 2h-1l-3 8v1Z"/><path fill="#188064" id="SSp-m6b" d="m107 124-6 5c0-4.577 9-7.791 9-12h2c0 2.696-5 3.847-5 7ZM363 144h1v-1c0-8.148-17-20.305-17-26h-2c0 3.564 18 20.393 18 27Z"/><path fill="#187D61" id="SSp-m6a" d="M378 133c0 2.751-11.588 10-14 10 0-8.148-17-20.305-17-26 6.493 0 13.663 4 19.5 4 .128 0 5.846 4 8.5 4l3 8Z"/><path fill="#187C63" id="SSs4" d="M401 176h5c0-9.999-.93-26.36-5-34.5-2.469-4.939-7-13.924-7-19.5h-1l-5 5c0 4.608 4.948 11.396 7 15.5 3.464 6.927 6 24.14 6 32.5v1ZM50 176h5v-1c0-7.108 3.007-25.514 6-31.5 2.28-4.559 7-11.253 7-16.5 0-1.811-3.438-4-5-4-2.55 0-3.117 8.735-4 10.5-6.037 12.074-9 28.102-9 42.5Z"/><path fill="#C9C9CA" id="scwm" d="m101 129-2 6c1.778 0 8-9.242 8-11l-6 5Z"/><path fill="#1B7E63" id="SSp-m5" d="m71 128 7 5 3-8c-3.768 0-6.465 3-10 3ZM378 133h1l6-5c-4.434 0-6.86-3-10-3l3 8Z"/><path fill="#1C8063" id="SSs5" d="M55 175h14c0-10.992.436-23.371 5-32.5l4-8.5v-1l-7-5-2-1h-1c0 5.247-4.72 11.941-7 16.5-2.993 5.986-6 24.392-6 31.5Z"/><path fill="#A9AAA8" id="chpl" d="M184 155v1l2 .5c.408-.816 4-20.939 4-22 0-2.073 2.873-5.813-.5-7.5l-2.5 2.5c-1.917 3.834-.161 9.322-2 13-1.722 3.445-1 8.393-1 12.5ZM266 127c0 7.211.991 15.482 4 21.5.637 1.275-.917 8.5 1.5 8.5l.5-8.5c0-5.656.637-21.5-6-21.5Z"/><path fill="#1C8063" id="SSs5" d="M388 175h13c0-8.36-2.536-25.573-6-32.5-2.052-4.104-7-10.892-7-15.5h-1l-2 1-6 5c0 3.817 2.426 6.352 4 9.5 2.805 5.611 5 25.235 5 32.5Z"/><path fill="#188064" id="SSp-m6b" d="M92 144h1l2-1c0-1.465-.109-4 2-4 0-1.465-.109-4 2-4l2-6c-4.59 0-5.524 14-9 14v1Z"/><path fill="#CBC8CB" id="fi" d="m203 138-1 1c0 5.095 10.078 5.343 12 1.5 2.071-4.141-2-4.039-2-7.5l-8 4-1 1ZM245 133l8 5c0 6.426-8.104 7.291-11 1.5-1.578-3.155 3-4.241 3-6.5Z"/><path fill="#197D63" id="SSs6a" d="M374 175h14c0-7.265-2.195-26.889-5-32.5-1.574-3.148-4-5.683-4-9.5h-1c0 2.751-11.588 10-14 10v1c2.033 0 2.261 7.021 3 8.5 2.986 5.972 7 15.581 7 22.5ZM69 175h14c0-2.412 1.58-14 4-14 0-6.196 5-11.506 5-17v-1l-14-9-4 8.5c-4.564 9.129-5 21.508-5 32.5Z"/><path fill="#96A7D2" id="TRS" d="M238 181h2c3.736 0 12.866-4 15-4 0-3.05 6-4.483 6-8 0-9.5-13.375-20.875-21.5-29-2.446-2.446-9.13-7.935-13-6-8.522 4.261-18.932 12.364-23.5 21.5-2.551 5.102-8 6.612-8 13.5l6 8c1.598 0 6.853 2.177 8.5 3 1.324.662 6.5-1.207 6.5 1h2c2.373 0 0-2.284 0-3 0-14.842 20-15.105 20 0l-1 1 1 2Z"/><path fill="#97D6F9" id="STR" d="m263 136 2 3c0-1.235.643-5-1-5l-1 2Z"/><path fill="#C9C9CA" id="scwm" d="M99 135c-2.109 0-2 2.535-2 4l2-4Z"/><path fill="#97D6F9" id="STR" d="m192 142-1 1c0-2.707 1-5.903 1-8l1 1c0 1.564-1 3.876-1 6Z"/><path fill="#8FCBEC" id="SF" d="m204 137-1 1 1-1ZM203 138l-1 1 1-1Z"/><path fill="#C9C9CA" id="scwm" d="M97 139c-2.109 0-2 2.535-2 4l2-4Z"/><path fill="#97D6F9" id="STR" d="m264 142 2 1-1-2-1 1Z"/><path fill="#C9C9CA" id="scwm" d="M93 144v3l2-4-2 1Z"/><path fill="#97D6F9" id="STR" d="m191 143-1 1 1-1Z"/><path fill="#1A8061" id="SSs6b" d="m89 159-2 2c0-6.196 5-11.506 5-17h1v3l-1 2-1 2v1l-1 2v1l-1 1v3ZM372 176h1l1-1c0-6.919-4.014-16.528-7-22.5-.739-1.479-.967-8.5-3-8.5h-1l2 6v1l2 4 2 8v1l2 4 1 8Z"/><path fill="#97D6F9" id="STR" d="M281 168c0-1.061 4.587-10.325 6-7.5V178c3.022 0 2-10.162 2-12.5 0-10.422-8.494-5.988-12-13-.713-1.426-1.764-6.5-4-6.5v11.5l-4 11.5c1.996 0 4.985-2 8-2l4 1Z"/><path fill="#C9C9CA" id="scwm" d="m93 147-1 2 1-2Z"/><path fill="#97D6F9" id="STR" d="m169 179 2 1c0-4.249-4.472-11.557-2-16.5 2.893-5.786 6-.367 6 4.5l4-1c5.69 0 7.593 4 10 4 0-1.838-5-9.563-5-15v-1c-1.735 0-1-6.51-1-8l-6 7.5-9 5c-3.26 6.52 1 13.616 1 19.5Z"/><path fill="#C9C9CA" id="scwm" d="m92 149-1 2 1-2ZM365 151l2 4-2-4ZM91 152l-1 2 1-2ZM90 155l-1 1 1-1Z"/><path fill="#C9C7C9" id="ccb" d="M87 161v3c1.638 0 2-3.576 2-5l-2 2Z"/><path fill="#CCC" d="m173 197 1 2 1 4c0 8.838 3-4.079 3-7v-17.5l-3-10.5c0-4.867-3.107-10.286-6-4.5-2.472 4.943 2 12.251 2 16.5v2l1 1c0 4.121 1 9.275 1 14ZM284 184c0 5.139-1 10.395-1 16-2.414 0 .493 6-2.5 6-1.546 0-1.5-8.04-1.5-9.5 0-3.536-2.965-11.071-1-15 1.391-2.781 3-10.58 3-13.5 0-1.061 4.587-10.325 6-7.5V178l-1 1v1l-1 1v2l-1 1Z"/><path fill="#1A8061" id="SSs6b" d="M83 176h1v-2l1-1v-4l1-1v-1l1-2v-4c-2.42 0-4 11.588-4 14v1Z"/><path fill="#C9C7C9" id="ccb" d="m369 164 2 4-2-4ZM87 165l-1 2 1-2Z"/><path fill="#A8A9AA" id="V3" d="m238 178-1 1c-5.643 0 2.122 32.311-12.5 25-3.507-1.754-.349-26-6.5-26 0-14.842 20-15.105 20 0Z"/><path fill="#8599CC" id="PAL" d="M172 219c0-10.225-6.914-5.793-12.5-3l-4.5 5 2-7 1-1h1l1-1 1-1 6-2c4.951 0 6-5.781 6-10h1l1 4c0 8.838 3-4.079 3-7v-17.5l-3-10.5 4-1v34.5c-1.57 3.14-3 10.001-3 13.5-1.887 0-.057 4-4 4Z"/><path fill="#B3C0DE" id="BST" fill-rule="evenodd" d="m181 175 2.5 8c2.834 0 2.206-8-2.5-8m22 58-4 1-10-1-6-4-1-1h-1l-4-3.5-1-9.5c0-3.499 1.43-10.36 3-13.5V167c5.69 0 7.593 4 10 4v1l1 1h1l8 8.5c.82 1.64 1.505 8.5 4 8.5 0 1.249 1.074 10 2 10v1l2 7 3 7.5c1.411 2.822-1 7.079-1 9.5-5.407 0-5 3.787-5 7l-1 1Z"/><path fill="#A8A9AA" id="V3" d="M263 175c-2.885 0-4.697 2-8 2 0-3.05 6-4.483 6-8 2.215 0 1.519-2 3-2v7l-1 1Z"/><path fill="#B3C0DE" id="BST" fill-rule="evenodd" d="m272 175-1 3c0 10.384 7.267-3 1-3m-16 59h1c3.51 0 7.022-1 10-1 3.205 0 5.091-5 8-5 0-.21 6-6.168 6-10v-3l-1-1c0-4.212-1.173-10.845-3-14.5-2.099-4.198 0-27.728 0-32.5-3.015 0-6.004 2-8 2l-1 2-1 1-1 1-1 1-2 1c0 2.177-9 10.884-9 15 0 1.057-2.628 11-3 11v1l-2 7-3 7.5 1 8.5c4.501 0 6 2.462 6 7v1h2l1 1Z"/><path fill="#8599CC" id="PAL" d="M284 219c0-9.434 8.436-7.064 13.5-2l4.5 5c0-3.016-4-6.525-4-9-2.864 0-5.35-4-9-4-3.115 0-4-.885-4-4v-1c-1.473 0-1-1.952-1-3l-1-1c-2.414 0 .493 6-2.5 6-1.546 0-1.5-8.04-1.5-9.5 0-3.536-2.965-11.071-1-15 1.391-2.781 3-10.58 3-13.5l-4-1c0 4.772-2.099 28.302 0 32.5 1.827 3.655 3 10.288 3 14.5l1 1v3l3 1Z"/><path fill="#C9C7C9" id="ccb" d="m86 168-1 1 1-1Z"/><path fill="#A8A9AA" id="V3" d="M193 174c0 1.291 6.457 3 8 3l-6-8-2-1v6Z"/><path fill="#97D6F9" id="STR" d="m269 169-1 2 1-2ZM268 171l-1 1 1-1ZM189 172l1 1-1-1ZM267 172l-1 1 1-1Z"/><path fill="#C8CBCC" id="ec" d="m85 173-1 1 1-1Z"/><path fill="#97D6F9" id="STR" fill-rule="evenodd" d="m203 181-1 2.5c2.402 4.805 7.793-2.5 1-2.5m0 9h1c0-5.897 3.59-3 7-3 2.263 0 5-3.888 5-6 0-2.207-5.176-.338-6.5-1-1.647-.823-6.902-3-8.5-3-1.543 0-8-1.709-8-3l-2-1 8 8.5c.82 1.64 1.505 8.5 4 8.5Z"/><path fill="#97D6F9" id="STR" d="m266 173-1 1 1-1ZM265 174l-2 1 1-1h1Z"/><path fill="#11AC82" id="VISC4" d="M52 188h1l3-1v-1c0-2.69-1-6.675-1-10h-5l2 12Z"/><path fill="#12AD82" id="VISC5" d="m69 183-13 3c0-2.69-1-6.675-1-10v-1h14v8Z"/><path fill="#11AC83" id="VISC6a" d="M83 181c-3.869 0-10.857 2-14 2v-8h14v6Z"/><path fill="#C8CBC7" id="st" d="m181 175 2.5 8c2.834 0 2.206-8-2.5-8Z"/><path fill="#97D6F9" id="STR" fill-rule="evenodd" d="m251 181-1 2.5c2.384 4.769 6.986-2.5 1-2.5m1 8 2 1c0-4.116 9-12.823 9-15-2.885 0-4.697 2-8 2-2.134 0-11.264 4-15 4 0 2.641 3.707 6 6 6 2.167 0 6-2.885 6 2Z"/><path fill="#C8CBC7" id="st" d="m272 175-1 3c0 10.384 7.267-3 1-3Z"/><path fill="#11AD82" id="VISC6b" d="M373 181h1v-6l-1 1v5Z"/><path fill="#11AC83" id="VISC6a" d="M387 183h1v-8h-14v5c1.613 0 13 1.678 13 3Z"/><path fill="#12AD82" id="VISC5" d="m388 183 13 3v-11h-13v8Z"/><path fill="#11AC82" id="VISC4" d="m401 187 3 1c0-3.741 2-7.636 2-12h-5v11Z"/><path fill="#12AD83" id="VISC1" d="m45 192-4 2c0-5.529-4-11.745-4-18h5c0 2.212.878 15 3 15v1Z"/><path fill="#12AC83" id="VISC2/3" d="M52 188c0 .886-5.824 3-7 3-2.122 0-3-12.788-3-15h8l2 12Z"/><path fill="#11AD82" id="VISC6b" d="M83 180h1v-4h-1v4Z"/><path fill="#C8CBCC" id="ec" d="M373 181c0 1.145.579 4-1 4v-9h1v5Z"/><path fill="#12AC83" id="VISC2/3" d="M411 192h1c0-5.348 2-10.12 2-16h-8c0 4.364-2 8.259-2 12l7 4Z"/><path fill="#12AD83" id="VISC1" d="m412 192 3 2c1.946 0 4-14.786 4-18h-5c0 5.88-2 10.652-2 16Z"/><path fill="#CAC7CB" id="fiber tracts" d="M233 216c0-5.847-9-5.546-9 1l-5.5-6-11.5-3-2-7 2 3.5 4.5 1.5c5.811 2.906 11.706-14.089 9.5-18.5l-3-6.5c2.373 0 0-2.284 0-3 6.151 0 2.993 24.246 6.5 26 14.622 7.311 6.857-25 12.5-25l1 2-2 4.5c-2.305 4.611 1.514 18.507 5.5 20.5 4.35 2.175 7.469-4 9.5-4l-2 7c-3.749 0-8.355.427-11.5 2l-4.5 5ZM238 178l-1 1 1-1Z"/><path fill="#97D6F9" id="STR" d="M286 179h1v-1l-1 1Z"/><path fill="#8598CC" id="GPe" d="M171 180v2l-2-3 2 1ZM286 180v1l1-2h-1v1Z"/><path fill="#009B74" id="GU6a" d="M80 193c-3.091 0-5.478 2-8 2 0-3.974-3-7.572-3-12 3.143 0 10.131-2 14-2v10l-3 2Z"/><path fill="#019C74" id="GU6b" d="M83 191h2v-2c-1.714 0-1-5.594-1-7v-2h-1v11Z"/><path fill="#97D6F9" id="STR" d="M285 181h1v-1l-1 1Z"/><path fill="#009B74" id="GU6a" d="M384 195h1c0-4.499 2-7.354 2-12 0-1.322-11.387-3-13-3v1l-1 10c2.215 0 1.519 2 3 2 1.611 0 8 .322 8 2Z"/><path fill="#8FCBED" id="LSv" d="m203 181-1 2.5c2.402 4.805 7.793-2.5 1-2.5Z"/><path fill="#C7C8CA" id="fx" d="M205 200v1l2 3.5 4.5 1.5c5.811 2.906 11.706-14.089 9.5-18.5l-3-6.5h-2c0 2.112-2.737 6-5 6l-5 7-1 6ZM251 201v1c-2.031 0-5.15 6.175-9.5 4-3.986-1.993-7.805-15.889-5.5-20.5l2-4.5h2c0 2.641 3.707 6 6 6l5 6v8Z"/><path fill="#8FCBED" id="LSv" d="m251 181-1 2.5c2.384 4.769 6.986-2.5 1-2.5Z"/><path fill="#8598CC" id="GPe" d="m286 181-1 2v-2h1Z"/><path fill="#019C74" id="GU6b" d="M372 191h1l1-10h-1c0 1.145.579 4-1 4v6Z"/><path fill="#C8CBCC" id="ec" d="M84 182c1.714 0 1 5.594 1 7-1.714 0-1-5.594-1-7Z"/><path fill="#97D6F9" id="STR" d="M171 183h1l-1-1v1Z"/><path fill="#019C75" id="GU5" d="M59 196v1c4.068 0 8.523-2 13-2 0-3.974-3-7.572-3-12l-13 3v1c0 3.078 3 6.325 3 9Z"/><path fill="#8598CC" id="GPe" d="M173 199c0 4.219-1.049 10-6 10l4-4.5V183h1c0 4.121 1 9.275 1 14v2Z"/><path fill="#97D6F9" id="STR" d="M284 184h1v-1l-1 1Z"/><path fill="#019C75" id="GU5" d="M397 196h1l3-9v-1l-13-3h-1c0 4.646-2 7.501-2 12l12 1Z"/><path fill="#8598CC" id="GPe" d="M284 201c0 1.048-.473 3 1 3v-20h-1c0 5.139-1 10.395-1 16l1 1Z"/><path fill="#CCC9C8" id="sm" d="m204 190 2 4 5-7c-3.41 0-7-2.897-7 3ZM252 189c0 1.145.579 4-1 4l-5-6c2.167 0 6-2.885 6 2Z"/><path fill="#C8CBCC" id="ec" d="M371 191h1v-5c-1.643 0-1 3.765-1 5Z"/><path fill="#009C74" id="GU4" d="M55 197h2l2-1c0-2.675-3-5.922-3-9l-3 1c0 3.68 2 5.511 2 9ZM400 197h1l3-9-3-1-3 9 2 1Z"/><path fill="#009B75" id="GU2/3" d="M47 199h1c2.765 0 5.164-2 7-2 0-3.489-2-5.32-2-9h-1c0 .886-5.824 3-7 3v1c0 2.583 2 3.934 2 7ZM408 199h1l2-7-7-4-3 9c3.145 0 3.855 2 7 2Z"/><path fill="#CAC7CB" id="fiber tracts" d="M251 193v8c.372 0 3-9.943 3-11l-2-1c0 1.145.579 4-1 4Z"/><path fill="#C8CBCC" id="ec" d="M86 195h1c0-1.424-.362-5-2-5v3l1 1v1Z"/><path fill="#CAC7CB" id="fiber tracts" d="m206 194-1 6c-.926 0-2-8.751-2-10h1l2 4Z"/><path fill="#8ADA86" id="CLA" d="M86 207h2l1-2v-3l-1-1-1-5-1-1v-1l-1-1v-2h-2l-3 2c0 4.684-2.114 14 6 14Z"/><path fill="#C8CBCC" id="ec" d="M369 196h1l1-4v-1c-1.638 0-2 3.576-2 5Z"/><path fill="#019C74" id="GU6b" d="m372 191-1 1v-1h1Z"/><path fill="#8ADA86" id="CLA" d="M369 207h2c7.763 0 5-9.552 5-14-1.481 0-.785-2-3-2h-1l-1 1-1 4-1 1v3l-1 1v1l-1 1v2l2 2Z"/><path fill="#009C75" id="GU1" d="m47 199-3 2-3-7 4-2c0 2.583 2 3.934 2 7ZM409 199l3 2c1.732 0 3-5.353 3-7l-3-2h-1l-2 7Z"/><path fill="#209766" id="AIp6a" d="M80 213h1c0-3.506 5-3.428 5-6-8.114 0-6-9.316-6-14-3.091 0-5.478 2-8 2l8 18ZM85 193l1 1-1-1ZM375 213h1c0-6.006 8-11.471 8-18 0-1.678-6.389-2-8-2 0 4.448 2.763 14-5 14 0 2.926 4 2.469 4 6Z"/><path fill="#219864" id="AIp5" d="m78 215-5 1c0-2.068-14-13.62-14-19 4.068 0 8.523-2 13-2l8 18-2 2Z"/><path fill="#209766" id="AIp6a" d="M87 195v1l-1-1h1Z"/><path fill="#219864" id="AIp5" d="m379 215 4 1c0-2.059 14-12.591 14-19v-1l-12-1h-1c0 6.529-8 11.994-8 18l3 2Z"/><path fill="#009B75" id="GU2/3" d="M57 197h2v-1l-2 1Z"/><path fill="#C8CBCC" id="ec" d="M88 201h1c0-1.424-.362-5-2-5l1 5Z"/><path fill="#209766" id="AIp6a" d="m370 196-1 1v-1h1Z"/><path fill="#009C74" id="GU4" d="M397 197h1v-1h-1v1Z"/><path fill="#009B75" id="GU2/3" d="M398 197h2l-2-1v1Z"/><path fill="#209865" id="AIp2/3" d="M73 216c0 1.165-8.453 4-10 4-1.425 0-15-18.949-15-21 2.765 0 5.164-2 7-2h4c0 5.38 14 16.932 14 19Z"/><path fill="#97D6F9" id="STR" d="M173 199h1l-1-2v2Z"/><path fill="#C8CBCC" id="ec" d="M367 202h1v-1l1-1v-3c-1.638 0-2 3.576-2 5Z"/><path fill="#209865" id="AIp2/3" d="M383 216c0 .865 8.68 4 10 4 2.547 0 15-18.266 15-21-3.145 0-3.855-2-7-2h-4c0 6.409-14 16.941-14 19Z"/><path fill="#219765" id="AIp1" d="m63 220-4 3c-1.946 0-15-19.755-15-22l3-2h1c0 2.051 13.575 21 15 21ZM393 220l5 3c1.346 0 14-19.41 14-22l-3-2h-1c0 2.734-12.453 21-15 21Z"/><path fill="#97D6F9" id="STR" d="m283 200 1 1-1-1Z"/><path fill="#209766" id="AIp6a" d="m369 200-1 1 1-1ZM89 201v1l-1-1h1Z"/><path fill="#C8CBCC" id="ec" d="m90 207 3 4c0-.975-3.504-9-4-9v3l1 2Z"/><path fill="#209766" id="AIp6a" d="m368 202-1 1v-1h1Z"/><path fill="#C8CBCC" id="ec" d="m366 208-1 1c0-1.357.647-6 2-6v4l-1 1Z"/><path fill="#209766" id="AIp6a" d="M88 207h2l-1-2-1 2Z"/><path fill="#8598CC" id="GPe" d="m285 205 4 4c-3.115 0-4-.885-4-4Z"/><path fill="#209766" id="AIp6a" d="M367 207h2l-2-2v2Z"/><path fill="#A0EE9C" id="EPd" d="M101 229c0 2.109-2.534 2-4 2-5.13 0-7.735-8-12-8v-1l-1-1-1-1c0-2.16-2-4.167-2-7 0-3.506 5-3.428 5-6h4l3 4v2l2 4v1l2 3v1l2 2v1l2 4Z"/><path fill="#209766" id="AIp6a" d="m367 207-1 1 1-1Z"/><path fill="#A0EE9C" id="EPd" d="m365 229-6 2c-2.747 0-3-.253-3-3l1-3 1-1 1-1v-1l1-2 1-1 2-6 1-2 1-2 1-1 1-1h4c0 2.926 4 2.469 4 6v5l-1 1-1 1v1l-1 1-1 1-1 1-1 1-1 1-1 1-1 1-1 1Z"/><path fill="#E64438" id="HY" d="M212 231c3.864 0 12-.016 12 5 2.87 0-.87-14 2-14v-3l-2-2-5.5-6-11.5-3 3 7.5c1.411 2.822-1 7.079-1 9.5 2.933 0 3 4.001 3 6ZM245 232c-1.804 0-5.136-2.182-7.5-1l-5.5 4c0-4.602 1.351-12-2-12v-3l3-4 4.5-5c3.145-1.573 7.751-2 11.5-2l-3 7.5 1 8.5c-4.024 0-2 5.615-2 7Z"/><path fill="#C8CBCC" id="ec" d="m365 209-1 2 1-2Z"/><path fill="#97D6F9" id="STR" d="m161 211-1 1 1-1Z"/><path fill="#C8CBCC" id="ec" d="m364 211-1 2 1-2Z"/><path fill="#97D6F9" id="STR" d="m160 212-1 1 1-1Z"/><path fill="#A2B1D7" id="SI" d="M141 252c2.407 0 7.311.906 9.5 2l15.5-1 5-2c8.934 0 5-12.691 5-17-1.579 0-1-2.855-1-4l-3-11c0-10.225-6.914-5.793-12.5-3l-4.5 5c0 3.908-6 5.092-6 9l-1 1-7 14-1 1v3l1 3ZM315 252c-2.407 0-7.311.906-9.5 2l-15.5-1-5-2-6-5.5c-1.989-3.977 2-9.553 2-13.5 0-4.383 3-8.202 3-13 0-9.434 8.436-7.064 13.5-2l4.5 5 6 8 7 14 1 4-1 4Z"/><path fill="#99D2BD" id="OLF" d="m78 215 5 5c0-2.16-2-4.167-2-7h-1l-2 2Z"/><path fill="#C8CBCC" id="ec" d="m93 213 2 4-2-4Z"/><path fill="#97D6F9" id="STR" d="m158 213-1 1 1-1Z"/><path fill="#97D6F9" id="STR" fill-rule="evenodd" d="M309 223c0 6.017 6.666 11.583 11.5 14 1.449.725 9.5 2.447 9.5-1.5 0-2.235-17.837-12.5-21-12.5m-6-4c0 7.465 9.579 0 0 0m18 38c5.285 0 7-.676 7 6 1.054 0 6-8.699 6-10 0-2.882.795-10 5-10l2-2 2-2c0-2.215 2-1.519 2-3-1.048 0-3 .473-3-1-13.375 0-23.411-10.455-34.5-16-2.624-1.312-6.565-6-9.5-6 0 2.475 4 5.984 4 9l6 8 13.5 9c6.954 3.477 12.395-5.302 19-2 1.974.987-1.783 3.783-2.5 4.5-3.981 3.981-7.045 6.273-11.5 8.5-4.676 2.338-8.834-6-11.5-6l1 4c1.014 0 2 3.959 2 5l3 4Z"/><path fill="#99D2BD" id="OLF" d="M379 215c-2.618 0-1.651 3-4 3v-5h1l3 2Z"/><path fill="#97D6F9" id="STR" fill-rule="evenodd" d="m148 231-9 4 8-7.5c1.315-2.63.657-6.579-3.5-4.5l-4.5 2c0-2.584 8.834-6 11-6 0-1.391 5.706-5 7-5l-2 7c0 3.908-6 5.092-6 9l-1 1m2-12-1 3.5c.608 1.215 7.744-3.5 1-3.5Z"/><path fill="#E64438" id="HY" d="m280 214 1 1-1-1Z"/><path fill="#6ACAB9" id="PIR" d="M119 288c-6.399 0-8-.835-8 3-3.879 0-11.594-8.094-14.5-11-6.675-6.675-20.793-30.087-25.5-39.5-2.79-5.579-12-10.989-12-17.5l4-3c1.547 0 10-2.835 10-4l5-1 5 5 1 1 1 1v1c0 1.196 13.883 13 15 13 0 1.278 17.192 17 18 17 0 3.756 7 10.703 7 19l-4 14-1 1-1 1Z"/><path fill="#E64438" id="HY" d="M181 228c-3.125 0-5 3.2-5 6-1.579 0-1-2.855-1-4l-3-11c3.943 0 2.113-4 4-4l1 9.5 4 3.5Z"/><path fill="#6ACAB9" id="PIR" d="M337 288c3.366 0 6.908 1 10 1 5.254 0 10.073-6.573 14-10.5 6.67-6.67 20.612-30.224 25-39 2.468-4.937 12-10.349 12-16.5l-5-3c-1.32 0-10-3.135-10-4l-4-1c-2.618 0-1.651 3-4 3l-1 1-1 1v1l-1 1-1 1-1 1-1 1-1 1-1 1-1 1-1 1-8 7-18 17-6 8.5c-1.555 3.109-1 7.768-1 11.5 0 4.658 4 9.143 4 13l1 2Z"/><path fill="#A8A9AA" id="V3" d="M226 222c0 6.814 4 10.734 4 1v-3c0-2.861-4-4.225-4-1v3Z"/><path fill="#C8CBCC" id="ec" d="M95 218c1.577 0 2 1.762 2 3l-2-3Z"/><path fill="#E64438" id="HY" d="M275 228c3.326 0 3.683 4 6 4 0-4.383 3-8.202 3-13l-3-1c0 3.832-6 9.79-6 10Z"/><path fill="#99D2BD" id="OLF" d="m375 218-1 1 1-1Z"/><path fill="#C9C9C9" id="act" d="m150 219-1 3.5c.608 1.215 7.744-3.5 1-3.5ZM303 219c0 7.465 9.579 0 0 0Z"/><path fill="#C8CBCC" id="ec" d="m361 219-1 1 1-1Z"/><path fill="#99D2BD" id="OLF" d="m374 219-1 1 1-1Z"/><path fill="#C8CBCC" id="ec" d="m360 220-1 2 1-2Z"/><path fill="#99D2BD" id="OLF" d="m84 221 1 1-1-1ZM373 221l-1 1 1-1Z"/><path fill="#C8CBCC" id="ec" d="m97 222 2 2-2-2Z"/><path fill="#FE5547" id="PVpo" d="M237 275h1c0-3.119-3-5.616-3-8l-1-3c0-1.698-1.195-5.89-2-7.5V235c0-4.602 1.351-12-2-12 0 9.734-4 5.814-4-1-2.87 0 .87 14-2 14v24.5l-2 4.5-1 1c0 3.559-3 5.504-3 9h2l1-1 4-1v-2l3.5-11 2.5 11v1l1 1 4 1 1 1Z"/><path fill="#99D2BD" id="OLF" d="m372 222-1 1 1-1ZM99 234l1 2c-1.117 0-15-11.804-15-13 4.265 0 6.87 8 12 8 0 1.481 2 .785 2 3Z"/><path fill="#C9C9C9" id="act" d="m139 235-1 1-5.5 2c-1.997.999-6.945-.61-5.5-3.5 1.098-2.197 9-3.467 9-7.5 1.238 0 3-.423 3-2l4.5-2c4.157-2.079 4.815 1.87 3.5 4.5l-8 7.5ZM309 223c0 6.017 6.666 11.583 11.5 14 1.449.725 9.5 2.447 9.5-1.5 0-2.235-17.837-12.5-21-12.5Z"/><path fill="#C8CBCC" id="ec" d="m359 223-1 1 1-1Z"/><path fill="#99D2BD" id="OLF" d="m371 223-1 1 1-1Z"/><path fill="#C8CBCC" id="ec" d="m358 224-1 1 1-1Z"/><path fill="#99D2BD" id="OLF" d="m370 224-1 1 1-1Z"/><path fill="#C8CBCC" id="ec" d="M115 235c0 1.579-2.855 1-4 1l-2-1h-1l-1-1c0-.966-2.886-3-4-3l-2-2-2-4c3.005 0 9.129 10 16 10Z"/><path fill="#97D6F9" id="STR" d="M139 225c-1.238 0-3 .423-3 2 1.238 0 3-.423 3-2Z"/><path fill="#FE5346" id="PD" d="m204 233 4 2c1.896 0 4-2.077 4-4 0-1.999-.067-6-3-6-5.407 0-5 3.787-5 7v1ZM252 233c0 2.109-2.535 2-4 2l-3-3c0-1.385-2.024-7 2-7 4.501 0 6 2.462 6 7l-1 1Z"/><path fill="#C8CBCC" id="ec" d="m356 228-2 1c0-1.429 1.288-4 3-4l-1 3Z"/><path fill="#99D2BD" id="OLF" d="m369 225-1 1 1-1ZM368 226l-1 1 1-1Z"/><path fill="#97D6F9" id="STR" d="M136 257c-9.273 0-7-.278-7 8-3.099 0-3.238-11-7-11l1-4.5-9-10.5-3-3c1.145 0 4 .579 4-1 9.336 0 16.187-8 21-8 0 4.033-7.902 5.303-9 7.5-1.445 2.89 3.503 4.499 5.5 3.5l5.5-2c0 3.15-10.063 4.219-12.5 3l-3-3-2 1h-5c-1.715.857 1.114 3.557 2 4l9 8c6.115 3.057 8.538-3 13.5-3v3l-2 4-2 4Z"/><path fill="#99D2BD" id="OLF" d="m367 227-1 1 1-1Z"/><path fill="#F2473B" id="LPO" d="m193 268-1 1-3-1c0-2.784-11.695-11-14-11l-3-2v-1l-1-1v-2c8.934 0 5-12.691 5-17 0-2.8 1.875-6 5-6h1l1 1 6 4 2 3c0 2.654.888 5.275 2 7.5V268Z"/><path fill="#E64438" id="HY" d="m182 228 1 1-1-1Z"/><path fill="#F2473B" id="LPO" d="M265 269h2c0-3.675 12.677-13 16-13l1-1 1-1v-3l-6-5.5c-1.989-3.977 2-9.553 2-13.5-2.317 0-2.674-4-6-4-2.909 0-4.795 5-8 5 0 1.238-.423 3-2 3 0 3.24-.641 6.781-2 9.5V268l1 1h1Z"/><path fill="#8AD987" id="CTXsp" d="m359 231-2 2c-1.24 0-1.576-2-4-2v-1l1-1 2-1c0 2.747.253 3 3 3Z"/><path fill="#99D2BD" id="OLF" d="m366 228-1 1 1-1Z"/><path fill="#8AD987" id="CTXsp" d="M103 231c-2.54 0-2.543 3-4 3 0-2.215-2-1.519-2-3 1.466 0 4 .109 4-2l2 2Z"/><path fill="#C8CBCC" id="ec" d="m354 229-1 1 1-1Z"/><path fill="#99D2BD" id="OLF" d="M357 233v3l8-7-6 2-2 2Z"/><path fill="#7ECDF8" id="FS" d="m149 230-1 1 1-1ZM308 230l13.5 9c6.954 3.477 12.395-5.302 19-2 1.974.987-1.783 3.783-2.5 4.5-3.981 3.981-7.045 6.273-11.5 8.5-4.676 2.338-8.834-6-11.5-6l-7-14Z"/><path fill="#C8CBCC" id="ec" d="M352 231h1v-1l-1 1Z"/><path fill="#A0ED9D" id="EPv" d="M118 253h1c0-2.927.608-13-6-13-2.409 0-3-1.957-3-4l-1-1h-1l-1-1c0-.966-2.886-3-4-3-2.54 0-2.543 3-4 3l1 2c0 1.278 17.192 17 18 17Z"/><path fill="#7ECDF8" id="FS" d="m141 245-1 1c-4.962 0-7.385 6.057-13.5 3l-9-8c-.886-.443-3.715-3.143-2-4h5l2-1 3 3c2.437 1.219 12.5.15 12.5-3l1-1 9-4-7 14Z"/><path fill="#FD4C3E" id="MPN" d="M220 266c-1.564 0-3.876 1-6 1l-4-1c-3.395 0-3.072-6.643-4-8.5-4.553-9.107 2-16.737 2-22.5 1.896 0 4-2.077 4-4 3.864 0 12-.016 12 5v24.5l-2 4.5-2 1ZM246 266l-4 1-6-1-2-2c0-1.698-1.195-5.89-2-7.5V235l5.5-4c2.364-1.182 5.696 1 7.5 1l3 3 4 9.5c1.679 3.358-2.421 21.5-6 21.5Z"/><path fill="#C8CBCC" id="ec" d="M347 235h1l1-1 3-3c-3.482 0-6.186 4-10 4 0 1.473 1.952 1 3 1l1-1h1Z"/><path fill="#A0ED9D" id="EPv" d="M337 253h2l18-17v-3c-1.24 0-1.576-2-4-2h-1l-3 3-1 1h-1v1c0 2.226-1.774 4-4 4l-2 1c0 1.747-.253 2-2 2 0 2.993-2 5.355-2 10Z"/><path fill="#E64438" id="HY" d="M203 233h1v-1l-1 1ZM252 233h1v-1l-1 1ZM199 234c0 .816-7.019 2-8 2l-2-3 10 1Z"/><path fill="#FF5346" id="MPO" d="M208 270h1l1-1v-3c-3.395 0-3.072-6.643-4-8.5-4.553-9.107 2-16.737 2-22.5l-4-2h-1l-4 1c0 .816-7.019 2-8 2 0 2.654.888 5.275 2 7.5V268l1 1c2.518 0 4.286 2 6 2l8-1ZM258 270l-1 1c-3.702 0-7.27-2-10-2h-1v-3c3.579 0 7.679-18.142 6-21.5l-4-9.5c1.465 0 4 .109 4-2h3l1 1h1c0 .816 7.019 2 8 2 0 3.24-.641 6.781-2 9.5V269l-5 1Z"/><path fill="#E64438" id="HY" d="m255 233 1 1-1-1ZM257 234c0 .816 7.019 2 8 2 1.577 0 2-1.762 2-3-2.978 0-6.49 1-10 1Z"/><path fill="#8AD987" id="CTXsp" d="m107 234 1 1-1-1ZM349 234l-1 1 1-1ZM110 236h1l-2-1 1 1Z"/><path fill="#97D6F9" id="STR" d="m139 235-1 1 1-1ZM345 236h1v-1l-1 1Z"/><path fill="#8AD987" id="CTXsp" d="M346 236h1v-1h-1v1Z"/><path fill="#80BEE2" id="IA" d="m114 239-1 1c-2.409 0-3-1.957-3-4h1l3 3ZM343 239v1c2.226 0 4-1.774 4-4h-2c0 1.481-2 .785-2 3Z"/><path fill="#8AD987" id="CTXsp" d="m119 253 3 1 1-4.5-9-10.5-1 1c6.608 0 6 10.073 6 13ZM343 240l-2 1 2-2v1ZM341 241l-2 2c1.747 0 2-.253 2-2ZM334 253c.716 0 3 2.373 3 0 0-4.645 2-7.007 2-10-4.205 0-5 7.118-5 10Z"/><path fill="#97D6F9" id="STR" d="m141 245-1 1 1-1Z"/><path fill="#8599CC" id="PAL" d="m315 252 3 1c0-1.041-.986-5-2-5l-1 4ZM141 252l-3 1 2-4 1 3ZM171 257h2l-1-2v-1l-1-1v-2l-5 2 5 4ZM284 257l2 1c0-2.741 4-2.75 4-5l-5-2v3l-1 1v2Z"/><path fill="#A2B1D8" id="MA" d="M162 277h2l5-4c0-5.377 2-10.211 2-16l-5-4-15.5 1c-2.189-1.094-7.093-2-9.5-2l-3 1-2 4 8.5 5c6.821 3.411 17.5 7.811 17.5 15ZM292 276l2 1v-3.5c.994-1.988 25.391-16.5 27-16.5l-3-4-3-1c-2.407 0-7.311.906-9.5 2l-15.5-1c0 2.25-4 2.259-4 5 0 5.385 2 10.45 2 15l4 3Z"/><path fill="#99D2BD" id="OLF" d="m133 289-6 1c0-2.043-.591-4-3-4 0-2.205 3.251-.002 4-1.5 2.009-4.018-.117-12.5-3-12.5 0-8.297-7-15.244-7-19h1l3 1c3.762 0 3.901 11 7 11v1l1 1 1 2 2 2.5c.907 1.813 3.964 17.5 0 17.5Z"/><path fill="#E64438" id="HY" d="m171 253 1 1-1-1Z"/><path fill="#99D2BD" id="OLF" d="M323 289c2.833 0 4.84 2 7 2 0-8.349 1.874-3 7-3l-1-2c-2.301 0-6.852-.203-8-2.5-.976-1.953-.195-12.5 2.5-12.5l1.5 2c0-3.732-.555-8.391 1-11.5l6-8.5h-2c0 2.373-2.284 0-3 0 0 1.301-4.946 10-6 10v1l-1 1-1 3-1 1-1 2-1 1-2 12.5 2 4.5Z"/><path fill="#E64438" id="HY" d="m285 254-1 1 1-1ZM173 257h2l-3-2 1 2ZM283 256l1 1v-2l-1 1Z"/><path fill="#80C0E2" id="AAA" d="M131 269c.689 0 11.279 8.89 13.5 10 6.299 3.149 11.933-2 17.5-2 0-7.189-10.679-11.589-17.5-15l-8.5-5c-9.273 0-7-.278-7 8v1l1 1 1 2Z"/><path fill="#96A6D3" id="NDB" d="m268 277 1 1 12.5-1 6.5-4c0-4.55-2-9.615-2-15l-2-1-1-1c-3.323 0-16 9.325-16 13v3l1 5Z"/><path fill="#80C0E2" id="AAA" d="M323 272c-3.7 0-7.286 5.393-10.5 7-6.634 3.317-13.053-2-18.5-2v-3.5c.994-1.988 25.391-16.5 27-16.5 5.285 0 7-.676 7 6v1l-1 1-1 3-1 1-1 2-1 1Z"/><path fill="#96A6D3" id="NDB" d="m189 277-2 1c-3.632 0-18-1-18-5 0-5.377 2-10.211 2-16h4c2.305 0 14 8.216 14 11l1 3-1 6Z"/><path fill="#A8A9AA" id="V3" d="M225 271h6l-2.5-11-3.5 11Z"/><path fill="#E64438" id="HY" d="m236 266-1 1-1-3 2 2Z"/><path fill="#97D6F9" id="STR" d="m328 264-1 1 1-1Z"/><path fill="#E64438" id="HY" d="M220 266h1l1-1-2 1Z"/><path fill="#97D6F9" id="STR" d="m129 266 1 1-1-1Z"/><path fill="#E64438" id="HY" d="m214 267-4 2v-3l4 1Z"/><path fill="#FD5545" id="VMPO" d="M204 279h3l1-1 7-1 2-1 1-1c0-3.496 3-5.441 3-9h-1c-1.564 0-3.876 1-6 1l-4 2-1 1h-1l-5 4.5 1 4.5ZM250 279h3c0-6.099-6-8.295-6-10h-1l-4-2-6-1-1 1c0 2.384 3 4.881 3 8l1 1h1l1 1h4l1 1h2l1 1h1Z"/><path fill="#E64438" id="HY" d="m242 267 4 2v-3l-4 1ZM192 269l-2 2-1-3 3 1ZM192 269h2l-1-1-1 1ZM263 269h1l-1-1v1Z"/><path fill="#97D6F9" id="STR" d="m326 268-1 1 1-1ZM166 291l1-6.5c-2.466-4.932-27.904-5.191-30-1-4.043 8.086 7 6.385 7 11.5-1.579 0-11-4.701-11-6 3.964 0 .907-15.687 0-17.5l-2-2.5c.689 0 11.279 8.89 13.5 10 6.299 3.149 11.933-2 17.5-2h2c4.828 0 6 6.26 6 10l-4 4Z"/><path fill="#FE5546" id="VLPO" d="M198 279h2v-8c-1.714 0-3.482-2-6-2h-2l-2 2-1 6v1c0 1.434 6.448 2 8 2l1-1Z"/><path fill="#E64438" id="HY" d="m210 269-1 1 1-1ZM253 279h4l-2-2.5 2-5.5c-3.702 0-7.27-2-10-2 0 1.705 6 3.901 6 10Z"/><path fill="#FE5546" id="VLPO" d="m257 279 3 1c1.296 0 7-.825 7-2l1-1-1-5c-1.577 0-2-1.762-2-3h-2l-5 1-1 1-2 5.5 2 2.5Z"/><path fill="#E64438" id="HY" d="M267 269v3c-1.577 0-2-1.762-2-3h2ZM200 279h4l-1-4.5 5-4.5-8 1v8ZM258 270l-1 1 1-1Z"/><path fill="#59D9AA" id="PAA" d="M121 286h3c0-2.205 3.251-.002 4-1.5 2.009-4.018-.117-12.5-3-12.5l-4 14Z"/><path fill="#97D6F9" id="STR" d="m324 271-1 1 1-1Z"/><path fill="#59D9AA" id="PAA" d="m332 273-1.5-2c-2.695 0-3.476 10.547-2.5 12.5 1.148 2.297 5.699 2.5 8 2.5 0-3.857-4-8.342-4-13Z"/><path fill="#E64438" id="HY" d="M231 273h1l-1-1v1Z"/><path fill="#97D6F9" id="STR" d="M292 292c0-2.348-4.602-4.296-3-7.5 2.758-5.516 16.489-3.5 22-3.5 1.896 0 5.593-2.313 7 .5 5.04 10.079-2 5.44-2 11.5 1.301 0 7-2.496 7-4l-2-4.5 2-12.5c-3.7 0-7.286 5.393-10.5 7-6.634 3.317-13.053-2-18.5-2l-2-1c0 2.079-5 3.245-5 11 0 1.657 3.452 5 5 5Z"/><path fill="#8599CC" id="PAL" d="M187 278c0 4.557-13.831 9-17 9 0-3.74-1.172-10-6-10l5-4c0 4 14.368 5 18 5Z"/><path fill="#CAC7CB" id="fiber tracts" d="M248 278v1c-5.363 0-9.099-1.8-13.5-4H221v-1l4-1h7l4 1 1 1h1l1 1h1l1 1h4l1 1h2Z"/><path fill="#8599CC" id="PAL" d="M269 278c0 2.927 15.324 9 18 9 0-7.755 5-8.921 5-11l-4-3-6.5 4-12.5 1Z"/><path fill="#E64438" id="HY" d="M220 275h1v-1l-1 1ZM236 274l1 1-1-1ZM218 275l-1 1 1-1Z"/><path fill="#CAC7CB" id="fiber tracts" d="M217 276v1l4-2h-3l-1 1Z"/><path fill="#CBCACC" id="och" d="M228 285c-8.509 0-17.448.474-24.5 4-1.202.601-4.5-1.018-4.5-2v-6c.822 0 8-1.311 8-2h1c1.775 0 8-.069 8-2h1l4-2h13.5c4.401 2.2 8.137 4 13.5 4h2c0 .689 7.178 2 8 2v6l-3.5 2c-1.061.531-13.462-2.231-15-3-1.761-.88-11.5-1.643-11.5-1Z"/><path fill="#E64438" id="HY" d="m238 275 1 1-1-1ZM216 277h1v-1l-2 1h1ZM240 276l1 1-1-1ZM187 278h2v-1l-2 1Z"/><path fill="#CAC7CB" id="fiber tracts" d="M208 278v1c1.775 0 8-.069 8-2h-1l-7 1Z"/><path fill="#E64438" id="HY" d="m245 277 1 1-1-1ZM267 278h2l-1-1-1 1ZM207 279h1v-1l-1 1ZM248 279h1l-1-1v1Z"/><path fill="#FE5B50" id="SO" d="m198 279-1 1 1-1Z"/><path fill="#CAC7CB" id="fiber tracts" d="M197 281h2c.822 0 8-1.311 8-2h-9l-1 1v1ZM258 281c2.215 0 1.519 2 3 2l-1-3-3-1h-7c0 .689 7.178 2 8 2Z"/><path fill="#7FCCF7" id="OT" d="M150 296h3l2-1c4.453 0 7.331-4 11-4l1-6.5c-2.466-4.932-27.904-5.191-30-1-4.043 8.086 7 6.385 7 11.5h2c1.145 0 4-.579 4 1ZM303 296h4c0-1.473 1.952-1 3-1h2l2-1 2-1c0-6.06 7.04-1.421 2-11.5-1.407-2.813-5.104-.5-7-.5-5.511 0-19.242-2.016-22 3.5-1.602 3.204 3 5.152 3 7.5 2.933 0 5.321 3 9 3l2 1Z"/><path fill="#CAC7CB" id="fiber tracts" d="M197 281c-1.747 0-2 .253-2 2l2-2Z"/><path fill="#CACCCB" id="opt" d="M195 284c1.457 0 1.46 3 4 3v-6h-2l-2 2v1ZM261 285l-3 2v-6c2.215 0 1.519 2 3 2v2Z"/><path fill="#CAC7CB" id="fiber tracts" d="M228 285c-8.509 0-17.448.474-24.5 4-1.202.601-4.5-1.018-4.5-2-2.54 0-2.543-3-4-3 0 8.261 27.045 6.227 31.5 4l1.5-3ZM261 285l-3 2-3.5 2c-1.061.531-13.462-2.231-15-3-1.761-.88-11.5-1.643-11.5-1l1.5 3c4.554 2.277 31.5 3.669 31.5-3Z"/><path fill="#59D9AA" id="PAA" d="M120 287h1v-1l-1 1Z"/><path fill="#99D2BD" id="OLF" d="M124 286c0 1.473-1.952 1-3 1v-1h3Z"/><path fill="#CAC8C7" id="lot" d="M127 290c0 4.09-16 4.289-16 1 0-3.835 1.601-3 8-3l2-1c1.048 0 3 .473 3-1 2.409 0 3 1.957 3 4ZM347 289c0 7.904-15.239 2-17 2 0-8.349 1.874-3 7-3 3.366 0 6.908 1 10 1Z"/><path fill="#99D2BD" id="OLF" d="m121 287-2 1 1-1h1Z"/><path fill="#97D6F9" id="STR" d="m316 293-2 1 2-1ZM314 294l-2 1 2-1ZM146 295c1.145 0 4-.579 4 1-1.145 0-4 .579-4-1ZM155 295l-2 1 2-1ZM301 295l2 1-2-1ZM310 295c-1.048 0-3-.473-3 1 1.048 0 3 .473 3-1Z"/></svg>