<svg xmlns="http://www.w3.org/2000/svg" viewBox="0 0 456 320"><path fill="#1E9D5A" id="MOp1" d="M194 33c-12.521 0-24.38 6-37 6v-6c12.007 0 23.32-4 37-4v4Z"/><path fill="#1E9C59" id="MOs1" d="M222 47h1l4-2-4.5-6c-10.373-10.373-13.73-10-28.5-10v4c8.274 0 28 3.067 28 14ZM229 45c1.624 0 2.75 2 5 2l1.5-3 7-7c6.524-3.262 12.54-4 20.5-4l-1-4c-11.617 0-23.222-.056-29 11.5-.595 1.19-4 2.317-4 4.5Z"/><path fill="#1E9D5A" id="MOp1" d="m299 33 1 6c-12.606 0-24.628-6-37-6l-1-4h16.5c5.005 2.503 14.779 4 20.5 4Z"/><path fill="#187F60" id="SSp-ll1" d="m157 39-14 4-2-5 16-5v6Z"/><path fill="#1F9C58" id="MOp2/3" d="M154 56c1.483 0-1 4.598-1 6 8.258 0 27.104-17 38-17h1c0-4.371 2-8.019 2-12-12.521 0-24.38 6-37 6 0 5.074-3 11.632-3 17Z"/><path fill="#1E9D58" id="MOs2/3" d="M222 47c0 1.428-4.822 4-6 4l-5.5-6c-5.452-2.726-13.043 0-18.5 0 0-4.371 2-8.019 2-12 8.274 0 28 3.067 28 14ZM234 48l6 3c.555 0 6.846-6.173 8.5-7 4.296-2.148 12.46 1 16.5 1 0-3.956-2-7.497-2-12-7.96 0-13.976.738-20.5 4l-7 7-1.5 3v1Z"/><path fill="#1F9C58" id="MOp2/3" d="m302 56 1 6c-6.429 0-27.702-17-38-17 0-3.956-2-7.497-2-12 12.372 0 24.394 6 37 6v1l2 16Z"/><path fill="#187F60" id="SSp-ll1" d="M313 44h1l1-6c0-1.952-2.454-.477-3.5-1-3.062-1.531-9.094-4-12.5-4l1 6v1c1.995 0 13 1.996 13 4Z"/><path fill="#197E64" id="SSp-ul1" d="M106 61h1l7-4.5c4.178-4.178 22.998-12.5 29-12.5v-1l-2-5c-9.444 0-31.681 17-37 17 0 2.33 2 3.227 2 6ZM349 61h1l2-6-9.5-6c-6.189-3.095-20.802-11-27.5-11l-1 6c7.374 0 22.827 7.327 28 12.5 1.302 1.302 7 1.733 7 4.5Z"/><path fill="#187F64" id="SSp-ll2/3" d="m154 56-7 2-4-14v-1l14-4c0 5.074-3 11.632-3 17ZM302 56l8 2c0-4.837 3-8.981 3-14 0-2.004-11.005-4-13-4l2 16Z"/><path fill="#197F61" id="SSp-ul2/3" d="M111 73h1c4.738 0 25.555-15 34-15h1l-4-14c-6.002 0-24.822 8.322-29 12.5l-7 4.5c0 5.104 4 7.06 4 12Z"/><path fill="#1F9D58" id="MOs5" d="m188 61 10.5-2 5.5 3c4.466 0 7.716-10 12-10v-1l-5.5-6c-5.452-2.726-13.043 0-18.5 0h-1l-3 16ZM253 62c0-6.583 14.606 0 16 0l-4-17c-4.04 0-12.204-3.148-16.5-1-1.654.827-7.945 7-8.5 7v1c5.333 0 8.123 10 13 10Z"/><path fill="#197F61" id="SSp-ul2/3" d="M344 73h1c0-4.65 4-7.09 4-12 0-2.767-5.698-3.198-7-4.5-5.173-5.173-20.626-12.5-28-12.5h-1c0 5.019-3 9.163-3 14 8.853 0 29.833 15 34 15Z"/><path fill="#1E9C5A" id="MOp5" d="M153 63v15c10.365 0 28.753-16 34-16l1-1 3-16c-10.896 0-29.742 17-38 17v1Z"/><path fill="#3EA665" id="ACAd1" d="M233 71c-3.325 0-7.31 1-10 1V47l4-2c1.2 0 2 3.746 2 0 1.624 0 2.75 2 5 2v1c0 6.887-1 15.436-1 23Z"/><path fill="#1E9C5A" id="MOp5" d="M303 63v15c-9.882 0-28.75-16-34-16l-4-17c10.298 0 31.571 17 38 17v1Z"/><path fill="#40A565" id="ACAd2/3" d="m223 72-5 1-1-16c0-1.234.643-5-1-5v-1c1.178 0 6-2.572 6-4h1v25ZM233 72l6 1c0-6.903 1-14.772 1-21v-1l-6-3c0 6.887-1 15.436-1 23v1Z"/><path fill="#3EA566" id="ACAd5" d="m218 73-12 6c0-1.531-1.205-16-2-16v-1c4.466 0 7.716-10 12-10 1.643 0 1 3.766 1 5l1 16ZM239 73l12 6c0-2.633-.974-16 2-16v-1c-4.877 0-7.667-10-13-10 0 6.228-1 14.097-1 21Z"/><path fill="#1B8062" id="SSp-un1" d="M93 62c0 2.483 2 4.026 2 6l11-7c0-2.773-2-3.67-2-6l-11 7ZM364 63l-3 5c-3.725 0-6.956-7-11-7l2-6c1.748 0 12 6.194 12 8Z"/><path fill="#1C7F64" id="SSp-ll4" d="m153 63-4 2c0-1.812-3-4.82-3-7h1l7-2c1.483 0-1 4.598-1 6v1ZM303 63l5 2 2-7-8-2 1 6v1Z"/><path fill="#1A7F63" id="SSp-ul4" d="M115 81h1c5.116 0 26.344-16 33-16 0-1.812-3-4.82-3-7-8.445 0-29.262 15-34 15l3 8ZM344 73l-3 8-33-16 2-7c8.853 0 29.833 15 34 15Z"/><path fill="#1D9C5A" id="MOs6a" d="M192 83h1c0-3.372 7.706-20 11-20v-1l-5.5-3-10.5 2-1 1c0 6.94-2 14.195-2 22l6-1c0-1.186 1-1.186 1 0ZM264 82l7 2c0-3.993 2.068-12.363 0-16.5l-2-5.5c-1.394 0-16-6.583-16 0v1l8 11.5c.636 1.272 1.45 7.5 3 7.5Z"/><path fill="#1C7F63" id="SSp-un2/3" d="M111 73c0 2.054-8.24 6-10 6 0-.664-4.823-10-6-10v-1l11-7h1c0 5.104 4 7.06 4 12Z"/><path fill="#1F9D58" id="MOs5" d="m188 61-1 1 1-1Z"/><path fill="#1C7F63" id="SSp-un2/3" d="M355 79h1l5-10v-1c-3.725 0-6.956-7-11-7h-1c0 4.91-4 7.35-4 12 0 1.673 8.485 6 10 6Z"/><path fill="#197E63" id="SSp-n1" d="M56 120c-3.324 0 .394 1-3 1l-2-2c0-11.223 19.467-42.484 30.5-48L93 62c0 2.483 2 4.026 2 6v1c-5.326 0-7.32 6.41-10.5 8-8.168 4.084-27.5 32.61-27.5 41v1l-1 1Z"/><path fill="#1F9B5A" id="MOp6a" d="M153 97h4c0-2.415 8.046-4 10-4l4-2c0-2.404 11.748-6 14-6v-1c0-7.805 2-15.06 2-22-5.247 0-23.635 16-34 16v19ZM271 84c9.412 0 21.466 13 32 13V78c-9.882 0-28.75-16-34-16l2 5.5c2.068 4.137 0 12.507 0 16.5Z"/><path fill="#197C63" id="SSp-ll5" d="M152 79h1V63l-4 2c0 5.804 3 8.293 3 14Z"/><path fill="#3FA664" id="ACAd6a" d="M193 83c1.366 0 4 2.366 4 4l9-8c0-1.531-1.205-16-2-16-3.294 0-11 16.628-11 20ZM259 87h1c0-2.226 1.774-4 4-4v-1c-1.55 0-2.364-6.228-3-7.5L253 63c-2.974 0-2 13.367-2 16v1l8 7Z"/><path fill="#197C63" id="SSp-ll5" d="M303 79h1l4-14-5-2v16Z"/><path fill="#197E63" id="SSp-n1" d="M400 120c.922 0 3 .483 3 1l3-2c0-10.087-21.156-42.828-31.5-48-4.128-2.064-5.759-8-10.5-8l-3 5v1c5.254 0 10.073 6.573 14 10.5 7.927 7.927 24 27.732 24 38.5l1 2Z"/><path fill="#187E62" id="SSp-ul5" d="M120 92h1c4.339 0 23.58-13 31-13 0-5.707-3-8.196-3-14-6.656 0-27.884 16-33 16 0 4.791 4 6.476 4 11ZM335 92h1l5-11-33-16-4 14c6.906 0 17.41 5.955 23.5 9l7.5 4Z"/><path fill="#1B7F64" id="SSp-n2/3" d="M69 115c-4.58 0-7.396 3-12 3 0-8.39 19.332-36.916 27.5-41 3.18-1.59 5.174-8 10.5-8 1.177 0 6 9.336 6 10v1c-9.667 0-31 23.406-31 33l-1 1v1Z"/><path fill="#1B7F64" id="SSp-n2/3" fill-rule="evenodd" d="M388 113c0 1.93 1.93 0 0 0m-1 1c4.108 0 8.649 4 12 4 0-10.768-16.073-30.573-24-38.5-3.927-3.927-8.746-10.5-14-10.5l-5 10 10 5.5c6.736 6.736 20 19.519 20 28.5l1 1Z"/><path fill="#40A664" id="ACAv1" d="M229 98c3.448 0 2.91 5 5 5 0-10.047-1-20.446-1-31v-1c-3.325 0-7.31 1-10 1 0 10.42-1 21.17-1 31l5-5c0-3.15 2-3.446 2 0Z"/><path fill="#3FA566" id="ACAv2/3" d="m221 105-3 1V73l5-1c0 10.42-1 21.17-1 31l-1 2ZM235 105l3 1c0-10.665 1-21.808 1-33l-6-1c0 10.554 1 20.953 1 31l1 2Z"/><path fill="#197E61" id="SSp-un4" d="m115 81-10 6c0-2.396-4-5.673-4-7v-1c1.76 0 10-3.946 10-6h1l3 8Z"/><path fill="#3EA666" id="ACAv5" d="M210 103c0 2.275 6.303 3 8 3V73l-12 6 1 15.5 3 8.5ZM247 103c-2.546 0-5.725 3-9 3 0-10.665 1-21.808 1-33l12 6v1c-1.665 0-1 4.222-1 5.5 0 6.076-3 11.683-3 17.5Z"/><path fill="#197E61" id="SSp-un4" d="M351 87h1l3-8c-1.515 0-10-4.327-10-6h-1l-3 8 10 6Z"/><path fill="#197D61" id="SSp-ul6a" d="M141 103c-4.875 0-8.125 4-13 4-1.656 0-7-12.967-7-15 4.339 0 23.58-13 31-13h1v19c-1.791 0-12 3.433-12 5Z"/><path fill="#40A564" id="ACAv6a" d="M209 103h1l-3-8.5-1-15.5-9 8v1l2 3.5c1.761 3.522 8 5.388 8 9.5l2 2Z"/><path fill="#197D61" id="SSp-ul6a" d="M328 108h1c0-5.706 6-10.036 6-16l-7.5-4c-6.09-3.045-16.594-9-23.5-9h-1v19c5.539 0 12.676 4.588 17.5 7 1.272.636 7.5 1.45 7.5 3Z"/><path fill="#1A8062" id="SSp-n4" d="M374 108c0-2.292 10.73 5 12 5 0-8.981-13.264-21.764-20-28.5L356 79h-1l-3 8 6.5 4c1.87.935 13.5 13.828 13.5 15l2 2ZM81 109c-4.16 0-7.712 4-11 4 0-9.594 21.333-33 31-33 0 1.327 4 4.604 4 7-2.651 0-21 16.2-21 19l-1 1-1 1-1 1Z"/><path fill="#40A564" id="ACAv6a" d="M247 103h1l1-2c0-1.747.253-2 2-2 0-1.198 4.298-6 6-6l2-6-8-7c-1.665 0-1 4.222-1 5.5 0 6.076-3 11.683-3 17.5Z"/><path fill="#197D62" id="SSp-un5" d="M116 94h1l3-2c0-4.524-4-6.209-4-11h-1l-10 6 3 7 2.5-3c1.034 0 5.5 1.49 5.5 3ZM339 94h1c0-4.145 8.695-1 9-1 0-1.974 2-3.517 2-6l-10-6-5 11 3 2Z"/><path fill="#1E9C58" id="MOs6b" d="M191 83h1c0-1.186-1-1.186-1 0ZM271 84v1l-7-1v-2l7 2ZM185 84v1c1.623 0 6-.005 6-2l-6 1Z"/><path fill="#CACCC7" id="cing" d="m207 101 2 2c-8.884 0-13.688-10.594-20.5-14-5.991-2.996-14.724 6-20.5 6h-2l1-2c1.465 0 4 .109 4-2 2.254 0 14-3.816 14-6 1.623 0 6-.005 6-2h1c0 1.302 4 2.641 4 5 0 3.494 7.56 13 11 13Z"/><path fill="#3FA466" id="ACAd6b" d="M196 88h1v-1c0-1.634-2.634-4-4-4h-1c0 1.302 4 2.641 4 5ZM260 87v1l4-4v-1c-2.226 0-4 1.774-4 4Z"/><path fill="#CACCC7" id="cing" d="m249 101-1 2c8.991 0 12.368-10.434 19.5-14 5.648-2.824 13.253 5 18.5 5l1 1h4l-20-10-7-1-4 4c0 1.408-1.197 5-3 5 0 2.473-3.527 6-6 6l-2 2Z"/><path fill="#1D9D5A" id="MOp6b" d="M303 98v1c-4.366 0-7.128-4-12-4l-20-10v-1c9.412 0 21.466 13 32 13v1ZM185 85c-2.252 0-14 3.596-14 6 2.254 0 14-3.816 14-6Z"/><path fill="#197E62" id="SSp-n5" d="M108 94c-2.014 0-1.901 6-3.5 6-5.813 0-12.892 6-20.5 6 0-2.8 18.349-19 21-19l3 7Z"/><path fill="#40A465" id="ACAv6b" d="M260 88c0 1.408-1.197 5-3 5l2-6h1v1Z"/><path fill="#197E62" id="SSp-n5" d="M349 93c0 3.285 6.647 10 8.5 10 .698 0 4.409-.795 6 0 .501.251 8.5 5.302 8.5 3 0-1.172-11.63-14.065-13.5-15l-6.5-4h-1c0 2.483-2 4.026-2 6Z"/><path fill="#40A465" id="ACAv6b" d="m197 88 2 3.5c1.761 3.522 8 5.388 8 9.5-3.44 0-11-9.506-11-13h1Z"/><path fill="#C9C7C9" id="ccb" d="M93 155v3c3.12 0 3.022-7.522 4.5-9 7.835-7.835 11.866-17.866 20.5-26.5 14.723-14.723 35.198-17.5 55-17.5 0-11.768 28-.185 28 4h1l2 2c6.738 0 11.935 4 18 4l2 1h9l1-1c6.305 0 13.101-4 19-4v-1l2-1c0-3.676 28-16.194 28-4l11.5-1c2.383 1.192 5.725-.137 8 1 11.985 5.993 35.046 8.593 42.5 23.5 5.089 10.178 12.968 18.936 18 29 .821 1.642 1.379 8.5 4 8.5 0-4.776-4-7.892-4-13l-2-3v-1l-6-10.5c-4.44-8.88-14.252-20.876-23.5-25.5-11.061-5.531-22.998-8.499-34-14-1.568-.784-9.5-1.924-9.5-4h-1l-1-1c-5.247 0-12.852-7.824-18.5-5-7.132 3.566-10.509 14-19.5 14h-1c-2.546 0-5.725 3-9 3l-3-1c0 2.307-12.499 0-14 0l-3 1c-1.697 0-8-.725-8-3h-1c-8.884 0-13.688-10.594-20.5-14-5.991-2.996-14.724 6-20.5 6 0 1.51-8.014 4.257-9.5 5l-22 7c-3.629 1.814-8.311 6-12.5 6 0 1.577-1.762 2-3 2l-2 2c0 2.156-10.737 12-12 12 0 1.417-2.383 6-4 6 0 1.969-3.732 10-6 10 0 1.424-.362 5-2 5v1l-1 2-1 2Z"/><path fill="#1B7E63" id="SSp-m5" d="M69 133c3.943 0 6.298 6 10 6 0-8.427 13.549-31.524 20.5-35L116 94c0-1.51-4.466-3-5.5-3l-2.5 3c-2.014 0-1.901 6-3.5 6-5.813 0-12.892 6-20.5 6l-1 1-1 1-1 1-12 23v1Z"/><path fill="#1D9D5A" id="MOp6b" d="m171 91-4 2c1.465 0 4 .109 4-2Z"/><path fill="#1B7E63" id="SSp-m5" d="M387 133c-3.95 0-5.894 6-10 6 0-4.299-3.167-8.834-5-12.5-6.43-12.861-8.806-19.653-22.5-26.5l-9.5-6c0-4.145 8.695-1 9-1 0 3.285 6.647 10 8.5 10 .698 0 4.409-.795 6 0 .501.251 8.5 5.302 8.5 3l2 2c0 3.413 13 19.064 13 24v1Z"/><path fill="#1A7F61" id="SSp-un6a" d="M127 108h1v-1c-1.656 0-7-12.967-7-15h-1l-3 2c0 .91 10 12.005 10 14ZM339 94l-3 3.5c-1.772 1.772-4.538 10.5-7 10.5 0-5.706 6-10.036 6-16h1l3 2Z"/><path fill="#1D9D5A" id="MOp6b" d="M166 95c-3.68 0-5.511 2-9 2 0-2.415 8.046-4 10-4l-1 2Z"/><path fill="#40A465" id="ACAv6b" d="M257 93c-1.702 0-6 4.802-6 6 2.473 0 6-3.527 6-6Z"/><path fill="#187D61" id="SSp-m6a" d="M94 147h1c0-1.937 1.553-8 4-8 0-6.447 21.4-30 28-30v-1c0-1.995-10-13.09-10-14h-1l-16.5 10c-6.951 3.476-20.5 26.573-20.5 35l15 8Z"/><path fill="#C9C9CA" id="scwm" d="m286 94 1 1-1-1Z"/><path fill="#187D61" id="SSp-m6a" d="m377 139-15 8c0-6.356-15.471-26.986-21.5-30-4.275-2.137-6.367-8-11.5-8v-1c2.462 0 5.228-8.728 7-10.5l3-3.5h1l9.5 6c13.694 6.847 16.07 13.639 22.5 26.5 1.833 3.666 5 8.201 5 12.5Z"/><path fill="#C9C9CA" id="scwm" d="m128 109-4 4c4.189 0 8.871-4.186 12.5-6l22-7c1.486-.743 9.5-3.49 9.5-5h-2c-3.68 0-5.511 2-9 2l-4 2c-3.933 0-7.365 4-12 4 0 1.751-11.09 6-13 6ZM361 147v2l-6-10.5c-4.44-8.88-14.252-20.876-23.5-25.5-11.061-5.531-22.998-8.499-34-14-1.568-.784-9.5-1.924-9.5-4h3c4.872 0 7.634 4 12 4l25 10c0 1.222 11.738 9.119 13.5 10 3.832 1.916 19.5 24.638 19.5 28Z"/><path fill="#1D9D5A" id="MOp6b" d="M153 98v1l4-2h-4v1Z"/><path fill="#1C8064" id="SSp-ul6b" d="M153 99c-3.933 0-7.365 4-12 4 0-1.567 10.209-5 12-5v1Z"/><path fill="#7ED04B" id="IG" d="M221 105c1.501 0 14 2.307 14 0l-1-2c-2.09 0-1.552-5-5-5 0 1.4-2 1.4-2 0l-5 5-1 2Z"/><path fill="#1C8064" id="SSp-ul6b" d="M328 108v1l-25-10v-1c5.539 0 12.676 4.588 17.5 7 1.272.636 7.5 1.45 7.5 3Z"/><path fill="#40A465" id="ACAv6b" d="M251 99c-1.747 0-2 .253-2 2l2-2Z"/><path fill="#AAA8A9" id="SEZ" d="M177 107c0-13.533 20.116 2 24 2 0-4.185-28-15.768-28-4l4 2ZM279 107c0-13.73-18.936 2-24 2 0-3.676 28-16.194 28-4l-4 2Z"/><path fill="#A8AAAA" id="VL" d="m192 177-1 2-1-3c0-7.097-2-14.447-2-22 0-7.7 2.65-19.201-1-26.5L177 107c0-13.533 20.116 2 24 2h1l2 2c0 5.179-13 18.061-13 31v1c0 4.708-3.457 14.585-1 19.5.805 1.61 2 5.802 2 7.5v7ZM264 179h1c1.638 0 2-3.576 2-5l1-21c0-8.425-1.543-20.415 2-27.5 2.677-5.355 9-12.297 9-18.5 0-13.73-18.936 2-24 2l-2 1v1c0 7.458 13 19.036 13 31v3c0 8.017-1 16.609-1 24l-1 2v8Z"/><path fill="#1C8064" id="SSp-ul6b" d="M128 108v1c1.91 0 13-4.249 13-6-4.875 0-8.125 4-13 4v1Z"/><path fill="#98D5F9" id="CP" d="M146 229c-5.428 0-11.85 3.675-16.5 6H115l-6.5-4-6.5-6-2-3-1-1v-1l-2-2v-2l-1-1-1-5-6-18.5-1-18.5v-2l1-1v-3l1-1v-1c1.732 0 3-5.353 3-7 3.12 0 3.022-7.522 4.5-9 7.835-7.835 11.866-17.866 20.5-26.5 14.723-14.723 35.198-17.5 55-17.5l4 2 10 20.5c3.65 7.299 1 18.8 1 26.5-1.154 0-2.386 5.943-4.5 7-3.549 1.775-6.445 1.389-8.5 5.5v30c-1.461 2.922.406 7.188-1 10-.579 1.157-3 5.491-3 6.5l-3 1-1 1h-1l-1 1-1 1c-1.998 0-11 5.73-11 8-1.572 0-7 2.052-7 4ZM351 229c-1.261 0-10 5.249-10 6-14.793 0-25.408-3.954-37.5-10-4.221-2.111-8.664-10-13.5-10l-5-2-2-2.5c-2.795-5.59.83-14.34-2-20-3.728-7.455 3.65-17.7 0-25-1.62-3.241-5.024-3.262-7.5-4.5-2.265-1.133-4.563-8-5.5-8 0-8.425-1.543-20.415 2-27.5 2.677-5.355 9-12.297 9-18.5l4-2 11.5-1c2.383 1.192 5.725-.137 8 1 11.985 5.993 35.046 8.593 42.5 23.5 5.089 10.178 12.968 18.936 18 29 .821 1.642 1.379 8.5 4 8.5v2l1 2v1c0 1.048-.473 3 1 3v2l-2 17c-1.663 0-2 5.407-2 7v1c-1.569 0-3 6.6-3 8l-1 2v2l-1 2-1 2-1 3-1 1v1l-1 1-1 1v1l-1 1-1 1-2 2Z"/><path fill="#1B7F62" id="SSp-m4" d="m83 107-1 1 1-1ZM393 130l-6 2c0-4.936-13-20.587-13-24 0-2.292 10.73 5 12 5l1 1c0 1.963 4.33 15 6 15v1ZM64 129c1.947 0 2.636 3 5 3l12-23c-4.16 0-7.712 4-11 4l-1 1v1l-5 14ZM82 108l-1 1 1-1Z"/><path fill="#1A7D63" id="SSp-un6b" d="M127 109h1v-1h-1v1ZM328 109h1v-1h-1v1Z"/><path fill="#188064" id="SSp-m6b" d="m103 135-4 4c0-6.447 21.4-30 28-30h1l-4 4c-1.238 0-3 .423-3 2-1.747 0-2 .253-2 2-3.009 0-12 8.991-12 12-2.177 0-4 4.336-4 6Z"/><path fill="#AAA8A9" id="SEZ" d="m202 109 2 2-2-2ZM255 109l-2 1 2-1Z"/><path fill="#188064" id="SSp-m6b" d="M361 147h1c0-6.356-15.471-26.986-21.5-30-4.275-2.137-6.367-8-11.5-8h-1c0 1.222 11.738 9.119 13.5 10 3.832 1.916 19.5 24.638 19.5 28Z"/><path fill="#90CBEC" id="LSc" d="m266 142-1 1c-3.179 0-4.818-4.659-7.5-6-3.637-1.819-23.5-16.368-23.5-20v-2c6.305 0 13.101-4 19-4 0 7.458 13 19.036 13 31ZM191 142l1 1 9-7.5c3.345-3.345 22-13.64 22-19.5l-1-1c-6.065 0-11.262-4-18-4 0 5.179-13 18.061-13 31Z"/><path fill="#1A8062" id="SSp-n4" d="m70 113-1 1 1-1Z"/><path fill="#C9C9CA" id="scwm" d="M124 113c-1.238 0-3 .423-3 2 1.238 0 3-.423 3-2Z"/><path fill="#1A7E64" id="SSp-m2/3" d="M388 113c0 1.93 1.93 0 0 0ZM401 124c-3.123 0-6.177 5-8 5-1.67 0-6-13.037-6-15 4.108 0 8.649 4 12 4l1 2 1 3v1ZM55 123c2.853 0 6.968 6 9 6l5-14c-4.58 0-7.396 3-12 3v1l-1 1-1 2v1Z"/><path fill="#C9C9CA" id="scwm" d="M121 115c-1.747 0-2 .253-2 2l2-2Z"/><path fill="#97D6F9" id="STR" d="M223 116h1l-2-1 1 1ZM226 116h4c0 2.711-4 1.509-4 0ZM233 116l1 1v-2l-1 1Z"/><path fill="#90CAED" id="LSr" d="M264 170c-1.423 0-3.544-1.978-5.5-1l-4.5 2c0-3.932-5.119-24-9-24v-1l-2-2-1-1c0-3.919-7.268-8.036-9-11.5l-4-6-.5-2.5-5.5 9.5c-1.057 2.114-9 7.424-9 10.5l-1 1-2 3c-2.61 0-9 20.425-9 24-.611 0-9-4.514-9-1h-1c0-1.698-1.195-5.89-2-7.5-2.457-4.915 1-14.792 1-19.5h1l9-7.5c3.345-3.345 22-13.64 22-19.5h3c0 1.509 4 2.711 4 0h3l1 1c0 3.632 19.863 18.181 23.5 20 2.682 1.341 4.321 6 7.5 6l1 2c0 8.017-1 16.609-1 24l-1 1Z"/><path fill="#C9C9CA" id="scwm" d="M119 117c-3.009 0-12 8.991-12 12 1.263 0 12-9.844 12-12Z"/><path fill="#1A7E62" id="SSs1" d="M41 177h4c0-8.863-1.537-25.426 2-32.5l8-21.5v-1l-2-1-2-2c-1.984 0-3.21 7.92-4 9.5-4.934 9.869-7 22.199-7 34 0 2.033-.795 14.5 1 14.5Z"/><path fill="#187E61" id="SSp-m1" d="m53 121 2 1 1-2c-3.324 0 .394 1-3 1ZM57 119l-1 1 1-1Z"/><path fill="#1A7E62" id="SSs1" d="M411 177h5c0-5.938 1.376-28.747-1-33.5-1.887-3.774-9-21.096-9-24.5l-3 2-2 2v1c2.076 0 3.216 7.932 4 9.5 6.574 13.148 6 28.831 6 43.5Z"/><path fill="#187E61" id="SSp-m1" d="m403 121-2 2-1-3c.922 0 3 .483 3 1Z"/><path fill="#1B8063" id="SSs2/3" d="M54 176c-3.222 0-6.277 1-9 1 0-8.863-1.537-25.426 2-32.5l8-21.5c2.853 0 6.968 6 9 6l-5 11.5c-4.834 9.668-5 23.919-5 35.5Z"/><path fill="#8FCBEC" id="SF" d="M213 190c0 1.238.423 3 2 3 0-2.448-4.923-28 0-28l2.5-5 4-4c8.462-4.231 6.135 15 3.5 15 0 2.709 2 4.646 2 8 2.93 0 1.084 3 3 3 0-3.806 1-7.751 1-11 0-4.633-3.715-9.069-1-14.5 2.166-4.333 11 4.472 11 8.5 3.047 0 2 17.799 2 21l4-8.5 7-6.5c0-3.932-5.119-24-9-24 0 1.423 1.978 3.544 1 5.5-3.874 7.749-15.552-9.5-4-9.5 0-3.919-7.268-8.036-9-11.5l-4-6-.5-2.5-5.5 9.5c-1.057 2.114-9 7.424-9 10.5 14.835 0-4 19.646-4 7.5l1-3.5c-2.61 0-9 20.425-9 24 6.087 0 11 14.324 11 19Z"/><path fill="#1B8063" id="SSs2/3" d="M402 176c3.222 0 6.277 1 9 1 0-14.669.574-30.352-6-43.5-.784-1.568-1.924-9.5-4-9.5-3.123 0-6.177 5-8 5v1l6 15.5c3.508 7.017 3 22.862 3 30.5Z"/><path fill="#187C63" id="SSs4" d="m59 175-5 1c0-11.581.166-25.832 5-35.5l5-11.5c1.947 0 2.636 3 5 3v1l-5 13.5c-3.539 7.078-5 20.268-5 28.5Z"/><path fill="#C9C9CA" id="scwm" d="M107 129c-2.177 0-4 4.336-4 6 1.617 0 4-4.583 4-6Z"/><path fill="#187C63" id="SSs4" d="m397 175 5 1c0-7.638.508-23.483-3-30.5l-6-15.5-6 2v1l6 14.5c3.508 7.016 4 19.216 4 27.5Z"/><path fill="#1C8063" id="SSs5" d="M59 175h13l1-19.5 6-16.5c-3.702 0-6.057-6-10-6l-5 13.5c-3.539 7.078-5 20.268-5 28.5ZM384 175h13c0-8.284-.492-20.484-4-27.5l-6-14.5c-3.95 0-5.894 6-10 6l6 15.5 1 20.5Z"/><path fill="#C9C9CA" id="scwm" d="m99 139-2 6c2.268 0 6-8.031 6-10l-4 4Z"/><path fill="#197D63" id="SSs6a" d="M85 175h1c0-10.029 8-18.57 8-28l-15-8-6 16.5-1 19.5h13Z"/><path fill="#188064" id="SSp-m6b" d="m97 145-2 2c0-1.937 1.553-8 4-8l-2 6Z"/><path fill="#197D63" id="SSs6a" d="M371 175h13l-1-20.5-6-15.5-15 8c0 6.737 9 19.897 9 28Z"/><path fill="#97D6F9" id="STR" d="M191 143h1l-1-1v1Z"/><path fill="#CBC8CB" id="fi" d="m213 144-2 3-1 3.5c0 12.146 18.835-7.5 4-7.5l-1 1ZM245 146v1c0 1.423 1.978 3.544 1 5.5-3.874 7.749-15.552-9.5-4-9.5l1 1 2 2Z"/><path fill="#97D6F9" id="STR" d="m265 143 1 2v-3l-1 1Z"/><path fill="#8FCBEC" id="SF" d="m214 143-1 1 1-1ZM243 144l2 2-2-2Z"/><path fill="#C9C9CA" id="scwm" d="M95 147v3c1.638 0 2-3.576 2-5l-2 2Z"/><path fill="#1A8061" id="SSs6b" d="M86 175h1l1-2v-3l1-1v-2l1-1v-1c0-1.647 1.268-7 3-7v-3l1-2 1-2v-4h-1c0 9.43-8 17.971-8 28ZM369 175h2c0-8.103-9-21.263-9-28h-1v3c1.577 0 2 1.762 2 3 0 5.108 4 8.224 4 13v2l1 2v1c1.473 0 1 1.952 1 3v1Z"/><path fill="#C9C9CA" id="scwm" d="M361 150c1.577 0 2 1.762 2 3l-2-3ZM95 151l-1 2 1-2ZM94 153l-1 2 1-2Z"/><path fill="#97D6F9" id="STR" d="m283 212 2 1-2-2.5c-2.795-5.59.83-14.34-2-20-3.728-7.455 3.65-17.7 0-25-1.62-3.241-5.024-3.262-7.5-4.5-2.265-1.133-4.563-8-5.5-8l-1 21c3.39 0 5.021 1 6 1l4 4 .5-3 1.5 6 1 18c1.714 0 1 5.594 1 7l2 5ZM174 212l-3 1c0-1.009 2.421-5.343 3-6.5 1.406-2.812-.461-7.078 1-10v-30c2.055-4.111 4.951-3.725 8.5-5.5 2.114-1.057 3.346-7 4.5-7 0 7.553 2 14.903 2 22-.112 0-7-6.774-7 0l-3 2c-4.558 0-3 15.191-3 21 0 .322-3 10.982-3 13Z"/><path fill="#96A7D2" id="TRS" d="M215 165c4.106 0 6.05 6 10 6 2.635 0 4.962-19.231-3.5-15l-4 4-2.5 5ZM241 165c-4.106 0-6.05 6-10 6 0-4.633-3.715-9.069-1-14.5 2.166-4.333 11 4.472 11 8.5Z"/><path fill="#C9C7C9" id="ccb" d="M93 158c-1.732 0-3 5.353-3 7 1.732 0 3-5.353 3-7Z"/><path fill="#C7C8CA" id="fx" d="m216 195 2 1 4-2 1-1 1-1 1-5 1-1v-3l1-2v-2c0-3.354-2-5.291-2-8-3.95 0-5.894-6-10-6-4.923 0 0 25.552 0 28v1l1 1ZM240 195l-1 1c-3.267 0-5.364-5-7-5 0-1.564-1-3.876-1-6l-1-1v-2c0-3.806 1-7.751 1-11 3.95 0 5.894-6 10-6 3.047 0 2 17.799 2 21v1c-.853 0-2 6.031-2 7l-1 1Z"/><path fill="#C9C7C9" id="ccb" d="m90 166-1 1 1-1ZM367 168l1 2-1-2ZM88 170h1v-1l-1 1Z"/><path fill="#8FCBED" id="LSv" d="m198 187 5.5 6c4.232 2.116 6.72-3 9.5-3 0-4.676-4.913-19-11-19-.611 0-9-4.514-9-1l-1 1v6l3 6v1l1 1 2 2ZM255 192l-1 1h-6.5l-4.5-4v-3l4-8.5 7-6.5 4.5-2c1.956-.978 4.077 1 5.5 1v9l-1 2v1l-1 1-1 1-1 1-1 1v1l-1 1-1 1-1 2-1 1Z"/><path fill="#97D6F9" id="STR" d="M264 170v1l1-2-1 1Z"/><path fill="#C8CBCC" id="ec" d="m89 170-1 1v-1h1Z"/><path fill="#8FCBEC" id="SF" d="m193 170-1 1v-1h1Z"/><path fill="#C8CBCC" id="ec" d="M368 171c1.473 0 1 1.952 1 3-1.473 0-1-1.952-1-3ZM93 208l2 2-6-18.5-1-18.5-1 2v2c0 4.725 1 9.879 1 14v1l1 1 2 10 1 1v3l1 1Z"/><path fill="#B3C0DE" id="BST" d="M203 204c-4.481 0-14.072 8-24 8 0-6.916 1-13.506 1-21 .446 0 3-13.559 3-15 0-6.774 6.888 0 7 0l1 3c0 1.634 2.634 4 4 4v1l1 1 2 2c0 5.123 7 8.067 7 14v2h-1l-1 1ZM253 203l13.5 8 11.5 1-1-17v-2c-1.951 0-.477-2.454-1-3.5-1.546-3.092-3-11.178-3-14.5-.979 0-2.61-1-6-1 0 1.424-.362 5-2 5 0 1.747-.253 2-2 2v1l-1 1-1 1-1 1-1 1v1l-1 1-1 1-1 2-1 1-1 1c0 3.239-3 4.575-3 8v1l2 1Z"/><path fill="#11AC82" id="VISC4" d="m59 182-4 1-1-7 5-1v7Z"/><path fill="#12AD82" id="VISC5" d="M72 179c-3.458 0-8.233 3-13 3v-7h13v4Z"/><path fill="#11AC83" id="VISC6a" d="m85 177-13 2v-4h13v2Z"/><path fill="#11AD82" id="VISC6b" d="M85 177h2v-2h-2v2Z"/><path fill="#8599CC" id="PAL" d="M277 179v14c-1.951 0-.477-2.454-1-3.5-1.546-3.092-3-11.178-3-14.5l4 4Z"/><path fill="#11AD82" id="VISC6b" d="M370 177h1v-2h-2v1l1 1Z"/><path fill="#11AC83" id="VISC6a" d="m371 177 13 2v-4h-13v2Z"/><path fill="#12AD82" id="VISC5" d="M384 179c4.062 0 8.575 3 13 3v-7h-13v4Z"/><path fill="#11AC82" id="VISC4" d="M401 183h1v-7l-5-1v7l4 1Z"/><path fill="#12AC83" id="VISC2/3" d="m55 183-8 4-2-10c2.723 0 5.778-1 9-1l1 7Z"/><path fill="#8599CC" id="PAL" d="M180 178v13c.446 0 3-13.559 3-15l-3 2Z"/><path fill="#CCC" d="M277 195c.733 0 3 7.486 3 5l-1-18-1.5-6-.5 3v16Z"/><path fill="#C8CBCC" id="ec" d="M367 193h1v-1l1-1v-1l1-13-1-1-2 17Z"/><path fill="#12AC83" id="VISC2/3" d="M402 183c0 1.283 6.327 4 7 4 0-2.979 2-6.23 2-10-2.723 0-5.778-1-9-1v7Z"/><path fill="#12AD83" id="VISC1" d="m47 187-4 1c0-3.378-2-6.922-2-11h4l2 10Z"/><path fill="#009B74" id="GU6a" d="m83 193-8 1c0-4.528-3-10.16-3-15l13-2c0 5.128 2 9.451 2 14-1.466 0-4-.109-4 2Z"/><path fill="#019C74" id="GU6b" d="M87 191h1c0-4.121-1-9.275-1-14h-2c0 5.128 2 9.451 2 14Z"/><path fill="#CCC" d="M180 191c-2.272 0 .258 8-3 8 0-5.809-1.558-21 3-21v13Z"/><path fill="#97D6F9" id="STR" d="M191 179c0 1.634 2.634 4 4 4l-3-6-1 2Z"/><path fill="#019C74" id="GU6b" d="M371 177c0 2.361.735 13-2 13l1-13h1Z"/><path fill="#009B74" id="GU6a" d="m373 193 8 1c0-3.28 3-9.71 3-15l-13-2c0 2.361.735 13-2 13v1c1.465 0 4-.109 4 2Z"/><path fill="#12AD83" id="VISC1" d="m409 187 4 1c1.612 0 3-9.304 3-11h-5c0 3.77-2 7.021-2 10Z"/><path fill="#019C75" id="GU5" d="M75 194c-4.08 0-8.364 2-13 2 0-4.416-3-9.086-3-14 4.767 0 9.542-3 13-3 0 4.84 3 10.472 3 15Z"/><path fill="#FF5445" id="MEPO" d="M229 197h1c6.417 0 2-2.027 2-6 0-1.564-1-3.876-1-6l-1-1v-2c-1.916 0-.07-3-3-3v2l-1 2v3l-1 1-1 5-1 1v1c0 2.747.253 3 3 3h3Z"/><path fill="#97D6F9" id="STR" d="M265 179c0 1.747-.253 2-2 2l1-2h1Z"/><path fill="#019C75" id="GU5" d="M381 194c4.081 0 8.364 2 13 2 0-4.342 3-8.664 3-14-4.425 0-8.938-3-13-3 0 5.29-3 11.72-3 15Z"/><path fill="#CAC7CB" id="fiber tracts" d="m227 181-1 2 1-2Z"/><path fill="#009C74" id="GU4" d="m62 196-2 1c0-3.07-5-8.274-5-14l4-1c0 4.914 3 9.584 3 14Z"/><path fill="#97D6F9" id="STR" d="m263 182-1 1 1-1Z"/><path fill="#009C74" id="GU4" d="m394 196 2 1c0-1.681 5-7.955 5-14l-4-1c0 5.336-3 9.658-3 14Z"/><path fill="#009B75" id="GU2/3" d="M51 199h1c2.885 0 4.697-2 8-2 0-3.07-5-8.274-5-14l-8 4c0 4.366 4 7.128 4 12Z"/><path fill="#97D6F9" id="STR" d="m262 183-1 1 1-1Z"/><path fill="#009B75" id="GU2/3" d="M404 199h1c0-4.704 4-7.296 4-12-.673 0-7-2.717-7-4h-1c0 6.045-5 12.319-5 14 3.303 0 5.115 2 8 2Z"/><path fill="#97D6F9" id="STR" d="m195 184 1 1-1-1Z"/><path fill="#CAC7CB" id="fiber tracts" d="m230 184 1 1-1-1Z"/><path fill="#97D6F9" id="STR" d="m260 185-1 1 1-1Z"/><path fill="#CAC7CB" id="fiber tracts" d="m226 186-1 1 1-1Z"/><path fill="#009C75" id="GU1" d="m51 199-3 2-5-13 4-1c0 4.366 4 7.128 4 12Z"/><path fill="#97D6F9" id="STR" d="m205 201 1 1 9-2 2-1 1-3-2-1-1-1v-1c-1.577 0-2-1.762-2-3-2.78 0-5.268 5.116-9.5 3l-5.5-6c0 5.123 7 8.067 7 14Z"/><path fill="#8FCBEC" id="SF" d="M243 189c0 1.622.461 5-2 5 0-.969 1.147-7 2-7v2Z"/><path fill="#97D6F9" id="STR" d="m259 187-1 1 1-1Z"/><path fill="#009C75" id="GU1" d="m405 199 3 2c2.095 0 5-10.666 5-13l-4-1c0 4.704-4 7.296-4 12Z"/><path fill="#97D6F9" id="STR" d="m258 188-1 1 1-1ZM251 201l-1 1-9-2-1-1h-1v-3l1-1 1-1c2.461 0 2-3.378 2-5l4.5 4h6.5c0 3.239-3 4.575-3 8ZM257 189l-1 2 1-2Z"/><path fill="#8ADA86" id="CLA" d="m91 208-4 1-4-4.5c-1.638-3.276 0-8.479 0-11.5 0-2.109 2.534-2 4-2h1v1l1 1 2 10 1 1v3l-1 1Z"/><path fill="#8599CC" id="PAL" d="M174 212h5c0-6.916 1-13.506 1-21-2.272 0 .258 8-3 8 0 .322-3 10.982-3 13Z"/><path fill="#CAC7CB" id="fiber tracts" d="M230 197c0 2.656 6.992 2 9 2v-3c-3.267 0-5.364-5-7-5 0 3.973 4.417 6-2 6Z"/><path fill="#97D6F9" id="STR" d="m256 191-1 1 1-1Z"/><path fill="#009B74" id="GU6a" d="m369 191-1 1 1-1Z"/><path fill="#8ADA86" id="CLA" d="m365 208 4 1c6.725 0 4-13.092 4-16 0-2.109-2.535-2-4-2l-1 1v1l-1 1-1 6-1 1v7Z"/><path fill="#209766" id="AIp6a" d="m88 192 1 1-1-1Z"/><path fill="#CAC7CB" id="fiber tracts" d="m224 192-1 1 1-1Z"/><path fill="#97D6F9" id="STR" d="m255 192-1 1 1-1Z"/><path fill="#209766" id="AIp6a" d="M83 213h2l2-4-4-4.5c-1.638-3.276 0-8.479 0-11.5l-8 1 8 19Z"/><path fill="#8FCBEC" id="SF" d="M222 194h1v-1l-1 1Z"/><path fill="#C8CBCC" id="ec" d="M365 200h1l1-6v-1c-1.663 0-2 5.407-2 7Z"/><path fill="#209766" id="AIp6a" d="m368 193-1 1v-1h1ZM371 212l3 1c0-6.847 7-12.068 7-19l-8-1c0 2.908 2.725 16-4 16l2 3Z"/><path fill="#219864" id="AIp5" d="m81 215-5 1c0-3.146-14-14.08-14-20 4.636 0 8.92-2 13-2l8 19-2 2Z"/><path fill="#8FCBEC" id="SF" d="m215 194 1 1-1-1Z"/><path fill="#CAC7CB" id="fiber tracts" d="M226 197c0 2.656-6.992 2-9 2l1-3 4-2h1c0 2.747.253 3 3 3Z"/><path fill="#8FCBEC" id="SF" d="m241 194-1 1 1-1Z"/><path fill="#219864" id="AIp5" d="m376 215 5 1c0-3.649 13-13.805 13-20-4.636 0-8.919-2-13-2 0 6.932-7 12.153-7 19l2 2Z"/><path fill="#8599CC" id="PAL" d="M278 212h5l-2-5c0-1.406.714-7-1-7 0 2.486-2.267-5-3-5l1 17Z"/><path fill="#209865" id="AIp2/3" d="m76 216-11 4c0-5.075-13-14.746-13-21 2.885 0 4.697-2 8-2l2-1c0 5.92 14 16.854 14 20ZM381 216c0 .473 8.784 4 10 4 0-2.399 13-15.086 13-21-2.885 0-4.697-2-8-2l-2-1c0 6.195-13 16.351-13 20Z"/><path fill="#CBCBC7" id="aco" d="M239 217h2c0-.568 12-6.313 12-14l-2-1h-1l-9-2-1-1h-1c-2.008 0-9 .656-9-2h-1c0 1.399-2 1.399-2 0h-1c0 2.656-6.992 2-9 2l-2 1-9 2-1 1h-1l-1 1c0 5.865 12 11.721 12 13h24Z"/><path fill="#CAC7CB" id="fiber tracts" d="M227 197h2c0 1.399-2 1.399-2 0Z"/><path fill="#219765" id="AIp1" d="m65 220-4 3-3-4.5c-3.18-3.18-10-13.169-10-17.5l3-2h1c0 6.254 13 15.925 13 21Z"/><path fill="#CAC7CB" id="fiber tracts" d="m217 199-2 1 2-1ZM240 199l1 1-1-1Z"/><path fill="#219765" id="AIp1" d="m391 220 4 3c1.64 0 13-19.412 13-22l-3-2h-1c0 5.914-13 18.601-13 21Z"/><path fill="#209766" id="AIp6a" d="m366 200-1 1v-1h1Z"/><path fill="#CAC7CB" id="fiber tracts" d="m206 202-1 1v-2l1 1ZM250 202h1v-1l-1 1Z"/><path fill="#C8CBCC" id="ec" d="m364 208-2 1c0-1.4 1.431-8 3-8v5l-1 2Z"/><path fill="#209766" id="AIp6a" d="m91 203 1 1-1-1Z"/><path fill="#C9C9C9" id="act" d="m204 203-1 1 1-1ZM307 233h1l6.5 1c2.097-1.048-3.099-4.549-4-5-3.034-1.517-20.5-10.038-20.5-14l-5-2-2-1h-5l-11.5-1-13.5-8c0 7.687-12 13.432-12 14h6c7.8 0 17.964-1.268 24.5 2 1.676.838 6.5-1.474 6.5 2h1c1.041 0 5 .986 5 2 3.551 0 23 8.463 23 10ZM151 232l-2 1c-1.523 0-9.057 1.613-8-.5l5-3.5c1.856 0 7-1.782 7-4 2.244 0 11-5.253 11-8l1-1 1-1h1l1-1 3-1 3-1h5c9.928 0 19.519-8 24-8 0 5.865 12 11.721 12 13h-22.5c-2.885 1.443-10.405 3-13.5 3l-2 1-4 2c-1.623 0-6 .005-6 2-1.424 0-5 .362-5 2-1.465 0-4-.109-4 2h-1l-4 2-2 1Z"/><path fill="#209766" id="AIp6a" d="M364 208h1v-2l-1 2ZM91 208h2l-1-1-1 1Z"/><path fill="#A0EE9C" id="EPd" d="m103 229-2 2c-3.912 0-6.049-4-9-4l-3-3-2-2-1-2c0-1.819-1-4.591-1-7l2-4 4-1h2l2 2 1 5 1 1v2l2 2v1l1 1 2 3 1 4ZM355 231h4l2-1 1-1h1l1-1 1-1 1-1 1-1 1-1 1-1v-1l1-1 1-1v-8l-2-3-4-1h-1l-2 1-1 2v2l-1 2-1 2-1 3-1 1v1l-1 1-1 1v1l-1 1-1 1v2l2 2Z"/><path fill="#C8CBCC" id="ec" d="m362 209-1 2 1-2Z"/><path fill="#99D2BD" id="OLF" d="m376 215-5 4v-7l3 1 2 2ZM81 215l5 5c0-1.819-1-4.591-1-7h-2l-2 2Z"/><path fill="#C8CBCC" id="ec" d="m361 213-1 2 1-2Z"/><path fill="#97D6F9" id="STR" d="m168 214-1 1 1-1Z"/><path fill="#6ACAB9" id="PIR" d="m121 279-2 1c-10.556 0-20.008-11-24-11l-9-10.5-19-26c-1.538-3.077-6-5.884-6-9.5l4-3 11-4 5-1 5 5 1 2 2 2 3 3c0 2.504 11.04 9 13 9l13 10 5 5.5c2.426 4.852 2 9.711 2 14.5 0 4.178-4 6.934-4 11v2Z"/><path fill="#C8CBCC" id="ec" d="m96 215 1 1-1-1Z"/><path fill="#97D6F9" id="STR" d="m166 215-1 1 1-1ZM329 265l-1 1-5-1c0-1.301-2.496-7-4-7v-1l-2-2v-1l-2-2v-1c1.984 0 3.945 3.278 6.5 2 2.009-1.004 15.5-12.479 15.5-14.5 0-2.289-6.154-1.5-7.5-1.5-5.64 0-9.401-2-16.5-2-1.424 0-5-.362-5-2l6.5 1c2.097-1.048-3.099-4.549-4-5-3.034-1.517-20.5-10.038-20.5-14 4.836 0 9.279 7.889 13.5 10 12.092 6.046 22.707 10 37.5 10v1c0 1.624-2 2.75-2 5-5.656 0-9.346 13.193-11 16.5-1.182 2.364 1 5.696 1 7.5Z"/><path fill="#C8CBCC" id="ec" d="m360 215-1 2 1-2Z"/><path fill="#6ACAB9" id="PIR" d="m335 279 2 1c11.831 0 18.204-10 25-10 0-4.219 7.555-8.61 9-11.5 3.985-7.969 24-28.792 24-35.5l-4-3c-1.216 0-10-3.527-10-4l-5-1-5 4v1l-1 1-1 1v1l-1 1-1 1-1 1-1 1-1 1-1 1h-1l-1 1-2 1c0 1.391-5.706 5-7 5l-14 10c0 .008-6.381 10.262-7 11.5v8.5c0 4.383 4 7.783 4 13Z"/><path fill="#97D6F9" id="STR" d="m165 216-1 1 1-1ZM164 217c-1.998 0-11 5.73-11 8 2.244 0 11-5.253 11-8Z"/><path fill="#B3C0DE" id="BST" d="M208 227c-4.119 0-8.091 6-13 6-5.205 0-14.325-2.151-17-7.5l1-5.5c3.095 0 10.615-1.557 13.5-3H209l1 5.5-2 4.5Z"/><path fill="#E64438" id="HY" d="m221 239 3 2c0-3.971 1-8.931 1-13.5 0-1.098-.534-3.5 1-3.5l1-4-3-2c-1.406 0-7 .714-7-1h-8l1 5.5-2 4.5c1.579 0 1 2.855 1 4 2.409 0 1.055-1.277 2.5-2 3.072-1.536 9.199 2.898 10.5 5.5l-1 4.5Z"/><path fill="#C9C9C9" id="act" d="M224 217v1c-1.406 0-7 .714-7-1h7Z"/><path fill="#CAC7CB" id="fiber tracts" d="M232 218h1v-1h-9v1h8Z"/><path fill="#C9C9C9" id="act" d="M239 217c0 1.684-4.679 1-6 1v-1h6Z"/><path fill="#E64438" id="HY" d="m235 239-3 3-.5-18-1.5 1-1-5 3-2h1c1.321 0 6 .684 6-1h8l-1 5.5 3 4.5c-3.669 0-1 3.924-1 5l-3.5-3c-3.686-1.843-9.334 4.168-10.5 6.5l1 3.5Z"/><path fill="#B3C0DE" id="BST" d="M249 227c4.067 0 7.852 6 13 6 7.79 0 16-3.54 16-12 0-3.474-4.824-1.162-6.5-2-6.536-3.268-16.7-2-24.5-2l-1 5.5 3 4.5Z"/><path fill="#C8CBCC" id="ec" d="m97 218 2 2-2-2Z"/><path fill="#E64438" id="HY" d="m194 239-4.5-4c-3.78-1.89-5.5 3.47-5.5 6-5.72 0-4.062-16-10-16v-1l3-3 2-1-1 5.5c2.675 5.349 11.795 7.5 17 7.5v5l-1 1Z"/><path fill="#FF5445" id="MEPO" d="M228 227h1v-1l1-1-1-5h-2l-1 4 2 3Z"/><path fill="#C8CBCC" id="ec" d="m358 220-1 1 1-1Z"/><path fill="#99D2BD" id="OLF" d="m371 220-1 1 1-1Z"/><path fill="#C8CBCC" id="ec" d="m99 221 1 1-1-1Z"/><path fill="#8599CC" id="PAL" d="m173 223 1 1 3-3-4 2Z"/><path fill="#E64438" id="HY" d="M263 240c0-6.536 10-6.168 10 0 5.063 0 4.132-15 9-15l-3-4h-1c0 8.46-8.21 12-16 12 0 2.688-1 3.418-1 5l2 2Z"/><path fill="#8599CC" id="PAL" d="M282 225h1l1-2c0-1.014-3.959-2-5-2l3 4Z"/><path fill="#99D2BD" id="OLF" d="m370 221-1 1 1-1ZM87 222l2 2-2-2Z"/><path fill="#C8CBCC" id="ec" d="m357 222-1 1 1-1Z"/><path fill="#97D6F9" id="STR" d="M167 225h7v-1l-1-1c-1.623 0-6 .005-6 2ZM294 228c0-1.327 10.932 5 13 5 0-1.537-19.449-10-23-10l-1 2c4.384 0 7.678 3 11 3Z"/><path fill="#C8CBCC" id="ec" d="m356 223-1 1 1-1Z"/><path fill="#99D2BD" id="OLF" d="m369 223-1 1 1-1Z"/><path fill="#FE5547" id="PVpo" d="m222 273-5 1c0-3.047 3-4.462 3-7 4.641 0 4-21.495 4-26 0-3.971 1-8.931 1-13.5 0-1.098-.534-3.5 1-3.5l2 3c0 4.283 1 4.283 1 0v-1l1-1 1.5-1 .5 18c0 5.328-.681 25 5 25l2 7-8-3-2-4.5-.5-5.5-.5 2.5-3 7.5-3 2Z"/><path fill="#99D2BD" id="OLF" d="m368 224-1 1 1-1Z"/><path fill="#C8CBCC" id="ec" d="M114 235h1l-6.5-4-6.5-6 1 4c1.562 0 5 2.189 5 4h1l5 2Z"/><path fill="#97D6F9" id="STR" d="M153 225c-1.572 0-7 2.052-7 4 1.856 0 7-1.782 7-4ZM162 227h1l4-2c-1.424 0-5 .362-5 2Z"/><path fill="#A2B1D7" id="SI" d="M128 266c0 7.49 19.665 13 25.5 13 1.611 0 10.5-.749 10.5-2-3.951 0-20.339-4.823-17-11.5 2.535-5.07 18.033-7.5 23-7.5h2c0-1.014 3.959-2 5-2 0-.875 6.013-4.525 7-6.5 1.614-3.228 0-5.597 0-8.5-5.72 0-4.062-16-10-16h-7l-4 2-1 1c0 3.758-21 22.291-21 24l-1 2-1 1-1 1-1 2v1l-2 4c0 1.747-.253 2-2 2l-5 1Z"/><path fill="#E64438" id="HY" d="m230 225-1 1 1-1Z"/><path fill="#A2B1D7" id="SI" d="M328 266c0 7.464-18.788 13-24.5 13-1.611 0-10.5-.749-10.5-2 4.43 0 19.581-5.338 16-12.5-1.199-2.399-19.856-6.5-23-6.5h-1l-6-2-6-5.5c-1.891-3.782 0-6.961 0-10.5 5.063 0 4.132-15 9-15h1c4.384 0 7.678 3 11 3 3.682 0 15.624 23 21 23v1l2 2v1l2 2v1c0 1.856 1.782 7 4 7l5 1Z"/><path fill="#C8CBCC" id="ec" d="m355 225-1 1 1-1Z"/><path fill="#99D2BD" id="OLF" d="m367 225-1 1 1-1Z"/><path fill="#C8CBCC" id="ec" d="m354 226-1 1 1-1Z"/><path fill="#99D2BD" id="OLF" d="m366 226-1 1 1-1ZM104 233l1 3c-1.96 0-13-6.496-13-9 2.951 0 5.088 4 9 4l3 2Z"/><path fill="#97D6F9" id="STR" d="m162 228-4 1c0-2.109 2.535-2 4-2v1Z"/><path fill="#7ECDF8" id="FS" d="m163 227-1 1v-1h1Z"/><path fill="#FD5446" id="PS" d="M195 233v5c2.409 0 14-4.044 14-7 0-1.145.579-4-1-4-4.119 0-8.091 6-13 6Z"/><path fill="#E64438" id="HY" d="M228 227h1c0 4.283-1 4.283-1 0Z"/><path fill="#FD5446" id="PS" d="M262 233c0 2.688-1 3.418-1 5-1.714 0-13-4.534-13-6 0-1.076-2.669-5 1-5 4.067 0 7.852 6 13 6Z"/><path fill="#7ECDF8" id="FS" d="M308 233c0 1.638 3.576 2 5 2 7.099 0 10.86 2 16.5 2 1.346 0 7.5-.789 7.5 1.5 0 2.021-13.491 13.496-15.5 14.5-2.555 1.278-4.516-2-6.5-2-5.376 0-17.318-23-21-23 0-1.327 10.932 5 13 5h1Z"/><path fill="#C8CBCC" id="ec" d="M351 229h2v-2l-2 2Z"/><path fill="#99D2BD" id="OLF" d="m365 227-1 1 1-1Z"/><path fill="#7ECDF8" id="FS" d="M149 233c0 1.014-3.959 2-5 2-6.796 0-11.233 2-17 2-1.367 0-8-.336-8 1.5 0 2.45 14.536 13.518 16.5 14.5l5.5-1c0-1.709 21-20.242 21-24l-4 1h-1c0 2.109-2.535 2-4 2l-2 1-2 1Z"/><path fill="#99D2BD" id="OLF" d="m364 228-1 1 1-1Z"/><path fill="#8AD987" id="CTXsp" d="M104 233h4c0-1.811-3.438-4-5-4l-2 2 3 2Z"/><path fill="#97D6F9" id="STR" d="M127 266h1l5-1 2-2c0-1.465-.109-4 2-4v-1l1-2 1-1 1-1 1-2-5.5 1c-1.964-.982-16.5-12.05-16.5-14.5 0-1.836 6.633-1.5 8-1.5 5.767 0 10.204-2 17-2 1.041 0 5-.986 5-2-1.523 0-9.057 1.613-8-.5l5-3.5c-5.428 0-11.85 3.675-16.5 6H114c0 2.51 4 3.687 4 7l3.5 3c6.827 6.827 5.5 12.57 5.5 21ZM157 229l-4 2c1.465 0 4 .109 4-2Z"/><path fill="#FF5346" id="MPO" fill-rule="evenodd" d="m198 256-3 4.5c0 8.616 13.525-4.5 3-4.5m-4 13 5.5-1 3.5 3c1.749 0 7-1.526 7-4l-3-4.5c-4.886-9.772 4.683-23.5 14-23.5l1-4.5c-1.301-2.602-7.428-7.036-10.5-5.5-1.445.723-.091 2-2.5 2 0 2.956-11.591 7-14 7l-1 1v30ZM255 256v4.5c4.246 8.492 10.143-4.5 0-4.5m8 14c-1.791 0-2.959-3.27-5.5-2l-4.5 3c-2.584 0-5.699-4-7-4l3-3.5c4.859-9.719-3.616-24.5-14-24.5l-1-3.5c1.166-2.332 6.814-8.343 10.5-6.5l3.5 3c0 1.466 11.286 6 13 6l2 2c0 2.895-3.529 8.441-2 11.5 1.715 3.429 2 11.7 2 15.5v3Z"/><path fill="#C8CBCC" id="ec" d="M341 236h1l1-1h1l2-1 1-1h1c0-2.349 3-1.382 3-4-1.261 0-10 5.249-10 6v1Z"/><path fill="#8AD987" id="CTXsp" d="M348 233h4l3-2-2-2h-2c0 2.618-3 1.651-3 4Z"/><path fill="#99D2BD" id="OLF" d="m362 229-1 1 1-1ZM361 230l-2 1 2-1Z"/><path fill="#97D6F9" id="STR" d="m153 231-2 1 2-1Z"/><path fill="#99D2BD" id="OLF" d="M352 233v3c1.294 0 7-3.609 7-5h-4l-3 2Z"/><path fill="#A0ED9D" id="EPv" d="M118 242c0 .666 2.56 4 0 4l-13-10-1-3h5l9 9Z"/><path fill="#97D6F9" id="STR" d="m151 232-2 1 2-1Z"/><path fill="#8AD987" id="CTXsp" d="M114 235c0 2.51 4 3.687 4 7l-9-9 5 2ZM347 233l-1 1 1-1Z"/><path fill="#A0ED9D" id="EPv" d="m339 241-1 5 14-10v-3h-5l-1 1-2 1c0 1.668-3.099 6-5 6Z"/><path fill="#8AD987" id="CTXsp" d="m346 234-2 1 2-1Z"/><path fill="#F2473B" id="LPO" d="m194 266-1 1c-2.564 0-10.118-9-15-9l-1-2c0-.875 6.013-4.525 7-6.5 1.614-3.228 0-5.597 0-8.5 0-2.53 1.72-7.89 5.5-6l4.5 4v27ZM278 258c-4.534 0-12.56 9-15 9 0-3.8-.285-12.071-2-15.5-1.529-3.059 2-8.605 2-11.5 0-6.536 10-6.168 10 0 0 3.539-1.891 6.718 0 10.5l6 5.5-1 2Z"/><path fill="#97D6F9" id="STR" d="m343 235-1 1 1-1Z"/><path fill="#8AD987" id="CTXsp" d="M341 236h1l1-1h1c0 1.668-3.099 6-5 6 0-2.25 2-3.376 2-5Z"/><path fill="#FD4C3E" id="MPN" d="M215 267h5c4.641 0 4-21.495 4-26l-3-2c-9.317 0-18.886 13.728-14 23.5l3 4.5h5ZM241 267h5l3-3.5c4.859-9.719-3.616-24.5-14-24.5l-3 3c0 5.328-.681 25 5 25 0-1.115 2.535 0 4 0Z"/><path fill="#99D2BD" id="OLF" d="m329 265 2 1v-8.5c.619-1.238 7-11.492 7-11.5l1-5c-5.656 0-9.346 13.193-11 16.5-1.182 2.364 1 5.696 1 7.5ZM125 266h2c0-8.43 1.327-14.173-5.5-21l-3.5-3c0 .666 2.56 4 0 4l5 5.5c2.426 4.852 2 9.711 2 14.5Z"/><path fill="#8599CC" id="PAL" d="m315 252 2 2-2-2ZM140 254l-1 1 1-1ZM139 255l-1 1 1-1ZM317 255l2 2-2-2ZM138 256l-1 2 1-2Z"/><path fill="#E64438" id="HY" d="m172 259 2 2 4-3-1-2c-1.041 0-5 .986-5 2v1Z"/><path fill="#FE5447" id="AVP" d="m198 256-3 4.5c0 8.616 13.525-4.5 3-4.5ZM255 256v4.5c4.246 8.492 10.143-4.5 0-4.5Z"/><path fill="#E64438" id="HY" d="M285 259c-2.215 0-1.519 2-3 2l-4-3 1-2 6 2v1Z"/><path fill="#A2B1D8" id="MA" d="M164 277h6l4-2v-14l-2-2-2-1c-4.967 0-20.465 2.43-23 7.5-3.339 6.677 13.049 11.5 17 11.5Z"/><path fill="#8599CC" id="PAL" d="M172 258v1l-2-1h2Z"/><path fill="#96A6D3" id="NDB" d="m174 275 5.5 4c3.683 1.842 8.032 0 11.5 0l3-9c-1.473 0-1-1.952-1-3-2.564 0-10.118-9-15-9l-4 3v14ZM282 274c0 7.118-13.028 5-17 5 0-3.489-2-5.32-2-9v-3c2.44 0 10.466-9 15-9l4 3v13Z"/><path fill="#8599CC" id="PAL" d="m286 258-1 1v-1h1Z"/><path fill="#A2B1D8" id="MA" d="M286 277h7c4.43 0 19.581-5.338 16-12.5-1.199-2.399-19.856-6.5-23-6.5l-1 1c-2.215 0-1.519 2-3 2v13l4 3Z"/><path fill="#8599CC" id="PAL" d="M319 258c1.504 0 4 5.699 4 7-2.218 0-4-5.144-4-7ZM137 259c-2.109 0-2 2.535-2 4l2-4Z"/><path fill="#A8A9AA" id="V3" d="M230 271h1l-2-4.5-.5-5.5-.5 2.5-3 7.5h2c0-1.486 3-1.486 3 0Z"/><path fill="#8599CC" id="PAL" d="m135 263-2 2c1.747 0 2-.253 2-2Z"/><path fill="#7FCCF7" id="OT" d="M279 288c0 4.699 8.984 5.742 11.5 7 11.302 5.651 21.204 3.398 32-2 1.608-.804 6.5-3.393 6.5-5l1-1 1-1c0-1.243 3.006-7 4-7 0-5.217-4-8.617-4-13l-2-1-1 1c0 7.464-18.788 13-24.5 13-1.611 0-10.5-.749-10.5-2h-7c-7.294 0-7 6.219-7 11ZM177 288c0 5.45-8.299 5.399-11.5 7-6.683 3.342-17.488 5.756-25 2l-12.5-8-1-1v-1c0-2.909-5-4.795-5-8l-1-2c0-4.066 4-6.822 4-11h3c0 7.49 19.665 13 25.5 13 1.611 0 10.5-.749 10.5-2h6c5.889 0 8 4.662 8 10l-1 1Z"/><path fill="#E64438" id="HY" d="M194 269v1c-1.473 0-1-1.952-1-3l1-1v3Z"/><path fill="#FD5545" id="VMPO" d="M205 275v4c2.42 0 12-2.285 12-5 0-3.047 3-4.462 3-7h-5l-10 8ZM251 277v2c-2.359 0-12-2.634-12-5l-2-7c0-1.115 2.535 0 4 0 0 2.389 10 5.279 10 10Z"/><path fill="#E64438" id="HY" d="m203 271 2 4 10-8h-5c0 2.474-5.251 4-7 4ZM253 271c0 1.357-.647 6-2 6 0-4.721-10-7.611-10-10h5c1.301 0 4.416 4 7 4Z"/><path fill="#FE5546" id="VLPO" d="M202 281h1l2-2v-4l-2-4-3.5-3-5.5 1v1l-3 9 9 2h2ZM254 281h3l8-2c0-3.489-2-5.32-2-9-1.791 0-2.959-3.27-5.5-2l-4.5 3c0 1.357-.647 6-2 6v2l2 2h1Z"/><path fill="#CAC8C7" id="lot" d="m120 284-1 1c0 3.292-7.027.737-8.5 0-5.458-2.729-15.5-9.216-15.5-16 3.992 0 13.444 11 24 11l1 2v2ZM337 283v1c0 2.875 4.927 2.787 6.5 2 3.773-1.887 18.5-10.992 18.5-16-6.796 0-13.169 10-25 10v3Z"/><path fill="#CAC7CB" id="fiber tracts" d="M222 273h6l-1-2h-2l-3 2ZM251 279l2 2c-9.183 0-14.659-8-24-8l1-2h1l8 3c0 2.366 9.641 5 12 5ZM205 279l-2 2c3.189 0 19-5.612 19-8l-5 1c0 2.715-9.58 5-12 5Z"/><path fill="#CBCACC" id="och" d="M253 281h1c0 1.911 4.436 4.032.5 6-4.484 2.242-21.263 1.369-26-1-3.124-1.562-21.126 3.937-27 1-3.404-1.702.5-4.404.5-6h1c3.189 0 19-5.612 19-8h7c9.341 0 14.817 8 24 8Z"/><path fill="#8599CC" id="PAL" d="M265 279c0 2.06 12.029 9 14 9 0-4.781-.294-11 7-11l-4-3c0 7.118-13.028 5-17 5ZM191 279c0 3.196-10.67 8-13 8 0-5.338-2.111-10-8-10l4-2 5.5 4c3.683 1.842 8.032 0 11.5 0Z"/><path fill="#99D2BD" id="OLF" d="M121 279h1l-1-2v2ZM119 280l1 2c1.473 0 1-1.952 1-3l-2 1Z"/><path fill="#97D6F9" id="STR" d="M120 284c3.651 0 4.352 3 7 3 0-2.909-5-4.795-5-8h-1c0 1.048.473 3-1 3v2ZM337 284c-2.483 0-4.026 2-6 2 0-1.243 3.006-7 4-7l2 4v1Z"/><path fill="#99D2BD" id="OLF" d="M337 280v3l-2-4 2 1Z"/><path fill="#CAC7CB" id="fiber tracts" d="M254 281h3c0 2.245 2 3.905 2 5.5 0 3.345-6.951 1.726-8.5 2.5-3.191 1.595-17.345 2.828-21 1l-1-2-2 2h-10c-5.621 0-11.348.326-16-2l-3.5-1.5c0-1.271 3-3.792 3-5.5h2c0 1.596-3.904 4.298-.5 6 5.874 2.937 23.876-2.562 27-1 4.737 2.369 21.516 3.242 26 1 3.936-1.968-.5-4.089-.5-6Z"/><path fill="#97D6F9" id="STR" d="m120 284-1 1 1-1ZM331 286l-1 1 1-1Z"/><path fill="#8599CC" id="PAL" d="m178 287-1 1 1-1Z"/><path fill="#97D6F9" id="STR" d="m330 287-1 1 1-1ZM127 288l1 1-1-1Z"/></svg>