<svg xmlns="http://www.w3.org/2000/svg" viewBox="0 0 456 320"><path fill="#99D2BD" id="OLF" d="M175 183c3.289 0 12.996 26 20 26 5.9 0 18.445-10.389 21-15.5 1.969-3.939-.923-10.155 1-14 2.873-5.745 1.695-35.61-1-41-2.278-4.556-11.443-5.529-15.5-3.5-8.964 4.482-14.714 5.928-19.5 15.5-1.609 3.218-4 4.537-4 8.5 0 7.595-2 15.597-2 24ZM281 183c0 2.252-17.39 26-19 26-6.905 0-18.91-10.321-22-16.5-2.199-4.397-1-12.287-1-17.5 0-12.112-3.493-26.514 2-37.5 4.207-8.414 26.689-.623 30 6l6 8c1.058 2.115.981 4.961 2 7 3.324 6.648 2 16.558 2 24.5Z"/><path fill="#C7CBCA" id="onl" d="M175 183c3.289 0 12.996 26 20 26 0 7.775-12.078 2.344-14-1.5-6.294-12.588-6-10.837-6-24.5ZM281 183c1.552 0 2.907 7.685 2 9.5-2.072 4.143-7.927 16.714-11.5 18.5-3.316 1.658-9.5 4.444-9.5-2 1.61 0 19-23.748 19-26Z"/></svg>