<svg xmlns="http://www.w3.org/2000/svg" viewBox="0 0 456 320"><path fill="#1E9C59" id="MOs1" d="m219 68-6.5-7c-5.153-2.576-16.707-10.147-25-6-9.837 4.918-22.147 5.074-32 10l-7.5 4c0-1.564-1-3.876-1-6l22.5-10c3.887-1.944 28.056-6.472 33-4 3.71 1.855 7.964 4.482 11 6 2.68 1.34 9.5 7.765 9.5 11l-4 2ZM308 69h1v-6c-2.294 0-13.735-6.617-16.5-8-9.872-4.936-45.099-11.302-51.5 1.5-1.134 2.267-7 4.639-7 8.5l3 3 6.5-7c5.735-2.867 17.051-9.975 25-6 6.682 3.34 15.367 2.683 22 6 2.944 1.472 14.988 8 17.5 8Z"/><path fill="#1E9D58" id="MOs2/3" d="M148 87h1l11.5-7c7.946-3.973 29.363-18.318 38-14 2.936 1.468 13.5 1.312 13.5 7h1c1.53 0 3.216-4 6-4v-1l-6.5-7c-5.153-2.576-16.707-10.147-25-6-9.837 4.918-22.147 5.074-32 10l-7.5 4-1 1c0 6.034 1 10.074 1 17ZM244 73c0-5.396 10.65-5.575 13.5-7 8.958-4.48 34.509 11.754 43 16 2.232 1.116 4.962 5 7.5 5V69c-2.512 0-14.556-6.528-17.5-8-6.633-3.317-15.318-2.66-22-6-7.949-3.975-19.265 3.133-25 6l-6.5 7v1c2.02 0 6 2.19 6 4h1Z"/><path fill="#1E9D5A" id="MOp1" d="M87 117c0 2.591 1.161 1.822 2 3.5.46.92-2.578 3.5 0 3.5 0-4.84 6.901-9.303 9-13.5 6.353-12.706 21.377-25.438 33.5-31.5 4.691-2.345 10.067-9 15.5-9l1-1c0-1.564-1-3.876-1-6-5.457 0-11.698 7.6-16.5 10-11.25 5.625-27.794 18.087-33.5 29.5-2.04 4.08-9 8.84-9 13.5l-1 1ZM367 125h1c0-3.481 1-4.328 1-8 0-6.325-9.259-12.019-12-17.5-5.955-11.91-26.907-25.204-37.5-30.5-3.348-1.674-6.569-6-10.5-6v6l12.5 8c14.89 7.445 29.734 18.968 37.5 34.5 2.322 4.645 8 7.925 8 13.5Z"/><path fill="#1F9D58" id="MOs5" d="M195 91h1c0-5.57 16-14.623 16-18 0-5.688-10.564-5.532-13.5-7-8.637-4.318-30.054 10.027-38 14L149 87v21l34.5-16c1.565-.782 11.5-5.19 11.5-1Z"/><path fill="#3EA665" id="ACAd1" d="M222 97h12l-1-19.5c.845-1.69 4-6.846 4-8.5v-1l-3-3c-5.652 0-2.856 14.787-8 4.5l-3-3.5-4 2v1c6.437 0 3 24.237 3 28Z"/><path fill="#1F9D58" id="MOs5" d="M261 91c1.602 0 2.384-3.058 4.5-2 9.053 4.527 18.951 7.475 28 12l13.5 7 1-21c-2.538 0-5.268-3.884-7.5-5-8.491-4.246-34.042-20.48-43-16-2.85 1.425-13.5 1.604-13.5 7 0 2.281 16 12.415 16 18h1Z"/><path fill="#1F9C58" id="MOp2/3" d="m148 69-1 1 1-1Z"/><path fill="#40A565" id="ACAd2/3" d="M217 97h5c0-3.763 3.437-28-3-28-2.784 0-4.47 4-6 4 0 1.876 3.06 7.62 4 9.5V97ZM234 97h6V80.5l3-7.5c0-1.81-3.98-4-6-4 0 1.654-3.155 6.81-4 8.5l1 19.5Z"/><path fill="#1F9C58" id="MOp2/3" d="m355 170 7 2c1.579 0 1-2.855 1-4l3-11c0-1.906 1.099-6.698 2-8.5.233-.466-1-21.339-1-23.5 0-5.575-5.678-8.855-8-13.5-7.766-15.532-22.61-27.055-37.5-34.5L309 69h-1v18c6.637 0 16.457 12.978 22.5 16 4.176 2.088 8.472 7.443 10.5 11.5 3.507 7.014 8.542 13.084 12 20 3.808 7.617 2 25.948 2 35.5ZM101 170l-6 2c-1.951 0-.477-2.454-1-3.5-.624-1.247-3.8-11.5-4-11.5 0-10.157-1-21.226-1-31v-2c0-4.84 6.901-9.303 9-13.5 6.353-12.706 21.377-25.438 33.5-31.5 4.691-2.345 10.067-9 15.5-9 0 6.034 1 10.074 1 17-6 0-12.24 9.37-17.5 12-5.123 2.561-11.014 8.528-13.5 13.5-2.811 5.621-8.835 11.669-12 18-5.385 10.77-4 26.587-4 39.5Z"/><path fill="#3EA566" id="ACAd5" d="M217 97c-5.582 0-10.839 5-16 5-1.766 0-.959-11-5-11 0-5.57 16-14.623 16-18h1c0 1.876 3.06 7.62 4 9.5V97ZM240 97c5.441 0 11.16 6 16 6 0-4.805 4-10.954 4-12 0-5.585-16-15.719-16-18h-1l-3 7.5V97Z"/><path fill="#1E9C5A" id="MOp5" d="M123 160c-5.591 0-15.348 10-22 10 0-12.913-1.385-28.73 4-39.5 3.165-6.331 9.189-12.379 12-18 2.486-4.972 8.377-10.939 13.5-13.5 5.26-2.63 11.5-12 17.5-12h1v22c-4.349 0-9.858 6.358-13 9.5-13.314 13.314-13 22.44-13 40.5v1ZM334 160c0 1.325 5.361 2.43 6.5 3 4.054 2.027 9.887 7 14.5 7 0-9.552 1.808-27.883-2-35.5-3.458-6.916-8.493-12.986-12-20-2.028-4.057-6.324-9.412-10.5-11.5-6.043-3.022-15.863-16-22.5-16l-1 21v1c4.945 0 7.372 5.936 11.5 8 15.42 7.71 15.5 28.558 15.5 43Z"/><path fill="#1D9C5A" id="MOs6a" d="M159 140c-6.728 0-11.754 9-18 9 0-6.899 3.629-14.757 7-21.5 2.281-4.562 1-13.099 1-18.5v-1l34.5-16c1.565-.782 11.5-5.19 11.5-1 0 4.564-12 18.612-12 28h-1c0-1.028-1.621-1.44-2.5-1-2.58 1.29-12.5 2.562-12.5 7-1.747 0-2 .253-2 2-2.657 0-6 9.714-6 12v1ZM298 140c6.108 0 11.305 9 17 9 0-9.084-7-19.561-7-23.5 0-4.065-1-10.748-1-16.5v-1l-13.5-7c-9.049-4.525-18.947-7.473-28-12-2.116-1.058-2.898 2-4.5 2 0 2.202 13 21.237 13 27 10.902 0 23 9.535 23 21l1 1Z"/><path fill="#3FA664" id="ACAd6a" d="M183 119h1c.672 0 11.167-16 17-16v-1c-1.766 0-.959-11-5-11h-1c0 4.564-12 18.612-12 28ZM273 119h1v-1c0-5.763-13-24.798-13-27h-1c0 1.046-4 7.195-4 12 5.516 0 15.192 16 17 16Z"/><path fill="#2FA750" id="PL1" d="M223 133h11V97h-12c0 11.942 1 24.718 1 36Z"/><path fill="#2EA84F" id="PL5" d="M204 135h1c3.842 0 9.009-2 13-2 0-11.23-1-24.095-1-36-5.582 0-10.839 5-16 5v1c0 11.602 3 21.116 3 32Z"/><path fill="#2FA74F" id="PL2/3" d="M218 133h5c0-11.282-1-24.058-1-36h-5c0 11.905 1 24.77 1 36ZM234 133h4c0-11.62 2-23.704 2-36h-6v36Z"/><path fill="#2EA84F" id="PL5" d="M238 133c4.26 0 9.871 2 14 2 0-10.167 4-21.357 4-32-4.84 0-10.559-6-16-6 0 12.296-2 24.38-2 36Z"/><path fill="#2FA850" id="PL6a" d="M204 135c-4.174 0-8.351 1-11 1 0-2.776-6.081-16-9-16v-1c.672 0 11.167-16 17-16 0 11.602 3 21.116 3 32ZM252 135c3.806 0 7.751 1 11 1l2-3c0-2.553 1.492-10 5-10 0-2.041.959-3 3-3v-1c-1.808 0-11.484-16-17-16 0 10.643-4 21.833-4 32Z"/><path fill="#1F9B5A" id="MOp6a" d="M141 149c-5.911 0-11.949 10-18 10 0-18.06-.314-27.186 13-40.5 3.142-3.142 8.651-9.5 13-9.5 0 5.401 1.281 13.938-1 18.5-3.371 6.743-7 14.601-7 21.5ZM333 160h1c0-14.442-.08-35.29-15.5-43-4.128-2.064-6.555-8-11.5-8 0 5.752 1 12.435 1 16.5 0 3.939 7 14.416 7 23.5 2.132 0 11.927 5.427 14 7.5l4 3.5Z"/><path fill="#187E61" id="SSp-m1" d="m88 116-1 1 1-1ZM85 158l-5 1c0-11.343-2.13-22.242 3-32.5.784-1.568 1.924-9.5 4-9.5 0 2.591 1.161 1.822 2 3.5.46.92-2.578 3.5 0 3.5v2c-5.17 0-4 26.972-4 31v1ZM372 158l5 1c0-11.907.926-23.648-4-33.5-.767-1.535-1.845-8.5-4-8.5 0 3.672-1 4.519-1 8l3 8.5c2.246 4.492 1 18.661 1 24.5Z"/><path fill="#1E9C58" id="MOs6b" d="m171 123-4 2c0-4.438 9.92-5.71 12.5-7 .879-.44 2.5-.028 2.5 1-1.566 0-11 2.498-11 4ZM295 139h2c0-11.465-12.098-21-23-21v2c.95 0 11 .015 11 3 5.303 0 10 10.996 10 16Z"/><path fill="#CACCC7" id="cing" d="m192 136 1 3c-1.658 0-5.236-7.972-6-9.5-2.455-4.909-10.226-4.5-15-4.5l-1-2c0-1.502 9.434-4 11-4l1 1c0 2.409 9 11.083 9 16Z"/><path fill="#3FA466" id="ACAd6b" d="M183 120h1v-1h-2l1 1ZM273 120h1v-1h-1v1Z"/><path fill="#CACCC7" id="cing" d="M265 133v3l4.5-7c4.724-2.362 7.724-4 14.5-4l1-2c0-2.985-10.05-3-11-3h-1l-3 3-5 10Z"/><path fill="#2FA84F" id="PL6b" d="M192 136h1c0-2.776-6.081-16-9-16h-1c0 2.409 9 11.083 9 16ZM273 120c-2.041 0-3 .959-3 3l3-3Z"/><path fill="#C9C9CA" id="scwm" d="M161 147c3.224 0 1.507 7 5 7 0-5.213-1.199-13.103 1-17.5l5-11.5-1-2-4 2c0 1.747-.253 2-2 2l-4 12v8Z"/><path fill="#2FA84F" id="PL6b" d="M270 123c-3.508 0-5 7.447-5 10l5-10Z"/><path fill="#C9C9CA" id="scwm" d="M295 146c0 1.122-2.632 7-4 7 0-7.151-.598-16.695-4-23.5l-3-4.5 1-2c5.303 0 10 10.996 10 16v7Z"/><path fill="#1E9C58" id="MOs6b" d="M167 125c-1.747 0-2 .253-2 2 1.747 0 2-.253 2-2Z"/><path fill="#CAC7CC" id="fa" d="m188 165-1 3c1.904 0 1.561 5.97 3.5 5 2.766-1.383 2.178-12 5.5-12v-6l-1-2c0-5.28-2-8.97-2-14-1.658 0-5.236-7.972-6-9.5-2.455-4.909-10.226-4.5-15-4.5l-5 11.5c-2.199 4.397-1 12.287-1 17.5l3.5 2c3.504 1.752 18.5-1.982 18.5 5 1.535 0 1.535 4 0 4ZM269 165v2l-1 2.5c-4.867 9.734-4.084-9.5-8-9.5v-4c1.108 0 3-13.1 3-15l1-2 1-2v-1l4.5-7c4.724-2.362 7.724-4 14.5-4l3 4.5c3.402 6.805 4 16.349 4 23.5 0 4.657-22 1.213-22 8-2.515 0-2.515 4 0 4Z"/><path fill="#1A7E64" id="SSp-m2/3" d="M366 157c2.124 0 4.436 1 6 1 0-5.839 1.246-20.008-1-24.5l-3-8.5h-1c0 2.161 1.233 23.034 1 23.5-.901 1.802-2 6.594-2 8.5ZM85 157h5c0-10.157-1-21.226-1-31-5.17 0-4 26.972-4 31Z"/><path fill="#1E9C58" id="MOs6b" d="M159 139h2l4-12c-2.657 0-6 9.714-6 12Z"/><path fill="#59B262" id="ILA5" d="M211 165c0 1.714 5.594 1 7 1v-33c-3.991 0-9.158 2-13 2 0 10.839 6 23.114 6 30Z"/><path fill="#59B362" id="ILA2/3" d="M218 166h3c0-2.737 1.789-7.078 3-9.5l-1-23.5h-5v33Z"/><path fill="#59B263" id="ILA1" d="M229 166h7l-3-6.5c-2.36-4.719 1-21.465 1-26.5h-11l1 23.5c-1.211 2.422-3 6.763-3 9.5 2.409 0 5.181-1 7-1v-10c0-2.212 1-2.212 1 0v11Z"/><path fill="#59B362" id="ILA2/3" d="M236 166h3l-2-4.5c-2.505-5.01 1-22.711 1-28.5h-4c0 5.035-3.36 21.781-1 26.5l3 6.5Z"/><path fill="#59B262" id="ILA5" d="M239 166h6l1-1c0-9.909 6-19.534 6-30-4.129 0-9.74-2-14-2 0 5.789-3.505 23.49-1 28.5l2 4.5Z"/><path fill="#2FA84F" id="PL6b" d="M263 136h2v-3l-2 3Z"/><path fill="#58B362" id="ILA6a" d="M197 165h14c0-6.886-6-19.161-6-30h-1c-4.174 0-8.351 1-11 1 0 3.458 2.378 12.255 4 15.5.536 1.073.251 5.5-1 5.5v4c1.579 0 1 2.855 1 4ZM246 165h13l1-5v-4c0-7.249 3-13.714 3-20-3.249 0-7.194-1-11-1 0 10.466-6 20.091-6 30Z"/><path fill="#58B263" id="ILA6b" d="M196 155v2c1.251 0 1.536-4.427 1-5.5-1.622-3.245-4-12.042-4-15.5h-1l1 3c0 5.03 2 8.72 2 14l1 2ZM263 141c0 1.9-1.892 15-3 15 0-7.249 3-13.714 3-20h2v1l-1 2-1 2Z"/><path fill="#CACCC7" id="cing" d="m265 137-1 2 1-2Z"/><path fill="#1F9766" id="AId6b" d="M159 147h2v-8h-2v8Z"/><path fill="#CACCC7" id="cing" d="m264 139-1 2 1-2Z"/><path fill="#1F9766" id="AId6b" d="m295 146 2 1c1.714 0 1-5.594 1-7l-1-1h-2v7Z"/><path fill="#209666" id="AId6a" d="M136 174h1l1-1 1-3c-4.592 0-.66-9.179 0-10.5 2.554-5.108 7.163-2.5 11-2.5l4-4 1-1 1-1 1-1 2-1v-9c-6.728 0-11.754 9-18 9-5.911 0-11.949 10-18 10v1c0 6.3 6.476 14 13 14ZM319 173l1 1c6.894 0 13-7.299 13-14l-4-3.5c-2.073-2.073-11.868-7.5-14-7.5-5.695 0-10.892-9-17-9 0 1.406.714 7-1 7v1l4 4c3.005 0 3.171 5 6 5 4.169 0 8.271-1.957 11 3.5.927 1.855 3.556 9.5-1 9.5l2 3Z"/><path fill="#248A5C" id="ORBl6b" d="m269 161 2 2c0-2.378 5.072-2.286 6.5-3 4.862-2.431 14.447.607 17.5-5.5v-3l2-3.5v-1l-2-1c0 1.122-2.632 7-4 7 0 4.657-22 1.213-22 8ZM188 161l-2 2c-.821 0-5.89-3.195-7.5-4-4.189-2.094-10.656.172-15-2-2.671-1.336-1.617-8-4.5-8v-2h2c3.224 0 1.507 7 5 7l3.5 2c3.504 1.752 18.5-1.982 18.5 5Z"/><path fill="#24895D" id="ORBl6a" d="M300 169c-6.922 0-17.115-4.27-21 3.5-1.058 2.116 2 2.898 2 4.5-2.022 0-10-6.758-10-9v-5c0-2.378 5.072-2.286 6.5-3 4.862-2.431 14.447.607 17.5-5.5v-3l2-3.5 4 4 4 6-5 3.5c-1.585 3.17 0 4.632 0 7.5ZM185 169c0 2.073-6.148 7-8 7 0-11.939-12.395-7-20-7v-6.5l-5-4.5 2-5 1-1 1-1 1-1 2-1c2.883 0 1.829 6.664 4.5 8 4.344 2.172 10.811-.094 15 2 1.61.805 6.679 4 7.5 4v1c-1.643 0-1 3.765-1 5Z"/><path fill="#1F9866" id="AIv6a" d="m157 150-1 1 1-1ZM156 151l-1 1 1-1ZM155 152l-1 1 1-1ZM307 157l-2 1-4-6c3.005 0 3.171 5 6 5ZM150 157l2 1 2-5-4 4Z"/><path fill="#CACCC7" id="cing" d="m195 153 1 2-1-2Z"/><path fill="#99D2BD" id="OLF" d="M228 165c0 1.058 1 3.029 1 1v-11h-1v10Z"/><path fill="#8ADA86" id="CLA" d="m145 171 2 1c4.208 0 8.137-3 10-3v-6.5l-5-4.5-2-1c-3.837 0-8.446-2.608-11 2.5-.66 1.321-4.592 10.5 0 10.5l6 1ZM311 171l-2 1c-3.737 0-8.326-3-9-3 0-2.868-1.585-4.33 0-7.5l5-3.5 2-1c4.169 0 8.271-1.957 11 3.5.927 1.855 3.556 9.5-1 9.5-1.564 0-3.876 1-6 1Z"/><path fill="#009B75" id="GU2/3" d="M95 172c0 2.16-6.07 3-8 3 0-5.806-2-10.668-2-17v-1h5c.2 0 3.376 10.253 4 11.5.523 1.046-.951 3.5 1 3.5ZM362 172c0 2.189 5.066 3 7 3 0-5.29 3-11.376 3-17-1.564 0-3.876-1-6-1l-3 11c0 1.145.579 4-1 4Z"/><path fill="#009C75" id="GU1" d="m87 176-4 1c0-5.892-3-11.697-3-18l5-1c0 6.332 2 11.194 2 17v1ZM369 176l4 1c0-5.501 4-12.152 4-18l-5-1c0 5.624-3 11.71-3 17v1Z"/><path fill="#209665" id="AId5" d="M136 174c0 4.492-22.881 22-29 22l-4-7.5c-2.432-4.863-2-12.68-2-18.5 6.652 0 16.409-10 22-10 0 6.3 6.476 14 13 14Z"/><path fill="#99D2BD" id="OLF" d="m299 247-5 1c0-7.809-13.925-1-16-1 0-1.429 1.288-4 3-4 2.528 0 3.766-10-1-10v-7c5.619 0 12.27-19 4-19 0-7.564 2.317-10.091-5.5-14-2.355-1.178-3.646-3-6.5-3l-1-1c-3.047 0-4.462-1-7-1 0-6.03-5.265-5-9-5l5-8.5c1.411-2.822-1-7.079-1-9.5l1-5c3.916 0 3.133 19.234 8 9.5l1-2.5 2 1c0 2.242 7.978 9 10 9 0 1.492 14.292 12 16 12 0 1.347 13.942 10 16 10l6 4c-6.827 0-6.759 6-8 6 0-6.827-13.313-17.874-18-8.5l-2 14c-1.119 2.239-4.284 10.608-.5 12.5 2.997 1.498 5.699-4 8.5-4 0 2.848-6.475 8.451-8 11.5-3.21 6.421 8 8.815 8 12.5Z"/><path fill="#209665" id="AId5" d="M320 174c0 5.074 24.594 22 29 22l5-9.5c2.087-4.173 1-11.544 1-16.5-4.613 0-10.446-4.973-14.5-7-1.139-.57-6.5-1.675-6.5-3h-1c0 6.701-6.106 14-13 14Z"/><path fill="#22895E" id="ORBvl6b" d="m186 164 2 1c1.535 0 1.535-4 0-4l-2 2v1Z"/><path fill="#99D2BD" id="OLF" fill-rule="evenodd" d="M187 183c0 1.93 1.93 0 0 0m-24 65c0-9.703 16.536 1 18 1l-6-7c-3.461 0-2.621-9 1-9 0-2.409 1-5.181 1-7-3.12 0-10.563-10.374-9-13.5.69-1.38 4-4.489 4-5.5l-1-8.5c1.765-3.53 9.548-8.5 13-8.5l1-1h3l1-1c1.674 0 2.326 1 4 1 0-4.619 3.191-8.155 7.5-6l3.5 4 1-2c-7.797 0-8-13.811-8-20 0-1.145.579-4-1-4-3.322 0-2.734 10.617-5.5 12-1.939.97-1.596-5-3.5-5l-2 1c0 2.073-6.148 7-8 7l-1 1-1 1-1 1-14 10c0 .867-14.79 10-17 10l-5 4c4.111 0 5.752 5 7 5 0-4.628 10.436-13.532 15.5-11 2.095 1.048 8.033 26.434 7.5 27.5-4.928 9.856-20.35-14.5-23-14.5 0 3.92 17.323 18.146 20 23.5 3.627 7.254-8 11.38-8 13.5l6 1Z"/><path fill="#22895E" id="ORBvl6b" d="m271 164-2 1c-2.515 0-2.515-4 0-4l2 2v1Z"/><path fill="#238A5C" id="ORBvl6a" d="m187 168-2 1c0-1.235-.643-5 1-5l2 1-1 3ZM269 167l2 1v-4l-2 1v2Z"/><path fill="#A3DAA3" id="DP" d="M205 185c7.101 0 40.265-3.618 45.5-1l1.5 2 3-3 5-8.5c1.411-2.822-1-7.079-1-9.5h-13l-1 1h-16c0 2.029-1 .058-1-1-1.819 0-4.591 1-7 1h-3c-1.406 0-7 .714-7-1h-14c0 6.189.203 20 8 20Z"/><path fill="#58B362" id="ILA6a" d="m246 165-1 1 1-1Z"/><path fill="#228A5D" id="ORBl5" d="m174 179-14 10h-4.5c-1.854-.927-8.5-14.808-8.5-17 4.208 0 8.137-3 10-3 7.605 0 20-4.939 20 7l-1 1-1 1-1 1ZM281 177c0 1.492 14.292 12 16 12 6.722 0 12-10.597 12-17-3.737 0-8.326-3-9-3-6.922 0-17.115-4.27-21 3.5-1.058 2.116 2 2.898 2 4.5Z"/><path fill="#209765" id="AId2/3" d="M96 200h1c0-1.312 8.235-3 10-3v-1l-4-7.5c-2.432-4.863-2-12.68-2-18.5l-6 2c0 2.16-6.07 3-8 3v1c1.993 0 1.35 5.2 2 6.5 2.133 4.266 7 12.788 7 17.5Z"/><path fill="#1F9866" id="AIv6a" d="M145 171c0 2.273-5.226 2-7 2l1-3 6 1ZM311 171c0 2.488 6.101 2 8 2l-2-3c-1.564 0-3.876 1-6 1Z"/><path fill="#209765" id="AId2/3" d="M349 197c4.383 0 7.206 3 11 3 0-4.825 9-17.497 9-24v-1c-1.934 0-7-.811-7-3l-7-2c0 4.956 1.087 12.327-1 16.5l-5 9.5v1Z"/><path fill="#1F9865" id="AIv5" d="M107 197c5.239 0 10.023 7.739 17.5 4 1.722-.861 18.5-7.379 18.5-2 2.21 0 17-9.133 17-10h-4.5c-1.854-.927-8.5-14.808-8.5-17l-2-1c0 2.273-5.226 2-7 2l-1 1h-1c0 4.492-22.881 22-29 22v1ZM349 197c-3.917 0-9.655 7.923-17.5 4-1.663-.831-18.5-7.617-18.5-2-2.058 0-16-8.653-16-10 6.722 0 12-10.597 12-17l2-1c0 2.488 6.101 2 8 2l1 1c0 5.074 24.594 22 29 22v1Z"/><path fill="#1F9866" id="AIv6a" d="m138 173-1 1 1-1Z"/><path fill="#209764" id="AId1" d="m96 200-3 1c-1.97 0-2.274-3.774-3.5-5L83 177l4-1c1.993 0 1.35 5.2 2 6.5 2.133 4.266 7 12.788 7 17.5Z"/><path fill="#24895D" id="ORBl6a" d="m177 176-1 1 1-1Z"/><path fill="#209764" id="AId1" d="m360 200 4 1c1.325 0 2.43-5.361 3-6.5 2.418-4.836 6-11.868 6-17.5l-4-1c0 6.503-9 19.175-9 24Z"/><path fill="#24895D" id="ORBl6a" d="m176 177-1 1 1-1ZM175 178l-1 1 1-1Z"/><path fill="#54BF94" id="AON" d="M211 207c0 4.191 5.782 24-4 24 0-6.512-5.165-24.83-8-30.5l-6-11.5c0-4.619 3.191-8.155 7.5-6l3.5 4c0 7.319 7 12.801 7 20ZM245 207c0 4.465-4.126 24 4 24 0-4.529 5.881-25.262 8-29.5l7-13.5c0-6.03-5.265-5-9-5 0 1.238-1.923 5-3 5 0 7.008-7 12.492-7 19Z"/><path fill="#CAC7CC" id="fa" d="M187 183c0 1.93 1.93 0 0 0Z"/><path fill="#99D2BD" id="OLF" d="M252 186v2c1.077 0 3-3.762 3-5l-3 3Z"/><path fill="#61D09F" id="TTd" d="M211 207c2.807 0 8.692 7.904 14.5 5 2.183-1.091.908-9 3-9 1.325 0-1.005 6.998 3 9 5.693 2.847 11.623-5 13.5-5 0-6.508 7-11.992 7-19v-2l-1.5-2c-5.235-2.618-38.399 1-45.5 1l-1 2c0 7.319 7 12.801 7 20Z"/><path fill="#80CDF8" id="ACB" d="m175 242 6 7c4.449 0 12.235 4.632 17.5 2l5-4c2.996-1.498 3.5-2.536 3.5-6v-10c0-6.512-5.165-24.83-8-30.5l-6-11.5c-1.674 0-2.326-1-4-1l-1 1h-3l-1 1c-3.452 0-11.235 4.97-13 8.5l1 8.5c11.815 0 8.664 19 5 19 0 1.819-1 4.591-1 7l-1 9ZM274 249h1l1-1 1-1h1c0-1.429 1.288-4 3-4 0-3.51-1-7.022-1-10v-7c-5.375 0-6.367-19 4-19 0-7.564 2.317-10.091-5.5-14-2.355-1.178-3.646-3-6.5-3l-1-1c-3.047 0-4.462-1-7-1l-7 13.5c-2.119 4.238-8 24.971-8 29.5v9c0 13.765 15.855 10 24 10l1-1Z"/><path fill="#97D6F9" id="STR" d="m189 188-1 1 1-1ZM185 189l-1 1 1-1ZM271 189l1 1-1-1Z"/><path fill="#219764" id="AIv2/3" d="M138 203c-9.434 0-18.379 10-28 10 0-.654-13-7.193-13-13 0-1.312 8.235-3 10-3 5.239 0 10.023 7.739 17.5 4 1.722-.861 18.5-7.379 18.5-2l-5 4Z"/><path fill="#A0EE9C" id="EPd" d="M145 208v2c2.65 0 18.072 24.356 23 14.5.533-1.066-5.405-26.452-7.5-27.5-5.064-2.532-15.5 6.372-15.5 11ZM300 222l-1 1c-2.801 0-5.503 5.498-8.5 4-3.784-1.892-.619-10.261.5-12.5l2-14c4.687-9.374 18 1.673 18 8.5v2l-1 1-1 1-2 2v1l-1 1-1 1-1 1h-1l-1 1-1 1-1 1Z"/><path fill="#219764" id="AIv2/3" d="M319 203c7.581 0 19.007 10 27 10 0-1.845 3.381-1.441 4.5-2 2.362-1.181 9.5-8.222 9.5-11-3.794 0-6.617-3-11-3-3.917 0-9.655 7.923-17.5 4-1.663-.831-18.5-7.617-18.5-2l6 4Z"/><path fill="#209864" id="AIv1" d="m110 213-7 2c-3.793 0-10-11.121-10-14l3-1h1c0 5.807 13 12.346 13 13ZM346 213l8 2c1.863 0 10-11.4 10-14l-4-1c0 2.778-7.138 9.819-9.5 11-1.119.559-4.5.155-4.5 2Z"/><path fill="#6ACAB9" id="PIR" d="M145 251h3l9-4c0-2.12 11.627-6.246 8-13.5-2.677-5.354-20-19.58-20-23.5v-2c-1.248 0-2.889-5-7-5-9.434 0-18.379 10-28 10l-7 2c0 7.112 10.353 24 18 24 0-1.9 4.565-.468 5.5 0 3.834 1.917 15.382 12 18.5 12Z"/><path fill="#99D2BD" id="OLF" d="m207 234 2.5 1c2.823-1.411 2.321-7.143 3.5-9.5 2.424-4.849 4.961-5.231 9.5-7.5 1.272-.636 4.379-3.81 6-3 3.895 1.948 12.22 3.94 14.5 8.5 2.248 4.496.66 11.5 6 11.5v-4c-8.126 0-4-19.535-4-24-1.877 0-7.807 7.847-13.5 5-4.005-2.002-1.675-9-3-9-2.092 0-.817 7.909-3 9-5.808 2.904-11.693-5-14.5-5 0 4.191 5.782 24-4 24v3Z"/><path fill="#6ACAB9" id="PIR" d="m312 251-1 1-3-1c-2.759 0-5.795-4-9-4 0-3.685-11.21-6.079-8-12.5 1.525-3.049 8-8.652 8-11.5l1-1 1-1 1-1 1-1h1l1-1 1-1 1-1v-1c1.747 0 2-.253 2-2l1-1 1-1v-2c1.241 0 1.173-6 8-6 7.581 0 19.007 10 27 10l8 2c0 6.82-11.466 24-19 24 0-1.9-4.565-.468-5.5 0L312 251Z"/><path fill="#CBCBC7" id="aco" d="M172 207c11.815 0 8.664 19 5 19-3.12 0-10.563-10.374-9-13.5.69-1.38 4-4.489 4-5.5ZM284 207c8.27 0 1.619 19-4 19-5.375 0-6.367-19 4-19Z"/><path fill="#99D2BD" id="OLF" d="m311 211-1 1 1-1ZM310 212l-1 1 1-1ZM309 213l-2 2c1.747 0 2-.253 2-2Z"/><path fill="#97D6F9" id="STR" d="M221 253c0-3.378 1.527-8.555 3-11.5l1-7c.795-1.589 1.28-9.89 2.5-10.5 1.902-.951 2.5 3.784 2.5 5 0 6.052 2.406 14.311 5 19.5.662 1.324-1.207 6.5 1 6.5 0-2.518 2-4.286 2-6 0-2.848 3.588-14.456 8.5-12l2.5 3v-5c-5.34 0-3.752-7.004-6-11.5-2.28-4.56-10.605-6.552-14.5-8.5-1.621-.81-4.728 2.364-6 3-4.539 2.269-7.076 2.651-9.5 7.5-1.179 2.357-.677 8.089-3.5 9.5l-2.5-1v7l2.5-4c2.774-1.387 8.535 6.571 9.5 8.5l-1 3.5 3 4Z"/><path fill="#99D2BD" id="OLF" d="m307 216-1 1 1-1ZM305 218l-1 1 1-1ZM303 219l-1 1 1-1ZM302 220l-1 1 1-1ZM301 221l-1 1 1-1ZM300 222l-1 1 1-1Z"/><path fill="#54BF94" id="AON" d="M176 233c-3.621 0-4.461 9-1 9l1-9ZM280 233c4.766 0 3.528 10 1 10 0-3.51-1-7.022-1-10Z"/><path fill="#A2B1D7" id="SI" d="M163 248c0 2.4 9.603 6.051 11.5 7 5.222 2.611 18.015 8.492 25 5 6.552-3.276 10.523-11 18.5-11l1-3.5c-.965-1.929-6.726-9.887-9.5-8.5l-2.5 4c0 3.464-.504 4.502-3.5 6l-5 4c-5.265 2.632-13.051-2-17.5-2-1.464 0-18-10.703-18-1ZM274 249h1l1-1 1-1h1c2.075 0 16-6.809 16 1l-10.5 7c-5.222 2.611-11.663 2.831-16 5-11.888 5.944-19.561-11-29.5-11 0-2.848 3.588-14.456 8.5-12l2.5 3c0 13.765 15.855 10 24 10l1-1Z"/><path fill="#CAC8C7" id="lot" d="M145 251c0 2.124-1 4.436-1 6-3.189 0-23-14.946-23-18 0-1.9 4.565-.468 5.5 0 3.834 1.917 15.382 12 18.5 12ZM311 252l1 5c2.778 0 23-13.935 23-18 0-1.9-4.565-.468-5.5 0L312 251l-1 1Z"/><path fill="#7FCCF7" id="OT" d="m217 266-1 1c0 4.855-8.46 6.48-11.5 8-11.439 5.72-31.945 1.528-43-4-2.44-1.22-12.5-6.132-12.5-10l-3-4c0-2.483 2-4.026 2-6l9-4 6 1c0 2.4 9.603 6.051 11.5 7 5.222 2.611 18.015 8.492 25 5 6.552-3.276 10.523-11 18.5-11l3 4v1l-1 2v1l-1 2v2l-1 1v1l-1 1v2Z"/><path fill="#99D2BD" id="OLF" d="m277 247-1 1 1-1Z"/><path fill="#7FCCF7" id="OT" d="m239 265 1 1c0 4.751 8.368 7.434 11.5 9 10.71 5.355 34.539 1.23 45-4l11.5-10 1-2 1-2c0-2.518-2-4.286-2-6-2.759 0-5.795-4-9-4l-5 1-10.5 7c-5.222 2.611-11.663 2.831-16 5-11.888 5.944-19.561-11-29.5-11 0 1.714-2 3.482-2 6v1l1 2v2l1 1v1l1 1v2Z"/><path fill="#99D2BD" id="OLF" d="m276 248-1 1 1-1ZM274 249l-1 1 1-1ZM146 257v1l-2-1c0-1.564 1-3.876 1-6h3c0 1.974-2 3.517-2 6ZM312 257l-1 1-1-1c0-2.518-2-4.286-2-6l3 1 1 5ZM312 251l-1 1 1-1Z"/><path fill="#97D6F9" id="STR" d="m221 254-1 2 1-2ZM236 256l1 2-1-2ZM146 258l3 3-3-4v1ZM220 257l-1 2 1-2ZM311 258l-2 1 1-2 1 1ZM309 259l-1 2 1-2ZM237 260l1 1-1-1ZM219 261l-1 1 1-1ZM238 262l1 1-1-1ZM218 263l-1 1 1-1ZM239 265l1 1-1-1ZM217 266l-1 1 1-1Z"/></svg>