<svg xmlns="http://www.w3.org/2000/svg" viewBox="0 0 456 320"><path fill="#1E9C59" id="MOs1" d="m124 89 1 5 21.5-15c11.054-5.527 31.733-14 44.5-14 5.637 0 25 4.505 25 11h1l3-3c0-6.728-11.56-11.53-16.5-14h-5c-11.452-5.726-45.745 10.873-56 16-2.646 1.323-18.5 10.773-18.5 14ZM333 90c-1.643 0-1 3.766-1 5l-15.5-12-15-8-24-8c-6.333-3.166-20.667-3.166-27 0L240 76l-3-3c0-7.376 11.614-11.557 16.5-14h5c4.61-2.305 14.585-.207 19 2 3.075 1.538 7.871.436 11 2 9.619 4.81 19.294 9.147 29 14 2.288 1.144 15.5 10.139 15.5 13Z"/><path fill="#1E9D58" id="MOs2/3" d="M125 95c0 7.36 2 12.206 2 20 3.103 0 4.35-6.925 6.5-8 6.268-3.134 15.148-13.574 24-18 6.436-3.218 33.845-17.578 41-14l7 2c2.426 1.213 3.031 4 5.5 4l5-5c0-6.495-19.363-11-25-11-12.767 0-33.446 8.473-44.5 14L125 94v1ZM332 96c-1.665 0-1 4.222-1 5.5 0 4.23-1 9.164-1 14.5l-5.5-7c-7.473-3.736-13.866-13.933-22-18l-24-12-9-2c-2.223-1.112-8.08-3.46-11-2l-9 3-3.5 3c-2.33 0-3.227-4-6-4v-1l10.5-9c6.333-3.166 20.667-3.166 27 0l24 8 15 8L332 95v1Z"/><path fill="#3EA665" id="ACAd1" d="M222 93h13c0-3.384 1.801-16 5-16v-1l-3-3c-2.553 0-6.029 8.558-7 10.5l-1.5 3.5c-3.468 0-4.396-14-8.5-14l-3 3c0 5.7 5 10.526 5 17Z"/><path fill="#1F9D58" id="MOs5" d="m142 142-13 8c0-.633-2.495-10.49-3-11.5-.776-1.551 1-16.55 1-21.5v-2c3.103 0 4.35-6.925 6.5-8 6.268-3.134 15.148-13.574 24-18 6.436-3.218 33.845-17.578 41-14l7 2c2.426 1.213 3.031 4 5.5 4v1c-4.201 0-15.231 19-17 19-12.628 0-21.207 4.353-32.5 10l-7 6-8.5 6.5c-2.671 5.342-4 12.113-4 18.5ZM314 141c1.976 0 9.549 9 14 9l2-6.5c.755-1.51-1-9.106-1-12l2-6-2-2c0-.739.028-6.5 1-6.5v-1l-5.5-7c-7.473-3.736-13.866-13.933-22-18l-24-12-9-2c-2.223-1.112-8.08-3.46-11-2l-9 3-3.5 3v1c1.186 0 16 17.78 16 19l6.5-1c3.615 1.807 8.44 1.22 12 3 6.835 3.417 26.802 14.104 30.5 21.5 2.289 4.577 3 11.022 3 16.5Z"/><path fill="#40A565" id="ACAd2/3" d="M222 93c-2.483 0-4.026 2-6 2 0-4.446-5-9.48-5-13v-1l5-5h1c0 5.7 5 10.526 5 17ZM235 93l6 2c0-2.87 1.02-13 5-13v-1c-2.33 0-3.227-4-6-4-3.199 0-5 12.616-5 16Z"/><path fill="#3EA566" id="ACAd5" d="M197 104h1c0-1.569 15.416-9 18-9 0-4.446-5-9.48-5-13-4.201 0-15.231 19-17 19v1l3 2ZM262 102l-3 2c-4.395 0-12.088-9-18-9 0-2.87 1.02-13 5-13 1.186 0 16 17.78 16 19v1Z"/><path fill="#1E9D5A" id="MOp1" d="m107 163-4 2c-2.492 0-5-18.24-5-22 0-16.154 3.947-22.395 11-36.5l5-6c1.138-2.276 6.715-11.5 10-11.5l1 5v1c-1.949 0-8.053 9.605-9 11.5l-7 9c-2.267 4.534-3.729 9.457-6 14-4.42 8.842 4 26.33 4 33.5ZM349 163l4 3c2.808 0 3.813-14.125 5-16.5 7.258-14.517-5.406-32.812-11-44l-4-4c-1.168-2.336-6.528-11.5-10-11.5-1.643 0-1 3.766-1 5v1c2.753 0 7.954 9.408 9 11.5 5.343 10.686 19.092 25.816 12 40-1.138 2.275-.579 14.5-4 14.5v1Z"/><path fill="#2FA750" id="PL1" d="M223 131h10c0-12.016 2-25.963 2-38h-13c0 12.509 1 25.041 1 38Z"/><path fill="#2FA74F" id="PL2/3" d="M219 131h4c0-12.959-1-25.491-1-38-2.483 0-4.026 2-6 2 0 12.158 3 23.992 3 36ZM233 131h4c0-11.539 4-24.36 4-36l-6-2c0 12.037-2 25.984-2 38Z"/><path fill="#1F9C58" id="MOp2/3" d="m118 156-11 7c0-7.17-8.42-24.658-4-33.5 2.271-4.543 3.733-9.466 6-14l7-9c.947-1.895 7.051-11.5 9-11.5 0 7.36 2 12.206 2 20v2c-3.745 0-4.649 7.799-6 10.5-4.805 9.611-3 17.783-3 28.5Z"/><path fill="#2EA84F" id="PL5" d="m209 130 10 1c0-12.008-3-23.842-3-36-2.584 0-18 7.431-18 9l3 6.5c1.162 2.323 2 13.429 2 16.5v1l6 2ZM247 130l-10 1c0-11.539 4-24.36 4-36 5.912 0 13.605 9 18 9v1c-2.644 0-6 18.959-6 22v1l-6 2Z"/><path fill="#1F9C58" id="MOp2/3" d="M338 156c3.849 0 6.838 6 11 6 3.421 0 2.862-12.225 4-14.5 7.092-14.184-6.657-29.314-12-40-1.046-2.092-6.247-11.5-9-11.5-1.665 0-1 4.222-1 5.5 0 4.23-1 9.164-1 14.5v1c2.628 0 4.115 7.73 5 9.5 4.805 9.609 3 17.896 3 28.5v1Z"/><path fill="#1D9C5A" id="MOs6a" d="M142 142h1c0-4.968 14.798-10 19-10l5-6c-3.665 0 .774-6.137 2.5-7 5.086-2.543 8.255-5 14.5-5l7-8 3-4v-1c-12.628 0-21.207 4.353-32.5 10l-7 6-8.5 6.5c-2.671 5.342-4 12.113-4 18.5ZM295 133c0-1.22 3.492-1.504 4.5-1 3.406 1.703 10.905 9 14.5 9 0-5.478-.711-11.923-3-16.5-3.698-7.396-23.665-18.083-30.5-21.5-3.56-1.78-8.385-1.193-12-3l-6.5 1v1c1.712 0 3 2.571 3 4 2.044 0 7 5.343 7 8 4.627 0 8.683 1.092 12.5 3 1.645.822 9.689 9 4.5 9l6 7Z"/><path fill="#3FA664" id="ACAd6a" d="M197 104c0 1.353-4.643 2-6 2l3-4 3 2ZM259 105l6 1c0-1.429-1.288-4-3-4l-3 2v1Z"/><path fill="#2FA850" id="PL6a" d="M188 118c5.403 0 9.334 9 15 9 0-3.071-.838-14.177-2-16.5l-3-6.5h-1c0 1.353-4.643 2-6 2l-7 8c1.621 0 4 2.379 4 4ZM268 118c-5.219 0-9.104 9-15 9 0-3.041 3.356-22 6-22l6 1c2.044 0 7 5.343 7 8l-3 3-1 1Z"/><path fill="#268E44" id="FRP6a" d="M181 119h6c2.681 0 1 1.681 1-1 0-1.621-2.379-4-4-4-6.245 0-9.414 2.457-14.5 5-1.726.863-6.165 7-2.5 7l14-7ZM275 119l14 7c5.189 0-2.855-8.178-4.5-9-3.817-1.908-7.873-3-12.5-3l-3 3-1 1 1 2c0-1.684 4.679-1 6-1Z"/><path fill="#1E9C5A" id="MOp5" d="M118 156h1l10-6c0-.633-2.495-10.49-3-11.5-.776-1.551 1-16.55 1-21.5-3.745 0-4.649 7.799-6 10.5-4.805 9.611-3 17.783-3 28.5Z"/><path fill="#22885E" id="ORBm6a" d="m269 117-1 1 1-1Z"/><path fill="#1E9C5A" id="MOp5" d="M328 150c0 1.535 8.221 5 10 5 0-10.604 1.805-18.891-3-28.5-.885-1.77-2.372-9.5-5-9.5-.972 0-1 5.761-1 6.5l2 2-2 6c0 2.894 1.755 10.49 1 12l-2 6.5Z"/><path fill="#22885E" id="ORBm6a" d="M203 128c0 4.94 4.088 13-4 13l-12-22c2.681 0 1 1.681 1-1 5.403 0 9.334 9 15 9v1ZM257 141h1c0-6.507 11-15.881 11-21l-1-2c-5.219 0-9.104 9-15 9v1c0 5.288-2.246 13 4 13Z"/><path fill="#24895D" id="ORBl6a" d="M179 137c-10.962 0-18.622 17-27 17 0-7.604 10-14.678 10-22l5-6 14-7c0 6.311-2 11.285-2 18Z"/><path fill="#238A5C" id="ORBvl6a" d="M179 137c7.455 0 12.379 4 20 4l-12-22h-6c0 6.311-2 11.285-2 18ZM277 137c-7.146 0-11.854 4-19 4 0-6.507 11-15.881 11-21 0-1.684 4.679-1 6-1 0 5.666 2 12.62 2 18Z"/><path fill="#24895D" id="ORBl6a" d="M278 137c10.743 0 16.712 17 27 17 0-4.07-10-16.358-10-21l-6-7-14-7c0 5.666 2 12.62 2 18h1Z"/><path fill="#23885E" id="ORBm5" d="M220 144c0 6.774 1.417 26-8 26 0-7.005-13-24.906-13-29 8.088 0 4-8.06 4-13l6 2c0 3.255 7.727 13 11 13v1ZM237 144c0 7.468-2.957 26 8 26 0-9.311 12-21.903 12-29-6.246 0-4-7.712-4-13l-6 2c0 3.076-6.654 13-10 13v1Z"/><path fill="#59B262" id="ILA5" d="m219 131 1 12c-3.273 0-11-9.745-11-13l10 1ZM237 131v12c3.346 0 10-9.924 10-13l-10 1Z"/><path fill="#59B362" id="ILA2/3" d="m220 144 4 2-1-15h-4l1 12v1Z"/><path fill="#59B263" id="ILA1" d="M224 147h8v-1c0-4.27 1-10.067 1-15h-10l1 15v1Z"/><path fill="#59B362" id="ILA2/3" d="M237 144c-2.523 0-1.959 2-5 2 0-4.27 1-10.067 1-15h4v13Z"/><path fill="#209666" id="AId6a" d="M151 154h1c0-7.604 10-14.678 10-22-4.202 0-19 5.032-19 10 0 6.476.714 12 8 12ZM314 141c0 6.525-1.662 13-9 13 0-4.07-10-16.358-10-21 0-1.22 3.492-1.504 4.5-1 3.406 1.703 10.905 9 14.5 9Z"/><path fill="#228A5D" id="ORBl5" d="M144 180h1c0-2.258 7.315-5.908 9.5-7 9.574-4.787 17.776-18 31.5-18 0-4.717-7-10.769-7-18-10.962 0-18.622 17-27 17h-1v1l-1 2-1 2c0 7.096-5 12.803-5 21Z"/><path fill="#23885C" id="ORBvl5" d="M186 155c7.977 0 16.925 15 26 15 0-7.005-13-24.906-13-29-7.621 0-12.545-4-20-4 0 7.231 7 13.283 7 18ZM270 156c-9.5 0-15.62 14-25 14 0-9.311 12-21.903 12-29h1c7.146 0 11.854-4 19-4h1c0 6.563-7 11.703-7 18l-1 1Z"/><path fill="#228A5D" id="ORBl5" d="m305 155 8 18.5-1 6.5-8.5-7c-10.58-5.29-19.882-18-32.5-18 0-6.297 7-11.437 7-18 10.743 0 16.712 17 27 17v1Z"/><path fill="#209665" id="AId5" d="M338 156c0 4.674-8.072 25-13 25-4.992 0-17.618-26-20-26v-1c7.338 0 9-6.475 9-13 1.976 0 9.549 9 14 9 0 1.535 8.221 5 10 5v1ZM131 182h1c0-2.566 11.182-14.863 13-18.5.873-1.746 2.268-4.5 4-4.5l1-2 1-2v-1c-7.286 0-8-5.524-8-12h-1l-13 8-10 6c0 6.484 3.28 13.061 6 18.5l6 7.5Z"/><path fill="#24885D" id="ORBm2/3" d="M215 181h2l6-9.5c3.498-6.996 1-17.219 1-24.5v-1l-4-2c0 6.774 1.417 26-8 26l3 11ZM239 181h2c0-2.906 4-6.868 4-11-10.957 0-8-18.532-8-26-2.523 0-1.959 2-5 2v1c0 6.678-1.838 17.824 1 23.5l6 10.5Z"/><path fill="#23895D" id="ORBm1" d="M229 178c0 4.461 6.767 3 10 3l-6-10.5c-2.838-5.676-1-16.822-1-23.5h-8c0 7.281 2.498 17.504-1 24.5l-6 9.5h9.5l1.5-3v-1c0-1.186 1-1.186 1 0v1Z"/><path fill="#1F9865" id="AIv5" d="m151 155-1 2 1-2Z"/><path fill="#238A5E" id="ORBl2/3" d="M146 185h1c0-2.115 5.996-5.248 7.5-6l11-8 14-6c3.821-1.91 6.923 4 9.5 4 0-5.844-3-8.556-3-14-13.724 0-21.926 13.213-31.5 18-2.185 1.092-9.5 4.742-9.5 7l1 5Z"/><path fill="#248A5D" id="ORBvl2/3" d="M189 172c0 2.593 22.186 9 26 9l-3-11c-9.075 0-18.023-15-26-15 0 5.444 3 8.156 3 14v3Z"/><path fill="#238A5E" id="ORBl2/3" d="M309 185h1l2-5-8.5-7c-10.58-5.29-19.882-18-32.5-18l-1 1c0 4.553-3 8.704-3 14 2.816 0 5.693-6.904 9.5-5 5.785 2.893 12.131 5.066 18 8 2.707 1.354 4.99 4.995 7 6 1.658.829 7.5 3.415 7.5 6Z"/><path fill="#1F9865" id="AIv5" d="M325 181v1l-5.5 2-7.5-4 1-6.5-8-18.5c2.382 0 15.008 26 20 26Z"/><path fill="#209765" id="AId2/3" d="M122 190h1l8-8-6-7.5c-2.72-5.439-6-12.016-6-18.5h-1l-11 7c0 6.442 15 22.783 15 27Z"/><path fill="#248A5D" id="ORBvl2/3" d="M267 172c0 2.806-22.033 9-26 9 0-2.906 4-6.868 4-11 9.38 0 15.5-14 25-14 0 4.553-3 8.704-3 14v2Z"/><path fill="#209765" id="AId2/3" d="M325 182c2.847 0 5.004 7 9 7 2.206 0 15-23.2 15-26v-1c-4.162 0-7.151-6-11-6 0 4.674-8.072 25-13 25v1Z"/><path fill="#1F9865" id="AIv5" d="m150 157-1 2 1-2ZM144 180c0 5.011-11.157 2-12 2 0-2.566 11.182-14.863 13-18.5.873-1.746 2.268-4.5 4-4.5 0 7.096-5 12.803-5 21Z"/><path fill="#209764" id="AId1" d="M122 190c-1.947 0-2.636 3-5 3-2.129 0-14-24.301-14-28l4-2c0 6.442 15 22.783 15 27ZM334 190l5 3c2.167 0 14-23.691 14-27l-4-3c0 2.8-12.794 26-15 26v1Z"/><path fill="#238A5D" id="ORBl1" d="m147 185 2 2c4.655 0 11.409-9.455 16.5-12 2.226-1.113 15.943-7.028 18-6 2.177 1.089 2.822 3 5.5 3v-3c-2.577 0-5.679-5.91-9.5-4l-14 6-11 8c-1.504.752-7.5 3.885-7.5 6ZM309 185l-1 2c-5.168 0-10.373-8.437-15.5-11-2.283-1.142-17.144-7.928-19-7-2.435 1.218-3.466 3-6.5 3v-2c2.816 0 5.693-6.904 9.5-5 5.785 2.893 12.131 5.066 18 8 2.707 1.354 4.99 4.995 7 6 1.658.829 7.5 3.415 7.5 6Z"/><path fill="#99D2BD" id="OLF" d="M317 219c-7.382 0-14.113 10-19 10l8-8.5c0-2.956-5.948-3.895-7-6-7.914-15.828-19.137-23.819-34.5-31.5-6.292-3.146-11.792 6-16.5 6 0-8.959-14.715-6.07-17-1.5-1.834 3.667-2 8.053-2 12.5l-.5 7-2.5-18.5c-3.062-6.125-17-8.562-17 .5-4.668 0-10.746-8.877-16.5-6l-11 4c-9.9 4.95-19.917 18.333-24.5 27.5l-6 5c-2.237 4.475 12 8.986 12 13.5-4.682 0-14.419-14-24-14 0-1.399 8.671-5.842 10-8.5v-6c3.63-7.26 2.714-11.5-6-11.5 0-3.287 6-3.053 6-6 4.655 0 11.409-9.455 16.5-12 2.226-1.113 15.943-7.028 18-6 2.177 1.089 2.822 3 5.5 3 0 2.593 22.186 9 26 9h11.5l1.5-3h1c0 4.461 6.767 3 10 3h2c3.967 0 26-6.194 26-9 3.034 0 4.065-1.782 6.5-3 1.856-.928 16.717 5.858 19 7 5.127 2.563 10.332 11 15.5 11l6 6h-6.5c-4.69 2.345-.302 15.895 1.5 19.5l8 6.5Z"/><path fill="#99D2BD" id="OLF" d="M228 177h1c0-1.186-1-1.186-1 0Z"/><path fill="#219764" id="AIv2/3" d="M146 185c0 2.976-23 16.408-23 5l8-8h1c.843 0 12 3.011 12-2h1l1 5ZM334 189v1c0 2.417-4.092 3.296-5.5 4-7.426 3.713-13.423-9-18.5-9l2-5 7.5 4 5.5-2c2.847 0 5.004 7 9 7Z"/><path fill="#54BF94" id="AON" fill-rule="evenodd" d="M266 195c0 2.779.64 22.57 1.5 23 2.134 1.067 4.762-3.025 5.5-4.5 4.832-9.664 7.378-18.5-7-18.5m-83 0c0 1.676-4.954 3.592-3 7.5l3 11c.738 1.475 3.366 5.567 5.5 4.5 4.096-2.048.5-13.708.5-17l1-5.5-7-.5m8 62c0-8.868 8.659-20.579 15.5-24l11-4c3.489-1.744 7.608 2 11 2 3.237 0 7.251-3.875 11-2 11.253 5.627 25.5 12.718 25.5 28l15.5-8 3.5-3v-1c0-4.56 9-6.919 9-11l1-1 1-1 1-1 1-1 1-1 8-8.5c0-2.956-5.948-3.895-7-6-7.914-15.828-19.137-23.819-34.5-31.5-6.292-3.146-11.792 6-16.5 6 0 4.815-8.44 24.97-12.5 27-3.076 1.538-6.098-2-7-2-3.185 0-3.76 3.62-9 1-5.605-2.802-4.299-11.098-6.5-15.5-1.927-3.853-4-5.712-4-10.5-4.668 0-10.746-8.877-16.5-6l-11 4c-9.9 4.95-19.917 18.333-24.5 27.5l-6 5c-2.237 4.475 12 8.986 12 13.5v1l1 1c1.827 0 8 7.592 8 10v1c3.337 0 15.054 11 19 11Z"/><path fill="#61D09F" id="TTd" d="M209 189c0 4.788 2.073 6.647 4 10.5 2.201 4.402.895 12.698 6.5 15.5 5.24 2.62 5.815-1 9-1 .902 0 3.924 3.538 7 2 4.06-2.03 12.5-22.185 12.5-27 0-8.959-14.715-6.07-17-1.5-1.834 3.667-2 8.053-2 12.5l-.5 7-2.5-18.5c-3.062-6.125-17-8.562-17 .5Z"/><path fill="#209864" id="AIv1" d="m131 200-1 1c-4.27 0-13-2.31-13-8 2.364 0 3.053-3 5-3h1c0 11.408 23-2.024 23-5h1l2 2c0 2.947-6 2.713-6 6-4.477 0-7.709 7-12 7ZM339 193c0 5.204-7.723 8-13 8 0-1.211-10.485-8-12-8l-6-6 1-2h1c5.077 0 11.074 12.713 18.5 9 1.408-.704 5.5-1.583 5.5-4l5 3Z"/><path fill="#6ACAB9" id="PIR" d="M137 219h2c0-1.399 8.671-5.842 10-8.5v-6c3.63-7.26 2.714-11.5-6-11.5-4.477 0-7.709 7-12 7l-1 1c0 2.839-3.69 6.121-2 9.5.857 1.715 7 7.831 7 8.5h2ZM320 219h1c3.499 0 9.832-9.836 8-13.5l-3-4.5c0-1.211-10.485-8-12-8h-6.5c-4.69 2.345-.302 15.895 1.5 19.5l8 6.5h3Z"/><path fill="#CBCBC7" id="aco" d="M183 195c0 1.676-4.954 3.592-3 7.5l3 11c.738 1.475 3.366 5.567 5.5 4.5 4.096-2.048.5-13.708.5-17l1-5.5-7-.5ZM266 195c0 2.779.64 22.57 1.5 23 2.134 1.067 4.762-3.025 5.5-4.5 4.832-9.664 7.378-18.5-7-18.5Z"/><path fill="#99D2BD" id="OLF" d="m137 219-1 1-1-1h2Z"/><path fill="#CAC8C7" id="lot" d="M171 245h1c0-2.408-6.173-10-8-10l-1-1v-1c-4.682 0-14.419-14-24-14h-2l-1 1c0 3.306 2.671 5.586 5.5 7 7.421 3.71 22.086 18 29.5 18ZM284 245h1c4.883 0 35-21.031 35-25v-1h-3c-7.382 0-14.113 10-19 10l-1 1-1 1-1 1-1 1-1 1c0 4.081-9 6.44-9 11Z"/><path fill="#99D2BD" id="OLF" d="m321 219-1 1v-1h1Z"/><path fill="#62CF9E" id="TTv" d="M191 257c2.029 0 1.881 1.191 3.5 2 7.323 3.662 13.821 3.589 21 0l10.5-14.5 2.5-6.5 2.5 8.5 12.5 14.5c9.154 4.577 14.782-4 21.5-4 0-15.282-14.247-22.373-25.5-28-3.749-1.875-7.763 2-11 2-3.392 0-7.511-3.744-11-2l-11 4c-6.841 3.421-15.5 15.132-15.5 24Z"/><path fill="#99D2BD" id="OLF" d="m298 229-1 1 1-1ZM297 230l-1 1 1-1ZM296 231l-1 1 1-1ZM295 232l-1 1 1-1ZM294 233l-1 1 1-1ZM163 234l1 1-1-1ZM172 245v1l-1-1h1ZM285 245l-1 1v-1h1Z"/></svg>