<svg xmlns="http://www.w3.org/2000/svg" viewBox="0 0 456 320"><path fill="#1E9D5A" id="MOp1" d="M199 26c-6.411 0-13.251 2-20 2v-6c6.134 0 13.266-1 20-1v5Z"/><path fill="#1E9C59" id="MOs1" d="M222 39h1l4-2-6-6.5c-3.248-6.496-13.676-9.5-22-9.5v5c7.125 0 23 4.905 23 13ZM230 37l4 2c0-8.001 16.826-13 23-13v-5c-7.23 0-27 6.834-27 16Z"/><path fill="#1E9D5A" id="MOp1" d="M277 28h1c0-1.564-1-3.876-1-6-5.998 0-13.358-1-20-1v5h1c5.941 0 12.757 2 19 2Z"/><path fill="#187F60" id="SSp-ll1" d="M132 39h1c2.075 0 11.185-4.843 13.5-6 8.889-4.445 21.842-5 32.5-5v-6c-9.158 0-25.011 1.255-32.5 5-4.142 2.07-10.761 6-15.5 6l1 6ZM323 39h1c0-.67 1.328-5 2-5 0-2.446-6.894-2.197-8.5-3-12.288-6.144-25.685-9-40.5-9 0 2.124 1 4.436 1 6 12.618 0 24.069 1.785 34.5 7 1.736.868 10.5 1.601 10.5 4Z"/><path fill="#1F9C58" id="MOp2/3" d="M175 41v3c6.056 0 13.895-8 22-8l2-10c-6.411 0-13.251 2-20 2 0 3.854-4 9.084-4 13Z"/><path fill="#1E9D58" id="MOs2/3" d="M216 43h1l5-4c0-8.095-15.875-13-23-13l-2 10c5.288 0 19-.406 19 7ZM234 39c1.287 0 3.637 4 6 4l5.5-6 13.5-1-1-10h-1c-6.174 0-23 4.999-23 13Z"/><path fill="#1F9C58" id="MOp2/3" d="M281 41v3c-5.595 0-14.12-8-22-8l-1-10c5.941 0 12.757 2 19 2 0 4.744 4 8.276 4 13Z"/><path fill="#187F64" id="SSp-ll2/3" d="M138 51h1l8.5-4c3.909-1.954 22.492-6 27.5-6 0-3.916 4-9.146 4-13-10.658 0-23.611.555-32.5 5-2.315 1.157-11.425 6-13.5 6l5 12ZM281 41c7.051 0 21.623 3.062 27.5 6 3.148 1.574 5.683 4 9.5 4 0-4.159 5-7.498 5-12 0-2.399-8.764-3.132-10.5-4-10.431-5.215-21.882-7-34.5-7h-1c0 4.744 4 8.276 4 13Z"/><path fill="#197E64" id="SSp-ul1" d="m113 42 2 5c6.158 0 11.175-8 17-8l-1-6-18 9ZM341 47h1l1-6c-5.799 0-11-7-17-7-.672 0-2 4.33-2 5l17 8Z"/><path fill="#1E9C5A" id="MOp5" d="M192 52c-6.68 0-12.813 9-20 9 0-5.405 3-11.185 3-16v-1c6.056 0 13.895-8 22-8 0 5.05-4 9.512-4 15l-1 1Z"/><path fill="#1F9D58" id="MOs5" d="M205 53h1l10-10c0-7.406-13.712-7-19-7 0 5.05-4 9.512-4 15 2.302 0 12-1.274 12 2ZM264 52c-1.684 0-13-3.435-13 1-3.946 0-6.638-9-11-9v-1l5.5-6 13.5-1c0 5.08 5 10.496 5 16Z"/><path fill="#1E9C5A" id="MOp5" d="m264 52 21 10-3-17-1-1c-5.595 0-14.12-8-22-8 0 5.08 5 10.496 5 16Z"/><path fill="#3EA665" id="ACAd1" d="M223 61h10c0-7.464 1-15.1 1-22l-4-2c-.476 0-3 3.803-3 0l-4 2v22Z"/><path fill="#197F61" id="SSp-ul2/3" d="M138 51c0 1.845-3.381 1.44-4.5 2-4.1 2.05-9.8 7-14.5 7 0-3.664-4-8.003-4-12v-1c6.158 0 11.175-8 17-8h1l5 12Z"/><path fill="#40A565" id="ACAd2/3" d="m223 61-5 2-1-20 5-4h1v22ZM233 61l6 2c0-6.244 1-13.428 1-19v-1c-2.363 0-4.713-4-6-4 0 6.9-1 14.536-1 22Z"/><path fill="#197F61" id="SSp-ul2/3" d="M337 61h1c0-5.016 3-8.6 3-14l-17-8h-1c0 4.502-5 7.841-5 12v1c3.673 0 12.463 3.963 15 6.5l4 2.5Z"/><path fill="#1C7F64" id="SSp-ll4" d="M142 57h1c9.409 0 26.234-12 32-12v-4c-5.008 0-23.591 4.046-27.5 6l-8.5 4 3 6ZM318 52l-4 5c-5.922 0-20.191-5.345-25.5-8l-6.5-4-1-1v-3c7.051 0 21.623 3.062 27.5 6 3.148 1.574 5.683 4 9.5 4v1Z"/><path fill="#1B8062" id="SSp-un1" d="M351 53h1c0-2.079 1-3.187 1-6l-10-6-1 6c0 2.91 9 3.347 9 6ZM115 48c-3.898 0-6.271 4-10 4l-2-5 10-5 2 5v1Z"/><path fill="#3EA566" id="ACAd5" d="M218 63c-4.491 0-7.218 6-11 6 0-5.48-1-11.075-1-16l10-10h1l1 20ZM239 63l10 5c0-2.348-.161-14 2-14v-1c-3.946 0-6.638-9-11-9 0 5.572-1 12.756-1 19Z"/><path fill="#197C63" id="SSp-ll5" d="M171 63c-7.407 0-13.486 6-21 6-1.228 0-7-10.326-7-12 9.409 0 26.234-12 32-12 0 4.815-3 10.595-3 16l-1 1v1ZM285 62c6.941 0 13.596 7 21 7 0-1.43 6.875-11 8-11v-1c-5.922 0-20.191-5.345-25.5-8l-6.5-4 3 17Z"/><path fill="#188060" id="SSp-bfd1" d="m82 69-2 1c0-.471-5.087-2-6-2l6-5.5C82.966 59.534 99.716 47 103 47l2 5v1c-2.946 0-23 14.243-23 16Z"/><path fill="#1C7F63" id="SSp-un2/3" d="m338 61 11 5c3.056 0 2-10.618 2-13 0-2.653-9-3.09-9-6h-1c0 5.4-3 8.984-3 14Z"/><path fill="#188060" id="SSp-bfd1" d="M376 69h7l-6.5-6c-6.176-3.088-16.84-16-23.5-16 0 2.813-1 3.921-1 6 2.228 0 23 15.176 23 16h1Z"/><path fill="#1C7F63" id="SSp-un2/3" d="m119 61-12 5c0-4.59-2-8.016-2-13v-1c3.729 0 6.102-4 10-4 0 3.997 4 8.336 4 12v1Z"/><path fill="#1A7F63" id="SSp-ul4" d="M119 61c0 1.296.825 7 2 7l15.5-8c1.311-.656 5.5-.797 5.5-3l-3-6h-1c0 1.845-3.381 1.44-4.5 2-4.1 2.05-9.8 7-14.5 7v1Z"/><path fill="#1F9D58" id="MOs5" d="m193 51-1 1 1-1Z"/><path fill="#1D9C5A" id="MOs6a" d="m195 72-6 1c0-7.788 3-14.186 3-21l1-1c2.302 0 12-1.274 12 2 0 5.173-10 12.468-10 19ZM262 72l5 1c0-1.685 1.642-9.215 0-12.5l-3-8.5c-1.684 0-13-3.435-13 1v1c0 1.515 5.854 7.209 7 9.5l4 8.5Z"/><path fill="#1F9B5A" id="MOp6a" d="M170 80h1c0-1.58 2.855-1 4-1 0-1.175 5.704-2 7-2 0-1.638 3.576-2 5-2l2-1v-1c0-7.788 3-14.186 3-21-6.68 0-12.813 9-20 9l-1 1v1l-1 17ZM286 80h1c0-6.18-2-10.781-2-18l-21-10 3 8.5c1.642 3.285 0 10.815 0 12.5v1l19 6Z"/><path fill="#1A7F63" id="SSp-ul4" d="M337 61c0 1.593-.337 7-2 7-5.484 0-14.341-10-21-10v-1l4-5c3.673 0 12.463 3.963 15 6.5l4 2.5Z"/><path fill="#187F63" id="SSp-bfd2/3" d="M94 73h1l12-6v-1c0-4.59-2-8.016-2-13-2.946 0-23 14.243-23 16l.5 2c2.497 0 8.92 2 9.5 2h2Z"/><path fill="#3FA664" id="ACAd6a" d="M195 73c1.429 0 4 1.288 4 3l8-7c0-5.48-1-11.075-1-16h-1c0 5.173-10 12.468-10 19v1Z"/><path fill="#187F63" id="SSp-bfd2/3" d="M363 73h1c0-1.754 5.465-.983 7.5-2l3.5-2c0-.824-20.772-16-23-16h-1c0 2.382 1.056 13-2 13l1 1c1.637 0 11 4.656 11 6h2Z"/><path fill="#3FA664" id="ACAd6a" d="m259 75-2 1-8-7v-1c0-2.348-.161-14 2-14 0 1.515 5.854 7.209 7 9.5l4 8.5v1c-2.003 0-3-.293-3 2Z"/><path fill="#187E62" id="SSp-ul5" d="M150 70c-7.521 0-19.161 10-25 10-.885 0-4-9.683-4-11v-1l15.5-8c1.311-.656 5.5-.797 5.5-3h1c0 1.674 5.772 12 7 12v1ZM331 81h1l3-12v-1c-5.484 0-14.341-10-21-10-1.125 0-8 9.57-8 11v1c3.427 0 25 9.122 25 11Z"/><path fill="#197E61" id="SSp-un4" d="m121 69-15 8c0-1.003 1-5.086 1-10v-1l12-5c0 1.296.825 7 2 7v1Z"/><path fill="#1E9C5A" id="MOp5" d="m172 61-1 1 1-1Z"/><path fill="#3FA566" id="ACAv2/3" d="M222 92c0 1.577-1.762 2-3 2 0-9.648-1-20.702-1-31l5-2c0 10.298-1 21.352-1 31Z"/><path fill="#40A664" id="ACAv1" d="M222 92h1c0-1.177 2.572-6 4-6 0-2.581 2-4.47 2-1l5 7c0-9.83-1-20.58-1-31h-10c0 10.298-1 21.352-1 31Z"/><path fill="#3FA566" id="ACAv2/3" d="m234 93 3 1c0-9.974 2-20.386 2-31l-6-2c0 10.42 1 21.17 1 31v1Z"/><path fill="#197E61" id="SSp-un4" fill-rule="evenodd" d="M349 75c0 1.93 1.93 0 0 0m-14-6c5.745 0 9.548 8 15 8 2.896 0-.713-2.925-1-3.5-1.081-2.162 1-4.894 1-6.5l-1-1-11-5h-1c0 1.593-.337 7-2 7v1Z"/><path fill="#1A7F64" id="SSp-ll6a" d="m287 80 12 4 7-14v-1c-7.404 0-14.059-7-21-7 0 7.219 2 11.82 2 18ZM157 84h1l12-4 1-17c-7.407 0-13.486 6-21 6v1c1.942 0 7 12.069 7 14Z"/><path fill="#3EA666" id="ACAv5" d="M211 92c0 1.713 8 3.523 8 2 0-9.648-1-20.702-1-31-4.491 0-7.218 6-11 6 0 7.803 4 15.688 4 23ZM245 93c-1.283 0-8 3.494-8 1 0-9.974 2-20.386 2-31l10 5v1c0 8.308-3 15.16-3 23l-1 1Z"/><path fill="#197C64" id="SSp-bfd4" d="M103 79h1l2-2c0-1.003 1-5.086 1-10l-12 6c0 3.242 8 2.33 8 6ZM351 78h2c2.064 0 8-3.295 8-5 0-1.344-9.363-6-11-6 0 1.606-2.081 4.338-1 6.5.287.575 3.896 3.5 1 3.5l1 1Z"/><path fill="#197E63" id="SSp-n1" d="M53 107h1c0-9.32 11.006-18.512 15-26.5L80 70c0-.471-5.087-2-6-2l-7 7.5c-3.856 7.712-18 18.716-18 27.5l4 4ZM407 103l-4 3-9-16.5c-1.853-3.705-18-18.835-18-20.5h7l7.5 7c4.556 4.556 16.5 21.042 16.5 27Z"/><path fill="#1B7F64" id="SSp-n2/3" d="m54 107 8 5c1.183 0 1.535-3.57 2-4.5l9-16 14-15 5-3.5c-.58 0-7.003-2-9.5-2l-.5-2-2 1-11 10.5c-3.994 7.988-15 17.18-15 26.5Z"/><path fill="#197D62" id="SSp-un5" d="m125 81-14 7-7-9 2-2 15-8c0 1.317 3.115 11 4 11v1Z"/><path fill="#40A564" id="ACAv6a" d="M210 92h1c0-7.312-4-15.197-4-23l-8 7v1c2.045 0 9 10.81 9 13l2 2ZM246 92h1l1-2c0-1.602 5.561-9 7-9l2-4v-1l-8-7c0 8.308-3 15.16-3 23Z"/><path fill="#197D62" id="SSp-un5" d="m332 81 13 7 8-8v-1l-2-1-1-1c-5.452 0-9.255-8-15-8l-3 12Z"/><path fill="#1B7F64" id="SSp-n2/3" d="M403 107c-3.482 0-5.71 5-9 5 0-11.432-16.538-23.576-21-32.5l-9-6.5c0-1.754 5.465-.983 7.5-2l3.5-2h1c0 1.665 16.147 16.795 18 20.5l9 16.5v1Z"/><path fill="#197D61" id="SSp-ul6a" d="M130 97h1c0-2.271 7.839-4 10-4 0-2.109 2.535-2 4-2l4-2c0-2.447 6.063-4 8-4v-1c0-1.931-5.058-14-7-14-7.521 0-19.161 10-25 10v1c0 5.441 5 10.462 5 16ZM299 84c7.442 0 17.828 12 27 12 1.743 0 5-12.889 5-15 0-1.878-21.573-11-25-11l-7 14Z"/><path fill="#1E9C58" id="MOs6b" d="M189 74v1l5-2h1v-1l-6 1v1ZM267 74v1l-5-2v-1l5 1v1Z"/><path fill="#1A8062" id="SSp-n4" d="M68 117h1c0-4.931 16.451-25.976 20.5-28 2.025-1.013 13.5-8 13.5-10 0-3.67-8-2.758-8-6h-1c0 1.186-1 1.186-1 0h-1l-5 3.5-14 15-9 16c-.465.93-.817 4.5-2 4.5v1c2.773 0 3.67 4 6 4Z"/><path fill="#197C64" id="SSp-bfd4" d="M93 73h1c0 1.186-1 1.186-1 0Z"/><path fill="#CACCC7" id="cing" d="m208 90 2 2c-7.965 0-12.896-8.698-19.5-12-5.809-2.904-14.276 4-19.5 4l-2 1h-1c-1.321 0-6 .684-6-1l9-3c1.465 0 4 .109 4-2 1.851 0 7 .867 7-2 1.622 0 5 .46 5-2h2l5-2 5 4c0 2.388 6.248 13 9 13Z"/><path fill="#3FA466" id="ACAd6b" d="M199 76v1l-5-4h1c1.429 0 4 1.288 4 3ZM262 73c-2.003 0-3-.293-3 2l3-2Z"/><path fill="#CACCC7" id="cing" d="m248 90-1 2c7.276 0 12.372-8.936 18.5-12 5.889-2.944 14.959 4 20.5 4l1 1h1c1.406 0 7 .714 7-1l-9-3c-6.642 0-12.753-6-19-6l-5-2-3 2-1 2-3 4c0 2.23-4.252 9-7 9Z"/><path fill="#1A8062" id="SSp-n4" d="m394 113-6 4c0-4.715-6.94-9.38-9-13.5-2.791-5.583-19.462-23.5-26-23.5v-2c2.064 0 8-3.295 8-5h1c0 1.186 1 1.186 1 0h1l9 6.5c4.462 8.924 21 21.068 21 32.5v1Z"/><path fill="#197C64" id="SSp-bfd4" d="M362 73h1c0 1.186-1 1.186-1 0Z"/><path fill="#1D9D5A" id="MOp6b" d="M187 75h2v-1l-2 1ZM286 80v1c-6.642 0-12.753-6-19-6v-1l19 6ZM187 75c-1.424 0-5 .362-5 2 1.622 0 5 .46 5-2Z"/><path fill="#3FA466" id="ACAd6b" d="M257 77h1l1-2-2 1v1Z"/><path fill="#197C64" id="SSp-bfd4" d="M349 75c0 1.93 1.93 0 0 0Z"/><path fill="#1D9D5A" id="MOp6b" d="M182 77c-1.296 0-7 .825-7 2 1.851 0 7 .867 7-2Z"/><path fill="#40A465" id="ACAv6b" d="M199 77c2.045 0 9 10.81 9 13-2.752 0-9-10.612-9-13ZM258 77l-3 4 2-4h1Z"/><path fill="#197E61" id="SSp-un4" d="M353 78v1l-2-1h2Z"/><path fill="#197E62" id="SSp-n5" d="M69 117c0 2.171 7.276 6 9 6 0-8.578 24.389-34 33-34v-1l-7-9h-1c0 2-11.475 8.987-13.5 10-4.049 2.024-20.5 23.069-20.5 28Z"/><path fill="#1D9D5A" id="MOp6b" d="M171 80v1c1.465 0 4 .109 4-2-1.145 0-4-.58-4 1Z"/><path fill="#197F62" id="SSp-ll6b" d="m162 84-4 1v-1l12-4h1v1l-9 3Z"/><path fill="#C9C7C9" id="ccb" d="m83 156-2 10c2.155 0 3.233-6.965 4-8.5 3.722-7.444 8.251-14.503 12-22 6.299-12.597 25.942-26.221 38.5-32.5 5.598-2.799 12.603-1 18.5-1 2.09 0 1.552-5 5-5 0-2.447 6.063-4 8-4h2l2-1h1l1-1c15.06 0 12.099-.2 24.5 6 1.212.606 5.5 2.24 5.5 4h8c0-1.175 5.704-2 7-2 6.662 0 12.897 3.301 19.5 0 1.267-.633 7.5 1.155 7.5 2h8l2.5-2c8.147-8.147 16.961-8 28.5-8l1 1h1l2 1h1c3.942 0 13 3.993 13 9 6.026 0 13.746-1.877 19.5 1 14.383 7.191 32.685 20.869 40.5 36.5l12 24c.621 1.242 1.639 7.5 3 7.5l-4-16-1-1v-1l-1-2v-1l-2-3v-1c-.838 0-7.087-12.674-8-14.5-3.652-7.303-19.21-22.855-26.5-26.5-11.698-5.849-24.298-9.15-36-15-1.555-.778-10.5-3.414-10.5-5h-1l-1-1c-5.541 0-14.611-6.944-20.5-4-6.128 3.064-11.224 12-18.5 12h-1l-1 1c-1.283 0-8 3.494-8 1l-3-1c-1.908 0-11 .465-11-1h-1c0 1.577-1.762 2-3 2 0 1.523-8-.287-8-2h-1c-7.965 0-12.896-8.698-19.5-12-5.809-2.904-14.276 4-19.5 4l-2 1h-1c0 2.98-25.072 10.286-28.5 12-7.709 3.854-15.171 8.085-23 12-3.872 1.936-5.933 8-9.5 8 0 1.747-.253 2-2 2 0 1.665-8.702 13-10 13 0 1.238-.423 3-2 3l-1 2-3 6-1 2-1 2-1 2-1 2v2l-1 1v1l-1 1Z"/><path fill="#197F62" id="SSp-ll6b" d="M299 84v1l-4-1-9-3v-1h1l12 4Z"/><path fill="#197E62" id="SSp-n5" d="M378 123h1c2.99 0 7.16-6 9-6 0-4.715-6.94-9.38-9-13.5-2.791-5.583-19.462-23.5-26-23.5l-8 8v1c8.904 0 33 24.814 33 34Z"/><path fill="#1A7F61" id="SSp-un6a" d="M121 101h2c0-.994 5.757-4 7-4 0-5.538-5-10.559-5-16l-14 7v1c4.262 0 7.167 12 10 12Z"/><path fill="#40A465" id="ACAv6b" d="M255 81c-1.439 0-7 7.398-7 9 2.748 0 7-6.77 7-9Z"/><path fill="#1A7F61" id="SSp-un6a" d="m326 97 9 4 10-12v-1l-13-7h-1c0 2.111-3.257 15-5 15v1Z"/><path fill="#1C8064" id="SSp-ul6b" d="M157 85h1v-1h-1v1Z"/><path fill="#C9C9CA" id="scwm" d="M107 115v2c3.567 0 5.628-6.064 9.5-8 7.829-3.915 15.291-8.146 23-12 3.428-1.714 28.5-9.02 28.5-12-1.321 0-6 .684-6-1l-4 1h-1l-8 4c0 2.109-2.535 2-4 2l-4 2c0 1.891-8.015 4-10 4l-1 1c-2.232 0-4.029 3-7 3l-1 1c0 1.02-5.576 5-7 5 0 1.747-.253 2-2 2 0 1.747-.253 2-2 2l-4 4ZM171 84l-2 1 2-1ZM286 84l1 1-1-1ZM364 135c0 3.572 5 6.988 5 11-.838 0-7.087-12.674-8-14.5-3.652-7.303-19.21-22.855-26.5-26.5-11.698-5.849-24.298-9.15-36-15-1.555-.778-10.5-3.414-10.5-5 1.406 0 7 .714 7-1l4 1 5.5 3c6.67 3.335 13.542 9 21.5 9 0 1.517 7.636 6 9 6 1.634 0 21.965 19.429 24 23.5l5 8.5Z"/><path fill="#1C8064" id="SSp-ul6b" d="M326 96v1c-7.958 0-14.83-5.665-21.5-9l-5.5-3v-1c7.442 0 17.828 12 27 12ZM157 85c-1.937 0-8 1.553-8 4l8-4Z"/><path fill="#7ED04B" id="IG" d="M234 92v1c-1.908 0-11 .465-11-1 0-1.177 2.572-6 4-6l2-1 5 7Z"/><path fill="#187D62" id="SSp-n6a" d="m93 133-2 1-13-10v-1c0-8.578 24.389-34 33-34 4.262 0 7.167 12 10 12v1c-1.668 0-6 3.099-6 5l-2 2c-1.747 0-2 .253-2 2-2.226 0-4 1.774-4 4-1.747 0-2 .253-2 2l-2 2c-1.747 0-2 .253-2 2-1.977 0-4 2.876-4 5-1.948 0-4 5.428-4 7Z"/><path fill="#1C8064" id="SSp-ul6b" d="m149 89-4 2c1.465 0 4 .109 4-2Z"/><path fill="#187D62" id="SSp-n6a" d="M378 123c0 .917-11.327 11-13 11 0-4.868-19.484-24.992-23.5-27-1.953-.977-3.197-5-6.5-5v-1l10-12c8.904 0 33 24.814 33 34Z"/><path fill="#1C8064" id="SSp-ul6b" d="M145 91c-1.465 0-4-.109-4 2l4-2Z"/><path fill="#AAA8A9" id="SEZ" d="m173 91-1 1 1-1Z"/><path fill="#A8AAAA" id="VL" fill-rule="evenodd" d="m188 96-3 4.5c-1.705 3.409-2.251 7.501-4 11l-8 8c-.844 1.688-1.919 6.291.5 7.5 2.244 1.122 7.18-3.09 9-4 9.381-4.691 29.963-27 5.5-27m13 16c0 4.038-16.071 11.286-19.5 13l-9.5 9.5-2 3.5c0-8.021.301-14.899-3-21.5l-9-12.5-1-4.5c.723-1.445 2-.091 2-2.5l8-4h2l2-1h1l1-1c15.06 0 12.099-.2 24.5 6 1.212.606 5.5 2.24 5.5 4v4l-2 7ZM264 96c0 .986-9.986 4.528-7 10.5 2.603 5.206 23.374 27.252 28 18 1.635-3.27-4.078-7.078-6-9-5.478-5.478-6.231-19.5-15-19.5m22 43h1c0-4.489-2.361-13.779 0-18.5l12-17.5c0-7.483-10-7.942-10-10h-1l-2-1h-1l-1-1c-11.539 0-20.353-.147-28.5 8l-2.5 2 1 5 1 6 7.5 7c5.72 2.86 23.5 12.631 23.5 20Z"/><path fill="#AAA8A9" id="SEZ" d="m284 91 1 1-1-1ZM171 92l-2 1 2-1Z"/><path fill="#40A564" id="ACAv6a" d="m246 92-1 1 1-1Z"/><path fill="#AAA8A9" id="SEZ" d="m286 92 2 1-2-1Z"/><path fill="#1C8064" id="SSp-ul6b" d="M141 93c-2.161 0-10 1.729-10 4 1.985 0 10-2.109 10-4Z"/><path fill="#AAA8A9" id="SEZ" d="M167 93c-1.937 0-8 1.553-8 4l8-4ZM302 102c0 1.473-1.952 1-3 1 0-7.483-10-7.942-10-10 3.942 0 13 3.993 13 9Z"/><path fill="#A9AAA8" id="chpl" d="m188 96-3 4.5c-1.705 3.409-2.251 7.501-4 11l-8 8c-.844 1.688-1.919 6.291.5 7.5 2.244 1.122 7.18-3.09 9-4 9.381-4.691 29.963-27 5.5-27ZM264 96c0 .986-9.986 4.528-7 10.5 2.603 5.206 23.374 27.252 28 18 1.635-3.27-4.078-7.078-6-9-5.478-5.478-6.231-19.5-15-19.5Z"/><path fill="#1A7D63" id="SSp-un6b" d="M130 98c-2.232 0-4.029 3-7 3 0-.994 5.757-4 7-4v1Z"/><path fill="#1C8064" id="SSp-ul6b" d="m131 97-1 1v-1h1Z"/><path fill="#AAA8A9" id="SEZ" d="m154 102 4 2-1-4.5c.723-1.445 2-.091 2-2.5-3.448 0-2.91 5-5 5Z"/><path fill="#1A7D63" id="SSp-un6b" d="M335 102v1c-1.364 0-9-4.483-9-6l9 4v1Z"/><path fill="#CBC8CC" id="df" d="M245 101c-1.754 0-16 2.465-16 4-3.345 0-13.697-4-18-4 0-1.175 5.704-2 7-2 6.662 0 12.897 3.301 19.5 0 1.267-.633 7.5 1.155 7.5 2Z"/><path fill="#1A7D63" id="SSp-un6b" d="M121 102h1l1-1h-2v1Z"/><path fill="#98D5F9" id="CP" d="M122 233h2l1-1c4.646 0 6.796-8 11-8 0-1.819 1-4.591 1-7 0-10.736-5.195-24.11 0-34.5v-5c1.358-2.716 10-13.753 10-15.5 0-2.448 2.99-15.745 5.5-17l10.5 2h4c0-.641 2.856-8 3-8v-1c0-8.021.301-14.899-3-21.5l-9-12.5-4-2c-5.897 0-12.902-1.799-18.5 1-12.558 6.279-32.201 19.903-38.5 32.5-3.749 7.497-8.278 14.556-12 22-.767 1.535-1.845 8.5-4 8.5 0 1.048.473 3-1 3 0 1.145.58 4-1 4v2c0 6.713 4 14.029 4 20v1c1.586 0 4.222 8.945 5 10.5 3.061 6.123 12.429 26.5 20 26.5h14ZM349 233l-2 1c-4.414 0-9.177-1-13-1h-1l-3-2-10-7v-8c0-17.953 3.041-29.418-5-45.5l-6-8.5c0-.986-1.087-6-2-6v-2c0-12.03-5.639-7-14-7h-4l-2-6v-2c0-4.489-2.361-13.779 0-18.5l12-17.5c1.048 0 3 .473 3-1 6.026 0 13.746-1.877 19.5 1 14.383 7.191 32.685 20.869 40.5 36.5l12 24c.621 1.242 1.639 7.5 3 7.5v14c-1.175 0-2 5.704-2 7l-2 4v1l-1 2c-1.473 0-1 1.952-1 3l-2 4c-2.109 0-2 2.535-2 4l-2 4c-1.794 0-4 6.51-4 8-1.577 0-2 1.762-2 3-3.741 0-5.783 8-10 8Z"/><path fill="#1B7E64" id="SSp-n6b" d="M122 102c0 1.02-5.576 5-7 5 0-1.901 4.332-5 6-5h1ZM364 135h1v-1c0-4.868-19.484-24.992-23.5-27-1.953-.977-3.197-5-6.5-5v1c1.634 0 21.965 19.429 24 23.5l5 8.5Z"/><path fill="#1A7E62" id="SSs1" d="M38 173v1l-5-1c0-12.513 1.846-36.192 7-46.5 1.107-2.214 9-22.345 9-23.5l4 4c0 6.167-5.275 16.051-8 21.5-4.2 8.399-7 33.664-7 44.5ZM419 173h4c0-18.509-2.261-39.022-10-54.5-1.211-2.423-2.512-15.5-6-15.5l-4 3v1l8 20.5c4.981 9.962 8 33.527 8 45.5Z"/><path fill="#90CBEC" id="LSc" d="M201 112c1.564 0 3.876 1 6 1l4-2 1-2 1-2v-2h-10l-2 7Z"/><path fill="#96A7D2" id="TRS" d="M213 111c0 8.031 30 9.196 30 0l1-3v-2l-3.5-2-11.5 1c0 1.604-3.968 0-5.5 0H213v6Z"/><path fill="#90CBEC" id="LSc" d="m255 112-5 1c-3.079 0-4.308-5-6-5v-2c0-4.985 9.122 0 10 0l1 6Z"/><path fill="#1B8063" id="SSs2/3" d="M38 173c1.819 0 4.59 1 7 1 0-10.074 6.758-38.016 11-46.5l6-14.5v-1l-8-5h-1c0 6.167-5.275 16.051-8 21.5-4.2 8.399-7 33.664-7 44.5Z"/><path fill="#1B7E64" id="SSp-n6b" d="m115 107-2 2c1.747 0 2-.253 2-2Z"/><path fill="#1B8063" id="SSs2/3" d="M411 174h8v-1c0-11.973-3.019-35.538-8-45.5l-8-20.5c-3.482 0-5.71 5-9 5v1c1.604 0 5.008 13.516 6 15.5 5.209 10.418 11 33.023 11 45.5Z"/><path fill="#97D6F9" id="STR" d="m250 113-4 2c0-2.343-.285-4-3-4l1-3c1.692 0 2.921 5 6 5Z"/><path fill="#1B7E64" id="SSp-n6b" d="M113 109c-1.747 0-2 .253-2 2 1.747 0 2-.253 2-2Z"/><path fill="#97D6F9" id="STR" d="M211 111h2v-2h-1l-1 2Z"/><path fill="#1B7E64" id="SSp-n6b" d="M111 111c-2.226 0-4 1.774-4 4l4-4Z"/><path fill="#97D6F9" id="STR" d="M207 113c0 1.577 1.762 2 3 2l1-4-4 2Z"/><path fill="#8FCBEC" id="SF" d="M212 125h32c0-3.526 2-8.954 2-10 0-2.343-.285-4-3-4 0 9.196-30 8.031-30 0h-2l-1 4c5.155 0 2 7.858 2 10Z"/><path fill="#CBC8CB" id="fi" d="M170 139v3c3.017 0 5.18 6.16 9.5 4l15-5 6.5-4 6-3 1-1c0-3.137 4-5.591 4-8 0-2.142 3.155-10-2-10-1.238 0-3-.423-3-2-2.124 0-4.436-1-6-1 0 4.038-16.071 11.286-19.5 13l-9.5 9.5-2 3.5v1ZM286 141v2c-2.72 0-5.79 4.855-9.5 3-3.041-1.52-19.158-9-21.5-9l-5-2-4-8-1-1-1-1c0-3.526 2-8.954 2-10l4-2 5-1 7.5 7c5.72 2.86 23.5 12.631 23.5 20v2Z"/><path fill="#187C63" id="SSs4" d="M45 174h6c0-7.799 6.648-35.797 10-42.5l7-14.5c-2.33 0-3.227-4-6-4l-6 14.5c-4.242 8.484-11 36.426-11 46.5ZM405 174h6c0-12.477-5.791-35.082-11-45.5-.992-1.984-4.396-15.5-6-15.5l-6 4c0 2.447 7.474 15.447 9 18.5 3.274 6.548 8 30.648 8 38.5Z"/><path fill="#1B7E64" id="SSp-n6b" d="M105 117h2v-2c-1.747 0-2 .253-2 2Z"/><path fill="#1C8063" id="SSs5" d="M51 174c3.857 0 8.287 1 13 1 0-13.982 3.167-28.833 9-40.5.93-1.86 2.25-10.5 5-10.5v-1c-1.724 0-9-3.829-9-6h-1l-7 14.5c-3.352 6.703-10 34.701-10 42.5Z"/><path fill="#1B7E64" id="SSp-n6b" d="M103 119h2v-2l-2 2Z"/><path fill="#C9C9CA" id="scwm" d="M107 117c0 1.747-.253 2-2 2v-2h2Z"/><path fill="#1C8063" id="SSs5" d="M405 174c-3.775 0-6.894 1-12 1 0-10.166-3.731-28.963-8-37.5l-6-14.5c2.99 0 7.16-6 9-6 0 2.447 7.474 15.447 9 18.5 3.274 6.548 8 30.648 8 38.5Z"/><path fill="#1B7E64" id="SSp-n6b" d="M103 119c-1.747 0-2 .253-2 2 1.747 0 2-.253 2-2Z"/><path fill="#C9C9CA" id="scwm" d="m97 126-2 6c1.298 0 10-11.335 10-13h-2c0 1.747-.253 2-2 2 0 1.562-2.189 5-4 5Z"/><path fill="#1B7E64" id="SSp-n6b" d="M101 121c-1.977 0-4 2.876-4 5 1.811 0 4-3.438 4-5Z"/><path fill="#197D63" id="SSs6a" d="M379 175h14c0-10.166-3.731-28.963-8-37.5l-6-14.5h-1c0 .917-11.327 11-13 11v1c2.93 0 4.065 7.629 5 9.5 4.3 8.599 9 20.372 9 30.5ZM64 175h13c0-1.357.647-6 2-6 0-7.174 2.932-17.364 6-23.5 1.25-2.498 6-7.882 6-10.5v-1l-13-10c-2.75 0-4.07 8.64-5 10.5-5.833 11.667-9 26.518-9 40.5Z"/><path fill="#C8C9C9" id="vhc" d="m248 134 2 1-4-8-1-1-1-1h-32c0 2.409-4 4.863-4 8h3c0-2.334 4.181-1.341 5.5-2 4.548-2.274 18.452-2.274 23 0 1.319.659 5.5-.334 5.5 2h2l1 1Z"/><path fill="#1B7E64" id="SSp-n6b" d="m95 132-2 1c0-1.572 2.052-7 4-7l-2 6Z"/><path fill="#8FCBEC" id="SF" d="m245 126 1 1-1-1Z"/><path fill="#C9C9CA" id="scwm" d="M93 133v2c1.577 0 2-1.762 2-3l-2 1Z"/><path fill="#1B7E64" id="SSp-n6b" d="M92 135h1v-2l-2 1v1h1Z"/><path fill="#C8C9C9" id="vhc" d="M207 134h1v-1l-1 1Z"/><path fill="#A8A9AA" id="V3" d="M215 157c4.856 0 9.474 2 13.5 2 3.851 0 8.682-2 13.5-2l2-1c3.203 0 11-6.503 11-9l1-1-1-9-5-2-2-1-1-1h-2c-4.819 0-9-1.636-9 4 0 9.911-15 8.836-15-1l-1.5-3H210l-2 1h-1l-6 3v11l5.5 5 5.5 3 3 1Z"/><path fill="#1A8061" id="SSs6b" d="M79 169h1c0-1.048-.473-3 1-3l2-10 1-1v-1l1-1v-2l1-2 1-2 1-2 1-2c0-1.738.686-6 3-6v-2h-1c0 2.618-4.75 8.002-6 10.5-3.068 6.136-6 16.326-6 23.5Z"/><path fill="#C9C9CA" id="scwm" d="m93 135-1 2v-2h1Z"/><path fill="#1A8061" id="SSs6b" d="M378 175h1c0-10.128-4.7-21.901-9-30.5-.935-1.871-2.07-9.5-5-9.5h-1c0 3.572 5 6.988 5 11v1c1.577 0 2 1.762 2 3v1l1 2v1l1 1 4 16v2l1 2Z"/><path fill="#FF5347" id="SFO" d="M221 136c2.613 0 4.36.93 6.5 2 1.733.867 3.744-1.372 5-2l3.5 1c0 9.911-15 8.836-15-1Z"/><path fill="#C9C9CA" id="scwm" d="M92 137c-2.314 0-3 4.262-3 6l3-6Z"/><path fill="#97D6F9" id="STR" d="m170 147-2 1-1-1c0-.641 2.856-8 3-8v8ZM289 147l-1 1-2-1v-6h1l2 6Z"/><path fill="#C9C9CA" id="scwm" d="m89 143-1 2 1-2Z"/><path fill="#FF6F80" id="TH" d="M186 146c2.124 0 4.436 1 6 1 1.473 0 1-1.952 1-3-.969 0-7 1.147-7 2Z"/><path fill="#FF8F9E" id="AD" d="m202 164-1 1-9-18c1.473 0 1-1.952 1-3h5c0 .671 1.328 5 2 5l1 12 1 2v1Z"/><path fill="#FF6F80" id="TH" d="m201 148-1 1c-.672 0-2-4.329-2-5l3 3v1Z"/><path fill="#FF8F9E" id="AD" d="M255 163v2c1.182 0 9-15.28 9-17l-1-4c-1.745 0-6-.698-6 2 0 1.235.643 5-1 5l-1 12Z"/><path fill="#FF6F80" id="TH" d="m273 147-7.5-1-1.5 2-1-4c1.698 0 10 1.069 10 3Z"/><path fill="#C9C9CA" id="scwm" d="m88 145-1 2 1-2Z"/><path fill="#97D6F9" id="STR" d="M147 162h2c1.465 0 1.205-11.91 2-13.5 1.671-3.341 7-.107 7 2.5h4l1-4-10.5-2c-2.51 1.255-5.5 14.552-5.5 17ZM298 151c1.585 0 2.41-5.545 5.5-4l3.5 7c0-12.03-5.639-7-14-7l2 4 2 1 1-1Z"/><path fill="#FF6F80" id="TH" d="m185 146-2 1 2-1Z"/><path fill="#FD909E" id="AV" d="m185 174 2 1 7-3c1.294 0 7-3.609 7-5v-2l-9-18c-1.564 0-3.876-1-6-1h-1l-2 1c-1.949 0-8-.991-8 2 0 2.483 2 4.026 2 6v1l1 1v1l1 1v1l1 1v1l1 1 2 6 1 1v1l1 1v2Z"/><path fill="#FF6F80" id="TH" d="M256 147v4c1.643 0 1-3.765 1-5h-1v1Z"/><path fill="#FD909E" id="AV" d="m271 174-1 1-7-2-8-6v-2c1.182 0 9-15.28 9-17l1.5-2 7.5 1c1.949 0 8-.991 8 2v4l-1 1v1l-1 1v1l-1 1-1 3-1 1-2 5-1 1v2l-1 1v1l-1 1v1Z"/><path fill="#C9C9CA" id="scwm" d="m87 147-1 2 1-2Z"/><path fill="#CCC" d="M165 189v4c2.206 0 2.917 12.792 6.5 11 3.017-1.508.5-11.238.5-13.5 0-7.629-5.761-15.522-9-22v-10l-3-4.5-2-3c0-2.607-5.329-5.841-7-2.5-.795 1.59-.535 13.5-2 13.5l6 6.5c2.906 5.813 9 12.645 9 19.5l1 1Z"/><path fill="#C8CBC7" id="st" d="M169 162v1c2.867 0 1-10.42 1-12l-2-3-1-1h-4l-1 4c0 3.892 5 5.767 5 9l1 1 1 1Z"/><path fill="#CAC7CB" id="fiber tracts" d="m172 150-2 1-2-3 2-1 2 3Z"/><path fill="#CCC9C8" id="sm" d="M255 163c-1.82 0-2.097 4-6 4 0-3.435-5-5.249-5-8v-3c3.203 0 11-6.503 11-9h1v4l-1 12Z"/><path fill="#CAC7CB" id="fiber tracts" d="m285 150 1 1 2-3-2-1-1 3Z"/><path fill="#C8CBC7" id="st" d="m288 161-1 1c-1.773 0-1-9.259-1-11l2-3 1-1h4l2 4c0 3.205-5 5.091-5 8l-1 1-1 1Z"/><path fill="#CCC" d="M291 191v3l-5.5 11-.5-2.5c-1.043-2.086-2.278-9.444-1-12 3.367-6.734 5.57-14.14 9-21 1.532-3.063-1.151-7.699 0-10l4-6.5 1-2c1.585 0 2.41-5.545 5.5-4l3.5 7v8l-5 5.5c-3.234 6.468-10 13.961-10 22.5l-1 1Z"/><path fill="#C9C9CA" id="scwm" d="M369 147c1.577 0 2 1.762 2 3l-2-3Z"/><path fill="#CCC9C8" id="sm" d="M202 164c.813 0 .592 2 6 2 0-2.968 4-4.633 4-7v-3l-5.5-3-5.5-5-1 1 1 12 1 2v1Z"/><path fill="#C9C9CA" id="scwm" d="m86 149-1 2 1-2Z"/><path fill="#FF6F80" id="TH" d="m173 150 4 5c0-1.974-2-3.517-2-6l-2 1ZM283 150l-2 2v-3l2 1Z"/><path fill="#FD8F9F" id="RT" d="M189 186c0 6.97 12.92 5.339 16 11.5l-2.5 2.5c-2.602-1.301-4.501-3.751-7-5-4.374-2.187-9.689 2-13.5 2-7.672 0-11.69-20.88-15-27.5l1-4.5 1-2c2.867 0 1-10.42 1-12l2-1h1l4 5v1l1 1v1l1 1v1l1 1v1l1 1 2 6 1 1v1l1 1v2l2 3v4l1 2v1l1 1v1ZM267 186c0 6.822-11.882 5.265-15 11.5-2.736 5.471 6.843-2.171 7.5-2.5 4.682-2.341 10.609 2 14.5 2h4.5c1.847-.924 10.5-28.545 10.5-32-2.293 0-2-.997-2-3-1.773 0-1-9.259-1-11l-1-1h-2l-2 2v1l-1 1v1l-1 1v1l-1 1-1 3-1 1-2 5-1 1v2l-1 1v1l-1 1v1l-1 2-1 7-1 1v1l-1 1Z"/><path fill="#CAC7CB" id="fiber tracts" d="M160 151v3l-2-3h2Z"/><path fill="#8599CC" id="PAL" d="M161 217c4.634 0 5.835 7 8 7l3-6.5c2.08-4.161 9.359-16.5 14-16.5l1-2c0-2.496-5 .496-5-2-7.672 0-11.69-20.88-15-27.5l1-4.5-1-5c0-3.233-5-5.108-5-9h-2v3l3 4.5v10c3.239 6.478 9 14.371 9 22 0 2.262 2.517 11.992-.5 13.5-3.583 1.792-4.294-11-6.5-11 0 5.194 2.574 13.352 0 18.5l-4 5.5ZM295 217c-5.282 0-5.297 8-8 8 0-4.687-12.413-24-17-24l-1-2c.671 0 5-1.328 5-2h4.5c1.847-.924 10.5-28.545 10.5-32v-5l1-1c0-2.909 5-4.795 5-8l2 1v1l-4 6.5c-1.151 2.301 1.532 6.937 0 10-3.43 6.86-5.633 14.266-9 21-1.278 2.556-.043 9.914 1 12l.5 2.5 5.5-11v15.5l4 7.5Z"/><path fill="#CAC7CB" id="fiber tracts" d="M297 152v1l1-2-1 1Z"/><path fill="#C9C9CA" id="scwm" d="m371 151 1 2-1-2ZM85 153l-1 1 1-1Z"/><path fill="#FF6F80" id="TH" d="m281 153-1 1 1-1Z"/><path fill="#C9C9CA" id="scwm" d="m372 154 1 1-1-1ZM84 155l-1 1 1-1Z"/><path fill="#FF6F80" id="TH" d="m280 155-1 1 1-1ZM177 156l1 1-1-1ZM213 159h1l1-1v-1l-3-1v3h1ZM243 159h1v-3l-2 1v2h1Z"/><path fill="#97D6F9" id="STR" d="M307 162h2c0-.986-1.087-6-2-6v6Z"/><path fill="#FE8F9E" id="PVT" d="M220 198h16l1-1-2-3.5c-2.307-4.615.791-21.582 3-26 .756-1.512 1.716-7.5 4-7.5v-3c-4.818 0-9.649 2-13.5 2-4.026 0-8.644-2-13.5-2v2c0 2.27 2.064 3.627 3 5.5 2.257 4.514 1.725 10.451 4 15 2.608 5.217-2 12.964-2 17.5v1Z"/><path fill="#FF6F80" id="TH" d="m279 157-1 1 1-1ZM178 158l1 1-1-1Z"/><path fill="#FD909D" id="MD" d="M214 159h1v-1l-1 1Z"/><path fill="#FF909F" id="PT" d="M215 199h3l1-1 1-1c0-4.536 4.608-12.283 2-17.5-2.275-4.549-1.743-10.486-4-15-.936-1.873-3-3.23-3-5.5h-1c0 1.186-1 1.186-1 0h-1c0 2.367-4 4.032-4 7l-1 3c0 1.545 2.866 17 0 17v2c0 6.594.487 11 8 11Z"/><path fill="#FD909D" id="MD" d="M213 159h1c0 1.186-1 1.186-1 0ZM243 159l-1 1v-1h1Z"/><path fill="#FF909F" id="PT" d="M239 199h2c7.748 0 8-4.312 8-11v-21c0-3.435-5-5.249-5-8h-1l-1 1c-2.284 0-3.244 5.988-4 7.5-2.209 4.418-5.307 21.385-3 26l2 3.5v1h1l1 1Z"/><path fill="#CAC7CB" id="fiber tracts" d="m290 159-1 1 1-1ZM169 163l-1 2-1-5 1 1 1 1v1Z"/><path fill="#FF6F80" id="TH" d="m179 160 1 1-1-1Z"/><path fill="#B3C0DE" id="BST" d="M288 161h1v-1l-1 1ZM168 161l1 1-1-1Z"/><path fill="#FF6F80" id="TH" d="m201 161 1 2-1-2ZM277 161l-1 1 1-1Z"/><path fill="#B3C0DE" id="BST" d="m288 161-1 1 1-1Z"/><path fill="#CAC7CB" id="fiber tracts" d="M287 162c0 2.003-.293 3 2 3v-4h-1l-1 1Z"/><path fill="#8598CC" id="GPe" d="M138 219c1.477 0 5.699 2 9 2 5.759 0 10.394-4 14-4l4-5.5c2.574-5.148 0-13.306 0-18.5v-4l-1-1c0-6.855-6.094-13.687-9-19.5l-6-6.5h-2c0 1.747-8.642 12.784-10 15.5v5c-5.195 10.39 0 23.764 0 34.5l1 2Z"/><path fill="#FF6F80" id="TH" d="m180 162 1 1-1-1Z"/><path fill="#8598CC" id="GPe" d="M318 219c-1.477 0-5.699 2-9 2-4.736 0-8.158-3-12-3l-1-1h-1l-4-7.5V191l1-1c0-8.539 6.766-16.032 10-22.5l5-5.5h2l6 8.5c8.041 16.082 5 27.547 5 45.5l-1 2-1 1Z"/><path fill="#FF6F80" id="TH" d="M249 169c.666 0 4-2.56 4 0l2-2v-4c-1.82 0-2.097 4-6 4v2ZM203 168l4 1 1-3c-5.408 0-5.187-2-6-2l-1 1v2l2 1Z"/><path fill="#C9C7C9" id="ccb" d="M81 166c-1.473 0-1 1.952-1 3 1.473 0 1-1.952 1-3Z"/><path fill="#FD8D9F" id="AMd" d="M206 188c0 3.893-4.854 1-6 1-1.183 0-1.535-3.57-2-4.5-1.687-3.375-4-8.591-4-12.5 1.294 0 7-3.609 7-5l2 1c0 5.795 4 11.866 4 18v1l-1 1ZM250 188l1.5 2c1.956.978 4.077-1 5.5-1l4-12.5 2-3.5-8-6-2 2c0 6.31-3 11.943-3 19Z"/><path fill="#FF6F80" id="TH" d="m274 167-1 1 1-1Z"/><path fill="#FC8E9F" id="IAD" d="M207 169c0 1.545 2.866 17 0 17 0-6.134-4-12.205-4-18l4 1ZM249 188h1c0-7.057 3-12.69 3-19 0-2.56-3.334 0-4 0v19Z"/><path fill="#1A8061" id="SSs6b" d="M78 175h1v-6c-1.353 0-2 4.643-2 6h1Z"/><path fill="#C9C7C9" id="ccb" d="M80 169c0 1.145.58 4-1 4v-4h1Z"/><path fill="#FF6F80" id="TH" d="m183 169 1 1-1-1ZM273 170l-1 1 1-1ZM184 171l1 1-1-1Z"/><path fill="#FC909D" id="AMv" d="M189 186c1.123 0 11 8.304 11 3-1.183 0-1.535-3.57-2-4.5-1.687-3.375-4-8.591-4-12.5l-7 3v6l1 2v1l1 1v1Z"/><path fill="#FF6F80" id="TH" d="m272 172-1 1 1-1Z"/><path fill="#12AD83" id="VISC1" d="m43 198-5 2-3-6.5c-2.568-5.135-2-14.41-2-20.5l5 1c0 5.472-.289 12.922 2 17.5l3 6.5Z"/><path fill="#12AC83" id="VISC2/3" d="M54 196c-4.135 0-7.306 2-11 2l-3-6.5c-2.289-4.578-2-12.028-2-17.5v-1c1.819 0 4.59 1 7 1 0 4.101 4.29 21 8 21h1v1Z"/><path fill="#FC909D" id="AMv" d="M267 186c-1.07 0-10 8.328-10 3l4-12.5 2-3.5 7 2v1l-1 7-1 1v1l-1 1Z"/><path fill="#C8CBCC" id="ec" d="M378 175c0 1.657.763 10-1 10v-12l1 2Z"/><path fill="#12AD83" id="VISC1" d="M414 198c0 1.014 3.959 2 5 2l2-4.5c2.895-5.791 2-15.588 2-22.5h-4v1c0 8.431-5 16.923-5 24Z"/><path fill="#11AC82" id="VISC4" d="M51 174c0 7.589 2 14.18 2 21-3.71 0-8-16.899-8-21h6Z"/><path fill="#12AD82" id="VISC5" d="M53 195h1l10-1 2-1v-1c0-5.613-2-10.781-2-17-4.713 0-9.143-1-13-1 0 7.589 2 14.18 2 21Z"/><path fill="#FF6F80" id="TH" d="M187 175v2l-2-3 2 1ZM270 175v1l1-2-1 1Z"/><path fill="#12AD82" id="VISC5" d="M402 195h1l2-5.5V174c-3.775 0-6.894 1-12 1 0 3.793-.405 8.31-2 11.5-.574 1.147 1.064 4.5-1 4.5v1l3 2 9 1Z"/><path fill="#11AC82" id="VISC4" d="M411 174c0 4.517-3.303 21-8 21l2-5.5V174h6Z"/><path fill="#12AC83" id="VISC2/3" d="M413 198h1c0-7.077 5-15.569 5-24h-8c0 4.517-3.303 21-8 21h-1v1c3.978 0 7.549 2 11 2Z"/><path fill="#11AC83" id="VISC6a" d="M66 192h1c0-1.018 9.56-5 11-5 0-3.531-1-7.893-1-12H64c0 6.219 2 11.387 2 17Z"/><path fill="#11AD82" id="VISC6b" d="M78 187h1l-1-12h-1c0 4.107 1 8.469 1 12Z"/><path fill="#C8CBCC" id="ec" d="M82 195h1c0-5.971-4-13.287-4-20h-1l1 12 1 4 1 1 1 3Z"/><path fill="#11AD82" id="VISC6b" d="m377 186 2 1v-12h-1c0 1.657.763 10-1 10v1Z"/><path fill="#11AC83" id="VISC6a" d="M379 187c3.614 0 6.899 4 11 4 2.064 0 .426-3.353 1-4.5 1.595-3.19 2-7.707 2-11.5h-14v12Z"/><path fill="#FF6F80" id="TH" d="m187 181 1 2-1-2ZM269 183l-1 1 1-1ZM188 184l1 1-1-1ZM268 185l-1 1 1-1Z"/><path fill="#C8CBCC" id="ec" d="M375 192h1l1-1v-6c-1.175 0-2 5.704-2 7Z"/><path fill="#FF6F80" id="TH" d="M211 209c3.333 0 7.051 4 10 4l-6-6.5c-2.727-5.453 0-3.712 0-7.5-7.513 0-8-4.406-8-11h-1c0 3.893-4.854 1-6 1 0 5.304-9.877-3-11-3 0 6.97 12.92 5.339 16 11.5l-2.5 2.5c-2.602-1.301-4.501-3.751-7-5-4.374-2.187-9.689 2-13.5 2 0 2.496 5-.496 5 2 4.838 0 9-3.782 9 4h2l1-1h1c1.932 0 11 5.719 11 7ZM246 209l-8 2 5-7.5c1.356-2.712-2-3.183-2-4.5 7.748 0 8-4.312 8-11h1l1.5 2c1.956.978 4.077-1 5.5-1 0 5.328 8.93-3 10-3 0 6.822-11.882 5.265-15 11.5-2.736 5.471 6.843-2.171 7.5-2.5 4.682-2.341 10.609 2 14.5 2 0 .672-4.329 2-5 2-4.625 0-8-3.794-8 4h-3l-1-1h-1c-1.611 0-10 5.4-10 7Z"/><path fill="#019C74" id="GU6b" d="M377 191h1l1-4-2-1v5Z"/><path fill="#009B74" id="GU6a" d="m78 192-11 1v-1c0-1.018 9.56-5 11-5l1 4-1 1Z"/><path fill="#019C74" id="GU6b" d="M79 191h1l-1-4h-1l1 4Z"/><path fill="#FC8E9F" id="IAD" d="M206 188h1v-1l-1 1Z"/><path fill="#009B74" id="GU6a" d="M389 193h1v-2c-4.101 0-7.386-4-11-4l-1 4 1 1c2.978 0 6.49 1 10 1Z"/><path fill="#8599CC" id="PAL" d="m164 188 1 1-1-1ZM292 190l-1 1 1-1Z"/><path fill="#8ADA86" id="CLA" d="m85 203-2 3c-8.59 0-5-9.328-5-14l1-1h1l1 1 1 3 1 1v2l1 1v2l1 1v1Z"/><path fill="#219666" id="AIp6b" d="m80 191 1 1-1-1Z"/><path fill="#8ADA86" id="CLA" d="M372 201v1c0 3.106 3.976 6.549 6 2.5 1.703-3.407 1-8.43 1-12.5l-1-1h-1l-1 1-1 1-1 3-1 1v2l-1 2Z"/><path fill="#019C75" id="GU5" d="M66 193h1v-1h-1v1Z"/><path fill="#209766" id="AIp6a" d="M76 213h1c0-3.969 6-4.695 6-7-8.59 0-5-9.328-5-14l-11 1 9 20Z"/><path fill="#C8CBCC" id="ec" d="M373 196h1l1-3v-1l-2 4Z"/><path fill="#209766" id="AIp6a" d="m376 192-1 1v-1h1ZM379 213h1c0-6.601 9-12.927 9-20-3.51 0-7.022-1-10-1 0 4.07.703 9.093-1 12.5-2.024 4.049-6 .606-6-2.5h-1l-1 4c4.028 0 9 2.485 9 7Z"/><path fill="#019C75" id="GU5" d="m390 193 3 1-3-2v1ZM66 193l-2 1 2-1Z"/><path fill="#219864" id="AIp5" d="m76 213-6 3c-4.596 0-15.971-20-16-20v-1l10-1 2-1h1l9 20ZM380 213l7 3c0-1.855 15-13.551 15-20v-1l-9-1-3-1h-1c0 7.073-9 13.399-9 20Z"/><path fill="#209766" id="AIp6a" d="M83 195v1l-1-1h1Z"/><path fill="#209865" id="AIp2/3" d="M70 216c0 1.14-9.467 4-11 4 0-3.964-16-14.459-16-22 3.694 0 6.865-2 11-2 .029 0 11.404 20 16 20Z"/><path fill="#C8CBCC" id="ec" d="m108 237 3 1c9.444 0-3-3.466-3-5-7.571 0-16.939-20.377-20-26.5-.778-1.555-3.414-10.5-5-10.5v2l1 1v2l1 1v1l2 4 10 20c1.189 0 10 8.007 10 10h1Z"/><path fill="#209766" id="AIp6a" d="m374 196-1 1v-1h1Z"/><path fill="#209865" id="AIp2/3" d="M387 216c0 .865 8.68 4 10 4 0-3.183 16-13.184 16-22-3.451 0-7.022-2-11-2 0 6.449-15 18.145-15 20Z"/><path fill="#CCC9C8" id="sm" d="M186 201c0 5.346 10 8.728 10 2 0-7.782-4.162-4-9-4l-1 2Z"/><path fill="#FF6F80" id="TH" d="M219 198h1v-1l-1 1ZM236 198h1v-1l-1 1Z"/><path fill="#CCC9C8" id="sm" d="M270 201c0 6.396-9 8.585-9 2 0-7.794 3.375-4 8-4l1 2Z"/><path fill="#C8CBCC" id="ec" d="M372 199h1v-2l-1 2Z"/><path fill="#219765" id="AIp1" d="m59 220-4 2c-3.16 0-17-19.032-17-22l5-2c0 7.541 16 18.036 16 22Z"/><path fill="#209766" id="AIp6a" d="m83 198 1 1-1-1Z"/><path fill="#FF6F80" id="TH" d="m219 198-1 1 1-1Z"/><path fill="#FD909F" id="RE" d="M229 213h6l1-1h1l1-1 5-7.5c1.356-2.712-2-3.183-2-4.5h-2l-1-1h-19l-1 1h-3c0 3.788-2.727 2.047 0 7.5l6 6.5h6c0-1.919 2-2.488 2 0Z"/><path fill="#FF6F80" id="TH" d="m238 198 1 1-1-1Z"/><path fill="#219765" id="AIp1" d="m397 220 5 2c1.665 0 17-19.732 17-22-1.041 0-5-.986-5-2h-1c0 8.816-16 18.817-16 22Z"/><path fill="#C8CBCC" id="ec" d="M371 202h1v-3c-1.473 0-1 1.952-1 3Z"/><path fill="#209766" id="AIp6a" d="m373 199-1 2v-2h1ZM84 201l1 1-1-1Z"/><path fill="#E64438" id="HY" fill-rule="evenodd" d="M204 234c0 8.621-17.889.722-13 10.5.765 1.53 12.19-4.19 13.5-5.5 1.189-1.189 2.806-5-.5-5m0-25-4 5.5c-4.795 9.59 18.408 6.408 10-2l-2.5-1.5-3.5-2m10 70h2v-9l-3.5 3c-5.503 2.752-13.073-2.037-17-4-5.012-2.506-3.101-20.449 2-23 4.44-2.22 7.033-1 11.5-1 0-2.995-4.094-8.312-2-12.5 5.577-11.153 13.854 1.709 16 6l-1 6.5 2-1v-10c0-3.652-12.154-14.192-10-18.5 1.425-2.851 14-2.988 14 1.5h1v-2l-2-2h-6c-2.949 0-6.667-4-10-4-5.397 0-7.726-5-10-5l-2-1h-3c0 6.728-10 3.346-10-2-4.641 0-11.92 12.339-14 16.5l-3 6.5v3l7.5-10c5.284-2.642 5.286 7 8.5 7 0-3.947-4.428-10.643-2-15.5 2.079-4.159 4.58 1.54 6.5 2.5l7 2c2.794 1.397 5.959 15.52 1 18-8.802 4.401-10.201-6-12.5-6 0 7.398 13.702 33.899 1.5 40-6.64 3.32-14.119-7-19.5-7 0 1.546 7.792 13 9 13 0-10.776 19.45 3 15 3v1h3c4.42 0 10.31 3 15 3 1.235 0 5-.643 5 1ZM251 234v4.5c.705 1.409 12.335 7.083 13.5 6.5.929-.464 2.586-5.207 1-6-2.515-1.257-6.391.305-9-1l-5.5-4m1-25c0 1.617-6.185 2.869-7 4.5-3.61 7.219 16.901 12.801 10-1l-3-3.5m-11 70h1c0-1.614 3.31-1 4.5-1 3.533 0 7.456-1 11.5-1l2-1h1l2-1h2v-1c-4.429 0 15-14.481 15-2 1.769 0 8-10.951 8-13-5.269 0-12.154 9.173-18.5 6-1.565-.783-1.833-4.166-2.5-5.5-6.095-12.19 4-23.331 4-33.5-2.877 0-4.55 8.475-9.5 6l-6.5-6.5 3-5 1.5-7.5 5-1 7-5c3.337 1.668 1.5 11.486 1.5 14 2.319 0 3.583-5.458 6.5-4l7.5 9v-1c0-4.687-12.413-24-17-24 0 6.396-9 8.585-9 2h-4c0 1.186-1 1.186-1 0-2.507 0-3.514 6-10 6l-8 2-1 1h-1l-1 1h-6v1c1.926 0 9.743-1.379 10.5-1 9.064 4.532-7.5 16.847-7.5 21v11h3c0-3.684-1.961-7.578 0-11.5 2.168-4.336 11.436-7.129 14-2 1.888 3.776 0 8.969 0 12.5 16.091 0 21.074 21.213 7.5 28-8.835 4.417-15.049-3-16.5-3v2l2 5.5-2 2.5h1Z"/><path fill="#CAC7CB" id="fiber tracts" d="M198 203h1v-1l-1 1Z"/><path fill="#F0483B" id="ZI" d="m199 203 2 1-1-2h-1v1Z"/><path fill="#CAC7CB" id="fiber tracts" d="M201 204c2.274 0 4.603 5 10 5 0-1.281-9.068-7-11-7l1 2ZM256 203c-2.507 0-3.514 6-10 6 0-1.6 8.389-7 10-7v1Z"/><path fill="#F0483B" id="ZI" d="M256 203c0 1.186 1 1.186 1 0v-1h-1v1Z"/><path fill="#CAC7CB" id="fiber tracts" d="M257 203h1l-1-1v1Z"/><path fill="#C8CBCC" id="ec" d="M369 206h1l1-4-2 4Z"/><path fill="#209766" id="AIp6a" d="m83 206 4 1-2-4-2 3Z"/><path fill="#A0EE9C" id="EPd" d="m98 230-2 2-7-2-1-1-1-1-1-1-1-1-1-1v-1c3.069 0-2.106-2.712-4-6.5-.592-1.185-1.012-4.5-3-4.5 0-3.969 6-4.695 6-7l4 1 10 20 1 3Z"/><path fill="#C8CBCC" id="ec" d="M369 207c0 1.238-.423 3-2 3 0-1.465-.109-4 2-4v1Z"/><path fill="#209766" id="AIp6a" d="m370 206-1 1v-1h1Z"/><path fill="#A0EE9C" id="EPd" d="m366 231-4 2c-1.658 0-3-1.461-3-3v-4l1-1c1.473 0 1-1.952 1-3 2.447 0 4-6.063 4-8 2.109 0 2-2.535 2-4 1.577 0 2-1.762 2-3l1-1c4.028 0 9 2.485 9 7-.914 0-3.246 4-1 4l-1 1c0-2.605-3.889 2-1 2v1h-1c0-2.206-2 .742-2 2-1.186 0-1.186 1 0 1v1h-1c0-1.186-1-1.186-1 0v2h-1l-1 1v1h-1l-1 1-1 1Z"/><path fill="#B3C0DE" id="BST" d="M185 224v1c2.299 0 3.698 10.401 12.5 6 4.959-2.48 1.794-16.603-1-18l-7-2c-1.92-.96-4.421-6.659-6.5-2.5-2.428 4.857 2 11.553 2 15.5ZM271 225v1c-2.877 0-4.55 8.475-9.5 6l-6.5-6.5 3-5 1.5-7.5 5-1 7-5c3.337 1.668 1.5 11.486 1.5 14l-1 2-1 2Z"/><path fill="#C7C8CA" id="fx" d="m204 209-4 5.5c-4.795 9.59 18.408 6.408 10-2l-2.5-1.5-3.5-2ZM252 209c0 1.617-6.185 2.869-7 4.5-3.61 7.219 16.901 12.801 10-1l-3-3.5Z"/><path fill="#C8CBCC" id="ec" d="m367 210-2 4c2.109 0 2-2.535 2-4Z"/><path fill="#FF6F80" id="TH" d="m238 211-1 1 1-1ZM236 212l-1 1 1-1Z"/><path fill="#6ACAB9" id="PIR" d="M117 273c0 5.649-4.555 13.609-7 18.5-.921 1.842-6 4.521-6 5.5-4.014 0-11.29-7.082-13-10.5-7.277-14.553-14.803-28.607-22-43-3.367-6.734-14-14.569-14-21.5l4-2c1.533 0 11-2.86 11-4l6-3h1v2l1 1 2 4 1 2 1 1 1 1 1 1 1 1 1 1c0 1.959 5.32 9 7 9 0 2.051 15.635 22.068 17.5 23l3.5 4 1 1v1c0 1.996 2 4.985 2 8Z"/><path fill="#C9C8CA" id="ee" d="M83 224h1c3.069 0-2.106-2.712-4-6.5-.592-1.185-1.012-4.5-3-4.5v2l1 1 2 4 2 2v1l1 1Z"/><path fill="#FF5D4F" id="PVH" d="M224 234h3c0-2.241-.804-17 1-17 0-4.488-12.575-4.351-14-1.5-2.154 4.308 10 14.848 10 18.5ZM229 234h3c0-4.153 16.564-16.468 7.5-21-.757-.379-8.574 1-10.5 1v20Z"/><path fill="#C9C8CA" id="ee" d="m379 216-1 1c-2.246 0 .086-4 1-4h1l-1 3Z"/><path fill="#6ACAB9" id="PIR" d="m339 273 8 19.5 5 4.5c4.461 0 12.061-7.623 14-11.5 7.479-14.957 15.576-29.153 23-44 2.206-4.412 13-15.383 13-19.5l-5-2c-1.32 0-10-3.135-10-4l-7-3-1 3-1 1-1 1v2l-1 1-1 1-1 1-1 1v1l-1 1-1 1-1 1-1 1c0 1.747-.253 2-2 2 0 1.429-1.288 4-3 4l-1 2c0 1.491-14.056 19.278-15.5 20l-4.5 5-1 2-1 1c0 2.709-2 4.646-2 8Z"/><path fill="#C8CBCC" id="ec" d="M365 214c-1.794 0-4 6.51-4 8 2.447 0 4-6.063 4-8Z"/><path fill="#A0EE9C" id="EPd" d="m77 215 1 1-1-1Z"/><path fill="#97D6F9" id="STR" d="M329 255h2l7-5c-13.51 0-18-14.886-18-26v-8l-1 2-1 1c0 1.697-.725 8-3 8 0 6.728-4 15.419-4 16v1l4.5-2c8.008-4.004 13.5 7.263 13.5 13Z"/><path fill="#A0EE9C" id="EPd" d="m379 216-1 1 1-1Z"/><path fill="#97D6F9" id="STR" d="m145 243 1 2-5.5-3-8.5 1c0-4.804 5-8.642 5-14 0-1.235.643-5-1-5 0-1.819 1-4.591 1-7l1 2c0 1.4 1.431 8 3 8 0 6.814 4 13.092 4 16Z"/><path fill="#A2B1D7" id="SI" d="M156 247h1c3.895 0 6.251-4 9-4v-1l1-1c0-5.307 2-9.324 2-14v-3c-2.165 0-3.366-7-8-7-3.606 0-8.241 4-14 4 0 2.097-6 2.205-6 6 0 6.814 4 13.092 4 16l5.5 3c1.238.619 5.5-1.144 5.5 1Z"/><path fill="#F2483A" id="LHA" d="M167 257v1c5.381 0 12.86 10.32 19.5 7 12.202-6.101-1.5-32.602-1.5-40v-1c-3.214 0-3.216-9.642-8.5-7l-7.5 10c0 4.676-2 8.693-2 14v1l-1 1-1 10v1l1 1 1 2Z"/><path fill="#A8A9AA" id="V3" d="m227 234 .5 38c2.151 1.075 1.5-7.196 1.5-8.5V217h-1c-1.804 0-1 14.759-1 17Z"/><path fill="#F2483A" id="LHA" d="m290 257-2 2c-5.269 0-12.154 9.173-18.5 6-1.565-.783-1.833-4.166-2.5-5.5-6.095-12.19 4-23.331 4-33.5v-1l1-2 1-2c2.319 0 3.583-5.458 6.5-4l7.5 9v2l1 1c0 2.723 1 5.778 1 9l1 2v4l1 1v9l-1 3Z"/><path fill="#A2B1D7" id="SI" d="M309 245c-1.013 0-9 1.208-9 2-4.5 0-9.378-5-10-5v-2l-1-2c0-3.222-1-6.277-1-9l-1-1v-3c2.703 0 2.718-8 8-8h1l1 1c3.842 0 7.264 3 12 3 0 2.526 6 1.3 6 6 0 6.728-4 15.419-4 16l-2 2Z"/><path fill="#8599CC" id="PAL" d="m296 217 1 1-1-1Z"/><path fill="#C9C8CA" id="ee" d="m377 219-1 1c-2.889 0 1-4.605 1-2v1Z"/><path fill="#8599CC" id="PAL" d="m319 218-1 1 1-1ZM147 221c0 2.097-6 2.205-6 6-1.569 0-3-6.6-3-8 1.477 0 5.699 2 9 2ZM309 221c0 2.526 6 1.3 6 6 2.275 0 3-6.303 3-8-1.477 0-5.699 2-9 2Z"/><path fill="#A0EE9C" id="EPd" d="M376 220h1v-1l-1 1ZM81 222h1l-2-2 1 2Z"/><path fill="#C9C8CA" id="ee" d="M373 223h1l1-1v-1c0-2.206-2 .742-2 2Z"/><path fill="#99D2BD" id="OLF" d="m377 220-1 1v-1h1Z"/><path fill="#E64438" id="HY" d="m273 221-1 2 1-2Z"/><path fill="#99D2BD" id="OLF" d="m376 221-1 1v-1h1Z"/><path fill="#8AD987" id="CTXsp" d="M82 222v1l-1-1h1Z"/><path fill="#C8CBCC" id="ec" d="M359 225h1c1.473 0 1-1.952 1-3-1.577 0-2 1.762-2 3Z"/><path fill="#A0EE9C" id="EPd" d="m375 222-1 1 1-1Z"/><path fill="#99D2BD" id="OLF" d="m82 223 1 1-1-1Z"/><path fill="#E64438" id="HY" d="m272 223-1 2 1-2Z"/><path fill="#C9C8CA" id="ee" d="M373 223c-1.186 0-1.186 1 0 1v-1Z"/><path fill="#8AD987" id="CTXsp" d="m374 223-1 1v-1h1ZM84 224v1l-1-1h1Z"/><path fill="#7ECDF8" id="FS" d="M118 250h1c4.153 0 7.708-5 11-5l1-1 1-1c0-4.804 5-8.642 5-14 0-1.235.643-5-1-5-4.204 0-6.354 8-11 8l-1 1h-2c0 2.813 7.206 3.088 5 7.5-1.15 2.3-6.086 3.707-8.5 2.5-.137-.069-6.5-6.474-6.5-3.5 0 1.948 2 4.03 2 6.5 0 1.658 1.461 3 3 3l1 1ZM341 249l-3 1c-13.51 0-18-14.886-18-26l10 7c0 1.577 1.762 2 3 2h1c0 3.885-5 1.026-5 5.5 0 4.148 10 6.201 10 3.5l1-1 1-1v-1c1.145 0 4-.579 4 1-2.461 0-2 3.378-2 5v1l-1 1v1l-1 1Z"/><path fill="#C9C8CA" id="ee" d="M371 225h1c0-1.186-1-1.186-1 0Z"/><path fill="#99D2BD" id="OLF" d="m84 225 1 1-1-1Z"/><path fill="#C8CBCC" id="ec" d="m349 237-3 1c-8.538 0 1-3.422 1-4l2-1c4.217 0 6.259-8 10-8v2c-1.577 0-2 1.762-2 3l-2 2-1 1-2 2-2 1-1 1Z"/><path fill="#8AD987" id="CTXsp" d="m360 225-1 1v-1h1ZM371 226h1v-1h-1v1Z"/><path fill="#99D2BD" id="OLF" d="m373 225-1 1v-1h1Z"/><path fill="#8AD987" id="CTXsp" d="m85 226 1 1-1-1Z"/><path fill="#99D2BD" id="OLF" d="m372 226-1 1v-1h1ZM93 235v1c-1.68 0-7-7.041-7-9l1 1 1 1 1 1 4 5Z"/><path fill="#8AD987" id="CTXsp" d="M104 236c0-2.276 2.078 1 3 1 0-1.993-8.811-10-10-10l1 3c3.515 0 3.661 6 6 6ZM357 230h2v-3c-1.577 0-2 1.762-2 3ZM369 228h1v-1l-1 1Z"/><path fill="#99D2BD" id="OLF" d="m371 227-1 1v-1h1Z"/><path fill="#8AD987" id="CTXsp" d="m87 228 1 1-1-1Z"/><path fill="#8599CC" id="PAL" d="m287 228 1 1-1-1Z"/><path fill="#99D2BD" id="OLF" d="m370 228-1 1v-1h1Z"/><path fill="#FD4C3E" id="MPN" d="M214 247h7v-1l1-1 1-6.5c-2.146-4.291-10.423-17.153-16-6-2.094 4.188 2 9.505 2 12.5l5 2ZM235 246l3.5 2 4.5-1 5-2 1-1c0-3.531 1.888-8.724 0-12.5-2.564-5.129-11.832-2.336-14 2-1.961 3.922 0 7.816 0 11.5v1Z"/><path fill="#8AD987" id="CTXsp" d="m368 229-1 1 1-1Z"/><path fill="#99D2BD" id="OLF" d="M367 230v1c1.747 0 2-.253 2-2h-1l-1 1Z"/><path fill="#8AD987" id="CTXsp" d="m96 232-3 3-4-5 7 2Z"/><path fill="#A0ED9D" id="EPv" d="M109 241c0 .069 6.987 12.474 8 14.5 1.314 2.628-3 5.452-3 7.5l-3.5-4c-1.865-.932-17.5-20.949-17.5-23v-1l3-3 2-2c3.515 0 3.661 6 6 6 0 2.362 2.638 5 5 5ZM341 249c0 3.096-3.453 13 2 13l4.5-5c1.444-.722 15.5-18.509 15.5-20v-2l-1-2c-1.658 0-3-1.461-3-3h-2l-2 2-1 1-1 3c0 2.101-2.831 5-5 5l-4 4-1 1v1l-1 1-1 1Z"/><path fill="#8AD987" id="CTXsp" d="M366 231h1v-1l-1 1Z"/><path fill="#97D6F9" id="STR" d="m330 231 3 2c-1.238 0-3-.423-3-2Z"/><path fill="#8AD987" id="CTXsp" d="M363 235h1l2-4-4 2 1 2Z"/><path fill="#99D2BD" id="OLF" d="M367 231c0 1.429-1.288 4-3 4l2-4h1Z"/><path fill="#97D6F9" id="STR" d="m125 232-1 1 1-1Z"/><path fill="#8AD987" id="CTXsp" d="m355 232-1 1 1-1Z"/><path fill="#97D6F9" id="STR" fill-rule="evenodd" d="M118 236c0 1.384-3.189 1.123-2 3.5 3.386 6.772 13.165-.668 7.5-3.5H118m-7 2c0 1.93.84 8 3 8 0-2.47-2-4.552-2-6.5 0-2.974 6.363 3.431 6.5 3.5 2.414 1.207 7.35-.2 8.5-2.5 2.206-4.412-5-4.687-5-7.5h-14c0 1.534 12.444 5 3 5Z"/><path fill="#97D6F9" id="STR" d="M341 239c1.145 0 4-.579 4 1l1-2c-8.538 0 1-3.422 1-4-4.414 0-9.177-1-13-1 0 3.885-5 1.026-5 5.5 0 4.148 10 6.201 10 3.5h-4c-7.089 0-3.272-8.386 3.5-5l2.5 2ZM349 233l-2 1 2-1Z"/><path fill="#8AD987" id="CTXsp" d="m352 235 1 1 1-3-2 2Z"/><path fill="#FF5346" id="MPO" d="M204 234c0 8.621-17.889.722-13 10.5.765 1.53 12.19-4.19 13.5-5.5 1.189-1.189 2.806-5-.5-5Z"/><path fill="#FF5D50" id="PVa" d="M228 276h1c0-2.885 2-4.697 2-8 0-7.207 1-15.219 1-23v-11h-3v29.5c0 1.304.651 9.575-1.5 8.5l-.5-38h-3v10c0 8.137 1 15.976 1 24l2 8h1Z"/><path fill="#FF5346" id="MPO" d="M251 234v4.5c.705 1.409 12.335 7.083 13.5 6.5.929-.464 2.586-5.207 1-6-2.515-1.257-6.391.305-9-1l-5.5-4Z"/><path fill="#80BEE2" id="IA" d="m108 237 1 4c-2.362 0-5-2.638-5-5 0-2.276 2.078 1 3 1h1ZM349 237c0 1.674-1 2.326-1 4 2.169 0 5-2.899 5-5l-1-1-2 1-1 1Z"/><path fill="#99D2BD" id="OLF" d="m364 235-1 2v-2h1Z"/><path fill="#C9C9C9" id="act" d="M118 236c0 1.384-3.189 1.123-2 3.5 3.386 6.772 13.165-.668 7.5-3.5H118ZM340 241l-1 1h-4c-7.089 0-3.272-8.386 3.5-5l2.5 2v1l-1 1Z"/><path fill="#8AD987" id="CTXsp" d="m350 236-1 1 1-1ZM115 265c2.58 0 3.211 4 6 4 0-4.314-5.663-14 4-14l-6-5h-1l-1-1c-1.539 0-3-1.342-3-3-2.16 0-3-6.07-3-8l-3-1 1 4c0 .069 6.987 12.474 8 14.5 1.314 2.628-3 5.452-3 7.5l1 1v1ZM348 241l-4 4 1-5 1-2 3-1c0 1.674-1 2.326-1 4Z"/><path fill="#E64438" id="HY" d="m289 238 1 2-1-2Z"/><path fill="#97D6F9" id="STR" d="m341 240-1 1 1-1ZM343 245h1l1-5c-2.461 0-2 3.378-2 5Z"/><path fill="#8599CC" id="PAL" d="M166 242h1v-1l-1 1Z"/><path fill="#97D6F9" id="STR" d="m340 241-1 1 1-1Z"/><path fill="#80C0E2" id="AAA" d="m166 270-5 1-8-2-4-2c-2.709 0-4.646-2-8-2 0-1.638-3.576-2-5-2 0-3.3-8-3.704-8-8 0-3.942 2-6.745 2-10l1-1 1-1 8.5-1 5.5 3 6 6 2 5 1 1v1c0 2.604 5.93 6 8 6 0 1.349 3 3.085 3 6Z"/><path fill="#E64438" id="HY" d="m167 242-1 1v-1h1Z"/><path fill="#8599CC" id="PAL" d="m300 247-9 7v-9l-1-1v-2c.622 0 5.5 5 10 5Z"/><path fill="#80C0E2" id="AAA" d="m304 269-9 2c-2.567 0-3.913-2-5-2 0-1.562 2.189-5 4-5l1-1 2-1 1-1 1-1 1-1 1-1 4-8c1.811 0 4-3.438 4-5l2-1 4.5-2c8.008-4.004 13.5 7.263 13.5 13 0 1.957-8.295 8-9 8l-4 2h-1c-2.765 0-5.165 2-7 2l-1 1c-1.048 0-3-.473-3 1Z"/><path fill="#97D6F9" id="STR" d="m132 243-1 1 1-1Z"/><path fill="#8599CC" id="PAL" d="M156 247c-2.708 0-4 1.119-4 4l-6-6-1-2 5.5 3c1.238.619 5.5-1.144 5.5 1ZM157 247c0 1.533 7.055 6 8 6l1-10c-2.749 0-5.105 4-9 4ZM311 244l-2 1 2-2v1Z"/><path fill="#97D6F9" id="STR" d="m131 244-1 1 1-1Z"/><path fill="#FF4B3E" id="AHN" d="m218 254-2 16-3.5 3c-5.503 2.752-13.073-2.037-17-4-5.012-2.506-3.101-20.449 2-23 4.44-2.22 7.033-1 11.5-1l5 2 3 3.5c.523 1.046-.951 3.5 1 3.5Z"/><path fill="#FD5547" id="SBPV" d="M216 270v2l5.5-6 3.5 2c0-8.024-1-15.863-1-24l-2 1-1 1v1l-3 7-2 16ZM240 269v2l-5.5-5c-1.045 0-1.861 2-3.5 2 0-7.207 1-15.219 1-23h3v1c0 .833 3.908 9 4 9l1 14Z"/><path fill="#E64438" id="HY" d="m249 244-1 1 1-1Z"/><path fill="#FF4B3E" id="AHN" d="m239 255 1 14c1.451 0 7.665 7.417 16.5 3 13.574-6.787 8.591-28-7.5-28l-1 1-5 2c0 2.622-4 4.285-4 8Z"/><path fill="#E64438" id="HY" d="m290 244 1 1-1-1Z"/><path fill="#97D6F9" id="STR" d="M125 255h3c0-3.942 2-6.745 2-10-3.292 0-6.847 5-11 5l6 5Z"/><path fill="#E64438" id="HY" d="m222 245-1 1 1-1Z"/><path fill="#8599CC" id="PAL" d="M300 247c1.766 0 5 .607 5 3 1.811 0 4-3.438 4-5-1.013 0-9 1.208-9 2Z"/><path fill="#8AD987" id="CTXsp" d="m344 245-1 1v-1h1Z"/><path fill="#E64438" id="HY" d="M243 247c0 2.622-4 4.285-4 8-.092 0-4-8.167-4-9l3.5 2 4.5-1Z"/><path fill="#97D6F9" id="STR" d="M342 247h1v-1l-1 1Z"/><path fill="#A2B1D8" id="MA" d="M155 257c2.048 0 4.872 4.314 7.5 3l4.5-3-1-2-1-1v-1c-.945 0-8-4.467-8-6h-1c-2.708 0-4 1.119-4 4l2 5 1 1Z"/><path fill="#E64438" id="HY" d="m221 247-3 7c-1.951 0-.477-2.454-1-3.5l-3-3.5h7Z"/><path fill="#A2B1D8" id="MA" d="M300 258h1l4-8c0-2.393-3.234-3-5-3l-9 7-1 3c0 3.917 7.15 2 9 2l1-1Z"/><path fill="#8AD987" id="CTXsp" d="m343 247-1 1v-1h1ZM342 248l-1 1 1-1Z"/><path fill="#97D6F9" id="STR" d="m117 249 1 1-1-1Z"/><path fill="#8AD987" id="CTXsp" d="m341 265-4 2c0-5.708.888-12-6-12l7-5 3-1c0 3.096-3.453 13 2 13l-1 2-1 1Z"/><path fill="#E64438" id="HY" d="m165 254 1 1-1-1Z"/><path fill="#84EA80" id="BMAa" d="m134 270-7 1c-2.518 0-4.286-2-6-2 0-4.314-5.663-14 4-14h3c0 4.296 8 4.7 8 8l1 3-3 4ZM323 270l7 1c1.424 0 5-.362 5-2l1-1 1-1c0-5.708.888-12-6-12h-2c0 1.957-8.295 8-9 8v3l3 4Z"/><path fill="#97D6F9" id="STR" d="m154 256 1 1-1-1Z"/><path fill="#8599CC" id="PAL" d="M177 273c0 4.766-7.983 4-10 4 0-1.406.714-7-1-7 0-2.915-3-4.651-3-6l-8-6v-1c2.048 0 4.872 4.314 7.5 3l4.5-3v1c0 1.546 7.792 13 9 13l1 2ZM279 273c0 1.625 6.774 5.863 8.5 5l2.5-3v-6c0-1.562 2.189-5 4-5l1-1 2-1 1-1 1-1v-1c-1.85 0-9 1.917-9-2l-2 2c0 2.049-6.231 13-8 13l-1 1Z"/><path fill="#97D6F9" id="STR" d="m155 258 8 6c-2.07 0-8-3.396-8-6Z"/><path fill="#8599CC" id="PAL" d="M299 259h1v-1l-1 1Z"/><path fill="#97D6F9" id="STR" d="m301 258-1 1v-1h1ZM300 259l-1 1v-1h1ZM299 260l-1 1 1-1ZM298 261l-1 1 1-1ZM297 262l-2 1 2-1Z"/><path fill="#99D2BD" id="OLF" d="m114 263 1 1-1-1Z"/><path fill="#97D6F9" id="STR" d="m141 265-4 1-1-3c1.424 0 5 .362 5 2ZM295 263l-1 1 1-1ZM316 265l4 1v-3l-4 2Z"/><path fill="#99D2BD" id="OLF" d="m342 264-1 1 1-1ZM117 273c1.423 0 3.544-1.978 5.5-1l2.5 2 2-3c-2.518 0-4.286-2-6-2-2.789 0-3.42-4-6-4 0 1.996 2 4.985 2 8ZM134 270l4 3c0-3.351 3-5.596 3-8l-4 1-3 4Z"/><path fill="#94E4C7" id="NLOT3" d="M138 273v1l3.5-3c2.568-1.284 6.486 1 8.5 1v-2l-1-1v-2c-2.709 0-4.646-2-8-2 0 2.404-3 4.649-3 8ZM319 272v3l-4.5-4H307v-3l1-1c1.835 0 4.235-2 7-2 0 1.301 4 4.416 4 7Z"/><path fill="#99D2BD" id="OLF" d="m323 270-4 2c0-2.584-4-5.699-4-7h1l4 1 3 4ZM339 273c-1.219 0-7-3.045-7 1l-2-3c1.424 0 5-.362 5-2l1-1 1-1 4-2c0 2.709-2 4.646-2 8Z"/><path fill="#FF5545" id="SCH" d="M220 281h5l1-1 1-1v-3l-2-8-3.5-2-5.5 6v7l4 2ZM232 281h5l1-1h1l1-1 2-2.5-2-5.5-5.5-5c-1.045 0-1.861 2-3.5 2 0 3.303-2 5.115-2 8v2l1 1 2 2Z"/><path fill="#97D6F9" id="STR" d="M150 271h1l2-2-4-2v2l1 1v1Z"/><path fill="#FE5B50" id="SO" d="M179 274h12c4.45 0-15-13.776-15-3l1 2 2 1ZM265 274h13l1-1 1-1c0-12.481-19.429 2-15 2Z"/><path fill="#97D6F9" id="STR" d="m308 267-1 1 1-1Z"/><path fill="#8AD987" id="CTXsp" d="m337 267-1 1 1-1Z"/><path fill="#97D6F9" id="STR" d="M306 271v1c-1.577 0-2-1.762-2-3 0-1.473 1.952-1 3-1v2l-1 1Z"/><path fill="#8AD987" id="CTXsp" d="m336 268-1 1 1-1Z"/><path fill="#99D2BD" id="OLF" d="m149 269 1 1-1-1Z"/><path fill="#80BFE1" id="MEA" d="m150 282 2.5 2 5.5-1 4-6.5-1-5.5-8-2-2 2v2l-1 5v4Z"/><path fill="#97D6F9" id="STR" d="m299 283-4 2c0-1.2-5-4.521-5-10v-6c1.087 0 2.433 2 5 2v7.5l4 4.5Z"/><path fill="#80BFE1" id="MEA" d="M299 283h7v-11c-1.577 0-2-1.762-2-3l-9 2v7.5l4 4.5Z"/><path fill="#60E5B7" id="COAa" d="m132 292-3 1-2-1c0-5.624-2-11.494-2-18l2-3 7-1 4 3v1c0 1.999.067 6 3 6v3l-2 8c-2.607 0-4.913 1-7 1Z"/><path fill="#97D6F9" id="STR" d="m158 283 3 1c3.061 0 6-4.266 6-7 0-1.406.714-7-1-7l-5 1 1 5.5-4 6.5Z"/><path fill="#99D2BD" id="OLF" d="M306 271h1v-1l-1 1Z"/><path fill="#60E5B7" id="COAa" d="M325 293h3l1-1c0-5.724 3-11.485 3-18l-2-3-7-1-4 2v3c0 2.069-3 3.946-3 5l-1 2 2 8 5.5 3c.495 0 2.5-2.466 2.5 0Z"/><path fill="#95E3C8" id="NLOT2" d="m141 280 1 1c3.238 0 5.3-3 8-3l1-5-1-1c-2.014 0-5.932-2.284-8.5-1l-3.5 3c0 1.999.067 6 3 6Z"/><path fill="#99D2BD" id="OLF" d="m150 272 1 1v-2h-1v1Z"/><path fill="#94E4C7" id="NLOT3" d="M306 272v1l1-2h-1v1Z"/><path fill="#95E3C8" id="NLOT2" d="m316 280-2 1c-3.442 0-6.282-4-8-4v-4l1-2h7.5l4.5 4c0 2.069-3 3.946-3 5Z"/><path fill="#59D9AA" id="PAA" d="M110 299h1c0-2.144 4.262-.381 5.5-1l7.5-3h1l2-3c0-5.624-2-11.494-2-18l-2.5-2c-1.956-.978-4.077 1-5.5 1 0 5.649-4.555 13.609-7 18.5-.921 1.842-6 4.521-6 5.5h2l1 1h2l1 1ZM346 299h1l1-1h2l1-1h1l-5-4.5-8-19.5c-1.219 0-7-3.045-7 1 0 6.515-3 12.276-3 18l2 3h1l7.5 3c1.324.662 6.5-1.207 6.5 1Z"/><path fill="#CAC7CB" id="fiber tracts" d="M178 275h13v-1h-12l-1 1ZM265 275c4.715 0 14-2.147 14 4 1.979 0 1.202-5-1-5h-13v1ZM178 275l-1 1 1-1Z"/><path fill="#CACCCB" id="opt" d="M192 287h7v-9l-5-3h-16l-1 1v2c.917 0 14 8.451 14 9h1Z"/><path fill="#CAC7CB" id="fiber tracts" d="m199 278 15 1c0-1.643-3.765-1-5-1-4.69 0-10.58-3-15-3l5 3ZM263 275l-2 1 2-1Z"/><path fill="#CACCCB" id="opt" d="M257 287h8c0-2.109 2.535-2 4-2 0-2.054 8.24-6 10-6 0-6.147-9.285-4-14-4h-2l-2 1h-1l-2 1-1 1v9Z"/><path fill="#E64438" id="HY" d="m228 276-1 1v-1h1Z"/><path fill="#CAC7CB" id="fiber tracts" d="m260 276-2 1 2-1ZM257 278l-15 1c0-1.614 3.31-1 4.5-1 3.533 0 7.456-1 11.5-1l-1 1Z"/><path fill="#95E4C7" id="NLOT1" d="M306 283c0 5.841 11 14.655 11 7l-2-8-1-1c-3.442 0-6.282-4-8-4v6ZM141 283l-2 8c0 5.802 11 .39 11-9v-4c-2.7 0-4.762 3-8 3l-1 2Z"/><path fill="#CAC7CB" id="fiber tracts" d="M177 278c.917 0 14 8.451 14 9-4.459 0-14-4.888-14-9Z"/><path fill="#CBCACC" id="och" d="M229 284c9.908 0 18.765 3 28 3v-9l-15 1h-1l-2 1h-1l-1 1h-5l-5-2-1 1-1 1h-5l-4-2h-2l-15-1v9c9.647 0 18.657-3 29-3h1Z"/><path fill="#CAC7CB" id="fiber tracts" d="m230 279 2 2-5-2v-1h2l1 1Z"/><path fill="#E64438" id="HY" d="m229 278 1 1-1-1Z"/><path fill="#CAC7CB" id="fiber tracts" d="m216 279 4 2-4-2ZM227 279l-1 1 1-1ZM241 279l-2 1 1-1h1ZM279 279c-1.76 0-10 3.946-10 6 2.997 0 10-2.23 10-6Z"/><path fill="#99D2BD" id="OLF" d="m142 281-1 2v-3l1 1Z"/><path fill="#CAC7CB" id="fiber tracts" d="m226 280-1 1 1-1ZM238 280l-1 1 1-1Z"/><path fill="#99D2BD" id="OLF" d="m314 281 1 1 1-2-2 1ZM132 292v4c2.076 0 11.384.058 13.5-1 3.581-1.791 15.5-8.012 15.5-11l-3-1-5.5 1-2.5-2c0 9.39-11 14.802-11 9-2.607 0-4.913 1-7 1ZM325 293c-2.373 0 0 2.284 0 3-10.404 0-14.016-2.758-22.5-7-1.886-.943-7.5-.214-7.5-4l4-2h7c0 5.841 11 14.655 11 7l5.5 3c.495 0 2.5-2.466 2.5 0Z"/><path fill="#CAC7CB" id="fiber tracts" d="M192 287h7c9.647 0 18.657-3 29-3 0 3.474-4.824 1.162-6.5 2-5.59 2.795-14.356 3-21 3-1.955 0-8.5.577-8.5-2ZM257 287h8c0 2.048-6.648 2-8.5 2-6.744 0-16.293-.147-22-3-1.538-.769-5.5 1.226-5.5-2 9.908 0 18.765 3 28 3ZM269 285c-1.465 0-4-.109-4 2l4-2Z"/><path fill="#99D2BD" id="OLF" d="m129 293-4 2 2-3 2 1Z"/><path fill="#CAC8C7" id="lot" d="M132 296c-1.819 0-4.591 1-7 1l-1-2h1l4-2 3-1v4Z"/><path fill="#99D2BD" id="OLF" d="m328 293 3 2-2-3-1 1Z"/><path fill="#CAC8C7" id="lot" d="M325 296c1.564 0 3.876 1 6 1l1-2h-1l-3-2h-3c-2.373 0 0 2.284 0 3Z"/><path fill="#99D2BD" id="OLF" d="M125 297c0 2.5-11.582 2-14 2 0-2.144 4.262-.381 5.5-1l7.5-3 1 2ZM331 297c0 2.09 12.324 2 15 2 0-2.207-5.176-.338-6.5-1l-7.5-3-1 2ZM106 297l1 1-1-1ZM351 297l-1 1 1-1ZM109 298l1 1-1-1ZM348 298l-1 1 1-1Z"/></svg>