<svg xmlns="http://www.w3.org/2000/svg" viewBox="0 0 456 320"><path fill="#1E9C59" id="MOs1" d="m151 66 6.5-3c7.746-3.873 35.135-12.433 44-8h5c2.994 1.497 12.5 8.44 12.5 12l4-2c0-2.23-1.986-2.471-3-4.5-8.176-16.351-35.677-14.912-50.5-7.5-2.408 1.204-19.5 5.883-19.5 8l1 5ZM237 67h1c0-4.688 8.267-9.884 12.5-12h5c5.862-2.93 27.882 1.441 33 4 4.919 2.46 11.817 7 17.5 7v-5c0-3.077-11.343-4.922-13.5-6-12.086-6.043-31.715-10.642-45-4-4.079 2.04-13.5 7.129-13.5 13 0 1.659 1.461 3 3 3Z"/><path fill="#1E9D58" id="MOs2/3" d="M213 71c-3.187 0-15.175-11.163-25.5-6L151 84V66l6.5-3c7.746-3.873 35.135-12.433 44-8h5c2.994 1.497 12.5 8.44 12.5 12v1l-6 3ZM243 71c2.723 0 15.543-10.979 25.5-6 8.224 4.112 16.789 7.895 25 12l11.5 7c0-6.227 1-12.255 1-17v-1c-5.683 0-12.581-4.54-17.5-7-5.118-2.559-27.138-6.93-33-4h-5c-4.233 2.116-12.5 7.312-12.5 12 0 1.43 3.939 4 5 4Z"/><path fill="#1E9D5A" id="MOp1" fill-rule="evenodd" d="M91 110c0 1.93 1.93 0 0 0m-1-1 1 6c.742 0 13.062-15.624 14-17.5 3.781-7.562 26.263-20.382 34.5-24.5 3.969-1.985 6.716-6 11.5-6v-1l-1-5c-4.291 0-7.858 4.179-11.5 6-13.078 6.54-25.335 15.335-36.5 26.5-3.024 3.024-12 10.417-12 14.5 1.186 0 1.186 1 0 1Z"/><path fill="#1E9D5A" id="MOp1" d="m366 108-1 7-14-17.5c-9.779-9.78-20.471-17.985-33.5-24.5-3.447-1.724-7.466-6-11.5-6v-6c5.855 0 10.552 5.526 15.5 8 10.268 5.134 31.079 18.659 35.5 27.5 1.968 3.936 9 6.886 9 11.5Z"/><path fill="#1F9D58" id="MOs5" d="m196 89-6.5-1c-9.727 4.864-20.328 8.164-30 13-2.139 1.07-5.078 4-7.5 4 0-6.682-1-12.58-1-20v-1l36.5-19c10.325-5.163 22.313 6 25.5 6v2c-4.661 0-15.027 16-17 16Z"/><path fill="#3EA665" id="ACAd1" d="M222 97h12l-1-21.5 4-8.5c-1.539 0-3-1.341-3-3-2.045 0-4.645 9-5.5 9-1.493 0-2.817-8-5.5-8l-4 2v1c6.758 0 3 25.078 3 29Z"/><path fill="#1F9D58" id="MOs5" d="m260 89 6.5-1c5.631 2.816 34.26 17 38.5 17V84l-11.5-7c-8.211-4.105-16.776-7.888-25-12-9.957-4.979-22.777 6-25.5 6v1c4.231 0 15.71 17 17 17Z"/><path fill="#1F9C58" id="MOp2/3" d="M97 171h1c0-30.265 9.345-62.423 36.5-76 5.312-2.656 10.239-10 16.5-10V67c-4.784 0-7.531 4.015-11.5 6-8.237 4.118-30.719 16.938-34.5 24.5-.938 1.876-13.258 17.5-14 17.5v2c1.716 0 .822 9.145 2 11.5 1.204 2.407 1 21.632 1 28.5l2 8c1.684 0 1 4.679 1 6Z"/><path fill="#40A565" id="ACAd2/3" d="m234 97 6 1V78.5l3-6.5v-1c-1.061 0-5-2.57-5-4h-1l-4 8.5 1 21.5Z"/><path fill="#1F9C58" id="MOp2/3" d="m361 165-2 2c0-22.228-10.576-57.538-31.5-68-7.315-3.657-13.901-14-22.5-14v-1c0-6.227 1-12.255 1-17 4.034 0 8.053 4.276 11.5 6 13.029 6.515 23.721 14.72 33.5 24.5l14 17.5v2c0 5.222-3 8.624-3 13.5l2 1-2 2c-.41.82 1.498 6.995 2 8l-1 15.5c-2.582 0-2 5.798-2 8Z"/><path fill="#40A565" id="ACAd2/3" d="m222 97-5 1c0-4.395.653-25-4-25v-2l6-3c6.758 0 3 25.078 3 29Z"/><path fill="#3EA566" id="ACAd5" d="M255 103h1c0-3.094-.646-13 4-13v-1c-1.29 0-12.769-17-17-17l-3 6.5V98c5.292 0 10.349 5 15 5ZM217 98c-5.706 0-10.891 5-16 5 0-3.548-.66-13-5-13v-1c1.973 0 12.339-16 17-16 4.653 0 4 20.605 4 25Z"/><path fill="#1E9C5A" id="MOp5" d="M120 163c-7.368 0-14.143 8-22 8 0-30.265 9.345-62.423 36.5-76 5.312-2.656 10.239-10 16.5-10 0 7.42 1 13.318 1 20-3.791 0-8.135 6.317-11.5 8-10.067 5.034-14.962 15.424-19.5 24.5-1.323 2.645-.643 6.286-2 9l1 15.5v1ZM359 167v5c-7.742 0-15.124-9-23-9v-1c0-4.389 3.337-13.826 1-18.5-5.132-10.264-7.64-23.07-18.5-28.5-4.576-2.288-8.1-9-13.5-9V85c8.599 0 15.185 10.343 22.5 14 20.924 10.462 31.5 45.772 31.5 68Z"/><path fill="#1D9C5A" id="MOs6a" d="m150 145-6 4c0-8.144 3.766-17.031 8-25.5.431-.862 0-15.441 0-18.5 2.422 0 5.361-2.93 7.5-4 9.672-4.836 20.273-8.136 30-13l6.5 1v1c-2.104 0-13 23.454-13 27-1.01 0-10-.697-10 2-1.465 0-4-.109-4 2-4.967 0-19 19.714-19 24ZM306 145l7 4c0-8.799-4.379-15.258-8-22.5-2.001-4.003 0-14.989 0-20.5v-1c-4.24 0-32.869-14.184-38.5-17l-6.5 1v1c3.007 0 13 23.145 13 27h1c0-.981 10.803 1.151 12.5 2 5.928 2.964 19.5 19.837 19.5 26Z"/><path fill="#3FA664" id="ACAd6a" d="M183 117h2c1.49 0 11.644-14 16-14 0-3.548-.66-13-5-13-2.104 0-13 23.454-13 27ZM271 118h1l1-1c0-3.855-9.993-27-13-27-4.646 0-4 9.906-4 13 2.452 0 15 12.332 15 15Z"/><path fill="#2FA74F" id="PL2/3" d="M218 133h5c0-11.282-1-24.058-1-36l-5 1c0 11.612 1 24.045 1 35Z"/><path fill="#2FA750" id="PL1" d="M223 133h11V97h-12c0 11.942 1 24.718 1 36Z"/><path fill="#2FA74F" id="PL2/3" d="M234 133h4c0-11.316 2-23.095 2-35l-6-1v36Z"/><path fill="#2EA84F" id="PL5" d="m218 133-13 2c0-10.009-4-20.329-4-32 5.109 0 10.294-5 16-5 0 11.612 1 24.045 1 35ZM238 133l14 2c0-4.607 1.012-11.523 3-15.5V103c-4.651 0-9.708-5-15-5 0 11.905-2 23.684-2 35Z"/><path fill="#2FA850" id="PL6a" d="m205 135-10 1c0-2.525-7.613-18-10-18v-1c1.49 0 11.644-14 16-14 0 11.671 4 21.991 4 32ZM252 135l9 1c0-2.155 5.495-15 8-15 0-1.747.253-2 2-2v-1c0-2.668-12.548-15-15-15h-1v16.5c-1.988 3.977-3 10.893-3 15.5Z"/><path fill="#1F9B5A" id="MOp6a" d="M144 149c-8.626 0-15.59 13-24 13l-1-15.5c1.357-2.714.677-6.355 2-9 4.538-9.076 9.433-19.466 19.5-24.5 3.365-1.683 7.709-8 11.5-8 0 3.059.431 17.638 0 18.5-4.234 8.469-8 17.356-8 25.5ZM313 149l23 13c0-4.389 3.337-13.826 1-18.5-5.132-10.264-7.64-23.07-18.5-28.5-4.576-2.288-8.1-9-13.5-9 0 5.511-2.001 16.497 0 20.5 3.621 7.242 8 13.701 8 22.5Z"/><path fill="#187E61" id="SSp-m1" d="M90 108c1.186 0 1.186 1 0 1v-1ZM374 160l5 1c0-15.275.28-27.939-6-40.5-1.003-2.005-4.425-12.5-7-12.5l-1 7v2c3.962 0 4.859 9.218 6 11.5 4.577 9.153 3 20.587 3 30.5v1ZM82 160c-1.429 0-4 .454-4 1-1.793 0-1-12.009-1-14 0-10.589 2.64-18.782 7-27.5.926-1.851 3.317-10.5 6-10.5l1 6v2c-2.542 0-4.108 7.716-5 9.5-4.798 9.596-4 21.936-4 33.5ZM91 110c0 1.93 1.93 0 0 0Z"/><path fill="#1E9C58" id="MOs6b" d="m183 118-10 1c0-2.697 8.99-2 10-2v1ZM303 144l3 1c0-6.163-13.572-23.036-19.5-26-1.697-.849-12.5-2.981-12.5-2v1c2.54 0 13 1.064 13 4 4.061 0 16 18.195 16 22Z"/><path fill="#1A7E64" id="SSp-m2/3" d="M94 157c-4.597 0-8.146 3-12 3 0-11.564-.798-23.904 4-33.5.892-1.784 2.458-9.5 5-9.5 1.716 0 .822 9.145 2 11.5 1.204 2.407 1 21.632 1 28.5Z"/><path fill="#3FA466" id="ACAd6b" d="M185 118v1l-2-1v-1h2v1ZM274 118l-2 1v-1l1-1h1v1Z"/><path fill="#1A7E64" id="SSp-m2/3" d="m363 157 11 2c0-9.913 1.577-21.347-3-30.5-1.141-2.282-2.038-11.5-6-11.5 0 5.222-3 8.624-3 13.5l2 1-2 2c-.41.82 1.498 6.995 2 8l-1 15.5Z"/><path fill="#CACCC7" id="cing" d="m194 137 1 7c-1.612 0-3.243-8.987-4-10.5-4.18-8.36-8.955-9.5-18-9.5l-4-2v-1l4-2 10-1 2 1c0 3.627 9 12.392 9 18Z"/><path fill="#2FA84F" id="PL6b" d="M194 137h1v-1c0-2.525-7.613-18-10-18v1c0 3.627 9 12.392 9 18ZM271 119h1v-1h-1v1Z"/><path fill="#CACCC7" id="cing" d="M263 137c0 2.755-2 5.553-2 9 1.632 0 3.212-9.924 4-11.5 4.331-8.661 7.847-10.5 18-10.5l4-2c0-2.936-10.46-4-13-4l-2 1h-1l-2 2c0 5.646-6 9.891-6 16Z"/><path fill="#1E9C58" id="MOs6b" d="M173 119c-1.465 0-4-.109-4 2l4-2Z"/><path fill="#2FA84F" id="PL6b" d="M271 119c-1.747 0-2 .253-2 2l2-2Z"/><path fill="#1E9C58" id="MOs6b" d="m153 144-3 1c0-4.286 14.033-24 19-24v1c0 1.587-16 15.468-16 22Z"/><path fill="#2FA84F" id="PL6b" d="M261 137h2c0-6.109 6-10.354 6-16-2.505 0-8 12.845-8 15v1Z"/><path fill="#C9C9CA" id="scwm" d="M153 155c1.302 0 2.641 4 5 4 0-9.327.182-15.863 4-23.5l11-11.5-4-2c0 1.587-16 15.468-16 22v11ZM303 157l-5 2c0-12.212.674-18.826-9-28.5l-6-6.5 4-2c4.061 0 16 18.195 16 22v13Z"/><path fill="#CAC7CC" id="fa" d="M187 181c0 2.456 2 3.913 2 1 0-8.189 8-15.38 8-23 0-5.002-2-8.614-2-14v-1c-1.612 0-3.243-8.987-4-10.5-4.18-8.36-8.955-9.5-18-9.5l-11 11.5c-3.818 7.637-4 14.173-4 23.5 5.229 0 23 1.854 23 8v2c3.147 0 6 9.536 6 12ZM270 181c0 2.681-2.078 1-3 1 0-3.31-5.171-21-8-21v-3c0-3.205 2-6.924 2-11v-1c1.632 0 3.212-9.924 4-11.5 4.331-8.661 7.847-10.5 18-10.5l6 6.5c9.674 9.674 9 16.288 9 28.5-5.35 0-23 1.532-23 8v1c0 4.507-5 7.612-5 13Z"/><path fill="#59B262" id="ILA5" d="M211 159h8c0-8.557-1-18.122-1-26l-13 2c0 8.96 6 16.01 6 24Z"/><path fill="#59B362" id="ILA2/3" d="M219 159h4v-26h-5c0 7.878 1 17.443 1 26Z"/><path fill="#59B263" id="ILA1" d="M229 159h5v-26h-11v26h5v-3l.5-10 .5 10v3Z"/><path fill="#59B362" id="ILA2/3" d="M234 159h3l1-26h-4v26Z"/><path fill="#59B262" id="ILA5" d="M237 159h8c0-4.633 7-16.077 7-24l-14-2-1 26Z"/><path fill="#58B362" id="ILA6a" d="M198 158c3.823 0 8.586 1 13 1 0-7.99-6-15.04-6-24l-10 1v1c0 4.782 3 11.753 3 17v4ZM258 158c-3.823 0-8.586 1-13 1 0-4.633 7-16.077 7-24l9 1v1c0 6.14-3 12.162-3 19v2Z"/><path fill="#58B263" id="ILA6b" d="M195 145c2.013 0 .752 9 3 9 0-5.247-3-12.218-3-17h-1l1 7v1ZM261 147c-2.248 0-.987 9-3 9 0-6.838 3-12.86 3-19h2c0 2.755-2 5.553-2 9v1Z"/><path fill="#1F9766" id="AId6b" d="m152 157-2 1v-13l3-1v11l-1 2ZM303 155l3 3c2.827 0 0-11.754 0-13l-3-1v11Z"/><path fill="#209666" id="AId6a" d="M134 177h1v-1l-3-3.5c-.748-1.495.477-2.953 1-4 3.688-7.377 6.18-4.5 13-4.5 0-1.252 3.172-5 4-5v-14l-6 4c-8.626 0-15.59 13-24 13v1c.83 0 2.466 6.431 3 7.5 2.141 4.281 6.191 6.5 11 6.5Z"/><path fill="#CACCC7" id="cing" d="M197 159h1v-5c-2.248 0-.987-9-3-9 0 5.386 2 8.998 2 14Z"/><path fill="#209666" id="AId6a" d="M321 177h2c6.694 0 13-7.657 13-14v-1l-23-13-7-4c0 1.246 2.827 13 0 13v1l5 5c6.022 0 14-1.705 14 7.5l-4 5.5Z"/><path fill="#99D2BD" id="OLF" d="M228 156h1l-.5-10-.5 10Z"/><path fill="#CACCC7" id="cing" d="M258 158h1c0-3.205 2-6.924 2-11-2.248 0-.987 9-3 9v2Z"/><path fill="#219665" id="AIv6b" d="m153 155-1 2 1-2Z"/><path fill="#248A5C" id="ORBl6b" d="m151 160 7.5 5c4.255 2.127 17.543 2 22.5 2 0-6.146-17.771-8-23-8-2.359 0-3.698-4-5-4l-1 2-1 2v1Z"/><path fill="#219665" id="AIv6b" d="M305 159h1v-1l-3-3v2l2 2Z"/><path fill="#009B75" id="GU2/3" d="M97 171c0 2.337-9.318 6-12 6 0-5.176-3-11.544-3-17 3.854 0 7.403-3 12-3l2 8c0 1.321-.684 6 1 6Z"/><path fill="#219665" id="AIv6b" d="M150 159h1l1-2-2 1v1Z"/><path fill="#99D2BD" id="OLF" d="M228 159c0 4.283 1 4.283 1 0v-2h-1v2Z"/><path fill="#248A5C" id="ORBl6b" d="M305 160c0 5.932-25.801 7-30 7 0-6.468 17.65-8 23-8l5-2 2 2v1Z"/><path fill="#009B75" id="GU2/3" d="M359 173c4.503 0 7.736 4 12 4 1.951 0 .477-2.454 1-3.5 1.824-3.649 2-9.174 2-13.5v-1l-11-2c-2.582 0-2 5.798-2 8 0 1.296-.825 7-2 7v1Z"/><path fill="#A3DAA3" id="DP" d="M205 180c0-3.836 10.434-1 12.5-1 3.231 0 30.896-1.552 32-1l2.5 2 5-4.5c2.097-4.193 2-9.412 2-14.5v-3h-1c-3.823 0-8.586 1-13 1h-16c0 4.283-1 4.283-1 0h-17c-4.414 0-9.177-1-13-1v1c0 5.012-.67 21 7 21Z"/><path fill="#1F9866" id="AIv6a" d="m146 164 2 1 3-5v-1h-1c-.828 0-4 3.748-4 5Z"/><path fill="#99D2BD" id="OLF" d="M226 207c0 2.279-14.83 9-16.5 9-3.145 0-2.05-7-4.5-7v-2l-1-1-1-3c6.859 0-7-29.78-7-14l-3-3-4-4c0-8.189 8-15.38 8-23h1c0 5.012-.67 21 7 21 0 15.955 1.409 27 21 27Z"/><path fill="#1F9866" id="AIv6a" d="m311 164-3 2c0-1.402-1.11-6-3-6v-1h1l5 5Z"/><path fill="#009C75" id="GU1" d="m85 178-4 1c0-5.887-3-11.415-3-18 0-.546 2.571-1 4-1 0 5.456 3 11.824 3 17v1Z"/><path fill="#24895D" id="ORBl6a" d="M155 175c13.919 0 4 8.524 4 13 4.697 0 18.089-19 22-19v-2c-4.957 0-18.245.127-22.5-2l-7.5-5-3 5c0 3.553 7 .47 7 10ZM301 175c-14.038 0-3 9.615-3 13-5.442 0-19.41-20-23-20v-1c4.199 0 30-1.068 30-7 1.89 0 3 4.598 3 6-4.267 0-7 5.591-7 9Z"/><path fill="#009C75" id="GU1" d="m371 178 4 1c0-5.512 4-12.037 4-18l-5-1c0 4.326-.176 9.851-2 13.5-.523 1.046.951 3.5-1 3.5v1Z"/><path fill="#99D2BD" id="OLF" d="M251 208v2l-4.5 6c-4.121 0-19.329-11-19.5-11l1-5h1c0 8.806 13.491 9.517 16 4.5 4.108-8.216 7-14.422 7-24.5l5-4.5c2.097-4.193 2-9.412 2-14.5 2.829 0 8 17.69 8 21-1.429 0-4 3.939-4 5l-2 1c0-11.056-9 5.683-9 10 0 1.235-.643 5 1 5l-1 4-1 1Z"/><path fill="#209665" id="AId5" d="M104 197h1c4.293 0 29-14.553 29-20-4.809 0-8.859-2.219-11-6.5-.534-1.069-2.17-7.5-3-7.5-7.368 0-14.143 8-22 8 0 5.019-.14 13.22 2 17.5l4 8.5Z"/><path fill="#8ADA86" id="CLA" d="m136 177 14 2 5-4c0-9.53-7-6.447-7-10l-2-1c-6.82 0-9.312-2.877-13 4.5-.523 1.047-1.748 2.505-1 4l3 3.5 1 1ZM321 177c-5.282 0-10.447 1-15 1-2.666 0-2.482-3-5-3 0-3.409 2.733-9 7-9l3-2c6.022 0 14-1.705 14 7.5l-4 5.5Z"/><path fill="#209665" id="AId5" d="M351 197h1c0-2.272 3.881-8.262 5-10.5.856-1.712.156-13.5 2-13.5v-1c-7.742 0-15.124-9-23-9 0 6.343-6.306 14-13 14 0 6.162 23.034 20 28 20Z"/><path fill="#009C74" id="GU4" d="M96 165c1.684 0 1 4.679 1 6-1.684 0-1-4.679-1-6ZM359 167v5c1.175 0 2-5.704 2-7l-2 2Z"/><path fill="#99D2BD" id="OLF" d="M298 249h5c0-4.149-12.949-7.602-10-13.5 1.396-2.793 10-9.768 10-12.5-3.499 0-6.374 6.063-10.5 4-3.907-1.953-.554-8.391.5-10.5 2.448-4.896.585-12.17 3-17 4.106-8.213 20 4.027 20 11.5 1.84 0 4-5 8-5 0-.167-25-14.372-25-17l-1-1c-5.442 0-19.41-20-23-20 0 4.507-5 7.612-5 13 6.748 0 21 10.49 21 18v1l1 1c0 4.712 3.672 10-4 10 0 1.804 2.182 5.136 1 7.5l-7 8.5c5.553 0 6 13.099 6 17 3.813 0 7.05 5 10 5ZM153 249h6c0-3.305 7.652-5 10-5 0-3.466-.52-17 5-17l-7-9.5c-1.428-2.856 2-4.553 2-6.5-7.564 0-5-4.226-5-9l1-1v-2l1-1c0-7.616 14.13-17 21-17 0-2.464-2.853-12-6-12-3.911 0-17.303 19-22 19l-1 1c-3.029 0-19.124 16-26 16v1c6.65 0 7.397 6 9 6 0-2.271-1.325-3.85 0-6.5 1.931-3.863 15.638-12.724 19-6l3 16c1.099 2.197 5.264 9.618 1.5 11.5-5.714 2.857-9.184-6-13.5-6 0 .779 10.669 10.838 12 13.5 3.641 7.281-10 9.919-10 14.5Z"/><path fill="#209765" id="AId2/3" d="M93 201h1c0-1.565 8.408-4 10-4l-4-8.5c-2.14-4.28-2-12.481-2-17.5h-1c0 2.337-9.318 6-12 6v1c0 8.005 8 15.239 8 23ZM352 197l11 3c0-4.185 8-15.286 8-22v-1c-4.264 0-7.497-4-12-4-1.844 0-1.144 11.788-2 13.5-1.119 2.238-5 8.228-5 10.5Z"/><path fill="#228A5D" id="ORBl5" d="M158 188h1c0-4.476 9.919-13-4-13l-5 4c1.938 0 1.313 9 8 9ZM298 188h1c3.425 0 7-6.624 7-10-2.666 0-2.482-3-5-3-14.038 0-3 9.615-3 13Z"/><path fill="#1F9866" id="AIv6a" d="M135 177h1l-1-1v1Z"/><path fill="#1F9865" id="AIv5" d="M105 197c0 9.563 19.491 3.495 22.5 5l4.5 3c6.876 0 22.971-16 26-16v-1c-6.687 0-6.062-9-8-9l-14-2h-2c0 5.447-24.707 20-29 20ZM324 206h1c0-8.117 26 1.934 26-9-4.966 0-28-13.838-28-20h-2c-5.282 0-10.447 1-15 1 0 3.376-3.575 10-7 10v1c0 2.628 25 16.833 25 17Z"/><path fill="#209764" id="AId1" d="m93 201-3 1c-1.325 0-2.43-5.361-3-6.5-2.254-4.507-6-11.303-6-16.5l4-1c0 8.005 8 15.239 8 23Z"/><path fill="#61D09F" id="TTd" d="m227 205-1 2c-19.591 0-21-11.045-21-27 0-3.836 10.434-1 12.5-1 3.231 0 30.896-1.552 32-1l2.5 2c0 10.078-2.892 16.284-7 24.5-2.509 5.017-16 4.306-16-4.5 0-1.186-1-1.186-1 0l-1 5Z"/><path fill="#209764" id="AId1" d="m363 201 4 1c0-6.526 8-14.656 8-23l-4-1c0 6.714-8 17.815-8 22v1Z"/><path fill="#97D6F9" id="STR" d="M193 186c-5.819 0-14.457 3.479-19.5 6l-7.5 6c0-7.616 14.13-17 21-17 0 2.456 2 3.913 2 1l4 4ZM263 187c7.095 0 14.614 2.557 21.5 6 1.436.718 4.069 6 6.5 6 0-7.51-14.252-18-21-18 0 2.681-2.078 1-3 1-1.429 0-4 3.939-4 5Z"/><path fill="#54BF94" id="AON" d="m196 189 7 14c6.859 0-7-29.78-7-14ZM254 202l-1 1c-1.643 0-1-3.765-1-5 0-4.317 9-21.056 9-10l-7 14Z"/><path fill="#80CDF8" id="ACB" d="M211 233v11.5c-3.555 7.11-15.582 13.959-22.5 10.5h-7c-3.893-1.946-12.5-5.817-12.5-11 0-3.466-.52-17 5-17 6.076 0 6.991-11.518 5-15.5-2.599-5.198-6.64-.5-10-.5-7.564 0-5-4.226-5-9l1-1v-2l1-1 7.5-6c5.043-2.521 13.681-6 19.5-6l3 3 7 14 1 3 1 1v2c0 8.271 6 15.222 6 24ZM245 233v10.5c3.613 7.227 14.66 15.42 22.5 11.5h7c3.701-1.85 13.5-5.804 13.5-11 0-3.901-.447-17-6-17-4.518 0-6.694-11.112-5-14.5 3.263-6.526 7.145-1.5 11-1.5 7.672 0 4-5.288 4-10l-1-1v-1c-2.431 0-5.064-5.282-6.5-6-6.886-3.443-14.405-6-21.5-6l-2 1-7 14-1 1-1 4-1 1v2c0 5.051-2.822 12.143-5 16.5-.662 1.324 1.207 6.5-1 6.5Z"/><path fill="#1F9866" id="AIv6a" d="m159 188-1 1v-1h1ZM299 188v1l-1-1h1Z"/><path fill="#219764" id="AIv2/3" d="M132 206c-9.235 0-17.371 8-27 8 0-2.359-11-8.603-11-13 0-1.565 8.408-4 10-4h1c0 9.563 19.491 3.495 22.5 5l4.5 3v1Z"/><path fill="#A0EE9C" id="EPd" d="M150 221h1c4.316 0 7.786 8.857 13.5 6 3.764-1.882-.401-9.303-1.5-11.5l-3-16c-3.362-6.724-17.069 2.137-19 6-1.325 2.65 0 4.229 0 6.5v1c1.702 0 6 4.802 6 6h1l2 2ZM305 222l-2 1c-3.499 0-6.374 6.063-10.5 4-3.907-1.953-.554-8.391.5-10.5 2.448-4.896.585-12.17 3-17 4.106-8.213 20 4.027 20 11.5v1l-1 1-2 2-2 2-1 1-1 1h-1l-1 1-1 1-1 1Z"/><path fill="#219764" id="AIv2/3" d="M325 206c8.803 0 16.844 8 26 8l7-6.5 5-6.5v-1l-11-3h-1c0 10.934-26 .883-26 9Z"/><path fill="#97D6F9" id="STR" d="m166 198-1 1 1-1ZM291 200l1 1-1-1Z"/><path fill="#209864" id="AIv1" d="M105 214c0 1.684-4.679 1-6 1 0-4.16-9-8.372-9-13l3-1h1c0 4.397 11 10.641 11 13Z"/><path fill="#97D6F9" id="STR" d="m165 201-1 1 1-1Z"/><path fill="#209864" id="AIv1" d="M351 214c1.564 0 3.876 1 6 1 0-.986 10-10.208 10-13l-4-1-5 6.5-7 6.5Z"/><path fill="#99D2BD" id="OLF" d="m254 202-1 1 1-1ZM227 205l-1 2 1-2Z"/><path fill="#97D6F9" id="STR" d="M235 254c-2.144 0-.381-4.262-1-5.5-2.417-4.834-1.583-11.166-4-16l-1.5-6.5c-2.23 0-1.029 3.558-1.5 4.5-2.482 4.965-4 12.659-4 18.5 0 .986-1.087 6-2 6 0-2.765-2-5.165-2-7 1.22 0 1.504-3.492 1-4.5-1.694-3.388-5.318-10.5-9-10.5 0-8.778-6-15.729-6-24 2.45 0 1.355 7 4.5 7 1.67 0 16.5-6.721 16.5-9l1-2c.171 0 15.379 11 19.5 11l4.5-6c0 5.051-2.822 12.143-5 16.5-.662 1.324 1.207 6.5-1 6.5-5.812 0-8 11.677-8 15 0 1.714-2 3.482-2 6Z"/><path fill="#6ACAB9" id="PIR" d="M142 253h1c3.685 0 6.026-4 10-4 0-4.581 13.641-7.219 10-14.5-1.331-2.662-12-12.721-12-13.5h-1l-2-2h-1l-6-6v-1c-1.603 0-2.35-6-9-6-9.235 0-17.371 8-27 8 0 1.684-4.679 1-6 1 0 7.292 11.528 25 20 25 9.269 0 19.561 13 23 13Z"/><path fill="#97D6F9" id="STR" d="m204 206 1 1-1-1Z"/><path fill="#6ACAB9" id="PIR" d="M313 253h2l6.5-6 15-8 1.5 2c0-2.431 6.336-4.836 8-6.5 5.117-5.117 11-12.389 11-19.5-2.124 0-4.436-1-6-1-9.156 0-17.197-8-26-8h-1c-4 0-6.16 5-8 5v1l-1 1c0 1.747-.253 2-2 2 0 1.747-.253 2-2 2l-1 1-1 1h-1l-1 1-1 1-1 1-2 1c0 2.732-8.604 9.707-10 12.5-2.949 5.898 10 9.351 10 13.5 3.948 0 6.604 4 10 4Z"/><path fill="#97D6F9" id="STR" d="m252 207-1 1 1-1Z"/><path fill="#CBCBC7" id="aco" d="M169 211c3.36 0 7.401-4.698 10 .5 1.991 3.982 1.076 15.5-5 15.5l-7-9.5c-1.428-2.856 2-4.553 2-6.5ZM288 211c-3.855 0-7.737-5.026-11 1.5-1.694 3.388.482 14.5 5 14.5l7-8.5c1.182-2.364-1-5.696-1-7.5Z"/><path fill="#99D2BD" id="OLF" d="m316 212-1 1 1-1ZM141 213c1.702 0 6 4.802 6 6l-6-6ZM315 213l-2 2c1.747 0 2-.253 2-2ZM313 215l-2 2c1.747 0 2-.253 2-2ZM311 217l-1 1 1-1ZM310 218l-1 1 1-1ZM148 219l2 2-2-2ZM308 219l-1 1 1-1ZM307 220l-1 1 1-1ZM306 221l-1 1 1-1ZM305 222l-2 1 2-1Z"/><path fill="#A2B1D7" id="SI" d="M219 248c-6.412 0-8.731 8.615-13.5 11-12.991 6.496-23.82 3.09-36-3-1.894-.947-10.5-4.44-10.5-7 0-3.305 7.652-5 10-5 0 5.183 8.607 9.054 12.5 11h7c6.918 3.459 18.945-3.39 22.5-10.5V233c3.682 0 7.306 7.112 9 10.5.504 1.008.22 4.5-1 4.5ZM237 248c4.408 0 15.904 12.202 21.5 15 7.793 3.896 24.129-5.064 30-8 1.685-.842 9.5-3.643 9.5-6-2.95 0-6.187-5-10-5 0 5.196-9.799 9.15-13.5 11h-7c-7.84 3.92-18.887-4.273-22.5-11.5V233c-5.812 0-8 11.677-8 15Z"/><path fill="#CAC8C7" id="lot" d="m314 258 1 1c2.357 0 23-15.868 23-18l-1.5-2-15 8-6.5 6-1 2v3ZM142 257l-1 2c-3.537 0-22-15.251-22-19 9.269 0 19.561 13 23 13v4Z"/><path fill="#7FCCF7" id="OT" d="m218 265-1 1c0 5.385-7.667 9.083-11.5 11l-8 4c-1.927.964-5.545-.272-7-1-7.209-3.604-17.411 2.294-24-1l-10-6c-3.008-1.504-11.5-6.838-11.5-11l-2-2c0-1.048.473-3-1-3v-1c1.473 0 1-1.952 1-3 3.685 0 6.026-4 10-4h6c0 2.56 8.606 6.053 10.5 7 12.18 6.09 23.009 9.496 36 3 4.769-2.385 7.088-11 13.5-11 0 1.835 2 4.235 2 7v3l-1 2v1l-1 1v1l-1 1v1ZM239 267l1 1c0 4.65 8.378 7.439 11.5 9 2.496 1.248 4.576 2.788 7 4 2.837 1.418 11.608-.804 14-2 3.405-1.702 9.52 2.24 12 1 4.754-2.377 10.163-3.581 15-6 3.708-1.854 6.408-5.408 9-8l3.5-4 1-1c0-1.048-.473-3 1-3v-3l-1-2c-3.396 0-6.052-4-10-4h-5c0 2.357-7.815 5.158-9.5 6-5.871 2.936-22.207 11.896-30 8-5.596-2.798-17.092-15-21.5-15 0 1.714-2 3.482-2 6v2c1.014 0 2 3.959 2 5v1l1 1v1l1 1v2Z"/><path fill="#99D2BD" id="OLF" d="M143 253c0 1.048.473 3-1 3v-3h1ZM315 253l-1 2-1-2h2Z"/><path fill="#97D6F9" id="STR" d="M235 256c1.014 0 2 3.959 2 5-1.638 0-2-3.576-2-5Z"/><path fill="#99D2BD" id="OLF" d="M142 260h1c0-1.048.473-3-1-3l-1 2 1 1Z"/><path fill="#97D6F9" id="STR" d="m221 258-1 2 1-2ZM314 260l-1 1c0-1.048-.473-3 1-3v2Z"/><path fill="#99D2BD" id="OLF" d="m315 259-1 1v-2l1 1Z"/><path fill="#97D6F9" id="STR" d="m143 260 2 2-3-2h1ZM220 261l-1 1 1-1ZM313 261l-1 1 1-1ZM237 262l1 1-1-1ZM219 263l-1 1 1-1ZM238 264l1 1-1-1ZM218 265l-1 1 1-1ZM239 267l1 1-1-1Z"/></svg>