<svg xmlns="http://www.w3.org/2000/svg" viewBox="0 0 456 320"><path fill="#1E9C59" id="MOs1" d="M123 91c0 1.234-.643 5 1 5l15.5-12c5.452-2.726 10.534-6.267 16-9h4c6.822-3.411 14.233-4.616 21-8 5.696-2.848 20.717-1.642 26 1l9.5 8c1.658 0 3-1.46 3-3 0-8.639-12.295-10.398-17.5-13-15.828-7.914-48.105 10.553-61 17-2.702 1.35-17.5 10.302-17.5 14ZM332 97h1c0-2.124 1-4.436 1-6-.137 0-13.009-12.254-16.5-14-12.73-6.365-47.622-24.689-63-17-4.511 2.255-17.5 5.136-17.5 13 0 1.54 1.342 3 3 3 3.318 0 5.265-5.383 8.5-7l9-3c4.247-2.124 15.637.318 19 2 7.268 3.634 16.721 3.36 24 7 5.862 2.931 11.045 7.023 17 10 2.653 1.326 14.5 8.295 14.5 12Z"/><path fill="#1E9D58" id="MOs2/3" d="M124 97c1.274 0 0 7.277 0 8.5 0 3.118 2 8.513 2 12.5l3.5-5c5.531-2.765 13.734-15.867 22-20 8.33-4.165 38.183-21.909 48-17 2.57 1.285 5.39 1.695 8 3l3.5 3c0-1.661 3.008-5 5-5v-1l-9.5-8c-5.283-2.642-20.304-3.848-26-1-6.767 3.384-14.178 4.589-21 8h-4c-5.466 2.733-10.548 6.274-16 9L124 96v1ZM332 97c0 3.359 1 6.282 1 9.5 0 1.045-2 7.57-2 11.5l-14-15.5c-10.017-10.017-23.598-15.55-35.5-21.5-6.063-3.032-18.957-7.522-26-4-1.808.904-9.5 2.198-9.5 5h-1c0-1.26-3.346-5-5-5v-1c3.318 0 5.265-5.383 8.5-7l9-3c4.247-2.124 15.637.318 19 2 7.268 3.634 16.721 3.36 24 7 5.862 2.931 11.045 7.023 17 10 2.653 1.326 14.5 8.295 14.5 12Z"/><path fill="#3EA665" id="ACAd1" d="M222 93h13c0-3.17 2.611-16 5-16v-1c-1.658 0-3-1.46-3-3-1.4 0-6.198 8.896-7 10.5l-1.5 4.5c-1.816 0-1.117-2.734-1.5-3.5-.996-1.992-5.645-11.5-8-11.5 0 1.54-1.342 3-3 3v1c2.16 0 6 13.183 6 16Z"/><path fill="#1F9D58" id="MOs5" d="m143 141-15 10-3-9.5V119l1-1 3.5-5c5.531-2.765 13.734-15.867 22-20 8.33-4.165 38.183-21.909 48-17 2.57 1.285 5.39 1.695 8 3l3.5 3v1c-2.672 0-17 17.157-17 19-2.231 0-6.728-2.386-9.5-1-17.469 8.735-41.5 14.69-41.5 39v1ZM313 141c6.22 0 9.391 10 16 10 0-3.108.737-4.973 2-7.5.562-1.124 0-19.417 0-23.5v-2l-14-15.5c-10.017-10.017-23.598-15.55-35.5-21.5-6.063-3.032-18.957-7.522-26-4-1.808.904-9.5 2.198-9.5 5 0 2.43 16 14.568 16 20h1c0-1.643 3.765-1 5-1 3.96 0 10.085 1.293 13.5 3 7.097 3.548 25.831 14.161 29.5 21.5 2.022 4.045 2 9.617 2 14.5v1Z"/><path fill="#40A565" id="ACAd2/3" d="m222 93-6 1c-1.915 0-1.395-11-5-11v-1c0-1.661 3.008-5 5-5 2.16 0 6 13.183 6 16ZM235 93c2.483 0 4.026 2 6 2 0-5.007 4-8.705 4-13 0-1.26-3.346-5-5-5-2.389 0-5 12.83-5 16Z"/><path fill="#3EA566" id="ACAd5" d="M259 104h1l2-2c0-5.432-16-17.57-16-20h-1c0 4.295-4 7.993-4 13 5.896 0 13.408 9 18 9ZM197 104h1c0-1.269 15.37-9 18-9v-1c-1.915 0-1.395-11-5-11-2.672 0-17 17.157-17 19l3 2Z"/><path fill="#1E9D5A" id="MOp1" d="M108 163c-2.424 0-2.76 2-4 2-1.951 0-.477-2.454-1-3.5-2.765-5.53-4-11.291-4-18 0-17.081 2.539-21.078 10-36l6-7c1.009-2.019 4.908-9.5 8-9.5 0 1.234-.643 5 1 5v1c-2.514 0-8.886 11.272-10 13.5-3.244 6.488-15.309 25.382-11 34 1.108 2.215 5 15.475 5 17.5v1ZM349 162c0 .966 2.886 3 4 3 0-7.239 8.915-24.67 5-32.5-1.666-3.333-1.358-7.716-3-11-3.325-6.651-8.624-12.247-12-19-1.222-2.443-6.744-11.5-9-11.5 0 1.564-1 3.876-1 6l6 7.5c3.607 7.214 8.428 13.855 12 21 6.412 12.824-2 25.493-2 36.5Z"/><path fill="#2FA750" id="PL1" d="M223 131h10c0-12.138 2-25.836 2-38h-13c0 12.509 1 25.041 1 38Z"/><path fill="#2FA74F" id="PL2/3" d="M219 131h4c0-12.959-1-25.491-1-38l-6 1v1l3 36ZM233 131h4c0-11.896 4-24.14 4-36-1.974 0-3.517-2-6-2 0 12.164-2 25.862-2 38Z"/><path fill="#2EA84F" id="PL5" d="m212 130 7 1-3-36c-2.63 0-18 7.731-18 9l3 6.5c.951 1.902 2 12.992 2 15.5v1c3.391 0 5.353 3 9 3ZM245 130l-8 1c0-11.896 4-24.14 4-36 5.896 0 13.408 9 18 9l-4 7.5c-.427.854-2 13.408-2 14.5v1l-8 3Z"/><path fill="#1F9C58" id="MOp2/3" d="m119 155-11 7c0-2.025-3.892-15.285-5-17.5-4.309-8.618 7.756-27.512 11-34 1.114-2.228 7.486-13.5 10-13.5 1.274 0 0 7.277 0 8.5 0 3.118 2 8.513 2 12.5l-1 1v2c-2.621 0-3.179 6.858-4 8.5-4.116 8.232-2 16.42-2 25.5ZM348 162h1c0-11.007 8.412-23.676 2-36.5-3.572-7.145-8.393-13.786-12-21l-6-7.5h-1c0 3.359 1 6.282 1 9.5 0 1.045-2 7.57-2 11.5v2c3.135 0 3.104 6.709 4 8.5 4.297 8.593 2 17.105 2 26.5v1c2.052 0 11 4.914 11 6Z"/><path fill="#1D9C5A" id="MOs6a" d="M161 133c0-1.22-3.492-1.504-4.5-1-3.335 1.667-9.882 8-13.5 8 0-24.31 24.031-30.265 41.5-39 2.772-1.386 7.269 1 9.5 1l-2 3c-1.782 0-7 6.482-7 8-8.556 0-19 4.756-19 13 0 1.294-3.609 7-5 7ZM295 132c9.058 0 13.991 8 18 8 0-4.883.022-10.455-2-14.5-3.669-7.339-22.403-17.952-29.5-21.5-3.415-1.707-9.54-3-13.5-3-1.235 0-5-.643-5 1l1 3c2.628 0 7 5.484 7 8 5.573 0 9.934 1.717 14.5 4 1.429.715 8.473 9 4.5 9l5 6Z"/><path fill="#3FA664" id="ACAd6a" d="m197 104-5 1 2-3 3 2ZM260 104l4 1-1-3h-1l-2 2Z"/><path fill="#2FA850" id="PL6a" d="M189 118c4.995 0 8.742 8 14 8 0-2.508-1.049-13.598-2-15.5l-3-6.5h-1l-5 1c-1.782 0-7 6.482-7 8l4 5ZM267 118c-4.994 0-8.542 8-14 8 0-1.092 1.573-13.646 2-14.5l4-7.5h1l4 1c2.628 0 7 5.484 7 8l-3 4-1 1Z"/><path fill="#268E44" id="FRP6a" d="m181 119-15 7c0-8.244 10.444-13 19-13l4 5-1 1-6-1-1 1ZM275 119c5.642 0 9.817 7 15 7 3.973 0-3.071-8.285-4.5-9-4.566-2.283-8.927-4-14.5-4l-3 4-1 1 1 1c.969 0 7-2.614 7 0Z"/><path fill="#22885E" id="ORBm6a" d="m268 117-1 1 1-1Z"/><path fill="#1E9D58" id="MOs2/3" d="m126 118-1 1 1-1Z"/><path fill="#24895D" id="ORBl6a" d="m182 118-1 1 1-1Z"/><path fill="#238A5C" id="ORBvl6a" d="M179 136c7.24 0 12.415 3 20 3l-11-20-6-1-1 1c0 6.229-2 10.664-2 17Z"/><path fill="#22885E" id="ORBm6a" d="M203 127c0 4.927 3.498 12-4 12l-11-20 1-1c4.995 0 8.742 8 14 8v1ZM257 139h1l10-20-1-1c-4.994 0-8.542 8-14 8v1c0 4.508-1.901 12 4 12Z"/><path fill="#238A5C" id="ORBvl6a" d="M277 136c-6.791 0-11.911 3-19 3l10-20c.969 0 7-2.614 7 0 0 5.257 2 12.145 2 17Z"/><path fill="#24895D" id="ORBl6a" d="M179 137c-11.434 0-18.09 16-26 16 0-7.237 8-13.161 8-20 1.391 0 5-5.706 5-7l15-7c0 6.229-2 10.664-2 17v1ZM277 136c10.806 0 18.721 17 27 17 0-7.219-9-13.9-9-21l-5-6c-5.183 0-9.358-7-15-7 0 5.257 2 12.145 2 17Z"/><path fill="#1E9C5A" id="MOp5" d="m329 151 8 4c0-9.395 2.297-17.907-2-26.5-.896-1.791-.865-8.5-4-8.5 0 4.083.562 22.376 0 23.5-1.263 2.527-2 4.392-2 7.5ZM119 155h1l8-4-3-9.5V121c-2.621 0-3.179 6.858-4 8.5-4.116 8.232-2 16.42-2 25.5Z"/><path fill="#23885E" id="ORBm5" d="M220 141c0 5.902.559 28-7 28 0-7.194-14-23.693-14-30 7.498 0 4-7.073 4-12 3.391 0 5.353 3 9 3 0 2.414 6.328 11 8 11ZM243 169h1c0-10.727 13-19.719 13-30-5.901 0-4-7.492-4-12l-8 3c0 2.172-5.677 9-8 9v2c0 6.779-2.496 28 6 28Z"/><path fill="#59B262" id="ILA5" d="m219 131 1 10c-1.672 0-8-8.586-8-11l7 1ZM237 131v8c2.323 0 8-6.828 8-9l-8 1Z"/><path fill="#59B362" id="ILA2/3" d="M220 141c1.24 0 1.576 2 4 2l-1-12h-4l1 10Z"/><path fill="#59B263" id="ILA1" d="M233 143c-2.389 0-5.987 1-9 1v-1l-1-12h10v12Z"/><path fill="#59B362" id="ILA2/3" d="m237 141-4 2v-12h4v10Z"/><path fill="#209666" id="AId6a" d="M152 153h1c0-7.237 8-13.161 8-20 0-1.22-3.492-1.504-4.5-1-3.335 1.667-9.882 8-13.5 8v1c0 6.167 2.079 12 9 12ZM304 153h1c6.704 0 8-6.282 8-12v-1c-4.009 0-8.942-8-18-8 0 7.1 9 13.781 9 21Z"/><path fill="#23885C" id="ORBvl5" d="M186 154c8.345 0 17.275 15 27 15 0-7.194-14-23.693-14-30-7.585 0-12.76-3-20-3v1c0 6.431 6 11.346 6 17h1ZM270 155c-9.845 0-16.043 14-26 14 0-10.727 13-19.719 13-30h1c7.089 0 12.209-3 19-3 0 8.729-6 13.822-6 18l-1 1Z"/><path fill="#228A5D" id="ORBl5" d="M305 155c0 4.736 7 15.257 7 24l-9.5-7c-9.894-4.947-18.917-18-31.5-18 0-4.178 6-9.271 6-18 10.806 0 18.721 17 27 17h1v2ZM149 159c0 6.938-5 12.263-5 20 3.274 0 5.711-4.605 8.5-6 10.481-5.24 20.07-19 32.5-19 0-5.654-6-10.569-6-17-11.434 0-18.09 16-26 16h-1l-1 3-1 1-1 2Z"/><path fill="#209665" id="AId5" d="M149 159c-2.512 0-12.18 21-16 21-5.678 0-13-19.798-13-25l8-4 15-10c0 6.167 2.079 12 9 12l-1 3-1 1-1 2Z"/><path fill="#24885D" id="ORBm2/3" d="M216 181h1c0-2.223 4.626-7.753 6-10.5 3.785-7.57 1-18.463 1-26.5v-1c-2.424 0-2.76-2-4-2 0 5.902.559 28-7 28 0 4.261 3 7.314 3 12ZM239 181h1l3-12c-8.496 0-6-21.221-6-28l-4 2c0 7.303-3.543 19.414 0 26.5l6 11.5Z"/><path fill="#209665" id="AId5" d="M323 181h1c0-.576 13-18.139 13-25v-1l-8-4c-6.609 0-9.78-10-16-10 0 5.718-1.296 12-8 12v2l4.5 6c1.625 1.625 13.5 19.834 13.5 20Z"/><path fill="#23895D" id="ORBm1" d="M217 181h9.5l2-4 2 4h8.5l-6-11.5c-3.543-7.086 0-19.197 0-26.5-2.389 0-5.987 1-9 1 0 8.037 2.785 18.93-1 26.5-1.374 2.747-6 8.277-6 10.5Z"/><path fill="#238A5E" id="ORBl2/3" d="M146 185h1c0-3.576 6.897-4.295 8-6.5 3.854-7.707 18.325-10.913 25.5-14.5 2.657-1.329 6.408 3 8.5 3 0-5.603-3-6.958-3-13h-1c-12.43 0-22.019 13.76-32.5 19-2.789 1.395-5.226 6-8.5 6v1c1.014 0 2 3.959 2 5Z"/><path fill="#248A5D" id="ORBvl2/3" d="M215 181h1c0-4.686-3-7.739-3-12-9.725 0-18.655-15-27-15 0 6.042 3 7.397 3 13v1c1.477 0 3 3.924 3 5l13.5 6c1.324.662 8.5.353 8.5 2h1ZM271 154l-1 1 1-1Z"/><path fill="#238A5E" id="ORBl2/3" d="M309 185h1l2-5v-1l-9.5-7c-9.894-4.947-18.917-18-31.5-18l-1 1-3 12c2.842 0 6.233-4.633 9.5-3 5.062 2.531 32.5 15.384 32.5 21Z"/><path fill="#209765" id="AId2/3" d="M123 189h2c0-1.158 6.162-8 8-8v-1c-5.678 0-13-19.798-13-25h-1l-11 7v1c1.325 0 2.43 5.361 3 6.5 2.196 4.392 12 15.43 12 19.5Z"/><path fill="#248A5D" id="ORBvl2/3" d="M242 181h1c0-1.043 5.353-2 6.5-2 2.018 0 15.5-6.108 15.5-7 0-1.238.423-3 2-3v-2l3-12c-9.845 0-16.043 14-26 14h-1l-3 12h2Z"/><path fill="#1F9865" id="AIv5" d="M312 180c1.869 0 11 5.246 11 1 0-.166-11.875-18.375-13.5-20l-4.5-6c0 4.736 7 15.257 7 24v1ZM151 156l-1 1 1-1Z"/><path fill="#209765" id="AId2/3" d="M332 189h1c0-5.97 15-18.477 15-27 0-1.086-8.948-6-11-6 0 6.861-13 24.424-13 25l8 8Z"/><path fill="#1F9865" id="AIv5" d="m150 157-1 2 1-2ZM144 180l-7.5 3-3.5-2v-1c3.82 0 13.488-21 16-21 0 6.938-5 12.263-5 20v1Z"/><path fill="#209764" id="AId1" d="m333 189 4 3c2.243 0 16-24.533 16-27-1.114 0-4-2.034-4-3h-1c0 8.523-15 21.03-15 27ZM123 189l-4 3c-2.048 0-15-23.797-15-27 1.24 0 1.576-2 4-2 1.325 0 2.43 5.361 3 6.5 2.196 4.392 12 15.43 12 19.5Z"/><path fill="#238A5D" id="ORBl1" d="M147 185c0 1.747.253 2 2 2 4.655 0 11.409-9.455 16.5-12 4.401-2.2 15.117-8.941 21-6l2.5 2v-4c-2.092 0-5.843-4.329-8.5-3-7.175 3.587-21.646 6.793-25.5 14.5-1.103 2.205-8 2.924-8 6.5ZM309 185l-1 2c-3.211 0-15.563-11.532-20.5-14-3.628-1.814-13.137-6.431-18-4-1.445.723-.091 2-2.5 2v-4c2.842 0 6.233-4.633 9.5-3 5.062 2.531 32.5 15.384 32.5 21Z"/><path fill="#248A5B" id="ORBvl1" d="m189 171 3 2c0-1.076-1.523-5-3-5v3Z"/><path fill="#99D2BD" id="OLF" d="M139 217c3.804 0 6.885 4 10 4l-1-5.5 5-3c2.949-5.899 15.261-21.88 22.5-25.5 5.103-2.552 10.976-3.488 16-6 4.733-2.366 13.965 7 16.5 7 0-5.285-.676-7 6-7 0-1.647-7.176-1.338-8.5-2l-13.5-6-3-2-2.5-2c-5.883-2.941-16.599 3.8-21 6-5.091 2.545-11.845 12-16.5 12l-8 7c2.341 0 1.421 2.342 2 3.5 3.119 6.238-4 13.5-4 19.5Z"/><path fill="#248A5B" id="ORBvl1" d="m267 171-2 1c0-1.238.423-3 2-3v2Z"/><path fill="#99D2BD" id="OLF" d="M318 217c-4.046 0-7.722 4-11 4l2-5.5-6-3c-5.76-11.52-18.09-23.795-29.5-29.5-2.7-1.35-6.263-.631-9-2-4.479-2.24-11.827 6-15.5 6 0-5.173-.827-6-6-6 0-1.043 5.353-2 6.5-2 2.018 0 15.5-6.108 15.5-7l2-1c2.409 0 1.055-1.277 2.5-2 4.863-2.431 14.372 2.186 18 4 4.937 2.468 17.289 14 20.5 14l8 7c-5.792 0-2.428 15.645-1 18.5l3 4.5ZM228 212h1c0-7.938-1.326-18.848 2-25.5 1.278-2.555 11-4.344 11-5.5h-11.5l-2-4-2 4H215c0 1.484 8.77 3.04 10 5.5 3.298 6.596 3 17.72 3 25.5Z"/><path fill="#219764" id="AIv2/3" d="m146 185-4.5 4c-2.71 1.355-16.5 8.984-16.5 0 0-1.158 6.162-8 8-8l3.5 2 7.5-3c1.014 0 2 3.959 2 5ZM310 185l3.5 3c2.043 1.022 18.5 10.909 18.5 1l-8-8h-1c0 4.246-9.131-1-11-1l-2 5Z"/><path fill="#54BF94" id="AON" fill-rule="evenodd" d="M267 194c0 5.383-1 11.809-1 18l.5 6c3.104 1.552 5.579-3.659 6.5-5.5 4.195-8.39 6.537-18.5-6-18.5m-79 0c0 2.012-6.773.046-8 2.5-1.988 3.976 5.269 23.615 9.5 21.5 4.773-2.386-.5-13.813-.5-17l2-5.5-3-1.5m3 62 2-4.5c7.776-15.552 6.946-14.723 22.5-22.5 4.785-2.392 9.34 3 13 3 3.312 0 7.326-5.337 12-3 10.477 5.238 24.5 12.922 24.5 27 3.054 0 18-8.565 18-11 0-5.25 20-18.36 20-21l1-1 3-2 2-5.5-6-3c-5.76-11.52-18.09-23.795-29.5-29.5-2.7-1.35-6.263-.631-9-2-4.479-2.24-11.827 6-15.5 6 0 1.8-7.673 20.847-9 23.5-1.798 3.597-11 6.226-11 1.5h-1c0 4.233-9.607 2.286-11-.5l-9-23.5c-2.535 0-11.767-9.366-16.5-7-5.024 2.512-10.897 3.448-16 6-7.239 3.62-19.551 19.601-22.5 25.5l-5 3 1 5.5c2.976 0 24 20.535 24 24 0 3.322 11.189 6.845 13.5 8l4.5 3Z"/><path fill="#61D09F" id="TTd" d="m208 188 9 23.5c1.393 2.786 11 4.733 11 .5 0-7.78.298-18.904-3-25.5-1.23-2.46-10-4.016-10-5.5h-1c-6.676 0-6 1.715-6 7ZM249 187c0 1.8-7.673 20.847-9 23.5-1.798 3.597-11 6.226-11 1.5 0-7.938-1.326-18.848 2-25.5 1.278-2.555 11-4.344 11-5.5h1c5.173 0 6 .827 6 6Z"/><path fill="#209864" id="AIv1" d="M141 194c-3.63 0-5.841 5-10 5-3.642 0-12-.208-12-7l4-3h2c0 8.984 13.79 1.355 16.5 0l4.5-4h1c0 1.747.253 2 2 2l-8 7ZM316 194c3.318 0 4.802 5 9 5 4.083 0 12 .27 12-7l-4-3h-1c0 9.909-16.457.022-18.5-1l-3.5-3h-1l-1 2 8 7Z"/><path fill="#6ACAB9" id="PIR" d="M137 217h2c0-6 7.119-13.262 4-19.5-.579-1.158.341-3.5-2-3.5-3.63 0-5.841 5-10 5 0 3.855-3.244 18 5 18h1Z"/><path fill="#CBCBC7" id="aco" d="M188 194c0 2.012-6.773.046-8 2.5-1.988 3.976 5.269 23.615 9.5 21.5 4.773-2.386-.5-13.813-.5-17l2-5.5-3-1.5ZM267 194c0 5.383-1 11.809-1 18l.5 6c3.104 1.552 5.579-3.659 6.5-5.5 4.195-8.39 6.537-18.5-6-18.5Z"/><path fill="#6ACAB9" id="PIR" d="M319 217h2l2-2.5c5.077-10.155 2-5.609 2-15.5-4.198 0-5.682-5-9-5-5.792 0-2.428 15.645-1 18.5l3 4.5h1Z"/><path fill="#99D2BD" id="OLF" d="M137 217v2l-1-2h1Z"/><path fill="#CAC8C7" id="lot" d="M149 221c2.976 0 24 20.535 24 24-10.75 0-18.654-13.577-27.5-18-3.336-1.668-8.5-3.691-8.5-8v-2h2c3.804 0 6.885 4 10 4ZM303 224c0 2.64-20 15.75-20 21 11.101 0 18.237-13.369 27.5-18 4.211-2.105 9.5-3.449 9.5-9l-1-1h-1c-4.046 0-7.722 4-11 4l-3 2-1 1Z"/><path fill="#99D2BD" id="OLF" d="m321 217-1 1-1-1h2ZM304 223l-1 1 1-1Z"/><path fill="#62CF9E" id="TTv" d="M191 256c0 2.554 17.573 6.964 21.5 5 6.116-3.058 10.917-12.335 13.5-17.5l2.5-6.5 1.5 5.5c2.279 4.558 6.227 13.863 11.5 16.5l6 3c2.568 1.284 17.5-5.064 17.5-6 0-14.078-14.023-21.762-24.5-27-4.674-2.337-8.688 3-12 3-3.66 0-8.215-5.392-13-3-15.554 7.777-14.724 6.948-22.5 22.5l-2 4.5Z"/></svg>