<svg xmlns="http://www.w3.org/2000/svg" viewBox="0 0 456 320"><path fill="#1E9C59" id="MOs1" d="m149 68 5.5-3c9.964-4.982 39.177-14.411 50-9 3.579 1.79 14.5 6.493 14.5 12l4-3c0-4.312-8.349-10.425-11.5-12-13.824-6.912-34.724-4.638-48 2L148 62l1 6ZM238 68c0-7.507 13.688-13 20-13 10.592 0 23.713 1.106 33.5 6 3.023 1.512 13.705 7 16.5 7v-6c0-1.183-3.57-1.535-4.5-2-3.888-1.944-8.168-3.084-12-5-13.315-6.657-33.043-8.978-47-2-3.236 1.618-10.5 8.145-10.5 12l3 3h1Z"/><path fill="#1E9D58" id="MOs2/3" d="M213 72c-2.148 0-14.676-10.912-22.5-7-9.778 4.89-20.152 9.076-30 14-3.165 1.583-6.845 6-10.5 6 0-4.919-1-11.413-1-17l5.5-3c9.964-4.982 39.177-14.411 50-9 3.579 1.79 14.5 6.493 14.5 12v1l-6 3ZM243 72c1.548 0 15.76-10.87 23.5-7 8.48 4.24 17.513 7.757 26 12 4.587 2.294 9.097 8 14.5 8 0-6.46 1-10.871 1-16v-1c-2.795 0-13.477-5.488-16.5-7-9.787-4.894-22.908-6-33.5-6-6.312 0-20 5.493-20 13 0 1.533 3.753 4 5 4Z"/><path fill="#1E9D5A" id="MOp1" d="M89 113c0 1.321-.684 6 1 6 1.04 0 12.013-15.526 13-17.5 4.864-9.729 26.001-22.75 35.5-27.5l10.5-6-1-6-10.5 6c-10.79 5.395-33.368 20.236-38.5 30.5-2.358 4.716-10 9.001-10 14.5ZM368 113c0 1.463-.925 7-1 7-.717 0-11.083-14.666-12-16.5-4.931-9.861-24.021-22.26-32.5-26.5-4.489-2.245-9.238-8-14.5-8v-7c5.162 0 10.984 6.742 15.5 9 9.996 4.998 30.104 18.709 35.5 29.5 1.981 3.962 9 7.933 9 12.5Z"/><path fill="#1F9D58" id="MOs5" d="m196 90-6.5-1c-9.074 4.537-18.944 7.472-28 12l-10.5 6c0-6.841-2-14.346-2-21l1-1c3.655 0 7.335-4.417 10.5-6 9.848-4.924 20.222-9.11 30-14 7.824-3.912 20.352 7 22.5 7v1c-1.026 0-17 14.52-17 17Z"/><path fill="#3EA665" id="ACAd1" d="M222 97h12l-1-20.5 4-8.5-3-3-5.5 8-2.5-3.5-1-2-2-2.5-4 3v1c6.718 0 3 24.184 3 28Z"/><path fill="#1F9D58" id="MOs5" d="M306 107h1V85c-5.403 0-9.913-5.706-14.5-8-8.487-4.243-17.52-7.76-26-12-7.74-3.87-21.952 7-23.5 7v1c4.767 0 15.338 17 18 17 1.606 0 4.339-2.08 6.5-1 7.513 3.756 15.535 6.267 23 10 3.983 1.992 11.11 8 15.5 8Z"/><path fill="#1F9C58" id="MOp2/3" d="m100 171-5 1c0-2.221-1.647-15-4-15 0-6.79-1-13.728-1-19.5l2-3-2-1 2-4c0-.784-2.632-7.5-3-7.5v-1l1-1v-1c1.04 0 12.013-15.526 13-17.5 4.864-9.729 26.001-22.75 35.5-27.5l10.5-6c0 5.587 1 12.081 1 17l-1 1c-5.333 0-11.774 8.637-16.5 11-4.911 2.455-11.941 8.383-14.5 13.5-3.465 6.93-9.57 12.141-13 19-5.657 11.313-5 26.911-5 40.5v1Z"/><path fill="#40A565" id="ACAd2/3" d="M234 97c2.124 0 4.436 1 6 1V79.5l3-6.5v-1c-1.247 0-5-2.467-5-4h-1l-4 8.5 1 20.5ZM217 97h5c0-3.816 3.718-28-3-28l-6 3v1c4.045 0 4 19.707 4 24Z"/><path fill="#1F9C58" id="MOp2/3" d="m357 171 4 1c0-3.278 1.585-7.67 3-10.5.574-1.147-1.064-4.5 1-4.5 0-8.27 2.922-20.656 0-26.5-1.052-2.104 2-2.67 2-4 0-1.601-3.196-4.5 0-4.5v-2c-.717 0-11.083-14.666-12-16.5-4.931-9.861-24.021-22.26-32.5-26.5-4.489-2.245-9.238-8-14.5-8 0 5.129-1 9.54-1 16v1c6.919 0 13.488 9.994 19.5 13 5.238 2.619 10.802 8.103 13.5 13.5 2.922 5.845 8.103 10.206 11 16 5.831 11.662 6 28.571 6 42.5Z"/><path fill="#3EA566" id="ACAd5" d="M217 98c-5.725 0-13.375 5-16 5 0-2.445-1.278-12-5-12v-1c0-2.48 15.974-17 17-17 4.045 0 4 19.707 4 24v1ZM240 98c5.982 0 10.913 5 16 5 0-3.797-.143-12 5-12v-1c-2.662 0-13.233-17-18-17l-3 6.5V98Z"/><path fill="#1E9D58" id="MOs2/3" d="m150 85-1 1 1-1Z"/><path fill="#1E9C5A" id="MOp5" d="M122 161c-5.884 0-14.806 9-22 9 0-13.589-.657-29.187 5-40.5 3.43-6.859 9.535-12.07 13-19 2.559-5.117 9.589-11.045 14.5-13.5 4.726-2.363 11.167-11 16.5-11 0 6.654 2 14.159 2 21h-1l-9.5 7c-12.178 6.089-14.009 18.519-19.5 29.5-2.113 4.226 1 12.65 1 16.5v1ZM335 161c3.666 0 16.805 10 22 10 0-13.929-.169-30.838-6-42.5-2.897-5.794-8.078-10.155-11-16-2.698-5.397-8.262-10.881-13.5-13.5-6.012-3.006-12.581-13-19.5-13v21l18 14.5c8.791 17.582 10 18.158 10 39.5Z"/><path fill="#1D9C5A" id="MOs6a" d="m155 142-12 6c-2.363 0-.342-2.815 0-3.5v-5c1.232-2.465 2.751-4.502 4-7 3.612-7.223 3-17.074 3-25.5h1l10.5-6c9.056-4.528 18.926-7.463 28-12l6.5 1v1c-2.381 0-13 22.879-13 27-.785 0-6-1.478-6 1-1.623 0-6 .005-6 2-3.157 0-8 5.17-8 8-2.852 0-7 9.233-7 12l-1 1ZM301 142c4.857 0 8.603 7 13 7 0-3.902-2-10.022-2-13.5 0-2.183-5-6.158-5-9 0-5.884-1-13.016-1-19.5-4.39 0-11.517-6.008-15.5-8-7.465-3.733-15.487-6.244-23-10-2.161-1.08-4.894 1-6.5 1v1l4 6.5c2.742 5.483 9 14.261 9 20.5 10.374 0 26 10.097 26 23l1 1Z"/><path fill="#3FA664" id="ACAd6a" d="M184 119h1c0-4.488 11.525-16 16-16 0-2.445-1.278-12-5-12-2.381 0-13 22.879-13 27l1 1ZM272 119h1l1-1c0-6.239-6.258-15.017-9-20.5l-4-6.5c-5.143 0-5 8.203-5 12 2.545 0 16 13.085 16 16Z"/><path fill="#2FA74F" id="PL2/3" d="M218 133h5c0-11.282-1-24.058-1-36h-5v1c0 11.573 1 24.1 1 35Z"/><path fill="#2FA750" id="PL1" d="M223 133h11V97h-12c0 11.942 1 24.718 1 36Z"/><path fill="#2FA74F" id="PL2/3" d="M234 133h4c0-11.3 2-23.054 2-35-1.564 0-3.876-1-6-1v36Z"/><path fill="#2EA84F" id="PL5" d="M204 135h1c3.842 0 9.009-2 13-2 0-10.9-1-23.427-1-35-5.725 0-13.375 5-16 5 0 11.549 3 21.108 3 32ZM238 133l14 2c0-10.215 4-21.371 4-32-5.087 0-10.018-5-16-5 0 11.946-2 23.7-2 35Z"/><path fill="#2FA850" id="PL6a" d="m204 135-10 1c0-5.95-9-13.448-9-17 0-4.488 11.525-16 16-16 0 11.549 3 21.108 3 32ZM262 136h1c0-1.424.362-5 2-5 0-1.937 1.553-8 4-8 0-1.747.253-2 2-2l1-2c0-2.915-13.455-16-16-16 0 10.629-4 21.785-4 32 4.283 0 6.715 1 10 1Z"/><path fill="#1F9B5A" id="MOp6a" d="m143 148-5.5 3c-4.312 2.156-10.631 9-15.5 9 0-3.85-3.113-12.274-1-16.5 5.491-10.981 7.322-23.411 19.5-29.5l9.5-7c0 8.426.612 18.277-3 25.5-1.249 2.498-2.768 4.535-4 7v5c-.342.685-2.363 3.5 0 3.5ZM314 149c5.927 0 16.309 12 21 12 0-21.342-1.209-21.918-10-39.5L307 107h-1c0 6.484 1 13.616 1 19.5 0 2.842 5 6.817 5 9 0 3.478 2 9.598 2 13.5Z"/><path fill="#187E61" id="SSp-m1" d="m84 159-5 1c0-14.127-1.207-26.087 5-38.5.827-1.655 2.559-8.5 5-8.5 0 1.321-.684 6 1 6v1l-1 1v1l-4 9.5c-3.13 6.261-1 19.864-1 26.5v1ZM373 159l4 1c0-13.226 1.895-24.711-4-36.5-.828-1.655-3.094-10.5-5-10.5 0 1.463-.925 7-1 7v2l4 7.5c3.146 6.293 2 20.616 2 28.5v1Z"/><path fill="#1E9C58" id="MOs6b" d="M177 119h6v-1c-.785 0-6-1.478-6 1ZM298 140l2 1c0-12.903-15.626-23-26-23v1c2.386 0 12 1.255 12 4 4.647 0 9.329 10.158 11 13.5.523 1.046-.951 3.5 1 3.5Z"/><path fill="#3FA466" id="ACAd6b" d="M184 119v1l-1-1v-1l1 1ZM273 119h1v-1l-1 1Z"/><path fill="#1E9C58" id="MOs6b" d="M177 119c-1.623 0-6 .005-6 2 1.623 0 6-.005 6-2Z"/><path fill="#CACCC7" id="cing" d="m193 136 1 7c-.71 0-4.299-10.099-5-11.5-3.352-6.704-9.055-6.5-16-6.5l-3-2 1-2c1.623 0 6-.005 6-2h6l1 1 6 8.5c.636 1.272 1.45 7.5 3 7.5Z"/><path fill="#2FA84F" id="PL6b" d="M193 136h1c0-5.95-9-13.448-9-17h-1v1l6 8.5c.636 1.272 1.45 7.5 3 7.5ZM273 119l-2 2 1-2h1Z"/><path fill="#CACCC7" id="cing" d="M265 131v4l7.5-9c3.188-1.594 7.681-1 11.5-1l2-2c0-2.745-9.614-4-12-4h-1l-2 2-2 2-4 8Z"/><path fill="#1E9D5A" id="MOp1" d="m90 120-1 1 1-1Z"/><path fill="#1E9C58" id="MOs6b" d="m170 123-7 6c0-2.83 4.843-8 8-8l-1 2Z"/><path fill="#2FA84F" id="PL6b" d="M271 121c-1.747 0-2 .253-2 2l2-2Z"/><path fill="#1A7E64" id="SSp-m2/3" d="m91 157-7 1c0-6.636-2.13-20.239 1-26.5l4-9.5c.368 0 3 6.716 3 7.5l-2 4 2 1-2 3c0 5.772 1 12.71 1 19.5ZM365 157l8 1c0-7.884 1.146-22.207-2-28.5l-4-7.5c-3.196 0 0 2.899 0 4.5 0 1.33-3.052 1.896-2 4 2.922 5.844 0 18.23 0 26.5Z"/><path fill="#C9C9CA" id="scwm" d="M159 148c3.153 0 1.753 7 4 7 0-12.882.731-12.961 6-23.5.735-1.47 1.53-6.5 4-6.5l-3-2-7 6c0 4.082-4 6.651-4 11v8Z"/><path fill="#2FA84F" id="PL6b" d="M269 123c-2.447 0-4 6.063-4 8l4-8Z"/><path fill="#C9C9CA" id="scwm" d="M297 148c0 .835-2.929 8-4 8 0-5.267 1.224-13.052-1-17.5l-8-13.5 2-2c4.647 0 9.329 10.158 11 13.5.523 1.046-.951 3.5 1 3.5 0 2.707-1 5.903-1 8Z"/><path fill="#CAC7CC" id="fa" d="m186 165-1 3c0 1.974 2 3.517 2 6l.5 11c1.064 0 1.5-4.049 1.5-5 0-4.222 3.173-9.847 5-13.5.663-1.326 1.002-6.5 3-6.5v-3l-1-2v-1c-1.473 0-1-1.952-1-3v-5l-1-1v-2c-.71 0-4.299-10.099-5-11.5-3.352-6.704-9.055-6.5-16-6.5-2.47 0-3.265 5.03-4 6.5-5.269 10.539-6 10.618-6 23.5 0 5.75 23 .269 23 10ZM271 165v3c0 3.157-2 5.481-2 9l-.5 7c-2.208 0-.922-6.345-1.5-7.5-2.221-4.441-7-12.513-7-17.5v-3c1.473 0 1-1.952 1-3v-4c1.473 0 1-1.952 1-3v-2c1.473 0 1-1.952 1-3v-1c1.638 0 2-3.576 2-5l7.5-9c3.188-1.594 7.681-1 11.5-1l8 13.5c2.224 4.448 1 12.233 1 17.5 0 1.951-2.454.477-3.5 1-3.702 1.851-8.585.292-10 1-2.21 1.105-4.932.966-7 2-1.081.541-3.797 5-1.5 5Z"/><path fill="#1E9C58" id="MOs6b" d="m159 140-3 1c0-2.767 4.148-12 7-12 0 4.082-4 6.651-4 11Z"/><path fill="#2FA84F" id="PL6b" d="M263 136h1l1-1v-4c-1.638 0-2 3.576-2 5Z"/><path fill="#59B262" id="ILA5" d="M211 163h7v-30c-3.991 0-9.158 2-13 2 0 10.667 6 20.924 6 28Z"/><path fill="#59B362" id="ILA2/3" d="M218 163h3c0-1.091 2.339-7.177 3-8.5l-1-21.5h-5v30Z"/><path fill="#59B263" id="ILA1" d="M229 163h6l-2-4.5c-3.061-6.121 1-19.495 1-25.5h-11l1 21.5c-.661 1.323-3 7.409-3 8.5h7v-9c0-4.283 1-4.283 1 0v9Z"/><path fill="#59B362" id="ILA2/3" d="M235 163h3v-30h-4c0 6.005-4.061 19.379-1 25.5l2 4.5Z"/><path fill="#59B262" id="ILA5" d="M238 163h7c0-4.388 7-19.318 7-28l-14-2v30Z"/><path fill="#58B362" id="ILA6a" d="M197 163h14c0-7.076-6-17.333-6-28h-1l-10 1c0 6.199 3 11.966 3 19v8ZM245 163h14c0-1.145-.579-4 1-4v-3c-1.251 0-1.536-4.427-1-5.5 1.827-3.655 3-10.288 3-14.5-3.285 0-5.717-1-10-1 0 8.682-7 23.612-7 28Z"/><path fill="#CACCC7" id="cing" d="m264 136-1 4c1.638 0 2-3.576 2-5l-1 1Z"/><path fill="#58B263" id="ILA6b" d="M196 155h1c0-7.034-3-12.801-3-19h-1l1 7v2l1 1v5c1.473 0 1 1.952 1 3v1ZM261 153c-1.473 0-1 1.952-1 3-1.251 0-1.536-4.427-1-5.5 1.827-3.655 3-10.288 3-14.5h2l-1 4v1c-1.473 0-1 1.952-1 3v2c-1.473 0-1 1.952-1 3v4Z"/><path fill="#1F9766" id="AId6b" d="m157 150-1 1-1-9 1-1 3-1v8l-1 1-1 1ZM299 150h1c0-2.097 1-5.293 1-8l-1-1-2-1c0 2.707-1 5.903-1 8l2 2Z"/><path fill="#CACCC7" id="cing" d="M263 141c-1.473 0-1 1.952-1 3 1.473 0 1-1.952 1-3Z"/><path fill="#209666" id="AId6a" d="M135 175h1l1-2c-4.167 0-1.475-11.013.5-12 7.608-3.804 4.064-1 11.5-1 0-1.562 2.189-5 4-5 0-1.747.253-2 2-2v-1l1-1-1-9-12 6-5.5 3c-4.312 2.156-10.631 9-15.5 9v1c0 6.49 6.198 14 13 14ZM320 175h1c6.758 0 14-7.063 14-14-4.691 0-15.073-12-21-12-4.397 0-8.143-7-13-7 0 2.707-1 5.903-1 8v1c1.694 0 8 7.539 8 9 3.505 0 4.397-3.051 8.5-1 3.652 1.826 7.52 14 2.5 14l1 2Z"/><path fill="#CACCC7" id="cing" d="m194 145 1 1-1-1ZM262 146c-1.473 0-1 1.952-1 3 1.473 0 1-1.952 1-3Z"/><path fill="#248A5C" id="ORBl6b" d="M163 155c0 5.75 23 .269 23 10l-9.5-4c-4.413-2.207-20.5.542-20.5-9v-1l1-1 1-1 1-1c3.153 0 1.753 7 4 7ZM293 156c0 1.951-2.454.477-3.5 1-3.702 1.851-8.585.292-10 1-2.21 1.105-4.932.966-7 2-1.081.541-3.797 5-1.5 5 1.881 0 6.676-3.088 8.5-4 5.073-2.536 20.5 1.403 20.5-9v-1l-1-1-2-2c0 .835-2.929 8-4 8Z"/><path fill="#219665" id="AIv6b" d="m158 149-1 1 1-1ZM300 150v1l-1-1h1Z"/><path fill="#1F9866" id="AIv6a" d="M155 152h1v-1l-1 1Z"/><path fill="#CACCC7" id="cing" d="M195 151c1.473 0 1 1.952 1 3-1.473 0-1-1.952-1-3Z"/><path fill="#1F9866" id="AIv6a" d="m308 160-2 1c0-1.955-3.574-9-6-9v-1c1.694 0 8 7.539 8 9Z"/><path fill="#24895D" id="ORBl6a" d="M157 171c3.732 0 16-3.204 16 4.5l-4 5.5c6.141 0 10.541-13 16-13l1-3-9.5-4c-4.413-2.207-20.5.542-20.5-9h-1v1l-2 2-3 6c5.216 0 7 5.586 7 10ZM300 171c-1.525 0-20.155-2.811-16 5.5l5 6.5-18-15v-3c1.881 0 6.676-3.088 8.5-4 5.073-2.536 20.5 1.403 20.5-9 2.426 0 6 7.045 6 9-6.075 0-6 6.445-6 10Z"/><path fill="#1F9866" id="AIv6a" d="M155 153c-1.747 0-2 .253-2 2l2-2Z"/><path fill="#CACCC7" id="cing" d="M261 153c-1.473 0-1 1.952-1 3 1.473 0 1-1.952 1-3Z"/><path fill="#99D2BD" id="OLF" d="M228 163c0 2.212 1 2.212 1 0v-9h-1v9Z"/><path fill="#1F9866" id="AIv6a" d="m149 160 1 1 3-6c-1.811 0-4 3.438-4 5Z"/><path fill="#CACCC7" id="cing" d="M197 155v2l-1-2h1Z"/><path fill="#009B75" id="GU2/3" d="M95 172c0 1.778-6.332 4-8 4-2.46 0-3-14.411-3-17v-1l7-1c2.353 0 4 12.779 4 15ZM361 172c0 1.127 7.824 5 9 5l3-18v-1l-8-1c-2.064 0-.426 3.353-1 4.5-1.415 2.83-3 7.222-3 10.5Z"/><path fill="#8ADA86" id="CLA" d="m141 174 7 1c3.912 0 6.049-4 9-4 0-4.414-1.784-10-7-10l-1-1c-7.436 0-3.892-2.804-11.5 1-1.975.987-4.667 12-.5 12l4 1ZM316 174l-8 1c-3.698 0-6.214-4-8-4 0-3.555-.075-10 6-10l2-1c3.505 0 4.397-3.051 8.5-1 3.652 1.826 7.52 14 2.5 14l-3 1Z"/><path fill="#009C75" id="GU1" d="m87 177-5 1-3-18 5-1c0 2.589.54 17 3 17v1Z"/><path fill="#99D2BD" id="OLF" d="m300 247-5 1c0-5.262-9.823-3-12-3 0-2.099 3.558-4.383 2-7.5-1.403-2.806-4-7.305-4-10.5 0-2.4 6.772-9.045 8-11.5 1.794-3.587-4-5.705-4-7.5l3-3.5c2.573-5.145-3.66-7.32-5-10-.603-1.205-3.165-3.5-5-3.5 0-3.463-12-5.803-12-4l-3 1-1-2.5c-4.532-9.063-6.899 3.5-10 3.5v-5l7-8.5V163c0-1.145-.579-4 1-4 0 4.987 4.779 13.059 7 17.5.578 1.155-.708 7.5 1.5 7.5l.5-7c0-3.519 2-5.843 2-9l18 15 8 6 4.5 4 17.5 10c1.238 0 3 .423 3 2l-4.5-1-4.5 6c0-4.455-2.62-4.74-4-7.5-1.187-2.373-4.031-3.266-6.5-4.5-11.728-5.864-7.419 7.338-9.5 11.5-1.02 2.041-4.964 13.072-4 15l2.5 2.5c2.529 1.265 5.075-3 7.5-3 0 4.832-10.093 8.314-7 14.5l8 8.5Z"/><path fill="#009C75" id="GU1" d="m370 177 4 1c0-5.927 3-11.335 3-18l-4-1-3 18Z"/><path fill="#99D2BD" id="OLF" d="M157 247c0 1.579 2.855 1 4 1 0-4.694 9.857-3 12-3l-1-8.5c1.419-2.837 3-6.115 3-9.5l-7-10.5c-2.289-4.578 4-6.441 4-8.5-6.357 0-3.098-15 3-15l1-1 3-1c0-1.747.253-2 2-2 0-1.94 10-3.652 10-2h2c1.829 0 1.809-5 4.5-5 3.342 0 4.445 6 6.5 6l1-5c-8.81 0-8-14.069-8-20v-3c-1.998 0-2.337 5.174-3 6.5-1.827 3.653-5 9.278-5 13.5 0 .951-.436 5-1.5 5l-.5-11c0-2.483-2-4.026-2-6-5.459 0-9.859 13-16 13l-1 1-1 1-1 1c0 1.514-5.537 5-7 5 0 1.313-18.863 13-21 13l-2 2c7.738 0 10.029 17 17 17 0-5.295-12.738-8.024-9-15.5l6.5-5.5c16.863-8.432 9.291 3.082 13.5 11.5 1.637 3.275 5.19 13.155.5 15.5-3.279 1.639-7.545-6-10.5-6 0 2.806 11 10.022 11 15.5 0 4.692-8 7.177-8 10.5Z"/><path fill="#209665" id="AId5" d="M106 197h1c0-2.155 6.965-3.233 8.5-4 3.54-1.77 19.5-14.16 19.5-18-6.802 0-13-7.51-13-14-5.884 0-14.806 9-22 9v1l1 14.5 5 11.5ZM321 175c0 5.376 23.002 21 29 21 3.543 0 7-21.099 7-25-5.195 0-18.334-10-22-10 0 6.937-7.242 14-14 14Z"/><path fill="#A3DAA3" id="DP" d="M205 183c6.551 0 41.494-3.003 45.5-1l1.5 2 7-8.5V163h-30c0 2.212-1 2.212-1 0h-31c0 5.931-.81 20 8 20Z"/><path fill="#228A5D" id="ORBl5" d="M166 184c0 1.514-5.537 5-7 5-4.801 0-11-9.255-11-14 3.912 0 6.049-4 9-4 3.732 0 16-3.204 16 4.5l-4 5.5-1 1-1 1-1 1ZM289 183l8 6c5.999 0 11-8.256 11-14-3.698 0-6.214-4-8-4-1.525 0-20.155-2.811-16 5.5l5 6.5Z"/><path fill="#209765" id="AId2/3" d="m106 197-11 3c0-6.39-8-15.128-8-23v-1c1.668 0 8-2.222 8-4l5-1 1 14.5 5 11.5ZM350 197c4.242 0 6.596 2 11 2l3-5.5c2.088-4.176 6-11.781 6-16.5-1.176 0-9-3.873-9-5l-4-1c0 3.901-3.457 25-7 25v1Z"/><path fill="#1F9866" id="AIv6a" d="M141 174c0 1.643-3.765 1-5 1l1-2 4 1ZM316 174c0 1.579 2.855 1 4 1l-1-2-3 1Z"/><path fill="#1F9865" id="AIv5" d="M107 197c0 9.696 24.005 1.252 27.5 3l3.5 2c2.137 0 21-11.687 21-13-4.801 0-11-9.255-11-14l-7-1c0 1.643-3.765 1-5 1h-1c0 3.84-15.96 16.23-19.5 18-1.535.767-8.5 1.845-8.5 4ZM350 197c-1.89 0-9.556 7.972-15.5 5-2.765-1.383-15.5-4.584-15.5 1l-17.5-10-4.5-4c5.999 0 11-8.256 11-14l8-1c0 1.579 2.855 1 4 1h1c0 5.376 23.002 21 29 21v1Z"/><path fill="#209764" id="AId1" d="m95 200-4 1c0-5.718-9-16.02-9-23l5-1c0 7.872 8 16.61 8 23ZM361 200l4 1 3-5.5c2.329-4.657 6-12.13 6-17.5l-4-1c0 4.719-3.912 12.324-6 16.5l-3 5.5v1Z"/><path fill="#24895D" id="ORBl6a" d="m169 181-1 1 1-1ZM168 182l-1 1 1-1Z"/><path fill="#54BF94" id="AON" d="M209 202c0 4.879 7.095 21-2 21l-2-3.5c-1.682-3.365-.27-8.54-2-12-1.855-3.711-10-18.138-10-20.5 1.829 0 1.809-5 4.5-5 3.342 0 4.445 6 6.5 6v1l1 2 2 6 1 1v1l1 1v2Z"/><path fill="#61D09F" id="TTd" d="m247 203-1 2c-1.509 0-7.995 8.252-14.5 5-3.413-1.707-2.178-8-3-8-1.936 0-.99 5.481-1.5 6.5-.917 1.833-7.659 2.421-9.5 1.5-1.846-.923-8.24-8-8.5-8v-2l-1-1v-1l-1-1-2-6-1-2v-1l1-5c6.551 0 41.494-3.003 45.5-1l1.5 2v5l-1 5-1 1v1l-1 1-1 3-1 1v2Z"/><path fill="#54BF94" id="AON" d="M246 205c0 4.616-4.296 18 3 18 2.74 0 2.928-13.356 4-15.5l10-19.5-1-2.5c-4.532-9.063-6.899 3.5-10 3.5l-1 5-1 1v1l-1 1-1 3-1 1v2l-1 2Z"/><path fill="#24895D" id="ORBl6a" d="m167 183-1 1 1-1Z"/><path fill="#97D6F9" id="STR" d="M191 187c-3.255 0-6.058 2-10 2 0-1.94 10-3.652 10-2ZM266 187c3.538 0 8.518 4 12 4 0-3.463-12-5.803-12-4Z"/><path fill="#80CDF8" id="ACB" d="M209 236c0 12.613-5.928 17-18 17-4.013 0-18-3.06-18-8l-1-8.5c1.419-2.837 3-6.115 3-9.5 5.688 0 8.67-19-3-19-6.357 0-3.098-15 3-15l1-1 3-1 2-2c3.942 0 6.745-2 10-2h2c0 2.362 8.145 16.789 10 20.5 1.73 3.46.318 8.635 2 12l2 3.5v1c0 3.437 2 7.626 2 12ZM247 236c0 11.515 6.444 17 18 17 4.816 0 18-2.291 18-8 0-2.099 3.558-4.383 2-7.5-1.403-2.806-4-7.305-4-10.5-4.605 0-9.297-19 4-19l3-3.5c2.573-5.145-3.66-7.32-5-10-.603-1.205-3.165-3.5-5-3.5-3.482 0-8.462-4-12-4l-3 1-10 19.5c-1.072 2.144-1.26 15.5-4 15.5v2c0 3.451-2 7.022-2 11Z"/><path fill="#97D6F9" id="STR" d="M181 189c-1.747 0-2 .253-2 2l2-2Z"/><path fill="#99D2BD" id="OLF" d="m204 189 1 2-1-2Z"/><path fill="#97D6F9" id="STR" d="m176 192-1 1 1-1Z"/><path fill="#99D2BD" id="OLF" d="m251 194-1 1 1-1ZM250 196l-1 1 1-1Z"/><path fill="#219764" id="AIv2/3" d="M134 205c-8.984 0-16.646 8-26 8-2.08 0-13-10.916-13-13l11-3h1c0 9.696 24.005 1.252 27.5 3l3.5 2-2 2h-1l-1 1Z"/><path fill="#A0EE9C" id="EPd" d="M153 221h1c2.955 0 7.221 7.639 10.5 6 4.69-2.345 1.137-12.225-.5-15.5-4.209-8.418 3.363-19.932-13.5-11.5l-6.5 5.5c-3.738 7.476 9 10.205 9 15.5Z"/><path fill="#99D2BD" id="OLF" d="m207 197 1 1-1-1Z"/><path fill="#A0EE9C" id="EPd" d="M300 223h1c0-1.747.253-2 2-2l1-1 1-1 2-2 2-2 2-2c0-1.238.423-3 2-3 0-4.455-2.62-4.74-4-7.5-1.187-2.373-4.031-3.266-6.5-4.5-11.728-5.864-7.419 7.338-9.5 11.5-1.02 2.041-4.964 13.072-4 15l2.5 2.5c2.529 1.265 5.075-3 7.5-3l1-1Z"/><path fill="#219764" id="AIv2/3" d="M322 205c9.547 0 16.977 8 27 8l3.5-2c2.439-1.22 8.5-8.606 8.5-11v-1c-4.404 0-6.758-2-11-2-1.89 0-9.556 7.972-15.5 5-2.765-1.383-15.5-4.584-15.5 1 1.238 0 3 .423 3 2Z"/><path fill="#99D2BD" id="OLF" d="m208 199 1 1-1-1Z"/><path fill="#209864" id="AIv1" d="M108 213c0 1.663-5.407 2-7 2 0-4.26-10-9.108-10-14l4-1c0 2.084 10.92 13 13 13Z"/><path fill="#99D2BD" id="OLF" d="m248 200-1 1 1-1Z"/><path fill="#209864" id="AIv1" d="M349 213c0 1.353 4.643 2 6 2 2.831 0 10-11.68 10-14l-4-1c0 2.394-6.061 9.78-8.5 11l-3.5 2Z"/><path fill="#99D2BD" id="OLF" d="m207 224 2.5 1c4.781-2.39 12.453-14 19-14 4.237 0 17.619 14 20.5 14v-2c-7.296 0-3-13.384-3-18-1.509 0-7.995 8.252-14.5 5-3.413-1.707-2.178-8-3-8-1.936 0-.99 5.481-1.5 6.5-.917 1.833-7.659 2.421-9.5 1.5-1.846-.923-8.24-8-8.5-8 0 4.879 7.095 21-2 21v1ZM247 203l-1 2 1-2ZM135 204l-1 1 1-1Z"/><path fill="#6ACAB9" id="PIR" d="M144 252h2c3.572 0 6.988-5 11-5 0-3.323 8-5.808 8-10.5 0-5.478-11-12.694-11-15.5h-1c-6.971 0-9.262-17-17-17h-1l-1 1c-8.984 0-16.646 8-26 8 0 1.663-5.407 2-7 2 0 9.318 8.919 18.209 16.5 22l3.5 3c0-2.3 4.696-.402 5.5 0l17.5 12ZM310 252h3c0-1.401 17.123-11.811 19.5-13l3.5 1c0-2.302 6.44-3.94 8-5.5 5.347-5.347 11-11.99 11-19.5-1.357 0-6-.647-6-2-10.023 0-17.453-8-27-8l-4.5-1-4.5 6c0 1.238-.423 3-2 3 0 1.747-.253 2-2 2 0 1.747-.253 2-2 2 0 1.747-.253 2-2 2l-1 1-1 1-2 2h-1l-1 1c0 4.832-10.093 8.314-7 14.5l8 8.5h1l1 1 8 4Z"/><path fill="#CBCBC7" id="aco" d="M172 208c11.67 0 8.688 19 3 19l-7-10.5c-2.289-4.578 4-6.441 4-8.5ZM285 208c-13.297 0-8.605 19-4 19 0-2.4 6.772-9.045 8-11.5 1.794-3.587-4-5.705-4-7.5Z"/><path fill="#99D2BD" id="OLF" d="M313 210c-1.577 0-2 1.762-2 3 1.577 0 2-1.762 2-3Z"/><path fill="#97D6F9" id="STR" d="M221 252c.913 0 2-5.014 2-6 0-4.813 1.882-13.265 4-17.5.471-.942-.73-4.5 1.5-4.5 1.75 0 1.5 6.185 1.5 7.5l5 20.5 3-3c0-6.2 1.584-13 9-13 0-3.978 2-7.549 2-11-2.881 0-16.263-14-20.5-14-6.547 0-14.219 11.61-19 14l-2.5-1c0 3.437 2 7.626 2 12l3.5-1c4.264 2.132 6.5 9.463 6.5 14 1.577 0 2 1.762 2 3Z"/><path fill="#99D2BD" id="OLF" d="m311 213-2 2c1.747 0 2-.253 2-2ZM309 215l-2 2c1.747 0 2-.253 2-2ZM307 217l-2 2c1.747 0 2-.253 2-2ZM305 219l-1 1 1-1ZM304 220l-1 1 1-1ZM303 221c-1.747 0-2 .253-2 2l2-2ZM300 223l-1 1 1-1Z"/><path fill="#A2B1D7" id="SI" d="M161 248c0 2.4 9.603 6.051 11.5 7 5.583 2.792 18.538 9.731 26 6 7.227-3.614 11.877-12 20.5-12 0-4.537-2.236-11.868-6.5-14l-3.5 1c0 12.613-5.928 17-18 17-4.013 0-18-3.06-18-8-2.143 0-12-1.694-12 3ZM295 248c0 2.282-8.709 6.104-10.5 7-7.271 3.636-20.136 9.432-29 5-6.912-3.456-9.065-11-17.5-11 0-6.2 1.584-13 9-13 0 11.515 6.444 17 18 17 4.816 0 18-2.291 18-8 2.177 0 12-2.262 12 3Z"/><path fill="#CAC8C7" id="lot" d="m144 252-1 6c-2.836 0-22-14.353-22-18 0-2.3 4.696-.402 5.5 0l17.5 12ZM312 256l2 2c2.407 0 22-16.073 22-18l-3.5-1c-2.377 1.189-19.5 11.599-19.5 13l-1 2v2Z"/><path fill="#7FCCF7" id="OT" d="m218 264-1 1c0 5.942-6.214 7.857-10.5 10l-6 4c-2.679 1.339-10.79.105-13-1l-18-1-8-4c-2.86-1.43-14.5-7.451-14.5-12l-2-2c0-2.409 1-5.181 1-7 3.572 0 6.988-5 11-5 0 1.579 2.855 1 4 1 0 2.4 9.603 6.051 11.5 7 5.583 2.792 18.538 9.731 26 6 7.227-3.614 11.877-12 20.5-12 1.577 0 2 1.762 2 3v4l-1 2v1l-1 1v2l-1 1v1ZM239 266l1 1c0 4.702 7.52 6.51 10.5 8l6 4c5.13 2.565 35.43-3.715 40-6 2.939-1.47 12.755-12 13.5-12l1-1v-1l1-2v-3l-2-2-8-4-1-1h-1l-5 1c0 2.282-8.709 6.104-10.5 7-7.271 3.636-20.136 9.432-29 5-6.912-3.456-9.065-11-17.5-11l-3 3v1c.913 0 2 5.014 2 6v2l2 3v2Z"/><path fill="#99D2BD" id="OLF" d="m301 247 1 1-1-1ZM143 258l2 1c0-2.409 1-5.181 1-7h-2l-1 6ZM313 252l-1 2-2-2h3Z"/><path fill="#97D6F9" id="STR" d="M235 253c.913 0 2 5.014 2 6-1.995 0-2-4.377-2-6ZM221 256l-1 2 1-2Z"/><path fill="#99D2BD" id="OLF" d="m314 258-2 1v-3l2 2Z"/><path fill="#97D6F9" id="STR" d="M311 259h1v-2l-1 2ZM145 259l2 2-2-2ZM220 259l-1 1 1-1ZM311 260l-1 1 1-1ZM237 261l2 3c-1.577 0-2-1.762-2-3ZM219 262l-1 1 1-1ZM218 264l-1 1 1-1ZM239 266l1 1-1-1Z"/></svg>