<svg xmlns="http://www.w3.org/2000/svg" viewBox="0 0 456 320"><path fill="#1E9D5A" id="MOp1" d="M193 34c-13.241 0-25.082 6-38 6 0-2.079 1-3.187 1-6 3.789 0 9.22-1.36 12.5-3 3.188-1.594 20.658-2 25.5-2l-1 5Z"/><path fill="#1E9C59" id="MOs1" d="M222 48h1l4-2c0-3.113-3.105-3.71-4-5.5-5.047-10.093-16.422-11.5-29-11.5l-1 5c8.893 0 29 .952 29 14ZM230 45l4 3c0-12.889 21.267-14 29-14v-5c-7.969 0-14.944-.278-21.5 3l-7 7c-1.317.659-4.5 3.973-4.5 6Z"/><path fill="#1E9D5A" id="MOp1" d="M300 34c0 2.079 1 3.187 1 6-12.96 0-24.638-6-38-6v-5c4.727 0 21.337.419 24.5 2 3.28 1.64 8.711 3 12.5 3Z"/><path fill="#1E9D58" id="MOs2/3" d="m222 48-6 4c0-10.99-19.061-7-25-7 0-3.694 2-6.865 2-11 8.893 0 29 .952 29 14ZM240 52h1c0-11.04 17.552-7 24-7l-2-11c-7.733 0-29 1.111-29 14l6 4Z"/><path fill="#187F60" id="SSp-ll1" d="M155 41c-4.569 0-7.814 3-12 3l-2-5c0-1.736 13.009-5 15-5 0 2.813-1 3.921-1 6v1Z"/><path fill="#1F9C58" id="MOp2/3" d="M153 57v6c4.311 0 27.829-17 38-17v-1c0-3.694 2-6.865 2-11-13.241 0-25.082 6-38 6v1c0 5.123-2 9.438-2 16ZM304 57v6c-7.282 0-26.665-17-39-17v-1l-2-11c13.362 0 25.04 6 38 6l1 1c0 2.267.443 16 2 16Z"/><path fill="#187F60" id="SSp-ll1" d="M302 41c4.569 0 7.814 3 12 3l1-5c0-1.935-12.852-5-15-5 0 2.079 1 3.187 1 6l1 1Z"/><path fill="#197E64" id="SSp-ul1" d="M106 61h1c3.545 0 27.849-17 36-17l-2-5c-9.855 0-20.117 7.808-28.5 12-1.555.778-8.5 3.004-8.5 5l2 5ZM353 56c-1.477 0-3 3.924-3 5-7.587 0-25.75-17-36-17l1-5c10.025 0 19.991 7.745 28.5 12l9.5 5Z"/><path fill="#187F64" id="SSp-ll2/3" d="M146 59h1c0-1.353 4.643-2 6-2 0-6.563 2-10.877 2-16-4.569 0-7.814 3-12 3l3 15ZM304 57c2.483 0 4.026 2 6 2 0-5.535 4-9.57 4-15-4.186 0-7.431-3-12-3 0 2.267.443 16 2 16Z"/><path fill="#197F61" id="SSp-ul2/3" d="M107 61c0 1.903 3.354 12 5 12 5.733 0 24.549-14 34-14l-3-15c-8.151 0-32.455 17-36 17Z"/><path fill="#1F9D58" id="MOs5" d="M187 62c3.69 0 9.326-4.087 13.5-2l3.5 2 12-10c0-10.99-19.061-7-25-7v1l-4 16ZM252 63h1c0-6.492 13.278-1 16-1 0-5.606-4-10.887-4-16v-1c-6.448 0-24-4.04-24 7l11 11Z"/><path fill="#197F61" id="SSp-ul2/3" d="M350 61c0 4.465-5 8.276-5 13-4.637 0-24.852-15-35-15 0-5.535 4-9.57 4-15 10.25 0 28.413 17 36 17Z"/><path fill="#3EA665" id="ACAd1" d="M233 72c-3.325 0-7.31 1-10 1V48l4-2c2.05 0 1.468-1 3-1l4 3c0 7.217-1 16.105-1 24Z"/><path fill="#1E9C5A" id="MOp5" d="M152 77v2c10.247 0 28.571-16 35-16v-1l4-16c-10.171 0-33.689 17-38 17 0 4.502-1 8.375-1 14ZM304 78v1c-9.41 0-28.817-16-34-16l-1-1c0-5.606-4-10.887-4-16 12.335 0 31.718 17 39 17v1c0 3.642 1 8.002 1 11-1.473 0-1 1.952-1 3Z"/><path fill="#40A565" id="ACAd2/3" d="M218 73h5V48h-1l-6 4c0 6.55 2 14.195 2 21ZM233 73c2.124 0 4.436 1 6 1 0-7.293 1-15.359 1-22l-6-4c0 7.217-1 16.105-1 24v1Z"/><path fill="#3EA566" id="ACAd5" d="M218 74c-4.65 0-7.891 5-12 5 0-4.507-2-11.493-2-16v-1l12-10c0 6.55 2 14.195 2 21v1ZM239 74c4.962 0 8.263 6 12 6 0-5.91 1-11.58 1-17l-11-11h-1c0 6.641-1 14.707-1 22Z"/><path fill="#1B8062" id="SSp-un1" d="M95 69h1l10-8-2-5-12 7 3 6ZM364 63c0 1.408-1.197 5-3 5-4.08 0-7.163-7-11-7 0-1.076 1.523-5 3-5l11 7Z"/><path fill="#1C7F64" id="SSp-ll4" d="M148 65h1l4-2v-6c-1.357 0-6 .647-6 2l1 6ZM304 64l4 1 2-6c-1.974 0-3.517-2-6-2v7Z"/><path fill="#1A7F63" id="SSp-ul4" d="m112 74 3 7c9.884 0 23.26-15 33-15v-1l-1-6h-1c-9.451 0-28.267 14-34 14v1ZM345 75c-1.008 0-4 5.147-4 6-9.774 0-22.759-15-33-15v-1l2-6c10.148 0 30.363 15 35 15v1Z"/><path fill="#1D9C5A" id="MOs6a" d="M185 85h1c0-1.353 4.643-2 6-2h1c0-3.562 9.034-20 11-20v-1l-3.5-2c-4.174-2.087-9.81 2-13.5 2v1l-2 5.5V85ZM271 85h1c0-6.301-2-14.931-2-22l-1-1c-2.722 0-16-5.492-16 1 0 4.333 11 13.765 11 20 1.593 0 7 .337 7 2Z"/><path fill="#1C7F63" id="SSp-un2/3" d="M112 74c-3.893 0-6.712 5-11 5l-3-5.5-3-3 1-1.5 10-8h1c0 1.903 3.354 12 5 12v1ZM355 80h1c0-4.61 5-6.285 5-11v-1c-4.08 0-7.163-7-11-7 0 4.465-5 8.276-5 13v1l10 5Z"/><path fill="#197E63" id="SSp-n1" d="M58 116h1c0-9.003 16.727-33.613 23.5-37 4.136-2.068 7.7-10 12.5-10l-3-6-9.5 8C72.305 76.098 51 108.573 51 119l7-3Z"/><path fill="#197C63" id="SSp-ll5" d="M148 66c0 1.177 3.532 11 4 11 0-5.625 1-9.498 1-14l-4 2-1 1Z"/><path fill="#1F9B5A" id="MOp6a" d="M163 95c-4.09 0-6.21 3-10 3 0-5.678-1-12.682-1-19 10.247 0 28.571-16 35-16l-2 5.5V85l-8 4c-2.059 0-14 4.363-14 6Z"/><path fill="#3FA664" id="ACAd6a" d="m193 83 4 4 9-7v-1c0-4.507-2-11.493-2-16-1.966 0-11 16.438-11 20ZM259 88h1c0-1.238.423-3 2-3l2-2c0-6.235-11-15.667-11-20h-1c0 5.42-1 11.09-1 17v1c1.255 0 8 4.777 8 7Z"/><path fill="#1F9B5A" id="MOp6a" d="M272 85c5.841 0 26.189 14 32 14V79c-9.41 0-28.817-16-34-16 0 7.069 2 15.699 2 22Z"/><path fill="#197E63" id="SSp-n1" d="M398 116c3.578 0 5.143 3 7 3 0-11.87-19.993-41.746-28.5-46-4.141-2.07-7.688-10-12.5-10 0 1.408-1.197 5-3 5v1c4.37 0 7.591 6.545 10.5 8 7.558 3.779 26.5 29.807 26.5 39Z"/><path fill="#197C63" id="SSp-ll5" d="M308 66c0 1.221-2.205 9-3 9 0-2.998-1-7.358-1-11l4 1v1Z"/><path fill="#187E62" id="SSp-ul5" d="m149 65-1 1v-1h1ZM120 93h1l7.5-4c3.75-1.875 20.279-10 23.5-10v-2c-.468 0-4-9.823-4-11-9.74 0-23.116 15-33 15v1c1.9 0 5 8.997 5 11ZM335 93h1l5-11v-1c-9.774 0-22.759-15-33-15 0 1.221-2.205 9-3 9 0 1.048.473 3-1 3v1c5.086 0 19.514 7.507 24.5 10l6.5 4Z"/><path fill="#1B7F64" id="SSp-n2/3" d="M71 110c-6.111 0-5.507 6-12 6 0-9.003 16.727-33.613 23.5-37 4.136-2.068 7.7-10 12.5-10h1l-1 1.5 3 3 3 5.5v1c-8.637 0-28 21.145-28 29h-1l-1 1ZM384 109l14 7c0-9.193-18.942-35.221-26.5-39-2.909-1.455-6.13-8-10.5-8 0 4.715-5 6.39-5 11l12.5 7c2.631 1.315 15.5 17.518 15.5 22Z"/><path fill="#40A664" id="ACAv1" d="M229 99c2.813 0 3.461 4 5 4 0-9.624-1-19.833-1-30v-1c-3.325 0-7.31 1-10 1 0 10.42-1 21.17-1 31 2.047 0 2.168-5 5-5 0-4.252 2-4.466 2 0Z"/><path fill="#3FA566" id="ACAv2/3" d="m221 105-3 2V73h5c0 10.42-1 21.17-1 31l-1 1ZM235 105l3 2c0-10.665 1-21.808 1-33-1.564 0-3.876-1-6-1 0 10.167 1 20.376 1 30l1 2Z"/><path fill="#197E61" id="SSp-un4" d="M115 82c-4.065 0-7.21 6-11 6 0-3.45-3-4.946-3-8v-1c4.288 0 7.107-5 11-5l3 7v1Z"/><path fill="#3EA666" id="ACAv5" d="M210 104c0 1.069 6.717 3 8 3V74c-4.65 0-7.891 5-12 5v1l1 15.5 3 8.5ZM247 104l-9 3c0-10.665 1-21.808 1-33 4.962 0 8.263 6 12 6v1c0 7.562-4 15.494-4 23Z"/><path fill="#197C63" id="SSp-ll5" d="M305 75c-1.473 0-1 1.952-1 3 1.473 0 1-1.952 1-3Z"/><path fill="#197E61" id="SSp-un4" d="M352 88h1c0-3.752 2-4.619 2-8l-10-5c-1.008 0-4 5.147-4 6v1c4.369 0 7.127 6 11 6Z"/><path fill="#197D61" id="SSp-ul6a" d="M128 109h1l4-2 3.5-2c4.159-2.079 10.738-6 15.5-6l1-1c0-5.678-1-12.682-1-19-3.221 0-19.75 8.125-23.5 10l-7.5 4 6 14 1 2ZM328 109h1v-2l2-2 1-2 1-2c0-3.45 2-4.765 2-8l-6.5-4c-4.986-2.493-19.414-10-24.5-10v20h1c5.772 0 13.461 5.481 18.5 8 1.119.559 4.5.155 4.5 2Z"/><path fill="#1A8062" id="SSp-n4" d="M86 104c-5.074 0-7.978 5-13 5 0-7.855 19.363-29 28-29 0 3.054 3 4.55 3 8-2.798 0-16 12.034-16 15h-1l-1 1Z"/><path fill="#40A564" id="ACAv6a" d="m208 103 2 1-3-8.5-1-15.5-9 7v1c0 5.296 10 8.48 10 13l1 2Z"/><path fill="#1A8062" id="SSp-n4" d="M370 103c5.065 0 8.863 6 14 6 0-4.482-12.869-20.685-15.5-22L356 80h-1c0 3.381-2 4.248-2 8 0 1.003 16 10.571 16 15h1Z"/><path fill="#40A564" id="ACAv6a" d="m249 103-2 1c0-7.506 4-15.438 4-23 1.255 0 8 4.777 8 7v3c-1.811 0-4 3.438-4 5-2.274 0-6 3.656-6 6v1Z"/><path fill="#197D62" id="SSp-un5" d="M117 94h1l2-1c0-2.003-3.1-11-5-11-4.065 0-7.21 6-11 6l2 3c1.812 0 1.87-2 2.5-2 1.161 0 8.5 1.638 8.5 5ZM338 94h1c0-4.243 11-6.17 11-3l2-3c-3.873 0-6.631-6-11-6l-5 11 2 1Z"/><path fill="#1E9C58" id="MOs6b" d="M192 84c-1.564 0-3.876 1-6 1 0-1.353 4.643-2 6-2v1Z"/><path fill="#3FA466" id="ACAd6b" d="M196 88h1v-1l-4-4h-1v1l4 4ZM264 84l-2 1 2-2v1Z"/><path fill="#1E9C58" id="MOs6b" d="M271 85v1l-7-2v-1c1.593 0 7 .337 7 2Z"/><path fill="#CACCC7" id="cing" d="m207 101 1 2c-8.839 0-11.619-9.56-18.5-13-6.626-3.313-14.538 5-20.5 5h-2l10-6c1.543 0 8-1.71 8-3l1-1c2.124 0 4.436-1 6-1l4 4c0 3.73 6.698 13 11 13ZM249 102v1c7.713 0 12.06-9.78 18.5-13 6.544-3.272 13.674 5 19.5 5l6 1-22-10-7-2-2 1-2 4-1 2c0 1.562-2.189 5-4 5 0 1.64-4.18 6-6 6Z"/><path fill="#1D9D5A" id="MOp6b" d="M185 86c0 1.29-6.457 3-8 3l8-4v1Z"/><path fill="#1E9C58" id="MOs6b" d="m186 85-1 1v-1h1Z"/><path fill="#3FA466" id="ACAd6b" d="M260 88v1l2-4c-1.577 0-2 1.762-2 3Z"/><path fill="#1D9D5A" id="MOp6b" d="M305 99v1c-4.426 0-7.72-4-12-4l-22-10v-1h1c5.841 0 26.189 14 32 14h1Z"/><path fill="#197E62" id="SSp-n5" d="M106 91c0 2.902-5.627 10-9.5 10-.698 0-4.41-.795-6 0-1.132.566 1.062 2-2.5 2 0-2.966 13.202-15 16-15l2 3Z"/><path fill="#40A465" id="ACAv6b" d="M197 88c0 5.296 10 8.48 10 13-4.302 0-11-9.27-11-13h1ZM260 89l-1 2v-3h1v1Z"/><path fill="#197E62" id="SSp-n5" d="M350 92c1.556 0 2.88 7 5.5 7v-2l4 4c3.264 0 6.248 2 9.5 2 0-4.429-16-13.997-16-15h-1l-2 3v1Z"/><path fill="#1B7E63" id="SSp-m5" d="M79 139h1c0-8.946 12.61-31.555 21.5-36 1.841-.92 15.5-8.548 15.5-9 0-3.362-7.339-5-8.5-5-.63 0-.688 2-2.5 2 0 2.902-5.627 10-9.5 10-.698 0-4.41-.795-6 0-1.132.566 1.062 2-2.5 2h-1l-1 1c0 3.529-16 21.464-16 29 0 2.551 7.123 6 9 6Z"/><path fill="#1D9D5A" id="MOp6b" d="M163 95h4l10-6c-2.059 0-14 4.363-14 6Z"/><path fill="#1B7E63" id="SSp-m5" d="m387 134-10 5c0-5.892-13.625-31.062-19.5-34L339 94c0-4.243 11-6.17 11-3-1.186 0-1.186 1 0 1 1.556 0 2.88 7 5.5 7v-2l4 4c3.264 0 6.248 2 9.5 2h1c0 4.622 17 22.671 17 30v1Z"/><path fill="#C9C7C9" id="ccb" d="m93 156-3 11c2.029 0 3.233-6.967 4-8.5 4.937-9.874 11.995-18.99 17-29l4-3c7.825-15.651 41.032-21.5 58-21.5 2.727 0 2.042-2.771 4.5-4 5.158-2.58 25.5 6.893 25.5 10l1 1c5.528 0 12.141 4 18 4l1 1h4c.839 0 2-1.93 2 0h4l2-1c5.417 0 11.955-4 17-4l1-1 2-1c0-3.643 19.368-11.566 24.5-9l3.5 4c18.449 0 52.887 6.275 62 24.5l10 14 7.5 15.5 4.5 9c0-5.006-4-7.885-4-13l-2-4v-1l-6-10.5c-4.056-8.112-13.632-21.066-22.5-25.5-11.723-5.861-24.337-9.168-36-15-1.568-.784-9.5-1.924-9.5-4-5.826 0-12.956-8.272-19.5-5-6.44 3.22-10.787 13-18.5 13l-2 1-9 3-3-2c0 1.963-3.983 2.759-5.5 2l-1-2c-.697 0-7.5 5.147-7.5 0l-3 2c-1.283 0-8-1.931-8-3l-2-1c-8.839 0-11.619-9.56-18.5-13-6.626-3.313-14.538 5-20.5 5l-2 1c0 1.722-5.235 2.368-6.5 3-6.545 3.272-15.853 8-23.5 8 0 1.775-10.213 6-12 6 0 1.577-1.762 2-3 2 0 1.577-1.762 2-3 2 0 1.747-.253 2-2 2l-2 2-2 2c0 1.747-.253 2-2 2 0 1.626-4.11 8-6 8 0 1.238-.423 3-2 3 0 1.238-.423 3-2 3l-2 4-2 4-1 2-1 2v1l-1 2v1l-1 1Z"/><path fill="#40A465" id="ACAv6b" d="M259 91c-1.811 0-4 3.438-4 5 1.811 0 4-3.438 4-5Z"/><path fill="#197D62" id="SSp-un5" d="M350 91c-1.186 0-1.186 1 0 1v-1Z"/><path fill="#1A7F61" id="SSp-un6a" d="m118 94 3 3.5c.887 1.775 3.534 9.5 6 9.5l-6-14h-1l-2 1ZM338 94c0 1.294-3.609 7-5 7 0-3.45 2-4.765 2-8h1l2 1Z"/><path fill="#187D61" id="SSp-m6a" d="M80 139c0 2.652 12.483 8 15 8 0-3.649 12.861-24 16-24 0-1.747.253-2 2-2 0-1.747.253-2 2-2 0-2.875 10.676-10 13-10l-1-2c-2.466 0-5.113-7.725-6-9.5l-3-3.5h-1c0 .452-13.659 8.08-15.5 9-8.89 4.445-21.5 27.054-21.5 36ZM377 140l-15 7-6-11.5c-2.568-5.136-21.122-26.5-27-26.5v-2c1.747 0 2-.253 2-2l1-2 1-2c1.391 0 5-5.706 5-7h1l18.5 11c5.875 2.938 19.5 28.108 19.5 34v1Z"/><path fill="#1D9D5A" id="MOp6b" d="M153 98v1c4.115 0 6.359-3 10-3v-1c-4.09 0-6.21 3-10 3Z"/><path fill="#CACCC7" id="cing" d="M163 96h4v-1h-4v1Z"/><path fill="#C9C9CA" id="scwm" d="m169 95-2 1v-1h2ZM361 148v2l-6-10.5c-4.056-8.112-13.632-21.066-22.5-25.5-11.723-5.861-24.337-9.168-36-15-1.568-.784-9.5-1.924-9.5-4l6 1c4.28 0 7.574 4 12 4 0 1.149 4.516 1.508 5.5 2l17.5 8 12.5 9c4.027 2.014 20.5 24.56 20.5 29ZM152 100c-1.961 0-15 5.11-15 7 7.647 0 16.955-4.728 23.5-8 1.265-.632 6.5-1.278 6.5-3h-4c-3.641 0-5.885 3-10 3l-1 1Z"/><path fill="#40A465" id="ACAv6b" d="M255 96c-2.274 0-6 3.656-6 6 1.82 0 6-4.36 6-6Z"/><path fill="#1F9B5A" id="MOp6a" d="M152 99h1v-1l-1 1Z"/><path fill="#1C8064" id="SSp-ul6b" d="M133 107h4c0-1.89 13.039-7 15-7v-1c-4.762 0-11.341 3.921-15.5 6l-3.5 2Z"/><path fill="#1D9D5A" id="MOp6b" d="m153 99-1 1v-1h1Z"/><path fill="#7ED04B" id="IG" d="M221 105c0 5.147 6.803 0 7.5 0l1 2c1.517.759 5.5-.037 5.5-2l-1-2c-1.539 0-2.187-4-5-4 0 1.93-1.161 0-2 0-2.832 0-2.953 5-5 5l-1 1Z"/><path fill="#1C8064" id="SSp-ul6b" d="M328 109v1l-17.5-8c-.984-.492-5.5-.851-5.5-2v-1c5.772 0 13.461 5.481 18.5 8 1.119.559 4.5.155 4.5 2Z"/><path fill="#AAA8A9" id="SEZ" d="m178 108-1-3.5c3.829-7.659 22.281 6.5 26 6.5 0-3.107-20.342-12.58-25.5-10-2.458 1.229-1.773 4-4.5 4l5 3ZM279 107c0-11.712-20.744 3-24 3 0-3.643 19.368-11.566 24.5-9l3.5 4-4 2Z"/><path fill="#1A7F61" id="SSp-un6a" d="m333 101-1 2 1-2Z"/><path fill="#1B7F62" id="SSp-m4" d="m87 103-1 1 1-1Z"/><path fill="#A8AAAA" id="VL" d="m192 179-1 1-1-3c0-4.351-1-9.131-1-14 0-1.145.579-4-1-4 0-9.968 3.639-24.222-1-33.5-2.354-4.708-9-12.173-9-17.5l-1-3.5c3.829-7.659 22.281 6.5 26 6.5l1 1c0 5.292-13 17.435-13 31v2c0 4.483-3.354 13.792-1 18.5.946 1.892 2 5.372 2 7.5v8ZM264 179l1 1c1.638 0 2-3.576 2-5l1-17c0-9.212-3.31-22.88 1-31.5 1.689-3.377 10-16.594 10-19.5 0-11.712-20.744 3-24 3l-2 1-1 1c0 4.927 14 19.311 14 30v4c0 8.017-1 16.609-1 24v1l-1 8Z"/><path fill="#1A7F61" id="SSp-un6a" d="m332 103-1 2 1-2Z"/><path fill="#1B7F62" id="SSp-m4" d="M392 130c-1.947 0-2.636 3-5 3 0-7.329-17-25.378-17-30 5.065 0 8.863 6 14 6 0 5.291 8 14.707 8 21ZM69 133h1c0-7.536 16-25.471 16-29-5.074 0-7.978 5-13 5h-1l-1 1c0 6.879-7 13.553-7 20v1c2.25 0 3.376 2 5 2Z"/><path fill="#98D5F9" id="CP" d="M157 225c-4.154 0-9.87 4.185-13.5 6h-4c-8.222 4.111-14.004 4-23.5 4l-8.5-5-5.5-5-1-2c0-1.238-.423-3-2-3v-1l-1-1v-1l-1-1v-2l-1-1v-1l-1-2v-1l-6-20.5c-2.386-4.771 0-12.312 0-17.5v-2l1-2c2.029 0 3.233-6.967 4-8.5 4.937-9.874 11.995-18.99 17-29l4-3c7.825-15.651 41.032-21.5 58-21.5l5 3c0 5.327 6.646 12.792 9 17.5 4.639 9.278 1 23.532 1 33.5l-3.5 5c-2.416 1.208-5.894.287-7.5 3.5-3.79 7.58 1.263 28.473-2 35l-3 10.5-2 1-1 1c-2.645 0-12 7.803-12 10ZM345 233c-1.424 0-5 .362-5 2-11.138 0-22.517-1.008-32.5-6-3.703-1.851-17.405-14-19.5-14l-2-1-1-1h-1c0-3.463-1.351-13.202-3-16.5-3.472-6.944 2.195-21.609-2-30-1.033-2.066-4.798-1.649-6.5-2.5l-4.5-6c0-9.212-3.31-22.88 1-31.5 1.689-3.377 10-16.594 10-19.5l4-2c18.449 0 52.887 6.275 62 24.5l10 14 7.5 15.5 4.5 9v2l1 2v1c0 9.054-3 16.799-3 25v1c-1.242 0-4 9.326-4 11v1l-1 2v1l-1 1v2l-1 1v1l-1 1v1l-1 1-1 1v1l-1 1-1 1v1c-1.747 0-2 .253-2 2-1.417 0-6 2.383-6 4Z"/><path fill="#1A7F61" id="SSp-un6a" d="m331 105-2 2c1.747 0 2-.253 2-2Z"/><path fill="#1C8064" id="SSp-ul6b" d="m133 107-4 2c1.465 0 4 .109 4-2Z"/><path fill="#C9C9CA" id="scwm" d="m129 109-4 4c1.787 0 12-4.225 12-6h-4c0 2.109-2.535 2-4 2Z"/><path fill="#1A7E64" id="SSp-m2/3" d="m72 109-1 1 1-1Z"/><path fill="#188064" id="SSp-m6b" d="M115 119h2l2-2c0-1.577 1.762-2 3-2 0-1.577 1.762-2 3-2l4-4h-1c-2.324 0-13 7.125-13 10ZM361 148h1v-1l-6-11.5c-2.568-5.136-21.122-26.5-27-26.5h-1v1l12.5 9c4.027 2.014 20.5 24.56 20.5 29Z"/><path fill="#1A7E64" id="SSp-m2/3" d="M392 130h1c0-1.222 6.549-5 8-5v-1l-3-8-14-7c0 5.291 8 14.707 8 21ZM55 125c4.394 0 5.266 5 9 5 0-6.447 7-13.121 7-20-6.111 0-5.507 6-12 6h-1c0 1.345-1.57 7-3 7v2Z"/><path fill="#AAA8A9" id="SEZ" d="m255 110-2 1 2-1Z"/><path fill="#90CBEC" id="LSc" d="M191 143h1c4.478 0 19.358-15.429 24.5-18 1.836-.918 5.5-5.158 5.5-7v-2c-5.859 0-12.472-4-18-4 0 5.292-13 17.435-13 31ZM266 142l-2 1c-3.527 0-5.344-4.922-7.5-6-3.642-1.821-22.5-15.883-22.5-19l1-2c5.417 0 11.955-4 17-4 0 4.927 14 19.311 14 30Z"/><path fill="#C9C9CA" id="scwm" d="M125 113c-1.238 0-3 .423-3 2 1.238 0 3-.423 3-2ZM122 115c-1.238 0-3 .423-3 2 1.238 0 3-.423 3-2Z"/><path fill="#187E61" id="SSp-m1" d="M51 120c0 1.712 2.571 3 4 3 1.43 0 3-5.655 3-7l-7 3v1Z"/><path fill="#97D6F9" id="STR" d="m223 117-1 1v-2l1 1ZM227 117c.839 0 2-1.93 2 0 0 2.488-2 1.919-2 0ZM233 117l1 1 1-2-2 1Z"/><path fill="#187E61" id="SSp-m1" d="m406 120-5 4-3-8c3.578 0 5.143 3 7 3l1 1Z"/><path fill="#C9C9CA" id="scwm" d="m119 117-2 2c1.747 0 2-.253 2-2Z"/><path fill="#90CAED" id="LSr" d="M192 171c1.298 0 3.373-3.563 6.5-2l5.5 3c0-2.946 4.86-21 7-21 0-2.968 4-4.633 4-7l1-1 10.5-14 2-4 .5 2.5 5 7c1.638 3.275 8 6.757 8 10.5 1.077 0 3 3.762 3 5 1.998 0 6 13.029 6 15.5 0 1.21.814 5.5 2 5.5l5.5-2c1.956-.978 4.077 1 5.5 1h1c0-7.391 1-15.983 1-24l-2-3c-3.527 0-5.344-4.922-7.5-6-3.642-1.821-22.5-15.883-22.5-19l-1-1h-4c0 2.488-2 1.919-2 0h-4l-1 1c0 1.842-3.664 6.082-5.5 7-5.142 2.571-20.022 18-24.5 18l-1 2c0 4.483-3.354 13.792-1 18.5.946 1.892 2 5.372 2 7.5Z"/><path fill="#188064" id="SSp-m6b" d="M113 121h2v-2c-1.747 0-2 .253-2 2Z"/><path fill="#C9C9CA" id="scwm" d="m117 119-2 2v-2h2Z"/><path fill="#1A7E62" id="SSs1" d="M41 177h4c0-6.972-.535-25.43 2-30.5 1.69-3.38 8-18.434 8-21.5v-2c-1.429 0-4-1.288-4-3-2.242 0-4.075 10.651-5 12.5-6.686 13.371-5 29.474-5 44.5ZM411 177h4c0-10.033 2.42-30.659-2-39.5-2.179-4.359-7-12.643-7-17.5l-5 4v1c0 2.333 6.559 16.619 8 19.5 3.466 6.932 2 23.777 2 32.5Z"/><path fill="#188064" id="SSp-m6b" d="M111 123h2v-2c-1.747 0-2 .253-2 2Z"/><path fill="#C9C9CA" id="scwm" d="m115 121-2 2v-2h2Z"/><path fill="#188064" id="SSp-m6b" d="M95 148h1l1-1c0-1.465-.109-4 2-4 0-1.465-.109-4 2-4 0-1.238.423-3 2-3 0-1.238.423-3 2-3 0-1.822 3.711-8 6-8v-2c-3.139 0-16 20.351-16 24v1Z"/><path fill="#C9C9CA" id="scwm" d="M113 123c0 1.747-.253 2-2 2v-2h2Z"/><path fill="#1B8063" id="SSs2/3" d="M45 177h1c2.389 0 5.987-1 9-1v-1c0-11.907.084-23.668 5-33.5.82-1.638 2.027-10.5 4-10.5v-1c-3.734 0-4.606-5-9-5 0 3.066-6.31 18.12-8 21.5-2.535 5.07-2 23.528-2 30.5Z"/><path fill="#C9C9CA" id="scwm" d="M111 125c-2.289 0-6 6.178-6 8 1.89 0 6-6.374 6-8Z"/><path fill="#8FCBEC" id="SF" fill-rule="evenodd" d="M239 163c0 3.598-3 8.647-3 12.5 0 1.876 4.784 4.358 6.5 3.5 7.82-3.91 7.409-16-3.5-16m-28 0-3 8c0 2.209 1.787 4.143 3.5 5l2 3c7.073 3.537 11.553-16-2.5-16m22-4c0 1.39-.829 8 1.5 8 2.096 0 2.264-8-1.5-8m-11 0-2 2.5 1 3c3.269 6.537 4.333-5.5 1-5.5m11 33v1c2.19 0 2.68 3.41 5.5 2l4.5-4c0-4.257.259-8.019 2-11.5l8-8.5c-1.186 0-2-4.29-2-5.5 0-2.471-4.002-15.5-6-15.5v4.5c0 14.472-14.054-11.5-5.5-11.5l2.5 2c0-3.743-6.362-7.225-8-10.5l-5-7-.5-2.5-2 4-10.5 14c10.637 0-5 23.578-5 12v-4c-2.14 0-7 18.054-7 21 4.985 0 10 13.404 10 17 0 8.884 6.226 4 9 4l1-1 1-1c0-7.961 6-11.781 6-1l2 2Z"/><path fill="#1B8063" id="SSs2/3" d="M402 176c3.222 0 6.277 1 9 1 0-8.723 1.466-25.568-2-32.5-1.441-2.881-8-17.167-8-19.5-1.451 0-8 3.778-8 5 0 5.359 3.678 12.855 6 17.5 2.826 5.652 3 20.422 3 27.5v1Z"/><path fill="#187C63" id="SSs4" d="M397 175h5c0-7.078-.174-21.848-3-27.5-2.322-4.645-6-12.141-6-17.5h-1c-1.947 0-2.636 3-5 3v1c0 4.058 4.149 11.799 6 15.5 2.925 5.85 4 18.829 4 25.5ZM55 175h5c0-9.45 1.009-22.518 5-30.5 1.663-3.326 4-7.592 4-11.5-1.624 0-2.75-2-5-2-1.973 0-3.18 8.862-4 10.5-4.916 9.832-5 21.593-5 33.5Z"/><path fill="#1C8063" id="SSs5" d="M60 175h13v-16.5c2.538-5.075 6-13.655 6-19.5-1.877 0-9-3.449-9-6h-1c0 3.908-2.337 8.174-4 11.5-3.991 7.982-5 21.05-5 30.5Z"/><path fill="#C9C9CA" id="scwm" d="M105 133c-1.577 0-2 1.762-2 3 1.577 0 2-1.762 2-3Z"/><path fill="#1C8063" id="SSs5" d="M384 175h13c0-6.671-1.075-19.65-4-25.5-1.851-3.701-6-11.442-6-15.5l-10 5v1l6 16.5 1 18.5Z"/><path fill="#C9C9CA" id="scwm" d="M103 136c-1.577 0-2 1.762-2 3 1.577 0 2-1.762 2-3Z"/><path fill="#197D63" id="SSs6a" d="M73 175h13c0-6.788 4.084-15.668 7-21.5.66-1.319-.334-5.5 2-5.5v-1c-2.517 0-15-5.348-15-8h-1c0 5.845-3.462 14.425-6 19.5V175Z"/><path fill="#C9C9CA" id="scwm" d="M101 139c-2.109 0-2 2.535-2 4l2-4Z"/><path fill="#197D63" id="SSs6a" d="M371 175h13l-1-18.5-6-16.5-15 7v1c0 9.085 8 17.338 8 27h1Z"/><path fill="#97D6F9" id="STR" d="m264 143 2 3v-4l-2 1Z"/><path fill="#C9C9CA" id="scwm" d="M99 143c-2.109 0-2 2.535-2 4l2-4Z"/><path fill="#97D6F9" id="STR" d="m192 143-1 2v-2h1Z"/><path fill="#8FCBEC" id="SF" d="m216 143-1 1 1-1Z"/><path fill="#CBC8CB" id="fi" d="M215 144c0 2.367-4 4.032-4 7v4c0 11.578 15.637-12 5-12l-1 1ZM242 145c1.077 0 3 3.762 3 5v4.5c0 14.472-14.054-11.5-5.5-11.5l2.5 2Z"/><path fill="#C9C9CA" id="scwm" d="M96 148v1l1-2-1 1Z"/><path fill="#1A8061" id="SSs6b" d="M86 175h1l2-4v-2l1-2 3-11 1-1v-1l1-2v-1l1-2v-1h-1c-2.334 0-1.34 4.181-2 5.5-2.916 5.832-7 14.712-7 21.5ZM369 175h1c0-9.662-8-17.915-8-27h-1v3l2 4c0 5.115 4 7.994 4 13v2l1 2v1l1 2Z"/><path fill="#C9C9CA" id="scwm" d="m96 149-1 2 1-2ZM361 151l2 4-2-4ZM95 152l-1 2 1-2ZM94 155l-1 1 1-1Z"/><path fill="#97D6F9" id="STR" d="M282 213h2c0-3.463-1.351-13.202-3-16.5-3.472-6.944 2.195-21.609-2-30-1.033-2.066-4.798-1.649-6.5-2.5l-4.5-6-1 17c1.745 0 6-.698 6 2l4 5 .5-4 .5 4.5c1.904 3.809 2 13.286 2 17.5 0 3.686 2 9.257 2 13ZM172 213h2l1-1c0-4.721 2-8.983 2-13v-13.5c.972-1.945 3-11.01 3-4.5l3-4c1.791 0 2.959-3.27 5.5-2l1.5 2c0-4.351-1-9.131-1-14 0-1.145.579-4-1-4l-3.5 5c-2.416 1.208-5.894.287-7.5 3.5-3.79 7.58 1.263 28.473-2 35l-3 10.5Z"/><path fill="#96A7D2" id="TRS" d="m222 159-2 2.5 1 3c3.269 6.537 4.333-5.5 1-5.5ZM233 159c0 1.39-.829 8 1.5 8 2.096 0 2.264-8-1.5-8Z"/><path fill="#C7C8CA" id="fx" d="m211 163-3 8c0 2.209 1.787 4.143 3.5 5l2 3c7.073 3.537 11.553-16-2.5-16ZM239 163c0 3.598-3 8.647-3 12.5 0 1.876 4.784 4.358 6.5 3.5 7.82-3.91 7.409-16-3.5-16Z"/><path fill="#C9C7C9" id="ccb" d="m90 167-1 2 1-2Z"/><path fill="#8FCBED" id="LSv" d="M214 189c-.373 0-3.027 4.263-4.5 5-5.003 2.502-7.206-4-10.5-4v-1l-7-10v-8c1.298 0 3.373-3.563 6.5-2l5.5 3c4.985 0 10 13.404 10 17ZM256 191l-1 2c-2.087 0-12 3.215-12-2 0-4.257.259-8.019 2-11.5l8-8.5 5.5-2c1.956-.978 4.077 1 5.5 1l1 1-1 8v2l-1 2-1 1-1 1-1 1-1 2-1 1-1 1-1 1Z"/><path fill="#97D6F9" id="STR" d="M265 170v1l-1-1h1Z"/><path fill="#C8CBCC" id="ec" d="m367 170 1 2-1-2ZM93 208l2 1-6-20.5c-2.386-4.771 0-12.312 0-17.5l-2 4v12c1.58 0 1 2.855 1 4l1 1v2l1 1 1 6 1 1v3c1.473 0 1 1.952 1 3ZM365 198h1l1-5 1-1v-1l1-1v-15l-1-2c0 9.054-3 16.799-3 25Z"/><path fill="#11AC82" id="VISC4" d="m60 182-5 1v-8h5v7Z"/><path fill="#12AD82" id="VISC5" d="M73 178c-4.085 0-8.176 3-13 3v-6h13v3Z"/><path fill="#11AC83" id="VISC6a" d="M86 176c-4.62 0-8.781 2-13 2v-3h13v1Z"/><path fill="#11AD82" id="VISC6b" d="M86 176h1v-1h-1v1Z"/><path fill="#B3C0DE" id="BST" d="M200 205c-2.573 0-13.787 7-21 7 0-11.452 4-23.177 4-35 1.791 0 2.959-3.27 5.5-2l1.5 2 1 3c0 1.675 6.062 9 8 9v1c0 2.694 6 6.548 6 12v1l-5 2ZM256 205c4.136 0 13.852 7 21 7 0-4.044 2.143-11.213 0-15.5-2.309-4.618-4-14.289-4-19.5 0-2.698-4.255-2-6-2 0 1.424-.362 5-2 5l-1 1-1 2-1 1-1 1-1 1-1 2-1 1-1 1-1 1-1 2c0 3.099-4 5.883-4 10 2.25 0 3.376 2 5 2Z"/><path fill="#11AD82" id="VISC6b" d="M369 176h2v-1h-2v1Z"/><path fill="#11AC83" id="VISC6a" d="m371 177 13 1v-3h-13v2Z"/><path fill="#12AD82" id="VISC5" d="M384 179c4.67 0 8.668 3 13 3v-7h-13v4Z"/><path fill="#11AC82" id="VISC4" d="m397 182 4 1 1-7v-1h-5v7Z"/><path fill="#12AC83" id="VISC2/3" d="M47 186h1l7-3v-7c-3.013 0-6.611 1-9 1l1 9Z"/><path fill="#009B74" id="GU6a" d="M75 194h1l7-1 4-2v-5c-1.763 0-1-8.343-1-10-4.62 0-8.781 2-13 2 0 6.041 2 10.526 2 16Z"/><path fill="#019C74" id="GU6b" d="M87 176v10c-1.763 0-1-8.343-1-10h1ZM371 177c0 1.12-1.289 12-2 12v-13h2v1Z"/><path fill="#12AC83" id="VISC2/3" d="m401 183 8 3 2-9c-2.723 0-5.778-1-9-1l-1 7Z"/><path fill="#12AD83" id="VISC1" d="m47 186-3 2c-1.795 0-3-9.1-3-11h5l1 9Z"/><path fill="#8599CC" id="PAL" d="M175 212h4c0-11.452 4-23.177 4-35l-3 4c0 3.204-.156 18-3 18 0 4.017-2 8.279-2 13ZM277 212l5 1c0-3.743-2-9.314-2-13-4.182 0-3-15.907-3-18l-4-5c0 5.211 1.691 14.882 4 19.5 2.143 4.287 0 11.456 0 15.5Z"/><path fill="#009B74" id="GU6a" d="m373 193 8 1 3-15v-1l-13-1c0 1.12-1.289 12-2 12v2l4 2Z"/><path fill="#12AD83" id="VISC1" d="m409 187 4 1c0-3.62 2-6.768 2-11h-4l-2 9v1Z"/><path fill="#019C75" id="GU5" d="M75 194c-3.765 0-7.772 2-12 2 0-3.572-3-8.855-3-14v-1c4.824 0 8.915-3 13-3 0 6.041 2 10.526 2 16Z"/><path fill="#CCC" d="M180 181c0 3.204-.156 18-3 18v-13.5c.972-1.945 3-11.01 3-4.5ZM277 182c0 2.093-1.182 18 3 18 0-4.214-.096-13.691-2-17.5l-.5-4.5-.5 4Z"/><path fill="#97D6F9" id="STR" d="M191 180c0 1.675 6.062 9 8 9l-7-10-1 1ZM265 180l-1 1v-2l1 1Z"/><path fill="#019C75" id="GU5" d="M381 195c3.291 0 7.869 1 12 1 2.179 0 4-11.88 4-14-4.332 0-8.33-3-13-3l-3 15v1Z"/><path fill="#97D6F9" id="STR" d="m264 181-1 2 1-2Z"/><path fill="#009C74" id="GU4" d="M61 197h2v-1c0-3.572-3-8.855-3-14l-5 1c0 4.863 6 11.355 6 14Z"/><path fill="#FF5445" id="MEPO" d="m224 193-1 2c0 3.305 8.362 4.777 10 1.5l-2-5.5v-1c0-10.781-6-6.961-6 1v1l-1 1Z"/><path fill="#009C74" id="GU4" d="M393 197h3c0-3.435 5-8.531 5-14l-4-1c0 2.12-1.821 14-4 14v1Z"/><path fill="#009B75" id="GU2/3" d="M52 199h1c2.522 0 4.909-2 8-2 0-2.645-6-9.137-6-14l-7 3c0 4.871 4 8.351 4 13Z"/><path fill="#97D6F9" id="STR" d="m263 183-1 1 1-1Z"/><path fill="#009B75" id="GU2/3" d="M403 199h1l5-12v-1l-8-3c0 5.469-5 10.565-5 14 1.593 0 7 .337 7 2Z"/><path fill="#97D6F9" id="STR" d="m262 184-1 1 1-1ZM261 185l-1 1 1-1Z"/><path fill="#009C75" id="GU1" d="m52 199-4 1c0-4.239-4-7.376-4-12l3-2h1c0 4.871 4 8.351 4 13Z"/><path fill="#019C74" id="GU6b" d="M87 191h1c0-1.145.58-4-1-4v4Z"/><path fill="#009C75" id="GU1" d="m404 199 4 1c1.041 0 5-10.421 5-12l-4-1-5 12Z"/><path fill="#97D6F9" id="STR" d="m259 188-1 1 1-1ZM206 202h9l5.5-3 2.5-4v-2c-2.774 0-9 4.884-9-4-.373 0-3.027 4.263-4.5 5-5.003 2.502-7.206-4-10.5-4 0 2.694 6 6.548 6 12h1ZM258 189l-1 1 1-1ZM231 191l2 1-2-2v1ZM257 190l-1 1 1-1Z"/><path fill="#019C74" id="GU6b" d="M368 191h1v-1l-1 1Z"/><path fill="#8ADA86" id="CLA" d="m92 208-4 1c-6.217 0-5-11.49-5-16l4-2h1l1 1v2l1 1 1 6 1 1v6Z"/><path fill="#209766" id="AIp6a" d="m88 191 1 1-1-1Z"/><path fill="#97D6F9" id="STR" d="M224 192h1v-1l-1 1Z"/><path fill="#CAC7CB" id="fiber tracts" d="M215 202h26c0-.184-8-4.523-8-9v-1l-2-1 2 5.5c-1.638 3.277-10 1.805-10-1.5l-2.5 4-5.5 3Z"/><path fill="#97D6F9" id="STR" d="M241 202c3.325 0 7.31 1 10 1 0-4.117 4-6.901 4-10-2.087 0-12 3.215-12-2l-4.5 4c-2.82 1.41-3.31-2-5.5-2 0 4.477 8 8.816 8 9ZM256 191l-1 2 1-2Z"/><path fill="#8ADA86" id="CLA" d="m365 208 4 1c5.859 0 4-12.741 4-16l-4-2h-1v1l-1 1-1 5-1 1v4l-1 1v3l1 1Z"/><path fill="#97D6F9" id="STR" d="M223 193h1v-1l-1 1Z"/><path fill="#CAC7CB" id="fiber tracts" d="m225 192-1 1v-1h1Z"/><path fill="#209766" id="AIp6a" d="m368 192-1 1 1-1ZM83 213h2l1-1 2-3c-6.217 0-5-11.49-5-16l-7 1c0 6.931 7 12.303 7 19Z"/><path fill="#CAC7CB" id="fiber tracts" d="m224 193-1 2v-2h1Z"/><path fill="#209766" id="AIp6a" d="m371 212 2 1c0-3.904 4.278-9.055 6-12.5.557-1.114.41-5.5 2-5.5v-1l-8-1c0 3.259 1.859 16-4 16 0 2.215 2 1.519 2 3Z"/><path fill="#219864" id="AIp5" d="m81 215-5 1-8-9.5-5-9.5v-1c4.228 0 8.235-2 12-2h1c0 6.931 7 12.303 7 19l-2 2Z"/><path fill="#209766" id="AIp6a" d="m89 194 1 1-1-1Z"/><path fill="#219864" id="AIp5" d="m375 215 5 1c0-3.322 13-12.527 13-19v-1c-4.131 0-8.709-1-12-1-1.59 0-1.443 4.386-2 5.5-1.722 3.445-6 8.596-6 12.5l2 2Z"/><path fill="#209865" id="AIp2/3" d="m76 216-10 4c0-1.903-13-15.806-13-21 2.522 0 4.909-2 8-2h2l5 9.5 8 9.5ZM380 216c3.385 0 6.951 4 10 4 0-1.246 13-15.055 13-21 0-1.663-5.407-2-7-2h-3c0 6.473-13 15.678-13 19Z"/><path fill="#209766" id="AIp6a" d="m366 198-1 1v-1h1Z"/><path fill="#219765" id="AIp1" d="m66 220-5 2c-1.988 0-2.408-3.315-3-4.5-2.524-5.048-10-11.759-10-17.5l4-1h1c0 5.194 13 19.097 13 21Z"/><path fill="#C8CBCC" id="ec" d="m364 208-3 2c0-1.674 2.758-11 4-11v4l-1 1v4Z"/><path fill="#219765" id="AIp1" d="m390 220 5 3 4-6.5c2.557-5.114 9-10.517 9-16.5l-4-1h-1c0 5.945-13 19.754-13 21Z"/><path fill="#209766" id="AIp6a" d="m91 201 1 1-1-1Z"/><path fill="#CBCBC7" id="aco" d="M232 218h11c0-1.473 1.952-1 3-1 0-3.386 10-7.003 10-12-1.624 0-2.75-2-5-2-2.69 0-6.675-1-10-1h-35l-1 1-5 2c0 4.628 13 12.491 13 13h19Z"/><path fill="#CAC7CB" id="fiber tracts" d="m206 202-1 1v-1h1Z"/><path fill="#209766" id="AIp6a" d="m365 203-1 1 1-1ZM92 208h1c0-1.048.473-3-1-3v3Z"/><path fill="#C9C9C9" id="act" d="M162 227h1l2-1c0-2.153 7.075-3 9-3 0-1.473 1.952-1 3-1l1-1h1l4.5-2 25.5-2 4 1c0-.509-13-8.372-13-13-2.573 0-13.787 7-21 7h-4l-1 1h-2l-2 1-1 1c0 2.317-10.005 10-12 10 0 4.458-8.109 4 1 4l4-2ZM278 221c1.041 0 5 .986 5 2 2.249 0 21.447 8.394 20 5.5-2.074-4.149-15-7.855-15-13.5l-2-1-1-1h-3l-5-1c-7.148 0-16.864-7-21-7 0 4.997-10 8.614-10 12h1l25.5 2 5.5 2Z"/><path fill="#209766" id="AIp6a" d="M364 208h1l-1-1v1Z"/><path fill="#A0EE9C" id="EPd" d="M95 229c2.338 0 4.862 2 8 2v-3l-1-3-1-2-2-3v-1l-1-1v-1l-1-1v-2l-1-1v-1l-1-2v-1l-2-1h-1l-4 1-2 3-1 1c0 2.124 1 4.436 1 6v1l1 1v1l2 2 1 1 1 1 1 1 2 2h1ZM358 231h1l1-1 1-1 4-2 1-1 1-1v-1l1-1 1-1 1-2 1-1v-7c0-1.481-2-.785-2-3l-4-1h-1l-3 2v1l-1 2v1l-1 1v2l-1 1v1l-1 1v1l-1 1-1 1v1l-1 1-1 1v2l1 3h4Z"/><path fill="#C8CBCC" id="ec" d="m95 210 1 2-1-2ZM361 211l-1 2 1-2Z"/><path fill="#99D2BD" id="OLF" d="m86 212-1 1 1-1Z"/><path fill="#8599CC" id="PAL" d="m175 212-1 1 1-1Z"/><path fill="#99D2BD" id="OLF" d="m375 215-4 3v-6l2 1 2 2ZM81 215l5 4c0-1.564-1-3.876-1-6h-2l-2 2Z"/><path fill="#C8CBCC" id="ec" d="m96 213 1 1-1-1Z"/><path fill="#97D6F9" id="STR" d="m285 213 1 1-1-1ZM170 214l-1 1 1-1Z"/><path fill="#C8CBCC" id="ec" d="m360 214-1 1 1-1Z"/><path fill="#6ACAB9" id="PIR" d="m121 277-2 2c-10.335 0-19.29-11-24-11-3.1 0-6.421-7.921-8.5-10-4.969-4.969-25.5-30.469-25.5-36l5-2 10-4 5-1 5 4v1l1 1v1l2 2 1 1 1 1 1 1 2 2h1c0 1.169 13.589 9.045 15.5 10 10.123 5.061 15.5 14.663 15.5 26l-1 1c0 3.669-4 6.547-4 11Z"/><path fill="#97D6F9" id="STR" d="M169 215c-2.645 0-12 7.803-12 10 1.995 0 12-7.683 12-10ZM323 263c0 2.698 4.255 2 6 2 0-2.231-2.386-6.728-1-9.5 1.55-3.099 5.904-15.5 11-15.5 0-3.151 3-2.703 3-5h-2c-11.138 0-22.517-1.008-32.5-6-3.703-1.851-17.405-14-19.5-14 0 5.645 12.926 9.351 15 13.5 1.447 2.894-17.751-5.5-20-5.5l-2 1 1 2c4.23 0 7.427 3 11 3l-2-2.5 16.5 7.5c3.374 1.687 8.613-1.193 11 0 5.473 2.736 12.647 1.324 18 4l-5.5 6.5c-5.479 5.479-6.554 8.5-15 8.5l2 3 1 1v1l4 5Z"/><path fill="#6ACAB9" id="PIR" d="m335 277 3 2c10.079 0 16.42-10 24-10 0-3.77 5.81-6.119 7-8.5 4.464-8.927 26-29.161 26-37.5l-5-3c-3.049 0-6.615-4-10-4l-5-1-4 3v1l-1 1-1 2-1 1-1 1v1l-1 1-1 1-4 2-1 1-1 1h-1c0 1.727-8.413 6-10 6 0 1.577-1.762 2-3 2l-11 10.5c-2.569 5.138-3 9.199-3 15.5 0 3.685 4 6.271 4 12Z"/><path fill="#C8CBCC" id="ec" d="m97 216 1 1-1-1Z"/><path fill="#B3C0DE" id="BST" d="M208 226c-4.72 0-8.579 7-14 7-8.699 0-15-3.678-15-12l4.5-2 25.5-2 1 5.5-2 3.5Z"/><path fill="#E64438" id="HY" d="m223 241 1 1c0-1.442 1.276-16 2-16 0-2.409 1-5.181 1-7-1.048 0-3 .473-3-1h-11l-4-1 1 5.5-2 3.5c2.461 0 2 3.378 2 5l1.5-2 4.5 1c0-1.489 3.84-11.82 6-7.5l-1 10.5c3.746 0 2 6.51 2 8Z"/><path fill="#CAC7CB" id="fiber tracts" d="M227 219h2c1.048 0 3 .473 3-1h-8c0 1.473 1.952 1 3 1Z"/><path fill="#C9C9C9" id="act" d="M246 217c-1.048 0-3-.473-3 1 1.048 0 3 .473 3-1Z"/><path fill="#E64438" id="HY" d="m234 241-2 2c0-3.32 1.501-16-2-16 0-1.423 1.978-3.544 1-5.5l-2-2.5c1.048 0 3 .473 3-1h11c1.048 0 3 .473 3-1h1l-1 5.5 2 3.5c0 1.564-1 3.876-1 6l-2.5-3c-2.712-1.356-3.183 2-4.5 2 0-2.774.141-5.217-1-7.5-.328-.656-3.434-2.132-4-1-1.893 3.786 1 6.802 1 10.5-5.364 0-2 5.622-2 8Z"/><path fill="#B3C0DE" id="BST" d="M248 226c5.015 0 9.266 7 15 7 0-2.144 4.262-.381 5.5-1 5.043-2.521 9.5-2.994 9.5-10v-1l-5.5-2-25.5-2-1 5.5 2 3.5Z"/><path fill="#C8CBCC" id="ec" d="m359 217-1 1 1-1ZM98 218l1 1-1-1Z"/><path fill="#FF5445" id="MEPO" d="m227 229 2 1 1-3c0-1.423 1.978-3.544 1-5.5l-2-2.5h-2c0 1.819-1 4.591-1 7l1 3Z"/><path fill="#C8CBCC" id="ec" d="m358 219-1 1 1-1Z"/><path fill="#99D2BD" id="OLF" d="m371 219-1 1 1-1ZM86 220l1 1-1-1Z"/><path fill="#C8CBCC" id="ec" d="M99 220c1.577 0 2 1.762 2 3l-2-3Z"/><path fill="#8599CC" id="PAL" d="m178 221-1 1 1-1Z"/><path fill="#E64438" id="HY" d="m199 240-4 3c0-4.871-10-9.214-10-3-4.538 0-4.854-7.208-6-9.5l-4-4.5 1-2 1-2 1-1h1c0 8.322 6.301 12 15 12 0 3.909-1.04 7 5 7Z"/><path fill="#8599CC" id="PAL" d="m283 223-2 1-3-2v-1c1.041 0 5 .986 5 2Z"/><path fill="#C8CBCC" id="ec" d="m357 221-1 1 1-1Z"/><path fill="#99D2BD" id="OLF" d="m87 222 2 2-2-2Z"/><path fill="#8599CC" id="PAL" d="m174 223 2 1 1-2c-1.048 0-3-.473-3 1Z"/><path fill="#FF5547" id="ADP" d="M216 230c0 3.236 2.435 3 5 3l1-10.5c-2.16-4.32-6 6.011-6 7.5ZM240 231c0 2.641-1.823 2-4 2 0-3.698-2.893-6.714-1-10.5.566-1.132 3.672.344 4 1 1.141 2.283 1 4.726 1 7.5Z"/><path fill="#E64438" id="HY" d="M271 240c0-10.369-9.863 3-10 3l-3-3c4.698 0 5-3.024 5-7 0-2.144 4.262-.381 5.5-1 5.043-2.521 9.5-2.994 9.5-10l3 2 1 2c-6.188 0-3.749 14-11 14Z"/><path fill="#C8CBCC" id="ec" d="m356 222-1 1 1-1Z"/><path fill="#99D2BD" id="OLF" d="m369 222-1 1 1-1Z"/><path fill="#97D6F9" id="STR" d="m163 227 2 1 10-2 1-2-2-1c-1.925 0-9 .847-9 3l-2 1Z"/><path fill="#99D2BD" id="OLF" d="m368 223-1 1 1-1Z"/><path fill="#C8CBCC" id="ec" d="m355 224-1 1 1-1Z"/><path fill="#99D2BD" id="OLF" d="m90 225 1 1-1-1Z"/><path fill="#C8CBCC" id="ec" d="M115 235h1l-8.5-5-5.5-5 1 3c4.063 0 7.275 7 12 7Z"/><path fill="#97D6F9" id="STR" d="m133 264-5 1 1-8.5c-1.784-3.569-6.174-15.5-11-15.5 0-2.813-3-3.921-3-6h1c9.496 0 15.278.111 23.5-4h4c3.63-1.815 9.346-6 13.5-6 0 4.458-8.109 4 1 4 0 4.628-23.627 6.064-27.5 8-1.563.781-10.5-1.569-10.5 1.5 0 .353 12.54 14.02 13.5 14.5h6.5v1l-1 1-2 4-1 1-1 2-1 1-1 1Z"/><path fill="#C8CBCC" id="ec" d="m354 225-1 1 1-1Z"/><path fill="#99D2BD" id="OLF" d="m367 225-1 1 1-1Z"/><path fill="#A2B1D7" id="SI" d="M128 265c0 7.859 18.519 14 25 14 1.72 0 11-.659 11-2-3.818 0-9.819-4.66-12.5-6l-2.5-3.5c3.19-6.379 17.829-8.5 24-8.5 0-1.638 3.576-2 5-2l7-7.5c1.664-3.327 0-6.374 0-9.5-4.538 0-4.854-7.208-6-9.5l-4-4.5-10 2-1 1-1 1-1 1c-4.507 0-14.207 22-22 22v1l-1 1-2 4-1 1-1 2-1 1-1 1-5 1Z"/><path fill="#FD5446" id="PS" d="M194 233c0 3.909-1.04 7 5 7 2.971 0 10-4.544 10-8l1-1c0-1.622.461-5-2-5-4.72 0-8.579 7-14 7Z"/><path fill="#FE5547" id="PVpo" d="M217 274h2l2-1h1c0-1.577 1.762-2 3-2l1-1c0-1.75 2.742-9.017 3-8.5v5l2 3.5v1l8 3c0-2.367-2-4.032-2-7-5.558 0-5-18.789-5-24 0-3.32 1.501-16-2-16l-1 3c0 4.668-2 1.424-2-1l-1-3c-.724 0-2 14.558-2 16 0 4.393.567 25-4 25 0 2.538-3 3.953-3 7Z"/><path fill="#FD5446" id="PS" d="M263 233c0 3.976-.302 7-5 7-2.543 0-11-4.672-11-8 0-2.124 1-4.436 1-6 5.015 0 9.266 7 15 7Z"/><path fill="#A2B1D7" id="SI" d="M329 265c0 7.355-19.319 14-25 14-1.72 0-11-.659-11-2 0-.679 12.553-4.605 14-7.5 3.253-6.507-20.035-10.5-24-10.5l-4-2-6-4.5c-1.993-3.985-2-7.636-2-12.5 7.251 0 4.812-14 11-14 4.23 0 7.427 3 11 3l6 6.5c1.446 2.892 13.158 17.5 17 17.5l2 3 1 1v1c0 1.85 2.23 5 4 5 0 2.698 4.255 2 6 2Z"/><path fill="#7ECDF8" id="FS" d="m293 229 6 6.5c1.446 2.892 13.158 17.5 17 17.5 8.446 0 9.521-3.021 15-8.5l5.5-6.5c-5.353-2.676-12.527-1.264-18-4-2.387-1.193-7.626 1.687-11 0l-16.5-7.5 2 2.5Z"/><path fill="#99D2BD" id="OLF" d="m366 226-1 1 1-1ZM92 227l2 2-2-2Z"/><path fill="#97D6F9" id="STR" d="m162 227-4 2c1.465 0 4 .109 4-2Z"/><path fill="#7ECDF8" id="FS" d="M162 231c-4.507 0-14.207 22-22 22h-6.5c-.96-.48-13.5-14.147-13.5-14.5 0-3.069 8.937-.719 10.5-1.5 3.873-1.936 27.5-3.372 27.5-8 1.465 0 4 .109 4-2h1l2 1-1 1-1 1-1 1Z"/><path fill="#C8CBCC" id="ec" d="m353 228-2 1c0-1.747.253-2 2-2v1Z"/><path fill="#8AD987" id="CTXsp" d="M115 235c0 2.079 3 3.187 3 6-2.57 0-15-7.25-15-10v-3c4.063 0 7.275 7 12 7Z"/><path fill="#97D6F9" id="STR" d="m165 228-1 1 1-1Z"/><path fill="#8AD987" id="CTXsp" d="M345 239c-1.045 0-6 3.836-6 1 0-3.151 3-2.703 3-5 1.238 0 3-.423 3-2 1.664 0 6-1.823 6-4l2-1 1 3-6 6c-1.238 0-3 .423-3 2Z"/><path fill="#99D2BD" id="OLF" d="M126 265h2l1-8.5c-1.784-3.569-6.174-15.5-11-15.5-2.57 0-15-7.25-15-10-3.138 0-5.662-2-8-2 0 1.169 13.589 9.045 15.5 10 10.123 5.061 15.5 14.663 15.5 26Z"/><path fill="#FF5346" id="MPO" d="M194 270c1.791 0 2.959-3.27 5.5-2l3.5 2c1.989 0 7-.247 7-3l-2-4.5c-5.355-10.71 5.641-21.5 15-21.5 0-1.49 1.746-8-2-8-2.565 0-5 .236-5-3l-4.5-1-1.5 2-1 1c0 3.456-7.029 8-10 8l-4 3v16c.974 0 2.937-4.219 4.5-5 5.455-2.727 4.174 17.174-3.5 9.5l-1-2.5c-1.579 0-1 2.855-1 4v5Z"/><path fill="#E64438" id="HY" d="m227 229 2 1c0 4.668-2 1.424-2-1Z"/><path fill="#FF5346" id="MPO" fill-rule="evenodd" d="M255 254c0 1.24-2 1.576-2 4l1 3.5c5.295 10.59 11.829-7.5 1-7.5m7 15-5.5-1-3.5 3c0-1.951-2.454-.477-3.5-1l-3.5-3c0-1.898 2.048-7.596 3-9.5l-1-2.5c0-8.93-5.084-14-14-14 0-2.378-3.364-8 2-8 2.177 0 4 .641 4-2 1.317 0 1.788-3.356 4.5-2l2.5 3c0 3.328 8.457 8 11 8l3 3c0 8.07 2 15.784 2 23v1l-1 2Z"/><path fill="#C8CBCC" id="ec" d="M351 229c-1.417 0-6 2.383-6 4 1.664 0 6-1.823 6-4Z"/><path fill="#99D2BD" id="OLF" d="m361 229-1 1 1-1Z"/><path fill="#97D6F9" id="STR" d="m163 230-1 1 1-1Z"/><path fill="#99D2BD" id="OLF" d="m360 230-1 1 1-1Z"/><path fill="#E64438" id="HY" d="m210 231-1 1 1-1Z"/><path fill="#99D2BD" id="OLF" d="M358 231c0 1.727-8.413 6-10 6l6-6h4Z"/><path fill="#C8CBCC" id="ec" d="M340 235h2c1.238 0 3-.423 3-2-1.424 0-5 .362-5 2Z"/><path fill="#F2473B" id="LPO" d="M263 266h1c2.796 0 7.794-7 13-7l2-2-6-4.5c-1.993-3.985-2-7.636-2-12.5 0-10.369-9.863 3-10 3 0 8.07 2 15.784 2 23ZM194 265l-1 1c-2.614 0-8.218-7-13-7l-2-2 7-7.5c1.664-3.327 0-6.374 0-9.5 0-6.214 10-1.871 10 3v18c-1.579 0-1 2.855-1 4Z"/><path fill="#99D2BD" id="OLF" d="M348 237c-1.238 0-3 .423-3 2 1.238 0 3-.423 3-2ZM329 265h2c0-6.301.431-10.362 3-15.5l11-10.5c-1.045 0-6 3.836-6 1-5.096 0-9.45 12.401-11 15.5-1.386 2.772 1 7.269 1 9.5Z"/><path fill="#FD4C3E" id="MPN" d="M215 267h5c4.567 0 4-20.607 4-25l-1-1c-9.359 0-20.355 10.79-15 21.5l2 4.5h5ZM241 267h5c0-1.898 2.048-7.596 3-9.5l-1-2.5c0-8.93-5.084-14-14-14l-2 2c0 5.211-.558 24 5 24h4Z"/><path fill="#8599CC" id="PAL" d="m140 254-1 1 1-1Z"/><path fill="#FE5447" id="AVP" d="M195 259c.974 0 2.937-4.219 4.5-5 5.455-2.727 4.174 17.174-3.5 9.5l-1-2.5v-2ZM255 254c0 1.24-2 1.576-2 4l1 3.5c5.295 10.59 11.829-7.5 1-7.5Z"/><path fill="#8599CC" id="PAL" d="m318 256 1 1-1-1Z"/><path fill="#E64438" id="HY" d="M180 259c-1.622 0-5-.461-5 2l-2-2c0-1.638 3.576-2 5-2l2 2ZM283 259l-2 2c0-2.109-2.535-2-4-2l2-2 4 2Z"/><path fill="#8599CC" id="PAL" d="m319 258 4 5c-1.77 0-4-3.15-4-5ZM137 259l-1 1 1-1Z"/><path fill="#A2B1D8" id="MA" d="M164 277h7l4-2v-14l-2-2c-6.171 0-20.81 2.121-24 8.5l2.5 3.5c2.681 1.34 8.682 6 12.5 6Z"/><path fill="#96A6D3" id="NDB" d="m192 279-1 1c-3.459 0-7.627.437-10.5-1-1.362-.681-4.844-4-5.5-4v-14c0-2.461 3.378-2 5-2 4.782 0 10.386 7 13 7l1 2v2l-2 9ZM281 274c0 7.378-12.112 5-16 5 0-3.028-3-6.394-3-10l1-2 1-1c2.796 0 7.794-7 13-7 1.465 0 4-.109 4 2v13Z"/><path fill="#A2B1D8" id="MA" d="M285 277h8c0-.679 12.553-4.605 14-7.5 3.253-6.507-20.035-10.5-24-10.5l-2 2v13l4 3Z"/><path fill="#8599CC" id="PAL" d="m136 260-1 2 1-2Z"/><path fill="#A8A9AA" id="V3" d="M226 270h5l-2-3.5v-5c-.258-.517-3 6.75-3 8.5Z"/><path fill="#8599CC" id="PAL" d="m135 262-1 1 1-1ZM134 263l-1 1 1-1Z"/><path fill="#99D2BD" id="OLF" d="m126 265-1 1 1-1Z"/><path fill="#7FCCF7" id="OT" d="M179 287c0 6.2-9.044 6.272-12.5 8-9.617 4.809-19.365 4.817-29 0-2.422-1.211-10.5-4.231-10.5-7l-2-2v-1l-4-6v-2c0-4.453 4-7.331 4-11l1-1h2c0 7.859 18.519 14 25 14 1.72 0 11-.659 11-2h7c5.641 0 8 4.866 8 10Z"/><path fill="#E64438" id="HY" d="m193 266 1 2v-3l-1 1Z"/><path fill="#7FCCF7" id="OT" d="M331 286c0 2.862-6.654 6.077-8.5 7-11.182 5.591-20.171 7.914-32 2-2.734-1.367-12.5-1.673-12.5-7 0-4.71-.324-11 7-11h8c0 1.341 9.28 2 11 2 5.681 0 25-6.645 25-14h2c0 3.685 4 6.271 4 12v1l-3 7-1 1Z"/><path fill="#FD5545" id="VMPO" d="M216 275c-3.396 0-6.052 4-10 4 0-5.961 9-10.044 9-12h5c0 2.538-3 3.953-3 7l-1 1ZM239 274c3.767 0 6.538 5 11 5 0-6.835-9-9.887-9-12h-4c0 2.968 2 4.633 2 7Z"/><path fill="#CBCCCB" id="mfb" d="m264 266-1 1v-1h1Z"/><path fill="#E64438" id="HY" d="M205 279h1c0-5.961 9-10.044 9-12h-5c0 2.753-5.011 3-7 3 0 3.157 2 5.481 2 9ZM250 279l2 1c0-4.095 1-6.154 1-9 0-1.951-2.454-.477-3.5-1l-3.5-3h-5c0 2.113 9 5.165 9 12Z"/><path fill="#CAC8C7" id="lot" d="M119 281v2c-1.791 0-2.959 3.27-5.5 2-5.737-2.868-18.5-9.086-18.5-17 4.71 0 13.665 11 24 11v2Z"/><path fill="#FE5546" id="VLPO" d="M203 281h1l1-2c0-3.519-2-5.843-2-9l-3.5-2c-2.541-1.27-3.709 2-5.5 2l-2 9 9 2h2ZM252 280l4 1 9-2c0-3.028-3-6.394-3-10l-5.5-1-3.5 3c0 2.846-1 4.905-1 9Z"/><path fill="#CAC8C7" id="lot" d="M337 280v3c1.947 0 3.644 3.428 6.5 2 4.218-2.109 18.5-10.198 18.5-16-7.58 0-13.921 10-24 10l-1 1Z"/><path fill="#CAC7CB" id="fiber tracts" d="M222 273h6c0-1.577-1.762-2-3-2s-3 .423-3 2Z"/><path fill="#CAC7CB" id="fiber tracts" d="M201 281h2c0 1.602-3.058 2.384-2 4.5 1.112 2.224 9.007 3.746 11.5 2.5 4.298-2.149 26.774-2.113 31 0 3.192 1.596 12.5-.751 12.5-4.5l-3.5-2.5c-3.637-1.819-8.284-2.142-12-4-4.535-2.268-5.867-4-11.5-4 0-1.747.253-2 2-2l8 3c3.767 0 6.538 5 11 5l2 1 4 1c0 2.229 3 3.933 3 5.5 0 3.395-16.584 2.542-18.5 3.5-1.837.918-7.692 2.154-10 1l-2-3-2 3-14.5-1c-2.057 0-14-.902-14-3.5l3-5.5ZM221 273l-2 1 2-1Z"/><path fill="#CBCACC" id="och" d="M203 281h1c2.599 0 13-2.66 13-6l2-1 2-1h8c5.633 0 6.965 1.732 11.5 4 3.716 1.858 8.363 2.181 12 4l3.5 2.5c0 3.749-9.308 6.096-12.5 4.5-4.226-2.113-26.702-2.149-31 0-2.493 1.246-10.388-.276-11.5-2.5-1.058-2.116 2-2.898 2-4.5Z"/><path fill="#E64438" id="HY" d="M216 275h1v-1l-1 1Z"/><path fill="#CAC7CB" id="fiber tracts" d="m219 274-2 1v-1h2Z"/><path fill="#8599CC" id="PAL" d="M265 279c0 1.713 11.792 9 13 9 0-4.71-.324-11 7-11l-4-3c0 7.378-12.112 5-16 5ZM191 280c0 2.235-9.835 7-12 7 0-5.134-2.359-10-8-10l4-2c.656 0 4.138 3.319 5.5 4 2.873 1.437 7.041 1 10.5 1Z"/><path fill="#CAC7CB" id="fiber tracts" d="M205 279h1c3.948 0 6.604-4 10-4h1c0 3.34-10.401 6-13 6l1-2Z"/><path fill="#99D2BD" id="OLF" d="m121 279-2 2v-2l2-2v2ZM338 279l-1 1-2-2v-1l3 2Z"/><path fill="#97D6F9" id="STR" d="M337 283c-2.25 0-3.376 2-5 2l3-7 2 2v3ZM119 283c2.043 0 3.957 2 6 2l-4-6-2 2v2ZM332 285l-1 1 1-1ZM125 286l2 2-2-2Z"/></svg>