<svg xmlns="http://www.w3.org/2000/svg" viewBox="0 0 456 320"><path fill="#1E9C59" id="MOs1" d="M132 144c-2.666 0-2.482 3-5 3l-5-12.5c-2.584-5.168 1.03-16.06 3-20 7.794-15.588 16.306-24.403 32.5-32.5 9.73-4.865 29.193-12.403 40-7 2.932 1.466 15.5 1.665 15.5 7l-5 4h-1c0-1.183-3.57-1.535-4.5-2-3.168-1.584-14.109-4.945-18-3-5.648 2.824-13.4 1.2-19 4l-20 10c-6.364 3.182-10.34 15.34-15 20-3.076 3.076-2.329 16.842-.5 20.5.736 1.471-.357 7.5 2 7.5v1ZM325 144l4 3c1.722 0 2.368-5.235 3-6.5 3.564-7.128 3.532-17.936 0-25-9.78-19.56-20.525-27.012-39.5-36.5-5.421-2.71-12.565-2.283-18-5-4.732-2.366-31.5 3.12-31.5 8l6 3c6.088 0 16.071-7.214 22.5-4 5.655 2.827 13.378 1.189 19 4 16.004 8.002 28.269 15.038 36.5 31.5 3.697 7.395-2 20.795-2 27.5Z"/><path fill="#1E9D58" id="MOs2/3" d="M147 135c-6.041 0-9.825 8-15 8-2.357 0-1.264-6.029-2-7.5-1.829-3.658-2.576-17.424.5-20.5 4.66-4.66 8.636-16.818 15-20l20-10c5.6-2.8 13.352-1.176 19-4 3.891-1.945 14.832 1.416 18 3 .93.465 4.5.817 4.5 2l-5 6h-1c0-1.684-4.679-1-6-1-5.82 0-13.637-.432-18.5 2-18.623 9.312-29.5 21.222-29.5 42ZM324 144h1c0-6.705 5.697-20.105 2-27.5-8.231-16.462-20.496-23.498-36.5-31.5-5.622-2.811-13.345-1.173-19-4-6.429-3.214-16.412 4-22.5 4v1c1.726 0 5 4.558 5 6h1c3.613 0 11.484-3.008 15.5-1l14 4c15.054 7.527 25.5 22.274 25.5 40 2.216 0 14 6.301 14 9Z"/><path fill="#2FA750" id="PL1" d="M223 118h10v-1c0-7.306 6.355-31 16-31v-1l-6-3c-3.524 0-10.669 11.837-12 14.5-.457.914-1.383 7.5-2.5 7.5-.43 0-10.279-22-15.5-22l-5 4c8.756 0 15 23.019 15 31v1Z"/><path fill="#2FA74F" id="PL2/3" d="M217 116c1.564 0 3.876 1 6 1 0-7.981-6.244-31-15-31h-1l-5 6c10.844 0 15 15.573 15 24ZM239 116c-1.564 0-3.876 1-6 1 0-7.306 6.355-31 16-31 1.726 0 5 4.558 5 6-10.371 0-15 15.636-15 24Z"/><path fill="#1F9D58" id="MOs5" d="M147 135c3.894 0 6.605 2 10 2l5-11c0-2.456-4.795-3.911-3-7.5 7.266-14.532 20.126-16.5 34-16.5 0-2.504 8-5.977 8-10 0-1.684-4.679-1-6-1-5.82 0-13.637-.432-18.5 2-18.623 9.312-29.5 21.222-29.5 42ZM310 135c-4.232 0-7.38 2-11 2 0-3.827-4-6.918-4-11 0-2.395 3.619-5.263 2-8.5-6.998-13.995-21.663-15.5-34-15.5l-8-10c3.613 0 11.484-3.008 15.5-1l14 4c15.054 7.527 25.5 22.274 25.5 40Z"/><path fill="#2EA84F" id="PL5" d="m205 112 12 4c0-8.427-4.156-24-15-24h-1c0 4.023-8 7.496-8 10 3.445 0 12 5.949 12 10ZM252 111c-3.884 0-8.405 5-13 5 0-8.364 4.629-24 15-24h1l8 10c-4.75 0-8.19 9-11 9Z"/><path fill="#258F45" id="FRP5" d="M188 114c-9.958 0-18.271 12-26 12 0-2.456-4.795-3.911-3-7.5 7.266-14.532 20.126-16.5 34-16.5 3.445 0 12 5.949 12 10 0 8.541 2.967 4-3 4-1.733 0-14-3.708-14-2ZM253 117h1l1-1c4.131 0 8.96-2 14-2 9.915 0 17.881 12 26 12 0-2.395 3.619-5.263 2-8.5-6.998-13.995-21.663-15.5-34-15.5-4.75 0-8.19 9-11 9 0 4.817-3.814 6 1 6Z"/><path fill="#23885E" id="ORBm5" d="M246 131h1l6-14c-4.814 0-1-1.183-1-6-3.884 0-8.405 5-13 5 0 4.117 1.226 15 7 15ZM217 116c0 5.282-.313 15-7 15l-8-15c5.967 0 3 4.541 3-4l12 4Z"/><path fill="#23885C" id="ORBvl5" d="M185 129c8.616 0 17.01 2 25 2l-8-15c-1.733 0-14-3.708-14-2 0 4.317-3 8.949-3 14v1Z"/><path fill="#228A5D" id="ORBl5" d="M155 146v1c10.734 0 12.193-19 30-19 0-5.051 3-9.683 3-14-9.958 0-18.271 12-26 12l-5 11-2 9Z"/><path fill="#23885C" id="ORBvl5" d="M272 128c-7.874 0-17.166 3-25 3l6-14h1l1-1c4.131 0 8.96-2 14-2 0 4.527 3 9.284 3 14Z"/><path fill="#228A5D" id="ORBl5" d="M302 146v1c-12.327 0-13.032-19-30-19 0-4.716-3-9.473-3-14 9.915 0 17.881 12 26 12 0 4.082 4 7.173 4 11 0 1.812 2 1.87 2 2.5 0 .211-.855 6.5 1 6.5Z"/><path fill="#24885D" id="ORBm2/3" d="M210 131c0 5.027 6 9.607 6 15 9.61 0 7-20.834 7-28v-1c-2.124 0-4.436-1-6-1 0 5.282-.313 15-7 15ZM240 146h1c0-5.777 5-9.764 5-15-5.774 0-7-10.883-7-15-1.564 0-3.876 1-6 1v1c0 6.205-.831 28 7 28Z"/><path fill="#23885E" id="ORBm5" d="m255 116-1 1 1-1Z"/><path fill="#23895D" id="ORBm1" d="m237 159-1 1-5-1c0-2.029-1.191-1.881-2-3.5-1.973-3.945.04-3.079-2 1l-2 2.5c-1.041 0-5 2.36-5 0 0-4.366-4-9.184-4-13 9.61 0 7-20.834 7-28h10c0 6.205-.831 28 7 28 0 4.185-3 8.266-3 13Z"/><path fill="#238A5E" id="ORBl2/3" d="M155 147c0 6.216-3 13.589-3 20 7.627 0 20.403-27 31-27v-1c0-1.737.516-10 2-10v-1c-17.807 0-19.266 19-30 19Z"/><path fill="#248A5D" id="ORBvl2/3" d="M273 139c-12.595 0-21.165 7-32 7 0-5.777 5-9.764 5-15h1c7.834 0 17.126-3 25-3 0 2.998 1 7.358 1 11Z"/><path fill="#238A5E" id="ORBl2/3" d="m302 147 2 20-8-7.5c-4.093-4.093-16.573-19.5-22-19.5l-1-1c0-3.642-1-8.002-1-11 16.968 0 17.673 19 30 19Z"/><path fill="#248A5D" id="ORBvl2/3" d="M183 139c12.703 0 21.296 7 33 7 0-5.393-6-9.973-6-15-7.99 0-16.384-2-25-2-1.484 0-2 8.263-2 10Z"/><path fill="#209765" id="AId2/3" d="M155 147c0 6.216-3 13.589-3 20-7.796 0-20-16.211-20-23v-1c5.175 0 8.959-8 15-8 0 3.229 4.348 11 8 11v1Z"/><path fill="#209665" id="AId5" d="m157 137-2 9c-3.652 0-8-7.771-8-11 3.894 0 6.605 2 10 2ZM299 137c0 1.812 2 1.87 2 2.5 0 .211-.855 6.5 1 6.5 3.014 0 8-8.691 8-11-4.232 0-7.38 2-11 2Z"/><path fill="#209765" id="AId2/3" d="M304 167h1c6.921 0 19-14.963 19-23 0-2.699-11.784-9-14-9 0 2.309-4.986 11-8 11v1l2 20Z"/><path fill="#248A5B" id="ORBvl1" d="M219 159h1c0-4.366-4-9.184-4-13-11.704 0-20.297-7-33-7v10c6.971 0 14.654 2.077 20.5 5 .984.492 5.5.851 5.5 2l7 2 1 1h2ZM247 156c-3.686 0-6.177 3-10 3 0-4.734 3-8.815 3-13h1c10.835 0 19.405-7 32-7l1 1v9c-7.31 0-15.377 1.938-21.5 5-.984.492-5.5.851-5.5 2Z"/><path fill="#238A5D" id="ORBl1" d="M151 175h3l1-1 6-6.5c5.395-5.395 14.357-18.5 22-18.5v-9c-10.597 0-23.373 27-31 27l-1 7v1ZM302 175h3v-8h-1l-8-7.5c-4.093-4.093-16.573-19.5-22-19.5v9c3.399 0 28 24.118 28 26Z"/><path fill="#209764" id="AId1" d="m151 174-2 1c-5.323 0-22-22.584-22-28 2.518 0 2.334-3 5-3 0 6.789 12.204 23 20 23l-1 7ZM305 174l2 1c6.198 0 22-22.551 22-28l-4-3h-1c0 8.037-12.079 23-19 23v7Z"/><path fill="#99D2BD" id="OLF" fill-rule="evenodd" d="m179 151-1 3.5c2.616 5.232 9.922-1.789 6.5-3.5H179m-22 28c-1.643 0-1 3.765-1 5l1 15c-7.564 0-3-20.07-3-24l1-1 6-6.5c5.395-5.395 14.357-18.5 22-18.5 6.971 0 14.654 2.077 20.5 5 .984.492 5.5.851 5.5 2l-12.5-1-2.5 3.5c1.172 2.345 6 3.777 6 7.5l-7.5-5c-4.166-2.083-10.558 0-14.5 0-1.465 0-4-.109-4 2-1.856 0-7 1.782-7 4-4.443 0-10 8.062-10 12ZM272 151l-1 3.5c2.183 4.366 10.835-.832 5.5-3.5H272m28 28c0 2.454 2.489 7.523 1 10.5-1.535 3.071-2 6.805-2 10.5 7.851 0 3-21.394 3-25 0-1.882-24.601-26-28-26-7.31 0-15.377 1.938-21.5 5-.984.492-5.5.851-5.5 2 1.741 0 17.852-3.203 15 2.5-1.092 2.184-5 2.895-5 6.5l7.5-4c3.881-1.941 9.894 0 13.5 0 6.203 0 22 10.758 22 18Z"/><path fill="#9DF0D1" id="AOBgl" d="m179 151-1 3.5c2.616 5.232 9.922-1.789 6.5-3.5H179ZM272 151l-1 3.5c2.183 4.366 10.835-.832 5.5-3.5H272Z"/><path fill="#9AD1BD" id="MOB" d="m215 248-1 1c-2.618 0-7.472 2.514-10.5 1l-9.5-4c0-1.564-1-3.876-1-6 0-8.264 4-14.385 4-22l1-9 1-8c0-4.255 2.12-11.739 4-15.5 2.449-4.898-2-12.018-2-16.5l-1-2v-1c0-3.723-4.828-5.155-6-7.5l2.5-3.5 12.5 1 7 2 1 1h2l6 8.5c.662 1.324.353 8.5 2 8.5v47l-1 1v4l-1 1v3c-1.473 0-1 1.952-1 3l-1 2-1 2-1 2c-1.712 0-3 2.571-3 4l-1 1-1 1-1 1ZM240 247l2 2c3.263 0 21 1.531 21-4l1-5c0-7.616-4-13.446-4-21 0-2.978-1-6.49-1-10-.792 0-2-7.987-2-9 0-3.378-1.527-8.555-3-11.5-2.933-5.867 2-15.399 2-20.5v-1l1-1v-1c0-3.605 3.908-4.316 5-6.5 2.852-5.703-13.259-2.5-15-2.5-3.686 0-6.177 3-10 3l-1 1-5 8v1c0 1.145.579 4-1 4v5c0 2.241.804 17-1 17v24c1.473 0 1 1.952 1 3l1 8c1.353 0 2 4.643 2 6v1c1.549 0 7 8.454 7 10Z"/><path fill="#99D2BD" id="OLF" d="m216 158 1 1-1-1ZM225 159c0 6.369 2 10.951 2 17-1.647 0-1.338-7.176-2-8.5l-6-8.5h1c0 2.36 3.959 0 5 0ZM236 160l-5 8v-9l5 1ZM237 159l-1 1 1-1Z"/><path fill="#54BF94" id="AON" d="M183 235c3.349 0 5.827 5 10 5 0-8.264 4-14.385 4-22-2.158 0-3.001-4.503-4-6.5-3.039-6.078-4.954-12.908-8-19l-3-4c0-6.313 11 .403 11 7.5 2.734 0 2.909 5 6 5 0-4.255 2.12-11.739 4-15.5 2.449-4.898-2-12.018-2-16.5-.896 0-3.026-2-1-2v-1l-7.5-5c-4.166-2.083-10.558 0-14.5 0 0 2.109-2.535 2-4 2 0 1.948-5.428 4-7 4l-10 12c0 15.495 7.634 26.768 14 39.5 2.846 5.692 12 9.974 12 16.5ZM273 234c0 2.561-6.864 6-9 6 0-7.616-4-13.446-4-21 1.951 0 .477-2.454 1-3.5 2.277-4.553 3.767-9.534 6-14 1.209-2.418 8.3-11.4 7-14-2.971-5.942-11 4.699-11 9.5-2.141 0-2.63 3-6 3 0-3.378-1.527-8.555-3-11.5-2.933-5.867 2-15.399 2-20.5l1-1v-2l7.5-4c3.881-1.941 9.894 0 13.5 0 0 2.341 2.342 1.421 3.5 2l11 7 6.5 9c0 15.763-8.034 27.569-15 41.5L273 234Z"/><path fill="#CACAC9" id="lotd" d="M178 161c-1.465 0-4-.109-4 2 1.465 0 4 .109 4-2ZM299 179h1c0-7.242-15.797-18-22-18 0 2.341 2.342 1.421 3.5 2l11 7 6.5 9ZM174 163c-1.856 0-7 1.782-7 4 1.572 0 7-2.052 7-4Z"/><path fill="#99D2BD" id="OLF" d="M256 167h1v-1l-1 1Z"/><path fill="#CACAC9" id="lotd" d="M167 167c-4.443 0-10 8.062-10 12l10-12ZM200 167l1 2c-.896 0-3.026-2-1-2ZM257 167l-1 1v-1h1Z"/><path fill="#99D2BD" id="OLF" d="M231 169c-1.579 0-1 2.855-1 4 1.579 0 1-2.855 1-4Z"/><path fill="#209864" id="AIv1" d="M149 175h2v-1l-2 1ZM305 175h2l-2-1v1Z"/><path fill="#99D2BD" id="OLF" d="M230 178c-1.804 0-1 14.759-1 17 1.804 0 1-14.759 1-17Z"/><path fill="#CAC8C7" id="lot" d="M181 235h2c0-6.526-9.154-10.808-12-16.5-6.366-12.732-14-24.005-14-39.5-1.643 0-1 3.765-1 5l1 15v1l1 2c0 6.81 15.151 33 23 33ZM273 234l3 1c7.048 0 22-26.122 22-32l1-2v-1c0-3.695.465-7.429 2-10.5 1.489-2.977-1-8.046-1-10.5h-1c0 15.763-8.034 27.569-15 41.5L273 234Z"/><path fill="#CBCBC7" id="aco" d="m198 209-1 9c-2.158 0-3.001-4.503-4-6.5-3.039-6.078-4.954-12.908-8-19l-3-4c0-6.313 11 .403 11 7.5 0 1.492 4.403 13 5 13ZM259 209c0 3.51 1 7.022 1 10 1.951 0 .477-2.454 1-3.5 2.277-4.553 3.767-9.534 6-14 1.209-2.418 8.3-11.4 7-14-2.971-5.942-11 4.699-11 9.5 0 4.264-4 7.497-4 12Z"/><path fill="#99D2BD" id="OLF" d="m199 201-1 8c-.597 0-5-11.508-5-13 2.734 0 2.909 5 6 5ZM257 200c0 1.013 1.208 9 2 9 0-4.503 4-7.736 4-12-2.141 0-2.63 3-6 3ZM157 200l1 2-1-2ZM299 201l-1 2 1-2ZM229 219c1.473 0 1 1.952 1 3-1.473 0-1-1.952-1-3ZM227 223l-1 1 1-1Z"/><path fill="#C7CBCA" id="onl" d="m226 228-1 1 1-1ZM231 230c1.353 0 2 4.643 2 6-1.353 0-2-4.643-2-6ZM225 232c-1.473 0-1 1.952-1 3 1.473 0 1-1.952 1-3Z"/><path fill="#99D2BD" id="OLF" d="m264 240-1 5c2.74 0 13-6.518 13-10l-3-1c0 2.561-6.864 6-9 6ZM193 240c0 2.124 1 4.436 1 6-3.061 0-13-7.548-13-11h2c3.349 0 5.827 5 10 5Z"/><path fill="#C7CBCA" id="onl" d="m224 235-1 2 1-2ZM223 237l-1 2 1-2ZM233 237c1.549 0 7 8.454 7 10-2.171 0-7-8.21-7-10ZM222 239l-1 2 1-2ZM221 241c-1.712 0-3 2.571-3 4 1.712 0 3-2.571 3-4ZM218 245l-1 1 1-1ZM217 246l-1 1 1-1Z"/><path fill="#99D2BD" id="OLF" d="m216 247-1 1 1-1ZM240 247l2 2-2-2ZM215 248l-1 1 1-1Z"/></svg>