<svg xmlns="http://www.w3.org/2000/svg" viewBox="0 0 456 320"><path fill="#1E9D5A" id="MOp1" d="m151 37-1 7 41-9h1v-4c-4.169 0-21.884.692-24.5 2-4.553 2.276-11.152 4-16.5 4Z"/><path fill="#1E9C59" id="MOs1" d="M227 47c-1.624 0-2.75 2-5 2 0-11.918-21.118-14-30-14v-4c12.818 0 24.783-.934 31 11.5.595 1.19 4 2.317 4 4.5ZM229 47c1.624 0 2.75 2 5 2l2-3.5 6.5-6.5c7.248-3.624 13.638-4 22.5-4l-1-4c-10.921 0-23.588-1.324-29 9.5-.958 1.916-6 3.303-6 6.5Z"/><path fill="#1E9D5A" id="MOp1" d="m305 37 1 7c-12.501 0-28.024-9-41-9l-1-4c4.727 0 21.337.419 24.5 2 4.25 2.125 11.627 4 16.5 4Z"/><path fill="#1F9C58" id="MOp2/3" d="m148 61 1 6c5.078 0 30.155-19 40-19l1-1 1-12-41 9c0 4.734-1 10.644-1 16l-1 1Z"/><path fill="#1E9D58" id="MOs2/3" d="m222 50-6 3c-.555 0-6.846-6.173-8.5-7-5.207-2.603-11.99 1-17.5 1l1-12h1c8.882 0 30 2.082 30 14v1ZM234 50l6 3c.555 0 6.846-6.173 8.5-7 5.494-2.747 12.691 1 18.5 1 0-4.335-2-6.74-2-12-8.862 0-15.252.376-22.5 4l-6.5 6.5-2 3.5v1Z"/><path fill="#1F9C58" id="MOp2/3" d="M309 64c-1.473 0-1 1.952-1 3-7.477 0-29.626-19-41-19v-1c0-4.335-2-6.74-2-12 12.976 0 28.499 9 41 9h1c0 5.247 1 11.873 1 17l1 2v1Z"/><path fill="#187F60" id="SSp-ll1" d="m150 44-8 3-1-6c0-.567 8.99-4 10-4l-1 7ZM314 47h1v-6c0-1.26-8.632-4-10-4l1 7h1c.978 0 7 2.267 7 3Z"/><path fill="#197E64" id="SSp-ul1" d="M103 59c1.638 0 2 3.576 2 5 5.243 0 26.364-17 37-17l-1-6c-9.167 0-20.574 8.037-28.5 12-1.708.854-9.5 3.711-9.5 6ZM353 59c0 2.732-2 2.259-2 5-5.816 0-25.73-17-36-17v-6c8.707 0 20.85 8.175 28.5 12 1.816.908 9.5 3.245 9.5 6Z"/><path fill="#187F64" id="SSp-ll2/3" d="M147 61h1l1-1c0-5.356 1-11.266 1-16l-8 3 4 14h1ZM308 61h2l4-14c0-.733-6.022-3-7-3 0 5.247 1 11.873 1 17Z"/><path fill="#1F9D58" id="MOs5" d="M203 65h1c0-2.601 10.322-11 12-11v-1c-.555 0-6.846-6.173-8.5-7-5.207-2.603-11.99 1-17.5 1l-1 1-3 17c2.168 0 17-7.621 17 0ZM253 64c2.947 0 7.527-3.986 11.5-2l6.5 3c0-5.98-4-10.866-4-17v-1c-5.809 0-13.006-3.747-18.5-1-1.654.827-7.945 7-8.5 7v1c5.553 0 8.113 10 13 10Z"/><path fill="#197F61" id="SSp-ul2/3" d="M105 65c1.604 0 6 9.417 6 11 4.006 0 26.628-15 35-15l-4-14c-10.636 0-31.757 17-37 17v1Z"/><path fill="#3EA665" id="ACAd1" d="M233 74c-3.325 0-7.31 1-10 1V56c0-1.32.684-6-1-6v-1c2.25 0 3.376-2 5-2 1.2 0 2 3.746 2 0 1.624 0 2.75 2 5 2v1c0 7.217-1 16.105-1 24Z"/><path fill="#197F61" id="SSp-ul2/3" d="M351 65c0 .935-5.342 11-6 11-3.997 0-26.113-15-35-15l4-14h1c10.27 0 30.184 17 36 17v1Z"/><path fill="#1E9C5A" id="MOp5" d="M148 68v15c10.585 0 29.118-17 37-17l1-1 3-17c-9.845 0-34.922 19-40 19h-1v1ZM308 67c0 5.75 1 10.595 1 16-6.93 0-22.045-8.773-28.5-12l-9.5-6c0-5.98-4-10.866-4-17 11.374 0 33.523 19 41 19Z"/><path fill="#40A565" id="ACAd2/3" d="m223 75-5 1c0-5.22-1-11.21-1-17 0-1.234.643-5-1-5v-1l6-3c1.684 0 1 4.68 1 6v19ZM233 75c2.124 0 4.436 1 6 1 0-7.234 1-15.443 1-22v-1l-6-3c0 7.217-1 16.105-1 24v1Z"/><path fill="#3EA566" id="ACAd5" d="M218 76c-4.517 0-11.692 7-13 7 0-6.102-1-12.479-1-18 0-2.601 10.322-11 12-11 1.643 0 1 3.766 1 5 0 5.79 1 11.78 1 17ZM239 76l12 6c0-2.835.419-16 2-16v-2c-4.887 0-7.447-10-13-10 0 6.557-1 14.766-1 22Z"/><path fill="#1B8062" id="SSp-un1" d="m92 66 2 6c4.088 0 6.773-7 11-7v-1c0-1.424-.362-5-2-5-1.693 0-11 5.616-11 7ZM365 67l-3 5c-3.645 0-6.841-7-11-7v-1c0-2.741 2-2.268 2-5 2.218 0 12 5.575 12 8Z"/><path fill="#1C7F64" id="SSp-ll4" d="m149 60-1 1 1-1Z"/><path fill="#1A7F63" id="SSp-ul4" d="M114 84h1l7-3.5c2.563-2.563 22.675-12.5 26-12.5v-1c0-2.009-1-4.272-1-6h-1c-8.372 0-30.994 15-35 15v1c0 1.393 3 4.008 3 7Z"/><path fill="#1C7F64" id="SSp-ll4" d="M148 67h1l-1-6h-1c0 1.728 1 3.991 1 6ZM310 61l-1 2-1-2h2Z"/><path fill="#1A7F63" id="SSp-ul4" d="M341 84h1c0-2.46 3-4.227 3-7v-1c-3.997 0-26.113-15-35-15l-1 2v4l7.5 4c6.452 3.226 12.554 6.777 19 10l5.5 3Z"/><path fill="#1D9C5A" id="MOs6a" d="m192 85-8 2c0-7.133 1-13.666 1-21l1-1c2.168 0 17-7.621 17 0 0 4.333-11 13.765-11 20ZM265 85l8 2c0-8.806-2-13.905-2-22l-6.5-3c-3.973-1.986-8.553 2-11.5 2v2c2.745 0 11 16.288 11 19h1Z"/><path fill="#1C7F64" id="SSp-ll4" d="M308 67h1v-3c-1.473 0-1 1.952-1 3Z"/><path fill="#1C7F63" id="SSp-un2/3" d="M99 82h1c0-.896 2-3.026 2-1h1l1-1 7-3v-1c0-1.583-4.396-11-6-11-4.227 0-6.912 7-11 7l5 10Z"/><path fill="#3FA664" id="ACAd6a" d="M196 90h1l8-7c0-6.102-1-12.479-1-18h-1c0 4.333-11 13.765-11 20 1.533 0 4 3.753 4 5Z"/><path fill="#1F9B5A" id="MOp6a" d="M308 102h1V83c-6.93 0-22.045-8.773-28.5-12l-9.5-6c0 8.095 2 13.194 2 22v1c6.18 0 20.623 8.062 26.5 11 1.397.699 8.5 1.242 8.5 3Z"/><path fill="#1C7F63" id="SSp-un2/3" d="M354 81c0-1.728 3 .187 3 1 3.697 0 2.062-9 6-9l-1-1c-3.645 0-6.841-7-11-7 0 .935-5.342 11-6 11v1l6 3h1l1 1h1Z"/><path fill="#197E63" id="SSp-n1" d="M67 101c-2.7 0-4.762 3-8 3 0-6.647 19.67-29.585 26.5-33 2.338-1.169 3.723-5 6.5-5l2 6c-3.837 0-25 23.186-25 27l-1 1-1 1Z"/><path fill="#1F9B5A" id="MOp6a" d="M158 99c-3.679 0-6.731 3-10 3V83c10.585 0 29.118-17 37-17 0 7.334-1 13.867-1 21l-3 2c-1.465 0-4-.109-4 2-1.465 0-4-.109-4 2-1.623 0-6 .005-6 2-1.424 0-5 .362-5 2-1.465 0-4-.109-4 2Z"/><path fill="#3FA664" id="ACAd6a" d="m261 89-1 1c-4.045 0-5.446-7-9-7v-1c0-2.835.419-16 2-16 2.745 0 11 16.288 11 19l-1 2c-1.747 0-2 .253-2 2Z"/><path fill="#187E62" id="SSp-ul5" d="M336 95h1c0-4.345 4-6.655 4-11l-5.5-3c-6.446-3.223-12.548-6.774-19-10l-7.5-4h-1c0 5.75 1 10.595 1 16 7.219 0 21.948 12 27 12Z"/><path fill="#197E63" id="SSp-n1" d="M389 101c2.902 0 6.443 4 9 4 0-7.273-20.198-29.849-24.5-32-2.949-1.475-4.996-6-8.5-6l-3 5 1 1c4.389 0 26 24.04 26 27v1Z"/><path fill="#187E62" id="SSp-ul5" d="M120 95h1l5.5-3c5.938-2.97 14.671-9 21.5-9V68c-3.325 0-23.437 9.937-26 12.5l-7 3.5c0 3.767 5 7.535 5 11Z"/><path fill="#1B7F64" id="SSp-n2/3" d="M83 95c-6.055 0-7.675 4-14 4 0-3.814 21.163-27 25-27l5 10v1l-1 1c-2.143 0-11 5.147-11 8l-1 1-2 1-1 1ZM371 93c3.262 0 12.712 7 18 7 0-2.96-21.611-27-26-27-3.938 0-2.303 9-6 9v1l1 1c2.417 0 12 5.843 12 9h1Z"/><path fill="#40A664" id="ACAv1" d="M229 101c2.832 0 2.953 5 5 5 0-10.047-1-20.446-1-31v-1c-3.325 0-7.31 1-10 1 0 10.42-1 21.17-1 31l5-5c0-3.15 2-3.446 2 0Z"/><path fill="#3FA566" id="ACAv2/3" d="m221 109-3 1V76l5-1c0 10.42-1 21.17-1 31l-1 3ZM235 108l3 1c0-10.465 1-21.934 1-33-1.564 0-3.876-1-6-1 0 10.554 1 20.953 1 31l1 2Z"/><path fill="#3EA666" id="ACAv5" d="M209 105c0 1.987 7.371 5 9 5V76c-4.517 0-11.692 7-13 7 0 7.152 4 15.026 4 22ZM247 106c0 1.255-9 4.168-9 3 0-10.465 1-21.934 1-33l12 6v1c0 7.988-4 15.64-4 23Z"/><path fill="#197E61" id="SSp-un4" d="M112 85h1l1-1c0-2.992-3-5.607-3-7l-7 3v1c3.715 0 5.378 4 8 4ZM344 85h1l6-5-6-3c0 2.773-3 4.54-3 7l2 1Z"/><path fill="#1A7E64" id="SSp-m2/3" d="m102 81-2 1c0-.896 2-3.026 2-1ZM103 81h1v-1l-1 1Z"/><path fill="#1B7F62" id="SSp-m4" d="M391 134c-2.732 0-2.259 2-5 2 0-7.759-19.114-33.614-25.5-40-2.092-2.092-15.5-9.986-15.5-11l6-5h1l1 1h1l3 2 1 1c0 4.102 7.504 9 12 9h1l10 12.5c3.66 7.32 10 20.11 10 28.5Z"/><path fill="#197E61" id="SSp-un4" d="m352 80 1 1-1-1Z"/><path fill="#1A7E64" id="SSp-m2/3" d="M357 82v1l-3-2c0-1.728 3 .187 3 1Z"/><path fill="#1B7F62" id="SSp-m4" d="m65 134 5 2 3.5-7c.9-.9 12.254-21.008 13.5-23.5L101.5 91c1.776-.888 10.5-3.651 10.5-6-2.622 0-4.285-4-8-4h-2l-2 1-1 1-1 1 1 2.5-1.5-.5c-.203 0-7.167 6-10.5 6l-1 1-2 1-1 1c0 1.382-10.297 17.094-12 20.5l-4 13c0 .854-1.157 4.5-2 4.5v1Z"/><path fill="#1A7E64" id="SSp-m2/3" d="m100 82-1 1v-1h1Z"/><path fill="#197D61" id="SSp-ul6a" d="M128 110h1l4-1 8-4c0-1.429 5.655-3 7-3V83c-6.829 0-15.562 6.03-21.5 9l-5.5 3v3c1.91 0 7 10.161 7 12Z"/><path fill="#40A564" id="ACAv6a" d="M207 105h2c0-6.974-4-14.848-4-22l-8 7c0 6.02 10 9.165 10 14v1ZM249 105l-2 1c0-7.36 4-15.012 4-23 3.554 0 4.955 7 9 7v1l-3 6c-1.747 0-2 .253-2 2-1.747 0-2 .253-2 2-2.226 0-4 1.774-4 4Z"/><path fill="#197D61" id="SSp-ul6a" d="M309 102c6.613 0 12.239 8 19 8l7-12 1-1v-2c-5.052 0-19.781-12-27-12v19Z"/><path fill="#1A8062" id="SSp-n4" d="M98 84c-2.143 0-11 5.147-11 8 3.333 0 10.297-6 10.5-6l1.5.5-1-2.5Z"/><path fill="#197D62" id="SSp-un5" d="M119 95h1c0-3.465-5-7.233-5-11h-1l-1 1c0 1.834 4.654 10 6 10ZM337 95h1l6-10-2-1h-1c0 4.345-4 6.655-4 11Z"/><path fill="#1A8062" id="SSp-n4" d="M358 84c2.417 0 12 5.843 12 9-4.496 0-12-4.898-12-9Z"/><path fill="#1B7E63" id="SSp-m5" d="M70 137c4.469 0 7.077 5 11 5l3-8.5c7.97-15.94 7.053-23.276 25.5-32.5 3.377-1.688 5.419-5 9.5-5v-1c-1.346 0-6-8.166-6-10h-1c0 2.349-8.724 5.112-10.5 6L87 105.5c-1.246 2.492-12.6 22.6-13.5 23.5l-3.5 7v1Z"/><path fill="#1E9C58" id="MOs6b" d="M192 87c-3.138 0-5.662 2-8 2v-2l8-2v2Z"/><path fill="#3FA466" id="ACAd6b" d="M196 90v1c-2.007 0-1.121-4-4-4v-2c1.533 0 4 3.753 4 5ZM263 87h2v-2h-1l-1 2Z"/><path fill="#1E9C58" id="MOs6b" d="M272 88h1v-1l-8-2v2l7 1Z"/><path fill="#1B7E63" id="SSp-m5" d="M375 142h1l10-5v-1c0-7.759-19.114-33.614-25.5-40-2.092-2.092-15.5-9.986-15.5-11h-1l-6 10 18.5 12c8.085 4.043 18.5 27.171 18.5 35Z"/><path fill="#1D9D5A" id="MOp6b" d="M181 89h3v-2l-3 2Z"/><path fill="#CACCC7" id="cing" d="M207 104v1c-9.243 0-11.149-9.325-18.5-13-5.869-2.935-13.951 5-19.5 5l-1 1h-6v-1c1.622 0 5 .46 5-2 1.623 0 6-.005 6-2 1.465 0 4 .109 4-2l4-2h3c2.338 0 4.862-2 8-2 2.879 0 1.993 4 4 4 0 3.71 6.75 13 11 13Z"/><path fill="#3FA466" id="ACAd6b" d="M263 87c-1.747 0-2 .253-2 2l2-2Z"/><path fill="#CACCC7" id="cing" d="M253 101c0 2.618-3 1.651-3 4 8.4 0 11.216-9.858 17.5-13 6.104-3.052 13.961 5 19.5 5l1 1h6c0-1.183-3.57-1.535-4.5-2l-14-7c-1.046-.523-3.5.951-3.5-1l-7-1h-2l-2 2v2c0 1.417-2.383 6-4 6 0 1.747-.253 2-2 2 0 1.747-.253 2-2 2Z"/><path fill="#1D9D5A" id="MOp6b" d="M308 102v1l-14-5c0-1.183-3.57-1.535-4.5-2l-14-7c-1.046-.523-3.5.951-3.5-1h1c6.18 0 20.623 8.062 26.5 11 1.397.699 8.5 1.242 8.5 3ZM181 89c-1.465 0-4-.109-4 2l4-2Z"/><path fill="#3FA466" id="ACAd6b" d="M260 91h1v-2l-1 1v1Z"/><path fill="#40A465" id="ACAv6b" d="M196 91c0 3.71 6.75 13 11 13 0-4.835-10-7.98-10-14h-1v1Z"/><path fill="#1D9D5A" id="MOp6b" d="M177 91c-1.465 0-4-.109-4 2 1.465 0 4 .109 4-2Z"/><path fill="#40A465" id="ACAv6b" d="M261 91c0 1.417-2.383 6-4 6l3-6h1Z"/><path fill="#1A8062" id="SSp-n4" d="m87 92-1 1 1-1Z"/><path fill="#C9C7C9" id="ccb" d="M363 167h2l-1-3-1-1v-2l-1-1v-1l-1-1v-2l-1-1v-1l-1-2v-1l-6-11.5c-3.826-7.652-14.39-20.445-22.5-24.5-9.651-4.826-20.408-7.204-30-12-1.767-.883-11.5-2.902-11.5-5h-1l-1-1c-5.539 0-13.396-8.052-19.5-5-6.284 3.142-9.1 13-17.5 13h-1l-2 1c0 1.255-9 4.168-9 3l-3-1c0 1.614-3.31 1-4.5 1H221l-3 1c-1.629 0-9-3.013-9-5h-2c-9.243 0-11.149-9.325-18.5-13-5.869-2.935-13.951 5-19.5 5l-1 1h-1l-7.5 4-26 9c-6.348 3.174-12.661 7.661-18 13l-6.5 7c0 1.334-2.972 6-4 6 0 1.417-2.383 6-4 6 0 1.465.109 4-2 4l-1 2c0 1.048.473 3-1 3v3c1.881 0 5.15-8.8 6-10.5 3.253-6.505 12.214-19.857 19.5-23.5 19.617-9.808 31.709-14 54.5-14l3.5-3c4.33-2.165 22.5 8.112 22.5 11h2c6.058 0 11.542 5 17 5l1 1h4c0-1.919 2-2.488 2 0h5l1-1c0-2.423 15.279-4 17-4l1-1 1-1 2-1c0-2.956 23-14.976 23-6 31.73 0 59.402 9.304 74 38.5 3.18 6.359 10 14.104 10 21.5Z"/><path fill="#1D9D5A" id="MOp6b" d="M173 93c-1.623 0-6 .005-6 2 1.623 0 6-.005 6-2Z"/><path fill="#1A7E64" id="SSp-m2/3" fill-rule="evenodd" d="M387 100c0 1.93 1.93 0 0 0m13 28-9 6c0-8.39-6.34-21.18-10-28.5L371 93c3.262 0 12.712 7 18 7v1c0 2.965 11 20.268 11 27Z"/><path fill="#1A7E64" id="SSp-m2/3" d="m84 94-1 1 1-1ZM56 128c3.912 0 5.153 5 9 5 .843 0 2-3.646 2-4.5l4-13c1.703-3.406 12-19.118 12-20.5-6.055 0-7.675 4-14 4l-1 1-1 1c0 5.313-11 20.022-11 27Z"/><path fill="#1A7F61" id="SSp-un6a" d="m119 96 2 2v-3h-2v1Z"/><path fill="#1D9D5A" id="MOp6b" d="M167 95c-1.424 0-5 .362-5 2 1.622 0 5 .46 5-2Z"/><path fill="#1A7F61" id="SSp-un6a" d="m337 95-1 2v-2h1Z"/><path fill="#187D61" id="SSp-m6a" d="m375 142-14 7-6-11.5c-2.887-5.773-21.077-27.5-27-27.5l7-12 1-1 1-2h1l18.5 12c8.085 4.043 18.5 27.171 18.5 35ZM81 143c6.106 0 8.696 6 15 6 0-2.018 9.415-18 11-18 0-3.592 14.328-18 18-18l3-3c0-1.839-5.09-12-7-12l-2-2c-4.081 0-6.123 3.312-9.5 5-18.447 9.224-17.53 16.56-25.5 32.5l-3 8.5v1Z"/><path fill="#1D9D5A" id="MOp6b" d="m162 98-4 1c0-2.109 2.535-2 4-2v1Z"/><path fill="#C9C9CA" id="scwm" d="m169 97-1 1 1-1Z"/><path fill="#40A465" id="ACAv6b" d="M257 97c-1.747 0-2 .253-2 2 1.747 0 2-.253 2-2Z"/><path fill="#C9C9CA" id="scwm" d="m287 97 1 1-1-1Z"/><path fill="#1A7F61" id="SSp-un6a" d="m336 97-1 1 1-1Z"/><path fill="#C9C9CA" id="scwm" d="M125 113c0 2.853-16 11.84-16 18l6.5-7c5.339-5.339 11.652-9.826 18-13l26-9 7.5-4h-5l-4 1c0 1.693-8.239 4-10 4-2.16 0-4.167 2-7 2 0 2.774-5.798 4-8 4 0 2.109-2.535 2-4 2l-4 2ZM359 150v1l-6-11.5c-3.826-7.652-14.39-20.445-22.5-24.5-9.651-4.826-20.408-7.204-30-12-1.767-.883-11.5-2.902-11.5-5h5l14 5c6.861 0 12.705 8 20 8 0 2.724 7.851 4.202 9 6.5 3.908 7.816 22 22.685 22 32.5Z"/><path fill="#1B7F64" id="SSp-n2/3" d="m69 99-1 1 1-1Z"/><path fill="#1D9D5A" id="MOp6b" d="M148 102v1c1.761 0 10-2.307 10-4-3.679 0-6.731 3-10 3Z"/><path fill="#40A465" id="ACAv6b" d="M255 99c-1.747 0-2 .253-2 2 1.747 0 2-.253 2-2Z"/><path fill="#1B7F64" id="SSp-n2/3" d="m68 100-1 1 1-1ZM387 100c0 1.93 1.93 0 0 0Z"/><path fill="#187E61" id="SSp-m1" d="M51 125c2.364 0 3.053 3 5 3 0-6.978 11-21.687 11-27-2.7 0-4.762 3-8 3 0 6.674-8 14.039-8 21Z"/><path fill="#7ED04B" id="IG" d="M235 108c0 1.614-3.31 1-4.5 1H221l1-3 5-5c0 1.399 2 1.399 2 0 2.832 0 2.953 5 5 5l1 2Z"/><path fill="#40A465" id="ACAv6b" d="M249 105h1c0-2.349 3-1.382 3-4-2.226 0-4 1.774-4 4Z"/><path fill="#187E61" id="SSp-m1" fill-rule="evenodd" d="M395 104c0 1.93 1.93 0 0 0m10 21-5 3c0-6.732-11-24.035-11-27 2.902 0 6.443 4 9 4 0 6.599 7 12.934 7 20Z"/><path fill="#1C8064" id="SSp-ul6b" d="M148 103c-2.16 0-4.167 2-7 2 0-1.429 5.655-3 7-3v1ZM328 110v1c-7.295 0-13.139-8-20-8v-1h1c6.613 0 12.239 8 19 8Z"/><path fill="#AAA8A9" id="SEZ" d="M181 109c0-9.163 19.44 6 22 6 0-2.888-18.17-13.165-22.5-11l-3.5 3 4 2ZM276 109c0-8.48-17.295 4-20 4 0-2.956 23-14.976 23-6 0 1.577-1.762 2-3 2Z"/><path fill="#197E63" id="SSp-n1" d="M395 104c0 1.93 1.93 0 0 0Z"/><path fill="#1C8064" id="SSp-ul6b" d="m141 105-8 4c2.202 0 8-1.226 8-4Z"/><path fill="#98D5F9" id="CP" d="M118 234c2.721 0 6.171.836 8.5 2l8.5-1c0-2.064 3.353-.426 4.5-1 3.787-1.894 11.169-3 15.5-3l2-1 2-1h1l1-1 2-1 2-1 1-1h1l1-1 2-1c0-2.595 3.831-6.162 5-8.5 2.666-5.333.532-29.063 4-36 2.11-4.221 6 2.415 6 4.5h3c0-.706 1.325-6 2-6v-20l1-2v-13l-2-16.5c-2.335-4.671-8-11.108-8-16.5l-4-2c-22.791 0-34.883 4.192-54.5 14-7.286 3.643-16.247 16.995-19.5 23.5-.85 1.7-4.119 10.5-6 10.5 0 4.635-4 8.067-4 12l-1 2-1 2v2c0 7.684 2 14.019 2 21v1c1.15 0 1.508 4.516 2 5.5 2.03 4.059 6 11.984 6 16.5v2l2 2v1l2 2v1l7.5 6 5.5 3Z"/><path fill="#A8AAAA" id="VL" d="m205 115-10 15.5c-.788 1.576-2.368 11.5-4 11.5l-2-16.5c-2.335-4.671-8-11.108-8-16.5 0-9.163 19.44 6 22 6h2ZM265 152h1c0-5.994-1.331-19.838 1-24.5 2.267-4.534 8-12.376 8-17.5l1-1c0-8.48-17.295 4-20 4l-2 1-1 1-1 1c0 3.18 13 17.539 13 30v6Z"/><path fill="#98D5F9" id="CP" d="M321 235h1l8.5 1c2.329-1.164 5.779-2 8.5-2l2-1c0-1.772 7.346-6 9-6l1-2 1-1 1-1v-1l1-1 1-2v-1l2-4c0-3.859 2.329-9.159 4-12.5.559-1.119.155-4.5 2-4.5v-2c0-5.207 3-10.413 3-15.5 0-2.12-1-5.723-1-8.5v-1l-2-3c0-7.396-6.82-15.141-10-21.5-14.598-29.196-42.27-38.5-74-38.5 0 1.577-1.762 2-3 2l-1 1c0 5.124-5.733 12.966-8 17.5-2.331 4.662-1 18.506-1 24.5v11c1.804 0 1 14.759 1 17l1 3h3c0-4.714 4.508-7.483 7-2.5 3.444 6.888.041 27.082 3 33 1.228 2.455 8 9.1 8 11.5l3 1 1 1h1l3 2h1l11.5 4h7c.905.452 4.5 1.082 4.5 2Z"/><path fill="#1C8064" id="SSp-ul6b" d="M129 110v1c1.465 0 4 .109 4-2l-4 1Z"/><path fill="#AAA8A9" id="SEZ" d="m276 109-1 1 1-1Z"/><path fill="#188064" id="SSp-m6b" d="m129 111-4 2 3-3h1v1ZM359 150h2v-1l-6-11.5c-2.887-5.773-21.077-27.5-27-27.5v1c0 2.724 7.851 4.202 9 6.5 3.908 7.816 22 22.685 22 32.5ZM107 131h2c0-6.16 16-15.147 16-18-3.672 0-18 14.408-18 18Z"/><path fill="#AAA8A9" id="SEZ" d="m256 113-2 1 2-1ZM254 114l-1 1 1-1Z"/><path fill="#90CBEC" id="LSc" d="m191 146 2 1c2.835 0 2.575-3.038 4.5-4 1.84-.92 18.509-13.519 19.5-15.5.898-1.796 5-2.452 5-5.5v-2c-5.458 0-10.942-5-17-5l-10 15.5c-.788 1.576-2.368 11.5-4 11.5v4ZM265 146l-2 1-8-7.5c-3.766-3.766-21-12.338-21-18.5l1-1c0-2.423 15.279-4 17-4 0 3.18 13 17.539 13 30Z"/><path fill="#97D6F9" id="STR" d="M227 121c0 1.919 2 2.488 2 0s-2-1.919-2 0ZM223 121l-1 1v-2l1 1ZM235 120l-1 1 1-1Z"/><path fill="#90CAED" id="LSr" d="M213 181c0-22.101.518-19.537 10-38.5l5.5-11.5 4.5 10.5c10.224 20.448 10 16.994 10 40.5l6.5-7c6.139-3.07 9.016-3 15.5-3l1-9v-10l-1-1v-3l-2-2-8-7.5c-3.766-3.766-21-12.338-21-18.5h-5c0 2.488-2 1.919-2 0h-4l-1 1c0 3.048-4.102 3.704-5 5.5-.991 1.981-17.66 14.58-19.5 15.5-1.925.962-1.665 4-4.5 4l-2 4v4l-1 2v6c2.715 0-.715 8 2 8 4.613 0 8.721.11 12.5 2l8.5 8Z"/><path fill="#1A7E62" id="SSs1" d="M43 177h5c0-6.912-2.026-24.448 1-30.5l7-18.5c-1.947 0-2.636-3-5-3l-7 18.5c-3.668 7.337-1 25.145-1 33.5ZM408 177h5c0-12.862 2.803-27.895-3-39.5-.968-1.936-2.512-12.5-5-12.5l-5 3 3 5.5c4.295 8.59 6 20.184 6 30.5 0 1.824.781 12-1 12v1Z"/><path fill="#1B8063" id="SSs2/3" d="m57 175-9 2c0-6.912-2.026-24.448 1-30.5l7-18.5c3.912 0 5.153 5 9 5v1c0 4.735-3.901 12.303-6 16.5-3.151 6.302-2 16.981-2 24.5ZM400 175c2.097 0 5.293 1 8 1 1.781 0 1-10.176 1-12 0-10.316-1.705-21.91-6-30.5l-3-5.5-9 6c0 4.058 4.149 11.799 6 15.5 3.172 6.343 3 18.052 3 25.5Z"/><path fill="#188064" id="SSp-m6b" d="M96 150h1l1-1 1-2 2-4c0-1.664 1.823-6 4-6 0-2.72 2-3.553 2-6-1.585 0-11 15.982-11 18v1Z"/><path fill="#C9C9CA" id="scwm" d="M109 131c0 1.334-2.972 6-4 6 0-2.72 2-3.553 2-6h2Z"/><path fill="#8FCBEC" id="SF" d="M221 191c0-8.084-4.092-32.704 6.5-38 2.702-1.351 4.954 6.409 5.5 7.5 5.444 10.888 2 18.861 2 30.5l4-1 1-2 1-2v-1l1-1 1-1v-1c0-23.506.224-20.052-10-40.5l-4.5-10.5-5.5 11.5c-9.482 18.963-10 16.399-10 38.5v1c3.828 0 2.836 9 8 9Z"/><path fill="#187C63" id="SSs4" d="M57 175h6c0-7.999.885-23.269 4-29.5 1.273-2.547 3-5.497 3-8.5v-1l-5-2c0 4.735-3.901 12.303-6 16.5-3.151 6.302-2 16.981-2 24.5ZM394 175h6c0-7.448.172-19.157-3-25.5-1.851-3.701-6-11.442-6-15.5-2.732 0-2.259 2-5 2v1c1.818 0 2.226 8.952 3 10.5 3.726 7.452 5 18.691 5 27.5Z"/><path fill="#1C8063" id="SSs5" d="M63 175h12v-1c0-8.799.368-17.237 4-24.5.65-1.3.007-6.5 2-6.5v-1c-3.923 0-6.531-5-11-5 0 3.003-1.727 5.953-3 8.5-3.115 6.231-4 21.501-4 29.5Z"/><path fill="#C9C9CA" id="scwm" d="M105 137c-2.177 0-4 4.336-4 6 1.617 0 4-4.583 4-6Z"/><path fill="#1C8063" id="SSs5" d="M381 175h13c0-8.809-1.274-20.048-5-27.5-.774-1.548-1.182-10.5-3-10.5l-10 5c0 3.607 1.499 6.499 3 9.5 2.941 5.881 2 15.46 2 22.5v1Z"/><path fill="#197D63" id="SSs6a" d="M374 175h1c0-1.684 4.679-1 6-1 0-7.04.941-16.619-2-22.5-1.501-3.001-3-5.893-3-9.5h-1l-14 7v1l7 24h4l2 1ZM81 175h1c0-1.473 1.952-1 3-1h4c0-7.142 3.025-13.551 6-19.5.574-1.147-1.064-4.5 1-4.5v-1c-6.304 0-8.894-6-15-6-1.993 0-1.35 5.2-2 6.5-3.632 7.263-4 15.701-4 24.5 1.32 0 6-.684 6 1Z"/><path fill="#C9C9CA" id="scwm" d="m101 143-2 4c2.109 0 2-2.535 2-4Z"/><path fill="#97D6F9" id="STR" d="m193 147-2 4v-5l2 1ZM263 147l2 2v-3l-2 1Z"/><path fill="#C9C9CA" id="scwm" d="m99 147-1 2 1-2ZM97 150v2c1.473 0 1-1.952 1-3l-1 1Z"/><path fill="#1A8061" id="SSs6b" d="M89 174h1l1-1v-2l1-2v-2l1-5 1-1v-1l1-1v-2l1-1v-1l1-2v-3h-1c-2.064 0-.426 3.353-1 4.5-2.975 5.949-6 12.358-6 19.5ZM366 174h2l-7-24h-2v2l1 2v1l1 1v2l1 1v1l1 1v2l1 1 1 3v4c1.473 0 1 1.952 1 3Z"/><path fill="#97D6F9" id="STR" d="M266 152v1l-1-1h1Z"/><path fill="#C9C9CA" id="scwm" d="m359 152 1 2-1-2ZM96 155h1v-2l-1 2Z"/><path fill="#96A7D3" id="MS" fill-rule="evenodd" d="M228 180c0 5.567 2.112 0 0 0m-1 19c0-5.723 3-4.813 3 0 4.109 0 5-4.193 5-8 0-11.639 3.444-19.612-2-30.5-.546-1.091-2.798-8.851-5.5-7.5-10.592 5.296-6.5 29.916-6.5 38 0 3.095 1.386 8 5 8h1Z"/><path fill="#C9C7C9" id="ccb" d="M92 167h1c0-3.933 4-7.365 4-12h-1v1l-1 1v2l-1 1v1l-1 1-1 5Z"/><path fill="#A8AAAA" id="VL" d="m191 155-1 2 1-2Z"/><path fill="#C9C9CA" id="scwm" d="m360 155 1 1-1-1ZM96 156l-1 1 1-1ZM361 158l1 1-1-1ZM95 159l-1 1 1-1ZM362 160l1 1-1-1ZM94 161l-1 1 1-1Z"/><path fill="#A8AAAA" id="VL" d="M190 177c0 1.851-.867 7 2 7v-13c-2.715 0 .715-8-2-8v14ZM266 183l-1 1-1-1c0-2.998 1-7.358 1-11l1-9c1.804 0 1 14.759 1 17-1.473 0-1 1.952-1 3Z"/><path fill="#C9C9CA" id="scwm" d="m363 163 1 1-1-1Z"/><path fill="#C8CBCC" id="ec" d="m93 167-1 2v-2h1ZM365 167v3l-2-3h2ZM92 169l-1 2 1-2Z"/><path fill="#8FCBED" id="LSv" d="M199 192v1l4.5 3c3.721 1.86 17.294 1.089 13.5-6.5l-4-7.5v-1l-8.5-8c-3.779-1.89-7.887-2-12.5-2v13l3 4 1 1 1 1 1 1 1 1ZM256 194l-1 1c-5.057 0-16 6.983-16-5l1-2 1-2v-1l1-1 1-1v-1l6.5-7c6.139-3.07 9.016-3 15.5-3 0 3.642-1 8.002-1 11l-1 4-4 4-1 1-1 1-1 1Z"/><path fill="#C8CBCC" id="ec" d="M363 195h1l1-2 1-2c0-1.048-.473-3 1-3 0-4.607-1-10.052-1-14 0-1.048.473-3-1-3 0 2.777 1 6.38 1 8.5 0 5.087-3 10.293-3 15.5ZM92 194h1c0-6.981-2-13.316-2-21l-1 1c0 5.587 1 12.081 1 17v1l1 1v1Z"/><path fill="#12AD82" id="VISC5" d="m75 176-12 3v-4h12v1Z"/><path fill="#11AC83" id="VISC6a" d="m81 175-6 1v-2c1.32 0 6-.684 6 1ZM85 174c-1.048 0-3-.473-3 1 1.048 0 3 .473 3-1Z"/><path fill="#009B74" id="GU6a" d="M85 193h1l1-1c0-1.473 1.952-1 3-1l-2-5.5c-1.592-3.184 1-8.819 1-11.5h-4c0 1.473-1.952 1-3 1h-1l-6 1c0 4.595.087 9.675 2 13.5.523 1.046-.951 3.5 1 3.5h7Z"/><path fill="#019C74" id="GU6b" d="M90 191h1c0-4.919-1-11.413-1-17h-1c0 2.681-2.592 8.316-1 11.5l2 5.5ZM368 174c0 1.991.793 14-1 14 0-4.607-1-10.052-1-14h2Z"/><path fill="#009B74" id="GU6a" d="m370 192 9 2c0-5.768 2-11.455 2-18l-6-1h-1l-2-1h-4c0 1.991.793 14-1 14v3l3 1Z"/><path fill="#11AC83" id="VISC6a" d="m372 174 2 1-2-1ZM381 175v1l-6-1c0-1.684 4.679-1 6-1v1Z"/><path fill="#12AD82" id="VISC5" d="m381 176 13 3v-4h-13v1Z"/><path fill="#12AC83" id="VISC2/3" d="M49 184h1l7-3v-6l-9 2c0 1.819 1 4.591 1 7Z"/><path fill="#11AC82" id="VISC4" d="m63 179-6 2v-6h6v4ZM394 179l5 2 1-6h-6v4Z"/><path fill="#12AC83" id="VISC2/3" d="m399 181 8 3 1-7v-1c-2.707 0-5.903-1-8-1l-1 6Z"/><path fill="#019C75" id="GU5" d="m78 194-13 2c0-5.378-2-10.79-2-17l12-3c0 4.595.087 9.675 2 13.5.523 1.046-.951 3.5 1 3.5v1ZM379 194l12 2c0-5.305 3-10.964 3-17l-13-3c0 6.545-2 12.232-2 18Z"/><path fill="#12AD83" id="VISC1" d="M49 184c0 1.579-2.855 1-4 1l-2-8h5c0 1.819 1 4.591 1 7Z"/><path fill="#97D6F9" id="STR" d="M176 231c-3.736 0-7.086 6-11 6 0-1.998 10.933-14 5-14 0-2.595 3.831-6.162 5-8.5 2.666-5.333.532-29.063 4-36 2.11-4.221 6 2.415 6 4.5l-1 2-4 6c-1.579 0-1 2.855-1 4 0 3.354-6.519 29 0 29v1l-3 6ZM192 184l3 4c-2.696 0-3.847-5-7-5 0-.706 1.325-6 2-6 0 1.851-.867 7 2 7ZM281 232c4.594 0 8.318 7 12 7 0-2.293-5.574-8.647-7-11.5l-1.5-4.5 4.5 2c0-2.4-6.772-9.045-8-11.5-2.959-5.918.444-26.112-3-33-2.492-4.983-7-2.214-7 2.5l1 1c2.109 0 3.254 6.009 4 7.5 3.871 7.741 1.165 18.331 5 26l-3 6.5v2l3 6Z"/><path fill="#12AD83" id="VISC1" d="m407 184 4 1 2-8h-5l-1 7Z"/><path fill="#009C74" id="GU4" d="M63 196h2c0-5.378-2-10.79-2-17l-6 2c0 5.446 6 11.426 6 15ZM391 196h2c2.395 0 6-12.322 6-15l-5-2c0 6.036-3 11.695-3 17Z"/><path fill="#97D6F9" id="STR" d="M228 180c0 5.567 2.112 0 0 0ZM266 183h2l-1-3c-1.473 0-1 1.952-1 3Z"/><path fill="#009B75" id="GU2/3" d="M63 196c0 .616-6.93 3-8 3 0-5.11-5-9.433-5-15l7-3c0 5.446 6 11.426 6 15ZM393 196c0 .144 7.359 3 8 3l6-15-8-3c0 2.678-3.605 15-6 15Z"/><path fill="#97D6F9" id="STR" d="M206 207c1.429 0 4 1.288 4 3 3.036 0 9.064 2.718 12.5 1 2.341-1.17 2.255-10 3.5-10v-2c-3.614 0-5-4.905-5-8-5.164 0-4.172-9-8-9l4 7.5c3.794 7.589-9.779 8.36-13.5 6.5l-4.5-3c0 2.409 7 8.229 7 14Z"/><path fill="#B3C0DE" id="BST" d="M195 207c1.984 0 3.945-3.278 6.5-2 2.1 1.05 1.894 2 4.5 2 0-5.771-7-11.591-7-14v-1l-1-1-1-1-1-1-1-1c-2.696 0-3.847-5-7-5h-3l-1 2c0 6.571-2.156 16.811-5 22.5-.671 1.342 1 9.066 1 11.5 6.599 0 8.684-12 15-12Z"/><path fill="#97D6F9" id="STR" d="m243 183-1 1 1-1ZM265 184c0 1.238-.423 3-2 3l1-4 1 1Z"/><path fill="#B3C0DE" id="BST" d="M261 207c7.685 0 8.419 12 16 12 0-13.749-5-24.544-5-35l-1-1h-5l-1 1c0 1.238-.423 3-2 3l-4 4-1 1-1 1-1 1-1 1c0 3.354-5 7.855-5 12l7.5-2 3.5 2Z"/><path fill="#009C75" id="GU1" d="m55 199-4 1-6-15c1.145 0 4 .579 4-1h1c0 5.567 5 9.89 5 15Z"/><path fill="#97D6F9" id="STR" d="m242 184-1 1 1-1Z"/><path fill="#8599CC" id="PAL" d="M277 221c0 1.048-.473 3 1 3l3-6.5c-3.835-7.669-1.129-18.259-5-26-.746-1.491-1.891-7.5-4-7.5 0 10.456 5 21.251 5 35v2Z"/><path fill="#009C75" id="GU1" d="M401 199c1.145 0 4-.579 4 1 1.798 0 6-12.896 6-15l-4-1-6 15Z"/><path fill="#8599CC" id="PAL" d="M179 221v3c-6.519 0 0-25.646 0-29 1.579 0 1-2.855 1-4l4-6c0 6.571-2.156 16.811-5 22.5-.671 1.342 1 9.066 1 11.5l-1 2Z"/><path fill="#97D6F9" id="STR" d="m241 186-1 2 1-2ZM240 188l-1 2 1-2Z"/><path fill="#019C74" id="GU6b" d="M366 191h1v-3c-1.473 0-1 1.952-1 3Z"/><path fill="#97D6F9" id="STR" d="m196 189 1 1-1-1ZM250 207l-3 3c-3.202 0-9.03 2.735-12.5 1l-3.5-4v-6l-1-1v-1c4.109 0 5-4.193 5-8l4-1c0 11.983 10.943 5 16 5 0 3.354-5 7.855-5 12Z"/><path fill="#8ADA86" id="CLA" d="M91 209h2l1-2v-6l-1-2v-3l-1-2v-1l-1-1v-1h-1c-1.048 0-3-.473-3 1l-1 1h-1c0 4.513-1.08 16 6 16Z"/><path fill="#CCC" d="M180 191c-1.579 0-1 2.855-1 4 1.579 0 1-2.855 1-4Z"/><path fill="#97D6F9" id="STR" d="m198 191 1 1-1-1ZM259 191l-1 1 1-1Z"/><path fill="#8ADA86" id="CLA" d="M363 209h2c4.153 0 9.103-9.294 7-13.5l-2-3.5-3-1h-1l-1 2-1 2-1 2v3c0 1.048.473 3-1 3l1 5v1Z"/><path fill="#209766" id="AIp6a" d="m87 192-1 1 1-1ZM91 192l1 1-1-1Z"/><path fill="#97D6F9" id="STR" d="m258 192-1 1 1-1Z"/><path fill="#209766" id="AIp6a" d="m367 211 4 2 8-19-9-2 2 3.5c2.103 4.206-2.847 13.5-7 13.5l2 2ZM89 211l-4 2-7-19v-1h7c0 4.513-1.08 16 6 16l-2 2Z"/><path fill="#97D6F9" id="STR" d="m257 193-1 1 1-1Z"/><path fill="#209766" id="AIp6a" d="m365 193-1 2 1-2Z"/><path fill="#219864" id="AIp5" d="m82 215-4 1c0-3.63-13-13.595-13-20l13-2 7 19-3 2Z"/><path fill="#209766" id="AIp6a" d="M93 195v1l-1-2h1v1Z"/><path fill="#97D6F9" id="STR" d="m256 194-1 1 1-1Z"/><path fill="#219864" id="AIp5" d="m374 215 5 1c0-5.125 12-12.277 12-20l-12-2-8 19c1.238 0 3 .423 3 2Z"/><path fill="#C8CBCC" id="ec" d="m96 209 5 8c0-4.516-3.97-12.441-6-16.5-.492-.984-.85-5.5-2-5.5v4l1 2v1c1.643 0 1 3.765 1 5l1 2Z"/><path fill="#209766" id="AIp6a" d="m364 195-1 2v-2h1Z"/><path fill="#209865" id="AIp2/3" d="m78 216-9 3c-2.17 0-14-17.048-14-20 1.07 0 8-2.384 8-3h2c0 6.405 13 16.37 13 20ZM379 216l9 3c2.349 0 13-18.086 13-20-.641 0-8-2.856-8-3h-2c0 7.723-12 14.875-12 20Z"/><path fill="#C8CBCC" id="ec" d="m361 209-4 5c0-3.859 2.329-9.159 4-12.5.559-1.119.155-4.5 2-4.5v3c-1.473 0-1 1.952-1 3-1.579 0-1 2.855-1 4v2Z"/><path fill="#219765" id="AIp1" d="m69 219-6 3c-1.988 0-2.408-3.315-3-4.5-2.34-4.68-9-12.262-9-17.5l4-1c0 2.952 11.83 20 14 20Z"/><path fill="#209766" id="AIp6a" d="m93 199 1 2-1-2Z"/><path fill="#FF5445" id="MEPO" d="M227 240h2l2-3v-36l-1-1v-1h-3l-1 1v38l1 2Z"/><path fill="#219765" id="AIp1" d="m388 219 6 3c0-4.995 11-15.334 11-22 0-1.579-2.855-1-4-1 0 1.914-10.651 20-13 20Z"/><path fill="#209766" id="AIp6a" d="M363 200c-1.473 0-1 1.952-1 3 1.473 0 1-1.952 1-3Z"/><path fill="#CAC7CB" id="fiber tracts" d="M209 218h4l1-1c2.846 0 4.905-1 9-1l3-1v-14c-1.245 0-1.159 8.83-3.5 10-3.436 1.718-9.464-1-12.5-1l-1 5v3Z"/><path fill="#209766" id="AIp6a" d="M94 207h1c0-1.235.643-5-1-5v5ZM361 207l2 1-1-5c-1.579 0-1 2.855-1 4Z"/><path fill="#CBCBC7" id="aco" d="m209 215-4.5 4H195v-12c1.984 0 3.945-3.278 6.5-2 2.1 1.05 1.894 2 4.5 2 1.429 0 4 1.288 4 3l-1 5ZM248 216l3.5 3h9.5v-12l-3.5-2-7.5 2-3 3c0 2.124 1 4.436 1 6Z"/><path fill="#8AD987" id="CTXsp" d="M93 209h3l-1-2h-1l-1 2Z"/><path fill="#C9C9C9" id="act" d="m195 219-16 2 1-2c6.599 0 8.684-12 15-12v12Z"/><path fill="#CAC7CB" id="fiber tracts" d="m243 217 4 1 1-2c0-1.564-1-3.876-1-6-3.202 0-9.03 2.735-12.5 1l-3.5-4v8l3 1c4.095 0 6.154 1 9 1Z"/><path fill="#C9C9C9" id="act" d="M277 219v2l-16-2v-12c7.685 0 8.419 12 16 12Z"/><path fill="#8AD987" id="CTXsp" d="M361 209h2v-1l-2-1v2Z"/><path fill="#A0EE9C" id="EPd" d="M98 229c1.564 0 3.876 1 6 1l1-3v-3l-2-2v-1l-2-2v-2l-5-8h-5l-2 2v11l2 2 1 1 1 1 2 2 2 1h1ZM357 230h1l1-1h1l1-1 1-1c1.901 0 5-4.332 5-6l1-1c0-3.222-1-6.277-1-9l-2-2h-4l-4 5c0 1.465.109 4-2 4v1l-1 2-1 1v1l-1 1-1 1v2l1 3h5Z"/><path fill="#99D2BD" id="OLF" d="M82 215c3.844 0 5.115 6 7 6v-10l-4 2-3 2ZM374 215c-3.079 0-4.308 5-6 5 0-3.222-1-6.277-1-9l4 2c1.238 0 3 .423 3 2Z"/><path fill="#C8CBCC" id="ec" d="m357 214-2 4c2.109 0 2-2.535 2-4Z"/><path fill="#6ACAB9" id="PIR" d="M116 273h3c0-1.822 3.711-8 6-8l1-1c0-9.402-.648-20.074-10.5-25l-13-7c-1.185-.592-4.5-1.012-4.5-3h-1l-2-1-2-2-1-1-1-1-2-2v-1c-1.885 0-3.156-6-7-6l-4 1-9 3-6 3c0 10.011 17.473 23.446 22 32.5L95 265c7.677 0 13.244 8 21 8Z"/><path fill="#B3C0DE" id="BST" d="M179 225c0 6.539 9.804 7 15 7 5.806 0 9.661-8 15-8v-9l-4.5 4H195l-16 2v4Z"/><path fill="#FF5547" id="ADP" d="M222 231c0 5.628-11 6.538-11 1v-10.5l2-3.5 1-1c2.846 0 4.905-1 9-1l1 8.5-2 6.5Z"/><path fill="#E64438" id="HY" d="M222 231c3.943 0 2.113 4 4 4v-20l-3 1 1 8.5-2 6.5ZM234 231l-3 1v-17l3 1v15Z"/><path fill="#FF5547" id="ADP" d="M234 231c.569 0 11 10.917 11 1 0-1.048-.473-3 1-3v-3c0-2.965-3-6.226-3-9-2.846 0-4.905-1-9-1v15Z"/><path fill="#6ACAB9" id="PIR" d="M337 273h4c5.931 0 11.437-5.469 16.5-8 .945-.472 3.5-.156 3.5 1l8.5-10c5.506-5.506 24.5-27.458 24.5-34l-6-3-9-3-5-1c-3.079 0-4.308 5-6 5l-1 1c0 1.668-3.099 6-5 6l-1 1-1 1h-1l-1 1h-1l-17.5 10c-9.518 4.759-8.5 16.088-8.5 24 0 3.138 6 5.118 6 9Z"/><path fill="#B3C0DE" id="BST" d="m278 226-3.5 4c-3.357 1.679-7.435 2-11.5 2-6.402 0-9.088-8-16-8v-6l1-2 3.5 3h9.5l16 2c0 1.048-.473 3 1 3v2Z"/><path fill="#E64438" id="HY" d="m214 217-1 1 1-1ZM247 224l-1 2c0-2.965-3-6.226-3-9l4 1v6ZM210 232h1v-10.5l2-3.5h-4v6c0 2.097 1 5.293 1 8Z"/><path fill="#C8CBCC" id="ec" d="m101 219 2 2-2-2ZM355 219l-1 2 1-2Z"/><path fill="#99D2BD" id="OLF" d="m368 220-1 1 1-1Z"/><path fill="#C8CBCC" id="ec" d="m354 221-1 1 1-1Z"/><path fill="#99D2BD" id="OLF" d="m89 222 2 2-2-2Z"/><path fill="#C8CBCC" id="ec" d="m103 222 2 2-2-2Z"/><path fill="#97D6F9" id="STR" d="m170 223-2 1 2-1Z"/><path fill="#7ECDF8" id="FS" d="m162 240-6.5 7c-5.294 5.294-9.013 9-16.5 9-6.517 0-16.42-16.659-16-17.5 1.355-2.711 12-.33 12-3.5 3.693 0 20-.956 20-4l2-1 2-1h1l1-1 2-1 2-1 1-1h1l1-1 2-1c5.933 0-5 12.002-5 14l-1 1-1 1-1 1Z"/><path fill="#FD5446" id="PS" d="m204 240-1 1c-3.628 0-14.533.565-11-6.5l2-2.5c5.806 0 9.661-8 15-8 0 2.097 1 5.293 1 8l-1 1c0 2.773-4 3.67-4 6l-1 1Z"/><path fill="#7ECDF8" id="FS" d="M331 243c-3.282 0-4.533 13-14 13-10.769 0-18.817-17-24-17 0-2.293-5.574-8.647-7-11.5l-1.5-4.5 4.5 2 3 1 1 1h1c0 1.577 1.762 2 3 2h1c0 4.328 18.691 6 23 6h1c0 3.909 11-.875 11 6-1.747 0-2 .253-2 2Z"/><path fill="#C8CBCC" id="ec" d="m353 223-1 1 1-1Z"/><path fill="#97D6F9" id="STR" d="m168 224-1 1 1-1Z"/><path fill="#FD5446" id="PS" d="m247 233 5 7c1.479 0 16.697 2.894 13-4.5l-2-3.5c-6.402 0-9.088-8-16-8l-1 2v3c1.579 0 1 2.855 1 4Z"/><path fill="#C8CBCC" id="ec" d="m352 224-1 1 1-1Z"/><path fill="#99D2BD" id="OLF" d="m92 225 1 1-1-1Z"/><path fill="#C8CBCC" id="ec" d="M117 234h1l-5.5-3-7.5-6v2c3.643 0 7.31 7 12 7Z"/><path fill="#97D6F9" id="STR" d="m166 225-1 1 1-1Z"/><path fill="#E64438" id="HY" d="M190 242c2.354 0 10-.764 10 4 1.077 0 3-3.762 3-5-3.628 0-14.533.565-11-6.5l2-2.5c-5.196 0-15-.461-15-7l-3 6c0 5.192 14 5.397 14 11Z"/><path fill="#C8CBCC" id="ec" d="M350 227h1v-2l-1 2Z"/><path fill="#97D6F9" id="STR" d="m165 226-2 1 2-1Z"/><path fill="#E64438" id="HY" d="M266 242c-3.832 0-7.732 3-10 3-1.533 0-4-3.753-4-5 1.479 0 16.697 2.894 13-4.5l-2-3.5c4.065 0 8.143-.321 11.5-2l3.5-4 3 6c-1.879 0-15 7.012-15 10Z"/><path fill="#97D6F9" id="STR" d="m292 226 1 1-1-1Z"/><path fill="#8AD987" id="CTXsp" d="M117 234c0 2.009 2 2.991 2 5-5.666 0-9.349-9-15-9l1-3c3.643 0 7.31 7 12 7Z"/><path fill="#97D6F9" id="STR" d="m163 227-2 1 2-1ZM294 227l3 2c-1.238 0-3-.423-3-2Z"/><path fill="#C8CBCC" id="ec" d="M350 227c-1.654 0-9 4.228-9 6 2.103 0 9-3.18 9-6Z"/><path fill="#8AD987" id="CTXsp" d="M340 234c0 1.353-3 2.158-3 5 3.142 0 9.319-4.819 11.5-7l3.5-2-1-3h-1c0 2.82-6.897 6-9 6l-1 1Z"/><path fill="#99D2BD" id="OLF" d="m362 227-1 1 1-1ZM95 228l2 1-2-1Z"/><path fill="#97D6F9" id="STR" d="m161 228-1 1 1-1Z"/><path fill="#99D2BD" id="OLF" d="m361 228-1 1 1-1ZM126 264h2l1-1h1l1-1c0-5.419-5.106-23-12-23-5.666 0-9.349-9-15-9-2.124 0-4.436-1-6-1 0 1.988 3.315 2.408 4.5 3l13 7c9.852 4.926 10.5 15.598 10.5 25Z"/><path fill="#97D6F9" id="STR" d="m159 229-2 1 2-1Z"/><path fill="#E64438" id="HY" d="m245 232 2 1c0-1.145.579-4-1-4-1.473 0-1 1.952-1 3Z"/><path fill="#97D6F9" id="STR" d="m298 229 11.5 4h7c.905.452 4.5 1.082 4.5 2-4.309 0-23-1.672-23-6Z"/><path fill="#99D2BD" id="OLF" d="m359 229-1 1 1-1Z"/><path fill="#97D6F9" id="STR" d="m157 230-2 1 2-1Z"/><path fill="#99D2BD" id="OLF" d="M329 264h2c0-7.912-1.018-19.241 8.5-24l17.5-10h-5l-3.5 2c-2.181 2.181-8.358 7-11.5 7l-4 2c0 1.747-.253 2-2 2 0 5.879-6 11.607-6 18l4 3Z"/><path fill="#97D6F9" id="STR" d="M155 231c-4.331 0-11.713 1.106-15.5 3-1.147.574-4.5-1.064-4.5 1 3.693 0 20-.956 20-4Z"/><path fill="#A2B1D7" id="SI" d="M128 264c0 2.721 5.928 7.714 8.5 9l5 4c9.14 4.57 19.094 0 28.5 0 0-2.885-7.656-2.812-9-5.5-1.909-3.818 14.332-10.5 17-10.5h1l1-1 2-1c0-.834 8-8.572 8-17 0-5.603-14-5.808-14-11-3.736 0-7.086 6-11 6l-1 1-1 1-1 1-6.5 7c-5.294 5.294-9.013 9-16.5 9l-8 6-1 1h-1l-1 1Z"/><path fill="#FF5346" id="MPO" d="m197 269 4.5-1 2.5 2 10-5 1-1v-1c0-3.827.595-16 6-16 0-2.313 1.452-5 4-5l1-4v-3c-1.887 0-.057-4-4-4 0 5.628-11 6.538-11 1h-1l-1 1c0 2.773-4 3.67-4 6l-1 1-1 1c0 1.238-1.923 5-3 5l-3 11c1.43 0 6.433-5.967 8.5-7 2.713-1.357 8.347.806 6.5 4.5-3.483 6.966-15 20.611-15 3.5-1.353 0-2 4.643-2 6v1l2 4Z"/><path fill="#FF5346" id="MPO" fill-rule="evenodd" d="M247 249c0 1.287-4.377 2.746-2 7.5 13.252 26.504 22.866-7.5 2-7.5m12 20c-1.293 0-6-1.962-6 1-5.029 0-8.092-7-12-7v-1c0-3.726-1.08-16-6-16 0-2.043-.591-4-3-4l-1-5v-5l3-1c.569 0 11 10.917 11 1l2 1 5 7c0 1.247 2.467 5 4 5l5 18v2l-2 4Z"/><path fill="#E64438" id="HY" d="m210 232-1 1 1-1Z"/><path fill="#A2B1D7" id="SI" d="m329 264-6.5 7c-12.233 12.233-21.193 6-35.5 6 0-3.6 9-3.013 9-7.5 0-3.921-10.816-5.158-13.5-6.5-1.619-.809-1.471-2-3.5-2l-4-2-6-5.5c-1.601-3.201-3-7.715-3-11.5 0-2.988 13.121-10 15-10 4.594 0 8.318 7 12 7 5.183 0 13.231 17 24 17 0 .359 6.831 5 8 5l4 3Z"/><path fill="#C8CBCC" id="ec" d="M339 234h1l1-1-2 1Z"/><path fill="#97D6F9" id="STR" d="m139 256-8 6c0-5.419-5.106-23-12-23 0-2.009-2-2.991-2-5h1c2.721 0 6.171.836 8.5 2l8.5-1c0 3.17-10.645.789-12 3.5-.42.841 9.483 17.5 16 17.5ZM337 239l-4 2c0-6.875-11-2.091-11-6l8.5 1c2.329-1.164 5.779-2 8.5-2h1c0 1.353-3 2.158-3 5ZM165 237l-1 1 1-1Z"/><path fill="#E64438" id="HY" d="m232 242-3 1v-3l2-3 1 5Z"/><path fill="#97D6F9" id="STR" d="m164 238-1 1 1-1Z"/><path fill="#E64438" id="HY" d="M225 242h2v-2l-1-2-1 4Z"/><path fill="#97D6F9" id="STR" d="m163 239-1 1 1-1Z"/><path fill="#E64438" id="HY" d="m205 239-1 1 1-1ZM204 240l-1 1 1-1Z"/><path fill="#A8A9AA" id="V3" d="M226 269c.666 0 4 2.56 4 0 0-7.941-1-17.397-1-26v-3h-2v2c0 8.889-1 18.792-1 27Z"/><path fill="#F2473B" id="LPO" d="M194 264h1c0-1.357.647-6 2-6v-1l3-11c0-4.764-7.646-4-10-4 0 8.428-8 16.166-8 17l1 1c4.021 0 7.373 4 11 4ZM261 263l2 1c3.395 0 6.798-4 11-4l1-1-6-5.5c-1.601-3.201-3-7.715-3-11.5-3.832 0-7.732 3-10 3l5 18Z"/><path fill="#97D6F9" id="STR" d="M333 241c-1.747 0-2 .253-2 2 1.747 0 2-.253 2-2Z"/><path fill="#FE5446" id="AVPV" d="M213 275h2l2-1 2-1h1l2-1c0-1.473 1.952-1 3-1l1-2c0-8.208 1-18.111 1-27h-2c-2.548 0-4 2.687-4 5 0 3.541-1.187 16-6 16v1l-1 1c0 1.597-6.887 10-1 10ZM237 273l7 2c5.933 0-3-10.809-3-12v-1c-4.643 0-6-12.691-6-16 0-2.043-.591-4-3-4l-3 1c0 8.603 1 18.059 1 26l1 2c1.424 0 5 .362 5 2h1Z"/><path fill="#97D6F9" id="STR" d="M317 256c0 .359 6.831 5 8 5 0-6.393 6-12.121 6-18-3.282 0-4.533 13-14 13Z"/><path fill="#FD4C3E" id="MPN" d="M235 246c4.92 0 6 12.274 6 16-4.643 0-6-12.691-6-16ZM221 247c-5.405 0-6 12.173-6 16 4.813 0 6-12.459 6-16Z"/><path fill="#FE5447" id="AVP" d="M247 249c0 1.287-4.377 2.746-2 7.5 13.252 26.504 22.866-7.5 2-7.5ZM197 257c1.43 0 6.433-5.967 8.5-7 2.713-1.357 8.347.806 6.5 4.5-3.483 6.966-15 20.611-15 3.5v-1Z"/><path fill="#E64438" id="HY" d="M180 260h3l-1-1-2 1ZM279 261l-2 2c0-2.041-.959-3-3-3l1-1 4 2ZM180 260l-1 1 1-1Z"/><path fill="#96A6D3" id="NDB" d="m195 278-1 1c-2.804 0-15 1.888-15-4v-14l1-1h3c4.021 0 7.373 4 11 4l1 1 2 4c0 3.638-2 5.929-2 9ZM262 279h1c2.558 0 14 1.872 14-4v-12c0-2.041-.959-3-3-3-4.202 0-7.605 4-11 4l-2 1-2 4c0 3.679 3 6.731 3 10Z"/><path fill="#A2B1D8" id="MA" d="M170 277h4c0-1.014 3.959-2 5-2v-13l-1-1c-2.668 0-18.909 6.682-17 10.5 1.344 2.688 9 2.615 9 5.5Z"/><path fill="#E64438" id="HY" d="M179 261v1l-1-1h1Z"/><path fill="#A2B1D8" id="MA" d="M282 277h5c0-3.6 9-3.013 9-7.5 0-3.921-10.816-5.158-13.5-6.5-1.619-.809-1.471-2-3.5-2l-2 2v12c1.041 0 5 .986 5 2Z"/><path fill="#97D6F9" id="STR" d="m131 262-1 1 1-1ZM129 263l-1 1 1-1Z"/><path fill="#E64438" id="HY" d="M244 275c0 1.368 5.878 4 7 4 0-3.301 2-7.523 2-9-5.029 0-8.092-7-12-7 0 1.191 8.933 12 3 12Z"/><path fill="#CBCCCB" id="mfb" d="m263 264-2 1v-2l2 1Z"/><path fill="#99D2BD" id="OLF" d="m126 264-1 1 1-1Z"/><path fill="#7FCCF7" id="OT" d="m183 287-1 1c0 5.774-10.929 6.215-14.5 8-13.809 6.905-25.026.987-37-5-2.479-1.239-8.5-5.842-8.5-9l-1-1v-1l-2-6v-1c0-1.822 3.711-8 6-8l1-1h2c0 2.721 5.928 7.714 8.5 9l5 4c9.14 4.57 19.094 0 28.5 0h4c5.455 0 9 4.875 9 10Z"/><path fill="#CBCCCB" id="mfb" d="M195 264v1l-1-1h1Z"/><path fill="#E64438" id="HY" d="m215 264-1 1 1-1Z"/><path fill="#7FCCF7" id="OT" d="M334 283c0 3.658-5.916 6.708-8.5 8-14.667 7.334-22.285 12.357-39 4-2.47-1.235-11.5-1.264-11.5-6l-2-3.5c-1.501-3.003 6.561-8.5 9-8.5h5c14.307 0 23.267 6.233 35.5-6l6.5-7h2c0 3.138 6 5.118 6 9v1l-1 5-1 1v2l-1 1Z"/><path fill="#CAC8C7" id="lot" d="m117 278-1 1c-5.491 0-21-8.197-21-14 7.677 0 13.244 8 21 8l1 2v3Z"/><path fill="#E64438" id="HY" d="m213 276-8 3c0-3.013-1-6.611-1-9l10-5c0 1.597-6.887 10-1 10v1Z"/><path fill="#CAC8C7" id="lot" d="M340 277v1c0 1.251 4.427 1.536 5.5 1 3.56-1.78 15.5-8.638 15.5-13 0-1.156-2.555-1.472-3.5-1-5.063 2.531-10.569 8-16.5 8l-1 4Z"/><path fill="#FE5546" id="VLPO" d="m205 279-1 1-9-1v-1c0-3.071 2-5.362 2-9l4.5-1 2.5 2c0 2.389 1 5.987 1 9ZM252 280h1c2.723 0 5.778-1 9-1 0-3.269-3-6.321-3-10-1.293 0-6-1.962-6 1 0 1.477-2 5.699-2 9l1 1Z"/><path fill="#CAC7CB" id="fiber tracts" d="M222 272h5l-2-1c-1.048 0-3-.473-3 1ZM229 272l7 1c0-1.638-3.576-2-5-2l-2 1ZM222 272l-2 1 2-1Z"/><path fill="#CBCACC" id="och" d="m215 275-2 1c0 4.176-11.701 4.097-9 9.5 1.77 3.54 8.096 2.5 11.5 2.5 6.234 0 34.779 1.941 37.5-3.5 1.354-2.707-16-10.599-16-11.5h-1l-7-1h-7l-2 1h-1l-2 1-2 1Z"/><path fill="#99D2BD" id="OLF" d="m119 274-2 1-1-2h3v1Z"/><path fill="#CAC7CB" id="fiber tracts" d="m219 273-2 1 2-1ZM252 280h1l3 6.5c0 1.036-7.627 2.5-9 2.5-4.025 0-10.043.272-13.5 2-2.727 1.363-4.257-2-5-2l-2 2-5-1c-4.788 0-11.91.045-16-2l-5.5-1.5 4-6.5 1-1 8-3c0 4.176-11.701 4.097-9 9.5 1.77 3.54 8.096 2.5 11.5 2.5 6.234 0 34.779 1.941 37.5-3.5 1.354-2.707-16-10.599-16-11.5l7 2c0 1.368 5.878 4 7 4l1 1Z"/><path fill="#99D2BD" id="OLF" d="m337 274 3 3 1-4h-4v1Z"/><path fill="#97D6F9" id="STR" d="m117 278 4 2-2-6-2 1v3Z"/><path fill="#CAC7CB" id="fiber tracts" d="m217 274-2 1 2-1Z"/><path fill="#97D6F9" id="STR" d="m340 278-4 1 1-5 3 3v1Z"/><path fill="#8599CC" id="PAL" d="M194 279c0 2.591-8.929 8-11 8 0-5.125-3.545-10-9-10 0-1.014 3.959-2 5-2 0 5.888 12.196 4 15 4Z"/><path fill="#CAC7CB" id="fiber tracts" d="m215 275-2 1v-1h2Z"/><path fill="#8599CC" id="PAL" d="M263 279c0 1.192 10.221 10 12 10l-2-3.5c-1.501-3.003 6.561-8.5 9-8.5 0-1.014-3.959-2-5-2 0 5.872-11.442 4-14 4Z"/><path fill="#97D6F9" id="STR" d="m117 278-1 1 1-1Z"/><path fill="#E64438" id="HY" d="M194 279h1v-1l-1 1Z"/><path fill="#97D6F9" id="STR" d="m336 279-1 1 1-1ZM121 281l1 1-1-1ZM335 282l-1 1 1-1Z"/><path fill="#8599CC" id="PAL" d="m183 287-1 1 1-1Z"/></svg>