<svg xmlns="http://www.w3.org/2000/svg" viewBox="0 0 456 320"><path fill="#187F60" id="SSp-ll1" d="M131 33c0 1.424.362 5 2 5 4.099 0 8.97-3.235 12.5-5 9.314-4.657 22.3-5 33.5-5l1-7c-8.834 0-27.166 2.333-34.5 6L131 33Z"/><path fill="#1E9D5A" id="MOp1" d="M199 26c-6.351 0-13.844 2-20 2l1-7h19v5Z"/><path fill="#1E9C59" id="MOs1" d="M222 39h1c1.24 0 1.576-2 4-2 0-2.183-3.405-3.31-4-4.5-4.201-8.402-14.411-11.5-24-11.5v5c7.471 0 23 4.492 23 13ZM230 36l4 3c0-8.968 16.847-13 24-13l-1-5c-11.146 0-16.715 4.215-23.5 11l-3.5 4Z"/><path fill="#1E9D5A" id="MOp1" d="M258 26c5.885 0 13.252 2 19 2l-1-7h-19l1 5Z"/><path fill="#187F60" id="SSp-ll1" d="M323 39h1l2-6c-4.675 0-10.44-3.97-14.5-6-5.095-2.547-28.764-6-35.5-6l1 7c13.511 0 25.37 1.435 36.5 7 1.799.9 9.5 1.083 9.5 4Z"/><path fill="#1F9C58" id="MOp2/3" d="M176 40c0 1.238-1.514 3 0 3 5.204 0 12.939-7 21-7l2-10c-6.351 0-13.844 2-20 2 0 1.761-1.873 12-3 12Z"/><path fill="#1E9D58" id="MOs2/3" d="M216 43h1l5-4c0-8.508-15.529-13-23-13l-2 10c5.512 0 19-1.076 19 7ZM240 43h1c0-8.294 12.513-7 18-7l-1-10c-7.153 0-24 4.032-24 13l6 4Z"/><path fill="#1F9C58" id="MOp2/3" d="M280 43h1v-2c0-2.945-4-9.206-4-13-5.748 0-13.115-2-19-2l1 10c7.929 0 16.463 7 21 7Z"/><path fill="#187F64" id="SSp-ll2/3" d="M138 51h1l8.5-4c5.738-2.869 21.865-7 28.5-7 1.127 0 3-10.239 3-12-11.2 0-24.186.343-33.5 5-3.53 1.765-8.401 5-12.5 5v1c0 4.696 5 7.54 5 12ZM318 51h1c0-4.66 4-7.48 4-12 0-2.917-7.701-3.1-9.5-4-11.13-5.565-22.989-7-36.5-7 0 3.794 4 10.055 4 13 8.104 0 21.823 2.661 28.5 6l8.5 4Z"/><path fill="#197E64" id="SSp-ul1" d="M114 41c0 2.01 1 3.512 1 6 6.54 0 11.161-8 18-8v-1c-1.638 0-2-3.576-2-5-4.592 0-12.929 8-17 8ZM343 41l-2 6-17-8 2-6c4.098 0 12.605 8 17 8Z"/><path fill="#1E9C5A" id="MOp5" d="m192 52-19 9c0-6.006 2-10.22 2-16l1-2c5.204 0 12.939-7 21-7 0 5.008-4 9.495-4 15l-1 1Z"/><path fill="#1F9D58" id="MOs5" d="M205 53h1l10-10c0-8.076-13.488-7-19-7 0 5.008-4 9.495-4 15 2.92 0 12-2.602 12 2Z"/><path fill="#3EA665" id="ACAd1" d="M223 61h10c0-7.464 1-15.1 1-22l-4-3-1.5 3-1.5-2c-2.424 0-2.76 2-4 2v22Z"/><path fill="#1F9D58" id="MOs5" d="M264 51c-2.276 0-13-2.456-13 2-1.993 0-10-8.811-10-10 0-8.294 12.513-7 18-7 0 4.602 5 10.148 5 15Z"/><path fill="#1E9C5A" id="MOp5" d="m264 52 20 9c0-6.35-4-12.297-4-18-4.537 0-13.071-7-21-7 0 4.602 5 10.148 5 15v1Z"/><path fill="#197F61" id="SSp-ul2/3" d="m138 51-19 9-4-13c6.54 0 11.161-8 18-8 0 4.696 5 7.54 5 12Z"/><path fill="#40A565" id="ACAd2/3" d="m223 61-5 1-1-19 5-4h1v22ZM233 61l6 1c0-6.244 1-13.428 1-19l-6-4c0 6.9-1 14.536-1 22Z"/><path fill="#197F61" id="SSp-ul2/3" d="m319 51 18 9c0-.285 4-9.431 4-13l-17-8h-1c0 4.52-4 7.34-4 12Z"/><path fill="#1C7F64" id="SSp-ll4" d="M141 57h2c9.435 0 24.233-12 32-12l1-2c-1.514 0 0-1.762 0-3-6.635 0-22.762 4.131-28.5 7l-8.5 4c0 2.72 2 3.553 2 6Z"/><path fill="#1B8062" id="SSp-un1" d="m115 47-10 5c0-2.124-1-4.436-1-6l10-5c0 2.01 1 3.512 1 6Z"/><path fill="#1C7F64" id="SSp-ll4" d="M314 57h1l3-6-8.5-4c-6.677-3.339-20.396-6-28.5-6v2c0 2.268 5.956 4.228 7.5 5 6.609 3.305 17.938 9 25.5 9Z"/><path fill="#1B8062" id="SSp-un1" d="m341 47 10 5 1-6-9-5-2 6Z"/><path fill="#3EA566" id="ACAd5" d="M218 63c-4.607 0-7.011 5-11 5 0-5.172-1-10.365-1-15l10-10h1l1 19v1ZM239 63l10 5c0-2.348-.161-14 2-14v-1c-1.993 0-10-8.811-10-10h-1c0 5.572-1 12.756-1 19v1Z"/><path fill="#197C63" id="SSp-ll5" d="M306 69h1c0-4.201 7-8.525 7-12-7.562 0-18.891-5.695-25.5-9-1.544-.772-7.5-2.732-7.5-5h-1c0 5.703 4 11.65 4 18 7.065 0 14.359 8 22 8ZM149 69h1c6.057 0 18.02-8 22-8h1c0-6.006 2-10.22 2-16-7.767 0-22.565 12-32 12 0 5.017 6 7.21 6 12Z"/><path fill="#188060" id="SSp-bfd1" d="m79 70-1 1c-2.275 0-3.514-1-6-1l6.5-7c5.924-2.962 19.684-17 25.5-17 0 1.564 1 3.876 1 6v1c-8.415 0-19.969 17-26 17ZM377 71h2l4-2c0-2.685-26.994-23-31-23l-1 6v1c3.011 0 26 15.395 26 18Z"/><path fill="#1C7F63" id="SSp-un2/3" d="M119 61c-4.559 0-7.744 5-12 5 0-3.17.654-13-2-13v-1l10-5 4 13v1ZM337 60l12 6c0-4.345 2-8.395 2-13v-1l-10-5c0 3.569-4 12.715-4 13Z"/><path fill="#1D9C5A" id="MOs6a" d="M189 73h2c0-1.58 2.855-1 4-1 0-6.888 10-13.995 10-19 0-4.602-9.08-2-12-2l-1 1c0 6.973-3 13.186-3 21ZM262 72l5 1V61.5l-3-9.5v-1c-2.276 0-13-2.456-13 2v1c2.661 0 10 15.11 10 18h1Z"/><path fill="#1A7F63" id="SSp-ul4" d="M119 61c.284 0 2 4.975 2 7l15.5-8c1.168-.584 4.5-1.254 4.5-3 0-2.447-2-3.28-2-6h-1l-19 9v1ZM337 60c0 1.813-.115 7-2 7l-20-10 3-6h1l18 9Z"/><path fill="#1F9B5A" id="MOp6a" d="m181 77-10 2 1-18h1l19-9c0 6.973-3 13.186-3 21v1c-1.654 0-8 1.198-8 3ZM267 73c6.232 0 12.064 6 19 6 0-5.15-2-12.85-2-18l-20-9 3 9.5V73Z"/><path fill="#187F63" id="SSp-bfd2/3" d="M79 71c0 1.615 2.916-.792 4.5 0 3.551 1.776 3.897 2 7.5 2 6.358 0 9.825-6 16-6v-1c0-3.17.654-13-2-13-8.415 0-19.969 17-26 17v1Z"/><path fill="#3FA664" id="ACAd6a" d="m195 72 4 3c3.517 0 4.95-6 8-6v-1c0-5.172-1-10.365-1-15h-1c0 5.005-10 12.112-10 19Z"/><path fill="#187F63" id="SSp-bfd2/3" d="M377 71c-4.534 0-5.665 2-12 2-6.101 0-10.389-7-16-7 0-4.345 2-8.395 2-13 3.011 0 26 15.395 26 18Z"/><path fill="#3FA664" id="ACAd6a" d="m261 73-4 2c-3.414 0-4.207-6-8-6v-1c0-2.348-.161-14 2-14 2.661 0 10 15.11 10 18v1Z"/><path fill="#187E62" id="SSp-ul5" d="m149 69-5.5 3c-2.086 1.043-17.317 8-18.5 8-1.037 0-1.733-11-4-11v-1l15.5-8c1.168-.584 4.5-1.254 4.5-3h2c0 5.017 6 7.21 6 12ZM331 80h1c0-4.104 3-7.263 3-12v-1l-20-10h-1c0 3.475-7 7.799-7 12 0 1.59 4.386 1.443 5.5 2l14.5 6.5 4 2.5Z"/><path fill="#197E61" id="SSp-un4" d="M347 75h1c0-3.997 1-5.82 1-9l-12-6c0 1.813-.115 7-2 7v1l12 7ZM121 69l-12 6c0-.88-.641-8-2-8v-1c4.256 0 7.441-5 12-5 .284 0 2 4.975 2 7v1Z"/><path fill="#1A7F64" id="SSp-ll6a" d="M157 83h4c0-1.87 7.329-3 9-3l1-1 1-18c-3.98 0-15.943 8-22 8l7 14Z"/><path fill="#3FA566" id="ACAv2/3" d="m222 92-3 2c0-9.732-1-20.645-1-31v-1l5-1c0 10.298-1 21.352-1 31Z"/><path fill="#40A664" id="ACAv1" d="M222 92h1c0-1.417 2.383-6 4-6 0-3.153 2-5.347 2-1l5 6c0-9.411-1-19.97-1-30h-10c0 10.298-1 21.352-1 31Z"/><path fill="#3FA566" id="ACAv2/3" d="m234 92 3 2c0-10.038 2-20.4 2-31v-1l-6-1c0 10.03 1 20.589 1 30v1Z"/><path fill="#1A7F64" id="SSp-ll6a" d="M286 80c4.833 0 8.124 3 13 3l7-14c-7.641 0-14.935-8-22-8 0 5.15 2 12.85 2 18v1Z"/><path fill="#3EA666" id="ACAv5" d="M211 92c2.522 0 4.909 2 8 2 0-9.732-1-20.645-1-31-4.607 0-7.011 5-11 5v1c0 7.413 4 15.056 4 22v1ZM245 92c0 1.434-6.448 2-8 2 0-10.038 2-20.4 2-31l10 5v1c0 7.908-3 14.465-3 22l-1 1Z"/><path fill="#197C64" id="SSp-bfd4" d="M353 79h1c1.222 0 7.904-5 11-5v-1c-6.101 0-10.389-7-16-7 0 3.18-1 5.003-1 9l5 4ZM103 79h1l3-2 1-1 1-1c0-.88-.641-8-2-8-6.175 0-9.642 6-16 6v1c3.485 0 9.221 5 12 5Z"/><path fill="#197D62" id="SSp-un5" d="M345 88h1c0-3.204 5-4.67 5-8 0-.092-4-4.027-4-5l-12-7c0 4.737-3 7.896-3 12 0 3.405 13 4.836 13 8ZM125 81c-5.326 0-9.22 7-14 7-1.46 0-6-6.472-6-8 2.293 0 2-.997 2-3l1-1 1-1 12-6c2.267 0 2.963 11 4 11v1Z"/><path fill="#197D61" id="SSp-ul6a" d="m135 95-5 1c0-5.28-5-10.156-5-15v-1c1.183 0 16.414-6.957 18.5-8l5.5-3h1l7 14v1c-5.623 0-12.571 6.536-17.5 9-1.37.685-4.5-.871-4.5 2Z"/><path fill="#40A564" id="ACAv6a" d="M208 89c0 1.577 1.762 2 3 2 0-6.944-4-14.587-4-22-3.05 0-4.483 6-8 6v1c1.045 0 9 11.566 9 13ZM248 89l-2 2c0-7.535 3-14.092 3-22 3.793 0 4.586 6 8 6v2c-1.369 0-9 10.375-9 12Z"/><path fill="#197D61" id="SSp-ul6a" d="M299 84c9.374 0 17.481 12 27 12 0-5.531 5-10.265 5-16l-4-2.5-14.5-6.5c-1.114-.557-5.5-.41-5.5-2h-1l-7 14v1Z"/><path fill="#197E63" id="SSp-n1" d="m407 103-4 2c-2.341 0-1.421-2.342-2-3.5l-8-14c-2.556-5.112-14-13.393-14-16.5l4-2h1l1 1 9 9.5c3.576 7.152 13 15.122 13 23.5Z"/><path fill="#188060" id="SSp-bfd1" d="m384 69 1 1-1-1Z"/><path fill="#197E63" id="SSp-n1" d="M53 106h1c0-8.466 10.352-17.205 14-24.5L78 71c-2.275 0-3.514-1-6-1l-6.5 7C60.575 81.925 49 96.669 49 103c1.429 0 4 1.288 4 3ZM78 71h1v-1l-1 1Z"/><path fill="#1B7F64" id="SSp-n2/3" d="M54 106c2.74 0 4.77 5 8 5 1.639 0 4.22-8.94 5-10.5C69.673 95.154 85.917 74 91 74v-1c-3.603 0-3.949-.224-7.5-2-1.584-.792-4.5 1.615-4.5 0h-1L68 81.5c-3.648 7.295-14 16.034-14 24.5ZM394 112h1c0-1.803 6.495-6 8-6v-1c-2.341 0-1.421-2.342-2-3.5l-8-14c-2.556-5.112-14-13.393-14-16.5h-2c-4.534 0-5.665 2-12 2v1c3.468 0 8.584 5.668 10 8.5 3.493 6.986 19 18.704 19 29.5Z"/><path fill="#1E9C58" id="MOs6b" d="M191 73h4v-1c-1.145 0-4-.58-4 1Z"/><path fill="#3FA466" id="ACAd6b" d="M199 76v1l-4-4v-1l4 3v1ZM261 73h1v-1h-1v1Z"/><path fill="#1E9C58" id="MOs6b" d="M267 73v1l-5-1v-1l5 1ZM189 74v1l2-2h-2v1Z"/><path fill="#CACCC7" id="cing" d="M211 91v1c-9.031 0-14.263-9.381-21.5-13-2.573-1.286-16.119 5-19.5 5h-9v-1c3.519 0 5.843-2 9-2 1.705 0 11-2.395 11-4 3.303 0 5.115-2 8-2l2-2h4l4 4c0 2.275 6.105 12 9 12 0 1.577 1.762 2 3 2Z"/><path fill="#3FA466" id="ACAd6b" d="M257 75v2l4-4-4 2Z"/><path fill="#CACCC7" id="cing" d="M246 91v1c7.977 0 14.494-9.497 21.5-13 1.784-.892 14.031 4 17.5 4l1 1h9c0-.963-7.561-3-9-3-1.07 0-14.523-4.023-15-4.5l-4-2.5-5-1h-1l-4 4c0 2.73-5.487 12-9 12l-2 2Z"/><path fill="#1D9D5A" id="MOp6b" d="M286 80v1c-1.07 0-14.523-4.023-15-4.5l-4-2.5v-1c6.232 0 12.064 6 19 6v1Z"/><path fill="#1A8062" id="SSp-n4" d="M68 117h1c0-11.685 19.786-23.072 24-31.5l10-6.5c-2.779 0-8.515-5-12-5-5.083 0-21.327 21.154-24 26.5-.78 1.56-3.361 10.5-5 10.5v1l6 5Z"/><path fill="#1D9D5A" id="MOp6b" d="M189 75c-2.885 0-4.697 2-8 2 0-1.802 6.346-3 8-3v1Z"/><path fill="#1A8062" id="SSp-n4" d="m394 112-6 4-3-5.5-13-17L354 79c1.222 0 7.904-5 11-5 3.468 0 8.584 5.668 10 8.5 3.493 6.986 19 18.704 19 29.5Z"/><path fill="#1A7D62" id="SSp-bfd5" d="m353 79-2 1c0-.092-4-4.027-4-5h1l5 4ZM108 76l-1 1 1-1Z"/><path fill="#40A465" id="ACAv6b" d="M199 77c0 2.275 6.105 12 9 12 0-1.434-7.955-13-9-13v1Z"/><path fill="#1A7D62" id="SSp-bfd5" d="m104 79 1 1c2.293 0 2-.997 2-3l-3 2Z"/><path fill="#1D9D5A" id="MOp6b" d="M170 80v1c1.705 0 11-2.395 11-4l-10 2-1 1Z"/><path fill="#40A465" id="ACAv6b" d="M257 77c-1.369 0-9 10.375-9 12 3.513 0 9-9.27 9-12Z"/><path fill="#197E62" id="SSp-n5" d="M77 123h1c0-9.036 24.182-34 33-34v-1c-1.46 0-6-6.472-6-8l-1-1h-1l-10 6.5c-4.214 8.428-24 19.815-24 31.5l8 6Z"/><path fill="#197F62" id="SSp-ll6b" d="m171 79-1 1 1-1Z"/><path fill="#C9C7C9" id="ccb" d="m83 155-2 10c2.621 0 3.179-6.858 4-8.5 3.59-7.18 8.386-13.773 12-21 6.163-12.327 25.478-26.489 37.5-32.5 5.447-2.724 12.924-1 18.5-1 .149 0 7.112-9 13-9h1l2-1c5.847 0 14.327-4.087 20.5-1l5 4c1.544.772 7.5 2.732 7.5 5l8 1c0-2.577 6.545-2 8.5-2 2.052 0 9.503 2.248 10 2 3.644-1.822 6.033-2 10.5-2 1.851 0 7-.867 7 2l8-1 1-1 12.5-8c5.873-2.936 13.943 1 19.5 1l2 1h1c3.763 0 13 4.328 13 9 5.76 0 13.934-1.783 19.5 1 14.05 7.025 33.072 22.644 40.5 37.5 3.813 7.626 7.218 15.436 11 23 .632 1.265 1.278 6.5 3 6.5 0-5.781-4-10.404-4-16l-2-4v-1l-2-3v-1c-2.122 0-6.985-11.47-8-13.5-4.393-8.786-17.714-22.107-26.5-26.5-12.108-6.054-24.888-9.944-37-16-1.746-.873-10.5-2.685-10.5-5h-1l-1-1c-3.469 0-15.716-4.892-17.5-4-7.006 3.503-13.523 13-21.5 13h-1c0 1.434-6.448 2-8 2l-3-2-4.5 1-1-2c-.229 0-5.5 4.534-5.5 1h-1l-3 2c-3.091 0-5.478-2-8-2-9.031 0-14.263-9.381-21.5-13-2.573-1.286-16.119 5-19.5 5l-8.5 4c-8.994 4.497-19.139 6.57-28 11-7.633 3.816-15.564 10.782-22 14l-6.5 6c0 .887-7.324 11-9 11l-1 1v1l-1 1-1 2c0 1.238-.423 3-2 3 0 1.465.109 4-2 4 0 1.465.109 4-2 4v1l-1 1-1 2v1l-1 2v1l-1 1Z"/><path fill="#197E62" id="SSp-n5" d="M388 117c-3.723 0-5.882 6-9 6 0-5.049-14.916-23.708-19.5-26L346 88c0-3.204 5-4.67 5-8l2-1h1l18 14.5 13 17 3 5.5v1Z"/><path fill="#197F62" id="SSp-ll6b" d="M170 81c-3.157 0-5.481 2-9 2 0-1.87 7.329-3 9-3v1ZM299 84l-1 1-3-1c0-.963-7.561-3-9-3v-1c4.833 0 8.124 3 13 3v1Z"/><path fill="#1A7F61" id="SSp-un6a" d="M335 101h1c0-5.45 9-7.207 9-13 0-3.164-13-4.595-13-8h-1c0 5.735-5 10.469-5 16l1 1 8 4ZM121 101h2c0-2.218 5.144-4 7-4v-1c0-5.28-5-10.156-5-15-5.326 0-9.22 7-14 7v1c2.206 0 10 10.138 10 12Z"/><path fill="#197F62" id="SSp-ll6b" d="m161 84-3 1-1-1v-1h4v1Z"/><path fill="#C9C9CA" id="scwm" d="m285 83 1 1-1-1Z"/><path fill="#1C8064" id="SSp-ul6b" d="M158 85c-8.022 0-14.36 10-23 10 0-2.871 3.13-1.315 4.5-2 4.929-2.464 11.877-9 17.5-9l1 1Z"/><path fill="#C9C9CA" id="scwm" d="M105 117v2l6.5-6c6.436-3.218 14.367-10.184 22-14 8.861-4.43 19.006-6.503 28-11l8.5-4h-9l-3 1c-8.022 0-14.36 10-23 10 0 2.46-3.378 2-5 2 0 1.948-5.428 4-7 4l-2 2h-2c0 1.747-.253 2-2 2 0 1.747-.253 2-2 2 0 1.189-8.007 10-10 10ZM365 135l4 10c-2.122 0-6.985-11.47-8-13.5-4.393-8.786-17.714-22.107-26.5-26.5-12.108-6.054-24.888-9.944-37-16-1.746-.873-10.5-2.685-10.5-5h8l3 1c8.862 0 18.556 12 29 12 0 2.449 6.154 5 8 5l20.5 19c3.525 1.763 5.388 14 9.5 14Z"/><path fill="#1C8064" id="SSp-ul6b" d="m326 96 1 1c-10.444 0-20.138-12-29-12l1-1c9.374 0 17.481 12 27 12Z"/><path fill="#7ED04B" id="IG" d="M223 92c0 3.534 5.271-1 5.5-1l1 2 4.5-1v-1l-5-6-2 1c-1.617 0-4 4.583-4 6Z"/><path fill="#187D62" id="SSp-n6a" d="M379 123c-3.346 0-9.89 10-14 10l-3-3.5c-2.192-4.383-4.628-7.628-8.5-11.5L336 101c0-5.45 9-7.207 9-13h1l13.5 9c4.584 2.292 19.5 20.951 19.5 26ZM99 123c-4.146 0-4.135 10-8 10-1.178 0-13-8.376-13-10 0-9.036 24.182-34 33-34 2.206 0 10 10.138 10 12v1l-2 1-2 2c-1.747 0-2 .253-2 2-2.839 0-10 7.161-10 10-1.747 0-2 .253-2 2-2.226 0-4 1.774-4 4Z"/><path fill="#A8AAAA" id="VL" fill-rule="evenodd" d="M187 95c0 9.954-22.074 26.713-13.5 31 1.903.951 6.436-3.218 8-4 7.781-3.891 20.391-11.717 15.5-21.5-1.916-3.833-5.607-5.5-10-5.5m15 15c-1.835 0-7.928 7.714-10.5 9-2.114 1.057-11.59 4.68-12.5 6.5l-8 8-2 3.5c0-6.674.77-13.961-2-19.5-1.36-2.721-10-12.212-10-13.5 0-9.976 9-8.392 9-11h1l2-1c5.847 0 14.327-4.087 20.5-1l5 4c1.544.772 7.5 2.732 7.5 5v10ZM265 95c0 3.446-10.372 4.757-7 11.5 2.269 4.538 5.094 8.297 9.5 10.5 4.992 2.496 9.08 6.54 14 9 1.513.757 5.257-2.987 4.5-4.5l-9-10c-2.301-4.601-3.737-9.474-6-14-1.286-2.571-3.583-2.5-6-2.5m-11 14 7.5 8c6.854 3.427 13.422 9.211 19 12l6.5 7c0-6.016-.489-12.521 2-17.5l10-14.5 1-1c0-7.338-10-8.497-10-10h-1l-2-1c-5.557 0-13.627-3.936-19.5-1L255 99l-1 1v9Z"/><path fill="#40A564" id="ACAv6a" d="M245 92h1v-1l-1 1Z"/><path fill="#AAA8A9" id="SEZ" d="m169 92-2 1 2-1ZM287 92l2 1-2-1ZM153 102l4 2c0-9.976 9-8.392 9-11-5.888 0-12.851 9-13 9ZM303 102c0 1.473-1.952 1-3 1 0-7.338-10-8.497-10-10 3.763 0 13 4.328 13 9Z"/><path fill="#1C8064" id="SSp-ul6b" d="M130 96v1c1.622 0 5 .46 5-2l-5 1Z"/><path fill="#A9AAA8" id="chpl" d="M187 95c0 9.954-22.074 26.713-13.5 31 1.903.951 6.436-3.218 8-4 7.781-3.891 20.391-11.717 15.5-21.5-1.916-3.833-5.607-5.5-10-5.5ZM265 95c0 3.446-10.372 4.757-7 11.5 2.269 4.538 5.094 8.297 9.5 10.5 4.992 2.496 9.08 6.54 14 9 1.513.757 5.257-2.987 4.5-4.5l-9-10c-2.301-4.601-3.737-9.474-6-14-1.286-2.571-3.583-2.5-6-2.5Z"/><path fill="#1A7D63" id="SSp-un6b" d="M130 97c-1.856 0-7 1.782-7 4 1.572 0 7-2.052 7-4ZM335 101v1c-1.846 0-8-2.551-8-5l8 4Z"/><path fill="#CBC8CC" id="df" d="M235 103h1c0-1.484 8.263-2 10-2 0-2.867-5.149-2-7-2-4.467 0-6.856.178-10.5 2-.497.248-7.948-2-10-2-1.955 0-8.5-.577-8.5 2 1.737 0 10 .516 10 2h15Z"/><path fill="#1A7D63" id="SSp-un6b" d="M121 102v1l2-2h-2v1Z"/><path fill="#98D5F9" id="CP" d="m124 233-5 1c-4.107 0-8.469-1-12-1-6.642 0-16.534-21.568-19-26.5l-5-9.5v-1l-4-11.5V171l1-2c1.58 0 1-2.855 1-4 2.621 0 3.179-6.858 4-8.5 3.59-7.18 8.386-13.773 12-21 6.163-12.327 25.478-26.489 37.5-32.5 5.447-2.724 12.924-1 18.5-1l4 2c0 1.288 8.64 10.779 10 13.5 2.77 5.539 2 12.826 2 19.5v3c-1.876 0-1.04 6-4 6l-4 1c0-1.416-9.549-2.976-11.5-2-3.52 1.76-.09 8.679-1.5 11.5l-2 5.5c-1.858 0-6.146 8.792-7 10.5-6.476 12.953-3 28.993-3 43.5 0 2.707-1 5.903-1 8 0 1.998-8.049 8-10 8l-1 1ZM337 234h10l2-1c4.217 0 6.259-8 10-8 0-1.417 2.383-6 4-6 0-2.08 1.934-9 4-9 0-1.856 1.782-7 4-7v-1c0-1.424.362-5 2-5l1-2 1-2c0-1.357.647-6 2-6v-17c-1.722 0-2.368-5.235-3-6.5-3.782-7.564-7.187-15.374-11-23-7.428-14.856-26.45-30.475-40.5-37.5-5.566-2.783-13.74-1-19.5-1 0 1.473-1.952 1-3 1l-1 1-10 14.5c-2.489 4.979-2 11.484-2 17.5v1c1.951 0 .477 2.454 1 3.5.523 1.046 3 5.292 3 5.5l4 1c3.062 0 7.606-3.947 11.5-2 .156.078 4.5 16.243 4.5 17 0 1.117 7.858 13.217 9 15.5 4.647 9.293 1 26.963 1 37.5v10c4.176 0 6.684 7 11 7l1 1h2l1 1h1Z"/><path fill="#1B7E64" id="SSp-n6b" d="M365 133v2c-4.112 0-5.975-12.237-9.5-14L335 102v-1h1l17.5 17c3.872 3.872 6.308 7.117 8.5 11.5l3 3.5ZM119 103h2v-1l-2 1Z"/><path fill="#1A7E62" id="SSs1" d="M33 173h5c0-11.358.243-24.986 5-34.5v-5c2.827-5.653 10-21.53 10-27.5 0-1.712-2.571-3-4-3-1.88 0-4.972 13.444-6 15.5-7.602 15.205-10 36.376-10 54.5Z"/><path fill="#1B7E64" id="SSp-n6b" d="m119 103-2 2c1.747 0 2-.253 2-2Z"/><path fill="#96A7D2" id="TRS" d="m213 112 4.5 3h22c1.619-.809 1.471-2 3.5-2l1-2c0-7.309.638-8-8-8h-1c0 2.596-14 2.596-14 0h-1c-9.093 0-7 1.959-7 9Z"/><path fill="#AAA8A9" id="SEZ" d="m300 103-1 1 1-1Z"/><path fill="#1A7E62" id="SSs1" d="M419 173h4c0-19.035-2.063-39.626-10-55.5-1.181-2.361-2.566-14.5-6-14.5l-4 2v1c0 5.711 5.444 15.388 8 20.5 4.633 9.266 8 34.974 8 46.5Z"/><path fill="#1B7E64" id="SSp-n6b" d="M117 105c-1.747 0-2 .253-2 2 1.747 0 2-.253 2-2Z"/><path fill="#1B8063" id="SSs2/3" d="m38 173 7 1c0-8.692 6.471-37.443 10-44.5 2.143-4.287 7-12.757 7-17.5v-1c-3.23 0-5.26-5-8-5h-1c0 5.97-7.173 21.847-10 27.5v5c-4.757 9.514-5 23.142-5 34.5ZM419 173l-8 1c0-10.208-5.892-37.285-10-45.5-2.325-4.65-6-11.072-6-16.5 0-1.803 6.495-6 8-6 0 5.711 5.444 15.388 8 20.5 4.633 9.266 8 34.974 8 46.5Z"/><path fill="#1B7E64" id="SSp-n6b" d="M115 107c-2.839 0-10 7.161-10 10 1.993 0 10-8.811 10-10Z"/><path fill="#CBC8CB" id="fi" d="M287 137v5c-2.935 0-6.006 5.247-10.5 3l-21.5-9-6-3v-1l-5-9-1-6 2-3c1.577 0 9-3.727 9-5l7.5 8c6.854 3.427 13.422 9.211 19 12l6.5 7v1ZM169 140v1c2.297 0 5.496 6.502 10.5 4 4.244-2.122 18.346-9 22.5-9l5-3v-1c0-1.364 4.483-9 6-9v-8l-2-1c-3.164 0-5.21-4-9-4-1.835 0-7.928 7.714-10.5 9-2.114 1.057-11.59 4.68-12.5 6.5l-8 8-2 3.5v3Z"/><path fill="#97D6F9" id="STR" d="m245 114-2 3v-4l1-2 1 3Z"/><path fill="#187C63" id="SSs4" d="M45 174h6c0-6.619 5.227-32.954 8-38.5 1.577-3.154 9-15.851 9-18.5l-6-5c0 4.743-4.857 13.213-7 17.5-3.529 7.057-10 35.808-10 44.5Z"/><path fill="#97D6F9" id="STR" d="m211 114 2 1v-3l-2 2Z"/><path fill="#8FCBEC" id="SF" d="M213 123h31l-1-6v-4c-2.029 0-1.881 1.191-3.5 2h-22l-4.5-3v11Z"/><path fill="#187C63" id="SSs4" d="M405 174h6c0-10.208-5.892-37.285-10-45.5-2.325-4.65-6-11.072-6-16.5h-1l-6 4v1c2.315 0 4.127 8.754 5 10.5 6.577 13.153 12 30.955 12 46.5Z"/><path fill="#1C8063" id="SSs5" d="M51 174c4.569 0 8.923 1 13 1 0-11.395 2.314-28.129 7-37.5l6-14.5-8-6h-1c0 2.649-7.423 15.346-9 18.5-2.773 5.546-8 31.881-8 38.5Z"/><path fill="#1B7E64" id="SSp-n6b" d="M103 119h2v-2c-1.747 0-2 .253-2 2Z"/><path fill="#1C8063" id="SSs5" d="M405 174c-4.107 0-8.469 1-12 1 0-10.769-3.512-29.524-8-38.5l-6-13.5c3.118 0 5.277-6 9-6 2.315 0 4.127 8.754 5 10.5 6.577 13.153 12 30.955 12 46.5Z"/><path fill="#1B7E64" id="SSp-n6b" d="M103 119c-2.226 0-4 1.774-4 4l4-4Z"/><path fill="#C9C9CA" id="scwm" d="m99 123-3 7c1.676 0 9-10.113 9-11h-2l-4 4Z"/><path fill="#197D63" id="SSs6a" d="M64 175h13c0-9.138 4.098-20.695 8-28.5l4-7.5 2-5v-1c-1.178 0-13-8.376-13-10h-1l-6 14.5c-4.686 9.371-7 26.105-7 37.5Z"/><path fill="#1B7E64" id="SSp-n6b" d="M92 135h1l1-2 1-1v-1l1-1 3-7c-4.146 0-4.135 10-8 10v1l1 1Z"/><path fill="#C8C9C9" id="vhc" d="M248 132h1l-5-9h-31c-1.517 0-6 7.636-6 9h2c0-1.473 1.952-1 3-1 0-2.388 5.661-2 7.5-2 6.659 0 17.321-1.84 23 1 .93.465 4.5.817 4.5 2h1Z"/><path fill="#197D63" id="SSs6a" d="M380 175h13c0-10.769-3.512-29.524-8-38.5l-6-13.5c-3.346 0-9.89 10-14 10v2c2.441 0 4.173 6.845 5 8.5 4.639 9.277 9 20.442 9 31.5h1Z"/><path fill="#C9C9CA" id="scwm" d="m96 130-1 1 1-1Z"/><path fill="#A8A9AA" id="V3" d="M241 155h3l6.5-4 4.5-5v-10l-6-3-1-1h-1c-4.948 0-11-3.867-11 4 0 9.837-15 9.227-15-1-2.205 0-.002-3.251-1.5-4H212c0 1.473-1.952 1-3 1h-1l-1 1-5 3c0 2.097-1 5.293-1 8v1l2.5 4c1.442.721 8.5 4.326 8.5 6h3l15.5 2c2.587-1.294 7.563-2 10.5-2Z"/><path fill="#C9C9CA" id="scwm" d="m95 132-1 1 1-1ZM94 133l-1 2 1-2Z"/><path fill="#1A8061" id="SSs6b" d="m91 138-2 1 2-5 1 1-1 3Z"/><path fill="#C9C9CA" id="scwm" d="M93 135c0 1.238-.423 3-2 3l1-3h1Z"/><path fill="#FF5347" id="SFO" d="M221 135c5.158 0 10.356 1 15 1 0 9.837-15 9.227-15-1Z"/><path fill="#1A8061" id="SSs6b" d="M378 175h1c0-11.058-4.361-22.223-9-31.5-.827-1.655-2.559-8.5-5-8.5l4 10v1c1.577 0 2 1.762 2 3v1l2 4c0 5.596 4 10.219 4 16v2l1 1v2Z"/><path fill="#97D6F9" id="STR" d="m291 146-2 1-2-1v-9c1.951 0 .477 2.454 1 3.5.523 1.046 3 5.292 3 5.5Z"/><path fill="#C9C9CA" id="scwm" d="M89 139v3c2.109 0 2-2.535 2-4l-2 1Z"/><path fill="#1A8061" id="SSs6b" d="M77 175h1l1-2v-2l1-2c0-1.145-.58-4 1-4l2-10 1-1v-1l1-2v-1l1-2 1-1v-1l2-4v-3l-4 7.5c-3.902 7.805-8 19.362-8 28.5Z"/><path fill="#97D6F9" id="STR" d="m169 146-2 1-2-1c2.96 0 2.124-6 4-6v6Z"/><path fill="#C9C9CA" id="scwm" d="m89 142-2 4c2.109 0 2-2.535 2-4Z"/><path fill="#FF6F80" id="TH" d="m193 142-1 1 1-1Z"/><path fill="#FF8F9E" id="AD" d="M201 165h1v-5l-1-1c0-3.51-1-7.022-1-10l-1-6c0-1.684-4.679-1-6-1l-1 1v2c0 6.202 9 16.025 9 20ZM254 163l1 1c1.988 0 2.408-3.315 3-4.5l7-14.5-1-3c-1.851 0-7-.867-7 2l-1 4-1 12c0 1.048.473 3-1 3Z"/><path fill="#FF6F80" id="TH" d="M268 144c0 1.473-1.952 1-3 1l-1-3 4 2ZM188 144l4 1v-2c-1.145 0-4-.579-4 1ZM201 145c0 1.145.579 4-1 4l-1-6 2 1v1Z"/><path fill="#FD909E" id="AV" d="M185 175h1c3.047 0 4.462-3 7-3 0-2.407 8-2.482 8-7 0-3.975-9-13.798-9-20l-4-1-13 3v6l1 1 2 4 1 1c0 4.264 4 7.497 4 12l1 1v1l1 1v1Z"/><path fill="#FF6F80" id="TH" d="m255 146 1 2 1-4h-2v2Z"/><path fill="#FD909E" id="AV" d="M270 175h1l1-2 1-2 4-11 1-1v-1l1-1v-1l1-1 1-1v-2l1-1-1-4-13-3c0 1.473-1.952 1-3 1l-7 14.5c-.592 1.185-1.012 4.5-3 4.5v2c0 3.662 8 3.492 8 6l7 3Z"/><path fill="#97D6F9" id="STR" d="M146 162h2c0-3.069.743-17.879 6.5-15l3.5 4h2l1-1v-3c0-1.416-9.549-2.976-11.5-2-3.52 1.76-.09 8.679-1.5 11.5l-2 5.5Z"/><path fill="#CCC9C8" id="sm" d="M202 161c2.208 0-1.619 3 6 3 0-1.247 2.467-5 4-5v-4c0-1.674-7.058-5.279-8.5-6l-2.5-4c0 1.145.579 4-1 4 0 2.978 1 6.49 1 10l1 1v1Z"/><path fill="#97D6F9" id="STR" d="M308 162h3c0-.757-4.344-16.922-4.5-17-3.894-1.947-8.438 2-11.5 2v3h1l3 1c0-4.02 6.179-5.142 8-1.5l1 12.5Z"/><path fill="#C8CBC7" id="st" d="m165 158 4 3c0-3.664 1-7.741 1-11l-3-3-2-1-4 1v3c0 3.715 4 5.378 4 8Z"/><path fill="#CAC7CB" id="fiber tracts" d="m171 149-1 1-3-3 2-1c0 1.481 2 .785 2 3Z"/><path fill="#CCC9C8" id="sm" d="M254 163c-1.087 0-2.433 2-5 2 0-1.247-2.467-5-4-5l-1-3v-2l6.5-4 4.5-5 1 2-1 12c-1.473 0-1 1.952-1 3Z"/><path fill="#CAC7CB" id="fiber tracts" d="m285 149 2 1 2-3-2-1-2 3Z"/><path fill="#C8CBC7" id="st" d="m291 158-4 3v-11l2-3 2-1 4 1v3c0 3.698-4 6.214-4 8Z"/><path fill="#C9C9CA" id="scwm" d="M369 146c1.577 0 2 1.762 2 3l-2-3ZM87 147l-1 1 1-1Z"/><path fill="#CCC" d="M165 194v1c2.18 0 1.9 9.8 5.5 8 3.918-1.959.5-10.764.5-13.5 0-6.802-5.13-13.259-8-19-1.503-3.006.931-9.137 0-11l-3-5.5c-1.577 0-2-1.762-2-3l-3.5-4c-5.757-2.879-6.5 11.931-6.5 15 5.02 0 15 22.573 15 27l1 1v1c1.473 0 1 1.952 1 3Z"/><path fill="#FF6F80" id="TH" d="m173 149 2 2v-4l-2 2ZM284 149l-2 2-1-4 3 2Z"/><path fill="#CCC" d="M292 192v1c-1.7 0-2.697 11.902-6.5 10-2.677-1.339-1.593-12.314-.5-14.5l9-20c1.556-3.113-1.107-7.786 0-10 .936-1.873 3-3.23 3-5.5l2-2c0-4.02 6.179-5.142 8-1.5l1 12.5-7 7.5c-3.026 6.051-8 13.303-8 20.5l-1 2Z"/><path fill="#C9C9CA" id="scwm" d="m86 148-1 2 1-2Z"/><path fill="#FD8F9F" id="RT" d="M198 191c0 2.433 9.309 3.882 7 8.5l-1.5 1.5c-4.707 0-6.897-8.051-15-4-1.119.559-4.5.155-4.5 2h-5.5c-3.816-1.908-10.005-24.51-12.5-29.5l1-4.5 2-4c0-3.664 1-7.741 1-11l1-1h2l2 2v2l1 1 2 4 1 1c0 4.264 4 7.497 4 12l1 1v1l1 1v1l1 2 1 5 1 1 1 3 3 3h1l1 1h1l1 1h2ZM259 191c0 2.01-10.149 4.201-8 8.5l3.5.5 3-3c2.402-1.201 15.5-1.855 15.5 2h5.5c2.392-1.196 11.5-30.167 11.5-34-1.712 0-3-2.571-3-4v-11l-2-1h-1l-2 2-1 1v2l-1 1-1 1v1l-1 1v1l-1 1-4 11-1 2-1 2c0 1.048.473 3-1 3l-2 7-1 1-1 1-1 1-2 1-1 1-3 1Z"/><path fill="#8599CC" id="PAL" d="M161 218c6.632 0 6.462 7 8 7 0-3.772 12.643-23 16-23l2-1-3-2h-5.5c-3.816-1.908-10.005-24.51-12.5-29.5l1-4.5c-.682 0-2-6.241-2-7 0-2.622-4-4.285-4-8l-1 1v3l3 5.5c.931 1.863-1.503 7.994 0 11 2.87 5.741 8 12.198 8 19 0 2.736 3.418 11.541-.5 13.5-3.6 1.8-3.32-8-5.5-8v13.5l-4 9.5ZM287 225c0 1.048-.473 3 1 3 0-6.006 1.618-10 8-10 0-2.272-3.881-8.262-5-10.5l1-14.5c-1.7 0-2.697 11.902-6.5 10-2.677-1.339-1.593-12.314-.5-14.5l9-20c1.556-3.113-1.107-7.786 0-10 .936-1.873 3-3.23 3-5.5-1.473 0-1-1.952-1-3h-1c0 3.698-4 6.214-4 8l-1 7c0 3.833-9.108 32.804-11.5 34H273l-4 2 2 1c4.303 0 16 18.714 16 23Z"/><path fill="#CAC7CB" id="fiber tracts" d="m299 151-2 2c-1.473 0-1-1.952-1-3l3 1Z"/><path fill="#C9C9CA" id="scwm" d="m371 150 2 4-2-4ZM85 151l-1 2 1-2Z"/><path fill="#CAC7CB" id="fiber tracts" d="M160 151v3c-1.577 0-2-1.762-2-3h2Z"/><path fill="#FF6F80" id="TH" d="m282 151-1 1 1-1ZM175 153l1 1-1-1Z"/><path fill="#C9C9CA" id="scwm" d="m84 154-1 1 1-1Z"/><path fill="#FF6F80" id="TH" d="m281 154-1 1 1-1ZM215 157l-3 1v-3h3v2Z"/><path fill="#FE8F9E" id="PVT" d="M221 197h15v-1c0-9.081-3.498-16.504 1-25.5 1.084-2.168-.056-10.5 4-10.5l1-3-1-2c-2.937 0-7.913.706-10.5 2l-15.5-2v4c3.608 0 3.01 7.521 4 9.5 2.073 4.146 5.683 16.635 3 22l-2 5.5 1 1Z"/><path fill="#FF6F80" id="TH" d="M242 157h2v-2h-3l1 2ZM280 155l-1 1 1-1Z"/><path fill="#FD909D" id="MD" d="M212 159c0 1.486 3 1.486 3 0v-2l-3 1v1ZM241 160h4l-1-3h-2l-1 3Z"/><path fill="#FF6F80" id="TH" d="m279 157-1 1 1-1Z"/><path fill="#CAC7CB" id="fiber tracts" d="m169 161-2 4c-.682 0-2-6.241-2-7l4 3Z"/><path fill="#FF6F80" id="TH" d="m178 158 1 1-1-1Z"/><path fill="#CAC7CB" id="fiber tracts" d="M287 161c0 1.429 1.288 4 3 4l1-7-4 3Z"/><path fill="#FF6F80" id="TH" d="m201 159 1 1-1-1Z"/><path fill="#FF909F" id="PT" d="m218 198-6 1c0-1.291-5-5.074-5-10 5.014 0 0-20.46 0-22l1-3c0-1.247 2.467-5 4-5 0 1.486 3 1.486 3 0 3.608 0 3.01 7.521 4 9.5 2.073 4.146 5.683 16.635 3 22l-2 5.5-1 1-1 1Z"/><path fill="#FF6F80" id="TH" d="m278 159-1 1 1-1Z"/><path fill="#FF909F" id="PT" d="m237 197 7 2c0-.453 5-4.99 5-10v-1c-4.26 0 0-18.317 0-21v-2c0-1.247-2.467-5-4-5h-4c-4.056 0-2.916 8.332-4 10.5-4.498 8.996-1 16.419-1 25.5l1 1Z"/><path fill="#FF6F80" id="TH" d="M255 160c-1.473 0-1 1.952-1 3 1.473 0 1-1.952 1-3ZM203 167h4l1-3c-7.619 0-3.792-3-6-3v4l1 2Z"/><path fill="#8598CC" id="GPe" d="M138 219c1.046 0 6.474 2 10 2 6.295 0 9.933-3 13-3l4-9.5V194c-1.473 0-1-1.952-1-3v-1l-1-1c0-4.427-9.98-27-15-27h-2c-1.858 0-6.146 8.792-7 10.5-6.476 12.953-3 28.993-3 43.5l2 3ZM319 219c-2.95 0-7.018 2-11 2-5.706 0-10.985-3-12-3 0-2.272-3.881-8.262-5-10.5l1-14.5v-1l1-2c0-7.197 4.974-14.449 8-20.5l7-7.5h3c0 1.117 7.858 13.217 9 15.5 4.647 9.293 1 26.963 1 37.5l-2 4Z"/><path fill="#FF6F80" id="TH" d="M249 167c.666 0 4-2.56 4 0l2-1v-2l-1-1c-1.087 0-2.433 2-5 2v2Z"/><path fill="#C9C7C9" id="ccb" d="M81 165c-1.58 0-1 2.855-1 4 1.58 0 1-2.855 1-4Z"/><path fill="#FD8D9F" id="AMd" d="m207 189-2.5 2-4.5-1c0-3.098-3.53-11.561-5-14.5l-2-3.5c0-2.407 8-2.482 8-7h1l1 2c0 5.86 4 13.432 4 22Z"/><path fill="#FC8E9F" id="IAD" d="M207 167c0 1.54 5.014 22 0 22 0-8.568-4-16.14-4-22h4ZM253 167c0 7.146-4 13.167-4 21-4.26 0 0-18.317 0-21 .666 0 4-2.56 4 0Z"/><path fill="#FD8D9F" id="AMd" d="m249 189 2.5 2 4.5-1c0-5.589 7-11.977 7-18 0-2.508-8-2.338-8-6l-2 1c0 7.146-4 13.167-4 21v1Z"/><path fill="#C9C7C9" id="ccb" d="m80 169-1 2 1-2Z"/><path fill="#FF6F80" id="TH" d="m183 171 1 1-1-1ZM273 171l-1 2 1-2Z"/><path fill="#FC909D" id="AMv" d="M196 191h2l2-1c0-3.098-3.53-11.561-5-14.5l-2-3.5c-2.538 0-3.953 3-7 3v2l1 5 1 1 1 3 3 3h1l1 1h1l1 1ZM262 190l-3 1c-1.048 0-3 .473-3-1 0-5.589 7-11.977 7-18l7 3v3l-2 7-1 1-1 1-1 1-2 1-1 1Z"/><path fill="#C9C7C9" id="ccb" d="M377 173h1l-1-1v1Z"/><path fill="#12AD83" id="VISC1" d="m43 199-5 1c-3.56 0-5-22.293-5-27h5c0 6.152-.57 14.361 2 19.5l3 5.5v1Z"/><path fill="#12AC83" id="VISC2/3" d="M52 195c0 1.139-7.742 3-9 3l-3-5.5c-2.57-5.139-2-13.348-2-19.5l7 1c0 3.5 4.238 21 7 21Z"/><path fill="#C8CBCC" id="ec" d="M82 196h1l-4-11.5V173l-1 2c0 4.107 1 8.469 1 12l1 4v1l1 1v1l1 1v1Z"/><path fill="#FF6F80" id="TH" d="m184 173 1 1-1-1ZM272 173l-1 2 1-2Z"/><path fill="#C8CBCC" id="ec" d="M377 187h1v-14h-1v14Z"/><path fill="#12AC83" id="VISC2/3" d="M405 195c0 1.231 7.622 3 9 3l3-7.5c2.188-4.375 2-12.312 2-17.5l-8 1c0 8.521-6 18.033-6 21Z"/><path fill="#12AD83" id="VISC1" d="m414 199 5 1c0-1.598 2.177-6.853 3-8.5 2.281-4.562 1-13.099 1-18.5h-4c0 5.188.188 13.125-2 17.5l-3 7.5v1Z"/><path fill="#11AC82" id="VISC4" d="M52 195h1c0-2.613-.93-4.36-2-6.5V174h-6c0 3.5 4.238 21 7 21Z"/><path fill="#12AD82" id="VISC5" d="M53 195h1c4.364 0 8.259-2 12-2 0-5.877-2-11.453-2-18-4.077 0-8.431-1-13-1v14.5c1.07 2.14 2 3.887 2 6.5ZM390 193c4.017 0 8.279 2 13 2l2-4.5V174c-4.107 0-8.469 1-12 1 0 6.585-3 12.113-3 18Z"/><path fill="#11AC82" id="VISC4" d="M403 195h2c0-2.967 6-12.479 6-21h-6v16.5l-2 4.5Z"/><path fill="#11AC83" id="VISC6a" d="M66 193h1c0-1.802 9.131-5 11-5v-1c-1.781 0-1-10.176-1-12H64c0 6.547 2 12.123 2 18Z"/><path fill="#11AD82" id="VISC6b" d="M78 187h1c0-3.531-1-7.893-1-12h-1c0 1.824-.781 12 1 12Z"/><path fill="#FF6F80" id="TH" d="M186 175v2l-1-2h1ZM271 175c0 1.048.473 3-1 3v-3h1Z"/><path fill="#11AD82" id="VISC6b" d="M378 187h1c0-4.107 1-8.469 1-12h-2v12Z"/><path fill="#11AC83" id="VISC6a" d="M389 193h1c0-5.887 3-11.415 3-18h-13c0 3.531-1 7.893-1 12v1c1.548 0 10 3.293 10 5Z"/><path fill="#FF6F80" id="TH" d="m187 182 1 1-1-1ZM268 185l-1 1 1-1ZM189 186l3 3-3-3Z"/><path fill="#019C74" id="GU6b" d="M79 191h1l-1-4h-1v1l1 3Z"/><path fill="#FF6F80" id="TH" d="m266 187-1 1 1-1Z"/><path fill="#C8CBCC" id="ec" d="m376 192-1 1c0-1.357.647-6 2-6v4l-1 1Z"/><path fill="#019C74" id="GU6b" d="M377 191h1l1-3v-1h-2v4Z"/><path fill="#009B74" id="GU6a" d="m78 192-11 1c0-1.802 9.131-5 11-5l1 3-1 1ZM378 191c3.205 0 6.924 2 11 2 0-1.707-8.452-5-10-5l-1 3Z"/><path fill="#8599CC" id="PAL" d="m163 189 1 1-1-1Z"/><path fill="#FF6F80" id="TH" d="m193 189 1 1-1-1ZM209 209c4.503 0 7.736 4 12 4 0-1.19-9-7.682-9-14 0-1.291-5-5.074-5-10l-2.5 2-4.5-1-2 1c0 2.433 9.309 3.882 7 8.5l-1.5 1.5c-4.707 0-6.897-8.051-15-4-1.119.559-4.5.155-4.5 2l3 2c1.321 0 6-.684 6 1l1 1h3c0-1.579 2.855-1 4-1 1.651 0 8 5.95 8 7ZM247 209l-8 2c0-3.862 5-6.41 5-12 0-.453 5-4.99 5-10l2.5 2 4.5-1c0 1.473 1.952 1 3 1 0 2.01-10.149 4.201-8 8.5l3.5.5 3-3c2.402-1.201 15.5-1.855 15.5 2l-4 2h-5l-1 1-1 1h-3c0-1.579-2.855-1-4-1l-8 7ZM263 189l-1 1 1-1ZM195 190l1 1-1-1Z"/><path fill="#8599CC" id="PAL" d="m293 190-1 2 1-2Z"/><path fill="#8ADA86" id="CLA" d="m85 204-2 2c-8.762 0-5-8.652-5-14l1-1h1v1l1 1v1l1 1v1l1 1v2l1 1v1l1 2v1Z"/><path fill="#8599CC" id="PAL" d="M164 191c1.473 0 1 1.952 1 3-1.473 0-1-1.952-1-3Z"/><path fill="#219666" id="AIp6b" d="m377 191-1 1 1-1Z"/><path fill="#8ADA86" id="CLA" d="M373 206h1c9.152 0 4-10.886 4-15h-1l-1 1-1 1v2l-1 1v1l-1 1v2l-1 1v1l1 4Z"/><path fill="#209766" id="AIp6a" d="M379 213h1c0-5.166 9-13.347 9-20-4.076 0-7.795-2-11-2 0 4.114 5.152 15-4 15 0 1.791 5 3.398 5 7ZM76 213h1c0-4.037 6-5.07 6-7-8.762 0-5-8.652-5-14l-11 1 9 20ZM80 192l1 1-1-1Z"/><path fill="#219864" id="AIp5" d="m76 213-7 3c0-1.792-15-14.001-15-21 4.364 0 8.259-2 12-2h1l9 20Z"/><path fill="#C8CBCC" id="ec" d="M374 195h1v-2l-1 2Z"/><path fill="#219864" id="AIp5" d="m380 213 7 3c0-1.174 16-15.668 16-21-4.721 0-8.983-2-13-2h-1c0 6.653-9 14.834-9 20Z"/><path fill="#209766" id="AIp6a" d="m81 194 1 1-1-1Z"/><path fill="#209865" id="AIp2/3" d="M69 216c0 1.565-8.408 4-10 4 0-3.085-16-14.476-16-21v-1c1.258 0 9-1.861 9-3h2c0 6.999 15 19.208 15 21Z"/><path fill="#C8CBCC" id="ec" d="M373 197h1v-2l-1 2Z"/><path fill="#209766" id="AIp6a" d="m375 195-1 1v-1h1Z"/><path fill="#209865" id="AIp2/3" d="M387 216c0 .801 8.763 4 10 4l11.5-12 5.5-9v-1c-1.378 0-9-1.769-9-3h-2c0 5.332-16 19.826-16 21Z"/><path fill="#209766" id="AIp6a" d="M83 196v1l-1-1h1Z"/><path fill="#FF6F80" id="TH" d="M219 197h2l-1-1-1 1ZM236 197h1l-1-1v1Z"/><path fill="#C8CBCC" id="ec" d="m115 237-5 1-4-2-2-1-3-3v-1l-4-4-10-20-2-3v-1l-1-2v-1l-1-1v-2l5 9.5c2.466 4.932 12.358 26.5 19 26.5l8 4Z"/><path fill="#FF6F80" id="TH" d="m219 197-1 1 1-1Z"/><path fill="#FD909F" id="RE" d="M231 214h2l1-1h2l1-1 2-1c0-3.862 5-6.41 5-12l-7-2h-18l-1 1-6 1c0 6.318 9 12.81 9 14h1l1 1h2l1-1h1c.839 0 2-1.93 2 0h1l1 1Z"/><path fill="#C8CBCC" id="ec" d="M371 202h1v-1l1-1v-3c-1.638 0-2 3.576-2 5Z"/><path fill="#209766" id="AIp6a" d="m374 197-1 1v-1h1Z"/><path fill="#219765" id="AIp1" d="m59 220-5 2c-2.126 0-16-19.052-16-22l5-1c0 6.524 16 17.915 16 21Z"/><path fill="#209766" id="AIp6a" d="m83 199 1 1-1-1Z"/><path fill="#219765" id="AIp1" d="m397 220 5 2c2.228 0 17-19.646 17-22l-5-1-5.5 9-11.5 12Z"/><path fill="#209766" id="AIp6a" d="m373 200-1 1 1-1ZM84 201l1 2-1-2Z"/><path fill="#CCC9C8" id="sm" d="m193 202 1 1c0 1.72 2.527 3.486-.5 5-1.621.811-9.5-.635-9.5-2.5l1-3.5 2-1c1.321 0 6-.684 6 1Z"/><path fill="#8599CC" id="PAL" d="m264 201-1 1 1-1Z"/><path fill="#CCC9C8" id="sm" d="m271 202 1 4.5c-1.3 2.6-10 2.855-10-3.5l1-1 1-1h5l2 1Z"/><path fill="#E64438" id="HY" fill-rule="evenodd" d="M186 214c0 2.014-2.284 5.932-1 8.5l2.5 4.5c14.043 14.043 11.256-10.872 9-12-2.873-1.437-7.041-1-10.5-1m17-3c0 2.667-5.824 3.852-4 7.5 5.314 10.628 22.158-7.5 4-7.5m12 68h1v-9l-3.5 3c-5.503 2.752-13.073-2.037-17-4-8.127-4.063-1.66-22.67 5-26h7.5c0-3.766-1.993-7.514 0-11.5 4.056-8.112 14 1.156 14 10.5l2-1v-6c0-3.38-11.528-15.444-10-18.5 2.009-4.019 14-2.984 14 1.5h1v-3l-2-2h-1l-1 1h-2l-1-1h-1c-4.264 0-7.497-4-12-4-3.313 0-4.49-4-7-4 0 3.497-5 .064-5-2h-3c0 1.72 2.527 3.486-.5 5-1.621.811-9.5-.635-9.5-2.5l1-3.5c-3.357 0-16 19.228-16 23v1c3.176 0 4.975-12.263 9.5-10 7.895 3.948 19.121 43.439 8 49-6.618 3.309-14.806-7-20.5-7 0 1.965 6.603 12 9 12 0-6.492 16-1.647 16 3l2 2h2l1 1h1l11.5 2c1.19 0 4.5-.614 4.5 1h2Z"/><path fill="#8599CC" id="PAL" d="m193 202 1 1-1-1Z"/><path fill="#F0483B" id="ZI" d="M197 203c0 2.064 5 5.497 5 2l-1-3c-1.145 0-4-.579-4 1Z"/><path fill="#CAC7CB" id="fiber tracts" d="M202 205c2.51 0 3.687 4 7 4 0-1.05-6.349-7-8-7l1 3ZM254 205c-1.536 0-3.454 4-7 4l8-7-1 3Z"/><path fill="#F0483B" id="ZI" d="M259 203c0 4.506-2.957 2-5 2l1-3c1.145 0 4-.579 4 1Z"/><path fill="#8599CC" id="PAL" d="m263 202-1 1 1-1Z"/><path fill="#E64438" id="HY" fill-rule="evenodd" d="m249 211-4 5.5c7.425 14.85 20.668-5.5 4-5.5m-8 68h3c0-2.064 3.353-.426 4.5-1 2.738-1.369 8.42-2 11.5-2l2-1h2l2-2c-2.948 0 15-13.443 15-2 2.061 0 8-9.945 8-12-5.524 0-13.173 9.164-19.5 6-1.565-.783-1.833-4.166-2.5-5.5-6.07-12.141 4-23.79 4-35.5-2.334 0-4.074 9.713-9.5 7-13.121-6.56 9.5-32.179 9.5-7 3.045 0 3.368-8 7.5-8 4.331 0 5.14 9 8.5 9 0-4.286-11.697-23-16-23l1 4.5c-1.3 2.6-10 2.855-10-3.5h-3c0 4.506-2.957 2-5 2-1.536 0-3.454 4-7 4l-8 2-2 1-1 1h-2l-1 1h-2l-1-1h-1v2c3.491 0 14-3.217 14 2.5L232 235v8l1.5-2 1.5 2v-8.5c2.268-4.536 10.724-8.552 14-2 1.489 2.977-1 8.046-1 10.5 19.797 0 21.095 22.702 8.5 29-8.835 4.417-15.049-3-16.5-3v10h1Z"/><path fill="#209766" id="AIp6a" d="m373 206-3 1 1-4v-1h1l1 4Z"/><path fill="#C8CBCC" id="ec" d="m370 207-3 3c0-1.856 1.782-7 4-7l-1 4Z"/><path fill="#209766" id="AIp6a" d="m83 206 4 1-2-3-2 2Z"/><path fill="#A0EE9C" id="EPd" d="m98 230-3 3c-3.37 0-6.12-6-9-6h-1v-2c1.374 0-3.157-3.814-4-5.5l-4-6.5c0-4.037 6-5.07 6-7l4 1 10 20 1 3ZM366 231l-4 2c-2.041 0-3-.959-3-3v-3l1-2 3-6c1.817 0 4-7.169 4-9l3-3 3-1h1c0 1.791 5 3.398 5 7v1c-1.948 0-4 5.428-4 7-.896 0-3.026 2-1 2v1h-1v1h-1v1l-1 1-1 1-1 1h-1l-1 1-1 1Z"/><path fill="#C8CBCC" id="ec" d="M367 210c-2.066 0-4 6.92-4 9 1.817 0 4-7.169 4-9Z"/><path fill="#C7C8CA" id="fx" d="M203 211c0 2.667-5.824 3.852-4 7.5 5.314 10.628 22.158-7.5 4-7.5Z"/><path fill="#FF6F80" id="TH" d="m239 211-2 1 2-1Z"/><path fill="#C7C8CA" id="fx" d="m249 211-4 5.5c7.425 14.85 20.668-5.5 4-5.5Z"/><path fill="#FF6F80" id="TH" d="m237 212-1 1 1-1Z"/><path fill="#6ACAB9" id="PIR" d="M117 273c0 5.465-5.58 14.659-8 19.5l-5 4.5c-5.88 0-12.686-8.872-15-13.5-6.947-13.895-14.127-27.254-21-41-2.359-4.718-14-16.066-14-20.5l5-2c1.592 0 10-2.435 10-4l7-3h1l1 4 1 1v1l2 2v1l1 1 1 1 1 1 1 1v1c0 1.432 6.26 9 8 9 0 2.293 19.29 27 20 27 0 3.099 4 5.883 4 10Z"/><path fill="#C9C8CA" id="ee" d="M84 225h1c1.374 0-3.157-3.814-4-5.5l-4-6.5 1 4 1 1v1l2 2v1l1 1 1 1 1 1Z"/><path fill="#FF6F80" id="TH" d="m222 213 1 1-1-1ZM226 213l-1 1 1-1ZM230 213l1 1-1-1ZM234 213l-1 1 1-1Z"/><path fill="#C9C8CA" id="ee" d="m380 213-1 1v-1h1Z"/><path fill="#6ACAB9" id="PIR" d="M340 273c0 5.666 4.552 13.605 7 18.5.921 1.842 6 4.521 6 5.5 4.644 0 7.732-6.616 10.5-8 4.675-2.338 7.213-10.927 9.5-15.5 5.709-11.418 12.669-23.338 18-34l11-17.5-5-2c-1.237 0-10-3.199-10-4l-7-3-1 1c0 2.72-2 3.553-2 6l-1 1-1 1v1l-1 1-1 1-1 1-1 1-1 1-1 1c0 1.429-1.288 4-3 4l-1 1c0 1.238-.423 3-2 3 0 2.41-11.994 17.494-15 20.5l-5 5.5v1l-1 1-1 1c0 2.607-1 4.913-1 7Z"/><path fill="#B3C0DE" id="BST" d="M186 214c0 2.014-2.284 5.932-1 8.5l2.5 4.5c14.043 14.043 11.256-10.872 9-12-2.873-1.437-7.041-1-10.5-1Z"/><path fill="#FF5D4F" id="PVH" d="M224 235h3c0-2.241-.804-17 1-17 0-4.484-11.991-5.519-14-1.5-1.528 3.056 10 15.12 10 18.5ZM229 235h3l11-17.5c0-5.717-10.509-2.5-14-2.5v20Z"/><path fill="#B3C0DE" id="BST" d="M271 224c0-25.179-22.621.44-9.5 7 5.426 2.713 7.166-7 9.5-7Z"/><path fill="#C9C8CA" id="ee" d="M375 221h1l1-1c0-2.447 2-3.28 2-6-1.948 0-4 5.428-4 7Z"/><path fill="#97D6F9" id="STR" d="m332 254-3 1c0-14.801-7.352-12-18-12l2-6c1.384 0 1.123 3.189 3.5 2 3.392-1.696 2.003-6-1.5-6v-6c1.794 0 4-6.51 4-8l2-4v10c-2.074 0-.568 8.365 0 9.5 3.698 7.396 8.378 15.5 18 15.5l-7 4ZM124 254l4 1c0-6.427 4.574-17.463 13.5-13l4.5 2v-1l-3-5c-8.278 0-5.428-5-1-5l-1-6c-1.802 0-3-6.346-3-8l-2-3c0 2.707-1 5.903-1 8 2.206 0 .642 11.216 0 12.5-3.046 6.091-9.813 13.5-17 13.5l6 4Z"/><path fill="#F2483A" id="LHA" d="M165 244c0 4.607 1 10.052 1 14 5.694 0 13.882 10.309 20.5 7 11.121-5.561-.105-45.052-8-49-4.525-2.263-6.324 10-9.5 10 0 5.116-3 10.709-3 16l-1 2ZM290 258l-1 1c-5.524 0-13.173 9.164-19.5 6-1.565-.783-1.833-4.166-2.5-5.5-6.07-12.141 4-23.79 4-35.5 3.045 0 3.368-8 7.5-8 4.331 0 5.14 9 8.5 9 0 1.048-.473 3 1 3l2 13 1 1v15l-1 1Z"/><path fill="#A0EE9C" id="EPd" d="m78 217 1 1-1-1Z"/><path fill="#A2B1D7" id="SI" d="m146 243 2.5 2c2.7 1.35 6.263.631 9 2l7.5-3 1-2c0-5.291 3-10.884 3-16v-1c-1.538 0-1.368-7-8-7-3.067 0-6.705 3-13 3 0 1.848-7 1.804-7 6l1 6 1 5 3 5Z"/><path fill="#A8A9AA" id="V3" d="m227 235 .5 37c2.151 1.075 1.5-7.196 1.5-8.5V218h-1c-1.804 0-1 14.759-1 17Z"/><path fill="#A2B1D7" id="SI" d="M310 243h1l2-6 2-4v-6c0-5.029-7-3.688-7-6-5.706 0-10.985-3-12-3-6.382 0-8 3.994-8 10l2 13 1 1v1l7.5 4c3.608 0 8.511-4 11.5-4Z"/><path fill="#A0EE9C" id="EPd" d="m79 219 2 2-2-2Z"/><path fill="#8599CC" id="PAL" d="M148 221c0 1.848-7 1.804-7 6-1.802 0-3-6.346-3-8 1.046 0 6.474 2 10 2ZM308 221c0 2.312 7 .971 7 6 1.794 0 4-6.51 4-8-2.95 0-7.018 2-11 2Z"/><path fill="#C8CBCC" id="ec" d="M359 225h1l3-6c-1.617 0-4 4.583-4 6Z"/><path fill="#99D2BD" id="OLF" d="m377 220-1 1 1-1Z"/><path fill="#C9C8CA" id="ee" d="M374 223h1v-2c-.896 0-3.026 2-1 2Z"/><path fill="#99D2BD" id="OLF" d="m376 221-1 1v-1h1Z"/><path fill="#A0EE9C" id="EPd" d="m81 222 1 1-1-1Z"/><path fill="#8AD987" id="CTXsp" d="m82 223 1 1-1-1Z"/><path fill="#99D2BD" id="OLF" d="m375 223-1 1v-1h1Z"/><path fill="#A0EE9C" id="EPd" d="m83 224 1 1-1-1Z"/><path fill="#7ECDF8" id="FS" d="M117 250h1c7.187 0 13.954-7.409 17-13.5.642-1.284 2.206-12.5 0-12.5 0 1.998-8.049 8-10 8l-1 1-5 1c0 2.064 3.353.426 4.5 1 1.353.677 4.39 6 1.5 6 0 2.109-2.535 2-4 2h-2c-1.238 0-3-.423-3-2l-1-2h-4v1c2.194 0 3 3.93 3 6v2l2 1 1 1Z"/><path fill="#99D2BD" id="OLF" d="m374 224-1 1v-1h1Z"/><path fill="#8AD987" id="CTXsp" d="M85 225v1l-1-1h1Z"/><path fill="#7ECDF8" id="FS" d="M340 249h2v-1l1-1v-2c0-1.622-.461-5 2-5 0-2.56-3.334 0-4 0v1l-2 1-1 1h-3c-1.848 0-6.264-1.972-5-4.5.935-1.87 7-3.984 7-4.5h-1l-1-1h-2l-1-1c-4.316 0-6.824-7-11-7-2.074 0-.568 8.365 0 9.5 3.698 7.396 8.378 15.5 18 15.5l1-1Z"/><path fill="#C8CBCC" id="ec" d="M346 238h2l1-1 3-2 3-3 2-2c0-1.238.423-3 2-3v-2c-3.741 0-5.783 8-10 8l-2 1c0 1.005-9.434 4-1 4Z"/><path fill="#8AD987" id="CTXsp" d="m360 225-1 2v-2h1Z"/><path fill="#99D2BD" id="OLF" d="m373 225-1 1v-1h1ZM372 226l-1 1 1-1ZM93 235v1c-1.74 0-8-7.568-8-9h1l7 8Z"/><path fill="#8AD987" id="CTXsp" d="m95 233-2 2-7-8c2.88 0 5.63 6 9 6ZM98 230l3 1-4-4 1 3ZM357 230h2v-3c-1.577 0-2 1.762-2 3Z"/><path fill="#99D2BD" id="OLF" d="m371 227-1 1 1-1ZM370 228l-1 1 1-1Z"/><path fill="#FD4C3E" id="MPN" d="M220 245c-1.564 0-3.876 1-6 1l-6-3c0-3.766-1.993-7.514 0-11.5 4.056-8.112 14 1.156 14 10.5l-1 1-1 2ZM235 244c1.996 0 4.985 2 8 2l5-3c0-2.454 2.489-7.523 1-10.5-3.276-6.552-11.732-2.536-14 2v9.5Z"/><path fill="#8AD987" id="CTXsp" d="m368 229-1 1 1-1Z"/><path fill="#99D2BD" id="OLF" d="M366 231v2c1.712 0 3-2.571 3-4h-1l-1 1-1 1Z"/><path fill="#A0ED9D" id="EPv" d="M113 263h1c5.753 0 0-13.327 0-15v-1l-6-6c-2.169 0-5-2.899-5-5l-2-4v-1l-3-1-3 3-2 2v1c0 2.293 19.29 27 20 27ZM342 249c0 1.963-5.282 14 1 14l5-5.5c3.006-3.006 15-18.09 15-20.5v-2l-1-2c-2.041 0-3-.959-3-3h-2l-2 2-2 4c0 2.362-2.638 5-5 5l-4 4-1 1v1l-1 1v1Z"/><path fill="#8AD987" id="CTXsp" d="m367 230-1 1 1-1ZM365 234l-2 1-1-2 4-2v2l-1 1ZM104 235l-1 1-2-4 3 3Z"/><path fill="#97D6F9" id="STR" d="m125 232-1 1 1-1ZM332 232l1 1-1-1Z"/><path fill="#8AD987" id="CTXsp" d="m352 235 1 1 2-4-3 3Z"/><path fill="#97D6F9" id="STR" d="M115 237c4.309 0 10-3.041 10 4 2.89 0-.147-5.323-1.5-6-1.147-.574-4.5 1.064-4.5-1-4.107 0-8.469-1-12-1l8 4Z"/><path fill="#7FC0E0" id="CEAm" d="M142 233c-4.428 0-7.278 5 1 5l-1-5ZM315 233c3.503 0 4.892 4.304 1.5 6-2.377 1.189-2.116-2-3.5-2l2-4Z"/><path fill="#97D6F9" id="STR" d="m335 233 1 1-1-1ZM349 233l-2 1 2-1Z"/><path fill="#99D2BD" id="OLF" d="m366 233-1 1 1-1Z"/><path fill="#97D6F9" id="STR" d="M341 240c.666 0 4-2.56 4 0l1-2c-8.434 0 1-2.995 1-4h-10c0 .516-6.065 2.63-7 4.5-1.264 2.528 3.152 4.5 5 4.5 0-1.543-4.634-2.231-3-5.5 1.887-3.774 9-.963 9 2.5Z"/><path fill="#99D2BD" id="OLF" d="M363 235v2c1.577 0 2-1.762 2-3l-2 1Z"/><path fill="#80BEE2" id="IA" d="M106 236c0 .754 5.157 5 2 5-2.169 0-5-2.899-5-5l1-1 2 1Z"/><path fill="#FF5D50" id="PVa" d="M227 277h1l1-1c0-2.885 2-4.697 2-8 0-7.96 1-16.499 1-25v-8h-3v28.5c0 1.304.651 9.575-1.5 8.5l-.5-37h-3v6c0 8.818 1 17.734 1 26l2 10Z"/><path fill="#80BEE2" id="IA" d="M348 238v3c2.362 0 5-2.638 5-5l-1-1-3 2-1 1Z"/><path fill="#8AD987" id="CTXsp" d="M114 246v1l-6-6c3.157 0-2-4.246-2-5l4 2 1 1v1c0 1.738.686 6 3 6Z"/><path fill="#C9C9C9" id="act" d="M119 243h2l4-2c0-7.041-5.691-4-10-4v2l1 2 3 2ZM335 243h3l1-1 2-1v-1c0-3.463-7.113-6.274-9-2.5-1.634 3.269 3 3.957 3 5.5Z"/><path fill="#97D6F9" id="STR" d="M111 239h4v-2l-5 1 1 1Z"/><path fill="#8AD987" id="CTXsp" d="m349 237-1 1 1-1ZM348 241l-4 4 1-5 1-2h2v3Z"/><path fill="#97D6F9" id="STR" d="M111 240c2.194 0 3 3.93 3 6-2.314 0-3-4.262-3-6ZM343 245h1l1-5c-2.461 0-2 3.378-2 5ZM116 241l3 2c-1.238 0-3-.423-3-2ZM125 241l-4 2c1.465 0 4 .109 4-2Z"/><path fill="#FD5547" id="SBPV" d="M216 270v2c2.426 0 .834-5 9-5 0-8.266-1-17.182-1-26l-2 1-1 1-1 2-2 7-2 18ZM240 269v2l-4.5-5c-2.116-1.058-2.898 2-4.5 2 0-7.96 1-16.499 1-25l1.5-2 1.5 2v1c0 .717 3.982 10 4 10l1 15Z"/><path fill="#8599CC" id="PAL" d="m290 241 1 1-1-1Z"/><path fill="#97D6F9" id="STR" d="m341 241-2 1 2-1Z"/><path fill="#80C0E2" id="AAA" d="M165 268c0 1.473-1.952 1-3 1-3.413 0-5.196-2-9-2 0-.672-4.329-2-5-2l-5-1c0-.853-6.031-2-7-2l-8-7c0-6.427 4.574-17.463 13.5-13l4.5 2 7 8v2c0 3.978 7.734 13 12 13v1Z"/><path fill="#8599CC" id="PAL" d="m166 242-1 2 1-2Z"/><path fill="#E64438" id="HY" d="m222 242-1 1 1-1Z"/><path fill="#80C0E2" id="AAA" d="M291 269h3c4.137 0 4.537-2 9-2 0-1.579 2.855-1 4-1l1-1 6-1c0-.675 5.294-2 6-2 3.598 0 5.782-7 9-7 0-14.801-7.352-12-18-12l-1 1-7 9v2l-1 1-1 2c0 2.966-5.305 7-8 7l-1 1-1 1v2Z"/><path fill="#97D6F9" id="STR" d="m339 242-1 1 1-1Z"/><path fill="#8599CC" id="PAL" d="M176 273c0 4.592-7.158 3-9 3 0-1.775-.069-8-2-8v-1c0-4.155-10-6.205-10-11l4 2c13.58 0-6-14.529-6-6l-7-8v-1l2.5 2c2.7 1.35 6.263.631 9 2l7.5-3c0 4.607 1 10.052 1 14 0 1.965 6.603 12 9 12 0 1.048-.473 3 1 3Z"/><path fill="#FF4B3E" id="AHN" d="m218 252-2 18-3.5 3c-5.503 2.752-13.073-2.037-17-4-8.127-4.063-1.66-22.67 5-26h7.5l6 3 4 6ZM239 254l1 15c1.451 0 7.665 7.417 16.5 3 12.595-6.298 11.297-29-8.5-29l-5 3c0 1.786-4 4.302-4 8Z"/><path fill="#8599CC" id="PAL" d="M280 273c0 6.202 8.481 2 10 2 0-1.321-.684-6 1-6v-2l1-1 1-1 8-7v-1l-6.5 1c-5.031-2.515 8.5-16.036 8.5-5l7-9v-1c-2.989 0-7.892 4-11.5 4l-7.5-4v14l-1 1-1 1c0 2.055-5.939 12-8 12l-1 2Z"/><path fill="#97D6F9" id="STR" d="m311 243-1 1v-1h1Z"/><path fill="#E64438" id="HY" d="M243 246c0 1.786-4 4.302-4 8-.018 0-4-9.283-4-10 1.996 0 4.985 2 8 2ZM214 246l4 6 2-7c-1.564 0-3.876 1-6 1Z"/><path fill="#8AD987" id="CTXsp" d="m344 245-1 1v-1h1ZM343 247l-1 1 1-1ZM114 263l6 6c0-3.786-3.448-15 4-15l-6-4h-1l-1-1-2-1c0 1.673 5.753 15 0 15Z"/><path fill="#97D6F9" id="STR" d="m116 249 1 1-1-1Z"/><path fill="#A2B1D8" id="MA" d="m154 254 1 2 4 2c13.58 0-6-14.529-6-6v1l1 1ZM301 256v1l-6.5 1c-5.031-2.515 8.5-16.036 8.5-5v1l-1 1-1 1Z"/><path fill="#97D6F9" id="STR" d="m340 249-1 1 1-1Z"/><path fill="#8AD987" id="CTXsp" d="m341 266-4 2c0-4.061 2.509-14-5-14l7-4 1-1h2c0 1.963-5.282 14 1 14v1l-1 1-1 1Z"/><path fill="#8599CC" id="PAL" d="M153 254h1l-1-1v1Z"/><path fill="#84EA80" id="BMAa" d="m134 270-8 1c-2.518 0-4.286-2-6-2 0-3.786-3.448-15 4-15l4 1 8 7 1 3v2l-3 3Z"/><path fill="#97D6F9" id="STR" d="M155 256c0 4.795 10 6.845 10 11-4.266 0-12-9.022-12-13h1l1 2Z"/><path fill="#8599CC" id="PAL" d="M302 255h1v-1l-1 1Z"/><path fill="#84EA80" id="BMAa" d="m323 270 7 1c2.518 0 4.286-2 6-2l1-1c0-4.061 2.509-14-5-14l-3 1c-3.218 0-5.402 7-9 7v4l3 4Z"/><path fill="#8599CC" id="PAL" d="M301 256h1v-1l-1 1Z"/><path fill="#97D6F9" id="STR" d="m303 255-1 1v-1h1ZM301 257v1l1-2h-1v1Z"/><path fill="#E64438" id="HY" d="m291 257-1 1 1-1ZM290 258l-1 1 1-1Z"/><path fill="#97D6F9" id="STR" d="m301 258-8 7c2.695 0 8-4.034 8-7ZM139 265h1l1-1h2c0-.853-6.031-2-7-2l1 3h2ZM315 264l5 2v-4c-.706 0-6 1.325-6 2h1Z"/><path fill="#99D2BD" id="OLF" d="M117 273c1.56 0 7-2.664 7 2l2-4c-2.518 0-4.286-2-6-2l-6-6h-1c0 3.099 4 5.883 4 10ZM141 264l-1 1 1-1Z"/><path fill="#94E4C7" id="NLOT3" d="m151 271-6.5-1c-1.222.611-6.481 3-7.5 3v-6l2-2h1l1-1h2l5 1 3 4v2ZM320 272v3l-3.5-4c-4.648-2.324-7.653 1-11.5 1v-2l1-1 1-3 1-1 6-1h1c0 1.398 5 4.873 5 8Z"/><path fill="#99D2BD" id="OLF" d="m323 270-3 2c0-3.127-5-6.602-5-8l5 2 3 4ZM343 264l-1 1 1-1ZM139 265l-2 2v-2h2Z"/><path fill="#97D6F9" id="STR" d="m153 267-2 2-3-4c.671 0 5 1.328 5 2ZM293 265l-1 1 1-1ZM308 265l-1 1 1-1Z"/><path fill="#99D2BD" id="OLF" d="m342 265-1 1 1-1Z"/><path fill="#FF5545" id="SCH" d="M219 281h6l1-1 1-1v-2l-2-10c-8.166 0-6.574 5-9 5v7l3 2ZM231 281h6l2-1 1-1v-8l-4.5-5c-2.116-1.058-2.898 2-4.5 2 0 3.303-2 5.115-2 8v2l1 1 1 2Z"/><path fill="#97D6F9" id="STR" d="m292 266-1 1 1-1ZM305 269h1l1-3c-1.145 0-4-.579-4 1l2 2Z"/><path fill="#99D2BD" id="OLF" d="m340 273-5.5-1-2.5 2-2-3c2.518 0 4.286-2 6-2l1-1 4-2c0 2.607-1 4.913-1 7ZM134 270l3 3v-6l-3 3Z"/><path fill="#80BFE1" id="MEA" d="m151 282 3.5 3 3.5-2 5-6.5c1.182-2.364-1-5.696-1-7.5-3.413 0-5.196-2-9-2l-2 2v13Z"/><path fill="#FE5B50" id="SO" d="M178 274h2c0-1.773 9.259-1 11-1 0-4.647-16-9.492-16-3 0 1.048-.473 3 1 3l2 1ZM280 273l-1 1c-4.077 0-8.431-1-13-1-2.948 0 15-13.443 15-2l-1 2Z"/><path fill="#80BFE1" id="MEA" d="M298 283c1.639 0 2.455 2 3.5 2l3.5-2v-14l-2-2c-4.463 0-4.863 2-9 2 0 1.804-2.182 5.136-1 7.5l5 6.5Z"/><path fill="#97D6F9" id="STR" d="M158 283c1.048 0 3-.473 3 1 2.604 0 6-5.93 6-8 0-1.775-.069-8-2-8 0 1.473-1.952 1-3 1 0 1.804 2.182 5.136 1 7.5l-5 6.5Z"/><path fill="#8AD987" id="CTXsp" d="m337 268-1 1 1-1Z"/><path fill="#97D6F9" id="STR" d="m298 283-3 1c0-.562-5-4.361-5-9 0-1.321-.684-6 1-6h3c0 1.804-2.182 5.136-1 7.5l5 6.5Z"/><path fill="#99D2BD" id="OLF" d="m306 269-1 1v-1h1Z"/><path fill="#60E5B7" id="COAa" d="M129 293h4l5-2 2-8v-2l-3-2.5V273l-3-3-8 1-2 4c0 6.515 3 12.276 3 18h2Z"/><path fill="#95E3C8" id="NLOT2" d="M140 281h1c4.208 0 8.137-3 10-3v-7l-6.5-1c-1.222.611-6.481 3-7.5 3v5.5l3 2.5ZM315 281h2l3-6-3.5-4c-4.648-2.324-7.653 1-11.5 1v6c1.863 0 5.792 3 10 3Z"/><path fill="#60E5B7" id="COAa" d="M324 293h3l3-1c0-6.021 2-12.216 2-18l-2-3-7-1-3 2v3l-3 6-1 1c0 3.285 3 7.16 3 10l5 1Z"/><path fill="#59D9AA" id="PAA" d="M108 299h6c0-.324 9.972-4 11-4l2-2c0-5.724-3-11.485-3-18 0-4.664-5.44-2-7-2 0 5.465-5.58 14.659-8 19.5l-5 4.5h1l1 1h1l1 1ZM342 299h6l1-1 4-1c0-.979-5.079-3.658-6-5.5-2.448-4.895-7-12.834-7-18.5l-5.5-1-2.5 2c0 5.784-2 11.979-2 18 0 4.918 12 5.831 12 7Z"/><path fill="#CAC7CB" id="fiber tracts" d="m180 274 13 1-2-2c-1.741 0-11-.773-11 1ZM264 275c2.272 0 18.383-3.265 15 3.5-1.308 2.616-10 2.89-10 6.5 4.45 0 9.975-3.45 12-7.5l-2-3.5c-4.077 0-8.431-1-13-1l-2 2ZM180 274c0 1.473-1.952 1-3 1l1-1h2Z"/><path fill="#CACCCB" id="opt" d="M199 278v9c-6.892 0-22-4.875-22-12 1.048 0 3 .473 3-1l13 1h2l1 1h1l2 2ZM257 287h8c0-2.109 2.535-2 4-2 0-3.61 8.692-3.884 10-6.5 3.383-6.765-12.728-3.5-15-3.5h-2l-2 1-3 2v9Z"/><path fill="#CAC7CB" id="fiber tracts" d="M228 284c-10.273 0-19.465 3-29 3-6.892 0-22-4.875-22-12-2.3 0-.402 4.696 0 5.5 1.307 2.613 6.245 3.373 8.5 4.5 4.662 2.331 16.688 7.156 23 4l5.5-2c2.541 0 14 .063 14-3ZM195 275l1 1-1-1ZM262 275l-2 1 2-1ZM199 278l14 1c0-1.614-3.31-1-4.5-1l-11.5-2 2 2ZM257 278l-13 1c0-2.064 3.353-.426 4.5-1 2.738-1.369 8.42-2 11.5-2l-3 2Z"/><path fill="#E64438" id="HY" d="M227 278h1v-1h-1v1Z"/><path fill="#95E4C7" id="NLOT1" d="m140 283-2 8c0 6.987 13 1.687 13-9v-4c-1.863 0-5.792 3-10 3l-1 2Z"/><path fill="#CBCACC" id="och" d="M229 284c9.908 0 18.765 3 28 3v-9l-13 1h-3l-2 1-2 1h-6l-4-2-1 1-1 1h-6l-4-2h-2l-14-1v9c9.535 0 18.727-3 29-3h1Z"/><path fill="#CAC7CB" id="fiber tracts" d="m230 279 1 2-4-2v-1h2l1 1Z"/><path fill="#E64438" id="HY" d="m229 278 1 1-1-1Z"/><path fill="#95E4C7" id="NLOT1" d="M305 283c0 4.841 6.436 14.032 12.5 11l1.5-2c0-2.84-3-6.715-3-10l-1-1c-4.208 0-8.137-3-10-3v5Z"/><path fill="#CAC7CB" id="fiber tracts" d="m216 279 3 2-4-2h1ZM227 279l-1 1 1-1ZM241 279l-2 1 1-1h1ZM226 280l-1 1 1-1ZM239 280l-2 1 2-1Z"/><path fill="#99D2BD" id="OLF" d="m141 281-1 2v-2h1ZM317 281l-1 1-1-1h2ZM133 293l-1 3c13.95 0 11.575-1.538 22.5-7 3.083-1.541 6.5-.533 6.5-5 0-1.473-1.952-1-3-1l-3.5 2-3.5-3c0 10.687-13 15.987-13 9l-5 2ZM324 293v3c-6.666 0-29-5.205-29-12l3-1c1.639 0 2.455 2 3.5 2l3.5-2c0 4.841 6.436 14.032 12.5 11l1.5-2 5 1Z"/><path fill="#CAC7CB" id="fiber tracts" d="M257 287h8c0 2.048-6.648 2-8.5 2-6.744 0-16.293-.147-22-3-1.538-.769-5.5 1.226-5.5-2 9.908 0 18.765 3 28 3ZM269 285c-1.465 0-4-.109-4 2l4-2Z"/><path fill="#99D2BD" id="OLF" d="M331 297c0 2.497 8.839 2 11 2 0-1.169-12-2.082-12-7l-3 1c0 2.007 4 1.121 4 4ZM129 293l-4 2 2-2h2Z"/><path fill="#CAC8C7" id="lot" d="M132 296c-1.564 0-3.876 1-6 1l-1-2 4-2h4l-1 3ZM324 296c1.819 0 4.591 1 7 1 0-2.879-4-1.993-4-4h-3v3Z"/><path fill="#99D2BD" id="OLF" d="M126 297c0 2.627-9.736 2-12 2 0-.324 9.972-4 11-4l1 2ZM105 297l1 1-1-1ZM107 298l1 1-1-1ZM349 298l-1 1 1-1Z"/></svg>