<svg xmlns="http://www.w3.org/2000/svg" viewBox="0 0 456 320"><path fill="#1E9C59" id="MOs1" d="m124 152-5 2-4-5.5-3-11c-1.79-3.58.57-13.14 2-16 9.139-18.278 16.965-32.733 36.5-42.5 15.823-7.911 38.438-16.781 56-8 2.981 1.49 11.5 4.736 11.5 9l-4 4h-1c0-5.424-10.612-6.556-13.5-8-10.969-5.484-38.835 4.418-48 9-14.938 7.47-23.472 19.444-30.5 33.5-1.237 2.473-4.423 12.153-3 15 1.192 2.383-.137 5.725 1 8l5 9.5v1ZM333 151l4 3 4-6.5c2.916-5.832 5.331-19.338 2-26l-2-4.5c0-5.862-7.466-11.432-10-16.5-8.338-16.676-29.938-22.22-44.5-29.5-4.779-2.39-11.161-1.58-16-4-6.52-3.26-31.5 5.764-31.5 13 0 1.712 2.571 3 4 3l6.5-5c2.552-1.276 5.379-1.69 8-3 4.667-2.334 17.283.141 21 2 5.317 2.659 15.998 2.999 22 6 16.2 8.1 28.422 20.345 36.5 36.5 2.175 4.35 2.175 18.65 0 23l-4 8.5Z"/><path fill="#1E9D58" id="MOs2/3" d="M133 144c0 1.592-7.61 7-9 7l-5-9.5c-1.137-2.275.192-5.617-1-8-1.423-2.847 1.763-12.527 3-15 7.028-14.056 15.562-26.03 30.5-33.5 9.165-4.582 37.031-14.484 48-9 2.888 1.444 13.5 2.576 13.5 8l-4 5h-1c0-3.333-7.493-4-10-4-8.939 0-17.231-.134-25.5 4-18.778 9.389-29.839 18.178-39.5 37.5-2.375 4.749 0 12.133 0 17.5ZM332 151h1l4-8.5c2.175-4.35 2.175-18.65 0-23-8.078-16.155-20.3-28.4-36.5-36.5-6.002-3.001-16.683-3.341-22-6-3.717-1.859-16.333-4.334-21-2-2.621 1.31-5.448 1.724-8 3l-6.5 5v1l4 5h1c0-4.412 8.231-2.865 10.5-4 6.439-3.22 20.27 1.135 26 4 24.021 12.011 27.842 17.183 39.5 40.5 1.942 3.885-1 10.888-1 14.5v1l9 6Z"/><path fill="#3EA665" id="ACAd1" d="M218 90h1l4-2c0-1.45-3.778-8-5-8l-4 4 4 6ZM233 89c1.691 0 3.148 1 5 1 0-1.442 3.274-6 5-6v-1c-1.429 0-4-1.288-4-3-2.1 0-6 6.93-6 9Z"/><path fill="#1F9D58" id="MOs5" d="M133 144h1c3.653 0 7.729-7.114 11.5-9 5.128-2.564 7.518-1 13.5-1l4-9c0-1.794-2-2.951-2-4.5 0-10.5 21.946-14.5 30-14.5 0-4.238 11.962-15 16-15l1-2c0-3.333-7.493-4-10-4-8.939 0-17.231-.134-25.5 4-18.778 9.389-29.839 18.178-39.5 37.5-2.375 4.749 0 12.133 0 17.5Z"/><path fill="#40A565" id="ACAd2/3" d="M210 91h1l7-1-4-6h-1l-4 5 1 2ZM245 91h1l1-2-4-5c-1.726 0-5 4.558-5 6l7 1Z"/><path fill="#1F9D58" id="MOs5" d="M298 134c5.147 0 7.58-1.46 12.5 1 3.794 1.897 8.16 9 12.5 9 0-3.612 2.942-10.615 1-14.5-11.658-23.317-15.479-28.489-39.5-40.5-5.73-2.865-19.561-7.22-26-4-2.269 1.135-10.5-.412-10.5 4l1 2c2.932 0 17 11.983 17 15 10.378 0 16.064 2.782 24.5 7 1.847.924 7.4 12 2.5 12l5 9Z"/><path fill="#2FA750" id="PL1" d="M223 123h10l2-26.5 3-6.5c-1.852 0-3.309-1-5-1-2.883 0-2.447 8-4.5 8l-5.5-9-4 2c0 3.1 1.676 6.853 3 9.5l1 23.5Z"/><path fill="#3EA566" id="ACAd5" d="M207 91c0 1.486 3 1.486 3 0l-1-2h-1l-1 2ZM246 91c.716 0 3 2.373 3 0l-1-2h-1l-1 2Z"/><path fill="#2FA74F" id="PL2/3" d="m219 122 4 1-1-23.5c-1.324-2.647-3-6.4-3-9.5h-1l-7 1 5 9.5c3.064 6.128 3 14.082 3 21.5ZM238 122l-5 1 2-26.5 3-6.5 7 1-5 10.5c-2.796 5.592-2 13.775-2 20.5Z"/><path fill="#2EA84F" id="PL5" d="M198 113c6.962 0 13.277 9 21 9 0-7.418.064-15.372-3-21.5l-5-9.5h-1c0 1.486-3 1.486-3 0-4.038 0-16 10.762-16 15l7 7ZM258 113c-4.952 0-13.42 9-20 9 0-6.725-.796-14.908 2-20.5l5-10.5h1c.716 0 3 2.373 3 0 2.932 0 17 11.983 17 15-3.354 0-6.051 7-8 7Z"/><path fill="#258F45" id="FRP5" d="M185 115c-8.437 0-14.231 10-22 10 0-1.794-2-2.951-2-4.5 0-10.5 21.946-14.5 30-14.5l7 7c0 1.137 2.091 4 0 4-3.089 0-8.465-3-12-3l-1 1ZM271 115c8.566 0 14.267 10 22 10 4.9 0-.653-11.076-2.5-12-8.436-4.218-14.122-7-24.5-7-3.354 0-6.051 7-8 7 0 2.343-1.765 4 1 4 0-2.64 12-3.044 12-2Z"/><path fill="#23885E" id="ORBm5" d="M219 122c0 5.455 1.217 25-6 25l-15-30c2.091 0 0-2.863 0-4 6.962 0 13.277 9 21 9ZM243 147h1l15-30c-2.765 0-1-1.657-1-4-4.952 0-13.42 9-20 9 0 4.756-1.377 25 5 25Z"/><path fill="#228A5D" id="ORBl5" d="m186 114-1 1 1-1Z"/><path fill="#23885C" id="ORBvl5" d="M181 139c11.991 0 24.317 8 32 8l-15-30c-3.089 0-8.465-3-12-3l-1 1c0 8.664-4 15.711-4 24ZM275 139c-6.373 0-16.07 1.285-21.5 4-2.922 1.461-6.023 4-9.5 4l15-30c0-2.64 12-3.044 12-2 0 7.797 4 15.192 4 24Z"/><path fill="#228A5D" id="ORBl5" d="M181 140c-10.296 0-17.237 26-31 26l6-26.5 3-5.5 4-9c7.769 0 13.563-10 22-10 0 8.664-4 15.711-4 24v1ZM306 165v1c-12.835 0-20.948-26-31-26v-1c0-8.808-4-16.203-4-24 8.566 0 14.267 10 22 10l5 9 3 6.5c2.122 4.243 5 20.357 5 24.5Z"/><path fill="#24885D" id="ORBm2/3" d="M213 147c0 1.493 4.957 13 6 13 4.37 0 2.946-6.392 4-8.5 3.842-7.685 0-20.244 0-28.5l-4-1c0 5.455 1.217 25-6 25ZM237 161h1l5-14c-6.377 0-5-20.244-5-25l-5 1v31.5l4 6.5Z"/><path fill="#23895D" id="ORBm1" d="m231 171 4 2c0-4.656 2-7.78 2-12l-4-6.5V123h-10c0 8.256 3.842 20.815 0 28.5-1.054 2.108.37 8.5-4 8.5v1l3 12 3-2 3.5-6 .5 3.5c.723 1.445 2 .091 2 2.5Z"/><path fill="#209665" id="AId5" d="M149 166h1l6-26.5 3-5.5c-5.982 0-8.372-1.564-13.5 1-3.771 1.886-7.847 9-11.5 9 0 5.937 7.647 22 15 22ZM307 166l1 1c0-.877 7.855-6.209 9-8.5.86-1.72 4.644-13.5 6-13.5v-1c-4.34 0-8.706-7.103-12.5-9-4.92-2.46-7.353-1-12.5-1l3 6.5c2.122 4.243 5 20.357 5 24.5l1 1Z"/><path fill="#248A5D" id="ORBvl2/3" d="M219 160v1c-13.509 0-22.651-9-36-9 0-3.765-2-7.772-2-12v-1c11.991 0 24.317 8 32 8 0 1.493 4.957 13 6 13ZM273 152c-12.947 0-21.925 9-35 9l5-14h1c3.477 0 6.578-2.539 9.5-4 5.43-2.715 15.127-4 21.5-4v1c0 4.311-2 9.853-2 12Z"/><path fill="#238A5E" id="ORBl2/3" d="m150 167-1 11c3.121 0 7.262-5.762 9.5-8 4.054-4.054 18.907-18 24.5-18 0-3.765-2-7.772-2-12-10.296 0-17.237 26-31 26v1ZM306 166c0 3.531 1 7.893 1 12l-7.5-7c-8.635-4.318-16.368-19-26.5-19 0-2.147 2-7.689 2-12 10.052 0 18.165 26 31 26Z"/><path fill="#209765" id="AId2/3" d="M141 178h1l7-11v-1c-7.353 0-15-16.063-15-22h-1c0 1.592-7.61 7-9 7v1l17 26ZM308 167c0 2.442 4.684 10 7 10 1.954 0 17-23.471 17-26l-9-6c-1.356 0-5.14 11.78-6 13.5-1.145 2.291-9 7.623-9 8.5Z"/><path fill="#209764" id="AId1" d="m315 179 4 2 4.5-6c2.346-2.346 13.5-18.454 13.5-21l-4-3h-1c0 2.529-15.046 26-17 26v2ZM141 178c0 1.712-2.571 3-4 3-1.362 0-4.357-6.214-5-7.5-2.133-4.266-13-15.304-13-19.5l5-2 17 26Z"/><path fill="#238A5D" id="ORBl1" d="m155 181-5 3-1-5v-1c3.121 0 7.262-5.762 9.5-8 4.054-4.054 18.907-18 24.5-18 0 3.721 2 6.881 2 10 0 2.207-5.176.338-6.5 1-5.13 2.565-23.5 11.475-23.5 18Z"/><path fill="#248A5B" id="ORBvl1" d="M185 162c13.691 0 23.508 11 37 11l-3-12c-13.509 0-22.651-9-36-9 0 3.721 2 6.881 2 10ZM272 163c-14.183 0-24.304 10-37 10 0-4.656 2-7.78 2-12h1c13.075 0 22.053-9 35-9l-1 11Z"/><path fill="#238A5D" id="ORBl1" d="m307 179-1 5c-3.502 0-9.786-9.286-13-12.5-5.063-5.063-13.725-8.5-21-8.5l1-11c10.132 0 17.865 14.682 26.5 19l7.5 7v1Z"/><path fill="#99D2BD" id="OLF" d="M155 181h1l7.5-7c4.084-4.084 10.087-6.543 15-9 11.922-5.961 26.508 9 32.5 9 3.871 0 12.258 3.015 14 6.5.752 1.503.201 10.5 2 10.5 0-7.312-2-12.78-2-20l-3 2c-13.492 0-23.309-11-37-11 0 2.207-5.176.338-6.5 1-5.13 2.565-23.5 11.475-23.5 18ZM303 202c1.684 0 1 4.679 1 6l3-4.5c7.031-14.062 0-7.325 0-18.5l-1-1c-3.502 0-9.786-9.286-13-12.5-5.063-5.063-13.725-8.5-21-8.5-14.183 0-24.304 10-37 10l-4-2-1 16c1.164 0 1.435-6.37 2-7.5 1.228-2.456 10.66-5.5 13-5.5l12.5-7c11.306-5.653 20.942-1.029 31 4 2.444 1.222 10.5 7.083 10.5 9l4 4c0 1.898 2.048 7.596 3 9.5 1.336 2.673-3 7.285-3 8.5Z"/><path fill="#54BF94" id="AON" fill-rule="evenodd" d="m181 190-2 2.5 6 7 7.5 17.5c1.845.922 6.533-4.435 5.5-6.5l-5-8v-9c-1.26-2.52-9.283-3.5-12-3.5m0 52c3.847 0 7.374 7 12 7 0-5.011 6.671-10.843 9-15.5l4-4.5c0-5.462-8.227-12.046-5-18.5 5.639-11.277 10-22.838 10-36.5-5.992 0-20.578-14.961-32.5-9-4.913 2.457-10.916 4.916-15 9l-7.5 7-1 1-2 3.5c-.827 1.654-4.727 15.5 0 15.5 2.632 0 5.389 6.889 7 8.5 2.486 2.486 21 29.455 21 31.5v1ZM271 190c0 .974-6.851 2.202-8 4.5v8c-2.035 4.071-7.485 11.007-.5 14.5 2.945 1.472 5.776-11.052 6.5-12.5 2.636-5.272 13.175-14.5 2-14.5m4 52c0 2.235-9.835 7-12 7 0-2.226-11.464-20-13-20 0-4.18 8.288-11.924 6-16.5-5.762-11.525-11-25.95-11-38.5l12.5-7c11.306-5.653 20.942-1.029 31 4 2.444 1.222 10.5 7.083 10.5 9l4 4c0 1.898 2.048 7.596 3 9.5 1.336 2.673-3 7.285-3 8.5l-7 7.5c-2.937 5.874-21 27.384-21 31.5v1Z"/><path fill="#1F9865" id="AIv5" d="M306 166h1l-1-1v1ZM149 167h1v-1h-1v1Z"/><path fill="#219764" id="AIv2/3" d="M307 179h8v-2c-2.316 0-7-7.558-7-10l-1-1h-1c0 3.531 1 7.893 1 12v1ZM149 178v1c-1.345 0-7 2.312-7-1l7-11h1l-1 11Z"/><path fill="#9AD1BD" id="MOB" d="m221 237-2 2c-3.25 0-11.843-10-13-10 0-5.462-8.227-12.046-5-18.5 5.639-11.277 10-22.838 10-36.5 3.871 0 12.258 3.015 14 6.5.752 1.503.201 10.5 2 10.5v28c-1.579 0-1 2.855-1 4v2l-1 2v1c-1.473 0-1 1.952-1 3l-1 2-1 2-1 2ZM249 230c0 1.845-9.065 9-11 9-4.125 0-3.943-12-7-12v-1c0-1.145.579-4-1-4v-5l-1-2v-15c1.788 0 1-11.092 1-13 1.164 0 1.435-6.37 2-7.5 1.228-2.456 10.66-5.5 13-5.5 0 12.55 5.238 26.975 11 38.5 2.288 4.576-6 12.32-6 16.5l-1 1Z"/><path fill="#209864" id="AIv1" d="m150 184-1 1c-2.821 0-12 1.822-12-4 1.429 0 4-1.288 4-3h1c0 3.312 5.655 1 7 1l1 5ZM306 184l1 1c3.149 0 12 1.951 12-4l-4-2h-8l-1 5Z"/><path fill="#CACAC9" id="lotd" d="m299 180 4 4-4-4Z"/><path fill="#99D2BD" id="OLF" d="m153 201-1 6-1.5-2c-8.633-4.316-1.5-13.655-1.5-20l1-1 5-3v1l-2 3.5c-.827 1.654-4.727 15.5 0 15.5Z"/><path fill="#CACAC9" id="lotd" d="m156 181-1 1v-1h1Z"/><path fill="#99D2BD" id="OLF" d="M230 187c-1.788 0-1 11.092-1 13 1.788 0 1-11.092 1-13Z"/><path fill="#CBCBC7" id="aco" d="m181 190-2 2.5 6 7 7.5 17.5c1.845.922 6.533-4.435 5.5-6.5l-5-8v-9c-1.26-2.52-9.283-3.5-12-3.5ZM271 190c0 .974-6.851 2.202-8 4.5v8c-2.035 4.071-7.485 11.007-.5 14.5 2.945 1.472 5.776-11.052 6.5-12.5 2.636-5.272 13.175-14.5 2-14.5Z"/><path fill="#CAC8C7" id="lot" d="M180 241h1c0-2.045-18.514-29.014-21-31.5-1.611-1.611-4.368-8.5-7-8.5l-1 6c0 5.529 21.841 34 28 34ZM275 241h1c9.938 0 19.49-18.479 23-25.5l5-7.5c0-1.321.684-6-1-6l-7 7.5c-2.937 5.874-21 27.384-21 31.5Z"/><path fill="#99D2BD" id="OLF" d="m229 215 1 2-1-2ZM227 219c-1.579 0-1 2.855-1 4 1.579 0 1-2.855 1-4ZM230 222c1.579 0 1 2.855 1 4-1.579 0-1-2.855-1-4ZM226 225l-1 2 1-2ZM238 239l-1 1c-2.27 0-6-10.702-6-13 3.057 0 2.875 12 7 12ZM225 228c-1.473 0-1 1.952-1 3 1.473 0 1-1.952 1-3Z"/><path fill="#62CF9E" id="TTv" d="M219 241c0 5.527-10.122 15.189-16.5 12l-9.5-4c0-5.011 6.671-10.843 9-15.5l4-4.5c1.157 0 9.75 10 13 10v2Z"/><path fill="#99D2BD" id="OLF" d="m250 229-1 1 1-1Z"/><path fill="#62CF9E" id="TTv" d="M238 242c0 2.734 2.062 4.562 4 6.5 10.091 10.091 12.191.5 21 .5 0-2.226-11.464-20-13-20l-1 1c0 1.845-9.065 9-11 9l-1 1v1l1 1Z"/><path fill="#99D2BD" id="OLF" d="m224 231-1 2 1-2ZM223 233l-1 2 1-2ZM222 235l-1 2 1-2ZM219 239v2l2-4-2 2ZM181 241v1l-1-1h1ZM237 241l1 1-1-1ZM276 241l-1 1v-1h1Z"/></svg>