<svg xmlns="http://www.w3.org/2000/svg" viewBox="0 0 456 320"><path fill="#1E9C59" id="MOs1" d="M125 151c-.759 0-5 2.441-5 3l-4-7.5c-4.197-8.393-4.223-21.553 0-30 10.241-20.483 24.425-31.463 44.5-41.5 7.338-3.67 16.704-3.352 24-7 6.703-3.352 33.5 4.418 33.5 13l-4 3h-1c0-4.756-24.303-11.599-29.5-9-4.851 2.425-11.238 1.62-16 4-8.29 4.145-16.649 7.825-25 12-6.502 3.25-14.576 12.651-17.5 18.5-1.091 2.183-1.69 5.69-3.5 7.5-4.688 4.688-1.563 33 3.5 33v1ZM332 151l4 3c3.247 0 4.001-8.502 5-10.5 3.255-6.51 3.26-19.479 0-26-10.008-20.016-24.85-32.675-44.5-42.5-7.309-3.654-16.704-3.352-24-7-5.978-2.989-33.5 3.876-33.5 12 0 1.365 2.366 4 4 4 0-3.387 10.25-5.875 12.5-7 12.211-6.105 37.309 2.654 48 8 16.369 8.185 33.5 24.877 33.5 45.5v8l-5 12.5Z"/><path fill="#1E9D58" id="MOs2/3" d="m134 144-9 6c-5.063 0-8.188-28.312-3.5-33 1.81-1.81 2.409-5.317 3.5-7.5 2.924-5.849 10.998-15.25 17.5-18.5 8.351-4.175 16.71-7.855 25-12 4.762-2.38 11.149-1.575 16-4 5.197-2.599 29.5 4.244 29.5 9l-4 5h-1c-1.628 0-15.986-7.257-22.5-4l-17 6c-19.84 9.92-26.009 19.518-35.5 38.5-1.942 3.885 1 10.888 1 14.5ZM331 151h1l5-12.5v-8c0-20.623-17.131-37.315-33.5-45.5-10.691-5.346-35.789-14.105-48-8-2.25 1.125-12.5 3.613-12.5 7l4 5h1c1.946 0 15.996-7.252 22.5-4 8.197 4.099 17.744 5.872 26 10 13.369 6.684 20.344 20.188 26.5 32.5 2.008 4.016-1 11.887-1 15.5v1c1.586 0 9 5.782 9 7Z"/><path fill="#3EA665" id="ACAd1" d="M233 88c1.564 0 3.876 1 6 1l4-5c-1.634 0-4-2.635-4-4l-6 8ZM217 89h1l5-1c0-1.45-3.126-7-5-7l-4 3c0 1.947 3 2.636 3 5Z"/><path fill="#40A565" id="ACAd2/3" d="M210 91h1c0-.913 5.014-2 6-2 0-2.364-3-3.053-3-5h-1l-4 5 1 2ZM245 91h2v-2l-4-5-4 5c1.091 0 6 1.997 6 2Z"/><path fill="#1F9D58" id="MOs5" d="M134 144h1c0-1.751 13.537-11 15.5-11 2.814 0 5.094 1 7.5 1 1.012 0 5-7.673 5-9 0-1.791-3.27-2.959-2-5.5 5.765-11.531 19.12-13.5 30-13.5 0-3.4 13.697-16 17-16v-1c-1.628 0-15.986-7.257-22.5-4l-17 6c-19.84 9.92-26.009 19.518-35.5 38.5-1.942 3.885 1 10.888 1 14.5ZM299 135c0-1.965 4.206-1 4.5-1 8.115 0 13.309 9 18.5 9 0-3.613 3.008-11.484 1-15.5-6.156-12.312-13.131-25.816-26.5-32.5-8.256-4.128-17.803-5.901-26-10-6.504-3.252-20.554 4-22.5 4l1 1c2.244 0 17 14.441 17 16 11.637 0 14.103 1.802 24.5 7 2.285 1.142 7.881 12 2.5 12 0 1.04 5.102 10 6 10Z"/><path fill="#2FA750" id="PL1" d="M223 122h10l2-25.5 4-7.5c-2.124 0-4.436-1-6-1l-4.5 10-5.5-10-5 1 4 10.5 1 22.5Z"/><path fill="#3EA566" id="ACAd5" d="m208 90 2 1-1-2h-1v1Z"/><path fill="#2FA74F" id="PL2/3" d="M219 122h4l-1-22.5-4-10.5h-1c-.986 0-6 1.087-6 2l5 9.5c3.009 6.019 3 14.239 3 21.5ZM233 122h5v-1c0-7.613-.154-16.191 3-22.5 1.193-2.387 4-4.693 4-7.5 0-.003-4.909-2-6-2l-4 7.5-2 25.5Z"/><path fill="#3EA566" id="ACAd5" d="m249 90-2 1v-2h1l1 1Z"/><path fill="#2EA84F" id="PL5" d="M199 113c6.627 0 13.006 9 20 9 0-7.261.009-15.481-3-21.5l-5-9.5h-1l-2-1c-3.303 0-17 12.6-17 16 3.633 0 5.873 7 8 7ZM258 113c-6.977 0-12.218 8-20 8 0-7.613-.154-16.191 3-22.5 1.193-2.387 4-4.693 4-7.5h2l2-1c2.244 0 17 14.441 17 16-2.596 0-8 4.076-8 7Z"/><path fill="#258F45" id="FRP5" d="M186 114c4.247 0 10.112 3 12 3 2.765 0 1-1.657 1-4-2.127 0-4.367-7-8-7-10.88 0-24.235 1.969-30 13.5-1.27 2.541 2 3.709 2 5.5 7.945 0 14.683-11 23-11ZM271 115c8.495 0 14.397 10 22 10 5.381 0-.215-10.858-2.5-12-10.397-5.198-12.863-7-24.5-7-2.596 0-8 4.076-8 7 0 .666-2.56 4 0 4 1.026 0 13-5.504 13-2Z"/><path fill="#23885E" id="ORBm5" d="M219 122c0 5.081.935 23-6 23-1.186 0-3.454-4.408-4-5.5-1.625-3.25-11-20.227-11-22.5 2.765 0 1-1.657 1-4 6.627 0 13.006 9 20 9ZM243 146h1l1-1c0-8.934 13-20.128 13-28-2.56 0 0-3.334 0-4-6.977 0-12.218 8-20 8v1c0 5.918-1.506 15.488 1 20.5l4 3.5Z"/><path fill="#228A5D" id="ORBl5" d="M181 139c-9.916 0-17.283 26-30 26 0-10.394 7-22.797 7-31 1.012 0 5-7.673 5-9 7.945 0 14.683-11 23-11 0 8.831-5 15.847-5 25Z"/><path fill="#23885C" id="ORBvl5" d="M213 145v1c-3.551 0-9.321-3.411-12.5-5-4.579-2.289-14.988-2-19.5-2 0-9.153 5-16.169 5-25 4.247 0 10.112 3 12 3 0 2.273 9.375 19.25 11 22.5.546 1.092 2.814 5.5 4 5.5ZM275 139c-4.937 0-13.375-.562-18.5 2-3.223 1.612-7.729 4-11.5 4 0-8.934 13-20.128 13-28 1.026 0 13-5.504 13-2 0 8.592 4 15.155 4 24Z"/><path fill="#228A5D" id="ORBl5" d="M275 139c10.602 0 17.249 26 31 26 0-10.086-7-20.13-7-30-.898 0-6-8.96-6-10-7.603 0-13.505-10-22-10 0 8.592 4 15.155 4 24Z"/><path fill="#24885D" id="ORBm2/3" d="M218 159h1c4.37 0 2.946-6.392 4-8.5 3.842-7.685 0-20.244 0-28.5h-4c0 5.081.935 23-6 23v1l5 13Z"/><path fill="#23895D" id="ORBm1" d="m231 170 4 2 2-13c-2.232 0-4-6.302-4-8v-29h-10c0 8.256 3.842 20.815 0 28.5-1.054 2.108.37 8.5-4 8.5l3 13 3-2 3.5-6 .5 3.5 2 2.5Z"/><path fill="#24885D" id="ORBm2/3" d="M237 159h1c0-4.582 5-8.087 5-13l-4-3.5c-2.506-5.012-1-14.582-1-20.5h-5v29c0 1.698 1.768 8 4 8Z"/><path fill="#209665" id="AId5" d="M150 165h1c0-10.394 7-22.797 7-31-2.406 0-4.686-1-7.5-1-1.963 0-15.5 9.249-15.5 11 0 6.013 7.557 21 15 21ZM322 144c0 5.779-9.121 21-16 21 0-10.086-7-20.13-7-30 0-1.965 4.206-1 4.5-1 8.115 0 13.309 9 18.5 9v1Z"/><path fill="#248A5D" id="ORBvl2/3" d="M182 151c9.622 0 18.492 3.996 26.5 8 1.135.568 9.5 2.074 9.5 0l-5-13c-3.551 0-9.321-3.411-12.5-5-4.579-2.289-14.988-2-19.5-2l1 12ZM274 151c-10.168 0-20.959 4.73-29.5 9-2.161 1.081-4.894-1-6.5-1 0-4.582 5-8.087 5-13h1l1-1c3.771 0 8.277-2.388 11.5-4 5.125-2.562 13.563-2 18.5-2 0 4.107-1 8.469-1 12Z"/><path fill="#238A5E" id="ORBl2/3" d="m150 167-1 10c5.919 0 25.824-26 33-26l-1-12c-9.916 0-17.283 26-30 26h-1v2ZM306 166l1 11c-7.434 0-23.776-26-33-26 0-3.531 1-7.893 1-12 10.602 0 17.249 26 31 26v1Z"/><path fill="#209765" id="AId2/3" d="M150 167c-1.762 0-7 8.567-7 10-1.66 0-18-23.645-18-26v-1l9-6h1c0 6.013 7.557 21 15 21v2ZM306 166c3.839 0 4.408 11 8 11l5-5.5c2.213-4.425 12-16.347 12-20.5 0-1.218-7.414-7-9-7 0 5.779-9.121 21-16 21v1Z"/><path fill="#23885C" id="ORBvl5" d="m245 145-1 1 1-1Z"/><path fill="#209764" id="AId1" d="M143 178c-2.364 0-3.053 3-5 3l-18-27c0-.559 4.241-3 5-3 0 2.355 16.34 26 18 26v1Z"/><path fill="#238A5D" id="ORBl1" d="M155 181c-2.523 0-1.959 2-5 2l-1-5v-1c5.919 0 25.824-26 33-26 0 3.378 3 7.874 3 11-6.707 0-30 10.548-30 19Z"/><path fill="#248A5B" id="ORBvl1" d="M185 162c14.193 0 23.558 10 37 10l-3-13h-1c0 2.074-8.365.568-9.5 0-8.008-4.004-16.878-8-26.5-8 0 3.378 3 7.874 3 11ZM272 162c-14.28 0-23.66 10-37 10l2-13h1c1.606 0 4.339 2.081 6.5 1 8.541-4.27 19.332-9 29.5-9 0 2.947-2 8.053-2 11Z"/><path fill="#238A5D" id="ORBl1" d="m307 178-1 5c-5.869 0-7.038-8.769-11.5-11-7.284-3.642-13.77-10-22.5-10 0-2.947 2-8.053 2-11 9.224 0 25.566 26 33 26v1Z"/><path fill="#209764" id="AId1" d="m314 178 4 3c.968 0 18-24.48 18-27l-4-3h-1c0 4.153-9.787 16.075-12 20.5l-5 5.5v1Z"/><path fill="#99D2BD" id="OLF" d="M155 181h1l5.5-6 8-6 12-5c9.51-4.755 22.449 9 29.5 9 3.52 0 11.201.902 13 4.5.623 1.245 2.09 9.5 3 9.5 0-6.056-2-10.735-2-17l-3 2c-13.442 0-22.807-10-37-10-6.707 0-30 10.548-30 19ZM303 201l1 5 2-2.5c7.146-7.146 1-11.569 1-19.5l-1-1c-5.869 0-7.038-8.769-11.5-11-7.284-3.642-13.77-10-22.5-10-14.28 0-23.66 10-37 10l-4-2v9l3.5-4c3.072-1.536 7.83-2 11.5-2l15.5-8c11.204-5.602 21.347 3.673 30 8l7.5 7 4 4c0 1.512 5.308 17 0 17Z"/><path fill="#54BF94" id="AON" fill-rule="evenodd" d="M180 190c0 4.41 3.208 5.916 5 9.5 1.7 3.399 3.997 14.748 7.5 16.5 2.41 1.205 6.705-3.09 5.5-5.5l-5-9c-3.813-7.626 5.113-11.5-13-11.5m2 52c0 1.945 9.233 7 11 7 0-3.857 6.754-12.254 9.5-15l2.5-4c0-3.838-6.498-14.503-5-17.5 5.738-11.475 11-25.83 11-39.5-7.051 0-19.99-13.755-29.5-9l-12 5-8 6-5.5 6-1 1-4 7.5c-1.947 3.894 2 8.438 2 11.5 2.998 0 6.751 6.002 8 8.5 3.496 6.993 20 27.045 20 31.5l1 1ZM270 190c0 .684-5.955 2.411-7 4.5v8c-2.274 4.549-8.184 10.158-1.5 13.5 4.277 2.138 6.51-10.52 7.5-12.5 3.05-6.1 13.172-13.5 1-13.5m5 51c0 3.168-9.558 8-12 8 0-2.375-10.825-19-12-19 0-5.381 8.153-13.195 5-19.5-5.88-11.76-10-24.485-10-37.5l15.5-8c11.204-5.602 21.347 3.673 30 8l7.5 7 4 4c0 1.512 5.308 17 0 17-1.988 0-6.878 6.255-8 8.5-2.663 5.325-20 28.746-20 31.5Z"/><path fill="#219764" id="AIv2/3" d="M307 178h7v-1c-3.592 0-4.161-11-8-11l1 11v1ZM143 178h6v-1l1-10c-1.762 0-7 8.567-7 10v1Z"/><path fill="#9AD1BD" id="MOB" d="m220 239-2 1c-3.344 0-12.411-10-13-10 0-3.838-6.498-14.503-5-17.5 5.738-11.475 11-25.83 11-39.5 3.52 0 11.201.902 13 4.5.623 1.245 2.09 9.5 3 9.5v33c-1.473 0-1 1.952-1 3v2c-1.473 0-1 1.952-1 3v1l-1 2-1 2v1l-1 1-1 2v1l-1 1ZM235 237l3 3c3.09 0 13-6.426 13-10 0-5.381 8.153-13.195 5-19.5-5.88-11.76-10-24.485-10-37.5-3.67 0-8.428.464-11.5 2l-3.5 4c0 1.321.684 6-1 6v1c0 1.406.714 7-1 7v24l1 1v5c1.473 0 1 1.952 1 3v2l2 4v1l2 3v1Z"/><path fill="#209864" id="AIv1" d="M150 183v1c-2.64 0-12 3.288-12-3 1.947 0 2.636-3 5-3h6l1 5ZM306 183l1 1c2.423 0 11 3.133 11-3l-4-3h-7l-1 5Z"/><path fill="#99D2BD" id="OLF" d="M231 179c-1.684 0-1 4.679-1 6 1.684 0 1-4.679 1-6Z"/><path fill="#CACAC9" id="lotd" d="m299 180 4 4-4-4Z"/><path fill="#99D2BD" id="OLF" d="M153 201v6l-2-2.5c-7.602-7.602-1-12.621-1-20.5v-1c3.041 0 2.477-2 5-2v1l-4 7.5c-1.947 3.894 2 8.438 2 11.5Z"/><path fill="#CACAC9" id="lotd" d="m156 181-1 1v-1h1Z"/><path fill="#99D2BD" id="OLF" d="M230 186c-1.714 0-1 5.594-1 7 1.714 0 1-5.594 1-7Z"/><path fill="#CBCBC7" id="aco" d="M180 190c0 4.41 3.208 5.916 5 9.5 1.7 3.399 3.997 14.748 7.5 16.5 2.41 1.205 6.705-3.09 5.5-5.5l-5-9c-3.813-7.626 5.113-11.5-13-11.5ZM270 190c0 .684-5.955 2.411-7 4.5v8c-2.274 4.549-8.184 10.158-1.5 13.5 4.277 2.138 6.51-10.52 7.5-12.5 3.05-6.1 13.172-13.5 1-13.5Z"/><path fill="#CAC8C7" id="lot" d="M153 207c0 6.136 21.25 34 28 34 0-4.455-16.504-24.507-20-31.5-1.249-2.498-5.002-8.5-8-8.5v6ZM303 208c0 6.218-20.878 33-28 33 0-2.754 17.337-26.175 20-31.5 1.122-2.245 6.012-8.5 8-8.5l1 5v1l-1 1Z"/><path fill="#99D2BD" id="OLF" d="m304 207-1 1 1-1ZM229 217l1 1-1-1ZM227 220c-1.473 0-1 1.952-1 3 1.473 0 1-1.952 1-3ZM230 223c1.473 0 1 1.952 1 3-1.473 0-1-1.952-1-3ZM226 225c-1.473 0-1 1.952-1 3 1.473 0 1-1.952 1-3ZM231 228l2 4-2-4ZM225 229l-1 2 1-2Z"/><path fill="#62CF9E" id="TTv" d="M217 244c0 3.283-9.571 10.465-12.5 9l-11.5-4c0-3.857 6.754-12.254 9.5-15l2.5-4c.589 0 9.656 10 13 10v3l-1 1ZM238 242l3 4.5c5.557 11.114 14.256 2.5 22 2.5 0-2.375-10.825-19-12-19 0 3.574-9.91 10-13 10v2Z"/><path fill="#99D2BD" id="OLF" d="m224 231-1 2 1-2ZM233 233l2 3c-1.577 0-2-1.762-2-3ZM223 234l-1 1 1-1ZM222 235l-1 2 1-2ZM238 240v2l-3-5 3 3ZM221 238l-1 1 1-1ZM218 240v3l2-4-2 1ZM181 241l1 1-1-1ZM218 243l-1 1 1-1Z"/></svg>