<svg xmlns="http://www.w3.org/2000/svg" viewBox="0 0 456 320"><path fill="#1E9C59" id="MOs1" d="M222 51h1l4-2c0-2.859-2.849-3.197-4-5.5-6.805-13.61-20.849-10.5-33-10.5v4c9.03 0 32-.075 32 14ZM234 51h1c0-15.3 22.508-14 32-14l-1-4c-12.766 0-20.418-2.082-30.5 8l-6.5 8 5 2Z"/><path fill="#1E9D5A" id="MOp1" d="M147 41c0 2.275-1 3.514-1 6 3.728 0 9.228-2.364 12.5-4 1.185-.593 28.656-6 30.5-6h1v-4c-10.937 0-24.356.428-33.5 5-1.523.761-9.5 1.162-9.5 3ZM310 41c0 2.124 1 4.436 1 6-11.404 0-30.987-10-44-10l-1-4c9.565 0 19.572.036 27.5 4h6c2.514 1.257 7.782 4 10.5 4Z"/><path fill="#1E9D58" id="MOs2/3" d="m222 51-6 4c0-12.7-22.434-6-28-6l1-12h1c9.03 0 32-.075 32 14ZM240 55h1c0-12.6 21.724-6 28-6 0-3.956-2-7.497-2-12-9.492 0-32-1.3-32 14l5 4Z"/><path fill="#1F9C58" id="MOp2/3" d="M145 63v7c10.885 0 29.98-20 43-20v-1l1-12c-1.844 0-29.315 5.407-30.5 6-3.272 1.636-8.772 4-12.5 4l-1 10v6ZM312 63v8c-5.756 0-33.421-21-43-21v-1c0-3.956-2-7.497-2-12 13.013 0 32.596 10 44 10v12l1 4Z"/><path fill="#187F60" id="SSp-ll1" d="m146 47-4 1-1-5c0-1.995 4.377-2 6-2 0 2.275-1 3.514-1 6ZM311 47l4 1 1-5c-1.714 0-3.482-2-6-2 0 2.124 1 4.436 1 6Z"/><path fill="#197E64" id="SSp-ul1" d="m103 61 2 5c4.724 0 26.868-17 37-17v-1l-1-5c-9.815 0-20.151 7.826-28.5 12-1.708.854-9.5 3.711-9.5 6ZM351 67h1l1-6c0-2.755-7.684-5.092-9.5-6-8.122-4.06-17.97-12-27.5-12l-1 5v1c9.513 0 20.33 8.915 28.5 13 1.544.772 7.5 2.732 7.5 5Z"/><path fill="#187F64" id="SSp-ll2/3" d="M142 49c0 1.283 1.931 8 3 8l1-10-4 1v1Z"/><path fill="#1F9D58" id="MOs5" d="m203 66-3.5-2c-5.966-2.983-9.329 3-14.5 3 0-6.214 3-11.271 3-17v-1c5.566 0 28-6.7 28 6l-13 11ZM253 66c2.874 0 5.839-4.83 9.5-3l9.5 4c0-5.75-3-10.973-3-17v-1c-6.276 0-28-6.6-28 6l12 11Z"/><path fill="#187F64" id="SSp-ll2/3" d="M315 49c-3.018 0-1.681 10-4 10V47l4 1v1Z"/><path fill="#197F61" id="SSp-ul2/3" d="M105 67c0 1.14 5.112 11 6 11l7.5-5L145 63v-6c-1.069 0-3-6.717-3-8-10.132 0-32.276 17-37 17v1Z"/><path fill="#3EA665" id="ACAd1" d="M233 76c-3.325 0-7.31 1-10 1V51l4-2c1.2 0 2 3.746 2 0l5 2c0 7.71-1 16.66-1 25Z"/><path fill="#197F61" id="SSp-ul2/3" d="M351 67c0 3.162-3 5.78-3 7.5l-2 3.5c-4.211 0-26.751-15-34-15l-1-4c2.319 0 .982-10 4-10 9.513 0 20.33 8.915 28.5 13 1.544.772 7.5 2.732 7.5 5Z"/><path fill="#1E9C5A" id="MOp5" d="M145 71c0 1.524-.495 14 0 14 11.39 0 33.84-17 39-17l1-1c0-6.214 3-11.271 3-17-13.02 0-32.115 20-43 20v1ZM312 71v15c-6.016 0-26.339-10.92-32.5-14l-7.5-5c0-5.75-3-10.973-3-17 9.579 0 37.244 21 43 21Z"/><path fill="#40A565" id="ACAd2/3" d="m223 77-5 1c0-6.778-2-16.221-2-23l6-4h1v26ZM233 77c2.124 0 4.436 1 6 1 0-7.62 1-16.035 1-23l-5-4h-1c0 7.71-1 16.66-1 25v1Z"/><path fill="#3EA566" id="ACAd5" d="M218 78c-4.517 0-11.692 7-13 7 0-3.113.395-18-2-18v-1l13-11c0 6.779 2 16.222 2 23ZM239 78l12 6c0-5.85 2-11.627 2-17v-1l-12-11h-1c0 6.965-1 15.38-1 23Z"/><path fill="#1B8062" id="SSp-un1" d="M94 74h1l2-1c0-1.89 6.374-6 8-6v-1l-2-5c-1.901 0-12 6.067-12 8 0 1.562.052 5 2 5h1ZM363 75h1l2-6c-4.387 0-8.004-8-13-8l-1 6 8 5 2 2 1 1Z"/><path fill="#1A7F63" id="SSp-ul4" d="M111 79c0 2.817 3 3.615 3 7 6.898 0 22.947-15 31-15v-8l-26.5 10-7.5 5v1Z"/><path fill="#1D9C5A" id="MOs6a" d="M183 89h2c0-1.684 4.679-1 6-1 0-2.409 10.301-21 12-21v-1l-3.5-2c-5.966-2.983-9.329 3-14.5 3l-1 1c0 7.558-1 14.54-1 21ZM273 89h1c0-7.74-2-14.986-2-22l-9.5-4c-3.661-1.83-6.626 3-9.5 3v1c2.114 0 12 18.135 12 21l8 1Z"/><path fill="#1A7F63" id="SSp-ul4" d="M342 86h1c0-1.647 1.268-7 3-7v-1c-4.211 0-26.751-15-34-15v8l30 15Z"/><path fill="#1C7F63" id="SSp-un2/3" d="M109 79h2v-1c-.888 0-6-9.86-6-11-1.626 0-8 4.11-8 6 5.501 0 8.217 6 12 6Z"/><path fill="#3FA664" id="ACAd6a" d="M191 88c2.813 0 3.461 4 5 4 3.978 0 4.851-7 9-7 0-3.113.395-18-2-18-1.699 0-12 18.591-12 21ZM260 93h1c0-2.601 1.04-5 4-5 0-2.865-9.886-21-12-21 0 5.373-2 11.15-2 17v1c1.938 0 9 5.842 9 8Z"/><path fill="#1F9B5A" id="MOp6a" d="M274 89c0 2.155 6.965 3.233 8.5 4l29.5 12V86c-6.016 0-26.339-10.92-32.5-14l-7.5-5c0 7.014 2 14.26 2 22Z"/><path fill="#1C7F63" id="SSp-un2/3" d="M346 79h2c2.206 0 3.84-6 12-6v-1l-8-5h-1c0 3.162-3 5.78-3 7.5l-2 3.5v1Z"/><path fill="#1F9B5A" id="MOp6a" d="M144 105h1c4.16 0 7.263-4 12-4 0-1.638 3.576-2 5-2 0-2.109 2.535-2 4-2 0-1.638 3.576-2 5-2 0-1.995 4.377-2 6-2 0-1.428 4.822-4 6-4 0-6.46 1-13.442 1-21-5.16 0-27.61 17-39 17l-1 1v19Z"/><path fill="#197E63" id="SSp-n1" d="M79 87c-5.153 0-5.02 3-10 3 0-2.376 19.672-21 22-21 0 1.562.052 5 2 5v1c-2.022 0-10 6.758-10 9l-2 2-2 1ZM376 86c4.851 0 7.775 5 12 5 0-1.745-20.339-22-22-22l-2 6 1 1c2.643 0 10 7.304 10 10h1Z"/><path fill="#187E62" id="SSp-ul5" d="M116 90c1.535 0 2.402 6 5 6 6.02 0 16.093-10 23-10l1-1c-.495 0 0-12.476 0-14-8.053 0-24.102 15-31 15v1l2 3ZM340 91l-4 5c-8.292 0-15.343-10-24-10V71l30 15-1 3-1 2Z"/><path fill="#1A7E64" id="SSp-m2/3" d="m399 132-9 4c0-13.592-15.586-41.043-27.5-47-4.463-2.231-9.325-9-14.5-9v-1c2.206 0 3.84-6 12-6l2 1 1 1c0 3.043 8.768 11 12 11h1l11 13.5c4.42 8.84 12 21.16 12 31.5v1Z"/><path fill="#187E61" id="SSp-m1" d="m360 73 2 1-2-2v1Z"/><path fill="#1A7E64" id="SSp-m2/3" d="M66 136h1c0-14.238 14.184-40.842 26.5-47 4.965-2.482 9.651-9 15.5-9v-1c-3.783 0-6.499-6-12-6l-2 1c0 1.186-1 1.186-1 0h-1v1c0 5.439-7.007 9-10 9 0 1.258-2 4.206-2 2l-2 1-10 13.5c-3.615 7.231-12 22.5-12 30.5v1c2.411 0 5.557 4 9 4Z"/><path fill="#1C7F63" id="SSp-un2/3" d="M94 74h1c0 1.186-1 1.186-1 0Z"/><path fill="#1B7F64" id="SSp-n2/3" d="M93 75c-2.022 0-10 6.758-10 9 2.993 0 10-3.561 10-9ZM365 76c2.643 0 10 7.304 10 10-3.232 0-12-7.957-12-11h1l1 1Z"/><path fill="#1A7E64" id="SSp-m2/3" d="m364 75 1 1-1-1Z"/><path fill="#40A664" id="ACAv1" d="M229 103c2.832 0 2.953 5 5 5 0-10.047-1-20.446-1-31v-1c-3.325 0-7.31 1-10 1 0 10.807-1 21.752-1 32l5-6c0-3.15 2-3.446 2 0Z"/><path fill="#3FA566" id="ACAv2/3" d="m221 111-3 1V78l5-1c0 10.807-1 21.752-1 32l-1 2ZM235 110l3 2c0-10.784 1-22.61 1-34-1.564 0-3.876-1-6-1 0 10.554 1 20.953 1 31l1 2Z"/><path fill="#3EA666" id="ACAv5" d="M209 107c0 1.992 6.788 5 9 5V78c-4.517 0-11.692 7-13 7 0 7.582 4 15.027 4 22ZM247 108c0 1.653-7.372 4-9 4 0-10.784 1-22.61 1-34l12 6v1c0 8.422-4 15.569-4 23Z"/><path fill="#197E61" id="SSp-un4" d="M113 87h1v-1c0-3.385-3-4.183-3-7h-2v1l4 7ZM348 80l-5 6c0-1.647 1.268-7 3-7h2v1Z"/><path fill="#1B7F62" id="SSp-m4" d="m67 136 4 2c1.845 0 1.44-3.381 2-4.5l6-12c4.327-8.654 23.601-34.5 34-34.5l-4-7c-5.849 0-10.535 6.518-15.5 9C81.184 95.158 67 121.762 67 136ZM390 136l-5 2-6-12.5c-6.819-13.637-14.966-27.233-29.5-34.5-2.337-1.168-3.673-4-6.5-4v-1l5-6c5.175 0 10.037 6.769 14.5 9 11.914 5.957 27.5 33.408 27.5 47Z"/><path fill="#1B7F64" id="SSp-n2/3" d="m83 84-2 2c0 2.206 2-.742 2-2Z"/><path fill="#40A564" id="ACAv6a" d="M207 107h2c0-6.973-4-14.418-4-22-4.149 0-5.022 7-9 7v1l2 3.5c1.879 3.759 8 5.619 8 9.5l1 1ZM249 107l-2 1c0-7.431 4-14.578 4-23 1.938 0 9 5.842 9 8l-1 3c-1.577 0-2 1.762-2 3-1.702 0-6 4.802-6 6l-1 1-1 1Z"/><path fill="#197D61" id="SSp-ul6a" d="M144 105c-4.9 0-9.47 6-15 6 0-4.649-8-9.016-8-14v-1c6.02 0 16.093-10 23-10v19ZM312 105c4.777 0 9.655 6 15 6 0-1.524 5.693-9.193 7.5-11l1.5-3v-1c-8.292 0-15.343-10-24-10v19Z"/><path fill="#197D62" id="SSp-un5" d="m343 87-2 2 1-3h1v1Z"/><path fill="#187E61" id="SSp-m1" d="M404 128c-1.947 0-2.636 3-5 3 0-10.34-7.58-22.66-12-31.5L376 86c4.851 0 7.775 5 12 5l5 8.5c4.147 8.294 11 18.749 11 28.5ZM52 128l5 3c0-8 8.385-23.269 12-30.5L79 87c-5.153 0-5.02 3-10 3l-6 9.5c-3.83 7.66-11 19.659-11 28.5Z"/><path fill="#1B7E63" id="SSp-m5" d="M71 139c4.066 0 6.822 4 11 4 1.341 0 4.049-13.597 5-15.5 5.036-10.071 21.514-30.5 34-30.5v-1c-2.598 0-3.465-6-5-6 0 2.181-3-2.223-3-3-10.399 0-29.673 25.846-34 34.5l-6 12c-.56 1.119-.155 4.5-2 4.5v1Z"/><path fill="#197D62" id="SSp-un5" d="m114 87 2 3c0 2.181-3-2.223-3-3h1Z"/><path fill="#1B7E63" id="SSp-m5" d="M385 139c-4.066 0-6.822 4-11 4 0-14.426-22.552-46-38-46v-1l4-5 1-2 2-2c2.827 0 4.163 2.832 6.5 4 14.534 7.267 22.681 20.863 29.5 34.5l6 12.5v1Z"/><path fill="#1E9C58" id="MOs6b" d="M185 89h6v-1c-1.321 0-6-.684-6 1Z"/><path fill="#3FA466" id="ACAd6b" d="M195 93h1v-1c-1.539 0-2.187-4-5-4v1c1.366 0 4 2.366 4 4ZM265 89l-4 4c0-2.601 1.04-5 4-5v1Z"/><path fill="#1E9C58" id="MOs6b" d="M273 89v1l-8-1v-1l8 1Z"/><path fill="#1D9D5A" id="MOp6b" d="M183 91c-2.447 0-3.28 2-6 2 0-1.428 4.822-4 6-4v2Z"/><path fill="#1E9C58" id="MOs6b" d="m185 89-2 2v-2h2Z"/><path fill="#CACCC7" id="cing" d="m206 106 1 1c-9.117 0-11.314-9.407-18.5-13-6.614-3.307-13.817 5-19.5 5l-2 1h-5v-1c1.465 0 4 .109 4-2 1.622 0 5 .46 5-2 1.623 0 6-.005 6-2 2.72 0 3.553-2 6-2l2-2h6c1.366 0 4 2.366 4 4 0 2.497 8.639 13 11 13ZM250 106l-1 1c9.398 0 12.058-9.78 18.5-13 6.771-3.385 14.516 5 20.5 5 1.564 0 3.876 1 6 1 0-1.928-21-7.664-21-10l-8-1-4 4c0 1.238-.423 3-2 3 0 1.238-.423 3-2 3 0 2.473-3.527 6-6 6l-1 1Z"/><path fill="#1D9D5A" id="MOp6b" d="M312 105v1c-6.476 0-11.656-6-18-6 0-1.928-21-7.664-21-10v-1h1c0 2.155 6.965 3.233 8.5 4l29.5 12Z"/><path fill="#197D62" id="SSp-un5" d="m341 89-1 2 1-2Z"/><path fill="#1D9D5A" id="MOp6b" d="M177 93c-1.623 0-6 .005-6 2 1.623 0 6-.005 6-2Z"/><path fill="#40A465" id="ACAv6b" d="m196 93 2 3.5c1.879 3.759 8 5.619 8 9.5-2.361 0-11-10.503-11-13h1ZM261 93c0 1.238-.423 3-2 3l1-3h1Z"/><path fill="#C9C7C9" id="ccb" d="m359 156 2 9c-1.842 0-5.051-12.602-6-14.5-4.562-9.123-11.838-17.838-19.5-25.5-9.935-9.935-24.369-10.184-36-16-2.275-1.137-5.617.192-8-1l-14.5 1c0-5.198-16 .195-16 4-1.408 0-5 1.197-5 3l-2 1-1 1-2 1c-2.761 0-16 2.025-16 5h-13c-2.62 0-10.574-5-17-5l-3-2c0-1.799-22-15.692-22-8l-15.5-1c-8.099 4.049-18.846 2.923-27 7-5.867 2.934-11.064 7.032-17 10-4.282 2.141-15.75 19-17.5 22.5-.728 1.456-1.87 7.5-4 7.5v-3l1-2c1.473 0 1-1.952 1-3 1.948 0 4-5.428 4-7 1.577 0 2-1.762 2-3 1.577 0 2-1.762 2-3 1.577 0 2-1.762 2-3 1.721 0 12-10.279 12-12 3.451 0 7.468-4.484 10.5-6l24-9c1.706-.853 9.5-1.49 9.5-4l2-1c5.683 0 12.886-8.307 19.5-5 7.186 3.593 9.383 13 18.5 13h2c0 1.992 6.788 5 9 5l3-1c1.927 0 14 2.954 14-1l3 2c1.628 0 9-2.347 9-4l2-1c9.398 0 12.058-9.78 18.5-13 6.771-3.385 14.516 5 20.5 5 0 2.603 8.652 4.076 10.5 5 9.989 4.994 20.9 7.95 31 13 8.033 4.017 17.774 15.047 21.5 22.5.865 1.731 4.039 11.5 6 11.5v1l2 4Z"/><path fill="#1D9D5A" id="MOp6b" d="M171 95c-1.424 0-5 .362-5 2 1.622 0 5 .46 5-2Z"/><path fill="#40A465" id="ACAv6b" d="M259 96c-1.577 0-2 1.762-2 3 1.577 0 2-1.762 2-3Z"/><path fill="#187D61" id="SSp-m6a" d="M97 151h1c0-8.692 16.031-29.766 24.5-34 2.338-1.169 3.723-5 6.5-5v-1c0-4.649-8-9.016-8-14-12.486 0-28.964 20.429-34 30.5-.951 1.903-3.659 15.5-5 15.5v1l15 7Z"/><path fill="#1D9D5A" id="MOp6b" d="M166 97c-1.465 0-4-.109-4 2 1.465 0 4 .109 4-2Z"/><path fill="#187D61" id="SSp-m6a" d="m374 144-15 7c0-8.878-17.249-29.875-25.5-34-1.728-.864-3.581-5-6.5-5v-1c0-1.524 5.693-9.193 7.5-11l1.5-3c15.448 0 38 31.574 38 46v1Z"/><path fill="#1D9D5A" id="MOp6b" d="m162 100-5 1c0-1.638 3.576-2 5-2v1Z"/><path fill="#C9C9CA" id="scwm" d="m169 99-2 1 2-1Z"/><path fill="#40A465" id="ACAv6b" d="M257 99c-1.702 0-6 4.802-6 6 2.473 0 6-3.527 6-6Z"/><path fill="#C9C9CA" id="scwm" d="m327 113 11 8.5c6.044 6.044 19 21.551 19 29.5-1.961 0-5.135-9.769-6-11.5-3.726-7.453-13.467-18.483-21.5-22.5-10.1-5.05-21.011-8.006-31-13-1.848-.924-10.5-2.397-10.5-5 1.564 0 3.876 1 6 1 6.344 0 11.524 6 18 6 0 2.165 12.838 7 15 7ZM130 113c-1.338 0-7 4.41-7 6 3.451 0 7.468-4.484 10.5-6l24-9c1.706-.853 9.5-1.49 9.5-4h-5l-5 1c0 1.848-10.205 5-12 5 0 1.357-13.253 7-15 7Z"/><path fill="#1D9D5A" id="MOp6b" d="M145 105v1c1.795 0 12-3.152 12-5-4.737 0-7.84 4-12 4Z"/><path fill="#7ED04B" id="IG" d="M235 110c0 3.954-12.073 1-14 1l1-2 5-6c.839 0 2 1.93 2 0 2.832 0 2.953 5 5 5l1 2Z"/><path fill="#1C8064" id="SSp-ul6b" d="m129 112 1 1c1.747 0 15-5.643 15-7v-1h-1c-4.9 0-9.47 6-15 6v1Z"/><path fill="#40A465" id="ACAv6b" d="m251 105-1 1 1-1Z"/><path fill="#1C8064" id="SSp-ul6b" d="M327 112v1c-2.162 0-15-4.835-15-7v-1c4.777 0 9.655 6 15 6v1Z"/><path fill="#AAA8A9" id="SEZ" d="M183 111c0-6.806 16.077 6 19 6 0-1.799-22-15.692-22-8l3 2ZM274 110l-4.5-1c-2.844 1.422-5.045 4-8.5 4 0-3.805 16-9.198 16-4l-3 1Z"/><path fill="#98D5F9" id="CP" d="M137 235h5c0-1.643 3.765-1 5-1h2c0-1.473 1.952-1 3-1 4.005 0 22-4.304 22-9l3-7.5c2.985-5.971-1.739-28.881 5.5-32.5l5 1 2.5-2c0-4.107 1-8.469 1-12v-16l1-2v-9c0-5.627-.56-15.62-3-20.5l-6-12.5-3-2-15.5-1c-8.099 4.049-18.846 2.923-27 7-5.867 2.934-11.064 7.032-17 10-4.282 2.141-15.75 19-17.5 22.5-.728 1.456-1.87 7.5-4 7.5 0 1.623-.005 6-2 6 0 1.424-.362 5-2 5v1c0 4.222-4.2 11.1-2 15.5 2.001 4.002 8 24.31 8 28.5l4 10 1 1 1 2 11 8c4.173 0 9.096 4 14 4 0-1.643 3.765-1 5-1ZM315 235h4l8.5 1 9.5-3 2-1 2-1c0-1.577 1.762-2 3-2l1-1 1-1 1-1 1-1 1-1c0-3.715 6-7.596 6-12 0-1.326 3.09-12 4-12 0-8.78 4-16.651 4-27v-1c-1.353 0-2-4.643-2-6v-1c-1.842 0-5.051-12.602-6-14.5-4.562-9.123-11.838-17.838-19.5-25.5-9.935-9.935-24.369-10.184-36-16-2.275-1.137-5.617.192-8-1l-14.5 1-3 1-7 14.5c-3.084 6.168-2 16.128-2 23.5v15l1 1v3c0 4.607 1 10.052 1 14 0 7.571 5.454-.592 10 8.5 3.084 6.168-.63 19.74 2 25l3 9.5 5.5 5c4.658 2.329 11.965 4 17.5 4l2 1h2c1.321 0 6-.684 6 1Z"/><path fill="#A8AAAA" id="VL" d="M205 119c0 3.948-7.839 11.177-10 15.5-.719 1.437-1.342 9.5-3 9.5 0-5.627-.56-15.62-3-20.5l-6-12.5c0-6.806 16.077 6 19 6l3 2ZM264 148h1c0-7.372-1.084-17.332 2-23.5l7-14.5-4.5-1c-2.844 1.422-5.045 4-8.5 4 0 1.803-3.592 3-5 3l-2 1-1 1-2 1 5 6.5c3.627 7.254 8 13.716 8 22.5Z"/><path fill="#188064" id="SSp-m6b" d="M98 151h1l1-1c0-1.048-.473-3 1-3 0-1.572 2.052-7 4-7 0-1.238.423-3 2-3 0-1.238.423-3 2-3 0-1.238.423-3 2-3 0-3.009 8.991-12 12-12 0-1.59 5.662-6 7-6l-1-1c-2.777 0-4.162 3.831-6.5 5-8.469 4.234-24.5 25.308-24.5 34ZM357 152h1l1-1c0-8.878-17.249-29.875-25.5-34-1.728-.864-3.581-5-6.5-5v1l11 8.5c6.044 6.044 19 21.551 19 29.5v1Z"/><path fill="#AAA8A9" id="SEZ" d="M261 113c-1.408 0-5 1.197-5 3 1.408 0 5-1.197 5-3ZM256 116l-2 1 2-1ZM254 117l-1 1 1-1Z"/><path fill="#C9C9CA" id="scwm" d="M123 119c-3.009 0-12 8.991-12 12 1.721 0 12-10.279 12-12Z"/><path fill="#90CBEC" id="LSc" d="m196 148-1 1c-2.215 0-1.519-2-3-2v-3c1.658 0 2.281-8.063 3-9.5 2.161-4.323 10-11.552 10-15.5 6.426 0 14.38 5 17 5v1c0 6.48-26 18.788-26 23ZM264 148l-2 1-7.5-7c-3.47-1.735-19.5-12.083-19.5-16v-2c0-2.975 13.239-5 16-5l5 6.5c3.627 7.254 8 13.716 8 22.5Z"/><path fill="#97D6F9" id="STR" d="M226 124h4c0 1.535-4 1.535-4 0ZM225 124c0 1.473-1.952 1-3 1v-1h3Z"/><path fill="#90CAED" id="LSr" d="m218 177-1 11-6.5-7c-8.154-4.077-7.837-8-18.5-8l-1-2v-16l1-2 3-4 1-1c0-4.212 26-16.52 26-23 1.048 0 3 .473 3-1h1c0 1.535 4 1.535 4 0h2l3 2c0 3.917 16.03 14.265 19.5 16l7.5 7c0 1.076 1.523 5 3 5v9l1 1v3c-1.684 0-1 4.679-1 6-11.671 0-9.692 3.096-19.5 8l-6.5 8c0-2.075.797-15-1-15 0-9.837-2.908-19.316-7-27.5l-2.5-10.5c-1.593 0-2.865 10.23-3.5 11.5-4.373 8.747-7 18.969-7 29.5Z"/><path fill="#97D6F9" id="STR" d="M235 124v2l-3-2h3Z"/><path fill="#1A7E62" id="SSs1" d="M46 177h4v-1c0-8.913-3.161-21.177 1-29.5l6-14.5v-1l-5-3-5 11.5c-3.282 6.563-3 17.716-3 25.5 0 1.712.768 12 2 12ZM406 177h5c0-13.245 2.938-27.624-3-39.5-.784-1.568-1.924-9.5-4-9.5-1.947 0-2.636 3-5 3v1c2.55 0 3.117 8.735 4 10.5 5.319 10.638 3 21.707 3 33.5v1Z"/><path fill="#1B8063" id="SSs2/3" d="M59 175c-2.723 0-5.778 1-9 1 0-8.913-3.161-21.177 1-29.5l6-14.5c2.411 0 5.557 4 9 4 0 5.199-2.769 12.038-5 16.5-2.94 5.881-2 15.46-2 22.5Z"/><path fill="#C9C9CA" id="scwm" d="M111 131c-1.577 0-2 1.762-2 3 1.577 0 2-1.762 2-3Z"/><path fill="#1B8063" id="SSs2/3" d="M397 175c2.723 0 5.778 1 9 1 0-11.793 2.319-22.862-3-33.5-.883-1.765-1.45-10.5-4-10.5l-9 4 5 15.5c3.121 6.242 2 16.027 2 23.5Z"/><path fill="#C9C9CA" id="scwm" d="M109 134c-1.577 0-2 1.762-2 3 1.577 0 2-1.762 2-3Z"/><path fill="#187C63" id="SSs4" d="M59 175h6c0-5.015.077-17.655 2-21.5 1.829-3.658 4-10.336 4-14.5v-1l-4-2h-1c0 5.199-2.769 12.038-5 16.5-2.94 5.881-2 15.46-2 22.5Z"/><path fill="#8FCBEC" id="SF" d="M219 178c.954 0 2-6.385 2-7.5 0-4.263 2.252-17.376 6.5-19.5 2.9-1.45 3.993 5.485 4.5 6.5 3.181 6.362 5 15.999 5 23.5 1.714 0 1-5.594 1-7 0-9.837-2.908-19.316-7-27.5l-2.5-10.5c-1.593 0-2.865 10.23-3.5 11.5-4.373 8.747-7 18.969-7 29.5l1 1Z"/><path fill="#187C63" id="SSs4" d="M392 175h5c0-7.473 1.121-17.258-2-23.5l-5-15.5-5 2v1l4 12.5c1.605 3.209 3 19.483 3 23.5Z"/><path fill="#C9C9CA" id="scwm" d="M107 137c-1.577 0-2 1.762-2 3 1.577 0 2-1.762 2-3Z"/><path fill="#1C8063" id="SSs5" d="M74 175h1l2-1c0-10.921 5-21.033 5-30v-1c-4.178 0-6.934-4-11-4 0 4.164-2.171 10.842-4 14.5-1.923 3.845-2 16.485-2 21.5 1.517 0 9-2.286 9 0ZM380 174l12 1c0-4.017-1.395-20.291-3-23.5l-4-12.5c-4.066 0-6.822 4-11 4v1l3 8.5c2.763 5.526 2 14.905 2 21.5h1Z"/><path fill="#C9C9CA" id="scwm" d="M105 140c-1.948 0-4 5.428-4 7 1.948 0 4-5.428 4-7Z"/><path fill="#197D63" id="SSs6a" d="M91 173c-5.206 0-10.295 1-14 1 0-10.921 5-21.033 5-30l15 7c0 7.967-6 14.347-6 22ZM365 173c4.607 0 10.052 1 14 1 0-6.595.763-15.974-2-21.5l-3-8.5-15 7c0 7.692 6 14.23 6 22Z"/><path fill="#C9C9CA" id="scwm" d="M101 147c-1.473 0-1 1.952-1 3 1.473 0 1-1.952 1-3Z"/><path fill="#97D6F9" id="STR" d="m195 149-3 4v-6c1.481 0 .785 2 3 2ZM196 148l-1 1 1-1ZM262 149c0 1.076 1.523 5 3 5v-6h-1l-2 1Z"/><path fill="#C9C9CA" id="scwm" d="M99 151v1l1-2-1 1Z"/><path fill="#1A8061" id="SSs6b" d="M91 173h2c0-1.623.005-6 2-6v-1c0-1.424.362-5 2-5v-4l1-1v-1l1-2v-2h-2c0 7.967-6 14.347-6 22Z"/><path fill="#96A7D3" id="MS" d="M225 213c2.761 0 2.857-4 3.5-4 1.224 0-.581 4 2.5 4l4-7.5c3.24-6.48 2-16.75 2-24.5 0-7.501-1.819-17.138-5-23.5-.507-1.015-1.6-7.95-4.5-6.5-4.248 2.124-6.5 15.237-6.5 19.5 0 1.115-1.046 7.5-2 7.5 0 8.097-1.398 19.705 2 26.5l4 8.5Z"/><path fill="#1A8061" id="SSs6b" d="M364 173h1c0-7.77-6-14.308-6-22l-1 1 1 4 2 9v1c1.995 0 2 4.377 2 6v1h1Z"/><path fill="#C9C9CA" id="scwm" d="m358 152 1 4-2-4h1ZM98 155h1v-2l-1 2Z"/><path fill="#97D6F9" id="STR" d="m192 153-1 2 1-2Z"/><path fill="#C9C7C9" id="ccb" d="M97 157v4c1.995 0 2-4.377 2-6h-1v1l-1 1Z"/><path fill="#C9C9CA" id="scwm" d="m98 156-1 1 1-1Z"/><path fill="#C9C7C9" id="ccb" d="M97 161c-1.638 0-2 3.576-2 5 1.638 0 2-3.576 2-5Z"/><path fill="#A8AAAA" id="VL" d="m265 163 1 1-1-1Z"/><path fill="#C8CBCC" id="ec" d="M361 166c1.995 0 2 4.377 2 6-1.353 0-2-4.643-2-6ZM99 209l2 2c0-4.19-5.999-24.498-8-28.5-2.2-4.4 2-11.278 2-15.5-1.995 0-2 4.377-2 6v18l1 2 1 1v2l1 2v1l1 2v3l1 2 1 3Z"/><path fill="#A8AAAA" id="VL" d="M267 181c-2.72 0 1.095 6-3 6 0-4.351 1-9.131 1-14 0-1.321-.684-6 1-6 0 4.607 1 10.052 1 14ZM190 183c0 2.177-.641 4 2 4v-14l-1-2c0 3.531-1 7.893-1 12Z"/><path fill="#8FCBED" id="LSv" d="m198 194 3 3c2.029 0 1.881 1.191 3.5 2 13.347 6.673 12.5-2.926 12.5-11l-6.5-7c-8.154-4.077-7.837-8-18.5-8v14l6 7ZM254 198l-1 1c-12.522 0-14 4.626-14-10l6.5-8c9.808-4.904 7.829-8 19.5-8 0 4.869-1 9.649-1 14l-1 3-6 5-1 1-1 1-1 1Z"/><path fill="#009B74" id="GU6a" d="M79 193h1c3.52 0 5.844-2 9-2l3-1c0-5.557-1-11.556-1-17-5.206 0-10.295 1-14 1v1l2 18Z"/><path fill="#019C74" id="GU6b" d="M92 190h1v-17h-2c0 5.444 1 11.443 1 17Z"/><path fill="#C8CBCC" id="ec" d="M359 200h1c0-1.048-.473-3 1-3l2-6 1-2v-16h-1c0 10.349-4 18.22-4 27Z"/><path fill="#019C74" id="GU6b" d="M364 190h1v-17h-1v17Z"/><path fill="#009B74" id="GU6a" d="M367 191c3.395 0 6.106 2 10 2 0-6.44 2-12.104 2-19-3.948 0-9.393-1-14-1v17l2 1Z"/><path fill="#12AD82" id="VISC5" d="m74 175-9 2v-2c1.517 0 9-2.286 9 0ZM75 175h2v-1l-2 1Z"/><path fill="#97D6F9" id="STR" d="M247 213h1c1.969 0 2.172-9.845 3-11.5l2-2.5c-12.522 0-14 4.626-14-10 0-2.075.797-15-1-15 0 1.406.714 7-1 7 0 7.75 1.24 18.02-2 24.5l-4 7.5h3c.999 0 12-5.429 12 0h1Z"/><path fill="#019C75" id="GU5" d="M377 193c3.437 0 7.626 2 12 2l2-3.5 1-14.5c-1.58 0-12-2.017-12-3h-1c0 6.896-2 12.56-2 19Z"/><path fill="#12AD82" id="VISC5" d="M392 175v2c-1.58 0-12-2.017-12-3l12 1Z"/><path fill="#12AC83" id="VISC2/3" d="m59 179-8 3c0-1.235.643-5-1-5v-1c3.222 0 6.277-1 9-1v4Z"/><path fill="#11AC82" id="VISC4" d="m65 177-6 2v-4h6v2Z"/><path fill="#019C75" id="GU5" d="M79 193c0 1.196-10.494 3-12 3 0-5.732-2-12.293-2-19l9-2h3l2 18Z"/><path fill="#11AC82" id="VISC4" d="m392 177 5 2v-4h-5v2Z"/><path fill="#12AC83" id="VISC2/3" d="m397 179 8 3 1-5v-1c-3.222 0-6.277-1-9-1v4Z"/><path fill="#12AD83" id="VISC1" d="M51 183c-1.048 0-3-.473-3 1-1.663 0-2-5.407-2-7h4c1.643 0 1 3.765 1 5v1Z"/><path fill="#009C74" id="GU4" d="M65 196h2c0-5.732-2-12.293-2-19l-6 2c0 5.513 6 11.662 6 17Z"/><path fill="#97D6F9" id="STR" d="M223 213h2l-4-8.5c-3.398-6.795-2-18.403-2-26.5l-1-1-1 11c0 8.074.847 17.673-12.5 11-1.619-.809-1.471-2-3.5-2 0 .422 7 11.117 7 16h2c1.624 0 2.75-2 5-2 3.015 0 6.004 2 8 2Z"/><path fill="#009C74" id="GU4" d="M389 196h2c0-2.853 6-11.689 6-17l-5-2-1 14.5-2 3.5v1Z"/><path fill="#12AD83" id="VISC1" d="M405 183h4c.913 0 2-5.014 2-6h-5l-1 5v1Z"/><path fill="#009B75" id="GU2/3" d="m65 196-8 2c0-1.742-5.065-15-6-15v-1l8-3c0 5.513 6 11.662 6 17ZM391 196l8 2c0-4.842 6-9.799 6-15v-1l-8-3c0 5.311-6 14.147-6 17Z"/><path fill="#97D6F9" id="STR" fill-rule="evenodd" d="m277 214 .5 6c.649 0 1.247-6-.5-6m3 22 8 5c0-1.174-6.924-10.348-8-12.5-.309-.617 1.382-4.5 2-4.5l-3-9.5c-2.63-5.26 1.084-18.832-2-25-4.546-9.092-10-.929-10-8.5-2.72 0 1.095 6-3 6l-1 3c1.505 0 8-6.164 8 0 5.231 0 5 22.239 5 22-2.527 0 1 11.319 1 13 1.714 0 1 5.594 1 7l2 4Z"/><path fill="#009C75" id="GU1" d="M53 199h4v-1c0-1.742-5.065-15-6-15-1.048 0-3-.473-3 1 0 5.469 5 10.032 5 15Z"/><path fill="#97D6F9" id="STR" d="m176 237-6 2 6-10.5c0-1.549.303-4.5-2-4.5l3-7.5c2.985-5.971-1.739-28.881 5.5-32.5l5 1 2.5-2c0 2.177-.641 4 2 4l6 7c-2.092 0-7.347-5.923-9.5-7l-2.5 2-1 1v1c-1.808 0-6 16.328-6 19l.5 7c1.53 0-.779-5 1.5-5 0 5.721-2 9.761-2 15 0 3.68-2 5.511-2 9l-1 1Z"/><path fill="#009C75" id="GU1" d="m399 198 4 1c1.078 0 6-13.669 6-16h-4c0 5.201-6 10.158-6 15Z"/><path fill="#B3C0DE" id="BST" fill-rule="evenodd" d="M193 207c0 1.022-6.724 6.052-4 11.5 4.182 8.365 23.138-4.681 9.5-11.5H193m0 25h1l1-1c7.638 0 3.652-8 14-8v-8l-1-2c0-4.883-7-15.578-7-16l-3-3c-2.092 0-7.347-5.923-9.5-7l-2.5 2-1 1v1c0 6.924-4 13.677-4 21 0 5.721-2 9.761-2 15l4.5 4 9.5 1ZM258 207c0 2.228-7.788 3.924-5 9.5.878 1.757 4.955 2.728 6.5 3.5 9.32 4.66 13.614-13-1.5-13m4 25h1c4.88 0 14-.691 14-7 0-1.681-3.527-13-1-13 0-7.158-5-14.956-5-22 0-6.164-6.495 0-8 0l-6 5-1 1-1 1-1 1-1 1-2 2.5c-.828 1.655-1.031 11.5-3 11.5 0 1.048.473 3-1 3v7h1c6.386 0 7.993 8 13 8l1 1Z"/><path fill="#8599CC" id="PAL" d="m186 189-1 1 1-1Z"/><path fill="#1F9766" id="AId6b" d="m364 190-1 1 1-2v1Z"/><path fill="#8ADA86" id="CLA" d="m96 208-3 1c-9.042 0-4-15.246-4-18l3-1 1 1 1 2 1 1v2l1 2v1l1 2v5l-1 1v1Z"/><path fill="#209666" id="AId6a" d="M93 190v1l-1-1h1Z"/><path fill="#8599CC" id="PAL" d="M271 190c5.231 0 5 22.239 5 22 0-7.158-5-14.956-5-22Z"/><path fill="#8ADA86" id="CLA" d="M362 209h1c9.838 0 4-14.628 4-18l-2-1h-1l-1 1-2 6c0 1.048.473 3-1 3v7l2 2Z"/><path fill="#209766" id="AIp6a" d="M92 211c-2.25 0-3.376 2-5 2 0-6.877-7-12.525-7-20 3.52 0 5.844-2 9-2 0 2.754-5.042 18 4 18v1l-1 1Z"/><path fill="#8599CC" id="PAL" d="M185 191c-1.808 0-6 16.328-6 19l.5 7c1.53 0-.779-5 1.5-5 0-7.323 4-14.076 4-21Z"/><path fill="#209766" id="AIp6a" d="m364 210 5 2c1.845 0 1.441-3.381 2-4.5 2.05-4.1 6-9.745 6-14.5-3.894 0-6.605-2-10-2 0 3.372 5.838 18-4 18l1 1Z"/><path fill="#219864" id="AIp5" d="m83 215-4 1c0-6.677-12-12.195-12-20 1.506 0 12-1.804 12-3h1c0 7.475 7 13.123 7 20l-4 2Z"/><path fill="#209666" id="AId6a" d="m94 193 1 1-1-1Z"/><path fill="#219864" id="AIp5" d="M373 215h4c2.372 0 12-16.194 12-19v-1c-4.374 0-8.563-2-12-2 0 4.755-3.95 10.4-6 14.5-.559 1.119-.155 4.5-2 4.5l4 3Z"/><path fill="#97D6F9" id="STR" d="m257 195-1 1 1-1Z"/><path fill="#209865" id="AIp2/3" d="m79 216-10 3c0-.503-7.808-13.115-9-15.5l-3-4.5v-1l8-2h2c0 7.805 12 13.323 12 20Z"/><path fill="#209666" id="AId6a" d="m95 196 1 2-1-2Z"/><path fill="#97D6F9" id="STR" d="m256 196-1 1 1-1Z"/><path fill="#209865" id="AIp2/3" d="M377 215c0 1.259 8.632 4 10 4 0-1.66 12-15.778 12-21l-8-2h-2c0 2.806-9.628 19-12 19Z"/><path fill="#97D6F9" id="STR" d="m255 197-1 1 1-1Z"/><path fill="#209666" id="AId6a" d="M361 197c-1.473 0-1 1.952-1 3 1.473 0 1-1.952 1-3Z"/><path fill="#97D6F9" id="STR" d="m254 198-1 1 1-1Z"/><path fill="#219765" id="AIp1" d="m387 219 6 3c0-6.251 10-15.518 10-23l-4-1c0 5.222-12 19.34-12 21ZM69 219l-5 3-3-5.5c-2.303-4.605-8-12.305-8-17.5h4l3 4.5c1.192 2.385 9 14.997 9 15.5Z"/><path fill="#209666" id="AId6a" d="m96 199 1 2-1-2Z"/><path fill="#C8CBCC" id="ec" d="m358 209-3 3c0-1.326 3.09-12 4-12v7l-1 2Z"/><path fill="#209666" id="AId6a" d="M359 204h1v-4h-1v4Z"/><path fill="#1F9866" id="AIv6a" d="M97 206h1l-1-2v2Z"/><path fill="#209766" id="AIp6a" d="M359 205h1v-1h-1v1Z"/><path fill="#1F9866" id="AIv6a" d="M359 207h1v-2h-1v2Z"/><path fill="#209766" id="AIp6a" d="m97 206-1 1 1-1Z"/><path fill="#8AD987" id="CTXsp" d="m96 208 3 1-1-3h-1l-1 1v1Z"/><path fill="#CBCBC7" id="aco" d="M193 207c0 1.022-6.724 6.052-4 11.5 4.182 8.365 23.138-4.681 9.5-11.5H193ZM258 207c0 2.228-7.788 3.924-5 9.5.878 1.757 4.955 2.728 6.5 3.5 9.32 4.66 13.614-13-1.5-13Z"/><path fill="#8AD987" id="CTXsp" d="m360 208-2 1 1-2h1v1Z"/><path fill="#209766" id="AIp6a" d="m360 208 2 1-2-2v1Z"/><path fill="#A0EE9C" id="EPd" d="M101 229h5l1-4v-1l-1-2-1-1-4-10-2-2-3-1-3 1v1l-1 1c0 2.389-1 5.987-1 9v1l2 2v1l1 1 2 1 2 2h1l1 1h1ZM355 229h2l1-1 1-1h1l1-1 1-1 1-1 1-1 1-1v-1c0-4.526-1-8.084-1-11l-1-1h-1l-2-1-2 1-3 3c0 4.404-6 8.285-6 12v1l1 4h5Z"/><path fill="#99D2BD" id="OLF" d="m93 210-1 1 1-1ZM373 215c-4.348 0-5.234 6-8 6 0-4.526-1-8.084-1-11l5 2 4 3ZM83 215c4.045 0 5.458 5 8 5 0-3.013 1-6.611 1-9-2.25 0-3.376 2-5 2l-4 2Z"/><path fill="#FF5547" id="ADP" d="m209 231 1 2c2.011 0 12 3.342 12-3l1-1 1-14-1-2c-1.996 0-4.985-2-8-2-2.25 0-3.376 2-5 2v1l-1 1v16ZM247 232l-1 1c-3.001 0-3.936 2.782-7.5 1l-5.5-5v-14l1-2c.999 0 12-5.429 12 0l1 1v18Z"/><path fill="#E64438" id="HY" d="m210 214-1 1-1-2h1l1 1Z"/><path fill="#CAC7CB" id="fiber tracts" d="M210 213v1l-1-1h1ZM247 213v1l-1-1h1Z"/><path fill="#E64438" id="HY" d="M247 214v2c1.473 0 1-1.952 1-3h-1v1Z"/><path fill="#8599CC" id="PAL" d="m277 214 .5 6c.649 0 1.247-6-.5-6Z"/><path fill="#6ACAB9" id="PIR" d="M117 270h2l7-7c0-9.584.893-20.803-9.5-26l-15.5-8h-1l-1-1h-1l-2-2-2-1-1-1v-1l-2-2v-1c-2.542 0-3.955-5-8-5l-4 1-10 3-5 3c0 6.044 17.608 27.108 22 31.5l9 8.5c5.465 0 19.591 8 22 8Z"/><path fill="#E64438" id="HY" d="m228 229-2 2c0-1.577-1.762-2-3-2l1-14c2.579 0 4 11.643 4 14ZM233 229c-2.215 0-1.519 2-3 2l-1-2c0-3.066.03-14 4-14v14Z"/><path fill="#6ACAB9" id="PIR" d="m337 269 3 1c0-2.616 13.215-5.858 15.5-7 .935-.468 5.5-1.9 5.5 0l8.5-9c4.146-4.146 23.5-27.246 23.5-32l-6-3c-1.368 0-10-2.741-10-4h-4c-4.348 0-5.234 6-8 6v1l-1 1-1 1-1 1-1 1-1 1h-1l-1 1-1 1h-2l-14 7-9 9.5c-3.835 7.67-1 10.404-1 17.5l6 6Z"/><path fill="#99D2BD" id="OLF" d="m91 221 2 2-2-2Z"/><path fill="#C8CBCC" id="ec" d="m105 221 1 1-1-1Z"/><path fill="#FD5446" id="PS" d="M205 239c-1.046 0-6.474 2-10 2l-3-4 1-5h1l1-1c7.638 0 3.652-8 14-8v10l-4 6ZM251 239c3.186 0 6.865 2 11 2l2-4-1-5h-1l-1-1c-5.007 0-6.614-8-13-8l-1 1v8l1 1 3 6Z"/><path fill="#99D2BD" id="OLF" d="m365 222-1 1 1-1Z"/><path fill="#E64438" id="HY" d="m248 223-1 1v-1h1Z"/><path fill="#99D2BD" id="OLF" d="m364 223-1 1 1-1ZM93 224l1 1-1-1Z"/><path fill="#C8CBCC" id="ec" d="M117 232h1l-11-8v1c3.357 0 5.933 7 10 7Z"/><path fill="#80CDF8" id="ACB" d="m131 253 5 5c7.326 0 12.515-1.008 18.5-4l13.5-13 1-1 1-1 6-10.5c0-1.549.303-4.5-2-4.5 0 4.696-17.995 9-22 9 0 1.473-1.952 1-3 1h-2c0 1.643-3.765 1-5 1h-5c0 1.643-3.765 1-5 1 0 2.087-7-.109-7 3.5l3 4.5v1l1 1v1l1 2v1l1 1v2ZM325 254l-2.5 3c-.919.459-2.5-.765-2.5 1-8.648 0-12.627-2.064-20.5-6-4.341-2.17-6.7-11-11.5-11 0-1.174-6.924-10.348-8-12.5-.309-.617 1.382-4.5 2-4.5l5.5 5c4.658 2.329 11.965 4 17.5 4l2 1h2c0 1.684 4.679 1 6 1h4c0 1.935 12-.184 12 6l-1 1-1 1v1l-1 1v1l-1 1v1l-1 2v1l-1 2v1Z"/><path fill="#C8CBCC" id="ec" d="M348 225h1v-1l-1 1Z"/><path fill="#99D2BD" id="OLF" d="m363 224-1 1 1-1Z"/><path fill="#8AD987" id="CTXsp" d="M117 232c0 1.539 4 2.187 4 5-6.825 0-9.397-8-15-8l1-4c3.357 0 5.933 7 10 7Z"/><path fill="#E64438" id="HY" d="M280 236c-4.805 0-10.083 1-16 1l-1-5c4.88 0 14-.691 14-7 1.714 0 1 5.594 1 7l2 4Z"/><path fill="#C8CBCC" id="ec" d="m348 225-1 1 1-1Z"/><path fill="#8AD987" id="CTXsp" d="m341 236-6 1 2-4 2-1 2-1c1.238 0 3-.423 3-2l1-1 1-1 1-1 1-1h1l1 4c-1.576 0-9 5.242-9 7Z"/><path fill="#99D2BD" id="OLF" d="m362 225-1 1 1-1ZM96 226l2 2-2-2ZM361 226l-1 1 1-1Z"/><path fill="#E64438" id="HY" d="m177 236 15 1 1-5-9.5-1-4.5-4c0 3.68-2 5.511-2 9Z"/><path fill="#C8CBCC" id="ec" d="m346 227-1 1 1-1Z"/><path fill="#99D2BD" id="OLF" d="m359 227-1 1 1-1ZM99 228l1 1-1-1Z"/><path fill="#C8CBCC" id="ec" d="m345 228-1 1 1-1Z"/><path fill="#99D2BD" id="OLF" d="m358 228-1 1 1-1ZM126 263h2l4-3 1-1-2-6v-2l-1-1v-1l-1-2v-1l-1-1v-1l-7-7c-6.825 0-9.397-8-15-8h-5l15.5 8c10.393 5.197 9.5 16.416 9.5 26Z"/><path fill="#E64438" id="HY" d="m223 229-1 1 1-1Z"/><path fill="#FF5346" id="MPO" d="M219 248c0-5.352-11.254.377-12.5 1-2.826 1.413-5.888 10-7.5 10 0-5.768 4-9.232 4-15 1.014 0 2-3.959 2-5l4-6h1c2.011 0 12 3.342 12-3l1-1c1.238 0 3 .423 3 2 0 3.531-1 7.893-1 12-3.986 0-3.972 5-6 5Z"/><path fill="#FF5445" id="MEPO" d="M227 246h3l1-4c0-3.642-1-8.002-1-11l-1-2h-1l-2 2c0 3.531-1 7.893-1 12l2 3Z"/><path fill="#FF5346" id="MPO" d="M253 270h3l3-6v-2c0-6.742-6-11.985-6-19l-2-4-3-6h-2c-3.001 0-3.936 2.782-7.5 1l-5.5-5c-2.215 0-1.519 2-3 2 0 2.998 1 7.358 1 11 3.234 0 6 3.817 6 7 1.676 0 3.592-4.954 7.5-3 3.818 1.909 19.67 14.165 10 19-7.209 3.605-12.634-9-15.5-9l4 9 10 5Z"/><path fill="#C8CBCC" id="ec" d="M344 229c-1.238 0-3 .423-3 2 1.238 0 3-.423 3-2Z"/><path fill="#99D2BD" id="OLF" d="m355 229-14 7c0-1.758 7.424-7 9-7h5Z"/><path fill="#E64438" id="HY" d="m195 231-1 1 1-1ZM209 233h1l-1-2v2ZM261 231l1 1-1-1Z"/><path fill="#C8CBCC" id="ec" d="m341 231-2 1 2-1Z"/><path fill="#97D6F9" id="STR" d="m121 237 7 7-3-4.5c0-3.609 7-1.413 7-3.5-4.904 0-9.827-4-14-4h-1c0 1.539 4 2.187 4 5Z"/><path fill="#E64438" id="HY" d="M246 233h2l-1-1-1 1Z"/><path fill="#97D6F9" id="STR" d="m339 232-2 1 2-1ZM152 233c-1.048 0-3-.473-3 1 1.048 0 3 .473 3-1ZM305 233l2 1-2-1ZM335 237l-4 4c0-6.184-12-4.065-12-6l8.5 1 9.5-3-2 4ZM147 234c-1.235 0-5-.643-5 1 1.235 0 5 .643 5-1ZM309 234c1.321 0 6-.684 6 1-1.321 0-6 .684-6-1ZM137 235c-1.235 0-5-.643-5 1 1.235 0 5 .643 5-1Z"/><path fill="#A2B1D7" id="SI" d="M328 263c0 3.434-6.801 8.65-9.5 10-18.964 9.482-17.392 4-36.5 4l4-4.5c1.534-3.068-8.481-10.5-11-10.5l-4-3c-3.962 0-9-12.982-9-16v-2l2-4c5.917 0 11.195-1 16-1l8 5c4.8 0 7.159 8.83 11.5 11 7.873 3.936 11.852 6 20.5 6l4 1 4 4Z"/><path fill="#E64438" id="HY" d="m177 236-1 1 1-1Z"/><path fill="#A2B1D7" id="SI" d="M181 263c-2.282 0-12.638 6.224-11 9.5 1.019 2.039 4 1.719 4 4.5-6.653 0-17.911 5.295-24.5 2l-10-4-4-4c-2.109-1.054-7.5-5.286-7.5-8l4-3 1-1 3-1c7.326 0 12.515-1.008 18.5-4l13.5-13 1-1 1-1 6-2 1-1 15 1 3 4-1 2c0 6.075-9 15.926-9 17l-4 3Z"/><path fill="#99D2BD" id="OLF" d="M328 263h3c0-7.096-2.835-9.83 1-17.5l9-9.5-6 1-4 4-1 1-1 1v1l-1 1v1l-1 1v1l-1 2v1l-1 2v1l-1 5 4 4Z"/><path fill="#97D6F9" id="STR" d="m170 239-1 1 1-1Z"/><path fill="#E64438" id="HY" d="M194 243c1.699 0 9-2.99 9 1 1.014 0 2-3.959 2-5-1.046 0-6.474 2-10 2l-1 2ZM253 243h9v-2c-4.135 0-7.814-2-11-2l2 4Z"/><path fill="#97D6F9" id="STR" d="m169 240-1 1 1-1ZM331 241l-1 1 1-1Z"/><path fill="#F2473B" id="LPO" d="m197 262-1 1c-3.395 0-6.106-2-10-2l-1-1c0-1.074 9-10.925 9-17 1.699 0 9-2.99 9 1 0 5.768-4 9.232-4 15l-2 3Z"/><path fill="#FE5446" id="AVPV" d="M245 275h1c3.771 0-3-9.155-3-10l-4-9-2-7c0-3.183-2.766-7-6-7l-1 4-1 9c0 4.725 1 9.879 1 14l2 2c5.043 0 8.415 4 13 4Z"/><path fill="#F2473B" id="LPO" d="m259 262 1 1c3.911 0 6.607-2 11-2v-2c-3.962 0-9-12.982-9-16h-9c0 7.015 6 12.258 6 19Z"/><path fill="#97D6F9" id="STR" d="m330 242-1 1 1-1Z"/><path fill="#FE5446" id="AVPV" d="M211 275h3c0-2.109 2.535-2 4-2h1l2-1c0-1.473 1.952-1 3-1h1l2-2v-23l-2-3c-3.986 0-3.972 5-6 5 0 2.124-1 4.436-1 6l-1 1v2l-4 8c0 3.463-3 6.917-3 10h1Z"/><path fill="#97D6F9" id="STR" d="m329 244-1 1 1-1ZM128 245l1 1-1-1Z"/><path fill="#FE5447" id="AVP" d="M217 257c-1.797 0-18 18.364-18 2 1.612 0 4.674-8.587 7.5-10 1.246-.623 12.5-6.352 12.5-1 0 2.124-1 4.436-1 6l-1 1v2Z"/><path fill="#FD5447" id="OV" d="M227 255h2l1-9h-3v9Z"/><path fill="#FE5447" id="AVP" d="M237 249c1.676 0 3.592-4.954 7.5-3 3.818 1.909 19.67 14.165 10 19-7.209 3.605-12.634-9-15.5-9l-2-7Z"/><path fill="#97D6F9" id="STR" d="m328 246-1 1 1-1ZM129 247l1 2-1-2ZM327 248l-1 2 1-2ZM130 250l1 1-1-1ZM326 251l-1 2 1-2ZM136 258l-3 1-2-6 5 5Z"/><path fill="#FF5346" id="MPO" d="m218 254-1 1 1-1Z"/><path fill="#97D6F9" id="STR" d="m320 258 4 1 1-5-2.5 3c-.919.459-2.5-.765-2.5 1Z"/><path fill="#A8A9AA" id="V3" d="M227 269c0 1.486 3 1.486 3 0 0-4.121-1-9.275-1-14h-2v14Z"/><path fill="#FF5346" id="MPO" d="M201 270c0-2.373 2.284 0 3 0 3.281 0 6.134-5 9-5l4-8c-1.797 0-18 18.364-18 2l-2 3v1l3 7h1Z"/><path fill="#97D6F9" id="STR" d="m133 259-1 1 1-1Z"/><path fill="#E64438" id="HY" d="m275 262-1 2-3-3v-2l4 3ZM181 263h2l3-2-1-1-4 3Z"/><path fill="#96A6D3" id="NDB" d="m197 278-2 1c-3.92 0-13 .078-13-5 0-2.998 1-7.358 1-11l3-2c3.894 0 6.605 2 10 2h1l3 7v1l-1 5-2 2ZM259 278h1c2.014 0 5.932 2.284 8.5 1l6.5-4-2-4.5c-1.081-2.161 1-4.894 1-6.5l-3-3c-4.393 0-7.089 2-11 2l-1 1-3 6 2 7 1 1Z"/><path fill="#CAC8C7" id="lot" d="M117 272v3c-5.441 0-22-4.95-22-13 5.465 0 19.591 8 22 8v2Z"/><path fill="#CBCCCB" id="mfb" d="M196 263h1v-1l-1 1ZM260 263l-1 1v-2l1 1Z"/><path fill="#A2B1D8" id="MA" d="M279 277h3l4-4.5c1.534-3.068-8.481-10.5-11-10.5l-1 2c0 1.606-2.081 4.339-1 6.5l2 4.5 4 2Z"/><path fill="#CAC8C7" id="lot" d="M339 271v4c4.646 0 22-4.866 22-12 0-1.9-4.565-.468-5.5 0-2.285 1.142-15.5 4.384-15.5 7l-1 1Z"/><path fill="#7FCCF7" id="OT" d="M120 278c0 5.649 8 11.75 12.5 14 11.076 5.538 20.315 11.342 33 5l10-2c2.809-1.405 5.018-2.018 7.5-4.5l3-3.5c0-4.321-3.174-10-8-10h-4c-6.653 0-17.911 5.295-24.5 2l-10-4-4-4c-2.109-1.054-7.5-5.286-7.5-8h-2l-7 7v1c0 2.409 1 5.181 1 7Z"/><path fill="#A2B1D8" id="MA" d="M174 277h4l4-3c0-2.998 1-7.358 1-11h-2c-2.282 0-12.638 6.224-11 9.5 1.019 2.039 4 1.719 4 4.5Z"/><path fill="#7FCCF7" id="OT" d="M336 279c0 4.311-6.926 10.213-10.5 12-14.262 7.131-22.569 13.216-39 5-4.063-2.032-15.5-1.745-15.5-9 0-4.335 1.551-10 8-10h3c19.108 0 17.536 5.482 36.5-4 2.699-1.35 9.5-6.566 9.5-10h3l6 6 1 2-1 6v1l-1 1Z"/><path fill="#E64438" id="HY" d="m210 276-5 1-1-7c3.281 0 6.134-5 9-5 0 3.463-3 6.917-3 10v1ZM247 276l5 1c0-2.153 1-4.722 1-7l-10-5c0 .845 6.771 10 3 10v1h1Z"/><path fill="#FE5546" id="VLPO" d="M203 277h2l-1-7c-.716 0-3-2.373-3 0l-1 1-1 5c0 1.579 2.855 1 4 1ZM253 277h5l-2-7h-3c0 2.278-1 4.847-1 7h1Z"/><path fill="#99D2BD" id="OLF" d="M338 271h1l1-1-3-1 1 2ZM119 271l-2 1v-2h2v1Z"/><path fill="#E64438" id="HY" d="m201 270-1 1v-1h1Z"/><path fill="#97D6F9" id="STR" d="m117 275 3 3c0-1.819-1-4.591-1-7l-2 1v3Z"/><path fill="#CAC7CB" id="fiber tracts" d="M224 271c-1.048 0-3-.473-3 1 1.048 0 3 .473 3-1Z"/><path fill="#CBCACC" id="och" d="M245 288h2c0-2.502 4.074-2.351 2-6.5-1.94-3.88-8.191-6.845-11.5-8.5-.984-.492-5.5-.851-5.5-2h-1l-2 1c0 1.186-1 1.186-1 0h-1l-1-1h-2c0 1.473-1.952 1-3 1l-2 1h-1c0 2.109-2.535 2-4 2l-7 6.5c-1.811 3.622 3 4.894 3 6.5h35Z"/><path fill="#CAC7CB" id="fiber tracts" d="m226 271 1 1-1-1ZM231 271l-2 1 2-1ZM247 276l4 4.5c2.4 4.8 2.086 7.5-4 7.5 0-2.502 4.074-2.351 2-6.5-1.94-3.88-8.191-6.845-11.5-8.5-.984-.492-5.5-.851-5.5-2 5.043 0 8.415 4 13 4l1 1h1Z"/><path fill="#97D6F9" id="STR" d="m339 275-2 2 1-6h1v4Z"/><path fill="#CAC7CB" id="fiber tracts" d="m221 272-2 1 2-1ZM228 272h1c0 1.186-1 1.186-1 0ZM218 273c-1.465 0-4-.109-4 2 1.465 0 4 .109 4-2Z"/><path fill="#8599CC" id="PAL" d="M195 279c0 1.489-7.014 8-9 8 0-4.321-3.174-10-8-10l4-3c0 5.078 9.08 5 13 5Z"/><path fill="#CAC7CB" id="fiber tracts" d="M210 276c0 1.384-9.281 9.609-6.5 11h3l3.5 1c0-1.606-4.811-2.878-3-6.5l7-6.5h-3l-1 1Z"/><path fill="#8599CC" id="PAL" d="M260 278c0 2.217 9.196 9 11 9 0-4.335 1.551-10 8-10l-4-2-6.5 4c-2.568 1.284-6.486-1-8.5-1Z"/><path fill="#E64438" id="HY" d="M203 277c0 1.684-4.679 1-6 1l2-2c0 1.579 2.855 1 4 1ZM258 277l1 1c-1.321 0-6 .684-6-1h5Z"/><path fill="#97D6F9" id="STR" d="m337 278-1 1 1-1Z"/><path fill="#CAC7CB" id="fiber tracts" d="M211 288h34c0 1.743-6.968 1-8.5 1H218c-1.406 0-7 .714-7-1Z"/></svg>