<svg xmlns="http://www.w3.org/2000/svg" viewBox="0 0 456 320"><path fill="#1E9C59" id="MOs1" d="M146 137c-4.033 0-5.933 2-10 2-2.144 0-.381-4.262-1-5.5-2.812-5.624-.435-13.129 2-18 6.95-13.9 14.318-21.41 28.5-28.5 4.225-2.112 9.723-1.862 14-4 4.828-2.414 14.352 1 19 1 .822 0 5.5 1.213 5.5 2l-5 6c-24.98 0-40.666-1.168-54 25.5-3.135 6.271 1 13.584 1 19.5ZM310 137c4.135 0 7.305 2 11 2 0-2.187 2.664-8.171 2-9.5-2.725-5.45-2.77-14.541-6-21-4.875-9.75-17.875-17.187-26.5-21.5-6.574-3.287-22.361-6.82-30-3-1.303.652-7.5.22-7.5 2 0 2.053 4 4.792 4 6 24.91 0 41.005-1.49 54 24.5 3.307 6.615-1 14.57-1 20.5Z"/><path fill="#2FA750" id="PL1" d="m217 112 9 1c0-9.902-10.766-27-22-27l-5 6v1c9.554 0 18 9.714 18 19ZM231 113h8v-1c0-8.767 8.956-19 18-19v-1c0-1.208-4-3.947-4-6-12.177 0-22 15.922-22 27Z"/><path fill="#1E9D58" id="MOs2/3" d="m147 138 7 1 4-2 1-1 1-1c0-2.538 1-3.953 1-7 0-3.629-6.727-7.046-4-12.5 7.842-15.684 22.001-18.5 39-18.5l3-4v-1c-24.98 0-40.666-1.168-54 25.5-3.135 6.271 1 13.584 1 19.5l1 1ZM309 138l-7 1-4-2-1-2-2-7c0-1.65 5-5.391 5-8.5 0-18.804-23.9-22.5-40-22.5 0-1.114-2.034-4-3-4v-1c24.91 0 41.005-1.49 54 24.5 3.307 6.615-1 14.57-1 20.5l-1 1Z"/><path fill="#2FA74F" id="PL2/3" d="m211 110 6 2c0-9.286-8.446-19-18-19l-3 4c4.052 0 15 8.451 15 13ZM244 111l-5 1c0-8.767 8.956-19 18-19 .966 0 3 2.886 3 4-6.461 0-14.698 14-16 14Z"/><path fill="#268E45" id="FRP2/3" fill-rule="evenodd" d="M190 102c0 1.026-8.96 2.58-7 6.5 3.131 6.261 13.335 7.583 19.5 4.5 2.808-1.404 1.432-7.784-1-9l-5-1c-2.159-1.079-3.868-1-6.5-1m-1 13c6.327 0 11.426 2 17 2l2.5 2c8.029 4.014 2.5-5.911 2.5-9 0-4.549-10.948-13-15-13-16.999 0-31.158 2.816-39 18.5-2.727 5.454 4 8.871 4 12.5 10.408 0 16.8-13 28-13ZM261 102c0 1.452-7.108 1.716-8 3.5-7.15 14.301 29.668 9.668 18.5-1.5-1.523-1.523-2.418-.209-4-1-2.159-1.079-3.868-1-6.5-1m-12 16-1 1c-7.476 0-4-.06-4-8 1.302 0 9.539-14 16-14 16.1 0 40 3.696 40 22.5 0 3.109-5 6.85-5 8.5-7.704 0-17.592-13-28-13-7.044 0-13.232 3-18 3Z"/><path fill="#258F45" id="FRP5" d="M190 102c0 1.026-8.96 2.58-7 6.5 3.131 6.261 13.335 7.583 19.5 4.5 2.808-1.404 1.432-7.784-1-9l-5-1c-2.159-1.079-3.868-1-6.5-1ZM261 102c0 1.452-7.108 1.716-8 3.5-7.15 14.301 29.668 9.668 18.5-1.5-1.523-1.523-2.418-.209-4-1-2.159-1.079-3.868-1-6.5-1Z"/><path fill="#24885D" id="ORBm2/3" d="M210 127h1c7.036 0 6-10.224 6-15l-6-2c0 3.089 5.529 13.014-2.5 9l-2.5-2c0 2.801 4 6.46 4 10ZM245 127h1c0-3.495 2-5.939 2-8-7.476 0-4-.06-4-8l-5 1v1c0 4.254.255 14 6 14Z"/><path fill="#23895D" id="ORBm1" d="m222 143-3 2-4-2c0-5.699-4-10.755-4-16 7.036 0 6-10.224 6-15l9 1v18.5l-3 10.5-1 1ZM242 142c0 1.077-3.762 3-5 3l-3-3-3-6.5c-2.49-4.98 0-17.96 0-22.5h8c0 4.254.255 14 6 14 0 5.164-3 10.68-3 15Z"/><path fill="#238A5E" id="ORBl2/3" d="M161 128c0 3.047-1 4.462-1 7 1.372 0 16.908-10 27-10l2-10c-11.2 0-17.592 13-28 13Z"/><path fill="#248A5D" id="ORBvl2/3" d="M187 125c3.766 0 11.505-1.998 15.5 0 2.809 1.405 4.026 2 7.5 2 0-3.54-4-7.199-4-10-5.574 0-10.673-2-17-2l-2 10ZM269 125h1l-3-10c-7.044 0-13.232 3-18 3l-1 1c0 2.061-2 4.505-2 8 7.905 0 15.414-2 23-2Z"/><path fill="#238A5E" id="ORBl2/3" d="m295 128 2 7c-3.974 0-16.818-10-27-10l-3-10c10.408 0 20.296 13 28 13Z"/><path fill="#24885D" id="ORBm2/3" d="m249 118-1 1 1-1Z"/><path fill="#248A5B" id="ORBvl1" d="m213 142 2 1c0-5.699-4-10.755-4-16h-1c-3.474 0-4.691-.595-7.5-2-3.995-1.998-11.734 0-15.5 0l-1 9h7c3.65 0 20 5.052 20 8ZM242 142h1c0-2.699 17.335-8 21-8h7l-2-9c-7.586 0-15.095 2-23 2h-1c0 5.164-3 10.68-3 15Z"/><path fill="#238A5D" id="ORBl1" d="M157 140c0 5.266-1 9.674-1 15l3-5.5c1.602-3.204 11.8-10.5 15-10.5 3.494 0 7.656-5 12-5l1-9c-10.092 0-25.628 10-27 10l-1 1-1 1c0 1.048.473 3-1 3ZM299 141c0 4.152 1 8.328 1 13l-4-5.5c-1.99-1.99-14.116-11.5-16-11.5-2.774 0-6.035-3-9-3l-2-9h1c10.182 0 23.026 10 27 10l1 2 1 4Z"/><path fill="#9DF0D1" id="AOBgl" d="m193 146-9.5 4c-3.226 1.613-7.482-3-10.5-3l1-8c3.494 0 7.656-5 12-5h7l2 5c0 2.833-2 4.84-2 7Z"/><path fill="#99D2BD" id="OLF" d="M211 142h2c0-2.948-16.35-8-20-8l2 5c1.423 0 3.544-1.978 5.5-1l10.5 4ZM243 142l2 1c2.28 0 9.561-5 16-5l3-4c-3.665 0-21 5.301-21 8Z"/><path fill="#9DF0D1" id="AOBgl" d="m263 146 9.5 4c3.785 1.892 7.349-3 10.5-3l1-4.5-4-5.5c-2.774 0-6.035-3-9-3h-7l-3 4c0 3.303 2 5.115 2 8Z"/><path fill="#238A5E" id="ORBl2/3" d="m160 135-1 1 1-1Z"/><path fill="#209764" id="AId1" d="m156 155-1 2c-8.243 0-19-9.511-19-18 4.067 0 5.967-2 10-2l1 1c0 3.482 5.666 2 7 2h3c0 5.266-1 9.674-1 15Z"/><path fill="#1E9C59" id="MOs1" d="M154 140h3c1.473 0 1-1.952 1-3l-4 2v1Z"/><path fill="#99D2BD" id="OLF" d="m276 229 2 4c.972 0 7.952-15.404 9-17.5 9.284-18.568 14-35.908 14-58.5v-1l-1-1v-1l-4-5.5c-1.99-1.99-14.116-11.5-16-11.5l4 5.5-1 4.5c6.221 0 3 7.947 3 11 2.185 0 8-.119 8 3 4.357 0 3 15.893 3 18.5 0 13.628-8.242 27.484-14 39-.893 1.785-4.925 10.5-7 10.5Z"/><path fill="#1E9C59" id="MOs1" d="m302 140-3 1-1-4 4 2v1Z"/><path fill="#209764" id="AId1" d="M301 156v1c7.953 0 20-9.651 20-18-3.695 0-6.865-2-11-2l-1 1c0 4.664-5.44 2-7 2l-3 1c0 4.152 1 8.328 1 13v1l1 1Z"/><path fill="#209765" id="AId2/3" d="M154 139v1c-1.334 0-7 1.482-7-2l7 1Z"/><path fill="#9AD1BD" id="MOB" d="M181 237c0 5.175 18.673 15 24 15 7.757 0 11.491-12.482 14-17.5 7.743-15.487 7-33.269 7-52v-18c-1.932-3.865-3.033-8.066-5-12l-3-3.5-3-3-4-4-10.5-4c-1.956-.978-4.077 1-5.5 1 0 2.833-2 4.84-2 7l2 1.5v9.5c2.56 0 0 3.334 0 4v4c2.261 0 .297 6.094 1 7.5 1.253 2.507-2 23.244-2 29.5 0 3.288-.711 17-4 17l-5 7c0 6.229-1.384 3-5 3l-1 4 1 3 1 1ZM277 234c0 7.37-19.515 18-26 18-7.273 0-11.285-13.071-14-18.5-10.387-20.774-6-48.675-6-72.5 1.638 0 2-3.576 2-5 1.097 0 5-5.986 5-7l1-1 1-1 3-2 1-1 1-1c2.28 0 9.561-5 16-5 0 3.303 2 5.115 2 8l-2 2.5c-1.284 2.568 1 6.486 1 8.5-2.787 0-1 2.571-1 4v6c-1.628 0-1.628 10 0 10v2l2 18c0 4.075-1.084 22 4 22 0 1.463 3.486 7 5 7 0 .169-2.286 6.893 1.5 5l2.5-2 2 4-1 1Z"/><path fill="#209765" id="AId2/3" d="M302 139v1c1.56 0 7 2.664 7-2l-7 1Z"/><path fill="#99D2BD" id="OLF" d="m180 229-1 4c-2.692 0-8.749-15.998-10-18.5-8.984-17.967-14-35.728-14-57.5l1-2 3-5.5c1.602-3.204 11.8-10.5 15-10.5l-1 8c-6.227 0-2 8.706-2 11-2.928 0-8-.661-8 3-3.765 0-5.943 14.614-4 18.5 1.49 2.981.554 7.108 2 10 4.12 8.24 5.856 17.712 10 26l9 13.5Z"/><path fill="#CAC8C9" id="von" d="m223 153 1 1c3.208 0-1-4.47-1-5l-4-4-4-2-2-1h-2l4 4 4 3 4 4Z"/><path fill="#99D2BD" id="OLF" d="m223 142-1 1 1-1ZM237 145l-3 3v-6l3 3Z"/><path fill="#CAC8C9" id="von" d="M232 154h1c0-1.832 3.242-5 5-5l1-1 1-1 3-2 1-1 1-1-2-1h-1c0 1.077-3.762 3-5 3l-3 3c0 1.974-2 3.517-2 6Z"/><path fill="#99D2BD" id="OLF" d="m219 145 4 4-1-6-3 2ZM245 143l-1 1 1-1ZM244 144l-1 1 1-1Z"/><path fill="#9DEFD2" id="AOBmi" d="M195 157c-5.42 0-8.207 8.147-20.5 2-1.046-.523-3.5.951-3.5-1 0-2.294-4.227-11 2-11 3.018 0 7.274 4.613 10.5 3l9.5-4 2 1.5v9.5Z"/><path fill="#99D2BD" id="OLF" d="M218 149h1l-4-3 3 3Z"/><path fill="#9DEFD2" id="AOBmi" d="m262 157 6.5 4c5.845 2.923 12.709-3 17.5-3 0-3.053 3.221-11-3-11-3.151 0-6.715 4.892-10.5 3l-9.5-4-2 2.5c-1.284 2.568 1 6.486 1 8.5Z"/><path fill="#99D2BD" id="OLF" d="m240 147-1 1 1-1ZM239 148l-1 1 1-1Z"/><path fill="#C7CBCA" id="onl" d="M227 163v45c0 5.809 1.468 14.565-1 19.5l-1 15c-3.192 6.384-3.896 9.198-10.5 12.5-2.122 1.061-9.5-1.116-9.5-3 7.757 0 11.491-12.482 14-17.5 7.743-15.487 7-33.269 7-52v-18c-1.932-3.865-3.033-8.066-5-12l-3-3.5h1l4 4 2 4 1 5 1 1ZM233 154v2c1.097 0 5-5.986 5-7-1.758 0-5 3.168-5 5Z"/><path fill="#99D2BD" id="OLF" d="m224 154 1 3-2-4 1 1ZM232 156h1v-2h-1v2Z"/><path fill="#238A5D" id="ORBl1" d="m300 155 1 1-1-1Z"/><path fill="#99D2BD" id="OLF" d="m232 156-1 1 1-1Z"/><path fill="#C7CBCA" id="onl" d="M231 160v1c1.638 0 2-3.576 2-5h-1l-1 1v3Z"/><path fill="#CACAC9" id="lotd" d="M175 163h2l8.5 1 9.5-3c0-.666 2.56-4 0-4-5.42 0-8.207 8.147-20.5 2-1.046-.523-3.5.951-3.5-1-2.928 0-8-.661-8 3 0 1.238.423 3 2 3 1.477 0 5.699-2 9-2l1 1ZM280 163h1l2-1c3.618 0 6.154 2 9 2l2-3c0-3.119-5.815-3-8-3-4.791 0-11.655 5.923-17.5 3l-6.5-4c-2.787 0-1 2.571-1 4l10.5 3 8.5-1Z"/><path fill="#99D2BD" id="OLF" d="M230 161h1v-1l-1 1Z"/><path fill="#CAC8C7" id="lot" d="M185 226c0 6.229-1.384 3-5 3l-9-13.5c-4.144-8.288-5.88-17.76-10-26-1.446-2.892-.51-7.019-2-10-1.943-3.886.235-18.5 4-18.5 0 1.238.423 3 2 3 0 5.135-6.314 13.872-3 20.5l9 24 4 5c1.301 2.602 5.656 12.5 10 12.5Z"/><path fill="#95E4C8" id="AOBgr" d="M195 165c0 2.371-.017 5-3 5-3.584 0-15-2.936-15-7l8.5 1 9.5-3v4Z"/><path fill="#C7CBCA" id="onl" d="M231 161c0 23.825-4.387 51.726 6 72.5 2.715 5.429 6.727 18.5 14 18.5 0 2.673-7.305 4.097-9.5 3-6.666-3.333-7.221-6.943-10.5-13.5l-1-19c-4.585-9.17 0-49.606 0-61.5h1Z"/><path fill="#95E4C8" id="AOBgr" d="M261 167c0 1.712 2.571 3 4 3 2.712 0 15-3.615 15-7l-8.5 1-10.5-3v6Z"/><path fill="#CAC8C7" id="lot" d="M272 226c0 .169-2.286 6.893 1.5 5l2.5-2c2.075 0 6.107-8.715 7-10.5 5.758-11.516 14-25.372 14-39 0-2.607 1.357-18.5-3-18.5l-2 3c0 4.905 5.995 12.509 3 18.5l-4 13c-3.23 6.46-6.741 12.482-10 19-.782 1.564-6.311 11.5-9 11.5Z"/><path fill="#54BF94" id="AON" d="m190 219-5 7c-4.344 0-8.699-9.898-10-12.5l-4-5-9-24c-3.314-6.628 3-15.365 3-20.5 1.477 0 5.699-2 9-2l1 1h2c0 4.064 11.416 7 15 7 0 2.446 9.723 11-3 11l-4.5-1c-1.903.952.5 4.487.5 5.5 0 2.202 3.834 13.668 5 16 1.225 2.45 1.291 11.419 0 14l-3 3 3 .5Z"/><path fill="#95E4C8" id="AOBgr" d="m174 162 1 1-1-1Z"/><path fill="#99D2BD" id="OLF" d="m226 162 1 1-1-1Z"/><path fill="#95E4C8" id="AOBgr" d="m283 162-2 1 2-1Z"/><path fill="#54BF94" id="AON" d="M267 219c0 1.463 3.486 7 5 7 2.689 0 8.218-9.936 9-11.5 3.259-6.518 6.77-12.54 10-19l4-13c2.995-5.991-3-13.595-3-18.5-2.846 0-5.382-2-9-2l-2 1h-1c0 3.385-12.288 7-15 7 0 1.536-4 3.454-4 7v2c2.447 0 3.28 2 6 2l4.5-1c1.574.787 1.053 3.394.5 4.5-2.954 5.908-3.082 13.164-6 19-2.475 4.95 3.979 15.5 1 15.5Z"/><path fill="#99D2BD" id="OLF" d="M189 181c0 5.067 4 10.264 4 15 0 1.321-.684 6 1 6 0-6.256 3.253-26.993 2-29.5-.703-1.406 1.261-7.5-1-7.5 0 2.371-.017 5-3 5 0 2.446 9.723 11-3 11ZM265 170c0 1.536-4 3.454-4 7-1.628 0-1.628-10 0-10 0 1.712 2.571 3 4 3ZM267 181c0 2.212-2.183 16-4 16l-2-18c2.447 0 3.28 2 6 2Z"/><path fill="#CBCBC7" id="aco" d="M194 202c0 3.288-.711 17-4 17l-3-.5 3-3c1.291-2.581 1.225-11.55 0-14-1.166-2.332-5-13.798-5-16 0-1.013-2.403-4.548-.5-5.5l4.5 1c0 5.067 4 10.264 4 15 0 1.321-.684 6 1 6ZM263 197c0 4.075-1.084 22 4 22 2.979 0-3.475-10.55-1-15.5 2.918-5.836 3.046-13.092 6-19 .553-1.106 1.074-3.713-.5-4.5l-4.5 1c0 2.212-2.183 16-4 16Z"/><path fill="#99D2BD" id="OLF" d="m278 233-1 1 1-1ZM180 236l1 1-1-1Z"/></svg>