<svg xmlns="http://www.w3.org/2000/svg" viewBox="0 0 456 320"><path fill="#1E9C59" id="MOs1" d="m128 148-4 3c-2.284 0-3.244-5.988-4-7.5-3.549-7.098-4.777-19.445-1-27 11.936-23.872 22.529-28.515 44.5-39.5 4.925-2.462 12.287-6 18-6 16.805 0 14.677-1.662 30 6l5.5 5-4 3h-1l-5.5-4-10-3c-2.924-1.462-12.544-.228-15 1-3.602 1.801-9.352.176-13 2-8.16 4.08-17.506 8.253-25 12-11.597 5.799-20.5 25.001-20.5 36.5 0 3.023 3.171 17.5 5 17.5v1ZM329 148l4 3c0-2.433 4.754-10.009 6-12.5 2.354-4.708-.121-17.242-2-21-9.537-19.074-17.937-28.719-37.5-38.5-12.529-6.264-33.063-12.969-47-6-2.807 1.404-12.5 4.13-12.5 8 0 2.735 3 1.913 3 5l2-1c0-4.066 11.06-4.78 13.5-6 8.846-4.423 32.498 2.249 40 6 20.468 10.234 24.803 17.107 34.5 36.5 4.176 8.353-4 18.747-4 25.5v1Z"/><path fill="#1E9D58" id="MOs2/3" d="M138 141c-3.943 0-6.298 6-10 6-1.829 0-5-14.477-5-17.5 0-11.499 8.903-30.701 20.5-36.5 7.494-3.747 16.84-7.92 25-12 3.648-1.824 9.398-.199 13-2 2.456-1.228 12.076-2.462 15-1l10 3 5.5 4v1c-1.664 0-6 1.823-6 4h-1c0-1.59-4.386-1.443-5.5-2-6.693-3.347-20.137.069-26 3-22.296 11.148-35.5 23.607-35.5 49v1ZM318 140c3.645 0 6.841 7 11 7 0-6.753 8.176-17.147 4-25.5-9.697-19.393-14.032-26.266-34.5-36.5-7.502-3.751-31.154-10.423-40-6-2.44 1.22-13.5 1.934-13.5 6 0 .877 3.726 4 6 4 4.9 0 13.088-4.706 18.5-2 6.91 3.455 15.033 4.516 22 8 6.379 3.19 10.074 9.537 15 12 7.102 3.551 9.447 17.394 12.5 23.5.639 1.279.258 8.5-1 8.5v1Z"/><path fill="#3EA665" id="ACAd1" d="m243 86-1 1c0-1.014-3.959-2-5-2l3-4c0 2.735 3 1.913 3 5ZM213 86l1 1c0-.672 4.329-2 5-2 0-1.238-.423-3-2-3l-4 3v1Z"/><path fill="#2FA750" id="PL1" d="M212 86h1v-1h-1v1ZM223 120h10c0-5.945-.527-15.447 2-20.5l7-12.5c0-1.014-3.959-2-5-2l-4 5.5c-.771 1.542-1.255 3.51-2 5-6.995 13.991-4.336-10.5-12-10.5-.671 0-5 1.328-5 2 0 .008 6.381 10.263 7 11.5 2.849 5.698 2 14.688 2 21.5Z"/><path fill="#2FA74F" id="PL2/3" d="m238 119-5 1c0-5.945-.527-15.447 2-20.5l7-12.5 1-1 2-1c0 .877 3.726 4 6 4v1c-9.551 0-13 21.911-13 29ZM218 119l5 1c0-6.812.849-15.802-2-21.5-.619-1.237-7-11.492-7-11.5l-1-1h-1c-1.664 0-6 1.823-6 4 8.852 0 12 21.321 12 29Z"/><path fill="#1F9D58" id="MOs5" d="M158 135c-4.448 0-8.618-1.941-12.5 0l-7.5 5c0-25.393 13.204-37.852 35.5-49 5.863-2.931 19.307-6.347 26-3 1.114.557 5.5.41 5.5 2 0 1.548-13 10.958-13 14-12.752 0-18.151 3.825-28.5 9-2.605 1.302-5.161 12-.5 12l-5 10ZM299 135c4.488 0 9.147-2.177 13.5 0 1.789.895 2.387 4 5.5 4 1.258 0 1.639-7.221 1-8.5-3.053-6.106-5.398-19.949-12.5-23.5-4.926-2.463-8.621-8.81-15-12-6.967-3.484-15.09-4.545-22-8-5.412-2.706-13.6 2-18.5 2v1c1.729 0 13 12.966 13 14 12.926 0 18.841 4.17 28.5 9 2.131 1.065 5.964 12 1.5 12 0 1.63 3.233 10 5 10Z"/><path fill="#2EA84F" id="PL5" d="M201 112c5.672 0 10.856 7 17 7 0-7.679-3.148-29-12-29h-1c0 1.548-13 10.958-13 14 1.852 0 9 5.903 9 8ZM255 113c-6.514 0-10.326 6-17 6 0-7.089 3.449-29 13-29 1.729 0 13 12.966 13 14-2.49 0-9 6.536-9 9Z"/><path fill="#258F45" id="FRP5" d="M187 114c5.345 0 10.455 3 14 3 3.444 0 0-1.224 0-5 0-2.097-7.148-8-9-8-12.752 0-18.151 3.825-28.5 9-2.605 1.302-5.161 12-.5 12 8.231 0 14.955-11 24-11ZM270 114c8.919 0 15.562 11 24 11 4.464 0 .631-10.935-1.5-12-9.659-4.83-15.574-9-28.5-9-2.49 0-9 6.536-9 9 0 2.061-2.431 4 1 4 1.228 0 8.854-3 14-3Z"/><path fill="#23885E" id="ORBm5" d="M211 139h1c7.589 0 6-14.079 6-20-6.144 0-11.328-7-17-7 0 3.776 3.444 5 0 5 0 7.8 10 14.135 10 22ZM238 119c0 6.687-1.042 20 7 20l11-22c-3.431 0-1-1.939-1-4-6.514 0-10.326 6-17 6Z"/><path fill="#228A5D" id="ORBl5" d="m158 135-3 6.5-2 16.5c14.686 0 15.258-24 29-24h1c0-7.471 4-13.538 4-20-9.045 0-15.769 11-24 11l-5 10Z"/><path fill="#23885C" id="ORBvl5" d="M183 134c2.839 0 21.697 2.098 23.5 3l4.5 2c0-7.865-10-14.2-10-22-3.545 0-8.655-3-14-3 0 6.462-4 12.529-4 20ZM274 134c-9.431 0-21.369 5-29 5l11-22c1.228 0 8.854-3 14-3l4 20Z"/><path fill="#228A5D" id="ORBl5" d="M299 135c0 7.431 5 15.071 5 23-14.815 0-16.406-24-30-24l-4-20c8.919 0 15.562 11 24 11 0 1.63 3.233 10 5 10Z"/><path fill="#24885D" id="ORBm2/3" d="M212 139c0 5.322 6 10.019 6 15 8.133 0 5-27.813 5-34l-5-1c0 5.921 1.589 20-6 20ZM238 154h1c0-5.601 6-9.763 6-15-8.042 0-7-13.313-7-20l-5 1c0 5.717-1.743 34 5 34Z"/><path fill="#23895D" id="ORBm1" d="m231 165 4 2c0-4.379 3-8.226 3-13-6.743 0-5-28.283-5-34h-10c0 6.187 3.133 34-5 34 0 4.962 3 7.849 3 13l4-2c0-5.702 6-6.763 6 0Z"/><path fill="#209665" id="AId5" d="M152 158h1l2-16.5 3-6.5c-4.448 0-8.618-1.941-12.5 0l-7.5 5v1c1.183 0 1.535 3.57 2 4.5 1.645 3.29 7.576 12.5 12 12.5Z"/><path fill="#238A5E" id="ORBl2/3" d="M151 169v4c7.102 0 22.149-26 31-26v-13c-13.742 0-14.314 24-29 24h-1l-1 11Z"/><path fill="#248A5D" id="ORBvl2/3" d="M182 147c12.369 0 23.089 7 36 7 0-4.981-6-9.678-6-15h-1l-4.5-2c-1.803-.902-20.661-3-23.5-3h-1v13ZM275 147c-2.345 0-8.527-1.486-11.5 0-7.127 3.563-16.006 7-24.5 7 0-5.601 6-9.763 6-15 7.631 0 19.569-5 29-5 0 4.088 1 9.62 1 13Z"/><path fill="#238A5E" id="ORBl2/3" d="M306 169c-1.115 0 0 2.535 0 4-8.122 0-21.803-26-31-26 0-3.38-1-8.912-1-13 13.594 0 15.185 24 30 24 0 3.492 2 7.709 2 11Z"/><path fill="#209665" id="AId5" d="M318 140c0 5.241-8.138 18-14 18 0-7.929-5-15.569-5-23 4.488 0 9.147-2.177 13.5 0 1.789.895 2.387 4 5.5 4v1Z"/><path fill="#209765" id="AId2/3" d="m306 169 4 5c2.876 0 13.445-15.39 15-18.5.737-1.475 1.705-7.5 4-7.5v-1c-4.159 0-7.355-7-11-7 0 5.241-8.138 18-14 18 0 3.492 2 7.709 2 11ZM146 174h1l4-5 1-11c-4.424 0-10.355-9.21-12-12.5-.465-.93-.817-4.5-2-4.5-3.943 0-6.298 6-10 6v1c0 3.256 15.2 26 18 26Z"/><path fill="#248A5B" id="ORBvl1" d="M183 157c10.4 0 21.751 3.625 30.5 8h4l3.5 2c0-5.151-3-8.038-3-13-12.911 0-23.631-7-36-7 0 2.978 1 6.49 1 10ZM235 167h2c0-2.796 6.845-2.173 8.5-3 7.692-3.846 18.414-7 27.5-7l2-10c-2.345 0-8.527-1.486-11.5 0-7.127 3.563-16.006 7-24.5 7h-1c0 4.774-3 8.621-3 13Z"/><path fill="#238A5D" id="ORBl1" d="m153 179-2 1v-7c7.102 0 22.149-26 31-26 0 2.978 1 6.49 1 10-7.44 0-16.204 8.704-21.5 14-2.123 2.123-6.19 8-8.5 8ZM303 179l3 1v-7c-8.122 0-21.803-26-31-26l-2 10c6.519 0 16.485 7.985 21.5 13l8.5 9Z"/><path fill="#209764" id="AId1" d="M146 174c0 1.247-2.467 5-4 5-2.76 0-3.193-4.693-4.5-6-3.057-3.057-13.5-18.295-13.5-22l4-3c0 3.256 15.2 26 18 26ZM310 174l4 5 5.5-6 13.5-22-4-3c-2.295 0-3.263 6.025-4 7.5-1.555 3.11-12.124 18.5-15 18.5Z"/><path fill="#99D2BD" id="OLF" d="M155 196c0 3.222 1 6.277 1 9l-3-4.5c-5.628-11.255 0-11.5 0-21.5 2.31 0 6.377-5.877 8.5-8 5.296-5.296 14.06-14 21.5-14 10.4 0 21.751 3.625 30.5 8h4l3.5 2 4-2 1 10-3.5-6c-5.744-2.872-9.418-2-15.5-2-6.708 0-16.968-8.766-24.5-5-3.837 1.918-8.096 3.048-12 5l-5.5 4-1 1-1 1-1 1-1 1c-1.747 0-2 .253-2 2l-1 1-1 1c-1.577 0-2 1.762-2 3v1l-1 1c0 3.962 1 8.688 1 12ZM301 197v7l2.5-3c8.469-8.469-.5-14.301-.5-22l-8.5-9c-5.015-5.015-14.981-13-21.5-13-9.086 0-19.808 3.154-27.5 7-1.655.827-8.5.204-8.5 3h12l5.5-2c9.183-4.592 20.354-3.323 29 1 1.544.772 7.5 2.732 7.5 5 3.285 0 11 8.947 11 12l1 8.5-2 5.5Z"/><path fill="#54BF94" id="AON" d="M185 241c1.996 0 4.985 2 8 2 2.341 0 1.421-2.342 2-3.5l4-5c2.624-5.249 0-13.321 0-18.5h-1c-7.384 0-10.473-14.446-13-19.5-.876-1.752-5.174-4.652-4-7 1.37-2.739 9.873-.253 11 2 1.19 2.381 3 10.073 3 12.5 1.947 0 2.636 3 5 3 1.758 0 2.301-7.103 3-8.5 3.999-7.999 4-22.191 4-31.5-6.708 0-16.968-8.766-24.5-5-3.837 1.918-8.096 3.048-12 5l-5.5 4-1 1-1 1-1 1-1 1-2 2-1 1-1 1c0 1.238-.423 3-2 3v1l-1 1c0 3.962 1 8.688 1 12 2.08 0 5.177 7.853 6 9.5 3.21 6.42 21 29.126 21 33.5l2 2h1ZM269 243c-2.124 0-4.436 1-6 1 0-3.448-4.484-7.468-6-10.5V216h1c5.224 0 17.804-24.893 17-26.5-1.431-2.862-5.711-.395-7.5.5-3.053 1.526-6.5 10.657-6.5 14-1.947 0-2.636 3-5 3l-5-13.5c-3.132-6.265 2.212-18.576 0-23l-2-3.5 5.5-2c9.183-4.592 20.354-3.323 29 1 1.544.772 7.5 2.732 7.5 5l11 12 1 8.5-2 5.5c-2.683 0-5.082 7.664-6 9.5-2.859 5.718-21 29.148-21 32.5l-1 1-2 2-2 1Z"/><path fill="#99D2BD" id="OLF" d="m237 167-6 6v-8l4 2h2Z"/><path fill="#9AD1BD" id="MOB" d="M208 249h2l2-1 1-1h1l1-1 1-1 1-1 1-1 1-1v-1l2-2 1-2 1-1v-1l1-1v-1l1-1v-3l1-2c0-14.543 1-30.777 1-46-1.643 0-1-3.765-1-5v-1l-3.5-6c-5.744-2.872-9.418-2-15.5-2 0 9.309-.001 23.501-4 31.5-.699 1.397-1.242 8.5-3 8.5 0 1.145.579 4-1 4v5c0 5.179 2.624 13.251 0 18.5l-4 5c-.579 1.158.341 3.5-2 3.5 0 5.176 8 3.909 8 6h7ZM252 249h3c0-1.175 5.704-2 7-2l1-3c0-3.448-4.484-7.468-6-10.5V210l-1-3-5-13.5c-3.132-6.265 2.212-18.576 0-23l-2-3.5h-12l-6 6v1c0 1.145.579 4-1 4v5l-1 2c0 13.593 1 28.073 1 41l1 1v3l1 2 1 3 1 1v1l1 1v1l12 10h5Z"/><path fill="#219764" id="AIv2/3" d="M147 174h4v-5l-4 5ZM306 174h4l-4-5c-1.115 0 0 2.535 0 4v1Z"/><path fill="#CACAC9" id="lotd" d="m165 171-1 1 1-1ZM291 171c3.285 0 11 8.947 11 12l-11-12ZM164 172l-1 1 1-1ZM163 173l-1 1 1-1Z"/><path fill="#209864" id="AIv1" d="M142 179c0 3.749 7.542 1 9 1v-6h-5c0 1.247-2.467 5-4 5Z"/><path fill="#CACAC9" id="lotd" d="m162 174-1 1 1-1Z"/><path fill="#99D2BD" id="OLF" d="M231 174c-1.579 0-1 2.855-1 4 1.579 0 1-2.855 1-4Z"/><path fill="#209864" id="AIv1" d="M314 179c0 4.155-6.707 1-8 1v-6h4l4 5Z"/><path fill="#CACAC9" id="lotd" d="M161 175c-1.747 0-2 .253-2 2l2-2Z"/><path fill="#99D2BD" id="OLF" d="M226 176c1.643 0 1 3.765 1 5-1.643 0-1-3.765-1-5Z"/><path fill="#CACAC9" id="lotd" d="m159 177-1 1 1-1ZM158 178l-1 1 1-1ZM157 179c-1.577 0-2 1.762-2 3 1.577 0 2-1.762 2-3ZM155 183l-1 1 1-1Z"/><path fill="#99D2BD" id="OLF" d="m230 183-1 2 1-2Z"/><path fill="#CBCBC7" id="aco" d="m199 215-1 1c-7.384 0-10.473-14.446-13-19.5-.876-1.752-5.174-4.652-4-7 1.37-2.739 9.873-.253 11 2 1.19 2.381 3 10.073 3 12.5l4 7v4ZM257 214l1 2c5.224 0 17.804-24.893 17-26.5-1.431-2.862-5.711-.395-7.5.5-3.053 1.526-6.5 10.657-6.5 14 0 1.417-2.383 6-4 6v4Z"/><path fill="#CAC8C7" id="lot" d="M157 207c0 7.18 16.547 32 25 32 0-4.374-17.79-27.08-21-33.5-.823-1.647-3.92-9.5-6-9.5 0 3.222 1 6.277 1 9v1l1 1ZM300 206c0 8.977-17.824 33-26 33 0-3.352 18.141-26.782 21-32.5.918-1.836 3.317-9.5 6-9.5v8l-1 1Z"/><path fill="#99D2BD" id="OLF" d="M200 207c0 1.145.579 4-1 4l-4-7c1.947 0 2.636 3 5 3ZM256 207l1 3c1.617 0 4-4.583 4-6-1.947 0-2.636 3-5 3ZM301 205l-1 1 1-1ZM156 206l1 1-1-1ZM257 216h1l-1-2v2ZM198 216h1v-1l-1 1ZM230 226l1 1-1-1ZM226 227l-1 2 1-2ZM231 230l1 2-1-2ZM225 232l-1 1 1-1ZM224 234l-1 1 1-1ZM233 235l1 1-1-1ZM223 236l-1 1 1-1ZM222 237l-1 2 1-2ZM234 237l1 1-1-1ZM182 239l2 2-2-2ZM221 239l-2 2c1.747 0 2-.253 2-2ZM235 239l12 10c-3.517 0-12-6.366-12-10ZM274 239l-1 1 1-1ZM193 243c0 5.176 8 3.909 8 6-3.556 0-16-2.959-16-8 1.996 0 4.985 2 8 2ZM219 242l-1 1 1-1ZM271 242l-2 1 2-1ZM218 243l-1 1 1-1ZM263 244l-1 3c2.424 0 7-1.706 7-4-2.124 0-4.436 1-6 1ZM217 244l-1 1 1-1ZM216 245l-1 1 1-1ZM215 246l-1 1 1-1ZM213 247l-1 1 1-1ZM262 247c-1.296 0-7 .825-7 2 1.774 0 7 .273 7-2ZM212 248l-2 1 2-1ZM205 249h3c0 1.486-3 1.486-3 0ZM248 249h4c0 1.535-4 1.535-4 0Z"/></svg>