<svg xmlns="http://www.w3.org/2000/svg" viewBox="0 0 456 320"><path fill="#1E9D5A" id="MOp1" d="m198 28-24 2 1-6c0-1.666 4.222-1 5.5-1H199l-1 5Z"/><path fill="#1E9C59" id="MOs1" d="M222 41h1c0-2.109 2.535-2 4-2 0-2.183-3.405-3.31-4-4.5-4.135-8.27-14.513-11.5-24-11.5l-1 5c7.792 0 24 3.97 24 13ZM230 38l4 3c0-9.051 16.759-13 24-13v-5c-11.668 0-17.354 3.854-24.5 11l-3.5 4Z"/><path fill="#1E9D5A" id="MOp1" d="m258 28 24 2v-6c-7.217 0-16.105-1-24-1v5Z"/><path fill="#187F60" id="SSp-ll1" d="M134 40h1c0-1.36 6.258-2.379 7.5-3 8.525-4.262 20.4-7 30.5-7h1l1-6c-10.294 0-25.974 2.737-34.5 7l-8.5 4 2 5ZM325 35l-3 5-11.5-5c-7.091-3.545-19.144-5-27.5-5h-1v-6c9.082 0 27.109 3.304 34.5 7 2.456 1.228 5.685 4 8.5 4Z"/><path fill="#1F9C58" id="MOp2/3" d="m171 44-1 5c5.423 0 16.92-11 26-11l2-10-24 2h-1c0 5.386-2 8.998-2 14Z"/><path fill="#1E9D58" id="MOs2/3" d="M216 45h1l5-4c0-9.03-16.208-13-24-13l-2 10c5.543 0 20-.898 20 7ZM240 45h1c0-8.133 13.524-7 19-7l-2-10c-7.241 0-24 3.949-24 13l6 4Z"/><path fill="#1F9C58" id="MOp2/3" d="m285 44 2 5c-6.55 0-17.218-11-27-11l-2-10 24 2h1c0 5.766 2 8.246 2 14Z"/><path fill="#187F64" id="SSp-ll2/3" d="M171 44c-4.063 0-20.262 3.38-23.5 5l-5.5 3c0-4.241-7-7.703-7-12 0-1.36 6.258-2.379 7.5-3 8.525-4.262 20.4-7 30.5-7 0 5.386-2 8.998-2 14ZM314 52h1c0-4.24 7-8.154 7-12l-11.5-5c-7.091-3.545-19.144-5-27.5-5 0 5.766 2 8.246 2 14 4.488 0 19.908 3.204 23.5 5l5.5 3Z"/><path fill="#197E64" id="SSp-ul1" d="M112 51h1l15.5-9c1.114-.557 5.5-.41 5.5-2l-2-5c-5.067 0-11.119 4.81-15.5 7l-5.5 3 1 6ZM345 45l-1 5c-7.818 0-14.252-10-22-10l3-5c3.338 0 13.597 5.097 16 7.5 1.053 1.053 4 .047 4 2.5Z"/><path fill="#1E9C5A" id="MOp5" d="M191 55c-8.429 0-15.682 11-24 11 0-5.898 2-10.089 2-16l1-1c5.423 0 16.92-11 26-11 0 5.813-5 10.704-5 16v1Z"/><path fill="#1F9D58" id="MOs5" d="M191 54c1.806 0 14-3.436 14 1l11-10c0-7.898-14.457-7-20-7 0 5.813-5 10.704-5 16Z"/><path fill="#3EA665" id="ACAd1" d="M233 63c-3.325 0-7.31 1-10 1V41c0-2.109 2.535-2 4-2 0 4.575 2.782-1 3-1l4 3c0 6.9-1 14.536-1 22Z"/><path fill="#1F9D58" id="MOs5" d="M265 54c-2.824 0-8.268-2.616-11.5-1l-2.5 2-10-10c0-8.133 13.524-7 19-7l5 16Z"/><path fill="#1E9C5A" id="MOp5" d="m265 54 24 12-2-16v-1c-6.55 0-17.218-11-27-11l5 16Z"/><path fill="#197F61" id="SSp-ul2/3" d="m142 52-25 11c-1.812 0-4-10.142-4-12l15.5-9c1.114-.557 5.5-.41 5.5-2h1c0 4.297 7 7.759 7 12ZM315 52l5.5 3c2.553 1.276 17.864 9 19.5 9l3-8.5c.764-1.528-.206-4.5 1-4.5v-1c-7.818 0-14.252-10-22-10 0 3.846-7 7.76-7 12Z"/><path fill="#40A565" id="ACAd2/3" d="m223 64-5 1-1-20 5-4h1v23ZM233 64l6 1c0-6.573 1-14.1 1-20l-6-4c0 6.9-1 14.536-1 22v1Z"/><path fill="#1C7F64" id="SSp-ll4" d="m142 52 4 6c8.307 0 15.195-8 23-8l1-1 1-5c-4.063 0-20.262 3.38-23.5 5l-5.5 3ZM310 59h1c0-3.047 3-4.462 3-7l-5.5-3c-3.592-1.796-19.012-5-23.5-5l2 5v1c5.077 0 12.035 4.768 16.5 7 1.3.65 6.5.007 6.5 2Z"/><path fill="#1B8062" id="SSp-un1" d="M98 52c0 1.564 1 3.876 1 6 4.392 0 8.377-7 13-7l-1-6c-2.033 0-13 5.271-13 7Z"/><path fill="#3EA566" id="ACAd5" d="M218 65c-3.774 0-7.636 6-11 6 0-2.677.09-15-2-15v-1l11-10h1l1 20ZM239 65l10 6c0-5.166 2-10.28 2-15v-1l-10-10h-1c0 5.9-1 13.427-1 20Z"/><path fill="#1B8062" id="SSp-un1" d="m358 52-1 5-13-6v-1l1-5c2.07 0 13 4.97 13 7Z"/><path fill="#197C63" id="SSp-ll5" d="M152 71h1l14-5c0-5.898 2-10.089 2-16-7.805 0-14.693 8-23 8v1c1.791 0 6 10.207 6 12ZM304 71h1c0-4.463 5-8.333 5-12 0-1.993-5.2-1.35-6.5-2-4.465-2.232-11.423-7-16.5-7l2 16 15 5Z"/><path fill="#1C7F63" id="SSp-un2/3" d="M95 67c0 2.618 4 3.094 4 5 6.071 0 11.317-8 17-8l1-1c-1.812 0-4-10.142-4-12h-1c-4.623 0-8.608 7-13 7v1c0 5.555-4 7.891-4 8ZM357 73h1l3-6c-2.291 0-5.105-8-3-8l-1-2-13-6c-1.206 0-.236 2.972-1 4.5l-3 8.5 17 9Z"/><path fill="#188060" id="SSp-bfd1" d="M89 64h2c0-2.449 6.154-5 8-5v-1c0-2.124-1-4.436-1-6-1.956 0-13 7.133-13 9l4 3Z"/><path fill="#1A7F63" id="SSp-ul4" d="M116 64c0 .698 2.714 7 3 7 9.52 0 17.216-12 27-12v-1l-4-6-25 11-1 1ZM337 72h1l2-8c-1.636 0-16.947-7.724-19.5-9l-5.5-3h-1c0 2.538-3 3.953-3 7l26 13Z"/><path fill="#188060" id="SSp-bfd1" d="M371 61c0 2.25-2.399 2-5 2l-8-4-1-2 1-5c2.223 0 13 6.382 13 9Z"/><path fill="#1D9C5A" id="MOs6a" d="M194 75c-2.124 0-4.436 1-6 1 0-7.777 3-14.853 3-21v-1c1.806 0 14-3.436 14 1v1c0 3.147-11 13.212-11 19ZM262 75c2.124 0 4.436 1 6 1 0-1.553 2.245-5.01 1-7.5L265 54c-2.824 0-8.268-2.616-11.5-1l-2.5 2v1c2.134 0 11 15.883 11 19Z"/><path fill="#1F9B5A" id="MOp6a" d="M268 76c7.272 0 14.322 7 22 7 0-6.173-1-12.282-1-17l-24-12 4 14.5c1.245 2.49-1 5.947-1 7.5ZM188 77c-7.838 0-14.787 7-22 7 0-5.36 1-12.004 1-18 8.318 0 15.571-11 24-11 0 6.147-3 13.223-3 21v1Z"/><path fill="#3FA664" id="ACAd6a" d="m194 75 5 3c3.185 0 5.044-6 8-6v-1c0-2.677.09-15-2-15 0 3.147-11 13.212-11 19ZM257 79h1l1-1 1-1 2-2c0-3.117-8.866-19-11-19 0 4.72-2 9.834-2 15l8 8Z"/><path fill="#187F63" id="SSp-bfd2/3" d="m91 64 4 3c0-.109 4-2.445 4-8-1.846 0-8 2.551-8 5Z"/><path fill="#187E62" id="SSp-ul5" d="m119 72 4 11c6.85 0 21.569-12 29-12 0-1.793-4.209-12-6-12-9.784 0-17.48 12-27 12v1ZM337 72l-4 11-22-9.5c-1.159-1.16-6-.11-6-2.5 0-4.463 5-8.333 5-12h1l26 13Z"/><path fill="#187F63" id="SSp-bfd2/3" d="m366 64-5 3c-2.291 0-5.105-8-3-8l8 4v1Z"/><path fill="#197E63" id="SSp-n1" d="m49 107 5 3c0-7.11 16.227-28.727 22-34.5 2.328-2.328 13-7.874 13-11.5l-4-3c-3.562 0-5.854 6.177-9.5 8C68.102 72.7 49 99.413 49 107ZM402 110h1l4-3c0-10.162-16.007-28.507-23.5-36-2.822-2.822-8.61-10-12.5-10 0 2.25-2.399 2-5 2v1l12 9.5c7.404 7.404 24 27.075 24 36.5Z"/><path fill="#40A664" id="ACAv1" d="M222 95h1c0-2.83 4-4.54 4-7 0-4.252 2-4.466 2 0 2.778 0 3.325 7 5 7 0-9.935-1-20.513-1-31v-1c-3.325 0-7.31 1-10 1 0 10.355-1 21.268-1 31Z"/><path fill="#1B7F64" id="SSp-n2/3" d="m54 111 8 4c1.999 0 5.996-12.491 7-14.5C73.599 91.303 87.771 73 99 73v-1c0-1.906-4-2.382-4-5l-4-3h-2c0 3.626-10.672 9.172-13 11.5-5.773 5.773-22 27.39-22 34.5v1Z"/><path fill="#197E61" id="SSp-un4" d="M105 80h1c0-1.629 11.12-8 13-8v-1c-.286 0-3-6.302-3-7-5.683 0-10.929 8-17 8v1l6 7Z"/><path fill="#3FA566" id="ACAv2/3" d="M222 95c0 1.577-1.762 2-3 2 0-9.91-1-21.42-1-32l5-1c0 10.355-1 21.268-1 31ZM234 95l4 2 1-32-6-1c0 10.487 1 21.065 1 31Z"/><path fill="#197E61" id="SSp-un4" d="m357 73-6 7-13-8 2-8 17 9Z"/><path fill="#1B7F64" id="SSp-n2/3" d="M402 110c0 1.729-6.051 5-8 5-1.402 0-5.121-11.742-6-13.5-4.178-8.357-20.097-28.5-30-28.5l3-6 5-3 12 9.5c7.404 7.404 24 27.075 24 36.5Z"/><path fill="#3EA666" id="ACAv5" d="M211 95c0 2.488 6.101 2 8 2 0-9.91-1-21.42-1-32-3.774 0-7.636 6-11 6v1c0 7.937 4 17.79 4 23ZM246 95c-2.338 0-4.862 2-8 2l1-32 10 6c0 8.69-3 16.173-3 24Z"/><path fill="#1A7F64" id="SSp-ll6a" d="M158 87h1c0-1.43 5.655-3 7-3 0-5.36 1-12.004 1-18l-14 5c0 5.661 5 10.398 5 16ZM298 87h1c0-5.844 5-10.791 5-16l-15-5c0 4.718 1 10.827 1 17v1c3.119 0 5.616 3 8 3Z"/><path fill="#197D61" id="SSp-ul6a" d="m136 97-7 2-6-15v-1c6.85 0 21.569-12 29-12h1c0 5.661 5 10.398 5 16-1.238 0-3 .423-3 2l-14.5 6c-.93.465-4.5.817-4.5 2Z"/><path fill="#40A564" id="ACAv6a" d="M246 95h1l1-2 9-12v-2l-8-8c0 8.69-3 16.173-3 24Z"/><path fill="#197D61" id="SSp-ul6a" d="M299 87c3.471 0 22.174 12 28 12 1.159 0 6-13.278 6-15v-1l-22-9.5c-1.159-1.16-6-.11-6-2.5h-1c0 5.209-5 10.156-5 16Z"/><path fill="#197D62" id="SSp-un5" d="M112 89h1l10-5v-1l-4-11c-1.88 0-13 6.371-13 8 0 3.624 6 5.274 6 9Z"/><path fill="#40A564" id="ACAv6a" d="M209 95h2c0-5.21-4-15.063-4-23-2.956 0-4.815 6-8 6v1c0 5.109 9 9.105 9 14l1 2Z"/><path fill="#197D62" id="SSp-un5" d="m333 84 11 5c0-1.518 5.218-8 7-8v-1l-13-8h-1l-4 11v1Z"/><path fill="#1A8062" id="SSp-n4" d="M62 116c3.267 0 4.435 4 7 4 0-5.662 19.125-29.313 22.5-31l13.5-9-6-7c-11.229 0-25.401 18.303-30 27.5-1.004 2.009-5.001 14.5-7 14.5v1ZM387 120h1c3.103 0 2.749-4 6-4v-1c-1.402 0-5.121-11.742-6-13.5-4.178-8.357-20.097-28.5-30-28.5h-1l-6 7v1c9.219 0 36 29.775 36 39Z"/><path fill="#1E9C58" id="MOs6b" d="m194 76-6 1v-1c1.564 0 3.876-1 6-1v1Z"/><path fill="#3FA466" id="ACAd6b" d="M198 79h1v-1l-5-3v1l4 3ZM262 76l-2 1 2-2v1Z"/><path fill="#1E9C58" id="MOs6b" d="M268 76v1l-6-1v-1c2.124 0 4.436 1 6 1Z"/><path fill="#CACCC7" id="cing" d="m208 93 1 2c-7.435 0-12.241-9.87-18.5-13-6.608-3.304-15.522 5-21.5 5h-6l3-2c5.428 0 11.85-3.675 16.5-6 1.319-.66 5.5.334 5.5-2l6-1 4 3c0 2.73 6.376 14 10 14ZM248 93l-1 2c7.868 0 13.069-9.785 19.5-13 6.356-3.178 14.784 5 20.5 5h7l-4-2-22-8-6-1-2 1-1 1v1l-2 2c0 3.228-5.886 12-9 12Z"/><path fill="#1D9D5A" id="MOp6b" d="M290 84v1l-22-8v-1c7.272 0 14.322 7 22 7v1ZM166 84v1c5.428 0 11.85-3.675 16.5-6 1.319-.66 5.5.334 5.5-2-7.838 0-14.787 7-22 7Z"/><path fill="#3FA466" id="ACAd6b" d="m260 77-1 1 1-1ZM258 79h1v-1l-1 1Z"/><path fill="#40A465" id="ACAv6b" d="M199 79c0 5.109 9 9.105 9 14-3.624 0-10-11.27-10-14h1ZM259 79l-2 2v-2h2Z"/><path fill="#197E62" id="SSp-n5" d="M77 127h1c0-7.356 14.228-26.364 21.5-30 2.204-1.102 12.5-4.975 12.5-8 0-3.726-6-5.376-6-9h-1l-13.5 9C88.125 90.688 69 114.338 69 120l8 7Z"/><path fill="#40A465" id="ACAv6b" d="m257 81-9 12c3.114 0 9-8.772 9-12Z"/><path fill="#197E62" id="SSp-n5" d="M387 120c0 1.803-6.495 6-8 6l-6-11.5c-3.046-6.093-22.039-24.5-29-24.5v-1c0-1.518 5.218-8 7-8 9.219 0 36 29.775 36 39Z"/><path fill="#C9C7C9" id="ccb" d="M369 151c0 5.536 5 10.327 5 16-1.998 0-2.337-5.174-3-6.5-3.844-7.688-8.131-15.262-12-23-8.003-16.005-27.22-27.36-41.5-34.5-5.511-2.756-13.565-1-19.5-1l-5.5-6-11-4c-1.567-.784-12.5-.194-12.5 1h-2l-1 1h-1l-1 1c-2.031 0-11 4.41-11 7-3.787 0-7.613 1-12 1h-26c-4.527 0-8.002-1-12-1 0-3.786-12.998-9-16-9 0-1.194-10.933-1.784-12.5-1l-12 5-3.5 5c-10.762 0-19.918.209-29.5 5-6.639 3.319-14.616 13.808-19 16-3.203 1.601-9.248 7.996-11.5 12.5-1.645 3.29-11.053 22.053-12.5 23.5l-3.5 7c0-5.765 5-10.661 5-16l1-2v-1l1-2 1-2 2-4 1-2 1-2c1.577 0 2-1.762 2-3 1.577 0 2-1.762 2-3 1.811 0 4-3.438 4-5l1-1 1-1 1-1 8.5-8c5.506-5.506 12.482-8.741 19-12 7.895-3.947 18.43-5.215 28-10l7.5-4c5.978 0 14.892-8.304 21.5-5 6.259 3.13 11.065 13 18.5 13h2c0 2.488 6.101 2 8 2 1.238 0 3-.423 3-2h1c0 4.781 4.846 0 5.5 0 .526 0 5.5 3.998 5.5 0l4 2c3.138 0 5.662-2 8-2h1c7.868 0 13.069-9.785 19.5-13 6.356-3.178 14.784 5 20.5 5 0 2.477 10.541 5.02 12.5 6 11.256 5.628 23.675 8.338 35 14 6.572 3.286 21.416 18.333 24.5 24.5.897 1.794 7.097 14.5 8 14.5v1l2 4Z"/><path fill="#1A7F61" id="SSp-un6a" d="M121 103h2c0-2.109 2.535-2 4-2l2-1v-1l-6-15-10 5 8 14Z"/><path fill="#197F62" id="SSp-ll6b" d="m163 87-4 1v-1c0-1.43 5.655-3 7-3v1l-3 2ZM298 87v1l-4-1-4-2v-1c3.119 0 5.616 3 8 3Z"/><path fill="#1A7F61" id="SSp-un6a" d="m327 100 8 3c3.605 0 5.023-13 9-13v-1l-11-5c0 1.722-4.841 15-6 15v1Z"/><path fill="#1C8064" id="SSp-ul6b" d="m159 88-4 1c0-1.577 1.762-2 3-2h1v1Z"/><path fill="#C9C9CA" id="scwm" d="M106 119v2l8.5-8c5.506-5.506 12.482-8.741 19-12 7.895-3.947 18.43-5.215 28-10l7.5-4h-6l-4 1-4 1c0 2.745-16.133 8-19 8 0 .994-5.757 4-7 4h-2c0 2.109-2.535 2-4 2l-2 2c0 1.577-1.762 2-3 2l-12 12ZM364 138l3 8c-.903 0-7.103-12.706-8-14.5-3.084-6.167-17.928-21.214-24.5-24.5-11.325-5.662-23.744-8.372-35-14-1.959-.98-12.5-3.523-12.5-6h7l4 1c0 1.325 5.361 2.43 6.5 3 2.349 1.174 21.454 10 22.5 10l8 4 14 12.5c2.145 4.291 8.328 12.328 11.5 15.5l3.5 5Z"/><path fill="#1C8064" id="SSp-ul6b" d="M327 100v1c-1.046 0-20.151-8.826-22.5-10-1.139-.57-6.5-1.675-6.5-3v-1h1c3.471 0 22.174 12 28 12v1Z"/><path fill="#7ED04B" id="IG" d="M223 95c0 4.781 4.846 0 5.5 0 .526 0 5.5 3.998 5.5 0-1.675 0-2.222-7-5-7 0 1.93-1.161 0-2 0 0 2.46-4 4.17-4 7Z"/><path fill="#187D62" id="SSp-n6a" d="m95 133-4 4c-5.472 0-8.096-10-13-10 0-7.356 14.228-26.364 21.5-30 2.204-1.102 12.5-4.975 12.5-8h1l8 14v1l-3 3c-3.009 0-12 8.991-12 12-2.728 0-7 5.589-7 8-2.177 0-4 4.336-4 6Z"/><path fill="#1C8064" id="SSp-ul6b" d="m155 89-14.5 6c-.93.465-4.5.817-4.5 2 2.867 0 19-5.255 19-8Z"/><path fill="#187D62" id="SSp-n6a" d="M365 138h1c0-2.203 11.072-11 13-11v-1l-6-11.5c-3.046-6.093-22.039-24.5-29-24.5-3.977 0-5.395 13-9 13v1c2.863 0 6.449 4.949 8.5 7 5.399 5.399 21.5 20.37 21.5 27Z"/><path fill="#AAA8A9" id="SEZ" d="m159 102 4 2c0-10.485 14.299-11 24-11 0-1.194-10.933-1.784-12.5-1l-12 5-3.5 5ZM298 102c0 1.014-3.959 2-5 2l1-3.5c-3.968-7.936-17.215-7.5-25-7.5 0-1.194 10.933-1.784 12.5-1l11 4 5.5 6Z"/><path fill="#A8AAAA" id="VL" fill-rule="evenodd" d="M193 101c0 6.595-12.884 18.269-16 24.5-.963 1.926 1.162 7.5 3.5 7.5 7.511 0 29.231-32 12.5-32m-17 43h1c0-4.75 10.736-11.236 14-14.5 1.705-1.705 2.865-4.5 5-4.5 0-8.186 7-14.945 7-23 0-3.786-12.998-9-16-9-9.701 0-24 .515-24 11 0 1.575 8.556 11.612 10 14.5 3.71 7.421 3 16.539 3 25.5Z"/><path fill="#AAA8A9" id="SEZ" d="m267 93-1 1 1-1Z"/><path fill="#A8AAAA" id="VL" fill-rule="evenodd" d="M259 101c0 2.617-3.646 5.208-2 8.5 2.872 5.744 6.11 14.805 11.5 17.5 2.347 1.173 7.367 9.766 10.5 3.5v-6l-7-8c-1.827-3.654-5.523-13.512-9.5-15.5H259m20 43h1c0-7.805-.283-17.934 3-24.5l10-15.5 1-3.5c-3.968-7.936-17.215-7.5-25-7.5h-2l-1 1h-1l-1 1c-2.031 0-11 4.41-11 7 0 7.533 7 14.089 7 22 1.466 0 19 18.781 19 20Z"/><path fill="#AAA8A9" id="SEZ" d="m265 94-1 1 1-1Z"/><path fill="#1C8064" id="SSp-ul6b" d="M129 100v1c1.243 0 7-3.006 7-4l-7 2v1Z"/><path fill="#1A7D63" id="SSp-un6b" d="M127 101h2v-1l-2 1ZM335 104v1l-8-4v-1l8 3v1ZM127 101c-1.465 0-4-.109-4 2 1.465 0 4 .109 4-2Z"/><path fill="#98D5F9" id="CP" d="m129 230-7 3c-1.737 0-10 .516-10 2-6.235 0-14.453-10.406-17-15.5-.728-1.456-1.87-7.5-4-7.5v-1l-4-8v-1l-2-4v-1l-2-4v-1c0-5.672-2-10.95-2-17v-4l1-1v-1c1.473 0 1-1.952 1-3l3.5-7c1.447-1.447 10.855-20.21 12.5-23.5 2.252-4.504 8.297-10.899 11.5-12.5 4.384-2.192 12.361-12.681 19-16 9.582-4.791 18.738-5 29.5-5l4 2c0 1.575 8.556 11.612 10 14.5 3.71 7.421 3 16.539 3 25.5v2c0 6.289-6.423 8.538-11.5 6-.935-.468-5.5-1.9-5.5 0l-1 1-1 2c-1.698 0-3 10.247-3 12l-5 6.5c-4.867 9.734-6 19.706-6 31.5v4c-2.261 0-.297 6.094-1 7.5-.628 1.256-4 6.518-4 7.5l-1 1c-3.205 0-5.091 5-8 5Z"/><path fill="#A9AAA8" id="chpl" d="M193 101c0 6.595-12.884 18.269-16 24.5-.963 1.926 1.162 7.5 3.5 7.5 7.511 0 29.231-32 12.5-32Z"/><path fill="#90CBEC" id="LSc" d="M196 125h11c0-.941 13-11.902 13-17l-1-2-4-3c-4.527 0-8.002-1-12-1 0 8.055-7 14.814-7 23ZM260 124c0 4.034-9.052 1-11 1 0-1.69-12-11.062-12-17v-2l1-1 3-2c4.387 0 8.213-1 12-1 0 7.533 7 14.089 7 22Z"/><path fill="#A9AAA8" id="chpl" d="M259 101c0 2.617-3.646 5.208-2 8.5 2.872 5.744 6.11 14.805 11.5 17.5 2.347 1.173 7.367 9.766 10.5 3.5v-6l-7-8c-1.827-3.654-5.523-13.512-9.5-15.5H259Z"/><path fill="#98D5F9" id="CP" d="m353 231-9 4c0-1.951-2.454-.477-3.5-1-1.301-.65-12.64-4-13.5-4 0-1.222-6.549-5-8-5l-4-5.5c-1.003-2.005.056-4.888-1-7-.743-1.487 1.308-8.5-1-8.5 0-7.658 1.206-18.088-2-24.5-1.503-3.007-8-9.364-8-12.5 0-1.547-2.573-13-4-13v-1c0-4.302-11.444 1.528-14.5 0-2.502-1.251-3.612-9-4.5-9 0-7.805-.283-17.934 3-24.5l10-15.5c1.041 0 5-.986 5-2 5.935 0 13.989-1.756 19.5 1 14.28 7.14 33.497 18.495 41.5 34.5 3.869 7.738 8.156 15.312 12 23 .663 1.326 1.002 6.5 3 6.5v1l1 2v17c-1.353 0-2 4.643-2 6v1l-1 2-1 2v1l-1 2-1 2v1c-2.109 0-2 2.535-2 4-2.109 0-2 2.535-2 4v1c-2.109 0-2 2.535-2 4l-1 2-1 2c-1.577 0-2 1.762-2 3-1.811 0-4 3.438-4 5-1.747 0-2 .253-2 2Z"/><path fill="#CBC8CC" id="df" d="M221 107h15l1-1 1-1 3-2h-26l4 3 2 1Z"/><path fill="#1A7D63" id="SSp-un6b" d="M121 104v1l2-2h-2v1Z"/><path fill="#1B7E64" id="SSp-n6b" d="M121 105c0 1.577-1.762 2-3 2l3-3v1ZM364 138h1c0-6.63-16.101-21.601-21.5-27-2.051-2.051-5.637-7-8.5-7v1l14 12.5c2.145 4.291 8.328 12.328 11.5 15.5l3.5 5Z"/><path fill="#97D6F9" id="STR" d="m238 105-1 1 1-1ZM221 107l-1 1-1-2 2 1Z"/><path fill="#8FCBEC" id="SF" fill-rule="evenodd" d="M227 114c0 2.144-4.262.381-5.5 1-2.361 1.181-11.627 12.246-9.5 16.5 1.173 2.347 22.15 1.5 26 1.5 2.151 0 5.843.815 7-1.5 1.517-3.035-7.489-14.994-10.5-16.5l-7.5-1m21 29h1c2.729 0 1-.423 1-2 0-2.128-1.054-5.608-2-7.5l1-8.5c0-1.69-12-11.062-12-17l-1-1h-15l-1 1c0 5.098-13 16.059-13 17l2 5.5c-1.359 2.719-2 6.26-2 9.5l-1 1 1 2h2v-1c0-7.01 38-7.538 38 0l1 1Z"/><path fill="#97D6F9" id="STR" d="m236 107 1 1v-2l-1 1Z"/><path fill="#1A7E62" id="SSs1" d="M35 175h4c0-16.232 2.194-34.889 9-48.5.992-1.984 4.396-15.5 6-15.5v-1l-5-3c0 1.75-8.617 23.734-10 26.5-4.075 8.15-4 30.877-4 41.5Z"/><path fill="#1B7E64" id="SSp-n6b" d="M118 107c-3.009 0-12 8.991-12 12l12-12Z"/><path fill="#1A7E62" id="SSs1" d="M417 175h5c0-17.546-1.646-37.792-9-52.5-1.028-2.056-4.121-15.5-6-15.5l-4 3c0 6.368 5.206 15.912 8 21.5 4.583 9.166 6 31.856 6 43.5Z"/><path fill="#1B8063" id="SSs2/3" d="M409 175h8c0-11.644-1.417-34.334-6-43.5-2.794-5.588-8-15.132-8-21.5h-1c0 1.729-6.051 5-8 5v1c2.094 0 4.054 11.608 5 13.5 6.508 13.017 10 29.908 10 45.5ZM39 175h8c0-9.279 4.345-33.191 8-40.5l7-18.5v-1l-8-4c-1.604 0-5.008 13.516-6 15.5-6.806 13.611-9 32.268-9 48.5Z"/><path fill="#96A7D2" id="TRS" d="M227 114c0 2.144-4.262.381-5.5 1-2.361 1.181-11.627 12.246-9.5 16.5 1.173 2.347 22.15 1.5 26 1.5 2.151 0 5.843.815 7-1.5 1.517-3.035-7.489-14.994-10.5-16.5l-7.5-1Z"/><path fill="#187C63" id="SSs4" d="M47 175h6c0-12.165 2.823-29.145 8-39.5l8-15.5c-2.565 0-3.733-4-7-4l-7 18.5c-3.655 7.309-8 31.221-8 40.5ZM403 175h6c0-15.592-3.492-32.483-10-45.5-.946-1.892-2.906-13.5-5-13.5-3.251 0-2.897 4-6 4l9 19.5c4.011 8.021 6 25.753 6 35.5Z"/><path fill="#1B7E64" id="SSp-n6b" d="M103 124c-2.618 0-1.651 3-4 3 0-2.411 4.272-8 7-8v2l-1 1-1 1-1 1Z"/><path fill="#1C8063" id="SSs5" d="M53 175h12c0-9.164 4.383-32.266 8-39.5l4-8.5-8-7-8 15.5c-5.177 10.355-8 27.335-8 39.5ZM391 175h12c0-9.747-1.989-27.479-6-35.5l-9-19.5h-1c0 1.803-6.495 6-8 6v1c0 3.463 4.371 11.243 6 14.5 4.168 8.335 6 23.304 6 33.5Z"/><path fill="#C9C9CA" id="scwm" d="m106 121-1 1 1-1ZM105 122l-1 1 1-1ZM104 123l-1 1 1-1ZM99 127v2c1.811 0 4-3.438 4-5-2.618 0-1.651 3-4 3Z"/><path fill="#CBC8CB" id="fi" d="m279 147-3.5 4c-3.875 1.937-7.642 0-11.5 0 0-1.315-8.583-6-10-6l-4-4c0-2.128-1.054-5.608-2-7.5l1-8.5c1.948 0 11 3.034 11-1 1.466 0 19 18.781 19 20v3ZM193 150l-1 1c-5.135 0-15 1.842-15-7 0-4.75 10.736-11.236 14-14.5 1.705-1.705 2.865-4.5 5-4.5h11l2 5.5c-1.359 2.719-2 6.26-2 9.5l-1 1-4 4-9 5Z"/><path fill="#197D63" id="SSs6a" d="M65 175h14c0-6.264 5.22-22.941 8-28.5l4-8.5v-1c-5.472 0-8.096-10-13-10h-1l-4 8.5c-3.617 7.234-8 30.336-8 39.5Z"/><path fill="#1B7E64" id="SSp-n6b" d="m97 132-2 1c0-1.664 1.823-6 4-6v2c-1.577 0-2 1.762-2 3Z"/><path fill="#197D63" id="SSs6a" d="M391 175c-4.964 0-10.739 1-14 1 0-12.966-11-29.223-11-38 0-2.203 11.072-11 13-11 0 3.463 4.371 11.243 6 14.5 4.168 8.335 6 23.304 6 33.5Z"/><path fill="#C9C9CA" id="scwm" d="M99 129c-1.577 0-2 1.762-2 3 1.577 0 2-1.762 2-3ZM95 133v2c1.577 0 2-1.762 2-3l-2 1Z"/><path fill="#1B7E64" id="SSp-n6b" d="M92 138h1l1-1 1-2v-2l-4 4v1h1Z"/><path fill="#C9C9CA" id="scwm" d="m95 135-1 2 1-2ZM93 138v1l1-2-1 1Z"/><path fill="#C8C9C9" id="vhc" d="M244 142h3c0-7.538-38-7.01-38 0h3l8-1h16l8 1Z"/><path fill="#1A8061" id="SSs6b" d="M79 176h1l1-1v-4l1-1v-1c0-1.048-.473-3 1-3 0-5.765 5-10.661 5-16l1-2v-1l1-2 1-2 1-4v-1h-1l-4 8.5c-2.78 5.559-8 22.236-8 28.5v1Z"/><path fill="#188064" id="SSp-m6b" d="M92 139h1v-1h-1v1Z"/><path fill="#1A8061" id="SSs6b" d="M376 176h1c0-12.966-11-29.223-11-38h-2l3 8v1l2 4c0 5.536 5 10.327 5 16v1l1 2v4l1 2Z"/><path fill="#C9C9CA" id="scwm" d="m93 139-2 4 1-4h1Z"/><path fill="#A8A9AA" id="V3" d="M215 166h27l2-1c4.759 0 8.057-3 13-3l6-2 1-1v-8c0-1.315-8.583-6-10-6-1.424 0-5-.362-5-2h-1c-1.145 0-4 .579-4-1l-8-1v2c0 5.605-15 5.709-15 1-1.473 0-1-1.952-1-3l-8 1c0 1.473-1.952 1-3 1h-2c0 1.638-3.576 2-5 2l-9 5v9c0 1.89 4.598 3 6 3 4.798 0 8.617 3 13 3l3 1Z"/><path fill="#C9C9CA" id="scwm" d="m91 143-1 2 1-2Z"/><path fill="#FF5347" id="SFO" d="M236 143c-2.909 0-7.039 3.23-9.5 2-.559-.279-5.5-4.333-5.5-1 0 4.709 15 4.605 15-1Z"/><path fill="#97D6F9" id="STR" d="m290 159-1 1-2-1c0-5.296-2.639-4-6-4l-1-1-1-7c1.473 0 1-1.952 1-3 .888 0 1.998 7.749 4.5 9 3.056 1.528 14.5-4.302 14.5 0-9.339 0-7.252 6-9 6Z"/><path fill="#C9C9CA" id="scwm" d="m90 145-1 2 1-2Z"/><path fill="#97D6F9" id="STR" d="m170 158-3 1c-1.877 0-3.101-7-8-7 0-1.9 4.565-.468 5.5 0 5.077 2.538 11.5.289 11.5-6 2.798 0 0 7.178 0 8l-1 1c-2.904 0-5-2.055-5 3Z"/><path fill="#C9C9CA" id="scwm" d="m367 147 2 4-2-4ZM89 148l-1 2 1-2Z"/><path fill="#A8AAAA" id="VL" d="M192 159h1v-8h-1v8Z"/><path fill="#97D6F9" id="STR" d="m159 152-1 1 1-1Z"/><path fill="#CCC" d="M170 193v1c1.788 0 1 11.092 1 13l.5 4c1.847 0 2.764-12.028 3.5-13.5 3.152-6.305.837-21.326-2-27-1.821-3.642-6-7.209-6-11.5-1.877 0-3.101-7-8-7l-1 1-1 2v12c0 2.953 10 11.502 10 17l1 1v1l1 2v2c1.473 0 1 1.952 1 3ZM287 191c-1.643 0-1 3.765-1 5-2.575 0 .26 14-1.5 14l-1.5-6.5c-5.679-11.357 0-21.034 0-32.5l1-2 1-2c1.948 0 4-5.428 4-7l1-1c1.748 0-.339-6 9-6v1c0 4.077 1 8.431 1 13-1.946 0-10 12.674-10 15l-1 1v2l-1 2v1l-1 1v2Z"/><path fill="#A8AAAA" id="VL" d="M264 153c1.566 0 1.566 5 0 5v-5Z"/><path fill="#C8CBC7" id="st" d="M178 178v1c1.638 0 2-3.576 2-5l1-8.5-2-5.5v-1l-4-4c-2.904 0-5-2.055-5 3v4l1 1v2l1 1 3 7 2 2v2l1 1Z"/><path fill="#CAC7CB" id="fiber tracts" d="m175 155 4 4c0-1.766-.607-5-3-5l-1 1ZM277 159h1l3-4-1-1c-1.803 0-3 3.592-3 5Z"/><path fill="#C8CBC7" id="st" d="m279 178-1 1c-3.632 0-1-16.85-1-19l1-1 3-4c3.361 0 6-1.296 6 4v2l-1 1v1l-1 2v2l-1 2-1 2c-1.577 0-2 1.762-2 3l-1 1-1 1v2Z"/><path fill="#97D6F9" id="STR" d="M300 167h3c0-1.547-2.573-13-4-13 0 4.077 1 8.431 1 13ZM154 167h3v-12c-1.698 0-3 10.247-3 12Z"/><path fill="#FD909E" id="AV" d="m186 166 1 1 4.5 4c2.613 1.306 5.806-1.887 4.5-4.5-1.66-3.321-8-5.595-8-9.5l-2.5-2c-9.184-4.592-.5 8.819-.5 9l1 2ZM270 166l-3 4-3 1c-9.537 0 3-9.989 3-12l1-1c0-2.48 6.882-4.736 8-2.5l-3 7.5-1 1-1 1-1 1Z"/><path fill="#FF6F80" id="TH" d="M193 179h1c1.951 0 .477-2.454 1-3.5 2.035-4.071 4-8.63 4-13.5-1.402 0-6-1.11-6-3h-1l-4-2c0 3.905 6.34 6.179 8 9.5 1.306 2.613-1.887 5.806-4.5 4.5l-4.5-4c0 2.354 6 6.558 6 12Z"/><path fill="#8599CC" id="PAL" d="M163 214c7.19 0 6.006 12 8 12 0-3.026 6.353-19 8-19l1-22.5-2-5.5v-1l-1-1v-2l-2-2-3-7-1-1v-2l-1-1v-4l-3 1c0 4.291 4.179 7.858 6 11.5 2.837 5.674 5.152 20.695 2 27-.736 1.472-1.653 13.5-3.5 13.5l-.5-4c0-1.908.788-13-1-13 0 4.431.858 10.783-1 14.5l-6 5.5Z"/><path fill="#FF6F80" id="TH" d="m268 158-1 1 1-1ZM267 170c0 2.679-4 5.682-4 9-1.362 0-6-14.812-6-17l6-2 1-1h3c0 2.011-12.537 12-3 12l3-1Z"/><path fill="#B3C0DE" id="BST" d="m278 159-1 1v-1h1Z"/><path fill="#8599CC" id="PAL" d="M285 165v2c1.948 0 4-5.428 4-7l-2-1v2l-1 1v1l-1 2ZM290 159l-1 1 1-1Z"/><path fill="#B3C0DE" id="BST" d="m179 219 8 13c2.72 0 5.79 4.855 9.5 3 4.14-2.07 13.883-8.734 10.5-15.5l-5-7-1-8-3-3.5c-2.807 0-7.043-7.586-8-9.5l1-4.5v-1c0-1.465-.109-4 2-4v-3c0-5.442-6-9.646-6-12l-1-1-1-2c-2.33 0-3.227-4-6-4l2 5.5-1 8.5c0 1.424-.362 5-2 5l2 5.5-1 22.5v12ZM269 232l-1 1c-2.395 0-5.263 3.619-8.5 2-4.763-2.382-12.95-9.6-9.5-16.5 1.089-2.177 3-2.822 3-5.5 3.038 0 1.178-5.856 2-7.5l4-4.5v-1l1-1c4.011 0 8.231-12 5-12v-2l-1-4-1-1v-1c0-3.318 4-6.321 4-9l3-4 1-1 1-1 1-1 4-3c0 2.15-2.632 19 1 19 0 2.253-.984 6.469-2 8.5l1 17.5 1 1v2c-1.422 0-1 10.166-1 11 0 4.676-8 8.788-8 13ZM287 161l-1 1 1-1ZM170 162l1 1-1-1Z"/><path fill="#CCC9C8" id="sm" d="M196 195c1.681 0 5.326 6 11 6v-10c0-3.928 2.346-24 5-24v-2c-4.383 0-8.202-3-13-3 0 4.87-1.965 9.429-4 13.5-.523 1.046.951 3.5-1 3.5l-1 2v1l-2 4v1c1.779 0 1.132 8 5 8ZM261 195c-2.554 0-6.117 6-12 6v-8c0-4.655-1.033-26-5-26v-2c4.759 0 8.057-3 13-3 0 2.188 4.638 17 6 17v2l2 4v2l-4 8Z"/><path fill="#B3C0DE" id="BST" d="m286 163-1 2 1-2ZM171 165l1 1-1-1Z"/><path fill="#FF6F80" id="TH" d="m212 167 3 1v-2l-3-1v2ZM242 167h2v-2l-2 1v1ZM271 165l-1 1 1-1Z"/><path fill="#C9C7C9" id="ccb" d="M83 166c-1.473 0-1 1.952-1 3 1.473 0 1-1.952 1-3Z"/><path fill="#FE8F9E" id="PVT" d="M219 200c4.203 0 9.006 1 13 1 1.235 0 5 .643 5-1 0-5.754-3.87-11.76-1-17.5l6-15.5v-1h-27v2l6 16.5c2.383 4.767-2 11.254-2 15.5Z"/><path fill="#8598CC" id="GPe" d="M154 217h2l2-1h1l1-1h1l2-1 6-5.5c1.858-3.717 1-10.069 1-14.5v-1c-1.473 0-1-1.952-1-3v-2l-1-2v-1l-1-1c0-5.498-10-14.047-10-17h-3l-5 6.5c-4.867 9.734-6 19.706-6 31.5 1.216 0 2.116 12 11 12Z"/><path fill="#FF909F" id="PT" d="M207 191c1.274 0 1.984 7.742 4.5 9 3.17 1.585 4.632 0 7.5 0 0-4.246 4.383-10.733 2-15.5l-6-16.5-3-1c-2.654 0-5 20.072-5 24ZM249 193c-1.154 0-2.386 5.943-4.5 7-3.17 1.585-4.632 0-7.5 0 0-5.754-3.87-11.76-1-17.5l6-15.5h2c3.967 0 5 21.345 5 26Z"/><path fill="#8599CC" id="PAL" d="m285 167-1 2 1-2Z"/><path fill="#8598CC" id="GPe" d="M300 217h3c6.026 0 9.916-10 10-10v-3c0-7.658 1.206-18.088-2-24.5-1.503-3.007-8-9.364-8-12.5h-3c-1.946 0-10 12.674-10 15l-1 1v2l-1 2v1l-1 1v2c0 1.235.643 5-1 5l2 13.5 5 4.5h1l1 1h2l1 1h1l1 1Z"/><path fill="#C9C7C9" id="ccb" d="m374 168 1 2-1-2Z"/><path fill="#8599CC" id="PAL" d="m284 169-1 2 1-2Z"/><path fill="#C9C7C9" id="ccb" d="m82 170-1 1 1-1Z"/><path fill="#8599CC" id="PAL" d="M285 226h1c0-4.222 1.995-12 7-12l-5-4.5-2-13.5c-2.575 0 .26 14-1.5 14l-1.5-6.5c-5.679-11.357 0-21.034 0-32.5-1.577 0-2 1.762-2 3l-1 1-1 1v2l-1 1c0 2.253-.984 6.469-2 8.5l1 17.5 1 1v2c1.258 0 7 14.014 7 17v1Z"/><path fill="#B3C0DE" id="BST" d="m175 173 2 2-2-2ZM281 174l-1 1 1-1Z"/><path fill="#C8CBCC" id="ec" d="m376 183-1 2v-11l1 2v7Z"/><path fill="#12AD83" id="VISC1" d="m44 199-4 1c-3.462 0-5-20.421-5-25h4c0 8.552 5 16.714 5 24Z"/><path fill="#12AC83" id="VISC2/3" d="M44 199h1l2-1 1-1 4-2v-1c0-5.567-5-11.482-5-19h-8c0 8.552 5 16.714 5 24Z"/><path fill="#11AC82" id="VISC4" d="m54 193-2 1c0-5.567-5-11.482-5-19h6c0 5.996 1 12.639 1 18Z"/><path fill="#12AD82" id="VISC5" d="M54 193h1c4.07 0 7.23-5 12-5v-1c-2.239 0-2-9.802-2-12H53c0 5.996 1 12.639 1 18Z"/><path fill="#11AC83" id="VISC6a" d="M79 183c0 1.949-9.97 4-12 4-2.239 0-2-9.802-2-12h14v8Z"/><path fill="#C8CBCC" id="ec" d="M82 192h1c0-5.672-2-10.95-2-17l-1 1v7c.689 0 2 7.178 2 8v1Z"/><path fill="#B3C0DE" id="BST" d="m280 175-1 1 1-1Z"/><path fill="#11AC83" id="VISC6a" d="M389 188h1c0-4.077 1-8.431 1-13-4.964 0-10.739 1-14 1v8c1.719 0 12 2.605 12 4Z"/><path fill="#12AD82" id="VISC5" d="M390 188c4.467 0 7.734 5 12 5l2-6.5c1.592-3.184-1-8.819-1-11.5h-12c0 4.569-1 8.923-1 13Z"/><path fill="#11AC82" id="VISC4" d="m402 193 3 1c0-6.44 4-11.605 4-19h-6c0 2.681 2.592 8.316 1 11.5l-2 6.5Z"/><path fill="#12AC83" id="VISC2/3" d="M411 199h1c0-4.986 5-14.796 5-24h-8c0 7.395-4 12.56-4 19v1l2 2 4 2Z"/><path fill="#12AD83" id="VISC1" d="m412 199 5 1c0-5.012 5-16.442 5-25h-5c0 9.204-5 19.014-5 24Z"/><path fill="#11AD82" id="VISC6b" d="M79 183h1v-7h-1v7ZM376 183h1v-7h-1v7Z"/><path fill="#B3C0DE" id="BST" d="m177 177 1 1-1-1ZM279 178l-1 1 1-1Z"/><path fill="#FF6F80" id="TH" d="M263 181h1l-1-1v1Z"/><path fill="#8599CC" id="PAL" d="m264 181 1 4-2-4h1ZM193 182c-2.109 0-2 2.535-2 4l2-4ZM290 182l-1 1 1-1Z"/><path fill="#009B74" id="GU6a" d="m78 193-9 1c0-1.974-2-3.517-2-6v-1c2.03 0 12-2.051 12-4h1c0 2.707 1 5.903 1 8l-3 2Z"/><path fill="#019C74" id="GU6b" d="M81 191h1c0-.822-1.311-8-2-8 0 2.707 1 5.903 1 8ZM375 191h1l1-7v-1h-1l-1 2v6Z"/><path fill="#8599CC" id="PAL" d="m167 184 1 1-1-1Z"/><path fill="#009B74" id="GU6a" d="M387 194h1l1-6c0-1.395-10.281-4-12-4l-1 7 2 2c3.222 0 6.277 1 9 1Z"/><path fill="#8599CC" id="PAL" d="m289 185-1 2 1-2ZM168 186l1 2-1-2ZM196 195c0 2.72 2 3.553 2 6-2.807 0-7.043-7.586-8-9.5l1-4.5c1.779 0 1.132 8 5 8ZM261 195l-1 4c4.011 0 8.231-12 5-12l-4 8Z"/><path fill="#C8CBCC" id="ec" d="m375 191-2 2c0-1.357.647-6 2-6v4Z"/><path fill="#019C75" id="GU5" d="m69 194-13 2-1-3c4.07 0 7.23-5 12-5 0 2.483 2 4.026 2 6Z"/><path fill="#8599CC" id="PAL" d="m288 188-1 1 1-1Z"/><path fill="#019C75" id="GU5" d="M388 194c3.202 0 8.649 2 13 2l1-3c-4.266 0-7.533-5-12-5h-1l-1 6Z"/><path fill="#8599CC" id="PAL" d="M169 190c1.473 0 1 1.952 1 3-1.473 0-1-1.952-1-3Z"/><path fill="#8ADA86" id="CLA" d="m86 202-1 4c-7.548 0-7-6.954-7-13l3-2h1v1l1 1 1 4 1 1v2l1 1v1Z"/><path fill="#FF6F80" id="TH" d="m236 208-3 1-1.5-1-3-3c-.713-.356-3.551 3-5.5 3h-3c0-.397-11.522-7-13-7v-10c1.274 0 1.984 7.742 4.5 9 3.17 1.585 4.632 0 7.5 0 4.203 0 9.006 1 13 1 1.235 0 5 .643 5-1 2.868 0 4.33 1.585 7.5 0 2.114-1.057 3.346-7 4.5-7v8l-3 2h-1l-9 5Z"/><path fill="#8599CC" id="PAL" d="M287 191c-1.643 0-1 3.765-1 5 1.643 0 1-3.765 1-5Z"/><path fill="#8ADA86" id="CLA" d="M371 206h1c8.246 0 6-7.822 6-13l-2-2h-1l-2 2v3l-1 1v1l-1 1v2l-1 2 1 3Z"/><path fill="#209766" id="AIp6a" d="M83 192v1l-1-1h1Z"/><path fill="#009C74" id="GU4" d="M53 196h3l-1-3h-1l-2 1v1l1 1Z"/><path fill="#209766" id="AIp6a" d="m85 206-5.5 3-1.5 3c-1.069 0-9-15.912-9-18l9-1c0 6.046-.548 13 7 13Z"/><path fill="#C8CBCC" id="ec" d="M84 197h1l-2-4 1 4Z"/><path fill="#209766" id="AIp6a" d="M378 213h1c0-6.676 8-11.955 8-19-2.723 0-5.778-1-9-1 0 5.178 2.246 13-6 13l5 3.5c.653 1.305-.003 3.5 1 3.5Z"/><path fill="#009C74" id="GU4" d="M401 196h2l2-1v-1l-3-1-1 3Z"/><path fill="#219864" id="AIp5" d="m78 213-7 3c0-2.024-15-13.008-15-20l13-2c0 2.088 7.931 18 9 18v1Z"/><path fill="#C8CBCC" id="ec" d="M372 196h1v-2l-1 2Z"/><path fill="#219864" id="AIp5" d="m379 214 6 2c2.878 0 16-17.322 16-20-4.351 0-9.798-2-13-2h-1c0 7.045-8 12.324-8 19v1Z"/><path fill="#009B75" id="GU2/3" d="M53 196c0 1.643-3.766 1-5 1l4-2 1 1Z"/><path fill="#CAC7CB" id="fiber tracts" d="m220 208-7 1c0-11.139-7.125-4-9-4l-6-4c0-2.447-2-3.28-2-6 1.681 0 5.326 6 11 6 1.478 0 13 6.603 13 7ZM246 203c2.765 0 5.165 2 7 2l5-4 1-1 1-1 1-4c-2.554 0-6.117 6-12 6l-3 2Z"/><path fill="#009B75" id="GU2/3" d="M403 196c0 1.579 2.855 1 4 1l-2-2-2 1Z"/><path fill="#209865" id="AIp2/3" d="M71 216c0 1.242-9.326 4-11 4 0-3.834-15-13.866-15-21l2-1 1-1c1.234 0 5 .643 5-1h3c0 6.992 15 17.976 15 20Z"/><path fill="#C8CBCC" id="ec" d="M371 198h1v-2l-1 2Z"/><path fill="#209766" id="AIp6a" d="m373 196-1 1v-1h1Z"/><path fill="#209865" id="AIp2/3" d="M385 216c0 1.14 9.467 4 11 4 0-3.682 15-13.747 15-21l-4-2c-1.145 0-4 .579-4-1h-2c0 2.678-13.122 20-16 20Z"/><path fill="#009B75" id="GU2/3" d="m48 197-1 1 1-1Z"/><path fill="#209766" id="AIp6a" d="M85 197v1l-1-1h1Z"/><path fill="#C8CBCC" id="ec" d="M86 202h1l-2-4v2l1 1v1Z"/><path fill="#209766" id="AIp6a" d="m372 198-1 1v-1h1Z"/><path fill="#219765" id="AIp1" d="M60 220c0 1.014-3.959 2-5 2 0-3.803-15-14.565-15-22l4-1h1c0 7.134 15 17.166 15 21Z"/><path fill="#8599CC" id="PAL" d="m260 199-1 1 1-1Z"/><path fill="#C8CBCC" id="ec" d="M370 201h1v-2l-1 2Z"/><path fill="#219765" id="AIp1" d="m396 220 5 2c0-2.599 16-15.101 16-22l-5-1h-1c0 7.253-15 17.318-15 21Z"/><path fill="#209766" id="AIp6a" d="m85 200 1 1-1-1Z"/><path fill="#8599CC" id="PAL" d="M258 201h1v-1l-1 1Z"/><path fill="#E64438" id="HY" d="M207 232c-5.403 0-10.749 6-17 6l-3-6c2.72 0 5.79 4.855 9.5 3 4.14-2.07 13.883-8.734 10.5-15.5l-5-7-1-8-3-3.5 6 4c0 1.804-2.182 5.136-1 7.5 2.711 5.421 10 3.165 10-3.5l7-1h3l4 4v2c-3.211 0-8.593-3.314-11 1.5-1.087 2.173 6.482 13.5 9 13.5 0 1.321.684 6-1 6 0-9.473-17-8.534-17-3ZM253 205v8c3.038 0 1.178-5.856 2-7.5l4-4.5h-1l-5 4Z"/><path fill="#C8CBCC" id="ec" d="M369 203h1v-2l-1 2Z"/><path fill="#209766" id="AIp6a" d="m371 201-1 2v-2h1ZM85 206l3 1-1-4v-1h-1l-1 4Z"/><path fill="#C8CBCC" id="ec" d="m88 207 3 4-4-8 1 4Z"/><path fill="#C7C8CA" id="fx" d="M204 205c1.875 0 9-7.139 9 4 0 6.665-7.289 8.921-10 3.5-1.182-2.364 1-5.696 1-7.5Z"/><path fill="#CAC7CB" id="fiber tracts" d="m236 208 7 1 2-6-9 5Z"/><path fill="#C7C8CA" id="fx" d="M243 209c0 11.009 6.152 4 10 4v-8c-1.835 0-4.235-2-7-2h-1l-2 6Z"/><path fill="#209766" id="AIp6a" d="M369 206h2l-1-3h-1v3Z"/><path fill="#97D6F9" id="STR" d="M335 249c0 1.496-3.211 9-5 9 0-3.709-5.274-14.613-10.5-12l-6.5 3v-1c0-.402 2.465-3.43 3-4.5l-1-17.5c0-6.224-2-12.152-2-19v-3c2.308 0 .257 7.013 1 8.5 1.056 2.112-.003 4.995 1 7l4 5.5-2.5-2c-1.495 0 .069 12.638.5 13.5 4.073 8.145 8.194 12.5 18 12.5Z"/><path fill="#C8CBCC" id="ec" d="m368 207-1 1c0-1.465-.109-4 2-4v2l-1 1Z"/><path fill="#8599CC" id="PAL" d="M154 217c0 1.183-3.57 1.535-4.5 2l-7.5 6 1-16v-4c1.216 0 2.116 12 11 12Z"/><path fill="#E64438" id="HY" d="m277 205 1 1-1-1Z"/><path fill="#A0EE9C" id="EPd" fill-rule="evenodd" d="M83 220c0 3.781 3.781 0 0 0m-2-3c0 3.781 3.781 0 0 0m-1-2c0 1.93 1.93 0 0 0m-1-2c0 1.93 1.93 0 0 0m12 17 7 1 1-3c0-5.132-8-10.209-8-16v-1l-3-4-3-1-5.5 3-1.5 3v1l1 4 1 1v1l1 1 1 1 1 1v1h1l1 1 1 1 1 1 1 1 2 2 1 1Z"/><path fill="#209766" id="AIp6a" d="m369 206-1 1 1-1Z"/><path fill="#A0EE9C" id="EPd" fill-rule="evenodd" d="M373 219c0 1.93 1.93 0 0 0m2-4c0 3.746 2.091 0 0 0m1-1c0 1.93 1.93 0 0 0m-11 16-2 1c-2.607 0-6 .416-6-3l1-1 1-1v-2c1.577 0 2-1.762 2-3l1-2 1-2 2-4v-1l2-4 1-1 1-1h3l5 3.5c.653 1.305-.003 3.5 1 3.5v1l-1 4-1 1h-1v2l-1 1-1 1-1 1h-1v1l-1 1-1 1-2 2h-1l-1 1Z"/><path fill="#E64438" id="HY" d="M179 219c-3.785 0-4.985 7-8 7 0-3.026 6.353-19 8-19v12Z"/><path fill="#8599CC" id="PAL" d="m303 217 5.5 3 6.5 6c0-6.224-2-12.152-2-19-.084 0-3.974 10-10 10Z"/><path fill="#E64438" id="HY" d="m268 233-1 5c-6.568 0-13.415-6-18-6 0-3.505-8.763-5.368-11.5-4l-5.5 5-1-4c4.672 0 10.062-11.376 8-15.5l-9-.5c0-1.429 1.288-4 3-4l3-1 7 1c0 11.009 6.152 4 10 4 0 2.678-1.911 3.323-3 5.5-3.45 6.9 4.737 14.118 9.5 16.5 3.237 1.619 6.105-2 8.5-2ZM277 219c3.438 0 5.108 6 8 6 0-2.986-5.742-17-7-17-1.422 0-1 10.166-1 11Z"/><path fill="#C8CBCC" id="ec" d="M367 208c-2.109 0-2 2.535-2 4l2-4Z"/><path fill="#97D6F9" id="STR" d="m142 225-1 2c0-2.747-.253-3-3-3 0-.982 3.372-6.244 4-7.5.703-1.406-1.261-7.5 1-7.5l-1 16Z"/><path fill="#A8A9AA" id="V3" d="M229 229v1c0 2.026-2-.104-2-1v-17c0-2.092 2-.652 2 1v16Z"/><path fill="#C8CBCC" id="ec" d="M113 237h1c0-1.747-.253-2-2-2-6.235 0-14.453-10.406-17-15.5-.728-1.456-1.87-7.5-4-7.5 0 5.791 8 10.868 8 16l7 7h1l1 1h1l2 1h2Z"/><path fill="#6ACAB9" id="PIR" d="m121 271-7 20.5c-.737 1.473-5 4.127-5 4.5-5.607 0-14.464-7.428-17-12.5-7.328-14.655-15.724-28.448-23-43-1.858-3.716-14-15.482-14-18.5 1.041 0 5-.986 5-2 1.674 0 11-2.758 11-4l7-3 1 4 1 1v1l1 1 1 1 1 1v1l13 14c0 2.185 11.651 14.151 14 16.5l4 4.5c0 2.566 7 6.989 7 13Z"/><path fill="#C9C8CA" id="ee" d="M79 213c0 1.93 1.93 0 0 0Z"/><path fill="#FF5D4F" id="PVH" d="M225 229h2v-15c-3.211 0-8.593-3.314-11 1.5-1.087 2.173 6.482 13.5 9 13.5Z"/><path fill="#E64438" id="HY" d="M230 213c0 1.406.714 7-1 7v-7h1Z"/><path fill="#FF5D4F" id="PVH" d="M230 229h1c4.672 0 10.062-11.376 8-15.5l-9-.5c0 1.406.714 7-1 7v9h1Z"/><path fill="#C8CBCC" id="ec" d="M365 213c-2.109 0-2 2.535-2 4l2-4Z"/><path fill="#99D2BD" id="OLF" d="M378 214h1v-1h-1v1Z"/><path fill="#8599CC" id="PAL" d="m163 214-2 1 2-1Z"/><path fill="#A2B1D7" id="SI" d="M147 248h14l6-3 3-6.5c.91-1.82 1-10.787 1-12.5-1.994 0-.81-12-8-12l-2 1h-1l-1 1h-1l-2 1h-2c0 1.183-3.57 1.535-4.5 2l-7.5 6-1 2v2c0 2.277-1.627 9.245-1 10.5.661 1.323 3 7.409 3 8.5h4ZM309 248h4c0-.402 2.465-3.43 3-4.5l-1-17.5-6.5-6-5.5-3h-3l-1-1h-1l-1-1h-2l-1-1h-1c-5.005 0-7 7.778-7 12v1c0 4.911 3 13.969 3 18l6 3c1.318 0 14-2.84 14 0Z"/><path fill="#8599CC" id="PAL" d="m294 214 1 1-1-1Z"/><path fill="#C9C8CA" id="ee" d="M376 214c0 1.93 1.93 0 0 0Z"/><path fill="#6ACAB9" id="PIR" d="M336 272c0 6.574 4.19 14.88 7 20.5l4 3.5c16.828 0 33.584-41.669 40-54.5 2.196-4.391 14-15.502 14-19.5l-5-2c-1.533 0-11-2.86-11-4l-6-2h-1l-1 4-1 1-1 1v1l-1 1-1 1-1 1-1 1-1 1-1 1c0 1.747-.253 2-2 2 0 1.763-4.012 7-6 7 0 1.201-17.529 22-19 22l-1 1-1 1-1 1v1l-1 1-1 1c0 2.882-1 5.469-1 8Z"/><path fill="#C9C8CA" id="ee" d="M80 215c0 1.93 1.93 0 0 0Z"/><path fill="#8599CC" id="PAL" d="m160 215-1 1 1-1ZM297 215l1 1-1-1Z"/><path fill="#C9C8CA" id="ee" d="M375 215c0 3.746 2.091 0 0 0Z"/><path fill="#8599CC" id="PAL" d="m158 216-2 1 2-1ZM299 216l1 1-1-1Z"/><path fill="#99D2BD" id="OLF" d="m79 217 1 1-1-1Z"/><path fill="#C9C8CA" id="ee" d="M81 217c0 3.781 3.781 0 0 0Z"/><path fill="#C8CBCC" id="ec" d="m363 217-1 2 1-2Z"/><path fill="#99D2BD" id="OLF" d="m377 218-1 1 1-1ZM80 219l1 1-1-1Z"/><path fill="#F2473B" id="LPO" d="M173 259c0 1.909 9.08 8 11 8 5.168 0 9-3.492 9-9l-3-20-3-6-8-13c-3.785 0-4.985 7-8 7 0 1.713-.09 10.68-1 12.5l-3 6.5c0 3.091 2 5.478 2 8v1l1 1 3 4ZM285 258l-12 9c-5.824 0-9-3.206-9-9 0-7.184 3-13.807 3-20l1-5 1-1c0-4.212 8-8.324 8-13 3.438 0 5.108 6 8 6v1l1 1c0 4.911 3 13.969 3 18l-1 8-1 1-1 2-1 2Z"/><path fill="#C8CBCC" id="ec" d="m362 219-1 2 1-2Z"/><path fill="#C9C8CA" id="ee" d="M373 219c0 1.93 1.93 0 0 0Z"/><path fill="#99D2BD" id="OLF" d="m376 219-1 1v-1h1Z"/><path fill="#C9C8CA" id="ee" d="M83 220c0 3.781 3.781 0 0 0Z"/><path fill="#8AD987" id="CTXsp" d="m82 221 1 1-1-1Z"/><path fill="#C8CBCC" id="ec" d="M361 221c-1.577 0-2 1.762-2 3 1.577 0 2-1.762 2-3Z"/><path fill="#99D2BD" id="OLF" d="m375 221-1 1 1-1ZM374 222l-1 1 1-1ZM96 235v2l-13-14h1l1 1 1 1 1 1 1 1 2 2 1 1 5 5Z"/><path fill="#8AD987" id="CTXsp" d="m84 223 1 1-1-1Z"/><path fill="#7ECDF8" id="FS" d="M341 244c0 1.901-4.332 5-6 5-9.806 0-13.927-4.355-18-12.5-.431-.862-1.995-13.5-.5-13.5l2.5 2c1.451 0 8 3.778 8 5 0 2.855-4.419 3.661-2 8.5.848 1.696 8 6.088 8 3.5l2-1c3.145 0 3.855-4 7-4h2l-2 6-1 1Z"/><path fill="#99D2BD" id="OLF" d="m373 223-1 1 1-1Z"/><path fill="#97D6F9" id="STR" d="m138 224-1 1 1-1Z"/><path fill="#7ECDF8" id="FS" d="M131 248c-2.978 0-6.49 1-10 1-1.668 0-6-3.099-6-5 0-2.83-2-4.54-2-7h1c2.983 0 18 15.448 18-4l-3-3c2.909 0 4.795-5 8-5l1-1c2.747 0 3 .253 3 3v2c-1.564 0-1.321 8.141-2 9.5-1.171 2.342-7 6.675-7 8.5l-1 1Z"/><path fill="#C8CBCC" id="ec" d="m357 228-2 1c0-1.562 2.189-5 4-5v2l-1 1-1 1Z"/><path fill="#99D2BD" id="OLF" d="m372 224-1 1v-1h1Z"/><path fill="#8AD987" id="CTXsp" d="m86 225 1 1-1-1Z"/><path fill="#99D2BD" id="OLF" d="m371 225-1 1 1-1Z"/><path fill="#E64438" id="HY" d="M286 226v1l-1-1h1Z"/><path fill="#8AD987" id="CTXsp" d="m359 226-1 1 1-1Z"/><path fill="#99D2BD" id="OLF" d="m370 226-1 1 1-1Z"/><path fill="#8AD987" id="CTXsp" d="m88 227 2 2-2-2Z"/><path fill="#FD4C3E" id="MPN" d="M224 252c-.413 0-5.145 3-9 3l-6-3c0-1.481-2-.785-2-3l-2-5.5c-1.493-2.986 2-8.025 2-11.5 0-5.534 17-6.473 17 3v17Z"/><path fill="#8AD987" id="CTXsp" d="m358 227-1 1 1-1Z"/><path fill="#99D2BD" id="OLF" d="m369 227-2 2c1.747 0 2-.253 2-2Z"/><path fill="#8AD987" id="CTXsp" d="m106 235-1 1c0-3.427-4.183-5-7-5l1-3 7 7Z"/><path fill="#FD4C3E" id="MPN" d="m248 252-6 3h-6.5l-3.5-4v-18l5.5-5c2.737-1.368 11.5.495 11.5 4 0 2.613.93 4.36 2 6.5 1.514 3.028-1 7.882-1 10.5l-2 3Z"/><path fill="#8AD987" id="CTXsp" d="m363 231-2 3c-2.079 0-3.187-3-6-3v-2l2-1c0 3.416 3.393 3 6 3Z"/><path fill="#97D6F9" id="STR" d="m143 248 1 2c-1.186 0-5.192-3.346-6.5-4l-5.5 1c0-1.825 5.829-6.158 7-8.5.679-1.359.436-9.5 2-9.5 0 2.277-1.627 9.245-1 10.5.661 1.323 3 7.409 3 8.5Z"/><path fill="#FE5547" id="PVpo" fill-rule="evenodd" d="M230 275h1v-3c0-3.071 2-5.362 2-9 0-.986-2.515-6 0-6 0-1.564-1-3.876-1-6v-18l-1-4h-1l-1 1c0 2.026-2-.104-2-1h-2c0 1.321.684 6-1 6v21c0 1.737-1.308 8.884-1 9.5 1.07 2.14 2 3.887 2 6.5 0 1.048-.473 3 1 3h4m-2-3c-2.46 0-.422-13 .5-13l.5 13c0 1.186-1 1.186-1 0Z"/><path fill="#E64438" id="HY" d="m230 229-1 1v-1h1Z"/><path fill="#C8CBCC" id="ec" d="M354 231h1v-2c-1.747 0-2 .253-2 2h1Z"/><path fill="#8AD987" id="CTXsp" d="m366 229-1 1 1-1Z"/><path fill="#99D2BD" id="OLF" d="M361 234v2c1.988 0 6-5.237 6-7h-1l-1 1-2 1-2 3Z"/><path fill="#8AD987" id="CTXsp" d="m98 231-2 4-5-5 7 1Z"/><path fill="#97D6F9" id="STR" fill-rule="evenodd" d="m125 233-6 3.5c-1.579 3.158 3.152 3.826 4.5 4.5 4.397 2.199 11.66-8 1.5-8m-13 2c1.747 0 2 .253 2 2 2.983 0 18 15.448 18-4l-3-3-7 3c-1.737 0-10 .516-10 2Z"/><path fill="#97D6F9" id="STR" d="M335 241c0-1.791 3.27-2.959 2-5.5l-2.5-.5c-13.285-6.642-8.372 7-1.5 7 0 2.588-7.152-1.804-8-3.5-2.419-4.839 2-5.645 2-8.5.86 0 12.199 3.35 13.5 4 1.046.523 3.5-.951 3.5 1-1.747 0-2 .253-2 2-3.145 0-3.855 4-7 4Z"/><path fill="#8AD987" id="CTXsp" d="m365 230-2 1 2-1Z"/><path fill="#A0ED9D" id="EPv" d="M114 258h1c0-1.355 3.65-4.199 2-7.5-1.15-2.301-8-8.278-8-10.5l-4-4c0-3.427-4.183-5-7-5l-2 4v2c0 2.185 11.651 14.151 14 16.5l4 4.5Z"/><path fill="#C8CBCC" id="ec" d="M346 237h1l1-1 1-1h1c0-1.577 1.762-2 3-2v-2l-9 4c-1.747 0-2 .253-2 2h4Z"/><path fill="#8AD987" id="CTXsp" d="m354 231-1 2v-2h1Z"/><path fill="#A0ED9D" id="EPv" d="M341 258h1c1.471 0 19-20.799 19-22v-2c-2.079 0-3.187-3-6-3h-1l-1 2-2 2c0 2.601-1.04 5-4 5l-7 9.5c-1.975 3.95 1 5.194 1 8.5Z"/><path fill="#FF5346" id="MPO" d="m197 257-4 1-3-20c6.251 0 11.597-6 17-6 0 3.475-3.493 8.514-2 11.5l2 5.5-3 3h-1l-1 1h-1l-1 1-1 1-1 1-1 1ZM258 255c2.079 0 3.187 3 6 3 0-7.184 3-13.807 3-20-6.568 0-13.415-6-18-6 0 2.613.93 4.36 2 6.5 1.514 3.028-1 7.882-1 10.5l4 4h1l2 2h1Z"/><path fill="#E64438" id="HY" d="m269 232-1 1 1-1Z"/><path fill="#C9C9C9" id="act" d="m125 233-6 3.5c-1.579 3.158 3.152 3.826 4.5 4.5 4.397 2.199 11.66-8 1.5-8ZM335 241l-2 1c-6.872 0-11.785-13.642 1.5-7l2.5.5c1.27 2.541-2 3.709-2 5.5Z"/><path fill="#8AD987" id="CTXsp" d="M350 235h1l2-2c-1.238 0-3 .423-3 2Z"/><path fill="#80BEE2" id="IA" d="M109 240h2v-2l-2-2h-1l-1-1h-1l-1 1 4 4Z"/><path fill="#8AD987" id="CTXsp" d="m107 235 1 1-1-1ZM349 235l-1 1 1-1Z"/><path fill="#80BEE2" id="IA" d="m346 238 1 2c2.96 0 4-2.399 4-5h-2l-1 1-1 1-1 1Z"/><path fill="#8AD987" id="CTXsp" d="M111 237v1l-2-2 2 1ZM348 236l-1 1 1-1Z"/><path fill="#97D6F9" id="STR" d="m111 240 4 4c0-2.83-2-4.54-2-7h-2v3ZM346 238c-1.552 0-1.146 5-4 5l2-6h2v1Z"/><path fill="#8AD987" id="CTXsp" d="m347 237-1 1v-1h1ZM337 264l-4 2c0-4.062.306-5-4-5l1-3c1.789 0 5-7.504 5-9 1.668 0 6-3.099 6-5l1-1c2.854 0 2.448-5 4-5l1 2-7 9.5c-1.975 3.95 1 5.194 1 8.5v1l-1 1-1 1v1l-1 1-1 1ZM127 261c-4.528 0-3 2.265-3 5-1.852 0-9-5.903-9-8 0-1.355 3.65-4.199 2-7.5-1.15-2.301-8-8.278-8-10.5h2l4 4c0 1.901 4.332 5 6 5 0 1.519 4.161 10 6 10v2Z"/><path fill="#97D6F9" id="STR" d="m335 241-2 1 2-1ZM342 243l-1 1 1-1Z"/><path fill="#8599CC" id="PAL" d="M161 248c0 .81 6.749 5 8 5 0-2.522-2-4.909-2-8l-6 3ZM295 248l-7 5 1-8 6 3Z"/><path fill="#80C0E2" id="AAA" d="M150 283h2c5.39 0 15-2.504 15-9l1-2-2-5c-3.936 0-12.658-9.158-15.5-12l-4.5-4-2-1c-1.186 0-5.192-3.346-6.5-4l-5.5 1-1 1c0 1.395-4 5.918-4 11v1l1 1 5 5 3 3 2 2 1 1 1 1 1 1 2 2 1 1 5 5 1 1ZM305 283h1l1-1 4-2v-1l1-1 1-1v-1l1-1 1-1 1-1 1-1 1-1 1-1 2-1v-1l2-1 1-2 5-4 1-3c0-3.709-5.274-14.613-10.5-12l-6.5 3-1 1-2 1-3 2.5c-1.423 2.846-12.254 13.5-16 13.5-1.638 0-2 3.576-2 5v3l5.5 6c3.244 1.622 6.538 2 10.5 2Z"/><path fill="#97D6F9" id="STR" d="m132 247-1 1 1-1Z"/><path fill="#A2B1D8" id="MA" d="M170 258c0 3.016-4 6.525-4 9-3.936 0-12.658-9.158-15.5-12l-4.5-4 1-3h14c0 .81 6.749 5 8 5v1l1 1v3ZM286 258c1.951 0 .477 2.454 1 3.5.681 1.362 4 4.844 4 5.5 3.746 0 14.577-10.654 16-13.5l3-2.5-1-3c0-2.84-12.682 0-14 0l-7 5-1 1-1 2v2Z"/><path fill="#97D6F9" id="STR" d="M121 249c0 1.519 4.161 10 6 10 0-5.082 4-9.605 4-11-2.978 0-6.49 1-10 1Z"/><path fill="#8599CC" id="PAL" d="m144 250 2 1 1-3h-4l1 2ZM312 250l-2 1-1-3h4v1l-1 1Z"/><path fill="#E64438" id="HY" d="M204 252h5c0-1.481-2-.785-2-3l-3 3ZM248 252c2.124 0 4.436 1 6 1l-4-4-2 3Z"/><path fill="#97D6F9" id="STR" d="m313 249-1 1 1-1Z"/><path fill="#E64438" id="HY" d="M233 257c4.166 0 4.391 10 7 10 0-4.311 2-9.853 2-12h-6.5l-3.5-4c0 2.124 1 4.436 1 6ZM203 252l-1 1 1-1Z"/><path fill="#FF4B3E" id="AHN" d="M217 265v2l-4.5 6c-5.817 2.909-15.23-1.96-17.5-6.5-1.69-3.379 2-6.661 2-9.5l1-1 1-1 1-1 1-1h1l1-1h6l6 3c0 3.255 2 6.058 2 10Z"/><path fill="#E64438" id="HY" d="M224 256c-4.088 0-4.47 9-7 9 0-3.942-2-6.745-2-10 3.855 0 8.587-3 9-3v4Z"/><path fill="#FF4B3E" id="AHN" d="M240 267v1c.568 0 2.885 4.192 4.5 5 4.644 2.322 14.405-1.309 16.5-5.5 2.4-4.801-3-8.839-3-12.5h-1l-2-2h-1c-1.564 0-3.876-1-6-1l-6 3c0 2.147-2 7.689-2 12Z"/><path fill="#E64438" id="HY" d="m201 253-1 1 1-1ZM255 253l2 2-2-2Z"/><path fill="#8599CC" id="PAL" d="m288 253-1 1 1-1ZM169 254l1 1-1-1Z"/><path fill="#E64438" id="HY" d="m200 254-1 1 1-1ZM171 258l2 1-3-4v2l1 1ZM199 255l-1 1 1-1ZM241 277h19c0-2.355 10.773-6.955 12-4.5l-1 2.5h4l1-1-3-1.5c-1.351-2.702 0-3.115 0-5.5-5.824 0-9-3.206-9-9-2.813 0-3.921-3-6-3 0 3.661 5.4 7.699 3 12.5-2.095 4.191-11.856 7.822-16.5 5.5-1.615-.808-3.932-5-4.5-5v5c1.579 0 1 2.855 1 4ZM198 256l-1 1 1-1Z"/><path fill="#FD5547" id="SBPV" d="m217 272 4.5-2 3.5 2c0-2.613-.93-4.36-2-6.5-.308-.616 1-7.763 1-9.5-4.088 0-4.47 9-7 9v7Z"/><path fill="#E64438" id="HY" d="M285 258h1v-2l-1 2Z"/><path fill="#8599CC" id="PAL" d="M170 258h1l-1-1v1Z"/><path fill="#E64438" id="HY" d="M196 277h19c0-2.25 2-3.376 2-5v-5l-4.5 6c-5.817 2.909-15.23-1.96-17.5-6.5-1.69-3.379 2-6.661 2-9.5l-4 1c0 5.508-3.832 9-9 9v5c2.902 0 12 .848 12 5Z"/><path fill="#FD5547" id="SBPV" d="m231 272 4.5-2c1.07.535 4.098 3 4.5 3v-6c-2.609 0-2.834-10-7-10-2.515 0 0 5.014 0 6 0 3.638-2 5.929-2 9Z"/><path fill="#99D2BD" id="OLF" d="M121 271c2.244 0 6-2.079 6 2l3-4c-1.738 0-6-.686-6-3-1.852 0-9-5.903-9-8h-1c0 2.566 7 6.989 7 13Z"/><path fill="#96A6D3" id="NDB" d="m184 272-3 2c-2.361 0-13 .735-13-2l-2-5c0-2.475 4-5.984 4-9h1l2 1c0 1.909 9.08 8 11 8v5ZM289 272c-3.678 0-8.331 2-13 2l-3-1.5c-1.351-2.702 0-3.115 0-5.5l12-9h1c1.951 0 .477 2.454 1 3.5.681 1.362 4 4.844 4 5.5-1.638 0-2 3.576-2 5Z"/><path fill="#99D2BD" id="OLF" d="m342 258-1 1v-1h1Z"/><path fill="#A8A9AA" id="V3" d="M228 272h1l-.5-13c-.922 0-2.96 13-.5 13Z"/><path fill="#99D2BD" id="OLF" d="m341 259-1 1 1-1Z"/><path fill="#97D6F9" id="STR" d="M127 261h1l-1-1v1Z"/><path fill="#99D2BD" id="OLF" d="m340 260-1 1 1-1Z"/><path fill="#84EA80" id="BMAa" d="M130 269h1l2-2v-1l-5-5h-1c-4.528 0-3 2.265-3 5 0 2.314 4.262 3 6 3ZM326 269h1c2.813 0 3.921-3 6-3 0-4.062.306-5-4-5l-5 4v2l2 2Z"/><path fill="#99D2BD" id="OLF" d="m339 262-1 1 1-1ZM338 263l-1 1 1-1ZM329 272c0-4.38 6.234 0 7 0 0-2.531 1-5.118 1-8l-4 2c-2.079 0-3.187 3-6 3 0 1.238.423 3 2 3Z"/><path fill="#97D6F9" id="STR" d="M323 267h1v-2l-1 2ZM133 267l3 2-3-3v1Z"/><path fill="#99D2BD" id="OLF" d="m136 269 2 2c-2.16 0-4.167-2-7-2l2-2 3 2Z"/><path fill="#97D6F9" id="STR" d="m323 267-2 1 2-1Z"/><path fill="#99D2BD" id="OLF" d="M321 269h5l-2-2h-1l-2 1v1Z"/><path fill="#60E5B7" id="COAa" d="M130 290h1c4.138 0 18.91-.681 15-8.5l-2-4.5-1-1-2-2-1-1-1-1-1-1c-2.16 0-4.167-2-7-2h-1l-3 4c0 5.789 2 10.623 2 16l1 1Z"/><path fill="#99D2BD" id="OLF" d="m321 269-2 1 2-1Z"/><path fill="#60E5B7" id="COAa" d="M325 290h2l1-2 1-16c-1.577 0-2-1.762-2-3h-6l-2 1-1 1-1 1-1 1-1 1-1 1-1 1v1l-1 1-1 1v1c0 9.914 3.946 10 14 10Z"/><path fill="#59D9AA" id="PAA" d="M109 296h1l7-1h2l2-1 2-1h1l2-1 1-1 2-2c0-5.377-2-10.211-2-16 0-4.079-3.756-2-6-2l-7 20.5c-.737 1.473-5 4.127-5 4.5Z"/><path fill="#FF5545" id="SCH" d="M222 279h1l2-2 1-1v-1c-1.473 0-1-1.952-1-3l-3.5-2-4.5 2c0 1.624-2 2.75-2 5l4 2h3ZM235 279h2l4-2c0-1.145.579-4-1-4-.402 0-3.43-2.465-4.5-3l-4.5 2v4l2 3h2Z"/><path fill="#59D9AA" id="PAA" d="M346 296h1l-4-3.5c-2.81-5.62-7-13.926-7-20.5-.766 0-7-4.38-7 0l-1 16c0 4.082 7 3.392 7 6h1l2 1h1l7 1Z"/><path fill="#99D2BD" id="OLF" d="m318 271-1 1 1-1ZM139 272l1 1-1-1Z"/><path fill="#8599CC" id="PAL" d="M181 274c0 5.107-9.398 7-13 7 0-1.406.714-7-1-7l1-2c0 2.735 10.639 2 13 2Z"/><path fill="#E64438" id="HY" d="m181 274 4 1-1-3-3 2Z"/><path fill="#FE5B50" id="SO" d="M191 278h4l1-1c0-4.152-9.098-5-12-5l1 3 2 1h1l1 1 2 1Z"/><path fill="#E64438" id="HY" d="M228 272h1c0 1.186-1 1.186-1 0Z"/><path fill="#FE5B50" id="SO" d="M261 278h4c0-1.473 1.952-1 3-1l1-1 1-1h1l1-2.5c-1.227-2.455-12 2.145-12 4.5l1 1Z"/><path fill="#8599CC" id="PAL" d="M289 275v5c-1.423 0-3.544 1.978-5.5 1l-8.5-6 1-1c4.669 0 9.322-2 13-2v3Z"/><path fill="#99D2BD" id="OLF" d="m316 273-1 1 1-1ZM141 274l2 2-2-2Z"/><path fill="#97D6F9" id="STR" d="M152 283c0 2.079 3 3.187 3 6 5.268 0 12.454-8 13-8 0-1.406.714-7-1-7 0 6.496-9.61 9-15 9Z"/><path fill="#E64438" id="HY" d="M226 276h1v-1h-1v1ZM230 276h1v-1h-1v1ZM269 276h1v-1l-1 1Z"/><path fill="#97D6F9" id="STR" d="M305 283c0 1.548-4 2.767-4 6-4.4 0-12-3.839-12-9v-5l5.5 6c3.244 1.622 6.538 2 10.5 2Z"/><path fill="#99D2BD" id="OLF" d="m314 275-1 1 1-1Z"/><path fill="#CAC7CB" id="fiber tracts" d="m189 277 2 1-9-1c0-1.643 3.765-1 5-1h1l1 1Z"/><path fill="#E64438" id="HY" d="m226 276-1 1 1-1Z"/><path fill="#CAC7CB" id="fiber tracts" d="M223 279c1.943 0 3.375-2 4.5-2l5.5 2-2-3h-5l-1 1-2 2ZM269 277h5c0-1.579-2.855-1-4-1h-1v1Z"/><path fill="#99D2BD" id="OLF" d="M131 290v4c8.224 0 16.298-5 24-5 0-2.813-3-3.921-3-6h-2l-1-1-5-5 2 4.5c3.91 7.819-10.862 8.5-15 8.5Z"/><path fill="#CACCCB" id="opt" d="M182 280c6.389 0 9.487 8 17 8v-10h-8l-9-1c-2.373 0 0 2.284 0 3Z"/><path fill="#CAC7CB" id="fiber tracts" d="M199 278c6.404 0 13.931 1 20 1l-4-2h-19l-1 1h4Z"/><path fill="#CBCACC" id="och" d="M228 284c-10.541 0-19.322 4-29 4v-10c6.404 0 13.931 1 20 1h2c0 1.186 1 1.186 1 0h1c1.943 0 3.375-2 4.5-2l5.5 2h1c0 1.186 1 1.186 1 0h2c6.559 0 14.091-1 21-1v10c-7.932 0-14.523-4-22.5-4-1.901 0-7.5-.446-7.5 0Z"/><path fill="#CAC7CB" id="fiber tracts" d="M258 278h3l-1-1h-19l-4 2c6.559 0 14.091-1 21-1ZM269 277c0 1.579-2.855 1-4 1 0-1.473 1.952-1 3-1h1Z"/><path fill="#CACCCB" id="opt" d="M275 280c-6.264 0-10.143 8-17 8v-10h7c1.145 0 4 .579 4-1h5c1.473 0 1 1.952 1 3Z"/><path fill="#99D2BD" id="OLF" d="m313 277-1 1 1-1ZM312 278l-1 1 1-1Z"/><path fill="#CAC7CB" id="fiber tracts" d="M221 279h1c0 1.186-1 1.186-1 0ZM234 279h1c0 1.186-1 1.186-1 0ZM228 284c-10.541 0-19.322 4-29 4-7.513 0-10.611-8-17-8 0 10.053 25.894 10.803 33.5 7 1.991-.995 12.5.046 12.5-3ZM228 284c0-.446 5.599 0 7.5 0 7.977 0 14.568 4 22.5 4 6.857 0 10.736-8 17-8 0 3.607-7.38 5.94-9.5 7-8.552 4.276-21.429 3.285-30-1h-5l-2.5-2Z"/><path fill="#99D2BD" id="OLF" d="M325 290v4c-8.122 0-16.293-5-24-5 0-3.233 4-4.452 4-6h1l1-1 4-2c0 9.914 3.946 10 14 10Z"/><path fill="#97D6F9" id="STR" d="m149 282 1 1-1-1ZM307 282l-1 1 1-1Z"/><path fill="#99D2BD" id="OLF" d="m327 290 8 4c0-2.608-7-1.918-7-6l-1 2ZM130 290l-3 1 2-2 1 1Z"/><path fill="#CAC8C7" id="lot" d="M117 295h2l2-1 2-1h1l2-1 1-1 3-1h1v4c0 2.602-10.487 3-13 3l-1-2ZM339 295v2c-5.641 0-10.214-3-14-3v-4h2l8 4h1l2 1h1Z"/><path fill="#99D2BD" id="OLF" d="m127 291-1 1 1-1ZM126 292l-2 1 2-1ZM123 293l-2 1 2-1ZM121 294l-2 1 2-1ZM336 294l2 1-2-1ZM110 296c0 1.735 6.51 1 8 1l-1-2-7 1ZM346 296c0 1.714-5.594 1-7 1v-2l7 1Z"/></svg>