<svg xmlns="http://www.w3.org/2000/svg" viewBox="0 0 456 320"><path fill="#1E9C59" id="MOs1" d="M223 63c0 1.965-1.288 2-3 2l-5.5-6-9-6c-2.005-1.003-4.888.056-7-1-8.432-4.216-37.126 11-43.5 11v-6c0-1.94 13.534-5.017 15.5-6 14.026-7.013 41.418-8.664 49.5 7.5.989 1.978 3 2.023 3 4.5ZM236 66h1c0-4.972 7.617-9.059 11.5-11 12.264-6.132 31.654-1.673 43 4l9.5 4v-6c0-2.351-13.522-5.011-15.5-6-12.736-6.368-40.617-9.266-48.5 6.5-1.213 2.426-4 3.03-4 5.5l3 3Z"/><path fill="#1E9D58" id="MOs2/3" d="M213 70h1l6-4v-1l-5.5-6-9-6c-2.005-1.003-4.888.056-7-1-8.432-4.216-37.126 11-43.5 11 0 4.939 1 10.228 1 17 3.476 0 12.027-7.264 15.5-9 8.345-4.172 15.806-8 26-8 3.904 0 15.5 2.63 15.5 7ZM300 80h1V63l-9.5-4c-11.346-5.673-30.736-10.132-43-4-3.883 1.941-11.5 6.028-11.5 11 0 1.028 4.666 4 6 4 0-3.528 7.935-4.718 10.5-6 12.778-6.39 26.124 6.062 36 11 1.746.873 10.5 2.685 10.5 5Z"/><path fill="#1E9D5A" id="MOp1" d="M95 97v8c1.5 0 12.799-15.15 16.5-17 9.873-4.936 33.683-25 43.5-25v-6c-4.655 0-8.571 4.036-12.5 6-11.598 5.8-25.307 12.307-35 22-3.222 3.222-12.5 8.206-12.5 12ZM362 97l-1 8-10.5-12-12-10c-8.168-4.084-29.619-20-37.5-20v-6c9.003 0 41.318 21.818 48 28.5 2.022 2.022 13 9.153 13 11.5Z"/><path fill="#1F9C58" id="MOp2/3" fill-rule="evenodd" d="M97 110c0 1.93 1.93 0 0 0m1 13c3.159 0-.808 9 3 9 0-4.813 5.926-9.352 8-13.5 6.204-12.408 19.882-23.691 31.5-29.5 3.138-1.57 12.685-9 15.5-9 0-6.772-1-12.061-1-17-9.817 0-33.627 20.064-43.5 25-3.701 1.85-15 17-16.5 17v1c1.186 0 1.186 1 0 1 0 5.245 3 11.264 3 16Z"/><path fill="#1F9D58" id="MOs5" d="m197 87-6.5-2c-5.961 2.98-12.156 5.078-18 8-4.599 2.3-11.264 8-16.5 8V80c3.476 0 12.027-7.264 15.5-9 8.345-4.172 15.806-8 26-8 3.904 0 15.5 2.63 15.5 7 0 4.027-16 12.399-16 17Z"/><path fill="#3EA665" id="ACAd1" d="M222 99h12l-1-24.5 3-8.5-3-3c-2.37 0-3.725 7-4.5 7-2.418 0-2.179-7-5.5-7 0 1.965-1.288 2-3 2v1l3 6.5c2.365 4.73-1 21.43-1 26.5Z"/><path fill="#1F9D58" id="MOs5" d="m260 87 5.5-2c6.155 3.078 30.14 16 35.5 16 0-6.903-1-14.772-1-21 0-2.315-8.754-4.127-10.5-5-9.876-4.938-23.222-17.39-36-11-2.565 1.282-10.5 2.472-10.5 6v1c1.785 0 16 14.38 16 16h1Z"/><path fill="#1F9C58" id="MOp2/3" d="M358 124c0 1.812-2 1.87-2 2.5l2 3c0 .949-1 2.951-1 4.5l-5-9.5c-4.153-8.306-12.171-17.171-19-24L310.5 85c-1.674-.837-9.5-2.787-9.5-5V63c7.881 0 29.332 15.916 37.5 20l12 10 10.5 12v1c0 9.107-3 6.601-3 18Z"/><path fill="#40A565" id="ACAd2/3" d="m222 99-5 1V77.5c-1.167-2.333-3-4.728-3-7.5l6-4 3 6.5c2.365 4.73-1 21.43-1 26.5ZM234 99l6 1V77.5c0-1.479 1.497-6.5 3-6.5v-1c-1.334 0-6-2.972-6-4h-1l-3 8.5 1 24.5Z"/><path fill="#3EA566" id="ACAd5" d="M215 101c-5.296 0-9.447 3-14 3 0-3.473 1.25-16-4-16v-1c0-4.601 16-12.973 16-17h1c0 2.772 1.833 5.167 3 7.5V100l-2 1ZM241 101c5.222 0 9.64 3 14 3l1-12.5 3-4.5c0-1.62-14.215-16-16-16-1.503 0-3 5.021-3 6.5V100l1 1Z"/><path fill="#1E9C5A" id="MOp5" d="m116 166-14 5c0-2.28-1.938-14-3-14v-19c1.473 0 1-1.952 1-3v-1l1-2c0-4.813 5.926-9.352 8-13.5 6.204-12.408 19.882-23.691 31.5-29.5 3.138-1.57 12.685-9 15.5-9v21c-5.6 0-11.619 7.559-16.5 10-23.686 11.843-23.5 31.519-23.5 55ZM340 166l14 5 3-14v-20c-1.186 0-1.186-1 0-1v-2l-5-9.5c-4.153-8.306-12.171-17.171-19-24L310.5 85c-1.674-.837-9.5-2.787-9.5-5h-1c0 6.228 1 14.097 1 21v1c5.509 0 9.822 5.661 14.5 8 25.688 12.844 24.5 30.596 24.5 56Z"/><path fill="#1D9C5A" id="MOs6a" d="M171 117c-5.648 0-11.285 10-15 10v-26c5.236 0 11.901-5.7 16.5-8 5.844-2.922 12.039-5.02 18-8l6.5 2v1c-2.498 0-13 21.828-13 25-2.454 0-13 1.149-13 4ZM273 113c10.776 0 24.064 13 27 13 1.537 0 1-2.963 1-4.5V101c-5.36 0-29.345-12.922-35.5-16l-5.5 2 13 26Z"/><path fill="#3FA664" id="ACAd6a" d="M270 115h1l2-1v-1l-13-26h-1l-3 4.5-1 12.5c2.371 0 14 8.002 14 11h1ZM184 114l3 1c4.555 0 8.939-11 14-11 0-3.473 1.25-16-4-16-2.498 0-13 21.828-13 25v1Z"/><path fill="#187E61" id="SSp-m1" d="m79 161-5 2c0-23.413.801-32.102 11-52.5 1.218-2.436 6.487-13.5 10-13.5v10c-3.67 0-6.592 8.685-8 11.5-7.764 15.528-8 24.988-8 42.5ZM378 161l4 2c0-26.054.496-29.507-11-52.5-1.176-2.351-5.879-13.5-9-13.5l-1 8v1c3.34 0 6.721 8.943 8 11.5 7.073 14.146 9 26.206 9 43.5Z"/><path fill="#3FA566" id="ACAv2/3" d="M219 149h4l-1-50-5 1v29c2.064 0 .426 3.353 1 4.5 2.042 4.084 1 10.663 1 15.5Z"/><path fill="#40A664" id="ACAv1" d="M229 149h4l1-50h-12l1 50h5c0-8.043 1-8.043 1 0Z"/><path fill="#3FA566" id="ACAv2/3" d="M233 149h4c0-16.153 3-32.47 3-49l-6-1-1 50Z"/><path fill="#3EA666" id="ACAv5" d="m215 101 1 14c0 1.145-.579 4 1 4v-19l-2 1ZM241 149h2c0-2.729.423-1 2-1l1-1 1-1v-1c-3.514 0-7-9.591-7-13l1-31-1-1c0 16.53-3 32.847-3 49h3c0-1.186 1-1.186 1 0Z"/><path fill="#1F9B5A" id="MOp6a" d="M139 153c-5.899 0-16.348 13-23 13 0-23.481-.186-43.157 23.5-55 4.881-2.441 10.9-10 16.5-10v26l-1 2c-5.27 0-15 16.978-15 23l-1 1Z"/><path fill="#2EA84F" id="PL5" d="M205 135h1c3.339 0 6.924-3 11-3v-13c-1.579 0-1-2.855-1-4l-1-14c-5.296 0-9.447 3-14 3 0 10.864 4 20.762 4 31ZM240 132c4.168 0 7.42 3 11 3l2-6.5c2-3.999 2-18.938 2-24.5-4.36 0-8.778-3-14-3l-1 31Z"/><path fill="#1F9B5A" id="MOp6a" d="M317 153c5.974 0 16.814 13 23 13 0-25.404 1.188-43.156-24.5-56-4.678-2.339-8.991-8-14.5-8v19.5c0 1.537.537 4.5-1 4.5l1 2c4.534 0 16 19.589 16 25Z"/><path fill="#2FA850" id="PL6a" d="m205 135-7 2c0-2.661-8.652-21-11-21v-1c4.555 0 8.939-11 14-11 0 10.864 4 20.762 4 31ZM258 137h1c0-1.761 2.307-10 4-10 0-1.465-.109-4 2-4 0-2.522 1.432-6 4-6v-2c0-2.998-11.629-11-14-11 0 5.562 0 20.501-2 24.5l-2 6.5 7 2Z"/><path fill="#1A7E64" id="SSp-m2/3" d="M95 106c1.186 0 1.186 1 0 1v-1ZM366 158c3.619 0 7.506 3 12 3 0-17.294-1.927-29.354-9-43.5-1.279-2.557-4.66-11.5-8-11.5 0 9.107-3 6.601-3 18 1.998 0 2.337 5.174 3 6.5 4.24 8.48 5 17.195 5 27.5ZM90 158c-3.34 0-6.924 3-11 3 0-17.512.236-26.972 8-42.5 1.408-2.815 4.33-11.5 8-11.5 0 5.245 3 11.264 3 16l-7 18.5-1 16.5ZM97 110c0 1.93 1.93 0 0 0Z"/><path fill="#1E9C58" id="MOs6b" d="M183 115c-4.775 0-7.525 2-12 2 0-2.851 10.546-4 13-4v1l-1 1ZM301 128v1c-5.298 0-7.61-9-13-9 0-3.915-11.771-5-15-5v-2c10.776 0 24.064 13 27 13l1 2Z"/><path fill="#3FA466" id="ACAd6b" d="M186 116h1v-1l-3-1-1 1 3 1ZM271 115h2v-1l-2 1Z"/><path fill="#CACCC7" id="cing" d="M200 148c0 1.439 1.548 9-1 9 0-6.681-6.844-32.172-12.5-35-3.84-1.92-9.935-1-14.5-1l-3-2 2-2c4.475 0 7.225-2 12-2l3 1 7 10.5c.806 1.611 1.968 10.5 4 10.5 0 1.357.647 6 2 6l1 5Z"/><path fill="#2FA84F" id="PL6b" d="m270 116-1 1v-2h1v1Z"/><path fill="#3FA466" id="ACAd6b" d="m271 115-1 1v-1h1Z"/><path fill="#CACCC7" id="cing" d="M256 148c0 1.49-.735 8 1 8 1.643 0 1-3.765 1-5l3-12.5c7.525-15.05 5.05-17.5 24-17.5l3-1c0-3.915-11.771-5-15-5h-2l-1 1-1 1c0 1.334-2.972 6-4 6l-2 4c0 3.947-3 6.628-3 10 0 .922-2.496 8-3 8 0 1.048.473 3-1 3Z"/><path fill="#2FA84F" id="PL6b" d="M197 137h1c0-2.661-8.652-21-11-21h-1l7 10.5c.806 1.611 1.968 10.5 4 10.5Z"/><path fill="#1E9C58" id="MOs6b" d="M156 127v2l13-10 2-2c-5.648 0-11.285 10-15 10Z"/><path fill="#2FA84F" id="PL6b" d="M269 117c-2.568 0-4 3.478-4 6 1.028 0 4-4.666 4-6Z"/><path fill="#C9C9CA" id="scwm" d="M143 169h1c1.684 0 1-4.679 1-6 0-6.303-.613-13.275 2-18.5 2.873-5.746 10.444-14.472 16.5-17.5 1.582-.791 8.5-3.942 8.5-6l-3-2-13 10-1 1c0 3.013-12 11.441-12 21v18ZM312 169h1l1-18c0-8.906-13-17.042-13-22-5.298 0-7.61-9-13-9l-3 1c0 3.042 14.463 9.426 16 12.5l8 10c3.608 7.217 3 16.801 3 25.5Z"/><path fill="#CAC7CC" id="fa" d="M151 169c-2.72 0-3.553 2-6 2l-1-2c1.684 0 1-4.679 1-6 0-6.303-.613-13.275 2-18.5 2.873-5.746 10.444-14.472 16.5-17.5 1.582-.791 8.5-3.942 8.5-6 4.565 0 10.66-.92 14.5 1 5.656 2.828 12.5 28.319 12.5 35v1c0 4.528-2.265 3-5 3 0-15.507-35.871-29.757-45-11.5-1.829 3.658-1.832 13.335 0 17l2 2.5ZM311 171h1v-2c0-8.699.608-18.283-3-25.5l-8-10c-1.537-3.074-16-9.458-16-12.5-18.95 0-16.475 2.45-24 17.5l-3 12.5c0 1.235.643 5-1 5v4c0 1.638 3.576 2 5 2 0-2.097 2.105-3.71 3-5.5 5.928-11.855 20.922-19.789 33.5-13.5 2.272 1.136 6.046 1.592 7.5 4.5 6.295 12.589 0 11.898 0 21.5l5 2Z"/><path fill="#1B7F62" id="SSp-m4" d="m95 157-5 1 1-16.5 7-18.5c3.159 0-.808 9 3 9l-1 2-1 1v5l-2 3.5c-1.34 2.681-2 10.566-2 13.5Z"/><path fill="#2FA84F" id="PL6b" d="M265 123c-2.109 0-2 2.535-2 4l2-4Z"/><path fill="#1B7F62" id="SSp-m4" d="m361 157 5 1c0-10.305-.76-19.02-5-27.5-.663-1.326-1.002-6.5-3-6.5 0 1.812-2 1.87-2 2.5l2 3c0 .949-1 2.951-1 4.5v4c.843 0 2 3.646 2 4.5 0 5.27 2 9.046 2 14.5Z"/><path fill="#1D9D5A" id="MOp6b" d="M155 129h1v-2l-1 2Z"/><path fill="#2FA84F" id="PL6b" d="M259 137h1c0-3.372 3-6.053 3-10-1.693 0-4 8.239-4 10Z"/><path fill="#1D9D5A" id="MOp6b" d="m314 151 3 2c0-5.411-11.466-25-16-25v1c0 4.958 13 13.094 13 22ZM143 151l-3 1c0-6.022 9.73-23 15-23v1c0 3.013-12 11.441-12 21Z"/><path fill="#1E9C58" id="MOs6b" d="m156 129-1 1v-1h1Z"/><path fill="#3EA666" id="ACAv5" d="M217 149h2c0-4.837 1.042-11.416-1-15.5-.574-1.147 1.064-4.5-1-4.5v3c0 2.69-4.707 13-7 13 0 1.238.423 3 2 3l1 1h1c0-1.486 3-1.486 3 0Z"/><path fill="#59B262" id="ILA5" d="M209 145h1c2.293 0 7-10.31 7-13-4.076 0-7.661 3-11 3 0 3.855 3 6.459 3 10ZM251 135l-4 10c-3.514 0-7-9.591-7-13 4.168 0 7.42 3 11 3Z"/><path fill="#1F9C58" id="MOp2/3" d="M99 135h1v-1l-1 1Z"/><path fill="#1B7E63" id="SSp-m5" d="M100 135c0 1.048.473 3-1 3v-3h1Z"/><path fill="#58B362" id="ILA6a" d="m200 148 11 1c0-2.573-2-.355-2-4 0-3.541-3-6.145-3-10h-1l-7 2c0 1.564 1 3.876 1 6l1 5ZM256 148l-11 1v-1l1-1c0 2.276 3.276-1 1-1v-1l4-10 7 2-1 8c0 1.048.473 3-1 3Z"/><path fill="#1B7E63" id="SSp-m5" d="M357 136c-1.186 0-1.186 1 0 1v-1Z"/><path fill="#58B263" id="ILA6b" d="M198 137c0 1.564 1 3.876 1 6-1.353 0-2-4.643-2-6h1ZM260 137c0 .922-2.496 8-3 8l1-8h2Z"/><path fill="#1B7E63" id="SSp-m5" d="M357 157h4c0-5.454-2-9.23-2-14.5 0-.854-1.157-4.5-2-4.5v19ZM95 157h4v-17l-2 3.5c-1.34 2.681-2 10.566-2 13.5Z"/><path fill="#98D5F9" id="CP" d="m169 196-2 1c-4.406 0-10.266-5-11-5v-5c0-3.511.889-7.722-1-11.5-1.169-2.337-4-3.673-4-6.5l-2-2.5c-1.832-3.665-1.829-13.342 0-17 9.129-18.257 45-4.007 45 11.5 0 6.319 1 14.033 1 21l-2 4-1 1-7.5 6-15.5 3ZM300 193l-7.5 4-5.5-1c-6.019 0-13.387-2.444-18.5-5l-5.5-5c0-1.424-.362-5-2-5l1-19c0-2.097 2.105-3.71 3-5.5 5.928-11.855 20.922-19.789 33.5-13.5 2.272 1.136 6.046 1.592 7.5 4.5 6.295 12.589 0 11.898 0 21.5-3.569 0-6 14.385-6 18v6Z"/><path fill="#40A564" id="ACAv6a" d="M211 149h1v-1c-1.577 0-2-1.762-2-3h-1c0 3.645 2 1.427 2 4ZM247 146c2.276 0-1 3.276-1 1l1-1Z"/><path fill="#59B262" id="ILA5" d="M243 149h2v-1c-1.577 0-2-1.729-2 1Z"/><path fill="#A3DAA3" id="DP" d="M227 169c-3.315 0-22-1.044-22 2-5.289 0-3.59-13-6-13v-1c2.548 0 1-7.561 1-9l11 1h16l1 1v3c0 5.479-1 11.075-1 16Z"/><path fill="#59B262" id="ILA5" d="M212 149h1l-1-1v1ZM214 149h3c0-1.486-3-1.486-3 0ZM240 149h1c0-1.186-1-1.186-1 0Z"/><path fill="#A3DAA3" id="DP" d="M229 169h20.5l2.5 2c3.598 0 3.226-11 5-11v-4c-1.735 0-1-6.51-1-8l-11 1h-16v20Z"/><path fill="#99D2BD" id="OLF" d="M228 149v1l-1-1h1Z"/><path fill="#1F9766" id="AId6b" d="M141 170h1l1-1v-18l-3 1-1 1c0 6.236 2 11.483 2 17ZM313 169l2 1c0-4.715 2-10.914 2-17l-3-2-1 18Z"/><path fill="#1D9D5A" id="MOp6b" d="m140 152-1 1 1-1Z"/><path fill="#209666" id="AId6a" d="M127 185h2l1-2c0-2.741-5.893-4.714-4-8.5.969-1.937 5.558-8.971 8.5-7.5l6.5 4v-1c0-5.517-2-10.764-2-17-5.899 0-16.348 13-23 13 0 7.547 11 15.308 11 19Z"/><path fill="#99D2BD" id="OLF" d="M227 169c0 1.919 2 2.488 2 0v-16h-1c0 5.479-1 11.075-1 16Z"/><path fill="#209666" id="AId6a" d="M328 185h1c0-3.6 11-10.667 11-19-6.186 0-17.026-13-23-13 0 6.086-2 12.285-2 17v1l7.5-4c2.117 1.058 10.209 6.081 8.5 9.5l-5 6.5 2 2Z"/><path fill="#009C74" id="GU4" d="M93 175h1l1-18-5 1c0 5.365 3 11.769 3 17Z"/><path fill="#019C75" id="GU5" d="m102 171-8 4 1-18h4c1.062 0 3 11.72 3 14ZM354 171c2.7 0 4.762 3 8 3 0-5.909-1-11.579-1-17h-4l-3 14Z"/><path fill="#009C74" id="GU4" d="M362 175h2l2-17-5-1c0 5.421 1 11.091 1 17v1Z"/><path fill="#009B75" id="GU2/3" d="M93 175c-3.764 0-6.8 5-11 5 0-6.281-3-12.113-3-19 4.076 0 7.66-3 11-3 0 5.365 3 11.769 3 17Z"/><path fill="#99D2BD" id="OLF" d="M199 191c5.018 0 13.732 6 15 6 0-1.418-9-14.99-9-26-5.289 0-3.59-13-6-13 0 4.528-2.265 3-5 3 0 6.319 1 14.033 1 21 1.014 0 2 3.959 2 5l2 4Z"/><path fill="#009B75" id="GU2/3" d="M374 180h1l3-19c-4.494 0-8.381-3-12-3l-2 17c3.725 0 5.863 5 10 5Z"/><path fill="#99D2BD" id="OLF" d="M257 192c-4.945 0-9.115 3-12 3 0-8.079 7-14.804 7-24 3.598 0 3.226-11 5-11 0 1.638 3.576 2 5 2l-1 19-1 6-3 5Z"/><path fill="#009C75" id="GU1" d="M78 181h4v-1c0-6.281-3-12.113-3-19l-5 2 4 18ZM375 180c0 1.579 2.855 1 4 1l3-18-4-2-3 19Z"/><path fill="#209665" id="AId5" d="M127 185c0 4.052-21.667 13-26 13 0-.656-3.32-4.138-4-5.5L94 175l8-4 14-5c0 7.547 11 15.308 11 19ZM355 198h1l3-4.5c2.374-4.749 3-12.883 3-18.5v-1c-3.238 0-5.3-3-8-3l-14-5c0 8.333-11 15.4-11 19 0 4.336 15.883 9.192 19.5 11 1.134.567 6.5.546 6.5 2Z"/><path fill="#8ADA86" id="CLA" d="M130 183c3.876 0 19 13.885 19 0 0-2.72-2-3.553-2-6l-6-6-6.5-4c-2.942-1.471-7.531 5.563-8.5 7.5-1.893 3.786 4 5.759 4 8.5ZM326 183c-1.795 0-19 13.749-19 1l2-7 1-1 1-1c1.634 0 4-2.634 4-4l7.5-4c2.117 1.058 10.209 6.081 8.5 9.5l-5 6.5Z"/><path fill="#219665" id="AIv6b" d="M142 170c0 2.681 2.078 1 3 1l-1-2h-1l-1 1Z"/><path fill="#C8CBCC" id="ec" d="M156 187c-1.539 0-2.187 4-5 4 0-1.899.488-8-2-8 0-2.72-2-3.553-2-6l-2-6c2.447 0 3.28-2 6-2 0 2.827 2.831 4.163 4 6.5 1.889 3.778 1 7.989 1 11.5Z"/><path fill="#61D09F" id="TTd" d="M241 197h1l1-1 2-1c0-8.079 7-14.804 7-24l-2.5-2H229c0 2.488-2 1.919-2 0-3.315 0-22-1.044-22 2 0 11.01 9 24.582 9 26h12l1-1c0-2.868 2-5.427 2-1v1c3.312 0 8.038 1 12 1Z"/><path fill="#C8CBCC" id="ec" d="M300 187c3.168 0 3.929 6 8 6 0-.495-6.042-9-1-9l2-7 1-1 1-1v-4l-5-2c-3.569 0-6 14.385-6 18Z"/><path fill="#219665" id="AIv6b" d="M312 171c0 2.373 2.284 0 3 0v-1l-2-1h-1v2Z"/><path fill="#1F9866" id="AIv6a" d="m145 171 2 6-6-6v-1h1c0 2.681 2.078 1 3 1ZM315 171c0 1.366-2.366 4-4 4v-4h1c0 2.373 2.284 0 3 0Z"/><path fill="#209765" id="AId2/3" d="m101 198-11 3c-1.1 0-5.928-13.355-7-15.5-.574-1.147 1.064-4.5-1-4.5v-1c4.2 0 7.236-5 11-5h1l3 17.5c.68 1.362 4 4.844 4 5.5Z"/><path fill="#1F9866" id="AIv6a" d="m311 175-1 1 1-1Z"/><path fill="#209765" id="AId2/3" d="M366 201h1c0-6.788 7-13.481 7-21-4.137 0-6.275-5-10-5h-2c0 5.617-.626 13.751-3 18.5l-3 4.5c3.414 0 6.353 3 10 3Z"/><path fill="#1F9866" id="AIv6a" d="m310 176-1 1 1-1Z"/><path fill="#209764" id="AId1" d="m367 201 3 2c0-3.385 9-16.715 9-22-1.145 0-4 .579-4-1h-1c0 7.519-7 14.212-7 21ZM90 202l-3 1c-2.134 0-9-19.006-9-22h4c2.064 0 .426 3.353 1 4.5 1.072 2.145 5.9 15.5 7 15.5v1Z"/><path fill="#97D6F9" id="STR" d="m263 186-3 1 1-6c1.638 0 2 3.576 2 5ZM193 186l4 1c0-1.041-.986-5-2-5l-2 4Z"/><path fill="#1F9866" id="AIv6a" d="m143 199-2 1c0-7.308-12-11.566-12-15l1-2c3.876 0 19 13.885 19 0 2.488 0 2 6.101 2 8l-1 1-1 1c-1.198 0-6 4.298-6 6ZM313 199l2 1c0-7.159 13-12.216 13-15l-2-2c-1.795 0-19 13.749-19 1-5.042 0 1 8.505 1 9 .782 0 5 5.083 5 6Z"/><path fill="#1F9865" id="AIv5" d="M131 207c-3.68 0-5.511 2-9 2 0-4.053-21-5.567-21-11 4.333 0 26-8.948 26-13h2c0 3.434 12 7.692 12 15l-3 3-1 1-1 1c-1.424 0-5 .362-5 2ZM326 207c3.489 0 5.32 2 9 2 0-5.083 20-4.712 20-11 0-1.454-5.366-1.433-6.5-2-3.617-1.808-19.5-6.664-19.5-11h-1c0 2.784-13 7.841-13 15l4 4c.978 0 7 2.267 7 3Z"/><path fill="#97D6F9" id="STR" d="m193 186-1 1 1-1Z"/><path fill="#80CDF8" id="ACB" fill-rule="evenodd" d="M173 210c0 .565-5.23 5.959-6 7.5-1.38 2.759 3.382 4.765 4 6 4.659 9.319 16.65-13.5 2-13.5m42 23c0 21.018-23.238 33.131-41.5 24l-8.5-5.5-3-6.5c0-3.661 3.277-20.947 3-21.5-1.341-2.683-6-5.362-6-8.5 0-6.528 8-17.211 8-18l2-1 15.5-3 7.5-6 1-1 4 1 2 4 6 9.5c3.384 6.769 10 24.931 10 32.5ZM280 210c0 1.274-3 2.933-3 6 0 25.545 24.785-6 3-6m-38 23c0 21.682 21.898 33.301 40.5 24 2.735-1.367 7.886-3.272 9.5-6.5.465-.93.817-4.5 2-4.5 0-2.568-2.148-23.204-2-23.5 1.206-2.411 5-4.652 5-7.5 0-5.421-1.782-10.063-4-14.5l-6-4.5c-6.019 0-13.387-2.444-18.5-5l-5.5-5-3 1-3 5-6 9.5c-3.722 7.444-9 22.807-9 31.5Z"/><path fill="#99D2BD" id="OLF" d="M148 251h3l11-6c0-3.661 3.277-20.947 3-21.5-1.341-2.683-6-5.362-6-8.5-5.029 0-3-19.63-3-23v-5c-1.539 0-2.187 4-5 4l-1 1-1 1c-1.198 0-6 4.298-6 6l6.5-1c5.508 2.754 1.583 6.666 3.5 10.5 2.587 5.173 6.372 9.744 9 15 .769 1.538-1.242 3.871-2.5 4.5-4.215 2.108-8.092-3-11.5-3 0 2.917 13.11 8.28 9 16.5l-9 9.5ZM305 251h3c0-2.59-7.606-7.712-9-10.5-3.478-6.957 8-11.541 8-14.5-3.03 0-7.056 3.722-10.5 2-2.349-1.174-2.44-4.62-1.5-6.5 1.761-3.521 5.915-7.83 8-12 1.291-2.582-.676-8.912 2.5-10.5 3.198-1.599 4.389 0 7.5 0 0-.917-4.218-6-5-6-4.071 0-4.832-6-8-6v6c1.665 0 1 4.222 1 5.5 0 3.319-.376 16.5-4 16.5 0 2.848-3.794 5.089-5 7.5-.148.296 2 20.932 2 23.5 1.872 0 11 3.45 11 5Z"/><path fill="#C8CBCC" id="ec" d="m151 191-1 1 1-1Z"/><path fill="#97D6F9" id="STR" d="M234 254c-1.421 0-2.083-12.583-3.5-14l-3-3-4.5 13c0 1.321.684 6-1 6 0-3.638-2-5.929-2-9 0-2.79-1.945-14-5-14 0-7.569-6.616-25.731-10-32.5l-6-9.5c5.018 0 13.732 6 15 6h1c0 3.203 11 4.869 11 0l1-1 2-1v1c0 4.923 12 5.096 12 1h1l1-1 2-1c2.885 0 7.055-3 12-3l-6 9.5c-3.722 7.444-9 22.807-9 31.5-3.378 0-6.757 13-5 13l-3 8Z"/><path fill="#C8CBCC" id="ec" d="m150 192-1 1 1-1Z"/><path fill="#97D6F9" id="STR" d="M167 197c0 .789-8 11.472-8 18-5.029 0-3-19.63-3-23 .734 0 6.594 5 11 5Z"/><path fill="#99D2BD" id="OLF" d="m229 195-2 1c0-2.868 2-5.427 2-1Z"/><path fill="#97D6F9" id="STR" d="m287 196 6 4.5c2.218 4.437 4 9.079 4 14.5 3.624 0 4-13.181 4-16.5 0-1.278.665-5.5-1-5.5l-7.5 4-5.5-1ZM169 196l-2 1 2-1Z"/><path fill="#99D2BD" id="OLF" d="M229 196c3.312 0 8.038 1 12 1 0 4.096-12 3.923-12-1ZM243 196l-1 1 1-1ZM215 197h11c0 4.869-11 3.203-11 0Z"/><path fill="#219764" id="AIv2/3" d="M122 209c-5.592 0-14.596 6-21 6l-11-13v-1l11-3c0 5.433 21 6.947 21 11Z"/><path fill="#A0EE9C" id="EPd" d="M147 225h1c3.408 0 7.285 5.108 11.5 3 1.258-.629 3.269-2.962 2.5-4.5-2.628-5.256-6.413-9.827-9-15-1.917-3.834 2.008-7.746-3.5-10.5l-6.5 1-2 1-3 3-1 1-1 1c0 1.238-1.923 5-3 5v3l2 3 1 1 1 1 1 1 2 2h1l2 2h1c1.238 0 3 .423 3 2ZM309 225l-2 1c-3.03 0-7.056 3.722-10.5 2-2.349-1.174-2.44-4.62-1.5-6.5 1.761-3.521 5.915-7.83 8-12 1.291-2.582-.676-8.912 2.5-10.5 3.198-1.599 4.389 0 7.5 0l2 1 4 4c0 2.584 4 4.518 4 8l-1 4-1 1-1 1-1 1h-1l-1 1-1 1h-1l-1 1-1 1h-1l-1 1-2 1Z"/><path fill="#219764" id="AIv2/3" d="M335 209c0 1.827 3.968 2 5.5 2l14.5 4c0-1.632 11-8.845 11-14-3.647 0-6.586-3-10-3h-1c0 6.288-20 5.917-20 11Z"/><path fill="#209864" id="AIv1" d="m355 215 6 1c1.963 0 9-11.092 9-13l-3-2h-1c0 5.155-11 12.368-11 14ZM101 215l-6 1c0-2.52-8-8.348-8-13l3-1 11 13Z"/><path fill="#99D2BD" id="OLF" d="m138 203-1 1 1-1ZM137 204l-1 1 1-1ZM326 207l-3 5c0-3.482-4-5.416-4-8 .978 0 7 2.267 7 3ZM131 207l2 3c1.077 0 3-3.762 3-5-1.424 0-5 .362-5 2Z"/><path fill="#6ACAB9" id="PIR" d="M137 255h1c3.657 0 5.884-4 10-4l9-9.5c4.11-8.22-9-13.583-9-16.5h-1l-3-2h-1l-2-2h-1l-2-2-1-1-1-1-1-1c-1.577 0-2-1.762-2-3v-3l-2-3c-3.68 0-5.511 2-9 2-5.592 0-14.596 6-21 6l-6 1c0 5.874 13.197 26 20 26 3.92 0 22 9.203 22 13ZM318 255h1l6.5-6c6.317-3.158 9.904-6 16.5-6l8-7.5c5.045-5.045 11-12.469 11-19.5l-6-1-14.5-4c-1.532 0-5.5-.173-5.5-2-3.68 0-5.511-2-9-2l-3 5-1 4-1 1-1 1-1 1h-1l-1 1-1 1h-1l-1 1-1 1h-1l-1 1-2 1-2 1c0 2.959-11.478 7.543-8 14.5 1.394 2.788 9 7.91 9 10.5 4.116 0 6.343 4 10 4Z"/><path fill="#CBCBC7" id="aco" d="M173 210c0 .565-5.23 5.959-6 7.5-1.38 2.759 3.382 4.765 4 6 4.659 9.319 16.65-13.5 2-13.5ZM280 210c0 1.274-3 2.933-3 6 0 25.545 24.785-6 3-6Z"/><path fill="#99D2BD" id="OLF" d="m133 213 2 3c-1.577 0-2-1.762-2-3ZM322 216l-1 1 1-1ZM136 217l1 1-1-1ZM321 217l-1 1 1-1ZM320 218l-1 1 1-1ZM138 219l2 2-2-2ZM318 219l-1 1 1-1ZM317 220l-1 1 1-1ZM141 221l2 2-2-2ZM315 221l-1 1 1-1ZM314 222l-1 1 1-1ZM144 223c1.238 0 3 .423 3 2l-3-2ZM312 223l-1 1 1-1ZM311 224l-2 1 2-1ZM309 225l-2 1 2-1Z"/><path fill="#A2B1D7" id="SI" d="M220 247c-7.367 0-3.997 7.249-9.5 10l-12 8c-2.612 1.306-6.284.642-9 2l-2.5-1c-10.18 0-19.043-4.772-27.5-9-2.789-1.395-5.226-6-8.5-6l11-6 3 6.5 8.5 5.5c18.262 9.131 41.5-2.982 41.5-24 3.055 0 5 11.21 5 14ZM294 246c1.872 0 11 3.45 11 5-3.258 0-7.939 6.22-11.5 8-5.322 2.661-15.513 4.256-19 6l-7 2c-2.994-1.497-7.127-.564-10-2l-10-7c-5.518-2.759-5.328-12-10.5-12-1.757 0 1.622-13 5-13 0 21.682 21.898 33.301 40.5 24 2.735-1.367 7.886-3.272 9.5-6.5.465-.93.817-4.5 2-4.5Z"/><path fill="#CAC8C7" id="lot" d="m137 260-1 1c-2.006 0-21-16.579-21-19 3.92 0 22 9.203 22 13v5ZM319 260l1 1c1.596 0 22-16.559 22-18-6.596 0-10.183 2.842-16.5 6l-6.5 6v5Z"/><path fill="#7FCCF7" id="OT" d="m217 269-1 1c0 4.709-10.145 9.323-13.5 11-7.464 3.732-33.669 5.666-41 2-3.196-1.598-6.478-4.739-9-6-3.991-1.996-13.5-8.725-13.5-14 0-.671-1.328-5-2-5v-1l1-2c3.657 0 5.884-4 10-4h3c3.274 0 5.711 4.605 8.5 6 8.457 4.228 17.32 9 27.5 9l2.5 1c2.716-1.358 6.388-.694 9-2l12-8c5.503-2.751 2.133-10 9.5-10 0 3.071 2 5.362 2 9v1l-1 2v1l-1 2-1 1v2l-1 1-1 3ZM238 266l1 1c0 6.826 10.865 11.683 15.5 14 12.377 6.188 48.041 5.417 54.5-7.5 1.202-2.405 8-5.408 8-9.5l1-1 1-2v-5l-1-1c-3.657 0-5.884-4-10-4h-3c-3.258 0-7.939 6.22-11.5 8-5.322 2.661-15.513 4.256-19 6l-7 2c-2.994-1.497-7.127-.564-10-2l-10-7c-5.518-2.759-5.328-12-10.5-12l-3 8v2l1 1v2l2 4v1l1 1v1Z"/><path fill="#99D2BD" id="OLF" d="m138 255-1 2v-2h1ZM319 255v1l-1-1h1Z"/><path fill="#97D6F9" id="STR" d="m234 256 1 1-1-1ZM222 257l-1 2 1-2ZM137 261c0 1.747.253 2 2 2 0-.671-1.328-5-2-5v3ZM235 259l2 4-2-4Z"/><path fill="#99D2BD" id="OLF" d="M136 261h1v-1l-1 1Z"/><path fill="#97D6F9" id="STR" d="m221 260-1 2 1-2Z"/><path fill="#99D2BD" id="OLF" d="M319 261h1l-1-1v1Z"/><path fill="#97D6F9" id="STR" d="m319 261-1 2 1-2ZM220 262l-1 1 1-1ZM318 263l-1 1 1-1ZM237 264l1 1-1-1ZM219 265l-1 1 1-1ZM238 266l1 1-1-1Z"/><path fill="#8599CC" id="PAL" d="m217 269-1 1 1-1Z"/></svg>