<svg xmlns="http://www.w3.org/2000/svg" viewBox="0 0 456 320"><path fill="#99D2BD" id="OLF" d="M211 211c.706 0 6-2.726 6 0 1.027 0 6.955-13.409 8-15.5v-12c4.396-8.793-.151-46.302-4-54-1.587-3.173-7.215-5.857-10.5-7.5-11.099-5.549-44.5 14.592-44.5 26 4.112 0 1.622 17.743 3 20.5 4.317 8.633 12.126 41.5 24 41.5 0-3.657 7.006-13.506 10-16.5h8c2.567 5.135 0 12.406 0 17.5ZM245 210c-1.235 0-5-.643-5 1-3.13 0-3.176-4.851-4-6.5-4.18-8.361-5-14.748-5-25 0-11.089-2.699-27.602 2-37 2.409-4.818-.822-13.839 6.5-17.5 18.906-9.453 25.604 1.802 40 9 3.956 1.978 11.5 10.47 11.5 15-6.574 0-.506 10.512-3 15.5-4.678 9.355-11.233 45.5-25 45.5 0-5.153-8.623-20.939-16.5-17-3.791 1.896-1.5 13.371-1.5 17Z"/><path fill="#C7CBCA" id="onl" d="M211 211c.706 0 6-2.726 6 0 0 4.739-29.511 28.495-36.5 25l-5.5-5.5c-1.872-3.745-.183-9.366-2-13-2.3-4.601-6-14.378-6-19.5 0-1.72-.659-11-2-11v-2l-1-28v-2c1.473 0 1-1.952 1-3v-2l1-1v-1c4.112 0 1.622 17.743 3 20.5 4.317 8.633 12.126 41.5 24 41.5 0 14.591 16.119 1 18 1ZM245 210c-1.235 0-5-.643-5 1 0 4.751 28.365 28.568 35.5 25 10.077-5.039 5.425-16.35 9.5-24.5l3-8.5 1-1v-3c0-1.048-.473-3 1-3 0-1.321-.684-6 1-6v-1c0-11.489 1-23.052 1-35v-1l-1-2v-2c-6.574 0-.506 10.512-3 15.5-4.678 9.355-11.233 45.5-25 45.5 0 11.77-18 3.692-18 0Z"/><path fill="#99D2BD" id="OLF" d="m166 149-1 1 1-1ZM291 151l1 2-1-2ZM165 152c-1.473 0-1 1.952-1 3 1.473 0 1-1.952 1-3ZM292 154c1.7 0 1 5.137 1 6.5 0 6.174 1.627 15.746-1 21-.703 1.406 1.261 7.5-1 7.5 0-11.489 1-23.052 1-35ZM164 157c-1.643 0-1 3.765-1 5 0 5.572 1 11.524 1 16.5 0 1.363-.7 6.5 1 6.5l-1-28ZM165 187c1.341 0 2 9.28 2 11-2.497 0-2-8.839-2-11ZM291 190c-1.684 0-1 4.679-1 6 1.684 0 1-4.679 1-6Z"/><path fill="#9AD1BD" id="MOB" d="M193 210c0 14.591 16.119 1 18 1 0-5.094 2.567-12.365 0-17.5h-8c-2.994 2.994-10 12.843-10 16.5ZM245 210c0 3.692 18 11.77 18 0 0-5.153-8.623-20.939-16.5-17-3.791 1.896-1.5 13.371-1.5 17Z"/><path fill="#99D2BD" id="OLF" d="M290 196c-1.473 0-1 1.952-1 3 1.473 0 1-1.952 1-3ZM289 202l-1 1 1-1Z"/></svg>