<svg xmlns="http://www.w3.org/2000/svg" viewBox="0 0 456 320"><path fill="#1E9D5A" id="MOp1" d="M143 43v6c4.87 0 9.429-1.965 13.5-4 4.238-2.12 26.087-6 31.5-6v-1l1-5c-6.101 0-28.648 3.574-33.5 6L143 43Z"/><path fill="#1E9C59" id="MOs1" d="m227 50-5 2-4-6.5c-8.825-8.825-17.883-7.5-30-7.5l1-5c12.473 0 26.641-1.217 32 9.5 1.45 2.9 6 3.974 6 7.5ZM229 50l5 2 3-5.5c1.514-3.029 6.819-6.16 9.5-7.5 6.326-3.163 14.9-1 21.5-1v-5c-13.692 0-22.794-.706-32 8.5l-7 8.5Z"/><path fill="#1E9D5A" id="MOp1" d="M313 43c0 1.745.632 6 0 6-12.617 0-31.702-11-45-11v-5c5.524 0 28.077 3.788 32.5 6l12.5 4Z"/><path fill="#1E9D58" id="MOs2/3" d="m222 53-6 3c0-2.295-2.794-4.147-4.5-5-5.141-2.57-13.921-5.04-20-2l-4.5 2 1-12v-1c12.117 0 21.175-1.325 30 7.5l4 6.5v1ZM240 56h1c0-14.066 23.245-5 29-5l-2-13c-6.6 0-15.174-2.163-21.5 1-2.681 1.34-7.986 4.471-9.5 7.5l-3 5.5v1l6 3Z"/><path fill="#1F9C58" id="MOp2/3" d="M315 67v6c-8.057 0-36.685-22-45-22l-2-13c13.298 0 32.383 11 45 11l1 1v1c0 5.14 1 10.395 1 16ZM141 67l1 6c8.719 0 34.693-22 45-22l1-12c-5.413 0-27.262 3.88-31.5 6-4.071 2.035-8.63 4-13.5 4v3c0 3.364-2 10.539-2 15Z"/><path fill="#187F60" id="SSp-ll1" d="M142 50h1v-7l-3 1 2 6ZM314 50h1l1-6-3-1c0 1.745.632 6 0 6l1 1Z"/><path fill="#197E64" id="SSp-ul1" d="m102 63 3 4c5.917 0 28.247-17 37-17l-2-6c-7.937 0-21.288 9.394-28.5 13-1.647.823-9.5 3.92-9.5 6ZM354 63c0 1.717-1.252 4-3 4-4.453 0-28.845-17-36-17l1-6c8.127 0 21.175 9.337 28.5 13 1.816.908 9.5 3.245 9.5 6Z"/><path fill="#1F9D58" id="MOs5" d="M203 67c-3.138 0-8.309-4.096-12.5-2-2.387 1.194-4.693 4-7.5 4l4-18 4.5-2c6.079-3.04 14.859-.57 20 2 1.706.853 4.5 2.705 4.5 5v1c-5.348 0-8.019 10-13 10ZM253 67c3.261 0 8.263-4.119 12.5-2 2.139 1.07 5.078 4 7.5 4l-3-18c-5.755 0-29-9.066-29 5l12 11Z"/><path fill="#197F61" id="SSp-ul2/3" d="M110 80h1c0-3.002 25.951-13 30-13 0-4.461 2-11.636 2-15l-1-2c-8.753 0-31.083 17-37 17v1c0 4.96 5 7.314 5 12Z"/><path fill="#187F64" id="SSp-ll2/3" d="M143 50v2l-1-2h1Z"/><path fill="#3EA665" id="ACAd1" d="M223 78h10c0-8.501 1-17.04 1-25v-1l-5-2c0 1.93-1.161 0-2 0l-5 2v1c1.684 0 1 4.68 1 6v19Z"/><path fill="#187F64" id="SSp-ll2/3" d="m315 50-1 1v-1h1Z"/><path fill="#197F61" id="SSp-ul2/3" d="m352 69-6 10c-2.827 0-4.163-2.832-6.5-4-6.456-3.228-16.987-8-24.5-8 0-5.605-1-10.86-1-16l1-1c7.155 0 31.547 17 36 17l1 2Z"/><path fill="#1E9C5A" id="MOp5" d="M141 74c0 3.483 1 9.887 1 14 9.541 0 35.965-18 41-18v-1l4-18c-10.307 0-36.281 22-45 22l-1 1ZM315 74v14c-6.447 0-26.165-9.833-32.5-13l-9.5-6-3-18c8.315 0 36.943 22 45 22v1Z"/><path fill="#40A565" id="ACAd2/3" d="M223 78c-1.564 0-3.876 1-6 1V62c0-1.234.643-5-1-5v-1l6-3c1.684 0 1 4.68 1 6v19ZM233 78c1.564 0 3.876 1 6 1 0-7.62 1-16.035 1-23l-6-3c0 7.96-1 16.499-1 25Z"/><path fill="#3EA566" id="ACAd5" d="m239 79 12 6 2-17v-1l-12-11h-1c0 6.965-1 15.38-1 23ZM217 80c-4.77 0-7.724 5-12 5 0-2.805.155-16-2-16v-2c4.981 0 7.652-10 13-10 1.643 0 1 3.766 1 5v18Z"/><path fill="#1B8062" id="SSp-un1" d="M101 71h1l3-3v-1l-3-4c-1.417 0-6 2.383-6 4 1.562 0 5 2.189 5 4ZM352 69l3 1c2.364 0 3.053-3 5-3 0-1.617-4.583-4-6-4 0 1.717-1.252 4-3 4l1 2Z"/><path fill="#1D9C5A" id="MOs6a" d="M191 89c-3.638 0-5.929 2-9 2 0-3.203-1-7.112-1-9.5 0-3.348 2-7.945 2-11.5v-1c2.807 0 5.113-2.806 7.5-4 4.191-2.096 9.362 2 12.5 2v2c-2.662 0-12 17.37-12 20ZM274 91h1c0-7.728-2-15.175-2-22-2.422 0-5.361-2.93-7.5-4-4.237-2.119-9.239 2-12.5 2v1c2.421 0 12 18.04 12 21 3.423 0 6.474 2 9 2Z"/><path fill="#187E61" id="SSp-m1" d="M57 133h1c0-3.003 1.727-5.953 3-8.5 1.419-2.837.553-7.107 2-10 5.863-11.726 11.343-20.343 21-30C86.888 81.612 97.784 71 101 71c0-1.811-3.438-4-5-4-4.242 0-7.183 8-11 8 0 1.747-.253 2-2 2L73 87.5c-8.416 8.416-20 31.696-20 43.5l4 2Z"/><path fill="#1A7F63" id="SSp-ul4" d="M114 87h1c5.755 0 18.841-13 26-13l1-1-1-6c-4.049 0-30 9.998-30 13 0 2.25 2 3.376 2 5l1 2ZM344 85l-2 2c-7.842 0-18.307-13-27-13v-7c7.513 0 18.044 4.772 24.5 8 2.337 1.168 3.673 4 6.5 4v1l-1 3-1 2Z"/><path fill="#187E61" id="SSp-m1" d="m403 130-4 3-3-7.5-3-12-12-20-8-8c-1.779-3.558-14.455-14.5-18-14.5v-1c2.364 0 3.053-3 5-3 1.974 0 11 6.051 11 8 0 .886 3 4.22 3 2 2.271 0 8.649 8.799 10 11.5l7 9c4.743 9.487 12 21.285 12 32.5Z"/><path fill="#1C7F63" id="SSp-un2/3" d="M109 80h1c0-4.686-5-7.04-5-12l-3 3c3.2 0 3.412 9 7 9Z"/><path fill="#3FA664" id="ACAd6a" d="M260 94h1c0-1.238.423-3 2-3l2-2c0-2.96-9.579-21-12-21l-2 17v1c1.397 0 9 6.982 9 8ZM191 89l5 5 9-8v-1c0-2.805.155-16-2-16-2.662 0-12 17.37-12 20Z"/><path fill="#1F9B5A" id="MOp6a" d="M275 91c0 2.917 7.701 3.1 9.5 4l30.5 13V88c-6.447 0-26.165-9.833-32.5-13l-9.5-6c0 6.825 2 14.272 2 22Z"/><path fill="#1C7F63" id="SSp-un2/3" d="M347 81h1c0-1.727 4.705-10 7-10v-1l-3-1-6 10v1l1 1Z"/><path fill="#1F9B5A" id="MOp6a" d="M151 105c-3.823 0-6.314 3-10 3 0-5.9 1-13.427 1-20 9.541 0 35.965-18 41-18 0 3.555-2 8.152-2 11.5 0 2.388 1 6.297 1 9.5v1l-1 1c-2.657 0-16 4.05-16 6-1.761 0-10 2.307-10 4l-4 2Z"/><path fill="#1A7E64" id="SSp-m2/3" d="M58 133c3.242 0 5.319 4 9 4 1.951 0 .477-2.454 1-3.5l5-15c6.103-12.207 14.184-25.842 27.5-32.5 2.734-1.367 5.286-5 8.5-5v-1c-3.588 0-3.8-9-7-9h-1c-3.216 0-14.112 10.612-17 13.5-9.657 9.657-15.137 18.274-21 30-1.447 2.893-.581 7.163-2 10-1.273 2.547-3 5.497-3 8.5ZM399 133l-10 5c0-13.858-14.549-41.025-26.5-47-4.643-2.321-9.116-10-14.5-10 0-1.727 4.705-10 7-10 3.545 0 16.221 10.942 18 14.5l8 8 12 20 3 12 3 7.5Z"/><path fill="#187E62" id="SSp-ul5" d="m142 73-1 1 1-1ZM142 88c-7.342 0-13.725 9-21 9-2.641 0-6-7.983-6-10 5.755 0 18.841-13 26-13 0 3.483 1 9.887 1 14ZM335 98h1c0-1.309 4.611-10 6-10v-1c-7.842 0-18.307-13-27-13v15c2.71 0 20 7.81 20 9Z"/><path fill="#197E63" id="SSp-n1" d="m85 75-2 2c1.747 0 2-.253 2-2ZM371 75l3 2c0 2.22-3-1.114-3-2Z"/><path fill="#3FA566" id="ACAv2/3" d="m221 113-3 1c0-11.283-1-23.373-1-34v-1c2.124 0 4.436-1 6-1 0 10.742-1 21.854-1 32l-1 3Z"/><path fill="#40A664" id="ACAv1" d="M229 105c3.424 0 3.518 5 5 5 0-10.355-1-21.128-1-32h-10c0 10.742-1 21.854-1 32 2.047 0 2.168-5 5-5 0-3.15 2-3.446 2 0Z"/><path fill="#3FA566" id="ACAv2/3" d="m235 112 3 1c0-10.627 1-22.717 1-34-2.124 0-4.436-1-6-1 0 10.872 1 21.645 1 32l1 2Z"/><path fill="#3EA666" id="ACAv5" d="M247 109c0 2.644-9 5.004-9 4 0-10.627 1-22.717 1-34l12 6v1c0 9.088-4 17.422-4 23Z"/><path fill="#197E61" id="SSp-un4" d="M109 81c0 1.634 2.634 4 4 4 0-1.624-2-2.75-2-5h-2v1Z"/><path fill="#3EA666" id="ACAv5" d="M209 109c0 1.987 7.371 5 9 5 0-11.283-1-23.373-1-34-4.77 0-7.724 5-12 5v1c0 8.295 4 15.542 4 23Z"/><path fill="#197E61" id="SSp-un4" d="m347 81-2 2 1-3 1 1Z"/><path fill="#1B7F62" id="SSp-m4" d="M72 140h1c0-6.71 16.814-37.657 23.5-41l13-9c1.185-.592 4.5-1.012 4.5-3l-1-2c-1.366 0-4-2.366-4-4-3.214 0-5.766 3.633-8.5 5-13.316 6.658-21.397 20.293-27.5 32.5l-5 15c-.523 1.046.951 3.5-1 3.5v1c1.041 0 5 .986 5 2ZM389 138l-5 1-7-15.5c-4.64-9.28-23.465-35.5-35-35.5v-1l2-2 1-2 2-2h1c5.384 0 9.857 7.679 14.5 10 11.951 5.975 26.5 33.142 26.5 47Z"/><path fill="#197E61" id="SSp-un4" d="m345 83-1 2 1-2Z"/><path fill="#40A564" id="ACAv6a" d="M207 109h2c0-7.458-4-14.705-4-23l-9 8v1l3 5.5 7 6.5 1 2ZM247 109h2l1-2c0-1.577 1.762-2 3-2 0-3.612 7-6.605 7-11 0-1.018-7.603-8-9-8 0 9.088-4 17.422-4 23Z"/><path fill="#1B7E63" id="SSp-m5" d="M83 145h1c0-16.099 12.888-34.694 27.5-42 3.156-1.578 5.742-5 9.5-5v-1c-2.641 0-6-7.983-6-10h-1c0 1.988-3.315 2.408-4.5 3l-13 9c-6.686 3.343-23.5 34.29-23.5 41l10 5Z"/><path fill="#197D61" id="SSp-ul6a" d="M130 113h1c3.396 0 6.052-4 10-4v-1c0-5.9 1-13.427 1-20-7.342 0-13.725 9-21 9v1l9 15Z"/><path fill="#1B7E63" id="SSp-m5" d="M384 141c-4.254 0-7.157 4-11 4 0-13.72-14.131-34.315-25.5-40-2.962-1.481-7.116-7-11.5-7 0-1.309 4.611-10 6-10 11.535 0 30.36 26.22 35 35.5l7 15.5v2Z"/><path fill="#1E9C58" id="MOs6b" d="M182 92v1c2.675 0 5.922-3 9-3v-1c-3.638 0-5.929 2-9 2v1Z"/><path fill="#3FA466" id="ACAd6b" d="M195 95h1v-1l-5-5v1l4 5ZM265 90l-2 1 2-2v1Z"/><path fill="#1E9C58" id="MOs6b" d="M274 91v2c-2.343 0-6.082-3-9-3v-1c3.423 0 6.474 2 9 2Z"/><path fill="#197D61" id="SSp-ul6a" d="M326 113h1c0-6.036 8-8.717 8-15 0-1.19-17.29-9-20-9v20c4.254 0 7.157 4 11 4Z"/><path fill="#CACCC7" id="cing" d="m206 107 1 2c-10.052 0-10.493-9.997-18.5-14-5.901-2.95-13.246 5-18.5 5l-1 1h-5l1-2c3.856 0 7.268-2.384 10.5-4 1.319-.66 5.5.334 5.5-2h1c2.675 0 5.922-3 9-3l4 5c0 3.975 7.164 12 11 12ZM250 107l-1 2c9.882 0 11.537-10.018 19.5-14 5.925-2.963 12.413 5 17.5 5l1 1h2l7 1c0-1.183-3.57-1.535-4.5-2-3.772-1.886-13.517-7-17.5-7-2.343 0-6.082-3-9-3l-2 1-2 4c0 3.206-4.213 10-8 10 0 1.577-1.762 2-3 2Z"/><path fill="#3FA466" id="ACAd6b" d="M261 94v1l2-4c-1.577 0-2 1.762-2 3Z"/><path fill="#1D9D5A" id="MOp6b" d="M315 108v1c-7.06 0-12.202-7-19-7 0-1.183-3.57-1.535-4.5-2-3.772-1.886-13.517-7-17.5-7v-2h1c0 2.917 7.701 3.1 9.5 4l30.5 13ZM181 93h1v-1l-1 1ZM181 93c-2.657 0-16 4.05-16 6 3.856 0 7.268-2.384 10.5-4 1.319-.66 5.5.334 5.5-2Z"/><path fill="#40A465" id="ACAv6b" d="M261 95c0 3.206-4.213 10-8 10 0-3.612 7-6.605 7-11h1v1Z"/><path fill="#C9C7C9" id="ccb" d="M359 166h1l-1-5-1-2v-1l-1-1v-2l-4-8v-1c-2.08 0-5.177-7.853-6-9.5-3.152-6.303-13.769-16.134-20.5-19.5-9.396-4.698-19.666-7.333-29-12-1.642-.821-8.5-1.379-8.5-4h-2l-1-1c-5.087 0-11.575-7.963-17.5-5-7.963 3.982-9.618 14-19.5 14h-2c0 2.644-9 5.004-9 4l-3-1c0 3.926-12.036 1-14 1l-3 1c-1.629 0-9-3.013-9-5h-2c-10.052 0-10.493-9.997-18.5-14-5.901-2.95-13.246 5-18.5 5l-1 1h-1c0 1.722-5.235 2.368-6.5 3-6.264 3.132-13.808 3.904-20 7-6.865 3.432-13.822 8.911-20 12l-6.5 6c0 1.747-.253 2-2 2 0 1.654-4.228 9-6 9 0 1.238-.423 3-2 3 0 1.465.109 4-2 4l-1 2-1 2v4l4.5-7c5.064-5.064 8.142-17.571 15-21 24.617-12.308 30.207-17 60.5-17l5.5-1c1.896.948 11.5 5.987 11.5 8h1l2 2 2 1 1 1 1 2 4.5-1c1.299.65 11.808 5 12.5 5h5c0-3.803 2.524 0 3 0h5c0-1.706 13.462-5 16-5l4-3 1-1h1l1-1h1l1-1 1-1 4-2c0-4.49 7.552-3 10-3 30.734 0 59.669 6.838 74 35.5 3.118 6.235 10 13.209 10 20.5Z"/><path fill="#40A465" id="ACAv6b" d="m196 95 3 5.5 7 6.5c-3.836 0-11-8.025-11-12h1Z"/><path fill="#187D61" id="SSp-m6a" d="M84 145c4.502 0 9.973 7 15 7 0-2.433 5.203-15 8-15 0-5.074 16.862-22 22-22l1-2-9-15c-3.758 0-6.344 3.422-9.5 5-14.612 7.306-27.5 25.901-27.5 42ZM357 152h1c4.881 0 10.293-7 15-7 0-13.72-14.131-34.315-25.5-40-2.962-1.481-7.116-7-11.5-7h-1c0 6.283-8 8.964-8 15l11.5 9c6.968 6.968 18.5 20.21 18.5 30Z"/><path fill="#1D9D5A" id="MOp6b" d="m161 102-6 1c0-1.693 8.239-4 10-4l-1 2h-1l-2 1Z"/><path fill="#C9C9CA" id="scwm" d="m170 100-1 1 1-1ZM286 100l1 1-1-1Z"/><path fill="#CACCC7" id="cing" d="m163 101-2 1 2-1Z"/><path fill="#C9C9CA" id="scwm" d="M129 115c0 2.525-14 8.5-14 14l6.5-6c6.178-3.089 13.135-8.568 20-12 6.192-3.096 13.736-3.868 20-7 1.265-.632 6.5-1.278 6.5-3h-5l-2 1-6 1c0 2.109-2.535 2-4 2 0 1.817-7.169 4-9 4 0 1.221-9.474 5-11 5l-2 1ZM325 114l9 6.5c5.471 5.471 19 18.413 19 25.5-2.08 0-5.177-7.853-6-9.5-3.152-6.303-13.769-16.134-20.5-19.5-9.396-4.698-19.666-7.333-29-12-1.642-.821-8.5-1.379-8.5-4l7 1c6.798 0 11.94 7 19 7l10 5Z"/><path fill="#1D9D5A" id="MOp6b" d="m155 103-4 2c1.465 0 4 .109 4-2ZM141 109h1c1.831 0 9-2.183 9-4-3.823 0-6.314 3-10 3v1Z"/><path fill="#7ED04B" id="IG" d="M235 112c0 3.926-12.036 1-14 1l1-3c2.047 0 2.168-5 5-5 .839 0 2 1.93 2 0 3.424 0 3.518 5 5 5l1 2Z"/><path fill="#40A465" id="ACAv6b" d="M253 105c-1.238 0-3 .423-3 2 1.238 0 3-.423 3-2Z"/><path fill="#1C8064" id="SSp-ul6b" d="M131 113v1c1.526 0 11-3.779 11-5h-1c-3.948 0-6.604 4-10 4Z"/><path fill="#AAA8A9" id="SEZ" d="M185 113c6.891 0 9.396 4 13 4 0-2.013-9.604-7.052-11.5-8l-5.5 1c0 .966 2.886 3 4 3ZM265 113c2.355 0 6-2.685 6 1l4-4c-2.448 0-10-1.49-10 3Z"/><path fill="#1C8064" id="SSp-ul6b" d="m326 113-1 1-10-5c4.254 0 7.157 4 11 4Z"/><path fill="#98D5F9" id="CP" d="M130 236h3c0-1.579 2.855-1 4-1 5.169 0 24.019-.259 27.5-2l8.5-4.5 4-5.5c0-7.704 3.826-38 13-38 0-4.121 1-9.275 1-14l1-14c0-1.048-.473-3 1-3v-7c0-4.708-.175-15.851-2-19.5-1.989-3.978-6-9.922-6-14.5-1.114 0-4-2.034-4-3-30.293 0-35.883 4.692-60.5 17-6.858 3.429-9.936 15.936-15 21l-4.5 7c0 1.761-2.307 10-4 10v1c0 1.048.473 3-1 3v1c0 1.406.714 7-1 7 0 .918 5.874 28.247 6 28.5l2 4.5c0 4.333 6 9.188 6 13l10 8 1 1h1c.833 0 9 3.908 9 4ZM324 236h2c0-.963 7.561-3 9-3l1-1 1-1h1c0-1.577 1.762-2 3-2l2-2 2-2 2-2 1-1c0-3.91 5-7.393 5-12l1-1c0-12.016 7-22.135 7-35v-3c-1.473 0-1-1.952-1-3v-1l-1-1c0-7.291-6.882-14.265-10-20.5-14.331-28.662-43.266-35.5-74-35.5l-4 4c0 5.493-8 20.14-8 30v5l1 2v4c0 5.521 1 11.898 1 18 0 3.249 1 7.194 1 11l2.5 3c11.334 5.667 4.736 16.972 8.5 24.5 1.32 2.639 3 8.6 3 11.5 0 11.357 30.612 12 39 12 1.235 0 5-.643 5 1Z"/><path fill="#A8AAAA" id="VL" d="M193 147h1c0-9.418 11-20.188 11-24l-1-2-1-1-2-1-2-2h-1c-3.604 0-6.109-4-13-4 0 4.578 4.011 10.522 6 14.5 1.825 3.649 2 14.792 2 19.5ZM251 122c0 3.884 6.139 8.778 8 12.5.729 1.457 2.364 9.5 4 9.5 0-9.86 8-24.507 8-30 0-3.685-3.645-1-6-1 0 2.109-2.535 2-4 2l-1 1-1 1h-1l-1 1h-1l-1 1-4 3Z"/><path fill="#188064" id="SSp-m6b" d="m131 114-2 1 1-2h1v1Z"/><path fill="#AAA8A9" id="SEZ" d="m265 113-4 2c1.465 0 4 .109 4-2Z"/><path fill="#188064" id="SSp-m6b" d="M356 152h1c0-9.79-11.532-23.032-18.5-30l-11.5-9h-1l-1 1 9 6.5c5.471 5.471 19 18.413 19 25.5v1c1.477 0 3 3.924 3 5ZM113 131l-6 6c0-5.074 16.862-22 22-22 0 2.525-14 8.5-14 14-1.747 0-2 .253-2 2Z"/><path fill="#AAA8A9" id="SEZ" d="m261 115-1 1 1-1ZM260 116l-1 1 1-1ZM199 117l2 2-2-2ZM258 117l-1 1 1-1ZM256 118l-1 1 1-1ZM203 120l1 1-1-1Z"/><path fill="#90CBEC" id="LSc" d="M194 147c0 1.577 1.762 2 3 2l6.5-6 16.5-10.5 2-3.5v-2c-.692 0-11.201-4.35-12.5-5l-4.5 1c0 3.812-11 14.582-11 24ZM263 147l-4 2c0-5.974-24-12.677-24-20v-2c0-1.706 13.462-5 16-5 0 3.884 6.139 8.778 8 12.5.729 1.457 2.364 9.5 4 9.5v3Z"/><path fill="#97D6F9" id="STR" d="M227 127c0 2.202 3 2.202 3 0-.476 0-3-3.803-3 0ZM224 127l-2 2v-2h2Z"/><path fill="#90CAED" id="LSr" d="M218 191h1v-5c0-1.048-.473-3 1-3v-2c0-1.145-.579-4 1-4v-3c0-1.145-.579-4 1-4v-1c0-1.048-.473-3 1-3v-3c0-1.048-.473-3 1-3v-1c0-1.048-.473-3 1-3v-3l1-2 2-9c0-1.186 1-1.186 1 0 0 4.7 2 7.3 2 12 1.473 0 1 1.952 1 3v1c1.473 0 1 1.952 1 3v3c1.473 0 1 1.952 1 3v1c1.473 0 1 1.952 1 3v4c1.473 0 1 1.952 1 3v2c1.473 0 1 1.952 1 3v4c1.643 0 1 3.765 1 5l5.5-7c7.359-3.679 11.516-12 20.5-12h1c0-6.102-1-12.479-1-18l-5-6c0-5.974-24-12.677-24-20l-3-2h-2c0 2.202-3 2.202-3 0h-3l-2 2-2 3.5-16.5 10.5-6.5 6-4 5c0 1.048.473 3-1 3l-1 14c1.473 0 1 1.952 1 3 1.423 0 3.544-1.978 5.5-1l15 12 5.5 6Z"/><path fill="#97D6F9" id="STR" d="M235 127v2l-3-2h3Z"/><path fill="#C9C9CA" id="scwm" d="M115 129c-1.747 0-2 .253-2 2 1.747 0 2-.253 2-2Z"/><path fill="#1A7E62" id="SSs1" d="M405 177h4c0-2.128 1.054-5.608 2-7.5 2.682-5.365-1.876-25.752-4-30-.79-1.58-2.016-9.5-4-9.5l-4 3c0 5.744 3.516 13.532 6 18.5 2.675 5.349 0 18.172 0 24.5v1ZM47 177h5v-1c0-5.328-3.755-16.991-1-22.5 2.727-5.455 6-14.158 6-20.5l-4-2c-1.984 0-3.21 7.92-4 9.5-5.345 10.689-2 24.733-2 36.5Z"/><path fill="#C9C9CA" id="scwm" d="M107 137v3c1.772 0 6-7.346 6-9l-6 6Z"/><path fill="#1B8063" id="SSs2/3" d="M61 175c-3.222 0-6.277 1-9 1 0-5.328-3.755-16.991-1-22.5 2.727-5.455 6-14.158 6-20.5h1c3.242 0 5.319 4 9 4v1c0 10.921-6 22.557-6 37ZM395 175l10 1c0-6.328 2.675-19.151 0-24.5-2.484-4.968-6-12.756-6-18.5l-10 5c0 3.744 2.336 10.173 4 13.5 3.066 6.132 2 16.164 2 23.5Z"/><path fill="#188064" id="SSp-m6b" d="M100 152h1v-1l1-2 1-2 2-4c0-1.238.423-3 2-3v-3c-2.797 0-8 12.567-8 15h1Z"/><path fill="#187C63" id="SSs4" d="m67 174-6 1c0-14.443 6-26.079 6-37 1.041 0 5 .986 5 2 0 3.341-1.539 8.578-3 11.5-2.162 4.324-2 16.94-2 22.5ZM390 174l5 1c0-7.336 1.066-17.368-2-23.5-1.664-3.327-4-9.756-4-13.5l-5 1v2c1.781 0 1.348 6.197 2 7.5 3.577 7.154 3 16.882 3 25.5h1Z"/><path fill="#1C8063" id="SSs5" d="M68 175h1l2-1c2.097 0 5.293-1 8-1 0-9.847 4-18.607 4-28l-10-5h-1c0 3.341-1.539 8.578-3 11.5-2.162 4.324-2 16.94-2 22.5l1 1Z"/><path fill="#C9C9CA" id="scwm" d="M107 140c-1.577 0-2 1.762-2 3 1.577 0 2-1.762 2-3Z"/><path fill="#97D6F9" id="STR" d="M228 142h1c0-1.186-1-1.186-1 0Z"/><path fill="#1C8063" id="SSs5" d="M387 175h1l1-1c0-8.618.577-18.346-3-25.5-.652-1.303-.219-7.5-2-7.5-4.254 0-7.157 4-11 4 0 9.134 4 17.829 4 28 2.707 0 5.903 1 8 1l2 1Z"/><path fill="#8FCBEC" id="SF" d="m226 153 2.5-2 2.5 3c0-4.7-2-7.3-2-12h-1l-2 9v2Z"/><path fill="#C9C9CA" id="scwm" d="m105 143-2 4c2.109 0 2-2.535 2-4Z"/><path fill="#197D63" id="SSs6a" d="m93 172-14 1c0-9.847 4-18.607 4-28h1c4.502 0 9.973 7 15 7 0 6.069-5 12.378-5 19l-1 1ZM363 172c4.602 0 9.021 1 14 1 0-10.171-4-18.866-4-28-4.707 0-10.119 7-15 7l5 19v1Z"/><path fill="#C9C9CA" id="scwm" d="m103 147-1 2 1-2Z"/><path fill="#97D6F9" id="STR" d="m197 149-4 5v-7h1c0 1.577 1.762 2 3 2ZM264 151v4l-5-6 4-2v2l1 2Z"/><path fill="#C9C9CA" id="scwm" d="m356 152 1 3-4-8c1.477 0 3 3.924 3 5ZM102 149l-1 2 1-2Z"/><path fill="#A8AAAA" id="VL" d="m263 149 1 2-1-2Z"/><path fill="#97D6F9" id="STR" d="M225 153h1v-2l-1 2Z"/><path fill="#96A7D3" id="MS" d="M225 225c1.639 0 2.455-2 3.5-2 .63 0 .688 2 2.5 2l3-6 1-6c0-4.131 2-8.96 2-14v-16c-1.473 0-1-1.952-1-3v-2c-1.473 0-1-1.952-1-3v-4c-1.473 0-1-1.952-1-3v-1c-1.473 0-1-1.952-1-3v-3c-1.473 0-1-1.952-1-3v-1c-1.473 0-1-1.952-1-3l-2.5-3-2.5 2-1 2v1c0 1.048.473 3-1 3v1c0 1.048.473 3-1 3v3c0 1.048.473 3-1 3v1c0 1.145.579 4-1 4v3c0 1.145.579 4-1 4v2c0 1.048.473 3-1 3v15l2 12c0 1.996 2 4.985 2 8l2 4Z"/><path fill="#1A8061" id="SSs6b" d="M94 171h1l1-1v-4l1-1v-3l1-1v-2l1-1v-2l1-1v-3h-1c0 6.069-5 12.378-5 19Z"/><path fill="#C9C9CA" id="scwm" d="M100 155h1v-3h-1v3Z"/><path fill="#1A8061" id="SSs6b" d="M361 171h2l-5-19h-2l1 3v2l1 1v1l1 2 1 5v2c1.473 0 1 1.952 1 3Z"/><path fill="#8FCBEC" id="SF" d="m226 153-1 2v-2h1Z"/><path fill="#97D6F9" id="STR" d="M193 154c-1.473 0-1 1.952-1 3 1.473 0 1-1.952 1-3ZM231 154c1.473 0 1 1.952 1 3-1.473 0-1-1.952-1-3Z"/><path fill="#C9C9CA" id="scwm" d="m100 155-1 1 1-1Z"/><path fill="#C9C7C9" id="ccb" d="M97 162v3c1.693 0 4-8.239 4-10h-1l-1 1v2l-1 1v2l-1 1Z"/><path fill="#97D6F9" id="STR" d="M225 156c-1.473 0-1 1.952-1 3 1.473 0 1-1.952 1-3Z"/><path fill="#C9C9CA" id="scwm" d="m357 157 1 1-1-1ZM99 158l-1 1 1-1Z"/><path fill="#97D6F9" id="STR" d="M232 158c1.473 0 1 1.952 1 3-1.473 0-1-1.952-1-3Z"/><path fill="#C9C9CA" id="scwm" d="m358 159 1 2-1-2Z"/><path fill="#97D6F9" id="STR" d="M224 160c-1.473 0-1 1.952-1 3 1.473 0 1-1.952 1-3Z"/><path fill="#C9C9CA" id="scwm" d="m98 161-1 1 1-1Z"/><path fill="#97D6F9" id="STR" d="M233 164c1.473 0 1 1.952 1 3-1.473 0-1-1.952-1-3Z"/><path fill="#C9C7C9" id="ccb" d="M96 166h1v-1l-1 1Z"/><path fill="#C8CBCC" id="ec" d="M97 166c0 1.048.473 3-1 3v-3h1Z"/><path fill="#97D6F9" id="STR" d="M223 166c-1.473 0-1 1.952-1 3 1.473 0 1-1.952 1-3Z"/><path fill="#C8CBCC" id="ec" d="M360 166v1l-1-1h1Z"/><path fill="#97D6F9" id="STR" d="M234 168c1.473 0 1 1.952 1 3-1.473 0-1-1.952-1-3Z"/><path fill="#C8CBCC" id="ec" d="M360 168c1.473 0 1 1.952 1 3-1.473 0-1-1.952-1-3ZM95 171v6c1.714 0 1-5.594 1-7l-1 1Z"/><path fill="#97D6F9" id="STR" d="M222 170c-1.579 0-1 2.855-1 4 1.579 0 1-2.855 1-4Z"/><path fill="#1A8061" id="SSs6b" d="m94 171-1 1 1-1Z"/><path fill="#019C74" id="GU6b" d="M94 187h1c0-1.495-2.412-10 0-10v-6h-1l-1 1c0 4.933 1 10.73 1 15Z"/><path fill="#A8AAAA" id="VL" d="M190 185c0 1.606 2 6.398 2 4v-15c0-1.048.473-3-1-3 0 4.725-1 9.879-1 14Z"/><path fill="#019C74" id="GU6b" d="M361 188h2v-17h-2v3c2.872 0 0 12.72 0 14Z"/><path fill="#009B74" id="GU6a" d="m369 191 6 1c0-5.878 2-12.244 2-19-4.979 0-9.398-1-14-1v16c1.402 0 6 1.11 6 3ZM87 191l-6 2c0-7.077-2-12.65-2-20l14-1c0 4.933 1 10.73 1 15l-7 4Z"/><path fill="#019C75" id="GU5" d="M68 195h1c3.922 0 6.874-2 12-2 0-7.077-2-12.65-2-20-2.707 0-5.903 1-8 1l-2 1h-2v1c0 6.318 1 13.322 1 19Z"/><path fill="#8FCBED" id="LSv" d="m202 199 11.5 6c3.09 1.545 3.915-4 5.5-4v-8l-1-2-5.5-6-15-12c-1.956-.978-4.077 1-5.5 1v15l4 5 4 3 1 1 1 1ZM253 200l-1 1-11.5 4-3.5-6v-5l1-2 5.5-7c7.359-3.679 11.516-12 20.5-12v17l-1 2-1 1-3 2-1 1-4 3-1 1Z"/><path fill="#A8AAAA" id="VL" d="M266 184c0 2.426 1.024 6-2 6v-17h1c0 3.249 1 7.194 1 11Z"/><path fill="#019C75" id="GU5" d="M375 193c4.908 0 8.486 2 13 2 0-5.629 2-12.364 2-19v-1h-3l-2-1c-2.097 0-5.293-1-8-1 0 6.756-2 13.122-2 19v1Z"/><path fill="#11AC82" id="VISC4" d="m67 176-5 1-1-2 6-1v2Z"/><path fill="#12AD82" id="VISC5" d="M67 175h1l-1-1v1ZM71 174l-2 1 2-1Z"/><path fill="#C8CBCC" id="ec" d="M354 209h1l2-3v-2c0-1.145-.579-4 1-4 0-1.048-.473-3 1-3v-2l1-2 1-1v-4c0-1.28 2.872-14 0-14 0 12.865-7 22.984-7 35Z"/><path fill="#12AD82" id="VISC5" d="m385 174 2 1-2-1ZM388 175h2v-1h-1l-1 1Z"/><path fill="#11AC82" id="VISC4" d="m390 176 5 1v-2l-5-1v2Z"/><path fill="#12AC83" id="VISC2/3" d="m62 177-9 3-1-3v-1c2.723 0 5.778-1 9-1l1 2Z"/><path fill="#97D6F9" id="STR" d="M235 175c1.473 0 1 1.952 1 3-1.473 0-1-1.952-1-3Z"/><path fill="#12AC83" id="VISC2/3" d="M403 180h1c0-1.048-.473-3 1-3v-1l-10-1v2l8 3Z"/><path fill="#009C74" id="GU4" d="m68 195-1 1c0-5.076-5-12.245-5-19l5-1c0 6.318 1 13.322 1 19ZM388 196h1c0-3.012 6-13.775 6-19l-5-1c0 6.636-2 13.371-2 19v1Z"/><path fill="#12AD83" id="VISC1" d="m53 181-4 1c-.672 0-2-4.329-2-5h5l1 3v1Z"/><path fill="#009B75" id="GU2/3" d="m67 196-8 1c-2.334 0-1.34-4.181-2-5.5-1.515-3.031-4-6.959-4-10.5v-1l9-3c0 6.755 5 13.924 5 19Z"/><path fill="#C8CBCC" id="ec" d="m101 209 2 1-2-4.5c-.126-.253-6-27.582-6-28.5-2.412 0 0 8.505 0 10l1 4v1l1 2v1c1.231 0 3 7.622 3 9v2l1 3Z"/><path fill="#97D6F9" id="STR" d="M221 177c-1.579 0-1 2.855-1 4 1.579 0 1-2.855 1-4Z"/><path fill="#009B75" id="GU2/3" d="m389 196 8 1c2.333 0 6-14.193 6-17l-8-3c0 5.225-6 15.988-6 19Z"/><path fill="#12AD83" id="VISC1" d="m404 180 4 2 1-5h-4c-1.473 0-1 1.952-1 3Z"/><path fill="#97D6F9" id="STR" d="M236 180c1.473 0 1 1.952 1 3-1.473 0-1-1.952-1-3Z"/><path fill="#009C75" id="GU1" d="m397 198 5 1 6-17-4-2h-1c0 2.807-3.667 17-6 17v1ZM59 198c-1.429 0-4 .454-4 1-1.183 0-1.535-3.57-2-4.5-1.766-3.531-4-8.346-4-12.5l4-1c0 3.541 2.485 7.469 4 10.5.66 1.319-.334 5.5 2 5.5v1Z"/><path fill="#97D6F9" id="STR" d="M220 183c-1.473 0-1 1.952-1 3 1.473 0 1-1.952 1-3ZM275 222l5 1c0-2.9-1.68-8.861-3-11.5-3.764-7.528 2.834-18.833-8.5-24.5l-2.5-3c0 2.426 1.024 6-2 6l-1 2c4.051 0 8-.712 8 5l1 2v1c1.473 0 1 1.952 1 3 0 3.133-2.478 19 2 19ZM182 222l-5 1c0-7.704 3.826-38 13-38 0 1.606 2 6.398 2 4l4 5c-2.781 0-10-6.102-10 1l-1 1v3l-1 2c0 5.582 1 8.933 1 14-.733 0-3 6.022-3 7Z"/><path fill="#209666" id="AId6a" d="m87 191 2 4c0-1.925 3.075-5 5-5v-3l-7 4Z"/><path fill="#1F9766" id="AId6b" d="m94 190 2 1-1-4h-1v3Z"/><path fill="#97D6F9" id="STR" d="m238 192-1 2v-7c1.643 0 1 3.765 1 5Z"/><path fill="#1F9766" id="AId6b" d="M361 190h1l1-2h-2v2Z"/><path fill="#209666" id="AId6a" d="m369 191-2 4c0-2.362-2.638-5-5-5l1-2c1.402 0 6 1.11 6 3Z"/><path fill="#8ADA86" id="CLA" d="M93 209h2l3-1 1-2v-2c0-3.157-2-5.481-2-9v-1l-1-2v-1l-2-1c-1.925 0-5 3.075-5 5 0 5.633 4 11.584 4 14Z"/><path fill="#209666" id="AId6a" d="m362 190-1 1v-1h1Z"/><path fill="#8ADA86" id="CLA" d="M361 209h2l1-1c0-2.411 3-7.6 3-13 0-2.362-2.638-5-5-5l-1 1v1l-1 1-1 2v2c0 1.048.473 3-1 3 0 1.145.579 4-1 4v2l3 3h1Z"/><path fill="#209766" id="AIp6a" d="m93 211-4 1c0-6.104-8-12.474-8-19l6-2 2 4c0 5.633 4 11.584 4 14v2Z"/><path fill="#B3C0DE" id="BST" d="M184 231h11c5.797 0 6.341-9 13-9l1-2v-7l-1-1c0-4.571-6-10.868-6-13l-1-1-1-1-4-3c-2.781 0-10-6.102-10 1l-1 1v3l-1 2c0 5.582 1 8.933 1 14 1.845 0 1.441-3.381 2-4.5l6.5-3.5c2.286-1.143 7.668 5.165 6.5 7.5-3.128 6.255-15 12.064-15 .5-.733 0-3 6.022-3 7 0 1.477 2 5.699 2 9Z"/><path fill="#97D6F9" id="STR" d="M219 191v2l-1-2h1Z"/><path fill="#B3C0DE" id="BST" fill-rule="evenodd" d="M262 207c0 2.069-5 1.43-5 4.5 0 14.06 18.657 13.314 12 0-1.347-2.694-3.798-4.5-7-4.5m-1 24h12v-7.5l2-1.5c-4.478 0-2-15.867-2-19-1.473 0-1-1.952-1-3v-1l-1-2c0-5.712-3.949-5-8-5l-1 1-3 2-1 1-4 3-1 1-1 1-4 11-1 2v5l2 2c5.545 0 5.648 10 12 10Z"/><path fill="#209766" id="AIp6a" d="m363 210 4 2c1.845 0 1.441-3.381 2-4.5 2.192-4.384 6-9.308 6-14.5v-1l-6-1-2 4c0 5.4-3 10.589-3 13l-1 1v1Z"/><path fill="#209666" id="AId6a" d="m96 192 1 2-1-2Z"/><path fill="#97D6F9" id="STR" d="m263 192-1 1 1-1Z"/><path fill="#209666" id="AId6a" d="m361 192-1 1 1-1Z"/><path fill="#219864" id="AIp5" d="M81 215h4l4-3c0-6.104-8-12.474-8-19-5.126 0-8.078 2-12 2 0 3.258 9.046 20 12 20Z"/><path fill="#209666" id="AId6a" d="m360 193-1 2 1-2Z"/><path fill="#219864" id="AIp5" d="M372 215h4c.804 0 9.108-12.716 10-14.5.465-.93.817-4.5 2-4.5v-1c-4.514 0-8.092-2-13-2 0 5.192-3.808 10.116-6 14.5-.559 1.119-.155 4.5-2 4.5l5 3Z"/><path fill="#209865" id="AIp2/3" d="M81 215c0 .885-9.683 4-11 4 0-4.841-11-14.768-11-21v-1l8-1 1-1h1c0 3.258 9.046 20 12 20Z"/><path fill="#209666" id="AId6a" d="M99 204h1c0-1.378-1.769-9-3-9 0 3.519 2 5.843 2 9Z"/><path fill="#8599CC" id="PAL" d="m186 195-1 1 1-1Z"/><path fill="#97D6F9" id="STR" d="m259 195-1 1 1-1Z"/><path fill="#209865" id="AIp2/3" d="M376 215c0 1.259 8.632 4 10 4 0-2.565 11-14.891 11-21v-1l-8-1h-1c-1.183 0-1.535 3.57-2 4.5-.892 1.784-9.196 14.5-10 14.5Z"/><path fill="#97D6F9" id="STR" d="m200 197 1 1-1-1Z"/><path fill="#8599CC" id="PAL" d="m271 197 1 2-1-2Z"/><path fill="#209666" id="AId6a" d="M359 197c-1.473 0-1 1.952-1 3 1.473 0 1-1.952 1-3Z"/><path fill="#219765" id="AIp1" d="m70 219-5 2-3-5.5c-2.3-4.599-7-11.19-7-16.5 0-.546 2.571-1 4-1 0 6.232 11 16.159 11 21ZM386 219l5 2c2.226 0 1.829-3.329 3-4.5l8-17.5-5-1c0 6.109-11 18.435-11 21Z"/><path fill="#8599CC" id="PAL" d="m185 199-1 2 1-2Z"/><path fill="#97D6F9" id="STR" d="M209 213c2.379 0 4.917-3.292 7.5-2l4.5 2-2-12c-1.585 0-2.41 5.545-5.5 4l-11.5-6c0 2.132 6 8.429 6 13l1 1ZM235 213c2.379 0 4.917-3.292 7.5-2l4.5 2 1-1 4-11-11.5 4-3.5-6c0 5.04-2 9.869-2 14ZM254 199l-1 1 1-1ZM253 200l-1 1 1-1Z"/><path fill="#8599CC" id="PAL" d="M272 200c1.473 0 1 1.952 1 3-1.473 0-1-1.952-1-3Z"/><path fill="#209666" id="AId6a" d="M358 200c-1.579 0-1 2.855-1 4 1.579 0 1-2.855 1-4Z"/><path fill="#1F9866" id="AIv6a" d="M99 206h1v-2h-1v2Z"/><path fill="#8AD987" id="CTXsp" d="m98 208 3 1-1-3h-1l-1 2ZM358 208l-3 1 2-3 1 2Z"/><path fill="#1F9866" id="AIv6a" d="m358 208 2 1-3-3 1 2Z"/><path fill="#CBCBC7" id="aco" d="M185 215c0 11.564 11.872 5.755 15-.5 1.168-2.335-4.214-8.643-6.5-7.5l-6.5 3.5c-.559 1.119-.155 4.5-2 4.5ZM262 207c0 2.069-5 1.43-5 4.5 0 14.06 18.657 13.314 12 0-1.347-2.694-3.798-4.5-7-4.5Z"/><path fill="#A0EE9C" id="EPd" d="m100 227 5 1c2.565 0 5 .236 5-3l-1-2c0-3.812-6-8.667-6-13l-2-1-3-1-3 1-2 2v8.5l6 7.5h1ZM351 228h4l1-1h1l1-1 2-1 1-1 1-1 1-2 1-7.5-2-3.5-1-1h-1l-2-1-3 1h-1l-1 1c0 4.607-5 8.09-5 12l-1 1-1 2c0 2.393 3.234 3 5 3Z"/><path fill="#1F9866" id="AIv6a" d="m364 208-1 1 1-1ZM95 209l-2 2v-2h2Z"/><path fill="#C8CBCC" id="ec" d="m354 209-1 1 1-1Z"/><path fill="#1F9866" id="AIv6a" d="M362 210h1v-1h-2l1 1Z"/><path fill="#99D2BD" id="OLF" d="M372 215c-4.789 0-6.198 6-9 6l1-7.5-2-3.5h1l4 2 5 3ZM85 215c7.234 0 7.793 12 14 12l-6-7.5V211l-4 1-4 3Z"/><path fill="#FF5547" id="ADP" d="M214 232h1l2-1h1l1-1 1-1c0-.922 2.496-8 3-8 0-3.015-2-6.004-2-8l-4.5-2c-2.583-1.292-5.121 2-7.5 2v15c1.302 0 2.641 4 5 4ZM241 232h2c5.355 0 4-9.136 4-13v-6l-4.5-2c-2.583-1.292-5.121 2-7.5 2l-1 6c0 3.909 3 7.158 3 10 0 1.577 1.762 2 3 2l1 1Z"/><path fill="#E64438" id="HY" d="m208 212 1 1-1-1ZM247 213v1l1-2-1 1Z"/><path fill="#6ACAB9" id="PIR" d="m117 267 2 1 6-5 1-1c0-8.916 3.44-19.53-7.5-25L100 227h-1c-6.207 0-6.766-12-14-12h-4c0 .885-9.683 4-11 4l-5 2c0 8.107 12.392 18.284 16 25.5l4 3c1.35 2.699 6.566 9.5 10 9.5 3.224 0 21.487 8 22 8ZM339 267l-2 1-6-6c0-3.138-4.096-8.309-2-12.5 2.353-4.706 6.146-8.292 8-12l18-9.5 1-1h1l1-1 2-1 1-1 1-1 1-2c2.802 0 4.211-6 9-6h4c0 1.259 8.632 4 10 4l5 2c0 9.322-14.736 24.236-21.5 31l-8.5 9-.5-2-4 2-13 3c-2.029 1.014-2.271 3-4.5 3Z"/><path fill="#E64438" id="HY" d="M237 229c-2.765 0-5.165 2-7 2l1-6 3-6c0 3.909 3 7.158 3 10ZM257 242c-3.39 0-5.021 1-6 1 0-6.296-8-10.575-8-11 5.355 0 4-9.136 4-13l2 2c0 5.924-2.058 20 8 20v1ZM208 222l1 1v-3l-1 2Z"/><path fill="#FD5446" id="PS" d="M201 241h1c0-2.536 7-8.184 7-13v-5l-1-1c-6.659 0-7.203 9-13 9l-2 4c0 2.473 3.527 6 6 6h2Z"/><path fill="#E64438" id="HY" d="M220 229c6.918 0 6.36 6 7 6 0-3.77-2-7.021-2-10l-2-4c-.504 0-3 7.078-3 8Z"/><path fill="#FD5446" id="PS" d="M263 235c0 3.169-2.831 6-6 6-10.058 0-8-14.076-8-20 5.545 0 5.648 10 12 10l2 4Z"/><path fill="#99D2BD" id="OLF" d="m363 221-1 2 1-2Z"/><path fill="#80CDF8" id="ACB" d="m133 256 2 2c5.854 0 12.475 4.013 18.5 1 5.429-2.714 9.842-9.921 14-12l11.5-9 5-7c0-3.301-2-7.523-2-9l-5 1-4 5.5-8.5 4.5c-3.481 1.741-22.331 2-27.5 2 0 1.579-2.855 1-4 1h-3c0 1.457-3 1.46-3 4 0 5.046 6 10.262 6 16ZM323 256l-2 2c-13.389 0-10.753 3.874-24.5-3-5.455-2.727-14.425-17-19.5-17 0-2.367-4-4.032-4-7v-7.5l2-1.5 5 1c0 11.357 30.612 12 39 12 0 1.643 3.765 1 5 1h2c2.409 0 3 1.957 3 4 0 5.092-6 10.646-6 16Z"/><path fill="#C8CBCC" id="ec" d="m348 222-1 1 1-1ZM110 225c3.138 0 5.118 6 9 6l-10-8 1 2ZM345 225h1l1-2-2 2Z"/><path fill="#99D2BD" id="OLF" d="m361 224-1 1 1-1Z"/><path fill="#8AD987" id="CTXsp" d="M121 232v4c-4.456 0-7.732-5.116-11.5-7-1.147-.574-4.5 1.064-4.5-1 2.565 0 5 .236 5-3 3.138 0 5.118 6 9 6l1 1h1Z"/><path fill="#C8CBCC" id="ec" d="m345 225-2 2c1.747 0 2-.253 2-2Z"/><path fill="#8AD987" id="CTXsp" d="M335 233v3l16-8c-1.766 0-5-.607-5-3h-1c0 1.747-.253 2-2 2 0 1.747-.253 2-2 2 0 1.577-1.762 2-3 2h-1l-1 1-1 1Z"/><path fill="#99D2BD" id="OLF" d="m358 226-1 1 1-1ZM126 262h1l6-3 1-1-1-2c0-5.738-6-10.954-6-16-2.33 0-3.227-4-6-4-4.456 0-7.732-5.116-11.5-7-1.147-.574-4.5 1.064-4.5-1l-5-1 18.5 10c10.94 5.47 7.5 16.084 7.5 25Z"/><path fill="#C8CBCC" id="ec" d="m343 227-2 2c1.747 0 2-.253 2-2Z"/><path fill="#99D2BD" id="OLF" d="m356 227-1 1 1-1Z"/><path fill="#E64438" id="HY" d="m202 241 3 1 3.5-7 5.5-3c-2.359 0-3.698-4-5-4 0 4.816-7 10.464-7 13Z"/><path fill="#99D2BD" id="OLF" d="M329 262h2c0-3.138-4.096-8.309-2-12.5 2.353-4.706 6.146-8.292 8-12l18-9.5h-4l-16 8-6 4c0 5.092-6 10.646-6 16v2l6 4Z"/><path fill="#E64438" id="HY" d="m220 229-1 1 1-1Z"/><path fill="#FF5346" id="MPO" d="M213 265c-3.099 0-5.883 4-10 4l-4-6v-2c0-6.332 6-11.577 6-19l3.5-7 5.5-3h1l2-1h1l1-1 1-1c6.918 0 6.36 6 7 6v3l-1 1-1 5c-3.694 0-4.108 5-6 5 0-4.269-4.578-2-6-2-10.179 0-14.806 22.153-4.5 17l6.5-3-2 4ZM243 265c3.657 0 5.884 4 10 4 .81 0 4-5.219 4-6l1-1v-1c-1.251 0-7-15.452-7-18 0-6.296-8-10.575-8-11h-2l-1-1c-1.238 0-3-.423-3-2-2.765 0-5.165 2-7 2v8c1.579 0 1 2.855 1 4 2.684 0 4.535 5 6 5l5.5-2c3.89 1.945 18.327 13.336 9 18-4.293 2.146-7.321-4-10.5-4l2 5Z"/><path fill="#C8CBCC" id="ec" d="M341 229c-1.238 0-3 .423-3 2 1.238 0 3-.423 3-2Z"/><path fill="#E64438" id="HY" d="m219 230-1 1 1-1Z"/><path fill="#97D6F9" id="STR" d="m119 231 1 1-1-1Z"/><path fill="#E64438" id="HY" d="M193 235c-4.307 0-9.425 3-14 3l5-7h11l-2 4ZM217 231l-2 1 2-1ZM229 238l1 1v-8c-1.714 0-1 5.594-1 7ZM240 231l1 1-1-1ZM263 235c4.188 0 9.593 3 14 3 0-2.367-4-4.032-4-7h-12l2 4Z"/><path fill="#97D6F9" id="STR" d="m337 231-1 1 1-1ZM130 236c0 1.457-3 1.46-3 4-2.33 0-3.227-4-6-4v-4c.833 0 9 3.908 9 4ZM336 232l-1 1 1-1ZM335 236l-6 4c0-2.043-.591-4-3-4 0-.963 7.561-3 9-3v3ZM137 235c-1.145 0-4-.579-4 1 1.145 0 4 .579 4-1Z"/><path fill="#A2B1D7" id="SI" d="M184 263c-2.565 0-10.618 6.264-9 9.5l3 4.5c-10.671 0-22.599 4.95-32.5 0l-9-6-9.5-9 6-3 1-1h1c5.854 0 12.475 4.013 18.5 1 5.429-2.714 9.842-9.921 14-12l11.5-9c4.575 0 9.693-3 14-3 0 2.473 3.527 6 6 6v1c0 5.398-12 15.86-12 19l-3 2ZM273 264c10.804 0 6 8.705 6 13 7.157 0 19.619 5.441 26.5 2 4.684-2.342 9.955-5.978 14-8l9.5-9-6-4h-2c-13.389 0-10.753 3.874-24.5-3-5.455-2.727-14.425-17-19.5-17-4.407 0-9.812-3-14-3 0 3.169-2.831 6-6 6v1c0 4.261 12 16.004 12 19 1.429 0 4 1.288 4 3Z"/><path fill="#97D6F9" id="STR" d="M319 235c1.235 0 5-.643 5 1-1.235 0-5 .643-5-1Z"/><path fill="#E64438" id="HY" d="M227 238h1l-1-2v2ZM227 238l-1 1 1-1Z"/><path fill="#FF5445" id="MEPO" d="M226 254h5v-11c0-1.145.579-4-1-4l-1-1h-2l-1 1-1 5c0 1.657-.763 10 1 10Z"/><path fill="#E64438" id="HY" d="m201 241-2 1v-1h2Z"/><path fill="#F2473B" id="LPO" d="M187 262h11l1-1c0-6.332 6-11.577 6-19l-3-1h-1l-2 1c0 5.398-12 15.86-12 19v1ZM259 262h10v-1c0-2.996-12-14.739-12-19-3.39 0-5.021 1-6 1 0 2.548 5.749 18 7 18l1 1Z"/><path fill="#FE5446" id="AVPV" d="m240 273 5 1c0-2.557-2-6.098-2-9l-2-5c0-2.523-4-6.805-4-12-1.465 0-3.316-5-6-5v27l7 2 1 1h1ZM217 273l-6 1c0-3.519 2-5.843 2-9l2-4c0-3.262 4-6.767 4-12 1.892 0 2.306-5 6-5 0 1.657-.763 10 1 10l-1 15v1l-5 1-1 1h-1l-1 1Z"/><path fill="#FE5447" id="AVP" d="M219 249c0 5.233-4 8.738-4 12l-6.5 3c-10.306 5.153-5.679-17 4.5-17 1.422 0 6-2.269 6 2ZM237 248l5.5-2c3.89 1.945 18.327 13.336 9 18-4.293 2.146-7.321-4-10.5-4 0-2.523-4-6.805-4-12Z"/><path fill="#FD5447" id="OV" d="M225 269h1l1-1c0-1.399 2-1.399 2 0h2v-14h-5l-1 15Z"/><path fill="#97D6F9" id="STR" d="M134 258h1l-2-2 1 2ZM321 258h2v-2l-2 2ZM134 258l-1 1 1-1Z"/><path fill="#CAC8C7" id="lot" d="M117 271v3c-5.594 0-22-8.658-22-15 3.224 0 21.487 8 22 8v4ZM339 273l1 1c3.563 0 21-10.218 21-13l-.5-2-4 2-13 3c-2.029 1.014-2.271 3-4.5 3v6Z"/><path fill="#E64438" id="HY" d="m184 263 1 1 2-2v-1l-3 2Z"/><path fill="#96A6D3" id="NDB" d="m200 277-3 1c-2.387 0-13 1.472-13-4l1-10 2-2h11l1 1 4 6c0 3.47-3 5.278-3 8Z"/><path fill="#CBCCCB" id="mfb" d="m198 262 1 1v-2l-1 1ZM258 262h1l-1-1v1Z"/><path fill="#96A6D3" id="NDB" d="M257 277h1c1.984 0 3.945 3.278 6.5 2l8.5-4-2-10c0-2.215-2-1.519-2-3h-11l-1 1c0 .781-3.19 6-4 6 0 3.482 4 5.416 4 8Z"/><path fill="#E64438" id="HY" d="m273 264-2 1c0-2.215-2-1.519-2-3v-1c1.429 0 4 1.288 4 3Z"/><path fill="#99D2BD" id="OLF" d="m126 262-1 1 1-1Z"/><path fill="#7FCCF7" id="OT" d="M120 278c0 4.311 6.926 10.213 10.5 12 3.706 1.853 6.33 5.165 10 7 9.878 4.939 24.475 2.763 34-2 4.461-2.23 14.5-2.467 14.5-10 0-4.435-4.768-8-9-8h-2c-10.671 0-22.599 4.95-32.5 0l-9-6-9.5-9h-1l-1 1-6 5v9l1 1Z"/><path fill="#CBCCCB" id="mfb" d="m258 262-1 1 1-1Z"/><path fill="#7FCCF7" id="OT" d="M337 277c0 5.057-8.509 12.005-12.5 14-14.689 7.344-21.645 13.678-39 5-4.497-2.248-17.5-1.655-17.5-10 0-4.738 3.037-9 8-9h3c7.157 0 19.619 5.441 26.5 2 4.684-2.342 9.955-5.978 14-8l9.5-9h2l6 6 1 2v5l-1 2Z"/><path fill="#A2B1D8" id="MA" d="M178 277h2l4-3 1-10-1-1c-2.565 0-10.618 6.264-9 9.5l3 4.5ZM276 277h3c0-4.295 4.804-13-6-13l-2 1 2 10c1.238 0 3 .423 3 2Z"/><path fill="#E64438" id="HY" d="M211 274c0 1.025-9.321 3-11 3 0-2.722 3-4.53 3-8 4.117 0 6.901-4 10-4 0 3.157-2 5.481-2 9ZM245 274c4.091 0 7.605 3 12 3 0-2.584-4-4.518-4-8-4.116 0-6.343-4-10-4 0 2.902 2 6.443 2 9Z"/><path fill="#99D2BD" id="OLF" d="m119 269-2 2v-4l2 1v1Z"/><path fill="#A8A9AA" id="V3" d="M229 268c0 1.652-2 3.092-2 1v-1c0-1.399 2-1.399 2 0Z"/><path fill="#99D2BD" id="OLF" d="M338 270h1v-3l-2 1 1 2Z"/><path fill="#E64438" id="HY" d="M226 269h1v-1l-1 1ZM231 268v1l-1-1h1Z"/><path fill="#97D6F9" id="STR" d="m117 274 2 2v-7l-2 2v3Z"/><path fill="#E64438" id="HY" d="M225 270h1v-1h-1v1Z"/><path fill="#CAC7CB" id="fiber tracts" d="M247 282c1.139 0 4.778 4.361 3.5 5-3.424 1.712-8.482.241-12 2-1.941.971-29.644-.822-32-2-1.85-.925 1.498-4 2.5-4 4.463 0 10.556-8 7-8l1-2 1-1h1l1-1 5-1h1c0 2.061 5 2.061 5 0l7 2 1 1h1l1 2c-7.789 0 6 11.7 6 7Z"/><path fill="#97D6F9" id="STR" d="m339 274-1 1v-5h1v4Z"/><path fill="#99D2BD" id="OLF" d="M339 274h1l-1-1v1Z"/><path fill="#8599CC" id="PAL" d="M197 278c0 2.009-5.908 7-8 7 0-4.435-4.768-8-9-8l4-3c0 5.472 10.613 4 13 4Z"/><path fill="#CBCCC7" id="IIn" d="M216 275c3.556 0-2.537 8-7 8 0-3.841 2.841-8 7-8ZM241 275c3.254 0 6 4.041 6 7 0 4.7-13.789-7-6-7Z"/><path fill="#8599CC" id="PAL" d="M276 277c-4.963 0-8 4.262-8 9l-10-9c1.984 0 3.945 3.278 6.5 2l8.5-4c1.238 0 3 .423 3 2Z"/><path fill="#97D6F9" id="STR" d="m338 275-1 2 1-2ZM119 277l1 1-1-1Z"/></svg>