<svg xmlns="http://www.w3.org/2000/svg" viewBox="0 0 456 320"><path fill="#1E9C59" id="MOs1" d="M140 138c6.713 0 11.508 3 18 3l3-12v-2h-2c-15.069 0-7.873-19.314 1.5-24 18.841-9.42 14.802-9 36.5-9h1c0-2.538 3-3.953 3-7l-6.5-2c-12.168-6.084-39.54 9.54-47.5 17.5-7.476 7.476-10 14.92-10 25.5 0 2.107.953 10 3 10ZM317 138c-1.842 0-4.283-1-5.5-1-3.977 0-8.012 4-12.5 4-1.194 0-4-11.373-4-13v-1h2c14.63 0 9.754-17.873 1.5-22l-11-8c-8.916-4.458-18.656-3-28.5-3 0-1.683-4-3.7-4-7 5.315 0 15.415-5.043 21.5-2l14 4c13.952 6.976 21.77 16.04 28.5 29.5 2.847 5.694-2 14.644-2 19.5Z"/><path fill="#2FA750" id="PL1" d="M215 111c3.449 0 7.275 1 10 1 0-10.901-12.841-25-24-25 0 3.047-3 4.462-3 7 0 1.55 6.228 2.364 7.5 3 4.903 2.451 9.5 8.024 9.5 14ZM241 111c-3.247 0-5.91 1-9 1 0-10.979 11.573-25 23-25 0 3.3 4 5.317 4 7-7.318 0-18 9.547-18 17Z"/><path fill="#1E9D58" id="MOs2/3" d="M197 96c-20.356 0-30.682.864-41 21.5-1.462 2.925 3 7.562 3 9.5-15.069 0-7.873-19.314 1.5-24 18.841-9.42 14.802-9 36.5-9v2ZM260 96c17.592 0 30.905 1.31 40 19.5 2.085 4.17-3 8.381-3 11.5 14.63 0 9.754-17.873 1.5-22l-11-8c-8.916-4.458-18.656-3-28.5-3l1 2Z"/><path fill="#2FA74F" id="PL2/3" d="m213 110 2 1c0-5.976-4.597-11.549-9.5-14-1.272-.636-7.5-1.45-7.5-3h-1v2c3.184 0 16 11.138 16 14ZM241 111h2c0-3.726 12.93-15 17-15l-1-2c-7.318 0-18 9.547-18 17Z"/><path fill="#268E45" id="FRP2/3" d="M159 127h2c2.338 0 4.862-2 8-2l2-1 2-1c0-1.507 12.17-8 16-8 6.786 0 12.12 3 18 3l5 3h1l1-1v-2l-1-8c0-2.862-12.816-14-16-14-20.356 0-30.682.864-41 21.5-1.462 2.925 3 7.562 3 9.5Z"/><path fill="#268E45" id="FRP2/3" fill-rule="evenodd" d="M283 121c0 1.93 1.93 0 0 0m12 6h2c0-3.119 5.085-7.33 3-11.5-9.095-18.19-22.408-19.5-40-19.5-4.07 0-17 11.274-17 15 0 1.321.684 6-1 6l1 3v1h1l5-3c6.056 0 11.197-3 18-3 2.797 0 16 4.719 16 8l2 1c1.643 0 10 1.484 10 3Z"/><path fill="#24885D" id="ORBm2/3" d="M215 111c0 1.406.714 7-1 7l-1-8 2 1Z"/><path fill="#23895D" id="ORBm1" d="M221 138v1c-.88 0-8 3.443-8-1 0-5.811-3-9.686-3-15l2-2h1l1-1v-2c1.714 0 1-5.594 1-7 3.449 0 7.275 1 10 1v15.5l-3 9.5-1 1ZM243 138c0 5.008-6.92 1-8 1l-4-14.5c-1.695-3.391 1-9.589 1-12.5 3.09 0 5.753-1 9-1 0 1.321-.684 6 1 6l1 3c-1.186 0-1.186 1 0 1h1c0 1.577 1.762 2 3 2 0 4.953-4 9.428-4 15Z"/><path fill="#24885D" id="ORBm2/3" d="M243 111c0 1.321.684 6-1 6-1.684 0-1-4.679-1-6h2Z"/><path fill="#238A5E" id="ORBl2/3" d="m188 122-15 1c0-1.507 12.17-8 16-8l-1 7Z"/><path fill="#248A5D" id="ORBvl2/3" d="M188 122c6.353 0 14.123 1 21 1 0-2.25-2-3.376-2-5-5.88 0-11.214-3-18-3l-1 7ZM268 122c-6.454 0-13.961 1-21 1l2-5c6.056 0 11.197-3 18-3 0 2.167 1 3.855 1 7Z"/><path fill="#238A5E" id="ORBl2/3" d="m269 122 14 1c0-3.281-13.203-8-16-8 0 2.167 1 3.855 1 7h1Z"/><path fill="#24885D" id="ORBm2/3" d="M209 123h1l2-2-5-3c0 1.624 2 2.75 2 5ZM244 121c0 1.577 1.762 2 3 2l2-5-5 3Z"/><path fill="#268F45" id="FRP1" d="m214 120-1 1 1-1ZM243 120c-1.186 0-1.186 1 0 1v-1Z"/><path fill="#248A5B" id="ORBvl1" d="M192 131c8.143 0 18.922 7 21 7 0-5.811-3-9.686-3-15h-1c-6.877 0-14.647-1-21-1l-2 9h6ZM264 131h6l-1-9h-1c-6.454 0-13.961 1-21 1 0 4.953-4 9.428-4 15 4.368 0 13.054-7 21-7Z"/><path fill="#238A5E" id="ORBl2/3" d="M283 121c0 1.93 1.93 0 0 0Z"/><path fill="#238A5D" id="ORBl1" d="m158 141-1 6c1.205 0 13.64-13 18-13 3.339 0 6.924-3 11-3l2-9-15 1-2 1-2 1-8 4-3 12ZM299 141v5c-1.137 0-14.575-12-18-12-3.339 0-6.924-3-11-3l-1-9 14 1 2 1c0 1.291 8.283 4 10 4 0 1.627 2.806 13 4 13Z"/><path fill="#268F45" id="FRP1" d="m171 124-2 1 2-1ZM295 127v1c-1.717 0-10-2.709-10-4 1.643 0 10 1.484 10 3ZM161 127v2l8-4c-3.138 0-5.662 2-8 2Z"/><path fill="#9DF0D1" id="AOBgl" d="m173 143 2.5 2c10.784 5.392 10.36-1 17.5-1 0-2.709 2-4.646 2-8l-3-5h-6c-4.076 0-7.661 3-11 3 0 2.819-2 6.181-2 9Z"/><path fill="#99D2BD" id="OLF" d="M223 146c-.326 0-8-5.926-8-3.5l3 4.5-7.5-8c-5.517-2.759-9.798-3-15.5-3l-3-5c8.143 0 18.922 7 21 7 0 4.443 7.12 1 8 1 0 2.833 2 4.84 2 7ZM241 144c0-5.435-5.338 2-7 2l1-7c1.08 0 8 4.008 8-1 4.368 0 13.054-7 21-7l-2 5c-4.084 0-8.316-1.092-12.5 1-2.342 1.171-6.675 7-8.5 7Z"/><path fill="#9DF0D1" id="AOBgl" d="M264 144c3.911 0 9.203 5.649 14.5 3l4.5-3 1-1c0-3.676-3-6.439-3-9-3.339 0-6.924-3-11-3h-6l-2 5c0 3.138 2 5.662 2 8Z"/><path fill="#99D2BD" id="OLF" d="M178 226c0 1.582-1 2.312-1 5-1.728 0-6.936-14.373-8-16.5-9.316-18.631-16-41.192-16-63.5 3.115 0 4-.885 4-4 1.205 0 13.64-13 18-13 0 2.819-2 6.181-2 9-5.739 0-4 9.065-4 13-1.84 0-6-3.14-6 1-5.167 0-4 14.816-4 18.5 0 10.794 5.374 25.748 10 35 1.413 2.827 9 13.362 9 15.5ZM278 227c2.641 0 2 1.823 2 4 1.183 0 1.535-3.57 2-4.5 2.15-4.299 3.881-8.762 6-13 9.259-18.519 15-40.222 15-62.5-3.301 0-4-1.771-4-5-1.137 0-14.575-12-18-12 0 2.561 3 5.324 3 9 5.864 0 3 10.537 3 13 1.219 0 7-3.045 7 1 2.476 0 5.299 13.901 4 16.5-4.018 8.036-4.417 23.834-9 33-1.725 3.449-11 17.894-11 20.5Z"/><path fill="#9AD1BD" id="MOB" d="M177 231c0 8.537 18.56 20 26 20 9.168 0 12.364-10.228 16-17.5 7.067-14.135 7-31.465 7-48.5v-20.5c-1.045-2.091-8-16.455-8-17.5l-7.5-8c-5.517-2.759-9.798-3-15.5-3 0 3.354-2 5.291-2 8l2 1.5v9.5c3.514 0 0 3.438 0 5v7c0 9.663-2 19.062-2 30v15.5c-.681 1.362-4 4.844-4 5.5l-6 5 2 4.5c0 5.408-5.296-1.5-7-1.5 0 1.582-1 2.312-1 5ZM279 232c0 7.742-20.03 20-27 20-8.725 0-12.271-14.043-15-19.5-3.635-7.271-6-16.33-6-25v-19c-1.556-3.112-1.517-23.965 0-27l6-12.5 2-2 1-2 1-1c1.825 0 6.158-5.829 8.5-7 4.184-2.092 8.416-1 12.5-1 0 3.138 2 5.662 2 8-5.488 0-2 9.028-2 11-4.729 0 0 3.431 0 5l-1 5c0 10.643 3 19.853 3 30 0 3.782-3.314 23 4 23l5 6c0 1.263-2.502 7.501 2.5 5l2.5-2c2.641 0 2 1.823 2 4l-1 1Z"/><path fill="#209764" id="AId1" d="M157 147c0 3.115-.885 4-4 4-4.34 0-13-8.228-13-13 6.713 0 11.508 3 18 3l-1 6Z"/><path fill="#99D2BD" id="OLF" d="m222 137-1 1 1-1Z"/><path fill="#209764" id="AId1" d="M299 146c0 3.229.699 5 4 5 4.322 0 14-8.455 14-13-1.842 0-4.283-1-5.5-1-3.977 0-8.012 4-12.5 4v5Z"/><path fill="#CAC8C9" id="von" d="M224 153h1l-2-7c-.326 0-8-5.926-8-3.5l3 4.5 6 6ZM232 153h1c0-1.634 2.634-4 4-4 0-1.747.253-2 2-2l1-2 1-1c0-5.435-5.338 2-7 2 0 1.063-4.687 7-2 7Z"/><path fill="#9DEFD2" id="AOBmi" d="m195 155-4.5 4-6 2c-4.418 2.209-11.57-5-15.5-5 0-3.935-1.739-13 4-13l2.5 2c10.784 5.392 10.36-1 17.5-1l2 1.5v9.5Z"/><path fill="#99D2BD" id="OLF" d="m284 143-1 1 1-1Z"/><path fill="#9DEFD2" id="AOBmi" d="m287 156-1 1c-11.212 0-5.978 7.761-21.5 0l-2.5-2c0-1.972-3.488-11 2-11 3.911 0 9.203 5.649 14.5 3l4.5-3 1-1c5.864 0 3 10.537 3 13Z"/><path fill="#99D2BD" id="OLF" d="m240 145-1 2 1-2Z"/><path fill="#C7CBCA" id="onl" d="M227 212c0 9.755-.268 32.036-4 39.5-2.881 5.762-20 5.015-20-.5 9.168 0 12.364-10.228 16-17.5 7.067-14.135 7-31.465 7-48.5v-20.5c-1.045-2.091-8-16.455-8-17.5l6 6 1 2 2 5.5 1 33.5c-1.579 0-1 2.855-1 4v14ZM239 147c-1.747 0-2 .253-2 2l2-2ZM230 159c0 14.412-1 30.418-1 45.5 0 5.688-1.415 14.171 1 19l1 20c1.263 2.527 1.662 9.081 4.5 10.5 2.704 1.352 16.5 3.722 16.5-2-8.725 0-12.271-14.043-15-19.5-3.635-7.271-6-16.33-6-25v-19c-1.556-3.112-1.517-23.965 0-27l6-12.5c-1.366 0-4 2.366-4 4l-1 1-1 1v3l-1 1Z"/><path fill="#99D2BD" id="OLF" d="M225 153v2l-1-2h1ZM233 153l-1 1v-1h1ZM232 154l-1 1 1-1Z"/><path fill="#CACAC9" id="lotd" d="m167 162-2 1-2-6c0-4.14 4.16-1 6-1 3.93 0 11.082 7.209 15.5 5l6-2 4.5-4c3.514 0 0 3.438 0 5-4.669 0-10.904 5.798-16.5 3-1.023-.512-11.5-4.254-11.5-1ZM289 162l2 1 3-6c0-4.045-5.781-1-7-1l-1 1c-11.212 0-5.978 7.761-21.5 0l-2.5-2c-4.729 0 0 3.431 0 5 4.266 0 10.217 5.642 15.5 3 1.023-.512 11.5-4.254 11.5-1Z"/><path fill="#99D2BD" id="OLF" d="m287 156-1 1 1-1Z"/><path fill="#CAC8C7" id="lot" d="m183 223 2 4.5c0 5.408-5.296-1.5-7-1.5 0-2.138-7.587-12.673-9-15.5-4.626-9.252-10-24.206-10-35 0-3.684-1.167-18.5 4-18.5l2 6c0 2.029-1.191 1.881-2 3.5-4.894 9.789 6.264 34.528 10 42 1.451 2.902 5.019 14.5 10 14.5ZM273 224c0 1.263-2.502 7.501 2.5 5l2.5-2c0-2.606 9.275-17.051 11-20.5 4.583-9.166 4.982-24.964 9-33 1.299-2.599-1.524-16.5-4-16.5l-3 6c0 2.429 5.621 14.258 3 19.5-4.329 8.657-6.62 18.239-11 27-1.309 2.618-7.437 14.5-10 14.5Z"/><path fill="#99D2BD" id="OLF" d="m231 158-1 1 1-1Z"/><path fill="#95E4C8" id="AOBgr" d="M188 170h1l6-3v-7c-4.669 0-10.904 5.798-16.5 3-1.023-.512-11.5-4.254-11.5-1 7.135 0 12.404 7 20 7l1 1ZM268 170h1l1-1c6.925 0 12.498-7 19-7 0-3.254-10.477.488-11.5 1-5.283 2.642-11.234-3-15.5-3l-1 5c1.191 0 3.117 5 7 5Z"/><path fill="#54BF94" id="AON" d="m189 218-6 5c-4.981 0-8.549-11.598-10-14.5-3.736-7.472-14.894-32.211-10-42 .809-1.619 2-1.471 2-3.5l2-1c7.135 0 12.404 7 20 7l1 1h1c0 2.23 5 8-2 8 0-1.562-4.704 1.092-3 4.5 3.235 6.469 3.189 15.379 6 21 3.004 6.009-7.093 14.5-1 14.5ZM268 218l5 6c2.563 0 8.691-11.882 10-14.5 4.38-8.761 6.671-18.343 11-27 2.621-5.242-3-17.071-3-19.5l-2-1c-6.502 0-12.075 7-19 7l-1 1h-1c0 1.142-6.794 8 1 8 7.134 0 .442 14.616-2 19.5v17l4 2-3 1.5Z"/><path fill="#99D2BD" id="OLF" d="M269 178c0 2.82-2.669 9.837-4 12.5-.574 1.147 1.064 4.5-1 4.5 0-10.147-3-19.357-3-30 1.191 0 3.117 5 7 5 0 1.142-6.794 8 1 8ZM187 178l2 2.5 2 12c.452.905 1.082 4.5 2 4.5 0-10.938 2-20.337 2-30l-6 3c0 2.23 5 8-2 8ZM187 169l1 1-1-1ZM270 169l-1 1 1-1Z"/><path fill="#CBCBC7" id="aco" d="M193 197v15.5c-.681 1.362-4 4.844-4 5.5-6.093 0 4.004-8.491 1-14.5-2.811-5.621-2.765-14.531-6-21-1.704-3.408 3-6.062 3-4.5l2 2.5 2 12c.452.905 1.082 4.5 2 4.5ZM264 195c0 3.782-3.314 23 4 23l3-1.5-4-2v-17c2.442-4.884 9.134-19.5 2-19.5 0 2.82-2.669 9.837-4 12.5-.574 1.147 1.064 4.5-1 4.5Z"/><path fill="#99D2BD" id="OLF" d="M228 194c-1.579 0-1 2.855-1 4v14c1.579 0 1-2.855 1-4v-14ZM280 231l-1 1 1-1Z"/></svg>