<svg xmlns="http://www.w3.org/2000/svg" viewBox="0 0 456 320"><path fill="#1E9C59" id="MOs1" d="M225 57c0 1.365-2.366 4-4 4 0-3.845-2.85-4.2-4-6.5-4.488-8.975-25.142-12.179-34.5-7.5l-8.5 3h-1v-6c0-2.144 4.262-.38 5.5-1 3.644-1.822 6.033-2 10.5-2 10.405 0 24.22-3.06 30 8.5l6 7.5ZM231 58l4 2c0-2.844 5.287-7.894 7.5-9 8.583-4.291 17.017-8.991 27-4h5c2.322 1.161 5.836 3 8.5 3v-6c0-2.144-4.262-.38-5.5-1-3.888-1.944-6.744-2-11.5-2-12.407 0-24.443-1.614-31 11.5-.895 1.79-4 2.387-4 5.5Z"/><path fill="#1E9D5A" id="MOp1" d="M117 67v6c3.994 0 29.15-13.325 34.5-16 4.601-2.3 10.299-2.65 15-5 1.134-.567 6.5-.546 6.5-2v-6c-8.071 0-33.569 12.034-41.5 16L117 67ZM340 75h1c0-3.045-2-4.445-2-8-4.764 0-11.276-5.888-15.5-8-6.623-3.312-34.046-15-40.5-15v7c11.738 0 33.924 11.712 44.5 17 2.1 1.05 12.5 4.19 12.5 7Z"/><path fill="#1E9D58" id="MOs2/3" d="m215 64-3-3.5c-8.502-8.502-24.393-1.553-32.5 2.5-2.668 1.334-4.276 4-7.5 4l2-17 8.5-3c9.358-4.679 30.012-1.475 34.5 7.5 1.15 2.3 4 2.655 4 6.5l-6 3ZM241 64l4.5-5c3.295-1.647 13.753-4.124 18-2L284 67l-1-16v-1c-2.664 0-6.178-1.839-8.5-3h-5c-9.983-4.991-18.417-.291-27 4-2.213 1.106-7.5 6.156-7.5 9v1l6 3Z"/><path fill="#1F9C58" id="MOp2/3" d="M115 91c0 1.406-.714 7 1 7l12.5-9c8.009-4.004 36.357-21 43.5-21v-1l2-17h-1c0 1.454-5.366 1.433-6.5 2-4.701 2.35-10.399 2.7-15 5-5.35 2.675-30.506 16-34.5 16l-1 1v1c0 5.14-1 10.395-1 16ZM342 91c0 1.819-1 4.59-1 7-4.301 0-9.667-7.083-13.5-9l-32-16-11.5-6-1-16c11.738 0 33.924 11.712 44.5 17 2.1 1.05 12.5 4.19 12.5 7 0 1.183 1.491 16 2 16Z"/><path fill="#1F9D58" id="MOs5" d="M200 78c-2.588 0-6.498-3.5-9.5-2-3.472 1.736-17.902 11-20.5 11l2-19v-1c3.224 0 4.832-2.666 7.5-4 8.107-4.053 23.998-11.002 32.5-2.5l3 3.5v1c-4.335 0-13.686 13-15 13Z"/><path fill="#3EA665" id="ACAd1" d="M223 89c3.642 0 8.002 1 11 1 0-9.643 1-20.001 1-29v-1l-4-2-2.5 3-3.5-4c0 1.365-2.366 4-4 4 0 1.906 1.099 6.698 2 8.5V89Z"/><path fill="#1F9D58" id="MOs5" d="M257 78c4.09 0 6.819-3.34 11.5-1 4.741 2.37 12.151 9 17.5 9l-2-19-20.5-10c-4.247-2.124-14.705.353-18 2l-4.5 5v1c5.32 0 12.871 13 16 13Z"/><path fill="#40A565" id="ACAd2/3" d="m223 90-6 1V71c0-1.623-.005-6-2-6v-1l6-3c0 1.906 1.099 6.698 2 8.5V90ZM234 90l5 1c0-9.007 2-17.889 2-26v-1l-6-3c0 8.999-1 19.357-1 29Z"/><path fill="#3EA566" id="ACAd5" d="m217 91-14 7-1-15-2-4v-1c1.314 0 10.665-13 15-13 1.995 0 2 4.377 2 6v20ZM239 91l14 7c0-2.644 1.564-19 4-19v-1c-3.129 0-10.68-13-16-13 0 8.111-2 16.993-2 26Z"/><path fill="#197E64" id="SSp-ul1" d="m116 75-9 4-3-4c0-1.15 11.526-8 13-8v6l-1 1v1Z"/><path fill="#1E9C5A" id="MOp5" d="M341 99c0 5.653-2 9.735-2 14l-10.5-8c-5.773-2.886-38.155-18-42.5-18v-1l-2-19 11.5 6 32 16c3.833 1.917 9.199 9 13.5 9v1Z"/><path fill="#197E64" id="SSp-ul1" d="m352 75-3 4-8-4c0-3.045-2-4.445-2-8 1.73 0 13 6.372 13 8Z"/><path fill="#1E9C5A" id="MOp5" d="M117 113h1c0-2.356 9.555-7.028 11.5-8 6.243-3.121 35.469-18 40.5-18l2-19c-7.143 0-35.491 16.996-43.5 21L116 98v1c0 4.72 1 8.177 1 14Z"/><path fill="#1E9D5A" id="MOp1" d="m117 73-1 1 1-1Z"/><path fill="#187E61" id="SSp-m1" d="m63 144 4 1c0-13.937 15.329-49.414 28.5-56 3.936-1.968 6.886-9 11.5-9v-1l-3-4c-5.176 0-8.704 7.602-13.5 10C77.3 91.6 63 128.9 63 144Z"/><path fill="#197F61" id="SSp-ul2/3" d="M114 91h1c0-5.605 1-10.86 1-16l-9 4v1c0 4.182 7 6.786 7 11ZM342 91h1c0-4.71 6-6.616 6-11v-1l-8-4h-1c0 1.183 1.491 16 2 16Z"/><path fill="#187E61" id="SSp-m1" d="m394 144-5 1c0-17.934-11.381-39.881-23.5-52-3.559-3.559-11.631-13-16.5-13v-1l3-4c5.475 0 9.661 8.08 13.5 10 12.716 6.358 28.5 44.801 28.5 59Z"/><path fill="#1D9C5A" id="MOs6a" d="M170 107h3l4-2c0-1.373 8.535-3 10-3 1.59 0 1.443-4.386 2-5.5 1.628-3.257 7.778-17.5 11-17.5v-1c-2.588 0-6.498-3.5-9.5-2-3.472 1.736-17.902 11-20.5 11v20ZM269 102c5.955 0 11.487 5 17 5V86c-5.349 0-12.759-6.63-17.5-9-4.681-2.34-7.41 1-11.5 1v1c0 3.124 12 16.438 12 23Z"/><path fill="#3FA664" id="ACAd6a" d="M187 103c1.984 0 6 1.444 6 4 4.031 0 5.812-8 10-8v-1l-1-15-2-4c-3.222 0-9.372 14.243-11 17.5-.557 1.114-.41 5.5-2 5.5v1ZM265 106l-2 1c-3.735 0-6.491-8-10-8v-1c0-2.644 1.564-19 4-19 0 3.124 12 16.438 12 23v1l-2 1c-1.747 0-2 .253-2 2Z"/><path fill="#1A7E64" id="SSp-m2/3" d="m77 166-3 1-1-7.5 2-4c0-1.856-5.503-10.5-8-10.5 0-13.937 15.329-49.414 28.5-56 3.936-1.968 6.886-9 11.5-9 0 4.182 7 6.786 7 11-6.243 0-18.38 14.261-21 19.5-11.791 23.583-16 27.633-16 55.5ZM380 166l3 1c0-6.308-1.74-22 6-22 0-17.934-11.381-39.881-23.5-52-3.559-3.559-11.631-13-16.5-13 0 4.384-6 6.29-6 11 0 1.887 15.729 8.957 18 13.5 10.9 21.8 19 34.739 19 61.5Z"/><path fill="#1F9B5A" id="MOp6a" d="M155 115c-7.558 0-18.063 9.563-23.5 15l-9.5 9c-1.617 0-1-9.859-1-11.5l-2-1v-7l-2-5.5 1-1c0-2.356 9.555-7.028 11.5-8 6.243-3.121 35.469-18 40.5-18v21c-1.048 0-3-.473-3 1l-4 2c-1.238 0-3 .423-3 2-1.424 0-5 .362-5 2Z"/><path fill="#1F9B5A" id="MOp6a" fill-rule="evenodd" d="M335 127c0 1.93 1.93 0 0 0m4-14c0 9.871-4 16.869-4 27l-10.5-11c-6.654-3.327-30.86-22-38.5-22V87c4.345 0 36.727 15.114 42.5 18l10.5 8Z"/><path fill="#40A664" id="ACAv1" d="M229 121c2.618 0 3.093 4 5 4V90c-2.998 0-7.358-1-11-1v1c0 11.414-1 23.953-1 35l5-4c0-3.15 2-3.446 2 0Z"/><path fill="#3FA566" id="ACAv2/3" d="M219 131h1l2-6c0-11.047 1-23.586 1-35l-6 1c0 9.92 1 20.748 1 30 0 1.657-.763 10 1 10ZM236 130l2 1c0-12.718 1-26.654 1-40l-5-1v35l2 5Z"/><path fill="#1B7F62" id="SSp-m4" d="M82 165h1c0-13.355 4.366-29.232 10-40.5l9-12c1.619-3.238 10.06-13.5 14-13.5v-1c-1.714 0-1-5.594-1-7h-1c-6.243 0-18.38 14.261-21 19.5-11.791 23.583-16 27.633-16 55.5l5-1Z"/><path fill="#3EA666" id="ACAv5" d="M210 129c.833 0 9 5.527 9 2-1.763 0-1-8.343-1-10 0-9.252-1-20.08-1-30l-14 7v1c0 8.315.572 16.643 4 23.5l3 6.5ZM247 128c0 1.733-9 5.528-9 3 0-12.718 1-26.654 1-40l14 7v14.5c-1.954 3.907-6 11.127-6 15.5Z"/><path fill="#1B7F62" id="SSp-m4" d="m374 165 6 1c0-26.761-8.1-39.7-19-61.5-2.271-4.543-18-11.613-18-13.5h-1c0 1.819-1 4.59-1 7v1c4.356 0 7.864 8.682 10.5 10 11.504 5.752 22.5 43.026 22.5 56Z"/><path fill="#1B7E63" id="SSp-m5" d="m98 162-15 3c0-13.355 4.366-29.232 10-40.5l9-12c1.619-3.238 10.06-13.5 14-13.5 0 4.72 1 8.177 1 14v1c-4.019 0-8.532 7.565-10 10.5-7.053 14.105-9 20.319-9 37.5Z"/><path fill="#40A564" id="ACAv6a" d="m205 125 5 4-3-6.5c-3.428-6.857-4-15.185-4-23.5-4.188 0-5.969 8-10 8v1c1.539 0 7.169 9.838 8 11.5l3 3.5 1 2ZM252 125l-5 3c0-4.373 4.046-11.593 6-15.5V99c3.509 0 6.265 8 10 8v2c-1.568 0-10 12.227-10 14l-1 1v1Z"/><path fill="#1B7E63" id="SSp-m5" d="M359 163c5.804 0 9.15 2 15 2 0-12.974-10.996-50.248-22.5-56-2.636-1.318-6.144-10-10.5-10 0 5.653-2 9.735-2 14 3.641 0 8.589 8.677 10 11.5 7.573 15.146 10 18.929 10 37.5v1Z"/><path fill="#1E9C58" id="MOs6b" d="M187 103c-2.979 0-6.23 2-10 2 0-1.373 8.535-3 10-3v1ZM286 107v2c-5.007 0-11.326-6-17-6v-1c5.955 0 11.487 5 17 5Z"/><path fill="#CACCC7" id="cing" d="m204 123 1 2c-8.871 0-10.349-12.924-16.5-16-6.391-3.195-11.574 2-17.5 2l-1 1-1 1h-6v-2c1.465 0 4 .109 4-2h3l3-2c1.465 0 4 .109 4-2 3.77 0 7.021-2 10-2 0 1.872 5 1.926 5 5 0 3.09 8.794 15 12 15Z"/><path fill="#3FA466" id="ACAd6b" d="M192 108h1v-1c0-2.556-4.016-4-6-4 0 1.872 5 1.926 5 5ZM269 103l-2 1 2-1Z"/><path fill="#CACCC7" id="cing" d="M253 123v1c8.099 0 9.888-12.694 16.5-16 5.107-2.553 11.197 3 15.5 3l1 1h1l1 1h6c0-2.447-6.063-4-8-4-5.007 0-11.326-6-17-6l-2 1-2 2-1 2-1 1c0 2.879-6.207 14-10 14Z"/><path fill="#3FA466" id="ACAd6b" d="M267 104c-1.747 0-2 .253-2 2l2-2Z"/><path fill="#1E9C58" id="MOs6b" d="m177 105-4 2c1.465 0 4 .109 4-2Z"/><path fill="#3FA466" id="ACAd6b" d="M263 108h1l1-2-2 1v1Z"/><path fill="#1E9C58" id="MOs6b" d="M170 108v1l3-2h-3v1Z"/><path fill="#1D9D5A" id="MOp6b" d="M334 142h1v-2l-10.5-11c-6.654-3.327-30.86-22-38.5-22v2c1.937 0 8 1.553 8 4 7.444 0 23.323 11.823 29 17.5l11 11.5ZM167 109h3v-1c-1.048 0-3-.473-3 1Z"/><path fill="#CCC7C9" id="ccg" d="M337 173h2l1-2v-8c-1.33 0-1.355-8.21-2-9.5-3.001-6.002-7.3-16.9-14.5-20.5-7.539-3.77-13.572-10.286-21-14-1.919-.959-13.5-4.04-13.5-6h-1l-1-1h-1l-1-1c-4.303 0-10.393-5.553-15.5-3-6.612 3.306-8.401 16-16.5 16l-1 1-5 3c0 1.733-9 5.528-9 3l-2-1c0 1.812-4.806 4.847-6.5 4l-1-3-2 3c-1.855.928-4.957-3-6.5-3h-1c0 3.527-8.167-2-9-2l-5-4c-8.871 0-10.349-12.924-16.5-16-6.391-3.195-11.574 2-17.5 2l-1 1-1 1h-2c0 1.722-5.235 2.368-6.5 3l-19 10-18.5 18.5-4 6.5c0 1.593-.337 7-2 7v15h2c0-22.399 6.461-33.98 26.5-44 3.989-1.995 8.95-1.975 13-4 5.72-2.86 32.5 2.639 32.5 9 4.944 0 18 9.472 18 15l2.5 4c3.145 1.573 5.635 2 9.5 2l4 1c1.749 0 6-2.921 6 1l5-2c2.774 0 5.217.141 7.5-1l3.5-4c0-6.067 11.244-15 17-15l3.5-4c4.367-2.184 8.728-3.864 13-6 4.667-2.333 17.283.141 21 2h4l13 6 5 5c13.643 6.822 13.5 22.613 13.5 35Z"/><path fill="#40A465" id="ACAv6b" d="M193 108c1.539 0 7.169 9.838 8 11.5l3 3.5c-3.206 0-12-11.91-12-15h1ZM264 108l-1 1v-1h1Z"/><path fill="#1D9D5A" id="MOp6b" d="m167 109-4 2c1.465 0 4 .109 4-2Z"/><path fill="#40A465" id="ACAv6b" d="M263 109c-1.568 0-10 12.227-10 14 3.793 0 10-11.121 10-14Z"/><path fill="#1D9D5A" id="MOp6b" d="M160 113h3v-2c-1.238 0-3 .423-3 2Z"/><path fill="#C9C9CA" id="scwm" d="m171 111-1 1 1-1ZM285 111l1 1-1-1ZM170 112l-1 1 1-1ZM287 112l1 1-1-1Z"/><path fill="#187D61" id="SSp-m6a" d="m118 113-1 1v-1h1Z"/><path fill="#1D9D5A" id="MOp6b" d="M160 113c-1.424 0-5 .362-5 2 1.622 0 5 .461 5-2Z"/><path fill="#C9C9CA" id="scwm" d="M122 143c0 2.722-3 4.53-3 8l4-6.5 18.5-18.5 19-10c1.265-.632 6.5-1.278 6.5-3h-7c0 2.461-3.378 2-5 2l-4 3.5c-2.808 2.808-10.702 6.601-14.5 8.5L125 138.5l-3 4.5ZM340 159v4c-1.33 0-1.355-8.21-2-9.5-3.001-6.002-7.3-16.9-14.5-20.5-7.539-3.77-13.572-10.286-21-14-1.919-.959-13.5-4.04-13.5-6h5c7.444 0 23.323 11.823 29 17.5l11 11.5c0 5.43 6 10.464 6 17Z"/><path fill="#187D61" id="SSp-m6a" d="M342 159c5.919 0 10.862 3 17 3 0-18.571-2.427-22.354-10-37.5-1.411-2.823-6.359-11.5-10-11.5 0 9.871-4 16.869-4 27v2c2.669 0 7 14.232 7 17ZM98 162v1c6.029 0 10.915-4 17-4 0-3.275 1.951-16 6-16v-1l1-1v-2c-1.617 0-1-9.859-1-11.5l-2-1v-7l-2-5.5c-4.019 0-8.532 7.565-10 10.5-7.053 14.105-9 20.319-9 37.5Z"/><path fill="#1D9D5A" id="MOp6b" d="M121 143h1l3-4.5 11.5-11.5c3.798-1.899 11.692-5.692 14.5-8.5l4-3.5c-7.558 0-18.063 9.563-23.5 15l-9.5 9v2l-1 1v1Z"/><path fill="#7ED04B" id="IG" d="M236 130c0 1.812-4.806 4.847-6.5 4l-1-3-2 3c-1.855.928-4.957-3-6.5-3l2-6 5-4c1.2 0 2 3.746 2 0 2.618 0 3.093 4 5 4l2 5Z"/><path fill="#40A465" id="ACAv6b" d="M252 124h1v-1l-1 1Z"/><path fill="#CACCC7" id="cing" d="m253 124-1 1v-1h1Z"/><path fill="#98D5F9" id="CP" d="m139 231 5 3c4.318 0 9.876.812 13.5-1 5.192-2.596 5.457-9.413 7.5-13.5 4.109-8.219 16.048-22.5 26-22.5l2-2c0-1.928.112-10 2-10v-6c0-1.321-.684-6 1-6 0-1.048-.473-3 1-3v-25.5l-2-5.5-4-5c0-6.361-26.78-11.86-32.5-9-4.05 2.025-9.011 2.005-13 4-20.039 10.02-26.5 21.601-26.5 44 0 11.181 7 20.36 7 32 2.064 0 .426 3.353 1 4.5l5 13.5 7 8ZM315 233c-1.048 0-3-.473-3 1-4.257 0-9.934.783-13.5-1-4.823-2.411-5.517-10.535-7.5-14.5-4.446-8.893-15.049-21.5-26-21.5l-2-2c0-2.111-.671-16-2-16v-1c0-4.261-.262-7.024-2-10.5-3.691-7.381 2-20.871 2-27.5l3-5 3.5-4c4.367-2.184 8.728-3.864 13-6 4.667-2.333 17.283.141 21 2h4l13 6 5 5c13.643 6.822 13.5 22.613 13.5 35 0 11.325-7 20.665-7 32l-3 13-1 2-1 2-1 1c-2.042 0-4.286 9-8 9l-1 1Z"/><path fill="#187D61" id="SSp-m6a" d="M335 127c0 1.93 1.93 0 0 0Z"/><path fill="#AAA8A9" id="SEZ" d="M209 149c0 1.145.579 4-1 4 0-6.595-6.092-14-13-14l-4-5c4.944 0 18 9.472 18 15ZM247 150l2 3c0-4.065.223-7.861 4.5-10 .905-.453 7.5-5.76 7.5-3l3-5c-5.756 0-17 8.933-17 15Z"/><path fill="#A8AAAA" id="VL" d="M197 170h1v-1l1-1v-1l1-2 1-1 1-2 1-1 1-2 1-1v-1l1-1 1-1v-1l1-1c0-6.595-6.092-14-13-14l2 5.5V170ZM260 174c0 1.145-.579 4 1 4 0-4.261-.262-7.024-2-10.5-3.691-7.381 2-20.871 2-27.5 0-2.76-6.595 2.547-7.5 3-4.277 2.139-4.5 5.935-4.5 10v1l1 1v1l4 5v1l3 4v1l1 1v1l1 1v2l1 1v1Z"/><path fill="#188064" id="SSp-m6b" d="m122 141-1 1 1-1ZM340 159h2c0-2.768-4.331-17-7-17h-1c0 5.43 6 10.464 6 17ZM115 159h2v-1c0-1.851-.867-7 2-7 0-3.47 3-5.278 3-8h-1c-4.049 0-6 12.725-6 16Z"/><path fill="#1A7E62" id="SSs1" d="m67 169-4 1c-2.064 0-.426-3.353-1-4.5-1.847-3.694-1.847-12.306 0-16 .62-1.238-1.144-5.5 1-5.5l4 1v24ZM389 169l5 2v-27l-5 1v24Z"/><path fill="#1B8063" id="SSs2/3" d="m74 167-7 2v-24c2.497 0 8 8.644 8 10.5l-2 4 1 7.5ZM383 167l6 2v-24c-7.74 0-6 15.692-6 22Z"/><path fill="#97D6F9" id="STR" d="m225 197 3.5-6c2.674 0 1.77 10 3.5 10 0-5.535-3.444-22.612-1-27.5.654-1.308 4-5.314 4-6.5-8.91 0-6.516-10-4-10 0-3.921-4.251-1-6-1 0 .86 3.798 6.905 2 10.5-2.454 4.909-8.354-3.707-9-5-1.631-3.262 3-4.986 3-6.5-3.865 0-6.355-.427-9.5-2l-2.5-4c0 1.145.579 4-1 4l-1 1v1l-1 1-1 1v1l-1 1-1 2-1 1-1 2-1 1v2c8.298 0 14.655-2.922 22.5 1 3.937 1.969 2.5 23.867 2.5 29ZM235 167c2.733 0 6.896-2 9.5-2 3.473 0 8.947 2 12.5 2v-1l-3-4v-1c-1.533 0-4-3.753-4-5v-1l-1-1v-1l-2-3-3.5 4c-2.283 1.141-4.726 1-7.5 1 0 2.099 3.558 4.383 2 7.5l-3 4.5Z"/><path fill="#C9C9CA" id="scwm" d="M119 151c-2.867 0-2 5.149-2 7 1.663 0 2-5.407 2-7Z"/><path fill="#AAA8A9" id="SEZ" d="m208 153-1 1 1-1ZM249 154l1 1-1-1ZM207 155l-1 1 1-1Z"/><path fill="#8FCAED" id="SH" d="m221 155 4 1c0 .86 3.798 6.905 2 10.5-2.454 4.909-8.354-3.707-9-5-1.631-3.262 3-4.986 3-6.5Z"/><path fill="#8FCAED" id="SH" d="M231 157c-2.516 0-4.91 10 4 10l3-4.5c1.558-3.117-2-5.401-2-7.5l-5 2Z"/><path fill="#AAA8A9" id="SEZ" d="m206 156-1 1 1-1ZM250 156l4 5c-1.533 0-4-3.753-4-5ZM205 158l-1 1 1-1Z"/><path fill="#009B74" id="GU6a" d="M115 172c-5.644 0-10.727 6-17 6v-15c6.029 0 10.915-4 17-4v13Z"/><path fill="#019C74" id="GU6b" d="M115 171h2v-12h-2v12Z"/><path fill="#AAA8A9" id="SEZ" d="m204 159-1 2 1-2Z"/><path fill="#019C74" id="GU6b" d="m340 171 2 1v-13h-2v12Z"/><path fill="#009B74" id="GU6a" d="M342 172c5.298 0 9.988 6 16 6 0-4.635 1-9.828 1-15v-1c-6.138 0-11.081-3-17-3v13Z"/><path fill="#AAA8A9" id="SEZ" d="m203 161-1 1 1-1Z"/><path fill="#019C75" id="GU5" d="M98 179c-6.057 0-10.295 5-16 5v-19h1l15-3v17Z"/><path fill="#AAA8A9" id="SEZ" d="m202 162-1 2 1-2ZM254 162l3 4-3-4Z"/><path fill="#019C75" id="GU5" d="M358 179c6.622 0 10.688 5 17 5 0-6.628-1-12.818-1-19-5.85 0-9.196-2-15-2 0 5.172-1 10.365-1 15v1Z"/><path fill="#AAA8A9" id="SEZ" d="m201 164-1 1 1-1Z"/><path fill="#009C74" id="GU4" d="m82 184-2 1c0-6.059-3-12.014-3-19l5-1v19Z"/><path fill="#AAA8A9" id="SEZ" d="M199 167h1v-2l-1 2Z"/><path fill="#90CAED" id="LSr" d="m213 217 3.5 4c2.797 1.399 2.26-3 4.5-3l3-15c0-1.145-.579-4 1-4v-2c0-5.133 1.437-27.031-2.5-29-7.845-3.922-14.202-1-22.5-1l-1 1-1 1v1l-1 1v2l-1 2v3l2.5-1c2.952 1.476 10.768 17.037 12.5 20.5 1.626 3.252.262 8.5-3 8.5l1 2v1l1 1 1 3 1 1 1 3ZM235 217l3.5 4c2.797 1.399 2.26-3 4.5-3v-2l1-1 1-1 1-3 1-1 1-3c-4.511 0-3.008-8.484-2-10.5 1.065-2.129 10.925-19.5 12.5-19.5l2.5 2v-1c-1.579 0-1-2.855-1-4l-1-1v-3l-1-1-1-1v-1c-3.553 0-9.027-2-12.5-2-2.604 0-6.767 2-9.5 2 0 1.186-3.346 5.192-4 6.5-2.444 4.888 1 21.965 1 27.5l3 16Z"/><path fill="#009C74" id="GU4" d="M375 185h2c0-6.237 3-12.573 3-19l-6-1c0 6.182 1 12.372 1 19v1Z"/><path fill="#009B75" id="GU2/3" d="M71 189h1c0-1.794 6.51-4 8-4 0-6.059-3-12.014-3-19l-3 1-7 2c0 6.752 4 12.744 4 20ZM377 185l8 3c0-6.457 4-12.298 4-19l-6-2-3-1c0 6.427-3 12.763-3 19Z"/><path fill="#97D6F9" id="STR" d="m200 167-1 1v-1h1Z"/><path fill="#AAA8A9" id="SEZ" d="M257 168h1l-1-1v1ZM199 168l-1 1 1-1Z"/><path fill="#97D6F9" id="STR" d="M258 168v1l-1-1h1Z"/><path fill="#009C75" id="GU1" d="m71 189-3 1c0-6.553-5-12.898-5-20l4-1c0 6.752 4 12.744 4 20Z"/><path fill="#AAA8A9" id="SEZ" d="m258 169 1 1-1-1Z"/><path fill="#009C75" id="GU1" d="m385 189 4 1 5-19-5-2c0 6.702-4 12.543-4 19v1Z"/><path fill="#A8AAAA" id="VL" d="M196 173h1v-3c-1.473 0-1 1.952-1 3Z"/><path fill="#AAA8A9" id="SEZ" d="m198 170-1 1v-1h1Z"/><path fill="#1F9766" id="AId6b" d="m117 184 2 1c0-4.475-2-7.225-2-12v-2h-2v1c0 4.135 2 7.305 2 11v1ZM338 184h1l1-1c0-3.492 2-7.709 2-11l-2-1-1 2-1 11Z"/><path fill="#209666" id="AId6a" d="M110 197c-1.974 0-3.517 2-6 2 0-3.022-6-12.139-6-20v-1c6.273 0 11.356-6 17-6 0 4.135 2 7.305 2 11-10.235 0-7 7.42-7 14Z"/><path fill="#AAA8A9" id="SEZ" d="M259 173h1l-1-1v1Z"/><path fill="#209666" id="AId6a" d="M352 199h1c0-4.518 5-11.199 5-20v-1c-6.012 0-10.702-6-16-6 0 3.291-2 7.508-2 11 8.715 0 7 7.854 7 15l5 1Z"/><path fill="#C8CBCC" id="ec" d="M125 205h1c0-11.64-7-20.819-7-32h-2c0 4.775 2 7.525 2 12v3c1.577 0 2 1.762 2 3v2c1.726 0 4 10.26 4 12Z"/><path fill="#A8AAAA" id="VL" d="m196 178-1 1c0-1.321-.684-6 1-6v5Z"/><path fill="#AAA8A9" id="SEZ" d="m197 173-1 2v-2h1Z"/><path fill="#97D6F9" id="STR" d="M260 173v1l-1-1h1Z"/><path fill="#C8CBCC" id="ec" d="M330 205h2c0-1.9 1.205-11 3-11v-1l1-1v-2l1-1v-4l1-1 1-11h-2c0 11.325-7 20.665-7 32Z"/><path fill="#8FCBED" id="LSv" d="M207 206h1c3.262 0 4.626-5.248 3-8.5-1.732-3.463-9.548-19.024-12.5-20.5l-2.5 1-1 1v6l1 7 2 3 6 6 1 1 1 2 1 1v1ZM249 206l-1 1c-4.511 0-3.008-8.484-2-10.5 1.065-2.129 10.925-19.5 12.5-19.5l2.5 2c0 4.725-1 9.879-1 14l-1 2c-2.607 0-10 8.222-10 11Z"/><path fill="#209665" id="AId5" d="M104 199c-5.196 0-10.377 3-16 3 0-4.725-6-11.507-6-18 5.705 0 9.943-5 16-5 0 7.861 6 16.978 6 20Z"/><path fill="#A8AAAA" id="VL" d="M262 195h1c0-2.111-.671-16-2-16 0 4.725-1 9.879-1 14l2 2Z"/><path fill="#209665" id="AId5" d="M368 202h1l6-17v-1c-6.312 0-10.378-5-17-5 0 8.801-5 15.482-5 20 4.457 0 10.052 3 15 3Z"/><path fill="#8ADA86" id="CLA" d="M121 193c0 4.102 2.034 7.432 0 11.5l-2.5.5c-5.962 2.981-8.5-2.667-8.5-8 0-6.58-3.235-14 7-14v1l2 2v2l2 3v2Z"/><path fill="#209666" id="AId6a" d="m340 183-1 1 1-1Z"/><path fill="#8ADA86" id="CLA" d="M335 194c0 6.215-1.14 16.32 9.5 11 1.482-.741.214-7 2.5-7 0-7.146 1.715-15-7-15l-1 1-1 1-1 2v2l-1 1v2l-1 1v1Z"/><path fill="#209765" id="AId2/3" d="M77 205h1l10-3c0-4.725-6-11.507-6-18l-2 1c-1.49 0-8 2.206-8 4 0 5.901 5 10.575 5 16Z"/><path fill="#209666" id="AId6a" d="M119 185v1l-2-2 2 1Z"/><path fill="#1F9766" id="AId6b" d="M337 185h1v-1l-1 1Z"/><path fill="#209666" id="AId6a" d="m339 184-1 1v-1h1Z"/><path fill="#A8AAAA" id="VL" d="m195 195-2 2v-2c0-1.928.112-10 2-10l1 7-1 3Z"/><path fill="#209666" id="AId6a" d="m338 185-1 2v-2h1Z"/><path fill="#209765" id="AId2/3" d="M369 202c0 .518 8.922 3 10 3 0-4.977 6-10.726 6-16v-1l-8-3h-2l-6 17Z"/><path fill="#209666" id="AId6a" d="M119 188c1.577 0 2 1.762 2 3l-2-3Z"/><path fill="#209764" id="AId1" d="m77 205-3 1c-1.183 0-1.535-3.57-2-4.5L68 190l3-1h1c0 5.901 5 10.575 5 16Z"/><path fill="#209666" id="AId6a" d="m337 189-1 1 1-1Z"/><path fill="#209764" id="AId1" d="m379 205 4 1 6-16-4-1c0 5.274-6 11.023-6 16Z"/><path fill="#96A7D3" id="MS" d="M221 224h14v-7l-3-16c-1.73 0-.826-10-3.5-10l-3.5 6v2c0 1.145.579 4-1 4l-3 15v6Z"/><path fill="#97D6F9" id="STR" d="M195 195h3l-2-3-1 3Z"/><path fill="#209666" id="AId6a" d="m336 192-1 1 1-1Z"/><path fill="#1F9866" id="AIv6a" d="M115 209h1l1-1 1-1 5-1 2-1c0-1.74-2.274-12-4-12 0 4.102 2.034 7.432 0 11.5l-2.5.5c-5.962 2.981-8.5-2.667-8.5-8-1.974 0-3.517 2-6 2 0 4.08 5 7.362 5 12 1.974 0 3.517-2 6-2Z"/><path fill="#97D6F9" id="STR" d="M259 195h3l-2-2-1 2Z"/><path fill="#1F9866" id="AIv6a" d="m339 208 8 3 5-12-5-1c-2.286 0-1.018 6.259-2.5 7-10.64 5.32-9.5-4.785-9.5-11-1.795 0-3 9.1-3 11l2 1c1.041 0 5 .986 5 2Z"/><path fill="#97D6F9" id="STR" d="M192 197h1v-2l-2 2h1Z"/><path fill="#80CDF8" id="ACB" fill-rule="evenodd" d="M178 210c0 1.384-4.238 5.976-5 7.5-2.018 4.035 3.981 8.259 7.5 6.5 7.723-3.861 5.705-14-2.5-14m33 31-13.5 16c-4.588 2.294-8.455 5.727-13 8h-9c-11.85 0-31.5-.023-31.5-14 0-5.091-2-11.529-2-16l2-1c4.318 0 9.876.812 13.5-1 5.192-2.596 5.457-9.413 7.5-13.5 4.109-8.219 16.048-22.5 26-22.5h1c0 2.212 1 2.212 1 0l2-2h3l6 6 1 1 1 2 1 1v1l2 2v1l1 1 1 3 1 1 1 3c0 3.036 2.718 9.064 1 12.5-1.094 2.189-2 7.093-2 9.5l-1 2ZM273 210c0 2.395-3.619 5.263-2 8.5 8.236 16.471 21.555-8.5 2-8.5m-28 30c2.984 0 2.557 6.029 4.5 7l12 12 11 6h9c10.767 0 30.5.475 30.5-14l3-15-3-2c-4.257 0-9.934.783-13.5-1-4.823-2.411-5.517-10.535-7.5-14.5-4.446-8.893-15.049-21.5-26-21.5h-1c0 4.271-1 2.107-1-1v-1h-4c-2.607 0-10 8.222-10 11l-1 1-1 3-1 1-1 3-1 1-1 1v2c0 6.734 1 13.866 1 20l1 1v1Z"/><path fill="#97D6F9" id="STR" d="M264 197h1l-2-2v1l1 1Z"/><path fill="#A8AAAA" id="VL" d="m263 196 1 1c0 4.271-1 2.107-1-1ZM192 197h1c0 2.212-1 2.212-1 0Z"/><path fill="#1F9865" id="AIv5" d="m103 213-6 1c0-5.496-9-9.446-9-12 5.623 0 10.804-3 16-3 0 4.08 5 7.362 5 12-1.357 0-6 .647-6 2Z"/><path fill="#97D6F9" id="STR" d="M225 199c-1.579 0-1 2.855-1 4 1.579 0 1-2.855 1-4Z"/><path fill="#1F9865" id="AIv5" d="m353 213 7 1c0-6.337 8-8.87 8-12-4.948 0-10.543-3-15-3h-1l-5 12c1.357 0 6 .647 6 2Z"/><path fill="#97D6F9" id="STR" d="m204 201 1 1-1-1Z"/><path fill="#219764" id="AIv2/3" d="M97 214c-4.425 0-8.938 3-13 3l-6-12 10-3c0 2.554 9 6.504 9 12ZM360 214l13 3c0-4.644 6-7.863 6-12-1.078 0-10-2.482-10-3h-1c0 3.13-8 5.663-8 12Z"/><path fill="#97D6F9" id="STR" d="m206 204 1 1-1-1Z"/><path fill="#209864" id="AIv1" d="m84 217-4 1-6-12 3-1h1l6 12Z"/><path fill="#8AD987" id="CTXsp" d="m123 206 3 3.5c1.089 2.178 3.031 13.5 6 13.5l-5-13.5c-.574-1.147 1.064-4.5-1-4.5h-1l-2 1ZM334 206c0 .046-3.393 3.287-4 4.5-.716 1.433-.838 7.5-3 7.5l3-13h2l2 1Z"/><path fill="#209864" id="AIv1" d="M373 217c1.048 0 3-.473 3 1 1.51 0 7-10.318 7-12l-4-1c0 4.137-6 7.356-6 12Z"/><path fill="#A0EE9C" id="EPd" d="M121 227h1c5.387 0 10 5.435 10-4-2.969 0-4.911-11.322-6-13.5l-3-3.5-5 1-1 1-1 1h-1c0 2.455-4.314 5.873-3 8.5.654 1.308 4 5.314 4 6.5l2 1 1 1h1l1 1Z"/><path fill="#97D6F9" id="STR" d="m208 206 1 2-2-2h1Z"/><path fill="#90CAED" id="LSr" d="m249 206-1 1 1-1Z"/><path fill="#A0EE9C" id="EPd" d="m333 228-2 1c-3.976 0-7-.302-7-5l1-1v-1l1-2 1-2c2.162 0 2.284-6.067 3-7.5.607-1.213 4-4.454 4-4.5 1.041 0 5 .986 5 2l4 3.5c1.763 3.527 0 6.126 0 9.5l-1 1-1 1-1 1-1 1h-1l-1 1-2 1-2 1Z"/><path fill="#99D2BD" id="OLF" d="m118 207-1 1 1-1ZM117 208l-1 1 1-1ZM353 213c-5.403 0-6.386 8-10 8 0-3.374 1.763-5.973 0-9.5l-4-3.5 8 3c1.357 0 6 .647 6 2ZM103 213c6.93 0 7.309 11 13 11 0-1.186-3.346-5.192-4-6.5-1.314-2.627 3-6.045 3-8.5-2.483 0-4.026 2-6 2-1.357 0-6 .647-6 2Z"/><path fill="#97D6F9" id="STR" d="m209 209 1 1-1-1Z"/><path fill="#CBCBC7" id="aco" d="M178 210c0 1.384-4.238 5.976-5 7.5-2.018 4.035 3.981 8.259 7.5 6.5 7.723-3.861 5.705-14-2.5-14Z"/><path fill="#97D6F9" id="STR" d="m247 210-1 1 1-1Z"/><path fill="#CBCBC7" id="aco" d="M273 210c0 2.395-3.619 5.263-2 8.5 8.236 16.471 21.555-8.5 2-8.5Z"/><path fill="#6ACAB9" id="PIR" d="M125 259h1l8-3 1-1c0-5.94 7.258-5.984 2-16.5-1.894-3.788-15-10.401-15-11.5h-1l-1-1h-1l-1-1-2-1c-5.691 0-6.07-11-13-11l-6 1c-4.425 0-8.938 3-13 3l-4 1c0 6.563 16.068 29 23 29 6.065 0 20.136 12 22 12Z"/><path fill="#97D6F9" id="STR" d="m211 213 1 1-1-1Z"/><path fill="#6ACAB9" id="PIR" d="M330 259h2l3.5-4 14-7c.778-.389 3.5-1.961 3.5 0 7.066 0 23-23.593 23-30 0-1.473-1.952-1-3-1l-13-3-7-1c-5.403 0-6.386 8-10 8l-1 1-1 1-1 1-1 1h-1l-1 1-2 1-2 1-2 1c0 1.76-4.288 3.394-5.5 4-3.323 1.661-5.908 5.317-7.5 8.5-3.252 6.505 5 12.991 5 14.5l7 3Z"/><path fill="#97D6F9" id="STR" d="m245 214-1 1 1-1ZM244 215l-1 1 1-1ZM209 256h4l6-10.5c1.56-3.12 2-17.009 2-21.5v-6c-2.24 0-1.703 4.399-4.5 3l-3.5-4c0 3.036 2.718 9.064 1 12.5-1.094 2.189-2 7.093-2 9.5l-1 2c0 5.599-2 9.98-2 15ZM243 256h4c0-5.781-2-9.994-2-16v-1l-1-1c0-6.134-1-13.266-1-20-2.24 0-1.703 4.399-4.5 3l-3.5-4v7c0 2.642 1.025 18.549 2 20.5l6 11.5Z"/><path fill="#8AD987" id="CTXsp" d="m327 218-1 2 1-2ZM326 220l-1 2 1-2Z"/><path fill="#99D2BD" id="OLF" d="m343 221-1 1 1-1ZM324 223h1v-1l-1 1ZM342 222l-1 1 1-1ZM144 251c-3.164 0-5.21 4-9 4 0-5.94 7.258-5.984 2-16.5-1.894-3.788-15-10.401-15-11.5 5.387 0 10 5.435 10-4l7 8 3 4c0 4.471 2 10.909 2 16Z"/><path fill="#96A6D3" id="NDB" d="m222 263-1 1-4.5 2c-8.537 4.268-3.5-8.624-3.5-10l6-10.5c1.56-3.12 2-17.009 2-21.5h14c0 2.642 1.025 18.549 2 20.5l6 11.5 3 5.5c1.304 2.609-4.067 5.717-6.5 4.5l-8.5-6c0-5.171-4.672-1-5-1l-1 1-1 1-1 1-1 1Z"/><path fill="#99D2BD" id="OLF" d="M321 256h2c0-1.509-8.252-7.995-5-14.5 1.592-3.183 4.177-6.839 7.5-8.5 1.212-.606 5.5-2.24 5.5-4-3.976 0-7-.302-7-5v-1c-2.042 0-4.286 9-8 9l-1 1v3l-3 15c1.327 0 9 3.988 9 5Z"/><path fill="#8AD987" id="CTXsp" d="m325 223-1 1v-1h1Z"/><path fill="#99D2BD" id="OLF" d="m341 223-1 1 1-1ZM340 224l-1 1 1-1ZM118 225l1 1-1-1ZM338 225l-1 1 1-1ZM120 226l1 1-1-1ZM337 226l-2 1 2-1ZM335 227l-2 1 2-1ZM333 228l-2 1 2-1Z"/><path fill="#97D6F9" id="STR" d="m144 234-2 1-3-4 5 3ZM316 232l-1 1 1-1ZM312 234l3 2v-3c-1.048 0-3-.473-3 1Z"/><path fill="#A2B1D7" id="SI" d="m244 238 1 1-1-1ZM212 239l-1 2 1-2ZM321 256l-4.5 5c-5.693 2.847-12.406 8.703-19 12-6.735 3.367-31.021-1.01-37-4-3.781-1.89-8.135 3-11.5 3l-2-16c0-5.781-2-9.994-2-16 2.984 0 2.557 6.029 4.5 7l12 12 11 6h9c10.767 0 30.5.475 30.5-14 1.327 0 9 3.988 9 5ZM209 256c0 5.763-2 10.837-2 16-3.267 0-7.336-5.082-11.5-3-5.901 2.95-29.384 7.308-36 4-5.666-2.833-11.642-4.642-16.5-9.5l-8-7.5v-1c3.79 0 5.836-4 9-4 0 13.977 19.65 14 31.5 14h9c4.545-2.273 8.412-5.706 13-8l13.5-16c0 5.599-2 9.98-2 15Z"/><path fill="#CAC8C7" id="lot" d="M123 264v1c-2.835 0-2.575-3.038-4.5-4-3.638-1.819-15.5-9.179-15.5-14 6.065 0 20.136 12 22 12v2l-1 1v1l-1 1ZM333 264l1 1 5-4.5c3.22-3.22 14-7.917 14-12.5 0-1.961-2.722-.389-3.5 0l-14 7-3.5 4v4l1 1Z"/><path fill="#99D2BD" id="OLF" d="M134 256h1v-1l-1 1Z"/><path fill="#7FCCF7" id="OT" d="m207 272 1 4c0 2.097-2.105 3.71-3 5.5v3c-2.254 4.508-14.569 8.5-19 8.5h-8.5c-14.884 7.442-36.691 2.117-43.5-11.5-2.431-4.861-9-8.738-9-14.5l-1-3 1-2v-2l1-1 8-3h1l8 7.5c4.858 4.858 10.834 6.667 16.5 9.5 6.616 3.308 30.099-1.05 36-4 4.164-2.082 8.233 3 11.5 3Z"/><path fill="#8599CC" id="PAL" d="m207 272 1 4c1.956 0 13-9.479 13-12l-4.5 2c-8.537 4.268-3.5-8.624-3.5-10h-4c0 5.763-2 10.837-2 16ZM249 272v4c-2.031 0-18-13.754-18-16l8.5 6c2.433 1.217 7.804-1.891 6.5-4.5l-3-5.5h4l2 16Z"/><path fill="#7FCCF7" id="OT" d="M249 272v4c0 12.845 12.064 12.782 20.5 17h10c15.223 7.611 36.737 2.025 44.5-13.5 2.021-4.043 7-6.656 7-11.5l1-1v-5l-1-1-1-2-7-3h-2l-4.5 5c-5.693 2.847-12.406 8.703-19 12-6.735 3.367-31.021-1.01-37-4-3.781-1.89-8.135 3-11.5 3Z"/><path fill="#99D2BD" id="OLF" d="m126 259-1 1v-1h1Z"/><path fill="#8599CC" id="PAL" d="m226 259-1 1 1-1Z"/><path fill="#99D2BD" id="OLF" d="M331 261h1v-2h-2l1 2Z"/><path fill="#8599CC" id="PAL" d="m225 260-1 1 1-1Z"/><path fill="#99D2BD" id="OLF" d="M124 262h1v-1l-1 1Z"/><path fill="#8599CC" id="PAL" d="m224 261-1 1 1-1Z"/><path fill="#97D6F9" id="STR" d="M332 261v1l-1-1h1ZM124 263v1l1-2h-1v1Z"/><path fill="#8599CC" id="PAL" d="m223 262-1 1 1-1Z"/><path fill="#99D2BD" id="OLF" d="M123 264h1v-1l-1 1Z"/><path fill="#8599CC" id="PAL" d="m222 263-1 1 1-1Z"/><path fill="#97D6F9" id="STR" d="m333 265-1 2v-4l1 1v1ZM123 265l2 2-1-3h-1v1Z"/><path fill="#99D2BD" id="OLF" d="M333 265h1l-1-1v1Z"/><path fill="#97D6F9" id="STR" d="m332 267-1 1 1-1Z"/></svg>