<svg xmlns="http://www.w3.org/2000/svg" viewBox="0 0 456 320"><path fill="#1E9C59" id="MOs1" d="M220 64h1l3-3c0-3.321-7.752-10.626-10.5-12-10.004-5.002-25.153-7.423-36-2h-4c-3.081 1.54-9.101 5-12.5 5v7l14.5-6c4.492-2.246 26.132-4.434 31-2 2.003 1.002 3.6 3.3 5 4 2.872 1.436 8.5 5.099 8.5 9ZM232 62l4 2c0-2.676 6.408-7.954 8.5-9l5-4c4.868-2.434 26.508-.246 31 2 1.917.958 13.118 6 14.5 6v-7c0-1.822-14.49-3.995-16.5-5-13.19-6.595-36.182-3.136-42.5 9.5l-4 5.5Z"/><path fill="#1E9D58" id="MOs2/3" d="M214 69h1c0-3.273 5-2.009 5-5 0-3.901-5.628-7.564-8.5-9-1.4-.7-2.997-2.998-5-4-4.868-2.434-26.508-.246-31 2L161 59v16c11.19 0 28.101-20.2 42.5-13 3.054 1.527 10.5 1.815 10.5 7ZM242 68c1.364 0 13.398-11.051 21.5-7 2.844 1.422 30.896 14 31.5 14V59c-1.382 0-12.583-5.042-14.5-6-4.492-2.246-26.132-4.434-31-2l-5 4c-2.092 1.046-8.5 6.324-8.5 9v1l6 3Z"/><path fill="#1E9D5A" id="MOp1" d="m100 87 1 6 16.5-13c9.86-4.93 33.389-21 43.5-21v-7c-8.61 0-38.123 20.312-47.5 25L100 87ZM356 87c0 .424.976 6-1 6-1.322 0-12.832-11.166-14.5-12-10.601-5.3-34.501-22-45.5-22v-7c10.136 0 37.807 20.154 47.5 25 2.226 1.113 13.5 7.389 13.5 10Z"/><path fill="#1F9C58" id="MOp2/3" d="M103 111c0 3.334 2 4.042 2 7l14.5-16c9.171-9.17 20.262-14.631 31-20 3.476-1.738 6.345-6 10.5-6V59c-10.111 0-33.64 16.07-43.5 21L101 93v1c0 6.369 2 10.951 2 17ZM353 110c0 6.198-1 4.147-1 9-3.383 0-6.153-10.327-9.5-12l-8-8c-8.745-4.373-31.161-23-39.5-23V59c10.999 0 34.899 16.7 45.5 22 1.668.834 13.178 12 14.5 12v1c0 5.5-2 10.895-2 16Z"/><path fill="#1F9D58" id="MOs5" d="m198 84-6.5-2c-5.181 2.59-26.116 14-30.5 14V75c11.19 0 28.101-20.2 42.5-13 3.054 1.527 10.5 1.815 10.5 7-3.728 0-14.378 15-16 15Z"/><path fill="#3EA665" id="ACAd1" d="M223 96h11V73c0-1.552.566-8 2-8v-1l-4-2-3.5 5-4.5-6-3 3c0 2.654.888 5.275 2 7.5V96Z"/><path fill="#1F9D58" id="MOs5" d="m259 84 6.5-2c6.816 3.408 23.462 14 30.5 14l-1-20v-1c-.604 0-28.656-12.578-31.5-14-8.102-4.051-20.136 7-21.5 7v1c5.537 0 13.275 15 17 15Z"/><path fill="#40A565" id="ACAd2/3" d="m223 96-6 1V74.5l-2-5.5c0-3.273 5-2.009 5-5h1c0 2.654.888 5.275 2 7.5V96ZM234 96l6 1V73.5l2-4.5v-1l-6-3c-1.434 0-2 6.448-2 8v23Z"/><path fill="#3EA566" id="ACAd5" d="M217 97c-5.554 0-9.804 7-15 7 0-3.246.161-19-4-19v-1c1.622 0 12.272-15 16-15h1l2 5.5V97ZM240 97c5.106 0 10.374 8 15 8 0-4.531-1.661-20 4-20v-1c-3.725 0-11.463-15-17-15l-2 4.5V97Z"/><path fill="#1E9C5A" id="MOp5" d="m110 169-2 1c0-2.637-.895-13-3-13 0-1.572-1.125-8.251 0-10.5l2-4c0-7.164-2-14.192-2-22.5v-2l14.5-16c9.171-9.17 20.262-14.631 31-20 3.476-1.738 6.345-6 10.5-6v21c-7.714 0-13.99 6.745-20.5 10-12.433 6.217-22.282 16.064-28.5 28.5-1.802 3.604-1.168 8.335-3 12l1 21.5ZM347 170h2c0-2.223-.018-13 2-13 0-10.748-4.108-23.285 0-31.5.619-1.238-1.144-5.5 1-5.5v-1c-3.383 0-6.153-10.327-9.5-12l-8-8c-8.745-4.373-31.161-23-39.5-23l1 20v1c7.092 0 13.456 6.978 19.5 10 28.315 14.158 31.5 30.867 31.5 62v1Z"/><path fill="#1D9C5A" id="MOs6a" d="M169 115c-3.44 0-5.253 4-8 4V96c4.384 0 25.319-11.41 30.5-14l6.5 2v1c-2.53 0-13 21.979-13 25-3.296 0-16 .778-16 5ZM271 110c10.298 0 18.249 8 24 8 0-5.348 1-13.114 1-21v-1c-7.038 0-23.684-10.592-30.5-14l-6.5 2v1c0 3.508 12 16.666 12 25Z"/><path fill="#3FA664" id="ACAd6a" d="M189 113h1c2.747 0 4.56-4 8-4l4-4v-1c0-3.246.161-19-4-19-2.53 0-13 21.979-13 25v1c1.465 0 4-.109 4 2ZM267 113h1c0-1.577 1.762-2 3-2v-1c0-8.334-12-21.492-12-25-5.661 0-4 15.469-4 20l3 3 9 5Z"/><path fill="#187E61" id="SSp-m1" d="m75 164-4 1c0-4.01-4.162-11.176-2-15.5 2.484-4.969.527-12.055 3-17 2.672-5.345 3.355-11.711 6-17 2.618-5.235 6.339-9.677 9-15 1.671-3.342 8.455-13.5 13-13.5l1 6v1c-3.391 0-10.877 11.255-12 13.5-3.11 6.22-6.913 11.827-10 18-2.993 5.986-2.016 14.032-5 20-2.354 4.708 1 14.017 1 18.5ZM382 165h4c0-4.935 3.561-15.378 1-20.5-2.433-4.866-1.582-11.164-4-16-3.334-6.667-4.688-14.375-8-21l-4-5c-1.853-3.705-10.031-15.5-15-15.5 0 .424.976 6-1 6v1c3.858 0 10.803 11.106 12 13.5 12.823 25.645 15 26.272 15 56.5v1Z"/><path fill="#1A7E64" id="SSp-m2/3" d="m85 161-10 3c0-4.483-3.354-13.792-1-18.5 2.984-5.968 2.007-14.014 5-20 3.087-6.173 6.89-11.78 10-18 1.123-2.245 8.609-13.5 12-13.5 0 6.369 2 10.951 2 17-3.417 0-6.915 8.329-8 10.5-6.193 12.387-10 24.497-10 39.5ZM371 161l11 3c0-30.228-2.177-30.855-15-56.5-1.197-2.394-8.142-13.5-12-13.5 0 5.5-2 10.895-2 16 2.308 0 7.059 8.619 8 10.5 6.484 12.969 10 24.711 10 40.5Z"/><path fill="#3FA566" id="ACAv2/3" d="M219 144h4V96l-6 1c0 16.33 2 31.433 2 47Z"/><path fill="#40A664" id="ACAv1" d="M231 144h3V96h-11v48h2l1-1 2.5-5 .5 4.5 2 1.5Z"/><path fill="#3FA566" id="ACAv2/3" d="M234 144h3c0-14.774 3-31.775 3-47l-6-1v48Z"/><path fill="#1F9B5A" id="MOp6a" d="M129 162c-6.505 0-12.164 7-19 7l-1-21.5c1.832-3.665 1.198-8.396 3-12 6.218-12.436 16.067-22.283 28.5-28.5 6.51-3.255 12.786-10 20.5-10v22l-8 6c-2.859 0-3.197 2.849-5.5 4-11.073 5.536-18.5 20.458-18.5 32v1Z"/><path fill="#3EA666" id="ACAv5" d="m219 144-5 1-7-10.5c-4.224-8.448-5-19.312-5-29.5v-1c5.196 0 9.446-7 15-7 0 16.33 2 31.433 2 47ZM237 144l6 1c0-2.694 4.501-6.501 6-9.5 4.158-8.316 6-20.634 6-30.5-4.626 0-9.894-8-15-8 0 15.225-3 32.226-3 47Z"/><path fill="#1F9B5A" id="MOp6a" d="M327 162c6.922 0 12.603 7 20 7 0-31.133-3.185-47.842-31.5-62-6.044-3.022-12.408-10-19.5-10 0 7.886-1 15.652-1 21v1c3.955 0 8.024 6.262 11.5 8 12.091 6.046 20.5 20.786 20.5 34v1Z"/><path fill="#40A564" id="ACAv6a" d="m207 144 7 1-7-10.5c-4.224-8.448-5-19.312-5-29.5l-4 4c0 7.815 6 18.301 6 26 1.684 0 1 4.679 1 6l2 3ZM250 143h1v-2l1-6c0-5.941 6-16.165 6-27l-3-3c0 9.866-1.842 22.184-6 30.5-1.499 2.999-6 6.806-6 9.5 2.833 0 4.84-2 7-2Z"/><path fill="#2FA850" id="PL6a" d="M252 135h2c2.89 0 8.277-18 11-18 0-1.238.423-3 2-3v-1l-9-5c0 10.835-6 21.059-6 27ZM202 136h1l1-1c0-7.699-6-18.185-6-26-3.44 0-5.253 4-8 4l12 23Z"/><path fill="#1E9C58" id="MOs6b" d="M185 111c-6.16 0-10.605 4-16 4 0-4.222 12.704-5 16-5v1ZM295 119v1l-5-2c0-3.609-15.534-7-19-7v-1c10.298 0 18.249 8 24 8v1Z"/><path fill="#1B7F62" id="SSp-m4" d="m366 160 5 1c0-15.789-3.516-27.531-10-40.5-.941-1.881-5.692-10.5-8-10.5 0 6.198-1 4.147-1 9v1c2.295 0 4.171 7.842 5 9.5 4.179 8.358 9 20.733 9 30.5ZM91 160c-1.564 0-3.876 1-6 1 0-15.003 3.807-27.113 10-39.5 1.085-2.171 4.583-10.5 8-10.5 0 3.334 2 4.042 2 7v1l-1 1-5 8.5c-4.278 8.557-8 21.392-8 31.5Z"/><path fill="#CACCC7" id="cing" d="m203 138 1 3c-3.69 0-10-9.833-10-13 0-4.076-5.941-10.221-9.5-12-1.073-.536-5.5-.251-5.5 1l-8 1h-5l3-3c5.395 0 9.84-4 16-4l4 3c0 2.559 12 20.241 12 22l2 2Z"/><path fill="#3FA466" id="ACAd6b" d="M189 113v1l-4-3c1.465 0 4-.109 4 2ZM271 111c-1.238 0-3 .423-3 2 1.238 0 3-.423 3-2Z"/><path fill="#CACCC7" id="cing" d="m254 138-1 3c2.603 0 10-11.826 10-14l1-1c0-4.866 5.153-8.326 8.5-10 1.073-.536 5.5-.251 5.5 1l7 1h5c0-3.609-15.534-7-19-7 0 1.577-1.762 2-3 2l-1 1c0 1.238-.423 3-2 3 0 2.119-8.32 19-10 19l-1 2Z"/><path fill="#2FA84F" id="PL6b" d="M201 136h1l-12-23h-1v1c0 2.559 12 20.241 12 22Z"/><path fill="#3FA466" id="ACAd6b" d="m268 113-1 1v-1h1Z"/><path fill="#2FA84F" id="PL6b" d="M267 114c-1.577 0-2 1.762-2 3 1.577 0 2-1.762 2-3Z"/><path fill="#1E9C58" id="MOs6b" d="M161 119v1l5-2 3-3c-3.44 0-5.253 4-8 4Z"/><path fill="#CCC7C9" id="ccg" d="m179 117 7.5 4 7.5 7c0-4.076-5.941-10.221-9.5-12-1.073-.536-5.5-.251-5.5 1ZM278 117c-3.601 0-12.216 9-14 9 0-4.866 5.153-8.326 8.5-10 1.073-.536 5.5-.251 5.5 1Z"/><path fill="#CAC7CC" id="fa" d="M133 171h4c0-24.393-1.224-24.638 21.5-36 10.512-5.256 36.5 7.747 36.5 18l5 8c3.128 0 5.28-2 6-2v-15l-2-3c-3.69 0-10-9.833-10-13l-7.5-7-7.5-4-8 1-23.5 15c-9.349 4.675-14.5 22.677-14.5 34v4Z"/><path fill="#2FA84F" id="PL6b" d="M254 136h1c1.68 0 10-16.881 10-19-2.723 0-8.11 18-11 18v1Z"/><path fill="#CAC7CC" id="fa" d="M320 171h3l1-3c-2.427 0-.139-9.778-1-11.5-2.772-5.545-5.157-11.314-8-17-2.362-4.724-15.895-14.197-20.5-16.5-1.529-.765-9.5-3.162-9.5-5l-7-1c-3.601 0-12.216 9-14 9l-1 1c0 2.174-7.397 14-10 14h-1l-1 2-1 2c0 3.962 1 8.688 1 12 0 5.269 2.19 4 6 4 0-1.301 2.496-7 4-7v-1l1-1c0-10.161 26.546-21.977 36.5-17 22.032 11.016 21.5 12.809 21.5 36Z"/><path fill="#C9C9CA" id="scwm" d="M131 161c0 1.623.005 6 2 6 0-11.323 5.151-29.325 14.5-34l23.5-15h-5l-5 2c0 2.449-6.154 5-8 5 0 4.098-9.321 7.141-11 10.5-4.631 9.261-10 12.073-10 24.5l-1 1ZM325 161l-1 7c-2.427 0-.139-9.778-1-11.5-2.772-5.545-5.157-11.314-8-17-2.362-4.724-15.895-14.197-20.5-16.5-1.529-.765-9.5-3.162-9.5-5h5l5 2 14 10.5c9.338 9.338 16 17.291 16 30.5Z"/><path fill="#1F9C58" id="MOp2/3" d="M104 120h1v-1l-1 1Z"/><path fill="#1D9D5A" id="MOp6b" d="M161 120c0 2.449-6.154 5-8 5l8-6v1ZM325 161h2c0-13.214-8.409-27.954-20.5-34-3.476-1.738-7.545-8-11.5-8v1l14 10.5c9.338 9.338 16 17.291 16 30.5Z"/><path fill="#1B7E63" id="SSp-m5" d="m105 157-14 3c0-10.108 3.722-22.943 8-31.5l5-8.5h1c0 8.308 2 15.336 2 22.5l-2 4c-1.125 2.249 0 8.928 0 10.5ZM351 157l15 3c0-9.767-4.821-22.142-9-30.5-.829-1.658-2.705-9.5-5-9.5-2.144 0-.381 4.262-1 5.5-4.108 8.215 0 20.752 0 31.5Z"/><path fill="#1D9D5A" id="MOp6b" d="M129 161h2l1-1c0-12.427 5.369-15.239 10-24.5 1.679-3.359 11-6.402 11-10.5-2.859 0-3.197 2.849-5.5 4-11.073 5.536-18.5 20.458-18.5 32Z"/><path fill="#CCC7C9" id="ccg" d="m264 126-1 1 1-1Z"/><path fill="#98D5F9" id="CP" d="M145 212c0 2.645 4.954 13 8 13 1.606 0 4.339 2.081 6.5 1 .359-.18 5.723-12.945 6.5-14.5 3.827-7.655 17.129-13.315 23.5-16.5l5.5-5 1-3 1-1v-22c0-4.232-2-7.38-2-11 0-10.253-25.988-23.256-36.5-18-22.724 11.362-21.5 11.607-21.5 36l4 8.5c2.278 4.556 2 10.995 2 16.5v9c1.175 0 2 5.704 2 7Z"/><path fill="#58B362" id="ILA6a" d="M204 141h1c0-1.321.684-6-1-6l-1 1v2l1 3ZM252 141h1l1-3v-3h-2l-1 6h1Z"/><path fill="#98D5F9" id="CP" d="M311 213c0 4.594-7 8.318-7 12l-4.5 2c-3.755 0-8.126-17.563-13-20-6.63-3.315-12.5-8.75-19-12l-5.5-5-2-3v-21c0-4.107 1-8.469 1-12v-1l1-1c0-10.161 26.546-21.977 36.5-17 22.032 11.016 21.5 12.809 21.5 36-3.886 0-6 20.252-6 25l-1 8v3c-1.579 0-1 2.855-1 4l-1 2Z"/><path fill="#58B263" id="ILA6b" d="M203 136v2l-2-2h2ZM255 136l-1 2v-2h1Z"/><path fill="#CCC7C9" id="ccg" d="M206 144h1l-2-3h-1l2 3ZM252 141l-1 2v-2h1Z"/><path fill="#99D2BD" id="OLF" d="m216 182 2.5 3c7.103 7.103 5.566 0 10 0l3 3c1.892.946 9.5-3.991 9.5-6-2.776 0-6.446 3.527-9.5 2-4.644-2.322-2.5-14.474-2.5-19-1.665 0-1-4.222-1-5.5l-2-16.5-1 1v15l2 3.5c1.529 3.058.439 20.03-2.5 21.5l-8.5-2Z"/><path fill="#A3DAA3" id="DP" d="M231 159c5.489 0 13.037 1 18 1l2-3c0-3.312-1-8.038-1-12v-2c-2.16 0-4.167 2-7 2l-6-1h-6l-1 1v4l1 10Z"/><path fill="#CCC7C9" id="ccg" d="m251 143-1 2v-2h1Z"/><path fill="#A3DAA3" id="DP" d="M225 159c-5.45 0-13.016 1-18 1l-1-1v-15h1l7 1 5-1h6v15Z"/><path fill="#99D2BD" id="OLF" d="m231 144-1 1 1-1ZM231 159l-2 4c0-1.991-.793-14 1-14l1 10Z"/><path fill="#AAA8A9" id="SEZ" d="m262 152-1 1 1-1ZM201 179c0 1.041-.986 5-2 5 0-2.353 1.63-20-2-20 0-4.232-2-7.38-2-11l5 8c0 5.361 1 12.004 1 18ZM260 185v2c-2.177 0-4-4.336-4-6l-1-13.5 2-6.5c0-1.301 2.496-7 4-7 0 3.531-1 7.893-1 12-4.704 0-4.254 19 0 19Z"/><path fill="#019C75" id="GU5" d="M108 170c0 1.845-3.381 1.441-4.5 2-3.807 1.904-9.098 6-13.5 6 0-5.996 1-12.639 1-18l14-3c2.105 0 3 10.363 3 13Z"/><path fill="#99D2BD" id="OLF" d="m247 175 3.5-1c1.949.974 4.77 7 5.5 7l-1-13.5 2-6.5c-3.81 0-6 1.269-6-4l-2 3c0 2.259 3.675 5.151 2 8.5l-4 6.5Z"/><path fill="#019C75" id="GU5" d="M366 178h1l-1-18-15-3c-2.018 0-2 10.777-2 13l3.5 2 13.5 6Z"/><path fill="#99D2BD" id="OLF" d="m211 177-4.5-3-5.5 5c0-5.996-1-12.639-1-18 3.128 0 5.28-2 6-2l1 1-2 6.5c1.131 2.261 6 8.238 6 10.5Z"/><path fill="#61D09F" id="TTd" d="m211 177 5 5 8.5 2c2.939-1.47 4.029-18.442 2.5-21.5l-2-3.5c-5.45 0-13.016 1-18 1l-2 6.5c1.131 2.261 6 8.238 6 10.5ZM244 179l-3 3c-2.776 0-6.446 3.527-9.5 2-4.644-2.322-2.5-14.474-2.5-19v-2l2-4c5.489 0 13.037 1 18 1 0 2.259 3.675 5.151 2 8.5l-4 6.5-1 1-1 2-1 1Z"/><path fill="#009C74" id="GU4" d="M89 179h1v-1c0-5.996 1-12.639 1-18-1.564 0-3.876 1-6 1 0 5.775 4 12.565 4 18Z"/><path fill="#1F9766" id="AId6b" d="m132 160-1 1 1-1Z"/><path fill="#009C74" id="GU4" d="m367 178 1 1c0-6.157 3-11.589 3-18l-5-1 1 18Z"/><path fill="#009B75" id="GU2/3" d="M89 179c-3.99 0-6.666 3-11 3 0-5.91-3-11.454-3-18l10-3c0 5.775 4 12.565 4 18Z"/><path fill="#1F9766" id="AId6b" d="m136 179-1 1-3-3c0-4.746-3-9.633-3-15v-1h2c0 1.623.005 6 2 6v4l3 8ZM320 179l2 1 3-4c0-4.455 2-8.829 2-14v-1h-2l-1 7-1 3-3 8Z"/><path fill="#009B75" id="GU2/3" d="M368 179c3.541 0 6.145 3 10 3 2.064 0 .426-3.353 1-4.5.698-1.395 2.4-12.5 3-12.5v-1l-11-3c0 6.411-3 11.843-3 18Z"/><path fill="#209666" id="AId6a" d="m124 190-4 1c-4.717 0-10-17.414-10-22 6.836 0 12.495-7 19-7 0 5.367 3 10.254 3 15l-5.5-3c-1.752-.876-4.798 2.096-5.5 3.5-2.36 4.72 3 8.838 3 12.5ZM332 190l4 1c4.093 0 11-17.071 11-21v-1c-7.397 0-13.078-7-20-7 0 5.171-2 9.545-2 14l4.5-2 3 1c8.053 4.027-.5 9.927-.5 15Z"/><path fill="#009C75" id="GU1" d="m78 183-4 1c0-6.481-3-12.149-3-19l4-1c0 6.546 3 12.09 3 18v1Z"/><path fill="#A8AAAA" id="VL" d="M197 186h1l1-1v-1c0-2.353 1.63-20-2-20v22ZM260 166c-4.704 0-4.254 19 0 19v-19Z"/><path fill="#009C75" id="GU1" d="m378 183 4 1c0-6.079 4-12.726 4-19h-4c-.6 0-2.302 11.105-3 12.5-.574 1.147 1.064 4.5-1 4.5v1Z"/><path fill="#209665" id="AId5" d="M96 199h1c7.746 0 15.744-7 23-7v-1c-4.717 0-10-17.414-10-22l-2 1c0 1.845-3.381 1.441-4.5 2-3.807 1.904-9.098 6-13.5 6v1c0 7.714 6 16.428 6 20ZM359 199h1l4-6.5c1.941-3.881 2-9.857 2-14.5l-13.5-6-3.5-2h-2c0 3.929-6.907 21-11 21v1c7.537 0 15.122 7 23 7Z"/><path fill="#C8CBCC" id="ec" d="M141 196h2c0-5.505.278-11.944-2-16.5l-4-8.5h-4l3 8 1 2c0 2.954 4 7.991 4 15ZM314 196l2 1-1-7.5 4-8.5 1-2 3-8h-3c-3.886 0-6 20.252-6 25Z"/><path fill="#8ADA86" id="CLA" d="m135 181 4 6.5c3.351 6.703-2.822 12.839-9.5 9.5l-5.5-7c0-3.662-5.36-7.78-3-12.5.702-1.404 3.748-4.376 5.5-3.5l5.5 3 3 3v1Z"/><path fill="#97D6F9" id="STR" d="m239 248-3 8.5c-1.637 3.274 3 7.752 3 10.5-3.915 0-5.692-12.883-7-15.5l-3-4.5c5.519 0 2-16.705 2-22.5 0-1.432.863-8.5-1.5-8.5-8.492 0-3.5 25.579-3.5 32 0 3.399-3.46 9.419-5 12.5-.559 1.119-.155 4.5-2 4.5l1-9.5-3-7.5 2-3.5c.559-1.118-2.837-11.5-4-11.5 0-5.446-2-10.463-2-15 2.791 0 2.135 2.683 5.5 1 6.907-3.454-2.701-31.85-7-34-.955-.478-8.261 4.022-8.5 4.5-1.78 3.56 2 6.73 2 9.5-3.754 0-4.303-9-10-9l1-3 1-1h1l1-1v-1c1.014 0 2-3.959 2-5l5.5-5 4.5 3 5 5 2.5 3c7.103 7.103 5.566 0 10 0l3 3c1.892.946 9.5-3.991 9.5-6l3-3 1-1 1-2 1-1 3.5-1c1.949.974 4.77 7 5.5 7 0 1.664 1.823 6 4 6l2 3c-5.898 0-8.025 7-9 7l1-6.5-8.5-5.5c-6.191 3.095-15.202 30.399-6 35l3.5-1c0 4.121-1 9.275-1 14-5.098 0-3 12.07-3 15Z"/><path fill="#8ADA86" id="CLA" d="m321 181-5 10.5c-2.405 4.811 7.823 6.839 10.5 5.5 2.183-1.092 4.259-7 5.5-7 0-5.073 8.553-10.973.5-15l-3-1-4.5 2-3 4-1 1Z"/><path fill="#99D2BD" id="OLF" d="m247 175-1 1 1-1ZM245 178l-1 1 1-1Z"/><path fill="#209765" id="AId2/3" d="M370 203h1c0-6.447 7-12.935 7-20v-1c-3.855 0-6.459-3-10-3l-1-1h-1c0 4.643-.059 10.619-2 14.5l-4 6.5 10 4ZM85 203h1l10-4c0-3.572-6-12.286-6-20h-1c-3.99 0-6.666 3-11 3v1l7 20Z"/><path fill="#219665" id="AIv6b" d="M135 181h2l-1-2-1 1v1ZM319 181h2l1-1-2-1-1 2Z"/><path fill="#1F9866" id="AIv6a" d="M128 207h1l1-1c0-2.409 7.68-5 10-5v-4l1-1c0-7.009-4-12.046-4-15h-2l4 6.5c3.351 6.703-2.822 12.839-9.5 9.5l-5.5-7-4 1v1l8 15ZM328 207h1l7-15v-1l-4-1c-1.241 0-3.317 5.908-5.5 7-2.677 1.339-12.905-.689-10.5-5.5l5-10.5h-2l-4 8.5 1 7.5 1 4c4.595 0 7.54 6 11 6Z"/><path fill="#209764" id="AId1" d="m85 203-3 1c0-6.298-8-13.182-8-20l4-1 7 20ZM371 203l3 1c1.285 0 8-17.068 8-20l-4-1c0 7.065-7 13.553-7 20Z"/><path fill="#AAA8A9" id="SEZ" d="m199 185-1 1 1-1Z"/><path fill="#90CAED" id="LSr" d="M213 217v1c2.791 0 2.135 2.683 5.5 1 6.907-3.454-2.701-31.85-7-34-.955-.478-8.261 4.022-8.5 4.5-1.78 3.56 2 6.73 2 9.5v1c1.577 0 2 1.762 2 3v1l1 1v1l1 1 2 6 2 4ZM243 217v2l-3.5 1c-9.202-4.601-.191-31.905 6-35l8.5 5.5-1 6.5-1 1-1 1v2l-1 1-1 1v2l-1 1-2 5-1 1v2l-1 2-1 1Z"/><path fill="#AAA8A9" id="SEZ" d="m197 186-1 1 1-1Z"/><path fill="#80CDF8" id="ACB" fill-rule="evenodd" d="M176 210c0 .297-6.108 4.717-7 6.5-2.125 4.249 2.877 10.811 7.5 8.5 4.997-2.498 6.971-15-.5-15m39 23c0 16.301-19.183 37.159-37.5 28h-6c-6.197-3.098-15.5-5.257-15.5-14 0-2.897.43-14.64-1-17.5l-2-3.5v-1c1.606 0 4.339 2.081 6.5 1 .359-.18 5.723-12.945 6.5-14.5 3.827-7.655 17.129-13.315 23.5-16.5l5.5-5c5.697 0 6.246 9 10 9v1l2 3v1l1 1v1l1 1 2 6 2 4v1c0 4.537 2 9.554 2 15ZM280 210c0 .06-4.294 4.088-5 5.5-2.46 4.92 12 17.641 12 2 0-2.288-.889-2.889-2.5-4.5l-4.5-3m-38 23c0 3.997-.67 9.161 1 12.5 5.122 10.243 23.522 21.989 36.5 15.5 3.098-1.549 7.824-.412 11-2 3.307-1.654 6.712-3.925 8.5-7.5.559-1.119.155-4.5 2-4.5 0-3.614-.599-21 3-21v-1l-4.5 2c-3.755 0-8.126-17.563-13-20-6.63-3.315-12.5-8.75-19-12l-5.5-5c-5.898 0-8.025 7-9 7l-1 1-1 1v2l-1 1-1 1v2l-1 1-2 5-1 1v2l-1 2-1 1v2c0 4.121-1 9.275-1 14Z"/><path fill="#1F9865" id="AIv5" d="M113 211h5c0-.956 8.939-4 10-4l-8-15c-7.256 0-15.254 7-23 7 0 7.004 16 4.763 16 12ZM339 211h4c0-7.18 16-5.386 16-12-7.878 0-15.463-7-23-7l-7 15c0 2.886 10 .795 10 4Z"/><path fill="#C8CBCC" id="ec" d="m141 196-1 1 1-1Z"/><path fill="#8AD987" id="CTXsp" d="m140 201 3 1v-6h-2l-1 1v4ZM317 201c-2.54 0-2.543 3-4 3l1-8 2 1 1 4Z"/><path fill="#97D6F9" id="STR" d="m253 197-1 1 1-1ZM252 198l-1 1 1-1Z"/><path fill="#219764" id="AIv2/3" d="M113 211c0 1.951-2.454.477-3.5 1L95 216l-9-13 10-4h1c0 7.004 16 4.763 16 12ZM343 211c5.893 0 12.779 5 19 5 0-4.745 8-7.873 8-13l-10-4h-1c0 6.614-16 4.82-16 12Z"/><path fill="#97D6F9" id="STR" d="M205 200c1.577 0 2 1.762 2 3l-2-3Z"/><path fill="#A0EE9C" id="EPd" d="M138 226c3.2 0 8.003 3.749 11.5 2l3.5-2v-1c-3.046 0-8-10.355-8-13-2.867 0-2-5.149-2-7v-3l-3-1c-2.32 0-10 2.591-10 5l-1 1c0 2.561-3 5.324-3 9v1l1 1 1 1 1 1 1 1 2 2h1l2 2h1l1 1h1Z"/><path fill="#97D6F9" id="STR" d="m251 201-1 1 1-1Z"/><path fill="#A0EE9C" id="EPd" d="m319 226-2 1c-1.987 0-13 2.974-13-1v-1c0-3.682 7-7.406 7-12l1-2c1.579 0 1-2.855 1-4v-3c1.457 0 1.46-3 4-3 4.595 0 7.54 6 11 6l3 7v1l-1 2-1 1v1l-1 1-1 1-1 1-2 1-1 1h-1l-1 1h-1l-1 1Z"/><path fill="#97D6F9" id="STR" d="m250 202-1 1 1-1Z"/><path fill="#209864" id="AIv1" d="m95 216-5 1c-1.913 0-8-11.045-8-13l3-1h1l9 13ZM362 216l5 1c0-4.3 7-8.285 7-13l-3-1h-1c0 5.127-8 8.255-8 13Z"/><path fill="#97D6F9" id="STR" d="m207 204 1 1-1-1Z"/><path fill="#8AD987" id="CTXsp" d="M143 205c1.175 0 2 5.704 2 7-2.867 0-2-5.149-2-7Z"/><path fill="#97D6F9" id="STR" d="m249 205-1 1 1-1Z"/><path fill="#99D2BD" id="OLF" d="m130 206-1 1 1-1Z"/><path fill="#97D6F9" id="STR" d="m208 206 1 1-1-1Z"/><path fill="#99D2BD" id="OLF" d="M118 211c5.423 0 7.93 5 8 5 0-3.676 3-6.439 3-9h-1c-1.061 0-10 3.044-10 4Z"/><path fill="#8AD987" id="CTXsp" d="M313 207c-1.579 0-1 2.855-1 4 1.579 0 1-2.855 1-4Z"/><path fill="#99D2BD" id="OLF" d="M339 211c-3.863 0-6.505 3-8 3l-3-7h1c0 2.886 10 .795 10 4Z"/><path fill="#CBCBC7" id="aco" d="M176 210c0 .297-6.108 4.717-7 6.5-2.125 4.249 2.877 10.811 7.5 8.5 4.997-2.498 6.971-15-.5-15ZM280 210c0 .06-4.294 4.088-5 5.5-2.46 4.92 12 17.641 12 2 0-2.288-.889-2.889-2.5-4.5l-4.5-3Z"/><path fill="#6ACAB9" id="PIR" d="M132 257h1c3.657 0 5.884-4 10-4 0-3.053 10.754-7.993 8-13.5-2.043-4.087-3.847-8.173-8.5-10.5l-4.5-3h-1l-1-1h-1l-2-2h-1l-2-2-1-1-1-1-1-1-1-1v-1c-.07 0-2.577-5-8-5h-5c0 1.951-2.454.477-3.5 1L95 216l-5 1c0 5.619 13.443 27 20 27 0-1.458 7.106 2.303 8.5 3 2.744 1.372 13.5 5.473 13.5 10Z"/><path fill="#97D6F9" id="STR" d="m246 211-1 1 1-1Z"/><path fill="#8AD987" id="CTXsp" d="m312 211-1 2 1-2Z"/><path fill="#6ACAB9" id="PIR" d="M323 257h1l5.5-6c5.538-2.769 12.101-7 17.5-7l8.5-7c4.225-4.225 11.5-14.128 11.5-20l-5-1c-6.221 0-13.107-5-19-5h-4c-3.863 0-6.505 3-8 3v1l-1 2-1 1v1l-1 1-1 1-1 1-2 1-1 1h-1l-1 1h-1l-1 1-2 1-3.5 2c-3.506 1.753-5.93 5.36-7.5 8.5-3.664 7.327 7 10.585 7 15.5 4.117 0 6.901 4 10 4Z"/><path fill="#97D6F9" id="STR" d="m211 213 2 4-2-4ZM245 214l-1 2 1-2Z"/><path fill="#99D2BD" id="OLF" d="m331 215-1 2 1-2Z"/><path fill="#96A6D3" id="NDB" d="M229 247c5.519 0 2-16.705 2-22.5 0-1.432.863-8.5-1.5-8.5-8.492 0-3.5 25.579-3.5 32l1-1 1-1c0-2.212 1-2.212 1 0v1Z"/><path fill="#97D6F9" id="STR" d="m244 216-1 1 1-1Z"/><path fill="#99D2BD" id="OLF" d="m126 217 1 1-1-1ZM330 217l-1 1 1-1ZM128 219l1 1-1-1ZM329 219l-1 1 1-1ZM328 220l-1 1 1-1ZM130 221l2 2-2-2ZM327 221l-1 1 1-1ZM133 223l2 2-2-2ZM324 223l-1 1 1-1ZM322 224l-1 1 1-1ZM136 225l1 1-1-1ZM320 225l-1 1 1-1ZM143 253h3c0-2.377 7.879-6 10-6 0-2.897.43-14.64-1-17.5l-2-3.5-3.5 2c-3.497 1.749-8.3-2-11.5-2l4.5 3c4.653 2.327 6.457 6.413 8.5 10.5 2.754 5.507-8 10.447-8 13.5ZM310 253h3c0-4.915-10.664-8.173-7-15.5 1.57-3.14 3.994-6.747 7.5-8.5l3.5-2c-1.987 0-13 2.974-13-1-3.599 0-3 17.386-3 21 2.103 0 9 3.18 9 6ZM319 226l-2 1 2-1Z"/><path fill="#A2B1D7" id="SI" d="M217 248c-1.952 0-13.051 14.775-17.5 17-12.321 6.161-28.321 3.839-40-2-2.421-1.21-13.5-6.632-13.5-10 0-2.377 7.879-6 10-6 0 8.743 9.303 10.902 15.5 14h6c18.317 9.159 37.5-11.699 37.5-28 1.163 0 4.559 10.382 4 11.5l-2 3.5ZM239 248c1.862 0 15.348 16.424 20.5 19 11.472 5.736 31.19-1.095 41-6 1.916-.958 9.5-5.148 9.5-8 0-2.82-6.897-6-9-6-1.845 0-1.441 3.381-2 4.5-1.788 3.575-5.193 5.846-8.5 7.5-3.176 1.588-7.902.451-11 2-12.978 6.489-31.378-5.257-36.5-15.5-1.67-3.339-1-8.503-1-12.5-5.098 0-3 12.07-3 15Z"/><path fill="#CAC8C7" id="lot" d="M131 262h1v-5c0-4.527-10.756-8.628-13.5-10-1.394-.697-8.5-4.458-8.5-3 0 2.106 19.089 18 21 18ZM324 261l2 1c5.094 0 12.659-11.08 16.5-13l4.5-5c-5.399 0-11.962 4.231-17.5 7l-5.5 6v4Z"/><path fill="#97D6F9" id="STR" d="M228 246h1c0-2.212-1-2.212-1 0ZM228 246l-1 1 1-1Z"/><path fill="#7FCCF7" id="OT" d="m216 270-1 1c0 4.721-10.999 12.25-14.5 14-7.919 3.959-15.567.284-19 2-10.997 5.498-32.961 1.578-38.5-9.5-1.887-3.775-9-7.125-9-11.5l-1-1v-1l-1-2v-3l1-2c3.657 0 5.884-4 10-4h3c0 3.368 11.079 8.79 13.5 10 11.679 5.839 27.679 8.161 40 2 4.449-2.225 15.548-17 17.5-17l3 7.5-1 9.5-1 2-1 1v1l-1 1ZM239 268l3 4c0 3.9 12.876 13.188 16.5 15h4c3.9 1.95 8.755-2.122 13 0 12.045 6.022 33.408.684 39.5-11.5 1.426-2.852 8-6.215 8-10.5l1-2v-5l-1-1c-3.099 0-5.883-4-10-4h-3c0 2.852-7.584 7.042-9.5 8-9.81 4.905-29.528 11.736-41 6-5.152-2.576-18.638-19-20.5-19l-3 8.5c-1.637 3.274 3 7.752 3 10.5v1Z"/><path fill="#99D2BD" id="OLF" d="m133 257-1 2v-2h1ZM324 257v1l-1-1h1ZM324 263v1l2-2-2-1v2ZM132 262v1l-1-1h1Z"/><path fill="#97D6F9" id="STR" d="m132 263 1 1-1-2v1ZM324 264l-1 1 1-2v1ZM133 265l1 1-1-1ZM219 265l-1 2 1-2Z"/><path fill="#8599CC" id="PAL" d="m218 267-1 1 1-1ZM239 268l3 4-3-4ZM217 269l-1 1 1-1ZM216 270l-1 1 1-1Z"/></svg>