<svg xmlns="http://www.w3.org/2000/svg" viewBox="0 0 456 320"><path fill="#1E9C59" id="MOs1" d="m224 62-4 2c-2.563 0-1.938-4.219-3.5-5l-8-6c-2.413-1.206-5.542-.77-8-2-5.1-2.55-29.714 3.857-34 6l-7.5 4-1-7 19.5-7h5c6.476-3.238 20.487-3.256 27 0l5 4c2.292 1.146 9.5 8.17 9.5 11ZM233 62l3 3 5.5-7 14-7c5.527-2.764 29.473 3.736 34 6l8.5 4v-7c0-1.308-12.706-4.103-14.5-5-12.28-6.14-39.238-7.024-46.5 7.5l-4 5.5Z"/><path fill="#1E9D58" id="MOs2/3" d="m214 69-5.5-5c-3.956-1.978-17.729-3.136-22-1-6.08 3.04-21.511 14-27.5 14V61l7.5-4c4.286-2.143 28.9-8.55 34-6 2.458 1.23 5.587.794 8 2l8 6c1.562.781.937 5 3.5 5v1c0 1.617-4.583 4-6 4ZM242 69c.46 0 14.473-11.013 22.5-7l10 3c6.701 3.35 15.779 12 23.5 12V61l-8.5-4c-4.527-2.264-28.473-8.764-34-6l-14 7-5.5 7v1l6 3Z"/><path fill="#1E9D5A" id="MOp1" d="M98 91v8l13.5-13c12.21-6.105 34.237-25 47.5-25l-1-7c-8.641 0-38.223 22.361-47.5 27-1.965.982-12.5 8.997-12.5 10ZM358 99h1v-8l-12.5-10-21-14c-7.127-3.564-14.946-6.473-22-10-1.79-.895-3.403-3-5.5-3v7c9.36 0 26.717 13.609 35.5 18 4.025 2.012 11.535 5.57 13.5 9.5L358 99Z"/><path fill="#1F9C58" id="MOp2/3" d="M101 117c0 .608.287 7 2 7l9-11.5c5.347-10.694 19.081-19.79 30.5-25.5 4.743-2.372 11.08-9 16.5-9V61c-13.263 0-35.29 18.895-47.5 25L98 99v1c1.684 0 1 4.679 1 6 0 3.614 2 6.88 2 11ZM356 116c-.498 0-2 7.574-2 9l-11.5-16c-11.633-11.633-22.63-19.315-36-26-2.54-1.27-5.589-5-8.5-5V61c9.36 0 26.717 13.609 35.5 18 4.025 2.012 11.535 5.57 13.5 9.5L358 99c0 5.587-2 10.223-2 17Z"/><path fill="#1F9D58" id="MOs5" d="m197 85-7.5-1c-5.245 2.623-10.868 4.434-16 7-4.416 2.208-10.454 8-15.5 8l1-21v-1c5.989 0 21.42-10.96 27.5-14 4.271-2.136 18.044-.978 22 1l5.5 5v1c-4.994 0-13.397 15-17 15Z"/><path fill="#3EA665" id="ACAd1" d="M223 97h11c0-7.153-3.296-16.908 0-23.5.736-1.471-.357-7.5 2-7.5v-1l-3-3c-2.37 0-3.725 7-4.5 7l-2-4-2.5-3-4 2v1c1.993 0 1.35 5.2 2 6.5 3.105 6.21 1 18.234 1 25.5Z"/><path fill="#1F9D58" id="MOs5" d="m259 85 7.5-1c5.187 2.594 28.375 15 32.5 15 0-3.267-2-8.325-2-11.5 0-2.971 1-6.736 1-9.5v-1c-7.721 0-16.799-8.65-23.5-12l-10-3c-8.027-4.013-22.04 7-22.5 7v1c5.082 0 14.508 15 17 15Z"/><path fill="#40A565" id="ACAd2/3" d="M222 97h1c0-7.266 2.105-19.29-1-25.5-.65-1.3-.007-6.5-2-6.5 0 1.617-4.583 4-6 4v1c1.183 0 1.535 3.57 2 4.5 2.893 5.786 1 16.72 1 23.5l5-1ZM234 97c2.483 0 4.026 2 6 2V74.5l2-4.5v-1l-6-3c-2.357 0-1.264 6.029-2 7.5-3.296 6.592 0 16.347 0 23.5Z"/><path fill="#3EA566" id="ACAd5" d="M202 105h2c0-3.134 10.351-6 13-6v-1c0-6.78 1.893-17.714-1-23.5-.465-.93-.817-4.5-2-4.5-4.994 0-13.397 15-17 15v1c4.808 0 5 15.874 5 19ZM252 105h3c0-3.675-.997-19 4-19v-1c-2.492 0-11.918-15-17-15l-2 4.5V99c2.286 0 12 3.343 12 6Z"/><path fill="#1E9C5A" id="MOp5" d="m113 168-8 2c0-5.27-2-8.893-2-13l-1-10.5c1.203-2.406 2.384-17.232 2-18l-2-1.5 1-2v-1l9-11.5c5.347-10.694 19.081-19.79 30.5-25.5 4.743-2.372 11.08-9 16.5-9l-1 21c-6.334 0-13.027 7.264-18.5 10-26.943 13.471-26.5 31.86-26.5 59ZM343 168l8 2c0-1.034 1.859-13 3-13 0-4.414 1.938-10.625 0-14.5l-2-5c0-3.443 2-7.434 2-11.5v-1l-11.5-16c-11.633-11.633-22.63-19.315-36-26-2.54-1.27-5.589-5-8.5-5 0 2.764-1 6.529-1 9.5 0 3.175 2 8.233 2 11.5 4.89 0 10.242 5.871 14.5 8 17.587 8.794 21.566 16.632 29.5 32.5 2.535 5.069 1 15.019 1 21 0 1.363.7 6.5-1 6.5v1Z"/><path fill="#1D9C5A" id="MOs6a" d="M171 115c-4.372 0-8.042 7-12 7l-1-23c5.046 0 11.084-5.792 15.5-8 5.132-2.566 10.755-4.377 16-7l7.5 1v1c0 2.804-12 17.466-12 26h-1c-2.531 0-13-.169-13 3ZM272 112l11.5 1c3.762 1.881 9.242 8 13.5 8l2-22c-4.125 0-27.313-12.406-32.5-15l-7.5 1v1c1.827 0 13 22.711 13 26Z"/><path fill="#3FA664" id="ACAd6a" d="m185 112 3 2c2.908 0 9.443-9 14-9 0-3.126-.192-19-5-19 0 2.804-12 17.466-12 26ZM271 113l-3 1c-3.119 0-7.337-8-13-8v-1c0-3.675-.997-19 4-19 1.827 0 13 22.711 13 26l-1 1Z"/><path fill="#187E61" id="SSp-m1" d="m76 163-4 1c0-26.439 1.513-34.527 13-57.5 1.496-2.993 8.437-15.5 13-15.5v9c-2.925 0-9.823 11.147-11 13.5-8.097 16.195-11 29.673-11 49.5ZM380 163l4 1c0-5.092 3.65-16.2 1-21.5-1.961-3.921-1.061-9.122-3-13-3.947-7.893-7.009-16.019-11-24-1.379-2.758-7.935-14.5-12-14.5v8c0 2.65 11.869 16.239 14 20.5 6.899 13.799 7 27.812 7 43.5Z"/><path fill="#3FA566" id="ACAv2/3" d="M219 146h4l-1-49-5 1v1c0 16.372 2 31.359 2 47Z"/><path fill="#40A664" id="ACAv1" d="m229 145 4 1c0-16.11 1-32.41 1-49h-12l1 49 4-1h1c0-4.283 1-4.283 1 0Z"/><path fill="#3FA566" id="ACAv2/3" d="M233 146h4c0-15.127 3-31.462 3-47-1.974 0-3.517-2-6-2 0 16.59-1 32.89-1 49Z"/><path fill="#1F9B5A" id="MOp6a" d="m133 158-20 10c0-27.14-.443-45.529 26.5-59 5.473-2.736 12.166-10 18.5-10l1 23v1c-9.227 0-26 25.967-26 34v1Z"/><path fill="#3EA666" id="ACAv5" d="M213 146h6c0-15.641-2-30.628-2-47-2.649 0-13 2.866-13 6l4 28v6l5 7ZM237 146h6l6-7v-1c-1.566 0-1.566-5 0-5 0-9.616 3-18.176 3-28 0-2.657-9.714-6-12-6 0 15.538-3 31.873-3 47Z"/><path fill="#1F9B5A" id="MOp6a" d="M323 158c5.29 0 12.976 9 20 9 1.7 0 1-5.137 1-6.5 0-5.981 1.535-15.931-1-21-7.934-15.868-11.913-23.706-29.5-32.5-4.258-2.129-9.61-8-14.5-8l-2 22v1l8.5 7c7.448 3.724 17.5 17.296 17.5 28v1Z"/><path fill="#1A7E64" id="SSp-m2/3" d="m369 160 11 3c0-15.688-.101-29.701-7-43.5-2.131-4.261-14-17.85-14-20.5h-1c0 5.587-2 10.223-2 17 0 2.362 7.54 12.58 9 15.5 3.883 7.767 4 19.191 4 28.5ZM76 163h1l10-3c0-12.784 2.722-22.943 8-33.5 1.338-2.675 2.083-9.5 6-9.5 0-4.12-2-7.386-2-11 0-1.321.684-6-1-6-2.925 0-9.823 11.147-11 13.5-8.097 16.195-11 29.673-11 49.5Z"/><path fill="#2FA850" id="PL6a" d="M206 134c-1.974 0-3.517 2-6 2-3.005 0-6.511-21-12-21v-1c2.908 0 9.443-9 14-9l1 19.5 3 9.5Z"/><path fill="#2EA84F" id="PL5" d="m208 133-2 1-3-9.5-1-19.5h2l4 28ZM250 134h1c0-9.438 4-17.839 4-28v-1h-3c0 9.824-3 18.384-3 28l1 1Z"/><path fill="#2FA850" id="PL6a" d="M256 137h1c0-1.571 5.054-14 6-14l2-4c0-1.429 1.288-4 3-4v-1c-3.119 0-7.337-8-13-8 0 10.161-4 18.562-4 28l5 3Z"/><path fill="#1E9C58" id="MOs6b" d="M184 113c-5.031 0-8.243 2-13 2 0-3.169 10.469-3 13-3v1Z"/><path fill="#3FA466" id="ACAd6b" d="M188 114v1l-4-2v-1h1l3 2ZM271 113h1v-1l-1 1Z"/><path fill="#1E9C58" id="MOs6b" d="M297 122v1l-8-4c0-4.884-13.423-6-17-6v-1l11.5 1c3.762 1.881 9.242 8 13.5 8v1Z"/><path fill="#CACCC7" id="cing" d="M203 145v4c-2.658 0-7.704-15.909-9-18.5-6.769-13.537-8.035-11.5-22-11.5h-5l4-4c4.757 0 7.969-2 13-2l4 2 3 4.5c1.212 2.424 6.028 17.5 8 17.5l2 4 2 4Z"/><path fill="#3FA466" id="ACAd6b" d="M268 115h1l2-2-3 1v1Z"/><path fill="#CACCC7" id="cing" d="m263 123-2 10c.64 0 5.963-12.231 9.5-14 4.368-2.184 9.484 0 14.5 0h4c0-4.884-13.423-6-17-6h-1l-2 2-4 4c0 1.465.109 4-2 4Z"/><path fill="#1E9C58" id="MOs6b" d="M159 122v1l8-4 4-4c-4.372 0-8.042 7-12 7Z"/><path fill="#2FA84F" id="PL6b" d="M199 137h1v-1c-3.005 0-6.511-21-12-21l3 4.5c1.212 2.424 6.028 17.5 8 17.5ZM269 115l-4 4c0-1.429 1.288-4 3-4h1Z"/><path fill="#1B7F62" id="SSp-m4" d="m364 159 5 1c0-9.309-.117-20.733-4-28.5-1.46-2.92-9-13.138-9-15.5-.498 0-2 7.574-2 9v1c1.325 0 2.43 5.361 3 6.5 3.446 6.892 7 18.516 7 26.5ZM87 160h1l5-1v-1c0-7.873 2.677-16.853 6-23.5.77-1.542.465-7.5 3-7.5l1-2v-1c-1.713 0-2-6.392-2-7-3.917 0-4.662 6.825-6 9.5-5.278 10.557-8 20.716-8 33.5Z"/><path fill="#CAC7CC" id="fa" d="m142 170-3 1-1-3c0-11.124 2.421-19.341 7-28.5l8-8c1.452-2.903 19-10.477 19-12.5 13.965 0 15.231-2.037 22 11.5 1.296 2.591 6.342 18.5 9 18.5v10l-2.5 2-4.5-1c0-15.049-27.121-27.69-40.5-21-16.803 8.401-13.5 15.278-13.5 31ZM314 170l4 1 1-3c-2.462 0-.1-10.701-1-12.5-2.569-5.138-4.366-10.732-7-16-2.812-5.624-13.412-12.956-18.5-15.5-1.544-.772-7.5-2.732-7.5-5-5.016 0-10.132-2.184-14.5 0-3.537 1.769-8.86 14-9.5 14 0 2.888-4.481 16-8 16l1 11c1.564 0 3.876 1 6 1l1-2c0-4.429 4.541-7.581 6-10.5 6.271-12.541 27.469-13.016 38.5-7.5 4.311 2.155 13.477 15.546 10.5 21.5-.805 1.61-2 5.802-2 7.5Z"/><path fill="#C9C9CA" id="scwm" d="M137 156c0 1.824-.781 12 1 12 0-11.124 2.421-19.341 7-28.5l8-8c1.452-2.903 19-10.477 19-12.5h-5l-8 4c0 2.773-10.584 11.542-13.5 13-6.035 3.017-8.5 13.819-8.5 20Z"/><path fill="#2FA84F" id="PL6b" d="m265 119-2 4c2.109 0 2-2.535 2-4Z"/><path fill="#C9C9CA" id="scwm" d="M320 156c0 4.107-1 8.469-1 12-2.462 0-.1-10.701-1-12.5-2.569-5.138-4.366-10.732-7-16-2.812-5.624-13.412-12.956-18.5-15.5-1.544-.772-7.5-2.732-7.5-5h4l8 4 10 9.5c6.711 6.711 13 14.027 13 23.5Z"/><path fill="#1D9D5A" id="MOp6b" d="m320 156 3 1c0-10.704-10.052-24.276-17.5-28l-8.5-7v1l10 9.5c6.711 6.711 13 14.027 13 23.5ZM137 156l-4 1c0-8.033 16.773-34 26-34 0 2.773-10.584 11.542-13.5 13-6.035 3.017-8.5 13.819-8.5 20Z"/><path fill="#2FA84F" id="PL6b" d="M257 137h1l3-4 2-10c-.946 0-6 12.429-6 14Z"/><path fill="#1B7E63" id="SSp-m5" d="m103 125-1 2 1-2ZM354 157c3.721 0 6.881 2 10 2 0-7.984-3.554-19.608-7-26.5-.57-1.139-1.675-6.5-3-6.5 0 4.066-2 8.057-2 11.5l2 5c1.938 3.875 0 10.086 0 14.5ZM103 157l-10 1c0-7.873 2.677-16.853 6-23.5.77-1.542.465-7.5 3-7.5l2 1.5c.384.768-.797 15.594-2 18l1 10.5Z"/><path fill="#59B262" id="ILA5" d="m206 134 2 4v-5l-2 1ZM250 134l-1 4c-1.566 0-1.566-5 0-5l1 1Z"/><path fill="#CACCC7" id="cing" d="M253 145v4c3.519 0 8-13.112 8-16l-3 4-3 4-1 3-1 1Z"/><path fill="#58B362" id="ILA6a" d="M203 145h2l2-1.5c.574-1.147-1.064-4.5 1-4.5v-1l-2-4c-1.974 0-3.517 2-6 2v1c1.579 0 1 2.855 1 4l2 4ZM251 145h2l1-1 1-3 1-4-5-3h-1l-1 4v1c0 2.518 2 4.286 2 6Z"/><path fill="#58B263" id="ILA6b" d="M200 137c1.579 0 1 2.855 1 4l-2-4h1ZM258 137l-3 4 1-4h2Z"/><path fill="#98D5F9" id="CP" d="m153 219 4 2c2.803 0 2.944-4.389 4-6.5 3.196-6.392 10.462-9.462 15.5-14.5 3.047-3.047 18.5-7.647 18.5-13l2-4v-4l-1-17v-2c0-15.049-27.121-27.69-40.5-21-16.803 8.401-13.5 15.278-13.5 31 0 5.655 7 10.581 7 17 0 1.321.684 6-1 6v10c1.684 0 1 4.679 1 6v1c1.473 0 1 1.952 1 3l1 3 1 1 1 1v1ZM299 221h2l1-1 1-1 1-1c0-2.7 3-4.762 3-8 0-5.923 1-11.609 1-17l-1-7.5 7-15.5c0-1.698 1.195-5.89 2-7.5 2.977-5.954-6.189-19.345-10.5-21.5-11.031-5.516-32.229-5.041-38.5 7.5-1.459 2.919-6 6.071-6 10.5l-1 2v24l1 2 5.5 6c8.905 4.452 17.333 9.333 25 17 1.844 1.844 5.768 11 7.5 11Z"/><path fill="#40A564" id="ACAv6a" d="m205 145 8 1-5-7c-2.064 0-.426 3.353-1 4.5l-2 1.5ZM251 145l-8 1 6-7c0 2.518 2 4.286 2 6Z"/><path fill="#CCC7C9" id="ccg" d="m254 144-1 1 1-1Z"/><path fill="#A3DAA3" id="DP" d="M225 164c-6.573 0-14.1 1-20 1 0-1.714-2-3.482-2-6v-14h2l8 1h10l4-1v16.5l-2 2.5Z"/><path fill="#99D2BD" id="OLF" d="M225 164c1.918 0 3.571 6.358 4 5.5v-4l2-1.5-2-4c0 2.423-1-2.737-1-4v-11h-1v16.5l-2 2.5Z"/><path fill="#A3DAA3" id="DP" d="M231 164c6.573 0 14.1 1 20 1l3-5-1-11v-4h-2l-8 1h-10l-4-1v15l2 4Z"/><path fill="#1F9766" id="AId6b" d="m140 174-2 2-1-2c0-2.494-4-9.662-4-16v-1l4-1c0 1.824-.781 12 1 12l1 3 1 3ZM319 175l-1 1-1-1 1-4 1-3c0-3.531 1-7.893 1-12l3 1v1c0 5.307-2 9.324-2 14l-1 2-1 1Z"/><path fill="#019C75" id="GU5" d="M105 170c0 .532-12.133 7-13 7 0-5.915 1-12.755 1-18v-1l10-1c0 4.107 2 7.73 2 13ZM351 170c0 1.549 12.333 7 14 7l-1-18c-3.119 0-6.279-2-10-2-1.141 0-3 11.966-3 13Z"/><path fill="#209666" id="AId6a" d="M127 186c0 2.098-1.939 3-4 3 0-3.823-10-11.363-10-21l20-10c0 6.338 4 13.506 4 16-5.002 0-5.645-5.855-13 1.5-.912.912-1.698 3.604-1 5 1.151 2.303 4 2.641 4 5.5ZM329 187l4 2c3.582 0 10-15.989 10-21v-1c-7.024 0-14.71-9-20-9 0 5.307-2 9.324-2 14 4.43 0 15.834.833 12 8.5-1.169 2.337-4 3.673-4 6.5Z"/><path fill="#009C74" id="GU4" d="M91 177h1c0-5.915 1-12.755 1-18l-5 1c0 4.595.087 9.675 2 13.5.523 1.046-.951 3.5 1 3.5Z"/><path fill="#99D2BD" id="OLF" d="M197 183c0 13.101 6.079-3.211 10.5-1l5.5 5c0-4.259-8-12.229-8-22 0-1.714-2-3.482-2-6l-2.5 2-4.5-1v2c1.257 0 5.562 17 1 17v4ZM261 159l-1 2 1-2Z"/><path fill="#009C74" id="GU4" d="M365 178h1l3-18-5-1 1 18v1Z"/><path fill="#009B75" id="GU2/3" d="M91 177c0 1.92-9.104 4-11 4 0-5.789-3-11.374-3-18l10-3h1c0 4.595.087 9.675 2 13.5.523 1.046-.951 3.5 1 3.5Z"/><path fill="#99D2BD" id="OLF" d="M257 189h1l1-1c0-1.048-.473-3 1-3v-4c-2.716 0-2.411-11.677-1-14.5.523-1.046-.951-3.5 1-3.5v-2c-2.124 0-4.436-1-6-1l-3 5c0 9.384-5 14.083-5 19l5.5-2 5.5 7Z"/><path fill="#009B75" id="GU2/3" d="M376 182h1l3-19-11-3-3 18c1.503 0 10 2.502 10 4Z"/><path fill="#AAA8A9" id="SEZ" d="M196 162c1.257 0 5.562 17 1 17l-1-17Z"/><path fill="#009C75" id="GU1" d="m80 182-4 1-4-19 4-1h1c0 6.626 3 12.211 3 18v1Z"/><path fill="#AAA8A9" id="SEZ" d="M260 163c-1.951 0-.477 2.454-1 3.5-1.411 2.823-1.716 14.5 1 14.5v-18Z"/><path fill="#009C75" id="GU1" d="m377 182 3 1c2.064 0 .426-3.353 1-4.5 1.962-3.925 3-9.883 3-14.5l-4-1-3 19Z"/><path fill="#61D09F" id="TTd" d="M216 189c4.115 0 6.205 3.148 10.5 1l2-7c.822 0-.413 6.293 3 8l9.5-2 4-4 1-1c0-4.917 5-9.616 5-19-5.9 0-13.427-1-20-1l-2 1.5v4c-.429.858-2.082-5.5-4-5.5-6.573 0-14.1 1-20 1 0 9.771 8 17.741 8 22l1 1 1 1h1Z"/><path fill="#209665" id="AId5" d="M98 199h1c5.233 0 19.989-9 24-9v-1c0-3.823-10-11.363-10-21l-8 2c0 .532-12.133 7-13 7 0 9.339 6 17.876 6 22ZM357 199h1c0-3.76 7-13.984 7-21v-1c-1.667 0-14-5.451-14-7l-8-2c0 5.011-6.418 21-10 21v1c1.794 0 16.108 5.804 18.5 7 1.114.557 5.5.41 5.5 2Z"/><path fill="#C8CBCC" id="ec" d="m148 193-4 2c0-.671 2.662-5 0-5l-1-7-2-4-1-5-1-3 3-1c0 5.655 7 10.581 7 17 0 1.321.684 6-1 6ZM308 193l4 2v-5l3-10c0-1.048-.473-3 1-3l1-2 1-4-4-1-7 15.5 1 7.5Z"/><path fill="#8ADA86" id="CLA" d="m127 186 4 3.5c1.74 3.48 13 8.442 13 .5l-1-7-3-4-2-3-1-2c-5.002 0-5.645-5.855-13 1.5-.912.912-1.698 3.604-1 5 1.151 2.303 4 2.641 4 5.5ZM329 187c-3.386 0-6.192 8-10.5 8-2.671 0-5.15-5-6.5-5l3-10 1-1 2-3 1-1 1-1 1-2c4.43 0 15.834.833 12 8.5-1.169 2.337-4 3.673-4 6.5Z"/><path fill="#219665" id="AIv6b" d="M140 179h1l-1-5-2 2 2 3Z"/><path fill="#209666" id="AId6a" d="m320 174-1 1 1-1Z"/><path fill="#219665" id="AIv6b" d="M316 177v2l2-3-1-1-1 2Z"/><path fill="#209765" id="AId2/3" d="M87 202h1c3.414 0 6.353-3 10-3 0-4.124-6-12.661-6-22h-1c0 1.92-9.104 4-11 4v1c0 6.883 7 13.622 7 20Z"/><path fill="#1F9866" id="AIv6a" d="m316 179-1 1c0-1.048-.473-3 1-3v2Z"/><path fill="#209765" id="AId2/3" d="M358 199c4.334 0 7.01 3 11 3 0-5.04 7-12.999 7-20 0-1.498-8.497-4-10-4h-1c0 7.016-7 17.24-7 21Z"/><path fill="#1F9866" id="AIv6a" d="m141 179 2 4-3-4h1Z"/><path fill="#209764" id="AId1" d="M87 202c0 1.473-1.952 1-3 1l-2.5-4-5.5-16 4-1c0 6.883 7 13.622 7 20Z"/><path fill="#97D6F9" id="STR" d="M235 258c-3.248 0-2.67-16-6.5-16-5.395 0-3.47 17-7.5 17 0-4.311-2-9.853-2-12 0-1.887.066-14-4-14 0-9.576-6-16.448-6-25 2.711 0 2.629 12.435 7.5 10 4.874-2.437-3.271-25.636-6-27-2.097-1.048-6.404 2.692-5.5 4.5 1.612 3.223 4 7.729 4 11.5-1.966 0-8.152-20-14-20l2-4c0 13.101 6.079-3.211 10.5-1l5.5 5 1 1 1 1h1c0 1.602 7.078 5.711 8.5 5l3-3 5 3c1.468 0 8.5-3.241 8.5-5l4-4 1-1 5.5-2 5.5 7-7.5 15c-1.053 1.053-.047 4-2.5 4 0-4.23 6.092-10.317 4-14.5-5.339-10.677-17.467 21.017-10.5 24.5l4.5-4c0 6.1-3 11.866-3 19-4.154 0-5 10.3-5 14 0 3.446-2 6.77-2 11Z"/><path fill="#209764" id="AId1" d="m369 202 4 1c0-5.38 7-12.99 7-20l-3-1h-1c0 7.001-7 14.96-7 20Z"/><path fill="#99D2BD" id="OLF" d="M216 189c4.115 0 6.205 3.148 10.5 1l2-7c.822 0-.413 6.293 3 8l9.5-2c0 1.759-7.032 5-8.5 5l-5-3-3 3c-1.422.711-8.5-3.398-8.5-5ZM246 184l-1 1 1-1Z"/><path fill="#97D6F9" id="STR" d="m261 187-2 1c0-1.048-.473-3 1-3l1 2Z"/><path fill="#1F9866" id="AIv6a" d="M132 206h1c0-1.782 6.482-7 8-7l3-4c0-.671 2.662-5 0-5 0 7.942-11.26 2.98-13-.5l-4-3.5c0 2.098-1.939 3-4 3v1l3 3.5 6 12.5Z"/><path fill="#80CDF8" id="ACB" fill-rule="evenodd" d="M175 210c0 1.765-1.581.541-2.5 1l-4.5 6.5c-2 4.001 4.638 9.431 8.5 7.5 4.486-2.243 5.868-15-1.5-15m40 23c0 11.954-7.709 22.605-18.5 28-9.43 4.715-37.5-4.093-37.5-15l-1-6.5c1.289-2.578 3-9.249 3-12 0-2.29-4-4.521-4-6.5 2.803 0 2.944-4.389 4-6.5 3.196-6.392 10.462-9.462 15.5-14.5 3.047-3.047 18.5-7.647 18.5-13 5.848 0 12.034 20 14 20v1c0 8.552 6 15.424 6 25ZM280 210c0 1.371-4 2.857-4 5.5 0 1.972.199 2.398 1 4 8.66 17.319 17.917-9.5 3-9.5m-38 23c0 3.997-.67 9.161 1 12.5 2.731 5.462 10.861 12.681 16.5 15.5 3.545 1.773 22.19-.595 25-2 2.933-1.466 9.219-3.937 10.5-6.5l3-6.5c0-3.861-2.768-18.963-2-20.5l3-4.5c-1.732 0-5.656-9.156-7.5-11-7.667-7.667-16.095-12.548-25-17l-5.5-6-2 1-1 1h-1l-7.5 15c-1.053 1.053-.047 4-2.5 4v1l-1 2c0 1.048.473 3-1 3 0 6.1-3 11.866-3 19Z"/><path fill="#1F9866" id="AIv6a" d="M315 199c3.87 0 5.602 7 9 7 0-5.251 9-11.001 9-16v-1l-4-2c-3.386 0-6.192 8-10.5 8-2.671 0-5.15-5-6.5-5v5c1.712 0 3 2.571 3 4Z"/><path fill="#99D2BD" id="OLF" d="m214 188 1 1-1-1Z"/><path fill="#97D6F9" id="STR" d="m259 188-1 1 1-1Z"/><path fill="#1F9865" id="AIv5" d="m121 210-4 1c0-6.159-18-7.375-18-12 5.233 0 19.989-9 24-9l3 3.5 6 12.5c-1.345 0-7 1.571-7 3h-3l-1 1ZM336 210l3 1c0-6.075 18-7.016 18-12 0-1.59-4.386-1.443-5.5-2-2.392-1.196-16.706-7-18.5-7 0 4.999-9 10.749-9 16 1.345 0 7 1.571 7 3h4l1 1Z"/><path fill="#90CAED" id="LSr" d="M209 207v1c2.711 0 2.629 12.435 7.5 10 4.874-2.437-3.271-25.636-6-27-2.097-1.048-6.404 2.692-5.5 4.5 1.612 3.223 4 7.729 4 11.5ZM246 211c-1.473 0-1 1.952-1 3l-4.5 4c-6.967-3.483 5.161-35.177 10.5-24.5 2.092 4.183-4 10.27-4 14.5v1l-1 2Z"/><path fill="#8AD987" id="CTXsp" d="M141 199c2.992 0 5.607 3 7 3v-9l-4 2-3 4ZM315 199c-1.98 0-5.003.506-6 2.5-.734 1.468.099 8.5-2 8.5 0-5.923 1-11.609 1-17l4 2c1.712 0 3 2.571 3 4Z"/><path fill="#219764" id="AIv2/3" d="M117 211c-6.937 0-12.76 4-20 4 0-3.911-9-7.942-9-13 3.414 0 6.353-3 10-3h1c0 4.625 18 5.841 18 12Z"/><path fill="#A0EE9C" id="EPd" d="M140 225h1c5.27 0 8.635 4.933 14.5 2l2.5-1.5-5-6.5v-1l-1-1-1-1-1-3c-1.473 0-1-1.952-1-3v-1c-1.684 0-1-4.679-1-6v-1c-1.393 0-4.008-3-7-3-1.518 0-8 5.218-8 7l-4 5v5l2 2 1 1 1 1 3 2 1 1h1l2 2ZM315 225h1l1-1h1l1-1h1l1-1 1-1h1l1-1 1-1 1-1 1-3v-5l-3-4c-3.398 0-5.13-7-9-7-1.98 0-5.003.506-6 2.5-.734 1.468.099 8.5-2 8.5 0 3.238-3 5.3-3 8l-1 1-1 1-1 1c0 2.409-1.277 1.055-2 2.5-3.396 6.792 10.85 3.5 13 3.5 0-1.577 1.762-2 3-2Z"/><path fill="#219764" id="AIv2/3" d="m339 211 20 4c0-4.198 10-8.361 10-13-3.99 0-6.666-3-11-3h-1c0 4.984-18 5.925-18 12Z"/><path fill="#209864" id="AIv1" d="m97 215-4 2c-2.317 0-9-11.742-9-14 1.048 0 3 .473 3-1h1c0 5.058 9 9.089 9 13ZM359 215c0 .672 4.329 2 5 2l9-14-4-1c0 4.639-10 8.802-10 13Z"/><path fill="#8AD987" id="CTXsp" d="M148 203c1.684 0 1 4.679 1 6-1.684 0-1-4.679-1-6Z"/><path fill="#99D2BD" id="OLF" d="M125 209c2.177 0 4-.641 4 2l4-5h-1c-1.345 0-7 1.571-7 3ZM331 209c-1.145 0-4-.579-4 1l-3-4c1.345 0 7 1.571 7 3ZM122 209l-1 1 1-1Z"/><path fill="#6ACAB9" id="PIR" d="M134 256h2c2.799 0 5.826-4 9-4 0-2.811 11.613-8.274 9-13.5-1.502-3.004-2.747-7.624-6.5-9.5l-6.5-4h-1l-2-2h-1l-1-1-3-2-1-1-1-1-2-2v-5c0-2.641-1.823-2-4-2h-3l-1 1-4 1c-6.937 0-12.76 4-20 4l-4 2c0 6.039 12.427 26 19 26 3.595 0 22 8.909 22 13Z"/><path fill="#97D6F9" id="STR" d="m247 209-1 2 1-2Z"/><path fill="#6ACAB9" id="PIR" d="M321 256h1l3.5-4 10.5-6.5c.814-.814 8-3.654 8-1.5 5.29 0 20-21.641 20-27-.671 0-5-1.328-5-2l-20-4-3-1-1-1h-4c-1.145 0-4-.579-4 1v1c1.535 0 1.535 4 0 4l-1 3-1 1-1 1-1 1h-1l-1 1-1 1h-1l-1 1h-1l-1 1h-1c0 1.577-1.762 2-3 2 0 2.157-7.656 5.812-9 8.5-3.986 7.972 8 14.104 8 16.5h1l1 1c3.45 0 4.946 3 8 3Z"/><path fill="#99D2BD" id="OLF" d="m335 209 1 1-1-1Z"/><path fill="#8AD987" id="CTXsp" d="M149 210c1.473 0 1 1.952 1 3-1.473 0-1-1.952-1-3Z"/><path fill="#CBCBC7" id="aco" d="M175 210c0 1.765-1.581.541-2.5 1l-4.5 6.5c-2 4.001 4.638 9.431 8.5 7.5 4.486-2.243 5.868-15-1.5-15ZM280 210c0 1.371-4 2.857-4 5.5 0 1.972.199 2.398 1 4 8.66 17.319 17.917-9.5 3-9.5Z"/><path fill="#97D6F9" id="STR" d="M246 211c-1.473 0-1 1.952-1 3 1.473 0 1-1.952 1-3Z"/><path fill="#99D2BD" id="OLF" d="M327 211c1.535 0 1.535 4 0 4v-4ZM129 216l2 2-2-2Z"/><path fill="#8AD987" id="CTXsp" d="m151 216 1 1-1-1Z"/><path fill="#99D2BD" id="OLF" d="m152 217 1 1-1-1ZM304 218l-1 1 1-1ZM326 218l-1 1 1-1ZM132 219l1 1-1-1ZM145 252h3c3.315 0 7.162-6 11-6l-1-6.5c1.289-2.578 3-9.249 3-12 0-2.29-4-4.521-4-6.5l-4-2 5 6.5-2.5 1.5c-5.865 2.933-9.23-2-14.5-2l6.5 4c3.753 1.876 4.998 6.496 6.5 9.5 2.613 5.226-9 10.689-9 13.5ZM303 219l-1 1 1-1ZM325 219l-1 1 1-1ZM302 220l-1 1 1-1ZM324 220l-1 1 1-1ZM309 252h2c0-2.396-11.986-8.528-8-16.5 1.344-2.688 9-6.343 9-8.5-2.15 0-16.396 3.292-13-3.5.723-1.445 2-.091 2-2.5h-2l-3 4.5c-.768 1.537 2 16.639 2 20.5l11 6ZM322 221l-1 1 1-1ZM136 222l1 1-1-1ZM321 222l-1 1 1-1ZM138 223l2 2-2-2ZM319 223l-1 1 1-1ZM317 224l-1 1 1-1ZM315 225c-1.238 0-3 .423-3 2 1.238 0 3-.423 3-2Z"/><path fill="#A2B1D7" id="SI" d="m219 247-1.5-1c-2.089 0-3.7 6.7-5 8-5.741 5.741-11.305 9.652-18 13-6.324 3.162-26.419-1.209-32-4l-6-5c-1.573-.787-8.5-4.115-8.5-6 3.315 0 7.162-6 11-6 0 10.907 28.07 19.715 37.5 15 10.791-5.395 18.5-16.046 18.5-28 4.066 0 4 12.113 4 14ZM237 247l2.5-1 4 8c5.61 5.61 12.389 9.695 19 13 8.879 4.439 32.251-3.251 38.5-9.5l8-5.5-11-6-3 6.5c-1.281 2.563-7.567 5.034-10.5 6.5-2.81 1.405-21.455 3.773-25 2-5.639-2.819-13.769-10.038-16.5-15.5-1.67-3.339-1-8.503-1-12.5-4.154 0-5 10.3-5 14Z"/><path fill="#CAC8C7" id="lot" d="m135 260-2 1c-2.689 0-21-14.926-21-18 3.595 0 22 8.909 22 13l1 1v3ZM322 261h1c3.11 0 21-15.051 21-17 0-2.154-7.186.686-8 1.5l-10.5 6.5-3.5 4v5Z"/><path fill="#7FCCF7" id="OT" d="m217 269-1 1c0 3.158-6.021 7.761-8.5 9-3.902 1.951-7.224 5.112-11 7h-20c-2.333 1.167-11.199 2.401-14 1l-15-8-6-6-5.5-8-1-3v-5l1-1c2.799 0 5.826-4 9-4h3c0 1.885 6.927 5.213 8.5 6l6 5c5.581 2.791 25.676 7.162 32 4 6.695-3.348 12.259-7.259 18-13 1.3-1.3 2.911-8 5-8l1.5 1c0 2.147 2 7.689 2 12v1l-1 2v1l-1 1v1l-1 1v1l-1 1v1ZM320 265c0 4.487-9.678 13.089-13.5 15-4.508 2.254-8.564 4.782-13 7-2.801 1.401-11.667.167-14-1h-20c-2.787-1.394-5.139-3.569-8-5-1.959-.979-3.626-1.752-4.5-3.5-1.513-3.025-8-5.431-8-10.5l-2-2v-2l-2-4v-1c0-4.23 2-7.554 2-11l2.5-1 4 8c5.61 5.61 12.389 9.695 19 13 8.879 4.439 32.251-3.251 38.5-9.5l8-5.5h3l1 1c3.45 0 4.946 3 8 3 0 1.048-.473 3 1 3v2l-1 2v1l-1 1Z"/><path fill="#99D2BD" id="OLF" d="m312 252 1 1-1-1ZM136 256l-1 1-1-1h2ZM322 256v3c-1.473 0-1-1.952-1-3h1Z"/><path fill="#97D6F9" id="STR" d="m235 259 2 4-2-4Z"/><path fill="#99D2BD" id="OLF" d="M134 262h1v-2l-2 1 1 1Z"/><path fill="#97D6F9" id="STR" d="m221 260-1 2 1-2ZM321 263h1v-2l-1 2Z"/><path fill="#99D2BD" id="OLF" d="m323 261-1 2v-2h1Z"/><path fill="#97D6F9" id="STR" d="m135 262 1 3-2-3h1ZM220 263l-1 1 1-1ZM321 264l-1 1 1-1ZM219 265l-1 1 1-1ZM237 265l2 2-2-2ZM218 267l-1 1 1-1Z"/><path fill="#8599CC" id="PAL" d="m217 269-1 1 1-1Z"/></svg>