<svg xmlns="http://www.w3.org/2000/svg" viewBox="0 0 456 320"><path fill="#1E9C59" id="MOs1" d="m224 61-3 2-5-5.5c-3.866-3.865-8.068-5.284-12.5-7.5-5.578-2.79-30.549 2.775-35 5l-6.5 3v-7c4.742 0 13.237-3.868 17.5-6h7c8.69-4.345 20.745.873 27 4 3.236 1.618 10.5 8.145 10.5 12ZM232 61l4 3 3-4.5c6.051-12.102 28.883-11.809 39.5-6.5h4l11.5 5v-7c-2.431 0-14.825-4.663-17.5-6h-7c-8.32-4.16-20.14.57-27 4-1.985.993-10.5 10.011-10.5 12Z"/><path fill="#1E9D58" id="MOs2/3" d="M162 75h1l9.5-5c8.758-4.379 21.856-13.572 33-8 2.026 1.013 8.5 2.25 8.5 6 2.117 0 4.428-4 7-4v-1l-5-5.5c-3.866-3.865-8.068-5.284-12.5-7.5-5.578-2.79-30.549 2.775-35 5l-6.5 3v17ZM242 68l3.5-4c3.842-1.92 13.821-5.59 19-3 7.377 3.688 15.566 6.283 23 10l6.5 4V58l-11.5-5h-4c-10.617-5.309-33.449-5.602-39.5 6.5l-3 4.5v1l6 3Z"/><path fill="#1E9D5A" id="MOp1" d="M101 85c0 1.134.299 6 1 6l13.5-10c9.421-4.71 37.463-23 46.5-23v-7l-12.5 6c-12.006 6.003-23.873 12.936-36 19L101 85ZM354 91h1v-6c0-2.45-12.243-8.871-14.5-10-9.285-4.643-37.855-24-46.5-24v7c10.123 0 34.6 16.05 44.5 21L354 91Z"/><path fill="#1F9C58" id="MOp2/3" d="M106 116h1c0-5.43 10.055-9.611 12-13.5 4.576-9.152 22.725-16.612 32.5-21.5 3.348-1.674 6.569-6 10.5-6V58c-9.037 0-37.079 18.29-46.5 23L102 91v1l2 16c0 1.257.941 8 2 8ZM353 109c-1.359 0-2 7.119-2 8-1.76 0-3.394-4.288-4-5.5l-11-11c-8.607-8.607-20.253-14.377-30.5-19.5-3.447-1.724-7.466-6-11.5-6V58c10.123 0 34.6 16.05 44.5 21L354 91l1 1v1c-.921 0-2 12.986-2 16Z"/><path fill="#1F9D58" id="MOs5" d="M198 84h1c0-2.647 12.409-15 15-15v-1c0-3.75-6.474-4.987-8.5-6-11.144-5.572-24.242 3.621-33 8l-9.5 5c0 5.864-2 14.11-2 20 7.59 0 21.485-9.493 28.5-13 1.704-.852 8.5.604 8.5 2Z"/><path fill="#3EA665" id="ACAd1" d="M223 95h11V73c0-1.552.566-8 2-8v-1l-4-3c-1.612 0-2.983 6-3.5 6l-4.5-6-3 2v1c0 2.654.888 5.275 2 7.5V95Z"/><path fill="#1F9D58" id="MOs5" d="M259 84c0-3.278 8.893-1.804 10.5-1 7.218 3.609 17.169 12 25.5 12 0-8.063-1-13.41-1-20l-6.5-4c-7.434-3.717-15.623-6.312-23-10-5.179-2.59-15.158 1.08-19 3l-3.5 4v1c2.393 0 16 12.778 16 15h1Z"/><path fill="#40A565" id="ACAd2/3" d="M223 95c-1.564 0-3.876 1-6 1 0-4.289 1.2-27-3-27v-1c2.117 0 4.428-4 7-4 0 2.654.888 5.275 2 7.5V95ZM234 96c2.124 0 4.436 1 6 1V75.5c0-1.483.487-6.5 2-6.5v-1l-6-3c-1.434 0-2 6.448-2 8v23Z"/><path fill="#3EA566" id="ACAd5" d="M217 97c-5.995 0-9.987 7-15 7l-1-16.5-2-3.5c0-2.647 12.409-15 15-15 4.2 0 3 22.711 3 27v1ZM240 97c5.739 0 9.713 7 15 7V89.5l3-5.5c0-2.222-13.607-15-16-15-1.513 0-2 5.017-2 6.5V97Z"/><path fill="#1E9C5A" id="MOp5" d="m107 157 1 1c0-25.106 10.757-40.628 31.5-51 6.256-3.128 14.272-11 21.5-11v-1c0-5.89 2-14.136 2-20h-1c-3.931 0-7.152 4.326-10.5 6-9.775 4.888-27.924 12.348-32.5 21.5-1.945 3.889-12 8.07-12 13.5l-1 1c0 4.858 3 10.327 3 14.5 0 6.447-2 16.113-2 25.5ZM349 157c0 1.235.643 5-1 5 0-30.492-8.668-44.084-34.5-57-5.507-2.754-12.087-9-18.5-9v-1c0-8.063-1-13.41-1-20 4.034 0 8.053 4.276 11.5 6 10.247 5.123 21.893 10.893 30.5 19.5l11 11c.606 1.212 2.24 5.5 4 5.5v1c-2.466 0 0 2.005 0 2.5l-2 1c-.489.979 0 5.76 0 8V157Z"/><path fill="#1D9C5A" id="MOs6a" d="m167 115-5 2c0-6.245-1-14.256-1-21v-1c7.59 0 21.485-9.493 28.5-13 1.704-.852 8.5.604 8.5 2 0 2.748-13 18.819-13 25-1.552 0-8 .566-8 2-1.623 0-6 .005-6 2-1.465 0-4-.109-4 2ZM271 109c9.216 0 19.573 8 23 8 1.643 0 1-3.765 1-5V95c-8.331 0-18.282-8.391-25.5-12-1.607-.804-10.5-2.278-10.5 1 0 4.147 12 17.395 12 25Z"/><path fill="#3FA664" id="ACAd6a" d="M190 113h1l5-3c0-1.726 4.558-5 6-5v-1l-1-16.5-2-3.5h-1c0 2.748-13 18.819-13 25l5 4ZM265 113h2c0-1.747.253-2 2-2l2-1v-1c0-7.605-12-20.853-12-25h-1l-3 5.5V105l5 5c1.076 0 5 1.523 5 3Z"/><path fill="#187E61" id="SSp-m1" d="m74 164-4 1c0-5.092-3.65-16.2-1-21.5 2.277-4.553 1.73-10.462 4-15 4.401-8.802 7.517-18.034 12-27C86.447 98.606 97.74 85 101 85c0 1.134.299 6 1 6v1c-2.264 0-12.16 12.821-13 14.5-2.987 5.973-7.034 11.069-10 17-3.468 6.936-2.55 16.101-6 23-2.265 4.531 1 13.118 1 17.5ZM383 164c0 1.579 2.855 1 4 1 0-29.298-2.34-37.18-15-62.5-1.979-3.958-11.843-17.5-17-17.5v8c3.552 0 10.473 10.446 12 13.5 12.119 24.237 16 27.654 16 57.5Z"/><path fill="#1A7E64" id="SSp-m2/3" d="M355 91v1l-1-1h1ZM74 164v1l11-3v-1c0-16.384 3.306-27.112 10-40.5 1.138-2.277 5.77-12.5 9-12.5l-2-16c-2.264 0-12.16 12.821-13 14.5-2.987 5.973-7.034 11.069-10 17-3.468 6.936-2.55 16.101-6 23-2.265 4.531 1 13.118 1 17.5ZM382 164h1c0-29.846-3.881-33.263-16-57.5-1.527-3.054-8.448-13.5-12-13.5-.921 0-2 12.986-2 16 3.614 0 6.913 8.327 8 10.5 6.694 13.388 11 25.225 11 41.5v1l10 2Z"/><path fill="#3FA566" id="ACAv2/3" d="M219 144h3c0-15.648 1-33.128 1-49-1.564 0-3.876 1-6 1v1c0 16.33 2 31.433 2 47Z"/><path fill="#40A664" id="ACAv1" d="m232 143 2 1V95h-11c0 15.872-1 33.352-1 49l3-1c2.667 0 2.6-10 3.5-10l.5 7.5 2 2.5h1Z"/><path fill="#1F9B5A" id="MOp6a" d="M109 164v6l18-7c0-8.141 9.521-34 20-34 0-2.289 6.178-6 8-6 0-1.617 4.583-4 6-4l1-1v-1c0-6.245-1-14.256-1-21-7.228 0-15.244 7.872-21.5 11-20.743 10.372-31.5 25.894-31.5 51v4l1 2Z"/><path fill="#3FA566" id="ACAv2/3" d="M234 144h3c0-14.686 3-31.897 3-47-1.564 0-3.876-1-6-1v48Z"/><path fill="#1F9B5A" id="MOp6a" d="M348 166c-1.579 0-1 2.855-1 4l-18-7c0-14.283-8.323-29.411-21.5-36-4.12-2.06-8.785-9-13.5-9v-1c1.643 0 1-3.765 1-5V96c6.413 0 12.993 6.246 18.5 9 25.832 12.916 34.5 26.508 34.5 57v2c-1.186 0-1.186 1 0 1v1Z"/><path fill="#3EA666" id="ACAv5" d="M213 144h6c0-15.567-2-30.67-2-47-5.995 0-9.987 7-15 7v1c0 9.785.938 20.376 5 28.5 1.473 2.946 6 7.148 6 10.5ZM237 144h6l6-9.5c3.93-7.86 6-20.236 6-29.5v-1c-5.287 0-9.261-7-15-7 0 15.103-3 32.314-3 47Z"/><path fill="#40A564" id="ACAv6a" d="m208 143 5 1c0-3.352-4.527-7.554-6-10.5-4.062-8.124-5-18.715-5-28.5-1.442 0-6 3.274-6 5 0 7.815 5 16.402 5 21v1l1 1 1 3 1 3 4 4ZM248 143l-5 1 6-9.5c3.93-7.86 6-20.236 6-29.5l5 5c0 9.672-5 17.19-5 22l-1 3-1 1v2l-1 1-4 4Z"/><path fill="#1B7F62" id="SSp-m4" d="M85 161h5v-1c0-11.348 5.203-23.905 10-33.5.813-1.626 4.09-9.5 6-9.5v-1c-1.059 0-2-6.743-2-8-3.23 0-7.862 10.223-9 12.5-6.694 13.388-10 24.116-10 40.5Z"/><path fill="#1E9C58" id="MOs6b" d="M177 111h8v-2c-1.552 0-8 .566-8 2Z"/><path fill="#3FA466" id="ACAd6b" d="M189 113h1l-5-4v2l4 2Z"/><path fill="#1E9C58" id="MOs6b" d="M294 118v1l-3-1c0-4.432-16-7-20-7v-2c9.216 0 19.573 8 23 8v1Z"/><path fill="#1B7F62" id="SSp-m4" d="M367 161h5c0-16.275-4.306-28.112-11-41.5-1.087-2.173-4.386-10.5-8-10.5-1.359 0-2 7.119-2 8v1c2.466 0 5.113 7.725 6 9.5 4.042 8.083 10 24.199 10 33.5Z"/><path fill="#2FA850" id="PL6a" d="m191 113 7 14.5 3 3.5c0-4.598-5-13.185-5-21l-5 3ZM257 131l-2 1c0-4.81 5-12.328 5-22 1.076 0 5 1.523 5 3l-8 18Z"/><path fill="#3FA466" id="ACAd6b" d="M269 111h2v-1l-2 1Z"/><path fill="#1E9C58" id="MOs6b" d="M177 111c-1.623 0-6 .005-6 2 1.623 0 6-.005 6-2Z"/><path fill="#CACCC7" id="cing" d="m201 138 3 1-1-3c-3.018 0-9.418-15.336-11-18.5l-3-4.5-4-2h-8c0 1.995-4.377 2-6 2 0 2.109-2.535 2-4 2 0 2.215-2 1.519-2 3h5l6-1c0-1.882 6.745-2.877 8.5-2 3.562 1.781 13.5 15.395 13.5 19l3 4Z"/><path fill="#3FA466" id="ACAd6b" d="M269 111c-1.747 0-2 .253-2 2l2-2Z"/><path fill="#CACCC7" id="cing" d="M253 138h2l1-1 2-2 1-1v-1l1-1 1-1c0-5.546 6.492-13.496 11.5-16 1.704-.852 8.5.604 8.5 2l6 1h4c0-4.432-16-7-20-7h-2l-2 2-7 14.5-3 3.5c0 1.238-1.923 5-3 5l-1 1v1Z"/><path fill="#1E9C58" id="MOs6b" d="M171 113c-1.465 0-4-.109-4 2 1.465 0 4 .109 4-2Z"/><path fill="#2FA84F" id="PL6b" d="m202 133 1 3c-3.018 0-9.418-15.336-11-18.5l-3-4.5h2l7 14.5 3 3.5v1l1 1ZM267 113l-7 14.5-3 3.5 8-18h2Z"/><path fill="#1E9C58" id="MOs6b" d="m165 118-3 1v-2l5-2c0 2.215-2 1.519-2 3Z"/><path fill="#CCC7C9" id="ccg" d="m176 117 11.5 6 10.5 11c0-3.605-9.938-17.219-13.5-19-1.755-.877-8.5.118-8.5 2ZM281 117c-5.426 0-19.205 14-20 14 0-5.546 6.492-13.496 11.5-16 1.704-.852 8.5.604 8.5 2Z"/><path fill="#1B7E63" id="SSp-m5" d="m107 116-1 1v-1h1ZM107 157c-6.489 0-11.436 3-17 3 0-11.348 5.203-23.905 10-33.5.813-1.626 4.09-9.5 6-9.5 0 4.858 3 10.327 3 14.5 0 6.447-2 16.113-2 25.5Z"/><path fill="#CAC7CC" id="fa" d="M134 170c0 1.473-1.952 1-3 1v-4c0-14.115 6.611-31.055 20.5-38l13-8c1.216-.608 5.5-1.184 5.5-3l6-1 11.5 6 10.5 11 3 4 7 8v9c-1.579 0-1 2.855-1 4v1c-.979 0-2.61 1-6 1-2.522 0-2.735-10-6-10 0-10.334-27.129-21.685-36.5-17-19.97 9.985-24.5 11.212-24.5 36ZM322 171h3l1-1c-2.462 0-.1-10.701-1-12.5-2.398-4.796-3.552-10.105-6-15-3.78-7.56-15.924-15.712-23.5-19.5-1.555-.778-8.5-3.004-8.5-5l-6-1c-5.426 0-19.205 14-20 14l-1 1-1 1v1l-1 1-2 2-1 1c0 1.6-4.129 7-6 7v11c0 5.66 2.286 5 6 5 3.397 0 2.199-9 6-9 0-11.003 27.216-23.142 37.5-18 22.313 11.156 23.5 12.293 23.5 37Z"/><path fill="#1D9D5A" id="MOp6b" d="M161 119h1v-1l-1 1Z"/><path fill="#C9C9CA" id="scwm" d="m129 163 2 4c0-14.115 6.611-31.055 20.5-38l13-8c1.216-.608 5.5-1.184 5.5-3h-5l-3 1h-1c0 2.275-3.756 4-6 4 0 2.289-6.178 6-8 6 0 4.418-9.58 8.661-12 13.5-3.038 6.075-6 13.251-6 20.5ZM327 162l-1 8c-2.462 0-.1-10.701-1-12.5-2.398-4.796-3.552-10.105-6-15-3.78-7.56-15.924-15.712-23.5-19.5-1.555-.778-8.5-3.004-8.5-5h4l3 1c2.678 0 10.635 8.568 13.5 10 11.578 5.789 19.5 20.549 19.5 33Z"/><path fill="#1D9D5A" id="MOp6b" d="m327 162 2 1c0-14.283-8.323-29.411-21.5-36-4.12-2.06-8.785-9-13.5-9v1c2.678 0 10.635 8.568 13.5 10 11.578 5.789 19.5 20.549 19.5 33Z"/><path fill="#1B7E63" id="SSp-m5" d="M349 157c6.215 0 12.269 4 18 4 0-9.301-5.958-25.417-10-33.5-.887-1.775-3.534-9.5-6-9.5s0 2.005 0 2.5l-2 1c-.489.979 0 5.76 0 8V157Z"/><path fill="#1D9D5A" id="MOp6b" d="M161 119c-1.417 0-6 2.383-6 4 2.244 0 6-1.725 6-4ZM155 123c-1.822 0-8 3.711-8 6 1.822 0 8-3.711 8-6ZM127 163h2c0-7.249 2.962-14.425 6-20.5 2.42-4.839 12-9.082 12-13.5-10.479 0-20 25.859-20 34Z"/><path fill="#2FA84F" id="PL6b" d="M254 135v1c1.077 0 3-3.762 3-5l-2 1-1 3Z"/><path fill="#CCC7C9" id="ccg" d="m261 131-1 1 1-1Z"/><path fill="#2FA850" id="PL6a" d="m201 132 1 1-1-1Z"/><path fill="#CCC7C9" id="ccg" d="m260 132-1 1 1-1Z"/><path fill="#98D5F9" id="CP" d="m149 225 2 1c1.804 0 5.136 2.182 7.5 1 .306-.153 9.441-16.383 10.5-18.5 2.985-5.97 14.247-9.874 19.5-12.5l6.5-5 1-3v-1c0-8.399 1-17.102 1-26 0-3.894-2-6.605-2-10 0-10.334-27.129-21.685-36.5-17-19.97 9.985-24.5 11.212-24.5 36 1.149 0 1.508 4.516 2 5.5 3.367 6.735 5 13.317 5 21.5v8c1.931 0 2 6.225 2 8v1l1 1 5 10Z"/><path fill="#CCC7C9" id="ccg" d="m259 134-1 1 1-1Z"/><path fill="#98D5F9" id="CP" d="m307 225-3 2c-10.413 0-7.468-4.437-11-11.5l-4-5c-3.546-7.091-13.758-10.629-19.5-13.5l-7.5-6-2-3v-26c0-3.51 1-7.022 1-10 0-11.003 27.216-23.142 37.5-18 22.313 11.156 23.5 12.293 23.5 37-3.369 0-6 21.852-6 27l-1 6v3c-1.353 0-2 4.643-2 6 0 4.868-6 7.609-6 12Z"/><path fill="#2FA850" id="PL6a" d="M253 136h1v-1l-1 1Z"/><path fill="#58B362" id="ILA6a" d="m254 136-1 1v-1h1Z"/><path fill="#CCC7C9" id="ccg" d="m256 137-1 1 1-1ZM208 143v3l-7-8 3 1 4 4Z"/><path fill="#CACCC7" id="cing" d="m253 138-1 1 1-1Z"/><path fill="#CCC7C9" id="ccg" d="m248 143 1 2c1.871 0 6-5.4 6-7h-2l-1 1-4 4Z"/><path fill="#A3DAA3" id="DP" d="M224 157c-4.5 0-10.926 1-15 1l-1-3v-12l5 1h9l3-1v2c0 3.962-1 8.688-1 12Z"/><path fill="#99D2BD" id="OLF" d="m232 143-1 2v-2h1Z"/><path fill="#A3DAA3" id="DP" d="M232 157c4.5 0 10.926 1 15 1l2-2v-11l-1-2-5 1h-9l-2-1-1 2v2c0 3.51 1 7.022 1 10Z"/><path fill="#99D2BD" id="OLF" d="M216 179c0 8.685 24 8.697 24 1-13.015 0-11 1.253-11-13-1.614 0-1-3.31-1-4.5 0-3.326-.538-9.075-2-12-.619-1.238 1.144-5.5-1-5.5 0 3.962-1 8.688-1 12 2.818 0 4.381 19.738 3 22.5-2.282 4.564-8.681-.5-11-.5Z"/><path fill="#99D2BD" id="OLF" d="m232 157-3 6c0-2.835.419-16 2-16 0 3.51 1 7.022 1 10Z"/><path fill="#AAA8A9" id="SEZ" d="M201 176c0 1.235.643 5-1 5 0-3.499.464-20-3-20 0-3.894-2-6.605-2-10 3.265 0 3.478 10 6 10v15ZM255 176c0 1.257.941 8 2 8 0-3.829-2.602-22 3-22 0-3.51 1-7.022 1-10-3.801 0-2.603 9-6 9v15Z"/><path fill="#99D2BD" id="OLF" d="m209 158-2 1c0-1.145-.579-4 1-4l1 3ZM247 173c6.597 0 6.644 3 8 3v-15c-3.714 0-6 .66-6-5l-2 2c0 1.78 4.98 4.539 3 8.5l-3 6.5Z"/><path fill="#019C75" id="GU5" d="M109 171c-7.115 0-13.053 8-20 8 0-6.102 1-12.479 1-18v-1c5.564 0 10.511-3 17-3l1 1v4l1 2v7Z"/><path fill="#61D09F" id="TTd" d="M215 179h1c2.319 0 8.718 5.064 11 .5 1.381-2.762-.182-22.5-3-22.5-4.5 0-10.926 1-15 1l-2 1v1l-1 5.5 3 6.5 3 4 3 3ZM241 179l-1 1c-13.015 0-11 1.253-11-13v-4l3-6c4.5 0 10.926 1 15 1 0 1.78 4.98 4.539 3 8.5l-3 6.5-6 6Z"/><path fill="#019C75" id="GU5" d="m348 171 19 8v-18c-5.731 0-11.785-4-18-4 0 1.235.643 5-1 5v9Z"/><path fill="#99D2BD" id="OLF" d="M209 172c-3.715 0-5.378 4-8 4v-15c3.39 0 5.021-1 6-1l-1 5.5 3 6.5Z"/><path fill="#009C74" id="GU4" d="M88 179h1c0-6.102 1-12.479 1-18h-5v1c0 3.087 1.172 17 3 17Z"/><path fill="#A8AAAA" id="VL" d="M196 187h2l1-2c0-1.145-.579-4 1-4 0-3.499.464-20-3-20 0 8.898-1 17.601-1 26Z"/><path fill="#009C74" id="GU4" d="M367 179h2c0-4.514 2-8.092 2-13 0-1.145-.579-4 1-4v-1h-5v18Z"/><path fill="#009B75" id="GU2/3" d="M88 179c0 .885-9.683 4-11 4l-3-18 11-3c0 3.087 1.172 17 3 17Z"/><path fill="#1E9C5A" id="MOp5" d="m108 162 1 2-1-2Z"/><path fill="#A8AAAA" id="VL" d="M259 187h1v-25c-5.602 0-3 18.171-3 22v1l1 2h1Z"/><path fill="#1F9766" id="AId6b" d="m326 177-3 4 2-10 1-1 1-8 2 1-2 13-1 1Z"/><path fill="#009B75" id="GU2/3" d="M369 179c0 1.312 8.921 4 10 4 0-6.079 3-12.313 3-19l-10-2c-1.579 0-1 2.855-1 4 0 4.908-2 8.486-2 13Z"/><path fill="#209666" id="AId6a" d="m122 190-3 3-7-8.5c-2.268-4.535-3-7.921-3-13.5v-1l18-7c0 5.145 4 10.525 4 15l-3.5-3c-10.43-5.215-5.5 12.832-5.5 15Z"/><path fill="#1F9766" id="AId6b" d="M133 181h1c0-3.414-3-6.353-3-10v-4l-2-4h-2c0 5.145 4 10.525 4 15l2 3Z"/><path fill="#209666" id="AId6a" d="M337 193h1c0-3.364 10-12.036 10-22v-1h-1l-18-7-2 13 6.5-1c6.968 3.484.5 11.574.5 16l3 2Z"/><path fill="#009C75" id="GU1" d="m77 183-3 1c-1.951 0-.477-2.454-1-3.5-2.014-4.028-3-10.801-3-15.5l4-1v1l3 18Z"/><path fill="#009B74" id="GU6a" d="M348 164c-1.186 0-1.186 1 0 1v-1Z"/><path fill="#009C75" id="GU1" d="m379 183 4 2 4-20c-1.145 0-4 .579-4-1h-1c0 6.687-3 12.921-3 19Z"/><path fill="#009B74" id="GU6a" d="M347 170h1v-4c-1.579 0-1 2.855-1 4Z"/><path fill="#C8CBCC" id="ec" d="m141 197-2 2c0-1.899.488-8-2-8v-1l-2-4v-1l-1-2v-2c0-3.414-3-6.353-3-10 1.048 0 3 .473 3-1 1.149 0 1.508 4.516 2 5.5 3.367 6.735 5 13.317 5 21.5Z"/><path fill="#209665" id="AId5" d="M95 199h1c8.182 0 15.114-6 23-6l-7-8.5c-2.268-4.535-3-7.921-3-13.5-7.115 0-13.053 8-20 8 0 6.627 6 16.007 6 20Z"/><path fill="#C8CBCC" id="ec" d="M316 198h1c0-1.357.647-6 2-6v-1l1-2 1-2v-1l1-1v-1l1-2v-1l2-10h-3c-3.369 0-6 21.852-6 27Z"/><path fill="#209665" id="AId5" d="M360 199h1c0-1.261 6-12.143 6-20l-19-8c0 9.964-10 18.636-10 22 7.458 0 14.225 6 22 6Z"/><path fill="#97D6F9" id="STR" d="M239 268h1c0-3.336-5.22-7.061-3-11.5l3-7.5c0-2.366-3.412-16 2-16v-13c-14.659 0-5-33.25 2.5-37 2.126-1.063 5.36 3.18 7 4 2.04 1.02 3.079-2.342 4.5.5 1.292 2.583-2 5.121-2 7.5 2.174 0 2.725-4 8-4l-2-3-1-1h-1l-1-2v-1c-1.059 0-2-6.743-2-8-1.356 0-1.403-3-8-3l-6 6-1 1c0 7.697-24 7.685-24-1h-1l-3-3-3-4c-3.715 0-5.378 4-8 4 0 1.235.643 5-1 5 0 1.145.579 4-1 4l-1 2-2 1-1 3c5.906 0 6.337 8 10 8 0-3.467-5-6.797-5-10.5l1.5-2.5 3 1c1.818-.909 5.617-5.192 8-4 4.437 2.218 9.5 21.958 9.5 27.5 0 2.788-1.304 10.5-5.5 10.5l-3.5-4c0 4.783 2 10.26 2 16 4.081 0 2 13.944 2 16 0 4.906 2 9.387 2 15h1c0-3.627 4-6.979 4-11v-1c0-5.474-1.258-29.984 1-34.5.982-1.965 4.286-4.429 6-1l2 26c0 1.532.743 8.5-1 8.5v2l5 12 1 1 1 2Z"/><path fill="#8ADA86" id="CLA" d="M137 190v1c0 6.194-7.938 13.625-12 5.5-.663-1.326-1.002-6.5-3-6.5 0-2.168-4.93-20.215 5.5-15l3.5 3 2 3 1 2 1 2v1l2 4ZM334 191l-4 7.5c-2.534 5.069-11-1.374-11-6.5v-1l1-2 1-2v-1l1-1v-1l1-2v-1l3-4 1-1 6.5-1c6.968 3.484.5 11.574.5 16Z"/><path fill="#99D2BD" id="OLF" d="m212 176 3 3-3-3Z"/><path fill="#209666" id="AId6a" d="m327 176-1 1 1-1Z"/><path fill="#209765" id="AId2/3" d="M84 203h1c1.085 0 10-3.371 10-4 0-3.993-6-13.373-6-20h-1c0 .885-9.683 4-11 4l7 20Z"/><path fill="#99D2BD" id="OLF" d="m241 179-1 1 1-1Z"/><path fill="#209765" id="AId2/3" d="M371 203h1c0-6.516 7-13.055 7-20-1.079 0-10-2.688-10-4h-2c0 7.857-6 18.739-6 20 0 .956 8.939 4 10 4Z"/><path fill="#209666" id="AId6a" d="M134 181v2l-1-2h1Z"/><path fill="#AAA8A9" id="SEZ" d="M200 181c-1.579 0-1 2.855-1 4 1.579 0 1-2.855 1-4Z"/><path fill="#1F9866" id="AIv6a" d="m323 182-1 2 1-2Z"/><path fill="#209764" id="AId1" d="M84 203c0 1.473-1.952 1-3 1 0-5.412-7-12.727-7-20l3-1 7 20Z"/><path fill="#1F9866" id="AIv6a" d="m134 183 1 2-1-2Z"/><path fill="#90CAED" id="LSr" d="M213 216v1l3.5 4c4.196 0 5.5-7.712 5.5-10.5 0-5.542-5.063-25.282-9.5-27.5-2.383-1.192-6.182 3.091-8 4l-3-1-1.5 2.5c0 3.703 5 7.033 5 10.5v1c1.577 0 2 1.762 2 3v1l1 1v1l1 1 1 3 1 1v2l1 1v1l1 1ZM243 219l-1 1c-14.659 0-5-33.25 2.5-37 2.126-1.063 5.36 3.18 7 4 2.04 1.02 3.079-2.342 4.5.5 1.292 2.583-2 5.121-2 7.5l-1 2-1 2-1 1v1l-1 1-1 1v2l-1 1-1 3-1 1v1l-1 1v1l-1 2-1 2v2Z"/><path fill="#209764" id="AId1" d="M372 203c0 1.473 1.952 1 3 1l2-3.5c2.037-4.073 6-10.868 6-15.5l-4-2c0 6.945-7 13.484-7 20Z"/><path fill="#AAA8A9" id="SEZ" d="m257 185 1 2-1-2Z"/><path fill="#1F9866" id="AIv6a" d="m322 185-1 1 1-1ZM135 186l2 4-2-4Z"/><path fill="#AAA8A9" id="SEZ" d="m198 187-2 1v-1h2ZM260 187v1l-1-1h1Z"/><path fill="#1F9866" id="AIv6a" d="m321 187-1 2 1-2ZM320 189l-1 2 1-2ZM126 208h1c0-2.972 7.828-6 11-6l1-3c0-1.899.488-8-2-8 0 6.194-7.938 13.625-12 5.5-.663-1.326-1.002-6.5-3-6.5l-3 3 7 15Z"/><path fill="#80CDF8" id="ACB" fill-rule="evenodd" d="m176 210-3 1.5-4 6c-1.882 3.763 4 9.25 7.5 7.5 5.242-2.621 7.225-15-.5-15m39 23c0 25.957-30.556 36.472-51.5 26-3.485-1.742-5.686-3.871-7.5-7.5-.465-.93-.817-4.5-2-4.5v-14.5c-.579-1.157-3-5.491-3-6.5 1.804 0 5.136 2.182 7.5 1 .306-.153 9.441-16.383 10.5-18.5 2.985-5.97 14.247-9.874 19.5-12.5l6.5-5c5.906 0 6.337 8 10 8v1l2 3v1l1 1v1l1 1 1 3 1 1v2l1 1v1l1 1v1c0 4.783 2 10.26 2 16ZM279 210c0 1.371-4 2.857-4 5.5 0 4.988 8.074 14.853 12 7 2.44-4.88-3.485-12.5-8-12.5m-37 23c0 12.041 6.527 23.013 16.5 28l9 1c2.959 1.48 7.041 1.48 10 0 6.35-3.175 24.5-.49 24.5-15 0-6.25 2-13.639 2-20-10.413 0-7.468-4.437-11-11.5l-4-5c-3.546-7.091-13.758-10.629-19.5-13.5l-7.5-6c-5.275 0-5.826 4-8 4l-1 2-1 2-1 1v1l-1 1-1 1v2l-1 1-1 3-1 1v1l-1 1v1l-1 2-1 2v2l-1 1v13Z"/><path fill="#1F9866" id="AIv6a" d="M329 207h1l7-14-3-2-4 7.5c-2.534 5.069-11-1.374-11-6.5-1.353 0-2 4.643-2 6l1 4c5.403 0 8.873 5 11 5Z"/><path fill="#1F9865" id="AIv5" d="M112 211h5c0-1.686 7.542-3 9-3l-7-15c-7.886 0-14.818 6-23 6 0 4.27 9.959 6.729 12.5 8l3.5 4ZM339 211c2.124 0 4.436 1 6 1 0-7.845 15-5.955 15-13-7.775 0-14.542-6-22-6h-1l-7 14c0 3.265 9 .735 9 4Z"/><path fill="#97D6F9" id="STR" d="m254 195-1 2 1-2Z"/><path fill="#8AD987" id="CTXsp" d="m138 202 3 1v-6l-2 2-1 3Z"/><path fill="#97D6F9" id="STR" d="m253 197-1 2 1-2Z"/><path fill="#8AD987" id="CTXsp" d="m318 202-3 2 1-6h1l1 4Z"/><path fill="#219764" id="AIv2/3" d="M112 211c0 .843-3.646 2-4.5 2L93 216c0-5.208-8-7.408-8-13 1.085 0 10-3.371 10-4h1c0 4.27 9.959 6.729 12.5 8l3.5 4Z"/><path fill="#97D6F9" id="STR" d="m252 199-1 1 1-1Z"/><path fill="#219764" id="AIv2/3" d="m345 212 18 4c0-4.745 8-7.873 8-13-1.061 0-10-3.044-10-4h-1c0 7.045-15 5.155-15 13Z"/><path fill="#97D6F9" id="STR" d="M205 200c1.577 0 2 1.762 2 3l-2-3ZM251 201l-1 1 1-1Z"/><path fill="#A0EE9C" id="EPd" d="M134 225c2.735 0 15 6.188 15 0l-5-10-1-1v-1c-1.931 0-2-6.225-2-8v-2l-3-1c-3.172 0-11 3.028-11 6 0 1.477-2 5.699-2 9v1l5 5h1l2 2h1Z"/><path fill="#97D6F9" id="STR" d="m250 202-1 1 1-1Z"/><path fill="#A0EE9C" id="EPd" d="m321 226-2 1c-2.579 0-12 1.731-12-2 0-4.391 6-7.132 6-12 1.995 0 2-4.377 2-6v-3l3-2c5.403 0 8.873 5 11 5l3 4.5-1 5.5v1l-1 1-1 1-1 1-1 1-3 2-1 1h-1l-1 1Z"/><path fill="#209864" id="AIv1" d="m93 216-5 1c0-4.176-7-8.511-7-13 1.048 0 3 .473 3-1h1c0 5.592 8 7.792 8 13ZM363 216l5 1c2.087 0 7-10.848 7-13-1.048 0-3 .473-3-1h-1c0 5.127-8 8.255-8 13Z"/><path fill="#97D6F9" id="STR" d="m207 204 1 1-1-1Z"/><path fill="#8AD987" id="CTXsp" d="M141 205c1.931 0 2 6.225 2 8-1.931 0-2-6.225-2-8Z"/><path fill="#97D6F9" id="STR" d="m249 205-1 1 1-1ZM208 206l1 1-1-1Z"/><path fill="#8AD987" id="CTXsp" d="M315 207c-1.353 0-2 4.643-2 6 1.995 0 2-4.377 2-6Z"/><path fill="#99D2BD" id="OLF" d="M339 211c-4.348 0-5.234 6-8 6l1-5.5-3-4.5h1c0 3.265 9 .735 9 4ZM117 211c4.714 0 7.29 6 8 6 0-3.301 2-7.523 2-9h-1c-1.458 0-9 1.314-9 3Z"/><path fill="#97D6F9" id="STR" d="m247 209-1 1 1-1Z"/><path fill="#CBCBC7" id="aco" d="m176 210-3 1.5-4 6c-1.882 3.763 4 9.25 7.5 7.5 5.242-2.621 7.225-15-.5-15Z"/><path fill="#97D6F9" id="STR" d="m210 210 1 1-1-1Z"/><path fill="#CBCBC7" id="aco" d="M279 210c0 1.371-4 2.857-4 5.5 0 4.988 8.074 14.853 12 7 2.44-4.88-3.485-12.5-8-12.5Z"/><path fill="#6ACAB9" id="PIR" d="M131 257h2c3.115 0 6.196-4 10-4 0-3.382 9.534-8.432 6-15.5-2.511-5.022-7.482-6.482-11-10l-4-2.5h-1l-2-2h-1l-5-5v-1c-.71 0-3.286-6-8-6h-5c0 .843-3.646 2-4.5 2L93 216l-5 1c0 5.557 15.384 27 21 27 3.368 0 22 8.956 22 13Z"/><path fill="#97D6F9" id="STR" d="m246 211-1 1 1-1Z"/><path fill="#6ACAB9" id="PIR" d="M324 257h1c0-2.896 14.936-10.718 17.5-12 .959-.48 4.5-1.571 4.5 0 6.002 0 21-22.815 21-28l-5-1-18-4c-1.564 0-3.876-1-6-1-4.348 0-5.234 6-8 6v1l-1 1-1 1-1 1-1 1-3 2-1 1h-1l-1 1-2 1-4 2.5c-3.161 3.161-5.961 4.922-8 9-3.476 6.953 7 12.164 7 14.5 4.116 0 6.343 4 10 4Z"/><path fill="#97D6F9" id="STR" d="m211 213 1 1-1-1ZM245 213l-1 2 1-2Z"/><path fill="#8AD987" id="CTXsp" d="m143 214 1 1-1-1Z"/><path fill="#97D6F9" id="STR" d="m212 215 1 1-1-1Z"/><path fill="#96A6D3" id="NDB" d="M224 252h1l3-4c0-1.186 1-1.186 1 0l2 3h1c1.743 0 1-6.968 1-8.5l-2-26c-1.714-3.429-5.018-.965-6 1-2.258 4.516-1 29.026-1 34.5Z"/><path fill="#97D6F9" id="STR" d="m244 215-1 2 1-2Z"/><path fill="#99D2BD" id="OLF" d="m125 218 5 5-5-5ZM331 218l-1 1 1-1Z"/><path fill="#97D6F9" id="STR" d="m243 219-1 1 1-1Z"/><path fill="#99D2BD" id="OLF" d="m330 219-1 1 1-1ZM328 221l-1 1 1-1ZM131 223l2 2-2-2ZM324 224l-1 1 1-1ZM143 253h2c2.879 0 5.63-6 9-6v-14.5c-.579-1.157-3-5.491-3-6.5l-2-1c0 6.188-12.265 0-15 0l4 2.5c3.518 3.518 8.489 4.978 11 10 3.534 7.068-6 12.118-6 15.5ZM311 253h3c0-2.336-10.476-7.547-7-14.5 2.039-4.078 4.839-5.839 8-9l4-2.5c-2.579 0-12 1.731-12-2l-3 2c0 6.361-2 13.75-2 20 1.559 0 9 4.297 9 6ZM322 225l-1 1 1-1ZM321 226l-2 1 2-1Z"/><path fill="#A2B1D7" id="SI" d="M217 249c-5.108 0-11.671 13.085-17.5 16-15.614 7.807-30.878 3.061-45-4-2.019-1.009-9.5-4.908-9.5-8 2.879 0 5.63-6 9-6 1.183 0 1.535 3.57 2 4.5 1.814 3.629 4.015 5.758 7.5 7.5 20.944 10.472 51.5-.043 51.5-26 4.081 0 2 13.944 2 16ZM240 249c4.011 0 4.799 6.649 7.5 8l12 10c2.36 1.18 5.558.779 8 2 9.969 4.984 28.77-5.385 36-9l7.5-7c0-1.703-7.441-6-9-6 0 14.51-18.15 11.825-24.5 15-2.959 1.48-7.041 1.48-10 0l-9-1c-9.973-4.987-16.5-15.959-16.5-28-5.412 0-2 13.634-2 16Z"/><path fill="#CAC8C7" id="lot" d="M129 262h2v-5c0-4.044-18.632-13-22-13 0 1.253 18.524 18 20 18ZM325 262h2c5.79 0 10.467-10.484 15.5-13 1.861-.931 4.5-1.672 4.5-4 0-1.571-3.541-.48-4.5 0-2.564 1.282-17.5 9.104-17.5 12v5Z"/><path fill="#97D6F9" id="STR" d="M228 248h1c0-1.186-1-1.186-1 0Z"/><path fill="#7FCCF7" id="OT" d="m215 271-1 1c0 7.19-12.671 12.586-17.5 15-4.797 2.399-12.315-1.342-17 1-9.815 4.908-31.631 1.237-36.5-8.5-2.256-4.511-10-8.215-10-13.5l-2-4v-3l2-2c3.115 0 6.196-4 10-4h2c0 3.092 7.481 6.991 9.5 8 14.122 7.061 29.386 11.807 45 4 5.829-2.915 12.392-16 17.5-16 0 4.906 2 9.387 2 15l-1 2-1 1v1c-1.577 0-2 1.762-2 3ZM240 268l3 5c0 7.244 13.171 11.836 17.5 14 4.53 2.265 11.582-1.209 16 1 11.17 5.585 32.89.72 38.5-10.5 2.066-4.131 9-7.677 9-12.5l1-1v-5l-1-2c-3.657 0-5.884-4-10-4h-3l-7.5 7c-7.23 3.615-26.031 13.984-36 9-2.442-1.221-5.64-.82-8-2l-12-10c-2.701-1.351-3.489-8-7.5-8l-3 7.5c-2.22 4.439 3 8.164 3 11.5Z"/><path fill="#8599CC" id="PAL" d="M232 251v2l-1-2h1ZM225 252l-1 1v-1h1Z"/><path fill="#99D2BD" id="OLF" d="m133 257-2 2v-2h2ZM325 257v2l-1-2h1ZM131 262v1l-2-1h2Z"/><path fill="#97D6F9" id="STR" d="M131 263c0 1.238.423 3 2 3l-2-4v1Z"/><path fill="#99D2BD" id="OLF" d="m327 262-2 2v-2h2Z"/><path fill="#97D6F9" id="STR" d="M218 266h1v-2l-1 2Z"/><path fill="#8599CC" id="PAL" d="m220 264-1 1v-1h1Z"/><path fill="#97D6F9" id="STR" d="m325 264-1 1 1-1Z"/><path fill="#8599CC" id="PAL" d="m237 265 1 1-1-1Z"/><path fill="#97D6F9" id="STR" d="M217 267h1v-1l-1 1Z"/><path fill="#8599CC" id="PAL" d="m219 266-1 1v-1h1ZM218 267l-1 1v-1h1ZM217 268c-1.577 0-2 1.762-2 3 1.577 0 2-1.762 2-3ZM240 268l3 5c-1.533 0-4-3.753-4-5h1ZM215 271l-1 1 1-1Z"/></svg>