<svg xmlns="http://www.w3.org/2000/svg" viewBox="0 0 456 320"><path fill="#1E9C59" id="MOs1" d="m120 96 1 6 13.5-13 15-10c9.075-4.538 19.895-5.448 29-10 8.287-4.143 21.499-1.75 29 2l8.5 7h1c0-1.659 1.461-3 3-3 0-9.126-19.468-15-27.5-15-21.037 0-38.428 12.214-56 21-2.949 1.475-16.5 11.513-16.5 15ZM335 103h1c0-1.045-1.245-6 1-6 0-4.072-10.66-12.08-14.5-14-4.118-2.06-6.948-5.974-11-8-7.473-3.737-15.495-6.248-23-10-6.547-3.274-15.51-1.755-22-5-6.979-3.49-29.5 7.023-29.5 15 1.081 0 3 1.923 3 3h1c0-5.974 23.009-13.746 28.5-11 10.792 5.396 24.177 5.588 35 11 5.342 2.671 9.587 7.293 15 10 4.529 2.264 15.5 10.178 15.5 15Z"/><path fill="#1E9D58" id="MOs2/3" d="M120 104c3.14 0 .504 2.508 1 3.5 2.141 4.283 2.423 12.155 1 15-.272.543.15 4.5 1 4.5 0-4.278 6.132-8.765 8-12.5 10.171-20.342 35.15-26.825 52.5-35.5 4.613-2.306 25.5-2.999 25.5 4h2c0-2.766 5-3.806 5-5l-8.5-7c-7.501-3.75-20.713-6.143-29-2-9.105 4.552-19.925 5.462-29 10l-15 10-13.5 13-1 2ZM335 103c0 3.468-.655 15.809-1 16.5-1.05 2.1 3.233 8.5-1 8.5 0-6.327-5.364-8.228-8-13.5-9.488-18.977-32.932-26.216-51.5-35.5-4.139-2.07-26.5-3.197-26.5 4h-1l-5-5c0-5.974 23.009-13.746 28.5-11 10.792 5.396 24.177 5.588 35 11 5.342 2.671 9.587 7.293 15 10 4.529 2.264 15.5 10.178 15.5 15Z"/><path fill="#3EA665" id="ACAd1" d="M222 93h13c0-5.855 5-10.147 5-15 0-1.077-1.919-3-3-3-2.698 0-6.922 10.345-8 12.5l-.5 3.5-1.5-4.5-7-11.5c-1.539 0-3 1.341-3 3 0 5.28 5 9.513 5 15Z"/><path fill="#1F9D58" id="MOs5" d="M145 139c-4.922 0-13.457 12-19 12l-3-9.5c-.199-.397 1.073-8.5-1-8.5v-1l1-1v-4c0-4.278 6.132-8.765 8-12.5 10.171-20.342 35.15-26.825 52.5-35.5 4.613-2.306 25.5-2.999 25.5 4 0 5.756-15 14.459-15 20h-1c0-1.643-3.765-1-5-1-4.313 0-9.866 1.183-13.5 3-12.249 6.125-29.5 17.417-29.5 33v1ZM311 139c6.155 0 12.549 12 20 12 0-6.741 3-11.601 3-18v-3l-1-1v-1c0-6.327-5.364-8.228-8-13.5-9.488-18.977-32.932-26.216-51.5-35.5-4.139-2.07-26.5-3.197-26.5 4 0 4.197 15 14.518 15 20h1c0-1.643 3.765-1 5-1 4.381 0 10.771 1.136 14.5 3 13.425 6.712 28.5 17.147 28.5 33v1Z"/><path fill="#40A565" id="ACAd2/3" d="M215 95h1c1.974 0 3.517-2 6-2 0-5.487-5-9.72-5-15h-1c0 1.194-5 2.234-5 5 0 4.028 4 7.19 4 12ZM235 93c2.72 0 3.553 2 6 2 0-4.593 5-8.348 5-12l-5-5h-1c0 4.853-5 9.145-5 15Z"/><path fill="#3EA566" id="ACAd5" d="M194 103h2c7.079 0 12.347-8 19-8 0-4.81-4-7.972-4-12h-2c0 5.756-15 14.459-15 20ZM261 103h1c0-5.482-15-15.803-15-20h-1c0 3.652-5 7.407-5 12 7.064 0 12.522 8 20 8Z"/><path fill="#2FA750" id="PL1" d="M223 131h10l2-38h-13l1 38Z"/><path fill="#2FA74F" id="PL2/3" d="M221 131h2l-1-38c-2.483 0-4.026 2-6 2 0 12.025 3 22.744 3 35v1h2ZM235 131h2v-1c0-12.023 4-23.288 4-35-2.447 0-3.28-2-6-2l-2 38h2Z"/><path fill="#2EA84F" id="PL5" d="M203 125c5.425 0 10.099 5 16 5 0-12.256-3-22.975-3-35h-1c-6.653 0-11.921 8-19 8l3 3.5c2.116 4.232 4 12.654 4 17.5v1ZM253 125c-5.108 0-10.223 5-16 5 0-12.023 4-23.288 4-35 7.064 0 12.522 8 20 8 0 .546-4.294 5.088-5 6.5l-2 14.5-1 1Z"/><path fill="#1E9D5A" id="MOp1" d="m111 160-5 3c-2.609 0-2.999-11.499-4-13.5-6.814-13.627 3.725-30.45 9-41 .992-1.983 6.924-12.5 9-12.5l1 6-1 2-5 7.5c-4.394 8.789-13.528 22.945-8 34 1.224 2.449-.269 13.5 4 13.5v1ZM346 160l5 3 4-12.5v-8c0-14.244-1.701-18.401-8-31-1.073-2.146-8.211-14.5-10-14.5-2.245 0-1 4.955-1 6l9 13.5c3.782 7.564 8.548 23.903 4 33-.719 1.437-1.342 9.5-3 9.5v1Z"/><path fill="#1D9C5A" id="MOs6a" d="M161 133c-1.606 0-4.339-2.081-6.5-1-2.774 1.387-6.323 6-9.5 6 0-15.583 17.251-26.875 29.5-33 3.634-1.817 9.187-3 13.5-3 1.235 0 5-.643 5 1l-8 9c-5.935 0-9.661 1.58-14.5 4-1.429.715-8.473 9-4.5 9l-5 8ZM296 133c2.597 0 5.518-1.491 8.5 0l6.5 5c0-15.853-15.075-26.288-28.5-33-3.729-1.864-10.119-3-14.5-3-1.235 0-5-.643-5 1 1.694 0 8 7.539 8 9 10.096 0 20 3.827 20 14l5 7Z"/><path fill="#2FA850" id="PL6a" d="M190 116c4.745 0 7.873 8 13 8 0-4.846-1.884-13.268-4-17.5l-3-3.5h-3l-8 9c1.562 0 5 2.189 5 4ZM266 117c-4.477 0-7.709 7-12 7l2-14.5c.706-1.412 5-5.954 5-6.5h2c1.694 0 8 7.539 8 9-2.169 0-5 2.899-5 5Z"/><path fill="#1F9C58" id="MOp2/3" d="M335 153c0 2.192 8.77 6 11 6 1.658 0 2.281-8.063 3-9.5 4.548-9.097-.218-25.436-4-33l-9-13.5h-1c0 3.468-.655 15.809-1 16.5-1.05 2.1 3.233 8.5-1 8.5v1l1 1v3c1.614 0 1 3.31 1 4.5V153ZM122 153c-3.619 0-6.774 6-11 6-4.269 0-2.776-11.051-4-13.5-5.528-11.055 3.606-25.211 8-34l5-7.5c3.14 0 .504 2.508 1 3.5 2.141 4.283 2.423 12.155 1 15-.272.543.15 4.5 1 4.5v4l-1 1v21Z"/><path fill="#268E44" id="FRP6a" d="M182 118c-6.351 0-9.945 7-16 7-3.973 0 3.071-8.285 4.5-9 4.839-2.42 8.565-4 14.5-4 1.562 0 5 2.189 5 4 0 2.936 2.31 2-1 2-1.564 0-3.876-1-6-1l-1 1ZM274 117l17 9c0-10.173-9.904-14-20-14-2.169 0-5 2.899-5 5v2c2.338 0 4.862-2 8-2Z"/><path fill="#22885E" id="ORBm6a" d="M198 135h1c5.558 0 4-5.724 4-10v-1c-5.127 0-8.255-8-13-8 0 2.936 2.31 2-1 2 0 3.888 9 11.702 9 17Z"/><path fill="#24895D" id="ORBl6a" d="m183 117-1 1 1-1Z"/><path fill="#238A5C" id="ORBvl6a" d="m179 134 19 1c0-5.298-9-13.112-9-17-1.564 0-3.876-1-6-1l-1 1-3 16Z"/><path fill="#22885E" id="ORBm6a" d="M257 135h1l8-16v-2c-4.477 0-7.709 7-12 7l-1 1c0 3.586-1.155 10 4 10Z"/><path fill="#238A5C" id="ORBvl6a" d="m277 134-19 1 8-16c2.338 0 4.862-2 8-2 0 5.821 3 10.85 3 17Z"/><path fill="#24895D" id="ORBl6a" d="M277 134c10.071 0 19.344 17 26 17 0-6.223-7-12.177-7-18l-5-7-17-9c0 5.821 3 10.85 3 17ZM179 135c-11.33 0-18.808 16-26 16 0-5.03 8-13.806 8-18l5-8c6.055 0 9.649-7 16-7l-3 16v1Z"/><path fill="#23885E" id="ORBm5" d="m199 135 15 31c8.052 0 5-30.04 5-35v-1c-5.901 0-10.575-5-16-5 0 4.276 1.558 10-4 10ZM257 135c0 10.791-14 20.065-14 31-8.407 0-6-28.176-6-35v-1c5.777 0 10.892-5 16-5 0 3.586-1.155 10 4 10Z"/><path fill="#1E9C5A" id="MOp5" d="m333 129 1 1-1-1ZM123 131l-1 1 1-1Z"/><path fill="#24885D" id="ORBm2/3" d="M214 166c0 1.657 2.919 10 5 10l4-5.5c1.712-3.424.241-8.482 2-12l-2-26.5-2-1h-2c0 4.96 3.052 35-5 35Z"/><path fill="#59B362" id="ILA2/3" d="M223 131v1l-2-1h2Z"/><path fill="#59B263" id="ILA1" d="M233 132v2h-8.5l-1.5-2v-1h10v1Z"/><path fill="#59B362" id="ILA2/3" d="m235 131-2 1v-1h2Z"/><path fill="#24885D" id="ORBm2/3" d="m243 167-5 9c-3.031 0-5-8.541-5-11v-33l2-1h2c0 6.824-2.407 35 6 35v1Z"/><path fill="#209666" id="AId6a" d="M145 139c0 4.691 2.194 12 8 12 0-5.03 8-13.806 8-18-1.606 0-4.339-2.081-6.5-1-2.774 1.387-6.323 6-9.5 6v1Z"/><path fill="#23895D" id="ORBm1" fill-rule="evenodd" d="M224 135c0 1.827 8 1.105 8 .5l-8-.5m-4 46c2.385 0 2.798 1.351 5.5 0l3-4 2 4c2.624 1.312 3.985 0 6.5 0l1-4v-1c-3.031 0-5-8.541-5-11v-31h-8.5l-1.5-2 2 26.5c-1.759 3.518-.288 8.576-2 12l-4 5.5v1l1 4Z"/><path fill="#209666" id="AId6a" d="M303 151h1c5.518 0 7-6.796 7-12v-1l-6.5-5c-2.982-1.491-5.903 0-8.5 0 0 5.823 7 11.777 7 18Z"/><path fill="#1E9C5A" id="MOp5" d="m126 151-4 2v-20c2.073 0 .801 8.103 1 8.5l3 9.5ZM334 153h1v-15.5c0-1.19.614-4.5-1-4.5 0 6.399-3 11.259-3 18 0 1.577 1.762 2 3 2Z"/><path fill="#23885C" id="ORBvl5" d="M184 151c10.926 0 19.96 15 30 15l-15-31h-1l-19-1v1c0 5.712 4 11.059 4 16h1ZM243 166v1c7.024 0 21.155-16 30-16 0-4.675 4-10.234 4-17l-19 1h-1c0 10.791-14 20.065-14 31Z"/><path fill="#228A5D" id="ORBl5" d="M306 157c0 7.003 6 13.565 6 21-4.64 0-32.05-27-39-27 0-4.675 4-10.234 4-17 10.071 0 19.344 17 26 17h1l2 6ZM150 158c0 6.424-5 11.904-5 19 3.088 0 26.342-17.842 29.5-21l8.5-5c0-4.941-4-10.288-4-16-11.33 0-18.808 16-26 16 0 1.974-2 3.517-2 6l-1 1Z"/><path fill="#59B263" id="ILA1" d="M224 135c0 1.827 8 1.105 8 .5l-8-.5Z"/><path fill="#209665" id="AId5" d="M135 179h1c0-.464 9.923-15.423 10.5-16 1.127-1.127 1.275-5 3.5-5l1-1c0-2.483 2-4.026 2-6-5.806 0-8-7.309-8-12-4.922 0-13.457 12-19 12l-4 2c0 7.974 13 22.13 13 26ZM306 157c1.185 0 11.402 21 15 21 3.34 0 13-21.268 13-25-1.238 0-3-.423-3-2-7.451 0-13.845-12-20-12 0 5.204-1.482 12-7 12l2 6Z"/><path fill="#238A5E" id="ORBl2/3" d="M145 178c0 2.124 1 4.436 1 6 3.069 0 12.425-10.963 16.5-13 10.848-5.424 12.052-8 24.5-8 0-4.774-3-7.75-3-12h-1l-8.5 5c-3.158 3.158-26.412 21-29.5 21v1Z"/><path fill="#248A5D" id="ORBvl2/3" d="M219 176v1c-7.678 0-12.418-.459-19.5-4-3.936-1.968-6.886-9-11.5-9l-1-1c0-4.774-3-7.75-3-12 10.926 0 19.96 15 30 15 0 1.657 2.919 10 5 10ZM238 177h11c0-2.109 2.535-2 4-2l2-1 2-1c0-2.734 9.675-9 12-9v-1c0-4.427 4-8.302 4-12-8.845 0-22.976 16-30 16l-5 9v1Z"/><path fill="#238A5E" id="ORBl2/3" d="M312 178c0 1.357-.647 6-2 6l-13.5-11c-12.402-6.201-12.871-10-27.5-10 0-4.427 4-8.302 4-12 6.95 0 34.36 27 39 27Z"/><path fill="#209765" id="AId2/3" d="M127 187h1l7-8c0-3.87-13-18.026-13-26-3.619 0-6.774 6-11 6v1c0 8.009 16 19.76 16 27ZM321 179c0 1.24 5.99 7 8 7l4-4.5 9.5-15.5 3.5-6v-1c-2.23 0-11-3.808-11-6h-1c0 3.732-9.66 25-13 25v1Z"/><path fill="#1F9865" id="AIv5" d="m151 157-1 1 1-1ZM321 178v1c-3.013 0-6.611-1-9-1 0-7.435-6-13.997-6-21 1.185 0 11.402 21 15 21ZM145 178c-2.723 0-5.778 1-9 1 0-.464 9.923-15.423 10.5-16 1.127-1.127 1.275-5 3.5-5 0 6.424-5 11.904-5 19v1Z"/><path fill="#209764" id="AId1" d="m127 187-5 3c0-2.764-16-20.025-16-27l5-3c0 8.009 16 19.76 16 27ZM329 187l5 3c1.799 0 17-24.441 17-27l-5-3-3.5 6-9.5 15.5-4 4.5v1Z"/><path fill="#238A5D" id="ORBl1" d="M146 185c1.481 0 .785 2 3 2 3.555 0 6.154-6.327 9.5-8 10.084-5.042 17.193-12 29.5-12v-3l-1-1c-12.448 0-13.652 2.576-24.5 8-4.075 2.037-13.431 13-16.5 13v1ZM310 185l-2 2c-4.752 0-7.595-7.047-11.5-9-8.497-4.248-16.307-11-27.5-11-1.514 0 0-1.762 0-3v-1c14.629 0 15.098 3.799 27.5 10l13.5 11v1Z"/><path fill="#248A5B" id="ORBvl1" d="M219 181h1l-1-4c-7.678 0-12.418-.459-19.5-4-3.936-1.968-6.886-9-11.5-9v3c0 .476 14.994 8.747 17.5 10 .93.465 4.5.817 4.5 2l5 1 1 1h3ZM269 167c0 1.053-10.129 6-12 6 0-2.734 9.675-9 12-9 0 1.238-1.514 3 0 3Z"/><path fill="#99D2BD" id="OLF" d="m144 215-5 1c0-3.05-6-4.483-6-8 2.791 0 2.135 2.683 5.5 1 2.822-1.411 2.936-10.532 0-12l-5.5 5 1-5c2.072 0 15-8.801 15-10 3.555 0 6.154-6.327 9.5-8 10.084-5.042 17.193-12 29.5-12 0 .476 14.994 8.747 17.5 10 .93.465 4.5.817 4.5 2-2.565 0-5-.236-5 3-4.752 0-14.876-10.312-21.5-7l-14 6c-6.267 3.133-25.5 26.835-25.5 34ZM312 215h5c2.777 0 7-5.546 7-8l-4.5 3c-3.079-1.539-5.856-11.072-2-13 3.546-1.773 4.974 7 6.5 7l-1-7c-2.864 0-15-6.372-15-10-4.752 0-7.595-7.047-11.5-9-8.497-4.248-16.307-11-27.5-11 0 1.053-10.129 6-12 6l-2 1-2 1c0 2.109-2.535 2-4 2l-2 2c3.115 0 4 .885 4 4 3.075 0 14.892-11.304 21.5-8l20 10c4.385 2.193 19.5 25.316 19.5 30Z"/><path fill="#248A5B" id="ORBvl1" d="m257 173-2 1 2-1ZM255 174l-2 1 2-1Z"/><path fill="#54BF94" id="AON" fill-rule="evenodd" d="M265 194v19l.5 6c2.216 1.108 3.829-2.159 4.5-3.5 1.325-2.65 8.231-17.539 7-20-1.319-2.638-9.297-1.5-12-1.5m-84 0-2 1.5c-.956 1.912 5.854 15.707 7 18 .488.975 2.195 6.653 4.5 5.5 4.529-2.264-.5-14.759-.5-18 0-1.618 2.378-4.745 2-5.5-1.377-2.753-8.331-1.5-11-1.5m100 51c0 2.702-11.33 6.915-13.5 8l-2.5 2c0-11.786-12.089-21.295-21.5-26-2.995-1.498-14.5-.085-14.5 4h-1c-.656 0-4.138-3.319-5.5-4-13.021-6.511-30.5 14.924-30.5 26l-17-10v-1c0-3.527-4.922-5.344-6-7.5-3.181-6.361-17.494-21.5-25-21.5 0-7.165 19.233-30.867 25.5-34l14-6c6.624-3.312 16.748 7 21.5 7 0 1.348 12.295 26.397 13.5 27l6.5 1c0 5.171 7 2.868 7 0l6.5-1c4.074-2.037 6.29-14.08 8.5-18.5 1.193-2.387 4-4.693 4-7.5 3.075 0 14.892-11.304 21.5-8l20 10c4.385 2.193 19.5 25.316 19.5 30-8.993 0-17.603 14.103-22.5 19-2.897 2.897-7.5 5.811-7.5 10l-1 1Z"/><path fill="#248A5B" id="ORBvl1" d="M253 175c-1.465 0-4-.109-4 2 1.465 0 4 .109 4-2Z"/><path fill="#99D2BD" id="OLF" fill-rule="evenodd" d="M228 180v22l.5 7 .5-6.5V185c0-1.235.643-5-1-5m-3 30c0 5.171 7 2.868 7 0l-2-1.5 1-18 3-7 4-2.5h-1c-2.515 0-3.876 1.312-6.5 0l-2-4-3 4c-2.702 1.351-3.115 0-5.5 0h-1c0 .403 5.269 6.038 6 7.5l2 19-2 2.5Z"/><path fill="#248A5B" id="ORBvl1" d="M237 181h1l5-1 1-1h3l2-2h-11l-1 4Z"/><path fill="#219764" id="AIv2/3" d="m146 185-9.5 6c-3.703 1.851-6.665-4-8.5-4l7-8h1c3.222 0 6.277-1 9-1 0 2.124 1 4.436 1 6v1ZM329 186v1c-2.428 0-5.504 5.498-8.5 4-2.5-1.25-7.867-6-10.5-6v-1c1.353 0 2-4.643 2-6 2.389 0 5.987 1 9 1 0 1.24 5.99 7 8 7Z"/><path fill="#61D09F" id="TTd" d="M205 182c0 1.348 12.295 26.397 13.5 27l6.5 1 2-2.5-2-19c-.731-1.462-6-7.097-6-7.5h-3l-1-1-5-1c-2.565 0-5-.236-5 3Z"/><path fill="#99D2BD" id="OLF" d="m244 179-1 1 1-1Z"/><path fill="#61D09F" id="TTd" d="M251 183c0 2.807-2.807 5.113-4 7.5-2.21 4.42-4.426 16.463-8.5 18.5l-6.5 1-2-1.5 1-18 3-7 4-2.5 5-1 1-1h3c3.115 0 4 .885 4 4Z"/><path fill="#99D2BD" id="OLF" d="m215 180 1 1-1-1Z"/><path fill="#209864" id="AIv1" d="M122 190c0 5.038 8.398 7 12 7 2.072 0 15-8.801 15-10-2.215 0-1.519-2-3-2l-9.5 6c-3.703 1.851-6.665-4-8.5-4h-1l-5 3ZM334 190c0 4.814-6.72 7-11 7-2.864 0-15-6.372-15-10l2-2c2.633 0 8 4.75 10.5 6 2.996 1.498 6.072-4 8.5-4l5 3Z"/><path fill="#CBCBC7" id="aco" d="m181 194-2 1.5c-.956 1.912 5.854 15.707 7 18 .488.975 2.195 6.653 4.5 5.5 4.529-2.264-.5-14.759-.5-18 0-1.618 2.378-4.745 2-5.5-1.377-2.753-8.331-1.5-11-1.5ZM265 194v19l.5 6c2.216 1.108 3.829-2.159 4.5-3.5 1.325-2.65 8.231-17.539 7-20-1.319-2.638-9.297-1.5-12-1.5Z"/><path fill="#6ACAB9" id="PIR" d="M133 207v1c2.791 0 2.135 2.683 5.5 1 2.822-1.411 2.936-10.532 0-12l-5.5 5v5ZM324 204c-1.526 0-2.954-8.773-6.5-7-3.856 1.928-1.079 11.461 2 13l4.5-3v-3Z"/><path fill="#99D2BD" id="OLF" d="M133 203c-1.535 0-1.535 4 0 4v-4Z"/><path fill="#CAC8C7" id="lot" d="M173 244h2c0-3.527-4.922-5.344-6-7.5-3.181-6.361-17.494-21.5-25-21.5l-5 1c0 3.306 2.671 5.586 5.5 7 7.281 3.641 21.606 21 28.5 21ZM282 244h1c7.123 0 22.553-17.527 29.5-21 3.937-1.968 4.5-5.108 4.5-8h-5c-8.993 0-17.603 14.103-22.5 19-2.897 2.897-7.5 5.811-7.5 10Z"/><path fill="#62CF9E" id="TTv" d="M228 233c-.656 0-4.138-3.319-5.5-4-13.021-6.511-30.5 14.924-30.5 26 5.273 0 11.961 9.27 18.5 6 8.465-4.233 17.5-19.095 17.5-28ZM229 233c0 7.687 12.391 33.555 23.5 28l12.5-6c0-11.786-12.089-21.295-21.5-26-2.995-1.498-14.5-.085-14.5 4Z"/><path fill="#99D2BD" id="OLF" d="M175 244v1l-2-1h2ZM283 244l-2 1 1-1h1Z"/></svg>