<svg xmlns="http://www.w3.org/2000/svg" viewBox="0 0 456 320"><path fill="#99D2BD" id="OLF" d="M167 164c4.65 0 5.507 14.513 8 19.5 4.522 9.044 9.733 20.616 19.5 25.5h10l6.5 2c0-.616 8.497-12.494 10-15.5 2.281-4.562 1-13.099 1-18.5 0-13.663 3.174-33.153-3-45.5-2.789-5.577-15.481-7.51-21.5-4.5-3.185 1.593-8.374 2.187-12 4-10.895 5.447-18.5 22.489-18.5 33ZM289 163c-2.181 0-6.583 17.666-8 20.5-3.979 7.957-8.268 20.384-16.5 24.5-3.664 1.832-9.426-.787-13 1l-5.5 2-7-7.5c-1.443-2.886-2.526-6.051-4-9l-1-16.5c0-12.974-2.249-35.001 3-45.5 3.487-6.974 15.214-8.643 21.5-5.5h4l10 5c8.424 4.212 16.5 22.638 16.5 31Z"/><path fill="#C7CBCA" id="onl" d="M168 187c0 9.96 5.818 20.137 10 28.5 2.454 4.908-3.69 16.405 2.5 19.5 9.782 4.891 17.378-12.378 22.5-17.5 1.585-1.585 8-3.405 8-6.5l-6.5-2h-10c-9.767-4.884-14.978-16.456-19.5-25.5-2.493-4.987-3.35-19.5-8-19.5v21l1 2ZM288 189c0 9.159-5.209 15.917-9 23.5-3.028 6.057 4.335 18.583-3.5 22.5-9.58 4.79-16.46-11.46-21.5-16.5-2.23-2.23-8-4.069-8-7.5l5.5-2c3.574-1.787 9.336.832 13-1 8.232-4.116 12.521-16.543 16.5-24.5 1.417-2.834 5.819-20.5 8-20.5 0 5.22 1 11.211 1 17-1.579 0-1 2.855-1 4v3l-1 2Z"/><path fill="#99D2BD" id="OLF" d="M167 172c-1.602 0-1.602 7 0 7v-7ZM290 180c-1.579 0-1 2.855-1 4 1.579 0 1-2.855 1-4ZM167 185l1 2-1-2ZM289 187l-1 2 1-2Z"/></svg>