<svg xmlns="http://www.w3.org/2000/svg" viewBox="0 0 456 320"><path fill="#1E9C59" id="MOs1" d="M227 53c-1.624 0-2.75 2-5 2l-3-4.5c-3.148-6.296-20.428-13.536-26.5-10.5-1.61.805-5.802 2-7.5 2v-5c2.128 0 5.608-1.054 7.5-2 9.639-4.82 26.699 5.898 30.5 13.5.595 1.19 4 2.317 4 4.5ZM229 53c2.523 0 1.959 2 5 2l3-5.5c1.588-3.176 8.055-6.778 11.5-8.5 6.167-3.084 17.614 1 23.5 1v-5c-2.654 0-5.275-.888-7.5-2-8.195-4.097-26.021 4.541-29.5 11.5-.958 1.916-6 3.303-6 6.5Z"/><path fill="#1E9D5A" id="MOp1" d="m135 51-1 6c3.856 0 7.268-2.384 10.5-4 5.505-2.752 33.576-11 39.5-11h1v-5c-12.388 0-27.979 4.74-38.5 10-1.789.895-11.5 1.558-11.5 4ZM322 57h1c0-1.564-1-3.876-1-6l-9.5-4c-7.624-3.812-31.486-10-40.5-10v5h1c6.322 0 35.527 9.013 41.5 12 2.633 1.316 4.265 3 7.5 3Z"/><path fill="#1E9D58" id="MOs2/3" d="m222 56-6 3-2-3.5-7.5-4.5c-7.52-3.76-16.864 4-23.5 4l1-13h1c1.698 0 5.89-1.195 7.5-2 6.072-3.036 23.352 4.204 26.5 10.5l3 4.5v1ZM240 59h1c0-2.117 1.537-3.037 3-4.5 9.911-9.911 22.065 1.5 30 1.5 0-4.459-1-9.808-1-14h-1c-5.886 0-17.333-4.084-23.5-1-3.445 1.722-9.912 5.324-11.5 8.5l-3 5.5v1l6 3Z"/><path fill="#1F9C58" id="MOp2/3" d="M133 74v6c9.763 0 39.874-23 49-23l1-1v-1l1-13c-5.924 0-33.995 8.248-39.5 11-3.232 1.616-6.644 4-10.5 4v1c0 4.594-1 10.74-1 16ZM323 74c0 1.745.632 6 0 6l-14.5-7c-9.793-4.897-20.236-9.118-30-14l-4.5-3c0-4.459-1-9.808-1-14 6.322 0 35.527 9.013 41.5 12 2.633 1.316 4.265 3 7.5 3 0 4.012 1 11.185 1 17Z"/><path fill="#197E64" id="SSp-ul1" d="M104 73h1c0-2.76 4.693-3.192 6-4.5 2.14-2.14 20.01-10.5 23-10.5v-1l1-6c-8.938 0-18.829 8.165-26.5 12l-7.5 5v1c2.098 0 3 1.94 3 4Z"/><path fill="#1F9D58" id="MOs5" d="M202 71c-2.798 0-7.516-3.992-11.5-2L180 75l2-18 1-1v-1c6.636 0 15.98-7.76 23.5-4l7.5 4.5 2 3.5v1c-5.155 0-9.304 11-14 11ZM266 69c3.736 0 7.086 6 11 6 0-6.682-3-11.725-3-19-7.935 0-20.089-11.411-30-1.5-1.463 1.463-3 2.383-3 4.5 0 3.425 8.432 5.364 10 8.5l3 3.5c2.95 0 7.018-2 11-2h1Z"/><path fill="#197E64" id="SSp-ul1" d="m355 69-3 3c-2.26 0-19.261-9.38-22.5-11-1.301-.65-6.5-2.345-6.5-4 0-1.564-1-3.876-1-6 8.82 0 17.954 8.227 25.5 12l7.5 5v1Z"/><path fill="#3EA665" id="ACAd1" d="M223 82h11V55c-3.041 0-2.477-2-5-2 0 3.746-.8 0-2 0-1.624 0-2.75 2-5 2v1c1.684 0 1 4.68 1 6v20Z"/><path fill="#1E9C5A" id="MOp5" d="m183 56-1 1 1-1Z"/><path fill="#40A565" id="ACAd2/3" d="M223 82c-1.564 0-3.876 1-6 1 0-7.564-1-16.113-1-23v-1l6-3c1.684 0 1 4.68 1 6v20ZM234 83h5c0-8.017 1-16.609 1-24l-6-3v27Z"/><path fill="#1E9C5A" id="MOp5" d="M323 81v14c-2.583 0-28.965-10.232-32.5-12L277 75c0-6.682-3-11.725-3-19l4.5 3c9.764 4.882 20.207 9.103 30 14l14.5 7v1ZM133 81v14l34.5-13c3.568-1.784 7.294-6 11.5-6l1-1 2-18c-9.126 0-39.237 23-49 23v1Z"/><path fill="#197F61" id="SSp-ul2/3" d="M345 83h1l6-10v-1c-2.26 0-19.261-9.38-22.5-11-1.301-.65-6.5-2.345-6.5-4h-1c0 4.012 1 11.185 1 17 6.655 0 18.519 9 22 9ZM133 74c-7.023 0-17.569 9-22 9-2.459 0-6-9.246-6-10 0-2.76 4.693-3.192 6-4.5 2.14-2.14 20.01-10.5 23-10.5 0 4.594-1 10.74-1 16Z"/><path fill="#3EA566" id="ACAd5" d="M239 83c4.615 0 9.282 7 13 7 0-6.326 2-12.326 2-18v-1l-3-3.5c-1.568-3.136-10-5.075-10-8.5h-1c0 7.391-1 15.983-1 24ZM217 84c-4.491 0-7.767 5-12 5 0-3.038-.589-10.679-2-13.5-.523-1.046.951-3.5-1-3.5v-1c4.696 0 8.845-11 14-11 0 6.887 1 15.436 1 23v1Z"/><path fill="#1B8062" id="SSp-un1" d="M100 69h1v-1l-1 1ZM355 69h1l-1-1v1Z"/><path fill="#187E61" id="SSp-m1" d="m56 136 4 2c0-11.428 18.212-47.856 28.5-53 4.725-2.362 10.148-12 15.5-12 0-2.06-.902-4-3-4h-1c-7.115 0-11.448 10.974-17.5 14C70.702 88.9 56 123.107 56 136Z"/><path fill="#1D9C5A" id="MOs6a" d="m185 95-6 1V76l1-1 10.5-6c3.984-1.992 8.702 2 11.5 2v1c-2.032 0-12 18.951-12 22-1.235 0-5-.643-5 1ZM267 94c4.296 0 7.018 2 11 2 0-7.493-1-15.107-1-21-3.914 0-7.264-6-11-6 0 1.186-1 1.186-1 0-3.982 0-8.05 2-11 2v1c2.344 0 13 19.4 13 22Z"/><path fill="#1F9B5A" id="MOp6a" d="M265 69h1c0 1.186-1 1.186-1 0Z"/><path fill="#187E61" id="SSp-m1" d="M401 136c-2.25 0-3.376 2-5 2 0-14.505-17.729-48.615-30.5-55-3.144-1.572-9.104-10-13.5-10v-1l3-3h1c5.475 0 9.661 8.08 13.5 10 13.205 6.603 31.5 41.643 31.5 57Z"/><path fill="#3FA664" id="ACAd6a" d="M190 94c1.562 0 5 2.189 5 4 3.766 0 6.033-7 10-7v-2c0-3.038-.589-10.679-2-13.5-.523-1.046.951-3.5-1-3.5-2.032 0-12 18.951-12 22ZM263 97l-2 1-9-7v-1c0-6.326 2-12.326 2-18 2.344 0 13 19.4 13 22l-2 1c-1.747 0-2 .253-2 2Z"/><path fill="#1A7E64" id="SSp-m2/3" d="m60 138 10 4c0-16.197 11.984-34.484 23.5-46 3.993-3.993 11.989-12 17.5-12v-1c-2.459 0-6-9.246-6-10h-1c-5.352 0-10.775 9.638-15.5 12C78.212 90.144 60 126.572 60 138ZM396 138c-3.083 0-5.545 3-9 3-2.246 0-3.029-12.557-4-14.5l-9-17c-4.149-8.299-13.534-14.534-20-21-1.56-1.56-8-3.198-8-5.5l6-10c4.396 0 10.356 8.428 13.5 10 12.771 6.385 30.5 40.495 30.5 55Z"/><path fill="#1A7F63" id="SSp-ul4" d="M115 91h1l3.5-2c3.925-1.962 9.024-8 13.5-8v-7c-7.023 0-17.569 9-22 9v1c0 2.46 4 4.17 4 7ZM340 91h1c0-3.381 4-4.248 4-8-3.481 0-15.345-9-22-9 0 1.745.632 6 0 6v1c4.596 0 8.599 5.05 12.5 7 1.185.592 4.5 1.012 4.5 3Z"/><path fill="#1F9B5A" id="MOp6a" d="M323 117h1v-2c-1.582 0 0-2.796 0-3.5 0-3.864-1-10.182-1-16.5-2.583 0-28.965-10.232-32.5-12L277 75c0 5.893 1 13.507 1 21v1c9.28 0 38.39 20 45 20ZM133 116v1c3.657 0 5.884-4 10-4 0-2.226 10.829-6 13-6 0-1.817 7.169-4 9-4 0-2.109 2.535-2 4-2 0-1.638 3.576-2 5-2 0-2.46 3.378-2 5-2V76c-4.206 0-7.932 4.216-11.5 6L133 95v1c1.22 0 1.504 3.492 1 4.5-2.042 4.084-1 10.663-1 15.5Z"/><path fill="#187E62" id="SSp-ul5" d="M122 101h1c0-1.703 8.159-5 10-5V81c-4.476 0-9.575 6.038-13.5 8l-3.5 2 6 10ZM333 101h2l5-10c0-1.988-3.315-2.408-4.5-3-3.901-1.95-7.904-7-12.5-7v14c1.417 0 10 4.685 10 6Z"/><path fill="#3FA566" id="ACAv2/3" d="m221 118-3 1-1-35v-1c2.124 0 4.436-1 6-1 0 11.007-1 22.624-1 33l-1 3Z"/><path fill="#40A664" id="ACAv1" d="M227 110c-2.832 0-2.953 5-5 5 0-10.376 1-21.993 1-33h11v33l-5-6c0-3.471-2-1.581-2 1Z"/><path fill="#3FA566" id="ACAv2/3" d="m236 118 2 1c0-11.282 1-24.058 1-36h-5v32l2 3Z"/><path fill="#3EA666" id="ACAv5" d="M247 116c0 2.54-6.843 3-9 3 0-11.282 1-24.058 1-36 4.615 0 9.282 7 13 7v1c0 8.498-5 19.802-5 25Z"/><path fill="#1B7F62" id="SSp-m4" d="m387 142-6 2c-1.704 0-5.046-12.593-6-14.5-5.671-11.341-12.83-26.165-25.5-32.5-2.506-1.253-5.672-6-8.5-6 0-3.381 4-4.248 4-8h1c0 2.302 6.44 3.94 8 5.5 6.466 6.466 15.851 12.701 20 21l9 17c.971 1.943 1.754 14.5 4 14.5v1ZM70 142c1.974 0 3.517 2 6 2 0-11.015 18.239-39.869 28.5-45 2.422-1.211 6.896-8 10.5-8 0-2.83-4-4.54-4-7-5.511 0-13.507 8.007-17.5 12C81.984 107.516 70 125.803 70 142Z"/><path fill="#3EA666" id="ACAv5" d="M209 115c0 3.272 6.527 4 9 4l-1-35c-4.491 0-7.767 5-12 5v13.5l4 12.5Z"/><path fill="#1B7E63" id="SSp-m5" d="M76 145c3.819 0 7.052 3 11 3 0-12.599 20.815-47 35-47l-6-10h-1c-3.604 0-8.078 6.789-10.5 8-10.261 5.131-28.5 33.985-28.5 45v1Z"/><path fill="#40A564" id="ACAv6a" d="m206 114 3 1-4-12.5V91c-3.967 0-6.234 7-10 7v1c0 5.199 11 9.409 11 14v1ZM250 114l-3 2c0-5.198 5-16.502 5-25l9 7v3c-1.617 0-4 4.583-4 6-1.747 0-2 .253-2 2-2.226 0-4 1.774-4 4l-1 1Z"/><path fill="#1B7E63" id="SSp-m5" d="M381 145c-4.058 0-8.226 4-12 4 0-12.181-7.894-27.394-16.5-36l-12-9-5.5-3 5-10h1c2.828 0 5.994 4.747 8.5 6 12.67 6.335 19.829 21.159 25.5 32.5.954 1.907 4.296 14.5 6 14.5v1Z"/><path fill="#1E9C58" id="MOs6b" d="M185 95h5v-1c-1.235 0-5-.643-5 1Z"/><path fill="#3FA466" id="ACAd6b" d="M194 99h1v-1c0-1.811-3.438-4-5-4v1l4 4ZM265 95h2v-1l-2 1Z"/><path fill="#1E9C58" id="MOs6b" d="M278 96v1c-4.404 0-6.758-2-11-2v-1c4.296 0 7.018 2 11 2ZM179 96v1c1.623 0 6-.005 6-2l-6 1Z"/><path fill="#CACCC7" id="cing" d="M206 113v1c-8.794 0-12.764-11.632-19.5-15-4.351-2.175-12.253 5-16.5 5l-1 1h-1l-7 1 4-3c1.465 0 4 .109 4-2 1.622 0 5 .461 5-2 1.424 0 5-.362 5-2 1.623 0 6-.005 6-2h5l4 4c0 3.745 7.708 14 12 14Z"/><path fill="#3FA466" id="ACAd6b" d="M265 95c-1.747 0-2 .253-2 2l2-2Z"/><path fill="#CACCC7" id="cing" d="m251 113-1 1c9.214 0 12.213-11.356 19.5-15 5.042-2.521 11.962 5 16.5 5l1 1h2l7 1c0-.962-18-7.3-18-9-4.404 0-6.758-2-11-2h-2l-2 2-1 2-1 2c0 1.664-1.823 6-4 6 0 1.747-.253 2-2 2 0 1.366-2.366 4-4 4Z"/><path fill="#197D61" id="SSp-ul6a" d="M333 101c0 1.771-6.423 14-9 14-1.582 0 0-2.796 0-3.5 0-3.864-1-10.182-1-16.5 1.417 0 10 4.685 10 6ZM123 101c0 2.223 7.668 15 10 15 0-4.837-1.042-11.416 1-15.5.504-1.008.22-4.5-1-4.5-1.841 0-10 3.297-10 5Z"/><path fill="#1D9D5A" id="MOp6b" d="M179 97c-1.622 0-5-.46-5 2 1.424 0 5-.362 5-2Z"/><path fill="#3FA466" id="ACAd6b" d="M261 99h1l1-2-2 1v1Z"/><path fill="#1D9D5A" id="MOp6b" d="m323 117 1 2c-5.911 0-21.194-13-28-13 0-.962-18-7.3-18-9 9.28 0 38.39 20 45 20ZM174 99c-1.424 0-5 .362-5 2 1.622 0 5 .461 5-2Z"/><path fill="#C9C7C9" id="ccb" d="m352 158 1 7c-2.442 0-3.105-9.711-4-11.5-3.179-6.357-9.084-18.792-16.5-22.5-4.856-2.428-10.459-7.23-16-10l-21-6h-21l-3.5 2-1 1c-1.647 0-7 1.268-7 3l-1 1-1 1h-1l-1 1-1 1h-1l-1 1-1 1h-1l-1 1-1 1h-1l-1 1-2 1c-2.2 0-13 2.723-13 5l-2 1h-2c0-4.066-6-2.062-6 0h-1l-3-1c0-2.847-9.741-5-12-5h-2l-3-3-2-1-1-1h-1l-2-2h-1c0-2.641-7.983-6-10-6l-4.5-3c-11.33-5.665-45.133 7.567-54 12-5.849 2.924-16.33 16.159-19.5 22.5-.868 1.736-1.601 10.5-4 10.5v-5l1-2c1.473 0 1-1.952 1-3l1-2 1-1v-1l1-2 1-1v-1c1.577 0 2-1.762 2-3l7-7.5c6.309-6.309 12.217-10.858 19.5-14.5l22-9c1.265-.632 6.5-1.278 6.5-3h1l1-1c4.247 0 12.149-7.175 16.5-5 6.736 3.368 10.706 15 19.5 15l3 1c0 3.272 6.527 4 9 4l3-1c0 1.951 2.454.477 3.5 1 3.089 1.545 1.47-1 4-1l1.5 2 6-2 2 1c2.157 0 9-.46 9-3l3-2c9.214 0 12.213-11.356 19.5-15 5.042-2.521 11.962 5 16.5 5l1 1h2c0 2.621 6.858 3.179 8.5 4 9.851 4.925 20.065 9.033 30 14 5.416 2.708 15.605 14.71 18.5 20.5.777 1.555 3.414 10.5 5 10.5v3l1 1Z"/><path fill="#40A465" id="ACAv6b" d="M195 99c0 5.199 11 9.409 11 14-4.292 0-12-10.255-12-14h1ZM262 99l-1 2v-2h1Z"/><path fill="#187D61" id="SSp-m6a" d="M97 167h4c0-12.141 6.943-21.386 12-31.5 1.138-2.276 5.665-8.5 8-8.5 0-1.747.253-2 2-2 0-2.566 5.22-6 8-6l2-2v-1c-2.332 0-10-12.777-10-15h-1c-14.185 0-35 34.401-35 47v1c11.278 0 10 8.767 10 18Z"/><path fill="#1D9D5A" id="MOp6b" d="M169 101c-1.465 0-4-.109-4 2 1.465 0 4 .109 4-2Z"/><path fill="#40A465" id="ACAv6b" d="M261 101c-1.617 0-4 4.583-4 6 2.177 0 4-4.336 4-6Z"/><path fill="#187D61" id="SSp-m6a" d="M356 167h4c0-7.786-5.036-18 9-18 0-12.181-7.894-27.394-16.5-36l-12-9-5.5-3h-2c0 1.771-6.423 14-9 14v2l4 2.5 11 10c6.351 12.703 16 20.663 16 37.5h1Z"/><path fill="#1D9D5A" id="MOp6b" d="m161 106-5 1c0-1.817 7.169-4 9-4l-4 3Z"/><path fill="#C9C9CA" id="scwm" d="m170 104-1 1 1-1ZM286 104l1 1-1-1ZM121 127c0 4.696-8 7.054-8 12l7-7.5c6.309-6.309 12.217-10.858 19.5-14.5l22-9c1.265-.632 6.5-1.278 6.5-3l-7 1-5 1c0 2.511-10.703 6-13 6 0 1.04-8.794 6-10 6h-2c0 1.89-6.374 6-8 6 0 1.747-.253 2-2 2ZM324 119c7.085 0 27 27.914 27 35-1.586 0-4.223-8.945-5-10.5-2.895-5.79-13.084-17.792-18.5-20.5-9.935-4.967-20.149-9.075-30-14-1.642-.821-8.5-1.379-8.5-4l7 1c6.806 0 22.089 13 28 13Z"/><path fill="#1D9D5A" id="MOp6b" d="M156 107c-2.171 0-13 3.774-13 6 2.297 0 13-3.489 13-6Z"/><path fill="#40A465" id="ACAv6b" d="M257 107c-1.747 0-2 .253-2 2 1.747 0 2-.253 2-2Z"/><path fill="#7ED04B" id="IG" d="M221 118c0 1.951 2.454.477 3.5 1 3.089 1.545 1.47-1 4-1l1.5 2 6-2-2-3-5-6c0 2.729-.423 1-2 1-2.832 0-2.953 5-5 5l-1 3Z"/><path fill="#40A465" id="ACAv6b" d="M255 109c-2.226 0-4 1.774-4 4 1.634 0 4-2.634 4-4Z"/><path fill="#1D9D5A" id="MOp6b" d="M133 117v2c1.206 0 10-4.96 10-6-4.116 0-6.343 4-10 4Z"/><path fill="#98D5F9" id="CP" d="m124 230 9 5c15.614 0 34.037 2.426 42-13.5l1-6c.846-1.691 5-6.621 5-7.5l6-5.5 4-5.5c0-6.441 1-13.719 1-19.5 0-1.363-.7-6.5 1-6.5l1-10 1-2v-22.5l-6-15.5c-1.577 0-2-1.762-2-3l-4.5-3c-11.33-5.665-45.133 7.567-54 12-5.849 2.924-16.33 16.159-19.5 22.5-.868 1.736-1.601 10.5-4 10.5l-1 5c0 1.048.473 3-1 3v14c1.993 0 1.35 5.2 2 6.5 2.39 4.78 6 17.121 6 22.5v1l1 2 1 3 2 2v1l2 2v1c1.747 0 2 .253 2 2l5 5ZM332 230l-8 5c-12.163 0-24.433 1.034-34.5-4-6.58-3.29-6.695-10.89-9.5-16.5l-4-5.5-3-2.5-8-10.5v-17.5c0-1.278.665-5.5-1-5.5l-2-14c0-4.708-3.457-14.585-1-19.5 2.286-4.572 6-13.33 6-18.5l3-3 1-1 3.5-2h21l21 6c5.541 2.77 11.144 7.572 16 10 7.416 3.708 13.321 16.143 16.5 22.5.895 1.789 1.558 11.5 4 11.5v19c-1.993 0-1.35 5.2-2 6.5-2.661 5.323-6 15.476-6 21.5v1l-1 2-1 3-1 1-1 1-1 2-1 1-1 1-1 1v1l-4 3-1 1Z"/><path fill="#188064" id="SSp-m6b" d="M131 119h2v-2l-2 2Z"/><path fill="#AAA8A9" id="SEZ" d="m271 117-1 1 1-1Z"/><path fill="#188064" id="SSp-m6b" d="m353 166 2 1c0-16.837-9.649-24.797-16-37.5l-11-10-4-2.5h-1l1 2c7.085 0 27 27.914 27 35v3l1 1 1 7v1Z"/><path fill="#AAA8A9" id="SEZ" d="M189 121c0-2.571 7.088 3 8 3 0-2.641-7.983-6-10-6 0 1.238.423 3 2 3ZM263 121c1.465 0 4-1.115 4 0l3-3c-1.647 0-7 1.268-7 3Z"/><path fill="#188064" id="SSp-m6b" d="M131 119c-2.78 0-8 3.434-8 6 1.626 0 8-4.11 8-6Z"/><path fill="#A8AAAA" id="VL" d="m196 156-1 1v-20.5l-6-15.5c0-2.571 7.088 3 8 3h1l2 2h1l1 1 2 1 3 3v1c0 6.085-8 10.094-8 17-1.969 0-3 5.584-3 7ZM261 157l1 2c0-4.708-3.457-14.585-1-19.5 2.286-4.572 6-13.33 6-18.5 0-1.115-2.535 0-4 0l-1 1-1 1h-1l-1 1-1 1h-1l-1 1-1 1h-1l-1 1-1 1h-1l-1 1-1 2c0 5.937 9 10.469 9 17 .504 0 3 7.078 3 8Z"/><path fill="#AAA8A9" id="SEZ" d="m263 121-1 1 1-1ZM262 122l-1 1 1-1ZM260 123l-1 1 1-1ZM198 124l2 2-2-2ZM259 124l-1 1 1-1Z"/><path fill="#188064" id="SSp-m6b" d="M123 125c-1.747 0-2 .253-2 2 1.747 0 2-.253 2-2Z"/><path fill="#AAA8A9" id="SEZ" d="m257 125-1 1 1-1ZM201 126l1 1-1-1ZM256 126l-1 1 1-1Z"/><path fill="#188064" id="SSp-m6b" d="m103 166-2 1c0-12.141 6.943-21.386 12-31.5 1.138-2.276 5.665-8.5 8-8.5 0 4.696-8 7.054-8 12-1.577 0-2 1.762-2 3v1l-1 1-1 2v1l-1 1-1 2c-1.473 0-1 1.952-1 3l-1 2v5c-1.638 0-2 3.576-2 5v1Z"/><path fill="#AAA8A9" id="SEZ" d="m254 127-1 1 1-1ZM204 128l3 3-3-3ZM253 128l-1 1 1-1ZM251 129l-1 1 1-1Z"/><path fill="#97D6F9" id="STR" d="m248 131 1 1 1-2-2 1ZM209 131l-2 1v-1h2Z"/><path fill="#90CBEC" id="LSc" d="M199 149c0 2.36 3.959 0 5 0 0-1.577 1.762-2 3-2l2-1c0-4.414 12-4.279 12-10 0-2.847-9.741-5-12-5l-2 1c0 6.085-8 10.094-8 17ZM235 136c0 1.55 15.392 11.946 17.5 13 2.273 1.137 3.633 0 5.5 0 0-6.531-9-11.063-9-17l-1-1c-2.2 0-13 2.723-13 5Z"/><path fill="#97D6F9" id="STR" d="M225 137h6c0-4.066-6-2.062-6 0Z"/><path fill="#1A7E62" id="SSs1" d="m57 175-4 1c0-5.531-5.15-16.199-2-22.5 2.23-4.459 5-12.382 5-17.5l4 2c0 4.315-2.157 17.814-4 21.5l1 15.5Z"/><path fill="#97D6F9" id="STR" d="M224 137c0 2.771-12.471 9-15 9 0-4.414 12-4.279 12-10l3 1ZM258 149c.504 0 3 7.078 3 8l-4.5-4c-1.764-.882-23.5-14.983-23.5-16l2-1c0 1.55 15.392 11.946 17.5 13 2.273 1.137 3.633 0 5.5 0Z"/><path fill="#1A7E62" id="SSs1" d="m399 175 5 1 2-17.5c-1.576-3.152-5-18.729-5-22.5-2.25 0-3.376 2-5 2 0 4.55 1.939 14.379 4 18.5 2.354 4.708-1 14.017-1 18.5Z"/><path fill="#90CAED" id="LSr" d="M220 201h1c0-11.397 4-21.751 4-33l1-2c0-1.657.876-15 2.5-15l.5 6.5 2 8.5c0 11.646 4 22.017 4 34l1 2c1.951 0 .477-2.454 1-3.5l7-9 16.5-15.5 3.5 3v-4l-2-14-1-2-4.5-4c-1.764-.882-23.5-14.983-23.5-16h-9c0 2.771-12.471 9-15 9l-2 1c0 1.577-1.762 2-3 2 0 1.878-6.661 7-8 7l-1 1v2l-1 2-1 10v4c8.065 0 14.757 10.257 22 17.5 1.104 1.104 4.688 8.5 5 8.5Z"/><path fill="#1B8063" id="SSs2/3" d="m67 173-10 2-1-15.5c1.843-3.686 4-17.185 4-21.5l10 4c0 9.682-3 19.909-3 31ZM389 173l10 2c0-4.483 3.354-13.792 1-18.5-2.061-4.121-4-13.95-4-18.5-3.083 0-5.545 3-9 3v1c0 10.167 2 20.069 2 31Z"/><path fill="#C9C9CA" id="scwm" d="M113 139c-1.577 0-2 1.762-2 3 1.577 0 2-1.762 2-3Z"/><path fill="#187C63" id="SSs4" d="m72 172-5 1c0-11.091 3-21.318 3-31 1.974 0 3.517 2 6 2v1c-2.064 0-.426 3.353-1 4.5-3.017 6.033-3 15.365-3 22.5ZM385 172l4 1c0-10.931-2-20.833-2-31l-6 2v1c0 8.621 4 18.052 4 27Z"/><path fill="#C9C9CA" id="scwm" d="m111 143-1 1 1-1ZM110 144l-1 2 1-2Z"/><path fill="#1C8063" id="SSs5" d="m85 170-13 2c0-7.135-.017-16.467 3-22.5.574-1.147-1.064-4.5 1-4.5 3.819 0 7.052 3 11 3v1l-2 21ZM371 170l14 2c0-8.948-4-18.379-4-27-4.058 0-8.226 4-12 4 0 6.499 2 12.821 2 20v1Z"/><path fill="#97D6F9" id="STR" d="m209 146-2 1 2-1Z"/><path fill="#C9C9CA" id="scwm" d="m109 147-1 1 1-1Z"/><path fill="#97D6F9" id="STR" d="M207 147c-1.238 0-3 .423-3 2 1.238 0 3-.423 3-2Z"/><path fill="#C9C9CA" id="scwm" d="m108 148-1 2 1-2Z"/><path fill="#197D63" id="SSs6a" d="m97 167-12 3 2-21c11.278 0 10 8.767 10 18Z"/><path fill="#97D6F9" id="STR" d="M204 149c0 1.878-6.661 7-8 7 0-1.416 1.031-7 3-7 0 2.36 3.959 0 5 0Z"/><path fill="#197D63" id="SSs6a" d="M360 167c3.62 0 6.768 2 11 2 0-7.179-2-13.501-2-20-14.036 0-9 10.214-9 18Z"/><path fill="#C9C9CA" id="scwm" d="M107 150c-1.473 0-1 1.952-1 3 1.473 0 1-1.952 1-3Z"/><path fill="#97D6F9" id="STR" d="m226 166 2.5-3 2.5 3-2-8.5-.5-6.5c-1.624 0-2.5 13.343-2.5 15Z"/><path fill="#C9C9CA" id="scwm" d="m106 153-1 2 1-2ZM351 157l1 1-1-1Z"/><path fill="#A8AAAA" id="VL" d="m195 159-1 2 1-2Z"/><path fill="#C9C7C9" id="ccb" d="M103 165h1l1-5c-1.638 0-2 3.576-2 5Z"/><path fill="#96A7D3" id="MS" d="M231 245h1c0-1.198 1-6.472 1-3l2-1c0-10.054 1-21.319 1-32v-4c-1.643 0-1-3.765-1-5 0-11.983-4-22.354-4-34l-2.5-3-2.5 3-1 2c0 11.249-4 21.603-4 33v7c0 7.658-3.627 19.247 0 26.5.838 1.676-1.474 6.5 2 6.5 1.577 0 2 1.762 2 3v1c1.639 0 2.455-2 3.5-2 .63 0 .688 2 2.5 2Z"/><path fill="#C8CBCC" id="ec" d="M103 166v2c1.473 0 1-1.952 1-3h-1v1Z"/><path fill="#019C74" id="GU6b" d="m103 181-2 1v-15l2-1v15Z"/><path fill="#97D6F9" id="STR" d="m226 166-1 2 1-2Z"/><path fill="#019C74" id="GU6b" d="M354 182h1c0-4.635 1-9.828 1-15h-1l-2-1v2c1.793 0 1 12.009 1 14Z"/><path fill="#009B74" id="GU6a" d="M86 188h1c4.55 0 9.131-6 14-6v-15h-4l-12 3 1 18ZM355 182c5.322 0 9.818 6 15 6 0-5.521 1-11.898 1-18v-1c-4.232 0-7.38-2-11-2h-4c0 5.172-1 10.365-1 15Z"/><path fill="#C8CBCC" id="ec" d="m354 182-1 1v-15c1.793 0 1 12.009 1 14Z"/><path fill="#019C75" id="GU5" d="M73 193h1c0-3.452 12-2.912 12-5l-1-18-13 2-1 11.5c1.36 2.719 2 6.26 2 9.5ZM370 189c5.296 0 10.313 4 13 4l2-6.5V172l-14-2c0 6.102-1 12.479-1 18v1Z"/><path fill="#A8AAAA" id="VL" d="M194 195c-.684 0-3 6.971-3 2 0-6.441 1-13.719 1-19.5 0-1.363-.7-6.5 1-6.5v4c0 6.573 1 14.1 1 20Z"/><path fill="#009C74" id="GU4" d="M72 193h1c0-3.24-.64-6.781-2-9.5l1-11.5-5 1c0 4.889.95 10.4 3 14.5.557 1.114.41 5.5 2 5.5ZM383 194h1l3-5.5c2.064-4.128 2-10.544 2-15.5l-4-1v14.5l-2 6.5v1Z"/><path fill="#009B75" id="GU2/3" d="M72 193c0 1.231-7.622 3-9 3 0-.838-4.334-15.834-4.5-16-.983-.983.3-4-1.5-4v-1l10-2c0 4.889.95 10.4 3 14.5.557 1.114.41 5.5 2 5.5Z"/><path fill="#A8AAAA" id="VL" d="M263 195c0 3.153 2 5.347 2 1v-17.5c0-1.278.665-5.5-1-5.5v4l-1 18Z"/><path fill="#009B75" id="GU2/3" d="M384 194c3.519 0 5.843 2 9 2 0-5.361 6-13.753 6-20v-1l-10-2c0 4.956.064 11.372-2 15.5l-3 5.5Z"/><path fill="#8FCBED" id="LSv" d="M221 204v4c-1.184 0-3.108 5.196-5.5 4-3.383-1.691-21.5-13.989-21.5-17 0-5.9-1-13.427-1-20 8.065 0 14.757 10.257 22 17.5 1.104 1.104 4.688 8.5 5 8.5 0 1.048-.473 3 1 3ZM236 205v4c1.342 0 2.74 4.38 5.5 3 3.773-1.887 9.258-9 13.5-9 0-2.417 4.092-3.296 5.5-4l2.5-4 1-18-3.5-3-16.5 15.5-7 9c-.523 1.046.951 3.5-1 3.5v3Z"/><path fill="#12AD83" id="VISC1" d="M57 176c0 1.579-2.855 1-4 1v-1l4-1v1ZM404 176l-1 1-4-1v-1l5 1Z"/><path fill="#009C75" id="GU1" d="M59 197h4v-1c0-.838-4.334-15.834-4.5-16-.983-.983.3-4-1.5-4 0 1.579-2.855 1-4 1l6 20ZM393 196l4 1c0-5.526 6-13.275 6-20l-4-1c0 6.247-6 14.639-6 20Z"/><path fill="#1F9766" id="AId6b" d="M103 182c0 2.707 1 5.903 1 8-2.275 0-3-6.303-3-8l2-1v1Z"/><path fill="#209666" id="AId6a" d="M96 203c0 1.643-3.766 1-5 1 0-5.68-4-9.602-4-16 4.55 0 9.131-6 14-6 0 1.697.725 8 3 8 1.4 0 3 9.182 3 11h-1c0-1.795-3.51-14.495-6.5-13-6.24 3.12-3.5 10.165-3.5 15Z"/><path fill="#C8CBCC" id="ec" d="m110 210 1 1c0-5.379-3.61-17.72-6-22.5-.65-1.3-.007-6.5-2-6.5 0 2.707 1 5.903 1 8 1.4 0 3 9.182 3 11l1 6 2 3Z"/><path fill="#1F9766" id="AId6b" d="M352 190h2l1-2v-6h-1l-1 1v1c0 2.124-1 4.436-1 6Z"/><path fill="#209666" id="AId6a" d="M360 204h5c0-4.657 5-9.982 5-15v-1c-5.182 0-9.678-6-15-6v6c8.464 0 5 11.074 5 16Z"/><path fill="#C8CBCC" id="ec" d="m346 211-1 1c0-6.024 3.339-16.177 6-21.5.65-1.3.007-6.5 2-6.5 0 2.124-1 4.436-1 6l-3 11v5l-2 3v1l-1 1Z"/><path fill="#209665" id="AId5" d="M79 205h12v-1c0-5.68-4-9.602-4-16h-1c0 2.088-12 1.548-12 5v2l1 1 2 7 2 2Z"/><path fill="#8ADA86" id="CLA" d="m96 203 3.5 5 5.5-1 1-6c0-1.795-3.51-14.495-6.5-13-6.24 3.12-3.5 10.165-3.5 15ZM351 201c0 5.254 2.205 8.648 7.5 6l1.5-3c0-4.926 3.464-16-5-16l-1 2c0 3.58-3 6.832-3 11Z"/><path fill="#209665" id="AId5" d="m378 205-1 1c-3.312 0-8.038-1-12-1v-1c0-4.657 5-9.982 5-15 5.296 0 10.313 4 13 4v1l-1 1-1 5-1 1v1l-1 2-1 1Z"/><path fill="#209666" id="AId6a" d="M349 201h2c0-4.168 3-7.42 3-11h-2l-3 11Z"/><path fill="#209865" id="AIp2/3" d="M82 216c-2.767 0-6.533 3-9 3 0-7.791-10-14.437-10-22v-1c1.378 0 9-1.769 9-3h1l1 1v1l1 1 2 7c0 1.238.423 3 2 3v1l3 9Z"/><path fill="#209765" id="AId2/3" d="M74 193v1l-1-1h1ZM383 194l-1 1 1-1Z"/><path fill="#209865" id="AIp2/3" d="m374 216 9 2c0-7.394 10-13.959 10-22-3.157 0-5.481-2-9-2h-1l-1 1-1 5-1 1v1l-1 2-1 1v1l-1 1c0 3.455-3 5.917-3 9Z"/><path fill="#209765" id="AId2/3" d="m74 195 1 1-1-1Z"/><path fill="#97D6F9" id="STR" d="M223 241v1c-.909 0-5-4.396-5-2-8.009 0-15-9.517-15-17 0-7.475 1.447-12.606-2-19.5-2.05-4.101-8.163-2.673-10 1l1 4.5-4.5-1-4.5 3c0-1.238-.423-3-2-3l6-5.5 4-5.5c0 4.971 2.316-2 3-2 0 3.011 18.117 15.309 21.5 17 2.392 1.196 4.316-4 5.5-4 0 7.658-3.627 19.247 0 26.5.838 1.676-1.474 6.5 2 6.5ZM276 209c-.922 0-3-1.681-3 1-2.502 0-5.498-1-8-1 0-12.813-3.871-6-10-6 0-2.417 4.092-3.296 5.5-4l2.5-4c0 3.153 2 5.347 2 1l8 10.5 3 2.5Z"/><path fill="#219765" id="AIp1" d="M383 218c0 .672 4.329 2 5 2 1.183 0 1.535-3.57 2-4.5 2.604-5.208 7-12.458 7-18.5l-4-1c0 8.041-10 14.606-10 22ZM73 219l-5 1c0-6.038-9-16.165-9-23h4c0 7.563 10 14.209 10 22Z"/><path fill="#97D6F9" id="STR" d="M236 202v3c-1.643 0-1-3.765-1-5l1 2Z"/><path fill="#209765" id="AId2/3" d="m381 200-1 1 1-1Z"/><path fill="#1F9866" id="AIv6a" d="M105 207h3l-1-6h-1l-1 6Z"/><path fill="#B3C0DE" id="BST" d="M188 223c0 13.268 13.159 0 15 0 0-7.475 1.447-12.606-2-19.5-2.05-4.101-8.163-2.673-10 1l1 4.5c0 3.027 3.403 14-4 14Z"/><path fill="#97D6F9" id="STR" d="M221 201v3c-1.473 0-1-1.952-1-3h1Z"/><path fill="#B3C0DE" id="BST" d="M269 223c0 12.272-11.922 1-15 1 0-2.493-2-6.164-2-8.5 0-4.067 3-8.442 3-12.5 6.129 0 10-6.813 10 6 0 1.736-5.147 14 4 14Z"/><path fill="#1F9866" id="AIv6a" d="m354 209 8 3c0-.978 2.267-7 3-7v-1h-5l-1.5 3c-5.295 2.648-7.5-.746-7.5-6h-2v5l5 3Z"/><path fill="#209765" id="AId2/3" d="m380 202-1 2 1-2ZM79 205v1c-1.577 0-2-1.762-2-3l2 2Z"/><path fill="#1F9866" id="AIv6a" d="M103 209h1l1-2-5.5 1-3.5-5c0 1.643-3.766 1-5 1v1c1.43 0 3 5.655 3 7 3.618 0 5.829-3 9-3Z"/><path fill="#97D6F9" id="STR" d="m237 240-2 1c0-10.054 1-21.319 1-32 1.342 0 2.74 4.38 5.5 3 3.773-1.887 9.258-9 13.5-9 0 4.058-3 8.433-3 12.5 0 2.336 2 6.007 2 8.5-1.643 0-1 3.765-1 5-1.774 0-5.966 7.733-8.5 9-1.625.813-7.5 1.984-7.5 2Z"/><path fill="#209765" id="AId2/3" d="m379 204-1 1 1-1Z"/><path fill="#1F9865" id="AIv5" d="m90 214-5 1c0-3.016-3.3-8-6-8v-2h12c1.43 0 3 5.655 3 7l-4 2ZM366 214l5 1c0-1.822 3.711-8 6-8v-1c-3.312 0-8.038-1-12-1-.733 0-3 6.022-3 7l4 2Z"/><path fill="#209765" id="AId2/3" d="M377 206h1v-1l-1 1Z"/><path fill="#8AD987" id="CTXsp" d="M354 209v1c-1.819 0-4.591-1-7-1l2-3 5 3Z"/><path fill="#219764" id="AIv2/3" d="m378 206-1 1v-1h1ZM85 215l-3 1-3-9c2.7 0 6 4.984 6 8Z"/><path fill="#8AD987" id="CTXsp" d="M104 209c2.124 0 4.436 1 6 1l-2-3h-3l-1 2Z"/><path fill="#219764" id="AIv2/3" d="m371 215 3 1c0-3.083 3-5.545 3-9-2.289 0-6 6.178-6 8Z"/><path fill="#80CDF8" id="ACB" d="M189 240c0 10.246-31.76 27.87-41.5 23l-9-6-2.5-3c0-5.57-5-10.036-5-16 0-2.215 2-1.519 2-3 15.614 0 34.037 2.426 42-13.5l1-6c.846-1.691 5-6.621 5-7.5 1.577 0 2 1.762 2 3 0 2.38-7.296 12 1 12 0 3.946 5 9.127 5 17Z"/><path fill="#CBCBC7" id="aco" d="M184 223h4c7.403 0 4-10.973 4-14l-4.5-1-4.5 3c0 2.38-7.296 12 1 12ZM269 223h3c8.778 0 1-10.454 1-13-2.502 0-5.498-1-8-1 0 1.736-5.147 14 4 14Z"/><path fill="#80CDF8" id="ACB" d="M268 241c0 8.563 30.555 26.973 40.5 22 2.455-1.228 9.1-8 11.5-8 0-6.018 5-10.421 5-17l-1-3c-12.163 0-24.433 1.034-34.5-4-6.58-3.29-6.695-10.89-9.5-16.5l-4-5.5c-.922 0-3-1.681-3 1 0 2.546 7.778 13-1 13 0 5.578-5 9.462-5 16v1l1 1Z"/><path fill="#99D2BD" id="OLF" d="M90 214c6.334 0 7.937 8 10 8 0-2.014-2.284-5.932-1-8.5l4-4.5c-3.171 0-5.382 3-9 3l-4 2Z"/><path fill="#A0EE9C" id="EPd" d="M114 231h3c4.723 0 2-3.614 2-6l-2-2v-1l-2-2v-1l-2-2-1-3-1-2v-1l-1-1c-1.564 0-3.876-1-6-1h-1l-4 4.5c-1.284 2.568 1 6.486 1 8.5l3 3 2 2 3 1 1 1h1c1.238 0 3 .423 3 2h1ZM342 231h1l2-1 1-1h1l2-1 1-1h1l1-1 1-1h1l1-1 1-1 1-1v-1c0-2.657 1.268-11-3-11-1.819 0-4.591-1-7-1v1l-1 1-1 1v1l-1 2-1 3-1 1-1 1-1 2-1 1-1 1-1 1v1c0 2.313-2.273 5 2 5h3Z"/><path fill="#99D2BD" id="OLF" d="M366 214c-4.668 0-6.03 7-9 7 0-2.657 1.268-11-3-11v-1l8 3 4 2Z"/><path fill="#8AD987" id="CTXsp" d="m347 210-1 1 1-1Z"/><path fill="#C8CBCC" id="ec" d="m111 212 1 2-1-2ZM345 213l-1 2 1-2Z"/><path fill="#6ACAB9" id="PIR" d="M119 264h2c0-1.466 4.201-4 6-4 0-7.126 6.736-8.028 2-17.5-1.839-3.678-6.591-7.546-10.5-9.5-1.119-.559-4.5-.155-4.5-2h-1l-3-2h-1l-1-1-3-1-2-2-3-3c-2.063 0-3.666-8-10-8l-5 1-3 1c-2.767 0-6.533 3-9 3l-5 1c0 6.172 21.079 33 27 33 5.392 0 24 4.661 24 11ZM338 263l-2 1-6-4c0-4.425-7.846-6.809-2-18.5l9.5-8.5c1.119-.559 4.5-.155 4.5-2h1l2-1 1-1h1l2-1 1-1h1l1-1 1-1h1l1-1 1-1 1-1v-1c2.97 0 4.332-7 9-7l5 1 3 1 9 2c0 .672 4.329 2 5 2 0 8.54-10.824 19.324-17 25.5l-9 8.5c-4.045 0-24 1.834-24 9Z"/><path fill="#C8CBCC" id="ec" d="m113 217 2 2-2-2ZM343 218l-1 1 1-1ZM342 219l-1 1 1-1ZM115 220l2 2-2-2ZM340 222l-1 1 1-1Z"/><path fill="#99D2BD" id="OLF" d="m357 222-1 1 1-1Z"/><path fill="#C8CBCC" id="ec" d="M117 223c1.747 0 2 .253 2 2l-2-2Z"/><path fill="#E64438" id="HY" d="M202 249c3.522 0 3.03 4 5 4l8-11.5 3-1.5c-8.009 0-15-9.517-15-17-1.841 0-15 13.268-15 0h-4c0 3.946 5 9.127 5 17 5.741 0 7.015-12 12.5-12l2.5 5-2 16ZM253 229c7.485 0 7.954 10 14 10 0-6.538 5-10.422 5-16h-3c0 12.272-11.922 1-15 1-1.643 0-1 3.765-1 5Z"/><path fill="#C8CBCC" id="ec" d="m339 223-1 1 1-1ZM338 224l-1 1 1-1Z"/><path fill="#99D2BD" id="OLF" d="m355 224-1 1 1-1ZM103 225l2 2-2-2Z"/><path fill="#8AD987" id="CTXsp" d="M117 231c0 1.175 5.704 2 7 2v-3l-5-5c0 2.386 2.723 6-2 6Z"/><path fill="#99D2BD" id="OLF" d="m353 225-1 1 1-1Z"/><path fill="#8AD987" id="CTXsp" d="M339 231c0 1.663-5.407 2-7 2v-3l1-1 4-3c0 2.313-2.273 5 2 5Z"/><path fill="#99D2BD" id="OLF" d="m352 226-1 1 1-1ZM350 227l-1 1 1-1ZM108 228l1 1-1-1Z"/><path fill="#A2B1D7" id="SI" d="M186 273v2c-12.275 0-29.01 5.745-40.5 0l-14-10-3.5-5 8-6 2.5 3 9 6c9.74 4.87 41.5-12.754 41.5-23 5.741 0 7.015-12 12.5-12l2.5 5-2 16-5 9.5-8 8.5c-2.314 0-3 4.262-3 6ZM268 267c2.16 0 3 6.07 3 8 10.47 0 27.463 6.019 37.5 1l8-5c3.026-1.513 11.5-7.268 11.5-11 0-1.222-6.549-5-8-5-2.4 0-9.045 6.772-11.5 8-9.945 4.973-40.5-13.437-40.5-22l-1-1v-1c-6.046 0-6.515-10-14-10 0 7.089 2 14.55 2 20 0 2.903 10.567 18 13 18Z"/><path fill="#99D2BD" id="OLF" d="m349 228-2 1 2-1ZM110 229c1.238 0 3 .423 3 2l-3-2Z"/><path fill="#E64438" id="HY" d="M255 249c-2.405 0-5 1.319-5 4-1.753 0-7.051-13-13-13 0-.016 5.875-1.187 7.5-2 2.534-1.267 6.726-9 8.5-9 0 7.089 2 14.55 2 20Z"/><path fill="#97D6F9" id="STR" d="m333 229-1 1 1-1Z"/><path fill="#99D2BD" id="OLF" d="m346 229-1 1 1-1Z"/><path fill="#97D6F9" id="STR" d="M133 235c0 1.481-2 .785-2 3-2.696 0-3.847-5-7-5v-3l9 5ZM324 235l1 3c2.696 0 3.847-5 7-5v-3l-8 5Z"/><path fill="#99D2BD" id="OLF" d="m345 230-2 1 2-1ZM127 260h1l8-6c0-5.57-5-10.036-5-16-2.696 0-3.847-5-7-5-1.296 0-7-.825-7-2h-3c0 1.845 3.381 1.441 4.5 2 3.909 1.954 8.661 5.822 10.5 9.5 4.736 9.472-2 10.374-2 17.5ZM328 260h2c0-4.425-7.846-6.809-2-18.5l9.5-8.5c1.119-.559 4.5-.155 4.5-2h-3c0 1.663-5.407 2-7 2-3.153 0-4.304 5-7 5 0 6.579-5 10.982-5 17 1.451 0 8 3.778 8 5Z"/><path fill="#E64438" id="HY" d="M225 245c0 1.664-1.823 6-4 6 0-1.668.935-11-3-11 0-2.396 4.091 2 5 2 0 3.162-.109 2 2 2v1Z"/><path fill="#FF5346" id="MPO" d="M215 262h1c.886 0 3-5.824 3-7l1-1 1-3c0-1.668.935-11-3-11l-3 1.5-8 11.5-1 4v1l6.5-2c2.143 1.072.721 6 2.5 6Z"/><path fill="#E64438" id="HY" d="M231 245h1c1.473 0 1-1.952 1-3l2-1 2-1c0 3.911-2 6.607-2 11l-4-6Z"/><path fill="#FF5346" id="MPO" d="m240 262 2 1c0-10.349 2.673-5 8-5l1-1-1-4c-1.753 0-7.051-13-13-13 0 3.911-2 6.607-2 11v1l2 2c0 3.219 3 5.108 3 8Z"/><path fill="#E64438" id="HY" d="m267 240 1 1-1-1Z"/><path fill="#96A6D3" id="NDB" d="M223 242c0 3.162-.109 2 2 2 0-1.238-.423-3-2-3v1ZM233 242c0 1.048.473 3-1 3 0-1.198 1-6.472 1-3Z"/><path fill="#FE5446" id="AVPV" d="M215 269c10.155 0 6.547-2.023 12.5-5l4 3c3.356 1.678 5.38 2 9.5 2 0-2.409-1-5.181-1-7 0-2.892-3-4.781-3-8l-2-2v-1l-4-6c-1.812 0-1.87-2-2.5-2-1.045 0-1.861 2-3.5 2 0 1.664-1.823 6-4 6l-1 3-1 1c0 1.176-2.114 7-3 7l-1 2v5Z"/><path fill="#F2473B" id="LPO" d="M189 267c0 1.473 1.952 1 3 1 2.014 0 13-7.475 13-10l1-1 1-4c-1.97 0-1.478-4-5-4l-5 9.5-8 8.5ZM263 267c.671 0 5 2.662 5 0-2.433 0-13-15.097-13-18-2.405 0-5 1.319-5 4l1 4v1c0 1.613 10.399 9 12 9Z"/><path fill="#E64438" id="HY" d="m235 252 2 2-2-2Z"/><path fill="#CAC8C7" id="lot" d="m119 269-1 1c-1.781 0-19.096-12.298-22.5-14l-.5-3c5.392 0 24 4.661 24 11v5ZM338 269l1 1c1.818 0 15.413-10.457 18.5-12l4.5-4c-4.045 0-24 1.834-24 9 0 1.048.473 3-1 3v2l1 1Z"/><path fill="#E64438" id="HY" d="m220 254-1 1 1-1Z"/><path fill="#96A6D3" id="NDB" d="M204 275h1l1-1 1-1h1l1-1 1-1h1l1-1 3-6v-2c-1.779 0-.357-4.928-2.5-6l-6.5 2h-1c0 2.525-10.986 10-13 10l-2 3c0 6.721 11.113 4 14 4ZM248 273h1c3.051 0 17 7.362 17-2l-3-4c-1.601 0-12-7.387-12-9h-1c-5.327 0-8-5.349-8 5 0 2.607 3 4.913 3 7l2 2 1 1Z"/><path fill="#E64438" id="HY" d="M205 258h1v-1l-1 1ZM250 258h1v-1l-1 1Z"/><path fill="#7FCCF7" id="OT" d="m196 281-1 1c0 14.951-15.724 10.112-23.5 14-14.377 7.188-36.478 3.544-44.5-12.5-2.194-4.388-8-7.247-8-12.5v-5l2-2c0-1.466 4.201-4 6-4h1l3.5 5 14 10c11.49 5.745 28.225 0 40.5 0 3.602 0 10 1.286 10 6ZM270 275h1c10.47 0 27.463 6.019 37.5 1l8-5c3.026-1.513 11.5-7.268 11.5-11h2l6 4 1 2v6c0 3.616-4.461 6.423-6 9.5-8.576 17.151-30.95 22.275-46.5 14.5-7.677-3.838-23.5.65-23.5-14 0-5.333 4.026-7 9-7Z"/><path fill="#E64438" id="HY" d="m216 262-1 2v-2h1ZM241 269c0 1.579 2.855 1 4 1 0-2.087-3-4.393-3-7l-2-1c0 1.819 1 4.591 1 7Z"/><path fill="#99D2BD" id="OLF" d="m336 264 1 2c1.473 0 1-1.952 1-3l-2 1ZM121 264l-2 2v-2h2Z"/><path fill="#E64438" id="HY" d="M215 269c0 1.473-1.952 1-3 1l3-6v5ZM190 271l-4 2c0-1.738.686-6 3-6 0 1.473 1.952 1 3 1l-2 3ZM270 275h1c0-1.93-.84-8-3-8 0 2.662-4.329 0-5 0l3 4c1.896 0 4 2.077 4 4Z"/><path fill="#97D6F9" id="STR" d="m339 270-2 2v-4l1 1 1 1ZM118 270l1 1v-2l-1 1Z"/><path fill="#99D2BD" id="OLF" d="m338 269 1 1-1-1Z"/><path fill="#E64438" id="HY" d="m212 270-1 1 1-1Z"/><path fill="#8599CC" id="PAL" d="M204 275c0 2.207-6.098 6-8 6 0-4.714-6.398-6-10-6v-2l4-2c0 6.721 11.113 4 14 4ZM210 271l-1 1 1-1ZM270 275c-4.974 0-9 1.667-9 7l-12-9c3.051 0 17 7.362 17-2 1.896 0 4 2.077 4 4ZM209 272l-1 1 1-1ZM247 272l1 1-1-1ZM207 273l-1 1 1-1ZM206 274l-1 1 1-1Z"/><path fill="#CBCCC7" id="IIn" d="m215 275-8 6.5c-1.757 3.515 3.174 8.163 6.5 6.5 7.58-3.79 15.86-13 1.5-13ZM234 275l-1 3.5c1.684 3.368 8.872 11.814 13.5 9.5 10.914-5.457-6.405-13-12.5-13Z"/><path fill="#8599CC" id="PAL" d="m196 281-1 1 1-1Z"/></svg>