<svg xmlns="http://www.w3.org/2000/svg" viewBox="0 0 456 320"><path fill="#99D2BD" id="OLF" d="M196 113h5c0-1.566-5-1.566-5 0ZM255 113h6c0-1.587-6-1.587-6 0Z"/><path fill="#C7CBCA" id="onl" d="M158 221c0 3.856 4.396 5.292 6 8.5 4.11 8.221 9.005 9.753 16.5 13.5h13c3.454 1.727 11.3 5.35 16 3 7.864-3.932 12.909-16.318 16.5-23.5l2.5-12.5 2.5 15.5c2.925 5.85 9.707 17.603 15.5 20.5 4.738 2.369 13.463-1.232 17-3h12c7.962-3.981 13.215-5.931 17.5-14.5 1.169-2.338 5-3.723 5-6.5 0-20.715 6-38 6-59v-2c-1.735 0-1-6.51-1-8v-5c-1.473 0-1-1.952-1-3v-1c-1.473 0-1-1.952-1-3v-2l-2-4v-1c-1.577 0-2-1.762-2-3v-1l-1-1c-1.749 0-6.697-6.599-9.5-8-6.394-3.197-14.973-8-22.5-8v1c6.071 0 12.268 6.384 17.5 9 31.41 15.705 12.617 51.267 1.5 73.5v5c-3.338 6.676-1.837 14.675-6 23-4.373 8.746-24.913 13.173-30 3l-6-9-3-10-1-13c-3.602-7.204-3-22.216-3-30.5 0-6.242-6.442-28.615-4-33.5l6-11.5-1-1c-2.215 0-4.961 4.421-6 6.5l-.5 2.5c-1.717 0-3.19-9-6.5-9h-2l6 11.5V142c0 6.535-2.251 26.003-5 31.5v18c-6.698 13.396 1.519 30.491-18.5 40.5-1.962.981-8.568 2.216-11 1l-8-4c-9.675-4.838-5.747-18.994-8.5-24.5-1.49-2.981-.554-7.108-2-10l-14-29c-1.306-2.612-.642-6.284-2-9-1.154-2.308.082-8.163 1-10l1-6c5.091-10.182 10.992-16.246 21.5-21.5 1.611-.805 11.5-3.557 11.5-5v-1c-4.943 0-31 10.288-31 16l-1 1-1 1v1l-1 1-1 2v1l-1 1v1c0 1.048.473 3-1 3v2c0 1.048.473 3-1 3v1c0 1.145.579 4-1 4v32.5c4.812 9.625 5 26.905 5 37.5Z"/><path fill="#99D2BD" id="OLF" d="M195 113c0 1.473-1.952 1-3 1v-1h3Z"/><path fill="#9AD1BD" id="MOB" d="M192 114c0 1.443-9.889 4.195-11.5 5-10.508 5.254-16.409 11.318-21.5 21.5l-1 6c-.918 1.837-2.154 7.692-1 10 1.358 2.716.694 6.388 2 9l14 29c1.446 2.892.51 7.019 2 10 2.753 5.506-1.175 19.662 8.5 24.5l8 4c2.432 1.216 9.038-.019 11-1 20.019-10.009 11.802-27.104 18.5-40.5v-18c2.749-5.497 5-24.965 5-31.5v-11.5l-6-11.5-9-6h-16c0 1.473-1.952 1-3 1Z"/><path fill="#99D2BD" id="OLF" d="M220 119h2c0-2.256-8.973-6-11-6l9 6ZM245 113l-2 1 2-1Z"/><path fill="#9AD1BD" id="MOB" d="m241 115-5 5-6 11.5c-2.442 4.885 4 27.258 4 33.5 0 8.284-.602 23.296 3 30.5l1 13 3 10 6 9c5.087 10.173 25.627 5.746 30-3 4.163-8.325 2.662-16.324 6-23v-5c11.117-22.233 29.91-57.795-1.5-73.5-5.232-2.616-11.429-9-17.5-9l-2-1h-17l-2 1-2 1Z"/><path fill="#99D2BD" id="OLF" d="M264 113v1l-2-1h2ZM243 114l-2 1 2-1ZM235 119l1 1 5-5c-2.244 0-6 1.725-6 4ZM161 129l-1 1 1-1ZM296 129l1 1-1-1ZM160 130l-1 1 1-1ZM297 131l2 3c-1.577 0-2-1.762-2-3ZM159 132l-1 1 1-1ZM158 133l-1 2 1-2ZM299 135l2 4-2-4ZM157 136l-1 1 1-1ZM156 138c-1.473 0-1 1.952-1 3 1.473 0 1-1.952 1-3ZM301 141c1.473 0 1 1.952 1 3-1.473 0-1-1.952-1-3ZM155 143c-1.473 0-1 1.952-1 3 1.473 0 1-1.952 1-3ZM302 145c1.473 0 1 1.952 1 3-1.473 0-1-1.952-1-3ZM154 147c-1.579 0-1 2.855-1 4 1.579 0 1-2.855 1-4ZM303 153c1.735 0 1 6.51 1 8-1.735 0-1-6.51-1-8ZM153 158c-1.036 0-2 14.625-2 16.5 0 7.171-6.668 26.665-3 34l3 3c1.077 2.155 3.754 9.5 7 9.5 0-10.595-.188-27.875-5-37.5V158ZM304 163c1.48 0 1.133 13.766 2 15.5.799 1.597 3.524 25.953 3 27-1.11 2.22-3.189 4.379-4 6-1.032 2.063-3.684 10.5-7 10.5 0-20.715 6-38 6-59Z"/></svg>