<svg xmlns="http://www.w3.org/2000/svg" viewBox="0 0 456 320"><path fill="#9AD1BD" id="MOB" fill-rule="evenodd" d="M161 212c0 9.765 18.285 35 29 35h10.5c24.987-12.493 21.5-57.978 21.5-84l1-30.5c-2.519-5.037-3.453-10.907-6-16-1.329-2.658-10-7.101-10-8.5h-1l-1-1c-10.618 0-22.832-2.834-32.5 2-4.276 2.138-7.652 5.826-12 8-3.415 1.707-11.5 9.974-11.5 14l-1 1v1l-1 1v1l-1 2-1 2v4l-1 1v13c1.579 0 1 2.855 1 4v3l1 2v2l1 2v3l1 2 3.5 7c3.271 3.271 9.5 24.989 9.5 30m19-82c-16.537 0-.129 37.758 10 17.5l2-6c0-2.917-4-5.843-4-8.5.788 0 9.76 1.98 10 1.5 1.811-3.623-15.724-10.388-19.5-8.5-4.49 2.245 1.5 2.875 1.5 4ZM267 247h1l1-1h1l1-1 3-1 1-1c4.861 0 20-24.129 20-30l1-2c0-6.187 4.292-21.083 7-26.5 1.407-2.814 5-6.261 5-9.5l1-1v-2c0-1.048-.473-3 1-3v-1l1-2v-3l1-2v-4c0-1.145-.579-4 1-4v-5c-1.473 0-1-1.952-1-3v-3l-1-2v-3c-1.577 0-2-1.762-2-3v-1l-1-1v-1l-1-1c0-3.241-6.589-9.089-9-11.5-6.444-6.444-31.497-17.502-41.5-12.5-1.892.946-5.372 2-7.5 2l-2 1-6 5.5c-2.623 5.246-4.433 10.866-7 16-3.205 6.41 0 23.821 0 32 0 12.371-1.902 39.196 3 49 2.072 4.143-.102 10.796 2 15 6.957 13.915 10.77 20.5 28 20.5m9-117c17.395 0 .118 36.735-9 18.5-1.042-2.084-2-2.908-2-5.5 0-4.125 3-6.625 3-10-3.474 0-4.691.595-7.5 2-2.547 1.274-.735-4.132 1-5 1.63-.815 16.094-6.312 17.5-3.5 1.553 3.107-3 1.777-3 3.5Z"/><path fill="#99D2BD" id="OLF" d="m205 107 1 1-1-1Z"/><path fill="#C7CBCA" id="onl" d="M227 210c0 16.086 2.736 36.028-4 49.5-1.125 2.25-3.75 2.625-5.5 3.5-8.549 4.275-8.911-6.955-15-10-2.769-1.385-12.5-2.676-12.5-6h10.5c24.987-12.493 21.5-57.978 21.5-84l1-30.5c-2.519-5.037-3.453-10.907-6-16-1.329-2.658-10-7.101-10-8.5 20.489 0 20 41.052 20 57v21.5c0 1.363-.7 6.5 1 6.5v3c-1.793 0-1 12.009-1 14ZM249 108l-2 1 2-1ZM247 109c-11.148 0-12.573 15.645-16 22.5v5c-2.983 5.965-2 23.902-2 31.5 0 19.041 1 39.145 1 57.5 0 11.243-1.694 24.612 3 34l5.5 3.5c8.537 4.268 10.805-7.903 17-11 2.044-1.022 11.5-1.98 11.5-5-17.23 0-21.043-6.585-28-20.5-2.102-4.204.072-10.857-2-15-4.902-9.804-3-36.629-3-49 0-8.179-3.205-25.59 0-32 2.567-5.134 4.377-10.754 7-16l6-5.5Z"/><path fill="#CACAC9" id="lotd" d="M180 130c3.239 0 4.575 3 8 3 .788 0 9.76 1.98 10 1.5 1.811-3.623-15.724-10.388-19.5-8.5-4.49 2.245 1.5 2.875 1.5 4ZM276 130c-2.7 0-4.762 3-8 3-3.474 0-4.691.595-7.5 2-2.547 1.274-.735-4.132 1-5 1.63-.815 16.094-6.312 17.5-3.5 1.553 3.107-3 1.777-3 3.5Z"/><path fill="#95E4C8" id="AOBgr" d="M180 130c3.239 0 4.575 3 8 3 0 2.657 4 5.583 4 8.5l-2 6c-10.129 20.258-26.537-17.5-10-17.5ZM276 130c17.395 0 .118 36.735-9 18.5-1.042-2.084-2-2.908-2-5.5 0-4.125 3-6.625 3-10 3.238 0 5.3-3 8-3Z"/><path fill="#99D2BD" id="OLF" d="m307 130 1 1-1-1ZM149 131l-1 1 1-1ZM308 132l1 1-1-1ZM148 133l-1 1 1-1ZM309 134l2 3c-1.577 0-2-1.762-2-3ZM147 135l-1 2 1-2ZM146 137l-1 2 1-2ZM311 140l1 2-1-2ZM145 143l-1 1 1-1ZM312 145c1.473 0 1 1.952 1 3-1.473 0-1-1.952-1-3ZM144 148c-1.566 0-1.566 5 0 5v-5ZM313 153c-1.579 0-1 2.855-1 4 1.579 0 1-2.855 1-4ZM144 157c1.579 0 1 2.855 1 4-1.579 0-1-2.855-1-4ZM312 161l-1 2 1-2ZM145 164l1 2-1-2ZM227 165c1.7 0 1 5.137 1 6.5V193c-1.7 0-1-5.137-1-6.5V165ZM311 166l-1 2 1-2ZM146 168l1 2-1-2ZM310 169c-1.473 0-1 1.952-1 3 1.473 0 1-1.952 1-3ZM148 175v1c-1.473 0-1-1.952-1-3l1 2ZM308 175h1v-1l-1 1Z"/><path fill="#C7CBCA" id="onl" d="m159 210 2 2c0-5.011-6.229-26.729-9.5-30l-3.5-7v3l1 2v3l1 2v2l1 1v3l1 2v2l1 1v2l1 1v1l1 1v2l2 4v1l2 2ZM296 211h1l1-2 1-2 1-1v-1l1-1v-1l1-2v-1l1-1v-2l1-1v-1l1-2v-3l1-2v-1l1-2v-4l1-1v-2l1-1v-2h-1c0 3.239-3.593 6.686-5 9.5-2.708 5.417-7 20.313-7 26.5Z"/><path fill="#99D2BD" id="OLF" d="m309 177-1 1 1-1ZM148 178l1 2-1-2ZM308 180l-1 1 1-1ZM149 183l1 2-1-2ZM307 185l-1 2 1-2ZM150 187l1 1-1-1ZM306 188l-1 2 1-2ZM151 191l1 2-1-2ZM305 193l-1 2 1-2ZM152 195l1 1-1-1ZM228 196c-1.793 0-1 12.009-1 14 1.793 0 1-12.009 1-14ZM304 196l-1 1 1-1ZM153 198l1 1-1-1ZM303 199l-1 1 1-1ZM154 200l1 1-1-1ZM302 201l-1 2 1-2ZM155 203l2 4-2-4ZM301 204l-1 1 1-1ZM300 206l-1 1 1-1ZM157 208l2 2-2-2ZM298 209l-1 2 1-2Z"/><path fill="#C7CBCA" id="onl" d="m296 212-1 1 1-2v1Z"/><path fill="#99D2BD" id="OLF" d="m297 211-1 1v-1h1Z"/><path fill="#C7CBCA" id="onl" d="m275 243-1 1 1-1ZM271 245l-1 1 1-1ZM269 246l-1 1 1-1Z"/></svg>