<svg xmlns="http://www.w3.org/2000/svg" viewBox="0 0 456 320"><path fill="#9AD1BD" id="MOB" d="M147 144v14c1.356 0 5.14 11.78 6 13.5l12 24c5.143 10.286-4.954 28.273 9.5 35.5l15 8c7.592 3.796 19.36-2.22 22.5-8.5 6.542-13.083 9-29.864 9-45.5v-18.5c1.573-3.147 5.69-33.62 4-37-2.581-5.162-4.37-10.741-7-16-1.379-2.758-5-3.778-5-6.5l-8.5-4c-10.419-5.21-39.81 8.12-43.5 15.5-1.512 3.024-8 5.944-8 10.5l-1 1-1 1v1l-1 2-1 2v1l-1 2-1 2v3ZM309 142v15c0 6.641-14.339 32.178-18 39.5-2.814 5.629 1.431 19.137-3 28-6.994 13.989-36.073 21.854-45 4-3.24-6.479-2.79-14.58-6-21-1.54-3.08.595-7.809-1-11-3.01-6.02 2.067-15.867-1-22v-14c-1.313-2.626-5.301-26.398-4-29 3.042-6.084 4.893-12.786 8-19l5-5.5 8.5-4c6.427-3.214 27.009 3.505 32 6 2.707 1.354 4.99 4.995 7 6 3.273 1.637 11.5 9.113 11.5 13l4 7v1l2 4v2Z"/><path fill="#C7CBCA" id="onl" d="M153 211c0 6.51 5.307 9.115 8 14.5 7.811 15.622 39.649 33.925 56.5 25.5 11.153-5.576 9.5-23.196 9.5-34v-20.5c0-1.363-.7-6.5 1-6.5v-25c-1.793 0-1-12.009-1-14 0-17.942 1.729-21.043-6-36.5-1.207-2.414-4.851-7.5-8-7.5 0 2.722 3.621 3.742 5 6.5 2.63 5.259 4.419 10.838 7 16 1.69 3.38-2.427 33.853-4 37V185c0 15.636-2.458 32.417-9 45.5-3.14 6.28-14.908 12.296-22.5 8.5l-15-8c-14.454-7.227-4.357-25.214-9.5-35.5l-12-24c-.86-1.72-4.644-13.5-6-13.5v12c1.579 0 1 2.855 1 4v1c1.714 0 1 5.594 1 7v2c2.144 0 .381 4.262 1 5.5 1.323 2.646 3 18.475 3 21.5ZM308 179c-2.207 0-.338 5.176-1 6.5-.617 1.233-4 23.821-4 25.5 0 17.349-29.547 34.023-43.5 41-5.188 2.594-20.541 2.417-23.5-3.5l-5-8c-4.041-8.081-2-21.904-2-31.5v-69.5c0-9.017 3.531-32.5 15-32.5l-5 5.5c-3.107 6.214-4.958 12.916-8 19-1.301 2.602 2.687 26.374 4 29v14c3.067 6.133-2.01 15.98 1 22 1.595 3.191-.54 7.92 1 11 3.21 6.42 2.76 14.521 6 21 8.927 17.854 38.006 9.989 45-4 4.431-8.863.186-22.371 3-28 3.661-7.322 18-32.859 18-39.5 1.363 0 0 9.802 0 12v4c-1.643 0-1 3.765-1 5v1Z"/><path fill="#99D2BD" id="OLF" d="M303 128c1.948 0 4 5.428 4 7l-4-7ZM153 129l-1 1 1-1ZM152 130l-1 1 1-1ZM151 132l-1 2 1-2ZM150 134l-1 2 1-2ZM307 136l2 4-2-4ZM149 137l-1 2 1-2ZM148 139l-1 2 1-2ZM309 157c1.363 0 0 9.802 0 12 2.144 0 .381-4.262 1-5.5 1.969-3.939 1.969-14.061 0-18-.523-1.046.951-3.5-1-3.5v15ZM147 158v8c-2.144 0-.381-4.262-1-5.5-1.306-2.611-1.053-16.5 1-16.5v14ZM227 151c1.793 0 1 12.009 1 14-1.793 0-1-12.009-1-14ZM147 170c1.579 0 1 2.855 1 4-1.579 0-1-2.855-1-4ZM309 173c-1.643 0-1 3.765-1 5 1.643 0 1-3.765 1-5ZM148 175c1.714 0 1 5.594 1 7-1.714 0-1-5.594-1-7ZM308 179c-2.207 0-.338 5.176-1 6.5-.617 1.233-4 23.821-4 25.5 3.519 0 2.07-6.641 3-8.5 3.151-6.302 2-15.973 2-23.5ZM149 184c2.144 0 .381 4.262 1 5.5 1.323 2.646 3 18.475 3 21.5-3.991 0-4-22.353-4-27ZM228 190c-1.7 0-1 5.137-1 6.5V217c1.7 0 1-5.137 1-6.5V190Z"/></svg>